<?xml version="1.0" encoding="utf-8"?>
<!-- Generator: Adobe Illustrator 27.0.1, SVG Export Plug-In . SVG Version: 6.00 Build 0)  -->
<svg version="1.1" id="레이어_1" xmlns="http://www.w3.org/2000/svg" xmlns:xlink="http://www.w3.org/1999/xlink" x="0px"
	 y="0px" viewBox="0 0 720 229.5" enable-background="new 0 0 720 229.5" xml:space="preserve">
<path fill="#F74577" d="M276.677,117.454c-5.015,17.246-9.37,26.479-18.466,38.022c-4.206,5.438-9.515,10.996-13.982,14.538
	c-2.053,1.493-4.214,2.306-6.396,2.306c-6.242,0-12.617-6.657-12.617-12.904c0-4.749,1.622-5.977,8.549-11.676
	c8.967-7.196,16.014-17.383,19.561-27.566c-2.182,0.27-38.985,4.886-40.067,4.886c-5.703,0-9.78-5.023-9.78-11.95
	c0-8.694,6.927-9.498,9.921-9.921c2.443,0,24.712-2.032,44.402-4.334c0.817-7.064,1.365-12.095,10.992-12.095
	c6.525,0,10.88,3.397,11.966,9.378c8.685-1.232,32.452-4.073,32.722-4.073c5.434,0,9.096,4.608,9.096,11.672
	c0,6.251-3.662,9.374-11.668,10.183c-1.365,0-33.145,3.393-33.41,3.393L276.677,117.454z M280.489,69.792
	c0,4.749-1.912,7.064-8.698,10.996c-13.58,7.74-28.794,13.99-33.958,13.99c-6.242,0-10.996-4.749-10.996-11.141
	c0-2.443,0.95-4.882,2.443-6.52c1.771-2.032,1.506-1.896,8.42-4.48c6.528-2.302,16.977-7.599,24.58-12.219
	c2.858-1.763,5.168-2.58,7.474-2.58C275.317,57.839,280.489,63.542,280.489,69.792"/>
<path fill="#F74577" d="M338.662,120.169c-0.997-2.987-4.316-14.934-4.316-16.596c0-4.426,3.979-7.631,9.397-7.631
	c3.656,0,6.534,1.329,7.745,6.083l0.892,4.544c0.437,1.876,1.657,6.966,2.322,9.179c1.999-0.66,11.738-3.096,13.841-3.984
	c7.517-2.103,8.851-2.431,11.615-2.431c6.083,0,10.29,3.975,10.29,9.739c0,2.759-0.888,4.321-7.74,14.492
	c-4.867,6.971-5.641,8.082-9.411,8.082c-4.421,0-8.528-3.875-8.528-8.082c0-2.217,0.901-3.433,4.986-7.084
	c-5.086,1.553-5.759,1.771-11.392,3.652l3.866,14.055c0.783,3.542,5.541,19.587,5.541,22.137c0,4.43-4.098,7.74-9.516,7.74
	c-4.876,0-6.643-2.327-8.418-10.29l-2.099-8.291c-3.214-12.402-2.996-11.847-5.204-20.029c-3.765,1.211-3.975,1.32-6.534,2.199
	c-11.392,3.993-12.607,4.435-14.274,4.435c-4.089,0-7.522-4.435-7.522-9.62c0-5.878,3.975-6.861,10.955-8.637L338.662,120.169z"/>
<path fill="#F74577" d="M420.115,80.65c2.847,2.025,4.477,5.145,4.477,8.932c0,7.592-5.018,13.418-11.52,13.418
	c-1.626,0-2.711-0.263-5.154-1.09c-3.923-1.349-10.299-3.787-14.222-5.145c-8.673-2.838-13.15-4.332-13.15-11.375
	c0-7.729,4.477-13.414,10.571-13.414C396.13,71.977,417.005,78.747,420.115,80.65 M496.415,93.641c0,3.669,0,6.248-21.542,24.003
	c-18.309,14.894-38.906,28.998-54.35,37.666c-10.98,6.239-13.146,7.184-16.129,7.184c-6.226,0-12.061-6.775-12.061-14.227
	c0-2.302,0.826-4.473,2.034-6.103c1.898-2.03,2.307-2.298,12.333-7.184c23.181-11.248,47.843-28.735,68.703-48.787
	c3.801-3.519,5.29-4.337,8.95-4.337C490.453,81.857,496.415,87.688,496.415,93.641"/>
<path fill="#F74577" d="M557.844,154.768c0,1.498,0.132,2.302,0.132,2.711c0,6.37,0,15.038-12.064,15.038
	c-7.319,0-11.928-4.195-11.928-10.838l0.813-17.068c0.272-6.643,0.132-5.83,0.409-13.009c-5.426,4.736-8.94,7.723-15.442,12.727
	c-10.983,8.677-11.928,9.226-15.451,9.226c-6.638,0-12.201-5.698-12.201-12.609c0-4.609,1.081-6.093,10.171-12.196
	c0.808-0.54,1.485-0.944,6.366-4.609c13.404-9.617,23.706-17.613,33.609-26.558c-0.953,0.268-1.907,0.554-9.217,2.842
	c-14.634,4.477-15.719,4.749-18.158,4.749c-5.562,0-10.298-5.558-10.298-12.332c0-2.983,1.208-5.83,3.251-7.728
	c1.771-1.626,2.983-2.034,7.451-2.706c0.822-0.145,2.983-0.4,9.758-1.635c9.617-1.616,11.656-2.034,20.328-3.519
	c-1.63-0.813-0.813-0.395-2.302-1.221c-6.647-3.246-6.511-3.115-7.46-3.651c-7.587-3.383-9.476-5.694-9.476-10.57
	c0-6.234,5.144-11.651,10.965-11.651c2.307,0,4.613,0.804,10.979,3.655c10.302,4.745,12.872,7.188,12.872,12.332
	c0,3.387-1.626,6.638-4.604,9.072c2.979-0.667,4.745-0.808,6.911-0.808c7.315,0,12.741,4.877,12.741,11.647
	c0,4.345,0,5.149-15.047,20.873c-0.54,0.549-2.974,3.119-3.251,3.519v15.32c0,5.412,0,14.911,0.145,19.924V154.768z
	 M586.431,114.525c5.544,5.154,6.774,7.179,6.774,10.575c0,5.689-6.098,11.919-11.787,11.919c-3.265,0-5.281-1.217-9.086-5.562
	c-0.944-1.076-2.025-2.17-2.979-3.119c-3.796-3.651-4.745-5.276-4.745-8.4c0-5.689,5.962-11.515,11.792-11.515
	C579.112,108.423,581.287,109.785,586.431,114.525"/>
<path fill="#F74577" d="M614.729,96.371c0.82-6.294,4.378-9.301,11.497-9.301c6.972,0,11.478,4.506,11.478,11.212
	c0,7.252-5.047,27.504-9.833,39.266c-6.573,15.732-10.96,22.026-18.469,22.026c-6.161,0-11.909-6.019-11.909-12.317
	c0-3.149,0.953-4.644,1.916-6.147C609.402,126.607,611.447,122.362,614.729,96.371 M668.435,94.464
	c-0.825,7.11-1.508,17.767-1.925,26.395c9.305-4.786,23.672-14.508,31.203-21.205c6.285-5.606,7.376-6.298,11.07-6.298
	c5.89,0,11.217,5.615,11.217,12.042c0,5.336-1.096,6.564-13.674,16.007c-10.539,8.068-22.173,15.466-35.572,22.704
	c-2.737,1.513-13.376,7.669-18.157,7.669c-6.812,0-11.877-5.198-11.877-12.313c0-2.741,0.825-4.919,2.604-7.119l0.138-3.42
	c1.086-22.704,1.224-23.938,1.774-40.211c0.133-6.44,0.683-8.214,2.993-10.273c2.196-2.049,5.189-3.003,8.843-3.003
	c7.123,0,12.042,4.378,12.042,10.529c0,0.417,0,0.834-0.142,1.371L668.435,94.464z"/>
<path fill="#F74577" d="M4.644,213.347c0.62-2.712,1.511-5.249,2.333-7.201c3.787-9.052,8.562-17.741,12.889-26.552
	c5.439-11.084,10.906-21.666,16.409-31.755c-4.498,0.7-9.177,1.532-14.091,2.175c-7.077,0.91-9.081,1.763-15.807,1.392
	c-9.114-1.599-10.364-19.393,9.07-24.383c8.241-1.542,11.805-1.851,17.454-2.556c5.638-0.69,11.256-1.242,16.852-1.641
	c22.965-37.849,47.334-67.779,73.094-89.801C148.61,11.007,171.574,0,191.75,0c7.883,0,13.754,1.643,17.596,4.941
	c3.852,3.295,5.77,8.287,5.77,14.983c0,6.19-5.918,27.382-17.749,63.58c-11.839,36.201-21.243,69.63-28.235,100.284
	c0.793,4.093,1.343,7.09,1.643,8.987c0.301,1.898,0.448,3.494,0.448,4.793c0,5.69-1.47,10.239-4.417,13.627
	c-2.95,3.398-6.916,5.094-11.909,5.094c-4.695,0-8.562-1.82-11.608-5.467c-3.046-3.642-4.568-8.461-4.568-14.452
	c0-2.294,0.498-6.444,1.496-12.432c0.096-0.801,0.2-1.449,0.298-1.947c-9.783-11.289-20.715-19.673-32.8-25.168
	c-12.08-5.485-25.567-8.236-40.442-8.236H64.73c-5.687,10.584-11.235,21.399-16.632,32.429
	c-5.389,11.033-15.992,34.516-19.678,39.133c-3.878,5.278-12.282,12.476-19.722,7.888C3.879,225.074,3.335,219.102,4.644,213.347
	 M81.652,123.121c13.283,1.498,25.466,4.648,36.553,9.438c11.079,4.793,20.767,11.035,29.059,18.721
	c6.582-23.96,14.18-49.178,22.762-75.642c8.586-26.456,12.883-41.043,12.883-43.736c0-1.496-0.202-2.572-0.594-3.22
	c-0.402-0.651-1.052-0.98-1.955-0.98c-8.684,0-22.788,9.016-42.318,27.042C118.527,72.772,99.725,95.561,81.652,123.121"/>
</svg>
