<?xml version="1.0" encoding="utf-8"?>
<!-- Generator: Adobe Illustrator 27.0.1, SVG Export Plug-In . SVG Version: 6.00 Build 0)  -->
<svg version="1.1" id="레이어_1" xmlns="http://www.w3.org/2000/svg" xmlns:xlink="http://www.w3.org/1999/xlink" x="0px"
	 y="0px" viewBox="0 0 720 393.051" enable-background="new 0 0 720 393.051" xml:space="preserve">
<path fill="#CF000E" d="M165.718,251.028c0.461,2.967-0.701,4.461-3.448,4.461h-40.723c-3.005,0-4.719-1.475-5.18-4.443
	l-7.522-38.105c-1.364-6.673-5.328-10.01-11.909-10.01h-27.56c-6.581,0-10.563,3.355-11.927,10.029l-8.167,38.049
	c-0.461,2.986-2.175,4.48-5.162,4.48H3.638c-2.986,0-4.129-1.494-3.447-4.461L50.334,7.226c0.442-2.765,2.175-4.129,5.143-4.129
	h57.001c2.747,0,4.461,1.365,5.143,4.129L165.718,251.028 M96.274,149.1l-8.959-45.386c-0.479-2.286-1.751-3.428-3.871-3.428
	c-2.341,0-3.613,1.106-3.853,3.355c-2.009,9.641-5.125,24.757-9.346,45.386c-0.904,4.369,0.774,6.526,5.069,6.526h15.541
	C95.149,155.553,96.956,153.414,96.274,149.1z"/>
<path fill="#CF000E" d="M339.448,187.832c0,19.45-6.877,36.003-20.61,49.609c-13.734,13.624-30.344,20.444-49.792,20.444h-5.494
	c-19.449,0-36.04-6.821-49.774-20.444c-13.734-13.606-20.61-30.159-20.61-49.609V70.402c0-19.449,6.876-36.059,20.61-49.792
	C227.512,6.876,244.103,0,263.552,0h5.494c19.449,0,36.059,6.876,49.792,20.61c13.734,13.734,20.61,30.344,20.61,49.792v16.832
	c0,2.968-1.494,4.461-4.48,4.461h-43.93c-2.747,0-4.129-1.493-4.129-4.498V70.219c0-4.868-1.715-8.997-5.144-12.48
	c-3.447-3.448-7.669-5.199-12.72-5.199h-5.494c-5.033,0-9.273,1.733-12.702,5.162c-3.428,3.448-5.143,7.577-5.143,12.388v117.707
	c0,4.829,1.715,8.941,5.143,12.388c3.429,3.448,7.669,5.161,12.702,5.161h5.494c5.051,0,9.273-1.714,12.72-5.143
	c3.429-3.448,5.144-7.558,5.144-12.37v-18.213c0-2.968,1.382-4.461,4.129-4.461h43.93c2.986,0,4.48,1.493,4.48,4.461V187.832"/>
<path fill="#CF000E" d="M526.913,187.832c0,19.45-6.858,36.003-20.592,49.609c-13.734,13.624-30.344,20.444-49.793,20.444h-5.494
	c-19.467,0-36.059-6.821-49.792-20.444c-13.734-13.606-20.61-30.159-20.61-49.609V70.402c0-19.449,6.876-36.059,20.61-49.792
	C414.976,6.876,431.567,0,451.034,0h5.494c19.449,0,36.059,6.876,49.793,20.61c13.734,13.734,20.592,30.344,20.592,49.792v16.832
	c0,2.968-1.494,4.461-4.461,4.461h-43.949c-2.747,0-4.129-1.493-4.129-4.498V70.219c0-4.868-1.696-8.997-5.144-12.48
	c-3.428-3.448-7.669-5.199-12.702-5.199h-5.494c-5.032,0-9.273,1.733-12.702,5.162c-3.429,3.448-5.162,7.577-5.162,12.388v117.707
	c0,4.829,1.733,8.941,5.162,12.388c3.429,3.448,7.669,5.161,12.702,5.161h5.494c5.033,0,9.273-1.714,12.702-5.143
	c3.448-3.448,5.144-7.558,5.144-12.37v-18.213c0-2.968,1.382-4.461,4.129-4.461h43.949c2.968,0,4.461,1.493,4.461,4.461V187.832"/>
<path fill="#CF000E" d="M719.908,251.028c0.442,2.967-0.701,4.461-3.466,4.461h-40.722c-2.987,0-4.701-1.475-5.18-4.443
	l-7.503-38.105c-1.364-6.673-5.328-10.01-11.909-10.01h-27.56c-6.6,0-10.563,3.355-11.927,10.029l-8.185,38.049
	c-0.461,2.986-2.176,4.48-5.143,4.48H557.81c-2.968,0-4.111-1.494-3.429-4.461L604.505,7.226c0.461-2.765,2.194-4.129,5.162-4.129
	h57.001c2.747,0,4.461,1.365,5.143,4.129L719.908,251.028 M650.463,149.1l-8.96-45.386c-0.479-2.286-1.769-3.428-3.871-3.428
	c-2.341,0-3.631,1.106-3.871,3.355c-1.991,9.641-5.107,24.757-9.328,45.386c-0.922,4.369,0.774,6.526,5.07,6.526h15.541
	C649.339,155.553,651.145,153.414,650.463,149.1z"/>
<path fill="#CF000E" d="M460.713,121.799l2.525,0.074h16.462l1.124-0.24l2.249,1.992l0.811,0.995l-0.074,0.222l-0.443,0.277
	l-0.645,0.627c-2.415,2.672-4.185,4.165-6.747,5.678l-2.138-2.249c-0.147,6.361-2.249,9.974-7.226,12.61
	c-1.18-1.198-1.825-1.641-3.669-2.784c5.199-2.803,6.526-4.886,6.489-10.268l-0.074-2.267l4.074,0.11l0.793,0.277l-0.11,0.221
	l-0.258,0.683l-0.019,0.515l3.65-2.839h-14.25l-2.525,0.074V121.799"/>
<path fill="#CF000E" d="M491.499,128.509c0.867,1.53,1.272,2.452,2.12,4.978l-3.466,1.051c-0.571-2.01-1.014-3.208-1.954-5.051
	L491.499,128.509 M503.408,128.122l1.106,0.498l-0.166,0.313l-0.258,0.682c-1.327,7.319-4.258,10.748-10.711,12.462l-2.599-2.673
	c3.576-0.902,5.217-1.659,6.691-3.078c1.641-1.678,2.581-3.927,2.95-6.931l0.074-1.733L503.408,128.122z M496.901,127.458
	c0.774,2.157,1.087,3.3,1.437,5.088l-3.244,0.959c-0.59-2.47-0.866-3.41-1.585-5.106L496.901,127.458z"/>
<path fill="#CF000E" d="M516.94,123.071l-0.074-2.267l4.093,0.111l0.793,0.276l-0.111,0.204l-0.24,0.682l-0.074,3.004h9.015
	l-0.129,6.637c-0.276,8.701-0.848,9.475-7.355,9.457c-0.295-1.715-0.608-2.341-1.991-4.038c1.696,0.129,2.359,0.185,3.208,0.185
	l1.05-0.387c0.314-0.46,0.627-2.525,0.682-4.387l0.111-3.89h-4.904c-0.737,6.267-3.65,10.526-8.904,13.107l-3.392-3.078
	c5.033-2.526,7.042-5.125,7.835-10.029h-4.7l-2.526,0.073v-3.705l2.526,0.055h5.032L516.94,123.071"/>
<path fill="#CF000E" d="M63.884,390.783l-2.397-0.111l-3.171,0.111l-0.534,0.036l-0.885-0.755c-0.387-1.807-1.198-4.092-2.065-6.268
	c-0.885-2.194-1.807-4.222-2.341-5.53c-0.295-0.756-1.696-0.866-6.065-0.866c-6.452,0-6.655,0.165-7.042,1.253
	c-0.922,2.673-2.784,6.987-3.927,11.356l-0.885,0.866l-0.313-0.056l-2.729-0.221l-3.06,0.221l-0.442,0.056l-0.424-0.332l0.332-0.811
	c1.585-2.839,4.259-7.927,6.692-13.697c8.517-19.91,9.494-22.141,9.715-23.947l0.885-0.664l1.419-0.59l0.369-0.111l0.774,0.756
	c2.839,8.775,11.669,29.145,16.536,37.921l0.313,0.977l-0.535,0.406H63.884 M41.891,372.384l0.553,0.424l2.728,0.055
	c1.733,0,3.761-0.055,4.959-0.11l0.442-0.369l-4.037-10.212l-0.442-0.498l-0.442,0.554
	C42.278,370.855,41.891,372.163,41.891,372.384z"/>
<path fill="#CF000E" d="M120.995,391.593c-11.78,0-22.472-6.839-22.472-20.702c0-10.784,9.273-19.965,21.606-19.965
	c3.595,0,6.581,0.664,8.941,1.383c2.341,0.701,4.093,1.53,5.125,1.788l1.032,1.033l-0.147,0.774
	c-0.774,1.585-0.774,4.092-1.143,5.825l-0.608,0.609l-0.664-0.442c-1.899-3.373-6.987-5.825-12.757-5.825
	c-7.319,0-14.84,4.756-14.84,14.821c0,10.158,7.687,15.449,16.481,15.449c5.401,0,10.028-3.263,12.204-6.544l0.885-0.591
	l0.701,0.866l-0.055,0.332c-0.424,2.452-1.088,3.982-1.143,6.637l-1.088,1.53C130.268,390.321,125.087,391.593,120.995,391.593"/>
<path fill="#CF000E" d="M193.426,391.593c-11.78,0-22.472-6.839-22.472-20.702c0-10.784,9.273-19.965,21.606-19.965
	c3.595,0,6.6,0.664,8.96,1.383c2.341,0.701,4.074,1.53,5.106,1.788l1.051,1.033l-0.166,0.774c-0.756,1.585-0.756,4.092-1.143,5.825
	l-0.608,0.609l-0.645-0.442c-1.917-3.373-6.987-5.825-12.775-5.825c-7.3,0-14.84,4.756-14.84,14.821
	c0,10.158,7.687,15.449,16.481,15.449c5.401,0,10.028-3.263,12.222-6.544l0.866-0.591l0.719,0.866l-0.055,0.332
	c-0.442,2.452-1.106,3.982-1.161,6.637l-1.088,1.53C202.717,390.321,197.518,391.593,193.426,391.593"/>
<path fill="#CF000E" d="M277.986,390.783l-2.397-0.111l-3.171,0.111l-0.553,0.036l-0.866-0.755
	c-0.387-1.807-1.198-4.092-2.065-6.268c-0.885-2.194-1.807-4.222-2.36-5.53c-0.276-0.756-1.678-0.866-6.047-0.866
	c-6.434,0-6.673,0.165-7.042,1.253c-0.922,2.673-2.784,6.987-3.927,11.356l-0.866,0.866l-0.331-0.056l-2.729-0.221l-3.06,0.221
	l-0.442,0.056l-0.424-0.332l0.313-0.811c1.585-2.839,4.259-7.927,6.729-13.697c8.498-19.91,9.475-22.141,9.697-23.947l0.885-0.664
	l1.401-0.59l0.387-0.111l0.774,0.756c2.839,8.775,11.669,29.145,16.518,37.921l0.35,0.977l-0.553,0.406H277.986 M255.993,372.384
	l0.553,0.424l2.728,0.055c1.751,0,3.761-0.055,4.959-0.11l0.442-0.369l-4.037-10.212l-0.442-0.498l-0.443,0.554
	C256.381,370.855,255.993,372.163,255.993,372.384z"/>
<path fill="#CF000E" d="M324.276,389.897l-0.535,0.738c0,0-1.641-0.222-3.337-0.222l-2.378,0.222h-0.11l-0.535-0.572v-0.222
	c0.904-5.475,0.756-18.932,0.756-23.743c0-2.544-0.056-6.361-0.111-8.278l-0.7-0.792h-0.092c-1.806,0.11-5.623,0.608-5.623,0.608
	h-0.111l-0.534-0.442l0.111-0.424l1.014-3.558l0.627-0.737c3.023-0.258,6.95-0.941,9.715-1.899l0.995-0.276l0.534,0.792
	l-0.055,0.554c-0.59,5.124-0.59,20.333-0.59,21.237c0,5.53,0.424,11.43,0.959,16.85V389.897"/>
<path fill="#CF000E" d="M346.103,369.342l0.59-3.908l1.161-0.792c7.098-1.18,7.706-4.941,7.706-6.379
	c0-2.212-1.714-4.129-4.369-4.129c-3.06,0-5.936,2.378-7.318,4.554l-0.535,0.442l-0.424-0.554l-0.83-3.705l-0.221-0.682
	c0-0.996,5.033-4.406,10.12-4.406c5.567,0,9.236,3.65,9.236,7.854c0,3.668-2.968,7.06-6.36,8.277l-0.166,0.11l0.222,0.167
	c3.926,0.792,7.687,4.167,7.687,9.273c0,11.19-10.453,16.02-18.933,16.02c-2.876,0-3.355-0.554-3.466-1.291l-1.309-3.761
	l-0.055-0.258l0.424-0.479l0.571,0.147l4.203,0.811c5.402,0,12.518-3.134,12.518-11.042c0-6.268-6.047-6.416-6.95-6.416
	l-2.654,0.591l-0.59,0.221l-0.258-0.442V369.342"/>
<path fill="#CF000E" d="M408.266,391.704c0,0.701-0.277,0.701-2.913,0.701c-2.821,0-2.876-0.314-2.876-0.646
	c0.645-8.534,0.645-18.6,0.645-22.472c-0.056-4.147-0.111-11.245-0.479-19.245l0.368-0.498h0.055
	c3.927,0.277,13.199,0.442,17.974,0.442c6.95,0,12.684-0.221,19.633-0.608c0.479,0,0.572,0.165,0.572,2.672
	c0,2.065,0,2.544-0.572,2.544c-9.014-0.479-14.213-0.479-19.578-0.479c-4.24,0-13.108,0.037-13.108,0.037
	s-0.037,12.056-0.037,15.227c0,1.585,0.092,8.351,0.203,15.283c3.761,0.147,7.061,0.258,11.835,0.258c6.471,0,11.282,0,21.956-0.516
	c0.479,0,0.627,0.167,0.627,2.691c0,2.231-0.055,2.489-0.59,2.489c-10.379-0.516-15.891-0.516-21.938-0.516
	c-5.733,0-8.332,0.111-11.78,0.222V391.704 M414.423,382.542l-0.645,0.204l-0.479-0.204l-3.963-2.875l-0.59-0.406l0.59-0.332
	c4.922-1.806,9.328-5.825,12.72-9.752c-3.981-2.931-7.429-5.051-8.222-5.457l-0.479-0.497l2.71-3.373
	c0.572,0,5.826,3.428,8.904,5.567c2.397-3.355,4.682-7.595,5.309-9.881l0.313-0.461l5.512,3.761l-1.014,0.902l-2.581,2.858
	c-0.848,1.53-2.12,3.503-3.669,5.567c3.779,2.802,7.595,6.047,7.595,6.95l-3.502,3.503l-0.811-0.591
	c-1.844-2.065-4.074-4.129-6.36-5.99C422.534,375.851,418.553,379.833,414.423,382.542z"/>
<path fill="#CF000E" d="M527.208,387.889c0.516,0,0.571,0.387,0.571,2.286l-0.11,1.861l-0.461,0.332
	c-10.563-0.497-15.596-0.497-21.754-0.497c-6.95,0-10.545,0-21.532,0.497l-0.7-0.442l-0.037-1.807c0-2.23,0-2.23,0.737-2.23
	l6.729,0.277c0.055-1.18,0.11-2.618,0.11-4.296c0-2.23-0.11-3.871-0.424-7.318l0.534-0.369c3.816,0.259,10.452,0.314,14.434,0.314
	c4.332,0,10.379-0.111,14.471-0.424h0.111l0.461,0.479c-0.147,2.968-0.313,5.051-0.313,7.318l0.055,4.296L527.208,387.889
	 M504.606,367.002l-0.424,0.424l-1.696,0.055l-1.696-0.055l-0.424-0.572l0.056-0.701l-2.12-0.055l-0.368,0.369l-0.276,0.572
	l0.055,2.931c2.544,0,5.826-0.111,8.277-0.424l0.368,0.479l0.055,1.603l-0.055,1.678l-0.424,0.332
	c-0.313-0.055-2.175-0.221-11.558-0.221l-4.682,0.055l0.055,2.01l-1.585,0.59c-2.968,0-3.078-0.332-3.078-0.534v-0.092
	c0.055-0.904,0.424-9.771,0.424-15.338c0-3.778-0.147-9.07-0.368-10.397v-0.277l0.221-0.203h0.203
	c3.613,0.313,7.964,0.313,9.401,0.313c1.254,0,7.632-0.165,10.545-0.405l0.59,0.405v0.959l-0.055,2.655l-0.368,0.423
	c-1.917-0.165-4.996-0.276-7.374-0.332l-0.368,0.498l-0.276,0.516l0.055,2.507c1.641,0,3.705-0.111,6.415-0.277l0.368,0.277v0.165
	c-0.092,1.31-0.203,3.023-0.203,4.701c0,2.028,0.111,3.982,0.313,5.162V367.002z M489.637,353.194l-0.037,3.466l4.129,0.056
	l-0.055-3.522H489.637z M494.32,359.794l-4.72,0.11v3.116l4.664,0.11c1.438,0,4.406-0.055,6.158-0.11l-0.056-3.116
	c0,0-2.875-0.11-5.032-0.11H494.32z M489.637,369.915l4.093,0.055l-0.055-3.872l-4.038,0.055V369.915z M499.205,379.667
	c-2.176,0-3.871,0.073-3.871,0.073s-0.056,1.641-0.056,4.167l0.056,4.369l3.908,0.055
	C499.242,380.736,499.205,380.091,499.205,379.667z M507.261,388.386c0-7.503,0-7.964-0.056-8.719l-1.899-0.037h-1.29v0.037
	l-0.424,0.59l-0.258,0.59c0,0.793,0,5.088,0.055,7.54H507.261z M512.459,359.407c-1.382,2.489-2.71,4.774-3.244,4.774l-0.313-0.11
	l-4.037-1.106l-0.461-0.259l0.147-0.276c4.572-4.498,7.706-12.775,7.742-15.172l0.424-0.295l5.199,2.415l-0.738,0.959l-1.272,1.438
	l-1.438,3.558h2.175c2.82,0,4.774,0,10.139-0.424c0.572,0,0.572,0.534,0.572,2.821l-0.056,1.733l-0.516,0.332
	c-3.078-0.277-5.53-0.387-10.139-0.387H512.459z M509.178,365.472c4.019,0.424,6.415,0.461,7.89,0.461
	c3.244,0,5.365-0.037,9.181-0.461c0.368,0,0.59,0.314,0.59,2.526l-0.11,2.175l-0.479,0.387c-3.816-0.442-6.268-0.479-7.632-0.479
	c-4.941,0-5.622,0.037-9.439,0.479c-0.535,0-0.645-0.055-0.645-2.562c0-2.102,0.055-2.526,0.479-2.526H509.178z M515.538,384.072
	c0-2.58-0.111-4.332-0.111-4.332s-1.438-0.073-3.392-0.073l-0.479,0.59l-0.222,0.59c0,0.793,0,5.033,0.056,7.485l4.092-0.055
	L515.538,384.072z"/>
<path fill="#CF000E" d="M587.213,388.792c0,2.175-1.438,4.092-6.416,4.259l-0.7-0.498l-2.654-3.65l-0.203-0.277l0.203-0.11h0.11
	l3.079,0.332c1.806,0,1.917-0.165,1.917-4.442l-0.055-3.761c-3.134,0.055-3.724,0.092-9.402,0.295c-0.571,0-0.571,0-0.571-2.23
	v-0.904c-1.696,1.346-3.558,2.507-5.567,3.521l-0.313,0.056l-0.498-0.111l-4.295-2.01l-0.313-0.221l0.313-0.222
	c3.927-1.309,7.171-3.373,9.936-5.66l-3.448-1.53l-0.424-0.331l2.12-2.176l0.258-0.11l4.185,1.715l1.972-2.084l-3.466-1.641
	l-0.406-0.258l1.899-2.286l0.277-0.11c0.258,0,1.843,0.534,3.871,1.585c1.217-1.697,2.175-3.171,2.857-4.332
	c-1.014,0.036-1.327,0.091-3.023,0.091l-2.821,0.056c-3.705,4.405-8.572,8.701-9.162,8.701l-0.479-0.167l-3.614-1.585l-0.258-0.203
	l0.203-0.165c6.47-3.245,11.835-11.209,12.905-13.366v-0.055c-1.807,0-3.724,0.055-6.213,0.167c0,1.953,0.092,3.484,0.258,5.511
	c0,0.351-0.479,0.516-3.337,0.516l-2.378-0.46v-0.111c0.572-3.503,0.572-5.088,0.572-5.678l-0.203-3.724v-0.203l0.368-0.313h0.258
	c8.904,0.424,13.273,0.479,17.605,0.479c-0.037-1.273-0.092-3.135-0.516-5.255l-0.056-0.332l0.203-0.147l6.323,0.996l0.738,0.701
	l-1.125,2.378l-0.313,1.66c5.107,0,9.181,0,18.306-0.479l0.479,0.313v0.167c-0.111,1.751-0.221,3.116-0.221,3.982
	c0,1.861,0.055,3.226,0.387,5.401v0.055c0,0.406-0.756,0.479-3.134,0.479h-1.014l-0.738,0.627c-1.014,1.53-4.092,5.734-6.47,7.909
	c3.281,2.544,7.576,4.83,12.72,6.102l0.534,0.167l-0.534,0.368l-4.498,2.748l-0.7,0.221c-0.572,0-5.199-1.807-10.6-6.636
	l-0.055,2.028l-0.368,0.24c-3.392-0.295-5.365-0.295-6.673-0.295c-1.825,0-3.466,0-6.379,0.295l-0.424-0.35v-1.66l-4.516,4.204
	c6.158,0.258,6.213,0.313,11.042,0.313c4.885,0,5.881,0,12.665-0.313c0.424,0,0.534,0.092,0.534,2.065l-0.111,1.696l-0.368,0.203
	c-4.977-0.147-6.95-0.24-9.752-0.295l0.479,0.295l-0.59,0.554c-0.258,0.185-0.368,0.682-0.368,4.756l0.166,2.341V388.792
	 M574.438,382.119l4.129,2.747l-0.848,0.498l-1.014,0.57c-0.904,0.793-3.724,3.761-7.964,5.771l-0.516,0.165l-0.313-0.165
	l-3.89-2.416l-0.148-0.221l0.222-0.167c5.235-1.641,9.051-4.941,10.065-6.526L574.438,382.119z M578.881,358.467
	c1.917,0,4.129-0.11,4.129-0.11l1.29-0.387l3.392,2.562l-0.387,0.479c0.959,1.697,2.507,3.761,4.572,5.844l3.871-4.996
	c-0.848,0-2.065,0.037-5.419,0.313c-0.479,0-0.516,0-0.516-2.857l0.424-1.235c1.862,0.167,3.392,0.222,4.719,0.222l3.189-0.055
	l1.106-0.516l1.751,1.051c0-0.167,0.037-0.811,0.037-3.705c-3.171-0.167-5.605-0.167-7.779-0.167c-2.931,0-5.365,0.055-8.277,0.055
	c-3.558,0-6.158-0.055-9.347-0.055l4.461,2.212l-0.848,0.664l-0.959,0.572l-0.092,0.11H578.881z M584.669,364.236
	c-1.235,1.862-2.913,4.259-5.051,6.73c1.917,0.221,3.134,0.221,4.093,0.221c3.116,0,5.032-0.11,6.526-0.221
	C587.785,368.587,585.886,366.21,584.669,364.236z M604.395,388.626l-4.148,2.231l-0.461,0.165l-8.646-6.949l3.503-1.733
	l0.461,0.147c0.535,0.59,4.775,4.461,9.347,5.678l0.258,0.222L604.395,388.626z"/>
<path fill="#CF000E" d="M644.951,354.373c4.074,0.424,6.673,0.479,8.222,0.479c4.277,0,6.987-0.11,10.176-0.479
	c0.424,0,0.59,0.055,0.59,2.341l-0.111,2.01l-0.479,0.369c-3.871-0.424-6.95-0.479-8.554-0.479c-2.95,0-6.452,0.11-9.844,0.479
	c-0.498,0-0.59-0.167-0.59-2.323c0-2.12,0.092-2.397,0.424-2.397H644.951 M661.911,390.543c0,0.221,0,0.59-2.231,0.59
	c-1.806,0-2.378-0.11-2.378-0.627v-0.11l0.111-2.452l-3.042-0.111l-3.116,0.111l0.092,3.926c0,0.683-0.037,0.848-2.212,0.848
	c-2.544,0-2.655-0.277-2.655-0.737v-0.222c0.369-3.595,0.424-7.355,0.424-8.628c0-1.585,0-5.161-0.221-7.65l-0.037-0.424
	l0.461-0.277h0.277c2.065,0.167,4.461,0.277,7.042,0.277c2.507,0,3.724-0.055,6.895-0.277h0.165l0.424,0.443v0.221
	c0,0.295-0.147,2.359-0.147,7.946v3.503c5.992-3.669,10.121-9.494,12.038-12.573c-2.083,0.055-4.461,0.221-9.125,0.424
	c-0.534,0-0.645-0.056-0.645-1.752c0-2.544,0-2.544,0.645-2.544c5.881,0.332,8.001,0.387,10.397,0.387l-0.055-4.203l-4.461,0.055
	l0.056,1.106c0,0.424-0.258,0.479-2.397,0.479c-2.102,0-2.268-0.277-2.268-0.424c0.313-3.779,0.424-6.047,0.424-9.494
	c0-2.489-0.111-5.844-0.368-9.605l0.479-0.369c3.447,0.204,7.153,0.259,10.932,0.259c4.074,0,6.895-0.092,10.545-0.369h0.056
	l0.424,0.479c-0.221,3.613-0.276,6.895-0.276,9.605c0,2.507,0.221,5.255,0.424,8.905l-0.424,0.59l-1.844,0.037
	c-2.231,0-2.341-0.037-2.341-0.572v-0.627c-1.124-0.055-2.913-0.055-4.885-0.055l-0.055,4.203c2.654-0.055,5.899-0.11,11.522-0.387
	l0.479,0.387l0.055,1.788l-0.055,1.862l-0.479,0.259c-5.052-0.259-7.909-0.369-10.453-0.424c2.065,3.134,6.637,8.959,13.421,12.037
	l0.369,0.314l-0.479,0.314l-4.775,2.248l-0.424,0.204c-0.682,0-5.789-4.186-9.18-10.343c0.055,3.558,0.166,8.554,0.645,13.107
	l-0.313,0.314l-2.341,0.092c-2.489,0-2.691-0.055-2.691-0.516c0.406-4.314,0.682-9.235,0.737-12.83
	c-4.147,7.41-9.18,10.968-9.494,10.968l-0.424-0.165l-3.3-1.438l0.055,1.493V390.543z M654.058,351.719
	c-1.954,0-2.802,0-6.249,0.277c-0.424,0-0.535-0.167-0.535-2.01c0-2.139,0.111-2.175,0.645-2.175
	c3.484,0.258,4.406,0.258,6.139,0.258c1.917,0,3.448-0.055,6.839-0.314c0.332,0,0.59,0.056,0.59,2.176
	c0,1.788-0.11,2.065-0.59,2.065C657.56,351.719,656.251,351.719,654.058,351.719z M647.44,363.498c0-2.065,0.258-2.12,0.627-2.12
	c3.392,0.259,4.314,0.259,5.992,0.259c1.862,0,3.355-0.037,6.692-0.314l0.479,0.479l0.055,1.751l-0.055,1.697l-0.479,0.313
	c-3.244-0.258-4.554-0.258-6.692-0.258c-1.899,0-2.71,0-6.102,0.258C647.532,365.563,647.44,365.195,647.44,363.498z
	 M652.749,368.107c0.885,0,4.867,0,8.001-0.258l0.479,0.424l0.055,1.806l-0.055,1.697l-0.479,0.313
	c-3.244-0.276-4.554-0.313-6.692-0.313c-1.899,0-2.71,0.037-6.102,0.313l-0.461-0.424l-0.056-1.953c0-1.715,0.203-1.825,0.627-1.825
	C650.518,368.107,651.625,368.107,652.749,368.107z M657.413,382.966l-0.056-4.259c0,0-1.327-0.037-3.023-0.037
	c-1.696,0-3.023,0.037-3.023,0.037l-0.056,4.369v0.996l3.078,0.055l3.116-0.055L657.413,382.966z M674.908,355l-0.166-2.894
	c-2.434,0-4.388,0.037-4.388,0.037s-0.055,1.862-0.055,3.668c1.161,0,2.857,0.055,4.609,0.055V355z M670.465,363.166
	c1.162,0,2.858,0.056,4.554,0.056l-0.055-3.964c-1.751,0-3.448,0.092-4.609,0.092L670.465,363.166z M679.148,363.278
	c2.028,0,3.816-0.111,4.941-0.111l0.055-3.815c-1.125,0-2.913-0.092-4.94-0.092L679.148,363.278z M679.203,355.921
	c1.972,0,3.815-0.11,4.94-0.11c0-1.898-0.11-3.668-0.11-3.668s-1.641-0.037-3.872-0.037l-0.534,0.461L679.258,355L679.203,355.921z"
	/>
<path fill="#CF000E" d="M97.73,310.627l4.793,13.237l0.498,0.996l0.627,0.405l1.032,0.295l0.018,0.479l-2.636-0.036l-2.913,0.036
	l-0.037-0.479l1.032-0.295l0.295-0.165l0.111-0.295l-0.129-0.572l-0.313-0.941l-1.032-2.894h-5.199l-1.143,2.894l-0.35,0.959
	l-0.129,0.572l0.092,0.277l0.313,0.147l0.995,0.295l0.019,0.497l-2.489-0.036l-2.175,0.036l-0.055-0.479l1.087-0.332l0.608-0.405
	l0.424-0.829l5.531-13.199L97.73,310.627 M94.283,319.421h4.443l-2.102-5.972L94.283,319.421z"/>
<path fill="#CF000E" d="M121.714,314.627l-0.424,0.074l-0.793-2.857l-2.433-0.332c-1.77,0-3.152,0.608-4.166,1.843
	c-1.014,1.235-1.512,2.839-1.512,4.811c0,2.102,0.572,3.779,1.733,5.051c1.143,1.255,2.747,1.862,4.793,1.862l3.613-0.645
	l0.129,0.479c-1.419,0.996-3.023,1.474-4.83,1.474c-2.323,0-4.203-0.718-5.659-2.138c-1.438-1.42-2.157-3.3-2.157-5.623
	c0-2.452,0.793-4.424,2.378-5.862c1.585-1.438,3.65-2.157,6.194-2.157l3.742,0.424l0.074,0.092L121.714,314.627"/>
<path fill="#CF000E" d="M140.591,314.627l-0.442,0.074l-0.774-2.857l-2.433-0.332c-1.77,0-3.171,0.608-4.166,1.843
	c-1.014,1.235-1.512,2.839-1.512,4.811c0,2.102,0.572,3.779,1.714,5.051c1.161,1.255,2.765,1.862,4.812,1.862l3.613-0.645
	l0.129,0.479c-1.419,0.996-3.042,1.474-4.83,1.474c-2.341,0-4.221-0.718-5.659-2.138c-1.438-1.42-2.157-3.3-2.157-5.623
	c0-2.452,0.793-4.424,2.378-5.862c1.567-1.438,3.65-2.157,6.176-2.157l3.761,0.424l0.074,0.092L140.591,314.627"/>
<path fill="#CF000E" d="M154.842,310.627l4.812,13.237l0.479,0.996l0.645,0.405l1.014,0.295l0.018,0.479l-2.636-0.036l-2.913,0.036
	l-0.037-0.479l1.032-0.295l0.313-0.165l0.092-0.295l-0.129-0.572l-0.313-0.941l-1.014-2.894h-5.217l-1.143,2.894l-0.35,0.959
	l-0.129,0.572l0.092,0.277l0.313,0.147l1.014,0.295l0.018,0.497l-2.507-0.036l-2.175,0.036l-0.055-0.479l1.087-0.332l0.608-0.405
	l0.424-0.829l5.531-13.199L154.842,310.627 M151.394,319.421h4.461l-2.12-5.972L151.394,319.421z"/>
<polyline fill="#CF000E" points="174.327,310.848 177.018,310.904 179.691,310.848 179.747,311.309 178.419,311.715 
	178.125,312.046 178.106,312.877 178.106,323.66 178.014,325.597 177.737,327.145 177.148,328.361 176.207,329.32 174.806,330.058 
	172.889,330.63 172.723,330.094 174.493,329.025 175.47,327.735 175.876,326.076 175.986,323.992 175.986,313.908 175.968,312.914 
	175.949,312.103 175.691,311.733 174.345,311.309 174.327,310.848 "/>
<path fill="#CF000E" d="M195.638,325.043l-3.374,1.255l-2.562-0.848l-0.848-2.434v-2.304l-0.037-3.484l-1.456-0.369l-0.037-0.387
	l3.503-0.756l0.092,0.074l-0.055,3.263v3.428l0.627,1.917l1.733,0.59l2.286-0.608v-4.609l-0.037-2.544l-1.42-0.369l-0.055-0.387
	l3.503-0.756l0.092,0.074l-0.055,3.336c0,2.599,0,4.204,0.018,4.793l0.055,0.719l0.203,0.405l0.461,0.204l0.793,0.073l0.055,0.424
	l-1.143,0.369l-0.904,0.185L195.638,325.043"/>
<polyline fill="#CF000E" points="213.004,316.822 211.639,316.638 210.035,317.043 209.409,318.112 209.777,319.145 
	211.197,319.882 212.063,320.177 214.128,321.339 214.791,323.072 213.483,325.449 210.404,326.298 207.031,325.634 
	207.639,322.887 208.063,322.813 208.837,325.155 210.404,325.394 211.99,324.97 212.579,323.827 212.192,322.721 210.902,322.058 
	209.796,321.689 207.75,320.491 207.197,318.776 208.542,316.546 211.676,315.715 214.644,316.195 214.11,318.795 213.704,318.887 
	213.004,316.822 "/>
<path fill="#CF000E" d="M223.327,316.638l3.742-0.923l2.618,0.866l0.958,2.508l-0.055,4.497l0.037,0.885l0.185,0.516l0.479,0.258
	l0.848,0.073l0.037,0.424l-1.125,0.369l-0.922,0.185l-1.457-1.088l-2.894,1.088l-2.433-0.738l-0.922-2.101l1.475-2.452
	c1.014-0.516,2.563-0.793,4.683-0.793v-0.829l-0.608-1.807l-1.917-0.572l-2.47,0.351L223.327,316.638 M228.581,321.098l-3.116,0.479
	l-0.83,1.567l0.553,1.456l1.493,0.406l1.88-0.369L228.581,321.098z"/>
<polyline fill="#CF000E" points="239.826,316.472 243.255,315.717 243.366,315.79 243.366,317.062 246.868,315.717 249.283,316.583 
	250.15,319.016 250.15,322.85 250.168,324.842 250.445,325.229 251.662,325.579 251.68,326.04 249.191,326.003 246.813,326.04 
	246.776,325.579 247.864,325.284 248.122,324.934 248.14,324.252 248.14,319.532 247.495,317.634 245.633,317.062 243.366,317.689 
	243.366,322.408 243.384,324.879 243.642,325.247 244.766,325.579 244.785,326.04 242.37,326.003 239.863,326.04 239.826,325.579 
	241.098,325.229 241.337,324.879 241.356,323.551 241.356,319.864 241.301,317.228 239.882,316.86 239.826,316.472 "/>
<rect x="258.022" y="319.919" fill="#CF000E" width="6.01" height="1.401"/>
<path fill="#CF000E" d="M270.188,310.831l-0.055-0.369l3.539-0.774l0.092,0.092c-0.037,1.051-0.055,2.691-0.055,4.904v7.06
	l0.019,3.153l0.276,0.387l1.051,0.295l0.019,0.46l-2.36-0.036l-2.525,0.036l-0.037-0.46l1.272-0.369l0.24-0.332l0.018-2.709v-4.443
	c0-3.742,0-5.917-0.037-6.47L270.188,310.831 M281.526,326.039l-2.139-0.036l-1.235,0.018l-0.959-1.419l-3.208-4.074l3.908-3.779
	l-1.198-0.35l-0.055-0.424l2.065,0.037l2.267-0.037l0.037,0.424l-1.567,0.515l-1.125,0.811l-2.304,2.139l3.484,4.332l0.904,0.977
	l1.106,0.406L281.526,326.039z"/>
<path fill="#CF000E" d="M296.698,325.043l-3.374,1.255l-2.563-0.848l-0.848-2.434v-2.304l-0.037-3.484l-1.438-0.369l-0.055-0.387
	l3.503-0.756l0.111,0.074l-0.074,3.263v3.428l0.627,1.917l1.733,0.59l2.304-0.608v-4.609l-0.055-2.544l-1.42-0.369l-0.055-0.387
	l3.503-0.756l0.111,0.074l-0.074,3.336c0,2.599,0,4.204,0.018,4.793l0.074,0.719l0.203,0.405l0.442,0.204l0.793,0.073l0.056,0.424
	l-1.143,0.369l-0.885,0.185L296.698,325.043"/>
<path fill="#CF000E" d="M430.516,313.853v8.83l0.019,1.18v0.959l0.295,0.368l1.198,0.369l0.037,0.479l-2.581-0.037l-2.673,0.037
	l-0.055-0.479l1.346-0.387l0.276-0.35l0.019-0.959v-10.95l-0.019-0.811l-0.258-0.369l-1.346-0.424l-0.018-0.46l2.691,0.055
	l2.562-0.055l0.056,0.46l-1.235,0.387l-0.295,0.332v0.848L430.516,313.853 M430.812,318.333l4.35-4.847l0.829-0.978l0.313-0.627
	l-0.295-0.295l-0.885-0.24l-0.019-0.497l2.397,0.055l2.378-0.055l0.037,0.46l-1.087,0.35l-0.867,0.498l-0.774,0.792l-4.332,4.775
	l4.922,6.471l0.627,0.663l0.793,0.406l0.977,0.295l0.018,0.479l-2.304-0.037h-0.737l-0.756,0.019l-2.01-2.931L430.812,318.333z"/>
<path fill="#CF000E" d="M448.398,316.638l3.724-0.923l2.618,0.866l0.959,2.508l-0.056,4.497l0.037,0.885l0.184,0.516l0.479,0.258
	l0.848,0.073l0.055,0.424l-1.143,0.369l-0.922,0.185l-1.438-1.088l-2.894,1.088l-2.452-0.738l-0.922-2.101l1.493-2.452
	c0.996-0.516,2.544-0.793,4.664-0.793l0.018-0.829l-0.627-1.807l-1.917-0.572l-2.47,0.351L448.398,316.638 M453.634,321.098
	l-3.116,0.479l-0.83,1.567l0.553,1.456l1.493,0.406l1.881-0.369L453.634,321.098z"/>
<polyline fill="#CF000E" points="464.88,316.472 468.308,315.717 468.419,315.79 468.419,317.062 471.94,315.717 474.336,316.583 
	475.221,319.016 475.221,322.85 475.24,324.842 475.516,325.229 476.715,325.579 476.733,326.04 474.244,326.003 471.884,326.04 
	471.829,325.579 472.917,325.284 473.175,324.934 473.194,324.252 473.194,319.532 472.567,317.634 470.686,317.062 
	468.419,317.689 468.419,322.408 468.455,324.879 468.695,325.247 469.82,325.579 469.838,326.04 467.442,326.003 464.916,326.04 
	464.88,325.579 466.151,325.229 466.391,324.879 466.409,323.551 466.409,319.864 466.373,317.228 464.935,316.86 464.88,316.472 
	"/>
<polyline fill="#CF000E" points="490.522,316.822 489.158,316.638 487.536,317.043 486.927,318.112 487.296,319.145 
	488.715,319.882 489.582,320.177 491.646,321.339 492.31,323.072 491.001,325.449 487.923,326.298 484.549,325.634 485.139,322.887 
	485.563,322.813 486.356,325.155 487.923,325.394 489.508,324.97 490.098,323.827 489.693,322.721 488.439,322.058 487.315,321.689 
	485.268,320.491 484.697,318.776 486.061,316.546 489.195,315.715 492.181,316.195 491.61,318.795 491.204,318.887 490.522,316.822 
	"/>
<path fill="#CF000E" d="M500.846,316.638l3.742-0.923l2.618,0.866l0.959,2.508l-0.056,4.497l0.019,0.885l0.203,0.516l0.479,0.258
	l0.83,0.073l0.055,0.424l-1.143,0.369l-0.904,0.185l-1.457-1.088l-2.894,1.088l-2.434-0.738l-0.922-2.101l1.493-2.452
	c0.977-0.516,2.525-0.793,4.664-0.793l0.018-0.829l-0.627-1.807l-1.935-0.572l-2.452,0.351L500.846,316.638 M506.1,321.098
	l-3.116,0.479l-0.83,1.567l0.553,1.456l1.493,0.406l1.881-0.369L506.1,321.098z"/>
<path fill="#CF000E" d="M520.626,317.134c-0.056,2.453-0.074,4.425-0.074,5.918l0.332,1.548l1.291,0.424l1.936-0.203l0.074,0.497
	l-3.355,0.941l-1.77-0.646l-0.59-1.898c0-1.383,0.018-3.595,0.074-6.637l-1.493-0.368l-0.074-0.424l1.678-0.147l0.756-2.636
	l1.125-0.295l0.129,0.055l-0.037,2.452v0.405h3.244v1.014H520.626"/>
<polyline fill="#CF000E" points="537.9,316.822 536.536,316.638 534.932,317.043 534.305,318.112 534.674,319.145 536.093,319.882 
	536.96,320.177 539.024,321.339 539.688,323.072 538.379,325.449 535.3,326.298 531.927,325.634 532.535,322.887 532.96,322.813 
	533.734,325.155 535.3,325.394 536.867,324.97 537.476,323.827 537.089,322.721 535.817,322.058 534.674,321.689 532.646,320.491 
	532.093,318.776 533.439,316.546 536.573,315.715 539.559,316.195 539.006,318.795 538.582,318.887 537.9,316.822 "/>
<path fill="#CF000E" d="M555.413,325.043l-3.374,1.255l-2.544-0.848l-0.848-2.434v-2.304l-0.056-3.484l-1.438-0.369l-0.055-0.387
	l3.521-0.756l0.092,0.074l-0.056,3.263v3.428l0.609,1.917l1.733,0.59l2.304-0.608v-4.609l-0.037-2.544l-1.438-0.369l-0.055-0.387
	l3.503-0.756l0.111,0.074l-0.074,3.336c0,2.599,0.018,4.204,0.018,4.793l0.074,0.719l0.203,0.405l0.442,0.204l0.811,0.073
	l0.055,0.424l-1.161,0.369l-0.885,0.185L555.413,325.043"/>
<rect x="567.046" y="319.919" fill="#CF000E" width="6.01" height="1.401"/>
<path fill="#CF000E" d="M581.295,310.831l-0.055-0.369l3.539-0.774l0.092,0.092c-0.037,1.051-0.055,2.691-0.055,4.904v7.06
	l0.019,3.153l0.276,0.387l1.051,0.295l0.019,0.46l-2.378-0.036l-2.508,0.036l-0.037-0.46l1.272-0.369l0.24-0.332l0.018-2.709v-4.443
	c0-3.742-0.018-5.917-0.037-6.47L581.295,310.831 M592.633,326.039l-2.139-0.036l-1.235,0.018l-0.959-1.419l-3.208-4.074
	l3.908-3.779l-1.216-0.35l-0.037-0.424l2.065,0.037l2.249-0.037l0.055,0.424l-1.567,0.515l-1.125,0.811l-2.323,2.139l3.503,4.332
	l0.904,0.977l1.106,0.406L592.633,326.039z"/>
<path fill="#CF000E" d="M600.597,316.638l3.742-0.923l2.636,0.866l0.941,2.508l-0.037,4.497l0.019,0.885l0.203,0.516l0.461,0.258
	l0.848,0.073l0.055,0.424l-1.143,0.369l-0.903,0.185l-1.457-1.088l-2.894,1.088l-2.452-0.738l-0.922-2.101l1.493-2.452
	c0.996-0.516,2.544-0.793,4.664-0.793l0.018-0.829l-0.627-1.807l-1.917-0.572l-2.47,0.351L600.597,316.638 M605.851,321.098
	l-3.098,0.479l-0.829,1.567l0.553,1.456l1.493,0.406l1.862-0.369L605.851,321.098z"/>
<path fill-rule="evenodd" clip-rule="evenodd" fill="#CF000E" d="M435.623,273.242v-0.664h-0.074l0.074-0.922l0.185-0.277
	l-0.258-0.185l-0.074-1.106l-0.166-0.092l-0.166-0.829l-0.166-0.092v-0.461h-0.074l-0.092-0.46l-0.147-0.092v-0.185h-0.092v-0.369
	l-0.258-0.203v-0.165h-0.074v-0.369h-0.074L434,266.31l-0.424-0.572h-0.074v-0.258l-0.166-0.092v-0.387l-0.166-0.165l-0.885,0.81
	v0.387h-0.332v0.092l-0.995,1.015l-0.074,0.368l-0.664,0.092l-0.553,0.737h-0.166l-0.185,0.185v0.167l-0.147,0.092l0.074,0.295
	h-0.074l-0.092,0.092v0.092h-0.147v0.092h-0.184l-0.313,0.737l-0.738,0.645v0.369l-0.166,0.092l0.074,0.369h-0.166l-0.147,0.94
	l-0.166,0.074l-0.092,1.198l-0.166,0.11l0.092,1.088l-0.166,0.092l0.074,0.645l0.166,0.092l0.092,0.645l0.24,0.185v0.387h0.074
	v0.167l0.166,0.092l-0.074,0.387h0.074l0.424,0.35h0.24l0.074,0.185l0.663,0.387l0.166,0.35h0.074v0.092h-0.074l0.074,0.295h-0.166
	l-0.147,0.461h-0.092l0.092,0.627l-0.258,0.479l-0.147,0.092l0.074,0.165l-0.258,0.296l-0.166-0.204h-0.24v-0.092l-0.332,0.092
	l-0.166-0.092l-0.147,0.092v-0.092h-0.166v-0.092l-0.092,0.092l-0.738-0.092h-1.216l-0.092-0.165l-0.811-0.092v-0.092l-0.092,0.092
	h-0.553l-0.184-0.277l-0.406,0.185l-0.24-0.185h-0.83l-0.166-0.11l-0.24,0.11v-0.11l-1.382-0.092v0.092h-0.498v-0.092h-0.572
	l-0.166-0.258h-0.313v-0.092h-0.995l-0.074-0.941l-0.332-0.277l0.074-0.258l-0.24-0.203l0.166-0.922l-0.166-0.092v-0.167h-0.092
	l-0.074-0.829l-0.166-0.11v-0.277l-0.166-0.092v-0.35l-0.166-0.111v-0.46h-0.074l-0.074-0.461l-0.332-0.277v-0.46l-0.166-0.092
	v-0.277h-0.092l-0.074-0.46l-0.331-0.554l-0.332-0.185v-0.552h-0.147v-0.092l-0.332-0.277v-0.277l-0.166-0.092v-0.185l-0.498-0.46
	v-0.185l-0.147-0.092v-0.277l-0.664-0.276l0.074-0.277l-0.645-0.738l-0.498-0.183l-0.074-0.204h-0.24l-0.092-0.165h-0.166
	l-0.074-0.185h-0.166l-0.424-0.552h-0.24v-0.185l-0.479-0.185l-0.092-0.203h-0.24l-0.166-0.167v-0.185l-0.738-0.203v-0.277
	l-0.479-0.258v-0.092h-0.498l-0.24-0.387l-0.682,0.092l-0.056-0.165h-0.35l-0.074-0.185l-0.406-0.092v-0.092h-0.572l-0.166-0.295
	h-0.332v-0.092h-0.147l-0.092-0.167l-0.829,0.167l-0.074-0.167l-0.904-0.092v0.092h-0.406v-0.092h-0.258v-0.092l-0.147,0.092h-2.138
	l-0.166-0.092l-0.074,0.185l-0.24,0.092v0.074h-0.663v0.092l-0.406,0.092v-0.092h-0.572l-2.046,0.479v0.185h-0.166l-0.092,0.165
	h-0.719v0.203l-0.332,0.092v0.092l-0.258-0.092l-0.405,0.092v0.185l-0.479,0.165l-0.074,0.185h-0.258l-0.074,0.203h-0.185
	l-0.074,0.185l-0.811,0.074l-0.258,0.479l-0.977,0.277l-0.074,0.276l-0.59,0.092l-0.074,0.277l-0.977,0.165v0.204l-0.572,0.46
	l-0.829,0.074l-0.166,0.295h-0.147v0.092h-0.332l-0.092,0.185h-0.166v0.092l-0.313,0.092v0.183l-0.738,0.185l-0.092,0.185
	l-0.406,0.092v0.092h-0.24l-0.092,0.185l-0.645,0.092l-0.092,0.276l-0.313,0.369h-0.829v0.092l-0.498,0.092v0.185l-0.885,0.092
	l-0.092,0.276l-0.406,0.092v0.092h-0.737l-0.074,0.185h-0.331v0.092l-1.069-0.092l-1.954,0.185v-0.092h-0.332v-0.092l-1.069,0.092
	l-0.166-0.277h-0.24v-0.092h-0.756l-0.147-0.276l-0.996-0.092l-0.479-0.369l-0.258-0.369l-0.406,0.185l0.258,0.554h0.074v0.46
	l0.572,0.554l0.332,0.46l0.092,0.646h0.074l0.147,0.387h0.332l0.35,0.811h0.24v0.092l0.479,0.276l0.829,0.738l0.166,0.295h0.24
	v0.092h0.406l0.074,0.165h0.185l0.24,0.387h0.406v0.092h1.05v0.092h0.498l0.166,0.167l0.092-0.167l0.811-0.092v0.092l0.995-0.092
	v-0.092l0.977,0.092v-0.092h0.406l0.074-0.203h0.497v-0.092l0.572-0.092l0.092-0.165l0.719-0.203l0.166-0.277l0.332-0.092
	l0.074-0.185l0.498-0.073l0.331-0.479h0.258l0.074-0.185h0.166v-0.074h0.166v-0.11h0.24l0.074-0.185h0.258v-0.092l0.24-0.092v-0.368
	l0.572-0.185l0.092-0.461l0.405-0.073l0.074-0.204l0.406-0.46l0.498-0.277l0.074-0.185h0.424v-0.092l0.313-0.258l0.498-0.664h0.331
	l0.738-0.092l0.074-0.185l0.738,0.185l0.166,0.922v0.092h-0.24v0.092h-0.092l0.258,0.185l-0.258,0.277v0.737h-0.074v0.185h-0.074
	v1.014l-0.185,0.11l0.092,0.351l-0.166,0.092l-0.074,0.829h-0.166l-0.24,0.645h-0.092l0.092,0.646l-0.166,0.092l-0.092,0.645
	l-0.165,0.092l0.074,0.277l-0.148,0.11v0.185l-0.331,0.258v0.738l-0.258,0.203l-0.055,0.534h-0.092v0.092l-0.332,0.295h-0.166
	l-0.166,0.922l-0.166,0.092v0.167h-0.074v0.387l-0.24,0.185v0.46l-0.166,0.185h-0.332l-0.166,0.461h-0.074v0.46l-0.829,0.904
	l-0.24,0.203v0.185l-0.166,0.092v0.185l-0.166,0.073v0.296h-0.074l-0.332,0.442h-0.166l-0.313,0.295h-0.092v0.369h-0.092
	l-0.24,0.368h-0.24l-0.092,0.369h-0.074l-0.258,0.369l-0.313,0.276l-0.904,0.83v0.276l-0.166,0.185h-0.24v0.185h-0.332l-0.663,0.941
	h-0.147l-0.092,0.165h-0.313v0.092h-0.092v0.277l-0.572,0.092l-0.074,0.277l-0.332,0.368l-0.572,0.369l-0.092,0.185h-0.166
	l-0.074,0.185l-0.498,0.092l-0.166,0.295h-0.332l-0.24,0.35l-0.498,0.461l-0.645,0.091v0.185l-0.645,0.092v0.295h0.074v0.074h-0.406
	l-0.166,0.277l-0.572,0.092l-0.258,0.387h-0.313v0.073h-0.166l-0.166,0.277h-0.59v0.11h-0.147l-0.092,0.185l-0.719,0.092
	l-0.092,0.258l-0.977,0.204v0.183l-0.737,0.443v0.11l-0.498-0.11v0.11h-0.166l-0.074,0.185h-0.166v0.092l-1.401,0.092l-0.074,0.165
	l-0.406,0.11l-0.092,0.277l-1.051,0.092l-0.258-0.092l-0.24,0.092v-0.092l-0.571,0.185v-0.092h-0.074v0.258h-0.738v0.111h-0.664
	l-0.166,0.277l-0.737-0.092v0.092h-0.258v0.091h-0.479v0.092h-1.881l-0.092-0.092l-0.166,0.259l-0.313-0.167l-1.807-0.092v0.092
	h-0.166l-0.074,0.167l-0.571-0.092v0.092l-0.424-0.092v0.092h-1.051l-0.092-0.167h-0.811v-0.092l-1.069,0.092v-0.092h-0.332v-0.091
	l-0.406,0.091v0.092l-0.645-0.092l-0.258-0.276v0.185l-0.406-0.092v-0.092h-0.83l-0.074-0.204l-0.166,0.111l-1.788-0.111
	l-0.092-0.165h-0.479l-0.664-0.185v-0.185l-0.332,0.092v0.092l-0.645-0.277l-0.498-0.11l-0.074-0.165l-1.162-0.092v-0.092h-0.313
	v-0.092l-0.258,0.092v-0.185l-0.332-0.11V297.3l-0.074,0.092l-0.904-0.092l-0.074-0.185v-0.074l-0.572-0.092v-0.183l-0.829-0.204
	h-0.645l-0.166-0.258h-0.166v-0.092h-0.572l-0.24-0.387h-0.166l-0.092-0.185h-0.166v-0.073l-0.406-0.092l-0.165-0.295l-0.738-0.092
	v-0.092l-0.572-0.259l-0.313-0.387v-0.185l-0.83-0.165l-0.165-0.295h-0.314v-0.092h-0.165l-0.092-0.185h-0.166l-0.074-0.165h-0.258
	l-0.074-0.185l-0.498-0.11l-0.166-0.277h-0.147l-0.092-0.185l-0.24-0.074l-0.092-0.295h-0.405l-0.406-0.645l-0.498-0.092v-0.092
	l-0.406-0.35v-0.295h-0.166v-0.185l-0.811-0.461l-0.571-0.461l-0.074-0.165l-0.258-0.11v-0.369h-0.092v-0.185h-0.074l-0.24-0.185
	l-0.498-0.46l-0.406-0.369l-0.092-0.185l-0.313-0.185v-0.368h-0.166l-0.092-0.185v-0.092h-0.24l-0.24-0.554v-0.091l-0.406-0.092
	v-0.369l-0.406-0.369l-0.904-0.829l-0.092-0.645l-0.24-0.092l-0.332-0.646h-0.074v-0.185l-0.166-0.185h-0.165l-0.092-0.183
	l-0.313-0.277v-0.203l-0.185-0.092v-0.259h-0.074l-0.074-0.387l-0.258-0.185l-0.074-0.35h-0.166l-0.24-0.645h-0.092l-0.313-0.479
	v-0.167h-0.332l-0.331-0.664l0.074-0.165l-0.406-0.295l-0.074-0.185v-0.442h-0.092l-0.166-0.479h-0.24l-0.166-0.554l-0.166-0.092
	l-0.24-0.645h-0.166l-0.313-0.35l-0.092-0.204v-0.092h-0.24v-0.276h-0.092l-0.166-0.738h-0.313l-0.332-0.46h-0.092V273.5
	l-0.406-0.092l-0.313-0.461h-0.424l-0.572-0.737h-0.24l-0.331-0.645l-0.645-0.092l-0.424-0.369l-0.166-0.277h-0.811l-0.24-0.46
	h-0.165l0.165,0.368h-0.165l-0.074-0.183h-0.35v-0.092l-1.051-0.092v-0.185l-0.572-0.092l-0.092,0.277h-0.313l-0.092-0.369h-0.24
	l0.074,0.461h0.092l0.645,0.183l0.074,0.185l0.738,0.646h0.35v0.295l0.313,0.35l0.424,0.646l0.24,0.183l0.074,0.554l0.331,0.572
	h0.166l0.074,0.811l0.258,0.185v0.092h-0.258l0.258,0.183l-0.166,0.204l0.166,0.165v0.185l0.313,0.277l0.092,1.106l0.166,0.092
	h0.074l0.092,0.479l-0.092,0.258h0.092l0.074,0.387l0.332,0.092v0.737l0.166,0.092v0.167h0.074l0.092,0.387l0.239,0.258l0.645,1.125
	h0.166l0.424,0.442v0.295l0.479,0.829l0.332,0.277v0.092l0.24-0.092v0.092l0.166,0.073l0.737,0.664l0.092,0.461l-0.663-0.092v-0.203
	l-1.069-0.092l-0.147-0.259h-0.166v-0.091h-0.332l-0.166-0.296h-0.166v-0.092h-0.572l-0.239-0.35l-0.498-0.092l-0.092-0.203
	l-0.479-0.185l-0.498-0.737h-0.332l-0.719-0.904l-0.424-0.185l-0.074-0.295h-0.332l-0.258-0.442h-0.074v-0.295l-0.166-0.185h0.092
	v-0.167l-0.83-1.216l-0.313-0.258l-0.092-0.479l-0.406-0.259v-0.185l-0.166-0.11v-0.369l-0.166-0.073v-0.203l-0.406-0.369
	l-0.24-0.737l-0.166-0.092l-0.092-0.646h-0.074l-0.332-0.442h-0.166l-0.166-0.203V273.5l-0.147-0.092v-0.277l-0.166-0.092v-0.183
	l-0.258-0.185v-0.167l-0.166-0.11l0.092-0.185h-0.166l-0.498-0.442l-0.645-0.848l-0.24-0.185v-0.276h-0.092v-0.092h-0.24v-0.277
	l-0.59-0.277l-0.313-0.46h-0.166l-0.166-0.369l-0.498-0.092l-0.074-0.203l-0.406-0.074v-0.092h-0.166l-0.166-0.276h-0.497
	l-0.166-0.092l-0.074-0.204l-0.664-0.165l-0.166-0.277l-1.051-0.092v-0.276h-0.332v0.073l-0.092-0.165l-0.148-0.185l-0.405,0.277
	v0.368l0.553-0.203l0.092,0.479h0.092v0.092h0.24l0.313,0.277v0.092h0.166l0.498,0.645h0.24l0.092,0.277l0.332,0.185l0.074,0.368
	l0.497,0.461l0.074,0.552h0.092v0.092h0.24v0.277l0.24,0.185l0.092,0.479h0.074l0.166,0.073l0.24,0.554h0.092v0.461h0.074
	l0.092,0.46h0.166l0.074,1.014l0.24,0.092v0.461h0.092v1.014h0.074v0.185l0.166,0.092l-0.166,1.014l0.24,0.185v0.645l0.258,0.092
	v0.829h0.074l0.092,0.646l0.166,0.092l0.147,0.847l0.258,0.185v0.442l0.24,0.204l0.092,0.829h0.24l0.166,0.737h0.147v0.277h0.092
	l0.406,0.829l0.258,0.074l0.074,0.479l0.165,0.092l0.166,0.46l0.24,0.092v0.277l0.24,0.165l0.092,0.479l0.24,0.092l0.166,0.369
	h0.332v0.092l0.332,0.277v0.368l0.24,0.277h0.074v0.092l0.424,0.092l0.074,0.185l0.645,0.829h0.498l0.332,0.737h0.166v0.092h0.24
	v0.092l0.406,0.092l0.092,0.185l0.645,0.277v0.092l1.328,0.737l0.074,0.277l0.572,0.092v0.277l-0.074,0.091l-0.904-0.258
	l-0.092-0.203h-0.572l-0.074-0.185l-1.309-0.185l-0.166-0.277h-0.166l-0.498-0.627h-0.406v-0.11l-0.332-0.092v-0.185l-0.571-0.35
	l-0.074-0.203h-0.332v-0.185l-0.977-0.35l-0.092-0.479l-0.332-0.092l-0.147-0.277h0.074l-0.166-0.092v-0.185h-0.24v-0.092h-0.074
	v-0.368l-0.497-0.461h-0.24v-0.092l-0.35-0.185v-0.368h-0.24v-0.092l-0.479-0.83l-0.572-0.552v-0.185l-0.166-0.11l0.074-0.259
	l-0.405-0.368v-0.111h-0.166l-0.166-0.35l-0.166-0.092v-0.369l-0.166-0.11l0.092-0.165l-0.24-0.185l-0.092-0.461l-0.166-0.092
	v-0.183l-0.24-0.204l-0.074-0.185h-0.166v-0.073l-0.166-0.092v-0.479l-0.498-0.442h-0.24l-0.166-0.554h-0.092v-0.387l-0.313-0.092
	l-0.092-0.185l-0.406-0.35h-0.092l0.092-0.295h-0.24v-0.092l-0.498-0.461l0.074-0.183h-0.166v-0.185l-0.24-0.074l-0.166-0.387h-0.24
	v-0.092h-0.092v-0.258l-0.24-0.295l-0.645-0.092l-0.258-0.369h-0.24v-0.073h-0.074l0.074-0.204h-0.074l-0.498-0.534l-0.332,0.074
	l-0.166-0.259h-0.166l-0.074-0.203h-0.24l-0.092-0.185h-0.572l-1.217-0.46V273.5h-0.332v0.185h-0.332V273.5l-0.331-0.092v0.092
	l-0.406,0.277l0.074,0.185v0.11l0.424-0.11v0.11l0.24,0.258l0.664,0.369l0.147,0.369h0.424v0.183h-0.166l0.332,0.204v0.092h0.166
	l0.147,0.35h0.166l0.166,0.387l0.258,0.092l0.074,0.258h0.165l0.074,0.295l0.405,0.536v0.295l0.332,0.442l0.332,0.295l0.074,0.258
	l0.166,0.092v0.296h0.092v0.276l0.166,0.074v0.185h0.074v0.203h0.074v0.277l0.166,0.073v0.387h0.092l0.406,0.442v0.388h0.165
	l0.166,0.534l0.148,0.11l0.184,1.198l0.313,0.073v0.296h0.166v0.645l0.498,0.461v1.106l0.166,0.092h0.074l0.074,0.645h0.166v0.092
	l0.332,0.277l-0.166,0.46h0.332v0.277h0.166l0.165,0.941l0.24,0.165l0.092,0.572l0.313,0.258v0.369l0.59,0.369v0.185l0.24,0.092
	l0.166,0.368h0.166l0.074,0.369l0.645,0.645l1.069,1.217v0.073h0.332v0.277l0.24,0.387h0.092v0.074h0.332l0.24,0.368h0.406
	l0.331,0.646h0.332l0.147,0.295l0.424,0.092v0.092h0.074v0.258l0.498,0.295v0.092l0.663,0.167l0.074,0.183l0.479,0.092l0.092,0.204
	h0.166v0.091l0.24,0.092v0.167l0.645,0.185v0.203h0.664l0.24,0.35h0.184v0.092l0.719,0.11l0.092,0.185h0.332v0.092l0.24,0.092
	l0.166,0.258h0.24l0.332,0.572l-1.235-0.572h-0.811l-0.074-0.165l-0.424-0.092v-0.092h-0.166l-0.074-0.185h-0.498l-0.074-0.203
	l-0.664-0.165l-0.074,0.165h-0.166l-0.092-0.442l-0.148-0.092l-0.092,0.092v-0.092h-0.24v-0.11h-0.406l-0.258-0.351l-0.572,0.074
	l-0.074-0.167h-0.166l-0.092-0.183h-0.166v-0.111l-0.406-0.092l-0.479-0.35v-0.185l-0.663-0.203v-0.185l-0.498-0.165l-0.074-0.185
	h-0.166v-0.11h-0.166l-0.645-0.536l-0.166-0.295h-0.331l-0.074-0.185L306.523,294v-0.295l-0.258-0.369l-0.24-0.165l-0.664-0.83
	l-0.406-0.11l-0.074-0.369h-0.092l-0.479-0.46v-0.185h-0.258l-0.166-0.461l-0.24-0.091l-0.074-0.461l-0.24-0.185v-0.277h-0.092
	v-0.092h-0.258v-0.258h-0.074v-0.11l-0.572-0.092v-0.369h-0.092l-0.811-1.014h-0.166l-0.406-0.645l-0.498-0.369h-0.24l0.092-0.185
	h-0.166l-0.498-0.369l-0.074-0.183l-0.497-0.185l-0.074-0.204h-0.185v-0.073l-0.313-0.277v0.185h-0.332v-0.185l-0.332-0.092v-0.092
	h-0.166l-0.074-0.203h-0.498l-0.24-0.165l-0.24,0.073v-0.073l-0.663-0.277l-0.074-0.295l-0.424-0.092l-0.406,0.295l-0.166-0.295
	h-1.216v0.295l0.24,0.277l0.663,0.092l0.147,0.276l0.498,0.092l0.092,0.185l0.572,0.185l0.24,0.737h0.737v0.277l0.332,0.554h0.332
	v0.368l0.738,0.646v0.185l0.166,0.092v0.183h0.074v0.277h0.074l0.166,0.277h0.424l0.074,0.185v0.368l0.405,0.369l0.074,0.277
	l0.166,0.092l0.258,0.368l0.24,0.204l0.074,0.737l0.258,0.074l0.166,0.368l0.24,0.092v0.646l0.24,0.203v0.185h0.092l0.074,0.552
	l0.572,0.534v0.646l0.331,0.185l0.092,0.387l0.147,0.073v0.479l0.406,0.35l0.092,0.479h0.166v0.092l0.332,0.167h0.074l0.074,0.664
	l0.59,0.46l1.216,1.18l1.143,1.585h0.258l0.313,0.277l0.184,0.276l0.406,0.074v0.092l0.406,0.295v0.277l0.645,0.165v0.203
	l0.59,0.092l0.074,0.277l0.571,0.092l0.406,0.461v0.183l0.406,0.092v0.092h0.424l0.074,0.277l0.332,0.092v-0.185l-0.166-0.092
	h-0.092v-0.092l0.424,0.185v0.277h0.074l1.143,0.295v0.167l0.498,0.183l0.24,0.387h0.738l0.166,0.259l0.332-0.092v0.092l0.497,0.092
	l0.074,0.185l0.977,0.091l0.166,0.369h1.143v0.092h0.166l0.092,0.185h0.148l0.092,0.203h0.406l0.092,0.167l0.811,0.092v-0.092
	l0.829,0.276l-0.165,0.387l-0.185-0.183l-0.793,0.183v-0.11h-0.166v-0.073l-0.185,0.073l-0.147-0.073l-0.258,0.073h-0.645v-0.073
	h-1.567l-0.074-0.204h-0.24v-0.092l-1.475-0.091l-0.092-0.167h-0.147v-0.092h-0.664l-0.258-0.387l-1.216-0.092l-0.166-0.258
	l-0.074,0.073h-0.664v-0.073l-0.24-0.295l-0.738-0.092l-0.24-0.351l-0.497-0.11l-0.092-0.185l-0.738-0.092l-0.166-0.276
	l-0.811-0.185v-0.185l-0.977-0.185l-0.092-0.277h-0.166l-0.147-0.368l-0.572-0.092l-0.092-0.185v-0.11l-0.572-0.074v-0.185
	l-0.24,0.185v0.369h0.24v0.092l0.332,0.276v0.369h0.074l0.332,0.479h0.24l0.258,0.627h0.074v0.277l0.24,0.092l0.166,0.368h0.24
	l0.331,0.461h0.166l0.904,1.106h0.24v0.277h0.092l0.24,0.479h0.332v0.165l0.571,0.369v0.11h0.332l0.166,0.351l0.313,0.092
	l0.092,0.183h0.166v0.111h0.24l0.074,0.276l0.424,0.167l0.074,0.185h0.24v0.092l0.424,0.092l0.074,0.203h0.165v0.073l0.332,0.092
	l0.074,0.185h0.166l0.24,0.387h0.332l0.074,0.167h0.166l0.424,0.57l0.645,0.092l0.092,0.259l1.051,0.203l0.258,0.35h0.166
	l0.074,0.185l1.069,0.203h0.074v0.277l0.737,0.092l0.092,0.167h0.332v0.11h0.313v0.092h0.166l0.074,0.185h0.406l0.756,0.183v0.167
	l0.811,0.203l0.092,0.185h0.977l0.166,0.092v0.35l-0.092,0.11l-1.051-0.11l-0.572,0.11l-0.166-0.295h-0.258v-0.073l-1.309,0.073
	v-0.073h-0.24v-0.092h-0.074l-0.664,0.092l-0.074-0.185l-0.59,0.092l-0.074-0.185h-0.166v-0.092h-0.977v-0.092h-0.166l-0.092-0.203
	l-0.406,0.203h-0.645l-0.092-0.277l-0.885-0.092l-0.092-0.276l-0.738-0.092l-0.166-0.277l-0.497-0.092l-0.148-0.277h-0.331v-0.11
	l-0.572,0.295v0.185h0.074l0.572,0.737v0.277h0.166v0.277l0.405,0.35v0.092l0.332,0.11v0.536l0.24,0.092l0.092,0.295l0.313,0.183
	v0.167h0.258l0.092,0.387l0.313,0.185v0.165l0.24,0.092l0.092,0.295l0.331,0.092v0.092l0.313,0.185l0.092,0.461l0.24,0.276h0.092
	v0.074l0.24,0.11l0.074,0.277h0.166v0.092h0.166l0.092,0.185h0.166l0.24,0.368l0.166,0.092v0.185l0.571,0.554h0.24l0.074,0.276
	l0.331,0.185v0.185l0.406,0.092l0.904,1.125l0.424,0.073l0.165,0.277h0.314l0.165,0.387h0.332l0.332,0.442l0.572,0.554l0.074,0.183
	l0.24-0.091v0.091l0.332,0.185l0.498,0.738h0.497l0.572,0.552h0.24l0.166,0.295h0.24v0.092h0.166l0.092,0.167h0.24v0.092
	l0.571,0.645l1.051,0.479l0.185,0.277h0.479v0.073l0.332,0.092l0.074,0.185l0.498,0.203v0.185l0.331,0.074v0.092h0.166l0.074,0.183
	l0.738,0.204l0.074,0.185v0.073h0.498l0.166,0.387h0.572l0.166,0.277l0.497,0.092v0.073h0.166l0.24,0.387h0.332l0.074,0.185h0.166
	l0.24,0.369h0.738l0.092,0.185h0.314l0.092,0.185l0.498,0.092v0.073l0.313-0.073v0.073h0.185l0.147,0.295h0.24v0.092h0.83v0.092
	l0.479,0.185l0.092,0.277l1.143,0.183l0.092,0.185l0.406,0.092v0.092h0.166l0.074,0.185l1.069,0.092v0.277l0.332,0.092v-0.092h0.572
	l0.24,0.368h0.903v0.074h0.24l0.166,0.295h0.498l1.623,0.185v0.165l0.663,0.204v0.183l0.332-0.276l0.24,0.368l0.664-0.092
	l1.069,0.185v0.167l0.313,0.11v-0.11h0.498v0.11h0.24v0.092h0.904v0.185l0.572,0.092v-0.092l0.977,0.092v0.092l0.258,0.092v0.073
	l0.24-0.165h1.401l0.074,0.165h0.664v0.11h0.313v0.092h0.258l0.24,0.369h0.332l0.074,0.185l0.258,0.092l-0.332-0.277l0.7,0.203
	l0.258-0.092l0.424,0.092l0.369,0.387l0.424-0.258l0.424,0.313l0.498-0.24l0.35,0.24l0.553-0.313l0.424,0.313l0.664-0.313
	l0.258,0.313l0.424-0.24l0.313,0.24l0.24-0.313l0.35,0.185l0.442-0.314l0.664,0.442l0.258-0.313l0.479,0.185l0.737-0.055
	l0.645-0.092v-0.092l0.572-0.092l0.092-0.185l0.24-0.092v-0.092h0.332l0.074-0.185h0.166v-0.092l1.235-0.11v-0.165l0.977,0.165
	v-0.165l1.714-0.185l0.092-0.185l1.954-0.203l0.092-0.167h0.313v-0.092h0.258v-0.092h0.332l0.074-0.183l0.738-0.092l0.24,0.092
	l0.092-0.204h0.498l0.147-0.258l0.904,0.092v-0.092l0.424-0.092v-0.185l0.479-0.368l0.166,0.183h0.331v-0.183l0.406-0.092v-0.092
	h0.406l0.092-0.185h0.313v-0.092h0.664v-0.092h0.166v-0.11l0.645-0.443v0.185h0.59v-0.185l0.553-0.091l0.092-0.277l0.645-0.185
	l0.092,0.185l0.571-0.461v-0.092h0.498l0.074-0.203l0.406-0.073v-0.092h0.406l0.092-0.185l0.479-0.185l0.092-0.277h0.24l0.258-0.369
	h0.645l0.166-0.368h0.572v-0.092l0.664-0.387v-0.185l0.406-0.092l0.166,0.185l-0.092,0.295l0.092,0.092l-0.166,0.092l-0.074,0.46
	l-0.332,0.536l-0.166,0.11v0.185h-0.092v0.185l-0.406,0.165v0.092l-0.479,0.479l-0.166,0.829l-0.24,0.277h-0.092v0.092l-0.24,0.092
	l-0.092,0.277h-0.332v0.092l-0.24,0.46l-0.572,0.442h-0.092v0.387l-0.074,0.092h-0.166l0.092,0.185v0.074l0.313-0.259l0.498,0.092
	v-0.092h0.24l0.995-1.198h0.166l0.074-0.183h0.166v-0.092l0.24-0.277h0.406v-0.092l0.258-0.277h0.074v-0.092l0.258-0.277h0.405
	l0.24-0.183l0.092-0.277l0.24-0.092v-0.185l0.24-0.092v-0.092h0.498v-0.11l0.313-0.258v-0.369h0.092l0.258-0.369h0.313l0.166-0.277
	h0.313l0.092-0.368h0.092v-0.092h0.24l0.074-0.387h0.258v-0.185h0.074l0.258-0.35h0.24l0.313-0.479h0.092l0.092-0.369h0.24
	l0.903-1.106h0.147l0.166-0.258l0.166-0.111v-0.185h0.074l0.185-0.276l0.24,0.092l0.074-0.259l0.332-0.185v-0.203l0.498-0.185
	v-0.073l0.24-0.185v-0.387h0.166l0.147-0.461h0.258l0.24-0.276v-0.092h0.092l0.092-0.259l0.221-0.295h0.258l0.074-0.35h0.092v-0.295
	l0.498-0.185l0.147-0.35l0.258-0.111l0.074-0.46h0.092l0.406-0.646l0.313-0.185l0.092,0.092l-0.332,0.922h-0.165l-0.074,1.125
	l-0.405,0.35l0.074,0.387l-0.24,0.167v0.185h-0.092l-0.074,0.479l-0.166,0.073v0.664h-0.24l-0.092,0.258h-0.074v0.387h-0.092v0.092
	h-0.24l-0.406,0.83l-0.166,0.073v0.479l-0.332,0.277v0.165l-0.165,0.092v0.295l-0.166,0.185l0.166,0.074v0.276h0.331v-0.183
	l0.24-0.092l0.185-0.369h0.221l0.59-0.369v-0.46l0.479-0.738h0.092v-0.092l0.24-0.091v-0.092h0.258l0.24-0.738l0.479-0.35v-0.11
	h0.258l0.24-0.369h0.074l0.092-0.737l0.166-0.092l0.24-0.461h0.166l0.074-0.185l0.258-0.165v-0.203l0.331-0.277v-0.35l0.553-0.296
	l0.092-0.922l0.572-0.552l0.092-0.369l0.24-0.092l0.332-0.645h0.166l0.147-0.461h0.092l0.074-0.554l0.332-0.276v-0.369l0.497-0.461
	l0.074-0.46l0.332-0.185l0.074-0.461l0.332-0.57h0.166l0.406-1.365h0.24v-0.092h0.092v-0.277h0.258l0.056-0.46h0.092v-0.554
	l0.166-0.092v-0.203h0.074l0.092-0.258h0.166l0.166-0.922l0.166-0.092v-0.204h0.074v-0.35l0.24-0.185v-0.203h0.092v-0.185h0.092
	v-0.258h0.074l0.332-0.479h0.074l-0.074-0.167h-0.092v-0.276h0.332l-0.092,1.843l-0.24,0.074l-0.074,0.479l-0.166,0.091l0.074,0.351
	l-0.147,0.092v0.11h0.24l-0.092,0.442h-0.074v0.185l-0.166,0.11v0.646l-0.24,0.092l-0.258,1.106h0.166v0.258l-0.166,0.11
	l0.092,0.092l-0.24,0.185l0.074,0.092l-0.074,0.737l-0.258,0.167l-0.165,0.572h-0.166v0.258l0.092,0.111l0.498-0.111v-0.092
	l0.074-0.165l-0.332-0.092l0.166-0.387h0.332v-0.092h0.074v-0.258h0.166l0.166,0.091l0.406-0.57v-0.259l0.24-0.277h0.092v-0.203
	l0.166-0.092v-0.258h0.074v-0.277l0.406-0.369v-0.368l0.166-0.11h0.092v-0.259h0.24l0.166-0.922h0.074l0.166-0.479l0.572-0.554
	h0.092v-0.534l0.406-0.645l0.166-0.11l0.074-0.719l0.258-0.092l0.074-0.387h0.074v-0.554l0.166-0.185l-0.166-0.092v-0.073
	l0.258-0.295v-0.185l0.331-0.092v-0.092h0.074v-0.258h0.166l0.074-1.033l0.24-0.092l0.185-1.198l0.24-0.185v-0.46h0.074v-0.185
	l0.166-0.092v-0.185h0.092v-0.552h0.074v-0.185l0.258-0.203l0.074-0.811l0.166-0.092l0.166-1.401h0.147l0.092-0.443h0.074v-0.737
	l0.166-0.11v-0.185h0.092l0.074-1.088h0.166v-0.645l0.166-0.092v-0.572l0.166-0.074l0.074-0.829h0.092l0.24-0.572l-0.166,0.092
	h-0.166v-0.092l0.332-0.165l0.074-1.125h0.166v-0.276h-0.166l0.258-0.904h0.074l-0.166-0.295l0.258-0.646h0.074l-0.166-0.627
	l0.166-0.11v-0.534h0.074v-0.387h0.092l-0.092-1.66h0.092v-0.185l0.166-0.185h-0.166v-0.552l0.166-0.092v-0.829h0.074v-0.369h0.092
	v-0.922l0.166-0.111v-1.179h0.977v-0.092h0.166v-0.092l0.24,0.092l1.162-0.092l0.074-0.203h0.331v-0.074h1.143l0.147-0.276h0.738
	v-0.092h0.738v-0.092h0.35l0.24-0.204v0.204h0.313v-0.204l0.996,0.204v-0.204l0.811-0.165l0.074-0.185l0.663,0.092v-0.092
	l0.977-0.185v0.092l0.424,0.092l-0.092,0.35h-0.166v0.092h-0.074l-0.092,0.387l-0.166,0.092v0.554h-0.074l0.166,0.552l0.498-0.645
	v-0.369l0.24-0.185v-0.183l0.166-0.092v-0.369l0.165-0.092l0.148-0.572l0.829,0.11v-0.11h0.332v-0.073l0.166,0.073l0.885-0.073
	v-0.185l0.663-0.185l-0.24-0.461h-0.331v-0.092l-0.738,0.092v0.167h-0.166l-0.074-0.167h-0.406l-0.59-0.387v-0.35l0.166-0.092
	v-0.185l0.332-0.387l-0.332,0.092l0.074-0.258h0.35l0.24-0.738l1.383-0.092v0.092h0.405l0.166,0.092l0.092-0.185h0.24l0.092-0.295
	l0.572-0.258v-0.092l0.645-0.092l0.074-0.295l0.35-0.092v-0.092H434v-0.258h0.166v-0.479h0.074l0.24-0.259l0.258-0.645h0.074v-0.387
	l0.166-0.092l0.332-1.088h0.166l0.147-1.216l0.185-0.092L435.623,273.242 M318.303,299.622l-0.405-0.11l-0.166-0.442l0.571,0.092
	V299.622z M318.138,291.861l0.165,0.092L318.138,291.861z M319.299,299.696h-0.258l-0.074-0.277h0.24l0.092,0.203V299.696z
	 M409.999,275.251l-0.148,0.092l0.074,0.369l-0.165,0.092l-0.074,0.829l-0.331,0.479l-0.166,0.074v0.185l-0.977,1.032v0.092
	l-0.738,0.092l-0.074,0.258l-0.59,0.092v-0.092l-0.332-0.092l-0.313,0.277v-0.092h-0.498l-0.166-0.258h-0.24l-0.092-0.185h-0.24
	l-0.166-0.295h-0.331v-0.092l-0.885-0.922l-0.092-0.554l-0.24-0.185v-0.165l-0.332-0.295v-0.646l0.166-0.092l0.074-0.442h0.092
	l-0.166-0.847h0.166v-0.277h0.166v-0.442h0.074l0.166-0.387h0.166l0.166-0.554l0.479-0.092v-0.092l0.424-0.277v-0.276h-0.092v-0.092
	l0.406,0.092v-0.185h0.258v-0.185h0.479l0.092,0.185l0.313-0.185h0.166v-0.092l0.922,0.092l0.074,0.185l0.738,0.092l0.479,0.368
	l0.092,0.738l0.24,0.277h0.258v0.091l0.313,0.296l-0.074,0.258l0.24,0.185l0.165,0.645l-0.165,0.369l0.165,0.11h0.074V275.251z"/>
<polyline fill-rule="evenodd" clip-rule="evenodd" fill="#CF000E" points="300.532,269.351 300.532,269.168 300.458,269.168 
	300.127,268.689 299.721,268.689 299.721,268.614 299.389,268.522 298.984,268.154 298.91,267.951 298.652,267.951 298.652,267.877 
	298.412,267.877 298.172,267.508 297.251,267.508 297.103,267.416 297.103,267.139 296.108,267.047 296.108,266.864 
	295.794,266.864 295.702,266.587 295.057,266.384 294.891,266.126 294.725,266.126 294.725,266.033 293.988,266.033 
	293.988,265.923 293.822,265.923 293.822,265.739 293.416,265.573 293.416,265.481 293.084,265.573 292.992,265.389 
	292.845,265.389 292.845,265.296 292.513,265.204 292.199,264.909 292.015,264.652 291.849,264.652 291.444,264.08 291.204,264.08 
	291.204,263.913 290.799,264.08 290.799,263.434 290.559,263.434 290.559,263.342 290.227,262.789 290.061,262.605 289.895,262.605 
	289.821,262.697 289.895,263.176 289.821,263.176 289.821,263.821 289.895,263.821 289.895,264.467 289.969,264.467 
	289.969,264.652 290.135,264.743 290.135,265.296 290.227,265.296 290.467,265.573 290.633,266.679 290.872,266.771 
	290.872,266.956 291.112,267.139 291.204,267.139 291.296,267.785 291.61,267.877 291.61,268.154 291.942,268.43 291.942,268.522 
	292.273,268.522 292.845,269.26 293.49,269.351 293.914,269.905 294.08,270.255 294.799,270.459 295.296,270.459 295.37,270.642 
	296.108,270.827 296.108,271.011 296.698,271.103 296.772,271.38 297.251,271.38 297.343,271.196 297.749,271.196 297.749,271.38 
	298.172,271.472 298.172,271.565 298.578,271.565 298.652,271.767 298.818,271.767 298.818,271.84 299.389,271.767 299.482,271.933 
	299.795,271.933 299.887,272.117 301.103,272.302 301.362,272.854 301.362,272.946 301.601,272.763 301.694,272.946 
	301.933,272.946 301.933,273.039 302.099,273.039 302.173,273.242 302.579,273.242 302.579,273.315 302.984,273.408 
	302.984,273.592 303.334,273.592 303.334,273.777 303.647,274.329 303.813,274.237 303.887,274.237 303.887,273.96 303.979,273.96 
	303.574,273.242 303.408,273.131 303.482,272.946 303.334,272.946 303.242,272.504 303.076,272.394 303.15,272.209 302.984,272.209 
	302.984,271.933 302.91,271.933 302.339,271.196 302.173,271.196 302.173,271.103 302.099,271.103 302.173,270.919 302.007,270.827 
	301.362,270.366 300.532,269.351 "/>
<polyline fill-rule="evenodd" clip-rule="evenodd" fill="#CF000E" points="295.463,276.818 294.393,276.727 294.228,276.45 
	293.416,276.45 293.416,276.376 293.25,276.376 293.25,276.284 292.679,276.284 292.587,276.081 292.274,275.989 292.274,275.897 
	292.015,275.989 291.204,275.897 291.204,275.712 290.872,275.989 290.559,275.712 290.559,275.897 290.375,275.897 
	290.375,275.621 290.135,275.547 289.969,275.252 289.324,275.252 289.324,275.16 289.158,275.16 289.158,275.067 288.826,274.975 
	288.66,274.698 288.66,274.625 288.494,274.625 288.494,274.514 288.181,274.514 288.015,274.238 287.941,274.238 288.015,275.16 
	288.42,275.804 289.398,276.818 290.301,277.667 290.872,278.588 291.204,278.588 291.204,278.755 291.61,278.939 291.776,279.234 
	292.513,279.326 292.587,279.584 293.177,279.676 293.25,279.971 293.822,280.063 293.822,279.971 294.228,279.971 294.393,280.23 
	295.131,280.23 295.131,280.321 295.463,280.413 295.463,280.617 295.794,280.709 295.794,280.8 296.366,280.709 296.366,280.8 
	296.532,280.8 296.606,280.985 296.772,280.985 296.772,281.059 297.103,281.059 297.343,281.446 297.841,281.354 297.841,281.446 
	298.172,281.538 298.246,281.723 298.412,281.723 298.412,281.796 298.725,281.796 298.725,281.888 299.076,282.091 299.076,282.46 
	299.15,282.46 299.15,282.534 299.629,282.534 299.721,282.829 299.961,282.829 299.961,282.921 300.293,283.197 300.293,283.658 
	300.366,283.658 300.459,284.027 300.864,283.843 300.864,283.289 300.366,283.104 300.366,282.921 300.698,282.921 
	300.698,282.275 300.459,282.091 300.459,281.888 300.366,281.888 300.366,281.243 300.127,281.151 300.053,280.8 299.795,280.617 
	299.721,280.063 299.482,279.879 299.389,279.418 299.316,279.418 299.076,279.031 298.338,278.588 298.338,278.201 
	297.915,278.109 297.841,277.925 297.435,277.925 297.177,277.556 296.772,277.464 296.606,277.187 295.463,277.022 
	295.463,276.818 "/>
<polyline fill-rule="evenodd" clip-rule="evenodd" fill="#CF000E" points="300.864,283.012 300.864,282.921 300.698,282.921 
	300.864,283.012 "/>
<polyline fill-rule="evenodd" clip-rule="evenodd" fill="#CF000E" points="293.491,289.39 292.679,289.39 292.587,289.556 
	292.2,289.556 292.108,289.648 292.347,290.201 292.753,290.201 292.845,290.57 293.491,290.957 293.491,291.307 293.822,291.307 
	293.914,291.603 294.559,292.137 294.559,292.505 294.799,292.782 294.891,292.782 294.891,292.967 295.057,293.077 
	295.057,293.261 295.463,293.611 295.463,293.907 295.869,294.073 295.869,294.552 296.034,294.644 296.2,295.086 296.44,295.179 
	296.44,295.474 296.606,295.566 296.698,295.732 297.011,296.027 297.011,296.303 297.103,296.303 297.103,296.562 297.177,296.562 
	297.177,297.041 297.343,297.114 297.343,297.299 297.435,297.299 297.675,297.686 297.841,297.686 298.007,297.87 298.007,298.037 
	298.247,298.147 298.652,298.607 298.652,298.884 299.15,299.161 300.127,300.249 300.459,300.728 300.864,300.728 301.27,301.373 
	302.007,301.465 302.099,301.65 302.099,301.723 302.671,301.723 302.671,301.815 302.984,301.723 302.505,300.986 302.247,300.728 
	301.841,300.082 301.767,300.082 301.694,299.622 301.51,299.511 301.51,299.345 301.362,299.253 301.362,298.976 301.104,298.884 
	301.03,298.239 300.791,298.239 300.625,297.593 300.459,297.501 300.532,297.114 300.366,296.856 300.532,296.764 300.532,296.654 
	300.293,296.562 300.293,296.212 300.127,296.119 300.053,295.64 299.961,295.64 299.961,295.566 299.721,295.566 299.629,294.644 
	299.389,294.442 299.389,294.165 299.076,293.998 298.984,293.52 298.652,292.967 298.486,292.967 298.413,292.598 298.338,292.598 
	298.081,292.23 297.841,292.23 297.915,291.953 297.343,291.492 297.343,291.307 297.177,291.216 297.177,291.124 297.011,291.124 
	296.532,290.478 296.366,290.478 296.366,290.385 296.2,290.385 296.2,290.293 295.96,290.293 295.869,290.128 295.537,290.128 
	295.297,289.741 295.131,289.741 295.131,289.648 294.486,289.648 294.32,289.39 293.748,289.39 293.748,289.279 293.491,289.39 "/>
</svg>
