<?xml version="1.0" encoding="utf-8"?>
<!-- Generator: Adobe Illustrator 27.2.0, SVG Export Plug-In . SVG Version: 6.00 Build 0)  -->
<svg version="1.1" id="레이어_1" xmlns="http://www.w3.org/2000/svg" xmlns:xlink="http://www.w3.org/1999/xlink" x="0px"
	 y="0px" viewBox="0 0 720 262.676" enable-background="new 0 0 720 262.676" xml:space="preserve">
<path fill="#FFFFFF" d="M716.149,237.967c0,11.47-9.39,20.86-20.87,20.86H24.709c-11.47,0-20.86-9.39-20.86-20.86V24.7
	c0-11.47,9.39-20.85,20.86-20.85h670.571c11.48,0,20.87,9.38,20.87,20.85V237.967z"/>
<rect x="55.761" y="38.727" fill="#A1D8E6" width="621.581" height="5.64"/>
<path fill="#A1D8E6" d="M55.765,86.801h510.993c0.82-0.72,1.67-1.43,2.53-2.11H55.765V86.801z M536.099,84.691
	c0.86,0.68,1.7,1.39,2.52,2.11h138.718v-2.11H536.099z"/>
<path fill="#A1D8E6" d="M55.764,173.154v2.11h516.633c-0.98-0.67-1.93-1.38-2.87-2.11H55.764z M535.848,173.154
	c-0.94,0.73-1.89,1.44-2.87,2.11h144.358v-2.11H535.848z"/>
<polygon fill="#A1D8E6" points="358.376,232.334 366.556,224.154 374.746,232.334 "/>
<path fill="#A1D8E6" d="M55.761,215.585v5.64h43.429v9.79h4.36v-9.79h84.029v9.79h4.36v-9.79h84.029v9.79h4.36v-9.79h172.438v9.79
	h4.36v-9.79h84.029v9.79h4.37v-9.79h84.029v9.79h4.36v-9.79h43.429v-5.64H55.761z M231.769,229.675h4.37v-4.36h-4.37V229.675z
	 M143.38,229.675h4.36v-4.36h-4.36V229.675z M320.158,229.675h4.36v-4.36h-4.36V229.675z M585.364,229.675h4.36v-4.36h-4.36V229.675
	z M408.576,229.675h4.36v-4.37h-4.36V229.675z M496.965,229.685h4.36v-4.37h-4.36V229.685z"/>
<path fill="#AAABAB" d="M695.28,0H24.71C11.08,0,0,11.08,0,24.7v213.267c0,13.62,11.08,24.71,24.71,24.71H695.28
	c13.63,0,24.72-11.09,24.72-24.71V24.7C720,11.08,708.91,0,695.28,0 M712.3,237.967c0,9.39-7.63,17.01-17.02,17.01H24.71
	c-9.39,0-17.02-7.62-17.02-17.01v-17.41h15.79v2.54c0,1.68,1.38,3.06,3.06,3.06h9.16c1.68,0,3.05-1.38,3.05-3.06v-9.16
	c0-1.68-1.37-3.05-3.05-3.05h-9.16c-1.68,0-3.06,1.37-3.06,3.05v2.54H7.69v-40.109h15.79v2.54c0,1.68,1.38,3.05,3.06,3.05h9.16
	c1.68,0,3.05-1.37,3.05-3.05v-9.17c0-1.67-1.37-3.05-3.05-3.05h-9.16c-1.68,0-3.06,1.38-3.06,3.05v2.54H7.69v-40.159h15.79v2.54
	c0,1.69,1.38,3.06,3.06,3.06h9.16c1.68,0,3.05-1.37,3.05-3.06v-9.17c0-1.69-1.37-3.06-3.05-3.06h-9.16c-1.68,0-3.06,1.37-3.06,3.06
	v2.54H7.69V87.899h15.79v2.54c0,1.69,1.38,3.06,3.06,3.06h9.16c1.68,0,3.05-1.37,3.05-3.06v-9.16c0-1.68-1.37-3.05-3.05-3.05h-9.16
	c-1.68,0-3.06,1.37-3.06,3.05v2.54H7.69V43.709h15.79v2.53c0,1.68,1.38,3.06,3.06,3.06h9.16c1.68,0,3.05-1.38,3.05-3.06v-9.15
	c0-1.68-1.37-3.06-3.05-3.06h-9.16c-1.68,0-3.06,1.38-3.06,3.06v2.53H7.69V24.7c0-9.37,7.63-17.01,17.02-17.01H695.28
	c9.39,0,17.02,7.64,17.02,17.01V237.967z"/>
<path fill="#4FBAA1" d="M197.579,113.226c2.66,1.65,5.13,3.49,7.41,5.54c0.77,0.7,0.86,1.96,0.2,2.77l-3.95,4.94
	c-0.65,0.81-1.77,0.87-2.52,0.14c-2.49-2.39-5.09-4.52-7.81-6.38c-0.86-0.59-1-1.66-0.28-2.42l4.02-4.2
	C195.379,112.866,196.689,112.666,197.579,113.226 M202.569,133.666l5.16,1.67c0.99,0.32,1.61,1.41,1.36,2.43
	c-2.53,10.51-5.4,19.53-8.59,27.03c-0.41,0.96-1.49,1.33-2.41,0.83l-5.44-2.99c-0.92-0.51-1.32-1.69-0.9-2.65
	c3.62-8.42,6.47-16.78,8.57-25.07C200.569,133.906,201.579,133.336,202.569,133.666 M204.849,94.517c2.43,1.49,4.68,3.16,6.76,5.01
	c0.79,0.69,0.86,1.95,0.21,2.76l-3.96,5c-0.65,0.83-1.74,0.87-2.47,0.11c-2.24-2.28-4.56-4.32-6.95-6.11
	c-0.84-0.63-0.95-1.72-0.23-2.48l3.7-3.89C202.629,94.157,203.959,93.967,204.849,94.517 M255.898,95.247l2.42,4.89
	c0.47,0.94,0.01,1.82-1.03,1.98c-4.95,0.73-10.12,1.4-15.48,2.01v10.57h18.92c1.05,0,1.9,0.85,1.9,1.89v5.05
	c0,1.05-0.85,1.9-1.9,1.9h-18.92v9.54h15.69c1.05,0,1.9,0.85,1.9,1.9v29.04c0,1.04-0.85,1.89-1.9,1.89h-5.36
	c-1.05,0-1.89-0.56-1.89-1.26v-1.27h-26.12v1.42c0,0.78-0.85,1.42-1.9,1.42h-5.37c-1.04,0-1.88-0.85-1.88-1.89v-29.35
	c0-1.05,0.84-1.9,1.88-1.9h15.16v-9.54h-19.26c-1.04,0-1.88-0.85-1.88-1.9v-5.05c0-1.04,0.84-1.89,1.88-1.89h19.26v-9.47
	c-4.2,0.41-8.55,0.79-13.03,1.12c-1.04,0.08-2.16-0.66-2.49-1.65l-1.87-5.57c-0.33-0.98,0.24-1.84,1.29-1.9
	c13.33-0.8,25.75-1.94,37.26-3.43C254.218,93.667,255.428,94.307,255.898,95.247 M224.129,154.456h26.11v-12.54h-26.11V154.456z"/>
<path fill="#4FBAA1" d="M321.388,94.597l2.04,3.9c0.47,0.93,0.03,1.79-1.01,1.91c-4.53,0.55-9.25,1.08-14.14,1.58v3.63h14.13
	c1.04,0,1.89,0.85,1.89,1.9v4.02c0,1.05-0.85,1.9-1.89,1.9h-14.13v1.97h13.18c1.04,0,1.89,0.84,1.89,1.89v23.67
	c0,1.05-0.85,1.9-1.89,1.9h-13.18v2.52h11.68c1.04,0,1.89,0.85,1.89,1.89v3.79c0,1.05-0.85,1.9-1.89,1.9h-11.68v2.6
	c4.09-0.27,7.88-0.5,11.37-0.69c1.04-0.06,2,0.54,2.12,1.32l0.24,1.42c3.42-4.15,6.05-9.25,7.89-15.31
	c1.94-6.15,3.1-14.72,3.47-25.72h-5.52c-1.05,0-1.9-0.85-1.9-1.89v-4.66c0-1.04,0.85-1.89,1.9-1.89h5.6v-12.71
	c0-1.04,0.85-1.89,1.9-1.89h5.68c1.04,0,1.89,0.85,1.89,1.89v12.71h10.81c1.05,0,1.89,0.85,1.88,1.89
	c-0.14,21.11-1.06,37.089-2.75,47.979c-0.47,2.52-1.63,4.55-3.47,6.07c-1.95,1.42-4.18,2.13-6.7,2.13c-1.37,0-2.89-0.18-4.56-0.56
	c-1.03-0.23-1.92-1.3-2.02-2.35l-0.5-4.99c-0.1-1.04,0.61-1.6,1.61-1.3c2.11,0.61,3.94,0.92,5.47,0.92c0.67,0,1.23-0.42,1.65-1.26
	c0.47-0.63,0.84-2.53,1.1-5.69c0.79-10.62,1.21-22.09,1.27-34.4h-3.87c-0.31,12.73-1.81,23.15-4.5,31.25
	c-2.19,6.44-5.38,11.9-9.56,16.39c-0.71,0.77-1.92,0.75-2.65,0.01l-3.65-3.7c0,0,0.05,0.35,0.12,0.79c0.06,0.44-0.72,0.88-1.76,0.98
	c-10.3,1.08-21.64,2-34.02,2.77c-1.05,0.06-2.05-0.72-2.25-1.74l-0.95-5.04c-0.19-1.03,0.5-1.88,1.54-1.91
	c5.18-0.15,10.02-0.32,14.52-0.5v-2.92h-13.49c-1.05,0-1.9-0.85-1.9-1.9v-3.79c0-1.04,0.85-1.89,1.9-1.89h13.49v-2.52h-13.49
	c-1.05,0-1.9-0.85-1.9-1.9v-23.67c0-1.05,0.85-1.89,1.9-1.89h13.49v-1.97h-14.83c-1.05,0-1.9-0.85-1.9-1.9v-4.02
	c0-1.05,0.85-1.9,1.9-1.9h14.83v-2.91c-3.82,0.31-7.71,0.59-11.68,0.83c-1.04,0.06-2.19-0.68-2.56-1.66l-1.5-3.95
	c-0.37-0.98,0.18-1.82,1.22-1.88c12-0.69,23.16-1.66,33.47-2.9C319.668,93.027,320.898,93.667,321.388,94.597 M292.738,125.506h6.94
	v-2.29h-6.94V125.506z M292.738,134.896h6.94v-2.14h-6.94V134.896z M308.278,125.506h6.63v-2.29h-6.63V125.506z M308.278,134.896
	h6.63v-2.14h-6.63V134.896z"/>
<path fill="#4FBAA1" d="M440.956,99.237v65.089c0,1.04-0.85,1.89-1.9,1.89h-5.99c-1.05,0-1.9-0.85-1.9-1.89v-1.89h-36.529v1.89
	c0,1.04-0.85,1.89-1.89,1.89h-6c-1.04,0-1.89-0.85-1.89-1.89V99.237c0-1.05,0.85-1.9,1.89-1.9h52.309
	C440.106,97.337,440.956,98.187,440.956,99.237 M394.637,124.476h36.529v-17.67h-36.529V124.476z M394.637,152.966h36.529v-19.01
	h-36.529V152.966z"/>
<path fill="#4FBAA1" d="M472.088,105.622h26.51c1.04,0,1.89,0.84,1.89,1.89v5.29c0,1.05-0.85,1.89-1.89,1.89h-26.51
	c-1.05,0-1.9-0.84-1.9-1.89v-5.29C470.188,106.462,471.038,105.622,472.088,105.622 M497.648,140.651v12.54
	c1.4-3.92,2.38-7.8,2.92-11.61c0.15-1.03,1.07-1.69,2.08-1.47l4.59,1.01c1.03,0.22,1.78,1.24,1.65,2.28
	c-0.64,5.41-1.84,10.51-3.61,15.3c-0.36,0.97-1.44,1.38-2.37,0.91l-5.26-2.62v7.65c0,1.05-0.84,1.9-1.89,1.9h-4.66
	c-1.04,0-1.89-0.66-1.89-1.46v-1.47h-8.92v1.47c0,0.8-0.84,1.46-1.89,1.46h-4.66c-1.04,0-1.89-0.85-1.89-1.9v-23.99
	c0-1.04,0.85-1.89,1.89-1.89h22.02C496.808,138.761,497.648,139.611,497.648,140.651 M474.378,127.321h20.44
	c1.04,0,1.89,0.84,1.89,1.89v5.13c0,1.05-0.85,1.9-1.89,1.9h-20.44c-1.05,0-1.9-0.85-1.9-1.9v-5.13
	C472.478,128.161,473.328,127.321,474.378,127.321 M474.688,116.591h20.44c1.04,0,1.89,0.84,1.89,1.89v5.13
	c0,1.05-0.85,1.89-1.89,1.89h-20.44c-1.04,0-1.89-0.84-1.89-1.89v-5.13C472.798,117.431,473.648,116.591,474.688,116.591
	 M475.558,94.892h19.26c1.04,0,1.89,0.84,1.89,1.89v4.98c0,1.04-0.85,1.89-1.89,1.89h-19.26c-1.05,0-1.9-0.85-1.9-1.89v-4.98
	C473.658,95.732,474.508,94.892,475.558,94.892 M480.288,155.101h8.92v-7.58h-8.92V155.101z M504.038,102.462h13.81v-7.02
	c0-1.04,0.85-1.89,1.89-1.89h5.37c1.05,0,1.89,0.85,1.89,1.89v7.02h13.65c1.05,0,1.9,0.85,1.9,1.89v5.37c0,1.05-0.85,1.9-1.9,1.9
	h-13.65v10.41h12.63c1.05,0,1.89,0.85,1.89,1.89v4.98c0,1.04-0.84,1.89-1.89,1.89h-34.399c-1.05,0-1.9-0.85-1.9-1.89v-4.98
	c0-1.04,0.85-1.89,1.9-1.89h12.62v-10.41h-13.81c-1.04,0-1.89-0.85-1.89-1.9v-5.37C502.148,103.312,502.998,102.462,504.038,102.462
	 M511.848,137.731h5.13c1.05,0,1.9,0.85,1.9,1.9v14.2c0,1.95,0.5,2.95,1.5,3c0.47,0.1,1.13,0.16,1.97,0.16
	c2.31,0,3.67-0.11,4.1-0.32c0.42-0.42,0.69-1.1,0.79-2.05c0.12-0.36,0.23-1.44,0.31-3.24c0.06-1.04,0.83-1.47,1.73-0.95l6.01,3.4
	c-0.7-3.29-1.53-6.36-2.51-9.19c-0.34-0.99,0.16-2.04,1.15-2.36l4.53-1.45c0.99-0.31,2.1,0.23,2.43,1.22
	c1.31,3.84,2.36,8.01,3.16,12.51c0.18,1.04-0.5,2.12-1.49,2.43l-4.51,1.41c-1,0.3-1.91-0.1-2.04-0.91c-0.09-0.5-0.17-0.98-0.24-1.45
	c-0.48,4.05-1.25,6.63-2.3,7.73c-0.74,0.63-1.84,1.05-3.31,1.26c-0.9,0.37-3.5,0.56-7.81,0.56c-2.06,0-3.92-0.14-5.61-0.4
	c-4.52-0.21-6.78-3.02-6.78-8.44v-17.12C509.958,138.581,510.808,137.731,511.848,137.731 M527.578,132.941
	c1.43,2.01,2.68,4.09,3.75,6.24c0.46,0.94,0.08,2.14-0.82,2.69l-4.72,2.86c-0.9,0.53-1.92,0.18-2.34-0.78
	c-0.94-2.15-2.09-4.21-3.46-6.19c-0.6-0.86-0.4-1.98,0.49-2.54l4.37-2.79C525.728,131.881,526.968,132.091,527.578,132.941"/>
<g>
</g>
<g>
</g>
<g>
</g>
<g>
</g>
<g>
</g>
<g>
</g>
<g>
</g>
<g>
</g>
<g>
</g>
<g>
</g>
<g>
</g>
<g>
</g>
<g>
</g>
<g>
</g>
<g>
</g>
</svg>
