<?xml version="1.0" encoding="utf-8"?>
<!-- Generator: Adobe Illustrator 27.2.0, SVG Export Plug-In . SVG Version: 6.00 Build 0)  -->
<svg version="1.1" id="레이어_1" xmlns="http://www.w3.org/2000/svg" xmlns:xlink="http://www.w3.org/1999/xlink" x="0px"
	 y="0px" viewBox="0 0 720 262.687" enable-background="new 0 0 720 262.687" xml:space="preserve">
<path fill="#FFFFFF" d="M716.148,237.959c0,11.499-9.389,20.868-20.858,20.868H24.706c-11.469,0-20.868-9.368-20.868-20.868V24.708
	c0-11.469,9.399-20.858,20.868-20.858H695.29c11.469,0,20.858,9.389,20.858,20.858V237.959z"/>
<polygon fill="#A0D7E5" points="358.382,232.335 366.574,224.163 374.746,232.335 "/>
<rect x="55.755" y="38.739" fill="#A0D7E5" width="621.592" height="5.639"/>
<rect x="55.755" y="84.697" fill="#A0D7E5" width="621.592" height="2.111"/>
<rect x="55.755" y="173.154" fill="#A0D7E5" width="621.592" height="2.121"/>
<polygon fill="#A0D7E5" points="55.754,221.233 99.198,221.233 99.198,231.003 103.551,231.003 103.551,221.233 187.575,221.233 
	187.575,231.003 191.948,231.003 191.948,221.233 275.962,221.233 275.962,231.003 280.324,231.003 280.324,221.233 
	452.765,221.233 452.765,231.024 457.138,231.024 457.138,221.233 541.162,221.233 541.162,231.024 545.524,231.024 
	545.524,221.233 629.559,221.233 629.559,231.024 633.931,231.024 633.931,221.233 677.346,221.233 677.346,215.594 55.754,215.594 
	"/>
<rect x="143.388" y="225.313" fill="#A0D7E5" width="4.363" height="4.352"/>
<rect x="231.775" y="225.313" fill="#A0D7E5" width="4.373" height="4.352"/>
<rect x="320.161" y="225.313" fill="#A0D7E5" width="4.373" height="4.373"/>
<rect x="408.588" y="225.313" fill="#A0D7E5" width="4.352" height="4.373"/>
<rect x="496.965" y="225.313" fill="#A0D7E5" width="4.363" height="4.373"/>
<rect x="585.351" y="225.313" fill="#A0D7E5" width="4.363" height="4.373"/>
<path fill="#A9AAAA" d="M695.292,0H24.708C11.077,0,0,11.087,0,24.708v213.252c0,13.641,11.077,24.728,24.708,24.728h670.585
	c13.62,0,24.708-11.087,24.708-24.728V24.708C720,11.087,708.913,0,695.292,0 M712.31,237.959c0,9.399-7.64,17.028-17.018,17.028
	H24.708c-9.378,0-17.018-7.629-17.018-17.028v-17.39h15.792v2.523c0,1.689,1.377,3.066,3.056,3.066h9.157
	c1.679,0,3.056-1.377,3.056-3.066v-9.147c0-1.699-1.377-3.056-3.056-3.056h-9.157c-1.679,0-3.056,1.357-3.056,3.056v2.533H7.69
	v-40.107h15.792v2.553c0,1.679,1.377,3.036,3.056,3.036h9.157c1.679,0,3.056-1.357,3.056-3.036v-9.177
	c0-1.669-1.377-3.056-3.056-3.056h-9.157c-1.679,0-3.056,1.387-3.056,3.056v2.543H7.69v-40.158h15.792v2.543
	c0,1.679,1.377,3.036,3.056,3.036h9.157c1.679,0,3.056-1.357,3.056-3.036v-9.177c0-1.689-1.377-3.056-3.056-3.056h-9.157
	c-1.679,0-3.056,1.367-3.056,3.056v2.523H7.69V87.904h15.792v2.533c0,1.679,1.377,3.066,3.056,3.066h9.157
	c1.679,0,3.056-1.387,3.056-3.066V81.29c0-1.689-1.377-3.066-3.056-3.066h-9.157c-1.679,0-3.056,1.377-3.056,3.066v2.513H7.69
	V43.716h15.792v2.533c0,1.679,1.377,3.046,3.056,3.046h9.157c1.679,0,3.056-1.367,3.056-3.046v-9.157
	c0-1.679-1.377-3.056-3.056-3.056h-9.157c-1.679,0-3.056,1.377-3.056,3.056v2.533H7.69V24.708c0-9.378,7.639-17.018,17.018-17.018
	h670.585c9.378,0,17.018,7.639,17.018,17.018V237.959z"/>
<path fill="#4FB99F" d="M226.598,111.014c-0.885-0.704-1.97-1.076-3.247-1.076h-4.222V95.796c0-1.85-0.895-2.804-1.669-3.307
	c-2-1.267-4.765-1.287-6.514,0.201c-0.925,0.784-1.397,1.86-1.397,3.207v32.206c0,1.317,0.462,2.412,1.367,3.257
	c0.895,0.834,2,1.256,3.267,1.256c1.206,0,2.322-0.352,3.297-0.995c0.764-0.503,1.649-1.518,1.649-3.428v-9.841h4.473
	c1.568,0,2.744-0.493,3.478-1.447c0.684-0.885,1.005-1.9,0.975-3.006C228.025,112.743,227.533,111.768,226.598,111.014"/>
<path fill="#4FB99F" d="M217.282,158.703c-0.764-0.523-1.729-0.784-2.855-0.784h-45.505c-1.88,0-2.292-0.191-2.332-0.231
	c-0.05-0.01-0.141-0.211-0.141-0.643v-0.915c0-0.985,0.221-1.206,0.221-1.206c0.04-0.03,0.422-0.251,2.252-0.251h41.273
	c7.378,0,8.936-3.719,8.936-6.845v-5.056c0-3.448-1.508-7.579-8.685-7.579h-48.661c-1.649,0-2.905,0.412-3.739,1.257
	c-0.844,0.834-1.277,1.819-1.277,2.935c0,1.146,0.513,2.151,1.528,2.925c0.935,0.744,2.091,1.126,3.398,1.126h44.972
	c1.98,0,2.483,0.261,2.573,0.332c0.191,0.1,0.302,0.523,0.302,1.116v0.422c0,0.744-0.915,1.116-2.704,1.116h-41.866
	c-2.935,0-4.996,0.573-6.262,1.749c-1.317,1.196-1.94,3.176-1.94,6.031v5.277c0,2.151,0.633,3.82,1.89,4.986
	c1.246,1.156,3.317,1.709,6.313,1.709h49.707c1.568,0,2.734-0.482,3.468-1.387c0.694-0.864,1.035-1.739,0.985-2.563
	c-0.03-0.744-0.141-1.337-0.352-1.86C218.538,159.778,218.046,159.226,217.282,158.703"/>
<path fill="#4FB99F" d="M166.224,130.595h24.084c4.131,0,6.865-0.673,8.373-2.091c1.488-1.397,2.252-3.518,2.252-6.262v-23.24
	c0-1.659-0.553-2.875-1.638-3.639c-2.01-1.397-4.825-1.417-6.574,0.211c-0.915,0.844-1.377,2.01-1.377,3.508v5.217h-24.969v-5.398
	c0-1.618-0.553-2.855-1.628-3.649c-1.98-1.457-4.363-1.457-6.343,0.02c-1.076,0.774-1.628,2.02-1.628,3.729v22.557
	c0,3.317,0.704,5.599,2.171,6.996C160.384,129.921,162.776,130.595,166.224,130.595 M166.375,119.879v-7.077h24.969v6.996
	c0,0.915-0.191,1.508-0.583,1.789c-0.281,0.181-1.025,0.513-2.955,0.513H169.42c-2.091,0-2.583-0.332-2.664-0.402
	C166.686,121.648,166.375,121.307,166.375,119.879"/>
<path fill="#4FB99F" d="M304.579,125.602h-6.152V96.21c0-1.829-0.834-3.217-2.412-4.051c-1.528-0.794-3.136-0.834-4.684-0.111
	c-1.638,0.774-2.503,2.191-2.503,4.091v67.881c0,1.317,0.482,2.402,1.387,3.257c0.885,0.824,1.98,1.236,3.247,1.236
	c1.206,0,2.322-0.332,3.307-0.995c0.754-0.503,1.659-1.488,1.659-3.418v-29.985h6.403c1.568,0,2.744-0.472,3.508-1.407
	c0.704-0.905,1.066-1.87,1.066-2.895v-1.558l-1.186-1.297C307.383,126.064,306.177,125.602,304.579,125.602"/>
<path fill="#4FB99F" d="M281.078,156.955c-5.026-4.262-9.389-10.213-12.947-17.701c-3.558-7.469-5.358-15.631-5.358-24.235v-12.123
	h13.6c1.588,0,2.764-0.482,3.498-1.427c0.664-0.885,1.015-1.85,1.015-2.865c0-1.015-0.372-1.96-1.096-2.825
	c-0.754-0.915-1.9-1.367-3.418-1.367H240.72c-1.327,0-2.443,0.392-3.277,1.166c-0.864,0.774-1.297,1.809-1.297,3.026
	c0,1.226,0.402,2.272,1.226,3.086c0.804,0.814,1.92,1.206,3.287,1.206h12.515v12.294c0,8.403-1.689,16.626-5.006,24.477
	c-3.297,7.8-8.132,13.882-14.425,18.093c-2.322,1.699-2.302,3.508-1.88,4.755c0.593,1.689,1.88,2.674,3.679,2.885
	c0.241,0.03,0.483,0.07,0.714,0.07c0.955,0,1.9-0.342,2.845-1.005c4.966-3.89,9.127-8.182,12.384-12.766
	c2.744-3.87,4.966-8.333,6.624-13.319c1.498,4.533,3.609,8.846,6.303,12.877c3.196,4.845,6.634,8.986,10.213,12.334
	c2.523,2.201,5.107,2.232,7.197,0.271c0.945-0.804,1.397-1.95,1.287-3.347C283.008,159.136,282.314,157.94,281.078,156.955"/>
<path fill="#4FB99F" d="M319.921,130.206c0.693,0.432,1.618,0.613,2.835,0.613c1.146,0,2.563-0.171,4.242-0.553
	c3.227-0.704,6.634-2.111,10.112-4.162c2.975-1.739,5.247-3.729,6.775-5.89c2.965,4.061,9.509,7.408,19.923,10.193
	c1.518,0.332,2.855,0.141,3.97-0.523c1.106-0.684,1.85-1.568,2.191-2.634c0.352-1.106,0.241-2.221-0.362-3.307
	c-0.603-1.116-1.88-1.85-3.78-2.181c-1.578-0.271-3.367-0.684-5.348-1.256c-1.95-0.593-3.93-1.327-5.87-2.232
	c-1.87-0.864-3.428-1.95-4.594-3.247c-0.844-0.915-1.367-1.88-1.558-2.885h15.048c1.317,0,2.432-0.372,3.327-1.086
	c0.925-0.744,1.427-1.799,1.427-2.995c0-1.216-0.503-2.262-1.427-3.016c-0.895-0.704-2.01-1.065-3.327-1.065h-39.183
	c-1.598,0-2.815,0.422-3.599,1.287c-0.764,0.844-1.156,1.759-1.156,2.794c0,0.995,0.392,1.94,1.156,2.784
	c0.784,0.854,1.97,1.297,3.518,1.297h14.475c-0.342,2.322-2.051,4.393-5.197,6.262c-3.699,2.191-7.559,3.609-11.489,4.192
	c-1.528,0.211-2.674,0.794-3.377,1.749c-0.724,0.965-0.955,2.071-0.653,3.176C318.282,128.597,318.916,129.492,319.921,130.206"/>
<path fill="#4FB99F" d="M382.943,92.315c-1.96-1.226-4.403-1.226-6.303,0.01c-0.734,0.503-1.608,1.457-1.608,3.307v38.951
	c-0.04-0.05-0.09-0.1-0.121-0.161c-0.975-1.206-2.473-1.679-4.513-1.317c-5.699,0.925-12.716,1.608-20.858,2
	c-10.997,0.442-20.405,0.493-28.155,0.151c-1.669,0-2.985,0.422-3.94,1.236c-0.975,0.844-1.468,1.91-1.397,3.066
	c0.09,1.829,1.166,4.051,5.75,4.212c5.157,0.05,10.756-0.03,16.726-0.221v3.78c0,4.664-0.653,8.112-1.95,10.233
	c-0.583,0.925-1.156,1.709-1.699,2.362c-0.583,0.684-1.045,1.307-1.397,1.839c-0.442,0.663-0.643,1.397-0.553,2.252
	c0.352,1.819,1.468,3.076,3.287,3.579c1.759,0.513,3.478,0.06,5.116-1.357c4.523-4.624,6.795-11.128,6.795-19.34v-3.599
	c9.64-0.493,17.46-1.136,23.26-1.9c1.669-0.292,2.885-1.076,3.649-2.322v24.848c0,1.317,0.472,2.433,1.407,3.297
	c0.935,0.864,2.061,1.287,3.377,1.287c1.327,0,2.463-0.422,3.387-1.287c0.935-0.864,1.407-1.98,1.407-3.297V95.632
	C384.611,93.783,383.706,92.808,382.943,92.315"/>
<path fill="#4FB99F" d="M335.892,101.316h16.616c1.508,0,2.654-0.462,3.448-1.357c0.754-0.854,1.136-1.829,1.136-2.895
	c0-1.066-0.402-2.041-1.206-2.895c-0.824-0.844-2.061-1.277-3.699-1.277h-16.294c-1.588,0-2.784,0.432-3.589,1.297
	c-0.774,0.854-1.146,1.809-1.146,2.875c0,1.066,0.372,2.041,1.136,2.895C333.098,100.854,334.294,101.316,335.892,101.316"/>
<path fill="#4FB99F" d="M424.564,128.704c0.774,0.462,1.689,0.694,2.734,0.694c0.332,0,0.684-0.02,1.096-0.08
	c7.147-1.347,13.912-4.242,20.144-8.574c5.529-3.84,9.358-7.71,11.449-11.54c2.111,3.307,5.519,6.735,10.183,10.253
	c5.348,4.051,12.203,7.348,20.385,9.76c0.573,0.161,1.136,0.241,1.639,0.241c0.784,0,1.508-0.171,2.171-0.523
	c1.146-0.573,1.89-1.407,2.211-2.453c0.322-1.055,0.181-2.121-0.412-3.217c-0.593-1.066-1.638-1.85-3.136-2.242
	c-6.946-1.648-13.409-4.785-19.249-9.348c-5.72-4.483-8.745-9.087-9.007-13.6c0-1.598-0.563-2.774-1.649-3.518
	c-2.01-1.327-4.785-1.327-6.534,0.151c-0.935,0.784-1.397,1.87-1.397,3.186v0.503c-0.432,4.383-3.528,8.946-9.198,13.58
	c-5.75,4.694-12.273,7.75-19.32,9.107c-2.774,0.332-3.739,1.95-4.061,3.197C422.282,125.568,422.362,127.377,424.564,128.704"/>
<path fill="#4FB99F" d="M494.328,135.928h-68.715c-2.443,0-3.598,1.176-4.131,2.151c-0.764,1.407-0.704,2.865,0.161,4.262
	c0.854,1.377,2.262,2.101,4.151,2.101h29.221v19.149c0,1.598,0.553,2.784,1.639,3.538c0.995,0.694,2.101,1.055,3.277,1.055
	c1.247,0,2.352-0.462,3.267-1.357c0.925-0.895,1.407-2.041,1.407-3.418v-18.968h29.894c1.628,0,2.824-0.493,3.589-1.437
	c0.724-0.874,1.076-1.839,1.076-2.855v-1.568l-1.186-1.317C497.143,136.381,495.926,135.928,494.328,135.928"/>
<path fill="#4FB99F" d="M527.331,101.415h15.852c1.478,0,2.664-0.472,3.508-1.347c0.834-0.864,1.236-1.91,1.166-3.076
	c-0.08-1.116-0.573-2.111-1.478-2.905c-0.894-0.794-2.101-1.196-3.619-1.196h-15.43c-1.397,0-2.543,0.382-3.408,1.156
	c-0.905,0.784-1.357,1.779-1.357,2.965c0,1.156,0.392,2.171,1.156,3.036C524.516,100.932,525.732,101.415,527.331,101.415"/>
<path fill="#4FB99F" d="M575.116,93.041c-0.925-0.824-2.061-1.226-3.408-1.226c-1.357,0-2.483,0.402-3.377,1.236
	c-0.925,0.844-1.367,2.03-1.367,3.508v18.485h-10.605c-1.457,0-2.644,0.382-3.518,1.136c-0.945,0.784-1.397,1.799-1.397,2.996
	c0,1.146,0.382,2.171,1.196,3.026c0.814,0.895,2.071,1.337,3.719,1.337h10.605v8.263c0,1.649,0.543,2.875,1.628,3.629
	c0.975,0.673,2.091,1.035,3.287,1.035c1.226,0,2.312-0.422,3.237-1.236c0.945-0.854,1.427-1.99,1.427-3.428V96.478
	C576.544,95.041,576.061,93.875,575.116,93.041"/>
<path fill="#4FB99F" d="M568.487,140.014c-1.015,0.844-1.528,2.201-1.528,4.051v0.01h-43.605v-0.01c0-1.649-0.553-2.875-1.618-3.659
	c-1.99-1.468-4.363-1.468-6.343,0c-1.086,0.784-1.618,2.041-1.618,3.739v14.254c0,2.845,0.784,4.885,2.312,6.071
	c1.468,1.126,3.528,1.699,6.122,1.699h45.385c3.257,0,5.508-0.724,6.896-2.161c1.367-1.427,2.051-3.488,2.051-6.112v-14.002
	c0-1.789-0.533-3.136-1.608-3.95C572.94,138.426,570.427,138.426,568.487,140.014 M566.959,152.489v2.955
	c0,0.915-0.221,1.498-0.643,1.779c-0.312,0.181-1.186,0.513-3.498,0.513h-36.83c-1.89,0-2.272-0.332-2.292-0.342
	c-0.03-0.04-0.342-0.352-0.342-1.84v-3.066H566.959z"/>
<path fill="#4FB99F" d="M515.61,137.509c4.895-1.588,9.268-4.131,12.947-7.529c3.016-2.764,5.207-5.328,6.524-7.619
	c1.116,1.719,2.724,3.609,4.795,5.639c2.674,2.614,5.559,4.795,8.584,6.494c3.227,1.839,5.699,2.412,7.529,1.749
	c1.92-0.683,2.935-2.101,2.905-4.081c-0.03-1.367-0.593-3.207-3.207-4.242c-3.699-1.116-7.288-3.418-10.695-6.825
	c-3.036-3.026-4.714-6.132-4.976-9.208h13.148c1.699,0,2.996-0.452,3.83-1.327c0.834-0.854,1.256-1.85,1.256-2.925
	c0-1.076-0.422-2.061-1.256-2.925c-0.834-0.875-2.131-1.327-3.83-1.327h-36.659c-1.397,0-2.543,0.382-3.398,1.146
	c-0.905,0.784-1.357,1.779-1.357,2.955c0,1.076,0.352,2.081,1.086,2.985c0.764,0.935,1.97,1.417,3.578,1.417h13.922
	c-0.302,3.126-2.141,6.393-5.488,9.75c-3.729,3.78-7.951,6.393-12.635,7.82c-2.493,1.035-2.945,2.764-2.895,4.061
	c0.09,2.242,1.287,3.287,2.282,3.749c0.764,0.362,1.528,0.533,2.302,0.533C514.484,137.801,515.057,137.71,515.61,137.509"/>
<g>
</g>
<g>
</g>
<g>
</g>
<g>
</g>
<g>
</g>
<g>
</g>
<g>
</g>
<g>
</g>
<g>
</g>
<g>
</g>
<g>
</g>
<g>
</g>
<g>
</g>
<g>
</g>
<g>
</g>
</svg>
