<?xml version="1.0" encoding="utf-8"?>
<!-- Generator: Adobe Illustrator 27.1.1, SVG Export Plug-In . SVG Version: 6.00 Build 0)  -->
<svg version="1.1" id="레이어_1" xmlns="http://www.w3.org/2000/svg" xmlns:xlink="http://www.w3.org/1999/xlink" x="0px"
	 y="0px" viewBox="0 0 720 256.666" enable-background="new 0 0 720 256.666" xml:space="preserve">
<path d="M219.269,134.694h-4.752l-0.327,0.796c-0.478,1.151-0.717,1.903-0.717,2.248c0,0.381,0.124,0.664,0.38,0.858
	c0.257,0.195,0.584,0.283,0.983,0.283v0.425h-3.717v-0.425c0.549-0.08,0.965-0.274,1.239-0.584c0.265-0.301,0.593-0.947,0.973-1.92
	c0.026-0.097,0.177-0.451,0.442-1.071l3.637-8.691h0.363l4.177,9.948l0.575,1.31c0.132,0.292,0.301,0.522,0.522,0.699
	c0.213,0.168,0.54,0.274,0.983,0.31v0.425h-4.92v-0.425c0.602,0,1.008-0.035,1.221-0.133c0.213-0.088,0.319-0.266,0.319-0.531
	c0-0.133-0.142-0.531-0.425-1.204L219.269,134.694z M219.111,134.278l-2.213-5.337l-2.213,5.337H219.111z"/>
<path d="M230.12,133.161l3.823-3.443c0.885-0.796,1.328-1.363,1.328-1.699c0-0.513-0.442-0.779-1.328-0.805v-0.425h4.717v0.425
	c-0.389,0.009-0.779,0.089-1.168,0.248c-0.389,0.168-0.752,0.372-1.079,0.628c-0.328,0.266-0.93,0.805-1.814,1.637l-2.283,2.106
	l4.69,4.735c1.071,1.089,1.788,1.743,2.151,1.973c0.362,0.23,0.832,0.345,1.416,0.345v0.425h-6.505v-0.425h0.257
	c0.699,0,1.133-0.062,1.31-0.177c0.168-0.115,0.257-0.266,0.257-0.434c0-0.257-0.442-0.832-1.336-1.726l-3.54-3.567l-0.893,0.788
	v2.283c0,0.982,0.026,1.628,0.071,1.929c0.053,0.301,0.177,0.531,0.38,0.681c0.195,0.142,0.575,0.221,1.142,0.221h0.247v0.425
	h-5.629v-0.425h0.389c0.54,0,0.912-0.071,1.115-0.204c0.204-0.142,0.337-0.345,0.399-0.637c0.053-0.283,0.089-0.947,0.089-1.991
	v-6.142c0-1.035-0.036-1.69-0.098-1.974c-0.071-0.283-0.194-0.478-0.389-0.575c-0.186-0.097-0.637-0.15-1.336-0.15v-0.425h5.54
	v0.425h-0.23c-0.62,0-1.018,0.053-1.213,0.159c-0.186,0.097-0.319,0.283-0.38,0.566c-0.062,0.274-0.097,0.929-0.097,1.974V133.161z"
	/>
<path d="M253.251,135.414h0.442l-0.266,3.894h-10.363v-0.425h0.257c0.62,0,1.018-0.08,1.203-0.248
	c0.177-0.168,0.292-0.381,0.345-0.628c0.053-0.257,0.071-0.912,0.071-1.956v-6.142c0-0.947-0.026-1.575-0.08-1.876
	c-0.044-0.31-0.168-0.513-0.354-0.637c-0.186-0.115-0.584-0.177-1.186-0.177v-0.425h8.938l0.301,3.115h-0.434
	c-0.204-0.867-0.442-1.496-0.726-1.858c-0.283-0.363-0.628-0.593-1.018-0.69c-0.398-0.097-1.026-0.142-1.902-0.142h-1.735v5.248
	h1.328c0.61,0,1.035-0.053,1.274-0.15c0.248-0.106,0.407-0.265,0.487-0.478c0.071-0.212,0.115-0.628,0.115-1.248h0.434v4.284h-0.434
	c0-0.69-0.062-1.159-0.177-1.398c-0.115-0.23-0.292-0.389-0.514-0.46c-0.23-0.071-0.602-0.106-1.141-0.106h-1.372v2.965
	c0,1.487,0.089,2.354,0.284,2.62c0.194,0.257,0.708,0.389,1.539,0.389h0.93c0.663,0,1.203-0.089,1.628-0.257
	c0.425-0.168,0.832-0.513,1.213-1.035C252.728,137.061,253.029,136.335,253.251,135.414"/>
<path d="M262.75,132.573c1.416,0.106,2.469,0.46,3.159,1.062c0.69,0.602,1.035,1.354,1.035,2.257c0,0.788-0.23,1.469-0.7,2.035
	c-0.469,0.575-1.071,0.947-1.796,1.115c-0.726,0.177-1.709,0.266-2.93,0.266h-4.912v-0.425h0.478c0.54,0,0.912-0.062,1.115-0.204
	c0.204-0.133,0.337-0.345,0.389-0.628c0.053-0.292,0.089-0.956,0.089-2v-6.089c0-1.018-0.035-1.673-0.089-1.974
	c-0.062-0.292-0.186-0.496-0.372-0.602c-0.186-0.115-0.602-0.168-1.23-0.168h-0.239v-0.425l2.054-0.053l2.345-0.08
	c3.425,0,5.133,0.991,5.133,2.956c0,0.814-0.292,1.469-0.885,1.956C264.812,132.068,263.927,132.396,262.75,132.573
	 M260.485,132.396c0.15,0.009,0.283,0.009,0.389,0.009c1.328,0,2.24-0.212,2.726-0.628c0.478-0.416,0.725-1.097,0.725-2.027
	c0-0.655-0.097-1.159-0.283-1.513c-0.195-0.363-0.478-0.637-0.858-0.832c-0.381-0.195-1.035-0.292-1.956-0.292
	c-0.248,0-0.487,0.018-0.743,0.035V132.396z M260.485,132.847v2.788c0,1.186,0.026,1.938,0.062,2.266
	c0.044,0.319,0.159,0.557,0.345,0.726c0.195,0.168,0.567,0.248,1.115,0.248c0.982,0,1.725-0.248,2.213-0.752
	c0.495-0.505,0.743-1.266,0.743-2.274c0-1.035-0.283-1.797-0.832-2.283c-0.557-0.487-1.54-0.735-2.947-0.735
	C260.963,132.829,260.732,132.838,260.485,132.847"/>
<path d="M270.167,127.217v-0.425h5.726v0.425h-0.274c-0.61,0-1.018,0.053-1.203,0.151c-0.195,0.106-0.319,0.292-0.389,0.566
	c-0.062,0.283-0.089,0.938-0.089,1.982v6.133c0,0.982,0.018,1.628,0.062,1.938c0.053,0.301,0.168,0.531,0.372,0.673
	c0.204,0.15,0.584,0.221,1.151,0.221h0.372v0.425h-5.726v-0.425h0.372c0.531,0,0.903-0.062,1.106-0.204
	c0.212-0.133,0.345-0.345,0.398-0.628c0.053-0.283,0.079-0.956,0.079-2v-6.133c0-1-0.026-1.646-0.079-1.929
	c-0.053-0.292-0.177-0.496-0.372-0.602c-0.195-0.115-0.602-0.168-1.239-0.168H270.167z"/>
<path d="M279.57,131.629v-0.487c1.194-0.239,1.787-0.903,1.787-2.009c0-0.381-0.115-0.575-0.337-0.575
	c-0.053,0-0.115,0.009-0.186,0.026c-0.142,0.044-0.265,0.062-0.372,0.062c-0.301,0-0.54-0.097-0.717-0.283
	c-0.177-0.195-0.265-0.407-0.265-0.646c0-0.239,0.089-0.451,0.265-0.646c0.186-0.186,0.416-0.283,0.708-0.283
	c0.398,0,0.735,0.186,1.026,0.558c0.292,0.372,0.443,0.867,0.443,1.487c0,0.717-0.204,1.319-0.611,1.823
	C280.897,131.16,280.322,131.479,279.57,131.629"/>
<path d="M285.263,139.548v-2.487h0.362c0.416,1.443,1.16,2.151,2.239,2.151c0.469,0,0.815-0.142,1.053-0.416
	c0.23-0.283,0.345-0.602,0.345-0.938c0-0.389-0.124-0.717-0.372-0.965c-0.257-0.257-0.743-0.558-1.469-0.92
	c-0.761-0.372-1.31-0.743-1.646-1.106c-0.327-0.354-0.496-0.796-0.496-1.319c0-0.496,0.177-0.974,0.531-1.425
	c0.363-0.451,0.868-0.681,1.514-0.681c0.655,0,1.195,0.274,1.629,0.805c0.097-0.088,0.212-0.319,0.362-0.673h0.337v2.336h-0.337
	c-0.124-0.558-0.362-1.044-0.717-1.443c-0.354-0.407-0.77-0.611-1.248-0.611c-0.372,0-0.672,0.115-0.894,0.345
	c-0.23,0.23-0.345,0.487-0.345,0.796c0,0.327,0.124,0.611,0.381,0.85c0.248,0.248,0.717,0.531,1.407,0.841
	c1.053,0.478,1.69,0.938,1.92,1.389c0.239,0.451,0.354,0.894,0.354,1.31c0,0.655-0.221,1.195-0.655,1.602
	c-0.434,0.416-0.973,0.619-1.637,0.619c-0.69,0-1.31-0.283-1.85-0.858c-0.168,0.186-0.31,0.451-0.407,0.796H285.263z"/>
<path d="M366.235,139.548v-2.487h0.362c0.416,1.443,1.16,2.151,2.239,2.151c0.469,0,0.815-0.142,1.053-0.416
	c0.23-0.283,0.345-0.602,0.345-0.938c0-0.389-0.124-0.717-0.372-0.965c-0.257-0.257-0.743-0.558-1.469-0.92
	c-0.761-0.372-1.31-0.743-1.646-1.106c-0.327-0.354-0.496-0.796-0.496-1.319c0-0.496,0.177-0.974,0.54-1.425
	c0.354-0.451,0.858-0.681,1.504-0.681c0.655,0,1.203,0.274,1.629,0.805c0.097-0.088,0.212-0.319,0.362-0.673h0.337v2.336h-0.337
	c-0.124-0.558-0.362-1.044-0.717-1.443c-0.354-0.407-0.77-0.611-1.248-0.611c-0.372,0-0.673,0.115-0.894,0.345
	c-0.23,0.23-0.345,0.487-0.345,0.796c0,0.327,0.124,0.611,0.381,0.85c0.248,0.248,0.717,0.531,1.407,0.841
	c1.053,0.478,1.69,0.938,1.92,1.389c0.239,0.451,0.354,0.894,0.354,1.31c0,0.655-0.221,1.195-0.655,1.602
	c-0.434,0.416-0.973,0.619-1.637,0.619c-0.69,0-1.31-0.283-1.85-0.858c-0.168,0.186-0.301,0.451-0.407,0.796H366.235z"/>
<path d="M381.985,137.924h0.345c-0.053,1.053-0.575,1.575-1.549,1.575c-0.416,0-0.752-0.106-0.991-0.327
	c-0.248-0.221-0.407-0.549-0.478-0.991c-0.62,0.442-1.178,0.77-1.682,0.991c-0.514,0.221-0.965,0.327-1.363,0.327
	c-0.513,0-0.956-0.142-1.319-0.443c-0.372-0.292-0.557-0.682-0.557-1.168c0-0.637,0.31-1.186,0.929-1.664
	c0.62-0.469,1.469-0.929,2.558-1.381l1.434-0.584v-0.372c0-0.522-0.036-0.903-0.098-1.133c-0.071-0.23-0.247-0.443-0.531-0.628
	c-0.283-0.186-0.655-0.274-1.115-0.274c-0.92,0-1.434,0.31-1.54,0.92c-0.097,0.628-0.363,0.938-0.779,0.938
	c-0.372,0-0.557-0.177-0.557-0.531c0-0.354,0.248-0.726,0.743-1.133c0.496-0.398,1.275-0.602,2.328-0.602
	c0.779,0,1.39,0.124,1.814,0.372c0.434,0.248,0.717,0.522,0.858,0.832c0.133,0.319,0.204,0.796,0.204,1.443v3.053
	c0,0.717,0.036,1.177,0.115,1.381c0.071,0.204,0.23,0.301,0.478,0.301C381.64,138.826,381.887,138.525,381.985,137.924
	 M379.313,134.693l-1.009,0.407c-1.584,0.646-2.381,1.46-2.381,2.434c0,0.389,0.106,0.699,0.31,0.938
	c0.204,0.239,0.46,0.354,0.788,0.354c0.292,0,0.628-0.089,1.009-0.283c0.38-0.195,0.805-0.478,1.283-0.858V134.693z"/>
<path d="M387.458,131.445v5.275c0,0.805,0.017,1.31,0.044,1.522c0.017,0.204,0.106,0.363,0.265,0.478
	c0.151,0.106,0.425,0.168,0.823,0.168h0.186v0.425h-4.062v-0.425h0.31c0.434,0,0.726-0.062,0.85-0.195
	c0.133-0.124,0.212-0.274,0.239-0.451c0.018-0.177,0.026-0.681,0.026-1.522v-2.292c0-0.885-0.044-1.425-0.124-1.628
	c-0.079-0.195-0.194-0.319-0.327-0.363c-0.142-0.053-0.381-0.08-0.726-0.08h-0.247v-0.425c1.088-0.106,1.938-0.274,2.54-0.487
	H387.458z M385.679,127.587c0-0.265,0.097-0.496,0.283-0.681c0.186-0.195,0.416-0.283,0.681-0.283c0.257,0,0.487,0.088,0.673,0.283
	c0.186,0.186,0.274,0.416,0.274,0.681c0,0.274-0.088,0.505-0.274,0.69c-0.186,0.195-0.416,0.292-0.673,0.292
	c-0.265,0-0.495-0.097-0.681-0.292C385.777,128.091,385.679,127.861,385.679,127.587"/>
<path d="M393.93,126.618v10.098c0,0.805,0.009,1.31,0.035,1.522c0.018,0.212,0.106,0.372,0.257,0.478
	c0.159,0.115,0.434,0.168,0.823,0.168h0.221v0.425h-4.044v-0.425h0.266c0.362,0,0.628-0.053,0.788-0.15
	c0.159-0.106,0.247-0.248,0.283-0.434c0.026-0.177,0.044-0.708,0.044-1.584v-7.478c0-0.796-0.071-1.292-0.212-1.496
	c-0.142-0.212-0.487-0.31-1.035-0.31v-0.425c0.372,0,0.814-0.044,1.327-0.133c0.505-0.08,0.85-0.168,1.045-0.257H393.93z"/>
<path d="M398.157,135.517c0-1.159,0.389-2.124,1.159-2.903c0.779-0.779,1.735-1.168,2.868-1.168s2.088,0.389,2.867,1.168
	c0.779,0.788,1.16,1.752,1.16,2.903c0,1.274-0.389,2.274-1.178,3c-0.788,0.734-1.743,1.097-2.849,1.097
	c-1.115,0-2.071-0.372-2.85-1.115C398.546,137.765,398.157,136.765,398.157,135.517 M399.688,135.561
	c0,1.345,0.221,2.283,0.655,2.823c0.434,0.54,1.053,0.805,1.841,0.805c0.805,0,1.416-0.265,1.85-0.805
	c0.425-0.54,0.637-1.478,0.637-2.823c0-1.327-0.213-2.274-0.637-2.841c-0.425-0.566-1.044-0.85-1.85-0.85
	c-0.815,0-1.425,0.283-1.85,0.841C399.9,133.278,399.688,134.225,399.688,135.561"/>
<path d="M411.944,133.375c0.212-0.549,0.548-1.009,1.018-1.372c0.478-0.372,0.929-0.557,1.381-0.557
	c0.407,0,0.725,0.124,0.964,0.381c0.23,0.248,0.345,0.504,0.345,0.77c0,0.177-0.053,0.336-0.177,0.46
	c-0.124,0.133-0.266,0.195-0.442,0.195c-0.301,0-0.54-0.221-0.7-0.681c-0.106-0.31-0.274-0.46-0.495-0.46
	c-0.266,0-0.584,0.177-0.956,0.54c-0.363,0.363-0.602,0.734-0.708,1.124c-0.106,0.389-0.159,0.92-0.159,1.593v1.354
	c0,0.805,0.017,1.31,0.035,1.522c0.018,0.204,0.106,0.363,0.266,0.478c0.15,0.106,0.425,0.168,0.823,0.168h0.257v0.425h-4.018
	v-0.425h0.195c0.372,0,0.628-0.053,0.788-0.159c0.159-0.097,0.248-0.239,0.283-0.425c0.026-0.186,0.044-0.717,0.044-1.584v-2.133
	c0-0.814-0.009-1.327-0.026-1.531c-0.026-0.204-0.115-0.363-0.266-0.478c-0.159-0.115-0.434-0.177-0.823-0.177h-0.195v-0.416
	c0.575-0.062,1.336-0.248,2.275-0.54C411.829,131.932,411.927,132.569,411.944,133.375"/>
<path d="M432.413,131.75v4.956c0,0.823,0.009,1.345,0.035,1.549c0.026,0.212,0.115,0.372,0.274,0.478
	c0.159,0.097,0.442,0.151,0.84,0.151v0.425c-0.929,0.018-1.61,0.115-2.044,0.292h-0.115c-0.195-0.336-0.301-0.92-0.31-1.752
	c-0.38,0.584-0.805,1.027-1.292,1.327c-0.478,0.292-1.018,0.443-1.602,0.443c-0.505,0-0.947-0.115-1.336-0.354
	c-0.389-0.23-0.655-0.505-0.797-0.841c-0.142-0.327-0.221-0.832-0.221-1.504v-2.575c0-0.876-0.009-1.407-0.044-1.602
	c-0.026-0.195-0.124-0.336-0.292-0.425c-0.159-0.097-0.46-0.142-0.894-0.142v-0.425h2.567v5.239c0,0.522,0.026,0.894,0.088,1.133
	c0.062,0.23,0.221,0.434,0.469,0.611c0.257,0.177,0.549,0.266,0.876,0.266c0.478,0,0.929-0.159,1.363-0.469
	c0.425-0.31,0.725-0.637,0.876-0.991c0.159-0.345,0.239-0.841,0.239-1.487v-1.708c0-0.823-0.009-1.328-0.026-1.505
	c-0.018-0.177-0.097-0.336-0.239-0.469c-0.133-0.133-0.425-0.195-0.858-0.195h-0.195v-0.425H432.413z"/>
<path d="M438.54,131.445h0.247c0.142,0.381,0.221,0.903,0.239,1.558c0.442-0.522,0.911-0.912,1.398-1.168
	c0.487-0.257,0.991-0.389,1.522-0.389c0.602,0,1.098,0.124,1.478,0.381c0.389,0.248,0.637,0.557,0.744,0.929
	c0.115,0.363,0.168,0.894,0.168,1.602v2.363c0,0.867,0.018,1.398,0.044,1.593c0.035,0.195,0.133,0.336,0.292,0.425
	c0.168,0.097,0.46,0.15,0.903,0.15v0.425h-3.868v-0.425h0.177c0.442,0,0.725-0.071,0.867-0.195c0.133-0.133,0.213-0.283,0.23-0.451
	c0.018-0.177,0.026-0.681,0.026-1.522v-2.443c0-0.593-0.026-1.018-0.088-1.274c-0.062-0.257-0.213-0.487-0.469-0.681
	c-0.257-0.195-0.584-0.292-0.973-0.292c-0.452,0-0.885,0.133-1.292,0.398s-0.797,0.673-1.159,1.204v3.089
	c0,0.867,0.017,1.398,0.053,1.593c0.035,0.195,0.133,0.336,0.292,0.425c0.168,0.097,0.469,0.15,0.911,0.15v0.425h-3.823v-0.425
	c0.425,0,0.726-0.044,0.894-0.133c0.159-0.088,0.266-0.212,0.31-0.389c0.036-0.177,0.053-0.726,0.053-1.646v-2.257
	c0-0.876-0.018-1.416-0.053-1.602c-0.026-0.186-0.124-0.327-0.292-0.425c-0.159-0.097-0.469-0.142-0.912-0.142v-0.425
	C437.141,131.799,437.832,131.658,438.54,131.445"/>
<path d="M450.913,131.445v5.275c0,0.805,0.017,1.31,0.044,1.522c0.017,0.204,0.106,0.363,0.265,0.478
	c0.151,0.106,0.425,0.168,0.823,0.168h0.186v0.425h-4.062v-0.425h0.31c0.434,0,0.726-0.062,0.85-0.195
	c0.133-0.124,0.212-0.274,0.239-0.451c0.018-0.177,0.026-0.681,0.026-1.522v-2.292c0-0.885-0.044-1.425-0.124-1.628
	c-0.079-0.195-0.194-0.319-0.327-0.363c-0.142-0.053-0.381-0.08-0.726-0.08h-0.247v-0.425c1.088-0.106,1.938-0.274,2.54-0.487
	H450.913z M449.134,127.587c0-0.265,0.097-0.496,0.283-0.681c0.186-0.195,0.416-0.283,0.681-0.283c0.257,0,0.487,0.088,0.673,0.283
	c0.186,0.186,0.274,0.416,0.274,0.681c0,0.274-0.088,0.505-0.274,0.69c-0.186,0.195-0.416,0.292-0.673,0.292
	c-0.265,0-0.495-0.097-0.681-0.292C449.231,128.091,449.134,127.861,449.134,127.587"/>
<path d="M459.085,131.75v0.425h-1.576v4.54c0,0.805,0.009,1.319,0.026,1.522c0.026,0.212,0.115,0.372,0.266,0.478
	c0.15,0.115,0.425,0.168,0.823,0.168h0.398v0.425h-4.089v-0.425c0.425,0,0.717-0.044,0.876-0.124
	c0.169-0.088,0.266-0.221,0.31-0.398c0.035-0.177,0.053-0.726,0.053-1.646v-4.54h-1.407v-0.425h1.407v-0.681
	c0-0.761,0.036-1.354,0.097-1.77c0.062-0.425,0.23-0.858,0.522-1.301c0.283-0.443,0.646-0.788,1.08-1.027
	c0.434-0.239,0.947-0.363,1.54-0.363c0.735,0,1.31,0.15,1.752,0.451c0.434,0.301,0.655,0.611,0.655,0.92
	c0,0.186-0.062,0.327-0.186,0.451c-0.124,0.115-0.265,0.168-0.434,0.168c-0.327,0-0.628-0.248-0.894-0.752
	c-0.301-0.558-0.699-0.832-1.177-0.832c-0.389,0-0.725,0.142-1.018,0.416c-0.292,0.283-0.469,0.628-0.522,1.053
	c-0.053,0.416-0.08,1.319-0.08,2.69v0.575H459.085z"/>
<path d="M462.203,135.517c0-1.159,0.389-2.124,1.159-2.903c0.779-0.779,1.735-1.168,2.868-1.168s2.088,0.389,2.867,1.168
	c0.779,0.788,1.16,1.752,1.16,2.903c0,1.274-0.389,2.274-1.178,3c-0.788,0.734-1.743,1.097-2.849,1.097
	c-1.115,0-2.071-0.372-2.85-1.115C462.592,137.765,462.203,136.765,462.203,135.517 M463.734,135.561
	c0,1.345,0.221,2.283,0.655,2.823c0.434,0.54,1.053,0.805,1.841,0.805c0.805,0,1.416-0.265,1.85-0.805
	c0.425-0.54,0.637-1.478,0.637-2.823c0-1.327-0.213-2.274-0.637-2.841c-0.425-0.566-1.044-0.85-1.85-0.85
	c-0.815,0-1.425,0.283-1.85,0.841C463.947,133.278,463.734,134.225,463.734,135.561"/>
<path d="M475.99,133.375c0.212-0.549,0.548-1.009,1.018-1.372c0.478-0.372,0.938-0.557,1.381-0.557c0.407,0,0.725,0.124,0.964,0.381
	c0.23,0.248,0.345,0.504,0.345,0.77c0,0.177-0.053,0.336-0.177,0.46c-0.124,0.133-0.266,0.195-0.442,0.195
	c-0.301,0-0.54-0.221-0.699-0.681c-0.106-0.31-0.274-0.46-0.495-0.46c-0.266,0-0.584,0.177-0.956,0.54
	c-0.363,0.363-0.602,0.734-0.708,1.124c-0.106,0.389-0.159,0.92-0.159,1.593v1.354c0,0.805,0.017,1.31,0.035,1.522
	c0.018,0.204,0.106,0.363,0.266,0.478c0.15,0.106,0.425,0.168,0.823,0.168h0.257v0.425h-4.018v-0.425h0.195
	c0.372,0,0.628-0.053,0.788-0.159c0.159-0.097,0.257-0.239,0.283-0.425c0.026-0.186,0.044-0.717,0.044-1.584v-2.133
	c0-0.814-0.009-1.327-0.026-1.531c-0.026-0.204-0.115-0.363-0.266-0.478c-0.159-0.115-0.434-0.177-0.823-0.177h-0.195v-0.416
	c0.584-0.062,1.336-0.248,2.275-0.54C475.874,131.932,475.972,132.569,475.99,133.375"/>
<path d="M484.278,131.445h0.088c0.186,0.416,0.274,0.938,0.274,1.584c0.407-0.522,0.858-0.92,1.328-1.186
	c0.478-0.265,0.991-0.398,1.54-0.398c0.62,0,1.124,0.142,1.513,0.425c0.389,0.283,0.655,0.708,0.815,1.274
	c0.469-0.566,0.947-0.991,1.442-1.274c0.487-0.283,0.991-0.425,1.505-0.425c0.584,0,1.079,0.133,1.487,0.407
	c0.398,0.274,0.646,0.575,0.735,0.92c0.089,0.345,0.133,0.903,0.133,1.673v2.274c0,0.876,0.009,1.407,0.044,1.602
	c0.035,0.195,0.132,0.327,0.301,0.425c0.159,0.088,0.46,0.142,0.903,0.142v0.425h-3.77v-0.425c0.399,0,0.682-0.044,0.841-0.142
	c0.168-0.089,0.265-0.221,0.301-0.398c0.035-0.186,0.053-0.726,0.053-1.628v-2.522c0-0.513-0.026-0.894-0.079-1.159
	c-0.062-0.257-0.213-0.478-0.46-0.664c-0.248-0.186-0.567-0.274-0.965-0.274s-0.797,0.133-1.203,0.407
	c-0.399,0.265-0.805,0.681-1.213,1.23v2.983c0,0.805,0.009,1.31,0.035,1.513c0.018,0.204,0.106,0.363,0.257,0.478
	c0.15,0.115,0.416,0.177,0.805,0.177v0.425h-3.655v-0.425c0.416,0,0.699-0.044,0.868-0.133c0.159-0.088,0.265-0.221,0.301-0.398
	c0.044-0.177,0.062-0.726,0.062-1.637v-2.097c0-0.664-0.026-1.151-0.079-1.443c-0.053-0.301-0.212-0.558-0.478-0.77
	c-0.265-0.212-0.593-0.319-0.982-0.319c-0.381,0-0.77,0.124-1.168,0.372s-0.805,0.611-1.213,1.106v3.151
	c0,0.823,0.009,1.345,0.036,1.549c0.026,0.204,0.115,0.354,0.274,0.46c0.159,0.106,0.451,0.159,0.858,0.159v0.425h-3.7v-0.425
	c0.407,0,0.69-0.044,0.85-0.142c0.169-0.089,0.266-0.221,0.301-0.398c0.036-0.177,0.062-0.726,0.062-1.628v-2.266
	c0-0.858-0.018-1.389-0.044-1.584s-0.124-0.336-0.292-0.443c-0.159-0.097-0.451-0.142-0.876-0.142v-0.425
	C482.985,131.773,483.703,131.64,484.278,131.445"/>
<path fill="#F19EC2" d="M320.029,132.361c-0.239-1.009-1.275-1.894-2.31-1.956l-21.585-1.283c-1.045-0.062-1.673,0.708-1.407,1.717
	l3.38,12.948c0.257,1,1.283,1.566,2.275,1.248l19.231-6.133c0.991-0.319,1.611-1.407,1.372-2.425L320.029,132.361z"/>
<path fill="#F19EC2" d="M316.57,144.724c0.301-0.991,1.301-2.221,2.203-2.735l4-2.248c0.903-0.505,1.761-0.08,1.902,0.947
	l3.284,24.249c0.142,1.027-0.557,1.611-1.549,1.292l-13.169-4.239c-0.991-0.319-1.549-1.398-1.248-2.389L316.57,144.724z"/>
<path fill="#F19EC2" d="M323.637,128.676c-0.823,0.637-1.195,1.956-0.832,2.929l1.133,3.036c0.362,0.974,1.469,1.531,2.469,1.239
	l2.637-0.77c0.991-0.292,1.655-1.372,1.46-2.398l-1.186-6.301c-0.194-1.027-1.027-1.336-1.85-0.699L323.637,128.676z"/>
<path fill="#F19EC2" d="M333.081,120.532c-0.469,0.929-0.708,2.522-0.532,3.549l0.717,4.009c0.186,1.018,1.079,1.443,1.991,0.938
	l15.142-8.381c0.912-0.504,1.213-1.646,0.673-2.531l-8.107-13.426c-0.54-0.894-1.363-0.867-1.84,0.062L333.081,120.532z"/>
<path fill="#F19EC2" d="M334.998,135.03c-0.744-0.726-0.77-1.947-0.062-2.708l1.708-1.823c0.708-0.761,2.097-1.133,3.089-0.823
	l15.496,4.876c0.991,0.31,1.531,1.372,1.195,2.354l-4.284,12.514c-0.336,0.982-1.221,1.195-1.965,0.469L334.998,135.03z"/>
<path d="M76.022,56.773c0-1.133-1.292-1.292-1.292-1.292H58.402c-0.947,0-1.841-0.407-2.47-1.106
	c-0.628-0.708-0.92-1.655-0.814-2.593c0.398-3.31,0.584-6.576,0.584-9.974v-5.496c0-1.823,1.487-3.31,3.31-3.31H77.35
	c1.814,0,3.283,1.451,3.31,3.266c0.071,5.177,0.08,10.576,0.089,15.904l-0.009,9.142c-0.018,11.293-0.151,21.116-0.381,27.674
	c-0.204,5.372-3.124,6.354-8.797,6.354c-3.885,0-9.169-0.584-16.249-1.805c-0.177-0.035-0.345-0.062-0.504-0.08
	c0.973,0.531,2.487,1.248,4.151,2.035c8.045,3.814,11.009,5.558,12.301,7.31c0.841,1.257,1.098,1.46,1.832,1.46
	c0.602,0,14.779-0.283,14.779-14.01c0-1.248-0.062-2.823-0.142-4.505c-0.053-1.425-0.115-2.797-0.115-3.823
	c-0.044-3.956-0.124-9.045-0.221-14.753c-0.186-10.894-0.416-24.444-0.416-35.489c0-16.178,0.053-18.603,0.947-20.213
	c0.159-0.292,0.362-0.557,0.593-0.779c0.301-0.292,0.611-0.496,1.213-0.885c1.23-0.814,2.248-1.566,2.248-2.478
	c0-2.319-6.646-5.894-9.168-6.434C82.562,0.912,82.332,1,82.235,1.035c-0.443,0.354-1.461,1.575-2.151,2.664
	c-0.61,0.964-1.664,1.54-2.796,1.54H59.083c-0.62,0-1.23-0.168-1.752-0.496c-2.965-1.85-8.584-4.062-10.169-4.496
	c-0.08-0.026-0.398-0.133-0.407-0.142C46.622,0.062,46.498,0.018,46.392,0c0,0,0,0.009,0,0.026c0,0.133,0.009,0.301,0.089,0.549
	c0.018,0.079,0.044,0.159,0.062,0.248c1.637,7.496,2.549,21.913,2.549,40.595c0,32.028-15.568,52.029-47.569,61.003
	c0,0-0.912,0.239-0.752,0.92c0.15,0.673,1.274,0.319,1.274,0.319c29.382-5.894,46.303-20.028,51.667-43.109
	c0.345-1.496,1.682-2.558,3.222-2.558H74.73C74.845,57.879,76.022,57.906,76.022,56.773 M79.624,29.63
	c-0.628,0.628-1.469,0.982-2.363,0.982H58.827c-1.805,0-3.274-1.434-3.31-3.23l-0.327-14.674v-0.637c0-1.664,0.54-2.92,1.593-3.708
	l0.274-0.203c0.575-0.425,1.274-0.664,1.992-0.664h18.01c1.823,0,3.301,1.478,3.31,3.292c0.017,3.903,0.097,9.213,0.186,15.257
	l0.017,1.212C80.589,28.143,80.244,29.001,79.624,29.63 M0.514,72.438c0,2.336,1.965,2.602,2.841,2.602
	c0.593-0.027,2.496-0.434,3.54-1.513c0.522-0.54,0.778-1.177,0.743-1.982c0-1.788-0.026-3.664-0.053-5.629l-0.053-3.549
	c-0.009-0.885,0.337-1.735,0.956-2.363c0.62-0.628,1.469-0.982,2.354-0.982h12.125c1.823,0,3.31,1.478,3.31,3.31v5.106
	c0,2.903,2.451,2.991,2.726,2.991c1,0,2.39-0.407,3.239-1.319c0.69-0.734,0.991-1.699,0.903-2.929
	c-0.399-8.319-0.761-25.745-0.761-36.551c0-1.788,0.035-3.416,0.071-4.894c0.026-1.106,0.053-2.089,0.053-2.92
	c0-1.85,0.044-2.584,0.327-3.301c0.133-0.345,0.327-0.673,0.575-0.956c0.345-0.407,0.814-0.761,1.593-1.212
	c1.23-0.814,2.248-1.566,2.248-2.478c0-1.053-2.071-3.558-7.779-6.168c-0.097-0.044-0.186-0.089-0.265-0.142
	c-0.248-0.142-0.514-0.142-0.708-0.142c-0.248,0-0.487,0.08-0.646,0.204c-0.08,0.062-0.159,0.124-0.248,0.177
	c-0.646,0.416-1.611,1.761-2.186,2.576c-0.62,0.885-1.628,1.407-2.708,1.407H11.895c-0.602,0-1.204-0.168-1.726-0.487
	C6.77,9.213,1.461,6.735,0,6.531C0,6.54,0,6.549,0,6.558c0,0.195,0,0.354,0.044,0.487c0.053,0.159,0.098,0.319,0.133,0.487
	c0.841,4.646,1.23,13.629,1.23,15.293C1.54,26.417,1.54,31.276,1.54,36.427c0,8.027-0.132,23.32-1.018,35.409L0.514,72.438z
	 M9.505,14.894l0.159-0.115c0.557-0.398,1.23-0.62,1.92-0.62H23.01c1.797,0,3.266,1.434,3.31,3.23
	c0.071,2.77,0.079,7.204,0.079,12.992c0,0.876-0.345,1.717-0.965,2.336c-0.62,0.628-1.46,0.973-2.345,0.973H10.824
	c-0.876,0-1.717-0.345-2.336-0.973c-0.629-0.62-0.973-1.46-0.973-2.336C7.523,18.311,7.523,16.461,9.505,14.894 M7.514,39.259
	c0-1.823,1.478-3.31,3.31-3.31H23.09c1.832,0,3.31,1.487,3.31,3.31v14.196c0,1.823-1.478,3.31-3.31,3.31H10.824
	c-1.832,0-3.31-1.487-3.31-3.31V39.259z"/>
<path d="M280.714,97.821c15.461-2.151,35.993-11.239,35.993-27.223c0-9.496-10.806-15.55-18.24-15.55
	c-4.275,0-8.602,1.611-14.028,5.222c-1.371,1.018-4.673,3.018-6.885,4.186c-0.478,0.257-1.008,0.381-1.539,0.381
	c-0.54,0-1.08-0.133-1.576-0.398c-0.965-0.522-1.611-1.496-1.717-2.593c-0.071-0.726-0.106-1.575-0.106-2.531
	c0-5.345,1.514-13.222,3.611-24.125c0.513-2.681,1.071-5.567,1.646-8.655c0.186-1,0.823-1.858,1.717-2.328
	c5.009-2.62,8.788-6.204,8.788-8.337c0-1.257-1.266-1.708-2.345-1.708c-0.301,0-0.602,0.035-0.893,0.097
	c-0.23,0.044-0.46,0.071-0.69,0.071c-0.859,0-1.709-0.336-2.328-0.965c-0.797-0.788-1.133-1.92-0.912-3.009
	c0.168-0.805,0.248-1.469,0.248-2.044c0-2.726-3.434-7.222-7.346-7.222c-3.071,0-4.522,3.222-4.522,3.965
	c0,0.053,0.018,0.124,0,0.124c-0.009,0-0.009,0-0.009,0c0.062,0.026,0.274,0.097,0.69,0.097h0.637c0.221,0,0.389,0.009,0.54,0.018
	c1.23,0.018,2.39,0.726,2.947,1.894c0.389,0.832,0.575,1.965,0.575,3.558c0,0.628-0.044,3.098-0.602,8.514
	c-0.124,1.142-0.832,2.142-1.867,2.637c-2.867,1.372-5.496,2.009-8.257,2.009c-3.062,0-6.08-0.735-9.567-2.354
	c-0.682-0.345-1.266-0.469-1.584-0.469c-0.248,0-0.372,0.062-0.389,0.08c-0.009,0.009-0.035,0.08-0.035,0.15
	c0.097,1.009,2.619,7.673,10.805,7.673c1.699,0,3.522-0.212,5.408-0.628c0.23-0.053,0.469-0.079,0.708-0.079
	c0.823,0,1.628,0.31,2.248,0.876c0.797,0.734,1.177,1.814,1.035,2.885c-1.008,7.31-2.15,13.629-3.15,19.205
	c-1.363,7.54-2.443,13.496-2.443,18.072c0,5.956,2.841,11.063,5.168,11.063c1.611,0,2.743-2.46,3.274-3.921
	c2.496-6.956,12.222-17.488,21.205-17.488c6.354,0,13.16,4.62,13.16,11.496c0,6.991-7.912,19.337-29.488,25.683
	c0,0-1.478,0.292-1.443,0.823C279.227,98.043,280.714,97.821,280.714,97.821"/>
<path d="M469.461,56.123c2.991-1.46,5.345-1.947,7.85-1.947c5.664,0,10.116,3.867,10.116,8.717c0,2.151-0.761,4.354-1.566,6.682
	c-0.779,2.248-1.514,4.372-1.514,6.39c0.124,7.54,5.045,12.01,13.16,12.01c12.372,0,31.816-11.151,38.02-32.135
	c0,0,0.204-1.248,0.832-0.965c0.628,0.274,0.531,0.487,0.336,1.699c-4.027,25.24-23.922,38.02-39.949,38.02
	c-11.009,0-18.116-6.31-18.116-16.063v-1.027c0.133-3.009,1.363-5.832,2.558-8.558c1.062-2.434,2.053-4.726,2.053-6.823
	c0-3.425-2.451-5.726-6.107-5.726c-8.938,0-19.691,10.39-22.001,29.639c-0.602,5.204-2.478,7.912-4.018,7.912
	c-1.867,0-2.734-2.823-2.734-8.885s1.301-9.478,3.425-14.558c5.47-13.24,15.895-28.594,23.506-39.807
	c2.771-4.08,5.16-7.602,6.585-9.983l0.832-1.354c2.16-3.513,3.195-5.354,3.319-7c0.097-1.168-0.434-2.292-1.389-2.965
	c-0.407-0.292-0.903-0.531-1.496-0.743c-0.062-0.018-0.124-0.035-0.186-0.053c-0.372-0.106-0.372-0.257-0.372-0.301
	c0-1.416,2.31-2.611,3.753-2.611c4.195,0,6.425,8.08,6.584,9.806c0,3.089-2.602,6.098-4.859,8.363
	c-8.354,8.434-17.328,20.001-22.523,27.736c-0.832,1.23-3.903,5.655-2.903,6.753C463.345,59.115,466.673,57.486,469.461,56.123"/>
<path d="M598.599,90.095c-0.204-0.77,1.221-1.106,1.221-1.106c10.249-2.717,29.019-10.655,29.019-32.391
	c0-16.789-12.372-25.337-24.63-26.364c-0.097-0.009-0.186-0.009-0.283-0.009c-1.018,0-1.991,0.478-2.62,1.292
	c-0.681,0.894-0.867,2.071-0.495,3.133c0.779,2.177,1.195,5.036,1.195,8.257c0,20.134-15.355,40.595-23.931,40.595
	c-3.018,0-4.832-2.699-7.452-7.151c-0.858-1.46-1.744-2.965-2.779-4.425c-1.345-1.832-2.035-4.611-2.035-8.107
	c0-14.691,13.169-35.931,36.984-35.931c15.851,0,31.896,10.151,31.896,29.559c0,20.904-19.284,31.586-34.48,33.25
	C600.21,90.697,598.812,90.856,598.599,90.095 M594.812,30.995c-0.284,0-0.567,0.036-0.85,0.115
	c-14.762,3.929-23.577,18.523-23.577,30.373c0,6.744,3.664,14.904,8.221,14.904c6.806-0.177,20.417-20.399,20.417-36.657
	c0-3.62-0.522-6.054-1.593-7.443C596.794,31.455,595.82,30.995,594.812,30.995"/>
<path d="M386.169,67.909c2.832,0.451,5.752,0.708,8.337,0.708c9.487,0,19.647-5.478,19.647-13.629c0-5.752-6.284-9.779-15.293-9.779
	c-3.885,0-10.328,2-14.258,3.752c-0.434,0.195-0.894,0.283-1.354,0.283c-0.513,0-1.036-0.115-1.504-0.363
	c-0.894-0.451,1.115-2.434,0.911-3.416c-0.823-3.947-7.115-5-10.319-5h-0.77c-0.62,0-1.664,0.08-1.708,0.557
	c0,0.159,0.292,0.566,1.053,1c0.221,0.124,0.425,0.248,0.62,0.354c1.256,0.752,4.115,2.301,3.753,3.726
	c-0.363,1.416-3.859,2.372-5.319,2.425c-0.301,0.009-0.62,0.018-0.965,0.018c-0.389,0-0.779-0.027-1.319-0.062
	c-0.496-0.035-1.027-0.071-1.629-0.071h-0.257c-3.195,0-5.425,1.655-5.425,4.018c0,1.752,1.044,3.354,3.965,6.151
	c0.743,0.699,1.115,1.717,1.008,2.735c-0.106,1.018-0.681,1.929-1.549,2.469c-2.548,1.584-4.77,2.319-6.974,2.319
	c-0.717,0-1.319-0.106-1.956-0.212l-0.345-0.062c-0.62-0.124-1.213-0.239-1.673-0.239c-0.327,0-0.672,0.115-0.681,0.274
	c0.106,1.159,2.911,4.806,7.221,4.806c2.806,0,5.965-1.283,8.885-3.62c0.611-0.496,1.336-0.726,2.062-0.726
	c0.965,0,1.92,0.416,2.576,1.221c6.664,8.204,10.753,17.143,11.806,25.683c0.337,1.956,1.425,4.23,3.381,4.23
	c1.549,0,3.115-1.283,3.115-4.142c0-3.336-2.354-10.77-9.461-20.399c-3.212-4.345-5.965-9.691-5.965-9.691
	c-0.628-2.018,0.602-3.699,1.558-4.567c6.434-5.876,13.47-11.319,21.391-11.319c7.063,0,9.576,3.708,9.576,6.885
	c0,3.903-2.983,10.47-22.904,10.47c-0.221,0-0.416-0.009-0.628-0.009C383.78,64.546,381.824,66.758,386.169,67.909 M373.992,56.236
	l-1.576,1.213c-0.602,0.451-1.31,0.681-2.018,0.681c-0.85,0-1.699-0.336-2.337-0.974c0,0-1.097-1.106-1.203-1.221
	c-0.867-0.92-1.133-2.257-0.682-3.443c0.452-1.186,1.54-2.009,2.797-2.115c0.575-0.053,1.301-0.089,2.203-0.089l0.867,0.009
	c1.407,0.026,7.372,0.115,7.018,1.478C378.682,53.244,375.107,55.386,373.992,56.236"/>
<path d="M194.938,7.382c-0.204,0-0.469,0.044-0.912,0.354c-0.071,0.053-0.133,0.097-0.204,0.133
	c-0.903,0.549-2.655,2.522-3.222,3.257c-0.619,0.867-1.619,1.38-2.69,1.38h-30.498c-0.655,0-1.292-0.186-1.832-0.549
	c-2.735-1.823-10.354-5.009-12.302-5.319c0.044,0.142,0.062,0.265,0.08,0.425c1.168,5.036,1.682,16.505,1.682,19.966
	c0.124,8.213,0.257,16.7,0.257,25.382c0,14.78-0.337,27.895-1.027,40.082v0.416c0,2.009,1.106,3.115,3.115,3.115
	c1.283,0,2.62-0.469,3.575-1.257c0.947-0.788,1.443-1.779,1.461-2.956c-0.08-1.487-0.106-3.053-0.115-4.629
	c-0.009-0.885,0.336-1.726,0.956-2.354c0.62-0.628,1.469-0.974,2.354-0.974h32.931c0.894,0,1.744,0.354,2.363,0.991
	c0.628,0.628,0.965,1.487,0.947,2.381c-0.036,1.823-0.036,3.62-0.036,5.425c0,1.894,1.275,3.115,3.239,3.115
	c1.522,0,2.85-0.522,3.753-1.46c0.805-0.841,1.221-1.956,1.159-3.177c-0.495-14.16-1.026-37.984-1.026-54.224
	c0-10.903,0.035-14.762,0.575-16.532c0.284-0.92,0.956-1.673,1.85-2.062l0.416-0.168c1.787-0.841,3.442-1.788,3.442-3.027
	C205.186,13.329,198.088,7.683,194.938,7.382 M158.015,47.579h30.877c0.876,0,1.726,0.354,2.345,0.974
	c0.62,0.62,0.965,1.46,0.965,2.345c-0.018,8.514-0.106,17.399-0.221,27.294c-0.017,1.814-1.496,3.274-3.31,3.274h-33.09
	c-1.823,0-3.292-1.46-3.31-3.283c-0.089-9.709-0.089-27.364-0.089-27.4c0,0-0.009-8.885-0.009-8.903
	c0.009-4.558,0.044-8.938,0.071-12.638l0.009-0.469c0.026-3.062,0.044-5.629,0.044-7.381c0-2.062,0.053-2.69,0.274-3.327
	c0.115-0.328,0.274-0.637,0.487-0.92c0.328-0.425,0.761-0.796,1.629-1.398l0.442-0.292c0.54-0.363,1.177-0.557,1.832-0.557h31.586
	c1.788,0,3.248,1.416,3.31,3.195c0.204,5.894,0.327,14.116,0.345,23.789c0,0.876-0.345,1.717-0.965,2.345
	c-0.62,0.62-1.469,0.965-2.345,0.965h-30.877c-0.629,0-1.213,0.124-1.213,1.274C156.803,47.782,158.015,47.579,158.015,47.579"/>
<path d="M212.928,218.801c4.593-2.947,13.487-11.346,19.178-17.514c0.044-0.044,0.088-0.097,0.132-0.142
	c0.841-0.841,2-1.637,3.124-2.416c1.841-1.266,3.921-2.708,3.921-4.044c0-2.071-8.168-5.673-12.859-5.673
	c-1.752,0-2.416,0.62-3.531,1.646c-1.018,0.947-2.416,2.239-5.266,3.443c-4.363,1.726-9.841,4.248-15.549,6.903
	c-0.442,0.212-0.92,0.31-1.398,0.31c-0.673,0-1.345-0.204-1.912-0.602c-0.965-0.69-1.496-1.841-1.381-3.027
	c0.195-1.974,0.593-3.735,0.973-5.443c0.434-1.912,0.805-3.558,0.805-5.115c0-6.965-9.602-11.576-13.496-11.576
	c-2.991,0-5.549,1.504-5.549,2.735c0,1.133,3.195,1.301,3.655,1.319c6.558,0.46,7.876,8.222,7.876,20.594v3.531
	c0,1.31-0.778,2.504-1.982,3.027c-15.328,6.7-18.178,7.629-23.479,7.629c-0.823,0-1.558-0.133-1.929-0.212
	c-0.142-0.035-0.283-0.071-0.425-0.124c-0.522-0.186-1.177-0.301-1.752-0.301c-0.663,0-1.451,0.159-1.451,0.929
	c0,0.319,0.115,0.752,0.372,1.434c0.752,2.151,7.195,4.248,11.461,4.248c2.867,0,5.098-0.894,10.009-4.027l3.558-2.168
	c0.522-0.319,1.124-0.487,1.717-0.487c0.602,0,1.195,0.168,1.726,0.487c1.062,0.646,1.664,1.832,1.575,3.071
	c-0.115,1.549-0.257,3.266-0.416,5.195c-0.009,0.08-0.018,0.159-0.026,0.239c-0.106,0.69-0.106,1.265-0.106,1.885
	c0,12.868,11.249,14.523,21.055,14.523c21.691,0,29.391-3.549,29.391-6.576c0-2.363-3.983-3.629-7.726-3.629
	c-0.735,0-1.31,0-1.876,0.097c-0.08,0.018-0.151,0.027-0.221,0.036c-2.186,0.257-3.929,1.106-5.77,2
	c-2.018,0.991-4.107,2.009-6.956,2.345c-2.505,0.266-4.806,0.389-7.222,0.389c-12.779,0-15.346-4.204-15.346-10.983
	c0-3.044,0.186-7.531,0.54-12.965c0.079-1.133,0.717-2.142,1.708-2.682c12.443-6.859,19.355-9.647,21.745-10.523
	c0.372-0.142,0.761-0.212,1.141-0.212c0.938,0,1.85,0.398,2.487,1.133c0.903,1.027,1.08,2.505,0.452,3.717
	c-2.248,4.292-7.098,11.673-11.488,16.895C212.415,218.119,211.273,219.863,212.928,218.801"/>
<path d="M360.815,203.737c-0.044-1.248-3.204-2.991-11.682-2.673l-1.407,0.053c-2.682,0.15-6.071,0.381-9.921,0.646
	c-7.576,0.513-16.886,1.151-26.169,1.513c-22.993,0.876-27.347,0.363-29.17-3.452c-0.08-0.177-0.151-0.363-0.204-0.549
	c-0.204-0.726-0.779-1.513-1.106-1.505c-1.292,0.053-1.487,2.363-1.46,3.177c0.177,4.496,6.257,11.85,8.956,11.753
	c1.018-0.044,2.018-0.602,2.983-1.15c0.743-0.416,1.496-0.841,2.328-1.089c0.23-0.071,0.416-0.142,0.593-0.212
	c1.354-0.513,2.523-0.956,18.824-1.575l5.894-0.23c10.93-0.416,19.514-0.54,25.196-0.62l1.593-0.018
	c2.036-0.08,6.425-0.248,10.054-1.168C357.231,206.357,360.877,205.312,360.815,203.737"/>
<path d="M583.391,203.737c-0.044-1.248-3.195-2.991-11.682-2.673l-1.407,0.053c-2.682,0.15-6.071,0.381-9.921,0.646
	c-7.576,0.513-16.886,1.151-26.169,1.513c-22.984,0.876-27.347,0.363-29.17-3.452c-0.08-0.177-0.151-0.363-0.204-0.549
	c-0.204-0.726-0.779-1.513-1.106-1.505c-1.292,0.053-1.487,2.363-1.46,3.177c0.177,4.496,6.257,11.85,8.956,11.753
	c1.018-0.044,2.018-0.602,2.983-1.15c0.743-0.416,1.496-0.841,2.328-1.089c0.23-0.071,0.416-0.142,0.593-0.212
	c1.354-0.513,2.523-0.956,18.824-1.575l5.894-0.23c10.93-0.416,19.514-0.54,25.196-0.62l1.593-0.018
	c2.036-0.08,6.425-0.248,10.054-1.168C579.807,206.357,583.453,205.312,583.391,203.737"/>
<path d="M397.08,248.911c-0.487-0.274,1.779-1.301,1.779-1.301c23.019-10.974,40.506-27.86,53.428-51.498
	c0.557-1.027,0.54-2.266-0.062-3.274c-0.593-1-1.672-1.62-2.841-1.62c-0.097,0-8.797,0.053-23.869,4.894l-1.912,0.646
	c-3.487,1.177-5.593,1.894-7.815,1.894c-5.92,0-13.054-5.142-14.576-7.708c-0.903-1.841,0.664-2.053,1-2.053
	c0.531,0,1.151,0.177,2.018,0.805c0.434,0.31,1.053,0.575,1.531,0.832c1.478,0.779,3.992,1.504,7.983,1.504
	c2.611,0,5.629-0.265,8.248-0.513c1.637-0.177,4.381-0.531,7.504-0.947l0.363-0.044c5.779-0.761,12.966-1.708,16.594-1.956
	c1.629-0.142,2.735-0.885,3.797-1.611c1.035-0.699,1.752-1.142,2.646-1.195c5.292,0.805,13.177,3.788,13.177,6.053
	c0,1.053-1.478,2.071-2.363,2.682c-0.345,0.248-0.69,0.451-1.018,0.646c-1.522,0.912-2.628,1.69-3.992,4.133
	c-14.178,25.594-29.462,39.976-59.207,49.613C398.266,249.292,397.558,249.194,397.08,248.911 M421.046,177.376
	c-5.558,0-9.913-2.664-9.913-6.062c0-0.903,0.239-1.575,0.558-1.575c0,0,0.389,0.009,1.371,0.788
	c1.956,1.469,4.752,2.159,8.62,2.159c5.027,0,10.921-1.283,15.656-2.301c2.009-0.434,3.328-1.186,4.487-1.859
	c1.504-0.867,2.788-1.611,5.107-1.611c3.212,0,7.735,1.168,7.735,3.761c0,1.248-1.371,2.611-4.434,2.859
	c-7.496,0.345-15.107,1.664-23.169,3.053l-2.381,0.407C423.435,177.252,422.17,177.376,421.046,177.376"/>
<path d="M719.955,247.877c-0.266-0.504-1.788-0.867-1.788-0.867c-10.505-2.549-19.514-7.576-26.807-14.974
	c-1.053-1.071-1.256-2.708-0.495-4c4.434-7.531,7.664-15.824,9.611-24.709c0.018-0.106,0.044-0.195,0.071-0.283
	c0.194-0.894,0.761-1.69,1.593-2.168c0.239-0.133,0.495-0.248,0.832-0.381c0.23-0.097,0.469-0.195,0.69-0.301
	c0.823-0.442,1.93-1.142,1.93-2.018c0-1.77-6.116-5.407-8.248-5.682c-0.142,0-0.327,0.097-0.557,0.212
	c-0.54,0.265-1.505,1.053-2.186,1.894c-0.628,0.779-1.576,1.23-2.576,1.23h-22.089c-0.876,0-1.717-0.354-2.337-0.974
	c-0.62-0.619-0.973-1.46-0.973-2.345c0.018-11.762,0.142-20.895,0.266-23.638c0.026-0.451,0.088-1.354,0.159-1.956
	c0.195-1.664,1.611-2.921,3.284-2.921h20.072c0.885,0,1.726,0.354,2.345,0.974c0.628,0.628,0.973,1.478,0.964,2.354
	c-0.062,9.717-2.513,13.001-9.699,13.001c-1.752,0-3.363-0.301-5.036-0.345c-1.283-0.035-0.327,0.92-0.327,0.92
	c3.921,2.204,5.451,3.363,6.168,4.62c0.053,0.097,0.098,0.195,0.142,0.292c0.389,0.876,0.646,1.115,2.07,1.124
	c6.815-0.443,11.01-5.638,12.027-10.257c0.62-2.965,0.876-5.797,1.124-8.558l0.018-0.204c0.106-1.106,0.761-2.097,1.744-2.62
	l0.15-0.08c1.566-0.938,1.566-1.708,1.566-2.027c0-0.026-0.089-2.266-8.107-5.044c-0.257,0-0.407,0.097-0.522,0.168
	c-0.098,0.062-0.106,0.062-0.204,0.106c-0.708,0.593-1.319,1.319-1.823,1.947c-0.629,0.788-1.584,1.239-2.584,1.239h-18.045
	c-0.788,0-1.611-0.336-2.213-0.85c-1.354-0.903-8.868-4.239-10.992-4.726c0.026,0.08,0.044,0.168,0.053,0.257
	c1.434,6.381,1.549,18.541,1.549,31.506c0,23.001-0.301,53.959-1.141,65.411l-0.009,0.469c0,1.867,1.115,2.991,2.991,2.991
	c0.752,0,2.31-0.301,3.39-1.434c0.567-0.593,0.876-1.283,0.885-2c0.017-1.168,0.646-2.23,1.646-2.814
	c5.566-3.212,10.602-7.328,14.965-12.222c0.629-0.708,1.522-1.106,2.469-1.106c0.053,0,0.106,0,0.159,0.009
	c1,0.044,1.921,0.54,2.513,1.354c7.284,9.983,15.019,14.762,16.824,15.373c0.292-0.053,0.558-0.239,0.956-0.531
	c2-1.451,6.186-2.673,11.053-4.009c0.381-0.106,0.752-0.221,1.133-0.31C719.849,248.683,720.123,248.187,719.955,247.877
	 M682.431,231.859c-2.921,4.77-6.239,9.133-9.859,12.965c-0.637,0.682-1.514,1.035-2.407,1.035c-0.407,0-0.815-0.071-1.213-0.23
	c-1.257-0.496-2.08-1.708-2.089-3.053c-0.017-3.708-0.053-7.965-0.088-12.656c-0.062-9.036-0.133-19.152-0.151-28.772
	c0-0.885,0.425-1.726,1.053-2.345c0.62-0.619,1.54-0.974,2.416-0.974c1.602,0,2.964,1.142,3.257,2.717
	c1.876,10.301,5.062,20.001,9.204,28.072C683.077,229.646,683.033,230.868,682.431,231.859 M688.396,220.15
	c-0.469,1.168-1.566,1.965-2.823,2.062c-0.079,0.009-0.168,0.009-0.248,0.009c-1.159,0-2.248-0.611-2.849-1.628
	c-3.222-5.461-5.771-11.726-7.558-18.621c-0.257-0.991-0.044-2.044,0.584-2.859c0.628-0.805,1.593-1.283,2.62-1.283h12.372
	c0.982,0,1.912,0.443,2.54,1.195c0.628,0.752,0.894,1.743,0.717,2.708C693.237,204.548,691.679,211.982,688.396,220.15
	 M637.004,211.38c0.071-1.009-0.69-1.195-1.363-1.195h-7.027c-0.92,0-1.797-0.381-2.425-1.053c-0.619-0.673-0.938-1.566-0.876-2.487
	l0.169-2.451l0.319-13.381c0.044-1.797,1.513-3.23,3.31-3.23h9.054c1.805,0,3.284,1.451,3.31,3.257
	c0.071,5.239,0.079,10.532,0.079,16.036v8.885c-0.018,10.841-0.15,20.337-0.257,25.249c-0.23,5.399-4.894,6.089-8.929,6.089
	c-2.655,0-5.797-0.407-9.709-1.018c-0.071-0.009-0.15-0.027-0.221-0.044c-0.106-0.018-0.213-0.035-0.319-0.053
	c0.832,0.522,2.16,1.23,3.557,1.982c4.912,2.628,6.885,3.859,7.815,4.876c0.204,0.221,0.399,0.513,0.54,0.796
	c0.469,0.947,0.531,0.974,1.151,0.974c4.487,0,12.859-3.434,12.859-11.7v-0.363c-0.124-1.903-0.257-4.992-0.257-6.806l-0.079-5.496
	c-0.159-10.673-0.434-28.559-0.434-42.578c0-7.646,0-14.249,0.257-17.815c0-1.186,0.026-1.584,0.133-2.009
	c0.097-0.407,0.274-0.788,0.513-1.124c0.363-0.504,0.885-0.956,1.761-1.504c0.965-0.602,2.08-1.425,2.08-2.407
	c-0.089-1.628-5.859-5.363-8.363-6.045c-0.026,0.018-0.062,0.035-0.106,0.062c-0.159,0.106-0.204,0.124-0.372,0.195
	c-0.239,0.186-1,1.044-2.035,2.531c-0.62,0.885-1.637,1.416-2.717,1.416h-7.806c-0.823,0-1.619-0.31-2.23-0.867l-0.266-0.248
	c-2.08-1.469-8.761-3.841-10.106-4.266h-0.354c0.018,0.071,0.036,0.142,0.044,0.177c1.602,6.283,1.938,19.284,1.938,29.081
	c0,6.505-0.142,13.027-0.389,18.346c-0.805,18.815-6.443,35.931-15.284,46.985c0,0-2.213,2.443-1.628,2.85
	c0.557,0.381,0.743,0.513,2.938-1.46c6.452-5.797,15.62-17.594,18.939-36.391c0.283-1.575,1.655-2.735,3.257-2.735h8.169
	C636.473,212.442,636.95,212.176,637.004,211.38 M640.456,184.476c-0.62,0.62-1.461,0.974-2.345,0.974h-8.93
	c-1.832,0-3.31-1.487-3.31-3.31v-15.735c0-1.823,1.478-3.301,3.31-3.301h8.815c1.823,0,3.301,1.469,3.31,3.283
	c0,1.266,0.044,5.115,0.044,5.115c0.026,3.053,0.062,6.664,0.071,10.629C641.42,183.007,641.075,183.856,640.456,184.476"/>
</svg>
