<?xml version="1.0" encoding="utf-8"?>
<!-- Generator: Adobe Illustrator 27.0.1, SVG Export Plug-In . SVG Version: 6.00 Build 0)  -->
<svg version="1.1" id="레이어_1" xmlns="http://www.w3.org/2000/svg" xmlns:xlink="http://www.w3.org/1999/xlink" x="0px"
	 y="0px" viewBox="0 0 720 138.793" enable-background="new 0 0 720 138.793" xml:space="preserve">
<path d="M378.14,44.617l15.806,60.169c0.723,2.782,3.557,4.963,6.43,4.963h75.597c1.559,0,2.956-0.652,3.832-1.794
	c0.866-1.131,1.152-2.65,0.754-4.148L454.766,5.606c-0.723-2.772-3.557-4.953-6.42-4.953h-43.312l-1.661,0.937L378.354,43.14
	L378.14,44.617"/>
<path d="M375.368,34.089l1.6,1.427l0.275,0.021l1.651-0.937l18.691-31.022l0.02-1.947l-1.671-0.978h-23.195
	c-1.559,0-2.955,0.642-3.832,1.783c-0.876,1.131-1.152,2.639-0.754,4.158L375.368,34.089"/>
<path d="M466.822,24.856l1.865,1.437h35.761l-8.805,6.818l-0.713,1.202l-10.986,62.237c-0.265,1.529,0.122,3.057,1.06,4.168
	c0.927,1.111,2.324,1.732,3.842,1.732h11.985c2.956,0,5.677-2.293,6.186-5.238l12.148-68.871c0.194-1.101,1.315-2.048,2.385-2.048
	h18.283c1.916,0,3.689-1.498,4.036-3.414l0.571-3.251c0.183-1.029-0.082-2.079-0.734-2.854c-0.632-0.764-1.6-1.202-2.649-1.213
	h-74.191l-1.529,0.744l-0.336,1.671L466.822,24.856"/>
<path d="M623.908,28.423l0.988,0.265l1.182-0.397l22.583-17.529l0.713-1.182l0.53-3.016c0.275-1.529-0.102-3.057-1.05-4.179
	c-0.917-1.11-2.324-1.742-3.842-1.742h-12.209c-2.966,0-5.677,2.303-6.186,5.248l-3.618,20.535L623.908,28.423"/>
<path d="M536.03,100.718c0.917,1.111,2.324,1.733,3.852,1.733h11.985c2.945,0,5.656-2.293,6.176-5.239l12.474-70.695l0.245-0.225
	h2.711c5.585,0.051,12.229,2.008,12.25,10.884c-0.01,1.101-0.122,2.283-0.336,3.475c-1.641,9.162-7.827,14.706-16.979,15.195
	l-1.794,1.59l-2.629,14.869l0.245,1.314c5.778,9.814,11.271,19.119,15.725,26.619l0.265,0.357c0.927,1.182,2.344,1.855,3.923,1.855
	h14.634c1.926,0,3.699-1.488,4.036-3.414l-0.193-1.936l-0.133-0.286c-5.167-8.703-11.679-19.73-18.405-31.144l0.224-0.174
	l0.234-0.061c12.882-2.13,22.227-11.23,24.418-23.806c0.296-1.702,0.459-3.383,0.469-4.994c0.051-6.92-2.69-12.525-7.949-16.245
	c-4.464-3.159-10.538-4.831-17.569-4.831h-29.381c-2.955,0-5.676,2.293-6.186,5.228L534.98,96.55
	C534.705,98.079,535.092,99.608,536.03,100.718"/>
<path d="M615.531,102.451h12.209c2.955,0,5.666-2.293,6.186-5.238l14.013-79.48l-0.907-1.997l-2.181,0.142L622.236,33.58
	l-0.703,1.192l-10.905,61.778c-0.265,1.529,0.122,3.057,1.05,4.168S614.012,102.451,615.531,102.451"/>
<path d="M292.239,97.335l-0.337,1.04c-0.183,1.039,0.092,2.089,0.744,2.864c0.602,0.723,1.488,1.151,2.446,1.202l0.204,0.01h6.879
	c1.926-0.051,3.832-1.111,5.065-2.894l35.363-58.701l5.045,21.86l-0.244,0.204h-16.041l-1.661,0.937l-4.066,6.767l-0.03,1.946
	l1.682,0.968h21.635l1.101,0.795l0.051,0.183l5.259,24.285c0.56,2.171,2.487,3.638,4.81,3.648h19.74l1.529-0.754l0.336-1.661
	l-21.35-80.887c-0.581-2.15-2.507-3.597-4.8-3.597h-10.629c-2.089,0-4.107,1.141-5.289,2.986l-0.082,0.123l-47.225,78.42
	L292.239,97.335"/>
<path d="M705.253,111.715H37.472l-1.641,0.927l-13.992,23.215l-0.021,1.947l1.671,0.978h677.676c0.937,0,1.743-0.672,1.895-1.6
	l4.097-23.205l-0.428-1.569L705.253,111.715"/>
<path d="M712.183,20.923c-4.545-3.516-10.64-5.36-17.62-5.36h-29.279c-2.945,0-5.656,2.293-6.186,5.228l-13.361,75.76
	c-0.265,1.529,0.112,3.057,1.06,4.168c0.927,1.111,2.324,1.732,3.842,1.732h11.985c2.955,0,5.666-2.293,6.186-5.238l12.474-70.696
	l0.234-0.224h2.731c7.654,0.061,12.046,4.392,12.056,11.872c-0.01,1.121-0.133,2.334-0.346,3.587
	c-1.661,9.356-8.408,15.746-17.193,16.286l-1.773,1.59l-1.223,6.93l0.418,1.569l1.478,0.693h8.551
	c13.819,0,30.145-8.163,33.314-26.089c0.306-1.742,0.459-3.445,0.469-5.054C720.05,30.788,717.278,24.836,712.183,20.923"/>
<path d="M77.676,62.716l-0.234,0.204H61.391l-1.651,0.938l-4.076,6.766l-0.021,1.947l1.671,0.968H78.96l1.09,0.795l0.051,0.183
	l5.269,24.285c0.561,2.171,2.487,3.638,4.81,3.649h16.958c1.926,0,3.699-1.498,4.036-3.414l-0.01-1.325l-0.03-0.122L90.415,19.109
	l-0.132-0.366c-0.703-1.947-2.507-3.19-4.678-3.19H74.996c-2.12,0-4.168,1.182-5.371,3.108L0.53,133.402l-0.132,0.265l-0.337,1.029
	c-0.183,1.049,0.082,2.089,0.734,2.864c0.601,0.733,1.498,1.161,2.456,1.223l0.204,0.01h9.111l1.651-0.937l58.415-97.009
	L77.676,62.716"/>
<path d="M196.81,100.718c0.927,1.111,2.324,1.733,3.852,1.733h12.209c2.945,0,5.666-2.293,6.186-5.239l14.013-79.48l-0.907-1.998
	l-2.181,0.143L207.368,33.58l-0.713,1.192L195.76,96.55C195.495,98.079,195.872,99.608,196.81,100.718"/>
<path d="M209.039,28.423l0.988,0.265l1.192-0.407l22.573-17.508l0.713-1.192l0.53-3.016c0.275-1.529-0.112-3.057-1.05-4.179
	c-0.917-1.11-2.324-1.742-3.842-1.742h-12.209c-2.956,0-5.666,2.303-6.196,5.248l-3.608,20.535L209.039,28.423"/>
<path d="M122.568,102.451h12.046c2.894,0,5.595-2.252,6.155-5.166l4.566-26.161l0.102-0.153l19.119,29.35l0.326,0.377
	c0.927,1.121,2.293,1.753,3.842,1.753h17.264c1.926,0,3.709-1.488,4.036-3.404l-0.306-2.232l-0.194-0.346l-3.057-4.454
	c-6.227-9.101-16.714-24.438-23.052-33.722l-1.6-0.836h-8.193l49.559-38.451l0.642-2.14l-1.824-1.304h-13.483
	c-1.182,0-2.354,0.377-3.414,1.09l-0.265,0.173L150.186,43.7l3.923-22.237c0.265-1.529-0.112-3.057-1.05-4.168
	c-0.927-1.111-2.334-1.732-3.852-1.732h-11.985c-2.945,0-5.666,2.293-6.186,5.228l-13.361,75.76
	c-0.265,1.529,0.112,3.047,1.05,4.158C119.643,101.82,121.039,102.451,122.568,102.451"/>
<path d="M231.001,100.718c0.927,1.111,2.324,1.733,3.852,1.733h15.633c0.927,0,1.732-0.662,1.896-1.59l13.167-74.68l0.244-0.234
	h0.927l0.245,0.03c4.983,0.255,6.859,2.262,6.92,7.389c-0.01,1.151-0.132,2.425-0.367,3.771c-1.06,5.88-4.474,10.15-9.366,11.709
	l-1.315,1.508l-1.254,7.103l0.408,1.549l1.437,0.713c8.072,0.224,12.178,4.311,12.199,12.107c0,1.284-0.132,2.67-0.377,4.117
	c-1.732,9.631-8.846,15.908-18.14,15.989c-0.927,0.011-1.722,0.673-1.885,1.59l-1.172,6.666l0.418,1.579l1.478,0.683h9.478
	c15.939-0.011,29.88-10.844,32.448-25.213c0.255-1.457,0.387-2.905,0.397-4.281c0.03-5.839-2.089-11.118-5.982-14.899
	c-1.824-1.763-3.995-3.169-6.42-4.158l0.173-0.132c5.238-3.832,9.05-9.967,10.181-16.428c0.214-1.212,0.326-2.384,0.326-3.506
	c0.041-5.412-2.242-10.191-6.441-13.483c-3.995-3.139-9.437-4.79-15.735-4.79h-24.877c-2.955,0-5.666,2.293-6.186,5.228
	l-13.361,75.76C229.686,98.079,230.063,99.608,231.001,100.718"/>
<g>
	<defs>
		<path id="SVGID_1_" d="M107.342,95.511L86.624,17.03l-0.02,0.01c-0.357-1.253-1.457-2.13-2.925-2.13H73.07
			c-1.488,0-2.925,0.897-3.71,2.171L38.828,67.791L0.254,131.832l-0.224,0.621c-0.183,1.009,0.489,1.824,1.498,1.824v0.01h9.101
			l1.488-2.466l56.989-94.624l1.855-1.08l1.478,1.101l5.208,22.553l0.01,0.682c-0.183,1.009-1.141,1.824-2.14,1.824H59.464
			l-4.076,6.767h21.646c1.539,0,2.68,0.958,2.976,2.293h0.01l5.289,24.418c0.336,1.294,1.457,2.191,2.945,2.201h16.948
			c1.009,0,1.967-0.815,2.15-1.824L107.342,95.511"/>
	</defs>
	<clipPath id="SVGID_00000050636243147352889090000002916666408299533196_">
		<use xlink:href="#SVGID_1_"  overflow="visible"/>
	</clipPath>
	<g clip-path="url(#SVGID_00000050636243147352889090000002916666408299533196_)">
		<defs>
			
				<rect id="SVGID_00000018947171997116510250000009238843998618907807_" x="-3491.801" y="-9265.362" width="10515.259" height="14877.346"/>
		</defs>
		<clipPath id="SVGID_00000125581592632780575490000004345236614161875339_">
			<use xlink:href="#SVGID_00000018947171997116510250000009238843998618907807_"  overflow="visible"/>
		</clipPath>
		<g clip-path="url(#SVGID_00000125581592632780575490000004345236614161875339_)">
			<defs>
				
					<rect id="SVGID_00000116917288820720934230000012650114126415639721_" x="-3491.801" y="-9265.26" width="10515.359" height="14877.243"/>
			</defs>
			<clipPath id="SVGID_00000075123810134515350360000002856366711753344922_">
				<use xlink:href="#SVGID_00000116917288820720934230000012650114126415639721_"  overflow="visible"/>
			</clipPath>
			
				<linearGradient id="SVGID_00000147207462720578817490000015922624223453288577_" gradientUnits="userSpaceOnUse" x1="-25.7124" y1="441.4854" x2="-15.5214" y2="441.4854" gradientTransform="matrix(0 -13.177 -13.177 0 7583.332 -204.5248)">
				<stop  offset="0" style="stop-color:#E61F1D"/>
				<stop  offset="0.2636" style="stop-color:#E61F1D"/>
				<stop  offset="0.3476" style="stop-color:#E62727"/>
				<stop  offset="0.4907" style="stop-color:#E53C42"/>
				<stop  offset="0.6757" style="stop-color:#E35F6E"/>
				<stop  offset="0.893" style="stop-color:#E18EAB"/>
				<stop  offset="1" style="stop-color:#E0A8CB"/>
			</linearGradient>
			
				<rect x="-3491.801" y="-9265.259" clip-path="url(#SVGID_00000075123810134515350360000002856366711753344922_)" fill="url(#SVGID_00000147207462720578817490000015922624223453288577_)" width="10515.358" height="14877.242"/>
		</g>
	</g>
</g>
<g>
	<defs>
		<path id="SVGID_00000180352669951221410450000016887342563869673094_" d="M185.987,95.001l0.01-0.01
			c-5.085-7.45-18.548-27.109-26.11-38.176h-13.829l54.013-41.906h-13.483l-2.497,0.876l-0.01-0.01l-35.068,27.2v-0.011
			l-1.294,0.479c-1.009,0-1.681-0.815-1.498-1.824l4.066-23.062c0.346-2.018-0.999-3.649-3.007-3.649h-11.985
			c-2.008,0-3.934,1.631-4.29,3.649l-13.361,75.76c-0.346,2.008,0.988,3.638,2.986,3.638h12.046c1.997,0,3.883-1.589,4.27-3.567
			l4.586-26.273c0.214-0.968,1.141-1.722,2.11-1.722l1.264,0.632l0.01-0.01l19.333,29.686l0.03-0.021
			c0.52,0.775,1.406,1.274,2.507,1.274h17.274c1.009,0,1.967-0.815,2.14-1.824L185.987,95.001"/>
	</defs>
	<clipPath id="SVGID_00000069363101936774942600000009067126182447405445_">
		<use xlink:href="#SVGID_00000180352669951221410450000016887342563869673094_"  overflow="visible"/>
	</clipPath>
	<g clip-path="url(#SVGID_00000069363101936774942600000009067126182447405445_)">
		<defs>
			
				<rect id="SVGID_00000097458498975445722930000017964671122178011778_" x="-3491.801" y="-9265.362" width="10515.259" height="14877.346"/>
		</defs>
		<clipPath id="SVGID_00000005252903590692972730000016680657512591376788_">
			<use xlink:href="#SVGID_00000097458498975445722930000017964671122178011778_"  overflow="visible"/>
		</clipPath>
		<g clip-path="url(#SVGID_00000005252903590692972730000016680657512591376788_)">
			<defs>
				
					<rect id="SVGID_00000075150555605570369570000008303447671580584626_" x="-3491.801" y="-9265.26" width="10515.359" height="14877.243"/>
			</defs>
			<clipPath id="SVGID_00000060022522600302217490000014045896421915614873_">
				<use xlink:href="#SVGID_00000075150555605570369570000008303447671580584626_"  overflow="visible"/>
			</clipPath>
			
				<linearGradient id="SVGID_00000036214992570655507400000011264565503798251454_" gradientUnits="userSpaceOnUse" x1="-25.7124" y1="442.2684" x2="-15.5214" y2="442.2684" gradientTransform="matrix(0 -13.177 -13.177 0 7593.6489 -204.5248)">
				<stop  offset="0" style="stop-color:#E61F1D"/>
				<stop  offset="0.2636" style="stop-color:#E61F1D"/>
				<stop  offset="0.3476" style="stop-color:#E62727"/>
				<stop  offset="0.4907" style="stop-color:#E53C42"/>
				<stop  offset="0.6757" style="stop-color:#E35F6E"/>
				<stop  offset="0.893" style="stop-color:#E18EAB"/>
				<stop  offset="1" style="stop-color:#E0A8CB"/>
			</linearGradient>
			
				<rect x="-3491.801" y="-9265.259" clip-path="url(#SVGID_00000060022522600302217490000014045896421915614873_)" fill="url(#SVGID_00000036214992570655507400000011264565503798251454_)" width="10515.358" height="14877.242"/>
		</g>
	</g>
</g>
<g>
	<defs>
		<path id="SVGID_00000052088002656623266690000011711587497302302650_" d="M229.248,14.828l-2.751,2.14L206.624,32.53
			l-10.894,61.778c-0.357,2.028,0.989,3.648,2.996,3.648h12.219c2.008,0,3.924-1.62,4.28-3.648L229.248,14.828"/>
	</defs>
	<clipPath id="SVGID_00000030446159492808657470000010954147688090871183_">
		<use xlink:href="#SVGID_00000052088002656623266690000011711587497302302650_"  overflow="visible"/>
	</clipPath>
	<g clip-path="url(#SVGID_00000030446159492808657470000010954147688090871183_)">
		<defs>
			
				<rect id="SVGID_00000106870014175571479700000012911054297888000133_" x="-3491.801" y="-9265.362" width="10515.259" height="14877.346"/>
		</defs>
		<clipPath id="SVGID_00000083792566855774743180000016983576289130653853_">
			<use xlink:href="#SVGID_00000106870014175571479700000012911054297888000133_"  overflow="visible"/>
		</clipPath>
		<g clip-path="url(#SVGID_00000083792566855774743180000016983576289130653853_)">
			<defs>
				
					<rect id="SVGID_00000137133713642857966930000010049491784766064556_" x="-3491.801" y="-9265.26" width="10515.359" height="14877.243"/>
			</defs>
			<clipPath id="SVGID_00000031165019039062027630000013188137070101348796_">
				<use xlink:href="#SVGID_00000137133713642857966930000010049491784766064556_"  overflow="visible"/>
			</clipPath>
			
				<linearGradient id="SVGID_00000005240857391930980840000005722193949061417376_" gradientUnits="userSpaceOnUse" x1="-25.7124" y1="442.6677" x2="-15.5214" y2="442.6677" gradientTransform="matrix(0 -13.177 -13.177 0 7598.9111 -204.5248)">
				<stop  offset="0" style="stop-color:#E61F1D"/>
				<stop  offset="0.2636" style="stop-color:#E61F1D"/>
				<stop  offset="0.3476" style="stop-color:#E62727"/>
				<stop  offset="0.4907" style="stop-color:#E53C42"/>
				<stop  offset="0.6757" style="stop-color:#E35F6E"/>
				<stop  offset="0.893" style="stop-color:#E18EAB"/>
				<stop  offset="1" style="stop-color:#E0A8CB"/>
			</linearGradient>
			
				<rect x="-3491.801" y="-9265.259" clip-path="url(#SVGID_00000031165019039062027630000013188137070101348796_)" fill="url(#SVGID_00000005240857391930980840000005722193949061417376_)" width="10515.358" height="14877.242"/>
		</g>
	</g>
</g>
<g>
	<defs>
		<path id="SVGID_00000069391834510766667240000013095873004324647085_" d="M294.41,70.38c0.041-5.391-1.916-10.129-5.391-13.503
			c-1.753-1.702-3.893-3.037-6.329-3.965l-0.876-1.681l1.029-1.498c5.259-3.791,8.56-9.641,9.559-15.297
			c0.183-1.09,0.285-2.16,0.295-3.19c0.041-4.953-2.089-9.121-5.697-11.944c-3.618-2.843-8.673-4.393-14.553-4.393h-24.877
			c-2.018,0-3.934,1.631-4.29,3.649l-13.361,75.75c-0.357,2.028,0.988,3.648,2.996,3.648h15.643l1.172-6.665l6.359-36.097
			l1.539-8.713l4.097-23.195c0.173-1.019,1.131-1.834,2.14-1.834h1.274v0.03c5.707,0.286,8.673,2.833,8.744,9.325
			c-0.01,1.233-0.132,2.599-0.397,4.097c-1.264,7.042-5.432,11.536-10.68,13.218l-1.253,7.093
			c8.836,0.255,14.053,4.994,14.074,14.053c0,1.376-0.132,2.864-0.407,4.434c-2.059,11.515-10.691,17.518-20.025,17.589
			l-1.172,6.665h9.478c13.9-0.01,27.974-9.233,30.542-23.623C294.277,72.989,294.4,71.664,294.41,70.38"/>
	</defs>
	<clipPath id="SVGID_00000072267304407370870290000017940333021010762127_">
		<use xlink:href="#SVGID_00000069391834510766667240000013095873004324647085_"  overflow="visible"/>
	</clipPath>
	<g clip-path="url(#SVGID_00000072267304407370870290000017940333021010762127_)">
		<defs>
			
				<rect id="SVGID_00000113317518251602860910000007365826616935497358_" x="-3491.801" y="-9265.362" width="10515.259" height="14877.346"/>
		</defs>
		<clipPath id="SVGID_00000038401580537587715760000016129141547025238446_">
			<use xlink:href="#SVGID_00000113317518251602860910000007365826616935497358_"  overflow="visible"/>
		</clipPath>
		<g clip-path="url(#SVGID_00000038401580537587715760000016129141547025238446_)">
			<defs>
				
					<rect id="SVGID_00000123419361943586328900000012967031494416216753_" x="-3491.801" y="-9265.26" width="10515.359" height="14877.243"/>
			</defs>
			<clipPath id="SVGID_00000145058295506775507590000014245924922150334651_">
				<use xlink:href="#SVGID_00000123419361943586328900000012967031494416216753_"  overflow="visible"/>
			</clipPath>
			
				<linearGradient id="SVGID_00000134965873145966965770000011811508451481203105_" gradientUnits="userSpaceOnUse" x1="-25.7124" y1="443.0377" x2="-15.5214" y2="443.0377" gradientTransform="matrix(0 -13.177 -13.177 0 7603.7861 -204.5248)">
				<stop  offset="0" style="stop-color:#E61F1D"/>
				<stop  offset="0.2636" style="stop-color:#E61F1D"/>
				<stop  offset="0.3476" style="stop-color:#E62727"/>
				<stop  offset="0.4907" style="stop-color:#E53C42"/>
				<stop  offset="0.6757" style="stop-color:#E35F6E"/>
				<stop  offset="0.893" style="stop-color:#E18EAB"/>
				<stop  offset="1" style="stop-color:#E0A8CB"/>
			</linearGradient>
			
				<rect x="-3491.801" y="-9265.259" clip-path="url(#SVGID_00000145058295506775507590000014245924922150334651_)" fill="url(#SVGID_00000134965873145966965770000011811508451481203105_)" width="10515.358" height="14877.242"/>
		</g>
	</g>
</g>
<g>
	<defs>
		<path id="SVGID_00000055697102956249294950000012081369846594111622_" d="M356.606,17.081c-0.346-1.274-1.457-2.171-2.945-2.171
			h-10.629c-1.488,0-2.925,0.897-3.71,2.171l-30.532,50.711l-16.693,27.709l0.01,0.01l-0.234,0.622
			c-0.173,1.009,0.499,1.824,1.508,1.824h6.716c1.406,0,2.752-0.795,3.567-1.967l0.306-0.489l35.108-58.303l1.845-1.08l1.478,1.101
			l5.208,22.553l0.01,0.682c-0.173,1.009-1.141,1.824-2.14,1.824h-16.04l-4.077,6.767h21.636c1.539,0,2.68,0.958,2.976,2.293h0.01
			l5.299,24.418c0.326,1.294,1.447,2.191,2.935,2.201h19.74L356.606,17.081"/>
	</defs>
	<clipPath id="SVGID_00000078019641566658225210000011267931687499987840_">
		<use xlink:href="#SVGID_00000055697102956249294950000012081369846594111622_"  overflow="visible"/>
	</clipPath>
	<g clip-path="url(#SVGID_00000078019641566658225210000011267931687499987840_)">
		<defs>
			
				<rect id="SVGID_00000163071298598149300080000005419676482703789717_" x="-3491.801" y="-9265.362" width="10515.259" height="14877.346"/>
		</defs>
		<clipPath id="SVGID_00000155852686729549580990000014384560286608793494_">
			<use xlink:href="#SVGID_00000163071298598149300080000005419676482703789717_"  overflow="visible"/>
		</clipPath>
		<g clip-path="url(#SVGID_00000155852686729549580990000014384560286608793494_)">
			<defs>
				
					<rect id="SVGID_00000098925293818718194630000006000219632033976742_" x="-3491.801" y="-9265.26" width="10515.359" height="14877.243"/>
			</defs>
			<clipPath id="SVGID_00000154418300597658763230000007469298055921417375_">
				<use xlink:href="#SVGID_00000098925293818718194630000006000219632033976742_"  overflow="visible"/>
			</clipPath>
			
				<linearGradient id="SVGID_00000078021644829140518330000005164586888864261822_" gradientUnits="userSpaceOnUse" x1="-25.7124" y1="443.5795" x2="-15.5214" y2="443.5795" gradientTransform="matrix(0 -13.177 -13.177 0 7610.9258 -204.5248)">
				<stop  offset="0" style="stop-color:#E61F1D"/>
				<stop  offset="0.2636" style="stop-color:#E61F1D"/>
				<stop  offset="0.3476" style="stop-color:#E62727"/>
				<stop  offset="0.4907" style="stop-color:#E53C42"/>
				<stop  offset="0.6757" style="stop-color:#E35F6E"/>
				<stop  offset="0.893" style="stop-color:#E18EAB"/>
				<stop  offset="1" style="stop-color:#E0A8CB"/>
			</linearGradient>
			
				<rect x="-3491.801" y="-9265.259" clip-path="url(#SVGID_00000154418300597658763230000007469298055921417375_)" fill="url(#SVGID_00000078021644829140518330000005164586888864261822_)" width="10515.358" height="14877.242"/>
		</g>
	</g>
</g>
<g>
	<defs>
		<path id="SVGID_00000006681591078466992390000018025836339715358081_" d="M208.102,24.184l2.731-2.13l19.852-15.378l0.52-3.017
			C231.571,1.641,230.216,0,228.209,0H216c-2.018,0-3.924,1.641-4.29,3.659l-1.977,11.251L208.102,24.184"/>
	</defs>
	<clipPath id="SVGID_00000006674279246685138120000002892891003127355275_">
		<use xlink:href="#SVGID_00000006681591078466992390000018025836339715358081_"  overflow="visible"/>
	</clipPath>
	<g clip-path="url(#SVGID_00000006674279246685138120000002892891003127355275_)">
		<defs>
			
				<rect id="SVGID_00000135671686240725560410000015073855087174810538_" x="-3491.801" y="-9265.362" width="10515.259" height="14877.346"/>
		</defs>
		<clipPath id="SVGID_00000183235937736031584340000008345459888051817647_">
			<use xlink:href="#SVGID_00000135671686240725560410000015073855087174810538_"  overflow="visible"/>
		</clipPath>
		<g clip-path="url(#SVGID_00000183235937736031584340000008345459888051817647_)">
			<defs>
				
					<rect id="SVGID_00000159458311338735857240000016771044808229000626_" x="-3491.801" y="-9265.26" width="10515.359" height="14877.243"/>
			</defs>
			<clipPath id="SVGID_00000081620454667903708510000012499667270815156361_">
				<use xlink:href="#SVGID_00000159458311338735857240000016771044808229000626_"  overflow="visible"/>
			</clipPath>
			
				<linearGradient id="SVGID_00000183965599843520693740000015745387184000508594_" gradientUnits="userSpaceOnUse" x1="-25.7124" y1="442.7216" x2="-15.5214" y2="442.7216" gradientTransform="matrix(0 -13.177 -13.177 0 7599.6211 -204.5248)">
				<stop  offset="0" style="stop-color:#E61F1D"/>
				<stop  offset="0.2636" style="stop-color:#E61F1D"/>
				<stop  offset="0.3476" style="stop-color:#E62727"/>
				<stop  offset="0.4907" style="stop-color:#E53C42"/>
				<stop  offset="0.6757" style="stop-color:#E35F6E"/>
				<stop  offset="0.893" style="stop-color:#E18EAB"/>
				<stop  offset="1" style="stop-color:#E0A8CB"/>
			</linearGradient>
			
				<rect x="-3491.801" y="-9265.259" clip-path="url(#SVGID_00000081620454667903708510000012499667270815156361_)" fill="url(#SVGID_00000183965599843520693740000015745387184000508594_)" width="10515.358" height="14877.242"/>
		</g>
	</g>
</g>
<g>
	<defs>
		<path id="SVGID_00000170997696853172837580000015630044358230268034_" d="M476.769,101.728L450.975,3.526
			C450.476,1.6,448.417,0,446.41,0h-43.302l-25.029,41.57l15.796,60.158c0.509,1.926,2.568,3.526,4.576,3.526h75.597
			C476.056,105.254,477.268,103.654,476.769,101.728"/>
	</defs>
	<clipPath id="SVGID_00000075158006754285006010000007106709783551088792_">
		<use xlink:href="#SVGID_00000170997696853172837580000015630044358230268034_"  overflow="visible"/>
	</clipPath>
	<g clip-path="url(#SVGID_00000075158006754285006010000007106709783551088792_)">
		<defs>
			
				<rect id="SVGID_00000048472414947360444890000007184318225826625429_" x="-3491.801" y="-9265.362" width="10515.259" height="14877.346"/>
		</defs>
		<clipPath id="SVGID_00000132798234056417015620000003171427516143619250_">
			<use xlink:href="#SVGID_00000048472414947360444890000007184318225826625429_"  overflow="visible"/>
		</clipPath>
		<g clip-path="url(#SVGID_00000132798234056417015620000003171427516143619250_)">
			<defs>
				
					<rect id="SVGID_00000156549754159646447710000007116033772534472833_" x="-3491.801" y="-9265.26" width="10515.359" height="14877.243"/>
			</defs>
			<clipPath id="SVGID_00000023240870817599730510000008166039787208180389_">
				<use xlink:href="#SVGID_00000156549754159646447710000007116033772534472833_"  overflow="visible"/>
			</clipPath>
			
				<linearGradient id="SVGID_00000003082457068645309830000001478991347596475786_" gradientUnits="userSpaceOnUse" x1="-16.1591" y1="704.6818" x2="-5.968" y2="704.6818" gradientTransform="matrix(9.3644 11.16 11.16 -9.3644 -5624.4922 5337.0283)">
				<stop  offset="0" style="stop-color:#E62B4C"/>
				<stop  offset="0.0093" style="stop-color:#D32745"/>
				<stop  offset="0.0351" style="stop-color:#A31E35"/>
				<stop  offset="0.0624" style="stop-color:#781627"/>
				<stop  offset="0.0907" style="stop-color:#540F1B"/>
				<stop  offset="0.1203" style="stop-color:#370A11"/>
				<stop  offset="0.1517" style="stop-color:#20050A"/>
				<stop  offset="0.1855" style="stop-color:#100204"/>
				<stop  offset="0.2238" style="stop-color:#070101"/>
				<stop  offset="0.2758" style="stop-color:#040000"/>
				<stop  offset="0.7788" style="stop-color:#001726"/>
				<stop  offset="0.8115" style="stop-color:#021A2B"/>
				<stop  offset="0.8517" style="stop-color:#06223A"/>
				<stop  offset="0.8958" style="stop-color:#0E2F53"/>
				<stop  offset="0.9427" style="stop-color:#184276"/>
				<stop  offset="0.9913" style="stop-color:#2559A2"/>
				<stop  offset="1" style="stop-color:#285EAB"/>
			</linearGradient>
			
				<polygon clip-path="url(#SVGID_00000023240870817599730510000008166039787208180389_)" fill="url(#SVGID_00000003082457068645309830000001478991347596475786_)" points="
				2678.839,-14443.067 14349.177,-534.973 852.918,10789.792 -10817.42,-3118.304 			"/>
		</g>
	</g>
</g>
<g>
	<defs>
		<path id="SVGID_00000155837724052623023080000002508910866784745872_" d="M370.802,0c-1.998,0-3.22,1.6-2.711,3.526l7.225,27.506
			L394.007,0H370.802"/>
	</defs>
	<clipPath id="SVGID_00000163048439954108383550000007412244948649866882_">
		<use xlink:href="#SVGID_00000155837724052623023080000002508910866784745872_"  overflow="visible"/>
	</clipPath>
	<g clip-path="url(#SVGID_00000163048439954108383550000007412244948649866882_)">
		<defs>
			
				<rect id="SVGID_00000046308401765330182440000016470871924029693876_" x="-3491.801" y="-9265.362" width="10515.259" height="14877.346"/>
		</defs>
		<clipPath id="SVGID_00000101822962688879126870000016110932506866322349_">
			<use xlink:href="#SVGID_00000046308401765330182440000016470871924029693876_"  overflow="visible"/>
		</clipPath>
		<g clip-path="url(#SVGID_00000101822962688879126870000016110932506866322349_)">
			<defs>
				
					<rect id="SVGID_00000153692369790585397840000011690756893845257088_" x="-3491.801" y="-9265.26" width="10515.359" height="14877.243"/>
			</defs>
			<clipPath id="SVGID_00000096057171267406619570000016584607717209064123_">
				<use xlink:href="#SVGID_00000153692369790585397840000011690756893845257088_"  overflow="visible"/>
			</clipPath>
			
				<linearGradient id="SVGID_00000023269080609524566120000007794841984586011564_" gradientUnits="userSpaceOnUse" x1="-16.1593" y1="704.7161" x2="-5.9682" y2="704.7161" gradientTransform="matrix(9.3644 11.16 11.16 -9.3644 -5624.875 5337.3491)">
				<stop  offset="0" style="stop-color:#E62B4C"/>
				<stop  offset="0.0093" style="stop-color:#D32745"/>
				<stop  offset="0.0351" style="stop-color:#A31E35"/>
				<stop  offset="0.0624" style="stop-color:#781627"/>
				<stop  offset="0.0907" style="stop-color:#540F1B"/>
				<stop  offset="0.1203" style="stop-color:#370A11"/>
				<stop  offset="0.1517" style="stop-color:#20050A"/>
				<stop  offset="0.1855" style="stop-color:#100204"/>
				<stop  offset="0.2238" style="stop-color:#070101"/>
				<stop  offset="0.2758" style="stop-color:#040000"/>
				<stop  offset="0.7788" style="stop-color:#001726"/>
				<stop  offset="0.8115" style="stop-color:#021A2B"/>
				<stop  offset="0.8517" style="stop-color:#06223A"/>
				<stop  offset="0.8958" style="stop-color:#0E2F53"/>
				<stop  offset="0.9427" style="stop-color:#184276"/>
				<stop  offset="0.9913" style="stop-color:#2559A2"/>
				<stop  offset="1" style="stop-color:#285EAB"/>
			</linearGradient>
			
				<polygon clip-path="url(#SVGID_00000096057171267406619570000016584607717209064123_)" fill="url(#SVGID_00000023269080609524566120000007794841984586011564_)" points="
				2678.84,-14443.067 14349.176,-534.972 852.918,10789.793 -10817.42,-3118.303 			"/>
		</g>
	</g>
</g>
<g>
	<defs>
		<path id="SVGID_00000144330204436756043240000000131862440133824136_" d="M460.402,76.535c0.051-6.807-2.201-12.484-6.685-16.896
			c-4.474-4.423-11.068-7.929-21.36-11.364c-7.562-2.507-12.739-5.054-15.378-7.551c-2.293-2.232-2.701-3.842-2.762-6.624
			c0.051-2.853,0.907-4.576,3.067-6.125c1.824-1.274,5.523-2.812,12.892-2.812h27.149l-3.577-13.626h-26.263l-0.652,0.021v0.021
			c-10.344,0.295-18.538,2.425-24.336,6.338c-6.278,4.169-9.692,10.64-9.641,18.232c-0.051,6.849,2.201,12.525,6.665,16.867
			c4.423,4.311,11.016,7.786,21.381,11.251c9.162,3.037,12.719,5.167,14.084,6.42l1.274,1.763c0.183,0.56,0.265,1.335,0.255,2.629
			v0.163c-0.01,1.203-0.194,2.151-0.54,2.752c-0.377,0.642-1.07,1.325-3.516,1.906c-2.283,0.53-5.86,0.785-10.955,0.785h-33.957
			l5.421,20.657h32.815l0.642-0.021v-0.021c10.955-0.244,18.66-1.946,24.204-5.361c6.43-3.893,9.814-10.547,9.773-19.21V76.535"/>
	</defs>
	<clipPath id="SVGID_00000016073038091845835040000018264706477916498335_">
		<use xlink:href="#SVGID_00000144330204436756043240000000131862440133824136_"  overflow="visible"/>
	</clipPath>
	<g clip-path="url(#SVGID_00000016073038091845835040000018264706477916498335_)">
		<defs>
			<path id="SVGID_00000159457173849954536530000014978775741054491054_" d="M476.769,101.728L450.975,3.526
				c-0.499-1.926-2.558-3.516-4.566-3.516h-43.302l-25.029,41.549l15.796,60.169c0.509,1.926,2.568,3.516,4.576,3.516h75.597
				C476.056,105.244,477.268,103.654,476.769,101.728 M394.007,0.011l-18.701,31.022l-7.215-27.506
				c-0.51-1.926,0.713-3.516,2.711-3.516H394.007"/>
		</defs>
		<clipPath id="SVGID_00000141437162081900002190000014621475576556913054_">
			<use xlink:href="#SVGID_00000159457173849954536530000014978775741054491054_"  overflow="visible"/>
		</clipPath>
		<g clip-path="url(#SVGID_00000141437162081900002190000014621475576556913054_)">
			<defs>
				
					<rect id="SVGID_00000183937096999245926160000014337170930828220862_" x="-3491.801" y="-9265.362" width="10515.259" height="14877.346"/>
			</defs>
			<clipPath id="SVGID_00000069386735985869412510000014028829659856791466_">
				<use xlink:href="#SVGID_00000183937096999245926160000014337170930828220862_"  overflow="visible"/>
			</clipPath>
			<g clip-path="url(#SVGID_00000069386735985869412510000014028829659856791466_)">
				<defs>
					
						<rect id="SVGID_00000143598807243655997300000007820989968794246274_" x="-3491.801" y="-9265.26" width="10515.359" height="14877.243"/>
				</defs>
				<clipPath id="SVGID_00000120559429216708709270000009700593407013753992_">
					<use xlink:href="#SVGID_00000143598807243655997300000007820989968794246274_"  overflow="visible"/>
				</clipPath>
				
					<linearGradient id="SVGID_00000171690923589976367930000010779430921238051969_" gradientUnits="userSpaceOnUse" x1="-13.2259" y1="806.582" x2="-3.0348" y2="806.582" gradientTransform="matrix(7.1491 0 0 -7.1491 482.0991 3939.6978)">
					<stop  offset="0" style="stop-color:#E62D4C"/>
					<stop  offset="0.1774" style="stop-color:#CA345A"/>
					<stop  offset="0.5613" style="stop-color:#83477E"/>
					<stop  offset="1" style="stop-color:#2A5EAB"/>
				</linearGradient>
				
					<rect x="-3491.801" y="-9265.259" clip-path="url(#SVGID_00000120559429216708709270000009700593407013753992_)" fill="url(#SVGID_00000171690923589976367930000010779430921238051969_)" width="10515.359" height="14877.242"/>
			</g>
		</g>
	</g>
</g>
<g>
	<defs>
		<path id="SVGID_00000095325174035200344250000016589750735740151457_" d="M476.769,101.728L450.975,3.526
			c-0.499-1.926-2.558-3.516-4.566-3.516h-43.302l-25.029,41.549l15.796,60.169c0.509,1.926,2.568,3.516,4.576,3.516h75.597
			C476.056,105.244,477.268,103.654,476.769,101.728 M394.007,0.011l-18.701,31.022l-7.215-27.506
			c-0.51-1.926,0.713-3.516,2.711-3.516H394.007"/>
	</defs>
	<clipPath id="SVGID_00000041262952372672053450000017783022345966995858_">
		<use xlink:href="#SVGID_00000095325174035200344250000016589750735740151457_"  overflow="visible"/>
	</clipPath>
	<g clip-path="url(#SVGID_00000041262952372672053450000017783022345966995858_)">
		<defs>
			
				<rect id="SVGID_00000140698907486643809430000010989170655907650475_" x="-3491.801" y="-9265.362" width="10515.259" height="14877.346"/>
		</defs>
		<clipPath id="SVGID_00000034802083828396557160000015656767889239142309_">
			<use xlink:href="#SVGID_00000140698907486643809430000010989170655907650475_"  overflow="visible"/>
		</clipPath>
		<g clip-path="url(#SVGID_00000034802083828396557160000015656767889239142309_)">
			<defs>
				
					<rect id="SVGID_00000129887725752510859890000017684070535538794152_" x="-3491.801" y="-9265.26" width="10515.359" height="14877.243"/>
			</defs>
			<clipPath id="SVGID_00000155121079942510139070000015843345171424673448_">
				<use xlink:href="#SVGID_00000129887725752510859890000017684070535538794152_"  overflow="visible"/>
			</clipPath>
			<path clip-path="url(#SVGID_00000155121079942510139070000015843345171424673448_)" fill="#FDFFFF" d="M430.858,48.296
				c-16.744-5.584-20.015-10.374-20.026-16.754c0-2.904,0.938-5.31,2.772-7.154c2.996-3.007,8.357-4.525,15.929-4.525h26.436
				l-2.14-8.163h-24.255l-0.316,0.01l-0.489-0.01c-11.047,0-19.598,1.987-25.396,5.921c-5.523,3.73-8.428,9.253-8.428,15.959
				c0,12.25,7.103,19.169,26.181,25.529c16.744,5.584,17.508,8.469,17.488,13.523c-0.041,6.533-3.74,8.224-17.957,8.224h-33.029
				l3.985,15.175h30.797l0.367-0.01l0.428,0.01c23.623,0,33.732-6.542,33.824-21.88C457.1,61.84,449.762,54.594,430.858,48.296"/>
		</g>
	</g>
</g>
<g>
	<defs>
		<path id="SVGID_00000018195150757720165160000009822879758946844551_" d="M539.118,14.91h-74.181l1.824,6.879h41.386
			l-13.248,10.283l-10.986,62.237c-0.346,2.028,0.999,3.648,3.006,3.648h11.995c2.008,0,3.924-1.62,4.28-3.648l12.148-68.871
			c0.346-2.018,2.273-3.649,4.28-3.649h18.273c1.009,0,1.967-0.815,2.15-1.824l0.571-3.231
			C540.789,15.725,540.117,14.92,539.118,14.91"/>
	</defs>
	<clipPath id="SVGID_00000042710250286772406390000010616949597664903812_">
		<use xlink:href="#SVGID_00000018195150757720165160000009822879758946844551_"  overflow="visible"/>
	</clipPath>
	<g clip-path="url(#SVGID_00000042710250286772406390000010616949597664903812_)">
		<defs>
			
				<rect id="SVGID_00000085937297572677759260000001648477764260615855_" x="-3491.801" y="-9265.362" width="10515.259" height="14877.346"/>
		</defs>
		<clipPath id="SVGID_00000170984675063413414950000005978266632372067478_">
			<use xlink:href="#SVGID_00000085937297572677759260000001648477764260615855_"  overflow="visible"/>
		</clipPath>
		<g clip-path="url(#SVGID_00000170984675063413414950000005978266632372067478_)">
			<defs>
				
					<rect id="SVGID_00000096045894626661628930000006071073430798914181_" x="-3491.801" y="-9265.26" width="10515.359" height="14877.243"/>
			</defs>
			<clipPath id="SVGID_00000119809597381417813960000003683240378175838085_">
				<use xlink:href="#SVGID_00000096045894626661628930000006071073430798914181_"  overflow="visible"/>
			</clipPath>
			
				<linearGradient id="SVGID_00000137116064745754762510000009577774559207639980_" gradientUnits="userSpaceOnUse" x1="-25.7218" y1="405.6927" x2="-15.5307" y2="405.6927" gradientTransform="matrix(0 -9.6119 -9.6119 0 5665.3569 -149.2785)">
				<stop  offset="0" style="stop-color:#1F4FA0"/>
				<stop  offset="0.1926" style="stop-color:#3175B7"/>
				<stop  offset="0.3975" style="stop-color:#4196CB"/>
				<stop  offset="0.5938" style="stop-color:#4DAED9"/>
				<stop  offset="0.776" style="stop-color:#54BCE2"/>
				<stop  offset="0.9303" style="stop-color:#56C1E5"/>
				<stop  offset="1" style="stop-color:#56C1E5"/>
			</linearGradient>
			
				<rect x="-3491.801" y="-9265.26" clip-path="url(#SVGID_00000119809597381417813960000003683240378175838085_)" fill="url(#SVGID_00000137116064745754762510000009577774559207639980_)" width="10515.358" height="14877.244"/>
		</g>
	</g>
</g>
<g>
	<defs>
		<path id="SVGID_00000106132270476180620250000013793117738831490970_" d="M580.402,63.919v-0.011l-0.173-1.09l1.794-1.783
			l0.01-0.021c12.474-1.967,21.055-10.568,23.093-22.287c0.296-1.651,0.428-3.2,0.438-4.678c0.061-6.654-2.741-11.556-7.123-14.655
			c-4.382-3.098-10.242-4.484-16.459-4.484H552.59c-2.008,0-3.934,1.631-4.28,3.649l-13.361,75.75
			c-0.357,2.028,0.988,3.648,2.996,3.648h11.985c2.018,0,3.934-1.62,4.29-3.648l3.047-17.253l2.619-14.93h0.01l1.213-6.879
			l5.575-31.633c0.173-1.009,1.141-1.824,2.14-1.824h2.741c8.357,0.102,14.135,4.056,14.155,12.831
			c-0.01,1.172-0.122,2.446-0.367,3.801c-1.967,11.037-9.824,16.305-18.772,16.774l-2.619,14.879
			c5.779,9.804,11.261,19.108,15.715,26.619l0.041,0.021c0.53,0.754,1.406,1.243,2.497,1.243h14.624c1.009,0,1.967-0.815,2.15-1.824
			l-0.092-0.897C593.702,86.482,587.159,75.384,580.402,63.919"/>
	</defs>
	<clipPath id="SVGID_00000076593962585216241010000003938492953413777055_">
		<use xlink:href="#SVGID_00000106132270476180620250000013793117738831490970_"  overflow="visible"/>
	</clipPath>
	<g clip-path="url(#SVGID_00000076593962585216241010000003938492953413777055_)">
		<defs>
			
				<rect id="SVGID_00000006678537822145756350000010540199926426972856_" x="-3491.801" y="-9265.362" width="10515.259" height="14877.346"/>
		</defs>
		<clipPath id="SVGID_00000124124673929482258690000009445574631507943591_">
			<use xlink:href="#SVGID_00000006678537822145756350000010540199926426972856_"  overflow="visible"/>
		</clipPath>
		<g clip-path="url(#SVGID_00000124124673929482258690000009445574631507943591_)">
			<defs>
				
					<rect id="SVGID_00000070110561123250279980000015439053957408738220_" x="-3491.801" y="-9265.26" width="10515.359" height="14877.243"/>
			</defs>
			<clipPath id="SVGID_00000143597026711199243890000016223480818058110082_">
				<use xlink:href="#SVGID_00000070110561123250279980000015439053957408738220_"  overflow="visible"/>
			</clipPath>
			
				<linearGradient id="SVGID_00000052070261252675194760000015073786039380490887_" gradientUnits="userSpaceOnUse" x1="-25.7218" y1="406.3813" x2="-15.5307" y2="406.3813" gradientTransform="matrix(0 -9.6119 -9.6119 0 5671.9746 -149.2785)">
				<stop  offset="0" style="stop-color:#1F4FA0"/>
				<stop  offset="0.1926" style="stop-color:#3175B7"/>
				<stop  offset="0.3975" style="stop-color:#4196CB"/>
				<stop  offset="0.5938" style="stop-color:#4DAED9"/>
				<stop  offset="0.776" style="stop-color:#54BCE2"/>
				<stop  offset="0.9303" style="stop-color:#56C1E5"/>
				<stop  offset="1" style="stop-color:#56C1E5"/>
			</linearGradient>
			
				<rect x="-3491.801" y="-9265.26" clip-path="url(#SVGID_00000143597026711199243890000016223480818058110082_)" fill="url(#SVGID_00000052070261252675194760000015073786039380490887_)" width="10515.358" height="14877.244"/>
		</g>
	</g>
</g>
<g>
	<defs>
		<path id="SVGID_00000063604478353985100700000003313176048362111928_" d="M644.117,14.828l-2.752,2.14L621.503,32.53
			l-10.905,61.778c-0.346,2.028,0.999,3.648,3.006,3.648h12.209c2.008,0,3.934-1.62,4.291-3.648L644.117,14.828"/>
	</defs>
	<clipPath id="SVGID_00000116236212467633685270000015953358001175086749_">
		<use xlink:href="#SVGID_00000063604478353985100700000003313176048362111928_"  overflow="visible"/>
	</clipPath>
	<g clip-path="url(#SVGID_00000116236212467633685270000015953358001175086749_)">
		<defs>
			
				<rect id="SVGID_00000090282950069633666060000003376854095984790421_" x="-3491.801" y="-9265.362" width="10515.259" height="14877.346"/>
		</defs>
		<clipPath id="SVGID_00000057852913781130133310000007956805553993087409_">
			<use xlink:href="#SVGID_00000090282950069633666060000003376854095984790421_"  overflow="visible"/>
		</clipPath>
		<g clip-path="url(#SVGID_00000057852913781130133310000007956805553993087409_)">
			<defs>
				
					<rect id="SVGID_00000107577762176320239390000008649587138330391988_" x="-3491.801" y="-9265.26" width="10515.359" height="14877.243"/>
			</defs>
			<clipPath id="SVGID_00000084522721199484054660000002724095729902344621_">
				<use xlink:href="#SVGID_00000107577762176320239390000008649587138330391988_"  overflow="visible"/>
			</clipPath>
			
				<linearGradient id="SVGID_00000159460669781869465420000001042259358694496150_" gradientUnits="userSpaceOnUse" x1="-25.7218" y1="406.9642" x2="-15.5307" y2="406.9642" gradientTransform="matrix(0 -9.6119 -9.6119 0 5677.5776 -149.2785)">
				<stop  offset="0" style="stop-color:#1F4FA0"/>
				<stop  offset="0.1926" style="stop-color:#3175B7"/>
				<stop  offset="0.3975" style="stop-color:#4196CB"/>
				<stop  offset="0.5938" style="stop-color:#4DAED9"/>
				<stop  offset="0.776" style="stop-color:#54BCE2"/>
				<stop  offset="0.9303" style="stop-color:#56C1E5"/>
				<stop  offset="1" style="stop-color:#56C1E5"/>
			</linearGradient>
			
				<rect x="-3491.801" y="-9265.26" clip-path="url(#SVGID_00000084522721199484054660000002724095729902344621_)" fill="url(#SVGID_00000159460669781869465420000001042259358694496150_)" width="10515.358" height="14877.244"/>
		</g>
	</g>
</g>
<g>
	<defs>
		<path id="SVGID_00000001635974030255797010000003531512128637864843_" d="M716.147,35.098c0.051-6.726-2.721-11.872-7.062-15.215
			c-4.352-3.353-10.212-4.974-16.449-4.974h-29.279c-2.018,0-3.934,1.631-4.28,3.649l-13.361,75.75
			c-0.356,2.028,0.978,3.648,2.996,3.648h11.985c2.018,0,3.934-1.62,4.291-3.648l1.804-10.212l1.692-9.631l0.051-0.254l1.733-9.896
			h0.01l1.213-6.869l5.962-33.834c0.184-1.009,1.141-1.824,2.14-1.824h2.742c8.234,0.072,13.962,4.831,13.972,13.819
			c-0.01,1.213-0.133,2.527-0.367,3.903c-1.977,11.067-10.079,17.345-18.976,17.875l-1.223,6.94h8.499
			c13.819,0.021,28.555-8.03,31.46-24.499C715.984,38.176,716.137,36.586,716.147,35.098"/>
	</defs>
	<clipPath id="SVGID_00000137131015012535927980000010250058330398970757_">
		<use xlink:href="#SVGID_00000001635974030255797010000003531512128637864843_"  overflow="visible"/>
	</clipPath>
	<g clip-path="url(#SVGID_00000137131015012535927980000010250058330398970757_)">
		<defs>
			
				<rect id="SVGID_00000094610995070520254550000002775964002841362094_" x="-3491.801" y="-9265.362" width="10515.259" height="14877.346"/>
		</defs>
		<clipPath id="SVGID_00000165196526098878439060000017663849904049849023_">
			<use xlink:href="#SVGID_00000094610995070520254550000002775964002841362094_"  overflow="visible"/>
		</clipPath>
		<g clip-path="url(#SVGID_00000165196526098878439060000017663849904049849023_)">
			<defs>
				
					<rect id="SVGID_00000075875421965931763800000013993186060801312418_" x="-3491.801" y="-9265.26" width="10515.359" height="14877.243"/>
			</defs>
			<clipPath id="SVGID_00000096745052471521349580000013620016981117172651_">
				<use xlink:href="#SVGID_00000075875421965931763800000013993186060801312418_"  overflow="visible"/>
			</clipPath>
			
				<linearGradient id="SVGID_00000079452372402644212860000015706152815502552963_" gradientUnits="userSpaceOnUse" x1="-25.7218" y1="407.511" x2="-15.5307" y2="407.511" gradientTransform="matrix(0 -9.6119 -9.6119 0 5682.8335 -149.2785)">
				<stop  offset="0" style="stop-color:#1F4FA0"/>
				<stop  offset="0.1926" style="stop-color:#3175B7"/>
				<stop  offset="0.3975" style="stop-color:#4196CB"/>
				<stop  offset="0.5938" style="stop-color:#4DAED9"/>
				<stop  offset="0.776" style="stop-color:#54BCE2"/>
				<stop  offset="0.9303" style="stop-color:#56C1E5"/>
				<stop  offset="1" style="stop-color:#56C1E5"/>
			</linearGradient>
			
				<rect x="-3491.801" y="-9265.26" clip-path="url(#SVGID_00000096745052471521349580000013620016981117172651_)" fill="url(#SVGID_00000079452372402644212860000015706152815502552963_)" width="10515.358" height="14877.244"/>
		</g>
	</g>
</g>
<g>
	<defs>
		<path id="SVGID_00000099638630464356421760000006000886523805710527_" d="M622.97,24.184l2.752-2.13l19.832-15.378l0.52-3.017
			C646.44,1.641,645.085,0,643.077,0h-12.199c-2.028,0-3.944,1.641-4.29,3.659l-1.987,11.251L622.97,24.184"/>
	</defs>
	<clipPath id="SVGID_00000025409772422346785740000013701430110482845869_">
		<use xlink:href="#SVGID_00000099638630464356421760000006000886523805710527_"  overflow="visible"/>
	</clipPath>
	<g clip-path="url(#SVGID_00000025409772422346785740000013701430110482845869_)">
		<defs>
			
				<rect id="SVGID_00000066474815981827111060000003056165658088167060_" x="-3491.801" y="-9265.362" width="10515.259" height="14877.346"/>
		</defs>
		<clipPath id="SVGID_00000113341664312561345030000011241210939439007927_">
			<use xlink:href="#SVGID_00000066474815981827111060000003056165658088167060_"  overflow="visible"/>
		</clipPath>
		<g clip-path="url(#SVGID_00000113341664312561345030000011241210939439007927_)">
			<defs>
				
					<rect id="SVGID_00000183249867276119362620000015841376439916851869_" x="-3491.801" y="-9265.26" width="10515.359" height="14877.243"/>
			</defs>
			<clipPath id="SVGID_00000053544430214869970440000010433483814111732874_">
				<use xlink:href="#SVGID_00000183249867276119362620000015841376439916851869_"  overflow="visible"/>
			</clipPath>
			
				<linearGradient id="SVGID_00000116237854709597213740000002582832831702764473_" gradientUnits="userSpaceOnUse" x1="-25.7218" y1="407.038" x2="-15.5307" y2="407.038" gradientTransform="matrix(0 -9.6119 -9.6119 0 5678.2866 -149.2785)">
				<stop  offset="0" style="stop-color:#1F4FA0"/>
				<stop  offset="0.1926" style="stop-color:#3175B7"/>
				<stop  offset="0.3975" style="stop-color:#4196CB"/>
				<stop  offset="0.5938" style="stop-color:#4DAED9"/>
				<stop  offset="0.776" style="stop-color:#54BCE2"/>
				<stop  offset="0.9303" style="stop-color:#56C1E5"/>
				<stop  offset="1" style="stop-color:#56C1E5"/>
			</linearGradient>
			
				<rect x="-3491.801" y="-9265.26" clip-path="url(#SVGID_00000053544430214869970440000010433483814111732874_)" fill="url(#SVGID_00000116237854709597213740000002582832831702764473_)" width="10515.358" height="14877.244"/>
		</g>
	</g>
</g>
<g>
	<defs>
		<polyline id="SVGID_00000114761630250225032160000004975251886028847024_" points="35.546,111.073 21.564,134.278 699.24,134.278 
			703.327,111.073 35.546,111.073 		"/>
	</defs>
	<clipPath id="SVGID_00000031206033536832568810000001602740819716220590_">
		<use xlink:href="#SVGID_00000114761630250225032160000004975251886028847024_"  overflow="visible"/>
	</clipPath>
	<g clip-path="url(#SVGID_00000031206033536832568810000001602740819716220590_)">
		<defs>
			
				<rect id="SVGID_00000130605943536790402940000007482894797876306840_" x="-3491.801" y="-9265.362" width="10515.259" height="14877.346"/>
		</defs>
		<clipPath id="SVGID_00000165194115099976067340000007086325112696412084_">
			<use xlink:href="#SVGID_00000130605943536790402940000007482894797876306840_"  overflow="visible"/>
		</clipPath>
		<g clip-path="url(#SVGID_00000165194115099976067340000007086325112696412084_)">
			<defs>
				
					<rect id="SVGID_00000150807318443997681770000002047360168517490598_" x="-3491.801" y="-9265.26" width="10515.359" height="14877.243"/>
			</defs>
			<clipPath id="SVGID_00000069393680179917265930000014590264087537240968_">
				<use xlink:href="#SVGID_00000150807318443997681770000002047360168517490598_"  overflow="visible"/>
			</clipPath>
			
				<linearGradient id="SVGID_00000110462948336588215950000008365018954584184761_" gradientUnits="userSpaceOnUse" x1="-21.0808" y1="577.8272" x2="-10.8898" y2="577.8272" gradientTransform="matrix(66.898 0 0 -66.898 1431.8293 36828.8477)">
				<stop  offset="0" style="stop-color:#E62B4C"/>
				<stop  offset="0.0093" style="stop-color:#D32745"/>
				<stop  offset="0.0351" style="stop-color:#A31E35"/>
				<stop  offset="0.0624" style="stop-color:#781627"/>
				<stop  offset="0.0907" style="stop-color:#540F1B"/>
				<stop  offset="0.1203" style="stop-color:#370A11"/>
				<stop  offset="0.1517" style="stop-color:#20050A"/>
				<stop  offset="0.1855" style="stop-color:#100204"/>
				<stop  offset="0.2238" style="stop-color:#070101"/>
				<stop  offset="0.2758" style="stop-color:#040000"/>
				<stop  offset="0.7788" style="stop-color:#001726"/>
				<stop  offset="0.8115" style="stop-color:#021A2B"/>
				<stop  offset="0.8517" style="stop-color:#06223A"/>
				<stop  offset="0.8958" style="stop-color:#0E2F53"/>
				<stop  offset="0.9427" style="stop-color:#184276"/>
				<stop  offset="0.9913" style="stop-color:#2559A2"/>
				<stop  offset="1" style="stop-color:#285EAB"/>
			</linearGradient>
			
				<rect x="-3491.801" y="-9265.26" clip-path="url(#SVGID_00000069393680179917265930000014590264087537240968_)" fill="url(#SVGID_00000110462948336588215950000008365018954584184761_)" width="10515.358" height="14877.243"/>
		</g>
	</g>
</g>
<polyline fill="#FDFFFF" points="166.247,130.293 168.682,116.464 164.209,116.464 164.443,115.129 178.364,115.129 178.13,116.464 
	173.768,116.464 171.332,130.293 166.247,130.293 "/>
<polyline fill="#FDFFFF" points="207.888,130.293 209.263,122.467 202.609,122.467 201.233,130.293 196.321,130.293 
	198.991,115.129 203.903,115.129 202.853,121.132 209.498,121.132 210.558,115.129 212.076,115.129 209.406,130.293 
	207.888,130.293 "/>
<polyline fill="#FDFFFF" points="236.025,130.742 230.909,128.867 233.324,115.129 245.238,115.129 245.003,116.465 
	237.808,116.465 237.064,120.663 243.23,120.663 243.006,121.968 236.84,121.968 236.025,126.574 239.683,128.082 243.373,126.87 
	243.118,128.317 236.025,130.742 "/>
<path fill="#FDFFFF" d="M295.867,130.293l-0.418-5.096h-4.902l-2.599,5.096h-1.559l2.568-5.096h-0.897l0.234-1.325h1.335
	l4.678-9.253l5.249,2.201l1.274,13.472H295.867 M294.991,119.735l-1.376-0.54l-2.395,4.678h4.107L294.991,119.735z"/>
<polyline fill="#FDFFFF" points="324.473,120.989 322.832,130.293 321.294,130.293 323.964,115.129 325.594,115.129 333.91,123.108 
	335.317,115.129 336.835,115.129 334.073,130.772 324.473,120.989 "/>
<polyline fill="#FDFFFF" points="355.495,130.293 358.165,115.129 363.281,115.129 360.611,130.293 355.495,130.293 "/>
<polyline fill="#FDFFFF" points="393.161,130.293 393.905,120.449 393.61,120.204 388.453,127.787 385.763,119.634 382.766,130.293 
	381.238,130.293 385.62,114.63 389.064,124.505 395.719,114.63 399.316,116.78 398.45,130.293 393.161,130.293 "/>
<path fill="#FDFFFF" d="M427.76,130.293l-0.418-5.096h-4.902l-2.598,5.096h-1.559l2.568-5.096h-0.907l0.234-1.325h1.345l4.668-9.253
	l5.259,2.201l1.264,13.472H427.76 M426.873,119.735l-1.376-0.54l-2.385,4.678h4.107L426.873,119.735z"/>
<polyline fill="#FDFFFF" points="457.08,130.293 459.515,116.464 455.031,116.464 455.276,115.129 469.187,115.129 468.962,116.464 
	464.591,116.464 462.155,130.293 457.08,130.293 "/>
<polyline fill="#FDFFFF" points="487.245,130.293 489.925,115.129 495.041,115.129 492.361,130.293 487.245,130.293 "/>
<path fill="#FDFFFF" d="M519.276,130.691l-5.401-1.529l2.477-14.033h14.257l-2.12,12.005L519.276,130.691 M528.845,116.515h-8.041
	l-1.733,9.865l3.964,1.376l4.107-1.579L528.845,116.515z"/>
<polyline fill="#FDFFFF" points="552.325,120.989 550.695,130.293 549.156,130.293 551.826,115.129 553.446,115.129 
	561.762,123.108 563.169,115.129 564.687,115.129 561.936,130.772 552.325,120.989 "/>
</svg>
