<svg xmlns="http://www.w3.org/2000/svg" viewBox="0 0 720 132.167" xmlns:v="https://vecta.io/nano"><g fill="#e85298"><path d="M49.331 95.516c-.685 1.995-2.534 3.356-4.642 3.417H19.054l-1.743 5.282h25.458c5.187 0 3.866 4.969-1.361 4.969H13.226c-3.009 0-5.01-2.056-4.438-4.887l1.457-7.324a4.67 4.67 0 0 1 4.724-3.526h26.18l1.715-5.663H14.411c-1.892 0-2.941-1.184-2.342-3.077.846-2.354 1.814-4.662 2.9-6.916.693-.993 1.855-1.55 3.063-1.47h30.972c3.009 0 5.01 3.826 4.084 6.657l-3.757 12.539zm-.218-44.599h5.514l-1.361 5.037h-5.8l1.647-5.037zm-.218 20.72l9.639-35.819a3.42 3.42 0 0 1 1.252-1.675 2.99 2.99 0 0 1 1.811-.653h9.189a1.36 1.36 0 0 1 1.076.504c.281.335.431.761.422 1.198-.003.212-.035.423-.095.626L56.71 71.637c-.439 1.354-1.695 2.275-3.118 2.287h-3.227c-.412.001-.802-.184-1.062-.504-.287-.333-.442-.759-.436-1.198-.016-.195-.007-.392.027-.585zm-6.194-35.982a2.53 2.53 0 0 1 2.219-2.382h7.923c.385.026.742.214.98.517.301.341.462.784.449 1.239a2.22 2.22 0 0 1-.109.626l-9.938 31.394c-.156.621-.46 1.195-.885 1.675-.323.436-.82.709-1.361.749h-3.404c-.926 0-1.511-.653-1.361-1.797-.014-.191 5.486-32.02 5.486-32.02zM14.234 72.481c-12.879 0-16.16-7.066-13.246-18.719 2.859-11.409 9.897-20.571 22.899-20.571s15.343 9.258 12.511 20.571c-2.927 11.654-9.176 18.719-22.164 18.719zm8.168-33.545c-5.255 0-6.576 7.025-8.522 14.826-1.838 7.501-3.717 12.716 1.852 12.716 5.01 0 5.854-5.173 7.746-12.716 1.947-7.801 4.302-14.826-1.021-14.826h-.054zM76.014 75.19a3.95 3.95 0 0 1-4.286-3.579c-.037-.406-.01-.815.079-1.213l2.233-10.17c.535-2.028 2.316-3.48 4.411-3.594h18.91l1.852-6.371H76.94c-1.035 0-1.879-1.743-1.035-4.084.517-1.361 2.995-8.25 4.275-11.027.711-1.392 2.245-2.159 3.785-1.892h24.26c2.832 0 3.989 3.853 3.104 6.685l-6.249 19.169a4.9 4.9 0 0 1-4.343 3.512H82.399l-2.083 6.222h24.505c2.328 0 2.137 1.484 1.824 3.022s-.939 3.322-3.417 3.322H76.013zm30.959 12.811l13.954-51.243a5.02 5.02 0 0 1 1.797-2.451c.752-.599 1.68-.933 2.641-.953h13.41c.613-.017 1.198.255 1.579.735.396.494.608 1.11.599 1.743-.001.313-.047.625-.136.926l-22.504 51.243a4.79 4.79 0 0 1-4.52 3.335h-4.779c-.602.005-1.174-.266-1.552-.735a2.64 2.64 0 0 1-.626-1.743c.005-.291.051-.579.136-.858zm130.246-12.715c-.422-.572 0-2.165.123-2.519l5.078-22.504h-18.461c-2.723 0-4.533-1.661-3.649-4.561.653-2.151 2.723-7.352 3.757-10.156a3.92 3.92 0 0 1 4.084-2.246h20.693c2.302-.051 4.483 1.027 5.84 2.886a6.36 6.36 0 0 1 .667 5.922l-11.041 31.19c-.912 2.342-1.675 2.559-3.771 2.655s-2.913-.123-3.322-.667zm12.538 12.715l13.954-51.243a5.02 5.02 0 0 1 1.797-2.451 4.4 4.4 0 0 1 2.641-.967h13.41c.615-.034 1.21.223 1.606.694.396.494.608 1.11.599 1.743a3.38 3.38 0 0 1-.136.926l-22.531 51.298a4.79 4.79 0 0 1-4.52 3.335h-4.724a1.92 1.92 0 0 1-1.552-.749 2.57 2.57 0 0 1-.626-1.729c-.012-.288.015-.577.082-.858zm78.063-31.843h-4.969c-2.219 0-1.906-1.92-1.743-3.376.193-1.886 1.659-3.392 3.54-3.635h5.133m-10.619 38.759l13.954-51.311a4.96 4.96 0 0 1 1.797-2.451c.748-.608 1.678-.948 2.641-.967h13.41a1.92 1.92 0 0 1 1.579.749c.396.494.608 1.11.599 1.743a2.91 2.91 0 0 1-.136.926l-22.504 51.311c-.642 1.958-2.46 3.288-4.52 3.308h-4.779c-.606.005-1.179-.271-1.552-.749a2.58 2.58 0 0 1-.626-1.743c.008-.277.054-.552.136-.817h0zm-22.3-13.492c-12.947 0-15.493-8.999-12.579-20.653 2.859-11.409 9.87-20.571 22.899-20.571s15.343 9.258 12.511 20.571c-2.927 11.654-9.897 20.653-22.831 20.653h0zm8.89-35.478c-5.078.123-6.589 7.025-8.536 14.826-1.892 7.542-4.248 14.649 1.144 14.649 5.173 0 6.548-7.107 8.441-14.649 1.947-7.801 4.288-14.962-1.048-14.826h0zM436.42 50.78h3.594c2.859 0 2.192 1.47 1.92 3.009s-1.171 4.084-3.717 4.084h-4.86l.204-.585m-24.669 30.618l13.954-51.311a4.96 4.96 0 0 1 1.797-2.451 4.26 4.26 0 0 1 2.641-.967h13.41a1.89 1.89 0 0 1 1.566.749c.407.488.625 1.107.613 1.743 0 .315-.05.627-.15.926l-22.491 51.311c-.643 1.962-2.469 3.294-4.533 3.308h-4.779c-.602.008-1.173-.27-1.538-.749-.597-.721-.782-1.698-.49-2.587v.027zm-17.399-13.492c-12.947 0-15.493-8.999-12.566-20.653 2.859-11.409 9.87-20.571 22.899-20.571s15.329 9.258 12.498 20.571c-2.913 11.654-9.884 20.653-22.831 20.653zm8.89-35.478c-5.064.123-6.576 7.025-8.536 14.826-1.892 7.542-4.234 14.649 1.144 14.649s6.548-7.107 8.441-14.649c1.96-7.801 4.261-14.962-1.048-14.826zm76.906 49.065l13.954-51.243a5.02 5.02 0 0 1 1.797-2.451 4.4 4.4 0 0 1 2.641-.967h13.478a1.96 1.96 0 0 1 1.579.749c.396.494.608 1.11.599 1.743a3.38 3.38 0 0 1-.136.926l-22.572 51.243a4.79 4.79 0 0 1-4.52 3.335h-4.779a1.92 1.92 0 0 1-1.552-.749 2.57 2.57 0 0 1-.626-1.729c.005-.291.051-.579.136-.858zm-18.774-13.614c-12.947 0-15.493-8.999-12.566-20.653 2.859-11.409 9.87-20.571 22.899-20.571s15.329 9.258 12.498 20.571c-2.913 11.681-9.884 20.68-22.831 20.68v-.027zm8.89-35.478c-5.064.123-6.576 7.025-8.536 14.826-1.892 7.542-4.234 14.649 1.157 14.649 5.173 0 6.535-7.107 8.427-14.649 1.96-7.774 4.302-14.935-1.048-14.798v-.027zm75.953 49.092l13.954-51.243a5.02 5.02 0 0 1 1.797-2.451 4.35 4.35 0 0 1 2.641-.967h13.41c.611-.012 1.191.266 1.566.749.401.492.618 1.108.613 1.743a2.93 2.93 0 0 1-.109.926l-22.531 51.243a4.79 4.79 0 0 1-4.533 3.335h-4.779c-.602.008-1.173-.27-1.538-.749a2.57 2.57 0 0 1-.626-1.729 2.75 2.75 0 0 1 .136-.858zM207.826 53.694l1.375 5.078 5.105.83-4.561 3.921-.177 5.582-4.193-2.655-5.214 2.601 1.974-5.555-3.049-3.962 5.418-.789 3.322-5.051zm156.044 0l1.389 5.078 5.092.83-4.561 3.921-.177 5.582-4.193-2.655-5.215 2.601 1.975-5.555-3.05-3.962 5.418-.789 3.322-5.051zM133.411 86.49c-2.396 0-1.974-2.042-1.579-4.084s.79-4.084 3.186-4.084h50.753c2.437 0 2.015 2.056 1.606 4.084s-.776 4.084-3.227 4.084h-50.74zm42.871-51.352c.354.313 8.509 31.312 8.509 31.312.463 1.511.626 3.063-1.076 3.09-4.084.095-9.162.082-10.496.082a2.94 2.94 0 0 1-3.05-1.702l-7.215-20.203-16.963 20.353a4.95 4.95 0 0 1-2.519 1.606h-5.446c-.953 0-1.47-.504 0-2.464l23.484-31.653c.735-.545 1.675-1.879 3.335-2.042a58.85 58.85 0 0 1 8.25 0c1.269.01 2.461.608 3.227 1.62h-.041zM569.061 86.49c-2.396 0-1.974-2.042-1.579-4.084s.79-4.084 3.186-4.084h50.753c2.437 0 2.015 2.056 1.606 4.084s-.776 4.084-3.227 4.084h-50.74zm42.871-51.352c.354.313 8.509 31.312 8.509 31.312.463 1.511.626 3.063-1.076 3.09-4.084.095-9.162.082-10.496.082a2.94 2.94 0 0 1-3.05-1.702l-7.215-20.203-16.963 20.353a4.95 4.95 0 0 1-2.519 1.606h-5.514c-1.021 0-1.47-.504 0-2.464l23.484-31.653c.735-.545 1.675-1.879 3.335-2.042a58.85 58.85 0 0 1 8.25 0c1.293-.012 2.515.589 3.295 1.62h-.041zm-80.99 40.148c-.422-.572 0-2.165.109-2.519l5.092-22.504h-18.529c-2.723 0-4.533-1.661-3.649-4.561.64-2.151 2.723-7.352 3.744-10.156.724-1.561 2.378-2.471 4.084-2.246h20.693a7.05 7.05 0 0 1 5.84 2.886c1.187 1.743 1.431 3.962.653 5.922l-11.041 31.19c-.899 2.342-1.661 2.559-3.771 2.655s-2.886-.123-3.227-.667zM208.139 13.682h-2.845V5.446h-9.952a1.36 1.36 0 0 0-1.402 1.375V9.53a1.36 1.36 0 0 0 1.402 1.375h7.107v2.723h-7.107c-1.122.015-2.204-.416-3.009-1.198a3.9 3.9 0 0 1-1.239-2.9V6.807a3.85 3.85 0 0 1 1.239-2.886c.805-.782 1.887-1.213 3.009-1.198h12.797v10.959zm5.936 0h-2.859V0h2.859v13.682zm5.895-12.321h-2.845V0h2.845v1.361zm0 12.253h-2.845V2.723h2.845v10.891z"/><path d="M240.064 13.682h-12.797c-1.122.015-2.204-.416-3.009-1.198a3.89 3.89 0 0 1-1.239-2.954V6.807a3.85 3.85 0 0 1 1.239-2.886c.805-.782 1.887-1.213 3.009-1.198h12.797v4.084h-2.845a1.24 1.24 0 0 0-1.103-1.361c-.086-.009-.173-.009-.259 0h-8.55c-.373-.006-.733.142-.994.408a1.36 1.36 0 0 0-.408.967V9.53a1.28 1.28 0 0 0 .408.967 1.36 1.36 0 0 0 .994.408h8.55a1.36 1.36 0 0 0 1.361-1.361h2.845v4.139zm20.135-2.791a3.92 3.92 0 0 1-1.538 2.028 4.33 4.33 0 0 1-2.478.762h-8.795c-1.122.015-2.204-.416-3.009-1.198a3.89 3.89 0 0 1-1.225-2.954V6.806a3.85 3.85 0 0 1 1.239-2.886c.805-.782 1.887-1.213 3.009-1.198h9.244a3.5 3.5 0 0 1 2.519 1.007c.672.62 1.048 1.496 1.035 2.41.014.914-.363 1.79-1.035 2.41-.671.657-1.579 1.016-2.519.994H246a1.36 1.36 0 0 0 1.402 1.375l12.797-.027zm-2.9-4.737c.049-.342-.19-.659-.532-.708a.65.65 0 0 0-.176 0h-9.244a1.36 1.36 0 0 0-1.402 1.375h10.646c.531-.014.708-.218.708-.667zm29.706 7.528a3.92 3.92 0 0 1-1.239 2.9c-.796.805-1.89 1.244-3.022 1.212h-12.797v-2.723h12.797a1.36 1.36 0 0 0 1.415-1.362v-.776a5.74 5.74 0 0 1-2.859.749h-7.093c-1.122.015-2.204-.416-3.009-1.198-.821-.76-1.277-1.836-1.252-2.954V6.807c-.011-1.096.445-2.145 1.252-2.886.805-.782 1.887-1.213 3.009-1.198h7.093c1.523-.038 2.996.541 4.084 1.606a5.13 5.13 0 0 1 1.62 3.839v5.514zm-2.845-5.445c.005-.732-.296-1.433-.83-1.933-.532-.544-1.268-.84-2.029-.817h-7.093a1.36 1.36 0 0 0-1.007.408 1.36 1.36 0 0 0-.408.967V9.53a1.28 1.28 0 0 0 .408.967 1.36 1.36 0 0 0 1.007.408h7.134a2.72 2.72 0 0 0 1.988-.79 2.64 2.64 0 0 0 .83-1.947v.068zm22.98 2.654a3.88 3.88 0 0 1-1.538 1.988 4.3 4.3 0 0 1-2.478.762h-8.781c-1.116.026-2.198-.39-3.009-1.157-.821-.76-1.277-1.836-1.252-2.954V6.807c-.007-1.091.448-2.135 1.252-2.873a4.24 4.24 0 0 1 3.009-1.212h9.244c.937-.018 1.841.346 2.505 1.007 1.331 1.241 1.404 3.326.163 4.656l-.163.163a3.44 3.44 0 0 1-2.505.98h-10.66a1.28 1.28 0 0 0 .408.967 1.36 1.36 0 0 0 1.007.408l12.797-.014zm-2.859-4.778c.033-.337-.213-.637-.549-.67-.048-.005-.097-.004-.145.003h-9.244a1.36 1.36 0 0 0-1.007.408 1.36 1.36 0 0 0-.408.967h10.66c.463-.014.694-.218.694-.667v-.041zm22.995 7.569h-2.859V5.446h-9.938a1.36 1.36 0 0 0-1.007.408c-.237.26-.363.602-.354.953V9.53a1.28 1.28 0 0 0 .408.967c.254.252.596.393.953.395h7.093v2.723h-7.093c-1.122.015-2.204-.416-3.009-1.198a3.9 3.9 0 0 1-1.252-2.886V6.808c-.011-1.096.445-2.145 1.252-2.886.805-.782 1.887-1.213 3.009-1.198h12.797v10.959zm16.65-5.514h-2.723a2.72 2.72 0 0 0-.858-1.879 2.57 2.57 0 0 0-1.906-.803v-.041h-5.446v8.305h-2.723V2.723h8.168a5.2 5.2 0 0 1 3.839 1.62 5.27 5.27 0 0 1 1.647 3.826zm25.553 5.514h-2.845V5.446h-9.952a1.36 1.36 0 0 0-1.007.408c-.237.26-.363.602-.354.953V9.53a1.28 1.28 0 0 0 .395.967 1.36 1.36 0 0 0 .967.395h7.107v2.723h-7.107c-1.122.015-2.204-.416-3.009-1.198-.804-.744-1.258-1.791-1.253-2.886V6.808c-.011-1.096.445-2.145 1.253-2.886.805-.782 1.887-1.213 3.009-1.198h12.797v10.959zm20.135-2.791a3.88 3.88 0 0 1-1.538 1.988c-.727.504-1.593.771-2.478.762h-8.781c-1.122.015-2.204-.416-3.009-1.198a3.9 3.9 0 0 1-1.252-2.913V6.807c-.011-1.096.445-2.145 1.253-2.886.805-.782 1.887-1.213 3.009-1.198h9.244c.941-.015 1.848.348 2.519 1.007a3.32 3.32 0 0 1 .123 4.696l-.123.123a3.5 3.5 0 0 1-2.519.994h-10.646a1.28 1.28 0 0 0 .395.967 1.36 1.36 0 0 0 1.007.408l12.797-.027zm-2.845-4.737c.049-.342-.19-.659-.532-.708a.65.65 0 0 0-.176 0h-9.244a1.36 1.36 0 0 0-1.402 1.375h10.646c.463-.014.708-.218.708-.667zm23.008 7.528a3.92 3.92 0 0 1-1.239 2.9c-.796.805-1.89 1.244-3.022 1.212h-12.797v-2.723h12.797a1.36 1.36 0 0 0 1.415-1.362v-.776a5.74 5.74 0 0 1-2.859.749h-7.093c-1.122.015-2.204-.416-3.009-1.198-.831-.755-1.298-1.831-1.28-2.954V6.807c-.011-1.096.445-2.145 1.253-2.886.805-.782 1.887-1.213 3.009-1.198h7.093c1.523-.038 2.996.541 4.084 1.606a5.13 5.13 0 0 1 1.647 3.839v5.514zm-2.845-5.445c.005-.732-.296-1.433-.83-1.933a2.72 2.72 0 0 0-2.028-.817h-7.093a1.36 1.36 0 0 0-1.402 1.375V9.53a1.28 1.28 0 0 0 .395.967 1.36 1.36 0 0 0 1.007.408h7.134a2.72 2.72 0 0 0 1.988-.79 2.64 2.64 0 0 0 .803-1.947l.027.068zm8.74-6.876h-2.845V0h2.845v1.361zm0 12.253h-2.845V2.723h2.845v10.891zm19.332-3.308c.01.906-.343 1.779-.98 2.423a3.16 3.16 0 0 1-2.355 1.021h-8.904c-.833 0-1.644-.267-2.314-.762-.699-.489-1.227-1.184-1.511-1.988h12.661a.6.6 0 0 0 .691-.49c.01-.058.011-.118.004-.177a.61.61 0 0 0-.502-.706.62.62 0 0 0-.192-.002h-9.53c-.9.013-1.765-.353-2.382-1.007-.648-.627-1.007-1.494-.994-2.396-.022-.919.338-1.806.994-2.451.617-.677 1.494-1.058 2.41-1.048h9.081a3.99 3.99 0 0 1 2.355.762 4.09 4.09 0 0 1 1.47 1.96H422.1c-.436 0-.667.231-.667.708a.6.6 0 0 0 .522.667c.048.006.097.006.145 0h9.53a3.2 3.2 0 0 1 2.355 1.007c.665.652 1.034 1.547 1.021 2.478z"/><ellipse cx="675.521" cy="63.807" rx="46.356" ry="41.251" transform="matrix(.786181 -.617997 .617997 .786181 105.007 431.113)"/></g><g fill="#fff"><path d="M657.036 63.469l7.733-23.525h21.783c1.243-.062 2.322-.877 2.723-2.056l.395-1.184a1.36 1.36 0 0 0-.634-1.818c-.226-.109-.478-.154-.728-.129H657.69c-5.12.253-9.572 3.595-11.245 8.441l-5.446 16.636c-1.525 4.642 1.157 8.618 5.827 8.618h30.672a2.61 2.61 0 0 0 2.314-1.743l.436-1.361a1.36 1.36 0 0 0-.723-1.785 1.37 1.37 0 0 0-.544-.108l-21.946.014z"/><path d="M687.014 70.793l.98-2.981a5.54 5.54 0 0 1 4.955-3.826h17.018a2.37 2.37 0 0 0 2.11-1.579l.681-2.083a1.24 1.24 0 0 0-.606-1.644c-.181-.083-.379-.122-.578-.112h-32.102c-4.959.241-9.272 3.475-10.891 8.168l-1.28 3.853c-1.361 4.22 1.048 7.828 5.282 7.828h11.068c1.863-.075 3.435 1.374 3.51 3.237a3.39 3.39 0 0 1-.297 1.528h0c-.707 2.09-2.604 3.547-4.806 3.689h-18.393a2.56 2.56 0 0 0-2.274 1.715l-.64 1.96a1.24 1.24 0 0 0 .606 1.644c.181.083.379.122.578.112h32.497c4.729-.239 8.839-3.326 10.388-7.801l1.511-4.588c1.361-4.084-.994-7.474-5.037-7.474H688.17a1.21 1.21 0 0 1-1.238-1.185 1.22 1.22 0 0 1 .081-.463z"/></g><path d="M101.568 124.215H85.612c-2.662.2-4.981-1.796-5.181-4.458-.039-.515.005-1.032.13-1.533l3.376-14.975a5.85 5.85 0 0 1 5.895-4.084h14.417a1.36 1.36 0 0 1 1.252 1.757l-.259 2.069c-.088 1.008-.909 1.794-1.92 1.838h-8.168l-3.213 13.709h10.796c.675.05 1.181.638 1.131 1.313a1.21 1.21 0 0 1-.042.239l-.504 2.6c-.153.858-.885 1.493-1.756 1.525zm258.98-14.921h-6.807l1.579-4.465h11.068c.606-.017 1.128-.434 1.28-1.021l.79-2.995c.188-.666-.199-1.358-.865-1.546-.117-.033-.239-.049-.36-.047h-10.061c-5.446 0-8.876 2.832-9.925 6.589l-1.634 5.446c-.708 2.941 1.293 3.635 2.954 3.635h8.672l-.912 3.635h-11.191c-.667.023-1.246.465-1.443 1.103l-1.048 3.485c-.151.401.053.849.454.999a.78.78 0 0 0 .295.049h12.253c6.017 0 7.869-2.355 8.645-5.214l1.253-4.833c1.13-5.078-4.996-4.819-4.996-4.819zm-192.816 12.511l2.6-11.409h10.551a1.36 1.36 0 0 0 1.225-.994l.136-.585c.113-.39-.111-.798-.501-.911a.74.74 0 0 0-.234-.029h-14.867c-2.405.077-4.464 1.747-5.037 4.084l-1.838 8.06a3.28 3.28 0 0 0 2.256 4.055 3.31 3.31 0 0 0 .985.125h14.867a1.1 1.1 0 0 0 1.048-.844l.15-.653a.71.71 0 0 0-.473-.882.72.72 0 0 0-.235-.03l-10.633.014zm338.419-11.831h4.969a.87.87 0 0 0 .817-.667l.15-.64c.083-.297-.091-.605-.388-.687-.051-.014-.104-.021-.157-.02h-10.279c-3.284.108-6.095 2.39-6.875 5.582l-2.069 9.053a1.36 1.36 0 0 0 .977 1.659 1.38 1.38 0 0 0 .384.043h5.132c.865-.03 1.604-.63 1.811-1.47l2.328-10.224c.362-1.491 1.667-2.562 3.199-2.628zm-285.365-.081h4.969a.86.86 0 0 0 .817-.667l.15-.64c.083-.297-.091-.605-.388-.687-.051-.014-.104-.021-.157-.02h-10.279c-3.284.108-6.095 2.39-6.875 5.582l-2.097 9.067a1.36 1.36 0 0 0 .994 1.649c.12.03.244.043.367.039h5.133c.865-.03 1.604-.63 1.811-1.47l2.328-10.211c.36-1.505 1.68-2.586 3.227-2.641zm204.62 12.021h-1.266c-1.173.025-2.144-.905-2.169-2.078a2.1 2.1 0 0 1 .086-.645l1.96-8.577a2.11 2.11 0 0 0-1.405-2.633 2.1 2.1 0 0 0-.678-.09h-3.199c-1.38.046-2.55 1.03-2.832 2.382l-2.587 11.354c-.347 1.105.268 2.281 1.372 2.628a2.11 2.11 0 0 0 .71.095h17.222c1.356-.037 2.518-.981 2.832-2.301l2.587-11.354c.347-1.105-.268-2.281-1.372-2.628a2.11 2.11 0 0 0-.71-.095h-2.723a3.01 3.01 0 0 0-2.873 2.301l-2.124 9.353a3.02 3.02 0 0 1-2.832 2.287zM112.65 107.878h17.698c1.052-.028 1.928.802 1.956 1.855.005.183-.017.365-.064.541l-2.723 11.831a2.72 2.72 0 0 1-2.559 2.069H109.26c-1.052.032-1.931-.795-1.963-1.847-.006-.195.018-.389.071-.576l2.723-11.831c.303-1.175 1.347-2.008 2.559-2.042zm5.064 13.886h1.811c1.22-.045 2.26-.897 2.546-2.083l1.579-6.916c.324-1.002-.225-2.076-1.227-2.4-.21-.068-.431-.099-.652-.091h-1.797a2.72 2.72 0 0 0-2.559 2.083l-1.579 6.916c-.324 1.002.225 2.076 1.227 2.4.21.068.431.099.652.091zm130.573-13.886h17.698c1.052-.028 1.928.802 1.956 1.855.005.183-.017.365-.064.541l-2.723 11.831a2.72 2.72 0 0 1-2.546 2.069H244.91c-1.052.032-1.931-.795-1.963-1.847-.006-.195.018-.389.071-.576l2.723-11.831a2.72 2.72 0 0 1 2.546-2.042zm5.051 13.886h1.811a2.72 2.72 0 0 0 2.559-2.083l1.579-6.916a1.92 1.92 0 0 0-1.259-2.405c-.205-.064-.419-.093-.633-.086h-1.797a2.72 2.72 0 0 0-2.559 2.083l-1.579 6.916c-.324 1.002.225 2.076 1.227 2.4.21.068.431.099.652.091h0zm36.267-13.886h17.698c1.052-.028 1.928.802 1.956 1.855.005.183-.017.365-.064.541l-2.723 11.831a2.72 2.72 0 0 1-2.559 2.069h-17.698c-1.045.035-1.919-.784-1.954-1.829a1.9 1.9 0 0 1 .075-.595l2.723-11.831a2.72 2.72 0 0 1 2.546-2.042zm5.065 13.886h1.797a2.72 2.72 0 0 0 2.559-2.083l1.579-6.916a1.92 1.92 0 0 0-1.259-2.405c-.205-.064-.419-.093-.633-.086h-1.797a2.72 2.72 0 0 0-2.559 2.083l-1.579 6.916c-.324 1.001.225 2.076 1.226 2.4.215.07.44.1.666.091zm160.387-12.756l-.15.64c-.136.47.135.96.604 1.096a.89.89 0 0 0 .281.034h11.776l-.436 1.879h-9.843c-1.794.081-3.324 1.324-3.771 3.063l-1.538 6.93c-.158.735.309 1.459 1.044 1.618.078.017.156.027.236.03h16.909a2.19 2.19 0 0 0 1.96-1.361l3.349-9.067c1.253-3.526-1.361-5.868-4.547-5.868h-14.594a1.36 1.36 0 0 0-1.28 1.007zm9.789 13.478h-4.697l1.783-7.814h4.751l-1.838 7.814zm-261.581.694l.136-.64c.143-.467-.12-.962-.587-1.105a.88.88 0 0 0-.284-.038h-11.776l.436-1.879h9.843a4 4 0 0 0 3.757-3.063l.98-4.261a3.39 3.39 0 0 0-2.334-4.188 3.38 3.38 0 0 0-1.015-.128h-12.253a6.33 6.33 0 0 0-5.949 4.847l-1.293 5.623c-.7 2.443.713 4.991 3.156 5.691.452.13.921.189 1.391.176h14.553a1.36 1.36 0 0 0 1.239-1.035zm-9.788-13.491h4.751l-1.783 7.814h-4.751l1.783-7.814zm124.282 10.196h8.277c.642-.021 1.209-.423 1.443-1.021l.477-1.225c.143-.282.03-.626-.251-.769a.57.57 0 0 0-.266-.062h-8.482l2.437-6.303h8.332c.609-.025 1.144-.411 1.361-.98l.477-1.212c.143-.307.01-.671-.297-.814-.082-.038-.171-.058-.262-.057h-15.561a2.45 2.45 0 0 0-2.328 1.811l-5.446 21.143a1.36 1.36 0 0 0 .888 1.708 1.38 1.38 0 0 0 .473.062h2.233a2.72 2.72 0 0 0 2.423-1.715l4.071-10.565zm129.783 3.05l4.996-21.946a1.09 1.09 0 0 0-.782-1.327 1.1 1.1 0 0 0-.308-.034h-5.568a2.07 2.07 0 0 0-1.96 1.579l-4.928 21.619c-.181.629.182 1.285.811 1.466.117.034.238.049.36.046h8.046a.94.94 0 0 0 .885-.722h0c.075-.268-.081-.546-.348-.621a.51.51 0 0 0-.155-.018l-1.048-.041zm-65.266-10.034l-2.301 10.088a1.02 1.02 0 0 0 .621 1.304c.124.044.255.064.386.058h5.446c.649-.034 1.201-.486 1.361-1.116l2.804-12.253h2.723l-2.723 12.117a1.02 1.02 0 0 0 .621 1.304c.124.044.255.064.386.058h5.255a1.47 1.47 0 0 0 1.361-1.116l2.804-12.253h2.723l-2.723 12.117a1.02 1.02 0 0 0 .621 1.304c.124.044.255.064.386.058h5.568c.649-.034 1.201-.486 1.361-1.116l2.723-11.803c.43-1.441-.39-2.958-1.831-3.388a2.72 2.72 0 0 0-.892-.111h-20.421c-2.912.015-5.463 1.951-6.262 4.751zm-246.333-.326l-2.369 10.374a.98.98 0 0 0 .65 1.224.97.97 0 0 0 .33.042h5.663a1.36 1.36 0 0 0 1.361-1.076l2.723-12.348h5.187l-2.723 12.157c-.151.528.155 1.078.683 1.228.097.028.197.04.297.038h6.548a1.36 1.36 0 0 0 1.361-1.076l2.6-11.395a3.09 3.09 0 0 0-2.109-3.828c-.31-.09-.631-.13-.954-.12h-13.342a6.25 6.25 0 0 0-5.909 4.779zm348.834 8.018l2.41-10.578c.133-.529.599-.906 1.144-.926h2.137a1.2 1.2 0 0 0 1.144-.926h0c.128-.456-.138-.93-.594-1.057a.88.88 0 0 0-.25-.032h-1.811c-.466.018-.858-.345-.876-.811a.85.85 0 0 1 .032-.265l1.13-4.942a1.16 1.16 0 0 0-.8-1.428c-.116-.033-.237-.047-.357-.043h-5.146a2 2 0 0 0-1.892 1.538l-4.166 18.256c-.587 2.045.594 4.179 2.64 4.767a3.87 3.87 0 0 0 1.172.148h7.801c.546-.015 1.015-.395 1.144-.926l.15-.613c.128-.448-.131-.915-.579-1.044-.086-.025-.175-.035-.265-.032h-3.322a.86.86 0 0 1-.876-.839c-.002-.084.009-.169.032-.25zm-250.485-.081l2.41-10.565a1.2 1.2 0 0 1 1.144-.926h2.137c.549-.022 1.016-.405 1.144-.939h0c.128-.448-.131-.915-.579-1.044-.086-.025-.175-.035-.265-.032h-1.824a.86.86 0 0 1-.876-.839c-.002-.084.009-.169.032-.25l1.13-4.928a1.17 1.17 0 0 0-.815-1.441 1.18 1.18 0 0 0-.329-.043h-5.146c-.91.023-1.691.654-1.906 1.538l-4.166 18.256c-.587 2.045.594 4.179 2.64 4.767a3.87 3.87 0 0 0 1.172.148h7.814c.546-.015 1.015-.395 1.144-.926l.136-.599c.128-.456-.138-.93-.594-1.057-.081-.023-.165-.033-.25-.032h-3.322c-.466.013-.854-.355-.867-.821-.002-.091.01-.181.036-.268zm289.966-15.942l1.157-3.499c.241-.584-.037-1.252-.621-1.493-.148-.061-.308-.09-.468-.086h-5.949c-.726.024-1.345.532-1.511 1.239l-.803 3.499a1.13 1.13 0 0 0 .772 1.399c.112.032.228.047.344.044h5.595c.675-.025 1.265-.464 1.484-1.103zm-9.762 6.521l-2.723 11.763a1.13 1.13 0 0 0 .772 1.399c.112.032.228.047.344.044h3.662c.675-.025 1.265-.464 1.484-1.103l3.894-11.763c.241-.584-.038-1.252-.621-1.493a1.14 1.14 0 0 0-.454-.086h-4.887a1.62 1.62 0 0 0-1.47 1.239zm-134.221-6.521l1.157-3.499c.241-.584-.037-1.252-.621-1.493-.148-.061-.308-.09-.468-.086h-5.963c-.726.024-1.345.532-1.511 1.239l-.803 3.499a1.13 1.13 0 0 0 .772 1.399c.112.032.228.047.344.044h5.595c.68-.02 1.277-.459 1.498-1.103zm-9.761 6.521l-2.723 11.763a1.13 1.13 0 0 0 .771 1.4 1.12 1.12 0 0 0 .373.043h3.662c.675-.025 1.265-.464 1.484-1.103l3.894-11.763c.241-.584-.038-1.252-.621-1.493a1.14 1.14 0 0 0-.454-.086h-4.874a1.62 1.62 0 0 0-1.511 1.239zm174.464-3.131h-7.025c-.254.004-.495.112-.667.3l-2.015 2.137a.79.79 0 0 1-1.109.13.8.8 0 0 1-.13-.13l-1.253-2.097c-.126-.201-.348-.32-.585-.313h-5.786c-.48-.039-.9.318-.94.797-.016.2.037.399.15.564l4.084 5.745a.83.83 0 0 1-.163 1.035l-7.256 6.957c-.531.504-.286 1.361.381 1.361h6.998c.241-.003.471-.101.64-.272l2.859-3.009a.79.79 0 0 1 1.115-.055l.055.055 2.26 2.886c.136.158.336.248.545.245h4.261a.9.9 0 0 0 .889-.907.89.89 0 0 0-.073-.345l-3.662-6.154c-.161-.33-.089-.727.177-.98l6.657-6.657c.531-.517.259-1.293-.408-1.293z" fill="#e85298"/></svg>