<?xml version="1.0" encoding="utf-8"?>
<!-- Generator: Adobe Illustrator 27.0.1, SVG Export Plug-In . SVG Version: 6.00 Build 0)  -->
<svg version="1.1" id="레이어_1" xmlns="http://www.w3.org/2000/svg" xmlns:xlink="http://www.w3.org/1999/xlink" x="0px"
	 y="0px" viewBox="0 0 720 210.425" enable-background="new 0 0 720 210.425" xml:space="preserve">
<path fill="#E8546B" d="M358.26,152.213c-1.265-1.986-1.913-2.299-4.139-1.568c-14.893,4.912-50.844,10.973-59.968-1.777
	c-5.675-8.047,9.113-25.187,22.24-33.025l1.15,0.731c2.331,1.254,4.818,2.299,7.41,2.926c11.433,2.926,24.685-0.418,29.221-6.27
	c1.965-2.613,1.965-6.062,1.244-8.674c-1.515-5.434-6.386-6.688-9.301-7.211c-6.626-1.254-20.15,3.135-31.499,10.451
	c-9.772-9.51-15.812-25.187-18.582-34.697c-0.502-1.672-2.675-2.195-3.982-0.941l-2.958,2.822c-1.735,1.672-2.153,4.285-0.972,6.375
	c5.33,9.51,13.43,22.261,21.937,29.681c-14.496,10.765-26.169,26.127-20.777,40.55c5.393,14.527,31.248,14.214,41.898,14.214
	c9.134,0,21.801-3.24,29.001-5.539c1.996-0.732,0.951-3.658-0.188-5.33L358.26,152.213 M354.017,105.079
	c2.602,8.883-19.543,12.228-29.493,9.302c-1.191-0.418-2.362-0.941-3.48-1.568l-0.084-0.105
	C328.59,106.437,351.08,95.464,354.017,105.079z"/>
<path d="M168.595,111.663L168.595,111.663l-0.011-0.104c-0.104-1.15-0.418-3.031-0.502-3.135c-0.836-1.776-2.905-2.404-4.839-1.776
	l-1.4,0.732c-2.529,0.836-2.811,3.449-2.529,5.121c0.522,3.031,1.191,11.914,0.125,18.185c-1.589,9.302-9.03,25.814-19.752,31.144
	l-0.596,1.045c0,0.627,0.585,1.568,1.662,1.045C169.222,150.854,169.515,122.01,168.595,111.663"/>
<path d="M232.367,200.497c-17.108-14.318-34.07-13.9-46.664-14.004c-0.951,0-1.515,0.522-1.515,1.254l1.317,1.254h0.01
	c15.196,0.314,26.033,6.271,32.607,11.392l3.721,3.24c4.024,4.18,4.013,6.793,6.824,6.793h8.747l0.47-0.104
	C241.449,209.38,238.659,205.409,232.367,200.497 M244.281,133.924c-0.972-1.358-2.414-1.985-3.93-1.985H174.5
	c-1.777,0-3.198,1.463-3.198,3.24v0.522c0,1.881,1.474,3.344,3.292,3.344l60.678-0.523c0.136,9.093-7.232,38.355-20.118,46.089
	l-0.867,1.254l1.421,1.463l0.826-0.314c24.654-12.959,28.657-47.238,28.855-48.493C245.661,136.85,245.253,135.178,244.281,133.924z
	"/>
<path d="M50.52,73.935l49.245,0.209c1.86,0,3.355-1.463,3.355-3.344v-0.522c0-1.777-1.494-3.344-3.355-3.344L50.52,66.619
	c-1.86,0-3.365,1.568-3.355,3.344v0.522C47.155,72.367,48.66,73.935,50.52,73.935 M116.644,115.53h0.01l0.136-90.035h18.55
	l0.125-0.021c1.787-0.084,3.219-1.536,3.219-3.344v-0.523c0-1.85-1.505-3.355-3.355-3.355l-18.54-0.011l-0.021-11.966
	c-0.084-1.787-1.547-3.209-3.344-3.209h-1.965c-1.839,0-3.344,1.505-3.355,3.355l0.01,11.83l-75.728,0.031L32.367,6.317
	c-0.084-1.777-1.547-3.209-3.344-3.209h-1.954c-1.86,0.011-3.365,1.505-3.355,3.365v11.81L3.344,18.064
	C1.495,18.064,0,19.569,0,21.419v0.533c0,1.85,1.495,3.355,3.344,3.355l20.369,0.219h0.031c0.01,18.415,0.021,67.012,0.021,67.012
	c0.084,1.776,1.547,3.24,3.344,3.24h1.954c1.86,0,3.355-1.568,3.355-3.344V25.526l75.697-0.031l-0.125,87.632
	c-11.193,23.097-36.098,0.627-63.876-5.748c-14.537-3.344-32.492,2.822-38.439,15.572l0.47,1.149l1.244-0.418
	c9.134-14.318,28.51-19.857,54.22-3.449C104.374,147.51,116.644,119.71,116.644,115.53z"/>
<path d="M607.516,122.219l0.01-0.105h-0.01V122.219 M686.484,122.114L686.484,122.114z M715.558,135.387h-76.512l1.191-1.359
	c1.16-1.463,0.972-3.553-0.408-4.703l-0.805-0.627c-1.379-1.15-3.438-0.941-4.598,0.418l-5.288,6.271l-39.85,0.209
	c-1.798,0-3.25,1.463-3.271,3.24c0.021,1.776,1.474,3.24,3.271,3.24l34.415-0.209l-11.245,12.332
	c-1.16,1.358-0.982,3.449,0.408,4.598l0.794,0.627c1.38,1.149,3.449,1.045,4.609-0.418l15.342-17.14h81.946
	c1.798,0,3.25-1.463,3.271-3.24C718.809,136.85,717.356,135.387,715.558,135.387z M585.966,139.045v-0.105V139.045z M718.84,138.627
	v-0.104l-0.01,0.104H718.84z M610.39,125.354h72.823c1.798,0,3.25-1.463,3.271-3.24c-0.021-1.777-1.474-3.24-3.271-3.24H610.4
	c-1.683,0.209-3.031,1.568-3.041,3.24C607.38,123.891,608.707,125.249,610.39,125.354z M716.875,102.884h-18.676V87.73l-0.867-1.045
	l-40.78-0.104l0.251-9.615l53.248,0.105h0.23c1.62-0.209,2.874-1.568,2.884-3.24c-0.01-1.672-1.327-3.135-2.999-3.24h-0.261
	l-53.101-0.105v-9.929l-0.01-0.104c0-1.881-1.463-3.344-3.271-3.344l-1.578-0.105c-1.808,0-3.282,1.463-3.282,3.24l-0.073,6.062
	h0.01v4.285L595.226,70.8c-1.798,0-3.25,1.463-3.271,3.24c0.021,1.777,1.474,3.24,3.271,3.24l53.373-0.209v9.615H610.62
	c-1.798,0-3.25,1.463-3.271,3.24c0.021,1.672,1.306,3.031,2.947,3.135l37.216,0.104c-0.847,3.658-2.132,6.898-3.752,9.72
	l-55.213,0.209c-1.798,0-3.25,1.463-3.271,3.24c0.021,1.672,1.338,3.031,3.01,3.24l50.666-0.209
	c-2.937,3.135-4.849,4.703-8.246,6.375l-0.293,1.463l0.063,0.105l1.285,0.522c6.511-2.299,10.148-4.703,14.004-8.465h44.866
	l0.01,12.75c0,1.776,1.463,3.24,3.271,3.24h1.024c1.808,0,3.271-1.463,3.271-3.24l-0.01-12.75h18.759
	c1.683-0.105,3.02-1.568,3.031-3.24C719.969,104.347,718.6,102.989,716.875,102.884z M690.633,102.884h-39.776
	c1.808-3.031,3.752-6.375,4.609-9.824l35.168,0.104V102.884z M713.175,73.831h-0.01H713.175z M719.99,106.124H720H719.99z
	 M591.954,73.621l0.01-0.104h-0.01V73.621z M607.506,89.611h0.01l-0.01-0.104V89.611z M585.214,106.229l0.01-0.104h-0.01V106.229z"
	/>
<path d="M702.212,181.894l-0.178-0.522h-0.01l-0.857-1.463h-0.052c-0.564-0.732-1.327-1.568-2.351-2.508
	c-6.72-5.748-13.952-10.242-21.278-13.586c3.898-3.553,7.065-7.42,9.531-11.392c0.826-1.254,0.313-3.031-1.066-3.763l-2.09-1.149
	c-1.369-0.732-3.073-0.209-3.909,1.045c-3.188,5.016-7.985,10.451-9.824,12.332h-0.042c-16.753-5.957-33.307-6.689-44.605-5.121
	l-0.324,0.105l-0.878,1.254l1.285,1.254h0.052c16.335,0.627,28.677,3.344,37.927,6.793l1.181,0.418h0.115
	c-22.804,15.781-56.049,24.56-106.725,17.035l-1.056,0.836l-0.052,0.418l0.742,1.15c60.187,9.719,90.641,0.314,113.884-16.304
	c6.271,3.135,10.461,6.48,13.158,8.988c4.034,4.285,4.024,6.793,6.835,6.793h8.758l0.46-0.104
	C701.951,184.089,702.63,183.357,702.212,181.894"/>
<path d="M552.513,42.373c0,1.777-1.453,3.24-3.261,3.24h-0.418c-1.798,0-3.25-1.463-3.25-3.24v-8.131
	c0-1.819,1.494-2.728,3.292-2.728h0.418c1.798,0,3.261,1.473,3.261,3.334L552.513,42.373"/>
<path d="M524.368,42.373c0,1.777-1.463,3.24-3.261,3.24h-0.428c-1.798,0-3.261-1.463-3.261-3.24l0.052-7.524
	c0-1.86,1.453-3.334,3.25-3.334h0.428c1.798,0,3.261,1.473,3.261,3.334L524.368,42.373"/>
<path d="M501.219,42.164c0,1.881-1.463,3.344-3.261,3.344h-0.418c-1.798,0-3.261-1.463-3.261-3.344l0.042-7.524
	c-0.01-1.777,1.453-3.25,3.25-3.25H498c1.798,0,3.261,1.473,3.261,3.25L501.219,42.164"/>
<path d="M511.137,88.775L511.137,88.775 M505.723,117.307v-0.105V117.307z M551.07,51.883h-1.327c-1.798,0-3.261,1.463-3.261,3.24
	v0.941h-45.305v-0.836c0-1.881-1.453-3.344-3.261-3.344h-1.327c-1.798,0-3.25,1.463-3.25,3.344l0.157,67.2
	c0,1.777,1.463,3.24,3.261,3.24h1.317c1.798,0,3.261-1.463,3.261-3.344l-0.157-59.675l45.315-0.104l0.157,51.523h-37.665
	c-1.798,0-3.24,1.463-3.261,3.24c0.021,1.777,1.463,3.24,3.261,3.24h37.676v1.777c-0.01,1.881,1.453,3.344,3.25,3.344h1.327
	c1.798,0,3.261-1.463,3.261-3.344l-0.157-67.2C554.341,53.347,552.878,51.883,551.07,51.883z M514.377,92.015h25.26
	c1.798,0,3.25-1.463,3.271-3.24c-0.031-1.776-1.484-3.24-3.271-3.24h-25.26c-1.777,0-3.229,1.463-3.24,3.24
	C511.147,90.552,512.6,92.015,514.377,92.015z M542.908,88.775L542.908,88.775z"/>
<line x1="477.171" y1="44.881" x2="477.171" y2="44.777"/>
<line x1="477.171" y1="44.881" x2="477.171" y2="44.777"/>
<path d="M477.171,44.881v-0.105V44.881 M475.478,0.809c-1.839-1.62-3.815-0.658-5.612,1.557
	c-4.107,4.891-17.265,18.289-37.801,18.687l-0.084,0.021l-1.327,1.526l1.495,1.536l0.125,0.031
	c29.827-0.042,40.832-11.736,44.155-16.084l0.961-1.097c1.181-1.379,1.035-3.459-0.324-4.651L475.478,0.809z M557.236,3.85
	l-1.191-0.93l-3.585-1.787c-1.275-0.585-2.728-0.251-3.647,0.711l-0.178,0.125c-5.476,5.727-31.583,24.727-67.294,16.147
	l-0.491-0.073c-1.15-0.01-2.101,0.878-2.121,1.996c-0.021,1.4,1.223,1.923,1.683,2.017c42.995,7.974,65.653-5.696,74.265-12.332
	C556.421,8.376,558.449,5.815,557.236,3.85z"/>
<path d="M487.361,57.527c-0.397-1.358-1.641-2.404-3.125-2.404h-1.035c-1.494,0-2.738,1.045-3.125,2.404l-0.115,0.732v61.661
	c-0.011,1.359,1.348,3.031,3.261,3.031h1.035c2.09,0,3.261-1.776,3.261-3.24l-0.021-61.243L487.361,57.527"/>
<path d="M471.413,55.123h-1.589c-1.798,0-3.261,1.463-3.261,3.344l0.01,28.845c0,1.881,1.453,3.344,3.261,3.344h1.589
	c1.798,0,3.261-1.463,3.261-3.344l-0.01-28.845C474.673,56.586,473.221,55.123,471.413,55.123"/>
<path d="M447.396,59.513c-0.125-1.358-1.359-2.926-3.229-2.926h-1.589c-1.589,0-2.884,1.15-3.167,2.717l-0.073,0.209
	c-1.024,7.316-2.905,55.286-49.59,70.649l-0.669,1.568c0.397,1.045,1.453,0.627,1.745,0.627
	C446.1,114.276,446.989,68.605,447.396,59.513"/>
<path d="M477.171,44.881v-0.105V44.881 M473.91,41.537h-11.862V31.232c0-1.819-1.453-3.303-3.25-3.292h-1.432
	c-1.798,0-3.25,1.473-3.25,3.292v10.305l-21.236,0.209c-1.693,0.104-3.041,1.568-3.062,3.24c0.031,1.881,1.474,3.344,3.261,3.344
	l21.059-0.314v72.112c0.052,1.776,1.484,3.24,3.25,3.24h1.432c1.798,0,3.25-1.463,3.25-3.344l-0.021-72.007h11.872
	c1.787,0,3.229-1.463,3.25-3.24C477.15,43,475.708,41.537,473.91,41.537z M429.818,45.09v-0.104V45.09z"/>
<path d="M477.171,44.881v-0.105V44.881 M429.818,45.09v-0.104V45.09z"/>
<line x1="477.171" y1="44.881" x2="477.171" y2="44.777"/>
<polyline points="429.818,45.09 429.818,44.986 429.818,45.09 "/>
<path d="M186.738,39.447c0,2.508-3.031,3.658-3.585,3.658l-0.502-0.418l0.502-0.523c1.714-0.522,2.54-1.672,2.54-2.717
	c0-0.836-0.554-1.568-1.641-1.881c-0.387,1.15-1.191,2.299-2.111,3.135l0.167,0.314l0.094,0.314l-0.502,0.522l-0.564-0.522
	c-1.139,0.941-1.63,1.045-1.965,1.045l-1.045-1.254c0-1.463,1.181-2.926,2.655-3.658l0.167-1.568h-0.439
	c-1.4,0-1.505-0.314-1.505-0.627l0.439-0.418h0.199l0.92,0.104h0.512l0.146-1.139l0.533-0.502l0.481,0.428l-0.188,1.108l1.766-0.523
	l0.199-0.031l0.47,0.449l-0.449,0.523l-2.142,0.522l-0.178,1.254l1.359-0.314h0.199l0.01-0.105l0.46-0.418l0.512,0.418v0.105
	C185.892,37.043,186.738,38.193,186.738,39.447 M180.677,38.402c-1.317,0.941-1.641,1.986-1.641,2.508l0.345,0.418l1.484-0.836
	l-0.146-1.672l0.01-0.418H180.677z M182.934,37.565l-1.306,0.314l-0.021,0.836l0.073,1.045l1.39-2.195H182.934z"/>
<path d="M200.826,36.102l-1.62,0.209l-0.878-0.522l0.543-0.523h0.157l0.575,0.105l1.421-0.209l-0.01-0.878l0.01-0.742l0.502-0.533
	l0.543,0.491v0.031l-0.063,1.526c1.045-0.209,1.056-0.209,1.097-0.209l0.47,0.418l-0.554,0.523l-1.035,0.209l0.031,1.463
	l1.056-0.314h0.24l0.512,0.418c0,0.418-0.355,0.523-1.777,0.836l0.084,1.254l0.094,1.254l1.557,0.941l0.272,0.523l-0.47,0.522
	l-0.418-0.209l-1.045-0.732c-0.272,0.836-1.139,1.463-2.142,1.463c-1.024,0-1.954-0.627-1.954-1.463
	c0-0.836,0.909-1.359,2.257-1.359l1.014,0.105l-0.063-0.941l-0.084-1.15l-1.557,0.209l-1.191-0.522l0.512-0.522h0.188l0.585,0.104
	l1.421-0.209l-0.063-1.568H200.826 M200.053,41.432l-1.118,0.523l0.972,0.522l1.306-0.941L200.053,41.432z"/>
<path d="M224.195,39.447c0,2.508-3.031,3.658-3.585,3.658l-0.502-0.418l0.502-0.523c1.714-0.522,2.54-1.672,2.54-2.717
	c0-0.836-0.564-1.568-1.651-1.881c-0.376,1.15-1.181,2.299-2.101,3.135l0.167,0.314l0.094,0.314l-0.502,0.522l-0.564-0.522
	c-1.139,0.941-1.63,1.045-1.965,1.045l-1.045-1.254c0-1.463,1.181-2.926,2.655-3.658l0.167-1.568h-0.439
	c-1.4,0-1.505-0.314-1.505-0.627l0.439-0.418h0.199l0.92,0.104h0.512l0.146-1.139l0.533-0.502l0.47,0.428l-0.178,1.108l1.756-0.523
	l0.209-0.031l0.47,0.449l-0.449,0.523l-2.142,0.522l-0.178,1.254l1.359-0.314h0.199l0.01-0.105l0.46-0.418l0.512,0.418v0.105
	C223.348,37.043,224.195,38.193,224.195,39.447 M218.133,38.402c-1.317,0.941-1.641,1.986-1.641,2.508l0.345,0.418l1.484-0.836
	l-0.146-1.672l0.01-0.418H218.133z M220.39,37.565l-1.306,0.314l-0.021,0.836l0.073,1.045l1.39-2.195H220.39z"/>
<path d="M238.293,36.102l-1.62,0.209l-0.878-0.522l0.543-0.523h0.146l0.575,0.105l1.432-0.209l-0.021-0.878l0.021-0.742l0.502-0.533
	l0.543,0.491v0.031l-0.073,1.526c1.056-0.209,1.066-0.209,1.108-0.209l0.46,0.418l-0.543,0.523l-1.035,0.209l0.031,1.463
	l1.056-0.314h0.24l0.502,0.418c0,0.418-0.345,0.523-1.766,0.836l0.084,1.254l0.094,1.254l1.557,0.941l0.272,0.523l-0.481,0.522
	l-0.408-0.209l-1.045-0.732c-0.272,0.836-1.139,1.463-2.142,1.463c-1.024,0-1.965-0.627-1.965-1.463
	c0-0.836,0.909-1.359,2.268-1.359l1.014,0.105l-0.063-0.941l-0.084-1.15l-1.568,0.209l-1.181-0.522l0.512-0.522h0.188l0.585,0.104
	l1.421-0.209l-0.063-1.568H238.293 M237.52,41.432l-1.129,0.523l0.982,0.522l1.306-0.941L237.52,41.432z"/>
<path fill="#E8546B" d="M254.137,35.057l-0.157-0.418l0.564-0.502l0.47,0.251c0.523,0.773,1.087,1.923,1.442,2.864l2.226-1.359
	l0.334-0.105l0.502,0.523l-0.408,0.627c-1.839,0.941-4.4,2.299-4.4,3.658c0,0.104,0,1.149,1.923,1.149l2.142-0.314l0.303-0.105
	l0.512,0.523l-0.554,0.731l-2.184,0.209c-2.968,0-3.125-1.672-3.125-2.09c0-0.732,0.47-1.672,1.474-2.508l0.408-0.314
	C255.297,36.939,254.701,35.685,254.137,35.057"/>
<path d="M271.14,37.461l-0.063-1.15l0.554-0.731l0.502,0.941l-0.01,0.314c0,3.24,1.265,3.762,1.432,3.762
	c0.157,0,0.408-0.104,0.826-1.045l0.418-0.209l0.554,0.418c0,0.314-0.732,1.986-1.829,1.986
	C272.541,41.746,271.318,40.387,271.14,37.461 M279.021,39.238c-0.178-1.045-0.721-1.881-1.39-2.404l-0.188-0.314l0.481-0.418
	c0.679,0,2.174,1.881,2.174,2.926l-0.585,0.627L279.021,39.238z"/>
<path d="M292.042,39.865l-0.543,0.314l-0.491-0.418l0.125-0.314c0.606-0.836,1.494-2.195,2.059-3.449l-0.815,0.105
	c-1.233,0-1.275-0.418-1.275-0.627l0.46-0.418h0.219l0.669,0.105l1.066-0.105l0.261-1.275l0.46-0.397l0.502,0.449l-0.199,0.909
	l0.575-0.272l0.272-0.094l0.46,0.47c0,0.209-0.178,0.522-1.62,0.941C293.662,37.148,292.858,38.611,292.042,39.865 M294.676,43
	c-1.035,0-1.965-0.627-1.965-1.463c0-0.731,0.951-1.358,2.247-1.358l0.962,0.104l-0.021-0.418l-0.031-1.045v-0.209l0.512-0.941
	l0.481,0.418l-0.01,0.105l-0.063,0.522v0.418l0.01,0.836l0.042,0.627l1.714,1.463l-0.523,0.522l-0.418-0.209l-0.826-0.732
	C296.568,42.373,295.679,43,294.676,43z M294.843,41.014l-1.254,0.522l1.003,0.627l1.254-0.836l0.021-0.209L294.843,41.014z
	 M298.522,37.252l-1.724-0.522h-0.251l-0.397-0.418l0.847-0.418l2.195,0.941l-0.449,0.522L298.522,37.252z"/>
<path d="M314.857,34.848l-0.063-1.056l0.533-0.543l0.564,0.637l-0.052,1.066l-0.01,0.209h2.853l0.638,0.522l-0.575,0.523h-0.073
	l-1.892-0.105h-0.961l0.021,1.254l0.031,0.732l0.397,1.359c0,1.776-1.568,3.971-2.414,3.971L313.321,43l0.366-0.627l1.494-1.986
	l-0.909,0.314l-1.515-1.776c0-0.836,0.596-1.568,1.777-1.568h0.376l-0.042-1.149c-1.035,0.105-2.08,0.209-2.717,0.314l-1.818,0.418
	h-0.115l-0.502-0.523l0.533-0.522c0.679-0.105,3.564-0.523,4.609-0.627V34.848 M314.428,38.193l-0.826,0.732l0.752,0.836
	l0.805-0.836l-0.136-0.418L314.428,38.193z M317.752,34.618l-0.899-0.919l-0.188-0.303l0.418-0.355l1.421,1.296l-0.449,0.512
	L317.752,34.618z M319.152,33.97l-0.92-0.909l-0.209-0.303l0.418-0.355l1.463,1.296l-0.428,0.428L319.152,33.97z"/>
<path d="M333.313,36.102l-1.63,0.209l-0.878-0.522l0.543-0.523h0.157l0.575,0.105l1.421-0.209l-0.01-0.878l0.01-0.742l0.502-0.533
	l0.554,0.491v0.031l-0.084,1.526c1.056-0.209,1.066-0.209,1.108-0.209l0.46,0.418l-0.543,0.523l-1.035,0.209l0.031,1.463
	l1.056-0.314h0.24l0.502,0.418c0,0.418-0.345,0.523-1.766,0.836l0.084,1.254l0.094,1.254l1.557,0.941l0.272,0.523l-0.481,0.522
	l-0.418-0.209l-1.035-0.732c-0.272,0.836-1.139,1.463-2.142,1.463c-1.024,0-1.954-0.627-1.954-1.463
	c0-0.836,0.909-1.359,2.257-1.359l1.014,0.105l-0.063-0.941l-0.084-1.15l-1.557,0.209l-1.191-0.522l0.512-0.522h0.178l0.596,0.104
	l1.421-0.209l-0.063-1.568H333.313 M332.53,41.432l-1.118,0.523l0.972,0.522l1.306-0.941L332.53,41.432z"/>
<path d="M196.897,57.84l-0.146,1.254l-0.104,0.941l0.021,0.104l0.042,0.105l-0.24,0.209l-0.303-0.522l0.115-0.836l0.146-1.254
	l-0.564-0.731c-0.815,0-1.432,1.254-1.432,2.299l0.46,0.627l0.617-0.523l0.209-0.104l0.22,0.209l-1.118,0.941l-0.867-1.149
	c0-1.15,0.773-2.717,1.954-2.717L196.897,57.84"/>
<path d="M202.833,60.244l0.136-0.627l0.293-1.881l-0.157-0.627l-0.052-0.209l0.24-0.209l0.397,1.15l1.202-1.045
	c0.376,0,0.826,0.209,0.867,1.15l1.296-1.254c0.481,0,0.899,0.523,0.899,1.672l-0.293,1.986l-0.24,0.209l-0.251-0.209l0.01-0.105
	l0.293-1.881l-0.47-1.149c-0.606,0-1.171,1.149-1.369,2.404l-0.324,0.836l-0.24-0.209l0.105-0.627l0.136-1.358l-0.47-1.045
	c-0.564,0-1.202,1.254-1.557,3.135l-0.22,0.209L202.833,60.244"/>
<path d="M216.848,57.84l-0.136,1.254l-0.115,0.941l0.021,0.104l0.052,0.105l-0.251,0.209l-0.303-0.522l0.115-0.836l0.146-1.254
	l-0.564-0.731c-0.815,0-1.432,1.254-1.432,2.299l0.46,0.627l0.617-0.523l0.209-0.104l0.219,0.209l-1.118,0.941l-0.867-1.149
	c0-1.15,0.773-2.717,1.954-2.717L216.848,57.84"/>
<path d="M225.741,57.84l-0.136,1.254l-0.115,0.941l0.021,0.104l0.042,0.105l-0.24,0.209l-0.303-0.522l0.115-0.836l0.146-1.254
	l-0.564-0.731c-0.815,0-1.432,1.254-1.432,2.299l0.46,0.627l0.617-0.523l0.209-0.104l0.219,0.209l-1.118,0.941l-0.867-1.149
	c0-1.15,0.773-2.717,1.954-2.717L225.741,57.84"/>
<path d="M231.678,60.244l0.136-0.627l0.293-1.881l-0.157-0.627l-0.052-0.209l0.24-0.209l0.397,1.15l1.202-1.045
	c0.376,0,0.826,0.209,0.867,1.15l1.296-1.254c0.481,0,0.899,0.523,0.899,1.672l-0.293,1.986l-0.24,0.209l-0.251-0.209l0.01-0.105
	l0.293-1.881l-0.47-1.149c-0.606,0-1.16,1.149-1.369,2.404l-0.324,0.836l-0.24-0.209l0.105-0.627l0.136-1.358l-0.47-1.045
	c-0.564,0-1.202,1.254-1.557,3.135l-0.219,0.209L231.678,60.244"/>
<path d="M245.692,57.84l-0.136,1.254l-0.115,0.941l0.021,0.104l0.042,0.105l-0.24,0.209l-0.303-0.522l0.115-0.836l0.146-1.254
	l-0.564-0.731c-0.815,0-1.432,1.254-1.432,2.299l0.46,0.627l0.617-0.523l0.209-0.104l0.22,0.209l-1.118,0.941l-0.867-1.149
	c0-1.15,0.773-2.717,1.954-2.717L245.692,57.84"/>
<path d="M259.31,56.273l-0.836,1.463c0.105,1.359-0.993,2.822-3.334,2.822c-2.069,0-3.376-1.254-3.376-2.927
	c0-1.254,0.648-1.985,1.369-2.299l-0.073-0.523l1.338-1.463l0.972,0.731l-0.251,0.209l-0.23-0.209l-0.491-0.314l-0.857,1.045
	l0.031,0.314l0.711-0.209l1.244,0.941l-0.826,0.732l-1.4-0.941l-1.056,1.985c0,1.463,1.15,2.508,2.895,2.508
	c1.965,0,2.853-1.15,2.864-2.195l-0.784,0.104c-1.014,0-1.683-0.522-1.683-1.254l1.097-0.941l1.735,1.359l0.47-0.941l-0.24-0.732
	l-0.052-0.105l0.24-0.314l0.188,0.105L259.31,56.273 M254.283,55.437l-0.585,0.105l1.003,0.627l0.355-0.314L254.283,55.437z
	 M257.22,57.631l0.773-0.104l-1.348-1.15l-0.617,0.418L257.22,57.631z"/>
<path d="M266.019,57.109h-0.01c-0.199,0.836-0.397,2.195-0.47,3.24l-0.23,0.209l-0.251-0.209c0-0.209,0.157-2.09,0.481-3.344
	l0.293-0.105L266.019,57.109 M266.511,55.437l-0.428,0.314l0.658,0.418l-0.805-0.104l-0.293,0.522l0.01-0.522l-0.543-0.105
	l0.533-0.314l-0.063-0.523l0.324,0.418L266.511,55.437z"/>
<path d="M274.83,58.259l-0.251,1.986l-0.23,0.209l-0.251-0.209l0.011-0.104l0.24-1.881l-0.387-0.941c-0.585,0-1.275,1.15-1.62,2.926
	l-0.23,0.209l-0.22-0.209l0.23-1.149l0.23-1.254l-0.199-0.732l-0.052-0.105l0.24-0.209l0.46,1.045l1.202-1.045
	C274.244,56.796,274.83,56.9,274.83,58.259"/>
<path d="M283.776,57.84l-0.136,1.254l-0.115,0.941l0.021,0.104l0.052,0.105l-0.251,0.209l-0.303-0.522l0.115-0.836l0.146-1.254
	l-0.564-0.731c-0.815,0-1.432,1.254-1.432,2.299l0.46,0.627l0.617-0.523l0.209-0.104l0.22,0.209l-1.118,0.941l-0.867-1.149
	c0-1.15,0.773-2.717,1.954-2.717L283.776,57.84"/>
<polyline points="292.032,56.795 292.178,56.795 292.45,57.004 292.398,57.213 291.259,58.572 290.172,59.931 291.478,59.931 
	292.021,60.035 292.366,59.722 292.575,59.408 292.837,59.722 292.021,60.453 291.405,60.349 290.558,60.244 289.795,60.349 
	289.701,60.453 289.471,60.14 289.524,60.035 290.882,58.363 291.698,57.318 290.527,57.213 290.255,57.318 290.036,57.527 
	289.795,57.213 290.527,56.795 291.091,56.795 291.677,56.9 292.001,56.9 292.032,56.795 "/>
<path d="M299.264,57.213l-0.261,1.881l0.449,0.941c0.69,0,1.317-1.359,1.557-3.031l0.282-0.209l0.167,0.209l-0.146,0.941
	l-0.188,1.463l0.22,0.732l0.052,0.104l-0.24,0.314l-0.481-1.149l-1.223,1.149c-0.387,0-0.92-0.314-0.92-1.463l0.23-1.986
	l0.251-0.209l0.251,0.209V57.213"/>
<path d="M307.29,60.244l0.136-0.627l0.293-1.881l-0.157-0.627L307.51,56.9l0.24-0.209l0.397,1.15l1.202-1.045
	c0.376,0,0.826,0.209,0.867,1.15l1.296-1.254c0.481,0,0.899,0.523,0.899,1.672l-0.293,1.986l-0.24,0.209l-0.251-0.209l0.01-0.105
	l0.293-1.881l-0.47-1.149c-0.606,0-1.16,1.149-1.369,2.404l-0.324,0.836l-0.24-0.209l0.105-0.627l0.136-1.358l-0.47-1.045
	c-0.564,0-1.202,1.254-1.557,3.135l-0.22,0.209L307.29,60.244"/>
<path d="M321.305,57.84l-0.136,1.254l-0.115,0.941l0.021,0.104l0.042,0.105l-0.24,0.209l-0.303-0.522l0.115-0.836l0.146-1.254
	l-0.564-0.731c-0.815,0-1.432,1.254-1.432,2.299l0.46,0.627l0.617-0.523l0.209-0.104l0.22,0.209l-1.118,0.941l-0.867-1.149
	c0-1.15,0.773-2.717,1.954-2.717L321.305,57.84"/>
</svg>
