<?xml version="1.0" encoding="utf-8"?>
<!-- Generator: Adobe Illustrator 27.1.1, SVG Export Plug-In . SVG Version: 6.00 Build 0)  -->
<svg version="1.1" id="레이어_1" xmlns="http://www.w3.org/2000/svg" xmlns:xlink="http://www.w3.org/1999/xlink" x="0px"
	 y="0px" viewBox="0 0 720 804.731" enable-background="new 0 0 720 804.731" xml:space="preserve">
<path fill="#FFA500" d="M373.176,112.264c8.769-21.663,21.96-41.954,39.538-59.532c17.578-17.576,37.867-30.731,59.571-39.577
	C493.911,4.387,516.99,0,540.029,0c21.441,0,42.809,3.829,63.136,11.409l4.57,1.746c10.778,4.573,20.513,11.186,28.579,19.325
	c8.211,8.138,14.788,17.837,19.322,28.615l0.93,2.341l2.377,0.93c10.778,4.57,20.477,11.148,28.579,19.286
	c8.174,8.138,14.791,17.837,19.322,28.613l1.785,4.609c7.58,20.291,11.37,41.732,11.37,63.138c0,23.04-4.348,46.041-13.155,67.706
	c-8.807,21.702-21.962,41.992-39.538,59.571c-17.578,17.576-37.867,30.77-59.571,39.538c-21.627,8.807-44.705,13.194-67.706,13.194
	H360.02V180.011C360.02,156.969,364.366,133.929,373.176,112.264"/>
<path fill="#FF6394" d="M346.79,112.264c-8.771-21.663-21.926-41.954-39.504-59.532c-17.54-17.576-37.942-30.731-59.568-39.577
	C226.052,4.387,203.013,0,180.009,0C158.53,0,137.2,3.829,116.834,11.409l-4.57,1.746c-10.776,4.573-20.438,11.186-28.615,19.325
	c-8.138,8.138-14.752,17.837-19.286,28.615l-0.928,2.341l-2.379,0.93c-10.74,4.57-20.477,11.148-28.615,19.286
	c-8.1,8.138-14.716,17.837-19.286,28.613l-1.746,4.609C3.79,137.164,0,158.605,0,180.011c0,23.04,4.384,46.041,13.155,67.706
	c8.843,21.702,21.999,41.992,39.541,59.571c17.576,17.576,37.903,30.77,59.568,39.538c21.665,8.807,44.705,13.194,67.745,13.194
	h180.009V180.011C360.018,156.969,355.634,133.929,346.79,112.264"/>
<path fill="#79BDFF" d="M346.79,607.736c-8.771,21.665-21.926,41.992-39.504,59.571c-17.54,17.578-37.942,30.733-59.568,39.541
	c-21.665,8.807-44.705,13.155-67.709,13.155c-21.479,0-42.809-3.792-63.175-11.372l-4.57-1.783
	c-10.776-4.573-20.438-11.15-28.615-19.325c-8.138-8.102-14.752-17.837-19.286-28.576l-0.928-2.379l-2.379-0.93
	c-10.74-4.532-20.477-11.148-28.615-19.286c-8.1-8.138-14.716-17.837-19.286-28.615l-1.746-4.57C3.79,582.838,0,561.434,0,540.029
	c0-23.04,4.384-46.08,13.155-67.784c8.843-21.663,21.999-41.954,39.541-59.532c17.576-17.54,37.903-30.731,59.568-39.538
	c21.665-8.771,44.705-13.155,67.745-13.155h180.009v180.009C360.018,563.069,355.634,586.073,346.79,607.736"/>
<path fill="#AAE754" d="M373.176,607.736c8.769,21.665,21.96,41.992,39.538,59.571s37.867,30.733,59.571,39.541
	c21.627,8.807,44.705,13.155,67.745,13.155c21.441,0,42.809-3.792,63.136-11.372l4.57-1.783
	c10.778-4.573,20.513-11.15,28.579-19.325c8.211-8.102,14.788-17.837,19.322-28.576l0.93-2.379l2.377-0.93
	c10.778-4.532,20.477-11.148,28.579-19.286c8.174-8.138,14.791-17.837,19.322-28.615l1.785-4.57
	c7.58-20.327,11.37-41.732,11.37-63.136c0-23.04-4.348-46.08-13.155-67.784c-8.807-21.663-21.962-41.954-39.538-59.532
	c-17.578-17.54-37.867-30.731-59.571-39.538c-21.627-8.771-44.705-13.155-67.706-13.155H360.02v180.009
	C360.02,563.069,364.366,586.073,373.176,607.736"/>
<path fill="#5A6063" d="M284.62,750.883l-1.674,4.162h-6.578l9.179-23.931h6.838l8.993,23.931h-6.652l-1.56-4.162H284.62z
	 M288.969,738.508h-0.075l-2.527,7.619h5.128L288.969,738.508z"/>
<polygon fill="#5A6063" points="325.461,731.112 331.703,731.112 343.111,745.755 343.186,745.755 343.186,731.112 349.392,731.112 
	349.392,755.045 343.186,755.045 331.777,740.402 331.703,740.402 331.703,755.045 325.461,755.045 "/>
<polygon fill="#5A6063" points="375.628,731.112 381.869,731.112 393.242,745.755 393.315,745.755 393.315,731.112 399.52,731.112 
	399.52,755.045 393.315,755.045 381.944,740.402 381.869,740.402 381.869,755.045 375.628,755.045 "/>
<polygon fill="#5A6063" points="432.002,736.39 432.002,740.404 438.988,740.404 438.988,745.644 432.002,745.644 432.002,749.769 
	439.433,749.769 439.433,755.045 425.758,755.045 425.758,731.114 439.433,731.114 439.433,736.39 "/>
<polygon fill="#5A6063" points="274.214,790.049 274.214,780.798 280.456,780.798 280.456,804.729 274.214,804.729 274.214,794.919 
	265.294,794.919 265.294,804.729 259.052,804.729 259.052,780.798 265.294,780.798 265.294,790.049 "/>
<path fill="#5A6063" d="M312.75,800.567l-1.597,4.162h-6.578l9.215-23.931h6.764l8.993,23.931h-6.614l-1.524-4.162H312.75z
	 M317.211,788.192h-0.15l-2.565,7.619h5.242L317.211,788.192z"/>
<path fill="#5A6063" d="M353.701,780.798h9.515c5.128,0,8.696,2.377,8.696,7.877c0,5.65-3.048,8.102-8.474,8.102h-3.529v7.952
	h-6.208V780.798 M359.909,791.796h1.039l4.423-2.935l-4.423-3.046h-1.039V791.796z"/>
<path fill="#5A6063" d="M396.846,780.798h9.515c5.165,0,8.732,2.377,8.732,7.877c0,5.65-3.085,8.102-8.474,8.102h-3.566v7.952
	h-6.208V780.798 M403.054,791.796h1.039l4.498-2.935l-4.498-3.046h-1.039V791.796z"/>
<polygon fill="#5A6063" points="437.389,780.798 444.858,780.798 449.354,787.303 453.776,780.798 461.245,780.798 452.402,793.247 
	452.402,804.731 446.233,804.731 446.233,793.247 "/>
<polygon fill="#FFFFFF" points="478.268,85.323 441.959,85.323 438.988,88.297 438.988,281.908 441.959,284.881 478.268,284.881 
	481.314,281.908 481.314,88.297 "/>
<path fill="#FFFFFF" d="M608.741,237.908c-6.094,5.911-14.271,9.254-22.929,9.254c-14.085,0-25.53-11.484-25.53-25.603
	c0-36.456-28.837-66.223-64.921-67.82l-3.048,2.935v36.345l3.048,3.121c12.708,1.486,22.593,12.3,22.593,25.419
	c0,37.42,30.473,67.892,67.858,67.892c20.883,0,40.727-8.621,54.962-23.784l-0.225-4.162l-27.463-23.82L608.741,237.908"/>
<path fill="#FFFFFF" d="M169.049,442.74l-32.072,0.15l-5.09,5.128c-0.336,53.252-17.986,106.392-49.65,149.648l1.08,7.136
	l25.678,19.25l3.01,1.041l4.126-2.082c37.086-50.575,57.711-112.822,58.083-175.178l-1.524-3.604L169.049,442.74"/>
<polygon fill="#FFFFFF" points="305.208,575.444 262.991,478.306 258.31,475.222 256.266,475.63 226.835,488.452 224.159,491.237 
	224.195,495.141 266.448,592.279 271.093,595.363 273.137,594.919 302.532,582.135 "/>
<path fill="#FFFFFF" d="M509.482,475.816l0.036,0.855l-2.749,2.044l-27.388,11.334l-2.751,4.126v35.229l2.751,1.821l40.171-16.648
	l4.645,1.189c11.334,13.341,28.279,21.851,47.084,21.851c34.113,0,61.834-27.724,61.834-61.8s-27.721-61.798-61.834-61.798
	C537.242,414.018,509.482,441.739,509.482,475.816 M571.282,499.561c-13.044,0-23.709-10.665-23.709-23.745
	c0-13.08,10.665-23.745,23.709-23.745c13.153,0,23.745,10.665,23.745,23.745C595.027,488.896,584.435,499.561,571.282,499.561"/>
<path fill="#FFFFFF" d="M537.8,585.887h-37.275c-22.11,0-40.06-17.984-40.06-40.058V426.243l-2.971-2.974h-32.072l-2.971,2.974
	v119.586c0,43.07,35.043,78.113,78.074,78.113H537.8l3.01-3.01V588.86L537.8,585.887"/>
<path fill="#FFFFFF" d="M588.08,585.587c-4.387,0-12.339-0.036-16.723-0.036l-2.974,2.974v33.927l-2.899,2.416l-4.57-0.37
	c-16.687,0-30.139,13.489-30.139,30.137s13.452,30.137,30.139,30.137c16.61,0,30.137-13.489,30.137-30.137v-36.306l3.01-2.974h2.23
	l2.974,2.974v23.448l2.862,2.007c11.148-4.384,19.1-15.274,19.1-27.982c0-15.682-11.928-28.54-27.202-30.028L588.08,585.587"/>
<polygon fill="#FFFFFF" points="250.802,86.922 189.15,86.922 186.178,83.912 186.178,75.774 183.205,72.764 151.136,72.764 
	148.162,75.774 148.162,83.912 145.152,86.922 121.294,86.922 118.322,89.859 118.322,121.967 121.294,124.939 250.802,124.939 
	253.812,121.967 253.812,89.859 "/>
<path fill="#FFFFFF" d="M165.035,134.376c-44.333,0-80.306,36.045-80.306,80.342s35.973,80.306,80.306,80.306
	c44.297,0,80.306-36.009,80.306-80.306v-2.602l-0.522-5.5c-3.046-12.969-14.641-22.629-28.502-22.629h-6.02l-2.974,2.971v27.76
	c0,14.53-7.433,27.388-18.581,34.97l-2.565-1.377v-72.873l2.974-3.01h29.245c23.301,0,42.29,18.989,42.29,42.29v64.549l2.974,2.974
	h32.069l3.048-2.974v-64.549c0-44.297-36.048-80.342-80.381-80.342H165.035 M145.452,177.296l2.713,1.674v71.499l-2.713,1.708
	c-13.491-7.097-22.706-21.218-22.706-37.458S131.961,184.321,145.452,177.296"/>
</svg>
