<?xml version="1.0" encoding="utf-8"?>
<!-- Generator: Adobe Illustrator 27.2.0, SVG Export Plug-In . SVG Version: 6.00 Build 0)  -->
<svg version="1.1" id="레이어_1" xmlns="http://www.w3.org/2000/svg" xmlns:xlink="http://www.w3.org/1999/xlink" x="0px"
	 y="0px" viewBox="0 0 720 161.66" enable-background="new 0 0 720 161.66" xml:space="preserve">
<g>
	<polygon fill="#626128" points="12.133,117.032 2.045,120.392 89.383,128.8 115.816,91.199 98.871,95.887 	"/>
</g>
<g>
	<path fill="#626128" d="M89.383,130.846c-0.063,0-0.131-0.009-0.194-0.009l-87.337-8.409c-0.964-0.09-1.731-0.847-1.839-1.803
		c-0.108-0.964,0.469-1.866,1.388-2.172l10.086-3.362c0.05-0.018,0.104-0.036,0.162-0.045l86.742-21.145l16.882-4.678
		c0.829-0.207,1.712,0.09,2.217,0.793c0.496,0.712,0.496,1.649,0,2.352l-26.435,37.603
		C90.671,130.521,90.045,130.846,89.383,130.846z M11.843,119.282l76.553,7.373l22.47-31.97l-11.447,3.173L11.843,119.282z"/>
</g>
<g>
	<polygon fill="#626128" points="133.233,116.314 123.146,119.664 210.484,128.081 236.917,90.472 219.972,95.169 	"/>
</g>
<g>
	<path fill="#626128" d="M210.483,130.125c-0.063,0-0.131-0.009-0.198-0.009l-87.337-8.418c-0.96-0.099-1.726-0.847-1.834-1.812
		c-0.108-0.955,0.473-1.866,1.388-2.163l10.086-3.344c0.054-0.018,0.108-0.036,0.162-0.045l86.742-21.145l16.882-4.682
		c0.825-0.243,1.712,0.09,2.217,0.789c0.496,0.712,0.496,1.649,0,2.352l-26.435,37.603
		C211.772,129.8,211.145,130.125,210.483,130.125z M132.979,118.552l76.517,7.382l22.465-31.961l-11.442,3.173L132.979,118.552z"/>
</g>
<g>
	<polygon fill="#626128" points="252.417,116.556 242.32,119.915 329.667,128.323 356.1,90.713 339.155,95.411 	"/>
</g>
<g>
	<path fill="#626128" d="M329.668,130.368c-0.063,0-0.131-0.009-0.194-0.009l-87.346-8.409c-0.964-0.099-1.731-0.847-1.839-1.812
		c-0.108-0.955,0.473-1.857,1.388-2.163l10.095-3.353c0.054-0.018,0.108-0.036,0.162-0.045l86.738-21.145l16.882-4.691
		c0.825-0.23,1.712,0.086,2.217,0.789c0.496,0.703,0.496,1.649,0,2.352l-26.431,37.612
		C330.957,130.043,330.33,130.368,329.668,130.368z M252.141,118.804l76.539,7.373l22.461-31.97l-11.442,3.182L252.141,118.804z"/>
</g>
<g>
	<polygon fill="#626128" points="373.032,116.556 362.945,119.915 450.283,128.323 476.716,90.713 459.771,95.411 	"/>
</g>
<g>
	<path fill="#626128" d="M450.281,130.368c-0.063,0-0.126-0.009-0.198-0.009l-87.333-8.409c-0.964-0.099-1.731-0.847-1.839-1.812
		c-0.108-0.955,0.469-1.857,1.388-2.163l10.081-3.353c0.054-0.018,0.108-0.036,0.162-0.045l86.742-21.145l16.882-4.691
		c0.82-0.221,1.721,0.086,2.217,0.789c0.505,0.712,0.505,1.649,0.009,2.352l-26.435,37.612
		C451.57,130.043,450.939,130.368,450.281,130.368z M372.759,118.804l76.53,7.373l22.47-31.97l-11.438,3.182L372.759,118.804z"/>
</g>
<g>
	<polygon fill="#626128" points="493.653,116.076 483.565,119.435 570.903,127.843 597.336,90.243 580.4,94.931 	"/>
</g>
<g>
	<path fill="#626128" d="M570.904,129.89c-0.063,0-0.126-0.009-0.198-0.009l-87.337-8.409c-0.955-0.09-1.721-0.847-1.83-1.803
		c-0.108-0.964,0.469-1.866,1.379-2.172l10.086-3.362c0.054-0.018,0.108-0.036,0.162-0.045l86.751-21.145l16.873-4.673
		c0.874-0.243,1.721,0.09,2.217,0.789c0.505,0.712,0.505,1.649,0.009,2.352l-26.435,37.603
		C572.193,129.566,571.562,129.89,570.904,129.89z M493.364,118.326l76.548,7.373l22.47-31.97l-11.438,3.173L493.364,118.326z"/>
</g>
<g>
	<polygon fill="#626128" points="614.273,116.076 604.185,119.435 691.533,127.843 717.957,90.243 701.011,94.931 	"/>
</g>
<g>
	<path fill="#626128" d="M691.535,129.89c-0.063,0-0.126-0.009-0.198-0.009l-87.346-8.409c-0.955-0.09-1.721-0.847-1.83-1.803
		c-0.108-0.964,0.469-1.866,1.379-2.172l10.086-3.362c0.054-0.018,0.108-0.036,0.162-0.045l86.733-21.145l16.891-4.673
		c0.829-0.243,1.712,0.09,2.208,0.789c0.505,0.712,0.505,1.649,0.009,2.352l-26.417,37.603
		C692.824,129.566,692.193,129.89,691.535,129.89z M613.987,118.326l76.557,7.373l22.461-31.97l-11.456,3.173L613.987,118.326z"/>
</g>
<g>
	<path d="M36.65,156.946h-7.67v-4.135h-5.169v4.135h-7.707v-12.801l7.162-3.138h6.211l7.171,3.138V156.946z M28.98,150.466v-5.593
		l-2.317-0.018l-2.852,0.018v5.593H28.98z"/>
</g>
<g>
	<path d="M51.813,156.946c-0.545-0.637-1.726-2.095-2.824-3.479c0.009-1.264,0-9.792,0-9.792h7.707v10.891h5.159v-10.891h7.679
		v13.272H51.813z"/>
</g>
<g>
	<path d="M102.415,158.12c0,2.289-3.11,3.461-7.356,3.461H85.018v-2.363h9.728l-0.037-2.261c0,0-7.716,0-9.396-0.018
		c-0.914-0.969-1.91-1.864-3.452-3.47v-6.322c0.877-1.043,1.92-2.4,2.833-3.415c1.218-0.009,17.656,0.065,17.656,0.065
		L102.415,158.12z M94.746,146.039h-5.159v8.528h5.159V146.039z"/>
</g>
<g>
	<path d="M178.89,156.921c0,0-14.038,0-15.745-0.037c-0.692-1.006-1.911-2.769-2.677-3.969c0.074-0.664,0.028-5.768,0.028-5.768
		c0.969-1.338,1.809-2.252,2.492-3.452c1.449,0,14.296,0.037,14.989,0c0.821,0.794,2.003,2.058,3.073,3.452v4.329h-12.829v3.092
		l10.669-0.037V156.921z M173.38,146.039h-5.159v3.092h5.159V146.039z"/>
</g>
<g>
	<path d="M213.931,156.943h-7.67l-0.018-10.835l-5.141,0.046v10.789h-7.716V143.68c0,0,15.404,0.018,17.767,0.055
		c0.858,1.071,1.818,2.132,2.778,3.415C213.949,148.23,213.931,156.943,213.931,156.943"/>
</g>
<g>
	<path d="M239.415,156.943c0,0-9.1,0.028-9.663-0.018c-0.849-0.978-1.347-1.541-2.289-2.741c-0.102-0.323-0.102-8.094-0.102-8.094
		h-3.064v-2.234h3.064v-2.843h7.716v2.843h4.338v2.234h-4.338v8.611h4.338V156.943z"/>
</g>
<g>
	<path d="M303.635,156.847c0,0-14.49,0.148-16.438,0.148c-1.209-0.941-2.418-2.123-4.07-3.526c0.046-0.711,0-6.322,0-6.322
		c1.191-1.135,2.778-2.833,3.636-3.563c2.234,0,9.303-0.074,9.303-0.074l-0.065-4.476h7.67L303.635,156.847z M296.003,146.039
		h-5.168v8.528h5.168V146.039z"/>
</g>
<g>
	<path d="M356.492,156.994l-7.522-0.055v-6.793h-5.15v6.793h-7.716v-15.93c0,0,14.278,0.009,14.758,0.046
		c2.455,1.08,4.476,1.735,5.621,2.28c-0.065,1.477,0.009,2.843-0.028,4.043c-1.191,0.591-1.874,0.951-3.276,1.606
		c0.314,0.055,2.547,1.301,3.35,1.754C356.566,152.518,356.492,156.994,356.492,156.994 M348.97,143.381h-5.159v4.421h5.159V143.381
		z"/>
</g>
<g>
	<path d="M422.28,156.874c0,0-15.893-0.065-17.333-0.065c-1.144-0.849-2.234-1.652-3.101-2.326c0,0,0.018-1.597-0.018-2.889
		c1.154-1.052,1.883-1.698,2.796-2.464c1.301,0.028,10.116,0.009,10.116,0.009v-3.101h-5.021v1.606l-7.042,0.009
		c0,0-0.018-1.015,0.018-1.874c1.172-0.683,2.464-1.357,3.913-2.077c1.329,0,9.995,0.018,11.814,0.028
		c1.311,0.904,2.723,1.791,3.839,2.566C422.261,147.137,422.28,156.874,422.28,156.874 M414.739,151.475h-5.168v3.092h5.168V151.475
		z"/>
</g>
<g>
	<path d="M446.292,156.943c0,0-8.463-0.028-9.183-0.064c-0.748-0.868-1.523-1.735-2.289-2.677
		c-0.046-1.827-0.083-15.173-0.083-15.173h7.716v15.542h3.839V156.943z"/>
</g>
<g>
	<path d="M464.828,141.692h-7.716v-2.658h7.716V141.692z M464.828,156.939h-7.716v-13.263h7.716V156.939z"/>
</g>
<g>
	<path d="M521.635,159.251c-1.144,0.545-3.055,1.458-4.892,2.317c-2.27,0.148-12.432,0.074-12.432,0.074l-0.018-2.427h9.728
		l0.028-2.335c0,0-7.642-0.028-9.543-0.028c-1.2-1.227-2.132-2.086-3.359-3.387v-9.783h7.716v10.891h5.159v-10.891l7.596-0.028
		C521.616,143.653,521.616,156.851,521.635,159.251"/>
</g>
<g>
	<path d="M574.54,156.919c0,0-14.093,0-16.133,0.019c-1.643-0.923-2.972-1.708-4.227-2.4c0-0.471,0.018-10.798,0.018-11.149
		c0.766-0.36,4.19-1.864,5.353-2.317c1.615-0.018,9.552-0.018,10.937,0c1.763,0.757,2.289,0.941,4.126,1.754l0.055,3.064h-7.679
		v-2.501h-5.15v11.177l5.132,0.028l0.018-1.975l-1.874-0.018l-0.018-1.984l9.488,0.028L574.54,156.919z"/>
</g>
<g>
	<polygon points="653.264,156.943 645.585,156.943 645.585,146.32 643.951,144.354 640.435,147.077 640.435,156.943 
		632.756,156.943 632.756,147.077 629.24,144.354 627.597,146.32 627.597,156.943 619.881,156.943 619.881,144.566 623.905,141.013 
		631.621,141.013 636.595,144.797 641.57,141.013 649.24,141.013 653.264,144.566 	"/>
</g>
<g>
	<path d="M679.518,156.943c0,0-8.777,0.028-10.125,0.009c-0.701-0.655-2.16-1.947-3.756-3.489v-8.98
		c1.477-1.458,2.529-2.603,3.313-3.443c1.061-0.037,10.568-0.028,10.568-0.028v2.372h-6.156v4.421h6.156v2.344h-6.156v4.421h6.156
		V156.943z"/>
</g>
<g>
	<path d="M711.221,154.074c-1.606,0.858-3.803,1.901-5.713,2.76c-1.274,0.018-12.534,0.102-13.613,0.046
		c0.037-1.08,0.037-2.298,0.037-2.298l11.657-0.009v-3.996c0,0-8.02,0.065-9.395-0.037c-1.218-0.803-1.984-1.274-3.452-2.234
		l0.009-4.522c2.067-0.997,3.738-1.855,5.584-2.695c0.84-0.018,11.325-0.037,13.632-0.037c0.065,0.729,0,2.354,0,2.354
		l-11.537-0.018l-0.037,3.941c0,0,6.738,0,8.104,0.046c1.431,0.923,3.175,1.984,4.744,2.963
		C711.24,150.336,711.221,153.216,711.221,154.074"/>
</g>
<g>
	<path d="M148.174,146.348c-0.988-0.545-3.23-1.8-4.827-2.557c-2.63,0.009-2.612,0-28.602-0.018v13.272l7.716-0.102v-10.9h5.159
		v10.9h7.679v-10.9h5.159v10.9h7.67C148.128,156.944,148.146,147.677,148.174,146.348 M135.271,145.979h0.018l0.009,0.046
		C135.28,146.007,135.28,145.998,135.271,145.979"/>
</g>
<g>
	<path d="M268.499,156.921c0,0-14.038-0.046-15.755-0.037c-0.683-0.969-1.92-2.732-2.612-3.904c0-0.868-0.028-5.833-0.028-5.833
		c0.96-1.338,1.661-2.289,2.492-3.452c1.449,0,14.287,0.037,14.979,0c0.692,0.858,1.984,2.113,3.083,3.452v4.329h-12.838v3.092
		l10.688,0.018L268.499,156.921z M262.989,146.039h-5.159v3.092h5.159V146.039z"/>
</g>
<g>
	<path d="M490.804,156.874c0,0-8.99,0-9.691,0.009c-0.812-0.969-1.338-1.597-2.27-2.704c-0.009-1.467-0.009-8.104-0.009-8.104
		l-3.156,0.009v-2.224h3.064v-2.852h7.725v2.852h4.329v2.224h-4.329v8.62h4.329L490.804,156.874z"/>
</g>
<g>
	<path d="M607.915,156.946h-7.67v-4.135h-5.169v4.135h-7.716v-12.801l7.18-3.138h6.202l7.171,3.138V156.946z M600.245,150.466
		v-5.593l-2.317-0.018l-2.852,0.018v5.593H600.245z"/>
</g>
<g>
	<path d="M387.328,156.921c0,0-14.038-0.046-15.745-0.037c-0.692-0.969-1.929-2.732-2.621-3.904c0-0.868-0.018-5.833-0.018-5.833
		c0.951-1.338,1.652-2.289,2.483-3.452c1.458,0,14.297,0.037,14.989,0c0.683,0.858,1.984,2.113,3.073,3.452v4.329h-12.829v3.092
		l10.679,0.018L387.328,156.921z M381.818,146.039h-5.159v3.092h5.159V146.039z"/>
</g>
<g>
	<polygon fill="#FCC800" points="35.728,0.032 1.57,37.079 2.041,119.904 89.379,128.312 115.812,90.712 115.452,8.422 	"/>
</g>
<g>
	<polygon fill="#E49D00" points="89.025,46.142 115.477,8.421 115.818,91.08 89.385,128.32 	"/>
</g>
<g>
	<polygon fill="#FCC800" points="275.826,0 241.853,37.075 242.323,119.909 329.662,128.317 356.095,90.716 355.947,8.454 	"/>
</g>
<g>
	<polygon fill="#E49D00" points="329.304,46.142 355.922,8.449 356.097,91.08 329.664,128.32 	"/>
</g>
<g>
	<path d="M329.24,46.424l-87.394-9.359l0.498-0.489c0,0,77.472,5.261,86.351,5.962c3.073-3.359,14.786-18.191,22.354-27.199
		C347.44,20.739,329.24,46.424,329.24,46.424"/>
</g>
<g>
	<polygon fill="#FCC800" points="395.622,0.73 362.47,37.075 362.941,119.91 450.279,128.318 476.712,90.717 476.352,8.418 	"/>
</g>
<g>
	<polygon points="362.459,37.11 395.62,0.727 476.295,8.517 449.982,46.062 	"/>
</g>
<g>
	<polygon fill="#E49D00" points="449.925,46.142 476.385,8.402 476.708,91.08 450.275,128.32 	"/>
</g>
<g>
	<polygon fill="#FCC800" points="359.958,29.669 448.616,38.317 476.406,8.423 396.1,0.375 	"/>
</g>
<g>
	<polygon fill="#FCC800" points="516.292,1.211 483.084,37.076 483.564,119.911 570.902,128.319 597.335,90.718 596.966,8.419 	"/>
</g>
<g>
	<polygon points="483.04,37.159 516.247,1.118 597.06,8.298 570.498,45.973 	"/>
</g>
<g>
	<polygon fill="#E49D00" points="570.448,46.016 597.112,8.212 597.333,91.074 570.9,128.315 	"/>
</g>
<g>
	<polygon fill="#FCC800" points="479.545,25.31 571.091,33.718 597.1,8.217 516.785,0.012 	"/>
</g>
<g>
	<polygon fill="#FCC800" points="636.919,1.211 603.712,37.076 604.183,119.911 691.521,128.319 717.954,90.718 717.585,8.419 	"/>
</g>
<g>
	<polygon fill="#E49D00" points="690.923,45.79 717.753,8.429 717.956,91.079 691.523,128.319 	"/>
</g>
<g>
	<polygon fill="#FCC800" points="156.058,0.161 122.195,37.079 122.666,119.904 210.004,128.312 236.437,90.711 236.077,8.422 	"/>
</g>
<g>
	<polygon fill="#E49D00" points="209.645,46.142 236.087,8.439 236.428,91.08 210.005,128.32 	"/>
</g>
<g>
	<path d="M209.669,46l-52.266-5.473l0.729-0.48c0,0,42.4,3.59,51.288,4.292c1.661-2.03,13.438-17.167,13.438-17.167L209.669,46z"/>
</g>
<g>
	<path fill="#FFFFFF" d="M276.901,57.655l10.771,0.932v3.738l8.408,0.738v7.273l-16.318-1.421v3.987l14.767,1.301v29.045
		l-8.242,5.565l-4.495-0.388v-7.014l1.56,0.129l2.04-1.458v-20.12l-5.63-0.498v22.021l-2.455,4.846l-5.713,1.191l-5.307-0.452
		l5.953,1.901l51.03,4.458v7.864l-52.903-4.633l-9.469-3.442l-12.81,2.021v-7.864l3.913-2.086V88.509l-3.913-0.342v-8.131
		l14.776,1.292v22.298l3.175,3.35v-7.208l1.957,0.166l2.049-3.286V68.065l-3.267-0.295v-7.273l10.125,0.886V57.655z M250.698,55.089
		l12.164,1.071v9.765l-12.164-1.061V55.089z M250.698,67.742l12.164,1.071v9.635l-12.164-1.071V67.742z M296.735,74.664
		l25.879,2.261v5.242l-4.079,5.935l5.307,0.462v7.54l-7.43-0.646v10.466l-5.63,4.772l-11.435-1.006v-7.005l5.639,0.489l1.551-2.501
		v-6.082l-10.457-0.914v-7.54l11.841,1.034l2.529-4.033l-13.715-1.209V74.664z M300.98,59.491l10.125,0.886l-0.988,3.064
		l13.152,1.154v7.402l-15.432-1.357l-6.119,3.073l-4.661-0.406v-7.014l1.394,0.12l1.052-1.154L300.98,59.491z"/>
</g>
<g>
	<path fill="#FFFFFF" d="M323.268,125.005c-0.108,0-0.216-0.009-0.324-0.018l-52.902-4.633c-0.32-0.027-0.64-0.099-0.942-0.207
		l-8.571-3.119l-11.866,1.875c-1.077,0.153-2.159-0.144-2.988-0.847c-0.825-0.703-1.298-1.74-1.298-2.821v-7.859
		c0-1.37,0.753-2.632,1.96-3.272l1.956-1.046V91.909l-0.527-0.045c-1.915-0.162-3.389-1.767-3.389-3.695v-8.134
		c0-1.041,0.437-2.032,1.203-2.735c0.41-0.374,0.892-0.649,1.411-0.811V67.74c0-0.5,0.099-0.987,0.288-1.438
		c-0.185-0.446-0.288-0.933-0.288-1.442v-9.77c0-1.041,0.437-2.032,1.203-2.735c0.766-0.708,1.807-1.073,2.83-0.96l12.163,1.068
		c1.915,0.167,3.384,1.771,3.384,3.695v0.635c0.167-0.023,0.347-0.005,0.527,0.009l6.106,0.532c0.077-0.919,0.5-1.785,1.19-2.416
		c0.766-0.708,1.794-1.055,2.826-0.96l10.771,0.933c1.92,0.167,3.389,1.771,3.389,3.695v0.338l5.025,0.442
		c0.257,0.023,0.505,0.072,0.739,0.14l0.239-0.933c0.451-1.762,2.041-2.956,3.921-2.776l10.126,0.883
		c1.122,0.099,2.141,0.703,2.767,1.645c0.361,0.541,0.568,1.167,0.608,1.803l8.788,0.771c1.915,0.167,3.384,1.771,3.384,3.695v7.404
		c0,1.041-0.437,2.032-1.203,2.735c-0.032,0.032-0.068,0.059-0.099,0.09c0.41,0.599,0.649,1.325,0.649,2.1v5.241
		c0,0.748-0.225,1.483-0.649,2.1l-0.559,0.816c1.429,0.523,2.434,1.893,2.434,3.484V96.1c0,1.037-0.433,2.028-1.199,2.731
		s-1.758,1.064-2.83,0.964l-3.398-0.288v6.417c0,1.091-0.478,2.127-1.311,2.83l-0.613,0.523l5.394,0.46
		c1.915,0.171,3.384,1.776,3.384,3.695v7.859c0,1.037-0.437,2.037-1.203,2.74C325.089,124.654,324.192,125.005,323.268,125.005z
		 M271.177,113.009l48.382,4.236v-0.415l-47.643-4.164l-6.76-2.064c-0.086-0.027-0.176-0.063-0.261-0.09
		c-0.577-0.189-1.113-0.523-1.55-0.982l-3.177-3.353c-0.653-0.685-1.014-1.604-1.014-2.551V84.725l-7.359-0.64v0.68l0.527,0.045
		c1.915,0.162,3.389,1.771,3.389,3.695v16.778c0,1.37-0.753,2.632-1.96,3.272l-1.956,1.046v1.289l8.526-1.343
		c0.617-0.09,1.257-0.027,1.843,0.18L271.177,113.009z M295.157,107.303l0.482,0.036v-0.361L295.157,107.303z M306.441,106.591
		l3.123,0.27l3.141-2.659V95.46c0-1.037,0.433-2.028,1.199-2.731c0.766-0.703,1.758-1.055,2.83-0.964l3.398,0.288v-0.09l-1.92-0.162
		c-1.311-0.117-2.47-0.919-3.033-2.118c-0.563-1.194-0.446-2.596,0.297-3.682l3.429-5.678l-7.044-0.613
		c0.82,0.338,1.501,0.964,1.906,1.78c0.577,1.154,0.509,2.528-0.18,3.623l-2.528,4.029c-0.739,1.172-2.136,1.866-3.461,1.722
		l-7.81-0.676v0.09l7.071,0.622c1.915,0.171,3.384,1.776,3.384,3.695v6.075c0,0.694-0.189,1.37-0.554,1.956l-1.55,2.506
		C307.73,105.789,307.13,106.294,306.441,106.591z M285.499,104.572v0.297l5.322-3.596V77.601l-2.79-0.248
		c0.662,0.676,1.068,1.595,1.068,2.609v20.122c0,1.199-0.577,2.316-1.546,3.019l-2.037,1.46
		C285.513,104.563,285.503,104.563,285.499,104.572z M269.749,103.644l1.618,0.135l3.434-0.721l1.253-2.461V79.462
		c0-1.041,0.437-2.032,1.203-2.735c0.234-0.216,0.496-0.397,0.771-0.545c-1.181-0.626-1.974-1.866-1.974-3.281v-3.984
		c0-1.041,0.437-2.032,1.203-2.735c0.766-0.703,1.812-1.05,2.826-0.96l6.183,0.536c-1.361-0.554-2.303-1.893-2.303-3.434V61.99
		l-3.366-0.293c-0.077,0.924-0.5,1.789-1.19,2.42c-0.766,0.708-1.798,1.055-2.83,0.96l-5.128-0.446
		c1.361,0.554,2.303,1.893,2.303,3.434V96.65c0,0.694-0.194,1.37-0.559,1.965l-2.046,3.281c-0.352,0.559-0.834,1-1.397,1.307
		V103.644z M299.348,98.975c0.108,0,0.212,0.009,0.32,0.018l3.159,0.27v-1.271l-4.588-0.406v1.559
		C298.595,99.038,298.969,98.975,299.348,98.975z M266.283,79.885c0.018,0.041,0.032,0.081,0.05,0.122v-0.243
		C266.315,79.804,266.301,79.845,266.283,79.885z M254.408,73.982l4.745,0.415v-2.186l-4.745-0.419V73.982z M300.767,69.903
		l0.225,0.023l5.183-2.6c0.613-0.311,1.289-0.437,1.987-0.379l1.05,0.09c-0.888-0.221-1.672-0.771-2.186-1.546
		c-0.361-0.541-0.568-1.163-0.608-1.798l-2.623-0.23l-0.694,2.717c-0.153,0.59-0.446,1.136-0.856,1.582l-1.055,1.154
		c-0.131,0.144-0.275,0.275-0.424,0.397V69.903z M254.408,61.463l4.745,0.415v-2.321l-4.745-0.415V61.463z"/>
</g>
<g>
	<path fill="#FFFFFF" d="M380.756,56.006l9.792,0.858v1.375l22.132,1.938v5.778l-22.132-1.947v1.255l23.23,2.012l0.028,7.3
		l-7.42-0.738l-0.138-1.532l-27.208-2.28v38.81l-9.063,6.608l-2.363-0.203v-6.617l0.323,0.018l2.04-1.597V63.454l10.78,0.941V56.006
		z M382.629,107.303l9.146,0.803l0.895,2.704l8.648,0.757l0.904-2.806l9.229,0.812l-0.988,2.787l5.233,0.462v6.359l-35.93-3.138
		v-6.359l3.839,0.332L382.629,107.303z M411.12,75.185v5.51l-17.628-1.541l2.206,1.56l16.41,1.44v5.187l-18.616-1.634l-9.479-6.008
		v-1.375l-3.913-0.342v-5.51l3.913,0.342v-1.246l9.479,0.831v1.246L411.12,75.185z M413.649,88.844v5.971l-32.894-2.88v-5.962
		L413.649,88.844z M381.651,93.911l31.352,2.75v8.122l-4.495,3.286l-26.858-2.354V93.911z M403.202,102.818l0.738-0.268v-2.03
		l-13.06-1.144v2.363L403.202,102.818z M445.417,74.825v7.273l-16.835-1.384l2.621,20.425l1.477-1.514V83.953l8.731,0.766v20.452
		l-7.679,4.19l-1.384,0.064l0.332,2.261l1.864,2.003l8.251,0.72v6.885l-13.392-1.172l-6.285-6.322l-0.48-3.784l-8.611,0.784
		l-0.046-8.288l7.67-0.378l-2.695-21.541l-4.504-0.415v-7.402l3.609,0.388l-1.79-14.306l9.543,0.831l1.717,13.66l17.905,1.477
		H445.417z M454.194,75.508l-8.759-0.766v-9.026l8.759,0.766V75.508z"/>
</g>
<g>
	<path fill="#FFFFFF" d="M442.8,125.005c-0.108,0-0.216-0.009-0.324-0.018l-13.393-1.172c-0.874-0.072-1.685-0.46-2.307-1.082
		l-6.291-6.318c-0.577-0.577-0.946-1.334-1.046-2.145l-0.027-0.216v5.128c0,1.037-0.442,2.037-1.208,2.731
		c-0.766,0.703-1.794,1.027-2.83,0.964l-35.926-3.137c-1.911-0.162-3.389-1.776-3.389-3.695v-0.451l-3.903,2.848
		c-0.712,0.523-1.595,0.784-2.488,0.694l-2.361-0.198c-1.924-0.162-3.402-1.767-3.402-3.695v-6.625c0-1.018,0.419-1.992,1.158-2.695
		c0.352-0.333,0.762-0.586,1.203-0.757V63.454c0-1.041,0.437-2.032,1.203-2.735c0.766-0.703,1.776-1.05,2.83-0.96l6.742,0.59v-4.344
		c0-1.041,0.442-2.032,1.208-2.735s1.839-1.023,2.83-0.96l9.797,0.861c1.154,0.099,2.136,0.721,2.749,1.613l19.378,1.699
		c0.126,0.009,0.252,0.027,0.379,0.054c0.072-0.09,0.144-0.171,0.225-0.252c0.766-0.811,1.866-1.248,2.992-1.122l9.536,0.829
		c1.74,0.149,3.137,1.496,3.353,3.231l1.352,10.672l10.879,0.901v-5.079c0-1.041,0.442-2.032,1.208-2.735
		c0.766-0.708,1.767-1.064,2.83-0.96l8.761,0.766c1.911,0.167,3.389,1.771,3.389,3.695v9.027c0,1.041-0.442,2.032-1.208,2.735
		c-0.766,0.703-1.812,1.032-2.83,0.96l-4.741-0.415v3.308c0,1.037-0.433,2.028-1.199,2.731c-0.757,0.694-1.875,1-2.803,0.969v19.369
		c0,1.361-0.748,2.605-1.938,3.254l-3.623,1.983l3.551,0.306c1.92,0.162,3.398,1.767,3.398,3.695v6.886
		c0,1.037-0.442,2.037-1.208,2.731C444.621,124.654,443.729,125.005,442.8,125.005z M431.083,116.542l1.217,0.108
		c-0.171-0.126-0.324-0.27-0.478-0.433l-1.866-2.01c-0.505-0.55-0.838-1.235-0.946-1.983l-0.333-2.253
		c-0.153-1.027,0.135-2.082,0.793-2.893c0.667-0.802,1.64-1.298,2.686-1.352l0.541-0.027l5.002-2.731V88.119l-1.307-0.113v11.618
		c0,0.964-0.379,1.902-1.055,2.596l-1.478,1.514c-1,1.018-2.488,1.397-3.84,0.919c-1.343-0.451-2.316-1.631-2.497-3.046
		l-2.614-20.419c-0.144-1.113,0.225-2.226,0.991-3.037c0.523-0.536,1.181-0.901,1.893-1.059l-0.568-0.045
		c-1.749-0.149-3.155-1.496-3.371-3.236l-1.352-10.685l-1.974-0.176l1.208,9.752c0.144,1.127-0.234,2.253-1.027,3.06
		c-0.577,0.586-1.325,0.955-2.118,1.073l0.712,0.063c1.731,0.162,3.119,1.505,3.335,3.236l2.695,21.546
		c0.135,1.027-0.171,2.055-0.838,2.848c-0.658,0.784-1.622,1.262-2.659,1.316l-4.119,0.207v0.685l4.588-0.415
		c1.902-0.216,3.758,1.253,4.011,3.227l0.324,2.533L431.083,116.542z M403.702,114.415l3.93,0.342
		c-0.108-0.126-0.207-0.252-0.288-0.397c-0.297-0.451-0.478-0.955-0.55-1.469l-1.947-0.171
		C404.63,113.396,404.224,113.973,403.702,114.415z M385.991,112.864l3.84,0.333c-0.297-0.352-0.532-0.766-0.685-1.226l-0.126-0.388
		l-1.974-0.171c-0.117,0.306-0.288,0.595-0.496,0.865C386.387,112.495,386.198,112.693,385.991,112.864z M373.688,67.501v39.541
		c0,0.442-0.081,0.865-0.225,1.271l1.866-1.361V70.025c0-0.843,0.288-1.654,0.811-2.307L373.688,67.501z M407.244,104.239
		l0.198,0.009l1.848-1.352v-2.839l-1.694-0.144c0.036,0.198,0.054,0.397,0.054,0.604v2.037
		C407.649,103.148,407.505,103.725,407.244,104.239z M385.369,102.319l1.884,0.162c-0.054-0.234-0.081-0.487-0.081-0.739v-2.37
		c0-0.424,0.072-0.838,0.216-1.235l-2.019-0.18V102.319z M416.716,96.92v1.749l0.757-0.036l-0.315-2.587
		C417.05,96.352,416.897,96.65,416.716,96.92z M415.824,85.834c0.018,0.014,0.036,0.032,0.063,0.045l-0.063-0.496V85.834z
		 M387.658,77.614l2.127,1.347c0.018-0.361,0.09-0.726,0.216-1.082c0.216-0.581,0.568-1.086,1-1.483
		c-0.18-0.162-0.342-0.342-0.487-0.536l-3.957-0.347c-0.009,0.014-0.018,0.023-0.036,0.036c-0.009,0.005-0.009,0.014-0.018,0.018
		C387.09,76.1,387.505,76.812,387.658,77.614z M449.146,71.345l1.334,0.117v-1.582l-1.334-0.117V71.345z M383.674,66.69l3.596,0.302
		c-0.279-0.518-0.433-1.109-0.433-1.731v-1.253c0-1.041,0.442-2.032,1.208-2.735c0.054-0.054,0.117-0.099,0.171-0.149
		c-0.288-0.23-0.532-0.5-0.739-0.802l-3.01-0.266v4.34C384.468,65.235,384.179,66.041,383.674,66.69z"/>
</g>
<g>
	<path fill="#FFFFFF" d="M501.779,54.876l10.78,0.941l-9.553,9.193l4.236,0.369l4.993-4.541l11.675,1.025l-19.594,18.21l7.919,0.692
		l1.227-1.264v-5.51l8.888,0.775v8.703l-1.874,3.415l-5.307,1.68l-2.935-0.258v2.63l8.076,0.711l2.04,12.017l1.56,2.234l0.323,0.028
		v3.95l1.707,0.148V58.032l36.493,3.203v51.98l2.363,0.212v7.864l-41.136-3.599v-4.006l-3.59-0.304l-4.901-4.827l-2.935-15.856
		v24.255l-9.802-0.858V94.728l-2.446,12.635l-6.451,5.528l-3.923-0.342v-8.39l0.978,0.083l1.394-2.501l1.874-12.681l8.574,0.748
		v-2.298l-11.094-0.969v-5.51l2.28-2.944l6.442-6.055l-8.399-0.738v-6.027l0.655-1.126L501.779,54.876z M536.389,76.851
		l15.598,1.357V67.852l-15.598-1.366V76.851z M536.389,94.156l15.598,1.366V85.231l-15.598-1.366V94.156z M536.389,110.935
		l15.598,1.366v-9.765l-15.598-1.366V110.935z"/>
</g>
<g>
	<path fill="#FFFFFF" d="M564.793,125.005c-0.108,0-0.216-0.009-0.324-0.018l-41.136-3.596c-1.911-0.171-3.389-1.776-3.389-3.695
		l-0.189-0.622c-0.865-0.072-1.667-0.442-2.289-1.055l-1.514-1.487v2.425c0,1.037-0.442,2.037-1.208,2.74
		c-0.766,0.703-1.767,1.046-2.83,0.955l-9.806-0.865c-1.92-0.171-3.389-1.776-3.389-3.695v-2.758l-2.767,2.379
		c-0.757,0.649-1.74,0.964-2.74,0.874l-3.921-0.342c-1.911-0.162-3.389-1.776-3.389-3.695v-8.391c0-1.046,0.442-2.037,1.217-2.74
		c0.352-0.324,0.766-0.577,1.217-0.739l0.081-0.153l1.559-10.536c-1.388-0.541-2.352-1.893-2.352-3.448V81.03
		c0-0.825,0.279-1.622,0.784-2.271l3.128-3.749l-0.198-0.018c-1.92-0.167-3.389-1.771-3.389-3.695v-6.03
		c0-0.658,0.18-1.307,0.514-1.875l0.658-1.122c0.162-0.284,0.37-0.545,0.604-0.775l9.464-9.27c0.775-0.762,1.848-1.109,2.92-1.046
		l10.78,0.942c1.451,0.126,2.686,1.086,3.173,2.461c0.333,0.951,0.27,1.978-0.162,2.853l6.327,0.559
		c0.018-1.027,0.451-2.001,1.208-2.695c0.766-0.708,1.767-1.068,2.83-0.96l36.494,3.2c1.92,0.167,3.389,1.771,3.389,3.695v48.729
		c1.388,0.55,2.361,1.902,2.361,3.461v7.868c0,1.037-0.442,2.037-1.208,2.731C566.614,124.654,565.721,125.005,564.793,125.005z
		 M527.37,114.298l33.709,2.947v-0.568c-1.388-0.55-2.361-1.902-2.361-3.461V64.631l-29.067-2.546v47.941
		c0,1.046-0.442,2.037-1.208,2.74c-0.324,0.288-0.694,0.523-1.082,0.685c0,0.081,0.009,0.153,0.009,0.234V114.298z M506.145,112.693
		l2.379,0.207V92.702c0-0.306,0.036-0.604,0.108-0.883c-0.072-0.279-0.108-0.577-0.108-0.883v-2.632
		c0-1.041,0.442-2.037,1.208-2.735c0.766-0.703,1.749-1.041,2.839-0.96l2.181,0.194l3.182-1.005l0.703-1.28v-4.349l-1.46-0.131v1.46
		c0,0.964-0.379,1.888-1.046,2.582l-1.226,1.266c-0.784,0.802-1.92,1.158-2.992,1.113l-7.923-0.694
		c-1.46-0.126-2.713-1.104-3.182-2.492c-0.478-1.384-0.09-2.925,0.982-3.921l13.475-12.524l-1.73-0.153l-3.795,3.448
		c-0.757,0.699-1.776,1.077-2.821,0.951l-4.236-0.37c-1.451-0.126-2.686-1.086-3.173-2.461c-0.487-1.37-0.126-2.898,0.928-3.907
		l3.668-3.533l-0.946-0.086l-7.787,7.63v1.55l5.011,0.442c1.46,0.126,2.704,1.1,3.182,2.483c0.478,1.379,0.099,2.916-0.964,3.916
		l-7.553,7.53v0.87l7.706,0.676c1.911,0.167,3.389,1.771,3.389,3.695v2.298c0,0.91-0.342,1.785-0.937,2.461
		c0.586,0.658,0.937,1.523,0.937,2.461V112.693z M518.601,106.735l1.92,1.884v-1.091l-1.217-1.74
		c-0.306-0.451-0.523-0.964-0.613-1.505l-1.559-9.193l-0.694-0.063L518.601,106.735z M493.328,106.754v1.433l3.263-2.794
		l2.199-11.366c0.054-0.279,0.135-0.541,0.243-0.793l-2.01-0.171l-1.37,9.22c-0.063,0.442-0.207,0.874-0.424,1.262l-1.397,2.506
		C493.688,106.312,493.517,106.546,493.328,106.754z M519.727,70.814l2.497,0.216v-2.537L519.727,70.814z M551.985,116.01
		c-0.108,0-0.216-0.009-0.324-0.018l-15.593-1.361c-1.911-0.162-3.389-1.776-3.389-3.695v-9.761c0-1.037,0.442-2.037,1.208-2.731
		c0.379-0.352,0.829-0.613,1.307-0.775c-1.469-0.505-2.515-1.902-2.515-3.515V83.865c0-1.041,0.442-2.032,1.208-2.735
		c0.379-0.347,0.82-0.608,1.289-0.771c-1.46-0.505-2.497-1.893-2.497-3.506V66.487c0-1.041,0.442-2.032,1.208-2.735
		c0.766-0.703,1.803-1.059,2.83-0.96l15.593,1.365c1.92,0.167,3.389,1.771,3.389,3.695v10.356c0,1.041-0.442,2.032-1.208,2.735
		c-0.379,0.347-0.829,0.613-1.307,0.775c1.469,0.5,2.515,1.893,2.515,3.511v10.293c0,1.037-0.442,2.037-1.208,2.74
		c-0.379,0.342-0.82,0.604-1.289,0.766c1.46,0.505,2.497,1.893,2.497,3.506v9.761c0,1.037-0.442,2.028-1.208,2.731
		C553.806,115.658,552.914,116.01,551.985,116.01z M540.106,107.538l8.166,0.712v-2.316l-8.166-0.712V107.538z M540.106,90.755
		l8.166,0.721v-2.848l-8.166-0.712V90.755z M540.106,73.45l8.166,0.712v-2.911l-8.166-0.712V73.45z"/>
</g>
<g>
	<path fill="#FFFFFF" d="M623.36,57.091l49.23,4.31l5.464,8.869l3.11,3.147l3.581,0.323v8.39l-8.556-0.748l-2.621-0.821v5.574
		l-52.571-4.596v-5.251l-1.883,0.101l-8.565-0.757v-8.39l3.599,0.314l3.258-2.593L623.36,57.091z M613.17,86.358l68.316,5.981
		v22.806l-8.897,4.993l-59.419-5.196V86.358z M624.753,73.474l45.963,4.015l-5.879-8.38l-33.715-2.944L624.753,73.474z
		 M666.387,111.794l2.935-1.578V99.205l-43.997-3.858v12.857L666.387,111.794z"/>
</g>
<g>
	<path fill="#FFFFFF" d="M672.59,123.851c-0.108,0-0.216-0.009-0.324-0.018l-59.423-5.201c-1.92-0.171-3.389-1.776-3.389-3.695
		V86.357c0-1.041,0.442-2.032,1.208-2.735c0.766-0.708,1.776-1.059,2.83-0.96l4.101,0.361c-0.189-0.455-0.306-0.96-0.306-1.483
		v-1.618l-7.057-0.595c-1.92-0.167-3.389-1.771-3.389-3.695v-8.387c0-1.041,0.442-2.032,1.208-2.735
		c0.766-0.703,1.884-1.037,2.821-0.96l2.127,0.18l1.731-1.375l5.678-7.503c0.766-1.014,2.028-1.582,3.281-1.456l49.23,4.308
		c1.172,0.104,2.217,0.753,2.839,1.749l5.462,8.873l1.577,1.514l2.289,0.207c1.911,0.171,3.38,1.776,3.38,3.695v8.387
		c0,1.041-0.442,2.032-1.208,2.735c-0.766,0.708-1.785,1.023-2.83,0.96l-7.147-0.622v0.933c0,0.739-0.225,1.456-0.622,2.06
		l5.156,0.451c1.92,0.167,3.389,1.776,3.389,3.695v22.803c0,1.343-0.73,2.578-1.902,3.236l-8.896,4.993
		C673.852,123.689,673.221,123.851,672.59,123.851z M616.88,111.539l54.89,4.804l6.003-3.371V95.739l-60.893-5.336V111.539z
		 M624.712,78.141l45.138,3.948v-0.951l-45.138-3.948V78.141z M674.383,76.943c0.099,0.023,0.189,0.05,0.288,0.077l2.623,0.82
		l3.74,0.288l-0.207-1.014c-0.874-0.081-1.685-0.464-2.307-1.086l-3.11-3.146l-4.984-7.95l-45.345-3.966l-4.723,6.237
		c-0.189,0.248-0.406,0.469-0.649,0.662l-3.254,2.591c-0.622,0.5-1.397,0.78-2.19,0.807v0.969l5.174,0.46l1.361-0.108
		c0.126-0.018,0.243-0.005,0.352-0.005c0.144-0.559,0.415-1.091,0.811-1.546l6.363-7.31c0.775-0.892,1.956-1.356,3.119-1.257
		l33.718,2.947c1.091,0.095,2.082,0.667,2.713,1.564l5.877,8.378C674.095,75.839,674.302,76.384,674.383,76.943z M632.337,70.413
		l30.771,2.686l-0.315-0.442l-30.113-2.632L632.337,70.413z M617.403,64.964h0.09H617.403z M666.389,115.505
		c-0.108,0-0.216-0.009-0.324-0.018l-41.064-3.587c-1.911-0.162-3.389-1.776-3.389-3.695V95.343c0-1.037,0.442-2.037,1.208-2.74
		c0.766-0.694,1.803-1.064,2.83-0.955l43.993,3.867c1.92,0.171,3.389,1.776,3.389,3.695v11.005c0,1.361-0.748,2.623-1.956,3.263
		l-2.929,1.577C667.606,115.352,667.002,115.505,666.389,115.505z M629.038,104.807l36.566,3.191v-5.39l-36.566-3.218V104.807z"/>
</g>
<g>
	<path fill="#FFFFFF" d="M68.557,119.838l15.229,1.458L61.773,52.195v-0.378l-29.285-3.184l0.009,0.378L8.132,113.922l14.204,1.495
		l6.221-17.674l33.937,3.535L68.557,119.838z M33.605,85.855l8.233-22.603l8.786,0.646l7.762,24.56L33.605,85.855z"/>
</g>
<g>
	<path fill="#FFFFFF" d="M83.785,125.005c-0.117,0-0.234-0.009-0.352-0.018l-15.228-1.451c-1.469-0.144-2.717-1.136-3.177-2.542
		l-5.318-16.278l-28.626-2.983l-5.25,14.917c-0.572,1.613-2.15,2.659-3.889,2.452l-14.2-1.496c-1.145-0.117-2.163-0.757-2.767-1.74
		c-0.604-0.973-0.721-2.172-0.32-3.254l24.25-64.602c0.18-0.735,0.545-1.438,1.073-1.92c0.793-0.726,1.866-1.266,2.907-1.145
		l29.288,3.186c1.884,0.203,3.308,1.794,3.308,3.686l21.834,68.346c0.379,1.19,0.135,2.488-0.644,3.452
		C85.967,124.5,84.903,125.005,83.785,125.005z M71.329,116.38l7.215,0.685L58.846,55.23l-23.754-2.582l-21.798,58.081l6.512,0.694
		l5.25-14.917c0.568-1.622,2.181-2.722,3.885-2.452l33.934,3.533c1.456,0.144,2.69,1.145,3.146,2.533L71.329,116.38z M58.386,92.17
		c-0.126,0-0.257-0.009-0.388-0.027l-24.782-2.596c-1.136-0.117-2.154-0.757-2.758-1.726c-0.608-0.969-0.73-2.163-0.342-3.236
		l8.233-22.605c0.568-1.559,2.159-2.546,3.758-2.429l8.788,0.644c1.514,0.113,2.808,1.136,3.267,2.582l7.76,24.561
		c0.379,1.194,0.126,2.497-0.662,3.461C60.554,91.675,59.495,92.17,58.386,92.17z M38.715,82.661l14.425,1.514l-5.295-16.764
		l-3.479-0.252L38.715,82.661z"/>
</g>
<g>
	<path fill="#FFFFFF" d="M185.876,120.167l13.89,1.126l-11.528-24.301l8.473-8.15l-0.175-0.148l0.157,0.028l0.674-21.218
		l0.092-0.055l-0.083-0.111v-0.074h-0.055l-8.611-11.426l-0.101,0.065l-41.634-3.719l-10.909-1.255v0.055v0.729l-0.028,63.563
		l12.681,1.246l-0.037-20.582l26.359,2.695L185.876,120.167z M149.512,64.523l30.559,2.815l2.15,2.861l-0.277,11.888l-4.975,4.947
		l-28.131-2.64L149.512,64.523z"/>
</g>
<g>
	<path fill="#FFFFFF" d="M199.766,125.005c-0.099,0-0.198-0.009-0.302-0.018l-13.889-1.127c-1.289-0.099-2.429-0.874-3.01-2.028
		l-9.928-19.712l-20.239-2.073l0.032,16.467c0.005,1.046-0.437,2.046-1.212,2.758c-0.784,0.703-1.857,1.009-2.857,0.946
		l-12.681-1.244c-1.902-0.189-3.348-1.785-3.348-3.695l0.027-63.57c0-1.059,0.451-2.461,1.239-3.164
		c0.802-0.699,1.893-1.429,2.893-1.307l10.906,1.257l41.176,3.677c1.059-0.113,2.366,0.451,3.105,1.433l8.36,11.095
		c0.487,0.5,0.834,1.131,0.978,1.83c0.122,0.496,0.144,1.014,0.059,1.51c-0.005,0.014-0.009,0.032-0.009,0.05l-0.662,20.748
		c-0.014,0.437-0.104,0.861-0.261,1.257c-0.167,0.532-0.451,1.027-0.856,1.424l-6.548,6.291l10.383,21.893
		c0.568,1.19,0.455,2.605-0.302,3.695C202.123,124.41,200.978,125.005,199.766,125.005z M188.252,116.632l5.408,0.442l-8.774-18.495
		c-0.685-1.433-0.37-3.155,0.78-4.263l7.364-7.075l0.595-18.716l-6.823-9.058l-47.026-4.376l-0.023,56.828l5.25,0.514l-0.032-16.485
		c-0.005-1.055,0.442-2.055,1.221-2.758c0.78-0.703,1.812-1.009,2.866-0.946l26.359,2.695c1.257,0.135,2.366,0.892,2.934,2.028
		L188.252,116.632z M176.968,90.746c-0.117,0-0.23-0.009-0.347-0.018l-28.13-2.641c-1.956-0.185-3.43-1.861-3.362-3.822
		l0.676-19.869c0.036-1.018,0.491-1.983,1.257-2.659s1.749-0.973,2.794-0.91l30.559,2.817c1.041,0.099,1.996,0.631,2.623,1.469
		l2.15,2.862c0.5,0.662,0.762,1.478,0.744,2.312l-0.279,11.884c-0.023,0.96-0.415,1.87-1.091,2.546l-4.975,4.948
		C178.887,90.359,177.945,90.746,176.968,90.746z M152.664,81.026l22.92,2.15l2.686-2.668l0.212-9.108l-0.388-0.518l-25.007-2.303
		L152.664,81.026z"/>
</g>
<g>
	<path d="M68.557,119.838l15.229,1.458L61.773,52.195v-0.378l-29.285-3.184l0.009,0.378L8.132,113.922l14.204,1.495l6.221-17.674
		l33.937,3.535L68.557,119.838z M33.605,85.855l8.233-22.603l8.786,0.646l7.762,24.56L33.605,85.855z"/>
</g>
<g>
	<path d="M185.876,120.167l13.89,1.126l-11.528-24.301l8.473-8.15l-0.175-0.148l0.157,0.028l0.674-21.218l0.092-0.055l-0.083-0.111
		v-0.074h-0.055l-8.611-11.426l-0.101,0.065l-41.634-3.719l-10.909-1.255v0.055v0.729l-0.028,63.563l12.681,1.246l-0.037-20.582
		l26.359,2.695L185.876,120.167z M149.512,64.523l30.559,2.815l2.15,2.861l-0.277,11.888l-4.975,4.947l-28.131-2.64L149.512,64.523z
		"/>
</g>
<g>
	<path d="M276.901,57.655l10.771,0.932v3.738l8.408,0.738v7.273l-16.318-1.421v3.987l14.767,1.301v29.045l-8.242,5.565l-4.495-0.388
		v-7.014l1.56,0.129l2.04-1.458v-20.12l-5.63-0.498v22.021l-2.455,4.846l-5.713,1.191l-5.307-0.452l5.953,1.901l51.03,4.458v7.864
		l-52.903-4.633l-9.469-3.442l-12.81,2.021v-7.864l3.913-2.086V88.509l-3.913-0.342v-8.131l14.776,1.292v22.298l3.175,3.35v-7.208
		l1.957,0.166l2.049-3.286V68.065l-3.267-0.295v-7.273l10.125,0.886V57.655z M250.698,55.089l12.164,1.071v9.765l-12.164-1.061
		V55.089z M250.698,67.742l12.164,1.071v9.635l-12.164-1.071V67.742z M296.735,74.664l25.879,2.261v5.242l-4.079,5.935l5.307,0.462
		v7.54l-7.43-0.646v10.466l-5.63,4.772l-11.435-1.006v-7.005l5.639,0.489l1.551-2.501v-6.082l-10.457-0.914v-7.54l11.841,1.034
		l2.529-4.033l-13.715-1.209V74.664z M300.98,59.491l10.125,0.886l-0.988,3.064l13.152,1.154v7.402l-15.432-1.357l-6.119,3.073
		l-4.661-0.406v-7.014l1.394,0.12l1.052-1.154L300.98,59.491z"/>
</g>
<g>
	<path d="M380.756,56.006l9.792,0.858v1.375l22.132,1.938v5.778l-22.132-1.947v1.255l23.23,2.012l0.028,7.3l-7.42-0.738
		l-0.138-1.532l-27.208-2.28v38.81l-9.063,6.608l-2.363-0.203v-6.617l0.323,0.018l2.04-1.597V63.454l10.78,0.941V56.006z
		 M382.629,107.303l9.146,0.803l0.895,2.704l8.648,0.757l0.904-2.806l9.229,0.812l-0.988,2.787l5.233,0.462v6.359l-35.93-3.138
		v-6.359l3.839,0.332L382.629,107.303z M411.12,75.185v5.51l-17.628-1.541l2.206,1.56l16.41,1.44v5.187l-18.616-1.634l-9.479-6.008
		v-1.375l-3.913-0.342v-5.51l3.913,0.342v-1.246l9.479,0.831v1.246L411.12,75.185z M413.649,88.844v5.971l-32.894-2.88v-5.962
		L413.649,88.844z M381.651,93.911l31.352,2.75v8.122l-4.495,3.286l-26.858-2.354V93.911z M403.202,102.818l0.738-0.268v-2.03
		l-13.06-1.144v2.363L403.202,102.818z M445.417,74.825v7.273l-16.835-1.384l2.621,20.425l1.477-1.514V83.953l8.731,0.766v20.452
		l-7.679,4.19l-1.384,0.064l0.332,2.261l1.864,2.003l8.251,0.72v6.885l-13.392-1.172l-6.285-6.322l-0.48-3.784l-8.611,0.784
		l-0.046-8.288l7.67-0.378l-2.695-21.541l-4.504-0.415v-7.402l3.609,0.388l-1.79-14.306l9.543,0.831l1.717,13.66l17.905,1.477
		H445.417z M454.194,75.508l-8.759-0.766v-9.026l8.759,0.766V75.508z"/>
</g>
<g>
	<path d="M501.779,54.876l10.78,0.941l-9.553,9.193l4.236,0.369l4.993-4.541l11.675,1.025l-19.594,18.21l7.919,0.692l1.227-1.264
		v-5.51l8.888,0.775v8.703l-1.874,3.415l-5.307,1.68l-2.935-0.258v2.63l8.076,0.711l2.04,12.017l1.56,2.234l0.323,0.028v3.95
		l1.707,0.148V58.032l36.493,3.203v51.98l2.363,0.212v7.864l-41.136-3.599v-4.006l-3.59-0.304l-4.901-4.827l-2.935-15.856v24.255
		l-9.802-0.858V94.728l-2.446,12.635l-6.451,5.528l-3.923-0.342v-8.39l0.978,0.083l1.394-2.501l1.874-12.681l8.574,0.748v-2.298
		l-11.094-0.969v-5.51l2.28-2.944l6.442-6.055l-8.399-0.738v-6.027l0.655-1.126L501.779,54.876z M536.389,76.851l15.598,1.357
		V67.852l-15.598-1.366V76.851z M536.389,94.156l15.598,1.366V85.231l-15.598-1.366V94.156z M536.389,110.935l15.598,1.366v-9.765
		l-15.598-1.366V110.935z"/>
</g>
<g>
	<path d="M623.36,57.091l49.23,4.31l5.464,8.869l3.11,3.147l3.581,0.323v8.39l-8.556-0.748l-2.621-0.821v5.574l-52.571-4.596v-5.251
		l-1.883,0.101l-8.565-0.757v-8.39l3.599,0.314l3.258-2.593L623.36,57.091z M613.17,86.358l68.316,5.981v22.806l-8.897,4.993
		l-59.419-5.196V86.358z M624.753,73.474l45.963,4.015l-5.879-8.38l-33.715-2.944L624.753,73.474z M666.387,111.794l2.935-1.578
		V99.205l-43.997-3.858v12.857L666.387,111.794z"/>
</g>
<g>
	<path fill="#FFFFFF" d="M667.985,33.248c-1.338,4.984-6.461,7.928-11.445,6.599c-4.984-1.348-7.937-6.479-6.599-11.454
		c1.347-4.984,6.47-7.937,11.454-6.599C666.37,23.133,669.323,28.264,667.985,33.248"/>
</g>
<g>
	<path fill="#FFFFFF" d="M658.944,41.336c-0.892,0-1.803-0.113-2.704-0.356c-5.606-1.51-8.932-7.296-7.436-12.889
		c1.514-5.606,7.301-8.927,12.898-7.427c2.704,0.73,4.975,2.47,6.372,4.903c1.406,2.438,1.776,5.273,1.046,7.986
		C667.858,38.236,663.595,41.336,658.944,41.336z M658.98,22.648c-3.605,0-6.922,2.411-7.904,6.052
		c-1.172,4.349,1.415,8.842,5.768,10.018c4.362,1.14,8.842-1.433,10.005-5.773v-0.005c0.568-2.105,0.288-4.308-0.802-6.201
		c-1.091-1.893-2.848-3.245-4.957-3.813C660.386,22.738,659.674,22.648,658.98,22.648z"/>
</g>
<g>
	<path fill="#FFFFFF" d="M646.307,30.988c-1.338,4.975-6.461,7.928-11.454,6.599c-4.975-1.348-7.928-6.47-6.59-11.454
		c1.338-4.984,6.47-7.937,11.454-6.599C644.692,20.872,647.654,25.995,646.307,30.988"/>
</g>
<g>
	<path fill="#FFFFFF" d="M637.258,39.074c-0.892,0-1.803-0.113-2.704-0.356c-5.597-1.514-8.923-7.296-7.427-12.889
		c0.73-2.713,2.47-4.98,4.912-6.381c2.443-1.402,5.264-1.785,7.986-1.046c5.597,1.505,8.923,7.287,7.418,12.893l0,0
		C646.172,35.978,641.909,39.074,637.258,39.074z M637.285,20.381c-1.424,0-2.821,0.374-4.074,1.1
		c-1.902,1.091-3.254,2.848-3.813,4.953c-1.172,4.349,1.415,8.846,5.759,10.023c4.362,1.136,8.842-1.433,10.014-5.773l0,0
		c1.172-4.353-1.406-8.846-5.759-10.018C638.71,20.475,637.989,20.381,637.285,20.381z"/>
</g>
<g>
	<polygon points="603.676,37.15 636.92,1.211 717.798,8.373 690.922,45.771 	"/>
</g>
<g>
	<path fill="#FFFFFF" d="M667.985,33.248c-1.338,4.984-6.461,7.928-11.445,6.599c-4.984-1.348-7.937-6.479-6.599-11.454
		c1.347-4.984,6.47-7.937,11.454-6.599C666.37,23.133,669.323,28.264,667.985,33.248"/>
</g>
<g>
	<path d="M662.489,30.011c-0.886,3.323-4.43,5.252-7.91,4.319c-3.479-0.941-5.565-4.384-4.67-7.697
		c0.886-3.323,4.421-5.261,7.9-4.329C661.289,23.246,663.393,26.698,662.489,30.011"/>
</g>
<g>
	<path fill="#FFFFFF" d="M646.307,30.988c-1.338,4.975-6.461,7.928-11.454,6.599c-4.975-1.348-7.928-6.47-6.59-11.454
		c1.338-4.984,6.47-7.937,11.454-6.599C644.692,20.872,647.654,25.995,646.307,30.988"/>
</g>
<g>
	<path d="M640.802,27.747c-0.877,3.323-4.421,5.252-7.9,4.319c-3.479-0.941-5.575-4.384-4.679-7.697
		c0.904-3.323,4.439-5.252,7.91-4.329C639.602,20.982,641.716,24.434,640.802,27.747"/>
</g>
<g>
	<polygon fill="#FCC800" points="602.029,17.433 693.576,25.842 717.923,8.241 637.609,0.027 	"/>
</g>
<g>
</g>
<g>
</g>
<g>
</g>
<g>
</g>
<g>
</g>
<g>
</g>
<g>
</g>
<g>
</g>
<g>
</g>
<g>
</g>
<g>
</g>
<g>
</g>
<g>
</g>
<g>
</g>
<g>
</g>
</svg>
