<?xml version="1.0" encoding="utf-8"?>
<!-- Generator: Adobe Illustrator 27.3.1, SVG Export Plug-In . SVG Version: 6.00 Build 0)  -->
<svg version="1.1" id="레이어_1" xmlns="http://www.w3.org/2000/svg" xmlns:xlink="http://www.w3.org/1999/xlink" x="0px"
	 y="0px" viewBox="0 0 720 184.688" enable-background="new 0 0 720 184.688" xml:space="preserve">
<path fill-rule="evenodd" clip-rule="evenodd" d="M115.533,43.412c-5.14,0-10.953-0.706-10.953-3.149c0-2.436,0-30.349,0-31.757
	c0-0.706,0.383-1.135,1.25-1.3c2.063-0.387,25.367-5.04,25.367,21.355C131.197,39.132,120.677,43.412,115.533,43.412 M51.103,48.069
	c-0.713,0-18.063,0-19.245,0c-1.196,0-0.659-1.082-0.659-1.082s8.74-27.362,9.277-29.106c0.702-2.328,1.189-0.917,1.512-0.05
	c0.33,0.867,9.263,27.48,9.71,28.83C52.124,48.015,51.794,48.069,51.103,48.069z M269.94,85.793c-1.408,0-5.96,0.111-9.592-1.515
	c-3.632-1.63-4.932-7.647-5.792-11.165c-0.874-3.528-11.985-67.206-12.257-68.722c-0.272-1.519-0.645-2.876-1.358-2.876
	c-0.699,0-1.071,1.297-1.071,1.297L214.443,70.67c0,0-24.983-65.577-25.417-66.608c-0.433-1.028-0.756-2.436-1.576-2.489
	c-0.809-0.057-0.759,0.648-1.075,1.787c-0.33,1.132-13.496,70.674-14.363,74.467c-0.874,3.79-1.415,7.966-7.375,7.966
	c-5.967,0-8.618,0.272-16.312-6.182c-7.697-6.451-10.95-14.306-14.743-21.681c-3.797-7.368-8.296-13.923-8.296-13.923
	c6.025-2.926,13.661-6.612,13.661-19.672c0-20.868-21.735-20.868-24.658-21.137c-2.934-0.272-10.731,0.326-13.013,0.269
	C99.003,3.414,90.12,3.091,88.816,3.091c-1.3,0-2.554-0.279-2.554,0.702c0,0.974,0.652,0.698,2.009,0.698
	c9.535,1.25,8.564,6.938,8.564,11.168c0,4.227,0.104,31.599,0,50.497c-0.107,18.898-1.232,17.63-1.981,18.755
	c-0.763,1.117-4.771,1.078-5.645,1.117c-0.863,0.036-1.01,0.215-1.01,0.215s-0.544-0.179-0.86-0.215
	c-0.337-0.039-0.77-0.147-3.478-0.147c-6.386-0.211-8.346-4.517-11.05-9.252C70.097,71.899,45.422,6,44.738,4.262
	c-0.688-1.73-1.092-2.711-1.666-2.711c-0.566,0-0.827,0.086-1.741,2.561C40.429,6.594,17.154,70.111,14.5,77.171
	c-2.643,7.063-6.974,8.546-8.801,8.693c-1.827,0.14-3.847,0.14-4.757,0.14s-0.91,0.741-0.91,0.741
	c-0.111,0.648,0.007,0.942,1.203,1.003c1.189,0.05,12.941-0.437,14.739-0.491c1.791-0.057,5.086,0.326,7.425,0.376
	c2.328,0.054,3.195,0,3.195-0.809c0-0.817-0.104-0.706-2.378-0.817c-5.541-0.165-3.693-5.907-3.195-8.238
	c0.48-2.328,7.737-23.737,8.127-24.658c0.373-0.917,0.491-1.085,1.189-1.085c0.706,0,21.455,0.057,22.057,0
	c0.595-0.057,1.297-0.373,1.784,1.254c0.491,1.623,9.377,25.958,10.412,28.612c1.028,2.651,0.104,3.356-0.595,3.847
	c-0.709,0.491-0.77,0.104-0.77,0.81c0,0.709,1.791,0.763,1.791,0.763c3.797,0.437,19.134,0.322,20.707,0.376
	c1.569,0.061,2.113-0.269,2.113-0.269s0.161,0.33,1.519,0.269c1.35-0.054,9.374-0.43,11.326-0.43c1.945,0,9.324,0.376,11.276,0.43
	c1.952,0.061,2.217-0.487,2.217-0.702c0-0.219,0.498-0.867-1.895-0.867c-6.064-0.111-6.723-2.274-7.214-6.508
	c-0.487-4.219-0.426-30.89-0.369-31.753c0.05-0.87-0.057-1.254,0.971-1.307c1.032-0.043,9.753,0.279,11.175,0.279
	c1.404,0,1.719,0.265,2.264,1.461c0.541,1.193,1.906,3.575,4.828,9.965c2.923,6.397,6.82,13.557,11.698,20.549
	c4.882,6.988,12.368,8.829,16.971,8.883c4.603,0.061,19.027-0.376,21.079-0.376c2.07,0,7.268,0.487,9.051,0.376
	c1.791-0.104,2.282,0,2.554-0.813c0.265-0.809,0.433-0.867-1.415-1.082c-3.628-0.483-5.96-0.648-5.47-6.125
	c0.867-8.292,8.632-57.084,8.815-58.255c0.183-1.16,0.523-0.713,0.659-0.061c4.015,14.31,21.523,60.104,22.394,62.543
	c0.86,2.443,1.293,3.417,1.999,3.417c0.706,0,1.085-0.544,1.623-1.949c0.548-1.415,23.529-64.226,23.794-65.097
	c0.279-0.867,0.491-0.107,0.491-0.107s8.786,60.157,8.94,61.841c0.168,1.683,0.047,2.278-0.484,2.493
	c-0.544,0.219-0.595,0.104-0.595,0.87c0,0.756,0.537,1.25,3.037,1.461c6.77,0.487,19.02,0.809,20.04,0.809
	c1.042,0,1.959-0.161,1.959-0.971C271.079,85.843,269.94,85.793,269.94,85.793z"/>
<path fill-rule="evenodd" clip-rule="evenodd" d="M309.394,83.683c-9.975,0-32.29-9.327-32.29-45.855
	c0-22.225,13.11-34.253,26.878-34.253c13.872,0,32.731,10.516,32.731,42.71C336.713,78.478,319.369,83.683,309.394,83.683
	 M306.471,0c-18.869,0-38.695,16.366-38.695,43.681c0,27.641,17.447,44.007,39.135,44.007c21.667,0,39.451-19.507,39.451-45.307
	C346.362,15.173,329.012,0,306.471,0z"/>
<path fill-rule="evenodd" clip-rule="evenodd" d="M379.738,43.462c-5.143,0-10.724-0.81-10.724-3.356c0-2.554,0-29.751,0-31.219
	c0-0.92,0.168-1.461,1.132-1.623c2.142-0.358,4.065-0.655,6.612-0.655c2.554,0,18.916,0.655,18.916,21.029
	C395.674,39.132,385.329,43.462,379.738,43.462 M473.68,71.594c-0.394,0-0.548-0.326-0.827,1.354
	c-0.434,3.034-1.293,6.017-2.98,8.292c-1.68,2.274-7.421,2.332-13.647,2.332c-6.243,0-8.292-0.057-11.602-2.443
	c-3.309-2.378-2.285-14.034-2.285-17.34c0-3.306,0-21.137,0-22.111c0-0.978,0.279-1.25,0.867-1.25c0.595,0,7.862,0.111,15.621,0.383
	c7.737,0.269,6.82,6.505,6.82,7.314c0,0.817,0.108,1.411,0.595,1.411c0.491,0,0.813-0.433,0.813-1.304
	c0-5.255,0.806-11.326,1.139-13.55c0.322-2.217-0.756-1.623-1.676-0.376c-1.737,2.002-3.256,1.676-5.641,1.895
	c-2.378,0.222-16.158,0.276-17.447,0.276c-1.293,0-1.139-0.817-1.139-1.193c0-0.383,0-25.148,0-26.613s0.441-1.35,0.917-1.35
	c1.308,0,5.419,0.05,15.23,0.158c9.814,0.107,9.424,4.553,9.549,6.233c0.104,1.683,0,3.306,0.86,3.306
	c1.3,0,1.092-6.447,1.189-8.399c0.111-1.952,0.602-4.065,0.82-5.315c0.215-1.243-0.276-1.297-1.254-0.759
	c-0.974,0.602-7.311,0.817-11.319,0.817c-4.015,0-20.116,0-20.116,0c-4.015-0.326-11.372-0.269-12.73-0.269
	c-1.35,0-1.952,0.211-1.952,0.756c0,0.544,0.383,0.763,2.805,0.813c2.45,0.057,3.693,0.057,5.967,1.469
	c2.289,1.4,1.848,7.851,1.848,15.499c0,7.64,0,30.664,0,46.715c0,16.04-1.519,16.634-3.302,17.347
	c-1.315,0.512-3.084,0.43-3.084,0.43c-0.276-0.43-1.358-0.326-1.358-0.326c-4.989-0.326-5.527-0.706-9.599-3.034
	c-7.912-5.147-12.676-12.357-17.673-22.387c-4.972-10.026-9.316-16.416-9.316-16.416c7.099-3.088,13.6-8.511,13.6-19.464
	c0-18.644-17.827-20.7-22.655-21.19c-4.825-0.491-12.569,0.222-14.41,0.165c-1.848-0.054-11.92-0.433-13.285-0.376
	c-1.357,0.054-2.328,0-2.328,0.702c0,0.817,0.326,0.759,1.791,0.867c2.056,0.161,4.384,0.541,6.77,2.497
	c2.378,1.952,2.063,7.526,2.063,11.487c0,3.958,0,25.363,0,43.849c0,18.475-1.082,20.588-1.837,22.104
	c-0.763,1.522-4.764,1.411-6.082,1.411c-1.293,0-1.196,0.541-1.196,0.867c0,0.326-0.047,0.813,1.15,0.813
	c1.189,0,9.592-0.43,11.494-0.376c1.888,0.05,10.072,0.376,11.695,0.376c1.637,0,2.017-0.269,2.017-0.702
	c0-0.437-0.118-0.648-1.197-0.756c-1.085-0.111-4.008-0.057-6.179-1.633c-2.167-1.569-1.798-7.579-2.056-11.437
	c-0.279-3.847,0-24.378,0-25.302s0.168-1.35,0.756-1.307c0.594,0.054,10.57,0.222,11.376,0.222c0.817,0,1.687-0.222,2.658,1.787
	c0.978,2.002,3.639,7.264,4.99,10.62c1.358,3.363,4.391,9.481,10.183,18.271c5.806,8.779,13.392,9.861,15.839,10.133
	c2.428,0.276,6.171,0.104,10.172,0.104c4.015,0,13.343-0.376,13.343-0.376c5.849,0.322,26.939,0.706,30.514,0.706
	s3.786-1.68,4.116-3.474c0.326-1.784,0.978-8.45,1.139-10.459C474.371,72.085,474.048,71.594,473.68,71.594z"/>
<path fill-rule="evenodd" clip-rule="evenodd" d="M516.533,83.894c-11.752,0-14.46-2.221-15.936-4.065
	c-1.454-1.841-1.565-11.913-1.565-26.61c0-14.686,0.168-41.349,0.258-44.547c0.125-1.408,0.505-2.063,1.533-2.275
	c2.131-0.455,5.638-0.655,7.64-0.655c2.006,0,43.197-2.167,43.197,41.191C551.66,67.851,537.569,83.894,516.533,83.894
	 M510.791,2.006c-7.422,0-15.617,0.484-15.617,0.484c-2.865-0.161-12.239-0.43-13.221-0.43c-0.971,0-1.68,0.107-1.68,0.752
	c0,1.25,2.883,0.713,4.402,0.817c1.512,0.111,2.056-0.104,4.388,1.411c2.336,1.519,1.895,9.374,1.895,15.015
	c0,5.631,0,24.983,0,42.706c0,17.716-1.035,19.564-2.009,21.083c-0.971,1.519-4.338,1.189-5.534,1.3
	c-1.189,0.104-1.676,0.104-1.676,0.544c0,0.43,0.172,1.136,1.734,1.024c2.167,0.111,11.165-0.433,11.165-0.433
	c4.008,0.333,6.73,1.304,25.263,1.304c22.645,0,40.436-17.673,40.436-43.14C560.335-1.085,518.22,2.006,510.791,2.006z"/>
<path fill-rule="evenodd" clip-rule="evenodd" d="M341.212,99.4c2.701,0.394,3.141,0.43,3.84,0.476
	c0.709,0.068,1.247,0.437,1.143,1.687c-0.104,1.243-0.702,8.564-0.806,13.5c-0.054,2.217-0.229,2.919-0.931,2.919
	c-0.698,0-0.698-0.917-0.749-3.356c0-4.33-6.73-13.547-23.586-13.547c-18.479,0-33.652,10.67-33.652,39.032
	c0,19.005,17.232,39.504,36.911,39.504c11.598,0,18.644-3.765,20.707-8.192c1.461-3.138,3.464-9.538,3.743-11.276
	c0.258-1.741,0.419-1.408,0.91-1.465c0.48-0.061,0.817,1.089,0.602,2.493c-0.218,1.415-2.715,17.415-3.793,18.55
	c-1.093,1.132-2.289,1.565-3.965,2.113c-1.673,0.548-9.746,2.762-18.479,2.762c-8.729,0-45.361-2.335-45.361-44.648
	c0-20.073,13.12-31.449,16.91-34.594c3.793-3.148,14.195-10.412,34.035-8.242c6.884,0.87,5.799,0.981,7.267,1.247
	C337.415,98.634,339.363,99.124,341.212,99.4"/>
<path fill-rule="evenodd" clip-rule="evenodd" d="M399.033,180.54c-18.973,0-32.727-18.013-32.727-44.82
	c0-23.311,11.92-35.238,26.667-35.238c13.217,0,32.727,8.998,32.727,44.132C425.7,171.653,411.402,180.54,399.033,180.54
	 M397.515,96.904c-29.801-0.648-40.744,24.715-40.744,44.573c0,20.295,11.584,43.072,38.358,43.072
	c26.778,0,40.009-23.314,40.009-45.461C435.139,116.951,421.581,97.43,397.515,96.904z"/>
<path fill-rule="evenodd" clip-rule="evenodd" d="M466.834,140.273c-3.739,0-11.591-0.487-11.591-2.93c0-2.436,0-30.628,0-31.553
	c0-0.917-0.057-1.408,1.197-1.626c2.708-0.469,4.932-0.595,7.633-0.595c2.715,0,17.727,2.106,17.727,21.409
	C481.799,136.533,470.577,140.273,466.834,140.273 M558.698,168.487c-0.924,0-0.974,1.526-1.189,3.213
	c-1.35,8.249-5.527,8.296-7.705,8.514c-2.153,0.222-0.752,0.269-12.082,0.269c-11.319,0-10.352-7.701-10.352-10.251
	c0-2.547,0-30.768,0-31.524c0-0.763-0.104-1.25,0.817-1.365c0.917-0.104,9.055,0.168,15.939,0.444
	c6.874,0.269,6.49,5.584,6.49,6.343c0,0.763-0.211,2.285,0.666,2.285c0.867,0,0.641-0.709,0.698-2.335
	c0.104-3.535,0.924-11.451,1.078-12.218c0.168-0.756,0.609-1.791-0.154-1.791c-0.756,0-1.311,1.092-1.311,1.092
	c-1.515,1.956-3.517,1.726-5.523,1.956c-2.01,0.201-16.469,0.158-17.497,0.158s-1.203-0.158-1.203-0.881c0-0.695,0-26.126,0-27.036
	c0-0.92,0-1.089,0.881-1.089c0.852,0,6.444,0.057,14.997,0.168c8.571,0.107,9.542,3.575,9.768,5.638
	c0.211,2.056-0.111,3.678,0.698,3.678c0.813,0,0.917-0.809,1.021-3.252c0.161-2.923,0.659-8.403,0.924-9.478
	c0.272-1.082,0.329-1.795-0.047-1.902c-0.387-0.104-0.595-0.104-1.458,0.433c-0.874,0.544-4.126,0.598-6.293,0.652
	c-2.171,0.054-21.19,0.272-24.332,0.054c-3.148-0.218-11.601-0.387-12.307-0.319c-0.698,0.054-2.658-0.33-2.658,0.702
	c0,1.028,0.544,0.756,2.056,0.86c3.847,0.168,4.567,0.222,6.627,1.472c2.056,1.239,1.837,6.823,1.837,11.05
	c0,4.234,0,34.984,0,49.587c0,14.596-0.917,15.893-1.573,17.626c-0.659,1.741-3.632,1.791-3.632,1.791s-0.111-0.215-1.243-0.15
	c-13.35-0.176-21.681-14.757-27.433-25.725c-5.742-10.96-9.205-16.233-9.205-16.233c3.736-1.626,13.55-5.695,13.55-19.801
	c0-19.561-20.764-21.079-25.037-21.079c-4.287,0-10.796,0.387-12.741,0.387c-1.959,0-12.304-0.433-13.109-0.433
	c-0.817,0-1.791-0.168-1.791,0.756c0,0.86,0.258,0.648,1.888,0.809c1.633,0.165,4.445,0.595,6.558,2.443
	c2.124,1.841,2.063,4.28,2.063,8.883c0,4.61,0,39.006,0,51.439c0,12.418-0.602,14.904-1.519,16.964
	c-0.924,2.06-5.312,1.741-6.451,1.741s-1.139,0.544-1.139,0.921c0,0.39-0.05,0.595,0.881,0.595c8.604,0,11.863-0.269,11.863-0.269
	c1.898,0.269,11.483,0.269,12.404,0.269c0.924,0,1.304,0,1.304-0.759c0-0.756-0.541-0.645-3.911-0.756
	c-4.918-0.283-4.871-4.223-5.144-6.723c-0.272-2.497-0.426-10.133-0.426-13.067c0-2.93,0.05-17.211,0-18.568
	c-0.057-1.354,0.426-1.089,1.293-1.089c0.87,0,9.539,0.276,11.383,0.276c1.848,0,2.339,2.389,6.354,10.803
	c4.538,10.531,9.632,18.454,13.865,23.325c4.23,4.893,10.506,6.508,12.683,6.662c2.167,0.161,19.56-0.261,21.889-0.308
	c2.336-0.064,5.695,0.308,8.185,0.308c2.497,0,22.981-0.104,25.36-0.104c2.393,0,2.611-9.857,2.78-12.089
	C559.189,170.231,559.622,168.487,558.698,168.487z"/>
<path fill-rule="evenodd" clip-rule="evenodd" d="M651.275,114.569h-61.468l61.468-82.809V114.569 M685.629,114.569
	c-6.064,0-16.466,0-16.466,0V1.35l-97.67,131.769h79.782c0,0,0,20.237,0,35.217c0,14.965-14.904,16.161-14.904,16.161h51.7
	c-15.287-4.771-18.869-11.326-18.869-15.022c0-3.682,0-36.309,0-36.309h25.102l2.933,3.585L720,95.657
	C707.148,111.535,691.703,114.569,685.629,114.569z"/>
<path d="M35.815,111.317c0-0.853-0.369-1.569-1.096-2.156c-0.734-0.587-2.934-0.895-2.994-0.924h13.647
	c-0.061,0.029-1.963,0.337-2.711,0.924c-0.741,0.587-1.128,1.304-1.128,2.156v7.038h4.277c0.67,0,1.221-0.086,1.641-0.261
	c0.43-0.175,0.659-1.383,0.695-1.411v6.343c-0.036-0.029-0.265-1.189-0.695-1.35c-0.419-0.161-0.971-0.236-1.641-0.236h-4.277
	v24.195c0,0.853,0.394,1.565,1.146,2.131c0.763,0.58,2.679,0.892,2.744,0.953H31.725c0.061-0.061,2.26-0.373,2.994-0.953
	c0.727-0.566,1.096-1.279,1.096-2.131V111.317 M13.64,120.691c0,2.26,0.602,4.18,1.805,5.763c1.196,1.583,2.608,2.371,4.227,2.371
	c1.551,0,2.93-0.795,4.133-2.393c1.196-1.601,1.805-3.546,1.805-5.835c0-2.249-0.609-4.176-1.805-5.763
	c-1.203-1.58-2.597-2.371-4.176-2.371c-1.587,0-2.987,0.799-4.184,2.396C14.242,116.457,13.64,118.402,13.64,120.691z
	 M19.629,109.336c3.216,0,5.989,1.1,8.288,3.303c2.303,2.196,3.456,4.868,3.456,8.009c0,3.134-1.153,5.806-3.456,8.005
	c-2.3,2.199-5.072,3.302-8.288,3.302c-3.231,0-5.996-1.103-8.299-3.302c-2.3-2.199-3.446-4.871-3.446-8.005
	c0-3.141,1.146-5.813,3.446-8.009C13.633,110.436,16.398,109.336,19.629,109.336z"/>
<path d="M62.017,131.121h8.36v-18.482h-8.36V131.121z M82.913,119.544v-8.228c0-0.852-0.365-1.569-1.1-2.156
	c-0.734-0.587-2.335-0.895-2.393-0.924h12.748c-0.057,0.029-1.666,0.337-2.414,0.924c-0.749,0.587-1.117,1.304-1.117,2.156v34.318
	c0,0.852,0.376,1.565,1.139,2.131c0.763,0.58,2.378,0.892,2.436,0.953H79.421c0.057-0.061,1.658-0.373,2.393-0.953
	c0.734-0.566,1.1-1.279,1.1-2.131v-23.01h-6.82v11.573H60.645c-1.372,0-2.443-0.365-3.209-1.1c-0.763-0.731-1.143-1.759-1.143-3.084
	v-17.376c0-0.881-0.376-1.608-1.118-2.178c-0.756-0.577-2.002-0.874-2.063-0.903h22.981v9.986H82.913z"/>
<path d="M108.903,130.448c-1.372-0.054-2.457-0.441-3.234-1.146c-0.774-0.698-1.16-1.712-1.16-3.03v-14.037
	c0-0.906-0.369-1.644-1.103-2.203c-0.738-0.555-2.077-0.849-2.128-0.878h30.285v4.696c-0.021-0.036-0.344-0.878-0.967-1.175
	c-0.612-0.29-1.243-0.441-1.888-0.441h-18.482v15.137h19.098c0.67,0,1.315-0.147,1.931-0.441c0.623-0.294,0.946-1.164,0.971-1.196
	v4.714H108.903 M132.934,139.954c0.788,0,1.483-0.276,2.07-0.834c0.58-0.559,0.888-1.755,0.917-1.784v5.695h-36.08v-5.695
	c0.064,0.029,0.394,1.225,0.989,1.784c0.602,0.559,1.272,0.834,1.999,0.834H132.934z"/>
<path d="M194.796,121.389v-9.155h-20.904c-0.641,0-1.196,0.19-1.651,0.573c-0.455,0.38-0.691,1.791-0.72,1.82v-5.473h28.992v15.664
	c0,2.729-0.219,5.093-0.659,7.106c-0.441,2.013-1.057,3.661-1.845,4.95h-5.018c0.856-1.408,1.365-3.077,1.54-5.015
	c0.175-1.934,0.265-4.402,0.265-7.389h-20.904c-0.641,0-1.196,0.186-1.651,0.57c-0.455,0.38-0.691,1.794-0.72,1.82v-5.47H194.796
	 M185.641,139.954h15.936c0.785,0,1.476-0.276,2.063-0.834c0.587-0.559,0.895-1.755,0.924-1.784v5.695h-36.076v-5.695
	c0.047,0.029,0.376,1.225,0.985,1.784c0.602,0.559,1.271,0.834,1.999,0.834h8.453v-8.356c0-0.853-0.373-1.572-1.128-2.163
	c-0.749-0.58-2.07-0.892-2.124-0.92h12.34c-0.064,0.029-1.497,0.34-2.246,0.92c-0.756,0.591-1.125,1.311-1.125,2.163V139.954z"/>
<path d="M219.31,120.691c0,2.26,0.609,4.18,1.805,5.763c1.203,1.583,2.608,2.371,4.227,2.371c1.558,0,2.93-0.795,4.133-2.393
	c1.204-1.601,1.805-3.546,1.805-5.835c0-2.249-0.602-4.176-1.805-5.763c-1.203-1.58-2.597-2.371-4.176-2.371
	c-1.59,0-2.98,0.799-4.184,2.396C219.919,116.457,219.31,118.402,219.31,120.691 M242.367,119.104v-7.787
	c0-0.853-0.369-1.569-1.096-2.156c-0.734-0.587-2.64-0.895-2.693-0.924h12.898c-0.061,0.029-1.515,0.337-2.257,0.924
	c-0.756,0.587-1.128,1.304-1.128,2.156v34.318c0,0.853,0.38,1.565,1.139,2.131c0.77,0.58,2.235,0.892,2.289,0.953h-12.941
	c0.054-0.061,1.959-0.373,2.693-0.953c0.727-0.566,1.096-1.279,1.096-2.131v-23.45h-5.412c-0.38,2.758-1.673,5.075-3.89,6.949
	c-2.217,1.884-4.807,2.822-7.765,2.822c-3.234,0-5.996-1.103-8.299-3.302c-2.3-2.199-3.446-4.871-3.446-8.005
	c0-3.141,1.146-5.813,3.446-8.009c2.303-2.203,5.065-3.302,8.299-3.302c2.959,0,5.548,0.931,7.765,2.797
	c2.217,1.863,3.51,4.184,3.89,6.97H242.367z"/>
<g>
</g>
<g>
</g>
<g>
</g>
<g>
</g>
<g>
</g>
<g>
</g>
<g>
</g>
<g>
</g>
<g>
</g>
<g>
</g>
<g>
</g>
<g>
</g>
<g>
</g>
<g>
</g>
<g>
</g>
</svg>
