<?xml version="1.0" encoding="utf-8"?>
<!-- Generator: Adobe Illustrator 27.0.1, SVG Export Plug-In . SVG Version: 6.00 Build 0)  -->
<svg version="1.1" id="레이어_1" xmlns="http://www.w3.org/2000/svg" xmlns:xlink="http://www.w3.org/1999/xlink" x="0px"
	 y="0px" viewBox="0 0 720 136.997" enable-background="new 0 0 720 136.997" xml:space="preserve">
<path d="M133.301,2.073l0.161-0.149l0.256-0.498l1.601-0.498l2.341-0.04v6.673c0,1.494,0,2.745-0.081,3.404l-0.444,0.861
	l-0.471,0.08l-0.134,0.081l0.242,0.121l1.548-0.04l1.937,0.04l0.269-0.121l-0.135-0.081l-0.713-0.08l-0.619-0.861
	c-0.067-0.659-0.067-1.91-0.067-3.404V0.889l1.978,0.04c1.493,0.04,1.897,0.39,1.951,0.861l0.014,0.174l0.108,0.269l0.108-0.202
	l0.054-1.735l-0.08-0.188l-0.444,0.08l-1.103,0.08h-5.907l-1.238-0.08L133.718,0l-0.148,0.296l-0.35,1.642L133.301,2.073
	 M147.281,0.431l0.538,0.053l0.673,0.902c0.027,0.498,0.027,0.942,0.027,3.404v2.772c0,1.494,0,2.745-0.081,3.404l-0.444,0.861
	l-0.485,0.08l-0.121,0.081l0.256,0.121l1.534-0.04l1.938,0.04l0.269-0.121l-0.134-0.081l-0.713-0.08l-0.606-0.861
	c-0.094-0.659-0.094-1.91-0.094-3.404V5.907l0.094-0.108h6.674l0.108,0.108v1.655c0,1.494,0,2.745-0.081,3.404l-0.471,0.861
	l-0.471,0.08l-0.134,0.081l0.269,0.121l1.547-0.04l1.924,0.04l0.256-0.121l-0.121-0.081l-0.713-0.08l-0.606-0.861
	c-0.08-0.659-0.08-1.91-0.08-3.404V4.79c0-2.462,0-2.906,0.04-3.404l0.579-0.902l0.377-0.053l0.134-0.094l-0.242-0.121l-1.548,0.053
	l-1.789-0.053l-0.242,0.121l0.108,0.094l0.552,0.053l0.673,0.902c0.041,0.498,0.041,0.942,0.041,3.404v0.323l-0.108,0.094h-6.674
	l-0.094-0.094V4.79c0-2.462,0-2.906,0.04-3.404l0.579-0.902l0.404-0.053l0.121-0.094l-0.255-0.121l-1.548,0.053l-1.762-0.053
	l-0.269,0.121L147.281,0.431z M163.494,0.431l0.551,0.053l0.673,0.902c0.013,0.498,0.013,0.942,0.013,3.404v2.772
	c0,1.494,0,2.745-0.067,3.404l-0.457,0.861l-0.471,0.08l-0.134,0.081l0.255,0.121l0.928-0.027l0.632-0.013l1.211,0.04l2.65,0.054
	l0.861-0.404l0.215-1.52l-0.108-0.242l-0.135,0.242l-0.713,1.13l-1.52,0.175c-1.52,0-1.763-0.215-1.817-1.292V6.176l0.108-0.122
	l2.26,0.081l0.821,0.551l0.067,0.525l0.094,0.135l0.108-0.296l0.067-1.009l0.121-0.888l-0.067-0.122L169.4,5.248l-0.727,0.215
	l-2.516,0.027l-0.094-0.148V0.996l0.094-0.162l2.139,0.054l1.13,0.525l0.094,0.565l0.134,0.202l0.121-0.175l0.067-1.036l0.121-0.727
	l-0.067-0.148l-0.202,0.08l-0.686,0.081l-3.593,0.013l-0.659-0.027l-1.13-0.026l-0.269,0.121L163.494,0.431z M183.313,0.431
	l0.551,0.053l0.646,0.902c0.041,0.498,0.041,0.942,0.041,3.404v2.772c0,1.494,0,2.745-0.081,3.404l-0.457,0.861l-0.471,0.08
	l-0.121,0.081l0.256,0.121l1.547-0.04l1.938,0.04l0.242-0.121l-0.121-0.081l-0.713-0.08l-0.606-0.861
	c-0.08-0.659-0.08-1.91-0.08-3.404V5.907l0.094-0.108h6.674l0.094,0.108v1.655c0,1.494,0,2.745-0.08,3.404l-0.444,0.861l-0.471,0.08
	l-0.134,0.081l0.242,0.121l1.547-0.04l1.937,0.04l0.242-0.121l-0.108-0.081l-0.713-0.08l-0.619-0.861
	c-0.08-0.659-0.08-1.91-0.08-3.404V4.79c0-2.462,0-2.906,0.04-3.404l0.579-0.902l0.404-0.053l0.108-0.094l-0.242-0.121l-1.547,0.053
	l-1.776-0.053l-0.256,0.121l0.121,0.094l0.538,0.053l0.686,0.902c0.027,0.498,0.027,0.942,0.027,3.404v0.323l-0.094,0.094h-6.674
	l-0.094-0.094V4.79c0-2.462,0-2.906,0.027-3.404l0.579-0.902l0.39-0.053l0.135-0.094l-0.255-0.121l-1.534,0.053l-1.789-0.053
	l-0.242,0.121L183.313,0.431z M199.674,0.431l0.551,0.053l0.686,0.902c0.027,0.498,0.027,0.942,0.027,3.404v2.772
	c0,1.494,0,2.745-0.081,3.404l-0.444,0.861l-0.498,0.08l-0.108,0.081l0.242,0.121l0.915-0.027l0.632-0.013l1.224,0.04l2.664,0.054
	l0.847-0.404l0.202-1.52l-0.094-0.242l-0.135,0.242l-0.713,1.13l-1.52,0.175c-1.534,0-1.763-0.215-1.817-1.292V6.176l0.108-0.122
	l2.26,0.081l0.807,0.551l0.081,0.525l0.081,0.135l0.134-0.296l0.054-1.009l0.121-0.888l-0.08-0.122l-0.229,0.215l-0.74,0.215
	l-2.489,0.027l-0.108-0.148V0.996l0.108-0.162l2.153,0.054l1.117,0.525l0.094,0.565l0.094,0.202l0.134-0.175l0.081-1.036
	l0.121-0.727l-0.054-0.148l-0.229,0.08l-0.673,0.081l-3.606,0.013l-0.632-0.027l-1.158-0.026l-0.229,0.121L199.674,0.431z
	 M211.191,0.431l0.552,0.053l0.686,0.902c0.027,0.498,0.027,0.942,0.027,3.404v2.772c0,1.494,0,2.745-0.08,3.404l-0.444,0.861
	l-0.511,0.08l-0.094,0.081l0.255,0.121l1.467-0.04l1.924,0.04l0.269-0.121l-0.134-0.081l-0.713-0.08l-0.606-0.861
	c-0.08-0.659-0.08-1.91-0.08-3.404v-0.39l0.108-0.121l1.951,0.026l0.202,0.094l1.709,2.341l2.139,2.314l1.682,0.282h1.103
	l0.39-0.121l-0.161-0.081l-0.606-0.053l-1.911-1.144c-0.928-0.969-2.005-2.368-3.296-4.023c1.426-1.305,1.924-2.475,1.924-3.632
	l-1.077-2.153l-2.893-0.686l-1.87,0.053l-1.762-0.053l-0.256,0.121L211.191,0.431z M213.707,1.009l0.134-0.188l1.05-0.094
	c1.682,0,2.705,1.184,2.705,3.149l-0.942,2.422l-1.184,0.296l-1.655-0.256l-0.108-0.188V1.009z M230.633,12.339
	c3.794,0,6.284-2.906,6.284-6.432c0-3.673-2.624-5.907-6.176-5.907c-4.346,0-6.203,3.606-6.203,6.149
	C224.538,8.988,226.328,12.339,230.633,12.339 M230.633,0.539c2.476,0,4.79,2.032,4.79,5.799c0,4.588-2.947,5.409-4.373,5.409
	c-2.826,0-5.032-2.368-5.032-6.042C226.019,2.261,227.996,0.539,230.633,0.539 M244.586,11.908l-0.7-0.08l-0.619-0.861
	c-0.08-0.659-0.08-1.91-0.08-3.404V4.79c0-2.462,0-2.906,0.013-3.404l0.606-0.902l0.363-0.053l0.148-0.094l-0.256-0.121
	l-1.547,0.053l-1.588-0.053l-0.255,0.121l0.135,0.094l0.484,0.067l0.538,0.888c0.027,0.498,0.027,0.942,0.027,3.404v2.772
	c0,1.494,0,2.745-0.08,3.404l-0.444,0.861l-0.471,0.08l-0.135,0.081l0.256,0.121l1.534-0.04l1.951,0.04l0.256-0.121L244.586,11.908z
	 M255.323,12.339l2.852-0.364l0.39-0.457l0.35-2.005l-0.108-0.242l-0.161,0.242l-0.579,1.319l-2.745,0.793
	c-3.35,0-5.691-2.772-5.691-5.772c0-1.601,0.296-3,1.426-4.117c0.551-0.525,1.534-1.144,3.619-1.144c1.399,0,2.61,0.431,3.162,0.902
	l0.659,1.601l0.121,0.336l0.135-0.336l0.054-1.615l0.081-0.889l-0.216-0.161l-1.601-0.242L254.785,0
	c-2.422,0-3.835,0.741-4.79,1.682c-1.413,1.399-1.776,3.243-1.776,4.293c0,1.507,0.39,3.296,1.911,4.669
	C251.367,11.76,252.969,12.339,255.323,12.339 M271.025,0.431l0.552,0.053l0.673,0.902c0.041,0.498,0.041,0.942,0.041,3.404v2.772
	c0,1.494,0,2.745-0.081,3.404l-0.471,0.861l-0.471,0.08l-0.108,0.081l0.229,0.121l0.902-0.027l0.659-0.013l1.601,0.04l2.597,0.054
	l0.996-0.417l0.242-1.588l-0.081-0.228l-0.161,0.202l-0.417,0.955l-1.884,0.457c-1.238,0-1.655-0.094-1.897-0.35
	c-0.282-0.282-0.35-1.305-0.35-3.606V4.79c0-2.462,0-2.906,0.04-3.404l0.606-0.902l0.511-0.053l0.135-0.094l-0.256-0.121
	l-1.682,0.053l-1.789-0.053l-0.242,0.121L271.025,0.431z M282.852,0.431l0.525,0.053l0.686,0.902c0.04,0.498,0.04,0.942,0.04,3.404
	v2.772c0,1.494,0,2.745-0.094,3.404l-0.444,0.861l-0.471,0.08l-0.134,0.081l0.255,0.121l0.928-0.027l0.619-0.013l1.211,0.04
	l2.664,0.054l0.861-0.404l0.202-1.52l-0.094-0.242l-0.135,0.242l-0.699,1.13l-1.534,0.175c-1.534,0-1.776-0.215-1.817-1.292V6.176
	l0.108-0.122l2.26,0.081l0.821,0.551l0.054,0.525l0.108,0.135l0.121-0.296l0.054-1.009l0.135-0.888l-0.08-0.122l-0.229,0.215
	l-0.754,0.215l-2.516,0.027l-0.081-0.148V0.996l0.081-0.162l2.166,0.054l1.116,0.525l0.108,0.565l0.108,0.202l0.108-0.175
	l0.08-1.036l0.121-0.727l-0.054-0.148l-0.215,0.08l-0.673,0.081l-3.606,0.013l-0.646-0.027l-1.13-0.026l-0.269,0.121L282.852,0.431z
	 M296.751,10.657c1.736,1.533,3.969,1.682,5.18,1.682l3.337-0.7l0.202-0.848V9.015l0.04-1.642l0.579-0.888l0.39-0.054l0.121-0.094
	l-0.255-0.121l-1.534,0.04l-1.789-0.04l-0.256,0.121l0.135,0.094l0.525,0.054c0.632,0.175,0.713,0.336,0.713,1.615v2.69l-0.31,0.539
	l-1.789,0.336c-1.453,0-2.88-0.471-4.131-1.695c-0.552-0.525-1.655-2.126-1.655-4.346c0-1.844,0.632-3.283,1.547-4.009l3.364-1.036
	c2.032,0,3.31,0.687,3.7,1.278l0.323,1.036l0.108,0.242l0.161-0.337c0-1.574,0.094-2.018,0.094-2.233l-0.175-0.135l-1.278-0.162
	L301.689,0c-1.211,0-2.772,0.108-4.198,0.996c-1.399,0.875-2.61,2.65-2.61,5.18C294.88,8.141,295.782,9.823,296.751,10.657
	 M310.838,0.431l0.552,0.053l0.659,0.902c0.027,0.498,0.027,0.942,0.027,3.404v2.772c0,1.494,0,2.745-0.067,3.404l-0.457,0.861
	l-0.471,0.08l-0.135,0.081l0.256,0.121l0.915-0.027l0.606-0.013l1.251,0.04l2.678,0.054l0.834-0.404l0.216-1.52l-0.108-0.242
	l-0.135,0.242l-0.713,1.13l-1.507,0.175c-1.547,0-1.789-0.215-1.817-1.292V6.176l0.094-0.122l2.247,0.081l0.807,0.551l0.081,0.525
	l0.108,0.135l0.121-0.296l0.054-1.009l0.108-0.888l-0.054-0.122l-0.242,0.215l-0.74,0.215l-2.503,0.027l-0.081-0.148V0.996
	l0.081-0.162l2.139,0.054l1.144,0.525l0.094,0.565l0.108,0.202l0.135-0.175l0.067-1.036l0.134-0.727l-0.067-0.148l-0.242,0.08
	l-0.673,0.081l-3.606,0.013l-0.632-0.027l-1.13-0.026l-0.269,0.121L310.838,0.431z M322.275,12.11l1.493-0.04l1.682,0.04
	l0.269-0.121l-0.108-0.081l-0.794-0.108c-0.43-0.121-0.578-0.538-0.605-1.83l-0.202-7.535c0.498,0.565,2.287,2.556,4.091,4.521
	c1.655,1.789,3.942,4.104,4.104,4.265l1.157,1.008l0.148-1.116l0.04-9.231l0.579-1.399l0.363-0.053l0.189-0.108l-0.296-0.108
	l-1.332,0.053l-1.655-0.053l-0.296,0.108l0.134,0.108l0.754,0.094l0.619,1.481l0.175,8.005c-0.498-0.525-2.234-2.435-3.781-4.104
	c-2.422-2.597-4.763-5.14-4.992-5.409L323.445,0l-0.175,0.781l-0.013,9.028c0,1.426-0.094,1.884-0.471,1.991l-0.645,0.108
	l-0.135,0.081L322.275,12.11z M338.245,0.431l0.525,0.053l0.673,0.902c0.04,0.498,0.04,0.942,0.04,3.404v2.772
	c0,1.494,0,2.745-0.081,3.404l-0.471,0.861l-0.471,0.08l-0.122,0.081l0.255,0.121l0.916-0.027l0.632-0.013l1.291,0.094l2.207,0.094
	c2.664,0,4.077-1.103,4.75-1.817c0.888-0.915,1.709-2.435,1.709-4.426c0-1.884-0.74-3.176-1.521-4.009
	c-1.87-1.938-4.763-1.789-6.31-1.789l-2.125,0.053l-1.789-0.053l-0.256,0.121L338.245,0.431z M340.801,4.535l0.014-3.364l0.188-0.31
	l1.022-0.108c1.871,0,3.66,0.215,5.153,1.776c0.632,0.686,1.507,1.977,1.507,3.969c0,1.44-0.457,2.96-1.265,3.767
	c-0.915,0.929-2.287,1.467-3.754,1.467c-1.843,0-2.449-0.336-2.664-0.632l-0.161-1.21c-0.027-0.296-0.041-1.736-0.041-3.404V4.535z
	 M365.922,12.339c3.781,0,6.284-2.906,6.284-6.432c0-3.673-2.664-5.907-6.19-5.907c-4.346,0-6.203,3.606-6.203,6.149
	C359.813,8.988,361.616,12.339,365.922,12.339 M365.895,0.539c2.489,0,4.776,2.032,4.776,5.799c0,4.588-2.906,5.409-4.333,5.409
	c-2.825,0-5.032-2.368-5.032-6.042C361.307,2.261,363.285,0.539,365.895,0.539 M375.623,0.431l0.552,0.053l0.659,0.902
	c0.04,0.498,0.04,0.942,0.04,3.404v2.772c0,1.494,0,2.745-0.094,3.404l-0.457,0.861l-0.471,0.08l-0.135,0.081l0.269,0.121
	l1.547-0.04l1.937,0.04l0.242-0.121l-0.121-0.081l-0.714-0.08l-0.605-0.861c-0.08-0.659-0.08-1.91-0.08-3.404V6.217l0.108-0.135
	l2.368,0.04l0.821,0.565l0.094,0.565l0.108,0.149l0.135-0.31l0.04-1.05L382,5.154l-0.08-0.122l-0.175,0.162l-0.713,0.282
	l-0.714,0.013l-2.018,0.013l-0.108-0.134V1.023l0.148-0.175l2.395,0.04l1.09,0.511l0.148,0.606l0.108,0.175l0.121-0.175l0.094-1.036
	l0.094-0.727l-0.067-0.148l-0.228,0.094l-0.7,0.067l-3.861,0.013l-0.659-0.027l-1.13-0.026l-0.256,0.121L375.623,0.431z
	 M392.831,12.11l1.789-0.04l1.224,0.04l0.242-0.121l-0.188-0.081h-0.148l-0.579-0.457l0.202-1.063l0.955-2.786l0.148-0.121h3.391
	l0.148,0.094l1.454,3.875l-0.08,0.417l-0.122,0.108l0.471,0.108l2.475,0.027l0.31-0.121l-0.162-0.081L403.73,11.8
	c-0.309-0.094-0.78-0.336-1.345-1.735c-0.969-2.409-3.431-8.894-3.673-9.499L398.375,0l-0.337,0.606l-3.606,9.782l-1.319,1.48
	l-0.443,0.04l-0.135,0.081L392.831,12.11z M396.612,6.795l1.386-4.238h0.242l1.48,4.238l-0.054,0.122h-3.014L396.612,6.795z
	 M407.753,0.431l0.552,0.053l0.659,0.902c0.053,0.498,0.053,0.942,0.053,3.404v2.772c0,1.494,0,2.745-0.094,3.404l-0.457,0.861
	l-0.471,0.08l-0.121,0.081l0.255,0.121l1.467-0.04l1.951,0.04l0.241-0.121l-0.121-0.081l-0.7-0.08l-0.619-0.861
	c-0.094-0.659-0.094-1.91-0.094-3.404v-0.39l0.134-0.121l1.924,0.026l0.202,0.094l1.722,2.341l2.113,2.314l1.695,0.282h1.117
	l0.39-0.121l-0.162-0.081l-0.592-0.053l-1.923-1.144c-0.929-0.969-2.005-2.368-3.283-4.023c1.413-1.305,1.897-2.475,1.897-3.632
	l-1.09-2.153l-2.852-0.686l-1.871,0.053l-1.789-0.053l-0.255,0.121L407.753,0.431z M410.256,1.009l0.134-0.188l1.063-0.094
	c1.695,0,2.717,1.184,2.717,3.149l-0.955,2.422l-1.184,0.296l-1.642-0.256l-0.134-0.188V1.009z M423.132,11.922l2.112,0.417
	l2.382-0.659l1.332-2.624c0-1.252-0.443-2.234-2.287-3.686l-0.471-0.35c-1.494-1.184-1.897-1.749-1.897-2.638l1.923-1.83
	c1.467,0,1.884,0.659,1.978,0.834l0.202,0.78l0.134,0.215l0.108-0.376l0.066-1.669l-0.175-0.094l-0.551-0.08L426.55,0
	c-2.019,0-3.27,1.144-3.27,2.839c0,1.063,0.377,2.032,2.032,3.405l0.727,0.578c1.345,1.117,1.789,1.749,1.789,2.839
	c0,1.009-0.727,2.099-2.247,2.099l-2.314-1.615l-0.04-0.579l-0.122-0.161l-0.134,0.242l-0.081,1.668L423.132,11.922z M434.299,0.431
	l0.552,0.053l0.659,0.902c0.041,0.498,0.041,0.942,0.041,3.404v2.772c0,1.494,0,2.745-0.067,3.404l-0.457,0.861l-0.484,0.08
	l-0.122,0.081l0.242,0.121l0.902-0.027l0.645-0.013l1.615,0.04l2.611,0.054l0.982-0.417l0.242-1.588l-0.094-0.228l-0.148,0.202
	l-0.404,0.955l-1.91,0.457c-1.224,0-1.628-0.094-1.884-0.35c-0.296-0.282-0.35-1.305-0.35-3.606V4.79c0-2.462,0-2.906,0.027-3.404
	l0.619-0.902l0.511-0.053l0.135-0.094l-0.269-0.121l-1.682,0.053l-1.775-0.053l-0.256,0.121L434.299,0.431z M445.628,12.11
	l1.776-0.04l1.21,0.04l0.242-0.121l-0.161-0.081h-0.148l-0.606-0.457l0.215-1.063l0.942-2.786l0.175-0.121h3.391l0.135,0.094
	l1.44,3.875l-0.08,0.417l-0.108,0.108l0.471,0.108l2.476,0.027l0.323-0.121l-0.175-0.081l-0.619-0.108
	c-0.336-0.094-0.78-0.336-1.359-1.735c-0.955-2.409-3.417-8.894-3.659-9.499L451.158,0l-0.363,0.606l-3.566,9.782l-1.319,1.48
	l-0.443,0.04l-0.135,0.081L445.628,12.11z M449.409,6.795l1.372-4.238h0.229l1.493,4.238l-0.053,0.122h-3.014L449.409,6.795z
	 M459.447,12.11l1.507-0.04l1.668,0.04l0.296-0.121l-0.135-0.081l-0.78-0.108c-0.431-0.121-0.579-0.538-0.619-1.83l-0.202-7.535
	c0.498,0.565,2.274,2.556,4.104,4.521c1.682,1.789,3.943,4.104,4.118,4.265l1.13,1.008l0.162-1.116l0.026-9.231l0.579-1.399
	l0.39-0.053l0.162-0.108l-0.283-0.108l-1.346,0.053l-1.628-0.053l-0.324,0.108l0.135,0.108l0.781,0.094l0.605,1.481l0.161,8.005
	c-0.498-0.525-2.207-2.435-3.767-4.104c-2.436-2.597-4.763-5.14-5.005-5.409L460.63,0l-0.188,0.781v9.028
	c0,1.426-0.094,1.884-0.471,1.991l-0.659,0.108l-0.122,0.081L459.447,12.11z M399.828,74.043c-2.112-1.588-4.601-2.947-7.104-3.93
	c-1.493-0.618-2.758-0.861-3.996-0.861c-2.489,0-4.749,0.861-7.885,1.224c-5.731,0.618-9.432,0.888-15.19,1.265
	c-17.976,0.982-7.454,0.337-25.565,0.337h-4.615c-2.745,0-6.378-0.256-10.104-5.907c-1.762,1.722-2.395,3.323-2.395,4.669
	l0.403,1.964c1.615,4.063,3.861,7.266,6.862,10.091l2.126,1.104l2.61-1.238c1.117-0.726,3.378-1.103,6.741-1.332
	c15.97-1.358,27.407-1.238,49.379-1.238c1.991,0,3.727,0,5.355,0.122c3.269,0,4.628-1.844,4.628-3.566L399.828,74.043z
	 M234.387,86.784c-6.727-4.803-13.549-8.207-21.232-10.791c5.423-6.553,11.571-16.751,16.523-23.747
	c1.036-1.508,2.005-2.315,3.189-3.256l2.005-1.884l0.471-0.834l-1.184-1.897c-2.839-3.081-6.014-5.625-9.432-7.885l-0.955-0.457
	l-1.534,0.928c-1.399,1.346-4.427,1.897-6.324,2.247c-6.822,1.548-12.271,2.355-19.227,3.337c-1.184,0.094-2.839,0.296-4.709,0.228
	c-1.574-0.08-2.61-0.148-4.023-0.645c-4.548-1.763-2.96-9.903-2.96-9.903s-5.073,8.422-0.753,14.652l0.148,0.242
	c1.628,2.18,3.471,4.602,5.597,6.58l1.655,0.632c1.171,0.054,2.705-0.875,5.167-1.897c2.26-0.767,13.213-3.983,17.922-4.776
	l0.713-0.108l0.7,0.592l-0.457,1.252c-9.203,19.2-21.366,34.592-32.615,45.572c-8.517,8.059-18.5,15.634-28.699,20.168l0.282,0.794
	c16.751-3.754,31.363-13.59,43.042-24.111c5.14-4.373,9.768-8.894,13.455-13.227c7.79,5.557,14.626,13.347,19.563,22.456
	c1.924,3.471,4.157,7.669,8.046,7.831l0.471,0.027c3.418-0.149,5.072-3.888,5.072-7.562c0-1.696-0.377-3.553-1.184-4.858
	C240.886,92.436,237.805,89.193,234.387,86.784 M395.509,42.478l0.632,0.82c9.405,4.683,17.021,11.693,18.151,12.513l3.108,1.252
	c2.26,0,4.13-1.803,4.884-3.579l0.498-2.476c0-1.937-0.875-3.861-2.624-5.651c-2.26-2.193-7.387-4.251-15.379-4.251
	c-2.489,0-5.381,0.269-8.503,0.686L395.509,42.478z M489.249,34.499c-11.8,12.19-26.842,25.914-41.414,37.418
	c-11.693,8.746-22.887,16.079-31.121,20.99c-1.494,0.753-2.919,1.426-4.279,2.005l-0.189,0.148l-0.982,0.081l-3.269-0.861
	c-5.556-3.242-4.44-10.979-4.44-10.979s-4.319,6.445-1.708,15.257c1.52,5.96,6.566,10.71,10.064,12.997l1.682,0.552l1.83-1.399
	c1.924-2.664,2.449-3.216,5.18-5.328c12.15-9.419,22.914-18.245,32.533-27.071c14.021-12.566,27.314-26.695,36.826-43.257
	L489.249,34.499z M282.798,40.177l2.919-0.135c10.253-0.847,19.94-3.417,27.744-4.548l1.534-1.977l-1.668-2.409
	c-2.449-1.56-6.741-3.969-9.351-4.964l-1.359-0.283c-1.695,0-3.216,1.413-4.44,1.696c-9.203,2.987-9.553,3.7-19.187,4.844
	c-2.61,0.282-5.355,0.565-8.571,0.565c-2.772,0-5.678-0.148-8.746-0.713h-0.296l-0.915,0.565l0.457,0.847
	C265.064,38.064,275.155,40.177,282.798,40.177 M325.449,59.309l-0.942-1.17c-3.619-2.476-8.489-5.678-12.432-7.71l-1.723-0.296
	l-2.193,0.592c-3.149,2.462-7.696,3.054-11.154,3.781c-8.477,1.884-20.277,3.916-35.831,5.813l-2.368,0.148
	c-2.112,0-4.319-0.336-6.458-1.05c-4.521-2.032-2.341-7.373-2.341-7.373s-6.122,6.727-1.453,12.365v0.026
	c1.655,1.951,7.091,6.392,8.652,7.427c1.251,0.727,2.207,1.023,2.987,1.023c1.265,0,2.207-0.431,3.606-1.023
	c8.961-3.484,25.228-5.785,34.902-8.543h0.471l1.238,1.022l-0.135,0.861c-14.141,31.565-35.036,55.044-54.815,71.769l1.426,0.026
	c34.579-19.051,63.466-59.955,70.073-68.391c4.709-5.96,6.122-6.835,6.915-7.413L325.449,59.309z M99.637,53.591
	c-1.789-0.471-3.391-0.592-4.817-0.485l-0.417,0.027c-3.848,0.39-8.517,3.216-8.517,3.216s4.965-1.561,7.79-0.081
	c2.745,1.615,3.539,3.498,3.566,5.49c0,1.669-0.498,3.337-0.861,5.126c-0.74,3.189-2.812,9.324-6.256,16.509
	c-6.539,13.186-16.711,27.502-31.256,37.445l0.35,0.673c15.608-6.028,26.25-15.715,34.242-26.52
	c3.391-4.426,6.095-8.853,8.275-12.943l0.269-0.444l-0.014-0.013c4.037-7.723,6.176-14.249,7.131-17.37l0.794-1.803l-0.269-1.022
	C108.073,58.192,104.683,54.843,99.637,53.591 M180.285,53.201c-14.962,15.742-33.449,29.735-54.183,37.526V90.7
	c-1.291-10.186-0.188-31.673,0.915-39.49c0.525-3.969,2.987-5.597,2.139-7.185c-0.848-1.628-7.32-4.346-11.571-5.678
	c-3.256-1.022-6.472-0.094-7.979,0.471l1.668,1.789c1.789,2.072,3.175,4.858,3.754,7.642l0.336,2.516l0.067,0.714
	c0.256,9.109,0.31,28.982,0.31,41.023l-2.368,2.906v0.014l-0.39,0.888l0.43,1.211v0.013l0.014,0.027l0.04,0.053h0.014
	c2.812,4.225,5.705,6.984,9.701,10.105l1.036,0.417h0.135l0.188,0.04l0.659-0.175v0.013l0.363-0.242l0.067-0.053
	c1.252-0.969,4.01-3.553,6.593-5.193l-0.027,0.013C151.922,90.215,168.472,73.262,180.285,53.201 M719.139,99.391l-3.054-2.193
	c-1.709-2.058-2.368-7.561-3.579-21.353l-0.565,2.677c-1.601,6.58-5.409,17.774-7.602,20.613c-1.104,1.412-1.709,2.193-15.918,2.193
	c-2.18,0-9.418,0-10.992-0.645c-1.48-0.646-1.48-1.682-1.48-11.598c0-3.606,0.241-21.636,0.241-25.753
	c0-0.135-0.108-5.543-0.241-8.369h21.298c-0.242,5.395-0.498,9.001,5.987,9.001c1.224,0,7.71-0.255,7.71-8.114
	c0-3.727-0.484-15.715-0.484-16.226c-0.255-5.274-0.363-11.329-0.255-20.223c3.673-2.691,4.077-3.633,4.171-4.494l-1.345-1.803
	l-8.087-6.189l-2.072-0.902l-1.547,0.713l-4.32,5.732h-17.76c-1.346,0-10.024-0.135-17.478-0.78l1.95,4.642
	c3.176-0.525,5.745-0.767,13.347-0.767h20.29v36.315h-20.182l-14.437-7.481c1.104,6.445,1.104,17.788,1.104,26.667
	c0,3.095-0.255,18.285-0.255,21.636c0,22.281,0.861,22.281,22.765,22.281c21.164,0,24.219-0.525,29.009-4.252
	c3.176-2.57,4.642-7.077,4.642-9.391L719.139,99.391z M653.304,45.949l1.844-1.426l-1.224-1.924l-8.073-7.09
	c-1.345-1.157-1.843-1.413-2.314-1.413l-1.843,1.803l-4.171,6.956h-5.368c-1.373,0-9.93-0.121-17.37-0.78l1.951,4.777
	c3.054-0.646,5.744-0.902,13.213-0.902H653.304z M659.197,26.493l-8.328-7.091c-1.346-1.143-1.709-1.278-2.314-1.278l-1.978,1.547
	l-4.749,7.09h-16.16c-1.345,0-9.916-0.135-17.384-0.78l1.951,4.628c3.054-0.512,5.758-0.767,13.227-0.767h35.117l1.843-1.412
	L659.197,26.493z M629.691,13.751h24.353c0.74,0,1.844-0.135,1.844-1.426l-1.211-1.924l-7.723-6.7l-2.207-1.292l-1.83,1.547
	l-4.293,6.701h-6.727c-1.345,0-9.916-0.135-17.384-0.781l1.978,4.763C619.532,14.007,622.223,13.751,629.691,13.751 M655.767,77.245
	l-7.481-5.92l-2.18-1.17l-1.964,1.547l-3.673,5.153H627.74l-13.939-6.7c0.847,5.409,1.21,11.073,1.21,24.205
	c0,2.328,0.135,6.58-0.121,12.755c0,1.157-0.605,6.957-0.605,8.248c0,1.682,0,4.117,5.153,4.117c6.458,0,6.593-3.606,6.956-11.463
	h14.935c-0.134,3.229-0.241,6.566,4.413,6.566c2.073,0,4.521-0.767,5.988-1.924c1.346-1.157,1.83-2.314,1.83-4.763
	c0-3.485-0.391-20.479-0.256-24.34c2.691-2.072,3.686-2.839,3.686-3.996L655.767,77.245z M641.329,104.921h-14.935V79.936h14.935
	V104.921z M616.236,62.942c3.068-0.646,5.745-0.902,13.227-0.902h23.371c0.727,0,1.95-0.121,1.95-1.426l-1.224-1.924l-8.086-7.211
	l-2.207-1.292l-1.817,1.682l-3.673,7.077h-6.108c-1.359,0-10.051-0.122-17.384-0.767L616.236,62.942z M519.012,27.852
	c4.897,0,6.498-4.628,6.498-7.453c0-6.835-5.382-11.343-15.917-16.361l-0.283,0.336c1.467,2.704,2.852,6.23,3.592,13.442
	C513.629,24.246,514.006,27.852,519.012,27.852 M598.785,84.699c-1.09,2.717-6.97,14.558-9.782,14.558
	c-2.072,0-4.884-2.314-6.243-3.727c-1.587-1.682-3.189-3.861-6.108-11.585c9.539-10.319,14.921-19.846,17.612-24.743
	c2.812-0.377,4.279-0.632,4.279-2.059l-1.574-2.18l-12.849-8.894c-1.978,10.697-9.796,23.438-11.155,25.632
	c-2.3-9.916-3.175-19.322-3.781-29.883l28.39-3.983l1.708-1.547l-1.587-1.937l-9.432-6.055c-1.467-0.902-1.709-1.036-2.314-1.036
	l-1.83,1.803l-3.916,7.992l-11.141,1.682c0-2.072-0.242-5.678-0.242-10.953c0-6.7,0.242-10.817,0.485-15.069
	c3.176-1.924,3.794-2.839,3.794-3.74c0-0.767-0.727-1.548-2.207-1.924l-15.796-4.373c0.996,5.261,1.104,7.723,1.359,13.764
	c0.255,7.992,0.484,16.361,0.982,23.828c-1.964,0.255-5.516,0.525-7.09,0.645c0.605-2.059-0.619-2.96-1.238-3.471l-7.091-5.423
	l-2.314-1.143l-2.099,1.668l-3.162,4.763h-26.56l-13.092-4.884c0.969,5.665,1.211,8.1,1.211,18.918
	c0,4.251-0.242,22.927-0.471,25.12l-0.269,2.314c0,4.507,3.686,4.507,4.655,4.507c2.825,0,7.48-0.901,7.225-7.211h8.329
	c0,1.426,0,11.719-0.135,13.791h-8.558c-5.879,0-11.624-0.269-17.504-0.78l2.072,4.763c2.341-0.512,4.655-0.902,13.226-0.902h10.765
	c0,5.153-0.229,13.145-0.606,18.675l-0.241,3.094c0,2.584,1.224,4.508,4.521,4.508c7.346,0,7.346-6.055,7.346-9.015
	c0-4.508-0.135-15.069-0.242-17.263h25.202c0.605,0,1.95,0,1.95-1.412l-1.21-1.938l-7.212-7.588l-2.207-1.412l-1.844,1.668
	l-4.776,7.602h-9.903c-0.135-6.835,0-10.562,0-13.791h9.311c-0.135,1.682-0.377,4.251,4.386,4.251c3.189,0,7.091-1.924,7.091-7.09
	c0-4.629-0.242-24.972-0.108-29.225l0.861-0.645l1.224,2.193c3.041-1.036,5.018-1.413,8.665-2.059
	c1.117,13.643,1.964,24.972,6.727,40.943c-12.58,16.24-27.475,26.022-32.386,28.848l4.871-1.669
	c12.85-4.251,23.856-12.62,30.704-18.541c8.584,20.344,23.143,25.376,26.802,25.376c3.431,0,5.14-2.327,5.14-5.032
	c0-1.413-2.328-7.589-2.328-8.881c0-2.072,1.346-12.876,2.436-19.711L598.785,84.699z M515.473,72.979h-8.463V57.655h8.463V72.979z
	 M515.473,54.573h-8.463V40.406h8.463V54.573z M535.521,72.979h-9.405V57.655h9.405V72.979z M535.521,54.573h-9.405V40.406h9.405
	V54.573z M502.623,31.902c3.781,0,6.364-3.727,6.364-7.347c0-10.804-14.073-14.545-18.244-15.702L490.5,9.15
	c1.21,1.803,3.417,5.879,5.638,14.894C497.12,28.296,498.102,31.902,502.623,31.902 M581.253,18.85
	c1.022,3.7,3.054,5.395,5.705,5.395c3.216,0,5.988-2.462,5.988-6.781c0-6.162-5.705-12.473-19.442-15.702l-3.835-0.956
	C574.364,4.467,579.774,12.997,581.253,18.85 M525.214,33.718c6.741-3.943,15.123-11.706,21.877-19.725
	c3.242-0.39,4.117-0.794,4.117-2.368c0-0.928-0.363-1.587-1.883-2.368l-13.751-7.252c-0.995,5.92-1.238,7.508-2.234,10.535
	c-1.493,4.212-6.041,15.258-9.916,22.618L525.214,33.718z M63.982,45.693l0.067-0.094l0.108-0.054
	c9.284-4.723,32.669-16.764,40.23-20.868c2.005-1.022,4.817-1.884,7.05-2.503l1.023-1.385l-0.821-1.844l-3.337-2.61
	c-4.279-3.337-8.718-6.795-13.159-9.728l-1.655-0.457l-2.651,0.847c-2.677,1.736-7.521,2.718-10.858,3.041
	c-19.187,2.301-38.683,4.09-57.56,5.826c-1.668,0.122-3.256,0.202-4.83,0.282l-1.157-0.053c-5.234-0.256-8.907-1.83-10.898-4.696
	c-2.112-3.041-1.682-6.66-1.345-8.289C2.748,4.01,1.107,6.042,0.354,8.934c-0.579,2.314-0.955,6.902,3.135,11.747
	c2.152,2.664,5.462,5.731,9.351,8.652c5.961-1.763,10.455-3.163,13.159-4.01c5.355-1.385,36.1-7.75,55.421-9.351h0.404
	c1.399,0,1.883,0.687,1.883,1.279l-0.632,1.467c-7.252,9.499-13.119,15.984-18.5,20.397l-0.309,0.269l-0.242-0.336
	c-3.377-4.494-6.041-7.306-11.222-10.145c-2.516-1.399-4.185-2.247-6.378-2.247c-1.762,0-3.364,0.39-5.018,1.197
	c4.426,2.638,5.274,5.867,5.274,11.141c0,2.974-0.363,5.772-0.781,8.369c-1.709,10.804-5.018,21.541-9.782,31.915
	c-7.871,16.684-20.599,32.655-36.059,45.248c17.747-7.75,33.072-21.877,45.625-41.992c7.306-11.463,11.948-22.362,15.002-29.561
	C62.031,49.797,63.107,47.294,63.982,45.693"/>
</svg>
