<?xml version="1.0" encoding="utf-8"?>
<!-- Generator: Adobe Illustrator 27.0.1, SVG Export Plug-In . SVG Version: 6.00 Build 0)  -->
<svg version="1.1" id="레이어_1" xmlns="http://www.w3.org/2000/svg" xmlns:xlink="http://www.w3.org/1999/xlink" x="0px"
	 y="0px" viewBox="0 0 720 249.56" enable-background="new 0 0 720 249.56" xml:space="preserve">
<path fill="#FFFFFF" d="M720,104.238h-52.068l36.152-62.492h-70.915l-24.034,85.017c-1.797,0.491-3.542,1.102-5.203,1.916
	c-3.865,1.763-7.322,4.542-10.051,7.881l-6.203-13.576l-25.254,24.44l-10.085-36.169l-13.085,7.254l14.034-28.288l-1.61-0.779
	l6.085-7.119h0.39l2.119-0.101c6.39-0.457,11.763-3.542,14.966-6.898l0.881-0.95c7.458-1.355,13.203-6.491,15.966-12.067
	c1.627-3.339,2.492-6.865,2.508-10.61V51.56l0.373-0.526c2.356-3.679,2.949-6.831,3.288-9.61l0.119-2.424
	c0-3.22-0.559-6.424-1.949-9.678c-1.119-2.662-2.898-5.458-5.559-7.797c-1.136-5.204-4.169-11.101-9.864-15.034
	c-5.135-3.66-10.966-5.457-16.22-5.423l-4.373,0.372c-2.559-1-5.135-1.441-7.678-1.441c-3.373-0.017-6.763,0.763-9.983,2.509h-0.186
	c-4.339,0.136-9.136,0.712-14.627,4.39c-4.322,3.067-6.932,6.983-8.61,10.695c-1.39,3.136-2.186,6.22-2.492,9.373
	c-4.186,4.661-5.39,10.035-5.39,14.525c0,1.932,0.203,3.814,0.644,5.662l0.746,2.525l-10.559,12.593l1.983,2.238l-0.712,0.847
	l-8.475-5.542l-1.271,2.643l-2.475-1.152l-23.237,55.39l-28.509-35.559l-4.509,3.712l-3.508-26.881l-24.661,0.017l-5.492-34.593
	l-59.983,10.255l3.848,24.339l-54.458-0.017l7.576,48.321l-14.898-10.677l-11.949-8.628L263.017,99l-27.136,38.153l0.237-6.17
	l-3.966-0.627l-4.864-55.323h-0.797l1.458-1.169l-0.271-0.356l16.848-13.272l-8.729-10.83l-25.644-31.966l-15.712,13.034
	l-0.695-0.881l-15.593,13.22l-2.085-5.254l-59.61,21.034l6.831,16.44l-27.661,0.018l-3.441-24.831L0,89.288l71.525,138.356
	l31.492-16.83c3.373,7.355,8.339,13.847,14.746,18.965c9.847,8.085,22.356,12.186,35.407,12.186h0.339
	c2.102,0,4.203-0.085,6.322-0.288c15.712-1.237,30.051-8.187,39.814-20.017c6.814-8.067,11.085-17.898,12.932-28.644l20.864,2.695
	l0.034-0.372l31.78,42.271l9,11.948l9.966-7.796l1.797-1.441l20.424-15.983l1.559-1.254c10.39,7.711,23.288,12.304,37.22,12.304
	c19.848,0,37.492-9.22,48.966-23.61l-0.034,1.424l41.39-7.678l1.39,1.254l-6.373,13.593l7.102,6.153
	c0.17,0.118,1.593,1.406,3.78,3.051c2.203,1.627,4.915,3.576,8.492,5.254c3.542,1.627,6.813,2.475,9.525,3.136
	c2.678,0.643,4.627,0.983,4.814,0.999l9.339,1.577l6.424-13.796l6.424,0.932l14.136-31.391L517,189.305l15.56,39.458l70.152-21.83
	c2.644,4.474,6.491,8.287,10.966,10.745c4.254,2.509,9.39,4.017,14.525,4.033h0.119c2.424,0,4.915-0.338,7.271-0.932
	c7.474-1.763,14.288-7.05,17.966-13.711c2.508-4.34,4.034-9.458,4-14.61c0-1.678-0.136-3.339-0.441-4.983L720,104.238
	 M112.373,149.237l-3.237,3.848l-2.509,1.339l-2.034-14.627l18.695,0.017C119.305,142.509,115.593,145.645,112.373,149.237"/>
<path fill="#8C89C1" d="M510.458,148.679l26.051-52.61l-1.627-0.762l0.441-0.966l-4.966-2.678l9.763-11.627l1.983,1.559l1.915-2.237
	l-6.356-5.288c5.526-4.288,10.576-8.136,11.288-8.525c3.746,2.728,5.424,4.678,10.39,4.305c6.356-0.508,9.271-5.542,9.898-7.915
	c5.525,1.458,9.763-1.339,11.729-5.238c0.949-1.881,1.356-4.051,1.153-6.118l-1.085-3.408l3.61-3.017l1.288-3.932
	c0.322-3.509-0.881-7.779-3.881-9.847l-3.22-1.17l0.085-3.797c-0.373-3.169-1.763-6.457-5.068-8.762
	c-6.458-4.526-11.949-3.424-15.135-1.56l-2.915-2.119c-2.373-0.914-5.186-0.712-7.305,0.577l-2.203,2.491l-1.085-0.695
	c-1.509-0.762-6.848-0.593-10.153,1.696c-3.932,2.78-5.83,8.203-5.932,12.102l0.051,1.678l0.543,2.203l-3.695,2.288
	c-2.17,2.339-2.559,5.966-1.831,8.983l1.729,3.762l3.61,3.526c0,0.22-0.237,1.932-0.949,3.56c-0.881,2.101-2.237,5-3.695,8.169
	l-4.237-3.576l-1.949,2.271l2.017,2.221l-14.695,17.525l-5.797-3.78l-0.441,0.95l-2-0.916L446.966,199.12
	c0,0,2.153,1.949,5.22,4.288l-6.39,13.746c0,0,5.135,4.474,9.373,6.423c4.237,1.983,11.186,3.17,11.186,3.17l6.424-13.864
	c3.526,0.797,6.187,1.187,6.187,1.187l12.288-27.289l32.577-13.864l16.051,40.577l66.068-20.577l-22.254-48.779l-27.627,26.729
	L544.61,129.73L510.458,148.679 M533.187,56.577c1.729-2.085,4.051-2.508,4.407-2.423c0.695,0.186-2.847-1.441-5.729-4.407
	c-2.237-2.357-3.966-6-4.102-7.237c-0.322-2.424,0.949-6,3.848-6.186c2.135-0.17,4.966,1.373,6.458,2.61
	c0,0-5.136-6.034-5.119-9.679c-0.017-3.542,1.729-7.729,4.288-9.084c6.39-3.39,9.78,1.084,10.61,3.338c0,0-0.153-4.864,2.661-6.728
	l3.932-0.271l1.813,1.864l0.848,3.136l2.373-2.305c0.153-0.186,4.797-4.627,12.22,0.559c2.458,1.696,3.865,5.153,3.576,8.102
	c-0.305,3.051-2.78,4.746-4.83,6.762c0,0,5.915-3.423,9.44-1.136c4.356,2.814,2.339,10.34-2.661,10.916l-6.051,0.695
	c0,0,10.39,0.542,6.407,9.88c-1.186,2.814-4.492,4.865-9.152,2.644l-3.508-2.762c0,0,3.949,7.695-5.119,10.254
	c-5.576,1.593-9.559-2.05-11.187-4l-1.152-2.034l-1.983,3.153l-9.847,10.084l-8.661-7.271
	C529.169,61.798,531.407,58.713,533.187,56.577"/>
<polygon fill="#9CC715" points="276.543,231.984 275.187,230.17 229.814,169.815 228.814,168.509 229.729,167.17 273.136,106.187 
	274.424,104.357 276.271,105.662 297,120.544 298.797,121.848 297.492,123.662 266.322,167.526 299.17,211.476 300.509,213.221 
	298.746,214.561 278.356,230.578 "/>
<path fill="#F4A000" d="M622.305,139.391c4.373,1.593,7.593,4.491,9.542,8.695c1.966,4.203,2.119,8.542,0.525,12.983
	c-1.661,4.474-4.542,7.644-8.712,9.542c-4.203,1.864-8.458,2-12.865,0.407c-4.542-1.644-7.746-4.508-9.746-8.627
	c-1.915-4.102-2.085-8.424-0.458-12.899c1.627-4.44,4.542-7.66,8.695-9.593C613.458,137.899,617.78,137.73,622.305,139.391
	 M682.56,54.153l-48.983,84.628l-13.322-5.712l22.322-78.915H682.56z"/>
<path fill="#F4A000" d="M636.678,177.746c4.034,2.339,6.661,5.763,7.881,10.255c1.187,4.458,0.593,8.78-1.78,12.864
	c-2.322,4.136-5.78,6.762-10.203,7.882c-4.458,1.118-8.678,0.526-12.712-1.831c-4.186-2.39-6.881-5.796-8.085-10.169
	c-1.22-4.407-0.627-8.661,1.763-12.78c2.373-4.084,5.729-6.728,10.186-7.966C628.169,174.764,632.526,175.356,636.678,177.746
	 M695.068,116.661l-47.203,62.492l-12.136-7.983l21.508-54.509H695.068z"/>
<path fill="#00B3EC" d="M400.847,131.441l0.085-8.101l-0.814-18.136l25.051-0.017l-4.492-34.814h-24.373l-5.186-32.627
	l-35.526,6.067l4.203,26.576l-54.491-0.017l5.491,34.814h52.441l0.932,16.457l-2.881-0.322c-16.593-1.577-28.542,1.526-36.814,5.712
	c-17.373,7.897-29.458,25.39-29.458,45.745c0,7.305,1.559,14.288,4.407,20.576c2.932,7.526,7.475,13.61,13.695,18.204l1.407,0.949
	c8.492,6.542,19.153,10.492,30.695,10.492c22.119-0.034,40.898-14.339,47.61-34.203c4.119-10.339,4.746-20.339,4.746-20.339
	c9.966,10.288,9.356,29.746,9.356,29.746l33.864-6.271c0,0,3.424-3.441-4.034-24.576
	C431.271,151.933,418.458,139.577,400.847,131.441 M347.474,157.56l2.068-1.068l4.424,1.932l0.661,2.22l-0.204,0.61l-1.017-0.712
	c-1.881-1.306-4-2.086-6.153-2.373L347.474,157.56z M345.135,177.798c-2.746,0-5-2.238-5-4.967c0-2.762,2.254-5.017,5-5.017
	c2.746,0,4.966,2.238,4.966,5.017C350.135,175.56,347.881,177.798,345.135,177.798 M346.034,180.78l-0.271,2.628l-0.729,0.678
	l-0.729-0.695l-0.271-2.61l0.458-0.491l1.085-0.017L346.034,180.78z M338.187,164.593l2.051,1.712l0.051,0.661l-0.78,0.763
	l-0.644-0.052l-1.712-2.05l0.034-1L338.187,164.593z M338.627,161.306l3.424-1.339l1.305,1.118l-0.644,2.949l-1.881,0.712
	L338.407,163L338.627,161.306z M340.102,179.035l-2.068,1.678l-0.983-0.034l-0.068-0.983l1.695-2.051l0.661-0.051l0.797,0.797
	L340.102,179.035z M340.407,180.526l1.78,0.916l0.39,2.966l-1.458,1l-3.237-1.644l-0.068-1.678L340.407,180.526z M337.102,173.611
	l-2.627-0.254l-0.695-0.728l0.695-0.729l2.627-0.254l0.475,0.441v1.085L337.102,173.611z M337.559,167.882l-0.949,1.746l-3,0.304
	l-0.966-1.406l1.695-3.238l1.729-0.017L337.559,167.882z M332.881,164.441c-1.254,1.915-2.068,4.051-2.373,6.186l-0.576-0.237
	l-1.068-2.017c0.407-1.559,1.034-3.051,1.932-4.474l2.186-0.679l0.627,0.254L332.881,164.441z M330.034,174.899l0.593-0.289
	l0.237,1.204c0.492,2.237,1.491,4.27,2.814,5.966l-0.593,0.288l-2.186-0.627c-0.83-1.356-1.491-2.865-1.915-4.474L330.034,174.899z
	 M333.356,178.764l-1.102-3.475l1.152-1.271l2.949,0.813l0.559,1.865l-1.847,2.356L333.356,178.764z M335.593,184.9l0.237-0.644
	l1,0.728c1.915,1.289,4,2.086,6.152,2.391l-0.237,0.593l-1.983,1.051c-1.559-0.407-3.068-1.051-4.509-1.916L335.593,184.9z
	 M352.678,173.391v-1.068l0.475-0.458l2.661,0.254l0.678,0.746l-0.678,0.728l-2.644,0.254L352.678,173.391z M353.102,179.832
	l-0.017,1.017l-1,0.034l-2.051-1.679L350,178.526l0.797-0.762l0.644,0.034L353.102,179.832z M351.61,167.831l-0.678,0.051
	l-0.763-0.762l0.034-0.679l2.068-1.678l0.949,0.051l0.051,0.984L351.61,167.831z M352.271,163.289l-2.542,1.593l-1.848-0.813
	l-0.457-3l1.39-1.035l3.305,1.526L352.271,163.289z M347.39,181.611l1.864-0.644l2.407,1.848l-0.305,1.712l-3.475,1.187l-1.22-1.17
	L347.39,181.611z M347.881,187.255c2.288-0.424,4.322-1.373,6.051-2.661l0.271,0.593l-0.661,2.187
	c-1.39,0.779-2.915,1.389-4.542,1.779l-2.051-1.068l-0.288-0.627L347.881,187.255z M353.051,177.408l0.797-1.78l3-0.407l1.051,1.39
	l-1.61,3.305l-1.712,0.085L353.051,177.408z M357.339,181.051c1.305-1.915,2.102-4.017,2.356-6.152l0.627,0.237l1.068,2.017
	c-0.407,1.559-1.068,3.051-1.932,4.458l-2.169,0.678l-0.661-0.253L357.339,181.051z M360.458,170.916l-0.627,0.271l-0.169-1.203
	c-0.458-2.254-1.424-4.306-2.712-6.051l0.627-0.238l2.119,0.661c0.83,1.39,1.424,2.899,1.831,4.508L360.458,170.916z
	 M358.068,169.865l-1.152,1.288l-2.949-0.695l-0.627-1.881l1.797-2.39l1.678,0.22L358.068,169.865z M344.509,162.086l0.763-0.661
	l0.712,0.661l0.271,2.61l-0.441,0.508h-1.119l-0.424-0.508L344.509,162.086z M343.271,157.441l0.271,0.628l-1.187,0.169
	c-2.288,0.441-4.305,1.39-6.034,2.696l-0.288-0.594l0.695-2.186c1.356-0.797,2.882-1.407,4.526-1.815L343.271,157.441z
	 M319.203,180.052l-3.441,0.576c-0.661-2.525-0.983-5.136-0.983-7.882c0-13.355,8.576-24.694,20.525-28.796
	c2.187,0.152,4.898,0.712,5.288,2.509c0.169,0.779,0.22,2.44,0.237,4.458c-11.746,2.321-19.509,13.525-17.61,25.288
	C321.169,178.221,319.61,179.747,319.203,180.052 M345.22,203.238c-7.661,0-14.712-2.848-20.051-7.525
	c-0.932-1.932-1.763-4.56-0.424-5.78c0.593-0.526,1.983-1.424,3.763-2.441c5.034,5.678,12.881,8.628,20.915,7.102
	c3.661-0.712,6.932-2.305,9.644-4.492c2.814,0.78,4.966,1.39,5.424,1.577l2.221,2.678
	C361.203,199.848,353.61,203.238,345.22,203.238 M375.119,178.645c-1.22,1.797-3.068,3.881-4.797,3.288
	c-0.797-0.22-2.288-1.033-4.085-2.05c1.203-3.56,1.542-7.458,0.779-11.373c-1.525-7.796-6.915-13.779-13.746-16.474
	c-0.763-2.796-1.254-4.915-1.356-5.407l1.237-3.304c12.966,3.508,22.542,15.355,22.542,29.457
	C375.695,174.78,375.491,176.747,375.119,178.645 M437.729,98.695l-25.068,20.662l28.102,32.881l23.017-21.034L437.729,98.695z"/>
<polygon fill="#E85F9D" points="208.729,71.526 191.678,49.459 179.17,60.086 195.983,81.696 "/>
<polygon fill="#E85F9D" points="225.034,58.018 208.203,37.001 196.525,46.68 213.017,67.543 "/>
<path fill="#E85F9D" d="M196.051,139.798l-0.678,0.033l-0.407-0.136l-3.763-13.695h26.712l-3.254-37.169h-34.153
	c-2.017-5.865-4.186-13.695-6.525-19.983c-2.373-6.322-3.237-7.288-5.847-13.864l-33.356,11.78l9.186,22.068H96.949l4.763,37.169
	h53.525l3.678,14.966c-15.983,2.644-28.102,8.492-36.339,17.525c-8.203,9.034-11.78,19.712-10.695,32.085
	c1.034,11.933,5.898,21.475,14.576,28.474c8.661,7.035,19.407,10.017,32.237,8.882c12.695-1.119,22.864-6.17,30.39-15.136
	c7.508-8.967,11.152-20.746,10.847-35.323l20.373,2.61l1.542-37.356c-6.847-1.051-12.407-1.763-16.746-2.169
	C200.763,140.136,197.746,139.899,196.051,139.798 M160.746,187.899c-2.525,2.865-5.204,4.187-8.017,3.933
	c-1.729-0.153-3.186-0.865-4.39-2.203c-1.186-1.322-1.661-2.933-1.525-4.831c0.288-3.136,2.085-5.711,5.322-7.678
	c3.576-1.763,8.373-2.661,14.407-2.627C165,180.526,163.068,185.017,160.746,187.899"/>
<polygon fill="#E85F9D" points="105.356,170.78 95.695,176.017 80.983,69.933 19.068,96.188 77.356,208.899 103.831,194.746 "/>
</svg>
