<?xml version="1.0" encoding="utf-8"?>
<!-- Generator: Adobe Illustrator 27.0.1, SVG Export Plug-In . SVG Version: 6.00 Build 0)  -->
<svg version="1.1" id="레이어_1" xmlns="http://www.w3.org/2000/svg" xmlns:xlink="http://www.w3.org/1999/xlink" x="0px"
	 y="0px" viewBox="0 0 720 366.694" enable-background="new 0 0 720 366.694" xml:space="preserve">
<path fill="#E5004F" d="M359.475,178.412c-1.666-4.342-4.963-6.504-9.907-6.504h-67.116c-4.944,0-9.411,2.162-13.381,6.504
	c-4.006,4.325-6.965,10.102-8.897,17.351c0,0-21.373,79.982-21.373,80.196c-2.215,12.973,5.973,23.092,19.247,23.092h57.44
	c4.944,0,9.411-2.162,13.416-6.487c3.97-4.306,6.929-10.101,8.861-17.351l4.271-15.879c0.939-3.526,0.23-5.298-2.109-5.298h-36.597
	c-2.357,0-3.987,1.772-4.944,5.298l-4.324,15.756h-8.455l7.869-29.012h38.883c7.479,0,8.915-1.453,11.573-4.359
	c2.676-2.907,4.625-6.753,5.902-11.537l9.233-34.418C360.999,188.514,361.141,182.737,359.475,178.412 M295.301,227.539
	l8.648-32.361h11.608l-8.666,32.361H295.301z"/>
<path fill="#E5004F" d="M332.355,31.776h-69.793c-2.357,0-4.004,1.773-4.962,5.299L226.391,153.62
	c-0.957,3.545-0.249,5.318,2.108,5.318h36.58c2.357,0,4.006-1.773,4.944-5.318l26.407-98.591h11.59l-26.389,98.591
	c-0.956,3.545-0.248,5.318,2.109,5.318h36.58c2.357,0,4.006-1.773,4.962-5.318l25.787-96.269
	C354.862,43.226,346.48,31.776,332.355,31.776"/>
<path fill="#E5004F" d="M244.606,38.264c-1.666-4.324-4.963-6.486-9.925-6.486h-67.098c-1.241,0-2.427,0.142-3.615,0.408
	c-3.527,0.815-6.806,2.835-9.783,6.078c-3.988,4.342-6.948,10.119-8.88,17.369l-4.253,15.879c-0.939,3.526-0.248,5.298,2.109,5.298
	h29.508c3.297,0,6.274-1.453,8.95-4.359c2.659-2.924,4.625-6.77,5.902-11.537l1.56-5.884h11.608l-7.957,29.721h-29.668
	c-14.107,0-28.639,11.467-32.433,25.575l-6.628,24.758c-1.932,7.249-2.074,13.026-0.408,17.333c1.241,3.26,3.42,5.281,6.522,6.096
	c1.029,0.283,2.162,0.425,3.386,0.425h72.415c3.296,0,6.274-1.471,8.932-4.378c2.676-2.907,4.644-6.752,5.92-11.537l23.429-87.39
	C246.13,48.366,246.272,42.606,244.606,38.264 M187.77,103.306l-8.596,31.636h-11.59l8.595-31.636H187.77z"/>
<path fill="#E5004F" d="M466.816,178.401c-1.666-4.325-4.963-6.487-9.925-6.487h-67.098c-1.222,0-2.427,0.142-3.615,0.391
	c-3.527,0.815-6.806,2.835-9.783,6.096c-3.988,4.324-6.948,10.101-8.88,17.351l-4.253,15.897c-0.939,3.526-0.248,5.299,2.109,5.299
	h29.508c3.297,0,6.292-1.454,8.95-4.378c2.659-2.907,4.644-6.752,5.902-11.52l1.56-5.883h11.608l-7.957,29.721h-29.668
	c-14.107,0-28.639,11.449-32.433,25.556l-6.628,24.775c-1.932,7.231-2.074,13.009-0.408,17.333c1.241,3.261,3.42,5.281,6.522,6.096
	c1.029,0.266,2.162,0.408,3.403,0.408h72.398c3.296,0,6.274-1.454,8.932-4.36c2.676-2.924,4.644-6.769,5.92-11.537l23.429-87.407
	C468.357,188.502,468.482,182.725,466.816,178.401 M409.98,243.425l-8.596,31.653h-11.59l8.595-31.653H409.98z"/>
<path fill="#E5004F" d="M598.004,171.912H484.756c-2.34,0-3.988,1.773-4.927,5.299l-31.245,116.544
	c-0.939,3.527-0.23,5.299,2.109,5.299h36.597c2.357,0,4.004-1.772,4.944-5.299l26.389-98.591h11.608l-26.389,98.591
	c-0.956,3.527-0.248,5.299,2.109,5.299h24.776c2.357,0,4.006-1.772,4.944-5.299l26.407-98.591h11.609l-26.408,98.591
	c-0.956,3.527-0.248,5.299,2.109,5.299h36.58c2.357,0,4.006-1.772,4.962-5.299l25.787-96.269
	C620.511,183.362,612.129,171.912,598.004,171.912"/>
<path fill="#E5004F" d="M126.19,171.917H45.108c-2.357,0-4.023,1.755-4.944,5.299L0.394,325.555
	c-0.922,3.527-0.23,5.299,2.127,5.299h90.776c4.927,0,9.411-2.18,13.381-6.504c3.987-4.325,6.948-10.102,8.879-17.351l3.474-12.956
	c0.017-0.088,0.053-0.176,0.089-0.283l25.786-96.27C148.698,183.365,140.315,171.917,126.19,171.917 M54.59,306.875l30.022-111.706
	h11.609L66.198,306.875H54.59z"/>
<path fill="#E5004F" d="M478.844,22.621c1.931-12.742-6.204-22.613-19.336-22.613h-68.729c-4.944,0-9.41,2.161-13.398,6.486
	c-3.97,4.325-6.929,10.102-8.879,17.333l-29.81,111.262c-1.949,7.249-2.074,13.027-0.408,17.333c1.666,4.342,4.98,6.504,9.907,6.504
	h78.423c4.927,0,9.392-2.162,13.398-6.504c3.97-4.306,6.929-10.085,8.88-17.333l12.423-46.362c0.922-3.527,0.23-5.282-2.109-5.282
	h-45.955l-8.152,30.448h8.613l-2.127,7.958h-20.044l26.389-98.592h11.608l-12.548,46.93c-0.956,3.545-0.265,5.282,2.109,5.282
	h42.233c2.357,0,3.988-1.737,4.944-5.282l11.698-43.633C478.206,25.882,478.701,23.667,478.844,22.621"/>
<path fill="#E5004F" d="M126.191,0H45.109c-2.357,0-4.023,1.772-4.944,5.299L0.395,153.62c-0.922,3.545-0.23,5.317,2.109,5.317
	h90.793c4.927,0,9.392-2.161,13.381-6.503c3.987-4.325,6.947-10.102,8.879-17.351l10.652-39.717
	c1.276-4.785,1.365-8.614,0.266-11.537c-1.099-2.924-3.297-4.378-6.593-4.378c3.296,0,6.274-1.453,8.932-4.359
	c2.128-2.34,3.794-5.264,5.034-8.773c0.478-1.649,11.058-40.763,11.058-40.763C148.698,11.43,140.316,0,126.191,0 M66.199,134.941
	H54.59l12.282-45.406h11.609L66.199,134.941z M72.279,69.401l12.335-46.149h11.608L83.869,69.401H72.279z"/>
<path fill="#E5004F" d="M197.341,195.173l-26.389,98.574c-0.957,3.545-2.623,5.299-4.98,5.299H129.41
	c-2.357,0-3.067-1.755-2.109-5.299l31.228-116.544c0.939-3.526,2.587-5.281,4.944-5.281h79.469c4.944,0,8.24,2.162,9.925,6.486
	c1.666,4.325,0.23,14.835-1.702,22.065l-2.942,11.184c-0.939,3.526-2.587,5.298-4.927,5.298h-29.526
	c-3.296,0-5.511-1.47-6.592-4.395c-1.117-2.907-1.029-6.735,0.248-11.502l1.507-5.884H197.341z"/>
<path fill="#E5004F" d="M341.301,357.496c-0.389,0.106-0.744,0.159-1.063,0.159c-1.719,0-2.64-1.222-2.127-3.119l1.135-4.2
	c2.021-7.568,7.266-1.4,10.758-14.408l5.317-19.849c0.603-2.269,2.871-4.041,5.122-4.041h3.137c2.268,0,3.562,1.772,2.96,4.041
	l-4.98,18.609C358.191,347.2,351.155,354.98,341.301,357.496 M381.231,357.655c-0.355,0-0.638-0.053-1.01-0.159
	c-8.472-2.516-11.343-10.297-7.994-22.809l4.98-18.609c0.621-2.269,2.872-4.041,5.122-4.041h3.12c2.251,0,3.562,1.772,2.96,4.041
	l-5.317,19.849c-3.473,13.009,5.086,6.788,3.03,14.408l-1.116,4.2C384.51,356.433,382.95,357.655,381.231,357.655"/>
<path fill="#E5004F" d="M493.124,343.151h-6.629c-7.55,0-13.877-1.275-18.272-3.827l-3.987,14.833
	c-0.603,2.268-2.854,4.059-5.122,4.059h-3.669c-2.268,0-3.562-1.79-2.96-4.059l10.191-38.068c0.62-2.268,2.871-4.059,5.139-4.059
	h3.669c2.268,0,3.562,1.79,2.96,4.059l-2.995,11.183c-0.478,1.809,10.191,4.608,18.059,4.608h6.646c2.268,0,3.562,1.79,2.96,4.059
	l-0.85,3.173C497.661,341.379,495.392,343.151,493.124,343.151"/>
<path fill="#E5004F" d="M511.48,339.866h-3.173c-2.268,0-3.58-1.772-2.96-4.059l4.678-17.457c0.603-2.268,2.854-4.059,5.122-4.059
	h3.19c2.251,0,3.563,1.79,2.961,4.059l-4.679,17.457C516,338.094,513.749,339.866,511.48,339.866 M519.084,358.208h-9.376
	c-2.268,0-3.562-1.789-2.96-4.057l0.833-3.12c0.603-2.251,2.871-4.041,5.14-4.041h9.676c10.155,0,14.799-4.484,17.634-14.992
	l3.651-13.647c0.604-2.268,2.854-4.059,5.122-4.059h3.226c2.269,0,3.58,1.79,2.96,4.059l-3.704,13.806
	C545.951,352.147,536.132,358.208,519.084,358.208"/>
<path fill="#E5004F" d="M420.155,358.208h-15.987c-2.268,0-3.579-1.789-2.96-4.057l0.833-3.12c0.603-2.251,2.871-4.041,5.139-4.041
	h16.287c10.155,0,14.782-4.484,17.617-14.992l3.651-13.647c0.603-2.268,2.871-4.059,5.139-4.059h3.226c2.251,0,3.58,1.79,2.96,4.059
	l-3.704,13.806C447.023,352.147,437.187,358.208,420.155,358.208"/>
<path fill="#E5004F" d="M428.237,325.896h-15.118c-2.251,0-3.562-1.789-2.96-4.04l0.957-3.509c0.603-2.268,2.852-4.041,5.122-4.041
	h15.1c2.268,0,3.562,1.773,2.96,4.041l-0.94,3.509C432.755,324.107,430.487,325.896,428.237,325.896"/>
<path fill="#E5004F" d="M487.256,323.784c0.229-0.176,0.372-0.442,0.336-0.744l-0.372-3.367l2.286-2.534
	c0.195-0.229,0.266-0.514,0.177-0.797c-0.106-0.283-0.336-0.478-0.603-0.531l-3.35-0.71l-1.683-2.941
	c-0.142-0.266-0.408-0.426-0.709-0.426c-0.284,0-0.549,0.16-0.71,0.426l-1.683,2.941l-3.332,0.71
	c-0.284,0.053-0.497,0.248-0.603,0.531c-0.054,0.16-0.054,0.355,0,0.497c0.035,0.106,0.106,0.213,0.176,0.301l2.269,2.534
	l-0.373,3.367c-0.017,0.284,0.107,0.568,0.355,0.744c0.213,0.177,0.532,0.213,0.797,0.089l3.102-1.382l3.101,1.382
	C486.706,323.997,487.007,323.961,487.256,323.784"/>
<path fill="#E5004F" d="M499.284,326.553c0.212-0.159,0.336-0.425,0.318-0.709l-0.336-3.207l2.145-2.375
	c0.176-0.195,0.248-0.496,0.159-0.744c-0.07-0.266-0.301-0.478-0.567-0.531l-3.155-0.657l-1.613-2.782
	c-0.142-0.248-0.372-0.389-0.656-0.389s-0.531,0.142-0.673,0.389l-1.596,2.765l-3.154,0.674c-0.266,0.053-0.479,0.265-0.568,0.531
	c-0.053,0.142-0.053,0.319,0,0.461c0.036,0.106,0.089,0.195,0.16,0.283l2.144,2.375l-0.336,3.207
	c-0.017,0.283,0.089,0.549,0.319,0.709c0.23,0.16,0.514,0.196,0.763,0.071l2.941-1.294l2.942,1.311
	C498.769,326.749,499.054,326.713,499.284,326.553"/>
<path fill="#E5004F" d="M399.836,325.359c0.229-0.176,0.354-0.442,0.318-0.726l-0.354-3.297l2.215-2.463
	c0.212-0.213,0.265-0.514,0.177-0.78c-0.089-0.266-0.319-0.478-0.585-0.514l-3.243-0.709l-1.666-2.872
	c-0.143-0.23-0.408-0.389-0.691-0.389c-0.266,0-0.532,0.159-0.691,0.389l-1.648,2.872l-3.243,0.709
	c-0.285,0.036-0.515,0.248-0.585,0.514c-0.053,0.177-0.053,0.336,0,0.496c0.036,0.106,0.07,0.195,0.159,0.283l2.215,2.463
	l-0.336,3.297c-0.036,0.283,0.089,0.549,0.319,0.726c0.23,0.177,0.532,0.196,0.78,0.089l3.031-1.347l3.03,1.347
	C399.304,325.555,399.588,325.536,399.836,325.359"/>
<path fill="#E5004F" d="M407.642,315.528c0.229-0.159,0.336-0.425,0.318-0.69l-0.336-3.208l2.145-2.374
	c0.195-0.213,0.248-0.515,0.159-0.763c-0.089-0.266-0.301-0.461-0.567-0.514l-3.155-0.674l-1.594-2.782
	c-0.16-0.248-0.408-0.389-0.674-0.389c-0.283,0-0.531,0.142-0.673,0.389l-1.596,2.782l-3.154,0.674
	c-0.266,0.053-0.497,0.248-0.568,0.514c-0.07,0.142-0.07,0.319,0,0.478c0.018,0.107,0.089,0.196,0.16,0.284l2.144,2.374
	l-0.336,3.208c-0.017,0.265,0.089,0.531,0.319,0.69c0.23,0.177,0.514,0.196,0.763,0.089l2.941-1.311l2.925,1.311
	C407.127,315.724,407.412,315.706,407.642,315.528"/>
<path fill="#E5004F" d="M640.684,363.797c1.612-1.258,2.445-3.279,2.144-5.334l-3.314-23.802l15.437-18.396
	c1.328-1.578,1.683-3.739,0.992-5.654c-0.709-1.896-2.357-3.314-4.412-3.686l-23.66-4.165l-12.707-20.399
	c-1.135-1.737-3.049-2.765-5.105-2.693c-2.002,0.07-3.881,1.222-4.856,3.048l-11.271,21.213l-23.341,5.813
	c-1.968,0.514-3.545,2.003-4.13,3.988c-0.354,1.169-0.283,2.427,0.124,3.526c0.266,0.744,0.708,1.418,1.276,2.038l16.694,17.298
	l-1.7,23.979c-0.124,2.038,0.815,3.987,2.552,5.139c1.701,1.152,3.864,1.294,5.724,0.408l21.587-10.527l22.277,9.003
	C636.89,365.357,639.052,365.038,640.684,363.797"/>
<path fill="#E5004F" d="M707.663,171.307c-6.487,0.124-13.949,3.35-20.417,8.348l18.804-35.657
	c6.539-12.423,2.427-22.331-9.216-22.118c-11.662,0.195-21.976,4.448-32.964,22.843l-42.96,81.472
	c-6.54,12.406-2.41,22.312,9.233,22.118c6.486-0.124,13.948-3.367,20.416-8.348l-18.803,35.676
	c-6.54,12.406-2.428,22.313,9.216,22.118c11.661-0.212,23.145-4.235,32.964-22.862l42.96-81.471
	C723.435,181.019,719.306,171.112,707.663,171.307"/>
</svg>
