<?xml version="1.0" encoding="utf-8"?>
<!-- Generator: Adobe Illustrator 27.0.1, SVG Export Plug-In . SVG Version: 6.00 Build 0)  -->
<svg version="1.1" id="레이어_1" xmlns="http://www.w3.org/2000/svg" xmlns:xlink="http://www.w3.org/1999/xlink" x="0px"
	 y="0px" viewBox="0 0 720 105.423" enable-background="new 0 0 720 105.423" xml:space="preserve">
<polygon fill="#E50064" points="98.945,22.549 112.015,9.48 98.93,9.48 85.845,22.549 "/>
<polygon fill="#E50064" points="96.144,9.479 65.25,9.479 65.25,0.144 0,0.144 5.228,1.867 5.271,92.352 18.183,105.422 
	114.815,105.422 114.772,55.44 65.293,55.44 65.293,42.37 114.772,42.37 114.772,24.704 80.963,24.704 "/>
<polygon fill="#E50064" points="114.772,9.479 101.688,22.549 114.772,22.549 127.856,9.479 "/>
<polygon fill="#E50064" points="159.282,42.083 150.349,33.178 141.458,33.178 141.458,66.93 159.282,66.93 "/>
<polygon fill="#E50064" points="163.505,33.178 163.505,71.24 119.411,71.24 119.44,105.423 186.471,105.279 197.444,94.219 
	197.444,33.178 "/>
<polygon fill="#E50064" points="119.411,66.93 137.235,66.93 137.235,42.083 128.301,33.178 114.154,33.178 119.411,34.902 "/>
<polygon fill="#E50064" points="424.216,32.316 429.443,33.896 429.458,72.963 503.31,72.963 516.266,59.892 516.266,32.316 "/>
<polygon fill="#E50064" points="627.95,32.173 633.163,33.897 633.192,72.963 707.059,72.963 720,59.893 720,32.173 "/>
<polygon fill="#E50064" points="295.756,13.214 308.797,0.144 295.727,0.144 282.672,13.214 "/>
<polygon fill="#E50064" points="292.97,0.144 214.219,0.144 218.916,1.58 202.039,18.528 202.068,56.015 217.005,56.015 
	239.942,33.034 266.872,33.034 238.664,61.185 202.068,61.185 202.083,105.279 276.94,105.279 311.583,70.664 311.583,15.225 
	277.802,15.225 "/>
<polygon fill="#E50064" points="311.584,0.144 298.513,13.214 311.584,13.214 324.625,0 "/>
<polygon fill="#E50064" points="417.753,8.761 417.753,0 354.112,0 359.369,1.724 359.383,8.761 316.209,8.761 316.209,41.652 
	359.383,41.652 359.383,46.966 347.477,46.966 289.12,105.279 345.637,105.279 359.383,93.358 359.412,105.279 417.81,105.279 
	417.767,41.652 425.724,41.652 425.724,8.761 "/>
<polygon fill="#E50064" points="613.645,13.07 626.686,0 613.645,0 600.56,13.07 "/>
<polygon fill="#E50064" points="610.858,0 532.136,0 536.804,1.436 519.971,18.385 519.971,55.871 534.908,55.871 557.845,32.891 
	584.775,32.891 580.007,37.631 553.048,37.631 553.077,56.302 561.335,56.302 556.538,61.185 519.971,61.185 519.971,105.279 
	594.829,105.279 629.515,70.521 629.472,15.225 595.662,15.225 "/>
<polygon fill="#E50064" points="629.472,0 616.388,13.07 629.472,13.07 642.556,0 "/>
<path fill="#E50064" d="M444.452,86.751l-2.585,3.447H429.99V78.851h11.877l2.585,3.591l-1.637,2.154L444.452,86.751z
	 M440.719,82.442l-0.834-1.005h-6.506v2.011h6.506L440.719,82.442z M440.719,86.751l-0.834-1.005h-6.506v1.867h6.506L440.719,86.751
	z"/>
<rect x="446.234" y="78.851" fill="#E50064" width="3.39" height="11.347"/>
<polygon fill="#E50064" points="464.948,78.851 462.463,81.437 454.922,81.437 454.894,87.613 461.171,87.613 461.171,85.746 
	458.829,85.746 456.546,83.447 464.546,83.447 464.546,87.613 462.017,90.198 454.075,90.198 451.518,87.613 451.504,81.437 
	454.075,78.851 "/>
<path fill="#E50064" d="M444.467,102.406l-2.557,2.586h-9.364l-2.556-2.586V96.23l2.556-2.585h9.35l2.571,2.585V102.406z
	 M433.379,102.406h7.699V96.23h-7.699V102.406z"/>
<path fill="#E50064" d="M460.625,104.992h-3.39v-2.729l-1.005-1.005h-6.478v3.734h-3.389V93.645h11.706l2.556,3.591l-1.924,2.585
	l1.924,1.867V104.992z M457.164,97.379l-0.891-1.149h-6.535v2.442h6.52L457.164,97.379z"/>
<path fill="#E50064" d="M476.941,99.39l-3.174,5.602h-11.26V93.645h11.26L476.941,99.39z M473.265,99.39l-1.781-3.159h-5.602
	l0.015,6.176h5.63L473.265,99.39z"/>
<polygon fill="#E50064" points="492.065,93.645 489.579,96.23 482.025,96.23 482.025,98.241 490.455,98.241 488.144,100.539 
	482.025,100.539 482.025,102.406 491.691,102.406 489.149,104.991 478.65,104.991 478.65,93.645 "/>
<path fill="#E50064" d="M507.576,104.992h-3.418v-2.873l-0.991-1.005h-6.52v3.878h-3.39V93.645h11.763l2.556,3.447l-1.967,2.729
	l1.967,1.867V104.992z M504.072,97.379l-0.877-1.149h-6.549v2.442h6.52L504.072,97.379z"/>
</svg>
