<?xml version="1.0" encoding="utf-8"?>
<!-- Generator: Adobe Illustrator 27.5.0, SVG Export Plug-In . SVG Version: 6.00 Build 0)  -->
<svg version="1.1" id="레이어_1" xmlns="http://www.w3.org/2000/svg" xmlns:xlink="http://www.w3.org/1999/xlink" x="0px"
	 y="0px" viewBox="0 0 720 231.266" enable-background="new 0 0 720 231.266" xml:space="preserve">
<g>
	<g>
		<path id="Fill-25" fill-rule="evenodd" clip-rule="evenodd" fill="#128AFA" d="M63.857,144.748
			c6.65-0.108,9.067-1.527,11.15-6.972l1.666-4.577c1.526-4.465,0.198-5.773-6.072-5.881H44.253l-6.343,17.43H63.857z
			 M47.731,182.435c9.921,0,11.598-0.764,14.422-6.86l2.22-6.101c2.04-5.881,0.087-7.408-9.785-7.516H31.644l-7.452,20.476H47.731z
			 M79.629,110.212c15.641-0.324,21.63,4.685,18.292,15.255l-4.881,13.396c-2.634,6.968-6.228,10.786-13.925,14.596l-0.077,0.22
			c6.521,3.814,7.372,6.972,4.264,15.795l-5.077,13.94c-2.201,5.777-6.687,10.678-12.632,13.512
			c-4.975,2.391-6.559,2.611-16.41,2.718H0l32.551-89.433H79.629z"/>
		<polygon id="Fill-27" fill-rule="evenodd" clip-rule="evenodd" fill="#128AFA" points="133.66,110.104 101.068,199.645 
			82.936,199.645 115.524,110.104 		"/>
		<path id="Fill-29" fill-rule="evenodd" clip-rule="evenodd" fill="#128AFA" d="M154.627,131.349l-15.425,42.372
			c-2.871,8.171-2.447,9.479,3.824,9.587h14.53c4.845-0.108,6.76-2.071,9.634-9.695l15.387-42.264h17.43l-17.686,48.577
			c-4.714,13.512-12.544,19.613-25.604,19.721H131.77c-13.042,0.328-16.669-5.661-11.55-19.173l17.882-49.124H154.627z"/>
		<path id="Fill-31" fill-rule="evenodd" clip-rule="evenodd" fill="#128AFA" d="M245.347,158.471l1.508-4.138
			c1.8-5.229,0.975-6.536-4.196-6.644h-13.016c-6.157,0.108-7.515,1.087-9.835,7.188l-1.308,3.594H245.347z M213.147,173.178
			l-1.622,4.465c-1.344,4.789-0.062,5.665,7.653,5.665h35.963l-5.945,16.339h-38.969c-15.784,0.436-20.884-6.756-15.331-22.004
			l8.999-24.73c5.293-14.272,13.32-21.46,24.179-21.564h27.347c12.86,0.432,15.465,5.117,10.708,19.277l-8.205,22.551H213.147z"/>
	</g>
	<g>
		<polygon fill-rule="evenodd" clip-rule="evenodd" fill="#2B2B2B" points="299.003,140.488 259.504,199.648 269.155,199.648 		"/>
		<polygon fill-rule="evenodd" clip-rule="evenodd" fill="#2B2B2B" points="338.435,125.536 338.457,152.793 320.741,152.793 
			309.567,170.005 338.471,170.005 338.495,199.648 356.381,199.648 356.048,98.405 		"/>
	</g>
	<path fill-rule="evenodd" clip-rule="evenodd" fill="#2B2B2B" d="M386.931,131.349c-9.541,0.088-15.798,4.798-21.007,16.239
		l0.159,48.467l13.441-36.93c3.429-9.695,4.85-11.114,11.974-11.438h8.616l5.948-16.339H386.931z"/>
	<path id="Fill-37" fill-rule="evenodd" clip-rule="evenodd" fill="#2B2B2B" d="M469.252,147.688H442
		c-9.149,0.108-10.99,1.303-14.022,9.367l-5.438,14.924c-2.061,5.665-2.676,7.624-2.632,8.063c0.494,3.046,0.854,3.158,8.227,3.266
		h28.148l-5.945,16.339h-37.97c-12.699-0.328-15.244-5.445-10.291-20.149l10.425-28.652c5.014-14.052,11.543-19.065,25.229-19.497
		h37.462L469.252,147.688z"/>
	<path id="Fill-39" fill-rule="evenodd" clip-rule="evenodd" fill="#2B2B2B" d="M494.647,110.104h17.323l-7.691,21.136h26.847
		c13.522,0.544,15.573,6.209,8.946,23.855l-16.212,44.551H506.53l14.708-40.409c3.584-10.13,3.197-11.549-3.872-11.661h-19.033
		l-18.956,52.07h-17.323L494.647,110.104z"/>
	<polygon fill-rule="evenodd" clip-rule="evenodd" fill="#2B2B2B" points="558.228,139.754 575.86,139.754 554.059,199.648 
		536.427,199.648 	"/>
	<ellipse fill-rule="evenodd" clip-rule="evenodd" fill="#2B2B2B" cx="570.134" cy="127.094" rx="9.724" ry="4.573"/>
	<polygon id="Fill-43" fill-rule="evenodd" clip-rule="evenodd" fill="#2B2B2B" points="600.863,182.984 633.58,131.349 
		653.315,131.349 606.617,199.647 583.78,199.647 587.502,131.349 606.035,131.349 	"/>
	<path id="Fill-45" fill-rule="evenodd" clip-rule="evenodd" fill="#2B2B2B" d="M697,158.471l1.508-4.138
		c1.8-5.229,0.971-6.536-4.193-6.644h-13.023c-6.15,0.108-7.508,1.087-9.828,7.188l-1.312,3.594H697z M664.8,173.178l-1.626,4.465
		c-1.34,4.789-0.058,5.665,7.657,5.665h35.963l-5.948,16.339h-38.969c-15.78,0.436-20.877-6.756-15.331-22.004l9.007-24.73
		c5.29-14.272,13.316-21.46,24.175-21.564h27.347c12.863,0.432,15.465,5.117,10.711,19.277l-8.209,22.551H664.8z"/>
</g>
<g>
	<path fill-rule="evenodd" clip-rule="evenodd" fill="#2B2B2B" d="M362.738,43.647c-56.645-20.884-108.861-20.736-116.627,0.329
		c-6.771,18.364,22.477,46.562,67.617,67.328l1.553-3.079c-40.711-19.153-66.942-44.78-60.733-61.361
		c7.173-19.157,54.928-18.983,106.664,0.388c51.736,19.372,87.861,50.606,80.688,69.763c-0.633,1.691-1.589,3.229-2.83,4.619h11.246
		c0.355-0.655,0.667-1.331,0.925-2.032C459.006,98.537,419.383,64.53,362.738,43.647z"/>
</g>
<g>
	<defs>
		<filter id="Adobe_OpacityMaskFilter" filterUnits="userSpaceOnUse" x="261.441" y="0" width="130.868" height="231.266">
			<feColorMatrix  type="matrix" values="1 0 0 0 0  0 1 0 0 0  0 0 1 0 0  0 0 0 1 0"/>
		</filter>
	</defs>
	
		<mask maskUnits="userSpaceOnUse" x="261.441" y="0" width="130.868" height="231.266" id="mask-4_00000073002367107680653590000000577656603337307008_">
		<g filter="url(#Adobe_OpacityMaskFilter)">
			
				<polygon id="path-3_00000125563028545549286830000007713875406463560859_" fill-rule="evenodd" clip-rule="evenodd" fill="#FFFFFF" points="
				257.365,2.403 392.309,0 396.384,228.862 261.44,231.265 			"/>
		</g>
	</mask>
	
		<path id="Fill-21" mask="url(#mask-4_00000073002367107680653590000000577656603337307008_)" fill-rule="evenodd" clip-rule="evenodd" fill="#128AFA" d="
		M392.309,0c-9.338,20.157-19.424,39.891-29.773,59.478c-5.104,9.832-10.479,19.512-15.727,29.264l-16.149,29.027l-16.557,28.794
		c-5.663,9.518-11.184,19.116-16.99,28.553c-11.459,18.959-23.189,37.765-35.672,56.149c9.329-20.163,19.41-39.899,29.763-59.485
		c5.1-9.835,10.486-19.509,15.727-29.264l16.16-29.02l16.567-28.79c5.659-9.519,11.188-19.112,16.99-28.552
		C368.11,37.198,379.836,18.388,392.309,0"/>
	<path id="Fill-23" fill-rule="evenodd" clip-rule="evenodd" fill="#128AFA" d="M475.484,125.856
		c-22.373-7.901-44.493-16.509-66.525-25.368c-11.04-4.364-21.99-8.982-32.98-13.482l-32.837-13.88L310.44,58.856
		c-10.852-4.893-21.751-9.651-32.556-14.678c-21.659-9.914-43.227-20.082-64.543-30.966c22.375,7.892,44.497,16.498,66.529,25.359
		c11.041,4.359,21.987,8.989,32.98,13.482l32.835,13.891l32.697,14.278c10.853,4.889,21.751,9.657,32.555,14.681
		C432.597,104.818,454.166,114.983,475.484,125.856"/>
</g>
<g>
</g>
<g>
</g>
<g>
</g>
<g>
</g>
<g>
</g>
<g>
</g>
<g>
</g>
<g>
</g>
<g>
</g>
<g>
</g>
<g>
</g>
<g>
</g>
<g>
</g>
<g>
</g>
<g>
</g>
</svg>
