<?xml version="1.0" encoding="utf-8"?>
<!-- Generator: Adobe Illustrator 27.0.1, SVG Export Plug-In . SVG Version: 6.00 Build 0)  -->
<svg version="1.1" id="레이어_1" xmlns="http://www.w3.org/2000/svg" xmlns:xlink="http://www.w3.org/1999/xlink" x="0px"
	 y="0px" viewBox="0 0 720 278.782" enable-background="new 0 0 720 278.782" xml:space="preserve">
<path fill-rule="evenodd" clip-rule="evenodd" fill="#0092D8" d="M55.002,104.217l-54.736,4.765c0,0-2.637,77.197,8.721,107.09
	c12.602,33.114,51.56,50.765,82.502,35.691s35.332-41.416,30.687-53.687c-4.96-13.081-21.966-13.725-21.966-13.725
	c-1.573,13.47-9.455,40.442-28.559,40.442c-17.337,0-25.383-14.28-27.75-41.251C41.516,156.571,55.002,104.217,55.002,104.217"/>
<path fill-rule="evenodd" clip-rule="evenodd" fill="#0092D8" d="M405.184,136.893c-0.27,0.495-0.525,1.049-0.794,1.633
	c-0.779,1.753-1.678,3.716-3.431,5.409c-0.629,0.599-1.423,0.914-2.247,0.929c-0.659,0.54-1.408,1.064-2.278,1.528
	c-0.509,0.285-1.064,0.42-1.633,0.42c-0.449,0-0.914-0.09-1.348-0.27c-3.087-1.333-4.105-4.42-4.72-6.263
	c-0.105-0.345-0.195-0.659-0.315-0.929c-0.449-0.45-0.764-1.049-0.884-1.693c-0.21-1.064-0.524-1.978-0.884-3.042
	c-4.794-0.39-10.159-0.644-15.763-0.644c0.06,0.449,0.18,0.944,0.329,1.588l0.09,0.345c0.195,0.824,0.075,1.693-0.345,2.427
	c-0.509,1.708-1.408,2.757-2.727,3.221c-0.15,0.509-0.435,0.959-0.824,1.348c-0.734,0.749-1.783,1.169-2.967,1.169
	c-1.169,0-2.217-0.419-2.967-1.169c-0.899-0.899-1.214-2.247-0.779-3.461c0.15-0.434,0.225-0.824,0.3-1.184
	c0.015-0.045,0.015-0.105,0.03-0.15c-0.479-0.599-0.869-1.244-1.109-1.843c-0.12-0.27-0.195-0.524-0.24-0.809
	c-0.345-0.3-0.599-0.659-0.824-1.004c-6.473,0.54-12.931,1.543-18.895,3.296c12.482,38.059,10.114,70.814-7.117,80.943
	c-12.527,6.413-30.372,3.491-38.104-11.942c-9.515-19.029,3.581-64.835,17.861-76.733c-15.464-23.809-57.718-28.559-57.718-28.559
	l-15.464,45.806l34.508-3.566c0,0-29.743,42.225-2.382,83.295c17.216,25.803,41.49,29.728,61.284,24.799v0.015
	c0.06-0.03,0.105-0.045,0.165-0.06c4.076-1.019,7.941-2.427,11.523-4.076c0.015,0,0.015-0.015,0.03-0.015
	c1.154-0.555,2.278-1.109,3.371-1.693l0.09-0.045c5.124-2.757,9.5-6.023,12.781-9.425c0.015-0.015,0.015-0.03,0.03-0.06
	c19.09-18.954,20.019-48.503,11.268-67.757c0,0,21.427,8.331,27.96,8.331c0,0,7.147-20.228,6.548-39.857
	C406.593,137.148,406.083,137.058,405.184,136.893"/>
<path fill-rule="evenodd" clip-rule="evenodd" fill="#E85298" d="M405.983,96.725c-0.36,0.54-0.659,1.049,0.09,1.289
	C406.462,97.475,406.477,97.041,405.983,96.725"/>
<path fill-rule="evenodd" clip-rule="evenodd" fill="#E85298" d="M400.21,111.052c-0.315-0.194-0.63-0.359-0.929-0.539
	C398.891,111.232,399.805,111.831,400.21,111.052"/>
<path fill-rule="evenodd" clip-rule="evenodd" fill="#E85298" d="M399.113,111.871c-0.3,0.584-0.12,0.719-0.63,1.079
	c0.225,0.135,0.3,0.284,0.374,0.434c0.33-0.075,0.555-0.584,0.794-1.004C399.337,112.246,399.412,112.021,399.113,111.871"/>
<path fill-rule="evenodd" clip-rule="evenodd" fill="#E85298" d="M413.073,87.313c-0.734-0.33-1.378-0.045-2.188,0.195
	c-3.237,4.211-9.68,9.335-11.612,15.104c-0.284-0.18-0.465-0.06-0.599,0.285c-0.12,0.734-0.539,2.247-1.363,2.742
	c0.015-6.667-0.51-13.216-1.558-19.614c-2.218-2.158-0.584-5.364-3.671-7.297c-1.199,0.359-2.382,2.502-1.558,3.042
	c-1.514,0.479-2.188,2.038-3.012,3.042c-0.284,0.359-0.779,0.359-1.004,0.674c-2.158,3.207-1.918,7.582-2.652,10.713
	c1.258,10.909,0.479,21.382,3.941,31.691c0.33,0.255,0.359,1.079,0.749,1.558c0.854,3.176,1.768,4.975,2.293,7.552
	c1.243,0.884,1.183,5.229,3.97,6.443c1.693-0.929,4.48-2.922,2.952-5.139c0.524-0.615,0.344-1.049,0.749-1.648
	c-0.225-0.21-0.525,0-0.465-0.27c1.843-3.626,5.544-6.848,5.649-10.863c0.989-0.479,1.364-2.128,1.783-2.712
	c0.135,1.439-0.659,3.342-1.364,5.229c-1.214,3.312-3.386,6.324-3.281,8.931c-1.229,1.169-1.603,2.937-2.203,4.54
	c2.098-2.023,2.637-4.93,4.136-7.177c2.517-8.436,6.143-17.666,8.915-26.222c-0.195,0.285-0.405,0.465-0.674,0.434
	c1.004-1.408,0.54-3.926,2.068-5.035c-0.344,0.54-0.524,1.034-0.404,1.439c0.884-1.379,0.854-3.371,1.453-5.394
	c0.27-0.929,1.049-2.038,1.154-3.071c0.03-0.315-0.315-0.659-0.269-0.989c0.06-0.419,0.509-0.779,0.569-1.333
	C415.77,92.438,414.751,88.062,413.073,87.313 M391.436,113.67c-0.209-0.135-0.419-0.24-0.629-0.36
	c0.21-0.524,0.54-0.614,0.989-0.269C391.676,113.25,391.556,113.445,391.436,113.67 M391.766,114.898
	c-0.524,0.135-0.794-0.465-0.524-0.914C391.616,113.88,392.066,114.434,391.766,114.898 M390.297,112.381
	c-0.704-0.33,0.225-1.109-0.644-1.408c0.42-0.674,1.304-0.165,1.678,0.344C391.107,112.156,390.552,111.677,390.297,112.381
	 M389.698,106.223c-0.18-0.21-0.255-0.45-0.434-0.674c0.629,0.15,0.449,0.39,0.974-0.255
	C390.777,105.878,389.938,105.803,389.698,106.223 M389.264,120.307c-0.24,0.659-1.094,0.165-0.629-0.359
	C388.844,120.068,389.039,120.188,389.264,120.307 M389.803,104.634c-0.899-0.345-0.974-0.899-0.555-1.573
	c0.21,0.135,0.42,0.285,0.555,0.105C390.253,103.526,389.818,104.125,389.803,104.634 M389.968,84.151
	c-0.315,0.599-0.779,0.659-1.304,0.494C389.024,84.226,389.414,83.882,389.968,84.151 M389.054,100.873
	c0.21,0.105,0.42,0.24,0.615,0.359c-0.3,0.48-0.525,1.274-1.079,0.824C388.964,101.593,388.889,101.263,389.054,100.873
	 M388.38,116.052c0.284,0.33,0.449,0.674,0.18,1.139C388.14,116.921,388.05,116.546,388.38,116.052 M387.735,112.156
	c0.24,0.42,0.704,0.765,0.24,1.379C387.301,113.25,387.361,112.321,387.735,112.156 M386.761,120.307
	c-0.375-0.39,0.375-0.449,0.449-0.764c0.45,0.494,0.839,0.989,0.465,1.708C387.106,120.997,387.735,119.663,386.761,120.307
	 M387.78,122.165c0.345,0.555,0.554,1.154,0.615,1.798c1.108-0.42,0.914,0.929,1.438,1.453
	C388.694,124.983,387.645,123.379,387.78,122.165 M390.238,129.388c-0.06-0.809-0.794-1.454-0.494-2.353
	C390.342,127.71,390.268,128.549,390.238,129.388 M391.676,129.792c-0.435-0.27-0.509-0.659-0.18-1.139
	C391.691,129.013,392.141,129.283,391.676,129.792 M392.86,123.409c-0.794-0.345,0.15-1.169-0.794-1.483
	c-0.3,1.663,0.359,3.057,0.195,4.675c0.195,0.09,0.299-0.195,0.434-0.36c0.525,0.509-0.434,0.899-0.989,0.27
	c0.165-0.704,0.285-1.408-0.359-1.873c0.854-2.457-1.079-4.825-0.494-6.743c0.03-0.584-0.33-1.049-0.794-1.483
	c0.525,0.06,1.423-0.195,0.689-0.854C393.624,115.108,392.695,121.266,392.86,123.409 M392.755,110.283
	c-1.139-1.588-0.195-3.731-1.289-5.319c0.225-1.858-0.569-3.446-0.494-5.275c0.165-0.39,0.375-0.584,0.614-0.674
	C392.53,102.536,393.893,106.627,392.755,110.283 M391.646,95.314c0.03,0.24-0.045,0.524-0.299,0.854
	c-0.375-0.285-0.285-0.704-0.18-1.139C391.331,95.12,391.481,95.225,391.646,95.314 M391.691,90.55
	c0.689,0.779,0.524,1.783,0.479,2.772C391.871,92.423,390.912,91.718,391.691,90.55 M391.436,98.925
	c-0.329-0.225-0.12-0.599,0.135-0.974C391.811,98.251,391.931,98.79,391.436,98.925 M390.957,83.897
	c3.177-0.839,2.892,4.045,3.611,5.619C393.474,88.137,393.01,85.455,390.957,83.897 M394.823,120.398
	c-0.12-0.974-0.405-1.918-0.405-2.922C395.602,117.595,394.867,119.933,394.823,120.398 M396.711,137.27
	c-0.434-0.36,0.06-0.974,0-1.439c0.539,0.15,0.299,0.524,0.839,0.704C397.25,136.7,397.055,137.254,396.711,137.27 M398.179,116.727
	c-0.419-0.15-0.18-0.48-0.689-0.599c0.12-0.36,0.344-0.345,0.509-0.54C398.419,115.887,398.509,116.247,398.179,116.727
	 M398.733,133.044c-0.794-2.158,1.858-4.016,2.862-6.024c0.689-1.393,0.42-2.982,1.663-3.611c0.27,0.09,0.18,0.3,0.375,0.42
	C402,127.035,400.831,130.736,398.733,133.044 M406.81,107.181c-1.903,5.559-4.12,12.586-7.761,17.741
	c0.165-0.36,0.509-1.483-0.3-1.618c0.959-0.375,1.933-2.442,2.697-4.69C402.839,114.599,404.427,110.343,406.81,107.181
	 M402.105,106.328c-0.15-0.914,1.349,0.165,1.664-0.705c0.165-0.659-0.075,1.244-0.734,1.244
	C402.465,106.822,402.494,105.983,402.105,106.328 M404.727,102.851c0.434,0.255-0.045,0.959-0.375,1.034
	C404.023,103.66,404.667,103.181,404.727,102.851 M398.763,120.382c-0.33-0.48-0.24-1.603,0.524-1.963
	c0.359,0.105,0.345,0.33,0.525,0.509C399.468,119.439,399.048,119.678,398.763,120.382 M403.498,123.349
	c1.453-4.93,4.24-10.204,6.248-15.523C408.159,112.8,406.255,119.274,403.498,123.349 M410.181,107.451
	c-0.045-0.554-0.434-1.019,0.18-1.753C410.721,106.163,410.615,106.762,410.181,107.451 M410.601,105.623
	c-0.3-0.269,0.39-0.794,0.494-1.168C411.335,104.754,411.035,105.518,410.601,105.623 M407.709,96.258
	c-0.345,1.079-1.304,2.607-2.203,3.102c-0.51,0.48,0.135,0.659-0.225,1.109c-0.479-0.465-0.569,0.48-0.854,0.764
	c-0.209,0.045-0.449-0.045-0.719-0.209c0.045,1.229-1.558,2.082-1.139,3.072c-1.349,1.319-1.603,3.312-2.053,4.63
	c0.569-0.09,1.169-0.629,1.214-1.378c0.21-0.165,0.615,0.33,0.794,0.045c-0.03,0.704-0.974,1.289-1.169,2.038
	c-0.374-0.255-0.734-0.449-1.019-0.375c-0.794,0.944,0.045,1.469,0.434,2.098c-0.24,0.39-0.48,0.749-0.15,0.974
	c-0.195,0.539-0.659,0.165-0.914,0.509c0.015,1.034-0.464,2.143-1.618,2.787c-1.498-1.603,0.15-4.061-0.779-5.829
	c1.768-2.367,0.989-3.896,2.981-6.608c0.135-0.524-0.509-0.03-0.779-0.434c0.674-0.315,1.364-0.465,1.858-1.439
	c-0.285-0.255-0.42,0.06-0.57,0.3c0.255-1.589,2.697-2.727,3.177-4.81c1.334-0.479,1.423-2.592,2.817-2.727
	c0.075-0.659,0.075-0.884,0.734-1.243c1.289,1.408-2.292,2.847-1.139,4.12c1.948-1.738,2.622-4.525,4.69-5.604
	C411.77,93.037,408.877,95.179,407.709,96.258"/>
<path fill-rule="evenodd" clip-rule="evenodd" fill="#E85298" d="M353.172,99.418c0.12,0.165,0.18,0.375,0.134,0.705
	c-0.359,0.315-1.079,0.135-0.854-0.555C352.857,99.673,352.827,99.358,353.172,99.418"/>
<path fill-rule="evenodd" clip-rule="evenodd" fill="#E85298" d="M362.738,133.252c-1.573-0.15-1.454-2.038-1.993-2.997
	c-0.644-1.109-2.143-1.783-2.008-3.281c-0.749-1.678-2.038-2.817-2.712-4.57c-0.015-0.555,0.12-0.06,0.419-0.15
	c-0.03-0.629-0.884-0.434-1.124-0.854c0.404-1.258-1.289-1.064-0.719-1.993c-0.48-0.195-1.079-1.243-1.154-2.277
	c-1.394-0.899-1.199-3.716-2.413-5.155c-1.348-4.525-2.322-7.822-3.716-12.137c0.569-1.468-1.319-4.061-0.584-5.709
	c-0.18-0.285-0.27-0.674-0.42-1.004c-0.015-0.344,0.075-0.584,0.285-0.704c-0.734-1.663-0.075-4.03,0-6.428
	c0.03-0.884-0.3-1.828,0-2.712h0.434c-0.315-0.899-0.405-2.817,0.569-3.282c-0.39-1.363,0.54-4.195,1.573-4.854
	c0.105-0.075,0.719,0.375,0.569-0.15c0.3-0.075,0.27,0.21,0.285,0.419c0.404-0.06,0.599-0.329,1.004-0.419
	c0.914-0.015,0.884,0.929,1.843,0.869c5.664,5.844,6.488,16.542,9.155,25.398c0.614-0.599,0.794-1.798,0.704-2.712
	c1.244-3.386,2.083-8.226,3.986-11.418v-1.004c0.989-0.914,0.929-2.877,2.158-3.566c0.375-1.948,1.049-3.611,2.427-4.57
	c0.165-0.465-0.465-0.12-0.284-0.57c0.569-0.18,0.764-0.749,0.989-1.289c0.255,0.03,0.33,0.255,0.285,0.569
	c0.21-0.165,0.225-0.539,0.434-0.704c-0.689,0.18-0.09-1.094,0.285-0.434c-0.18-0.944,1.079-1.289,1.423-2.128
	c0.195,0.045,0.225,0.24,0.434,0.27c0.33-0.704,0.48-0.719,1.423-0.704c0.299,0.599,0.434,1.378,0.569,2.143
	c1.528,0.329,1.663-0.51,2.997-0.869c0.075-0.434-0.3-0.554,0-0.839c0.404,0.075,0.749,0.195,1.154,0.27
	c0.359,2.247-0.839,5.079-1.154,7.282c0.539,0.105,0.614-0.24,1.154-0.135c0.315-0.315-0.495-0.839,0.135-1.139
	c0.749,0.629,0.569,1.918,0.434,2.847c-0.359,2.322-1.079,5.139-1.858,6.848c-0.719-1.573,0.719-4.091,0.284-6.128
	c-0.659-0.045-0.195,1.034-0.854,0.989c-0.09,2.413-0.615,4.361-1.154,6.428c-0.329,1.318-0.255,3.356-0.989,4.285
	c0.284,1.349-0.36,1.813-0.435,3.147c0.645,0.12,0.854-0.644,0.57-1.004c0.959-2.382,1.154-5.514,2.292-7.716
	c0.105,3.356-0.794,5.289-1.004,8.001c-0.15-0.03-0.105-0.27-0.285-0.285c-0.434,0.3,0.195,0.749,0,1.289
	c-0.195-0.09-0.255-0.315-0.284-0.569c-0.39,3.267-1.544,7.522-2.278,10.429c0.12,0.45-0.48,0.195-0.434,0.569
	c0.299,0.614-0.525,2.338-0.42,1.993c-0.12,0.419-0.21,1.543-0.869,1.858c0.21,1.439-0.839,3.267-1.273,4.705
	c-0.614,1.948-1.273,4.016-2.008,5.574c-0.12,1.783-0.764,2.547-1.004,4.42c-0.105,0.075-0.225,0.15-0.42,0.15
	c0.27,1.618-1.303,2.847-1.573,4.286c-0.345,1.873,0.06,3.312,0.419,4.84c-0.39,0.509-0.255,1.558-0.989,1.723
	c-0.495,0.06-0.165-0.689-0.57-0.704c-0.869,0.54-1.573,1.738-1.423,2.847c-0.209,0.21-0.944,0.21-1.154,0
	c0.509-1.483,0.42-2.427,1.154-3.716c-0.794-0.06-1.633-0.944-2.008-1.858c0.225-0.209,0.63-0.225,1.004-0.269
	c-0.434,0.764-0.12,1.318,0.704,1.558c0.974-1.513,1.364-3.266,1.573-5.289c-0.644,0.839-1.888,0.42-2.428,1.154
	c-0.809-0.435-1.004-1.469-1.289-2.428c-0.524,0.075-0.749-0.09-0.989-0.284C360.835,130.81,362.888,131.544,362.738,133.252
	 M373.166,76.702c0.839-0.329,0.944-1.423,2.128-1.423c0.09-0.315,0.375-1.064-0.134-1.154
	C374.32,74.815,373.631,75.654,373.166,76.702 M374.305,78.845c-0.39-0.3,0.33-0.12,0.284-0.284
	c-0.284-0.285,0.03-1.199,0.704-0.989c-0.15-0.689,0.449-0.614,0.3-1.289c-0.54-0.285-0.749,0.719-1.154-0.15v0.719
	c-1.423,1.004-1.783,3.072-3.132,4.136c-0.09,0.779-0.554,2.397-1.439,2.862c0.36,0.749-0.24,1.378-0.704,1.708
	c0.599,0.674-0.434,1.993-1.573,1.858c-0.075,0.329-0.734,0.794-0.435,1.004c0.18-0.554,1.094,0.09,1.723,0
	c0.749-0.554,1.004-2.113,1.708-3.431c0.225-0.419,0.674-0.375,0.854-0.854c0.54-1.349,0.839-1.543,0.569-1.993
	C373.256,81.512,372.942,79.34,374.305,78.845 M348.892,77.572c1.274,0.045,2.203,0.315,2.563-0.719
	C350.646,75.878,348.998,76.283,348.892,77.572 M354.886,83.565c0.54,0.15,0.405-0.359,0.854-0.284
	c-0.405-2.787-1.708-4.675-3.416-6.128C352.893,79.01,354.407,81.108,354.886,83.565 M374.59,79.564
	c-0.494-0.12-0.614,0.165-0.854,0.285c0.284,0.869-0.644,0.509-0.435,1.289c0.824,0.15,0.39-0.929,1.289-0.719
	c0.06-1.034,0.824-1.364,1.004-2.278C374.979,78.351,374.62,78.785,374.59,79.564 M349.027,82.411c0.854,0.3,0.54,1.753,1.439,2.008
	c0.419-0.554,0.165-1.139,0-1.858c0.195-0.734,0.21-3.596-1.004-3.851C348.608,79.624,349.432,81.243,349.027,82.411
	 M352.744,89.559c-0.06-2.397,0.225-6.083-1.139-8.136h-0.284C351.529,84.15,351.05,87.776,352.744,89.559 M369.87,82.561
	c0.449,0.03,0.285-0.569,0.584-0.719C370.035,81.453,369.75,81.992,369.87,82.561 M348.308,97.26
	c0.569,4.555,2.083,8.032,3.012,11.853c0.344,0.719,0.929,1.498,0.854,2.442c1.124-1.229-1.573-4.001-0.284-5.439
	c-0.09-0.225-0.674,0.015-0.719-0.27c-0.615-2.203-0.914-4.285-1.573-6.863c0.06-0.269,0.315-0.359,0.285-0.704
	c-0.345-1.064-0.674-2.562-0.854-4.15c-0.419-3.956-0.3-8.721-1.289-11.568C347.094,86.981,347.199,93.05,348.308,97.26
	 M373.451,85.139c0.434,0.06,0.449-0.315,0.419-0.719h-0.419V85.139z M355.74,86.562c0.45,0.06,0.375-0.39,0.704-0.434
	c0.015-0.719-0.12-1.289-0.554-1.558C355.92,84.959,355.785,86.307,355.74,86.562 M372.732,86.427
	c0.525-0.09,0.794-0.45,0.719-1.139C372.987,85.393,372.597,86.142,372.732,86.427 M376.732,86.562
	c-0.03-0.36-0.03-0.734-0.434-0.719C376.298,86.232,376.163,86.742,376.732,86.562 M350.166,94.983
	c0.839,0.45,0.494,2.098,1.004,2.862c-0.195,0.285-0.449,0.494-0.569,0.854c0.12,0.39,0.674-0.315,0.719,0.284
	c0.09,0.435-0.15,0.524-0.15,0.854c0.839,0.495,0.704,1.738,0.854,2.577c-0.165-0.135-0.375-0.195-0.704-0.15
	c-0.105,0.794,0.734,0.105,0.854,0.434c0.27,1.528,1.034,3.611,1.274,5.004c0.809,0.135,0.944-0.419,1.438-0.569
	c-0.18-0.255-0.854-0.015-0.854-0.449c0.479-0.734-0.285-0.899-0.435-1.408c0.36,0.015,0.449-0.225,0.57-0.45
	c-0.584-0.54-1.034-1.244-0.854-2.562c0.375,0,0.839,0.075,0.854-0.285c-0.345-0.09-1.034,0.18-1.139-0.15
	c0.375-0.584-0.225-0.584-0.284-1.139c0.719-0.569,0.584,0.689,1.004,0.869c0.33-0.719,0-1.888-0.15-2.578
	c-0.569-0.09-0.809,0.135-1.273,0.135c0-0.449,0.06-0.869,0.285-1.139c0.554-0.09,0.15,0.794,0.839,0.569
	c0.09-0.704-0.36-1.723-0.135-2.697c-0.195-0.15-0.54-0.135-0.569-0.434c0.225-1.034,0.419-3.626-0.57-4.151
	c0.3,1.558,0,3.97,0.57,4.855c-0.135,0.315-0.225,0.644-0.42,0.869c0.405-0.075,0.749,0.659,0.42,0.854
	c-0.33-0.06-0.449-0.315-0.719-0.434c0.359-0.929-0.899-2.188,0-2.847c-0.974-2.278-0.659-6.039-1.858-8.436h-0.42
	C349.627,88.825,350.75,92.6,350.166,94.983 M371.308,88.42c0.285,0.629-0.614,2.397-1.439,2.847
	c-0.12,0.45,0.345,1.483-0.419,1.289c0.315,0.854-0.27,1.379-0.719,1.858c-0.48,3.596-2.442,6.293-2.712,10.414
	c0.959-0.165,0.704-1.558,1.139-2.278c0.345,0.045,0.27,0.495,0.719,0.435c0.3-0.465-0.27-1.094-0.434-1.573
	c1.169-0.494,1.468-1.858,2.008-2.997c-0.615-0.03-0.839,0.225-0.569,0.704c-0.449-0.06-0.569,0.315-0.869,0
	c0.405-0.315,0.569-0.839,0.15-1.273c0.794-0.21,0.689-1.304,1.139-1.858c0.015,0.27,0.48,0.09,0.435,0.434
	c-0.015,0.465-0.615,0.33-0.57,0.839c0,0.195,0.18,0.21,0.135,0.434c0.869-0.3,0.749-1.079,1.004-1.708
	c-0.449-0.075-0.584,0.33-0.719-0.135c-0.15-0.524,0.494-0.285,0.569-0.569c-0.884-0.734,0.629-1.184,0.584-2.008
	c-0.135-0.15-0.54-0.045-0.434-0.42c0.434-0.434,0.794-0.929,1.004-1.588c0.644-0.045-0.345,0.989,0.42,1.004
	c-0.165-1.843,0.494-3.911,1.154-5.424c-0.24-0.015-0.12-0.359-0.434-0.284C372.327,87.446,371.713,87.836,371.308,88.42
	 M354.317,88.854c-0.27,0.3-0.554,0.584-0.719,0.989c0.749,0.375-0.15,0.929-0.15,1.423c0.284,0.045,0.284-0.195,0.434-0.285
	c-0.12,1.604,0.135,2.922,0.719,4.436c0.27-1.529,0.255-3.971-0.434-5.005c0.599-0.434,0.704-2.997-0.135-3.566
	C353.747,87.671,353.657,88.42,354.317,88.854 M369.3,89.844c0.225-0.21,0.21-0.809-0.284-0.719
	C369.001,89.484,369.091,89.739,369.3,89.844 M366.019,90.982c0.315-0.15,0.929-0.015,1.004-0.419
	c-0.51-0.33,0.329-0.509,0.134-1.004h-0.434C366.544,90.083,366.079,90.323,366.019,90.982 M373.166,90.847h0.704v-0.434
	C373.421,90.353,373.286,90.593,373.166,90.847 M366.873,92.975c-0.105,1.438-0.42,2.637-1.139,3.446
	c0.465,1.528-1.513,2.922-0.854,4.42c0.749-1.768,1.768-3.267,1.993-5.559c0.21-0.075,0.359-0.225,0.569-0.3
	c-0.33-1.438,0.494-2.607,1.154-3.131C367.398,90.713,367.547,92.511,366.873,92.975 M365.165,93.844
	c0.884-0.03,0.644-1.154,0.989-1.708c-0.195-0.03-0.225-0.24-0.42-0.285C365.899,92.556,365.18,92.93,365.165,93.844
	 M371.024,93.275c0.629-0.3,0.749,0.21,1.139,0c0.015-0.584-0.719-0.42-1.139-0.569V93.275z M358.168,93.844
	c0.284-0.15,0.24-1.184-0.285-0.989C358.257,93.2,357.523,93.769,358.168,93.844 M371.443,94.129
	c0.584,0.075,0.465-0.599,0.15-0.704C371.503,93.709,371.173,93.874,371.443,94.129 M358.018,94.983
	c0.21,0.33,0.359-0.18,0.434,0.15c-0.674,2.697,0.33,5.394,1.139,8.136c-0.015-3.296-1.034-5.334-0.705-9.005
	c-0.539,0.015-0.464,0.225-0.719-0.135C358.003,94.294,358.003,94.638,358.018,94.983 M370.739,94.413
	c-0.39-0.09-0.285,0.3-0.434,0.42c0.554,0.12,0.704,0.629,1.139,0.869c0.21-0.584-0.315-0.45-0.285-0.869
	c0.39-0.105,0.285,0.3,0.57,0.3c0.03-0.375-0.225-0.45-0.42-0.569C371.323,94.923,370.499,95.028,370.739,94.413 M357.029,103.554
	c1.049-1.304-0.704-3.102-0.284-5.14c-0.63-1.079-0.375-2.457-0.854-3.431C355.875,98.639,356.28,100.242,357.029,103.554
	 M370.155,98.13c0.359-0.03,0.704-0.03,0.719,0.284c-0.075,0.449-0.629,0.42-0.854,0.704c0.165,0.03,0.15,0.24,0.135,0.45
	c0.42-0.134,0.449-0.134,0.869,0c-0.045-1.453,1.663-2.832,0.854-4.435C371.983,96.796,371.158,97.56,370.155,98.13 M354.601,99.418
	c-0.09-0.255,0.165-0.854-0.15-0.869C354.257,98.744,354.212,99.403,354.601,99.418 M369.87,100.123
	c-0.165,0.749,0.405,0.749,0.869,0.854c-0.165-0.63,0.24-0.704,0.285-1.139C370.724,100.017,370.38,100.572,369.87,100.123
	 M363.457,100.842c0.39,0.105,0.599-0.704,0.284-0.854C363.622,100.257,363.502,100.497,363.457,100.842 M369.166,101.561
	c0.345-0.09,0.734-0.12,0.704-0.584C369.541,100.677,369.076,101.022,369.166,101.561 M368.731,102.13
	c0.21,0.614-0.48,0.659-0.135,0.989c0.884-0.404,1.229-1.348,2.278-1.558c0.015-0.255-0.105-0.375-0.285-0.435
	C369.975,101.546,369.72,101.876,368.731,102.13 M364.311,102.415c-0.18-0.659,1.049-0.794,0.285-1.154
	C364.446,101.486,363.906,102.58,364.311,102.415 M354.886,103.838c0.345,0.015,0.69,0.03,0.854-0.15
	c-0.09-0.63-0.405-0.734-0.15-1.423c-0.27,0.03-0.315-0.15-0.57-0.135C354.796,102.835,355.381,103.149,354.886,103.838
	 M369.3,103.689c0.39,0.539-0.315,1.199-0.704,1.438c0.315-0.045,0.54,0.03,0.569,0.27c-0.09,0.36-0.554,0.315-0.434,0.869
	c0.434,0.18,0.48,0.045,0.854-0.15c0.075-1.393,0.599-2.353,0.869-3.566c-0.195,0-0.209-0.18-0.434-0.135
	C369.96,103.074,369.84,103.284,369.3,103.689 M363.157,104.408c0.03-0.419,0.599-1.588,0-1.708
	C363.247,103.464,362.663,103.988,363.157,104.408 M360.31,106.266c-0.015-0.45,0.15-1.094-0.434-0.989
	C359.876,105.757,360.085,106.011,360.31,106.266 M365.6,106.266c0.464,0.075,0.764-0.749,0.419-0.989
	C365.974,105.697,365.195,105.846,365.6,106.266 M367.593,105.966c0.135,0.12,1.004,0.195,0.854-0.419h-0.719
	C367.742,105.757,367.668,105.876,367.593,105.966 M368.596,106.685c-0.15,0.449,0.315,0.27,0.569,0.3v-0.42
	C368.911,106.55,368.716,106.596,368.596,106.685 M365.165,108.409c0.374-0.18,1.169-1.334,0.435-1.723
	C365.629,107.36,364.416,107.914,365.165,108.409 M355.591,107.974c0.329,0.045,0.554-0.03,0.719-0.135
	c0.045-0.33-0.03-0.539-0.284-0.584C356.01,107.644,355.425,107.42,355.591,107.974 M354.451,110.701
	c-0.33,0.45-0.225,1.094,0.434,1.274c-0.105-0.434,0.15-0.509,0.135-0.854c-0.045-0.27-0.539-0.12-0.419-0.57
	c0.27,0.03,0.315-0.165,0.569-0.15c-0.359-0.524-0.839-1.184-0.285-1.858c-0.39-0.075-0.539-0.404-0.854-0.569
	C353.552,108.738,353.792,110.267,354.451,110.701 M358.168,112.394c0.659-1.439-0.449-2.757-0.719-4.12
	C357.553,109.727,357.553,111.51,358.168,112.394 M356.025,109.697c0.405-0.12,0.375,0.195,0.719,0.135
	c0.015-0.45-0.24-0.615-0.584-0.719C356.205,109.397,356.01,109.443,356.025,109.697 M367.593,109.697h0.419
	c0.045-0.33-0.03-0.555-0.284-0.584C367.682,109.308,367.533,109.397,367.593,109.697 M367.443,110.132
	c0.09-0.434-0.465-0.959-0.719-0.584C367.068,109.652,366.843,110.311,367.443,110.132 M364.88,111.69
	c-0.09-0.63,0.075-1.498-0.435-1.708C364.805,110.626,364.026,111.54,364.88,111.69 M366.019,114.552
	c0.135-1.378,0.899-2.053,0.704-3.281C366.094,111.705,365.824,113.923,366.019,114.552 M353.178,113.263
	c0.524-0.629-0.569-0.584-0.3-1.423C352.354,112.184,352.788,113.008,353.178,113.263 M353.747,112.394
	c0,0.614,0.899,0.345,1.273,0.584c-0.06-0.27,0.195-0.854-0.284-0.719C354.601,112.829,354.242,112.275,353.747,112.394
	 M355.456,113.548c0.015-0.24-0.105-0.375-0.285-0.434c0.075,0.465-0.105,0.674-0.15,1.004c0.54,0.21,0.285-0.39,0.719-0.284
	c-0.12,0.404,0.195,0.359,0.15,0.719c-0.449-0.015-0.434,0.42-0.434,0.854c0.45,0.015,0.674-0.165,0.989-0.284
	c-0.075-1.109-0.225-2.143-0.704-2.862C355.456,112.799,356.01,113.293,355.456,113.548 M359.171,115.84
	c-0.39-1.019,0.33-3.087-0.569-3.581C358.842,113.383,358.332,115.031,359.171,115.84 M354.886,115.84
	c0.225-0.389,0.42-1.183-0.15-1.438C354.826,114.837,354.557,115.631,354.886,115.84 M357.598,117.249
	c0.405-0.69-0.12-1.678-0.284-2.278C357.283,115.78,356.984,116.8,357.598,117.249 M355.74,117.834h0.704
	c-0.03,0.419,0.33,0.434,0.3,0.854c-0.045,0.21-0.315,0.165-0.435,0.3c0,0.465,0.195,0.734,0.435,0.989
	c0.255-0.464,0.195-1.243,0.569-1.558c-0.54,0-0.15-0.914-0.569-1.019c-0.39-0.105-0.3,0.3-0.584,0.3
	c0.195-0.48-0.449-0.12-0.27-0.569c0.12-0.27,0.255-0.51,0.704-0.45c0.105-0.524-0.165-0.689-0.569-0.719
	c-0.015,0.225,0.06,0.554-0.135,0.584c-0.36,0.015-0.465-0.944-0.869-0.435C355.381,116.575,355.56,117.204,355.74,117.834
	 M358.602,117.249c0.21-0.21,0.015-0.854-0.15-1.139C358.542,116.47,358.272,117.159,358.602,117.249 M356.744,120.396
	c0.06,0.419,0.3,0.659,0.704,0.719c-0.015-0.45,0.39-0.48,0.284-1.004C357.329,119.707,357.029,120.246,356.744,120.396
	 M358.018,122.554c0.869,2.038,1.379,4.42,3.012,5.709c-0.075-0.659-0.195-1.244-0.569-1.588c0.27-0.03,0.315,0.165,0.569,0.15
	c-0.09-0.434-0.434-0.614-0.569-0.989c0,0.24-0.12,0.359-0.299,0.419c-0.315-0.419-0.165-0.494-0.135-1.139
	c-1.558-0.434-1.079-2.922-2.143-3.851c-0.105,0.42-0.299-0.15-0.569,0C357.164,122.074,357.748,122.149,358.018,122.554
	 M368.162,125.266c0.449-0.749,0.644-1.753,1.004-2.578c-0.195,0-0.209-0.18-0.434-0.134
	C368.881,123.677,367.533,124.097,368.162,125.266 M367.877,126.404v-0.569C367.338,125.715,367.338,126.509,367.877,126.404
	 M364.88,128.397c0.195-0.524,0.209-1.214,0.419-1.723c-0.195-0.03-0.24-0.225-0.419-0.27
	C364.536,126.883,364.401,128.202,364.88,128.397 M364.161,130.824c0.18-0.315,0.344-1.618-0.135-1.723
	C364.206,129.865,363.622,130.51,364.161,130.824 M367.023,136.248c-0.3,0.24-0.659,0.375-0.719,0.869
	c0.299,0.3,0.569-0.045,0.854-0.15c-0.09-0.719,0.195-1.798-0.134-2.277C366.858,135.26,366.573,135.784,367.023,136.248"/>
<path fill-rule="evenodd" clip-rule="evenodd" fill="#E85298" d="M204.837,219.804c0.045-1.828,0.09-3.671,0.12-5.529
	c4.96-0.465,10.279-1.229,14.34-2.502c10.174-3.221,14.999-8.032,14.459-22.386l-28.439,2.128c0.165-12.841,0.24-22.64,0.24-22.64
	l-32.126,2.143c0,0,2.472,23.719,3.731,42.914c-10.473-1.169-21.502,2.832-28.184,8.211c-8.301,6.698-12.856,23.031-7.492,32.935
	c4.525,8.406,15.433,17.936,30.717,18.67c2.967,0.345,5.844,0.165,8.601-0.449h0.03c11.418-2.577,20.483-12.736,22.775-26.357
	c8.256,4.195,16.452,9.59,21.577,15.464c8.211-8.391,6.998-23.615,2.008-30.567C223.253,226.352,212.239,222.291,204.837,219.804
	 M177.807,237.814c-0.045,1.469-0.105,2.907-0.18,4.33c-0.344,6.473-7.582,9.605-10.983,4.361
	C163.587,241.8,167.378,235.447,177.807,237.814"/>
<path fill-rule="evenodd" clip-rule="evenodd" fill="#E85298" d="M478.319,195.526c-21.412-3.746-48.548,3.941-70.14,10.189
	l6.069,28.889c4.015-1.318,17.246-5.094,28.574-8.241c4.48-1.094,9.68-2.532,15.958-4.315c2.442-0.615,5.679-1.124,9.125-1.498
	c11.822-0.165,15.853,8.196,11.493,17.816c-5.364,11.793-26.776,19.285-27.316,18.73c4.016,14.459,19.809,19.824,32.665,12.871
	c13.576-7.357,23.824-24.364,23.285-38.823C507.447,215.395,499.731,199.272,478.319,195.526"/>
<path fill="#7F2334" d="M42.14,59.252l-3.162-17.936l-8.016-4.75l0.12-0.15l2.413-0.629c1.588-4.54,2.502-10.848,2.607-16.182
	l-2.068-2.413l0.03-0.15l10.354,0.509c-0.359,5.859-1.004,12.032-2.307,16.513l2.967-0.914l4.585,25.967L42.14,59.252z
	 M66.085,45.662c-1.183,5.125-3.701,8.886-8.091,12.377l-7.447-4.87l0.12-0.18l2.637-0.509c1.858-1.529,3.462-3.342,4.405-5.35
	l-8.661,1.529l0.449-6.533l0.18-0.03l1.303,1.169l7.612-1.588l-0.134-2.098l-8.466,1.483l0.479-6.038l0.135-0.015l1.169,0.974
	l6.173-1.289l-0.24-1.888L47.37,34.619l0.42-6.668l0.15-0.015l1.229,1.108L52,28.446l-0.839-2.967l-5.335,0.944l0.27-6.698
	l0.18-0.03l1.348,1.154l0.764-0.135l-1.274-3.551l4.27-1.378l1.888,3.866l0.659-0.15l-0.794-4.48l-1.873-1.109l-0.045-0.195
	l7.357-1.933l0.105,0.614l7.147-1.903l1.109,6.308l0.584-0.105l0.42-3.851l4.48-0.135l-0.015,3.087l0.914-0.18l2.428,5.529
	l-4.585,0.809l0.18,2.637l2.787-0.539l2.247,5.469l-10.923,1.918l0.255,1.693l8.541-1.618l2.098,4.9L66.4,38.17l0.09,1.918
	l10.594-2.023l2.368,5.244L66.085,45.662z M64.197,23.186l-6.054,1.064l1.259,2.652l4.51-0.839L64.197,23.186z M60.406,13.731
	l-1.663-0.944l0.974,5.499l1.423-0.315L60.406,13.731z M77.967,54.877c-4.9-0.779-8.122-1.693-12.317-3.536l3.027-5.843
	c2.772,1.094,6.368,2.068,9.2,2.397l2.697-1.019l0.165,0.075L77.967,54.877z"/>
<path fill="#7F2334" d="M113.13,49.345l0.06-0.209l3.431-0.794c2.862-3.731,4.645-8.796,3.821-13.516
	c-1.079-6.113-6.997-10.369-13.096-9.305c-6.833,1.214-11.043,7.402-9.845,14.175c0.435,2.502,1.589,4.855,3.446,6.608
	c2.712-4.256,3.551-10.159,3.476-15.104l-2.338-2.307l0.015-0.21l10.759-0.255c0.3,10.099-1.379,20.318-9.365,27.286
	c-7.941-1.483-12.856-7.117-14.235-14.894c-1.993-11.298,5.769-21.008,16.782-22.956c12.272-2.143,21.098,4.615,23.165,16.407
	c1.378,7.791-1.304,15.059-6.653,20.753L113.13,49.345z"/>
<path fill="#7F2334" d="M140.765,26.387l-5.304-8.301l8.181-7.747l-0.614-3.806l0.165-0.15l10.549,6.743L140.765,26.387z
	 M193.718,54.362c-2.997-0.779-5.843-1.873-8.556-3.132c-1.753,2.293-3.971,4.48-6.668,6.743l-8.631-6.728l0.09-0.24l3.087-0.375
	c1.573-1.274,2.907-2.562,4.016-3.986c-2.307-1.514-4.585-3.162-6.668-4.78l5.2-6.683c1.753,1.498,3.656,2.772,5.529,3.941
	c0.584-1.978,0.959-4.091,1.019-6.189l-12.991,2.278c0.614,6.278,0.584,12.407-0.929,18.94l-9.17-1.423l1.258,7.207l-9.62,0.285
	l-3.371-19.135l-2.428,2.727l-6.188-7.027c3.611-4.031,6.053-7.447,8.706-11.747l-1.498-3.581l0.165-0.15l11.178,5.094
	c-1.858,3.537-3.387,6.099-5.02,8.436l3.462-1.109l3.012,17.082l0.959-0.54c1.379-8.676,0.12-18.985-1.978-30.897l-1.978,0.36
	L155.689,9.44l0.24-0.045l2.442,1.933l9.215-2.233l-0.644-3.671l-3.057-1.873l-0.045-0.255L175.842,0l1.214,6.923l11.268-2.173
	c1.199,6.788,1.933,11.313,2.128,17.351l-10.879-0.554l0.629,3.596l10.219-2.113c1.289,8.331,1.184,14.729-0.764,20.213
	c1.393,0.554,2.862,1.109,4.3,1.588l3.342-1.439l0.209,0.15L193.718,54.362z M169.414,17.321l-2.772,0.48l1.589,10.069l2.907-0.764
	L169.414,17.321z M181.611,15.164l-3.072,0.54l0.944,5.364l2.443-1.918L181.611,15.164z"/>
<path fill="#7F2334" d="M251.091,52.492c-6.024-0.749-11.388-1.723-16.632-2.892c-3.941,3.971-9.305,7.582-16.363,11.178
	l-9.11-8.061l0.165-0.15l3.761-0.12c3.371-1.633,7.492-3.926,10.564-5.829c-4.181-1.243-8.526-2.637-13.216-4.3l1.214-14.22
	l-9.62,1.693l-0.045-11.148l0.255-0.03l2.547,2.218l7.657-1.603l0.884-10.444l-2.637-2.697l0.015-0.24l13.201-0.03l-1.004,11.268
	l25.608-4.885l3.536,8.781l-8.001,1.409c0.255,7.402-0.719,13.47-3.267,18.745c3.312,0.524,6.728,0.929,10.204,1.304l3.282-1.813
	l0.255,0.075L251.091,52.492z M221.933,26.27l-0.929,10.504c3.131,1.004,6.383,1.783,9.664,2.517
	c2.308-4.18,2.877-8.99,2.742-15.044L221.933,26.27z"/>
<path fill="#7F2334" d="M276.342,52.454l0.105-0.21l3.491-1.274c2.457-5.739,2.847-11.463,2.218-14.969
	c-0.599-3.416-1.423-4.166-5.275-3.491l-0.929,0.33l2.367,15.988l-8.706-0.135l-1.858-12.527l-4.376,2.158l-4.345-10.055
	l0.135-0.075l3.191,1.229l4.136-1.813l-1.004-6.563l-2.802-1.783l-0.03-0.195l10.848-2.667l1.273,8.646l2.203-0.434
	c8.286-1.648,12.826,3.806,13.905,9.994c0.989,5.589-0.255,14.325-3.671,21.622L276.342,52.454z M288.794,19.924l-2.937-5.14
	l5.874-2.382l1.693,5.664L288.794,19.924z M298.068,37.92c-3.761-4.45-7.612-10.819-10.698-15.928l8.241-3.371
	c1.768,3.596,4.585,8.885,6.848,12.122l3.296,0.165l0.075,0.135L298.068,37.92z M296.061,17.796l-2.922-5.094l5.859-2.427
	l1.693,5.664L296.061,17.796z"/>
<path fill="#7F2334" d="M342.857,55.989l-17.516-24.558l10.339-4.301l4.165,6.068l4.226-1.723c2.038-3.521,3.491-8.601,4.09-13.68
	l-35.707,6.293l-0.045-12.257l0.225-0.045l2.727,2.442c10.474-2.472,27.51-5.664,43.258-8.436
	c1.693,14.519-0.599,24.334-5.274,32.365l-11.822-2.457l7.522,11.013l4.3-0.135l0.105,0.225L342.857,55.989z"/>
<path fill="#7F2334" d="M368.316,21.065l1.049-11.598l0.255-0.045l2.502,2.667l12.767-2.128l2.457,9.35L368.316,21.065z
	 M369.725,36.798l0.06-11.597l0.24-0.045l2.712,2.383l13.965-3.387l3.266,9.08L369.725,36.798z M374.459,47.556l0.225-0.15
	l4.72,1.139c11.672-5.903,21.322-14.789,27.046-26.641l-1.454-4.016l0.09-0.195l12.452,6.293
	c-6.788,15.988-19.389,27.825-34.942,35.227L374.459,47.556z M401.161,15.416l-3.686-6.428l7.357-2.967l2.113,7.057L401.161,15.416z
	 M410.226,12.748l-3.671-6.413l7.357-2.967l2.113,7.057L410.226,12.748z"/>
<path fill="#7F2334" d="M447.935,37.962c-3.626,8.332-8.826,15.314-15.284,21.592l-10.983-8.84l0.165-0.15l4.585-0.33
	c4.57-4.69,8.436-9.784,11.178-15.703l-12.047-4.016l5.784-10.819l0.18,0.03l0.974,3.371c2.787,0.674,5.589,1.483,8.391,2.232
	c1.408-5.394,2.083-11.028,2.397-16.602l-2.757-2.667l0.03-0.195l13.905,0.15c-0.33,7.567-1.229,15.149-3.222,22.506
	c3.147,1.004,6.249,2.068,9.35,3.131l-1.124,10.174L447.935,37.962z"/>
<path fill="#7F2334" d="M468.606,25.751l2.862-9.065l0.15,0.015l1.708,2.622l8.076,0.569l-0.599,7.837L468.606,25.751z M516.24,54.7
	c-9.92,1.304-19.974,1.933-29.129,0.629l-9.65,5.215l-4.75-8.436l0.12-0.12l2.952,0.719l2.232-1.139l-1.948-11.058l-5.334,0.944
	l0.045-8.69l0.195-0.03l1.813,1.573c2.682-0.824,6.473-1.843,9.53-2.472l2.937,16.572c9.14,1.019,19.464,0.494,29.024-0.944
	l2.113-2.053l0.195-0.045L516.24,54.7z M505.497,45.68l-0.03-0.135l2.532-1.933l-2.128-12.122l-12.511,2.217l0.359,2.008
	l5.409-1.903l0.075,0.45l5.484-0.974l1.873,10.563l-9.574,1.708l-1.604-9.095l-1.588-0.315l2.083,11.778l-7.013,0.21l-2.607-15.913
	l-2.397-1.214l-0.03-0.15l4.316-1.154l-2.143-12.122l-2.338-1.229l-0.045-0.18l8.301-2.158l0.15,0.869
	c4.585-1.259,10.384-2.472,15.523-3.387l2.368,13.366l1.663-0.345l3.881,20.888L505.497,45.68z M502.035,17.945l-9.14,1.603
	l1.528,8.691l2.008-0.494l-0.929-5.229l-2.053-1.034l-0.045-0.18l6.892-2.008l0.195,1.154l1.903-0.435L502.035,17.945z
	 M501.316,38.053l-1.589,0.27l0.449,2.547l1.589-0.269L501.316,38.053z M503.129,24.133l-1.963,0.345l0.375,2.128l1.948-0.39
	L503.129,24.133z"/>
<path fill="#7F2334" d="M553.065,35.41l3.656,3.911l-9.814,5.604l-0.12-0.09l0.779-3.206c-1.319-1.304-2.592-2.862-3.776-4.585
	l-18.67,3.281l-0.03-9.41l0.21-0.03l2.217,1.933l12.467-2.637c-0.539-1.183-1.064-2.397-1.513-3.611l-13.426,2.382l-0.015-9.425
	l0.18-0.03l2.188,1.948l8.676-1.933l-0.27-1.049l-3.042-1.439l-0.03-0.195l10.624-3.551l1.094,4.51l4.42-0.824l-1.783-3.117
	l5.874-2.367l1.693,5.649l-2.232,0.884l2.307,5.693l-7.852,1.394c0.495,1.139,1.004,2.247,1.604,3.371l9.589-1.783l2.937,7.327
	L553.065,35.41z M551.566,56.507c-10.249,0.614-18.251-2.592-22.701-9.545l8.496-5.859l0.165,0.12l-0.614,2.982
	c2.247,2.322,7.567,4.361,12.856,4.031l2.607-2.637l0.195-0.045L551.566,56.507z M557.335,16.86l-2.952-5.139l5.889-2.382
	l1.693,5.664L557.335,16.86z"/>
<path fill="#7F2334" d="M583.418,25.094l-12.077,2.128l0.03-9.365l0.21-0.045l2.158,1.903c6.158-1.678,12.482-2.937,18.775-4.061
	c-0.075,4.045-0.509,8.091-1.603,11.987c6.338,1.364,10.459,4.765,11.612,11.343c1.723,9.755-4.81,16.572-14.085,18.205
	c-6.353,1.109-14.444-0.629-15.763-8.032c-0.869-5.004,3.132-8.99,7.807-9.799c6.143-1.094,10.579,1.858,11.808,7.986
	c1.648-1.978,2.023-4.63,1.573-7.132c-0.974-5.574-7.732-5.634-12.122-5.799L583.418,25.094z M585.321,49.652
	c-0.24-1.348-1.498-3.416-3.087-3.131c-0.914,0.18-1.903,0.794-1.708,1.843c0.404,2.263,3.102,2.098,4.855,1.918
	C585.336,50.042,585.351,49.847,585.321,49.652"/>
<path fill-rule="evenodd" clip-rule="evenodd" fill="#0092D8" d="M602.346,256.647c0.719-2.637,1.393-6.293,1.993-10.863
	l-3.446,0.614c-0.974,0.18-1.978-0.09-2.742-0.719c-0.764-0.644-1.214-1.603-1.214-2.592l-0.03-11.927
	c0-1.648,1.169-3.042,2.772-3.326l0.24-0.045c0.509-0.105,1.004-0.075,1.483,0.06c-0.06-0.15-0.09-0.3-0.12-0.449l-0.045-0.255
	c-0.33-1.828,0.899-3.581,2.727-3.896l14.085-2.503c0.944-0.165,1.918,0.09,2.667,0.674c0.764,0.599,1.229,1.498,1.289,2.442
	l0.12,2.143l7.042-1.379c0.42-0.075,0.839-0.06,1.244,0.015c0.299-0.854,0.599-1.723,0.869-2.622
	c5.559-18.34,2.382-42.434-22.611-53.133c-24.979-10.713-53.148,0-53.148,0l4.974-16.123c18.625,0.315,35.842,0.509,42.929,0.345
	c18.64-0.405,24.978-14.669,23.794-32.126c-0.18,0.18-27.36,0.359-57.074,0.494l9.98-32.32h-45.611c0,0-1.424,14.01-3.267,32.485
	c-20.842,0.09-36.8,0.135-36.8,0.135l1.483,29.743c0,0,14.13,0.33,32.29,0.674c-2.307,23.45-4.54,46.405-5.214,54.766
	c8.331-3.581,32.515-12.706,56.309-12.706c15.793,0,24.993,13.485,15.868,29.353c-9.11,15.868-21.412,23-21.007,23
	c5.949,10.713,17.037,13.485,27.36,10.324C601.791,256.842,602.076,256.737,602.346,256.647"/>
<path fill="#7F2334" d="M628.356,242.533l0.224-4.436l-9.574,1.678c-0.33,8.421-1.469,17.606-3.477,25.128l-13.905-3.326
	l-0.045-0.24l3.521-2.143c1.528-4.54,2.532-12.002,3.131-17.516l-7.926,1.408l-0.03-11.942l0.255-0.045l2.817,2.457l4.81-1.154
	l-0.18-3.177l-3.371-2.413l-0.045-0.255l14.07-2.487l0.36,5.978l10.818-2.098l1.768,4.33l10.609-1.498l2.397-3.177l0.18,0.015
	l3.281,11.433L628.356,242.533z M651.955,266.207l-2.382-3.791l-2.157-0.494c0.794,6.263-3.132,12.107-9.77,13.276
	c-6.833,1.199-13.635-1.423-15.074-9.53c-1.378-7.867,4.046-13.036,10.894-14.115l1.588-0.27l-0.659-3.716l-3.641-2.128
	l-0.045-0.255l13.546-3.761l1.813,9.919c2.832,0.39,5.649,1.079,8.511,2.008l-2.382,12.811L651.955,266.207z M636.777,261.022
	l-1.739,0.18c-2.217,0.195-3.041,1.543-2.832,2.757c0.195,1.154,1.529,1.933,2.817,1.723c1.214-0.225,2.263-1.738,1.978-3.371
	L636.777,261.022z"/>
<path fill="#7F2334" d="M672.576,278.782l-4.121-23.39l-10.354-6.039l0.09-0.195l2.952-1.034c2.367-5.874,3.686-13.276,4.51-19.329
	l-2.742-3.102l0.015-0.24l13.965,0.794c-0.749,6.803-2.203,14.594-4.195,20.723l4.12-1.229l5.769,32.785L672.576,278.782z
	 M698.798,274.601l-2.323-13.171l-14.564,2.517l0.03-11.253l0.24-0.045l2.742,2.397l10.039-2.203l-2.172-12.361l-4.825,0.839
	l-0.644,8.091l-9.38-3.296l2.248-15.044l-2.428-2.772l0.075-0.255l11.193,0.075l-0.375,4.66l2.667-0.584l-1.438-8.166l-3.297-1.948
	l-0.045-0.24l12.886-3.521l2.038,11.583l8.736-1.798l3.536,8.676l-10.713,1.903l2.113,12.047l11.388-2.128l3.476,8.69l-13.291,2.338
	l2.607,14.744L698.798,274.601z"/>
<polygon fill="#7F2334" points="103.188,104.715 102.858,99.965 100.775,103.037 98.708,99.965 98.363,104.715 95.636,104.251 
	95.636,104.206 96.28,103.726 97.119,94.631 100.775,99.695 104.431,94.631 105.27,103.726 105.93,104.206 105.93,104.251 "/>
<path fill="#7F2334" d="M111.982,105.037v-0.045l0.689-0.255c0.225-0.255,0.434-0.554,0.614-0.839
	c-0.255,0.075-0.509,0.105-0.764,0.105c-1.903,0-2.757-1.813-2.757-3.491c0-0.914,0.18-1.843,0.405-2.742l2.442,0.599v0.045
	l-0.615,0.375c-0.12,0.599-0.195,1.199-0.195,1.798c0,0.644,0.075,1.498,0.899,1.498c0.36,0,0.659-0.12,0.944-0.359v-4.12
	l2.622,0.24v0.03l-0.569,0.495v3.341c0,1.783-0.449,2.952-1.483,4.39L111.982,105.037z"/>
<path fill="#7F2334" d="M131.511,105.211l0.015-0.045l0.674-0.284c0.225-0.315,0.434-0.719,0.509-1.109
	c-0.3,0.135-0.584,0.195-0.899,0.195c-1.813,0-3.192-1.214-3.192-3.072c0-1.828,1.379-3.206,3.207-3.206
	c0.39,0,0.794,0.075,1.139,0.225v-0.39l2.622,0.24v0.06l-0.569,0.465v3.356c0,1.663-0.09,3.071-1.094,4.48L131.511,105.211z
	 M132.994,100.895c0-0.689-0.405-1.363-1.169-1.363c-0.749,0-1.214,0.674-1.214,1.363c0,0.705,0.465,1.379,1.214,1.379
	C132.59,102.274,132.994,101.6,132.994,100.895"/>
<path fill="#7F2334" d="M140.242,104.531v-5.874l-0.614-0.524v-0.045l2.667-0.27v5.889l0.674,0.524v0.045L140.242,104.531z
	 M140.242,95.151h2.053v1.948h-2.053V95.151z"/>
<path fill="#7F2334" d="M146.961,104.423v-0.045l0.569-0.479V98.34l-0.584-0.495V97.8l2.637-0.24v0.929
	c0.509-0.464,1.139-0.779,1.798-0.929l0.764,2.352l-0.045,0.03l-0.674-0.33c-0.719,0.419-1.348,0.884-1.843,1.543v3.536
	L146.961,104.423z"/>
<polygon fill="#7F2334" points="156.297,104.628 156.297,95.623 155.667,95.098 155.667,95.054 158.35,94.799 158.35,103.789 
	159.039,104.313 159.039,104.359 "/>
<path fill="#7F2334" d="M163.379,104.745v-5.768c0-2.113,0.434-3.146,2.277-4.345l1.693,1.723l-0.03,0.045h-0.734
	c-0.599,0.45-0.959,0.884-1.079,1.633h1.423l0.404,1.783h-1.903v4.136l0.569,0.479v0.045L163.379,104.745z"/>
<path fill="#7F2334" d="M171.662,104.423v-0.045l0.569-0.479V98.34l-0.584-0.495V97.8l2.637-0.24v0.929
	c0.509-0.464,1.139-0.779,1.798-0.929l0.764,2.352l-0.045,0.03l-0.674-0.33c-0.719,0.419-1.348,0.884-1.843,1.543v3.536
	L171.662,104.423z"/>
<path fill="#7F2334" d="M180.968,104.531v-5.874l-0.615-0.524v-0.045l2.667-0.27v5.889l0.689,0.524v0.045L180.968,104.531z
	 M180.968,95.151h2.053v1.948h-2.053V95.151z"/>
<path fill="#7F2334" d="M190.186,101.496v-0.06l1.828-1.393c-0.225-0.359-0.584-0.554-0.989-0.554c-0.884,0-1.409,0.824-1.409,1.633
	c0,0.794,0.524,1.618,1.409,1.618c0.344,0,0.689-0.12,0.959-0.33l0.225-0.719l0.045-0.015l1.169,2.098
	c-0.719,0.555-1.498,0.824-2.397,0.824c-1.903,0-3.342-1.618-3.342-3.476c0-1.873,1.439-3.401,3.342-3.401
	c1.813,0,3.162,1.379,3.281,3.146L190.186,101.496z"/>
<path fill="#7F2334" d="M202.566,104.628c0.269-1.033,0.404-2.173,0.404-3.251c0-0.584-0.15-1.723-0.959-1.723
	c-0.375,0-0.689,0.15-1.004,0.375v4.66l-2.607-0.27v-0.045l0.569-0.479v-5.559l-0.584-0.494v-0.045l2.622-0.24v0.524
	c0.419-0.195,0.884-0.3,1.333-0.3c1.993,0,2.727,1.903,2.727,3.611c0,0.809-0.135,1.633-0.3,2.412l0.599,0.48v0.03L202.566,104.628z
	"/>
<path fill="#7F2334" d="M213.758,104.693v-0.465c-0.374,0.21-0.809,0.345-1.229,0.345c-1.918,0-3.116-1.379-3.116-3.252
	c0-1.828,1.289-3.131,3.131-3.131c0.434,0,0.854,0.105,1.214,0.315v-3.087l2.638,0.255v0.045l-0.584,0.495v7.687l0.569,0.479v0.045
	L213.758,104.693z M213.819,101.321c0-0.674-0.375-1.333-1.124-1.333c-0.809,0-1.273,0.555-1.273,1.333
	c0,0.749,0.39,1.394,1.199,1.394C213.399,102.715,213.819,102.04,213.819,101.321"/>
<path fill="#7F2334" d="M150.491,124.864v-5.874l-0.615-0.524v-0.045l2.667-0.255v5.874l0.674,0.54v0.03L150.491,124.864z
	 M150.491,115.499h2.053v1.933h-2.053V115.499z"/>
<path fill="#7F2334" d="M157.921,123.241l0.045-0.03c0.045,0.015,0.704,0.24,0.704,0.24c0.24,0,1.034,0,1.034-0.39
	c0-0.18-0.494-0.404-0.615-0.465l-0.539-0.255c-0.989-0.45-1.529-1.139-1.529-2.263c0-0.959,0.765-1.858,1.678-2.128
	c0.255-0.06,0.524-0.105,0.809-0.105c1.244,0,2.292,0.674,2.847,1.783l-2.008,1.214l-0.015-0.03l0.165-0.734
	c-0.225-0.269-0.54-0.45-0.899-0.45c-0.285,0-0.63,0.12-0.63,0.435c0,0.33,0.36,0.509,0.599,0.614l0.884,0.405
	c0.884,0.419,1.229,1.154,1.229,2.083c0,1.513-1.558,2.082-2.817,2.082L157.921,123.241z"/>
<path fill="#7F2334" d="M116.005,142.862l0.03,0.015l0.33,0.599c0.24,0.105,0.494,0.15,0.764,0.15c0.18,0,0.42-0.03,0.569-0.15
	c0.18-0.12,0.315-0.39,0.315-0.615c0-1.168-3.941-1.408-3.941-4.225c0-1.858,1.558-3.237,3.371-3.237
	c1.079,0,2.113,0.48,2.922,1.199l-1.514,2.023l-0.045-0.03l-0.105-0.719c-0.375-0.27-0.824-0.48-1.274-0.48
	c-0.719,0-1.274,0.36-1.274,1.109c0,0.524,0.345,0.929,0.794,1.139l1.214,0.57c1.094,0.524,1.948,1.363,1.948,2.652
	c0,1.633-1.439,2.772-3.012,2.772c-0.659,0-1.304-0.165-1.873-0.465L116.005,142.862z"/>
<path fill="#7F2334" d="M128.561,145.321c0.315-1.303,0.404-2.592,0.404-3.251c0-1.199-0.449-1.723-0.959-1.723
	c-0.359,0-0.659,0.105-1.004,0.374v4.645l-2.607-0.255v-0.045l0.569-0.479v-8.016l-0.584-0.494v-0.06l2.622-0.24v2.997
	c0.419-0.195,0.869-0.299,1.333-0.299c0.779,0,1.468,0.329,1.933,0.929c0.839,1.064,1.019,2.652,0.494,5.094l0.599,0.48v0.03
	L128.561,145.321z"/>
<path fill="#7F2334" d="M135.405,141.839c0-1.903,1.514-3.506,3.431-3.506s3.446,1.603,3.446,3.506c0,1.903-1.483,3.566-3.446,3.566
	C136.888,145.405,135.405,143.742,135.405,141.839 M140.23,141.839c0-0.839-0.51-1.558-1.394-1.558
	c-0.869,0-1.379,0.719-1.379,1.558c0,0.794,0.51,1.604,1.379,1.604C139.72,143.443,140.23,142.633,140.23,141.839"/>
<path fill="#7F2334" d="M146.34,145.116v-0.045l0.584-0.479v-7.687l-0.599-0.495v-0.045l2.637-0.255v3.102
	c0.39-0.21,0.839-0.33,1.273-0.33c1.948,0,3.072,1.229,3.072,3.131c0,1.918-1.079,3.252-3.072,3.252
	c-0.434,0-0.884-0.135-1.273-0.359v0.465L146.34,145.116z M151.315,142.014c0-0.689-0.465-1.333-1.214-1.333
	c-0.749,0-1.199,0.644-1.199,1.333c0,0.719,0.434,1.394,1.199,1.394C150.88,143.408,151.315,142.733,151.315,142.014"/>
<path fill="#7F2334" d="M157.953,145.212v-5.874l-0.614-0.509v-0.06l2.667-0.255v5.889l0.674,0.509v0.06L157.953,145.212z
	 M157.953,135.832h2.053v1.948h-2.053V135.832z"/>
<path fill="#7F2334" d="M166.379,145.921c-1.184-1.453-1.379-2.802-1.379-4.63v-3.716l-0.584-0.495v-0.045l2.637-0.24v1.918h1.333
	l0.42,1.798h-1.753c0,1.348-0.09,2.607,0.734,3.731l0.704,0.12l0.03,0.045L166.379,145.921z"/>
<path fill="#7F2334" d="M177.486,142.41l0.045-0.015l1.183,2.098c-0.719,0.555-1.498,0.809-2.412,0.809
	c-1.873,0-3.491-1.483-3.491-3.387c0-1.978,1.528-3.581,3.521-3.581c0.959,0,1.873,0.359,2.607,0.959l-1.663,1.918l-0.03-0.045
	l-0.075-0.749c-0.24-0.165-0.524-0.24-0.824-0.24c-0.884,0-1.558,0.764-1.558,1.633c0,0.869,0.674,1.618,1.558,1.618
	c0.345,0,0.659-0.105,0.929-0.3L177.486,142.41z"/>
<path fill="#7F2334" d="M187.047,145.321c0.329-1.303,0.404-2.592,0.404-3.251c0-1.199-0.45-1.723-0.944-1.723
	c-0.36,0-0.674,0.105-1.004,0.374v4.645l-2.622-0.255v-0.045l0.569-0.479v-8.016l-0.584-0.494v-0.06l2.637-0.24v2.997
	c0.42-0.195,0.854-0.299,1.319-0.299c0.794,0,1.468,0.329,1.948,0.929c0.824,1.064,1.004,2.652,0.479,5.094l0.599,0.48v0.03
	L187.047,145.321z"/>
</svg>
