<?xml version="1.0" encoding="utf-8"?>
<!-- Generator: Adobe Illustrator 27.0.1, SVG Export Plug-In . SVG Version: 6.00 Build 0)  -->
<svg version="1.1" id="레이어_1" xmlns="http://www.w3.org/2000/svg" xmlns:xlink="http://www.w3.org/1999/xlink" x="0px"
	 y="0px" viewBox="0 0 720 175.834" enable-background="new 0 0 720 175.834" xml:space="preserve">
<path fill="#D67D80" d="M173.643,68.976c-3.285-5.423-7.613-9.932-15.088-14.243c-0.854-0.466-1.354-0.828-1.311-1.104
	c0.035-0.276,0.595-0.37,1.811-0.457h0.638h1.199c8.992,0,17.933,2.483,21.882,6.432c2.242,2.293,2.897,4.862,2.578,7.069
	c-0.466,3.397-3.242,6.061-6.173,6.061C177.341,72.735,175.289,71.632,173.643,68.976 M168.271,113.714
	c-4.147,2.113-3.095,3.122-5.018,3.681l-1.225,0.173c-5.233,0-11.855-8.441-10.975-14.7l0.258-1.19
	c0.336-1.095,0.604-1.655,1.06-1.655l1.147,1.009c1.25,1.569,3.078,2.302,5.372,2.302c2.018,0,4.492-0.56,7.389-1.56
	c17.976-6.337,43.962-22.606,61.654-40.617l1.431-1.009l0.302,0.465l-0.655,1.38C213.199,85.599,192.731,101.127,168.271,113.714"/>
<path fill="#D67D80" d="M352.997,82.561c6.251,0,8.345,2.113,8.018,4.406c-0.388,2.759-4.208,5.699-8.734,5.88
	c-2.949,0.095-5.345,0.189-7.648,0.189c-3.587,0-7.061-0.095-12.665-0.095c-6.708,0-16.269,0.095-32.245,0.638
	c-4.992,0.19-4.811,2.208-7.941,2.208h-0.086c-4.604,0-7.794-7.346-7.001-12.959c0.173-1.181,0.509-2.293,1.095-3.216
	c0.612-1.095,1.06-1.647,1.518-1.647c0.276,0,0.578,0.466,0.905,1.379c1.095,3.302,5.147,3.949,10.57,3.949h7.708
	c16.269,0,24.796-0.551,45.773-0.733H352.997z"/>
<path fill="#D67D80" d="M509.742,93.461c-1.707,10.734-10.148,17.692-23.985,17.692l-1.587-0.052l-0.922-0.25l0.854-0.345
	c9.562-1.707,17.951-8.622,19.761-17.588l0.216-1.207c1.069-7.622-2.854-12.829-11.527-12.829l-2.268,0.104
	c1.31,1.406,1.56,3.509,1.362,4.958l-0.052,0.354c-1.198,7.415-6.01,16.036-11.544,21.149c-2.595,2.396-5.182,3.707-7.286,3.707
	c-2.302,0-4.078-1.604-4.578-5.216c-0.258-2.052-0.181-4.052,0.078-5.906c1.612-11.475,11.432-19.304,20.856-20.752
	c1.491-0.25,2.905-0.354,4.259-0.354c11.027,0,17.571,7.268,16.459,15.89L509.742,93.461z M473.239,96.125
	c-0.224,1.647-0.207,3.311,0.129,4.811c0.276,1.25,0.69,1.897,1.337,1.897c0.551,0,1.25-0.345,2.215-1.147
	c4.035-3.354,9.131-9.717,11.665-17.39l0.466-1.905c0.189-1.354,0.043-2.405-0.354-3.156
	C480.153,80.839,474.256,88.909,473.239,96.125"/>
<path fill="#D67D80" d="M91.292,133.619c-5.483,0-10.217,0-14.39-0.371c-11.139-0.939-19.244-4.475-24.08-10.484
	c-4.397-5.458-5.992-12.958-4.759-22.304l0.284-2.035c0.69-4.371,1.406-8.51,2.121-12.639c1.06-6.138,2.155-12.484,3.181-19.692
	l1.811-12.889c1.612-11.484,2.543-20.882,3.457-29.969c0.922-8.915,0.655-18.304-8.372-20.21l-0.974-0.258l1.466-0.836
	C53.658,0.638,56.788,0,60.435,0c8.294,0,17.528,3.698,21.959,8.803c1.181,1.362,2.526,3.44,2.207,5.647l-0.043,0.371
	c-0.388,2.724-1.164,3.414-2.336,4.457c-1.388,1.242-3.104,2.776-4.181,7.372c-0.517,2.146-0.983,4.035-1.431,5.863
	c-1.095,4.457-2.13,8.656-3.621,15.45l-2.621,11.967l-0.276,1.241c-2.854,12.476-5.561,24.262-7.268,36.435l-0.077,0.569
	c-0.768,5.432,0.103,9.743,2.577,12.804c2.517,3.095,6.656,4.862,12.303,5.25c2.604,0.181,5.553,0.379,8.458,0.379
	c8.829,0,17.519-1.147,24.856-2.259c2.871-0.44,5.251-1.242,7.371-1.949c2.544-0.854,4.742-1.587,7.268-1.587h1.129
	c5.492,0,9.889,1.569,12.364,4.423c1.534,1.759,2.207,3.923,1.897,6.104c-0.613,4.311-4.967,9.312-15.39,10.415
	C113.976,133.024,103.078,133.619,91.292,133.619 M93.111,82.182c8.415-9.708,17.459-21.244,22.046-28.141
	c0.819-1.087,1.379-1.983,1.509-2.897l-0.535-1.828c-0.517-0.595-1.302-0.914-2.215-0.914l-1.802,0.224l-0.94,0.173
	c-11.38,2.449-20.45,5.009-32.21,8.579l1.793-8.217c10.717-2.88,17.588-4.681,24.778-6.484c2.845-0.707,5.88-1.466,9.415-2.362
	c5.164-1.328,7.604-3.328,9.553-4.94c1.75-1.44,2.82-2.302,5.285-2.302c3.311,0,8.906,3.673,13.303,8.716
	c3.518,4.061,5.475,8.191,5.113,10.777l-0.078,0.216l-0.233,0.698c-1.035,2.63-2.828,3.078-6.13,3.716
	c-2.405,0.457-5.13,0.983-7.777,2.906C121.442,69.163,106.561,77.199,93.111,82.182 M14.697,81.475c-2.639,0-5.76-1.853-8.562-5.087
	C1.928,71.543-0.564,64.844,0.109,60.11l0.155-0.595l0.25-0.982l0.431-1.216l0.31,0.517c1.647,2.966,5.173,4.397,10.811,4.397
	c2.94,0,6.605-0.388,10.907-1.147c5.19-0.897,13.416-2.5,24.219-5.475l-1.406,9.958C38.32,68.594,32.854,71,27.715,73.405
	c-3.629,1.656-5.621,3.526-7.216,5.027c-1.569,1.474-2.612,2.466-4.639,2.862l-0.785,0.121L14.697,81.475"/>
<path fill="#D67D80" d="M250.489,58.304c0.801-4.337,2.854-3.854,3.319-7.138l0.095-0.673c0.448-3.958-6.958-8.2-13.226-8.2
	c-2.026,0-4.018,0.475-5.518,1.543c-0.975,0.673-1.518,1.156-1.569,1.543c-0.043,0.285,0.604,0.483,1.828,0.673
	c3.233,0.388,4.889,2.992,4.44,8.294c-0.569,6.078-1.587,14.665-2.793,23.253c-1.19,8.492-2.501,17.08-3.708,22.951
	c-1.647,8.303-2.75,8.588-3.345,12.838l-0.155,1.06c-0.914,7.242,2.017,10.424,5.095,10.424c3.19,0,6.915-3.181,7.69-8.682
	l0.086-0.586c0.69-4.914,0.681-12.442,3.975-35.884l0.767-5.501l0.354-1.828C248.35,69.4,249.712,62.451,250.489,58.304"/>
<path fill="#D67D80" d="M273.036,82.376c-3.889-4.431-13.019-7.785-21.106-9.182l-0.586,3.595
	c5.63,4.595,9.432,10.251,12.484,16.191c1.518,2.897,3.656,4.156,5.785,4.156c3.087,0,5.957-2.612,6.458-6.182
	C276.424,88.454,275.7,85.368,273.036,82.376"/>
<path fill="#D67D80" d="M409.932,85.701c1.241-7,2.638-16.01,3.983-25.563c1.905-13.57,3.19-25.52,3.621-33.633
	c0.328-7.63-0.077-10.872-5.466-12.312c-2.285-0.509-2.699-1.044-2.682-1.13c0.009-0.103,0.181-0.638,2.199-1.871
	c2.052-1.285,4.613-1.94,7.63-1.94c6.328,0,14.122,3.173,17.743,7.225c1.25,1.397,1.854,2.759,1.716,3.949l-0.086,0.604
	c-0.207,1.5-0.802,2.328-1.543,3.38c-0.914,1.276-2.052,2.88-2.776,6.147c-2.389,10.691-3.811,19.365-7.932,48.618
	c-1.44,0.569-3.078,1.207-4.785,1.862C417.424,82.64,412.811,84.425,409.932,85.701"/>
<path fill="#D67D80" d="M419.277,111.313c-2.638,0-6.596-2.509-9.846-6.259c-2.552-2.932-3.983-5.897-3.733-7.717
	c0.189-1.353,0.828-2.466,1.578-3.759l0.069-0.112c1.379-0.975,8.303-3.647,13.898-5.811c3.129-1.216,6.096-2.362,7.898-3.121
	c18.795-7.536,45.307-23.753,69.172-42.316c0.974-0.724,1.509-0.974,1.759-1.06l-0.862,1.371
	c-18.494,25.305-39.022,43.453-68.621,60.714c-2.905,1.69-4.681,3.457-6.113,4.88c-1.56,1.561-2.69,2.673-4.535,3.044h-0.034
	l-0.44,0.104L419.277,111.313"/>
<g>
	<defs>
		<path id="SVGID_1_" d="M522.239,33.596c-1.603,11.39-6.207,18.58-10.113,22.925c-1.94,2.095-2.845,4.19-3.113,6.139
			c-0.551,3.906,2.07,6.596,5.518,6.596c1.5,0,3.225-0.595,4.897-1.802c3.699-2.836,5.483-8.087,6.285-13.769
			c1.069-7.647,0.147-16.045-0.888-20.39c-0.302-1.035-0.837-1.491-1.285-1.491C522.946,31.804,522.403,32.398,522.239,33.596"/>
	</defs>
	<clipPath id="SVGID_00000047039311527659819280000008119129798912373399_">
		<use xlink:href="#SVGID_1_"  overflow="visible"/>
	</clipPath>
	
		<linearGradient id="SVGID_00000166674390435807617100000017168628565306252974_" gradientUnits="userSpaceOnUse" x1="-160.6502" y1="714.1244" x2="-152.0285" y2="714.1244" gradientTransform="matrix(0 10.9551 10.9551 0 -7305.6904 1781.0527)">
		<stop  offset="0" style="stop-color:#D67D80"/>
		<stop  offset="0.1" style="stop-color:#D67D80"/>
		<stop  offset="1" style="stop-color:#D21578"/>
	</linearGradient>
	
		<rect x="508.461" y="31.804" clip-path="url(#SVGID_00000047039311527659819280000008119129798912373399_)" fill="url(#SVGID_00000166674390435807617100000017168628565306252974_)" width="18.322" height="37.453"/>
</g>
<g>
	<defs>
		<path id="SVGID_00000155858677589801608400000011086741855308914572_" d="M591.816,6.344l0.423,1.19
			c7.113,10.19,3.776,19.028,4.543,26.365c0.414,3.44,2.561,5.242,5.095,5.242c3.449,0,7.639-3.147,8.484-9.122l0.026-0.319
			c1.25-8.682-4.44-17.373-16.528-24.115l-0.879-0.147L591.816,6.344z"/>
	</defs>
	<clipPath id="SVGID_00000121989103301001827700000012277637573499357314_">
		<use xlink:href="#SVGID_00000155858677589801608400000011086741855308914572_"  overflow="visible"/>
	</clipPath>
	
		<linearGradient id="SVGID_00000182516577666355544220000008542998138877775783_" gradientUnits="userSpaceOnUse" x1="-160.6502" y1="720.9163" x2="-152.0285" y2="720.9163" gradientTransform="matrix(0 10.9551 10.9551 0 -7295.9917 1781.0527)">
		<stop  offset="0" style="stop-color:#D67D80"/>
		<stop  offset="0.1" style="stop-color:#D67D80"/>
		<stop  offset="1" style="stop-color:#D21578"/>
	</linearGradient>
	
		<rect x="591.816" y="5.439" clip-path="url(#SVGID_00000121989103301001827700000012277637573499357314_)" fill="url(#SVGID_00000182516577666355544220000008542998138877775783_)" width="19.821" height="33.702"/>
</g>
<g>
	<defs>
		<path id="SVGID_00000069371417931643737130000011189975091163233197_" d="M561.114,13.672l0.414,1.345
			c9.355,10.191,7.536,17.838,9.441,25.624c0.75,3.147,2.793,4.647,5.182,4.647c3.44,0,7.181-3.155,7.923-8.398l0.147-1.043
			c1-9.286-8.906-17.683-21.08-22.77l-1-0.294L561.114,13.672z"/>
	</defs>
	<clipPath id="SVGID_00000152265141133183294090000003142652585591122361_">
		<use xlink:href="#SVGID_00000069371417931643737130000011189975091163233197_"  overflow="visible"/>
	</clipPath>
	
		<linearGradient id="SVGID_00000098922109696158592940000004043432959190224303_" gradientUnits="userSpaceOnUse" x1="-160.6502" y1="718.611" x2="-152.0285" y2="718.611" gradientTransform="matrix(0 10.9551 10.9551 0 -7299.2959 1781.0527)">
		<stop  offset="0" style="stop-color:#D67D80"/>
		<stop  offset="0.1" style="stop-color:#D67D80"/>
		<stop  offset="1" style="stop-color:#D21578"/>
	</linearGradient>
	
		<rect x="561.114" y="12.784" clip-path="url(#SVGID_00000152265141133183294090000003142652585591122361_)" fill="url(#SVGID_00000098922109696158592940000004043432959190224303_)" width="24.106" height="32.505"/>
</g>
<g>
	<defs>
		<path id="SVGID_00000143606266372573412060000015558255639892453521_" d="M632.95,6.783
			c-2.828,10.484-10.389,26.969-21.433,41.643l-0.242,0.604l-0.017,0.155l1.069,0.897l1.267-0.448
			c13.881-10.338,23.451-21.874,31.142-32.961c1.311-1.793,1.888-1.656,4.147-1.793c1.974-0.155,2.974-0.906,3.095-1.802
			c0.138-0.906-0.621-1.949-1.75-2.389c-5.923-2.552-10.044-4.207-15.355-5.845l-0.888-0.155
			C633.097,4.688,633.278,5.438,632.95,6.783"/>
	</defs>
	<clipPath id="SVGID_00000103262727099599141120000003872774501699100349_">
		<use xlink:href="#SVGID_00000143606266372573412060000015558255639892453521_"  overflow="visible"/>
	</clipPath>
	
		<linearGradient id="SVGID_00000098181326055557068770000017097337126233370781_" gradientUnits="userSpaceOnUse" x1="-160.6502" y1="723.3288" x2="-152.0285" y2="723.3288" gradientTransform="matrix(0 10.9551 10.9551 0 -7292.4609 1781.0527)">
		<stop  offset="0" style="stop-color:#D67D80"/>
		<stop  offset="0.1" style="stop-color:#D67D80"/>
		<stop  offset="1" style="stop-color:#D21578"/>
	</linearGradient>
	
		<rect x="611.258" y="4.689" clip-path="url(#SVGID_00000103262727099599141120000003872774501699100349_)" fill="url(#SVGID_00000098181326055557068770000017097337126233370781_)" width="40.858" height="45.393"/>
</g>
<g>
	<defs>
		<path id="SVGID_00000121277609173821672540000004184049178711201186_" d="M538.267,3.636c-0.905,0-1.224,0.155-1.31,0.75
			c-0.06,0.457,0.138,1.199,0.155,2.095c0.31,3.147-1.854,20.675-4.914,42.401c-3.871,27.564-9.415,61.714-12.726,82.087
			l-0.086,0.604c-0.414,2.992,0.259,4.492,4.311,4.492c0.741,0,1.655,0,2.716-0.146c6.234-0.604,7.544-1.5,8.053-5.113l0.112-0.733
			c2.25-18.123,5.086-41.487,8.087-62.921c3.319-23.667,6.466-44.945,7.82-53.48c0.25-1.793,1.25-2.543,3.285-3.138
			c1.716-0.457,2.612-1.5,2.742-2.397c0.121-0.905-0.5-1.793-2.233-2.259c-5.104-1.035-10.691-1.785-14.959-2.242H538.267z"/>
	</defs>
	<clipPath id="SVGID_00000181778503969597912430000018085150715407313806_">
		<use xlink:href="#SVGID_00000121277609173821672540000004184049178711201186_"  overflow="visible"/>
	</clipPath>
	
		<linearGradient id="SVGID_00000105395015374257735280000007369539457675972285_" gradientUnits="userSpaceOnUse" x1="-160.6502" y1="715.7511" x2="-152.0285" y2="715.7511" gradientTransform="matrix(0 10.9551 10.9551 0 -7303.332 1781.0527)">
		<stop  offset="0" style="stop-color:#D67D80"/>
		<stop  offset="0.1" style="stop-color:#D67D80"/>
		<stop  offset="1" style="stop-color:#D21578"/>
	</linearGradient>
	
		<rect x="518.971" y="3.637" clip-path="url(#SVGID_00000181778503969597912430000018085150715407313806_)" fill="url(#SVGID_00000105395015374257735280000007369539457675972285_)" width="37.659" height="132.429"/>
</g>
<g>
	<defs>
		<path id="SVGID_00000123421189735703854110000001243427608576383662_" d="M549.553,29.855l0.37,1.647
			c2.414,5.251,2.268,9.441,1.707,13.485c-0.241,1.647-0.62,3.285-0.87,5.095c-0.552,3.897,1.56,5.992,4.095,5.992
			c2.552,0,5.716-2.242,6.389-7.044l0.034-0.302c0.957-6.742-2.078-12.88-9.303-19.028l-1.552-0.75L549.553,29.855z"/>
	</defs>
	<clipPath id="SVGID_00000041296610144201357980000009649793609887504032_">
		<use xlink:href="#SVGID_00000123421189735703854110000001243427608576383662_"  overflow="visible"/>
	</clipPath>
	
		<linearGradient id="SVGID_00000003099077962063326730000018088229713808707762_" gradientUnits="userSpaceOnUse" x1="-160.6502" y1="717.2162" x2="-152.0285" y2="717.2162" gradientTransform="matrix(0 10.9551 10.9551 0 -7301.2905 1781.0527)">
		<stop  offset="0" style="stop-color:#D67D80"/>
		<stop  offset="0.1" style="stop-color:#D67D80"/>
		<stop  offset="1" style="stop-color:#D21578"/>
	</linearGradient>
	
		<rect x="549.552" y="28.95" clip-path="url(#SVGID_00000041296610144201357980000009649793609887504032_)" fill="url(#SVGID_00000003099077962063326730000018088229713808707762_)" width="12.683" height="27.124"/>
</g>
<g>
	<defs>
		<path id="SVGID_00000085941160094236390470000010764660061797437066_" d="M569.124,118.865l-0.802,1.492l0.629,0.905l1.25-0.457
			c9.078-6.251,16.864-13.424,23.606-20.994c-1.345-3.276-3.414-7.673-3.604-8.096C584.505,100.898,577.573,110.321,569.124,118.865
			"/>
	</defs>
	<clipPath id="SVGID_00000155114044336130415940000013793125806511948734_">
		<use xlink:href="#SVGID_00000085941160094236390470000010764660061797437066_"  overflow="visible"/>
	</clipPath>
	
		<linearGradient id="SVGID_00000108990975744706870910000009139289415127846294_" gradientUnits="userSpaceOnUse" x1="-160.6502" y1="719.2433" x2="-152.0285" y2="719.2433" gradientTransform="matrix(0 10.9551 10.9551 0 -7298.3262 1781.0527)">
		<stop  offset="0" style="stop-color:#D67D80"/>
		<stop  offset="0.1" style="stop-color:#D67D80"/>
		<stop  offset="1" style="stop-color:#D21578"/>
	</linearGradient>
	
		<rect x="568.322" y="91.716" clip-path="url(#SVGID_00000155114044336130415940000013793125806511948734_)" fill="url(#SVGID_00000108990975744706870910000009139289415127846294_)" width="25.486" height="29.547"/>
</g>
<g>
	<defs>
		<path id="SVGID_00000046311530094654563850000000479678694970186431_" d="M577.418,65.239l0.767,1.948
			c6.311,6.277,11.182,13.183,14.683,20.218c0,0,2.63,5.544,3.992,8.984c2.199,5.691,3.664,11.234,4.596,16.347
			c0.758,4.181,3.198,5.975,5.742,5.975c3.147,0,6.527-2.845,7.182-7.337c0.181-1.362,0.104-2.845-0.267-4.492
			c-1.302-5.699-5.121-12.596-10.467-19.329c0,0-3.5-4.406-6.708-7.794c-5.199-5.535-11.07-10.786-17.234-14.829l-1.276-0.448
			L577.418,65.239z"/>
	</defs>
	<clipPath id="SVGID_00000112616093046848986150000010724829012210015407_">
		<use xlink:href="#SVGID_00000046311530094654563850000000479678694970186431_"  overflow="visible"/>
	</clipPath>
	
		<linearGradient id="SVGID_00000106118424335548181890000012215276572037734045_" gradientUnits="userSpaceOnUse" x1="-160.6502" y1="720.4481" x2="-152.0285" y2="720.4481" gradientTransform="matrix(0 10.9551 10.9551 0 -7296.6006 1781.0527)">
		<stop  offset="0" style="stop-color:#D67D80"/>
		<stop  offset="0.1" style="stop-color:#D67D80"/>
		<stop  offset="1" style="stop-color:#D21578"/>
	</linearGradient>
	
		<rect x="577.418" y="64.48" clip-path="url(#SVGID_00000112616093046848986150000010724829012210015407_)" fill="url(#SVGID_00000106118424335548181890000012215276572037734045_)" width="37.142" height="54.23"/>
</g>
<g>
	<defs>
		<path id="SVGID_00000038394451349617555370000009842944013818243001_" d="M607.387,53.685c-0.5,0.078-0.595,0.69-0.888,1.802
			c-1.534,5.604-4.026,12.467-7.415,19.77c2.423,2.561,5.828,6.311,7.44,8.095c4.044-5.983,7.673-11.993,10.545-17.821
			c0.81-1.5,1.776-1.949,4.346-2.095c1.81-0.155,2.673-0.905,2.811-1.948c0.112-0.741-0.362-1.656-1.345-2.095
			c-3.535-1.5-9.518-3.75-14.226-5.397l-1.129-0.31H607.387z"/>
	</defs>
	<clipPath id="SVGID_00000133520488497385724060000010893861134302575038_">
		<use xlink:href="#SVGID_00000038394451349617555370000009842944013818243001_"  overflow="visible"/>
	</clipPath>
	
		<linearGradient id="SVGID_00000058587232078570254820000011930474716632575904_" gradientUnits="userSpaceOnUse" x1="-160.6502" y1="721.7167" x2="-152.0285" y2="721.7167" gradientTransform="matrix(0 10.9551 10.9551 0 -7294.7759 1781.0527)">
		<stop  offset="0" style="stop-color:#D67D80"/>
		<stop  offset="0.1" style="stop-color:#D67D80"/>
		<stop  offset="1" style="stop-color:#D21578"/>
	</linearGradient>
	
		<rect x="599.084" y="53.685" clip-path="url(#SVGID_00000133520488497385724060000010893861134302575038_)" fill="url(#SVGID_00000058587232078570254820000011930474716632575904_)" width="25.253" height="29.667"/>
</g>
<g>
	<defs>
		<path id="SVGID_00000087374212225826018870000004591179690636848525_" d="M560.502,55.323c-0.095,0.75,0.181,1.94,0.095,3.595
			c-0.095,4.94-1.449,16.769-3.328,30.107c-1.958,13.933-4.742,29.512-6.605,40.599l-0.172,1.181
			c-0.483,3.466,0.034,5.113,4.535,5.113h1.647c6.061-0.448,7.483-1.052,8.01-4.794l0.189-1.345c0-1.06,0.173-2.25,0.345-3.457
			h48.531l0.638-3.44h-48.851c1.035-8.38,2.25-18.131,3.518-27.115c1.983-14.07,3.897-26.649,4.569-30.409
			c0.336-2.397,0.991-2.698,3.785-3.449c2.172-0.603,3.233-1.638,3.354-2.543c0.129-0.905-0.793-1.802-2.828-2.25
			c-5.673-1.19-10.958-1.949-15.071-2.543l-1.181-0.147L560.502,55.323z"/>
	</defs>
	<clipPath id="SVGID_00000013902763021565061740000018123207029235942307_">
		<use xlink:href="#SVGID_00000087374212225826018870000004591179690636848525_"  overflow="visible"/>
	</clipPath>
	
		<linearGradient id="SVGID_00000045620480988046108620000008060472502212483519_" gradientUnits="userSpaceOnUse" x1="-160.6502" y1="719.3329" x2="-152.0285" y2="719.3329" gradientTransform="matrix(0 10.9551 10.9551 0 -7298.1743 1781.0527)">
		<stop  offset="0" style="stop-color:#D67D80"/>
		<stop  offset="0.1" style="stop-color:#D67D80"/>
		<stop  offset="1" style="stop-color:#D21578"/>
	</linearGradient>
	
		<rect x="550.009" y="54.427" clip-path="url(#SVGID_00000013902763021565061740000018123207029235942307_)" fill="url(#SVGID_00000045620480988046108620000008060472502212483519_)" width="64.379" height="81.493"/>
</g>
<g>
	<defs>
		<path id="SVGID_00000099648741117780253700000007982632442836954542_" d="M627.225,55.168c-0.077,0.612,0.336,1.949,0.242,3.75
			c-0.043,4.492-1.241,14.088-2.819,25.322c-1.742,12.433-4.07,26.813-6.027,38.642l-0.629,3.44
			c-0.155,1.061-0.474,2.251-0.612,3.302l-0.242,1.656c-0.448,3.138,0.25,4.639,4.293,4.639l1.966-0.155
			c6.061-0.448,7.466-0.897,8.001-4.639l0.207-1.5c1.181-9.441,2.302-20.666,3.768-31.158c2.009-14.226,3.966-27.107,4.975-33.108
			c0.319-2.397,0.672-2.698,3.173-3.449c2.018-0.603,3.225-1.638,3.345-2.543c0.129-0.905-0.785-1.802-2.828-2.25
			c-5.095-1.043-10.38-1.793-14.614-2.543l-1.181-0.147L627.225,55.168z"/>
	</defs>
	<clipPath id="SVGID_00000052098669813443531960000007200865845712249530_">
		<use xlink:href="#SVGID_00000099648741117780253700000007982632442836954542_"  overflow="visible"/>
	</clipPath>
	
		<linearGradient id="SVGID_00000081646728281971527740000004704936700619449255_" gradientUnits="userSpaceOnUse" x1="-160.6502" y1="723.3395" x2="-152.0285" y2="723.3395" gradientTransform="matrix(0 10.9551 10.9551 0 -7292.4229 1781.0527)">
		<stop  offset="0" style="stop-color:#D67D80"/>
		<stop  offset="0.1" style="stop-color:#D67D80"/>
		<stop  offset="1" style="stop-color:#D21578"/>
	</linearGradient>
	
		<rect x="616.689" y="54.427" clip-path="url(#SVGID_00000052098669813443531960000007200865845712249530_)" fill="url(#SVGID_00000081646728281971527740000004704936700619449255_)" width="30.306" height="81.493"/>
</g>
<path fill="#D67D80" d="M671.392,66.288h0.181c3.061,0,5.932-2.284,8.38-4.121c3.63-2.716,3.983-3.423,6.234-5.001l1.483-0.612
	l0.681,0.793l-0.621,1.311c-3.44,4.759-8.208,11.407-12.475,18.105c1.371,0.121,3.837,0.336,7.44,0.629
	c3.406-4.932,6.94-9.113,11.243-12.95c2.405-2.19,5.561-2.19,6.578-5.699l0.086-0.62c0.5-3.5-3.095-8.501-7.225-8.501
	c-3.854,0-5.466,1.492-7.691,2.285c-5.069,1.845-7.199,2.621-11.492,3.242c-0.897,0.086-1.793,0.173-2.57,0.173
	c-1.587,0-2.854-0.259-3.578-1.397l-1.009-0.966c-0.345,0-0.672,0.439-1.052,1.224c-0.492,1.052-0.81,2.104-0.966,3.164
	C664.373,61.995,667.012,66.288,671.392,66.288 M715.25,90.576c-1.25-0.785-2.595-1.491-3.983-2.173
	c-0.431,1.104-2.586,6.509-4.156,9.976c0.758,0.801,1.466,1.629,2.138,2.457c1.483,1.931,3.302,2.724,4.966,2.724
	c2.802,0,5.32-2.284,5.725-5.181C720.294,95.835,719.121,92.947,715.25,90.576 M671.823,87.455
	c-1.225-0.086-2.474,0.061-3.182,0.535c-2.811,4.724-5,8.208-7.682,11.363c-1.672,1.923-3.448,2.716-4.94,2.716
	c-1.931,0-3.31-1.406-2.94-4.035l0.276-1.31c1.009-3.242,4.647-8.527,11.372-11.122c3.113-1.112,5.458-1.673,11.303-0.819
	l0.181,0.026c0.621,0.104,1.319,0.207,2.095,0.336c5.966,0.879,11.173,2.302,16.062,4.527c0.31-0.802,1.31-3.475,2.147-6.725
	c-3.147-0.828-6.492-1.534-9.829-2.052l0.035-0.043c-6.768-1.009-10.346-1.259-13.079-1.225l-0.173-0.008l-0.914,0.043l-0.56,0.035
	l-0.837,0.06l-0.741,0.069v0.017c-9.863,1.026-19.614,5.595-23.683,15.295c-0.776,1.75-1.173,3.337-1.38,4.828
	c-1,7.096,3.492,11.303,9.105,11.303c4.294,0,9.311-2.544,13.242-8.061c2.828-4.061,5.329-9.036,8.837-15.054
	C674.487,87.817,672.969,87.602,671.823,87.455 M712.81,75.496l0.077-0.534c0.224-4.725-5.371-7.363-10.286-7.363
	c-1.664,0-3.19,0.267-4.501,0.888c-0.939,0.432-1.414,0.698-1.466,1.052l1.017,0.871c2.776,1.397,3.647,3.337,3.216,6.397
	l-0.095,0.698c-0.302,2.112-0.75,4.13-1.31,6.234c-1.035,4.225-2.259,7.277-2.259,7.277c-4.026,11.234-11.785,21.485-27.65,25.175
	c-0.81,0.173-1.198,0.44-1.225,0.612c-0.034,0.259,0.285,0.44,1.25,0.44h0.181c21.597-0.181,30.004-10.087,34.978-21.132
	c1.768-3.819,3.638-9.036,3.638-9.036c0.216-0.802,0.405-1.552,0.604-2.311c0.293-1.155,0.578-2.276,0.897-3.388
	C710.879,77.945,712.448,78.04,712.81,75.496"/>
<path fill="#D67D80" d="M369.315,159.07l0.043,0.198c-1.259,1.793-3.25,3.509-6.216,3.509c-2.664,0-4.165-0.794-5.458-1.958
	c-1.534-1.379-2.25-3.794-2.25-5.63c0-2.043,0.673-4,2.13-5.587c1.129-1.207,2.914-2.207,5.423-2.207c1.905,0,3.448,0.586,4.199,1
	h0.422l0.164-0.543l0.327-0.12l0.302,0.336l0.492,4.337l-0.078,0.198l-0.396,0.129l-0.233-0.215c-0.242-0.75-0.75-1.785-1.621-2.699
	c-0.922-0.879-2-1.552-3.621-1.552c-3.337,0-4.716,3.009-4.716,6.001c0,1.302,0.379,3.759,1.922,5.423
	c1.371,1.457,2.578,1.63,3.587,1.63c2.285,0,4.095-1.147,4.975-2.423l0.25-0.138L369.315,159.07z"/>
<path fill="#D67D80" d="M376.251,157.84c0,2.121,1.526,3.379,2.716,3.379c1.285,0,2.078-0.551,2.517-1.216l0.25-0.104l0.31,0.19
	v0.414c-0.439,0.794-1.5,2.216-3.785,2.216c-1.345,0-2.276-0.302-3.009-1.129c-0.957-1.104-1.164-2.147-1.164-3.44
	c0-1.147,0.121-1.914,1.017-3.087c0.879-1.121,1.811-1.543,3.63-1.543c2.38,0,3.147,2.483,3.147,3.337l-0.586,0.336h-5.044V157.84z
	 M378.838,156.443l0.689-0.293c0-0.62-0.207-1.853-1.293-1.853c-1.018,0-1.647,0.75-1.923,2.146H378.838z"/>
<path fill="#D67D80" d="M389.093,153.69l0.414-0.172l0.25,0.258l0.173,1.087h0.112l1.043-0.837l1.673-0.508l1.836,0.508
	c0.914,0.664,1.147,1.285,1.147,2.147v3.001l-0.017,2l0.491,0.586h0.586l0.25,0.138v0.483l-0.173,0.138
	c-0.155,0-0.785-0.052-2.242-0.052c-1.259,0-1.922,0.052-2.052,0.052l-0.155-0.242v-0.354l0.242-0.164h0.423l0.37-0.5
	c0.069-0.552,0.086-1.13,0.086-1.966v-2.397c0-0.836-0.043-1.371-0.543-1.793l-1.25-0.37l-1.336,0.543l-0.431,1.474v4.302
	l0.388,0.707h0.379l0.207,0.181v0.379l-0.164,0.198c-0.121,0-0.716-0.052-1.958-0.052c-1.302,0-1.965,0.052-2.086,0.052
	l-0.129-0.198v-0.397l0.207-0.164h0.423l0.543-0.423v-4.69l-0.879-1.207l-0.164-0.086l-0.172-0.207v-0.172l0.207-0.198
	L389.093,153.69z"/>
<path fill="#D67D80" d="M401.402,154.92l-0.285-0.293l0.396-0.396c0.578-0.207,2.389-1.75,2.854-2.621l0.327-0.207l0.25,0.284
	l-0.086,2.061h2.759l0.138,0.173l-0.207,0.871l-0.207,0.129h-2.526c-0.035,0.88-0.052,1.88-0.052,2.794v1.88
	c0,1.621,0.681,1.957,1.104,1.957l1.199-0.25l0.258,0.034l0.121,0.25l-0.086,0.302c-0.293,0.207-1.164,0.828-2.621,0.828
	c-1.25,0-2.19-1-2.19-1.871c0-0.75,0.069-2.423,0.069-3.216v-2.707H401.402z"/>
<path fill="#D67D80" d="M416.619,161.445c-0.465,0.5-1.009,0.854-1.81,1.121l-1.345,0.146c-0.759,0-1.44-0.62-1.44-1.793
	c0-0.957,0.422-1.889,1.922-2.561c1.293-0.629,2.086-0.957,2.544-1.293v-1.086l-0.336-1.164l-1.035-0.31l-1.216,0.37l-0.086,1.018
	c0,0.75-0.37,1.216-1.241,1.216l-0.707-0.707l0.948-1.707c0.879-0.664,2.009-1.172,3.379-1.172c1.173,0,1.552,0.25,1.914,0.586
	l0.5,1.561l0.052,3.293v1c0,1.129,0.164,1.457,0.535,1.457l0.673-0.328l0.207-0.086l0.242,0.173l0.043,0.328
	c-0.198,0.379-0.707,1.207-1.905,1.207c-0.793,0-1.457-0.379-1.759-1.267H416.619z M416.49,157.841
	c-0.914,0.578-2.294,0.931-2.294,2.457c0,0.854,0.457,1.276,0.966,1.276l1.328-1.009V157.841z"/>
<path fill="#D67D80" d="M431.056,161.301h-0.129c-0.448,0.75-1.664,1.414-2.751,1.414c-0.75,0-1.414,0-2.146-0.914
	c-0.75-0.983-0.768-1.759-0.768-2.923c0-0.992,0.017-1.707,0.017-2.147l-0.043-1.5l-0.724-0.75l-0.457-0.173v-0.37l0.25-0.164h2.5
	l0.31-0.043l0.224-0.043l0.216,0.25c0,0.215-0.086,1.163-0.086,2.604v1.302c0,0.827-0.147,2.241,0.423,3.121l1.328,0.577
	l1.457-0.785l0.233-0.673v-4.897l-0.897-0.707l-0.414-0.173v-0.37l0.241-0.164h2.587l0.362-0.043l0.267-0.043l0.164,0.216
	c0,0.207-0.121,0.75-0.121,2.811v1.5c0,1,0,2,0.043,2.414l0.457,0.707l0.664-0.035l0.25,0.078l0.061,0.336l-0.103,0.181
	l-2.578,0.733l-0.414,0.086l-0.293-0.25L431.056,161.301z"/>
<path fill="#D67D80" d="M440.082,157.109c0-0.957-0.173-1.293-0.794-1.621l-0.379-0.215l-0.164-0.164v-0.129l0.164-0.19l2.517-1.181
	l0.336-0.086l0.19,0.25l0.189,1.5h0.086c0.707-1.164,1.587-1.88,2.5-1.88l1.078,1.043l-1.12,1.13l-0.716-0.164l-0.578-0.172
	l-0.879,0.612l-0.25,1.017v4.018l0.586,0.879h0.922l0.164,0.147v0.474l-0.146,0.147c-0.147,0-1.061-0.061-2.587-0.061
	c-1.457,0-2.268,0.061-2.431,0.061l-0.155-0.147v-0.448l0.198-0.173h0.724l0.544-0.56V157.109z"/>
<path fill="#D67D80" d="M450.868,149.817c-0.198-0.129-1.078-0.293-1.078-1.336l1.163-1.086c0.828,0,1.793,0.715,1.793,2
	c0,2.086-1.914,3.423-2.25,3.586l-0.509,0.216l-0.198-0.173l0.198-0.293c0.345-0.284,1.173-1.328,1.173-2.336L450.868,149.817"/>
<path fill="#D67D80" d="M454.597,159.837l0.069-0.172l0.396-0.112l0.181,0.061l0.69,1.163c0.371,0.629,0.776,1.121,1.793,1.121
	c0.81,0,1.483-0.492,1.483-1.267c0-0.836-0.543-1.207-2-1.63c-1.414-0.414-2.543-1.121-2.543-2.595c0-0.922,0.336-1.673,1.06-2.19
	c0.733-0.509,1.31-0.69,2.173-0.69c1.017,0,1.638,0.25,2.017,0.457l0.397,0.37l0.267,1.414l-0.026,0.242l-0.388,0.181l-0.164-0.086
	l-1-1.121l-1.319-0.646l-1.44,1.189c0,0.854,0.629,1.104,1.88,1.44c0.966,0.241,1.543,0.5,2.078,1.078l0.638,1.664
	c0,1.75-1.423,3.009-3.492,3.009c-1.104,0-2.018-0.354-2.242-0.543l-0.173-0.233L454.597,159.837z"/>
<path fill="#D67D80" d="M523.428,162.337l-2.854-7.32l-0.793-0.534h-0.354l-0.146-0.147v-0.457l0.164-0.173
	c0.25,0,0.664,0.069,2.173,0.069c0.991,0,1.5-0.069,1.793-0.069l0.164,0.173v0.457l-0.164,0.147h-0.207l-0.216,0.483l1.5,4.871
	h0.129l1.621-4.087l-0.164-0.931l-0.543-0.207h-0.224l-0.155-0.146V154l0.198-0.164c0.138,0,0.802,0.061,2.147,0.061
	c0.957,0,1.414-0.061,1.578-0.061l0.207,0.164v0.44l-0.164,0.172h-0.336l-0.285,0.475l1.543,4.509h0.077l1.38-3.785
	c0.328-0.914,0.077-1.328-0.423-1.328h-0.285l-0.129-0.147v-0.457l0.164-0.173c0.129,0,0.75,0.069,1.759,0.069
	c0.914,0,1.285-0.069,1.492-0.069l0.172,0.155v0.448l-0.155,0.173h-0.31l-0.794,0.353l-3.19,7.673l-0.431,0.267l-0.414-0.44
	l-2.095-5.621h-0.112l-2.423,5.707l-0.5,0.354L523.428,162.337"/>
<path fill="#D67D80" d="M545.724,154.751c0.982,0.983,1.44,2.061,1.44,3.294c0,1.172-0.5,2.293-1.293,3.173
	c-0.854,0.949-2.104,1.5-3.5,1.5c-1.31,0-2.44-0.379-3.371-1.5c-0.922-1.086-1.129-1.965-1.129-3.233c0-1,0.491-2.457,1.75-3.457
	c1.017-0.837,2.103-1.009,2.966-1.009C543.974,153.518,545.016,154.062,545.724,154.751 M544.62,157.984
	c0-2.293-1.207-3.629-2.164-3.629l-1.31,0.569c-0.655,0.724-0.906,1.604-0.906,3.121c0,1.207,0.086,2,0.647,2.897
	c0.354,0.56,0.819,0.897,1.656,0.897C543.913,161.838,544.62,160.105,544.62,157.984"/>
<path fill="#D67D80" d="M553.166,157.109c0-0.957-0.173-1.293-0.794-1.621l-0.379-0.215l-0.164-0.164v-0.129l0.164-0.19l2.526-1.181
	l0.327-0.086l0.198,0.25l0.181,1.5h0.086c0.707-1.164,1.587-1.88,2.5-1.88l1.078,1.043l-1.12,1.13l-0.707-0.164l-0.586-0.172
	l-0.879,0.612l-0.242,1.017v4.018l0.578,0.879h0.922l0.164,0.147v0.474l-0.146,0.147c-0.147,0-1.061-0.061-2.587-0.061
	c-1.457,0-2.268,0.061-2.431,0.061l-0.155-0.147v-0.448l0.198-0.173h0.724l0.544-0.56V157.109z"/>
<path fill="#D67D80" d="M564.061,157.109c0-0.957-0.173-1.293-0.794-1.621l-0.379-0.215l-0.155-0.164v-0.129l0.155-0.19l2.526-1.181
	l0.327-0.086l0.198,0.25l0.181,1.5h0.086c0.707-1.164,1.587-1.88,2.5-1.88l1.087,1.043l-1.129,1.13l-0.707-0.164l-0.578-0.172
	l-0.879,0.612l-0.25,1.017v4.018l0.578,0.879h0.922l0.164,0.147v0.474l-0.138,0.147c-0.155,0-1.069-0.061-2.586-0.061
	c-1.466,0-2.276,0.061-2.44,0.061l-0.146-0.147v-0.448l0.189-0.173h0.733l0.535-0.56V157.109z"/>
<path fill="#D67D80" d="M574.914,156.531c0-0.638-0.121-1.043-1.078-1.302l-0.207-0.181v-0.233l0.138-0.164l2.716-1l0.5-0.129
	l0.164,0.25c-0.043,0.336-0.043,1.673-0.043,3.397v2.259c0,0.785,0,1.535,0.043,1.793l0.336,0.535h0.836l0.207,0.146v0.423
	l-0.173,0.198c-0.164,0-1.121-0.061-2.526-0.061c-1.198,0-1.991,0.061-2.242,0.061l-0.172-0.198v-0.396l0.215-0.173h0.914
	l0.328-0.423l0.043-1.871V156.531z M575.63,151.375l-1.268-1.163c0-0.604,0.552-1.173,1.388-1.173c0.828,0,1.233,0.613,1.233,1.087
	C576.983,150.737,576.561,151.375,575.63,151.375"/>
<path fill="#D67D80" d="M584.982,157.84c0,2.121,1.526,3.379,2.716,3.379c1.285,0,2.078-0.551,2.517-1.216l0.25-0.104l0.31,0.19
	v0.414c-0.439,0.794-1.5,2.216-3.794,2.216c-1.336,0-2.268-0.302-3-1.129c-0.957-1.104-1.172-2.147-1.172-3.44
	c0-1.147,0.129-1.914,1.026-3.087c0.879-1.121,1.811-1.543,3.621-1.543c2.388,0,3.155,2.483,3.155,3.337l-0.586,0.336h-5.044V157.84
	z M587.569,156.443l0.689-0.293c0-0.62-0.207-1.853-1.293-1.853c-1.018,0-1.656,0.75-1.923,2.146H587.569z"/>
<path fill="#D67D80" d="M595.442,159.837l0.069-0.172l0.396-0.112l0.181,0.061l0.69,1.163c0.371,0.629,0.767,1.121,1.793,1.121
	c0.81,0,1.474-0.492,1.474-1.267c0-0.836-0.535-1.207-1.992-1.63c-1.423-0.414-2.543-1.121-2.543-2.595
	c0-0.922,0.327-1.673,1.06-2.19c0.732-0.509,1.31-0.69,2.164-0.69c1.026,0,1.647,0.25,2.018,0.457l0.397,0.37l0.276,1.414
	l-0.026,0.242l-0.388,0.181l-0.173-0.086l-0.991-1.121l-1.319-0.646l-1.44,1.189c0,0.854,0.629,1.104,1.88,1.44
	c0.957,0.241,1.543,0.5,2.078,1.078l0.629,1.664c0,1.75-1.414,3.009-3.483,3.009c-1.104,0-2.018-0.354-2.242-0.543l-0.173-0.233
	L595.442,159.837z"/>
<path fill="#D67D80" d="M302.817,151.417c9.889-4.044,19.321-9.199,28.055-15.355c3.432-2.423,6.846-5.079,10.139-7.907l1.104-1.06
	c5.475-4.733,10.587-10.122,15.174-15.993l0.379-0.474l0.491-0.638l0.138-0.172c0.931-1.268,1.819-2.509,2.621-3.707l0.164-0.104
	l0.086-0.112c10.355-14.872,17.356-32.349,19.727-49.204c1.147-8.173,0.586-12.449-5.699-14.709
	c-1.345-0.569-1.638-0.854-1.698-0.948c0.043,0,0.276-0.491,2.06-1.233c1.612-0.819,3.621-1.207,6.191-1.207
	c6.449,0,14.295,3.113,17.847,7.096c1.293,1.457,1.897,2.914,1.75,4.241l-0.061,0.44c-0.276,1.94-0.922,2.811-1.664,3.837
	c-0.802,1.095-1.707,2.319-2.233,4.914c-0.267,1.285-0.569,2.552-0.871,3.802l-0.043,0.198
	c-3.802,21.063-17.037,42.953-36.306,60.085C342.873,138.579,322.551,148.563,302.817,151.417"/>
<path fill="#D67D80" d="M489.764,132.795c-10.777,0-19.511,11.157-19.511,24.908c0,7.121,2.345,13.545,6.095,18.08l1.569,0.052
	l3.302-3.302l0.138-1.345c-1.931-3.078-3.121-7.182-3.121-11.717c0-9.475,5.164-17.157,11.528-17.157
	c6.372,0,11.536,7.682,11.536,17.157c0,4.535-1.19,8.639-3.113,11.717l0.129,1.345l3.302,3.302l1.578-0.052
	c3.742-4.535,6.096-10.958,6.096-18.08C509.292,143.951,500.55,132.795,489.764,132.795 M472.779,158.134
	c0-0.828,0.673-1.509,1.509-1.509c0.836,0,1.509,0.681,1.509,1.509c0,0.845-0.673,1.517-1.509,1.517
	C473.452,159.651,472.779,158.979,472.779,158.134 M476.245,170.101c-0.837,0-1.509-0.681-1.509-1.518
	c0-0.845,0.673-1.517,1.509-1.517c0.845,0,1.517,0.673,1.517,1.517C477.762,169.42,477.09,170.101,476.245,170.101 M477.314,148.314
	c-0.845,0-1.517-0.69-1.517-1.518c0-0.845,0.673-1.518,1.517-1.518c0.837,0,1.509,0.673,1.509,1.518
	C478.823,147.624,478.151,148.314,477.314,148.314 M484.436,140.442c-0.845,0-1.517-0.681-1.517-1.509
	c0-0.837,0.673-1.518,1.517-1.518c0.837,0,1.518,0.681,1.518,1.518C485.953,139.761,485.272,140.442,484.436,140.442
	 M495.506,140.442c-0.837,0-1.518-0.681-1.518-1.509c0-0.837,0.681-1.518,1.518-1.518c0.836,0,1.517,0.681,1.517,1.518
	C497.023,139.761,496.343,140.442,495.506,140.442 M501.119,146.796c0-0.845,0.672-1.518,1.509-1.518
	c0.836,0,1.517,0.673,1.517,1.518c0,0.828-0.681,1.518-1.517,1.518C501.791,148.314,501.119,147.624,501.119,146.796
	 M503.688,170.101c-0.836,0-1.509-0.681-1.509-1.518c0-0.845,0.673-1.517,1.509-1.517s1.518,0.673,1.518,1.517
	C505.206,169.42,504.524,170.101,503.688,170.101 M505.654,159.651c-0.845,0-1.518-0.672-1.518-1.517
	c0-0.828,0.673-1.509,1.518-1.509c0.836,0,1.517,0.681,1.517,1.509C507.171,158.979,506.49,159.651,505.654,159.651"/>
</svg>
