<?xml version="1.0" encoding="utf-8"?>
<!-- Generator: Adobe Illustrator 27.0.1, SVG Export Plug-In . SVG Version: 6.00 Build 0)  -->
<svg version="1.1" id="레이어_1" xmlns="http://www.w3.org/2000/svg" xmlns:xlink="http://www.w3.org/1999/xlink" x="0px"
	 y="0px" viewBox="0 0 720 428.145" enable-background="new 0 0 720 428.145" xml:space="preserve">
<path fill="#C8BCB5" d="M444.056,162.79l-1.538,0.19l-6.607-3.778l0.645-4.518l-7.783,0.684l-2.336,0.209l-0.284,0.513l2.297,1.31
	c-0.779,4.727-1.993,9.283-3.664,13.649h-0.437l-1.556-1.31l-3.018,1.728l1.746,3.018l1.386-0.038l0.322,0.323
	c-1.936,4.328-4.328,8.41-7.099,12.207l-0.36-0.095l-0.665-1.291h-3.493v3.474l1.879,0.703l0.21,0.379
	c-2.981,3.664-6.341,7.005-9.986,9.986l-0.342-0.19l-0.722-1.917h-3.474v3.455l1.234,0.684l0.114,0.418
	c-2.448,1.784-5.031,3.417-7.688,4.86l3.018,7.024c2.335-1.215,4.594-2.62,6.777-4.063l1.803,6.683l-0.284,2.487l1.214,0.93
	l2.298,8.486l-9.777-9.758l1.898,4.405l-0.342,0.228l9.549,9.549l1.842-1.063l-3.36-12.415l0.304-2.487l-1.234-0.93l-2.013-7.423
	l4.424-3.417l6.682,3.854l0.607,1.443l2.449,0.323l11.181,6.455l1.481-1.5l-6.474-11.144l-0.323-2.449l-1.423-0.608l-3.873-6.644
	l3.417-4.423l7.423,1.974l0.969,1.233l2.468-0.323l12.454,3.342l1.025-1.823l-9.113-9.074l-0.987-2.297l-1.538-0.209l-5.391-5.391
	c0.779-1.708,1.519-3.436,2.164-5.201h7.631l1.234,0.93l2.316-0.949h12.89l0.532-2.012l-11.163-6.417L444.056,162.79
	 M421.257,203.15l0.341,2.468l1.444,0.607l4.384,7.594l-7.613-4.405l-0.589-1.423l-2.467-0.323l-6.018-3.474
	c2.505-2.183,4.86-4.518,7.043-7.005L421.257,203.15z M433.862,185.344l0.986,2.297l1.539,0.209l6.227,6.208l-8.506-2.278
	l-0.949-1.234l-2.487,0.323l-6.682-1.803c1.841-2.733,3.512-5.6,4.993-8.581L433.862,185.344z M443.354,171.029l-1.234-0.93
	l-2.316,0.93h-6.91c1.062-3.094,1.918-6.302,2.582-9.586l5.961,3.436l1.538,1.955l1.556-0.171l7.613,4.366H443.354z"/>
<path fill="#C8BCB5" d="M275.818,129.861l1.538-0.209l6.588,3.797l-0.627,4.442l6.17-0.532l1.386-0.133l0.227-0.019l2.373-0.19
	l0.247-0.474l-2.297-1.31c0.759-4.708,2.013-9.264,3.664-13.63h0.418l1.575,1.31l3.018-1.728l-1.746-3.037l-1.404,0.057
	l-0.304-0.323c1.936-4.328,4.309-8.429,7.081-12.225l0.36,0.114l0.684,1.272h3.493v-3.474l-1.879-0.702l-0.21-0.38
	c2.981-3.645,6.322-7.005,9.986-9.986l0.323,0.209l0.721,1.917h3.475v-3.474l-1.215-0.684l-0.114-0.418
	c3.797-2.752,7.878-5.125,12.187-7.062l1.879,1.86l0.076-0.076l-0.74-2.335l-2.335-7.328l-2.544,1.101l-5.391-5.372l-0.227-1.538
	l-2.298-0.968l-9.093-9.093l-1.823,1.063l3.36,12.396l-0.304,2.487l1.215,0.949l1.993,7.347l-4.461,3.436l-6.625-3.797l-0.608-1.443
	l-2.448-0.323L290,74.902l-1.481,1.481l6.455,11.163l0.342,2.449l1.423,0.589l3.835,6.606l-3.455,4.462l-7.366-1.956l-0.949-1.233
	l-2.468,0.304l-12.454-3.323l-1.025,1.823l9.093,9.074l0.987,2.278l1.538,0.228l5.391,5.353c-0.797,1.708-1.518,3.455-2.183,5.24
	h-7.613l-1.234-0.93l-2.315,0.93l-12.872,0.019l-0.532,2.012l11.144,6.417L275.818,129.861 M315.419,75.567l0.285-2.487l-1.214-0.95
	l-2.279-8.486l6.208,6.208l0.228,1.538l2.297,0.987l4.841,4.841c-2.98,1.462-5.847,3.133-8.562,4.955L315.419,75.567z
	 M298.618,89.482l-0.341-2.449l-1.444-0.607l-4.404-7.613l7.613,4.423l0.608,1.423l2.448,0.323l5.98,3.436
	c-2.487,2.184-4.821,4.518-7.005,7.005L298.618,89.482z M286.014,107.308l-0.987-2.297l-1.539-0.228l-6.227-6.189l8.486,2.259
	l0.969,1.234l2.487-0.304l6.625,1.765c-1.841,2.734-3.493,5.62-4.974,8.581L286.014,107.308z M276.522,121.622l1.233,0.93
	l2.316-0.949h6.854c-1.064,3.113-1.918,6.303-2.563,9.568l-5.923-3.417l-1.538-1.956l-1.556,0.19l-7.613-4.367H276.522z"/>
<path fill="#C8BCB5" d="M321.996,219.148l-9.796,9.852l2.278-8.505l1.214-0.949l-0.304-2.487l1.804-6.682
	c2.183,1.481,4.479,2.847,6.834,4.081l3.018-7.024c-2.715-1.462-5.296-3.113-7.746-4.898l0.076-0.379l1.291-0.665V198h-3.493
	l-0.702,1.879l-0.36,0.228c-3.664-3-7.024-6.341-9.986-10.024l0.19-0.323l1.918-0.702v-3.493h-3.475l-0.664,1.234l-0.418,0.114
	c-2.752-3.797-5.125-7.898-7.081-12.207l0.304-0.304l1.444,0.057l1.746-3.018l-3-1.747l-1.556,1.272h-0.494
	c-1.652-4.347-2.867-8.903-3.627-13.612l2.278-1.329l-0.265-0.455l-3.929-0.361l-6.17-0.531l0.626,4.461l-6.606,3.816l-1.538-0.171
	l-1.557,1.955l-11.125,6.435l0.532,2.05l12.871-0.038l2.316,0.93l1.234-0.93l7.613-0.019c0.665,1.765,1.404,3.493,2.183,5.201
	l-5.41,5.391l-1.538,0.228l-0.969,2.297l-9.112,9.093l1.062,1.842l12.397-3.36l2.487,0.304l0.969-1.234l7.404-1.993l3.397,4.442
	l-3.834,6.664l-1.424,0.589l-0.342,2.449l-6.454,11.181l1.499,1.481l11.143-6.474l2.449-0.323l0.607-1.423l6.645-3.873l4.441,3.417
	l-1.993,7.423l-1.214,0.969l0.284,2.467l-3.322,12.454l1.823,1.025l9.53-9.549l-0.323-0.228L321.996,219.148z M280.079,171.005
	l-2.335-0.93l-1.234,0.93l-8.771,0.019l7.594-4.385l1.557,0.189l1.538-1.974l5.96-3.455c0.665,3.265,1.519,6.474,2.563,9.586
	L280.079,171.005z M289.191,190.824l-2.487-0.284l-0.967,1.215l-8.468,2.297l6.208-6.227l1.538-0.209l0.987-2.297l4.86-4.879
	c1.5,2.981,3.133,5.847,4.974,8.6L289.191,190.824z M303.088,207.644l-2.449,0.342l-0.589,1.424l-7.631,4.404l4.423-7.613
	l1.424-0.589l0.342-2.468l3.436-5.999c2.203,2.487,4.557,4.822,7.024,7.005L303.088,207.644z"/>
<path fill="#C8BCB5" d="M385.63,156.997c11.448,5.126,22.421,10.024,22.609,10.024l-7.783-9.625l-13.649-4.006l0.265-0.968
	l13.934,3.949l109.576-10.081l-109.576-10.081l-13.934,3.949l-0.247-0.968l13.631-3.986l7.783-9.644
	c-0.189,0-11.162,4.898-22.609,10.024c-1.86-4.442-4.86-8.296-8.618-11.239l9.264-17.123l-2.6-12.112
	c-0.133,0.171-5.069,14.466-9.512,27.299l-1.044-0.626l20.768-65.438l-12.035-17.807l-10.347,82.447l-1.423-0.588l10.137-101.28
	L359.925,0l-20.275,19.117l10.137,101.28l-1.404,0.588l-10.366-82.447l-12.035,17.807l20.768,65.438l-1.064,0.645l-9.492-27.318
	l-2.6,12.112l9.282,17.105c-3.777,2.942-6.777,6.796-8.618,11.257c-11.466-5.125-22.458-10.024-22.629-10.024l7.764,9.644
	l13.649,3.986l-0.247,0.968l-13.953-3.949L210.769,146.29l108.075,10.081l13.953-3.949l0.247,0.968l-13.649,4.006l-7.764,9.625
	c0.171,0,11.163-4.898,22.629-10.024c2.164,5.22,5.904,9.644,10.593,12.681l-22.99,53.421l12.245,8.277l17.731-58.451l1.158,0.284
	l-17.2,59.173l3.949,9.055l20.18,186.707l20.218-186.707l3.949-9.055l-17.218-59.173l1.139-0.284l17.73,58.451l12.265-8.277
	l-23.009-53.421C379.706,166.641,383.428,162.217,385.63,156.997 M400.171,143.538l2.772,2.752l-2.772,2.752l-2.752-2.752
	L400.171,143.538 M319.699,149.042l-2.773-2.752l2.773-2.752l2.752,2.752L319.699,149.042"/>
<path fill="#C8BCB5" d="M392.059,76.243l-2.62-1.139l-2.316,7.29l-0.74,2.373l0.133,0.133l1.879-1.918
	c4.328,1.974,8.41,4.347,12.207,7.081l-0.115,0.418l-1.291,0.684v3.493h3.475l0.721-1.879l0.399-0.247
	c3.645,2.981,6.987,6.341,9.967,10.005l-0.19,0.342l-1.936,0.702v3.493h3.474l0.665-1.234l0.436-0.114
	c2.753,3.816,5.126,7.898,7.062,12.207l-0.304,0.323l-2.05,0.171l-0.892,3.36l3.36,0.911l0.967-1.025h0.455
	c1.652,4.367,2.905,8.903,3.645,13.631l-2.259,1.31l0.21,0.399l2.353,0.209l7.803,0.684l-0.627-4.423l6.588-3.797l1.556,0.19
	l1.538-1.955l11.144-6.454l-0.552-2.031l-12.851,0.019l-2.336-0.93l-1.234,0.949h-7.593c-0.645-1.765-1.367-3.493-2.164-5.22
	l5.373-5.372l1.538-0.228l0.987-2.297l9.093-9.112l-1.045-1.803l-12.434,3.341l-2.468-0.285l-0.949,1.215l-7.347,1.993l-3.455-4.48
	l3.835-6.606l1.424-0.608l0.322-2.449l6.435-11.162l-1.481-1.481l-11.143,6.435l-2.448,0.361l-0.608,1.423l-6.569,3.816
	l-4.479-3.436l1.955-7.366l1.234-0.95l-0.322-2.487l3.34-12.435l-1.823-1.044l-9.074,9.112l-2.298,0.987l-0.209,1.538
	L392.059,76.243z M439.784,121.634l2.336,0.93l1.234-0.93l8.789-0.038l-7.613,4.423l-1.556-0.19l-1.538,1.974l-5.923,3.418
	c-0.645-3.266-1.499-6.474-2.544-9.568L439.784,121.634z M430.691,101.795l2.488,0.304l0.949-1.215l8.467-2.278l-6.207,6.208
	l-1.539,0.209l-0.968,2.316l-4.841,4.822c-1.481-2.961-3.132-5.828-4.955-8.562L430.691,101.795z M416.795,85.013l2.43-0.36
	l0.608-1.424l7.593-4.404l-4.384,7.613l-1.444,0.607l-0.322,2.449l-3.437,5.98c-2.183-2.487-4.518-4.84-7.004-7.024L416.795,85.013z
	 M405.386,72.142l-1.215,0.969l0.304,2.487l-1.784,6.588c-2.715-1.803-5.6-3.474-8.562-4.936l4.821-4.841l2.298-0.987l0.209-1.538
	l6.208-6.227L405.386,72.142z"/>
<path d="M710.318,176.636c-1.841,2.752-3.834,4.993-5.922,6.986h-27.242l28.912-27.584c3.912,0.057,5.848-0.304,7.879-1.044
	c-1.747-1.671-3.247-3.759-3.645-7.081c-0.36-2.696-0.38-5.791-0.399-8.505c-9.15,0.057-18.262,0.265-20.712-0.057l1.159,0.703
	l1.917,1.462c0.532,0.531,0.608,2.24,0.247,5.145c0,0-7.251,8.334-12.984,13.289l-0.456-0.133v-0.133h-0.132
	c-2.278-2.145-5.05-4.746-7.139-6.986c-1.823,2.752-3.834,5.012-5.904,6.986h-8.77v-1.803c2.923-4.879,4.346-5.885,6.472-8.182
	c-1.821-0.494-4.271-1.937-7.346-4.328c-2.487-1.918-5.6-3.892-8.106-5.885c-7.461,7.574-12.359,12.206-14.656,13.934l1.5-0.36
	l2.79-0.342c0.874,0,2.354,1.329,4.481,4.006v2.962v2.525v21.414v1.918v0.607h10.517c-3.949,4.006-9.283,8.922-13.46,11.884
	c-3.397-2.525-5.942-6.284-7.803-7.859c-1.538,1.538-4.536,4.157-7.328,7.043c-2.81,2.886-5.77,5.069-6.72,6.037
	c3.683-0.873,5.563,2.013,8.41,5.315c-10.289,9.473-19.116,13.517-29.615,15.662v2.867c13.821-1.633,19.459-2.715,29.141-7.328
	v29.653l-5.543,5.278v0.019h-0.038l12.492,11.751l14.257-11.637h24.887v-2.544h-31.911l-0.038-38.291
	c8.771-6.322,16.307-12.757,16.307-12.757h12.89c1.594,0.778,3.36,1.994,5.315,4.233v60.938c0,0-0.987,3.247-2.733,3.247h-4.746
	l15.207,13.535l11.865-11.125l-0.076-0.019l0.038-0.019l-5.733-5.676l0.019-60.919l1.348-3.303l2.886-3.057
	c-5.486-3.664-10.688-6.625-13.327-8.903c-1.518,1.538-3.057,2.715-6.245,5.145c-2.069,1.557-3.17,2.582-4.177,3.418h-8.675
	l14.865-12.587h12.415h29.255H720C717.115,183.869,713.299,179.863,710.318,176.636 M657.126,182.615v-20.407h20.445
	C673.072,167.448,664.928,175.554,657.126,182.615"/>
<path d="M219.589,304.027l-3.266-0.019l-1.936-1.879l-0.835-3.36l0.267-1.974l1.443-1.993l3.759-0.342l0.854,0.569l0.589,0.665
	l0.74,1.879l0.076,0.285h1.082l-0.058-0.532l-0.304-2.126l-0.417-2.012l-0.057-0.379h-0.874l-0.152,0.209l-0.835,0.019l-2.297-0.474
	l-2.753,0.588l-2.848,2.297l-1.158,4.063c0,2.183,0.797,3.701,2.126,5.011l4.347,1.785l3.587-1.12l1.974-3.038l-1.518,0.019
	L219.589,304.027"/>
<polygon points="242.595,294.425 243.449,294.539 243.905,294.596 244.075,296.722 244.075,298.734 238.665,298.734 
	238.665,296.722 238.836,294.596 239.311,294.539 239.918,294.425 239.918,293.134 234.565,293.134 234.565,294.425 
	235.381,294.539 235.855,294.596 236.007,296.722 236.007,302.379 235.855,304.505 235.381,304.563 234.565,304.657 
	234.565,305.967 239.918,305.967 239.918,304.676 239.311,304.563 238.836,304.487 238.665,302.379 238.665,300.272 
	244.075,300.272 244.075,302.379 243.905,304.505 243.449,304.563 242.595,304.657 242.595,305.967 248.499,305.967 
	248.499,304.657 247.379,304.563 246.905,304.505 246.733,302.379 246.733,296.722 246.905,294.596 247.36,294.539 248.499,294.444 
	248.499,293.134 242.595,293.134 "/>
<path d="M296.499,293.994l-4.006-1.177l-3.55,0.949l-2.772,2.923l-0.702,2.981c0,2.107,0.892,3.854,2.638,5.145l4.442,1.481
	l2.923-0.626l2.885-2.202l1.367-3.759l-0.664-2.828L296.499,293.994 M296.043,302.081l-1.14,1.747l-2.41,1.063l-1.367-0.284
	l-1.272-1.025l-1.158-3.911l1.063-3.873l2.734-1.575l2.81,1.348l1.271,3.721L296.043,302.081"/>
<path d="M320.737,294.442l0.967,0.152l0.265,0.076c0.058,0.076,0.267,0.494,0.267,2.677l-0.076,4.044
	c-1.823-1.937-4.214-4.67-7.176-8.125l-0.133-0.133h-3.929v1.309l0.437,0.019l0.911,0.19l0.797,0.589l0.76,0.835l0.247,0.36
	l0.057,0.456l-0.02,1.101l-0.094,4.879l-0.399,1.557l-1.064,0.209h-0.455v1.329h5.163v-1.291l-0.569-0.057l-0.494-0.076
	l-0.267-0.152l-0.17-0.569l-0.057-1.519v-0.702l0.075-3.265l5.923,6.664l0.817,1.044l0.132,0.228h1.159v-0.455l-0.02-1.367
	l0.02-0.74l0.057-4.917l0.114-2.752l0.171-1.253l0.057-0.133l0.569-0.057l0.703-0.133l0.587-0.038v-1.291h-5.333V294.442z"/>
<path d="M348.537,293.994l-4.006-1.177l-3.55,0.949l-2.772,2.923l-0.702,2.981c0,2.107,0.892,3.854,2.638,5.145l4.442,1.481
	l2.942-0.626l2.886-2.202l1.348-3.759l-0.645-2.828L348.537,293.994 M348.081,302.081l-1.12,1.747l-2.43,1.063l-1.367-0.284
	l-1.272-1.025l-1.158-3.911l1.063-3.873l2.734-1.575l2.81,1.348l1.271,3.721L348.081,302.081"/>
<path d="M368.438,297.911l-1.576-1.12l-0.362-1.518l0.362-0.551l1.386-0.55l1.443,0.645l0.532,1.025l0.342,1.576l0.075,0.341h1.044
	v-4.765h-1.025l-0.132,0.189l-0.076,0.057l-0.19-0.038l-3.512-0.494l-1.423,0.779l-1.215,2.05c-0.285,2.468,1.538,3.208,2.81,4.044
	l3.057,3.246l-0.513,1.386l-1.823,0.551l-2.011-1.063l-1.044-1.823l-0.305-0.987l-0.949,0.019l0.02,5.125l1.119-0.019l0.115-0.36
	l0.152-0.361l0.607,0.019l2.392,0.968l3.664-1.12l1.234-2.923l-1.176-2.335L368.438,297.911"/>
<polygon points="434.826,294.461 435.262,294.461 436.136,294.519 436.364,294.651 436.572,296.455 436.572,300.214 436.249,302.53 
	435.262,303.745 432.13,304.01 431.295,303.137 430.934,300.764 430.934,296.721 431.086,294.594 431.541,294.538 432.547,294.443 
	432.547,293.133 426.567,293.133 426.567,294.443 427.593,294.538 428.068,294.594 428.219,296.721 428.219,300.157 
	428.353,302.207 430.289,305.51 432.984,306.288 436.154,305.282 438.072,302.15 438.205,299.986 438.205,296.151 438.28,294.708 
	438.395,294.556 439.135,294.461 439.572,294.461 440.028,294.461 440.028,293.133 434.826,293.133 "/>
<polygon points="461.615,302.47 460.685,304.084 459.374,304.444 456.926,304.444 456.432,304.388 456.261,302.622 456.261,296.718 
	456.432,294.592 456.888,294.535 457.95,294.44 457.95,293.13 452.065,293.13 452.065,294.421 452.977,294.535 453.451,294.592 
	453.622,296.718 453.622,302.376 453.451,304.502 452.996,304.559 452.065,304.654 452.065,305.983 460.76,306.001 460.76,306.59 
	462.146,306.59 462.829,302.166 461.729,302.166 "/>
<polygon points="484.325,302.396 482.218,304.106 479.711,304.523 478.382,304.428 478.269,302.378 478.269,299.986 
	478.477,299.986 479.863,300.081 480.225,300.84 480.433,301.523 480.528,301.865 481.667,301.865 481.648,301.391 481.629,300.328 
	481.819,297.632 481.876,297.119 480.623,297.119 480.509,297.385 480.015,298.277 479.636,298.429 478.402,298.486 
	478.269,298.486 478.269,296.227 478.364,294.594 478.953,294.575 480.11,294.575 481.269,294.803 481.706,296.17 481.781,296.55 
	482.73,296.55 482.825,296.208 483.604,293.759 483.699,293.493 483.091,292.696 482.218,293.133 474.282,293.133 474.282,294.404 
	474.966,294.538 475.441,294.614 475.611,296.721 475.611,302.378 475.441,304.504 474.966,304.561 474.34,304.675 474.34,305.966 
	482.313,305.966 482.408,305.966 482.483,306.213 482.56,306.592 483.604,306.592 483.737,306.308 484.439,304.675 485.293,303.137 
	485.464,302.814 484.647,302.036 "/>
<path d="M271.016,302.903l-0.855-1.918l-0.587-0.93l-0.645-0.74l0.341-0.152l1.234-1.082l0.399-1.671l-1.518-2.639l-3.398-0.645
	h-4.955v1.291l0.949,0.114l0.475,0.057l0.17,2.126v5.657l-0.152,2.145l-0.475,0.057l-0.911,0.076v1.329h5.752v-1.329l-0.93-0.076
	l-0.474-0.057l-0.171-2.145v-2.791h0.038l0.797,0.095l0.457,0.304l0.399,0.588l0.587,1.576l0.76,1.803l0.892,1.177l2.905,1.158
	l1.955-0.019l0.02-1.329h-0.475C271.813,304.935,271.186,303.302,271.016,302.903 M267.048,297.853l-1.766,0.323l0.019-2.715
	l0.02-0.892l0.247-0.019l1.821,0.626l0.645,1.253L267.048,297.853"/>
<path d="M411.8,302.903l-0.854-1.918l-0.569-0.93l-0.645-0.74l0.341-0.152l1.215-1.082l0.417-1.671l-1.518-2.639l-3.417-0.645
	h-4.936v1.291l0.93,0.114l0.494,0.057l0.17,2.126v5.657l-0.152,2.145l-0.494,0.057l-0.892,0.076v1.329h5.752v-1.329l-0.93-0.076
	l-0.474-0.057l-0.171-2.145v-2.791h0.038l0.797,0.095l0.457,0.304l0.379,0.588l0.589,1.576l0.779,1.803l0.892,1.177l2.905,1.158
	l1.955-0.019l0.02-1.329h-0.475C412.617,304.935,411.99,303.302,411.8,302.903 M407.852,297.853l-1.786,0.323l0.02-2.715
	l0.038-0.892l0.247-0.019l1.821,0.626l0.645,1.253L407.852,297.853"/>
<path d="M506.441,302.903l-0.854-1.918l-0.589-0.93l-0.645-0.74l0.36-0.152l1.215-1.082l0.399-1.671l-1.499-2.639l-3.417-0.645
	h-5.278v1.291l1.272,0.114l0.494,0.057l0.17,2.126v5.657l-0.152,2.145l-0.494,0.057l-0.911,0.076v1.329h5.77v-1.329l-0.949-0.076
	l-0.475-0.057l-0.152-2.145v-2.791h0.038l0.779,0.095L502,299.98l0.379,0.588l0.589,1.576l0.759,1.803l0.912,1.177l2.905,1.158
	l1.936-0.019l0.038-1.329h-0.494C507.258,304.935,506.613,303.302,506.441,302.903 M502.494,297.853l-1.786,0.323l0.02-2.715
	l0.019-0.892l0.247-0.019l1.841,0.626l0.627,1.253L502.494,297.853"/>
<path d="M661.705,221.4c-4.025-3.606-6.285-5.638-6.778-6.018l-13.288,13.422l1.044-0.304l2.126-0.304
	c0.892,0,2.942,1.576,6.112,4.746c3.171,3.171,5.203,4.746,6.113,4.746c1.196,0,3.493-1.689,6.929-5.125
	c2.905-2.904,5.373-5.733,7.404-8.429l-1.519,0.361l-2.715,0.379C666.109,224.874,664.324,223.716,661.705,221.4"/>
<rect x="615.101" y="159.683" width="24.641" height="2.525"/>
<rect x="599.724" y="183.621" width="40.018" height="2.525"/>
<path d="M350.251,234.988c-0.969-0.835-0.21-5.847-0.266-8.201c-0.247-10.346-3.607-21.072-8.049-26.122
	c-4.347-4.917-12.642-10.365-24.432-8.695c-3.247,0.474-7.84,3.911-8.827,3.247c-1.671,1.841-28.476,29.899-30.887,32.481
	c1.291,1.177,0.075,8.865,4.821,14.447c2.848,3.379,7.119,4.86,9.093,6.891l14.978-14.447v-20.085l4.746-5.638h-2.867l-15.13,17.237
	l3.967,2.791v9.758c-2.885-0.285-5.145-1.405-6.264-2.126c-2.506-1.823-3.683-7.632-3.664-9.796
	c0.019-0.949-0.267-1.784,3.322-5.543c4.062-4.196,14.598-14.656,14.598-14.656l2.146-1.481l3.341-0.987l1.538-0.17l3.19-0.133
	h0.721c7.119,0,11.353,2.487,16.212,8.087c4.329,4.936,4.861,17.37,4.234,25.591c-0.247,3.17-1.766,6.701-5.81,11.181
	c-2.733,2.999-23.027,22.249-27.982,26.976c-2.962,2.829-3.834,3.341-3.834,3.341l4.461-0.019l3.493-3.057
	c3.474-3.17,26.501-24.774,31.684-29.767C345.714,239.411,348.998,236.241,350.251,234.988"/>
<path d="M49.624,191.2h0.019v-28.305l0.721-3.93l1.937-2.43c-4.462-2.98-8.429-5.79-12.075-8.903
	c-1.518,1.538-3.055,2.715-6.245,5.145c-2.297,1.747-6.15,4.157-7.746,5.031l1.974,0.57c2.221,0.721,5.031,1.993,7.271,4.556v29.368
	v37.455l-0.075,4.67c-2.316,1.614-8.448,5.145-9.055,5.126l-4.006-2.886l-0.057-0.095v-38.423l0.057-0.019v-5.923h10.669v-2.525
	H22.344v-46.169l1.348-3.322l3.967-2.81c-4.841-2.999-11.163-8.087-13.269-10.099c-1.689,1.86-3.569,3.645-6.625,6.53
	c-2.923,2.733-4.727,4.252-7.764,6.549c3.777-0.892,4.973,1.006,7.954,4.442v91.711l-6.056,5.03l0.038,0.038l11.41,10.593
	l8.505-6.53l13.896-8.581l8.125,6.303l11.333-7.651l-5.543-5.296L49.624,191.2z"/>
<rect x="55.644" y="149.279" width="15.472" height="2.525"/>
<rect x="52.093" y="171.643" width="19.022" height="2.525"/>
<rect x="54.923" y="193.664" width="41.498" height="2.525"/>
<path d="M69.181,140.403c0.872,0,2.353,1.329,4.461,4.025v4.86h-0.02v2.525h0.02v19.838h-0.02v2.506h27.223h28.552v-0.019h3.531
	c-2.885-2.24-6.702-6.264-9.662-9.492c-1.861,2.753-3.854,4.993-5.943,7.005H88.525v-19.838h8.562h-0.019h22.951
	c-2.905-2.278-6.702-6.264-9.682-9.511c-1.841,2.753-3.835,4.974-5.923,6.986H88.525v-3.721c2.923-4.86,4.309-5.885,6.454-8.182
	c-1.803-0.494-4.138-2.107-7.328-4.328c-3.247-2.259-5.62-3.872-8.106-5.885c-7.479,7.575-12.359,12.207-14.675,13.953l1.519-0.361
	L69.181,140.403"/>
<path d="M86.888,213.242l-1.634,0.418l-2.96,0.418c-1.102,0-3.057-1.253-5.905-3.778c-4.366-3.93-6.834-6.132-7.366-6.568
	l-14.428,14.617l1.12-0.342l2.316-0.342c0.987,0,3.189,1.728,6.644,5.183c3.437,3.436,5.658,5.145,6.645,5.145
	c1.291,0,3.816-1.841,7.518-5.581C82.027,219.241,84.703,216.185,86.888,213.242"/>
<path d="M123.316,186.676c-1.519,2.259-3.588,5.107-5.278,6.815l-4.309,0.057v-7.499l1.821-6.398l-9.035-4.442l-1.139-0.456
	l-0.57,0.684l-4.024,3.835l-0.987,0.74c-1.5,1.101-3.152,2.107-5.107,3.018c1.804,0.892,4.386,3.645,4.386,5.201l-0.019,5.43v2.525
	l-0.095,48.865c-1.12,2.601-6.227,7.669-8.011,7.537l-12.834-9.454l0.038,3.986l25.097,19.344l0.019-0.019l0.019,0.019
	l15.225-13.573l0.93-0.399l-5.713-4.974v-51.333h15.661v-0.019h3.607C130.111,193.928,126.296,189.904,123.316,186.676"/>
<rect x="535.253" y="149.279" width="29.957" height="2.525"/>
<path d="M533.019,238.468l-5.373-4.841l-0.019-14.181v-52.832l1.366-3.303l2.867-3.057c-5.467-3.664-10.042-6.625-12.699-8.903
	c-1.519,1.519-3.038,2.715-6.247,5.145l-2.81,1.974v-15.795v-3.683h16.232v-0.019h3.967c-2.867-2.24-6.702-6.264-9.682-9.492
	c-1.841,2.753-3.834,4.993-5.904,6.986h-43.436v2.525h23.635c-3.436,3.474-5.771,5.676-6.872,6.493l0.779-0.171l1.443-0.19
	l2.278,2.069v12.624c-4.651-3.247-8.58-6.454-10.916-8.467c-1.613,1.918-3.986,4.044-6.777,6.93c-2.79,2.885-5.011,4.879-6.644,6.15
	c3.797-0.892,4.973,1.025,7.935,4.423v64.052l-7.346,7.973l0.038,0.038l-0.038,0.019l13.498,11.96l12.434-11.504h17.048v-2.525
	h-19.079l-3.152-2.753v-11.561h24.87v6.264v3.607l-0.076,4.442l-0.038,2.525v0.076l8.505,6.587l10.479-9.435L533.019,238.468z
	 M507.372,138.992h2.487c-2.638,2.81-5.657,6.322-8.277,9.132l0.455-0.133l0.437-0.171l0.304,3.171v8.922h-2.942v-12.131l3.34-4.215
	l-3.759-2.221l-3-2.354H507.372z M489.603,167.582l1.366-3.303l1.576-1.557v38.386c0,1.025-0.987,2.962-2.942,5.714V167.582z
	 M514.415,222.009h-24.87v-9.606h0.058v-2.962c2.98-3.094,5.315-6.264,6.852-9.53c2.259-4.708,3.38-10.65,3.38-17.769v-19.724h2.942
	v38.215l-2.448,2.639c0.607,0.228,2.582,1.139,5.885,2.733c2.525,1.215,4.043,1.803,4.594,1.803l3.607-1.86V222.009z
	 M514.415,199.93l-0.38-0.209c-2.544-1.424-3.874-2.164-3.93-2.24v-34.114l4.31,3.284V199.93z"/>
<path d="M568.567,147.78l1.348,3.303v28.4l-2.81,4.442h-0.342v0.55v1.234v0.418v0.342v0.797l9.815,8.979l12.529-9.758h-0.038
	l-5.714-7.157v-26.957c2.98-3.417,4.176-5.334,7.954-4.442c-0.969-0.969-3.513-3.588-6.303-6.454
	c-2.79-2.886-4.974-5.107-6.512-6.626c-2.353,2.032-6.948,5.278-11.655,8.562h-0.076v0.038l-2.183,1.519l2.183,1.082L568.567,147.78
	"/>
<path d="M569.641,214.15l13.744,19.174c0,1.025-1.31,2.43-3.285,4.157c-1.974,1.708-3.493,3.095-5.391,4.708l-2.638,2.107h-16.782
	l-1.272-1.12l-3.417-3.835v-48.428c1.937-2.202,3.588-3.626,5.05-4.442h8.6v-2.544h-7.916c-1.024-1.025-2.316-2.354-3.986-4.081
	c-2.81-2.886-4.993-5.107-6.53-6.625c-2.658,2.259-7.385,5.24-12.89,8.922l2.905,3.094l1.348,3.303h0.019v51.921
	c0,1.728-1.803,4.291-5.163,7.632l-1.234,1.234c2.392,0.038,7.536,1.974,9.51,3.512c2.411,1.784,5.164,5.334,5.164,5.334
	s8.258-9.283,13.364-11.352h12.34l12.244,13.403l15.34-13.251l-25.174-32.899L569.641,214.15z"/>
<rect x="372.409" y="193.721" width="22.781" height="2.525"/>
<rect x="345.015" y="171.68" width="50.175" height="2.525"/>
<path d="M451.159,257.161c-1.462,0.76-5.639,0.304-9.797-1.253c-7.024-2.677-17.085-8.979-26.273-16.421
	c7.536-7.878,13.536-16.117,16.193-23.179c1.045-2.506,1.899-4.746,3-7.746l0.722-2.05c3.759-3.55,9.719-9.226,10.726-10.175
	l0.284-0.095l-8.96-9.093c-0.664,1.424-2.106,4.404-4.196,6.569h-20.275v-19.516h22.344h22.097h3.987
	c-2.886-2.259-6.702-6.264-9.682-9.511c-1.841,2.752-3.835,5.011-5.923,6.986h-32.823v-6.208c2.943-4.898,4.329-5.923,6.493-8.22
	c-1.842-0.475-4.291-1.898-7.347-4.291c-2.487-1.936-5.62-3.891-8.106-5.904c-7.479,7.575-12.377,12.226-14.675,13.953l1.519-0.361
	l2.79-0.379c0.874,0,2.336,1.367,4.462,4.024v6.17h0.019v1.215v2.525v19.516v1.936v0.589h32.975l-12.359,7.119
	c0,0-0.987,3.626-3.36,11.751c-1.348,4.575-4.442,10.537-8.581,16.782c-4.347-4.176-8.086-8.429-10.668-12.377
	c-8.752-13.46-9.948-18.111-9.948-18.111l-2.638-0.019c0,0,2.43,13.251,8.276,26.331c1.292,2.905,3.627,8.201,7.48,14.295
	c-9.17,11.276-20.636,21.736-30.432,25.248v2.335c10.081-1.652,23.711-9.777,35.823-20.009c3.34,4.196,7.404,8.467,12.32,12.359
	c0,0,14.181,9.397,20.73,16.82c3.607-3.911,27.337-29.102,27.337-29.102l-0.019-4.613
	C464.675,245.05,455.677,254.922,451.159,257.161"/>
<path d="M210.058,188.789l-5.544,5.278l9.758,7.669l9.606-6.53l0.038-7.024v-9.34h14.029v-2.525h-14.029v-9.758
	c1.955-2.221,4.328-3.455,6.397-4.214h7.669l-0.019-2.525h-7.384c-2.203-0.74-4.519-2.279-6.569-3.816
	c-3.19-2.411-4.576-3.208-6.095-4.746c-2.657,2.278-6.796,5.676-12.074,8.903l2.886,3.057l1.348,3.303v17.807L210.058,188.789z"/>
<path d="M168.94,178.537h14.01v9.093c-3.626,4.081-11.315,6.284-11.315,6.284c3.588,0.588,7.783,2.98,9.815,4.537
	c3.189,2.43,5.999,3.607,7.536,5.125c2.638-2.259,6.569-5.22,12.035-8.884l-2.867-3.075l-1.348-3.284v-17.807l0.02-9.681
	l5.562-5.278l-9.777-7.65l-9.606,6.511l-0.057,7.043v14.542h-14.01V178.537z"/>
<path d="M261.746,252.1l-6.17-5.638v-95.356c2.962-3.418,4.157-5.335,7.935-4.442c-2.05-1.652-12.055-10.821-13.744-13.061
	c-2.487,2.43-9.834,7.423-14.086,9.852l1.576,1.215l1.936,1.842l1.349,3.303v42.714h-13.973v2.525h13.973v10.023h0.057v38.556
	c0,2.031-5.183,8.637-7.328,8.486c-0.38-0.019-4.12-2.601-7.671-5.372l-0.095-6.265v-22.097c3.057-3.513,7.272-4.652,9.492-5.202
	c-2.638-1.234-4.955-2.62-8.845-5.03c-3.418-2.126-5.146-3.531-6.664-5.069c-2.221,1.917-6.967,5.353-11.296,8.334h-10.441v2.525
	h11.6l0.949,1.101l1.348,3.303v24.261v-2.467l-4.328,4.101h-9.663v2.525h10.157l8.03,6.303l7.669-4.006l23.123,17.237L261.746,252.1
	z"/>
<path d="M166.29,266.097l0.057-71.037v-2.525v-13.706v-2.506V162.35h14.01l-0.019-2.544h-13.991v-0.759l1.348-3.284l3.797-2.847
	c-5.031-2.848-11.695-8.069-14.068-10.081c-2.031,2.278-9.415,9.226-14.048,13.061c3.777-0.892,4.974,1.025,7.954,4.442v105.721
	l-6.227,6.151l0.038,0.038l-0.076,0.019l12.757,12.302l16.726-14.978h-5.449L166.29,266.097"/>
<path d="M195.228,244.85v-7.897v-2.525v-4.404h13.781V227.5h-13.781v-8.049l0.094-8.125l-8.505-6.569c0,0-2.315,2.184-5.467,4.31
	c-3.152,2.145-5.638,3.493-5.638,3.493l5.657,5.125l0.02,1.633v12.586v12.909c-3.057,3.512-7.252,4.632-9.492,5.183
	c2.088,1.12,4.024,1.955,7.518,4.613c3.189,2.43,5.98,3.607,7.518,5.126c2.335-1.974,5.713-4.537,10.213-7.613l1.804-1.215
	l-2.828-3.132L195.228,244.85"/>
</svg>
