<?xml version="1.0" encoding="utf-8"?>
<!-- Generator: Adobe Illustrator 27.1.1, SVG Export Plug-In . SVG Version: 6.00 Build 0)  -->
<svg version="1.1" id="레이어_1" xmlns="http://www.w3.org/2000/svg" xmlns:xlink="http://www.w3.org/1999/xlink" x="0px"
	 y="0px" viewBox="0 0 646.983 296.608" enable-background="new 0 0 646.983 296.608" xml:space="preserve">
<g>
	<rect x="169.97" y="42.278" fill="#0C4D98" width="94.062" height="33.223"/>
</g>
<g>
	<path fill="#0075C1" d="M312.679,292.331c-1.031,0.479-1.852,0.777-2.44,0.886l-1.75,0.189c-1.859,0-3.333-0.559-4.401-1.685
		c-1.075-1.104-1.619-2.651-1.619-4.626c0-1.961,0.552-3.493,1.648-4.655c1.082-1.126,2.527-1.692,4.372-1.692
		c1.445,0,2.818,0.327,4.19,1.017v2.498h-0.269c-1.278-1.089-2.476-1.619-3.602-1.619c-1.097,0-1.961,0.378-2.563,1.169
		c-0.654,0.77-0.958,1.866-0.958,3.282c0,1.402,0.327,2.484,0.973,3.246c0.625,0.77,1.496,1.14,2.556,1.14l1.648-0.29
		c0.523-0.196,1.184-0.639,1.961-1.322h0.254V292.331"/>
</g>
<g>
	<path fill="#0075C1" d="M323.971,293.151h-2.484v-4.655c0-1.307-0.145-2.12-0.436-2.433l-1.409-0.479
		c-0.537,0-1.191,0.24-1.939,0.719v6.848h-2.484v-12.708h2.484v4.662c0.777-0.639,1.401-1.06,1.852-1.264l1.452-0.305
		c1.983,0,2.963,1.169,2.963,3.471V293.151"/>
</g>
<g>
	<path fill="#0075C1" d="M334.893,293.151h-2.476v-1.3c-0.741,0.617-1.358,1.031-1.83,1.227l-1.481,0.341
		c-1.982,0-2.948-1.162-2.948-3.478v-6.136h2.476v4.662c0,1.3,0.153,2.113,0.443,2.425l1.387,0.465c0.545,0,1.213-0.225,1.954-0.733
		v-6.819h2.476V293.151"/>
</g>
<g>
	<rect x="337.536" y="286.725" fill="#0075C1" width="5.882" height="2.077"/>
</g>
<g>
	<path fill="#0075C1" d="M355.131,293.151h-9.172v-1.917c2.331-1.765,3.885-3.13,4.698-4.081c0.784-0.966,1.198-1.801,1.198-2.549
		l-0.574-1.372c-0.385-0.341-0.915-0.501-1.597-0.501c-1.024,0-2.092,0.37-3.195,1.104h-0.203v-2.331
		c1.322-0.508,2.6-0.777,3.812-0.777c1.445,0,2.563,0.341,3.341,0.951c0.777,0.625,1.162,1.496,1.162,2.643
		c0,0.864-0.334,1.801-0.944,2.774c-0.646,0.966-2.113,2.317-4.422,4.096h5.897V293.151"/>
</g>
<g>
	<path fill="#0075C1" d="M366.038,292.483l-0.152,0.668h-2.331v-12.715h2.476v4.618c0.704-0.61,1.321-1.009,1.779-1.213l1.423-0.312
		c1.097,0,1.954,0.428,2.549,1.285c0.588,0.85,0.886,2.026,0.886,3.558c0,1.496-0.363,2.701-1.126,3.645
		c-0.762,0.93-1.714,1.394-2.868,1.394C367.847,293.413,366.982,293.108,366.038,292.483 M366.031,286.122v5.17l1.51,0.312
		c1.721,0,2.578-1.06,2.578-3.152c0-2.012-0.726-3.006-2.157-3.006C367.367,285.447,366.735,285.679,366.031,286.122"/>
</g>
<g>
	<polyline fill="#0075C1" points="383.721,283.806 378.587,296.535 375.98,296.535 377.403,293.151 373.736,283.806 376.43,283.806 
		378.775,290.479 381.165,283.806 383.721,283.806 	"/>
</g>
<g>
	<path fill="#0075C1" d="M389.211,293.442c-1.511,0-2.68-0.436-3.522-1.314c-0.85-0.857-1.264-2.091-1.264-3.645
		c0-1.569,0.429-2.781,1.278-3.645c0.835-0.886,2.026-1.322,3.507-1.322c1.518,0,2.709,0.436,3.544,1.322
		c0.835,0.864,1.256,2.077,1.256,3.645c0,1.554-0.421,2.789-1.256,3.645C391.919,293.006,390.728,293.442,389.211,293.442
		 M389.211,285.236c-1.452,0-2.193,1.104-2.193,3.268c0,2.15,0.748,3.217,2.244,3.217c1.431,0,2.149-1.067,2.149-3.217
		C391.411,286.34,390.67,285.236,389.211,285.236"/>
</g>
<g>
	<path fill="#0075C1" d="M410.625,293.151h-2.476v-1.234c-0.814,0.661-1.423,1.075-1.83,1.242l-1.307,0.261
		c-1.082,0-1.924-0.443-2.556-1.314c-0.639-0.871-0.951-2.048-0.951-3.544c0-1.503,0.363-2.701,1.147-3.631
		c0.777-0.93,1.743-1.402,2.868-1.402l1.126,0.152c0.341,0.087,0.849,0.32,1.503,0.668v-3.914h2.476V293.151 M408.149,290.755
		v-5.069l-1.496-0.341c-1.721,0-2.6,1.031-2.6,3.152c0,1.06,0.182,1.815,0.537,2.287c0.356,0.487,0.929,0.712,1.678,0.712
		C406.828,291.496,407.474,291.234,408.149,290.755"/>
</g>
<g>
	<path fill="#0075C1" d="M422.027,288.845h-6.63c0.116,1.888,1.191,2.818,3.217,2.818c1.038,0,2.099-0.378,3.166-1.14h0.094v2.149
		c-1.256,0.479-2.447,0.733-3.573,0.733c-1.75,0-3.086-0.414-4.023-1.256c-0.908-0.85-1.372-2.048-1.372-3.609
		c0-1.561,0.421-2.796,1.307-3.689c0.864-0.893,2.084-1.336,3.616-1.336c2.803,0,4.197,1.481,4.197,4.466V288.845 M419.55,287.444
		c-0.036-1.598-0.661-2.404-1.954-2.404c-1.365,0-2.099,0.806-2.2,2.404H419.55z"/>
</g>
<g>
	<path fill="#0075C1" d="M438.765,293.151h-2.505v-4.684l-0.065-1.648l-0.508-0.973l-1.133-0.261c-0.421,0-1.024,0.24-1.794,0.712
		v6.855h-2.491v-4.684c0-0.675-0.029-1.213-0.094-1.67l-0.508-0.951l-1.118-0.261c-0.45,0-1.046,0.24-1.801,0.719v6.848h-2.454
		v-9.346h2.454v1.3c0.835-0.661,1.46-1.104,1.874-1.271l1.314-0.298c1.176,0,2.04,0.603,2.592,1.808
		c0.806-0.712,1.445-1.162,1.961-1.416l1.467-0.392c1.866,0,2.81,1.169,2.81,3.471V293.151"/>
</g>
<g>
	<path fill="#0075C1" d="M445.09,293.442c-1.503,0-2.687-0.436-3.529-1.314c-0.842-0.857-1.249-2.091-1.249-3.645
		c0-1.569,0.421-2.781,1.271-3.645c0.82-0.886,2.026-1.322,3.507-1.322c1.518,0,2.709,0.436,3.522,1.322
		c0.857,0.864,1.271,2.077,1.271,3.645c0,1.554-0.414,2.789-1.271,3.645C447.799,293.006,446.608,293.442,445.09,293.442
		 M445.09,285.236c-1.46,0-2.2,1.104-2.2,3.268c0,2.15,0.755,3.217,2.229,3.217c1.467,0,2.186-1.067,2.186-3.217
		C447.305,286.34,446.557,285.236,445.09,285.236"/>
</g>
<g>
	<polyline fill="#0075C1" points="469.076,293.151 465.779,293.151 461.785,288.105 460.885,289.128 460.885,293.151 
		458.227,293.151 458.227,280.973 460.899,280.973 460.899,286.776 465.75,280.973 468.865,280.973 463.877,286.638 
		469.076,293.151 	"/>
</g>
<g>
	<path fill="#0075C1" d="M475.779,293.42c-1.837,0-3.297-0.574-4.364-1.699c-1.046-1.14-1.583-2.672-1.583-4.64
		c0-1.975,0.537-3.544,1.583-4.662c1.046-1.133,2.484-1.692,4.364-1.692c1.866,0,3.326,0.559,4.372,1.692
		c1.068,1.14,1.583,2.687,1.583,4.662c0,1.961-0.515,3.5-1.569,4.633C479.104,292.846,477.645,293.42,475.779,293.42
		 M475.779,282.644c-0.951,0-1.707,0.385-2.287,1.169c-0.574,0.762-0.872,1.859-0.872,3.268s0.298,2.484,0.872,3.253
		c0.581,0.777,1.336,1.147,2.287,1.147c0.973,0,1.728-0.37,2.309-1.147c0.581-0.77,0.857-1.866,0.857-3.275
		c0-1.394-0.276-2.484-0.857-3.246C477.507,283.029,476.752,282.644,475.779,282.644"/>
</g>
<g>
	<polyline fill="#0075C1" points="490.36,293.151 483.723,293.151 483.723,291.336 485.705,291.336 485.705,282.782 
		483.723,282.782 483.723,280.973 490.36,280.973 490.36,282.782 488.37,282.782 488.37,291.336 490.36,291.336 490.36,293.151 	"/>
</g>
<g>
	<path fill="#0075C1" d="M505.632,292.084c0,1.554-0.392,2.68-1.169,3.428c-0.777,0.726-2.019,1.097-3.725,1.097
		c-1.097,0-2.193-0.131-3.275-0.37v-2.019h0.131c1.068,0.392,1.99,0.581,2.789,0.581c0.951,0,1.656-0.174,2.113-0.508
		c0.436-0.349,0.661-1.017,0.661-2.012v-0.508c-0.973,0.828-1.91,1.234-2.796,1.234c-2.571,0-3.856-1.598-3.856-4.786
		c0-1.402,0.356-2.534,1.111-3.384c0.755-0.864,1.706-1.3,2.854-1.3c0.93,0,1.801,0.29,2.636,0.864l0.181-0.588h2.346V292.084
		 M503.156,290.399v-4.713l-1.51-0.341c-1.721,0-2.563,0.995-2.563,2.948c0,0.973,0.167,1.707,0.53,2.142
		c0.334,0.443,0.893,0.639,1.641,0.639C501.841,291.075,502.473,290.857,503.156,290.399"/>
</g>
<g>
	<path fill="#0075C1" d="M516.532,293.151h-2.462v-1.227c-0.755,0.668-1.373,1.067-1.837,1.235l-1.503,0.254
		c-0.835,0-1.496-0.283-2.048-0.799c-0.516-0.53-0.799-1.213-0.799-2.062c0-1.053,0.392-1.852,1.191-2.404
		c0.806-0.53,2.491-0.871,5.025-1.024v-0.232l-0.603-1.285c-0.392-0.254-1.075-0.385-2.012-0.385c-0.624,0-1.532,0.225-2.709,0.726
		h-0.094v-1.968c1.242-0.29,2.382-0.45,3.391-0.45c1.569,0,2.709,0.247,3.406,0.762c0.705,0.523,1.053,1.314,1.053,2.433V293.151
		 M514.07,290.879v-2.36c-1.627,0.145-2.643,0.327-3.057,0.632l-0.603,1.162l0.436,1.118l1.336,0.312L514.07,290.879"/>
</g>
<g>
	<path fill="#0075C1" d="M523.387,292.708v-2.309h0.102c1.104,0.9,2.28,1.372,3.522,1.372c1.234,0,1.874-0.341,1.874-1.017
		l-0.291-0.632l-1.06-0.392l-1.489-0.319l-1.532-0.595l-0.799-0.922l-0.276-1.293c0-0.9,0.392-1.656,1.191-2.2
		c0.784-0.574,1.844-0.871,3.181-0.871c1.177,0,2.244,0.225,3.203,0.646v2.164h-0.087c-1.082-0.755-2.121-1.155-3.137-1.155
		l-1.307,0.29l-0.516,0.733l0.327,0.704l1.111,0.407l1.924,0.436c0.654,0.152,1.162,0.45,1.525,0.879
		c0.378,0.421,0.566,0.973,0.566,1.641c0,0.937-0.407,1.714-1.206,2.273c-0.806,0.566-1.91,0.871-3.282,0.871
		C525.602,293.42,524.396,293.173,523.387,292.708"/>
</g>
<g>
	<path fill="#0075C1" d="M542.304,293.151h-2.505v-4.655c0-1.307-0.16-2.12-0.436-2.433l-1.401-0.479
		c-0.544,0-1.191,0.24-1.946,0.719v6.848h-2.476v-12.708h2.476v4.662c0.777-0.639,1.402-1.06,1.852-1.264l1.467-0.305
		c1.975,0,2.97,1.169,2.97,3.471V293.151"/>
</g>
<g>
	<path fill="#0075C1" d="M548.099,282.629h-2.672v-2.193h2.672V282.629z M547.997,293.151h-2.455v-9.339h2.455V293.151z"/>
</g>
<g>
	<path fill="#0075C1" d="M557.162,293.108c-0.654,0.145-1.38,0.232-2.121,0.232c-1.126,0-1.917-0.232-2.462-0.719
		c-0.501-0.465-0.755-1.235-0.755-2.309v-4.873h-1.235v-1.634h1.249v-2.636h2.447v2.636h2.876v1.634h-2.876v3.856
		c0,0.988,0.145,1.619,0.392,1.924l1.285,0.465l1.126-0.276h0.073V293.108"/>
</g>
<g>
	<path fill="#0075C1" d="M568.025,293.151h-2.462v-1.227c-0.77,0.668-1.387,1.067-1.845,1.235l-1.503,0.254
		c-0.828,0-1.496-0.283-2.026-0.799c-0.537-0.53-0.821-1.213-0.821-2.062c0-1.053,0.4-1.852,1.191-2.404
		c0.792-0.53,2.476-0.871,5.018-1.024v-0.232l-0.603-1.285c-0.392-0.254-1.06-0.385-2.019-0.385c-0.625,0-1.532,0.225-2.694,0.726
		h-0.109v-1.968c1.249-0.29,2.382-0.45,3.406-0.45c1.583,0,2.708,0.247,3.413,0.762c0.712,0.523,1.053,1.314,1.053,2.433V293.151
		 M565.563,290.879v-2.36c-1.634,0.145-2.651,0.327-3.05,0.632l-0.61,1.162l0.429,1.118l1.322,0.312
		C564.314,291.743,564.939,291.459,565.563,290.879"/>
</g>
<g>
	<path fill="#0075C1" d="M573.827,282.629h-2.651v-2.193h2.651V282.629z M573.748,293.151h-2.484v-9.339h2.484V293.151z"/>
</g>
<g>
	<path fill="#0C4D98" d="M527.069,91.542l1.525,30.783l15.482-0.726c2.491,24.487,19.164,28.372,26.302,28.902
		c0.987,0.065,1.983,0.131,2.985,0.131c10.747,0,28.132-4.313,49.758-24.763l5.984-5.642l-18.881-23.398l-6.369,5.838l-0.683-14.269
		l-2.135,0.087l4.597-16.157l-18.307-4.822c0.966-2.157,1.612-3.507,1.707-3.754l4.248-8.809l-29.083-10.689l-3.464,7.414
		c-0.145,0.356-1.511,3.326-3.398,8.002l-16.005-4.255l-8.315,29.091l14.676,3.943c-0.211,0.762-0.407,1.51-0.574,2.229
		L527.069,91.542"/>
</g>
<g>
	<path fill="#FFFFFF" d="M532.079,96.103l1.053,21.204l15.41-0.712c0.537,23.84,13.928,28.524,22.185,29.142
		c0.857,0.051,1.75,0.102,2.621,0.102c9.898,0,26.019-4.067,46.519-23.448l2.738-2.592l-12.911-16.012l-3.203,2.956
		c-2.476,2.258-4.778,4.248-6.964,6.02l-0.893-19.374l-4.016,0.138l5.076-17.82l-18.99-4.996c2.302-5.417,4.016-8.983,4.045-9.026
		l1.939-4.067l-20.028-7.349l-1.576,3.406c-0.087,0.232-2.193,4.764-4.851,11.706l-15.591-4.139l-5.686,19.919l14.618,3.907
		c-0.922,3.268-1.866,6.739-2.643,10.254L532.079,96.103"/>
</g>
<g>
	<path fill="#106FB5" d="M571.032,141.649c-11.735-0.864-19.157-9.455-18.343-29.359l-15.656,0.748l-0.661-13.006l17.922-0.741
		c1.096-5.693,2.759-11.641,4.393-17.094l-14.669-3.921l3.449-12.047l15.308,4.081c3.217-8.859,6.027-14.887,6.027-14.887
		l12.258,4.495c0,0-2.716,5.563-5.947,13.558l19.491,5.127l-3.435,12.134l-20.326-5.374c-1.365,4.343-2.745,8.881-3.733,13.347
		l27.616-1.089l0.581,12.519l-29.999,1.503c-0.53,12.236,1.946,17.247,8.351,17.719c8.184,0.617,19.643-4.967,35.575-19.592
		l7.814,9.644C598.852,136.609,582.97,142.542,571.032,141.649"/>
</g>
<g>
	<path fill="#0C4D98" d="M447.661,87.41c-4.139,6.042-6.311,12.12-6.499,18.118c-0.465,16.216,11.191,28.168,40.23,41.276
		l7.429,3.34l15.17-27.188l-9.106-3.856c-22.468-9.477-23.114-13.115-23.136-13.246c0.022-0.733,1.169-4.357,5.824-8.707
		c0.886,2.454,2.251,4.713,4.059,6.623c2.789,2.956,6.347,4.887,10.29,5.592c0.603,2.818,1.939,5.41,3.972,7.545
		c2.876,3.064,6.768,4.815,11.06,4.924l0.378,0.007c8.533,0,15.439-6.703,15.693-15.228c0.131-4.226-1.394-8.206-4.27-11.263
		c-1.322-1.394-2.912-2.556-4.633-3.377l0.015-0.581c0.138-4.582-1.401-9.034-4.328-12.556l-2.113-24.879l-91.295,5.352
		l3.028,30.354L447.661,87.41"/>
</g>
<g>
	<path fill="#FFFFFF" d="M497.208,125.281l-4.205-1.772c-18.372-7.756-26.157-13.086-26.019-17.799
		c0.087-2.956,3.297-10.559,14.545-17.501c-0.123,0.726-0.218,1.467-0.247,2.229c-0.102,3.754,1.242,7.327,3.834,10.043
		c2.556,2.752,6.064,4.292,9.782,4.408h0.436l1.133-0.051l-0.094,0.966c-0.065,2.919,0.98,5.701,2.992,7.821
		c2.011,2.135,4.713,3.362,7.632,3.435l0.334,0.007c5.947,0,10.748-4.655,10.922-10.624c0.087-2.919-0.98-5.693-2.97-7.821
		c-1.779-1.866-4.096-3.035-6.63-3.348c0.436-1.271,0.675-2.607,0.712-4.016c0.131-4.916-2.28-9.31-6.049-11.931L505,78.856
		l-1.685-19.854l-81.652,4.778l2.041,20.747l35.053-2.803c-8.046,7.777-12.585,16.143-12.817,23.957
		c-0.399,13.95,10.428,24.596,37.406,36.774l3.442,1.54L497.208,125.281"/>
</g>
<g>
	<path fill="#106FB5" d="M500.643,75.828c-28.873,7.959-37.558,22.795-37.769,29.766c-0.196,7.073,7.647,12.853,28.539,21.684
		l-6.369,11.416c-26.186-11.8-35.351-21.488-35.009-32.903c0.283-9.818,8.823-20.5,21.626-29.192l-44.268,3.529l-1.256-12.512
		l73.453-4.292L500.643,75.828 M495.596,80.904c-5.475-0.16-10.065,4.176-10.217,9.665c-0.167,5.49,4.168,10.058,9.666,10.232
		c5.482,0.16,10.057-4.183,10.217-9.665C505.428,85.66,501.1,81.071,495.596,80.904 M507.505,99.298
		c-3.755-0.116-6.906,2.847-7.022,6.63c-0.102,3.776,2.861,6.935,6.637,7.044c3.769,0.094,6.921-2.868,7.037-6.645
		C514.273,102.544,511.296,99.407,507.505,99.298"/>
</g>
<g>
	<path fill="#0C4D98" d="M349.532,201.805l-6.855,7.356c-8.017,8.569-14.938,14.858-20.086,18.22
		c-4.858,3.246-7.262,4.008-8.206,4.197c-0.733-0.959-3.093-5.41-3.195-21.88v-1.155c0-10.341,1.351-24,3.863-39.555l1.518-9.259
		l-32.548-3.449l-1.249,8.431c-2.512,16.993-3.856,31.93-3.856,43.208v1.271c0.741,45.495,18.423,55.044,33.128,55.044
		c8.315,0,17.436-3.304,27.951-10.079c7.117-4.771,15.86-12.694,24.589-22.286l5.221-5.715L349.532,201.805"/>
</g>
<g>
	<path fill="#FFFFFF" d="M346.17,212.444c-8.279,8.823-15.497,15.351-20.921,18.917c-5.047,3.362-8.852,5.061-11.314,5.061
		c-6.107,0-7.451-14.553-7.516-26.723v-1.155c0-10.588,1.358-24.53,3.929-40.317l0.69-4.263l-22.947-2.44l-0.566,3.892
		c-2.498,16.753-3.812,31.444-3.812,42.503v1.205c0.675,41.588,15.787,50.324,28.336,50.324c7.356,0,15.613-3.014,25.264-9.266
		c6.826-4.568,15.25-12.222,23.768-21.546l2.404-2.643l-14.139-16.956L346.17,212.444"/>
</g>
<g>
	<path fill="#106FB5" d="M335.045,246.792c-8.569,5.533-16.31,8.562-22.998,8.562c-14.524,0-23.732-14.204-24.233-46.279v-1.155
		c0-11.619,1.452-26.455,3.762-41.901l14.712,1.561c-2.6,16.078-3.958,30.311-3.958,40.964v1.155
		c0.116,22.236,4.183,30.812,11.604,30.812c3.653,0,8.257-2.179,13.601-5.737c6.354-4.176,14.095-11.51,21.633-19.534l8.867,10.639
		C350.52,234.142,342.053,242.087,335.045,246.792"/>
</g>
<g>
	<polyline fill="#0C4D98" points="414.583,199.38 415.694,199.191 415.6,216.184 470.782,216.619 470.71,185.147 433.907,184.878 
		430.77,164.915 421.976,166.346 423.995,157.182 392.435,153.028 388.296,171.785 368.471,174.951 373.808,206.039 
		380.881,204.913 369.183,257.627 400.031,264.475 403.894,247.17 467.188,262.478 474.762,231.789 410.785,216.336 414.583,199.38 
			"/>
</g>
<g>
	<polyline fill="#FFFFFF" points="420.473,193.57 420.407,211.442 465.997,211.79 465.946,189.881 429.811,189.62 426.783,170.405 
		415.782,172.184 418.221,161.248 396.175,158.314 392.253,175.982 374.004,178.902 377.715,200.564 387.076,199.097 
		374.869,253.989 396.407,258.767 410.618,195.19 420.473,193.57 	"/>
</g>
<g>
	<polyline fill="#FFFFFF" points="408.818,243.452 463.666,256.704 468.974,235.304 414.104,222.058 408.818,243.452 	"/>
</g>
<g>
	<path fill="#106FB5" d="M407.227,191.588l-13.943,62.299l-13.521-2.999l12.606-56.809l-11.299,1.801l-2.346-13.594l16.927-2.694
		l3.696-16.702l13.892,1.837l-2.738,12.461l12.861-2.084l2.135,13.5L407.227,191.588 M460.689,251.788l-46.911-11.343l3.326-13.456
		l46.911,11.343L460.689,251.788z M461.887,207.68l-37.362-0.29l0.073-13.71l37.26,0.283L461.887,207.68z"/>
</g>
<g>
	<path fill="#0C4D98" d="M622.67,247.453l24.312-74.477l-34.791-10.239l-19.737,74.542c-8.162,4.067-13.078,12.81-12.294,21.981
		c0.995,11.51,10.805,20.529,22.359,20.529l1.924-0.08c12.331-1.06,21.517-11.946,20.456-24.276
		C624.667,252.645,623.926,249.973,622.67,247.453"/>
</g>
<g>
	<path fill="#FFFFFF" d="M615.35,245.216l2.759,0.821l22.809-69.851l-25.373-7.465l-18.808,71.013l1.554,0.45
		c-8.286,2.055-14.117,9.876-13.376,18.656c0.792,9.07,8.496,16.165,17.588,16.165l1.525-0.073
		c9.716-0.821,16.935-9.411,16.114-19.12C619.795,251.73,618.03,248.012,615.35,245.216"/>
</g>
<g>
	<path fill="#106FB5" d="M615.438,240.968l-13.725-4.059l16.724-63.069l17.261,5.076L615.438,240.968 M601.364,243.786
		c-7.473,0.661-12.991,7.211-12.367,14.698c0.646,7.472,7.196,13.013,14.69,12.389c7.48-0.646,12.999-7.218,12.381-14.705
		C615.416,248.695,608.851,243.147,601.364,243.786"/>
</g>
<g>
	<path fill="#0C4D98" d="M262.187,172.794c-0.015-0.675-0.022-1.38-0.109-2.033c-1.118-10.951-10.74-19.04-22.003-17.871
		c-10.994,1.126-19.026,11.009-17.879,21.996c0.363,3.58,1.634,6.92,3.711,9.767l-5.664,1.721
		c-4.118-3.079-9.252-5.076-15.664-6.056l4.851-17.77l-30.928-6.608l-7.073,25.562c-3.856,0.537-7.509,1.155-10.573,1.656
		l-11.873,1.917l4.132,32.141l9.179-2.317l-11.539,41.697l30.616,8.307l15.003-54.747c2.934,0.218,3.609,0.69,3.624,0.69
		c0.32,0.53,0.312,2.985,0.312,3.798c-0.029,7.574-2.469,20.297-6.528,34.051l-2.592,8.78l31.168,8.22l2.302-8.554
		c2.171-8.228,3.849-15.802,5.025-22.599l5.933,16.346l28.989-13.318l-11.778-33.005c1.3,0.32,2.65,0.494,4.008,0.494l1.765-0.102
		c9.077-0.922,15.693-9.092,14.763-18.169C272.666,180.223,268.331,174.828,262.187,172.794"/>
</g>
<g>
	<path fill="#FFFFFF" d="M256.901,176.701c0.45-1.721,0.632-3.573,0.428-5.454c-0.857-8.337-8.264-14.502-16.76-13.63
		c-8.38,0.864-14.509,8.424-13.63,16.775c0.559,5.512,3.979,10.05,8.7,12.265l-16.375,5.032l0.051,0.167
		c-4.611-4.444-11.445-6.826-20.834-7.393l5.018-18.292l-21.597-4.619l-6.71,24.269c-4.931,0.632-9.644,1.409-13.558,2.033
		c-1.205,0.218-2.331,0.392-3.391,0.588l-3.914,0.625l2.861,22.199l4.466-1.147c1.924-0.472,4.488-1.104,7.407-1.721l-12.411,44.842
		l21.364,5.788l14.756-53.774h0.436c11.43,0.036,11.895,2.897,11.873,9.397c-0.036,8.01-2.542,21.255-6.732,35.409l-1.176,4.045
		l21.807,5.78l1.046-3.972c4.495-16.949,6.79-30.732,6.826-40.978c0-0.842-0.036-1.627-0.073-2.447l11.546,31.879l20.29-9.324
		l-16.731-46.969l0.232,0.029l1.598-0.094l1.423-0.218l0.044,1.91c0.595,6.027,5.65,10.566,11.706,10.566l1.198-0.065
		c6.478-0.675,11.198-6.463,10.522-12.941C267.982,181.254,262.957,176.68,256.901,176.701"/>
</g>
<g>
	<path fill="#106FB5" d="M253.263,171.662c0.632,6.158-3.827,11.633-9.978,12.28c-6.129,0.632-11.648-3.812-12.272-9.963
		c-0.639-6.143,3.827-11.641,9.978-12.272C247.119,161.059,252.631,165.533,253.263,171.662 M222.741,214.913
		c0.058-19.825-8.816-26.411-28.532-26.469h-1.053l5.236-19.171l-13.558-2.897l-6.434,23.18c-7.32,0.842-14.32,2.084-19.52,2.934
		l1.779,13.674c3.711-0.944,8.685-2.099,14.088-3.043l-13.042,47.231l13.434,3.653l14.458-52.742
		c1.285-0.123,2.455-0.094,3.616-0.087c13.137,0.015,16.005,4.176,15.961,13.492c-0.015,7.727-2.28,20.987-6.884,36.563
		l13.761,3.631C220.57,237.933,222.727,224.462,222.741,214.913 M253.502,232.9l-15.235-42.772l-13.703,4.197l16.099,44.479
		L253.502,232.9z M256.08,180.848c-4.212,0.436-7.276,4.205-6.841,8.424c0.428,4.212,4.212,7.291,8.438,6.87
		c4.219-0.443,7.284-4.234,6.855-8.438C264.097,183.469,260.314,180.412,256.08,180.848"/>
</g>
<g>
	<path fill="#0C4D98" d="M587.356,220.664c-2.084-16.818-7.284-31.153-16.833-46.461l-3.834-6.122l-30.231,11.111l5.635,9.222
		c7.908,12.962,11.8,24.392,13.027,38.219l0.922,10.646l32.25-9.041L587.356,220.664"/>
</g>
<g>
	<path fill="#0C4D98" d="M523.336,213.787c-2.694,5.831-4.96,8.271-6.158,9.237c-0.915-1.423-2.164-4.263-2.818-8.707
		c-1.634-11.227-1.147-23.928,1.481-38.836l1.975-11.328l-33.564-1.576l-1.191,9.252c-1.881,14.182-3.253,29.715-0.726,46.991
		c3.37,23.114,16.288,37.493,33.738,37.493h0.603c1.249-0.015,2.542-0.145,3.82-0.305c18.91-2.767,28.408-21.735,30.129-25.511
		l2.999-6.637l-24.407-22.802L523.336,213.787"/>
</g>
<g>
	<path fill="#FFFFFF" d="M566.471,176.738l-1.765-2.839l-21.146,7.77l2.593,4.255c8.315,13.616,12.432,25.678,13.732,40.296
		l0.436,4.902l22.722-6.361l-0.443-3.493C580.631,205.16,575.643,191.421,566.471,176.738"/>
</g>
<g>
	<path fill="#FFFFFF" d="M527.679,215.77c-3.478,7.538-7.422,12.127-10.835,12.628h-0.24c-2.019,0-5.628-4.248-6.979-13.383
		c-1.706-11.771-1.22-24.937,1.503-40.339l1.046-5.998l-23.753-1.097l-0.625,4.865c-1.83,13.848-3.173,28.975-0.748,45.669
		c3.021,20.631,14.124,33.426,29.025,33.426h0.501c1.089-0.022,2.164-0.094,3.239-0.269c16.455-2.418,24.93-19.374,26.462-22.751
		l1.583-3.515l-17.073-15.932L527.679,215.77"/>
</g>
<g>
	<path fill="#106FB5" d="M542.928,225.994l-0.385,0.842c-1.365,3.021-8.968,18.271-23.332,20.398
		c-0.9,0.123-1.815,0.196-2.687,0.218c-12.955,0.254-22.671-11.198-25.409-29.926c-2.382-16.194-1.046-30.993,0.734-44.551
		l0.16-1.14l15.337,0.712l-0.225,1.423c-2.818,15.816-3.304,29.432-1.525,41.625c1.554,10.718,6.369,17.632,11.822,16.847
		c6.252-0.908,11.045-8.634,13.972-14.938l0.734-1.576L542.928,225.994 M578.555,221.761c-2.193-17.726-8.155-30.986-15.555-42.859
		l-13.34,4.873c8.053,13.246,12.868,25.816,14.284,42.068L578.555,221.761z"/>
</g>
<g>
	<path fill="#0C4D98" d="M126.479,226.19l16.905-11.735l-3.072-6.732c-2.004-4.481-4.778-9.76-8.264-15.78h7.066v-33.782H90.758
		v-10.283H55.255v10.283H7.581v33.782h8.554c-0.937,1.823-1.997,3.609-3.159,5.294l-0.203,0.327
		c-2.353,3.369-4.328,5.279-4.328,5.279l-7.073,6.47l15.417,14.4l-1.191,6.492c-0.044,0.145-2.89,15.01-10.595,25.06L0,261.773
		l27.457,24.784l5.73-8.533c1.256-1.866,2.469-3.914,3.646-6.049c4.386,11.19,17.319,11.19,21.822,11.19h28.967
		c10.029,0,18.249-0.639,23.528-7.85l0.174,0.516l3.849,10.646l30.608-20.398l-2.621-6.659
		C138.867,248.484,133.102,237.011,126.479,226.19"/>
</g>
<g>
	<path fill="#FFFFFF" d="M121.41,227.105l-1.387-2.229l17.356-12.069l-1.416-3.108c-3.566-7.894-9.041-17.152-12.331-22.519h10.697
		v-24.24H85.98v-10.275H60.019v10.275H12.338v24.24h11.045c-1.837,5.25-4.262,9.557-6.448,12.744l-0.247,0.341
		c-2.73,3.921-4.974,6.064-5.011,6.085l-3.26,3.014l17.915,16.731l-0.77,1.801l-4.386-1.663l-0.871,4.836
		c-0.044,0.182-3.028,16.041-11.525,27.101l-2.295,2.999l20.079,18.133l2.643-3.936c5.025-7.516,8.569-16.208,10.929-23.281v11.256
		c0,15.046,12.97,15.046,18.518,15.046h28.982c14.879,0,20.18-1.547,23.681-15.656c1.605,3.783,3.13,7.647,4.524,11.474l1.764,4.902
		l22.323-14.865l-1.198-3.072C134.307,249.929,128.323,238.136,121.41,227.105 M24.197,247.032h-0.124l0.124-0.327V247.032z"/>
</g>
<g>
	<path fill="#E6326E" d="M25.787,273.087L12.04,260.669c9.215-12.018,12.287-28.851,12.287-28.851l15.497,5.853
		C39.824,237.671,35.808,258.128,25.787,273.087 M26.731,220.86l-12.287-11.474c0,0,9.752-8.939,14.03-24.719l14.69,6.419
		C38.081,209.793,26.731,220.86,26.731,220.86 M99.378,183.077v16.564c0,20.318-0.109,26.382-18.162,27.036
		c-0.93,0.051-8.794-0.341-8.794-0.341l-6.427-16.158h5.214c12.142,0,12.142-0.385,12.142-7.886v-19.215H67.331v3.878
		c0,15.627-2.142,32.3-22.439,44.449l-11.626-13.747c15.896-8.533,18.053-16.426,18.053-30.703v-3.878H16.448v-16.034h47.681
		v-10.297h17.762v10.297h48.327v16.034H99.378z M87.621,274.285H58.653c-8.54,0-14.436-1.605-14.436-10.944v-30.463h16.426v23.652
		c0,1.736,0.523,1.736,2.549,1.736h22.308c5.33,0,6.267-0.407,7.211-12.018l16.412,6.419
		C105.652,274.155,102.725,274.285,87.621,274.285 M119.689,272.818c-4.546-12.556-10.428-25.373-16.027-35.147l14.277-8.395
		c6.688,10.689,12.556,22.178,16.964,33.39L119.689,272.818z M118.215,221.122c-6.812-16.012-14.291-27.522-14.291-27.522
		l13.478-8.663c0,0,9.622,14.952,14.836,26.44L118.215,221.122z"/>
</g>
<g>
	<path fill="#E79ABB" d="M80.287,234.846c0,0,2.578-7.494,9.44-5.875c6.862,1.648,6.507,7.589,5.875,10.246
		c-0.646,2.701-4.96,7.218-8.845,9.767c-3.892,2.549-6.267,5.316-6.47,6.216c-0.218-0.9-2.585-3.667-6.478-6.216
		c-3.892-2.549-8.213-7.066-8.837-9.767c-0.639-2.658-0.988-8.598,5.875-10.246C77.701,227.352,80.287,234.846,80.287,234.846"/>
</g>
<g>
	<rect x="156.964" y="99.93" fill="#0C4D98" width="120.067" height="33.644"/>
</g>
<g>
	<rect x="169.97" y="42.278" fill="#0C4D98" width="94.062" height="33.223"/>
</g>
<g>
	<rect x="161.749" y="104.701" fill="#FFFFFF" width="110.503" height="24.109"/>
</g>
<g>
	<rect x="174.734" y="47.064" fill="#FFFFFF" width="84.505" height="23.652"/>
</g>
<g>
	<path fill="#106FB5" d="M165.845,108.789h102.311V124.7H165.845V108.789z M255.151,51.152h-76.307v15.482h76.307V51.152z"/>
</g>
<g>
	<path fill="#0C4D98" d="M282.426,105.318l5.032,12.294c1.191,2.803,3.703,4.887,6.761,5.592l18.488,24.276l7.088-8.932
		c0.951-1.169,1.815-2.324,2.636-3.515v6.862h31.299v-14.349l0.377-0.182c3.624-1.743,6.979-4.038,9.956-6.804l9.019,21.553
		l6.115-0.218c26.07-0.864,30.253-8.569,30.253-32.831V81.753h0.262v-2.454h0.414v-19.73h0.588V28.074h-36.817V17.436H340.68v10.639
		h-35.43v15.94c-1.227-0.668-2.44-1.373-3.631-2.07c-2.309-1.336-5.265-1.641-7.785-0.77c-2.607,0.893-4.684,2.883-5.744,5.483
		l-4.626,11.779c-1.627,4.197-0.036,9.019,3.82,11.445c0.683,0.428,6.935,4.27,16.441,8.315l-0.109,3.66l0.014,0.341
		c-6.107,3.311-12.229,7.385-18.263,12.091C282.034,96.88,280.835,101.411,282.426,105.318"/>
</g>
<g>
	<path fill="#FFFFFF" d="M376.212,137.212l2.825-0.102c23.107-0.77,25.634-6.347,25.634-28.038V76.968h0.232v-2.447h0.45V54.798
		h0.566V32.831h-36.788V22.207h-23.674v10.624h-35.438v19.048c-3.762-1.83-7.364-3.754-10.784-5.802
		c-1.162-0.675-2.592-0.813-3.871-0.385c-1.271,0.45-2.302,1.409-2.81,2.709l-4.64,11.757c-0.791,2.099-0.007,4.466,1.903,5.65
		c0.835,0.537,7.988,4.931,18.764,9.215l-0.196,6.92c0,1.002,0.291,1.946,0.821,2.723c-6.921,3.478-13.957,7.966-20.892,13.405
		c-1.663,1.278-2.251,3.507-1.467,5.425l5.003,12.265c0.61,1.394,1.823,2.411,3.384,2.752l0.523,0.08h0.407
		c0.937,0,1.859-0.276,2.629-0.792l-1.431,1.612l15.417,20.268l3.29-4.11c5.076-6.376,8.692-13.216,11.161-21.415v22.955h21.713
		v-12.556l3.079-1.481c6.238-3.035,11.481-7.843,15.184-13.848c1.975,2.128,3.711,4.197,5.236,6.296h-5.323L376.212,137.212"/>
</g>
<g>
	<path fill="#0C4D98" d="M296.884,50.099c16.157,9.629,31.4,14.182,31.4,14.182s0.102,8.583-0.472,11.989
		c-20.42-4.822-35.546-14.415-35.546-14.415L296.884,50.099 M296.884,48.059l-0.661,0.109l-1.249,1.191l-4.619,11.757
		c-0.349,0.922-0.007,1.953,0.813,2.476c0.632,0.385,15.671,9.833,36.171,14.683l0.472,0.044l1.111-0.341l0.9-1.358
		c0.595-3.558,0.523-12.018,0.523-12.367c-0.029-0.908-0.617-1.692-1.481-1.946c-0.145-0.029-15.206-4.568-30.921-13.964
		L296.884,48.059"/>
</g>
<g>
	<path fill="#106FB5" d="M327.964,50.687l-0.305,20.987c0,29.461-3.101,46.672-14.792,61.34l-10.21-13.398
		c6.478-7.327,9.535-18.43,10.442-28.06c0.102-0.944,1.017-19.302,1.017-20.791V36.941h35.438V26.317h15.475v10.624h36.803v13.747
		H327.964 M372.254,70.425v8.598h28.321v30.042c0,19.832-1.031,23.281-21.662,23.949l-5.613-13.398c12.948,0,13.754,0,13.754-6.761
		v-5.853l-8.729,9.869c-3.536-5.628-7.799-10.326-12.149-14.567c-3.108,7.334-8.591,13.514-15.932,17.08l-5.388-11.917v25.547
		h-13.536V79.023h27.413v-8.598h-28.227V57.47h70.759v12.955H372.254z M344.856,91.746v14.56c6.891-2.854,11.103-7.901,13.173-14.56
		H344.856z M387.054,91.746h-15.816c5.25,4.009,10.878,8.939,15.816,13.87V91.746z"/>
</g>
<g>
	<path fill="#0C4D98" d="M326.607,61.137l1.692,0.044c0,1.126-0.203,10.791-0.203,10.791l-14.647,5.098l0.16-13.028
		C313.608,64.042,318.829,61.137,326.607,61.137 M326.607,59.082c-8.213,0-13.754,3.035-14.001,3.152
		c-0.646,0.37-1.046,1.038-1.046,1.779l-0.138,13.028c-0.015,0.668,0.298,1.3,0.849,1.699l1.177,0.363l0.697-0.102l14.625-5.098
		c0.784-0.29,1.343-1.046,1.358-1.895c0.007-0.392,0.203-9.702,0.203-10.827c0-1.089-0.842-1.982-1.939-2.055L326.607,59.082"/>
</g>
<g>
	<path fill="#0C4D98" d="M316.034,70.41c4.618,0,8.903,0.552,12.454,1.743c0.051,1.118-1.213,11.917-1.213,11.917l-14.211-2.048
		l0.291-11.554C314.262,70.418,315.162,70.41,316.034,70.41 M316.034,68.37c-0.908,0-1.823,0.015-2.745,0.051
		c-1.097,0.051-1.953,0.937-1.968,1.99l-0.298,11.568c-0.036,1.038,0.726,1.946,1.757,2.091l14.204,2.019l0.29,0.015l1.256-0.414
		l0.777-1.387c0.385-3.282,1.285-11.06,1.249-12.222c-0.051-0.864-0.588-1.605-1.402-1.859
		C325.474,68.987,321.051,68.37,316.034,68.37"/>
</g>
<g>
	<path fill="#0C4D98" d="M327.914,82.821c0,0,0.298,7.313-0.806,11.604c-14.008,3.689-30.942,19.512-30.942,19.512l-4.996-12.193
		C312.78,84.854,327.914,82.821,327.914,82.821 M327.914,80.766l-0.254,0.015c-0.661,0.094-15.954,2.309-37.754,19.353
		c-0.712,0.545-0.98,1.539-0.617,2.389l4.967,12.214c0.247,0.61,0.799,1.06,1.46,1.205l0.45,0.058l1.394-0.559
		c0.152-0.152,16.731-15.518,30.064-19.033c0.719-0.167,1.285-0.748,1.481-1.467c1.169-4.524,0.879-11.902,0.864-12.229l-0.719-1.46
		L327.914,80.766"/>
</g>
<g>
	<polyline fill="#0C4D98" points="24.799,109.588 54.268,109.551 54.268,98.811 66.024,98.811 66.024,140.153 101.6,140.153 
		101.6,98.811 114.584,98.811 114.584,109.551 148.903,109.551 148.903,15.918 101.6,15.918 101.6,0 66.024,0 66.024,15.918 
		19.941,15.918 19.941,38.996 19.883,38.967 19.905,109.718 24.799,109.588 	"/>
</g>
<g>
	<polyline fill="#FFFFFF" points="96.814,4.8 70.81,4.8 70.81,20.696 24.698,20.696 24.698,47.463 24.654,47.441 24.683,104.802 
		26.005,104.78 49.496,104.78 49.496,94.033 70.81,94.033 70.81,135.36 96.814,135.36 96.814,94.033 119.362,94.033 119.362,104.78 
		144.147,104.78 144.147,20.696 96.814,20.696 96.814,4.8 	"/>
</g>
<g>
	<path fill="#106FB5" d="M123.843,100.678V89.952H93.096v41.32H75.29v-41.32H45.778v10.726H29.185V24.799H75.29V8.888h17.806v15.911
		h47.332v75.879H123.843 M75.29,41.247H45.778v32.228H75.29V41.247z M123.843,41.247H93.096v32.228h30.747V41.247z"/>
</g>
<g>
	<path fill="#0C4D98" d="M140.966,28.016l0.102,4.023L75.813,49.816v0.399l-1.14-3.529L140.966,28.016 M140.966,25.968l-0.559,0.087
		l-66.307,18.67l-1.235,1.002l-0.145,1.583l1.14,3.522c0.283,0.871,1.075,1.409,1.954,1.409l0.312-0.007l1.278-0.726l64.194-17.472
		c0.915-0.247,1.54-1.082,1.511-2.041l-0.109-4.03l-0.828-1.598L140.966,25.968"/>
</g>
<g>
	<path fill="#0C4D98" d="M75.102,67.281l66.039,20.66l-0.073,4.052L73.991,70.403L75.102,67.281 M75.102,65.225
		c-0.857,0-1.641,0.545-1.924,1.38l-1.104,3.13l0.073,1.59l1.22,1.053l67.07,21.553l0.632,0.109l1.184-0.399l0.871-1.605
		l0.065-4.052c0.007-0.915-0.566-1.721-1.445-1.99l-66.024-20.66L75.102,65.225"/>
</g>
<g>
	<path fill="#0C4D98" d="M28.118,31.393l17.646,14.923l-2.331,2.876L28.009,35.968L28.118,31.393 M28.118,29.352l-0.843,0.189
		c-0.719,0.305-1.205,1.017-1.205,1.801l-0.102,4.568l0.719,1.619l15.41,13.216l1.336,0.486h0.181l1.409-0.755l2.331-2.861
		c0.712-0.893,0.588-2.15-0.254-2.876L29.439,29.839L28.118,29.352"/>
</g>
<g>
	<path fill="#0C4D98" d="M43.803,69.031l2.215,2.956l-17.959,13.87l-0.036-4.176L43.803,69.031 M43.803,66.983l-1.285,0.443
		L26.745,80.069l-0.77,1.619l0.044,4.168c0,0.791,0.45,1.496,1.147,1.844l0.893,0.196l1.242-0.428L47.267,73.62
		c0.9-0.69,1.075-1.946,0.399-2.861l-2.222-2.956l-1.387-0.806L43.803,66.983"/>
</g>
<g>
	<path fill="#0C4D98" d="M527.069,91.542l1.525,30.783l15.482-0.726c2.491,24.487,19.164,28.372,26.302,28.902
		c0.987,0.065,1.983,0.131,2.985,0.131c10.747,0,28.132-4.313,49.758-24.763l5.984-5.642l-18.881-23.398l-6.369,5.838l-0.683-14.269
		l-2.135,0.087l4.597-16.157l-18.307-4.822c0.966-2.157,1.612-3.507,1.707-3.754l4.248-8.809l-29.083-10.689l-3.464,7.414
		c-0.145,0.356-1.511,3.326-3.398,8.002l-16.005-4.255l-8.315,29.091l14.676,3.943c-0.211,0.762-0.407,1.51-0.574,2.229
		L527.069,91.542"/>
</g>
<g>
	<path fill="#FFFFFF" d="M532.079,96.103l1.053,21.204l15.41-0.712c0.537,23.84,13.928,28.524,22.185,29.142
		c0.857,0.051,1.75,0.102,2.621,0.102c9.898,0,26.019-4.067,46.519-23.448l2.738-2.592l-12.911-16.012l-3.203,2.956
		c-2.476,2.258-4.778,4.248-6.964,6.02l-0.893-19.374l-4.016,0.138l5.076-17.82l-18.99-4.996c2.302-5.417,4.016-8.983,4.045-9.026
		l1.939-4.067l-20.028-7.349l-1.576,3.406c-0.087,0.232-2.193,4.764-4.851,11.706l-15.591-4.139l-5.686,19.919l14.618,3.907
		c-0.922,3.268-1.866,6.739-2.643,10.254L532.079,96.103"/>
</g>
<g>
	<path fill="#0075C1" d="M571.032,141.649c-11.735-0.864-19.157-9.455-18.343-29.359l-15.656,0.748l-0.661-13.006l17.922-0.741
		c1.096-5.693,2.759-11.641,4.393-17.094l-14.669-3.921l3.449-12.047l15.308,4.081c3.217-8.859,6.027-14.887,6.027-14.887
		l12.258,4.495c0,0-2.716,5.563-5.947,13.558l19.491,5.127l-3.435,12.134l-20.326-5.374c-1.365,4.343-2.745,8.881-3.733,13.347
		l27.616-1.089l0.581,12.519l-29.999,1.503c-0.53,12.236,1.946,17.247,8.351,17.719c8.184,0.617,19.643-4.967,35.575-19.592
		l7.814,9.644C598.852,136.609,582.97,142.542,571.032,141.649"/>
</g>
<g>
	<path fill="#0C4D98" d="M447.661,87.41c-4.139,6.042-6.311,12.12-6.499,18.118c-0.465,16.216,11.191,28.168,40.23,41.276
		l7.429,3.34l15.17-27.188l-9.106-3.856c-22.468-9.477-23.114-13.115-23.136-13.246c0.022-0.733,1.169-4.357,5.824-8.707
		c0.886,2.454,2.251,4.713,4.059,6.623c2.789,2.956,6.347,4.887,10.29,5.592c0.603,2.818,1.939,5.41,3.972,7.545
		c2.876,3.064,6.768,4.815,11.06,4.924l0.378,0.007c8.533,0,15.439-6.703,15.693-15.228c0.131-4.226-1.394-8.206-4.27-11.263
		c-1.322-1.394-2.912-2.556-4.633-3.377l0.015-0.581c0.138-4.582-1.401-9.034-4.328-12.556l-2.113-24.879l-91.295,5.352
		l3.028,30.354L447.661,87.41"/>
</g>
<g>
	<path fill="#FFFFFF" d="M497.208,125.281l-4.205-1.772c-18.372-7.756-26.157-13.086-26.019-17.799
		c0.087-2.956,3.297-10.559,14.545-17.501c-0.123,0.726-0.218,1.467-0.247,2.229c-0.102,3.754,1.242,7.327,3.834,10.043
		c2.556,2.752,6.064,4.292,9.782,4.408h0.436l1.133-0.051l-0.094,0.966c-0.065,2.919,0.98,5.701,2.992,7.821
		c2.011,2.135,4.713,3.362,7.632,3.435l0.334,0.007c5.947,0,10.748-4.655,10.922-10.624c0.087-2.919-0.98-5.693-2.97-7.821
		c-1.779-1.866-4.096-3.035-6.63-3.348c0.436-1.271,0.675-2.607,0.712-4.016c0.131-4.916-2.28-9.31-6.049-11.931L505,78.856
		l-1.685-19.854l-81.652,4.778l2.041,20.747l35.053-2.803c-8.046,7.777-12.585,16.143-12.817,23.957
		c-0.399,13.95,10.428,24.596,37.406,36.774l3.442,1.54L497.208,125.281"/>
</g>
<g>
	<path fill="#0075C1" d="M500.643,75.828c-28.873,7.959-37.558,22.795-37.769,29.766c-0.196,7.073,7.647,12.853,28.539,21.684
		l-6.369,11.416c-26.186-11.8-35.351-21.488-35.009-32.903c0.283-9.818,8.823-20.5,21.626-29.192l-44.268,3.529l-1.256-12.512
		l73.453-4.292L500.643,75.828 M495.596,80.904c-5.475-0.16-10.065,4.176-10.217,9.665c-0.167,5.49,4.168,10.058,9.666,10.232
		c5.482,0.16,10.057-4.183,10.217-9.665C505.428,85.66,501.1,81.071,495.596,80.904 M507.505,99.298
		c-3.755-0.116-6.906,2.847-7.022,6.63c-0.102,3.776,2.861,6.935,6.637,7.044c3.769,0.094,6.921-2.868,7.037-6.645
		C514.273,102.544,511.296,99.407,507.505,99.298"/>
</g>
<g>
	<path fill="#0C4D98" d="M349.532,201.805l-6.855,7.356c-8.017,8.569-14.938,14.858-20.086,18.22
		c-4.858,3.246-7.262,4.008-8.206,4.197c-0.733-0.959-3.093-5.41-3.195-21.88v-1.155c0-10.341,1.351-24,3.863-39.555l1.518-9.259
		l-32.548-3.449l-1.249,8.431c-2.512,16.993-3.856,31.93-3.856,43.208v1.271c0.741,45.495,18.423,55.044,33.128,55.044
		c8.315,0,17.436-3.304,27.951-10.079c7.117-4.771,15.86-12.694,24.589-22.286l5.221-5.715L349.532,201.805"/>
</g>
<g>
	<path fill="#FFFFFF" d="M346.17,212.444c-8.279,8.823-15.497,15.351-20.921,18.917c-5.047,3.362-8.852,5.061-11.314,5.061
		c-6.107,0-7.451-14.553-7.516-26.723v-1.155c0-10.588,1.358-24.53,3.929-40.317l0.69-4.263l-22.947-2.44l-0.566,3.892
		c-2.498,16.753-3.812,31.444-3.812,42.503v1.205c0.675,41.588,15.787,50.324,28.336,50.324c7.356,0,15.613-3.014,25.264-9.266
		c6.826-4.568,15.25-12.222,23.768-21.546l2.404-2.643l-14.139-16.956L346.17,212.444"/>
</g>
<g>
	<path fill="#0075C1" d="M335.045,246.792c-8.569,5.533-16.31,8.562-22.998,8.562c-14.524,0-23.732-14.204-24.233-46.279v-1.155
		c0-11.619,1.452-26.455,3.762-41.901l14.712,1.561c-2.6,16.078-3.958,30.311-3.958,40.964v1.155
		c0.116,22.236,4.183,30.812,11.604,30.812c3.653,0,8.257-2.179,13.601-5.737c6.354-4.176,14.095-11.51,21.633-19.534l8.867,10.639
		C350.52,234.142,342.053,242.087,335.045,246.792"/>
</g>
<g>
	<polyline fill="#0C4D98" points="414.583,199.38 415.694,199.191 415.6,216.184 470.782,216.619 470.71,185.147 433.907,184.878 
		430.77,164.915 421.976,166.346 423.995,157.182 392.435,153.028 388.296,171.785 368.471,174.951 373.808,206.039 
		380.881,204.913 369.183,257.627 400.031,264.475 403.894,247.17 467.188,262.478 474.762,231.789 410.785,216.336 414.583,199.38 
			"/>
</g>
<g>
	<polyline fill="#FFFFFF" points="420.473,193.57 420.407,211.442 465.997,211.79 465.946,189.881 429.811,189.62 426.783,170.405 
		415.782,172.184 418.221,161.248 396.175,158.314 392.253,175.982 374.004,178.902 377.715,200.564 387.076,199.097 
		374.869,253.989 396.407,258.767 410.618,195.19 420.473,193.57 	"/>
</g>
<g>
	<polyline fill="#FFFFFF" points="408.818,243.452 463.666,256.704 468.974,235.304 414.104,222.058 408.818,243.452 	"/>
</g>
<g>
	<path fill="#0075C1" d="M407.227,191.588l-13.943,62.299l-13.521-2.999l12.606-56.809l-11.299,1.801l-2.346-13.594l16.927-2.694
		l3.696-16.702l13.892,1.837l-2.738,12.461l12.861-2.084l2.135,13.5L407.227,191.588 M460.689,251.788l-46.911-11.343l3.326-13.456
		l46.911,11.343L460.689,251.788z M461.887,207.68l-37.362-0.29l0.073-13.71l37.26,0.283L461.887,207.68z"/>
</g>
<g>
	<path fill="#0C4D98" d="M622.67,247.453l24.312-74.477l-34.791-10.239l-19.737,74.542c-8.162,4.067-13.078,12.81-12.294,21.981
		c0.995,11.51,10.805,20.529,22.359,20.529l1.924-0.08c12.331-1.06,21.517-11.946,20.456-24.276
		C624.667,252.645,623.926,249.973,622.67,247.453"/>
</g>
<g>
	<path fill="#FFFFFF" d="M615.35,245.216l2.759,0.821l22.809-69.851l-25.373-7.465l-18.808,71.013l1.554,0.45
		c-8.286,2.055-14.117,9.876-13.376,18.656c0.792,9.07,8.496,16.165,17.588,16.165l1.525-0.073
		c9.716-0.821,16.935-9.411,16.114-19.12C619.795,251.73,618.03,248.012,615.35,245.216"/>
</g>
<g>
	<path fill="#0075C1" d="M615.438,240.968l-13.725-4.059l16.724-63.069l17.261,5.076L615.438,240.968 M601.364,243.786
		c-7.473,0.661-12.991,7.211-12.367,14.698c0.646,7.472,7.196,13.013,14.69,12.389c7.48-0.646,12.999-7.218,12.381-14.705
		C615.416,248.695,608.851,243.147,601.364,243.786"/>
</g>
<g>
	<path fill="#0C4D98" d="M262.187,172.794c-0.015-0.675-0.022-1.38-0.109-2.033c-1.118-10.951-10.74-19.04-22.003-17.871
		c-10.994,1.126-19.026,11.009-17.879,21.996c0.363,3.58,1.634,6.92,3.711,9.767l-5.664,1.721
		c-4.118-3.079-9.252-5.076-15.664-6.056l4.851-17.77l-30.928-6.608l-7.073,25.562c-3.856,0.537-7.509,1.155-10.573,1.656
		l-11.873,1.917l4.132,32.141l9.179-2.317l-11.539,41.697l30.616,8.307l15.003-54.747c2.934,0.218,3.609,0.69,3.624,0.69
		c0.32,0.53,0.312,2.985,0.312,3.798c-0.029,7.574-2.469,20.297-6.528,34.051l-2.592,8.78l31.168,8.22l2.302-8.554
		c2.171-8.228,3.849-15.802,5.025-22.599l5.933,16.346l28.989-13.318l-11.778-33.005c1.3,0.32,2.65,0.494,4.008,0.494l1.765-0.102
		c9.077-0.922,15.693-9.092,14.763-18.169C272.666,180.223,268.331,174.828,262.187,172.794"/>
</g>
<g>
	<path fill="#FFFFFF" d="M256.901,176.701c0.45-1.721,0.632-3.573,0.428-5.454c-0.857-8.337-8.264-14.502-16.76-13.63
		c-8.38,0.864-14.509,8.424-13.63,16.775c0.559,5.512,3.979,10.05,8.7,12.265l-16.375,5.032l0.051,0.167
		c-4.611-4.444-11.445-6.826-20.834-7.393l5.018-18.292l-21.597-4.619l-6.71,24.269c-4.931,0.632-9.644,1.409-13.558,2.033
		c-1.205,0.218-2.331,0.392-3.391,0.588l-3.914,0.625l2.861,22.199l4.466-1.147c1.924-0.472,4.488-1.104,7.407-1.721l-12.411,44.842
		l21.364,5.788l14.756-53.774h0.436c11.43,0.036,11.895,2.897,11.873,9.397c-0.036,8.01-2.542,21.255-6.732,35.409l-1.176,4.045
		l21.807,5.78l1.046-3.972c4.495-16.949,6.79-30.732,6.826-40.978c0-0.842-0.036-1.627-0.073-2.447l11.546,31.879l20.29-9.324
		l-16.731-46.969l0.232,0.029l1.598-0.094l1.423-0.218l0.044,1.91c0.595,6.027,5.65,10.566,11.706,10.566l1.198-0.065
		c6.478-0.675,11.198-6.463,10.522-12.941C267.982,181.254,262.957,176.68,256.901,176.701"/>
</g>
<g>
	<path fill="#0075C1" d="M253.263,171.662c0.632,6.158-3.827,11.633-9.978,12.28c-6.129,0.632-11.648-3.812-12.272-9.963
		c-0.639-6.143,3.827-11.641,9.978-12.272C247.119,161.059,252.631,165.533,253.263,171.662 M222.741,214.913
		c0.058-19.825-8.816-26.411-28.532-26.469h-1.053l5.236-19.171l-13.558-2.897l-6.434,23.18c-7.32,0.842-14.32,2.084-19.52,2.934
		l1.779,13.674c3.711-0.944,8.685-2.099,14.088-3.043l-13.042,47.231l13.434,3.653l14.458-52.742
		c1.285-0.123,2.455-0.094,3.616-0.087c13.137,0.015,16.005,4.176,15.961,13.492c-0.015,7.727-2.28,20.987-6.884,36.563
		l13.761,3.631C220.57,237.933,222.727,224.462,222.741,214.913 M253.502,232.9l-15.235-42.772l-13.703,4.197l16.099,44.479
		L253.502,232.9z M256.08,180.848c-4.212,0.436-7.276,4.205-6.841,8.424c0.428,4.212,4.212,7.291,8.438,6.87
		c4.219-0.443,7.284-4.234,6.855-8.438C264.097,183.469,260.314,180.412,256.08,180.848"/>
</g>
<g>
	<path fill="#0C4D98" d="M587.356,220.664c-2.084-16.818-7.284-31.153-16.833-46.461l-3.834-6.122l-30.231,11.111l5.635,9.222
		c7.908,12.962,11.8,24.392,13.027,38.219l0.922,10.646l32.25-9.041L587.356,220.664"/>
</g>
<g>
	<path fill="#0C4D98" d="M523.336,213.787c-2.694,5.831-4.96,8.271-6.158,9.237c-0.915-1.423-2.164-4.263-2.818-8.707
		c-1.634-11.227-1.147-23.928,1.481-38.836l1.975-11.328l-33.564-1.576l-1.191,9.252c-1.881,14.182-3.253,29.715-0.726,46.991
		c3.37,23.114,16.288,37.493,33.738,37.493h0.603c1.249-0.015,2.542-0.145,3.82-0.305c18.91-2.767,28.408-21.735,30.129-25.511
		l2.999-6.637l-24.407-22.802L523.336,213.787"/>
</g>
<g>
	<path fill="#FFFFFF" d="M566.471,176.738l-1.765-2.839l-21.146,7.77l2.593,4.255c8.315,13.616,12.432,25.678,13.732,40.296
		l0.436,4.902l22.722-6.361l-0.443-3.493C580.631,205.16,575.643,191.421,566.471,176.738"/>
</g>
<g>
	<path fill="#FFFFFF" d="M527.679,215.77c-3.478,7.538-7.422,12.127-10.835,12.628h-0.24c-2.019,0-5.628-4.248-6.979-13.383
		c-1.706-11.771-1.22-24.937,1.503-40.339l1.046-5.998l-23.753-1.097l-0.625,4.865c-1.83,13.848-3.173,28.975-0.748,45.669
		c3.021,20.631,14.124,33.426,29.025,33.426h0.501c1.089-0.022,2.164-0.094,3.239-0.269c16.455-2.418,24.93-19.374,26.462-22.751
		l1.583-3.515l-17.073-15.932L527.679,215.77"/>
</g>
<g>
	<path fill="#0075C1" d="M542.928,225.994l-0.385,0.842c-1.365,3.021-8.968,18.271-23.332,20.398
		c-0.9,0.123-1.815,0.196-2.687,0.218c-12.955,0.254-22.671-11.198-25.409-29.926c-2.382-16.194-1.046-30.993,0.734-44.551
		l0.16-1.14l15.337,0.712l-0.225,1.423c-2.818,15.816-3.304,29.432-1.525,41.625c1.554,10.718,6.369,17.632,11.822,16.847
		c6.252-0.908,11.045-8.634,13.972-14.938l0.734-1.576L542.928,225.994 M578.555,221.761c-2.193-17.726-8.155-30.986-15.555-42.859
		l-13.34,4.873c8.053,13.246,12.868,25.816,14.284,42.068L578.555,221.761z"/>
</g>
<g>
	<path fill="#0C4D98" d="M126.479,226.19l16.905-11.735l-3.072-6.732c-2.004-4.481-4.778-9.76-8.264-15.78h7.066v-33.782H90.758
		v-10.283H55.255v10.283H7.581v33.782h8.554c-0.937,1.823-1.997,3.609-3.159,5.294l-0.203,0.327
		c-2.353,3.369-4.328,5.279-4.328,5.279l-7.073,6.47l15.417,14.4l-1.191,6.492c-0.044,0.145-2.89,15.01-10.595,25.06L0,261.773
		l27.457,24.784l5.73-8.533c1.256-1.866,2.469-3.914,3.646-6.049c4.386,11.19,17.319,11.19,21.822,11.19h28.967
		c10.029,0,18.249-0.639,23.528-7.85l0.174,0.516l3.849,10.646l30.608-20.398l-2.621-6.659
		C138.867,248.484,133.102,237.011,126.479,226.19"/>
</g>
<g>
	<path fill="#FFFFFF" d="M121.41,227.105l-1.387-2.229l17.356-12.069l-1.416-3.108c-3.566-7.894-9.041-17.152-12.331-22.519h10.697
		v-24.24H85.98v-10.275H60.019v10.275H12.338v24.24h11.045c-1.837,5.25-4.262,9.557-6.448,12.744l-0.247,0.341
		c-2.73,3.921-4.974,6.064-5.011,6.085l-3.26,3.014l17.915,16.731l-0.77,1.801l-4.386-1.663l-0.871,4.836
		c-0.044,0.182-3.028,16.041-11.525,27.101l-2.295,2.999l20.079,18.133l2.643-3.936c5.025-7.516,8.569-16.208,10.929-23.281v11.256
		c0,15.046,12.97,15.046,18.518,15.046h28.982c14.879,0,20.18-1.547,23.681-15.656c1.605,3.783,3.13,7.647,4.524,11.474l1.764,4.902
		l22.323-14.865l-1.198-3.072C134.307,249.929,128.323,238.136,121.41,227.105 M24.197,247.032h-0.124l0.124-0.327V247.032z"/>
</g>
<g>
	<path fill="#E6326E" d="M25.787,273.087L12.04,260.669c9.215-12.018,12.287-28.851,12.287-28.851l15.497,5.853
		C39.824,237.671,35.808,258.128,25.787,273.087 M26.731,220.86l-12.287-11.474c0,0,9.752-8.939,14.03-24.719l14.69,6.419
		C38.081,209.793,26.731,220.86,26.731,220.86 M99.378,183.077v16.564c0,20.318-0.109,26.382-18.162,27.036
		c-0.93,0.051-8.794-0.341-8.794-0.341l-6.427-16.158h5.214c12.142,0,12.142-0.385,12.142-7.886v-19.215H67.331v3.878
		c0,15.627-2.142,32.3-22.439,44.449l-11.626-13.747c15.896-8.533,18.053-16.426,18.053-30.703v-3.878H16.448v-16.034h47.681
		v-10.297h17.762v10.297h48.327v16.034H99.378z M87.621,274.285H58.653c-8.54,0-14.436-1.605-14.436-10.944v-30.463h16.426v23.652
		c0,1.736,0.523,1.736,2.549,1.736h22.308c5.33,0,6.267-0.407,7.211-12.018l16.412,6.419
		C105.652,274.155,102.725,274.285,87.621,274.285 M119.689,272.818c-4.546-12.556-10.428-25.373-16.027-35.147l14.277-8.395
		c6.688,10.689,12.556,22.178,16.964,33.39L119.689,272.818z M118.215,221.122c-6.812-16.012-14.291-27.522-14.291-27.522
		l13.478-8.663c0,0,9.622,14.952,14.836,26.44L118.215,221.122z"/>
</g>
<g>
	<path fill="#F19CBF" d="M80.287,234.846c0,0,2.578-7.494,9.44-5.875c6.862,1.648,6.507,7.589,5.875,10.246
		c-0.646,2.701-4.96,7.218-8.845,9.767c-3.892,2.549-6.267,5.316-6.47,6.216c-0.218-0.9-2.585-3.667-6.478-6.216
		c-3.892-2.549-8.213-7.066-8.837-9.767c-0.639-2.658-0.988-8.598,5.875-10.246C77.701,227.352,80.287,234.846,80.287,234.846"/>
</g>
<g>
	<rect x="156.964" y="99.93" fill="#0C4D98" width="120.067" height="33.644"/>
</g>
<g>
	<rect x="161.749" y="104.701" fill="#FFFFFF" width="110.503" height="24.109"/>
</g>
<g>
	<rect x="174.734" y="47.064" fill="#FFFFFF" width="84.505" height="23.652"/>
</g>
<g>
	<path fill="#0075C1" d="M165.845,108.789h102.311V124.7H165.845V108.789z M255.151,51.152h-76.307v15.482h76.307V51.152z"/>
</g>
<g>
	<path fill="#0C4D98" d="M282.426,105.318l5.032,12.294c1.191,2.803,3.703,4.887,6.761,5.592l18.488,24.276l7.088-8.932
		c0.951-1.169,1.815-2.324,2.636-3.515v6.862h31.299v-14.349l0.377-0.182c3.624-1.743,6.979-4.038,9.956-6.804l9.019,21.553
		l6.115-0.218c26.07-0.864,30.253-8.569,30.253-32.831V81.753h0.262v-2.454h0.414v-19.73h0.588V28.074h-36.817V17.436H340.68v10.639
		h-35.43v15.94c-1.227-0.668-2.44-1.373-3.631-2.07c-2.309-1.336-5.265-1.641-7.785-0.77c-2.607,0.893-4.684,2.883-5.744,5.483
		l-4.626,11.779c-1.627,4.197-0.036,9.019,3.82,11.445c0.683,0.428,6.935,4.27,16.441,8.315l-0.109,3.66l0.014,0.341
		c-6.107,3.311-12.229,7.385-18.263,12.091C282.034,96.88,280.835,101.411,282.426,105.318"/>
</g>
<g>
	<path fill="#FFFFFF" d="M376.212,137.212l2.825-0.102c23.107-0.77,25.634-6.347,25.634-28.038V76.968h0.232v-2.447h0.45V54.798
		h0.566V32.831h-36.788V22.207h-23.674v10.624h-35.438v19.048c-3.762-1.83-7.364-3.754-10.784-5.802
		c-1.162-0.675-2.592-0.813-3.871-0.385c-1.271,0.45-2.302,1.409-2.81,2.709l-4.64,11.757c-0.791,2.099-0.007,4.466,1.903,5.65
		c0.835,0.537,7.988,4.931,18.764,9.215l-0.196,6.92c0,1.002,0.291,1.946,0.821,2.723c-6.921,3.478-13.957,7.966-20.892,13.405
		c-1.663,1.278-2.251,3.507-1.467,5.425l5.003,12.265c0.61,1.394,1.823,2.411,3.384,2.752l0.523,0.08h0.407
		c0.937,0,1.859-0.276,2.629-0.792l-1.431,1.612l15.417,20.268l3.29-4.11c5.076-6.376,8.692-13.216,11.161-21.415v22.955h21.713
		v-12.556l3.079-1.481c6.238-3.035,11.481-7.843,15.184-13.848c1.975,2.128,3.711,4.197,5.236,6.296h-5.323L376.212,137.212"/>
</g>
<g>
	<path fill="#FFFFFF" d="M327.812,77.309l-0.247-0.044c-20.34-4.807-35.706-14.458-35.851-14.545l-0.392-1.227l4.619-11.757
		l0.617-0.595l0.327-0.051l0.53,0.131c15.86,9.455,31.022,14.015,31.16,14.088l0.734,0.944c0,0.37,0.087,8.736-0.494,12.2
		l-0.428,0.675L327.812,77.309"/>
</g>
<g>
	<path fill="#0C4D98" d="M296.884,50.099c16.157,9.629,31.4,14.182,31.4,14.182s0.102,8.583-0.472,11.989
		c-20.42-4.822-35.546-14.415-35.546-14.415L296.884,50.099 M296.884,48.059l-0.661,0.109l-1.249,1.191l-4.619,11.757
		c-0.349,0.922-0.007,1.953,0.813,2.476c0.632,0.385,15.671,9.833,36.171,14.683l0.472,0.044l1.111-0.341l0.9-1.358
		c0.595-3.558,0.523-12.018,0.523-12.367c-0.029-0.908-0.617-1.692-1.481-1.946c-0.145-0.029-15.206-4.568-30.921-13.964
		L296.884,48.059"/>
</g>
<g>
	<path fill="#0075C1" d="M327.964,50.687l-0.305,20.987c0,29.461-3.101,46.672-14.792,61.34l-10.21-13.398
		c6.478-7.327,9.535-18.43,10.442-28.06c0.102-0.944,1.017-19.302,1.017-20.791V36.941h35.438V26.317h15.475v10.624h36.803v13.747
		H327.964 M372.254,70.425v8.598h28.321v30.042c0,19.832-1.031,23.281-21.662,23.949l-5.613-13.398c12.948,0,13.754,0,13.754-6.761
		v-5.853l-8.729,9.869c-3.536-5.628-7.799-10.326-12.149-14.567c-3.108,7.334-8.591,13.514-15.932,17.08l-5.388-11.917v25.547
		h-13.536V79.023h27.413v-8.598h-28.227V57.47h70.759v12.955H372.254z M344.856,91.746v14.56c6.891-2.854,11.103-7.901,13.173-14.56
		H344.856z M387.054,91.746h-15.816c5.25,4.009,10.878,8.939,15.816,13.87V91.746z"/>
</g>
<g>
	<path fill="#FFFFFF" d="M313.448,78.086l-0.581-0.189l-0.436-0.842l0.145-13.042l0.523-0.893c0.232-0.116,5.555-3.021,13.507-3.021
		l1.736,0.051l0.966,1.031c0,1.126-0.196,10.406-0.196,10.806l-0.675,0.951l-14.625,5.105L313.448,78.086"/>
</g>
<g>
	<path fill="#0C4D98" d="M326.607,61.137l1.692,0.044c0,1.126-0.203,10.791-0.203,10.791l-14.647,5.098l0.16-13.028
		C313.608,64.042,318.829,61.137,326.607,61.137 M326.607,59.082c-8.213,0-13.754,3.035-14.001,3.152
		c-0.646,0.37-1.046,1.038-1.046,1.779l-0.138,13.028c-0.015,0.668,0.298,1.3,0.849,1.699l1.177,0.363l0.697-0.102l14.625-5.098
		c0.784-0.29,1.343-1.046,1.358-1.895c0.007-0.392,0.203-9.702,0.203-10.827c0-1.089-0.842-1.982-1.939-2.055L326.607,59.082"/>
</g>
<g>
	<path fill="#FFFFFF" d="M327.275,85.101l-0.16-0.022l-14.204-2.026l-0.871-1.046l0.291-11.561l0.973-0.995
		c0.929-0.051,1.83-0.073,2.723-0.073c4.909,0,9.23,0.617,12.803,1.808l0.683,0.937c0.044,1.147-1.024,10.254-1.227,12.062
		l-0.392,0.675L327.275,85.101"/>
</g>
<g>
	<path fill="#0C4D98" d="M316.034,70.41c4.618,0,8.903,0.552,12.454,1.743c0.051,1.118-1.213,11.917-1.213,11.917l-14.211-2.048
		l0.291-11.554C314.262,70.418,315.162,70.41,316.034,70.41 M316.034,68.37c-0.908,0-1.823,0.015-2.745,0.051
		c-1.097,0.051-1.953,0.937-1.968,1.99l-0.298,11.568c-0.036,1.038,0.726,1.946,1.757,2.091l14.204,2.019l0.29,0.015l1.256-0.414
		l0.777-1.387c0.385-3.282,1.285-11.06,1.249-12.222c-0.051-0.864-0.588-1.605-1.402-1.859
		C325.474,68.987,321.051,68.37,316.034,68.37"/>
</g>
<g>
	<path fill="#FFFFFF" d="M296.165,114.962l-0.225-0.022l-0.726-0.61l-5.011-12.214l0.341-1.191
		c21.589-16.855,36.607-19.04,37.246-19.135h0.123l0.675,0.232l0.37,0.741c0,0.312,0.269,7.545-0.85,11.924l-0.726,0.733
		c-13.609,3.573-30.362,19.113-30.536,19.28L296.165,114.962"/>
</g>
<g>
	<path fill="#0C4D98" d="M327.914,82.821c0,0,0.298,7.313-0.806,11.604c-14.008,3.689-30.942,19.512-30.942,19.512l-4.996-12.193
		C312.78,84.854,327.914,82.821,327.914,82.821 M327.914,80.766l-0.254,0.015c-0.661,0.094-15.954,2.309-37.754,19.353
		c-0.712,0.545-0.98,1.539-0.617,2.389l4.967,12.214c0.247,0.61,0.799,1.06,1.46,1.205l0.45,0.058l1.394-0.559
		c0.152-0.152,16.731-15.518,30.064-19.033c0.719-0.167,1.285-0.748,1.481-1.467c1.169-4.524,0.879-11.902,0.864-12.229l-0.719-1.46
		L327.914,80.766"/>
</g>
<g>
	<polyline fill="#0C4D98" points="24.799,109.588 54.268,109.551 54.268,98.811 66.024,98.811 66.024,140.153 101.6,140.153 
		101.6,98.811 114.584,98.811 114.584,109.551 148.903,109.551 148.903,15.918 101.6,15.918 101.6,0 66.024,0 66.024,15.918 
		19.941,15.918 19.941,38.996 19.883,38.967 19.905,109.718 24.799,109.588 	"/>
</g>
<g>
	<polyline fill="#FFFFFF" points="96.814,4.8 70.81,4.8 70.81,20.696 24.698,20.696 24.698,47.463 24.654,47.441 24.683,104.802 
		26.005,104.78 49.496,104.78 49.496,94.033 70.81,94.033 70.81,135.36 96.814,135.36 96.814,94.033 119.362,94.033 119.362,104.78 
		144.147,104.78 144.147,20.696 96.814,20.696 96.814,4.8 	"/>
</g>
<g>
	<path fill="#0075C1" d="M123.843,100.678V89.952H93.096v41.32H75.29v-41.32H45.778v10.726H29.185V24.799H75.29V8.888h17.806v15.911
		h47.332v75.879H123.843 M75.29,41.247H45.778v32.228H75.29V41.247z M123.843,41.247H93.096v32.228h30.747V41.247z"/>
</g>
<g>
	<polyline fill="#FFFFFF" points="75.813,51.225 74.833,50.52 73.7,46.998 73.751,46.207 74.397,45.706 140.683,27.036 
		140.966,26.999 141.583,27.195 141.983,28.002 142.077,32.025 141.329,33.048 76.736,50.622 75.966,51.225 75.813,51.225 	"/>
</g>
<g>
	<path fill="#0C4D98" d="M140.966,28.016l0.102,4.023L75.813,49.816v0.399l-1.14-3.529L140.966,28.016 M140.966,25.968l-0.559,0.087
		l-66.307,18.67l-1.235,1.002l-0.145,1.583l1.14,3.522c0.283,0.871,1.075,1.409,1.954,1.409l0.312-0.007l1.278-0.726l64.194-17.472
		c0.915-0.247,1.54-1.082,1.511-2.041l-0.109-4.03l-0.828-1.598L140.966,25.968"/>
</g>
<g>
	<polyline fill="#FFFFFF" points="141.068,93.016 140.741,92.98 73.671,71.405 73.068,70.875 73.025,70.076 74.143,66.932 
		75.102,66.249 75.399,66.307 141.445,86.96 142.164,87.955 142.077,92.014 141.656,92.828 141.068,93.016 	"/>
</g>
<g>
	<path fill="#0C4D98" d="M75.102,67.281l66.039,20.66l-0.073,4.052L73.991,70.403L75.102,67.281 M75.102,65.225
		c-0.857,0-1.641,0.545-1.924,1.38l-1.104,3.13l0.073,1.59l1.22,1.053l67.07,21.553l0.632,0.109l1.184-0.399l0.871-1.605
		l0.065-4.052c0.007-0.915-0.566-1.721-1.445-1.99l-66.024-20.66L75.102,65.225"/>
</g>
<g>
	<polyline fill="#FFFFFF" points="43.448,50.201 42.787,49.954 27.362,36.745 26.985,35.946 27.101,31.378 27.704,30.456 
		28.118,30.362 28.764,30.616 46.432,45.531 46.584,46.969 44.239,49.823 43.527,50.201 43.448,50.201 	"/>
</g>
<g>
	<path fill="#0C4D98" d="M28.118,31.393l17.646,14.923l-2.331,2.876L28.009,35.968L28.118,31.393 M28.118,29.352l-0.843,0.189
		c-0.719,0.305-1.205,1.017-1.205,1.801l-0.102,4.568l0.719,1.619l15.41,13.216l1.336,0.486h0.181l1.409-0.755l2.331-2.861
		c0.712-0.893,0.588-2.15-0.254-2.876L29.439,29.839L28.118,29.352"/>
</g>
<g>
	<polyline fill="#FFFFFF" points="28.074,86.866 27.609,86.771 27.036,85.864 26.999,81.681 27.399,80.882 43.157,68.239 
		43.803,68.007 43.927,68.007 44.617,68.428 46.853,71.369 46.65,72.792 28.691,86.655 28.074,86.866 	"/>
</g>
<g>
	<path fill="#0C4D98" d="M43.803,69.031l2.215,2.956l-17.959,13.87l-0.036-4.176L43.803,69.031 M43.803,66.983l-1.285,0.443
		L26.745,80.069l-0.77,1.619l0.044,4.168c0,0.791,0.45,1.496,1.147,1.844l0.893,0.196l1.242-0.428L47.267,73.62
		c0.9-0.69,1.075-1.946,0.399-2.861l-2.222-2.956l-1.387-0.806L43.803,66.983"/>
</g>
<g>
	<path fill="#FFFFFF" d="M78.05,74.245c0,1.779-1.445,3.217-3.203,3.217H42.22c-1.757,0-3.21-1.438-3.21-3.217V40.92
		c0-1.757,1.452-3.21,3.21-3.21h32.627c1.757,0,3.203,1.452,3.203,3.21V74.245"/>
</g>
<g>
	<path fill="#0C4D98" d="M42.22,78.478c-2.331,0-4.219-1.903-4.234-4.234V40.92c0.015-2.338,1.903-4.234,4.234-4.234h32.627
		c2.324,0,4.226,1.895,4.226,4.234v33.324c0,2.331-1.903,4.234-4.226,4.234H42.22 M40.042,40.92v33.324
		c0,1.191,0.988,2.164,2.178,2.186h32.627c1.184-0.022,2.178-0.995,2.178-2.186V40.92c0-1.184-0.995-2.171-2.178-2.171H42.22
		C41.029,38.749,40.042,39.737,40.042,40.92"/>
</g>
<g>
	<path fill="#0C4D98" d="M46.628,72.981c-1.634,0-2.963-1.343-2.963-2.97V45.147c0-1.627,1.329-2.963,2.963-2.963h23.804
		c1.627,0,2.948,1.336,2.956,2.963v24.864c-0.007,1.627-1.329,2.97-2.956,2.97H46.628 M45.72,45.147v24.864l0.908,0.915h23.804
		l0.908-0.915V45.147l-0.908-0.908H46.628L45.72,45.147"/>
</g>
</svg>
