<?xml version="1.0" encoding="utf-8"?>
<!-- Generator: Adobe Illustrator 27.0.1, SVG Export Plug-In . SVG Version: 6.00 Build 0)  -->
<svg version="1.1" id="레이어_1" xmlns="http://www.w3.org/2000/svg" xmlns:xlink="http://www.w3.org/1999/xlink" x="0px"
	 y="0px" viewBox="0 0 720 377.793" enable-background="new 0 0 720 377.793" xml:space="preserve">
<path d="M392.569,67.767c-11.89,0-21.425-9.552-21.425-21.442c0-11.872,9.534-21.425,21.425-21.425
	c11.89,0,21.443,9.553,21.443,21.425C414.012,58.215,404.459,67.767,392.569,67.767"/>
<path d="M578.206,236.278c-6.14,0-11.612-1.78-14.839-4.674c-2.115-2.097-4.359-5.657-4.526-7.42l0.482-0.649
	c0.482,0,0.334-0.168,1.781,2.411c1.447,2.262,3.71,3.877,5.491,3.877c2.096,0,4.025-2.579,4.025-5.491
	c0-2.263-0.965-5.639-2.894-10.963c-6.14-16.138-11.297-24.039-16.156-24.039c-2.578,0-4.341,2.893-4.341,7.085
	c0,5.323,2.244,14.042,6.455,24.04c4.025,9.85,13.541,26.636,20.812,36.486c2.04,2.783,5.008,6.214,8.403,7.531
	c2.653,1.02,4.934,0.279,6.288-0.816l0.983-1.762c0.037-1.02-1.131-0.834-3.116-1.929c-3.302-1.818-5.12-4.73-5.12-8.013
	c0-5.12,4.378-9.498,9.664-9.498c4.749,0,9.126,4.378,9.126,9.126c0,11.5-20.256,22.297-37.859,22.297
	c-24.355,0-44.37-20.014-44.37-44.704c0-24.855,20.979-45.019,47.115-45.019c10.814,0,21.146,3.544,28.417,9.683
	c6.288,5.157,9.349,11.779,9.349,19.68C603.377,226.764,592.897,236.278,578.206,236.278"/>
<path d="M347.685,274.111c-24.67,0-44.666-19.995-44.666-44.499c0-24.689,19.996-44.666,44.666-44.666
	c24.671,0,44.5,19.977,44.5,44.666C392.185,254.282,372.207,274.111,347.685,274.111 M361.393,245.081
	c-4.025-16.286-7.42-26.117-13.875-41.123c-4.674-10.963-8.05-15.155-12.243-14.839c-2.912,0.166-4.526,2.597-4.526,6.14
	c0,4.675,1.299,12.094,4.526,24.503c3.376,13.393,9.664,30.328,16.286,43.388c2.411,4.674,4.99,6.937,8.05,6.937
	c3.228,0,5.008-2.263,5.008-6.456C364.621,259.271,363.805,254.43,361.393,245.081"/>
<path d="M495.052,232.662l-1.781,3.71l-1.614,3.061c-4.34,8.235-0.798,1.781-9.831,20.163
	c-1.113,2.411-1.929,4.675-1.929,6.436c0,2.431,2.059,4.489,4.971,4.489c2.245,0,6.177-1.447,7.401-2.56
	c2.263-2.096,0.389-5.064-1.521-6.622c-1.948-1.576-2.69-3.932-2.597-5.861c0.315-5.175,3.933-9.219,9.312-9.219
	c5.379,0,9.85,4.73,8.755,9.701c-2.801,12.762-17.919,18.957-35.503,18.79c-12.91-0.13-22.092-7.086-22.092-16.936
	c0-5.323,1.28-9.831,4.674-19.514c2.244-6.12,2.244-6.77,6.27-15.47l2.263-4.841c2.912-6.288,1.465-3.71,3.394-7.735l1.447-3.079
	l1.299-3.06c0.965-2.245,1.447-4.192,1.447-5.807c0-2.244-1.781-3.858-4.044-3.858c-5.305,0-14.821,8.385-20.144,18.067
	c-5.157,9.183-8.7,24.337-8.7,37.229c0,8.719,1.929,15.007,6.437,21.295h-44.592c10.499-16.286,16.62-33.853,16.62-47.727
	c0-13.856-4.359-24.837-13.875-35.151h58.95c-4.192,3.544-6.288,6.288-10.647,13.542c11.445-10.796,23.706-16.602,34.817-16.602
	c11.463,0,20.478,8.533,20.478,19.346C504.716,210.571,502.137,218.157,495.052,232.662"/>
<path d="M712.098,205.555c-3.858,11.613-5.955,22.575-5.955,30.477c0,8.218,1.614,17.252,4.341,23.224
	c1.614,3.71,3.227,6.436,7.253,11.279c-3.376,0-5.305,0.334-7.902,1.131c-5.806,1.929-9.868,4.025-20.998,14.673
	c-1.28,1.299-4.025,3.71-7.587,6.937c-7.568,6.938-35.559,35.467-72.157,29.03c-25.041-4.396-40.437-19.81-33.5-32.665
	c2.449-4.526,6.975-6.677,11.593-4.859c4.73,1.892,6.344,7.178,4.693,12.038c-1.67,4.859-8.44,6.418-12.131,4.211l-1.02,0.761
	c4.897,8.607,16.935,16.749,39.899,11.945c20.052-4.21,31.274-17.362,35.689-21.795c18.382-18.531,20.126-39.158,21.944-45.428
	c-4.025,7.587-6.622,10.963-12.576,16.12c-8.551,7.104-17.9,11.297-25.802,11.297c-9.998,0-18.067-7.587-18.067-17.102
	c0-5.305,1.614-9.832,5.342-20.961l0.631-1.929l0.816-1.781l0.631-1.762l1.948-5.325c5.639-15.804,8.532-25.078,8.532-29.585
	c0-4.044-2.69-7.011-6.733-7.011c-1.911,0-3.413,0.816-3.506,1.762l2.245,2.838c1.669,1.985,2.003,4.007,2.003,6.195
	c0,4.601-4.118,9.033-9.108,9.033c-4.804,0-8.551-3.969-8.551-8.458c0-5.954,3.654-9.812,11.927-12.892
	c5.769-2.114,13.986-2.653,20.608-2.671c14.802-0.093,26.117,6.77,26.117,17.567c0,4.191-0.816,7.901-3.079,15.97
	c-1.595,5.305-3.376,10.796-5.639,16.918c-0.631,1.947-1.28,3.394-2.894,7.753c-1.465,4.025-2.912,7.568-4.025,10.796l-0.649,3.709
	c0,1.781,1.28,3.228,2.894,3.228c3.877,0,9.849-6.122,14.839-15.007c5.472-9.831,8.867-23.539,8.867-35.15
	c0-7.902-1.781-14.839-5.973-22.408H720C716.457,193.461,714.509,197.969,712.098,205.555"/>
<path fill="#E5005A" d="M167.713,306.199c-6.381,13.356-10.981,29.661-10.202,36.766c0.686,6.436,5.157,9.775,8.514,12.724
	c-7.828,0.649-13.652,1.206-24.93,4.489c-2.486,0.761-4.99,1.669-8.477,2.69l-3.32,1.001l-1.836,0.668
	c-10.666,3.803-17.399,4.805-27.304,3.969c-23.873-1.985-46.447-21.999-44.963-39.787c0.761-9.238,6.715-15.303,14.135-14.691
	c6.529,0.556,11.686,6.64,11.111,13.633c-0.464,5.62-5.862,10.388-11.259,9.923c-3.153-0.259-5.769-1.613-7.809-4.043l-1.076-0.761
	l-0.649,1.168c-0.019,2.931,4.971,6.659,9.256,7.03c6.529,0.539,21.461-1.279,29.345-11.481
	c13.671-14.116,57.67-75.996,63.29-91.226c7.846-21.165,5.008-35.911-6.604-50.75h87.738c-9.608,11.593-24.225,31.979-32.294,50.639
	c-6.14,14.228-2.448,23.001,9.238,20.386c8.347-1.874,15.377-6.938,22.686-23.076c5.008-11.036,7.401-19.903,9.145-27.1
	c2.838-11.797-0.353-18.011-1.428-20.849h61.027c-8.885,5.1-23.298,16.527-31.014,32.183c-8.347,16.954-13.077,35.373-13.392,44.741
	c-0.52,15.934,3.098,32.962,7.902,44.964c2.801,7.197,6.288,12.39,13.485,20.182h-92.357c5.398-4.267,14.654-11.111,21.795-25.58
	c4.916-9.943,11.185-28.585,5.732-35.521c-3.283-4.174-11.834-2.245-18.679,0.611C197.67,271.958,179.844,280.731,167.713,306.199"
	/>
<path fill="#E5005A" d="M515.91,169.082c0,0,49.155-27.378,21.127-84.454c-11.426-23.224,2.782-38.972,17.863-43.572
	c15.081-4.6,30.124,3.376,35.8,14.653c7.698,15.248,2.875,30.959,2.875,30.959s6.195-9.311,18.215-12.539
	c25.895-6.938,43.071,21.665,35.781,40.289c-8.347,21.257-25.635,21.999-58.727,32.052
	C567.792,152.87,536.889,163.462,515.91,169.082"/>
<path fill="#E5005A" d="M556.349,278.747c-72.917,27.991-75.848,30.384-70.747,57.521c-13.411-24.132-17.214-24.096-91.169,1.02
	c72.917-28.008,75.848-30.402,70.747-57.52C478.591,303.882,482.393,303.844,556.349,278.747"/>
<path fill="#E5005A" d="M59.805,196.516C18.829,180.583-15.987,144.022,7.7,77.375C37.156-5.54,119.645-13.387,169.69,14.567
	c15.247,8.514,32.35,4.971,61.472-0.445c-43.535,21.09-72.361,65.719-72.361,65.719s24.448-56.575-5.509-66.981
	c-23.02-8.013-45.279,27.656-67.148,91.782c-18.308,53.681-16.973,89.778,17.603,90.149c23.372,0.241,44.5-17.511,47.857-21.313
	l2.523-3.655c-0.074-0.872-0.315-1.057-3.673-2.022c-4.582-1.336-7.512-5.101-8.291-9.46c-1.354-7.66,3.061-13.782,10.462-15.006
	c7.679-1.28,14.19,3.042,15.452,10.722c1.169,7.122-1.985,13.096-9.738,20.682c-5.88,5.082-23.335,20.997-51.14,25.634
	C87.758,203.621,68.857,200.022,59.805,196.516"/>
<path d="M456.729,370.596c-3.135,3.283-8.793,7.031-14.506,6.437c-5.472-0.575-9.404-3.024-9.404-7.216
	c0-2.262,0.519-3.932,1.966-8.05c0.965-2.615,5.398-12.613,5.398-12.613l0.612-2.486l-1.706-1.633c-2.282,0-6.418,3.395-8.681,7.513
	c-2.189,3.914-2.764,8.235-2.764,13.744c0,3.692,0.853,6.474,2.764,9.164h-21.276c4.452-6.938,7.067-14.432,7.067-20.33
	c0-5.917-1.855-10.591-5.899-14.987h27.397c-1.799,1.52-2.69,2.69-4.545,5.768c4.878-4.6,11.056-7.067,15.804-7.067
	c4.86,0,8.718,3.635,8.718,8.236c0,2.615-1.113,5.843-4.118,12.019c-0.297,0.482-4.341,9.516-5.045,11.464
	c-0.816,2.319-0.761,3.246,1.002,2.987l6.14-4.453L456.729,370.596z"/>
<path d="M461.828,375.451c5.027-4.804,8.05-11.408,8.05-17.733c0-5.768-3.098-12.835-7.642-17.565h25.95
	c-4.526,4.73-7.605,11.797-7.605,17.565c0,6.325,3.005,12.929,8.032,17.733H461.828z"/>
<path d="M520.483,370.75c3.227,3.099,3.469,2.987,6.418,4.694h-32.739c3.524-4.396,4.953-8.367,4.953-14.135
	c0-5.157-1.224-10.369-3.45-14.635c-1.298-2.542-2.801-4.321-5.527-6.529h20.515c-1.929,2.059-2.801,4.396-2.801,7.828
	c0,5.917,2.95,12.299,9.126,19.587c0.371-3.171,0.649-6.529,0.649-8.458c0-3.784-0.872-8.718-2.226-12.835
	c-0.872-2.616-1.651-4.062-3.302-6.122h20.2C525.157,349.716,522.17,357.303,520.483,370.75"/>
<path d="M562.69,374.31c-3.098,2.115-8.125,3.154-12.966,2.524c-10.406-1.354-17.288-8.385-17.288-18.902
	c0-10.572,8.755-19.161,19.662-19.161c4.508,0,8.811,1.52,11.834,4.118c2.634,2.208,3.914,5.027,3.914,8.385
	c0,5.638-4.378,9.366-10.499,9.682c-5.305,0.279-7.03-2.522-7.03-2.522l2.189-0.223l1.688-2.337c0-0.965-0.408-2.411-1.224-4.675
	c-2.56-6.863-4.508-9.237-6.511-9.237c-1.095,0-1.837,1.224-1.837,3.005c0,2.281,0.742,5.009,2.486,9.257
	c1.095,2.708,3.32,8.18,6.604,12.817c1.762,2.522,4.396,4.452,7.735,3.747c3.543-0.761,5.713-4.044,6.084-6.623l1.317,0.093
	C568.848,364.256,568.681,370.229,562.69,374.31"/>
<path d="M608.673,360.958c-2.059,2.134-5.008,2.95-7.809,2.95c-4.823,0-7.531-2.635-7.531-7.086
	c0-1.818,0.241-3.543,1.132-6.102c0.612-1.725,1.762-4.823,1.836-5.584l-1.836-2.337c-2.801,0-5.824,5.676-5.769,11.388
	c0.037,4.267,0.371,8.069,3.45,13.078c2.133,3.376,3.32,5.286,6.752,8.18h-26.896c2.003-1.724,2.69-3.078,3.803-5.082
	c1.836-3.283,3.005-8.032,3.005-12.297c0-3.636-0.89-7.624-2.319-10.573c-1.169-2.263-1.799-3.914-4.489-7.345h17.251l-1.261,4.025
	l0.093,3.005c2.522-7.271,8.161-9.367,14.543-9.367c4.953,0,8.31,2.542,8.31,6.252c0,1.781-0.686,3.839-2.393,7.753
	c-0.909,2.022-1.039,3.562-0.39,4.786l2.745,1.502L608.673,360.958"/>
<path d="M635.963,376.654c-1.892,0-3.469-0.129-7.012-0.686c-3.19-0.482-5.417-0.686-7.086-0.686
	c-1.243,0-2.819,0.148-4.711,0.409c0.371-1.856,0.371-2.263,0.519-3.006l0.204-2.764l0.148-3.301c0-0.743-0.074-1.985-0.222-4.378
	c-0.13-2.615-0.204-3.098-0.649-5.768c2.189,5.416,4.415,9.404,7.234,12.762c2.968,3.505,6.622,4.489,8.644,4.489l1.744-1.447
	c-0.594-1.224-1.948-2.819-5.101-5.861c-2.968-2.801-5.417-5.343-7.012-7.197c-3.988-4.471-5.639-7.829-5.639-11.482
	c0-5.009,4.044-8.57,9.831-8.57c1.224,0,3.172,0.13,5.064,0.334c5.194,0.538,6.641,0.687,9.033,0.687
	c2.096,0,3.914-0.391,7.049-1.522l-0.89,4.471c-0.223,2.058-0.371,5.304-0.371,6.733c0,2.337,0.222,5.157,0.723,8.718
	c-1.818-5.286-3.691-8.921-6.01-11.945c-2.597-3.301-5.027-4.507-7.457-4.414l-2.115,1.965c0.297,0.909,1.113,2.227,3.506,4.489
	l1.298,1.243l1.224,1.299c7.587,7.42,9.924,10.257,9.924,15.266C647.834,372.871,643.42,376.654,635.963,376.654"/>
<path fill="#E5005A" d="M365.45,375.234c-7.791,0-13.263,0.241-19.904,1.169c-6.752,0.927-14.301,1.39-17.102,1.39
	c-7.549,0-17.418-0.408-23.131-5.063c-6.047-4.898-8.273-11.093-8.273-18.661c0-9.07,5.249-17.919,17.585-29.809
	c3.487-3.246,6.177-6.047,8.143-8.366c2.69-3.024,4.192-6.752,4.192-10.128c0-5.935-1.632-10.034-14.32-10.034
	c-2.82,0-4.229,0.408-4.229,1.41c0,0.612,0.204,0.797,2.022,2.226c2.207,1.613,3.413,4.414,3.413,7.642
	c0,7.067-4.823,11.89-11.463,11.89c-6.863,0-11.686-5.045-11.686-12.076c0-5.454,2.819-9.682,8.254-12.094
	c3.821-1.818,10.016-2.337,15.303-2.337l47.931,0.111c-9.646,17.567-14.19,27.583-18.735,40.716
	c-4.767,14.209-7.679,26.488-7.679,33.592c0,4.657,2.393,6.566,5.175,6.566c2.912,0,6.288-1.224,8.718-6.343
	c6.492-14.617,10.796-26.748,13.949-40.734c2.207-9.535,5.417-22.631,5.417-27.045c0-2.338-0.352-4.786-0.928-6.752h36.876
	c-10.592,19.31-16.008,31.422-16.008,46.318c0,10.35,1.262,16.99,4.878,24.541c2.337,5.12,4.433,7.921,8.273,11.871H365.45z"/>
<path d="M684.71,374.31c-3.098,2.115-8.125,3.154-12.966,2.524c-10.406-1.354-17.288-8.385-17.288-18.902
	c0-10.572,8.755-19.161,19.662-19.161c4.508,0,8.811,1.52,11.834,4.118c2.634,2.208,3.914,5.027,3.914,8.385
	c0,5.638-4.378,9.366-10.499,9.682c-5.305,0.279-7.011-2.522-7.011-2.522l2.17-0.223l1.688-2.337c0-0.965-0.408-2.411-1.224-4.675
	c-2.56-6.863-4.508-9.237-6.511-9.237c-1.095,0-1.837,1.224-1.837,3.005c0,2.281,0.742,5.009,2.486,9.257
	c1.095,2.708,3.32,8.18,6.604,12.817c1.762,2.522,4.396,4.452,7.735,3.747c3.543-0.761,5.713-4.044,6.084-6.623l1.317,0.093
	C690.868,364.256,690.701,370.229,684.71,374.31"/>
<path d="M345.417,93.219c-5.639,9.516-8.718,21.462-8.718,33.89c0,9.998,2.115,18.549,5.806,24.856
	c2.43,3.857,4.693,6.436,10.184,11.129h-55.852c4.21-5.009,6.14-8.403,8.403-13.875c3.877-9.683,5.973-20.831,5.973-32.609
	c0-17.251-3.394-26.47-13.56-36.468c19.848-4.841,33.89-14.024,53.737-35.503c-3.877,7.104-5.639,13.244-5.639,19.366
	c0,8.069,4.507,14.375,11.612,16.138C351.557,84.502,348.496,87.896,345.417,93.219"/>
<path d="M362.235,163.683c11.779-12.483,18.883-27.229,18.883-42.088c0-13.541-7.271-31.032-17.919-41.754h58.746
	c-10.647,10.722-17.919,28.213-17.919,41.754c0,14.858,7.104,29.605,18.883,42.088H362.235z"/>
<path d="M487.217,129.04c-6.14,0-11.612-1.78-14.839-4.674c-2.115-2.097-4.359-5.657-4.526-7.42l0.482-0.649
	c0.482,0,0.334-0.168,1.781,2.411c1.447,2.262,3.71,3.877,5.491,3.877c2.096,0,4.025-2.579,4.025-5.491
	c0-2.263-0.965-5.639-2.894-10.963c-6.14-16.138-11.297-24.058-16.156-24.058c-2.578,0-4.341,2.912-4.341,7.104
	c0,5.323,2.263,14.042,6.455,24.04c4.025,9.85,13.56,26.636,20.812,36.468c2.04,2.801,5.008,6.233,8.403,7.549
	c2.653,1.02,4.953,0.279,6.288-0.816l0.983-1.762c0.037-1.02-1.113-0.834-3.116-1.929c-3.302-1.818-5.12-4.73-5.12-8.013
	c0-5.12,4.378-9.498,9.664-9.498c4.749,0,9.126,4.378,9.126,9.126c0,11.5-20.256,22.297-37.84,22.297
	c-24.374,0-44.388-20.014-44.388-44.704c0-24.855,20.979-45.019,47.115-45.019c10.814,0,21.146,3.544,28.417,9.683
	c6.288,5.157,9.349,11.779,9.349,19.68C512.388,119.525,501.907,129.04,487.217,129.04"/>
<path d="M271.544,130.877c0,14.339,4.34,24.17,14.172,32.221H232.35c2.263-4.36,3.395-6.938,5.954-12.558
	c3.561-7.736,4.526-10.648,7.104-19.013c-3.877,7.568-5.806,10.943-9.831,15.952c-9.831,12.391-25.505,17.715-36.301,17.715
	c-10.48,0-18.197-7.568-18.197-18.049c0-5.305,1.28-9.979,5.454-20.125c0.241-0.594,3.265-7.568,6.047-15.062
	c3.376-9.089,6.641-19.013,6.993-20.164c0.798-2.578,1.132-4.674,1.132-6.436c0-3.228-2.819-6.233-7.995-5.731
	c-2.801,0.277-7.531,2.467-7.531,3.764l1.521,1.095c3.784,1.206,5.917,5.12,5.917,8.83c0,5.009-3.932,9.478-9.386,9.478
	c-5.435,0-9.46-4.321-9.2-9.107c0.779-13.56,19.569-18.958,35.522-18.958c15.303,0,26.618,6.77,26.618,17.084
	c0,4.675-2.059,13.188-6.77,26.488c-4.433,12.465-10.573,29.345-10.573,29.345c-0.965,2.43-1.447,4.359-1.447,5.638l2.578,2.894
	c3.228,0,13.782-8.885,19.588-18.994c5.509-9.571,9.72-22.742,9.72-32.888c0-8.532-1.929-16.917-5.787-24.003h44.982
	C277.814,97.378,271.544,116.057,271.544,130.877"/>
</svg>
