<?xml version="1.0" encoding="utf-8"?>
<!-- Generator: Adobe Illustrator 27.2.0, SVG Export Plug-In . SVG Version: 6.00 Build 0)  -->
<svg version="1.1" id="레이어_1" xmlns="http://www.w3.org/2000/svg" xmlns:xlink="http://www.w3.org/1999/xlink" x="0px"
	 y="0px" viewBox="0 0 720 368.69" enable-background="new 0 0 720 368.69" xml:space="preserve">
<g>
	<path d="M5.95,83.742c0-34.129,0-34.129,0-34.129c7.141,0,7.141,0,7.141,0c5.156,0,8.727,0.388,11.108,1.179
		c3.173,1.192,5.95,3.174,7.934,5.961c1.587,2.772,2.777,6.349,2.777,10.314c0,3.576-0.794,6.349-2.381,9.135
		c-1.586,2.371-3.173,4.366-5.553,5.559c-2.38,1.179-5.951,1.982-9.918,1.982H5.95z M9.52,80.567c3.967,0,3.967,0,3.967,0
		c4.364,0,7.934-0.402,9.521-1.192c2.776-0.804,4.759-1.982,5.95-4.367c1.587-1.982,2.38-4.768,2.38-7.943
		c0-3.174-0.793-5.947-2.38-8.331c-1.587-2.384-3.967-3.965-6.744-4.768c-1.983-0.79-5.553-1.179-10.313-1.179
		c-2.381,0-2.381,0-2.381,0V80.567z"/>
	<rect x="40.462" y="49.612" width="3.173" height="34.13"/>
	<path d="M83.702,55.158c-2.38,2.384-2.38,2.384-2.38,2.384c-1.983-1.581-3.967-3.174-6.346-3.965
		c-2.381-1.192-4.365-1.594-6.744-1.594c-2.381,0-5.157,0.803-7.538,1.982c-2.381,1.192-4.363,3.174-5.553,5.559
		c-1.19,1.983-1.984,4.367-1.984,6.751c0,2.772,0.794,5.157,1.984,7.541c1.587,2.384,3.173,3.965,5.553,5.559
		c2.777,1.192,5.157,1.982,8.331,1.982c3.174,0,6.348-1.192,8.728-3.174c2.381-1.982,3.967-4.367,4.363-7.541
		c-10.711,0-10.711,0-10.711,0c0-3.576,0-3.576,0-3.576c14.678,0,14.678,0,14.678,0c-0.396,5.559-1.587,9.523-4.761,12.698
		c-3.173,3.174-7.536,4.768-12.694,4.768c-5.951,0-11.108-1.982-14.678-6.349c-2.776-3.576-4.363-7.139-4.363-11.506
		c0-3.174,0.793-6.349,2.379-9.135c1.587-2.772,3.967-4.755,6.745-6.349c2.777-1.581,5.95-2.384,9.521-2.384
		c2.776,0,5.553,0.402,8.33,1.594C78.943,51.194,81.322,52.787,83.702,55.158"/>
	<rect x="91.24" y="49.612" width="3.57" height="34.13"/>
	<polygon points="98.776,52.787 98.776,49.613 117.421,49.613 117.421,52.787 109.487,52.787 109.487,83.742 106.314,83.742 
		106.314,52.787 	"/>
	<path d="M135.673,49.613l15.866,34.129h-3.575l-5.556-11.117h-14.672l-5.157,11.117h-3.967l16.259-34.129H135.673z M135.272,56.752
		l-5.95,12.296h11.907L135.272,56.752z"/>
	<polygon points="156.292,49.613 159.465,49.613 159.465,80.166 172.96,80.166 172.96,83.742 156.292,83.742 	"/>
	<path d="M214.21,71.044c2.383,2.371,2.383,2.371,2.383,2.371c-1.58,1.594-3.173,2.384-4.365,3.576
		c0.79,0.79,1.982,1.982,3.575,3.576c1.192,1.192,1.982,1.983,3.173,3.174c-4.767,0-4.767,0-4.767,0
		c-4.753-4.768-4.753-4.768-4.753-4.768c-2.785,2.384-5.154,3.965-6.747,4.367c-1.58,0.79-3.575,1.192-5.556,1.192
		c-2.771,0-4.753-0.79-6.346-2.384c-1.58-1.581-2.384-3.174-2.384-5.559c0-1.581,0.402-3.174,1.593-5.157
		c1.192-1.581,3.173-3.577,6.347-6.349c-1.58-2.384-2.772-3.965-3.575-5.157c-0.388-0.79-0.388-1.983-0.388-2.786
		c0-1.982,0.388-3.174,1.579-4.353c1.593-1.192,3.575-1.996,5.958-1.996c1.192,0,2.37,0.402,3.562,0.804
		c1.191,0.79,2.383,1.58,2.784,2.371c0.79,1.192,0.79,1.996,0.79,3.174c0,1.192-0.402,2.384-1.192,3.576
		c-0.79,1.192-2.383,3.174-4.753,5.157c5.154,5.17,5.154,5.17,5.154,5.17c3.562,3.563,3.562,3.563,3.562,3.563
		C211.84,73.027,213.018,72.223,214.21,71.044 M198.747,67.856c-2.785,1.996-4.767,3.577-5.556,5.17
		c-0.79,1.192-1.192,2.371-1.192,3.174c0,1.581,0.402,2.772,1.593,3.563c0.79,1.192,2.37,1.594,3.963,1.594
		c1.192,0,2.383-0.402,3.575-0.79c1.58-0.803,3.561-1.996,5.945-3.978c-5.155-5.545-5.155-5.545-5.155-5.545
		C201.13,70.24,199.938,69.048,198.747,67.856 M199.135,63.101c1.593-1.192,3.173-2.384,3.976-3.577
		c0.388-1.192,0.79-1.982,0.79-2.384c0-0.79-0.401-1.581-1.191-1.982c-0.79-0.79-1.58-1.192-3.173-1.192
		c-1.192,0-1.982,0.402-2.771,1.192c-0.803,0.402-1.192,1.192-1.192,1.982c0,0.402,0,1.192,0.388,1.594
		C196.765,60.329,197.957,61.507,199.135,63.101"/>
	<path d="M266.184,55.962c-2.785,1.982-2.785,1.982-2.785,1.982c-1.58-1.982-3.173-3.576-5.543-4.366
		c-1.995-1.192-3.977-1.594-6.748-1.594s-5.154,0.803-7.537,1.982c-2.384,1.192-3.963,3.174-5.155,5.17
		c-1.191,2.371-1.982,4.755-1.982,7.541c0,4.367,1.58,7.541,4.365,10.314c2.772,2.773,6.347,4.367,10.711,4.367
		c4.753,0,8.715-1.982,11.889-5.559c2.785,1.983,2.785,1.983,2.785,1.983c-1.982,1.982-3.963,3.576-6.346,4.768
		c-2.785,1.192-5.556,1.982-8.73,1.982c-5.958,0-10.309-1.982-13.883-5.961c-2.785-3.563-4.365-7.527-4.365-12.296
		s1.982-9.135,5.155-12.31c3.575-3.563,7.939-5.157,13.094-5.157c3.173,0,5.945,0.402,8.73,1.982
		C262.221,51.984,264.591,53.578,266.184,55.962"/>
	<path d="M288.798,48.81c5.154,0,9.117,1.594,12.692,5.157c3.575,3.174,5.154,7.541,5.154,12.711c0,4.755-1.579,9.121-5.154,12.698
		c-3.575,3.563-7.538,5.157-12.692,5.157c-4.767,0-9.131-1.594-12.692-5.157c-3.575-3.577-5.168-7.541-5.168-12.698
		c0-3.174,0.803-6.349,2.383-9.135c1.593-2.772,3.575-4.755,6.346-6.349C282.451,49.613,285.624,48.81,288.798,48.81
		 M288.798,51.984c-2.384,0-4.767,0.803-7.15,1.982c-2.37,1.192-3.963,3.174-5.155,5.559c-1.579,1.983-1.981,4.367-1.981,7.153
		c0,3.965,1.191,7.541,3.962,10.314c3.173,2.773,6.346,4.367,10.323,4.367c2.771,0,5.154-0.79,7.136-1.982
		c2.383-1.594,3.963-3.174,5.556-5.559c1.192-1.982,1.58-4.366,1.58-7.139c0-2.786-0.388-5.17-1.58-7.541
		c-1.593-1.996-3.173-3.978-5.556-5.17C293.952,52.787,291.18,51.984,288.798,51.984"/>
	<polygon points="312.99,83.742 312.99,49.613 313.781,49.613 336.394,75.799 336.394,49.613 339.968,49.613 339.968,83.742 
		339.178,83.742 316.565,57.944 316.565,83.742 	"/>
	<polygon points="344.333,52.787 344.333,49.613 362.581,49.613 362.581,52.787 355.044,52.787 355.044,83.742 351.87,83.742 
		351.87,52.787 	"/>
	<polygon points="367.334,49.613 386.774,49.613 386.774,52.787 370.909,52.787 370.909,63.503 386.774,63.503 386.774,67.066 
		370.909,67.066 370.909,80.166 386.774,80.166 386.774,83.742 367.334,83.742 	"/>
	<polygon points="392.33,83.742 392.33,49.613 393.12,49.613 415.345,75.799 415.345,49.613 418.907,49.613 418.907,83.742 
		418.117,83.742 395.905,57.944 395.905,83.742 	"/>
	<polygon points="423.271,52.787 423.271,49.613 441.921,49.613 441.921,52.787 434.384,52.787 434.384,83.742 430.809,83.742 
		430.809,52.787 	"/>
	<path d="M442.711,77.393c3.173-1.996,3.173-1.996,3.173-1.996c1.982,3.978,4.365,5.961,6.748,5.961c1.191,0,2.383-0.402,3.173-0.79
		c1.192-0.803,1.982-1.594,2.383-2.384c0.388-0.79,0.79-1.982,0.79-2.786c0-1.179-0.402-2.371-1.192-3.563
		c-0.79-1.192-2.771-3.174-5.556-5.157c-3.173-2.384-4.753-3.978-5.556-4.768c-1.191-1.581-1.579-3.174-1.579-5.157
		c0-1.594,0.388-2.786,0.79-3.965c0.79-1.192,1.982-2.384,3.173-2.786c1.191-0.79,2.784-1.192,4.365-1.192
		c1.593,0,2.771,0.402,4.365,1.192c1.192,0.79,2.771,2.384,4.365,4.367c-2.785,1.982-2.785,1.982-2.785,1.982
		c-1.178-1.58-2.369-2.772-3.173-3.174c-0.79-0.79-1.982-0.79-3.173-0.79c-1.178,0-2.369,0.402-3.173,1.192
		c-0.79,0.79-1.192,1.982-1.192,3.174c0,0.388,0,1.192,0.402,1.982c0.401,0.79,0.79,1.594,1.593,2.384
		c0.388,0.389,1.982,1.581,4.365,3.174c2.771,2.384,5.154,4.367,5.944,5.947c1.192,1.594,1.594,3.174,1.594,5.157
		c0,2.384-0.803,4.367-2.785,6.362c-1.58,1.982-3.963,2.773-6.748,2.773c-1.981,0-3.962-0.79-5.543-1.594
		C445.884,81.76,444.305,79.764,442.711,77.393"/>
</g>
<g>
	<polygon fill="#00B2D5" points="720,93.654 583.932,0 486.344,187.321 583.932,204.787 	"/>
	<polygon fill="#00B2D5" points="543.071,45.246 475.245,175.815 481.979,10.314 	"/>
</g>
<g>
	<path d="M121.786,234.951c-9.918,1.184-21.026,2.375-32.927,2.773c-12.297,0.793-23.008,1.191-32.132,1.191
		c-43.24,0-43.24,0-43.24,0c0-79.775,0-79.775,0-79.775C0,154.772,0,154.772,0,154.772c1.983-10.716,1.983-10.716,1.983-10.716
		c103.934,0,103.934,0,103.934,0c0,15.886,0,15.886,0,15.886c-69.025,0-69.025,0-69.025,0c0,63.101,0,63.101,0,63.101
		c20.232,0,20.232,0,20.232,0c11.108,0,22.612-0.402,33.72-1.192c11.503-0.402,21.818-1.192,30.942-2.384V234.951z M167.806,116.679
		c-0.803,2.384-1.593,5.559-1.982,9.121c-0.803,3.978-1.192,7.541-1.192,10.716c0,152.8,0,152.8,0,152.8
		c-23.403,0-23.403,0-23.403,0c0-160.73,0-160.73,0-160.73c-23.411-13.501-23.411-13.501-23.411-13.501
		c4.76-9.122,4.76-9.122,4.76-9.122L167.806,116.679z"/>
	<path d="M290.779,158.75c9.921,9.523,15.075,21.431,15.075,34.919c0,13.488-5.154,25.007-15.075,34.919
		c-10.309,9.531-22.212,14.691-36.096,14.691c-13.884,0-26.188-5.16-36.109-14.691c-9.907-9.912-15.075-21.431-15.075-34.919
		c0-13.488,5.168-25.396,15.075-34.919c9.921-9.925,22.225-14.694,36.109-14.694C268.567,144.057,280.47,148.825,290.779,158.75
		 M272.932,217.873c5.155-6.737,7.538-14.68,7.538-24.204c0-9.523-2.383-17.855-7.538-24.204
		c-5.168-6.349-11.113-9.523-18.249-9.523c-7.15,0-13.094,3.174-18.249,9.523c-5.168,6.349-7.939,14.68-7.939,24.204
		c0,9.523,2.771,17.466,7.939,24.204c5.155,6.362,11.099,9.537,18.249,9.537C261.819,227.41,267.764,224.236,272.932,217.873
		 M282.84,362.738c0-60.721,0-60.721,0-60.721c-16.655-7.938-16.655-7.938-16.655-7.938c3.962-9.128,3.962-9.128,3.962-9.128
		c39.268,5.556,39.268,5.556,39.268,5.556c-0.79,1.587-1.58,4.365-2.369,8.732c-0.803,4.365-1.192,7.938-1.192,11.112
		c0,36.512,0,36.512,0,36.512c80.92,0,80.92,0,80.92,0c0,15.875,0,15.875,0,15.875H282.84z M340.758,205.175
		c0,71.838,0,71.838,0,71.838c-22.613,0-22.613,0-22.613,0c0-134.939,0-134.939,0-134.939
		c-17.847-12.296-17.847-12.296-17.847-12.296c4.767-8.345,4.767-8.345,4.767-8.345c38.077,10.327,38.077,10.327,38.077,10.327
		c-0.79,1.982-1.192,4.755-1.593,8.331c-0.388,3.576-0.79,6.751-0.79,9.925c0,37.705,0,37.705,0,37.705c24.595,0,24.595,0,24.595,0
		c0-55.573,0-55.573,0-55.573c-21.422-12.698-21.422-12.698-21.422-12.698c5.155-9.523,5.155-9.523,5.155-9.523
		c43.245,9.925,43.245,9.925,43.245,9.925c-0.79,1.983-1.579,5.157-2.383,9.122c-0.79,4.367-1.192,7.943-1.192,10.327
		c0,142.871,0,142.871,0,142.871c-23.403,0-23.403,0-23.403,0c0-76.998,0-76.998,0-76.998H340.758z"/>
	<path d="M494.284,232.955c-7.538,7.943-15.477,14.69-23.805,19.453c-7.136-5.954-7.136-5.954-7.136-5.954
		c3.173-3.571,6.734-7.143,9.921-11.503c3.561-4.366,6.734-9.135,9.907-13.89c-16.267-21.833-16.267-21.833-16.267-21.833
		c-5.543,8.733-11.889,16.663-18.637,23.815c-7.136,7.139-14.285,13.092-21.421,18.251c-6.748-5.955-6.748-5.955-6.748-5.955
		c10.323-11.104,20.23-24.605,28.96-40.88c8.729-16.663,12.692-30.954,11.902-42.862c-12.305-11.506-12.305-11.506-12.305-11.506
		c4.365-6.751,4.365-6.751,4.365-6.751c36.899,10.715,36.899,10.715,36.899,10.715c-1.192,7.153-3.173,13.89-5.556,21.431
		c-2.384,7.153-5.556,14.292-9.52,21.043c18.651,17.064,18.651,17.064,18.651,17.064c5.154-9.523,9.117-19.047,12.692-28.584
		c3.173-9.523,4.753-18.243,4.753-25.784c-12.291-11.519-12.291-11.519-12.291-11.519c4.365-7.139,4.365-7.139,4.365-7.139
		c37.287,11.117,37.287,11.117,37.287,11.117c-1.593,8.331-3.962,16.663-7.136,25.396c-3.173,8.733-7.149,17.466-11.514,25.797
		c39.281,34.531,39.281,34.531,39.281,34.531c-15.075,19.044-15.075,19.044-15.075,19.044
		c-31.744-40.087-31.744-40.087-31.744-40.087C508.168,215.891,501.821,224.624,494.284,232.955 M598.606,116.679
		c-0.79,2.384-1.178,5.559-1.982,9.121c-0.79,3.978-1.191,7.541-1.191,10.716c0,152.8,0,152.8,0,152.8c-23.404,0-23.404,0-23.404,0
		c0-160.73,0-160.73,0-160.73c-23.403-13.501-23.403-13.501-23.403-13.501c5.155-9.122,5.155-9.122,5.155-9.122L598.606,116.679z"/>
	<path d="M412.172,352.419c0-27.384,0-27.384,0-27.384c-4.365-1.191-4.365-1.191-4.365-1.191c0.79-4.763,0.79-4.763,0.79-4.763
		c35.707,0,35.707,0,35.707,0c0,33.337,0,33.337,0,33.337H412.172z M434.771,325.432c-13.08,0-13.08,0-13.08,0
		c0,20.638,0,20.638,0,20.638c13.08,0,13.08,0,13.08,0V325.432z M465.726,310.351c-0.401,0.396-0.401,1.587-0.803,3.174
		c-0.388,1.985-0.388,3.176-0.388,3.572c0,51.592,0,51.592,0,51.592c-9.519,0-9.519,0-9.519,0c0-53.578,0-53.578,0-53.578
		c-7.939-4.762-7.939-4.762-7.939-4.762c1.982-3.969,1.982-3.969,1.982-3.969L465.726,310.351z"/>
	<path d="M516.897,350.435c-3.173,0.396-7.15,0.793-11.501,1.191c-4.365,0-7.939,0.396-11.112,0.396c-15.076,0-15.076,0-15.076,0
		c0-26.987,0-26.987,0-26.987c-4.365-1.587-4.365-1.587-4.365-1.587c0.402-3.969,0.402-3.969,0.402-3.969
		c36.496,0,36.496,0,36.496,0c0,5.953,0,5.953,0,5.953c-23.014,0-23.014,0-23.014,0c0,20.24,0,20.24,0,20.24
		c5.958,0,5.958,0,5.958,0c3.562,0,7.524,0,11.501-0.397c3.962-0.396,7.537-0.396,10.711-0.794V350.435z M532.36,310.351
		c-0.388,0.396-0.388,1.587-0.79,3.174c-0.402,1.985-0.402,3.176-0.402,3.572c0,51.592,0,51.592,0,51.592c-9.519,0-9.519,0-9.519,0
		c0-53.578,0-53.578,0-53.578c-7.926-4.762-7.926-4.762-7.926-4.762c1.982-3.969,1.982-3.969,1.982-3.969L532.36,310.351z"/>
	<path d="M572.03,347.657c-3.561,2.382-7.537,3.969-11.902,3.969c-5.155,0-9.52-1.587-13.483-5.16
		c-3.575-3.176-5.154-7.541-5.154-12.303c0-4.763,1.58-8.732,5.154-11.906c3.963-3.572,8.328-5.16,13.483-5.16
		c4.365,0,8.341,1.587,11.902,3.969c3.575,2.778,5.556,5.952,6.347,9.921c10.711,0,10.711,0,10.711,0c0-15.875,0-15.875,0-15.875
		c-7.926-4.762-7.926-4.762-7.926-4.762c1.982-3.969,1.982-3.969,1.982-3.969c16.267,3.969,16.267,3.969,16.267,3.969
		c0,0.396-0.401,1.587-0.401,3.174c-0.402,1.985-0.402,3.176-0.402,3.572c0,51.592,0,51.592,0,51.592c-9.519,0-9.519,0-9.519,0
		c0-30.955,0-30.955,0-30.955c-10.711,0-10.711,0-10.711,0C577.586,341.703,575.203,344.879,572.03,347.657 M565.684,342.101
		c1.982-1.985,2.785-4.763,2.785-7.937c0-2.778-0.803-5.556-2.785-7.541c-1.58-2.382-3.561-3.174-5.556-3.174
		c-2.37,0-4.365,0.793-5.945,3.174c-1.593,1.985-2.383,4.763-2.383,7.541c0,3.174,0.79,5.953,2.383,7.937
		c1.58,2.38,3.575,3.174,5.945,3.174C562.123,345.275,564.104,344.481,565.684,342.101"/>
</g>
<g>
</g>
<g>
</g>
<g>
</g>
<g>
</g>
<g>
</g>
<g>
</g>
<g>
</g>
<g>
</g>
<g>
</g>
<g>
</g>
<g>
</g>
<g>
</g>
<g>
</g>
<g>
</g>
<g>
</g>
</svg>
