<?xml version="1.0" encoding="utf-8"?>
<!-- Generator: Adobe Illustrator 27.0.1, SVG Export Plug-In . SVG Version: 6.00 Build 0)  -->
<svg version="1.1" id="레이어_1" xmlns="http://www.w3.org/2000/svg" xmlns:xlink="http://www.w3.org/1999/xlink" x="0px"
	 y="0px" viewBox="0 0 720 262.026" enable-background="new 0 0 720 262.026" xml:space="preserve">
<polygon fill="#926453" points="356.59,115.607 356.995,117.106 354.627,118.17 352.708,119.654 350.909,121.273 349.71,123.417 
	348.181,125.291 346.697,127.164 345.393,129.218 344.299,131.362 342.755,133.4 341.735,135.739 341.151,138.197 340.461,140.625 
	339.427,142.979 339.112,145.767 337.029,143.983 335.05,142.484 332.846,141.24 331.302,139.201 328.979,138.077 327.465,136.008 
	325.546,134.419 323.642,132.786 322.188,130.732 320.225,129.143 318.636,127.194 317.392,124.991 315.683,123.177 
	314.124,121.198 312.88,119.04 311.111,117.181 310.242,114.783 308.847,112.714 307.723,110.466 306.224,108.442 304.965,106.268 
	304.32,103.795 303.376,101.487 302.162,99.298 300.933,97.095 300.063,94.726 299.194,92.388 298.909,89.839 297.86,87.561 
	297.02,85.192 296.421,82.749 295.716,80.336 295.476,77.817 294.622,75.434 294.097,73.006 293.438,70.563 293.303,68.044 
	292.628,65.646 292.299,63.157 292.014,60.669 291.354,58.226 290.785,55.782 290.74,53.249 290.38,50.776 289.975,48.302 
	289.72,45.799 289.495,43.281 289.616,40.763 289.586,38.229 289.196,35.981 289.616,38.244 290.919,40.448 291.729,42.831 
	292.074,45.365 293.198,47.613 293.933,50.026 295.087,52.26 295.986,54.613 297.455,56.667 298.34,59.035 299.269,61.389 
	300.993,63.322 301.862,65.706 303.031,67.924 304.44,69.993 305.67,72.196 307.438,74.055 308.877,76.109 310.436,78.058 
	311.725,80.231 313.419,82.09 314.858,84.158 316.372,86.152 318.246,87.831 319.895,89.735 321.394,91.788 323.358,93.407 
	324.977,95.341 327.09,96.765 328.724,98.729 330.763,100.213 332.652,101.891 334.855,103.121 336.924,104.559 339.007,105.998 
	341.046,107.438 343.159,108.817 345.438,109.881 347.716,110.945 349.77,112.474 352.048,113.524 354.417,114.408 "/>
<polygon fill="#926453" points="482.372,141.151 480.198,143.04 477.995,144.494 475.791,145.873 473.453,147.088 471.339,148.707 
	468.686,149.261 466.453,150.67 463.844,151.18 461.356,152.019 458.808,152.589 456.484,154.073 453.906,154.657 451.163,154.328 
	448.63,154.957 446.006,154.987 443.383,155.347 440.775,155.107 438.197,154.897 435.514,155.197 433.04,154.103 430.387,153.968 
	427.944,152.949 425.47,152.139 422.937,151.36 420.659,150.01 418.695,148.167 416.551,146.683 414.932,144.584 412.564,143.22 
	410.975,141.106 409.566,138.888 408.607,136.43 407.362,134.121 406.598,131.603 405.444,129.264 404.739,126.746 403.63,124.333 
	403,121.769 402.536,119.176 402.896,116.478 402.386,113.93 401.636,111.321 401.727,108.698 401.576,106.06 401.756,103.407 
	401.756,100.783 401.711,100.769 402.431,98.13 402.581,95.447 402.566,92.764 402.701,90.111 403.091,87.472 403.375,84.789 
	402.686,82.076 403.12,79.408 403.33,76.725 403.705,74.072 403.6,71.388 404.155,68.735 403.69,66.022 404.259,63.369 
	403.705,60.686 403.81,58.017 404.604,55.334 404.38,52.621 404.29,49.878 405.159,47.195 405.279,44.482 405.474,41.723 
	405.729,39.025 405.579,36.507 408.187,35.293 410.81,33.809 412.129,31.215 410.69,29.716 408.337,29.072 405.834,28.652 
	403.42,27.678 400.842,27.633 398.279,27.453 395.835,26.629 393.332,26.224 390.769,25.924 388.31,25.145 385.732,25.22 
	383.349,24.005 380.68,24.32 378.147,23.121 378.267,26.209 379.001,28.787 378.642,31.44 379.211,34.033 379.061,36.657 
	379.631,39.295 379.361,41.918 379.242,44.571 379.302,47.195 379.601,49.833 379.751,52.471 379.481,55.124 379.001,57.762 
	379.211,60.401 379.661,63.039 379.092,65.677 378.987,68.331 379.167,70.969 379.466,73.622 378.897,76.245 378.672,78.898 
	378.627,81.521 378.402,84.16 378.372,86.783 378.192,89.511 378.387,92.284 378.852,95.057 378.012,97.786 378.192,100.559 
	378.492,103.302 378.222,105.985 378.342,108.668 379.061,111.306 378.957,113.975 379.302,116.613 379.167,119.281 
	379.092,121.979 379.736,124.588 379.511,127.286 380.606,129.819 380.516,132.532 380.861,135.186 381.415,137.793 
	381.925,140.402 383.334,142.8 383.393,145.558 384.053,148.137 385.837,150.31 386.407,152.949 387.576,155.332 388.775,157.73 
	390.124,160.054 392.028,161.957 393.767,163.966 395.7,165.81 397.874,167.324 399.748,169.257 402.116,170.427 404.454,171.731 
	406.838,172.87 409.446,173.47 412.054,173.964 414.498,175.268 417.136,175.703 419.864,175.343 422.487,175.703 425.156,175.673 
	427.794,175.433 430.492,175.823 433.085,175.029 435.784,175.044 438.287,174.054 440.865,173.425 443.593,173.29 445.887,171.746 
	448.405,170.922 451.133,170.517 453.501,169.318 455.735,167.834 458.208,166.814 460.607,165.645 462.57,163.771 465.059,162.707 
	467.367,161.343 469.046,159.169 471.22,157.64 473.333,155.976 475.297,154.133 476.616,151.764 478.67,150.01 479.944,147.642 
	481.593,145.529 482.687,143.19 "/>
<polygon fill="#926453" points="592.55,121.301 590.436,118.304 588.802,116.415 586.823,114.826 585.234,112.877 583.421,111.138 
	581.547,109.46 579.553,107.885 577.994,105.892 575.911,104.408 574.517,102.235 571.443,100.66 569.255,101.59 567.651,103.464 
	565.687,104.858 564.159,106.701 562.615,108.5 561.056,110.344 559.406,112.068 556.814,111.663 554.25,111.213 551.627,111.363 
	549.124,110.479 546.485,110.449 543.847,110.389 541.329,109.684 538.721,109.564 536.127,109.115 533.414,108.755 
	532.919,112.667 535.842,112.832 538.526,113.402 541.269,113.312 543.937,113.686 546.65,114.031 549.304,114.766 552.046,114.616 
	554.73,115.156 557.473,115.186 560.156,115.8 560.336,116.265 559.946,118.798 559.707,121.362 559.422,123.91 559.017,126.443 
	558.852,129.021 557.863,131.449 557.713,134.043 557.593,136.621 556.874,139.094 556.664,141.658 555.824,144.101 
	555.659,146.694 554.64,149.108 554.355,151.686 553.59,154.159 553.201,156.693 552.482,159.166 551.987,161.699 551.552,164.233 
	551.102,166.781 550.473,169.269 549.753,171.743 548.929,174.171 547.82,176.464 546.77,178.728 545.526,180.976 543.248,182.19 
	541.209,183.659 538.81,184.499 536.262,184.289 533.759,184.364 531.271,183.959 528.527,184.109 525.904,183.21 523.311,182.505 
	520.583,182.115 517.975,181.336 515.426,180.407 512.818,179.597 510.285,178.233 509.34,179.507 511.529,181.291 513.837,182.7 
	515.441,184.799 517.195,186.762 518.814,188.876 520.358,191.019 521.467,193.433 522.502,195.891 522.801,198.56 524.031,200.973 
	524,203.656 524.54,206.265 524.675,208.948 524.315,211.586 526.969,211.811 529.637,211.63 532.275,212.035 534.913,211.616 
	537.581,211.856 540.19,211.541 542.828,211.316 545.466,211.106 547.955,210.132 550.638,209.877 553.006,208.633 555.33,207.389 
	557.578,206.07 559.976,204.825 561.94,202.996 563.694,200.988 565.148,198.754 566.227,196.311 567.501,194.018 568.91,191.784 
	569.96,189.356 571.293,187.077 571.968,184.484 572.943,182.026 573.437,179.417 574.262,176.914 575.041,174.366 575.955,171.878 
	576.57,169.314 577.335,166.781 577.815,164.188 577.964,161.519 578.579,158.956 579.044,156.348 580.018,153.86 580.453,151.236 
	580.542,148.568 581.232,146.005 581.787,143.411 582.341,140.848 582.851,138.225 582.806,135.527 583.046,132.889 584.11,130.355 
	584.11,127.627 586.659,126.608 588.787,124.884 590.945,123.4 "/>
<polygon fill="#926453" points="720,234.472 717.631,234.742 715.113,235.462 712.49,235.672 709.866,235.716 707.243,235.942 
	704.605,236.181 702.027,235.552 699.449,235.057 696.87,234.682 694.157,234.997 691.579,234.487 689.091,233.543 686.662,232.524 
	684.174,231.744 681.625,231.055 679.062,230.35 676.769,229.016 674.7,227.337 672.197,226.408 670.054,224.819 668.27,222.9 
	666.081,221.356 664.207,219.497 662.978,217.129 661.089,215.211 660.31,212.647 659.306,210.249 657.807,208.03 657.402,205.422 
	656.502,202.934 656.398,200.31 655.693,197.732 656.038,195.079 656.562,192.501 656.068,189.818 656.743,187.284 657.537,184.766 
	657.597,182.068 658.826,179.684 659.695,177.226 660.67,174.813 661.359,172.249 662.679,169.956 663.173,167.303 664.717,165.129 
	666.066,162.866 665.736,162.656 666.83,160.212 668.659,158.159 670.023,155.88 671.372,153.572 672.437,151.099 674.086,148.955 
	674.85,146.317 676.454,144.143 677.983,141.94 679.257,139.571 680.247,137.053 681.596,134.76 683.244,132.586 684.369,130.173 
	685.208,127.564 686.617,125.331 687.817,122.858 689.195,120.534 690.604,118.226 691.999,115.887 693.587,113.609 
	694.907,111.225 696.226,108.827 697.23,106.339 700.198,106.099 703.136,105.949 705.834,104.855 704.965,102.666 703.256,100.853 
	701.307,99.219 699.314,97.615 696.93,96.58 694.862,95.081 692.793,93.582 690.769,92.053 688.656,90.614 686.872,88.681 
	684.849,87.137 682.3,86.312 680.606,84.289 678.313,83.194 677.279,85.338 676.619,87.916 675.255,90.165 674.94,92.907 
	673.291,95.036 672.482,97.569 671.013,99.803 670.608,102.516 668.914,104.615 668.12,107.163 666.411,109.261 665.901,111.975 
	664.552,114.238 663.203,116.532 661.914,118.825 660.7,121.179 659.995,123.787 658.631,126.065 657.537,128.494 656.248,130.787 
	655.153,133.186 653.789,135.464 652.305,137.653 651.361,140.126 649.757,142.374 648.453,144.803 647.014,147.156 645.904,149.69 
	645.05,152.328 643.896,154.846 642.502,157.139 641.872,159.793 640.733,162.206 639.129,164.395 637.96,166.808 637.166,169.356 
	635.996,171.755 635.127,174.273 634.737,176.971 633.343,179.294 633.193,182.053 632.518,184.616 631.319,187.045 
	630.795,189.668 630.345,192.291 630.3,194.959 629.536,197.552 628.846,200.161 629.131,202.844 629.251,205.482 629.656,208.12 
	629.776,210.788 630.09,213.426 631.034,215.915 631.664,218.493 632.774,220.906 633.658,223.485 635.397,225.523 637.18,227.502 
	638.5,229.856 640.613,231.549 642.921,232.914 644.9,234.697 646.879,236.481 649.023,238.1 651.511,239.134 653.999,240.064 
	656.398,241.188 658.826,242.237 661.254,243.377 663.727,244.396 666.351,244.875 668.914,245.625 671.627,245.67 674.265,245.955 
	676.829,246.944 679.512,246.899 682.18,246.779 684.834,246.869 687.487,246.329 690.17,246.614 692.808,246.42 695.447,245.955 
	698.145,245.82 700.708,245.085 703.331,244.591 705.834,243.601 708.128,242.072 710.766,241.578 713.06,240.184 715.398,238.954 
	717.781,237.755 719.775,236.271 "/>
<polygon fill="#926453" points="135.16,177.28 136.599,175.212 137.903,173.008 139.087,170.714 140.241,168.421 141.44,166.127 
	142.804,163.924 143.704,161.525 144.498,159.082 144.588,156.474 142.31,155.155 139.656,155.05 137.018,155.41 134.56,156.489 
	131.982,157.148 129.628,158.453 127.14,159.622 124.667,160.791 122.268,162.185 119.84,163.444 117.636,165.108 115.193,166.787 
	116.287,164.239 117.037,161.75 118.236,159.472 119.63,157.298 121.309,155.335 122.613,153.101 124.307,151.182 126.001,149.234 
	127.89,147.48 129.748,145.711 131.832,144.167 133.766,142.503 135.789,140.914 137.873,139.401 140.136,138.156 142.19,136.597 
	144.498,135.458 146.762,134.274 149.19,133.419 151.573,132.535 154.047,131.846 156.535,131.366 159.053,130.946 161.602,130.886 
	164.15,130.721 166.653,131.276 169.172,131.711 171.54,132.625 173.849,133.764 175.722,135.503 177.386,137.392 178.945,139.43 
	179.755,142.083 179.59,144.842 178.96,147.51 177.326,149.744 175.257,151.572 172.769,152.741 170.491,153.521 168.272,154.45 
	166.009,155.23 163.655,155.769 161.527,156.909 159.113,157.823 156.805,159.007 154.826,160.701 152.713,162.14 150.809,163.879 
	148.89,165.588 146.942,167.252 144.963,168.931 143.104,170.729 141.32,172.603 139.462,174.402 137.558,176.171 135.879,177.954 
	"/>
<polygon fill="#926453" points="46.274,162.348 43.786,163.488 41.267,164.447 38.839,165.676 36.26,166.486 33.847,167.76 
	31.359,168.824 28.796,169.739 26.277,170.713 23.774,171.777 21.331,172.991 18.842,174.071 16.504,174.955 14.18,175.915 
	11.812,176.724 9.444,177.563 7.135,178.598 4.782,179.452 2.398,180.276 0,181.011 1.649,182.63 3.163,184.369 4.932,185.867 
	6.91,184.518 9.084,183.335 11.302,182.315 13.521,181.266 15.754,180.201 18.048,179.272 20.461,178.238 22.935,177.324 
	25.378,176.349 27.806,175.255 30.235,174.266 32.633,173.141 35.061,172.107 37.505,171.103 39.948,170.083 42.332,168.899 
	44.835,168.06 47.203,166.921 46.843,164.642 "/>
<polygon fill="#926453" points="123.64,119.486 121.466,118.167 118.903,118.002 116.534,117.163 114.256,116.114 111.873,115.454 
	109.519,114.659 107.361,113.266 104.767,113.071 102.564,111.722 100.016,111.467 96.943,111.062 95.234,113.37 94.934,116.099 
	93.9,118.692 93.615,121.42 93.24,124.133 92.716,126.831 91.771,129.47 91.291,132.003 89.163,133.337 86.585,134.101 
	84.246,135.406 81.818,136.515 79.419,137.684 76.916,138.674 74.293,139.213 73.978,139.213 73.364,136.71 73.663,134.072 
	72.389,131.703 71.924,129.185 72.089,126.562 71.355,124.118 71.325,121.495 70.066,119.142 69.526,116.653 69.106,114.105 
	69.181,111.482 68.657,108.963 68.312,106.43 67.428,103.987 67.413,101.379 66.318,98.92 68.702,97.031 71.16,95.278 
	72.269,92.429 70.291,90.691 67.742,91.41 65.194,91.215 62.646,91.44 60.127,91.83 57.534,91.14 55.016,92.01 52.453,91.755 
	49.919,92.025 47.356,92.085 44.823,92.445 42.29,92.834 39.711,92.909 37.253,93.029 37.658,95.278 39.127,97.556 39.516,100.194 
	40.655,102.608 41.195,105.201 41.585,107.824 42.334,110.342 43.219,112.831 43.579,115.439 44.328,117.957 44.898,120.535 
	45.063,123.189 46.352,125.587 46.981,128.15 47.191,130.804 47.446,133.457 48.615,135.855 48.84,138.524 49.335,141.087 
	49.694,143.71 50.519,146.229 51.373,148.747 51.793,151.355 52.333,153.948 53.172,156.466 53.457,159.105 53.922,161.713 
	54.881,164.216 55.256,166.84 56.065,169.373 56.575,171.966 57.085,174.559 57.279,177.212 58.224,179.716 59.108,182.219 
	59.183,184.873 60.172,187.361 60.562,189.984 61.177,192.547 61.507,195.17 61.716,197.808 62.84,200.252 63.47,202.8 
	63.425,205.469 63.995,208.017 64.669,210.565 65.434,213.068 65.809,215.677 66.363,218.225 66.783,220.818 67.098,223.426 
	67.817,225.974 68.072,228.583 68.222,231.221 68.837,233.799 69.226,236.393 69.976,239.136 71.595,241.549 74.413,241.894 
	77.216,241.999 80.049,241.549 82.387,240.59 84.966,240.305 87.289,239.301 89.523,238.056 91.576,236.558 93.435,234.774 
	94.844,232.645 95.728,230.367 95.504,227.969 94.619,225.78 94.08,223.007 93.255,220.293 92.446,217.58 91.816,214.777 
	91.141,212.049 90.947,209.171 89.538,206.758 89.208,204.104 88.203,201.586 88.189,198.858 87.529,196.265 87.199,193.596 
	85.97,191.138 85.73,188.455 84.801,185.921 84.051,183.343 83.737,180.66 83.167,178.052 82.267,175.504 81.953,172.835 
	81.383,170.227 80.499,167.664 80.589,164.876 79.809,162.313 79.12,159.719 78.28,157.171 77.965,154.473 76.781,152.014 
	77.006,149.211 75.717,146.753 75.207,143.83 77.95,143.23 80.499,142.421 82.957,141.372 85.205,139.858 87.634,138.748 
	90.197,137.939 92.581,136.739 95.159,136.02 97.692,135.136 99.911,133.532 102.339,132.438 104.782,131.388 107.316,130.489 
	109.714,129.35 112.397,128.81 114.631,127.236 117.044,126.067 119.533,125.078 122.081,124.193 124.524,123.114 125.768,121.06 
	"/>
<polygon fill="#926453" points="355.23,25.492 355.244,27.531 355.379,29.509 355.694,31.533 354.885,33.422 354.21,35.28 
	353.52,37.169 352.681,39.028 351.182,40.437 349.608,41.696 347.809,42.596 346.041,43.48 344.197,44.229 342.218,44.454 
	340.254,44.934 338.276,44.559 336.327,44.139 334.303,43.87 332.61,42.745 331.006,41.531 329.522,40.242 328.143,38.803 
	326.988,37.154 326.239,35.311 325.13,33.557 324.98,31.503 324.665,29.509 325.235,27.531 325.459,25.537 326.194,23.678 
	327.213,21.984 328.203,20.246 329.417,18.672 330.751,17.113 332.46,16.003 334.303,15.164 336.252,14.594 338.261,14.384 
	340.254,14.264 342.248,14.355 344.302,14.384 346.236,15.044 348.004,16.078 349.788,17.068 351.287,18.477 352.546,20.08 
	353.776,21.699 354.285,23.693 "/>
<polygon fill="#926453" points="165.498,88.321 165.498,89.52 165.572,90.689 165.767,91.903 165.288,93.028 164.883,94.137 
	164.478,95.246 163.969,96.355 163.084,97.195 162.155,97.944 161.091,98.469 160.041,98.993 158.947,99.428 157.778,99.563 
	156.609,99.863 155.424,99.638 154.27,99.383 153.071,99.219 152.067,98.559 151.122,97.839 150.238,97.075 149.428,96.205 
	148.739,95.246 148.289,94.152 147.645,93.102 147.555,91.888 147.375,90.689 147.704,89.52 147.825,88.351 148.259,87.241 
	148.859,86.222 149.458,85.203 150.178,84.258 150.972,83.359 151.992,82.699 153.086,82.19 154.24,81.86 155.424,81.725 
	156.609,81.665 157.793,81.71 159.007,81.74 160.161,82.115 161.21,82.73 162.275,83.329 163.144,84.154 163.909,85.098 
	164.628,86.072 164.928,87.256 "/>
<path fill="#926453" d="M261.418,206.101c-0.615-1.079-1.409-2.038-2.368-2.818c-0.3-0.24-0.675-0.495-1.109-0.779l-0.989-0.629
	c-0.33-0.24-0.735-0.54-1.184-0.914l-2.488-1.994c-0.315-0.27-0.719-0.375-1.214-0.255c-0.39,0.12-0.734,0.419-0.884,0.824
	l-0.12,0.3c-0.195,0.42-0.135,0.945,0.135,1.319l0.495,0.689c0.105,0.15,0.135,0.24,0.15,0.24c-0.09,0.18-0.63,1.169-3.837,5.127
	l-0.075,0.135c-0.015,0.03-0.015,0.06-0.045,0.09l-1.049,1.334c-0.495,0.645-0.959,1.109-1.349,1.409
	c-0.27,0.21-0.495,0.315-0.63,0.33c-0.03-0.015-0.285-0.075-0.959-0.39c-0.345-0.165-0.75-0.18-1.094-0.045
	c-0.345,0.15-0.63,0.419-0.765,0.794l-0.135,0.39c-0.195,0.54-0.03,1.14,0.435,1.499c0.48,0.39,1.199,1.005,2.159,1.844
	c0.989,0.854,1.754,1.499,2.249,1.888c1.784,1.439,3.208,2.339,4.377,2.699c0.645,0.21,1.304,0.315,1.949,0.315
	c1.169,0,2.368-0.345,3.553-1.005c1.304-0.734,2.458-1.724,3.463-2.938c1.499-1.874,2.278-3.793,2.338-5.726
	C262.452,208.604,262.108,207.345,261.418,206.101 M258.57,209.308c-0.105,1.319-0.645,2.564-1.574,3.733
	c-0.794,0.959-1.724,1.724-2.773,2.248c-1.094,0.554-2.054,0.674-2.908,0.36c-0.51-0.195-1.079-0.525-1.694-1.034
	c-1.244-1.004-1.349-1.499-1.379-1.499c0.045-0.12,0.48-0.989,3.658-4.917c2.323-2.878,2.833-3.268,2.863-3.298
	c0.045-0.03,0.03-0.09,0.345-0.015c0.24,0.045,0.45,0.15,0.659,0.33c0.525,0.405,1.049,0.914,1.604,1.529
	c0.749,0.839,0.944,1.274,1.004,1.484c0.06,0.165,0.105,0.345,0.105,0.255l0.045,0.39
	C258.555,209.114,258.57,209.294,258.57,209.308"/>
<path fill="#926453" d="M303.757,230.498l-0.809,0.015c-0.045,0-0.09,0-0.105,0.015c-0.015-0.015-0.06-0.045-0.105-0.09
	c-0.06-0.21-0.165-0.419-0.315-0.57c-0.779-0.809-1.679-1.424-2.623-1.859c-2.323-1.034-4.662-0.93-6.775,0.285
	c-1.829,1.034-3.253,2.713-4.257,4.977c-0.96,2.174-1.289,4.272-0.944,6.296c0.405,2.473,1.754,4.242,4.032,5.262
	c1.019,0.464,2.054,0.704,3.343,0.779c0.375-0.06,0.734-0.105,1.034-0.165c0.105,0.375,0.315,0.839,0.854,1.094
	c0.405,0.18,0.615,0.255,0.944,0.255c0.21,0,0.585,0,0.899-0.33c0.39-0.21,0.69-0.539,0.899-1.034
	c0.135-0.285,0.285-0.72,0.465-1.304c0.12-0.45,0.225-0.764,0.33-0.989c0.24-0.555,0.524-1.034,0.839-1.424
	c0.105-0.135,0.195-0.225,0.225-0.27c0.225,0.075,0.435,0.105,0.629,0.105c0.255,0,0.6-0.09,0.825-0.225
	c0.105-0.06,0.195-0.135,0.285-0.225l0.345-0.375c0.27-0.285,0.375-0.704,0.285-1.169c-0.03-0.21-0.15-0.405-0.285-0.6
	c-0.135-0.255-0.36-0.45-0.629-0.57c-0.405-0.195-0.795-0.36-1.169-0.51c0.075-0.03,0.165-0.075,0.24-0.12
	c0.045-0.015,0.135-0.06,0.27-0.135c0.3-0.135,0.704-0.405,0.959-0.974c0.09-0.195,0.18-0.479,0.27-0.869
	c0.045-0.165,0.075-0.3,0.12-0.39c0.075-0.18,0.225-0.435,0.435-0.75c0.3-0.479,0.51-0.854,0.615-1.109
	c0.255-0.554,0.33-0.929,0.3-1.274c-0.03-0.27-0.045-0.479-0.06-0.6C305.031,231.008,304.507,230.528,303.757,230.498
	 M300.115,237.079c-0.765-0.315-1.409-0.57-1.934-0.764c-0.645-0.225-1.409,0.09-1.679,0.72l-0.165,0.36
	c-0.285,0.614-0.045,1.319,0.525,1.679c0.734,0.464,0.959,0.689,0.974,0.689c0,0.03,0.015,0.15-0.135,0.48
	c-0.165,0.375-0.48,0.809-0.929,1.274c-0.66,0.645-0.989,0.764-1.049,0.764c-0.584,0.135-1.124,0.105-1.679-0.15
	c-0.659-0.3-1.244-0.839-1.739-1.619c-0.944-1.499-0.914-3.343,0.09-5.621c0.645-1.439,1.529-2.533,2.638-3.268
	c0.675-0.465,1.319-0.689,1.979-0.689c0.45,0,0.914,0.12,1.424,0.33c1.169,0.524,1.814,1.169,1.964,1.994
	c0.135,0.704,0.03,0.989-0.045,1.154c-0.135,0.195-0.21,0.33-0.255,0.435c-0.12,0.285-0.18,0.66-0.21,1.424
	C299.875,236.569,299.95,236.839,300.115,237.079"/>
<path fill="#926453" d="M349.114,242.612c-0.12-0.015-0.3-0.03-0.54-0.045c-0.105-0.015-0.18-0.015-0.255-0.03l-0.42-0.344
	c-0.72-0.48-1.619-0.795-2.758-0.974c-1.604-0.225-3.073,0.015-4.392,0.734c-1.514,0.87-2.413,2.144-2.668,3.807
	c-0.075,0.51-0.075,1.02,0,1.529c0.255,1.379,0.959,2.473,2.054,3.118c0.585,0.375,1.469,0.69,2.773,1.005
	c0.21,0.045,0.375,0.075,0.585,0.09c0.105,0.075,0.21,0.12,0.33,0.15c1.919,0.585,2.623,1.544,2.368,3.208
	c-0.09,0.54-0.39,0.885-0.989,1.14c-0.659,0.27-1.409,0.344-2.218,0.21c-1.154-0.18-1.919-0.585-2.339-1.244
	c-0.105-0.165-0.285-0.585-0.345-1.499c-0.12-1.724-0.195-2.159-0.24-2.383c-0.06-0.285-0.21-0.54-0.45-0.72
	c-0.315-0.285-0.629-0.419-1.169-0.48c-0.674,0-1.439,0.45-1.574,1.394l-0.39,2.024c-0.165,0.839-0.285,1.499-0.36,2.023
	c-0.21,1.289-0.195,1.754,0.045,2.204c0.075,0.135,0.15,0.24,0.225,0.315c0.21,0.195,0.39,0.36,0.54,0.465
	c0.375,0.27,0.899,0.315,1.304,0.135c0.435-0.195,0.704-0.285,0.824-0.315c0.075,0.015,0.18,0.09,0.345,0.195
	c0.54,0.405,0.929,0.674,1.154,0.78c0.51,0.225,1.139,0.405,1.904,0.525c0.57,0.09,1.124,0.135,1.649,0.135
	c1.184,0,2.248-0.24,3.133-0.704c1.574-0.825,2.533-2.234,2.833-4.212c0.21-1.349-0.12-2.608-0.989-3.733
	c-0.33-0.404-0.69-0.749-1.079-1.049c0.105,0.045,0.21,0.09,0.345,0.105c0.045,0,0.21,0.015,0.255,0.015
	c0.794,0,1.424-0.525,1.679-1.454c0.045-0.375,0.165-0.959,0.3-1.739c0.18-0.839,0.285-1.454,0.36-1.859
	C351.137,243.826,350.418,242.822,349.114,242.612 M344.287,248.848c-0.705-0.285-1.019-0.45-1.154-0.539
	c-0.39-0.24-0.674-0.57-0.914-1.034c-0.225-0.45-0.3-0.824-0.24-1.199c0.09-0.554,0.315-0.914,0.75-1.184
	c0.495-0.27,1.064-0.36,1.754-0.24c0.525,0.09,1.019,0.255,1.499,0.555c0.465,0.27,0.764,0.554,0.884,0.855
	c0.09,0.24,0.135,0.57,0.135,1.019c0.015,0.12,0,0.6-0.06,1.439c0,0.09,0.015,0.225,0.045,0.375c0.09,0.33,0.255,0.629,0.495,0.855
	c-0.51-0.285-1.064-0.48-1.679-0.585c-0.48-0.06-0.869-0.12-1.199-0.135C344.497,248.968,344.392,248.893,344.287,248.848"/>
<path fill="#926453" d="M393.37,257.762c-0.045-0.015-0.12-0.06-0.225-0.134c-0.105-0.09-0.165-0.15-0.165-0.15
	c-0.045-0.105-0.255-0.93-0.63-5.202c-0.419-4.661-0.315-5.381-0.315-5.411c0-0.03,0.015-0.075,0.165-0.165
	c0.12-0.06,0.435-0.195,0.944-0.39c0.345-0.12,0.614-0.39,0.764-0.72l0.105-0.27c0.18-0.419,0.134-0.914-0.12-1.274
	c-0.24-0.36-0.674-0.6-1.124-0.6c-2.458,0.03-4.002,0.06-4.707,0.135c-0.465,0.03-0.96,0.135-1.559,0.3
	c-0.629,0.195-1.034,0.779-0.974,1.424l0.03,0.255c0.045,0.615,0.51,1.109,1.109,1.215c0.959,0.134,1.184,0.375,1.184,0.375
	c0.135,0.12,0.27,0.479,0.33,1.124c0.015,0.165,0.03,0.405,0.045,0.675l0.015,0.3c0,0.495,0.03,0.87,0.06,1.109
	c0.045,0.57,0.15,1.409,0.3,2.533c0.15,1.079,0.24,1.874,0.285,2.414c0.165,1.813,0.075,2.338,0.045,2.428
	c-0.015,0-0.045,0.12-0.24,0.345c-0.03,0.045-0.06,0.06-0.09,0.09l-0.225,0.03c-0.06,0-0.135,0.015-0.195,0.03
	c-0.06,0-0.12,0.015-0.165,0.03c-0.105,0.045-0.195,0.09-0.255,0.12c-0.255,0.135-0.45,0.33-0.495,0.465
	c-0.09,0.12-0.15,0.255-0.285,0.479c-0.21,0.42-0.195,0.93,0.045,1.319c0.24,0.405,0.689,0.645,1.154,0.645h0.015h0.015
	c1.109-0.03,2.803-0.135,5.007-0.33l0.855-0.075c0.36-0.03,0.704-0.21,0.929-0.495c0.345-0.435,0.39-0.884,0.36-1.184
	C395.318,258.587,394.928,257.823,393.37,257.762"/>
<path fill="#926453" d="M449.164,244.379c-0.03,0-0.195,0-0.225,0.015c-0.645,0.105-1.079,0.15-1.199,0.165
	c-0.075-0.015-0.27-0.12-0.51-0.345l-1.049-1.334c-2.458-2.833-4.182-4.797-5.096-5.801c-0.6-0.765-1.034-1.334-1.364-1.754
	c-0.614-0.795-1.229-1.409-1.799-1.829c-0.375-0.285-0.629-0.435-0.824-0.495c-0.48-0.21-1.034-0.21-1.559-0.015
	c-0.555,0.195-1.814,0.869-1.814,2.983c0.09,0.914,0.135,1.439,0.135,1.619c0.015,0.78-0.015,1.979-0.105,3.478
	c-0.12,1.694-0.165,2.878-0.135,3.747c0.06,1.124,0.105,1.949,0.15,2.488c0.03,0.839-0.015,1.544-0.135,2.024
	c0,0.015-0.075,0.195-0.465,0.57c-0.764,0.735-0.959,0.959-1.064,1.364c-0.105,0.42-0.015,0.839,0.24,1.169
	c0.27,0.33,0.675,0.525,1.094,0.525c0.285,0,0.525,0,2.938-0.884l1.499-0.54c0.15-0.06,0.375-0.12,0.689-0.195
	c0.435-0.105,0.78-0.21,0.989-0.27c0.195-0.075,0.809-0.285,1.094-0.914c0.15-0.315,0.165-0.764,0.045-1.079
	c-0.075-0.24-0.435-1.019-1.619-1.019c-0.255,0-0.525,0.045-0.824,0.12c-0.165,0.03-0.3,0.06-0.42,0.09
	c-0.12-0.165-0.15-0.225-0.165-0.225c0,0-0.03-0.15,0-0.554c0.06-0.645,0.03-1.034-0.06-1.394c0.06-0.195,0.18-0.36,0.344-0.495
	c0.135-0.105,0.495-0.33,1.319-0.645c1.499-0.54,2.233-0.675,2.518-0.704c0.105,0.06,0.36,0.24,0.764,0.704
	c0.48,0.554,0.704,0.944,0.81,1.184l-0.6,0.36c-0.135,0.075-0.225,0.18-0.315,0.24c-0.285,0.315-0.36,0.629-0.45,1.154
	c-0.09,0.45,0.06,0.914,0.419,1.244c0.345,0.3,0.855,0.419,1.274,0.285c1.109-0.315,2.893-0.914,5.591-1.904l0.315-0.12
	c0.24-0.06,0.45-0.21,0.6-0.42c0.255-0.21,0.419-0.524,0.465-0.884c0.075-0.45-0.12-0.899-0.465-1.229
	C449.943,244.559,449.553,244.379,449.164,244.379 M437.622,242.055c0-0.045-0.15-0.495-0.24-2.443
	c-0.03-0.464-0.045-0.839-0.045-1.139l0.585,0.824c0.12,0.165,0.479,0.57,1.064,1.199c0.405,0.419,0.525,0.704,0.57,0.629
	c0,0-0.015,0.06-0.12,0.165c-0.269,0.24-0.629,0.45-1.064,0.6C438.026,242.011,437.771,242.071,437.622,242.055"/>
<path fill="#926453" d="M493.681,220.594c-0.09-0.36-0.345-0.674-0.72-0.854c-0.33-0.15-0.75-0.165-1.109-0.03
	c-0.645,0.285-0.885,0.315-0.93,0.315c0,0-0.21-0.015-0.674-0.435c-0.36-0.345-0.795-0.87-1.289-1.589l-0.914-1.334
	c-0.045-0.09-0.09-0.165-0.15-0.255c-0.015-0.015-0.015-0.03-0.015-0.03c-2.983-4.317-3.253-5.142-3.253-5.277l0.659-0.914
	c0.15-0.21,0.255-0.45,0.27-0.675c0.015-0.27-0.015-0.465-0.15-0.884c-0.135-0.42-0.435-0.765-0.855-0.899
	c-0.405-0.135-0.855-0.075-1.199,0.15l-4.752,3.313c-0.345,0.225-0.555,0.6-0.6,1.019c-0.015,0.405,0.135,0.81,0.45,1.094
	c0.225,0.165,0.39,0.3,0.555,0.39c0.195,0.105,0.419,0.165,0.645,0.165c0.269,0,0.435-0.06,1.124-0.3
	c0.135-0.045,0.225-0.075,0.3-0.105c0.18,0.12,0.599,0.48,1.304,1.484c0.42,0.6,0.555,0.959,0.615,1.109
	c-0.24,0.225-0.884,0.824-2.728,2.098c-1.049,0.735-1.349,0.885-1.424,0.899c-0.225,0.105-0.33,0.12-0.344,0.135
	c-0.09-0.075-0.285-0.27-0.615-0.749c-0.285-0.42-0.554-0.899-0.78-1.454c-0.15-0.36-0.21-0.585-0.27-0.749
	c0.255-0.315,0.465-0.54,0.63-0.704c0.315-0.285,0.464-0.72,0.404-1.169c-0.06-0.435-0.344-0.809-0.734-0.989l-0.24-0.135
	c-0.435-0.225-0.974-0.195-1.379,0.09c-0.375,0.255-0.945,0.615-1.739,1.094c-0.839,0.51-1.469,0.899-1.874,1.184
	c-0.465,0.315-0.93,0.72-1.364,1.184c-0.435,0.465-0.48,1.169-0.12,1.679l0.15,0.225c0.33,0.495,0.959,0.704,1.574,0.495
	c0.66-0.255,0.944-0.3,1.244-0.3c0,0,0.285,0.12,0.824,0.884c0.135,0.195,0.315,0.495,0.54,0.87
	c0.269,0.435,0.479,0.749,0.629,0.959c0.315,0.48,0.809,1.154,1.499,2.024c0.629,0.854,1.109,1.484,1.424,1.919
	c0.794,1.154,0.989,1.529,1.019,1.604c0.27,0.555,0.15,0.764,0.12,0.824c-0.015,0.03-0.135,0.27-0.645,0.779
	c-0.255,0.27-0.39,0.675-0.36,1.034c0.045,0.405,0.24,0.75,0.555,0.974l0.345,0.24c0.225,0.165,0.51,0.255,0.794,0.255
	c0.27,0,0.54-0.075,0.75-0.24l4.661-3.223c0.405-0.27,0.63-0.749,0.57-1.244l-0.045-0.269c-0.03-0.39-0.24-0.765-0.585-0.989
	c-0.315-0.195-0.704-0.27-1.124-0.165c-0.615,0.18-0.974,0.27-1.184,0.33c-0.15-0.12-0.419-0.344-0.824-0.794
	c-0.51-0.585-0.93-1.094-1.244-1.559c-0.525-0.764-0.614-0.959-0.614-0.945c0,0,0.03-0.105,0.255-0.344
	c0.09-0.09,0.404-0.36,1.349-1.02c1.769-1.214,2.563-1.649,2.863-1.769c0.195,0.135,0.599,0.54,1.304,1.529
	c0.974,1.424,1.065,1.904,1.08,1.904c0,0.015-0.03,0.09-0.135,0.225c-0.075,0.105-0.27,0.33-0.57,0.675
	c-0.435,0.45-0.48,1.154-0.135,1.664l0.165,0.225c0.255,0.36,0.66,0.57,1.094,0.57c0.24,0,0.48-0.06,0.66-0.18
	c0.974-0.54,2.503-1.559,4.842-3.163c0.465-0.329,0.689-0.929,0.525-1.469L493.681,220.594z"/>
<polygon fill="#EA5457" points="568.265,69.51 568.549,68.086 570.408,66.617 572.671,65.448 574.53,63.739 576.674,62.285 
	578.173,60.216 580.046,58.493 581.426,56.319 582.715,54.116 584.244,51.957 585.488,49.618 586.942,47.34 587.541,44.717 
	588.815,42.349 589.535,39.755 591.634,41.314 593.597,43.038 595.291,45.077 597.315,46.756 599.189,48.614 601.078,50.443 
	602.726,52.497 604.135,54.76 606.024,56.604 607.613,58.703 608.902,61.011 610.806,62.9 612.245,65.103 613.069,67.682 
	614.448,69.915 615.692,72.238 616.967,74.547 618.181,76.87 619.425,79.208 620.265,81.697 621.179,84.185 622.378,86.539 
	623.173,89.072 624.147,91.515 624.971,94.019 625.376,96.657 625.886,99.22 626.605,101.753 627.445,104.272 628.134,106.82 
	628.344,109.488 628.899,112.067 629.408,114.66 629.483,117.313 630.008,119.906 630.427,122.514 630.652,125.138 630.982,127.746 
	631.387,130.369 631.207,133.008 631.522,135.631 631.851,138.284 631.537,140.937 631.522,143.56 631.762,146.199 632.092,148.837 
	631.732,151.49 631.792,154.128 631.792,156.766 631.642,159.524 630.982,156.871 630.832,154.188 629.933,151.7 629.034,149.227 
	628.269,146.708 627.64,144.145 626.635,141.702 626.05,139.123 625.346,136.575 623.967,134.266 623.127,131.763 622.033,129.35 
	620.894,126.981 619.98,124.508 618.916,122.065 617.671,119.726 615.948,117.658 615.018,115.154 613.789,112.801 612.02,110.793 
	610.986,108.319 609.397,106.175 607.763,104.107 606.234,101.934 604.615,99.82 603.101,97.646 601.332,95.653 599.413,93.839 
	597.435,92.04 595.561,90.181 593.972,88.023 591.933,86.344 590.03,84.5 588.231,82.552 585.922,81.157 583.929,79.403 
	581.935,77.635 579.462,76.57 577.498,74.757 575.01,73.708 572.746,72.373 570.498,70.949 "/>
<polygon fill="#EA5457" points="526.243,157.636 527.487,155.747 528.311,153.573 528.461,151.235 528.716,148.417 528.567,145.584 
	528.117,142.736 528.192,139.888 528.162,137.04 528.746,134.222 528.746,131.598 528.342,128.96 528.686,126.337 528.881,123.729 
	529.091,121.09 529.226,118.467 528.746,115.829 528.581,113.191 529.451,110.568 529.001,107.944 529.376,105.321 528.896,102.653 
	529.076,100 529.766,97.391 529.735,94.753 529.271,92.085 529.316,89.462 529.301,86.823 530.14,84.215 529.466,81.562 
	530.095,78.954 530.29,76.331 530.2,72.643 529.991,69.12 530.425,66.602 530.635,64.054 530.74,61.505 530.5,58.942 
	530.785,56.394 531.159,53.891 531.34,51.327 531.46,48.764 531.294,46.201 531.549,43.653 531.714,41.104 531.939,38.556 
	531.4,35.978 532.089,33.729 534.532,32.2 537.17,30.821 538.805,28.633 537.59,26.669 535.237,25.68 532.719,25.23 530.245,24.645 
	527.682,24.331 525.254,23.641 522.601,23.791 520.127,23.086 517.744,22.097 515.225,21.602 512.692,21.348 510.159,20.943 
	507.64,20.403 505.107,19.519 505.317,22.397 505.797,24.945 505.602,27.583 506.306,30.132 506.411,32.74 506.366,35.348 
	506.681,37.941 506.142,40.55 506.561,43.158 506.231,45.751 505.947,48.359 506.681,50.983 506.277,53.591 506.337,56.199 
	505.947,58.807 506.036,61.416 505.662,64.009 505.917,66.617 506.127,69.21 505.647,71.789 505.752,75.476 505.542,78.16 
	505.197,80.843 505.497,83.556 504.972,86.209 504.987,88.922 504.718,91.605 505.197,94.318 504.373,96.987 504.328,99.43 
	501.779,99.715 498.977,99.205 496.158,99.625 493.37,99.235 490.552,99.535 487.764,98.935 485.276,98.65 482.772,98.92 
	480.314,98.516 477.841,98.111 475.322,98.351 472.789,98.381 470.376,97.526 468.052,97.482 468.697,100.434 470.376,102.923 
	472.594,102.982 475.037,102.982 477.481,102.173 479.939,102.428 482.397,102.323 484.856,102.638 487.659,102.608 
	490.432,102.908 493.235,102.953 495.993,103.387 498.811,103.103 501.6,103.283 504.358,103.432 504.193,105.891 503.878,108.379 
	503.758,110.882 503.728,113.385 503.803,115.904 503.938,118.437 503.818,120.94 503.668,123.579 502.979,126.127 503.398,128.78 
	503.159,131.389 502.739,133.967 502.634,136.59 502.439,139.213 501.675,141.777 502.049,144.445 501.315,147.038 501.629,149.691 
	501.45,152.299 500.895,154.878 501.135,157.726 501.75,160.544 504.313,161.938 507.131,162.417 509.979,162.642 512.512,163.017 
	515.061,162.882 517.504,162.073 520.022,161.698 522.271,160.544 524.414,159.27 "/>
<polygon fill="#EA5457" points="286.077,90.971 284.188,89.517 282.164,88.228 280.44,86.564 278.597,85.035 276.603,83.746 
	274.999,81.917 272.766,80.868 271.207,78.979 269.078,77.78 266.365,76.101 264.491,77.435 262.977,79.159 261.253,80.673 
	260.174,82.697 258.825,84.525 257.296,86.234 255.857,87.958 253.593,87.643 251.285,88.138 249.022,87.748 246.728,87.373 
	244.434,87.538 241.991,87.298 241.736,89.427 241.182,91.525 243.955,91.676 246.578,91.36 249.201,91.63 251.81,92.005 
	254.433,91.885 257.026,92.005 256.966,94.343 256.726,96.772 256.666,99.2 256.396,101.614 256.561,104.072 256.456,106.5 
	256.082,108.914 255.797,111.342 255.542,113.771 255.782,116.244 255.287,118.627 255.167,121.085 254.777,123.499 
	254.298,125.897 253.908,128.311 253.713,130.739 253.728,133.197 252.919,135.566 252.619,137.994 252.724,140.482 
	252.274,142.896 251.795,145.294 251.03,147.618 250.401,149.926 249.651,152.205 247.987,154.003 246.443,155.727 244.644,157.331 
	242.276,157.766 239.968,158.26 237.614,158.635 235.216,158.5 232.638,158.411 230.044,158.455 227.571,157.586 224.933,157.601 
	222.429,156.896 220.001,156.027 217.378,155.772 214.949,154.768 214.455,155.937 216.523,157.181 218.577,158.635 
	220.436,160.329 221.98,162.338 223.719,164.137 225.457,165.965 226.896,168.064 227.916,170.387 228.605,172.801 229.625,175.109 
	230.344,177.523 230.299,180.071 230.779,182.559 230.899,185.137 233.462,184.868 235.98,185.077 238.484,184.553 241.017,184.763 
	243.505,184.373 245.963,183.744 248.512,183.653 250.88,182.784 253.339,182.2 255.617,181.105 258.03,180.266 259.859,178.437 
	262.153,177.357 263.966,175.589 265.51,173.595 266.829,171.467 268.313,169.458 269.393,167.195 270.412,164.931 271.431,162.623 
	272.661,160.404 273.26,157.946 273.8,155.503 274.624,153.119 275.149,150.646 275.269,148.112 276.093,145.714 276.153,143.18 
	276.723,140.722 276.888,138.219 277.502,135.761 277.787,133.272 278.027,130.784 278.057,128.266 278.626,125.793 
	278.537,123.274 279.316,120.801 279.316,118.283 279.451,115.779 279.436,113.261 280.096,110.803 280.17,108.284 280.275,105.766 
	280.41,103.247 280.635,100.714 282.824,99.41 285.027,98.091 286.661,96.097 288.145,94.014 "/>
<polygon fill="#EA5457" points="222.164,132.046 223.543,130.397 224.592,128.539 225.342,126.47 226.331,123.982 227.261,121.433 
	227.785,118.78 228.64,116.202 228.954,113.503 229.584,110.896 230.873,108.662 231.368,106.203 231.892,103.76 232.657,101.377 
	232.972,98.874 234.066,96.595 234.875,94.227 235.49,91.798 236.524,89.505 237.079,87.076 237.963,84.723 238.533,82.265 
	238.683,79.687 239.852,77.423 240.317,74.95 241.021,72.536 241.861,70.183 242.415,67.725 243.48,65.431 244.244,63.047 
	244.724,60.574 245.488,58.221 246.193,54.773 247.137,51.565 247.722,49.227 248.831,47.023 249.491,44.7 250.21,42.392 
	250.825,40.038 252.129,37.94 252.503,35.511 253.523,33.293 254.347,30.999 254.977,28.661 255.532,26.247 256.266,23.954 
	257.285,21.751 257.75,19.427 260.478,18.752 263.191,18.048 265.41,16.669 264.525,14.69 262.652,13.161 260.508,12.067 
	258.365,10.973 256.101,10.073 253.973,8.934 251.829,7.795 249.625,6.775 247.437,5.741 245.129,4.917 243.03,3.703 240.871,2.578 
	238.593,1.664 236.629,0 236.554,2.743 236.105,5.172 235.265,7.525 234.845,9.968 234.396,12.412 233.451,14.72 233.197,17.193 
	232.927,19.667 231.967,21.975 231.053,24.284 230.289,26.637 230.019,29.155 229.509,31.584 228.969,34.012 227.95,36.291 
	227.201,38.674 226.886,41.147 225.747,43.366 225.072,45.734 224.323,48.088 223.543,51.521 222.809,53.964 221.744,56.272 
	221.01,58.73 220.515,61.249 219.511,63.602 218.941,66.106 217.787,68.429 217.442,71.007 216.663,73.436 215.613,75.759 
	213.2,75.864 210.832,75.204 208.403,75.129 206.035,74.365 203.591,74.38 201.178,73.975 198.795,73.361 196.291,73.705 
	193.908,73.226 191.495,72.821 189.066,72.431 186.743,72.042 184.434,71.607 182.051,71.487 179.668,71.472 177.374,70.752 
	175.081,70.018 172.712,69.868 170.644,69.343 171.048,72.161 171.888,74.95 174.406,75.1 176.76,74.934 179.068,75.025 
	181.346,75.519 183.745,75.069 186.068,75.414 188.392,76.149 190.79,76.209 193.114,76.868 195.542,76.688 197.88,77.408 
	200.324,77.048 202.647,77.902 205.015,78.218 207.399,78.532 209.812,78.502 212.166,79.117 214.804,79.042 213.755,81.395 
	212.855,83.584 212.81,86.027 212.061,88.261 210.742,90.329 210.097,92.593 209.617,95.051 208.568,97.33 207.699,99.653 
	207.144,102.096 205.84,104.255 205.705,106.833 204.311,108.992 203.936,111.525 202.707,113.698 202.302,116.202 201.448,118.57 
	200.114,120.729 199.724,123.202 199.109,125.81 199.169,128.404 200.878,130.442 203.202,131.956 205.99,132.196 208.193,133.17 
	210.502,133.98 212.945,133.92 215.344,134.205 217.697,133.605 220.095,133.32 "/>
<polygon fill="#EA5457" points="175.489,179.169 176.748,180.083 176.778,182.841 177.752,185.509 178.411,188.208 179.536,190.771 
	180.66,193.319 181.784,195.883 183.043,198.401 184.452,200.574 186.116,202.553 187.795,204.532 189.489,206.45 191.348,208.249 
	193.222,209.868 191.078,211.172 188.679,212.297 186.266,213.406 183.748,214.26 181.2,215.025 178.801,216.149 176.253,216.913 
	173.705,217.618 171.291,218.817 168.683,219.372 166.03,219.641 163.527,220.646 160.888,221.066 158.265,221.485 155.627,221.785 
	152.989,222.04 150.32,222.19 147.667,222.055 144.999,222.115 142.361,221.815 139.678,221.815 137.024,221.68 134.446,220.915 
	131.793,220.646 129.215,220.016 126.651,219.297 124.013,218.832 121.555,217.798 119.081,216.824 116.608,215.864 114.03,215.114 
	111.616,213.975 109.338,212.581 106.925,211.442 104.556,210.228 102.398,208.654 100.329,206.96 97.826,205.896 95.922,204.172 
	98.455,204.157 101.123,203.902 103.792,204.172 106.415,203.887 109.038,203.393 111.691,203.378 114.3,202.928 116.983,202.838 
	119.606,202.538 122.214,201.923 124.853,201.624 127.446,201.069 130.039,200.514 132.572,199.6 135.166,199.075 137.759,198.476 
	140.217,197.442 142.885,197.022 145.374,196.093 147.772,194.908 150.365,194.233 152.839,193.259 155.312,192.24 157.516,190.711 
	159.899,189.512 162.282,188.343 164.561,186.979 166.749,185.464 169.178,184.31 171.366,182.766 173.345,180.997 "/>
<polygon fill="#EA5457" points="141.286,79.977 141.121,82.001 141.076,83.98 141.226,86.033 140.252,87.832 139.412,89.646 
	138.573,91.445 137.553,93.243 135.964,94.517 134.271,95.627 132.397,96.361 130.568,97.096 128.664,97.681 126.671,97.71 
	124.677,98.025 122.728,97.486 120.839,96.901 118.846,96.451 117.242,95.192 115.758,93.843 114.394,92.419 113.15,90.875 
	112.146,89.121 111.561,87.217 110.601,85.374 110.631,83.335 110.497,81.296 111.231,79.378 111.621,77.414 112.505,75.63 
	113.689,74.026 114.814,72.392 116.178,70.923 117.632,69.499 119.431,68.54 121.349,67.835 123.343,67.476 125.366,67.416 
	127.345,67.476 129.339,67.746 131.363,67.956 133.251,68.78 134.915,69.964 136.609,71.118 137.973,72.632 139.097,74.326 
	140.161,76.065 140.491,78.089 "/>
<polygon fill="#EA5457" points="328.316,51.198 328.316,52.413 328.391,53.582 328.586,54.781 328.107,55.905 327.702,57.014 
	327.297,58.123 326.787,59.233 325.903,60.072 324.974,60.822 323.909,61.346 322.86,61.871 321.766,62.321 320.582,62.44 
	319.427,62.741 318.243,62.515 317.089,62.261 315.89,62.111 314.885,61.436 313.941,60.717 313.042,59.952 312.232,59.083 
	311.543,58.123 311.108,57.029 310.448,55.98 310.358,54.766 310.179,53.567 310.523,52.397 310.643,51.228 311.078,50.119 
	311.693,49.1 312.277,48.08 312.997,47.136 313.791,46.236 314.811,45.577 315.89,45.067 317.059,44.737 318.243,44.603 
	319.427,44.543 320.612,44.588 321.826,44.617 322.98,44.993 324.014,45.607 325.079,46.207 325.963,47.031 326.728,47.975 
	327.432,48.95 327.747,50.134 "/>
<path fill="#EA5457" d="M279.607,218.145c-0.15-0.51-0.48-0.929-0.974-1.229c-1.064-0.66-2.234-0.539-3.448,0.435
	c-0.66,0.645-1.049,1.019-1.199,1.139c-0.555,0.465-1.484,1.169-2.773,2.054c-1.409,0.989-2.368,1.709-2.998,2.248
	c-0.839,0.75-1.469,1.304-1.859,1.649c-0.645,0.57-1.244,0.989-1.649,1.169c-0.045,0.015-0.36,0.045-0.764-0.015
	c-1.214-0.135-1.379-0.12-1.754,0.03c-0.375,0.18-0.66,0.525-0.75,0.93c-0.24,1.064,0.345,1.424,2.818,2.908l1.349,0.839
	c0.135,0.09,0.315,0.225,0.57,0.42c0.36,0.285,0.645,0.479,0.839,0.599c0.36,0.24,0.69,0.33,1.034,0.33
	c0.465,0,0.989-0.3,1.244-0.689c0.285-0.45,0.555-1.379-0.825-2.443c-0.135-0.12-0.24-0.21-0.345-0.285
	c0.06-0.165,0.075-0.24,0.09-0.24c0.03-0.045,0.135-0.165,0.42-0.375c0.615-0.405,0.869-0.66,1.064-0.914
	c0.18-0.075,0.39-0.075,0.585-0.03c0.15,0.03,0.54,0.15,1.319,0.63c1.889,1.154,2.129,1.484,2.114,1.469
	c0.015,0.03,0.075,0.33-0.06,1.109c-0.135,0.719-0.3,1.139-0.405,1.349l-0.675-0.255c-0.33-0.12-0.809-0.105-1.544,0.269
	c-0.42,0.225-0.69,0.645-0.72,1.109c-0.045,0.465,0.18,0.93,0.555,1.184c0.989,0.704,2.623,1.739,4.977,3.193l0.3,0.165
	c0.21,0.135,0.45,0.21,0.675,0.21c0.135,0.03,0.24,0.045,0.36,0.045c0.75,0,1.349-0.6,1.349-1.349c0-0.06-0.015-0.135-0.015-0.195
	c0.03-0.405-0.135-0.795-0.435-1.094c-0.66-0.615-0.869-0.855-0.884-0.855c-0.03-0.06-0.075-0.285-0.045-0.614l0.36-1.484
	c0,0,0.03-0.15,0.03-0.165c0.689-3.688,1.139-6.251,1.364-7.585c0.225-0.945,0.39-1.649,0.525-2.159
	c0.225-1.004,0.33-1.829,0.3-2.563C279.712,218.625,279.682,218.34,279.607,218.145 M275.185,222.717
	c-0.045,0.21-0.135,0.735-0.255,1.574c-0.075,0.6-0.21,0.839-0.21,0.855c-0.045,0-0.09,0-0.15-0.015
	c-0.345-0.06-0.72-0.21-1.124-0.45c-0.45-0.285-0.585-0.45-0.585-0.465c0.015-0.045,0.285-0.45,1.754-1.739
	c0.345-0.3,0.63-0.539,0.869-0.72L275.185,222.717z"/>
<path fill="#EA5457" d="M326.356,253.495c-0.78-0.42-1.064-0.6-1.079-0.615c-0.06-0.045-0.15-0.255-0.195-0.57l-0.06-1.694
	c-0.315-3.732-0.54-6.326-0.66-7.675c-0.045-0.959-0.075-1.694-0.075-2.234c-0.03-1.004-0.165-1.844-0.375-2.533
	c-0.15-0.465-0.24-0.72-0.36-0.885c-0.27-0.45-0.719-0.764-1.259-0.929c-0.27-0.09-0.54-0.12-0.779-0.12
	c-0.645,0-1.574,0.24-2.444,1.454c-0.465,0.779-0.75,1.229-0.869,1.394c-0.405,0.614-1.124,1.529-2.129,2.728
	c-1.094,1.289-1.829,2.234-2.309,2.953c-0.614,0.929-1.079,1.634-1.364,2.069c-0.48,0.719-0.93,1.259-1.304,1.589
	c0,0-0.165,0.09-0.72,0.165c-1.034,0.15-1.349,0.195-1.679,0.495c-0.315,0.27-0.495,0.674-0.48,1.079
	c0.045,1.079,0.63,1.259,3.478,2.084l1.514,0.45c0.15,0.045,0.375,0.135,0.674,0.24c0.42,0.18,0.75,0.3,0.959,0.375
	c1.004,0.285,1.859-0.12,2.099-0.959c0.195-0.629,0.09-1.499-1.439-2.144c-0.15-0.075-0.285-0.135-0.39-0.18c0-0.18,0-0.255,0-0.27
	c0.015-0.015,0.105-0.165,0.33-0.45c0.465-0.539,0.659-0.854,0.779-1.184c0.165-0.12,0.36-0.165,0.615-0.18
	c0.21,0,0.63,0.045,1.379,0.27c1.949,0.57,2.428,0.885,2.428,0.885h0.015c0.015,0.03,0.15,0.285,0.21,1.064
	c0.06,0.75,0.015,1.169-0.045,1.439l-0.839-0.09c-0.03,0-0.195,0.015-0.225,0.015c-0.435,0.09-0.675,0.3-1.049,0.66
	c-0.345,0.315-0.51,0.78-0.42,1.259c0.105,0.465,0.42,0.825,0.855,0.989c1.139,0.405,3.028,1.004,5.636,1.754l0.315,0.105
	c0.03,0,0.045,0.015,0.075,0.015c0.015,0,0.015,0.015,0.015,0.015c0.06,0.015,0.21,0.045,0.27,0.045c0.045,0,0.09-0.015,0.15-0.015
	h0.015c0.06-0.015,0.135-0.015,0.225-0.045c0.345,0,0.66-0.135,0.914-0.375c0.255-0.255,0.405-0.6,0.405-0.959
	c0-0.18-0.03-0.36-0.105-0.525C326.985,254.049,326.73,253.675,326.356,253.495 M320.645,244.456
	c0.075,0.585,0.015,0.855,0.075,0.855c0,0.015-0.06,0.03-0.195,0.045c-0.36,0.03-0.764-0.015-1.214-0.135
	c-0.54-0.165-0.72-0.33-0.704-0.33h0.015c0-0.015,0.135-0.42,1.244-2.114c0.255-0.389,0.465-0.674,0.645-0.929l-0.045,1.034
	C320.48,243.062,320.54,243.602,320.645,244.456"/>
<path fill="#EA5457" d="M376.389,244.412l-5.801-0.15c-0.419,0-0.809,0.18-1.049,0.479c-0.27,0.33-0.375,0.735-0.3,1.14
	c0.045,0.165,0.09,0.33,0.105,0.344c0.134,0.795,0.809,1.005,1.618,1.244c0.12,0.045,0.225,0.075,0.315,0.105
	c0.06,0.195,0.21,0.734,0.165,1.948c-0.015,0.75-0.105,1.109-0.15,1.259c-0.255,0.045-0.839,0.105-2.113,0.105
	c-0.405,0-0.839,0-1.319-0.015c-1.334-0.03-1.634-0.09-1.694-0.09c-0.255-0.06-0.345-0.12-0.36-0.12
	c-0.03-0.105-0.06-0.36-0.045-0.945c0.015-0.539,0.09-1.094,0.225-1.649c0.09-0.375,0.18-0.615,0.24-0.764
	c0.375-0.09,0.689-0.165,0.914-0.195c0.435-0.06,0.809-0.33,1.019-0.704c0.195-0.405,0.195-0.855,0-1.229l-0.135-0.285
	c-0.225-0.419-0.675-0.704-1.154-0.72c-0.465-0.015-1.14-0.06-2.053-0.135c-0.99-0.09-1.724-0.135-2.398-0.15
	c-0.54,0-1.08,0.06-1.649,0.18c-0.599,0.105-1.064,0.66-1.079,1.274v0.255c-0.015,0.615,0.39,1.154,1.004,1.334
	c0.93,0.255,1.169,0.479,1.169,0.479c0.015,0.015,0.165,0.285,0.15,1.214c-0.015,0.225-0.045,0.57-0.075,1.02
	c-0.045,0.51-0.06,0.884-0.06,1.154c-0.015,0.554-0.015,1.394,0.015,2.518c0.015,1.049,0.03,1.844,0.015,2.368
	c-0.03,1.394-0.09,1.829-0.105,1.904c-0.09,0.39-0.225,0.645-0.39,0.749c-0.06,0.03-0.315,0.12-0.974,0.24
	c-0.374,0.075-0.704,0.3-0.914,0.63c-0.195,0.344-0.255,0.749-0.12,1.109l0.12,0.39c0.18,0.555,0.675,0.93,1.244,0.93l5.741,0.15
	c0.45,0,0.855-0.24,1.109-0.69l0.15-0.225c0.195-0.36,0.225-0.764,0.09-1.14c-0.12-0.375-0.42-0.659-0.81-0.794
	c-0.6-0.225-0.944-0.375-1.154-0.465c-0.045-0.165-0.12-0.51-0.18-1.124c-0.075-0.72-0.105-1.379-0.09-1.994
	c0.015-0.839,0.075-1.109,0.06-1.109c0.015-0.015,0.12-0.09,0.405-0.135c0.3-0.03,0.869-0.045,1.679-0.015
	c2.263,0.045,3.133,0.18,3.373,0.225c0.06,0.225,0.18,0.78,0.15,2.039c-0.045,1.679-0.255,2.143-0.255,2.158
	c-0.015,0.015-0.075,0.06-0.255,0.105c-0.135,0.06-0.419,0.12-0.839,0.195c-0.614,0.12-1.064,0.659-1.079,1.304v0.24
	c-0.015,0.704,0.495,1.289,1.199,1.364c1.14,0.12,3.073,0.225,5.771,0.3h0.015c0.554,0,1.049-0.36,1.259-0.884l0.15-0.375
	c0.135-0.375,0.105-0.78-0.075-1.109c-0.18-0.345-0.495-0.585-0.884-0.675c-0.645-0.15-0.87-0.285-0.93-0.33
	c0,0-0.18-0.135-0.285-0.735c-0.105-0.495-0.15-1.184-0.12-2.038l0.045-1.634c0.015-0.075,0.03-0.15,0.03-0.225
	c0.015-0.015,0.015-0.045,0.015-0.075c0.12-5.262,0.405-6.086,0.465-6.176l1.124-0.375c0.18-0.075,0.329-0.165,0.45-0.255
	c0.269-0.255,0.36-0.495,0.539-0.929c0.135-0.405,0.075-0.87-0.165-1.229C377.214,244.637,376.824,244.412,376.389,244.412"/>
<path fill="#EA5457" d="M421.491,253.006c-0.135,0.015-0.27,0.03-0.375,0.03c-0.18-0.12-0.285-0.225-0.45-0.375
	c-0.57-0.42-1.169-0.899-1.784-1.439l-1.844-1.709c-0.989-0.825-1.753-1.424-2.098-1.679c-0.06-0.075-0.18-0.24-0.39-0.54
	l-0.09-0.15c0-0.045,0.03-0.075,0.045-0.135l0.075-0.27c0.195-0.18,0.36-0.389,0.51-0.659c0.3-0.195,0.524-0.48,0.674-0.839
	l0.015-0.015c0.105-0.09,0.21-0.21,0.3-0.345c0-0.015,0.015-0.03,0.015-0.045c0.345-0.315,0.675-0.675,1.019-1.109
	c0.42-0.554,0.704-0.989,0.855-1.199c0.135-0.18,0.27-0.3,0.375-0.315l0.675-0.135c1.394-0.36,1.559-1.364,1.439-1.889
	c-0.06-0.315-0.195-0.6-0.405-0.839c-0.315-0.39-0.87-0.54-1.304-0.45c-0.48,0.075-1.184,0.225-2.129,0.39
	c-0.974,0.165-1.709,0.3-2.204,0.405c-0.855,0.18-1.574,0.389-2.173,0.599c-0.615,0.24-0.96,0.885-0.839,1.559l0.09,0.345
	c0.12,0.599,0.63,1.049,1.259,1.079h0.165c-0.255,0.36-0.764,1.019-1.709,2.233l-1.199,1.559c-0.21,0.255-0.375,0.465-0.51,0.6
	c-0.045-0.165-0.105-0.375-0.165-0.66c-0.105-0.57-0.195-1.214-0.21-1.919c0-0.51,0.03-0.809,0.075-0.959
	c0.375-0.21,0.629-0.315,0.764-0.375c0.57-0.21,0.93-0.735,0.914-1.289c-0.015-0.6-0.39-1.08-0.899-1.229
	c-0.045-0.015-0.105-0.045-0.225-0.12c-0.419-0.195-0.914-0.269-1.229-0.195c-0.12,0.03-0.24,0.06-0.39,0.135l-0.435,0.18
	c-0.24,0.06-0.704,0.165-1.379,0.3l-0.554,0.12c-0.405,0.075-0.704,0.135-0.93,0.18l-1.454,0.3c-0.435,0.09-0.78,0.39-0.959,0.764
	c-0.18,0.405-0.15,0.855,0.06,1.229c0.105,0.18,0.18,0.3,0.24,0.39c0.45,0.72,1.334,0.689,1.724,0.72l0.48,0.015
	c0.015,0.015,0.03,0.03,0.045,0.06c0.045,0.075,0.345,0.749,1.274,5.141c0.914,4.422,0.9,5.172,0.9,5.231
	c-0.015,0.09-0.24,0.405-1.064,0.764c-0.36,0.165-0.629,0.48-0.749,0.855c-0.09,0.375-0.045,0.749,0.15,1.079l0.21,0.36
	c0.24,0.39,0.689,0.645,1.154,0.645c0.075,0,0.18-0.015,0.285-0.03l5.531-1.154c0.48-0.105,0.87-0.48,1.005-0.944l0.075-0.27
	c0.12-0.39,0.06-0.81-0.18-1.154c-0.225-0.315-0.585-0.54-0.989-0.57c-0.645-0.06-1.005-0.105-1.215-0.134
	c-0.06-0.105-0.165-0.3-0.315-0.645c-0.18-0.48-0.33-0.93-0.419-1.35c-0.075-0.39-0.105-0.645-0.105-0.794
	c0-0.015,0.045-0.3,0.555-1.109c0.33-0.525,0.539-0.795,0.645-0.899c0.03,0.015,0.06,0.015,0.075,0.03
	c0.03,0.015,0.45,0.27,2.428,1.964c1.109,0.959,1.694,1.484,1.994,1.769c-0.12,0.015-0.225,0.06-0.315,0.09v-0.015
	c-1.094,0.39-1.424,1.274-1.274,1.994c0.045,0.195,0.12,0.375,0.225,0.584c0.27,0.51,0.825,0.81,1.454,0.675l1.844-0.375
	c1.889-0.405,3.403-0.764,4.542-1.094c0.435-0.15,0.795-0.495,0.914-0.945c0.105-0.45,0-0.929-0.315-1.274
	C422.81,253.246,422.27,253.006,421.491,253.006"/>
<path fill="#EA5457" d="M465.531,229.239c-0.495-0.15-0.96-0.21-1.514-0.21c0.12-0.03,0.24-0.075,0.33-0.12
	c0.839-0.435,1.139-1.319,0.749-2.308c-0.18-0.345-0.435-0.885-0.78-1.604c-0.344-0.749-0.629-1.334-0.824-1.709
	c-0.57-1.109-1.499-1.229-1.874-1.229c-0.36,0-0.72,0.09-1.049,0.27c-0.105,0.06-0.269,0.15-0.495,0.3
	c-0.075,0.045-0.135,0.09-0.225,0.12l-0.525-0.03c-0.825,0.03-1.784,0.315-2.818,0.855c-1.424,0.719-2.473,1.813-3.103,3.177
	c-0.72,1.589-0.689,3.148,0.09,4.647c0.225,0.435,0.54,0.87,0.899,1.215c0.93,0.899,1.994,1.349,3.148,1.349
	c0.12,0,0.255-0.015,0.36-0.015c0.689-0.06,1.589-0.315,2.818-0.839c0.225-0.09,0.39-0.18,0.54-0.27
	c0.12-0.015,0.225-0.045,0.33-0.075c1.903-0.659,3.013-0.36,3.822,1.199c0.255,0.479,0.21,0.929-0.15,1.499
	c-0.36,0.614-0.914,1.109-1.664,1.484c-0.989,0.51-1.889,0.645-2.608,0.36c-0.15-0.045-0.54-0.27-1.169-1.004
	c-1.094-1.289-1.424-1.619-1.589-1.769c-0.435-0.39-1.259-0.435-1.799-0.165c-0.375,0.195-0.645,0.525-0.78,0.93
	c-0.15,0.42-0.09,0.855,0.12,1.274l0.869,1.859c0.36,0.764,0.675,1.394,0.899,1.844c0.6,1.154,0.885,1.529,1.349,1.754
	c0.12,0.06,0.255,0.09,0.36,0.12c0.285,0.045,0.495,0.06,0.66,0.06h0.03h0.015c0.479,0,0.914-0.27,1.139-0.674
	c0.24-0.405,0.39-0.63,0.48-0.735c0.075-0.015,0.195-0.045,0.39-0.045c0.959,0,1.244-0.03,1.394-0.06
	c0.555-0.105,1.169-0.33,1.859-0.705c1.694-0.854,2.878-1.963,3.523-3.268c0.78-1.589,0.72-3.298-0.195-5.052
	C467.899,230.438,466.895,229.614,465.531,229.239 M461.724,229.584c-0.435,0.24-0.795,0.435-1.065,0.6
	c-0.15,0.015-0.21,0.015-0.33,0.045c-0.72,0.18-1.094,0.225-1.214,0.24l-0.21,0.015c-0.39,0-0.795-0.105-1.184-0.315
	c-0.435-0.225-0.719-0.479-0.899-0.824c-0.255-0.495-0.285-0.929-0.09-1.379c0.24-0.525,0.645-0.93,1.274-1.229
	c0.48-0.255,0.974-0.405,1.544-0.465c0.12-0.015,0.24-0.015,0.345-0.015c0.36,0,0.645,0.06,0.869,0.21
	c0.21,0.12,0.45,0.36,0.72,0.749c0.075,0.09,0.27,0.39,0.6,0.884l0.165,0.255c0.09,0.12,0.165,0.225,0.27,0.3
	c0.315,0.27,0.629,0.375,0.885,0.419C462.833,229.149,462.278,229.314,461.724,229.584"/>
<path fill="#EA5457" d="M507.112,208.899c-0.255-0.285-0.735-0.495-1.124-0.495c-0.42,0-0.839,0.165-1.364,0.525
	c-0.06,0.015-0.135,0.03-0.24,0.03c-0.15,0-0.21-0.03-0.21-0.03c-0.105-0.06-0.72-0.554-3.583-3.838
	c-3.013-3.447-3.403-4.122-3.432-4.197c-0.015-0.015-0.03-0.06,0.045-0.255c0.06-0.12,0.24-0.404,0.54-0.839
	c0.194-0.315,0.269-0.689,0.18-1.019l-0.075-0.285c-0.09-0.45-0.405-0.81-0.839-0.974c-0.42-0.165-0.884-0.09-1.259,0.18
	c-1.978,1.469-3.193,2.398-3.732,2.863c-0.33,0.3-0.704,0.675-1.094,1.184c-0.39,0.525-0.36,1.229,0.06,1.724l0.165,0.165
	c0.39,0.465,1.064,0.6,1.619,0.33c0.659-0.345,0.989-0.375,1.184-0.39c0.165,0.03,0.51,0.24,0.93,0.72
	c0.135,0.165,0.344,0.419,0.614,0.749c0.3,0.405,0.525,0.689,0.69,0.884c0.375,0.42,0.944,1.034,1.739,1.859
	c0.749,0.794,1.304,1.379,1.664,1.769c1.154,1.349,1.409,1.844,1.454,1.949c0,0,0.03,0.12,0.015,0.435c0,0.03,0,0.075-0.015,0.12
	c-0.06,0.045-0.105,0.09-0.15,0.15c-0.03,0.015-0.06,0.045-0.09,0.06c-0.015,0.03-0.045,0.06-0.06,0.06
	c-0.03,0.03-0.045,0.06-0.075,0.09v0.015c-0.045,0.03-0.075,0.075-0.105,0.12c-0.18,0.285-0.24,0.57-0.195,0.749
	c-0.015,0.18,0,0.375,0.045,0.63c0.06,0.464,0.375,0.869,0.795,1.034c0.165,0.075,0.345,0.12,0.525,0.12
	c0.3,0,0.585-0.105,0.824-0.27c0.914-0.704,2.219-1.799,3.852-3.223l0.645-0.555c0.27-0.24,0.435-0.585,0.465-0.944
	C507.531,209.649,507.412,209.229,507.112,208.899"/>
</svg>
