<?xml version="1.0" encoding="utf-8"?>
<!-- Generator: Adobe Illustrator 27.0.1, SVG Export Plug-In . SVG Version: 6.00 Build 0)  -->
<svg version="1.1" id="레이어_1" xmlns="http://www.w3.org/2000/svg" xmlns:xlink="http://www.w3.org/1999/xlink" x="0px"
	 y="0px" viewBox="0 0 720 148.615" enable-background="new 0 0 720 148.615" xml:space="preserve">
<polyline fill="#E3007F" points="661.383,3.194 609.747,16.335 578.733,40.595 661.383,3.194 "/>
<polyline fill="#E3007F" points="606.383,0 576.726,32.943 604.467,16.335 606.383,0 "/>
<path fill="#E3007F" d="M718.091,25.603c-3.246-4.015-10.625-6.035-22.136-6.035h-26.19l9.125-17.455l-100.64,44.414h92.232
	c1.147,0.13,2.399,0.26,3.741,0.378c0.104,1.03-0.404,2.594-1.512,4.706l-8.343,15.891l-1.004,1.916l-0.404,0.769l-1.147,1.447
	c-0.782,0.639-2.321,0.952-4.628,0.952h-57.242l-13.088,20.806l12.867-1.916H646.9c0.508,0,1.747,0.13,3.729,0.378
	c0.104,1.03-0.365,2.529-1.395,4.511l-10.52,20.024l-1.304,2.49l-1.447,1.825c-0.717,0.508-2.216,0.756-4.524,0.756l-73.316,0.417
	l-2.19-20.349l-34.429,47.087h106.715c12.007,0,21.562-2.112,28.628-6.322c7.978-4.733,14.366-11.668,19.163-20.806l9.921-18.89
	c5.932-11.315,5.866-18.25-0.208-20.805c2.842-0.887,5.084-1.825,6.74-2.777c5.606-3.259,10.194-8.278,13.753-15.057l9.047-17.26
	c2.764-5.228,4.302-9.517,4.641-12.841C720.242,30.271,719.643,27.533,718.091,25.603"/>
<g>
	<defs>
		<path id="SVGID_1_" d="M578.733,40.595l31.013-24.261l51.637-13.141L578.733,40.595 M606.383,0l-29.658,32.942l27.741-16.608
			L606.383,0 M718.104,25.616c-3.259-4.028-10.651-6.049-22.148-6.049h-26.19l9.125-17.455l-100.64,44.414h92.232
			c1.147,0.13,2.399,0.261,3.741,0.378c0.104,1.03-0.404,2.595-1.512,4.706l-8.343,15.891l-1.004,1.917l-0.404,0.769l-1.147,1.434
			c-0.782,0.639-2.321,0.965-4.628,0.965h-57.242l-13.088,20.806l12.867-1.917H646.9c0.508,0,1.747,0.13,3.728,0.378
			c0.104,1.03-0.365,2.529-1.395,4.511l-10.52,20.024l-1.304,2.49l-1.447,1.825c-0.717,0.508-2.216,0.757-4.524,0.757l-73.316,0.417
			l-2.19-20.35l-34.429,47.087h106.715c12.019,0,21.562-2.112,28.628-6.335c7.978-4.719,14.366-11.655,19.163-20.806l9.92-18.877
			c5.932-11.315,5.867-18.251-0.208-20.806c2.842-0.886,5.084-1.825,6.74-2.777c5.606-3.259,10.194-8.278,13.753-15.057
			l9.047-17.261c2.764-5.228,4.302-9.516,4.641-12.841C720.255,30.283,719.643,27.533,718.104,25.616"/>
	</defs>
	<clipPath id="SVGID_00000088840091745164037310000001068738380872698284_">
		<use xlink:href="#SVGID_1_"  overflow="visible"/>
	</clipPath>
	<g clip-path="url(#SVGID_00000088840091745164037310000001068738380872698284_)">
		<defs>
			
				<rect id="SVGID_00000077308138525702169220000011888802554404444602_" x="-1276.358" y="-11313.105" width="13450.981" height="19030.906"/>
		</defs>
		<clipPath id="SVGID_00000005960212978629187700000009045897595346796987_">
			<use xlink:href="#SVGID_00000077308138525702169220000011888802554404444602_"  overflow="visible"/>
		</clipPath>
		<g clip-path="url(#SVGID_00000005960212978629187700000009045897595346796987_)">
			<defs>
				
					<rect id="SVGID_00000153706684502680551280000005062823469511638969_" x="-1276.358" y="-11312.976" width="13451.11" height="19030.775"/>
			</defs>
			<clipPath id="SVGID_00000016065078089276840030000016382428962668626842_">
				<use xlink:href="#SVGID_00000153706684502680551280000005062823469511638969_"  overflow="visible"/>
			</clipPath>
			<polyline clip-path="url(#SVGID_00000016065078089276840030000016382428962668626842_)" fill="#E85899" points="634.516,149.774 
				636.719,147.911 633.42,148.718 634.516,149.774 			"/>
			<path clip-path="url(#SVGID_00000016065078089276840030000016382428962668626842_)" fill="#E85899" d="M639.391,147.91
				l0.926-0.26c-0.926,0.26-2.686-0.535-3.037,0.795L639.391,147.91"/>
			<path clip-path="url(#SVGID_00000016065078089276840030000016382428962668626842_)" fill="#E85899" d="M607.296,16.112
				l-0.913,0.808l0.547,0.535l1.408-1.877l0.678,0.274l0.522-0.535l1.721-0.274c-1.46,0.274-2.307,2.673-3.142,1.603l-0.222,1.603
				l1.199-0.26l0.587-0.678l-0.339,0.143l0.117-0.274h0.352c1.095-1.108,2.281-1.891,3.559-3.207c-2.412,0-5.606,0.534-8.096,1.877
				L607.296,16.112"/>
		</g>
	</g>
</g>
<polyline fill="#E85899" points="603.45,88.569 602.916,88.569 599.865,89.364 603.45,88.569 "/>
<g>
	<defs>
		<path id="SVGID_00000152239804182590642740000013012388416535093652_" d="M578.733,40.595l31.013-24.261l51.637-13.141
			L578.733,40.595 M606.383,0l-29.658,32.942l27.741-16.608L606.383,0 M718.104,25.616c-3.259-4.028-10.651-6.049-22.148-6.049
			h-26.19l9.125-17.455l-100.64,44.414h92.232c1.147,0.13,2.399,0.261,3.741,0.378c0.104,1.03-0.404,2.595-1.512,4.706
			l-8.343,15.891l-1.004,1.917l-0.404,0.769l-1.147,1.434c-0.782,0.639-2.321,0.965-4.628,0.965h-57.242l-13.088,20.806
			l12.867-1.917H646.9c0.508,0,1.747,0.13,3.728,0.378c0.104,1.03-0.365,2.529-1.395,4.511l-10.52,20.024l-1.304,2.49l-1.447,1.825
			c-0.717,0.508-2.216,0.757-4.524,0.757l-73.316,0.417l-2.19-20.35l-34.429,47.087h106.715c12.019,0,21.562-2.112,28.628-6.335
			c7.978-4.719,14.366-11.655,19.163-20.806l9.92-18.877c5.932-11.315,5.867-18.251-0.208-20.806
			c2.842-0.886,5.084-1.825,6.74-2.777c5.606-3.259,10.194-8.278,13.753-15.057l9.047-17.261c2.764-5.228,4.302-9.516,4.641-12.841
			C720.255,30.283,719.643,27.533,718.104,25.616"/>
	</defs>
	<clipPath id="SVGID_00000084493281716681921050000018187793046320240826_">
		<use xlink:href="#SVGID_00000152239804182590642740000013012388416535093652_"  overflow="visible"/>
	</clipPath>
	<g clip-path="url(#SVGID_00000084493281716681921050000018187793046320240826_)">
		<defs>
			
				<rect id="SVGID_00000150089284514701649900000017418437751437521080_" x="-1276.358" y="-11313.105" width="13450.981" height="19030.906"/>
		</defs>
		<clipPath id="SVGID_00000116227278248357332070000000511779208336838324_">
			<use xlink:href="#SVGID_00000150089284514701649900000017418437751437521080_"  overflow="visible"/>
		</clipPath>
		<g clip-path="url(#SVGID_00000116227278248357332070000000511779208336838324_)">
			<defs>
				
					<rect id="SVGID_00000088817329562788230820000003050103047602214790_" x="-1276.358" y="-11312.976" width="13451.11" height="19030.775"/>
			</defs>
			<clipPath id="SVGID_00000090973810509827702660000001238366532519696040_">
				<use xlink:href="#SVGID_00000088817329562788230820000003050103047602214790_"  overflow="visible"/>
			</clipPath>
			<path clip-path="url(#SVGID_00000090973810509827702660000001238366532519696040_)" fill="#E85899" d="M610.672,46.774
				l-5.384-2.855c1.408,1.186,3.402,2.073,5.228,2.895L610.672,46.774"/>
			<path clip-path="url(#SVGID_00000090973810509827702660000001238366532519696040_)" fill="#E85899" d="M642.233,6.283
				l0.013,0.209c1.382,1.069,0.156,4.276,1.786,5.345l-1.095-5.644L642.233,6.283"/>
			<path clip-path="url(#SVGID_00000090973810509827702660000001238366532519696040_)" fill="#E85899" d="M651.424,4.706
				c0.039,1.891,0.117,3.755,0.313,5.528c-0.626,1.343,1.304,2.946-0.821,3.481c1.251,1.33,0.665,3.741,1.382,5.071
				c0.404-4.85,0.326-9.608,0.039-14.288L651.424,4.706"/>
		</g>
	</g>
</g>
<polyline fill="#E85899" points="556.402,144.168 560.052,141.496 555.737,144.442 556.402,144.168 "/>
<polyline fill="#E85899" points="595.785,130.806 597.844,128.669 594.611,131.602 595.785,130.806 "/>
<g>
	<defs>
		<path id="SVGID_00000178926902308669787030000014433586967921339580_" d="M578.733,40.595l31.013-24.261l51.637-13.141
			L578.733,40.595 M606.383,0l-29.658,32.942l27.741-16.608L606.383,0 M718.104,25.616c-3.259-4.028-10.651-6.049-22.148-6.049
			h-26.19l9.125-17.455l-100.64,44.414h92.232c1.147,0.13,2.399,0.261,3.741,0.378c0.104,1.03-0.404,2.595-1.512,4.706
			l-8.343,15.891l-1.004,1.917l-0.404,0.769l-1.147,1.434c-0.782,0.639-2.321,0.965-4.628,0.965h-57.242l-13.088,20.806
			l12.867-1.917H646.9c0.508,0,1.747,0.13,3.728,0.378c0.104,1.03-0.365,2.529-1.395,4.511l-10.52,20.024l-1.304,2.49l-1.447,1.825
			c-0.717,0.508-2.216,0.757-4.524,0.757l-73.316,0.417l-2.19-20.35l-34.429,47.087h106.715c12.019,0,21.562-2.112,28.628-6.335
			c7.978-4.719,14.366-11.655,19.163-20.806l9.92-18.877c5.932-11.315,5.867-18.251-0.208-20.806
			c2.842-0.886,5.084-1.825,6.74-2.777c5.606-3.259,10.194-8.278,13.753-15.057l9.047-17.261c2.764-5.228,4.302-9.516,4.641-12.841
			C720.255,30.283,719.643,27.533,718.104,25.616"/>
	</defs>
	<clipPath id="SVGID_00000036950529956132583900000018428871031560864143_">
		<use xlink:href="#SVGID_00000178926902308669787030000014433586967921339580_"  overflow="visible"/>
	</clipPath>
	<g clip-path="url(#SVGID_00000036950529956132583900000018428871031560864143_)">
		<defs>
			
				<rect id="SVGID_00000172415994791297584510000002853989885351021718_" x="-1276.358" y="-11313.105" width="13450.981" height="19030.906"/>
		</defs>
		<clipPath id="SVGID_00000022527806926832101110000004888162549584887170_">
			<use xlink:href="#SVGID_00000172415994791297584510000002853989885351021718_"  overflow="visible"/>
		</clipPath>
		<g clip-path="url(#SVGID_00000022527806926832101110000004888162549584887170_)">
			<defs>
				
					<rect id="SVGID_00000147934543898103060320000004515165090593510562_" x="-1276.358" y="-11312.976" width="13451.11" height="19030.775"/>
			</defs>
			<clipPath id="SVGID_00000133491405055973060340000015298915663563515278_">
				<use xlink:href="#SVGID_00000147934543898103060320000004515165090593510562_"  overflow="visible"/>
			</clipPath>
			<path clip-path="url(#SVGID_00000133491405055973060340000015298915663563515278_)" fill="#E85899" d="M606.879,120.325
				c-1.408,1.33-2.698,2.556-3.455,3.259c1.525-0.938,2.66-2.085,3.755-3.272L606.879,120.325"/>
		</g>
	</g>
</g>
<path fill="#E85899" d="M590.205,123.858c1.186-0.274,1.968-0.808,2.881-1.616L590.205,123.858"/>
<polyline fill="#E85899" points="565.254,145.237 573.597,138.824 564.993,145.237 565.254,145.237 "/>
<path fill="#E85899" d="M657.564,45.848l0.939-1.395h-0.534l-0.182-1.33l-0.743-2.412C657.42,42.237,657.199,44.271,657.564,45.848"
	/>
<g>
	<defs>
		<path id="SVGID_00000129903263836443464920000004594195715072138389_" d="M578.733,40.595l31.013-24.261l51.637-13.141
			L578.733,40.595 M606.383,0l-29.658,32.942l27.741-16.608L606.383,0 M718.104,25.616c-3.259-4.028-10.651-6.049-22.148-6.049
			h-26.19l9.125-17.455l-100.64,44.414h92.232c1.147,0.13,2.399,0.261,3.741,0.378c0.104,1.03-0.404,2.595-1.512,4.706
			l-8.343,15.891l-1.004,1.917l-0.404,0.769l-1.147,1.434c-0.782,0.639-2.321,0.965-4.628,0.965h-57.242l-13.088,20.806
			l12.867-1.917H646.9c0.508,0,1.747,0.13,3.728,0.378c0.104,1.03-0.365,2.529-1.395,4.511l-10.52,20.024l-1.304,2.49l-1.447,1.825
			c-0.717,0.508-2.216,0.757-4.524,0.757l-73.316,0.417l-2.19-20.35l-34.429,47.087h106.715c12.019,0,21.562-2.112,28.628-6.335
			c7.978-4.719,14.366-11.655,19.163-20.806l9.92-18.877c5.932-11.315,5.867-18.251-0.208-20.806
			c2.842-0.886,5.084-1.825,6.74-2.777c5.606-3.259,10.194-8.278,13.753-15.057l9.047-17.261c2.764-5.228,4.302-9.516,4.641-12.841
			C720.255,30.283,719.643,27.533,718.104,25.616"/>
	</defs>
	<clipPath id="SVGID_00000140735484235514730440000001538302263216778133_">
		<use xlink:href="#SVGID_00000129903263836443464920000004594195715072138389_"  overflow="visible"/>
	</clipPath>
	<g clip-path="url(#SVGID_00000140735484235514730440000001538302263216778133_)">
		<defs>
			
				<rect id="SVGID_00000035514563002570218070000017785544262909054351_" x="-1276.358" y="-11313.105" width="13450.981" height="19030.906"/>
		</defs>
		<clipPath id="SVGID_00000165194940963772572220000013904423935383116211_">
			<use xlink:href="#SVGID_00000035514563002570218070000017785544262909054351_"  overflow="visible"/>
		</clipPath>
		<g clip-path="url(#SVGID_00000165194940963772572220000013904423935383116211_)">
			<defs>
				
					<rect id="SVGID_00000169536603627358550770000003156597609820483969_" x="-1276.358" y="-11312.976" width="13451.11" height="19030.775"/>
			</defs>
			<clipPath id="SVGID_00000052785087978178235140000004962776293954930104_">
				<use xlink:href="#SVGID_00000169536603627358550770000003156597609820483969_"  overflow="visible"/>
			</clipPath>
			<path clip-path="url(#SVGID_00000052785087978178235140000004962776293954930104_)" fill="#E85899" d="M658.033,46.591
				l1.303,1.695l0.613,0.065l0.104-1.486c0.6-1.878-1.356-0.548-1.395-1.617l-0.899,0.808l-0.169-0.118l0.326,0.926L658.033,46.591"
				/>
		</g>
	</g>
</g>
<path fill="#E85899" d="M657.916,34.833c-0.313,2.946,0.978,5.345-0.13,8.292l0.939,0.26
	C658.763,40.439,659.05,36.971,657.916,34.833"/>
<path fill="#E85899" d="M664.199,23.074c-0.691,3.207-0.339,5.88-0.104,8.813C663.86,28.954,665.086,25.746,664.199,23.074"/>
<polyline fill="#E85899" points="662.153,37.779 662.635,36.163 662.179,34.834 662.153,37.779 "/>
<path fill="#E85899" d="M660.771,28.68l0.248-4.536C660.549,25.747,660.588,27.35,660.771,28.68"/>
<polyline fill="#E85899" points="688.395,42.811 690.78,43.046 691.315,42.603 688.825,42.368 688.395,42.811 "/>
<polyline fill="#E85899" points="700.219,32.956 696.725,36.437 697.637,35.629 700.219,32.956 "/>
<g>
	<defs>
		<path id="SVGID_00000130634675658183570950000004117817688130352001_" d="M578.733,40.595l31.013-24.261l51.637-13.141
			L578.733,40.595 M606.383,0l-29.658,32.942l27.741-16.608L606.383,0 M718.104,25.616c-3.259-4.028-10.651-6.049-22.148-6.049
			h-26.19l9.125-17.455l-100.64,44.414h92.232c1.147,0.13,2.399,0.261,3.741,0.378c0.104,1.03-0.404,2.595-1.512,4.706
			l-8.343,15.891l-1.004,1.917l-0.404,0.769l-1.147,1.434c-0.782,0.639-2.321,0.965-4.628,0.965h-57.242l-13.088,20.806
			l12.867-1.917H646.9c0.508,0,1.747,0.13,3.728,0.378c0.104,1.03-0.365,2.529-1.395,4.511l-10.52,20.024l-1.304,2.49l-1.447,1.825
			c-0.717,0.508-2.216,0.757-4.524,0.757l-73.316,0.417l-2.19-20.35l-34.429,47.087h106.715c12.019,0,21.562-2.112,28.628-6.335
			c7.978-4.719,14.366-11.655,19.163-20.806l9.92-18.877c5.932-11.315,5.867-18.251-0.208-20.806
			c2.842-0.886,5.084-1.825,6.74-2.777c5.606-3.259,10.194-8.278,13.753-15.057l9.047-17.261c2.764-5.228,4.302-9.516,4.641-12.841
			C720.255,30.283,719.643,27.533,718.104,25.616"/>
	</defs>
	<clipPath id="SVGID_00000081607125045198674130000008489707628166721201_">
		<use xlink:href="#SVGID_00000130634675658183570950000004117817688130352001_"  overflow="visible"/>
	</clipPath>
	<g clip-path="url(#SVGID_00000081607125045198674130000008489707628166721201_)">
		<defs>
			
				<rect id="SVGID_00000065759852390907215020000010342727851230400144_" x="-1276.358" y="-11313.105" width="13450.981" height="19030.906"/>
		</defs>
		<clipPath id="SVGID_00000066475810210787519650000013493244644520995990_">
			<use xlink:href="#SVGID_00000065759852390907215020000010342727851230400144_"  overflow="visible"/>
		</clipPath>
		<g clip-path="url(#SVGID_00000066475810210787519650000013493244644520995990_)">
			<defs>
				
					<rect id="SVGID_00000160175428794540581020000004801154214500312226_" x="-1276.358" y="-11312.976" width="13451.11" height="19030.775"/>
			</defs>
			<clipPath id="SVGID_00000168092765072217328330000007076515446005962125_">
				<use xlink:href="#SVGID_00000160175428794540581020000004801154214500312226_"  overflow="visible"/>
			</clipPath>
			<path clip-path="url(#SVGID_00000168092765072217328330000007076515446005962125_)" fill="#E85899" d="M712.108,20.662
				c-2.321,2.673-6.114,5.084-7.757,8.018C706.672,26.007,710.726,23.608,712.108,20.662"/>
		</g>
	</g>
</g>
<path fill="#E85899" d="M702.109,37.506c2.034-3.207,7.013-5.879,8.93-8.825l-9.869,8.565c-2.373,1.721-4.511,3.715-6.466,5.671
	l0.443,0.039C697.338,40.999,699.593,39.11,702.109,37.506"/>
<path fill="#E85899" d="M690.793,46.865c1.304-1.147,2.568-2.32,3.872-3.48l-0.404-0.039
	C693.048,44.571,691.888,45.77,690.793,46.865"/>
<polyline fill="#E85899" points="694.704,42.915 692.749,42.733 692.253,43.19 694.261,43.346 694.704,42.915 "/>
<path fill="#E85899" d="M700.349,40.712c3.116-2.672,6.948-4.001,9.66-6.948C706.88,36.437,702.669,38.04,700.349,40.712"/>
<polyline fill="#E85899" points="694.665,43.385 696.907,43.554 697.468,43.164 695.147,42.955 694.665,43.385 "/>
<polyline fill="#E85899" points="579.45,145.772 576.856,148.445 579.45,145.772 "/>
<path fill="#E85899" d="M680.664,31.887c1.225-1.616-0.013-1.838,0.195-3.076l-0.156,0.143l-1.121-1.603
	c-1.538,2.124,2.842,1.33,0,4.002l1.304-1.069c0.443,1.343-1.956,1.878-1.799,2.151L680.664,31.887"/>
<g>
	<defs>
		<path id="SVGID_00000109740666528982964850000015034996814544599702_" d="M578.733,40.595l31.013-24.261l51.637-13.141
			L578.733,40.595 M606.383,0l-29.658,32.942l27.741-16.608L606.383,0 M718.104,25.616c-3.259-4.028-10.651-6.049-22.148-6.049
			h-26.19l9.125-17.455l-100.64,44.414h92.232c1.147,0.13,2.399,0.261,3.741,0.378c0.104,1.03-0.404,2.595-1.512,4.706
			l-8.343,15.891l-1.004,1.917l-0.404,0.769l-1.147,1.434c-0.782,0.639-2.321,0.965-4.628,0.965h-57.242l-13.088,20.806
			l12.867-1.917H646.9c0.508,0,1.747,0.13,3.728,0.378c0.104,1.03-0.365,2.529-1.395,4.511l-10.52,20.024l-1.304,2.49l-1.447,1.825
			c-0.717,0.508-2.216,0.757-4.524,0.757l-73.316,0.417l-2.19-20.35l-34.429,47.087h106.715c12.019,0,21.562-2.112,28.628-6.335
			c7.978-4.719,14.366-11.655,19.163-20.806l9.92-18.877c5.932-11.315,5.867-18.251-0.208-20.806
			c2.842-0.886,5.084-1.825,6.74-2.777c5.606-3.259,10.194-8.278,13.753-15.057l9.047-17.261c2.764-5.228,4.302-9.516,4.641-12.841
			C720.255,30.283,719.643,27.533,718.104,25.616"/>
	</defs>
	<clipPath id="SVGID_00000090265026769368835190000003145047863509768083_">
		<use xlink:href="#SVGID_00000109740666528982964850000015034996814544599702_"  overflow="visible"/>
	</clipPath>
	<g clip-path="url(#SVGID_00000090265026769368835190000003145047863509768083_)">
		<defs>
			
				<rect id="SVGID_00000057107787817074437380000003576149987201413815_" x="-1276.358" y="-11313.105" width="13450.981" height="19030.906"/>
		</defs>
		<clipPath id="SVGID_00000139987276896210464490000016783238252174434481_">
			<use xlink:href="#SVGID_00000057107787817074437380000003576149987201413815_"  overflow="visible"/>
		</clipPath>
		<g clip-path="url(#SVGID_00000139987276896210464490000016783238252174434481_)">
			<defs>
				
					<rect id="SVGID_00000075125606651460243230000018408916989101210284_" x="-1276.358" y="-11312.976" width="13451.11" height="19030.775"/>
			</defs>
			<clipPath id="SVGID_00000109717198773918193990000011621476992183616947_">
				<use xlink:href="#SVGID_00000075125606651460243230000018408916989101210284_"  overflow="visible"/>
			</clipPath>
			<path clip-path="url(#SVGID_00000109717198773918193990000011621476992183616947_)" fill="#E85899" d="M653.927,47.843
				l0.156,0.014c0.013-1.264-0.274-2.712-0.678-3.937l-0.43,1.942l0.091-0.065L653.927,47.843"/>
		</g>
	</g>
</g>
<polyline fill="#E85899" points="668.293,41.247 668.462,41.221 669.27,38.771 668.293,41.247 "/>
<polyline fill="#E85899" points="616.773,91.502 618.116,91.502 619.563,90.707 616.773,91.502 "/>
<path fill="#E85899" d="M708.705,46.865l0.248-0.547c-1.069,0-1.968,0.808-3.155,1.617L708.705,46.865"/>
<g>
	<defs>
		<path id="SVGID_00000056405808551641914250000017150536657850361750_" d="M578.733,40.595l31.013-24.261l51.637-13.141
			L578.733,40.595 M606.383,0l-29.658,32.942l27.741-16.608L606.383,0 M718.104,25.616c-3.259-4.028-10.651-6.049-22.148-6.049
			h-26.19l9.125-17.455l-100.64,44.414h92.232c1.147,0.13,2.399,0.261,3.741,0.378c0.104,1.03-0.404,2.595-1.512,4.706
			l-8.343,15.891l-1.004,1.917l-0.404,0.769l-1.147,1.434c-0.782,0.639-2.321,0.965-4.628,0.965h-57.242l-13.088,20.806
			l12.867-1.917H646.9c0.508,0,1.747,0.13,3.728,0.378c0.104,1.03-0.365,2.529-1.395,4.511l-10.52,20.024l-1.304,2.49l-1.447,1.825
			c-0.717,0.508-2.216,0.757-4.524,0.757l-73.316,0.417l-2.19-20.35l-34.429,47.087h106.715c12.019,0,21.562-2.112,28.628-6.335
			c7.978-4.719,14.366-11.655,19.163-20.806l9.92-18.877c5.932-11.315,5.867-18.251-0.208-20.806
			c2.842-0.886,5.084-1.825,6.74-2.777c5.606-3.259,10.194-8.278,13.753-15.057l9.047-17.261c2.764-5.228,4.302-9.516,4.641-12.841
			C720.255,30.283,719.643,27.533,718.104,25.616"/>
	</defs>
	<clipPath id="SVGID_00000165950616952383926580000018425276827926573489_">
		<use xlink:href="#SVGID_00000056405808551641914250000017150536657850361750_"  overflow="visible"/>
	</clipPath>
	<g clip-path="url(#SVGID_00000165950616952383926580000018425276827926573489_)">
		<defs>
			
				<rect id="SVGID_00000052071005670851616880000001933661171405715362_" x="-1276.358" y="-11313.105" width="13450.981" height="19030.906"/>
		</defs>
		<clipPath id="SVGID_00000079477721671601502000000018140330891996399295_">
			<use xlink:href="#SVGID_00000052071005670851616880000001933661171405715362_"  overflow="visible"/>
		</clipPath>
		<g clip-path="url(#SVGID_00000079477721671601502000000018140330891996399295_)">
			<defs>
				
					<rect id="SVGID_00000165226679174739057860000004199770172902465936_" x="-1276.358" y="-11312.976" width="13451.11" height="19030.775"/>
			</defs>
			<clipPath id="SVGID_00000143617775526457953290000007813643789140526734_">
				<use xlink:href="#SVGID_00000165226679174739057860000004199770172902465936_"  overflow="visible"/>
			</clipPath>
			<path clip-path="url(#SVGID_00000143617775526457953290000007813643789140526734_)" fill="#E85899" d="M719.956,39.369
				c-2.764,1.343-6.179,2.946-8.408,4.824C714.193,43.124,717.348,41.507,719.956,39.369"/>
		</g>
	</g>
</g>
<path fill="#E85899" d="M701.47,34.298c-3.22,2.646-6.701,5.423-10.155,8.304l1.434,0.13
	C695.708,39.956,698.654,37.154,701.47,34.298"/>
<path fill="#E85899" d="M707.193,41.507l-0.417-0.26c3.924-2.673,8.122-4.811,12.059-6.949h-0.795l1.173-0.808
	c-4.993,2.138-10.364,5.619-15.214,8.565h0.808l-1.043,1.069L707.193,41.507"/>
<path fill="#E85899" d="M698.719,43.685c2.242,0.157,4.667,0.313,7.183,0.469l0.391-0.182l-6.388-0.586h-0.534l0.013-0.039
	l-0.691-0.065l-0.13,0.104L698.719,43.685"/>
<polyline fill="#E85899" points="701.692,44.714 701.418,44.714 698.798,46.318 701.692,44.714 "/>
<path fill="#E85899" d="M707.832,44.271c1.812,0.118,3.65,0.235,5.514,0.352l-5.358-0.496L707.832,44.271"/>
<path fill="#E85899" d="M671.526,113.429l-1.33-3.48C669.844,111.291,670.561,112.621,671.526,113.429"/>
<polyline fill="#E85899" points="675.815,109.948 676.571,112.36 675.815,109.948 "/>
<path fill="#E85899" d="M664.199,98.724c-0.104,0.796,1.291,2.412-0.561,2.946l0.404,0.261l0.639-0.795l0.026,0.534L664.199,98.724"
	/>
<polyline fill="#E85899" points="663.378,104.864 661.422,107.55 661.957,107.55 662.857,106.207 663.156,107.277 663.378,104.864 
	"/>
<g>
	<defs>
		<path id="SVGID_00000117667492796410817750000004406778551367253653_" d="M578.733,40.595l31.013-24.261l51.637-13.141
			L578.733,40.595 M606.383,0l-29.658,32.942l27.741-16.608L606.383,0 M718.104,25.616c-3.259-4.028-10.651-6.049-22.148-6.049
			h-26.19l9.125-17.455l-100.64,44.414h92.232c1.147,0.13,2.399,0.261,3.741,0.378c0.104,1.03-0.404,2.595-1.512,4.706
			l-8.343,15.891l-1.004,1.917l-0.404,0.769l-1.147,1.434c-0.782,0.639-2.321,0.965-4.628,0.965h-57.242l-13.088,20.806
			l12.867-1.917H646.9c0.508,0,1.747,0.13,3.728,0.378c0.104,1.03-0.365,2.529-1.395,4.511l-10.52,20.024l-1.304,2.49l-1.447,1.825
			c-0.717,0.508-2.216,0.757-4.524,0.757l-73.316,0.417l-2.19-20.35l-34.429,47.087h106.715c12.019,0,21.562-2.112,28.628-6.335
			c7.978-4.719,14.366-11.655,19.163-20.806l9.92-18.877c5.932-11.315,5.867-18.251-0.208-20.806
			c2.842-0.886,5.084-1.825,6.74-2.777c5.606-3.259,10.194-8.278,13.753-15.057l9.047-17.261c2.764-5.228,4.302-9.516,4.641-12.841
			C720.255,30.283,719.643,27.533,718.104,25.616"/>
	</defs>
	<clipPath id="SVGID_00000134956531361037133250000003418087161623030967_">
		<use xlink:href="#SVGID_00000117667492796410817750000004406778551367253653_"  overflow="visible"/>
	</clipPath>
	<g clip-path="url(#SVGID_00000134956531361037133250000003418087161623030967_)">
		<defs>
			
				<rect id="SVGID_00000005958090155309562470000001640612519700257447_" x="-1276.358" y="-11313.105" width="13450.981" height="19030.906"/>
		</defs>
		<clipPath id="SVGID_00000072975674353661931980000013808376576210486674_">
			<use xlink:href="#SVGID_00000005958090155309562470000001640612519700257447_"  overflow="visible"/>
		</clipPath>
		<g clip-path="url(#SVGID_00000072975674353661931980000013808376576210486674_)">
			<defs>
				
					<rect id="SVGID_00000061449030665469231480000005307848837964979107_" x="-1276.358" y="-11312.976" width="13451.11" height="19030.775"/>
			</defs>
			<clipPath id="SVGID_00000106131235138818619100000009340938953850648760_">
				<use xlink:href="#SVGID_00000061449030665469231480000005307848837964979107_"  overflow="visible"/>
			</clipPath>
			<path clip-path="url(#SVGID_00000106131235138818619100000009340938953850648760_)" fill="#E85899" d="M722.837,35.419
				l0.026-1.408l-0.717-1.056l-0.482,1.617l0.665,0.26c-2.894,1.069-7.496,3.468-11.146,6.14
				C714.493,39.944,718.795,38.405,722.837,35.419"/>
			<path clip-path="url(#SVGID_00000106131235138818619100000009340938953850648760_)" fill="#E85899" d="M717.531,21.614
				l-2.998-1.095l1.604,0.678l-0.078,1.878h0.261c-1.669,1.863-3.755,3.468-5.684,5.345c2.099-1.213,4.145-2.973,6.231-4.784
				l-0.117,0.235h0.548l0.117-0.261h-0.508l1.59-1.381L717.531,21.614"/>
			<path clip-path="url(#SVGID_00000106131235138818619100000009340938953850648760_)" fill="#E85899" d="M595.133,127.599
				c1.434-1.342,3.389-2.672,4.158-3.741c1.343-1.264,2.477-2.059,4.015-3.259l-1.564,0.079c-1.877,1.499-3.715,2.998-5.488,4.51
				l-20.05,16.844h-0.091l-0.065,0.13l-9.191,7.718l0.912-0.065l2.386-1.903l-1.812,1.89h0.196
				c4.954-2.711,7.444-7.313,11.511-9.907l-0.521,0.534C584.912,137.494,589.527,131.601,595.133,127.599"/>
			<path clip-path="url(#SVGID_00000106131235138818619100000009340938953850648760_)" fill="#E85899" d="M629.014,133.479
				l0.9-1.343l1.082,0.535l0.43,0.808l1.017-1.604c-1.199,0.261-1.877,0-2.425-0.534c1.512-3.481,3.494-7.379,5.567-11.368
				l-1.121,0.091h-0.039l-4.471,9.139l-1.056,0.534l-0.469-1.877c-1.03,1.069-1.63,2.946-3.389,2.673
				c-1.669-2.138-6.192-1.603-7.991-3.468c-2.125,0.534-3.624-0.274-5.097-0.535c1.004-1.995,2.412-3.95,4.015-5.905l-1.577-0.078
				l-0.352,0.364c-1.186,0.808-0.717-1.342-1.616,0l0.965,0.808c-8.239,9.191-16.673,18.472-25.082,27.741l0.195,0.026l0.443,0.078
				l1.799-1.655h-0.534c1.93-2.399,4.511-5.072,6.323-6.675l-1.277,1.603l2.829-3.207l-1.695,1.33l2.073-2.138h0.534l0.652-0.808
				l-0.339,0.143l0.065-0.143h-0.156c1.708-2.02,3.311-3.806,5.175-5.606c2.555,0.261,4.185-2.673,6.44-3.48l0.417,0.808
				c1.564-1.069-1.082-0.534-0.574-1.603l-1.043,1.069l-0.43-0.808l-0.13,0.274l-1.421,1.33l1.903-2.933
				c5.775,0.795,13.284,1.33,16.1,5.606l-0.991,2.138c1.434-0.796,0.6-1.864,1.63-2.934c1.03-1.069,1.942-1.877,3.285-1.877
				c-2.959,6.805-6.375,13.441-9.777,20.48h0.508c2.307-4.601,4.341-9.047,6.948-13.792h0.534l1.642-2.946L629.014,133.479
				 M633.356,123.049h0.261l-0.378,0.808h-0.261L633.356,123.049z M627.88,135.342l-0.013-0.534l0.404,0.274L627.88,135.342z"/>
			<path clip-path="url(#SVGID_00000106131235138818619100000009340938953850648760_)" fill="#E85899" d="M716.423,44.806
				l-3.076-0.182l2.894,0.261c-4.471,1.851-9.177,3.833-13.701,5.449l1.708-0.795c-1.721,0.26-3.846,0.795-5.684,1.864l2.229-1.33
				c-1.591,0.534-3.833,1.33-5.528,2.672l0.678,0.261l-1.317,0.535l0.13-0.261l-1.995,0.261c1.695-1.33,1.669-1.864,3.376-2.673
				c1.603,0,3.546-1.864,4.876-2.399l-0.991,0.157l5.423-3.377l0.287,0.548l2.099-1.525l-1.929-0.118
				c-4.302,2.099-8.656,5.606-12.945,7.249c-1.682,1.877-5.528,2.672-6.271,4.289c-1.46,0.261-2.672,0-4.38,0.795
				c1.173-0.795-1.238-0.795,0.326-1.877c1.838-1.069,3.833-1.33,4.706-3.207c3.285-1.864,5.866-4.537,9.034-5.606
				c0.782-0.548,1.747,0.26,2.907-1.082l-0.561-1.03l-1.812-0.13c-3.572,2.463-7.118,4.901-10.651,7.313
				c-1.616,0-4.159,3.741-5.384,2.946c3.702-3.533,7.561-7.053,11.381-10.625l-1.473-0.143c-3.35,2.802-6.674,5.683-9.712,8.63
				l-1.199,0.26c-1.265-1.863,3.624-3.741,4.615-5.879c1.421-0.964,2.725-2.085,3.911-3.246l-1.864-0.261
				c-3.846,4.015-7.809,7.991-12.058,11.797c-0.6,1.864-3.116,2.673-4.524,4.537c-0.378-3.194,4.862-6.414,5.188-8.812l-1.799,2.137
				c0.078-1.342,2.933-4.015,1.434-4.81c5.254-9.53,10.781-19.971,16.569-30.297l-0.639,0.04
				c-3.064,6.114-6.544,11.563-10.207,17.429l-0.561-0.547l-0.912,0.808l0.704,0.795l-2.803,0.274
				c-2.242-3.207,2.294-11.225,4.511-17.117l0.613-1.852l-2.881-0.652l-0.274-0.104c-3.494,0.874-7.509,1.252-8.552-1.134
				l0.665-0.261l0.104-0.808l-0.782,0.535l-0.287-0.535l1.056-0.521c0.626-1.343,0.208-1.617,1.095-2.946l-1.46,0.261
				c0.234-2.36,0.495-4.798,0.886-7.249l-0.965-0.026c-0.587,2.934-1.226,5.893-2.008,8.878c0.326-2.829,0.704-5.358,1.108-8.017
				h-0.3l0.117-0.261h0.222l0.104-0.717l-0.417-0.092l-0.43,1.343l-1.942,9.347h0.795l1.017-1.603
				c-0.222,1.603,0.365,3.207-0.769,5.084h-0.534l-0.365,0.795l0.834,1.082c-0.495,1.069,0.326,2.138-1.252,2.673h0.808
				l-0.248,0.535l-0.665,0.26c-1.16,1.343,1.356,0.535-0.339,1.877l0.157,0.796l-0.391,0.274l-0.365,0.795
				c1.63,5.084-3.585,12.828-2.842,18.707c-0.652,1.186-0.861,2.295-0.965,3.39l0.821,0.13l0.743,0.182
				c0.496-3.115,1.056-6.231,2.138-9.581c-0.404-1.199,0.899-2.829,0.665-3.729l-0.117,0.261h-0.274l0.13-0.274h0.261l-0.143-0.261
				c0.821-3.48,0.821-7.483,2.594-10.69c-0.065-1.603-0.143-3.741,1.134-5.892c3.207,0,5.54,1.877,8.252,2.946
				c0.913,3.207-3.064,8.291-3.076,11.758c-1.147,1.877-3.689,1.603-4.889,1.877l-0.456,2.138l1.03-1.069
				c-0.626,1.342,1.356,0.535,0.73,1.864l1.995-0.261l-1.03,1.069l-0.456,2.138h0.261l-0.847,2.946
				c-1.969,0.796-0.326,1.864-1.356,2.934c-1.838,1.069-1.786,2.672-3.207,4.015l0.808,0.535c-0.561,1.199-0.508,2.412-1.056,3.729
				l-0.248,1.095l-0.508,1.356l0.026-0.039l-0.117,0.808h-0.287l-0.43,0.769c1.265-0.091,2.764-0.456,3.507-1.577l-0.339,1.877
				h1.864l0.456,1.33l3.037-0.795l-1.395,1.864l0.117-0.261c-0.965,3.207,2.672,0,3.389,1.342l-1.721,0.796l-0.743,1.603
				l1.486,0.274c-1.838,1.069-0.991,2.673-1.616,4.002l0.952,0.274l-1.004,1.603c1.356,1.069,4.406,0.261,6.036,0.796
				c-1.447,0.808-3.051,0.808-4.641,1.342l-2.164,2.946c-1.486,3.741-4.106,1.33-6.166,3.468l0.704,0.196l-0.026,0.078h0.052
				l-0.169,0.796l-0.939-0.261l-0.639,0.795c1.603,0,0.456,1.878,1.682,2.138c-1.473,0.275-2.021-0.26-3.103-0.808l0.639-0.796
				c-0.183-1.33-1.056,0.535-1.591,0.535c2.62,2.412,7.183,2.946,9.66,5.084l-4.041,2.933l-1.017-2.399
				c-3.168,1.069-6.753,1.864-9.451,1.33c-3.872-3.742-2.151,3.48-5.567,5.084c0.169,1.33-1.747,3.742-1.173,4.811l-1.708,1.343
				c0.704-3.207,2.568-7.222,3.272-10.43c-1.082,0-1.356-0.534-2.542,0.261c-0.704-1.33,1.773-3.207,1.838-5.071
				c-0.821-0.535-1.851,0.534-3.05,0.795l0.365-1.33l-0.469,0.535h-0.052l-0.026,0.052l-1.969,0.208l1.017-1.603l-3.037,1.343
				l1.969-1.343c-1.251-1.342-3.037,1.343-4.615,1.877l-0.026-0.534c-2.764,1.33-6.44,2.933-8.76,5.606
				c2.125-0.535,4.172-3.207,5.918-2.934c-1.447,0.796-2.073,2.138-3.533,2.399l-2.333,2.06l0.978-0.053
				c2.36-0.156,4.732-0.26,6.922,0.352c0.534-1.056,2.008-1.408,2.581-2.621c0.391-0.274,3.468-4.015,3.663-2.138
				c-2.49,1.33-3.429,5.084-5.449,4.811l-0.339,0.092l2.229,1.108l0.926-0.925c1.16-1.342,2.698-3.48,3.976-5.084
				c-0.626,1.33-2.307,3.207-3.311,4.811l-0.952,1.695l0.626,0.665l0.652-0.757l-0.495,0.978l0.6,1.656l1.591-3.441l-0.847,2.412
				l-0.73,1.264l-0.235,2.02c0.9-1.121,2.125-1.434,3.494-3.558c0.704,0.808-1.121,2.412,0.196,1.877
				c-2.738,5.879-5.319,12.567-7.522,18.446l-0.665,0.274c0.052,1.591-1.082,3.468-1.981,4.811h0.274l0.3,1.069h-1.33l-0.469,2.138
				c0.782-0.534-0.183-1.342,1.134-1.877l0.143,0.274c-0.639,0.796-0.182,2.138-1.642,2.399c1.616,0.535-1.395,2.412-0.313,2.946
				l-1.173,0.795l0.43,0.808l-0.795,0.535l-0.13-0.274l-0.495,1.069h0.795c-2.229,6.166-4.497,12.385-6.792,18.577l1.082-0.026
				l0.769-0.091l1.408-0.547c-1.095-0.535,0.235-1.069-1.382-1.069l0.782-0.535l0.208-1.603c-1.317,0.535-0.156-0.795-0.704-1.33
				c1.747-3.741,3.311-8.826,5.175-12.841c-0.443-1.33,1.825-1.603,2.438-2.934l-1.343-0.534c1.017-1.604,0.952-3.207,1.969-4.811
				c2.073-2.138,1.773,0.795,3.376,0.795c1.708-0.795,4.693,0.808,7.105,0.808c-1.134,5.879-1.082,11.485-3.142,17.638l-1.695,1.342
				l0.678,0.261c-1.03,1.069-1.63-0.535-2.255,0.808c-3.95,1.603-0.352-2.673-1.186-3.755l-0.248,0.535l-1.447,0.808l-0.352,1.342
				l1.056-0.534l-0.196,2.138l-8.37,1.863c4.941-0.26,9.973-1.863,15.005-2.933c0.952,0.261-0.6,1.864,0.6,1.591l1.147-1.33
				l1.577-1.069c2.034,1.343,1.382-2.412,3.767-2.933l0.169,0.795l0.391-0.274l-0.091,1.343h-0.535l-0.769,2.059l2.32-0.274
				c0.313-3.715,0.639-7.431,0.939-11.146c1.708-0.795,0.482-1.603,1.929-2.399l-1.734,0.261l0.13-0.261
				c2.477-1.877,4.836-2.946,6.818-3.741c-1.16,1.33-3.676,2.138-4.041,2.934l1.473,0.274l0.652-0.808l-0.365,1.342l0.391-0.274
				l1.773,1.291l0.795-0.482l0.091-1.342c-0.808,0-0.834-1.069-2.151-0.535l0.495-1.069c1.212,0.274,1.551-1.603,2.751-1.33
				l-0.86,1.864l-0.169-0.795l-0.091,1.33l0.13-0.261c1.708-0.808,1.147,2.138,1.682,2.138l-0.182-1.342l1.929-2.399
				c-0.156-0.808-0.352-2.138,1.369-2.946l-0.587,2.412c1.956-1.342,1.121,1.603,2.438,1.069c-0.873-2.138,0.952-3.742,2.62-5.619
				l0.157,0.808l1.486-2.112l-0.756-0.026c1.291-1.069,2.92-3.416,4.51-2.959l0.691-1.825l-0.013-0.026h0.013
				c0.613-1.499,1.291-2.959,2.047-4.38l0.182-0.339c-1.265,1.096-2.659,2.151-3.898,3.116l-0.313-1.069l-1.16,1.33l0.287,0.534
				c-2.06,2.138-5.345,4.002-7.965,5.619c0.613-1.877-0.495-2.946-0.939-4.289c-0.991,2.138,2.855,5.357-2.725,6.427l-0.613-2.138
				l-0.456,2.138c-1.421,1.33-3.011,1.864-4.719,2.673l-0.613-2.138l-0.756,1.069l-0.691-0.274c-0.887,1.343,1.63,0.535,1.004,1.877
				l-2.36,1.069c0.6-1.877-0.391-3.207,0.495-5.084l2.073-1.603l-0.013-0.535c-1.017,1.603-1.343,0-1.877,0
				c-0.013-4.55,0.626-9.36,0.756-13.635c0.182,1.877,0.013,4.55,1.277,6.413c1.408-5.879-1.968-10.689,0.104-16.829l0.339-1.878
				l0.912-0.808l0.143,1.616h0.169l-0.13,0.261h-0.026c0.117,2.229-0.039,4.667-0.274,6.949c1.186-0.808,0.352-1.864,0.73-2.673
				c0.717-2.138-0.013-4.015,0.183-6.153l1.277,2.412l0.574-2.934c1.343,0,1.682,2.138,1.708,3.207
				c-1.004,1.603,0.222,2.398,0.522,3.468l0.352-1.343c-0.196,2.151,1.76,4.289,2.073,5.893c0.626-1.343-0.091-2.685-0.117-3.741
				l1.173-0.808c1.669,2.138,1.382,5.618,3.728,7.483l0.391-0.26l-1.199-3.742l3.011,6.14l1.16-1.33l0.378-0.808l-1.486-0.26
				c-1.656-1.604-2.021-4.276-2.738-6.154c0.339-1.877-1.265-1.877-0.534-4.015h0.534l0.065-1.864h-0.274l0.261-0.535h1.069
				l-0.169-0.808h0.534l-0.6-2.138c1.799-2.138,1.708-0.796,3.063-0.261c0.443,1.33,2.047,1.33,2.112,2.933
				c2.347-1.603,1.369,1.082,2.307,1.343h1.603c-1.16-2.673-4.276-4.015-5.567-6.414c1.486,0.261,2.451,1.069,2.894,2.399
				c1.708-0.796-0.039-1.069,0.078-1.864c1.734,0.26,1.565,2.933,3.82,2.672l0.091-1.342l2.581,1.342l0.378-0.808l3.585,1.72v-1.942
				l-0.104,0.222l-12.502-5.88h0.795c-0.039-1.603-4.263,0-3.807-2.138c-0.952-0.26-2.399,0-2.047-1.33l-0.521,0.522h-0.534
				l1.199-1.408l0.078-0.182h0.274l-0.078,0.156l1.799-0.43c1.252,1.342,3.611-0.261,4.85,1.069c2.503-1.33,2.711,1.069,4.797-0.535
				l-0.821-0.534l9.96,1.525l0.821-1.682c-1.877-0.052-3.82-0.117-5.332-0.639c-2.372,0.535-3.116-1.342-5.123-1.603
				c-1.616-0.547-4.419-0.274-6.166-0.547l3.024-1.33c3.051-0.808,3.95-5.619,7.587-4.811c1.799-2.138,4.68-0.274,5.814-2.138
				c2.894,0.404,6.166-0.143,9.49-0.808l-0.547,0.535l0.156,0.274l1.121-0.104l0.469-1.095c0.847-2.086,2.607-2.92,4.237-2.764
				l0.43-0.743c-5.371,0.757-10.716,1.317-16.1,2.295l0.573,1.069c-3.585,0.808-6.688,0-9.634,0c1.343,0,3.598-0.261,5.436-1.33
				l0.287,0.535c0.886-1.342,2.138,0,2.881-1.603c-3.611-0.274-8.096,1.33-11.72,1.069l-1.864,0.535
				c0.026-3.48,4.25-1.069,6.336-2.673c2.021,0.261,4.38-0.808,6.505-1.342l-0.965-0.796l-2.516,0.796
				c1.695-1.33,4.107-1.33,5.697-1.33c2.751-1.878,3.22,0,5.71-1.343c4.237-1.395,8.291-1.747,12.319-2.62l0.834-0.978l0.887-2.712
				l-2.333,0.704l0.521-0.547l0.235-1.069c-1.33,0.535-1.969,1.343-3.429,1.617l0.378-0.808h-0.808l1.59-0.535
				c0.626-1.342,2.138,0,3.976-1.069l0.613-0.208l0.665-1.617l0.026-0.065l-1.095,0.287c-4.485,1.603-9.112,2.933-14.001,4.81
				c-0.3-1.069-3.025,1.33-4.758,1.604l-4.745,2.138l0.626-1.343c-2.92,0.535-6.179,2.946-8.487,2.138l-2.008-0.261l1.46-0.26
				c1.017-1.617,3.025-1.343,4.732-2.151c1.864-0.534,5.606-0.534,7.157-2.138c2.751-1.33,5.306-1.069,8.056-2.933l-2.803,0.261
				c1.173-0.796,2.907-1.069,4.224-1.604l-0.13,0.274l2.268-0.274l-1.173,0.808l2.112-0.535c0.626-1.342-1.225-0.808-1.76-0.808
				l2.099-1.069l-0.248,0.535c1.043,0.417,2.816-0.43,4.172-1.33c1.499,0.221,4.067-0.821,5.736-2.138l0.078,0.013
				c0.443-1.238,0.9-2.477,1.434-3.689L716.423,44.806 M697.65,44.193h0.808l-0.378,0.796L697.65,44.193z M665.607,37.245h-0.261
				l0.248-0.535h0.261L665.607,37.245z M666.715,26.282h-0.274l0.13-0.274h0.261L666.715,26.282z M671.63,17.456h1.604
				C672.477,19.06,672.034,17.716,671.63,17.456z M674.732,18.251l-0.665,0.274l0.378-0.808h0.261L674.732,18.251z M673.168,43.386
				c-0.574-1.069,1.33-4.016,2.086-5.606c1.421-1.342,2.581,1.33,3.833-1.342c-2.099,5.071-5.932,10.429-9.23,15.773l-0.391,0.261
				C670.43,49.265,671.799,46.318,673.168,43.386z M669.648,57.817h-0.274l0.261-0.535h0.261L669.648,57.817z M673.377,61.297
				l-0.795,0.535l0.912-0.808L673.377,61.297z M651.346,86.157l-0.117,0.274l-0.665,0.261L651.346,86.157z M646.717,87.5
				l-1.63,0.391l1.877-0.925L646.717,87.5z M651.541,92.037l-0.613,1.342l-0.391,0.274L651.541,92.037z M649.234,90.707l-0.626,1.33
				L649.234,90.707z M648.595,95.517l1.708-0.808l-0.508,1.082L648.595,95.517z M637.97,129.203h0.261l-0.782,0.535L637.97,129.203z
				 M656.743,91.241l0.13,0.261l-0.248,0.535L656.743,91.241z M655.804,91.502l-0.052,2.412L655.804,91.502z M655.895,94.175
				l-0.834,2.946L655.895,94.175z M654.709,102.466c0.613-1.877,0.117-4.276,2.086-5.606v4.002l-0.6,1.863
				c-0.078,1.878-0.808,4.016-0.613,5.893l1.147-1.877l0.195,5.879l-0.665,0.274c0.208,2.412,0.169,4.811-0.287,7.483l-3.415,1.604
				c0.495-5.072,0.195-10.155,2.281-15.774C655.321,104.604,653.822,103.808,654.709,102.466z M652.414,113.69l0.222-1.069
				l-0.104,0.808L652.414,113.69z M652.506,116.362l-0.378,0.808l-0.052-1.603L652.506,116.362z M653.014,107.81l0.626-1.33
				l-0.104,0.796L653.014,107.81z M653.301,96.612l-0.756,1.317L653.301,96.612z M649.012,123.858c-1.734,0.261-2.79,0.261-4.276,0
				c0.43-3.207,3.259-6.427,2.881-9.62c-1.708,0.795-0.026,2.933-2.542,3.728l0.443,1.343c-0.743,1.603-1.108,2.933-1.186,4.276
				c-1.995,0.274-1.395-1.603-3.376-0.796c-1.108-1.069,2.477-1.877,0.717-2.685c1.434-4.797,4.08-9.881,5.906-14.965l0.795-0.535
				l0.196-2.138l0.365-0.796l0.834,1.056c1.434-1.33,2.021-3.741,4.133-4.262c0.052,1.591-0.117,0.261-1.017,1.591
				c1.134,1.616-0.626,4.823-0.821,6.961c-1.616,0,0.704-2.673-0.378-3.207h-0.169l-0.143-1.082l-0.926,0.275
				c-0.495,1.069-0.548,3.48-2.112,4.55l-0.365,1.33l0.404-0.261c0.169,1.33-1.199,4.276-1.03,5.619
				c1.395-2.412,1.982-4.824,2.451-6.961c0.052,1.603-0.978,2.672-0.534,4.015l0.626-1.343l0.065,2.138l1.186-0.26
				c-0.156,3.35,0.404,6.349-0.587,9.894C650.172,122.515,650.615,123.858,649.012,123.858z M649.325,144.977l-0.404-0.274
				l0.782-0.535L649.325,144.977z M652.375,144.169l-0.287-0.535h0.534L652.375,144.169z M655.621,133.74h-0.261l0.13-0.261h0.261
				L655.621,133.74z M655.4,130.807v-0.757l0.104-0.052l0.365-0.796L655.4,130.807z M655.791,126.531l-0.912,0.795l0.404,0.274
				l-0.456,2.138l0.365,0.3l-0.43,1.564l0.926-0.261l-1.277,2.138c0.065,1.604,1.16,2.673,0.443,4.811
				c-1.03,1.069-3.533,2.412-5.267,2.673c0.873-5.879,1.212-11.759,2.477-17.912c1.173-0.808,3.025-1.33,4.485-1.603
				C656.338,123.05,655.869,125.188,655.791,126.531z M657.068,120.912h-0.534l0.782-0.535L657.068,120.912z M658.946,105.412
				l-1.043,0.534l0.626-1.342L658.946,105.412z M675.463,87.761h0.274l-0.13,0.274h-0.261L675.463,87.761z M669.062,92.311
				l-0.417-0.808l1.955-1.33L669.062,92.311z M672.647,91.502l-0.026-1.069l0.665,0.274L672.647,91.502z M673.338,88.295
				l-1.538,1.604h-0.274L673.338,88.295z M667.341,84.554l0.508,0.208L667.341,84.554z M668.175,81.621
				c1.538-1.617,1.747,0.26,2.151,0.535L668.175,81.621z M671.812,82.416l-0.678-0.26L671.812,82.416z M680.377,78.948l1.63,0.521
				h-1.877L680.377,78.948z M672.321,77.866l3.337-0.26C674.328,78.14,673.142,78.401,672.321,77.866z M676.545,76.263
				c-1.708,0.808-2.646,0.547-3.598,0.274l1.434-1.343l2.633-1.069L676.545,76.263z M678.409,52.21l0.43,0.796l-0.938-0.261
				L678.409,52.21z M675.397,58.09l0.508-1.069l0.665,0.261L675.397,58.09z M676.792,67.711c1.33-0.535,0.704,0.808,1.108,1.069
				L676.792,67.711z M678.096,54.609c-2.907,1.082-3.95,5.619-6.662,4.55c2.49-1.342,3.937-6.153,6.766-5.345L678.096,54.609z
				 M678.213,65.221l1.16-0.183L678.213,65.221z M682.111,74.411l-0.769,1.317L682.111,74.411z M708.588,55.144l-0.521,0.547
				l0.143,0.496c-2.295,0.977-5.202,1.916-7.796,2.163C703.191,57.556,705.941,56.213,708.588,55.144z M714.22,55.691l-2.373,1.056
				l0.939,0.274c-6.023-0.274-12.841,3.481-18.968,4.002C700.675,58.351,707.336,57.817,714.22,55.691z M692.084,61.297h0.534
				l-2.125,0.535L692.084,61.297z M683.089,63.97l-1.317,0.535L683.089,63.97z M687.117,56.486h-0.274l0.248-0.534h0.261
				L687.117,56.486z M712.851,47.127l2.372-1.069L712.851,47.127z M716.279,45.523l0.13-0.274h0.534L716.279,45.523z"/>
			<path clip-path="url(#SVGID_00000106131235138818619100000009340938953850648760_)" fill="#E85899" d="M607.57,87.76
				c4.784-0.535,9.282-2.138,14.197-2.933c0.313,1.603,2.529-0.275,3.611-0.275c-4.211,2.138-8.343,2.946-12.684,4.811l0.912-0.208
				l-0.104,0.208h0.261l0.13-0.261h-0.117l2.242-0.534l-0.13,0.26c1.356,0.535,2.659-0.534,4.38-0.795l1.056-0.535
				c4.289,0.535,8.721-3.207,12.971-3.741l0.561,0.535l0.248-0.535c2.49-1.343,5.514-2.673,7.652-2.673
				c-5.123,2.399-10.664,4.537-16.204,6.675l1.199,0.274h-0.261l-2.307,0.691l0.065,0.104c-2.373,1.069-4.993,2.673-7.131,2.673
				h0.274l-2.855,1.343l3.168,0.182l2.881,0.053l6.101-3.181l1.46-0.261c-2.203,1.069-4.198,2.256-6.166,3.481l2.216,0.026
				l1.265-0.04l-0.065,0.053h2.607l1.16-1.121l-1.199,0.274c5.514-3.207,10.455-7.483,15.813-10.964l-0.169-0.795l-2.242,0.795
				l1.173-0.795l0.117-0.808l-0.078-2.138c-1.186,0.26-2.373,1.069-3.689,1.603c0.443-2.673,2.659-0.535,4.458-2.673l0.039-2.946
				h0.534c0.626-1.33,0.73-2.138-0.339-2.138l0.365-0.196l-1.851-0.065l-1.577-0.104l-0.561,0.104l-1.134-0.196
				c-3.076-0.13-6.192-0.13-9.295,0.013l0.274,0.183l0.3,1.069h-2.412l0.026,0.535l-1.199,0.261
				c0.965,0.808,2.542-0.261,2.972,1.069l-0.782,0.535c-4.784,0.535-9.347,0-13.375-0.535l0.587-2.398l-1.643,2.933l6.831,0.274
				c-0.613,1.877,2.164,1.069,3.533,1.603l1.708-0.808c1.212,0.274,2.307,1.342,0.887,2.672h0.535
				c1.212,0.274,0.573,1.069,0.339,2.151c-2.464,2.398-5.801,2.138-8.708,3.207c-0.965-0.808-2.021-0.274-3.481,0
				c1.616,0.535,3.741,0,5.345,0l-3.415,1.603C615.248,85.622,610.881,86.965,607.57,87.76 M617.229,92.845h-0.274l0.13-0.274h0.261
				L617.229,92.845z M618.937,92.036l1.056-0.535h0.261L618.937,92.036z M642.689,78.947h0.261l-0.117,0.261h-0.274L642.689,78.947z
				 M643.511,75.467l-2.268,0.261L643.511,75.467z M639.091,79.208l-1.277,0.091L639.091,79.208z M638.218,78.439l-0.821,0.626
				l-0.965,0.678h-0.274C636.249,78.479,637.318,78.635,638.218,78.439z M634.138,78.947l0.013,0.522l-0.13,0.274L634.138,78.947z
				 M632.717,80.278l-0.665,0.274l0.626-1.343L632.717,80.278z M632.847,76.536l-1.708,0.808l-0.821-0.535L632.847,76.536z
				 M629.953,79.156l1.134,0.587l-0.652,0.808l0.026,0.534l-1.577,0.535L629.953,79.156z"/>
			<path clip-path="url(#SVGID_00000106131235138818619100000009340938953850648760_)" fill="#E85899" d="M562.386,119.712
				l-1.317-0.417c-9.764,4.419-19.528,8.813-29.345,13.402l-0.248,0.482l-0.534,1.069l-0.026,0.039
				c10.52-4.823,21.184-9.803,31.822-14.523L562.386,119.712"/>
			<path clip-path="url(#SVGID_00000106131235138818619100000009340938953850648760_)" fill="#E85899" d="M628.714,41.247
				l-0.3-1.069l1.056-0.534l0.548,0.534l0.117-0.808l2.894-1.069c-0.782,0.535-0.456,2.138-1.812,1.617l3.39,5.332l-1.591,0.547
				l0.873,1.616c1.382-0.091,2.764-0.13,4.159-0.13l-0.182-0.418l0.482,0.404l0.86,0.014l-1.004-2.295l-0.508,1.069
				c-1.395-2.138-3.311-3.207-4.719-5.345h0.274c0.078-1.342,1.903-2.933,3.324-4.276l1.447-0.808l0.887-1.33
				c0.573,1.069,2.907-1.069,4.119-0.808l1.59-0.534c0.496,2.946,2.855,5.345,2.281,8.291l1.134,2.138l0.521-0.535
				c1.76,0.808-0.73,2.138-0.43,3.207l1.669,1.408l-0.886,0.169l2.516,0.092l-0.026-0.065l0.026,0.065l1.369,0.065l-0.639-1.2
				l0.613-0.534h-0.626c0.6-1.864-1.434-2.673-0.821-4.55l0.547,0.548c0.417-3.755-1.656-5.619-2.034-8.826l-0.873-1.917
				c0.196,2.281,1.864,4.041,1.695,6.466l-0.391,0.26l-0.978-1.33l-0.091,1.33l-0.965-0.795c0.886-1.343,0.052-2.412-0.248-3.481
				l-0.378,0.808c-1.108-1.082-0.495-2.946-1.212-4.289c1.591-0.535,3.155-1.603,4.211-2.138l2.764-1.33l0.352,2.659
				c-0.182-1.33-0.352-2.659,0.261-4.002l1.734-0.261c0.717-2.672,0.574,1.069,2.021,0.261c0.495-1.069-1.004-1.864,0.704-2.673
				c1.343,0,0.613,2.138,0.913,3.207c0.091-1.33,0.156-3.207,0.913-4.811l0.508-0.535l0.561,0.535l0.6-1.864l1.212,0.261L663,19.332
				l1.03-1.082l0.365,0.626l0.261-1.956l2.777-0.808c0.756-1.603-1.486-0.795-1.916-1.603c-1.682,1.878-3.741,4.015-5.879,4.015
				l-0.248,0.535c-4.719,2.673-9.803,6.688-14.418,8.552l0.091-1.33l0.821,0.535l-1.16-2.673l1.043-0.535
				c1.082,0.535,1.447-0.808,2.777-0.808l-0.404-0.26l0.521-0.535l0.665,0.261c2.503-1.33,2.034-3.207,1.46-4.276l0.091,2.672
				c-1.317,1.252-3.285,0.874-3.82,2.321l-1.356-1.513l0.287,0.535c-0.091,1.33-1.447,0.795-1.968,1.33l0.365-1.33l-0.522,0.535
				l-0.287-0.535c1.812-1.603-1.382-1.603,0.548-3.481l-1.382-1.603c0.847-2.412-2.998-1.603-1.343-4.002
				c-1.343,0-1.643-1.081-2.216-2.151l-1.721-4.211l-0.078-0.013c0.847,3.337,3.064,6.218,2.659,9.842
				c-1.173-3.207-2.346-6.414-3.65-9.36c1.747,4.276,2.581,9.36,4.328,13.635l0.078,2.138l-3.976-6.948l1.942,6.153l-0.404-0.274
				l-0.652,0.808l1.46-0.274l0.287,0.534l-0.782,0.535c0.717,1.343,1.317,3.481,2.425,4.55l-1.173-3.207
				c1.369,1.069,2.242,3.207,2.829,4.797l-0.508,0.547c-2.412,4.002-8.109,5.345-11.863,8.813h-1.069l-0.261,0.535
				c-2.099,1.069-0.156-0.796-1.499-0.796c-1.734-0.274-2.477-2.138-3.963-2.946C624.986,37.779,626.407,39.917,628.714,41.247
				 M632.286,39.917h0.261l0.143,0.26L632.286,39.917z M634.581,44.714c1.265,0,1.734,1.199,2.268,2.229
				C636.328,46.618,634.411,46.018,634.581,44.714z M649.612,42.315h-0.274l0.13-0.26h0.261L649.612,42.315z M649.586,37.779h0.274
				l-0.13,0.26h-0.261L649.586,37.779z M649.494,39.109l-0.078,1.33L649.494,39.109z M663.195,17.182l0.287,0.535l0.782-0.535
				l-1.173,0.808L663.195,17.182z M653.118,23.335l2.112-0.535l0.769-1.069c-0.248,0.535,1.76,0.808-0.222,1.603l0.417,0.274
				l-2.751,1.864l1.93-2.398l-2.516,0.795L653.118,23.335z M644.097,29.475c1.473,0.274,1.942-1.864,3.415-1.591
				c-0.495,1.069,0.169,0.796-1.277,1.591c-1.304,1.082,0.482,2.412,0.248,3.481l2.281,8.291c-1.434-3.207-2.907-6.949-3.025-10.69
				C644.932,30.557,643.745,30.818,644.097,29.475z M643.602,18.524l-0.365,1.33h-0.261L643.602,18.524z"/>
			<path clip-path="url(#SVGID_00000106131235138818619100000009340938953850648760_)" fill="#E85899" d="M668.462,41.221
				c-1.03,2.673-2.594,5.658-3.95,8.135l1.238,1.017c0.73-3.768,3.389-8.213,4.576-11.797
				C669.7,38.835,669.87,41.052,668.462,41.221"/>
			<path clip-path="url(#SVGID_00000106131235138818619100000009340938953850648760_)" fill="#E85899" d="M704.221,40.438
				l0.248-0.521l1.043-0.547l0.026,0.547c3.65-2.673,7.027-5.345,10.807-8.291l-1.186,0.261l3.794-2.412l0.548,0.547l3.415-0.822
				l0.065-0.625l-0.287-0.365l-0.274-0.43l-0.717,0.364l0.665-0.443l-0.808-1.408l-1.747,1.317
				c-7.587,5.306-15.005,10.481-22.344,15.552l1.225,0.117C700.179,41.951,702.891,42.903,704.221,40.438"/>
			<path clip-path="url(#SVGID_00000106131235138818619100000009340938953850648760_)" fill="#E85899" d="M709.37,20.01h-0.691
				l-0.769-0.078c-1.03,1.264-2.086,2.568-3.207,3.402c-6.088,6.127-11.824,12.554-17.847,18.864l1.969,0.169
				c1.265-1.278,2.346-2.607,3.168-3.794l-1.317,0.535c5.527-6.153,11.876-12.293,17.417-18.446L709.37,20.01"/>
		</g>
	</g>
</g>
<polyline fill="#E85899" points="641.503,79.535 641.634,79.47 641.503,79.535 "/>
<polyline fill="#E85899" points="588.85,132.462 589.397,131.876 588.85,132.462 "/>
<g>
	<defs>
		<path id="SVGID_00000044897714110048566420000004843133684384757147_" d="M578.733,40.595l31.013-24.261l51.637-13.141
			L578.733,40.595 M606.383,0l-29.658,32.942l27.741-16.608L606.383,0 M718.104,25.616c-3.259-4.028-10.651-6.049-22.148-6.049
			h-26.19l9.125-17.455l-100.64,44.414h92.232c1.147,0.13,2.399,0.261,3.741,0.378c0.104,1.03-0.404,2.595-1.512,4.706
			l-8.343,15.891l-1.004,1.917l-0.404,0.769l-1.147,1.434c-0.782,0.639-2.321,0.965-4.628,0.965h-57.242l-13.088,20.806
			l12.867-1.917H646.9c0.508,0,1.747,0.13,3.728,0.378c0.104,1.03-0.365,2.529-1.395,4.511l-10.52,20.024l-1.304,2.49l-1.447,1.825
			c-0.717,0.508-2.216,0.757-4.524,0.757l-73.316,0.417l-2.19-20.35l-34.429,47.087h106.715c12.019,0,21.562-2.112,28.628-6.335
			c7.978-4.719,14.366-11.655,19.163-20.806l9.92-18.877c5.932-11.315,5.867-18.251-0.208-20.806
			c2.842-0.886,5.084-1.825,6.74-2.777c5.606-3.259,10.194-8.278,13.753-15.057l9.047-17.261c2.764-5.228,4.302-9.516,4.641-12.841
			C720.255,30.283,719.643,27.533,718.104,25.616"/>
	</defs>
	<clipPath id="SVGID_00000121265489092841384250000013951993500036932028_">
		<use xlink:href="#SVGID_00000044897714110048566420000004843133684384757147_"  overflow="visible"/>
	</clipPath>
	<g clip-path="url(#SVGID_00000121265489092841384250000013951993500036932028_)">
		<defs>
			
				<rect id="SVGID_00000160901433818427806910000002074514300776610461_" x="-1276.358" y="-11313.105" width="13450.981" height="19030.906"/>
		</defs>
		<clipPath id="SVGID_00000120555518505701857310000012770732992315823802_">
			<use xlink:href="#SVGID_00000160901433818427806910000002074514300776610461_"  overflow="visible"/>
		</clipPath>
		<g clip-path="url(#SVGID_00000120555518505701857310000012770732992315823802_)">
			<defs>
				
					<rect id="SVGID_00000142868930614829966980000000518557741725742004_" x="-1276.358" y="-11312.976" width="13451.11" height="19030.775"/>
			</defs>
			<clipPath id="SVGID_00000017506565793125495030000008247182589393221762_">
				<use xlink:href="#SVGID_00000142868930614829966980000000518557741725742004_"  overflow="visible"/>
			</clipPath>
			<polyline clip-path="url(#SVGID_00000017506565793125495030000008247182589393221762_)" fill="#E85899" points="637.488,91.241 
				636.888,91.645 637.488,91.241 			"/>
		</g>
	</g>
</g>
<polyline fill="#E85899" points="649.964,127.99 649.925,128.121 649.964,127.99 "/>
<path fill="#E85899" d="M693.792,64.504l1.59-0.534c1.747,0.274,4.263-0.535,5.619,0c1.069,0,3.207,0,4.498-1.069
	c-2.568-0.808-5.423,1.343-7.731,0.535c-1.708,0.808-2.959-0.535-4.641,0.808L693.792,64.504"/>
<polyline fill="#E85899" points="683.245,76.809 683.128,77.07 687.13,77.07 683.245,76.809 "/>
<path fill="#E85899" d="M696.673,74.398c-0.939-0.274-1.773-0.808-3.233-0.534c-1.969,0.795-4.419-0.274-5.971,1.33
	C690.024,75.467,694.248,73.864,696.673,74.398"/>
<g>
	<defs>
		<path id="SVGID_00000020364057093921782040000015490883089464460987_" d="M578.733,40.595l31.013-24.261l51.637-13.141
			L578.733,40.595 M606.383,0l-29.658,32.942l27.741-16.608L606.383,0 M718.104,25.616c-3.259-4.028-10.651-6.049-22.148-6.049
			h-26.19l9.125-17.455l-100.64,44.414h92.232c1.147,0.13,2.399,0.261,3.741,0.378c0.104,1.03-0.404,2.595-1.512,4.706
			l-8.343,15.891l-1.004,1.917l-0.404,0.769l-1.147,1.434c-0.782,0.639-2.321,0.965-4.628,0.965h-57.242l-13.088,20.806
			l12.867-1.917H646.9c0.508,0,1.747,0.13,3.728,0.378c0.104,1.03-0.365,2.529-1.395,4.511l-10.52,20.024l-1.304,2.49l-1.447,1.825
			c-0.717,0.508-2.216,0.757-4.524,0.757l-73.316,0.417l-2.19-20.35l-34.429,47.087h106.715c12.019,0,21.562-2.112,28.628-6.335
			c7.978-4.719,14.366-11.655,19.163-20.806l9.92-18.877c5.932-11.315,5.867-18.251-0.208-20.806
			c2.842-0.886,5.084-1.825,6.74-2.777c5.606-3.259,10.194-8.278,13.753-15.057l9.047-17.261c2.764-5.228,4.302-9.516,4.641-12.841
			C720.255,30.283,719.643,27.533,718.104,25.616"/>
	</defs>
	<clipPath id="SVGID_00000160913429738007964040000017973066352184997782_">
		<use xlink:href="#SVGID_00000020364057093921782040000015490883089464460987_"  overflow="visible"/>
	</clipPath>
	<g clip-path="url(#SVGID_00000160913429738007964040000017973066352184997782_)">
		<defs>
			
				<rect id="SVGID_00000021822667807905424660000015014503965082753210_" x="-1276.358" y="-11313.105" width="13450.981" height="19030.906"/>
		</defs>
		<clipPath id="SVGID_00000017494561995402089540000001596570923145390743_">
			<use xlink:href="#SVGID_00000021822667807905424660000015014503965082753210_"  overflow="visible"/>
		</clipPath>
		<g clip-path="url(#SVGID_00000017494561995402089540000001596570923145390743_)">
			<defs>
				
					<rect id="SVGID_00000065071557465068755470000016622224633514268559_" x="-1276.358" y="-11312.976" width="13451.11" height="19030.775"/>
			</defs>
			<clipPath id="SVGID_00000084519247380744608720000007393584086233809590_">
				<use xlink:href="#SVGID_00000065071557465068755470000016622224633514268559_"  overflow="visible"/>
			</clipPath>
			<path clip-path="url(#SVGID_00000084519247380744608720000007393584086233809590_)" fill="#E85899" d="M704.104,61.296
				c1.981-0.795,4.276-0.534,5.592-1.069C707.949,59.967,706.085,60.501,704.104,61.296"/>
			<polyline clip-path="url(#SVGID_00000084519247380744608720000007393584086233809590_)" fill="#E85899" points="716.488,50.45 
				713.946,51.677 716.227,51.128 716.488,50.45 			"/>
		</g>
	</g>
</g>
<path fill="#E85899" d="M648.347,116.101l0.9-1.342l-0.026,3.48c0.613-1.877,0.548-3.48,0.652-4.81L648.347,116.101
	 M649.351,113.963h0.261l-0.117,0.275h-0.274L649.351,113.963z"/>
<g>
	<defs>
		<path id="SVGID_00000088097864766256750250000016113552908000074636_" d="M578.733,40.595l31.013-24.261l51.637-13.141
			L578.733,40.595 M606.383,0l-29.658,32.942l27.741-16.608L606.383,0 M718.104,25.616c-3.259-4.028-10.651-6.049-22.148-6.049
			h-26.19l9.125-17.455l-100.64,44.414h92.232c1.147,0.13,2.399,0.261,3.741,0.378c0.104,1.03-0.404,2.595-1.512,4.706
			l-8.343,15.891l-1.004,1.917l-0.404,0.769l-1.147,1.434c-0.782,0.639-2.321,0.965-4.628,0.965h-57.242l-13.088,20.806
			l12.867-1.917H646.9c0.508,0,1.747,0.13,3.728,0.378c0.104,1.03-0.365,2.529-1.395,4.511l-10.52,20.024l-1.304,2.49l-1.447,1.825
			c-0.717,0.508-2.216,0.757-4.524,0.757l-73.316,0.417l-2.19-20.35l-34.429,47.087h106.715c12.019,0,21.562-2.112,28.628-6.335
			c7.978-4.719,14.366-11.655,19.163-20.806l9.92-18.877c5.932-11.315,5.867-18.251-0.208-20.806
			c2.842-0.886,5.084-1.825,6.74-2.777c5.606-3.259,10.194-8.278,13.753-15.057l9.047-17.261c2.764-5.228,4.302-9.516,4.641-12.841
			C720.255,30.283,719.643,27.533,718.104,25.616"/>
	</defs>
	<clipPath id="SVGID_00000176734425780210418670000003902126717063461768_">
		<use xlink:href="#SVGID_00000088097864766256750250000016113552908000074636_"  overflow="visible"/>
	</clipPath>
	<g clip-path="url(#SVGID_00000176734425780210418670000003902126717063461768_)">
		<defs>
			
				<rect id="SVGID_00000028301724132672064940000004282369002749948038_" x="-1276.358" y="-11313.105" width="13450.981" height="19030.906"/>
		</defs>
		<clipPath id="SVGID_00000138547603048251956710000002319114982241670035_">
			<use xlink:href="#SVGID_00000028301724132672064940000004282369002749948038_"  overflow="visible"/>
		</clipPath>
		<g clip-path="url(#SVGID_00000138547603048251956710000002319114982241670035_)">
			<defs>
				
					<rect id="SVGID_00000142872839152976193200000016804738921988269467_" x="-1276.358" y="-11312.976" width="13451.11" height="19030.775"/>
			</defs>
			<clipPath id="SVGID_00000085242521642343853670000014050465111589471896_">
				<use xlink:href="#SVGID_00000142872839152976193200000016804738921988269467_"  overflow="visible"/>
			</clipPath>
			<polyline clip-path="url(#SVGID_00000085242521642343853670000014050465111589471896_)" fill="#E85899" points="640.317,16.386 
				640.747,17.182 640.317,16.386 			"/>
		</g>
	</g>
</g>
<polyline fill="#E85899" points="667.106,26.007 667.354,25.473 667.224,25.747 667.106,26.007 "/>
<polyline fill="#E85899" points="647.735,26.281 648.021,26.816 647.735,26.281 "/>
<polyline fill="#E85899" points="679.999,28.145 680.299,28.68 679.999,28.145 "/>
<polyline fill="#E85899" points="650.537,38.04 650.694,38.835 650.537,38.04 "/>
<polyline fill="#E85899" points="664.877,39.369 663.952,43.659 664.877,39.369 "/>
<polyline fill="#E85899" points="651.033,40.973 651.176,41.248 651.033,40.973 "/>
<polyline fill="#E85899" points="709.67,43.659 707.832,44.715 709.67,43.659 "/>
<polyline fill="#E85899" points="675.919,65.572 676.453,65.572 675.919,65.572 "/>
<polyline fill="#E85899" points="680.86,73.329 681.929,73.329 680.86,73.329 "/>
<polyline fill="#E85899" points="697.598,74.124 698.12,74.124 697.598,74.124 "/>
<polyline fill="#E85899" points="690.246,78.4 690.793,78.4 690.246,78.4 "/>
<polyline fill="#E85899" points="683.767,80.277 684.444,80.551 683.767,80.277 "/>
<polyline fill="#E85899" points="685.514,80.551 686.987,80.812 685.514,80.551 "/>
<polyline fill="#E85899" points="685.449,82.415 686.517,82.415 685.449,82.415 "/>
<polyline fill="#E85899" points="676.506,86.691 677.04,86.691 676.506,86.691 "/>
<polyline fill="#E85899" points="648.986,87.226 648.217,88.295 648.986,87.226 "/>
<polyline fill="#E85899" points="679.53,89.364 679.817,89.898 679.53,89.364 "/>
<polyline fill="#E85899" points="650.276,105.672 650.172,106.48 650.276,105.672 "/>
<polyline fill="#E85899" points="652.675,109.687 652.427,110.222 652.675,109.687 "/>
<g>
	<defs>
		<path id="SVGID_00000009548636237016802380000016517516929035658402_" d="M578.733,40.595l31.013-24.261l51.637-13.141
			L578.733,40.595 M606.383,0l-29.658,32.942l27.741-16.608L606.383,0 M718.104,25.616c-3.259-4.028-10.651-6.049-22.148-6.049
			h-26.19l9.125-17.455l-100.64,44.414h92.232c1.147,0.13,2.399,0.261,3.741,0.378c0.104,1.03-0.404,2.595-1.512,4.706
			l-8.343,15.891l-1.004,1.917l-0.404,0.769l-1.147,1.434c-0.782,0.639-2.321,0.965-4.628,0.965h-57.242l-13.088,20.806
			l12.867-1.917H646.9c0.508,0,1.747,0.13,3.728,0.378c0.104,1.03-0.365,2.529-1.395,4.511l-10.52,20.024l-1.304,2.49l-1.447,1.825
			c-0.717,0.508-2.216,0.757-4.524,0.757l-73.316,0.417l-2.19-20.35l-34.429,47.087h106.715c12.019,0,21.562-2.112,28.628-6.335
			c7.978-4.719,14.366-11.655,19.163-20.806l9.92-18.877c5.932-11.315,5.867-18.251-0.208-20.806
			c2.842-0.886,5.084-1.825,6.74-2.777c5.606-3.259,10.194-8.278,13.753-15.057l9.047-17.261c2.764-5.228,4.302-9.516,4.641-12.841
			C720.255,30.283,719.643,27.533,718.104,25.616"/>
	</defs>
	<clipPath id="SVGID_00000111189571277187721660000007748425551733483189_">
		<use xlink:href="#SVGID_00000009548636237016802380000016517516929035658402_"  overflow="visible"/>
	</clipPath>
	<g clip-path="url(#SVGID_00000111189571277187721660000007748425551733483189_)">
		<defs>
			
				<rect id="SVGID_00000090282896641285897410000018306868523458129543_" x="-1276.358" y="-11313.105" width="13450.981" height="19030.906"/>
		</defs>
		<clipPath id="SVGID_00000082361651943039998570000009135007159340192403_">
			<use xlink:href="#SVGID_00000090282896641285897410000018306868523458129543_"  overflow="visible"/>
		</clipPath>
		<g clip-path="url(#SVGID_00000082361651943039998570000009135007159340192403_)">
			<defs>
				
					<rect id="SVGID_00000183970584249428337930000016878530868163886993_" x="-1276.358" y="-11312.976" width="13451.11" height="19030.775"/>
			</defs>
			<clipPath id="SVGID_00000113349261377955504770000000856868703786489238_">
				<use xlink:href="#SVGID_00000183970584249428337930000016878530868163886993_"  overflow="visible"/>
			</clipPath>
			
				<line clip-path="url(#SVGID_00000113349261377955504770000000856868703786489238_)" fill="#E85899" x1="614.792" y1="120.82" x2="612.25" y2="123.585"/>
		</g>
	</g>
</g>
<polyline fill="#E85899" points="611.207,124.653 609.538,126.531 611.207,124.653 "/>
<polyline fill="#E85899" points="661.84,127.86 662.114,127.86 661.84,127.86 "/>
<polyline fill="#E85899" points="656.925,128.668 657.733,128.668 656.925,128.668 "/>
<polyline fill="#E85899" points="574.562,143.634 573.649,144.442 574.562,143.634 "/>
<polyline fill="#E85899" points="575.096,143.634 574.575,144.169 575.096,143.634 "/>
<polyline fill="#E85899" points="573.141,144.976 571.955,145.772 573.141,144.976 "/>
<path d="M699.15,139.058c0,0,15.644-52.732,10.325-59.875l-2.751-0.235c0.235-0.287,10.455-20.819,10.455-32.499h-1.421l-0.782,0.86
	l1.043-2.425l-3.768,0.014l-1.369,0.013h-2.855l-1.473,2.399l0.13-1.043l-1.538,0.014c0,0-16.348,24.507-28.589,47.674h1.265
	l1.004-0.756l-10.729,22.826l-1.825-0.417l3.194-6.31h-1.199l0.717-1.552l-2.477,0.014l1.265-2.673h-0.443l-1.265,2.673h-1.199
	l-0.73,1.551l-5.254,0.026l-6.336,14.157c0,0-0.026-6.622,1.108-10.155l-12.515,25.942L699.15,139.058"/>
<polyline points="690.233,142.813 697.911,126.492 702.005,126.478 702.695,124.993 705.485,124.993 706.619,124.979 
	705.928,126.466 708.001,126.453 697.246,148.614 690.233,142.813 "/>
<polyline points="686.817,138.276 691.771,138.276 695.46,142.461 699.893,142.891 697.246,148.614 459.986,148.614 
	463.049,142.891 627.189,142.891 635.363,138.276 686.817,138.276 "/>
<path d="M692.436,138.276c0,0,18.811-52.21,13.91-59.301l-2.711-0.248c0.248-0.286,11.694-20.597,12.398-32.173h-1.434l-0.821,0.847
	l1.186-2.399h-3.103l2.099-3.924h-1.369l-2.099,3.924h-3.52l-1.616,2.359l0.196-1.016h-1.551c0,0-17.807,24.234-31.444,47.152h1.278
	l1.043-0.742l-12.098,22.592l-1.799-0.43l3.572-6.244h-1.199l0.821-1.538h-2.477l1.421-2.646h-0.456l-1.421,2.646h-1.199
	l-0.821,1.538h-5.254l-7.196,14.001c0,0,0.378-6.557,1.721-10.051l-14.066,25.655H692.436"/>
<polyline points="683.311,141.965 691.954,125.814 696.047,125.814 696.829,124.354 700.753,124.354 699.971,125.814 
	702.044,125.814 693.388,141.965 683.311,141.965 "/>
<polyline fill="#FFFFFF" points="660.745,112.49 649.103,137.194 648.086,137.194 659.715,112.49 660.745,112.49 "/>
<polyline fill="#FFFFFF" points="657.864,112.49 646.235,137.194 645.218,137.194 656.847,112.49 657.864,112.49 "/>
<polyline fill="#FFFFFF" points="654.996,112.49 643.354,137.194 642.337,137.194 653.966,112.49 654.996,112.49 "/>
<rect x="642.729" y="133.439" width="2.712" height="1.304"/>
<rect x="647.708" y="129.659" width="2.725" height="1.303"/>
<rect x="647.787" y="123.754" width="2.724" height="1.316"/>
<rect x="655.648" y="118.317" width="2.724" height="1.303"/>
<rect x="651.567" y="115.136" width="2.725" height="1.317"/>
<rect x="652.18" y="126.635" width="2.724" height="1.303"/>
<polyline fill="#FFFFFF" points="703.504,83.015 684.054,124.353 683.011,124.353 702.474,83.015 703.504,83.015 "/>
<polyline fill="#FFFFFF" points="703.608,88.516 686.674,124.353 685.631,124.353 702.565,88.516 703.608,88.516 "/>
<polyline fill="#FFFFFF" points="703.452,95.322 689.79,124.354 688.76,124.354 702.422,95.322 703.452,95.322 "/>
<polyline fill="#FFFFFF" points="699.919,108.931 692.671,124.353 691.641,124.353 698.889,108.931 699.919,108.931 "/>
<polyline fill="#FFFFFF" points="699.919,108.931 692.671,124.353 691.641,124.353 698.889,108.931 699.919,108.931 "/>
<rect x="686.765" y="114.015" width="12.307" height="1.317"/>
<rect x="688.681" y="104.434" width="12.306" height="1.316"/>
<rect x="692.006" y="92.544" width="12.306" height="1.304"/>
<polyline fill="#FFFFFF" points="678.474,119.204 681.003,121.759 681.929,119.947 679.204,117.236 678.474,119.204 "/>
<polyline fill="#FFFFFF" points="672.882,116.192 676.688,117.978 677.418,115.997 673.612,114.211 672.882,116.192 "/>
<polyline fill="#FFFFFF" points="665.438,115.762 670.548,115.762 671.278,113.795 666.481,113.795 665.438,115.762 "/>
<polyline fill="#FFFFFF" points="682.581,110.639 685.07,113.142 685.983,111.369 683.297,108.697 682.581,110.639 "/>
<polyline fill="#FFFFFF" points="677.092,107.666 680.833,109.426 681.551,107.484 677.809,105.724 677.092,107.666 "/>
<polyline fill="#FFFFFF" points="669.766,107.262 674.798,107.262 675.515,105.32 670.796,105.32 669.766,107.262 "/>
<polyline fill="#FFFFFF" points="685.866,103.182 688.316,105.646 689.216,103.9 686.57,101.266 685.866,103.182 "/>
<polyline fill="#FFFFFF" points="680.456,100.249 684.145,101.984 684.849,100.08 681.159,98.346 680.456,100.249 "/>
<polyline fill="#FFFFFF" points="673.247,99.845 678.2,99.845 678.904,97.942 674.263,97.942 673.247,99.845 "/>
<polyline fill="#FFFFFF" points="689.503,95.178 691.901,97.603 692.775,95.882 690.194,93.314 689.503,95.178 "/>
<polyline fill="#FFFFFF" points="684.21,92.323 687.821,94.017 688.499,92.14 684.901,90.446 684.21,92.323 "/>
<polyline fill="#FFFFFF" points="677.158,91.918 682.007,91.918 682.685,90.055 678.148,90.055 677.158,91.918 "/>
<polyline fill="#FFFFFF" points="693.336,87.473 695.734,89.886 696.608,88.164 694.026,85.596 693.336,87.473 "/>
<polyline fill="#FFFFFF" points="688.043,84.605 691.654,86.3 692.332,84.437 688.734,82.742 688.043,84.605 "/>
<polyline fill="#FFFFFF" points="680.99,84.214 685.826,84.214 686.517,82.337 681.981,82.337 680.99,84.214 "/>
<polyline fill="#FFFFFF" points="710.087,46.122 692.605,76.953 693.687,76.953 711.182,46.122 710.087,46.122 "/>
<path fill="#717071" d="M543.613,67.985c-6.049,0-11.355-2.346-14.914-6.597c-3.65-4.354-5.058-10.142-3.976-16.321
	c2.216-12.528,14.209-22.723,26.75-22.723c6.049,0,11.341,2.334,14.914,6.597c3.65,4.341,5.058,10.142,3.963,16.321
	C568.148,57.777,556.141,67.985,543.613,67.985 M551.474,23.4c-12.046,0-23.57,9.803-25.695,21.862
	c-1.03,5.854,0.287,11.342,3.728,15.435c3.363,4.015,8.369,6.218,14.105,6.218c12.046,0,23.57-9.803,25.682-21.848
	c1.043-5.854-0.287-11.342-3.728-15.448C562.203,25.617,557.197,23.4,551.474,23.4z"/>
<polyline fill="#717071" points="549.415,37.557 548.372,37.375 551.852,17.638 552.895,17.821 549.415,37.557 "/>
<polyline fill="#717071" points="543.223,72.69 542.18,72.508 545.66,52.758 546.703,52.941 543.223,72.69 "/>
<rect x="520.109" y="44.623" fill="#717071" width="19.737" height="1.069"/>
<rect x="555.229" y="44.623" fill="#717071" width="19.75" height="1.069"/>
<rect x="542.219" y="44.636" fill="#717071" width="10.65" height="1.056"/>
<polyline fill="#717071" points="547.133,50.581 546.077,50.399 547.955,39.735 548.998,39.931 547.133,50.581 "/>
<path d="M91.723,32.121c-0.808,1.513-2.568,3.455-3.181,4.406l0.847,1.408h8.096c1.343,0,1.799,0.86,1.004,1.916l-61.231,82.416
	c-0.704,0.795-1.46,1.291-2.685,1.291c-2.229,0-20.245,0-20.245,0c-1.968,0-2.177-1.878-1.369-2.934l34.155-45.497
	c0.795-1.056,0.352-1.903-1.004-1.903H22.331c-1.343,0-3.09,0.86-3.872,1.917l-2.568,3.429c-0.782,1.056-2.529,1.916-3.885,1.916
	H1.408c-1.356,0-1.812-0.847-1.017-1.903l35.263-46.722c0.782-1.043,2.542-1.903,3.885-1.903c0,0,47.961,0,50.32,0
	C92.232,29.958,92.492,30.687,91.723,32.121 M42.929,60.879c6.062,0,16.608-3.623,23.048-10.65l4.445-6.036
	c0.795-1.056,0.339-1.903-1.017-1.903H45.471c-1.343,0-3.09,0.86-3.872,1.916L30.713,58.963c-0.782,1.056-0.313,1.916,1.043,1.916
	H42.929z"/>
<path d="M237.834,53.215c-0.939,1.225-2.998,2.229-4.576,2.229h-6.179c-1.564,0-2.099-1.004-1.16-2.229l9.034-11.863
	c0.939-1.225,2.985-2.229,4.563-2.229h6.179c1.577,0,2.099,1.003,1.173,2.229L237.834,53.215 M253.765,53.201
	c-0.913,1.239-2.946,2.243-4.511,2.243h-6.179c-1.577,0-2.125-1.004-1.212-2.243l8.734-11.836c0.9-1.225,2.946-2.242,4.511-2.242
	h6.192c1.577,0,2.112,1.017,1.199,2.242L253.765,53.201z"/>
<path d="M221.917,54.726c-0.939,1.226-0.43,2.229,1.147,2.229h17.899c1.577,0,2.099,1.004,1.173,2.229l-31.078,41.077
	c-0.926,1.225-2.985,2.229-4.55,2.229h-39.265c-1.577,0-2.112-1.003-1.186-2.229l4.054-5.384c0.926-1.238,2.972-2.229,4.55-2.229
	h7.522c1.577,0,3.624-1.017,4.55-2.242L206.834,63.8c0.926-1.225,0.391-2.229-1.186-2.229H189.9c-1.577,0-3.624,1.004-4.55,2.229
	l-27.572,36.462c-0.939,1.225-2.086,2.229-4.563,2.229h-20.454c-1.577,0-2.112-1.003-1.173-2.229L159.264,63.8
	c0.926-1.225,0.404-2.229-1.173-2.229h-5.215c-1.564,0-2.112-1.003-1.199-2.242l3.898-5.293c0.9-1.225,2.946-2.242,4.511-2.242
	h5.371c1.577,0,3.637-1.003,4.563-2.229l3.872-5.097c0.926-1.225,2.998-2.685,4.615-3.246l29.605-10.299
	c1.603-0.56,2.164-0.013,1.238,1.213l-13.154,17.429c-0.926,1.226-0.391,2.229,1.173,2.229h23.948c1.577,0,2.086,1.004,1.147,2.229
	L221.917,54.726"/>
<path d="M128.003,65.026l3.194-1.564h15.331l0.808,1.564l-27.494,35.902l-3.194,1.565H58.142l-0.834-1.565l2.79-3.768l3.168-1.577
	h27.402c8.839,0,17.886-5.019,22.136-10.612L128.003,65.026 M109.844,63.552l0.821,1.565l-7.222,9.568l-3.194,1.565H77.866
	l-0.821-1.565l7.261-9.568l3.194-1.565H109.844z"/>
<path d="M444.629,62.939l3.363-1.656h16.191l0.847,1.656l-28.954,37.91l-3.363,1.642h-61.779l-0.886-1.656l2.946-3.976l3.35-1.655
	h28.94c9.321,0,18.877-5.306,23.374-11.212L444.629,62.939 M425.531,61.388l0.86,1.656l-7.626,10.09l-3.376,1.656h-23.622
	l-0.873-1.656l7.665-10.09l3.363-1.656H425.531z"/>
<path d="M290.344,62.939l3.376-1.656h16.178l0.86,1.656l-28.954,37.91l-3.376,1.642h-61.766l-0.9-1.656l2.946-3.976l3.35-1.655
	h28.941c9.334,0,18.877-5.306,23.374-11.212L290.344,62.939 M271.246,61.388l0.86,1.656l-7.626,10.09l-3.376,1.656h-23.622
	l-0.86-1.656l7.652-10.09l3.363-1.656H271.246z"/>
<path d="M331.018,46.306c0.86-1.082,2.79-1.968,4.289-1.968h69.927c1.499,0,2.021,0.886,1.16,1.968l-42.668,54.204
	c-0.86,1.095-2.79,1.982-4.289,1.982H289.51c-1.499,0-2.021-0.887-1.173-1.982L331.018,46.306 M307.904,90.198
	c-0.847,1.096-0.313,1.982,1.186,1.982h21.406c9.53,0,18.042-7.157,22.318-12.332L370.7,56.786c0.86-1.095,0.326-1.981-1.173-1.981
	h-31.313c-1.499,0-3.416,0.886-4.263,1.981L307.904,90.198z"/>
<path d="M442.478,103.834c-1.46,0-1.968-0.874-1.134-1.942l47.895-61.18c0.834-1.056,2.725-2.346,4.198-2.841l23.087-5.697
	c1.46-0.508,1.982-0.053,1.147,1.017l-40.999,55.092c-1.069,1.356-2.907,3.806-6.896,4.967L442.478,103.834 M526.432,63.017
	c3.95,4.863,7.848,5.789,7.848,5.789c1.447,0.43,1.304,1.682,1.199,2.777l-4.81,28.705c-0.548,0.978-1.317,1.774-3.298,1.774
	h-19.841c-1.265,0-2.49-0.9-2.021-2.764l11.12-48.182l1.76-1.773h1.747c0.769,0,1.108,0.286,1.317,1.981
	C521.543,51.949,521.843,57.36,526.432,63.017z"/>
<path d="M120.912,33.908c-0.795,1.043-2.555,1.904-3.898,1.904h-6.948c-1.356,0-1.812-0.861-1.017-1.917l10.077-13.427
	c0.795-1.057,2.542-1.917,3.898-1.917h7.04c1.343,0,1.799,0.86,1.004,1.917L120.912,33.908"/>
<path d="M105.672,33.908c-0.795,1.043-2.542,1.904-3.898,1.904h-6.948c-1.343,0-1.799-0.861-1.017-1.917l10.077-13.427
	c0.795-1.057,2.542-1.917,3.898-1.917h7.04c1.356,0,1.799,0.86,1.004,1.917L105.672,33.908"/>
<polyline points="529.965,123.649 39.657,123.649 53.853,105.281 544.161,105.281 529.965,123.649 "/>
<polyline points="544.435,105.281 510.918,148.614 358.172,148.614 391.689,105.281 544.435,105.281 "/>
<path fill="#FFFFFF" d="M54.674,110.47l0.821-1.46h10.39c1.656,0,2.06,0.691,0.952,2.216l-4.706,6.479
	c-1.095,1.525-2.503,2.229-4.172,2.229H47.583l1.304-1.473L54.674,110.47 M52.602,118.526h4.458l1.186-0.652l4.954-6.818
	l-0.261-0.652h-4.445L52.602,118.526z"/>
<path fill="#FFFFFF" d="M82.116,116.819l-2.008,1.642l-1.408,1.473h-2.464c0.886-0.574,1.695-1.147,2.881-2.098l10.155-8.109
	l-0.026-0.717h4.185l-1.682,8.851l-0.143,2.073h-4.732l0.235-0.26l0.587-1.552l0.248-1.303H82.116 M88.23,115.423l0.795-4.132
	l-5.136,4.132H88.23z"/>
<polyline fill="#FFFFFF" points="110.796,119.934 110.626,111.083 110.587,111.083 105.242,118.461 104.421,119.934 
	102.218,119.934 103.521,118.461 109.309,110.47 110.131,109.01 114.85,109.01 115.019,117.679 115.058,117.679 120.273,110.47 
	121.094,109.01 123.31,109.01 121.994,110.47 115.15,119.934 110.796,119.934 "/>
<path fill="#FFFFFF" d="M133.661,119.934c-1.669,0-2.06-0.703-0.952-2.229l4.693-6.479c1.108-1.525,2.516-2.216,4.185-2.216h9.412
	l-0.873,1.655l-1.799-0.26h-5.84l-1.186,0.652l-4.954,6.818l0.248,0.652h3.989l0.913-0.456l2.373-3.259h-3.311l-1.069,0.182
	l1.147-1.578h8.135l-1.304,1.461l-2.594,3.585l-0.821,1.473h-3.389l0.482-0.964h-0.039l-2.307,0.964H133.661"/>
<path fill="#FFFFFF" d="M165.665,116.819l-2.008,1.642l-1.408,1.473h-2.464c0.886-0.574,1.682-1.147,2.881-2.098l10.142-8.109
	l-0.013-0.717h4.185l-1.695,8.851l-0.13,2.073h-4.732l0.222-0.26l0.587-1.552l0.261-1.303H165.665 M171.766,115.423l0.808-4.132
	l-5.136,4.132H171.766z"/>
<polyline fill="#FFFFFF" points="194.345,119.934 194.176,111.083 194.137,111.083 188.792,118.461 187.97,119.934 185.767,119.934 
	187.071,118.461 192.859,110.47 193.68,109.01 198.386,109.01 198.556,117.679 198.595,117.679 203.823,110.47 204.644,109.01 
	206.847,109.01 205.543,110.47 198.686,119.934 194.345,119.934 "/>
<path fill="#FFFFFF" d="M220.705,118.46l-0.834,1.474h-4.237l1.304-1.474l5.788-7.991l0.821-1.46h10.155
	c1.603,0,2.06,0.678,1.017,2.112l-1.603,2.216c-0.704,0.978-1.656,1.643-3.311,1.825l-0.952,3.611l0.078,1.161h-4.276l1.278-4.823
	h-2.803L220.705,118.46 M224.133,113.715h4.393l1.199-0.73l1.33-1.852l-0.13-0.73h-4.38L224.133,113.715z"/>
<path fill="#FFFFFF" d="M245.643,119.934c-1.669,0-2.06-0.704-0.965-2.229l4.706-6.479c1.095-1.525,2.503-2.216,4.172-2.216h7.574
	c1.669,0,2.06,0.691,0.965,2.216l-4.706,6.479c-1.108,1.525-2.516,2.229-4.172,2.229H245.643 M252.305,118.526l1.186-0.652
	l4.954-6.818l-0.248-0.652h-3.728l-1.199,0.652l-4.941,6.818l0.248,0.652H252.305z"/>
<polyline fill="#FFFFFF" points="280.072,119.934 279.902,111.083 279.863,111.083 274.518,118.461 273.684,119.934 
	271.494,119.934 272.784,118.461 278.586,110.47 279.407,109.01 284.113,109.01 284.283,117.679 284.322,117.679 289.549,110.47 
	290.37,109.01 292.574,109.01 291.27,110.47 284.413,119.934 280.072,119.934 "/>
<path fill="#FFFFFF" d="M306.431,118.46l-0.834,1.474h-4.237l1.304-1.474l5.788-7.991l0.821-1.46h9.738
	c2.086,0,2.594,0.678,1.473,2.229l-1.89,2.594c-1.121,1.552-2.62,2.242-4.706,2.242h-5.723L306.431,118.46 M309.169,114.667h4.198
	l1.695-0.977l1.643-2.282l-0.248-1.003h-4.185L309.169,114.667z"/>
<path fill="#FFFFFF" d="M335.724,116.819l-2.008,1.642l-1.408,1.473h-2.464c0.9-0.574,1.695-1.147,2.881-2.098l10.155-8.109
	l-0.026-0.717h4.185l-1.682,8.851l-0.143,2.073h-4.732l0.235-0.26l0.587-1.552l0.261-1.303H335.724 M341.838,115.423l0.808-4.132
	l-5.149,4.132H341.838z"/>
<path d="M545.126,61.245c-4.328,0-8.135-1.708-10.729-4.798c-2.633-3.155-3.663-7.3-2.894-11.693
	c1.525-8.682,9.543-15.487,18.251-15.487c4.328,0,8.148,1.708,10.742,4.797c2.633,3.155,3.663,7.3,2.894,11.694
	C561.851,54.44,553.834,61.245,545.126,61.245 M549.754,35.029c-5.801,0-11.563,4.915-12.593,10.73
	c-0.469,2.685,0.117,5.162,1.643,6.987c1.486,1.774,3.729,2.738,6.323,2.738c5.801,0,11.563-4.901,12.593-10.729
	c0.482-2.685-0.104-5.162-1.63-6.988C554.603,35.994,552.361,35.029,549.754,35.029z"/>
<polyline fill="#FFFFFF" points="367.728,119.934 358.915,119.934 359.684,117.94 359.958,118.018 360.545,118.083 361.822,118.149 
	367.728,118.149 368.367,118.018 368.81,117.458 369.722,115.763 369.879,115.241 369.37,115.085 365.108,115.111 364.664,115.15 
	364.234,115.215 365.121,113.573 365.42,113.664 365.811,113.69 367.115,113.716 370.087,113.716 370.778,113.56 371.182,113.038 
	371.939,111.618 372.095,111.083 371.587,110.926 365.785,110.926 363.452,111.109 364.795,109.141 373.516,109.141 
	375.211,109.531 375.015,111.253 374.207,112.764 373.19,113.899 371.339,114.329 372.304,114.446 372.395,116.154 371.508,117.81 
	369.853,119.517 367.728,119.934 "/>
<path d="M217.002,138.615h6.961l-4.576,5.892c-1.825,2.347-3.207,2.907-5.997,2.907l-1.525-0.078
	c1.304-1.734,1.656-2.999,1.812-3.572l1.421,0.208l1.147-0.6l1.499-1.93h-2.933l-5.566,7.17h-3.963l5.566-7.17h-2.933l-4.498,5.801
	h-4.132l3.767-4.862c-1.851,0.821-2.438,1.017-3.194,1.252c-0.078-1.46-0.939-2.073-1.317-2.36c2.49-0.678,5.514-1.642,10.012-4.25
	h-6.075l2.177-2.803h8.278l1.799-1.303c-0.913,0.196-4.498,0.965-6.922,1.174c0.469-1.225,0.417-1.852,0.169-2.581
	c2.073-0.261,5.097-0.626,9.099-1.539c-1.551-0.678-2.555-0.938-3.455-1.186l4.093-2.607c1.643,0.443,2.959,1.042,5.123,2.151
	c0.691-0.235,3.35-1.108,6.127-2.373l2.06,1.721l-0.052,0.313l-1.251,0.247c-1.082,0.469-2.086,0.939-4.406,1.76l2.268,2.529
	l-2.868,1.694h4.615l-2.177,2.803h-8.03l-1.291,0.535L217.002,138.615 M214.291,137.024h-1.173c-0.665,0.404-1.408,0.86-2.646,1.591
	h2.581L214.291,137.024z M217.198,134.221h5.84c-0.469-0.652-0.939-1.134-2.972-2.607c-0.587,0.169-1.33,0.391-2.712,0.769
	l1.551,0.73l0.013,0.221l-1.108,0.457L217.198,134.221z"/>
<path d="M261.795,127.026c-8.734,10.729-10.703,11.472-15.5,11.498l0.9-2.712l1.512,0.169l2.19-0.899h-3.65
	c-1.656,1.381-3.559,2.711-5.306,3.728h9.425l-2.125,2.725h-8.773l-0.6,0.769h6.909l-1.812,2.334h-6.896l-0.6,0.769h10.377
	l-2.125,2.724h-24.769l2.138-2.724h10.312l0.6-0.769h-6.961l1.812-2.334h6.948l0.6-0.769h-8.695l2.125-2.725h10.833l-1.421-1.381
	l0.626-0.313c-3.155,0.169-3.311,0.169-4.563,0.169c-3.963,0-3.611-0.991-1.63-3.519l2.19-2.829h-1.551l2.086-2.672h4.589
	l1.538-1.982l3.937,0.144l0.209,0.286l-0.991,0.508l-0.808,1.043h4.211l-2.086,2.672h-7.496l-1.512,1.956
	c-0.965,1.239-0.847,1.552,0.535,1.552c0.469,0,2.229,0,5.462-0.535l-1.903,2.007c1.929-1.16,4.889-3.259,8.265-7.613l0.965-1.278
	H261.795 M252.787,133.205l0.821-0.873h-3.259l-0.926,0.873H252.787z M252.917,129.581l-0.782,0.9h3.103l0.743-0.9H252.917z"/>
<path d="M262.355,137.715c-0.795,0.535-3.442,2.295-6.31,3.898l-1.89-1.955c3.416-1.76,8.773-4.954,13.988-9.66l2.738,1.252
	l0.209,0.365l-0.86,0.313c-0.548,0.456-1.121,0.913-3.194,2.464h10.612l-2.581,3.324h-5.241c-1.33,1.656-6.114,7.444-14.887,10.495
	l-1.551-2.229c7.235-2.685,9.217-4.498,12.489-8.265H262.355"/>
<path d="M293.212,137.363l1.017-1.303l3.976,0.117l0.117,0.247l-1.082,0.574l-0.274,0.365h4.393l-1.942,2.503h-4.406l-0.6,0.782
	h3.637l-1.747,2.242h-3.637l-0.6,0.769h5.593l-2.164,2.802h-5.606l-1.669,2.151h-3.754l1.682-2.151h-5.032l2.177-2.802h5.032
	l0.587-0.769h-3.82l1.747-2.242h3.833l0.6-0.782h-4.263l1.682-2.164l-0.156,0.013l-0.235-1.16l-7.639,9.842h-2.607l0.939-1.212
	h-4.028l-1.603,2.073h-2.503l13.01-16.726l2.555,0.065l0.209,0.208l-0.965,0.613l-7.991,10.286h0.704l11.537-14.848l2.699,0.091
	l0.209,0.274l-0.978,0.483l-10.885,14.001h0.73l8.813-11.329l2.529,0.104l0.235,0.065c3.702-1.93,5.514-3.454,6.323-4.145
	l3.598,0.482l0.13,0.235l-1.212,0.482l-0.521,0.365h6.323l0.73,1.186c-2.347,1.499-5.697,3.142-7.587,4.028
	c1.747,0.874,3.455,1.238,5.071,1.552c-2.646,1.512-3.35,2.098-4.106,2.751c-1.043-0.235-2.998-0.769-5.162-2.49
	c-1.982,0.782-5.188,1.891-6.844,2.373H293.212 M289.627,134.847c2.894-0.586,5.488-1.473,5.671-1.525l-0.495-0.991
	c-1.317,0.73-1.877,0.991-2.49,1.264l-0.821-1.134L289.627,134.847z M298.427,130.688l0.808,1.096l2.451-1.096H298.427z"/>
<path d="M315.361,142.982l-2.438,3.129c-1.942,2.49-4.054,2.555-8.786,2.49c0.782-1.213,1.212-2.073,1.447-3.337l2.933,0.078
	c1.004,0,1.108-0.13,2.06-1.356l0.782-1.004h-10.416l2.268-2.933h10.429l1.212-1.564l1.186,0.117l2.399-1.303h-8.017l2.242-2.868
	h13.062l0.222,1.734c-0.743,0.456-3.689,2.046-7.913,3.884h9.673l-2.268,2.933H315.361 M321.28,130.559l-0.117-3.311l4.563-1.356
	l0.039,3.507l-3.429,1.16h3.781c2.464-1.564,3.794-2.437,5.945-4.08l3.011,1.043l0.143,0.404l-1.251,0.443
	c-1.551,1.082-1.929,1.317-3.259,2.19h4.132l-4.941,6.349h-3.82l2.829-3.651h-16.413l-2.829,3.651h-3.741l4.928-6.349h3.781
	c0.026-0.208,0.222-1.33-0.065-2.685l4.445-1.447l0.078,3.285c-1.603,0.56-1.968,0.678-2.399,0.847H321.28z"/>
<path d="M328.802,147.989l-0.482,0.625h-3.885l16.504-21.249h23.609l-16.517,21.249h-3.768l0.482-0.625H328.802 M344.615,145.186
	l-2.699-1.812l-1.108,1.421h-3.233l1.734-2.216c-0.808,0.364-3.533,1.564-6.14,2.268l-0.482-1.864l-1.708,2.203H344.615z
	 M346.922,145.186l11.824-15.213h-6.414l-0.561,0.73h4.993l-1.512,1.955h-5.006l-0.482,0.626h5.84l-1.577,2.02H339.23l1.564-2.02
	h5.736l0.482-0.626h-4.993l1.525-1.955h4.993l0.561-0.73h-6.297l-9.855,12.671c2.985-0.613,5.632-1.681,6.323-1.969h-2.855
	l3.663-4.719h12.032l-3.22,4.133l0.965,0.874v0.261l-0.6,0.26l-0.417-0.013c-0.691,0.352-0.847,0.456-2.138,1.108l1.434,0.403
	c-0.548,0.275-1.577,0.783-3.494,2.203H346.922z M342.294,137.795l-0.808,1.042h4.915l0.808-1.042H342.294z M344.354,140.675
	l0.613,0.913l1.721-0.913H344.354z"/>
<path d="M26.777,133.087l-1.278-0.43l-0.9-0.143l-2.19-0.091h-3.064L9.334,146.946l-0.235,0.417l-0.209,1.252H0.782l0.978-0.73
	l0.417-0.417l0.443-0.469l1.082-1.473l9.099-13.102H9.79l-2.294,0.091c-0.691,0.025-1.695,0.208-3.037,0.547l3.116-3.377h20.884
	L26.777,133.087"/>
<path d="M39.813,148.613h-6.896l1.499-1.708l1.238-1.669l5.162-7.457l0.378-0.717l-0.561-0.039h-7.77l-0.652,0.078l-0.704,0.678
	l-5.202,7.483c-0.821,1.186-1.421,2.307-1.773,3.35h-6.909l1.082-1.225l0.417-0.443l1.278-1.708l9.882-14.509l0.365-1.043h6.479
	l-3.259,4.693l-1.304,0.861l0.9-0.457l0.795-0.221l1.004-0.092h8.813c1.76,0,2.816,0.313,3.194,0.939
	c0.378,0.625,0.091,1.63-0.86,2.998l-4.745,6.831l-1.069,1.708l-0.352,0.6L39.813,148.613"/>
<path d="M66.303,145.668l-2.751,2.946h-15.93l-2.086-0.221l-1.069-0.691c-0.365-0.613-0.052-1.63,0.926-3.024l4.354-6.27
	c1.812-2.621,4.393-3.937,7.704-3.937h11.394c1.721,0,2.79,0.299,3.22,0.899c0.417,0.586,0.117,1.603-0.873,3.038l-3.194,4.601
	H52.484l-1.577,2.268l-0.339,0.639l0.248,0.117l0.326,0.026h11.276l1.434-0.065L66.303,145.668 M63.8,140.44l1.838-2.646
	l0.313-0.652l-0.587-0.117h-7.952l-0.743,0.117l-0.561,0.652l-1.851,2.646H63.8z"/>
<path fill="#E3007F" d="M96.547,145.407l-2.777,3.207H73.499l1.212-1.147l0.456-0.495l1.056-1.447l9.829-14.223l0.261-0.43
	l0.287-1.186h20.311l-1.669,3.194c-1.343-0.299-2.855-0.456-4.537-0.456h-8.786l-3.676,5.293h7.783c1.903,0,3.624-0.143,5.162-0.443
	l-2.542,3.65c-1.317-0.286-2.842-0.43-4.55-0.43h-7.783l-3.715,5.358h8.8C93.275,145.851,94.983,145.694,96.547,145.407"/>
<path fill="#E3007F" d="M118.161,148.613h-6.896l1.499-1.708l1.238-1.669l5.162-7.457l0.378-0.717l-0.561-0.039h-7.757l-0.665,0.078
	l-0.704,0.678l-5.202,7.483c-0.821,1.186-1.408,2.307-1.76,3.35h-6.922l1.095-1.225l0.404-0.443l1.278-1.708l5.136-7.392
	l1.108-1.734l0.3-0.574l0.378-1.069h6.388l-0.3,0.43l0.222-0.092l1.63-0.339h8.813c1.76,0,2.816,0.313,3.194,0.939
	c0.378,0.625,0.091,1.63-0.86,2.998l-4.745,6.831l-1.069,1.708l-0.352,0.6L118.161,148.613"/>
<path fill="#E3007F" d="M141.47,148.614h-6.127l0.3-0.443l-2.229,0.443h-8.747l-2.099-0.222l-1.069-0.691
	c-0.352-0.613-0.039-1.63,0.939-3.024l4.341-6.271c1.825-2.62,4.406-3.937,7.731-3.937h8.526l1.564,0.274l1.186-1.708l1.199-1.734
	l0.261-0.574l0.365-1.043h6.479l-12.202,17.847L141.47,148.614 M137.311,145.25l5.175-7.47l0.339-0.652l-0.587-0.104h-7.796
	l-0.73,0.118l-0.574,0.638l-5.188,7.496l-0.352,0.639l0.013,0.013l0.574,0.13h7.783l0.652-0.091L137.311,145.25z"/>
<path d="M173.292,144.677c-0.965,1.369-2.047,2.372-3.259,2.998l-2.034,0.678l-2.529,0.261h-11.394l-2.086-0.222l-1.082-0.691
	c-0.352-0.613-0.039-1.63,0.939-3.024l4.341-6.271c1.825-2.62,4.393-3.937,7.704-3.937h11.407c1.721,0,2.777,0.3,3.207,0.899
	c0.417,0.587,0.13,1.604-0.873,3.038L173.292,144.677 M166.904,145.25l5.188-7.47l0.313-0.638l-0.6-0.118h-7.952l-0.743,0.118
	l-0.561,0.638l-5.201,7.496l-0.339,0.639l0.013,0.013l0.574,0.13h7.952l0.73-0.117L166.904,145.25z"/>
<path d="M200.994,132.54l-1.799-0.221h-0.039l-1.525-0.078h-4.498l-0.704,0.104l-0.587,0.678l-1.004,1.447h7.561l-1.747,2.516
	h-7.561l-6.831,9.96l-0.274,0.574l-0.482,1.095h-6.831l0.978-1.225l0.404-0.443l1.278-1.708l5.736-8.253h-3.155l1.76-2.516h3.142
	l0.6-0.873c0.965-1.382,2.06-2.386,3.272-3.024c1.317-0.587,2.829-0.887,4.537-0.887h9.204L200.994,132.54"/>
<polyline fill="#FFFFFF" points="389.433,128.068 365.577,145.641 374.52,145.641 394.465,129.946 396.538,129.946 384.193,145.641 
	391.78,145.641 404.138,129.946 406.654,129.946 401.466,145.641 409.796,145.641 414.293,128.068 405.585,128.068 407.058,126.244 
	423.979,126.244 425.974,124.366 408.544,124.366 414.632,116.636 428.203,116.636 430.237,114.707 416.106,114.707 421.75,107.562 
	414.15,107.562 408.505,114.707 395.156,114.707 393.057,116.636 407.032,116.636 400.944,124.366 384.297,124.366 382.25,126.244 
	399.445,126.244 397.985,128.068 389.433,128.068 "/>
<polyline fill="#FFFFFF" points="435.047,132.005 413.681,145.641 422.897,145.641 440.027,133.792 441.539,133.792 
	432.192,145.641 439.558,145.641 448.918,133.792 450.925,133.792 449.661,145.641 458.213,145.641 458.565,132.005 450.3,132.005 
	451.773,130.181 468.863,130.181 470.871,128.212 453.324,128.212 463.61,115.111 480.153,115.111 482.147,113.142 465.174,113.142 
	469.541,107.602 462.176,107.602 457.796,113.142 441.539,113.142 439.48,115.111 456.244,115.111 445.946,128.212 428.907,128.212 
	426.847,130.181 444.394,130.181 442.921,132.005 435.047,132.005 "/>
<polyline fill="#FFFFFF" points="448.774,116.362 441.735,116.362 438.749,127 445.893,127 448.774,116.362 "/>
<polyline fill="#FFFFFF" points="462.658,127 476.151,116.362 468.889,116.362 455.279,127 462.658,127 "/>
<polyline fill="#FFFFFF" points="481.157,131.38 477.35,131.38 463.532,145.616 468.837,145.616 481.157,131.38 "/>
<polyline fill="#FFFFFF" points="537.122,108.944 510.241,108.944 508.22,110.861 535.153,110.861 537.122,108.944 "/>
<path fill="#FFFFFF" d="M470.675,145.641h5.645l12.098-15.369h5.41l2.464-5.776h-5.084l15.226-8.89h-6.883l-5.358,3.168h-2.008
	l17.443-10.586h-7.548l-16.791,10.637l-1.551,1.695h7.535l-13.545,8.043l-1.551,1.708h6.596L470.675,145.641 M490.751,124.77
	l-1.76,3.755h-4.641L490.751,124.77z"/>
<path fill="#FFFFFF" d="M504.374,125.579l1.486-1.799h17.156l8.76-11.081h-22.514l-14.744,17.964l-8.096,8.004l4.902-7.288h-3.077
	l-7.496,10.69h2.177l-3.611,3.572h5.514l12.515-12.789l-10.234,12.789h3.728l7.313-9.295h1.564l-7.339,9.295h3.011l7.352-9.295
	h1.499l-7.313,9.295h9.725l15.761-20.063H504.374 M513.578,114.576h10.286l-5.971,7.378h-10.507L513.578,114.576z M501.024,134.691
	h-1.564l5.905-7.47h1.564L501.024,134.691z M505.548,134.691h-1.512l5.905-7.47h1.512L505.548,134.691z M503.058,143.947h-1.851
	l6.062-7.6h1.786L503.058,143.947z M508.559,134.691l5.905-7.47h1.734l-5.853,7.47H508.559z"/>
<polyline points="518.61,105.946 363.765,145.655 541.789,105.946 518.61,105.946 "/>
</svg>
