<?xml version="1.0" encoding="utf-8"?>
<!-- Generator: Adobe Illustrator 27.0.1, SVG Export Plug-In . SVG Version: 6.00 Build 0)  -->
<svg version="1.1" id="레이어_1" xmlns="http://www.w3.org/2000/svg" xmlns:xlink="http://www.w3.org/1999/xlink" x="0px"
	 y="0px" viewBox="0 0 720 317.637" enable-background="new 0 0 720 317.637" xml:space="preserve">
<path fill="#E50012" d="M331.523,123.942C313.145,18.531,244.302-12.493,148.021,4.281L0,29.36l50.041,286.956l161.515-27.933
	C295.663,273.731,346.386,209.206,331.523,123.942 M155.878,92.563c43.811-7.171,67.568,8.824,74.032,49.262
	c6.347,39.753-20.03,62.214-54.663,68.253l-39.117,6.016L116.761,98.604L155.878,92.563z"/>
<path fill="#E50012" d="M360.684,305.016h-65.752L357.169,125.9h71.982l63.889,179.116h-65.447l-6.062-22.343h-54.758
	L360.684,305.016 M411.008,244.122l-16.94-62.165l-16.869,62.165H411.008z"/>
<path fill="#E50012" d="M488.816,71.188l21.728,53.155c1.817-5.757,20.998-53.155,20.998-53.155h69.644l-62.401,102.699v77.808
	h-60.586v-77.808L418.745,71.188H488.816"/>
<path fill="#E50012" d="M592.365,190.237l3.656,2.879c12.811,9.933,24.608,14.888,42.112,14.888c7.504,0,19.441-3.256,19.441-13.284
	c0-10.027-10.003-10.922-16.94-12.385l-15.264-2.949c-24.583-4.553-44.968-22.838-44.968-46.76c0-42.325,38.55-65.965,77.337-65.965
	c20.337,0,38.997,4.955,56.503,15.595L697.068,123.4c-11.962-8.565-24.419-13.259-39.494-12.292
	c-6.111,0.4-15.029,4.812-15.029,13.094c0,7.502,8.659,8.564,14.014,9.908l15.784,3.751C701.881,144.821,720,158.246,720,188.515
	c0,42.561-39.73,63.229-78.28,63.229c-22.461,0-48.483-6.159-68.583-16.326L592.365,190.237"/>
<path fill="#E50012" d="M500.163,290.694l-0.661-11.654l54.453-3.067l0.659,11.654l-19.581,1.11
	c0.023,3.94,0.164,10.876-5.828,18.803c-4.128,5.473-9.367,8.091-13.778,10.097c-2.029-2.713-5.498-6.582-9.367-9.674
	c2.831-0.919,8.988-2.902,13.259-9.129c2.949-4.294,2.949-7.62,2.926-9.367L500.163,290.694 M540.459,261.392l-0.259,11.112
	l-35.743-0.848l0.284-11.112L540.459,261.392z M548.741,261.935c1.652,1.463,4.553,4.2,6.369,6.654l-4.01,4.104l-6.441-6.7
	L548.741,261.935z M551.737,254.573c1.698,1.392,4.199,3.705,6.11,6.229l-3.586,4.151l-6.489-6.346L551.737,254.573z"/>
<path fill="#E50012" d="M600.715,309.733l-12.528,1.606l-3.28-25.646c-1.038,0.708-9.625,6.748-15.193,9.602
	c-1.911-2.406-5.167-6.228-9.083-9.271c8.588-2.737,29.373-16.54,36.261-29.845l11.112,5.874l0.85,0.945l-2.029,1.32
	c-2.431,3.562-4.907,6.7-10.404,12.057L600.715,309.733"/>
<path fill="#E50012" d="M617.111,275.571l-1.722-10.476l26.212-4.27l2.665-1.156l7.904,5.498l-1.132,2.972
	c-1.322,6.182-2.124,9.815-3.799,14.202c3.349,1.511,10.569,4.648,16.279,9.013l-5.734,8.564l-1.038,1.84
	c-4.388-5.072-12.763-9.343-14.296-10.168c-6.347,9.956-15.784,17.034-18.473,18.992c-3.303-3.539-8.611-7.691-9.177-8.14
	c6.464-3.02,13.33-10.12,15.759-13.023c6.37-7.738,7.502-14.721,7.927-17.34L617.111,275.571 M653.562,253.653l3.349,7.502
	l-4.601,2.124l-3.302-7.55L653.562,253.653z M661.112,251.766c1.037,2.337,2.146,4.648,2.995,7.102l-4.388,2.195
	c-0.472-1.251-2.076-5.096-3.185-7.22L661.112,251.766z"/>
</svg>
