<?xml version="1.0" encoding="utf-8"?>
<!-- Generator: Adobe Illustrator 27.1.1, SVG Export Plug-In . SVG Version: 6.00 Build 0)  -->
<svg version="1.1" id="레이어_1" xmlns="http://www.w3.org/2000/svg" xmlns:xlink="http://www.w3.org/1999/xlink" x="0px"
	 y="0px" viewBox="0 0 720 104.704" enable-background="new 0 0 720 104.704" xml:space="preserve">
<path fill="#5E0000" d="M107.505,58.832c2.487,1.292,4.652,1.907,6.479,1.907c0.641-0.009,1.078-0.169,1.408-0.455
	c0.312-0.303,0.473-0.615,0.473-1.105c-0.036-0.66-0.214-1.061-0.651-1.408c-0.446-0.374-1.23-0.713-2.309-0.936
	c-0.285-0.045-0.597-0.107-0.927-0.151c-0.348-0.036-0.695-0.08-1.078-0.125c-1.39-0.187-3.12-0.472-5.151-0.891
	c-1.711-0.348-3.556-0.963-5.552-1.872C102.701,55.979,105.134,57.655,107.505,58.832 M147.647,11.97l-0.018-0.348l0.276-0.143
	c1.079-0.526,2.21-1.248,2.665-1.943h-16.221c0.33,2.041,0.606,4.572,0.606,7.7c-0.035,2.246,0.018,30.098-12.255,50.694
	c-2.923,4.804-10.927,17.415-22.887,26.123l0.071,0.098c43.083-17.665,45.516-53.627,45.864-81.345v-0.303l0.258-0.134l1.328-0.651
	v0.793c-0.018,16.925,0.017,57.851,29.331,81.977c4.02-7.763,8.512-9.652,13.957-11.756V82.69
	C164.028,70.302,151.06,40.641,147.647,11.97 M225.792,54.215c-0.687-0.116-1.382-0.169-2.112-0.169
	c-2.959,0-6.435,0.882-10.579,2.674c-2.825,1.248-9.278,4.626-11.176,5.856c-0.25,0.134-0.597,0.651-1.533,0.713
	c-0.089,0-0.16-0.009-0.241-0.018c-0.49-0.053-1.096-0.392-1.399-0.936c-0.276-0.535-0.33-1.078-0.348-1.747
	c0.018-0.945,0.16-2.175,0.419-3.913c1.372-8.814,3.485-18.805,5-23.422l0.134-0.472l0.508-0.16
	c2.54-0.802,7.603-2.923,10.668-4.617c3.654-1.988,5.018-3.512,5.205-4.938c0.018-0.08,0.018-0.134,0.018-0.187
	c0.071-0.74-1.079-2.041-2.415-2.219c-0.669-0.107-1.185-0.143-1.64-0.143c-1.025,0.009-1.649,0.196-2.629,0.695
	c-0.882,0.544-3.431,1.756-5.169,2.398l-1.551,0.588l0.25-1.649c0.116-0.847,0.383-1.667,0.864-2.977
	c0.312-0.784,0.49-1.355,0.561-1.907c0.054-0.258,0.071-0.499,0.071-0.74c-0.017-2.059-1.452-3.788-4.438-4.759
	c-1.257-0.374-3.084-0.856-4.723-1.105c-0.054,0-0.089-0.009-0.134-0.027c1.756,1.515,2.656,3.316,2.611,5.624
	c0,0.784-0.089,1.622-0.232,2.549c-0.472,3.03-0.9,5.232-1.586,7.772l-0.151,0.535l-0.526,0.143
	c-4.608,1.381-8.199,2.077-11.31,2.085c-0.945,0-1.845-0.062-2.719-0.205c-1.898-0.294-3.565-0.856-5.187-1.729
	c-1.043-0.579-2.157-1.159-3.289-2.13c0.312,0.775,0.766,1.72,1.257,2.594c2.522,4.501,6.248,7.7,8.512,7.977
	c0.713,0.116,1.426,0.169,2.175,0.169c2.362,0,5.026-0.579,8.387-1.791l1.675-0.597l-0.365,1.729
	c-2.13,9.911-4.287,17.611-7.816,28.716l-0.071,0.41c-0.178,1.212-0.294,2.184-0.294,3.021c0,1.319,0.241,2.308,0.918,3.636
	c1.586,3.289,2.887,4.483,4.251,4.688c0.222,0.027,0.437,0.036,0.624,0.036c1.444,0,2.576-0.829,4.233-3.672
	c5.847-10.454,15.597-17.878,23.824-17.932c0.633,0,1.239,0.045,1.853,0.134c3.877,0.66,6.631,4.697,6.684,8.761
	c0,0.419-0.053,0.829-0.107,1.257c-0.802,4.777-5.552,9.92-13.146,14.902c-3.493,2.397-6.907,4.314-10.214,5.873
	c-1.346,0.588-2.959,1.257-4.456,1.845c2.139-0.196,4.055-0.428,6.435-0.9c9.732-1.827,18.974-5.392,24.857-9.715
	c2.335-1.774,3.868-4.269,4.34-7.317c0.053-0.428,0.098-0.838,0.098-1.248c0-2.433-1.141-4.831-3.842-7.843
	C233.866,57.004,229.882,54.839,225.792,54.215 M93.601,94.954l-8.173-7.371c-0.294-0.294-0.535-0.508-0.731-0.651
	c0,0.178,0.053,0.348,0.053,0.535c0,4.189-3.306,7.576-7.451,7.763l-0.018,0.045H64.644V64.348h19.884V28.048
	c-1.516,4.26-5.535,7.308-10.303,7.308c-0.054,0-0.071-0.009-0.089-0.009h-9.492V16.239h26.354c0.651-0.053,1.034-0.053,1.034-0.615
	c0.053-0.25-0.579-1.007-0.838-1.132l-7.959-6.8c-0.642,3.966-4.037,6.996-8.164,7.094l-0.018,0.027h-0.169H19.582h-0.017h-0.018
	h-0.16l-0.018-0.027c-4.135-0.098-7.495-3.128-8.181-7.094l-7.932,6.8c-0.268,0.125-0.909,0.882-0.838,1.132
	c0,0.562,0.401,0.562,1.025,0.615h26.354v19.109h-9.483c-0.018,0-0.036,0.009-0.089,0.009c-4.751,0-8.805-3.048-10.303-7.308v36.301
	h19.875v30.926H17.158L17.14,95.23c-4.135-0.187-7.451-3.574-7.451-7.763c0-0.187,0.036-0.356,0.053-0.535
	c-0.205,0.143-0.436,0.356-0.731,0.651L0.83,94.954c-0.383,0.259-0.864,0.873-0.828,1.132c0,0.642,0.428,0.579,1.025,0.606h92.396
	c0.588-0.027,1.025,0.036,1.025-0.606C94.483,95.827,93.993,95.212,93.601,94.954 M64.644,36.773h10.356v26.158H64.644V36.773z
	 M29.796,62.922H19.44V36.764h10.356V62.922z M54.76,95.275H39.689V64.357H54.76V95.275z M54.76,62.922H39.689V36.764H54.76V62.922z
	 M54.76,35.347H39.689V16.239H54.76V35.347z M115.116,42.664c0.312-0.276,0.428-0.562,0.428-0.998
	c-0.018-0.909-0.294-1.346-0.936-1.676c-0.82-0.383-1.988-0.811-3.503-1.248c-1.845-0.481-3.494-1.061-4.92-1.747
	c-1.069-0.499-2.023-1.105-2.879-1.809c1.622,2.362,3.378,4.242,5.258,5.668c2.041,1.515,3.832,2.228,5.348,2.228
	C114.448,43.065,114.813,42.923,115.116,42.664 M106.613,22.718c-2.816,2.415-6.435,4.492-10.82,6.239
	c5.65-1.23,10.303-3.128,13.957-5.668c3.565-2.424,5.259-4.75,5.365-6.836c0.018-0.597-0.16-0.927-0.722-1.319
	c-0.535-0.365-1.39-0.624-2.62-0.695c-0.348-0.018-0.731-0.018-1.149-0.009c1.773-0.294,3.405-0.481,4.839-0.49
	c1.337,0.009,3.039,0.223,5.098,0.633c1.167,0.241,2.014,0.357,2.397,0.357c0.232,0,0.348-0.036,0.401-0.045
	c0.017-0.036,0.017-0.116,0.017-0.241c0.018-0.454-0.312-1.141-1.167-1.97c-0.846-0.802-1.578-1.141-2.192-1.141
	c-0.695,0-2.291,0.187-4.697,0.579c-4.715,0.695-8.618,1.043-11.729,1.043c-0.963,0-1.881-0.071-2.772-0.267
	c-0.695-0.151-1.373-0.392-2.024-0.722c0.455,1.284,1.052,2.157,1.676,2.692c0.713,0.615,1.702,0.945,3.048,0.945
	c0.553,0,1.756-0.187,3.476-0.597c0.98-0.25,1.916-0.446,2.825-0.624c0.241,0.223,0.473,0.454,0.642,0.713
	c0.276,0.419,0.437,0.909,0.401,1.399C110.74,18.583,109.26,20.49,106.613,22.718 M271.655,66.55c0-0.535-0.125-1.105-0.366-1.693
	c-0.936-2.264-2.593-4.073-5.08-5.704c-3.975-2.602-7.032-4.323-12.78-7.317l-0.223-0.143l1.248-1.471l0.125,0.018
	c1.809,0.16,3.708,0.267,5.499,0.267c1.061,0,2.077-0.036,2.995-0.125c2.317-0.16,3.761-0.463,5.481-0.829
	c1.382-0.294,2.549-0.695,3.36-1.043c2.513-1.069,6.06-3.779,7.469-5.775c0.802-1.159,1.275-2.701,1.275-4.055
	c0-0.713-0.143-1.399-0.366-1.943c-1.061-2.478-4.127-4.02-7.469-4.002c-1.426,0-2.887,0.25-4.305,0.847
	c-1.845,0.784-6.319,3.975-8.717,6.105c-5.383,4.768-7.781,6.925-10.704,9.447l-0.143,0.125l-0.134-0.116
	c-1.149-0.829-2.13-2.032-2.566-3.11c-0.152-0.339-0.223-0.677-0.223-1.016c0.018-1.435,1.319-2.62,3.565-3.583
	c1.497-0.624,3.975-1.194,5.971-1.194c0.196,0,0.401,0.009,0.597,0.027c0.222,0.027,0.436,0.036,0.57,0.036
	c0.294,0,0.419-0.036,0.561-0.089c0.481-0.196,0.918-1.141,0.918-2.148c0-0.428-0.071-0.847-0.24-1.221
	c-0.348-0.873-1.711-2.121-2.807-2.504c-0.794-0.312-1.667-0.517-2.71-0.517c-1.382,0-3.03,0.383-5.134,0.9
	c-1.15,0.312-2.299,0.517-3.226,0.517c-0.33,0-0.66-0.036-0.9-0.071c-0.312-0.045-0.508-0.053-0.615-0.053
	c-0.071,0-0.08,0-0.116,0.009c-0.089,0.045-0.089,0.062-0.089,0.107c0,0,0,0.036,0.017,0.062c0.107,0.383,2.139,1.301,3.547,1.364
	c1.747,0.187,2.825,0.259,3.592,0.401c1.078,0.196,1.462,0.49,1.684,1.07c0.036,0.08,0.072,0.169,0.072,0.258
	c-0.054,0.651-0.695,1.176-2.54,2.371c-3.521,2.326-5.151,4.26-5.134,6.212c0,0.535,0.116,1.06,0.366,1.622
	c0.276,0.713,1.194,1.827,2.121,2.62l0.187,0.152l-0.169,0.16c-1.096,1.07-2.594,2.166-3.61,2.611
	c-2.174,0.918-3.342,1.355-4.733,1.355c-0.187,0-0.401-0.018-0.606-0.027c-0.258-0.018-0.525-0.071-0.641-0.062h-0.036
	c0,0-0.018,0-0.018,0.107c0,0.089,0.018,0.196,0.054,0.312c0.24,0.615,1.479,1.765,2.54,2.228c1.096,0.499,2.299,0.74,3.476,0.74
	c1.114,0,2.228-0.214,3.28-0.651c1.524-0.651,3.271-2.041,4.768-3.806l0.116-0.143l0.16,0.107
	c6.791,4.447,11.648,8.369,14.955,11.907c1.827,1.934,2.959,2.736,3.859,2.718c0.268,0,0.508-0.054,0.784-0.16
	C271.201,68.439,271.655,67.593,271.655,66.55 M255.168,49.295c2.246-2.558,2.664-2.932,5.347-6.56
	c3.048-4.091,5.205-6.185,7.888-7.326c0.918-0.383,1.827-0.561,2.647-0.561c1.649-0.009,3.03,0.74,3.636,2.148
	c0.169,0.401,0.24,0.82,0.24,1.239c-0.036,2.861-3.494,6.185-8.77,8.431c-4.287,1.818-6.898,2.549-10.793,2.995l-0.579,0.062
	L255.168,49.295z M107.398,50.534c0.749,0,1.444,0.071,2.112,0.214c0.588,0.143,1.167,0.196,1.667,0.196
	c0.713,0,1.221-0.169,1.568-0.419c0.348-0.276,0.49-0.544,0.49-0.998c0-0.802-0.232-1.123-0.579-1.328
	c-0.552-0.267-1.319-0.544-2.335-0.811c-0.223-0.071-0.481-0.143-0.758-0.214c-0.356-0.089-0.669-0.196-0.909-0.294
	c-0.909-0.276-1.827-0.713-2.754-1.301c-0.517-0.33-1.06-0.731-1.578-1.168c0.366,0.597,0.766,1.168,1.177,1.738
	c0.749,1.007,1.586,1.97,2.478,2.897l0.553,0.579l-1.934,1.007L107.398,50.534z M307.894,82.646
	c-2.656-0.018-4.625-0.365-5.98-1.497c-1.4-1.15-1.898-2.914-1.881-5.169c0-1.007,0.08-2.05,0.08-2.968
	c-0.045-4.563-2.798-7.585-6.729-7.611c-1.658-0.009-4.233,0.686-6.426,1.898c-0.579,0.33-2.005,1.123-2.852,1.533l-0.356,0.187
	l-0.383-0.187c-0.152-0.071-0.41-0.267-0.517-0.544c-0.089-0.267-0.071-0.428-0.071-0.499c0.036-0.811,0.401-1.685,1.221-3.2
	c2.281-3.966,10.178-17.165,11.836-19.483c3.128-4.51,4.91-6.907,6.007-8.494c1.131-1.791,1.043-2.201,1.06-3.244
	c0.036-1.355-0.909-3.414-2.406-4.884c-1.792-1.8-4.127-2.897-6.07-2.888c-0.089-0.009-0.16,0-0.232,0.009
	c1.114,1.791,1.533,2.986,1.515,4.715c0,3.815-1.043,6.872-5.151,15.285c-5.606,11.506-10.445,19.804-15,26.051
	c-0.597,0.793-1.132,1.212-1.987,1.827c-1.186,0.945-1.551,1.364-1.693,1.711c-0.383,0.713-1.631,7.05-1.595,8.895
	c0.151,2.718,0.57,3.217,2.71,3.351c1.016-0.044,1.257-0.089,1.782-0.722c0.535-0.642,1.159-2.059,2.122-4.545
	c1.078-2.727,2.371-4.706,5.357-8.244c4.233-4.822,6.898-7.273,9.598-7.353c1.079-0.009,2.086,0.428,2.71,1.274
	c0.633,0.838,0.909,1.97,0.909,3.307c0,1.337-0.089,2.406-0.24,3.69c-0.321,3.048-0.473,5.214-0.473,6.025
	c0,4.742,4.572,8.797,10.561,8.815c11.925-0.027,21.453-7.308,26.863-21.141c1.257-3.217,2.263-7.433,2.754-10.811
	c-1.568,4.679-4.126,9.732-6.569,13.101C322.662,78.6,315.665,82.655,307.894,82.646 M390.789,78.528
	c-1.916-1.444-4.545-2.897-7.852-4.216l-0.17-0.062l0.018-0.178c0.258-1.854,0.33-2.763,0.33-5.276c0-2.068-0.071-5.053-0.196-9.572
	l-0.205-7.843l0.107-0.053c1.319-0.766,3.306-1.364,4.768-1.373c0.749,0,1.408,0.062,2.139,0.062
	c1.693-0.009,2.941-1.052,2.941-2.495c0-1.007-0.713-1.462-2.718-1.702c-1.978-0.196-4.938-0.659-5.936-0.651
	c-0.428,0-0.829,0.107-1.631,0.579l-0.33,0.187v-6.114c0-0.749,0.071-1.479,0.071-2.246c-0.036-1.979-0.455-2.665-2.023-3.538
	c-1.275-0.704-3.12-1.105-4.661-1.105c-1.346,0.009-2.389,0.374-3.85,1.747c-0.196,0.16-0.33,0.303-0.419,0.41
	s-0.107,0.143-0.089,0.151c0.018,0.027,0,0,0.089,0.027c0.276,0,0.365,0,0.749-0.062c0.624-0.134,1.167-0.196,1.658-0.196
	c1.319-0.044,2.362,0.588,2.763,2.718c0.196,1.141,0.383,3.806,0.526,5.998c0.053,1.399,0.116,2.995,0.187,4.857v0.151l-0.134,0.062
	c-2.041,1.007-3.172,1.587-5.971,2.986c-1.783,0.873-3.244,1.586-4.037,2.068c-4.064,2.121-5.873,2.923-8.164,3.529
	c-0.356,0.107-0.579,0.16-0.739,0.223c-0.098,0.018-0.134,0.036-0.152,0.036c-0.018,0.071,0.089,0.169,0.954,0.428l-0.063,0.232
	l0.063-0.232l1.079,0.339c1.497,0.463,3.449,0.775,4.046,0.775c1.025,0,1.943-0.294,3.342-1.283c1.39-0.998,2.611-1.604,4.866-2.665
	c2.46-1.203,3.609-1.667,4.91-2.264l0.294-0.143l0.035,0.348c0.214,3.315,0.401,6.898,0.544,9.893
	c0.125,2.79,0.187,5.053,0.187,6.123c0,1.337-0.063,2.219-0.187,3.868l-0.018,0.241l-0.24-0.027
	c-1.604-0.196-2.246-0.267-3.431-0.267c-2.79,0-5.348,0.33-7.246,0.927c-2.87,0.9-4.974,2.816-4.956,4.492
	c0,1.221,0.972,3.137,2.326,4.429c1.4,1.399,3.957,2.184,6.738,2.184c4.456-0.018,6.862-1.462,10.062-6.007l0.143-0.205l0.187,0.143
	c2.977,2.397,4.145,3.342,5.535,4.955c1.8,1.979,2.611,2.424,4.358,2.451c1.755,0,3.021-1.257,3.021-2.576
	C394.408,82.049,393.213,80.32,390.789,78.528 M376.672,76.568c-1.516,2.059-2.104,2.647-3.797,3.592
	c-1.542,0.82-3.235,1.283-4.938,1.283c-2.522-0.018-4.768-1.168-4.821-2.816c0.053-2.139,3.324-3.476,7.727-3.494
	c2.281,0,3.93,0.348,5.74,1.087l0.285,0.098L376.672,76.568z M107.852,8.208c0.196,0,0.856-0.08,1.809-0.241
	c2.246-0.428,4.198-0.668,5.865-0.668c0.125,0,0.25,0.009,0.383,0.027c0.071,0,0.178,0.009,0.267,0.009
	c0.882,0,1.515-0.027,1.934-0.08c0.152-0.027,0.17-0.053,0.17-0.053V7.148c0.035-0.223-0.241-0.775-1.043-1.462
	c-0.784-0.695-1.408-0.954-1.604-0.936c0,0-0.384,0.071-0.972,0.312c-2.112,0.633-4.037,0.972-5.82,0.972
	c-0.758,0-1.524-0.089-2.246-0.241c-0.57-0.125-1.114-0.312-1.631-0.553c0.276,0.98,0.642,1.711,1.061,2.157
	C106.551,7.95,107.085,8.182,107.852,8.208 M122.184,6.524c0.882,1.257,1.667,1.711,1.827,1.649c0.258-0.009,0.446-0.08,0.695-0.321
	c0.205-0.205,0.33-0.472,0.33-0.971c-0.018-1.016-0.455-1.702-1.64-2.371c-0.972-0.517-2.299-0.838-3.966-0.909
	C120.348,4.349,121.257,5.33,122.184,6.524 M125.642,2.932c0.909,1.257,1.693,1.702,1.845,1.64c0.25-0.009,0.419-0.062,0.678-0.312
	c0.196-0.205,0.32-0.49,0.32-0.998c-0.035-1.016-0.454-1.693-1.64-2.371c-0.972-0.499-2.299-0.829-3.948-0.891
	C123.796,0.749,124.706,1.72,125.642,2.932 M353.785,61.906c-0.072,0.125-0.259,0.597-0.989,2.451
	c-0.874,2.255-2.407,5.927-2.531,6.319c-1.462,3.708-2.193,5.695-2.656,6.711c-0.178,0.437-0.338,0.668-0.615,0.668
	c-0.659-0.116-0.954-1.025-1.355-2.442c-0.33-1.497-0.526-3.547-0.526-5.686c0-4.768,1.185-10.704,3.592-17.558
	c0.989-2.923,1.247-3.752,1.247-4.982c0.018-1.702-1.568-3.61-4.955-6.248c-1.364-1.052-2.219-1.488-2.7-1.488h-0.018
	c-0.16,0.009-0.16,0.036-0.16,0.036c-0.036,0.009,0.071,0.205,0.285,0.472c0.99,1.275,1.488,3.761,1.488,7.495
	c0,1.479-0.045,2.879-0.33,4.545c-1.524,10.766-2.379,18.752-2.379,21.773c0,5.392,0.33,7.299,1.631,10.133
	c1.328,2.736,3.101,4.109,5.241,4.109c1.515,0,2.843-0.998,2.843-2.228c0-0.223-0.071-0.517-0.196-0.909
	c-0.384-1.034-0.49-1.141-0.49-2.139c0-3.815,0.944-10.731,2.219-15.401c0.446-1.791,0.66-2.46,0.864-3.253
	c0.196-0.775,0.597-2.38,0.579-2.487c0,0.036,0,0.036-0.035,0.036C353.802,61.862,353.838,61.835,353.785,61.906 M628.362,88.867
	c-1.578-1.105-2.62-1.64-3.69-1.916c-0.677-0.178-1.39-0.241-2.38-0.196c-4.599,0.08-6.595,0.053-9.019-0.553
	c-0.766-0.196-1.551-0.454-2.487-0.731l-0.036-0.027c-0.24-0.071-0.472-0.151-0.695-0.241h-0.035
	c-2.504-0.856-4.269-1.979-6.774-4.225c-0.348-0.419-0.749-1.043-1.15-1.756c0.036,0.446,0.071,0.838,0.107,1.168
	c0.695,6.8,6.666,12.745,14.269,14.652c0,0,0.017,0,0.035,0.009c2.371,0.597,4.893,0.793,7.433,0.526
	c3.521-0.348,5.731-2.255,6.007-3.565c0,0,0-0.044,0.018-0.062c0.071-0.276,0.089-0.508,0.053-0.775l0.856-0.08l-0.856,0.062
	C629.984,90.694,629.547,89.722,628.362,88.867 M675.99,61.577c-2.451,3.387-3.966,5.41-5.133,6.64
	c-1.15,1.23-2.157,1.738-3.271,1.72c-3.726-0.134-7.674-4.581-13.128-13.191c-2.576-4.216-5.044-9.162-6.613-13.315
	c-0.071-0.196-0.143-0.365-0.187-0.535v0.116c0,2.478,0.33,5.677,1.096,9.563c1.337,7.29,3.859,13.057,7.46,18.342
	c5.125,7.486,10.677,11.435,15.615,11.408c1.069,0.009,2.13-0.401,2.879-0.963c0.766-0.579,1.167-1.301,1.167-1.872
	c-0.036-0.205,0.116,0.036-0.669-1.328c-1.078-1.8-1.631-3.716-1.631-5.642c0.018-2.683,0.784-6.39,1.978-9.67
	C675.732,62.388,675.874,61.951,675.99,61.577 M404.577,14.893h32.655v-1.479h-16.096c-0.017,0-0.017,0.018-0.035,0.018v-0.018
	h-0.178v-0.009c-4.242-0.089-7.709-3.2-8.387-7.273l-8.146,6.97c-0.268,0.134-0.927,0.909-0.856,1.159
	C403.534,14.848,403.918,14.848,404.577,14.893 M629.413,43.6c-0.543-0.187-1.096-0.357-1.783-0.517v0.009
	c-4.099-1.043-9.519-1.337-14.376-0.802c-1.167,0.125-2.264,0.285-3.253,0.481c0.383,0.071,0.749,0.16,1.132,0.25
	c1.666,0.419,3.306,0.945,4.643,1.622c2.789,1.417,5.276,3.101,5.802,5.784c0.035,0.365-0.018,0.686-0.089,1.016
	c-0.49,1.479-1.675,2.897-3.529,4.759c3.253-1.159,6.818-2.148,8.912-2.397l0.882-0.098v0.009c1.078-0.116,2.335-0.232,3.707-0.294
	h0.178l0.081,0.009l0.107,0.018c2.905,0.437,3.155,0.463,3.886,0.374c1.06-0.054,2.299-1.168,2.451-1.97V51.8
	c0.054-0.16,0.054-0.348,0.036-0.526C638.254,49.456,633.923,44.973,629.413,43.6 M715.624,51.523l-0.009-0.009
	c-3.975-4.225-10.258-7.023-16.943-7.094c1.693,0.9,3.708,2.344,5.365,3.734c3.619,3.217,5.722,6.15,5.775,8.716
	c-0.125,2.576-3.11,5.401-7.54,8.173c1.693-0.419,3.886-0.66,5.277-0.66h0.071c2.469,0,3.984,0.713,6.355,2.157
	c0.873,0.481,0.748,0.446,1.666,0.481c2.585-0.027,4.323-2.059,4.358-5.463C720,57.949,718.396,54.375,715.624,51.523
	 M437.758,39.696c0.053-0.241-0.597-1.025-0.856-1.176l-8.146-6.943c-0.66,4.064-4.145,7.166-8.387,7.264v0.018h-0.178
	c0,0,0,0.009-0.018,0.009c0,0,0-0.009-0.018-0.009h-16.114v1.462h32.691C437.357,40.276,437.758,40.276,437.758,39.696
	 M437.776,52.619l-8.146-6.952c-0.686,4.064-4.162,7.183-8.395,7.264l-0.018,0.027h-0.169h-0.018h-16.105v1.453h32.656
	c0.642-0.045,1.043-0.036,1.043-0.624C438.676,53.538,438.017,52.744,437.776,52.619 M506.848,18.101l0.036,0.027
	c0,0-0.018-0.027-0.018-0.036L506.848,18.101z M405.085,104.704c1.533-4.349,5.686-7.478,10.561-7.478h0.089h11.577h0.089h0.081
	h10.499V60.721h-32.896V104.704z M414.844,62.156h13.351v33.609h-13.351V62.156z M502.855,52.619l-8.163-6.952
	c-0.66,4.064-4.136,7.183-8.369,7.264l-0.018,0.027h-0.16h-0.017h-0.098c0.018-3.2,0.036-9.964,0.036-13.378
	c0-2.139,0-3.939-0.036-4.635l-0.017-0.294h0.017c0-0.027-0.017-0.045-0.017-0.062c0-1.613,0.713-3.03,1.845-4.02l-0.071-0.036
	l-6.925-4.759c-0.33,2.611-2.54,4.635-5.259,4.635c-0.16,0-0.312-0.027-0.472-0.054l-0.018,0.054h-9.349l2.424-15.517h22.317
	c0.66-0.044,1.061-0.044,1.061-0.633c0.053-0.25-0.606-1.025-0.874-1.159l-8.146-6.97c-0.677,4.073-4.144,7.183-8.387,7.273
	l-0.018,0.009h-0.16v0.018c-0.018,0-0.018-0.018-0.035-0.018h-29.955v1.479h13.957l-2.629,15.392h-11.328v1.684h11.069
	l-3.494,20.989h-11.007v1.453h62.111c0.642-0.045,1.043-0.036,1.043-0.624C503.782,53.538,503.105,52.744,502.855,52.619
	 M475.913,52.958h-13.806l3.306-20.534l0.071-0.455h10.428V52.958z M600.376,26.684c-0.143-0.187-0.366-0.33-0.437-0.374
	l-0.107-0.018c-0.223,0.036-1.703,0.49-3.128,0.945c-2.094,0.704-3.797,0.998-4.982,1.123l-2.7,0.285l0.348-1.221l0.383-1.39
	c0.49-1.729,0.998-3.28,1.658-4.626c0.205-0.499,0.366-0.865,0.419-1.132c0.089-0.401,0.125-0.606,0.071-1.114
	c-0.232-1.471-0.713-2.193-2.941-3.387c-0.748-0.365-1.551-0.651-2.371-0.838c-1.408-0.365-2.87-0.472-4.109-0.339
	c-0.33,0.036-0.713,0.125-1.078,0.258c2.068,0.972,3.414,2.754,3.583,4.839c0.366,3.405-0.294,8.779-1.515,13.832l-0.152,0.579
	l-0.232,0.187l-0.24,0.214c-9.082,7.326-17.023,11.283-24.162,12.059c-0.49,0.045-1.025,0.089-1.533,0.107
	c2.79,1.889,4.617,2.834,6.043,3.2c0.036,0,0.053,0,0.107,0.018c0.936,0.223,1.738,0.241,2.763,0.152
	c4.002-0.437,8.048-2.05,11.56-4.75l4.055-3.11l-1.149,4.991c-0.66,2.825-1.248,5.267-1.791,7.442
	c-1.604,6.337-2.87,10.517-4.786,16.052c-2.086,5.989-4.314,12.237-5.535,14.349c-1.043,1.818-1.586,2.959-1.809,3.886v0.018
	c-0.214,0.802-0.25,1.542-0.125,2.754c0.454,3.752,1.533,4.893,2.504,5.116c0.017,0.018,0.035,0.018,0.035,0.018
	c0.312,0.062,0.66,0.089,1.096,0.062c1.48-0.232,1.676-0.303,2.282-0.989c0.543-0.668,1.221-2.353,1.952-5.339
	c0.018-0.053,0.035-0.143,0.071-0.196c0.24-0.98,0.499-2.085,0.784-3.315c0.428-2.014,2.558-11.167,3.404-15.125l6.48-29.875
	l0.258-0.196l0.285-0.196c4.438-3.387,7.326-5.811,10.285-8.654c3.307-3.137,4.528-4.831,4.625-5.401v-0.071
	c0.054-0.178,0.054-0.312,0.036-0.553C600.545,26.907,600.483,26.791,600.376,26.684 M447.036,97.218h10.508
	c0.018,0,0.036-0.018,0.071-0.018c0.036,0,0.053,0.018,0.089,0.018h24.652c0.036,0,0.063-0.018,0.098-0.018
	c4.875,0,9.038,3.128,10.589,7.487V60.846h-46.007V97.218z M456.813,62.307h26.443v33.44h-26.443V62.307z M533.639,18.021v0.027
	l-0.089-0.027h-0.053c-5.018-0.009-8.753,4.938-12.585,18.69c-1.533,5.294-1.462,5.65-2.317,6.355l-1.283,0.642l0.134-5.677v-1.292
	c0.018-8.226-1.978-13.948-4.768-16.105c-1.667-1.239-4.073-2.246-5.517-2.308c2.959,2.139,3.859,5.463,3.85,12.789
	c0,0.062,0,0.098,0.009,0.151c-0.009,8.823-1.096,19.955-2.487,26.8c-0.205,1.176-0.383,2.059-0.383,2.576v0.018l-0.017,0.062
	c0,1.711,1.31,4.706,3.066,6.702c1.114,1.337,2.05,1.827,3.36,1.845c1.604-0.045,2.397-0.579,3.253-2.246
	c0.49-1.034,0.615-2.406,0.802-7.139c0.312-9.037,1.587-17.665,3.761-26.203c2.433-9.171,5.41-14.269,9.902-14.447
	c3.066,0.071,5.606,2.772,6.569,6.266c1.212,4.51,1.791,12.513,1.827,22.406c-0.036,7.219-0.615,15.508-1.417,19.946
	c-1.613,8.52-5.428,16.087-11.382,21.533c-3.271,3.093-7.504,5.927-11.542,7.843c1.078-0.33,2.246-0.704,3.36-1.123
	c9.714-3.396,17.442-8.841,21.515-14.83c5.882-8.663,8.618-20.089,8.618-36.229c0-12.005-0.99-16.658-3.984-20.882
	C543.318,20.41,538.354,18.057,533.639,18.021 M443.605,26.666c0.071-0.241-0.589-1.025-0.856-1.168l-8.146-6.961
	c-0.678,4.073-4.163,7.183-8.387,7.273v0.018h-0.178h-0.018h-26.524v1.453h43.066C443.204,27.254,443.605,27.254,443.605,26.666"/>
</svg>
