<?xml version="1.0" encoding="utf-8"?>
<!-- Generator: Adobe Illustrator 27.0.1, SVG Export Plug-In . SVG Version: 6.00 Build 0)  -->
<svg version="1.1" id="레이어_1" xmlns="http://www.w3.org/2000/svg" xmlns:xlink="http://www.w3.org/1999/xlink" x="0px"
	 y="0px" viewBox="0 0 720 221.597" enable-background="new 0 0 720 221.597" xml:space="preserve">
<rect x="440.56" y="201.843" fill="#541B85" width="32.443" height="5.128"/>
<rect x="245.52" y="189.073" fill="#541B85" width="22.328" height="4.01"/>
<path fill="#541B85" d="M240.672,201.583H253.8v3.632c-0.019,10.516-7.302,12.092-10.096,12.71l-0.24,0.06l1.537,3.073l0.14-0.019
	c6.165-1.257,16.26-3.931,16.26-16.221v-3.233h12.411v-4.01h-33.141V201.583"/>
<path fill="#541B85" d="M279.301,190.091c-0.639-1.176-1.656-3.032-3.532-5.087l-0.1-0.1l-2.654,1.316l0.119,0.179
	c1.397,2.016,2.195,4.091,2.613,5.328l0.06,0.2l0.18-0.08l3.392-1.595L279.301,190.091"/>
<path fill="#541B85" d="M270.522,186.14l-0.1-0.119l-2.654,1.237l0.119,0.179c1.157,1.777,2.195,4.191,2.773,6.087l0.06,0.199
	l0.18-0.079l3.392-1.457l-0.079-0.18C273.295,189.952,271.979,187.896,270.522,186.14"/>
<path fill="#541B85" d="M293.726,193.163l-0.1,0.161c-5.667,8.999-12.151,12.25-19.534,14.725l-0.2,0.06l0.978,2.175l0.139-0.019
	c5.447-1.178,8.022-2.056,11.234-3.472v14.805h5.865V203.42c2.135-1.576,3.931-2.993,7.203-6.445l0.14-0.18L293.726,193.163"/>
<polygon fill="#541B85" points="335.888,190.988 336.007,191.149 336.146,191.028 339.02,188.774 338.899,188.634 334.27,184.524 
	334.151,184.445 331.697,186.38 331.876,186.519 "/>
<path fill="#541B85" d="M331.298,193.901l0.099,0.18l0.18-0.119l3.032-2.335l-0.139-0.16c-1.178-1.337-3.013-3.233-5.168-4.769
	l-0.1-0.1l-2.275,1.895l0.14,0.14L331.298,193.901"/>
<path fill="#541B85" d="M324.195,190.091l-0.1-0.119l-3.233,1.597l0.1,0.179c3.691,6.545,6.744,16.901,8.101,24.702l0.04,0.219
	l0.219-0.1l7.363-3.213l-0.06-0.16C334.291,206.392,329.403,196.256,324.195,190.091"/>
<path fill="#541B85" d="M307.634,190.31v0.54c0,9.318-0.999,16.84-7.803,24.562l-0.16,0.16l0.2,0.119l2.574,1.597l0.1-0.08
	c9.018-7.482,12.052-13.508,12.969-25.66v-0.179l-7.881-1.277V190.31"/>
<path fill="#541B85" d="M362.504,185.621l-0.1,0.161c-6.644,10.475-13.948,14.944-24.583,18.516l-0.198,0.06l1.217,2.674l0.14-0.04
	c6.943-1.516,10.276-2.674,14.146-4.41v18.636h7.283v-22.806c2.175-1.616,4.609-3.432,9.039-8.122l0.16-0.16L362.504,185.621"/>
<path fill="#541B85" d="M401.233,196.435l-0.1,0.14c-7.004,9.717-14.426,15.024-29.91,16.461l-0.24,0.019l0.1,0.24l3.093,7.283
	l0.139-0.04c15.125-3.99,22.986-9.737,29.372-22.127l0.06-0.161L401.233,196.435"/>
<path fill="#541B85" d="M383.315,198.81l0.119,0.18l0.16-0.16l4.908-5.507l-0.16-0.119c-3.311-2.434-7.063-4.65-13.727-5.987
	l-0.119-0.019l-1.457,2.514l0.16,0.08C377.349,192.106,380.561,194.88,383.315,198.81"/>
<path fill="#541B85" d="M433.996,193.622l0.079,0.22l0.2-0.121l3.232-1.935l-0.1-0.16c-1.078-1.875-2.634-3.851-4.189-5.367
	l-0.1-0.1l-2.594,1.556l0.119,0.16C431.302,188.734,433.097,191.289,433.996,193.622"/>
<path fill="#541B85" d="M418.831,188.414l0.02-0.179l-7.941-1.357v0.219c-0.119,11.014-4.689,15.764-6.724,17.838l-0.14,0.14
	l2.354,2.275l0.14-0.08c4.888-3.232,6.983-5.945,8.839-8.04h7.044c-0.44,10.395-1.058,15.782-13.389,18.635l-0.219,0.06l1.616,3.013
	l0.119-0.019c9.417-1.277,14.745-3.751,17.559-9.777c1.556-3.412,1.796-6.823,2.075-11.912h8.101v-4.012h-21.29
	C417.673,193.563,418.392,191.626,418.831,188.414"/>
<path fill="#541B85" d="M442.376,189.253c-1.856-2.654-3.372-3.951-4.131-4.629l-0.1-0.1l-2.654,1.617l0.179,0.16l3.293,4.929
	l0.079,0.179l0.18-0.1l3.252-1.895L442.376,189.253"/>
<path fill="#541B85" d="M501.156,203.858c-6.904-4.07-11.733-5.127-15.863-5.805v-10.455h-0.179l-7.104-0.48v33.501h7.283v-18.756
	c5.428,2.434,9.458,6.545,10.935,8.12l0.16,0.14l4.968-6.166L501.156,203.858"/>
<polygon fill="#541B85" points="27.675,203.02 29.91,204.417 199.948,207.51 199.948,198.512 29.91,201.604 "/>
<polygon fill="#541B85" points="712.118,201.603 542.06,198.511 542.06,207.509 712.118,204.417 714.353,203.02 "/>
<g>
	<defs>
		<polygon id="SVGID_1_" points="210.423,220.877 228.421,215.969 228.421,190.07 210.423,185.162 		"/>
	</defs>
	<clipPath id="SVGID_00000021820577501731038020000015215858914788363945_">
		<use xlink:href="#SVGID_1_"  overflow="visible"/>
	</clipPath>
	
		<linearGradient id="SVGID_00000080179330848203844970000015855143024456579774_" gradientUnits="userSpaceOnUse" x1="-192.5584" y1="544.5886" x2="-172.6047" y2="544.5886" gradientTransform="matrix(0 1.7899 1.7899 0 -755.3378 529.8223)">
		<stop  offset="0" style="stop-color:#E89AC0"/>
		<stop  offset="1" style="stop-color:#541B85"/>
	</linearGradient>
	
		<rect x="210.422" y="185.162" clip-path="url(#SVGID_00000021820577501731038020000015215858914788363945_)" fill="url(#SVGID_00000080179330848203844970000015855143024456579774_)" width="17.998" height="35.715"/>
</g>
<g>
	<defs>
		<polygon id="SVGID_00000106864042311846974570000006784247032777416124_" points="513.587,190.07 513.587,215.969 
			531.605,220.877 531.605,185.162 		"/>
	</defs>
	<clipPath id="SVGID_00000137829425614125995580000012844133343389216939_">
		<use xlink:href="#SVGID_00000106864042311846974570000006784247032777416124_"  overflow="visible"/>
	</clipPath>
	
		<linearGradient id="SVGID_00000117652867614992614450000001637260214536693636_" gradientUnits="userSpaceOnUse" x1="-192.5584" y1="705.4798" x2="-172.6047" y2="705.4798" gradientTransform="matrix(0 1.7899 1.7899 0 -740.1437 529.8223)">
		<stop  offset="0" style="stop-color:#E89AC0"/>
		<stop  offset="1" style="stop-color:#541B85"/>
	</linearGradient>
	
		<rect x="513.586" y="185.162" clip-path="url(#SVGID_00000137829425614125995580000012844133343389216939_)" fill="url(#SVGID_00000117652867614992614450000001637260214536693636_)" width="18.018" height="35.715"/>
</g>
<path d="M720,121.054l-2.335-1.975H720v-15.024c-0.021-9.578-1.097-17.12-3.432-22.727c-1.477-3.572-3.672-6.683-6.525-9.338
	l-2.913-2.913c-1.816-1.795-3.91-3.392-6.285-4.788c-5.807-3.392-13.049-5.008-21.609-5.008c-7.043,0-13.388,1.357-18.955,4.15
	c-5.586,2.773-9.756,6.923-12.231,12.271l-0.519,1.217l-2.394-2.374h-4.329V63.012l-3.493-3.493h-33.421v15.026h-6.245v1.336
	l-2.475-2.953l-2.913-2.892l-1.716-1.737c-5.027-4.648-12.669-7.502-22.806-8.939c-2.813-0.398-5.486-0.598-8.021-0.598
	c-5.188,0-9.836,0.838-13.908,2.534c-5.865,2.494-10.236,5.826-12.829,10.115c-2.515,4.21-4.191,10.057-5.268,17.658l-1.217,8.56
	l3.492,3.492l14.406,2.035c-7.621,1.975-12.67,3.912-15.563,6.345c-1.656,1.497-2.953,3.532-3.951,6.126V89.05l-3.472-3.492h-51.778
	V58.841c0-4.05,0.121-7.323,0.34-9.756c0.2-2.434,0.598-4.11,0.838-4.609c0.659-1.197,1.257-1.637,3.312-1.716l0.479,0.019
	c0.438,2.634,0.759,7.822,0.719,15.065v16.74l3.491,3.493h46.072v-9.1c0-13.308-1.197-23.524-3.791-30.827
	c-1.656-4.669-4.49-8.918-8.42-12.69l-2.894-2.913c-2.494-2.494-5.427-4.788-8.839-6.904c-8.48-5.307-19.075-7.882-31.586-7.882
	c-12.77,0-23.404,2.993-31.685,9.119c-8.101,5.966-13.249,12.749-15.065,20.332c-1.716,7.263-2.534,18.496-2.534,33.92v47.727
	c0,11.094,0.399,19.434,1.218,25.141c0.838,5.847,2.953,11.413,6.264,16.681c1.377,2.175,3.034,4.21,4.909,6.085l2.913,2.894
	c2.853,3.013,6.345,5.626,10.395,7.882c6.425,3.591,13.389,5.407,20.751,5.386h0.021c6.185,0,11.692-1.316,16.381-4.01
	c2.773-1.576,5.248-3.632,7.442-6.126l1.097,3.272l3.493,3.493h29.929v-26.059l1.097,1.137l0.578,0.578l2.913,2.894
	c4.17,3.751,9.098,6.066,14.625,6.823l3.632,0.279c2.853,0,5.528-0.538,7.982-1.576l1.297-0.659l2.235,2.315l32.723,4.609
	l7.083-50.381c1.257-9.098,2.135-16.421,2.594-22.088h2.254v42.779c0.021,9.558,0.24,15.524,0.838,18.496
	c0.599,2.894,2.096,5.468,4.331,7.642l3.83,3.831c2.434,2.254,5.328,3.731,8.541,4.35c3.113,0.598,7.882,0.857,14.565,0.857h13.848
	v-19.693l-3.472-3.492l-5.428-0.06c-0.1-1.537-0.139-3.472-0.139-5.847V97.43h3.591v27.555c0,7.323,0.498,12.95,1.616,17.061
	c1.097,4.089,3.113,7.861,5.945,11.213l1.537,1.617l2.913,2.913c2.834,2.973,6.564,5.307,11.074,7.023
	c5.088,1.895,10.854,2.833,17.299,2.833c6.644,0,12.271-0.938,16.9-2.913c4.59-1.975,8.441-4.968,11.433-8.899
	c2.913-3.831,4.829-7.523,5.687-11.133c0.817-3.492,1.197-8.22,1.197-14.307V121.054 M476.615,131.15
	c0.02,7.342-0.599,12.311-1.457,14.246c-0.878,1.836-1.776,2.434-4.231,2.554l-0.479-0.039c-0.499-2.296-0.838-6.406-0.818-11.972
	v-20.512l2.036,2.335h4.948V131.15 M558.88,133.625c-0.319,2.374-0.659,4.27-0.978,5.626l-0.757,2.294l-0.22,0.2
	c0.021-1.576,0.22-3.731,0.599-6.485c0.598-4.23,1.416-7.342,2.335-9.198l0.119-0.219L558.88,133.625 M564.906,90.826
	c-0.479,3.691-1.257,6.145-1.696,6.783l-0.419,0.24l0.639-4.45c0.358-2.654,0.717-4.768,1.057-6.345l0.818-2.773l0.179-0.219v0.139
	C565.485,85.797,565.306,88.032,564.906,90.826 M681.75,94.038c-0.021-2.694,0.06-4.869,0.16-6.465l0.419-2.813l0.06-0.119
	c0.119,1.536,0.2,3.511,0.179,5.906v4.927h-0.817V94.038 M684.185,132.526c0.039,4.69-0.44,7.862-0.939,8.879l-1.336,1.097
	c-0.1-1.217-0.18-2.773-0.16-4.589v-18.835h2.434V132.526"/>
<path d="M401.751,126.462h2.335v-15.024c0-9.578-1.078-17.12-3.412-22.727c-1.476-3.572-3.691-6.683-6.545-9.338l-2.894-2.913
	c-1.835-1.795-3.91-3.392-6.305-4.788c-5.807-3.392-13.03-5.008-21.588-5.008c-7.063,0-13.408,1.376-18.955,4.15
	c-5.587,2.773-9.777,6.923-12.271,12.271l-0.938,2.335c-0.24-3.651-0.619-6.585-1.178-8.839c-0.838-3.253-2.534-6.106-4.948-8.46
	l-2.913-2.913l-2.654-2.335c-3.672-2.713-8.321-4.01-13.708-4.01c-4.37,0-8.36,0.978-11.792,2.953l-1.737,1.117l-2.274-2.315
	h-30.669V42.419l-3.492-3.492h-36.074V59.34l2.335,1.875h-2.335v5.966h-28.294c0,0-2.235,23.485-3.073,34.777l-0.16,2.135
	l-3.93-33.421l-3.493-3.492H156.71v-2.475l-2.335-1.875h2.335V42.419l-3.492-3.492h-36.076V59.34l2.335,1.875h-2.335v21.909
	l-2.892-20.612c-2.394-17.059-4.45-28.392-6.285-34.339c-1.835-6.005-5.128-11.293-9.757-15.743l-3.492-3.492
	c-4.769-4.569-11.174-7.363-18.936-8.48C73.607,0.16,71.013,0,67.979,0c-8.14,0-19.573,1.057-34.399,3.132L0,7.861l25.819,183.766
	l3.492,3.492l55.13-7.742c10.136-1.416,17.678-3.092,22.806-5.128c5.088-2.035,9.298-4.968,12.511-8.818
	c1.995-2.394,3.492-5.188,4.489-8.341h32.464v-53.992l8.779,57.445l3.492,3.492h42.34l8.42-59.201v48.765l3.512,3.492h69.576V97.709
	c-0.021-7.202,0.339-11.831,0.698-12.849l0.379-0.638c0.121,2.016,0.2,4.848,0.2,8.38v68.997l3.491,3.492h33.841v-11.832
	c1.157,2.634,2.673,5.109,4.608,7.382l1.537,1.637l2.913,2.894c2.853,2.992,6.564,5.307,11.093,7.023
	c5.069,1.895,10.835,2.833,17.299,2.833c6.625,0,12.251-0.938,16.88-2.913c4.59-1.955,8.46-4.968,11.454-8.899
	c2.892-3.831,4.829-7.523,5.686-11.133c0.818-3.492,1.178-8.22,1.178-14.307v-9.318L401.751,126.462 M73.945,146.255l-2.394,2.394
	l-1.476,0.619L54.691,39.866l2.773-0.14l2.734,0.259l0.039,0.121c0.659,1.835,1.677,7.063,2.794,15.124l9.817,69.735
	c1.038,7.402,1.537,13.049,1.537,16.8C74.404,144.02,74.185,145.616,73.945,146.255 M365.836,101.421
	c0-2.694,0.06-4.869,0.179-6.445l0.399-2.834l0.06-0.1c0.119,1.516,0.2,3.512,0.2,5.887v4.948h-0.838V101.421 M368.271,139.909
	c0.039,4.69-0.44,7.862-0.939,8.879l-1.316,1.097c-0.119-1.217-0.2-2.752-0.179-4.589v-18.835h2.434V139.909"/>
<g>
	<defs>
		<rect id="SVGID_00000080909575531400866190000006293022241298906031_" x="119.298" y="41.102" width="31.765" height="16.083"/>
	</defs>
	<clipPath id="SVGID_00000168800440775977072110000003596281484947113910_">
		<use xlink:href="#SVGID_00000080909575531400866190000006293022241298906031_"  overflow="visible"/>
	</clipPath>
	
		<linearGradient id="SVGID_00000145745609775256650380000016594826079620415921_" gradientUnits="userSpaceOnUse" x1="-289.8437" y1="594.3733" x2="-269.8908" y2="594.3733" gradientTransform="matrix(0 8.388 8.388 0 -4850.4224 2441.1243)">
		<stop  offset="0" style="stop-color:#E89AC0"/>
		<stop  offset="1" style="stop-color:#541B85"/>
	</linearGradient>
	
		<rect x="119.298" y="41.103" clip-path="url(#SVGID_00000168800440775977072110000003596281484947113910_)" fill="url(#SVGID_00000145745609775256650380000016594826079620415921_)" width="31.765" height="16.083"/>
</g>
<g>
	<defs>
		<path id="SVGID_00000007390933513826607610000014874309499053982143_" d="M98.368,147.491l-34.059,34.08H26.597l-0.319-2.135
			l1.377,9.756l52.994-7.442c10.057-1.397,17.479-3.073,22.287-4.988c4.829-1.916,8.72-4.669,11.692-8.201
			c2.235-2.673,3.791-5.945,4.669-9.796v0.678h31.766v-11.952H98.368z M114.55,101.54l0.359,2.454l-0.34-2.454H114.55z
			 M70.454,92.521l-0.079-0.599L70.454,92.521z M119.298,63.37v38.17v2.454v-2.454h31.766V63.37H119.298z M100.124,19.673
			l-0.019-0.04C100.104,19.633,100.124,19.653,100.124,19.673 M100.104,19.633c-0.021-0.019-0.021-0.04-0.021-0.04L100.104,19.633z
			 M100.083,19.592c0-0.039-0.019-0.06-0.039-0.079L100.083,19.592z M2.434,9.696l13.049,92.881h16.421l10.057-10.057H14.087
			l-0.359-2.454h42.82l0.339,2.454H45.433l-12.511,12.511h-17.08l10.395,74.065l0.04,0.34l-0.04-0.34H63.29l34.039-34.059h53.734
			v-41.043h-31.766v33.102c-0.438-4.35-1.038-9.298-1.835-14.905l-2.554-18.197H95.295L83.802,92.521H70.454l4.51,32.145
			c1.696,11.971,2.016,19.413,1.018,22.307c-1.038,2.894-4.569,4.769-10.616,5.607l-16.6-118.082
			c1.995-0.279,3.731-0.419,5.207-0.419c1.916,0,3.372,0.24,4.41,0.719c1.816,0.838,3.113,2.375,3.891,4.589
			c0.778,2.215,1.756,7.403,2.892,15.544l5.209,36.991l-0.259-1.855H84.82l11.493,11.473h18.237l-5.926-42.201
			c-2.375-17.019-4.45-28.352-6.206-34.019c-0.598-1.975-1.376-3.851-2.294-5.647h-59L27.595,6.165L2.434,9.696z M33.88,5.267
			l-3.232,0.459l11.513,11.493h56.566l1.318,2.294c-1.737-3.312-4.012-6.305-6.825-9.019c-4.389-4.21-10.315-6.843-17.757-7.901
			C73.447,2.314,70.953,2.154,68,2.154C60.039,2.154,48.666,3.192,33.88,5.267"/>
	</defs>
	<clipPath id="SVGID_00000093135942413083802470000002616907511659185796_">
		<use xlink:href="#SVGID_00000007390933513826607610000014874309499053982143_"  overflow="visible"/>
	</clipPath>
	
		<linearGradient id="SVGID_00000009558519675760451410000017721950473875499401_" gradientUnits="userSpaceOnUse" x1="-289.8437" y1="587.7559" x2="-269.8908" y2="587.7559" gradientTransform="matrix(0 8.3879 8.3879 0 -4853.2891 2441.0952)">
		<stop  offset="0" style="stop-color:#E89AC0"/>
		<stop  offset="1" style="stop-color:#541B85"/>
	</linearGradient>
	
		<rect x="2.434" y="2.156" clip-path="url(#SVGID_00000093135942413083802470000002616907511659185796_)" fill="url(#SVGID_00000009558519675760451410000017721950473875499401_)" width="148.628" height="187.038"/>
</g>
<g>
	<defs>
		<polygon id="SVGID_00000022538585944796950330000001669419794770444943_" points="221.916,63.37 221.916,159.443 253.661,159.443 
			253.661,130.072 236.243,147.491 221.916,147.491 221.916,145.037 235.224,145.037 253.661,126.6 253.661,107.664 
			249.989,103.994 221.916,103.994 221.916,101.54 251.008,101.54 253.661,104.194 253.661,88.411 243.026,88.411 221.916,67.301 
			221.916,63.808 244.044,85.957 253.661,85.957 253.661,63.37 		"/>
	</defs>
	<clipPath id="SVGID_00000008146337432919147110000011588774250903965368_">
		<use xlink:href="#SVGID_00000022538585944796950330000001669419794770444943_"  overflow="visible"/>
	</clipPath>
	
		<linearGradient id="SVGID_00000146498134185755611610000001341186580333116293_" gradientUnits="userSpaceOnUse" x1="-289.8437" y1="605.9927" x2="-269.8908" y2="605.9927" gradientTransform="matrix(0 8.3879 8.3879 0 -4845.2188 2441.0952)">
		<stop  offset="0" style="stop-color:#E89AC0"/>
		<stop  offset="1" style="stop-color:#541B85"/>
	</linearGradient>
	
		<rect x="221.915" y="63.371" clip-path="url(#SVGID_00000008146337432919147110000011588774250903965368_)" fill="url(#SVGID_00000146498134185755611610000001341186580333116293_)" width="31.745" height="96.073"/>
</g>
<g>
	<defs>
		<rect id="SVGID_00000097468770275043867400000008668510437625337989_" x="221.916" y="41.102" width="31.745" height="16.083"/>
	</defs>
	<clipPath id="SVGID_00000111185237555276956870000002266192718355506818_">
		<use xlink:href="#SVGID_00000097468770275043867400000008668510437625337989_"  overflow="visible"/>
	</clipPath>
	
		<linearGradient id="SVGID_00000015349486565440701890000015604359382627437998_" gradientUnits="userSpaceOnUse" x1="-289.8437" y1="605.993" x2="-269.8908" y2="605.993" gradientTransform="matrix(0 8.388 8.388 0 -4845.2803 2441.1243)">
		<stop  offset="0" style="stop-color:#E89AC0"/>
		<stop  offset="1" style="stop-color:#541B85"/>
	</linearGradient>
	
		<rect x="221.916" y="41.103" clip-path="url(#SVGID_00000111185237555276956870000002266192718355506818_)" fill="url(#SVGID_00000015349486565440701890000015604359382627437998_)" width="31.745" height="16.083"/>
</g>
<g>
	<defs>
		<path id="SVGID_00000062904743161850293260000004260359529434044336_" d="M208.648,147.491h-44.196l2.894,18.896h38.609
			l2.853-19.993L208.648,147.491z M182.948,103.994h-25.141l6.266,41.043h44.934l5.846-41.043H190.39l0.14-1.875
			c-1.576,20.172-2.673,32.883-3.332,38.09L182.948,103.994l-0.279-2.454L182.948,103.994z M190.53,102.118
			c0.019-0.2,0.04-0.38,0.04-0.578L190.53,102.118z M152.5,69.336l4.929,32.204h25.241l-3.791-32.204H152.5z M193.403,69.336
			c-1.057,10.395-1.995,21.129-2.833,32.204h24.622l4.589-32.204H193.403z"/>
	</defs>
	<clipPath id="SVGID_00000010299488309343461370000013301837760051511439_">
		<use xlink:href="#SVGID_00000062904743161850293260000004260359529434044336_"  overflow="visible"/>
	</clipPath>
	
		<linearGradient id="SVGID_00000103963525725293097390000005465372347437189564_" gradientUnits="userSpaceOnUse" x1="-289.8437" y1="600.1439" x2="-269.8908" y2="600.1439" gradientTransform="matrix(0 8.3879 8.3879 0 -4847.8066 2441.0952)">
		<stop  offset="0" style="stop-color:#E89AC0"/>
		<stop  offset="1" style="stop-color:#541B85"/>
	</linearGradient>
	
		<rect x="152.5" y="69.337" clip-path="url(#SVGID_00000010299488309343461370000013301837760051511439_)" fill="url(#SVGID_00000103963525725293097390000005465372347437189564_)" width="67.28" height="97.051"/>
</g>
<g>
	<defs>
		<path id="SVGID_00000040540778376482924220000003886527143810313881_" d="M325.771,88.411h-29.551l0.04,4.191v66.842h29.551v-8.66
			H296.76l-0.499-0.519v-3.472l1.536,1.537h28.015V91.802c0-1.875-0.04-3.611-0.08-5.248L325.771,88.411z M295.064,63.689
			c-3.113,1.776-5.726,4.45-7.882,8.021l0.519-8.939h-30.049v96.672h29.53v-18.237l-22.307-22.328l-7.223,7.223v-3.472l5.467-5.486
			l-5.467-5.488v-3.492l29.53,29.551V94.217c0-2.196,0.021-4.131,0.08-5.807h-29.61v-2.454h29.71
			c0.119-2.574,0.339-4.31,0.619-5.228c0.558-1.696,1.855-2.534,3.951-2.534c2.014,0,3.232,0.738,3.671,2.195
			c0.259,0.899,0.459,2.754,0.559,5.568h29.551c-0.16-5.488-0.599-9.598-1.297-12.332c-0.918-3.632-2.993-6.644-6.206-9.018
			c-3.232-2.394-7.382-3.591-12.43-3.591C301.708,61.016,298.136,61.894,295.064,63.689"/>
	</defs>
	<clipPath id="SVGID_00000034775859710618565900000015808769283181401275_">
		<use xlink:href="#SVGID_00000040540778376482924220000003886527143810313881_"  overflow="visible"/>
	</clipPath>
	
		<linearGradient id="SVGID_00000041290555639881366430000014012468866631437696_" gradientUnits="userSpaceOnUse" x1="-289.8437" y1="612.1014" x2="-269.8908" y2="612.1014" gradientTransform="matrix(0 8.3879 8.3879 0 -4842.5146 2441.0952)">
		<stop  offset="0" style="stop-color:#E89AC0"/>
		<stop  offset="1" style="stop-color:#541B85"/>
	</linearGradient>
	
		<rect x="257.651" y="61.017" clip-path="url(#SVGID_00000034775859710618565900000015808769283181401275_)" fill="url(#SVGID_00000041290555639881366430000014012468866631437696_)" width="68.161" height="98.427"/>
</g>
<g>
	<defs>
		<path id="SVGID_00000090994509758592854800000017992650054569247157_" d="M368.969,150.285l0.021-0.021v-0.019L368.969,150.285z
			 M370.425,127.099v12.81c0,3.751-0.219,6.564-0.678,8.42h27.516l-0.359,1.197l-0.021,0.06l-0.419,1.178v0.019H368.59l0.04-0.06
			l-3.831,1.477l-3.353-1.418h-28.652l-0.619-1.916c1.018,3.791,2.873,7.244,5.527,10.395c2.655,3.133,6.366,5.607,11.154,7.423
			c4.769,1.796,10.296,2.694,16.541,2.694c6.425,0,11.773-0.898,16.042-2.733c4.27-1.836,7.801-4.569,10.576-8.222
			c2.773-3.671,4.549-7.102,5.287-10.315c0.759-3.232,1.137-7.842,1.137-13.827v-7.184H370.425z M395.806,87.673l0.239,0.738
			h-27.954c0.48,1.556,0.739,4.729,0.739,9.517v7.104h-8.641v-7.104c0-4.788,0.18-7.982,0.559-9.517h-28.273l0.259-0.859
			l0.498-1.495c-1.716,4.648-2.593,10.674-2.593,18.017v28.294c0,7.223,0.519,12.73,1.536,16.5l-0.119-0.538h28.532
			c-0.279-1.537-0.399-3.711-0.399-6.525v-20.99h38.25v-12.869c0-9.398-1.077-16.701-3.252-21.909L395.806,87.673z M333.233,86.057
			l0.021-0.04C333.253,86.016,333.233,86.036,333.233,86.057 M333.253,86.016l0.019-0.06
			C333.253,85.976,333.253,85.996,333.253,86.016 M345.345,72.727c-5.209,2.613-8.979,6.366-11.254,11.273
			c-0.279,0.638-0.559,1.278-0.818,1.956h61.874l0.04,0.079c-2.175-5.188-5.947-9.358-11.333-12.511
			c-5.388-3.132-12.232-4.708-20.512-4.708C356.558,68.817,350.572,70.133,345.345,72.727"/>
	</defs>
	<clipPath id="SVGID_00000040533051227402990860000015744453096147240589_">
		<use xlink:href="#SVGID_00000090994509758592854800000017992650054569247157_"  overflow="visible"/>
	</clipPath>
	
		<linearGradient id="SVGID_00000015329085399682242670000002051025179748704941_" gradientUnits="userSpaceOnUse" x1="-289.8437" y1="620.3465" x2="-269.8908" y2="620.3465" gradientTransform="matrix(0 8.3879 8.3879 0 -4838.8657 2441.0952)">
		<stop  offset="0" style="stop-color:#E89AC0"/>
		<stop  offset="1" style="stop-color:#541B85"/>
	</linearGradient>
	
		<rect x="330.639" y="68.817" clip-path="url(#SVGID_00000040533051227402990860000015744453096147240589_)" fill="url(#SVGID_00000015329085399682242670000002051025179748704941_)" width="67.8" height="100.562"/>
</g>
<g>
	<defs>
		<path id="SVGID_00000052809290714060583020000009610747795513095307_" d="M686.339,119.716v12.81c0,4.829-0.379,8.08-1.137,9.757
			c-0.738,1.695-2.254,2.533-4.489,2.533c-1.816,0-3.034-0.638-3.672-1.914c-0.619-1.258-0.938-4.091-0.938-8.481v-7.442h-29.53
			l-0.021-1.995c0,7.223,0.519,12.73,1.537,16.5c1.038,3.772,2.853,7.244,5.526,10.376c2.654,3.153,6.366,5.626,11.154,7.442
			c4.769,1.796,10.276,2.694,16.521,2.694c6.445,0,11.792-0.918,16.062-2.734c4.27-1.835,7.782-4.568,10.555-8.24
			c2.794-3.651,4.55-7.083,5.307-10.316c0.759-3.192,1.137-7.761,1.137-13.727h-28.014v-2.454h28.014v-4.809H686.339z
			 M676.103,90.545c0-5.467,0.24-8.82,0.738-10.057c0.48-1.236,1.756-1.875,3.791-1.875l3.293,2.196
			c0.538,1.476,0.817,4.708,0.817,9.737v7.083h-8.639V90.545z M669.618,62.432l2.974-0.538l6.803,6.823h24.124l2.673,2.454h-27.814
			L669.618,62.432z M661.258,65.345c-5.227,2.613-8.978,6.364-11.273,11.273c-2.274,4.888-3.432,11.592-3.432,20.072v27.835v0.459
			v-0.459h29.551v-11.094h38.25v-8.021h-67.8v-2.454h67.8v-2.394c0-9.419-1.077-16.701-3.252-21.909
			c-2.175-5.188-5.947-9.358-11.333-12.511c-5.388-3.132-12.232-4.708-20.533-4.708C672.472,61.434,666.467,62.731,661.258,65.345"
			/>
	</defs>
	<clipPath id="SVGID_00000098922927785193086810000005074083727791226273_">
		<use xlink:href="#SVGID_00000052809290714060583020000009610747795513095307_"  overflow="visible"/>
	</clipPath>
	
		<linearGradient id="SVGID_00000029041773589336336850000006516598064076204175_" gradientUnits="userSpaceOnUse" x1="-289.8437" y1="656.1219" x2="-269.8908" y2="656.1219" gradientTransform="matrix(0 8.3879 8.3879 0 -4823.0327 2441.0952)">
		<stop  offset="0" style="stop-color:#E89AC0"/>
		<stop  offset="1" style="stop-color:#541B85"/>
	</linearGradient>
	
		<rect x="646.552" y="61.436" clip-path="url(#SVGID_00000098922927785193086810000005074083727791226273_)" fill="url(#SVGID_00000029041773589336336850000006516598064076204175_)" width="67.801" height="100.561"/>
</g>
<g>
	<defs>
		<path id="SVGID_00000032609891440624453710000016258040058247897011_" d="M470.708,150.104h0.219H470.708z M471.108,150.104h0.04
			H471.108z M470.31,150.085h0.079H470.31z M470.489,150.085h0.14H470.489z M471.287,150.085h0.04H471.287z M429.367,159.522
			c3.192,5.028,7.84,9.238,13.947,12.651c6.126,3.412,12.71,5.108,19.713,5.108c5.906,0,11.014-1.237,15.345-3.711
			c4.329-2.475,7.921-6.206,10.774-11.174l3.851,11.512h26.258v-23.125h-94.097l-0.759-2.354
			C425.455,152.26,427.111,155.951,429.367,159.522 M424.398,148.429v-0.04C424.398,148.409,424.398,148.429,424.398,148.429
			 M424.398,148.389c0-0.019-0.019-0.019-0.019-0.04L424.398,148.389z M424.379,148.348v-0.019
			C424.379,148.348,424.379,148.348,424.379,148.348 M470.349,87.712v24.403h8.42v19.035c0,7.482-0.538,12.511-1.636,15.085
			l-1.357,2.095h43.476V87.712H470.349z M422.263,124.066l-0.04-4.329c0.019,10.595,0.419,18.596,1.197,23.963
			c0.219,1.556,0.539,3.113,0.958,4.629h41.981l-0.978-1.656c-0.938-2.275-1.397-7.023-1.397-14.227V61.275L422.263,124.066z
			 M477.213,47.188c0-0.021,0-0.061,0-0.1V47.188z M518.217,47.188h-41.004c0.18,2.813,0.259,6.364,0.259,10.655v14.585h41.781
			v-6.943c0-8.082-0.458-14.985-1.376-20.692L518.217,47.188z M517.877,44.793l-0.019-0.079
			C517.858,44.733,517.858,44.754,517.877,44.793 M438.944,18.595c-7.842,5.807-12.59,12.151-14.246,19.115
			c-1.637,6.944-2.475,18.077-2.475,33.421v47.728c0,0.279,0,0.538,0,0.818v0.06c0-0.021,0-0.04,0-0.06l41.762-62.852v-1.457
			c0-8.201,0.459-13.289,1.397-15.284c0.917-1.975,2.673-2.973,5.248-2.973c2.992,0,4.868,1.157,5.667,3.471
			c0.3,0.878,0.538,2.275,0.738,4.191v-0.06h40.824c-0.58-3.572-1.337-6.685-2.275-9.338c-2.454-6.923-7.702-12.889-15.783-17.918
			c-8.061-5.008-18.216-7.521-30.448-7.521C456.921,9.936,446.785,12.809,438.944,18.595"/>
	</defs>
	<clipPath id="SVGID_00000159430657278642222460000009649696567560112809_">
		<use xlink:href="#SVGID_00000032609891440624453710000016258040058247897011_"  overflow="visible"/>
	</clipPath>
	
		<linearGradient id="SVGID_00000000903220105027965820000011074617827984543132_" gradientUnits="userSpaceOnUse" x1="-289.8411" y1="632.3727" x2="-269.8907" y2="632.3727" gradientTransform="matrix(0 8.388 8.388 0 -4833.6055 2441.1243)">
		<stop  offset="0" style="stop-color:#E89AC0"/>
		<stop  offset="1" style="stop-color:#541B85"/>
	</linearGradient>
	
		<rect x="422.222" y="9.937" clip-path="url(#SVGID_00000159430657278642222460000009649696567560112809_)" fill="url(#SVGID_00000000903220105027965820000011074617827984543132_)" width="97.03" height="167.344"/>
</g>
<g>
	<defs>
		<path id="SVGID_00000082362824066030541670000014419198411101188270_" d="M525.559,150.783c0,0,0-0.019-0.021-0.019
			L525.559,150.783z M525.539,150.763l-1.136-2.335C524.721,149.286,525.12,150.045,525.539,150.763 M561.993,126.979l-0.978,6.944
			c-0.678,4.829-1.376,7.782-2.095,8.818l-2.794,1.277l-1.017-0.06c-1.936-0.279-3.133-1.178-3.572-2.734
			c-0.419-1.436-0.34-4.41,0.259-8.918l-18.477,18.476h-7.761c0.538,0.859,1.157,1.597,1.875,2.235
			c3.87,3.492,8.36,5.587,13.468,6.285l3.353,0.259c2.573,0,4.968-0.479,7.123-1.397c3.052-1.316,5.726-3.571,8.001-6.764
			l-1.197,8.56l28.452,4.01l5.207-36.993H561.993z M594.776,105.41h-2.913l-19.234,19.115h19.553l1.237-8.799
			c0.678-4.69,1.217-8.919,1.636-12.691L594.776,105.41z M595.055,103.035c0.021-0.019,0.021-0.039,0.021-0.079L595.055,103.035z
			 M546.65,63.289c-5.607,2.375-9.538,5.447-11.832,9.238c-2.275,3.791-3.931,9.398-4.988,16.84l-0.898,6.445l27.455,3.851
			l1.416-10.056c0.759-5.367,1.457-8.66,2.115-9.857l2.913-1.476l1.058,0.079l3.411,2.794c0.519,1.637,0.44,4.948-0.259,9.976
			c-0.559,4.01-1.276,6.625-2.135,7.822c-0.857,1.197-6.364,3.013-16.5,5.427c-9.478,2.215-15.524,4.469-18.158,6.764
			s-4.45,7.023-5.467,14.227l-1.118,7.901c-0.878,6.366-0.658,11.393,0.719,15.065h-0.019l0.04,0.1c0-0.04-0.021-0.06-0.021-0.1
			h7.922l20.151-20.172c0.539-2.734,1.198-4.929,1.975-6.525c1.078-2.214,4.211-4.708,9.359-7.482l-1.456,10.376h6.803
			l21.709-21.569h4.231c1.017-8.919,1.457-15.224,1.257-18.915c-0.319-5.228-2.734-9.957-7.263-14.146
			c-4.529-4.211-11.733-7.024-21.629-8.421c-2.713-0.379-5.288-0.558-7.722-0.558C554.77,60.916,550.401,61.713,546.65,63.289"/>
	</defs>
	<clipPath id="SVGID_00000057847864874082328360000016160495241389020600_">
		<use xlink:href="#SVGID_00000082362824066030541670000014419198411101188270_"  overflow="visible"/>
	</clipPath>
	
		<linearGradient id="SVGID_00000145057367534170488970000017119193027622828463_" gradientUnits="userSpaceOnUse" x1="-289.8413" y1="642.442" x2="-269.8885" y2="642.442" gradientTransform="matrix(0 8.3879 8.3879 0 -4829.082 2441.0964)">
		<stop  offset="0" style="stop-color:#E89AC0"/>
		<stop  offset="1" style="stop-color:#541B85"/>
	</linearGradient>
	
		<rect x="522.784" y="60.917" clip-path="url(#SVGID_00000057847864874082328360000016160495241389020600_)" fill="url(#SVGID_00000145057367534170488970000017119193027622828463_)" width="73.747" height="103.056"/>
</g>
<g>
	<defs>
		<path id="SVGID_00000026847065314380909810000004888370252875760014_" d="M606.069,61.673v15.024h-6.245v15.085h6.245v48.426
			c0,9.498,0.259,15.503,0.778,18.077c0.54,2.554,1.875,4.829,4.031,6.823c2.154,1.975,4.648,3.253,7.462,3.811
			c2.834,0.559,7.543,0.818,14.167,0.818h11.712v-15.364c-4.748,0-7.442-0.359-8.08-1.077c-0.659-0.719-0.978-4.231-0.978-10.495
			v-15.823h-29.091v-2.454h29.091V105.41h-29.091v-2.454h29.091V91.783h7.822V76.698h-7.822V61.673H606.069z"/>
	</defs>
	<clipPath id="SVGID_00000165948314161045182280000012492275577436161690_">
		<use xlink:href="#SVGID_00000026847065314380909810000004888370252875760014_"  overflow="visible"/>
	</clipPath>
	
		<linearGradient id="SVGID_00000027588273883402616410000004838978498575617924_" gradientUnits="userSpaceOnUse" x1="-289.8437" y1="649.5049" x2="-269.8908" y2="649.5049" gradientTransform="matrix(0 8.3879 8.3879 0 -4825.9619 2441.0952)">
		<stop  offset="0" style="stop-color:#E89AC0"/>
		<stop  offset="1" style="stop-color:#541B85"/>
	</linearGradient>
	
		<rect x="599.824" y="61.674" clip-path="url(#SVGID_00000165948314161045182280000012492275577436161690_)" fill="url(#SVGID_00000027588273883402616410000004838978498575617924_)" width="44.393" height="108.065"/>
</g>
<g>
	<defs>
		<rect id="SVGID_00000087378979218125046400000013563825525138846867_" x="119.298" y="101.54" width="31.765" height="2.454"/>
	</defs>
	<clipPath id="SVGID_00000043440610626235187810000016223828869316445594_">
		<use xlink:href="#SVGID_00000087378979218125046400000013563825525138846867_"  overflow="visible"/>
	</clipPath>
	
		<linearGradient id="SVGID_00000170962528987275575990000002844150982296025758_" gradientUnits="userSpaceOnUse" x1="-289.8437" y1="594.722" x2="-269.8908" y2="594.722" gradientTransform="matrix(0 8.3879 8.3879 0 -4853.2891 2441.0952)">
		<stop  offset="0" style="stop-color:#F6DAE8"/>
		<stop  offset="1" style="stop-color:#B69ECA"/>
	</linearGradient>
	
		<rect x="119.298" y="101.54" clip-path="url(#SVGID_00000043440610626235187810000016223828869316445594_)" fill="url(#SVGID_00000170962528987275575990000002844150982296025758_)" width="31.763" height="2.455"/>
</g>
<g>
	<defs>
		<polygon id="SVGID_00000106126735689204395630000010135386178899528349_" points="70.115,90.067 70.454,92.521 83.802,92.521 
			95.295,103.994 114.909,103.994 114.57,101.54 96.313,101.54 84.82,90.067 		"/>
	</defs>
	<clipPath id="SVGID_00000110450218246284528620000017971809468472776847_">
		<use xlink:href="#SVGID_00000106126735689204395630000010135386178899528349_"  overflow="visible"/>
	</clipPath>
	
		<linearGradient id="SVGID_00000011031480600640267810000017451198501129593255_" gradientUnits="userSpaceOnUse" x1="-289.8437" y1="589.6351" x2="-269.8908" y2="589.6351" gradientTransform="matrix(0 8.3879 8.3879 0 -4853.2891 2441.0952)">
		<stop  offset="0" style="stop-color:#F6DAE8"/>
		<stop  offset="1" style="stop-color:#B69ECA"/>
	</linearGradient>
	
		<rect x="70.114" y="90.068" clip-path="url(#SVGID_00000110450218246284528620000017971809468472776847_)" fill="url(#SVGID_00000011031480600640267810000017451198501129593255_)" width="44.795" height="13.927"/>
</g>
<path fill="#A19E9C" d="M214.853,103.994l0.339-2.454L214.853,103.994z"/>
<g>
	<defs>
		<polygon id="SVGID_00000078753986995783825510000003195880703652722092_" points="190.57,101.54 190.53,102.118 190.39,103.994 
			214.853,103.994 215.192,101.54 		"/>
	</defs>
	<clipPath id="SVGID_00000066485780468412043040000016367490111572286899_">
		<use xlink:href="#SVGID_00000078753986995783825510000003195880703652722092_"  overflow="visible"/>
	</clipPath>
	
		<linearGradient id="SVGID_00000109731092520774527810000000876317655583852674_" gradientUnits="userSpaceOnUse" x1="-289.8437" y1="602.129" x2="-269.8908" y2="602.129" gradientTransform="matrix(0 8.3879 8.3879 0 -4847.8066 2441.0952)">
		<stop  offset="0" style="stop-color:#F6DAE8"/>
		<stop  offset="1" style="stop-color:#B69ECA"/>
	</linearGradient>
	
		<rect x="190.389" y="101.54" clip-path="url(#SVGID_00000066485780468412043040000016367490111572286899_)" fill="url(#SVGID_00000109731092520774527810000000876317655583852674_)" width="24.803" height="2.455"/>
</g>
<path fill="#A19E9C" d="M157.807,103.994l-0.38-2.454L157.807,103.994z"/>
<g>
	<defs>
		<polygon id="SVGID_00000127034746242467797510000002338931456113979837_" points="157.428,101.54 157.807,103.994 
			182.948,103.994 182.669,101.54 		"/>
	</defs>
	<clipPath id="SVGID_00000106840047948647387820000007986510569830173073_">
		<use xlink:href="#SVGID_00000127034746242467797510000002338931456113979837_"  overflow="visible"/>
	</clipPath>
	
		<linearGradient id="SVGID_00000101062152942473790270000004320101053900717962_" gradientUnits="userSpaceOnUse" x1="-289.8437" y1="598.2421" x2="-269.8908" y2="598.2421" gradientTransform="matrix(0 8.3879 8.3879 0 -4847.8066 2441.0952)">
		<stop  offset="0" style="stop-color:#F6DAE8"/>
		<stop  offset="1" style="stop-color:#B69ECA"/>
	</linearGradient>
	
		<rect x="157.428" y="101.54" clip-path="url(#SVGID_00000106840047948647387820000007986510569830173073_)" fill="url(#SVGID_00000101062152942473790270000004320101053900717962_)" width="25.52" height="2.455"/>
</g>
<path fill="#A19E9C" d="M15.843,105.031l-0.359-2.454L15.843,105.031z"/>
<g>
	<defs>
		<polygon id="SVGID_00000088130408099224082370000005685338364154466971_" points="13.727,90.067 14.087,92.521 41.961,92.521 
			31.905,102.578 15.483,102.578 15.843,105.031 32.923,105.031 45.433,92.521 56.886,92.521 56.547,90.067 		"/>
	</defs>
	<clipPath id="SVGID_00000147926258157004441810000010535973155938618513_">
		<use xlink:href="#SVGID_00000088130408099224082370000005685338364154466971_"  overflow="visible"/>
	</clipPath>
	
		<linearGradient id="SVGID_00000072277956426576437770000016069079397818291355_" gradientUnits="userSpaceOnUse" x1="-289.8437" y1="582.8151" x2="-269.8908" y2="582.8151" gradientTransform="matrix(0 8.3879 8.3879 0 -4853.2891 2441.0952)">
		<stop  offset="0" style="stop-color:#F6DAE8"/>
		<stop  offset="1" style="stop-color:#B69ECA"/>
	</linearGradient>
	
		<rect x="13.726" y="90.068" clip-path="url(#SVGID_00000147926258157004441810000010535973155938618513_)" fill="url(#SVGID_00000072277956426576437770000016069079397818291355_)" width="43.16" height="14.963"/>
</g>
<g>
	<defs>
		<polygon id="SVGID_00000098936732235563863550000006505560112556917636_" points="97.33,145.037 63.29,179.096 26.238,179.096 
			26.597,181.571 64.309,181.571 98.368,147.491 151.064,147.491 151.064,145.037 		"/>
	</defs>
	<clipPath id="SVGID_00000074413126672031784910000016031405168318444173_">
		<use xlink:href="#SVGID_00000098936732235563863550000006505560112556917636_"  overflow="visible"/>
	</clipPath>
	
		<linearGradient id="SVGID_00000129902660449150684280000010983139554519451803_" gradientUnits="userSpaceOnUse" x1="-289.8437" y1="589.1748" x2="-269.8908" y2="589.1748" gradientTransform="matrix(0 8.3879 8.3879 0 -4853.2891 2441.0952)">
		<stop  offset="0" style="stop-color:#F6DAE8"/>
		<stop  offset="1" style="stop-color:#B69ECA"/>
	</linearGradient>
	
		<rect x="26.238" y="145.038" clip-path="url(#SVGID_00000074413126672031784910000016031405168318444173_)" fill="url(#SVGID_00000129902660449150684280000010983139554519451803_)" width="124.825" height="36.534"/>
</g>
<path fill="#A19E9C" d="M208.806,146.394l0.2-1.357L208.806,146.394z M164.452,147.491l-0.38-2.454L164.452,147.491"/>
<g>
	<defs>
		<polygon id="SVGID_00000062879444770281004960000001386310347971979926_" points="164.073,145.037 164.452,147.491 
			208.648,147.491 208.807,146.394 209.007,145.037 		"/>
	</defs>
	<clipPath id="SVGID_00000007420766899663180310000014531407604874448304_">
		<use xlink:href="#SVGID_00000062879444770281004960000001386310347971979926_"  overflow="visible"/>
	</clipPath>
	
		<linearGradient id="SVGID_00000052790587985278476880000012536580802358819506_" gradientUnits="userSpaceOnUse" x1="-289.8437" y1="600.1914" x2="-269.8908" y2="600.1914" gradientTransform="matrix(0 8.3879 8.3879 0 -4847.8066 2441.0952)">
		<stop  offset="0" style="stop-color:#F6DAE8"/>
		<stop  offset="1" style="stop-color:#B69ECA"/>
	</linearGradient>
	
		<rect x="164.072" y="145.038" clip-path="url(#SVGID_00000007420766899663180310000014531407604874448304_)" fill="url(#SVGID_00000052790587985278476880000012536580802358819506_)" width="44.934" height="2.454"/>
</g>
<polygon fill="#A19E9C" points="27.595,6.165 27.595,6.145 28.392,6.045 30.647,5.726 "/>
<g>
	<defs>
		<polygon id="SVGID_00000023977622311492887980000016654732135987524002_" points="27.595,6.165 41.124,19.673 100.124,19.673 
			98.727,17.219 42.161,17.219 30.648,5.726 		"/>
	</defs>
	<clipPath id="SVGID_00000143613987667672917240000014030040722631072680_">
		<use xlink:href="#SVGID_00000023977622311492887980000016654732135987524002_"  overflow="visible"/>
	</clipPath>
	
		<linearGradient id="SVGID_00000088819446004085790300000017765376664007683490_" gradientUnits="userSpaceOnUse" x1="-289.8437" y1="586.2191" x2="-269.8913" y2="586.2191" gradientTransform="matrix(0 8.3879 8.3879 0 -4853.2891 2441.0952)">
		<stop  offset="0" style="stop-color:#F6DAE8"/>
		<stop  offset="1" style="stop-color:#B69ECA"/>
	</linearGradient>
	
		<rect x="27.595" y="5.727" clip-path="url(#SVGID_00000143613987667672917240000014030040722631072680_)" fill="url(#SVGID_00000088819446004085790300000017765376664007683490_)" width="72.528" height="13.947"/>
</g>
<g>
	<defs>
		<polygon id="SVGID_00000015350390700433981730000003443457678830784685_" points="221.916,101.54 221.916,103.994 
			249.989,103.994 253.661,107.664 253.661,104.194 251.008,101.54 		"/>
	</defs>
	<clipPath id="SVGID_00000135672455554986271360000005256810466928563593_">
		<use xlink:href="#SVGID_00000015350390700433981730000003443457678830784685_"  overflow="visible"/>
	</clipPath>
	
		<linearGradient id="SVGID_00000018935973150685722580000005225541774546314673_" gradientUnits="userSpaceOnUse" x1="-289.8437" y1="605.9927" x2="-269.8908" y2="605.9927" gradientTransform="matrix(0 8.3879 8.3879 0 -4845.2188 2441.0952)">
		<stop  offset="0" style="stop-color:#F6DAE8"/>
		<stop  offset="1" style="stop-color:#B69ECA"/>
	</linearGradient>
	
		<rect x="221.915" y="101.54" clip-path="url(#SVGID_00000135672455554986271360000005256810466928563593_)" fill="url(#SVGID_00000018935973150685722580000005225541774546314673_)" width="31.745" height="6.126"/>
</g>
<g>
	<defs>
		<polygon id="SVGID_00000067936975458098613870000015295148062189896076_" points="235.224,145.037 221.916,145.037 
			221.916,147.491 236.243,147.491 253.661,130.072 253.661,126.6 		"/>
	</defs>
	<clipPath id="SVGID_00000065061463433672180460000005207131231270705329_">
		<use xlink:href="#SVGID_00000067936975458098613870000015295148062189896076_"  overflow="visible"/>
	</clipPath>
	
		<linearGradient id="SVGID_00000042729852720287544060000000907554911051298200_" gradientUnits="userSpaceOnUse" x1="-289.8437" y1="605.9927" x2="-269.8908" y2="605.9927" gradientTransform="matrix(0 8.3879 8.3879 0 -4845.2188 2441.0952)">
		<stop  offset="0" style="stop-color:#F6DAE8"/>
		<stop  offset="1" style="stop-color:#B69ECA"/>
	</linearGradient>
	
		<rect x="221.915" y="126.602" clip-path="url(#SVGID_00000065061463433672180460000005207131231270705329_)" fill="url(#SVGID_00000042729852720287544060000000907554911051298200_)" width="31.745" height="20.891"/>
</g>
<g>
	<defs>
		<polygon id="SVGID_00000091015859387283551610000000649483356966439296_" points="221.916,67.301 243.026,88.411 253.661,88.411 
			253.661,85.957 244.044,85.957 221.916,63.808 		"/>
	</defs>
	<clipPath id="SVGID_00000062885609885079238120000006906066230793716879_">
		<use xlink:href="#SVGID_00000091015859387283551610000000649483356966439296_"  overflow="visible"/>
	</clipPath>
	
		<linearGradient id="SVGID_00000040539468677568939110000009831636761527951260_" gradientUnits="userSpaceOnUse" x1="-289.8437" y1="605.9927" x2="-269.8908" y2="605.9927" gradientTransform="matrix(0 8.3879 8.3879 0 -4845.2188 2441.0952)">
		<stop  offset="0" style="stop-color:#F6DAE8"/>
		<stop  offset="1" style="stop-color:#B69ECA"/>
	</linearGradient>
	
		<rect x="221.915" y="63.809" clip-path="url(#SVGID_00000062885609885079238120000006906066230793716879_)" fill="url(#SVGID_00000040539468677568939110000009831636761527951260_)" width="31.745" height="24.603"/>
</g>
<g>
	<defs>
		<polygon id="SVGID_00000173132906224378658590000006751847987258556578_" points="296.261,150.264 296.76,150.783 
			325.811,150.783 325.811,148.329 297.796,148.329 296.261,146.792 		"/>
	</defs>
	<clipPath id="SVGID_00000016797776512620370500000010249540116951350427_">
		<use xlink:href="#SVGID_00000173132906224378658590000006751847987258556578_"  overflow="visible"/>
	</clipPath>
	
		<linearGradient id="SVGID_00000179621928184481800350000018233501069962259596_" gradientUnits="userSpaceOnUse" x1="-289.8437" y1="614.4029" x2="-269.8908" y2="614.4029" gradientTransform="matrix(0 8.3879 8.3879 0 -4842.5146 2441.0952)">
		<stop  offset="0" style="stop-color:#F6DAE8"/>
		<stop  offset="1" style="stop-color:#B69ECA"/>
	</linearGradient>
	
		<rect x="296.26" y="146.793" clip-path="url(#SVGID_00000016797776512620370500000010249540116951350427_)" fill="url(#SVGID_00000179621928184481800350000018233501069962259596_)" width="29.552" height="3.991"/>
</g>
<g>
	<defs>
		<polygon id="SVGID_00000075861437135873487120000011641884752145469335_" points="257.652,111.655 263.119,117.143 
			257.652,122.629 257.652,126.101 264.875,118.878 287.182,141.206 287.182,137.714 257.652,108.164 		"/>
	</defs>
	<clipPath id="SVGID_00000173863394841176790880000008979698361659772842_">
		<use xlink:href="#SVGID_00000075861437135873487120000011641884752145469335_"  overflow="visible"/>
	</clipPath>
	
		<linearGradient id="SVGID_00000053507057242471458060000011749089730739539628_" gradientUnits="userSpaceOnUse" x1="-289.8437" y1="609.7988" x2="-269.8908" y2="609.7988" gradientTransform="matrix(0 8.3879 8.3879 0 -4842.5146 2441.0952)">
		<stop  offset="0" style="stop-color:#F6DAE8"/>
		<stop  offset="1" style="stop-color:#B69ECA"/>
	</linearGradient>
	
		<rect x="257.651" y="108.165" clip-path="url(#SVGID_00000173863394841176790880000008979698361659772842_)" fill="url(#SVGID_00000053507057242471458060000011749089730739539628_)" width="29.531" height="33.042"/>
</g>
<path fill="#A19E9C" d="M325.73,86.556l-0.019-0.599h0.019V86.556z M296.221,88.411v-0.06l-0.021-0.738l-0.019-0.918l-0.021-0.738
	L296.221,88.411"/>
<g>
	<defs>
		<polygon id="SVGID_00000093868068785026186680000008915647236943178882_" points="296.161,85.957 296.221,88.411 325.771,88.411 
			325.731,86.555 325.711,85.957 		"/>
	</defs>
	<clipPath id="SVGID_00000035523086310550913760000001615343437011019138_">
		<use xlink:href="#SVGID_00000093868068785026186680000008915647236943178882_"  overflow="visible"/>
	</clipPath>
	
		<linearGradient id="SVGID_00000024703883284543092020000001109009795998201742_" gradientUnits="userSpaceOnUse" x1="-289.8437" y1="614.3945" x2="-269.8908" y2="614.3945" gradientTransform="matrix(0 8.3879 8.3879 0 -4842.5146 2441.0952)">
		<stop  offset="0" style="stop-color:#F6DAE8"/>
		<stop  offset="1" style="stop-color:#B69ECA"/>
	</linearGradient>
	
		<rect x="296.16" y="85.958" clip-path="url(#SVGID_00000035523086310550913760000001615343437011019138_)" fill="url(#SVGID_00000024703883284543092020000001109009795998201742_)" width="29.61" height="2.454"/>
</g>
<path fill="#A19E9C" d="M287.262,88.411l0.099-2.454L287.262,88.411z"/>
<g>
	<defs>
		<polygon id="SVGID_00000053539600345465166900000016759241444531117696_" points="257.652,85.957 257.652,88.411 287.262,88.411 
			287.362,85.957 		"/>
	</defs>
	<clipPath id="SVGID_00000031901033607325341680000008558233102551946413_">
		<use xlink:href="#SVGID_00000053539600345465166900000016759241444531117696_"  overflow="visible"/>
	</clipPath>
	
		<linearGradient id="SVGID_00000134250714168088434300000015796671350982723719_" gradientUnits="userSpaceOnUse" x1="-289.8437" y1="609.8094" x2="-269.8908" y2="609.8094" gradientTransform="matrix(0 8.3879 8.3879 0 -4842.5146 2441.0952)">
		<stop  offset="0" style="stop-color:#F6DAE8"/>
		<stop  offset="1" style="stop-color:#B69ECA"/>
	</linearGradient>
	
		<rect x="257.651" y="85.958" clip-path="url(#SVGID_00000031901033607325341680000008558233102551946413_)" fill="url(#SVGID_00000134250714168088434300000015796671350982723719_)" width="29.71" height="2.454"/>
</g>
<path fill="#A19E9C" d="M361.147,150.285l-0.559-1.956l0.2,0.938l0.08,0.319l0.079,0.24L361.147,150.285z M361.486,150.783h-0.04
	l-0.3-0.498L361.486,150.783"/>
<g>
	<defs>
		<polygon id="SVGID_00000168807770869057036470000006357132270639480715_" points="332.056,148.329 332.176,148.867 
			332.794,150.783 361.446,150.783 361.148,150.285 360.589,148.329 		"/>
	</defs>
	<clipPath id="SVGID_00000124859415661805710990000011924739933524107412_">
		<use xlink:href="#SVGID_00000168807770869057036470000006357132270639480715_"  overflow="visible"/>
	</clipPath>
	
		<linearGradient id="SVGID_00000098922747429092745760000014617039339283988904_" gradientUnits="userSpaceOnUse" x1="-289.8437" y1="618.2259" x2="-269.8908" y2="618.2259" gradientTransform="matrix(0 8.3879 8.3879 0 -4838.8657 2441.0952)">
		<stop  offset="0" style="stop-color:#F6DAE8"/>
		<stop  offset="1" style="stop-color:#B69ECA"/>
	</linearGradient>
	
		<rect x="332.056" y="148.33" clip-path="url(#SVGID_00000124859415661805710990000011924739933524107412_)" fill="url(#SVGID_00000098922747429092745760000014617039339283988904_)" width="29.39" height="2.454"/>
</g>
<path fill="#A19E9C" d="M369.308,149.666l0.219-0.619l0.219-0.719L369.308,149.666z M368.988,150.245l0.32-0.578L368.988,150.245
	 M368.63,150.723l0.258-0.319l0.08-0.119L368.63,150.723"/>
<g>
	<defs>
		<polygon id="SVGID_00000065761209151677526210000001857162757815024063_" points="369.747,148.329 369.308,149.666 
			368.989,150.245 368.989,150.264 368.969,150.285 368.63,150.723 368.59,150.783 396.464,150.783 396.464,150.763 
			396.883,149.586 396.903,149.526 397.262,148.329 		"/>
	</defs>
	<clipPath id="SVGID_00000060736927984602033170000003128382672189869496_">
		<use xlink:href="#SVGID_00000065761209151677526210000001857162757815024063_"  overflow="visible"/>
	</clipPath>
	
		<linearGradient id="SVGID_00000181791409697067638250000007329218400330879911_" gradientUnits="userSpaceOnUse" x1="-289.8437" y1="622.5386" x2="-269.8908" y2="622.5386" gradientTransform="matrix(0 8.3879 8.3879 0 -4838.8657 2441.0952)">
		<stop  offset="0" style="stop-color:#F6DAE8"/>
		<stop  offset="1" style="stop-color:#B69ECA"/>
	</linearGradient>
	
		<rect x="368.589" y="148.33" clip-path="url(#SVGID_00000060736927984602033170000003128382672189869496_)" fill="url(#SVGID_00000181791409697067638250000007329218400330879911_)" width="28.674" height="2.454"/>
</g>
<path fill="#A19E9C" d="M368.091,88.411l-0.08-0.199l-3.292-2.215c-2.036,0-3.312,0.638-3.791,1.875l-0.18,0.538l0.18-0.538
	c0.479-1.237,1.755-1.875,3.791-1.875l3.292,2.215L368.091,88.411"/>
<g>
	<defs>
		<path id="SVGID_00000126309944746055531140000007512802832908918165_" d="M333.273,85.957l-0.538,1.595l-0.259,0.859h28.273
			l0.179-0.539c0.48-1.236,1.756-1.875,3.791-1.875l3.293,2.215l0.079,0.2h27.954l-0.239-0.738l-0.619-1.637l-0.04-0.079H333.273z"
			/>
	</defs>
	<clipPath id="SVGID_00000033342648384519395720000004203457321566614145_">
		<use xlink:href="#SVGID_00000126309944746055531140000007512802832908918165_"  overflow="visible"/>
	</clipPath>
	
		<linearGradient id="SVGID_00000078019498207186319340000001792943202644113831_" gradientUnits="userSpaceOnUse" x1="-289.8437" y1="620.3131" x2="-269.8908" y2="620.3131" gradientTransform="matrix(0 8.3879 8.3879 0 -4838.8657 2441.0952)">
		<stop  offset="0" style="stop-color:#F6DAE8"/>
		<stop  offset="1" style="stop-color:#B69ECA"/>
	</linearGradient>
	
		<rect x="332.474" y="85.958" clip-path="url(#SVGID_00000033342648384519395720000004203457321566614145_)" fill="url(#SVGID_00000078019498207186319340000001792943202644113831_)" width="63.569" height="2.454"/>
</g>
<polygon fill="#A19E9C" points="714.353,126.979 714.353,126.9 714.353,124.525 "/>
<g>
	<defs>
		<polygon id="SVGID_00000064350596411483570190000001098212219865353877_" points="686.339,124.525 686.339,126.979 
			714.353,126.979 714.353,126.9 714.353,124.525 		"/>
	</defs>
	<clipPath id="SVGID_00000065035745645904418650000001740330918656860292_">
		<use xlink:href="#SVGID_00000064350596411483570190000001098212219865353877_"  overflow="visible"/>
	</clipPath>
	
		<linearGradient id="SVGID_00000124856227508239767850000014238710390677846201_" gradientUnits="userSpaceOnUse" x1="-289.8437" y1="658.4935" x2="-269.8908" y2="658.4935" gradientTransform="matrix(0 8.3879 8.3879 0 -4823.0327 2441.0952)">
		<stop  offset="0" style="stop-color:#F6DAE8"/>
		<stop  offset="1" style="stop-color:#B69ECA"/>
	</linearGradient>
	
		<rect x="686.338" y="124.525" clip-path="url(#SVGID_00000065035745645904418650000001740330918656860292_)" fill="url(#SVGID_00000124856227508239767850000014238710390677846201_)" width="28.015" height="2.455"/>
</g>
<g>
	<defs>
		<polygon id="SVGID_00000085930060108939529540000009604213437273089665_" points="646.553,124.525 646.553,124.984 
			646.574,126.979 676.103,126.979 676.103,124.525 		"/>
	</defs>
	<clipPath id="SVGID_00000096756659335345805450000016223502615127779498_">
		<use xlink:href="#SVGID_00000085930060108939529540000009604213437273089665_"  overflow="visible"/>
	</clipPath>
	
		<linearGradient id="SVGID_00000088854378635007788210000007792561107325028541_" gradientUnits="userSpaceOnUse" x1="-289.8437" y1="653.8419" x2="-269.8908" y2="653.8419" gradientTransform="matrix(0 8.3879 8.3879 0 -4823.0327 2441.0952)">
		<stop  offset="0" style="stop-color:#F6DAE8"/>
		<stop  offset="1" style="stop-color:#B69ECA"/>
	</linearGradient>
	
		<rect x="646.552" y="124.525" clip-path="url(#SVGID_00000096756659335345805450000016223502615127779498_)" fill="url(#SVGID_00000088854378635007788210000007792561107325028541_)" width="29.552" height="2.455"/>
</g>
<g>
	<defs>
		<rect id="SVGID_00000099651910052341713810000008827066837522429845_" x="646.553" y="102.956" width="67.779" height="2.454"/>
	</defs>
	<clipPath id="SVGID_00000087385187544192426630000015351920378684688277_">
		<use xlink:href="#SVGID_00000099651910052341713810000008827066837522429845_"  overflow="visible"/>
	</clipPath>
	
		<linearGradient id="SVGID_00000116230621812681588510000007468195369254352544_" gradientUnits="userSpaceOnUse" x1="-289.8437" y1="656.1207" x2="-269.8908" y2="656.1207" gradientTransform="matrix(0 8.3879 8.3879 0 -4823.0327 2441.0952)">
		<stop  offset="0" style="stop-color:#F6DAE8"/>
		<stop  offset="1" style="stop-color:#B69ECA"/>
	</linearGradient>
	
		<rect x="646.552" y="102.958" clip-path="url(#SVGID_00000087385187544192426630000015351920378684688277_)" fill="url(#SVGID_00000116230621812681588510000007468195369254352544_)" width="67.781" height="2.453"/>
</g>
<g>
	<defs>
		<polygon id="SVGID_00000173875060319687165350000015421653856338070706_" points="669.618,62.432 678.378,71.171 706.192,71.171 
			703.519,68.717 679.395,68.717 672.592,61.894 		"/>
	</defs>
	<clipPath id="SVGID_00000036229636137970121480000014347491428078366344_">
		<use xlink:href="#SVGID_00000173875060319687165350000015421653856338070706_"  overflow="visible"/>
	</clipPath>
	
		<linearGradient id="SVGID_00000090989345990022198730000005905877158861606568_" gradientUnits="userSpaceOnUse" x1="-289.8437" y1="657.0104" x2="-269.8908" y2="657.0104" gradientTransform="matrix(0 8.3879 8.3879 0 -4823.0327 2441.0952)">
		<stop  offset="0" style="stop-color:#F6DAE8"/>
		<stop  offset="1" style="stop-color:#B69ECA"/>
	</linearGradient>
	
		<rect x="669.618" y="61.895" clip-path="url(#SVGID_00000036229636137970121480000014347491428078366344_)" fill="url(#SVGID_00000090989345990022198730000005905877158861606568_)" width="36.574" height="9.277"/>
</g>
<path fill="#A19E9C" d="M477.213,47.088l-0.18-2.314L477.213,47.088z"/>
<g>
	<defs>
		<polygon id="SVGID_00000073693197099494109250000006756548267961683076_" points="477.034,44.714 477.034,44.773 477.213,47.088 
			477.213,47.188 518.217,47.188 517.858,44.714 		"/>
	</defs>
	<clipPath id="SVGID_00000031201252704043136530000004877525474253884587_">
		<use xlink:href="#SVGID_00000073693197099494109250000006756548267961683076_"  overflow="visible"/>
	</clipPath>
	
		<linearGradient id="SVGID_00000034775476641126272440000015466158738372810175_" gradientUnits="userSpaceOnUse" x1="-289.8437" y1="635.5782" x2="-269.8908" y2="635.5782" gradientTransform="matrix(0 8.388 8.388 0 -4833.6055 2441.1243)">
		<stop  offset="0" style="stop-color:#F6DAE8"/>
		<stop  offset="1" style="stop-color:#B69ECA"/>
	</linearGradient>
	
		<rect x="477.033" y="44.715" clip-path="url(#SVGID_00000031201252704043136530000004877525474253884587_)" fill="url(#SVGID_00000034775476641126272440000015466158738372810175_)" width="41.183" height="2.475"/>
</g>
<g>
	<defs>
		<polygon id="SVGID_00000172424602210854561060000009130100596192853676_" points="422.223,119.677 422.263,124.066 
			463.985,61.275 463.985,56.825 		"/>
	</defs>
	<clipPath id="SVGID_00000096758387278662965400000007073972004875136439_">
		<use xlink:href="#SVGID_00000172424602210854561060000009130100596192853676_"  overflow="visible"/>
	</clipPath>
	
		<linearGradient id="SVGID_00000095297825015313813260000003314912628671403675_" gradientUnits="userSpaceOnUse" x1="-289.8437" y1="629.0782" x2="-269.8908" y2="629.0782" gradientTransform="matrix(0 8.388 8.388 0 -4833.6055 2441.1243)">
		<stop  offset="0" style="stop-color:#F6DAE8"/>
		<stop  offset="1" style="stop-color:#B69ECA"/>
	</linearGradient>
	
		<rect x="422.222" y="56.826" clip-path="url(#SVGID_00000096758387278662965400000007073972004875136439_)" fill="url(#SVGID_00000095297825015313813260000003314912628671403675_)" width="41.762" height="67.24"/>
</g>
<path fill="#A19E9C" d="M470.309,150.085l-3.951-1.756h0.02L470.309,150.085 M470.488,150.085h-0.1H470.488 M471.326,150.085
	c1.875-0.06,3.332-0.659,4.429-1.756h0.021C474.678,149.426,473.201,150.025,471.326,150.085 M470.707,150.104l-0.079-0.019
	L470.707,150.104 M471.147,150.104l0.139-0.019L471.147,150.104 M470.928,150.104h0.179H470.928"/>
<g>
	<defs>
		<path id="SVGID_00000183223111185850296920000011702372870967816612_" d="M475.777,148.329c-1.097,1.097-2.574,1.696-4.45,1.756
			h-0.04l-0.139,0.019h-0.04h-0.18h-0.219l-0.079-0.019h-0.14h-0.1h-0.079l-3.951-1.756h-41.981l0.778,2.454h94.097v-2.454H475.777z
			"/>
	</defs>
	<clipPath id="SVGID_00000032619883268571178790000013691841034564812424_">
		<use xlink:href="#SVGID_00000183223111185850296920000011702372870967816612_"  overflow="visible"/>
	</clipPath>
	
		<linearGradient id="SVGID_00000124143552322988628670000008527471048059149981_" gradientUnits="userSpaceOnUse" x1="-289.8437" y1="632.5012" x2="-269.8908" y2="632.5012" gradientTransform="matrix(0 8.388 8.388 0 -4833.6055 2441.1243)">
		<stop  offset="0" style="stop-color:#F6DAE8"/>
		<stop  offset="1" style="stop-color:#B69ECA"/>
	</linearGradient>
	
		<rect x="424.377" y="148.33" clip-path="url(#SVGID_00000032619883268571178790000013691841034564812424_)" fill="url(#SVGID_00000124143552322988628670000008527471048059149981_)" width="94.875" height="2.453"/>
</g>
<path fill="#A19E9C" d="M561.992,126.979l0.34-2.454L561.992,126.979z M591.842,126.979l0.339-2.454L591.842,126.979"/>
<g>
	<defs>
		<polygon id="SVGID_00000139268038241859608770000010045289922971795125_" points="590.845,102.956 569.136,124.525 
			562.333,124.525 561.993,126.979 591.842,126.979 592.182,124.525 572.628,124.525 591.863,105.41 594.776,105.41 
			595.075,102.956 		"/>
	</defs>
	<clipPath id="SVGID_00000129887544924825075240000015003651709621881737_">
		<use xlink:href="#SVGID_00000139268038241859608770000010045289922971795125_"  overflow="visible"/>
	</clipPath>
	
		<linearGradient id="SVGID_00000128454090662710727110000016920615970954418870_" gradientUnits="userSpaceOnUse" x1="-289.8413" y1="644.6924" x2="-269.8885" y2="644.6924" gradientTransform="matrix(0 8.3879 8.3879 0 -4829.082 2441.0964)">
		<stop  offset="0" style="stop-color:#F6DAE8"/>
		<stop  offset="1" style="stop-color:#B69ECA"/>
	</linearGradient>
	
		<rect x="561.993" y="102.958" clip-path="url(#SVGID_00000129887544924825075240000015003651709621881737_)" fill="url(#SVGID_00000128454090662710727110000016920615970954418870_)" width="33.081" height="24.022"/>
</g>
<polygon fill="#A19E9C" points="551.797,132.307 551.917,131.469 552.455,128.158 552.476,128.158 551.917,131.469 "/>
<g>
	<defs>
		<polygon id="SVGID_00000137825834297625439370000016882212510585503676_" points="532.304,148.329 524.362,148.329 
			525.559,150.783 533.32,150.783 551.797,132.307 551.917,131.469 552.455,128.157 		"/>
	</defs>
	<clipPath id="SVGID_00000116236725858891953910000003325914346618309505_">
		<use xlink:href="#SVGID_00000137825834297625439370000016882212510585503676_"  overflow="visible"/>
	</clipPath>
	
		<linearGradient id="SVGID_00000112623601867121171520000005727246712121909686_" gradientUnits="userSpaceOnUse" x1="-289.8413" y1="639.9086" x2="-269.8885" y2="639.9086" gradientTransform="matrix(0 8.3879 8.3879 0 -4829.082 2441.0964)">
		<stop  offset="0" style="stop-color:#F6DAE8"/>
		<stop  offset="1" style="stop-color:#B69ECA"/>
	</linearGradient>
	
		<rect x="524.361" y="128.158" clip-path="url(#SVGID_00000116236725858891953910000003325914346618309505_)" fill="url(#SVGID_00000112623601867121171520000005727246712121909686_)" width="28.093" height="22.626"/>
</g>
<g>
	<defs>
		<rect id="SVGID_00000013878396601756011120000013608703039318904221_" x="606.069" y="124.525" width="29.091" height="2.454"/>
	</defs>
	<clipPath id="SVGID_00000018235850414586673050000014107909798659067544_">
		<use xlink:href="#SVGID_00000013878396601756011120000013608703039318904221_"  overflow="visible"/>
	</clipPath>
	
		<linearGradient id="SVGID_00000123416691943414764570000002968118858403490714_" gradientUnits="userSpaceOnUse" x1="-289.8437" y1="649.3372" x2="-269.8908" y2="649.3372" gradientTransform="matrix(0 8.3879 8.3879 0 -4825.9619 2441.0952)">
		<stop  offset="0" style="stop-color:#F6DAE8"/>
		<stop  offset="1" style="stop-color:#B69ECA"/>
	</linearGradient>
	
		<rect x="606.067" y="124.525" clip-path="url(#SVGID_00000018235850414586673050000014107909798659067544_)" fill="url(#SVGID_00000123416691943414764570000002968118858403490714_)" width="29.093" height="2.455"/>
</g>
<g>
	<defs>
		<rect id="SVGID_00000176040138869458207810000001057164710255158953_" x="606.069" y="102.956" width="29.091" height="2.454"/>
	</defs>
	<clipPath id="SVGID_00000127751577130935715740000000316279680840116397_">
		<use xlink:href="#SVGID_00000176040138869458207810000001057164710255158953_"  overflow="visible"/>
	</clipPath>
	
		<linearGradient id="SVGID_00000166676550464737274270000006030374641816188805_" gradientUnits="userSpaceOnUse" x1="-289.8437" y1="649.3372" x2="-269.8908" y2="649.3372" gradientTransform="matrix(0 8.3879 8.3879 0 -4825.9619 2441.0952)">
		<stop  offset="0" style="stop-color:#F6DAE8"/>
		<stop  offset="1" style="stop-color:#B69ECA"/>
	</linearGradient>
	
		<rect x="606.067" y="102.958" clip-path="url(#SVGID_00000127751577130935715740000000316279680840116397_)" fill="url(#SVGID_00000166676550464737274270000006030374641816188805_)" width="29.093" height="2.453"/>
</g>
</svg>
