<?xml version="1.0" encoding="utf-8"?>
<!-- Generator: Adobe Illustrator 27.0.1, SVG Export Plug-In . SVG Version: 6.00 Build 0)  -->
<svg version="1.1" id="레이어_1" xmlns="http://www.w3.org/2000/svg" xmlns:xlink="http://www.w3.org/1999/xlink" x="0px"
	 y="0px" viewBox="0 0 720 204.026" enable-background="new 0 0 720 204.026" xml:space="preserve">
<polyline fill="#034777" points="397.759,85.967 389.883,87.659 386.218,101.445 397.759,85.967 "/>
<polyline fill="#034777" points="317.59,87.942 304.937,105.383 320.971,103.976 317.59,87.942 "/>
<path fill="#004478" d="M415.597,74.393l-3.053,8.375c-1.373,3.779-4.97,6.298-8.987,6.298h-10.122l-11.313,31.092h10.303
	c2.349,0,3.881,0.636,4.664,2.394l49.362-78.115h-25.169c-3.121,0-6.048-1.532-7.841-4.086c-1.782-2.553-2.213-5.821-1.146-8.76
	l3.041-8.374c1.373-3.779,4.97-6.298,8.998-6.298h89.293c3.484,0,10.144,0.011,11.575,7.943c4.709-7.114,9.146-8.919,16.079-8.919
	c1.929,0,3.835,0.329,5.651,0.998c3.779,1.373,6.751,3.983,8.624,7.206c2.928-5.004,8.351-8.204,14.275-8.204
	c1.94,0,3.836,0.329,5.662,0.998c3.768,1.373,6.741,3.983,8.624,7.206c2.928-4.993,8.341-8.204,14.275-8.204
	c1.93,0,3.836,0.329,5.652,0.998c3.778,1.373,6.74,3.983,8.623,7.206c2.928-5.004,8.352-8.204,14.276-8.204
	c1.929,0,3.835,0.329,5.662,0.998c3.768,1.373,6.74,3.983,8.613,7.206c2.939-5.004,8.351-8.204,14.286-8.204
	c13.923-0.023,15.977,8.84,15.988,8.862c3.087-7.33,8.409-8.079,11.699-7.977h27.234c3.12,0,6.048,1.521,7.841,4.086
	c1.793,2.553,2.224,5.821,1.157,8.76l-26.292,72.215l-2.031,5.571l-12.312,33.839c-1.373,3.778-4.97,6.286-8.987,6.286h-27.903
	c-3.121,0-6.048-1.52-7.841-4.074l-1.112-2.121c-3.018,4.55-8.182,7.421-13.799,7.421c-1.93,0-3.836-0.341-5.651-0.999
	c-3.676-1.339-6.684-3.87-8.623-7.206c-2.928,4.993-8.352,8.204-14.275,8.204c-1.93,0-3.836-0.341-5.663-0.999
	c-3.768-1.373-6.74-3.983-8.613-7.217c-2.928,5.004-8.351,8.216-14.275,8.216h-0.011c-1.929,0-3.836-0.341-5.651-0.999
	c-3.677-1.339-6.683-3.87-8.624-7.206c-2.928,4.993-8.352,8.204-14.275,8.204c-1.929,0-3.836-0.341-5.651-0.999
	c-3.677-1.339-6.684-3.87-8.636-7.206c-4.38,7.558-6.684,7.058-19.438,7.058h-18.383c-4.516,0-8.42-3.155-9.351-7.569l-4.766-22.32
	l-16.079,25.452c-1.759,2.769-4.811,4.46-8.091,4.46h-44.527l-10.848-0.023h-21.73l-0.579,0.023h-33.395l-0.579-0.023h-21.719
	c-3.12,0-6.037-1.52-7.83-4.085c-1.792-2.554-2.224-5.821-1.157-8.749l3.053-8.375c1.373-3.779,4.958-6.298,8.987-6.298h15.603
	l11.313-31.092h-3.144c-9.804-0.431-9.554-9.225-9.554-9.225l-40.045,63.387c-1.759,2.769-4.811,4.46-8.091,4.46h-44.527
	c-3.484,0-6.695-1.907-8.386-4.959c-1.679-3.052-1.566-6.774,0.295-9.725l55.977-88.567h-25.169c-6.525,0-9.464-5.016-9.464-5.016
	L210.47,141.388c-1.384,3.779-4.97,6.298-8.999,6.298h-41.736l-0.579-0.023h-18.95c-3.12,0-6.037-1.52-7.83-4.085
	c-1.792-2.554-2.224-5.821-1.157-8.749l3.052-8.375c1.373-3.779,4.959-6.298,8.988-6.298h11.881l10.235-28.301h-19.2
	c-2.973,0-5.537-1.94-6.808-4.823c-1.452,2.815-4.641,4.8-8.318,4.8H94.272l-18.031,49.531c-1.373,3.779-4.971,6.298-8.988,6.298
	H25.518c-3.12,0-6.048-1.52-7.841-4.085c-1.793-2.554-2.224-5.821-1.157-8.749L57.155,23.205c1.362-3.779,4.584-6.286,8.987-6.298
	h111.511c3.121,0,9.112,2.031,11.075,8.635c3.518-7.341,7.614-8.623,11.642-8.623h41.736c5.639,0,7.784,4.958,7.784,4.958
	c2.542-3.847,7.16-4.947,10.19-4.958l89.304,0.011c3.484,0,6.695,1.895,8.374,4.947c1.691,3.053,1.578,6.775-0.295,9.725
	l-18.973,30.037l1.089-0.08h78.104L415.597,74.393"/>
<path fill="#FFFFFF" d="M98.437,4.946H54.181c-4.403,0.012-7.625,2.52-8.987,6.298L4.559,122.869
	c-1.067,2.928-0.636,6.196,1.157,8.76c1.793,2.554,4.721,4.074,7.841,4.074h41.736c4.016,0,7.614-2.519,8.987-6.298l18.031-49.531
	h36.777c3.677,0,6.866-1.986,8.318-4.8c1.271,2.882,3.836,4.823,6.808,4.823h19.2l-10.235,28.301h-11.881
	c-4.017,0-7.614,2.519-8.988,6.298l-3.052,8.374c-1.067,2.928-0.635,6.196,1.157,8.76c1.793,2.554,4.71,4.074,7.842,4.074h18.939
	l0.578,0.023h41.736c4.029,0,7.614-2.519,8.999-6.298L235.615,27.46c0,0,2.939,5.016,9.464,5.016h25.169l-55.977,88.567
	c-1.861,2.95-1.974,6.672-0.283,9.725c1.68,3.064,4.89,4.959,8.374,4.959h44.527c3.279,0,6.332-1.691,8.091-4.46l40.045-63.375
	c0,0-0.25,8.783,9.554,9.214h3.144l-11.313,31.093h-15.603c-4.029,0-7.614,2.519-8.987,6.298l-3.053,8.374
	c-1.067,2.928-0.635,6.196,1.158,8.76c1.792,2.554,4.709,4.074,7.829,4.074h21.719l0.579,0.023h33.395l0.579-0.023h21.73
	l10.848,0.023h44.527c3.279,0,6.332-1.691,8.091-4.46l16.079-25.452l4.766,22.32c0.942,4.415,4.834,7.569,9.351,7.569h18.383
	c12.754,0,15.058,0.499,19.449-7.058c1.941,3.336,4.947,5.867,8.624,7.206c1.815,0.659,3.722,0.999,5.651,0.999
	c5.923,0,11.347-3.212,14.275-8.204c1.941,3.336,4.947,5.867,8.624,7.206c1.827,0.659,3.722,0.999,5.651,0.999h0.011
	c5.924,0,11.347-3.212,14.276-8.216c1.872,3.234,4.845,5.844,8.612,7.217c1.827,0.659,3.733,0.999,5.663,0.999
	c5.923,0,11.347-3.212,14.275-8.204c1.94,3.336,4.947,5.867,8.624,7.206c1.815,0.659,3.722,0.999,5.651,0.999
	c5.617,0,10.78-2.871,13.799-7.421l1.112,2.122c1.793,2.553,4.721,4.085,7.842,4.085h27.903c4.017,0,7.614-2.519,8.987-6.298
	l12.312-33.838l2.031-5.572l26.292-72.215c1.067-2.939,0.636-6.207-1.157-8.76c-1.793-2.553-4.721-4.085-7.841-4.085h-27.234
	c-3.29-0.103-8.612,0.647-11.699,7.977c-0.011-0.023-2.065-8.885-15.989-8.862c-5.935,0-11.347,3.212-14.286,8.204
	c-1.873-3.223-4.845-5.832-8.613-7.205c-1.827-0.67-3.733-0.999-5.662-0.999c-5.924,0-11.347,3.212-14.275,8.204
	c-1.884-3.223-4.845-5.832-8.624-7.205c-1.816-0.67-3.722-0.999-5.652-0.999c-5.934,0-11.347,3.212-14.275,8.204
	c-1.883-3.223-4.856-5.832-8.623-7.205c-1.827-0.67-3.722-0.999-5.663-0.999c-5.924,0-11.347,3.212-14.275,8.204
	c-1.873-3.223-4.845-5.832-8.624-7.205c-1.815-0.67-3.722-0.999-5.651-0.999c-6.934,0-11.37,1.804-16.079,8.919
	c-1.43-7.932-8.091-7.943-11.575-7.943h-89.293c-4.028,0-7.625,2.519-8.998,6.298l-3.041,8.374
	c-1.067,2.939-0.636,6.207,1.146,8.761c1.792,2.553,4.72,4.085,7.841,4.085h25.169l-49.362,78.116
	c-0.783-1.759-2.315-2.394-4.664-2.394h-10.303l11.314-31.093h10.122c4.017,0,7.614-2.519,8.987-6.298l3.053-8.374
	c1.067-2.928,0.635-6.207-1.158-8.761c-1.792-2.553-4.709-4.073-7.841-4.073H327.62l-1.089,0.079l18.985-30.036
	c1.861-2.95,1.975-6.672,0.283-9.725c-1.68-3.053-4.89-4.948-8.374-4.948L248.12,4.958c-3.03,0.011-7.648,1.112-10.19,4.959
	c0,0-2.145-4.959-7.784-4.959H188.41c-4.028,0-8.125,1.282-11.642,8.624c-1.963-6.605-7.954-8.636-11.075-8.636H98.437"/>
<path fill="#1D8BCC" d="M643.578,3.983c13.889,0,15.943,8.84,15.955,8.862c2.917-6.933,7.83-7.988,11.143-7.988l0.556,0.011h27.234
	c3.12,0,6.048,1.532,7.841,4.086c1.793,2.553,2.224,5.821,1.157,8.76l-26.291,72.215l-2.031,5.571l-12.312,33.839
	c-1.373,3.778-4.97,6.298-8.987,6.298h-27.903c-3.121,0-6.048-1.532-7.841-4.086l-1.112-2.121c-3.018,4.55-8.182,7.421-13.799,7.421
	c-1.929,0-3.836-0.341-5.651-0.999c-3.677-1.339-6.683-3.87-8.624-7.206c-2.928,4.993-8.352,8.204-14.275,8.204
	c-1.929,0-3.836-0.341-5.663-0.999c-3.767-1.373-6.74-3.983-8.612-7.217c-2.928,5.004-8.352,8.216-14.275,8.216h-0.012
	c-1.929,0-3.824-0.341-5.651-0.999c-3.676-1.339-6.684-3.87-8.624-7.206c-2.928,4.993-8.351,8.204-14.275,8.204
	c-1.929,0-3.836-0.341-5.651-0.999c-3.677-1.339-6.684-3.87-8.624-7.206c-3.881,6.672-6.116,7.069-15.364,7.069
	c-1.225,0-2.587-0.011-4.085-0.011h-18.383c-4.516,0-8.409-3.155-9.351-7.569l-4.766-22.32l-16.079,25.452
	c-1.759,2.769-4.811,4.46-8.091,4.46h-44.527l-10.848-0.023h-21.73l-0.579,0.023h-33.395l-0.578-0.023h-21.719
	c-3.121,0-6.037-1.52-7.83-4.074c-1.793-2.565-2.225-5.832-1.157-8.76l3.052-8.375c1.373-3.779,4.959-6.298,8.987-6.298h15.603
	l11.313-31.092h-3.144c-9.804-0.431-9.554-9.214-9.554-9.214l-40.045,63.376c-1.759,2.769-4.811,4.46-8.091,4.46h-44.527
	c-3.484,0-6.695-1.895-8.374-4.959c-1.691-3.052-1.577-6.774,0.284-9.725l55.977-88.567h-25.169c-6.525,0-9.464-5.016-9.464-5.016
	l-37.106,101.968c-1.384,3.779-4.97,6.298-8.998,6.298h-41.736l-0.578-0.023h-18.939c-3.132,0-6.048-1.52-7.841-4.074
	c-1.793-2.565-2.225-5.832-1.158-8.76l3.053-8.375c1.373-3.779,4.97-6.298,8.987-6.298h11.881l10.235-28.301h-19.2
	c-2.973,0-5.537-1.94-6.808-4.823c-1.452,2.815-4.641,4.8-8.317,4.8H82.312l-18.031,49.531c-1.373,3.779-4.97,6.298-8.987,6.298
	H13.557c-3.12,0-6.048-1.52-7.841-4.074c-1.793-2.565-2.224-5.832-1.157-8.76L45.194,11.245c1.362-3.779,4.584-6.286,8.987-6.298
	h111.511c3.12,0,9.112,2.031,11.075,8.635c3.518-7.341,7.614-8.623,11.642-8.623h41.736c5.64,0,7.784,4.958,7.784,4.958
	c2.542-3.847,7.161-4.947,10.19-4.958l89.304,0.011c3.484,0,6.695,1.895,8.375,4.947c1.691,3.053,1.577,6.775-0.284,9.725
	l-18.985,30.037l1.089-0.08h67.018c3.132,0,6.048,1.521,7.842,4.074c1.792,2.553,2.224,5.832,1.157,8.76l-3.053,8.375
	c-1.373,3.779-4.97,6.298-8.987,6.298h-10.122l-11.314,31.092h10.304c2.349,0,3.881,0.636,4.663,2.394l49.362-78.115h-25.169
	c-3.12,0-6.048-1.532-7.841-4.086c-1.781-2.553-2.213-5.821-1.146-8.76l3.041-8.374c1.373-3.779,4.97-6.298,8.998-6.298h89.293
	c3.484,0,10.144,0.011,11.575,7.943c4.709-7.114,9.146-8.919,16.079-8.919c1.929,0,3.836,0.329,5.651,0.998
	c3.779,1.373,6.752,3.983,8.624,7.206c2.928-4.993,8.352-8.204,14.275-8.204c1.941,0,3.836,0.329,5.663,0.998
	c3.767,1.373,6.74,3.983,8.624,7.206c2.928-4.993,8.34-8.204,14.275-8.204c1.929,0,3.835,0.329,5.651,0.998
	c3.779,1.373,6.74,3.983,8.624,7.206c2.928-4.993,8.351-8.204,14.275-8.204c1.929,0,3.836,0.329,5.662,0.998
	c3.768,1.373,6.74,3.983,8.613,7.206c2.939-4.993,8.351-8.204,14.286-8.204H643.578 M643.578,0h-0.034
	c-5.379,0-10.485,2.144-14.275,5.798c-2.065-2.009-4.539-3.574-7.263-4.561C619.748,0.409,617.388,0,614.982,0
	c-5.368,0-10.485,2.133-14.264,5.798c-2.065-2.009-4.539-3.574-7.263-4.561C591.187,0.409,588.827,0,586.432,0
	c-5.368,0-10.485,2.133-14.275,5.798c-2.065-2.009-4.539-3.574-7.263-4.561C562.636,0.409,560.277,0,557.871,0
	c-5.368,0-10.473,2.133-14.264,5.798c-2.065-2.009-4.539-3.574-7.262-4.561C534.086,0.409,531.715,0,529.321,0
	c-6.479,0-11.132,1.6-15.16,5.48c-3.87-4.505-10.032-4.505-12.494-4.505h-89.293c-5.685,0-10.802,3.586-12.743,8.919l-3.041,8.374
	c-1.52,4.153-0.907,8.795,1.635,12.414c2.53,3.62,6.684,5.776,11.097,5.776h17.929l-23.898,37.82l0.976-2.11l3.052-8.374
	c1.51-4.153,0.897-8.783-1.634-12.403c-2.542-3.62-6.684-5.787-11.109-5.787h-60.822l15.069-23.829
	c2.633-4.176,2.791-9.452,0.409-13.787c-2.383-4.323-6.934-7.012-11.87-7.012H248.12c-3.018,0-6.74,0.851-9.838,2.995
	c-1.929-1.657-4.63-2.995-8.136-2.995H188.41c-4.686,0-8.431,1.623-11.46,5.027c-3.189-3.438-7.558-5.039-11.257-5.039H54.181
	c-5.866,0.012-10.746,3.427-12.743,8.919L0.814,121.497c-1.509,4.153-0.896,8.795,1.634,12.414c2.542,3.62,6.684,5.776,11.109,5.776
	h41.736c5.674,0,10.791-3.574,12.732-8.919l17.078-46.911h33.985c2.962,0,5.787-0.941,8.056-2.587
	c1.986,1.668,4.449,2.61,7.069,2.61h13.526l-7.364,20.334h-9.078c-5.674,0-10.791,3.586-12.732,8.919l-3.052,8.363
	c-1.509,4.153-0.897,8.795,1.634,12.414c2.531,3.62,6.684,5.776,11.109,5.776h18.825l0.692,0.023h41.736
	c5.685,0,10.802-3.586,12.743-8.919l35.086-96.396c2.054,1.191,4.641,2.065,7.739,2.065h17.929l-52.107,82.45
	c-2.633,4.176-2.792,9.464-0.409,13.787c2.383,4.324,6.933,7.013,11.869,7.013h44.527c4.675,0,8.965-2.36,11.461-6.31l6.059-9.6
	c-0.613,3.507,0.17,7.149,2.247,10.11c2.531,3.62,6.684,5.776,11.098,5.776h21.605l0.692,0.023h33.395l0.693-0.023h21.616
	l10.848,0.023h44.527c4.675,0,8.965-2.36,11.461-6.31l10.848-17.18l2.723,12.743c1.328,6.218,6.9,10.723,13.254,10.723h18.383
	l2.236,0.011h1.849c7.75,0,11.87-0.443,15.558-4.46c2.02,1.907,4.425,3.393,7.069,4.358c2.258,0.817,4.618,1.237,7.013,1.237
	c5.368,0,10.474-2.134,14.264-5.787c2.065,1.997,4.539,3.552,7.274,4.55c2.258,0.817,4.618,1.237,7.012,1.237
	c5.379,0,10.485-2.134,14.275-5.799c2.065,2.009,4.539,3.563,7.263,4.562c2.259,0.817,4.618,1.237,7.024,1.237
	c5.367,0,10.473-2.134,14.264-5.787c2.065,1.997,4.539,3.552,7.274,4.55c2.258,0.817,4.618,1.237,7.013,1.237
	c4.982,0,9.714-1.793,13.39-4.971c2.497,2.383,5.844,3.756,9.362,3.756h27.903c5.674,0,10.791-3.586,12.732-8.919l12.312-33.827
	l2.042-5.583l26.28-72.215c1.509-4.153,0.896-8.794-1.634-12.414c-2.542-3.619-6.683-5.776-11.109-5.776H671.3l-0.625-0.012
	c-4.527,0-8.306,1.589-11.177,4.641C656.627,2.689,651.737,0,643.578,0z M391.597,81.089c4.505,0,8.67-2.259,11.155-5.867
	l-18.644,29.515c-1.067-0.352-2.292-0.522-3.642-0.522h-4.607l8.408-23.126H391.597z M296.302,104.986l17.94-28.391
	c1.758,2.02,4.323,3.642,7.886,4.255l-8.511,23.364h-12.811C299.24,104.214,297.72,104.487,296.302,104.986z"/>
<path fill="#1D8BCC" d="M640.094,98.155h27.904l-10.156,27.903h-27.903L640.094,98.155 M670.562,14.434l-28.436,78.138h27.903
	l28.437-78.138H670.562z M124.637,29.617c1.781-4.891,9.566-10.588,14.445-10.588c-4.879,0-8.511-5.708-6.729-10.598
	c-1.781,4.89-9.565,10.598-14.456,10.598C122.788,19.029,126.419,24.726,124.637,29.617z M145.38,70.32l20.312-55.806h-11.165
	L134.214,70.32H145.38z M188.41,14.535l-37.583,103.228h-19.528l-3.041,8.374h19.529l-0.012,0.011h41.736l40.636-111.613H188.41z
	 M501.667,14.535h-89.293l-3.052,8.363h42.53l-65.248,103.25h44.527l28.63-45.299l9.657,45.288h8.374l-11.779-55.182L501.667,14.535
	z M292.897,14.535H248.12l-3.041,8.363h42.53l-65.248,103.25h44.527l70.536-111.613H292.897z M374.78,67.539h16.817l3.052-8.374
	H327.62l-3.041,8.374h16.817l-18.292,50.224h-22.297l-3.053,8.374h22.309l-0.011,0.011h33.395v-0.011h22.309l3.041-8.374h-22.298
	L374.78,67.539z M89.517,32.09l6.4-17.577H54.181L13.557,126.138h41.736l20.312-55.829H119.1l3.041-8.375H78.658l10.667-29.31
	L89.517,32.09z M125.534,37.707c-9.135,0-15.91-11.086-12.584-20.573c-3.325,9.486-17.861,20.573-26.996,20.573
	c9.135,0,15.909,11.075,12.584,20.573C101.863,48.782,116.399,37.707,125.534,37.707z"/>
<path fill="#19A16F" d="M617.366,13.967c-3.62-1.316-7.614,0.556-8.942,4.176l-28.686,78.887l-0.148,0.364
	c-1.328,3.619,0.545,7.614,4.165,8.941c3.62,1.317,7.625-0.556,8.942-4.176l0.022,0.011l28.823-79.262
	C622.857,19.29,620.985,15.284,617.366,13.967"/>
<path fill="#19A16F" d="M581.02,113.746c-3.62-1.316-7.626,0.545-8.942,4.176c-1.317,3.619,0.556,7.614,4.176,8.93
	c3.62,1.328,7.625-0.544,8.942-4.165C586.511,119.068,584.639,115.062,581.02,113.746"/>
<path fill="#F3E12A" d="M588.816,13.967c-3.62-1.316-7.626,0.556-8.942,4.176l-28.698,78.887l-0.148,0.364
	c-1.317,3.619,0.544,7.614,4.176,8.941c3.62,1.317,7.614-0.556,8.942-4.176l0.011,0.011L592.98,22.91
	C594.307,19.29,592.435,15.284,588.816,13.967"/>
<path fill="#F3E12A" d="M552.47,113.746c-3.62-1.316-7.626,0.545-8.942,4.176c-1.317,3.619,0.544,7.614,4.165,8.93
	c3.62,1.328,7.625-0.544,8.941-4.165C557.95,119.068,556.089,115.062,552.47,113.746"/>
<path fill="#1CADD1" d="M564.43,22.91c1.316-3.619-0.545-7.625-4.165-8.941c-3.631-1.317-7.625,0.556-8.942,4.176l-28.698,78.888
	l-0.148,0.363c-1.317,3.62,0.544,7.614,4.165,8.942c3.62,1.316,7.625-0.556,8.941-4.176l0.023,0.012L564.43,22.91"/>
<path fill="#1CADD1" d="M523.908,113.746c-3.62-1.316-7.614,0.545-8.942,4.176c-1.317,3.619,0.556,7.614,4.176,8.93
	c3.62,1.328,7.625-0.544,8.942-4.165C529.4,119.068,527.528,115.062,523.908,113.746"/>
<path fill="#D9395B" d="M531.704,13.967c-3.62-1.316-7.626,0.556-8.942,4.176l-28.698,78.887l-0.148,0.364
	c-1.317,3.619,0.556,7.614,4.176,8.941c3.62,1.317,7.625-0.556,8.942-4.176l0.011,0.011L535.88,22.91
	C537.195,19.29,535.323,15.284,531.704,13.967"/>
<path fill="#D9395B" d="M495.358,113.746c-3.62-1.316-7.626,0.545-8.942,4.165c-1.317,3.631,0.544,7.625,4.165,8.942
	c3.631,1.328,7.625-0.544,8.941-4.165C500.85,119.068,498.978,115.062,495.358,113.746"/>
<path fill="#CDB7D7" d="M650.307,18.836l-0.443-1.259l-0.318-0.59l-1.782-2.009l-1.838-1.01c-3.62-1.317-7.625,0.556-8.941,4.176
	l-28.698,78.888l-0.148,0.363c-1.317,3.619,0.544,7.614,4.164,8.942c3.62,1.316,7.626-0.556,8.942-4.176l0.023,0.012l28.822-79.262
	C650.591,21.56,650.636,20.141,650.307,18.836"/>
<path fill="#CDB7D7" d="M609.582,113.746c-3.62-1.316-7.626,0.545-8.942,4.176c-1.317,3.619,0.544,7.614,4.165,8.93
	c3.619,1.328,7.625-0.544,8.941-4.165C615.062,119.068,613.201,115.062,609.582,113.746"/>
<path fill="#FFFFFF" d="M259.49,107.244c-8.874,0-13.152,4.267-13.152,13.152c0-8.885-4.266-13.152-13.152-13.152
	c8.885,0,13.152-4.266,13.152-13.152C246.338,102.977,250.616,107.244,259.49,107.244"/>
<polyline fill="#FFFFFF" points="61.626,28.924 69.887,28.04 61.626,27.143 64.497,23.58 60.933,26.451 60.037,18.178 
	59.152,26.451 55.578,23.58 58.459,27.143 50.187,28.04 58.459,28.924 55.578,32.487 59.152,29.617 60.037,37.889 60.933,29.617 
	64.497,32.487 61.626,28.924 "/>
<polyline fill="#FFFFFF" points="470.723,39.591 483.909,38.172 470.723,36.754 475.308,31.058 469.622,35.653 468.204,22.468 
	466.785,35.653 461.1,31.058 465.685,36.754 452.499,38.172 465.685,39.591 461.1,45.276 466.785,40.692 468.204,53.877 
	469.622,40.692 475.308,45.276 470.723,39.591 "/>
<polyline fill="#1D8BCC" points="541.803,175.249 526.098,160.043 523.17,160.1 507.852,175.918 501.837,192.315 513.945,204.026 
	516.873,203.981 541.848,178.188 541.803,175.249 "/>
<line fill="#1D8BCC" x1="503.721" y1="181.489" x2="503.721" y2="181.489"/>
<line fill="#1D8BCC" x1="503.721" y1="181.489" x2="503.721" y2="181.489"/>
<rect x="557.95" y="178.812" fill="#1D8BCC" width="69.425" height="3.189"/>
<rect x="84.65" y="178.812" fill="#1D8BCC" width="69.423" height="3.189"/>
<line fill="#1D8BCC" x1="503.721" y1="181.489" x2="503.721" y2="181.489"/>
<line fill="#1D8BCC" x1="503.721" y1="181.489" x2="503.721" y2="181.489"/>
<path fill="#1D8BCC" d="M495.392,201.949c-0.386,1.067-1.589,1.623-2.655,1.237l-20.528-7.5c-1.078-0.386-1.634-1.578-1.237-2.655
	l12.3-33.725c0.398-1.078,1.589-1.634,2.667-1.236l20.527,7.489c1.078,0.386,1.635,1.589,1.237,2.655L495.392,201.949"/>
<path fill="#1D8BCC" d="M189.534,173.638l-2.633-2.52c-1.861-1.168-3.529-1.566-6.854-1.566h-7.319v21.776h8.556
	c6.161,0,10.246-4.38,10.246-10.973C191.531,177.689,190.873,175.499,189.534,173.638 M180.66,186.426h-2.383v-11.971h2.417
	c3.392,0,5.288,2.19,5.288,6.071C185.982,184.339,184.121,186.426,180.66,186.426z"/>
<path fill="#1D8BCC" d="M208.79,183.884c3.29-0.555,5.413-3.234,5.413-6.819c0-2.383-1.01-4.573-2.678-5.969
	c-1.464-1.214-2.996-1.566-6.684-1.566h-6.888v21.764h5.322v-7.046l5.061,7.046h6.355L208.79,183.884 M205.227,180.458h-1.952
	v-6.037h2.02c2.281,0,3.563,1.044,3.563,2.973C208.858,179.312,207.553,180.458,205.227,180.458z"/>
<polyline fill="#1D8BCC" points="221.749,191.294 221.749,169.53 233.822,169.53 233.822,174.42 227.059,174.42 227.059,177.779 
	233.618,177.779 233.618,182.681 227.059,182.681 227.059,186.403 233.822,186.403 233.822,191.294 221.749,191.294 "/>
<path fill="#1D8BCC" d="M252.512,169.53h-4.403l-8.715,21.765h5.969l1.146-3.167h7.569l1.044,3.167h6.037L252.512,169.53
	 M248.041,183.725l2.281-7.443l2.258,7.443H248.041z"/>
<polyline fill="#1D8BCC" points="266.572,191.294 266.572,169.53 273.72,169.53 278.021,183.851 282.333,169.53 289.516,169.53 
	289.516,191.294 284.386,191.294 284.58,174.942 279.882,191.294 276.194,191.294 271.496,174.942 271.666,191.294 266.572,191.294 
	"/>
<polyline fill="#1D8BCC" points="306.764,191.294 306.764,169.53 318.645,169.53 318.645,174.42 312.086,174.42 312.086,178.108 
	318.418,178.108 318.418,182.999 312.086,182.999 312.086,191.294 306.764,191.294 "/>
<polyline fill="#1D8BCC" points="326.974,191.294 326.974,169.53 339.047,169.53 339.047,174.42 332.296,174.42 332.296,177.779 
	338.855,177.779 338.855,182.681 332.296,182.681 332.296,186.403 339.047,186.403 339.047,191.294 326.974,191.294 "/>
<path fill="#1D8BCC" d="M361.935,175.861h-5.515c-0.193-1.475-0.817-2.099-1.986-2.099c-1.044,0-1.93,0.76-1.93,1.668
	c0,0.919,0.59,1.566,1.861,2.156l2.678,1.203c3.654,1.668,5.061,3.427,5.061,6.275c0,4.176-2.848,6.65-7.614,6.65
	c-4.857,0-7.898-2.644-7.898-6.877v-0.726h5.583c0,1.792,0.885,2.939,2.259,2.939c1.202,0,2.144-0.908,2.144-2.088
	c0-0.976-0.681-1.702-2.315-2.349c-1.305-0.556-2.156-0.885-2.508-1.044l-2.61-1.532c-1.339-1.078-2.19-2.78-2.19-4.505
	c0-3.619,3.358-6.433,7.637-6.433c2.349,0,4.607,0.953,5.878,2.485C361.515,172.855,361.81,173.74,361.935,175.861"/>
<polyline fill="#1D8BCC" points="371.524,191.294 371.524,174.42 367.223,174.42 367.223,169.53 381.385,169.53 381.385,174.42 
	377.072,174.42 377.072,191.294 371.524,191.294 "/>
<rect x="388.511" y="169.529" fill="#1D8BCC" width="5.548" height="21.765"/>
<polyline fill="#1D8BCC" points="399.507,169.53 405.248,169.53 409.651,184.804 414.065,169.53 419.807,169.53 412.499,191.295 
	406.78,191.295 399.507,169.53 "/>
<path fill="#1D8BCC" d="M434.172,169.53h-4.403l-8.715,21.765h5.969l1.146-3.167h7.569l1.044,3.167h6.037L434.172,169.53
	 M429.702,183.725l2.281-7.443l2.258,7.443H429.702z"/>
<polyline fill="#1D8BCC" points="448.391,191.294 448.391,169.53 453.94,169.53 453.94,186.403 460.374,186.403 460.374,191.294 
	448.391,191.294 "/>
<path fill="#FFFFFF" d="M662.075,107.244c-4.596,0-6.809,2.213-6.809,6.809c0-4.596-2.213-6.809-6.82-6.809
	c4.607,0,6.82-2.212,6.82-6.819C655.266,105.032,657.479,107.244,662.075,107.244"/>
</svg>
