<?xml version="1.0" encoding="utf-8"?>
<!-- Generator: Adobe Illustrator 27.0.1, SVG Export Plug-In . SVG Version: 6.00 Build 0)  -->
<svg version="1.1" id="레이어_1" xmlns="http://www.w3.org/2000/svg" xmlns:xlink="http://www.w3.org/1999/xlink" x="0px"
	 y="0px" viewBox="0 0 720 155.051" enable-background="new 0 0 720 155.051" xml:space="preserve">
<path d="M720,58.574l-1.535-1.477l-2.631-1.842c-3.318-0.819-6.549-1.842-9.691-3.026l-1.535-0.219l0.336,0.073l-1.695-0.219
	c1.359,0.438,2.719,1.038,3.991,1.549l-0.073,0.073c-1.287-0.365-2.646-0.745-4.093-1.111l1.784,0.746l-0.073,0.145l-2.134-0.526
	l-0.263-2.207c-1.271-1.316-2.544-2.661-3.728-4.05l-1.622-0.745v0.219l-0.6,0.6l-0.424,0.366l-0.249,0.219l-0.687-0.219
	l-0.336,0.511l-1.447,2.061c-1.023,2.661-1.608,5.453-1.871,8.259c-0.76,3.406-1.111,6.71-1.111,10.175
	c-4.078,1.549-8.245,2.587-12.586,3.025l-0.248,0.029l-0.234-0.205v0.161l-0.146-0.234l-0.395-0.073L676,70.238l0.087,0.161
	l-0.321,0.073l-0.614-0.774l0.541,0.322l-0.146-0.161h-0.073l-2.807-1.622l0.395-0.775l-0.556,0.614l-1.768-0.628l-1.17,0.234
	l-1.944,0.087l0.248-0.234l-0.394,0.234l0.614-0.935l1.33-1.389l1.316-1.33h0.146l0.087,0.088l0.541-0.322v0.395l0.774-0.615
	l-0.862,1.243l-0.219,0.146v-0.073l-0.629,0.774l0.468-0.234v0.073l0.468-0.307h-0.161l1.857-1.17l-0.307,0.702l-0.161,0.161
	l0.468-0.161l0.862-0.775v0.161l0.541-0.542l0.073,0.073l0.395-0.541l-0.322,1.009h0.088l-0.936,1.169l0.087,0.073l1.389-1.242
	l0.307-0.322l0.848-0.687l0.468-0.541l0.395-0.234l-0.161,0.774l-3.304,3.274l1.681-1.651l1.388-1.082l-0.219,0.352l1.374-1.52
	l0.087,0.321l0.234-0.234l0.161,0.541l0.615-1.008h0.072l1.243-0.775l1.623-0.628l0.555-0.146l0.219,0.234l0.322-0.161l-0.088-0.468
	h0.629l-0.161-0.38l-0.38,0.234l0.145-0.161v-0.161l0.161-0.073l-0.161-0.614l-1.169-2.178c-1.462-1.93-3.011-3.728-4.795-5.584
	l-0.468-0.468l-1.388-1.155l-0.394,0.774l-0.38-0.394l-0.161,0.234l-0.161-0.146l-0.336,0.087c1.813-3.683,3.07-7.337,3.713-10.963
	l0.19-1.578c1.023-8.493-1.959-15.904-8.99-22c-7.455-6.446-17.688-9.487-30.478-9.049c-11.884,0.41-34.513,5.409-50.958,37.348
	c25.596-28.446,61.848-29.923,66.043-6.3c0.526,2.952,0.57,6.3,0,10.043c-1.754,9.837-8.946,21.064-21.385,33.416l-0.293,0.292
	c-12.776,12.601-72.578,55.928-72.578,55.928l96.2-3.376l11.388-23.301l0.438-0.235l0.453-1.008l0.394-0.073l-0.146-0.234v-0.395
	l0.219-0.862l0.059-0.117l0.497,0.058l0.541-0.774l0.541-0.936l0.702-1.403l0.234-0.235l0.687-1.388l1.243-1.944l1.169-1.784
	l1.009-1.857l1.315-2.631l0.614-1.008l0.542-1.316l0.467-0.541l0.541-0.936l0.087,0.146l0.073-0.146l0.146-0.307v-0.161h0.161
	l0.235-0.307l0.234-0.234l0.38-0.541l0.234-0.468l0.073-0.146v-0.161l0.248-0.38l0.219-0.248l0.321-0.775l0.146-0.219l0.088,0.072
	l-0.088,0.235l0.088-0.088h0.073v-0.307l0.175-0.336l0.614,0.892l0.848-0.293l0.935,0.439l0.439,0.219l3.479-0.072l0.087,0.219
	c-2.309,1.916-4.516,3.771-6.724,5.525l-1.871,0.819l-0.161,0.511l-0.351-0.073l-0.424,0.366l-0.161,0.891h-0.351l-0.512,0.293
	l-0.161,0.658l-0.424-0.058l-0.263,0.877l-0.249-0.146l0.336,1.257c1.784,4.488,5.102,7.879,10.043,10.233l1.271,0.818l2.12,0.219
	l1.023-0.584l0.161-0.453l1.535-1.477l2.471-0.584l2.134,0.584c1.447,0.38,2.807,0.6,4.327,0.6l-1.023,1.768
	c-2.032,1.477-4.415,2.953-6.797,4.196l-0.176,0.161l0.774-0.073l3.143-1.33c2.134-0.964,4.429-1.988,6.636-2.953l2.12-0.891
	l1.023-0.351l1.198-0.906l0.512-0.95l-2.134-1.769l1.096-0.584l2.982-1.184l2.558-2.061l2.295-1.038l0.424-0.073l1.023-0.585
	l0.176-0.584l-0.263-1.768c-0.76-1.696-1.944-3.173-3.567-4.576c-1.871-1.038-3.829-2.295-5.627-3.538l-1.609-0.145l-3.654-0.235
	l-2.046,0.746v0.731l-1.609,1.184c-2.894,1.33-5.789,2.661-8.844,3.684l-1.287,1.33l-0.511,0.366l-0.936,0.891
	c1.199,0.877,2.734,1.243,4.429,0.95c1.784-0.658,3.567-1.461,5.365-2.28l1.872-0.6l-2.559,2.88
	c-1.447,1.33-2.894,2.661-4.253,4.137l-2.207,1.476l-0.849,1.243c-2.222-1.461-4.253-3.231-5.963-5.072
	c-1.36-1.257-2.12-2.734-2.383-4.575l0.6-1.184c2.471-1.696,5.028-3.084,7.908-4.283c1.958-0.584,3.742-1.316,5.613-2.134
	l2.047-0.877h0.175l2.383-1.038l1.944-0.658h0.176l1.096-0.453l3.494-1.549l1.36-0.439l0.161,0.088l0.775-0.453l0.262,0.073
	l0.088-0.146l0.161,0.073v-0.073h0.176l1.096-0.585l0.176,0.073l0.424-0.307l0.424,0.161l0.775-0.307l0.921-0.95v-0.584l0.087-0.6
	l-0.248-0.146c-1.112-1.315-2.471-2.353-4.167-3.099c-1.695-0.731-3.406-1.535-5.189-2.207v0.146l-0.263-0.073l-0.921,0.307
	l-0.176,0.204l-0.336,0.526l-0.687-0.234l-1.023-0.131l0.263-1.623l0.249-1.477l1.023-0.307l1.447-0.658l0.336-0.146l1.695-0.877
	v0.073l0.176-0.234l0.087,0.161l1.958-1.403v0.293l0.249-0.146v-0.073h0.161l1.038-0.234l1.023-0.658l0.409-0.439l-0.073-0.146
	l2.032-1.403l0.511-0.438l0.336-0.293l0.6-0.292v0.145l0.599-0.526v0.073l-0.263,0.379l0.352-0.072v0.145l1.52-1.549l1.535-0.819
	v-0.073l2.047-1.695L720,58.574 M673.209,80.559l1.315,0.073l1.564-0.935l0.541-0.146l-1.476,2.397l-1.477-0.614l-0.936-0.468
	L673.209,80.559z M668.092,66.365l-0.307,0.307l-0.161,0.394l-0.687,0.774l0.219-0.848h0.087v-0.321l-0.087,0.161l0.087-0.234
	l0.073,0.073l1.008-1.389l0.234-0.146l-0.161,0.453l0.468-0.38l0.161-0.394h0.146L668.092,66.365z M633.083,117.571l-29.251,1.023
	c6.798-5.029,15.422-13.785,32.583-27.482c4.225-3.377,8.113-6.681,11.753-9.94c3.479-3.143,6.695-6.242,9.618-9.282l0.702,2.148
	l0.453,2.178l0.087,0.38l1.082,2.559l0.628,0.701l0.921,1.081l0.936,0.307l0.774-0.145l0.467,0.307l-1.242,2.163l-1.93,1.71
	l-0.863,1.55l0.775,2.953l0.541,1.622l1.71,2.646l1.535,0.146l-1.154,1.944l-0.687,0.307l-0.249,0.774l-0.687,0.234l-0.307,0.541
	l-0.161,1.082l-0.307,0.307v0.234l-0.307-0.146l-0.087,0.38l-0.235,0.161v0.073l-0.219,0.161l-0.088,0.38l0.088,0.394
	c0.541,1.944,1.315,3.64,2.631,5.189l0.234,0.234l0.176,0.278C655.901,111.811,645.581,117.132,633.083,117.571 M689.302,78.834
	c-1.359,0.526-2.894,0.891-4.341,1.271l-3.654,1.477l0.088,0.132l-0.687,0.146l0.175,0.526l-1.287,0.425l1.199,1.709l-0.424-0.072
	l-0.351-0.073l1.345,2.222l-0.087,0.234l-0.308,0.234l-0.789,1.243l-0.234,0.541l-0.073,0.087l-0.073-0.087l-0.146,0.541
	l-0.087-0.073l-0.073,0.235l-0.073-0.161l-0.088,0.307l-0.072-0.073l-0.073,0.38l-0.936,1.33l-0.087-0.087l-0.146,0.234v-0.234
	c-0.848,1.257-1.623,2.412-2.397,3.728l-1.009,1.388h-0.087l0.087,0.088l-0.234,0.073v0.161l-0.701,0.774l-0.336,0.351l0.234-0.468
	c0,0-1.871,2.207-5.219,5.16h-0.79v-0.088l-2.105,0.322l-0.467-0.087l0.161,0.394l-0.394-0.073h-0.073l-1.403-2.807l0.321-0.994
	l0.234-0.628v-0.614l0.38-0.395l1.944-3.332h0.073l-0.073-0.073l1.082-0.395l-0.087,0.161l0.628-0.161h0.467l0.073,0.395v-0.073
	l1.17-0.322l0.307-0.073l-0.073,0.161l0.146-0.234l0.234,0.072l-0.073,0.073l0.307-0.073v0.073l0.395-0.219l-0.088,0.073
	l0.556-0.235v0.073l0.526-0.38l0.087,0.073l0.161-0.161l1.769-1.316l2.017-1.549l0.862-0.541l0.542-0.235l0.145-0.234l0.088,0.234
	l0.073-0.468l-0.073,0.087l-0.161-0.161l0.394-0.935l-0.234,0.161l0.614-0.848l0.234-0.556l-0.234-0.146l-0.307,0.073v-0.468h-0.234
	l0.234-0.219l-0.307-0.249v-0.774l-0.161,0.087l-0.073-0.234l-0.307-0.234h0.145v-0.234l-0.38-0.161l-0.541-1.082l-0.862-0.935
	l0.862-1.316l1.784-2.324l0.293-0.307l0.555-0.468l0.746-1.111l0.307,0.058l1.696,0.146l2.134,0.219
	c2.207-0.219,4.502-0.658,6.636-1.389L689.302,78.834z M707.999,57.608l-1.857,1.784c-1.36,1.243-2.983,2.28-4.517,3.231
	l-0.848,0.439c0.263-2.207,0.774-4.561,1.36-6.929l0.424-1.842c1.871,0.658,3.742,1.33,5.7,2.296L707.999,57.608z"/>
<path d="M679.026,90.63l-0.015,0.015L679.026,90.63z"/>
<polygon points="680.021,89.548 679.874,89.548 679.801,89.783 "/>
<path d="M680.021,89.548l0.087-0.072L680.021,89.548z"/>
<polygon points="669.642,107.221 669.802,107.076 669.495,107.076 "/>
<path d="M678.953,90.717l0.058-0.072L678.953,90.717z"/>
<path d="M673.91,65.444l-1.784,2.237L673.91,65.444z"/>
<path d="M676.79,64.084l-0.483,0.498L676.79,64.084z"/>
<polygon points="671.206,66.525 671.044,66.671 672.74,65.049 "/>
<polygon points="673.062,67.461 673.939,66.467 673.676,66.76 "/>
<polygon points="680.502,88.466 680.575,88.394 680.429,88.539 "/>
<polygon points="293.409,93.802 298.101,99.519 318.054,96.858 325.509,96.288 328.74,95.367 338.007,90.689 330.362,89.797 
	327.834,87.956 315.817,88.043 302.807,87.78 302.749,87.78 290.485,88.73 "/>
<polygon points="330.377,103.771 295.25,106.183 292.94,106.724 277.796,106.008 286.509,112.98 287.386,115.086 294.475,120.976 
	311.753,116.884 326.883,114.691 325.202,117.629 319.311,126.078 314.414,132.495 302.384,142.859 302.15,143.853 288.833,153.939 
	326.62,132.656 324.34,131.252 340.609,116.182 348.751,104.239 338.227,102.163 "/>
<polygon points="347.626,30.171 347.494,31.823 352.742,38.605 363.456,36.252 370.502,36.486 396.566,33.884 412.5,30.917 
	416.782,26.985 417.002,25.669 419.516,22.745 425.538,19.207 436.517,13.901 416.315,16.328 414.268,16.006 400.644,17.512 
	358.604,19.12 352.376,18.842 347.508,18.302 335.873,15.334 344.161,24.411 "/>
<polygon points="436.356,59.363 440.726,50.606 447.304,43.181 425.041,46.207 411.154,47.288 362.828,49.204 342.919,50.563 
	327.365,49.876 324.778,48.984 317.221,48.195 329.471,56.234 332.789,58.588 336.516,62.71 336.618,64.304 341.866,74.229 
	360.855,70.444 363.296,69.347 376.847,67.929 404.635,64.567 402.384,72.226 401.244,74.726 400.367,77.416 395.967,97.486 
	388.073,107.09 374.303,118.302 363.179,126.868 361.337,128.3 349.087,137.861 363.033,130.113 379.901,120.684 391.347,113.185 
	417.089,94.679 418.99,93.598 419.619,88.38 421.957,83.775 438.11,59.641 "/>
<polygon points="138.942,64.858 150.124,63.938 160.181,64.201 171.043,56.921 175.618,52.711 147.245,52.317 143.342,51.396 
	32.524,44.73 30.624,44.978 0,41.631 20.83,59.933 23.037,60.927 30.975,70.545 62.768,69.391 64.713,69.128 88.379,68.294 
	90.791,68.265 90.045,72.709 80.646,100 78.614,104.722 74.96,111.139 46.879,135.522 45.798,135.785 17.556,155.051 
	68.879,127.453 72.299,124.748 87.078,115.89 101.301,106.023 101.681,100.716 115.144,79.959 124.529,66.584 "/>
<polygon points="62.023,27.832 64.157,31.078 82.064,31.794 116.065,33.49 133.036,35.054 134.469,35.58 147.771,36.004 
	141.324,25.436 138.649,20.933 117.117,16.591 113.448,15.203 66.993,8.683 31.618,0 48.779,21.81 "/>
<polygon points="196.463,114.194 192.721,114.296 192.239,114.019 186.625,113.741 179.989,114.238 179.287,114.194 
	172.767,114.559 174.785,108.727 174.755,108.333 179.594,99.007 179.287,97.574 181.275,92.472 180.544,91.829 177.693,91.098 
	154.451,91.332 151.001,91.609 146.046,91.726 142.099,91.215 138.27,90.118 141.354,95.893 141.997,97.398 142.26,99.021 
	143.575,102.733 144.043,103.757 166.131,101.506 163.134,114.516 160.62,114.749 158.734,114.618 146.046,115.933 131.56,117.044 
	131.297,117.264 124.339,117.19 127.613,119.807 128.344,121.094 133.08,127.277 152.068,123.988 173.688,119.617 174.229,119.164 
	178.643,118.404 193.773,116.021 198.933,114.954 202.032,113.799 "/>
<path d="M211.812,48.092l0.877,4.62l46.046-4.005l29.469-1.872l-15.948-4.502l-2.485-2.572l-0.424-0.877l-2.397-2.836l-11.884,0.277
	v0.117c-1.608,0.176-4.605,0.542-5.16,0.615l-11.504-0.366h-13.755l-26.02-1.345l9.268,5.876L211.812,48.092"/>
<polygon points="288.906,61.219 285.85,60.284 278.117,61.381 266.73,62.097 265.356,62.345 221.927,64.362 219.486,63.968 
	196.156,62.842 187.034,61.147 191.653,64.757 198.874,72.256 200.336,72.534 205.409,75.223 210.714,80.53 229.747,79.681 
	231.107,78.922 233.124,78.469 250.3,77.402 259.436,76.919 254.67,86.245 252.799,91.99 251.484,95.235 229.25,115.378 
	229.265,116.051 221.43,121.489 217.103,125.714 200.57,137.451 239.191,114.165 245.666,109.02 253.881,103.144 264.319,95.849 
	296.77,60.298 "/>
<polygon points="450.258,110.393 447.86,110.218 443.373,114.545 441.53,114.954 439.104,118.097 438.914,119.31 430.669,132.335 
	427.965,135.726 443.153,136.734 445.083,135.287 448.942,125.172 449.526,122.102 450.652,118.594 450.184,117.951 
	450.652,113.536 "/>
<polygon points="476.803,113.419 474.976,113.712 474.683,114.136 473.967,114.019 470.619,117.571 469.816,117.878 
	464.568,129.572 463.135,133.066 462.024,134.279 460.402,137.715 469.509,138.138 471.92,138.767 475.707,138.869 477.811,127.189 
	478.469,126.356 478.308,120.466 478.732,111.9 "/>
<path d="M499.388,20.64l7.163-12.132l-3.64,0.833c-0.044,0.029-4.985,2.851-16.299,3.976l-0.161,0.014l-0.146,0.059
	c-1.798,0.716-5.877,1.535-7.616,1.535c-1.52,0-2.427-0.277-2.427-0.292l-1.243-0.41l-1.929,9.443l-4.531,20.114l-4.634,11.212
	l-2.178,11.753l-11.387,32.963l-1.287,1.812l3.464,0.95l2.075,0.234l0.103-0.614l12.513-22.482
	C467.535,79.053,496.011,26.795,499.388,20.64"/>
<path d="M534.207,25.172l0.219-0.145l0.132-0.249c2.938-5.248,7.016-7.133,7.075-7.148l3.756-4.37l-25.961,3.172l-1.739,0.964
	l-6.827-1.608v5.905l-13.448,36.048l-14.53,33.957l-7.908,14.808l2.806,0.087l3.933-0.497l17.614-27.101l22.906-35.799l0.044-0.073
	C524.573,38.825,531.195,27.234,534.207,25.172"/>
<polygon points="169.158,29.557 173.923,27.628 188.541,12.367 197.604,0.614 180.238,0.98 174.376,3.742 167.067,18.711 
	156.556,40.799 "/>
<polygon points="152.244,28.84 153.983,35.814 156.19,29.089 159.158,20.509 161.614,14.53 158.778,11.168 152.638,8.186 
	149.774,14.735 148.984,20.187 149.612,25.025 "/>
<polygon points="580.648,110.817 583.118,108.888 562.404,82.897 562.565,81.392 595.5,55.006 593.614,52.711 560.666,79.126 
	559.876,79.345 559.174,78.936 538.49,53.062 535.903,55.094 556.748,80.792 556.966,81.581 556.586,82.297 523.521,108.785 
	525.276,111.007 558.239,84.593 559.013,84.374 559.73,84.754 "/>
</svg>
