<?xml version="1.0" encoding="utf-8"?>
<!-- Generator: Adobe Illustrator 27.0.1, SVG Export Plug-In . SVG Version: 6.00 Build 0)  -->
<svg version="1.1" id="레이어_1" xmlns="http://www.w3.org/2000/svg" xmlns:xlink="http://www.w3.org/1999/xlink" x="0px"
	 y="0px" viewBox="0 0 720 352.554" enable-background="new 0 0 720 352.554" xml:space="preserve">
<path fill="#E6326E" d="M671.648,246.065v-19.236c2.693-1.337,5.125-3.083,7.26-5.218c4.197-4.197,6.889-9.488,7.799-15.245
	C705.053,206.757,720,191.995,720,173.798c0-17.974-14.613-32.587-32.587-32.587c-17.955,0-32.568,14.613-32.587,32.587l0.019,0.706
	c-8.765,1.411-16.396,6.999-20.406,14.984h-34.147c1.708-0.483,3.287-1.392,4.568-2.673l14.669-14.668l2.433-3.789l3.769-2.413
	l4.883-4.865l0.205-0.241l0.167-0.148l4.735-4.717c1.875-1.894,2.878-4.308,3.026-6.777c2.562-0.148,4.939-1.207,6.759-3.026
	l4.735-4.735c1.838-1.838,2.915-4.252,3.026-6.834c2.6-0.129,5.014-1.207,6.852-3.045l12.923-12.923l0.762-0.855l0.835-0.742
	l4.735-4.735l1.949-2.711l2.73-1.949l5.05-5.069l1.894-2.618c2.655-1.43,4.586-3.138,5.589-4.159
	c8.504-8.504,9.265-19.627,1.876-27.035c-1.523-1.504-3.213-2.675-5.069-3.472l-1.559-1.838c-3.361-3.138-7.41-4.81-11.717-4.81
	c-4.995,0-9.878,2.247-14.111,6.5c-2.525,2.525-4.326,5.384-5.329,8.43c-2.488,0.892-4.828,2.432-6.944,4.549l-8.987,8.987
	l-0.873,1.003l-0.984,0.853l-12.682,12.683l-2.191,3.287l-4.512,3.416l-7.91,7.911l-0.576,0.631
	c-0.854-2.766-2.432-5.422-4.753-7.725c-3.324-3.324-7.892-5.236-12.515-5.236c-1.616,0-3.584,0.223-5.737,0.984V89.276
	c8.857-1.374,17.027-5.515,23.396-11.884c8.022-8.022,12.46-18.697,12.46-30.043c0-11.364-4.438-22.023-12.46-30.062
	c-8.021-8.022-18.698-12.44-30.043-12.44c-11.364,0-22.022,4.419-30.062,12.44c-6.331,6.351-10.454,14.52-11.865,23.359h-50.45
	c-11.122,0-20.722,7.224-24.195,17.325c-2.599-0.874-5.348-1.319-8.133-1.319c-6.61,0-12.812,2.507-17.491,6.908
	c-4.383-4.345-10.38-6.908-16.712-6.908c-5.737,0-11.215,2.099-15.486,5.793c-4.308-3.75-9.748-5.793-15.523-5.793
	c-4.03,0-7.892,1.003-11.29,2.879c-2.971-10.881-12.924-18.884-24.714-18.884c-14.112,0-25.587,11.476-25.587,25.587v36.135
	l-31.584,31.77c-3.64,3.639-6.035,8.188-7,13.127c-14.761,0.892-26.497,13.184-26.497,28.149c0,7.521,2.934,14.614,8.263,19.943
	c5.311,5.329,12.404,8.263,19.942,8.263c14.873,0,27.109-11.605,28.112-26.219c5.051-0.946,9.693-3.378,13.406-7.092l39.068-39.272
	c2.191-2.21,3.937-4.772,5.199-7.558c3.751,2.396,8.115,3.676,12.682,3.676c5.756,0,11.252-2.116,15.504-5.812
	c2.098,1.82,4.494,3.249,7.056,4.234c-1.504,2.543-2.544,5.329-3.083,8.263c-16.024,0.241-28.984,13.369-28.984,29.449
	c0,7.872,3.063,15.262,8.634,20.833c5.552,5.571,12.961,8.635,20.833,8.635c5.552,0,10.732-1.559,15.171-4.234l-1.319,4.42
	c-6.963,3.453-11.976,9.897-13.666,17.361c-1.04-4.698-3.38-9.025-6.87-12.515c-4.828-4.846-11.253-7.501-18.104-7.501
	c-14.112,0-25.587,11.494-25.587,25.605v7.707c-3.955-9.062-12.979-15.43-23.489-15.43c-6.276,0-12.292,2.339-16.934,6.425
	c-4.326-4.086-10.064-6.407-16.192-6.407c-5.515,0-10.751,1.894-14.929,5.329c-4.233-3.453-9.47-5.329-15.003-5.329
	c-4.475,0-8.69,1.244-12.274,3.435c-1.689-12.478-12.422-22.134-25.364-22.134h-39.625l3.231-2.711l61.628-61.609l0.817-0.853
	c4.772,5.143,11.568,8.226,18.735,8.226c14.111,0,25.605-11.476,25.605-25.587V66.232c0-6.833-2.674-13.257-7.501-18.104
	c-4.828-4.828-11.271-7.483-18.104-7.483c-7.204,0-14.019,3.101-18.81,8.282l-0.594-0.632c-4.846-4.939-11.326-7.65-18.253-7.65
	h-80.159c-6.016-5.106-13.574-7.891-21.465-7.891c-18.327,0-33.255,14.91-33.255,33.256c0,18.345,14.929,33.256,33.255,33.256
	c7.613,0,14.947-2.619,20.871-7.428l55.166,0.018v4.606l-54.145,54.126c-4.828,4.828-7.502,11.253-7.502,18.085
	c0,6.852,2.674,13.277,7.502,18.123l3.231,2.692h-0.297c-7.594,0-14.688,3.454-19.478,9.08l-1.392-1.522
	c-4.847-4.865-11.289-7.558-18.141-7.558H30.433c-14.111,0-25.587,11.494-25.587,25.606s11.475,25.587,25.587,25.587h76.111v4.624
	l-37.489,37.507c-17.12,1.505-30.285,15.691-30.285,33.107c0,18.327,14.929,33.256,33.256,33.256
	c17.231,0,31.417-13.035,33.07-29.987l45.157-45.177c1.82-1.819,3.343-3.899,4.531-6.164c4.605,3.843,10.343,5.942,16.396,5.942
	h33.868l-19.107,19.107c-9.952,9.971-9.952,26.2,0.019,36.189c4.828,4.828,11.253,7.483,18.104,7.483
	c6.833,0,13.257-2.655,18.085-7.483l37.879-37.879c4.661-4.66,7.297-10.807,7.483-17.379c3.342,1.745,7.093,2.711,10.993,2.711
	c5.533,0,10.769-1.913,14.966-5.348c3.045,2.507,6.647,4.197,10.528,4.921c-12.552,1.671-22.282,12.459-22.282,25.456
	c0,14.149,11.531,25.662,25.68,25.662c6.555,0,12.719-2.451,17.491-6.908c-0.947,7.576,1.467,15.523,7.297,21.316
	c4.828,4.809,11.234,7.464,18.067,7.464h0.019c6.852-0.018,13.276-2.673,18.104-7.52l40.367-40.46
	c3.491-3.472,5.812-7.798,6.851-12.496c1.04,4.698,3.361,9.005,6.833,12.496l15.56,15.616c2.562,15.523,15.969,27.017,31.863,27.017
	c8.634,0,16.749-3.361,22.858-9.47c6.09-6.109,9.451-14.223,9.451-22.839c0-10.362-4.809-19.553-12.366-25.458
	c3.119,1.096,6.48,1.69,9.971,1.69c5.905,0,11.587-1.69,16.507-4.902h41.314c-8.894,6.684-14.688,17.342-14.688,29.301
	c0,20.201,16.433,36.634,36.617,36.634c20.146,0,36.561-16.376,36.635-36.523l4.735-4.753l37.638,37.637
	c4.846,4.828,11.271,7.483,18.085,7.483c6.833,0,13.276-2.675,18.104-7.501c9.971-9.99,9.971-26.219,0-36.19l-37.619-37.619
	l7.074-7.074C668.919,259.416,671.648,252.806,671.648,246.065 M513.039,202.895c0-4.438-0.705-8.858-2.08-13.091
	c6.202-0.39,11.977-3.008,16.396-7.428l15.857-15.875l14.836,14.836l2.043,1.578l1.559,2.024l6.035,6.035
	c-9.878,3.565-16.971,13.016-16.971,24.102c0,6.109,2.117,11.902,6.034,16.507H516.01c-3.287-2.098-6.926-3.528-10.732-4.234
	C510.291,220.274,513.039,211.77,513.039,202.895z M444.857,163.679c5.014-0.929,9.637-3.361,13.314-7.038l20.592-20.499
	c4.827-4.828,7.483-11.253,7.483-18.085V90.947c2.191,0.594,4.457,0.891,6.74,0.891h47.831v4.624l-49.651,49.707
	c-4.438,4.419-7.037,10.175-7.446,16.358c-4.252-1.393-8.708-2.117-13.183-2.117c-9.879,0-19.07,3.38-26.348,9.154
	C444.597,167.67,444.838,165.703,444.857,163.679z M472.95,279.303l-6.796-6.815v-27.332c1.894,0.204,3.769,0.278,5.608,0.222
	c-1.578,3.714-2.395,7.725-2.414,11.884c0,9.637,4.512,18.234,11.531,23.804C478.373,280.175,475.717,279.582,472.95,279.303z
	 M576.747,275.273c4.827-4.827,7.501-11.252,7.483-18.085c0-6.294-2.266-12.051-6.035-16.507h37.044l-34.797,34.797l-4.011,0.111
	L576.747,275.273z"/>
<path fill="#007CC2" d="M666.822,241.237v-19.236c2.692-1.337,5.124-3.083,7.26-5.218c4.196-4.197,6.888-9.507,7.798-15.245
	c18.327,0.391,33.274-14.39,33.292-32.586c-0.018-17.974-14.631-32.587-32.586-32.587c-17.974,0-32.587,14.631-32.587,32.587v0.705
	c-8.764,1.43-16.396,7-20.406,14.985h-34.147c1.708-0.465,3.287-1.374,4.586-2.673l14.669-14.67l2.414-3.788l3.788-2.414
	l4.865-4.864l0.223-0.223l4.883-4.883c1.875-1.876,2.896-4.308,3.027-6.759c2.562-0.148,4.939-1.225,6.777-3.045l4.716-4.716
	c1.838-1.857,2.915-4.271,3.045-6.852c2.581-0.13,4.995-1.189,6.852-3.045l12.904-12.923l0.762-0.836l0.853-0.76l4.717-4.717
	l1.969-2.711l2.711-1.969l5.068-5.068l1.876-2.619c2.655-1.411,4.586-3.138,5.589-4.14c8.504-8.504,9.284-19.627,1.876-27.035
	c-1.504-1.523-3.213-2.675-5.051-3.492l-1.559-1.838c-3.361-3.137-7.428-4.791-11.716-4.791c-4.996,0-9.878,2.247-14.131,6.5
	c-2.506,2.507-4.308,5.384-5.31,8.411c-2.507,0.91-4.828,2.432-6.963,4.567l-8.987,8.987l-0.873,1.003l-0.966,0.835l-12.682,12.682
	l-2.209,3.287l-4.512,3.435l-7.891,7.892l-0.594,0.649c-0.835-2.786-2.432-5.422-4.734-7.743c-3.324-3.324-7.892-5.218-12.534-5.218
	c-1.597,0-3.583,0.223-5.737,0.966l0.019-15.616c8.838-1.393,17.027-5.515,23.396-11.884c8.022-8.04,12.441-18.697,12.441-30.061
	c0-11.346-4.419-22.023-12.46-30.044C602.538,4.437,591.861,0,580.516,0s-22.022,4.437-30.044,12.459
	C544.123,18.81,540,26.96,538.608,35.817h-50.468c-11.122,0-20.722,7.204-24.176,17.325c-2.618-0.892-5.366-1.337-8.151-1.337
	c-6.61,0-12.793,2.507-17.491,6.926c-4.383-4.363-10.361-6.908-16.693-6.908c-5.737,0-11.234,2.099-15.486,5.793
	c-4.308-3.75-9.767-5.793-15.523-5.793c-4.029,0-7.892,1.003-11.308,2.859c-2.952-10.862-12.905-18.883-24.696-18.883
	c-14.111,0-25.606,11.475-25.606,25.587v36.133l-31.566,31.77c-3.64,3.64-6.054,8.189-7.019,13.128
	c-14.761,0.891-26.497,13.183-26.497,28.149c0,7.539,2.934,14.613,8.263,19.942c5.329,5.33,12.404,8.263,19.942,8.263
	c14.892,0,27.109-11.586,28.131-26.218c5.032-0.928,9.674-3.36,13.406-7.093l39.049-39.272c2.191-2.191,3.955-4.753,5.218-7.539
	c3.751,2.377,8.115,3.658,12.682,3.658c5.737,0,11.233-2.098,15.504-5.793c2.098,1.801,4.475,3.231,7.037,4.234
	c-1.486,2.543-2.544,5.329-3.064,8.244c-16.043,0.261-29.003,13.37-29.003,29.449c0,7.873,3.063,15.282,8.634,20.834
	c5.57,5.57,12.961,8.635,20.833,8.635c5.552,0,10.751-1.541,15.189-4.216l-1.319,4.42c-6.963,3.435-11.976,9.878-13.685,17.361
	c-1.04-4.717-3.361-9.043-6.851-12.533c-4.847-4.828-11.271-7.501-18.123-7.501c-14.112,0.018-25.587,11.493-25.587,25.605v7.705
	c-3.937-9.061-12.979-15.43-23.47-15.43c-6.294,0-12.292,2.34-16.934,6.444c-4.326-4.086-10.064-6.425-16.192-6.425
	c-5.533,0-10.751,1.912-14.947,5.347c-4.215-3.471-9.451-5.347-14.985-5.347c-4.494,0-8.69,1.262-12.274,3.435
	c-1.708-12.478-12.422-22.134-25.364-22.134h-39.625l3.212-2.693l61.647-61.627l0.798-0.835c4.791,5.143,11.568,8.226,18.754,8.226
	c14.111,0,25.587-11.494,25.587-25.606V61.404c0-6.851-2.655-13.276-7.501-18.104c-4.828-4.846-11.253-7.501-18.085-7.501
	c-7.204,0-14.019,3.119-18.81,8.3l-0.613-0.651c-4.846-4.921-11.326-7.632-18.234-7.632h-80.177
	c-6.016-5.106-13.555-7.909-21.446-7.909c-18.345,0-33.256,14.928-33.256,33.274c0,18.327,14.91,33.256,33.256,33.256
	c7.613,0,14.947-2.637,20.871-7.428h55.148v4.624l-54.126,54.108c-4.846,4.827-7.501,11.271-7.501,18.104
	c0,6.833,2.655,13.257,7.501,18.104l3.212,2.693h-0.278c-7.594,0.018-14.706,3.453-19.497,9.08l-1.374-1.523
	c-4.846-4.864-11.289-7.557-18.16-7.557H25.606C11.494,184.66,0,196.136,0,210.248c0,14.111,11.494,25.605,25.606,25.605h76.111
	v4.605l-37.489,37.508c-17.139,1.504-30.285,15.69-30.285,33.107c0,18.345,14.91,33.255,33.256,33.255
	c17.231,0,31.398-13.016,33.051-29.968l45.176-45.195c1.82-1.801,3.342-3.9,4.53-6.164c4.587,3.861,10.324,5.941,16.396,5.96
	l33.85-0.019l-19.107,19.108c-9.952,9.971-9.933,26.218,0.019,36.189c4.847,4.828,11.271,7.483,18.123,7.483
	c6.815,0,13.239-2.655,18.085-7.483l37.861-37.879c4.661-4.642,7.316-10.807,7.483-17.38c3.342,1.765,7.112,2.711,10.993,2.711
	c5.552,0,10.788-1.894,14.966-5.347c3.064,2.506,6.666,4.196,10.547,4.939c-12.552,1.671-22.281,12.44-22.281,25.456
	c0,14.149,11.512,25.662,25.68,25.662c6.555,0,12.719-2.469,17.472-6.926c-0.928,7.594,1.486,15.523,7.297,21.335
	c4.828,4.791,11.253,7.446,18.067,7.446h0.019c6.852,0,13.276-2.673,18.104-7.521l40.386-40.441
	c3.472-3.491,5.793-7.798,6.833-12.496c1.04,4.678,3.361,9.005,6.833,12.496l15.56,15.616c2.562,15.505,15.987,26.998,31.882,26.998
	c8.615,0,16.73-3.36,22.839-9.47c6.09-6.109,9.451-14.204,9.451-22.839c0-10.343-4.809-19.552-12.366-25.438
	c3.138,1.077,6.499,1.672,9.99,1.672c5.905,0,11.568-1.69,16.489-4.883h41.333c-8.913,6.684-14.688,17.324-14.688,29.301
	c0,20.183,16.414,36.616,36.617,36.616c20.146,0,36.542-16.378,36.616-36.523l4.754-4.735l37.638,37.637
	c4.827,4.809,11.252,7.464,18.067,7.464h0.018c6.833,0,13.257-2.655,18.104-7.482c9.972-9.99,9.972-26.237,0-36.208l-37.619-37.619
	l7.056-7.056C664.073,254.569,666.822,247.978,666.822,241.237 M508.212,198.067c0-4.456-0.724-8.876-2.098-13.091
	c6.202-0.409,11.977-3.008,16.396-7.446l15.857-15.857l14.836,14.836l2.043,1.559l1.559,2.042l6.053,6.035
	c-9.897,3.546-16.99,13.016-16.99,24.102c0,6.109,2.135,11.883,6.034,16.507h-40.72c-3.305-2.117-6.944-3.528-10.732-4.234
	C505.464,215.428,508.212,206.942,508.212,198.067z M440.01,158.851c5.032-0.947,9.637-3.361,13.332-7.038l20.574-20.499
	c4.827-4.846,7.483-11.271,7.483-18.104V86.1c2.191,0.594,4.457,0.91,6.759,0.91h47.813v4.624l-49.651,49.707
	c-4.419,4.419-7.019,10.157-7.446,16.339c-4.233-1.392-8.69-2.116-13.165-2.116c-9.897,0-19.088,3.398-26.367,9.154
	C439.751,162.824,439.992,160.856,440.01,158.851z M468.123,274.475l-6.796-6.833v-27.314c1.876,0.204,3.751,0.278,5.608,0.222
	c-1.578,3.696-2.414,7.725-2.414,11.866c0,9.637,4.494,18.234,11.512,23.822C473.527,275.328,470.871,274.734,468.123,274.475z
	 M571.901,270.445c4.846-4.846,7.501-11.271,7.501-18.104c0-6.276-2.284-12.032-6.054-16.507l37.062,0.018l-34.797,34.797
	l-4.029,0.111L571.901,270.445z"/>
<path fill="#FFFFFF" d="M385.792,190.194c-11.513,0-20.852,9.359-20.852,20.853v58.545l-34.314,34.352
	c-8.096,8.151-8.077,21.39,0.056,29.505c3.937,3.918,9.172,6.072,14.725,6.072h0.019c5.589,0,10.825-2.192,14.761-6.128
	l40.367-40.46c3.918-3.918,6.09-9.154,6.09-14.706v-67.179c0-5.57-2.173-10.807-6.109-14.743
	C396.598,192.366,391.362,190.194,385.792,190.194"/>
<path fill="#FFFFFF" d="M324.572,295.494c5.57,0,10.806-2.154,14.725-6.072l12.162-12.088c3.936-3.936,6.109-9.172,6.109-14.742
	v-33.665c0-11.493-9.358-20.852-20.852-20.852c-7.056,0-13.295,3.528-17.083,8.912c-3.361-5.329-9.284-8.894-16.043-8.894
	c-6.072,0-11.475,2.879-14.948,7.354l-1.578-1.82c-3.584-3.565-8.337-5.534-13.406-5.534c-10.454,0-18.958,8.504-18.958,18.94v5.18
	l-3.231-3.973l-2.247-1.838l1.541-1.411c3.955-3.936,6.109-9.173,6.109-14.743c0-11.494-9.358-20.852-20.852-20.852h-69.668
	c-8.931,0-16.544,5.645-19.515,13.554c-1.002-2.711-2.581-5.218-4.679-7.371l-0.037-0.037c-3.955-3.955-9.21-6.146-14.799-6.146
	H25.606c-11.512,0-20.852,9.358-20.852,20.852S14.112,231.1,25.606,231.1h80.846v11.326l-40.145,40.163
	c-15.3,0.483-27.629,13.053-27.629,28.484c0,15.727,12.793,28.521,28.52,28.521c15.319,0,27.834-12.163,28.465-27.332l46.402-46.44
	c3.361-3.342,5.459-7.798,5.979-12.478c0.947,1.727,2.135,3.324,3.565,4.754c3.936,3.936,9.172,6.109,14.743,6.109h45.288
	l-27.184,27.184c-8.114,8.133-8.114,21.372,0.019,29.505c3.937,3.918,9.172,6.09,14.743,6.09h0.019
	c5.552,0,10.788-2.153,14.725-6.09l34.481-34.481l0.111-0.129l3.287-3.268c3.937-3.936,6.109-9.173,6.109-14.743v-9.692
	c3.398,5.05,9.172,8.374,15.709,8.374c6.09,0,11.493-2.897,14.966-7.372c3.472,4.475,8.894,7.372,14.966,7.372l1.634-0.075
	c-1.151,2.859-1.616,5.924-1.448,8.969l-1.225-0.056c-11.531,0-20.927,9.395-20.927,20.945c0,11.53,9.396,20.926,20.927,20.926
	h0.018c5.59,0,10.844-2.191,14.799-6.146c3.955-3.954,6.127-9.191,6.127-14.78l-0.074-1.282L324.572,295.494 M148.174,233.142
	V220.46l3.435,4.531l2.098,1.82C151.46,228.519,149.567,230.672,148.174,233.142z"/>
<path fill="#FFFFFF" d="M682.586,196.804c15.337,0,27.833-12.496,27.833-27.852c0-15.355-12.496-27.852-27.833-27.852
	c-15.356,0-27.852,12.497-27.852,27.852c0,1.765,0.185,3.472,0.501,5.144l-0.817-0.056c-10.008,0-18.512,6.425-21.706,15.355h-46.81
	l2.191-2.191c2.228-2.228,2.228-5.831,0-8.04l-1.745-1.765l0.52-0.538l1.764,1.765l4.011,1.652l4.029-1.652l14.669-14.688
	l1.652-4.549l4.549-1.634l4.902-4.902l0.148-0.186l0.205-0.168l4.734-4.735c2.21-2.209,2.21-5.812,0-8.04l-0.613-0.613l1.467-2.042
	l0.891,0.892l4.029,1.671l4.011-1.652l4.735-4.735l1.652-4.011l-1.652-4.029l-0.613-0.613l1.523-2.153l0.928,0.928l4.029,1.652
	l4.011-1.652l12.923-12.923l0.724-0.892l0.873-0.706l4.735-4.734l1.578-3.083l3.101-1.597l5.051-5.051l1.486-2.729
	c2.859-1.189,4.995-3.045,5.997-4.048c6.629-6.629,7.39-14.799,1.875-20.332c-1.485-1.468-3.194-2.469-5.05-2.99l-1.467-2.21
	c-2.469-2.302-5.385-3.528-8.467-3.528c-3.714,0-7.446,1.765-10.77,5.107c-2.73,2.729-4.308,5.849-4.735,8.95
	c-2.116,0.297-4.809,1.3-7.538,4.029l-9.006,9.005l-0.798,1.04l-1.04,0.799l-12.682,12.682l-1.597,3.305
	c-1.634,0.631-3.379,1.672-5.106,3.398l-7.91,7.892l-1.578,3.267c-1.616,0.631-3.342,1.672-5.032,3.361l-4.642,4.642l-0.205-0.186
	c4.828-5.793,4.679-12.923-0.576-18.16c-2.432-2.45-5.774-3.843-9.172-3.843c-2.451,0-6.127,0.742-9.674,4.27l-2.618,2.618
	c1.188-2.636,1.82-5.515,1.82-8.485V80.178c9.377-0.465,18.122-4.29,24.788-10.974c7.13-7.131,11.067-16.619,11.067-26.702
	c0-10.082-3.937-19.57-11.067-26.701c-7.13-7.13-16.618-11.048-26.701-11.048s-19.571,3.918-26.701,11.048
	c-6.851,6.87-10.472,15.746-10.936,24.752h-54.739c-11.029,0-20.053,8.635-20.778,19.496c-3.305-2.209-7.279-3.509-11.55-3.509
	c-7.427,0-13.926,3.918-17.621,9.767c-3.249-5.812-9.451-9.749-16.563-9.749c-6.406,0-12.069,3.194-15.504,8.077l-2.098-2.525
	c-3.584-3.584-8.337-5.552-13.407-5.552c-6.201,0-11.697,2.99-15.151,7.594v-2.748c0-11.512-9.358-20.87-20.852-20.87
	c-11.512,0-20.871,9.358-20.871,20.852v38.084l-32.958,33.181c-3.899,3.899-6.053,9.098-6.09,14.613l-2.562-0.148
	c-12.942,0-23.47,10.528-23.47,23.452c0,6.276,2.451,12.162,6.889,16.6c4.419,4.42,10.324,6.87,16.582,6.87
	c12.942,0,23.452-10.527,23.452-23.47l-0.112-2.321h0.074c5.571,0,10.807-2.173,14.762-6.109l39.068-39.291
	c3.509-3.528,5.589-8.077,5.997-12.979l1.82,2.153c3.584,3.584,8.356,5.552,13.407,5.552h0.018c6.406,0,12.07-3.212,15.505-8.077
	c3.435,4.865,9.098,8.077,15.504,8.077l0.26-0.018l-1.374,1.374c-3.937,3.936-6.109,9.173-6.109,14.743l0.019,0.39l-3.862-0.334
	c-13.629,0-24.714,11.085-24.714,24.714c0,6.611,2.562,12.812,7.223,17.492c4.679,4.66,10.881,7.242,17.491,7.242
	c13.629,0,24.715-11.086,24.715-24.733l-0.334-3.918l0.316,0.019c5.57,0,10.807-2.173,14.725-6.09l20.574-20.499
	c3.937-3.937,6.109-9.173,6.109-14.743V78.804c3.305,2.191,7.242,3.472,11.494,3.472l52.566-0.018v11.326l-51.063,51.1
	c-3.937,3.936-6.109,9.172-6.109,14.743c0,2.023,0.297,3.992,0.854,5.867c-5.533-3.156-11.903-4.995-18.699-4.995
	c-18.568,0-34.017,13.499-37.136,31.175c-7.984,2.934-13.703,10.584-13.703,19.571v67.179c0,5.552,2.154,10.77,6.072,14.725
	l16.674,16.73c1.541,13.758,13.239,24.491,27.407,24.491c7.353,0,14.279-2.878,19.496-8.077c5.199-5.218,8.059-12.143,8.059-19.496
	c0-14.854-11.828-26.98-26.553-27.518l-9.451-9.47v-34.946c2.934,0.724,5.979,1.151,9.118,1.151h0.018
	c3.918,0,7.706-0.594,11.271-1.726c-4.753,4.678-7.724,11.159-7.724,18.327c0,14.168,11.512,25.68,25.68,25.68
	c5.478,0,10.677-1.727,15.021-4.883l43.858-0.019c5.571,0,10.807-2.153,14.743-6.109c3.937-3.936,6.109-9.173,6.109-14.743
	c0-11.494-9.358-20.852-20.852-20.852h-44.081c-4.178-2.972-9.284-4.735-14.818-4.735c-1.856,0-3.658,0.204-5.403,0.576
	c8.504-6.926,13.945-17.473,13.945-29.263c0-6.778-1.801-13.128-4.958-18.625c1.912,0.558,3.88,0.855,5.905,0.855h0.019
	c5.57,0,10.807-2.173,14.743-6.109l20.592-20.63l-0.037,0.409l1.671,4.011l15.17,15.169l2.247,1.355l1.355,2.247l12.626,12.644
	h-1.318c-11.494,0-20.852,9.359-20.852,20.853c0,5.57,2.154,10.806,6.109,14.742c3.937,3.937,9.172,6.11,14.743,6.11h48.89v1.504
	l-42.911,42.911l-2.766-0.148c-17.584,0-31.882,14.298-31.882,31.882c0,17.565,14.297,31.881,31.882,31.881
	c17.565,0,31.863-14.298,31.881-31.881l-0.093-1.765l9.582-9.581l40.98,40.979c3.937,3.918,9.172,6.09,14.725,6.09h0.018
	c5.57,0,10.807-2.173,14.743-6.109c8.133-8.133,8.133-21.372,0-29.487l-40.961-40.979l10.398-10.417
	c3.881-3.88,6.109-9.247,6.109-14.743v-22.374c3.212-1.133,6.183-2.952,8.652-5.441c4.363-4.363,6.759-10.157,6.759-16.303
	l-0.037-0.817c1.652,0.316,3.38,0.501,5.125,0.501H682.586"/>
<path fill="#FFFFFF" d="M141.527,89.684c7.353,0,14.056-2.822,19.125-7.427l61.646,0.018v11.308l-55.537,55.519
	c-3.937,3.937-6.109,9.173-6.109,14.743c0,5.57,2.172,10.807,6.109,14.761c3.937,3.918,9.173,6.09,14.743,6.09h0.019
	c5.57,0,10.788-2.173,14.743-6.109l61.628-61.609c1.708-1.708,3.082-3.732,4.103-5.905c3.361,7.019,10.51,11.902,18.81,11.902
	c11.494-0.018,20.852-9.377,20.852-20.871V61.405c0-5.571-2.173-10.807-6.109-14.763c-3.937-3.936-9.172-6.109-14.743-6.109
	c-8.319,0-15.467,4.902-18.828,11.939c-0.984-2.08-2.303-4.011-3.955-5.701h-0.019c-3.937-4.011-9.229-6.221-14.854-6.221h-81.979
	c-5.125-4.883-12.032-7.891-19.645-7.891c-15.728,0-28.521,12.794-28.521,28.521C113.006,76.891,125.799,89.684,141.527,89.684"/>
<path fill="#EB7AAB" d="M671.78,335.378c-3.399,0-6.796-1.299-9.396-3.88l-50.821-50.821c-5.18-5.18-5.18-13.592,0-18.772
	c5.18-5.18,13.592-5.18,18.772,0l50.821,50.821c5.182,5.18,5.182,13.592,0,18.772C678.575,334.097,675.158,335.378,671.78,335.378"
	/>
<path fill="#007CC2" d="M229.874,74.681H153.67c-7.316,0-13.258-5.941-13.258-13.276s5.942-13.277,13.258-13.257h89.48
	c3.713-0.019,7.055,1.504,9.469,3.955L229.874,74.681"/>
<path fill="#2CA6E0" d="M252.621,52.102c2.339,2.396,3.806,5.682,3.806,9.303v40.831c0,3.51-1.411,6.889-3.899,9.377L198.42,165.74
	l-0.241,0.204l-7.279,7.297c-2.6,2.581-5.997,3.88-9.396,3.88c-3.398,0-6.796-1.3-9.377-3.88c-5.18-5.18-5.18-13.592,0-18.773
	l41.389-41.407l0.26-0.222l16.099-16.099v-22.06L252.621,52.102"/>
<path fill="#2CA6E0" d="M345.406,331.943c-3.38,0-6.778-1.299-9.359-3.88c-5.199-5.162-5.217-13.573-0.037-18.772l36.505-36.561
	v-61.684c0-7.334,5.942-13.276,13.276-13.276c7.316,0,13.276,5.942,13.258,13.276v67.181c0,3.509-1.374,6.87-3.862,9.358
	l-40.386,40.46C352.22,330.625,348.822,331.925,345.406,331.943"/>
<path fill="#007CC2" d="M453.696,309.532c-3.398,0-6.815-1.299-9.396-3.899l-17.992-18.048c-2.469-2.489-3.862-5.849-3.862-9.359
	v-67.179c0-7.335,5.942-13.277,13.276-13.277s13.276,5.942,13.276,13.277v61.683l14.093,14.168c5.18,5.2,5.162,13.592-0.019,18.773
	C460.473,308.251,457.093,309.532,453.696,309.532"/>
<path fill="#007CC2" d="M553.815,265.618h-50.209c-7.335,0-13.276-5.941-13.276-13.276c0-7.316,5.941-13.277,13.276-13.277h50.209
	c7.316,0,13.258,5.961,13.258,13.277C567.073,259.677,561.131,265.618,553.815,265.618"/>
<path fill="#EB7AAB" d="M136.755,200.907c-2.414-2.432-5.738-3.936-9.433-3.936H25.606c-7.334,0-13.276,5.942-13.276,13.277
	c0,7.334,5.942,13.276,13.276,13.276h88.422L136.755,200.907"/>
<path fill="#E6326E" d="M136.755,200.907l0.037,0.037c2.358,2.396,3.806,5.682,3.806,9.303v40.813c0,3.528-1.392,6.908-3.88,9.395
	l-51.935,51.953c-2.6,2.582-5.997,3.882-9.414,3.882c-3.379,0.018-6.777-1.282-9.376-3.882c-5.181-5.18-5.181-13.573,0-18.772
	l48.035-48.073v-22.041"/>
<path fill="#007CC2" d="M280.807,115.383c-7.335,0-13.277-5.941-13.277-13.276V61.405c0-7.334,5.942-13.276,13.277-13.276
	c7.316,0,13.258,5.942,13.258,13.276l0.019,40.702C294.083,109.442,288.141,115.383,280.807,115.383"/>
<path fill="#E6326E" d="M354.616,48.128c-7.335,0-13.277,5.942-13.277,13.259v41.221l-35.187,35.391c-5.18,5.2-5.18,13.592,0,18.772
	c2.6,2.6,5.997,3.9,9.396,3.9c3.379,0,6.796-1.3,9.376-3.9l39.068-39.29c2.488-2.489,3.881-5.849,3.881-9.377V61.405
	C367.873,54.07,361.931,48.128,354.616,48.128"/>
<path fill="#EB7AAB" d="M273.658,259.36c-6.276,0-11.382-5.087-11.382-11.364l0.018-20.963c0-6.276,5.088-11.364,11.364-11.364
	c6.294,0,11.382,5.087,11.382,11.382v20.945C285.04,254.272,279.953,259.36,273.658,259.36"/>
<path fill="#007CC2" d="M303.59,259.379c-6.276-0.018-11.364-5.106-11.364-11.382v-20.945c0-6.294,5.088-11.382,11.364-11.382
	c6.294,0,11.382,5.087,11.382,11.382v20.945C314.972,254.274,309.885,259.379,303.59,259.379"/>
<path fill="#E6326E" d="M324.572,287.918c-3.398,0-6.796-1.299-9.396-3.88c-5.18-5.199-5.162-13.592,0.019-18.772l8.244-8.17
	v-28.167c0-7.335,5.941-13.277,13.276-13.277c7.334,0,13.276,5.942,13.276,13.277v33.664c0,3.528-1.411,6.888-3.899,9.377
	l-12.144,12.069C331.368,286.619,327.97,287.918,324.572,287.918"/>
<path fill="#E6326E" d="M236.021,223.523h-69.668c-7.316,0-13.276-5.941-13.276-13.276c0-7.335,5.942-13.277,13.276-13.277h69.668
	c7.334,0,13.276,5.942,13.276,13.277C249.297,217.583,243.355,223.523,236.021,223.523"/>
<path fill="#007CC2" d="M246.233,233.736c-2.377-2.264-5.589-3.657-9.136-3.657h-70.745c-7.335,0-13.277,5.942-13.277,13.276
	c0,7.317,5.942,13.277,13.277,13.277h57.469L246.233,233.736"/>
<path fill="#2CA6E0" d="M246.233,233.736c2.544,2.433,4.122,5.831,4.122,9.618v24.919c0,3.509-1.393,6.888-3.881,9.377l-3.398,3.398
	v0.018l-34.481,34.463c-2.581,2.581-5.979,3.88-9.377,3.88c-3.398,0-6.796-1.3-9.396-3.88c-5.18-5.2-5.162-13.592,0-18.772
	l33.999-33.998v-6.128L246.233,233.736"/>
<path fill="#007CC2" d="M570.973,52.046c-2.396-2.413-5.719-3.918-9.396-3.899h-73.419c-7.334-0.019-13.276,5.923-13.276,13.257
	s5.942,13.277,13.276,13.277h60.143L570.973,52.046"/>
<path fill="#2CA6E0" d="M548.301,74.681v22.041l-53.272,53.328c-5.18,5.18-5.18,13.592,0,18.754c2.6,2.6,5.979,3.9,9.396,3.9
	c3.379,0,6.796-1.3,9.377-3.882l57.171-57.209c2.488-2.488,3.881-5.867,3.881-9.377V61.405c0-3.658-1.486-6.963-3.881-9.359
	L548.301,74.681"/>
<path fill="#2CA6E0" d="M650.612,200.871c-2.396-2.413-5.719-3.899-9.396-3.899h-69.742c-7.334,0-13.276,5.942-13.276,13.276
	c0,7.335,5.942,13.277,13.276,13.277h56.466L650.612,200.871"/>
<path fill="#007CC2" d="M654.492,210.248c0-3.657-1.486-6.981-3.881-9.376l-6.833,6.815l-0.018-0.019l-13.277,13.313l-2.544,2.544
	l0.019,12.218l-66.994,66.975c-5.18,5.18-5.18,13.592,0,18.772c2.581,2.6,5.997,3.9,9.377,3.9c3.398,0,6.796-1.3,9.396-3.9
	l70.875-70.875c2.488-2.488,3.881-5.867,3.881-9.377V210.248"/>
<path fill="#E6326E" d="M465.71,167.894c-16.674,0-30.173,13.5-30.173,30.173c0,16.656,13.499,30.173,30.173,30.173
	c16.674,0,30.173-13.517,30.173-30.173C495.883,181.394,482.383,167.894,465.71,167.894 M465.71,211.417
	c-7.372,0-13.351-5.978-13.351-13.35c0-7.371,5.979-13.35,13.351-13.35c7.371,0,13.35,5.979,13.35,13.35
	C479.06,205.439,473.081,211.417,465.71,211.417z"/>
<path fill="#007CC2" d="M390.62,109.979c-6.295,0.019-11.382-5.087-11.382-11.364V75.517c0-6.276,5.087-11.364,11.382-11.364
	c6.276-0.019,11.364,5.087,11.364,11.364v23.098C401.983,104.892,396.895,109.998,390.62,109.979"/>
<path fill="#2CA6E0" d="M421.629,109.997c-6.295,0-11.382-5.106-11.382-11.382V75.516c0-6.275,5.087-11.364,11.382-11.364
	c6.276,0,11.382,5.089,11.382,11.364l-0.018,23.099C432.992,104.892,427.904,109.997,421.629,109.997"/>
<path fill="#EB7AAB" d="M435.257,146.948c-3.398,0-6.796-1.281-9.396-3.88c-5.18-5.18-5.162-13.592,0.019-18.772l16.656-16.582
	V77.41c0-7.334,5.941-13.276,13.276-13.276c7.334,0,13.276,5.923,13.276,13.276v35.8c0,3.528-1.412,6.908-3.899,9.395
	l-20.555,20.462C442.053,145.667,438.655,146.948,435.257,146.948"/>
<path fill="#EB7AAB" d="M654.418,181.634c-8.56,0-15.486,6.927-15.486,15.487c0,8.541,6.926,15.486,15.486,15.486
	c8.541,0,15.485-6.945,15.467-15.486C669.903,188.561,662.959,181.634,654.418,181.634"/>
<path fill="#E6326E" d="M682.586,148.694c-11.197,0-20.258,9.08-20.277,20.258c0.019,11.197,9.08,20.258,20.277,20.258
	c11.178,0,20.257-9.061,20.257-20.258C702.843,157.774,693.782,148.694,682.586,148.694"/>
<polyline fill="#E6326E" points="545.423,153.967 557.269,142.122 561.15,146.002 554.038,153.132 555.913,155.026 562.022,148.899 
	565.643,152.52 559.516,158.629 565.309,164.403 560.593,169.138 545.423,153.967 "/>
<polyline fill="#2CA6E0" points="558.885,140.487 563.601,135.771 574.891,147.042 581.668,140.264 585.567,144.164 
	574.055,155.657 558.885,140.487 "/>
<polyline fill="#EB7AAB" points="572.365,127.024 577.081,122.29 592.251,137.46 587.535,142.176 572.365,127.024 "/>
<path fill="#007CC2" d="M579.347,120.026l7.91-7.892c4.159-4.159,8.634-2.599,10.807-0.426c3.676,3.676,2.915,7.872-0.613,11.4
	l-2.786,2.786l4.568,4.587l-4.716,4.716L579.347,120.026 M591.064,122.29l1.82-1.819l0.873-4.141l-3.695,0.762l-2.098,2.117
	L591.064,122.29z"/>
<polyline fill="#2CA6E0" points="564.195,172.74 576.041,160.894 579.922,164.775 572.792,171.904 574.685,173.798 580.795,167.671 
	584.416,171.273 578.306,177.401 584.081,183.175 579.346,187.892 564.195,172.74 "/>
<polyline fill="#007CC2" points="577.49,159.427 582.206,154.711 593.477,165.982 600.254,159.204 604.153,163.104 592.641,174.597 
	577.49,159.427 "/>
<path fill="#007CC2" d="M593.068,143.866l4.605-4.623l20.741,9.581l-4.883,4.902l-2.804-1.522l-4.883,4.864l1.486,2.859
	l-4.754,4.735L593.068,143.866 M606.53,149.919l-6.035-3.305l-0.037,0.037l3.176,6.146L606.53,149.919z"/>
<path fill="#E6326E" d="M603.616,133.301l7.891-7.892c4.159-4.159,8.634-2.599,10.825-0.426c3.676,3.676,2.897,7.891-0.613,11.4
	l-2.785,2.786l4.568,4.587l-4.716,4.716L603.616,133.301 M615.314,135.566l1.838-1.819l0.873-4.141l-3.695,0.762l-2.098,2.117
	L615.314,135.566z"/>
<path fill="#2CA6E0" d="M618.136,118.781l7.891-7.892c4.178-4.159,8.653-2.599,10.825-0.445c3.676,3.696,2.915,7.891-0.613,11.419
	l-2.785,2.786l4.568,4.587l-4.716,4.716L618.136,118.781 M629.834,121.046l1.838-1.819l0.873-4.141l-3.695,0.762l-2.098,2.117
	L629.834,121.046z"/>
<polyline fill="#EB7AAB" points="632.749,104.167 645.431,91.486 649.312,95.385 641.346,103.351 643.24,105.226 650.481,98.003 
	654.084,101.606 646.842,108.847 648.736,110.722 656.943,102.534 660.824,106.415 647.919,119.338 632.749,104.167 "/>
<path fill="#007CC2" d="M647.269,89.647l8.987-8.987c3.008-3.008,6.425-3.584,9.934-0.074c1.763,1.763,3.528,3.75,1.875,6.572
	l8.839,3.195l-5.069,5.068l-7.705-2.859l-2.247,2.247l5.273,5.291l-4.716,4.717L647.269,89.647 M658.615,91.559l2.469-2.469
	l0.575-3.584c-0.947-0.946-2.042-0.984-3.844,0.817l-2.209,2.21L658.615,91.559z"/>
<path fill="#2CA6E0" d="M676.905,80.158l1.17,0.817l3.36-1.132l0.576-3.324c-0.798-0.817-1.67-0.352-5.05,1.559
	c-3.101,1.727-6.537,3.844-9.581,0.799c-3.51-3.51-1.987-8.059,1.15-11.197c3.324-3.342,7.521-5.032,11.346-1.448l-4.456,4.457
	l-1.765-0.631l-1.783,0.984l-0.667,2.729c1.132,1.04,3.583-0.966,6.35-2.525c2.766-1.578,5.905-2.729,8.69,0.056
	c3.936,3.937,1.541,8.876-1.876,12.293c-1.745,1.745-7.297,6.071-12.181,1.281L676.905,80.158"/>
<path fill="#EB7AAB" d="M308.01,170.567c0,8.765-7.112,15.895-15.876,15.877c-8.764,0-15.876-7.112-15.876-15.877
	c0-8.764,7.112-15.856,15.876-15.875C300.897,154.692,308.01,161.803,308.01,170.567"/>
<path fill="#EB7AAB" d="M315.901,296.738c0,7.354-5.979,13.332-13.332,13.332c-7.39,0-13.369-5.978-13.369-13.332
	c0.019-7.389,5.979-13.35,13.35-13.35C309.922,283.369,315.901,289.348,315.901,296.738"/>
<path fill="#2CA6E0" d="M513.021,252.416c0,9.99-8.096,18.087-18.086,18.087c-10.008,0-18.085-8.096-18.085-18.087
	c0-9.989,8.078-18.085,18.085-18.085C504.926,234.331,513.021,242.427,513.021,252.416"/>
<path fill="#EB7AAB" d="M484.983,306.597c0.018,11.031-8.932,19.998-19.98,19.98c-11.029,0-19.979-8.95-19.979-19.98
	c0-11.029,8.95-19.979,19.979-19.979C476.052,286.618,484.983,295.568,484.983,306.597"/>
<path fill="#007CC2" d="M67.199,290.127c11.549,0,20.926,9.396,20.926,20.946c0,11.568-9.377,20.925-20.926,20.925
	c-11.568,0-20.945-9.358-20.945-20.925C46.253,299.523,55.63,290.146,67.199,290.127"/>
<path fill="#E6326E" d="M162.454,61.182c0,11.55-9.377,20.927-20.927,20.927c-11.568,0-20.945-9.377-20.945-20.927
	c0-11.568,9.377-20.945,20.945-20.945C153.077,40.237,162.454,49.614,162.454,61.182"/>
<path fill="#2CA6E0" d="M427.7,158.442c0,9.47-7.669,17.139-17.139,17.139c-9.47,0-17.139-7.669-17.139-17.139
	c0-9.451,7.669-17.12,17.139-17.12C420.031,141.322,427.7,148.991,427.7,158.442"/>
<path fill="#E6326E" d="M574.686,282.96c-13.425,0-24.287,10.863-24.287,24.288c0,13.406,10.862,24.287,24.287,24.287
	c13.425,0,24.287-10.881,24.287-24.287C598.973,293.823,588.111,282.96,574.686,282.96"/>
<path fill="#EB7AAB" d="M559.181,21.168c-11.791,11.791-11.772,30.898,0,42.669c11.791,11.791,30.898,11.791,42.67,0
	c11.791-11.772,11.791-30.878,0-42.669C590.06,9.395,570.972,9.377,559.181,21.168 M589.968,51.953c-5.218,5.2-13.667,5.2-18.884,0
	c-5.217-5.217-5.217-13.665,0-18.883c5.218-5.218,13.667-5.218,18.866,0C595.167,38.288,595.167,46.737,589.968,51.953z"/>
</svg>
