<?xml version="1.0" encoding="utf-8"?>
<!-- Generator: Adobe Illustrator 27.0.1, SVG Export Plug-In . SVG Version: 6.00 Build 0)  -->
<svg version="1.1" id="레이어_1" xmlns="http://www.w3.org/2000/svg" xmlns:xlink="http://www.w3.org/1999/xlink" x="0px"
	 y="0px" viewBox="0 0 720 441.238" enable-background="new 0 0 720 441.238" xml:space="preserve">
<path fill="#E9528E" d="M691.128,406.02c-0.521-1.748-1.265-3.757-1.767-6.343c-0.242-1.246-0.67-4.427-0.949-7.235
	c-0.335-2.958-0.465-5.376-0.465-5.376s1.562-4.427,2.66-8.054c1.135-3.683,2.474-8.24,2.604-9.152l-0.242-1.283l-1.042-0.093
	l-0.819,0.224l-1.414,1.358l-0.372,0.855l-1.097,2.399l-0.725,1.395c0,0-0.112-3.907-0.056-6.678
	c0.056-2.771,0.223-10.193,0.391-13.504c0.167-3.311,0.242-5.301,0.242-5.301s0.353-1.433,0.744-3.553
	c0.391-2.139,0.893-5.059,1.414-9.765c0.521-4.669,1.228-15.513,1.507-18.638c0.261-3.106,0.372-5.747-0.13-8.277l-0.837-3.869
	c-0.576-2.176-1.395-4.13-1.581-4.446l-0.725-0.67l-7.291-2.027c0,0-2.604-4.762-3.832-7.273c-1.246-2.511-2.399-5.059-3.255-7.44
	c-0.819-2.344-1.953-5.673-2.753-8.407c-0.744-2.697-1.99-7.701-2.548-10.919c-0.577-3.218-1.432-7.756-1.432-7.756l1.004-2.269
	c0.428-1.581,0.391-3.98,0.242-6.082c-0.149-2.139-0.391-6.082-0.725-9.356c-0.372-3.274-0.911-4.911-1.153-5.655l-1.172-2.976
	l0.279-0.297l1.265-0.391l2.139-1.767l0.521-1.209l0.632-1.935l1.972-0.167l1.023-0.855l0.893-2.232l-0.465-2.846
	c-0.446-1.079-2.288-5.934-3.832-8.705c-1.544-2.809-2.976-4.892-4.352-6.863c-1.414-1.972-1.749-2.195-1.99-2.958
	c-0.335-1.097-2.009-4.78-2.511-6.677c-0.502-1.86-0.837-5.413-1.321-9.133c-0.465-3.683-1.209-9.226-1.693-13.374
	c-0.911-7.719-3.72-17.392-3.72-17.392l0.576-0.818l-0.186-0.912l-2.176-5.487l-0.837-0.688h-0.614c0,0-0.521-0.465-1.228-2.697
	c-1.023-3.255-0.855-5.711-0.855-5.711l0.669-0.521l-0.019-1.004l-1.153-6.436l-0.893-0.484l-0.614,0.074
	c0,0-0.521-3.106-0.986-5.599c-0.428-2.493-1.079-5.543-1.153-5.711l-0.409-0.465l0.428-0.577l-0.335-4.631l1.377,1.377l1.302-0.13
	l2.883-1.972l1.953-1.748l0.242-1.153l0.149-5.264l-0.223-0.912l2.995-4.036l0.056-0.725l-3.497-7.571l-0.428-0.056l-0.837-0.037
	l-0.874-0.167l-0.763,0.019l-5.264,1.841l-0.484,0.335l-1.134,0.056l-3.144,0.707l-0.595-2.065l-1.47-2.753l-0.521-0.744
	c0,0-1.097-2.679-4.631-4.018c-3.515-1.339-6.324,0.223-6.324,0.223l-1.451-0.651l-3.051-0.781l-0.019-3.664l-0.986-1.265
	l-3.906-0.521l-1.377,0.316l-0.186-0.967l-0.167-1.786l1.786-3.087l1.507,0.595l0.335,0.484l2.307-0.354
	c0.744-0.223,5.208-1.19,9.003-2.195c3.794-0.985,6.845-2.455,7.515-2.883l1.376-1.488l1.6-3.534c0.856-2.065,1.637-4.26,1.637-4.26
	l1.19,0.874l0.576-0.316l-0.26-1.451l-0.874-1.6c0,0,0.837-3.441,1.283-6.975c0.446-3.553,0.614-5.431,0.353-6.863l-1.321-2.399
	l-4.669-3.813c0,0,0.298-1.935,0.335-5.431c0.056-3.46-0.428-6.269-1.953-10.416c-1.507-4.13-3.423-7.031-7.087-10.026
	c-3.683-2.995-8.742-5.952-15.68-7.18c-6.92-1.209-12.165-1.246-16.536-0.223c-4.352,1.023-8.947,2.66-12.704,5.785
	c-3.776,3.106-6.231,6.492-7.664,8.556c-1.376,1.898-2.548,3.776-2.548,3.776l-2.399,0.093l-1.451,0.428l-1.953,0.484l-0.912,0.558
	l-0.316,1.32c-0.037,0.242-0.13,3.404-0.223,6.473c-0.074,2.939-0.186,5.654-0.186,5.654l-3.274,6.175v1.116l2.548-0.837
	l3.423-2.233l1.153,0.428c0,0-0.056,3.051,0.093,5.469c0.167,2.474,0.428,3.627,0.54,3.72l0.558-0.111l0.707-0.484l0.688,3.478
	l0.428,2.195l-8.612,2.734l-2.827-3.776l-2.009-1.042c0,0-1.786-2.864-3.59-5.989c-2.604-4.446-5.524-9.784-5.524-9.784l2.92-1.023
	l1.507-1.395l-0.316-1.767l-1.637-2.734l-1.823-0.502l-4.092,1.265l-1.302-1.098l-1.637-0.781l-1.544-2.604
	c-0.54-0.67-3.069-2.66-5.99-0.8c-1.395,0.874-2.809,2.939-2.381,4.65c0.446,1.823,1.544,3.534,1.544,3.534l0.409,3.181
	c0.539,1.32,2.418,4.761,4.241,7.979c1.823,3.218,7.868,14.434,7.868,14.434l0.056,2.009l0.502,1.823l-3.553,1.358l-0.874,0.484
	l-1.972,2.753l0.149,0.949l2.79,7.626l0.725,1.544l1.004,2.028l-5.115,7.385l-2.158,0.241l-0.93,0.651l-6.436,9.04l0.149,0.8
	l3.59,3.125l1.153,0.8l1.265,0.818l0.874-0.353l2.269-3.218l2.586,2.102l0.874,0.111l0.595-0.334l1.841,2.158l0.651,0.018
	l-0.446,1.321l-0.837,7.18l0.409,0.837l1.284,1.116l-2.958,5.747l-2.325,1.47l-1.321,2.586l-0.223,2.028l-0.093,0.8l-0.037,1.19
	l0.205,0.297l-0.205,0.725l-0.167,1.358l-1.674,0.204l-2.065-0.149l-0.595,0.484l-3.236,6.733l-0.391,1.247l-1.116,10.9
	l-1.023,0.669l-0.855,1.786c-0.149,0.819-0.391,9.133-0.242,13.857c0.167,4.706,0.372,5.804,0.502,6.175l0.428,0.967l0.744,0.372
	l2.66,1.097l0.614,3.162l0.614,0.744l1.73,1.563l0.67,0.056l0.874-0.446l2.586,1.265l-0.279,1.06l-0.223,1.692l-0.372,6.232
	l0.074,1.135l0.335,0.818l-0.279,1.247l-1.06,4.148c-0.558,2.548-0.651,2.976-0.874,4.427l-0.521,3.013l0.762,0.577l1.86-1.562
	l1.507-3.907l0.651-1.339l0.112,0.967l-0.93,7.663l1.042,0.856c0.558-0.167,1.655-1.079,2.009-2.883
	c0.353-1.767,0.967-6.436,1.321-8.129c0.335-1.73,0.818-2.529,0.818-2.529l0.372,1.06l-0.353,5.581c0,0-1.116,2.678-3.088,8.184
	c-1.191,3.218-3.125,8.389-4.52,12.443c-1.302,3.795-3.2,9.691-4.185,13.356c-0.986,3.627-3.869,15.718-4.892,19.903
	c-0.967,4.203-1.879,7.998-1.99,8.519l0.465,0.837l2.902-0.372l1.692-0.819l2.028-1.06c0,0-3.088,11.123-4.074,14.453l-0.818,2.864
	h41.498c0,0,2.306-8.594,3.218-12.239c0.93-3.59,1.377-5.432,1.786-6.175l0.874-1.935l-0.223-1.023l-0.633-0.614
	c0,0,0.763-0.427,3.2-4.836c2.418-4.371,5.171-11.7,6.25-15.792c1.06-4.111,2.213-11.7,2.418-12.5l1.488-2.864l1.153-3.032
	l0.205-1.748c0,0,0.558,0.725,2.362,1.097c1.786,0.391,3.869,0.819,6.362,0.819s3.664-0.316,3.962-0.484l0.8-0.912l0.949-0.427
	l0.837-0.725l0.837-0.242l0.707-0.465c0,0,1.172,5.58,2.214,9.412s3.627,13.43,5.971,18.656c2.344,5.227,8.37,18.713,8.37,18.713
	l-0.074,0.242l0.372,0.539l-0.149,0.558l-1.618-0.409l-0.986-0.149l-0.614,0.167l-0.781-0.911l-0.986-0.279l-1.172,0.837v1.023
	c0.056,0.409,0.26,2.176,0.855,3.906c0.558,1.711,1.042,3.46,2.642,5.878c1.581,2.474,3.013,4.129,3.013,4.129
	s0.167,3.869,0.577,7.533c0.391,3.683,0.707,6.994,0.819,7.291l0.614,0.391l3.292-0.391l0.595-0.427l0.54-1.06l0.446,0.093
	l0.391,3.497l0.577,0.577l1.823-2.809l0.744-1.432c0,0,0.465,1.079,2.176,5.952c1.656,4.873,2.586,7.943,4.892,11.477
	c2.307,3.571,4.65,5.561,5.748,7.217c1.098,1.655,3.33,4.929,4.39,7.142c1.098,2.214,2.474,4.539,3.553,7.794
	c1.097,3.237,2.976,9.747,4.408,14.415c1.451,4.669,4.613,16.778,5.952,22.972c1.321,6.157,2.176,10.268,2.362,13.076
	c0.205,2.79,0.465,5.115,0.465,5.115l-1.377,4.65l0.056,0.651l0.223,0.297l-0.576,2.046l-0.763,0.111l-0.558,0.744
	c-0.149,0.261-3.422,9.3-4.631,13.244c-1.19,3.98-2.046,7.589-2.716,10.156c-0.651,2.604-1.172,5.115-1.172,5.115l-2.027,1.47
	l-4.818,2.846l-2.697,3.069l-0.335,2.679l0.335,2.028l0.112,2.827l0.558,3.349l1.172,0.949c0.651,0.391,2.455,0.8,5.301,1.19
	c2.827,0.372,6.12,0.223,9.226,0.037c3.069-0.204,5.803-0.725,6.213-0.874l1.618-1.655l2.958-3.999
	c1.06-1.618,2.344-3.962,3.999-6.101c1.618-2.158,3.143-3.999,4.52-5.227l3.962-3.404l1.302-1.6l0.855-2.511l0.372-1.953
	l-0.242-0.465l0.242-2.213C691.983,409.889,691.611,407.768,691.128,406.02 M561.071,207.996l-6.529-5.785l0.13-2.344l4.855,2.269
	l1.302-0.13l1.432-0.893l1.358,0.707L561.071,207.996z M579.04,122.935l-0.186,0.595v0.316c0,0-0.093,0.707-0.093,2.567
	c0,1.86-0.019,4.836-0.298,7.235c-0.186,1.302-0.558,3.85-0.874,5.897c-0.298,1.748-0.558,3.274-0.558,3.274l-0.595,0.074
	l-0.316,0.391l-1.767,3.237l-0.316,0.819c-0.186,0.521-1.767,7.235-2.604,10.584c-0.837,3.329-1.507,5.934-1.507,5.934l-1.153,0.688
	l-2.734,7.887l0.502,1.377l-1.879,3.367l-1.432,2.697l-2.381,2.493l-1.134-1.414l5.487-6.826l0.26-1.098l-0.149-3.032l-0.409-0.595
	l-0.037-2.901l0.261-0.744l-0.223-2.046l0.13-0.781c-0.019-0.409-0.781-4.297-1.153-6.566c-0.353-2.213-0.893-4.725-0.893-4.911
	l-0.614-0.93l-1.116-1.135l-0.632-3.013l-0.428-3.292l0.316-0.521v-0.781l-0.353-0.112l-0.279-4.185l-0.409-0.614l-0.763-0.353
	l-0.409-1.563l-0.465-0.465l-1.451-0.521l-0.372-0.018l-0.577-1.34l0.54-0.669l1.395,0.316l0.558-0.558l2.623-3.274l0.205-1.005
	l10.063-14.174l1.841,0.986l-0.595,2.827l0.725,0.651l5.58,1.935l0.298,0.037l0.93,2.753L579.04,122.935 M582.481,81.679
	l-1.098,0.688l-0.26-0.446l-1.302-1.991l4.408-1.451l0.335-1.413l-1.749-4.929l-0.576-1.73l2.381,2.363l1.004,0.093l0.205-0.595
	l0.874,0.651l0.372,7.943L582.481,81.679 M595.855,76.861l-0.707-0.205l-0.558-0.056l-0.335-0.335l-0.8-0.446l-0.409-1.247
	l-0.614-0.316l-1.916-0.409l-0.744-1.86l-0.781-0.465l-1.432-0.223l-0.502-1.953c0,0,3.088,2.325,4.873,3.423
	c1.786,1.116,3.999,2.623,3.999,2.623L595.855,76.861z M612.447,71.411l-0.372,0.093l0.056-1.86l0.577,0.149L612.447,71.411z
	 M631.457,164.713l-1.451-2.102l-1.116-0.242c0,0-1.339-2.455-2.697-5.171c-1.544-3.218-3.143-6.733-3.404-7.087l-1.134-0.744
	l-1.47-0.446c0,0-1.06-2.921-1.916-5.487c-0.577-1.73-1.004-3.255-1.153-3.943c-0.372-1.749-0.261-2.809-0.186-3.888l0.316-4.018
	l4.65-2.251l1.042-0.8l1.172-1.153l0.298-1.042l0.335-2.381l0.446-1.618l1.767-1.06c0,0,0.744,1.86,1.562,5.376l1.377,5.301
	c0.595,1.86,1.265,3.33,1.265,3.33l-0.279,0.8c0.093,0.261,0.912,2.697,1.618,4.688c0.688,2.046,2.195,6.287,2.604,8.389
	c0.353,2.12,0.893,7.143,1.507,9.43c0.633,2.269,1.972,6.213,1.972,6.213L631.457,164.713z M651.75,202.249l-4.018-3.59
	l-0.874-0.298l-1.023,0.521l-0.707,0.502l-3.776,3.162l-1.414-3.609l1.358,0.8l1.097,0.167l3.199-1.897l2.511-1.879l0.26-0.893
	l-0.763-3.348l0.893-1.637c0,0,1.098,2.418,1.786,4.706c0.558,1.86,1.191,3.367,1.377,4.929L651.75,202.249 M658.055,217.39
	l1.786,4.111l-0.279,0.111l-0.837-0.019l-0.781,0.707l-0.372-3.72L658.055,217.39 M662.445,270.104
	c-0.651-2.548-1.153-4.78-1.637-6.212l-1.153-3.832l0.409-1.005l-0.409-0.8l-0.893-2.102l-0.744-1.73l-0.595-1.879l-0.539-1.488
	l-0.242-1.172l-0.856-0.54l-0.26-0.26l-0.242-1.991c0,0,1.879-1.488,2.492-3.999c0.595-2.493,0.261-4.873,0.093-7.273
	s-0.186-4.985-0.186-4.985s1.711,4.501,2.846,8.965c1.097,4.501,1.451,6.957,1.637,10.008c0.205,3.032,0.335,5.989,0.335,5.989
	l-0.707,3.013l0.298,1.99l1.042,0.186c0,0,0.316,2.586,0.297,4.501c-0.018,1.953,0.112,3.385,0.298,5.338
	c0.298,3.088,0.651,5.822,0.651,5.822S663.58,274.569,662.445,270.104 M669.439,293.671c0,0-0.8-1.042-1.414-2.976l-1.06-3.59
	l-0.205-1.209l0.819,1.191c0.837,1.711,1.953,4.203,1.953,4.203l0.186,2.269L669.439,293.671z"/>
<polygon fill="#E9528E" points="171.296,406.965 135.806,406.965 135.415,408.918 161.177,408.918 140.996,439.125 154.258,439.125 
	"/>
<polygon fill="#E9528E" points="452.142,416.155 445.352,416.155 444.162,417.569 443.381,423.931 444.181,425.103 451.212,425.103 
	452.29,423.931 453.072,417.569 "/>
<polygon fill="#E9528E" points="243.756,419.608 242.974,419.608 222.625,419.608 221.397,419.05 215.724,419.05 215.371,420.408 
	216.933,421.84 220.04,421.84 220.616,421.84 241.151,421.84 242.249,422.528 247.978,422.528 248.387,420.966 246.899,419.608 "/>
<polygon fill="#E9528E" points="332.836,419.608 331.609,419.05 325.936,419.05 325.582,420.408 327.145,421.84 330.232,421.84 
	330.828,421.84 351.381,421.84 352.46,422.528 358.189,422.528 358.598,420.966 357.129,419.608 "/>
<polygon fill="#E9528E" points="529.48,419.608 528.699,419.608 508.349,419.608 507.122,419.05 501.449,419.05 501.095,420.408 
	502.658,421.84 505.764,421.84 506.341,421.84 526.894,421.84 527.973,422.528 533.702,422.528 534.111,420.966 532.623,419.608 "/>
<polygon fill="#E9528E" points="201.759,418.499 187.418,436.561 180.926,436.561 187.938,404.493 181.41,404.493 166.808,438.533 
	193.407,438.533 209.032,418.499 "/>
<polygon fill="#E9528E" points="323.146,406.294 323.052,406.294 289.738,406.294 289.106,408.247 315.835,408.247 306.684,419.705 
	307.837,412.135 301.438,412.135 299.336,425.88 287.841,439.031 301.066,439.031 305.642,426.55 306.405,421.677 317.807,421.677 
	"/>
<polygon fill="#E9528E" points="386.068,423.732 388.133,436.604 371.169,436.604 385.324,406.471 378.739,406.471 355.749,438.575 
	393.973,438.575 394.624,423.769 "/>
<polygon fill="#E9528E" points="274.772,423.732 276.837,436.604 259.892,436.604 274.028,406.471 267.444,406.471 244.453,438.575 
	282.678,438.575 283.347,423.769 "/>
<polygon fill="#E9528E" points="424.332,438.571 425.094,430.35 422.583,424.937 411.609,438.534 398.83,438.534 416.798,423.84 
	427.085,409.331 406.512,409.331 407.145,407.36 435.864,407.36 435.232,409.331 423.476,423.858 428.48,423.858 431.846,430.201 
	433.576,438.571 "/>
<polygon fill="#E9528E" points="432.507,405.838 433.586,399.254 435.501,399.254 434.385,405.838 "/>
<polygon fill="#E9528E" points="437.111,399.262 435.994,405.847 439.212,405.847 439.826,402.22 438.133,399.262 "/>
<polygon fill="#E9528E" points="479.063,411.524 482.541,403.116 475.882,403.116 472.31,411.524 461.299,411.524 460.89,413.477 
	471.455,413.477 457.746,439.109 467.698,439.109 478.263,413.477 486.707,413.477 487.191,427.13 481.574,436.617 472.385,436.617 
	471.883,438.57 490.223,438.57 491.488,427.502 493.274,411.524 "/>
<polygon fill="#E9528E" points="487.509,409.544 488.848,401.714 490.764,401.714 489.388,409.544 "/>
<polygon fill="#E9528E" points="492.386,401.715 490.991,409.547 494.209,409.547 495.046,404.933 493.186,401.715 "/>
<polygon fill="#E9528E" points="547.162,408.562 544.018,423.332 533.137,439.124 545.023,439.124 550.696,423.667 553.133,408.562 
	"/>
<polygon fill="#E9528E" points="572.303,421.933 562.407,436.553 560.305,436.553 565.141,404.504 558.966,404.504 553.72,438.543 
	567.782,438.543 580.599,421.933 "/>
<path d="M124.441,265.534c-1.228-1.432-2.976-3.571-5.264-6.399c-2.307-2.864-5.543-6.901-9.728-12.109
	c-4.185-5.226-9.579-12.127-16.22-20.665c7.905-1.413,14.136-4.111,18.731-8.11c4.594-3.999,6.938-9.244,7.031-15.773
	c0.037-6.287-2.176-11.012-6.622-14.192c-4.464-3.181-11.514-4.78-21.168-4.78H64.602v85.563l2.716-0.186l2.679-0.037l2.716,0.037
	l2.809,0.186v-81.043c4.036-0.13,6.789-0.204,8.24-0.279l2.362-0.093c3.869-0.019,7.31,0.316,10.305,1.042
	c2.976,0.744,5.431,2.065,7.347,3.999c1.395,1.395,2.437,3.013,3.144,4.911c0.67,1.86,1.023,3.999,1.023,6.361
	c0.093,5.506-1.972,10.026-6.157,13.523c-4.185,3.478-10.919,5.283-20.2,5.431l-3.404-0.149v4.557h2.102
	c3.776,4.39,7.105,8.371,10.063,11.979c2.957,3.571,5.673,6.975,8.128,10.118c2.455,3.181,4.873,6.38,7.217,9.617
	c2.307,3.218,4.836,6.567,7.533,10.026l3.683-0.186l3.497-0.037l3.423,0.037l3.683,0.186L124.441,265.534"/>
<path d="M214.264,268.946h-78.942l39.471-88.875L214.264,268.946z M174.793,203.954l-24.851,55.988h49.72L174.793,203.954z"/>
<polygon fill="#E9528E" points="174.793,223.537 162.368,251.531 187.219,251.531 "/>
<path d="M310.538,222.391c-2.102-14.88-3.813-27.864-5.115-38.894h-3.144c-4.929,9.858-10.621,20.795-17.001,32.849
	c-4.036,7.57-7.98,14.713-11.849,21.484h0.019l-1.618,2.827l-0.539,0.93l-0.521-0.93l-1.637-2.827h0.019
	c-3.869-6.771-7.794-13.914-11.83-21.484c-6.399-12.053-12.072-22.99-17.02-32.849h-3.125c-1.321,11.03-3.013,24.013-5.134,38.894
	c-2.102,14.918-4.408,30.487-6.957,46.707h11.96l5.822-52.454l-0.019-0.056l0.632-5.711c3.962,7.366,18.898,36.607,21.614,42.075
	l-0.019,0.037h0.037h12.37h0.037l-0.019-0.019c2.716-5.487,17.633-34.709,21.595-42.056l0.633,5.692l-0.019,0.037l5.841,52.454
	h11.96C314.946,252.878,312.64,237.309,310.538,222.391"/>
<path d="M382.716,265.153l0.186-1.748l0.316-1.916c-5.245,0.614-11.421,1.005-18.47,1.265c-7.031,0.261-14.397,0.391-22.079,0.391
	v-73.827c9.859-0.056,17.875,0.037,24.088,0.261c6.194,0.186,11.384,0.632,15.532,1.339l-0.316-2.065l-0.112-1.674l0.112-1.711
	l0.316-1.971h-50.148v85.34h51.078l-0.316-1.991L382.716,265.153"/>
<path d="M366.85,226.351c0.949,0,2.437,0.075,4.427,0.224c1.972,0.149,4.501,0.26,7.589,0.391l-0.279-1.693l-0.13-1.655l0.13-1.711
	l0.279-1.618c-2.939,0.167-5.357,0.297-7.291,0.447c-1.935,0.149-3.609,0.223-5.004,0.223h-21.223v5.394H366.85z"/>
<path d="M34.28,226.351c0.986,0,2.492,0.075,4.52,0.224c2.009,0.149,4.594,0.26,7.738,0.391l-0.279-1.693l-0.149-1.655l0.149-1.711
	l0.279-1.618c-2.976,0.167-5.487,0.297-7.459,0.447c-1.972,0.149-3.664,0.223-5.097,0.223H12.238v5.394H34.28z"/>
<path d="M34.17,189.568c6.324,0.205,11.625,0.633,15.848,1.34l-0.298-2.046l-0.13-1.693l0.13-1.711l0.298-1.953H0v85.564
	l3.311-0.186l3.181-0.037l-0.298,0.037l3.385,0.186v-42.707h0.019v-5.413H9.579v-31.64C19.642,189.252,27.845,189.345,34.17,189.568
	"/>
<path d="M203.429,374.231c-1.228-1.432-2.995-3.571-5.264-6.417c-2.307-2.846-5.543-6.883-9.728-12.109
	c-4.185-5.227-9.579-12.109-16.22-20.666c7.905-1.413,14.136-4.092,18.731-8.091c4.594-3.999,6.938-9.244,7.031-15.773
	c0.037-6.287-2.176-11.012-6.64-14.211c-4.446-3.181-11.495-4.78-21.149-4.78H143.59v85.582l2.716-0.186l2.66-0.056l2.734,0.056
	l2.809,0.186v-81.043c4.036-0.13,6.789-0.223,8.24-0.279l2.344-0.093c3.888-0.019,7.329,0.297,10.323,1.023
	c2.976,0.763,5.431,2.083,7.347,3.999c1.395,1.414,2.437,3.032,3.125,4.929c0.688,1.86,1.042,3.98,1.042,6.361
	c0.093,5.506-1.972,10.026-6.157,13.504c-4.204,3.497-10.919,5.301-20.2,5.431l-3.404-0.149v4.576h2.102
	c3.776,4.371,7.105,8.371,10.063,11.979c2.957,3.571,5.673,6.975,8.128,10.118c2.455,3.181,4.873,6.362,7.217,9.598
	c2.307,3.236,4.836,6.585,7.533,10.044l3.683-0.186l3.497-0.056l3.423,0.056l3.683,0.186L203.429,374.231"/>
<path d="M132.341,377.79H53.399l39.471-88.875L132.341,377.79z M92.87,312.798l-24.869,56.007h49.738L92.87,312.798z"/>
<polygon fill="#E9528E" points="92.87,332.398 80.445,360.392 105.295,360.392 "/>
<path d="M301.338,331.091c-2.102-14.899-3.813-27.864-5.115-38.912h-3.143c-4.929,9.858-10.621,20.814-17.001,32.849
	c-4.036,7.589-7.98,14.732-11.849,21.484l0.019,0.019l-1.637,2.809l-0.521,0.93l-0.521-0.93l-1.637-2.809l0.019-0.019
	c-3.869-6.752-7.812-13.895-11.83-21.484c-6.399-12.035-12.072-22.99-17.02-32.849h-3.125c-1.321,11.049-3.013,24.013-5.134,38.912
	c-2.102,14.9-4.408,30.468-6.957,46.707h11.942l5.841-52.473l-0.019-0.037l0.614-5.711c3.962,7.366,18.898,36.607,21.633,42.075
	l-0.019,0.019h0.019l0.019,0.019v-0.019h12.351l0.019,0.019v-0.019h0.019v-0.019c2.716-5.468,17.633-34.69,21.595-42.056
	l0.633,5.711l-0.019,0.018l5.822,52.473h11.96C305.746,361.559,303.44,345.99,301.338,331.091"/>
<path d="M359.739,298.539c2.586,1.916,4.613,4.558,6.082,7.999h1.116c0.372-1.358,0.837-2.995,1.451-4.966
	c0.577-1.972,1.228-3.683,1.916-5.208c-1.507-1.544-3.832-2.921-6.975-4.111c-3.162-1.19-6.826-1.823-11.049-1.916l-1.358,0.037
	v5.32C354.363,295.842,357.339,296.773,359.739,298.539"/>
<path d="M346.205,374.213c-5.19-0.111-9.319-1.45-12.407-3.999c-3.088-2.585-5.673-5.599-7.775-9.059h-1.153
	c-0.186,1.488-0.502,3.274-0.911,5.413c-0.428,2.102-0.911,4.055-1.469,5.747c2.306,2.232,5.357,3.906,9.244,5.134
	c3.888,1.19,7.664,1.823,11.346,1.86c1.804-0.019,3.516-0.167,5.208-0.391v-4.855L346.205,374.213"/>
<path d="M367.585,336.466c-3.943-3.181-8.519-5.636-13.653-7.421c-5.152-1.823-9.654-3.943-13.541-6.436
	c-3.888-2.493-5.915-6.492-6.101-11.979c0.186-4.929,1.841-8.668,5.022-11.198c2.678-2.139,5.673-3.385,8.966-3.701v-5.19
	c-5.785,0.558-10.881,2.418-15.253,5.581c-5.338,3.869-8.147,9.97-8.408,18.321c0.167,6.882,2.214,11.886,6.12,15.048
	c3.906,3.181,8.407,5.617,13.467,7.329c5.115,1.711,9.598,3.888,13.504,6.473c3.906,2.604,5.989,6.771,6.231,12.593
	c-0.093,5.227-1.786,9.58-5.041,13.002c-2.195,2.325-4.873,3.869-7.98,4.669v4.911c5.431-1.135,10.1-3.367,14.044-6.771
	c5.729-4.985,8.687-11.83,8.891-20.591C373.611,344.501,371.509,339.609,367.585,336.466"/>
<path fill="#E9528E" d="M587.724,374.231c-1.209-1.432-2.976-3.571-5.264-6.417c-2.307-2.846-5.524-6.883-9.728-12.109
	c-4.185-5.227-9.579-12.109-16.22-20.666c7.905-1.413,14.155-4.092,18.731-8.091c4.613-3.999,6.938-9.244,7.05-15.773
	c0.019-6.287-2.195-11.012-6.64-14.211c-4.464-3.181-11.514-4.78-21.168-4.78h-26.599v85.582l2.734-0.186l2.66-0.056l2.716,0.056
	l2.809,0.186v-81.043c4.036-0.13,6.789-0.223,8.24-0.279l2.362-0.093c3.888-0.019,7.31,0.297,10.305,1.023
	c2.995,0.763,5.45,2.083,7.347,3.999c1.395,1.414,2.437,3.032,3.144,4.929c0.67,1.86,1.023,3.98,1.023,6.361
	c0.093,5.506-1.953,10.026-6.157,13.504c-4.185,3.497-10.919,5.301-20.2,5.431l-3.404-0.149v4.576h2.121
	c3.757,4.371,7.105,8.371,10.044,11.979c2.957,3.571,5.673,6.975,8.128,10.118c2.474,3.181,4.874,6.362,7.217,9.598
	c2.325,3.236,4.836,6.585,7.533,10.044l3.683-0.186l3.497-0.056l3.441,0.056l3.664,0.186L587.724,374.231"/>
<rect x="502.756" y="292.179" fill="#E9528E" width="10.695" height="85.619"/>
<path fill="#E9528E" d="M473.568,292.345c-5.599-1.283-11.625-1.934-18.08-2.008c-14.806,0.093-26.636,3.943-35.528,11.607
	c-8.891,7.645-13.467,18.712-13.709,33.221c0.205,14.825,4.483,25.837,12.872,33.166c8.37,7.273,19.568,10.956,33.612,10.993
	c6.436-0.093,12.648-0.632,18.545-1.656l1.897-0.372v-5.636c-1.934,0.837-4.092,1.525-6.473,2.046
	c-3.441,0.762-6.975,1.153-10.621,1.153c-13.318-0.297-22.935-4.241-28.887-11.811c-5.952-7.589-8.872-17.094-8.742-28.478
	c0.13-12.574,3.478-22.284,9.951-29.166c6.492-6.901,15.215-10.379,26.208-10.454c5.19,0,10.23,0.986,15.085,2.976
	c3.72,1.525,7.18,3.683,10.379,6.473l6.901-6.901C483.556,295.34,479.092,293.611,473.568,292.345"/>
<path fill="#E9528E" d="M486.41,338.32h-10.491l-0.093-0.018h-0.13v0.018h-2.511h-17.503v6.827h17.503h2.511h0.13v31.64
	c4.036-0.874,7.663-1.879,10.807-3.051v-35.434L486.41,338.32"/>
<polygon fill="#E9528E" points="609.759,371.834 609.759,292.186 607.025,292.464 604.234,292.632 601.556,292.464 598.84,292.186 
	598.84,377.544 609.796,377.544 609.796,371.834 "/>
<path fill="#E9528E" d="M654.871,375.594l-0.13-1.6l0.13-1.841l0.26-1.971c-3.571,0.539-8.24,0.93-13.969,1.228
	c-5.171,0.26-19.94,0.391-28.738,0.427v5.692h42.707L654.871,375.594"/>
<polygon fill="#E9528E" points="705.741,426.911 701.965,426.911 701.965,438.48 700.588,438.48 700.588,426.911 696.831,426.911 
	696.831,425.739 705.741,425.739 "/>
<path fill="#E9528E" d="M720,438.48h-1.377l-0.316-5.747c-0.093-1.823-0.242-4.185-0.223-5.487h-0.037
	c-0.409,1.432-0.93,3.013-1.562,4.78l-2.288,6.399h-1.004l-2.12-6.269c-0.632-1.823-1.116-3.441-1.469-4.91h-0.056
	c-0.018,1.543-0.13,3.664-0.242,5.617l-0.353,5.617h-1.321l0.893-12.778h1.711l2.232,6.492l1.302,4.278h0.037l1.321-4.278
	l2.325-6.492h1.748L720,438.48z"/>
</svg>
