<?xml version="1.0" encoding="utf-8"?>
<!-- Generator: Adobe Illustrator 27.0.1, SVG Export Plug-In . SVG Version: 6.00 Build 0)  -->
<svg version="1.1" id="레이어_1" xmlns="http://www.w3.org/2000/svg" xmlns:xlink="http://www.w3.org/1999/xlink" x="0px"
	 y="0px" viewBox="0 0 720 231.813" enable-background="new 0 0 720 231.813" xml:space="preserve">
<path d="M642.499,113.167l39.676-39.676h-90.689v7.406h72.829l-82.089,82.077l5.24,5.227l48.12-48.12
	c26.369,0.195,47.77,21.7,47.77,48.12h7.406C690.762,140.056,669.698,116.734,642.499,113.167"/>
<path d="M675.103,67.125c7.497,0,13.567-6.083,13.567-13.58s-6.07-13.567-13.567-13.567c-7.497,0-13.58,6.07-13.58,13.567
	S667.606,67.125,675.103,67.125"/>
<path d="M429.406,161.617c13.074,0,23.684-10.596,23.684-23.67c0-13.088-10.61-23.671-23.684-23.671
	c-13.074,0-23.684,10.584-23.684,23.671C405.722,151.021,416.332,161.617,429.406,161.617"/>
<path d="M706.42,39.982c-7.497,0-13.567,6.07-13.567,13.567s6.07,13.58,13.567,13.58c7.497,0,13.58-6.083,13.58-13.58
	S713.917,39.982,706.42,39.982"/>
<polygon points="467.399,119.235 472.626,114.009 440.005,81.375 434.765,86.602 445.582,97.42 383.804,97.42 429.227,51.984 
	424,46.757 385.659,85.098 367.565,67.017 394.894,39.675 447.476,32.671 446.503,25.343 340.496,39.468 341.469,46.796 
	382.819,41.284 362.325,61.776 354.829,54.267 349.588,59.507 380.419,90.338 373.35,97.42 317.954,97.42 317.954,104.826 
	386.035,104.826 386.035,200.391 393.428,200.391 393.428,104.826 452.988,104.826 "/>
<rect x="80.934" y="103.523" transform="matrix(0.7071 -0.7071 0.7071 0.7071 -46.9691 101.0456)" width="35.108" height="7.392"/>
<polygon points="112.499,107.216 59.1,160.615 64.327,165.855 97.427,132.755 97.427,207.879 104.833,207.879 104.833,125.336 
	117.726,112.443 "/>
<path d="M478.298,87.253l0.026,0.051l0.817,0.883l0.104,0.401l0.091,0.104l0.986,0.636l0.078,0.026l1.025,0.142h0.026l0.065-0.013
	l0.999-0.325l0.078-0.039l0.713-0.61l0.052-0.065l0.363-0.648l0.013-0.052l0.194-1.128l-0.013-0.104l-0.324-0.882l-0.039-0.078
	l-2.127-2.257l-3.813-3.632l-0.104-0.051l-1.037-0.13h-0.078l-1.025,0.35l-0.065,0.039l-0.778,0.674l-0.039,0.039l-0.272,0.467
	l-0.039,0.065l-0.182,1.66l0.052,0.169l0.519,0.481l0.207,0.61l0.039,0.09l1.531,1.414l1.388,0.792l0.259,0.234L478.298,87.253z
	 M476.975,83.491l-0.078-0.064l-0.467-0.169l-0.661-0.908l-0.065-0.376l0.661-0.545l0.558-0.025l1.816,1.868l2.879,2.893l0.376,0.7
	l-0.039,0.376l-0.791,0.442l-0.428-0.104l-1.115-1.297l-0.96-0.908L476.975,83.491z"/>
<path d="M489.691,41.995l0.156,0.052l0.259,0.506v0.051l-0.013,0.298l0.065,0.142l0.065,0.065l0.052,0.039l0.35,0.143l0.078,0.064
	l0.013,0.13l0.052,0.117l0.96,1.077l0.117,0.065l0.22,0.039l2.114,2.361l0.091,0.09l0.558,0.778l0.065,0.065l0.921,0.48l0.091,0.013
	h0.013l1.634-0.039l0.129-0.052l1.129-1.051l0.065-0.078l0.182-0.519l0.013-0.065l0.039-1.076l-0.013-0.091l-0.298-0.869
	l-0.052-0.091l-1.738-1.66l-0.091-0.324l-0.052-0.091l-3.359-3.346l-0.052-0.039l-0.674-0.325l-0.065-0.026l-1.401-0.194h-0.026
	l-0.078,0.013l-0.726,0.311l-0.13,0.117l-0.091,0.363l-0.324,0.117l-0.143,0.234l0.078,0.104l-0.311,0.325l-0.065,0.155l0.065,1.427
	L489.691,41.995z M491.079,40.387l0.999,0.04l0.635,0.22l0.324,0.545v0.234l0.065,0.156l0.22,0.22l0.169,0.052h0.065l1.712,1.491
	l1.932,2.101l0.065,0.778l-0.506,0.545l-0.389-0.013l-0.584,0.091l-0.013-0.234l-0.065-0.13l-1.103-1.064l-0.091-0.051l-0.337-0.091
	l-1.012-1.18l-0.078-0.22l-0.039-0.078l-1.089-1.167l-0.117-0.065l-0.13-0.013l-0.843-1.18l-0.052-0.337L491.079,40.387z"/>
<path d="M476.72,53.732l0.117,0.091l0.454,0.856l0.026,0.091l0.052,0.039l1.064,1.738l0.169,0.415l0.104,0.104l0.272,0.13
	l0.259,0.298v0.039l0.026,0.078l0.571,0.959l0.648,0.753l0.194,0.908l0.052,0.09l1.738,2.076l0.156,0.078h0.311l0.143-0.065
	l0.039-0.039l0.259-0.142l0.104-0.13l0.078-0.389l-0.039-0.169l-0.61-0.739l-0.363-0.427l-0.389-1.038l0.895-0.934l0.052-0.078
	l0.195-0.506l0.389-0.492l0.622,0.401l0.285,0.195l0.065,0.039l0.636,0.416l0.674,0.35l0.104,0.026l0.298-0.013l0.091-0.025
	l0.363-0.207l0.091-0.221l-0.078-0.116l-0.078-0.247l-0.026-0.142l-0.22-0.35l-0.234-0.091l-0.078,0.026l-0.817-0.467l-0.259-0.415
	l-3.878-2.102l-1.037-0.726l-0.039-0.013l-1.517-1.168l-0.065-0.207l-0.195-0.142h-0.026l-0.13,0.025l-0.117,0.052l-0.013,0.026
	l-0.376-0.065l-0.623,0.298l-0.091,0.025l-0.363,0.467l-0.142,0.169l-0.026,0.234L476.72,53.732z M478.381,53.979l1.803,1.194
	l0.143,0.142l0.039,0.013l0.856,0.428l1.012,0.648l0.129,0.078l-1.284,1.725l-0.129-0.13l-0.545-1.206l-0.454-0.571l-1.582-2.296
	L478.381,53.979z"/>
<path d="M515.159,16.51l0.104,0.039v0.415l0.039,0.078l0.272,0.247v0.13l0.052,0.142l0.065,0.065l0.065,0.039l0.402,0.169
	l0.013,0.169l0.052,0.13l0.973,1.063l0.104,0.065l0.324,0.052l0.156,0.155l0.597,0.662l0.026,0.051l1.077,1.219l0.052,0.156
	l0.207,0.195l0.558,0.778l0.065,0.065l0.921,0.48l0.091,0.026l1.634-0.052l0.143-0.051l1.128-1.051l0.052-0.078l0.195-0.519
	l0.013-0.052l0.039-1.089l-0.013-0.078l-0.298-0.882l-0.039-0.091l-1.764-1.66l-0.078-0.325l-0.052-0.09l-3.372-3.346l-0.052-0.026
	l-0.661-0.337l-0.065-0.026l-1.401-0.181l-0.039-0.013l-0.065,0.026l-0.739,0.298l-0.117,0.116l-0.039,0.169l-0.35,0.298
	l-0.039,0.013l-0.13,0.233l0.013,0.013l-0.117,0.285l-0.13,0.13l-0.065,0.156l0.065,1.439L515.159,16.51z M516.703,14.914
	l0.843,0.026l0.636,0.234l0.324,0.532v0.246l0.065,0.142l0.221,0.221l0.156,0.065l0.078-0.013l1.712,1.491l1.92,2.114l0.078,0.766
	l-0.506,0.545l-0.389-0.013l-0.584,0.09l-0.013-0.234l-0.065-0.129l-1.102-1.064l-0.091-0.051l-0.337-0.091l-0.96-0.999l-0.13-0.402
	l-0.039-0.078l-1.089-1.167l-0.13-0.065l-0.13-0.013l-0.765-0.947l-0.039-0.078l-0.091-0.636l-0.065-0.116l-0.026-0.026
	L516.703,14.914"/>
<polygon points="453.522,77.575 453.703,77.654 454.429,77.602 454.546,77.55 455.156,77.07 455.493,77.018 456.933,78.51 
	461.875,83.218 461.952,83.257 462.691,83.516 462.756,83.529 462.873,83.491 463.379,83.127 463.47,82.945 463.444,82.608 
	463.379,82.245 463.327,82.167 462.043,80.779 456.686,75.708 456.622,75.527 457.192,74.917 457.244,74.8 457.309,73.97 
	457.231,73.788 457.037,73.607 456.985,73.568 456.673,73.426 456.583,73.412 456.544,73.412 456.154,73.503 456.051,73.542 
	453.288,76.059 453.223,76.175 453.094,76.888 453.133,77.044 "/>
<polygon points="459.209,70.952 460.026,71.731 460.818,72.34 460.96,72.742 460.999,72.806 462.205,74.104 463.087,74.96 
	466.602,78.293 466.706,78.345 467.458,78.488 467.497,78.488 467.601,78.462 467.951,78.241 468.042,78.086 468.107,77.412 
	468.081,77.294 467.718,76.646 467.679,76.595 465.033,74.052 465.033,73.935 465.448,72.962 466.33,72.871 467.912,74.687 
	469.196,75.907 469.326,75.959 469.923,75.945 470.04,75.907 470.467,75.608 470.559,75.492 470.675,74.882 470.649,74.726 
	470.273,74.104 470.221,74.052 468.756,72.898 466.109,70.537 466.096,70.329 466.031,70.187 463.606,67.982 463.165,67.308 
	463.035,67.217 462.452,67.087 462.426,67.087 462.309,67.126 461.764,67.502 461.686,67.658 461.648,68.163 461.7,68.319 
	464.579,71.626 463.814,72.534 463.567,72.56 463.425,72.43 463.36,72.249 463.295,72.145 461.842,71.03 461.388,70.342 
	461.336,70.278 460.325,69.577 460.208,69.551 459.599,69.551 459.456,69.603 459.105,69.992 459.053,70.148 459.145,70.823 "/>
<polygon points="466.075,64.022 466.373,64.607 466.411,64.658 467.605,65.787 469.771,68.148 473.454,71.636 473.571,71.688 
	474.259,71.753 474.272,71.753 474.414,71.688 477.125,68.847 477.177,68.705 477.151,68.095 477.112,67.979 476.879,67.654 
	476.749,67.577 476.256,67.498 476.217,67.486 476.139,67.498 475.673,67.667 475.608,67.719 475.102,68.238 474.103,69.457 
	473.986,69.47 473.454,68.977 473.091,68.471 473.04,68.433 471.963,67.693 471.742,67.252 472.949,65.877 473.001,65.8 
	473.104,65.359 473.091,65.216 472.728,64.568 472.572,64.464 471.911,64.373 471.872,64.373 471.742,64.424 470.433,65.67 
	470.277,65.683 469.745,65.424 469.317,65.034 468.02,63.672 468.033,63.543 469.395,61.805 469.447,61.714 469.512,61.325 
	469.447,61.143 469.2,60.923 469.058,60.871 468.915,60.936 468.785,61.078 468.331,60.974 468.137,61.027 467.294,61.935 
	466.152,62.817 466.075,62.933 465.945,63.543 465.945,63.646 "/>
<path d="M482.725,47.885l0.194,0.091l0.156,0.48l0.143,0.143l0.181-0.052l0.234,0.207l0.13,0.065l0.026-0.013h0.078l0.026,0.065
	l0.441,0.674l0.065,0.454l0.039,0.091l0.35,0.467l-0.026,0.207l0.065,0.155l2.01,1.933l2.386,2.438l0.104,0.051l0.623,0.156h0.039
	l0.104-0.026l0.285-0.169l0.104-0.142l0.052-0.363l-0.013-0.091l-0.234-0.661l-0.052-0.078l-4.073-4.086l-0.207-0.26l0.285,0.065
	l0.558,0.545l0.039,0.026l1.466,0.791l1.193,0.467l0.804,0.622l0.065,0.026l0.428,0.13l1.556,0.648l0.22-0.051l0.428-0.441
	l0.039-0.13v-0.467l-0.052-0.13l-1.491-1.583l-0.039-0.025l-0.778-0.467l-0.674-0.947l-2.192-2.102l-0.078-0.039l-0.091-0.025
	c-0.415-0.506-1.155-1.259-2.374-2.153l-0.194-0.052l-0.454,0.286l-0.026,0.337l0.117,0.207l0.026,0.039l0.311,0.298l0.039,0.026
	l0.363,0.402l0.519,0.57l0.116,0.156l0.558,0.532l0.078,0.324l0.052,0.091l1.881,1.946h-0.026l-0.402-0.247l-0.596-0.415
	l-0.039-0.026l-0.649-0.207l-0.947-0.597l-0.104-0.025l-0.545-0.026l-0.558-0.246l-0.052-0.026l-0.337-0.039l-0.078-0.117
	l-0.804-0.506l-0.104-0.039h-0.078l-0.26-0.246l-0.285,0.013l-0.143,0.156l-0.065,0.142l0.026,0.61L482.725,47.885"/>
<polygon points="520.592,9.367 521.668,10.547 523.224,12.039 525.313,14.192 526.441,15.437 526.48,15.463 527.816,16.294 
	527.907,16.319 528.698,16.371 528.711,16.371 528.776,16.371 529.891,15.982 529.969,15.943 530.76,15.113 530.812,15.022 
	531.071,13.661 531.058,13.531 530.812,13.051 530.617,12.934 530.553,12.947 530.319,12.714 530.488,12.558 530.54,12.402 
	530.475,12.273 529.424,11.248 529.333,11.209 528.802,11.053 528.802,10.898 528.763,10.768 527.518,8.978 527.375,8.887 
	527.064,8.848 524.716,6.591 524.729,6.397 524.664,6.241 524.275,5.852 524.184,5.827 523.756,5.709 523.704,5.709 523.561,5.762 
	522.771,6.41 522.731,6.656 523.017,7.24 523.069,7.318 524.742,8.628 525.364,9.51 526.882,10.963 528.866,12.571 529.191,13.155 
	529.268,13.816 528.516,14.581 528.127,14.581 526.091,12.804 522.589,9.134 522.485,9.094 522.213,9.03 521.953,8.395 
	521.811,8.277 521.214,8.161 521.188,8.161 521.058,8.2 520.617,8.524 520.527,8.68 520.539,9.238 "/>
<polygon points="472.889,92.42 473.771,92.965 473.823,92.978 474.147,93.069 474.64,93.393 474.718,93.419 475.055,93.484 
	476.443,94.236 476.56,94.262 477.208,94.184 477.338,94.119 477.701,93.756 477.753,93.652 477.805,93.276 477.805,93.185 
	477.584,92.524 477.532,92.446 475.353,90.357 472.383,87.128 471.397,86.415 470.373,85.611 469.763,85.325 469.53,85.377 
	469.05,85.909 468.998,86.064 469.063,86.584 469.115,86.7 469.867,87.388 472.227,90.034 471.631,89.683 469.659,88.841 
	469.115,88.723 468.609,88.374 468.531,88.347 467.234,88.088 467.208,88.088 467.078,88.127 466.572,88.503 466.495,88.594 
	466.43,88.827 466.468,89.022 468.829,91.655 472.162,95.001 473.602,96.674 473.745,96.752 474.679,96.804 474.692,96.804 
	474.822,96.752 475.055,96.519 475.107,96.454 475.224,96.155 475.237,96.026 475.068,95.416 475.016,95.338 473.304,93.73 
	471.799,91.979 471.799,91.966 "/>
<polygon points="487.538,83.402 487.538,83.402 487.551,83.402 488.121,83.363 488.264,83.312 488.886,82.663 488.926,82.455 
	488.718,81.937 488.666,81.872 487.745,80.977 486.656,80.082 484.866,78.383 484.204,77.591 484.049,77.527 483.595,77.501 
	483.387,77.008 483.206,76.878 482.687,76.878 482.661,76.502 482.648,76.424 482.427,75.931 482.389,75.866 480.949,74.492 
	480.806,74.453 480.508,74.453 480.378,74.505 480.287,74.608 480.015,74.79 479.924,74.972 479.937,75.672 479.989,75.815 
	480.65,76.45 482.92,79.057 487.395,83.35 "/>
<path d="M492.015,76.372l-0.441-0.35l-0.078-0.039L490.9,75.88l-0.026-0.013l-0.13,0.039l-0.506,0.376l-0.078,0.143l-0.052,0.532
	l0.065,0.169l0.96,0.921l0.104,0.052l0.752,0.116h0.026h0.026l1.025-0.169l0.052-0.013l0.713-0.312l0.065-0.051l0.285-0.298
	l0.467-0.662l0.35-0.804l0.013-0.117l-0.247-1.089l-0.052-0.104l-0.246-0.221c-0.791-1.349-1.816-2.179-2.841-2.282l-0.052-0.052
	l-0.117-0.051l-1.258-0.039l-0.117,0.039l-0.843,0.571l-0.778,0.078l-0.194-0.169l-0.869-0.687l-0.519-1.012l0.454-0.701
	l1.375,0.104l0.156-0.052l0.104-0.142l0.052-0.13V69.55l-0.065-0.156l-0.389-0.35v-0.234l-0.091-0.169l-0.467-0.286l-0.065-0.026
	l-0.869-0.129l-0.039-0.013l-0.078,0.026l-0.661,0.26l-0.052,0.039l-0.83,0.726l-0.065,0.065l-0.363,0.804l-0.013,0.065
	l-0.026,1.128l0.013,0.091c0.687,1.427,0.7,1.44,0.713,1.453l1.349,1.284l0.039,0.026l0.752,0.402l0.078,0.026l0.791,0.064h0.013
	h0.039l0.856-0.169l0.078-0.025l1.271-0.895l0.169,0.013l0.765,0.324l0.48,0.454l0.558,0.674l0.143,0.713l-0.324,0.454
	L492.015,76.372z"/>
<polygon points="498.596,72.255 499.284,72.32 499.297,72.32 499.439,72.255 502.137,69.414 502.202,69.285 502.176,68.662 
	502.137,68.546 501.891,68.209 501.774,68.144 501.281,68.065 501.229,68.053 501.165,68.065 500.711,68.234 500.633,68.286 
	500.127,68.805 499.128,70.024 499.011,70.037 498.48,69.544 498.116,69.052 498.064,68.999 496.988,68.247 496.754,67.819 
	497.974,66.444 498.026,66.354 498.129,65.925 498.103,65.77 497.753,65.135 497.597,65.031 496.923,64.953 496.754,64.991 
	495.457,66.237 495.302,66.25 494.77,66.003 494.342,65.602 493.045,64.239 493.058,64.109 494.42,62.372 494.471,62.281 
	494.536,61.892 494.471,61.71 494.225,61.49 494.069,61.438 493.94,61.503 493.81,61.658 493.356,61.529 493.162,61.594 
	492.319,62.488 491.177,63.37 491.099,63.5 490.97,64.109 490.983,64.213 491.099,64.59 491.398,65.173 491.437,65.225 
	492.63,66.354 494.796,68.727 498.48,72.203 "/>
<polygon points="507.558,22.908 508.984,24.867 508.933,25.087 509.023,25.308 509.931,25.878 510.048,25.892 510.178,25.878 
	510.282,25.995 510.437,26.631 510.502,26.735 510.709,26.93 510.774,26.955 510.969,27.02 511.903,27.785 511.903,27.993 
	511.968,28.135 513.926,30.004 514.004,30.055 514.653,30.236 514.717,30.25 514.86,30.198 515.094,29.951 515.119,29.886 
	515.197,29.705 515.197,29.562 515.042,29.121 514.99,29.043 511.643,25.839 511.604,25.736 512.772,26.177 513.732,26.955 
	513.796,26.981 514.25,27.098 514.38,27.098 514.886,26.877 515.197,26.721 515.314,26.527 515.288,25.827 515.275,25.749 
	515.029,25.075 515.003,25.01 514.341,24.257 514.108,23.661 514.082,23.596 513.874,23.35 517.662,26.968 517.804,27.033 
	518.103,27.033 518.258,26.968 518.297,26.93 518.725,26.631 518.816,26.488 518.868,26.112 518.803,25.931 518.57,25.697 
	518.388,25.308 518.271,25.191 517.727,25.01 517.519,24.322 517.376,24.193 516.624,23.998 515.223,22.792 514.782,22.507 
	514.756,22.026 514.691,21.884 514.432,21.637 513.394,20.898 513.018,20.729 512.915,20.626 512.888,20.185 512.785,19.809 
	512.577,19.653 512.434,19.665 512.305,19.73 512.227,19.809 512.175,19.899 512.175,19.939 511.942,19.718 511.993,19.705 
	512.136,19.471 512.071,19.121 512.02,19.017 511.345,18.369 511.228,18.317 510.593,18.239 510.541,18.226 510.424,18.278 
	509.763,18.797 509.698,18.927 509.633,19.614 509.698,19.77 509.983,20.055 510.126,20.107 510.242,20.107 510.411,20.6 
	511.332,22.351 512.123,23.233 512.123,23.479 512.175,23.609 512.733,24.232 512.733,24.257 511.799,23.933 511.228,23.544 
	511.112,23.505 510.748,23.505 510.295,22.934 510.191,22.869 509.347,22.623 508.388,21.702 508.284,21.637 507.402,21.52 
	507.376,21.52 507.233,21.572 507.078,21.741 507.026,21.871 506.987,22.363 507.065,22.545 "/>
<path d="M501.294,29.215l0.142,0.078l0.259,0.013l0.532,0.493l0.947,0.337l0.882,0.285l0.078,0.104l1.193,0.973l0.117,0.039h0.22
	l0.402,0.363l0.078,0.052l0.908,0.311l2.828,2.658l0.104,0.052l0.661,0.078h0.039l0.142-0.065l0.337-0.35l0.052-0.142l-0.013-0.454
	l-0.052-0.129l-1.803-1.868l-0.091-0.051l-0.571-0.169l-0.337-0.713l-0.039-0.065l-0.48-0.441l-0.078-0.467l-0.065-0.117
	l-0.545-0.519l-0.039-0.35l-0.013-0.078l-0.532-0.959l-0.558-0.597c-0.921-1.504-1.478-1.88-1.79-1.92l-0.078-0.078l-0.143-0.051
	l-0.142,0.064l-0.285,0.298l-0.052,0.195l0.052,0.221l0.065,0.078l0.506,0.48l0.376,1.154l0.026,0.065l0.843,1.103l0.182,0.078
	l0.22-0.013l0.078,0.804l-0.026,0.025l-0.415,0.013l-0.701-0.649l-0.129-0.051l-0.247-0.013l-0.13,0.025l-2.36-1.115l-0.052-0.078
	l-0.194-0.091l-0.285,0.052l-0.104,0.051l-0.298,0.286l-0.013,0.285L501.294,29.215z"/>
<polygon points="496.316,35.991 496.329,36.004 497.133,36.601 497.471,36.782 497.484,36.886 497.523,36.99 497.873,37.444 
	497.86,37.664 497.925,37.82 499.935,39.753 502.308,42.191 502.412,42.243 503.048,42.386 503.087,42.398 503.178,42.372 
	503.476,42.204 503.58,42.061 503.619,41.698 503.606,41.62 503.372,40.933 503.333,40.855 499.248,36.795 499.04,36.523 
	499.326,36.588 499.883,37.12 499.922,37.158 501.401,37.949 502.594,38.416 503.398,39.026 503.463,39.066 503.878,39.195 
	505.447,39.844 505.668,39.792 506.07,39.351 506.135,39.208 506.135,38.754 506.083,38.611 504.591,37.042 504.552,37.003 
	503.774,36.536 503.087,35.615 500.908,33.514 500.83,33.462 500.804,33.462 498.184,31.218 498.08,31.218 498.041,31.309 
	498.041,31.335 497.665,31.672 497.678,31.854 497.795,32.061 497.834,32.1 498.132,32.412 498.275,32.463 498.729,32.878 
	499.17,33.553 499.727,34.097 499.805,34.409 499.857,34.499 501.738,36.433 501.712,36.433 501.323,36.199 500.726,35.783 
	500.674,35.758 500.039,35.55 499.079,34.954 498.988,34.915 498.431,34.901 497.885,34.643 497.821,34.643 497.496,34.603 
	497.406,34.474 496.601,33.968 496.498,33.929 496.42,33.929 496.16,33.682 495.888,33.682 495.733,33.838 495.681,33.993 
	495.681,34.123 495.369,34.616 "/>
<path d="M527.805,3.554l0.402,0.377c0.234,0.674,0.804,1.776,1.998,1.945l0.207,0.195l0.13,0.052l0.506,0.039h0.052l0.778-0.156
	l0.726-0.298l0.065-0.039l0.441-0.441l2.114,0.687l0.571,0.714l0.156,1.167l-0.052,0.065l-0.234,0.104l-1.414,0.234l-0.519-0.493
	l-0.143-0.065h-0.311l-0.143,0.065l-0.182,0.208l-0.039,0.051l-0.156,0.298l0.052,0.246l1.193,1.154l0.104,0.052l0.856,0.13h0.026
	h0.052l0.765-0.169l0.091-0.052l0.921-0.804l0.065-0.142V8.444l0.234-0.272l0.065-0.104l0.039-0.35l-0.026-0.117l-0.156-0.285
	l0.091-0.246l-0.532-1.738l-0.026-0.039l-2.088-1.323l-0.7-0.142h-0.571l-0.156,0.078l-0.169,0.181l-0.674,0.286h-1.09l-0.921-0.363
	l-0.778-0.597l-0.389-0.83l0.973-1.349l0.596-0.013l0.169,0.169l0.545,0.363h0.246l0.312-0.234l0.091-0.155V1.09l-0.052-0.156
	l-0.298-0.298l-0.052-0.051l-0.674-0.337L530.295,0L530.1,0.013l-0.298,0.194l-0.052-0.064l-0.117-0.04h-0.039l-0.518,0.091
	l-0.117,0.052l-0.195,0.207l-0.61,0.545l-0.052,0.051l-0.363,0.623l-0.026,0.104l0.026,1.634L527.805,3.554"/>
<path d="M604.715,21.096l-94.489,94.49c3.644-10.778,5.655-22.31,5.681-34.281V80.89h-7.393v0.415
	c-0.142,55.267-44.981,100.132-100.183,100.573v7.419c1.945-0.013,3.878-0.078,5.798-0.195
	c37.484-2.217,69.897-23.619,87.563-54.515l62.452-62.452v159.678h7.406V64.728l38.405-38.405L604.715,21.096z"/>
<path d="M319.007,151.767l0.026-1.297c0-30.558-24.864-55.423-55.422-55.423c-2.335,0-4.643,0.143-6.9,0.441l14.592-14.592h49.741
	v-7.406h-121.87V55.566H165.58V45.385h59.197v-7.393H0v7.393h125.19v10.181H91.61v36.629h54.93h52.634V80.897h61.661L242.52,99.211
	c-20.13,8.315-34.346,28.159-34.346,51.259c0,8.574,1.959,16.706,5.448,23.97c-12.114,6.342-25.72,7.263-37.951,3.54
	c7.445-4.915,13.839-11.621,18.483-19.935l3.074-5.5h-50.079l6.589-6.602c1.31,0.908,2.711,1.674,4.189,2.296l0.35,0.207
	l-0.091-0.116c1.362,0.545,2.789,0.972,4.267,1.271l0.415,0.052l1.829,0.285l2.361,0.117c4.112,0,8.003-1.051,11.388-2.893
	c7.458-4.047,12.517-11.959,12.517-21.025l-0.13-2.529l-0.104-0.701l-0.298-1.79l-0.182-0.687l-0.48-1.725l-0.22-0.584l-0.687-1.751
	l-0.22-0.441l-0.934-1.79l-0.181-0.285l-1.206-1.816l-0.117-0.169l-1.466-1.764l-0.065-0.078l-1.725-1.7h29.663v-7.392h-64.346
	l3.515-3.516l-5.24-5.226l-29.482,29.468l5.227,5.24l18.574-18.574h10.311l-1.725,1.712l-0.052,0.052l-1.479,1.776l-0.117,0.169
	l-1.206,1.816l-0.182,0.285l-0.934,1.79l-0.22,0.441l-0.688,1.751l-0.22,0.584l-0.48,1.725l-0.181,0.687l-0.298,1.79l-0.104,0.701
	l-0.13,2.516v0.013v0.025l0.143,2.543l0.117,0.778l0.285,1.738l0.221,0.817l0.454,1.621l0.273,0.753l0.648,1.595l0.324,0.648
	l0.856,1.595l0.311,0.519l1.103,1.608l0.285,0.363l0.143,0.181l-22.4,22.387l5.214,5.24l9.455-9.455
	c4.592,7.834,10.752,14.203,17.873,18.898l-0.934,0.298c-12.905,3.67-26.486,2.075-38.211-4.475l-3.606,6.459
	c8.872,4.955,18.509,7.303,28.016,7.303c8.054,0,16.005-1.712,23.334-4.942c7.328,3.217,15.279,4.942,23.334,4.942
	c9.105,0,18.327-2.192,26.888-6.719c9.909,15.071,26.978,25.033,46.33,25.033c25.993,0,47.861-17.99,53.814-42.193l0.052,0.039
	l49.054-49.054l-5.227-5.227L319.007,151.767z M132.596,45.385h25.59v10.169h-25.59V45.385z M99.003,62.959h26.2v21.829h-26.2
	V62.959z M132.596,62.959h25.59v21.829h-25.59V62.959z M191.767,84.788h-26.2V62.959h26.2V84.788z M149.315,126.086l0.078-1.53
	l0.207-1.479v-0.013h34.916l0.208,1.491l0.078,1.583l-0.078,1.595l-0.208,1.491h-34.916v-0.013l-0.207-1.479l-0.078-1.53v-0.065
	V126.086z M149.99,159.939h34.151c-4.527,6.123-10.363,11.051-17.082,14.54C160.483,171.054,154.62,166.165,149.99,159.939
	 M253.805,141.625h19.598v17.367h-19.598V141.625z M273.403,103.44v30.791h-19.598V103.44c3.165-0.662,6.446-0.999,9.806-0.999
	S270.238,102.778,273.403,103.44 M215.568,150.471c0-20.429,12.815-37.912,30.844-44.838v89.677
	C228.383,188.37,215.568,170.899,215.568,150.471 M253.805,197.501v-31.102h19.598v31.102c-3.165,0.662-6.433,0.999-9.793,0.999
	S256.969,198.163,253.805,197.501 M280.809,195.309v-89.677c18.016,6.939,30.831,24.41,30.831,44.838
	S298.825,188.37,280.809,195.309"/>
</svg>
