<?xml version="1.0" encoding="utf-8"?>
<!-- Generator: Adobe Illustrator 27.0.1, SVG Export Plug-In . SVG Version: 6.00 Build 0)  -->
<svg version="1.1" id="레이어_1" xmlns="http://www.w3.org/2000/svg" xmlns:xlink="http://www.w3.org/1999/xlink" x="0px"
	 y="0px" viewBox="0 0 720 356.519" enable-background="new 0 0 720 356.519" xml:space="preserve">
<g>
	<defs>
		<path id="SVGID_1_" d="M395.906,55.151l-2.405,3.95l18.598,16.642l-2.601,1.115l-2.326-2.073l-0.919,0.919l2.797,2.503
			l29.335-12.536l-0.02-0.098l15.176-6.473l0.273-0.489l-15.508,6.63l-0.156-0.606l-22.432,9.583l-14.745-13.181l6.669-10.893
			L395.906,55.151z M414.699,24.407l-18.324,29.961l11.714-5.007l-0.45,0.782l4.42-1.897l-0.118-0.528l-3.852,1.642l11.694-19.087
			l1.761-0.744l-6.083-5.456L414.699,24.407z M468.774,24.036l4.029,3.579l1.975-3.207l-2.209-1.975L468.774,24.036z
			 M416.147,23.801l6.063,5.437l-0.665,0.293l0.294,0.215l0.449-0.47l-0.078-0.039l35.456-15.137l10.697,9.563l-7.04,2.992
			l0.137,0.528l7.313-3.148l-0.411-0.372l3.755-1.623L455.338,7.08L416.147,23.801z M411.141,19.381l-0.216,0.098l-23.644,38.644
			l-0.273,0.411l6.942,6.18l0.919-0.939l-6.336-5.671l22.96-37.549l0.136-0.235l0.411-0.176L456.063,1.37l20.906,18.618l0.411,0.391
			l0.45-0.469l0.469-0.489L456.786,0.216L456.551,0L411.141,19.381z"/>
	</defs>
	<clipPath id="SVGID_00000125587710816457849630000016500940093311434925_">
		<use xlink:href="#SVGID_1_"  overflow="visible"/>
	</clipPath>
	
		<linearGradient id="SVGID_00000074431416440326429770000015029895663218671038_" gradientUnits="userSpaceOnUse" x1="-116.1343" y1="806.1369" x2="-96.5778" y2="806.1369" gradientTransform="matrix(0.3499 -3.999 -3.999 0 3693.6096 -386.2134)">
		<stop  offset="0" style="stop-color:#B8C6E5"/>
		<stop  offset="0.8031" style="stop-color:#B0AFD6"/>
		<stop  offset="1" style="stop-color:#B0AFD6"/>
	</linearGradient>
	
		<polygon clip-path="url(#SVGID_00000125587710816457849630000016500940093311434925_)" fill="url(#SVGID_00000074431416440326429770000015029895663218671038_)" points="
		380.165,78.208 387.008,0.001 485.14,0.001 478.298,78.208 	"/>
</g>
<g>
	<defs>
		<path id="SVGID_00000163770762749697370460000007719940258492589223_" d="M394.986,269.766l18.814-30.763l37.901-16.154
			l10.697,9.544l-14.863,6.317l0.137,0.548l15.176-6.493l3.793,3.402l-18.5,30.234l-10.345-9.211l-0.45,0.469l10.247,9.153
			l-37.861,16.154L394.986,269.766z M408.735,233.136l-18.324,29.961l7.783-3.325l0.118,0.528l-8.371,3.579l-2.445,3.951
			l18.677,16.642l-2.62,1.115l-20.867-18.638l-0.431-0.372l-0.449,0.47l-0.47,0.469l21.513,19.224l0.234,0.196l45.392-19.361
			l0.254-0.078l23.644-38.664l0.254-0.411l-6.904-6.18l-0.957,0.939l6.336,5.652l-2.503,4.126l-19.225-17.151L408.735,233.136z
			 M421.272,221.246l0.234,1.056l28.593-12.204l2.366,2.093l0.919-0.939l-2.816-2.523L421.272,221.246z"/>
	</defs>
	<clipPath id="SVGID_00000020358184988341975540000013274962537773382832_">
		<use xlink:href="#SVGID_00000163770762749697370460000007719940258492589223_"  overflow="visible"/>
	</clipPath>
	
		<linearGradient id="SVGID_00000067933145307921225360000014763787219705916568_" gradientUnits="userSpaceOnUse" x1="-165.6604" y1="803.1479" x2="-146.1042" y2="803.1479" gradientTransform="matrix(0.3499 -3.9991 -3.9991 0 3693.3962 -375.5558)">
		<stop  offset="0" style="stop-color:#F7E8C7"/>
		<stop  offset="0.0987" style="stop-color:#F7E4BB"/>
		<stop  offset="0.3475" style="stop-color:#F7DAA3"/>
		<stop  offset="0.5" style="stop-color:#F7D79A"/>
		<stop  offset="1" style="stop-color:#F7D79A"/>
	</linearGradient>
	
		<polygon clip-path="url(#SVGID_00000020358184988341975540000013274962537773382832_)" fill="url(#SVGID_00000067933145307921225360000014763787219705916568_)" points="
		374.493,286.937 381.336,208.73 479.469,208.73 472.626,286.937 	"/>
</g>
<path fill="#CFCEE3" d="M369.836,95.535l-0.253-1.056l32.933-14.022l0.215,1.036L369.836,95.535z M252.243,193.749l-0.979-0.411
	l40.053-65.457l0.273-0.098l59.198-25.267l0.235,1.056l-58.983,25.17L252.243,193.749 M265.756,260.535l-21.572-19.263l0.919-0.919
	l21.553,19.224L265.756,260.535 M257.132,291.884l-0.254-1.056l28.983-12.341l-7.804-6.962l0.939-0.939l7.763,6.923l4.948-2.112
	l-52.666-47.034l2.875-4.713l5.123-2.19l-0.078-0.528l-4.576,1.936l54.74-89.413l111.278-47.484l52.783,47.151l2.816-4.596
	l-21.239-18.95l0.919-0.939l21.807,19.459l-0.254,0.411L410.3,218.312l-0.567-0.215l-6.004,9.817v-0.039l5.984-9.798l-0.43-0.156
	l50.222-82.079l-49.361-44.081l-109.967,46.936l-56.421,92.23l49.165,43.944l109.929-46.897l-10.228-9.133l0.45-0.469l10.658,9.504
	l-0.156,0.235l0.058,0.118l0.098,0.528l-117.067,49.928l2.367,2.132l-0.919,0.939l-2.328-2.093L257.132,291.884"/>
<g>
	<defs>
		<path id="SVGID_00000173872241007746025090000004848690086586560409_" d="M475.091,124.733l-2.405,3.95l18.618,16.643
			l-2.621,1.115l-2.328-2.093l-0.919,0.939l2.797,2.504l29.316-12.536v-0.117l15.176-6.454l0.294-0.489l-15.528,6.63l-0.156-0.587
			l-22.451,9.564l-14.765-13.181l6.688-10.893L475.091,124.733z M493.885,93.99l-18.305,29.941l11.695-4.987l-0.47,0.782
			l4.439-1.897l-0.117-0.528l-3.852,1.643l11.675-19.107l1.799-0.743l-6.102-5.436L493.885,93.99z M547.979,93.618l4.03,3.579
			l1.955-3.207l-2.209-1.975L547.979,93.618z M495.333,93.384l6.082,5.437l-0.665,0.273l0.254,0.235l0.469-0.469l-0.059-0.039
			l35.437-15.137l10.698,9.544l-7.06,2.992l0.137,0.548l7.353-3.149l-0.43-0.391l3.755-1.604l-16.78-14.961L495.333,93.384z
			 M490.365,88.945l-0.273,0.098l-23.644,38.663l-0.235,0.411l6.923,6.18l0.919-0.939l-6.336-5.672l22.959-37.568l0.156-0.215
			l0.411-0.195l44.023-18.775l20.847,18.638l0.45,0.372l0.45-0.47l0.469-0.469l-21.532-19.224l-0.234-0.196L490.365,88.945z"/>
	</defs>
	<clipPath id="SVGID_00000065762017090565698730000013896953160086616248_">
		<use xlink:href="#SVGID_00000173872241007746025090000004848690086586560409_"  overflow="visible"/>
	</clipPath>
	
		<linearGradient id="SVGID_00000106862956266124146250000013160747057039487659_" gradientUnits="userSpaceOnUse" x1="-132.642" y1="785.9072" x2="-113.0829" y2="785.9072" gradientTransform="matrix(0.3499 -3.9985 -3.9985 0 3697.2839 -382.5782)">
		<stop  offset="0" style="stop-color:#DBC9D0"/>
		<stop  offset="1" style="stop-color:#C0A9AF"/>
	</linearGradient>
	
		<polygon clip-path="url(#SVGID_00000065762017090565698730000013896953160086616248_)" fill="url(#SVGID_00000106862956266124146250000013160747057039487659_)" points="
		459.369,147.791 466.213,69.584 564.327,69.584 557.484,147.791 	"/>
</g>
<g>
	<defs>
		<path id="SVGID_00000155139269610169648710000016482916551252831887_" d="M230.671,339.349l18.794-30.763l37.921-16.173
			l10.697,9.544l1.603-0.685l0.117,0.508l-1.29,0.567l3.774,3.403l-18.5,30.234l-10.345-9.23l-0.431,0.469l10.249,9.152
			l-37.842,16.135L230.671,339.349z M244.38,302.719l-18.305,29.961l7.803-3.324l0.117,0.509l-8.409,3.579l-2.405,3.95
			l18.638,16.663l-2.601,1.095l-20.886-18.618l-0.431-0.372l-0.45,0.469l-0.449,0.47l21.531,19.224l0.235,0.195l45.372-19.361
			l0.235-0.117l23.644-38.625l0.273-0.411l-6.923-6.2l-0.938,0.939l6.356,5.691l-2.542,4.107l-19.185-17.171L244.38,302.719z"/>
	</defs>
	<clipPath id="SVGID_00000052817359506479580250000018376609512990049945_">
		<use xlink:href="#SVGID_00000155139269610169648710000016482916551252831887_"  overflow="visible"/>
	</clipPath>
	
		<linearGradient id="SVGID_00000023982642092714390770000005472372759798055357_" gradientUnits="userSpaceOnUse" x1="-214.9626" y1="825.321" x2="-195.4059" y2="825.321" gradientTransform="matrix(1.7477 -3.8711 -3.7478 -1.409 3714.283 689.7615)">
		<stop  offset="0" style="stop-color:#D0D1C5"/>
		<stop  offset="0.3369" style="stop-color:#C5CEB0"/>
		<stop  offset="0.7088" style="stop-color:#BCCCA1"/>
		<stop  offset="1" style="stop-color:#B9CB9B"/>
	</linearGradient>
	
		<polygon clip-path="url(#SVGID_00000052817359506479580250000018376609512990049945_)" fill="url(#SVGID_00000023982642092714390770000005472372759798055357_)" points="
		189.542,346.196 230.249,256.032 335.752,295.696 295.045,385.86 	"/>
</g>
<g>
	<defs>
		<polygon id="SVGID_00000000194683832466623250000008011071368550207896_" points="298.084,301.956 298.513,302.347 
			299.804,301.78 299.687,301.272 		"/>
	</defs>
	<clipPath id="SVGID_00000094606175321391705710000002452225424474498963_">
		<use xlink:href="#SVGID_00000000194683832466623250000008011071368550207896_"  overflow="visible"/>
	</clipPath>
	
		<linearGradient id="SVGID_00000139995841961464212970000009526230273582689675_" gradientUnits="userSpaceOnUse" x1="-1231.6411" y1="7473.8608" x2="-1212.0845" y2="7473.8608" gradientTransform="matrix(0.0048 -0.0552 -0.0552 0 717.4014 234.3608)">
		<stop  offset="0" style="stop-color:#D6D4C8"/>
		<stop  offset="1" style="stop-color:#B0B998"/>
	</linearGradient>
	
		<polygon clip-path="url(#SVGID_00000094606175321391705710000002452225424474498963_)" fill="url(#SVGID_00000139995841961464212970000009526230273582689675_)" points="
		297.988,302.347 298.083,301.272 299.897,301.272 299.803,302.347 	"/>
</g>
<g>
	<defs>
		<polygon id="SVGID_00000116226166737321218880000000421627079940276106_" points="283.22,308.293 283.337,308.821 
			298.513,302.347 298.084,301.956 		"/>
	</defs>
	<clipPath id="SVGID_00000064328055246067462960000015261096983339230870_">
		<use xlink:href="#SVGID_00000116226166737321218880000000421627079940276106_"  overflow="visible"/>
	</clipPath>
	
		<linearGradient id="SVGID_00000029750501532078947360000000528318116194653373_" gradientUnits="userSpaceOnUse" x1="-341.8325" y1="1822.2957" x2="-322.2758" y2="1822.2957" gradientTransform="matrix(0.0306 -0.3501 -0.3501 0 939.024 189.145)">
		<stop  offset="0" style="stop-color:#D6D4C8"/>
		<stop  offset="1" style="stop-color:#B0B998"/>
	</linearGradient>
	
		<polygon clip-path="url(#SVGID_00000064328055246067462960000015261096983339230870_)" fill="url(#SVGID_00000029750501532078947360000000528318116194653373_)" points="
		282.62,308.821 283.22,301.956 299.114,301.956 298.513,308.821 	"/>
</g>
<g>
	<defs>
		<path id="SVGID_00000037664493215455149280000005861009680886039982_" d="M151.486,269.766l18.814-30.763l37.901-16.154
			l10.658,9.544l-14.824,6.317l0.117,0.508l15.157-6.453l3.793,3.402l-18.48,30.234l-10.366-9.211l-0.43,0.469l10.208,9.153
			l-37.803,16.154L151.486,269.766z M165.234,233.136l-18.325,29.961l7.784-3.325l0.118,0.528l-8.41,3.579l-2.405,3.951
			l18.638,16.642l-2.601,1.115l-20.886-18.618l-0.411-0.392l-0.469,0.47l-0.431,0.469l21.513,19.224l0.215,0.196l45.391-19.361
			l0.235-0.078l23.644-38.664l0.254-0.411l-6.904-6.18l-0.919,0.939l6.337,5.652l-2.503,4.126l-19.244-17.151L165.234,233.136z"/>
	</defs>
	<clipPath id="SVGID_00000055698713095644834620000012903240043715291283_">
		<use xlink:href="#SVGID_00000037664493215455149280000005861009680886039982_"  overflow="visible"/>
	</clipPath>
	
		<linearGradient id="SVGID_00000124876527900804731270000009857756113154604470_" gradientUnits="userSpaceOnUse" x1="-239.7712" y1="812.5365" x2="-220.2145" y2="812.5365" gradientTransform="matrix(3.5298 -3.2458 -2.9618 -3.2458 3403.5483 2140.6414)">
		<stop  offset="0" style="stop-color:#C6B0B7"/>
		<stop  offset="0.0748" style="stop-color:#BDA6AD"/>
		<stop  offset="0.3922" style="stop-color:#988185"/>
		<stop  offset="0.6449" style="stop-color:#826A6D"/>
		<stop  offset="0.8" style="stop-color:#7A6264"/>
		<stop  offset="1" style="stop-color:#7A6264"/>
	</linearGradient>
	
		<polygon clip-path="url(#SVGID_00000055698713095644834620000012903240043715291283_)" fill="url(#SVGID_00000124876527900804731270000009857756113154604470_)" points="
		102.544,248.261 187.454,170.183 264.379,254.485 179.469,332.563 	"/>
</g>
<g>
	<defs>
		<polygon id="SVGID_00000096752502685889152100000007455358358496468378_" points="177.732,221.246 177.947,222.321 
			206.597,210.098 208.924,212.171 209.843,211.233 207.067,208.73 		"/>
	</defs>
	<clipPath id="SVGID_00000001642451080570451710000008154681244728901798_">
		<use xlink:href="#SVGID_00000096752502685889152100000007455358358496468378_"  overflow="visible"/>
	</clipPath>
	
		<linearGradient id="SVGID_00000157298814291793491710000000004468108369448597_" gradientUnits="userSpaceOnUse" x1="-463.2995" y1="753.7979" x2="-443.7428" y2="753.7979" gradientTransform="matrix(1.5977 0 0.1398 -1.5977 813.0535 1419.8688)">
		<stop  offset="0" style="stop-color:#C3AAB0"/>
		<stop  offset="1" style="stop-color:#7A6264"/>
	</linearGradient>
	
		<polygon clip-path="url(#SVGID_00000001642451080570451710000008154681244728901798_)" fill="url(#SVGID_00000157298814291793491710000000004468108369448597_)" points="
		177.733,208.73 211.033,208.73 209.843,222.322 176.544,222.322 	"/>
</g>
<g>
	<defs>
		<path id="SVGID_00000111888820003142666140000010253717113040371854_" d="M231.571,124.733l-2.445,3.95l18.657,16.643
			l-2.601,1.115l-2.366-2.093l-0.92,0.939l2.817,2.504l29.315-12.517v-0.118l15.196-6.473l0.273-0.508l-15.568,6.649l-0.136-0.587
			l-22.432,9.564l-14.745-13.181l6.649-10.893L231.571,124.733z M250.384,93.99l-18.344,29.941l11.714-4.987l-0.489,0.782
			l4.479-1.916l-0.117-0.508l-3.872,1.643l11.675-19.107l1.78-0.743l-6.082-5.436L250.384,93.99z M304.459,93.618l4.009,3.579
			l1.995-3.207l-2.23-1.975L304.459,93.618z M251.812,93.384l6.083,5.437l-0.685,0.273l0.294,0.235l0.45-0.469l-0.058-0.039
			l35.456-15.137l10.697,9.544l-7.04,2.992l0.117,0.548l7.334-3.149l-0.411-0.391l3.755-1.604l-16.78-14.961L251.812,93.384z
			 M246.825,88.945l-0.234,0.098l-23.683,38.663l-0.235,0.411l6.923,6.16l0.919-0.919l-6.356-5.672l23.018-37.568l0.137-0.215
			l0.392-0.195l44.061-18.775l20.847,18.638l0.45,0.372l0.45-0.47l0.45-0.469l-21.532-19.224l-0.235-0.196L246.825,88.945z"/>
	</defs>
	<clipPath id="SVGID_00000037650935369830928540000002712954756775930792_">
		<use xlink:href="#SVGID_00000111888820003142666140000010253717113040371854_"  overflow="visible"/>
	</clipPath>
	
		<linearGradient id="SVGID_00000062172433511215846860000005618057563283654072_" gradientUnits="userSpaceOnUse" x1="-132.642" y1="843.6986" x2="-113.0829" y2="843.6986" gradientTransform="matrix(0.3499 -3.9985 -3.9985 0 3684.8318 -382.5782)">
		<stop  offset="0" style="stop-color:#F6C8D3"/>
		<stop  offset="1" style="stop-color:#EF94AA"/>
	</linearGradient>
	
		<polygon clip-path="url(#SVGID_00000037650935369830928540000002712954756775930792_)" fill="url(#SVGID_00000062172433511215846860000005618057563283654072_)" points="
		215.828,147.791 222.671,69.584 320.806,69.584 313.963,147.791 	"/>
</g>
<g>
	<defs>
		<path id="SVGID_00000001652173947533873350000012778458049649508760_" d="M515.046,236.52l-0.469,0.763h1.759l0.254-0.469h1.545
			l0.196-0.294H515.046z M617.171,261.278h3.109l-0.43,0.782h29.452l0.411-0.782H637.04l13.455-24.016H648.5l-1.153-2.034
			l-8.058-13.533L617.171,261.278z M271.037,236.813h-4.166l-0.431,0.782h21.434l0.45-0.782h2.816l1.819-3.286l-10.385-17.445
			L271.037,236.813z M550.483,187.315l1.192,1.995l-0.802,1.447l1.389,2.132l20.143,31.408v-2.855l-19.088-29.785l3.09-5.163
			l-2.718-4.498L550.483,187.315z M197.327,181.428l0.606,0.978l-3.129,5.241l-0.431-0.782l-2.855,4.713l24.857,38.625v1.819
			l3.403,5.261l0.196,0.313h0.919l-0.196-0.313l-0.234-0.469h4.321l0.235,0.469h-1.642l0.175,0.313h18.99l-0.175-0.313l-0.235-0.469
			h-4.068l-35.417-54.896l3.422-6.082l-2.269-4.224l0.352-0.685l-0.273-0.45L197.327,181.428z M554.12,181.78l2.659,4.44
			l-0.899,1.545l0.567,0.939l-1.682,2.758l1.369,2.229l-0.02,0.02l14.238,22.04l0.684,1.056l0.079,0.137v1.78l11.44,17.797h-1.095
			l0.196,0.294h-1.8l-0.195-0.294h-0.685l-9.661-15.078v2.855l7.842,12.243h0.704l0.431,0.743l0.195,0.313h6.748l-0.175-0.352
			h-0.763l-0.235-0.43h2.874l0.216,0.43l0.195,0.352h20.79l-0.118-0.313l-0.156-0.411v-0.058h-7.021l-0.195-0.294l-1.135-1.838
			v1.838h-1.017l-0.038-1.858l-35.712-58.181l0.881-1.428l-1.721-3.031l0.978-1.721l-0.9-1.623L554.12,181.78z M138.735,235.6
			l0.938,1.74h-1.369l-0.957-1.74l-0.763,1.213h-7.744l-0.254,0.469l-0.177,0.313h31.546l0.195-0.313h-2.307l0.254-0.469h1.213
			l3.285-5.437l32.68-53.253l-9.993-16.487L138.735,235.6z M73.298,161.969l-10.933,19.518h-0.038l-2.934,5.085v-0.02l-0.646,1.212
			l0.02,1.585l0.625-1.174v0.02l3.09-5.339l11.304-20.124l-0.039-0.019l0.392-0.646v-1.584L73.298,161.969z M42.398,151.585
			l-0.019,14.432l0.742-1.192v-13.24H42.398z M46.251,151.585v15.528l-1.369,2.21l0.019,11.754l-0.058,0.137l-29.98,55.209h-1.996
			l-0.567,1.115h0.606L0,261.278h1.388l-0.43,0.782h34.419l0.45-0.782H20.241l13.221-23.742h1.33l3.637-6.473h-0.019l9.094-16.408
			v-5.613l3.109-5.534l1.173-2.054v-0.02l6.453-11.577v-1.643l-6.453,11.519v-2.836l8.82-15.88l-0.294-0.508v-11.695l-9.328-17.229
			H46.251z M52.177,151.585l9.094,16.506l0.078,0.137v11.304l0.216,0.332l10.697-19.283v-0.02v0.02l0.038-2.23l-0.411-0.625
			l-0.038-6.141H52.177z M538.592,162.204l0.587,0.997l-43.573,71.969l-0.997,1.643l-3.286,0.019l-0.548,0.02l1.995,0.02h-6.63
			l-0.215,0.411h-0.039l-0.196,0.352l28.495-0.039l0.156-0.313h-1.526l0.489-0.763h1.271l3.148-5.143h0.919l31.389-52.236
			l-0.587-0.997l9.68-15.782l-10.364-16.936L538.592,162.204z M436.388,161.089l0.998,1.995l-24.25,41.871l0.469,0.685
			l-5.946,10.385l0.548,1.115l-0.294,0.508l0.45,0.802v-0.019l0.411,0.743l-5.006,7.568v0.606l-0.646,1.134v8.332h-0.646
			l-0.019-8.332l0.625-1.134v-0.606l4.655-7.236l-1.859-3.012l-11.773,20.319h2.484l4.068-6.298l0.019,1.017l-3.441,5.281h0.39
			l-0.294,0.547h-0.742l-0.196,0.235h29.668l0.195-0.313l0.235-0.469h-9.954l1.134-2.112l0.019-0.039l6.356-11.402v0.02
			l23.996-42.164l-0.958-1.78l1.037-1.819l8.624-15.548l-6.63-12.066l-9.641,16.154l-0.568-1.037l-0.801,1.33l-1.682-3.286
			l0.919-1.466l1.936,3.422l9.368-15.606l-3.09-5.574L436.388,161.089z M207.399,157.315l0.998,1.604l21.258-33.227l0.019-3.09
			L207.399,157.315z M366.943,171.004h-3.305l-0.431,0.782h13.729l0.45-0.782h3.324l23.058-40.247l-7.334-11.284L366.943,171.004z
			 M308.546,112.765l-0.273,0.43h-0.215l-2.719,4.674h-0.958l2.738-4.674h-0.9l-0.234-0.43h-0.371l-2.992,5.105h-0.548l-0.411,0.762
			h10.933l-3.051-5.358h0.411l3.109,5.358h16.604v14.296l0.763-1.271v-13.807h0.84v14.55l-1.603,2.562v3.422l-4.674,7.353h0.685
			l-0.548,0.978l0.606,1.135l-1.194,2.19h-6.727l-0.861,1.564h3.228l-4.987,8.332h-28.945l-6.649,11.147h3.207l-0.431,0.782h27.38
			l-3.345,6.043h-0.782l-5.535,9.896l1.271,2.288h-0.782l-1.096-1.838l-8.703,15.685v0.019l-6.551,11.91l10.404,17.464l6.884-12.497
			v-0.02l16.878-30.43h0.39l16.232-29.335l-0.958-1.74l4.283-7.706h-3.207l0.842-1.564h6.746l1.525-2.757h1.878l0.861-1.545h-1.897
			l12.731-21.825v-2.034l0.411-0.763v-3.266l2.855-5.065h-3.266l-47.914-0.02H308.546z M650.261,112.765l1.095,2.014l1.194-2.014
			H650.261z M655.307,112.765l-3.403,5.886h3.735l0.45-0.782h0.529l2.991-5.105H655.307z M660.919,112.765l-2.992,5.105h-0.469
			l-0.45,0.782h12.341l20.866,0.02v14.413l-0.117,0.176l-0.684,1.213v3.911l-3.384,6.024l-0.821,1.33h2.464l-0.861,1.545h-1.447
			l0.117,0.273h-0.078l-1.565,2.758h-5.848l-0.997,1.701h2.483l-5.163,9.251l-0.039-0.059l-0.098,0.176l-15.821,28.181
			l-11.05,19.791l-0.529-0.88l-6.844,12.262l8.096,13.534l1.134,2.034h1.976l5.946-10.659l0.548,0.88l26.46-47.386l0.039,0.058
			l9.778-17.542l0.156-0.235l-1.115-0.039l5.379-9.543l0.234-0.235h-1.74l0.88-1.564h5.222l1.526-2.757h5.612l0.88-1.545h-5.652
			l11.91-21.513l0.391-0.704v-7.783l2.405-2.953h-0.646l-51.57-0.02H660.919z M128.213,112.745H32.836l3.226,5.886h62.64v14.453
			l-0.763,1.408l-0.02,3.912l-18.676,32.757h-4.909l-0.43,0.782h19.752l0.411-0.782h5.28l26.734-46.545v-6.063l0.606-1.075v7.138
			l1.525-2.738v-7.158l1.115-1.975H128.213z M281.832,112.745l-34.695,58.26h-5.163l-0.469,0.782h13.748l0.39-0.782h5.203
			l31.251-51.591l0.529-0.763h0.723l1.056-0.02l0.469-0.762h0.528l2.992-5.105h-1.604l-11.127-0.02H281.832z M412.079,112.745
			l0.254,0.45h-1.447l-0.235-0.45h-9.505l-3.872,6.728l7.334,11.284l7.49-13.142l-2.249-4.068h0.411l-0.175-0.352h0.488l0.489,0.88
			l1.369,2.112l0.078,0.157l1.213,1.916l0.177-0.274l-0.567-0.861l2.503-4.381H412.079z M449.159,112.745l-0.039,21.689l0.685-1.213
			l0.098-20.476H449.159z M472.217,112.745h-19.752l-0.079,20.476l-0.684,1.213v3.912l-2.601,4.693l1.799,3.246l-0.645,1.095
			l7.744,13.729l20.553-36.669v-11.695H472.217z M480.665,112.745v11.714l1.447-2.425l0.039-4.713l-0.411-0.508v-4.068H480.665z
			 M484.323,112.745l-0.039,9.055l3.226-5.808l1.74-3.247H484.323z M634.264,114.779l-33.559,56.226h-3.188l-0.45,0.782h15.803
			l0.449-0.782h1.271l31.721-52.353h0.548h0.528l2.269-3.872l-1.154-2.014l-13.103-0.02L634.264,114.779z M2.972,112.726
			l0.469,0.782h4.87l3.833,5.124h22.764l-3.207-5.886H7.705v-0.019H2.972z M228.442,112.726v0.019h-80.593v-0.019h-3.051
			l0.469,0.782h3.051l3.207,5.124h11.714l-3.305-5.436h1.213l3.285,5.436h30.431v5.163l0.684-1.232l0.098-0.156v-4.557h4.812v15.235
			l-0.079,0.176l-0.684,1.232v3.912l-4.42,7.275l1.173,1.916l-8.82,14.609l9.954,16.486l10.014-16.643l-2.171-3.618l22.412-34.83
			v-0.606l0.646-1.135l-0.039-8.351h1.819l0.019,6.317l4.576-7.099H228.442z M238.044,112.726l-0.254,0.469h-0.411l0.234-0.469
			h-0.919l-4.576,7.099l0.039,4.772l1.525-2.738v-1.916l4.126-6.747h0.958l0.254-0.469H238.044z M589.596,112.745h0.038l-0.019,0.02
			L589.596,112.745z M582.711,112.745l-84.642-0.019l0.47,0.782h3.187l3.149,5.124h11.773l-3.089-5.124h1.603l3.09,5.124h33.676
			v5.183l0.744-1.252l0.058-0.156v-4.557h2.445v15.235l-0.079,0.176l-0.704,1.232l0.02,3.912l-4.245,7.021l10.366,16.936
			l22.041-36.004v-12.849h1.564v8.331l4.695-8.331h1.232l0.782-0.782L582.711,112.745z M301.662,112.686l-3.422,5.906l1.721-0.02
			l0.411-0.763h0.547l2.973-5.124H301.662z M130.737,112.667v9.153l5.123-9.153H130.737z"/>
	</defs>
	<clipPath id="SVGID_00000028323911354093412060000003119677322058510003_">
		<use xlink:href="#SVGID_00000001652173947533873350000012778458049649508760_"  overflow="visible"/>
	</clipPath>
	
		<linearGradient id="SVGID_00000093869024823458676300000012567537145673798036_" gradientUnits="userSpaceOnUse" x1="-157.2281" y1="781.2075" x2="-137.6706" y2="781.2075" gradientTransform="matrix(0 -7.6387 -7.6387 0 6327.4087 -938.9579)">
		<stop  offset="0" style="stop-color:#31B2D2"/>
		<stop  offset="0.1593" style="stop-color:#2EACCD"/>
		<stop  offset="0.3678" style="stop-color:#279CC0"/>
		<stop  offset="0.6035" style="stop-color:#1B81AA"/>
		<stop  offset="0.8575" style="stop-color:#0B5B8B"/>
		<stop  offset="1" style="stop-color:#004377"/>
	</linearGradient>
	
		<rect x="-0.001" y="112.667" clip-path="url(#SVGID_00000028323911354093412060000003119677322058510003_)" fill="url(#SVGID_00000093869024823458676300000012567537145673798036_)" width="720" height="149.394"/>
</g>
<polygon fill="#004377" points="494.843,64.831 505.756,64.831 505.756,62.544 494.843,62.544 494.843,58.534 491.147,58.554 
	491.147,62.544 480.82,62.544 480.82,64.831 491.166,64.831 491.147,69.545 481.954,69.545 481.954,85.835 485.065,85.855 
	485.084,71.716 491.088,71.716 491.088,88.182 494.804,88.163 494.804,71.716 500.984,71.716 500.984,83.372 499.106,83.372 
	497.522,85.522 504.23,85.522 504.23,69.545 494.804,69.545 "/>
<path fill="#004377" d="M417.379,60.177l-10.952-0.019v0.997h-2.523l-0.84,1.173h-4.791V58.26h-3.012v4.068h-4.166v2.307h4.106
	l-0.019,4.987h-5.085v2.269h5.946l-5.515,7.491h2.895v8.253l10.462,0.019V74.962l-6.904-0.02l2.132-3.051h6.083v-2.269h-4.283
	l5.515-7.529v26.382h3.207V62.758h4.166l-2.817,9.446h3.403v11.167h-1.955l-1.546,2.152h6.748V70.131h-3.051L417.379,60.177z
	 M401.362,64.635l-3.168,4.322v-4.322H401.362z M401.147,82.217v3.246l-5.025-0.019v-3.227H401.147z M396.122,80.144l0.019-2.952
	h5.006l-0.039,2.952H396.122z"/>
<polygon fill="#004377" points="327.575,63.618 327.536,58.26 324.739,58.26 324.739,63.599 "/>
<polygon fill="#004377" points="310.286,64.909 310.286,58.182 307.588,58.182 307.548,64.929 "/>
<polygon fill="#004377" points="304.928,64.909 304.928,58.182 302.17,58.182 302.209,64.929 "/>
<path fill="#004377" d="M325.579,71.226l-3.247,4.498v-5.535h6.16v-2.405h-6.121v-9.602h-3.266l0.019,9.583h-3.579v-1.642h-2.464
	l5.613-7.96h-3.149l-5.437,7.96h-8.037v12.262h5.377l-0.019,2.288h-5.418v2.386h5.418v5.358h2.835v-5.358h5.164v-2.386h-5.164
	v-2.288l5.281-0.02l-0.039-8.175l3.657-0.019v9.876l-6.102,8.37h3.207l2.895-3.97v4.029h9.505l-3.012-2.386h-3.364v-5.965
	l6.532-8.898H325.579z M310.266,73.123h2.973v3.149h-2.973V73.123z M310.266,68.253h2.973v2.992h-2.973V68.253z M307.49,73.123
	l-0.019,3.149h-2.973v-3.149H307.49z M307.471,68.234l-0.02,3.012h-2.992v-3.012H307.471z"/>
<polygon fill="#004377" points="228.637,75.822 232.881,71.48 232.86,69.134 220.012,69.134 220.012,71.363 229.145,71.363 
	225.547,75 225.566,76.644 214.262,76.644 214.262,78.932 225.586,78.932 225.586,86.382 222.223,86.382 220.775,88.475 
	228.637,88.475 228.637,78.932 238.983,78.932 238.983,76.644 228.637,76.644 "/>
<polygon fill="#004377" points="233.8,63.345 237.32,58.182 234.113,58.162 230.612,63.345 227.306,63.345 227.306,58.162 
	224.432,58.162 224.432,63.345 221.771,63.345 221.771,58.162 218.858,58.162 218.858,63.345 214.281,63.325 214.281,71.128 
	217.332,71.128 217.332,65.692 236.009,65.692 236.009,71.109 239.1,71.109 239.1,63.345 "/>
<polygon fill="#004377" points="182.112,277.941 182.112,265.288 178.435,265.288 178.435,262.081 189.641,262.081 189.641,265.288 
	185.906,265.288 185.906,277.941 "/>
<polygon fill="#004377" points="211.448,277.941 211.448,271.194 204.954,271.194 204.954,277.941 201.161,277.941 201.161,262.081 
	204.954,262.081 204.954,268.534 211.448,268.534 211.448,262.081 215.26,262.081 215.26,277.941 "/>
<polygon fill="#004377" points="228.442,277.941 228.442,262.081 237.887,262.081 237.887,265.014 232.118,265.014 232.118,268.593 
	237.535,268.593 237.535,271.429 232.118,271.429 232.118,274.949 237.887,274.949 237.887,277.941 "/>
<path fill="#004377" d="M281.733,277.941l-0.861-2.953h-6.942l-0.861,2.953h-3.716l5.475-15.861h5.143l5.456,15.861H281.733z
	 M277.079,264.349l-0.548,2.034l-0.039,0.176l-1.78,5.906h5.417l-1.838-5.925l-0.528-2.191l-0.039-0.137h-0.606L277.079,264.349z"/>
<path fill="#004377" d="M301.447,278.371c-2.171,0-3.795-0.625-5.457-2.131l1.644-2.699l3.891,2.034l2.405-2.073
	c0-1.642-1.271-2.092-3.051-2.542c-2.991-0.782-4.165-1.995-4.165-4.243c0-2.953,2.209-5.026,5.358-5.026l4.458,1.252l-1.115,2.562
	l-3.012-1.115l-2.19,1.741l2.757,2.151l0.158,0.039c2.776,0.743,4.283,1.702,4.283,4.576
	C307.412,276.24,305.065,278.371,301.447,278.371"/>
<polygon fill="#004377" points="321.767,277.941 321.767,265.288 318.051,265.288 318.051,262.081 329.257,262.081 329.257,265.288 
	325.541,265.288 325.541,277.941 "/>
<polygon fill="#004377" points="340.795,277.941 340.795,262.081 350.221,262.081 350.221,265.014 344.49,265.014 344.49,268.593 
	349.907,268.593 349.907,271.429 344.49,271.429 344.49,274.949 350.221,274.949 350.221,277.941 "/>
<path fill="#004377" d="M370.951,277.941l-4.381-7.431v7.431h-3.521v-15.86h4.674c2.092,0,3.892,0,5.241,1.056l1.701,3.774
	c0,2.386-1.192,3.892-3.402,4.361l-0.529,0.118l4.42,6.551H370.951 M366.57,269.923h1.192c2.132,0,3.168-0.802,3.168-2.425
	c0-1.858-0.919-2.64-3.09-2.64h-1.27V269.923z"/>
<rect x="387.086" y="262.08" fill="#004377" width="3.853" height="15.861"/>
<path fill="#004377" d="M408.403,278.371c-2.152,0-3.795-0.625-5.437-2.131l1.642-2.699l3.872,2.034l2.445-2.073
	c0-1.642-1.29-2.092-3.07-2.542c-3.012-0.782-4.185-1.995-4.185-4.243c0-2.953,2.209-5.026,5.377-5.026l4.459,1.252l-1.096,2.562
	l-3.051-1.115l-2.19,1.741l2.757,2.151l0.158,0.039c2.776,0.743,4.302,1.702,4.302,4.576
	C414.387,276.24,412.021,278.371,408.403,278.371"/>
<path fill="#004377" d="M436.31,277.941l-5.75-7.862l5.573-7.999h4.342l-5.848,7.744l6.394,8.116H436.31z M430.365,277.941h-3.755
	V262.08h3.755V277.941z"/>
<polygon fill="#004377" points="484.928,277.941 482.952,271.135 482.404,268.925 482.385,268.789 481.74,268.789 481.563,269.591 
	481.152,271.135 479.216,277.941 475.54,277.941 471.081,262.081 474.895,262.081 476.733,269.747 477.222,272.192 477.261,272.348 
	477.886,272.348 477.945,272.211 478.513,269.747 480.527,262.081 483.597,262.081 485.631,269.708 486.139,272.035 486.16,272.152 
	486.804,272.29 486.883,271.957 487.372,269.688 489.23,262.081 493.062,262.081 488.565,277.941 "/>
<path fill="#004377" d="M514.361,277.941l-0.802-2.953h-7.002l-0.84,2.953h-3.736l5.496-15.861h5.143l5.476,15.861H514.361z
	 M509.726,264.349l-0.529,2.034l-0.059,0.176l-1.78,5.906h5.437l-1.819-5.925l-0.567-2.191l-0.039-0.137h-0.606L509.726,264.349z"/>
<path fill="#004377" d="M537.36,277.941l-4.341-7.431v7.431h-3.54v-15.86h4.654c2.092,0,3.912,0,5.241,1.056l1.721,3.774
	c0,2.386-1.192,3.892-3.441,4.361l-0.489,0.118l4.42,6.551H537.36 M533.019,269.923h1.192c2.112,0,3.129-0.802,3.129-2.425
	c0-1.858-0.919-2.64-3.089-2.64h-1.232V269.923z"/>
<polygon fill="#004377" points="264.622,295.835 263.253,295.835 263.253,288.638 261.023,288.638 261.023,287.485 266.832,287.485 
	266.832,288.638 264.622,288.638 "/>
<polygon fill="#004377" points="268.983,286.995 270.156,286.995 270.156,291.318 272.267,290.242 273.949,290.985 274.204,292.55 
	274.204,295.835 272.991,295.835 272.991,293.039 271.798,291.298 270.488,291.884 270.234,293.371 270.234,295.835 
	268.983,295.835 "/>
<path fill="#004377" d="M277.959,293.313l1.505,1.604l1.702-1.056l1.017,0.567l-2.68,1.623l-2.855-2.895l2.855-2.914
	c1.74,0,2.757,1.037,2.757,2.816v0.254H277.959 M279.524,291.298l-1.487,1.174h2.934L279.524,291.298z"/>
<path fill="#004377" d="M293.604,293.684h-3.305l-0.958,2.152h-1.447l4.048-8.683l4.049,8.683h-1.447L293.604,293.684z
	 M293.116,292.549l-0.842-1.897l-0.333-0.958l-0.273,0.958l-0.88,1.897H293.116z"/>
<path fill="#004377" d="M300.43,291.318l-1.663,1.799l1.721,1.799l1.447-0.685v1.428l-1.584,0.391l-2.855-2.894
	c0-1.76,1.192-2.914,2.992-2.914l1.447,0.332v1.389L300.43,291.318"/>
<path fill="#004377" d="M308.271,295.835v-0.704l-1.78,0.92c-1.506,0-2.445-1.076-2.445-2.914l2.405-2.895l1.819,1.076v-0.9h1.251
	v5.417H308.271 M306.825,291.337l-1.487,1.819l1.487,1.799l1.486-1.839L306.825,291.337z"/>
<path fill="#004377" d="M317.249,286.996v8.84h-1.232v-0.704l-1.78,0.92c-1.506,0-2.484-1.076-2.484-2.914l2.445-2.895l1.819,1.076
	v-4.322H317.249 M314.589,291.337l-1.525,1.819l1.486,1.799l1.486-1.839L314.589,291.337z"/>
<path fill="#004377" d="M321.003,293.313l1.525,1.604l1.702-1.056l1.055,0.567l-2.718,1.623l-2.855-2.895l2.855-2.914
	c1.74,0,2.778,1.037,2.778,2.816v0.254H321.003 M322.588,291.298l-1.506,1.174h2.953L322.588,291.298z"/>
<polygon fill="#004377" points="327.79,295.835 327.79,290.418 328.943,290.418 328.943,291.318 330.919,290.222 332.581,291.298 
	334.595,290.222 336.16,290.985 336.356,292.12 336.356,295.835 335.103,295.835 335.103,293.039 334.067,291.279 332.698,293.371 
	332.698,295.835 331.466,295.835 331.466,293.039 330.371,291.279 329.237,291.884 329.022,293.371 329.022,295.835 "/>
<polygon fill="#004377" points="338.723,298.377 340.247,295.366 338.252,290.418 339.602,290.418 340.599,293.215 340.853,294.29 
	341.245,293.313 342.575,290.418 343.925,290.418 340.032,298.377 "/>
<path fill="#004377" d="M354.23,288.521c-1.839,0-3.09,1.311-3.09,3.169c0,1.838,1.251,3.109,2.933,3.109l2.699-1.056v1.525
	l-2.601,0.782l-3.187-1.232l-1.252-3.149l1.252-3.149l3.168-1.232l2.699,0.841l-0.058,1.369L354.23,288.521"/>
<path fill="#004377" d="M359.843,287.308l0.763,0.782l-0.763,0.782l-0.801-0.782L359.843,287.308z M359.198,290.418h1.252v5.417
	h-1.252V290.418z"/>
<polygon fill="#004377" points="363.598,291.513 362.659,291.513 362.659,290.418 363.598,290.418 363.598,288.385 364.83,288.385 
	364.83,290.418 365.789,290.418 365.789,291.513 364.83,291.513 364.83,295.835 363.598,295.835 "/>
<polygon fill="#004377" points="367.979,298.377 369.465,295.366 367.49,290.418 368.859,290.418 369.855,293.215 370.13,294.29 
	370.501,293.313 371.812,290.418 373.181,290.418 369.288,298.377 "/>
<path fill="#004377" d="M379.693,291.083l2.113-0.841l2.112,0.861l0.88,2.033l-0.88,2.054l-2.112,0.861l-2.113-0.861l-0.88-2.054
	L379.693,291.083z M381.806,291.356l-1.683,1.799l1.683,1.78l1.682-1.78L381.806,291.356z"/>
<polygon fill="#004377" points="387.242,290.418 388.415,290.418 388.415,291.318 390.508,290.243 392.19,290.986 392.463,292.55 
	392.463,295.835 391.211,295.835 391.211,293.039 390.018,291.298 388.728,291.885 388.454,293.371 388.454,295.835 
	387.242,295.835 "/>
<polygon fill="#004377" points="399.778,291.513 398.819,291.513 398.819,290.418 399.778,290.418 399.778,288.385 401.029,288.385 
	401.029,290.418 401.948,290.418 401.948,291.513 401.029,291.513 401.029,295.835 399.778,295.835 "/>
<polygon fill="#004377" points="404.12,286.995 405.294,286.995 405.294,291.318 407.405,290.242 409.087,290.985 409.341,292.55 
	409.341,295.835 408.089,295.835 408.089,293.039 406.897,291.298 405.606,291.884 405.371,293.371 405.371,295.835 404.12,295.835 
	"/>
<path fill="#004377" d="M413.076,293.313l1.506,1.604l1.721-1.056l1.036,0.567l-2.718,1.623l-2.836-2.895l2.836-2.914
	c1.74,0,2.797,1.037,2.797,2.816v0.254H413.076 M414.661,291.298l-1.487,1.174h2.934L414.661,291.298z"/>
<polygon fill="#004377" points="424.517,287.484 426.101,291.689 426.531,292.999 427,291.611 428.682,287.152 430.443,291.689 
	430.893,293.019 431.283,291.728 432.848,287.484 434.217,287.484 430.97,296.148 429.054,291.376 428.682,290.222 428.252,291.415 
	426.394,296.148 423.167,287.484 "/>
<path fill="#004377" d="M438.951,295.835v-0.704l-1.761,0.92c-1.525,0-2.484-1.076-2.484-2.914l2.426-2.895l1.819,1.076v-0.9h1.251
	v5.417H438.951 M437.523,291.337l-1.506,1.819l1.467,1.799l1.505-1.839L437.523,291.337z"/>
<polygon fill="#004377" points="443.351,291.513 442.392,291.513 442.392,290.418 443.351,290.418 443.351,288.385 444.562,288.385 
	444.562,290.418 445.521,290.418 445.521,291.513 444.562,291.513 444.562,295.835 443.351,295.835 "/>
<path fill="#004377" d="M448.611,293.313l1.505,1.604l1.702-1.056l1.036,0.567l-2.718,1.623l-2.817-2.895l2.817-2.914
	c1.759,0,2.797,1.037,2.797,2.816v0.254H448.611 M450.176,291.298l-1.487,1.174h2.953L450.176,291.298z"/>
<polygon fill="#004377" points="457.941,290.242 458.977,290.477 458.527,291.533 457.783,291.318 456.61,293.449 456.61,295.835 
	455.378,295.835 455.378,290.418 456.61,290.418 456.61,291.298 "/>
</svg>
