<?xml version="1.0" encoding="utf-8"?>
<!-- Generator: Adobe Illustrator 27.2.0, SVG Export Plug-In . SVG Version: 6.00 Build 0)  -->
<svg version="1.1" id="레이어_1" xmlns="http://www.w3.org/2000/svg" xmlns:xlink="http://www.w3.org/1999/xlink" x="0px"
	 y="0px" viewBox="0 0 720 127.658" enable-background="new 0 0 720 127.658" xml:space="preserve">
<g>
	<path fill="#464949" d="M150.466,122.356c0,3.525-2.457,5.302-5.432,5.302c-1.796,0-3.407-0.833-3.926-1.228
		c-0.173-0.154-0.247-0.432-0.13-0.624l0.722-1.537c0.08-0.21,0.395-0.284,0.636-0.136c0.407,0.235,1.463,0.821,2.593,0.821
		c1.685,0,2.586-0.562,2.586-2.598v-0.303c-0.5,0.185-1.537,0.444-2.636,0.444c-3.253,0-5.401-2.506-5.401-5.703
		c0-3.309,2.235-5.722,5.222-5.722c2.315,0,3.568,1.635,3.568,1.635l0.29-0.883c0.093-0.296,0.253-0.518,0.525-0.518h0.87
		c0.278,0,0.512,0.247,0.512,0.518V122.356z M147.515,115.282c-0.241-0.617-1-1.512-2.414-1.512c-1.71,0-2.586,1.488-2.586,3.025
		c0,1.537,0.926,3.006,2.728,3.006c1.37,0,2.272-0.611,2.272-0.611V115.282z"/>
	<path fill="#464949" d="M168.922,107.548c0-1.043,0.809-1.864,1.864-1.864c1.068,0,1.895,0.821,1.895,1.864
		c0,1.043-0.827,1.889-1.895,1.889C169.731,109.437,168.922,108.591,168.922,107.548 M169.354,111.826
		c0-0.302,0.253-0.518,0.512-0.518h1.92c0.259,0,0.525,0.216,0.525,0.518v9.895c0,0.278-0.265,0.518-0.525,0.518h-1.92
		c-0.259,0-0.512-0.241-0.512-0.518V111.826z"/>
	<path fill="#464949" d="M191.823,114.788c0-7.425,3.173-9.179,5.87-9.314c0.259-0.031,0.444,0.136,0.444,0.358l0.074,1.556
		c0.025,0.185-0.117,0.395-0.284,0.42c-2.321,0.617-3.185,3.055-3.185,6.981c0,3.951,0.864,6.34,3.185,6.957
		c0.21,0.049,0.309,0.259,0.284,0.445l-0.074,1.537c-0.019,0.241-0.185,0.382-0.444,0.382
		C194.996,123.918,191.823,122.214,191.823,114.788"/>
	<path fill="#464949" d="M208.427,115.326c1.123,0,2.105,0.309,2.105,0.309c0.049-1.389-0.352-2.056-1.512-2.056
		c-0.988,0-2.438,0.21-3.068,0.407c-0.358,0.111-0.568-0.148-0.617-0.475l-0.241-1.235c-0.086-0.401,0.117-0.593,0.358-0.66
		c0.235-0.093,1.963-0.543,3.734-0.543c3.414,0,4.117,1.771,4.117,4.753v5.889c0,0.284-0.241,0.518-0.519,0.518h-0.802
		c-0.204,0-0.333-0.068-0.481-0.382l-0.302-0.722c-0.642,0.611-1.722,1.364-3.426,1.364c-2.179,0-3.691-1.389-3.691-3.735
		C204.082,116.813,205.668,115.326,208.427,115.326 M208.508,120.288c0.969,0,1.821-0.747,1.957-1.154v-1.605
		c0,0-0.734-0.333-1.599-0.333c-1.259,0-1.944,0.593-1.944,1.562C206.921,119.677,207.483,120.288,208.508,120.288"/>
	<path fill="#464949" d="M219.878,121.739c2.327-0.617,3.204-3.006,3.204-6.956c0-3.926-0.877-6.364-3.204-6.982
		c-0.154-0.018-0.303-0.234-0.278-0.42l0.074-1.555c0-0.222,0.185-0.389,0.444-0.358c2.704,0.136,5.87,1.889,5.87,9.315
		s-3.167,9.135-5.87,9.321c-0.259,0-0.42-0.142-0.444-0.383l-0.074-1.537C219.575,121.998,219.674,121.788,219.878,121.739"/>
	<path fill="#464949" d="M243.612,111.826c0-0.302,0.265-0.518,0.525-0.518h0.877c0.253,0,0.377,0.124,0.469,0.358l0.401,1.062
		c0.383-0.543,1.401-1.654,3.074-1.654c1.302,0,2.37,0.358,2.062,1.062l-0.71,1.611c-0.123,0.259-0.389,0.352-0.642,0.241
		c-0.259-0.124-0.525-0.222-1.018-0.222c-1.185,0-1.889,0.766-2.08,1.142v6.815c0,0.395-0.253,0.518-0.611,0.518h-1.821
		c-0.259,0-0.525-0.241-0.525-0.518V111.826z"/>
	<path fill="#464949" d="M268.636,106.196c0-0.259,0.265-0.512,0.525-0.512h1.92c0.259,0,0.512,0.253,0.512,0.512v15.524
		c0,0.284-0.253,0.519-0.512,0.519h-1.92c-0.259,0-0.525-0.235-0.525-0.519V106.196z"/>
	<path fill="#464949" d="M290.08,107.548c0-1.043,0.79-1.864,1.858-1.864c1.062,0,1.895,0.821,1.895,1.864
		c0,1.043-0.833,1.889-1.895,1.889C290.87,109.437,290.08,108.591,290.08,107.548 M290.493,111.826c0-0.302,0.265-0.518,0.525-0.518
		h1.92c0.259,0,0.512,0.216,0.512,0.518v9.895c0,0.278-0.253,0.518-0.512,0.518h-1.92c-0.259,0-0.525-0.241-0.525-0.518V111.826z"/>
	<path fill="#464949" d="M312.005,121.498c-0.142-0.099-0.266-0.352-0.142-0.592l0.71-1.42c0.111-0.253,0.383-0.352,0.636-0.185
		c0.5,0.309,1.278,0.71,2.414,0.71c0.827,0,1.21-0.309,1.21-0.778c0-0.5-0.617-0.951-2.062-1.513
		c-2.105-0.809-3.056-1.796-3.056-3.457c0-1.654,1.265-3.191,3.932-3.191c1.611,0,2.654,0.42,3.241,0.796
		c0.228,0.198,0.377,0.481,0.228,0.76l-0.605,1.259c-0.173,0.259-0.457,0.303-0.691,0.21c-0.518-0.235-1.278-0.543-2.173-0.543
		c-0.735,0-1.043,0.358-1.043,0.71c0,0.494,0.549,0.753,1.568,1.185c2.105,0.846,3.617,1.599,3.617,3.784
		c0,1.722-1.469,3.259-4.216,3.259C313.758,122.492,312.622,121.924,312.005,121.498"/>
	<path fill="#464949" d="M337.961,106.196c0-0.259,0.259-0.512,0.512-0.512h1.926c0.272,0,0.512,0.253,0.512,0.512v5.802
		c0.537-0.475,1.488-0.926,2.79-0.926c3.475,0,4.42,2.413,4.42,5.154v5.494c0,0.284-0.259,0.519-0.512,0.519h-1.92
		c-0.284,0-0.518-0.235-0.518-0.519v-5.518c0-1.512-0.679-2.432-1.988-2.432c-1.272,0-1.988,0.802-2.271,1.914v6.037
		c0,0.303-0.142,0.519-0.562,0.519h-1.877c-0.253,0-0.512-0.235-0.512-0.519V106.196z"/>
	<path fill="#464949" d="M388.392,111.826c0-0.302,0.259-0.518,0.518-0.518h0.901c0.259,0,0.377,0.124,0.457,0.333l0.395,1.025
		c0.407-0.457,1.42-1.593,3.518-1.593c3.481,0,4.383,2.339,4.383,4.993v5.654c0,0.278-0.265,0.518-0.525,0.518h-1.914
		c-0.29,0-0.519-0.241-0.519-0.518v-5.654c0-1.426-0.574-2.302-1.895-2.302c-1.414,0-2.105,0.951-2.364,1.71v6.247
		c0,0.395-0.16,0.518-0.685,0.518h-1.753c-0.259,0-0.518-0.241-0.518-0.518V111.826z"/>
	<path fill="#464949" d="M417.206,111.826c0-0.302,0.241-0.518,0.525-0.518h1.914c0.278,0,0.518,0.216,0.518,0.518v5.796
		c0,1.444,0.494,2.179,1.846,2.179c1.21,0,1.771-1.093,1.938-2.037v-5.938c0-0.42,0.142-0.518,0.593-0.518h1.839
		c0.284,0,0.525,0.216,0.525,0.518v9.895c0,0.278-0.241,0.518-0.525,0.518h-0.846c-0.253,0-0.451-0.191-0.525-0.413l-0.302-0.914
		c-0.568,0.586-1.71,1.586-3.376,1.586c-3.383,0-4.123-2.105-4.123-4.876V111.826z"/>
	<path fill="#464949" d="M445.773,111.826c0-0.302,0.271-0.518,0.531-0.518h0.852c0.228,0,0.395,0.124,0.451,0.309l0.389,1.05
		c0.463-0.531,1.426-1.593,3.339-1.593c1.586,0,2.364,0.568,3.259,1.654c0.481-0.5,1.568-1.654,3.531-1.654
		c3.5,0,4.321,2.222,4.321,5.062v5.586c0,0.278-0.222,0.518-0.543,0.518h-1.883c-0.29,0-0.525-0.241-0.525-0.518v-5.654
		c0-1.426-0.519-2.302-1.889-2.302c-1.586,0-2.043,1.142-2.043,1.142s0.062,0.543,0.062,1.031v5.784
		c0,0.278-0.265,0.518-0.525,0.518h-1.951c-0.302,0-0.506-0.241-0.506-0.518v-5.654c0-1.426-0.407-2.302-1.809-2.302
		c-1.333,0-1.846,0.951-2.099,1.71v6.247c0,0.278-0.259,0.518-0.518,0.518h-1.914c-0.259,0-0.531-0.241-0.531-0.518V111.826z"/>
	<path fill="#464949" d="M481.217,106.196c0-0.259,0.265-0.512,0.525-0.512h1.907c0.29,0,0.531,0.253,0.531,0.512v5.352
		c0.494-0.216,1.587-0.475,2.667-0.475c3.241,0,5.296,2.506,5.296,5.703c0,3.117-2.148,5.722-5.123,5.722
		c-2.389,0-3.648-1.635-3.648-1.635l-0.253,0.858c-0.123,0.303-0.29,0.518-0.543,0.518h-0.833c-0.259,0-0.525-0.241-0.525-0.518
		V106.196z M486.593,119.801c1.691,0,2.574-1.481,2.574-3.025c0-1.537-0.92-3.012-2.722-3.012c-1.37,0-2.265,0.617-2.265,0.617
		v3.907C484.408,118.899,485.167,119.801,486.593,119.801"/>
	<path fill="#464949" d="M515.241,111.072c2.839,0,5.012,2.105,5.012,5.062c0,0.167-0.025,0.543-0.043,0.704
		c-0.025,0.284-0.284,0.5-0.518,0.5h-7c0.018,1.346,1.129,2.537,2.716,2.537c1.08,0,1.845-0.414,2.339-0.809
		c0.253-0.21,0.537-0.235,0.71,0l0.926,1.222c0.185,0.222,0.21,0.481-0.049,0.716c-0.938,0.802-2.29,1.488-4.068,1.488
		c-3.265,0-5.537-2.599-5.537-5.716C509.729,113.696,512,111.072,515.241,111.072 M517.272,115.399
		c-0.043-1.068-0.895-1.889-2.099-1.889c-1.327,0-2.179,0.796-2.321,1.889H517.272z"/>
	<path fill="#464949" d="M538.327,111.826c0-0.302,0.259-0.518,0.531-0.518h0.87c0.259,0,0.377,0.124,0.469,0.358l0.401,1.062
		c0.389-0.543,1.401-1.654,3.074-1.654c1.296,0,2.37,0.358,2.068,1.062l-0.716,1.611c-0.124,0.259-0.383,0.352-0.642,0.241
		c-0.259-0.124-0.519-0.222-1.012-0.222c-1.185,0-1.895,0.766-2.086,1.142v6.815c0,0.395-0.253,0.518-0.611,0.518h-1.815
		c-0.272,0-0.531-0.241-0.531-0.518V111.826z"/>
</g>
<g>
	<path fill="#48FFDC" d="M649.565,48.765l-1.278,9.784c-0.142,1.123,0.648,2.025,1.784,2.025h21.228l-21.611-12.697L649.565,48.765z
		"/>
	<path fill="#464949" d="M718.199,45.623h-17.061c-1.117,0-2.698,0.642-3.481,1.444l-1.506,1.488c-0.796,0.796-2.086,0.796-2.883,0
		l-1.858-1.858l-9.123-9.129c-0.796-0.796-2.099-0.796-2.895,0l-6.605,6.605c-0.796,0.802-2.364,1.45-3.5,1.45h-17.253
		c-1.13,0-2.142,0.698-2.253,1.568l-0.099,0.685l21.617,12.703h4.185c1.136,0,2.691-0.654,3.494-1.45l0.413-0.414
		c0.784-0.79,2.099-0.79,2.895,0l1.839,1.864l9.142,9.123c0.796,0.802,2.086,0.802,2.883,0l7.691-7.679
		c0.809-0.802,2.364-1.444,3.494-1.444h8.901c1.13,0,2.167-0.914,2.327-2.031l1.42-10.901
		C720.131,46.525,719.322,45.623,718.199,45.623"/>
</g>
<g>
	<path fill="#464949" d="M639.411,1.291c-2.216,3.445-4.327,5.827-7.284,7.697c-2.543,1.586-6.253,1.463-8.049-0.099
		c-2.222-1.938-3.778-4.123-5.136-7.278c-0.858-2.012-2.234-2.16-3.45-0.333c-3.136,4.79-6.111,7.438-11.197,10
		c-1.969,0.981-1.994,2.389-0.099,3.506c4.16,2.438,6.413,5.006,8.308,9.487c0.864,2.012,2.241,2.161,3.444,0.327
		c2.253-3.395,4.413-5.697,7.296-7.722c3.062-2.142,6.339-1.463,8.413,0.451c2,1.852,3.451,3.969,4.741,6.944
		c0.852,2.012,2.241,2.161,3.444,0.321c3.136-4.79,6.117-7.444,11.216-9.994c1.963-0.981,1.975-2.389,0.08-3.5
		c-4.154-2.438-6.413-5.019-8.302-9.481C641.978-0.4,640.602-0.548,639.411,1.291"/>
	<path fill="#464949" d="M614.695,34.766l6.271,46.166c0.142,1.123,1.191,2.037,2.327,2.037h11.666c1.136,0,1.932-0.914,1.771-2.037
		l-6.265-46.166c-0.16-1.123-1.197-2.024-2.327-2.024h-11.672C615.337,32.741,614.541,33.643,614.695,34.766"/>
	<path fill="#464949" d="M570.641,82.962h11.685c1.117,0,2.154-0.907,2.302-2.037l10.111-77.226c0.16-1.117-0.636-2.019-1.772-2.019
		h-11.666c-1.136,0-2.185,0.901-2.315,2.019l-10.129,77.226C568.708,82.055,569.505,82.962,570.641,82.962"/>
</g>
<g>
	<path fill="#464949" d="M496.266,81.968l53.992-7.074c1.13-0.154,2.154-1.185,2.302-2.302l1.574-11.987
		c0.142-1.123-0.642-1.914-1.772-1.765l-53.986,7.074c-1.13,0.154-2.16,1.185-2.302,2.296l-1.568,11.993
		C494.352,81.326,495.142,82.11,496.266,81.968"/>
	<g>
		<path fill="#FFA539" d="M515.383,30.056h20.968c1.13,0,2.173-0.907,2.315-2.024l1.438-10.901c0.062-0.543-0.086-1.018-0.383-1.376
			L515.383,30.056z"/>
		<path fill="#464949" d="M538.314,15.099h-34.431c-1.136,0-2.179,0.908-2.309,2.031l-1.438,10.901
			c-0.142,1.111,0.654,2.025,1.784,2.025h13.463l24.345-14.308C539.407,15.352,538.901,15.099,538.314,15.099"/>
	</g>
</g>
<path fill="#464949" d="M466.137,1.68h-11.679c-1.123,0-2.16,0.902-2.315,2.019l-1.284,9.876c-0.154,1.117-1.185,2.031-2.321,2.031
	h-21.487c-1.13,0-2.173,0.901-2.309,2.025l-1.432,10.901c-0.148,1.111,0.648,2.025,1.784,2.025h21.493
	c1.123,0,1.926,0.914,1.772,2.037l-6.333,48.332c-0.154,1.13,0.648,2.037,1.784,2.037h11.666c1.142,0,2.173-0.907,2.321-2.037
	l6.345-48.332c0.136-1.123,1.173-2.037,2.309-2.037h13.253c1.136,0,2.173-0.914,2.321-2.025l1.426-10.901
	c0.142-1.123-0.654-2.025-1.778-2.025h-13.265c-1.136,0-1.926-0.914-1.784-2.031l1.296-9.876
	C468.069,2.581,467.273,1.68,466.137,1.68"/>
<g>
	<g>
		<path fill="#FF5082" d="M365.72,68.005c-1.136,0-2.173,0.902-2.309,2.019l-1.167,8.845l-0.179,1.346l20.777-12.21H365.72z"/>
		<path fill="#464949" d="M413.354,68.005h-30.506l-20.777,12.21l-0.086,0.71c-0.154,1.123,0.642,2.037,1.778,2.037h47.635
			c1.136,0,2.173-0.914,2.315-2.037l1.432-10.895C415.286,68.907,414.496,68.005,413.354,68.005"/>
	</g>
	<path fill="#464949" d="M393.077,64.53h10.864c1.13,0,2.167-0.907,2.303-2.031l2.87-22.376c0.13-1.136-0.66-2.043-1.79-2.043
		h-37.092c-1.117,0-2.16,0.908-2.309,2.037l-1.426,10.895c-0.148,1.117,0.642,2.031,1.778,2.031h22.172
		c1.136,0,1.932,0.914,1.79,2.037l-0.944,7.419C391.145,63.623,391.941,64.53,393.077,64.53"/>
</g>
<g>
	<path fill="#464949" d="M302.079,84.591l44.437-26.116c0.975-0.574,1.87-1.951,1.994-3.074l1.648-14.901
		c0.136-1.123-0.562-1.568-1.531-1l-44.443,26.117c-0.969,0.574-1.87,1.944-1.988,3.074l-1.654,14.895
		C300.407,84.709,301.104,85.159,302.079,84.591"/>
	<g>
		<path fill="#48FFDC" d="M308.19,40.432h15.796c1.136,0,2.167-0.907,2.321-2.037l1.222-9.333L308.19,40.432z"/>
		<path fill="#464949" d="M327.684,27.877c0,0,0.074-0.537,0.154-1.197c0.099-0.673-0.759-1.204-1.883-1.204h-26.314
			c-1.136,0-2.173,0.908-2.315,2.025l-1.42,10.895c-0.148,1.129,0.648,2.037,1.784,2.037h10.506l19.339-11.37L327.684,27.877z"/>
	</g>
	<path fill="#464949" d="M328.604,1.68h-26.314c-1.13,0-2.154,0.902-2.309,2.019l-1.426,10.907
		c-0.154,1.111,0.648,2.025,1.784,2.025h26.308c1.13,0,2.16-0.914,2.309-2.025l1.432-10.907
		C330.535,2.581,329.739,1.68,328.604,1.68"/>
</g>
<g>
	<g>
		<path fill="#FFA539" d="M280.203,72.055l1.315-10.024c0.148-1.129-0.642-1.914-1.765-1.771l-16.037,2.111l-0.074,0.012
			l16.555,9.722L280.203,72.055z"/>
		<path fill="#464949" d="M263.648,62.376l-27.808,3.642c-1.117,0.142-2.148,1.173-2.296,2.29l-1.568,11.981
			c-0.148,1.136,0.648,1.92,1.765,1.778l43.919-5.759c1.111-0.148,2.142-1.16,2.284-2.259l0.259-1.951L263.648,62.376z"/>
	</g>
	<path fill="#464949" d="M250.254,53.784l-2.765-21.098c-0.154-1.129-1.185-2.031-2.321-2.031h-11.666
		c-1.136,0-1.932,0.901-1.79,2.031l2.772,21.098c0.154,1.13,1.185,2.037,2.309,2.037h11.685
		C249.599,55.821,250.402,54.914,250.254,53.784"/>
	<path fill="#464949" d="M271.617,53.784l-2.765-21.098c-0.154-1.129-1.179-2.031-2.321-2.031h-11.673
		c-1.13,0-1.92,0.901-1.778,2.031l2.759,21.098c0.16,1.13,1.191,2.037,2.315,2.037h11.679
		C270.969,55.821,271.759,54.914,271.617,53.784"/>
</g>
<g>
	<path fill="#464949" d="M190.49,82.962h11.679c1.136,0,2.167-0.907,2.315-2.037L214.6,3.699c0.154-1.117-0.648-2.019-1.778-2.019
		H201.15c-1.136,0-2.167,0.901-2.315,2.019l-10.129,77.226C188.564,82.055,189.36,82.962,190.49,82.962"/>
	<g>
		<path fill="#FF5082" d="M160.497,41.765v4.278c0,1,0.821,1.815,1.821,1.815h11.296c0.994,0,1.815-0.815,1.815-1.815V30.179
			L160.497,41.765z"/>
		<path fill="#464949" d="M175.428,3.519c0-1-0.821-1.814-1.815-1.814h-11.296c-1,0-1.821,0.815-1.821,1.814v38.246l14.932-11.586
			V3.519z"/>
	</g>
</g>
<path fill="#464949" d="M119.985,48.562l-0.401-0.413c-0.796-0.79-2.093-2.092-2.895-2.901c-2.012-2.006-5.66-5.654-7.673-7.673
	c-0.809-0.796-2.105-0.796-2.901,0l-6.599,6.598c-0.802,0.802-2.37,1.451-3.506,1.451H78.758c-1.123,0-2.154,0.901-2.315,2.037
	l-1.42,10.889c-0.154,1.123,0.642,2.031,1.778,2.031h25.413c1.13,0,2.691-0.648,3.494-1.444l0.407-0.413
	c0.796-0.79,2.093-0.79,2.901,0l0.401,0.413c0.796,0.796,2.093,2.092,2.901,2.895c2.006,2.019,5.654,5.661,7.667,7.679
	c0.809,0.802,2.105,0.802,2.901,0l7.685-7.679c0.802-0.802,2.364-1.45,3.494-1.45h8.901c1.13,0,2.167-0.907,2.309-2.031L146.7,47.66
	c0.154-1.136-0.636-2.037-1.778-2.037h-17.061c-1.123,0-2.691,0.642-3.487,1.45l-1.488,1.487
	C122.09,49.358,120.794,49.358,119.985,48.562"/>
<g>
	<path fill="#464949" d="M102.615,1.291c-2.21,3.445-4.315,5.827-7.29,7.697c-2.525,1.586-6.259,1.463-8.031-0.099
		c-2.235-1.938-3.778-4.123-5.136-7.278c-0.864-2.012-2.253-2.16-3.463-0.333c-3.136,4.79-6.105,7.438-11.203,10
		c-1.963,0.981-1.988,2.389-0.099,3.506c4.173,2.438,6.432,5.006,8.321,9.487c0.852,2.012,2.241,2.161,3.444,0.327
		c2.247-3.395,4.413-5.697,7.284-7.722c3.068-2.142,6.358-1.463,8.42,0.451c2.012,1.852,3.457,3.969,4.728,6.944
		c0.864,2.012,2.259,2.161,3.457,0.321c3.142-4.79,6.123-7.444,11.216-9.994c1.957-0.981,1.981-2.389,0.086-3.5
		c-4.16-2.438-6.413-5.019-8.308-9.481C105.183-0.4,103.807-0.548,102.615,1.291"/>
	<g>
		<path fill="#48FFDC" d="M44.018,67.907v13c0,1.136,0.914,2.056,2.049,2.056h10.858c1.13,0,2.049-0.92,2.049-2.056V59.117
			L44.018,67.907z"/>
		<path fill="#464949" d="M58.968,14.593c0-1.136-0.914-2.049-2.049-2.049H34.975c-1.13,0-2.16,0.907-2.302,2.037L31.308,25.47
			c-0.142,1.117,0.654,2.031,1.79,2.031h8.864c1.136,0,2.049,0.92,2.049,2.056v38.351l14.956-8.784V14.593z"/>
	</g>
	<path fill="#464949" d="M10.531,12.513H3.753c-1.123,0-2.154,0.908-2.309,2.031L0.019,25.439c-0.154,1.117,0.648,2.025,1.784,2.025
		h6.839c1.136,0,1.938,0.907,1.802,2.037L3.976,80.925c-0.136,1.13,0.667,2.031,1.796,2.031h11.679c1.136,0,2.167-0.901,2.309-2.031
		l6.716-53.461l0.216-1.667l2.765-22.098c0.142-1.111-0.648-2.018-1.784-2.018H15.988c-1.13,0-2.167,0.907-2.309,2.018l-0.846,6.784
		C12.692,11.606,11.661,12.513,10.531,12.513"/>
</g>
</svg>
