<?xml version="1.0" encoding="utf-8"?>
<!-- Generator: Adobe Illustrator 27.1.1, SVG Export Plug-In . SVG Version: 6.00 Build 0)  -->
<svg version="1.1" id="레이어_1" xmlns="http://www.w3.org/2000/svg" xmlns:xlink="http://www.w3.org/1999/xlink" x="0px"
	 y="0px" viewBox="0 0 720 326.108" enable-background="new 0 0 720 326.108" xml:space="preserve">
<path d="M587.779,29.092c-0.538,0-0.975-0.3-1.187-0.8c-0.2-0.5-0.112-1.025,0.287-1.412l1.149-1.162
	c2.262-2.262,5.298-3.523,8.521-3.523h44.756c0.549,0,0.987,0.3,1.199,0.8c0.201,0.5,0.1,1.025-0.287,1.412l-1.137,1.15
	c-2.287,2.274-5.311,3.536-8.534,3.536H587.779z"/>
<path d="M67.847,227.494c-1.887,0-3.436-1.549-3.436-3.436v-94.822c0-5.223-4.236-9.471-9.471-9.471H1.3c-0.537,0-0.987-0.3-1.2-0.8
	c-0.2-0.5-0.1-1.025,0.288-1.399l1.15-1.162c2.262-2.249,5.335-3.536,8.534-3.536h40.558c7.609,0,13.782-6.16,13.782-13.769V42.298
	c0-5.235-4.248-9.471-9.471-9.471H13.782c-0.549,0-0.987-0.3-1.199-0.812c-0.2-0.5-0.1-1.025,0.287-1.399l1.137-1.15
	c2.274-2.262,5.335-3.536,8.547-3.536h28.075c7.609,0,13.782-6.172,13.782-13.769V6.963c0-1.899,1.65-2.899,3.074-3.511
	c1.412-0.612,6.185-2.274,8.409-3.099c3.024-1.112,4.011,1.262,4.011,3.161v12.945c0,5.223,4.248,9.471,9.471,9.471h41.17
	c0.537,0,0.987,0.312,1.187,0.8c0.212,0.5,0.1,1.025-0.287,1.412l-1.15,1.15c-2.262,2.262-5.323,3.536-8.509,3.536H105.73
	c-14.256,0-25.826,11.557-25.826,25.827v44.743c0,5.235,4.248,9.471,9.471,9.471h53.64c0.55,0,0.987,0.312,1.187,0.812
	c0.212,0.5,0.1,1.025-0.275,1.399l-1.162,1.162c-2.249,2.249-5.31,3.524-8.509,3.524H105.73c-14.256,0-25.826,11.57-25.826,25.826
	v78.467c0,1.887-1.55,3.436-3.449,3.436H67.847z"/>
<path d="M338.313,223.796c-0.7,0-1.087-0.462-1.237-0.9c-0.125-0.425-0.062-1.037,0.487-1.437l54.839-38.796
	c4.798-3.386,7.647-8.896,7.647-14.769V78.471c0-19.017-15.419-34.448-34.435-34.448h-39.021c-9.508,0-17.218,7.709-17.218,17.23
	v22.315c0,1.912-1.749,3.024-2.924,3.574c-1.187,0.562-7.084,3.536-8.896,4.098c-2.524,0.774-3.686-1.449-3.686-3.349V40.587
	c0-1.899,1.537-3.436,3.449-3.436h40.17c5.235,0,9.458-4.248,9.458-9.483V6.964c0-1.899,1.475-3.149,3.036-3.749
	c1.562-0.6,6.847-2.624,9.021-3.148c1.987-0.463,3.449,1.549,3.449,3.449V23.37c0,7.597,6.173,13.782,13.782,13.782h35.86
	c1.899,0,3.461,1.549,3.461,3.436V169.32c0,5.298-2.586,10.271-6.922,13.344l-55.014,38.921c-2.037,1.437-4.473,2.211-6.959,2.211
	H338.313z"/>
<path d="M631.461,223.796c-0.7,0-1.088-0.462-1.225-0.9c-0.137-0.425-0.088-1.037,0.474-1.437l40.646-28.763
	c13.694-9.683,21.828-25.402,21.828-42.17V22.195c0-1.887,1.512-2.974,3.074-3.648c1.55-0.662,6.235-2.249,8.721-3.161
	c2.061-0.724,3.711,1.475,3.711,3.374V169.32c0,5.298-2.574,10.283-6.909,13.344l-55.014,38.921
	c-2.037,1.437-4.474,2.211-6.972,2.211H631.461z"/>
<path d="M26.959,283.195c0-0.212,0.025-0.324,0.062-0.362c0.05-0.05,0.15-0.075,0.313-0.075h5.997c0.088,0,0.138,0.1,0.138,0.262
	c0,0.175-0.05,0.262-0.138,0.262c-1.124,0-1.949,0.087-2.474,0.25c-0.537,0.175-0.9,0.463-1.075,0.887
	c-0.2,0.412-0.288,1.062-0.288,1.911v29.1c0,0.862,0.088,1.499,0.288,1.911c0.175,0.425,0.537,0.725,1.075,0.9
	c0.525,0.162,1.349,0.25,2.474,0.25c0.088,0,0.138,0.087,0.138,0.262c0,0.162-0.05,0.25-0.138,0.25h-5.997
	c-0.162,0-0.263-0.025-0.313-0.088c-0.037-0.05-0.062-0.175-0.062-0.387V283.195z"/>
<path d="M76.376,312.726c1.724,0.25,3.086,0.525,4.086,0.787c1.012,0.287,1.874,0.75,2.586,1.437
	c0.724,0.662,1.075,1.599,1.075,2.811c0,1.299-0.487,2.586-1.462,3.898c-0.975,1.299-2.287,2.374-3.936,3.198
	c-1.649,0.837-3.423,1.25-5.31,1.25c-2.037,0-3.686-0.487-4.936-1.449c-1.249-0.987-1.874-2.237-1.874-3.761
	c0-2.262,1.637-4.486,4.898-6.66c-1.949-0.575-2.923-1.549-2.923-2.923c0-0.812,0.275-1.587,0.837-2.362
	c0.562-0.762,1.324-1.449,2.262-2.087c-1.112-0.4-1.974-1.025-2.574-1.862c-0.612-0.85-0.9-1.812-0.9-2.874
	c0-1.487,0.625-2.711,1.887-3.661c1.262-0.937,2.861-1.412,4.786-1.412c1.887,0,3.348,0.437,4.373,1.325
	c1.537-0.912,3.074-1.375,4.623-1.375c0.075,0,0.137,0.1,0.187,0.3c0.037,0.212,0.063,0.425,0.063,0.65
	c0,0.337-0.037,0.687-0.138,1.037c-0.075,0.337-0.175,0.487-0.287,0.425c-0.088-0.025-0.4-0.137-0.925-0.337
	c-0.537-0.212-1.174-0.3-1.924-0.3c-0.313,0-0.662,0.025-1.075,0.075c0.75,0.875,1.124,1.887,1.124,3.074
	c0,0.962-0.275,1.862-0.825,2.674c-0.537,0.825-1.312,1.487-2.286,1.962c-0.962,0.5-2.099,0.737-3.386,0.737
	c-0.837,0-1.574-0.087-2.199-0.262c-0.487,0.35-0.875,0.75-1.174,1.224c-0.275,0.475-0.425,0.987-0.425,1.524
	c0,0.9,0.412,1.524,1.237,1.887c0.812,0.35,2.037,0.662,3.674,0.925L76.376,312.726z M78.762,324.046
	c1.012-0.512,1.799-1.2,2.324-2.037c0.537-0.85,0.8-1.774,0.8-2.749c0-1.112-0.362-1.974-1.075-2.574
	c-0.712-0.612-1.562-1.025-2.524-1.25c-0.962-0.225-2.311-0.462-4.061-0.687c-0.887-0.125-1.512-0.225-1.849-0.312
	c-1.037,0.662-1.837,1.387-2.399,2.161c-0.562,0.775-0.837,1.749-0.837,2.924c0,1.612,0.537,2.899,1.624,3.861
	c1.075,0.949,2.524,1.449,4.361,1.449C76.538,324.834,77.737,324.559,78.762,324.046 M71.703,298.557
	c-0.525,0.575-0.787,1.462-0.787,2.674c0,1.662,0.437,2.986,1.312,3.986c0.862,0.975,1.887,1.474,3.074,1.474
	c0.85,0,1.562-0.312,2.111-0.962c0.538-0.65,0.812-1.637,0.812-2.949c0-1.487-0.437-2.711-1.312-3.661
	c-0.875-0.949-1.912-1.412-3.124-1.412C72.94,297.708,72.24,297.982,71.703,298.557"/>
<path d="M117.784,313.708c0-0.162,0.038-0.25,0.088-0.25c0.787,0,1.374-0.075,1.749-0.238c0.387-0.162,0.662-0.45,0.8-0.862
	c0.138-0.412,0.213-1.037,0.213-1.874v-8.046c0-1.037-0.112-1.787-0.313-2.249c-0.225-0.45-0.587-0.675-1.099-0.675
	c-0.525,0-1.174,0.187-1.949,0.587h-0.037c-0.112,0-0.2-0.063-0.262-0.2c-0.05-0.15-0.038-0.25,0.05-0.313l5.585-2.586l0.187-0.037
	c0.05,0,0.125,0.037,0.2,0.112c0.087,0.075,0.137,0.15,0.137,0.238c0,0.2-0.013,0.762-0.05,1.712
	c-0.025,0.962-0.037,2.062-0.037,3.361v8.097c0,0.862,0.075,1.499,0.225,1.899c0.137,0.4,0.387,0.675,0.762,0.837
	s0.962,0.238,1.724,0.238c0.088,0,0.138,0.087,0.138,0.25c0,0.175-0.05,0.275-0.138,0.275c-0.662,0-1.199-0.025-1.587-0.05
	l-2.324-0.05l-2.324,0.05c-0.4,0.025-0.949,0.05-1.649,0.05C117.822,313.983,117.784,313.883,117.784,313.708 M120.096,291.455
	c-0.325-0.312-0.487-0.762-0.487-1.324c0-0.575,0.162-1.025,0.487-1.349c0.324-0.3,0.787-0.462,1.399-0.462
	c0.575,0,1.012,0.162,1.337,0.462c0.312,0.325,0.475,0.775,0.475,1.349c0,0.562-0.162,1.012-0.475,1.324
	c-0.325,0.313-0.762,0.475-1.337,0.475C120.883,291.93,120.42,291.768,120.096,291.455"/>
<path d="M176.993,297.618c0,0.175-0.038,0.263-0.088,0.263c-0.75,0-1.374,0.225-1.874,0.675c-0.5,0.463-0.987,1.287-1.437,2.461
	l-5.385,12.92c-0.063,0.137-0.225,0.212-0.475,0.212c-0.262,0-0.412-0.075-0.475-0.212l-6.035-13.007
	c-0.575-1.237-1.049-2.049-1.437-2.461c-0.387-0.4-0.862-0.587-1.437-0.587c-0.088,0-0.138-0.088-0.138-0.263
	c0-0.175,0.05-0.262,0.138-0.262c0.575,0,1.012,0.013,1.324,0.038l1.637,0.05l2.811-0.05c0.425-0.025,1-0.038,1.712-0.038
	c0.087,0,0.125,0.088,0.125,0.262c0,0.175-0.037,0.263-0.125,0.263c-1.712,0-2.586,0.337-2.586,1.037
	c0,0.188,0.063,0.413,0.175,0.625l5.261,11.12l4.036-9.858c0.212-0.549,0.312-0.962,0.312-1.262c0-0.575-0.275-0.987-0.825-1.262
	c-0.549-0.275-1.399-0.4-2.586-0.4c-0.05,0-0.087-0.088-0.087-0.263c0-0.175,0.037-0.262,0.087-0.262
	c0.787,0,1.375,0.013,1.774,0.038l2.586,0.05l1.5-0.05c0.287-0.025,0.75-0.038,1.424-0.038
	C176.955,297.355,176.993,297.443,176.993,297.618"/>
<path d="M223.699,311.569c0.088,0,0.162,0.037,0.238,0.138c0.075,0.112,0.087,0.2,0.025,0.287c-1.961,1.674-4.061,2.499-6.285,2.499
	c-1.699,0-3.161-0.387-4.398-1.162c-1.225-0.774-2.162-1.786-2.774-3.036c-0.612-1.25-0.925-2.612-0.925-4.073
	c0-1.724,0.413-3.286,1.225-4.686c0.812-1.399,1.924-2.524,3.336-3.348c1.412-0.812,2.973-1.212,4.698-1.212
	c1.55,0,2.749,0.375,3.611,1.124c0.862,0.762,1.287,1.812,1.287,3.124c0,0.35-0.037,0.6-0.112,0.762
	c-0.075,0.162-0.2,0.238-0.4,0.238l-10.595,0.075c-0.138,0.787-0.212,1.524-0.212,2.249c0,2.486,0.612,4.523,1.812,6.085
	c1.2,1.562,2.874,2.349,4.998,2.349c1.637,0,3.111-0.475,4.423-1.412H223.699z M214.416,298.837
	c-0.775,0.688-1.337,1.637-1.65,2.861l8.009-0.162c0-1.187-0.312-2.087-0.924-2.736c-0.625-0.65-1.45-0.975-2.486-0.975
	C216.202,297.825,215.203,298.162,214.416,298.837"/>
<path d="M278.036,313.712c0,0.175-0.05,0.263-0.138,0.263c-0.65,0-1.162-0.013-1.549-0.038l-2.324-0.05l-2.374,0.05
	c-0.362,0.025-0.887,0.038-1.549,0.038c-0.088,0-0.125-0.088-0.125-0.263c0-0.175,0.037-0.262,0.125-0.262
	c0.787,0,1.362-0.062,1.724-0.225c0.375-0.162,0.637-0.437,0.75-0.837c0.137-0.412,0.2-1.037,0.2-1.899v-6.972
	c0-1.699-0.312-2.949-0.962-3.749c-0.65-0.812-1.649-1.212-2.986-1.212c-0.912,0-1.799,0.25-2.699,0.724
	c-0.9,0.463-1.737,1.125-2.474,1.949v9.259c0,0.862,0.062,1.487,0.187,1.899c0.125,0.4,0.387,0.675,0.762,0.837
	c0.362,0.162,0.937,0.225,1.724,0.225c0.075,0,0.125,0.088,0.125,0.262c0,0.175-0.05,0.263-0.125,0.263
	c-0.662,0-1.187-0.013-1.562-0.038l-2.324-0.05l-2.361,0.05c-0.375,0.025-0.9,0.038-1.562,0.038c-0.075,0-0.112-0.088-0.112-0.263
	c0-0.175,0.037-0.262,0.112-0.262c0.787,0,1.362-0.062,1.724-0.225c0.375-0.162,0.637-0.437,0.762-0.837
	c0.125-0.412,0.187-1.037,0.187-1.899v-8.521c0-0.987-0.1-1.687-0.337-2.112c-0.238-0.437-0.625-0.65-1.175-0.65
	c-0.45,0-1.224,0.212-2.311,0.65h-0.087c-0.125,0-0.2-0.063-0.25-0.2c-0.037-0.125,0-0.225,0.112-0.275l5.01-2.374
	c0.038-0.025,0.125-0.038,0.25-0.038c0.262,0,0.525,0.337,0.812,0.987c0.287,0.662,0.437,1.499,0.437,2.536
	c1.087-1.25,2.161-2.186,3.248-2.786c1.075-0.612,2.187-0.912,3.336-0.912c1.612,0,2.849,0.45,3.699,1.337
	c0.862,0.887,1.287,2.199,1.287,3.911v8.446c0,0.862,0.075,1.487,0.2,1.899c0.137,0.4,0.375,0.675,0.762,0.837
	c0.362,0.162,0.949,0.225,1.712,0.225C277.986,313.449,278.036,313.537,278.036,313.712"/>
<path d="M317.789,318.922c-0.05,0.063-0.162,0.088-0.325,0.088h-5.985c-0.088,0-0.138-0.088-0.138-0.262
	c0-0.162,0.05-0.25,0.138-0.25c1.124,0,1.937-0.087,2.474-0.262c0.525-0.162,0.9-0.475,1.075-0.887
	c0.187-0.413,0.287-1.05,0.287-1.912v-29.1c0-0.862-0.1-1.512-0.287-1.924c-0.175-0.412-0.55-0.7-1.075-0.874
	c-0.537-0.175-1.35-0.263-2.474-0.263c-0.088,0-0.138-0.075-0.138-0.25s0.05-0.275,0.138-0.275h5.985
	c0.162,0,0.275,0.025,0.325,0.075c0.037,0.037,0.062,0.162,0.062,0.375v35.335C317.851,318.735,317.827,318.872,317.789,318.922"/>
<path d="M369.684,287.99c0.425,0.075,0.774,0.175,1.037,0.3c0.063,0.037,0.112,0.075,0.138,0.125
	c0.025,0.037,0.037,0.112,0.063,0.212l0.137,1.599c0,0.025-0.025,0.037-0.075,0.05c-0.025,0-0.05-0.013-0.062-0.037
	c-0.238-0.688-0.612-1.212-1.137-1.549c-0.512-0.337-1.15-0.5-1.887-0.5c-0.637,0-1.2,0.137-1.674,0.437
	c-0.475,0.287-0.85,0.712-1.1,1.249c-0.25,0.537-0.387,1.162-0.387,1.875c0,0.812,0.162,1.574,0.487,2.262
	c0.325,0.7,0.75,1.237,1.287,1.637c0.55,0.413,1.15,0.612,1.799,0.612c1.262,0,2.174-0.725,2.724-2.199
	c0-0.025,0.013-0.038,0.05-0.038c0.025,0,0.05,0.013,0.075,0.013c0.025,0.013,0.037,0.025,0.037,0.038l-0.187,1.612
	c-0.025,0.112-0.037,0.175-0.05,0.212c-0.025,0.025-0.075,0.062-0.162,0.1c-0.825,0.312-1.65,0.475-2.487,0.475
	c-1.075,0-1.974-0.212-2.686-0.637c-0.725-0.437-1.25-0.987-1.574-1.65c-0.35-0.662-0.512-1.349-0.512-2.087
	c0-0.812,0.225-1.549,0.687-2.186c0.462-0.637,1.049-1.15,1.799-1.499c0.762-0.363,1.55-0.537,2.399-0.537
	C368.834,287.878,369.247,287.916,369.684,287.99"/>
<path d="M387.144,296.234c0,0.05-0.025,0.075-0.063,0.075c-0.175,0-0.437-0.013-0.8-0.025c-0.363-0.012-0.625-0.025-0.787-0.025
	c-0.2,0-0.462,0.013-0.75,0.025c-0.312,0.013-0.525,0.025-0.687,0.025c-0.037,0-0.05-0.025-0.05-0.075
	c0-0.063,0.013-0.075,0.05-0.075c0.3,0,0.525-0.025,0.662-0.088c0.112-0.063,0.187-0.162,0.187-0.312
	c0-0.15-0.075-0.362-0.187-0.625l-1.487-3.086h-2.449l-1.087,2.524c-0.125,0.275-0.188,0.525-0.188,0.712
	c0,0.575,0.437,0.875,1.287,0.875c0.037,0,0.062,0.012,0.062,0.075c0,0.05-0.025,0.075-0.062,0.075c-0.15,0-0.387-0.013-0.688-0.025
	c-0.337-0.012-0.625-0.025-0.874-0.025c-0.225,0-0.512,0.013-0.825,0.025c-0.288,0.013-0.512,0.025-0.687,0.025
	c-0.038,0-0.063-0.025-0.063-0.075c0-0.063,0.025-0.075,0.063-0.075c0.25,0,0.45-0.05,0.625-0.15c0.175-0.1,0.337-0.275,0.5-0.5
	c0.162-0.25,0.337-0.6,0.55-1.062l2.811-6.522c0.013-0.025,0.038-0.05,0.1-0.05c0.05,0,0.087,0.013,0.087,0.05l3.199,6.572
	c0.3,0.638,0.562,1.087,0.774,1.312c0.212,0.238,0.463,0.35,0.712,0.35C387.119,296.159,387.144,296.172,387.144,296.234
	 M380.91,291.748h2.174l-1.15-2.386L380.91,291.748z"/>
<path d="M401.994,288.1c0,0.063-0.013,0.088-0.038,0.088c-0.724,0-1.087,0.45-1.087,1.374v6.922c0,0.025-0.025,0.037-0.062,0.05
	c-0.038,0-0.075,0-0.088-0.025l-6.222-7.372v5.648c0,0.475,0.087,0.825,0.262,1.037c0.175,0.225,0.437,0.337,0.787,0.337
	c0.025,0,0.038,0.013,0.038,0.075c0,0.05-0.013,0.075-0.038,0.075c-0.225,0-0.412,0-0.537-0.013l-0.662-0.012l-0.724,0.012
	c-0.138,0.013-0.325,0.013-0.587,0.013c-0.013,0-0.025-0.025-0.025-0.075c0-0.062,0.013-0.075,0.025-0.075
	c0.375,0,0.662-0.112,0.85-0.337c0.175-0.212,0.275-0.562,0.275-1.037v-6.022c-0.387-0.4-0.775-0.575-1.162-0.575
	c-0.025,0-0.038-0.025-0.038-0.088c0-0.05,0.013-0.075,0.038-0.075l0.512,0.013c0.112,0,0.262,0.012,0.45,0.012l0.7-0.012
	c0.075-0.013,0.187-0.013,0.312-0.013c0.063,0,0.112,0.013,0.137,0.037c0.038,0.037,0.088,0.1,0.162,0.212
	c0.075,0.112,0.2,0.262,0.325,0.437l4.948,5.948v-5.098c0-0.475-0.087-0.812-0.262-1.049c-0.162-0.212-0.425-0.325-0.774-0.325
	c-0.025,0-0.025-0.025-0.025-0.088c0-0.05,0-0.075,0.025-0.075l0.525,0.013c0.262,0.012,0.487,0.025,0.675,0.025
	c0.162,0,0.4-0.013,0.688-0.025l0.562-0.013C401.982,288.025,401.994,288.05,401.994,288.1"/>
<path d="M408.693,288.247c0-0.1,0.112-0.2,0.362-0.275c0.25-0.1,0.45-0.15,0.637-0.15c0.112,0,0.175,0.025,0.162,0.075l-0.75,3.561
	c-0.013,0.025-0.05,0.037-0.1,0.037c-0.05,0.013-0.063,0-0.063-0.025L408.693,288.247z"/>
<path d="M417.418,288.746c-0.313,0.3-0.55,0.787-0.7,1.462c-0.012,0.025-0.037,0.025-0.075,0.025c-0.05,0-0.075,0-0.075-0.025
	c0.038-0.25,0.075-0.662,0.112-1.212c0.037-0.562,0.063-0.987,0.063-1.262c0-0.05,0.025-0.075,0.087-0.075
	c0.05,0,0.075,0.025,0.075,0.075c0,0.2,0.25,0.288,0.737,0.288c0.75,0.025,1.624,0.037,2.662,0.037c0.512,0,1.075-0.013,1.649-0.025
	l0.912-0.013c0.325,0,0.562-0.025,0.712-0.063c0.15-0.05,0.25-0.137,0.3-0.275c0.012-0.037,0.037-0.05,0.075-0.05
	c0.05,0,0.075,0.013,0.075,0.05c-0.025,0.262-0.05,0.65-0.088,1.2c-0.025,0.55-0.037,0.999-0.037,1.324
	c0,0.025-0.025,0.025-0.075,0.025c-0.05,0-0.075,0-0.075-0.025c-0.063-0.687-0.238-1.174-0.525-1.474
	c-0.3-0.288-0.737-0.45-1.312-0.45c-0.325,0-0.562,0.025-0.687,0.063c-0.15,0.05-0.25,0.125-0.3,0.225
	c-0.063,0.112-0.087,0.3-0.087,0.55v6.122c0,0.275,0.025,0.475,0.087,0.587c0.063,0.125,0.175,0.212,0.35,0.262
	c0.162,0.037,0.437,0.063,0.8,0.063c0.025,0,0.025,0.025,0.025,0.087c0,0.05,0,0.063-0.025,0.063c-0.3,0-0.55,0-0.737-0.013h-1.037
	h-1.025c-0.175,0.013-0.425,0.013-0.737,0.013c-0.025,0-0.038-0.013-0.038-0.063c0-0.063,0.013-0.087,0.038-0.087
	c0.362,0,0.625-0.025,0.787-0.063c0.175-0.05,0.288-0.137,0.35-0.262c0.062-0.125,0.087-0.325,0.087-0.587v-6.147
	c0-0.25-0.013-0.425-0.063-0.537c-0.063-0.112-0.162-0.188-0.3-0.212c-0.15-0.037-0.375-0.063-0.7-0.063
	C418.155,288.284,417.718,288.446,417.418,288.746"/>
<path d="M441.845,290.382c0.175,0.263,0.375,0.475,0.612,0.662c0.238,0.175,0.575,0.4,1,0.65c0.437,0.275,0.787,0.512,1.049,0.712
	c0.25,0.2,0.487,0.437,0.675,0.737c0.175,0.288,0.275,0.637,0.275,1.037c0,0.437-0.125,0.825-0.337,1.162
	c-0.225,0.363-0.55,0.625-0.962,0.837c-0.437,0.187-0.925,0.288-1.475,0.288c-0.35,0-0.7-0.038-1.05-0.112
	c-0.35-0.088-0.637-0.212-0.899-0.375c-0.05-0.025-0.075-0.063-0.1-0.1c-0.013-0.037-0.025-0.075-0.025-0.15l-0.125-1.899
	c-0.013-0.037,0.013-0.062,0.063-0.062c0.037,0,0.062,0,0.075,0.037c0.212,0.675,0.512,1.25,0.9,1.712
	c0.375,0.463,0.874,0.712,1.487,0.712c0.412,0,0.75-0.125,1.037-0.35c0.275-0.225,0.412-0.587,0.412-1.099
	c0-0.4-0.087-0.737-0.275-1.025c-0.162-0.3-0.387-0.537-0.625-0.737c-0.262-0.2-0.6-0.425-1.012-0.688
	c-0.425-0.262-0.75-0.5-0.987-0.675c-0.25-0.2-0.463-0.437-0.625-0.712c-0.175-0.275-0.262-0.6-0.262-0.962
	c0-0.462,0.125-0.85,0.375-1.162c0.238-0.312,0.55-0.562,0.962-0.712c0.387-0.15,0.8-0.225,1.225-0.225c0.6,0,1.137,0.1,1.612,0.3
	c0.137,0.05,0.2,0.138,0.2,0.238l0.075,1.662c0,0.037-0.025,0.05-0.075,0.063c-0.05,0-0.075-0.013-0.075-0.037
	c-0.1-0.487-0.3-0.937-0.638-1.362c-0.312-0.425-0.762-0.65-1.337-0.65c-0.45,0-0.8,0.137-1.037,0.412
	c-0.25,0.25-0.375,0.587-0.375,1C441.582,289.845,441.67,290.132,441.845,290.382"/>
<path d="M461.551,296.234c0,0.05-0.025,0.075-0.063,0.075c-0.175,0-0.437-0.013-0.8-0.025c-0.363-0.012-0.625-0.025-0.787-0.025
	c-0.2,0-0.462,0.013-0.75,0.025c-0.312,0.013-0.525,0.025-0.687,0.025c-0.037,0-0.05-0.025-0.05-0.075
	c0-0.063,0.013-0.075,0.05-0.075c0.3,0,0.525-0.025,0.662-0.088c0.112-0.063,0.187-0.162,0.187-0.312
	c0-0.15-0.075-0.362-0.187-0.625l-1.487-3.086h-2.449l-1.087,2.524c-0.125,0.275-0.188,0.525-0.188,0.712
	c0,0.575,0.437,0.875,1.287,0.875c0.037,0,0.062,0.012,0.062,0.075c0,0.05-0.025,0.075-0.062,0.075c-0.15,0-0.387-0.013-0.688-0.025
	c-0.337-0.012-0.625-0.025-0.874-0.025c-0.225,0-0.512,0.013-0.825,0.025c-0.288,0.013-0.512,0.025-0.687,0.025
	c-0.038,0-0.063-0.025-0.063-0.075c0-0.063,0.025-0.075,0.063-0.075c0.25,0,0.45-0.05,0.625-0.15c0.175-0.1,0.337-0.275,0.5-0.5
	c0.162-0.25,0.337-0.6,0.55-1.062l2.811-6.522c0.013-0.025,0.05-0.05,0.1-0.05c0.05,0,0.087,0.013,0.087,0.05l3.199,6.572
	c0.3,0.638,0.562,1.087,0.774,1.312c0.212,0.238,0.45,0.35,0.712,0.35C461.526,296.159,461.551,296.172,461.551,296.234
	 M455.317,291.748h2.174l-1.15-2.386L455.317,291.748z"/>
<path d="M475.157,288.1c0,0.063-0.013,0.088-0.025,0.088c-0.3,0-0.637,0.137-0.975,0.4c-0.35,0.275-0.662,0.625-0.937,1.062
	l-1.649,2.586v2.999c0,0.288,0.025,0.475,0.075,0.6c0.05,0.125,0.137,0.212,0.287,0.262c0.15,0.037,0.375,0.063,0.7,0.063
	c0.038,0,0.05,0.013,0.05,0.075c0,0.05-0.012,0.075-0.05,0.075c-0.275,0-0.487,0-0.65-0.013l-0.949-0.012l-0.925,0.012
	c-0.162,0.013-0.4,0.013-0.687,0.013c-0.025,0-0.037-0.025-0.037-0.075c0-0.062,0.012-0.075,0.037-0.075
	c0.312,0,0.562-0.025,0.712-0.063c0.137-0.05,0.25-0.137,0.3-0.262c0.05-0.138,0.075-0.325,0.075-0.6v-2.761l-2.099-3.148
	c-0.288-0.437-0.537-0.725-0.762-0.9c-0.212-0.15-0.45-0.237-0.687-0.237c-0.025,0-0.038-0.025-0.038-0.088
	c0-0.05,0.013-0.075,0.038-0.075c0.1,0,0.25,0,0.462,0.025l0.437,0.013c0.288,0,0.7-0.013,1.212-0.025l0.762-0.013
	c0.013,0,0.025,0.025,0.025,0.075c0,0.063-0.013,0.088-0.025,0.088c-0.412,0-0.625,0.1-0.625,0.312c0,0.1,0.05,0.225,0.15,0.375
	l2.037,3.049l1.487-2.349c0.212-0.35,0.325-0.637,0.325-0.85c0-0.175-0.063-0.312-0.188-0.4c-0.125-0.1-0.3-0.137-0.55-0.137
	c-0.025,0-0.037-0.025-0.037-0.088c0-0.05,0.013-0.075,0.037-0.075l0.662,0.013c0.35,0.012,0.675,0.025,0.962,0.025
	c0.15,0,0.325-0.013,0.55-0.025l0.487-0.013C475.144,288.025,475.157,288.05,475.157,288.1"/>
<path d="M492.97,295.921c-0.712-0.375-1.262-0.874-1.65-1.512c-0.375-0.65-0.562-1.349-0.562-2.149c0-0.85,0.224-1.612,0.65-2.286
	c0.437-0.65,1.049-1.162,1.811-1.549c0.763-0.363,1.612-0.55,2.587-0.55c0.425,0,0.824,0.037,1.224,0.112
	c0.4,0.087,0.737,0.2,1,0.337c0.063,0.037,0.112,0.062,0.125,0.1c0.025,0.037,0.037,0.1,0.05,0.2l0.175,1.599
	c0,0.025-0.025,0.038-0.076,0.05c-0.05,0-0.087-0.012-0.087-0.037c-0.238-0.65-0.612-1.162-1.137-1.512
	c-0.512-0.35-1.149-0.525-1.875-0.525c-1.049,0-1.862,0.312-2.424,0.949c-0.563,0.637-0.85,1.512-0.85,2.624
	c0,0.862,0.175,1.649,0.512,2.324c0.325,0.675,0.788,1.2,1.375,1.574c0.599,0.387,1.261,0.575,2.011,0.575
	c0.425,0,0.75-0.05,0.975-0.112c0.225-0.088,0.4-0.238,0.512-0.475c0.088-0.225,0.15-0.562,0.15-1.025
	c0-0.462-0.037-0.774-0.076-0.962c-0.062-0.162-0.187-0.3-0.387-0.362c-0.175-0.063-0.512-0.087-0.988-0.087
	c-0.05,0-0.075-0.038-0.075-0.112c0-0.025,0-0.05,0.012-0.063c0.025-0.025,0.037-0.037,0.05-0.037
	c0.712,0.05,1.287,0.062,1.736,0.062c0.413,0,0.85-0.012,1.312-0.037c0.024,0,0.037,0.013,0.05,0.025
	c0.012,0.025,0.025,0.05,0.025,0.062c0,0.063-0.025,0.1-0.075,0.1c-0.188-0.013-0.325,0.012-0.4,0.087
	c-0.087,0.063-0.137,0.2-0.162,0.4c-0.025,0.212-0.037,0.562-0.037,1.062c0,0.4,0.025,0.687,0.05,0.862
	c0.037,0.15,0.05,0.262,0.05,0.312s-0.012,0.087-0.037,0.1c-0.025,0.013-0.063,0.025-0.112,0.063
	c-1.087,0.238-2.062,0.362-2.912,0.362C494.532,296.471,493.695,296.283,492.97,295.921"/>
<path d="M508.503,295.901c-0.65-0.4-1.137-0.912-1.487-1.562c-0.35-0.662-0.525-1.387-0.525-2.161c0-0.912,0.225-1.699,0.7-2.349
	c0.449-0.637,1.049-1.124,1.762-1.462c0.724-0.325,1.449-0.487,2.212-0.487c0.837,0,1.574,0.2,2.212,0.588
	c0.637,0.387,1.137,0.912,1.474,1.562c0.325,0.649,0.5,1.324,0.5,2.049c0,0.8-0.212,1.55-0.637,2.224
	c-0.425,0.662-0.988,1.187-1.712,1.587c-0.699,0.387-1.474,0.587-2.299,0.587C509.865,296.476,509.14,296.276,508.503,295.901
	 M512.689,295.738c0.449-0.287,0.799-0.712,1.062-1.287c0.262-0.549,0.387-1.212,0.387-1.999c0-0.825-0.137-1.562-0.425-2.199
	c-0.275-0.65-0.7-1.149-1.237-1.524c-0.538-0.363-1.149-0.537-1.862-0.537c-0.912,0-1.637,0.312-2.149,0.937
	c-0.512,0.625-0.763,1.487-0.763,2.586c0,0.837,0.138,1.6,0.438,2.274c0.288,0.687,0.687,1.224,1.224,1.599
	c0.525,0.4,1.125,0.587,1.8,0.587C511.727,296.175,512.239,296.026,512.689,295.738"/>
<path d="M523.841,295.901c-0.65-0.4-1.137-0.912-1.487-1.562c-0.35-0.662-0.525-1.387-0.525-2.161c0-0.912,0.225-1.699,0.687-2.349
	c0.462-0.637,1.062-1.124,1.775-1.462c0.724-0.325,1.449-0.487,2.212-0.487c0.824,0,1.574,0.2,2.212,0.588
	c0.625,0.387,1.124,0.912,1.462,1.562c0.337,0.649,0.512,1.324,0.512,2.049c0,0.8-0.212,1.55-0.637,2.224
	c-0.425,0.662-0.988,1.187-1.712,1.587c-0.699,0.387-1.474,0.587-2.299,0.587C525.203,296.476,524.478,296.276,523.841,295.901
	 M528.027,295.738c0.449-0.287,0.799-0.712,1.062-1.287c0.262-0.549,0.387-1.212,0.387-1.999c0-0.825-0.137-1.562-0.425-2.199
	c-0.288-0.65-0.7-1.149-1.237-1.524c-0.538-0.363-1.149-0.537-1.862-0.537c-0.912,0-1.637,0.312-2.149,0.937
	c-0.512,0.625-0.763,1.487-0.763,2.586c0,0.837,0.138,1.6,0.438,2.274c0.288,0.687,0.687,1.224,1.212,1.599
	c0.525,0.4,1.137,0.587,1.812,0.587C527.065,296.175,527.577,296.026,528.027,295.738"/>
<path d="M540.512,296.327c-0.138-0.012-0.313-0.012-0.487-0.025c-0.201-0.013-0.413-0.013-0.663-0.013l-0.924,0.013
	c-0.175,0.013-0.4,0.013-0.687,0.013c-0.025,0-0.037-0.025-0.037-0.075c0-0.063,0.012-0.087,0.037-0.087
	c0.325,0,0.55-0.025,0.699-0.063c0.162-0.05,0.25-0.138,0.3-0.25c0.05-0.137,0.088-0.337,0.088-0.599v-6.135
	c0-0.275-0.037-0.463-0.088-0.588c-0.05-0.125-0.137-0.212-0.287-0.262c-0.15-0.05-0.375-0.075-0.688-0.075
	c-0.024,0-0.037-0.025-0.037-0.075c0-0.05,0.013-0.075,0.037-0.075l0.663,0.013c0.387,0.013,0.699,0.025,0.924,0.025
	c0.338,0,0.687-0.013,1.025-0.038c0.425-0.025,0.712-0.037,0.837-0.037c0.925,0,1.724,0.175,2.437,0.537
	c0.7,0.35,1.25,0.825,1.65,1.449c0.387,0.6,0.587,1.287,0.587,2.049c0,0.85-0.2,1.612-0.599,2.287
	c-0.413,0.637-0.95,1.149-1.637,1.524c-0.674,0.35-1.424,0.525-2.236,0.525C541.162,296.365,540.849,296.352,540.512,296.327
	 M543.048,295.677c0.512-0.287,0.899-0.724,1.199-1.299c0.275-0.562,0.425-1.25,0.425-2.062c0-0.762-0.137-1.462-0.4-2.086
	c-0.275-0.612-0.662-1.112-1.162-1.475c-0.5-0.362-1.075-0.537-1.749-0.537c-0.375,0-0.663,0.025-0.863,0.063
	c-0.212,0.05-0.35,0.137-0.45,0.275c-0.1,0.112-0.149,0.312-0.149,0.575v5.96c0,0.375,0.087,0.65,0.287,0.812
	c0.187,0.138,0.549,0.225,1.099,0.225C541.949,296.127,542.536,295.977,543.048,295.677"/>
<path d="M558.748,292.356c0.425,0.412,0.65,0.925,0.65,1.524c0,0.475-0.125,0.9-0.362,1.274c-0.25,0.375-0.575,0.675-1,0.887
	c-0.425,0.225-0.899,0.325-1.412,0.325c-0.287,0-0.599-0.012-0.924-0.037c-0.138-0.013-0.262-0.013-0.438-0.025
	c-0.175-0.013-0.362-0.013-0.574-0.013l-0.925,0.013c-0.175,0.012-0.4,0.012-0.687,0.012c-0.025,0-0.037-0.025-0.037-0.075
	c0-0.063,0.012-0.088,0.037-0.088c0.313,0,0.537-0.025,0.687-0.075c0.15-0.05,0.25-0.138,0.313-0.25
	c0.063-0.125,0.087-0.325,0.087-0.587v-6.147c0-0.262-0.024-0.462-0.087-0.575c-0.05-0.125-0.162-0.212-0.3-0.262
	c-0.137-0.05-0.374-0.075-0.687-0.075c-0.012,0-0.024-0.025-0.024-0.087c0-0.037,0.012-0.063,0.024-0.063l0.675,0.013
	c0.387,0.013,0.687,0.013,0.925,0.013c0.25,0,0.5,0,0.787-0.025c0.087-0.013,0.212-0.025,0.349-0.037
	c0.138,0,0.275-0.013,0.438-0.013c0.775,0,1.337,0.15,1.749,0.475c0.387,0.312,0.587,0.725,0.587,1.262
	c0,0.425-0.138,0.812-0.413,1.149c-0.275,0.337-0.65,0.6-1.149,0.775C557.736,291.707,558.311,291.944,558.748,292.356
	 M555.525,288.271c-0.1,0.05-0.188,0.137-0.237,0.262c-0.05,0.125-0.062,0.325-0.062,0.587v2.524l0.575,0.025
	c0.587,0,1.024-0.175,1.312-0.512c0.3-0.337,0.437-0.787,0.437-1.337c0-0.5-0.124-0.887-0.374-1.187
	c-0.25-0.275-0.65-0.425-1.162-0.425C555.8,288.208,555.638,288.233,555.525,288.271 M557.812,295.605
	c0.3-0.312,0.449-0.787,0.449-1.399c0-0.675-0.187-1.212-0.55-1.612c-0.374-0.412-0.899-0.625-1.586-0.625
	c-0.225-0.013-0.538,0-0.9,0.025v3.248c0,0.212,0.025,0.387,0.088,0.512c0.063,0.112,0.175,0.2,0.337,0.262
	c0.175,0.05,0.425,0.087,0.762,0.087C557.037,296.105,557.511,295.93,557.812,295.605"/>
<path d="M574.26,288.1c0,0.063-0.013,0.088-0.038,0.088c-0.287,0-0.625,0.137-0.962,0.4c-0.35,0.275-0.675,0.625-0.937,1.062
	l-1.65,2.586v2.999c0,0.288,0.025,0.475,0.076,0.6c0.05,0.125,0.137,0.212,0.287,0.262c0.15,0.037,0.375,0.063,0.7,0.063
	c0.025,0,0.037,0.013,0.037,0.075c0,0.05-0.012,0.075-0.037,0.075c-0.275,0-0.487,0-0.65-0.013l-0.962-0.012l-0.924,0.012
	c-0.162,0.013-0.387,0.013-0.675,0.013c-0.025,0-0.037-0.025-0.037-0.075c0-0.062,0.012-0.075,0.037-0.075
	c0.313,0,0.55-0.025,0.712-0.063c0.137-0.05,0.237-0.137,0.3-0.262c0.05-0.138,0.076-0.325,0.076-0.6v-2.761l-2.112-3.148
	c-0.275-0.437-0.538-0.725-0.75-0.9c-0.213-0.15-0.45-0.237-0.687-0.237c-0.038,0-0.05-0.025-0.05-0.088
	c0-0.05,0.012-0.075,0.05-0.075c0.1,0,0.237,0,0.462,0.025l0.437,0.013c0.288,0,0.687-0.013,1.212-0.025l0.763-0.013
	c0.012,0,0.025,0.025,0.025,0.075c0,0.063-0.013,0.088-0.025,0.088c-0.413,0-0.625,0.1-0.625,0.312c0,0.1,0.037,0.225,0.149,0.375
	l2.037,3.049l1.487-2.349c0.212-0.35,0.325-0.637,0.325-0.85c0-0.175-0.062-0.312-0.188-0.4c-0.137-0.1-0.313-0.137-0.55-0.137
	c-0.025,0-0.037-0.025-0.037-0.088c0-0.05,0.012-0.075,0.037-0.075l0.65,0.013c0.35,0.012,0.687,0.025,0.975,0.025
	c0.149,0,0.325-0.013,0.537-0.025l0.487-0.013C574.247,288.025,574.26,288.05,574.26,288.1"/>
<path d="M586.583,294.274c0.024,0,0.05,0,0.062,0.013c0.025,0.025,0.038,0.025,0.038,0.038c-0.088,0.637-0.138,1.237-0.138,1.786
	c0,0.075-0.012,0.125-0.037,0.15c-0.025,0.037-0.075,0.05-0.162,0.05h-5.647c-0.025,0-0.038-0.025-0.038-0.075
	c0-0.063,0.013-0.087,0.038-0.087c0.325,0,0.55-0.025,0.687-0.05c0.149-0.05,0.249-0.138,0.288-0.263
	c0.062-0.137,0.087-0.324,0.087-0.599v-6.135c0-0.275-0.024-0.463-0.087-0.588c-0.038-0.125-0.138-0.212-0.288-0.25
	c-0.15-0.05-0.375-0.075-0.687-0.075c-0.025,0-0.038-0.025-0.038-0.087c0-0.05,0.013-0.075,0.038-0.075h5.422
	c0.088,0,0.125,0.038,0.125,0.112l0.037,1.674c0,0.038-0.024,0.038-0.075,0.038c-0.05,0.012-0.088,0-0.088-0.025
	c-0.075-0.487-0.249-0.862-0.525-1.099c-0.287-0.263-0.65-0.387-1.112-0.387h-0.687c-0.387,0-0.638,0.05-0.775,0.162
	s-0.2,0.325-0.2,0.65v2.699h1.449c0.475,0,0.8-0.088,1.013-0.238c0.2-0.162,0.312-0.4,0.312-0.725c0-0.012,0.025-0.025,0.075-0.025
	c0.05,0,0.076,0.013,0.076,0.025L585.733,292l0.013,0.6c0.012,0.287,0.025,0.5,0.025,0.662c0,0.013-0.025,0.025-0.076,0.025
	c-0.062,0-0.087-0.013-0.087-0.025c0-0.375-0.113-0.662-0.325-0.837c-0.213-0.188-0.563-0.275-1.037-0.275h-1.425v3.036
	c0,0.325,0.063,0.537,0.188,0.649c0.112,0.112,0.349,0.175,0.712,0.175h0.874c0.5,0,0.912-0.15,1.237-0.437
	c0.338-0.312,0.563-0.724,0.688-1.274C586.52,294.274,586.545,294.274,586.583,294.274"/>
<path d="M595.296,295.543c0.162,0.225,0.237,0.512,0.237,0.9c0,0.387-0.076,0.724-0.25,1.025c-0.162,0.325-0.4,0.637-0.737,0.949
	c-0.012,0.013-0.024,0.013-0.024,0.013c-0.025,0-0.05-0.013-0.076-0.025c-0.012-0.025-0.012-0.05,0-0.075
	c0.438-0.45,0.65-0.962,0.65-1.562c0-0.25-0.05-0.437-0.124-0.537c-0.088,0.112-0.238,0.187-0.45,0.187
	c-0.175,0-0.313-0.063-0.413-0.162c-0.112-0.112-0.15-0.262-0.15-0.437c0-0.187,0.05-0.337,0.175-0.45
	c0.125-0.088,0.3-0.138,0.512-0.138C594.921,295.231,595.133,295.331,595.296,295.543"/>
<path d="M613.062,295.836c0.05,0.125,0.149,0.213,0.287,0.263c0.15,0.025,0.387,0.05,0.7,0.05c0.025,0,0.025,0.025,0.025,0.087
	c0,0.05,0,0.075-0.025,0.075c-0.275,0-0.5,0-0.663-0.013l-0.962-0.013l-0.924,0.013c-0.162,0.013-0.387,0.013-0.688,0.013
	c-0.024,0-0.024-0.025-0.024-0.075c0-0.063,0-0.087,0.024-0.087c0.325,0,0.55-0.025,0.712-0.05c0.15-0.05,0.238-0.138,0.288-0.263
	c0.063-0.137,0.088-0.324,0.088-0.599v-6.135c0-0.275-0.025-0.463-0.088-0.588c-0.05-0.125-0.137-0.212-0.288-0.25
	c-0.162-0.05-0.387-0.075-0.712-0.075c-0.024,0-0.024-0.025-0.024-0.087c0-0.05,0-0.075,0.024-0.075l0.688,0.013
	c0.387,0.013,0.711,0.025,0.924,0.025c0.275,0,0.587-0.013,0.975-0.025l0.65-0.013c0.025,0,0.025,0.025,0.025,0.075
	c0,0.063,0,0.087-0.025,0.087c-0.3,0-0.538,0.025-0.687,0.075c-0.15,0.05-0.25,0.138-0.3,0.262c-0.063,0.138-0.088,0.325-0.088,0.6
	v6.11C612.974,295.511,612.999,295.698,613.062,295.836"/>
<path d="M621.14,288.247c-0.013-0.1,0.112-0.2,0.349-0.275c0.25-0.1,0.462-0.15,0.638-0.15c0.125,0,0.175,0.025,0.162,0.075
	l-0.75,3.561c-0.013,0.025-0.05,0.037-0.1,0.037c-0.037,0.013-0.062,0-0.062-0.025L621.14,288.247z"/>
<path d="M639.393,296.238c0,0.05-0.013,0.075-0.038,0.075c-0.275,0-0.5,0-0.674-0.013l-0.937-0.012l-0.887,0.012
	c-0.15,0.013-0.35,0.013-0.625,0.013c-0.024,0-0.037-0.025-0.037-0.075c0-0.062,0.013-0.087,0.037-0.087
	c0.387,0,0.65-0.05,0.8-0.137c0.125-0.075,0.188-0.262,0.188-0.55l-0.013-0.225l-0.237-5.835l-2.949,6.822
	c-0.012,0.025-0.05,0.05-0.087,0.05c-0.063,0-0.1-0.025-0.113-0.05l-3.311-6.772l-0.1,5.335c-0.012,0.475,0.076,0.812,0.25,1.037
	c0.175,0.212,0.462,0.325,0.863,0.325c0.024,0,0.037,0.025,0.037,0.087c0,0.05-0.013,0.075-0.037,0.075
	c-0.238,0-0.425,0-0.563-0.013l-0.712-0.012l-0.737,0.012c-0.137,0.013-0.3,0.013-0.55,0.013c-0.013,0-0.025-0.025-0.025-0.075
	c0-0.062,0.012-0.087,0.025-0.087c0.737,0,1.112-0.45,1.112-1.362l0.125-5.947c-0.288-0.437-0.662-0.662-1.137-0.662
	c-0.025,0-0.037-0.013-0.037-0.075c0-0.05,0.012-0.075,0.037-0.075l0.525,0.013c0.113,0,0.237,0.012,0.413,0.012
	c0.2,0,0.349-0.012,0.474-0.012c0.125-0.013,0.225-0.013,0.3-0.013c0.1,0,0.2,0.037,0.275,0.112
	c0.062,0.075,0.188,0.275,0.325,0.562l2.949,5.985l2.761-6.335c0.101-0.212,0.238-0.325,0.413-0.325c0.05,0,0.113,0,0.213,0.013
	c0.087,0,0.2,0.012,0.349,0.012l0.663-0.012c0.112-0.013,0.275-0.013,0.462-0.013c0.025,0,0.037,0.025,0.037,0.075
	c0,0.062-0.012,0.075-0.037,0.075c-0.425,0-0.737,0.063-0.924,0.212c-0.188,0.15-0.275,0.387-0.275,0.75l0.287,6.098
	c0.025,0.275,0.063,0.475,0.112,0.6c0.05,0.125,0.15,0.2,0.287,0.25c0.137,0.038,0.375,0.063,0.687,0.063
	C639.38,296.151,639.393,296.176,639.393,296.238"/>
<path d="M657,290.382c0.175,0.263,0.374,0.475,0.612,0.662c0.238,0.175,0.575,0.4,1,0.65c0.437,0.275,0.787,0.512,1.049,0.712
	s0.487,0.437,0.675,0.737c0.188,0.288,0.275,0.637,0.275,1.037c0,0.437-0.112,0.825-0.337,1.162
	c-0.225,0.363-0.55,0.625-0.962,0.837c-0.426,0.187-0.912,0.288-1.475,0.288c-0.35,0-0.699-0.038-1.049-0.112
	c-0.337-0.088-0.638-0.212-0.9-0.375c-0.05-0.025-0.075-0.063-0.087-0.1c-0.025-0.037-0.038-0.075-0.038-0.15l-0.124-1.899
	c0-0.037,0.012-0.062,0.063-0.062c0.037,0,0.075,0,0.075,0.037c0.225,0.675,0.513,1.25,0.9,1.712
	c0.374,0.463,0.874,0.712,1.486,0.712c0.413,0,0.763-0.125,1.037-0.35c0.275-0.225,0.425-0.587,0.425-1.099
	c0-0.4-0.1-0.737-0.275-1.025c-0.175-0.3-0.387-0.537-0.638-0.737c-0.25-0.2-0.587-0.425-1.012-0.688
	c-0.425-0.262-0.75-0.5-0.987-0.675c-0.25-0.2-0.463-0.437-0.625-0.712c-0.162-0.275-0.249-0.6-0.249-0.962
	c0-0.462,0.125-0.85,0.374-1.162c0.238-0.312,0.55-0.562,0.949-0.712c0.387-0.15,0.8-0.225,1.238-0.225c0.587,0,1.124,0.1,1.599,0.3
	c0.137,0.05,0.2,0.138,0.2,0.238l0.075,1.662c0,0.037-0.025,0.05-0.075,0.063c-0.037,0-0.063-0.013-0.075-0.037
	c-0.101-0.487-0.3-0.937-0.625-1.362c-0.312-0.425-0.762-0.65-1.349-0.65c-0.438,0-0.787,0.137-1.025,0.412
	c-0.249,0.25-0.374,0.587-0.374,1C656.75,289.845,656.838,290.132,657,290.382"/>
<path d="M668.653,288.746c-0.3,0.3-0.538,0.787-0.7,1.462c0,0.025-0.037,0.025-0.075,0.025c-0.05,0-0.076,0-0.076-0.025
	c0.038-0.25,0.076-0.662,0.113-1.212c0.05-0.562,0.075-0.987,0.075-1.262c0-0.05,0.025-0.075,0.075-0.075
	c0.05,0,0.088,0.025,0.088,0.075c0,0.2,0.237,0.288,0.724,0.288c0.75,0.025,1.637,0.037,2.661,0.037
	c0.525,0,1.075-0.013,1.662-0.025l0.912-0.013c0.325,0,0.55-0.025,0.712-0.063c0.15-0.05,0.25-0.137,0.287-0.275
	c0.012-0.037,0.05-0.05,0.075-0.05c0.062,0,0.088,0.013,0.088,0.05c-0.037,0.262-0.063,0.65-0.1,1.2
	c-0.012,0.55-0.025,0.999-0.025,1.324c0,0.025-0.025,0.025-0.075,0.025c-0.05,0-0.075,0-0.075-0.025
	c-0.063-0.687-0.25-1.174-0.538-1.474c-0.3-0.288-0.724-0.45-1.299-0.45c-0.325,0-0.562,0.025-0.699,0.063
	c-0.15,0.05-0.25,0.125-0.3,0.225c-0.05,0.112-0.087,0.3-0.087,0.55v6.122c0,0.275,0.037,0.475,0.1,0.587
	c0.05,0.125,0.162,0.212,0.337,0.262c0.162,0.037,0.438,0.063,0.812,0.063c0.013,0,0.025,0.025,0.025,0.087
	c0,0.05-0.012,0.063-0.025,0.063c-0.312,0-0.562,0-0.737-0.013h-1.049h-1.024c-0.162,0.013-0.425,0.013-0.737,0.013
	c-0.025,0-0.037-0.013-0.037-0.063c0-0.063,0.012-0.087,0.037-0.087c0.362,0,0.638-0.025,0.8-0.063
	c0.162-0.05,0.287-0.137,0.349-0.262c0.063-0.125,0.076-0.325,0.076-0.587v-6.147c0-0.25-0.013-0.425-0.062-0.537
	c-0.05-0.112-0.15-0.188-0.3-0.212c-0.15-0.037-0.375-0.063-0.7-0.063C669.403,288.284,668.953,288.446,668.653,288.746"/>
<path d="M684.82,295.836c0.062,0.125,0.162,0.213,0.3,0.263c0.149,0.025,0.387,0.05,0.699,0.05c0.013,0,0.025,0.025,0.025,0.087
	c0,0.05-0.012,0.075-0.025,0.075c-0.275,0-0.512,0-0.675-0.013l-0.949-0.013l-0.924,0.013c-0.175,0.013-0.4,0.013-0.687,0.013
	c-0.025,0-0.037-0.025-0.037-0.075c0-0.063,0.012-0.087,0.037-0.087c0.325,0,0.55-0.025,0.699-0.05c0.15-0.05,0.25-0.138,0.3-0.263
	c0.05-0.137,0.088-0.324,0.088-0.599v-6.135c0-0.275-0.037-0.463-0.088-0.588c-0.05-0.125-0.149-0.212-0.3-0.25
	c-0.149-0.05-0.374-0.075-0.699-0.075c-0.025,0-0.037-0.025-0.037-0.087c0-0.05,0.012-0.075,0.037-0.075l0.687,0.013
	c0.387,0.013,0.699,0.025,0.924,0.025c0.262,0,0.587-0.013,0.962-0.025l0.662-0.013c0.013,0,0.025,0.025,0.025,0.075
	c0,0.063-0.012,0.087-0.025,0.087c-0.312,0-0.537,0.025-0.699,0.075c-0.138,0.05-0.238,0.138-0.3,0.262
	c-0.05,0.138-0.076,0.325-0.076,0.6v6.11C684.744,295.511,684.77,295.698,684.82,295.836"/>
<path d="M694.972,295.188c0,0.25,0.024,0.425,0.075,0.538c0.05,0.112,0.137,0.187,0.262,0.225c0.137,0.038,0.35,0.05,0.625,0.05
	h1.137c0.55,0,1.012-0.162,1.374-0.5c0.375-0.325,0.625-0.775,0.75-1.337c0-0.025,0.025-0.038,0.076-0.038
	c0.05,0.013,0.075,0.025,0.075,0.05c-0.088,0.775-0.125,1.425-0.125,1.937c0,0.075-0.025,0.125-0.05,0.15
	c-0.038,0.037-0.088,0.05-0.15,0.05h-6.185c-0.025,0-0.025-0.025-0.025-0.075c0-0.063,0-0.087,0.025-0.087
	c0.312,0,0.55-0.025,0.699-0.063c0.138-0.05,0.238-0.125,0.287-0.25c0.063-0.137,0.088-0.337,0.088-0.599v-6.135
	c0-0.275-0.025-0.462-0.088-0.587c-0.05-0.125-0.149-0.212-0.287-0.262c-0.149-0.05-0.387-0.075-0.699-0.075
	c-0.025,0-0.025-0.013-0.025-0.075c0-0.05,0-0.075,0.025-0.075l0.662,0.013c0.387,0.013,0.7,0.025,0.937,0.025
	c0.25,0,0.562-0.013,0.949-0.025l0.663-0.013c0.012,0,0.024,0.025,0.024,0.075c0,0.063-0.012,0.075-0.024,0.075
	c-0.3,0-0.538,0.025-0.7,0.075c-0.137,0.05-0.237,0.138-0.3,0.262c-0.05,0.138-0.075,0.325-0.075,0.6V295.188z"/>
<path d="M707.797,295.188c0,0.25,0.024,0.425,0.075,0.538c0.05,0.112,0.149,0.187,0.262,0.225c0.137,0.038,0.35,0.05,0.637,0.05
	h1.125c0.562,0,1.012-0.162,1.387-0.5c0.374-0.325,0.612-0.775,0.737-1.337c0-0.025,0.025-0.038,0.076-0.038
	c0.05,0.013,0.075,0.025,0.075,0.05c-0.088,0.775-0.125,1.425-0.125,1.937c0,0.075-0.012,0.125-0.05,0.15
	c-0.025,0.037-0.076,0.05-0.15,0.05h-6.185c-0.013,0-0.025-0.025-0.025-0.075c0-0.063,0.012-0.087,0.025-0.087
	c0.312,0,0.55-0.025,0.699-0.063c0.138-0.05,0.238-0.125,0.3-0.25c0.05-0.137,0.075-0.337,0.075-0.599v-6.135
	c0-0.275-0.025-0.462-0.075-0.587c-0.063-0.125-0.162-0.212-0.3-0.262c-0.149-0.05-0.387-0.075-0.699-0.075
	c-0.013,0-0.025-0.013-0.025-0.075c0-0.05,0.012-0.075,0.025-0.075l0.662,0.013c0.387,0.013,0.7,0.025,0.949,0.025
	c0.238,0,0.55-0.013,0.937-0.025l0.663-0.013c0.024,0,0.037,0.025,0.037,0.075c0,0.063-0.013,0.075-0.037,0.075
	c-0.3,0-0.538,0.025-0.688,0.075c-0.149,0.05-0.249,0.138-0.3,0.262c-0.063,0.138-0.087,0.325-0.087,0.6V295.188z"/>
<path d="M366.086,319.291c-0.138-0.012-0.3-0.025-0.487-0.025c-0.2-0.013-0.413-0.013-0.65-0.013l-0.937,0.013
	c-0.162,0-0.387,0.013-0.687,0.013c-0.013,0-0.025-0.025-0.025-0.088c0-0.05,0.013-0.075,0.025-0.075
	c0.325,0,0.55-0.025,0.712-0.075c0.15-0.037,0.237-0.125,0.3-0.25c0.05-0.125,0.075-0.337,0.075-0.587v-6.147
	c0-0.262-0.025-0.45-0.075-0.587c-0.063-0.125-0.15-0.212-0.3-0.262c-0.15-0.05-0.363-0.075-0.688-0.075
	c-0.025,0-0.037-0.025-0.037-0.063c0-0.063,0.013-0.087,0.037-0.087l0.662,0.012c0.387,0.025,0.712,0.038,0.937,0.038
	c0.325,0,0.675-0.025,1.012-0.05c0.425-0.013,0.712-0.025,0.85-0.025c0.925,0,1.724,0.175,2.437,0.537
	c0.7,0.35,1.25,0.825,1.649,1.437c0.387,0.612,0.587,1.287,0.587,2.061c0,0.85-0.212,1.612-0.612,2.274
	c-0.413,0.65-0.95,1.162-1.624,1.524c-0.687,0.35-1.425,0.537-2.249,0.537C366.736,319.328,366.423,319.316,366.086,319.291
	 M368.622,318.641c0.512-0.287,0.912-0.737,1.199-1.299c0.288-0.562,0.437-1.262,0.437-2.074c0-0.75-0.15-1.462-0.412-2.087
	c-0.275-0.612-0.65-1.1-1.15-1.462c-0.5-0.362-1.087-0.55-1.749-0.55c-0.375,0-0.662,0.025-0.875,0.075
	c-0.212,0.05-0.35,0.137-0.45,0.262c-0.1,0.125-0.15,0.312-0.15,0.575v5.972c0,0.375,0.1,0.65,0.288,0.8
	c0.187,0.15,0.549,0.225,1.099,0.225C367.535,319.078,368.122,318.928,368.622,318.641"/>
<path d="M387.815,319.196c0,0.05-0.013,0.075-0.025,0.075h-1.924c-0.212,0-0.612-0.375-1.2-1.124
	c-0.587-0.762-1.287-1.799-2.112-3.111c-0.187,0.025-0.387,0.05-0.575,0.05c-0.162,0-0.387,0-0.637-0.025v3.136
	c0,0.262,0.013,0.475,0.063,0.587c0.05,0.137,0.15,0.225,0.3,0.262c0.15,0.05,0.375,0.075,0.687,0.075
	c0.038,0,0.05,0.025,0.05,0.075c0,0.05-0.012,0.075-0.05,0.075c-0.262,0-0.487-0.013-0.637-0.013l-0.949-0.013l-0.937,0.013
	c-0.162,0-0.4,0.013-0.675,0.013c-0.025,0-0.038-0.025-0.038-0.075c0-0.05,0.013-0.075,0.038-0.075c0.325,0,0.562-0.025,0.7-0.075
	c0.15-0.037,0.262-0.125,0.312-0.262c0.05-0.112,0.075-0.325,0.075-0.587v-6.147c0-0.25-0.025-0.45-0.075-0.587
	c-0.05-0.112-0.162-0.2-0.312-0.25c-0.138-0.05-0.362-0.075-0.687-0.075c-0.013,0-0.025-0.025-0.025-0.075
	c0-0.062,0.013-0.087,0.025-0.087l0.662,0.013c0.4,0.025,0.7,0.037,0.937,0.037c0.15,0,0.3-0.013,0.45-0.025
	c0.137,0,0.262-0.013,0.362-0.025c0.287-0.025,0.575-0.037,0.824-0.037c0.75,0,1.337,0.15,1.737,0.45
	c0.413,0.3,0.612,0.7,0.612,1.225c0,0.412-0.125,0.812-0.362,1.187c-0.263,0.362-0.575,0.675-0.987,0.9
	c0.75,1.124,1.374,1.999,1.874,2.624c0.5,0.637,0.937,1.1,1.325,1.362c0.4,0.288,0.774,0.437,1.149,0.437
	C387.803,319.121,387.815,319.146,387.815,319.196 M382.118,314.773c0.562,0,0.962-0.125,1.212-0.375
	c0.238-0.25,0.362-0.687,0.362-1.312c0-0.687-0.137-1.187-0.4-1.487c-0.262-0.287-0.625-0.425-1.1-0.425
	c-0.237,0-0.4,0.013-0.525,0.063c-0.125,0.05-0.212,0.138-0.262,0.25c-0.05,0.137-0.063,0.337-0.063,0.587v2.649
	C381.668,314.76,381.918,314.773,382.118,314.773"/>
<path d="M396.992,318.787c0.062,0.138,0.162,0.225,0.3,0.263c0.15,0.037,0.387,0.062,0.7,0.062c0.013,0,0.025,0.025,0.025,0.075
	c0,0.063-0.012,0.087-0.025,0.087c-0.275,0-0.5-0.012-0.662-0.012l-0.962-0.013l-0.925,0.013c-0.175,0-0.387,0.012-0.687,0.012
	c-0.025,0-0.037-0.025-0.037-0.087c0-0.05,0.012-0.075,0.037-0.075c0.325,0,0.55-0.025,0.7-0.062c0.162-0.038,0.25-0.125,0.3-0.263
	c0.063-0.125,0.088-0.324,0.088-0.587v-6.147c0-0.263-0.025-0.45-0.088-0.588c-0.05-0.125-0.137-0.212-0.3-0.25
	c-0.15-0.05-0.375-0.075-0.7-0.075c-0.025,0-0.037-0.025-0.037-0.075c0-0.063,0.012-0.088,0.037-0.088l0.687,0.013
	c0.387,0.025,0.7,0.038,0.925,0.038c0.262,0,0.587-0.013,0.975-0.038l0.65-0.013c0.013,0,0.025,0.025,0.025,0.088
	c0,0.05-0.012,0.075-0.025,0.075c-0.3,0-0.537,0.038-0.7,0.088c-0.138,0.037-0.238,0.137-0.3,0.262
	c-0.05,0.137-0.075,0.325-0.075,0.587v6.122C396.916,318.462,396.941,318.662,396.992,318.787"/>
<path d="M412.83,312.772c0,0.025-0.025,0.038-0.075,0.05c-0.05,0-0.075-0.013-0.087-0.038c-0.063-0.487-0.225-0.85-0.512-1.112
	c-0.275-0.238-0.65-0.375-1.112-0.375h-0.675c-0.387,0-0.637,0.063-0.774,0.162c-0.15,0.1-0.2,0.312-0.2,0.6v2.911h1.212
	c0.475,0,0.837-0.088,1.049-0.25c0.238-0.15,0.35-0.4,0.35-0.712c0-0.013,0.025-0.025,0.063-0.025c0.062,0,0.087,0.013,0.087,0.025
	l-0.013,1.099c0,0.275,0,0.475,0.013,0.6l0.013,0.675c0,0.013-0.025,0.025-0.075,0.025c-0.05,0-0.075-0.013-0.075-0.025
	c0-0.387-0.112-0.662-0.35-0.837c-0.225-0.188-0.6-0.275-1.1-0.275h-1.174v2.887c0,0.275,0.038,0.487,0.1,0.599
	c0.075,0.125,0.225,0.225,0.437,0.275c0.212,0.05,0.55,0.088,1.012,0.088c0.012,0,0.025,0.025,0.025,0.075
	c0,0.063-0.013,0.088-0.025,0.088c-0.375,0-0.65-0.013-0.862-0.013l-1.237-0.013l-0.937,0.013c-0.162,0-0.4,0.013-0.7,0.013
	c-0.013,0-0.025-0.025-0.025-0.088c0-0.05,0.013-0.075,0.025-0.075c0.325,0,0.575-0.025,0.724-0.075
	c0.162-0.037,0.263-0.125,0.313-0.262c0.062-0.112,0.087-0.325,0.087-0.575v-6.16c0-0.25-0.025-0.45-0.087-0.575
	c-0.05-0.125-0.15-0.212-0.3-0.263c-0.137-0.05-0.375-0.075-0.675-0.075c-0.025,0-0.038-0.025-0.038-0.075
	c0-0.063,0.013-0.087,0.038-0.087h5.398c0.1,0,0.137,0.05,0.137,0.125L412.83,312.772z"/>
<path d="M421.346,311.698c-0.3,0.3-0.538,0.787-0.688,1.475c-0.013,0.013-0.037,0.025-0.087,0.025c-0.037,0-0.063-0.013-0.063-0.025
	c0.037-0.25,0.063-0.675,0.112-1.212c0.037-0.562,0.063-1,0.063-1.275c0-0.037,0.025-0.063,0.087-0.063
	c0.05,0,0.075,0.025,0.075,0.063c0,0.2,0.237,0.288,0.737,0.288c0.737,0.025,1.624,0.05,2.649,0.05c0.525,0,1.075-0.013,1.662-0.037
	l0.912-0.013c0.325,0,0.562-0.013,0.712-0.05c0.15-0.05,0.25-0.138,0.3-0.275c0.013-0.037,0.038-0.05,0.075-0.05
	c0.05,0,0.075,0.013,0.075,0.05c-0.025,0.25-0.063,0.65-0.088,1.2c-0.025,0.55-0.037,0.987-0.037,1.324
	c0,0.013-0.025,0.025-0.075,0.025c-0.05,0-0.075-0.013-0.075-0.025c-0.063-0.687-0.25-1.174-0.525-1.475
	c-0.3-0.3-0.737-0.45-1.312-0.45c-0.325,0-0.562,0.025-0.7,0.063c-0.138,0.037-0.238,0.112-0.288,0.212
	c-0.063,0.125-0.087,0.3-0.087,0.55v6.135c0,0.262,0.025,0.462,0.087,0.587c0.063,0.125,0.175,0.212,0.35,0.25
	c0.15,0.05,0.437,0.075,0.8,0.075c0.013,0,0.025,0.025,0.025,0.075s-0.012,0.075-0.025,0.075c-0.3,0-0.55-0.013-0.737-0.013
	l-1.049-0.013l-1.012,0.013c-0.175,0-0.425,0.013-0.737,0.013c-0.025,0-0.037-0.025-0.037-0.075s0.013-0.075,0.037-0.075
	c0.363,0,0.625-0.025,0.787-0.075c0.175-0.037,0.287-0.125,0.35-0.262c0.063-0.112,0.088-0.325,0.088-0.575v-6.16
	c0-0.238-0.025-0.425-0.075-0.537c-0.05-0.1-0.15-0.175-0.3-0.212c-0.138-0.037-0.363-0.05-0.688-0.05
	C422.096,311.248,421.658,311.411,421.346,311.698"/>
<path d="M438.05,318.787c0.05,0.138,0.162,0.225,0.3,0.263c0.15,0.037,0.387,0.062,0.7,0.062c0.013,0,0.025,0.025,0.025,0.075
	c0,0.063-0.012,0.087-0.025,0.087c-0.288,0-0.512-0.012-0.675-0.012l-0.949-0.013l-0.925,0.013c-0.175,0-0.4,0.012-0.7,0.012
	c-0.013,0-0.025-0.025-0.025-0.087c0-0.05,0.012-0.075,0.025-0.075c0.325,0,0.562-0.025,0.712-0.062
	c0.15-0.038,0.25-0.125,0.3-0.263c0.05-0.125,0.075-0.324,0.075-0.587v-6.147c0-0.263-0.025-0.45-0.075-0.588
	c-0.05-0.125-0.15-0.212-0.3-0.25c-0.15-0.05-0.387-0.075-0.712-0.075c-0.013,0-0.025-0.025-0.025-0.075
	c0-0.063,0.012-0.088,0.025-0.088l0.7,0.013c0.387,0.025,0.7,0.038,0.925,0.038c0.262,0,0.575-0.013,0.962-0.038l0.662-0.013
	c0.013,0,0.025,0.025,0.025,0.088c0,0.05-0.012,0.075-0.025,0.075c-0.312,0-0.55,0.038-0.7,0.088c-0.138,0.037-0.25,0.137-0.3,0.262
	c-0.05,0.137-0.075,0.325-0.075,0.587v6.122C437.975,318.462,438,318.662,438.05,318.787"/>
<path d="M455.878,311.064c0,0.05-0.013,0.075-0.038,0.075c-0.724,0-1.087,0.463-1.087,1.387v6.922c0,0.013-0.025,0.025-0.062,0.037
	c-0.038,0.013-0.075,0.013-0.088-0.013l-6.222-7.372v5.648c0,0.463,0.087,0.825,0.262,1.037c0.175,0.225,0.437,0.337,0.787,0.337
	c0.025,0,0.038,0.013,0.038,0.063c0,0.063-0.013,0.087-0.038,0.087c-0.225,0-0.4-0.013-0.537-0.013l-0.662-0.012l-0.724,0.012
	c-0.138,0-0.325,0.013-0.587,0.013c-0.013,0-0.025-0.025-0.025-0.087c0-0.05,0.013-0.063,0.025-0.063
	c0.387,0,0.675-0.112,0.85-0.337c0.175-0.212,0.275-0.575,0.275-1.037v-6.022c-0.387-0.4-0.775-0.587-1.162-0.587
	c-0.025,0-0.038-0.025-0.038-0.075c0-0.062,0.013-0.087,0.038-0.087l0.525,0.013c0.1,0.013,0.262,0.013,0.437,0.013l0.7-0.013
	c0.087,0,0.187-0.013,0.312-0.013c0.063,0,0.112,0.013,0.15,0.05c0.025,0.037,0.075,0.1,0.15,0.212
	c0.088,0.112,0.2,0.262,0.325,0.437l4.948,5.948v-5.098c0-0.475-0.087-0.824-0.262-1.049c-0.162-0.225-0.425-0.337-0.774-0.337
	c-0.025,0-0.025-0.025-0.025-0.075c0-0.062,0-0.087,0.025-0.087l0.525,0.013c0.262,0.025,0.5,0.037,0.675,0.037
	c0.162,0,0.4-0.013,0.687-0.037l0.562-0.013C455.865,310.977,455.878,311.002,455.878,311.064"/>
<path d="M464.944,318.873c-0.725-0.362-1.275-0.874-1.65-1.512c-0.375-0.638-0.575-1.349-0.575-2.137
	c0-0.85,0.225-1.612,0.662-2.286c0.437-0.65,1.037-1.174,1.812-1.55c0.762-0.362,1.612-0.562,2.574-0.562
	c0.425,0,0.837,0.05,1.237,0.125c0.4,0.087,0.737,0.187,0.987,0.325c0.075,0.05,0.112,0.075,0.137,0.112
	c0.013,0.038,0.025,0.1,0.038,0.188l0.175,1.612c0,0.025-0.025,0.037-0.075,0.037c-0.05,0.013-0.075,0-0.088-0.025
	c-0.237-0.662-0.6-1.162-1.124-1.512c-0.525-0.362-1.149-0.537-1.887-0.537c-1.037,0-1.849,0.312-2.424,0.962
	c-0.562,0.637-0.837,1.512-0.837,2.624c0,0.862,0.175,1.637,0.5,2.311c0.337,0.675,0.8,1.2,1.387,1.587
	c0.587,0.387,1.262,0.562,2.011,0.562c0.413,0,0.737-0.037,0.975-0.112c0.225-0.075,0.4-0.238,0.5-0.475
	c0.1-0.212,0.15-0.549,0.15-1.012c0-0.462-0.025-0.774-0.075-0.962c-0.05-0.175-0.188-0.3-0.375-0.362
	c-0.188-0.063-0.525-0.1-0.987-0.1c-0.05,0-0.087-0.025-0.087-0.1c0-0.037,0.012-0.05,0.025-0.062
	c0.013-0.025,0.025-0.038,0.05-0.038c0.712,0.038,1.287,0.063,1.724,0.063c0.412,0,0.85-0.013,1.325-0.037
	c0.012,0,0.037,0.013,0.05,0.025c0.012,0.025,0.012,0.05,0.012,0.063c0,0.063-0.025,0.088-0.062,0.088
	c-0.188,0-0.325,0.025-0.413,0.1c-0.075,0.063-0.137,0.2-0.15,0.4c-0.025,0.2-0.037,0.55-0.037,1.062c0,0.387,0.012,0.675,0.05,0.85
	c0.025,0.162,0.037,0.275,0.037,0.312c0,0.063,0,0.087-0.025,0.112c-0.025,0.013-0.062,0.025-0.125,0.05
	c-1.087,0.25-2.049,0.375-2.911,0.375C466.493,319.436,465.668,319.248,464.944,318.873"/>
<path d="M500.036,311.064c0,0.05-0.013,0.075-0.038,0.075c-0.637,0-1.112,0.4-1.424,1.212l-2.712,6.909
	c-0.012,0.025-0.063,0.05-0.149,0.05c-0.088,0-0.125-0.025-0.138-0.05l-1.724-3.723l-1.449,3.723c0,0.025-0.05,0.05-0.15,0.05
	c-0.087,0-0.137-0.025-0.149-0.05l-3.323-7.184c-0.162-0.363-0.325-0.625-0.463-0.75c-0.149-0.125-0.362-0.188-0.624-0.188
	c-0.025,0-0.038-0.025-0.038-0.075c0-0.062,0.013-0.087,0.038-0.087l0.412,0.013c0.225,0.025,0.45,0.037,0.65,0.037
	c0.4,0,0.787-0.013,1.174-0.037c0.125,0,0.3-0.013,0.5-0.013c0.037,0,0.05,0.025,0.05,0.087c0,0.05-0.013,0.075-0.05,0.075
	c-0.237,0-0.437,0.037-0.537,0.087c-0.125,0.05-0.175,0.15-0.175,0.3c0,0.125,0.063,0.312,0.175,0.6l2.699,5.735l1.075-2.711
	l-1.425-3.074c-0.15-0.312-0.3-0.562-0.45-0.712c-0.162-0.138-0.337-0.225-0.562-0.225c-0.037,0-0.05-0.025-0.05-0.075
	c0-0.062,0.013-0.087,0.05-0.087l0.4,0.013c0.225,0.025,0.413,0.037,0.587,0.037c0.337,0,0.65-0.013,0.925-0.037
	c0.1,0,0.212-0.013,0.374-0.013c0.012,0,0.025,0.025,0.025,0.087c0,0.05-0.013,0.075-0.025,0.075c-0.162,0-0.275,0.025-0.337,0.05
	c-0.076,0.037-0.1,0.088-0.1,0.162c0,0.075,0.024,0.175,0.075,0.312c0.063,0.138,0.125,0.275,0.212,0.463l0.837,1.812l0.65-1.637
	c0.137-0.337,0.2-0.575,0.2-0.75c0-0.262-0.175-0.412-0.5-0.412c-0.012,0-0.025-0.025-0.025-0.075c0-0.062,0.013-0.087,0.025-0.087
	l0.262,0.013c0.162,0.025,0.362,0.037,0.612,0.037c0.175,0,0.362-0.013,0.574-0.037l0.55-0.013c0.013,0,0.025,0.025,0.025,0.087
	c0,0.05-0.012,0.075-0.025,0.075c-0.312,0-0.562,0.1-0.799,0.275c-0.213,0.188-0.413,0.5-0.575,0.937l-0.787,1.974l1.662,3.536
	l2.174-5.51c0.075-0.2,0.112-0.387,0.112-0.537c0-0.463-0.3-0.675-0.924-0.675c-0.025,0-0.037-0.025-0.037-0.075
	c0-0.062,0.012-0.087,0.037-0.087l0.575,0.013c0.312,0.025,0.599,0.037,0.824,0.037c0.188,0,0.4-0.013,0.625-0.037l0.562-0.013
	C500.023,310.977,500.036,311.002,500.036,311.064"/>
<path d="M509.285,318.787c0.062,0.138,0.162,0.225,0.3,0.263c0.149,0.037,0.387,0.062,0.699,0.062c0.013,0,0.025,0.025,0.025,0.075
	c0,0.063-0.012,0.087-0.025,0.087c-0.275,0-0.5-0.012-0.662-0.012l-0.962-0.013l-0.924,0.013c-0.175,0-0.387,0.012-0.687,0.012
	c-0.025,0-0.025-0.025-0.025-0.087c0-0.05,0-0.075,0.025-0.075c0.325,0,0.55-0.025,0.699-0.062c0.162-0.038,0.25-0.125,0.3-0.263
	c0.063-0.125,0.088-0.324,0.088-0.587v-6.147c0-0.263-0.025-0.45-0.088-0.588c-0.05-0.125-0.137-0.212-0.3-0.25
	c-0.149-0.05-0.374-0.075-0.699-0.075c-0.025,0-0.025-0.025-0.025-0.075c0-0.063,0-0.088,0.025-0.088l0.687,0.013
	c0.387,0.025,0.699,0.038,0.924,0.038c0.262,0,0.587-0.013,0.975-0.038l0.65-0.013c0.013,0,0.025,0.025,0.025,0.088
	c0,0.05-0.012,0.075-0.025,0.075c-0.3,0-0.537,0.038-0.699,0.088c-0.138,0.037-0.238,0.137-0.3,0.262
	c-0.05,0.137-0.076,0.325-0.076,0.587v6.122C509.21,318.462,509.235,318.662,509.285,318.787"/>
<path d="M518.754,311.698c-0.313,0.3-0.55,0.787-0.7,1.475c-0.012,0.013-0.037,0.025-0.075,0.025c-0.05,0-0.076-0.013-0.076-0.025
	c0.038-0.25,0.076-0.675,0.113-1.212c0.037-0.562,0.062-1,0.062-1.275c0-0.037,0.025-0.063,0.087-0.063
	c0.05,0,0.076,0.025,0.076,0.063c0,0.2,0.249,0.288,0.737,0.288c0.75,0.025,1.624,0.05,2.661,0.05c0.512,0,1.075-0.013,1.65-0.037
	l0.912-0.013c0.325,0,0.562-0.013,0.712-0.05c0.149-0.05,0.249-0.138,0.3-0.275c0.012-0.037,0.037-0.05,0.075-0.05
	c0.05,0,0.076,0.013,0.076,0.05c-0.025,0.25-0.063,0.65-0.088,1.2c-0.025,0.55-0.037,0.987-0.037,1.324
	c0,0.013-0.025,0.025-0.076,0.025c-0.05,0-0.075-0.013-0.075-0.025c-0.063-0.687-0.237-1.174-0.525-1.475
	c-0.3-0.3-0.737-0.45-1.312-0.45c-0.325,0-0.563,0.025-0.687,0.063c-0.15,0.037-0.25,0.112-0.3,0.212
	c-0.062,0.125-0.087,0.3-0.087,0.55v6.135c0,0.262,0.037,0.462,0.087,0.587c0.063,0.125,0.175,0.212,0.35,0.25
	c0.162,0.05,0.438,0.075,0.8,0.075c0.025,0,0.025,0.025,0.025,0.075s0,0.075-0.025,0.075c-0.3,0-0.55-0.013-0.737-0.013
	l-1.037-0.013l-1.024,0.013c-0.175,0-0.425,0.013-0.737,0.013c-0.025,0-0.037-0.025-0.037-0.075s0.012-0.075,0.037-0.075
	c0.362,0,0.625-0.025,0.787-0.075c0.175-0.037,0.287-0.125,0.35-0.262c0.063-0.112,0.088-0.325,0.088-0.575v-6.16
	c0-0.238-0.013-0.425-0.063-0.537c-0.062-0.1-0.162-0.175-0.3-0.212c-0.15-0.037-0.375-0.05-0.7-0.05
	C519.49,311.248,519.053,311.411,518.754,311.698"/>
<path d="M541.998,319.189c0,0.063-0.013,0.088-0.038,0.088c-0.275,0-0.512-0.013-0.674-0.013l-0.962-0.013l-1.049,0.013
	c-0.137,0-0.35,0.013-0.625,0.013c-0.025,0-0.038-0.025-0.038-0.088c0-0.05,0.013-0.075,0.038-0.075c0.349,0,0.587-0.025,0.75-0.075
	c0.162-0.037,0.262-0.112,0.312-0.25c0.063-0.125,0.088-0.337,0.088-0.587v-3.099h-4.823v3.099c0,0.25,0.012,0.462,0.075,0.587
	c0.05,0.137,0.162,0.212,0.325,0.25c0.15,0.05,0.4,0.075,0.737,0.075c0.012,0,0.024,0.025,0.024,0.075
	c0,0.063-0.012,0.088-0.024,0.088c-0.288,0-0.513-0.013-0.675-0.013l-1.025-0.013l-0.949,0.013c-0.149,0-0.387,0.013-0.675,0.013
	c-0.024,0-0.024-0.025-0.024-0.088c0-0.05,0-0.075,0.024-0.075c0.325,0,0.563-0.025,0.712-0.075c0.162-0.037,0.262-0.112,0.325-0.25
	c0.063-0.125,0.088-0.337,0.088-0.587v-6.147c0-0.262-0.025-0.45-0.075-0.587c-0.062-0.125-0.162-0.212-0.313-0.262
	c-0.149-0.05-0.387-0.075-0.712-0.075c-0.025,0-0.037-0.013-0.037-0.063c0-0.063,0.012-0.087,0.037-0.087l0.663,0.013
	c0.387,0.025,0.687,0.037,0.937,0.037c0.287,0,0.625-0.013,1.037-0.037l0.663-0.013c0.012,0,0.024,0.025,0.024,0.087
	c0,0.05-0.012,0.063-0.024,0.063c-0.325,0-0.575,0.037-0.725,0.088c-0.162,0.05-0.275,0.15-0.337,0.275
	c-0.062,0.138-0.075,0.325-0.075,0.588v2.711h4.823v-2.711c0-0.263-0.037-0.45-0.088-0.588c-0.05-0.125-0.162-0.225-0.312-0.275
	c-0.162-0.05-0.4-0.088-0.75-0.088c-0.025,0-0.038-0.013-0.038-0.063c0-0.063,0.013-0.087,0.038-0.087l0.625,0.013
	c0.412,0.025,0.762,0.037,1.049,0.037c0.262,0,0.575-0.013,0.962-0.037l0.674-0.013c0.025,0,0.038,0.025,0.038,0.087
	c0,0.05-0.013,0.063-0.038,0.063c-0.325,0-0.562,0.025-0.724,0.075c-0.137,0.05-0.25,0.137-0.3,0.262
	c-0.063,0.137-0.088,0.325-0.088,0.587v6.147c0,0.25,0.025,0.462,0.088,0.587c0.05,0.137,0.162,0.212,0.3,0.25
	c0.162,0.05,0.4,0.075,0.724,0.075C541.985,319.115,541.998,319.139,541.998,319.189"/>
<path d="M566.756,311.064c0,0.05-0.013,0.075-0.025,0.075c-0.3,0-0.625,0.138-0.975,0.4c-0.35,0.287-0.663,0.637-0.937,1.075
	l-1.65,2.586v2.999c0,0.275,0.037,0.462,0.076,0.6c0.05,0.125,0.137,0.212,0.287,0.25c0.15,0.05,0.375,0.075,0.712,0.075
	c0.025,0,0.037,0.013,0.037,0.063c0,0.063-0.012,0.087-0.037,0.087c-0.288,0-0.5-0.013-0.662-0.013l-0.949-0.012l-0.925,0.012
	c-0.162,0-0.4,0.013-0.687,0.013c-0.025,0-0.037-0.025-0.037-0.087c0-0.05,0.012-0.063,0.037-0.063c0.313,0,0.563-0.025,0.712-0.075
	c0.137-0.037,0.25-0.125,0.3-0.262c0.05-0.125,0.076-0.325,0.076-0.587v-2.774l-2.099-3.136c-0.287-0.437-0.537-0.725-0.762-0.9
	c-0.213-0.162-0.45-0.25-0.687-0.25c-0.025,0-0.038-0.025-0.038-0.075c0-0.062,0.013-0.087,0.038-0.087
	c0.1,0,0.249,0.013,0.462,0.025l0.437,0.025c0.287,0,0.7-0.013,1.212-0.037l0.763-0.013c0.012,0,0.025,0.025,0.025,0.087
	c0,0.05-0.013,0.075-0.025,0.075c-0.413,0-0.625,0.112-0.625,0.312c0,0.1,0.05,0.238,0.149,0.387l2.037,3.049l1.487-2.362
	c0.225-0.337,0.325-0.625,0.325-0.837c0-0.175-0.063-0.325-0.188-0.4c-0.125-0.1-0.3-0.15-0.55-0.15
	c-0.025,0-0.037-0.025-0.037-0.075c0-0.062,0.012-0.087,0.037-0.087l0.662,0.013c0.35,0.025,0.675,0.037,0.962,0.037
	c0.149,0,0.325-0.013,0.55-0.037l0.487-0.013C566.743,310.977,566.756,311.002,566.756,311.064"/>
<path d="M575.552,318.853c-0.638-0.387-1.137-0.912-1.474-1.562c-0.35-0.662-0.525-1.387-0.525-2.149
	c0-0.912,0.225-1.699,0.688-2.349c0.462-0.65,1.049-1.137,1.762-1.462c0.724-0.325,1.462-0.5,2.212-0.5c0.837,0,1.586,0.2,2.224,0.6
	c0.625,0.387,1.125,0.912,1.462,1.562c0.337,0.637,0.513,1.312,0.513,2.049c0,0.8-0.213,1.55-0.638,2.224
	c-0.425,0.662-1,1.187-1.712,1.587c-0.699,0.387-1.486,0.587-2.312,0.587C576.927,319.44,576.202,319.24,575.552,318.853
	 M579.738,318.702c0.449-0.287,0.799-0.724,1.075-1.287c0.249-0.549,0.387-1.224,0.387-2.011c0-0.812-0.149-1.549-0.425-2.187
	c-0.287-0.65-0.712-1.149-1.237-1.524c-0.537-0.363-1.149-0.537-1.862-0.537c-0.924,0-1.637,0.312-2.149,0.937
	c-0.513,0.625-0.762,1.487-0.762,2.586c0,0.825,0.137,1.6,0.437,2.274c0.275,0.675,0.687,1.212,1.212,1.599
	c0.525,0.4,1.125,0.587,1.8,0.587C578.788,319.14,579.289,318.99,579.738,318.702"/>
<path d="M596.32,311.49c-0.201-0.237-0.487-0.35-0.875-0.35c-0.038,0-0.05-0.025-0.05-0.075c0-0.062,0.012-0.087,0.05-0.087
	l0.599,0.013c0.313,0.025,0.55,0.037,0.737,0.037c0.175,0,0.387-0.013,0.699-0.037l0.575-0.013c0.012,0,0.025,0.025,0.025,0.087
	c0,0.05-0.013,0.075-0.025,0.075c-0.724,0-1.075,0.462-1.075,1.387v3.736c0,0.987-0.3,1.762-0.887,2.324
	c-0.563,0.575-1.337,0.862-2.299,0.862c-0.662,0-1.237-0.138-1.737-0.387c-0.487-0.25-0.875-0.6-1.15-1.075
	c-0.275-0.487-0.412-1.037-0.412-1.674v-4.261c0-0.262-0.025-0.45-0.076-0.587c-0.062-0.125-0.149-0.212-0.3-0.25
	c-0.15-0.05-0.374-0.075-0.699-0.075c-0.025,0-0.038-0.025-0.038-0.075c0-0.062,0.013-0.087,0.038-0.087l0.662,0.013
	c0.387,0.025,0.712,0.037,0.924,0.037c0.262,0,0.575-0.013,0.962-0.037l0.637-0.013c0.025,0,0.038,0.025,0.038,0.087
	c0,0.05-0.013,0.075-0.038,0.075c-0.3,0-0.537,0.037-0.687,0.087c-0.137,0.038-0.237,0.138-0.287,0.262
	c-0.063,0.138-0.088,0.325-0.088,0.588v3.773c0,1.049,0.237,1.836,0.687,2.361c0.45,0.537,1.1,0.812,1.912,0.812
	c0.774,0,1.386-0.25,1.811-0.725c0.438-0.487,0.65-1.162,0.65-2.024v-3.749C596.607,312.065,596.52,311.728,596.32,311.49"/>
<path d="M614.013,319.196c0,0.05-0.012,0.075-0.037,0.075h-1.912c-0.225,0-0.612-0.375-1.212-1.124
	c-0.587-0.762-1.274-1.799-2.099-3.111c-0.2,0.025-0.4,0.05-0.587,0.05c-0.149,0-0.375,0-0.637-0.025v3.136
	c0,0.262,0.012,0.475,0.075,0.587c0.05,0.137,0.15,0.225,0.3,0.262c0.137,0.05,0.375,0.075,0.687,0.075
	c0.025,0,0.037,0.025,0.037,0.075c0,0.05-0.012,0.075-0.037,0.075c-0.262,0-0.487-0.013-0.637-0.013l-0.949-0.013l-0.95,0.013
	c-0.149,0-0.387,0.013-0.662,0.013c-0.025,0-0.037-0.025-0.037-0.075c0-0.05,0.012-0.075,0.037-0.075c0.313,0,0.55-0.025,0.7-0.075
	c0.149-0.037,0.249-0.125,0.312-0.262c0.05-0.112,0.075-0.325,0.075-0.587v-6.147c0-0.25-0.024-0.45-0.075-0.587
	c-0.063-0.112-0.162-0.2-0.312-0.25c-0.138-0.05-0.375-0.075-0.688-0.075c-0.012,0-0.024-0.025-0.024-0.075
	c0-0.062,0.012-0.087,0.024-0.087l0.65,0.013c0.4,0.025,0.712,0.037,0.95,0.037c0.149,0,0.3-0.013,0.437-0.025
	c0.137,0,0.262-0.013,0.375-0.025c0.287-0.025,0.562-0.037,0.811-0.037c0.763,0,1.338,0.15,1.749,0.45
	c0.4,0.3,0.612,0.7,0.612,1.225c0,0.412-0.125,0.812-0.374,1.187c-0.25,0.362-0.563,0.675-0.975,0.9
	c0.75,1.124,1.374,1.999,1.874,2.624c0.5,0.637,0.937,1.1,1.325,1.362c0.4,0.288,0.775,0.437,1.137,0.437
	C614,319.121,614.013,319.146,614.013,319.196 M608.303,314.773c0.574,0,0.974-0.125,1.224-0.375
	c0.237-0.25,0.362-0.687,0.362-1.312c0-0.687-0.137-1.187-0.4-1.487c-0.275-0.287-0.638-0.425-1.1-0.425
	c-0.237,0-0.4,0.013-0.525,0.063s-0.212,0.138-0.262,0.25c-0.063,0.137-0.075,0.337-0.075,0.587v2.649
	C607.865,314.76,608.115,314.773,608.303,314.773"/>
<path d="M636.136,317.225c0.024,0,0.05,0.013,0.075,0.025c0.025,0.013,0.037,0.025,0.037,0.037c-0.1,0.638-0.137,1.237-0.137,1.787
	c0,0.063-0.013,0.112-0.037,0.15c-0.038,0.038-0.088,0.05-0.162,0.05h-5.66c-0.025,0-0.038-0.025-0.038-0.087
	c0-0.05,0.013-0.075,0.038-0.075c0.337,0,0.55-0.025,0.699-0.062c0.137-0.038,0.237-0.125,0.288-0.263
	c0.05-0.125,0.075-0.324,0.075-0.587v-6.147c0-0.263-0.024-0.45-0.075-0.588c-0.05-0.125-0.15-0.212-0.3-0.25
	c-0.15-0.05-0.362-0.075-0.687-0.075c-0.025,0-0.038-0.025-0.038-0.075c0-0.063,0.013-0.088,0.038-0.088h5.422
	c0.088,0,0.138,0.05,0.138,0.125l0.024,1.674c0,0.025-0.024,0.025-0.075,0.037c-0.05,0-0.075-0.012-0.088-0.025
	c-0.063-0.5-0.237-0.862-0.512-1.112c-0.3-0.25-0.663-0.387-1.125-0.387h-0.675c-0.387,0-0.637,0.063-0.775,0.175
	c-0.137,0.112-0.212,0.325-0.212,0.65v2.687h1.462c0.462,0,0.787-0.075,1-0.225c0.212-0.162,0.325-0.4,0.325-0.737
	c0,0,0.024-0.012,0.075-0.012c0.037,0,0.075,0.012,0.075,0.012l-0.012,1.124l0.012,0.588c0.013,0.287,0.025,0.512,0.025,0.675
	c0,0.013-0.025,0.025-0.088,0.025c-0.05,0-0.075-0.013-0.075-0.025c0-0.387-0.113-0.675-0.337-0.837
	c-0.213-0.188-0.55-0.288-1.037-0.288h-1.425v3.049c0,0.313,0.063,0.525,0.188,0.65c0.125,0.112,0.362,0.175,0.712,0.175h0.874
	c0.5,0,0.912-0.15,1.25-0.45c0.337-0.3,0.562-0.712,0.687-1.262C636.086,317.238,636.098,317.225,636.136,317.225"/>
<path d="M649.899,310.942c0.437,0.088,0.774,0.188,1.036,0.313c0.076,0.037,0.125,0.075,0.15,0.112
	c0.012,0.037,0.037,0.112,0.063,0.212l0.137,1.612c0,0.025-0.025,0.037-0.075,0.037c-0.025,0.013-0.062,0-0.062-0.025
	c-0.237-0.7-0.612-1.212-1.137-1.55c-0.525-0.35-1.149-0.512-1.887-0.512c-0.638,0-1.2,0.137-1.674,0.45
	c-0.475,0.288-0.85,0.7-1.1,1.237c-0.262,0.55-0.387,1.175-0.387,1.887c0,0.812,0.162,1.574,0.487,2.262
	c0.312,0.688,0.75,1.237,1.287,1.637c0.55,0.4,1.137,0.6,1.787,0.6c1.274,0,2.174-0.725,2.724-2.186
	c0-0.025,0.025-0.038,0.062-0.038c0.025,0,0.05,0,0.075,0.013c0.013,0.013,0.025,0.025,0.025,0.037l-0.188,1.612
	c-0.012,0.1-0.025,0.175-0.05,0.2c-0.025,0.037-0.076,0.075-0.15,0.112c-0.824,0.312-1.65,0.475-2.499,0.475
	c-1.062,0-1.974-0.225-2.674-0.65c-0.724-0.425-1.249-0.975-1.587-1.637c-0.337-0.662-0.5-1.362-0.5-2.087
	c0-0.812,0.225-1.549,0.675-2.199c0.462-0.625,1.062-1.137,1.811-1.499c0.75-0.35,1.55-0.537,2.387-0.537
	C649.049,310.829,649.473,310.867,649.899,310.942"/>
<path d="M667.884,319.189c0,0.063-0.013,0.088-0.05,0.088c-0.275,0-0.5-0.013-0.675-0.013l-0.949-0.013l-1.049,0.013
	c-0.15,0-0.362,0.013-0.625,0.013c-0.038,0-0.038-0.025-0.038-0.088c0-0.05,0-0.075,0.038-0.075c0.337,0,0.574-0.025,0.75-0.075
	c0.162-0.037,0.262-0.112,0.312-0.25c0.05-0.125,0.076-0.337,0.076-0.587v-3.099h-4.823v3.099c0,0.25,0.025,0.462,0.075,0.587
	c0.05,0.137,0.162,0.212,0.325,0.25c0.149,0.05,0.4,0.075,0.737,0.075c0.013,0,0.025,0.025,0.025,0.075
	c0,0.063-0.012,0.088-0.025,0.088c-0.275,0-0.512-0.013-0.674-0.013l-1.013-0.013l-0.949,0.013c-0.162,0-0.4,0.013-0.687,0.013
	c-0.012,0-0.025-0.025-0.025-0.088c0-0.05,0.013-0.075,0.025-0.075c0.325,0,0.575-0.025,0.712-0.075
	c0.162-0.037,0.275-0.112,0.325-0.25c0.063-0.125,0.088-0.337,0.088-0.587v-6.147c0-0.262-0.025-0.45-0.076-0.587
	c-0.05-0.125-0.162-0.212-0.312-0.262c-0.137-0.05-0.387-0.075-0.712-0.075c-0.025,0-0.037-0.013-0.037-0.063
	c0-0.063,0.012-0.087,0.037-0.087l0.675,0.013c0.374,0.025,0.674,0.037,0.937,0.037c0.275,0,0.612-0.013,1.037-0.037l0.65-0.013
	c0.013,0,0.025,0.025,0.025,0.087c0,0.05-0.012,0.063-0.025,0.063c-0.325,0-0.574,0.037-0.724,0.088
	c-0.162,0.05-0.275,0.15-0.337,0.275c-0.05,0.138-0.075,0.325-0.075,0.588v2.711h4.823v-2.711c0-0.263-0.025-0.45-0.088-0.588
	c-0.05-0.125-0.15-0.225-0.313-0.275c-0.162-0.05-0.4-0.088-0.737-0.088c-0.038,0-0.038-0.013-0.038-0.063
	c0-0.063,0-0.087,0.038-0.087l0.625,0.013c0.4,0.025,0.762,0.037,1.049,0.037c0.25,0,0.562-0.013,0.949-0.037l0.675-0.013
	c0.037,0,0.05,0.025,0.05,0.087c0,0.05-0.013,0.063-0.05,0.063c-0.313,0-0.562,0.025-0.712,0.075c-0.15,0.05-0.25,0.137-0.313,0.262
	c-0.062,0.137-0.087,0.325-0.087,0.587v6.147c0,0.25,0.025,0.462,0.087,0.587c0.063,0.137,0.162,0.212,0.313,0.25
	c0.15,0.05,0.4,0.075,0.712,0.075C667.871,319.115,667.884,319.139,667.884,319.189"/>
<path d="M677.474,318.853c-0.638-0.387-1.137-0.912-1.487-1.562c-0.337-0.662-0.525-1.387-0.525-2.149
	c0-0.912,0.225-1.699,0.7-2.349c0.462-0.65,1.049-1.137,1.762-1.462c0.724-0.325,1.462-0.5,2.212-0.5c0.837,0,1.574,0.2,2.224,0.6
	c0.625,0.387,1.125,0.912,1.462,1.562c0.337,0.637,0.512,1.312,0.512,2.049c0,0.8-0.225,1.55-0.638,2.224
	c-0.425,0.662-1,1.187-1.712,1.587c-0.699,0.387-1.486,0.587-2.311,0.587C678.849,319.44,678.124,319.24,677.474,318.853
	 M681.66,318.702c0.449-0.287,0.799-0.724,1.075-1.287c0.249-0.549,0.387-1.224,0.387-2.011c0-0.812-0.149-1.549-0.437-2.187
	c-0.275-0.65-0.7-1.149-1.237-1.524c-0.525-0.363-1.137-0.537-1.849-0.537c-0.924,0-1.65,0.312-2.161,0.937
	c-0.512,0.625-0.75,1.487-0.75,2.586c0,0.825,0.125,1.6,0.425,2.274c0.288,0.675,0.699,1.212,1.224,1.599
	c0.525,0.4,1.125,0.587,1.8,0.587C680.71,319.14,681.21,318.99,681.66,318.702"/>
<path d="M697.657,317.225c0.037,0,0.062,0.013,0.075,0.025c0.025,0.013,0.037,0.025,0.037,0.037
	c-0.088,0.638-0.137,1.237-0.137,1.787c0,0.063-0.013,0.112-0.037,0.15c-0.025,0.038-0.088,0.05-0.162,0.05h-5.648
	c-0.037,0-0.037-0.025-0.037-0.087c0-0.05,0-0.075,0.037-0.075c0.325,0,0.55-0.025,0.687-0.062c0.15-0.038,0.237-0.125,0.288-0.263
	c0.062-0.125,0.088-0.324,0.088-0.587v-6.147c0-0.263-0.025-0.45-0.088-0.588c-0.05-0.125-0.137-0.212-0.288-0.25
	c-0.149-0.05-0.374-0.075-0.687-0.075c-0.037,0-0.037-0.025-0.037-0.075c0-0.063,0-0.088,0.037-0.088h5.41
	c0.1,0,0.138,0.05,0.138,0.125l0.024,1.674c0,0.025-0.024,0.025-0.075,0.037c-0.05,0-0.075-0.012-0.088-0.025
	c-0.063-0.5-0.237-0.862-0.512-1.112c-0.288-0.25-0.663-0.387-1.113-0.387h-0.687c-0.387,0-0.637,0.063-0.775,0.175
	c-0.137,0.112-0.2,0.325-0.2,0.65v2.687h1.45c0.462,0,0.787-0.075,1-0.225c0.212-0.162,0.325-0.4,0.325-0.737
	c0,0,0.024-0.012,0.075-0.012c0.05,0,0.075,0.012,0.075,0.012l-0.012,1.124l0.012,0.588c0.013,0.287,0.025,0.512,0.025,0.675
	c0,0.013-0.025,0.025-0.075,0.025c-0.063,0-0.088-0.013-0.088-0.025c0-0.387-0.113-0.675-0.337-0.837
	c-0.201-0.188-0.55-0.288-1.037-0.288h-1.412v3.049c0,0.313,0.063,0.525,0.175,0.65c0.125,0.112,0.362,0.175,0.724,0.175h0.862
	c0.512,0,0.925-0.15,1.25-0.45c0.337-0.3,0.562-0.712,0.687-1.262C697.607,317.238,697.632,317.225,697.657,317.225"/>
<path d="M707.2,313.346c0.175,0.263,0.362,0.475,0.612,0.662c0.238,0.175,0.575,0.387,1,0.637c0.437,0.288,0.787,0.525,1.049,0.725
	c0.25,0.2,0.487,0.437,0.675,0.737c0.175,0.288,0.275,0.625,0.275,1.037c0,0.425-0.124,0.812-0.337,1.162
	c-0.225,0.363-0.55,0.625-0.962,0.837c-0.438,0.187-0.925,0.288-1.475,0.288c-0.35,0-0.699-0.038-1.049-0.112
	c-0.35-0.088-0.638-0.212-0.9-0.375c-0.05-0.038-0.075-0.063-0.1-0.1c-0.012-0.037-0.025-0.075-0.025-0.15l-0.124-1.899
	c-0.013-0.037,0.012-0.062,0.063-0.062c0.037-0.013,0.062,0,0.075,0.025c0.212,0.675,0.513,1.25,0.9,1.724
	c0.374,0.463,0.874,0.7,1.486,0.7c0.413,0,0.75-0.112,1.037-0.337c0.275-0.225,0.413-0.587,0.413-1.099
	c0-0.4-0.088-0.737-0.275-1.025c-0.162-0.3-0.387-0.537-0.625-0.737c-0.262-0.213-0.599-0.425-1.012-0.688
	c-0.425-0.262-0.762-0.5-0.987-0.675c-0.25-0.2-0.463-0.437-0.625-0.712c-0.175-0.288-0.262-0.6-0.262-0.975
	c0-0.45,0.125-0.837,0.375-1.162c0.237-0.312,0.55-0.55,0.949-0.712c0.4-0.137,0.812-0.225,1.237-0.225c0.6,0,1.137,0.112,1.612,0.3
	c0.137,0.062,0.2,0.137,0.2,0.25l0.062,1.662c0,0.037-0.013,0.05-0.062,0.05c-0.05,0.013-0.075,0-0.075-0.025
	c-0.101-0.487-0.3-0.937-0.638-1.375c-0.313-0.425-0.763-0.637-1.337-0.637c-0.45,0-0.8,0.137-1.037,0.4
	c-0.25,0.262-0.375,0.599-0.375,1.012C706.936,312.808,707.024,313.096,707.2,313.346"/>
<path d="M718.888,319.24c-0.113-0.125-0.175-0.275-0.175-0.462c0-0.2,0.05-0.35,0.175-0.462c0.112-0.112,0.262-0.162,0.474-0.162
	c0.213,0,0.35,0.05,0.475,0.162c0.112,0.112,0.162,0.262,0.162,0.462s-0.05,0.35-0.162,0.475c-0.125,0.112-0.262,0.175-0.475,0.175
	C719.163,319.427,719.012,319.365,718.888,319.24"/>
<path d="M156.969,23.686c-0.325-5.273-2.849-10.945,1.262-14.219c4.098-3.261,5.51,0.85,5.635,4.223
	c0.125,3.336-1.862,31.124-2.961,42.832c-0.3,3.186-2.499,2.799-2.836,0.275C157.743,54.299,157.306,28.947,156.969,23.686"/>
<path d="M187.071,23.686c0.162-4.973-2.349-10.67,1.249-14.219c3.723-3.686,6.297,0.912,5.648,4.223
	c-0.75,3.723-2.037,31.212-2.961,42.832c-0.25,3.186-2.799,2.611-3.148,0.1C187.533,54.124,186.883,28.96,187.071,23.686"/>
<path d="M441.76,23.686c-0.337-5.273-2.861-10.945,1.249-14.219c4.098-3.261,5.523,0.85,5.648,4.223
	c0.125,3.336-1.862,31.124-2.961,42.832c-0.3,3.186-2.499,2.799-2.836,0.275C442.535,54.299,442.097,28.947,441.76,23.686"/>
<path d="M471.849,23.686c0.175-4.973-2.349-10.67,1.262-14.219c3.723-3.686,6.297,0.912,5.648,4.223
	c-0.75,3.723-2.037,31.212-2.974,42.832c-0.237,3.186-2.799,2.611-3.136,0.1C472.324,54.124,471.674,28.96,471.849,23.686"/>
</svg>
