<?xml version="1.0" encoding="utf-8"?>
<!-- Generator: Adobe Illustrator 27.0.1, SVG Export Plug-In . SVG Version: 6.00 Build 0)  -->
<svg version="1.1" id="레이어_1" xmlns="http://www.w3.org/2000/svg" xmlns:xlink="http://www.w3.org/1999/xlink" x="0px"
	 y="0px" viewBox="0 0 720 839.565" enable-background="new 0 0 720 839.565" xml:space="preserve">
<g>
	<path opacity="0.8" fill-rule="evenodd" clip-rule="evenodd" fill="#F19EC2" enable-background="new    " d="M365.153,830.958
		c-0.403-3.981-1.329-7.892-2.755-11.631c-1.562-3.39-2.593-7-3.057-10.703c-0.051-1.254,0.887-2.33,2.136-2.45
		c4.903,0,13.777,16.522,22.341,16.522c5.118,0.116,9.361-3.938,9.477-9.056c0.001-0.042,0.002-0.084,0.002-0.126
		c0-14.378-28.144-8.865-28.144-15.603c0-6.731,28.144-1.224,28.144-15.604c-0.051-5.117-4.241-9.224-9.358-9.173
		c-0.04,0-0.081,0.001-0.121,0.002c-8.564,0-17.438,16.517-22.341,16.517c-1.248-0.117-2.187-1.19-2.136-2.443
		c0.464-3.706,1.495-7.319,3.057-10.711c1.427-3.736,2.353-7.643,2.755-11.622c0.444-4.274-2.66-8.099-6.935-8.544
		c-0.441-0.046-0.886-0.054-1.328-0.024c-4.445-0.44-8.405,2.807-8.845,7.252c-0.043,0.437-0.051,0.877-0.023,1.315
		c0.371,4.016,1.403,7.943,3.057,11.622c1.346,3.447,2.271,7.043,2.755,10.711c0.049,1.255-0.894,2.329-2.145,2.443
		c-4.892,0-13.765-16.517-22.332-16.517c-5.119-0.118-9.364,3.935-9.482,9.054c-0.001,0.039-0.002,0.078-0.002,0.117
		c0,14.38,28.149,8.873,28.149,15.604c0,6.738-28.149,1.226-28.149,15.603c0.049,5.121,4.241,9.233,9.362,9.184
		c0.041,0,0.081-0.001,0.122-0.002c8.568,0,17.44-16.522,22.332-16.522c1.252,0.117,2.194,1.193,2.145,2.45
		c-0.484,3.666-1.409,7.259-2.755,10.703c-1.653,3.682-2.686,7.612-3.057,11.631c-0.287,4.457,3.094,8.303,7.552,8.59
		c0.439,0.028,0.879,0.021,1.316-0.023c4.287,0.289,7.998-2.952,8.287-7.239C365.207,831.843,365.198,831.399,365.153,830.958z"/>
	<g>
		<path fill="#955E4B" d="M323.733,622.132h-14.929v-1.998c0.954,0.041,1.908-0.08,2.82-0.359c0.55-0.162,1.004-0.553,1.247-1.074
			c0.223-0.655,0.322-1.346,0.292-2.037v-18.488c0.1-0.967-0.184-1.934-0.792-2.693c-1.064-0.663-2.325-0.939-3.569-0.782v-1.998
			h14.929v1.998c-0.955-0.043-1.91,0.083-2.821,0.371c-0.548,0.167-1,0.557-1.247,1.074c-0.225,0.652-0.324,1.34-0.294,2.029v18.49
			c-0.026,0.67,0.07,1.338,0.282,1.974c0.232,0.519,0.667,0.919,1.204,1.105c0.926,0.308,1.902,0.44,2.876,0.391L323.733,622.132z"
			/>
		<path fill="#955E4B" d="M344.256,616.968c0.028,1.164-0.37,2.298-1.119,3.19c-0.82,0.932-1.878,1.625-3.06,2.006
			c-1.444,0.479-2.959,0.71-4.48,0.684c-1.158-0.001-2.313-0.113-3.449-0.336c-1.056-0.19-2.08-0.53-3.04-1.011l-0.845,1.216h-1.693
			l-0.217-5.641h1.824c0.417,1.093,1.188,2.013,2.191,2.615c1.506,0.866,3.234,1.27,4.968,1.161c0.595-0.003,1.19-0.042,1.78-0.118
			c0.652-0.085,1.277-0.31,1.834-0.66c0.581-0.352,0.919-0.996,0.878-1.674c0.023-0.615-0.335-1.18-0.9-1.421
			c-1.091-0.457-2.221-0.816-3.375-1.074c-1.996-0.505-3.63-0.986-4.904-1.441c-1.206-0.415-2.309-1.086-3.233-1.966
			c-0.888-0.863-1.369-2.061-1.325-3.298c-0.016-1.682,0.887-3.238,2.355-4.059c1.874-1.076,4.016-1.595,6.174-1.496
			c1.284-0.034,2.567,0.097,3.818,0.391c0.826,0.214,1.632,0.496,2.41,0.845l0.523-1.106h1.734v5.034h-1.779
			c-0.19-0.639-0.568-1.206-1.086-1.626c-0.656-0.54-1.423-0.93-2.246-1.141c-1.057-0.284-2.149-0.42-3.243-0.402
			c-1.018,0.001-2.033,0.111-3.028,0.328c-1.005,0.217-1.507,0.73-1.508,1.54c-0.01,0.302,0.095,0.597,0.294,0.825
			c0.287,0.275,0.632,0.482,1.009,0.608c0.825,0.293,1.665,0.539,2.517,0.738c1.2,0.304,1.917,0.485,2.148,0.541
			c2.025,0.464,3.978,1.202,5.805,2.191C343.552,613.372,344.432,615.14,344.256,616.968z"/>
		<path fill="#955E4B" d="M372.618,618.267c-0.589,1.391-1.532,2.604-2.735,3.518c-1.085,0.72-2.365,1.091-3.668,1.062
			c-1.342,0.109-2.68-0.26-3.776-1.042c-0.743-0.59-1.27-1.411-1.496-2.333c-0.198-0.952-0.292-1.922-0.282-2.894v-10.221h-3.275
			v-1.999c1.239,0.03,2.466-0.238,3.58-0.782c0.969-0.481,1.795-1.206,2.397-2.104c0.576-0.854,0.958-1.824,1.119-2.842h1.779v5.728
			h6.141v1.997h-6.141v10.351c-0.035,0.914,0.048,1.828,0.249,2.72c0.145,0.544,0.667,0.9,1.226,0.837
			c0.668,0.013,1.303-0.289,1.716-0.813c0.504-0.629,0.941-1.309,1.302-2.029L372.618,618.267z"/>
		<path fill="#955E4B" d="M398.846,622.132h-11.153v-1.998c0.729,0.078,1.461-0.112,2.061-0.533
			c0.399-0.414,0.604-0.978,0.563-1.551v-7.288c0.005-0.654-0.042-1.308-0.142-1.954c-0.098-0.585-0.357-1.13-0.748-1.575
			c-0.485-0.502-1.17-0.76-1.866-0.703c-0.726,0.01-1.438,0.2-2.072,0.553c-0.658,0.328-1.216,0.825-1.617,1.441
			c-0.375,0.587-0.637,1.239-0.772,1.923c-0.116,0.735-0.17,1.478-0.161,2.222v3.735c-0.016,0.743,0.023,1.486,0.119,2.223
			c0.064,0.445,0.307,0.844,0.673,1.105c0.557,0.315,1.196,0.455,1.834,0.402v1.998h-11.37v-1.998
			c0.726,0.038,1.452-0.065,2.138-0.304c0.408-0.15,0.721-0.484,0.845-0.9c0.132-0.645,0.187-1.304,0.164-1.962V598.76
			c0.088-0.765-0.098-1.537-0.523-2.179c-0.783-0.487-1.71-0.691-2.625-0.576v-1.954l8.745-1.863v14.647
			c0.8-0.852,1.692-1.613,2.659-2.27c1.159-0.675,2.49-0.994,3.829-0.92c0.763,0,1.523,0.109,2.256,0.322
			c0.724,0.205,1.41,0.527,2.029,0.956c0.549,0.362,1,0.854,1.313,1.433c0.644,1.275,0.951,2.694,0.89,4.122v6.49
			c-0.075,0.858,0.086,1.721,0.466,2.494c0.312,0.446,1.133,0.67,2.464,0.671L398.846,622.132z"/>
		<path fill="#955E4B" d="M418.496,612.582h-13.344c0.014,0.276,0.053,0.86,0.118,1.757c0.074,0.944,0.279,1.872,0.608,2.76
			c0.344,0.944,0.954,1.769,1.757,2.373c0.978,0.69,2.159,1.03,3.354,0.965c0.952-0.037,1.891-0.234,2.777-0.584
			c1.151-0.444,2.136-1.233,2.821-2.258l1.692,1.149c-1.75,2.761-4.876,4.337-8.137,4.103c-1.544,0.02-3.081-0.222-4.545-0.714
			c-1.282-0.429-2.466-1.108-3.484-1.998c-0.94-0.835-1.688-1.864-2.191-3.017c-0.51-1.177-0.769-2.448-0.76-3.731
			c-0.012-1.705,0.427-3.383,1.271-4.864c0.858-1.5,2.116-2.732,3.634-3.557c1.656-0.901,3.518-1.357,5.402-1.323
			c1.762-0.057,3.504,0.386,5.024,1.279c1.31,0.79,2.361,1.943,3.028,3.32C418.171,609.597,418.504,611.081,418.496,612.582z
			 M413.115,610.589c0-3.3-1.302-4.951-3.906-4.951c-1.134-0.059-2.222,0.456-2.896,1.37c-0.72,1.056-1.109,2.302-1.119,3.58
			L413.115,610.589z"/>
		<path fill="#955E4B" d="M331.927,656.388c0.042,1.819-0.456,3.609-1.433,5.144c-0.952,1.458-2.294,2.619-3.873,3.352
			c-1.673,0.784-3.502,1.18-5.35,1.16c-1.78,0.008-3.542-0.354-5.176-1.062c-1.603-0.691-2.984-1.809-3.993-3.233
			c-1.069-1.563-1.613-3.425-1.551-5.318c-0.17-2.766,1.031-5.439,3.211-7.15c2.201-1.646,4.891-2.505,7.639-2.44
			c1.975-0.053,3.93,0.396,5.685,1.303c1.515,0.792,2.769,2.003,3.612,3.49C331.513,653.086,331.937,654.724,331.927,656.388z
			 M325.934,656.258c0.108-1.902-0.226-3.803-0.975-5.555c-0.785-1.318-2.274-2.05-3.798-1.867c-2.08-0.227-3.958,1.256-4.22,3.332
			c-0.299,1.453-0.434,2.935-0.402,4.418c-0.067,1.842,0.236,3.678,0.89,5.401c0.718,1.45,2.282,2.279,3.885,2.061
			c1.119,0.077,2.217-0.338,3.004-1.137c0.704-0.794,1.164-1.774,1.325-2.823c0.207-1.266,0.305-2.547,0.294-3.83H325.934z"/>
		<path fill="#955E4B" d="M352.677,650.269c0.039,0.742-0.242,1.465-0.772,1.986c-0.483,0.473-1.134,0.734-1.81,0.726
			c-0.879-0.027-1.69-0.481-2.172-1.216c-0.215-0.281-0.454-0.541-0.717-0.778c-0.229-0.175-0.514-0.261-0.801-0.241
			c-1.169,0.025-2.208,0.748-2.637,1.836c-0.617,1.174-0.941,2.48-0.943,3.806v3.778c-0.075,0.858,0.086,1.721,0.466,2.494
			c0.312,0.446,1.133,0.67,2.463,0.671h1.151v1.998h-13.475v-1.998h1.129c1.214,0,1.959-0.232,2.234-0.695
			c0.336-0.778,0.477-1.626,0.413-2.471v-6.336c0.042-0.707-0.058-1.416-0.294-2.084c-0.203-0.426-0.591-0.735-1.052-0.837
			c-0.799-0.164-1.615-0.233-2.43-0.206v-1.997l8.462-1.864c0.331,1.549,0.535,3.123,0.608,4.706
			c0.407-0.858,0.945-1.648,1.595-2.341c0.635-0.692,1.383-1.271,2.212-1.714c0.769-0.422,1.63-0.646,2.507-0.652
			c1.036-0.055,2.051,0.304,2.821,0.999C352.313,648.464,352.692,649.348,352.677,650.269z"/>
		<path fill="#955E4B" d="M378.001,665.07c-2.821,0.101-5.63,0.427-8.399,0.975c-0.258-0.732-0.39-1.502-0.391-2.278
			c-1.696,1.462-3.858,2.27-6.097,2.278c-1.673,0.009-3.315-0.449-4.742-1.323c-1.451-0.882-2.648-2.127-3.472-3.612
			c-0.859-1.519-1.304-3.237-1.291-4.982c0.003-1.13,0.193-2.252,0.563-3.32c0.386-1.115,0.988-2.144,1.77-3.028
			c0.823-0.93,1.842-1.667,2.985-2.156c1.283-0.54,2.665-0.807,4.057-0.782c0.971-0.021,1.938,0.118,2.864,0.411
			c0.681,0.217,1.325,0.535,1.911,0.944c0.515,0.388,1,0.812,1.453,1.271v-7.12c0.035-0.703-0.046-1.407-0.239-2.084
			c-0.142-0.405-0.482-0.708-0.9-0.802c-0.711-0.145-1.434-0.218-2.16-0.217v-1.998l8.899-1.863v24.303
			c-0.024,0.725,0.023,1.451,0.14,2.168c0.096,0.409,0.395,0.741,0.792,0.88c0.73,0.23,1.492,0.343,2.258,0.336L378.001,665.07z
			 M369.211,660.967v-8.788c-0.634-0.763-1.363-1.441-2.17-2.017c-0.874-0.619-1.924-0.939-2.994-0.912
			c-0.708-0.001-1.4,0.202-1.996,0.584c-0.607,0.378-1.12,0.89-1.498,1.496c-0.76,1.572-1.089,3.317-0.956,5.057
			c-0.134,1.906,0.342,3.806,1.358,5.425c0.749,1.134,2.015,1.818,3.374,1.824c0.951,0.005,1.887-0.241,2.712-0.714
			C367.895,662.431,368.635,661.765,369.211,660.967L369.211,660.967z"/>
		<path fill="#955E4B" d="M398.589,655.78h-13.344c0.014,0.277,0.053,0.861,0.119,1.757c0.074,0.944,0.279,1.872,0.608,2.76
			c0.344,0.944,0.954,1.769,1.757,2.373c0.978,0.69,2.159,1.03,3.353,0.965c0.952-0.037,1.891-0.234,2.777-0.584
			c1.151-0.444,2.136-1.233,2.821-2.258l1.692,1.149c-1.75,2.761-4.876,4.337-8.137,4.103c-1.544,0.02-3.081-0.222-4.545-0.714
			c-1.282-0.429-2.466-1.108-3.484-1.998c-0.94-0.835-1.688-1.864-2.191-3.017c-0.51-1.177-0.769-2.448-0.76-3.731
			c-0.012-1.705,0.427-3.383,1.271-4.864c0.858-1.5,2.116-2.732,3.634-3.557c1.656-0.901,3.518-1.356,5.403-1.323
			c1.762-0.057,3.504,0.386,5.023,1.279c1.31,0.79,2.361,1.943,3.028,3.32C398.263,652.795,398.596,654.279,398.589,655.78z
			 M393.208,653.786c0-3.3-1.302-4.951-3.906-4.951c-1.134-0.059-2.222,0.456-2.896,1.37c-0.72,1.056-1.11,2.302-1.119,3.58
			L393.208,653.786z"/>
		<path fill="#955E4B" d="M420.17,650.269c0.039,0.742-0.242,1.465-0.772,1.986c-0.483,0.473-1.134,0.734-1.81,0.726
			c-0.879-0.027-1.69-0.481-2.172-1.216c-0.215-0.281-0.454-0.541-0.717-0.778c-0.229-0.175-0.514-0.261-0.801-0.241
			c-1.169,0.025-2.208,0.748-2.637,1.836c-0.617,1.174-0.941,2.48-0.943,3.806v3.778c-0.075,0.858,0.086,1.721,0.466,2.494
			c0.312,0.446,1.133,0.67,2.463,0.671h1.151v1.998h-13.475v-1.998h1.129c1.214,0,1.959-0.232,2.234-0.695
			c0.336-0.778,0.477-1.626,0.413-2.471v-6.336c0.042-0.707-0.058-1.416-0.294-2.084c-0.203-0.426-0.591-0.735-1.052-0.837
			c-0.799-0.164-1.615-0.233-2.43-0.206v-1.997l8.462-1.864c0.331,1.549,0.535,3.123,0.608,4.706
			c0.407-0.858,0.945-1.648,1.595-2.341c0.635-0.692,1.383-1.271,2.212-1.714c0.769-0.422,1.63-0.646,2.507-0.652
			c1.036-0.055,2.051,0.304,2.821,0.999C419.806,648.464,420.185,649.348,420.17,650.269z"/>
		<path fill="#955E4B" d="M270.695,703.945c0.03,0.98-0.202,1.951-0.673,2.811c-0.415,0.743-1.047,1.341-1.81,1.717
			c-0.804,0.378-1.684,0.567-2.572,0.553c-1.077,0.039-2.14-0.261-3.038-0.856c-0.736-0.465-1.259-1.203-1.454-2.051
			c-2.02,1.785-4.596,2.813-7.29,2.909c-1.372,0.057-2.723-0.344-3.841-1.141c-0.965-0.692-1.526-1.817-1.498-3.004
			c-0.011-0.988,0.269-1.957,0.804-2.787c0.612-0.906,1.416-1.667,2.355-2.226c1.165-0.712,2.406-1.29,3.701-1.725
			c1.433-0.497,3.219-1.021,5.359-1.572v-1.24c0.051-0.866-0.206-1.722-0.726-2.416c-0.719-0.675-1.699-0.998-2.678-0.88
			c-0.862-0.079-1.722,0.169-2.41,0.695c-0.547,0.576-0.889,1.315-0.975,2.104c-0.085,0.588-0.306,1.149-0.644,1.638
			c-0.512,0.504-1.231,0.741-1.942,0.64c-0.578,0.009-1.143-0.175-1.605-0.523c-0.473-0.366-0.733-0.943-0.695-1.539
			c0.073-1.473,0.902-2.804,2.193-3.518c2.049-1.14,4.386-1.66,6.725-1.496c2.308-0.241,4.629,0.327,6.565,1.607
			c1.204,1.096,1.86,2.669,1.79,4.295v6.857c0,0.869,0.022,1.504,0.065,1.911c0.016,0.337,0.142,0.66,0.358,0.92
			c0.524,0.464,1.324,0.415,1.788-0.109c0.044-0.05,0.085-0.104,0.121-0.16c0.29-0.413,0.439-0.909,0.424-1.413L270.695,703.945z
			 M260.734,704.118v-5.381c-1.919,0.437-3.711,1.31-5.239,2.55c-0.664,0.647-1.063,1.519-1.117,2.444
			c-0.027,0.595,0.192,1.174,0.606,1.603c0.465,0.429,1.085,0.648,1.716,0.608c0.732,0.015,1.456-0.156,2.104-0.498
			C259.485,705.061,260.131,704.617,260.734,704.118z"/>
		<path fill="#955E4B" d="M301.402,693.467c0.038,0.742-0.243,1.465-0.772,1.986c-0.484,0.471-1.135,0.732-1.81,0.726
			c-0.879-0.028-1.689-0.482-2.172-1.216c-0.213-0.283-0.453-0.545-0.716-0.782c-0.23-0.172-0.515-0.255-0.801-0.237
			c-1.168,0.023-2.208,0.745-2.637,1.832c-0.618,1.175-0.941,2.482-0.944,3.81v3.774c-0.076,0.858,0.085,1.721,0.466,2.494
			c0.312,0.45,1.133,0.675,2.463,0.675h1.151v1.994h-13.475v-1.994h1.129c1.214,0,1.959-0.232,2.234-0.695
			c0.335-0.78,0.477-1.629,0.413-2.475v-6.336c0.041-0.707-0.059-1.416-0.294-2.084c-0.204-0.425-0.592-0.732-1.052-0.833
			c-0.799-0.166-1.615-0.235-2.43-0.206v-1.997l8.462-1.867c0.331,1.551,0.534,3.126,0.608,4.71c0.408-0.859,0.946-1.65,1.595-2.345
			c0.636-0.691,1.384-1.27,2.212-1.714c0.769-0.422,1.63-0.646,2.507-0.651c1.035-0.054,2.05,0.306,2.82,0.999
			C301.037,691.66,301.416,692.545,301.402,693.467z"/>
		<path fill="#955E4B" d="M325.358,703.945c0.03,0.98-0.202,1.951-0.673,2.811c-0.415,0.743-1.047,1.341-1.81,1.717
			c-0.804,0.378-1.684,0.567-2.572,0.553c-1.077,0.039-2.14-0.261-3.038-0.856c-0.736-0.465-1.259-1.203-1.455-2.051
			c-2.02,1.785-4.596,2.813-7.29,2.909c-1.372,0.057-2.723-0.344-3.841-1.141c-0.966-0.692-1.526-1.817-1.498-3.004
			c-0.011-0.988,0.269-1.957,0.804-2.787c0.612-0.906,1.416-1.666,2.355-2.226c1.165-0.711,2.406-1.29,3.701-1.725
			c1.433-0.497,3.22-1.021,5.359-1.572v-1.24c0.051-0.866-0.206-1.722-0.726-2.416c-0.719-0.675-1.7-0.998-2.679-0.88
			c-0.862-0.079-1.722,0.169-2.41,0.695c-0.547,0.576-0.889,1.315-0.975,2.104c-0.085,0.588-0.305,1.149-0.642,1.638
			c-0.513,0.504-1.231,0.741-1.942,0.64c-0.578,0.009-1.143-0.175-1.605-0.523c-0.473-0.366-0.733-0.943-0.695-1.539
			c0.073-1.473,0.902-2.804,2.193-3.518c2.049-1.141,4.386-1.66,6.725-1.496c2.308-0.241,4.629,0.327,6.565,1.607
			c1.204,1.096,1.86,2.669,1.79,4.295v6.857c0,0.869,0.022,1.504,0.065,1.911c0.016,0.337,0.142,0.66,0.357,0.92
			c0.524,0.464,1.325,0.415,1.789-0.109c0.044-0.05,0.085-0.104,0.12-0.16c0.29-0.413,0.438-0.909,0.424-1.413L325.358,703.945z
			 M315.397,704.118v-5.381c-1.919,0.437-3.711,1.31-5.239,2.55c-0.664,0.647-1.063,1.519-1.117,2.444
			c-0.027,0.595,0.192,1.175,0.606,1.603c0.465,0.429,1.085,0.648,1.716,0.608c0.732,0.015,1.456-0.156,2.104-0.498
			C314.148,705.061,314.794,704.617,315.397,704.118z"/>
		<path fill="#955E4B" d="M348.786,699.499c0.01,1.335-0.248,2.659-0.76,3.893c-0.488,1.182-1.215,2.25-2.136,3.137
			c-0.906,0.873-1.975,1.559-3.147,2.018c-1.193,0.465-2.464,0.701-3.744,0.695c-1.385,0.038-2.757-0.272-3.991-0.9
			c-1.073-0.566-2.013-1.355-2.758-2.313c-1.038,1.001-2.002,2.075-2.886,3.214h-1.692v-24.046c0.037-0.618-0.063-1.236-0.294-1.81
			c-0.192-0.385-0.553-0.658-0.975-0.738c-0.697-0.135-1.406-0.205-2.116-0.209v-1.95l8.983-1.911v14.038
			c0.771-0.718,1.636-1.328,2.572-1.812c1.196-0.56,2.51-0.825,3.829-0.77c1.356-0.025,2.701,0.249,3.938,0.805
			c1.107,0.5,2.09,1.241,2.876,2.167c0.758,0.898,1.343,1.929,1.725,3.04C348.595,697.156,348.789,698.324,348.786,699.499z
			 M342.775,699.326c0.032-1.644-0.275-3.276-0.9-4.797c-0.603-1.394-2.038-2.237-3.549-2.084c-0.645,0.001-1.282,0.131-1.876,0.383
			c-0.62,0.256-1.198,0.603-1.715,1.03c-0.543,0.449-1.034,0.958-1.465,1.516v8.831c0.644,0.95,1.543,1.698,2.594,2.16
			c0.73,0.287,1.504,0.446,2.288,0.47c1.089,0.055,2.144-0.39,2.866-1.207c0.704-0.823,1.186-1.812,1.4-2.874
			C342.658,701.627,342.778,700.477,342.775,699.326L342.775,699.326z"/>
		<path fill="#955E4B" d="M373.283,699.499c0.01,1.336-0.248,2.659-0.76,3.893c-0.488,1.182-1.215,2.25-2.135,3.137
			c-0.906,0.873-1.975,1.559-3.147,2.018c-1.193,0.465-2.464,0.701-3.744,0.695c-1.385,0.038-2.757-0.272-3.991-0.9
			c-1.073-0.566-2.013-1.355-2.758-2.313c-1.038,1.001-2.002,2.075-2.886,3.214h-1.691v-24.046c0.037-0.618-0.064-1.236-0.294-1.81
			c-0.192-0.385-0.553-0.658-0.975-0.738c-0.697-0.135-1.406-0.205-2.116-0.209v-1.95l8.984-1.911v14.038
			c0.771-0.719,1.638-1.328,2.574-1.812c1.196-0.56,2.51-0.825,3.829-0.77c1.356-0.025,2.701,0.249,3.938,0.805
			c1.107,0.5,2.09,1.241,2.876,2.167c0.758,0.898,1.343,1.929,1.725,3.04C373.093,697.156,373.286,698.324,373.283,699.499z
			 M367.272,699.325c0.032-1.644-0.275-3.276-0.9-4.797c-0.603-1.394-2.039-2.237-3.549-2.084c-0.644,0.001-1.282,0.131-1.875,0.383
			c-0.62,0.256-1.198,0.603-1.715,1.03c-0.543,0.449-1.035,0.958-1.465,1.516v8.831c0.644,0.95,1.543,1.698,2.594,2.16
			c0.73,0.287,1.504,0.446,2.288,0.47c1.089,0.055,2.144-0.39,2.866-1.207c0.704-0.823,1.186-1.812,1.399-2.874
			C367.155,701.627,367.275,700.477,367.272,699.325z"/>
		<path fill="#955E4B" d="M387.199,708.524h-11.782v-1.994h0.627c0.631,0.042,1.262-0.077,1.834-0.347
			c0.367-0.208,0.625-0.565,0.707-0.979c0.102-0.609,0.145-1.226,0.13-1.844v-6.443c0.025-0.641-0.03-1.283-0.164-1.911
			c-0.129-0.397-0.445-0.705-0.845-0.825c-0.743-0.215-1.515-0.31-2.288-0.282v-1.997l8.897-1.867v13.324
			c-0.075,0.857,0.082,1.719,0.456,2.494c0.304,0.45,1.114,0.675,2.43,0.675L387.199,708.524z M384.747,681.552
			c-0.001,1.744-1.416,3.157-3.16,3.155c-1.742-0.001-3.154-1.413-3.155-3.155c-0.001-1.744,1.411-3.159,3.155-3.16
			s3.159,1.411,3.16,3.155C384.747,681.549,384.747,681.551,384.747,681.552z"/>
		<path fill="#955E4B" d="M403.192,704.663c-0.588,1.391-1.531,2.603-2.735,3.514c-1.084,0.723-2.365,1.095-3.668,1.066
			c-1.342,0.109-2.68-0.26-3.776-1.042c-0.744-0.59-1.27-1.411-1.496-2.333c-0.198-0.952-0.292-1.923-0.282-2.896V692.75h-3.276
			v-1.994c1.239,0.03,2.466-0.238,3.58-0.782c0.968-0.482,1.794-1.207,2.397-2.104c0.575-0.855,0.957-1.825,1.119-2.843h1.779v5.729
			h6.141v1.994h-6.14v10.352c-0.036,0.915,0.048,1.831,0.249,2.724c0.146,0.543,0.667,0.898,1.226,0.837
			c0.668,0.013,1.304-0.29,1.715-0.817c0.504-0.627,0.941-1.306,1.303-2.025L403.192,704.663z"/>
		<path fill="#955E4B" d="M407.367,679.926c1.387-1.42,3.333-2.152,5.312-1.998c2.059-0.12,4.075,0.623,5.562,2.051
			c1.348,1.404,2.07,3.294,2,5.239c0.068,2.538-1.127,4.944-3.19,6.423c-0.541,0.407-0.91,0.684-1.107,0.837
			s-0.592,0.442-1.19,0.876c-0.544,0.374-0.983,0.883-1.271,1.477c-0.343,1.103-0.508,2.253-0.49,3.407h-1.126l-0.037-1.887
			c0.117-1.708,0.592-3.371,1.393-4.884c0.925-1.968,1.401-4.118,1.392-6.293c0.074-1.432-0.198-2.86-0.792-4.165
			c-0.479-0.955-1.479-1.535-2.546-1.477c-0.603-0.06-1.201,0.151-1.633,0.576c-0.307,0.335-0.48,0.77-0.487,1.224
			c-0.006,0.156,0.019,0.311,0.073,0.458c0.076,0.161,0.169,0.313,0.276,0.454l0.259,0.367c0.248,0.342,0.45,0.715,0.6,1.109
			c0.127,0.407,0.186,0.833,0.174,1.259c0.036,0.725-0.216,1.434-0.701,1.974c-0.429,0.474-1.039,0.742-1.678,0.738
			c-0.699-0.006-1.357-0.33-1.788-0.88c-0.551-0.731-0.82-1.637-0.756-2.551C405.635,682.648,406.26,681.101,407.367,679.926z
			 M410.217,702.74c0.981-1.245,2.786-1.459,4.031-0.478c0.177,0.14,0.338,0.3,0.478,0.478c1.256,1.55,1.256,3.768,0,5.318
			c-0.976,1.245-2.776,1.463-4.021,0.487c-0.181-0.142-0.345-0.306-0.487-0.487C408.975,706.503,408.975,704.296,410.217,702.74z"/>
	</g>
	<path fill="#955E4B" d="M114.231,791.143c0-3.506-0.195-15.389-0.292-17.045c-0.292-5.649-1.85-5.845-5.551-5.845h-3.119
		c-0.584,0-0.78-0.193-0.78-0.778v-2.24c0-0.584,0.195-0.876,0.78-0.876c1.364,0,6.038,0.389,14.221,0.292
		c3.117,0,8.962-0.292,14.22-0.292c5.839-0.408,11.696,0.49,17.144,2.629c4.937,2.494,7.865,7.736,7.401,13.247
		c0,7.791-4.09,12.469-13.247,15.876v0.486c11.102,2.923,17.533,8.766,17.533,19.092c0.022,5.876-2.811,11.397-7.598,14.805
		c-4.09,2.337-10.324,3.409-21.234,3.409c-3.894,0-10.324-0.292-14.22-0.292c-7.598,0-11.688,0.292-13.733,0.292
		c-0.384-0.003-0.692-0.317-0.689-0.701c0-0.026,0.002-0.053,0.005-0.079v-2.434c-0.04-0.338,0.202-0.644,0.54-0.684
		c0.048-0.006,0.096-0.006,0.144,0h4.188c2.921,0,3.602-1.168,3.895-4.188c0.195-2.337,0.391-15.194,0.391-23.18L114.231,791.143z
		 M126.114,795.235c1.557,0.097,2.921,0.097,4.479,0.097c3.655,0.184,7.273-0.805,10.326-2.825
		c3.397-2.825,5.272-7.081,5.065-11.494c0.213-3.801-1.375-7.481-4.285-9.935c-3.29-2.195-7.151-3.38-11.106-3.409
		c-0.978-0.039-1.957,0.027-2.921,0.195c-0.679,0.243-1.167,0.843-1.265,1.557c-0.099,1.85-0.292,10.229-0.292,18.409V795.235z
		 M134.49,830.786c7.597,0,14.611-3.604,14.611-15.486c0.521-6.56-3.26-12.703-9.351-15.194c-3.549-1.31-7.322-1.906-11.102-1.753
		h-2.534v19.479C126.114,826.988,128.256,830.786,134.49,830.786z"/>
	<path fill="#955E4B" d="M276.64,813.545c0.193,0.195,0.193,0.391,0.193,0.975c-0.389,0.584-4.285,16.753-4.87,19.383
		c-2.534-0.097-30.584-0.292-40.519-0.292c-8.769,0-12.272,0.292-13.441,0.292c-0.78,0-0.78-0.195-0.78-0.876v-2.24
		c0-0.584,0-0.78,0.584-0.78h3.896c3.506,0,4.09-1.364,4.09-2.629c0-1.753,0.391-26.105,0.391-31.949v-5.454
		c0-6.235-0.195-16.558-0.391-18.214c-0.193-2.534-0.584-3.508-3.117-3.508h-4.09c-0.455-0.032-0.801-0.421-0.78-0.876v-2.24
		c0-0.584,0.195-0.777,0.78-0.777c0.973,0,4.481,0.292,13.441,0.292c10.519,0,14.611-0.292,15.391-0.292s0.973,0.389,0.973,0.876
		v2.24c0,0.389-0.195,0.778-0.973,0.778h-5.261c-2.921,0-3.312,0.975-3.312,3.604c0,1.364-0.389,15.974-0.389,22.791v8.377
		c0,1.753,0,22.791,0.389,26.98h5.456c5.454,0,12.467,0,16.362-0.485c5.456-0.78,11.69-12.469,13.052-16.17
		c0.391-0.389,0.586-0.584,1.171-0.389L276.64,813.545z"/>
	<path fill="#955E4B" d="M485.77,769.99c7.616,8.028,11.675,18.788,11.258,29.846c0.156,7.832-1.972,15.54-6.125,22.182
		c-5.003,8.989-14.549,14.493-24.834,14.32c-6.77-0.252-13.301-2.575-18.709-6.656c-5.879-4.334-12.087-15.325-12.087-29.846
		c0.059-8.898,2.705-17.587,7.616-25.008c4.871-8.211,13.8-13.147,23.344-12.906C473.592,761.73,480.689,764.661,485.77,769.99z
		 M453.981,772.007c-5.027,7.129-7.638,15.68-7.451,24.401c0,26.216,13.245,35.493,20.199,35.493
		c16.721,0,19.37-22.586,19.37-31.056c0-21.981-12.25-34.484-20.197-34.484C461.19,765.889,456.602,768.062,453.981,772.007z"/>
	<path opacity="0.5" fill-rule="evenodd" clip-rule="evenodd" fill="#F19EC2" enable-background="new    " d="M376.204,769.99
		c7.616,8.028,11.675,18.788,11.258,29.846c0.156,7.832-1.972,15.54-6.125,22.182c-5.003,8.989-14.549,14.493-24.834,14.32
		c-6.77-0.252-13.301-2.575-18.709-6.656c-5.879-4.334-12.087-15.325-12.087-29.846c0.059-8.898,2.705-17.587,7.616-25.008
		c4.871-8.211,13.8-13.147,23.344-12.906C364.026,761.73,371.124,764.661,376.204,769.99z M344.416,772.007
		c-5.027,7.129-7.638,15.68-7.451,24.401c0,26.216,13.245,35.493,20.199,35.493c16.721,0,19.37-22.586,19.37-31.056
		c0-21.981-12.25-34.484-20.197-34.484C351.624,765.889,347.037,768.062,344.416,772.007z"/>
	<path fill="#955E4B" d="M593.251,798.529c0-2.923,0-27.079-0.141-27.467h-0.282c-0.561,1.362-9.397,29.806-10.238,32.337
		c-1.052,3.117-8.206,26.105-8.556,27.076c-0.282,0.78-0.841,2.144-1.543,2.144c-0.421,0-0.841-0.584-1.121-1.753
		c-0.282-0.584-9.397-30.975-9.817-32.533c-1.262-4.481-7.714-26.299-8.555-27.467c-0.282,1.364-0.351,25.908-0.351,27.078
		c0,1.17-0.07,17.726,0.351,24.057c0.282,4.481,1.121,8.182,3.365,8.182h3.086c0.422,0,0.561,0.391,0.561,0.684v2.434
		c0,0.391-0.139,0.78-0.701,0.78c-0.702,0-2.664-0.292-7.994-0.292c-6.031,0-8.416,0.292-9.117,0.292
		c-0.563,0-0.563-0.195-0.563-0.876v-2.436c0-0.193,0-0.584,0.421-0.584h1.991c2.385,0,3.155-3.506,3.506-6.915
		c0.631-6.818,1.052-30.78,1.052-32.533v-16.656c0-3.506-0.349-5.649-3.435-5.649h-1.85c-0.421,0-0.56-0.389-0.56-0.681v-2.629
		c-0.006-0.316,0.244-0.577,0.56-0.584c0.702,0,2.526,0.292,9.958,0.292c3.367,0,5.329-0.292,6.171-0.292
		c0.841,0,1.333,0.389,1.684,1.654c2.524,9.157,11.41,38.961,13.513,46.947c0.632-1.753,4.869-15.291,6.693-21.037
		c1.262-4.092,7.573-24.155,7.924-26.105c0.21-0.975,1.051-1.169,2.735-1.169c10.238,0.097,14.295-0.292,15.137-0.292
		c0.282,0,0.421,0.389,0.421,0.876v2.045c0,0.584-0.14,0.973-0.563,0.973H606.2c-1.823,0-1.963,1.755-2.034,3.8
		c-0.07,2.141-0.07,21.622-0.07,24.155v6.818c0,5.845,0.14,20.065,0.14,21.721c0.07,3.701,0.701,5.258,1.963,5.258h1.495
		c0.421,0,0.421,0.391,0.421,0.684v2.24c0,0.584,0,0.973-0.561,0.973c-0.841,0-4.207-0.292-10.378-0.292
		c-6.871,0-9.536,0.292-10.518,0.292c-0.421,0-0.563-0.389-0.563-0.876v-2.24c0-0.584,0.141-0.78,0.563-0.78h4.347
		c1.262,0,1.823-0.584,2.034-3.409c0.07-0.973,0.21-15,0.21-22.791L593.251,798.529z"/>
	<path fill="#955E4B" d="M372.249,366.712c-1.958-2.989-5.004-5.096-8.491-5.873c-2.605-0.21-5.226-0.152-7.819,0.174
		c-5.731-0.028-11.429-0.864-16.926-2.483c-11.991-3.361-28.584-14.023-27.773-28.258c-0.048-0.383-0.095-0.766-0.114-1.137
		c-0.117-0.015-0.208-0.04-0.317-0.053c-2.829,2.439-4.679,5.82-5.208,9.517c-0.958,6.972,0.791,14.046,4.889,19.768
		c7.136,10.545,20.72,17.303,38.617,19.886c8.273,1.207,16.914,1.843,21.711-2.167c2.982-2.175,3.635-6.355,1.46-9.337
		C372.268,366.738,372.259,366.725,372.249,366.712z M410.316,344.071c-2.303,3.166-5.906,5.13-9.815,5.35
		c-7.458,0.183-15.573-8.243-20.769-12.757c-1.247-1.086-3.854-4.446-1.664-6.352c0.132-0.099,0.273-0.184,0.422-0.255
		c1.807,0.933,3.706,1.676,5.666,2.217c3.642,1.088,9.489,1.345,10.948-3.07c1.554-4.691-2.281-11.134-4.309-15.227
		c-2.47-5.045-5.509-9.791-9.058-14.145c-1.482-1.807-14.253-17.229-16.009-16.456c-6.505,3.008-13.243,5.485-20.148,7.406
		c-7.83,2.119-16.065,2.246-23.956,0.371c-6.606-1.686-12.555-5.315-17.078-10.418c-3.94-3.998-5.621-9.701-4.479-15.196
		c0.234-1.22,0.902-2.315,1.88-3.082c1.351,1.233,2.765,2.394,4.238,3.48c10.064,8.338,23.309,11.782,36.161,9.403
		c3.27-0.675,6.458-2.176,9.649-3.161c-2.484-2.554-5.28-4.785-8.323-6.639c-3.107-2.115-6.089-4.41-8.93-6.872
		c-2.642-2.545-4.19-6.018-4.317-9.684c-0.205-2.826,1.038-5.564,3.301-7.27c0.629-0.284,1.342-0.321,1.997-0.105
		c1.278,0.276,4.563,6.364,5.719,7.618c2.133,2.266,4.452,4.349,6.933,6.227c5.256,4.09,10.953,7.589,15.959,11.995
		c1.66-0.822,3.18-1.716,4.709-2.664c5.211-3.256,12.389-13.61,19.344-11.094c2.918,0.652,4.89,3.379,4.595,6.354
		c-0.475,4.303-2.749,8.204-6.258,10.74c-3.048,2.681-6.374,5.027-9.922,6.999c10.992,9.226,20.682,19.901,28.804,31.733
		c4.499,6.728,7.215,14.489,7.894,22.554C413.915,336.323,412.784,340.583,410.316,344.071L410.316,344.071z"/>
	<path fill="#955E4B" d="M353.901,537.733c-2.032-0.427-4.106-0.625-6.182-0.59c-5.171-0.346-10.263-1.45-15.114-3.276
		c-1.499-0.592-2.953-1.291-4.351-2.092c-9.642-3.51-19.106-12.521-19.693-22.295c-0.377-0.106-0.774-0.126-1.16-0.059
		c-4.404,0.909-4.794,8.847-4.103,12.893c2.585,14.32,14.698,23.398,32.238,29.107c6.39,2.442,13.303,3.189,20.068,2.17
		c3.729-0.567,6.434-3.849,6.28-7.618C361.127,541.868,357.979,538.619,353.901,537.733z M402.031,471.263
		c-2.175,3.616-5.499,6.4-9.44,7.907c-3.83,2.098-7.842,3.845-11.987,5.221c2.156,3.98,4.384,7.869,6.875,11.872
		c2.73,3.617,5.083,7.503,7.023,11.597c1.953,4.892,1.622,10.4-0.903,15.023c-1.205,1.912-2.824,3.528-4.738,4.73
		c-8.812,5.526-19.635-5.616-23.978-11.846c0.143-0.765,0.528-1.465,1.099-1.994c3.103,2.501,9.095,4.761,12.127,1.075
		c3.358-4.069,0.102-9.626-1.816-13.468c-0.587-1.175-6.09-13.469-6.393-13.409c-11.915,2.425-25.531,6.45-40.662,4.602
		c-8.87-0.603-16.79-5.769-20.916-13.644c-1.364-2.563-4.7-9.233-1.088-10.962c3.644,3.399,8.076,5.838,12.898,7.097
		c2.809,1.188,5.739,2.065,8.739,2.615c1.125,0.343,2.268,0.626,3.423,0.848c11.836,2.243,22.299-0.796,31.745-3.041
		c-2.09-4.912-4.43-9.713-7.012-14.386c-9.394,2.279-19.273,1.466-28.168-2.319c-5.621-2.209-10.366-6.193-13.515-11.347
		c-1.175-2.155-2.655-6.377,0.103-7.613c1.463,1.16,3.141,2.108,4.05,2.707c9.164,5.498,19.891,7.806,30.506,6.564
		c-0.306,0.038-9.577-13.09-10.771-14.485c-4.416-4.79-8.399-9.962-11.901-15.456c-1.245-1.429-1.096-3.597,0.333-4.843
		c0.054-0.047,0.11-0.093,0.167-0.137c1.404-1.692,3.43-2.748,5.621-2.928c1.795,0.094,3.502,0.81,4.827,2.025
		c3.771,3.695,7.134,7.784,10.032,12.197c2.946,3.586,5.476,7.494,7.542,11.65c1.012,2.085,3.051,8.148,5.916,8.331
		c1.287,0.092,3.817-2.57,4.958-3.2c1.91-1.139,4.027-1.887,6.229-2.203c3.588-0.644,7.019,1.743,7.663,5.332
		c0.243,1.355,0.056,2.753-0.534,3.996c-2.057,4.482-8.487,6.832-12.872,8.788c2.238,4.775,4.69,9.337,7.007,14.023
		c6.609-1.602,11.93-6.725,18.244-8.93c0.528-0.273,1.085-0.484,1.661-0.63C398.358,462.181,404.002,466.313,402.031,471.263z
		 M423.467,432.122c-7.008-0.251-9.661-7.921-14.36-11.69c-1.889-1.479-3.956-2.715-6.154-3.676
		c-0.736-0.334-6.849-2.03-6.906-2.296c-0.053-0.156-0.092-0.316-0.117-0.478c-0.083-3.624,5.897-3.54,9.194-3.701
		c7.506-0.617,15.022,1.076,21.539,4.851c1.646,1.103,3,2.589,3.946,4.33c2.282,4.123,0.789,9.315-3.335,11.597
		c-1.168,0.646-2.472,1.01-3.806,1.061L423.467,432.122z M411.067,444.149c-2,3.895-6.644,5.617-10.699,3.966
		c-4.68-1.987-6.822-7.694-9.935-11.332c-3.69-3.787-8.536-6.239-13.773-6.969c-0.037-0.269-0.039-0.541-0.007-0.81
		c0.402-2.464,4.248-2.629,6.765-2.829c8.237-0.98,16.56,0.911,23.566,5.353c4.129,2.747,5.821,7.977,4.084,12.622L411.067,444.149z
		"/>
	<path fill="#955E4B" d="M539.377,73.238c-5.678,0.329-11.553,0.679-17.351,0.541c-3.887-0.031-7.765-0.37-11.598-1.015
		c-2.029-0.326-4.024-0.841-5.957-1.539c-0.678-0.337-1.333-0.72-1.96-1.145c-0.875-0.621-1.817-1.143-2.808-1.554l-0.455,0.084
		v1.99c0,2.069,7.595,14.61,27.553,16.368c1.403,0.099,2.82,0.152,4.223,0.198c1.266,0.035,2.524,0.086,3.775,0.167l0.705,0.045
		l-0.417,0.569c-1.182,1.626-3.206,4.203-5.42,6.891l-4.006,6.723c-0.496,1.528-0.992,3.137-1.376,4.78l0.031,0.086h0.569
		c7.974-10.498,21.515-13.499,33.469-16.152l1.402-0.312c1.035-0.231,2.271-0.383,3.59-0.541c5.101-0.625,10.884-1.33,10.884-6.963
		c0-4.858-6.724-10.271-16.366-10.271c-1.466,0.02-2.93,0.12-4.384,0.3c-1.5,0.173-3.008,0.265-4.517,0.274
		C545.77,72.87,542.571,73.053,539.377,73.238z"/>
	<path fill="#955E4B" d="M536.064,227.135l-0.735,0.152c-1.429,0.11-3.389,0.261-3.57,1.383c-0.155,1.073,0.977,2.221,1.592,2.835
		l0.31,0.326c1.046,1.129,2.195,2.148,3.325,3.153c1.91,1.541,3.598,3.338,5.017,5.34c1.585,2.757,2.802,5.709,3.62,8.781
		c1.74,5.507,3.54,11.199,8.755,12.853c4.833,1.643,10.179,0.221,13.558-3.605c2.368-2.616,3.695-6.01,3.729-9.539
		c0-7.008-3.95-12.367-12.079-16.377C552.285,228.804,544.217,226.985,536.064,227.135z"/>
	<path fill="#955E4B" d="M583.356,677.818l-0.258-0.085l-0.003-0.272c-0.04-1.978-0.155-3.987-0.269-5.972l-0.227-4.565
		c-0.312-4.64-1.035-17.131-1.035-32.746v-5.792l0.277-0.083c15.25-4.593,22.982-10.498,22.982-17.555
		c0-6.208-5.404-7.632-10.626-9.013c-0.563-0.182-1.35-0.462-2.282-0.817l-3.396-2.018c0,0.076,0.007,0.161,0.007,0.241l0.015,0.442
		c0.559,0.901,1.249,1.714,2.047,2.411c0.404,0.381,0.783,0.789,1.133,1.22c3.044,4.276,3.225,7.573,0.549,9.795
		c-1.339,1.052-2.982,1.644-4.684,1.689c-1.591,0.128-3.069-0.829-3.604-2.333c-0.247-1.052-0.208-2.152,0.114-3.184
		c0.141-0.571,0.226-1.155,0.253-1.743c0.004-1.002,0.045-2.146,0.091-3.352c0.318-3.529,0.15-7.084-0.501-10.567
		c-1.777-6.32-9.654-12.535-14.231-12.559c-4.163-0.072-7.879,2.601-9.134,6.571l0.542,0.123c2.221,1.592,3.756,2.712,4.04,3.017
		c1.276,1.468,2.245,3.176,2.851,5.024c1.158,4.093,1.62,8.353,1.364,12.599v1.229c0,7.774,0,7.774-0.023,7.844
		c-0.431,0.673-1.493,0.938-3.379,0.938c-3.708-0.173-7.399-0.611-11.044-1.312c-4.913-0.876-9.728-2.24-14.371-4.069
		c-0.379-0.142-0.918-0.407-1.539-0.706c-1.866-0.915-4.693-2.198-5.663-1.658c-0.307,0.171-0.519,0.473-0.577,0.819
		c0.059,2.52,0.884,4.962,2.365,7.002c1.563,2.187,3.386,4.176,5.43,5.922c6.539,4.942,14.566,7.508,22.759,7.277
		c1.885,0.014,3.769-0.103,5.638-0.35l0.432-0.062l0.023,2.61c0.161,14.634,0.319,28.501,0.463,35.2v5.81l-0.439-0.059
		c-2.722-0.357-5.465-0.536-8.21-0.538c-18.919,0-33.738,8.755-33.738,19.942c0,10.726,12.143,20.497,25.484,20.497
		c13.692-0.29,25.483-9.742,28.743-23.043l0.136-0.502l0.443,0.282c5.111,3.204,9.42,7.537,12.595,12.666
		c2.994,4.761,5.935,5.77,7.88,5.77c4.432-0.537,7.628-4.509,7.204-8.954C609.984,692.241,596.162,682.19,583.356,677.818z
		 M565.031,693.361c-1.617,2.081-3.666,3.786-6.006,4.999c-2.782,1.386-5.818,2.191-8.922,2.364
		c-0.615,0.045-1.235,0.066-1.857,0.066c-4.37,0.115-8.676-1.064-12.378-3.388c-1.085-0.674-1.452-2.08-0.834-3.197
		c1.947-3.374,5.13-5.859,8.876-6.929c3.887-1.714,8.102-2.557,12.349-2.47c3.999,0.06,7.978,0.564,11.866,1.502
		C568.623,687.141,565.073,693.309,565.031,693.361z"/>
	<path fill="#955E4B" d="M621.211,368.804c0.25-1.81-1.645-3.528-2.896-4.666c-3.607-3.293-5.802-5.276-9.156-8.213
		c-0.362-0.326-0.764-0.739-1.191-1.175c-0.898-1.115-2.039-2.011-3.335-2.619c-4.71-1.076-7.315,2.581-9.679,6.171l-0.758,1.141
		c-0.138,0.196-0.35,0.534-0.607,0.951c-1.524,2.444-2.964,4.661-3.874,4.958c-1.385,0.234-2.796,0.269-4.192,0.106
		c-0.663-0.045-1.296-0.086-1.812-0.086c-2.069,0-4.047,0.026-5.988,0.048c-3.759,0.046-7.367,0.095-11.165-0.048l-0.376-0.012
		v-0.374c0.008-7.2-0.033-13.519-0.071-19.817c-0.053-8.21-0.107-16.392-0.053-26.473l0.004-0.35l0.353-0.034
		c2.698-0.25,5.889-0.362,10.032-0.362c2.186,0,4.431,0.031,6.701,0.06c3.721,0.046,7.515,0.095,11.244,0.024l0.462-0.012
		c2.454-0.06,6.556-0.163,6.944-1.73c0.546-2.16-2.733-4.863-3.964-5.878l-0.327-0.27c-1.953-1.724-4.088-3.232-6.367-4.495
		l-0.553-0.622c-0.636-0.999-1.581-1.762-2.691-2.174c-2.724-0.513-5.471,0.774-6.822,3.195c-0.394,0.618-0.744,1.264-1.046,1.933
		c-1.395,2.801-2.562,4.942-3.828,4.942l-6.55,0.012l-3.589-0.012l-0.004-0.386c-0.004-3.078-0.034-5.643-0.065-8.22
		c-0.04-3.344-0.08-6.698-0.068-11.184c0.562-0.65,1.229-1.2,1.975-1.626c1.629-1.035,3.168-2.017,2.971-4.112
		c-0.217-2.255-3.964-3.699-6.443-4.658l-0.553-0.216c-2.245-0.865-4.539-1.601-6.868-2.203c-0.909-0.253-1.781-0.493-2.6-0.743
		l0.114-0.758c4.453-0.015,8.8-0.201,13.404-0.394c4.832-0.204,9.821-0.417,14.99-0.417l1.994,0.012
		c2.373,0.019,4.805,0.072,7.22,0.125c2.789,0.06,5.559,0.121,8.186,0.133c0.958,0.007,1.959,0.08,2.96,0.155
		c1.364,0.127,2.734,0.168,4.103,0.124c2.346-0.171,4.923-0.875,5.116-2.349c0.179-1.523-1.485-3.103-2.701-4.256l-0.515-0.496
		c-2.243-2.165-4.603-4.206-7.068-6.114l-2.036-1.642c-0.294-0.238-0.651-0.568-1.046-0.929c-1.01-1.095-2.233-1.973-3.594-2.58
		c-2.562-0.876-5.361,0.404-6.374,2.915l-1.911,3.089c-1.417,2.308-2.755,4.491-4.298,6.56c-6.784,0.167-13.717,0.344-20.799,0.531
		c-12.432,0.318-25.992,0.58-36.157,0.144c-0.965-0.035-1.948-0.117-2.918-0.201c-1.259-0.105-2.502-0.212-3.685-0.212l-0.711,0.012
		c-0.762,0.04-1.592,0.052-2.441,0.064c-2.117-0.081-4.236,0.123-6.299,0.606c0.098,0.631,0.143,1.269,0.133,1.907
		c0.014,0.515,0.026,1.027-0.004,1.497c0.94,1.156,2.137,2.078,3.495,2.691c1.223,0.296,2.49,0.36,3.736,0.189
		c0.633-0.053,1.277-0.106,1.937-0.106l1.8,0.015c3.859,0,7.933-0.217,11.871-0.429c5.051-0.269,10.271-0.553,15.06-0.367
		l0.365,0.011l0.01,0.365c0.345,10.274,0.398,22.788,0.148,33.473l-0.007,0.372l-0.372,0.007c-8.171,0.201-16.676,0.027-24.49-0.14
		c-2.547-0.053-5.018-0.103-7.38-0.141c-0.727,0.272-1.282,0.873-1.497,1.619c-0.074,1.373,0.486,2.704,1.52,3.611
		c0.577,0.621,2.703,1.361,9.54,1.361c5.116,0,11.263-0.41,15.751-0.705c2.744-0.182,4.934-0.326,6.042-0.326
		c0.572,0,1.166,0,1.166,0.488l-0.007,12.754c-0.016,12.09-0.035,24.593,0.152,33.534l0.007,0.386l-0.389,0.008
		c-7.19,0.14-14.853,0.171-22.411,0.171l-19.355-0.027c-0.344,0-0.709-0.019-1.08-0.038c-0.362-0.023-0.735-0.04-1.099-0.04
		c-1.251,0-1.941,0.277-2.32,0.932c-0.128,1.266,0.27,2.53,1.099,3.495c1.949,1.525,4.43,2.201,6.883,1.876
		c0.598,0,1.216-0.019,1.842-0.047c24.02-1.099,49.925-1.609,81.514-1.609c2.528,0,5.229,0.069,7.982,0.138
		c2.319,0.06,4.676,0.121,7.003,0.143c0.667,0.004,1.5,0.046,2.425,0.095c1.197,0.065,2.548,0.141,3.874,0.141
		C618.92,370.995,620.986,370.279,621.211,368.804z"/>
	<path fill="#955E4B" d="M615.729,436.291l-0.372-0.298c-6.891-5.573-14.139-10.69-21.698-15.316
		c-0.04,0.204-1.224,1.689-5.051,7.807l-0.531,0.839c-0.36,0.547-0.72,1.132-1.092,1.743c-2.024,3.298-4.312,7.035-8.376,7.18
		h-0.053c-1.057,0-3.399-0.076-6.359-0.173c-5.204-0.175-12.333-0.402-16.581-0.402c-1.146-0.072-2.297-0.024-3.433,0.142
		l-0.213-0.303h-0.389v-0.043c0.015-4.254-0.06-8.257-0.145-12.313c-0.06-3.236-0.124-6.509-0.143-9.958
		c0.651-0.691,1.411-1.27,2.25-1.715c1.948-1.167,4.155-2.485,4.155-4.548c-0.005-2.885-5.223-4.539-9.032-5.745
		c-0.777-0.249-1.504-0.476-2.126-0.698c-4.55-1.679-9.185-3.116-13.887-4.304c-0.643,0.007-1.285,0.058-1.921,0.152
		c-0.355,0.061-0.713,0.101-1.073,0.121c-0.794,4.579-0.933,9.247-0.413,13.865c0.808,17.389,0.913,26.226,0.322,26.248
		c-5.601,0.13-10.502,0.055-15.959-0.021c-8.812-0.121-19.939-0.045-34.326-0.531l-0.978-0.038
		c-0.713-0.038-1.433-0.069-2.107-0.069c-1.107,0-2.637,0.085-3.149,0.782c1.347,3.185,3.609,5.899,6.5,7.798
		c0.393-0.104,1.084-0.228,1.781-0.355c0.553-0.1,1.113-0.204,1.668-0.256c1.542-0.185,3.103-0.327,4.608-0.44
		c17.26-1.274,35.512-1.357,53.17-1.44c4.666-0.023,9.281-0.038,13.825-0.085h0.442l-0.053,0.44
		c-2.373,19.149-5.12,37.483-12.59,51.227l-0.265,0.492l-0.367-0.426c-8.223-10.553-15.023-22.14-20.227-34.465l-0.417-0.933
		c-0.493-1.464-1.301-2.802-2.368-3.918c-1.864-0.722-3.94-0.664-5.761,0.161c-0.271,0.121-0.53,0.268-0.773,0.438
		c-4.451,5.603-10.271,9.963-16.9,12.658c0.089,3.28,1.383,6.413,3.635,8.8c1.363,1.924,3.462,3.198,5.799,3.518
		c0.519-0.111,1.028-0.264,1.523-0.455c1.453-1.156,2.836-2.399,4.139-3.721c1.535-1.981,3.118-3.814,4.643-5.557
		c0.181-0.213,0.356-0.445,0.531-0.673c0.536-0.878,1.34-1.561,2.293-1.949l0.333-0.093l1.609,4.027
		c4.341,11.615,9.464,22.922,15.334,33.844c0.922,1.599-5.752,9.11-11.513,15.136c-7.151,7.278-15.233,13.579-24.037,18.737
		c-4.7,2.859-8.603,5.036-12.287,6.832c-1.171,0.576-11.893,4.093-13.864,4.738c0.239,1.023,1.705,1.492,3.047,1.554l0.644,0.007
		c2.881-0.129,5.735-0.62,8.493-1.461l1.338-0.341c9.412-2.563,18.608-5.861,27.504-9.864c8.509-3.399,16.572-7.824,24.009-13.175
		c1.078-0.858,2.111-1.771,3.094-2.735c1.081-1.073,2.233-2.071,3.449-2.989l0.317-0.227l0.228,0.32
		c1.237,1.736,2.418,3.503,3.605,5.275c3.352,5.542,7.465,10.586,12.218,14.985c5.052,4.089,10.433,7.752,16.089,10.953l0.758,0.45
		c1.617,1.172,3.482,1.957,5.451,2.296l0.068,0.379h0.004v-0.378c0.435-0.004,0.868-0.052,1.292-0.144
		c5.032-4.349,10.409-8.283,16.076-11.763c0.246-0.144,1.221-0.606,2.577-1.213c2.475-1.123,11.464-5.093,13.834-5.661
		c-0.826-1.343-4.425-2.156-6.443-2.61l-1.166-0.265c-1.668-0.417-3.332-0.801-4.92-1.175c-1.588-0.374-3.085-0.72-4.434-1.066
		c-11.582-2.638-22.665-7.12-32.825-13.274c-4.713-2.904-8.967-6.494-12.625-10.65l-0.167-0.189l1.152-2.341
		c6.674-12.562,12.145-25.727,16.342-39.318c0.73-0.394,1.507-0.695,2.312-0.893c2.964-0.85,6.655-1.904,6.872-4.458
		c0.186-2.335-2.43-4.23-4.34-5.609c-3.919-2.842-8.165-5.353-12.264-7.779c-2.918-1.727-5.678-3.357-8.021-4.917l-0.992-0.668
		l1.197-0.045c16.767-0.651,35.71,0.234,49.043,0.978l1.433,0.09c1.569,0.107,3.471,0.227,5.325,0.227
		c4.331,0,6.705-0.711,7.049-2.113C620.778,440.254,617.496,437.677,615.729,436.291z"/>
	<path fill="#955E4B" d="M514.923,648.573c0.133-0.251,0.493-1.009,0.937-1.942c1.065-2.253,1.683-3.53,2.065-4.266
		c-2.22,1.057-4.199,2.559-5.814,4.413l-0.895,0.885c-3.036,3.195-5.534,6.86-7.399,10.854c-1.303,2.525-2.452,5.102-3.494,7.518
		c-0.189,0.44-0.531,1.078-0.922,1.798c-0.994,1.51-1.676,3.203-2.004,4.981l-0.767,0.09c-0.169-1.412-0.255-2.832-0.257-4.254
		c0-11.284,4.858-23.611,9.141-34.479c0.948-2.44,1.872-4.61,2.729-6.587c2.4-4.577,3.813-9.607,4.147-14.765
		c0.107-10.528-6.192-20.066-15.918-24.099c-1.166-0.551-2.403-1.006-3.631-1.461c-1.951-0.639-3.828-1.483-5.601-2.518
		c-0.149,0.286-0.259,0.59-0.327,0.905c-0.409,1.872,1.9,5.176,3.586,7.585c0.658,0.89,1.262,1.82,1.807,2.783
		c2.579,4.87,4.04,10.254,4.279,15.76c-0.191,4.883-0.929,9.729-2.202,14.447l-0.663,2.949c-0.796,3.51-1.736,7.095-2.699,10.749
		c-3.773,12.342-5.898,25.129-6.321,38.028c0,15.184,4.199,39.271,15.47,39.271c3.936-0.213,6.953-3.576,6.741-7.511
		c-0.007-0.131-0.018-0.263-0.032-0.393c-0.042-1.919-0.459-3.812-1.228-5.571c-3.213-7.831-1.247-16.117,0.66-24.128
		c0.334-1.417,0.667-2.819,0.965-4.207c0.345-1.592,0.667-3.193,0.989-4.79C509.456,662.996,511.696,655.577,514.923,648.573z"/>
	<path fill="#955E4B" d="M472.711,372.272c0.379,0.239,0.743,0.47,1.076,0.702c1.015,0.698,2.16,1.47,3.339,2.26l0.845,0.583
		c1.926,1.341,4.594,3.245,6.66,2.971c1.724-0.228,3.24-2.994,4.085-5.511c1.865-5.424,3.29-11.368,4.67-17.113
		c0.587-2.456,1.163-4.839,1.74-7.065c1.251-4.733,2.326-10.214,3.373-15.52c0.651-3.282,1.299-6.583,1.997-9.763l0.171-0.698
		c0.386-1.493,1.408-5.458,0.576-6.534c-0.11-0.151-0.29-0.235-0.477-0.222c-1.652,0.291-2.865,3.452-3.516,5.149l-0.312,0.804
		c-5.915,15.488-14.553,29.794-25.507,42.239c-0.742,0.801-1.525,1.564-2.346,2.285c-0.107,0.511-0.141,1.034-0.102,1.554
		C469.319,370.119,471.119,371.263,472.711,372.272z"/>
	<path fill="#955E4B" d="M618.793,63.802c2.624,0.026,5.061-1.354,6.389-3.616c1.678-2.769,1.846-6.198,0.446-9.118
		c-0.964-1.769-2.343-3.277-4.018-4.396c-6.775-3.904-14.577-5.658-22.371-5.03l-0.922,0.042c-3.357,0.133-8.429,0.337-8.353,3.453
		l-0.272,0.5l0.379-0.083c0.183,0.011,2.608,0.75,4.214,1.235c1.332,0.405,2.517,0.764,2.82,0.906
		c2.338,1.023,4.538,2.337,6.546,3.911c1.692,1.483,3.217,3.148,4.545,4.965c2.744,3.472,5.579,7.062,10.302,7.228l0.269,0.356
		l0.027-0.004v-0.348L618.793,63.802z"/>
	<path fill="#955E4B" d="M463.6,292.376c-0.145,0.295-0.25,0.609-0.31,0.932c2.053-0.419,4.14-0.658,6.235-0.713
		c1.487-0.029,2.969,0.201,4.378,0.679c2.442,1.063,4.709,2.491,6.723,4.234c2.681,2.631,6.119,4.355,9.831,4.931
		c1.81-0.039,3.553-0.693,4.943-1.854c1.303-1.512,1.967-3.472,1.853-5.464c0.17-3.192-0.993-6.31-3.211-8.612
		c-3.029-2.967-7.275-4.341-11.468-3.711c-5.479,0.823-10.664,3.007-15.081,6.353l-0.758,0.518
		C465.525,290.362,464.461,291.281,463.6,292.376z"/>
	<path fill="#955E4B" d="M475.288,243.083c6.621,1.846,11.728,7.125,13.354,13.803c1.421,2.381,3.221,5.052,6.114,5.473
		c3.003,0.456,6.039-0.585,8.13-2.789c1.913-2.071,2.879-4.844,2.668-7.656c-0.295-3.024-1.778-5.808-4.124-7.74
		c-4.245-2.616-9.177-3.9-14.159-3.687c-0.465,0-0.932,0.011-1.387,0.03C479.544,240.76,475.387,241.764,475.288,243.083z"/>
	<path fill="#955E4B" d="M576.04,58.364c-2.525,0.189-5.981,0.447-6.329,2.607c-0.028,0.219-0.026,0.441,0.007,0.66l0.955,0.088
		c5.136,0.829,9.855,3.33,13.425,7.114c1.072,1.318,2.058,2.702,2.953,4.146c1.642,3.212,4.192,5.869,7.333,7.642
		c4.068,1.547,8.654-0.147,10.74-3.968c1.777-4.715,0.037-10.032-4.185-12.784c-6.151-4.019-13.41-6.003-20.75-5.672
		c-1.232,0-2.478,0.045-3.728,0.136L576.04,58.364z"/>
	<path fill="#955E4B" d="M484.672,163.971c0,25.885,42.994,31.555,59.563,31.555c26.105,0,47.345-7.34,47.345-16.361
		c0-4.598-4.951-7.69-12.318-7.69c-1.68,0.047-3.357,0.188-5.021,0.424c-2.541,0.519-5.036,1.239-7.463,2.153
		c-3.655,1.342-7.402,2.42-11.211,3.225c-5.441,1.087-10.976,1.631-16.525,1.623c-14.425,0-32.654-3.23-40.56-12.295
		c-3.352-3.801-4.808-8.912-3.964-13.909c-0.158-2.916,0.585-5.809,2.126-8.289C492.54,145.502,484.672,154.313,484.672,163.971z"/>
	<path fill="#955E4B" d="M189.959,120.757c-8.125,0-9.835,1.903-10.195,3.275c2.568,1.018,5.039,2.266,7.382,3.73
		c1.624,1.318,3.073,2.838,4.313,4.522c2.439,1.987,4.358,4.538,5.591,7.432c0.727,0.754,1.436,1.508,2.084,2.281
		c1.758,2.273,4.42,3.665,7.289,3.812c4.913-0.286,8.68-4.475,8.443-9.391C214.866,128.635,206.297,120.757,189.959,120.757z
		 M210.435,90.244c-1.208-0.004-2.415-0.08-3.615-0.227c-3.186-0.531-6.412-0.79-9.642-0.773c-8.77-0.18-17.479,1.501-25.553,4.932
		c-11.616,6.211-21.812,33.12-21.812,57.577c0,33.174,18.974,36.756,27.126,36.756c3.45-0.034,6.873-0.614,10.142-1.718
		c1.802-0.597,3.69-0.893,5.588-0.875c6.147,0,10.786,3.68,10.786,8.557c0,10.217-17.934,12.45-24.847,12.45
		c-6.894,0-41.304-2.369-41.304-49.254c0.044-10.059,1.33-20.075,3.828-29.819c1.102-4.474,2.487-8.873,4.145-13.172
		c0.193-0.493,0.44-1.21,0.736-2.059c1.03-3.013,2.952-8.619,4.626-9.437l-0.549-1.118l0,0c-1.455,0.675-2.953,1.253-4.484,1.73
		c-1.372,0.467-2.755,0.937-4.074,1.516c-3.709,1.689-7.382,3.464-11.043,5.264l-1.323,0.652c-8.157,4.022-15.198,7.5-24.397,7.5
		l-0.848-0.015c-4.875-0.109-16.207-1.492-16.207-11.9c-0.103-1.227,0.396-2.429,1.338-3.222c2.995,2.282,6.69,3.452,10.453,3.309
		h0.007c9.642,0,21.337-5.802,29.876-10.043c2.191-1.096,4.196-2.084,5.917-2.865l6.601-2.997
		c13.509-6.627,27.558-12.092,41.995-16.336c1.127-0.304,2.237-0.665,3.328-1.08c3.937-1.3,8.015-2.13,12.147-2.472
		c1.659-0.152,3.373-0.238,5.071-0.238c6.807,0,18.234,1.47,18.234,11.346C222.682,86.207,218.899,90.244,210.435,90.244z
		 M237.833,122.986c0.246,4.728-3.387,8.76-8.115,9.006c-0.051,0.003-0.103,0.005-0.155,0.007c-7.508,0-10.233-8.539-14.05-13.416
		c-3.494-4.469-8.352-4.977-13.09-7.125c0.848-3.044,6.333-3.752,11.043-3.752C225.6,107.705,237.833,112.434,237.833,122.986z"/>
	<path fill="#955E4B" d="M241.215,283.03c0.004-8.308-12.822-13.583-21.687-14.057c-0.708-0.045-1.418-0.046-2.126-0.003
		c-5.726,0.318-11.463-0.42-16.922-2.176c-2.652-0.825-5.195-1.968-7.572-3.404c-0.939-0.712-1.833-1.48-2.679-2.3
		c-0.755-0.729-1.548-1.419-2.376-2.065l-0.054,0.004c0.61,3.588,6.632,11.98,10.051,11.98v0.004l0.076-0.01l0.054,1.251
		c-4.684,0.193-9.339,0.489-14.225,0.83l-0.753,0.052l0.095-0.75c0.519-4.234,1.163-8.404,1.975-12.743
		c0.361-1.902,0.569-3.829,0.621-5.764c0.682-7.863-5.139-14.791-13.002-15.473c-0.652-0.057-1.307-0.068-1.961-0.035
		c-3.117-0.263-6.172,0.983-8.217,3.351c1.824,1.954,3.498,4.043,5.008,6.249c1.247,2.999,1.975,6.187,2.155,9.43
		c0.016,0.167,1.146,16.767-0.427,16.945c-10.123,1.088-19.773,2.391-31.34,3.995l-4.647,0.632
		c-4.37,0.599-8.777,1.202-13.249,1.762c-2.758,0.346-5.536,0.519-8.315,0.516c-1.696,0.004-3.39-0.101-5.072-0.315l-0.439-0.007
		c-0.428,0.015-0.856-0.025-1.273-0.119c-3.228-0.828-6.389-1.899-9.456-3.203c-1.558,0.784-2.453,2.466-2.232,4.196
		c0,9.437,11.491,16.009,21.811,16.009c4.405-0.024,8.762-0.922,12.817-2.643c13.254-5.284,27.156-8.772,41.335-10.369l0.682-0.076
		l0.011,0.686c0.129,7.451,0.247,14.292,0.284,19.947l0.008,0.815l-0.792-0.212c-1.977-0.539-4.018-0.813-6.068-0.815
		c-9.639-0.471-17.835,6.962-18.306,16.601c-0.039,0.803-0.023,1.608,0.049,2.409c0.179,7.997,2.824,15.743,7.573,22.179
		c2.284,3.513,6.195,5.625,10.384,5.609c0.963,0.021,1.926-0.06,2.872-0.241c0.228-0.04,0.442-0.105,0.656-0.158
		c0.468-0.143,0.952-0.227,1.44-0.25l0.694-0.019l-0.053,0.686c-0.615,8.274-6.625,15.827-12.204,22.267
		c-2.684,2.888-5.644,5.508-8.838,7.821l-2.088,1.63c-1.992,1.508-4.105,2.849-6.317,4.01c-1.057,0.495-2.044,1.127-2.936,1.878
		c0.053,0.01,0.201,0.109,0.534,0.244c0.413,0.13,0.844,0.189,1.277,0.173c4.399-0.547,8.704-1.684,12.799-3.379
		c4.87-1.903,9.444-4.488,13.585-7.679c8.474-6.49,15.188-14.999,19.529-24.75c3.02-6.62,4.626-13.797,4.715-21.072
		c0.479-6.944-1.821-13.793-6.393-19.041l-0.155-0.386l-0.069-1.649c-0.182-4.007-0.417-8.994-0.417-14.758
		c0-4.103,0.129-8.429,0.375-12.855l0.03-0.574l0.573-0.014c2.065-0.057,4.085-0.057,6.037-0.057
		c13.263-0.124,26.475,1.673,39.223,5.336c3.614,1.324,7.637,0.908,10.903-1.129C240.347,286.817,241.253,284.974,241.215,283.03z
		 M165.1,336.071c-9.236,0-10.15-14.588-10.15-14.732c0-4.495,2.222-7.182,5.94-7.182c4.172,0.118,7.913,2.602,9.642,6.401
		c0.345,1.643,0.522,3.317,0.526,4.996C171.057,334.251,167.822,336.071,165.1,336.071z"/>
	<path fill="#955E4B" d="M167.088,448.441c-2.03-0.002-4.051,0.266-6.011,0.796l-1.099,0.265l0.362-1.061
		c2.406-6.661,3.949-13.603,4.593-20.656c0-10.406-6.246-14.116-12.09-14.116c-4.782,0.345-9.289,2.364-12.731,5.702
		c3.614,2.34,6.241,5.929,7.379,10.082c0.958,2.013,1.377,4.241,1.217,6.464c-0.266,6.137-1.255,12.221-2.949,18.126l-0.091,0.327
		l-0.31,0.097c-1.713,0.576-3.566,1.305-5.515,2.063c-5.726,2.648-11.877,4.259-18.166,4.759c-1.729,0.018-3.451-0.23-5.105-0.736
		c-3.985-2.21-7.602-5.028-10.719-8.352c-1.555,2.342-2.231,5.159-1.909,7.952c0.052,8.887,7.3,16.049,16.187,15.997
		c0.236-0.001,0.471-0.008,0.707-0.02c5.745-0.731,11.341-2.349,16.589-4.797l1.531-0.644l-0.739,1.495
		c-9.661,18.451-20.707,36.142-33.044,52.922c-3.408,3.892-5.573,8.715-6.216,13.848c-0.322,3.375,2.152,6.372,5.527,6.695
		c0.333,0.032,0.668,0.036,1.002,0.014c4.26,0,10.469-3.54,14.747-11.47c2.456-4.538,5.189-9.745,8.066-15.333l0.792-1.537
		l0.367,1.682c0.255,1.151,0.675,2.639,1.243,4.614c0.537,1.924,0.819,3.91,0.838,5.907c0.224,4.539,0.485,9.686,7.473,11.915
		c2.478,0.88,5.092,1.311,7.721,1.274c20.201,0,41.672-21.354,41.672-60.922C188.407,459.659,181.226,448.441,167.088,448.441z
		 M149.892,525.773c-1.876-0.094-3.703-0.635-5.328-1.578c-0.89-0.22-1.744-0.568-2.534-1.033c-4.045-1.052-7.556-3.565-9.858-7.054
		c-0.385-0.866-0.46-1.838-0.212-2.753l-0.822-0.076l0.42-0.81c5.252-10.363,15.16-30.32,22.462-47.574
		c7.58-5.35,11.288-5.609,11.958-5.609c5.397,0,8.251,6.512,8.251,18.808c-0.004,22.503-10.412,47.678-24.34,47.678L149.892,525.773
		z M222.114,503.009h-0.432c-1.838,0.061-3.881,0.121-6.152,0.121c-4.476,0-8.183-0.258-8.183-3.394
		c0.009-0.367,0.1-0.728,0.265-1.057c0.486-0.097,1.63-0.294,2.918-0.497c2.786-0.479,4.814-0.829,5.447-1.046
		c2.567-0.813,5.069-1.817,7.485-3.003c6.488-3.312,9.774-7.343,9.774-11.977c0-11.277-9.878-19.951-30.199-26.483
		c0.357-1.364,1.876-2.056,4.545-2.056c25.112,0,43.342,13.251,43.342,31.495c0.309,6.683-2.642,13.101-7.918,17.216
		c-2.132,1.538-4.709,2.337-7.337,2.274c-2.143-0.069-4.276-0.326-6.374-0.767C226.93,503.354,224.527,503.077,222.114,503.009z"/>
	<path fill="#955E4B" d="M319.999,48.032c1.599-10.257,13.193-15.62,18.328-15.782c-1.448-5.561-1.785-29.441,5.184-32.246
		c0,0,5.931-0.845,4.063,21.948c0,0-1.459,5.504-2.997,9.998l4.922,1.225c13.317-29.574,25.858-26.083,25.858-26.083
		c8.842,5.901-18.374,31.541-18.374,31.541c3.135,6.697-0.019,17.832-0.019,17.832c7.471-0.747,14.927,1.551,20.681,6.374
		c7.921-5.382,10.801,1.609,10.801,1.609c1.986,6.197-5.313,8.667-5.313,8.667c6.476,8.881,3.968,12.636,2.505,14.213
		c-1.858,1.528-9.563-3.99-9.563-3.99c-4.626-0.903-8.313-3.612-13.475-3.893c-10.432-0.476-20.819,1.652-30.223,6.192
		c-5.287,2.619-9.156,3.745-11.246,2.096c-2.524-8.646,13.599-21.982,13.599-21.982c2.187-1.986-1.592-2.596-1.592-2.596
		c-7.565-0.272-13.477-6.625-13.205-14.19C319.945,48.653,319.967,48.342,319.999,48.032z M408.054,127.003
		c0.315,8.806-1.815,17.526-6.152,25.196c-20.567,39.12-79.742,56.857-88.483,57.346c-2.331,0.13-2.891-1.054-2.948-2.077
		c-0.068-1.209-0.133-2.353,9.031-6.315c29.119-12.359,69.731-39.874,69.731-73.333c0-17.047-16.972-24.233-25.616-23.74
		c-8.224,0.789-16.138,3.538-23.081,8.015c-5.026,3.755-10.992,6.048-17.24,6.626c-13.011,0.732-22.502-6.352-22.887-13.174
		c-0.276-3.806,2.188-7.273,5.873-8.266c1.888,0.004,3.584,1.156,4.283,2.91c1.379,1.842,5.003,2.081,7.777,1.926
		c5.482-0.531,10.882-1.713,16.085-3.521l0.436-0.14c9.788-3.086,19.884-5.092,30.108-5.981
		C389.891,91.066,407.027,108.922,408.054,127.003z"/>
	<path fill="#955E4B" d="M38.318,375.538c0-14.36,4.032-29.082,8.622-31.503c0.817-0.464,1.834-0.381,2.565,0.208
		c0.2,0.141,0.439,0.217,0.684,0.216c0.403,0,0.78-0.198,1.008-0.53c0.382-0.549,0.247-1.303-0.302-1.685
		c-0.007-0.005-0.013-0.009-0.02-0.014c-4.545-3.111-9.191-12.329-11.332-24.358c2.859-1.322,4.105-4.712,2.782-7.571
		c-0.295-0.637-0.705-1.215-1.21-1.704c1.987-1.338,3.178-3.577,3.178-5.973c0-3.98-3.225-4.896-7.197-4.896
		c-3.98,0-7.205,0.917-7.205,4.896c0,2.397,1.193,4.637,3.184,5.973c-2.263,2.191-2.321,5.803-0.13,8.066
		c0.488,0.504,1.066,0.914,1.703,1.209C32.511,329.9,27.864,339.12,23.32,342.22c-0.335,0.228-0.535,0.607-0.534,1.012
		c-0.003,0.245,0.071,0.485,0.212,0.686c0.227,0.334,0.604,0.534,1.008,0.534c0.244-0.001,0.482-0.075,0.684-0.212
		c0.73-0.589,1.745-0.675,2.563-0.216c4.593,2.433,8.626,17.153,8.626,31.514c0,0.674,0.546,1.22,1.22,1.22
		c0.674,0,1.22-0.546,1.22-1.22L38.318,375.538z"/>
	<path fill="#955E4B" d="M37.169,234.645c0.049,0.015,0.1,0.026,0.152,0.031c2.451-0.344,4.159-2.61,3.815-5.061
		c-0.019-0.133-0.043-0.266-0.074-0.397c-1.428-3.258,1.66,0.326,4.477-0.61c1.83-0.61,3.703-3.525,1.22-3.464
		c-5.294,0.145-6.891-9.778-7.337-17.27c-0.038-0.744-0.088-1.63-0.125-2.563c2.426-6.815,8.093-11.97,15.106-13.742
		c-0.163,0.301-0.285,0.623-0.362,0.956c-0.474,2.107,0.849,4.199,2.956,4.674s4.199-0.849,4.674-2.956
		c0.225-1,0.049-2.049-0.492-2.92c0.326,0.191,0.678,0.331,1.046,0.417c2.106,0.482,4.203-0.835,4.685-2.941
		c0.481-2.106-0.835-4.203-2.941-4.685c-1.908-0.436-3.845,0.605-4.533,2.437c0.19-2.145-1.394-4.038-3.539-4.229
		c-2.145-0.19-4.038,1.394-4.229,3.539c-0.141,1.587,0.697,3.099,2.117,3.821c-1.626,0.399-3.198,0.995-4.68,1.773
		c-2.829,1.471-10.09-4.658-9.688-9.895c0.189-4.688,2.196-9.118,5.596-12.352c1.861-1.405,4.493-1.127,6.018,0.637
		c1.135,1.686,1.194,3.875,0.152,5.62c-0.534,1.202,1.001,2.141,2.763,1.629c3.749-1.611,6.198-5.277,6.25-9.357
		c0.004-5.245-4.244-9.5-9.489-9.504c-0.49,0-0.98,0.037-1.464,0.112c-3.221,1.103-5.94,3.324-7.663,6.26
		c0.37-2.214,0.912-4.396,1.621-6.526c2.233-5.908-3.263-21.11-5.878-21.11c-0.052,0.012-0.103,0.029-0.152,0.05
		c-0.049-0.021-0.1-0.038-0.152-0.05c-2.615,0-8.11,15.202-5.878,21.11c0.709,2.13,1.251,4.312,1.621,6.526
		c-1.723-2.936-4.441-5.157-7.661-6.26c-5.186-0.805-10.043,2.746-10.848,7.932c-0.075,0.483-0.113,0.971-0.112,1.46
		c0.05,4.08,2.499,7.748,6.249,9.357c1.767,0.516,3.302-0.428,2.767-1.629c-1.045-1.744-0.986-3.935,0.152-5.62
		c1.527-1.766,4.164-2.041,6.023-0.629c3.401,3.23,5.409,7.658,5.598,12.344c0.402,5.237-6.86,11.366-9.688,9.895
		c-1.486-0.777-3.06-1.372-4.688-1.773c1.921-0.976,2.687-3.325,1.71-5.246c-0.976-1.921-3.325-2.687-5.246-1.71
		c-1.421,0.722-2.26,2.237-2.118,3.825c-0.764-2.015-3.017-3.029-5.032-2.264c-2.015,0.764-3.029,3.017-2.264,5.032
		c0.69,1.819,2.614,2.851,4.511,2.421c0.367-0.086,0.72-0.227,1.046-0.417c-1.135,1.835-0.567,4.243,1.268,5.378
		s4.243,0.567,5.378-1.268c0.537-0.868,0.713-1.911,0.49-2.907c-0.075-0.334-0.197-0.656-0.362-0.956
		c7.019,1.77,12.691,6.93,15.115,13.751c-0.038,0.925-0.088,1.81-0.125,2.555c-0.446,7.492-2.043,17.417-7.337,17.27
		c-2.483-0.057-0.61,2.856,1.22,3.464c2.816,0.936,5.909-2.646,4.477,0.61c-0.564,2.41,0.933,4.82,3.343,5.384
		c0.132,0.031,0.264,0.056,0.398,0.074C37.071,234.67,37.121,234.66,37.169,234.645z"/>
	
		<line fill="none" stroke="#955E4B" stroke-width="0.9818" stroke-linecap="round" stroke-linejoin="round" stroke-dasharray="0,1.5105" x1="37.017" y1="240.225" x2="37.017" y2="296.088"/>
	<path fill="#955E4B" d="M38.318,501.417c0,14.354,4.032,29.076,8.622,31.502c0.817,0.463,1.835,0.379,2.565-0.211
		c0.2-0.141,0.439-0.216,0.684-0.213c0.403,0,0.78,0.199,1.008,0.531c0.381,0.547,0.248,1.299-0.299,1.68
		c-0.008,0.005-0.015,0.01-0.023,0.016c-4.545,3.108-9.191,12.327-11.332,24.355c2.86,1.325,4.105,4.717,2.781,7.577
		c-0.295,0.636-0.704,1.213-1.208,1.701c1.987,1.338,3.179,3.576,3.178,5.972c0,3.979-3.225,4.898-7.197,4.898
		c-3.98,0-7.205-0.919-7.205-4.898c-0.002-2.397,1.192-4.637,3.184-5.972c-2.264-2.194-2.321-5.807-0.127-8.071
		c0.488-0.504,1.064-0.913,1.7-1.207c-2.138-12.027-6.784-21.247-11.329-24.346c-0.334-0.227-0.535-0.605-0.534-1.009
		c-0.003-0.246,0.071-0.487,0.212-0.689c0.228-0.332,0.605-0.53,1.008-0.531c0.244,0,0.482,0.073,0.684,0.211
		c0.73,0.589,1.746,0.673,2.563,0.213c4.593-2.432,8.626-17.154,8.626-31.509c0-0.674,0.546-1.22,1.22-1.22
		c0.674,0,1.22,0.546,1.22,1.22l0,0L38.318,501.417z"/>
	<path fill="#955E4B" d="M37.169,642.305c0.049-0.016,0.1-0.026,0.152-0.031c2.45,0.342,4.158,2.606,3.816,5.056
		c-0.019,0.135-0.044,0.269-0.075,0.402c-1.428,3.258,1.66-0.325,4.477,0.606c1.83,0.614,3.703,3.525,1.22,3.466
		c-5.294-0.147-6.891,9.778-7.337,17.266c-0.038,0.751-0.088,1.637-0.125,2.56c2.423,6.819,8.09,11.979,15.106,13.753
		c-1.004-1.909-0.27-4.269,1.639-5.273c1.909-1.004,4.269-0.27,5.273,1.639c0.644,1.225,0.592,2.7-0.138,3.876
		c0.325-0.192,0.678-0.333,1.046-0.417c2.106-0.48,4.202,0.837,4.682,2.943c0.48,2.106-0.837,4.202-2.943,4.682
		c-1.905,0.435-3.839-0.604-4.529-2.433c0.19,2.145-1.395,4.038-3.54,4.227c-2.145,0.19-4.038-1.395-4.227-3.54
		c-0.14-1.586,0.698-3.098,2.117-3.819c-1.625-0.403-3.196-0.998-4.68-1.772c-2.829-1.473-10.09,4.652-9.688,9.892
		c0.189,4.687,2.197,9.116,5.599,12.346c1.859,1.409,4.491,1.133,6.018-0.63c1.135-1.687,1.194-3.877,0.152-5.623
		c-0.534-1.199,1.001-2.137,2.763-1.629c3.749,1.612,6.198,5.28,6.25,9.361c-0.001,5.249-4.256,9.503-9.505,9.503
		c-0.485,0-0.969-0.037-1.448-0.111c-3.22-1.105-5.938-3.326-7.663-6.26c0.371,2.214,0.913,4.396,1.621,6.526
		c2.233,5.905-3.263,21.103-5.878,21.103c-0.052-0.012-0.102-0.028-0.152-0.047c-0.049,0.02-0.1,0.035-0.152,0.047
		c-2.615,0-8.11-15.198-5.878-21.103c0.708-2.13,1.25-4.312,1.621-6.526c-1.724,2.935-4.442,5.156-7.662,6.261
		c-5.188,0.803-10.045-2.752-10.848-7.941c-0.074-0.48-0.112-0.965-0.112-1.451c0.049-4.081,2.498-7.75,6.249-9.361
		c1.767-0.516,3.302,0.431,2.767,1.629c-1.045,1.745-0.986,3.937,0.152,5.623c1.528,1.763,4.162,2.039,6.023,0.63
		c3.4-3.231,5.408-7.66,5.598-12.346c0.402-5.24-6.86-11.365-9.688-9.892c-1.487,0.774-3.061,1.369-4.688,1.772
		c1.919,0.978,2.682,3.326,1.704,5.244c-0.978,1.919-3.326,2.682-5.244,1.704c-1.417-0.722-2.254-2.233-2.114-3.817
		c-0.766,2.014-3.02,3.026-5.034,2.26c-2.014-0.766-3.026-3.02-2.26-5.034c0.691-1.816,2.613-2.847,4.508-2.418
		c0.368,0.085,0.721,0.226,1.046,0.417c-1.135-1.835-0.567-4.243,1.268-5.378c1.835-1.135,4.243-0.567,5.378,1.268
		c0.537,0.869,0.713,1.914,0.489,2.911c-0.076,0.334-0.198,0.656-0.362,0.957c7.02-1.771,12.691-6.931,15.115-13.753
		c-0.038-0.925-0.088-1.81-0.125-2.56c-0.446-7.488-2.043-17.413-7.337-17.266c-2.483,0.059-0.61-2.852,1.22-3.466
		c2.816-0.931,5.909,2.646,4.477-0.606c-0.564-2.408,0.93-4.818,3.338-5.382c0.133-0.031,0.267-0.056,0.403-0.075
		C37.071,642.279,37.121,642.289,37.169,642.305z"/>
	
		<line fill="none" stroke="#955E4B" stroke-width="0.9818" stroke-linecap="round" stroke-linejoin="round" stroke-dasharray="0,1.5105" x1="37.017" y1="636.724" x2="37.017" y2="580.862"/>
	<path fill="#955E4B" d="M684.897,375.538c0-14.36,4.033-29.082,8.619-31.503c0.818-0.464,1.836-0.381,2.569,0.208
		c0.543,0.38,1.291,0.247,1.67-0.296c0.004-0.006,0.008-0.012,0.012-0.018c0.385-0.544,0.257-1.297-0.286-1.682
		c-0.008-0.006-0.016-0.011-0.024-0.016c-4.548-3.111-9.194-12.329-11.332-24.358c2.859-1.327,4.1-4.721,2.773-7.58
		c-0.294-0.634-0.703-1.208-1.204-1.695c1.986-1.339,3.176-3.578,3.175-5.973c0-3.98-3.221-4.896-7.2-4.896s-7.2,0.917-7.2,4.896
		c-0.001,2.397,1.193,4.637,3.184,5.973c-2.263,2.192-2.32,5.803-0.128,8.065c0.489,0.505,1.067,0.915,1.705,1.21
		c-2.137,12.027-6.784,21.246-11.339,24.346c-0.332,0.231-0.53,0.609-0.531,1.012c-0.002,0.246,0.076,0.487,0.22,0.686
		c0.222,0.335,0.598,0.536,1,0.534c0.246-0.001,0.486-0.075,0.691-0.212c0.729-0.59,1.744-0.675,2.562-0.216
		c4.593,2.433,8.625,17.153,8.625,31.514c0.012,0.674,0.568,1.211,1.242,1.199c0.657-0.012,1.187-0.542,1.199-1.199H684.897z"/>
	<path fill="#955E4B" d="M683.745,234.645c0.05,0.015,0.1,0.025,0.152,0.031c2.453-0.345,4.163-2.614,3.818-5.067
		c-0.018-0.131-0.043-0.262-0.073-0.391c-1.433-3.258,1.66,0.326,4.472-0.61c1.835-0.61,3.698-3.525,1.22-3.464
		c-5.291,0.145-6.889-9.778-7.337-17.27c-0.038-0.744-0.083-1.63-0.121-2.563c2.424-6.813,8.088-11.968,15.099-13.742
		c-0.159,0.302-0.279,0.623-0.355,0.956c-0.452,2.111,0.893,4.189,3.004,4.641c2.088,0.447,4.148-0.864,4.628-2.944
		c0.21-0.995,0.031-2.032-0.5-2.899c0.329,0.19,0.684,0.331,1.054,0.417c2.106,0.481,4.203-0.836,4.683-2.942
		c0.481-2.106-0.836-4.203-2.942-4.683c-1.907-0.436-3.843,0.605-4.531,2.437c0.191-2.146-1.393-4.041-3.539-4.233
		s-4.042,1.393-4.233,3.54c-0.142,1.588,0.697,3.102,2.118,3.825c-1.625,0.4-3.195,0.995-4.677,1.773
		c-2.834,1.471-10.096-4.658-9.694-9.895c0.191-4.689,2.199-9.119,5.601-12.352c1.861-1.405,4.493-1.126,6.019,0.637
		c1.138,1.685,1.197,3.876,0.152,5.62c-0.531,1.202,1.001,2.141,2.759,1.629c3.751-1.608,6.2-5.276,6.246-9.357
		c0.007-5.243-4.238-9.498-9.481-9.505c-0.493-0.001-0.985,0.037-1.473,0.113c-3.218,1.104-5.935,3.325-7.656,6.26
		c0.368-2.215,0.91-4.397,1.623-6.526c2.228-5.908-3.268-21.11-5.883-21.11c-0.052,0.011-0.103,0.028-0.152,0.05
		c-0.049-0.022-0.099-0.039-0.152-0.05c-2.615,0-8.111,15.202-5.873,21.11c0.709,2.13,1.251,4.312,1.623,6.526
		c-1.726-2.934-4.444-5.154-7.664-6.26c-5.184-0.807-10.041,2.742-10.848,7.927c-0.075,0.485-0.113,0.975-0.113,1.465
		c0.047,4.08,2.496,7.749,6.247,9.357c1.766,0.516,3.304-0.428,2.767-1.629c-1.046-1.744-0.987-3.935,0.152-5.62
		c1.525-1.765,4.16-2.041,6.018-0.629c3.405,3.227,5.415,7.656,5.602,12.344c0.402,5.237-6.86,11.366-9.68,9.895
		c-1.491-0.776-3.068-1.371-4.7-1.773c1.923-0.973,2.693-3.32,1.721-5.243s-3.32-2.693-5.243-1.721
		c-1.426,0.721-2.268,2.24-2.125,3.832c-0.765-2.015-3.018-3.028-5.032-2.263s-3.028,3.018-2.263,5.032
		c0.69,1.819,2.616,2.852,4.513,2.42c0.365-0.086,0.715-0.227,1.039-0.417c-0.531,0.867-0.71,1.904-0.5,2.899
		c0.452,2.111,2.53,3.456,4.641,3.004c2.111-0.452,3.456-2.53,3.004-4.641c-0.004-0.02-0.009-0.04-0.013-0.06
		c-0.073-0.334-0.193-0.656-0.355-0.956c7.018,1.77,12.686,6.93,15.107,13.751c-0.04,0.925-0.084,1.81-0.121,2.555
		c-0.446,7.492-2.038,17.417-7.337,17.27c-2.479-0.057-0.606,2.856,1.221,3.464c2.819,0.936,5.904-2.646,4.479,0.61
		c-0.566,2.407,0.927,4.817,3.334,5.382c0.133,0.031,0.268,0.056,0.403,0.075C683.648,234.671,683.697,234.661,683.745,234.645z"/>
	
		<line fill="none" stroke="#955E4B" stroke-width="0.9818" stroke-linecap="round" stroke-linejoin="round" stroke-dasharray="0,1.5105" x1="683.593" y1="240.225" x2="683.593" y2="296.088"/>
	<path fill="#955E4B" d="M684.897,501.417c0,14.354,4.033,29.076,8.619,31.502c0.819,0.463,1.837,0.38,2.569-0.211
		c0.2-0.14,0.438-0.214,0.682-0.213c0.675,0.004,1.219,0.554,1.216,1.229c-0.002,0.398-0.198,0.77-0.525,0.997
		c-4.548,3.108-9.194,12.327-11.332,24.355c2.86,1.33,4.101,4.727,2.77,7.588c-0.294,0.632-0.701,1.205-1.202,1.691
		c1.987,1.338,3.177,3.577,3.175,5.972c0,3.979-3.221,4.898-7.2,4.898s-7.2-0.919-7.2-4.898c-0.002-2.397,1.192-4.638,3.184-5.972
		c-2.263-2.194-2.32-5.807-0.126-8.07c0.488-0.504,1.066-0.913,1.702-1.208c-2.137-12.027-6.784-21.247-11.339-24.346
		c-0.331-0.229-0.53-0.606-0.531-1.009c-0.002-0.247,0.076-0.489,0.22-0.689c0.223-0.333,0.599-0.532,1-0.531
		c0.246-0.001,0.487,0.073,0.691,0.211c0.73,0.588,1.745,0.673,2.562,0.213c4.593-2.432,8.625-17.154,8.625-31.509
		c-0.012-0.674,0.525-1.23,1.199-1.242c0.674-0.012,1.23,0.525,1.242,1.199c0,0.015,0,0.029,0,0.044L684.897,501.417z"/>
	<path fill="#955E4B" d="M683.745,642.305c0.049-0.015,0.1-0.026,0.152-0.031c2.452,0.344,4.162,2.61,3.818,5.062
		c-0.019,0.133-0.043,0.265-0.073,0.395c-1.433,3.258,1.66-0.325,4.472,0.606c1.835,0.614,3.698,3.525,1.22,3.466
		c-5.291-0.147-6.889,9.778-7.337,17.266c-0.038,0.751-0.083,1.637-0.121,2.56c2.421,6.818,8.085,11.977,15.098,13.753
		c-0.158-0.303-0.277-0.624-0.355-0.957c-0.468-2.108,0.86-4.196,2.968-4.664c2.108-0.468,4.196,0.86,4.664,2.968l0,0
		c0.211,0.994,0.032,2.03-0.5,2.896c0.328-0.192,0.684-0.333,1.054-0.417c2.106-0.479,4.201,0.839,4.681,2.944
		c0.479,2.106-0.839,4.201-2.944,4.681c-1.905,0.434-3.837-0.605-4.527-2.433c0.191,2.146-1.394,4.041-3.54,4.233
		c-2.146,0.191-4.041-1.394-4.233-3.54c-0.142-1.588,0.697-3.102,2.118-3.824c-1.624-0.404-3.194-0.998-4.677-1.772
		c-2.834-1.473-10.096,4.652-9.694,9.892c0.189,4.688,2.198,9.117,5.601,12.346c1.859,1.409,4.493,1.134,6.019-0.63
		c1.138-1.686,1.197-3.878,0.152-5.623c-0.531-1.199,1.001-2.137,2.759-1.629c3.751,1.609,6.2,5.28,6.246,9.361
		c0.001,5.247-4.251,9.502-9.498,9.503c-0.487,0-0.974-0.037-1.455-0.112c-3.217-1.106-5.933-3.327-7.656-6.26
		c0.369,2.215,0.911,4.396,1.623,6.526c2.228,5.905-3.268,21.103-5.883,21.103c-0.052-0.012-0.103-0.027-0.152-0.047
		c-0.049,0.02-0.1,0.036-0.152,0.047c-2.615,0-8.111-15.198-5.873-21.103c0.708-2.13,1.25-4.312,1.623-6.526
		c-1.728,2.932-4.445,5.152-7.664,6.26c-5.187,0.805-10.044-2.748-10.848-7.934c-0.075-0.482-0.112-0.969-0.112-1.457
		c0.046-4.082,2.495-7.752,6.247-9.361c1.766-0.516,3.304,0.431,2.767,1.629c-1.046,1.745-0.987,3.937,0.152,5.623
		c1.526,1.763,4.159,2.039,6.018,0.63c3.404-3.229,5.414-7.658,5.602-12.346c0.402-5.24-6.86-11.365-9.68-9.892
		c-1.492,0.773-3.069,1.367-4.7,1.772c1.92,0.974,2.686,3.32,1.712,5.24c-0.974,1.92-3.32,2.686-5.24,1.712
		c-1.42-0.721-2.259-2.234-2.119-3.82c-0.766,2.015-3.02,3.029-5.035,2.263c-2.016-0.766-3.029-3.02-2.263-5.036
		c0.691-1.82,2.618-2.852,4.516-2.42c0.366,0.085,0.716,0.226,1.039,0.417c-1.139-1.829-0.58-4.235,1.249-5.375
		c0.873-0.544,1.925-0.721,2.927-0.493c2.105,0.472,3.429,2.561,2.957,4.666c0,0.001,0,0.002-0.001,0.003
		c-0.075,0.334-0.194,0.656-0.355,0.957c7.018-1.771,12.686-6.932,15.107-13.753c-0.04-0.925-0.084-1.81-0.121-2.56
		c-0.446-7.488-2.038-17.413-7.337-17.266c-2.479,0.059-0.606-2.852,1.221-3.466c2.819-0.931,5.904,2.646,4.479-0.606
		c-0.567-2.405,0.924-4.815,3.329-5.381c0.135-0.032,0.271-0.057,0.408-0.076C683.647,642.279,683.697,642.288,683.745,642.305z"/>
	
		<line fill="none" stroke="#955E4B" stroke-width="0.9818" stroke-linecap="round" stroke-linejoin="round" stroke-dasharray="0,1.5105" x1="683.593" y1="636.724" x2="683.593" y2="580.862"/>
	<path fill="#955E4B" d="M252.684,569.515c-17.755-18.843-42.509-23.852-56.24-10.922c-7.744,6.398-8.835,17.861-2.438,25.605
		c0.241,0.291,0.49,0.575,0.749,0.851c6.647,7.189,17.864,7.629,25.053,0.981c0.319-0.295,0.627-0.602,0.923-0.919
		c7.321-6.892,6.223-11.745,4.163-20.502c-0.273-0.649-0.184-1.393,0.235-1.959c0.736-0.691,6.981-1.392,13.366,5.385
		c12.072,12.803,1.323,27.068-7.471,35.346c-6.956,6.559-15.112,11.819-34.046,20.32c-24.153,10.652-28.164,14.101-44.605,28.884
		l-0.014,0.003c-1.722,1.618-1.807,4.325-0.189,6.047c1.617,1.721,4.322,1.807,6.044,0.192
		c19.767-18.623,30.721-22.374,54.131-19.893c16.675,1.56,29.278,2.482,41.91-9.419
		C268.173,616.417,274.225,592.414,252.684,569.515z M107.859,683.084c-0.451,0.485-0.917,0.96-1.391,1.463
		c-2.655,2.775,0.262,9.831,6.473,15.774c6.225,5.94,13.42,8.507,16.072,5.737c0.461-0.493,0.925-0.978,1.388-1.457
		c2.692,0.003,5.353-0.565,7.809-1.665c6.386,2.212,14.371,3.421,20.726-3.239c1.888-1.803,2.901-4.337,2.775-6.945
		c-0.352-2.824-1.684-5.434-3.764-7.376c0.883-0.928,1.761-1.842,2.643-2.77c2.663-2.775-2.376-11.899-11.271-20.384
		c-8.877-8.476-18.227-13.1-20.886-10.318c-3.236,3.398-6.125,6.404-10.092,10.56C115.674,665.261,107.34,672.979,107.859,683.084z
		 M142.974,700.159c2.741-2.075,5.267-4.42,7.54-6.999c1.727-1.805,3.234-3.388,4.678-4.9c1.36,1.255,2.247,2.94,2.512,4.772
		c0.036,1.476-0.565,2.895-1.649,3.896C152.652,700.384,147.594,701.634,142.974,700.159z M131.654,654.962
		c1.479-1.566,8.463,2.666,15.566,9.457c7.112,6.791,11.671,13.561,10.177,15.133c-1.488,1.558-8.471-2.675-15.574-9.462
		C134.695,663.299,130.163,656.512,131.654,654.962z"/>
	<path fill-rule="evenodd" clip-rule="evenodd" fill="#8F82BC" d="M45.28,830.958c-0.403-3.981-1.329-7.892-2.755-11.631
		c-1.562-3.39-2.593-7-3.057-10.703c-0.051-1.254,0.887-2.33,2.136-2.45c4.903,0,13.777,16.522,22.341,16.522
		c5.118,0.116,9.361-3.938,9.477-9.056c0.001-0.042,0.002-0.084,0.002-0.126c0-14.378-28.144-8.865-28.144-15.603
		c0-6.731,28.144-1.224,28.144-15.604c-0.051-5.117-4.241-9.224-9.358-9.173c-0.04,0-0.081,0.001-0.121,0.002
		c-8.564,0-17.438,16.517-22.341,16.517c-1.248-0.117-2.187-1.19-2.136-2.443c0.465-3.706,1.496-7.319,3.057-10.711
		c1.427-3.736,2.353-7.643,2.755-11.622c0.444-4.274-2.66-8.099-6.935-8.544c-0.441-0.046-0.886-0.054-1.328-0.024
		c-4.445-0.44-8.405,2.807-8.845,7.252c-0.043,0.437-0.051,0.877-0.023,1.315c0.37,4.016,1.403,7.943,3.057,11.622
		c1.346,3.447,2.271,7.043,2.755,10.711c0.049,1.255-0.894,2.329-2.145,2.443c-4.892,0-13.765-16.517-22.332-16.517
		c-5.119-0.118-9.364,3.935-9.483,9.054C0.001,782.229,0,782.267,0,782.306c0,14.38,28.149,8.873,28.149,15.604
		c0,6.738-28.149,1.226-28.149,15.603c0.049,5.121,4.241,9.233,9.362,9.184c0.041,0,0.081-0.001,0.122-0.002
		c8.568,0,17.44-16.522,22.332-16.522c1.252,0.117,2.194,1.193,2.145,2.45c-0.484,3.666-1.409,7.259-2.755,10.703
		c-1.653,3.682-2.686,7.612-3.057,11.631c-0.287,4.457,3.094,8.303,7.552,8.59c0.439,0.028,0.879,0.021,1.316-0.023
		c4.287,0.29,7.998-2.951,8.287-7.239C45.334,831.843,45.326,831.399,45.28,830.958z"/>
	<path fill-rule="evenodd" clip-rule="evenodd" fill="#89C997" d="M45.28,471.687c-0.403-3.981-1.329-7.892-2.755-11.63
		c-1.562-3.39-2.593-7-3.057-10.703c-0.051-1.254,0.887-2.33,2.136-2.45c4.903,0,13.777,16.522,22.341,16.522
		c5.118,0.116,9.361-3.938,9.477-9.056c0.001-0.042,0.002-0.084,0.002-0.126c0-14.378-28.144-8.865-28.144-15.603
		c0-6.731,28.144-1.224,28.144-15.604c-0.051-5.117-4.241-9.224-9.358-9.173c-0.04,0-0.081,0.001-0.121,0.002
		c-8.564,0-17.438,16.517-22.341,16.517c-1.248-0.117-2.187-1.19-2.136-2.443c0.464-3.706,1.495-7.319,3.057-10.712
		c1.427-3.736,2.353-7.644,2.755-11.622c0.444-4.274-2.661-8.099-6.935-8.544c-0.441-0.046-0.886-0.054-1.328-0.024
		c-4.445-0.44-8.405,2.807-8.845,7.252c-0.043,0.437-0.051,0.877-0.023,1.315c0.37,4.016,1.403,7.943,3.057,11.622
		c1.346,3.447,2.271,7.043,2.755,10.712c0.049,1.255-0.894,2.329-2.145,2.443c-4.892,0-13.765-16.517-22.332-16.517
		c-5.119-0.118-9.364,3.935-9.483,9.054C0.001,422.959,0,422.998,0,423.037c0,14.38,28.149,8.873,28.149,15.604
		c0,6.738-28.149,1.226-28.149,15.603c0.049,5.121,4.241,9.233,9.362,9.184c0.041,0,0.081-0.001,0.122-0.002
		c8.568,0,17.44-16.522,22.332-16.522c1.252,0.117,2.194,1.193,2.145,2.45c-0.484,3.666-1.409,7.259-2.755,10.703
		c-1.653,3.682-2.686,7.612-3.057,11.63c-0.287,4.458,3.095,8.304,7.553,8.59c0.438,0.028,0.878,0.021,1.315-0.023
		c4.287,0.29,7.998-2.951,8.288-7.239C45.334,472.573,45.326,472.129,45.28,471.687z"/>
	<path fill-rule="evenodd" clip-rule="evenodd" fill="#EC6D7B" d="M45.28,111.286c-0.403-3.981-1.329-7.892-2.755-11.63
		c-1.562-3.39-2.593-7-3.057-10.703c-0.051-1.254,0.887-2.33,2.136-2.45c4.903,0,13.777,16.522,22.341,16.522
		c5.118,0.117,9.361-3.938,9.477-9.055c0.001-0.043,0.002-0.086,0.002-0.128c0-14.377-28.144-8.865-28.144-15.603
		c0-6.731,28.144-1.224,28.144-15.604c-0.051-5.117-4.241-9.224-9.358-9.173c-0.04,0-0.081,0.001-0.121,0.002
		c-8.564,0-17.438,16.517-22.341,16.517c-1.248-0.117-2.187-1.19-2.136-2.443c0.464-3.706,1.495-7.319,3.057-10.712
		c1.427-3.736,2.353-7.644,2.755-11.622c0.444-4.274-2.66-8.099-6.935-8.544c-0.441-0.046-0.886-0.054-1.328-0.024
		c-4.445-0.44-8.405,2.807-8.845,7.252c-0.043,0.437-0.051,0.877-0.023,1.315c0.37,4.016,1.403,7.943,3.057,11.622
		c1.346,3.447,2.271,7.043,2.755,10.712c0.049,1.255-0.894,2.329-2.145,2.443c-4.892,0-13.765-16.517-22.332-16.517
		c-5.119-0.119-9.364,3.935-9.483,9.053C0.001,62.556,0,62.596,0,62.636c0,14.38,28.149,8.873,28.149,15.604
		C28.149,84.978,0,79.465,0,93.841c0.049,5.121,4.241,9.233,9.362,9.184c0.041,0,0.081-0.001,0.122-0.002
		c8.568,0,17.44-16.522,22.332-16.522c1.252,0.117,2.194,1.193,2.145,2.45c-0.484,3.666-1.409,7.259-2.755,10.703
		c-1.653,3.682-2.686,7.612-3.057,11.63c-0.287,4.458,3.094,8.304,7.552,8.59c0.439,0.028,0.879,0.021,1.316-0.023
		c4.287,0.29,7.998-2.951,8.287-7.238C45.334,112.172,45.326,111.727,45.28,111.286z"/>
	<path fill-rule="evenodd" clip-rule="evenodd" fill="#7ECEF4" d="M691.856,830.958c-0.403-3.981-1.329-7.892-2.755-11.631
		c-1.562-3.39-2.593-7-3.057-10.703c-0.051-1.254,0.887-2.33,2.136-2.45c4.903,0,13.777,16.522,22.341,16.522
		c5.118,0.117,9.361-3.938,9.477-9.055c0.001-0.042,0.002-0.084,0.002-0.127c0-14.378-28.144-8.865-28.144-15.603
		c0-6.731,28.144-1.224,28.144-15.604c-0.051-5.117-4.241-9.224-9.358-9.173c-0.04,0-0.081,0.001-0.121,0.002
		c-8.564,0-17.438,16.517-22.341,16.517c-1.248-0.117-2.187-1.19-2.136-2.443c0.464-3.706,1.495-7.319,3.057-10.711
		c1.427-3.736,2.353-7.643,2.755-11.622c0.444-4.274-2.66-8.099-6.935-8.544c-0.441-0.046-0.886-0.054-1.328-0.024
		c-4.445-0.44-8.405,2.807-8.845,7.252c-0.043,0.437-0.051,0.877-0.023,1.315c0.37,4.016,1.403,7.943,3.057,11.622
		c1.346,3.447,2.271,7.043,2.755,10.711c0.049,1.255-0.894,2.329-2.145,2.443c-4.892,0-13.765-16.517-22.332-16.517
		c-5.119-0.118-9.364,3.935-9.482,9.054c-0.001,0.039-0.002,0.078-0.002,0.117c0,14.38,28.149,8.873,28.149,15.604
		c0,6.738-28.149,1.226-28.149,15.603c0.049,5.121,4.241,9.233,9.362,9.184c0.041,0,0.081-0.001,0.122-0.002
		c8.568,0,17.441-16.522,22.332-16.522c1.252,0.117,2.194,1.193,2.145,2.45c-0.484,3.666-1.409,7.259-2.755,10.703
		c-1.653,3.682-2.686,7.612-3.057,11.631c-0.287,4.457,3.094,8.303,7.552,8.59c0.439,0.028,0.879,0.021,1.316-0.023
		c4.287,0.289,7.998-2.952,8.287-7.24C691.91,831.843,691.902,831.399,691.856,830.958z"/>
	<path fill-rule="evenodd" clip-rule="evenodd" fill="#FACD89" d="M691.856,471.687c-0.403-3.981-1.329-7.892-2.755-11.63
		c-1.562-3.39-2.593-7-3.057-10.703c-0.051-1.254,0.887-2.33,2.136-2.45c4.903,0,13.777,16.522,22.341,16.522
		c5.118,0.117,9.361-3.938,9.477-9.055c0.001-0.042,0.002-0.085,0.002-0.127c0-14.377-28.144-8.865-28.144-15.603
		c0-6.731,28.144-1.224,28.144-15.604c-0.051-5.117-4.241-9.224-9.358-9.173c-0.04,0-0.081,0.001-0.121,0.002
		c-8.564,0-17.438,16.517-22.341,16.517c-1.248-0.117-2.187-1.19-2.136-2.443c0.464-3.706,1.495-7.319,3.057-10.712
		c1.427-3.736,2.353-7.644,2.755-11.622c0.444-4.274-2.661-8.099-6.935-8.544c-0.441-0.046-0.886-0.054-1.328-0.024
		c-4.445-0.44-8.405,2.807-8.845,7.252c-0.043,0.437-0.051,0.877-0.023,1.315c0.37,4.016,1.403,7.943,3.057,11.622
		c1.346,3.447,2.271,7.043,2.755,10.712c0.049,1.255-0.894,2.329-2.145,2.443c-4.892,0-13.765-16.517-22.332-16.517
		c-5.119-0.118-9.364,3.935-9.482,9.054c-0.001,0.039-0.002,0.078-0.002,0.117c0,14.38,28.149,8.873,28.149,15.604
		c0,6.738-28.149,1.226-28.149,15.603c0.049,5.121,4.241,9.233,9.362,9.184c0.041,0,0.081-0.001,0.122-0.002
		c8.568,0,17.441-16.522,22.332-16.522c1.252,0.117,2.194,1.193,2.145,2.45c-0.484,3.666-1.409,7.259-2.755,10.703
		c-1.653,3.682-2.686,7.612-3.057,11.63c-0.286,4.458,3.095,8.304,7.553,8.59c0.438,0.028,0.878,0.021,1.315-0.023
		c4.287,0.289,7.998-2.952,8.287-7.24C691.91,472.572,691.902,472.128,691.856,471.687z"/>
	<path fill-rule="evenodd" clip-rule="evenodd" fill="#88ABDA" d="M691.856,111.286c-0.403-3.981-1.329-7.892-2.755-11.63
		c-1.562-3.39-2.593-7-3.057-10.703c-0.051-1.254,0.887-2.33,2.136-2.45c4.903,0,13.777,16.522,22.341,16.522
		c5.118,0.117,9.361-3.938,9.477-9.055c0.001-0.043,0.002-0.085,0.002-0.128c0-14.377-28.144-8.865-28.144-15.603
		c0-6.731,28.144-1.224,28.144-15.604c-0.051-5.117-4.241-9.224-9.358-9.173c-0.04,0-0.081,0.001-0.121,0.002
		c-8.564,0-17.438,16.517-22.341,16.517c-1.248-0.117-2.187-1.19-2.136-2.443c0.464-3.706,1.495-7.319,3.057-10.712
		c1.427-3.736,2.353-7.644,2.755-11.622c0.444-4.274-2.66-8.099-6.935-8.544c-0.441-0.046-0.886-0.054-1.328-0.024
		c-4.445-0.44-8.405,2.807-8.845,7.252c-0.043,0.437-0.051,0.877-0.023,1.315c0.37,4.016,1.403,7.943,3.057,11.622
		c1.346,3.447,2.271,7.043,2.755,10.712c0.049,1.255-0.894,2.329-2.145,2.443c-4.892,0-13.765-16.517-22.332-16.517
		c-5.119-0.118-9.364,3.935-9.482,9.054c-0.001,0.039-0.002,0.078-0.002,0.117c0,14.38,28.149,8.873,28.149,15.604
		c0,6.738-28.149,1.226-28.149,15.603c0.049,5.121,4.241,9.233,9.362,9.184c0.041,0,0.081-0.001,0.122-0.002
		c8.568,0,17.441-16.522,22.332-16.522c1.252,0.117,2.194,1.193,2.145,2.45c-0.484,3.666-1.409,7.259-2.755,10.703
		c-1.653,3.682-2.686,7.612-3.057,11.63c-0.287,4.458,3.094,8.304,7.552,8.59c0.439,0.028,0.879,0.021,1.316-0.023
		c4.287,0.289,7.997-2.952,8.287-7.239C691.91,112.171,691.902,111.727,691.856,111.286z"/>
</g>
</svg>
