<?xml version="1.0" encoding="utf-8"?>
<!-- Generator: Adobe Illustrator 27.0.1, SVG Export Plug-In . SVG Version: 6.00 Build 0)  -->
<svg version="1.1" id="레이어_1" xmlns="http://www.w3.org/2000/svg" xmlns:xlink="http://www.w3.org/1999/xlink" x="0px"
	 y="0px" viewBox="0 0 720 131.523" enable-background="new 0 0 720 131.523" xml:space="preserve">
<path d="M559.396,109.943l0.212,2.771l4.694-0.353v17.37h-20.118v-4.976h14.752v-9.882h-14.364v-4.929H559.396 M560.375,111.865
	c-0.024-0.766-0.201-2.995-0.46-4.103l2.488-0.201c0.153,0.637,0.543,2.335,0.66,4.08L560.375,111.865z M564.019,111.558
	c-0.048-0.967-0.33-2.924-0.637-4.021l2.535-0.212c0.177,0.46,0.437,1.214,0.767,3.95L564.019,111.558z"/>
<path d="M572.191,122.03c-0.307-1.663-0.872-4.057-2.076-6.828l3.904-1.003c0.613,1.156,1.25,2.418,2.335,6.851L572.191,122.03
	 M572.191,127.573c8.185-2.1,11.344-4.47,13.09-14.469l4.977,1.002c-1.155,5.154-3.266,14.517-15.602,17.418L572.191,127.573z
	 M578.194,120.438c-0.613-3.078-1.097-4.776-1.876-6.745l3.857-0.72c1.356,2.724,1.923,6.05,2.005,6.592L578.194,120.438z"/>
<path d="M605.788,108.303v5.767c3.443,1.108,8.396,3.089,11.957,5.259l-2.736,5.318c-2.288-1.792-6.451-4.08-9.222-5.259v11.462
	h-5.484v-22.547H605.788 M611.672,114.153c-0.519-1.203-1.262-2.595-2.182-3.927l2.229-0.979c0.177,0.235,1.509,2.111,2.264,3.702
	L611.672,114.153z M615.057,112.43c-0.566-1.203-1.616-2.712-2.229-3.538l2.335-1.049c0.613,0.743,1.616,2.182,2.205,3.361
	L615.057,112.43z"/>
<path d="M635.187,130.886h-5.366v-9.905c-2.996,1.639-4.894,2.429-7.689,3.279l-2.5-4.387c8.22-2.819,13.503-6.003,18.892-12.206
	l4.387,3.208c-1.049,1.144-3.101,3.432-7.724,6.687V130.886"/>
<rect x="645.978" y="116.923" width="22.524" height="5.177"/>
<path d="M680.837,117.006c1.509,0.613,3.16,1.274,4.823,2.406c1.155-1.769,1.591-3.125,1.922-4.104h-6.286l-0.33,0.413
	c-3.208,3.643-5.743,4.999-6.675,5.483l-3.125-3.585c4.717-2.594,6.922-5.542,8.538-9.859l5.625,0.519
	c-0.366,1.073-0.495,1.486-0.979,2.429h9.422c-0.979,8.196-4.599,17.218-18.456,20.531l-2.795-4.587
	c1.639-0.153,5.154-0.543,9.67-3.727c-0.767-0.542-1.073-0.743-4.67-2.535L680.837,117.006"/>
<rect x="697.323" y="116.923" width="22.524" height="5.177"/>
<path d="M92.902,94.671h82.112V0.235H92.902V94.671z M120.379,25.177h27.158v44.553h-27.158V25.177z"/>
<polygon points="461.635,25.177 484.088,25.177 484.088,94.671 511.812,94.671 511.812,25.177 533.947,25.177 533.947,0 461.635,0 
	"/>
<polygon points="544.714,21.992 570.174,47.453 544.714,72.914 544.714,94.671 626.672,94.671 626.672,69.729 584.077,69.729 
	606.354,47.453 584.077,25.177 626.672,25.177 626.672,0.235 544.714,0.235 "/>
<polygon points="409.794,0.235 384.511,69.729 346.314,69.729 368.591,47.453 346.314,25.177 388.909,25.177 388.909,0.235 
	306.951,0.235 306.951,21.993 332.411,47.453 306.951,72.914 306.951,94.672 407.141,94.672 425.726,43.562 435.243,69.729 
	426.599,69.729 417.53,94.672 476.01,94.672 441.669,0.235 "/>
<polygon points="0,94.671 82.124,94.671 82.124,66.64 70.967,35.956 39.269,35.956 51.463,69.482 27.489,69.482 27.489,25.177 
	82.124,25.177 82.124,0.235 0,0.235 "/>
<path d="M185.793,0.235v94.435h60.048l21.911-21.993V22.217L245.841,0.235H185.793z M240.264,63.503l-6.298,6.25l-20.684-0.024
	V25.177l20.684-0.023l6.298,6.238V63.503z"/>
<polygon points="706.887,57.712 719.563,21.992 719.563,0.235 637.439,0.235 637.439,94.671 664.928,94.671 664.928,25.413 
	686.662,25.413 675.211,57.712 688.301,94.671 720,94.671 "/>
<polygon fill="#AB010B" points="306.951,28.95 306.951,65.968 325.465,47.453 "/>
<polygon fill="#AB010B" points="544.714,28.95 544.714,65.968 563.216,47.453 "/>
</svg>
