<?xml version="1.0" encoding="utf-8"?>
<!-- Generator: Adobe Illustrator 27.1.1, SVG Export Plug-In . SVG Version: 6.00 Build 0)  -->
<svg version="1.1" id="레이어_1" xmlns="http://www.w3.org/2000/svg" xmlns:xlink="http://www.w3.org/1999/xlink" x="0px"
	 y="0px" viewBox="0 0 720 136.745" enable-background="new 0 0 720 136.745" xml:space="preserve">
<path d="M401.636,69.78l-53.513-2.837v7.759c0,1.889,1.478,3.444,3.358,3.538l31.482,1.649c2.222,0.102,2.829,2.136,1.444,3.623
	l-4.554,4.888c-1.53,1.632-3.29,2.324-5.674,2.145l-1.957-0.102c-1.778-0.094-3.512,0.607-4.726,1.914l-19.373,20.766l15.758-0.82
	c1.555-0.086,3.025-0.769,4.093-1.906l14.622-15.69c1.88-2.008,4.127-3.529,7.571-3.342l4.033,0.197l10.793-11.571v-6.674
	C404.994,71.438,403.516,69.883,401.636,69.78"/>
<path d="M338.881,54.375l-56.359-3.025v8.323c0,2.264,1.769,4.128,4.025,4.247l33.567,1.761c3.265,0.154,3.666,3.205,2.307,4.649
	l-39.899,42.796l15.031-0.786c2.025-0.102,3.923-0.991,5.299-2.47l40.027-42.925l0.026-8.315
	C342.915,56.366,341.146,54.494,338.881,54.375"/>
<path fill="#00A2DF" d="M265.877,53.538c0-1.7-1.325-3.094-3.025-3.187L210.8,47.625c-1.231-0.06-2.231-1.051-1.974-2.41
	l1.025-5.708l31.217,1.632v-9.922L211.62,29.67l0.863-4.837c0.214-1.06,1.29-2.171,2.744-2.094l38.25,2.017V15.57
	c0-1.692-1.324-3.085-3.016-3.179l-32.918-1.786c-1.829-0.094-2.299-1.137-2.043-2.589L216.944,0h-12.408l-1.752,9.802
	l-48.539-2.641v12.357l46.351,2.444l-0.863,4.82c-0.188,1.068-1.213,2.205-2.64,2.128l-30.44-1.598v9.93l28.551,1.495
	c1.222,0.06,2.196,1.043,1.948,2.401l-1.025,5.717l-54.282-2.846v12.408l124.031,6.495V53.538z"/>
<path fill="#00A2DF" d="M224.652,65.047L175.6,67.619c-1.487,0.077-2.717,1.162-2.974,2.624l-11.725,66.502h9.836
	c1.546,0,2.871-1.111,3.136-2.641l7.084-40.541l30.5-1.547l-0.787,4.469c-0.188,1.077-1.197,2.076-2.649,2.162l-23.962,1.427
	l-1.769,10.015l23.97-1.376c1.06-0.06,2.094,0.88,1.889,2.094l-1.889,10.673h12.408l9.289-52.701
	C228.31,66.765,226.694,64.936,224.652,65.047 M184.975,83.42c-1.051,0.06-2.077-0.923-1.872-2.128l0.727-4.162l28.252-1.436
	c1.051-0.06,2.094,0.88,1.888,2.085l-0.735,4.162L184.975,83.42z"/>
<path fill="#221815" d="M415.077,70.461l23.167,1.214V63.36c0-2.264-1.769-4.136-4.034-4.247l-23.167-1.213v8.315
	C411.043,68.479,412.82,70.342,415.077,70.461"/>
<path d="M452.24,68.953l-41.19,44.172l15.04-0.786c2.017-0.103,3.914-0.991,5.29-2.47l39.831-42.711l-12.861-0.675
	C456.051,66.364,453.812,67.27,452.24,68.953"/>
<path d="M641.262,72.274l-4.948-0.248l-30.738-1.538v7.084c0,2.264,1.778,4.136,4.033,4.247l26.705,1.333l8.99,0.453v-7.084
	C645.304,74.257,643.526,72.385,641.262,72.274"/>
<path d="M259.378,75.1c-12.271,0-20.928,9.494-20.928,18.783c0,6.965,4.281,11.733,9.049,11.733c5.401,0,10.904-9.981,13.331-25.312
	c6.717,0.684,9.836,4.922,9.836,10.614c0,6.52-4.136,11.879-15.673,14.357l3.7,4.82c13.434-2.974,18.493-11.289,18.493-19.176
	C277.187,82.355,271.103,75.1,259.378,75.1 M247.013,98.899c-1.214,0-2.726-1.803-2.726-5.401c0-5.649,4.281-10.853,10.22-12.605
	C252.32,93.353,248.713,98.899,247.013,98.899"/>
<path d="M706.797,75.966c-2.094-0.111-4.128,0.709-5.555,2.247l-26.184,28.072c-1.82,1.948-4.153,1.102-4.153-1.649V56.081
	c0-2.264-1.76-4.128-4.017-4.247l-8.665-0.479v57.29c0,2.436,2.042,4.376,4.478,4.247l21.859-1.145
	c1.838-0.094,3.555-0.897,4.812-2.247L720,76.659L706.797,75.966z"/>
<path fill="#00A2DF" d="M137.778,62.232l-25.552-1.342c-1.222-0.06-2.196-1.034-1.957-2.393l0.82-4.649l15.553,0.82v-9.922
	l-13.827-0.726l0.991-5.597c0.188-1.077,1.265-2.043,2.684-2.119l28.363-1.487l0.043-9.033c0.009-1.829-1.521-3.298-3.358-3.196
	l-16.082,0.837c-1.923,0.102-2.419-1.094-2.162-2.547l1.905-10.802L112.91,9.428l-2.247,12.75c-0.188,1.077-1.239,2.094-2.666,2.162
	l-21.62,1.137v12.4l15.263-0.795l-0.709,4.051c-0.197,1.077-1.239,2.196-2.666,2.128l-5.803-0.308v9.922l3.982,0.214
	c1.222,0.06,2.188,1.042,1.949,2.401l-0.812,4.632l-15.314-0.795l0.06,12.4l13.083,0.692l-9.033,51.265h9.733
	c1.547,0,2.871-1.111,3.136-2.641l8.136-46.18c0.248-1.35,1.23-1.769,2.486-1.692l30.935,1.623v-9.374
	C140.803,63.719,139.47,62.317,137.778,62.232"/>
<polygon fill="#00A2DF" points="107.659,20.561 104.71,3.846 92.191,3.196 95.37,21.202 "/>
<path fill="#00A2DF" d="M79.953,85.342l-2.367,0.12c-1.598,0.085-2.632-1.385-2.359-2.905l3.897-21.86l-0.12,0.009v-0.009
	l-24.551,1.282c-1.751,0.111-2.452-1.119-2.222-2.461l1.163-6.58l19.202-1.008c1.479-0.077,2.718-1.171,2.974-2.632l7.58-42.993
	c0.333-1.889-1.06-3.641-2.974-3.743l-41.19-2.153v12.4l6.785,0.359c1.06,0.051,2.068,0.889,1.854,2.094l-0.641,3.683
	c-0.188,1.025-0.863,2.23-2.401,2.136l-5.598-0.282v9.922l3.658,0.188c1.051,0.051,2.094,0.863,1.863,2.068l-1.427,8.101L0,43.331
	v12.4l40.874-2.136L28.841,121.9h9.725c1.547,0,2.871-1.111,3.145-2.641l3.427-19.45c0.291-1.675,1.504-2.786,3.692-2.923
	l32.858-1.718L79.953,85.342z M69.57,14.413c1.059,0.051,2.076,0.889,1.863,2.102l-0.632,3.632
	c-0.179,1.025-0.872,2.222-2.393,2.145c-0.008,0-9.528-0.487-9.528-0.487s1-5.64,1-5.649c0.248-1.282,1.085-2.205,2.436-2.128
	L69.57,14.413z M57.145,31.641l9.409,0.479c1.008,0.051,1.965,1,1.778,2.059l-0.624,3.598c-0.179,1.025-0.829,2.051-2.376,2.128
	l-7.384,0.393c-1.478,0.077-2.119-1.171-1.931-2.265L57.145,31.641z M58.487,86.461c-1.555,0.077-2.393-1.367-2.555-2.264
	l-1.778-9.93c-0.231-1.265,0.316-2.367,1.948-2.453l11.169-0.581l-2.624,14.912L58.487,86.461z"/>
<path d="M529.353,54.375l-56.358-3.025v8.323c0,2.264,1.769,4.128,4.025,4.247l33.567,1.761c3.265,0.154,3.666,3.205,2.307,4.657
	l-39.899,42.788l15.031-0.786c2.025-0.102,3.923-0.991,5.299-2.47l40.027-42.925l0.026-8.315
	C533.386,56.366,531.617,54.494,529.353,54.375"/>
<path d="M592.107,69.78l-53.513-2.837v7.759c0,1.889,1.478,3.444,3.358,3.538l31.473,1.649c2.23,0.102,2.837,2.136,1.453,3.623
	l-4.554,4.888c-1.53,1.632-3.29,2.324-5.674,2.145l-1.957-0.102c-1.778-0.094-3.512,0.607-4.726,1.914l-19.373,20.766l15.758-0.82
	c1.555-0.086,3.025-0.769,4.093-1.906l14.622-15.69c1.88-2.008,4.127-3.529,7.571-3.342l4.033,0.197l10.793-11.571v-6.674
	C595.465,71.438,593.987,69.883,592.107,69.78"/>
<polygon fill="#00A2DF" points="282.52,24.307 288.527,24.623 288.527,26.204 284.434,25.991 284.434,28.153 288.125,28.349 
	288.125,29.93 284.434,29.742 284.434,33.494 282.52,33.391 "/>
<path fill="#00A2DF" d="M290.004,31.876c0-1.521,1.205-1.906,2.547-1.957c1.188-0.06,1.649-0.094,1.649-0.53v-0.026
	c0-0.555-0.368-0.897-1.009-0.931c-0.675-0.043-1.077,0.273-1.205,0.718l-1.751-0.231c0.264-1.23,1.341-1.957,2.965-1.871
	c1.513,0.077,2.889,0.837,2.889,2.461v4.589l-1.786-0.094v-0.94h-0.051c-0.333,0.615-0.983,1.017-1.991,0.966
	C290.961,33.961,290.004,33.226,290.004,31.876 M294.217,31.568v-0.726c-0.222,0.145-0.898,0.205-1.316,0.239
	c-0.658,0.06-1.094,0.299-1.094,0.829c0,0.521,0.41,0.812,0.992,0.846C293.627,32.799,294.217,32.286,294.217,31.568"/>
<path fill="#00A2DF" d="M300.067,34.309l-1.889-0.102v-6.811l1.803,0.094v1.205l0.077,0.009c0.308-0.778,1.034-1.239,2.043-1.188
	c1.419,0.077,2.35,1.102,2.35,2.683v4.341l-1.888-0.102v-3.999c0.008-0.829-0.453-1.35-1.205-1.393
	c-0.76-0.034-1.29,0.453-1.29,1.325V34.309z"/>
<path fill="#00A2DF" d="M310.219,29.449l-1.35-0.068v5.392l-1.889-0.102v-5.392l-0.957-0.051v-1.419l0.957,0.051v-0.487
	c0-1.487,0.949-2.162,2.23-2.094c0.581,0.034,1.103,0.171,1.333,0.256l-0.333,1.401c-0.145-0.051-0.376-0.111-0.607-0.128
	c-0.547-0.026-0.735,0.231-0.735,0.692v0.462l1.35,0.068V29.449z"/>
<path fill="#00A2DF" d="M311.429,32.999c0-1.521,1.205-1.906,2.555-1.957c1.179-0.06,1.641-0.094,1.641-0.53v-0.026
	c0-0.555-0.359-0.897-1.009-0.931c-0.675-0.043-1.077,0.273-1.205,0.718l-1.743-0.231c0.256-1.23,1.324-1.957,2.957-1.871
	c1.521,0.077,2.889,0.837,2.889,2.461v4.589l-1.786-0.094v-0.94l-0.051-0.009c-0.333,0.624-0.983,1.025-1.991,0.974
	C312.387,35.084,311.429,34.349,311.429,32.999 M315.643,32.691v-0.726c-0.222,0.145-0.898,0.205-1.308,0.239
	c-0.667,0.06-1.103,0.299-1.103,0.829c0,0.521,0.41,0.812,0.992,0.846C315.053,33.922,315.643,33.409,315.643,32.691"/>
<path fill="#00A2DF" d="M319.608,28.522l1.829,0.094v1.188l0.068,0.008c0.248-0.829,0.872-1.239,1.64-1.205
	c0.188,0.017,0.419,0.051,0.59,0.102v1.675c-0.179-0.068-0.538-0.128-0.795-0.145c-0.837-0.043-1.444,0.504-1.444,1.342v3.854
	l-1.888-0.102V28.522z"/>
<path fill="#00A2DF" d="M324.739,32.226c0-2.102,1.29-3.453,3.298-3.35c1.794,0.094,3.196,1.307,3.196,3.623v0.521l-4.632-0.239
	c0,1.017,0.598,1.675,1.538,1.726c0.633,0.026,1.12-0.214,1.308-0.726l1.743,0.205c-0.264,1.256-1.401,2.017-3.085,1.923
	C326.012,35.807,324.739,34.388,324.739,32.226 M329.456,31.756c-0.009-0.812-0.573-1.427-1.393-1.47
	c-0.838-0.043-1.427,0.547-1.461,1.325L329.456,31.756z"/>
<path fill="#00A2DF" d="M336.33,32.829c0-2.111,1.282-3.452,3.35-3.341c2.06,0.102,3.35,1.581,3.35,3.691
	c0,2.102-1.29,3.453-3.35,3.342C337.612,36.41,336.33,34.931,336.33,32.829 M341.108,33.068c0-1.188-0.487-2.094-1.419-2.136
	c-0.957-0.051-1.444,0.795-1.444,1.983c0,1.196,0.487,2.094,1.444,2.145C340.62,35.102,341.108,34.256,341.108,33.068"/>
<path fill="#00A2DF" d="M348.538,31.457l-1.35-0.068v5.392l-1.889-0.102v-5.392l-0.957-0.051v-1.419l0.957,0.051v-0.487
	c0-1.487,0.957-2.162,2.239-2.094c0.572,0.034,1.094,0.171,1.324,0.256l-0.333,1.401c-0.145-0.051-0.376-0.111-0.598-0.128
	c-0.555-0.026-0.743,0.231-0.743,0.692v0.462l1.35,0.068V31.457z"/>
<path fill="#00A2DF" d="M353.373,37.105l3.136-8.921l2.47,0.128l3.128,9.246l-2.06-0.102l-0.675-2.111l-3.265-0.171l-0.675,2.042
	L353.373,37.105z M358.893,33.823l-1.12-3.495h-0.068l-1.119,3.376L358.893,33.823z"/>
<path fill="#00A2DF" d="M363.213,34.224c0-2.341,1.265-3.435,2.752-3.358c1.137,0.06,1.684,0.761,1.94,1.333h0.052v-3.41
	l1.888,0.094v9.084l-1.863-0.094V36.78l-0.077-0.009c-0.265,0.555-0.837,1.162-1.931,1.102
	C364.418,37.796,363.213,36.497,363.213,34.224 M367.999,34.464c0-1.213-0.513-2.017-1.428-2.068
	c-0.94-0.043-1.435,0.735-1.435,1.914c0,1.196,0.504,2.042,1.435,2.094C367.477,36.446,367.999,35.677,367.999,34.464"/>
<path fill="#00A2DF" d="M371.739,34.685c0-2.111,1.282-3.452,3.35-3.341c2.06,0.102,3.342,1.581,3.342,3.691
	c0,2.102-1.282,3.444-3.342,3.342C373.021,38.266,371.739,36.787,371.739,34.685 M376.516,34.924c0-1.188-0.487-2.094-1.419-2.145
	c-0.957-0.043-1.444,0.803-1.444,1.991c0,1.188,0.487,2.094,1.444,2.145C376.029,36.958,376.516,36.112,376.516,34.924"/>
<polygon fill="#00A2DF" points="382.178,38.612 380.289,38.51 380.289,29.435 382.178,29.529 "/>
<path fill="#00A2DF" d="M384.036,35.335c0-2.102,1.29-3.461,3.298-3.35c1.794,0.094,3.196,1.307,3.196,3.623v0.521l-4.632-0.239
	c0,1.017,0.598,1.675,1.538,1.718c0.633,0.034,1.12-0.205,1.308-0.718l1.743,0.205c-0.264,1.256-1.401,2.017-3.085,1.923
	C385.309,38.907,384.036,37.497,384.036,35.335 M388.753,34.864c-0.009-0.812-0.573-1.427-1.393-1.47
	c-0.838-0.043-1.427,0.547-1.461,1.316L388.753,34.864z"/>
<path fill="#00A2DF" d="M396.318,34.592c-0.094-0.444-0.487-0.82-1.137-0.854c-0.589-0.034-1.051,0.205-1.042,0.615
	c-0.009,0.325,0.231,0.555,0.863,0.726l1.231,0.316c1.324,0.342,1.957,0.965,1.965,1.948c-0.008,1.342-1.265,2.179-3.025,2.085
	c-1.803-0.094-2.914-0.957-3.094-2.273h1.863c0.111,0.564,0.555,0.872,1.23,0.914c0.658,0.034,1.103-0.231,1.111-0.641
	c-0.008-0.342-0.282-0.572-0.872-0.718l-1.179-0.299c-1.333-0.333-1.974-1.034-1.966-2.051c-0.008-1.316,1.137-2.059,2.88-1.966
	c1.718,0.086,2.726,0.914,2.897,2.179L396.318,34.592z"/>
<path fill="#00A2DF" d="M399.741,36.155c0-2.085,1.273-3.452,3.341-3.35c1.778,0.094,2.965,1.197,3.042,2.769l-1.778-0.094
	c-0.102-0.684-0.547-1.162-1.239-1.197c-0.872-0.043-1.444,0.658-1.444,1.948c0,1.299,0.564,2.068,1.444,2.119
	c0.649,0.034,1.128-0.351,1.239-1.068l1.778,0.086c-0.085,1.564-1.222,2.572-3.034,2.47
	C400.997,39.735,399.741,38.223,399.741,36.155"/>
<path fill="#00A2DF" d="M407.695,36.574c0-2.102,1.29-3.453,3.298-3.35c1.794,0.094,3.196,1.307,3.196,3.623v0.521l-4.632-0.239
	c0,1.017,0.598,1.675,1.538,1.718c0.633,0.034,1.12-0.205,1.308-0.718l1.743,0.205c-0.264,1.256-1.401,2.017-3.076,1.923
	C408.968,40.146,407.695,38.736,407.695,36.574 M412.412,36.104c-0.009-0.812-0.573-1.427-1.393-1.47
	c-0.838-0.043-1.419,0.547-1.461,1.316L412.412,36.104z"/>
<path fill="#00A2DF" d="M417.93,40.487l-1.889-0.102v-6.811l1.803,0.094v1.205h0.077c0.308-0.769,1.034-1.231,2.043-1.179
	c1.419,0.077,2.35,1.094,2.35,2.683v4.341l-1.888-0.102v-3.999c0.008-0.829-0.453-1.35-1.205-1.393
	c-0.76-0.034-1.29,0.453-1.29,1.325V40.487z"/>
<path fill="#00A2DF" d="M424.149,37.433c0-2.085,1.273-3.452,3.341-3.35c1.778,0.094,2.965,1.197,3.042,2.769l-1.778-0.094
	c-0.102-0.684-0.547-1.162-1.239-1.197c-0.872-0.043-1.453,0.658-1.453,1.948c0,1.299,0.572,2.068,1.453,2.119
	c0.649,0.034,1.128-0.351,1.239-1.068l1.778,0.094c-0.085,1.555-1.222,2.564-3.034,2.461
	C425.405,41.014,424.149,39.501,424.149,37.433"/>
<path fill="#00A2DF" d="M432.103,37.854c0-2.102,1.29-3.461,3.298-3.35c1.794,0.094,3.196,1.307,3.196,3.623v0.521l-4.632-0.239
	c0,1.017,0.598,1.675,1.538,1.726c0.633,0.026,1.12-0.214,1.308-0.726l1.743,0.205c-0.264,1.256-1.401,2.017-3.085,1.923
	C433.376,41.434,432.103,40.016,432.103,37.854 M436.82,37.384c-0.009-0.812-0.573-1.427-1.393-1.47
	c-0.838-0.043-1.427,0.547-1.461,1.316L436.82,37.384z"/>
</svg>
