<?xml version="1.0" encoding="utf-8"?>
<!-- Generator: Adobe Illustrator 27.0.1, SVG Export Plug-In . SVG Version: 6.00 Build 0)  -->
<svg version="1.1" id="레이어_1" xmlns="http://www.w3.org/2000/svg" xmlns:xlink="http://www.w3.org/1999/xlink" x="0px"
	 y="0px" viewBox="0 0 720 440.8" enable-background="new 0 0 720 440.8" xml:space="preserve">
<path d="M522.497,258.462c2.453-2.209,4.441-4.417,2.404-7.853l-0.171-0.981c1.08-3.927,1.841-7.853,3.876-11.289l4.467-6.135
	l2.626-4.663l1.032-1.227l1.914-1.718c0.834-2.454,2.674-3.19,4.736-4.172l4.588-2.454l5.13-2.454
	c2.257-1.227,4.467-2.454,6.773-3.436l5.668-1.963c2.798-0.736,5.596-1.718,8.394-2.454l4.122-1.227l5.645-1.227l3.902-0.736
	l4.613-0.736c3.141,0.246,5.939-1.227,8.933-1.472c2.749-0.245,5.521-0.491,8.27-0.981c3.24-0.491,6.7-0.246,9.669-1.473
	c5.326-2.209,10.701-1.717,16.148-1.963l4.467-0.982l5.055-0.736l4.197-0.491l1.005,0.246l0.295,3.19l-1.791,1.718l-0.491,1.964
	c-0.539,2.209-0.196,4.417,1.448,6.135l2.356,0.736c2.527-0.246,5.03-0.736,7.558-0.982c2.479-0.491,4.958-0.982,7.435-1.227
	l0.319,0.245l-1.251,0.736l0.147,0.246l2.134,0.491l-0.662,2.7h-0.515l-0.392-0.736l-0.515-0.736l-0.589,0.736l-1.129,5.399
	l-0.957,0.981l-5.055,2.7l-1.056,1.472l0.442,0.491l2.332-0.981l1.914,0.981c0.22,2.209-0.491,2.946-2.847,3.682l-1.619,1.227
	l-1.031,1.227l-3.117,1.472l-0.884,1.964l-0.957,1.718c-3.68,1.472-7.386,2.699-11.044,4.171
	c-5.545,2.209-11.068,4.417-16.565,6.871c-5.424,2.209-10.798,4.417-16.196,6.626c-5.227,2.209-10.136,4.908-14.725,8.344
	l-1.962,1.963l-1.056,0.736l-2.969,1.227l-1.399,2.453l-0.86,2.454l-0.073,0.982c2.626,0.491,2.798,0.736,1.865,3.19l1.694,1.963
	l2.576-1.227l1.08-0.736l4.835-0.736l1.227-1.227l3.214-1.717l2.38-0.982c2.725-0.736,5.154-1.718,7.584-1.718
	s4.221-0.982,6.258-1.963l5.35-1.227l4.54-1.472c2.699-1.227,5.374-2.454,8.123-3.435l4.197-0.982l5.325-1.718
	c3.411-1.227,6.748-2.699,10.184-3.927c2.822-1.227,5.719-1.963,8.614-2.945l5.006-1.227c2.97-0.736,5.204-2.945,7.879-4.172
	l2.527-0.736l1.817-0.246h2.846l4.786-0.491c3.166-2.209,5.178-0.491,5.202,2.945l0.983-0.245l1.841-2.209l2.674-0.491l-0.048,3.681
	l-0.737,1.718l1.619,0.246l2.455-0.491h9.35c2.233,0.246,4.516-0.245,7.019-0.491l1.104,4.417l-0.22,0.736
	c-2.307,3.19-4.736,6.135-6.872,9.326l-0.735,3.927l-0.638,2.945l-1.227,1.964c2.699-0.246,5.153-0.491,7.778-0.736l-2.037,3.19
	l-4.564,2.209l-1.031,1.472c-1.056,1.963-2.013,4.172-4.712,4.908l-1.693,0.982l-0.025,1.227l-0.539,4.663l0.27,1.228l-0.024,2.209
	l-2.994,1.718l-0.884,0.491l-4.982,0.736l-3.313,2.209l-4.613,4.663c-2.822,2.699-5.669,5.153-8.491,7.853l-3.165,2.945
	c-4.417,4.417-8.86,8.589-13.277,12.761l-0.81,0.491c-3.068-0.246-4.564,2.209-6.625,3.926c-2.308,1.473-4.639,3.19-6.946,4.908
	l-2.945,2.209c-3.387,2.209-6.799,4.663-10.16,6.871c-3.363,2.454-6.676,4.908-10.013,7.363l-5.693,3.927l-3.165,2.945l-5.13,5.399
	c-3.141,3.435-6.233,6.871-9.522,10.062c-5.374,5.153-10.921,10.307-16.368,15.46l-1.619,2.7c-2.086,0.491-3.656,2.454-4.001,4.908
	l-0.539,0.982l-5.915,4.663c-2.11,1.964-4.195,3.681-6.552,5.153l-3.608,3.436c-3.018,2.699-6.159,4.908-9.227,7.362l-4.491,3.681
	c-2.725,1.964-5.497,3.927-8.222,5.89l-0.688,0.736c-1.914,2.209-4.393,3.681-6.823,5.399l-3.042,2.209l-5.497,4.908l-5.105,0.981
	l-3.068-0.491l-3.018-0.246c-3.878-0.491-7.78-0.736-11.658-1.227l-4.883-0.736l1.496-3.19l0.148-3.927l-0.123-0.736l1.104-3.19
	c0.711-3.435,1.546-6.871,4.564-9.326c2.382-1.717,4.884-3.435,7.314-5.153l2.921-3.927l0.834-0.491l4.81-2.7l3.018-2.453v-1.718
	h1.595l2.037-1.227l0.172-0.981c2.749-0.491,2.552-4.172,5.251-4.663h0.908l4.245,3.681h1.817l2.257-0.736l4.197-2.454l0.319-0.491
	c-0.27-2.454,3.042-2.7,3.361-4.663l0.295-0.246c2.184-0.982,4.344-1.963,6.553-2.945l2.919-0.736l1.498-0.982l3.68-2.209
	l2.16-1.472l4.859-3.19l3.485-1.718l3.656-3.435c2.798-2.209,5.693-4.417,8.491-6.626c4.515-3.436,9.031-6.872,13.473-10.553
	c3.411-2.699,6.698-5.644,10.085-8.344l2.259-1.472l2.675-3.435l2.208-2.946c4.762-4.171,9.252-8.589,12.811-13.988
	c3.361-4.908,5.767-10.307,6.969-15.952c0.539-2.699,0.073-5.644,0.073-8.344c-2.651,0-4.908-0.245-7.191,0l-0.884,0.736
	l-4.025,1.718l-4.76,1.964l-1.645,2.453l-2.723,2.7l-5.645,1.227l-4.245,0.736l-2.749,2.7l5.301-0.982
	c2.822-0.736,5.57-1.718,8.392-2.209h3.436l-0.466,0.736c-2.97,1.718-5.842,3.681-9.375,4.417c-2.283,0.491-4.491,0.246-6.7,0.491
	h-0.688l-1.841-0.246l-1.619,3.19l-2.895,0.981l-1.914-0.245c-3.436-1.964-7.116-2.454-11.117-2.454
	c-2.406,0.246-4.883-0.736-7.338-1.227h-1.007l-2.453-1.964c3.337,0.491,6.65,0.982,9.938,1.472v-0.245
	c-4.318-1.718-8.613-3.436-12.932-5.154l0.319-0.245l-1.767-2.209l-3.484,0.982l-1.522,0.736l-0.565-1.718l-1.324-2.209
	l-0.467-1.963l0.368-0.736l-3.214-1.228l-0.025-1.472l0.467-0.736l1.619-1.472l1.399-2.454l0.22-1.963l0.688-1.963l-1.595-0.246
	l-0.884-0.736l-1.227-4.417l0.246-2.209l3.706-1.472l0.662,1.472l2.136,1.227l1.104-0.491l1.153-0.246l-1.595-2.7l-0.957-1.472
	l-1.496,0.736l0.589-1.963l1.423-2.945c0.345-2.454,0.711-2.945,3.068-3.19l1.448-0.982l-1.472-1.227h-0.688
	c-2.725,0-5.374-0.491-7.951-1.228h-1.007c-2.307,0.736-3.656-1.227-5.473-1.963l-0.638-1.472l-1.57,0.982l-6.038,1.227l-1.57-0.491
	l-2.504-0.246l-4.073,3.19l-2.16,0.245l0.735-1.717l0.345-0.736l0.024-4.908C530.717,265.088,525.614,263.861,522.497,258.462
	 M646.33,205.945l-3.19,1.964l0.392,1.227C644.979,209.872,646.477,208.399,646.33,205.945z"/>
<path d="M150.582,177.233c1.276-2.945-2.11-3.19-2.576-5.399l-0.933,0.246l-3.018-0.246l-2.602-2.209l-2.871-3.435l-1.865-0.246
	l-3.044-0.246l-2.6-1.963l-0.884-1.227l1.374-0.736l1.645-0.736l0.024-1.472l-1.201-0.491l-4.835,0.982l0.614-2.7l0.27-2.454
	l-1.718-1.227l-1.375-1.718l-0.834-0.982l-0.563,0.246v3.19l-1.94,1.227l-2.356-2.209l-1.693-2.945H116.2l-3.288,1.227l-0.418-0.491
	l0.565-1.963l0.196-1.718l0.688-4.417l0.024-0.491l-5.35-1.717l-1.643,0.491l-1.522,0.246l-0.319-1.472
	c0.638-3.19,0.246-6.381-0.541-9.571l-0.319-0.736l-0.196-5.153l0.442-0.982l0.737-6.135l1.374-3.681l0.834-1.718l0.59-0.982
	l1.742-2.453c-0.246-3.682,1.693-6.381,2.503-9.571c0.662-2.699,1.496-5.399,2.38-8.098l1.988-4.908l1.056-3.092l2.356-2.43
	l4.221-5.424c-0.025-2.233,1.153-3.828,2.356-5.497c2.43,2.871,5.055,1.129,7.608,0.295l0.147,0.54l-1.472,1.767l0.22,0.417
	l2.307-0.932l3.265,0.417l1.177-0.074c0.392-2.503,2.257-3.607,4.171-4.711c2.43-1.374,4.908-2.699,7.314-4.123l6.282-3.951
	c4.613-2.993,9.252-6.012,13.866-9.007l6.086-4l1.619-0.368l1.498,2.478l0.147,1.35l1.498,5.129
	c0.515,2.724,0.809,5.472,1.177,8.221l0.27,3.338l-0.515,0.073l-1.054-3.902l-0.541,0.049l0.761,5.104l1.153,1.693l-1.669,1.669
	c-2.087,2.135-2.061,2.135-1.693,4.663c-3.02,0.589-4.736,2.406-5.669,6.209l-2.994-0.761l0.957,1.153l1.619,2.209l-1.496,2.479
	l-2.453,0.981l2.085,3.19l-0.049,1.472l-3.411,2.209l-2.38,1.718l-0.589,2.945l-0.319,0.736l-1.67,1.472l0.737,3.436
	c-0.515,2.454-0.957,4.417-1.496,6.626c-0.515,1.964-1.179,3.927-1.841,6.381h2.257c1.007-2.699,2.086-5.153,4.197-7.117
	c-0.761,2.7,0.662,5.645-1.252,8.344v3.927c1.326,3.436,3.656,6.135,5.842,9.08c1.643,2.209,3.092,4.663,4.588,6.872l3.24,5.153
	l3.632,1.472l-0.024-3.927l2.085-1.472c2.061,0.491,3.141-0.491,2.921-2.945l-3.46,0.736v-2.7l2.846-0.491l3.068-2.7l1.865-1.963
	v-2.454h-3.902l-2.503,2.945l-3.214-0.736h-1.791L179,129.379l0.294-2.209l1.645-4.663h-0.711l-0.86-1.718l-0.589-3.19l0.711-1.963
	l1.498-1.473l-0.099-1.717l-0.761-1.964l1.399-5.153l0.957-5.645l2.209-1.963c1.3-3.19,3.042-6.135,5.693-8.099l4.025-3.435
	l1.227-2.65l2.895-4.368l1.547-1.546l1.717-0.908c2.382-1.473,4.762-2.969,7.142-4.442l2.895-2.725l-0.121-2.528l-0.418-2.209
	l0.123-5.178c-0.565-2.479-0.614-4.81,0-7.289l0.147-4.221l-0.858-4.736l0.662,0.122l1.104-1.742l0.834-0.957l0.295-0.148
	c1.007-3.166,3.608-1.914,5.669-2.061l2.846,0.172l4.098,4.859l0.737,0.957c2.798,0.319,2.921,2.724,3.607,4.614
	c1.056,2.92,1.914,5.914,2.871,8.884l0.295,0.736l2.725,1.227l2.699,0.148l2.749,0.368l1.472-0.221l3.632-0.368l0.761-0.172
	l4.786-0.834l1.865-0.025l1.496,0.319l1.767-0.613l3.656-0.638l1.89,0.491l1.251,0.638l0.246-1.816l4.786,0.932l0.638-0.025
	l3.264,0.515l2.65,1.841l3.755-0.515l3.093-0.049l4.073-0.932l1.276,0.172l1.571,0.761l5.35,0.344l-0.368,2.454l-1.031,0.834
	c-4.811,0.761-9.621,1.374-14.406,2.184c-3.557,0.589-7.092,1.399-10.626,2.135l-1.694,3.141l-1.227,1.866l-1.546,0.761
	l-2.012,3.656l-2.798,2.086c-2.209,0.884-3.878,2.356-4.859,4.467c-1.056,2.233-1.743,4.688-2.725,7.142l-1.889,3.19
	c-2.552,1.718-1.498,3.927-0.957,5.89c0.686,2.699,1.397,5.399,2.208,8.098c0.785,2.454,1.718,4.908,2.552,7.363
	c0.884,2.699,1.742,5.399,2.602,8.098l0.735,2.454l1.326,0.982c2.257,0.491,4.564,0.491,6.847,0.981l1.399,0.736l2.11,1.227
	c2.233,0.245,4.049,2.209,6.553,1.717l1.447,1.227l3.387,1.472l1.645,2.454l2.283,2.699l3.557,1.472l4.663,1.718l3.805,3.436
	l2.871,3.19l5.301,5.645l1.791,2.209c-8.59,1.718-16.737,3.19-24.737,5.399l0.123,0.736h1.399l-1.817,0.736l-4.393-2.209
	l-1.177-0.246l-0.466,2.209l-3.289,2.945l-1.326,0.981l-2.895,1.472l1.007,3.436l-1.546,5.645c-2.994,1.472-6.012,2.699-8.933,3.927
	l-1.007,2.209l0.172,1.472l-0.785,1.963l-1.89-1.227l-0.196-1.227l-0.418-1.717c-3.165-0.982-6.159-2.946-9.693-2.209l-1.964,1.227
	l1.938,1.472l2.063,2.454l-1.032-0.491c-4.515,0.491-8.49-2.699-13.153-1.963l-6.038-1.472h-3.607l-0.957-0.246
	c-0.983-2.699-3.656-2.454-5.62-3.19l-1.89,1.227l0.025,0.736c-2.774-1.472-5.547-2.945-8.321-4.417l-0.908-0.491
	c-1.496-0.982-3.387-1.227-3.411-3.681l-1.129-0.736h-2.233l-2.871,0.982l-0.957-5.154l-3.46-1.963l-0.368,0.491l0.198,1.227
	l-0.909,3.19l-0.711,1.227l-1.153,0.982c-0.368-2.7-0.711-5.154-1.031-7.363h-0.539c-1.179,2.7,0.466,5.399,0.416,8.099
	c-0.073,2.699,0.222,5.644-0.147,8.344c-0.392,2.699,0.294,5.153,0,8.098h-2.651l-1.447-1.472l-1.031-0.736l-1.228-1.227
	l-0.662-1.718l-3.068,0.982l-0.295,1.472h-3.116c-0.418-2.454-1.718-3.681-4.124-3.927h-3.852c-2.994-0.491-6.111-0.736-8.59-3.19
	C154.999,178.951,153.699,176.742,150.582,177.233 M226.683,126.188l-0.737-5.399l-1.324-4.663l-2.209-2.209
	c-3.46-1.227-6.577,0-9.276,2.209l-3.337,1.718l-1.694,0.981l-1.865,1.718c-1.153,2.209,0.024,5.645-4.001,6.381l-1.324,2.699
	c3.189-0.736,6.012-1.227,8.809-1.717l0.565,1.963l4.124,1.472l4.711-1.472l4.369-1.472L226.683,126.188z M226.29,147.539
	l-2.406,0.491c-6.7,0.491-8.711,8.589-6.478,12.762l-0.786,1.717l-1.153,0.982l1.326,0.736l2.749,0.246l3.779,0.982l3.117,0.245
	l3.926-3.19l5.301-4.662c2.209-1.718,3.141-3.927,1.472-6.135l-5.349-3.682L226.29,147.539z M247.763,105.819l-0.394,0.491
	c1.155,2.699,1.032,5.89,3.559,8.098l-0.416-2.209l-1.743-5.645L247.763,105.819z M180.889,57.425l0.761-0.073l-0.858-5.62
	l-0.664,0.073L180.889,57.425z M205.356,131.832l0.196,0.491c3.044,0.491,3.805,0,3.412-1.964L205.356,131.832z M247.934,104.838
	l-1.742-4.172l0.147,1.718L247.934,104.838z M221.873,132.568v-1.963h-2.209l-0.172,1.718L221.873,132.568z"/>
<path d="M402.223,4.883c0.048-2.847,0.735-3.926,3.361-4.883l1.498,0.319l1.865,0.441l3.557,0.933l0.196,0.613l3.731,1.718
	l1.914,2.528l1.35,1.251l2.453,1.031l2.725,0.81l2.699-0.883l1.08,1.276l-1.054,4.884c-1.694,4.147-3.584,8.196-5.424,12.294
	l-1.399,2.65l-0.27,1.105c0.957,3.166-0.884,5.546-2.11,8.123l-2.455,5.522l1.08,1.939l1.546,0.785l3.337-5.914l1.694-0.859
	c2.331,0.491,3.313-0.663,3.117-3.068l1.595-5.399c2.037-2.895,4.195-5.693,6.355-8.491l1.179-0.466l3.435-0.049l1.153-0.392
	l4.344-1.669l2.037-1.203l2.283-0.172l3.018,1.006V25.4c1.056,1.129,1.498,1.031,2.259-1.301l0.613,0.123l1.865,0.54l2.332-2.087
	l0.024-0.761l0.491-3.509l-1.914,0.564l-0.246-0.54l2.479-5.767c1.964-1.988,3.607-2.479,5.963-1.276l2.675,1.007l2.552,2.43
	l0.589,5.202c-0.442,2.749-2.675,3.951-5.202,4.442l-1.841,2.283l-0.246,2.773l2.675,0.662l0.589,3.019l0.368,2.307l-5.154,6.381
	l-2.576,2.674l-5.62,6.331l-4.687,5.89c-2.136,1.718-4.074,3.239-4.344,6.16l-0.957,0.638l-1.129,2.895l0.834,2.896l-0.368,1.031
	l-3.068,3.141l-4.441,1.645l-5.988,0.098l-2.846-0.025l-4.246,0.932l-1.815,0.467c-2.503-1.276-4.932-2.724-7.387-4.123
	l-0.688-0.638l0.638-5.326l-0.048-2.38l-0.271-0.589c0.418-2.38-1.128-2.11-2.749-2.405c-2.576-0.467-3.508,1.055-4.54,2.773
	l-1.201,1.031l-0.196-1.816l0.563-2.405l-3.876-0.834c-2.406-0.049-3.044,0.982-2.209,3.214l0.099,0.81
	c-1.669,2.454,0.123,4.688,0.539,6.92c0.515,2.749,1.645,5.424,2.528,8.099l1.399,3.706c1.031,2.675,2.061,5.448,3.068,8.148
	c1.153,3.19,2.307,6.38,3.435,9.57c0.983,2.7,1.964,5.399,2.897,8.099l-2.087,1.472l0.908,3.681l1.302,0.246l2.158,0.981
	l1.228,2.946l1.177,4.172l0.343,1.718l-1.324-0.246l-1.767,3.436l1.374,1.963h0.222c2.479-2.209,2.527-2.209,4.27,0.736
	c1.595,2.7,3.387,5.154,4.491,8.099l3.092,5.399l0.099,2.699l-1.718-0.246l-3.337-4.908l-1.179-0.736l0.909,2.209l0.294,1.963
	l-0.711,4.908l-0.858,5.153l1.054,1.718l-1.129,2.454l-1.324,1.227c-3.902,0.491-5.277-3.19-7.485-5.644l-0.394,0.491l0.688,2.699
	l-4.76,0.491l0.858,3.927l-2.921-0.736l-3.926-2.946l-3.092-2.945l-1.645-2.209l-2.602-3.19l-4.589-4.417l-1.374,2.7l-0.981,1.963
	l-1.817,1.718c1.104,2.454-0.761,4.171-1.399,5.89l-0.22,1.227h1.177l2.037-0.736l-0.858,3.927l-4.443,0.491l-3.632,3.435
	c-2.43,1.472-4.883,2.945-7.362,4.417l-3.583,1.964l-2.822-1.472l-2.037-2.209c-5.743,1.717-11.878,3.19-18.013,4.908l-0.368-0.491
	l3.068-6.135l0.983-2.454l1.031-1.718l0.932-2.699l1.89-5.89c1.08-3.682,2.209-7.117,3.313-10.798h0.024l2.871-6.135l0.442-0.491
	c-0.735-2.699,1.056-4.663,2.136-6.871l-1.498-2.945l-5.547-1.472l0.099-1.963l-4.294-2.209l-3.485-1.472l-1.791,0.491l-0.319-1.227
	l1.227-1.717l-2.453-1.473l-2.38,0.982h-2.871c-1.669,1.472-1.817,3.927-2.626,6.381c-0.81,2.209-1.448,4.663-2.259,7.117
	c-1.914,5.399-2.773,11.289-4.54,16.933c-1.177,3.681-2.6,7.362-3.951,11.043l-2.307,5.399l-2.969,1.718l-0.541-0.246l0.319-3.435
	l-0.563-1.718l-1.914-3.681l-4.148-3.682l-2.479-5.153l-0.246-2.209l0.515-2.699l1.645-4.418c0.613-2.945,1.054-5.644,1.522-8.344
	l0.123-1.718l0.539-2.209l-0.147-4.908l-2.822-4.908l-2.406-0.246l-1.276-0.245l-2.945,0.245l-1.104,0.737l-0.59-1.964l-0.563-1.472
	l-1.645,0.246l-3.264-0.491l-4.098-1.472l-2.774-2.454c2.651,0.491,5.204,0.736,7.78,0.982l0.147-0.491l-3.779-0.982h-2.921
	l-1.153-0.246l-4.564-1.227l-3.926-0.982l-1.228-1.227l-1.447-1.718l-0.196-4.172l0.22-5.645l-1.177-1.964l0.49-1.227l2.528-0.982
	l1.546-2.945l0.246,0.491l2.798-0.246l-0.073-0.736l-2.504-0.098l0.786-3.902l-1.424-0.344l1.914-2.307l3.387-1.227l0.148-0.049
	c2.404,1.423,4.245-1.497,6.625-0.786l6.381,1.374l0.345,0.025c3.018,0.246,6.036,0.467,9.08,0.711l1.447,0.319l2.086-0.613
	l1.203-0.392l4.318-1.57l0.59-1.178l0.957-3.951l1.472-3.337l2.061-4.663l-0.099-2.798l0.884-2.724l5.374-1.448
	c3.214-1.007,6.43-2.062,9.621-3.166l1.889,0.564l2.701,0.613l2.38-0.638c0.662,4.172,1.276,8.049,1.841,11.951
	c0.416,2.798,0.613,5.62,1.128,8.393l1.595,2.798l0.664,1.398c-0.222,2.233-0.59,4.442-0.909,6.675
	c-0.882-0.221-2.233-1.079-2.11,1.105l4.688,1.227l0.024,1.964l0.541,1.963l3.042,2.7l2.895-0.246l1.498-0.982l2.527-0.736h1.056
	l3.926,0.982l-0.686-2.454l-0.025-2.454l-1.104-2.749c-2.037-1.3-3.387-3.068-3.632-5.595l-0.858-2.749l-0.418-1.914
	c1.08-2.993-0.319-5.816-0.908-8.54c-1.496-6.945-3.73-13.743-5.57-20.614l-0.834-4.761l-0.664-2.037
	c-0.858-3.068-1.693-6.11-2.527-9.178l-0.418-0.294l-0.147,3.289l-1.791-0.27l-0.933-5.227l2.479-1.669l1.718-2.674l4.736-0.074
	c1.203-1.35,0.957-3.902,3.486-4.785l0.294,1.251l0.467-0.049l-0.394-3.681l2.233-5.522l2.11,1.031l1.399,2.037
	c1.645-2.257,3.044-2.135,4.589,0.025l1.08,1.276l0.515-0.148l-0.295-2.576l3.559-1.693l2.283,2.847l0.294,0.957l0.123,6.601
	l1.645,5.571l1.496,3.411l2.897-5.742c1.153-2.675,1.964-5.497,3.19-8.148c1.595-3.461,4.417-6.111,6.306-9.399l4.025-1.522h1.718
	l-0.048,2.061l1.962,1.571V4.883H402.223"/>
<path d="M469.611,227.296l-2.921,2.453c-2.552,1.964-5.154,3.927-7.681,5.89l-1.669,1.718l-3.535,3.681l-1.447,1.717
	c2.356,0.982,4.467,1.964,6.454,3.19l1.964,2.454l-1.474,1.718c-2.551,2.454-5.153,4.908-7.681,7.362l-6.183,6.135
	c-3.339,3.19-6.922,5.89-10.259,9.08l-4.564,5.399l-0.345,2.209l-2.945,3.681l-0.613,0.981l-1.252,0.982l-0.737,0.491l-2.871,4.908
	l-1.005,1.964l-1.669,1.717c3.975,0.491,7.582,0.736,10.895,0.982l3.755,2.7l3.313,1.472l2.477,2.453l1.621,1.227l2.871,0.982
	l1.766,0.981l1.252,0.491c2.453,3.19,6.405,4.172,9.056,7.116c3.509,3.927,6.331,8.099,9.031,12.516l3.951,5.645l0.858,4.908
	l0.442,6.381l-0.123,1.227c0.073,3.436-0.662,7.117-1.988,10.553l-0.049,1.472c1.056,2.699-0.442,5.399-0.466,8.098h-3.117
	l0.344-0.491l-2.013-1.964l-3.387,0.736l0.983,5.645l-1.032,2.699l-2.331-0.981l-4.564,1.472l-2.136,2.699l-3.018-0.245
	l-3.559-1.228l-3.214-1.963l-2.895-0.982c-2.382-0.982-4.688-2.209-7.167-2.699l-4.491-2.454c-3.288-2.7-4.883-6.871-7.19-10.307
	c-2.356-3.435-4.369-7.362-6.528-11.043l-0.467-1.228l-2.404-3.19l-1.571-2.945l-2.356-2.945l-3.068-5.645l-1.177-1.717
	l-2.847,4.908c-1.693,2.945-3.411,6.135-4.932,9.326c-1.964,4.172-3.73,8.344-5.62,12.516l-1.399,2.209
	c-1.399,2.209-1.865,4.663-2.037,7.362l-0.761,1.227l-0.073,1.963l0.81,1.718l-2.257,5.399l-0.664,0.736l-1.865,4.172l-0.319,1.718
	c-0.246,2.454-0.246,4.663-0.785,6.871l-2.332,2.945l-2.796-0.736c-1.595-2.209-1.203-4.908-2.063-7.116l-0.466-1.472
	c-1.153,2.945,0.418,5.89-1.177,8.344l-2.528-4.418l-4.76,0.491l-0.345-0.491c-0.097-2.945-0.024-5.89-0.392-8.834l-1.89-3.436
	l-0.367-1.472c0.196-4.663-0.172-9.325,0.834-13.743c0.981-4.172,0.171-8.344,0.957-12.515c0.613-3.19-0.123-6.871,1.839-9.817
	l0.099-0.981l0.858-5.154l2.651-4.663h0.295c2.404,0.246,2.404-1.963,3.042-2.945l-1.153-2.209c2.503-0.491,3.632-1.963,4.712-3.927
	c1.423-2.209,3.264-4.417,4.956-6.626l3.462-4.172l3.803-3.19l3.902-4.418l5.35-4.908c1.522-2.209,3.656-3.681,5.693-5.154
	c3.73-2.699,7.657-5.399,11.289-8.344l3.607-4.417l1.522-1.718l0.884-4.417c-0.688-2.209-1.547-2.945-3.805-2.699
	c-4.613,0.245-8.884-0.982-13.227-2.209c-3.656-1.227-7.435-2.209-11.214-2.453l-6.185,1.717l-4.491,0.982h-5.596l-6.012,0.736
	l-4.81,0.246l-6.135,0.736l-5.031,0.246h-4.197l-1.766-2.209l1.669-3.19l1.399-1.718l-0.295-3.927h-6.43l-3.656,1.472l-2.723,0.246
	l-2.209-2.454l1.203-1.472l1.815-1.227l-1.324-1.963c-0.614-2.209-2.087-1.227-3.682-1.227l-4.564-3.19l-2.701-1.718l-0.638,0.246
	l0.933-2.454l0.884-3.436l1.177-1.963l-1.104-2.945l-1.252-3.19l-0.638-1.718l-5.129-3.19l-1.252-2.209l-0.097-1.963l0.147-0.982
	l2.994-3.681l2.184,0.491l0.589-1.963l-0.024-0.736c-0.416-2.7,0.466-3.681,3.411-3.436l0.246,1.472
	c2.455-0.736,3.24-3.681,1.129-5.153l-0.785-4.417h5.03l3.535-1.964h1.374l2.406,1.227l-1.153-3.681l-1.423,0.245l-1.571,0.246
	l-1.791-1.227l1.645-1.718l4.172,0.491l2.871,0.246c3.559,0,6.993,1.472,10.602,0.982h0.688c3.803-1.718,7.608,0,11.387,0
	c2.749,0,5.521,0.245,8.22,0.736c2.578,0.491,5.105,1.227,7.657,1.963h1.031c3.289,0.246,6.65,0.246,9.841,0.736
	c3.24,0.736,6.553,1.227,9.645,2.945c3.214,1.718,6.896,2.454,10.356,3.681l4.344,1.718l5.129,1.227l3.535,0.981l4.956,1.227
	l2.725,1.717l4.54,1.964l4.639,1.718l0.367,0.736l4.001,2.209l3.337,0.736l1.619,2.454l1.228,1.472
	c3.411,0.491,6.821,0.981,10.208,1.717l2.749,1.227l2.185,0.491l2.257,0.736L469.611,227.296 M408.628,255.026l0.048-0.491
	c-2.38-0.246-4.76-0.736-7.14-0.982l-0.075,0.736C403.866,254.29,406.123,255.763,408.628,255.026z"/>
<path d="M557.418,104.347l3.903,2.699l4.294,1.963l2.453,2.454l2.086,1.718c2.453,1.718,4.81,3.927,7.362,5.645
	c3.779,2.453,7.632,5.153,11.632,7.362c2.725,1.472,5.767,2.454,8.589,3.927c1.694,0.982,3.216,2.209,3.535,4.417l1.742-0.491
	l2.798,0.736l0.466,1.963c-1.129,4.908-2.307,9.817-3.682,14.725l-2.307,2.7l-1.815-0.736l-1.375,2.945l-0.171,2.945
	c-0.467,4.908,2.552,7.608,5.767,10.552c2.945,2.7,5.497,5.89,8.246,8.835l4.982,5.153l0.295,0.982l-6.185-0.982l-2.822-0.246
	c-2.528-0.245-5.031-0.736-7.56-1.227l-5.129-0.982l-4.956,0.491l-3.682-0.981c-6.012,1.472-9.791,6.135-14.284,10.062l3.143-0.736
	l0.244,0.491l-4.76,3.927l-0.222-3.19c-2.773,0.736-4.344,2.945-6.576,4.417l0.147,0.246l2.061,0.736l-1.35,0.982l-2.895,1.717
	l-2.97-0.736l-2.723,0.736v2.946L554.007,203c-3.387,0.246-6.773,0.491-10.11,0.736l-5.497,1.227h-1.522
	c-3.484,0-6.993,0.246-10.479,0l-3.803-0.981l-2.43-0.982l-3.485-3.436l-2.086-2.699l-0.515-0.982l-2.43-3.19
	c-4.025-0.491-6.748-2.945-8.884-6.135l-2.233-4.417l-1.914-1.227l-1.742-0.982l-1.448-3.681l-0.686-0.736l-1.276-1.227l0.123-3.681
	l0.392-4.171l-1.448-1.472l-0.785-3.436l0.294-5.153l0.075-1.718l1.251-4.663l1.964-2.699l0.785-1.227l0.589-1.963
	c0.172-2.945,2.627-4.663,3.977-6.871l4.564-3.436c4.81-1.963,9.694-4.171,14.603-6.135l2.822,0.246
	c3.141,0.982,6.258,2.209,9.399,3.19c2.012,0.736,4.049,1.472,6.552,2.209l-4.564-4.172c-2.528-2.699-4.958-5.399-7.51-8.098
	l-3.288-2.454c-2.675-1.227-4.859-3.436-8.025-3.436l-1.693-0.736l-3.583,1.718l-5.448,4.172l-2.406,2.945
	c-3.289,3.19-6.626,6.381-9.94,9.816c-2.723,2.7-5.448,5.399-8.171,8.099l-3.462,3.19l-0.735,0.491l-2.184,1.963l-0.541,1.472
	l-3.533,4.663l-0.172,0.736c0.664,2.7-1.08,4.663-1.841,6.871c-1.251,3.927-2.158,7.853-3.264,11.78
	c-0.638,2.209-1.397,4.417-2.11,6.626l-0.563-0.245l-0.123-1.227c-1.424,2.7-0.786,5.645-2.602,7.853h-0.515l-0.491-2.945
	l-3.951,2.454c0-4.418,0-8.835,0-13.743l-1.546,4.417l-0.172,5.89l-1.988,1.227l0.196-3.435c0.148-2.7,0.368-5.153,0.368-7.853
	l-0.809-3.681l-0.025-4.663l0.737-1.963l-2.921-4.418l-1.472-4.908l-2.847-0.982l-3.484-0.246c-0.688-1.963-0.589-4.417-2.822-6.135
	c0-1.963,0-4.417,0-6.871l0.024-0.491l0.638-5.399l-1.031-2.454l0.123-2.209l0.638-2.454l-0.246-3.19l0.589-0.245l-2.626-1.718
	l-5.693-1.227l-1.815-0.491l-2.406,0.246l-1.276,0.982c1.056-3.19,1.007-5.399-0.981-7.363l0.957-3.19l-1.448-1.717
	c2.725-0.982,2.626-2.945,1.399-5.154c3.656,0,7.116,0,10.576,0v-0.736c-2.871,0.246-5.741,0.491-8.613,0.736l-0.075-0.491
	l3.854-0.736l-2.994-0.491l-0.049-0.491c4.884,0.246,10.037,1.472,13.374-3.681h-0.638l-0.834-0.246l-0.539-0.736l1.3-1.963
	l-1.128-2.7l0.392-5.202l1.128-4.908l0.442-2.405l1.718-3.706l0.368-1.007l0.024-2.453c2.749,1.275,3.19-0.81,4.001-2.43
	l1.938-3.264l2.528,0.148l0.613-2.969l3.068-0.908l2.406,1.521l0.614-1.374l2.11,2.552l0.49-2.012l0.81,2.233l0.614,1.105
	l2.674,4.025c0.933,3.852,3.166,6.847,6.087,9.301c2.576,2.184,5.398,4.098,8.073,6.159l1.08,1.178
	c0.097,2.209,1.742,3.19,3.141,4.417l0.392,3.436l1.621,1.718c-3.509,0.981-0.394,3.19-1.105,4.663c3.19-0.736,5.816-1.964,8-4.172
	l2.233-1.227l4.589-2.209l0.319-0.246c2.798-0.491,4.835-2.454,7.362-3.681l5.154-1.718c3.682-1.89,7.239-3.975,10.897-5.841
	l1.962,0.073l0.86,2.062l-0.049,0.319l3.828,3.387l2.307,0.736c2.749,3.927,6.797,6.135,10.356,9.08l3.313,2.945
	c2.895,1.718,5.939,3.436,8.908,5.154H557.418 M551.7,174.042l0.295,0.245l0.908-0.736l5.62-4.908l0.294-2.7l-2.233-2.209
	l-6.502,0.982l-1.056,7.362l3.337,0.491l0.59-0.491l0.171,0.246L551.7,174.042z M541.049,197.111
	c-0.319,2.453,0.148,3.435,1.791,3.435l6.062-0.982l1.056-0.245l2.822-2.7h-1.179l-4.956,1.227h-1.472L541.049,197.111z
	 M519.429,198.337c1.056,3.19,8.983,5.645,12.294,4.172C527.97,200.055,523.896,199.074,519.429,198.337z M534.351,201.037
	l3.583,0.491C535.16,199.81,535.16,199.81,534.351,201.037z"/>
<path d="M350.662,297.236l-2.503,3.682l-1.496,3.681c-2.233,5.399-4.443,11.043-6.7,16.688c-1.619,3.927-3.264,8.098-4.883,12.025
	l-0.123,1.227l0.539,1.227c-0.638,2.454-1.399,4.663-2.16,6.871l-0.785,0.491l0.442,1.227h-0.737l-0.638,3.681l-0.908,6.381
	l1.129,5.644l-0.246,0.982l-1.571,4.908c-0.686,2.945-1.643,5.644-2.969,8.344l-0.662,4.417l-0.491,2.209
	c-1.89-0.736-2.651-0.245-3.533,2.209c-0.933,2.454-0.933,2.454-2.504,2.7l0.59,1.718l-2.184,0.245l-3.216,1.472L313.017,390
	l-3.435,1.718l-1.302,1.227l-0.981-1.227l-2.602-2.945l-3.803-2.209l-1.841-0.982h-0.345l-3.337-0.982l0.049-2.699l-1.595-1.963
	l-1.841,1.472l1.007-2.209l1.571-3.436c-0.222-2.209,0.097-4.663,0.196-6.871l0.147-1.227c-0.933-4.663,1.669-8.835,2.061-13.252
	l0.099-0.491l0.442-1.472l1.324,0.982l1.595-3.681l0.442-2.945l0.345-1.472c1.35-2.945,2.699-5.89,4.098-8.835l2.061-0.491
	l0.295-0.246l0.171-3.435h-0.392l0.196-0.246c2.701-0.246,4.516-1.963,4.811-4.663l0.171-0.982c1.276-2.699,2.871-5.399,3.805-8.098
	c1.227-3.681,3.411-6.871,5.006-10.307l3.363-6.135l0.048-3.19l-4.417,1.227h-2.061l-1.203,0.491h-1.57
	c-2.382-0.491-4.762-1.227-7.118-1.718c-2.6-0.736-5.178-0.491-7.632,0l0.097,0.737l-3.607,0.491h-0.908l-1.669,2.454
	c-2.528,0.736-1.767,2.945-1.669,4.417c0.392,4.663,1.251,9.326,1.962,14.233l0.737,1.718l-0.148,5.399l-3.361,5.89l0.147,5.89
	l0.565,2.209l1.865,1.718l0.27,3.681l-0.466,0.245l-7.289-3.926l-2.921-1.227l-2.552-0.736l-2.307-1.227l-0.662-0.491l-2.43,1.964
	l0.638,2.454l4.417,3.927l0.515,1.717l-1.914,0.491c-2.38-1.227-5.129-1.964-6.331-4.908l-0.565-0.491
	c-2.356-2.209-3.779-4.908-5.325-7.608l-3.46-2.209l-2.16-0.736l-1.399-2.209l-0.049-2.945l-2.993-1.963l-3.706-0.736l-3.781-3.927
	l-0.49-0.246l-2.037,1.718l-2.552-1.472l-3.19-2.454l-1.914-4.663c1.177-2.209-1.669-2.699-3.166-3.681l3.068-1.964l-0.589-5.399
	l-3.361-4.171l-1.743-5.399l0.442-1.718l0.172-0.982c-0.662-4.662-1.423-9.325-1.988-13.988v-5.89l0.614-4.417l-0.541-2.945
	l0.662-2.454l0.565-1.227v-6.381l-0.613-2.699c0.123-3.19,0.024-6.381,0.785-9.326c0.688-2.7,0.515-5.645,1.938-8.344
	c1.129-2.209,0.81-5.154,0.957-7.853l-0.589-2.209l1.203-5.645l0.172-1.718v-2.945l0.466-0.245l0.834,0.981l0.049,2.209l2.233,2.946
	l1.938,1.717l-0.27,0.491h0.638l6.258-0.246l3.312-1.963l0.983-2.7l2.479,1.227c2.184,0.737,3.779,2.946,6.405,2.7l1.619,0.246
	l2.259-1.472v-1.964c2.232-0.491,2.993,0.246,3.116,2.209l0.467,3.681c2.993-0.736,4.073-0.245,5.57,1.718
	c1.472,1.964,4.122,1.718,5.448-1.227l0.834,1.963l2.651,2.454l4.784,0.491l-0.515,2.946l-2.012,1.472l3.68,1.717v1.227
	l-4.049,3.435v3.682l4.294,0.491l2.626,2.945c-0.539,3.927-1.177,8.098-1.374,12.025c-0.123,2.209-1.326,3.927-2.332,5.89
	l-1.324,0.491l-1.105,1.227l0.541,3.682l4.687-0.982l4.32,0.246l2.552,0.491l4.76,0.736l3.436,0.491l3.264,0.491l2.65,2.209
	l3.854-1.964l0.319,0.246l-0.884,1.472l3.878-1.718l0.834-0.736l6.183-0.491h2.675c4.025,0.246,8.075,0.491,12.1,0.736
	c4.025,0.246,8.049,0.246,12.074,0.246l2.331,1.227l0.908,0.246l1.08,0.491c1.817,2.454,4.663,2.454,7.239,2.945l2.233,0.982
	l3.658,1.227l0.44,1.718l-0.121,0.736c0.882,2.7,0.416,3.927-2.16,5.154l-0.688,0.491l-2.945,1.718l-5.57,2.945l-0.418,1.963
	l-5.301,0.982L350.662,297.236 M244.868,317.36l3.779,4.663L244.868,317.36z M334.884,335.52l-0.517-0.245l-1.914,4.908h0.467
	L334.884,335.52z"/>
<path d="M520.975,275.641l2.674,2.454l1.276,0.982l0.418,0.982l1.742,2.209l1.08-0.736l1.007,0.982l2.257,3.681l0.368,0.491
	c3.068,0.491,3.583,3.436,4.344,5.645c1.054,2.945,2.822,5.153,4.613,7.608c2.65,3.681,3.141,4.663,2.675,8.344l-1.129-0.246h-3.141
	l-1.669,1.718l-0.908,3.681c0.735,2.209,1.005,4.417,1.276,6.871c-2.406-0.981-3.927,0-5.35,1.472l-1.914-0.491l-4.639-0.246
	l0.688,5.89l-1.203,0.491l-1.055-1.227l-1.865-2.946l-1.522-1.472l-2.257-0.981l-3.977,1.227l-2.477-4.172l-1.694,1.964l1.227,5.399
	l2.382,4.663l0.147,1.227l1.007,2.945l1.031,2.945l2.527,4.663l0.246,0.491l-2.479,3.681l-1.522,0.982l-0.834,3.435l-1.595,2.209
	l3.559,2.945l-0.368,0.982l-3.484-0.982l-5.374-2.209c0.171,2.454,0.319,4.172,0.442,6.135c-3.264,0.736-6.283,0.491-9.276-0.491
	l-0.957-0.246c-2.994,0.491-3.093,0.246-4.32-2.699l-2.822-2.945c-1.94-1.718-4.565-2.454-6.161-4.908l-2.036-3.927l-1.302-1.472
	c-2.331-1.227-2.945-3.681-3.656-5.89c-0.834-2.454-0.981-4.908-1.472-7.608c-0.466-2.209-1.104-4.663-1.448-6.871
	c-0.638-4.418-0.785-8.589-1.742-12.762c-0.761-3.19,0.024-6.626-0.735-9.816c-0.565-2.209-1.522-4.908-0.664-6.871
	c1.031-2.699,0.688-5.153,0.761-7.608l-0.589-4.663c0.294-4.417,0.834-8.589,1.276-12.761c0.27-2.7,0.515-5.645,0.735-8.344
	l1.94-4.172l5.301-4.908l3.361-0.491l1.104,1.718c1.203,3.681,2.209,7.608,3.584,11.289c0.957,2.454,2.404,4.908,4.344,6.871
	l1.619,4.172c0.27,2.454,0.073,5.153,0.073,7.608l1.742,0.736l1.105,1.227l4.245,2.7l2.16-1.227l3.876-0.245l1.424-0.491
	l3.484,1.227l1.865-0.491c3.632-0.245,4.32-3.19,5.62-5.644l1.768-0.246L520.975,275.641"/>
<path d="M172.645,334.784l2.993-5.398l0.392-0.737c1.007-3.681,3.805-4.662,6.995-5.153l2.134-1.472l1.743-1.227l-0.688-1.227
	c1.326-1.717,2.749-3.19,4.956-2.699c2.578,0.491,5.081,1.472,7.608,1.963l0.319,0.246c0.909,3.681,4.419,3.19,6.971,3.681h6.331
	c2.945-0.246,5.864-0.736,8.785-0.982l1.252-0.736l2.38,1.964c3.411,0.982,6.748,1.963,10.11,2.945l0.834,0.982l-1.619-0.491
	l-3.951,2.454l-1.767,1.472l-4.344,2.454l-2.527,0.491c-2.503,0.246-5.031,0.246-7.485,0.736c-3.436,0.491-6.799,1.228-10.185,2.209
	c-3.165,0.491-6.282,1.227-9.472,1.963l-4.637,2.945l-1.67,0.736l-4.515-0.736l-1.056-0.982l-2.11-1.963
	C177.871,337.238,175.368,336.011,172.645,334.784"/>
<path d="M233.775,398.099l0.908,2.699l3.975,1.718l4.001,1.718l-0.565,1.963c-2.356,3.19-2.332,3.436-0.491,6.871l0.196,2.945
	l-3.042,0.736c-2.185-0.736-4.565,0.491-5.178,2.7l-1.498,1.227h-2.356c-0.981-3.927-1.447-4.172-5.374-3.681l-3.559-2.209
	l1.032-2.454l1.276-2.209l-1.129-2.945l0.735-4.663l1.94,0.491l4.613-2.454C230.192,397.363,230.363,397.363,233.775,398.099
	 M231.468,408.16l-1.767,1.718l1.718,1.964l2.037-1.718L231.468,408.16z"/>
<path d="M266.856,418.713c-5.326,0-9.767-4.172-9.964-8.589c-0.172-3.927,4.171-8.589,8.172-8.589c4.245,0,7.828,1.718,10.281,5.399
	c2.528,3.681,1.203,8.099-2.895,9.816L266.856,418.713 M266.979,412.823c2.945-0.245,4.514-1.963,3.704-3.681
	c-1.227-2.454-5.103-3.19-7.214-1.472l0.294,3.927L266.979,412.823z"/>
<path d="M172.595,408.16l0.367,3.682l-0.147,5.644l-1.595,1.718l-2.38-1.227c-1.94-4.172-3.166-8.835-2.356-13.498
	c0.589-3.435,2.503-4.172,5.079-2.209l4.615,5.89l2.085,3.436h0.418l0.319-2.699l0.834-5.89l1.766-1.718l2.16,1.473l0.834,3.435
	c-0.048,3.19-0.171,6.135-0.589,9.326l-2.012,2.945l-3.044-1.718l-3.656-5.153l-2.259-3.681L172.595,408.16"/>
<path d="M121.281,412.823l-0.933-1.717l0.27-2.209l5.89,0.491l0.957,5.153c-1.031,2.945-3.214,4.172-6.086,4.663
	c-5.497,0.736-11.608-5.644-10.16-10.798c1.89-6.871,7.485-8.344,13.473-5.399l0.981,1.964l-1.522,1.472l-3.631,0.982l-2.406,2.453
	L121.281,412.823"/>
<path d="M63.389,409.388h3.484v-2.453l0.761-4.172l1.791-1.718l2.087,1.718c1.57,3.927,1.938,7.853,1.397,12.025l-1.447,2.7
	l-3.878-0.982l-0.834-2.454l-0.368-2.453h-3.238l-0.025,4.417l-2.281,3.435l-3.387-2.945c-1.252-4.171-1.547-8.589-0.884-13.007
	l0.49-1.472l2.479-1.718l2.061,1.718C62.357,404.234,62.775,406.689,63.389,409.388"/>
<path d="M293.997,413.314l-1.324,3.19l-2.43,1.472l-1.718-2.209c-0.515-3.19-0.834-6.381-1.08-9.571
	c-0.196-2.454,1.177-4.171,3.607-4.417l5.62,0.246c3.509,0.491,5.154,3.681,3.975,7.116l-1.3,2.7l2.38,2.699l-0.246,3.681h-3.706
	L293.997,413.314 M293.115,405.952l-0.517,0.491l1.547,1.963l1.399-0.981L293.115,405.952z"/>
<path d="M92.198,413.805h-1.35c-2.453,0.246-2.552,0.246-2.921,2.7l-2.037,2.453l-2.11-2.699c0.099-4.417,1.472-8.835,3.903-12.516
	c2.134-3.19,5.816-2.699,7.632,0.736c1.522,2.7,2.846,5.645,4.122,8.589l-0.515,4.663l-3.583,0.246L92.198,413.805 M90.752,407.424
	h-0.344l-0.884,3.436l0.442,0.982h1.399l0.172-1.227L90.752,407.424z"/>
<path d="M451.059,411.106l3.141,3.435l0.099,3.682l-3.682-0.246l-2.576-2.454l-1.718,2.454l-2.699,0.736l-1.571-2.209
	c-0.172-3.927-0.123-7.853-0.049-11.78l3.214-2.945l4.1,0.246l3.852,3.19l-1.522,5.399L451.059,411.106 M447.648,405.216
	l-0.442,0.737l0.343,2.945l0.539,0.245l2.209-2.209L447.648,405.216z"/>
<path d="M349.216,410.37h-3.682l0.662,5.399l-3.068,3.436l-2.43-1.963c-0.858-4.908-0.565-9.571,0.983-14.234l1.104-1.227
	l1.889,0.981l0.614,2.946v2.699h4.124l0.613-4.908l1.571-1.963l2.184,1.718c1.276,4.172,1.546,8.589,1.177,13.007l-1.865,2.209
	l-2.38-1.472C350.123,414.788,349.731,412.824,349.216,410.37"/>
<path d="M313.385,410.124c0-4.662,4.049-8.344,9.08-7.852l4.318,0.981l0.345,2.454l-4.589,1.472
	c-2.406,0.246-3.117,1.228-2.725,3.436l2.283,2.209h3.436c2.822,0.246,3.803,1.963,2.085,4.172l-2.919,1.963l-6.087-0.246
	C314.686,418.223,313.483,413.806,313.385,410.124"/>
<path d="M473.366,414.051l-2.6,1.472l-2.823,2.209l-1.693-3.19l1.791-5.153c1.227-2.454,2.798-4.417,4.172-6.626l2.013-0.736
	c4.687,1.717,9.423,9.08,8.834,13.988c-0.295,2.454-2.406,3.436-4.344,1.964l-1.669-1.964L473.366,414.051 M471.527,411.351h3.73
	l-0.908-3.435l-0.565-0.246L471.527,411.351z"/>
<path d="M149.159,413.56l-4.982-0.245l-0.81,3.435l-1.203,1.227l-1.889-1.227l-0.073-3.927c0.761-2.699,1.619-5.399,2.945-7.853
	l3.829-3.19l1.52,0.245c3.977,2.945,6.725,6.871,8.099,11.78l-1.693,3.927l-3.755-1.228L149.159,413.56 M144.349,411.106h4.098
	l-2.185-4.417L144.349,411.106z"/>
<path d="M397.217,406.443l4.76,3.19c1.595,1.472,2.576,3.436,1.791,5.645c-0.785,2.209-2.626,3.435-4.883,3.435
	c-2.307,0-4.663-0.245-6.896-0.736l-1.841-3.681l3.656-1.472l2.774,0.982h2.11l0.097-0.736l-3.436-1.227
	c-2.257-1.227-2.945-3.19-3.238-5.644l2.552-4.172l7.608,2.209l-0.319,1.472l-1.718,0.736l-3.093-0.491L397.217,406.443"/>
<path d="M200.4,405.216l0.367,3.436l3.975,0.246l1.375,1.227l-1.619,1.227h-3.509l0.638,3.682h5.816l0.367,0.736l-1.913,1.717
	c-3.265,0.982-6.454,0.491-9.4-1.227l-0.932-1.472c-0.319-3.19-0.614-6.381-0.761-9.571c-0.147-2.699,0.638-3.681,3.24-3.681
	c2.503,0.246,4.982,0.736,7.459,0.982l0.933,1.227l-0.908,1.227L200.4,405.216"/>
<path d="M372.603,411.596l0.515,2.945l1.177,0.491l2.871,0.491l1.252,1.227l-1.67,1.472c-2.43,0-4.907-0.246-7.312-0.736
	l-1.767-1.718c-0.097-4.172,0.025-8.098,0.123-12.025l0.737-0.736c2.846-0.982,5.743-0.982,8.614-0.246l0.908,1.227l-1.276,1.227
	l-1.841-0.246l-2.602,2.209l0.196,1.472l6.087,0.491C377.51,413.069,374.713,410.615,372.603,411.596"/>
<path d="M424.849,405.461l0.27,4.663c-0.025,2.209-0.049,4.418-0.295,6.626l-2.626,2.209l-2.11-2.209
	c-0.27-2.454-0.392-4.908-0.491-7.363l0.196-3.681l-2.749-0.736l-1.005-0.982l1.104-1.227l2.503-0.491
	c2.43,0.245,4.884,0.491,7.289,0.736l1.571,1.227l-2.063,1.227H424.849"/>
<polyline points="2.16,210.608 0,205.7 1.031,205.454 2.11,206.927 2.16,210.608 "/>
<polyline points="557.467,104.347 557.073,103.366 557.295,103.12 562.939,106.065 562.693,106.556 559.699,105.329 
	557.418,104.347 557.467,104.347 "/>
<path d="M292.428,376.748l1.078-4.417C293.556,376.012,293.556,376.012,292.428,376.748"/>
<polyline points="679.533,240.547 681.717,237.358 682.232,237.603 681.594,239.566 679.533,240.547 "/>
<path d="M59.855,178.214c-2.308,0.246-1.964-1.227-1.817-2.699L59.855,178.214"/>
<polyline points="537.393,396.136 537.514,394.663 539.503,396.872 537.393,396.136 "/>
<polyline points="351.031,173.306 348.699,174.288 347.888,174.043 348.479,173.552 350.883,173.061 351.031,173.306 "/>
<polyline points="265.776,76.983 263.984,77.278 263.813,76.591 265.604,76.174 265.776,76.983 "/>
<path d="M217.603,278.34c-2.087,2.454-4.369,3.19-7.092,2.699l2.6,3.19c2.332-0.245,3.559,1.472,4.859,2.945l0.246,2.209v3.681
	l-5.424-0.982h-2.723l-0.59,1.718c0.467,2.699-0.711,3.681-3.533,3.19c-2.945-0.491-5.669-2.209-8.81-1.964l-3.19-0.736l-3.95-0.736
	l-3.755-0.736h-1.522c-3.559,1.718-6.847,0-10.209-0.736c-2.969-0.736-5.939-1.227-8.908-1.963l-3.632-0.736l-0.368,0.981
	l-1.791,3.19c-0.809,5.153-1.447,10.307-2.012,15.461l0.515,2.945c-0.049,4.663-0.246,9.571-0.319,14.234
	c-0.049,3.926,0.049,7.608-0.025,11.289l-0.563,4.908l-3.682,6.135c-1.007,1.718-2.65,2.946-2.184,5.154l-0.27,0.736l-4.859,5.153
	l-2.209-3.19l-4.148-6.135l-3.288-0.736c1.251-2.209-0.983-2.454-1.375-3.681l-0.957,0.736l-0.662-1.718l-0.295-2.209l-0.196-0.736
	c-0.147-2.209-0.246-4.417-0.416-6.626l-0.491-2.945h1.031c0.222-2.7,0.392-5.399,0.638-7.853l0.662-1.472l0.172-1.472l-0.368-5.645
	c0.368-3.19,0.099-6.626,0.099-10.552l-5.547,2.209c-2.43,1.227-4.76,2.699-7.092,4.172l-1.496,4.418l1.054,2.453l1.694,2.454
	l-0.515,3.19l-0.392,1.718l0.097,2.454l0.541,1.963l-0.664,1.964l-5.521,5.399c-1.718,2.945-4.589,4.417-5.89,7.608l-4.589,4.908
	l-0.86,1.472l-2.257,2.7l-1.448,1.472l-2.723,1.472c-3.02-0.736-5.768-0.246-8.394,1.227l-1.938,0.736l-0.246-2.453h-3.607
	c0.466-2.7-1.153-2.7-2.871-2.454h-3.779l-2.332-0.982l-1.914-0.736l-4.81-1.963l-1.815-1.964l-4.615-0.736l-6.036,1.718
	l-3.411,1.472c-2.578,1.472-5.301,2.209-8.222,2.454l-1.865-1.472c-0.565-2.945-1.129-3.436-4.712-3.682l0.834-4.908l-0.097-2.454
	l-0.148-1.227c0.541-2.209,1.056-4.418,1.718-6.626l1.375-3.19l0.785-4.417l1.57-5.399c0.713-2.454,1.326-5.153,2.16-7.853
	l1.718-1.963l1.938-1.963h2.431l2.796-3.682l3.878-2.453l2.725-0.982l1.227-0.491l2.233-0.491l-1.302-1.718l3.878-1.472l4.221-2.453
	l1.718-0.982c2.283,0.245,4.344-0.246,6.43-1.227l2.061,1.227l1.964,0.982l3.754-0.246l0.834,3.19l0.394,0.245l1.938-2.699
	l3.656,1.227l6.012,0.491c2.994-0.491,6.012-0.736,8.983-1.227c3.092-0.491,6.135-1.472,9.203-1.963
	c2.6-0.491,5.178-1.227,7.754-1.718l0.884-0.246l-1.203-1.963l1.031-1.472l2.184,0.246l1.645-0.491l-0.024-0.246l2.773,0.246
	c0-2.454,0-5.153,0-7.853c-4.148-1.227-8.515-2.453-12.884-3.681c-2.527-0.736-5.079-1.472-7.632-2.209l-1.767-0.736l-3.361-0.491
	l-1.104-0.491c-2.725-1.717-5.891-0.981-8.836-1.472l-4.956,0.246l-0.515,2.454l0.123,1.472l1.546,1.963
	c2.479,0.736,4.76,1.964,6.993,3.19l1.718,3.436l-6.086-0.246c-3.927-0.246-7.829-0.736-11.731-1.227l-5.448-1.473l-2.576-1.227
	l-1.718-1.472l-1.988,2.209c-1.669,0.246-2.209-0.491-2.503-2.699c2.65-0.246,5.301-0.491,7.951-0.736l0.295-1.718l-1.153-3.681
	c-2.504-2.209-5.326-3.436-8.517-4.172l-2.38-1.227l-3.092-2.209l-2.063-3.436l-2.773-2.945l-2.16-0.982l0.81,2.7l-0.295,0.491
	l-4.663-2.7l-0.097-1.227l0.981-4.172h-7.166L45.94,251.1l-3.313-1.717l0.27-0.491l-4.172-2.209
	c-3.19-0.736-6.135-1.963-8.786-3.927l-2.798-1.472c-2.208-1.227-4.417-2.454-7.017-3.927l2.281-1.227v-2.454l-4.417-0.245
	l-1.595,1.472l-1.815-1.718l-3.854-5.89c-1.447-2.7-2.65-5.399-4.049-7.853l-1.767-2.209l-0.539-1.472l1.153-0.736l3.46,1.472
	l3.682,4.417l1.964,0.982l0.589-1.718l-0.786-2.7l0.198-4.417l0.294-2.209l-0.319-0.736c0.541-3.436-1.841-5.89-3.436-8.344
	l-0.981-3.19l-0.785-4.663l-0.589-3.435l0.638-4.172l3.926,0.982c2.38,0.981,4.639,0.981,7.019,0l0.343-1.472
	c-2.38-2.946-4.76-6.135-7.166-9.081l-1.399-1.472l1.498-3.435l0.785-0.246c0.294-2.699,0.711-2.945,3.411-1.963l6.209,2.209
	c2.209,0.736,3.387,0,3.583-2.209l2.774-1.964l5.89,4.418l2.356,2.209l0.22-0.736l2.406-0.736l6.381,0.736l0.957,2.209l0.662-1.964
	c2.283,0,2.528,0.491,1.841,2.454l0.565,1.718l5.398,2.945l2.307,0.982c1.302,2.699,4.001,3.19,6.283,4.663l5.153,2.945
	c2.283,1.227,4.639,2.454,6.946,3.435l5.006,2.7c2.945,0.736,5.251,2.945,8.442,3.435l4.663,2.454
	c2.651,1.227,5.35,2.454,8.123,3.19l3.584-0.982l3.387,1.472c0.343,2.209,1.839,3.682,4.342,3.927l3.216-2.209l0.343,2.454h-0.491
	l0.86,0.736l4.613,1.718l4.613,1.227c1.791-5.399,5.816-2.699,9.276-2.454c-0.932-4.908,2.209-8.344,3.927-12.515l2.38-4.418
	l2.725-0.245l1.841,2.699c1.889,2.945,3.754,5.89,5.717,8.835l2.087,0.736l3.068,0.736l0.466-0.982l2.822,3.436l1.007-1.718
	l1.276,4.908l3.288,2.946l0.983,4.172l-0.271,2.7l-1.447,5.644c-0.368,2.209-0.442,4.663-0.688,7.608l3.902,0.491l5.792,2.209
	c4.417,1.718,8.884,3.435,13.717,3.435l5.866,1.227l0.515,0.491l-0.908,2.209l-0.737,3.681l2.897,1.718
	c3.042,0.246,6.11,0.246,9.177,0l1.841-0.491l3.927,0.491l-0.711,5.399l-2.431,0.491l-0.589,5.645l4.736,0.491l1.94,1.227
	l1.962,0.982l2.233,3.19h-1.496l-1.742,1.472l1.595,1.964l2.037,2.454h-5.596l1.3,2.699L217.603,278.34 M11.509,195.638l1.374,1.718
	l3.044-1.227l0.662-0.982l-2.11-1.963L11.509,195.638z M74.823,266.806c2.431,0.736,3.142-0.491,2.479-3.927
	C75.634,263.125,74.946,264.107,74.823,266.806z M124.323,294.046l0.123,0.737l5.251-1.718L124.323,294.046z M28.908,199.565v-1.964
	l-1.791,1.964H28.908z M43.511,177.478l2.822,0.982L43.511,177.478z"/>
</svg>
