<?xml version="1.0" encoding="utf-8"?>
<!-- Generator: Adobe Illustrator 27.1.1, SVG Export Plug-In . SVG Version: 6.00 Build 0)  -->
<svg version="1.1" id="레이어_1" xmlns="http://www.w3.org/2000/svg" xmlns:xlink="http://www.w3.org/1999/xlink" x="0px"
	 y="0px" viewBox="0 0 720 358.688" enable-background="new 0 0 720 358.688" xml:space="preserve">
<polygon fill-rule="evenodd" clip-rule="evenodd" points="517.103,322.487 516.899,323.578 517.472,323.338 "/>
<polygon fill-rule="evenodd" clip-rule="evenodd" points="515.606,322.117 515.033,322.376 515.957,322.967 "/>
<path fill-rule="evenodd" clip-rule="evenodd" d="M522.871,317.977l0.942,0.61L522.871,317.977z"/>
<polygon fill-rule="evenodd" clip-rule="evenodd" points="522.315,318.235 522.019,318.347 522.148,318.624 522.426,318.513 "/>
<polygon fill-rule="evenodd" clip-rule="evenodd" points="517.473,323.337 516.9,323.577 517.103,322.487 "/>
<polygon fill-rule="evenodd" clip-rule="evenodd" points="515.957,322.967 515.032,322.376 515.605,322.117 "/>
<path fill-rule="evenodd" clip-rule="evenodd" d="M523.813,318.587l-0.943-0.61L523.813,318.587z"/>
<polygon fill-rule="evenodd" clip-rule="evenodd" points="522.427,318.513 522.15,318.624 522.02,318.347 522.315,318.236 "/>
<path fill-rule="evenodd" clip-rule="evenodd" d="M391.635,320.546l1.09,0.703L391.635,320.546z"/>
<polygon fill-rule="evenodd" clip-rule="evenodd" points="390.97,320.841 390.656,320.971 390.785,321.304 391.118,321.174 "/>
<rect x="390.177" y="318.592" transform="matrix(0.9134 -0.4071 0.4071 0.9134 -96.042 186.5654)" fill-rule="evenodd" clip-rule="evenodd" width="0.364" height="0.728"/>
<path fill-rule="evenodd" clip-rule="evenodd" d="M392.726,321.248l-1.091-0.702L392.726,321.248z"/>
<polygon fill-rule="evenodd" clip-rule="evenodd" points="391.118,321.174 390.785,321.304 390.656,320.971 390.969,320.842 "/>
<rect x="390.177" y="318.592" transform="matrix(0.9134 -0.4071 0.4071 0.9134 -96.0421 186.5652)" fill-rule="evenodd" clip-rule="evenodd" width="0.364" height="0.728"/>
<polygon fill-rule="evenodd" clip-rule="evenodd" points="192.916,322.45 194.283,322.284 193.507,321.673 "/>
<polygon fill-rule="evenodd" clip-rule="evenodd" points="188.017,324.095 186.335,322.82 187.185,324.632 "/>
<polygon fill-rule="evenodd" clip-rule="evenodd" points="195.041,317.404 196.501,317.034 195.392,318.883 "/>
<polygon fill-rule="evenodd" clip-rule="evenodd" points="191.77,322.062 192.046,320.454 193.303,321.822 "/>
<polygon fill-rule="evenodd" clip-rule="evenodd" points="194.32,322.265 193.71,323.079 193.507,321.637 "/>
<polygon fill-rule="evenodd" clip-rule="evenodd" points="190.439,331.322 190.014,329.326 191.381,330.99 "/>
<rect x="152.917" y="124.155" width="0.463" height="0.943"/>
<rect x="156.226" y="124.155" width="0.481" height="0.462"/>
<polygon points="154.008,128.536 154.008,128.056 155.412,128.056 "/>
<rect x="141.697" y="128.998" width="0.463" height="0.961"/>
<path d="M152.584,132.307h-2.367c0.833-1.682,2.107-2.92,4.252-3.308l0.481,0.481l-0.481,1.423L152.584,132.307"/>
<rect x="163.804" y="117.279" width="0.463" height="0.481"/>
<rect x="148.794" y="120.717" width="0.481" height="0.943"/>
<polygon fill-rule="evenodd" clip-rule="evenodd" points="150.07,123.675 150.532,123.195 150.532,123.675 "/>
<rect x="152.917" y="124.155" width="0.463" height="0.943"/>
<rect x="156.226" y="124.155" width="0.463" height="0.462"/>
<rect x="149.275" y="119.313" width="0.463" height="0.462"/>
<rect x="148.794" y="120.717" width="0.463" height="0.943"/>
<rect x="186.668" y="121.66" width="0.463" height="0.481"/>
<polygon fill-rule="evenodd" clip-rule="evenodd" points="154.008,128.055 155.412,128.055 154.008,128.536 "/>
<rect x="175.301" y="128.055" width="0.481" height="0.481"/>
<rect x="142.64" y="128.536" width="0.481" height="0.462"/>
<rect x="141.697" y="128.998" width="0.463" height="0.961"/>
<path fill-rule="evenodd" clip-rule="evenodd" d="M154.469,128.998l0.479,0.481l-0.479,1.424l-1.886,1.405h-2.366
	C151.049,130.625,152.324,129.387,154.469,128.998"/>
<path fill-rule="evenodd" clip-rule="evenodd" d="M328.198,84.637v1.645h3.271l0.833-1.645c-1.164,0.074-0.795-1.386-2.477-0.813
	L328.198,84.637"/>
<rect x="336.406" y="113.841" width="0.831" height="0.832"/>
<polygon fill-rule="evenodd" clip-rule="evenodd" points="334.761,75.192 335.592,74.361 335.592,75.192 "/>
<rect x="336.406" y="113.841" width="0.831" height="0.832"/>
<polygon fill-rule="evenodd" clip-rule="evenodd" points="517.103,323.078 516.899,324.169 517.472,323.929 "/>
<polygon fill-rule="evenodd" clip-rule="evenodd" points="515.606,322.727 515.033,322.967 515.957,323.578 "/>
<path fill-rule="evenodd" clip-rule="evenodd" d="M522.871,318.568l0.942,0.61L522.871,318.568z"/>
<polygon fill-rule="evenodd" clip-rule="evenodd" points="522.315,318.827 522.019,318.938 522.148,319.234 522.426,319.105 "/>
<polygon fill-rule="evenodd" clip-rule="evenodd" points="521.799,316.849 521.521,316.979 521.762,317.552 522.038,317.423 "/>
<polygon fill-rule="evenodd" clip-rule="evenodd" points="521.226,312.413 520.375,312.783 521.595,313.264 "/>
<path fill-rule="evenodd" clip-rule="evenodd" d="M171.807,113.379v3.789c1.718-0.259,3.123-0.813,3.308-2.606l-1.423-1.645
	L171.807,113.379"/>
<polygon fill-rule="evenodd" clip-rule="evenodd" points="521.632,306.369 521.723,307.33 522.148,306.813 522.556,306.979 "/>
<rect x="182.214" y="115.746" width="0.481" height="0.943"/>
<polygon fill-rule="evenodd" clip-rule="evenodd" points="513.185,308.236 512.908,308.366 513.018,308.643 513.296,308.532 "/>
<polygon fill-rule="evenodd" clip-rule="evenodd" points="521.059,304.262 521.428,305.113 521.983,304.872 "/>
<path fill-rule="evenodd" clip-rule="evenodd" d="M517.547,305.445l1.22,0.481L517.547,305.445z"/>
<polygon fill-rule="evenodd" clip-rule="evenodd" points="156.651,122.843 158.554,121.901 156.651,121.901 "/>
<rect x="170.865" y="123.084" width="0.463" height="0.481"/>
<polygon fill-rule="evenodd" clip-rule="evenodd" points="518.97,300.972 519.247,300.843 518.97,300.972 518.693,301.083 
	518.49,302.173 519.321,302.155 519.487,301.416 "/>
<polygon fill-rule="evenodd" clip-rule="evenodd" points="511.577,303.726 511.816,304.299 512.389,304.058 "/>
<path fill-rule="evenodd" clip-rule="evenodd" d="M511.651,302.358l1.09,0.204L511.651,302.358z"/>
<polygon fill-rule="evenodd" clip-rule="evenodd" points="510.838,302.043 510.56,302.155 510.8,302.728 511.077,302.599 "/>
<polygon fill-rule="evenodd" clip-rule="evenodd" points="511.854,301.267 511.577,301.397 511.687,301.674 511.983,301.545 "/>
<polygon fill-rule="evenodd" clip-rule="evenodd" points="526.844,292.451 526.566,292.58 526.807,293.135 527.083,293.024 "/>
<polygon fill-rule="evenodd" clip-rule="evenodd" points="515.199,295.796 515.475,295.686 515.347,295.39 515.199,295.796 
	514.348,296.166 515.272,296.776 "/>
<polygon fill-rule="evenodd" clip-rule="evenodd" points="191.677,134.673 194.043,133.028 192.157,133.028 "/>
<polygon fill-rule="evenodd" clip-rule="evenodd" points="175.116,135.153 175.577,137.52 177.481,136.096 177.481,133.508 "/>
<rect x="167.057" y="133.97" width="0.961" height="1.183"/>
<polygon fill-rule="evenodd" clip-rule="evenodd" points="516.345,291.452 515.901,291.97 516.825,292.58 "/>
<path fill-rule="evenodd" clip-rule="evenodd" d="M168.96,143.212h1.423l-0.481-1.904l0.961-0.481v-2.366
	C168.035,138.795,169.755,141.567,168.96,143.212"/>
<polygon fill-rule="evenodd" clip-rule="evenodd" points="522.926,287.275 523.165,287.83 523.738,287.59 "/>
<polygon fill-rule="evenodd" clip-rule="evenodd" points="516.9,288.846 514.829,288.754 514.793,289.419 515.273,290.547 
	517.103,290.104 "/>
<rect x="185.06" y="141.771" width="0.463" height="0.961"/>
<polygon fill-rule="evenodd" clip-rule="evenodd" points="513.426,289.345 513.093,290.159 513.665,289.919 "/>
<polygon fill-rule="evenodd" clip-rule="evenodd" points="517.473,323.929 516.9,324.169 517.103,323.079 "/>
<polygon fill-rule="evenodd" clip-rule="evenodd" points="515.957,323.577 515.032,322.967 515.605,322.727 "/>
<path fill-rule="evenodd" clip-rule="evenodd" d="M523.813,319.178l-0.943-0.61L523.813,319.178z"/>
<polygon fill-rule="evenodd" clip-rule="evenodd" points="522.427,319.104 522.15,319.234 522.02,318.938 522.315,318.827 "/>
<polygon fill-rule="evenodd" clip-rule="evenodd" points="522.039,317.422 521.762,317.552 521.521,316.979 521.799,316.849 "/>
<polygon fill-rule="evenodd" clip-rule="evenodd" points="521.595,313.264 520.374,312.784 521.225,312.414 "/>
<polygon fill-rule="evenodd" clip-rule="evenodd" points="522.556,306.979 522.148,306.813 521.723,307.33 521.631,306.369 "/>
<rect x="182.214" y="115.746" width="0.481" height="0.943"/>
<polygon fill-rule="evenodd" clip-rule="evenodd" points="513.296,308.532 513.018,308.643 512.907,308.366 513.184,308.236 "/>
<path fill-rule="evenodd" clip-rule="evenodd" d="M420.655,7.394l2.976-0.278l1.478,1.239c2.255,0.055-1.127-1.867,0.092-2.31
	c2.07,1.534,3.198,1.128,4.695,1.645l0.591,1.164c-1.812,0.074-2.754,1.534,0.315,3.346l-1.406-0.703l-1.958,1.627l-1.497-0.684
	l-0.813,0.943l-2.273-0.813C420.119,10.536,426.237,9.298,420.655,7.394 M423.575,10.924l0.258-0.129l-0.443-0.259l-0.259,0.13
	L423.575,10.924z"/>
<polygon fill-rule="evenodd" clip-rule="evenodd" points="521.983,304.872 521.428,305.112 521.058,304.262 "/>
<path fill-rule="evenodd" clip-rule="evenodd" d="M518.767,305.925l-1.221-0.48L518.767,305.925z"/>
<path fill-rule="evenodd" clip-rule="evenodd" d="M391.635,321.156l1.09,0.703L391.635,321.156z"/>
<polygon fill-rule="evenodd" clip-rule="evenodd" points="390.97,321.433 390.656,321.582 390.785,321.914 391.118,321.766 "/>
<polygon fill-rule="evenodd" clip-rule="evenodd" points="390.378,319.16 390.045,319.29 390.341,319.955 390.674,319.807 "/>
<polygon fill-rule="evenodd" clip-rule="evenodd" points="389.712,313.985 388.732,314.41 390.137,314.964 "/>
<polygon fill-rule="evenodd" clip-rule="evenodd" points="390.175,306.961 390.286,308.07 390.803,307.46 391.284,307.663 "/>
<polygon fill-rule="evenodd" clip-rule="evenodd" points="389.529,304.502 389.953,305.501 390.6,305.205 "/>
<path fill-rule="evenodd" clip-rule="evenodd" d="M385.443,305.888l1.405,0.555L385.443,305.888z"/>
<path fill-rule="evenodd" clip-rule="evenodd" d="M392.726,321.859l-1.091-0.702L392.726,321.859z"/>
<polygon fill-rule="evenodd" clip-rule="evenodd" points="391.118,321.766 390.785,321.914 390.656,321.582 390.969,321.434 "/>
<polygon fill-rule="evenodd" clip-rule="evenodd" points="390.674,319.806 390.341,319.955 390.044,319.289 390.377,319.16 "/>
<polygon fill-rule="evenodd" clip-rule="evenodd" points="390.138,314.964 388.732,314.409 389.712,313.985 "/>
<polygon fill-rule="evenodd" clip-rule="evenodd" points="391.284,307.663 390.803,307.46 390.286,308.07 390.174,306.961 "/>
<polygon fill-rule="evenodd" clip-rule="evenodd" points="390.6,305.205 389.953,305.501 389.527,304.502 "/>
<path fill-rule="evenodd" clip-rule="evenodd" d="M386.848,306.443l-1.406-0.555L386.848,306.443z"/>
<polygon fill-rule="evenodd" clip-rule="evenodd" points="156.651,121.9 158.554,121.9 156.651,122.843 "/>
<rect x="170.865" y="123.084" width="0.463" height="0.481"/>
<polygon fill-rule="evenodd" clip-rule="evenodd" points="518.97,300.972 519.487,301.416 519.321,302.155 518.49,302.173 
	518.693,301.083 "/>
<polygon fill-rule="evenodd" clip-rule="evenodd" points="512.39,304.058 511.817,304.299 511.577,303.726 "/>
<path fill-rule="evenodd" clip-rule="evenodd" d="M518.97,300.972l0.276-0.129L518.97,300.972z"/>
<polygon fill-rule="evenodd" clip-rule="evenodd" points="637.1,313.688 637.229,315.075 637.857,314.317 638.43,314.539 "/>
<polygon fill-rule="evenodd" clip-rule="evenodd" points="625.178,316.35 624.789,316.517 624.956,316.923 625.344,316.739 "/>
<polygon fill-rule="evenodd" clip-rule="evenodd" points="636.305,310.731 636.822,311.914 637.617,311.582 "/>
<path fill-rule="evenodd" clip-rule="evenodd" d="M631.333,312.394l1.718,0.684L631.333,312.394z"/>
<polygon fill-rule="evenodd" clip-rule="evenodd" points="633.348,306.073 633.754,305.907 633.348,306.073 632.959,306.24 
	632.663,307.793 633.847,307.755 634.105,306.702 "/>
<polygon fill-rule="evenodd" clip-rule="evenodd" points="638.432,314.539 637.859,314.317 637.23,315.075 637.1,313.689 "/>
<polygon fill-rule="evenodd" clip-rule="evenodd" points="625.345,316.738 624.956,316.923 624.79,316.517 625.178,316.35 "/>
<polygon fill-rule="evenodd" clip-rule="evenodd" points="637.618,311.582 636.823,311.914 636.305,310.731 "/>
<path fill-rule="evenodd" clip-rule="evenodd" d="M633.053,313.079l-1.719-0.684L633.053,313.079z"/>
<polygon fill-rule="evenodd" clip-rule="evenodd" points="633.348,306.073 634.105,306.702 633.847,307.755 632.663,307.793 
	632.959,306.24 "/>
<path fill-rule="evenodd" clip-rule="evenodd" d="M633.348,306.073l0.406-0.166L633.348,306.073z"/>
<path fill-rule="evenodd" clip-rule="evenodd" d="M512.741,302.561l-1.091-0.203L512.741,302.561z"/>
<polygon fill-rule="evenodd" clip-rule="evenodd" points="511.078,302.598 510.8,302.728 510.56,302.155 510.838,302.043 "/>
<polygon fill-rule="evenodd" clip-rule="evenodd" points="511.984,301.545 511.687,301.675 511.577,301.397 511.854,301.268 "/>
<polygon fill-rule="evenodd" clip-rule="evenodd" points="527.084,293.024 526.807,293.135 526.566,292.58 526.844,292.451 "/>
<polygon fill-rule="evenodd" clip-rule="evenodd" points="515.199,295.796 515.272,296.776 514.348,296.166 "/>
<polygon fill-rule="evenodd" clip-rule="evenodd" points="163.638,121.309 165.541,121.309 163.175,122.973 "/>
<polygon fill-rule="evenodd" clip-rule="evenodd" points="515.199,295.796 515.347,295.39 515.475,295.686 "/>
<rect x="167.057" y="133.97" width="0.961" height="1.183"/>
<polygon fill-rule="evenodd" clip-rule="evenodd" points="516.826,292.58 515.901,291.97 516.345,291.453 "/>
<polygon fill-rule="evenodd" clip-rule="evenodd" points="523.739,287.589 523.166,287.83 522.926,287.275 "/>
<polygon fill-rule="evenodd" clip-rule="evenodd" points="517.103,290.103 515.272,290.547 514.793,289.419 514.829,288.754 
	516.899,288.846 "/>
<rect x="185.06" y="141.771" width="0.463" height="0.961"/>
<polygon fill-rule="evenodd" clip-rule="evenodd" points="513.666,289.919 513.093,290.159 513.426,289.346 "/>
<path fill-rule="evenodd" clip-rule="evenodd" d="M68.834,270.474l-0.943-1.423L68.834,270.474z"/>
<rect x="69.777" y="269.993" width="0.481" height="0.481"/>
<rect x="69.296" y="272.599" width="0.481" height="0.943"/>
<polygon fill-rule="evenodd" clip-rule="evenodd" points="67.411,280.177 68.834,280.177 67.411,278.736 "/>
<polygon fill-rule="evenodd" clip-rule="evenodd" points="63.159,288.458 63.639,287.035 62.678,287.498 62.216,287.035 "/>
<polygon fill-rule="evenodd" clip-rule="evenodd" points="62.678,291.766 62.678,290.343 61.735,290.343 "/>
<path fill-rule="evenodd" clip-rule="evenodd" d="M68.353,292.247l-1.424-1.441L68.353,292.247z"/>
<polygon fill-rule="evenodd" clip-rule="evenodd" points="63.64,297.681 63.159,297.681 64.101,297.681 65.044,296.258 
	63.861,295.796 63.159,296.739 "/>
<polygon fill-rule="evenodd" clip-rule="evenodd" points="70.257,306.202 69.777,306.202 69.777,306.683 70.257,306.202 
	71.68,306.202 70.719,304.779 "/>
<polygon fill-rule="evenodd" clip-rule="evenodd" points="40.314,304.077 41.256,303.615 40.314,302.192 "/>
<polygon fill-rule="evenodd" clip-rule="evenodd" points="43.141,308.809 44.101,307.866 43.141,307.866 "/>
<polygon fill-rule="evenodd" clip-rule="evenodd" points="32.254,316.627 34.157,315.907 32.254,315.685 "/>
<path fill-rule="evenodd" clip-rule="evenodd" d="M67.892,269.05l0.942,1.424L67.892,269.05z"/>
<rect x="69.777" y="269.993" width="0.481" height="0.481"/>
<rect x="69.296" y="272.599" width="0.481" height="0.943"/>
<polygon fill-rule="evenodd" clip-rule="evenodd" points="55.821,292.21 57.244,293.634 55.821,293.634 "/>
<polygon fill-rule="evenodd" clip-rule="evenodd" points="51.589,294.631 53.011,296.055 51.589,296.055 "/>
<polygon fill-rule="evenodd" clip-rule="evenodd" points="62.217,287.035 62.678,287.498 63.64,287.035 63.159,288.459 "/>
<polygon fill-rule="evenodd" clip-rule="evenodd" points="61.736,290.343 62.678,290.343 62.678,291.767 "/>
<polygon fill-rule="evenodd" clip-rule="evenodd" points="53.012,300.935 52.532,299.992 53.233,299.049 54.435,299.511 
	53.474,300.935 "/>
<polygon fill-rule="evenodd" clip-rule="evenodd" points="35.415,301.914 34.953,300.972 35.654,300.029 36.838,300.51 
	35.895,301.914 "/>
<polygon fill-rule="evenodd" clip-rule="evenodd" points="49.666,307.866 49.666,306.443 51.089,307.866 "/>
<polygon fill-rule="evenodd" clip-rule="evenodd" points="41.736,307.866 42.198,306.443 43.141,307.866 "/>
<polygon fill-rule="evenodd" clip-rule="evenodd" points="70.257,306.202 69.777,306.683 69.777,306.202 "/>
<polygon fill-rule="evenodd" clip-rule="evenodd" points="40.314,302.192 41.256,303.616 40.314,304.078 "/>
<polygon fill-rule="evenodd" clip-rule="evenodd" points="44.99,291.434 47.817,291.897 47.817,293.801 47.356,294.743 
	44.509,293.32 "/>
<polygon fill-rule="evenodd" clip-rule="evenodd" points="43.141,307.866 44.101,307.866 43.141,308.809 "/>
<polygon fill-rule="evenodd" clip-rule="evenodd" points="32.254,315.685 34.157,315.907 32.254,316.628 "/>
<polygon fill-rule="evenodd" clip-rule="evenodd" points="218.165,295.131 219.144,294.022 217.055,294.133 "/>
<polygon fill-rule="evenodd" clip-rule="evenodd" points="190.79,318.92 191.455,317.977 189.792,317.09 "/>
<polygon fill-rule="evenodd" clip-rule="evenodd" points="192.916,323.06 194.283,322.876 193.507,322.284 "/>
<polygon fill-rule="evenodd" clip-rule="evenodd" points="188.017,324.705 186.335,323.411 187.185,325.223 "/>
<polygon fill-rule="evenodd" clip-rule="evenodd" points="186.853,316.073 185.835,316.535 184.874,315.741 185.447,314.52 
	186.871,315.574 "/>
<polygon fill-rule="evenodd" clip-rule="evenodd" points="195.041,317.995 196.501,317.644 195.392,319.493 "/>
<polygon fill-rule="evenodd" clip-rule="evenodd" points="191.77,322.653 192.046,321.046 193.303,322.432 "/>
<polygon fill-rule="evenodd" clip-rule="evenodd" points="208.571,303.264 208.534,302.228 208.034,302.765 207.61,302.561 "/>
<polygon fill-rule="evenodd" clip-rule="evenodd" points="207.352,305.334 208.294,305.205 208.22,304.576 "/>
<path fill-rule="evenodd" clip-rule="evenodd" d="M210.716,305.611l1.053-0.72L210.716,305.611z"/>
<polygon fill-rule="evenodd" clip-rule="evenodd" points="208.516,308.679 208.404,308.384 208.516,308.679 208.645,308.957 
	209.754,309.197 209.754,308.347 208.995,308.143 "/>
<polygon fill-rule="evenodd" clip-rule="evenodd" points="212.859,313.947 212.859,313.633 212.527,313.652 212.859,313.947 
	212.915,314.908 213.839,314.225 "/>
<polygon fill-rule="evenodd" clip-rule="evenodd" points="204.838,306.073 203.544,306.203 204.117,305.482 "/>
<polygon fill-rule="evenodd" clip-rule="evenodd" points="202.102,307.423 200.882,307.922 201.233,307.072 "/>
<polygon fill-rule="evenodd" clip-rule="evenodd" points="207.74,303.282 208.091,302.987 207.831,302.322 208.756,302.746 "/>
<polygon fill-rule="evenodd" clip-rule="evenodd" points="208.238,304.668 208.219,305.26 207.313,305.241 "/>
<polygon fill-rule="evenodd" clip-rule="evenodd" points="201.659,310.195 202.324,310.011 202.823,310.565 202.398,311.249 
	201.603,310.491 "/>
<polygon fill-rule="evenodd" clip-rule="evenodd" points="212.952,314.631 212.545,314.779 212.674,314.502 "/>
<path d="M402.67,116.115l-0.37-0.536l0.666,0.13L402.67,116.115z M403.447,116.319l-0.167-0.554l0.648,0.129L403.447,116.319
	 M402.523,117.15l0.406-0.554l0.24-0.037L402.523,117.15"/>
<path d="M406.902,117.095l-0.684-0.166l0.703,0.074L406.902,117.095z M406.348,117.742l-0.444-0.85l0.149,0.019L406.348,117.742
	 M406.774,118.518l-0.093-0.148l0.166-0.684L406.774,118.518"/>
<path d="M408.381,113.305l-0.795-1.885L408.381,113.305z"/>
<path d="M412.447,117.798l-0.684-0.906l0.573-1.128l1.349,0.278l-0.758,1.682L412.447,117.798z M411.93,117.89l0.517-0.092
	L411.93,117.89"/>
<path d="M422.244,112.789 M423.759,113.047l-0.406-0.074l-0.019-0.074l-0.055,0.056l-1.035-0.166l0.758-1.442L423.759,113.047
	 M421.653,113.195l0.073-0.499l0.518,0.093L421.653,113.195"/>
<polygon points="406.847,124.821 405.904,123.638 407.086,122.714 "/>
<polygon points="408.659,129.553 407.42,128.721 408.251,127.482 "/>
<polygon points="403.687,117.187 403.354,116.541 403.169,116.559 402.929,116.596 402.226,116.707 402.669,116.116 
	402.966,115.709 403.187,115.395 403.28,115.764 403.447,116.319 "/>
<polygon points="406.644,118.537 406.347,117.742 406.052,116.91 406.034,116.873 406.219,116.929 406.902,117.095 406.976,117.113 
	406.847,117.687 406.68,118.371 "/>
<polygon points="412.947,129.312 412.484,129.109 412.41,128.037 413.464,127.408 414.407,128.333 "/>
<polygon points="423.428,113.583 423.038,113.287 423.279,112.954 423.335,112.899 423.353,112.973 "/>
<path d="M257.609,127.372l-0.388-0.777l0.406,0.536L257.609,127.372z M258.478,127.372l-0.315-0.37l0.592-0.222L258.478,127.372
	 M258.072,128.259l-0.297-0.573l0.555-0.019L258.072,128.259"/>
<path d="M255.797,130.108l0.85-0.222l-0.036,0.13L255.797,130.108z M255.76,130.625l-0.851-0.296l0.185-0.056L255.76,130.625
	 M256.315,130.828l-0.092-0.037l0.332-0.628L256.315,130.828"/>
<path d="M259.457,133.083l2.014-0.296L259.457,133.083z"/>
<path d="M254.245,135.875l0.037-0.499L254.245,135.875z M255.613,137.482l-1.406-1.109l0.037-0.499l1.036-0.425l0.924,0.813
	L255.613,137.482"/>
<polygon points="256.094,147.759 256.26,147.39 256.333,147.39 256.278,147.316 256.703,146.373 256.445,145.708 256.906,145.911 
	256.703,146.373 257.887,147.427 "/>
<polygon points="250.844,129.626 248.921,128.906 250.251,128.296 "/>
<polygon points="246.039,129.626 243.967,129.516 245.058,128.536 "/>
<polygon points="256.906,127.723 257.59,127.557 257.608,127.372 257.626,127.131 257.701,126.448 258.163,127.002 258.477,127.372 
	258.699,127.649 258.329,127.667 257.775,127.686 "/>
<polygon points="256.185,130.865 255.76,130.625 255.094,130.274 254.927,130.2 255.796,130.108 256.61,130.015 256.629,130.015 
	256.554,130.163 256.221,130.791 "/>
<polygon points="243.764,135.264 243.191,133.638 243.487,133.25 244.54,133.453 244.873,134.581 "/>
<polygon points="256.334,147.39 256.26,147.39 255.649,147.335 256.038,147.02 256.278,147.316 "/>
<path d="M252.747,133.102l-0.036-0.166l0.148-0.185L252.747,133.102z M252.563,133.176l0.018-0.351l0.018,0.24L252.563,133.176
	 M252.563,133.619v-0.258l0.111-0.074L252.563,133.619"/>
<path d="M251.86,135.117l-0.13-0.055l0.037-0.055L251.86,135.117z M251.952,135.172l-0.019-0.018l0.167-0.444l-0.167,0.13
	l0.185-0.204L251.952,135.172"/>
<path d="M252.323,136.041l0.424-0.369L252.323,136.041z"/>
<path d="M251.01,138.074l0.055-0.277L251.01,138.074z M251.103,138.776l-0.167-0.443l0.074-0.259l0.24-0.333l0.091,0.333
	L251.103,138.776"/>
<path d="M250.363,143.379l0.019-0.332l0.073,0.055L250.363,143.379z M250.087,144.174l0.073-0.203l0.018-0.019v-0.037l0.185-0.536
	l0.112,0.444L250.087,144.174"/>
<polygon points="251.01,135.117 250.714,134.932 251.029,134.47 "/>
<polygon points="249.679,135.782 249.993,135.153 250.067,135.634 "/>
<polygon points="252.397,133.471 252.545,133.305 252.563,133.176 252.6,133.065 252.673,132.695 252.711,132.935 252.748,133.102 
	252.748,133.231 252.673,133.287 252.563,133.361 "/>
<polygon points="251.916,135.209 251.86,135.117 251.767,135.005 251.749,134.987 251.934,134.839 252.1,134.71 251.934,135.153 "/>
<polygon points="249.033,138.868 249.088,138.074 249.181,137.833 249.365,137.815 249.309,138.388 "/>
<polygon points="250.067,143.988 250.159,143.785 250.178,143.915 250.178,143.952 250.159,143.97 "/>
<polygon fill-rule="evenodd" clip-rule="evenodd" points="560.244,128.24 560.207,127.131 559.671,127.705 559.209,127.502 "/>
<polygon fill-rule="evenodd" clip-rule="evenodd" points="558.914,130.496 559.949,130.367 559.856,129.683 "/>
<path fill-rule="evenodd" clip-rule="evenodd" d="M562.574,130.81l1.145-0.795L562.574,130.81z"/>
<polygon fill-rule="evenodd" clip-rule="evenodd" points="560.207,134.118 560.058,133.804 560.207,134.118 560.336,134.451 
	561.537,134.691 561.537,133.767 560.706,133.546 "/>
<polygon fill-rule="evenodd" clip-rule="evenodd" points="564.921,139.867 564.901,139.516 564.55,139.535 564.921,139.867 
	564.957,140.902 565.973,140.163 "/>
<polygon fill-rule="evenodd" clip-rule="evenodd" points="556.196,131.309 554.773,131.438 555.419,130.662 "/>
<polygon fill-rule="evenodd" clip-rule="evenodd" points="553.22,132.75 551.907,133.323 552.277,132.381 "/>
<polygon fill-rule="evenodd" clip-rule="evenodd" points="559.358,128.277 559.727,127.963 559.449,127.242 560.447,127.686 "/>
<polygon fill-rule="evenodd" clip-rule="evenodd" points="559.893,129.775 559.874,130.422 558.895,130.404 "/>
<polygon fill-rule="evenodd" clip-rule="evenodd" points="552.74,135.782 553.46,135.579 554.015,136.188 553.534,136.928 
	552.683,136.114 "/>
<polygon fill-rule="evenodd" clip-rule="evenodd" points="564.995,140.606 564.55,140.773 564.698,140.458 "/>
<polygon fill-rule="evenodd" clip-rule="evenodd" points="701.146,123.546 701.109,121.919 700.314,122.751 699.648,122.437 "/>
<polygon fill-rule="evenodd" clip-rule="evenodd" points="699.225,126.799 700.703,126.633 700.592,125.634 "/>
<path fill-rule="evenodd" clip-rule="evenodd" d="M704.548,127.261l1.645-1.146L704.548,127.261z"/>
<polygon fill-rule="evenodd" clip-rule="evenodd" points="701.091,132.067 700.906,131.623 701.091,132.067 701.275,132.529 
	703.031,132.899 703.031,131.549 701.811,131.235 "/>
<polygon fill-rule="evenodd" clip-rule="evenodd" points="707.93,140.403 707.911,139.904 707.412,139.923 707.93,140.403 
	708.003,141.918 709.463,140.828 "/>
<polygon fill-rule="evenodd" clip-rule="evenodd" points="695.268,127.982 693.216,128.185 694.158,127.039 "/>
<polygon fill-rule="evenodd" clip-rule="evenodd" points="690.962,130.089 689.058,130.902 689.594,129.534 "/>
<polygon fill-rule="evenodd" clip-rule="evenodd" points="699.871,123.582 700.407,123.12 700,122.085 701.461,122.732 "/>
<polygon fill-rule="evenodd" clip-rule="evenodd" points="700.629,125.764 700.61,126.707 699.188,126.67 "/>
<polygon fill-rule="evenodd" clip-rule="evenodd" points="690.279,134.488 691.295,134.192 692.108,135.061 691.424,136.152 
	690.204,134.95 "/>
<polygon fill-rule="evenodd" clip-rule="evenodd" points="708.06,141.475 707.412,141.715 707.615,141.272 "/>
<polygon fill-rule="evenodd" clip-rule="evenodd" points="191.419,316.868 190.586,318.439 189.68,317.811 "/>
<polygon fill-rule="evenodd" clip-rule="evenodd" points="195.467,305.759 198.109,307.053 197.555,308.902 196.816,309.678 
	194.468,307.46 "/>
<polygon fill-rule="evenodd" clip-rule="evenodd" points="321.156,301.545 322.561,300.122 321.156,300.122 "/>
<polygon fill-rule="evenodd" clip-rule="evenodd" points="321.156,300.122 322.561,300.122 321.156,301.545 "/>
<polygon fill-rule="evenodd" clip-rule="evenodd" points="406.571,282.654 407.55,281.564 405.46,281.656 "/>
<polygon fill-rule="evenodd" clip-rule="evenodd" points="401.82,290.547 401.783,288.902 400.987,289.752 400.322,289.438 "/>
<polygon fill-rule="evenodd" clip-rule="evenodd" points="399.897,293.8 401.395,293.616 401.265,292.636 "/>
<path fill-rule="evenodd" clip-rule="evenodd" d="M405.221,294.262l1.645-1.146L405.221,294.262z"/>
<polygon fill-rule="evenodd" clip-rule="evenodd" points="401.765,299.068 401.58,298.625 401.765,299.068 401.948,299.53 
	403.705,299.9 403.705,298.551 402.484,298.236 "/>
<polygon fill-rule="evenodd" clip-rule="evenodd" points="408.603,307.404 408.584,306.887 408.086,306.924 408.603,307.404 
	408.677,308.902 410.137,307.829 "/>
<polygon fill-rule="evenodd" clip-rule="evenodd" points="379.196,306.461 379.86,305.501 378.197,304.613 "/>
<polygon fill-rule="evenodd" clip-rule="evenodd" points="395.942,294.964 393.89,295.168 394.832,294.04 "/>
<polygon fill-rule="evenodd" clip-rule="evenodd" points="391.635,297.09 389.73,297.904 390.266,296.536 "/>
<polygon fill-rule="evenodd" clip-rule="evenodd" points="400.544,290.565 401.08,290.122 400.673,289.068 402.133,289.715 "/>
<polygon fill-rule="evenodd" clip-rule="evenodd" points="401.302,292.746 401.283,293.707 399.86,293.689 "/>
<polygon fill-rule="evenodd" clip-rule="evenodd" points="390.951,301.471 391.968,301.194 392.781,302.063 392.096,303.153 
	390.859,301.952 "/>
<polygon fill-rule="evenodd" clip-rule="evenodd" points="375.258,303.615 374.241,304.059 373.28,303.264 373.853,302.044 
	375.294,303.116 "/>
<polygon fill-rule="evenodd" clip-rule="evenodd" points="379.824,304.391 378.991,305.963 378.086,305.334 "/>
<polygon fill-rule="evenodd" clip-rule="evenodd" points="379.048,311.618 378.215,313.208 377.309,312.561 "/>
<polygon fill-rule="evenodd" clip-rule="evenodd" points="383.89,293.282 386.514,294.576 385.96,296.425 385.22,297.201 
	382.872,295.001 "/>
<polygon fill-rule="evenodd" clip-rule="evenodd" points="194.32,322.856 193.71,323.688 193.507,322.247 "/>
<polygon fill-rule="evenodd" clip-rule="evenodd" points="649.318,296.702 649.262,295.075 648.468,295.907 647.82,295.593 "/>
<polygon fill-rule="evenodd" clip-rule="evenodd" points="647.396,299.955 648.874,299.771 648.763,298.791 "/>
<path fill-rule="evenodd" clip-rule="evenodd" d="M652.701,300.436l1.663-1.164L652.701,300.436z"/>
<polygon fill-rule="evenodd" clip-rule="evenodd" points="649.244,305.223 649.059,304.779 649.244,305.223 649.428,305.685 
	651.184,306.055 651.184,304.705 649.983,304.391 "/>
<polygon fill-rule="evenodd" clip-rule="evenodd" points="656.083,313.559 656.064,313.061 655.565,313.079 656.083,313.559 
	656.174,315.075 657.635,313.985 "/>
<polygon fill-rule="evenodd" clip-rule="evenodd" points="628.82,316.738 630.187,316.573 629.411,315.962 "/>
<polygon fill-rule="evenodd" clip-rule="evenodd" points="643.441,301.138 641.388,301.323 642.312,300.196 "/>
<polygon fill-rule="evenodd" clip-rule="evenodd" points="639.115,303.245 637.211,304.058 637.765,302.69 "/>
<polygon fill-rule="evenodd" clip-rule="evenodd" points="648.024,296.739 648.578,296.277 648.172,295.242 649.614,295.889 "/>
<polygon fill-rule="evenodd" clip-rule="evenodd" points="648.801,298.902 648.781,299.863 647.34,299.826 "/>
<polygon fill-rule="evenodd" clip-rule="evenodd" points="638.45,307.644 639.466,307.33 640.28,308.217 639.577,309.308 
	638.357,308.107 "/>
<polygon fill-rule="evenodd" clip-rule="evenodd" points="635.344,314.871 636.841,314.52 635.713,316.369 "/>
<polygon fill-rule="evenodd" clip-rule="evenodd" points="627.673,316.35 627.95,314.743 629.189,316.111 "/>
<polygon fill-rule="evenodd" clip-rule="evenodd" points="656.213,314.631 655.583,314.871 655.768,314.428 "/>
<polygon fill-rule="evenodd" clip-rule="evenodd" points="631.37,299.456 634.013,300.731 633.459,302.58 632.72,303.375 
	630.353,301.157 "/>
<polygon fill-rule="evenodd" clip-rule="evenodd" points="630.224,316.553 629.614,317.367 629.392,315.925 "/>
<polygon fill-rule="evenodd" clip-rule="evenodd" points="190.439,331.913 190.014,329.918 191.381,331.599 "/>
<rect x="578.451" y="1.423" width="0.463" height="0.481"/>
<rect x="582.222" y="3.326" width="0.481" height="0.943"/>
<polygon fill-rule="evenodd" clip-rule="evenodd" points="573.941,7.818 573.941,8.299 574.44,8.761 574.901,8.761 575.382,8.299 
	575.382,7.818 574.901,7.357 574.44,7.357 "/>
<rect x="571.113" y="9.721" width="0.481" height="0.943"/>
<rect x="578.21" y="18.002" width="0.481" height="0.463"/>
<polygon fill-rule="evenodd" clip-rule="evenodd" points="577.491,27.947 578.451,28.89 577.97,27.467 "/>
<path fill-rule="evenodd" clip-rule="evenodd" d="M577.491,29.353l1.663-0.461L577.491,29.353z"/>
<polygon fill-rule="evenodd" clip-rule="evenodd" points="572.056,40.48 574.903,40.48 574.903,40.018 "/>
<rect x="578.451" y="1.423" width="0.463" height="0.481"/>
<rect x="582.222" y="3.326" width="0.481" height="0.943"/>
<polygon fill-rule="evenodd" clip-rule="evenodd" points="574.44,7.357 574.901,7.357 575.382,7.819 575.382,8.3 574.901,8.762 
	574.44,8.762 573.94,8.3 573.94,7.819 "/>
<rect x="571.113" y="9.721" width="0.481" height="0.943"/>
<polygon fill-rule="evenodd" clip-rule="evenodd" points="577.97,27.466 578.449,28.89 577.489,27.947 "/>
<polygon fill-rule="evenodd" clip-rule="evenodd" points="574.903,40.017 574.903,40.48 572.055,40.48 "/>
<polygon fill-rule="evenodd" clip-rule="evenodd" points="417.457,7.597 417.457,6.655 416.107,6.618 "/>
<polygon fill-rule="evenodd" clip-rule="evenodd" points="389.232,8.373 390.672,9.298 392.133,7.857 390.672,6.933 "/>
<polygon fill-rule="evenodd" clip-rule="evenodd" points="412.078,8.799 412.817,8.818 412.817,8.337 412.078,8.337 "/>
<polygon fill-rule="evenodd" clip-rule="evenodd" points="148.591,31.736 148.591,31.053 147.63,30.091 "/>
<polygon fill-rule="evenodd" clip-rule="evenodd" points="140.07,39.166 140.07,38.427 139.127,38.077 "/>
<path d="M459.84,67.946c12.532-9.87,18.187-16.191,26.247-29.389l0.942-1.515v10.554c0,3.161-0.129,13.955-0.573,34.398l1.461,1.387
	l0.406,0.019c2.921,0,5.139-0.148,6.137-0.37l1.238-1.386c-0.443-17.264-0.443-18.355-0.443-46.449V21.812l27.208,1.257l0.98-1.719
	l0.388,0.314l-0.111-1.053l-1.368-1.313l-27.097,0.204V5.434l-0.573-1.09l-5.785-4.14l-1.46-0.074l-0.684,1.312
	c0.203,2.292,0.276,4.51,0.276,9.094v8.946l-0.831,0.037c-7.818,0.296-14.897,0.443-19.906,0.443c-2.773,0-5.01-0.037-6.655-0.13
	l-1.072,0.463l-0.333,1.146l2.033,4.103c2.903-1.59,0.758-0.924,5.49-3.142h18.503l-0.278,3.142
	c-3.179,7.708-4.288,9.778-6.691,14.27c-5.564,9.814-11.33,17.615-19.297,26.136v1.848L459.84,67.946"/>
<path d="M478.528,97.409l-2.31,4.437c-2.662,4.547-6.23,8.355-9.834,10.462c-3.364,2.033-3.419,2.07-4.121,2.772l-1.239,3.438
	c0,4.805,1.755,8.281,4.178,8.281c4.454,0,8.557-6.765,10.609-10.795c2.921-5.711,4.455-10.905,5.324-17.929l-0.998-1.478
	L478.528,97.409"/>
<path d="M419.989,10.221l-2.7,0.074L419.989,10.221z"/>
<polygon points="557.398,126.244 557.416,126.134 557.471,125.505 555.679,126.226 557.213,128.13 557.305,127.816 "/>
<polygon points="553.701,124.396 553.552,126.429 555.679,126.226 "/>
<polygon points="412.522,20.276 412.983,20.055 412.761,19.612 412.317,19.833 "/>
<polygon points="552.334,125.043 551.871,125.265 552.093,125.708 552.555,125.505 "/>
<path d="M553.831,129.349l-1.11-1.146L553.831,129.349z"/>
<polygon points="416.034,19.167 415.331,19.167 415.479,19.427 "/>
<path d="M341.119,87.114l-0.37,1.738c4.14,7.375,5.675,10.72,7.966,16.488l0.518,1.275l0.13,0.222l0.166,0.536l0.037,0.148
	l0.684,2.181c1.109,3.586,2.403,7.652,3.494,12.181l0.702,1.737l1.109,0.573l0.315-0.037c2.403-0.573,5.49-5.693,5.49-10.333
	c0-6.358-3.975-12.088-18.447-26.598L341.119,87.114"/>
<path d="M528.841,101.457c1.773,2.754,3.511,5.675,4.417,7.449l0.943,1.571l1.054,0.499l0.831-0.278
	c1.164-0.887,2.866-4.177,2.866-7.763c0-2.625-0.906-4.178-3.734-6.396c-3.53-2.828-8.096-5.397-13.585-7.634l-1.664,0.518
	l0.259,1.755C523.98,94.489,526.012,97.133,528.841,101.457"/>
<polygon points="684.567,125.634 682.552,124.932 683.198,126.3 "/>
<path d="M307.404,49.444l0.72,0.185l1.054-0.499c3.919-4.898,6.415-8.871,20.758-31.903l2.07-3.364l-0.259-1.718l-6.931-6.155
	l-1.294-0.278l-0.924,0.961c-1.442,5.397-4.03,12.939-7.301,21.275c-1.94,5.452-3.66,9.242-7.781,18.373l-0.628,1.405
	L307.404,49.444"/>
<polygon points="418.196,20.591 418.196,20.463 418.14,20.388 417.438,22.403 418.14,22.07 "/>
<path d="M339.733,14.584h0.036c1.073-0.018,0.703,0.056,6.506,0.222c4.418,0.13,10.185,0.258,17.282,0.333
	c15.434,0.13,28.614,0.055,40.629-0.203c10.702-0.259,19.186-0.518,25.987-1.368c4.14-0.517,3.549-1.645,3.937-3.881l0.037-0.278
	l0.018-1.812V6.951l-0.018-0.167l-0.425,0.869l-0.148,0.666l0.092,0.869l-0.333,0.481l-0.055,1.036l-0.296,0.443l-0.278-0.869
	l-0.166,0.795l-0.463-0.481l-0.573-0.481l0.055-0.518l0.573-0.443l-0.037-0.648c-10.258,3.124-3.272,1.94-18.188,2.385
	c-23.456,0.666-43.104,1.682-58.279,1.294c-13.142-0.388-13.678-0.666-15.49-0.906l-0.518-0.074l-0.24,0.278l-0.055,0.758
	l0.055,1.405L339.733,14.584"/>
<path d="M407.827,20.517c-0.185,15.49-0.481,29.334-1.294,41.478c-1.146,17.467-3.051,34.491-5.009,44.398
	c-2.127,9.87-2.607,11.146-6.396,11.146c-2.699,0-5.546-0.204-11.387-0.628l-5.508-0.425l-1.442,1.109l0.979,1.553
	c2.939,0.776,4.676,1.516,6.321,2.606c2.367,1.811,3.476,3.678,4.252,7.172l1.33,1.072l0.222-0.037
	c2.255-0.388,4.158-0.795,5.822-1.239l0.406-0.148l-0.979-0.831l-1.016,1.312l-0.851-1.386l0.518-2.237
	c1.848-0.148,2.292-1.165,3.272-1.83c0.646,1.257,2.366,0.776,2.717,2.532l-1.385-0.222l0.203,1.885l2.273-0.98l0.407-1.035
	l1.94-0.462c1.572-1.238,2.606-2.699,3.567-4.473c2.902-5.231,5.064-15.489,7.209-34.306c1.627-14.288,2.736-30.35,3.993-60.756
	l-0.167-0.222l0.185-0.185l0.111-2.717l-0.684-0.258l-0.481,1.349l-0.461,0.203l-1.331-0.481l0.258-1.793l-1.552-0.925l-1.146,1.091
	l-0.997-0.906l-0.518-1.775h-2.033L407.827,20.517"/>
<path d="M313.171,70.183c1.811,3.328,2.31,4.011,2.772,4.325l0.684,0.24h0.315l1.96-1.368c1.072-2.292,1.773-5.305,1.773-7.634
	c0-4.399-2.439-7.282-12.384-14.732l-2.699-1.959c-3.567-2.569-6.1-4.233-9.315-6.119l-1.757,0.333l0.092,1.775
	C301.988,52.716,307.885,60.701,313.171,70.183"/>
<polygon points="632.369,294.521 631.869,293.801 631.278,295.907 631.426,296.074 "/>
<path d="M685.528,122.954l1.09,1.146L685.528,122.954z"/>
<path d="M634.79,297.256l-1.11-1.146L634.79,297.256z"/>
<polygon points="686.489,119.165 686.34,121.161 688.485,120.977 "/>
<polygon points="633.293,292.95 632.83,293.172 633.053,293.616 633.496,293.412 "/>
<path d="M629.911,121.494c1.533,4.399,1.737,4.713,2.55,5.841l4.03,1.922c3.382,0,7.819-4.417,13.567-13.53
	c6.949-11.164,11.978-24.38,11.978-31.404c0-2.218-0.499-3.863-1.83-6.063l-1.534-0.462l-0.628,1.478l0.425,2.403
	c0,5.675-4.733,17.172-11.497,27.985c-4.473,7.153-8.799,11.94-10.739,11.94c-0.943,0-2.052-0.869-3.419-2.587
	c-2.255-3.198-3.604-7.652-3.604-11.941c0-13.937,12.329-27.06,28.224-29.906l0.425-0.166l1.312-0.166l3.161-0.166
	c5.878,0,11.718,1.553,15.656,4.159c6.673,4.233,10.222,11.146,10.222,19.981c0,8.41-2.718,15.748-8.06,21.829
	c-4.251,4.935-9.334,8.336-16.487,11.017l-0.721,1.46l1.146,0.85l0.258-0.019c5.102-1.146,8.872-2.514,12.975-4.713l3.216-1.922
	l-0.517-0.388l0.351-1.552l-1.461,0.425l-0.646-1.367l1.146-1.11l2.2,2.292l0.942-2.681l-1.331-0.481l-0.221-0.443l0.481-1.349
	l1.793,0.259l0.924-1.572l-1.109-1.127l0.924-0.998l2.496-1.201l0.888,0.702l0.591-1.128l-1.46-0.702l1.146-1.09l2.254,0.037
	l1.646,2.145c2.494-4.325,3.826-9.168,3.826-14.27c0-8.817-2.939-16.007-8.724-21.331c-5.767-5.342-14.306-8.391-23.438-8.391
	c-11.867,0-23.845,4.879-31.238,12.735c-5.12,5.564-8.17,12.292-8.17,18.003c0,2.884,0.591,5.268,2.089,8.243
	C628.505,117.964,629.078,119.092,629.911,121.494"/>
<polygon points="685.122,119.793 684.677,120.016 684.899,120.478 685.343,120.256 "/>
<polygon points="688.633,122.178 690.11,120.256 688.484,120.977 "/>
<polygon points="566.289,31.385 568.395,30.073 568.71,29.112 567.434,28.576 538.008,28.391 536.659,29.26 536.659,30.573 
	538.008,31.442 565.346,31.645 "/>
<polygon points="551.779,130.884 549.764,130.181 550.41,131.531 "/>
<path d="M527.972,139.867c5.341,0,13.566-2.199,20.017-5.083l-0.776-0.61l0.37-1.571l-1.479,0.425l-0.646-1.367l1.146-1.091
	l2.218,2.292l0.942-2.68l-1.33-0.481l-0.222-0.462l0.463-1.331l1.793,0.258l0.942-1.571l-1.109-1.128l0.925-0.998l2.494-1.201
	l0.888,0.702l0.573-1.128l-1.442-0.702l1.146-1.09l2.254,0.037l0.555,1.146l1.349-19.076l-1.109-1.423l-1.552,0.925
	c-1.83,5.822-3.327,9.852-4.806,13.049c-3.993,8.614-9.131,16.82-19.76,18.668c-1.996,0.37-3.955,0.536-5.822,0.536
	c-6.229,0-11.2-2.07-14.787-6.155c-7.523-8.576-7.06-23.456-6.118-31.57l-0.554-1.275l-5.749-3.974l-1.423-0.074l-0.703,1.238
	c0.037,1.738,0.037,3.531,0.037,6.525l-0.13,19.352C496.567,125.228,507.251,139.867,527.972,139.867"/>
<polygon points="560.282,49.425 538.008,49.222 536.659,50.054 536.659,51.773 538.008,52.623 558.174,52.845 559.264,52.513 
	561.371,50.793 561.501,49.906 "/>
<path d="M527.399,82.012l1.238,1.368l0.961,0.019c5.712,0,5.287-0.573,5.785-1.275l0.259-0.795l1.016-8.059l28.262,0.259
	l1.054-0.518l2.088-0.869l0.148-1.442l-1.22-0.758l-31.348,0.351V9.963h37.3l0.018,61.163l-0.278,1.608l0.26,1.035l0.036,7.523
	l1.424,1.349c4.288,0,3.715-0.536,4.381-0.777l0.924-1.183l0.037-0.369c-0.443-13.142-0.739-35.6-0.739-58.557V11.737l0.296-0.13
	l3.049-1.442l0.61-0.314l0.869-0.407l0.13-1.7l-1.294-1.349c-3.087-2.681-1.794-3.697-4.695-5.933l-1.793,0.111
	c-2.052,2.07-3.049,3.087-5.305,5.619l-0.148,0.166h-33.087l-0.129-0.093c-4.049-2.939-4.566-4.176-8.004-6.247L528.119,0
	l-0.664,1.221c0.258,10.221,0.351,22.679,0.351,44.416c0,13.549-0.111,19.574-0.333,31.589L527.399,82.012"/>
<path d="M570.485,94.249l-0.074,1.738c6.691,8.89,11.146,16.82,14.454,25.692l1.109,1.978l0.943,0.37l0.406-0.056l2.237-1.94
	c1.552-2.163,2.791-6.414,2.791-8.502c0-4.898-6.211-10.924-20.148-19.519L570.485,94.249"/>
<path d="M513.166,56.468l0.646,1.387l0.463,0.702l0.849,0.296l0.536-0.111c1.646-0.721,3.642-4.602,3.642-8.133
	c0-5.157-5.176-9.464-20.554-17.041l-1.737,0.461l0.24,1.775C503.314,41.164,508.969,48.539,513.166,56.468"/>
<polygon points="631.981,299.142 632.738,298.791 631.611,298.199 "/>
<polygon points="506.938,291.859 507.196,293.874 509.266,293.246 "/>
<path d="M508.084,296.684l-1.313-0.887L508.084,296.684z"/>
<path d="M485.755,203.544l1.238-0.258c7.283-1.572,30.424-7.856,38.372-8.909l0.24-2.828c-2.199,0.333-39.019,8.41-39.019,8.41
	l1.109-3.457c6.432-20.369,7.615-23.678,9.741-27.264c1.627-2.625,1.627-2.791,1.627-3.752c0-1.719-0.703-3.253-4.122-5.564
	l-9.851-1.775l-0.092,8.133c0,8.207-3.697,22.754-6.821,33.53l-0.406,1.387l-1.424,0.222c-19.002,3.087-33.899,4.917-40.036,4.972
	l-9.908,2.939c3.236,3.586,6.803,5.785,9.575,5.785c1.276,0,1.497-0.037,4.252-1.201c5.655-2.384,18.817-5.785,32.753-8.465
	l3.937-0.758l-1.367,3.771c-14.14,39.371-34.214,70.128-59.684,91.587c8.945-5.637,18.077-12.92,26.006-20.868
	c19.353-19.352,30.72-38.816,43.456-74.434L485.755,203.544"/>
<polygon points="505.736,299.105 506.401,298.606 504.294,298.328 504.811,299.013 "/>
<path d="M288.957,280.732l-4.307,0.296l2.181-3.734c10.776-18.41,26.784-48.613,40.739-76.93c4.787-9.593,7.688-14.787,9.352-16.82
	c2.496-3.216,2.496-3.253,2.496-4.547c0-1.608-2.033-4.658-7.708-8.41h-5.952c-1.164,8.299-7.449,28.262-15.822,49.851
	c-7.911,20.37-19.574,47.504-25.433,59.222c-1.516,3.031-5.249,3.586-9.205,4.178c-4.695,0.702-9.557,1.423-11.608,5.674
	c-3.845,7.948-3.031,9.63-2.921,9.815l1.182,0.24c1.646,0,4.233-0.647,7.727-1.959l3.697-1.387
	c10.166-3.808,20.683-7.745,31.459-9.704c18.558-3.364,51.736-10.499,68.39-14.196l-0.739-2.329
	C348.4,273.339,307.773,279.438,288.957,280.732"/>
<path d="M539.099,197.333c-2.755-2.329-4.492-3.66-5.879-4.362l-1.312,15.637c-0.518,13.881-6.987,45.636-12.366,60.645
	c-4.454,12.828-7.282,18.188-13.253,18.188c-4.085,0-16.303-3.29-28.521-7.135l3.031,1.627c4.307,2.329,7.93,5.637,11.405,8.835
	c4.215,3.881,7.93,7.301,11.978,8.151l0.111-0.591l-1.423-0.185l-0.296-0.407l0.185-1.405l1.793-0.129l0.591-1.701l-1.312-0.887
	l0.684-1.164l2.2-1.701l1.016,0.499l0.333-1.22l-1.572-0.369l0.906-1.331l2.2-0.425l2.939,2.181l-1.164,3.438l-0.37-1.294
	l-1.737,1.017c-0.185,1.756,1.885,1.59,3.031,1.478l1.238,1.608l2.921-2.366c7.967-7.246,12.44-20.129,19.908-57.411
	c5.009-24.547,5.009-24.547,7.208-28.262c1.461-2.366,1.461-2.736,1.461-3.586C545.032,203.1,543.035,200.623,539.099,197.333"/>
<path d="M355.573,229.107c7.282,9.778,8.632,11.663,11.441,16.248c5.933,9.556,8.854,14.861,12.052,21.903l2.143,5.102
	c2.255,4.898,3.049,7.338,4.861,12.791l0.203,0.666l0.906-0.795l0.888,0.702l0.591-1.128l-1.46-0.702l1.145-1.09l2.255,0.037
	c0.518,1.737,1.572,1.941,2.421,2.736l-1.848,3.124l-0.092-1.35l-1.922,0.629c-0.536,1.7,1.516,1.959,2.662,2.07l0.96,2.052
	l-1.626,3.567l-0.721,0.296l0.203,0.037c2.107,0,6.229-6.248,6.229-13.77C396.865,270.77,382.245,251.99,355.573,229.107"/>
<polygon points="387.162,286.148 387.013,288.163 389.157,287.978 "/>
<polygon points="634.66,292.303 634.511,294.336 636.638,294.133 "/>
<path d="M643.459,291.619c-0.518-4.473-0.518-6.746-0.518-9.371l-0.019-8.355c-0.073-20.739-0.184-50.683,3.364-72.05l-0.924-0.388
	l-1.331-0.887l0.112-0.721l1.294-0.369l-2.07-4.75l0.499-1.017l0.573-1.719l1.201-0.906c0.702,1.904,1.885,0.148,2.717,1.054
	l0.055-0.203l0.074-0.278l0.554-1.737l-0.296-0.592l0.666-0.499l0.203-0.592l0.315-0.887l0.388-1.756l0.13,0.166
	c0.517-1.756,0.591-3.179-0.167-4.861l-0.258,0.166l-0.924-1.183l0.461-0.278l-0.296-0.481
	c-3.457-4.879-14.325-10.332-23.696-10.332l-3.087,0.24l1.164,1.313c3.29,3.715,6.709,7.56,8.632,12.07
	c5.822,13.604,4.695,28.927,3.642,43.77c-0.388,5.064-0.721,9.852-0.795,14.473c-0.036,2.44,0.019,5.822,0.074,9.704
	c0.185,13.475,0.461,31.959-2.348,40.332l-0.518,1.645l2.348-1.164l0.888,0.684l0.572-1.109l-1.442-0.702l1.146-1.09l2.255,0.037
	c0.5,1.738,1.572,1.96,2.421,2.736l-1.866,3.124l-0.074-1.349l-1.94,0.628c-0.536,1.701,1.534,1.959,2.679,2.07l0.961,2.052
	l-1.645,3.567c-2.199,0.61-1.848,2.126-2.699,3.216c2.643,2.939,5.822,5.249,8.04,5.249h0.074v-16.044l-0.296,0.074L643.459,291.619
	"/>
<polygon points="646.342,199.421 646.693,199.644 646.786,199.089 "/>
<path d="M245.261,118.24l-2.182,0.315c-7.56,1.774-17.893,3.068-24.584,3.068c-11.608,0-17.485-3.771-17.485-11.22
	c0-4.825,2.514-8.946,8.133-13.327c6.71-5.102,13.863-8.299,26.451-11.848c4.99-1.387,6.432-1.922,7.153-2.237l2.458-3.512
	c0-2.422-2.699-4.806-5.452-4.806c-1.387,0-2.588,0.351-4.51,1.294c-4.473,2.107-7.523,3.105-9.648,3.105l-1.885-0.222l-0.425-0.055
	l-1.424,0.758l-2.347,4.344c-6.027,3.29-9.667,5.674-12.921,8.484c-7.097,5.915-10.536,11.83-10.536,18.114
	c0,7.19,4.51,13.345,11.793,16.044c4.658,1.663,10.591,2.477,18.188,2.477c4.954,0,12.033-0.425,16.691-0.905l-1.036-0.851
	l0.925-0.979l2.494-1.201l0.888,0.684l0.573-1.109l-1.442-0.702l1.146-1.091l2.236,0.037c0.518,1.682,1.516,1.941,2.348,2.68
	l0.499-1.793C251.36,121.087,248.218,118.24,245.261,118.24"/>
<polygon points="505.643,293.486 506.032,293.172 505.735,292.784 505.329,293.098 "/>
<path d="M657.026,287.904v10.61c11.533-8.502,35.229-24.38,45.044-34.86c8.428-8.909,13.29-14.805,17.93-22.033
	C703.512,258.921,675.01,277.497,657.026,287.904"/>
<path d="M602.591,197.85c-3.161-1.645-7.006-2.661-10.795-2.902c3.9,4.455,6.47,11.405,6.951,13.77
	c3.272,16.543-6.451,39.407-14.048,55.156c-7.634,15.878-15.287,33.308-25.305,43.012l0.093,0.111
	c5.212-1.701,26.136-33.641,29.26-38.816c8.003-13.346,12.699-28.41,17.208-42.975l2.052-6.562l1.534-4.214
	c1.719-4.381,2.496-6.377-0.37-10.887C607.748,201.307,605.473,199.348,602.591,197.85"/>
<path d="M551.723,164.358c-2.034-1.09-5.804-2.31-8.633-3.013l-0.573,0.702c3.789,3.42,6.673,8.189,7.948,12.477
	c0.833,4.473,2.163,7.208,3.9,8.133c2.348,1.238,4.325,0.517,5.915-2.44C563.127,174.913,560.447,169.053,551.723,164.358"/>
<polygon points="198.756,298.624 198.479,299.752 199.107,299.253 "/>
<path d="M108.407,166.391l-1.11,0.592c2.791,4.51,4.455,10.037,5.102,15.194c0.056,3.235,1.036,5.175,2.755,6.1
	c2.495,1.349,4.584,0.443,6.247-2.681C125.245,178.443,120.846,172.048,108.407,166.391"/>
<polygon points="246.87,127.556 245.096,126.207 244.873,127.871 246.518,127.649 "/>
<path d="M23.4,130.255l0.646,0.166l1.127-0.61c7.579-11.645,11.94-22.772,15.009-38.372c2.828-13.993,4.03-37.467,4.03-74.176
	c0-2.421-0.998-1.349-1.368-1.349h-7.503l-0.961,0.407l-0.388,0.96C34.083,22.07,34.12,31.7,34.12,38.964
	c0,27.337-0.942,44.675-3.272,59.85c-1.867,12.237-4.196,20.832-8.058,29.703L23.4,130.255"/>
<path d="M105.876,213.451l0.148-2.55c0.351-2.569,0.684-3.734,2.384-6.211l2.754-0.277l0.5-1.054l-2.274-1.867l0.37-1.904
	c-1.7-0.517-1.552-1.682-1.552-2.828l2.754,0.259l0.093,3.161l4.639-0.961l0.518,0.333l1.239-2.218
	c-0.055-4.344-7.985-11.368-13.438-11.368h-0.037l-0.961,0.296c-2.809,1.552-8.17,18.003-11.367,27.818
	c-2.846,8.724-5.287,16.247-7.246,19.537c-10.646,17.948-24.342,35.341-40.738,51.736c-13.216,13.216-23.733,22.144-36.339,30.683
	c2.458-1.201,4.898-2.477,7.32-3.826v-1.109l1.424-0.481l0.296,0.647l1.608-0.906v-0.203l0.296,0.018l0.666-0.388l-0.018-0.591
	l0.794,0.111l1.775-1.053l-0.203-0.481l1.183-0.463l0.369,0.092c2.33-1.46,4.658-3.013,7.006-4.658l-0.518-1.072l0.481-0.462
	l1.183,0.462l1.182-4.732l0.943-0.463l1.423-0.961h1.424l1.22,1.904c2.81-2.145,5.712-4.455,8.651-6.895l-0.888,0.019v-1.405
	l1.424-0.481l0.518,0.998l0.443-0.351l0.943-0.795v-0.332l0.332,0.037l0.648-0.573l-0.037-0.407l0.5,0.019
	c22.716-19.667,38.945-40.72,55.525-71.976l0.924-1.719L105.876,213.451"/>
<path d="M58.169,82.142h0.018c1.793-0.037,4.639-2.68,6.969-6.451c3.438-5.711,5.84-16.857,6.136-28.391l-1.201-1.387l-1.479,1.054
	c-0.887,3.937-1.978,7.153-3.548,10.37c-1.96,3.937-5.934,8.964-8.595,10.831c-2.403,1.867-2.902,2.255-2.902,4.251
	c0,4.27,2.218,9.26,4.325,9.685L58.169,82.142"/>
<polygon points="158.869,123.102 158.924,123.379 158.942,123.25 "/>
<path d="M29.075,9.778c6.894,1.516,18.427,1.664,34.896,1.719c19.149,0.074,89.462-1.867,94.213-1.627
	c3.548,0.167,5.12,0.297,5.803-1.59l0.037-0.369c0.018-0.13,1.036-4.788-0.813-4.363c-0.758,0.167-3.808,0.831-9.796,1.424
	c-7.875,0.794-20.13,1.515-34.657,2.088C86.8,8.3,55.673,8.318,47.226,8.004c-6.748-0.259-16.913-0.703-18.596-4.713L25.839,8.17
	L29.075,9.778"/>
<path d="M43.345,129.294l1.22,0.777l0.518-0.093c5.452-2.237,10.073-4.658,15.415-8.114c16.118-10.369,27.615-24.898,32.384-40.886
	c2.551-8.373,3.678-14.676,5.323-29.925h1.312l1.018-0.463l0.333-1.072c-0.444-3.475-0.666-7.079-0.666-10.997l-0.037-3.457
	c-0.037-3.993-0.093-10.055,0.055-15.064l-0.37-0.979l-0.961-0.425l-7.263-0.204l-1.018,0.425l-0.388,1.036
	c0.222,3.382,0.333,5.379,0.333,9.002c0,12.033-0.518,22.18-1.552,30.183c-2.699,22.236-9.741,37.818-23.567,52.143
	c-6.82,6.931-13.253,11.811-21.515,16.34L43.345,129.294"/>
<path d="M42.827,205.965c3.511-4.362,6.599-8.206,9.093-10.979l1.146-1.257l4.528,2.218c3.401,1.719,5.878,2.976,8.891,2.976
	l10.055-0.425c2.976-0.647,15.693-3.049,16.617-4.547l0.463-2.107l-1.553,0.407c-5.73,1.516-22.124,3.253-28.206,3.253
	c-3.067,0-5.748-0.425-8.169-1.294l1.534-4.307h-0.74c2.44-1.312,7.043-15.341,6.415-18.022c-1.627-4.75-11.387-8.817-18.225-10.092
	l2.236,2.125c3.419,2.976,4.566,5.102,4.566,8.466c0,4.99-5.046,15.471-13.475,28.021c-7.43,11.09-16.154,20.739-24.602,30.073
	c-4.454,4.917-9.02,9.963-13.4,15.231C13.696,242.175,31.035,220.641,42.827,205.965"/>
<path d="M232.249,161.881l-6.988,1.46c0,4.325-0.055,7.116-0.148,9.408l-0.166,3.586c-0.222,3.678-0.425,7.486-0.425,17.615
	c0,47.171-2.939,64.379-14.381,83.787c-8.096,13.512-18.059,23.918-34.417,35.766c6.303-2.957,12.181-6.302,17.578-9.981
	l-0.036-0.056l0.24-0.092l0.499-0.351l-0.258-0.906h1.515l0.739-0.517l0.463-0.776l-1.109-1.146l0.924-0.998l2.495-1.183
	l0.888,0.684l0.591-1.109l-1.461-0.703l1.146-1.109l2.255,0.037l0.463,1.054c11.257-9.63,19.556-20.887,23.973-33.031
	c4.085-11.423,5.249-20.573,6.229-48.853c0.831-25.618,1.849-38.095,3.494-43.086c1.054-2.994,1.054-2.994,1.054-3.974
	C237.406,166.669,237.406,164.524,232.249,161.881"/>
<polygon points="243.728,126.854 243.266,127.076 243.488,127.52 243.949,127.317 "/>
<path d="M214.431,77.114l0.905,1.368l0.592,0.13l1.016-0.407c0.961-0.925,2.144-2.643,2.236-5.601
	c0.167-4.898-3.808-19.001-5.527-24.824l-1.423-1.072h-4.196l-1.221,0.647l-0.166,1.349
	C211.621,62.161,214.467,72.512,214.431,77.114"/>
<path d="M152.861,129.294l-0.721,0.721l-2.718-2.181l0.37,1.46l-1.109,0.351l-0.721-0.351l0.721-1.275l-0.721-0.555l-0.721,0.37
	c-0.167-1.83-2.125-1.886-2.182-3.826l0.906,0.369l0.906-0.721l-0.37-1.109h0.74l1.811-2.902l0.74,1.09l0.721-0.351v0.721
	l1.996-0.369l0.185-0.721c-10.369-4.381-17.097-8.799-24.232-15.693c-7.228-6.876-12.902-14.824-17.911-24.99l-0.149-0.259
	l-0.203-0.296l-1.072-2.237c-1.239-2.662-2.385-5.342-3.382-7.93l-1.701-0.795l-0.887,1.645c3.031,11.128,7.745,22.68,12.606,30.868
	c8.133,13.438,18.761,23.881,33.4,32.92l0.721,0.203l0.351-0.055l0.831-0.647l2.163-3.142L152.861,129.294"/>
<polygon points="197.389,299.271 196.944,299.475 197.167,299.937 197.61,299.715 "/>
<path d="M165.338,174.469l-8.577,0.333c-0.388,4.88,0.148,7.56,0.795,10.869c0.666,3.419,1.423,7.282,1.423,14.214
	c0,16.765-0.887,27.578-2.643,32.846l-0.203,0.813c-0.461,1.737-0.536,2.107-0.536,2.994c0,1.96,1.146,6.119,3.29,10.019
	c1.922,3.512,3.937,5.545,5.527,5.545l1.719-2.495c0.388-2.088,0.555-4.14,0.555-10.295v-6.673
	c-0.204-7.967-0.204-12.532-0.204-15.12c0-14.399,0.833-29.906,1.794-34.324l0.369-2.625l0.222-1.479
	C168.868,177.685,167.611,176.059,165.338,174.469"/>
<path d="M146.558,39.518c-0.333-0.239-1.054-0.536-3.236-0.536l-2.514,0.074h-0.13v0.666l-1.405-0.61l-3.604-0.13l-1.442,0.813
	c-2.31,5.601-4.713,10.222-11.441,19.962c-4.27,6.377-7.283,10.499-10.407,14.252l0.074,1.811l0.979,0.407l0.833-0.278
	c9.223-7.134,19.278-15.767,30.35-30.591c1.645-2.237,2.163-3.456,2.366-4.029l0.148-0.351L146.558,39.518"/>
<path d="M351.766,47.633l-0.13-1.571l-5.472-6.469l-1.239-0.463l-1.035,0.813c-3.254,7.837-9.797,21.182-17.485,35.766
	c-7.56,14.288-12.681,22.809-20.221,33.715l-0.13,1.257l-1.368,0.148l-0.702-0.129c-5.434,0.462-8.207,0.61-10.278,0.61
	l-0.276,0.019l-0.795,0.222l-0.314,0.093l-0.149,0.093l-0.443,2.163l0.055,0.148c1.387,2.329,2.939,1.885,4.418,2.44l1.164,0.074
	l-0.609,0.554l-0.555-0.628l-1.775,0.481l-0.276,1.313l1.866,2.514l1.054,0.499l0.315-0.037l0.979-0.887l0.333-0.074
	c18.687-3.309,22.494-4.159,46.56-11.22l0.943-1.571l-1.479-1.09c-2.015,0.222-4.546,0.554-11.275,1.423l-2.366,0.314
	c-9.261,1.201-9.261,1.201-15.582,1.663l-2.088,0.166c-1.257,0.093-2.773,0.222-4.455,0.388c4.233-4.88,8.448-10.296,14.769-19.001
	C335.037,75.322,339.751,67.947,351.766,47.633"/>
<path d="M531.151,166.391l-1.128,0.592c2.809,4.51,4.473,10.037,5.102,15.194l0.055,1.054l0.315,0.314l-0.222,0.314l0.055,0.481
	l1.221,0.019l0.461,1.608l-0.887,0.554l1.755,1.756c2.495,1.349,4.585,0.443,6.266-2.681
	C547.989,178.443,543.572,172.048,531.151,166.391"/>
<path d="M128.981,164.358c-2.034-1.09-5.786-2.31-8.614-3.013l-0.573,0.702c3.77,3.42,6.654,8.189,7.948,12.477
	c0.684,3.752,1.737,6.247,3.069,7.523l0.554-3.511l2.809-0.684l2.089,2.44l-1.609,2.772l2.903-2.847
	C140.403,174.913,137.723,169.053,128.981,164.358"/>
<g>
	<path d="M24.928,351.507c0,0.789,0.038,1.165,0.395,1.24c0.075,0.075,0.056,0.395-0.056,0.451c-0.32,0.057-0.809,0.113-1.316,0.282
		c-0.658,0.207-2.274,0.451-3.327,0.451c-1.278,0-2.369-0.132-3.703-0.658c-2.2-0.884-3.704-2.97-3.704-5.677
		c0-2.35,1.053-4.418,3.309-5.678c1.278-0.695,2.801-0.996,4.399-0.996c2.087,0,3.121,0.451,3.722,0.451
		c0.056,0.564,0.075,1.88,0.263,3.026c-0.075,0.207-0.583,0.226-0.714,0.038c-0.602-1.768-1.786-2.65-3.534-2.65
		c-2.989,0-4.437,2.48-4.437,5.451c0,2.688,0.921,4.286,2.143,5.113c0.902,0.602,1.88,0.715,2.575,0.715
		c1.072,0,1.297-0.207,1.297-1.43v-1.184c0-1.016-0.113-1.128-1.015-1.26l-0.827-0.113c-0.207-0.112-0.207-0.545,0-0.657
		c1.335,0.037,2.256,0.056,3.177,0.056c0.902,0,1.824-0.019,2.463-0.056c0.15,0.112,0.15,0.545,0,0.657l-0.433,0.076
		c-0.563,0.094-0.677,0.281-0.677,1.297V351.507z"/>
	<path d="M34.95,348.65c0-0.752,0-0.978-0.357-1.203l-0.263-0.17c-0.132-0.112-0.132-0.451,0-0.563
		c0.864-0.244,2.162-0.752,2.744-1.128c0.15,0,0.264,0.057,0.339,0.169c-0.038,0.376-0.075,0.64-0.075,0.809
		c0,0.132,0.037,0.188,0.188,0.226c0.508-0.319,1.053-0.939,1.843-0.939c0.507,0,1.034,0.395,1.034,1.108
		c0,0.865-0.602,1.222-1.203,1.222c-0.263,0-0.489-0.112-0.733-0.338c-0.433-0.357-0.602-0.376-0.715-0.376
		c-0.263,0-0.357,0.413-0.357,1.128v2.857c0,1.316,0.075,1.467,0.696,1.522l0.602,0.057c0.15,0.112,0.15,0.545-0.019,0.658
		c-0.902-0.038-1.654-0.057-2.538-0.057c-0.771,0-1.598,0.019-2.219,0.057c-0.169-0.113-0.169-0.546-0.019-0.658l0.357-0.038
		c0.62-0.056,0.695-0.225,0.695-1.541V348.65z"/>
	<path d="M51.926,351.45c0,1.316,0.075,1.485,0.696,1.541l0.357,0.038c0.15,0.112,0.15,0.545-0.019,0.658
		c-0.658-0.038-1.391-0.057-2.256-0.057c-0.846,0-1.635,0.019-2.256,0.057c-0.169-0.113-0.169-0.546-0.019-0.658l0.357-0.038
		c0.62-0.056,0.695-0.225,0.695-1.541v-2.839c0-0.752,0-0.978-0.357-1.203l-0.263-0.169c-0.132-0.113-0.132-0.451,0-0.564
		c0.883-0.244,2.218-0.752,2.782-1.09c0.15,0,0.263,0.057,0.338,0.169c-0.037,0.564-0.056,1.392-0.056,2.237V351.45z
		 M52.076,342.953c0,0.902-0.696,1.372-1.41,1.372c-0.827,0-1.316-0.563-1.316-1.334c0-0.828,0.658-1.373,1.41-1.373
		C51.55,341.618,52.076,342.201,52.076,342.953z"/>
	<path d="M62.416,348.611c0-0.752,0-0.978-0.357-1.203l-0.264-0.169c-0.131-0.113-0.131-0.451,0-0.564
		c0.865-0.244,2.2-0.752,2.782-1.09c0.15,0,0.264,0.057,0.339,0.169c0,0.264-0.057,0.715-0.057,0.847c0,0.112,0.038,0.15,0.094,0.15
		c0.057,0,0.245-0.095,0.357-0.15c0.414-0.245,1.26-0.752,2.162-0.752c0.677,0,1.259,0.225,1.691,0.714
		c0.226,0.263,0.339,0.339,0.451,0.339c0.075,0,0.245-0.132,0.602-0.32c0.414-0.226,1.128-0.732,2.144-0.732
		c1.485,0,2.274,1.071,2.274,2.368v3.233c0,1.316,0.075,1.467,0.695,1.541l0.301,0.038c0.15,0.112,0.15,0.545-0.019,0.658
		c-0.583-0.038-1.297-0.057-2.199-0.057c-0.752,0-1.542,0.019-2.049,0.057c-0.169-0.113-0.169-0.546-0.019-0.658l0.301-0.038
		c0.47-0.056,0.545-0.225,0.545-1.259v-3.196c0-0.714-0.395-1.315-1.259-1.315c-0.526,0-0.921,0.244-1.053,0.47
		c-0.075,0.113-0.132,0.301-0.132,0.564v3.478c0,1.034,0.075,1.203,0.508,1.259l0.301,0.038c0.15,0.112,0.15,0.545-0.019,0.658
		c-0.583-0.038-1.184-0.057-2.03-0.057c-0.752,0-1.504,0.019-1.993,0.057c-0.169-0.113-0.169-0.546-0.019-0.658l0.301-0.038
		c0.432-0.056,0.507-0.225,0.507-1.259v-3.196c0-0.714-0.376-1.315-1.278-1.315c-0.489,0-0.865,0.244-1.015,0.451
		c-0.113,0.132-0.15,0.356-0.15,0.695v3.365c0,1.034,0.075,1.203,0.545,1.259l0.301,0.038c0.15,0.112,0.15,0.545-0.019,0.658
		c-0.583-0.038-1.185-0.057-2.087-0.057c-0.846,0-1.579,0.019-2.143,0.057c-0.188-0.113-0.188-0.546-0.038-0.658l0.301-0.038
		c0.621-0.074,0.696-0.225,0.696-1.541V348.611z"/>
	<path d="M92.796,346.544c0.132,0.112,0.169,0.263,0.169,0.47c0,0.301-0.094,0.64-0.282,0.752h-1.391
		c0.038,0.169,0.057,0.339,0.057,0.658c0,1.485-0.884,3.29-3.854,3.29c-0.301,0-0.564-0.038-0.771-0.057
		c-0.188,0.075-0.319,0.226-0.319,0.451c0,0.413,0.395,0.677,0.959,0.677c0.639,0,1.41-0.038,2.293-0.038
		c1.41,0,2.914,0.376,2.914,2.275c0,1.184-0.714,2.236-1.692,2.838c-0.978,0.583-2.2,0.827-3.29,0.827
		c-2.707,0-3.685-1.24-3.685-2.406c0-0.451,0.282-0.752,0.602-0.939c0.376-0.226,0.714-0.47,0.921-0.583
		c0.226-0.132,0.169-0.226,0.019-0.264c-0.695-0.225-1.165-0.846-1.165-1.504c0-0.15,0.037-0.301,0.131-0.395
		c0.526-0.338,1.09-0.771,1.203-0.883c0.169-0.132,0.245-0.245,0.15-0.414c-0.94-0.376-1.598-1.278-1.598-2.425
		c0-1.561,1.222-3.026,3.666-3.026c1.109,0,2.105,0.319,2.801,0.695H92.796z M87.495,354.684c-0.507,0-0.883,0.112-1.053,0.244
		c-0.188,0.169-0.263,0.414-0.263,0.658c0,1.278,0.959,2.105,2.444,2.105c1.184,0,1.974-0.583,1.974-1.485
		c0-1.09-0.809-1.522-1.843-1.522H87.495z M87.909,350.867c0.583,0,1.071-0.545,1.071-1.917c0-1.523-0.545-2.237-1.222-2.237
		c-0.583,0-1.146,0.563-1.146,1.843C86.612,349.984,87.157,350.867,87.909,350.867z"/>
	<path d="M107.084,351.056c-0.075,1.278,0.47,1.616,0.846,1.616c0.226,0,0.414-0.056,0.714-0.226
		c0.169,0.038,0.282,0.264,0.226,0.433c-0.226,0.301-1.109,1.015-2.181,1.015c-0.658,0-1.072-0.225-1.579-0.657
		c-0.131-0.113-0.207-0.15-0.301-0.15s-0.207,0.075-0.395,0.206c-0.338,0.245-0.902,0.602-1.598,0.602
		c-1.09,0-2.105-0.657-2.105-1.974c0-0.958,0.583-1.541,1.955-1.955c0.714-0.226,1.241-0.376,1.767-0.526
		c0.338-0.094,0.432-0.226,0.451-0.376c0.019-0.206,0.038-0.413,0.038-0.639c0-0.715-0.282-1.617-1.09-1.617
		c-0.451,0-0.846,0.264-0.978,1.071c-0.038,0.301-0.15,0.471-0.32,0.602c-0.282,0.207-1.015,0.433-1.354,0.433
		c-0.319,0-0.432-0.206-0.432-0.47c0-0.488,0.451-1.09,0.902-1.447c0.639-0.508,1.824-1.146,3.158-1.146
		c1.579,0,2.5,0.789,2.406,2.726L107.084,351.056z M104.829,350.567c0.019-0.301,0-0.356-0.132-0.338
		c-0.846,0.112-1.579,0.433-1.579,1.315c0,0.602,0.433,1.128,0.959,1.128c0.583,0,0.695-0.338,0.714-0.921L104.829,350.567z"/>
	<path d="M117.575,348.65c0-0.752,0-0.978-0.357-1.203l-0.264-0.17c-0.131-0.112-0.131-0.451,0-0.563
		c0.865-0.244,2.162-0.752,2.745-1.128c0.15,0,0.263,0.057,0.338,0.169c-0.037,0.376-0.075,0.64-0.075,0.809
		c0,0.132,0.038,0.188,0.188,0.226c0.507-0.319,1.053-0.939,1.842-0.939c0.508,0,1.034,0.395,1.034,1.108
		c0,0.865-0.602,1.222-1.203,1.222c-0.263,0-0.489-0.112-0.733-0.338c-0.432-0.357-0.602-0.376-0.714-0.376
		c-0.264,0-0.357,0.413-0.357,1.128v2.857c0,1.316,0.075,1.467,0.695,1.522l0.602,0.057c0.15,0.112,0.15,0.545-0.019,0.658
		c-0.902-0.038-1.654-0.057-2.538-0.057c-0.771,0-1.598,0.019-2.218,0.057c-0.169-0.113-0.169-0.546-0.019-0.658l0.357-0.038
		c0.621-0.056,0.696-0.225,0.696-1.541V348.65z"/>
	<path d="M133.517,352.898c0,1.861-1.467,2.914-3.083,3.29c-0.339-0.038-0.414-0.47-0.207-0.602
		c0.714-0.263,1.673-0.902,1.673-1.823c0-0.827-0.62-1.091-1.09-1.223c-0.32-0.094-0.583-0.413-0.583-0.846
		c0-0.677,0.602-1.222,1.354-1.222C132.389,350.473,133.517,351.15,133.517,352.898z"/>
	<path d="M155.344,343.179c0-0.752,0-0.959-0.376-1.185l-0.32-0.188c-0.131-0.113-0.131-0.451,0-0.564
		c0.809-0.188,1.937-0.639,2.876-1.053c0.113,0,0.245,0.038,0.32,0.132c-0.038,0.771-0.057,1.561-0.057,2.744v8.385
		c0,1.316,0.075,1.467,0.733,1.541l0.319,0.038c0.15,0.112,0.15,0.545-0.019,0.658c-0.621-0.038-1.41-0.057-2.256-0.057
		c-0.809,0-1.598,0.019-2.256,0.057c-0.169-0.113-0.169-0.546-0.019-0.658l0.357-0.038c0.621-0.056,0.696-0.225,0.696-1.541V343.179
		z"/>
	<path d="M170.082,349.176c-0.433,0-0.47,0.037-0.47,0.338c0,1.41,0.902,2.782,2.65,2.782c0.526,0,1.241-0.112,1.748-0.978
		c0.207-0.037,0.489,0.113,0.489,0.433c-0.771,1.598-2.162,2.143-3.29,2.143c-2.538,0-3.91-1.785-3.91-3.834
		c0-2.369,1.711-4.211,4.061-4.211c1.955,0,3.008,1.259,3.008,2.707c0,0.356-0.094,0.62-0.677,0.62H170.082z M171.323,348.349
		c0.263,0,0.564-0.038,0.771-0.17c0.094-0.056,0.131-0.244,0.131-0.432c0-0.621-0.357-1.034-0.997-1.034
		c-0.789,0-1.466,0.752-1.466,1.354c0,0.263,0.263,0.282,0.864,0.282H171.323z"/>
	<path d="M194.861,341.825c-0.15-0.15-0.15-0.602,0.056-0.658c0.64,0.038,1.448,0.057,2.369,0.057c0.62,0,1.165,0,1.842-0.057
		c0,1.166,0.658,2.312,1.485,4.08l1.241,2.65c0.169,0.376,0.846,1.561,1.109,2.03c0.245-0.451,0.545-1.034,1.053-2.144l0.959-2.067
		c0.902-1.937,1.372-2.933,1.786-4.55c0.864,0.075,1.297,0.057,1.861,0.057c0.621,0,1.485-0.019,2.162-0.057
		c0.207,0.113,0.207,0.471,0.057,0.658l-0.545,0.094c-0.771,0.132-1.147,0.357-1.147,1.354c0,3.873,0.038,5.903,0.15,8.271
		c0.038,0.865,0.113,1.316,0.846,1.41l0.602,0.075c0.15,0.15,0.15,0.583-0.038,0.658c-0.864-0.038-1.673-0.057-2.594-0.057
		c-0.846,0-1.88,0.019-2.782,0.057c-0.226-0.095-0.245-0.526-0.057-0.658l0.564-0.075c0.865-0.113,0.865-0.338,0.865-1.485
		l-0.038-4.888v-2.143h-0.038c-1.391,3.008-2.895,6.146-4.136,9.324c-0.094,0.075-0.226,0.131-0.376,0.131
		c-0.169,0-0.376-0.037-0.489-0.112c-0.733-2.331-3.045-6.993-4.098-9.437h-0.038c-0.075,1.222-0.094,2.049-0.113,3.026
		c-0.019,1.222-0.038,3.102-0.038,4.229c0,0.939,0.113,1.203,0.865,1.316l0.733,0.112c0.15,0.132,0.112,0.563-0.038,0.658
		c-0.695-0.038-1.504-0.057-2.218-0.057c-0.602,0-1.316,0.019-2.068,0.057c-0.244-0.075-0.244-0.564-0.075-0.658l0.339-0.057
		c0.958-0.169,1.071-0.282,1.184-1.447c0.094-0.921,0.15-2.557,0.263-4.343c0.075-1.26,0.113-2.782,0.113-3.797
		c0-1.072-0.414-1.354-1.166-1.485L194.861,341.825z"/>
	<path d="M218.982,350.022c-0.019-2.688,2.105-4.173,4.323-4.173c2.219,0,4.211,1.354,4.211,4.004c0,2.744-2.011,4.041-4.323,4.041
		C220.956,353.894,219,352.616,218.982,350.022z M221.689,349.609c0,1.974,0.62,3.421,1.71,3.421c1.072,0,1.429-1.222,1.41-2.914
		c-0.019-1.823-0.545-3.402-1.616-3.402C222.366,346.713,221.689,347.559,221.689,349.609z"/>
	<path d="M237.236,348.611c0-0.752,0-0.978-0.357-1.203l-0.264-0.169c-0.131-0.113-0.131-0.451,0-0.564
		c0.884-0.244,2.237-0.752,2.782-1.09c0.15,0,0.264,0.057,0.339,0.169c0,0.264-0.057,0.715-0.057,0.847
		c0,0.112,0.038,0.15,0.094,0.15c0.057,0,0.245-0.095,0.357-0.15c0.414-0.245,1.297-0.752,2.162-0.752c1.56,0,2.35,1.071,2.35,2.368
		v3.233c0,1.316,0.075,1.467,0.752,1.541l0.301,0.038c0.15,0.112,0.15,0.545-0.019,0.658c-0.583-0.038-1.373-0.057-2.275-0.057
		c-0.752,0-1.485,0.019-2.03,0.057c-0.169-0.113-0.169-0.546-0.019-0.658l0.339-0.057c0.432-0.075,0.507-0.206,0.507-1.24v-3.177
		c0-0.733-0.376-1.335-1.316-1.335c-0.526,0-0.902,0.244-1.053,0.451c-0.113,0.132-0.15,0.356-0.15,0.695v3.365
		c0,1.034,0.075,1.203,0.545,1.259l0.301,0.038c0.15,0.112,0.15,0.545-0.019,0.658c-0.583-0.038-1.185-0.057-2.087-0.057
		c-0.789,0-1.56,0.019-2.218,0.057c-0.169-0.113-0.169-0.546-0.019-0.658l0.301-0.038c0.677-0.074,0.752-0.225,0.752-1.541V348.611z
		"/>
	<path d="M262.314,350.548c0,1.768,0.075,2.199,0.432,2.199c0.339,0,0.489-0.037,0.809-0.15c0.207,0.17,0.207,0.64,0.019,0.809
		c-1.861,0.113-3.327,0.677-3.384,0.677c-0.131,0-0.282-0.112-0.319-0.263l0.057-0.583c-0.019-0.15-0.094-0.207-0.169-0.15
		c-0.658,0.413-1.334,0.808-2.03,0.808c-2.143,0-3.59-1.673-3.59-3.703c0-2.65,1.992-4.342,4.474-4.342
		c0.414,0,0.865,0.037,1.072,0.094c0.131-0.057,0.188-0.207,0.188-0.357v-2.406c0-0.752,0-0.959-0.376-1.185l-0.319-0.188
		c-0.15-0.113-0.132-0.451,0-0.564c0.808-0.188,1.955-0.639,2.876-1.053c0.132,0,0.244,0.038,0.319,0.132
		c-0.037,0.771-0.056,1.561-0.056,2.744V350.548z M259.871,348.048c0-0.301-0.057-0.489-0.132-0.64
		c-0.226-0.395-0.639-0.695-1.071-0.695c-0.959,0-1.898,0.996-1.898,2.97c0,1.241,0.563,2.952,2.105,2.952
		c0.263,0,0.526-0.075,0.771-0.226c0.207-0.132,0.226-0.376,0.226-0.715V348.048z"/>
	<path d="M274.591,349.176c-0.433,0-0.47,0.037-0.47,0.338c0,1.41,0.902,2.782,2.65,2.782c0.526,0,1.241-0.112,1.748-0.978
		c0.207-0.037,0.489,0.113,0.489,0.433c-0.771,1.598-2.162,2.143-3.29,2.143c-2.538,0-3.91-1.785-3.91-3.834
		c0-2.369,1.711-4.211,4.061-4.211c1.955,0,3.008,1.259,3.008,2.707c0,0.356-0.094,0.62-0.677,0.62H274.591z M275.832,348.349
		c0.263,0,0.564-0.038,0.771-0.17c0.094-0.056,0.131-0.244,0.131-0.432c0-0.621-0.357-1.034-0.997-1.034
		c-0.789,0-1.466,0.752-1.466,1.354c0,0.263,0.263,0.282,0.864,0.282H275.832z"/>
	<path d="M307.49,350.548c0,1.768,0.076,2.199,0.433,2.199c0.339,0,0.489-0.037,0.809-0.15c0.207,0.17,0.207,0.64,0.019,0.809
		c-1.861,0.113-3.327,0.677-3.384,0.677c-0.132,0-0.282-0.112-0.319-0.263l0.057-0.583c-0.02-0.15-0.094-0.207-0.17-0.15
		c-0.657,0.413-1.334,0.808-2.029,0.808c-2.144,0-3.591-1.673-3.591-3.703c0-2.65,1.992-4.342,4.474-4.342
		c0.414,0,0.865,0.037,1.072,0.094c0.131-0.057,0.188-0.207,0.188-0.357v-2.406c0-0.752,0-0.959-0.376-1.185l-0.319-0.188
		c-0.15-0.113-0.132-0.451,0-0.564c0.809-0.188,1.955-0.639,2.876-1.053c0.132,0,0.244,0.038,0.319,0.132
		c-0.037,0.771-0.057,1.561-0.057,2.744V350.548z M305.046,348.048c0-0.301-0.057-0.489-0.132-0.64
		c-0.226-0.395-0.639-0.695-1.071-0.695c-0.959,0-1.898,0.996-1.898,2.97c0,1.241,0.563,2.952,2.105,2.952
		c0.263,0,0.526-0.075,0.771-0.226c0.207-0.132,0.226-0.376,0.226-0.715V348.048z"/>
	<path d="M319.767,349.176c-0.433,0-0.47,0.037-0.47,0.338c0,1.41,0.902,2.782,2.65,2.782c0.526,0,1.241-0.112,1.748-0.978
		c0.207-0.037,0.489,0.113,0.489,0.433c-0.771,1.598-2.162,2.143-3.29,2.143c-2.538,0-3.91-1.785-3.91-3.834
		c0-2.369,1.711-4.211,4.061-4.211c1.955,0,3.008,1.259,3.008,2.707c0,0.356-0.094,0.62-0.677,0.62H319.767z M321.007,348.349
		c0.264,0,0.564-0.038,0.771-0.17c0.094-0.056,0.131-0.244,0.131-0.432c0-0.621-0.356-1.034-0.996-1.034
		c-0.789,0-1.466,0.752-1.466,1.354c0,0.263,0.263,0.282,0.864,0.282H321.007z"/>
	<path d="M332.588,353.312c-0.207-0.376-0.339-1.278-0.301-2.125c0.112-0.188,0.526-0.206,0.64-0.037
		c0.244,0.771,0.958,1.88,1.917,1.88c0.563,0,0.978-0.339,0.978-0.978c0-0.695-0.602-1.09-1.24-1.41
		c-1.129-0.563-1.937-1.24-1.937-2.368c0-1.636,1.372-2.425,2.989-2.425c0.958,0,1.805,0.244,2.011,0.395
		c0.188,0.413,0.282,1.165,0.282,1.88c-0.075,0.206-0.545,0.206-0.658,0.075c-0.376-1.091-0.846-1.485-1.466-1.485
		c-0.546,0-0.94,0.319-0.94,0.827c0,0.433,0.357,0.789,1.203,1.203c1.278,0.62,2.068,1.41,2.068,2.632
		c-0.02,1.673-1.447,2.519-3.215,2.519C333.848,353.894,333.096,353.706,332.588,353.312z"/>
	<path d="M365.451,346.168c0.244,0.206,0.395,0.47,0.395,0.978c0,0.563-0.264,1.071-0.489,1.071c-0.094,0-0.263-0.038-0.301-0.094
		c-0.526-0.752-1.259-1.41-1.937-1.41c-1.222,0-1.879,1.392-1.879,2.688c0,1.484,0.958,2.988,2.688,2.988
		c0.695,0,1.26-0.225,1.674-0.921c0.225-0.019,0.488,0.113,0.488,0.414c-0.414,0.939-1.541,2.011-3.327,2.011
		c-2.37,0-3.986-1.578-3.986-3.797c0-2.67,2.163-4.248,4.7-4.248C364.116,345.849,364.943,345.98,365.451,346.168z"/>
	<path d="M376.956,349.176c-0.433,0-0.47,0.037-0.47,0.338c0,1.41,0.902,2.782,2.65,2.782c0.526,0,1.24-0.112,1.748-0.978
		c0.207-0.037,0.489,0.113,0.489,0.433c-0.771,1.598-2.162,2.143-3.29,2.143c-2.538,0-3.91-1.785-3.91-3.834
		c0-2.369,1.711-4.211,4.061-4.211c1.955,0,3.008,1.259,3.008,2.707c0,0.356-0.094,0.62-0.677,0.62H376.956z M378.197,348.349
		c0.263,0,0.563-0.038,0.771-0.17c0.094-0.056,0.132-0.244,0.132-0.432c0-0.621-0.357-1.034-0.997-1.034
		c-0.789,0-1.466,0.752-1.466,1.354c0,0.263,0.263,0.282,0.864,0.282H378.197z"/>
	<path d="M390.605,348.611c0-0.752,0-0.978-0.357-1.203l-0.263-0.169c-0.132-0.113-0.132-0.451,0-0.564
		c0.884-0.244,2.237-0.752,2.782-1.09c0.15,0,0.263,0.057,0.338,0.169c0,0.264-0.057,0.715-0.057,0.847
		c0,0.112,0.038,0.15,0.095,0.15c0.056,0,0.244-0.095,0.356-0.15c0.414-0.245,1.298-0.752,2.162-0.752
		c1.561,0,2.35,1.071,2.35,2.368v3.233c0,1.316,0.076,1.467,0.752,1.541l0.301,0.038c0.15,0.112,0.15,0.545-0.019,0.658
		c-0.583-0.038-1.372-0.057-2.274-0.057c-0.752,0-1.485,0.019-2.03,0.057c-0.169-0.113-0.169-0.546-0.019-0.658l0.338-0.057
		c0.433-0.075,0.508-0.206,0.508-1.24v-3.177c0-0.733-0.376-1.335-1.316-1.335c-0.525,0-0.902,0.244-1.053,0.451
		c-0.112,0.132-0.15,0.356-0.15,0.695v3.365c0,1.034,0.076,1.203,0.546,1.259l0.301,0.038c0.15,0.112,0.15,0.545-0.019,0.658
		c-0.583-0.038-1.185-0.057-2.087-0.057c-0.79,0-1.561,0.019-2.219,0.057c-0.169-0.113-0.169-0.546-0.019-0.658l0.301-0.038
		c0.677-0.074,0.752-0.225,0.752-1.541V348.611z"/>
	<path d="M415.684,350.548c0,1.768,0.076,2.199,0.433,2.199c0.339,0,0.489-0.037,0.809-0.15c0.207,0.17,0.207,0.64,0.019,0.809
		c-1.861,0.113-3.327,0.677-3.384,0.677c-0.132,0-0.282-0.112-0.319-0.263l0.057-0.583c-0.02-0.15-0.094-0.207-0.17-0.15
		c-0.657,0.413-1.334,0.808-2.029,0.808c-2.144,0-3.591-1.673-3.591-3.703c0-2.65,1.992-4.342,4.474-4.342
		c0.414,0,0.865,0.037,1.072,0.094c0.131-0.057,0.188-0.207,0.188-0.357v-2.406c0-0.752,0-0.959-0.376-1.185l-0.319-0.188
		c-0.15-0.113-0.132-0.451,0-0.564c0.809-0.188,1.955-0.639,2.876-1.053c0.132,0,0.244,0.038,0.319,0.132
		c-0.037,0.771-0.057,1.561-0.057,2.744V350.548z M413.24,348.048c0-0.301-0.057-0.489-0.132-0.64
		c-0.226-0.395-0.639-0.695-1.071-0.695c-0.959,0-1.898,0.996-1.898,2.97c0,1.241,0.563,2.952,2.105,2.952
		c0.263,0,0.526-0.075,0.771-0.226c0.207-0.132,0.226-0.376,0.226-0.715V348.048z"/>
	<path d="M426.155,348.65c0-0.752,0-0.978-0.357-1.203l-0.263-0.17c-0.132-0.112-0.132-0.451,0-0.563
		c0.864-0.244,2.162-0.752,2.744-1.128c0.15,0,0.264,0.057,0.339,0.169c-0.038,0.376-0.075,0.64-0.075,0.809
		c0,0.132,0.037,0.188,0.188,0.226c0.508-0.319,1.053-0.939,1.843-0.939c0.507,0,1.034,0.395,1.034,1.108
		c0,0.865-0.602,1.222-1.203,1.222c-0.264,0-0.489-0.112-0.733-0.338c-0.433-0.357-0.602-0.376-0.715-0.376
		c-0.263,0-0.356,0.413-0.356,1.128v2.857c0,1.316,0.074,1.467,0.695,1.522l0.602,0.057c0.15,0.112,0.15,0.545-0.02,0.658
		c-0.902-0.038-1.654-0.057-2.537-0.057c-0.771,0-1.598,0.019-2.219,0.057c-0.169-0.113-0.169-0.546-0.019-0.658l0.357-0.038
		c0.62-0.056,0.695-0.225,0.695-1.541V348.65z"/>
	<path d="M442.116,349.176c-0.433,0-0.47,0.037-0.47,0.338c0,1.41,0.902,2.782,2.65,2.782c0.526,0,1.24-0.112,1.748-0.978
		c0.207-0.037,0.489,0.113,0.489,0.433c-0.771,1.598-2.162,2.143-3.29,2.143c-2.538,0-3.91-1.785-3.91-3.834
		c0-2.369,1.711-4.211,4.061-4.211c1.955,0,3.008,1.259,3.008,2.707c0,0.356-0.094,0.62-0.677,0.62H442.116z M443.357,348.349
		c0.263,0,0.563-0.038,0.771-0.17c0.094-0.056,0.132-0.244,0.132-0.432c0-0.621-0.357-1.034-0.997-1.034
		c-0.789,0-1.466,0.752-1.466,1.354c0,0.263,0.263,0.282,0.864,0.282H443.357z"/>
	<path d="M454.938,353.312c-0.207-0.376-0.339-1.278-0.301-2.125c0.112-0.188,0.526-0.206,0.64-0.037
		c0.244,0.771,0.958,1.88,1.917,1.88c0.563,0,0.978-0.339,0.978-0.978c0-0.695-0.602-1.09-1.24-1.41
		c-1.129-0.563-1.937-1.24-1.937-2.368c0-1.636,1.372-2.425,2.989-2.425c0.958,0,1.805,0.244,2.011,0.395
		c0.188,0.413,0.282,1.165,0.282,1.88c-0.075,0.206-0.545,0.206-0.658,0.075c-0.376-1.091-0.846-1.485-1.466-1.485
		c-0.546,0-0.94,0.319-0.94,0.827c0,0.433,0.357,0.789,1.203,1.203c1.278,0.62,2.068,1.41,2.068,2.632
		c-0.02,1.673-1.447,2.519-3.215,2.519C456.198,353.894,455.446,353.706,454.938,353.312z"/>
	<path d="M483.928,349.176c-0.433,0-0.47,0.037-0.47,0.338c0,1.41,0.902,2.782,2.65,2.782c0.526,0,1.241-0.112,1.748-0.978
		c0.207-0.037,0.489,0.113,0.489,0.433c-0.771,1.598-2.162,2.143-3.29,2.143c-2.538,0-3.91-1.785-3.91-3.834
		c0-2.369,1.711-4.211,4.061-4.211c1.955,0,3.008,1.259,3.008,2.707c0,0.356-0.094,0.62-0.677,0.62H483.928z M485.168,348.349
		c0.264,0,0.564-0.038,0.771-0.17c0.094-0.056,0.131-0.244,0.131-0.432c0-0.621-0.356-1.034-0.996-1.034
		c-0.789,0-1.466,0.752-1.466,1.354c0,0.263,0.263,0.282,0.864,0.282H485.168z"/>
	<path d="M500.151,347.126c-0.244,0-0.263,0.02-0.263,0.433v2.82c0,1.053,0,2.218,1.315,2.218c0.264,0,0.564-0.131,0.79-0.281
		c0.188,0.056,0.301,0.263,0.263,0.488c-0.526,0.564-1.541,1.09-2.707,1.09c-1.56,0-2.105-0.902-2.105-2.143v-4.192
		c0-0.395-0.019-0.433-0.356-0.433h-0.583c-0.207-0.074-0.264-0.451-0.113-0.582c0.583-0.207,1.109-0.545,1.561-0.846
		c0.339-0.245,0.809-0.64,1.392-1.467c0.131-0.075,0.47-0.057,0.563,0.094v1.41c0,0.357,0.019,0.376,0.357,0.376h1.673
		c0.094,0.075,0.15,0.188,0.15,0.357c0,0.206-0.057,0.545-0.244,0.657H500.151z"/>
	<path d="M530.457,350.548c0,1.768,0.074,2.199,0.432,2.199c0.339,0,0.489-0.037,0.809-0.15c0.207,0.17,0.207,0.64,0.019,0.809
		c-1.86,0.113-3.327,0.677-3.384,0.677c-0.131,0-0.281-0.112-0.319-0.263l0.057-0.583c-0.019-0.15-0.095-0.207-0.169-0.15
		c-0.658,0.413-1.335,0.808-2.031,0.808c-2.143,0-3.59-1.673-3.59-3.703c0-2.65,1.992-4.342,4.474-4.342
		c0.414,0,0.865,0.037,1.071,0.094c0.132-0.057,0.188-0.207,0.188-0.357v-2.406c0-0.752,0-0.959-0.376-1.185l-0.319-0.188
		c-0.15-0.113-0.132-0.451,0-0.564c0.808-0.188,1.955-0.639,2.876-1.053c0.132,0,0.244,0.038,0.319,0.132
		c-0.037,0.771-0.056,1.561-0.056,2.744V350.548z M528.013,348.048c0-0.301-0.057-0.489-0.132-0.64
		c-0.226-0.395-0.639-0.695-1.071-0.695c-0.959,0-1.898,0.996-1.898,2.97c0,1.241,0.563,2.952,2.105,2.952
		c0.263,0,0.526-0.075,0.771-0.226c0.207-0.132,0.226-0.376,0.226-0.715V348.048z"/>
	<path d="M542.733,349.176c-0.433,0-0.47,0.037-0.47,0.338c0,1.41,0.902,2.782,2.65,2.782c0.526,0,1.24-0.112,1.748-0.978
		c0.207-0.037,0.489,0.113,0.489,0.433c-0.771,1.598-2.162,2.143-3.29,2.143c-2.538,0-3.91-1.785-3.91-3.834
		c0-2.369,1.711-4.211,4.061-4.211c1.955,0,3.008,1.259,3.008,2.707c0,0.356-0.094,0.62-0.677,0.62H542.733z M543.975,348.349
		c0.263,0,0.563-0.038,0.771-0.17c0.094-0.056,0.132-0.244,0.132-0.432c0-0.621-0.357-1.034-0.997-1.034
		c-0.789,0-1.466,0.752-1.466,1.354c0,0.263,0.263,0.282,0.864,0.282H543.975z"/>
	<path d="M571.384,347.126c-0.47,0-0.489,0.02-0.489,0.527v3.797c0,1.354,0.076,1.504,0.696,1.561l0.62,0.057
		c0.15,0.112,0.15,0.507-0.019,0.62c-0.884-0.038-1.673-0.057-2.557-0.057c-0.847,0-1.636,0.019-2.219,0.057
		c-0.169-0.113-0.169-0.508-0.019-0.62l0.301-0.038c0.677-0.075,0.752-0.226,0.752-1.579v-3.797c0-0.508-0.037-0.527-0.47-0.527
		h-0.696c-0.112-0.074-0.15-0.413-0.056-0.507l0.808-0.414c0.245-0.132,0.414-0.244,0.414-0.488c0-0.809,0.132-2.181,0.526-3.103
		c0.545-1.24,1.579-2.425,3.685-2.425c1.09,0,2.199,0.564,2.199,1.542c0,0.62-0.451,1.015-1.09,1.015
		c-0.395,0-0.621-0.188-0.752-0.338c-0.809-1.034-1.109-1.241-1.335-1.241c-0.489,0-0.79,0.545-0.79,2.294v2.124
		c0,0.508,0.02,0.526,0.489,0.526h1.786c0.094,0.057,0.131,0.207,0.131,0.376c0,0.244-0.074,0.526-0.244,0.639H571.384z"/>
	<path d="M587.251,351.056c-0.075,1.278,0.47,1.616,0.846,1.616c0.226,0,0.413-0.056,0.714-0.226
		c0.17,0.038,0.282,0.264,0.227,0.433c-0.227,0.301-1.109,1.015-2.182,1.015c-0.657,0-1.071-0.225-1.578-0.657
		c-0.132-0.113-0.207-0.15-0.301-0.15c-0.095,0-0.207,0.075-0.396,0.206c-0.338,0.245-0.902,0.602-1.598,0.602
		c-1.091,0-2.105-0.657-2.105-1.974c0-0.958,0.583-1.541,1.955-1.955c0.714-0.226,1.241-0.376,1.767-0.526
		c0.339-0.094,0.433-0.226,0.451-0.376c0.02-0.206,0.038-0.413,0.038-0.639c0-0.715-0.282-1.617-1.091-1.617
		c-0.451,0-0.846,0.264-0.977,1.071c-0.038,0.301-0.15,0.471-0.32,0.602c-0.281,0.207-1.015,0.433-1.354,0.433
		c-0.319,0-0.432-0.206-0.432-0.47c0-0.488,0.451-1.09,0.902-1.447c0.639-0.508,1.823-1.146,3.158-1.146
		c1.578,0,2.5,0.789,2.406,2.726L587.251,351.056z M584.995,350.567c0.019-0.301,0-0.356-0.132-0.338
		c-0.846,0.112-1.579,0.433-1.579,1.315c0,0.602,0.433,1.128,0.959,1.128c0.583,0,0.695-0.338,0.714-0.921L584.995,350.567z"/>
	<path d="M597.741,348.611c0-0.752,0-0.978-0.357-1.203l-0.263-0.169c-0.132-0.113-0.132-0.451,0-0.564
		c0.883-0.244,2.236-0.752,2.782-1.09c0.15,0,0.263,0.057,0.338,0.169c0,0.264-0.056,0.715-0.056,0.847
		c0,0.112,0.037,0.15,0.094,0.15s0.244-0.095,0.357-0.15c0.413-0.245,1.297-0.752,2.161-0.752c1.561,0,2.351,1.071,2.351,2.368
		v3.233c0,1.316,0.074,1.467,0.752,1.541l0.301,0.038c0.15,0.112,0.15,0.545-0.02,0.658c-0.582-0.038-1.372-0.057-2.274-0.057
		c-0.752,0-1.485,0.019-2.03,0.057c-0.169-0.113-0.169-0.546-0.019-0.658l0.338-0.057c0.433-0.075,0.508-0.206,0.508-1.24v-3.177
		c0-0.733-0.376-1.335-1.315-1.335c-0.527,0-0.902,0.244-1.053,0.451c-0.113,0.132-0.15,0.356-0.15,0.695v3.365
		c0,1.034,0.074,1.203,0.545,1.259l0.301,0.038c0.15,0.112,0.15,0.545-0.02,0.658c-0.582-0.038-1.184-0.057-2.086-0.057
		c-0.79,0-1.561,0.019-2.219,0.057c-0.169-0.113-0.169-0.546-0.019-0.658l0.301-0.038c0.677-0.074,0.752-0.225,0.752-1.541V348.611z
		"/>
	<path d="M618.214,347.126c-0.244,0-0.263,0.02-0.263,0.433v2.82c0,1.053,0,2.218,1.315,2.218c0.264,0,0.564-0.131,0.79-0.281
		c0.188,0.056,0.301,0.263,0.263,0.488c-0.526,0.564-1.541,1.09-2.707,1.09c-1.56,0-2.105-0.902-2.105-2.143v-4.192
		c0-0.395-0.019-0.433-0.356-0.433h-0.583c-0.207-0.074-0.264-0.451-0.113-0.582c0.583-0.207,1.109-0.545,1.561-0.846
		c0.339-0.245,0.809-0.64,1.392-1.467c0.131-0.075,0.47-0.057,0.563,0.094v1.41c0,0.357,0.019,0.376,0.357,0.376H620
		c0.094,0.075,0.15,0.188,0.15,0.357c0,0.206-0.057,0.545-0.244,0.657H618.214z"/>
	<path d="M634.664,351.056c-0.075,1.278,0.47,1.616,0.846,1.616c0.226,0,0.414-0.056,0.715-0.226
		c0.169,0.038,0.281,0.264,0.225,0.433c-0.225,0.301-1.108,1.015-2.18,1.015c-0.658,0-1.072-0.225-1.58-0.657
		c-0.131-0.113-0.206-0.15-0.301-0.15c-0.094,0-0.206,0.075-0.395,0.206c-0.338,0.245-0.902,0.602-1.598,0.602
		c-1.09,0-2.105-0.657-2.105-1.974c0-0.958,0.583-1.541,1.955-1.955c0.715-0.226,1.24-0.376,1.768-0.526
		c0.338-0.094,0.432-0.226,0.451-0.376c0.019-0.206,0.037-0.413,0.037-0.639c0-0.715-0.282-1.617-1.09-1.617
		c-0.451,0-0.847,0.264-0.979,1.071c-0.037,0.301-0.15,0.471-0.319,0.602c-0.282,0.207-1.015,0.433-1.354,0.433
		c-0.319,0-0.433-0.206-0.433-0.47c0-0.488,0.451-1.09,0.902-1.447c0.64-0.508,1.824-1.146,3.158-1.146
		c1.58,0,2.501,0.789,2.406,2.726L634.664,351.056z M632.408,350.567c0.019-0.301,0-0.356-0.132-0.338
		c-0.846,0.112-1.579,0.433-1.579,1.315c0,0.602,0.433,1.128,0.959,1.128c0.582,0,0.695-0.338,0.714-0.921L632.408,350.567z"/>
	<path d="M647.598,351.45c0,1.316,0.076,1.485,0.696,1.541l0.356,0.038c0.15,0.112,0.15,0.545-0.019,0.658
		c-0.657-0.038-1.391-0.057-2.256-0.057c-0.846,0-1.636,0.019-2.256,0.057c-0.169-0.113-0.169-0.546-0.019-0.658l0.357-0.038
		c0.62-0.056,0.695-0.225,0.695-1.541v-2.839c0-0.752,0-0.978-0.357-1.203l-0.263-0.169c-0.132-0.113-0.132-0.451,0-0.564
		c0.884-0.244,2.218-0.752,2.782-1.09c0.15,0,0.263,0.057,0.338,0.169c-0.037,0.564-0.057,1.392-0.057,2.237V351.45z
		 M647.748,342.953c0,0.902-0.695,1.372-1.409,1.372c-0.827,0-1.316-0.563-1.316-1.334c0-0.828,0.658-1.373,1.41-1.373
		C647.223,341.618,647.748,342.201,647.748,342.953z"/>
	<path d="M657.262,353.312c-0.207-0.376-0.338-1.278-0.301-2.125c0.113-0.188,0.526-0.206,0.639-0.037
		c0.245,0.771,0.959,1.88,1.918,1.88c0.564,0,0.978-0.339,0.978-0.978c0-0.695-0.602-1.09-1.241-1.41
		c-1.127-0.563-1.936-1.24-1.936-2.368c0-1.636,1.372-2.425,2.988-2.425c0.959,0,1.805,0.244,2.012,0.395
		c0.188,0.413,0.282,1.165,0.282,1.88c-0.075,0.206-0.545,0.206-0.658,0.075c-0.376-1.091-0.846-1.485-1.466-1.485
		c-0.545,0-0.94,0.319-0.94,0.827c0,0.433,0.357,0.789,1.203,1.203c1.278,0.62,2.068,1.41,2.068,2.632
		c-0.019,1.673-1.448,2.519-3.215,2.519C658.521,353.894,657.769,353.706,657.262,353.312z"/>
	<path d="M674.82,351.45c0,1.316,0.076,1.485,0.696,1.541l0.356,0.038c0.15,0.112,0.15,0.545-0.019,0.658
		c-0.657-0.038-1.391-0.057-2.256-0.057c-0.846,0-1.636,0.019-2.256,0.057c-0.169-0.113-0.169-0.546-0.019-0.658l0.357-0.038
		c0.62-0.056,0.695-0.225,0.695-1.541v-2.839c0-0.752,0-0.978-0.357-1.203l-0.263-0.169c-0.132-0.113-0.132-0.451,0-0.564
		c0.884-0.244,2.218-0.752,2.782-1.09c0.15,0,0.263,0.057,0.338,0.169c-0.037,0.564-0.057,1.392-0.057,2.237V351.45z
		 M674.971,342.953c0,0.902-0.695,1.372-1.409,1.372c-0.827,0-1.316-0.563-1.316-1.334c0-0.828,0.658-1.373,1.41-1.373
		C674.445,341.618,674.971,342.201,674.971,342.953z"/>
	<path d="M687.116,349.176c-0.433,0-0.47,0.037-0.47,0.338c0,1.41,0.902,2.782,2.65,2.782c0.526,0,1.24-0.112,1.748-0.978
		c0.207-0.037,0.489,0.113,0.489,0.433c-0.771,1.598-2.162,2.143-3.29,2.143c-2.538,0-3.91-1.785-3.91-3.834
		c0-2.369,1.711-4.211,4.061-4.211c1.955,0,3.008,1.259,3.008,2.707c0,0.356-0.094,0.62-0.677,0.62H687.116z M688.357,348.349
		c0.263,0,0.563-0.038,0.771-0.17c0.094-0.056,0.132-0.244,0.132-0.432c0-0.621-0.357-1.034-0.997-1.034
		c-0.789,0-1.466,0.752-1.466,1.354c0,0.263,0.263,0.282,0.864,0.282H688.357z"/>
</g>
</svg>
