<?xml version="1.0" encoding="utf-8"?>
<!-- Generator: Adobe Illustrator 27.0.1, SVG Export Plug-In . SVG Version: 6.00 Build 0)  -->
<svg version="1.1" id="레이어_1" xmlns="http://www.w3.org/2000/svg" xmlns:xlink="http://www.w3.org/1999/xlink" x="0px"
	 y="0px" viewBox="0 0 720 216.387" enable-background="new 0 0 720 216.387" xml:space="preserve">
<polygon fill="#EF8200" points="686.534,127.923 687.257,46.868 653.269,35.419 653.117,119.843 653.151,119.861 653.185,153.529 
	686.87,164.471 686.55,127.923 "/>
<polygon fill="#EF8200" points="720,40.132 686.483,29.291 686.533,113.362 686.549,113.378 686.483,147.181 719.427,157.922 
	719.882,124.607 719.916,124.624 "/>
<polygon points="656.552,121.611 656.585,151.071 683.436,159.791 683.183,130.399 "/>
<polygon points="656.518,117.402 683.149,126.19 683.84,49.291 656.653,40.133 "/>
<polygon points="689.883,144.724 689.95,115.113 716.498,124.052 716.094,153.277 "/>
<polygon points="689.917,110.921 716.532,119.894 716.599,42.608 689.883,33.955 "/>
<polygon fill="#EF8200" points="0,0.858 32.001,164.521 90.467,164.79 58.296,1.448 "/>
<polygon fill="#EF8200" points="132.654,30.284 73.566,29.712 149.824,164.841 209.013,165.211 "/>
<polygon fill="#EF8200" points="304.649,59.374 282.074,0 163.173,70.99 185.597,130.146 226.791,105.652 248.944,164.084 
	299.885,164.588 268.539,80.838 "/>
<polygon fill="#EF8200" points="468.093,128.227 448.615,76.866 403.567,76.765 400.806,70.806 448.901,70.923 429.188,19.613 
	377.035,19.444 368.383,0.708 313.368,0.287 322.089,19.276 287.545,19.175 307.511,70.553 345.707,70.654 348.451,76.631 
	307.039,76.512 326.584,128.109 372.137,128.143 388.264,163.226 443.8,163.697 427.37,128.194 "/>
<polygon fill="#EF8200" points="571.017,111.443 550.967,111.477 531.524,56.53 459.642,56.092 476.425,100.669 500.717,100.652 
	504.606,111.392 458.917,111.141 477.991,162.501 589.989,162.569 "/>
<polygon fill="#EF8200" points="646.418,62.741 539.1,62.086 557.297,113.127 665.979,114.356 "/>
<polygon points="4.124,4.293 34.796,161.138 86.342,161.374 55.501,4.815 "/>
<polygon points="79.407,33.147 151.81,161.457 203.188,161.778 130.667,33.652 "/>
<polygon points="294.969,161.137 264.364,79.373 300.457,57.926 280.34,5 167.348,72.437 187.33,125.163 228.524,100.668 
	251.284,160.716 "/>
<polygon points="463.177,124.842 446.259,80.266 401.395,80.148 395.503,67.387 443.952,67.522 426.865,22.995 374.88,22.827 
	366.194,4.09 318.671,3.721 327.391,22.692 292.511,22.575 309.834,67.152 347.896,67.269 353.754,80.029 311.954,79.929 
	328.923,124.725 374.308,124.759 390.453,159.858 438.464,160.261 422.05,124.792 "/>
<polygon points="464.558,59.525 478.782,97.285 503.108,97.251 509.455,114.81 463.817,114.557 480.348,159.1 585.125,159.167 
	568.66,114.826 548.577,114.893 529.134,59.896 "/>
<polygon points="559.654,109.759 544.015,65.502 644.077,66.108 661.046,110.904 "/>
<path fill="#EF8200" d="M447.15,203.005l-20.285-0.016l-1.044-2.913l15.858-0.016l3.535-8.703l-4.056-11.212l-22.575,0.016
	l-1.953-5.37l-15.605-0.017l1.97,5.421h-5.959l4.899,13.501h5.959l8.148,22.558l35.924,0.016L447.15,203.005z M425.721,199.856
	l-2.222-6.144h4.73L425.721,199.856z"/>
<polygon fill="#EF8200" points="477.857,216.235 496.525,216.253 483.445,180.193 463.429,180.177 461.477,174.79 444.878,174.773 
	446.831,180.161 439.677,180.143 444.406,193.206 451.578,193.224 459.961,216.253 475.651,216.253 467.267,193.24 472.604,193.24 
	475.887,202.314 472.806,202.314 "/>
<polygon fill="#EF8200" points="645.862,185.984 607.076,185.951 612.395,200.58 651.164,200.614 "/>
<polygon fill="#EF8200" points="672.09,197.263 676.399,187.062 676.837,185.9 675.456,182.062 680.085,182.062 676.028,170.918 
	655.103,170.918 656.501,174.772 633.926,174.756 638.841,188.274 657.41,188.291 645.508,216.253 664.042,216.253 666.669,210.041 
	673.2,216.253 692.105,216.253 "/>
<polygon fill="#EF8200" points="568.122,201.859 562.802,187.265 543.577,187.146 539.099,174.79 522.686,174.773 537.769,216.371 
	554.183,216.387 548.931,201.893 "/>
<polygon fill="#EF8200" points="552.382,183.46 564.401,183.46 560.344,172.316 539.419,172.316 543.476,183.46 "/>
<polygon fill="#EF8200" points="506.34,174.74 483.985,174.74 488.714,187.736 511.07,187.736 "/>
<polygon fill="#EF8200" points="512.939,185.95 511.793,201.59 494.505,201.573 499.824,216.219 510.582,216.235 510.582,216.253 
	526.069,216.253 528.224,185.95 "/>
<polygon fill="#EF8200" points="697.796,174.2 675.457,174.2 680.187,187.197 702.543,187.197 "/>
<polygon fill="#EF8200" points="704.698,185.95 703.552,201.59 686.247,201.573 691.567,216.219 702.341,216.235 702.341,216.253 
	717.811,216.253 719.966,185.95 "/>
<polygon fill="#EF8200" points="589.721,185.311 584.99,172.316 562.651,172.316 566.321,182.399 571.051,195.396 593.39,195.396 
	"/>
<polygon fill="#EF8200" points="594.484,185.95 593.338,201.59 576.05,201.573 581.369,216.219 592.143,216.235 592.143,216.253 
	607.614,216.253 609.769,185.95 "/>
<polygon points="439.508,182.635 442.639,191.305 440.063,197.651 429.204,197.685 431.798,191.322 420.064,191.305 424.256,202.87 
	425.215,205.378 445.466,205.412 448.53,213.879 417.724,213.845 415.165,206.709 409.576,191.288 403.617,191.288 400.469,182.584 
	406.428,182.602 404.459,177.181 414.946,177.197 416.916,182.602 "/>
<polygon points="481.762,182.584 493.091,213.846 479.556,213.829 476.24,204.721 479.321,204.721 474.287,190.834 463.834,190.834 
	472.217,213.846 461.645,213.846 453.261,190.817 446.106,190.8 443.11,182.551 450.265,182.568 448.311,177.181 459.793,177.198 
	461.746,182.568 "/>
<polygon points="537.416,177.197 541.893,189.537 561.118,189.655 564.703,199.47 545.512,199.503 550.765,213.981 539.452,213.964 
	526.102,177.181 "/>
<polygon points="644.179,188.392 647.731,198.206 614.079,198.173 610.511,188.359 "/>
<polygon points="586.286,182.904 569.064,182.904 566.084,174.723 583.306,174.723 "/>
<polygon points="507.636,185.328 490.397,185.328 487.417,177.147 504.656,177.147 "/>
<polygon points="589.956,192.988 572.734,192.988 569.755,184.807 586.976,184.807 "/>
<polygon points="667.746,179.671 660.844,179.671 658.537,173.308 665.44,173.308 "/>
<polygon points="676.653,179.671 669.75,179.671 667.427,173.308 674.346,173.308 "/>
<polygon points="669.228,197.853 674.16,186.221 674.278,185.884 672.612,181.271 658.79,181.271 657.309,177.181 637.361,177.164 
	640.525,185.867 661.029,185.884 649.144,213.845 662.444,213.845 665.811,205.9 674.16,213.845 686.079,213.845 "/>
<polygon points="552.062,181.069 545.16,181.069 542.853,174.723 549.756,174.723 "/>
<polygon points="560.968,181.069 554.065,181.069 551.758,174.723 558.661,174.723 "/>
<polygon points="515.178,188.358 514.032,203.997 497.939,203.981 501.508,213.812 513.309,213.845 523.83,213.845 525.631,188.358 
	"/>
<polygon points="699.109,184.806 681.87,184.806 678.891,176.608 696.13,176.608 "/>
<polygon points="706.92,188.358 705.775,203.997 689.681,203.981 693.251,213.812 705.051,213.845 715.573,213.845 717.39,188.358 
	"/>
<polygon points="596.723,188.358 595.577,203.997 579.484,203.981 583.053,213.812 594.854,213.845 605.375,213.845 
	607.193,188.358 "/>
<polygon points="439.508,182.635 442.639,191.305 440.063,197.651 429.204,197.685 431.798,191.322 420.064,191.305 424.256,202.87 
	425.215,205.378 445.466,205.412 448.53,213.879 417.724,213.845 415.165,206.709 409.576,191.288 403.617,191.288 400.469,182.584 
	406.428,182.602 404.459,177.181 414.946,177.197 416.916,182.602 "/>
<polygon points="481.762,182.584 493.091,213.846 479.556,213.829 476.24,204.721 479.321,204.721 474.287,190.834 463.834,190.834 
	472.217,213.846 461.645,213.846 453.261,190.817 446.106,190.8 443.11,182.551 450.265,182.568 448.311,177.181 459.793,177.198 
	461.746,182.568 "/>
<polygon points="537.416,177.197 541.893,189.537 561.118,189.655 564.703,199.47 545.512,199.503 550.765,213.981 539.452,213.964 
	526.102,177.181 "/>
<polygon points="644.179,188.392 647.731,198.206 614.079,198.173 610.511,188.359 "/>
<polygon points="439.508,182.635 442.639,191.305 440.063,197.651 429.204,197.685 431.798,191.322 420.064,191.305 424.256,202.87 
	425.215,205.378 445.466,205.412 448.53,213.879 417.724,213.845 415.165,206.709 409.576,191.288 403.617,191.288 400.469,182.584 
	406.428,182.602 404.459,177.181 414.946,177.197 416.916,182.602 "/>
<polygon points="481.762,182.584 493.091,213.846 479.556,213.829 476.24,204.721 479.321,204.721 474.287,190.834 463.834,190.834 
	472.217,213.846 461.645,213.846 453.261,190.817 446.106,190.8 443.11,182.551 450.265,182.568 448.311,177.181 459.793,177.198 
	461.746,182.568 "/>
<polygon points="537.416,177.197 541.893,189.537 561.118,189.655 564.703,199.47 545.512,199.503 550.765,213.981 539.452,213.964 
	526.102,177.181 "/>
<polygon points="644.179,188.392 647.731,198.206 614.079,198.173 610.511,188.359 "/>
<polygon points="439.508,182.635 442.639,191.305 440.063,197.651 429.204,197.685 431.798,191.322 420.064,191.305 424.256,202.87 
	425.215,205.378 445.466,205.412 448.53,213.879 417.724,213.845 415.165,206.709 409.576,191.288 403.617,191.288 400.469,182.584 
	406.428,182.602 404.459,177.181 414.946,177.197 416.916,182.602 "/>
<polygon points="481.762,182.584 493.091,213.846 479.556,213.829 476.24,204.721 479.321,204.721 474.287,190.834 463.834,190.834 
	472.217,213.846 461.645,213.846 453.261,190.817 446.106,190.8 443.11,182.551 450.265,182.568 448.311,177.181 459.793,177.198 
	461.746,182.568 "/>
<polygon points="537.416,177.197 541.893,189.537 561.118,189.655 564.703,199.47 545.512,199.503 550.765,213.981 539.452,213.964 
	526.102,177.181 "/>
<polygon points="644.179,188.392 647.731,198.206 614.079,198.173 610.511,188.359 "/>
<polygon points="586.286,182.904 569.064,182.904 566.084,174.723 583.306,174.723 "/>
<polygon points="507.636,185.328 490.397,185.328 487.417,177.147 504.656,177.147 "/>
<polygon points="589.956,192.988 572.734,192.988 569.755,184.807 586.976,184.807 "/>
<polygon points="667.746,179.671 660.844,179.671 658.537,173.308 665.44,173.308 "/>
<polygon points="667.746,179.671 660.844,179.671 658.537,173.308 665.44,173.308 "/>
<polygon points="676.653,179.671 669.75,179.671 667.427,173.308 674.346,173.308 "/>
<polygon points="676.653,179.671 669.75,179.671 667.427,173.308 674.346,173.308 "/>
<polygon points="669.228,197.853 674.16,186.221 674.278,185.884 672.612,181.271 658.79,181.271 657.309,177.181 637.361,177.164 
	640.525,185.867 661.029,185.884 649.144,213.845 662.444,213.845 665.811,205.9 674.16,213.845 686.079,213.845 "/>
<polygon points="552.062,181.069 545.16,181.069 542.853,174.723 549.756,174.723 "/>
<polygon points="552.062,181.069 545.16,181.069 542.853,174.723 549.756,174.723 "/>
<polygon points="560.968,181.069 554.065,181.069 551.758,174.723 558.661,174.723 "/>
<polygon points="560.968,181.069 554.065,181.069 551.758,174.723 558.661,174.723 "/>
<polygon points="515.178,188.358 514.032,203.997 497.939,203.981 501.508,213.812 513.309,213.845 523.83,213.845 525.631,188.358 
	"/>
<polygon points="699.109,184.806 681.87,184.806 678.891,176.608 696.13,176.608 "/>
<polygon points="706.92,188.358 705.775,203.997 689.681,203.981 693.251,213.812 705.051,213.845 715.573,213.845 717.39,188.358 
	"/>
<polygon points="596.723,188.358 595.577,203.997 579.484,203.981 583.053,213.812 594.854,213.845 605.375,213.845 
	607.193,188.358 "/>
</svg>
