<?xml version="1.0" encoding="utf-8"?>
<!-- Generator: Adobe Illustrator 27.1.1, SVG Export Plug-In . SVG Version: 6.00 Build 0)  -->
<svg version="1.1" id="레이어_1" xmlns="http://www.w3.org/2000/svg" xmlns:xlink="http://www.w3.org/1999/xlink" x="0px"
	 y="0px" viewBox="0 0 720 165.211" enable-background="new 0 0 720 165.211" xml:space="preserve">
<polygon fill="#EF8200" points="686.534,127.923 687.257,46.868 653.269,35.419 653.117,119.843 653.151,119.861 653.185,153.529 
	686.87,164.471 686.55,127.923 "/>
<polygon fill="#EF8200" points="720,40.132 686.483,29.291 686.533,113.362 686.549,113.378 686.483,147.181 719.427,157.922 
	719.882,124.607 719.916,124.624 "/>
<polygon points="656.552,121.611 656.585,151.071 683.436,159.791 683.183,130.399 "/>
<polygon points="656.518,117.402 683.149,126.19 683.84,49.291 656.653,40.133 "/>
<polygon points="689.883,144.724 689.95,115.113 716.498,124.052 716.094,153.277 "/>
<polygon points="689.917,110.921 716.532,119.894 716.599,42.608 689.883,33.955 "/>
<polygon fill="#EF8200" points="0,0.858 32.001,164.521 90.467,164.79 58.296,1.448 "/>
<polygon fill="#EF8200" points="132.654,30.284 73.566,29.712 149.824,164.841 209.013,165.211 "/>
<polygon fill="#EF8200" points="304.649,59.374 282.074,0 163.173,70.99 185.597,130.146 226.791,105.652 248.944,164.084 
	299.885,164.588 268.539,80.838 "/>
<polygon fill="#EF8200" points="468.093,128.227 448.615,76.866 403.567,76.765 400.806,70.806 448.901,70.923 429.188,19.613 
	377.035,19.444 368.383,0.708 313.368,0.287 322.089,19.276 287.545,19.175 307.511,70.553 345.707,70.654 348.451,76.631 
	307.039,76.512 326.584,128.109 372.137,128.143 388.264,163.226 443.8,163.697 427.37,128.194 "/>
<polygon fill="#EF8200" points="571.017,111.443 550.967,111.477 531.524,56.53 459.642,56.092 476.425,100.669 500.717,100.652 
	504.606,111.392 458.917,111.141 477.991,162.501 589.989,162.569 "/>
<polygon fill="#EF8200" points="646.418,62.741 539.1,62.086 557.297,113.127 665.979,114.356 "/>
<polygon points="4.124,4.293 34.796,161.138 86.342,161.374 55.501,4.815 "/>
<polygon points="79.407,33.147 151.81,161.457 203.188,161.778 130.667,33.652 "/>
<polygon points="294.969,161.137 264.364,79.373 300.457,57.926 280.34,5 167.348,72.437 187.33,125.163 228.524,100.668 
	251.284,160.716 "/>
<polygon points="463.177,124.842 446.259,80.266 401.395,80.148 395.503,67.387 443.952,67.522 426.865,22.995 374.88,22.827 
	366.194,4.09 318.671,3.721 327.391,22.692 292.511,22.575 309.834,67.152 347.896,67.269 353.754,80.029 311.954,79.929 
	328.923,124.725 374.308,124.759 390.453,159.858 438.464,160.261 422.05,124.792 "/>
<polygon points="464.558,59.525 478.782,97.285 503.108,97.251 509.455,114.81 463.817,114.557 480.348,159.1 585.125,159.167 
	568.66,114.826 548.577,114.893 529.134,59.896 "/>
<polygon points="559.654,109.759 544.015,65.502 644.077,66.108 661.046,110.904 "/>
</svg>
