<?xml version="1.0" encoding="utf-8"?>
<!-- Generator: Adobe Illustrator 27.0.1, SVG Export Plug-In . SVG Version: 6.00 Build 0)  -->
<svg version="1.1" id="레이어_1" xmlns="http://www.w3.org/2000/svg" xmlns:xlink="http://www.w3.org/1999/xlink" x="0px"
	 y="0px" viewBox="0 0 720 234.413" enable-background="new 0 0 720 234.413" xml:space="preserve">
<path fill="#000" d="M277.853,105.581v-0.851l-0.51-0.613l-0.057-0.057l0.25-0.193h0.26l0.511,0.148l1.055,1.168l-0.091,0.965
	l-0.817,1.555c-0.602,1.362-0.67,2.542-0.204,3.563c0.806-1.6,1.248-2.439,1.316-2.542h0.159l-0.057,0.159l-0.658,2.224l-0.25,1.418
	l0.103,0.862l-0.511,0.658l-0.953-0.76l-0.318-1.112l-0.045-2.791l0.363-1.975L277.853,105.581 M282.403,106.704l1.669-0.204
	l-0.034-1.418l-1.18-1.067l0.612-0.567l0.92,0.159l0.953,0.454l0.204,0.454l-0.204,0.772v0.965l1.271-0.568l1.112,0.364
	l-0.351,0.907l-2.031,0.352l0.114,1.975l0.091,1.872l2.235,0.965l0.352,0.715l-0.907,0.511l-1.736-0.965l-0.602,1.316l-2.587,0.352
	l-0.965-0.612l-0.249-1.112l1.532-1.271l0.907-0.091l0.704,0.045l-0.057-1.725l-0.045-1.815c-1.18,0.136-1.975,0.226-2.383,0.295
	l-0.409,0.102l-0.249-0.102l-0.851-1.056l0.046-0.51l0.601,0.454L282.403,106.704 M284.23,111.868l-1.475-0.148l-1.101,0.851
	l1.056,0.817l1.067-0.249L284.23,111.868 M293.127,108.123l-1.101-0.772l-0.159,0.318l0.408,0.964l0.851,0.602h0.409l0.42-0.114
	c0.125-0.023,0.954-0.136,2.474-0.352l1.01-0.193l0.772,1.612c-1.736-0.159-3.063-0.069-4.017,0.318l-1.202,1.214l0.544,1.714
	l1.929,1.021l1.873,0.204l1.68-0.057l0.397-0.806l-0.908-0.658l-1.168,0.045l-1.918-0.148l-1.464-0.964l0.704-1.317
	c0.942-0.477,2.224-0.341,3.847,0.397l1.521,0.772l0.658-0.103l-0.057-1.225l-0.601-0.295l-0.454-0.465l-0.363-0.454l-0.647-1.112
	c2.156-0.51,3.325-0.896,3.484-1.157l-0.249-0.613l-1.112-0.454l-0.352,0.352l-0.51,0.306l-0.76,0.295l-0.953,0.306l-0.409-1.259
	c1.68-0.511,2.599-0.885,2.735-1.123l-0.159-0.511l-0.964-0.397l-0.398,0.454l-0.249,0.159l-1.283,0.454l-0.091-0.567v-0.647
	l-0.306-0.454l-1.067-0.454l-1.464,0.454l0.658,0.136l0.613,0.409l0.454,1.418l-1.635,0.306h-0.953l-0.704-0.352l-0.114,0.465
	l0.919,0.908l0.204,0.045c0.375-0.068,1.249-0.215,2.633-0.465l0.454,1.282l-2.44,0.454L293.127,108.123 M306.722,109.893
	l0.046,1.112l1.781-2.235l1.872-1.157l-0.159-1.566l-0.397-0.216l-0.409-0.034l0.102-0.215l0.602-0.352l1.123,0.352l0.408,0.67
	l-0.159,0.454v0.76l2.133,0.601l0.862,1.373l-0.056,1.669l-2.031,1.781h-1.317l-1.668,1.452l-1.362,0.465l0.091-0.148l0.306-0.159
	l1.725-1.93l-1.067-1.067l-0.544-1.362l0.238,0.103l0.567,0.862l1.01,0.817c0.069-0.42,0.103-1.169,0.103-2.293l-0.046-1.612
	l-1.52,0.965l-1.373,2.224l-0.204,0.76l-0.057,0.499l-0.398,0.51l-0.658-0.409c-0.443-0.738-0.522-1.77-0.261-3.086l0.306-1.623
	l-0.601-0.862l0.409-0.204l1.112,0.715l0.091,1.022L306.722,109.893 M311.443,112.174l1.203-0.352l0.817-1.77l-0.408-1.418
	l-1.475-0.772v1.975C311.579,110.926,311.533,111.697,311.443,112.174 M320.147,106.852l-0.908,1.168l-0.057,1.362l0.67,0.351
	l0.907-0.454l1.022-1.067l1.52-0.965l1.509,0.568l0.398,2.269l-0.999,2.599l-2.19,1.521l-0.851,0.295l0.261,0.159
	c1.169-0.17,2.167-0.488,2.973-0.965c1.055-0.612,1.77-1.327,2.19-2.19l0.409-2.121l-0.92-1.975
	c-0.681-0.579-1.543-0.772-2.587-0.613l-2.327,0.817l-0.613,0.306l-0.306-0.249l0.306-0.965L320.147,106.852 M321.213,105.933
	l0.454-0.136l1.18-0.567l0.488-0.102h1.067l0.612-0.261l0.057-0.602l-1.316-0.555l-1.328,0.102l-1.566-0.556l-0.148,0.103
	l0.556,0.806l1.01,0.704L321.213,105.933 M356.993,112.117l0.318,1.226l-0.817,0.045l-1.827-1.01l-0.25,0.965l-0.817,0.646
	l-1.418,0.159l-1.612-0.908l-0.261-1.021l0.817-0.954l2.383-0.363l-0.057-2.27l-1.77,0.034l-0.965-0.295l-0.601-0.907l0.238-0.057
	l0.919,0.409l2.133-0.204l-0.057-0.863l-0.045-0.76l-0.204-0.613c-1.294,0.136-2.202,0.352-2.746,0.613l-0.704,0.454l-0.046-0.159
	l0.749-0.851l1.577-0.919l2.327-0.398l0.862-0.057l0.965,0.103l0.352,1.021l-0.602,0.046l-1.464,0.057l0.238,0.193l0.159,0.318
	l-0.159,0.25v1.362l1.123-0.295l0.613-0.159l0.646,0.295l-0.249,0.965l-0.556,0.102l-1.577,0.261c0,0.409,0.023,1.248,0.057,2.531
	l1.577,0.613L356.993,112.117 M353.453,111.868l-1.68-0.148l-1.01,0.851l0.715,0.715l1.067,0.102l0.806-0.601L353.453,111.868
	 M346.61,107.669c-0.375,1.917-0.477,3.483-0.295,4.709l0.238,1.26l0.727,0.612l0.556-0.148l0.148-1.18v-0.806l0.306-1.566
	l0.556-1.781l-0.103-0.103l-1.316,2.542c-0.443-1.316-0.261-2.768,0.556-4.357l0.658-1.169l-0.159-0.76l-1.157-1.022h-0.612
	l-0.25,0.159l0.556,0.568l0.102,0.749L346.61,107.669 M365.096,108.213l1.531-0.965l1.521,0.568l0.397,2.269l-1.01,2.599
	l-2.179,1.521l-0.873,0.295l0.261,0.159c1.18-0.17,2.178-0.488,2.996-0.965c1.044-0.612,1.77-1.327,2.179-2.19l0.397-2.121
	l-0.907-1.975c-0.682-0.579-1.544-0.772-2.588-0.613l-2.338,0.817l-0.59,0.306l-0.318-0.249l0.318-0.965l-0.409,0.148l-0.919,1.168
	l-0.046,1.362l0.659,0.351l0.907-0.454L365.096,108.213z M364.539,105.933l0.454-0.136l1.169-0.567l0.51-0.102h1.067l0.601-0.261
	l0.057-0.602l-1.316-0.555l-1.317,0.102l-1.577-0.556l-0.159,0.103l0.568,0.806l1.01,0.704L364.539,105.933 M378.735,105.535
	l0.215-0.454v-0.817l-0.567-0.454l-0.749-0.397l-0.817-0.103l-0.51,0.352l0.919,0.658l0.046,0.409c-0.035,0-0.08,1.135-0.148,3.438
	c-0.035,1.112-0.035,2.043,0,2.792l0.454,1.872c0.409,0.67,1.146,1.078,2.224,1.214l2.281-0.295c1.453-0.578,2.61-1.611,3.45-3.097
	l-0.057-0.352c-0.772,0.873-1.747,1.554-2.939,2.02l-2.327,0.409l-1.714-1.362l-0.159-1.283l0.102-2.02
	C378.474,107.6,378.577,106.749,378.735,105.535 M398.129,113.434c0.715-0.568,1.294-1.498,1.725-2.78v-0.602l-0.103,0.136
	c-0.681,1.259-1.441,2.065-2.281,2.439l-0.908,0.204l-0.817-0.51l-0.193-1.214l-0.318-1.214l-1.464-0.715l-1.566,0.454l0.454-0.749
	l1.521-2.281l0.352-0.51l0.907-0.908l-0.295-0.964l-1.067-0.715h-1.021l-0.398,0.306l0.908,0.454l-0.204,1.112
	c-0.306,0.477-0.93,1.452-1.872,2.939c-0.988,1.635-1.691,2.792-2.122,3.507l-0.567,0.704l-0.148,0.908l0.556,0.669l0.964-0.817
	l0.76-1.521l0.817-1.362l1.101-0.613l0.964,0.295l0.204,0.465l0.114,1.521l0.193,1.112l0.76,0.704l1.622,0.159L398.129,113.434
	 M408.705,113.842l0.749,0.364l1.974,0.102l2.031-0.159l0.613-0.352l-0.454-0.76l-0.874-0.249l-0.136,0.136l-0.363,0.057
	c-1.078,0.17-1.827,0.193-2.236,0.057l-0.397-0.613l-0.057-1.157l-0.658-0.817l-1.01-0.046l1.373-1.373l1.521-1.362l0.646-0.261
	l-0.295-0.76l-0.907-0.556l-0.715,0.409c-0.806,0.204-1.827,0.454-3.041,0.749l-0.908-0.397l0.249-0.454l-0.454,0.148l-0.613,0.703
	l-0.057,0.772l0.874,0.704l0.658-0.148l0.908-0.454l2.076-0.772c-1.18,1.316-1.975,2.213-2.383,2.644
	c-1.453,1.418-2.27,2.19-2.486,2.327l-0.806,0.76l0.409,1.168l0.397-0.045c0.182-0.103,0.828-0.84,1.986-2.19l0.703-0.749
	l0.92-0.409l0.351,0.863v1.316L408.705,113.842 M406.527,105.683l0.148,0.148l1.725-0.601l0.544,0.057l0.613-0.103l0.261-0.806
	l-0.51-0.477l-1.521-0.136l-1.725-0.567l-0.307-0.045l0.863,1.259l0.817,0.454l-0.556,0.465L406.527,105.683z M420.031,108.315
	c-0.976,1.635-1.691,2.792-2.134,3.507l-0.544,0.704l-0.159,0.908l0.555,0.669l0.965-0.817l0.76-1.521l0.806-1.362l1.112-0.613
	l0.964,0.295l0.216,0.465l0.091,1.521l0.204,1.112l0.76,0.704l1.623,0.159l1.418-0.612c0.704-0.568,1.283-1.498,1.714-2.78v-0.602
	l-0.091,0.136c-0.681,1.259-1.43,2.065-2.292,2.439l-0.908,0.204l-0.806-0.51l-0.204-1.214l-0.307-1.214l-1.464-0.715l-1.578,0.454
	l0.465-0.749l1.509-2.281l0.363-0.51l0.92-0.908l-0.318-0.964l-1.056-0.715h-1.01l-0.409,0.306l0.908,0.454l-0.204,1.112
	C421.608,105.853,420.972,106.829,420.031,108.315 M441.138,105.535l0.363-0.204l0.091-0.408l-1.01-1.022l-0.919-0.193l0.057,0.193
	l0.817,1.067L441.138,105.535 M443.01,104.06l-0.965-0.862l-1.259-0.148l-0.103,0.103l1.215,1.01l0.147,0.215l0.613,0.25
	L443.01,104.06 M441.796,107.305l0.306-0.601l-0.567-0.454l-0.806-0.261l-0.397,0.454l-0.25,0.159l-1.021,0.398l-0.908,0.249
	l-0.454-1.202l0.999-0.307l0.715-0.261l0.568-0.454l-0.715-0.704l-0.408,0.057l-0.454,0.295l-1.021,0.409l-0.136-0.67l0.034-0.51
	l-0.647-0.704l-1.021-0.295l-0.556,0.057l-0.352,0.488l1.022,0.363l0.238,0.76l0.261,0.806l-1.782,0.363l-0.999-0.102l-0.555-0.454
	v0.704l0.907,0.817l1.067-0.057l1.669-0.306l0.454,1.225c-1.123,0.261-2.178,0.454-3.189,0.556l-1.123-0.204l-0.556-0.613
	l-0.249,0.613l0.409,0.556l1.168,0.76c0.057,0,0.817-0.125,2.281-0.352l1.77-0.307l0.806,1.509
	c-1.112-0.125-2.043-0.136-2.792-0.034c-1.168,0.159-1.963,0.602-2.326,1.317l0.159,1.77l1.362,1.01
	c1.089,0.409,2.417,0.556,3.994,0.454l0.715-0.397l-0.148-0.715l-0.567-0.352l-0.999,0.045l-1.872-0.045l-1.385-0.454l-0.454-1.123
	l1.067-1.01l1.577-0.045l2.122,0.646l1.169,0.67l0.806-0.057l0.159-0.76l-0.352-0.454l-0.363-0.204l-0.908-0.862l-0.658-1.169
	l2.474-0.749L441.796,107.305 M223.088,150.62c-1.033,0-1.747,1.033-6.298,8.511v-25.794c3.859-1.282,4.675-2.213,4.675-3.733
	c0-1.747-5.015-3.03-18.917-4.789l-0.806,0.817c1.044,2.225,1.396,4.676,1.396,11.439v22.299h-2.917
	c-9.112,0-16.692-0.238-22.639-0.942l1.044,3.972c5.605-0.704,12.482-0.931,21.594-0.931h2.917v51.826
	c0,4.085-0.93,4.664-3.507,5.027c-5.719,0.692-10.508,0.817-15.058,0.692v1.283c9.691,2.791,11.325,6.775,12.381,10.973
	c0.59,2.576,0.817,2.678,4.664,2.678c7.24,0,16.341-5.243,16.341-12.358l-1.169-53.585v-6.536h12.608
	c1.986,0,2.678-0.352,2.678-1.759c0-0.931-0.692-2.099-4.199-5.595C224.734,150.961,223.916,150.62,223.088,150.62 M187.615,207.223
	c-10.86,1.396-20.426,2.577-29.062,3.507v-16.466h19.496c1.861,0,2.554-0.352,2.554-1.747c0-1.056-0.568-2.099-5.357-6.31
	c-3.858-3.268-4.675-3.96-5.844-3.96c-0.931,0-1.635,0.693-7.705,9.918h-3.144v-12.256c3.609-1.044,4.438-1.861,4.438-3.155
	c0-2.213-3.745-3.268-18.1-5.242l-0.806,0.817c1.157,2.451,1.396,4.891,1.396,9.101v10.735c-7.478,0-14.707-0.238-21.243-0.931
	l0.931,3.96c6.184-0.692,12.948-0.93,20.312-0.93v17.623c-3.733,0.352-7.365,0.59-10.86,0.715
	c-4.902,0.227-8.171,0.568-12.029,0.341l-0.579,0.817c1.056,4.902,2.689,9.918,4.199,14.241c0.59,1.521,1.169,1.986,2.11,2.111
	c0.693,0.102,1.748-0.125,3.734-0.715c19.37-6.06,38.276-13.187,55.786-21.119L187.615,207.223z M144.89,168.595
	c-8.057,0-15.989-0.238-23.104-0.942l1.056,3.96c6.639-0.692,14.117-0.93,22.049-0.93h35.371c1.861,0,2.576-0.341,2.576-1.747
	c0-1.044-0.59-2.099-5.379-6.31c-3.733-3.257-5.016-3.733-6.071-3.733c-1.056,0-2.327,1.646-8.171,9.702h-4.551v-19.734h19.144
	c1.861,0,2.565-0.351,2.565-1.747c0-1.055-0.931-2.338-5.368-6.309c-2.803-2.44-4.437-3.495-5.481-3.495
	c-1.056,0-2.111,1.055-8.057,9.452h-2.803v-13.776c3.62-1.055,4.426-1.861,4.426-3.143c0-2.224-3.37-3.268-18.077-5.254
	l-0.828,0.806c1.169,2.463,1.294,4.914,1.294,9.113v12.255c-7.478,0-14.366-0.238-21.016-0.93l0.93,3.96
	c6.31-0.692,12.846-0.931,20.086-0.931v19.734H144.89z M179.092,172.908c3.745,3.382,5.368,9.226,5.833,17.624
	c0.465,7.932,2.576,9.452,7.24,9.452c4.085,0,7.592-3.143,7.592-8.874c0-7.932-6.072-15.751-19.961-19.132L179.092,172.908z
	 M353.112,151.653c0,1.294-0.93,1.998-4.312,3.507v12.97l1.169,28.586c0,4.323-4.086,7.002-10.395,7.002
	c-3.847,0-4.323-0.567-4.323-4.086v-5.015h-9.328l0.931,32.33c0,6.071-5.368,7.365-10.736,7.365c-3.733,0-4.199-0.465-4.199-4.449
	l0.931-35.246h-8.409v3.381c0,4.21-2.213,7.115-9.691,7.115c-3.03,0-3.609-0.465-3.609-4.199l0.692-31.388v-15.059
	c0-7.24-0.227-9.918-1.282-12.267l0.817-0.817c8.987,2.463,13.89,4.562,15.399,6.072h6.083v-12.483c0-4.323-0.238-7.705-1.294-9.804
	l0.828-0.704c14.343,1.747,18.202,3.155,18.202,4.789c0,1.747-0.465,2.099-4.664,3.62v14.582h7.342
	c4.449-5.946,5.618-6.536,6.662-6.536c1.509,0,2.565,0.59,7.115,4.21C352.295,149.213,353.112,150.382,353.112,151.653
	 M312.85,171.047h-8.397v21.482h8.397V171.047z M312.85,149.565h-5.72c-0.363,0.579-1.056,0.931-2.689,1.623v17.748h8.409V149.565z
	 M335.251,171.047h-9.328v21.482h9.328V171.047z M335.251,149.565h-9.328v19.37h9.328V149.565z M286.466,145.48
	c-4.21-3.745-5.606-4.675-6.888-4.675c-1.056,0-2.111,1.056-5.833,6.184h-0.941v-14.343c3.631-1.294,4.663-1.998,4.663-3.507
	c0-1.634-2.791-2.803-17.725-4.789l-0.817,0.817c0.93,2.099,1.157,3.733,1.157,8.045v13.776c-5.946-0.102-11.666-0.352-16.455-0.93
	l1.056,3.971c5.481-0.704,12.721-0.93,20.54-0.93h8.17c-5.719,17.737-18.327,35.711-32.568,46.095l0.693,0.931
	c6.547-2.327,12.846-5.946,18.803-10.61l-0.465,15.524l-0.828,29.175c0,3.734,0.59,4.199,4.687,4.199
	c5.13,0,9.453-1.747,9.453-6.638l-0.465-27.553v-25.215c3.268,2.803,3.836,7.83,4.199,14.242c0.227,4.437,2.213,6.072,5.254,6.072
	c4.551,0,7.592-3.496,7.592-8.057c0-6.763-5.152-12.381-16.704-13.89c5.367-5.958,10.042-12.732,13.663-19.609
	c3.507-1.055,4.199-1.747,4.199-2.678C290.903,150.03,290.437,148.975,286.466,145.48 M372.948,125.87l-0.352,1.169
	c5.028,1.975,7.354,6.536,8.296,12.608c0.693,4.663,2.213,7.115,7.342,7.115c4.562,0,7.705-3.506,7.705-7.83
	C395.939,131.125,389.164,125.167,372.948,125.87 M438.198,210.026l-0.363,1.169c8.057,3.381,14.242,9.679,17.987,15.876
	c2.791,4.664,4.663,7.002,8.397,7.002c4.562,0,7.705-1.747,7.705-7.705C471.925,218.787,461.654,210.844,438.198,210.026
	 M421.846,209.21l-1.157,0.351c-1.056,2.1-2.576,3.848-5.958,7.24c-5.254,5.357-14.706,11.439-26.032,16.103l0.238,1.169
	c14.934-1.747,26.963-5.606,40.739-12.381c1.282,0.125,2.338,0.238,3.143,0.238c2.225,0,3.155-0.465,3.155-1.861
	C435.974,217.959,433.988,215.871,421.846,209.21 M470.528,141.27c4.199,4.437,4.902,5.719,4.902,7.591
	c0,1.635-1.52,2.327-8.863,2.451c-1.645,0.704-3.166,1.396-4.913,2.099c4.664,3.859,5.141,4.551,5.141,5.606
	c0,0.817-0.704,1.157-2.576,1.157h-20.653c-0.125,1.646-0.59,2.701-2.928,3.393v8.636h11.915c4.437-5.481,5.833-6.06,6.775-6.06
	c1.271,0,3.144,0.931,6.65,3.734c4.086,3.257,5.13,4.663,5.13,5.833c0,1.282-1.282,2.44-4.437,3.847v7.944l0.704,18.202
	c0,4.562-3.848,5.844-9.691,5.844c-3.496,0-3.96-0.59-3.96-3.041v-0.931h-37.936v0.931c0,4.096-3.507,5.719-8.874,5.719
	c-3.155,0-3.734-0.465-3.734-3.858l0.693-22.866v-10.973c0-3.62-0.227-5.379-0.931-7.705l0.817-0.817
	c9.226,1.986,12.959,3.144,14.242,4.199h10.043v-12.029c-8.057,0-14.242,0.238-19.848,0.942l-0.465-1.986
	c-1.055,0.477-2.11,0.704-3.268,0.704c-3.62,0-6.775-1.747-6.775-5.72c0-3.155,1.759-5.367,3.859-6.888
	c5.016-3.733,6.412-7.002,5.946-12.959l1.056-0.227c1.759,2.565,3.041,4.664,3.847,7.694h15.524v-9.089
	c0-3.507-0.102-5.504-0.93-7.478l0.828-0.817c14.469,1.986,17.964,3.155,17.964,5.027c0,1.509-1.044,2.213-4.437,3.37v8.987h16.931
	c4.073-4.891,4.789-5.821,5.719-5.821C465.275,135.913,466.091,136.492,470.528,141.27 M428.042,190.179h-12.256v15.297h12.256
	V190.179z M428.042,174.315h-9.465c-0.34,0.692-1.044,1.157-2.791,1.861v11.904h12.256V174.315z M453.722,190.179H440.65v15.297
	h13.072V190.179z M440.638,188.08h13.072v-13.776h-13.072V188.08z M458.851,143.846h-45.993c0.249,1.52,0.352,3.268,0.352,5.254
	c0,3.506-1.157,6.411-3.03,8.272c5.833,0.59,12.142,0.715,19.961,0.715h18.213c6.06-7.592,6.888-8.523,7.705-8.523l1.396,0.465
	C458.046,148.045,458.511,145.945,458.851,143.846 M371.779,165.895c0.704,4.675,3.041,6.899,6.65,6.899
	c4.551,0,8.284-2.451,8.284-7.592c0-7.83-6.65-13.776-22.866-13.073l-0.352,1.169C368.273,155.511,370.849,159.131,371.779,165.895
	 M383.91,205.476c0-1.168,0.238-2.224,1.294-5.719c4.551-15.876,7.467-29.539,13.538-55.673l-1.056-0.465
	c-8.987,22.753-16.329,40.149-23.807,54.152c-1.044,1.986-2.327,2.451-3.972,2.451c-2.212,0-2.916,0-4.539-0.238l-0.363,0.931
	c7.591,3.507,8.057,5.254,8.057,10.747c0,1.872-0.227,4.437-0.578,7.001c-0.465,3.155-0.828,6.423-0.828,9.113
	c0,4.085,1.759,6.638,6.661,6.638c7.115,0,10.157-4.425,10.157-10.145c0-3.858-1.635-9.112-4.086-14.832
	C383.808,208.041,383.91,206.759,383.91,205.476 M563.07,171.614l-0.465,1.056c3.28,1.986,5.254,5.946,5.844,9.339
	c0.704,4.323,2.576,6.072,6.06,6.072c3.858,0,7.002-3.03,7.002-7.467C581.511,175.12,574.168,171.274,563.07,171.614
	 M596.343,222.986c1.407,1.623,1.872,3.03,1.872,5.254c0,3.96-3.268,5.946-7.24,5.946c-5.606,0-12.256-0.465-23.218-7.115
	c-2.235-1.282-4.448-3.155-6.661-5.481c-9.918,5.481-20.891,8.624-34.441,10.269l-0.227-1.18
	c12.608-4.664,21.833-10.031,29.062-16.103c-4.21-6.536-7.002-13.765-8.749-21.243h-19.155v7.354
	c5.617-0.806,11.802-1.747,18.565-2.803l0.352,1.169c-6.888,3.041-12.959,5.719-18.792,8.045l0.817,16.704
	c0,7.002-7.229,10.27-15.876,10.27c-2.678,0-3.041-0.352-3.382-2.689c-0.465-4.312-2.338-7.705-10.394-10.043v-1.157
	c3.631,0.114,8.295-0.114,12.959-0.704c1.521-0.227,2.338-0.692,2.338-3.143v-4.21c-4.199,1.407-8.397,2.689-12.607,3.972
	c-3.745,1.168-5.254,1.52-6.072,1.52c-0.942,0-1.407-0.238-2.099-1.646c-1.396-2.905-3.041-7.115-4.789-11.427l0.59-0.942
	c5.356,0,9.339,0,13.652-0.352c3.495-0.227,7.24-0.579,11.325-1.044v-8.875c-10.508,0-19.496,0.352-24.977,0.931l-1.056-3.96
	c6.072,0.578,15.173,0.93,26.032,0.93v-7.115c-7.83,0.806-16.352,1.52-24.749,1.622l-0.227-1.282
	c16.92-3.495,26.962-7.705,35.247-11.552c2.326-1.056,3.971-2.224,5.027-3.268h-12.153c-12.007,0-22.526,0.238-28.586,0.93
	l-1.055-3.96c6.775,0.692,17.271,0.931,29.641,0.931h16.579v-11.678h-4.426c-12.029,0-22.537,0.238-28.608,0.942l-1.056-3.971
	c6.775,0.704,17.283,0.93,29.664,0.93h4.426v-11.2h-11.552c-12.029,0-22.537,0.227-28.597,0.931l-1.056-3.972
	c6.775,0.704,17.283,0.931,29.652,0.931h0.465c-1.396-1.157-2.224-3.268-2.689-5.594c-0.817-3.62-2.212-6.888-6.536-10.043
	l0.704-0.942c15.989,0.249,20.426,4.562,20.426,10.758c0,3.03-1.168,4.778-2.916,5.821h15.989c1.872-4.891,2.928-8.522,3.495-11.2
	c0.363-1.747,0.59-3.382,0.59-5.016l1.056-0.704c15.524,3.847,17.861,5.606,17.861,7.24c0,1.747-1.407,2.44-5.379,2.803
	c-3.381,2.451-6.65,4.551-10.962,6.877h19.598c6.31-8.863,7.24-9.68,8.295-9.68c1.044,0,1.747,0.114,6.536,3.96
	c5.016,4.097,5.72,5.379,5.72,6.423c0,1.044-0.59,1.407-2.451,1.407h-40.149c-0.238,1.861-1.056,2.451-3.155,2.917v8.284h15.059
	c6.412-8.284,7.354-9.112,8.397-9.112c1.056,0,1.634,0.125,6.423,3.983c5.028,3.847,5.72,4.777,5.72,5.833
	c0,1.044-0.59,1.396-2.451,1.396H548.84v11.678h26.849c6.071-8.875,7.818-10.395,8.863-10.395c1.055,0,2.576,0.704,7.466,4.789
	c4.914,4.085,5.606,5.254,5.606,6.298c0,1.056-0.578,1.407-2.439,1.407h-62.811c10.157,6.65,11.325,7.58,11.325,9.101
	c0,1.52-1.407,1.872-5.946,1.52c-2.11,0.465-4.448,0.93-6.774,1.396c-0.114,1.873-0.817,2.689-3.393,3.268v6.309h18.803
	c-0.59-3.041-0.93-6.184-1.055-9.453c-0.238-5.254-0.465-7.932-1.283-9.339l0.817-0.828c15.172,2.111,18.44,3.268,18.44,5.254
	c0,1.521-1.056,2.111-4.437,3.268c0.125,4.096,0.465,7.705,1.168,11.098h16.806c6.661-8.76,7.592-9.804,8.647-9.804
	c1.044,0,2.213,0.465,6.412,4.085c5.141,4.437,5.492,5.367,5.492,6.412c0,1.055-0.59,1.407-2.45,1.407h-21.482
	c13.311,6.072,14.706,7.478,14.706,9.101c0,1.521-1.747,2.111-5.141,1.873c-3.268,3.506-6.65,6.536-10.031,9.226
	c1.044,0.93,2.224,1.623,3.268,2.338c3.155,1.986,7.002,3.018,9.226,3.018c1.396,0,2.564-1.033,3.733-2.678
	c2.213-3.041,3.847-5.367,6.423-11.098l0.931,0.477c-1.056,5.368-1.759,9.691-1.759,12.142
	C594.822,219.718,595.185,221.692,596.343,222.986 M572.421,193.334h-11.79c0.931,4.086,2.565,7.944,4.664,11.439
	c1.521-1.747,2.803-3.495,4.21-5.367C571.127,197.181,572.058,195.433,572.421,193.334 M720,171.501
	c-84.337-50.169-214.248-82.318-360-82.318c-145.763,0-275.674,32.149-360,82.318c54.254-41.363,139.273-72.695,239.883-86.778
	l-0.284-1.623l0.181-10.157c-7.194,0-12.131,0.182-16.443,0.715l-0.806-3.053c4.767,0.545,10.055,0.715,17.34,0.715l0.091-6.911
	h-6.559v0.635c0,2.145-2.156,3.132-5.753,3.132c-2.236,0-2.78-0.091-2.61-2.519l0.454-6.457V56.32c0-2.428-0.182-3.416-0.715-4.936
	l0.636-0.533c5.651,1.702,8.159,2.689,9.158,3.404h5.481v-0.715c0-2.065-0.091-3.144-0.363-4.131
	c-0.908,1.441-2.962,1.884-6.026,1.884c-1.793,0-2.144-0.091-2.144-3.052l0.351-5.924v-1.18c-2.871,0.091-5.934,0.284-8.624,0.636
	l-0.715-2.962c3.053,0.352,6.378,0.625,9.339,0.727v-1.714c0-3.143-0.272-4.233-0.726-5.481l0.635-0.636
	c8.987,1.089,11.144,2.076,11.144,3.234c0,0.897-0.454,1.351-2.871,1.884v2.712h8.987V37.46c0-3.144-0.283-4.04-0.726-5.3
	l0.624-0.624c9.249,1.067,11.053,2.054,11.053,3.235c0,0.896-0.363,1.248-2.61,1.883v2.883h0.715
	c3.609-4.766,4.233-5.311,4.766-5.311c0.545,0,1.169,0.545,3.768,2.883c2.258,2.054,2.61,2.508,2.61,3.132
	c0,0.544-0.352,0.896-1.43,0.896h-10.327l0.261,5.492c0,2.689-2.247,4.04-6.196,4.04l-0.715,1.623l-1.793,0.612v1.351h6.105
	c2.871-3.313,3.495-3.859,4.04-3.859c0.715,0,1.168,0.273,4.494,2.508c2.689,1.895,3.234,2.429,3.234,3.155
	c0,0.624-0.635,1.26-2.61,2.338v1.34l0.272,3.325c0,1.532-0.726,2.519-2.065,3.143l1.702,1.532c2.871,2.519,3.313,3.325,3.313,4.04
	c0,0.908-0.443,1.168-1.884,1.168h-16.341l0.181,8.262l-0.612,2.315c4.119-0.533,8.261-1.033,12.426-1.509
	c7.603-7.569,10.19-15.671,10.19-31.161V40.342c0-2.701-0.261-4.505-0.806-6.65l0.624-0.635c7.285,1.975,9.974,2.962,10.962,3.767
	h7.466c3.405-4.312,4.222-4.936,4.936-4.936c0.897,0,1.34,0.103,5.209,3.325c3.858,3.234,4.131,4.039,4.131,4.857
	c0,0.624-0.806,1.43-2.962,2.417v8.897l0.715,24.977l-0.193,2.054c14.956-0.976,30.174-1.578,45.596-1.804
	c-12.517-5.22-21.345-17.578-21.345-31.956c0-19.098,15.535-34.622,34.622-34.622c19.098,0,34.623,15.524,34.623,34.622
	c0,14.389-8.84,26.759-21.368,31.967c31.626,0.477,62.368,2.61,91.872,6.196c-0.897-4.573-3.597-6.911-10.418-9.419l0.17-0.999
	c6.105,0.806,9.884,0.999,12.312,0.999c3.155,0,5.209-0.272,6.287-2.247c1.26-2.428,2.076-5.844,2.689-9.975h-41.499l-0.988,4.312
	c-0.533,2.247-2.871,3.416-5.118,3.416c-3.96,0-6.911-0.363-6.911-1.884l0.261-2.156l2.52-9.169l1.078-4.131
	c0.715-2.689,0.896-4.675,0.896-6.207l-0.181-2.145l0.636-0.544c9.066,2.519,12.029,3.96,12.925,4.766h35.315V37.55h-30.004
	c-7.286,0-14.911,0.17-19.144,0.715l-0.806-3.052c4.766,0.544,12.664,0.715,19.949,0.715h28.926
	c2.599-2.951,3.676-4.131,4.403-4.573h-2.962c-16.363,0-17.43-0.363-17.43-7.898l0.26-5.039V13.39h-13.469
	c7.183,2.78,9.249,3.586,9.249,4.936c0,0.988-1.249,1.612-3.949,1.804c-7.455,9.6-18.145,14.639-35.303,15.535l-0.091-0.896
	c15.184-4.675,20.483-10.418,24.523-17.964c0.727-1.351,1.078-2.338,1.169-3.416h-12.04c0.181,1.157,0.272,2.327,0.272,3.507
	c0,7.002-3.676,10.871-8.624,10.871c-3.064,0-5.391-2.168-5.391-5.663c0-2.882,1.43-4.312,3.949-5.674
	c4.414-2.417,5.662-6.105,5.402-10.587l0.806-0.193c1.611,1.804,2.689,3.87,3.223,6.117h21.743V8.171
	c0-3.677-0.261-5.47-1.078-7.183l0.636-0.636c13.027,1.271,14.729,2.167,14.729,3.699c0,1.157-0.806,1.6-3.416,2.508v5.208h20.041
	c3.858-4.312,5.208-5.571,5.923-5.571c0.817,0,2.065,0.363,6.196,3.87c3.415,2.871,4.222,4.131,4.222,5.208
	c0,1.157-0.545,1.623-4.573,1.884l-0.103,2.247c0,1.532,0.193,1.975,1.26,2.871c0.987,0.896,1.532,1.532,1.532,3.064
	c0,2.144-1.169,3.234-3.052,4.221c-1.532,0.806-4.052,1.521-11.859,1.702c0.806,0.352,2.065,1.078,4.483,2.871
	c3.427,2.519,4.051,3.325,4.051,4.222c0,0.987-0.624,1.623-3.143,2.689v2.519l0.363,5.754c0,3.052-2.962,4.403-7.819,4.403
	c-2.599,0-3.052-0.363-3.052-2.962v-1.702h-35.405c-0.352,0.443-1.157,0.806-2.508,0.976l-2.156,9.521h40.149
	c3.246-3.938,4.505-4.834,5.129-4.834c0.976,0,2.247,0.522,6.287,3.586c3.676,2.78,4.755,4.131,4.755,5.118
	c0,0.988-0.624,1.702-3.938,3.053c-0.908,4.039-1.623,6.65-2.52,8.715c-1.35,3.052-2.791,5.208-4.857,6.741
	c-1.282,0.941-3.007,1.657-4.925,2.156C578.152,97.864,664.917,129.502,720,171.501 M487.391,21.833
	c1.441-1.169,2.519-2.247,3.779-4.584h-0.988c-3.597,1.792-7.013,3.143-11.586,4.584l-0.635-0.636
	c2.065-2.871,3.325-4.675,4.766-7.807h-11.234c-0.181,1.43-0.896,2.145-2.599,2.52v5.379c0,2.065,0.272,2.338,6.378,2.338
	C484.793,23.627,486.325,22.73,487.391,21.833 M240.053,55.877h-5.208l-1.441,0.806v6.105h6.65V55.877z M255.951,64.411h-6.831
	l0.091,6.911h5.391c1.441-2.054,2.519-3.496,3.234-4.483C256.133,66.839,255.951,66.567,255.951,64.411 M249.04,62.788h6.911v-6.911
	h-6.911V62.788z M240.053,45.811h8.987v-4.675h-8.987V45.811z M240.053,48.149c2.951,0.364,6.015,0.625,8.987,1.26v-1.975h-8.987
	V48.149z M290.892,62.255h-11.053c-1.839,8.522-6.06,14.605-13.175,19.166c6.457-0.692,12.959-1.305,19.518-1.849
	c-1.271-1.623-3.37-2.996-6.797-3.938v-0.897c3.325,0.091,5.754,0.091,8.987-0.17c1.714-0.181,2.52-0.635,2.52-3.506V62.255z
	 M290.892,50.305h-9.975v0.636c0,3.495-0.261,6.729-0.715,9.691h10.69V50.305z M290.892,38.447h-8.352l-1.623,1.26v8.976h9.975
	V38.447z M224.779,9.339l-0.806-3.052c7.807,0.544,13.379,0.715,24.784,0.715h40.795C294.398,0.988,295.465,0,296.282,0
	c1.078,0,1.975,0.533,5.22,3.052c4.028,3.144,4.312,3.416,4.312,4.222c0,1.089-0.545,1.351-2.077,1.351h-22.094
	c-0.091,1.248-0.636,1.975-2.259,2.519v4.131h9.442c3.246-4.051,3.949-5.027,4.755-5.027c1.089,0,1.986,0.715,5.492,3.404
	c3.859,2.962,4.483,3.597,4.483,4.584c0,0.999-0.806,1.702-3.325,2.883v0.896l0.363,4.131c0,3.586-2.338,5.027-7.365,5.027
	c-2.973,0-3.416-0.454-3.416-2.883h-49.761c-0.635,2.077-2.61,3.064-6.922,3.064c-2.338,0-2.962-0.544-2.962-3.234l0.533-8v-2.065
	c0-3.234-0.261-4.573-0.988-6.366l0.625-0.636c7.739,2.338,10.701,3.416,11.677,4.222h8.012v-6.65h-1.271
	C237.625,8.624,232.235,8.806,224.779,9.339 M250.028,16.897H242.3c-0.193,0.443-0.726,0.806-1.986,1.339v8.443h9.714V16.897z
	 M279.385,26.679h10.429v-9.782h-10.429V26.679z M259.719,15.274h9.793v-6.65h-7.546c-0.091,1.248-0.624,1.975-2.247,2.519V15.274z
	 M259.719,26.679h9.793v-9.782h-9.793V26.679z"/>
<path fill="#FFFFFF" d="M364.298,61.141c0-2.121-1.725-3.858-3.859-3.858c-2.122,0-3.859,1.736-3.859,3.858
	c0,2.122,1.736,3.859,3.859,3.859C362.573,65,364.298,63.263,364.298,61.141"/>
<path fill="#FFFFFF" d="M360.443,12.774c-8.795,0-15.933,7.137-15.933,15.943c0,8.795,7.138,15.932,15.933,15.932v0.057
	c8.794,0,15.932,7.138,15.932,15.932c0,8.182-6.162,14.922-14.094,15.842c16.749-0.953,30.049-14.843,30.049-31.831
	C392.33,27.038,378.054,12.774,360.443,12.774 M360.443,32.927c-2.122,0-3.859-1.725-3.859-3.858c0-2.122,1.736-3.859,3.859-3.859
	c2.121,0,3.858,1.736,3.858,3.859C364.3,31.203,362.564,32.927,360.443,32.927"/>
</svg>
