<?xml version="1.0" encoding="utf-8"?>
<!-- Generator: Adobe Illustrator 27.0.1, SVG Export Plug-In . SVG Version: 6.00 Build 0)  -->
<svg version="1.1" id="레이어_1" xmlns="http://www.w3.org/2000/svg" xmlns:xlink="http://www.w3.org/1999/xlink" x="0px"
	 y="0px" viewBox="0 0 720 246.652" enable-background="new 0 0 720 246.652" xml:space="preserve">
<path d="M402.421,236.325c-2.23-0.203-4.216,1.419-4.398,3.648c-0.182,2.027,1.155,3.851,3.04,4.257c0,0-1.682,1.621-3.79,1.418
	l-3.263-1.621c-2.959-3.04-5.371-7.905-7.58-12.769c3.121-5.878,5.736-18.038,5.493-22.7c-0.284-5.472-4.52-7.297-6.384-2.838
	c-1.014,2.433-0.325,5.067-0.162,5.27h0.223l1.176-4.459c1.561-2.027,3.425-1.621,3.831,0.203c0.507,2.229-0.203,6.688-2.25,14.593
	c-1.277,4.864-2.838,7.702-2.838,7.702c-0.02,0-3.79-9.932-4.925-13.377l-1.236-4.257c2.513-3.648,5.411-10.134,5.411-16.417
	c0-6.688-2.29-10.944-5.452-10.944c-3.648,0-6.182,6.485-6.182,13.579c0,3.243,0.365,6.283,0.932,9.121l1.804,6.891
	c-3.121,3.851-6.526,8.513-6.526,17.025c0,6.08,3.344,9.121,5.797,9.931c3.06,1.014,6.749-2.432,9.1-5.877
	c2.574,4.661,5.594,8.715,9.039,10.539h0.041l2.959,1.216c4.195,0.811,7.783-1.013,9.323-4.053l0.507-1.622
	C406.292,238.555,404.65,236.528,402.421,236.325 M375.546,195.586c-0.284-3.445,1.054-9.323,3.344-9.323
	c2.473,0,3.324,5.067,3.324,9.323c0,4.865-1.398,10.54-3.385,13.985C377.106,202.883,375.829,198.829,375.546,195.586
	 M377.086,236.73c-2.716,0-4.155-4.661-4.155-9.931c0-5.675,1.703-8.107,3.466-11.35c1.439,4.662,3.466,10.539,6.081,16.012
	l0.77,1.419h0.02C379.944,237.339,377.086,236.73,377.086,236.73"/>
<path fill="#AACC03" d="M167.819,215.651c1.885,0,6.263-0.202,11.938-0.202l0.365-0.811l-0.061-5.878l-1.783-1.824l-0.79-0.608
	l0.993-0.405h6.202l0.892,0.405l-0.932,0.608l-1.662,1.824c-0.162,1.622-0.264,5.067-0.264,10.54l0.142,4.661l1.824,1.824
	l0.73,0.609l-0.892,0.405h-2.675l-3.75,0.203l-0.811-0.406l0.709-0.608c1.743-0.608,1.905-0.811,2.007-3.243l0.122-5.067
	l-0.385-0.608c-4.986,0-11.309-0.202-11.958-0.202l-0.345,0.608v5.877l1.723,2.432l0.973,0.811l-0.932,0.203h-6.527l-0.972-0.203
	l0.75-0.608l2.027-2.027c0.101-1.418,0.284-5.067,0.284-10.134v-5.067l-1.601-1.824l-0.912-0.608l0.933-0.405l2.939,0.203
	l3.04-0.203l1.034,0.405l-0.932,0.608l-1.702,2.23l-0.101,5.675L167.819,215.651"/>
<path d="M209.956,206.328l1.419,4.053c1.662,4.662,4.074,10.945,4.621,12.364c1.074,2.635,1.581,2.837,3.02,3.243l0.77,0.405
	l-1.014,0.405h-6.344l-0.993-0.405l0.771-0.608l1.297-1.621c-0.263-1.216-1.074-3.446-1.804-5.473l-1.094-0.202h-5.27l-0.365,0.405
	c-0.831,2.027-1.662,4.662-1.662,5.472l1.581,1.419l0.852,0.608l-0.892,0.405h-5.878l-0.75-0.202l0.709-0.608
	c1.621-0.608,2.026-0.811,2.959-2.838c0.75-1.621,4.398-11.35,5.817-14.795l0.203-0.608l0.061-0.406l0.953-1.419l0.527-0.405
	L209.956,206.328 M210.99,216.664l-2.514-6.891h-0.243l-2.513,7.094l0.162,0.203h5.006L210.99,216.664z"/>
<path fill="#EA6D99" d="M245.04,215.854l-0.993,0.406l-0.121,0.608c0.304,0.608,3.02,5.067,4.966,7.296l3.162,1.824l0.507,0.406
	l-0.446,0.405l-1.763,0.203l-4.277-2.027c-1.135-1.622-2.777-4.054-4.053-6.08l-1.277-1.622l-2.29-0.405l-0.385,0.405l0.121,6.486
	l1.925,2.229l0.771,0.406l-0.771,0.608c-1.337,0-1.945-0.203-4.134-0.203h-2.615l-0.831-0.405l0.709-0.406l2.088-2.026
	c0.061-0.811,0.203-4.257,0.203-6.284c0-4.864-0.061-7.904-0.203-9.12l-1.865-1.622l-0.77-0.405l0.872-0.405h1.804l5.209-0.203
	c2.209,0,3.952,0.203,5.229,1.419l1.824,3.851L245.04,215.854 M243.338,208.152l-3.182-1.216l-1.54,0.203l-0.385,0.608l-0.101,7.905
	l0.507,0.405c1.865,0,3.567-0.405,4.033-0.811c0.872-0.405,2.108-1.824,2.108-3.851L243.338,208.152z"/>
<path d="M264.376,205.922l3.304,0.203l3.121-0.203l0.993,0.406l-0.953,0.608l-1.966,1.824c-0.162,1.013-0.122,4.459-0.122,8.918
	c0,3.648,0.79,5.067,1.784,6.283l4.662,1.621c2.088,0,5.209-0.81,6.02-4.459c0.385-1.621,0.709-4.458,0.709-8.107
	c0-2.027-0.101-3.648-0.142-4.053l-2.108-2.027l-0.689-0.608l0.75-0.406l2.736,0.203l2.878-0.203l0.811,0.406l-0.709,0.608
	c-1.378,0.405-2.027,1.013-2.088,3.04l-0.284,6.486c-0.162,5.675-1.702,8.512-4.013,9.728l-4.641,1.014
	c-2.878,0-5.047-1.216-5.817-1.824c-1.784-1.824-2.574-4.054-2.574-9.526c0-4.662-0.081-7.094-0.121-7.499l-1.723-1.419l-0.75-0.608
	L264.376,205.922"/>
<path d="M316.606,205.922l2.188-0.405l0.446-0.203l0.142,0.608l-0.709,3.649l-0.547,0.608l-0.446-1.014
	c-0.202-1.621-0.608-1.824-2.615-1.824h-4.499l-0.284,0.406v7.904c0,3.648,0,6.891,0.121,7.905c0.163,1.621,0.325,1.824,2.331,2.432
	l0.851,0.405l-0.892,0.406h-3.668l-3.669,0.202l-0.953-0.405l0.608-0.608c2.25-0.406,2.311-1.014,2.412-3.446
	c0.061-1.824,0.223-8.512,0.223-10.944v-3.851l-0.263-0.406l-3.972-0.202l-2.392,0.81l-1.054,1.622l-0.608,0.608l-0.324-0.608
	c0-0.608,0.608-2.432,0.608-4.257l0.486-0.608l0.507,0.608l1.095,0.608c0.851,0,3.405,0.203,7.519,0.203L316.606,205.922"/>
<path d="M338.961,206.328l1.419,4.053c1.682,4.662,4.094,10.945,4.641,12.364c1.054,2.635,1.561,2.837,3.02,3.243l0.771,0.405
	l-1.034,0.405h-6.323l-1.014-0.405l0.771-0.608l1.297-1.621c-0.263-1.216-1.054-3.446-1.804-5.473l-1.094-0.202h-5.27l-0.345,0.405
	c-0.851,2.027-1.682,4.662-1.682,5.472l1.581,1.419l0.872,0.608l-0.912,0.405h-5.878l-0.73-0.202l0.709-0.608
	c1.601-0.608,2.027-0.811,2.959-2.838c0.73-1.621,4.398-11.35,5.797-14.795l0.203-0.608l0.061-0.406l0.973-1.419l0.507-0.405
	L338.961,206.328 M339.995,216.664l-2.493-6.891h-0.263l-2.513,7.094l0.162,0.203h5.006L339.995,216.664z"/>
<path fill="#00AEEB" d="M431.263,205.922l2.432,0.609l0.486,1.013l0.223,2.837l-0.466,1.014l-0.527-0.811l-1.317-2.432l-5.128-1.621
	c-5.189,0-8.492,4.256-8.492,9.12c0,2.23,0.426,3.851,1.115,5.27c1.804,3.648,5.533,5.067,8.148,5.067l3.486-0.811l3-3.04
	l0.669-0.811l0.284,1.014l-1.277,3.242l-0.993,0.811c-0.527,0.203-3.122,0.811-5.857,0.811c-4.52,0-7.844-2.23-9.121-3.648
	c-1.216-1.419-2.696-3.649-2.696-7.5c0-3.648,2.189-6.485,3.527-7.701c2.777-2.23,5.756-2.838,8.715-2.838L431.263,205.922"/>
<path d="M456.679,215.651c1.885,0,6.263-0.202,11.938-0.202l0.365-0.811l-0.061-5.878l-1.783-1.824l-0.79-0.608l0.993-0.405h6.202
	l0.892,0.405l-0.932,0.608l-1.662,1.824c-0.162,1.622-0.263,5.067-0.263,10.54l0.122,4.661l1.844,1.824l0.73,0.609l-0.892,0.405
	h-2.675l-3.75,0.203l-0.811-0.406l0.709-0.608c1.743-0.608,1.905-0.811,1.986-3.243l0.142-5.067l-0.385-0.608
	c-4.986,0-11.309-0.202-11.958-0.202l-0.365,0.608v5.877l1.743,2.432l0.973,0.811l-0.932,0.203h-6.527l-0.972-0.203l0.75-0.608
	l2.027-2.027c0.081-1.418,0.284-5.067,0.284-10.134v-5.067l-1.601-1.824l-0.912-0.608l0.933-0.405l2.918,0.203l3.06-0.203
	l1.034,0.405l-0.932,0.608l-1.702,2.23l-0.101,5.675L456.679,215.651"/>
<path d="M492.573,209.165l-1.885-2.229l-0.892-0.608l0.79-0.405l3.506,0.202l3.446-0.202l0.79,0.405l-0.831,0.608
	c-1.865,0.405-1.824,1.216-1.966,2.027c-0.163,1.013-0.182,3.04-0.182,9.526l0.101,4.661c0.081,1.825,0.243,2.433,2.331,2.838
	l0.831,0.405l-0.851,0.608l-4.803-0.202h-2.432l-0.831-0.406l0.953-0.608l1.864-2.432c0.101-1.013,0.162-4.459,0.162-7.094
	C492.674,214.232,492.654,210.179,492.573,209.165"/>
<path fill="#EF8200" d="M514.564,205.922l3.141,0.203l2.979-0.203l0.872,0.406l-0.932,0.608l-1.54,1.824l-0.041,6.891l0.243,0.203
	l0.466-0.203l7.175-6.891l-0.365-1.824l-0.729-0.405l0.831-0.406h1.216l4.763-0.203l0.831,0.406l-0.851,0.608
	c-1.844,0.405-2.615,0.811-4.662,2.432l-6.08,5.675v0.203c0.709,1.013,6.161,6.486,8.573,8.918l3.385,1.824l0.648,0.405l-0.81,0.608
	l-4.702-0.405h-2.25l-0.669-0.406l1.378-0.608l0.162-0.405l-6.931-7.296l-1.46-1.419l-0.162,0.608l0.081,7.094l1.926,1.621
	l0.73,0.608l-0.831,0.406h-7.074l-0.77-0.406l0.933-0.608c1.58-0.203,2.188-0.608,2.29-2.635c0.02-1.013,0.081-4.053,0.081-7.499
	c0-5.27-0.061-5.675-0.121-6.891l-1.763-1.824l-0.831-0.608L514.564,205.922"/>
<path d="M556.539,206.328l1.419,4.053c1.662,4.662,4.074,10.945,4.621,12.364c1.074,2.635,1.581,2.837,3.02,3.243l0.77,0.405
	l-1.014,0.405h-6.344l-0.993-0.405l0.771-0.608l1.297-1.621c-0.263-1.216-1.074-3.446-1.804-5.473l-1.094-0.202h-5.27l-0.365,0.405
	c-0.831,2.027-1.662,4.662-1.662,5.472l1.581,1.419l0.872,0.608l-0.912,0.405h-5.878l-0.73-0.202l0.69-0.608
	c1.621-0.608,2.026-0.811,2.959-2.838c0.75-1.621,4.418-11.35,5.817-14.795l0.203-0.608l0.061-0.406l0.953-1.419l0.527-0.405
	L556.539,206.328 M557.573,216.664l-2.514-6.891h-0.243l-2.513,7.094l0.162,0.203h5.006L557.573,216.664z"/>
<polygon fill="#EA6D99" points="308.904,37.293 308.58,37.293 304.121,38.712 303.675,39.118 302.56,141.876 302.682,142.282 
	307.465,142.282 307.911,141.876 309.026,37.699 "/>
<path fill="#EA6D99" d="M312.249,22.7c0-7.499-6.121-13.579-13.681-13.579c-7.54,0-13.661,6.08-13.661,13.579
	c0,7.5,6.121,13.783,13.661,13.783C306.128,36.483,312.249,30.2,312.249,22.7"/>
<path d="M298.73,40.738h-0.142l-10.965,3.649l-0.365,0.608L285.9,168.427l0.244,0.608h0.507
	c53.102-25.132,78.883-94.449,82.409-110.258l-0.223-0.608l-5.249-3.648h-0.486l-0.325,0.405
	c-4.296,12.566-29.166,68.101-64.087,87.963h-0.405l-0.203-0.405l1.196-101.34l-0.223-0.406H298.73"/>
<path d="M204.464,153.428c-5.797,0-10.519,4.662-10.519,10.54c0,5.675,4.722,10.539,10.519,10.539c2.351,0,4.601-0.811,6.485-2.229
	l0.101-0.203c9.789-6.891,58.98-59.183,58.98-140.052c0-6.283-0.223-11.958-0.73-17.025l-0.527-0.608h-11.836l-0.385,0.203
	l-0.142,0.405c0.73,6.688,1.094,12.972,1.094,19.457c0,66.479-36.503,114.717-43.819,123.838h-0.426
	C211.294,155.253,208.01,153.428,204.464,153.428"/>
<polygon fill="#00AEEB" points="566.896,74.788 497.68,74.788 497.235,75.194 497.235,79.653 497.68,80.058 568.699,80.058 
	569.145,79.653 567.341,75.194 "/>
<polygon fill="#00AEEB" points="487.263,74.788 437.89,74.788 437.444,75.194 438.66,79.653 439.106,80.058 487.263,80.058 
	487.709,79.653 487.709,75.194 "/>
<path fill="#00AEEB" d="M432.114,70.532c0-7.499-6.101-13.579-13.661-13.579c-7.56,0-13.681,6.08-13.681,13.579
	c0,7.5,6.121,13.783,13.681,13.783C426.013,84.315,432.114,78.032,432.114,70.532"/>
<path d="M425.607,155.86c-5.817,0-10.519,4.662-10.519,10.54c0,5.878,4.702,10.539,10.519,10.539l4.053-0.811h0.122
	c12.85-5.269,62.628-38.509,70.837-105.393l0.385-0.405h63.621l0.344-0.203l-0.061-0.608c-1.317-3.243-2.108-5.067-2.594-6.283
	l-1.054-2.635l-1.419-1.014h-57.764l-0.284-0.202l-0.101-0.203c0.101-2.027,0.101-3.851,0.101-5.878c0-3.04,0-6.283-0.182-9.728
	c-0.345-6.081-0.365-13.174-0.365-17.228l0.345-0.405c18.991-3.243,33.199-7.702,41.103-12.769l0.243-0.203l-0.081-0.405
	l-8.918-11.35l-0.364-0.203h-0.406c-25.112,17.836-107.562,22.7-108.393,22.903l-0.405,0.202l-0.041,0.406l3.648,7.499l0.487,0.405
	c0.284,0,29.51-0.608,59.628-4.661l0.304,0.202l0.142,0.203c0,5.472,0,8.918,0.182,15.606l0.081,3.649l0.101,3.243
	c0,2.837-0.122,5.472-0.324,8.512l-0.385,0.405h-54.298l-0.446,0.203l-0.061,0.608l2.635,9.526l0.507,0.406h50.569l0.304,0.202
	l0.101,0.203c-2.858,21.687-10.114,41.549-21.606,59.182c-11.208,17.431-23.673,27.97-30.098,32.835h-0.243l-0.163-0.203
	C433.836,158.698,429.884,155.86,425.607,155.86"/>
<polygon fill="#EF8200" points="708.022,40.738 666.331,40.738 665.885,41.144 665.885,45.603 666.331,46.008 708.022,46.008 
	708.488,45.603 708.488,41.144 "/>
<polygon fill="#EF8200" points="654.738,40.738 624.436,40.738 623.991,41.144 625.187,45.603 625.633,46.008 654.738,46.008 
	655.183,45.603 655.183,41.144 "/>
<path d="M589.859,156.671c-5.797,0-10.519,4.662-10.519,10.337c0,5.878,4.722,10.54,10.519,10.54c2.188,0,4.296-0.609,6.08-1.825
	l0.507-0.405l0.162-0.203c6.465-5.067,14.856-13.782,22.437-23.308h0.142c15.241-19.254,41.894-59.588,49.008-115.122l0.405-0.405
	h38.813l0.284,0.202l0.121,0.203c-0.101,8.512-1.52,84.923-20.369,116.946l-0.04,0.203h-0.101
	c-5.959,3.446-11.776,4.054-20.451,4.054l-0.466,0.405v0.405l7.662,12.972l0.263,0.202h0.507c7.236-0.608,15.302-3.04,21.058-6.283
	l0.385-0.405C713.778,135.998,720,72.559,720,27.159l-0.527-0.608h-50.082l-0.121-0.405l0.486-7.905
	c0.203-5.878,0.365-12.363,0.365-13.985l-0.588-0.608L657.493,0h-0.081l-0.365,0.608c0,11.958-0.263,20.268-0.831,25.74
	l-0.385,0.203h-35.063l-0.446,0.405l-0.041,0.406l2.331,8.715l0.466,0.203h31.598l0.304,0.202l0.101,0.203
	c-7.945,57.764-36.564,100.732-48.481,116.541l-0.041,0.203c-2.351,3.04-4.702,5.877-7.053,8.715h-0.223l-0.203-0.203
	C597.216,158.698,593.69,156.671,589.859,156.671"/>
<path fill="#EF8200" d="M618.62,36.685c0-7.701-6.121-13.782-13.681-13.782c-7.56,0-13.681,6.081-13.681,13.782
	c0,7.5,6.121,13.58,13.681,13.58C612.499,50.265,618.62,44.185,618.62,36.685"/>
<path d="M100.104,20.47h-0.182l-6.202,2.635l-0.284,0.203l0.02,0.405c3.242,6.486,31.922,64.655,42.907,115.731l0.406,0.405
	l13.377,2.635l0.507-0.203l0.122-0.405C138.896,89.382,100.975,21.281,100.59,20.673L100.104,20.47"/>
<path d="M10.499,149.172C4.702,149.172,0,153.834,0,159.712c0,5.675,4.702,10.337,10.499,10.337c3.547,0,6.83-1.622,8.796-4.662
	c14.208-19.052,48.299-89.99,49.859-141.673l-0.142-0.406h-0.365L55.879,22.7l-0.365,0.203l-0.162,0.405
	c-1.196,42.968-22.518,101.138-37.293,128.499l-0.203,0.203h-0.223C15.667,150.186,13.154,149.172,10.499,149.172"/>
<path fill="#AACC03" d="M164.333,159.914c0-7.499-6.121-13.782-13.681-13.782c-7.54,0-13.661,6.283-13.661,13.782
	c0,7.5,6.121,13.58,13.661,13.58C158.212,173.494,164.333,167.414,164.333,159.914"/>
<path fill="#AACC03" d="M108.839,17.227l-0.263-0.202h-0.345l-4.215,1.621l-0.203,0.406l0.041,0.202
	c0.385,0.811,39.908,72.357,51.642,124.04l0.365,0.406l5.067,1.013l0.284-0.202l0.061-0.406
	C149.375,91.611,109.224,17.836,108.839,17.227"/>
</svg>
