<?xml version="1.0" encoding="utf-8"?>
<!-- Generator: Adobe Illustrator 27.0.1, SVG Export Plug-In . SVG Version: 6.00 Build 0)  -->
<svg version="1.1" id="레이어_1" xmlns="http://www.w3.org/2000/svg" xmlns:xlink="http://www.w3.org/1999/xlink" x="0px"
	 y="0px" viewBox="0 0 720 409.906" enable-background="new 0 0 720 409.906" xml:space="preserve">
<path fill="#E60012" d="M531.068,341.264v13.09c0,0.127-0.101,0.204-0.229,0.204h-3.082c-0.126,0-0.229-0.076-0.229-0.204v-13.09
	c0-0.483-0.382-0.866-0.866-0.866h-1.324c-0.127,0-0.229-0.101-0.229-0.228v-3.081c0-0.127,0.101-0.255,0.229-0.255h1.324
	C529.108,336.834,531.068,338.82,531.068,341.264 M519.406,353.996h-2.879c-0.483,0-0.866-0.407-0.866-0.866v-16.042
	c0-0.127-0.101-0.23-0.228-0.23h-3.082c-0.152,0-0.255,0.103-0.255,0.23v16.042c0,2.445,1.986,4.431,4.431,4.431h2.879
	c0.126,0,0.228-0.127,0.228-0.255v-3.081C519.634,354.099,519.532,353.996,519.406,353.996"/>
<path fill="#E60012" d="M557.458,335.901v3.082c0,0.127-0.101,0.204-0.229,0.204h-1.477c-0.103,0-0.23-0.076-0.23-0.204v-3.082
	c0-0.127,0.127-0.255,0.23-0.255h1.477C557.357,335.646,557.458,335.774,557.458,335.901 M560.719,338.983v-3.082
	c0-0.127-0.103-0.255-0.255-0.255h-1.478c-0.126,0-0.204,0.127-0.204,0.255v3.082c0,0.127,0.078,0.204,0.204,0.204h1.478
	C560.617,339.187,560.719,339.111,560.719,338.983 M540.983,353.218h-1.299c-0.483,0-0.891-0.381-0.891-0.866v-15.279
	c0-0.103-0.103-0.204-0.204-0.204h-3.082c-0.126,0-0.253,0.101-0.253,0.204v15.279c0,2.445,1.986,4.431,4.43,4.431h1.299
	c0.127,0,0.255-0.101,0.255-0.255v-3.081C541.238,353.32,541.11,353.218,540.983,353.218 M555.142,342.625v3.081
	c0,0.127-0.103,0.255-0.23,0.255h-1.962c-0.356,0-0.611,0.28-0.611,0.637v1.018c0,0.331,0.255,0.637,0.611,0.637h1.962
	c0.127,0,0.23,0.101,0.23,0.228v3.081c0,0.127-0.103,0.255-0.23,0.255h-1.962c-0.356,0-0.611,0.255-0.611,0.611v0.765
	c0,2.75-2.241,4.966-4.991,4.966c-2.725,0-4.94-2.216-4.94-4.966c0-2.725,2.215-4.94,4.94-4.94h0.79
	c0.331,0,0.637-0.306,0.637-0.637v-1.018c0-0.357-0.306-0.637-0.637-0.637h-5.246c-0.154,0-0.255-0.127-0.255-0.255v-3.081
	c0-0.127,0.101-0.23,0.255-0.23h5.246c0.331,0,0.637-0.28,0.637-0.636v-1.91c0-0.357-0.306-0.662-0.637-0.662h-5.246
	c-0.154,0-0.255-0.076-0.255-0.204v-3.082c0-0.127,0.101-0.255,0.255-0.255h10.823c0.127,0,0.255,0.127,0.255,0.255v3.082
	c0,0.127-0.128,0.204-0.255,0.204h-0.765c-0.356,0-0.611,0.305-0.611,0.662v1.91c0,0.356,0.255,0.636,0.611,0.636h1.962
	C555.04,342.395,555.142,342.498,555.142,342.625 M548.776,352.428c0-0.356-0.306-0.611-0.637-0.611h-0.79
	c-0.765,0-1.376,0.611-1.376,1.376c0,0.79,0.611,1.4,1.376,1.4c0.79,0,1.427-0.611,1.427-1.4V352.428z"/>
<path fill="#E60012" d="M563.889,339.199c-0.152,0-0.255-0.101-0.255-0.228v-3.082c0-0.127,0.103-0.255,0.255-0.255h11.97
	c0.127,0,0.228,0.127,0.228,0.255v3.082c0,0.127-0.101,0.228-0.228,0.228H563.889z M573.72,342.408h-13.167
	c-0.103,0-0.228,0.103-0.228,0.23v3.081c0,0.127,0.126,0.255,0.228,0.255h13.167c0.992,0,1.781,0.79,1.781,1.783v4.406
	c0,0.993-0.79,1.808-1.781,1.808h-10.977c-0.127,0-0.204,0.101-0.204,0.228v3.082c0,0.127,0.076,0.228,0.204,0.228h10.977
	c2.953,0,5.347-2.394,5.347-5.347v-4.406C579.066,344.803,576.673,342.408,573.72,342.408"/>
<path fill="#E60012" d="M508.215,337.409h-1.986c-0.358,0-0.637-0.28-0.637-0.611v-1.579c0-0.126-0.103-0.228-0.23-0.228h-3.081
	c-0.127,0-0.228,0.103-0.228,0.228v1.579c0,0.331-0.306,0.611-0.662,0.611h-11.842c-0.152,0-0.255,0.103-0.255,0.255v3.082
	c0,0.127,0.103,0.228,0.255,0.228h11.842c0.356,0,0.662,0.255,0.662,0.611v4.966c0,0.154-0.127,0.281-0.281,0.281h-7.944
	c-2.98,0-5.373,2.394-5.373,5.347c0,2.955,2.394,5.373,5.373,5.373h11.688c0.127,0,0.228-0.127,0.228-0.255v-3.081
	c0-0.127-0.101-0.23-0.228-0.23h-11.688c-0.993,0-1.834-0.814-1.834-1.808s0.841-1.783,1.834-1.783h7.944
	c2.114,0,3.82-1.732,3.82-3.845v-4.966c0-0.356,0.28-0.611,0.637-0.611h1.986c0.126,0,0.253-0.101,0.253-0.228v-3.082
	C508.468,337.512,508.341,337.409,508.215,337.409"/>
<path fill="#E60012" d="M252.929,78.262V42.891h25.593v31.908c0,2.597,2.14,4.711,4.762,4.711h52.459
	c20.907,0,37.919,17.979,37.816,38.937c-0.101,20.933-17.724,37.613-38.682,37.613h-53.325v-25.618h54.191
	c7.181,0,12.605-4.915,12.657-12.071c0.076-7.283-6.239-13.243-13.522-13.243h-55.057
	C264.975,105.129,252.929,93.109,252.929,78.262 M342.265,35.378V47.5h26.484V31.787c0-17.189-13.93-31.119-31.119-31.119h-62.799
	v26.484h59.207C338.572,27.152,342.265,30.845,342.265,35.378"/>
<path fill="#E60012" d="M421.124,141.666c10.185,10.212,19.862,14.388,33.309,14.388h22.817V129.57h-21.927
	c-6.85,0-10.263-0.637-15.84-6.264l-40.362-40.364c-1.223-1.197-1.859-2.801-1.859-4.507c0-1.731,0.636-3.336,1.859-4.532
	l41.152-41.153c5.628-5.628,9.015-6.264,15.84-6.264h21.137V0h-22.003c-13.446,0-23.097,4.176-33.335,14.363l-42.044,42.044
	c-12.147,12.147-12.147,31.883,0,44.03L421.124,141.666z"/>
<path fill="#E60012" d="M184.731,169.208v-15.967h25.593v15.077c0,3.539,2.903,6.416,6.418,6.416h21.238v25.593h-22.104
	C198.712,200.327,184.731,186.372,184.731,169.208 M269.915,156.068v-9.652c0-17.164-13.956-31.144-31.094-31.144h-54.09v25.593
	h53.173c3.539,0,6.418,2.877,6.418,6.416v8.786H269.915z M243.634,79.517h-63.461c-2.649,0-4.762-2.112-4.762-4.736V60.876h-25.593
	v13.905c0,2.624-2.139,4.736-4.738,4.736h-17.621v25.62h17.621c2.599,0,4.738,2.114,4.738,4.736v48.945
	c0,16.732-12.708,29.414-29.414,29.414h-1.425v25.593h1.425c30.356,0,55.007-24.676,55.007-55.007v-48.945
	c0-2.622,2.114-4.736,4.762-4.736h63.461V79.517z"/>
<path fill="#E60012" d="M33.156,149.768h8.735v25.593H31.12c-17.189,0-31.12-13.93-31.12-31.119V34.307h25.593v107.872
	C25.593,146.355,28.98,149.768,33.156,149.768 M122.287,139.989c-2.597,0-4.736,2.114-4.736,4.762v5.476
	c0,19.278-15.661,34.939-34.939,34.939c-19.252,0-34.939-15.661-34.939-34.939s15.688-34.939,34.939-34.939h4.61
	c2.597,0,4.736-2.139,4.736-4.762V75.103c0-2.624-2.139-4.762-4.736-4.762h-37.97V45.613h37.97c2.597,0,4.736-2.114,4.736-4.736
	V26.081h25.593v14.795c0,2.622,2.139,4.736,4.736,4.736h15.408V70.34h-15.408c-2.597,0-4.736,2.139-4.736,4.762v35.423
	c0,2.624,2.139,4.762,4.736,4.762h15.408v24.701H122.287z M91.984,144.7c0-2.597-2.114-4.685-4.686-4.685h-5.4
	c-5.55,0-10.058,4.507-10.058,10.084c0,5.552,4.507,10.059,10.058,10.059c5.552,0,10.086-4.507,10.086-10.059V144.7z"/>
<path fill="#E60012" d="M720,277.857v8.659c0,21.289-17.317,38.606-38.606,38.606h-50.88c-21.289,0-38.581-17.317-38.581-38.606
	v-64.608c0-12.324,7.716-19.99,20.169-19.99h29.005c1.478,0,2.648-1.197,2.648-2.624v-12.783c0-1.452-1.17-2.649-2.648-2.649
	h-36.441v-30.89h55.846c7.818,0,14.133,6.342,14.133,14.133v51.569c0,7.792-6.315,14.133-14.133,14.133h-34.659
	c-1.477,0-2.649,1.197-2.649,2.649v51.059c0,4.074,3.286,7.36,7.31,7.36h50.88c4.074,0,7.333-3.286,7.333-7.36v-8.659H720z
	 M607.111,142.583l-23.378,32.673c0,0.025-2.266,3.311-2.266,6.926v104.334c0,21.289-17.317,38.606-38.581,38.606H532.47v-31.246
	h10.415c4.024,0,7.31-3.286,7.31-7.36v-30.127c0-2.19-1.783-3.973-3.973-3.973h-22.589c-2.19,0-3.948,1.783-3.948,3.973v67.968
	H488.39V115.079c0-21.289,17.317-38.606,38.606-38.606h15.89c21.264,0,38.581,17.317,38.581,38.606v7.004
	c0,0.28,0.23,0.407,0.458,0.483c0.459,0.154,1.018,0.078,1.222-0.204c0.612-0.79,20.271-28.291,30.586-42.756
	C628.68,60.43,645.258,60.43,656.208,60.43h30.763v31.248h-30.763c-8.863,0-12.147,0-17.596,6.926l-5.093,7.105
	c-0.382,0.586-0.866,1.783-0.586,2.317c0.23,0.382,0.993,0.434,1.452,0.434h30.559c30.126,0,54.649,24.549,54.649,54.699v58.622
	c0,30.177-24.524,54.701-54.649,54.701h-29.286v-31.298h29.286c12.91,0,23.403-10.492,23.403-23.403v-58.622
	c0-12.91-10.493-23.402-23.403-23.402h-51.797C608.766,139.757,607.162,142.482,607.111,142.583 M550.195,185.747
	c0-2.19-1.783-3.973-3.973-3.973h-22.589c-2.19,0-3.948,1.783-3.948,3.973v31.425c0,2.19,1.758,3.973,3.948,3.973h22.589
	c2.19,0,3.973-1.783,3.973-3.973V185.747z M550.195,115.079c0-4.049-3.286-7.333-7.31-7.333h-15.89c-4.024,0-7.31,3.284-7.31,7.333
	v31.451c0,2.19,1.758,3.973,3.948,3.973h22.589c2.19,0,3.973-1.783,3.973-3.973V115.079z"/>
<path fill="#E60012" d="M438.932,163.398h-47.469c-21.289,0-38.606,17.341-38.606,38.606v151.444c0,3.158-0.816,3.845-2.089,3.872
	c-3.845-0.204-6.875-3.413-6.875-7.259v-19.455h-31.298v19.455c0,21.264,17.341,38.607,38.606,38.607h6.315
	c6.749,12.503,19.71,20.27,33.946,20.27h47.469c21.289,0,38.606-17.317,38.606-38.606V202.004
	C477.537,180.739,460.221,163.398,438.932,163.398 M399.561,373.694c0,2.19-1.783,3.973-3.973,3.973h-4.125
	c-4.049,0-7.308-3.286-7.308-7.335v-64.275c0-2.19,1.756-3.973,3.946-3.973h7.487c2.19,0,3.973,1.783,3.973,3.973V373.694z
	 M399.561,266.839c0,2.19-1.783,3.973-3.973,3.973h-7.487c-2.19,0-3.946-1.783-3.946-3.973v-64.835c0-4.024,3.259-7.308,7.308-7.308
	h4.125c2.19,0,3.973,1.781,3.973,3.971V266.839z M446.24,370.332c0,4.049-3.286,7.335-7.308,7.335h-4.127
	c-2.19,0-3.971-1.783-3.971-3.973v-67.637c0-2.19,1.781-3.973,3.971-3.973h7.487c2.19,0,3.948,1.783,3.948,3.973V370.332z
	 M446.24,266.839c0,2.19-1.758,3.973-3.948,3.973h-7.487c-2.19,0-3.971-1.783-3.971-3.973v-68.172c0-2.19,1.781-3.971,3.971-3.971
	h4.127c4.023,0,7.308,3.284,7.308,7.308V266.839z M321.076,319.629h-14.44c-2.19,0-3.999,1.758-3.999,3.948v86.329h-31.246v-44.133
	c0-2.19-1.783-3.998-3.973-3.998h-7.843c-7.894,0-10.925,2.089-14.362,6.469l-14.084,21.874
	c-8.811,11.384-22.231,17.623-37.892,17.623h-7.308v-31.298h7.308c5.678,0,9.982-1.68,12.758-5.016l13.981-21.647
	c10.033-13.165,22.614-19.278,39.599-19.278h7.843c2.19,0,3.973-1.781,3.973-3.971v-2.955c0-2.19-1.783-3.948-3.973-3.948h-14.514
	c-12.301,0-17.215-7.436-18.719-10.619c-3.819-7.919-0.814-16.247,3.21-21.366l14.719-19.379c1.298-1.707,1.222-3.769-0.204-5.067
	l-15.229-11.205c-1.248-0.917-4.456-3.566-6.85-7.818c-4.304-7.717-3.718-16.605,1.578-23.81
	c4.228-5.756,22.869-27.452,24.982-29.872l0.152-0.177c18.311-20.627,31.706-22.206,48.64-22.206h38.708v31.271h-38.657
	c-10.849-0.025-14.898-0.025-25.212,11.612c-4.023,4.635-10.134,11.791-15.304,17.954c-1.351,1.604-1.044,3.897,0.662,5.348
	l4.787,3.514c1.732,1.349,4.355,0.993,5.729-0.738c13.88-17.547,22.359-21.571,45.33-21.571h22.665v31.298h-22.665
	c-6.774,0-10.773,0.154-12.581,1.121c-2.725,1.4-7.207,7.105-11.256,12.453l-20.142,26.51c-0.051,0.127-0.255,0.763-0.078,1.069
	c0.154,0.255,0.637,0.382,1.324,0.382h30.152c2.19,0,3.948-1.783,3.948-3.973v-22.716h31.298v35.067
	c0.101,3.387-0.459,10.008-5.655,15.737C334.038,317.058,327.951,319.629,321.076,319.629"/>
</svg>
