<?xml version="1.0" encoding="utf-8"?>
<!-- Generator: Adobe Illustrator 27.2.0, SVG Export Plug-In . SVG Version: 6.00 Build 0)  -->
<svg version="1.1" id="레이어_1" xmlns="http://www.w3.org/2000/svg" xmlns:xlink="http://www.w3.org/1999/xlink" x="0px"
	 y="0px" viewBox="0 0 720 308.937" enable-background="new 0 0 720 308.937" xml:space="preserve">
<g id="レイヤー_2">
	<g id="デザイン">
		<path fill="#009AB4" d="M693.557,62.313H586.121L561.59,84.755c-2.002-12.92-13.128-22.449-26.202-22.442H441.68V50.734
			c-0.734-14.948-13.447-26.47-28.395-25.736c-0.344,0.017-0.688,0.04-1.031,0.07c-8.03-0.353-15.849,2.627-21.607,8.237
			c-1.449,1.449-2.712,3.073-3.76,4.835c-4.998-7.765-13.566-12.498-22.8-12.594H336.93V0h-58.254v25.486h-53.718v4.357
			c-4.501-2.969-9.768-4.566-15.16-4.596h-78.01c-2.12-0.459-4.278-0.719-6.446-0.776V0H66.909v24.531H39.871v56.642h10.087
			L0,127.968v78.965l67.147-62.671v73.952h57.657v-34.678l12.534,11.937v22.92h98.96V117.881h2.029v100.273h88.814
			c10.725-0.259,21.277-2.76,30.977-7.341c10.633-4.908,19.477-13.001,25.307-23.158v30.44h116.806v52.703l38.14,38.14
			L719.998,138.95V88.336c0.17-14.206-11.208-25.861-25.415-26.031C694.241,62.3,693.899,62.303,693.557,62.313 M714.507,136.563
			L538.492,301.238l-23.278-23.218l-6.625-6.685l-2.805-2.746v-55.986H388.678v-44.645h146.65
			c11.203-0.33,20.552,8.483,20.883,19.686c0.008,0.282,0.011,0.564,0.007,0.846v33.007l110.599-103.138v-5.969h-59.686
			l-60.224,55.091v-15.817c-3.638,6.557-10.415,10.759-17.906,11.102H395.005v-44.586h133.519
			c7.63,0.129,14.622,4.283,18.383,10.923v-20.353c-3.33,2.185-7.183,3.442-11.161,3.641H388.678v-3.462
			c-3.302,2.079-7.085,3.272-10.982,3.462h-12.773c13.474,10.481,20.983,26.881,20.114,43.929
			c1.204,21.083-10.642,40.748-29.843,49.54c-8.858,4.194-18.494,6.491-28.291,6.745h-83.561V112.39h-13.131v100.273H142.83v-19.756
			l-23.457-22.144v41.781H72.698V131.31L5.491,194.22v-63.865l58.433-54.733H45.421v-45.78H72.4c-0.029-0.497-0.029-0.995,0-1.492
			l0,0V5.491h47.272v22.681c0,0,0,0.955,0,1.791h4.059c2.567-0.028,5.123,0.334,7.58,1.074h78.488
			c10.167-0.287,18.985,6.977,20.652,17.011V31.037h53.718c-0.056-0.835-0.056-1.672,0-2.507l0,0V5.67h47.272v22.502
			c0.095,0.953,0.095,1.912,0,2.865h32.649c11.669,0.021,21.112,9.498,21.091,21.167c-0.001,0.306-0.008,0.611-0.022,0.917
			c0.181,5.407-1.623,10.694-5.073,14.862c3.057,0.469,5.983,1.566,8.595,3.223V51.271c0.088-5.292,2.228-10.342,5.969-14.086
			c4.787-4.603,11.276-7.003,17.906-6.625c11.974-1.178,22.636,7.574,23.814,19.548c0.024,0.248,0.045,0.497,0.06,0.746v16.951
			h98.96c11.669,0.021,21.112,9.498,21.091,21.167c-0.001,0.306-0.008,0.611-0.022,0.917c-0.014,2.821-0.477,5.621-1.373,8.296
			l32.887-30.321h105.585c11.202-0.363,20.577,8.423,20.94,19.625c0.009,0.282,0.012,0.565,0.01,0.847V136.563z M389.454,117.881
			v25.367c-1.567-9.274-5.378-18.023-11.102-25.486c1.613-0.067,3.213-0.307,4.775-0.716v0.716L389.454,117.881z M553.353,169.092
			L609.16,118h50.017l-97.408,90.903v-20.293c0.192-7.391-2.887-14.489-8.416-19.398"/>
		<line fill="none" x1="119.671" y1="28.172" x2="119.671" y2="28.351"/>
		<rect x="294.433" y="66.192" fill="#FFFFFF" width="26.919" height="12.952"/>
		<path fill="#FFFFFF" d="M281.064,144.74h42.974c5.966,0.033,10.776,4.896,10.743,10.863c-0.002,0.359-0.022,0.718-0.06,1.075
			c0.371,6.219-4.37,11.561-10.589,11.932c-0.031,0.002-0.063,0.004-0.094,0.005h-42.974v9.908h47.212
			c10.911-0.095,19.678-9.018,19.583-19.928c-0.004-0.48-0.026-0.961-0.065-1.439c0.892-11.007-7.307-20.653-18.314-21.545
			c-0.401-0.032-0.802-0.053-1.204-0.061h-47.212V144.74z"/>
		<path fill="#FFFFFF" d="M693.557,67.864H588.091l-33.007,30.321c0.845-2.663,1.268-5.443,1.253-8.237
			c0.527-11.657-8.495-21.535-20.152-22.062c-0.305-0.014-0.611-0.021-0.917-0.022H436.01V50.853
			c-0.766-12.007-11.121-21.12-23.129-20.354c-0.249,0.016-0.498,0.036-0.746,0.06c-6.63-0.378-13.119,2.023-17.906,6.625
			c-3.74,3.744-5.88,8.794-5.969,14.086v19.995c-2.612-1.657-5.538-2.754-8.595-3.223c3.45-4.168,5.255-9.455,5.073-14.862
			c0.53-11.657-8.49-21.537-20.147-22.067c-0.168-0.008-0.336-0.013-0.504-0.017H331.2c0.095-0.953,0.095-1.912,0-2.865V5.551
			h-47.033v22.86l0,0c-0.056,0.835-0.056,1.672,0,2.507H230.45v17.13c-1.666-10.034-10.484-17.297-20.652-17.011H131.31
			c-2.49-0.793-5.087-1.196-7.7-1.194h-4.238c0-0.836,0-1.492,0-1.791V5.551H72.4v22.86l0,0c-0.029,0.497-0.029,0.995,0,1.492
			H45.421v45.541h18.503L5.491,130.355v63.865l67.207-62.91v81.353h46.675v-41.781l23.516,22.144v19.756h87.859V112.39h13.131
			v100.214h83.561c9.797-0.254,19.433-2.551,28.291-6.745c19.201-8.791,31.047-28.456,29.843-49.54
			c0.869-17.049-6.64-33.448-20.114-43.929h12.773c3.898-0.19,7.68-1.382,10.982-3.462v3.462h146.53
			c3.978-0.199,7.831-1.456,11.161-3.641v20.413c-3.761-6.639-10.754-10.794-18.383-10.923H395.005v44.645h133.817
			c7.491-0.343,14.268-4.545,17.906-11.102V167.6l60.164-55.031h59.687v5.969l-110.36,102.959V188.49
			c0.137-11.207-8.837-20.403-20.044-20.539c-0.282-0.003-0.564-0.001-0.846,0.007h-146.65v44.645h117.105v55.986l2.805,2.805
			l6.625,6.685l23.278,23.218l176.015-164.675V88.336c0.105-11.207-8.896-20.377-20.103-20.482
			C694.122,67.851,693.839,67.854,693.557,67.864 M399.004,179.059h136.324c5.633-0.198,10.36,4.209,10.558,9.842
			c0.004,0.102,0.006,0.203,0.006,0.305v46.138l-26.978,25.546v-57.956h-119.91V179.059z M677.203,123.611v-20.592h-74.369
			l-45.72,41.781v-33.544l34.857-32.111h101.467c5.625-0.364,10.48,3.901,10.844,9.527c0.018,0.286,0.025,0.572,0.019,0.859v43.75
			L538.73,287.749l-17.906-17.906L677.203,123.611z M374.712,157.274c0,45.899-47.749,45.899-47.749,45.899h-72.758v-92.216h72.937
			c0,0,47.749,0.358,47.749,46.317 M227.943,102.959V79.085h40.05V66.192h-27.157V42.318h123.253
			c5.999,0.037,10.833,4.93,10.797,10.929c-0.002,0.337-0.02,0.673-0.053,1.008c0.369,6.219-4.373,11.56-10.592,11.929
			c-0.05,0.003-0.101,0.006-0.151,0.008h-16.175v12.952h29.485c5.966,0.033,10.776,4.896,10.743,10.863
			c-0.002,0.359-0.022,0.718-0.06,1.075c0.371,6.219-4.37,11.561-10.589,11.932c-0.031,0.002-0.063,0.004-0.094,0.005
			L227.943,102.959z M321.054,16.832v12.415c0,0,0,10.206-13.131,10.206s-13.489-10.206-13.489-10.206V16.832H321.054z
			 M399.004,102.959V52.047c0,0-0.119-10.266,13.131-10.266c13.25,0,13.549,10.206,13.549,10.206v27.038h109.704
			c5.999,0.036,10.833,4.929,10.797,10.929c-0.002,0.337-0.02,0.673-0.053,1.008c0.369,6.219-4.373,11.56-10.593,11.929
			c-0.05,0.003-0.101,0.006-0.151,0.008L399.004,102.959z M15.877,135.727l74.25-69.535H55.747V41.303h67.864
			c6.568-0.567,12.353,4.299,12.919,10.867c0.044,0.515,0.055,1.032,0.033,1.548c0,5.491-7.103,11.579-7.103,11.579L15.877,171.3
			V135.727z M109.286,16.832v12.415c0,0,0,10.206-13.131,10.206S82.606,29.246,82.606,29.246V16.832H109.286z M220.422,52.643
			v150.589h-26.978V65.954h-53.718V42.079h70.072c5.666-0.199,10.421,4.234,10.619,9.9c0.002,0.062,0.004,0.125,0.005,0.187
			 M179.895,81.293v121.939h-26.74V81.532c0,0,0-9.132,13.609-9.132s13.131,9.132,13.131,9.132 M150.052,69.893v34.678
			l-14.026,12.654c-4.971,4.33-12.512,3.811-16.842-1.16c-0.162-0.185-0.317-0.376-0.467-0.571
			c-4.024-5.582-3.201-13.298,1.91-17.906L150.052,69.893z M108.928,203.232H83.024v-83.561c-0.284-7.378,5.467-13.59,12.846-13.874
			c3.543-0.136,6.995,1.14,9.597,3.548c1.671,1.671,30.559,28.829,30.559,28.829v34.917l-27.098-25.546V203.232z M405.391,153.335
			V129.46h123.133c5.966,0.033,10.776,4.896,10.743,10.863c-0.002,0.359-0.022,0.718-0.06,1.075
			c0.434,6.149-4.2,11.485-10.349,11.919c-0.112,0.008-0.223,0.014-0.335,0.019H405.391z"/>
		<path fill="#E3007F" d="M704.301,132.982V89.53c-0.062-5.636-4.682-10.155-10.319-10.093c-0.082,0.001-0.164,0.003-0.246,0.006
			H592.269l-34.857,32.111v33.663l45.72-41.781h74.19v20.771L520.705,269.723l17.906,17.906L704.301,132.982z"/>
		<path fill="#E3007F" d="M96.155,39.453c13.31,0,13.131-10.206,13.131-10.206V16.772h-26.62v12.474c0,0,0,10.206,13.549,10.206"/>
		<path fill="#E3007F" d="M136.563,53.718c0.321-6.585-4.757-12.184-11.342-12.505c-0.537-0.026-1.075-0.016-1.61,0.03H55.747
			v24.889h34.379l-74.25,69.594v35.812L129.281,65.536c0,0,7.103-5.969,7.103-11.579"/>
		<path fill="#E3007F" d="M136.026,138.174c0,0-28.59-27.157-30.559-28.829c-5.419-5.016-13.878-4.69-18.894,0.729
			c-2.408,2.602-3.685,6.054-3.548,9.597v83.561h25.904v-55.568l27.098,25.426V138.174z"/>
		<path fill="#E3007F" d="M118.478,115.493c4.015,5.229,11.509,6.213,16.738,2.198c0.195-0.15,0.385-0.306,0.571-0.467
			l14.026-12.654V69.893l-29.425,27.456c-5.111,4.608-5.934,12.324-1.91,17.906"/>
		<path fill="#E3007F" d="M139.845,42.318v23.875h53.718v137.279h26.978V52.405c-0.095-5.669-4.768-10.187-10.437-10.092
			c-0.062,0.001-0.125,0.003-0.187,0.005L139.845,42.318z"/>
		<path fill="#E3007F" d="M153.156,81.532v121.701h26.74V81.532c0,0,0.537-9.132-13.131-9.132
			C153.096,72.4,153.156,81.532,153.156,81.532"/>
		<path fill="#E3007F" d="M519.272,261.069l26.919-25.546v-46.138c0.078-5.636-4.429-10.268-10.065-10.346
			c-0.266-0.004-0.532,0.003-0.798,0.02H399.004v23.875h120.268V261.069z"/>
		<path fill="#E3007F" d="M546.131,90.843c0.593-5.97-3.765-11.291-9.735-11.884c-0.335-0.033-0.672-0.051-1.008-0.053H425.624
			V52.047c0,0-0.179-10.266-13.489-10.266s-13.131,10.206-13.131,10.206V102.9h136.384c6.224-0.286,11.037-5.563,10.752-11.786
			c-0.002-0.05-0.005-0.101-0.008-0.151"/>
		<path fill="#E3007F" d="M539.208,141.278c0.626-5.934-3.676-11.251-9.609-11.878c-0.357-0.038-0.716-0.058-1.075-0.06H405.391
			v23.875h123.133c6.159-0.248,10.951-5.443,10.703-11.602C539.222,141.501,539.216,141.39,539.208,141.278"/>
		<path fill="#E3007F" d="M307.923,39.453c13.31,0,13.131-10.206,13.131-10.206V16.772h-26.62v12.474
			C294.433,29.246,294.433,39.453,307.923,39.453"/>
		<path fill="#E3007F" d="M254.205,110.957v91.977h72.937c0,0,47.749,0,47.749-45.899s-47.749-46.317-47.749-46.317L254.205,110.957
			z M347.853,157.155c0.89,10.875-7.204,20.412-18.078,21.302c-0.499,0.041-0.998,0.063-1.499,0.066h-47.212v-9.908h42.974
			c6.222-0.319,11.008-5.621,10.689-11.843c-0.002-0.031-0.003-0.063-0.005-0.094c0.626-5.933-3.676-11.251-9.609-11.878
			c-0.357-0.038-0.716-0.058-1.075-0.06h-42.974v-9.192h47.212c11.041,0.228,19.806,9.362,19.579,20.403
			c-0.008,0.402-0.029,0.803-0.061,1.204"/>
		<path fill="#E3007F" d="M387.962,90.843c0.626-5.934-3.676-11.251-9.609-11.878c-0.357-0.038-0.716-0.058-1.075-0.06h-29.366
			V66.192h16.175c6.224-0.286,11.037-5.563,10.752-11.786c-0.002-0.05-0.005-0.101-0.008-0.151
			c0.593-5.97-3.765-11.291-9.735-11.884c-0.335-0.033-0.672-0.051-1.008-0.053H240.835v23.875h26.978v12.892h-40.05v23.875h149.634
			c6.222-0.319,11.008-5.621,10.689-11.843c-0.002-0.031-0.003-0.063-0.005-0.094 M321.352,79.085h-26.919V66.192h26.919
			L321.352,79.085z"/>
		<polygon fill="#FFFFFF" points="90.425,233.673 80.219,233.673 80.219,243.76 77.473,243.76 77.473,233.673 62.611,233.673 
			62.611,268.112 77.473,268.112 77.473,256.353 80.219,256.353 80.219,268.112 95.081,268.112 95.081,233.673 		"/>
		<polygon fill="#E3007F" points="84.874,248.475 84.874,238.328 90.425,238.328 90.425,263.456 84.874,263.456 84.874,251.698 
			72.758,251.698 72.758,263.456 67.267,263.456 67.267,238.328 72.758,238.328 72.758,248.475 		"/>
		<path fill="#FFFFFF" d="M113.404,233.673h-6.864l-16.473,34.439h15.399l3.044-7.461h3.283c0.836,2.149,2.805,7.461,2.805,7.461
			h16.294l-14.205-34.439H113.404z"/>
		<path fill="#E3007F" d="M113.404,238.328l10.326,25.128h-5.969l-2.805-7.461h-9.669l-2.984,7.461h-4.835l11.937-25.128H113.404z
			 M113.762,253.011l-3.521-9.55l-3.88,9.55H113.762z"/>
		<polygon fill="#FFFFFF" points="152.26,233.673 122.357,233.673 122.357,246.326 132.146,246.326 132.146,268.112 
			147.068,268.112 147.068,246.326 156.916,246.326 156.916,233.673 		"/>
		<polygon fill="#E3007F" points="152.26,238.328 152.26,241.671 142.412,241.671 142.412,263.456 136.861,263.456 136.861,241.671 
			127.013,241.671 127.013,238.328 		"/>
		<path fill="#FFFFFF" d="M152.26,245.192c-0.068,3.056,1.222,5.985,3.521,7.998c0,0.418-0.358,1.015-0.358,1.015l-0.955,0.537
			c-1.702,0.891-2.745,2.676-2.686,4.596v0.597l0.358,2.925c0.227,2.277,1.886,4.153,4.118,4.656
			c2.709,0.705,5.497,1.066,8.296,1.074c3.683,0.076,7.282-1.103,10.206-3.342c2.728-2.272,4.303-5.641,4.297-9.192
			c0.054-3.59-1.782-6.944-4.835-8.834v-0.298l0.955-0.477c1.705-0.896,2.765-2.67,2.746-4.596c0.026-0.198,0.026-0.399,0-0.597
			v-2.507l0,0c-0.298-1.741-1.471-3.207-3.104-3.88c-2.487-0.804-5.086-1.207-7.7-1.194c-8.714,0-14.802,4.894-14.802,11.937"/>
		<path fill="#E3007F" d="M173.568,241.671c0,0.478,0,0.478,0,0.597l-0.895,0.537h-0.298c-0.298,0-1.134-0.716-1.313-0.836
			c-1.431-0.708-3-1.095-4.596-1.134c-2.686,0-4.238,1.253-4.238,3.163c0,1.91,1.194,2.567,5.252,4.417
			c4.059,1.85,7.341,3.342,7.341,7.52c0,4.178-3.999,7.879-10.027,7.879c-2.397-0.041-4.78-0.362-7.103-0.955
			c-0.537,0-0.597-0.298-0.657-0.716l-0.358-2.746c0-0.477,0-0.477,0-0.657l0.955-0.537h0.298l1.313,0.776
			c1.814,1.052,3.872,1.608,5.969,1.612c3.402,0,4.596-1.791,4.596-3.462c0-1.671-1.552-2.626-4.894-4.118
			c-3.342-1.492-7.819-3.342-7.819-7.879s4.059-7.282,10.027-7.282c2.022,0.01,4.033,0.311,5.969,0.895
			c0.358,0,0.358,0.358,0.477,0.716V241.671z"/>
		<path fill="#FFFFFF" d="M205.68,233.673h-8.714v17.906c0.118,1.171,0.118,2.351,0,3.521c-0.707,0.338-1.485,0.502-2.268,0.478
			c-0.434,0.082-0.879,0.082-1.313,0c0-0.597,0-1.97,0-1.97v-19.935h-15.041v19.876c-0.521,4.114,0.813,8.248,3.641,11.281
			c3.103,2.675,7.133,4.025,11.221,3.76c4.496,0.212,8.913-1.232,12.415-4.059c3.326-3.47,4.943-8.234,4.417-13.012l0.418-17.906
			L205.68,233.673z"/>
		<path fill="#E3007F" d="M188.55,238.328v14.981c0,2.805,0,3.999,1.074,5.193c1.356,1.207,3.144,1.81,4.954,1.671
			c2.203,0.152,4.368-0.628,5.969-2.149c1.253-1.373,1.253-3.223,1.253-6.506v-13.191h3.999l-0.298,13.071
			c0,4.596-0.358,7.401-2.865,9.61c-2.641,2.082-5.954,3.123-9.311,2.925c-2.99,0.309-5.978-0.594-8.296-2.507
			c-1.97-1.85-2.208-4.118-2.208-7.879v-15.22H188.55z"/>
		<path fill="#FFFFFF" d="M239.343,233.673h-8.774c0,0,0,7.819,0,9.968l-9.132-9.968h-10.744v34.439h13.429c0,0,0-7.938,0-10.326
			l10.445,11.46l9.49-2.447v-33.126H239.343z"/>
		<polygon fill="#E3007F" points="219.587,238.328 235.702,255.995 235.344,238.328 239.343,238.328 239.283,263.158 
			236.06,263.993 219.109,245.491 219.408,263.456 215.468,263.456 215.588,238.328 		"/>
		<polygon fill="#FFFFFF" points="267.873,233.673 244.953,233.673 244.953,268.112 273.006,268.112 273.006,255.458 
			271.275,255.458 271.275,246.087 272.529,246.087 272.529,233.673 		"/>
		<polygon fill="#E3007F" points="267.873,238.328 267.873,241.432 255.16,241.432 255.16,248.654 266.56,248.654 266.56,251.817 
			255.16,251.817 255.16,260.114 268.291,260.114 268.291,263.456 249.669,263.456 249.669,238.328 		"/>
		<path fill="#FFFFFF" d="M319.741,233.673h-7.938l-5.969,12.236l-5.969-12.236H287.39l-2.328,34.439h13.668c0,0,0-1.731,0-3.104
			l1.612,3.462l8.356-1.313c0,0,1.731-3.342,1.85-3.641v4.596h14.683l-1.253-34.439H319.741z"/>
		<polygon fill="#E3007F" points="296.702,238.328 305.416,256.413 314.667,238.328 319.741,238.328 320.636,263.456 
			315.324,263.456 314.727,245.67 305.655,262.919 303.148,263.277 294.374,245.013 294.135,263.456 290.076,263.456 
			291.748,238.328 		"/>
		<polygon fill="#FFFFFF" points="335.916,233.673 325.769,233.673 325.769,268.112 340.631,268.112 340.631,233.673 		"/>
		<rect x="330.424" y="238.328" fill="#E3007F" width="5.491" height="25.128"/>
		<path fill="#FFFFFF" d="M368.743,233.673h-8.058l-4.417,4.775v-4.775h-14.862v34.439h14.862v-4.238
			c0.537,0.657,3.163,4.238,3.163,4.238h19.04l-14.384-18.622l16.414-15.817L368.743,233.673z"/>
		<path fill="#E3007F" d="M351.613,263.456h-5.431v-25.128h5.491L351.613,263.456z M368.743,238.328l-11.102,10.684l11.281,14.444
			h-7.103l-9.669-13.37l10.863-11.937L368.743,238.328z"/>
		<path fill="#FFFFFF" d="M397.691,233.673h-8.655v17.906c0.118,1.171,0.118,2.351,0,3.521c-0.683,0.345-1.444,0.51-2.208,0.478
			c-0.453,0.087-0.919,0.087-1.373,0c0-0.597,0-1.97,0-1.97v-19.935h-15.101v19.876c-0.523,4.125,0.836,8.267,3.701,11.281
			c3.1,2.681,7.132,4.032,11.221,3.76c4.494,0.201,8.908-1.242,12.415-4.059c3.333-3.462,4.933-8.24,4.357-13.012l0.478-17.906
			L397.691,233.673z"/>
		<path fill="#E3007F" d="M380.561,238.328v14.981c0,2.805,0,3.999,1.074,5.193c1.374,1.216,3.185,1.819,5.014,1.671
			c2.205,0.167,4.376-0.615,5.969-2.149c1.253-1.373,1.253-3.223,1.253-6.506v-13.191h3.999v13.071c0,4.596-0.358,7.401-2.865,9.61
			c-2.62,2.078-5.913,3.12-9.251,2.925c-2.908,0.232-5.794-0.666-8.058-2.507c-1.97-1.85-2.208-4.118-2.208-7.879v-15.22H380.561z"
			/>
	</g>
</g>
<g>
</g>
<g>
</g>
<g>
</g>
<g>
</g>
<g>
</g>
<g>
</g>
<g>
</g>
<g>
</g>
<g>
</g>
<g>
</g>
<g>
</g>
<g>
</g>
<g>
</g>
<g>
</g>
<g>
</g>
</svg>
