<?xml version="1.0" encoding="utf-8"?>
<!-- Generator: Adobe Illustrator 27.0.1, SVG Export Plug-In . SVG Version: 6.00 Build 0)  -->
<svg version="1.1" id="레이어_1" xmlns="http://www.w3.org/2000/svg" xmlns:xlink="http://www.w3.org/1999/xlink" x="0px"
	 y="0px" viewBox="0 0 720 376.569" enable-background="new 0 0 720 376.569" xml:space="preserve">
<path d="M65.942,217.335c-33.046,0-57.964-24.933-57.964-57.964c0-8.961,2.795-32.82,28.71-60.744
	c1.073-1.148,1.345-2.811,0.725-4.261c-0.635-1.436-2.039-2.357-3.626-2.357H1.314L0,90.693V61.681l0.801-1.209l0.514-0.106
	l0.921,0.393l5.032,5.062L10.079,67h72.893l1.315,1.315v22.378l-0.575,1.073C52.781,113.042,34.3,138.307,34.3,159.371
	c0,18.616,13.025,31.641,31.641,31.641c17.453,0,31.657-14.204,31.657-31.641v-42.385l0.377-0.921l15.836-15.836l0.921-0.393
	l0.937,0.393l48.716,48.716l0.393,0.937l-0.393,0.922l-15.821,15.836l-0.937,0.393l-0.921-0.393l-16.048-16.032l-2.781-1.163
	l-1.525,0.287c-1.481,0.619-2.433,2.055-2.433,3.656v5.984C123.921,191.329,97.916,217.335,65.942,217.335 M358.375,217.078
	c0.272-0.196,6.755-5.017,13.917-13.433c19.916-23.542,27.667-45.302,27.667-77.593V74.238l-1.315-1.33h-23.693l-1.314,1.33v50.061
	c0,26.066-4.156,43.171-13.917,57.178c-6.407,9.187-25.461,24.237-25.658,24.389l-0.483,1.224l0.816,1.027l22.711,9.127l0.498,0.091
	L358.375,217.078 M321.158,143.777l1.058-0.544l16.727-22.953l0.121-1.375l-1.163-0.725l-11.5-0.06
	c-2.176-0.015-3.928-1.768-3.928-3.944V54.474l-1.315-1.299h-23.693l-1.33,1.299v87.988l1.33,1.315H321.158z M526.222,193.218
	c8.916-8.024,17.151-22.107,17.484-22.696l-0.363-1.722l-17.195-12.421l-0.771-0.257l-1.043,0.514
	c-0.105,0.121-9.852,12.874-14.158,16.924c-13.706,12.844-23.134,16.954-38.758,16.954c-11.529,0-16.214-5.938-16.214-20.49V61.077
	l-1.315-1.33h-23.708l-1.315,1.33v111.319c0,19.447,4.004,45.301,38.533,45.301C493.811,217.697,508.967,208.722,526.222,193.218
	 M527.764,127.019l0.815-1.224V79.723l-1.314-1.314h-46.072l-1.209,0.816l0.288,1.436l46.071,46.072l0.922,0.378L527.764,127.019
	 M550.853,82.654l0.801-1.209V55.108l-1.299-1.299h-26.338l-1.224,0.801l0.288,1.436l26.337,26.323l0.937,0.393L550.853,82.654
	 M291.739,210.746l1.314-1.315v-23.678l-1.314-1.33h-60.458c-12.738,0-21.638-4.186-24.389-11.499
	c-2.735-7.253,1.254-16.485,10.714-24.766l51.692-43.639l0.167-1.844l-15.277-18.193l-0.997-0.468l-0.861,0.302l-52.071,44.032
	c-27.094,23.784-24.646,44.591-20.762,54.881c3.853,10.275,15.761,27.516,51.784,27.516H291.739z M208.887,105.925l1.224-0.816
	l-0.303-1.436l-50.016-50.197l-0.936-0.378l-0.499,0.106l-0.816,1.209v50.197l1.315,1.315H208.887z M400.746,296.453l1.314-1.33
	v-65.806l-0.801-1.209l-0.514-0.106l-0.922,0.378l-65.821,65.821l-0.272,1.436l1.208,0.816H400.746z M680.29,214.131
	c32.82-15.791,39.71-42.733,39.71-62.572c0-11.061-6.392-35.782-30.554-50.001c-1.752-1.043-2.432-3.233-1.572-5.077l10.714-22.968
	l2.237-2.055l6.377-2.327l0.876-1.179l-0.771-1.239l-27.426-12.814l-0.559-0.106l-0.453,0.075l-0.741,0.68l-16.138,34.603
	c-0.65,1.405-2.056,2.282-3.566,2.282l-0.499-0.03c-3.385-0.423-6.905-0.695-10.502-0.816l-3.037-0.046
	c-9.081,0-18.057,1.345-26.685,3.974l-1.163,0.182c-1.375,0-2.69-0.725-3.415-1.98l-12.194-21.139l-0.801-0.605l-0.348-0.046
	l-0.65,0.182l-20.52,11.847l-0.484,1.783l11.484,19.916c0.982,1.677,0.575,3.838-0.952,5.062
	c-17.03,13.569-26.791,32.578-26.791,52.131c0,23.769,16.38,42.4,38.124,43.321l1.829,0.046c31.128,0,49.154-32.034,71.186-77.291
	l2.538-2.085l1.013-0.136l2.221,0.68c9.384,6.377,14.144,14.657,14.144,24.63c0,6.165-1.98,27.395-27.35,41.448l-0.65,0.861
	l0.196,1.058l13.524,19.326l1.073,0.559L680.29,214.131 M603.12,131.235l2.961,1.934l2.085,3.626l0.786,0.605l0.362,0.045
	l0.65-0.181l20.52-11.847l0.604-0.801l-0.105-0.982l-1.436-2.463l-0.136-3.732l2.992-2.16c2.523-0.363,5.092-0.529,7.646-0.529
	c1.42,0,2.871,0.045,4.307,0.151l3.113,1.949l0.166,3.687c-18.812,39.771-33.546,58.312-46.344,58.312l-1.193-0.061
	c-5.047-0.483-8.824-3.128-10.91-7.63c-3.884-8.432-1.466-22.455,5.651-32.609c1.496-2.13,3.143-4.171,4.942-6.089l2.886-1.254
	L603.12,131.235 M400.746,365.992l1.314-1.315v-23.693l-1.314-1.315h-75.87c-10.925,0-14.612-2.463-14.612-9.746l-0.03-68.647
	l-0.03-0.559v-17.785l1.148-2.795l3.309-3.294l0.272-1.451l-1.209-0.816h-28.529l-1.314,1.33v99.729
	c0,19.009,11.439,30.357,30.583,30.357H400.746z M622.31,365.992l1.315-1.315V244.669l1.163-2.795l5.062-5.032l0.302-1.436
	l-1.225-0.831H510.417l-1.315,1.33v115.61l1.315,1.315h75.039l1.314-1.315v-23.708l-1.314-1.314h-46.072
	c-2.191,0-3.959-1.753-3.959-3.929v-57.707c0-2.176,1.768-3.944,3.959-3.944h53.959c2.191,0,3.959,1.768,3.959,3.944v99.82
	l1.314,1.315H622.31z M490.668,316.746l1.314-1.315v-23.693l-1.314-1.315h-68.073l-1.299,1.315v23.693l1.299,1.315H490.668z
	 M240.574,365.992l1.209-0.801l-0.287-1.45l-5.077-5.032l-1.164-2.795v-59.777l1.299-2.931
	c16.471-14.944,27.199-35.238,30.206-57.118l-0.317-1.043l-0.998-0.469h-23.677l-1.299,1.103
	c-5.984,32.835-33.712,55.773-67.438,55.773h-25.326l-1.314,1.314v23.678l1.314,1.315h25.326c10.531,0,20.853-1.708,30.659-5.092
	l1.299-0.196l2.282,0.725l1.662,3.203v48.278l1.315,1.315H240.574z M138.714,271.294l1.179-2.765l6.603-6.437l0.105-1.768
	l-14.808-18.662l-1.027-0.498l-0.755,0.242l-2.66,1.844l-2.237,0.71H10.079l-2.811-1.179l-5.032-5.062l-0.921-0.393l-0.514,0.106
	L0,238.641v30.327l1.314,1.315h108.493l2.961,1.315l0.967,3.082c-2.146,18.722-17.982,32.85-36.855,32.85l-1.314,1.315v22.106
	l1.314,1.315C110.518,332.265,138.246,304.93,138.714,271.294 M716.706,316.746l1.315-1.315v-23.693l-1.315-1.315H642.06
	l-1.314,1.315v23.693l1.314,1.315H716.706z M69.614,376.569l0.755-0.242l19.402-13.585l0.544-0.861l-0.212-0.967l-40.858-58.342
	l-1.073-0.559l-0.755,0.242L28.015,315.84l-0.544,0.846l0.227,0.982L68.54,376.01l0.847,0.544L69.614,376.569 M147.478,20.671V0.65
	h-4.91v7.706h-5.228V0.65h-4.926v20.021h4.926v-7.933h5.228v7.933H147.478z M167.711,0.65h-4.927v20.021h4.927V0.65z M196.603,5.032
	V0.65H181.84v4.382h4.91v15.639h4.927V5.032H196.603z M255.307,20.671l-4.337-8.356c1.587-0.786,3.264-2.508,3.264-5.228
	c0-3.294-2.387-6.437-6.829-6.437h-7.948v20.021h4.941v-7.45h1.663l3.536,7.45H255.307z M249.323,7.087l-2.146,2.025h-2.781v-4.05
	h2.781L249.323,7.087 M274.558,0.65h-4.926v20.021h4.926V0.65z M300.593,13.811V0.65h-4.927v13.04c0,1.919-1.087,2.765-2.614,2.765
	l-2.222-1.027l-3.233,3.218c1.632,1.632,3.128,2.191,5.455,2.191C296.816,20.838,300.593,18.571,300.593,13.811 M321.657,0.65
	h-4.911v20.021h4.911V0.65z M355.64,20.671V0.65h-4.835l-4.503,8.824l-4.503-8.824h-4.851v20.021h4.942v-9.595l2.826,4.956h3.158
	l2.841-4.956v9.595H355.64z M382.869,20.671v-4.397h-8.703v-3.506h7.45V8.387h-7.45V5.032h8.703V0.65h-13.615v20.021H382.869z
	 M429.289,20.671V0.65h-4.835l-4.503,8.824l-4.503-8.824h-4.835v20.021h4.911v-9.595l2.841,4.956h3.143l2.856-4.956v9.595H429.289z
	 M459.571,0.65h-5.38l-3.113,7.208l-3.158-7.208h-5.365l6.045,11.861v8.16h4.926v-8.16L459.571,0.65z M496.984,20.671V0.65h-4.926
	v7.706h-5.228V0.65h-4.926v20.021h4.926v-7.933h5.228v7.933H496.984z M526.465,20.671v-4.397h-8.704v-3.506h7.434V8.387h-7.434
	V5.032h8.704V0.65H512.85v20.021H526.465z M557.048,20.671l-4.336-8.356c1.572-0.786,3.264-2.508,3.264-5.228
	c0-3.294-2.403-6.437-6.845-6.437h-7.933v20.021h4.926v-7.45h1.662l3.552,7.45H557.048z M551.034,7.087l-2.116,2.025h-2.795v-4.05
	h2.795L551.034,7.087 M218.09,4.609c-3.279,0-5.953,2.675-5.953,5.953c0,3.294,2.675,5.984,5.953,5.984
	c3.294,0,5.969-2.689,5.969-5.984C224.059,7.284,221.384,4.609,218.09,4.609 M218.09,0c5.848,0,10.578,4.73,10.578,10.562
	c0,5.848-4.729,10.578-10.578,10.578c-5.832,0-10.563-4.729-10.563-10.578C207.527,4.73,212.257,0,218.09,0 M579.034,4.609
	c-3.294,0-5.969,2.675-5.969,5.953c0,3.294,2.675,5.984,5.969,5.984c3.293,0,5.968-2.689,5.968-5.984
	C585.003,7.284,582.328,4.609,579.034,4.609 M579.034,0c5.847,0,10.562,4.73,10.562,10.562c0,5.848-4.715,10.578-10.562,10.578
	c-5.848,0-10.563-4.729-10.563-10.578C568.472,4.73,573.186,0,579.034,0"/>
</svg>
