<?xml version="1.0" encoding="utf-8"?>
<!-- Generator: Adobe Illustrator 27.1.1, SVG Export Plug-In . SVG Version: 6.00 Build 0)  -->
<svg version="1.1" id="레이어_1" xmlns="http://www.w3.org/2000/svg" xmlns:xlink="http://www.w3.org/1999/xlink" x="0px"
	 y="0px" viewBox="0 0 720 246.224" enable-background="new 0 0 720 246.224" xml:space="preserve">
<path fill="#2A5AA9" d="M460.646,246.224c-7.521,0-15.048-2.214-22.127-6.488c-8.56-5.023-14.015-13.135-16.081-23.46
	c-3.542-17.262,3.837-37.328,12.096-48.386c9.292-12.539,49.861-55.475,90.726-98.4c-9.292-1.038-19.323-3.099-30.386-6.346
	c-3.099-0.885-6.198-1.328-9.445-1.328c-9.588,0-20.208,4.132-31.419,12.096c-3.837,2.804-8.117,4.28-12.244,4.28
	c-6.051,0-11.511-3.247-14.02-8.259c-2.504-5.171-1.913-11.364,1.918-16.229c2.952-3.837,22.575-27.74,40.569-41.607
	C480.417,4.28,494.875,0,511.104,0c13.277,0,26.406,2.952,36.289,8.259c7.079,3.837,14.605,4.58,19.771,4.58
	c8.997,0,14.748-2.514,15.786-3.252l0.733-0.59c4.28-3.537,9.003-5.308,13.72-5.308c6.789,0,12.692,3.837,15.201,10.036
	c2.799,6.783,1.033,14.6-4.575,20.356c-23.903,25.816-87.189,95.744-95.448,105.626c-3.394,3.985-3.099,10.03-2.214,21.394
	c0.733,9.445,1.771,21.247-0.443,35.256c-1.919,11.954-7.527,24.051-15.491,33.053C484.987,240.326,473.038,246.224,460.646,246.224
	"/>
<path fill="#FFFFFF" d="M460.646,237.369c-6.341,0-12.687-1.913-18.88-5.603c-6.936-4.127-11.511-10.768-13.135-19.18
	c-2.946-14.753,3.247-32.895,10.921-43.368c9.44-12.84,52.518-58.421,99.871-107.993H538.1c-12.096,0-25.674-2.214-41.602-6.936
	c-3.689-1.028-7.379-1.623-11.216-1.623c-10.916,0-22.717,4.428-35.109,13.282c-2.804,1.913-5.75,2.946-8.56,2.946
	c-3.684,0-6.783-1.771-8.259-4.717c-1.476-2.952-1.033-6.494,1.181-9.588c2.804-3.695,21.979-27.002,39.388-40.422
	c9.003-6.942,22.132-10.773,37.032-10.773c12.244,0,24.34,2.804,33.19,7.521c8.265,4.427,16.967,5.313,22.722,5.313
	c9.44,0,17.114-2.504,19.913-4.87l0.59-0.443c3.099-2.656,6.494-3.979,9.74-3.979c4.127,0,7.817,2.361,9.292,6.046
	c1.771,4.427,0.59,9.588-3.394,13.572c-3.099,3.394-85.566,94.568-95.596,106.369c-5.313,6.198-4.575,14.605-3.69,26.111
	c0.738,9.145,1.771,20.509-0.443,33.638c-1.766,10.768-6.784,21.684-14.015,29.943C481.45,232.209,471.119,237.369,460.646,237.369"
	/>
<path fill="#2A5AA9" d="M590.914,15.496l-0.295,0.29h-0.148c-7.374,6.341-30.834,9.883-48.981,0.153
	c-17.404-9.298-47.943-9.74-64.319,2.799c-16.376,12.539-35.114,35.109-38.355,39.389c-3.247,4.28,1.766,7.822,7.964,3.542
	c13.572-9.735,31.72-18.147,51.042-12.392c13.277,3.985,36.59,9.44,55.918,5.012c-39.689,41.455-99.138,103.713-109.911,118.466
	c-10.178,13.72-17.994,43.373,0.596,54.584c26.554,15.786,49.714-10.916,53.551-35.109c4.717-29.363-6.494-48.539,5.308-62.406
	c10.325-12.096,95.749-106.512,95.749-106.512C605.519,16.819,599.616,8.259,590.914,15.496"/>
<polyline fill="#2A5AA9" points="323.153,219.965 314.741,219.965 322.12,199.899 330.527,199.899 323.153,219.965 "/>
<path fill="#2A5AA9" d="M214.133,191.345l-10.478,28.62h25.373c4.87,0,10.178-3.69,11.807-8.265l4.422-12.096
	c1.623-4.575-0.885-8.259-5.75-8.259H214.133 M213.69,215.538l7.226-19.765h15.638c1.033,0,1.476,0.733,1.181,1.618l-6.051,16.524
	c-0.295,0.885-1.328,1.623-2.361,1.623H213.69z"/>
<polyline fill="#2A5AA9" points="291.581,215.538 300.431,191.345 292.024,191.345 281.551,219.965 311.347,219.965 
	312.975,215.538 291.581,215.538 "/>
<path fill="#2A5AA9" d="M279.632,191.345H260.6c-4.865,0-10.178,3.684-11.801,8.259l-4.427,12.096
	c-1.623,4.575,0.885,8.265,5.756,8.265h19.033c4.865,0,10.178-3.69,11.801-8.265l4.422-12.096
	C287.154,195.029,284.502,191.345,279.632,191.345 M271.958,213.914c-0.295,0.886-1.328,1.623-2.356,1.623h-16.376
	c-1.033,0-1.476-0.738-1.181-1.623l6.046-16.524c0.295-0.885,1.328-1.618,2.361-1.618h16.376c1.033,0,1.476,0.733,1.181,1.618
	L271.958,213.914z"/>
<path fill="#2A5AA9" d="M332.741,193.706c-0.886,2.356-3.394,4.127-5.75,4.127c-2.367,0-3.542-1.919-2.656-4.127
	c0.885-2.361,3.389-4.132,5.75-4.132S333.626,191.492,332.741,193.706"/>
<polyline fill="#2A5AA9" points="404.291,191.345 399.864,203.441 379.951,203.441 384.373,191.345 375.966,191.345 
	365.641,219.965 374.048,219.965 378.327,207.869 398.241,207.869 393.966,219.965 402.225,219.965 412.698,191.345 
	404.291,191.345 "/>
<polyline fill="#2A5AA9" points="208.967,195.772 210.591,191.345 195.69,191.345 194.067,195.772 197.313,195.772 190.23,215.538 
	186.835,215.538 185.212,219.965 200.26,219.965 201.883,215.538 198.489,215.538 205.72,195.772 208.967,195.772 "/>
<path fill="#2A5AA9" d="M360.328,202.703h-17.257c-1.476,0-2.214-1.181-1.328-3.389c0.885-2.214,2.356-3.4,3.832-3.4h25.379
	l1.618-4.422H345.28c-4.723,0-10.03,3.837-11.801,8.707c-1.771,4.717,0.738,8.702,5.461,8.702h17.256
	c1.476,0,2.214,1.181,1.328,3.389c-0.885,2.214-2.361,3.394-3.832,3.394h-25.379l-1.618,4.427h27.292
	c4.717,0,10.03-3.837,11.801-8.707C367.554,206.541,365.05,202.703,360.328,202.703"/>
<path fill="#2A5AA9" d="M718.229,70.075c-0.59-5.16-4.723-9.145-10.473-10.03c-0.738-0.148-1.476-0.148-2.214-0.148
	c-4.717,0-9.292,2.214-11.801,5.903c-11.063,15.633-22.279,28.768-33.195,39.388c3.394-4.132,3.837-9.588,0.738-13.72
	c-5.16-6.936-11.506-12.982-18.295-17.557c0-0.59,0-1.181,0-1.766l-1.47-13.282c-0.59-4.87-4.28-8.702-9.445-9.883
	c-3.394-0.743-7.231-0.148-10.325,1.471c-1.181-0.733-2.509-1.175-3.837-1.471c-4.865-1.033-10.326,0.585-13.72,4.127
	l-12.687,13.282c-2.361,2.504-3.542,5.756-3.394,8.85h-29.653c-2.361,0-4.87,0.59-6.931,1.766c-2.509-0.885-5.313-0.885-7.822-0.29
	l-14.163,3.247c1.771-4.427,0.59-9.298-3.094-12.397c-2.361-2.061-5.461-3.094-8.855-3.094c-1.623,0-3.099,0.29-4.57,0.733
	l-13.873,4.427c-3.832,1.186-6.931,3.985-8.407,7.374l-5.46,12.987l-6.046,1.328c-3.247,0.738-6.199,2.509-8.117,5.013h-15.491
	c0.443-0.733,1.033-1.476,1.476-2.208c1.481-2.367,1.771-5.165,1.771-6.641s-0.443-4.87-0.59-5.608
	c-0.585-5.16-4.717-9.145-10.473-10.03c-0.738-0.142-1.476-0.142-2.214-0.142c-4.717,0-9.292,2.208-11.801,5.898
	c-3.979,5.756-8.112,11.211-12.096,16.229c0.443-1.476,0.738-3.099,0.443-4.723c-0.295-2.952-1.919-5.608-4.427-7.521
	c-7.521-5.756-16.081-10.325-23.307-12.84c-1.476-0.443-2.952-0.738-4.575-0.738c-4.717,0-9.292,2.214-11.801,5.903l-2.804,3.979
	c-2.509,3.542-2.804,7.969-0.738,11.659c-5.012-0.59-10.325,1.476-13.425,5.308l-0.295,0.443l-7.379-2.356
	c-1.175-0.443-2.504-0.59-3.832-0.59l-0.59-0.596c-3.394-3.094-8.855-4.275-13.72-2.651l-9.44,2.952
	c-1.629-0.3-3.394-0.3-5.018-0.148l4.717-11.364c1.919-4.428,0.743-9.44-2.946-12.539c-2.361-2.061-5.461-3.094-8.855-3.094
	c-1.476,0-3.094,0.29-4.57,0.733l-13.725,4.285c-1.175,0.29-2.208,0.885-3.094,1.471c-0.59-1.181-1.476-2.356-2.656-3.242
	c-2.361-2.071-5.455-3.099-8.855-3.099c-1.618,0-3.094,0.295-4.57,0.738l-3.542,1.175l-0.738-7.079
	c-0.59-4.865-4.275-8.702-9.44-9.888c-3.394-0.733-7.226-0.142-10.325,1.481c-1.181-0.738-2.509-1.181-3.837-1.481
	c-1.033-0.29-2.066-0.29-3.099-0.29c-3.979,0-7.964,1.618-10.621,4.428l-10.621,11.058c-1.476,0-2.804,0.3-4.132,0.743l-13.72,4.427
	c-1.476,0.443-2.952,1.175-4.132,2.061l-6.341-4.717c-2.214-1.629-5.165-2.656-8.117-2.656c-0.59,0-1.181,0-1.766,0.142
	c-3.542,0.443-6.936,2.214-9.15,4.728c-5.165,5.898-12.096,12.386-20.061,18.585l0.443-1.033c0-0.148,0-0.148,2.799-6.936
	c1.476-3.684,0.885-7.817-1.476-10.916c-2.361-2.952-6.193-4.717-10.325-4.717H43.296c-4.285,0-7.527,1.766-9.003,4.865
	c-1.328,2.952-0.738,6.783,1.771,10.183l3.832,5.308c3.69,5.165,10.478,8.702,16.524,8.702h21.837
	c-0.738,0.885-1.476,1.919-1.919,3.099l-13.572,32.015c-9.588,22.422-32.9,45.734-54.289,53.994
	c-5.608,2.214-8.997,7.379-8.412,12.539l0.295,2.657c0.443,3.542,2.509,6.641,5.756,8.412c2.066,1.181,4.427,1.771,6.931,1.771
	c1.181,0,2.509-0.148,3.69-0.443c36.442-9.002,71.403-44.111,83.057-71.403l1.481-3.394c0.733,3.094,2.946,5.75,6.046,7.374
	c3.247,1.629,7.521,1.919,11.211,0.743c2.804-0.885,5.46-1.924,8.259-2.957l-11.506,27.002c-1.919,4.422-0.733,9.44,2.952,12.539
	c2.361,2.066,5.46,3.099,8.85,3.099c1.476,0,3.099-0.3,4.575-0.743l13.72-4.275c3.837-1.181,7.084-3.985,8.56-7.379
	c17.262-40.569,21.684-51.19,22.865-53.994c2.656-1.618,5.165-3.099,7.521-4.717l-23.603,55.612
	c-1.919,4.427-0.738,9.445,3.099,12.692c2.361,1.919,5.455,3.099,8.85,3.099c1.623,0,3.247-0.295,4.723-0.738l13.72-4.428
	c3.837-1.328,6.931-3.985,8.412-7.374l14.01-33.195c1.181,2.214,2.214,4.275,2.952,6.488c1.623,3.985,5.46,6.783,10.325,7.379
	c4.427,0.59,9.298-1.181,12.392-4.28l2.656-2.804c2.657,0.738,5.461,0.59,8.117-0.142l4.87-1.481
	c-6.494,6.936-13.72,11.954-22.28,15.196c-5.603,2.214-8.997,7.374-8.412,12.539l0.3,2.656c0.443,3.542,2.509,6.641,5.75,8.412
	c3.099,1.771,6.936,2.214,10.478,1.328c23.603-5.903,43.663-20.361,58.268-42.05c1.033,0.885,2.214,1.629,3.542,2.214
	c2.066,0.885,4.28,1.186,6.641,1.033c-6.494,6.341-13.572,10.768-21.689,13.867c-5.603,2.066-9.145,7.374-8.554,12.687l0.295,2.656
	c0.443,3.542,2.656,6.783,6.046,8.554c3.099,1.771,7.232,2.071,10.921,1.038c15.633-4.58,29.211-11.511,41.159-21.394l1.328,11.801
	c0.295,3.247,2.214,6.198,5.16,8.112c2.214,1.328,4.723,2.214,7.527,2.214c0.738,0,1.476,0,2.214-0.142
	c15.638-2.214,30.244-8.412,44.696-18.442c1.328,5.16,6.346,8.855,12.397,8.855h53.551l0.59,0.733
	c2.656,3.684,7.964,8.265,18.147,8.997c2.214,0.153,4.422,0.153,6.636,0.153c9.74,0,21.689-0.885,29.063-1.623
	c0.885-0.148,1.771-0.3,2.656-0.59l0.443,0.29c3.094,1.771,6.931,2.214,10.473,1.328c20.503-4.87,38.503-14.157,54.436-28.025
	c-0.885,1.771-1.181,3.832-0.885,5.75l1.328,12.544c0.295,3.241,2.214,6.188,5.165,8.112c2.214,1.328,4.717,2.214,7.521,2.214
	c0.738,0,1.476,0,2.214-0.153c36.885-5.455,82.472-43.811,116.252-97.804c1.181-1.771,1.771-3.985,1.771-6.641
	C718.819,74.06,718.377,70.818,718.229,70.075 M597.402,144.135c-1.618,0.148-3.094,0.443-4.57,1.033
	c10.178-10.183,19.475-22.427,27.882-36.88c0.148,2.208,0.148,4.422,0.148,6.784c-0.148,5.165,3.394,9.588,8.85,11.211
	c1.328,0.3,2.509,0.59,3.837,0.59l1.476-0.148C618.943,138.084,605.371,143.544,597.402,144.135z M579.703,105.189
	c-12.982,19.913-28.325,35.109-44.849,44.259c-0.59-1.481-1.476-2.952-2.656-4.132c-2.361-2.361-5.75-3.69-9.44-3.69
	c-1.033,0-1.919,0.153-2.804,0.295c-4.717,0.885-9.883,1.623-14.753,2.066c-0.148-0.59,0.295-2.208,0.443-2.952l0.738,0.148
	c3.837,0.738,8.112-0.148,11.359-2.504c13.425-9.593,24.493-20.066,37.617-33.791c0.738,0.153,1.623,0.153,2.367,0.153h21.979
	V105.189z M370.358,137.941c-6.636,3.242-13.277,5.16-19.47,5.898c4.575-5.313,8.85-11.359,12.982-17.852
	c0.295,1.181,0.443,2.367,0.59,3.542C364.903,133.219,367.117,136.17,370.358,137.941z M430.698,129.972l-6.488,12.692h-5.018
	C423.029,138.822,426.861,134.542,430.698,129.972z M244.223,98.7l-4.132,9.883c-4.275-3.542-8.407-6.641-12.681-9.15l0.585-1.175
	l1.181,0.29c3.394,0.738,7.232,0.153,10.331-1.476c1.181,0.743,2.509,1.186,3.832,1.476L244.223,98.7z"/>
<path fill="#FFFFFF" d="M618.058,93.83l2.656-6.051l0.148-0.148c3.094,6.198,4.723,15.491,4.422,25.669
	c0,2.361,1.629,4.575,4.28,5.313c0.59,0.148,1.328,0.295,2.066,0.295c2.066,0,4.132-0.738,5.461-2.214l15.934-16.666
	c1.913-1.924,2.214-4.728,0.585-6.789c-5.455-7.232-12.091-13.425-19.47-17.705l-1.181-0.59c0.885-1.181,1.328-2.509,1.181-3.837
	l-1.476-13.277c-0.295-2.214-2.066-4.127-4.575-4.723c-0.59-0.142-1.033-0.142-1.618-0.142c-2.071,0-4.132,0.88-5.46,2.208
	l-2.509,2.509c-0.295-2.208-2.066-4.132-4.575-4.575c-0.59-0.142-1.033-0.142-1.618-0.142c-2.071,0-4.132,0.88-5.461,2.208
	L594.16,68.452c-1.181,1.181-1.771,2.809-1.623,4.427l0.738,6.641h-37.18c-1.913,0-3.832,0.738-5.16,1.913l-1.033,1.328
	c-0.443-0.59-1.033-1.028-1.623-1.471c-1.033-0.59-2.361-0.885-3.542-0.885c-0.59,0-1.175,0-1.771,0.142l-26.407,5.903l4.575-10.621
	c0.885-2.066,0.295-4.427-1.476-5.898c-1.181-1.038-2.804-1.481-4.422-1.481c-0.743,0-1.629,0.153-2.367,0.443l-13.867,4.427
	c-1.913,0.59-3.537,2.066-4.275,3.684l-6.789,15.939l-9.588,2.214c-2.214,0.443-4.132,1.913-5.018,3.832l-1.028,2.214
	c-1.038-0.59-2.367-1.033-3.695-1.033h-26.997c2.509-3.684,5.018-7.527,7.379-11.359c0.59-1.033,0.738-2.214,0.738-3.247
	c0-1.181-0.443-5.16-0.443-5.16c-0.295-2.514-2.361-4.428-5.165-4.87l-1.181-0.148c-2.361,0-4.717,1.175-6.046,2.946
	c-38.803,55.18-70.223,68.604-89.846,70.075c-1.918,0.153-3.542,0.885-4.865,2.214c-1.186,1.186-1.771,2.804-1.629,4.427
	l1.328,12.539c0.147,1.476,1.033,2.957,2.509,3.842c1.033,0.733,2.509,1.028,3.837,1.028l1.181-0.148
	c28.62-4.132,55.617-23.16,81.876-57.683c1.181,1.033,2.656,1.623,4.575,1.623h6.193l-15.781,30.834h-18.147
	c-1.919,0-3.837,0.738-5.165,1.919c-1.328,1.175-2.066,2.946-1.913,4.575l0.29,3.979c0.295,2.804,2.952,5.018,6.346,5.018h53.846
	c1.181,0,2.509-0.295,3.542-0.885c0.443,1.618,1.181,2.946,2.066,4.275c1.913,2.657,5.75,5.909,13.425,6.346
	c1.918,0.148,3.979,0.148,6.193,0.148c9.445,0,21.246-0.885,28.325-1.623c1.919-0.148,3.69-1.033,4.87-2.361
	c0.443,1.186,1.328,2.361,2.509,2.957c1.033,0.585,2.214,0.88,3.542,0.88c0.585,0,1.181,0,1.913-0.148
	c38.213-9.145,67.719-34.666,90.436-77.749L618.058,93.83 M469.496,135.87c-1.913,4.427-3.242,8.412-4.127,11.807
	c-1.033-0.59-2.214-1.033-3.689-1.033h-7.374l18.585-36.289c1.181,0.733,2.509,1.175,3.985,1.175c0.59,0,1.033,0,1.623-0.148
	l1.476-0.295L469.496,135.87z M525.119,147.529c-1.181-1.181-2.952-1.771-4.723-1.771l-1.476,0.148
	c-8.702,1.623-18.442,2.657-26.111,2.657c-0.59,0-1.181,0-1.771,0c0.148-1.328,0.738-3.985,2.656-8.707l14.753-34.666l7.521-1.623
	c-4.127,6.636-9.145,13.277-14.31,19.175c-1.471,1.629-1.771,3.842-1.028,5.613l0.733,1.618c0.738,1.623,2.361,2.804,4.427,3.247
	c0.443,0.148,0.885,0.148,1.476,0.148c1.623,0,3.247-0.443,4.427-1.476c13.425-9.593,24.636-20.361,38.355-34.671
	c0.59-0.59,1.033-1.175,1.181-1.919c1.181,1.033,2.799,1.629,4.57,1.629h32.9c-17.557,30.539-39.684,51.632-64.762,61.22
	l2.208-5.165C527.185,151.219,526.742,149.005,525.119,147.529z"/>
<path fill="#FFFFFF" d="M368.74,126.725c0.295,2.361,2.214,4.132,4.865,4.723l1.328,0.148c2.214,0,4.427-1.033,5.756-2.656
	l30.982-37.47c2.061-2.509,1.618-5.608-0.738-7.527c-7.084-5.308-14.9-9.588-21.542-11.796c-0.738-0.3-1.623-0.443-2.361-0.443
	c-2.356,0-4.717,1.028-6.045,2.946l-2.804,3.985c-1.476,2.066-1.328,4.57,0.295,6.341c3.394,3.985,5.898,8.855,7.374,14.458
	c-4.57-2.946-9.44-5.018-14.31-6.193c-0.585-0.153-1.181-0.153-1.771-0.153c-2.356,0-4.57,1.038-5.898,2.804l-2.804,3.542
	l-0.443,0.738l-0.443-0.142l-11.801-3.695c-0.738-0.29-1.476-0.29-2.214-0.29c-1.033,0-2.214,0.29-3.094,0.585
	c-0.153-1.181-0.743-2.214-1.629-2.946c-1.175-1.181-2.946-1.771-4.57-1.771c-0.738,0-1.623,0.148-2.361,0.443l-11.506,3.69
	c-0.885-0.443-1.919-0.596-2.952-0.596c-0.738,0-1.623,0.153-2.361,0.295l-10.768,3.4l9.883-23.165
	c0.885-2.066,0.295-4.427-1.476-5.903c-1.181-1.028-2.799-1.623-4.427-1.623c-0.733,0-1.618,0.153-2.356,0.295l-13.72,4.28
	c-2.066,0.59-3.542,2.066-4.28,3.69l-12.982,30.539c-11.801,27.882-25.964,43.811-45.882,51.485
	c-2.804,1.033-4.57,3.542-4.275,6.051l0.29,2.657c0.153,1.618,1.181,3.099,2.804,3.985c1.033,0.585,2.214,0.88,3.542,0.88
	c0.59,0,1.328-0.148,1.919-0.295c26.702-6.636,48.096-24.783,62.258-52.961c0,3.099,0.148,6.198,0.59,9.298
	c0.29,1.766,1.618,3.242,3.389,3.979c0.885,0.295,1.771,0.59,2.804,0.59c1.033,0,2.214-0.295,3.247-0.738l3.837-1.771
	c1.913-0.885,3.241-2.361,3.684-4.132l0.295-1.328c0.59,0.743,1.328,1.328,2.214,1.771c0.885,0.443,2.066,0.743,3.099,0.743
	c0.885,0,1.771-0.153,2.509-0.443c-11.359,16.519-22.87,25.959-37.475,31.419c-2.799,1.033-4.57,3.542-4.28,6.193l0.3,2.656
	c0.142,1.623,1.181,3.099,2.946,3.985c1.033,0.596,2.214,0.885,3.394,0.885c0.738,0,1.476-0.148,2.214-0.29
	c31.277-9.008,54.141-29.068,71.993-63.144C365.936,114.038,367.997,120.084,368.74,126.725"/>
<path fill="#FFFFFF" d="M230.946,138.237l6.346-6.641l0.59,0.59c1.181,1.033,2.804,1.623,4.422,1.623
	c0.738,0,1.623-0.148,2.361-0.295l13.72-4.28c2.066-0.59,3.542-2.066,4.28-3.69l21.099-49.862c0.885-2.066,0.295-4.422-1.476-5.903
	c-1.181-1.033-2.804-1.618-4.428-1.618c-0.738,0-1.623,0.142-2.361,0.29l-11.506,3.695v-1.328l-1.476-13.282
	c-0.295-2.214-2.066-4.127-4.575-4.717c-0.59-0.153-1.033-0.153-1.623-0.153c-2.066,0-4.127,0.885-5.455,2.214l-2.509,2.509
	c-0.295-2.214-2.066-4.127-4.575-4.57c-0.59-0.153-1.033-0.153-1.623-0.153c-2.066,0-4.127,0.885-5.455,2.214l-12.687,13.282
	l-0.295,0.29c-0.738-0.29-1.476-0.29-2.361-0.29c-0.738,0-1.623,0.142-2.361,0.443l-13.72,4.422c-1.919,0.59-3.542,2.066-4.28,3.69
	l-0.738,1.919c-0.29-0.59-0.885-1.033-1.328-1.476l-10.325-7.669c-1.181-0.885-2.656-1.328-4.127-1.328h-0.885
	c-1.919,0.29-3.542,1.175-4.723,2.504c-15.786,18.147-46.177,39.394-70.518,49.276c-2.657,1.028-4.428,3.542-4.132,6.046
	l0.295,2.214c0.148,1.771,1.328,3.247,2.952,4.132c1.033,0.443,2.066,0.738,3.247,0.738c0.88,0,1.623-0.148,2.509-0.443
	c7.521-2.509,14.895-5.313,22.274-8.412l-17.114,40.422c-0.885,2.066-0.295,4.427,1.476,5.909c1.181,1.028,2.804,1.618,4.427,1.618
	c0.738,0,1.618-0.148,2.356-0.29l13.72-4.285c2.071-0.585,3.542-2.066,4.28-3.684l23.307-54.879l0.3-1.038
	c10.916-6.488,20.503-13.272,28.178-19.913l-32.605,76.864c-0.885,2.066-0.295,4.422,1.476,5.898
	c1.181,1.038,2.804,1.476,4.422,1.476c0.885,0,1.623-0.148,2.509-0.437l13.72-4.427c1.919-0.596,3.542-2.066,4.28-3.695
	l19.033-44.991c4.427,5.898,7.964,11.949,10.325,18.295c0.738,1.913,2.656,3.242,5.013,3.537h0.885
	C227.552,140.45,229.618,139.565,230.946,138.237 M223.868,84.243l0.148,1.618c0.295,2.214,2.066,4.132,4.57,4.723
	c0.59,0.148,1.033,0.148,1.623,0.148c2.066,0,4.132-0.885,5.461-2.214l2.509-2.509c0.295,2.214,2.066,4.132,4.57,4.575
	c0.59,0.148,1.033,0.148,1.623,0.148c2.066,0,4.132-0.885,5.46-2.214l4.865-5.018l-14.452,34.081
	c-8.117-7.822-15.786-13.572-23.313-17.262L223.868,84.243z"/>
<path fill="#FFFFFF" d="M709.97,74.06c0-1.328-0.295-3.684-0.443-5.165c-0.443-2.656-2.361-4.422-5.165-4.865l-1.181-0.153
	c-2.356,0-4.717,1.186-6.046,2.957c-38.803,55.174-82.029,79.81-101.647,81.286c-1.919,0.148-3.542,0.885-4.87,2.214
	c-1.181,1.175-1.771,2.804-1.623,4.422l1.328,12.539c0.147,1.481,1.033,2.952,2.509,3.837c1.033,0.743,2.509,1.033,3.837,1.033
	l1.175-0.148c35.114-5.165,79.52-43.663,111.387-94.71C709.822,76.421,709.97,75.388,709.97,74.06"/>
<path fill="#FFFFFF" d="M148.037,82.319l2.804-6.783c0.738-1.771,0.443-3.542-0.738-5.018c-1.181-1.471-3.099-2.356-5.165-2.356
	H40.64c-1.919,0-3.394,0.733-3.985,2.061c-0.59,1.328-0.295,2.952,1.033,4.575l3.837,5.308c2.061,2.809,5.898,4.87,9.292,4.87
	h68.452c-3.394,6.494-9.292,11.954-15.638,16.229l2.509-5.903c0.885-2.061,0.295-4.422-1.476-5.898
	c-1.181-1.033-2.804-1.623-4.427-1.623c-0.733,0-1.618,0.148-2.361,0.295l-13.862,4.427c-2.066,0.585-3.542,2.066-4.28,3.684
	l-13.572,32.015c-10.183,23.903-35.114,48.686-58.126,57.536c-2.804,1.033-4.575,3.542-4.28,6.051l0.295,2.656
	c0.148,1.618,1.181,3.099,2.804,3.985c1.033,0.585,2.214,0.885,3.542,0.885c0.59,0,1.328-0.153,1.919-0.3
	c34.371-8.554,67.418-41.75,78.334-67.566l4.427-10.478c0.59,0.153,1.181,0.3,1.913,0.3c0.885,0,1.919-0.148,2.804-0.443
	C118.236,113.896,138.597,103.861,148.037,82.319"/>
<path fill="#F3961A" d="M357.671,105.189l-11.801-3.69c-5.313,10.768-10.473,19.913-15.786,27.587h12.544
	C348.084,122.155,353.102,114.334,357.671,105.189"/>
<polyline fill="#F3961A" points="468.173,105.774 435.863,105.774 436.158,110.201 451.944,110.201 442.352,129.087 
	456.219,129.087 468.173,105.774 "/>
<path fill="#F3961A" d="M503.577,100.319l24.635-5.313c-5.603,10.921-13.129,21.689-21.241,30.982l0.738,1.623
	c12.982-9.145,23.898-19.765,37.322-33.78l-0.885-7.822l-38.208,8.407c4.87-11.359,8.702-20.503,8.702-20.503l-13.867,4.422
	c0,0-3.537,8.56-8.112,19.038l-13.277,2.946l-2.361,5.455l13.129-2.799c-3.985,9.292-8.112,19.18-11.063,25.964h11.949
	C494.58,121.412,499.149,110.497,503.577,100.319"/>
<path fill="#F3961A" d="M611.717,92.059l2.946-7.084H555.51l0.585,6.198h42.936c-7.379,14.31-15.934,26.997-25.379,37.765h12.982
	C595.931,118.761,604.191,106.517,611.717,92.059"/>
<path fill="#F3961A" d="M631.925,112.858l15.933-16.671c-5.165-6.931-11.506-12.539-17.705-16.223L626.47,83.8
	C630.007,90.141,632.221,100.319,631.925,112.858"/>
<path fill="#F3961A" d="M388.948,109.469c-6.046-5.46-12.834-9.15-19.47-10.768l-2.804,3.537c4.127,5.903,7.521,13.72,8.702,23.603
	L388.948,109.469"/>
<path fill="#F3961A" d="M406.358,88.222c-6.193-4.723-13.425-8.85-19.623-10.916l-2.804,3.985c4.575,5.308,8.265,12.539,9.74,22.274
	L406.358,88.222"/>
<polyline fill="#F3961A" points="611.865,58.421 599.173,71.704 600.649,84.975 613.335,71.704 611.865,58.421 "/>
<polyline fill="#F3961A" points="627.498,71.704 626.027,58.421 613.335,71.704 614.811,84.975 627.498,71.704 "/>
<path fill="#F3961A" d="M207.344,106.369c4.723,5.013,11.211,12.687,16.081,22.57h7.964l5.608-5.898
	c-9.145-9.145-18.442-16.229-28.178-20.066l12.392-29.211l-13.72,4.427l-21.542,50.747h11.807L207.344,106.369"/>
<polyline fill="#F3961A" points="243.338,71.704 241.862,58.421 229.175,71.704 230.651,84.975 243.338,71.704 "/>
<polyline fill="#F3961A" points="257.5,71.704 256.025,58.421 243.338,71.704 244.814,84.975 257.5,71.704 "/>
<path fill="#F3961A" d="M703.329,74.945l-0.443-5.165c-13.129,18.738-33.485,41.903-55.322,59.307h12.539
	C677.217,112.268,692.413,92.355,703.329,74.945"/>
<path fill="#F3961A" d="M443.095,86.008l-0.443-5.16c-11.806,16.814-26.412,34.371-42.641,48.238h11.069
	C423.029,116.105,433.65,101.204,443.095,86.008"/>
<path fill="#F3961A" d="M128.119,79.22c-3.242,15.196-18.437,26.111-30.976,32.605l0.29,3.837
	c16.376-6.046,35.704-15.048,44.406-34.961l2.656-6.641H43.881l3.837,5.313h80.4V79.22"/>
<polyline fill="#F3961A" points="99.646,93.683 85.926,97.957 72.797,129.087 84.746,129.087 99.646,93.683 "/>
<path fill="#F3961A" d="M295.856,108.731l14.758-34.819l-13.72,4.28l-12.987,30.539c-3.099,7.374-6.488,14.163-10.325,20.208h11.364
	C289.515,122.451,293.057,115.514,295.856,108.731"/>
<polyline fill="#F3961A" points="256.62,123.779 277.714,73.912 263.846,78.334 242.9,128.053 256.62,123.779 "/>
<path fill="#F3961A" d="M305.449,127.168l3.837-1.771c1.618-6.783,5.16-15.043,10.621-24.636l-13.572,4.28
	C305.006,113.453,304.268,120.384,305.449,127.168"/>
<path fill="#F3961A" d="M325.662,120.384c2.804-7.374,6.193-13.725,11.063-23.012l-13.13,4.127
	c-1.623,8.259-2.361,13.277-1.623,20.213L325.662,120.384"/>
<path fill="#F3961A" d="M161.609,107.102h-3.985c14.463-7.816,27.145-16.666,36.737-25.516l-10.325-7.674
	c-17.262,19.918-48.834,41.307-73.174,51.042l0.295,2.214c12.244-4.127,24.636-9.145,36.289-14.9l-7.084,16.819h11.807
	L161.609,107.102"/>
<path fill="#EC6538" d="M342.918,129.086h-12.539c-4.717,6.936-9.44,12.692-14.458,17.557h10.626
	C332.15,141.779,337.611,135.87,342.918,129.086"/>
<polyline fill="#EC6538" points="442.352,129.086 433.354,146.643 447.222,146.643 456.219,129.086 442.352,129.086 "/>
<path fill="#EC6538" d="M491.333,129.086h-11.949c-2.214,5.165-3.542,8.412-3.689,8.554c-1.328,3.099-2.504,6.198-3.247,9.003
	h12.249c0.443-2.509,1.47-5.46,2.799-8.56C487.939,136.908,489.414,133.662,491.333,129.086"/>
<path fill="#EC6538" d="M586.781,129.086h-12.982c-5.75,6.641-11.801,12.539-18.29,17.557h12.392
	C574.39,141.626,580.736,135.728,586.781,129.086"/>
<path fill="#F3961A" d="M225.929,134.695l5.46-5.608h-7.964C224.31,130.858,225.196,132.776,225.929,134.695"/>
<polyline fill="#EC6538" points="185.95,129.086 178.428,146.643 190.377,146.643 197.756,129.086 185.95,129.086 "/>
<path fill="#EC6538" d="M647.416,129.086c-8.997,7.084-18.147,13.135-27.292,17.557h19.323c7.084-5.165,13.873-11.216,20.509-17.557
	H647.416"/>
<path fill="#EC6538" d="M411.08,129.086h-11.069c-8.407,7.084-17.409,13.135-26.554,17.557h18.738
	C398.683,141.478,405.029,135.58,411.08,129.086"/>
<path fill="#EC6538" d="M84.746,129.086H72.797l-0.443,0.886c-2.361,5.756-5.603,11.364-9.145,16.671h11.506
	c4.132-5.75,7.379-11.506,9.588-16.671L84.746,129.086"/>
<path fill="#EC6538" d="M285.093,129.086h-11.364c-3.985,6.641-8.407,12.539-13.425,17.557h10.325
	C276.09,141.336,280.961,135.285,285.093,129.086"/>
<polyline fill="#EC6538" points="140.51,129.086 132.989,146.643 144.79,146.643 152.317,129.086 140.51,129.086 "/>
<path fill="#E83C19" d="M288.925,163.752l0.295,2.657c13.277-3.832,25.669-10.03,37.175-19.765h-10.621
	C307.81,154.465,299.108,160.068,288.925,163.752"/>
<polyline fill="#E83C19" points="430.403,152.547 407.538,152.547 407.981,156.679 461.68,156.679 461.237,152.547 444.27,152.547 
	447.222,146.643 433.354,146.643 430.403,152.547 "/>
<path fill="#E83C19" d="M481.303,166.409c1.771,0.153,3.537,0.153,5.608,0.153c9.145,0,20.503-0.885,27.44-1.623l5.75-13.43
	c-8.85,1.771-19.18,2.804-27.587,2.804c-1.476,0-2.952,0-4.28-0.148c-3.537-0.295-4.28-3.241-3.537-7.521h-12.249
	C469.206,157.559,470.234,165.676,481.303,166.409"/>
<path fill="#E83C19" d="M525.704,163.752l0.3,2.657c15.343-3.684,29.211-10.173,41.745-19.765h-12.392
	C546.212,154.023,536.182,159.921,525.704,163.752"/>
<polyline fill="#E83C19" points="170.164,166.409 183.884,161.987 190.377,146.643 178.428,146.643 170.164,166.409 "/>
<path fill="#E83C19" d="M595.631,153.87l1.328,12.539c14.163-2.061,28.626-9.44,42.488-19.765h-19.323
	C611.865,150.776,603.6,153.279,595.631,153.87"/>
<path fill="#E83C19" d="M347.198,153.87l1.328,12.539c15.786-2.356,30.244-9.588,43.373-19.765h-18.738
	C364.903,150.623,356.195,153.279,347.198,153.87"/>
<path fill="#E83C19" d="M10.396,191.05l0.29,2.657c25.674-6.346,49.867-27.145,64.029-47.063H63.209
	C49.637,166.852,28.981,183.818,10.396,191.05"/>
<path fill="#E83C19" d="M234.193,163.752l0.295,2.657c14.753-3.684,26.554-10.916,35.999-19.765h-10.331
	C252.925,154.165,244.371,159.921,234.193,163.752"/>
<polyline fill="#E83C19" points="124.73,166.266 138.302,161.987 144.79,146.643 132.989,146.643 124.73,166.266 "/>
<path fill="#2A5AA9" d="M693.151,192.378l-4.132-10.916c-0.738-1.629-2.799-1.629-3.837-0.743l-4.275,3.985c0,0-27.74,0-29.358,0
	c-1.623,0-3.099,1.623-3.099,1.623l-0.443-0.738c-0.443-0.585-1.033-0.885-1.771-0.885h-8.112c-1.476,0-2.952,0.738-3.837,1.919
	l-0.738-1.033c-0.443-0.585-1.033-0.885-1.771-0.885h-66.385c-1.771,0-2.804,2.066-1.771,3.542l5.898,8.112l-4.717,12.84
	c-0.738,2.061-0.885,2.361-3.69,2.361h-3.394c-1.766,0-2.804,2.061-1.766,3.537l5.75,7.964c0.443,0.596,1.033,0.885,1.771,0.885
	h14.9c5.165,0,8.997-0.733,11.801-2.656l1.181,1.771c0.443,0.596,1.033,0.885,1.771,0.885h35.551c0.885,0,1.771-0.59,2.066-1.47
	l0.738-2.066l1.918,2.651c0.443,0.596,1.033,0.885,1.771,0.885h34.524l1.766,2.509c0.738,1.033,2.214,1.186,3.247,0.443l9.44-7.964
	c0.743-0.59,1.033-1.623,0.595-2.509l-1.771-4.28l10.03-17.852C693.446,193.706,693.446,192.963,693.151,192.378 M672.495,208.016
	l-6.341,5.75l-1.328-1.919l3.69-10.03h3.979l0.885,1.328L672.495,208.016z"/>
<path fill="#2A5AA9" d="M559.489,185.589c-0.443-0.585-1.033-0.885-1.771-0.885H541.79c-0.885,0-1.771,0.59-2.066,1.476
	l-2.952,8.265c-1.771,0.29-3.247,1.028-4.87,1.913c-0.443-0.585-0.885-1.028-1.476-1.328c-1.181-0.585-2.656-0.88-4.422-0.88
	c-2.509,0-4.575,0.443-6.198,1.028c-1.033-0.585-2.214-1.028-3.542-1.028c-0.885,0-1.771,0.142-2.656,0.295
	c0.443-1.771,0-3.542-0.885-4.87l-1.323-1.919c-1.181-1.623-2.952-2.509-5.165-2.509c-3.394,0-6.789,2.361-8.117,5.756
	c-0.438,1.033-0.585,2.214-0.438,3.247h-2.804c-0.59,0-1.181,0.443-1.476,1.028l-0.147,0.596c-1.181-0.885-2.509-1.181-3.69-1.328
	l1.181-3.247c0.295-0.738,0.148-1.476-0.295-2.066l-2.361-3.394c-0.443-0.59-1.033-0.885-1.771-0.885h-40.274
	c-0.885,0-1.771,0.59-2.061,1.476l-3.4,9.445c-0.29,0.733-0.142,1.471,0.3,2.061l2.356,3.247c0.443,0.59,1.033,0.885,1.771,0.885
	h2.509l-2.656,7.521c-0.738,2.071-0.88,2.361-3.69,2.361h-3.241c-1.771,0-2.804,2.066-1.771,3.542l5.75,7.964
	c0.443,0.59,1.033,0.885,1.771,0.885h18.738c0.885,0,1.771-0.585,2.066-1.471l0.738-2.066l1.918,2.651
	c0.443,0.59,1.033,0.885,1.771,0.885h8.259c0.885,0,1.771-0.585,2.066-1.471l0.443-1.328l0.295,0.443
	c1.181,1.618,3.099,2.504,5.165,2.504c2.504,0,4.865-0.733,7.817-2.356c1.181,1.471,2.952,2.356,5.018,2.356
	c2.061,0,4.127-0.59,6.636-1.618l0.295,0.443c0.443,0.585,1.033,0.885,1.771,0.885h8.259c0.885,0,1.771-0.596,2.066-1.481
	l4.575-12.386l0.738,0.443c-0.738,4.127,0.148,6.783,1.328,8.259l1.328,1.913c1.175,1.629,3.542,3.695,7.964,3.695
	c1.919,0,3.542-0.3,5.018-0.743c0.885,0.443,1.913,0.743,2.952,0.743c3.099,0,5.898-1.038,9.883-3.542l1.623-1.033
	c1.033-0.738,1.328-2.066,0.59-3.099l-2.952-3.979l8.997-24.788C560.079,186.917,559.932,186.18,559.489,185.589 M464.631,217.604
	l-3.985-5.603l3.689-10.183h6.199L464.631,217.604z"/>
<path fill="#FFFFFF" d="M501.516,212.734l5.308-14.605h-10.03l-0.885,2.656c1.913,0.148,3.684,0.738,2.799,3.247l-3.094,8.412
	c-1.476,4.275-0.443,6.046,1.766,6.046c1.924,0,4.138-0.59,7.822-2.952l-1.328-1.771
	C502.691,214.062,500.921,214.21,501.516,212.734"/>
<path fill="#FFFFFF" d="M553.296,188.688h-10.178l-0.885,2.656c1.913,0.148,3.684,0.733,2.799,3.247l-1.623,4.422
	c-0.885-0.585-2.214-0.738-3.684-0.738c-5.313,0-9.74,3.985-11.954,10.183c-2.208,6.193-0.88,10.178,4.575,10.178
	c1.771,0,3.985-0.295,5.756-1.623c0.295,1.033,1.181,1.476,2.362,1.476c1.913,0,4.127-0.59,7.817-2.952l-1.328-1.771
	c-1.033,0.443-2.804,0.59-2.214-0.88L553.296,188.688 M538.396,212.291c-0.738,1.771-1.771,2.804-2.657,2.804
	c-1.476,0-4.28-1.033-2.214-6.783c2.066-5.608,5.165-6.789,7.669-6.789l1.038,0.148L538.396,212.291z"/>
<path fill="#FFFFFF" d="M447.665,188.688l-2.804,7.226h2.361c2.361-4.275,2.656-4.717,7.379-4.717h1.328l-7.674,21.246
	c-0.886,2.208-2.804,2.946-6.488,2.946l1.913,2.656h16.524l-1.919-2.656c-3.832-0.295-4.57-1.033-3.832-3.542l7.521-20.651h1.476
	c4.723,0,4.575,0.443,3.837,4.717h2.361l2.656-7.226H447.665"/>
<path fill="#FFFFFF" d="M526.447,205.059l2.356-6.488c-0.733-0.295-1.618-0.443-2.656-0.443c-3.242,0-5.603,0.885-7.374,1.919
	c-0.295-1.328-1.181-1.919-2.361-1.919c-1.918,0-4.127,0.59-7.817,2.952l1.328,1.771c1.033-0.443,2.799-0.59,2.214,0.885
	l-5.313,14.31h6.198c0,0,4.275-11.801,4.57-12.687c0.738-1.919,2.656-3.542,3.985-3.542c1.918,0,2.066,1.771,1.623,3.241H526.447"/>
<path fill="#FFFFFF" d="M488.529,212.734l2.804-7.521c1.919-5.165,0.885-7.084-3.247-7.084c-2.504,0-4.575,0.59-6.193,1.328
	l3.832-10.768h-10.178l-0.885,2.656c1.918,0.148,3.689,0.733,2.804,3.242l-8.702,23.608h6.193l4.575-12.834
	c0.738-1.919,2.656-3.542,3.979-3.542c2.214,0,2.361,0.885,1.629,3.242l-2.656,7.231c-1.476,4.28-0.443,6.051,1.771,6.051
	c1.913,0,4.127-0.59,7.817-2.952l-1.328-1.771C489.71,214.062,487.938,214.21,488.529,212.734"/>
<path fill="#FFFFFF" d="M503.345,190.254c1.629-1.355,3.705-1.539,4.649-0.411c0.933,1.128,0.374,3.136-1.254,4.491
	c-1.634,1.355-3.711,1.539-4.649,0.411C501.152,193.617,501.716,191.608,503.345,190.254"/>
<polyline fill="#FFFFFF" points="687.838,191.197 685.624,185.884 679.578,191.197 676.774,206.983 678.988,206.983 
	687.838,191.197 "/>
<polyline fill="#FFFFFF" points="671.019,214.8 673.233,219.965 679.283,214.8 677.07,209.345 671.019,214.8 "/>
<path fill="#FFFFFF" d="M671.462,195.915h2.361l2.656-7.226h-24.636l-2.804,7.226h2.361c2.361-4.275,2.651-4.717,7.374-4.717h1.328
	l-7.669,21.246c-0.885,2.208-1.623,2.946-5.313,2.946c-2.952,0-3.837-1.476-3.837-5.603l0.148-21.246h-5.603l-16.524,23.16
	c-1.771,2.214-2.952,3.394-6.346,3.69h-7.226c-4.28-0.295-4.723-1.181-3.394-4.865l2.361-6.351h3.837
	c4.717,0,4.57,0.443,3.837,4.728h2.356l4.28-11.659h-2.361c-2.214,3.837-2.509,4.427-7.084,4.427h-3.832l2.361-6.341
	c1.328-3.542,2.799-4.132,7.079-4.132h1.476c4.723,0,4.575,0.443,3.837,4.717h2.356l2.656-7.226h-28.615l1.913,2.656
	c4.427,0.295,4.575,0.885,3.247,4.427l-5.455,14.9c-1.328,3.537-2.952,4.865-7.379,4.865l1.919,2.656h33.343l0.885-2.656
	c-3.837,0-4.132-1.328-2.514-3.537l12.692-18l-0.295,13.572h-7.674l1.918,2.509h5.756v1.618c-0.148,2.509-0.148,3.394-4.132,3.69
	l1.919,2.656h29.506l-1.919-2.656c-3.837-0.295-4.575-1.033-3.837-3.542l7.527-20.651h1.47
	C672.199,191.197,672.199,191.788,671.462,195.915"/>
<path fill="#FFFFFF" d="M587.962,202.851c4.428-0.59,6.346-3.094,7.379-6.193c1.476-4.58-0.295-7.969-8.56-7.969h-17.994
	l1.913,2.656c4.427,0.295,4.575,0.886,3.247,4.428l-5.455,14.9c-1.328,3.537-2.804,4.865-7.379,4.865l1.919,2.656h14.015
	c8.56,0,11.801-2.066,14.162-8.265C592.39,206.388,592.242,203.441,587.962,202.851 M582.507,201.818h-3.099l1.771,2.361h1.476
	c2.066,0,3.389,1.623,1.913,5.75c-1.618,4.428-3.979,5.461-6.784,5.608c-4.132-0.295-4.575-1.328-3.247-4.723l6.051-16.524
	c0.738-2.214,2.066-2.946,5.603-3.094c2.952,0.148,4.427,1.181,2.952,5.461C587.519,200.785,586.043,201.818,582.507,201.818z"/>
</svg>
