<?xml version="1.0" encoding="utf-8"?>
<!-- Generator: Adobe Illustrator 27.1.1, SVG Export Plug-In . SVG Version: 6.00 Build 0)  -->
<svg version="1.1" id="레이어_1" xmlns="http://www.w3.org/2000/svg" xmlns:xlink="http://www.w3.org/1999/xlink" x="0px"
	 y="0px" viewBox="0 0 715.645 244.735" enable-background="new 0 0 715.645 244.735" xml:space="preserve">
<path fill="#2A5AA9" d="M457.86,244.735c-7.476,0-14.957-2.2-21.993-6.449c-8.508-4.993-13.93-13.055-15.984-23.318
	c-3.521-17.157,3.814-37.102,12.023-48.093c9.236-12.463,49.56-55.139,90.177-97.805c-9.236-1.032-19.206-3.08-30.202-6.308
	c-3.081-0.88-6.161-1.32-9.388-1.32c-9.53,0-20.086,4.107-31.229,12.023c-3.814,2.787-8.068,4.254-12.17,4.254
	c-6.014,0-11.442-3.227-13.935-8.209c-2.488-5.139-1.902-11.295,1.907-16.131c2.934-3.814,22.438-27.572,40.324-41.356
	C477.511,4.254,491.881,0,508.012,0c13.197,0,26.247,2.934,36.07,8.209c7.036,3.814,14.517,4.553,19.651,4.553
	c8.943,0,14.658-2.499,15.69-3.232l0.728-0.587c4.254-3.515,8.948-5.276,13.637-5.276c6.748,0,12.615,3.814,15.109,9.975
	c2.782,6.742,1.027,14.512-4.547,20.233c-23.758,25.66-86.662,95.164-94.871,104.987c-3.374,3.961-3.081,9.97-2.2,21.265
	c0.728,9.388,1.76,21.118-0.44,35.043c-1.907,11.882-7.481,23.905-15.397,32.853C482.053,238.872,470.177,244.735,457.86,244.735"/>
<path fill="#FFFFFF" d="M457.86,235.933c-6.302,0-12.61-1.902-18.766-5.569c-6.894-4.102-11.442-10.703-13.055-19.064
	c-2.929-14.664,3.227-32.696,10.855-43.106c9.383-12.762,52.2-58.068,99.266-107.34h-1.315c-12.023,0-25.519-2.2-41.351-6.894
	c-3.667-1.022-7.334-1.614-11.148-1.614c-10.85,0-22.58,4.401-34.896,13.202c-2.787,1.902-5.715,2.929-8.508,2.929
	c-3.662,0-6.742-1.76-8.209-4.689c-1.467-2.934-1.027-6.454,1.174-9.53c2.787-3.672,21.846-26.839,39.15-40.177
	c8.948-6.9,21.998-10.708,36.808-10.708c12.17,0,24.193,2.787,32.989,7.476c8.215,4.401,16.864,5.281,22.585,5.281
	c9.383,0,17.011-2.489,19.793-4.841l0.587-0.44c3.08-2.64,6.454-3.955,9.681-3.955c4.102,0,7.769,2.347,9.236,6.009
	c1.76,4.401,0.587,9.53-3.374,13.49c-3.08,3.374-85.048,93.996-95.018,105.726c-5.281,6.161-4.547,14.517-3.667,25.953
	c0.734,9.089,1.76,20.385-0.44,33.435c-1.755,10.703-6.743,21.553-13.93,29.762C478.538,230.805,468.27,235.933,457.86,235.933"/>
<path fill="#2A5AA9" d="M587.339,15.402l-0.294,0.288h-0.147c-7.329,6.302-30.648,9.823-48.685,0.152
	c-17.299-9.241-47.653-9.682-63.93,2.782c-16.277,12.463-34.901,34.896-38.123,39.15c-3.227,4.254,1.755,7.774,7.916,3.521
	c13.49-9.676,31.528-18.038,50.733-12.317c13.197,3.961,36.368,9.383,55.579,4.982c-39.449,41.204-98.538,103.086-109.247,117.749
	c-10.116,13.637-17.886,43.111,0.592,54.254c26.393,15.691,49.413-10.85,53.227-34.896c4.689-29.186-6.454-48.245,5.276-62.028
	c10.263-12.023,95.17-105.868,95.17-105.868C601.856,16.717,595.989,8.209,587.339,15.402"/>
<polyline fill="#2A5AA9" points="321.198,218.635 312.837,218.635 320.172,198.69 328.528,198.69 321.198,218.635 "/>
<path fill="#2A5AA9" d="M212.837,190.187l-10.415,28.447h25.22c4.841,0,10.116-3.667,11.735-8.215l4.395-12.023
	c1.614-4.547-0.88-8.209-5.716-8.209H212.837 M212.397,214.234l7.182-19.646h15.544c1.027,0,1.467,0.728,1.174,1.608l-6.014,16.424
	c-0.293,0.88-1.32,1.614-2.347,1.614H212.397z"/>
<polyline fill="#2A5AA9" points="289.818,214.234 298.614,190.187 290.258,190.187 279.848,218.635 309.463,218.635 
	311.082,214.234 289.818,214.234 "/>
<path fill="#2A5AA9" d="M277.941,190.187h-18.918c-4.835,0-10.116,3.662-11.73,8.209l-4.401,12.023
	c-1.614,4.547,0.88,8.215,5.721,8.215h18.918c4.836,0,10.116-3.667,11.73-8.215l4.396-12.023
	C285.417,193.849,282.782,190.187,277.941,190.187 M270.313,212.62c-0.293,0.88-1.32,1.614-2.342,1.614h-16.277
	c-1.027,0-1.467-0.733-1.174-1.614l6.009-16.424c0.293-0.88,1.32-1.608,2.347-1.608h16.277c1.027,0,1.467,0.728,1.173,1.608
	L270.313,212.62z"/>
<path fill="#2A5AA9" d="M330.728,192.535c-0.88,2.342-3.374,4.102-5.716,4.102c-2.352,0-3.521-1.907-2.64-4.102
	c0.88-2.347,3.368-4.107,5.715-4.107S331.608,190.334,330.728,192.535"/>
<polyline fill="#2A5AA9" points="401.846,190.187 397.445,202.211 377.653,202.211 382.048,190.187 373.692,190.187 
	363.429,218.635 371.785,218.635 376.039,206.611 395.832,206.611 391.583,218.635 399.792,218.635 410.202,190.187 
	401.846,190.187 "/>
<polyline fill="#2A5AA9" points="207.703,194.588 209.317,190.187 194.506,190.187 192.893,194.588 196.12,194.588 189.079,214.234 
	185.705,214.234 184.091,218.635 199.048,218.635 200.662,214.234 197.288,214.234 204.476,194.588 207.703,194.588 "/>
<path fill="#2A5AA9" d="M358.148,201.477h-17.152c-1.467,0-2.2-1.173-1.32-3.369c0.88-2.2,2.342-3.379,3.809-3.379h25.225
	l1.608-4.395h-27.127c-4.694,0-9.97,3.814-11.73,8.655c-1.76,4.689,0.734,8.649,5.428,8.649h17.152c1.467,0,2.2,1.174,1.32,3.369
	c-0.88,2.2-2.347,3.374-3.809,3.374h-25.225l-1.608,4.401h27.127c4.689,0,9.97-3.814,11.73-8.655
	C365.331,205.291,362.842,201.477,358.148,201.477"/>
<path fill="#2A5AA9" d="M713.885,69.651c-0.587-5.129-4.694-9.089-10.41-9.97c-0.733-0.147-1.467-0.147-2.2-0.147
	c-4.689,0-9.236,2.2-11.73,5.868c-10.996,15.539-22.145,28.594-32.995,39.15c3.374-4.107,3.814-9.53,0.734-13.637
	c-5.129-6.894-11.437-12.903-18.184-17.451c0-0.587,0-1.174,0-1.755l-1.462-13.202c-0.587-4.841-4.254-8.649-9.388-9.823
	c-3.374-0.739-7.188-0.147-10.263,1.462c-1.174-0.728-2.494-1.168-3.814-1.462c-4.836-1.027-10.263,0.582-13.637,4.102
	l-12.61,13.202c-2.347,2.488-3.521,5.721-3.374,8.796h-29.474c-2.347,0-4.841,0.587-6.889,1.755c-2.494-0.88-5.281-0.88-7.775-0.288
	l-14.077,3.227c1.76-4.401,0.587-9.241-3.075-12.322c-2.347-2.048-5.428-3.075-8.801-3.075c-1.613,0-3.08,0.288-4.542,0.728
	l-13.789,4.401c-3.809,1.179-6.889,3.961-8.356,7.329l-5.427,12.909l-6.009,1.32c-3.227,0.733-6.161,2.494-8.068,4.982h-15.397
	c0.44-0.728,1.027-1.467,1.467-2.195c1.472-2.352,1.76-5.134,1.76-6.601s-0.44-4.841-0.587-5.574
	c-0.581-5.129-4.689-9.089-10.41-9.97c-0.734-0.141-1.467-0.141-2.2-0.141c-4.689,0-9.236,2.195-11.73,5.862
	c-3.955,5.721-8.063,11.143-12.023,16.131c0.44-1.467,0.734-3.08,0.44-4.694c-0.293-2.934-1.907-5.574-4.401-7.476
	c-7.476-5.721-15.984-10.263-23.167-12.762c-1.467-0.44-2.934-0.733-4.547-0.733c-4.689,0-9.236,2.2-11.73,5.868l-2.787,3.955
	c-2.494,3.521-2.787,7.921-0.734,11.588c-4.982-0.587-10.263,1.467-13.343,5.276l-0.293,0.44l-7.334-2.342
	c-1.168-0.44-2.488-0.587-3.809-0.587l-0.587-0.592c-3.374-3.075-8.801-4.249-13.637-2.635l-9.383,2.934
	c-1.619-0.299-3.374-0.299-4.987-0.147l4.689-11.295c1.907-4.401,0.739-9.383-2.928-12.463c-2.347-2.048-5.428-3.075-8.801-3.075
	c-1.467,0-3.075,0.288-4.542,0.728l-13.642,4.259c-1.168,0.288-2.195,0.88-3.075,1.462c-0.587-1.174-1.467-2.342-2.64-3.222
	c-2.347-2.059-5.422-3.08-8.801-3.08c-1.608,0-3.075,0.293-4.542,0.733l-3.521,1.168l-0.733-7.036
	c-0.587-4.835-4.249-8.649-9.383-9.828c-3.374-0.728-7.183-0.141-10.263,1.472c-1.174-0.734-2.494-1.174-3.814-1.472
	c-1.027-0.288-2.054-0.288-3.08-0.288c-3.955,0-7.916,1.608-10.556,4.401L222.66,64.81c-1.467,0-2.787,0.299-4.107,0.739
	l-13.637,4.401c-1.467,0.44-2.934,1.168-4.107,2.048l-6.302-4.689c-2.2-1.619-5.134-2.64-8.068-2.64c-0.587,0-1.173,0-1.755,0.141
	c-3.521,0.44-6.894,2.2-9.095,4.699c-5.134,5.862-12.023,12.311-19.939,18.472l0.44-1.027c0-0.147,0-0.147,2.782-6.894
	c1.467-3.662,0.88-7.769-1.467-10.85c-2.347-2.934-6.156-4.689-10.263-4.689H43.034c-4.259,0-7.481,1.755-8.948,4.835
	c-1.32,2.934-0.733,6.742,1.76,10.122l3.809,5.276c3.667,5.134,10.415,8.649,16.424,8.649h21.705
	c-0.733,0.88-1.467,1.907-1.907,3.08l-13.49,31.821c-9.53,22.286-32.701,45.458-53.961,53.667c-5.574,2.2-8.943,7.335-8.361,12.463
	l0.293,2.64c0.44,3.521,2.494,6.601,5.721,8.361c2.054,1.174,4.401,1.76,6.889,1.76c1.174,0,2.494-0.147,3.667-0.44
	c36.222-8.948,70.971-43.844,82.554-70.971l1.472-3.374c0.728,3.075,2.928,5.716,6.009,7.329c3.227,1.619,7.476,1.907,11.143,0.739
	c2.787-0.88,5.427-1.912,8.209-2.939l-11.436,26.839c-1.907,4.395-0.728,9.383,2.934,12.463c2.347,2.054,5.427,3.08,8.796,3.08
	c1.467,0,3.081-0.299,4.547-0.739l13.637-4.249c3.814-1.174,7.041-3.961,8.508-7.334c17.157-40.324,21.553-50.88,22.726-53.667
	c2.64-1.608,5.134-3.08,7.476-4.689l-23.46,55.276c-1.907,4.401-0.733,9.388,3.08,12.615c2.347,1.907,5.422,3.08,8.796,3.08
	c1.614,0,3.227-0.293,4.694-0.733l13.637-4.401c3.814-1.32,6.889-3.961,8.361-7.329l13.925-32.995c1.174,2.2,2.2,4.249,2.934,6.449
	c1.614,3.961,5.427,6.742,10.263,7.334c4.401,0.587,9.241-1.174,12.317-4.254l2.64-2.787c2.64,0.733,5.428,0.587,8.068-0.141
	l4.841-1.472c-6.454,6.894-13.637,11.882-22.145,15.104c-5.569,2.2-8.943,7.329-8.361,12.463l0.299,2.64
	c0.44,3.521,2.494,6.601,5.716,8.361c3.08,1.76,6.894,2.2,10.415,1.32c23.46-5.868,43.399-20.238,57.916-41.796
	c1.027,0.88,2.2,1.619,3.521,2.2c2.054,0.88,4.254,1.179,6.601,1.027c-6.454,6.302-13.49,10.703-21.558,13.783
	c-5.569,2.054-9.089,7.329-8.503,12.61l0.293,2.64c0.44,3.521,2.64,6.742,6.009,8.503c3.08,1.76,7.188,2.059,10.855,1.032
	c15.539-4.553,29.034-11.442,40.91-21.265l1.32,11.73c0.293,3.227,2.2,6.161,5.129,8.063c2.2,1.32,4.694,2.2,7.481,2.2
	c0.733,0,1.467,0,2.2-0.141c15.544-2.2,30.061-8.361,44.426-18.331c1.32,5.129,6.308,8.801,12.322,8.801h53.227l0.587,0.728
	c2.64,3.662,7.916,8.215,18.037,8.943c2.2,0.152,4.396,0.152,6.596,0.152c9.681,0,21.558-0.88,28.887-1.614
	c0.88-0.147,1.76-0.299,2.64-0.587l0.44,0.288c3.075,1.76,6.889,2.2,10.41,1.32c20.379-4.841,38.27-14.072,54.107-27.855
	c-0.88,1.76-1.173,3.809-0.88,5.716l1.32,12.469c0.293,3.222,2.2,6.15,5.134,8.063c2.2,1.32,4.689,2.2,7.476,2.2
	c0.733,0,1.467,0,2.2-0.152c36.662-5.422,81.973-43.546,115.549-97.213c1.174-1.76,1.76-3.961,1.76-6.601
	C714.471,73.612,714.031,70.39,713.885,69.651 M593.788,143.263c-1.608,0.147-3.075,0.44-4.542,1.027
	c10.116-10.122,19.358-22.291,27.714-36.657c0.147,2.195,0.147,4.395,0.147,6.742c-0.147,5.134,3.374,9.53,8.796,11.143
	c1.32,0.299,2.494,0.587,3.814,0.587l1.467-0.147C615.2,137.248,601.71,142.676,593.788,143.263z M576.196,104.553
	c-12.903,19.793-28.154,34.896-44.578,43.991c-0.587-1.472-1.467-2.934-2.64-4.107c-2.347-2.347-5.716-3.667-9.383-3.667
	c-1.027,0-1.907,0.152-2.787,0.293c-4.689,0.88-9.823,1.614-14.664,2.054c-0.147-0.587,0.293-2.195,0.44-2.934l0.734,0.147
	c3.814,0.733,8.063-0.147,11.29-2.489c13.343-9.535,24.345-19.944,37.39-33.587c0.734,0.152,1.614,0.152,2.352,0.152h21.846V104.553
	z M368.118,137.107c-6.596,3.222-13.197,5.129-19.352,5.862c4.547-5.281,8.796-11.29,12.903-17.744
	c0.293,1.174,0.44,2.352,0.587,3.521C362.696,132.413,364.896,135.347,368.118,137.107z M428.093,129.186l-6.449,12.615h-4.987
	C420.47,137.982,424.279,133.728,428.093,129.186z M242.746,98.103l-4.107,9.823c-4.249-3.521-8.356-6.601-12.605-9.095l0.581-1.168
	l1.173,0.288c3.374,0.733,7.188,0.152,10.268-1.467c1.174,0.739,2.494,1.179,3.809,1.467L242.746,98.103z"/>
<path fill="#FFFFFF" d="M614.32,93.263l2.64-6.014l0.147-0.147c3.075,6.161,4.694,15.397,4.396,25.513
	c0,2.347,1.619,4.547,4.254,5.281c0.587,0.147,1.32,0.293,2.054,0.293c2.054,0,4.107-0.733,5.428-2.2l15.837-16.565
	c1.902-1.912,2.2-4.699,0.581-6.748c-5.422-7.188-12.018-13.344-19.352-17.597l-1.174-0.587c0.88-1.174,1.32-2.494,1.174-3.814
	l-1.467-13.197c-0.293-2.2-2.054-4.102-4.547-4.694c-0.587-0.141-1.027-0.141-1.608-0.141c-2.059,0-4.107,0.875-5.427,2.195
	l-2.494,2.494c-0.293-2.195-2.054-4.107-4.547-4.547c-0.587-0.141-1.027-0.141-1.608-0.141c-2.059,0-4.107,0.875-5.428,2.195
	l-12.61,13.197c-1.174,1.174-1.76,2.792-1.614,4.401l0.734,6.601h-36.955c-1.902,0-3.809,0.734-5.129,1.902l-1.027,1.32
	c-0.44-0.587-1.027-1.022-1.614-1.462c-1.027-0.587-2.347-0.88-3.521-0.88c-0.587,0-1.168,0-1.76,0.141l-26.247,5.868l4.547-10.556
	c0.88-2.054,0.293-4.401-1.467-5.862c-1.174-1.032-2.787-1.472-4.395-1.472c-0.739,0-1.619,0.152-2.352,0.44l-13.784,4.401
	c-1.902,0.587-3.515,2.054-4.249,3.662l-6.748,15.842l-9.53,2.2c-2.2,0.44-4.107,1.902-4.987,3.809l-1.022,2.2
	c-1.032-0.587-2.352-1.027-3.672-1.027h-26.834c2.494-3.662,4.987-7.481,7.334-11.29c0.587-1.027,0.734-2.2,0.734-3.227
	c0-1.174-0.44-5.129-0.44-5.129c-0.293-2.499-2.347-4.401-5.134-4.841l-1.174-0.147c-2.347,0-4.689,1.168-6.009,2.929
	c-38.569,54.846-69.798,68.189-89.302,69.651c-1.907,0.152-3.521,0.88-4.835,2.2c-1.179,1.179-1.76,2.787-1.619,4.401l1.32,12.463
	c0.147,1.467,1.027,2.939,2.494,3.819c1.027,0.728,2.494,1.022,3.814,1.022l1.174-0.147c28.447-4.107,55.281-23.02,81.381-57.334
	c1.173,1.027,2.64,1.614,4.547,1.614h6.156l-15.685,30.647H405.66c-1.907,0-3.814,0.734-5.134,1.907
	c-1.32,1.168-2.054,2.928-1.902,4.547l0.288,3.955c0.293,2.787,2.934,4.987,6.308,4.987h53.521c1.174,0,2.494-0.293,3.521-0.88
	c0.44,1.608,1.173,2.928,2.054,4.249c1.902,2.64,5.715,5.873,13.343,6.308c1.907,0.147,3.955,0.147,6.156,0.147
	c9.388,0,21.118-0.88,28.154-1.614c1.907-0.147,3.667-1.027,4.841-2.347c0.44,1.179,1.32,2.347,2.494,2.939
	c1.027,0.582,2.2,0.875,3.521,0.875c0.581,0,1.173,0,1.902-0.147c37.982-9.089,67.309-34.456,89.889-77.279L614.32,93.263
	 M466.656,135.048c-1.902,4.401-3.222,8.361-4.102,11.735c-1.027-0.587-2.2-1.027-3.667-1.027h-7.329l18.472-36.07
	c1.173,0.728,2.494,1.168,3.961,1.168c0.587,0,1.027,0,1.614-0.147l1.467-0.293L466.656,135.048z M521.942,146.637
	c-1.174-1.174-2.934-1.76-4.694-1.76l-1.467,0.147c-8.649,1.614-18.331,2.64-25.953,2.64c-0.587,0-1.174,0-1.76,0
	c0.147-1.32,0.733-3.961,2.64-8.655l14.664-34.456l7.476-1.614c-4.102,6.596-9.089,13.197-14.224,19.059
	c-1.462,1.619-1.76,3.819-1.022,5.579l0.728,1.608c0.734,1.614,2.347,2.787,4.401,3.227c0.44,0.147,0.88,0.147,1.467,0.147
	c1.614,0,3.227-0.44,4.401-1.467c13.344-9.535,24.487-20.238,38.123-34.461c0.587-0.587,1.027-1.168,1.173-1.907
	c1.174,1.027,2.782,1.619,4.542,1.619h32.701c-17.451,30.354-39.444,51.32-64.37,60.85l2.195-5.134
	C523.996,150.304,523.556,148.104,521.942,146.637z"/>
<path fill="#FFFFFF" d="M366.51,125.959c0.293,2.347,2.2,4.107,4.835,4.694l1.32,0.147c2.2,0,4.401-1.027,5.721-2.64l30.794-37.243
	c2.048-2.494,1.608-5.574-0.734-7.481c-7.041-5.276-14.81-9.53-21.411-11.725c-0.734-0.299-1.614-0.44-2.347-0.44
	c-2.342,0-4.689,1.022-6.009,2.929l-2.787,3.961c-1.467,2.054-1.32,4.542,0.293,6.302c3.374,3.961,5.862,8.801,7.329,14.37
	c-4.542-2.929-9.383-4.987-14.224-6.156c-0.581-0.152-1.174-0.152-1.76-0.152c-2.342,0-4.542,1.032-5.862,2.787l-2.787,3.521
	l-0.44,0.733l-0.44-0.141l-11.73-3.672c-0.734-0.288-1.467-0.288-2.2-0.288c-1.027,0-2.2,0.288-3.075,0.582
	c-0.152-1.174-0.739-2.2-1.619-2.929c-1.168-1.174-2.928-1.76-4.542-1.76c-0.733,0-1.613,0.147-2.347,0.44l-11.436,3.667
	c-0.88-0.44-1.907-0.592-2.934-0.592c-0.733,0-1.613,0.152-2.347,0.293l-10.703,3.379l9.823-23.025
	c0.88-2.054,0.293-4.401-1.467-5.868c-1.173-1.022-2.782-1.614-4.401-1.614c-0.728,0-1.608,0.152-2.342,0.293l-13.637,4.254
	c-2.054,0.587-3.521,2.054-4.254,3.667l-12.903,30.354c-11.73,27.714-25.807,43.546-45.605,51.173
	c-2.787,1.027-4.542,3.521-4.249,6.014l0.288,2.64c0.152,1.608,1.174,3.08,2.787,3.961c1.027,0.581,2.2,0.875,3.521,0.875
	c0.587,0,1.32-0.147,1.907-0.293c26.54-6.596,47.805-24.633,61.882-52.64c0,3.08,0.147,6.161,0.587,9.241
	c0.288,1.755,1.608,3.222,3.369,3.955c0.88,0.293,1.76,0.587,2.787,0.587c1.027,0,2.2-0.293,3.227-0.733l3.814-1.76
	c1.902-0.88,3.222-2.347,3.662-4.107l0.293-1.32c0.587,0.739,1.32,1.32,2.2,1.76c0.88,0.44,2.054,0.739,3.081,0.739
	c0.88,0,1.76-0.152,2.494-0.44c-11.29,16.419-22.732,25.802-37.249,31.229c-2.782,1.027-4.542,3.521-4.254,6.156l0.298,2.64
	c0.142,1.614,1.174,3.08,2.929,3.961c1.027,0.592,2.2,0.88,3.374,0.88c0.734,0,1.467-0.147,2.2-0.288
	c31.088-8.953,53.814-28.892,71.558-62.762C363.723,113.349,365.771,119.358,366.51,125.959"/>
<path fill="#FFFFFF" d="M229.549,137.4l6.308-6.601l0.587,0.587c1.174,1.027,2.787,1.614,4.395,1.614
	c0.733,0,1.614-0.147,2.347-0.293l13.637-4.254c2.054-0.587,3.521-2.054,4.254-3.667l20.971-49.56
	c0.88-2.054,0.293-4.395-1.467-5.868c-1.174-1.027-2.787-1.608-4.401-1.608c-0.733,0-1.614,0.141-2.347,0.288l-11.436,3.672v-1.32
	l-1.467-13.202c-0.293-2.2-2.054-4.102-4.547-4.689c-0.587-0.152-1.027-0.152-1.614-0.152c-2.054,0-4.102,0.88-5.422,2.2
	l-2.494,2.494c-0.293-2.2-2.054-4.102-4.547-4.542c-0.587-0.152-1.027-0.152-1.614-0.152c-2.054,0-4.102,0.88-5.422,2.2
	l-12.61,13.202l-0.293,0.288c-0.733-0.288-1.467-0.288-2.347-0.288c-0.733,0-1.614,0.141-2.347,0.44l-13.637,4.395
	c-1.907,0.587-3.521,2.054-4.254,3.667l-0.733,1.907c-0.288-0.587-0.88-1.027-1.32-1.467l-10.263-7.623
	c-1.174-0.88-2.64-1.32-4.102-1.32h-0.88c-1.907,0.288-3.521,1.168-4.694,2.489c-15.691,18.037-45.898,39.155-70.091,48.978
	c-2.64,1.022-4.401,3.521-4.107,6.009l0.293,2.2c0.147,1.76,1.32,3.227,2.934,4.107c1.027,0.44,2.054,0.733,3.227,0.733
	c0.875,0,1.614-0.147,2.494-0.44c7.476-2.494,14.805-5.281,22.14-8.361l-17.011,40.177c-0.88,2.054-0.293,4.401,1.467,5.873
	c1.174,1.022,2.787,1.608,4.401,1.608c0.733,0,1.608-0.147,2.342-0.288l13.637-4.259c2.059-0.581,3.521-2.054,4.254-3.662
	l23.166-54.547l0.299-1.032c10.85-6.449,20.379-13.191,28.007-19.793l-32.408,76.399c-0.88,2.054-0.293,4.395,1.467,5.862
	c1.174,1.032,2.787,1.467,4.395,1.467c0.88,0,1.614-0.147,2.494-0.435l13.637-4.401c1.907-0.592,3.521-2.054,4.254-3.672
	l18.918-44.719c4.401,5.862,7.916,11.877,10.263,18.184c0.733,1.902,2.64,3.222,4.982,3.515h0.88
	C226.175,139.601,228.229,138.721,229.549,137.4 M222.514,83.733l0.147,1.608c0.293,2.2,2.054,4.107,4.542,4.694
	c0.587,0.147,1.027,0.147,1.614,0.147c2.054,0,4.107-0.88,5.428-2.2l2.494-2.494c0.293,2.2,2.054,4.107,4.542,4.547
	c0.587,0.147,1.027,0.147,1.614,0.147c2.054,0,4.107-0.88,5.427-2.2l4.836-4.987l-14.365,33.875
	c-8.068-7.775-15.69-13.49-23.172-17.157L222.514,83.733z"/>
<path fill="#FFFFFF" d="M705.675,73.612c0-1.32-0.294-3.662-0.44-5.134c-0.44-2.64-2.347-4.395-5.134-4.836l-1.174-0.152
	c-2.342,0-4.689,1.179-6.009,2.939c-38.569,54.841-81.533,79.327-101.032,80.794c-1.907,0.147-3.521,0.88-4.841,2.2
	c-1.174,1.168-1.76,2.787-1.614,4.395l1.32,12.463c0.147,1.472,1.027,2.934,2.494,3.814c1.027,0.739,2.494,1.027,3.814,1.027
	l1.168-0.147c34.901-5.134,79.039-43.399,110.713-94.138C705.529,75.959,705.675,74.932,705.675,73.612"/>
<path fill="#FFFFFF" d="M147.142,81.821l2.787-6.742c0.733-1.76,0.44-3.521-0.733-4.987c-1.174-1.462-3.081-2.342-5.134-2.342
	H40.394c-1.907,0-3.374,0.728-3.961,2.048c-0.587,1.32-0.293,2.934,1.027,4.547l3.814,5.275c2.048,2.792,5.862,4.841,9.236,4.841
	h68.037c-3.374,6.454-9.236,11.882-15.544,16.131l2.494-5.868c0.88-2.048,0.293-4.395-1.467-5.862
	c-1.174-1.027-2.787-1.614-4.401-1.614c-0.728,0-1.608,0.147-2.347,0.293l-13.778,4.401c-2.054,0.582-3.521,2.054-4.254,3.662
	l-13.49,31.821c-10.121,23.758-34.901,48.392-57.774,57.188c-2.787,1.027-4.547,3.521-4.254,6.014l0.293,2.64
	c0.147,1.608,1.174,3.08,2.787,3.961c1.027,0.581,2.2,0.88,3.521,0.88c0.587,0,1.32-0.152,1.907-0.299
	c34.163-8.503,67.011-41.497,77.86-67.157l4.401-10.415c0.587,0.152,1.174,0.299,1.902,0.299c0.88,0,1.907-0.147,2.787-0.44
	C117.521,113.207,137.759,103.232,147.142,81.821"/>
<path fill="#F3961A" d="M355.508,104.553l-11.73-3.667c-5.281,10.703-10.41,19.793-15.69,27.42h12.469
	C345.978,121.417,350.966,113.642,355.508,104.553"/>
<polyline fill="#F3961A" points="465.341,105.134 433.227,105.134 433.52,109.535 449.211,109.535 439.676,128.306 453.459,128.306 
	465.341,105.134 "/>
<path fill="#F3961A" d="M500.531,99.712l24.486-5.281c-5.569,10.855-13.05,21.558-21.113,30.794l0.734,1.614
	c12.903-9.089,23.753-19.646,37.097-33.576l-0.88-7.775l-37.977,8.356c4.841-11.29,8.649-20.379,8.649-20.379l-13.784,4.395
	c0,0-3.515,8.508-8.063,18.923l-13.197,2.928l-2.347,5.422l13.05-2.782c-3.961,9.236-8.063,19.064-10.996,25.807h11.877
	C491.588,120.678,496.13,109.828,500.531,99.712"/>
<path fill="#F3961A" d="M608.017,91.502l2.929-7.041H552.15l0.581,6.161h42.676c-7.334,14.224-15.837,26.834-25.225,37.537h12.903
	C592.327,118.043,600.536,105.873,608.017,91.502"/>
<path fill="#F3961A" d="M628.103,112.175l15.837-16.571c-5.134-6.889-11.436-12.463-17.597-16.125l-3.662,3.814
	C626.196,89.596,628.396,99.712,628.103,112.175"/>
<path fill="#F3961A" d="M386.596,108.806c-6.009-5.427-12.757-9.095-19.352-10.703l-2.787,3.515
	c4.102,5.868,7.476,13.637,8.649,23.46L386.596,108.806"/>
<path fill="#F3961A" d="M403.9,87.689c-6.156-4.694-13.344-8.796-19.504-10.85l-2.787,3.961c4.547,5.276,8.215,12.463,9.681,22.14
	L403.9,87.689"/>
<polyline fill="#F3961A" points="608.164,58.068 595.549,71.27 597.015,84.461 609.625,71.27 608.164,58.068 "/>
<polyline fill="#F3961A" points="623.702,71.27 622.241,58.068 609.625,71.27 611.092,84.461 623.702,71.27 "/>
<path fill="#F3961A" d="M206.09,105.726c4.694,4.982,11.143,12.61,15.984,22.433h7.916l5.574-5.862
	c-9.089-9.089-18.331-16.131-28.007-19.944l12.317-29.034l-13.637,4.401l-21.411,50.44h11.735L206.09,105.726"/>
<polyline fill="#F3961A" points="241.866,71.27 240.399,58.068 227.789,71.27 229.256,84.461 241.866,71.27 "/>
<polyline fill="#F3961A" points="255.943,71.27 254.476,58.068 241.866,71.27 243.333,84.461 255.943,71.27 "/>
<path fill="#F3961A" d="M699.074,74.492l-0.44-5.134c-13.05,18.624-33.283,41.649-54.987,58.948h12.463
	C673.121,111.588,688.225,91.796,699.074,74.492"/>
<path fill="#F3961A" d="M440.415,85.488l-0.44-5.129c-11.735,16.712-26.252,34.163-42.383,47.946h11.002
	C420.47,115.402,431.026,100.592,440.415,85.488"/>
<path fill="#F3961A" d="M127.344,78.741c-3.222,15.104-18.326,25.954-30.789,32.408l0.288,3.814
	c16.277-6.009,35.488-14.957,44.138-34.75l2.64-6.601H43.616l3.814,5.281h79.914V78.741"/>
<polyline fill="#F3961A" points="99.043,93.116 85.406,97.365 72.356,128.306 84.233,128.306 99.043,93.116 "/>
<path fill="#F3961A" d="M294.066,108.073l14.669-34.608l-13.637,4.254l-12.909,30.354c-3.08,7.329-6.449,14.077-10.263,20.086
	h11.295C287.764,121.71,291.284,114.816,294.066,108.073"/>
<polyline fill="#F3961A" points="255.068,123.03 276.034,73.465 262.25,77.86 241.431,127.279 255.068,123.03 "/>
<path fill="#F3961A" d="M303.601,126.399l3.814-1.76c1.608-6.742,5.129-14.952,10.556-24.487l-13.49,4.254
	C303.161,112.767,302.427,119.656,303.601,126.399"/>
<path fill="#F3961A" d="M323.692,119.656c2.787-7.329,6.156-13.642,10.996-22.873l-13.05,4.102
	c-1.613,8.209-2.347,13.197-1.613,20.091L323.692,119.656"/>
<path fill="#F3961A" d="M160.632,106.454h-3.961c14.376-7.769,26.98-16.565,36.515-25.361l-10.263-7.628
	c-17.157,19.798-48.538,41.057-72.731,50.733l0.293,2.2c12.17-4.102,24.487-9.089,36.07-14.81l-7.041,16.717h11.735L160.632,106.454
	"/>
<path fill="#EC6538" d="M340.844,128.306h-12.463c-4.689,6.894-9.383,12.615-14.37,17.451h10.562
	C330.141,140.921,335.569,135.048,340.844,128.306"/>
<polyline fill="#EC6538" points="439.676,128.306 430.733,145.756 444.517,145.756 453.459,128.306 439.676,128.306 "/>
<path fill="#EC6538" d="M488.361,128.306h-11.877c-2.2,5.134-3.521,8.361-3.667,8.503c-1.32,3.081-2.488,6.161-3.227,8.948h12.175
	c0.44-2.494,1.462-5.427,2.782-8.508C484.987,136.08,486.454,132.853,488.361,128.306"/>
<path fill="#EC6538" d="M583.232,128.306h-12.903c-5.716,6.601-11.73,12.463-18.179,17.451h12.317
	C570.915,140.769,577.223,134.907,583.232,128.306"/>
<path fill="#F3961A" d="M224.562,133.88l5.427-5.574h-7.916C222.954,130.066,223.834,131.973,224.562,133.88"/>
<polyline fill="#EC6538" points="184.825,128.306 177.349,145.756 189.226,145.756 196.56,128.306 184.825,128.306 "/>
<path fill="#EC6538" d="M643.5,128.306c-8.943,7.041-18.038,13.055-27.127,17.451h19.206c7.041-5.134,13.789-11.148,20.385-17.451
	H643.5"/>
<path fill="#EC6538" d="M408.594,128.306h-11.002c-8.356,7.041-17.304,13.055-26.394,17.451h18.624
	C396.272,140.622,402.579,134.76,408.594,128.306"/>
<path fill="#EC6538" d="M84.233,128.306H72.356l-0.44,0.88c-2.347,5.721-5.569,11.295-9.089,16.571h11.436
	c4.107-5.716,7.334-11.436,9.53-16.571L84.233,128.306"/>
<path fill="#EC6538" d="M283.369,128.306h-11.295c-3.961,6.601-8.356,12.463-13.343,17.451h10.263
	C274.42,140.481,279.261,134.467,283.369,128.306"/>
<polyline fill="#EC6538" points="139.66,128.306 132.185,145.756 143.914,145.756 151.396,128.306 139.66,128.306 "/>
<path fill="#E83C19" d="M287.177,162.762l0.293,2.64c13.197-3.809,25.513-9.97,36.95-19.646h-10.556
	C305.948,153.531,297.299,159.1,287.177,162.762"/>
<polyline fill="#E83C19" points="427.799,151.624 405.073,151.624 405.513,155.731 458.887,155.731 458.447,151.624 
	441.583,151.624 444.517,145.756 430.733,145.756 427.799,151.624 "/>
<path fill="#E83C19" d="M478.391,165.402c1.76,0.152,3.515,0.152,5.574,0.152c9.089,0,20.379-0.88,27.274-1.614l5.716-13.349
	c-8.796,1.76-19.064,2.787-27.42,2.787c-1.467,0-2.934,0-4.254-0.147c-3.515-0.293-4.254-3.222-3.515-7.476H469.59
	C466.368,156.606,467.39,164.674,478.391,165.402"/>
<path fill="#E83C19" d="M522.524,162.762l0.298,2.64c15.25-3.662,29.034-10.111,41.492-19.646h-12.317
	C542.908,153.091,532.939,158.953,522.524,162.762"/>
<polyline fill="#E83C19" points="169.134,165.402 182.771,161.007 189.226,145.756 177.349,145.756 169.134,165.402 "/>
<path fill="#E83C19" d="M592.028,152.939l1.32,12.463c14.077-2.048,28.452-9.383,42.231-19.646h-19.206
	C608.164,149.864,599.949,152.352,592.028,152.939"/>
<path fill="#E83C19" d="M345.098,152.939l1.32,12.463c15.69-2.342,30.061-9.53,43.111-19.646h-18.624
	C362.696,149.712,354.041,152.352,345.098,152.939"/>
<path fill="#E83C19" d="M10.333,189.894l0.288,2.64c25.519-6.308,49.565-26.98,63.642-46.778H62.827
	C49.337,165.842,28.806,182.706,10.333,189.894"/>
<path fill="#E83C19" d="M232.776,162.762l0.293,2.64c14.664-3.662,26.394-10.85,35.782-19.646h-10.268
	C251.395,153.232,242.893,158.953,232.776,162.762"/>
<polyline fill="#E83C19" points="123.975,165.261 137.465,161.007 143.914,145.756 132.185,145.756 123.975,165.261 "/>
<path fill="#2A5AA9" d="M688.958,191.214l-4.107-10.85c-0.733-1.619-2.782-1.619-3.814-0.739l-4.249,3.961c0,0-27.572,0-29.181,0
	c-1.614,0-3.08,1.614-3.08,1.614l-0.44-0.733c-0.44-0.582-1.027-0.88-1.76-0.88h-8.063c-1.467,0-2.934,0.733-3.814,1.907
	l-0.733-1.027c-0.44-0.582-1.027-0.88-1.76-0.88h-65.984c-1.76,0-2.787,2.054-1.76,3.521l5.862,8.063l-4.689,12.762
	c-0.734,2.048-0.88,2.347-3.667,2.347h-3.374c-1.755,0-2.787,2.048-1.755,3.515l5.716,7.916c0.44,0.592,1.027,0.88,1.76,0.88h14.81
	c5.134,0,8.943-0.728,11.73-2.64l1.174,1.76c0.44,0.592,1.027,0.88,1.76,0.88h35.336c0.88,0,1.76-0.587,2.054-1.462l0.734-2.054
	l1.907,2.635c0.44,0.592,1.027,0.88,1.76,0.88h34.315l1.755,2.494c0.733,1.027,2.2,1.179,3.227,0.44l9.383-7.916
	c0.739-0.587,1.027-1.614,0.592-2.494l-1.76-4.254l9.97-17.744C689.251,192.535,689.251,191.796,688.958,191.214 M668.427,206.758
	l-6.302,5.716l-1.32-1.907l3.667-9.97h3.955l0.88,1.32L668.427,206.758z"/>
<path fill="#2A5AA9" d="M556.105,184.467c-0.44-0.582-1.027-0.88-1.76-0.88h-15.832c-0.88,0-1.76,0.587-2.054,1.467l-2.934,8.215
	c-1.76,0.288-3.227,1.022-4.841,1.902c-0.44-0.582-0.88-1.022-1.467-1.32c-1.174-0.582-2.64-0.875-4.395-0.875
	c-2.494,0-4.547,0.44-6.161,1.022c-1.027-0.582-2.2-1.022-3.521-1.022c-0.88,0-1.76,0.141-2.64,0.293c0.44-1.76,0-3.521-0.88-4.841
	l-1.315-1.907c-1.174-1.614-2.934-2.494-5.134-2.494c-3.374,0-6.748,2.347-8.068,5.721c-0.435,1.027-0.582,2.2-0.435,3.227h-2.787
	c-0.587,0-1.173,0.44-1.467,1.022l-0.147,0.592c-1.173-0.88-2.494-1.174-3.667-1.32l1.173-3.227
	c0.293-0.733,0.147-1.467-0.293-2.054l-2.347-3.374c-0.44-0.587-1.027-0.88-1.76-0.88h-40.03c-0.88,0-1.76,0.587-2.049,1.467
	l-3.379,9.388c-0.288,0.728-0.141,1.462,0.299,2.048l2.342,3.227c0.44,0.587,1.027,0.88,1.76,0.88h2.494l-2.64,7.476
	c-0.734,2.059-0.875,2.347-3.667,2.347h-3.222c-1.76,0-2.787,2.054-1.76,3.521l5.716,7.916c0.44,0.587,1.027,0.88,1.76,0.88h18.624
	c0.88,0,1.76-0.581,2.054-1.462l0.734-2.054l1.907,2.635c0.44,0.587,1.027,0.88,1.76,0.88h8.209c0.88,0,1.76-0.581,2.054-1.462
	l0.44-1.32l0.293,0.44c1.174,1.608,3.081,2.488,5.134,2.488c2.488,0,4.836-0.728,7.769-2.342c1.173,1.462,2.934,2.342,4.987,2.342
	c2.048,0,4.102-0.587,6.596-1.608l0.293,0.44c0.44,0.581,1.027,0.88,1.76,0.88h8.209c0.88,0,1.76-0.592,2.054-1.472l4.547-12.311
	l0.734,0.44c-0.734,4.102,0.147,6.742,1.32,8.209l1.32,1.902c1.168,1.619,3.521,3.672,7.916,3.672c1.907,0,3.521-0.299,4.987-0.739
	c0.88,0.44,1.902,0.739,2.934,0.739c3.081,0,5.862-1.032,9.823-3.521l1.614-1.027c1.027-0.733,1.32-2.054,0.587-3.081l-2.934-3.955
	l8.943-24.639C556.692,185.787,556.545,185.053,556.105,184.467 M461.821,216.288l-3.961-5.569l3.667-10.122h6.161L461.821,216.288z
	"/>
<path fill="#FFFFFF" d="M498.483,211.447l5.275-14.517h-9.97l-0.88,2.64c1.902,0.147,3.662,0.733,2.782,3.227l-3.075,8.361
	c-1.467,4.249-0.44,6.009,1.755,6.009c1.912,0,4.113-0.587,7.774-2.934l-1.32-1.76C499.651,212.767,497.891,212.914,498.483,211.447
	"/>
<path fill="#FFFFFF" d="M549.949,187.547h-10.116l-0.88,2.64c1.902,0.147,3.662,0.728,2.782,3.227l-1.613,4.395
	c-0.88-0.581-2.2-0.733-3.662-0.733c-5.281,0-9.681,3.961-11.882,10.122c-2.195,6.156-0.875,10.116,4.547,10.116
	c1.76,0,3.96-0.293,5.721-1.614c0.294,1.027,1.174,1.467,2.347,1.467c1.902,0,4.102-0.587,7.769-2.934l-1.32-1.76
	c-1.027,0.44-2.787,0.587-2.2-0.875L549.949,187.547 M535.139,211.007c-0.734,1.76-1.76,2.787-2.641,2.787
	c-1.467,0-4.254-1.027-2.2-6.742c2.054-5.574,5.134-6.748,7.623-6.748l1.032,0.147L535.139,211.007z"/>
<path fill="#FFFFFF" d="M444.957,187.547l-2.787,7.183h2.347c2.347-4.249,2.64-4.689,7.334-4.689h1.32l-7.628,21.118
	c-0.88,2.195-2.787,2.929-6.449,2.929l1.902,2.64h16.424l-1.907-2.64c-3.809-0.293-4.542-1.027-3.809-3.521l7.476-20.526h1.467
	c4.694,0,4.547,0.44,3.814,4.689h2.347l2.64-7.183H444.957"/>
<path fill="#FFFFFF" d="M523.262,203.819l2.342-6.449c-0.728-0.293-1.608-0.44-2.64-0.44c-3.222,0-5.569,0.88-7.329,1.907
	c-0.293-1.32-1.174-1.907-2.347-1.907c-1.907,0-4.102,0.587-7.769,2.934l1.32,1.76c1.027-0.44,2.782-0.587,2.2,0.88l-5.281,14.224
	h6.161c0,0,4.249-11.73,4.542-12.61c0.734-1.907,2.64-3.521,3.961-3.521c1.907,0,2.054,1.76,1.613,3.222H523.262"/>
<path fill="#FFFFFF" d="M485.574,211.447l2.787-7.476c1.907-5.134,0.88-7.041-3.227-7.041c-2.489,0-4.547,0.587-6.156,1.32
	l3.809-10.703H472.67l-0.88,2.64c1.907,0.147,3.667,0.728,2.787,3.222l-8.649,23.465h6.156l4.547-12.757
	c0.733-1.907,2.64-3.521,3.955-3.521c2.2,0,2.347,0.88,1.619,3.222l-2.64,7.188c-1.467,4.254-0.44,6.014,1.76,6.014
	c1.902,0,4.102-0.587,7.769-2.934l-1.32-1.76C486.747,212.767,484.987,212.914,485.574,211.447"/>
<path fill="#FFFFFF" d="M500.3,189.103c1.619-1.346,3.683-1.53,4.621-0.409c0.927,1.121,0.372,3.117-1.247,4.463
	c-1.624,1.346-3.688,1.53-4.621,0.409C498.121,192.445,498.682,190.449,500.3,189.103"/>
<polyline fill="#FFFFFF" points="683.677,190.041 681.477,184.76 675.468,190.041 672.681,205.731 674.881,205.731 683.677,190.041 
	"/>
<polyline fill="#FFFFFF" points="666.96,213.501 669.16,218.635 675.175,213.501 672.974,208.078 666.96,213.501 "/>
<path fill="#FFFFFF" d="M667.4,194.73h2.347l2.64-7.182h-24.487l-2.787,7.182h2.347c2.347-4.249,2.635-4.689,7.329-4.689h1.32
	l-7.622,21.118c-0.88,2.195-1.614,2.929-5.281,2.929c-2.934,0-3.814-1.467-3.814-5.569l0.147-21.118h-5.569l-16.424,23.02
	c-1.76,2.2-2.934,3.374-6.308,3.667h-7.182c-4.254-0.293-4.694-1.174-3.374-4.836l2.347-6.313h3.814c4.689,0,4.542,0.44,3.814,4.699
	h2.342l4.254-11.588h-2.347c-2.2,3.814-2.494,4.401-7.041,4.401h-3.809l2.347-6.302c1.32-3.521,2.782-4.107,7.036-4.107h1.467
	c4.694,0,4.547,0.44,3.814,4.689h2.342l2.64-7.182H595.26l1.902,2.64c4.401,0.293,4.547,0.88,3.227,4.401l-5.422,14.81
	c-1.32,3.515-2.934,4.836-7.334,4.836l1.907,2.64h33.141l0.88-2.64c-3.814,0-4.107-1.32-2.499-3.515l12.615-17.891l-0.293,13.49
	h-7.628l1.907,2.494h5.721v1.608c-0.147,2.494-0.147,3.374-4.107,3.667l1.907,2.64h29.327l-1.907-2.64
	c-3.814-0.293-4.547-1.027-3.814-3.521l7.481-20.526h1.462C668.133,190.041,668.133,190.628,667.4,194.73"/>
<path fill="#FFFFFF" d="M584.406,201.624c4.401-0.587,6.308-3.075,7.335-6.156c1.467-4.553-0.293-7.921-8.508-7.921h-17.886
	l1.902,2.64c4.401,0.293,4.547,0.88,3.227,4.401l-5.422,14.81c-1.32,3.515-2.787,4.836-7.334,4.836l1.907,2.64h13.93
	c8.508,0,11.73-2.054,14.077-8.215C588.806,205.139,588.66,202.211,584.406,201.624 M578.983,200.597h-3.081l1.76,2.347h1.467
	c2.054,0,3.369,1.614,1.902,5.716c-1.608,4.401-3.955,5.428-6.743,5.574c-4.107-0.293-4.547-1.32-3.227-4.694l6.014-16.424
	c0.733-2.2,2.054-2.929,5.569-3.075c2.934,0.147,4.401,1.174,2.934,5.428C583.966,199.57,582.499,200.597,578.983,200.597z"/>
</svg>
