<?xml version="1.0" encoding="utf-8"?>
<!-- Generator: Adobe Illustrator 27.1.1, SVG Export Plug-In . SVG Version: 6.00 Build 0)  -->
<svg version="1.1" id="레이어_1" xmlns="http://www.w3.org/2000/svg" xmlns:xlink="http://www.w3.org/1999/xlink" x="0px"
	 y="0px" viewBox="0 0 720 246.217" enable-background="new 0 0 720 246.217" xml:space="preserve">
<path fill="#2A5AA9" d="M460.8,246.217c-7.524,0-15.056-2.211-22.131-6.487c-8.56-5.01-14.02-13.13-16.084-23.452
	c-3.542-17.268,3.835-37.325,12.102-48.399c9.295-12.534,49.858-55.465,90.725-98.395c-9.295-1.028-19.323-3.101-30.397-6.34
	c-3.092-0.89-6.194-1.33-9.433-1.33c-9.588,0-20.213,4.129-31.425,12.093c-3.835,2.807-8.111,4.285-12.24,4.285
	c-6.055,0-11.514-3.248-14.019-8.258c-2.505-5.166-1.918-11.359,1.918-16.231c2.954-3.835,22.571-27.737,40.564-41.609
	C480.563,4.276,495.015,0,511.245,0c13.285,0,26.415,2.946,36.297,8.258c7.075,3.836,14.598,4.578,19.764,4.578
	c9.001,0,14.754-2.505,15.79-3.248l0.734-0.587c4.276-3.541,9.009-5.312,13.726-5.312c6.781,0,12.689,3.835,15.194,10.029
	c2.799,6.79,1.028,14.607-4.578,20.36c-23.746,26.259-86.89,96.193-95.303,106.074c-3.386,3.982-3.092,10.029-2.211,21.388
	c0.743,9.441,1.779,21.25-0.44,35.261c-1.918,11.955-7.524,24.048-15.488,33.049C485.288,240.318,473.186,246.217,460.8,246.217"/>
<path fill="#FFFFFF" d="M460.8,237.364c-6.349,0-12.689-1.909-18.883-5.597c-6.936-4.138-11.514-10.772-13.13-19.177
	c-2.954-14.762,3.239-32.902,10.91-43.371c9.441-12.836,52.528-58.419,99.881-108.001h-1.33c-12.102,0-25.672-2.211-41.601-6.928
	c-3.688-1.037-7.377-1.624-11.212-1.624c-10.918,0-22.726,4.431-35.113,13.277c-2.799,1.918-5.753,2.954-8.56,2.954
	c-3.688,0-6.781-1.77-8.258-4.725c-1.477-2.954-1.028-6.487,1.183-9.588c2.799-3.688,21.975-26.994,39.389-40.426
	c8.992-6.928,22.131-10.763,37.031-10.763c12.24,0,24.333,2.799,33.187,7.524c8.266,4.423,16.965,5.312,22.718,5.312
	c9.441,0,17.121-2.514,19.919-4.872l0.588-0.441c3.101-2.66,6.496-3.991,9.744-3.991c4.129,0,7.817,2.367,9.294,6.055
	c1.762,4.422,0.587,9.588-3.395,13.57c-3.101,3.395-85.568,94.569-95.605,106.369c-5.304,6.193-4.569,14.607-3.688,26.112
	c0.743,9.148,1.779,20.507-0.44,33.637c-1.771,10.772-6.781,21.69-14.011,29.948C481.591,232.207,471.269,237.364,460.8,237.364"/>
<path fill="#2A5AA9" d="M591.061,15.488l-0.294,0.294h-0.147c-7.377,6.349-30.829,9.89-48.977,0.147
	c-17.406-9.294-47.941-9.735-64.327,2.807c-16.369,12.542-35.113,35.105-38.353,39.389c-3.248,4.284,1.771,7.817,7.964,3.541
	c13.57-9.735,31.719-18.148,51.042-12.396c13.277,3.982,36.591,9.45,55.914,5.019c-39.683,41.454-99.13,103.708-109.901,118.462
	c-10.184,13.726-18.002,43.371,0.587,54.592c26.553,15.782,49.72-10.927,53.556-35.113c4.716-29.361-6.496-48.537,5.304-62.41
	c10.331-12.093,95.752-106.515,95.752-106.515C605.676,16.818,599.915,8.258,591.061,15.488"/>
<polyline fill="#2A5AA9" points="323.447,219.966 315.042,219.966 322.272,199.9 330.677,199.9 323.447,219.966 "/>
<path fill="#2A5AA9" d="M214.28,191.34l-10.478,28.626h25.378c4.863,0,10.176-3.697,11.8-8.266l4.431-12.093
	c1.615-4.578-0.89-8.266-5.761-8.266H214.28 M213.986,215.535l7.221-19.763h15.643c1.037,0,1.477,0.734,1.183,1.615l-6.047,16.524
	c-0.302,0.89-1.33,1.624-2.367,1.624H213.986z"/>
<polyline fill="#2A5AA9" points="291.728,215.535 300.582,191.34 292.169,191.34 281.846,219.966 311.5,219.966 313.124,215.535 
	291.728,215.535 "/>
<path fill="#2A5AA9" d="M279.928,191.34h-19.03c-4.872,0-10.184,3.688-11.808,8.267l-4.423,12.093
	c-1.624,4.569,0.89,8.267,5.753,8.267h19.029c4.872,0,10.184-3.697,11.808-8.267l4.423-12.093
	C287.305,195.029,284.8,191.34,279.928,191.34 M272.111,213.911c-0.302,0.89-1.33,1.624-2.358,1.624h-16.378
	c-1.037,0-1.477-0.734-1.183-1.624l6.055-16.524c0.294-0.881,1.322-1.615,2.358-1.615h16.378c1.028,0,1.468,0.734,1.175,1.615
	L272.111,213.911z"/>
<path fill="#2A5AA9" d="M332.888,193.699c-0.881,2.367-3.386,4.138-5.753,4.138c-2.358,0-3.542-1.917-2.652-4.138
	c0.881-2.358,3.395-4.129,5.753-4.129C332.594,189.57,333.778,191.341,332.888,193.699"/>
<polyline fill="#2A5AA9" points="404.437,191.34 400.161,203.434 380.25,203.434 384.673,191.34 376.268,191.34 365.79,219.967 
	374.195,219.967 378.626,207.865 398.537,207.865 394.114,219.967 402.528,219.967 412.85,191.34 404.437,191.34 "/>
<polyline fill="#2A5AA9" points="209.261,195.772 210.885,191.341 195.837,191.341 194.213,195.772 197.608,195.772 
	190.378,215.536 187.13,215.536 185.515,219.967 200.407,219.967 202.031,215.536 198.792,215.536 205.875,195.772 209.261,195.772 
	"/>
<path fill="#2A5AA9" d="M360.478,202.699h-17.259c-1.477,0-2.211-1.175-1.33-3.394c0.89-2.212,2.358-3.386,3.835-3.386h25.378
	l1.615-4.431H345.43c-4.725,0-10.029,3.836-11.799,8.707c-1.771,4.717,0.734,8.707,5.451,8.707h17.267
	c1.468,0,2.211,1.175,1.322,3.386c-0.881,2.22-2.358,3.395-3.835,3.395h-25.37l-1.624,4.431h27.296
	c4.716,0,10.029-3.844,11.799-8.707C367.708,206.535,365.194,202.699,360.478,202.699"/>
<path fill="#2A5AA9" d="M718.523,70.071c-0.587-5.157-4.717-9.147-10.469-10.029l-2.22-0.147c-4.716,0-9.286,2.211-11.799,5.9
	c-11.065,15.635-22.277,28.618-33.196,39.243c3.404-4.129,3.844-9.589,0.743-13.717c-5.165-6.936-11.506-12.983-18.295-17.561
	v-1.762l-1.477-13.277c-0.587-4.872-4.276-8.707-9.441-9.891c-3.386-0.734-7.221-0.147-10.323,1.477
	c-1.183-0.743-2.513-1.184-3.835-1.477c-4.872-1.037-10.331,0.587-13.717,4.129l-12.689,13.277
	c-2.367,2.514-3.542,5.761-3.395,8.854h-29.654c-2.358,0-4.872,0.588-6.936,1.771c-2.505-0.881-5.304-0.881-7.817-0.294
	l-14.46,3.093c1.771-4.423,0.596-9.286-3.092-12.387c-2.367-2.065-5.459-3.101-8.854-3.101c-1.624,0-3.101,0.302-4.569,0.743
	l-13.873,4.423c-3.835,1.183-6.936,3.982-8.405,7.377l-5.459,12.983l-6.047,1.33c-3.248,0.734-6.202,2.505-8.12,5.01h-15.488
	l1.477-2.212c1.468-2.358,1.771-5.165,1.771-6.642c0-1.468-0.449-4.863-0.596-5.598c-0.587-5.165-4.716-9.156-10.469-10.037
	l-2.211-0.147c-4.725,0-9.303,2.212-11.808,5.9c-3.982,5.753-8.111,11.212-12.093,16.231c0.44-1.477,0.734-3.101,0.44-4.725
	c-0.294-2.946-1.918-5.606-4.431-7.523c-7.524-5.753-16.075-10.322-23.305-12.836c-1.477-0.44-2.954-0.734-4.578-0.734
	c-4.716,0-9.286,2.212-11.799,5.9l-2.799,3.991c-2.514,3.533-2.807,7.956-0.734,11.653c-5.019-0.596-10.331,1.477-13.432,5.304
	l-0.294,0.449l-7.377-2.367c-1.183-0.441-2.505-0.587-3.835-0.587l-0.587-0.588c-3.395-3.101-8.854-4.284-13.717-2.66l-9.45,2.955
	c-1.624-0.294-3.386-0.294-5.01-0.147l4.716-11.359c1.918-4.431,0.743-9.441-2.946-12.543c-2.367-2.064-5.459-3.092-8.854-3.092
	c-1.477,0-3.092,0.294-4.57,0.734l-13.726,4.276c-1.175,0.294-2.211,0.889-3.101,1.477c-0.587-1.183-1.468-2.358-2.652-3.248
	c-2.358-2.065-5.459-3.092-8.854-3.092c-1.624,0-3.092,0.294-4.569,0.734l-3.542,1.175l-0.743-7.074
	c-0.579-4.872-4.276-8.707-9.433-9.882c-3.395-0.743-7.23-0.156-10.331,1.468c-1.175-0.734-2.505-1.175-3.835-1.468
	c-1.037-0.303-2.064-0.303-3.092-0.303c-3.991,0-7.973,1.624-10.625,4.431l-10.625,11.065c-1.477,0-2.807,0.294-4.129,0.734
	l-13.717,4.422c-1.477,0.449-2.954,1.184-4.138,2.065l-6.34-4.717c-2.211-1.624-5.166-2.651-8.12-2.651l-1.762,0.147
	c-3.541,0.441-6.936,2.211-9.148,4.717c-5.166,5.9-12.102,12.396-20.066,18.589l0.44-1.037c0-0.147,0-0.147,2.807-6.928
	c1.468-3.688,0.881-7.826-1.477-10.918c-2.358-2.955-6.193-4.717-10.331-4.717H43.29c-4.276,0-7.515,1.762-8.992,4.863
	c-1.33,2.946-0.743,6.79,1.762,10.176l3.844,5.321c3.68,5.157,10.469,8.699,16.516,8.699h21.837
	c-0.734,0.881-1.477,1.918-1.918,3.101l-13.57,32.012c-9.588,22.424-32.902,45.73-54.29,53.996
	c-5.606,2.211-9.001,7.368-8.413,12.534l0.302,2.661c0.44,3.541,2.505,6.634,5.753,8.404c2.065,1.184,4.423,1.771,6.928,1.771
	c1.183,0,2.514-0.147,3.688-0.441c36.444-9.001,71.41-44.105,83.063-71.402l1.477-3.395c0.734,3.101,2.946,5.753,6.047,7.377
	c3.239,1.624,7.524,1.918,11.212,0.734c2.799-0.881,5.459-1.918,8.258-2.946l-11.506,26.994c-1.918,4.431-0.743,9.441,2.954,12.542
	c2.358,2.065,5.451,3.101,8.845,3.101c1.477,0,3.101-0.302,4.578-0.743l13.717-4.276c3.835-1.183,7.083-3.982,8.552-7.377
	c17.267-40.572,21.69-51.188,22.874-53.996c2.652-1.624,5.157-3.093,7.524-4.717l-23.608,55.611
	c-1.918,4.431-0.734,9.441,3.101,12.69c2.358,1.917,5.459,3.101,8.854,3.101c1.615,0,3.239-0.294,4.716-0.743l13.726-4.422
	c3.827-1.33,6.928-3.982,8.405-7.377l14.011-33.196c1.183,2.22,2.22,4.276,2.954,6.496c1.624,3.982,5.459,6.781,10.322,7.377
	c4.431,0.587,9.303-1.184,12.396-4.285l2.66-2.798c2.652,0.734,5.451,0.587,8.111-0.147l4.872-1.477
	c-6.496,6.936-13.726,11.946-22.286,15.194c-5.606,2.212-8.992,7.377-8.405,12.543l0.294,2.652c0.449,3.541,2.505,6.642,5.753,8.413
	c3.101,1.77,6.936,2.211,10.478,1.321c23.608-5.9,43.674-20.351,58.272-42.041c1.037,0.881,2.211,1.624,3.542,2.211
	c2.064,0.889,4.276,1.183,6.643,1.037c-6.496,6.34-13.579,10.763-21.69,13.864c-5.606,2.065-9.148,7.377-8.56,12.689l0.294,2.652
	c0.449,3.542,2.661,6.79,6.055,8.561c3.092,1.77,7.221,2.065,10.919,1.028c15.635-4.569,29.205-11.506,41.151-21.387l1.33,11.799
	c0.294,3.248,2.22,6.194,5.165,8.12c2.211,1.322,4.725,2.211,7.524,2.211l2.211-0.147c15.643-2.22,30.242-8.413,44.702-18.442
	c1.33,5.166,6.34,8.845,12.396,8.845h53.547l0.596,0.743c2.652,3.688,7.964,8.258,18.14,9.001c2.22,0.147,4.431,0.147,6.642,0.147
	c9.735,0,21.69-0.89,29.067-1.624c0.881-0.147,1.771-0.294,2.652-0.587l0.44,0.294c3.101,1.77,6.936,2.211,10.478,1.33
	c20.507-4.872,38.5-14.166,54.437-28.03c-0.881,1.771-1.183,3.835-0.881,5.753l1.321,12.534c0.294,3.248,2.211,6.193,5.165,8.12
	c2.211,1.321,4.717,2.211,7.524,2.211l2.211-0.147c36.884-5.459,82.467-43.812,116.25-97.808c1.183-1.77,1.771-3.991,1.771-6.642
	C718.964,73.907,718.523,70.668,718.523,70.071 M597.556,144.134c-1.624,0.147-3.101,0.44-4.578,1.028
	c10.184-10.175,19.47-22.415,27.883-36.875c0.147,2.211,0.147,4.423,0.147,6.781c-0.147,5.165,3.395,9.588,8.854,11.212
	c1.33,0.294,2.505,0.596,3.835,0.596l1.477-0.147C619.091,138.087,605.521,143.547,597.556,144.134z M579.995,105.185
	c-12.983,19.92-28.324,35.114-44.848,44.261c-0.587-1.477-1.469-2.954-2.652-4.138c-2.358-2.358-5.753-3.68-9.441-3.68
	c-1.037,0-1.918,0.147-2.799,0.294c-4.725,0.882-9.891,1.624-14.754,2.065l0.44-2.954l0.734,0.147
	c3.835,0.743,8.111-0.147,11.359-2.505c13.424-9.588,24.489-20.066,37.619-33.783l2.367,0.147h21.975V105.185z M370.506,137.932
	c-6.634,3.248-13.277,5.174-19.47,5.909c4.578-5.312,8.854-11.359,12.983-17.855c0.294,1.184,0.44,2.367,0.587,3.541
	C365.047,133.215,367.267,136.17,370.506,137.932z M430.852,129.976l-6.496,12.681h-5.019
	C423.319,138.822,427.163,134.545,430.852,129.976z M244.521,98.689l-4.129,9.891c-4.276-3.541-8.405-6.642-12.689-9.147
	l0.587-1.184l1.183,0.294c3.395,0.743,7.23,0.147,10.322-1.468c1.183,0.734,2.514,1.175,3.844,1.468L244.521,98.689z"/>
<path fill="#FFFFFF" d="M618.21,93.679l2.652-6.047l0.147-0.147c3.101,6.194,4.725,15.488,4.431,25.664
	c0,2.367,1.615,4.578,4.276,5.312l2.065,0.294c2.064,0,4.129-0.734,5.459-2.211l15.928-16.671c1.918-1.918,2.22-4.717,0.596-6.781
	c-5.459-7.23-12.102-13.433-19.479-17.708l-1.175-0.587c0.881-1.183,1.321-2.514,1.175-3.835l-1.477-13.277
	c-0.294-2.212-2.056-4.138-4.569-4.725l-1.624-0.147c-2.064,0-4.129,0.881-5.459,2.211l-2.505,2.514
	c-0.294-2.22-2.064-4.138-4.578-4.578l-1.624-0.147c-2.056,0-4.129,0.881-5.451,2.211l-12.689,13.277
	c-1.183,1.184-1.771,2.807-1.624,4.431l0.734,6.634h-37.169c-1.926,0-3.835,0.743-5.165,1.918l-1.037,1.33l-1.624-1.477
	c-1.028-0.587-2.358-0.881-3.533-0.881l-1.771,0.147l-26.415,5.9l4.578-10.625c0.881-2.064,0.294-4.422-1.477-5.9
	c-1.175-1.028-2.799-1.477-4.423-1.477l-2.358,0.449l-13.873,4.423c-1.918,0.587-3.542,2.065-4.276,3.688l-6.79,15.928l-9.588,2.22
	c-2.211,0.44-4.129,1.918-5.01,3.835l-1.037,2.212c-1.036-0.588-2.367-1.037-3.688-1.037H441.77
	c2.505-3.679,5.01-7.523,7.368-11.358c0.596-1.028,0.743-2.212,0.743-3.248c0-1.175-0.449-5.157-0.449-5.157
	c-0.294-2.505-2.358-4.431-5.157-4.872l-1.184-0.147c-2.358,0-4.716,1.183-6.047,2.954c-38.802,55.171-70.227,68.594-89.844,70.071
	c-1.918,0.147-3.541,0.89-4.872,2.22c-1.175,1.175-1.771,2.798-1.624,4.422l1.33,12.534c0.147,1.477,1.037,2.954,2.505,3.835
	c1.037,0.743,2.514,1.037,3.844,1.037l1.175-0.147c28.618-4.129,55.62-23.159,81.88-57.685c1.183,1.037,2.652,1.624,4.57,1.624
	h6.193l-15.928,30.682h-18.14c-1.926,0-3.844,0.743-5.174,1.918c-1.322,1.183-2.056,2.954-1.909,4.578l0.294,3.982
	c0.294,2.799,2.946,5.019,6.34,5.019h53.849c1.175,0,2.505-0.294,3.542-0.889c0.44,1.624,1.183,2.954,2.064,4.276
	c1.918,2.66,5.753,5.9,13.423,6.349c1.918,0.147,3.982,0.147,6.202,0.147c9.433,0,21.241-0.89,28.315-1.624
	c1.926-0.147,3.697-1.028,4.872-2.358c0.449,1.183,1.33,2.358,2.505,2.946c1.037,0.596,2.22,0.889,3.55,0.889l1.909-0.147
	c38.215-9.148,67.722-34.673,90.44-77.751L618.21,93.679 M469.645,135.876c-1.909,4.423-3.239,8.405-4.129,11.8
	c-1.028-0.587-2.211-1.037-3.688-1.037h-7.377l18.589-36.288c1.183,0.743,2.505,1.175,3.982,1.175l1.624-0.147l1.477-0.285
	L469.645,135.876z M525.412,147.528c-1.175-1.183-2.954-1.77-4.725-1.77l-1.468,0.147c-8.707,1.624-18.442,2.652-26.113,2.652
	h-1.771c0.147-1.322,0.734-3.982,2.66-8.698l14.745-34.673l7.524-1.624c-4.129,6.642-9.139,13.285-14.313,19.185
	c-1.469,1.624-1.762,3.827-1.028,5.606l0.587,1.468c0.743,1.624,2.367,2.807,4.431,3.248l1.477,0.147
	c1.615,0,3.239-0.44,4.423-1.477c13.423-9.589,24.636-20.36,38.353-34.664l1.183-1.918c1.183,1.028,2.799,1.624,4.569,1.624h32.902
	c-17.553,30.536-39.683,51.63-64.768,61.218l2.22-5.157C527.329,151.217,526.889,149.006,525.412,147.528z"/>
<path fill="#FFFFFF" d="M369.038,126.728c0.294,2.358,2.211,4.129,4.863,4.717l1.33,0.147c2.211,0,4.423-1.028,5.753-2.652
	l30.976-37.472c2.073-2.505,1.624-5.606-0.734-7.523c-7.083-5.313-14.9-9.589-21.543-11.808l-2.358-0.441
	c-2.358,0-4.716,1.037-6.047,2.954l-2.799,3.982c-1.477,2.065-1.33,4.57,0.294,6.349c3.395,3.982,5.9,8.845,7.377,14.451
	c-4.578-2.946-9.45-5.019-14.313-6.193l-1.771-0.147c-2.358,0-4.569,1.028-5.9,2.799l-2.799,3.541l-0.449,0.734l-0.441-0.147
	l-11.799-3.679l-2.22-0.303c-1.028,0-2.211,0.303-3.092,0.596c-0.147-1.184-0.734-2.22-1.624-2.955
	c-1.183-1.183-2.954-1.77-4.57-1.77l-2.367,0.44L323.3,96.037c-0.881-0.44-1.918-0.587-2.945-0.587l-2.367,0.294l-10.772,3.395
	l9.891-23.159c0.881-2.073,0.294-4.431-1.477-5.908c-1.183-1.028-2.807-1.624-4.431-1.624l-2.358,0.302l-13.717,4.276
	c-2.064,0.587-3.542,2.065-4.276,3.688l-12.983,30.536c-11.808,27.883-25.966,43.812-45.876,51.491
	c-2.807,1.028-4.578,3.541-4.284,6.046l0.294,2.652c0.147,1.624,1.183,3.101,2.807,3.982c1.028,0.596,2.211,0.89,3.533,0.89
	l1.926-0.294c26.7-6.642,48.096-24.783,62.254-52.968c0,3.101,0.147,6.202,0.587,9.303c0.294,1.77,1.624,3.239,3.395,3.982
	c0.89,0.294,1.771,0.587,2.799,0.587c1.037,0,2.22-0.294,3.248-0.743l3.835-1.762c1.918-0.889,3.248-2.367,3.688-4.137l0.302-1.331
	c0.587,0.743,1.322,1.331,2.203,1.779c0.89,0.441,2.073,0.734,3.101,0.734c0.89,0,1.771-0.147,2.505-0.44
	c-11.359,16.524-22.865,25.966-37.472,31.416c-2.799,1.037-4.57,3.55-4.276,6.202l0.302,2.652c0.147,1.624,1.175,3.101,2.946,3.982
	c1.028,0.596,2.211,0.889,3.395,0.889l2.211-0.294c31.278-9.001,54.143-29.067,71.998-63.144
	C366.231,114.039,368.148,120.085,369.038,126.728"/>
<path fill="#FFFFFF" d="M231.245,138.234l6.34-6.642l0.596,0.587c1.175,1.037,2.799,1.624,4.423,1.624l2.358-0.294l13.726-4.276
	c2.064-0.587,3.542-2.065,4.276-3.688l21.094-49.867c0.881-2.065,0.302-4.423-1.477-5.9c-1.175-1.028-2.799-1.624-4.423-1.624
	l-2.358,0.294l-11.506,3.688v-1.322l-1.477-13.277c-0.294-2.22-2.064-4.138-4.569-4.725l-1.624-0.147
	c-2.073,0-4.138,0.881-5.459,2.211l-2.514,2.514c-0.294-2.22-2.064-4.138-4.569-4.578l-1.624-0.147
	c-2.064,0-4.129,0.881-5.459,2.211l-12.689,13.277l-0.294,0.294c-0.734-0.294-1.477-0.294-2.358-0.294l-2.358,0.449l-13.726,4.423
	c-1.918,0.587-3.542,2.065-4.276,3.688l-0.743,1.918l-1.322-1.477l-10.331-7.671c-1.175-0.882-2.652-1.331-4.129-1.331h-0.881
	c-1.926,0.294-3.542,1.184-4.725,2.514c-15.782,18.14-46.023,39.389-70.374,49.124c-2.652,1.028-4.423,3.541-4.129,6.047
	l0.294,2.211c0.155,1.771,1.33,3.248,2.954,4.129c1.028,0.449,2.064,0.743,3.248,0.743c0.881,0,1.624-0.147,2.505-0.441
	c7.524-2.505,14.901-5.312,22.277-8.413l-17.112,40.426c-0.89,2.065-0.294,4.423,1.477,5.9c1.175,1.028,2.799,1.624,4.423,1.624
	l2.358-0.294l13.717-4.285c2.073-0.587,3.55-2.065,4.284-3.688l23.012-55.024l0.294-1.037c10.918-6.487,20.507-13.277,28.177-19.911
	l-32.6,76.861c-0.89,2.065-0.294,4.422,1.477,5.9c1.183,1.028,2.799,1.477,4.423,1.477c0.89,0,1.624-0.147,2.514-0.449l13.717-4.423
	c1.918-0.587,3.542-2.065,4.276-3.679l19.03-44.858c4.423,5.9,7.973,11.955,10.331,18.296c0.734,1.918,2.652,3.248,5.019,3.541
	h0.881C227.85,140.446,229.914,139.556,231.245,138.234 M224.015,84.238l0.147,1.624c0.294,2.211,2.064,4.129,4.578,4.716
	l1.624,0.156c2.065,0,4.129-0.889,5.451-2.22l2.514-2.505c0.294,2.212,2.064,4.129,4.569,4.569l1.624,0.156
	c2.064,0,4.129-0.889,5.459-2.22l4.872-5.01l-14.46,34.077c-8.111-7.818-15.782-13.571-23.314-17.268L224.015,84.238z"/>
<path fill="#FFFFFF" d="M710.118,74.054c0-1.321-0.294-3.679-0.441-5.157c-0.441-2.66-2.367-4.422-5.165-4.872l-1.183-0.147
	c-2.358,0-4.716,1.184-6.047,2.946c-38.802,55.18-82.026,79.815-101.643,81.292c-1.926,0.147-3.542,0.889-4.872,2.211
	c-1.183,1.184-1.771,2.807-1.624,4.431l1.33,12.534c0.147,1.477,1.036,2.955,2.505,3.836c1.036,0.743,2.514,1.037,3.835,1.037
	l1.183-0.147c35.114-5.165,79.521-43.665,111.387-94.715C709.971,76.421,710.118,75.384,710.118,74.054"/>
<path fill="#FFFFFF" d="M148.182,82.32l2.807-6.789c0.743-1.771,0.44-3.533-0.734-5.01c-1.183-1.477-3.101-2.367-5.165-2.367H40.932
	c-1.918,0-3.395,0.743-3.982,2.073c-0.587,1.322-0.294,2.946,1.037,4.569l3.835,5.312c2.064,2.799,5.9,4.872,9.294,4.872h68.448
	c-3.395,6.487-9.295,11.946-15.635,16.222l2.505-5.9c0.89-2.065,0.302-4.423-1.477-5.9c-1.175-1.037-2.799-1.624-4.423-1.624
	l-2.358,0.294L84.45,92.349c-2.064,0.587-3.533,2.065-4.276,3.688L66.31,128.197c-10.184,23.901-35.114,48.684-58.125,57.538
	c-2.807,1.037-4.578,3.541-4.284,6.047l0.294,2.66c0.156,1.624,1.183,3.092,2.807,3.982c1.037,0.587,2.211,0.881,3.542,0.881
	l1.918-0.294c34.371-8.552,67.42-41.748,78.338-67.567l4.423-10.469l1.918,0.294c0.89,0,1.918-0.147,2.807-0.449
	C118.536,113.892,138.749,103.863,148.182,82.32"/>
<path fill="#F3961A" d="M357.964,105.038l-11.8-3.688c-5.304,10.771-10.469,19.919-15.782,27.59h12.542
	C348.238,122.15,353.248,114.186,357.964,105.038"/>
<polyline fill="#F3961A" points="468.315,105.625 436.009,105.625 436.302,110.204 452.239,110.204 442.504,129.086 
	456.515,129.086 468.315,105.625 "/>
<path fill="#F3961A" d="M503.73,100.166l24.635-5.303c-5.606,10.91-13.13,21.681-21.241,30.976l0.734,1.624
	c12.974-9.148,23.901-19.772,37.325-33.783l-0.89-7.817l-38.059,8.552c4.872-11.359,8.699-20.507,8.699-20.507l-13.864,4.431
	c0,0-3.542,8.552-8.111,19.03l-13.277,2.946l-2.367,5.459l13.13-2.799c-3.982,9.294-8.111,19.177-11.056,25.966h11.946
	C494.729,121.416,499.446,110.498,503.73,100.166"/>
<path fill="#F3961A" d="M612.017,92.055l2.945-7.074H555.8l0.596,6.193h42.922c-7.368,14.305-15.929,26.994-25.37,37.765h12.983
	C596.079,118.755,604.493,106.369,612.017,92.055"/>
<path fill="#F3961A" d="M632.074,112.856l15.937-16.671c-5.165-6.928-11.506-12.534-17.708-16.222l-3.688,3.836
	C630.156,90.138,632.514,100.313,632.074,112.856"/>
<path fill="#F3961A" d="M389.096,109.469c-6.047-5.459-12.827-9.156-19.47-10.78l-2.807,3.55c4.129,5.9,7.524,13.717,8.707,23.599
	L389.096,109.469"/>
<path fill="#F3961A" d="M406.657,88.22c-6.202-4.716-13.423-8.854-19.626-10.918l-2.799,3.982c4.57,5.312,8.258,12.543,9.735,22.277
	L406.657,88.22"/>
<polyline fill="#F3961A" points="612.017,58.419 599.319,71.696 600.796,84.981 613.485,71.696 612.017,58.419 "/>
<polyline fill="#F3961A" points="627.651,71.695 626.174,58.419 613.485,71.695 614.962,84.981 627.651,71.695 "/>
<path fill="#F3961A" d="M207.637,106.368c4.725,5.01,11.221,12.681,16.084,22.571h7.964l5.606-5.9
	c-9.148-9.148-18.434-16.231-28.177-20.066L221.51,73.76l-13.726,4.431l-21.535,50.748h11.8L207.637,106.368"/>
<polyline fill="#F3961A" points="243.64,71.695 242.163,58.419 229.327,71.695 230.804,84.981 243.64,71.695 "/>
<polyline fill="#F3961A" points="257.798,71.695 256.321,58.419 243.64,71.695 245.117,84.981 257.798,71.695 "/>
<path fill="#F3961A" d="M703.484,74.943l-0.449-5.165c-13.13,18.736-33.49,41.894-55.326,59.308h12.542
	C677.371,112.268,692.557,92.349,703.484,74.943"/>
<path fill="#F3961A" d="M443.239,86.008l-0.441-5.165c-11.799,16.818-26.406,34.379-42.637,48.243h11.065
	C423.172,116.103,433.944,101.056,443.239,86.008"/>
<path fill="#F3961A" d="M128.271,79.219c-3.248,15.195-18.442,26.113-30.985,32.6l0.294,3.844
	c16.378-6.047,35.71-15.047,44.408-34.967l2.66-6.642H44.033l3.835,5.312h80.403V79.219"/>
<polyline fill="#F3961A" points="99.947,93.679 86.23,97.955 72.945,129.087 84.9,129.087 99.947,93.679 "/>
<path fill="#F3961A" d="M296.013,108.726l14.754-34.819l-13.726,4.284l-12.983,30.535c-3.101,7.377-6.487,14.166-10.322,20.213
	h11.35C289.664,122.297,293.205,115.516,296.013,108.726"/>
<polyline fill="#F3961A" points="256.77,123.774 277.864,73.907 264.147,78.338 243.044,128.05 256.77,123.774 "/>
<path fill="#F3961A" d="M305.601,127.169l3.835-1.77c1.624-6.79,5.157-15.047,10.616-24.635l-13.57,4.276
	C305.298,113.443,304.417,120.38,305.601,127.169"/>
<path fill="#F3961A" d="M325.805,120.379c2.807-7.376,6.202-13.717,11.074-23.011l-13.13,4.129
	c-1.624,8.267-2.367,13.276-1.624,20.213L325.805,120.379"/>
<path fill="#F3961A" d="M161.907,107.102h-4.129c14.46-7.817,27.141-16.671,36.729-25.516l-10.322-7.679
	c-17.259,19.919-48.831,41.315-73.173,51.042l0.294,2.22c12.24-4.129,24.635-9.148,36.288-14.901l-7.075,16.818h11.8
	L161.907,107.102"/>
<path fill="#EC6538" d="M343.072,129.086H330.53c-4.725,6.937-9.441,12.69-14.46,17.553h10.625
	C332.301,141.776,337.907,135.876,343.072,129.086"/>
<polyline fill="#EC6538" points="442.504,129.086 433.65,146.639 447.523,146.639 456.515,129.086 442.504,129.086 "/>
<path fill="#EC6538" d="M491.482,129.086h-11.946c-2.22,5.166-3.542,8.414-3.697,8.552c-1.322,3.101-2.505,6.202-3.239,9.001h12.24
	c0.449-2.505,1.477-5.459,2.807-8.552C488.234,136.904,489.564,133.656,491.482,129.086"/>
<path fill="#EC6538" d="M586.932,129.086h-12.983c-5.753,6.643-11.799,12.543-18.295,17.553h12.396
	C574.683,141.629,581.032,135.729,586.932,129.086"/>
<path fill="#F3961A" d="M226.226,134.693l5.459-5.606h-7.964C224.455,130.858,225.345,132.775,226.226,134.693"/>
<polyline fill="#EC6538" points="186.102,129.086 178.726,146.639 190.525,146.639 198.049,129.086 186.102,129.086 "/>
<path fill="#EC6538" d="M647.709,129.086c-9.001,7.083-18.14,13.13-27.288,17.553h19.323c7.083-5.157,13.873-11.212,20.507-17.553
	H647.709"/>
<path fill="#EC6538" d="M411.226,129.086h-11.065c-8.405,7.083-17.406,13.13-26.553,17.553h18.736
	C398.831,141.482,405.179,135.574,411.226,129.086"/>
<path fill="#EC6538" d="M84.9,129.086H72.945l-0.441,0.89c-2.358,5.753-5.606,11.351-9.148,16.663h11.514
	c4.129-5.753,7.368-11.506,9.58-16.663L84.9,129.086"/>
<path fill="#EC6538" d="M285.241,129.086h-11.359c-3.982,6.643-8.413,12.543-13.432,17.553h10.331
	C276.387,141.179,281.259,135.28,285.241,129.086"/>
<polyline fill="#EC6538" points="140.667,129.086 133.29,146.639 145.089,146.639 152.466,129.086 140.667,129.086 "/>
<path fill="#E83C19" d="M289.223,163.75l0.294,2.661c13.277-3.836,25.672-10.029,37.178-19.772H316.07
	C307.959,154.465,299.252,160.062,289.223,163.75"/>
<polyline fill="#E83C19" points="430.549,152.538 407.831,152.538 408.134,156.53 461.974,156.53 461.534,152.538 444.422,152.538 
	447.523,146.639 433.65,146.639 430.549,152.538 "/>
<path fill="#E83C19" d="M481.444,166.411c1.771,0.147,3.55,0.147,5.615,0.147c9.139,0,20.498-0.89,27.434-1.624l5.761-13.424
	c-8.854,1.771-19.185,2.799-27.59,2.799c-1.477,0-2.954,0-4.284-0.147c-3.542-0.294-4.276-3.248-3.542-7.523h-12.24
	C469.498,157.411,470.535,165.668,481.444,166.411"/>
<path fill="#E83C19" d="M525.861,163.75l0.294,2.661c15.341-3.688,29.205-10.176,41.747-19.772h-12.396
	C546.368,154.016,536.477,159.768,525.861,163.75"/>
<polyline fill="#E83C19" points="170.312,166.411 184.038,161.989 190.525,146.639 178.726,146.639 170.312,166.411 "/>
<path fill="#E83C19" d="M595.933,153.869l1.33,12.543c14.158-2.065,28.618-9.441,42.482-19.772h-19.323
	C612.017,150.621,603.75,153.281,595.933,153.869"/>
<path fill="#E83C19" d="M347.495,153.869l1.33,12.543c15.782-2.367,30.242-9.588,43.371-19.772h-18.736
	C365.047,150.621,356.349,153.281,347.495,153.869"/>
<path fill="#E83C19" d="M10.691,191.047l0.294,2.652c25.672-6.34,49.867-27.14,64.033-47.06H63.503
	C49.933,166.852,29.133,183.817,10.691,191.047"/>
<path fill="#E83C19" d="M234.337,163.75l0.302,2.661c14.754-3.688,26.553-10.919,35.995-19.772h-10.331
	C253.073,154.162,244.521,159.915,234.337,163.75"/>
<polyline fill="#E83C19" points="124.876,166.264 138.602,161.988 145.089,146.639 133.29,146.639 124.876,166.264 "/>
</svg>
