<?xml version="1.0" encoding="utf-8"?>
<!-- Generator: Adobe Illustrator 27.2.0, SVG Export Plug-In . SVG Version: 6.00 Build 0)  -->
<svg version="1.1" id="레이어_1" xmlns="http://www.w3.org/2000/svg" xmlns:xlink="http://www.w3.org/1999/xlink" x="0px"
	 y="0px" viewBox="0 0 181.612 54.68" enable-background="new 0 0 181.612 54.68" xml:space="preserve">
<g>
	<path fill="#252627" d="M97.003,32.181v-9.84l26.438,0.008c2.684,0,4.873,2.17,4.873,4.85v11.693c0,6.019-4.82,11-10.947,11.004
		l-16.926,0.012c-12.544,0-22.693-10.106-22.693-22.595c0-12.48,10.211-22.594,22.713-22.594h26.205v10.38h-26.21
		c-6.758,0-12.307,5.47-12.307,12.214c0,6.735,5.468,12.207,12.289,12.206h17.484v-7.338H97.003z M74.311,4.662l0.006,3.343v41.922
		h-5.451c-2.664,0-4.84-2.158-4.84-4.817V4.662H74.311z M176.787,4.688c1.279-0.001,2.506,0.507,3.411,1.411
		c0.904,0.904,1.413,2.13,1.414,3.409v30.005c0,6.025-4.902,10.91-10.939,10.91h-0.186c-3.954,0-7.404-1.963-9.326-5.18
		l-17.403-30.468c-0.143-0.265-0.394-0.344-0.61-0.344c-0.125,0-0.248,0.033-0.355,0.096c-0.108,0.063-0.198,0.153-0.259,0.262
		c-0.064,0.095-0.099,0.206-0.103,0.32l0.003,34.819h-5.477c-2.663,0-4.832-2.158-4.832-4.817V15.109
		c0-6.025,4.894-10.91,10.93-10.91h0.186c3.955,0,7.484,2.116,9.407,5.333l17.298,30.272c0.217,0.284,0.413,0.385,0.633,0.385
		c0.26,0,0.488-0.14,0.61-0.348c0.051-0.086,0.08-0.185,0.082-0.285l-0.005-34.868H176.787z"/>
	<path fill="#BF1313" d="M12.286,17.422c-2.697,0.295-5.16,0.698-7.335,1.195c1.219-3.1,3.064-5.915,5.422-8.268
		c2.358-2.353,5.176-4.194,8.278-5.408c-0.497,2.172-0.9,4.63-1.198,7.322C15.4,13.616,13.642,15.371,12.286,17.422z M37.315,12.204
		c-0.314-2.678-0.73-5.12-1.233-7.28c3.113,1.209,5.942,3.05,8.309,5.407c2.366,2.357,4.219,5.178,5.441,8.286
		c-2.177-0.497-4.639-0.9-7.335-1.195c-1.358-2.053-3.119-3.809-5.175-5.163L37.315,12.204z M17.453,42.417
		c0.297,2.693,0.7,5.15,1.198,7.322c-3.109-1.216-5.933-3.062-8.293-5.423c-2.361-2.361-4.207-5.184-5.423-8.293
		c2.142,0.495,4.574,0.905,7.29,1.224c0.02,0.003,0.038,0.004,0.058,0.008C13.64,39.307,15.399,41.063,17.453,42.417z
		 M42.557,37.247c2.713-0.317,5.145-0.726,7.288-1.221c-1.219,3.116-3.071,5.945-5.44,8.308c-2.369,2.363-5.202,4.209-8.322,5.421
		c0.503-2.158,0.918-4.6,1.232-7.276c0.003-0.02,0.004-0.039,0.008-0.059c2.057-1.354,3.818-3.111,5.176-5.166
		C42.519,37.25,42.537,37.25,42.557,37.247z M54.781,22.871v8.889c-4.21,1.943-10.485,2.72-12.603,2.964
		c-0.511,0.097-0.989,0.142-1.45,0.142l-6.747-7.525l6.746-7.527c0.389,0,0.798,0.038,1.25,0.115
		C44.145,20.16,50.526,20.905,54.781,22.871z M14.057,19.814l6.744,7.527l-6.744,7.525c-0.463,0-0.942-0.045-1.452-0.142
		C10.487,34.478,4.211,33.703,0,31.758v-8.885c4.256-1.968,10.637-2.713,12.804-2.944C13.218,19.855,13.637,19.817,14.057,19.814z
		 M19.852,40.654l7.54-6.734l7.54,6.733c0,0.46-0.048,0.939-0.144,1.448c-0.246,2.113-1.026,8.377-2.973,12.579h-8.902
		c-1.971-4.246-2.717-10.616-2.949-12.78C19.891,41.488,19.853,41.071,19.852,40.654L19.852,40.654z M22.913,0h8.9
		c1.948,4.205,2.728,10.468,2.974,12.582c0.096,0.509,0.143,0.984,0.143,1.446l-7.54,6.735l-7.54-6.735
		c0-0.386,0.038-0.795,0.114-1.246C20.196,10.617,20.942,4.248,22.913,0z"/>
</g>
</svg>
