<?xml version="1.0" encoding="utf-8"?>
<!-- Generator: Adobe Illustrator 27.2.0, SVG Export Plug-In . SVG Version: 6.00 Build 0)  -->
<svg version="1.1" id="레이어_1" xmlns="http://www.w3.org/2000/svg" xmlns:xlink="http://www.w3.org/1999/xlink" x="0px"
	 y="0px" viewBox="0 0 720 125.263" enable-background="new 0 0 720 125.263" xml:space="preserve">
<path fill="#142F99" d="M173.276,20.706v0.018c-3.502,0.109-6.315,2.699-6.315,5.898c0,3.2,2.813,5.79,6.315,5.898v0.048h35.342
	c0.006,11.024-2.886,46.336-39.061,54.456c-3.363,0.241-6.013,2.765-6.013,5.868c0,3.266,2.928,5.917,6.538,5.917
	c0.749,0,1.449-0.139,2.119-0.344c7.981-1.195,57.36-10.825,60.687-65.897h0.072V20.706H173.276"/>
<path fill="#142F99" d="M253.633,19.577h-5.065c0,0-3.435,1.232,0.03,2.97c0,0,3.858,0.115,5.065,1.835v74.12
	c0,0.03-0.012,0.06-0.012,0.085c0,0.036,0.012,0.06,0.012,0.091v0.157h0.024c0.187,4.782,5.597,8.621,12.28,8.621
	c6.683,0,12.099-3.84,12.286-8.621h0.078V19.577H253.633"/>
<path fill="#142F99" d="M343.051,83.796h55.936v9.829h-55.936V83.796z M338.445,51.684c-9.098,0-16.482-5.639-16.482-12.594
	s7.384-12.594,16.482-12.594c9.11,0,16.482,5.639,16.482,12.594S347.555,51.684,338.445,51.684z M398.987,19.704h-5.065
	c0,0-3.465,1.201,0,2.94c0,0,3.852,0.115,5.065,1.835v8.76h-22.453c-4.51-9.642-19.826-16.754-38.089-16.754
	c-21.795,0-39.466,10.119-39.466,22.604s17.671,22.604,39.466,22.604c19.06,0,34.962-7.74,38.663-18.021h21.879v29.691h-55.936
	v-5.766h-24.668v0.006h-5.065c0,0-3.472,1.201,0,2.94c0,0,3.858,0.115,5.065,1.841v22.235c-0.012,0.163-0.066,0.314-0.066,0.471
	c0,0.169,0.054,0.32,0.066,0.477v1.485h0.26c1.22,3.87,5.947,6.768,11.658,6.883v0.115h81.486v-0.06
	c6.569-0.193,11.827-4.057,11.827-8.827c0-0.374-0.091-0.731-0.157-1.093h0.199v-74.38h-24.668V19.704z"/>
<path fill="#142F99" d="M574.328,61.856c-0.477,0-0.894,0-1.389,0l-114.153,0.024h0.024h-12.008c0,0-6.629,2.385,0,5.826
	c0,0,9.147,0.235,10.3,4.83v23.479c-0.006,0.145-0.054,0.278-0.054,0.423s0.048,0.284,0.054,0.429v0.869h0.127
	c0.839,4.087,5.518,7.233,11.338,7.504v0.085h96.518v-0.018c0.423,0.078,0.857,0.121,1.304,0.121c3.538,0,6.406-2.65,6.406-5.929
	c0-3.272-2.868-5.935-6.406-5.935c-0.477,0-0.942,0.06-1.389,0.151h-81.014V73.623l89.219,0.078
	c0.368,0.066,0.737,0.024,1.123,0.024c3.538,0,6.406-2.656,6.406-5.935C580.734,64.519,577.866,61.856,574.328,61.856"/>
<path fill="#142F99" d="M21.438,38.873c5.385-9.72,15.099-9.376,15.099-9.376C50.943,29.152,54.16,43.153,54.16,43.153h30.192
	C85.313,9.96,54.414,2.437,54.414,2.437C26.824-3.98,11.549,13.884,11.549,13.884C-1.461,25.856,0.054,45.719,0.054,45.719
	c0.821,25.592,19.048,32.65,19.048,32.65c2.004-15.667,5.289-18.679,5.289-18.679C15.021,49.281,21.438,38.873,21.438,38.873"/>
<path fill="#142F99" d="M106.347,5.088C83.616-6.715,68.541,5.716,68.541,5.716c12.69,9.412,13.711,13.753,13.711,13.753
	c13.662-3.073,19.603,7.619,19.603,7.619c5.844,9.442,0.779,17.75,0.779,17.75c-6.744,12.727-20.527,8.676-20.527,8.676
	L67.328,79.842c28.49,17.08,50.17-6.182,50.17-6.182c19.102-20.907,10.994-42.967,10.994-42.967
	C124.417,13.486,106.347,5.088,106.347,5.088"/>
<path fill="#142F99" d="M87.649,89.713c-4.268,13.336-16.494,13.047-16.494,13.047c-11.109,0.26-15.709-8.307-15.709-8.307
	c-7.565-12.256,2.898-22.097,2.898-22.097L43.112,46.292c-29.148,15.92-20.056,46.385-20.056,46.385
	c8.374,27.059,31.515,31.225,31.515,31.225c16.904,5.192,33.296-6.14,33.296-6.14c21.68-13.62,18.583-32.915,18.583-32.915
	C91.906,91.029,87.649,89.713,87.649,89.713"/>
<path fill="#142F99" d="M513.14,25.361c16.995,0,30.772,4.806,30.772,10.728c0,5.923-13.777,10.728-30.772,10.728
	c-16.995,0-30.778-4.806-30.778-10.728C482.362,30.167,496.145,25.361,513.14,25.361 M513.14,58.331
	c30.808,0,55.785-9.962,55.785-22.241c0-12.28-24.976-22.241-55.785-22.241c-30.808,0-55.785,9.962-55.785,22.241
	C457.355,48.369,482.332,58.331,513.14,58.331z"/>
<path fill="#142F99" d="M611.838,51.503c0-5.911,6.279-10.704,14.013-10.704c7.74,0,14.013,4.794,14.013,10.704
	c0,5.911-6.273,10.704-14.013,10.704C618.117,62.207,611.838,57.413,611.838,51.503 M659.406,51.503
	c0-6.611-5.832-12.437-14.701-15.89h9.865c3.321-0.392,5.856-2.723,5.856-5.246c0-2.524-2.536-4.83-5.856-5.222v0.018h-18.353
	v-7.565h-20.865v0.012h-5.204c0,0-3.465,1.449,0,3.188c0,0,4.142,0.103,5.204,1.992v2.373H597.24
	c-3.701,0.121-6.659,2.536-6.659,5.258s2.958,5.065,6.659,5.192h9.756c-8.869,3.453-14.695,9.279-14.695,15.89
	c0,10.614,15.021,19.211,33.549,19.211C644.379,70.713,659.406,62.116,659.406,51.503z"/>
<path fill="#142F99" d="M665.491,99.04c-15.142,0-27.421-4.136-27.421-9.231s12.28-9.225,27.421-9.225
	c15.148,0,27.427,4.13,27.427,9.225S680.639,99.04,665.491,99.04 M689.882,29.853h9.225V74.77c-2.856-0.785-5.947-1.473-9.225-2.053
	V29.853z M719.972,88.837V19.451h-8.736v-0.024H677.01V19.42h-6.925h0.006h-6.279c0,0-3.471,1.461,0,3.2
	c0,0,4.148,0.103,5.204,1.992v46.125c-1.165-0.024-2.336-0.06-3.526-0.06c-30.102,0-54.505,8.567-54.505,19.132
	s24.403,19.132,54.505,19.132c30.102,0,54.505-8.567,54.505-19.132C719.996,89.483,720.014,89.163,719.972,88.837z"/>
<g>
</g>
<g>
</g>
<g>
</g>
<g>
</g>
<g>
</g>
<g>
</g>
<g>
</g>
<g>
</g>
<g>
</g>
<g>
</g>
<g>
</g>
<g>
</g>
<g>
</g>
<g>
</g>
<g>
</g>
</svg>
