<?xml version="1.0" encoding="utf-8"?>
<!-- Generator: Adobe Illustrator 27.0.1, SVG Export Plug-In . SVG Version: 6.00 Build 0)  -->
<svg version="1.1" id="레이어_1" xmlns="http://www.w3.org/2000/svg" xmlns:xlink="http://www.w3.org/1999/xlink" x="0px"
	 y="0px" viewBox="0 0 720 252.942" enable-background="new 0 0 720 252.942" xml:space="preserve">
<path d="M200.606,112.936l-6.476,8.404c-0.288,0.374-0.734,0.604-1.209,0.604h-57.218v57.377l2.533,4.519
	c0.187,0.359,0.245,0.776,0.13,1.18c-0.116,0.374-0.374,0.705-0.72,0.906l-12.347,6.778c-0.23,0.115-0.489,0.187-0.734,0.187
	c-0.274,0-0.532-0.072-0.777-0.201c-0.461-0.288-0.748-0.777-0.748-1.31v-69.436H79.751c0,0-6.304,2.374-6.491,2.374
	c-0.403,0-0.82-0.172-1.108-0.489l-11.196-12.189c-0.403-0.431-0.518-1.079-0.274-1.626c0.245-0.561,0.791-0.921,1.396-0.921h60.96
	V62.352c0-0.849,0.691-1.511,1.525-1.511h9.613c0.849,0,1.526,0.661,1.526,1.511v46.742h39.618l16.881-4.734
	c0.504-0.144,1.051-0.015,1.439,0.331l6.778,6.188C201.009,111.411,201.081,112.317,200.606,112.936 M338.126,162.268
	c0.59,0.547,0.662,1.425,0.173,2.058l-6.461,8.404c-0.288,0.36-0.734,0.59-1.209,0.59H217.444c0,0-6.303,2.374-6.476,2.374
	c-0.417,0-0.82-0.172-1.123-0.474l-11.196-12.19c-0.403-0.446-0.518-1.094-0.274-1.64c0.245-0.547,0.791-0.907,1.396-0.907h113.257
	l16.881-4.748c0.504-0.13,1.051-0.015,1.439,0.359L338.126,162.268z M218.58,109.439h99.701c0.676,0,1.252-0.446,1.454-1.079
	c0.201-0.632-0.043-1.309-0.576-1.698l-18.895-13.11c-0.418-0.287-0.95-0.345-1.411-0.172l-10.203,3.972h-40.438l-10.189-3.972
	c-0.475-0.173-1.007-0.115-1.425,0.172l-18.881,13.11c-0.547,0.389-0.791,1.065-0.59,1.698
	C217.329,108.993,217.918,109.439,218.58,109.439 M498.527,187.351c-0.144,0.633-0.647,1.094-1.281,1.18l-19.989,2.547
	c-0.36,0.043-0.705-0.043-1.007-0.216c-19.975-12.52-45.677-36.236-55.492-63.464c-10.548,37.43-47.807,56.8-63.867,63.579
	c-0.187,0.072-0.389,0.101-0.59,0.101c-0.072,0-12.117-1.727-12.117-1.727c-0.662-0.101-1.181-0.604-1.281-1.267
	c-0.101-0.662,0.23-1.31,0.834-1.598c40.323-19.326,63.118-44.18,67.796-73.926h-43.432c0,0-6.289,2.374-6.476,2.374
	c-0.417,0-0.834-0.158-1.123-0.475l-11.196-12.189c-0.402-0.446-0.517-1.094-0.273-1.641c0.245-0.546,0.791-0.892,1.396-0.892
	h61.752V65.504c0-0.849,0.676-1.526,1.526-1.526h10.735c0.82,0,1.512,0.676,1.512,1.526v34.236h37.718l16.881-4.734
	c0.503-0.158,1.036-0.014,1.439,0.331l6.778,6.188c0.575,0.532,0.661,1.411,0.187,2.044l-6.476,8.404
	c-0.288,0.374-0.734,0.59-1.195,0.59h-54.153c10.937,32.48,37.388,51.62,70.732,73.177
	C498.412,186.085,498.671,186.733,498.527,187.351 M659.332,153.518c-0.446,1.079-11.153,26.609-30.236,38.266
	c-0.244,0.158-0.518,0.23-0.791,0.23c-0.417,0-0.82-0.173-1.108-0.475l-6.922-7.426c-0.317-0.331-0.46-0.82-0.374-1.296
	c0.086-0.46,0.374-0.863,0.791-1.079c0.618-0.316,1.238-0.661,1.842-0.993c-4.993-5.915-9.944-12.693-14.42-22.162
	c-11.916,16.736-24.968,25.947-31.386,30.48c-0.259,0.158-0.561,0.259-0.878,0.259c-0.115,0-13.959-3.123-13.959-3.123
	c-0.619-0.144-1.094-0.648-1.181-1.282c-0.071-0.633,0.245-1.252,0.806-1.554c0.273-0.144,26.149-13.873,41.935-36.611
	c-4.044-10.491-6.706-28.537-6.907-46.814h-0.72l-6.562,2.547c-0.46,0.187-0.993,0.129-1.425-0.173l-12.304-8.548
	c-0.547-0.388-0.791-1.079-0.59-1.698c0.187-0.633,0.777-1.065,1.44-1.065h20.147V67.432c0-0.848,0.676-1.525,1.512-1.525h8.059
	c0.82,0,1.511,0.676,1.511,1.525v23.572h32.294c0.676,0,1.252,0.432,1.468,1.065c0.201,0.618-0.043,1.31-0.59,1.698l-12.319,8.548
	c-0.259,0.187-0.561,0.273-0.863,0.273c-0.187,0-0.359-0.028-0.546-0.1l-6.562-2.547h-12.808
	c0.417,15.268,2.058,26.839,4.979,35.143c5.411-9.426,10.289-21.414,11.685-29.013c0.087-0.46,0.374-0.848,0.792-1.065
	c0.402-0.23,0.906-0.245,1.324-0.043l6.087,2.734c0.648,0.302,0.993,0.993,0.863,1.684c-2.345,12.218-11.47,29.789-16.218,37.186
	c3.252,8.577,11.095,18.032,18.751,24.767c12.865-11.34,17.269-23.227,17.326-23.4c0.202-0.517,0.662-0.892,1.224-0.978
	c0.561-0.072,1.108,0.159,1.439,0.619l3.224,4.461C659.476,152.483,659.533,153.029,659.332,153.518 M614.202,86.96
	c0.129,0,0.259-0.014,0.388-0.043l28.178-7.282c0.374-0.101,0.69-0.331,0.892-0.662c0.46-0.719,4.317-7.181,1.094-10.491
	c-2.346-2.417-8.764-2.777-12.376-2.777h-0.676c-0.403,0.015-0.791,0.187-1.065,0.475l-17.528,18.205
	c-0.461,0.503-0.561,1.238-0.216,1.828C613.165,86.687,613.67,86.96,614.202,86.96 M554.134,183.841
	c0.201,0.359,0.244,0.776,0.129,1.18c-0.115,0.374-0.359,0.705-0.719,0.906l-12.347,6.778c-0.23,0.115-0.475,0.187-0.734,0.187
	c-0.259,0-0.532-0.072-0.762-0.201c-0.475-0.288-0.748-0.777-0.748-1.31v-31.905h-19.399c0,0-3.799,1.425-3.972,1.425
	c-0.431,0-0.834-0.187-1.123-0.489l-6.677-7.268c-0.417-0.46-0.518-1.108-0.273-1.655c0.244-0.546,0.791-0.892,1.396-0.892h30.048
	v-3.455l-40.914-27.904c-0.403-0.274-0.662-0.763-0.662-1.253v-4.245c0-0.475,0.245-0.935,0.619-1.224l40.942-29.788
	c0.101-0.072,0.216-0.144,0.331-0.187l-4.95-14.895c-0.158-0.518-0.029-1.079,0.331-1.482c0.561-0.633,5.642-6.117,10.563-6.117
	c4.95,0,10.031,5.484,10.591,6.117c0.36,0.402,0.49,0.964,0.317,1.482l-4.965,14.909c0.116,0.043,0.231,0.101,0.346,0.187
	l40.251,29.774c0.374,0.303,0.618,0.748,0.618,1.224v4.245c0,0.489-0.259,0.964-0.661,1.238l-40.093,27.818v3.555h14.779
	l9.988-2.806c0.503-0.144,1.05-0.015,1.439,0.33l4.03,3.699c0.589,0.532,0.676,1.425,0.187,2.044l-3.857,5.007
	c-0.288,0.374-0.72,0.604-1.209,0.604h-25.356v19.846L554.134,183.841z M551.616,134.753l27.012-18.694L551.616,96.89v12.103h2.417
	l5.944-2.302c0.46-0.201,0.993-0.13,1.396,0.158l11.21,7.786c0.547,0.374,0.777,1.065,0.59,1.698
	c-0.201,0.633-0.791,1.065-1.454,1.065h-20.104V134.753z M538.952,96.314l-27.846,19.744l27.846,19.255v-17.917h-20.925
	c-0.661,0-1.252-0.432-1.453-1.065c-0.202-0.633,0.028-1.324,0.575-1.698l11.196-7.786c0.417-0.288,0.95-0.359,1.425-0.158
	l5.929,2.302h3.253V96.314z M560.092,85.19c0.144,0,0.316-0.029,0.46-0.072l20.306-6.533c0.518-0.173,0.906-0.604,1.021-1.137
	c0.159-0.777,1.44-7.685-2.734-10.16c-1.252-0.748-3.05-1.108-5.497-1.108c-3.8,0-7.829,0.877-8.002,0.921
	c-0.489,0.1-0.892,0.445-1.094,0.935l-5.872,15.081c-0.23,0.561-0.1,1.166,0.302,1.598C559.271,85.018,559.675,85.19,560.092,85.19
	 M508.874,78.585l20.306,6.533c0.158,0.043,0.317,0.072,0.46,0.072h0.015c0.849,0,1.525-0.676,1.525-1.511
	c0-0.259-0.057-0.504-0.172-0.705l-5.829-14.937c-0.187-0.49-0.589-0.835-1.079-0.935c-0.173-0.044-4.217-0.921-8.002-0.921
	c-2.461,0-4.245,0.36-5.498,1.108c-4.173,2.475-2.906,9.383-2.734,10.16C507.954,77.981,508.356,78.412,508.874,78.585 M0.4,108.288
	c-0.533-0.533-0.533-1.382,0-1.915l9.383-9.397c0.532-0.518,1.396-0.518,1.928,0l5.397,5.354c0.533,0.532,0.533,1.396,0.014,1.928
	c-0.532,0.532-1.396,0.532-1.928,0l-4.432-4.389l-7.469,7.455l7.469,7.484l8.836-8.736V20.949c0-0.748,0.605-1.367,1.367-1.367
	h318.63l8.735-8.836l-7.469-7.455l-7.455,7.455l4.39,4.446c0.532,0.533,0.518,1.382-0.014,1.929
	c-0.533,0.518-1.382,0.518-1.928-0.014l-5.339-5.397c-0.532-0.547-0.532-1.397,0-1.929l9.383-9.383c0.532-0.532,1.396-0.532,1.928,0
	l9.383,9.383c0.518,0.532,0.518,1.382,0,1.929l-10.074,10.203c-0.244,0.259-0.604,0.403-0.964,0.403H22.317v84.316
	c0,0.374-0.144,0.72-0.403,0.979l-10.203,10.073c-0.273,0.259-0.619,0.389-0.964,0.389s-0.691-0.144-0.964-0.389L0.4,108.288z
	 M9.783,135.256c0.273-0.259,0.619-0.388,0.964-0.388s0.691,0.129,0.964,0.388l10.203,10.074c0.259,0.259,0.403,0.618,0.403,0.964
	v84.331h317.853c0.36,0,0.72,0.144,0.964,0.417l10.074,10.203c0.518,0.532,0.518,1.381,0,1.914l-9.383,9.383
	c-0.532,0.532-1.396,0.532-1.928,0l-9.383-9.383c-0.532-0.533-0.532-1.382,0-1.914l5.339-5.397c0.547-0.533,1.396-0.547,1.928-0.014
	c0.532,0.532,0.547,1.382,0.014,1.928l-4.39,4.432l7.455,7.469l7.469-7.483l-8.735-8.836H20.964c-0.762,0-1.367-0.604-1.367-1.353
	V146.87l-8.836-8.721l-7.469,7.455l7.469,7.47l4.432-4.404c0.533-0.518,1.396-0.518,1.928,0.014
	c0.518,0.533,0.518,1.397-0.014,1.929l-5.397,5.354c-0.532,0.518-1.396,0.518-1.928-0.015L0.4,146.582
	c-0.533-0.532-0.533-1.396,0-1.928L9.783,135.256z M710.203,117.685c-0.258,0.245-0.604,0.389-0.95,0.389
	c-0.36,0-0.69-0.13-0.964-0.389l-10.217-10.073c-0.245-0.259-0.389-0.605-0.389-0.979V22.317H379.831
	c-0.36,0-0.719-0.144-0.964-0.403l-10.074-10.203c-0.532-0.547-0.532-1.397,0-1.929l9.383-9.383c0.532-0.532,1.396-0.532,1.928,0
	l9.383,9.383c0.532,0.532,0.532,1.382,0,1.929l-5.354,5.397c-0.532,0.532-1.382,0.532-1.914,0.014
	c-0.533-0.547-0.547-1.396-0.015-1.929l4.389-4.446l-7.454-7.455l-7.47,7.455l8.721,8.836h318.644c0.763,0,1.368,0.618,1.368,1.367
	v85.122l8.836,8.736l7.455-7.484l-7.455-7.455l-4.433,4.389c-0.532,0.532-1.396,0.532-1.928,0c-0.532-0.532-0.532-1.396,0-1.928
	l5.411-5.354c0.533-0.518,1.397-0.518,1.914,0l9.397,9.397c0.532,0.533,0.532,1.382,0,1.915L710.203,117.685z M719.601,144.654
	c0.532,0.532,0.532,1.396,0,1.928l-9.397,9.369c-0.517,0.533-1.381,0.533-1.914,0.015l-5.411-5.354
	c-0.532-0.532-0.532-1.396,0-1.929c0.532-0.532,1.396-0.532,1.928-0.014l4.433,4.404l7.455-7.47l-7.455-7.455l-8.836,8.721v85.123
	c0,0.748-0.604,1.353-1.368,1.353H380.392l-8.721,8.836l7.47,7.483l7.454-7.469l-4.389-4.432c-0.532-0.547-0.518-1.396,0.015-1.928
	c0.532-0.533,1.382-0.518,1.914,0.014l5.354,5.397c0.532,0.532,0.532,1.381,0,1.914l-9.383,9.383c-0.532,0.532-1.396,0.532-1.928,0
	l-9.383-9.383c-0.532-0.533-0.532-1.382,0-1.914l10.074-10.203c0.245-0.273,0.604-0.417,0.964-0.417h317.852v-84.331
	c0-0.346,0.144-0.705,0.389-0.964l10.217-10.074c0.274-0.259,0.604-0.388,0.964-0.388c0.345,0,0.691,0.129,0.95,0.388
	L719.601,144.654z M694.403,108.69c-0.374,0-0.705,0.159-0.964,0.403l-12.88,12.98c-0.532,0.547-0.532,1.411,0,1.929
	c0.533,0.532,1.382,0.532,1.914,0l11.945-12.031l14.477,14.506l-14.75,14.851l-18.205-18.32l17.888-17.931
	c0.259-0.259,0.403-0.604,0.403-0.964V26.85c0-0.734-0.604-1.354-1.367-1.354H382.608c-0.36,0-0.705,0.13-0.964,0.389
	l-18.449,18.406c-0.532,0.532-0.532,1.396,0,1.928c0.518,0.533,1.396,0.533,1.928,0l18.047-18.003h308.326v75.336l-18.435,18.493
	c-0.532,0.532-0.532,1.382,0,1.914l20.134,20.277c0.244,0.244,0.604,0.388,0.95,0.388c0.359,0,0.719-0.144,0.964-0.388
	l16.693-16.794c0.518-0.547,0.518-1.397-0.014-1.929l-16.42-16.42C695.108,108.849,694.762,108.69,694.403,108.69 M704.073,125.399
	l-8.462-8.462c-0.575-0.575-1.583-0.575-2.144,0l-8.476,8.462c-0.59,0.59-0.59,1.555,0,2.144l8.476,8.462
	c0.302,0.302,0.676,0.446,1.065,0.446c0.403,0,0.777-0.144,1.079-0.446l8.462-8.462c0.288-0.273,0.446-0.676,0.446-1.079
	C704.519,126.075,704.361,125.672,704.073,125.399 M383.17,224.725l-18.047-18.003c-0.532-0.532-1.41-0.532-1.928,0
	c-0.532,0.532-0.532,1.396,0,1.929l18.449,18.391c0.259,0.259,0.604,0.403,0.964,0.403h310.255c0.762,0,1.367-0.604,1.367-1.353
	v-77.754c0-0.374-0.144-0.705-0.403-0.964l-18.406-18.45c-0.518-0.532-1.396-0.532-1.928-0.014c-0.518,0.532-0.532,1.396,0,1.928
	l18.003,18.061v75.826H383.17z M26.533,116.936l8.462,8.462c0.59,0.59,0.59,1.555,0,2.144l-8.462,8.462
	c-0.302,0.302-0.676,0.446-1.065,0.446c-0.403,0-0.792-0.144-1.079-0.446l-8.462-8.462c-0.288-0.273-0.446-0.676-0.446-1.079
	c0-0.389,0.158-0.792,0.446-1.065l8.462-8.462C24.95,116.361,25.958,116.361,26.533,116.936 M369.541,26.26
	c0.288-0.302,0.446-0.691,0.446-1.079c0-0.374-0.158-0.777-0.446-1.065l-8.476-8.477c-0.273-0.287-0.661-0.431-1.065-0.431
	c-0.403,0-0.791,0.144-1.079,0.431l-8.462,8.477c-0.561,0.561-0.561,1.568,0,2.144l8.462,8.462c0.604,0.589,1.554,0.589,2.144,0
	L369.541,26.26z M377.759,24.605L360.965,7.94c-0.533-0.532-1.397-0.532-1.929,0l-16.42,16.406
	c-0.245,0.273-0.388,0.604-0.388,0.978c0,0.359,0.143,0.705,0.402,0.964l12.981,12.894c0.532,0.517,1.396,0.517,1.928-0.015
	c0.518-0.532,0.518-1.396-0.014-1.928l-12.017-11.916l14.506-14.506l14.851,14.75l-18.334,18.205l-17.931-17.888
	c-0.259-0.259-0.605-0.389-0.95-0.389H27.123c-0.748,0-1.353,0.619-1.353,1.354v77.264c0,0.36,0.144,0.705,0.389,0.964
	l17.902,17.931l-18.205,18.32l-14.765-14.851l14.492-14.506l11.93,12.031c0.533,0.532,1.396,0.532,1.928,0
	c0.533-0.518,0.533-1.382,0-1.929l-12.88-12.98c-0.259-0.244-0.604-0.403-0.964-0.403c-0.36,0-0.705,0.159-0.964,0.403l-16.42,16.42
	c-0.533,0.532-0.533,1.382,0,1.929l16.679,16.794c0.245,0.244,0.59,0.388,0.964,0.388c0.36,0,0.705-0.144,0.95-0.388L46.94,123.96
	c0.518-0.532,0.518-1.382,0-1.914l-18.449-18.493V28.217h308.585l18.493,18.435c0.532,0.532,1.396,0.532,1.914,0l20.277-20.105
	c0.259-0.273,0.402-0.604,0.402-0.978C378.161,25.209,378.018,24.864,377.759,24.605 M350.459,228.826l8.462,8.462
	c0.288,0.288,0.676,0.461,1.079,0.461c0.403,0,0.791-0.173,1.065-0.461l8.476-8.462c0.288-0.288,0.446-0.676,0.446-1.065
	s-0.158-0.777-0.446-1.079l-8.476-8.462c-0.59-0.59-1.54-0.59-2.144,0l-8.462,8.462
	C349.898,227.258,349.898,228.251,350.459,228.826 M377.759,226.394l-20.277-20.119c-0.518-0.518-1.382-0.518-1.914,0
	l-18.493,18.449H28.491v-75.826l18.003-18.061c0.532-0.532,0.532-1.396,0-1.928c-0.533-0.518-1.396-0.518-1.928,0.014l-18.406,18.45
	c-0.245,0.258-0.389,0.589-0.389,0.964v77.754c0,0.748,0.604,1.353,1.353,1.353h310.528c0.345,0,0.691-0.144,0.95-0.403
	l17.931-17.874l18.334,18.205l-14.851,14.751l-14.506-14.506l12.017-11.916c0.532-0.532,0.532-1.381,0.014-1.914
	c-0.532-0.547-1.396-0.547-1.928-0.014l-12.981,12.88c-0.259,0.259-0.402,0.604-0.402,0.964c0,0.374,0.143,0.705,0.388,0.964
	l16.42,16.42c0.532,0.533,1.396,0.547,1.929,0l16.794-16.665c0.259-0.259,0.402-0.604,0.402-0.964
	C378.161,226.999,378.018,226.653,377.759,226.394 M54.61,49.487h-4.907v4.907h4.907V49.487z M49.703,56.408h4.907v6.62h-4.907
	V56.408z M37.211,91.637l-5.67,6.217v-66.63H92.3l-5.181,5.685H54.61v10.548h-4.907V36.909H37.125v12.578h10.549v4.892H37.211
	V91.637z M47.688,65.057h8.951v-8.649h8.721v-8.951h-8.721v-8.533h28.638L39.241,89.421V56.408h8.447V65.057z M39.14,38.924h8.534
	v8.534H39.14V38.924z M63.331,54.379h-6.706v-4.907h6.706V54.379z M54.61,198.562h-4.907v4.907h4.907V198.562z M49.703,189.914
	h4.907v6.605h-4.907V189.914z M37.211,198.562h10.463v4.907H37.125v12.578h12.578v-10.563h4.907v10.563h32.509l5.181,5.67H31.542
	v-66.63l5.67,6.217V198.562z M47.688,196.519h-8.447V163.52l46.036,50.498H56.639v-8.534l8.721-0.014v-8.951h-8.721v-8.62h-8.951
	V196.519z M39.14,205.484h8.534v8.534H39.14V205.484z M56.639,198.562h6.706v4.893h-6.706V198.562z M665.391,54.379h4.907v-4.907
	h-4.907V54.379z M670.298,63.028h-4.907v-6.62h4.907V63.028z M682.789,54.379h-10.477v-4.892h10.563V36.909h-12.577v10.548h-4.907
	V36.909h-32.524l-5.167-5.685h60.744v66.63l-5.656-6.217V54.379z M672.312,56.408h8.448v33.013l-46.037-50.497h28.639v8.533h-8.721
	v8.951h8.721v8.649h8.95V56.408z M680.846,47.457h-8.534v-8.534h8.534V47.457z M663.362,54.379h-6.706v-4.907h6.706V54.379z
	 M665.391,203.469h4.907v-4.907h-4.907V203.469z M670.298,196.519h-4.907v-6.605h4.907V196.519z M682.789,161.304l5.656-6.217v66.63
	H627.7l5.167-5.67h32.524v-10.563h4.907v10.563h12.577v-12.578h-10.563v-4.907h10.477V161.304z M672.312,187.899h-8.95v8.62h-8.721
	v8.951l8.721,0.014v8.534h-28.639l46.037-50.498v32.999h-8.448V187.899z M680.846,214.018h-8.534v-8.534h8.534V214.018z
	 M656.655,198.562h6.706v4.893h-6.706V198.562z"/>
</svg>
