<?xml version="1.0" encoding="utf-8"?>
<!-- Generator: Adobe Illustrator 27.2.0, SVG Export Plug-In . SVG Version: 6.00 Build 0)  -->
<svg version="1.1" id="레이어_1" xmlns="http://www.w3.org/2000/svg" xmlns:xlink="http://www.w3.org/1999/xlink" x="0px"
	 y="0px" viewBox="0 0 323.54 54.69" enable-background="new 0 0 323.54 54.69" xml:space="preserve">
<g>
	<rect x="216.78" y="28.65" fill="#FF0000" width="1.99" height="25.44"/>
	<polygon fill="#FF0000" points="147.6,28.65 129.03,28.65 129.03,30.64 137.26,30.64 137.26,54.1 139.25,54.1 139.25,30.64 
		147.6,30.64 	"/>
	<polygon fill="#FF0000" points="198.91,28.65 180.34,28.65 180.34,30.64 188.58,30.64 188.58,54.1 190.56,54.1 190.56,30.64 
		198.91,30.64 	"/>
	<polygon fill="#FF0000" points="323.54,28.65 304.97,28.65 304.97,30.64 313.21,30.64 313.21,54.1 315.19,54.1 315.19,30.64 
		323.54,30.64 	"/>
	<polygon fill="#FF0000" points="94.68,52.1 94.68,41.84 105.45,41.84 105.45,39.85 94.68,39.85 94.68,30.64 105.2,30.64 
		105.2,28.66 105.2,28.65 92.69,28.65 92.69,54.09 105.78,54.09 105.78,52.1 	"/>
	<polygon fill="#FF0000" points="151.74,52.1 151.74,41.84 162.51,41.84 162.51,39.85 151.74,39.85 151.74,30.64 162.25,30.64 
		162.25,28.66 162.25,28.65 149.75,28.65 149.75,54.09 162.84,54.09 162.84,52.1 	"/>
	<polygon fill="#FF0000" points="270.63,52.1 270.63,41.84 281.4,41.84 281.4,39.85 270.63,39.85 270.63,30.64 281.15,30.64 
		281.15,28.65 268.64,28.65 268.64,54.09 281.73,54.09 281.73,52.1 	"/>
	<polygon fill="#FF0000" points="110.29,33.57 110.29,54.06 110.29,54.06 108.3,54.06 108.3,27.85 124.88,48.97 124.88,28.65 
		126.87,28.65 126.87,54.69 	"/>
	<polygon fill="#FF0000" points="223.24,33.57 223.24,54.06 223.25,54.06 221.26,54.06 221.26,27.85 237.84,48.97 237.84,28.65 
		239.83,28.65 239.83,54.69 	"/>
	<polygon fill="#FF0000" points="286.23,33.57 286.23,54.06 286.24,54.06 284.25,54.06 284.25,27.85 300.82,48.97 300.82,28.65 
		302.82,28.65 302.82,54.69 	"/>
	<polygon fill="#FF0000" points="244.31,35.85 244.31,54.06 242.32,54.06 242.32,27.88 254.23,50.08 266.15,27.88 266.15,54.06 
		266.16,54.06 264.17,54.06 264.16,35.85 254.23,54.21 	"/>
	<path fill="#FF0000" d="M173.31,43.13h0.06c1.645-0.003,3.239-0.576,4.51-1.62c1.539-1.293,2.401-3.22,2.34-5.23
		c0.088-2.221-0.8-4.369-2.43-5.88c-1.159-1.059-2.652-1.678-4.22-1.75h-8.21v25.44h2v-11h3.58l7.19,11h2.38L173.31,43.13z
		 M167.31,41.13V30.65h6.22c1.47,0,4.66,1.35,4.66,5.63c0.079,2.606-1.97,4.781-4.576,4.86c-0.095,0.003-0.19,0.003-0.284,0
		L167.31,41.13z"/>
	<path fill="#FF0000" d="M215.52,54.06l-11-26.16l-11.13,26.16h2.15l3.28-7.93h11.28l3.27,7.93H215.52z M199.65,44.14l4.82-11.49
		l4.81,11.49H199.65z"/>
</g>
<g>
	<path d="M157.63,13.3c-0.006-7.34,5.94-13.294,13.28-13.3s13.294,5.94,13.3,13.28c0.006,7.34-5.94,13.294-13.28,13.3
		c-0.007,0-0.013,0-0.02,0C163.576,26.58,157.63,20.634,157.63,13.3 M159.63,13.3c0,6.235,5.055,11.29,11.29,11.29
		c6.235,0,11.29-5.055,11.29-11.29s-5.055-11.29-11.29-11.29c-0.003,0-0.007,0-0.01,0c-6.235,0.011-11.284,5.065-11.29,11.3"/>
	<polygon points="159.75,0.65 141.18,0.65 141.18,2.63 149.41,2.63 149.41,26.09 151.4,26.09 151.4,2.63 159.75,2.63 	"/>
	<path d="M139.2,20.11c-3.764,4.978-10.851,5.962-15.829,2.199s-5.962-10.851-2.199-15.829c3.764-4.978,10.851-5.962,15.829-2.199
		c0.831,0.628,1.571,1.368,2.199,2.199h2.41c-3.764-6.301-11.923-8.358-18.225-4.595s-8.358,11.923-4.595,18.225
		c3.764,6.301,11.923,8.358,18.225,4.595c1.888-1.128,3.467-2.707,4.595-4.595H139.2z"/>
	<path d="M194.37,15.12h0.06c1.645-0.005,3.238-0.577,4.51-1.62c1.54-1.292,2.4-3.221,2.33-5.23c0.09-2.219-0.794-4.367-2.42-5.88
		c-1.154-1.064-2.651-1.681-4.22-1.74h-8.22v25.44h2v-11h3.6l7.19,11h2.37L194.37,15.12z M188.37,13.12V2.64h6.23
		c1.47,0,4.65,1.35,4.66,5.63c0.079,2.606-1.97,4.781-4.576,4.86c-0.095,0.003-0.19,0.003-0.284,0L188.37,13.12z"/>
	<polygon points="109.01,0.65 100.99,20.83 92.95,0.65 90.81,0.65 100.99,26.72 111.15,0.65 	"/>
	<rect x="112.725" y="0.65" width="1.99" height="25.44"/>
</g>
<g>
	<g>
		<path d="M37.46,4.87c-2.28,1-2.24,2.85-1.25,5.73L16.15,25.18c-0.648,0.086-1.225,0.451-1.58,1c-2.79,0.18-5,1-5.68,2.07
			l-0.37,0.06c0-1.79-0.74-0.95-0.74-2.68v-1.44c0.372-0.195,0.607-0.58,0.61-1c-0.007-0.624-0.519-1.124-1.143-1.117
			c-0.624,0.007-1.124,0.519-1.117,1.143c0.005,0.405,0.226,0.777,0.58,0.974v1.82c0,1.68,0.71,1,0.74,2.6
			c-0.43,0-2.35,0.89-2.35,2.29v2.61l-1.21,2.65l3.35,6.85l21.68-0.67l-2.21-4.52c5.15-2.11,5-4.9,10.16-5.4
			c0.59,1,2.89,0.88,2.87-0.49v-2.21c0.42-0.14,0.93-2.3-0.75-2.3l-0.07-1.41l3.32-0.43c1.09,1.81,2.3,2.76,3.88,2.12
			c2.71-1.05,3-7,0.58-13.32S40.14,3.71,37.46,4.87 M37.37,5.87c1.41-0.9,3.09,0.23,4.67,2.21c0.39,0.51-1.81,3.84-3.17,4.59
			c-0.306-0.502-0.64-0.986-1-1.45c0,0,1.11-2.92,0.19-3.56s-0.45,2.49-0.9,2c-0.83-0.88-1-3,0.26-3.78 M36.26,12.18
			c0.395,0.454,0.763,0.931,1.1,1.43l-17.69,11.6c-0.237-0.338-0.527-0.636-0.86-0.88L36.26,12.18z M18.06,25.01
			c0.761,0.454,1.265,1.239,1.36,2.12l-0.71,0.14c-0.02-0.226-0.081-0.446-0.18-0.65c-0.199-0.511-0.576-0.933-1.06-1.19
			L18.06,25.01z M16.42,26.13c0.764,0.005,1.38,0.626,1.38,1.39c0,0.757-0.613,1.37-1.37,1.37c-0.003,0-0.007,0-0.01,0
			c-0.768,0.011-1.399-0.602-1.41-1.37c0-0.003,0-0.007,0-0.01c0.011-0.767,0.633-1.385,1.4-1.39 M13.47,27.58l0.74-0.09
			c-0.039,1.231,0.928,2.26,2.159,2.299c0.334,0.011,0.666-0.054,0.971-0.189h3.32c-1.477,0.718-3.109,1.062-4.75,1
			c-3,0-5.5-0.71-5.5-1.59c0-0.64,1.25-1.19,3.06-1.44 M22.54,30.26c0.225-0.166,0.422-0.369,0.58-0.6l13.48,0.18
			c-6,0-8.13,5.49-12.82,5.68v-3.33L22.54,30.26z M23.01,32.19l-5.51,0.19v-0.61c1.532-0.16,3.03-0.559,4.44-1.18L23.01,32.19z
			 M16.78,36.47c0.551,0.034,1.026-0.385,1.06-0.936c0.003-0.041,0.003-0.083,0-0.124c-0.011-0.291-0.133-0.566-0.34-0.77v-0.26
			l4-0.12v3.22l-9,0.3v-3.25l3.46-0.1v0.24c-0.192,0.199-0.303,0.463-0.31,0.74c-0.001,0.563,0.438,1.028,1,1.06 M8.65,29.54
			c0.52,1.37,3.43,2.32,7.15,2.32h0.21v0.56l-5.79,0.21l-1.69-2.77c0-0.11,0-0.15,0-0.28L8.65,29.54z M7.33,29.71v1.44
			c0,0.39,0.58,0.57,1,0.57l0.66,1.1c-3.33,0-3.58-2.28-1.65-3.11 M6.42,35.48v-2.16c0.775,0.525,1.707,0.769,2.64,0.69v2.14
			c-0.898,0.058-1.789-0.189-2.53-0.7 M8.9,39.54l-1.08-2.16c0.658,0.142,1.327,0.219,2,0.23l0.42,0.71l15-0.48l0.58,1.17L8.9,39.54
			z M36.74,31.71c-5.76,0-7.68,6-12.95,5.62v-1c4.87,0,6.82-5.65,12.95-5.65V31.71z M38.82,31.56c0,0.62-1.15,0.59-1.15,0v-1.68
			h1.15C38.82,29.88,38.82,31.19,38.82,31.56 M38.49,29.01l-20.15-0.3c0.138-0.213,0.243-0.445,0.31-0.69c0,0,19.28,0.16,19.88,0.19
			c0.221,0,0.4,0.179,0.401,0.399s-0.179,0.4-0.399,0.401c0,0-0.001,0-0.001,0 M27.43,27.32l8.7-1v1.11c-2.2,0-5.79-0.06-8.74-0.08
			 M36.95,24.26h0.85l0,0l0.21,3.15h-0.87L36.95,24.26z M20.37,26.82c-0.097-0.471-0.269-0.924-0.51-1.34l18.26-10.55
			c1.115,2.042,1.94,4.23,2.45,6.5L20.37,26.82z M42.31,20.91c-0.525-2.445-1.397-4.802-2.59-7c1.546-0.718,3.002-1.614,4.34-2.67
			c0.653,1.102,1.221,2.252,1.7,3.44c0.803,1.797,1.271,3.725,1.38,5.69c-1.623-0.011-3.243,0.157-4.83,0.5"/>
		<path d="M51.09,8.42c-0.34-0.11-0.44,0.33-0.47,0.47s-0.22,0.31-0.2,0.55s0.31,0.23,0.45,0.37c0.286,0.281,0.627,0.502,1,0.65
			c0.3,0.09,0.4,0.05,0.34-0.11s-1.06-1.92-1.1-1.93"/>
		<path d="M57.82,9.01c0-1.35,0.25-1.6-0.26-2.31c-0.37-0.5-0.37-0.09-1.17-0.53c-0.539-0.374-1.21-0.505-1.85-0.36
			C54,6.02,52.48,6.29,53.08,8.29c0.86,2.85,0.21,1.69,0.18,3c0,1,1.24,1.19,1.72,0.72C56.26,10.72,57.81,9.66,57.82,9.01"/>
		<path d="M74.16,39.63l0.14-0.29c2.32-6.1,0.34-7.48,0.28-8c-0.424-6.884-3.647-13.294-8.92-17.74c-0.58-2-0.92-2.75-4.73-5.79
			c0,0,0-1.82-2.51-3.8c-1.09-0.87-1.13-2.28-4-1.86c0,0-1.45-2.24-3.48-1.61c-0.923,0.201-1.678,0.862-2,1.75
			c-1.52,2.48,0.57,1.19,1.41,1.06l0.11,0.23c0.46,0.14-1.85,0.19-2,2.41c0,0.1-0.7,0.3-0.6,0.92c0,0-2.09,0.8-1.94,2
			c0,0.18-1.23,0.73,0.06,2.21c0.431,1.03,1.12,1.933,2,2.62c0.75,0.55,1.42,0.08,1.61,0.43c0.93,1.68,3-0.07,3.29,0.83
			c-0.2-0.56,0.43,0.91-0.26,1.69c-0.69,0.78-1,4-0.11,6.11c-0.88,8.18,1.19,9.67,0.24,15.46c-1.44,0.85-2.53,1.78-2.15,3
			c0.171,0.822,0.948,1.372,1.78,1.26c1.72,0.27,3.43,0,4.09-1.07h0.4c0.34,2,1.87,1.6,4,1.6c0.678,0.006,1.352-0.092,2-0.29
			c0,0,0.1,0.54,1.36,0.58c1.339,0,2.675-0.097,4-0.29c5.42,0,6,0.23,5.88-3.38 M52.63,13.14c-0.54,0-0.14,0.68-1.34,0.63
			c-1-0.06-0.64-0.18-0.54-0.76c0-0.36-1,0.22-2.07-0.17c-0.62-0.23-1-0.44-1.77-1.73c-0.29-0.46,0.36-0.49,0.4-0.89
			s-1-0.63-0.14-1.59s0.57,0,2-1.62c0.53-0.56,0.13-1.34,0.54-1.85s0.8,0.2,2.41-0.79s1.53-0.3,2.15-0.61
			c0.217-0.077,0.415-0.199,0.58-0.36c0,0,1.1-1,2.83,1.53c1.63,2.38,1.54,0.49,2.13,3.53c0.32,1.69,0.32,4.12-3.2,6
			c-1.36,0.74-2.54-0.32-1.54-0.9c0.85-0.47,0.47-0.58-2.44-0.45 M53.78,41.41c-2.5,0.26-2.69-1.11-0.06-2.64
			c0.47-6.56-1.64-11.69,0.82-12.74c1.83-0.77,0.73,7.84,0.71,13.31C56.19,40.79,54.56,41.34,53.78,41.41 M57.01,40.49H56.8
			c-0.61-1.7-0.89-4.6,0-4.84c-0.228-2.2-0.194-4.418,0.1-6.61c0,0,0.24-0.34,1.5,0.61c0.089,2.08,0.32,4.151,0.69,6.2
			c-0.18,1.044-0.27,2.101-0.27,3.16c0,0-1.53,0.28-1.79,1.5 M64.14,42.26c-0.57,0.05-0.69-0.22-0.67-0.8
			c0.07-1.06,1.48-1.29,3.28-1.11c3.53,0.32,2.29-0.8,1.42-2.29c-0.28-0.48-1.37-1.35-2-0.07c-0.81,1.62-2.24-0.34-2.12-2.74
			c0-0.7,0.06-3,2.29-3.77c2-0.69,1.48-2.51-0.36-1.25c-1.51,1-1.87,0.85-2.13-0.77c-0.12-0.787-0.012-1.592,0.31-2.32
			c0.29-1.16-0.88-1.95-1.36-0.23c-0.73,2.69-0.14,3.74-0.14,3.74c-0.491,1.96-0.617,3.994-0.37,6
			c-0.545,1.372-0.787,2.846-0.71,4.32c0.48,0.89,0.13,1.07-0.71,1.07c-0.373-0.021-0.747-0.021-1.12,0
			c-2.17,0.27-2.2-1.69-0.07-2.35l0.43-4.46c-0.71-4.8-0.45-6-0.45-6c-1.31-3.9-0.51-4.32-1.09-4.6
			c-1.328-0.611-2.563-1.405-3.67-2.36c-1.19-0.66-2.63-5.42-0.08-3.35c0.79,0.61-0.22-1.76,0.38-1.44c0,0,5.54-1.71,6-7.31
			c1.696,0.953,2.981,2.499,3.61,4.34c4.925,4.39,7.984,10.497,8.55,17.07c1.57,5.22-1.13,8.2-1.13,8.2c0.47,1,0.19,2.39-1.07,2.26
			c-2.335-0.115-4.676-0.042-7,0.22"/>
	</g>
	<path d="M26.25,47.01l-1.14,7.09h1.61l0.25-1.8h1.14l0.26,1.8h1.64l-1.16-7.09H26.25z M27.15,51.01l0.4-2.88l0.39,2.88H27.15z"/>
	<path d="M0.01,48.6v1.13h1.3V48.6c-0.243,0-0.44-0.197-0.44-0.44c0-0.243,0.197-0.44,0.44-0.44v-0.6C0.88,47.12,0,47.3,0,48.6"/>
	<path d="M32.92,49.86l-0.73-0.23c-0.15-0.07-0.4-0.13-0.4-0.41v-0.65c-0.011-0.215,0.154-0.398,0.369-0.41
		c0.01-0.001,0.02-0.001,0.031,0h0.21c0.221,0.005,0.395,0.189,0.39,0.41c0,0,0,0,0,0v0.56h1.45v-0.8
		c-0.005-0.787-0.643-1.425-1.43-1.43h-1.15c-0.79,0-1.43,0.64-1.43,1.43l0,0v1.13c0,0.78,0.38,1.21,1.43,1.55l0.74,0.23
		c0.13,0.06,0.39,0.2,0.39,0.4v0.87c-0.005,0.213-0.177,0.385-0.39,0.39h-0.21c-0.215,0.006-0.394-0.165-0.4-0.38
		c0-0.003,0-0.007,0-0.01v-0.82h-1.56v1c0,0.784,0.636,1.42,1.42,1.42c0.003,0,0.007,0,0.01,0h1.26c0.786,0,1.425-0.634,1.43-1.42
		v-1.28C34.35,50.61,33.96,50.21,32.92,49.86"/>
	<polygon points="6.44,49.92 5.34,49.92 5.34,47.03 3.79,47.03 3.79,54.1 5.34,54.1 5.34,51.19 6.44,51.19 6.44,54.1 8.01,54.1 
		8.01,47.03 6.44,47.03 	"/>
	<polygon points="21.42,51.9 20.56,47.03 18.16,47.03 18.16,54.1 19.58,54.1 19.58,48.95 20.71,54.1 22.1,54.1 23.25,48.95 
		23.25,54.1 24.65,54.1 24.65,47.03 22.24,47.03 	"/>
	<path d="M1.93,48.6v1.13h1.3V48.6c-0.243,0.052-0.482-0.103-0.534-0.346c-0.052-0.243,0.103-0.482,0.346-0.534
		c0.062-0.013,0.126-0.013,0.189,0v-0.6C2.81,47.12,1.93,47.3,1.93,48.6"/>
	<polygon points="34.51,48.3 35.61,48.3 35.61,54.1 37.17,54.1 37.17,48.3 38.29,48.3 38.29,47.03 34.51,47.03 	"/>
	<path d="M13.7,49.86l-0.69-0.23c-0.14-0.07-0.39-0.13-0.4-0.4v-0.67c0-0.221,0.179-0.4,0.4-0.4h0h0.2c0.221,0,0.4,0.179,0.4,0.4
		c0,0.003,0,0.007,0,0.01v0.56h1.4v-0.8c-0.005-0.787-0.643-1.425-1.43-1.43h-1.14c-0.79,0-1.43,0.64-1.43,1.43l0,0v1.13
		c0,0.78,0.39,1.21,1.43,1.55l0.73,0.23c0.15,0.06,0.4,0.2,0.4,0.4v0.87c-0.005,0.217-0.183,0.39-0.4,0.39h-0.16
		c-0.217,0-0.395-0.173-0.4-0.39v-0.82h-1.6v1c0,0.784,0.636,1.42,1.42,1.42c0.003,0,0.007,0,0.01,0h1.26
		c0.79,0.006,1.434-0.63,1.44-1.42c0,0,0,0,0,0v-1.28C15.14,50.61,14.73,50.21,13.7,49.86"/>
	<path d="M71.76,49.92v-1.59c-0.011-0.787-0.652-1.42-1.44-1.42h-1.25c-0.791,0-1.435,0.639-1.44,1.43v4.41
		c0.006,0.79,0.65,1.426,1.44,1.42c0,0,0,0,0,0h1.25c0.788,0,1.429-0.633,1.44-1.42v-1.56h-1.57v1.32
		c-0.005,0.213-0.177,0.385-0.39,0.39h-0.21c-0.217,0-0.395-0.173-0.4-0.39v-3.94c-0.011-0.21,0.149-0.389,0.359-0.4
		c0.014-0.001,0.027-0.001,0.041,0h0.21c0.217,0.005,0.39,0.183,0.39,0.4v1.35H71.76z"/>
	<polygon points="57.33,52.94 56.52,47.03 54.89,47.03 56.05,54.1 58.64,54.1 59.78,47.03 58.17,47.03 	"/>
	<polygon points="74.21,51.19 75.64,51.19 75.64,49.92 74.21,49.92 74.21,48.28 75.82,48.28 75.82,47.03 72.65,47.03 72.65,54.1 
		75.95,54.1 75.95,52.84 74.21,52.84 	"/>
	<polygon points="40.21,51.19 41.64,51.19 41.64,49.92 40.21,49.92 40.21,48.28 41.82,48.28 41.82,47.03 38.65,47.03 38.65,54.1 
		41.96,54.1 41.96,52.84 40.21,52.84 	"/>
	<path d="M62.8,46.91h-1.25c-0.784,0-1.42,0.636-1.42,1.42c0,0.003,0,0.007,0,0.01v4.41c-0.006,0.779,0.621,1.414,1.4,1.42
		c0.007,0,0.013,0,0.02,0h1.25c0.782-0.005,1.415-0.638,1.42-1.42v-4.42C64.215,47.548,63.582,46.915,62.8,46.91 M62.65,52.51
		c0.011,0.204-0.145,0.378-0.349,0.39c-0.01,0.001-0.02,0.001-0.031,0h-0.21c-0.215,0-0.39-0.175-0.39-0.39v-3.94
		c-0.011-0.21,0.15-0.388,0.359-0.399c0.007,0,0.014-0.001,0.021-0.001h0.22c0.204-0.006,0.375,0.154,0.381,0.359
		c0,0.014,0,0.028-0.001,0.041L62.65,52.51z"/>
	<path d="M51.43,49.86l-0.74-0.23c-0.14-0.07-0.37-0.13-0.37-0.4v-0.66c-0.006-0.221,0.169-0.404,0.39-0.41c0.003,0,0.007,0,0.01,0
		h0.2c0.204-0.012,0.379,0.143,0.392,0.347c0.001,0.021,0.001,0.042-0.002,0.063v0.56h1.46v-0.8c-0.005-0.787-0.643-1.425-1.43-1.43
		h-1.17c-0.779-0.006-1.415,0.621-1.42,1.4c0,0.01,0,0.02,0,0.03v1.13c0,0.78,0.38,1.21,1.42,1.55l0.72,0.23
		c0.15,0.06,0.39,0.2,0.39,0.4v0.87c0.011,0.204-0.145,0.379-0.349,0.39c-0.014,0.001-0.027,0.001-0.041,0h-0.2
		c-0.215-0.005-0.39-0.175-0.4-0.39v-0.82h-1.54v1c-0.006,0.779,0.621,1.414,1.4,1.42c0.007,0,0.013,0,0.02,0h1.26
		c0.773,0.006,1.405-0.617,1.41-1.39c0-0.01,0-0.02,0-0.03v-1.28C52.84,50.61,52.46,50.21,51.43,49.86"/>
	<path d="M76.32,48.25c0.246-0.037,0.475,0.132,0.512,0.378c0.037,0.246-0.132,0.475-0.378,0.512c-0.044,0.007-0.089,0.007-0.134,0
		v0.6c0.42,0,1.3-0.19,1.3-1.49v-1.12h-1.3V48.25z"/>
	<path d="M45.16,47.01h-2.72v7.07h1.57v-2.42h0.63c0.193,0.009,0.35,0.158,0.37,0.35v2.05h1.56v-1.8
		c-0.01-0.537-0.324-1.022-0.81-1.25c0.5-0.23,0.82-0.73,0.82-1.28v-1.28c0.017-0.779-0.601-1.423-1.38-1.44
		C45.187,47.01,45.173,47.01,45.16,47.01 M45.01,50.01c0,0.215-0.174,0.39-0.39,0.39c-0.003,0-0.007,0-0.01,0h-0.6v-2.12h0.63
		c0.21-0.012,0.389,0.149,0.401,0.358c0.001,0.017,0.001,0.035-0.001,0.052L45.01,50.01z"/>
	<path d="M46.92,48.25c0.246-0.037,0.475,0.132,0.512,0.378c0.037,0.246-0.132,0.475-0.378,0.512c-0.044,0.007-0.089,0.007-0.134,0
		v0.6c0.4,0,1.29-0.19,1.29-1.49v-1.12h-1.29V48.25z"/>
	<path d="M78.21,48.25c0.246-0.037,0.475,0.132,0.512,0.378c0.037,0.246-0.132,0.475-0.378,0.512c-0.044,0.007-0.089,0.007-0.134,0
		v0.6c0.42,0,1.3-0.19,1.3-1.49v-1.12h-1.3V48.25z"/>
	<rect x="65.18" y="47.03" width="1.56" height="7.07"/>
	<rect x="8.77" y="47.03" width="1.56" height="7.07"/>
</g>
</svg>
