<?xml version="1.0" encoding="utf-8"?>
<!-- Generator: Adobe Illustrator 27.1.1, SVG Export Plug-In . SVG Version: 6.00 Build 0)  -->
<svg version="1.1" id="레이어_1" xmlns="http://www.w3.org/2000/svg" xmlns:xlink="http://www.w3.org/1999/xlink" x="0px"
	 y="0px" viewBox="0 0 720 224.36" enable-background="new 0 0 720 224.36" xml:space="preserve">
<path d="M216.579,117.696c-0.186-3.337-0.324-6.586-0.386-9.627c-0.12-6.001-0.013-11.36,0.355-15.814l0.78-9.667l-35.604-2.877
	l-2.65-38.281c0,0-12.131,1.046-13.762,1.188c0.142-11.138,0.35-20.269,0.62-27.178l0.381-9.689l-50.434-1.946l-0.363,9.698
	c-0.332,8.532-0.572,19.834-0.727,34.004c-11.652,1.232-28.025,3.027-35.874,4.18l-9.609,1.418l7.371,49.911l9.591-1.409
	c4.813-0.714,14.91-1.893,28.291-3.324c0.009,8.966,0.018,26.177,0.049,38.379L82.34,108.987l-6.325,7.375
	c-1.565,1.817-4.02,4.224-6.657,6.675C61.571,99.732,54.768,74.575,54.506,61.97c0-0.111-0.098-10.043-0.098-10.043L3.948,52.445
	l0.098,9.707c0.332,31.438,21.168,90.267,31.221,113.824l13.585,31.881l26.678-23.189l8.24-7.149
	c9.8-8.359,23.291-19.856,30.551-28.313l0.301-0.35c-0.009,1.046,0,1.622,0,1.622c0.058,21.877,0.111,39.15-0.027,45.647
	l-0.195,9.698l50.443,1.033l0.204-9.693c0.137-7.109,0.084-24.634,0.027-46.826c0,0-0.035-39.101-0.062-57.043
	c0.27-0.022,0.576-0.049,0.922-0.084c-1.245,25.751,2.713,60.965,6.351,77.901l1.635,7.646l27.812,14.706l9.937-7.158
	c20.614-14.821,32.231-24.129,38.853-31.083l6.671-7.03l-36.57-34.757C220.621,113.432,218.507,115.653,216.579,117.696
	 M667.868,4.08l-3.639,9.002c-12.175,30.059-26.026,71.08-32.683,90.812l-4.924,14.6l0.687,0.226
	c-0.984,1.095-1.786,2.358-2.314,3.79l-0.235,0.598l-27.945-20.632l-5.882,6.56c-12.3,13.691-24.834,21.869-33.601,22.148
	c-0.913-1.126-2.154-2.708-3.754-4.858c-5.296-7.096-11.307-15.163-21.244-19.692c-5.101-2.318-10.323-3.559-15.663-3.856
	c3.01-19.293,6.586-38.786,9.769-53.014l2.132-9.467L479.317,29.26l-2.114,9.476c-4.113,18.327-8.505,43.112-11.759,65.358
	c-3.178-6.697-7.646-12.747-13.283-18.013l8.244,0.917l1.09-9.64c1.197-10.682,4.654-31.088,8.585-50.798l1.91-9.512l-49.481-9.906
	l-1.893,9.507c-1.21,6.032-2.367,12.065-3.431,17.915c-0.129-1.405-0.199-2.26-0.199-2.296c0.288-0.714,0.9-2.221,0.9-2.221
	s-0.931-0.168-1.126-0.199c-0.248-2.828-0.541-6.072-0.541-6.072s-11.971,0.993-12.158,1.002c-0.567,0.044-1.086,0.08-1.166,0.089
	c0.031-0.102,0.102-0.306,0.133-0.381l0.075-0.151l-0.022-0.013c0.044-0.146,0.293-0.829,0.293-0.829s-1.631-0.665-3.014-1.228
	c0-0.102-1.68-14.449-1.68-14.449s-10.553,1.135-10.606,1.148c-1.197-0.802-2.881-1.924-2.881-1.924s-0.625,1.556-0.949,2.327
	c-6.905,0.745-35.741,3.838-35.741,3.838s1.454,12.494,1.72,14.662c-11.138,0.652-22.015,1.356-28.867,2.057l-9.658,0.984
	l5.097,50.208l9.645-0.984c2.167-0.222,4.893-0.448,7.978-0.669c-6.936,4.428-12.871,9.707-17.547,15.854
	c-3.391,4.454-6.28,9.591-8.59,15.269c-0.501,1.245-0.971,2.518-1.414,3.781c-2.482-10.535-5.279-21.434-9.188-32.993l-3.107-9.192
	l-9.175,3.107L246.776,88.31l3.098,9.197c4.508,13.368,7.38,26.079,10.425,39.544c2.291,10.11,4.645,20.552,7.761,31.314
	l2.686,9.317l39.877-11.515c1.72,2.744,3.661,5.283,5.846,7.579c-1.658,2.766-2.93,5.979-2.859,9.534
	c0.031,1.458,0.284,2.97,0.816,4.516c4.534,13.248,23.282,13.549,47.017,13.922c4.219,0.062,8.776,0.142,13.115,0.315
	c-0.86,1.76-1.409,3.732-1.365,5.93c0.018,1.095,0.191,2.256,0.514,3.466c4.525,16.554,27.174,13.239,40.737,11.258
	c0,0,5.341-0.687,6.001-0.771c2.686-0.168,8.98-0.155,16.306-0.142c30.303,0.035,80.476,0.058,109.387-8.536
	c5.137,0.332,10.779,0.554,17.662,0.656c7.393,0.12,15.056,0.248,22.112,0.966l1.263,0.12c64.462,6.635,79.235-1.13,85.192-9.596
	c2.11-2.996,3.116-6.36,3.049-9.871c-0.044-2.677-0.722-5.443-2.048-8.191c-1.826-3.781-4.871-6.303-8.674-8.124
	c0.979-1.086,1.777-2.345,2.318-3.75l12.215-32.577c0.536-1.449,0.78-2.921,0.753-4.361c-0.018-0.687-0.102-1.361-0.239-2.021
	l0.142,0.049l4.946-14.631c6.506-19.28,19.989-59.21,31.518-87.696L720,25.209L667.868,4.08z M513.933,171.117
	c-4.242,1.414-14.414,5.757-17.188,15.287c0,0.009-0.678,5.017-0.678,5.017c0.053,2.588,0.762,5.093,1.968,7.504
	c-22.706,1.525-46.751,1.511-61.253,1.489c-8.488-0.004-14.635-0.013-17.955,0.204l-0.288,0.027l-7.007,0.891
	c-1.463,0.213-3.896,0.576-6.569,0.886c0.979-1.675,1.649-3.599,1.715-5.899c0.004-0.195,0-0.39,0.004-0.581
	c-0.084-4.122-2.247-7.951-6.01-10.562l-0.891-0.616l-1.019-0.408c-4.729-1.928-10.961-2.85-17.986-3.346
	c9.596-6.046,17.401-15.367,22.387-27.666c2.451-6.046,4.095-12.45,4.858-19.032c0.541-4.556,0.798-9.933,0.807-16.173
	c2.327,0.78,4.441,1.658,6.099,2.704c4.796,2.974,5.793,5.221,5.877,9.126c0.004,0.226,0.009,0.474-0.004,0.714
	c-0.004,3.958-1.928,6.803-7.703,13.332c-2.154,2.429-4.366,4.946-6.382,7.867l-5.514,7.982l40.737,28.14l6.285-7.437l2.633-3.085
	c3.275-3.705,7.796-8.856,11.768-15.601l29.293,10.757l15.003-12.991c2.101-1.897,3.829-3.373,5.234-4.472
	c0.399,0.532,0.753,1.002,0.975,1.312c2.894,3.891,6.307,8.395,10.544,12.508C520.098,169.46,516.778,170.165,513.933,171.117
	 M543.682,191.705c-0.341-0.022-1.932-0.124-1.932-0.124l-3.998-0.315c-5.004-0.368-8.789-0.722-11.812-1.081
	c6.524-0.926,14.436-0.452,20.14,0.581C545.388,191.071,544.577,191.386,543.682,191.705 M589.329,193.748l-1.245-0.142
	c-5.403-0.536-10.85-0.736-16.253-0.873c0.284-1.325,0.474-2.597,0.488-3.781l-0.222,1.919l0.301-3.089
	c-0.049-2.562-0.824-5.053-2.243-7.291c15.757-3.094,29.918-11.568,41.867-21.625c-0.004,0.191-0.018,0.394-0.013,0.589
	c0.044,2.433,0.878,4.751,2.318,6.702c-2.411,3.169-4.197,6.839-4.122,10.952c0.018,0.949,0.142,1.915,0.363,2.903
	c2.659,11.626,16.39,13.514,29.674,15.344c0.456,0.062,0.975,0.133,1.498,0.208C632.118,196.417,616.109,196.505,589.329,193.748"/>
<path fill="#F8F7C6" d="M212.614,113.886c-0.177-3.333-0.315-6.573-0.372-9.622c-0.133-5.992-0.018-11.355,0.341-15.81l0.78-9.68
	l-35.586-2.859l-2.659-38.299c0,0-12.131,1.05-13.771,1.192c0.146-11.125,0.359-20.264,0.625-27.17l0.368-9.693L111.931,0
	l-0.381,9.702c-0.332,8.528-0.554,19.839-0.727,34.004c-11.643,1.228-28.025,3.027-35.866,4.171l-9.6,1.418l7.344,49.92l9.609-1.405
	c4.822-0.718,14.91-1.897,28.278-3.329c0.013,8.971,0.04,26.172,0.062,38.388l-32.28-27.684l-6.32,7.371
	c-1.551,1.808-4.02,4.224-6.648,6.675c-7.787-23.309-14.604-48.457-14.852-61.063c-0.004-0.124-0.106-10.043-0.106-10.043L0,48.644
	l0.089,9.702c0.332,31.438,21.177,90.267,31.221,113.824l13.585,31.885l26.669-23.185l8.257-7.167
	c9.786-8.346,23.282-19.839,30.542-28.3l0.288-0.355c0.013,1.042,0.018,1.622,0.018,1.622c0.053,21.886,0.106,39.154-0.031,45.643
	l-0.195,9.698l50.443,1.042l0.204-9.698c0.137-7.114,0.093-24.634,0.035-46.822c0,0-0.022-9.348-0.031-20.991l1.72-0.035
	c1.245,16.457,3.422,32.111,5.509,41.791l1.631,7.654l27.812,14.706l9.955-7.167c20.605-14.821,32.231-24.125,38.835-31.074
	l6.684-7.034l-36.588-34.753C216.651,109.631,214.555,111.852,212.614,113.886"/>
<path fill="#F8F7C6" d="M663.934,0.276l-3.656,9.002c-12.171,30.05-26.026,71.084-32.683,90.803l-4.929,14.609l0.678,0.23
	c-0.984,1.09-1.777,2.362-2.318,3.785l-0.217,0.59l-27.95-20.628l-5.886,6.573c-12.3,13.682-24.816,21.864-33.601,22.135
	c-0.917-1.121-2.145-2.708-3.745-4.849c-5.301-7.109-11.307-15.167-21.239-19.692c-5.102-2.322-10.34-3.563-15.659-3.856
	c3.005-19.293,6.573-38.791,9.755-53.014l2.119-9.472l-49.238-11.045l-2.119,9.485c-4.1,18.323-8.488,43.117-11.759,65.353
	c-3.191-6.693-7.659-12.751-13.297-18.008l8.266,0.926l1.077-9.653c1.206-10.673,4.645-31.092,8.594-50.793l1.906-9.516
	l-49.468-9.902l-1.91,9.512c-1.21,6.019-2.362,12.06-3.422,17.902c-0.129-1.392-0.217-2.252-0.217-2.287
	c0.288-0.714,0.909-2.225,0.909-2.225s-0.926-0.164-1.117-0.199c-0.253-2.823-0.55-6.068-0.55-6.068s-11.971,0.993-12.158,1.006
	c-0.55,0.044-1.068,0.071-1.17,0.084c0.04-0.106,0.106-0.293,0.128-0.372c0-0.009,0.084-0.164,0.084-0.164l-0.013-0.009
	c0.053-0.142-1.356-1.498-2.73-2.052c-0.009-0.098-1.68-14.445-1.68-14.445l-50.164,5.385c0,0,1.445,12.49,1.702,14.648
	c-11.138,0.66-22.002,1.37-28.872,2.061l-9.653,0.984l5.102,50.217l9.658-0.984c2.167-0.222,4.884-0.443,7.96-0.674
	c-6.932,4.432-12.862,9.711-17.547,15.854c-3.382,4.454-6.272,9.591-8.581,15.265c-0.514,1.259-0.971,2.526-1.418,3.79
	c-2.473-10.54-5.283-21.43-9.184-32.993l-3.107-9.201l-9.184,3.103l-38.618,13.04l3.094,9.188
	c4.525,13.372,7.389,26.084,10.442,39.544c2.291,10.105,4.645,20.557,7.743,31.314l2.704,9.321l39.868-11.51
	c1.711,2.73,3.661,5.27,5.855,7.57c-1.662,2.766-2.939,5.979-2.868,9.538c0.031,1.458,0.284,2.965,0.807,4.512
	c4.543,13.252,23.296,13.549,47.035,13.922c4.197,0.062,8.785,0.146,13.11,0.315c-0.869,1.764-1.401,3.723-1.365,5.93
	c0.027,1.104,0.186,2.256,0.51,3.47c4.525,16.554,27.178,13.23,40.723,11.249c0,0,5.341-0.674,6.023-0.771
	c2.673-0.151,8.971-0.151,16.306-0.146c30.294,0.035,80.463,0.071,109.378-8.523c5.133,0.332,10.784,0.541,17.662,0.665
	c7.402,0.111,15.043,0.23,22.13,0.953l1.232,0.124c64.48,6.631,79.253-1.135,85.21-9.596c2.101-3.001,3.116-6.36,3.054-9.871
	c-0.067-2.677-0.74-5.443-2.07-8.2c-1.808-3.781-4.862-6.294-8.674-8.115c0.988-1.09,1.791-2.345,2.323-3.759l12.224-32.577
	c0.541-1.44,0.776-2.912,0.749-4.352c-0.013-0.687-0.102-1.37-0.244-2.021l0.155,0.044l4.942-14.635
	c6.506-19.267,19.98-59.214,31.526-87.696l3.648-8.993L663.934,0.276z M509.976,167.313c-4.251,1.418-14.418,5.749-17.197,15.287
	c-0.004,0.009-0.669,5.022-0.669,5.022c0.062,2.575,0.749,5.084,1.959,7.499c-22.697,1.529-46.733,1.516-61.249,1.494
	c-8.492-0.009-14.631-0.018-17.951,0.204l-0.284,0.027l-7.025,0.886c-1.449,0.217-3.878,0.567-6.555,0.873
	c0.971-1.662,1.653-3.586,1.702-5.882c0.009-0.195,0.022-0.394,0.018-0.576c-0.08-4.135-2.256-7.96-6.014-10.571l-0.891-0.621
	l-1.002-0.403c-4.747-1.924-10.987-2.845-17.995-3.346c9.587-6.05,17.388-15.375,22.378-27.657
	c2.464-6.059,4.091-12.463,4.871-19.036c0.519-4.561,0.785-9.928,0.789-16.178c2.34,0.771,4.454,1.658,6.103,2.695
	c4.805,2.987,5.802,5.23,5.877,9.135c0.004,0.235,0.013,0.479,0.009,0.718c-0.013,3.954-1.955,6.803-7.716,13.328
	c-2.15,2.429-4.357,4.942-6.387,7.872l-5.509,7.978l40.737,28.145l6.28-7.437l2.642-3.085c3.267-3.705,7.801-8.864,11.754-15.606
	l29.31,10.77l14.99-13.009c2.105-1.897,3.843-3.368,5.243-4.468c0.403,0.536,0.745,1.006,0.971,1.316
	c2.903,3.9,6.316,8.39,10.549,12.503C516.137,165.651,512.817,166.36,509.976,167.313 M539.73,187.901
	c-0.346-0.022-1.937-0.133-1.937-0.133l-4.011-0.31c-4.982-0.359-8.776-0.722-11.803-1.068c6.542-0.949,14.44-0.461,20.153,0.576
	C541.423,187.262,540.616,187.568,539.73,187.901 M585.39,189.935l-1.272-0.12c-5.39-0.545-10.85-0.749-16.248-0.891
	c0.279-1.307,0.465-2.593,0.483-3.772l-0.226,1.906l0.306-3.067c-0.053-2.58-0.829-5.066-2.234-7.309
	c15.748-3.094,29.904-11.564,41.858-21.62c0,0.195-0.013,0.39-0.009,0.585c0.053,2.438,0.895,4.765,2.318,6.697
	c-2.407,3.173-4.193,6.848-4.109,10.97c0.018,0.944,0.129,1.919,0.341,2.894c2.668,11.626,16.399,13.509,29.674,15.34
	c0.47,0.066,0.988,0.133,1.507,0.208C628.161,192.612,612.148,192.701,585.39,189.935"/>
<path fill="#231815" d="M614.077,173.056c1.152,5.008,10.899,6.343,21.222,7.765c8.957,1.228,19.103,2.624,20.982,6.52
	c1.192,2.478,1.188,4.512-0.022,6.227c-2.978,4.246-16.479,10.5-73.375,4.641l-1.25-0.129c-7.42-0.74-15.216-0.864-22.755-0.993
	c-4.645-0.075-9.33-0.208-14.019-0.425c7.774-3.187,12.583-7.349,12.676-12.827c0.044-0.235,0.075-0.505,0.066-0.807
	c-0.018-1.037-0.452-2.411-2.034-3.798c-6.697-5.904-30.374-7.974-42.939-3.754c-2.159,0.718-9.286,3.479-10.801,8.669
	c-0.199,0.687-0.297,1.374-0.279,2.074c0.031,1.848,0.824,3.732,2.345,5.616c3.054,3.781,16.2,5.004,28.278,5.846
	c0,0,1.635,0.137,2.677,0.213c-27.688,7.012-76.097,6.972-101.263,6.941c-8.195-0.009-14.117-0.022-17.038,0.182l-6.631,0.847
	c-9.578,1.396-25.609,3.745-27.391-2.766c-0.581-2.127,2.952-4.313,6.063-6.223c3.076-1.906,5.731-3.546,5.788-5.691
	c0.04-1.055-0.576-2.026-1.808-2.872c-6.945-2.819-20.193-3.027-32.989-3.222c-15.845-0.253-33.8-0.541-35.662-5.966
	c-0.643-1.884,0.443-5.602,9.325-12.712l-1.197-1.494c-8.044,6.44-11.196,11.151-9.937,14.826
	c2.296,6.702,19.369,6.967,37.435,7.251c12.627,0.208,25.698,0.408,32.12,2.987c0.262,0.217,0.816,0.696,0.798,1.152
	c-0.022,1.112-2.717,2.775-4.889,4.109c-3.67,2.269-7.845,4.84-6.892,8.355c2.221,8.142,18.637,5.735,29.501,4.149l6.484-0.824
	c2.868-0.191,9.073-0.195,16.909-0.173c28.858,0.04,80.108,0.075,106.759-8.479c6.134,0.439,12.384,0.629,18.527,0.727
	c7.486,0.12,15.234,0.244,22.591,0.993l1.228,0.115c30.339,3.129,68.008,4.725,75.139-5.434c1.622-2.305,1.684-5.048,0.182-8.155
	c-2.314-4.822-12.087-6.17-22.432-7.588c-8.798-1.214-18.77-2.588-19.626-6.298c-0.452-2.012,1.494-6.054,13.425-13.975
	l-1.059-1.596C617.725,164.099,613.2,169.187,614.077,173.056 M536.004,196.077l-3.697-0.292
	c-7.233-0.519-24.142-1.702-26.935-5.155c-1.245-1.534-1.879-3.032-1.906-4.463c-0.018-0.505,0.049-1.006,0.191-1.489
	c1.002-3.417,5.607-6.059,9.574-7.397c11.838-3.971,34.882-2.074,41.087,3.386c0.9,0.798,1.356,1.609,1.374,2.433
	c0,0.173-0.018,0.35-0.062,0.532c-0.084,5.589-6.072,9.68-15.402,12.72C538.827,196.25,537.378,196.214,536.004,196.077"/>
<g>
	<defs>
		<path id="SVGID_1_" d="M9.8,58.242c0.301,29.7,21.031,88.064,30.441,110.136l8.35,19.608l16.612-14.449l8.253-7.162
			c9.614-8.182,22.768-19.404,29.541-27.285l-23.575-20.22c-3.745,4.366-11.342,11.165-18.407,17.281
			c-9.396-25.889-19.985-61.041-20.162-78.22L9.8,58.242z M120.428,52.462c-18.066,1.866-36.167,3.856-44.056,5.022l4.53,30.724
			c7.025-1.042,22.923-2.801,39.38-4.516c-0.035,21.558,0.027,43.777,0.084,62.955c0.066,21.939,0.102,39.283-0.031,45.865
			l31.048,0.643c0.142-6.95,0.098-24.453,0.031-46.596c-0.062-20.078-0.124-43.52-0.071-65.951
			c7.783-0.736,13.948-1.281,16.922-1.494l-2.145-30.977c-2.819,0.204-8.031,0.656-14.6,1.263
			c0.133-14.923,0.377-28.211,0.753-38.144l-31.026-1.188C120.836,21.024,120.587,35.885,120.428,52.462"/>
	</defs>
	<clipPath id="SVGID_00000054958600386166023900000013751783878133192345_">
		<use xlink:href="#SVGID_1_"  overflow="visible"/>
	</clipPath>
	
		<linearGradient id="SVGID_00000106113147372183137530000003825475417276456599_" gradientUnits="userSpaceOnUse" x1="88.7841" y1="-256.7896" x2="93.2163" y2="-256.7896" gradientTransform="matrix(-0.8245 -41.4258 -41.4258 0.8245 -10473.6211 4084.3789)">
		<stop  offset="0" style="stop-color:#000000"/>
		<stop  offset="0.0992" style="stop-color:#240003"/>
		<stop  offset="0.2789" style="stop-color:#5E0007"/>
		<stop  offset="0.4525" style="stop-color:#8F000B"/>
		<stop  offset="0.6157" style="stop-color:#B5000E"/>
		<stop  offset="0.766" style="stop-color:#D00010"/>
		<stop  offset="0.8988" style="stop-color:#E00012"/>
		<stop  offset="1" style="stop-color:#E60012"/>
	</linearGradient>
	
		<polygon clip-path="url(#SVGID_00000054958600386166023900000013751783878133192345_)" fill="url(#SVGID_00000106113147372183137530000003825475417276456599_)" points="
		9.862,196.307 6.157,10.14 168.202,6.915 171.908,193.082 	"/>
</g>
<g>
	<defs>
		<path id="SVGID_00000051372038378895831990000000451116561171626384_" d="M636.764,103.215l-1.817,5.394l34.886,11.821
			l1.835-5.434c6.533-19.298,20.065-59.458,31.739-88.241l-34.146-13.837C657.201,42.729,643.408,83.581,636.764,103.215"/>
	</defs>
	<clipPath id="SVGID_00000000186203273866821030000013385775243654508175_">
		<use xlink:href="#SVGID_00000051372038378895831990000000451116561171626384_"  overflow="visible"/>
	</clipPath>
	
		<linearGradient id="SVGID_00000013180787428126332220000007111491521643225014_" gradientUnits="userSpaceOnUse" x1="81.2498" y1="-272.4067" x2="85.682" y2="-272.4067" gradientTransform="matrix(-0.4821 -24.2497 -24.2497 0.4821 -5896.3672 2222.2727)">
		<stop  offset="0" style="stop-color:#000000"/>
		<stop  offset="0.155" style="stop-color:#3C0000"/>
		<stop  offset="0.3235" style="stop-color:#770000"/>
		<stop  offset="0.4864" style="stop-color:#A80000"/>
		<stop  offset="0.6396" style="stop-color:#CE0000"/>
		<stop  offset="0.7806" style="stop-color:#E90000"/>
		<stop  offset="0.9051" style="stop-color:#F90000"/>
		<stop  offset="1" style="stop-color:#FF0000"/>
	</linearGradient>
	
		<polygon clip-path="url(#SVGID_00000000186203273866821030000013385775243654508175_)" fill="url(#SVGID_00000013180787428126332220000007111491521643225014_)" points="
		634.974,121.791 632.81,12.96 703.38,11.557 705.544,120.388 	"/>
</g>
<g>
	<defs>
		<path id="SVGID_00000163756665712537538240000015855207412563001781_" d="M177.808,165.271l0.687,3.218l18.491,9.773l5.075-3.652
			c19.816-14.25,31.371-23.46,37.461-29.882l-22.516-21.381c-2.353,2.482-6.573,6.09-12.49,10.735
			c-1.671-15.57-2.637-33.539-1.596-46.405l-30.955-2.495C169.945,110.24,174.062,147.786,177.808,165.271 M255.11,90.597
			c4.667,13.846,7.592,26.806,10.695,40.515c2.252,9.968,4.583,20.269,7.615,30.755l29.824-8.621
			c-2.761-9.596-4.889-19.014-7.149-28.982c-3.138-13.882-6.382-28.233-11.573-43.591L255.11,90.597z"/>
	</defs>
	<clipPath id="SVGID_00000127042007312055323360000000416356110532184211_">
		<use xlink:href="#SVGID_00000163756665712537538240000015855207412563001781_"  overflow="visible"/>
	</clipPath>
	
		<linearGradient id="SVGID_00000168107688361209138430000007999643825161969592_" gradientUnits="userSpaceOnUse" x1="76.9576" y1="-258.2608" x2="81.3898" y2="-258.2608" gradientTransform="matrix(-0.4302 -21.6158 -21.6158 0.4302 -5311.8501 1952.3188)">
		<stop  offset="0" style="stop-color:#000000"/>
		<stop  offset="0.0992" style="stop-color:#240003"/>
		<stop  offset="0.2789" style="stop-color:#5E0007"/>
		<stop  offset="0.4525" style="stop-color:#8F000B"/>
		<stop  offset="0.6157" style="stop-color:#B5000E"/>
		<stop  offset="0.766" style="stop-color:#D00010"/>
		<stop  offset="0.8988" style="stop-color:#E00012"/>
		<stop  offset="1" style="stop-color:#E60012"/>
	</linearGradient>
	
		<polygon clip-path="url(#SVGID_00000127042007312055323360000000416356110532184211_)" fill="url(#SVGID_00000168107688361209138430000007999643825161969592_)" points="
		169.997,180.914 168.003,80.712 303.191,78.021 305.185,178.223 	"/>
</g>
<g>
	<defs>
		<path id="SVGID_00000025420922318833199830000017663440118249399723_" d="M466.562,139.409l-0.829,10.921l20.193,7.424
			l10.531-9.139c5.598-5.017,11.32-9.8,14.662-8.82c1.343,1.081,4.011,4.658,5.837,7.087c5.873,7.885,13.195,17.711,25.148,20.202
			c32.187,6.715,60.256-17.25,77.192-36.845l-25.113-18.527c-13.589,15.132-30.635,27.653-45.147,25.051
			c-1.777-1.188-5.133-5.673-7.189-8.43c-4.822-6.484-9.831-13.177-17.494-16.67c-8.395-3.821-16.142-3.719-23.056-1.857
			c3.156-22.099,7.641-47.744,11.706-65.96l-30.29-6.79C475.963,67.212,468.424,115.036,466.562,139.409 M417.041,69.016
			l30.848,3.462c1.232-10.917,4.725-31.659,8.718-51.631l-30.445-6.081C421.957,35.828,418.366,57.125,417.041,69.016
			 M355.322,18.006l1.76,15.163c-15.238,0.847-30.223,1.746-38.702,2.615l3.134,30.893c8.208-0.824,23.619-1.742,39.128-2.602
			c0.328,3.054,0.647,6.116,0.94,9.184c-16.501,3.816-31.491,11.719-40.954,24.133c-2.815,3.71-5.332,8.155-7.309,13.035
			c-5.266,12.938-6.835,28.942-0.833,42.381c5.877,13.146,17.724,21.08,33.397,22.338c22.476,1.808,37.341-12.038,44.335-29.257
			c2.158-5.301,3.564-10.921,4.22-16.497c0.838-7.331,0.904-16.683,0.452-27.037c8.222,0.909,15.765,3.045,21.204,6.436
			c7.468,4.645,10.509,9.902,10.456,18.146c-0.04,7.69-4.042,12.791-10.145,19.706c-2.043,2.314-3.98,4.508-5.669,6.95
			l25.547,17.645c0.634-0.917,2.048-2.513,3.4-4.055c6.666-7.535,17.818-20.175,17.919-40.085
			c0.071-13.208-4.233-31.69-25.104-44.663c-10.85-6.75-25.055-10.659-39.93-11.612c-0.284-2.819-0.567-5.638-0.864-8.448
			c6.156-0.363,11.2-0.691,14.529-0.993l-2.77-30.941c-0.532,0.044-1.126,0.098-1.768,0.146l-0.532,1.299l-1.675-1.135
			c-0.767,0.058-1.578,0.106-2.429,0.173l-0.878,2.119l1.077,0.443l0.129-0.408l3.072,0.572l-0.997,2.433l-2.486-1.698l0.124-0.399
			l-1.121-0.465l-0.687,1.653l-1.981,1.241c-0.66,1.791-1.325,3.568-2.008,5.345c-1.649,4.41-3.302,8.816-4.964,13.23
			c-2.119,5.642-4.237,11.289-6.365,16.94c-2.052,5.478-4.122,10.97-6.178,16.461c-1.485,3.927-2.974,7.872-4.45,11.812
			c-0.474,1.25-1.299,2.491-1.086,3.878c0.208,1.392,0.847,3.714,2.092,4.512c1.432,0.922,3.302,1.91,4.658,1.671
			c1.68-0.319,4.33-2.806,6.09-1.281c1.706,1.476-0.665,4.636-1.494,5.979c-1.188,1.946-2.646,4.087-4.676,5.234
			c-3.244,1.862-4.069,5.487-3.528,7.858c0.762,3.324,4.787,11.932,4.379,16.865c-0.452,5.478-2.575,15.167-11.333,19.418
			c-8.771,4.273-13.851,3.231-17.091,2.252c-1.33-0.399-4.202-1.272-7.397-2.429l-0.669,1.644l-1.596-0.536l0.288-1.835
			c-4.02-1.547-8.146-3.439-10.172-5.354c-4.016-3.781-9.844-12.614-7.947-20.339c1.893-7.734,6.812-14.006,10.815-16.577
			c3.985-2.575,10.274-4.104,11.537-7.22c1.263-3.107,0.917-6.994,0.683-9.472c-0.239-2.478,1.011-9.786,5.416-11.4
			c1.214-0.448,2.42-0.758,3.608-0.957l-0.04-1.675l1.312-0.151l0.678,1.627c2.531-0.12,5.177,0.288,8.253,1.21l24.204-59.325
			l-1.245-2.77l0.594-1.684l-1.17-0.479l-0.186,0.377l-2.965-0.514l1.006-2.438l2.58,1.733l-0.191,0.372l1.108,0.452l1.312-3.665
			l-1.006-0.403l-0.137,0.288l-2.956-0.532l0.979-2.429l2.575,1.729l-0.217,0.47l0.931,0.386l0.022-0.066l-0.465-3.896l-2.141-0.377
			l0.997-2.429l0.909,0.607l-0.452-3.838L355.322,18.006z"/>
	</defs>
	<clipPath id="SVGID_00000121994495207075809050000006310666409374002312_">
		<use xlink:href="#SVGID_00000025420922318833199830000017663440118249399723_"  overflow="visible"/>
	</clipPath>
	
		<linearGradient id="SVGID_00000137101644782729178020000011330382966101763201_" gradientUnits="userSpaceOnUse" x1="87.0656" y1="-264.2084" x2="91.4978" y2="-264.2084" gradientTransform="matrix(-0.7167 -36.0071 -36.0071 0.7167 -8986.5645 3497.3728)">
		<stop  offset="0" style="stop-color:#000000"/>
		<stop  offset="0.0992" style="stop-color:#240003"/>
		<stop  offset="0.2789" style="stop-color:#5E0007"/>
		<stop  offset="0.4525" style="stop-color:#8F000B"/>
		<stop  offset="0.6157" style="stop-color:#B5000E"/>
		<stop  offset="0.766" style="stop-color:#D00010"/>
		<stop  offset="0.8988" style="stop-color:#E00012"/>
		<stop  offset="1" style="stop-color:#E60012"/>
	</linearGradient>
	
		<polygon clip-path="url(#SVGID_00000121994495207075809050000006310666409374002312_)" fill="url(#SVGID_00000137101644782729178020000011330382966101763201_)" points="
		306.608,183.178 303.255,14.755 619.173,8.467 622.525,176.89 	"/>
</g>
<path fill="#231815" d="M665.006,133.022l-3.537-1.325l0.248-0.669l-4.649-1.751l-0.257,0.674l-15.659-5.877l0.257-0.665
	l-4.649-1.751l-0.261,0.674l-3.776-1.418c-1.042-0.394-2.203,0.151-2.61,1.21l-12.224,32.581c-0.403,1.059,0.12,2.234,1.183,2.619
	l3.094,1.157l-0.195,0.541c-0.062,0.142,0.022,0.306,0.155,0.35l1.977,0.753c0.137,0.058,0.306-0.022,0.359-0.168l0.199-0.527
	l21.093,7.912l-0.195,0.532c-0.044,0.146,0.022,0.31,0.168,0.363l1.968,0.74c0.137,0.053,0.301-0.018,0.354-0.164l0.204-0.527
	l3.098,1.157c1.046,0.399,2.216-0.142,2.611-1.201l12.242-32.59C666.584,134.595,666.052,133.425,665.006,133.022"/>
<polygon fill="#656464" points="659.487,141.436 631.241,130.834 633.966,123.578 662.213,134.171 "/>
<polygon fill="#231815" points="659.184,138.475 657.478,137.833 658.378,135.448 660.071,136.095 "/>
<path fill="#231815" d="M636.408,129.152c-0.244,0.634-0.931,0.944-1.556,0.705c-0.634-0.23-0.944-0.931-0.722-1.556
	c0.248-0.629,0.948-0.949,1.569-0.718C636.333,127.831,636.634,128.527,636.408,129.152"/>
<path fill="#231815" d="M651.952,134.978c-0.248,0.634-0.949,0.949-1.565,0.709c-0.634-0.23-0.935-0.922-0.705-1.556
	c0.235-0.625,0.926-0.94,1.547-0.714C651.863,133.662,652.187,134.353,651.952,134.978"/>
<path fill="#231815" d="M654.778,136.051c-0.226,0.625-0.94,0.935-1.556,0.705c-0.625-0.235-0.94-0.935-0.709-1.56
	c0.244-0.625,0.926-0.935,1.556-0.714C654.694,134.722,655.026,135.422,654.778,136.051"/>
<path fill="#888888" d="M639.265,129.775c-0.208,0.598-0.878,0.895-1.48,0.669c-0.589-0.213-0.891-0.878-0.656-1.476
	c0.204-0.598,0.882-0.895,1.48-0.678C639.194,128.512,639.5,129.182,639.265,129.775"/>
<path fill="#888888" d="M643.135,131.217c-0.217,0.598-0.891,0.895-1.48,0.674c-0.594-0.217-0.891-0.882-0.674-1.476
	c0.222-0.589,0.882-0.904,1.48-0.674C643.046,129.967,643.352,130.623,643.135,131.217"/>
<path fill="#888888" d="M646.191,132.368c-0.222,0.603-0.878,0.9-1.48,0.678c-0.589-0.226-0.891-0.886-0.678-1.48
	c0.226-0.598,0.9-0.9,1.503-0.678C646.115,131.118,646.421,131.778,646.191,132.368"/>
<path fill="#888888" d="M649.259,133.524c-0.226,0.598-0.891,0.9-1.48,0.669c-0.589-0.217-0.891-0.882-0.669-1.48
	c0.226-0.594,0.895-0.895,1.485-0.678C649.18,132.265,649.477,132.925,649.259,133.524"/>
<polygon fill="#231815" points="638.46,129.1 638.221,129.016 638.433,128.448 638.659,128.524 "/>
<polygon fill="#231815" points="642.265,130.537 642.038,130.444 642.251,129.886 642.482,129.966 "/>
<rect x="645.065" y="131.247" transform="matrix(0.3649 -0.9311 0.9311 0.3649 287.5742 684.3044)" fill="#231815" width="0.598" height="0.242"/>
<rect x="648.164" y="132.409" transform="matrix(0.3649 -0.9311 0.9311 0.3649 288.4611 687.9333)" fill="#231815" width="0.606" height="0.246"/>
<path fill="#656464" d="M664.27,135.64c-0.115,0.328-0.492,0.496-0.816,0.372c-0.332-0.124-0.501-0.488-0.377-0.82
	c0.124-0.332,0.496-0.488,0.82-0.377C664.226,134.949,664.39,135.312,664.27,135.64"/>
<path fill="#656464" d="M632.621,123.763c-0.12,0.332-0.492,0.492-0.82,0.377c-0.328-0.129-0.492-0.488-0.372-0.829
	c0.128-0.324,0.487-0.488,0.815-0.368C632.577,123.067,632.745,123.435,632.621,123.763"/>
<path fill="#656464" d="M652.549,166.874c-0.12,0.328-0.479,0.496-0.816,0.372c-0.328-0.12-0.483-0.483-0.381-0.82
	c0.146-0.328,0.505-0.496,0.842-0.372C652.5,166.178,652.664,166.55,652.549,166.874"/>
<path fill="#656464" d="M620.904,154.997c-0.124,0.324-0.488,0.505-0.82,0.372c-0.328-0.12-0.501-0.492-0.377-0.82
	c0.133-0.328,0.492-0.496,0.829-0.372C620.856,154.305,621.024,154.673,620.904,154.997"/>
<path d="M296.75,22.428l-11.129,0.217l-1.25,0.027l-12.392,0.244c0,0,0.244,6.662,0.368,9.915c-1.046-1.489-2.141-3.032-2.141-3.032
	c0.044,0.098-4.547-6.391-4.547-6.391l-0.253-0.359l-12.211,0.244c0,0,0.044,2.203,0.071,3.431
	c-3.041-2.526-6.75-4.082-10.855-4.002c-4.539,0.089-8.705,1.879-11.75,5.048c-1.822,1.901-3.156,4.326-3.967,6.981
	c-0.864,0.018-8.129,0.16-10.061,0.199c3.541-3.86,10.296-11.134,10.296-11.134l-17.857,0.359c0,0-3.692,4.224-5.425,6.21
	c-0.044-2.154-0.124-6.103-0.124-6.103l-13.735,0.279l0.696,34.301l13.722-0.275c0,0-0.168-8.559-0.195-9.769
	c1.144,1.764,6.249,9.649,6.249,9.649l16.647-0.328c0,0-5.82-8.829-7.092-10.77c1.937-0.04,6.418-0.129,7.162-0.142
	c2.509,7.038,8.736,11.515,16.151,11.373c4.1-0.08,7.743-1.795,10.682-4.432c0.027,1.223,0.066,3.431,0.066,3.431l13.634-0.27
	c0,0-0.235-6.684-0.363-9.937c2.083,2.939,6.945,9.804,6.945,9.804l11.098-0.217l1.117-0.027l11.803-0.235l-0.257-12.853
	c0,0-1.148,0.027-1.463,0.031c0.208-1.596,1.396-10.46,1.396-10.46c0.004-0.089-0.106-5.788-0.164-8.63
	c-0.018-0.949-0.049-2.393-0.049-2.393L296.75,22.428z M245.349,43.867l-0.869,1.542c-0.421,0.425-0.926,0.629-1.604,0.643
	c-2.93,0.058-3.125-4.587-3.138-5.124c-0.031-1.662,0.199-5.562,2.925-5.62c0.656-0.013,1.192,0.191,1.658,0.625
	c1.325,1.285,1.463,4.086,1.476,4.658L245.349,43.867z"/>
<polygon fill="#FFFFFF" points="220.119,26.869 210.413,27.064 200.883,38.003 200.666,27.255 192.759,27.41 193.34,55.891 
	201.234,55.732 201.065,47.319 204.296,43.889 211.831,55.519 221.551,55.328 210.014,37.781 "/>
<path fill="#FFFFFF" d="M275.62,42.529l-7.796-11.05l-3.909-5.487l-7.748,0.16l0.213,10.611c-1.573-6.764-7.074-11.258-13.904-11.12
	c-6.945,0.142-12.348,4.964-13.536,11.976l-11.431,0.226l0.129,6.644l11.426-0.222c1.476,6.963,7.065,11.55,14.006,11.408
	c6.83-0.137,12.149-4.818,13.452-11.639l0.213,10.589l7.752-0.155l-0.616-16.785l11.706,16.563l7.748-0.151l-0.567-28.477
	l-7.752,0.16L275.62,42.529z M242.936,48.978c-4.454,0.089-6.032-4.406-6.099-7.982c-0.066-3.231,0.86-8.51,5.766-8.616
	c4.273-0.075,6.028,4.064,6.108,8.169C248.791,44.644,247.205,48.89,242.936,48.978"/>
<polygon fill="#FFFFFF" points="293.485,43.568 294.876,33.205 294.721,25.382 287.35,25.533 287.505,33.356 289.318,43.648 "/>
<rect x="287.987" y="46.909" transform="matrix(0.9998 -0.0202 0.0202 0.9998 -0.9588 5.8981)" fill="#FFFFFF" width="7.091" height="7.022"/>
</svg>
