<?xml version="1.0" encoding="utf-8"?>
<!-- Generator: Adobe Illustrator 27.2.0, SVG Export Plug-In . SVG Version: 6.00 Build 0)  -->
<svg version="1.1" id="레이어_1" xmlns="http://www.w3.org/2000/svg" xmlns:xlink="http://www.w3.org/1999/xlink" x="0px"
	 y="0px" viewBox="0 0 720 207.737" enable-background="new 0 0 720 207.737" xml:space="preserve">
<path fill="#414848" d="M215.126,119.663c-0.113-3.348-0.186-6.583-0.186-9.618c0-5.985,0.219-11.352,0.671-15.809l0.976-9.652
	l-35.511-3.574l-1.9-38.288c0,0-12.129,0.784-13.77,0.91c0.365-11.113,0.764-20.233,1.149-27.148l0.571-9.658L116.783,3.87
	l-0.551,9.685c-0.505,8.529-0.97,19.808-1.408,33.97c-11.658,0.99-28.065,2.471-35.916,3.454l-9.645,1.222l6.37,50.032l9.625-1.236
	c4.816-0.624,14.939-1.588,28.33-2.763c-0.186,8.974-0.511,26.172-0.724,38.367l-31.698-28.297l-6.457,7.247
	c-1.594,1.78-4.098,4.132-6.782,6.536C60.614,98.626,54.31,73.358,54.29,60.75l0.1-10.03L3.96,50.242l-0.08,9.691
	c-0.286,31.426,19.363,90.604,28.922,114.378l12.946,32.123l27.122-22.631l8.376-6.988c9.95-8.17,23.661-19.39,31.067-27.686
	l0.326-0.359c-0.027,1.043-0.033,1.621-0.033,1.621c-0.379,21.867-0.658,39.125-0.937,45.608l-0.392,9.691l50.39,2.046l0.385-9.698
	c0.306-7.074,0.585-24.597,0.97-46.777c0,0,0.737-39.078,1.076-57.013l0.917-0.053c-1.76,25.693,1.495,60.979,4.796,77.964
	l1.468,7.679l27.514,15.231l10.07-6.928c20.897-14.414,32.688-23.495,39.437-30.303l6.815-6.875l-35.863-35.478
	C219.251,115.485,217.106,117.664,215.126,119.663 M660.018,190.054c1.395-0.611,3.487-2.312,4.039-3.726l12.867-32.303
	c0.571-1.415,0.837-2.903,0.837-4.331c0-0.691-0.08-1.355-0.213-2.046l0.153,0.08l5.228-14.534
	c6.895-19.117,21.156-58.78,33.259-86.997L720,37.269l-51.659-22.146l-3.813,8.928c-12.78,29.785-27.42,70.504-34.468,90.073
	l-5.228,14.507l0.691,0.252c-1.023,1.063-1.833,2.298-2.405,3.72l-0.226,0.591l-27.52-21.183l-6.005,6.47
	c-12.554,13.425-25.242,21.343-34.01,21.422c-0.897-1.123-2.092-2.71-3.667-4.896c-5.141-7.22-10.967-15.384-20.831-20.094
	c-5.042-2.411-10.243-3.773-15.55-4.192c3.361-19.204,7.347-38.62,10.814-52.755l2.305-9.439l-48.995-11.976l-2.312,9.406
	c-4.464,18.254-9.346,42.911-13.053,65.077c-3.029-6.755-7.38-12.906-12.906-18.274l8.217,1.096l1.275-9.625
	c1.408-10.648,5.261-30.981,9.605-50.576l2.092-9.466l-49.241-10.867l-2.092,9.452c-1.335,6.012-2.604,12.016-3.766,17.835
	c-0.113-1.421-0.173-2.285-0.173-2.298c0.312-0.711,0.95-2.205,0.95-2.205l-1.109-0.233c-0.206-2.83-0.432-6.058-0.432-6.058
	l-12.176,0.764l-1.169,0.04l0.153-0.359l0.06-0.179h-0.013l0.326-0.824c0,0-1.621-0.697-2.989-1.262l-1.388-14.468l-10.635,0.917
	c-1.169-0.83-2.823-1.973-2.823-1.973s-0.671,1.528-1.01,2.292c-6.915,0.611-35.797,3.149-35.797,3.149s1.229,12.508,1.428,14.66
	c-11.133,0.418-22.02,0.93-28.882,1.495l-9.665,0.777l4.079,50.271l9.678-0.791c2.165-0.173,4.916-0.345,7.978-0.498
	c-7.015,4.271-13.053,9.432-17.862,15.477c-3.461,4.384-6.45,9.479-8.861,15.085c-0.538,1.229-1.036,2.478-1.495,3.753
	c-2.278-10.575-4.856-21.515-8.529-33.153l-2.916-9.233l-9.246,2.903l-38.852,12.249l2.929,9.253
	c4.238,13.438,6.862,26.198,9.625,39.716c2.092,10.163,4.245,20.619,7.127,31.466l2.518,9.359l40.858-11.159
	c5.739,9.784,20.552,15.63,25.906,17.005c10.137,2.637,18.307,3.022,23.375,2.83c5.248-0.193,14.647-1.01,24.232-6.888
	c4.73-2.896,10.801-9.858,17.47-21.376c3.275-5.653,5.274-14.467,6.184-21.037c0.618-4.53,0.983-9.891,1.109-16.128
	c2.325,0.817,4.411,1.741,6.058,2.797c4.73,3.075,5.679,5.341,5.679,9.26l-0.02,0.731c-0.086,3.946-2.059,6.729-7.951,13.146
	c-2.212,2.391-4.464,4.869-6.549,7.732l-5.653,7.858l40.134,28.922l6.43-7.293l2.69-3.022c3.341-3.64,7.971-8.682,12.063-15.364
	l29.061,11.352l15.245-12.707c2.139-1.847,4.357-3.567,5.766-4.65c0.399,0.545,9.599,12.382,15.597,16.62
	c2.783,1.98,8.117,5.713,16.401,7.679c5.673,1.528,13.219,2.498,26.258,1.136c12.415-1.315,27.474-9.054,37.623-17.656
	c0.81,2.411,1.853,3.188,3.56,4.112l42.605,15.876C657.719,191.675,658.589,190.652,660.018,190.054"/>
<g>
	<path fill="#FFFCD1" d="M211.263,115.786c-0.126-3.334-0.193-6.583-0.199-9.632c0-5.998,0.219-11.352,0.678-15.783l0.957-9.652
		l-35.518-3.574l-1.886-38.321c0,0-12.136,0.81-13.783,0.917c0.372-11.1,0.764-20.22,1.176-27.121l0.565-9.692L112.907,0
		l-0.571,9.672c-0.492,8.516-0.963,19.828-1.402,33.963c-11.658,1.003-28.045,2.471-35.91,3.454l-9.632,1.215l6.35,50.038
		l9.625-1.222c4.829-0.611,14.939-1.607,28.317-2.77c-0.159,8.967-0.465,26.178-0.704,38.374l-31.698-28.297l-6.463,7.26
		c-1.574,1.747-4.098,4.112-6.755,6.53c-7.333-23.455-13.637-48.717-13.637-61.331l0.093-10.03L0.096,46.365L0.003,56.07
		c-0.299,31.406,19.356,90.598,28.915,114.351l12.94,32.123L68.973,179.9l8.403-6.988c9.951-8.157,23.654-19.363,31.067-27.66
		l0.319-0.359c-0.033,1.036-0.047,1.634-0.047,1.634c-0.372,21.854-0.658,39.105-0.923,45.594l-0.399,9.692l50.39,2.059l0.385-9.711
		c0.299-7.094,0.605-24.604,0.983-46.777c0,0,0.166-9.326,0.385-20.971h1.707c0.93,16.454,2.817,32.143,4.696,41.861l1.468,7.686
		l27.5,15.251l10.083-6.948c20.897-14.414,32.688-23.475,39.43-30.297l6.809-6.915l-35.857-35.425
		C215.375,111.628,213.223,113.78,211.263,115.786"/>
	<path fill="#FFFCD1" d="M657.786,186.162c1.003-1.069,1.833-2.285,2.385-3.7l12.873-32.323c0.578-1.408,0.85-2.87,0.85-4.324
		c0-0.691-0.086-1.362-0.199-2.019l0.12,0.053l5.247-14.534c6.888-19.111,21.15-58.78,33.253-86.984l3.806-8.928l-51.646-22.16
		l-3.826,8.941c-12.774,29.772-27.407,70.504-34.475,90.06l-5.214,14.521l0.684,0.233c-1.023,1.056-1.847,2.331-2.405,3.733
		l-0.219,0.585l-27.527-21.157l-6.005,6.443c-12.555,13.431-25.235,21.349-33.997,21.455c-0.923-1.149-2.119-2.757-3.667-4.929
		c-5.155-7.207-11-15.384-20.831-20.107c-5.055-2.418-10.263-3.773-15.577-4.165c3.388-19.217,7.333-38.633,10.814-52.768
		l2.305-9.439l-48.982-11.996l-2.305,9.426c-4.464,18.227-9.339,42.911-13.066,65.064c-3.036-6.769-7.38-12.893-12.906-18.273
		l8.237,1.116l1.275-9.625c1.408-10.641,5.254-30.988,9.598-50.57l2.079-9.492L419.232,9.424l-2.092,9.472
		c-1.315,5.998-2.59,12.003-3.773,17.835c-0.113-1.415-0.179-2.259-0.179-2.312c0.312-0.697,0.977-2.192,0.977-2.192l-1.136-0.233
		c-0.179-2.83-0.412-6.085-0.412-6.085l-12.182,0.791l-1.169,0.053l0.146-0.385l0.086-0.146h-0.033
		c0.053-0.16-1.295-1.554-2.677-2.099l-1.375-14.501l-50.244,4.397c0,0,1.189,12.508,1.395,14.687
		c-11.12,0.418-21.993,0.91-28.868,1.468l-9.665,0.777l4.079,50.284l9.672-0.79c2.185-0.173,4.909-0.345,7.984-0.518
		c-7.021,4.291-13.059,9.439-17.855,15.497c-3.481,4.364-6.457,9.466-8.881,15.085c-0.518,1.242-1.016,2.504-1.488,3.746
		c-2.258-10.582-4.856-21.509-8.516-33.14l-2.936-9.266l-9.226,2.943l-38.859,12.249l2.916,9.227
		c4.238,13.458,6.868,26.212,9.638,39.736c2.092,10.157,4.245,20.618,7.134,31.446l2.491,9.379l41.084-10.953
		c1.667,2.77,4.225,6.755,6.775,9.187c2.265,2.159,11.744,8.762,31.067,11.811c13.285,2.099,24.358-2.059,30.895-5.201
		c6.596-3.149,17.749-14.374,22.977-26.557c2.577-5.985,4.337-12.349,5.234-18.898c0.631-4.537,0.996-9.911,1.129-16.148
		c2.305,0.83,4.404,1.74,6.038,2.823c4.73,3.062,5.699,5.341,5.699,9.233l-0.02,0.704c-0.106,3.952-2.079,6.769-7.971,13.186
		c-2.199,2.371-4.464,4.842-6.523,7.719l-5.679,7.885l40.154,28.922l6.417-7.307l2.704-3.016c3.334-3.66,7.978-8.722,12.069-15.371
		l29.041,11.325l15.265-12.687c2.139-1.86,3.893-3.282,5.301-4.351l0.956,1.315c2.83,3.939,9.505,11.365,9.505,11.365
		c10.734,9.884,20.546,12.169,25.089,12.986c6.41,1.136,22.884,0.804,33.279-1.886c10.382-2.697,18.752-8.283,30.894-18.108
		l-0.02,0.565c0,2.444,1.136,5.812,2.478,7.526c0.797,1.229,43.482,16.447,43.482,16.447
		C654.346,189.57,657.786,186.162,657.786,186.162"/>
</g>
<g>
	<path fill="#E11F1F" d="M59.316,135.021c-8.874-26.085-18.752-61.41-18.586-78.568L9.689,56.148
		c-0.272,29.686,19.263,88.425,28.238,110.665l7.951,19.748l16.892-14.096l8.389-6.995c9.758-7.984,23.129-18.944,30.058-26.69
		l-23.163-20.658C74.242,122.414,66.51,129.049,59.316,135.021 M166.102,49.166c-2.817,0.14-8.024,0.472-14.627,0.97
		c0.452-14.926,0.943-28.178,1.528-38.088l-30.974-1.787c-0.658,10.92-1.189,25.76-1.654,42.326
		c-18.114,1.501-36.235,3.122-44.126,4.125l3.899,30.788c7.061-0.903,22.977-2.332,39.457-3.733
		c-0.465,21.542-0.857,43.755-1.182,62.905c-0.379,21.947-0.684,39.264-0.95,45.834l31.021,1.275
		c0.279-6.955,0.571-24.431,0.963-46.564c0.339-20.067,0.737-43.489,1.236-65.927c7.798-0.571,13.956-0.99,16.939-1.136
		L166.102,49.166z"/>
	<path fill="#E11F1F" d="M635.297,113.542l-1.933,5.381l34.628,12.501l1.946-5.394c6.882-19.15,21.229-59.012,33.458-87.529
		L669.552,24C656.892,53.52,642.311,94.072,635.297,113.542"/>
	<path fill="#E11F1F" d="M294.462,127.813c-2.863-13.916-5.819-28.311-10.695-43.794l-29.593,9.346
		c4.377,13.923,7.068,26.935,9.884,40.686c2.059,9.99,4.191,20.333,7.008,30.901l29.971-8.038
		C298.461,147.283,296.515,137.804,294.462,127.813 M202.762,135.811c-1.368-15.59-1.96-33.578-0.664-46.405l-30.895-3.102
		c-2.524,24.989,0.85,62.586,4.245,80.122l0.631,3.242l18.28,10.13l5.128-3.534c20.094-13.856,31.818-22.837,38.042-29.121
		l-22.073-21.827C213.044,127.76,208.767,131.267,202.762,135.811"/>
	<path fill="#E11F1F" d="M431.596,88.714c-10.694-6.935-24.83-11.133-39.689-12.362c-0.206-2.856-0.438-5.673-0.677-8.482
		c6.158-0.226,11.206-0.485,14.527-0.704l-2.152-30.948c-0.518,0.013-1.129,0.066-1.774,0.106l-0.545,1.275l-1.661-1.162
		c-0.771,0.027-1.574,0.1-2.425,0.126l-0.923,2.119l1.069,0.452l0.133-0.412l3.049,0.638l-1.03,2.398l-2.458-1.741l0.139-0.378
		l-1.123-0.505l-0.704,1.654l-1.999,1.182c-0.704,1.767-1.395,3.527-2.112,5.307c-1.741,4.364-3.487,8.755-5.221,13.106
		c-2.245,5.6-4.484,11.219-6.696,16.799c-2.159,5.434-4.344,10.907-6.516,16.341c-1.554,3.893-3.109,7.812-4.676,11.711
		c-0.498,1.249-1.348,2.464-1.182,3.853c0.186,1.395,0.784,3.733,2.026,4.564c1.408,0.937,3.248,1.94,4.61,1.74
		c1.687-0.272,4.371-2.717,6.111-1.149c1.681,1.508-0.771,4.623-1.608,5.945c-1.216,1.913-2.723,4.006-4.763,5.128
		c-3.301,1.8-4.191,5.42-3.693,7.792c0.691,3.341,4.53,12.01,4.025,16.932c-0.545,5.473-2.856,15.099-11.704,19.19
		c-8.848,4.092-13.916,2.929-17.111,1.9c-1.322-0.425-4.171-1.355-7.347-2.557l-0.704,1.634l-1.581-0.584l0.312-1.853
		c-3.972-1.601-8.064-3.58-10.057-5.547c-3.932-3.839-9.579-12.794-7.539-20.459c2.052-7.705,7.088-13.87,11.133-16.361
		c4.045-2.471,10.369-3.886,11.691-6.975c1.335-3.102,1.043-6.981,0.857-9.452c-0.179-2.491,1.216-9.751,5.653-11.292
		c1.215-0.432,2.418-0.711,3.633-0.883l-0.027-1.667l1.315-0.126l0.651,1.647c2.531-0.08,5.161,0.379,8.21,1.362l25.388-58.773
		l-1.202-2.817l0.644-1.647l-1.169-0.498l-0.199,0.359l-2.956-0.584l1.049-2.411l2.551,1.774l-0.193,0.399l1.076,0.465l1.395-3.66
		l-0.99-0.392l-0.153,0.266l-2.956-0.584l1.049-2.411l2.544,1.76l-0.252,0.485l0.943,0.392l0.013-0.053l-0.365-3.913l-2.152-0.392
		l1.043-2.398l0.89,0.591l-0.372-3.813l-30.914,2.677l1.448,15.178c-15.225,0.544-30.243,1.136-38.719,1.833l2.511,30.934
		c8.224-0.651,23.647-1.275,39.158-1.827c0.259,3.049,0.525,6.138,0.757,9.213c-16.567,3.467-31.705,11.06-41.396,23.289
		c-2.909,3.627-5.507,8.037-7.566,12.9c-5.527,12.8-7.413,28.756-1.681,42.307c5.62,13.265,17.304,21.429,32.92,22.996
		c22.425,2.245,37.564-11.299,44.897-28.344c2.252-5.274,3.773-10.86,4.537-16.414c0.99-7.314,1.242-16.64,0.996-27.002
		c8.19,1.036,15.683,3.361,21.05,6.862c7.367,4.776,10.296,10.083,10.09,18.333c-0.206,7.679-4.298,12.681-10.515,19.469
		c-2.112,2.278-4.085,4.444-5.819,6.848l25.189,18.128c0.638-0.903,2.072-2.478,3.461-3.979
		c6.822-7.406,18.201-19.788,18.699-39.702C456.12,120.671,452.194,102.112,431.596,88.714 M416.397,75.017l30.762,4.065
		c1.448-10.867,5.354-31.545,9.751-51.407l-30.303-6.689C421.984,41.957,417.978,63.167,416.397,75.017 M592.551,121.216
		c-13.857,14.86-31.16,26.982-45.588,24.126c-1.767-1.242-5.022-5.779-7.021-8.569c-4.69-6.55-9.552-13.358-17.138-17.012
		c-8.31-3.972-16.068-4.025-23.01-2.305c3.587-21.994,8.582-47.574,13.019-65.695l-30.144-7.36
		c-7.347,29.985-15.842,77.632-18.174,101.937l-1.056,10.894l20.041,7.845l10.708-8.928c5.679-4.909,11.478-9.598,14.826-8.509
		c1.315,1.096,3.912,4.716,5.666,7.194c5.739,7.984,12.847,17.948,24.75,20.665c32.017,7.36,60.547-16.035,77.851-35.285
		L592.551,121.216z"/>
	<path fill="#E11F1F" d="M662.911,143.913l-32.024-12.747c-1.036-0.399-2.199,0.106-2.644,1.149l-12.853,32.316
		c-0.425,1.043,0.086,2.232,1.116,2.67l32.024,12.747c1.036,0.385,2.239-0.1,2.637-1.169l12.873-32.329
		C664.439,145.508,663.934,144.332,662.911,143.913"/>
</g>
<path fill="#FFFFFF" d="M297.147,26.069h-11.153h-1.229h-12.388c0,0,0.106,6.669,0.159,9.937c-1.003-1.535-2.079-3.089-2.079-3.089
	l-4.404-6.47l-0.246-0.365l-12.202-0.013v3.441c-3.002-2.611-6.656-4.211-10.774-4.225c-4.524,0-8.722,1.714-11.844,4.823
	c-1.853,1.86-3.228,4.265-4.092,6.888c-0.864,0-8.137-0.027-10.057-0.027c3.613-3.76,10.508-10.9,10.508-10.9h-17.848
	c0,0-3.773,4.158-5.533,6.111v-6.111h-13.743v34.302h13.743V50.6c1.076,1.787,6.045,9.771,6.045,9.771h16.626
	c0,0-5.64-8.948-6.875-10.907h7.174c2.365,7.094,8.502,11.684,15.896,11.684c4.118,0,7.772-1.634,10.774-4.211v3.434h13.617
	c0,0-0.1-6.709-0.153-9.951c2.013,2.996,6.736,9.951,6.736,9.951h11.1h1.089h11.83V47.524h-1.481
	c0.246-1.594,1.614-10.422,1.614-10.422c0.007-0.106,0.007-5.779,0.007-8.635v-2.398H297.147z M245.342,46.461l-0.877,1.521
	c-0.425,0.419-0.943,0.625-1.634,0.625c-2.923,0-3.016-4.657-3.016-5.181c0-1.681,0.286-5.56,3.016-5.56
	c0.671,0,1.209,0.226,1.661,0.664c1.295,1.288,1.362,4.098,1.362,4.67L245.342,46.461z"/>
<g>
	<polygon points="220.481,28.999 210.783,28.999 201.031,39.74 201.031,28.999 193.14,28.999 193.14,57.449 201.031,57.436 
		201.031,49.046 204.333,45.698 211.626,57.436 221.358,57.436 210.158,39.687 	"/>
	<path d="M275.616,45.749l-7.553-11.199l-3.793-5.553h-7.745l-0.02,10.602c-1.408-6.782-6.842-11.379-13.684-11.379
		c-6.922,0-12.408,4.696-13.763,11.691l-11.405-0.013v6.643h11.405c1.355,6.981,6.842,11.691,13.77,11.691
		c6.835,0,12.242-4.583,13.697-11.345V57.44l7.745,0.013l-0.286-16.792L275.35,57.44h7.745V28.996h-7.745L275.616,45.749z
		 M242.822,51.528c-4.444,0-5.939-4.517-5.939-8.104c0-3.235,1.056-8.476,5.945-8.476c4.284,0,5.938,4.185,5.938,8.263
		C248.767,47.33,247.113,51.528,242.822,51.528"/>
	<polygon points="293.451,47.142 295.045,36.806 295.039,29.001 287.679,29.001 287.679,36.806 289.28,47.142 	"/>
	<rect x="287.829" y="50.442" width="7.081" height="6.995"/>
</g>
</svg>
