<?xml version="1.0" encoding="utf-8"?>
<!-- Generator: Adobe Illustrator 27.2.0, SVG Export Plug-In . SVG Version: 6.00 Build 0)  -->
<svg version="1.1" id="레이어_1" xmlns="http://www.w3.org/2000/svg" xmlns:xlink="http://www.w3.org/1999/xlink" x="0px"
	 y="0px" viewBox="0 0 720 75.61" enable-background="new 0 0 720 75.61" xml:space="preserve">
<polyline points="381.929,11.32 385.753,0 355.424,0 351.6,11.32 335.848,11.32 330.478,27.065 346.278,27.065 330.768,72.987 
	361.091,72.987 376.607,27.065 387.251,27.065 371.741,72.987 402.064,72.987 422.902,11.32 381.929,11.32 "/>
<polyline points="622.778,0 546.153,0.035 540.88,15.786 587.12,15.786 573.108,57.249 526.992,57.249 521.719,72.987 
	598.115,72.987 622.778,0 "/>
<polyline points="720,0 689.67,0 670.323,57.249 621.895,57.249 616.524,72.987 695.337,72.987 720,0 "/>
<polyline points="681.884,0.035 643.168,0.035 637.798,15.786 676.562,15.786 681.884,0.035 "/>
<path d="M488.566,32.538c0-9.125,7.393-16.518,16.511-16.518c1.829,0,3.589,0.31,5.232,0.856L516.01,0l-78.054,0.035l-5.37,15.752
	h40.642l-19.327,57.201h37.453l8.387-24.835C493.246,45.929,488.566,39.786,488.566,32.538"/>
<path d="M510.309,16.877l-2.975,8.808c2.878,0.946,4.963,3.652,4.963,6.854c0,3.983-3.23,7.213-7.22,7.213
	c-0.828,0-1.622-0.145-2.361-0.4l-2.975,8.801c1.677,0.573,3.465,0.897,5.336,0.897c9.125,0,16.518-7.392,16.518-16.511
	C521.594,25.243,516.866,19.065,510.309,16.877"/>
<path d="M497.864,32.538c0,3.154,2.029,5.826,4.852,6.813l4.618-13.667c-0.711-0.235-1.463-0.366-2.257-0.366
	C501.094,25.318,497.864,28.549,497.864,32.538"/>
<path d="M26.043,48.442c-3.997-5.667-5.591-8.304-6.792-11.5v38.102h-6.233V36.625C10.782,43.893,7.51,50.761,3.279,57.07L0,49.167
	c5.674-7.11,10.223-17.574,12.459-26.685H1.36v-6.233h11.658V0.835h6.233v15.413h9.905v6.233h-9.905v5.274
	c1.601,3.838,6.709,10.706,11.023,15.02L26.043,48.442 M56.083,75.044h-6.316V45.812c-6.792,12.383-15.896,19.969-19.41,22.847
	l-4.556-5.591c10.947-7.91,17.815-16.538,22.054-24.29H29.156v-6.15h20.611V20.169h-10.14c-2.319,5.349-4.397,8.145-5.757,10.147
	l-5.991-3.679c3.914-4.797,7.268-10.223,9.905-23.648l6.633,0.877c-0.4,2.16-0.877,5.039-2.478,10.154h7.827V0.835h6.316v13.184
	h17.574v6.15H56.083v12.459h19.493v6.15H58.319c5.75,11.824,11.5,17.898,18.374,23.648l-3.679,6.709
	c-7.427-6.551-13.184-14.695-16.932-23.807V75.044z"/>
<path d="M147.479,13.695c-3.03-2.554-6.233-4.949-12.542-8.228l3.672-4.79c5.839,2.954,8.311,4.632,12.866,8.069L147.479,13.695
	 M129.981,1.077c0,3.272,0,6.15,0.166,13.177h25.325v6.309h-25.084c0.4,9.346,1.035,20.376,5.191,32.518
	c1.995,5.908,7.027,14.143,10.223,14.143c2.236,0,3.997-5.674,4.473-13.108l6.157,2.802c-0.801,5.591-1.519,10.464-3.838,13.895
	c-2.471,3.838-4.556,4.079-5.991,4.079c-8.787,0-15.42-13.267-17.415-19.493c-2.713-8.235-4.39-16.78-4.873-25.408
	c-0.483-8.228-0.559-9.104-0.559-9.429H81.574v-6.309h41.94c-0.159-3.831-0.159-8.469-0.242-13.177H129.981z M123.755,65.146
	c-13.177,2.954-28.28,5.274-41.539,6.868l-0.96-6.551c3.272-0.318,7.51-0.718,17.574-2.161V38.219h-15.82v-6.226h38.033v6.226
	h-15.503V62.35c5.991-0.966,11.983-2.002,17.974-3.279L123.755,65.146z"/>
<path d="M216.994,23.041c-11.023-7.744-15.579-13.177-18.699-17.173c-3.831,5.274-9.022,10.706-18.533,17.173H216.994
	 M219.548,29.115h-42.257v-4.473c-6.309,4.073-11.265,6.233-14.226,7.427l-3.272-6.392c4.473-1.753,11.424-4.473,20.052-10.706
	c5.274-3.755,10.706-8.628,14.861-14.778h7.11c8.387,11.265,21.011,20.694,34.906,25.65l-3.507,6.385
	c-2.644-1.194-6.958-3.113-13.667-7.427V29.115z M212.521,47.966c8.145,7.986,13.26,13.743,19.651,23.731l-5.833,3.914
	c-1.194-2.078-2.161-3.679-3.997-6.316c-32.193,2.478-35.707,2.796-58.154,3.52l-0.642-6.551c1.519,0,8.628-0.159,11.106-0.241
	c4.949-8.545,7.986-16.138,9.663-20.535H162.43V39.42h71.42v6.067h-41.781c-4.072,9.27-7.752,16.138-10.147,20.376
	c5.032-0.166,12.701-0.317,13.978-0.4c3.52-0.242,19.175-1.36,22.371-1.519c-3.914-4.873-5.591-6.875-11.023-12.383L212.521,47.966z
	"/>
<path d="M295.689,0.677v23.082h17.574v6.557h-17.574v35.382h19.417v6.557h-46.578v-6.557h20.452V30.316h-16.697v-6.557h16.697V0.677
	H295.689 M260.3,75.127h-6.468V42.616c-5.039,4.632-8.711,7.027-10.864,8.47l-2.72-6.475c13.26-8.145,20.694-18.533,23.331-24.842
	h-22.371v-6.074h12.625V0.677h6.468v13.018h10.388v6.074c-1.118,2.554-3.12,7.427-8.711,14.219
	c4.155,4.873,6.875,7.186,11.424,10.464l-3.596,5.832c-4.231-3.355-8.145-7.993-9.505-9.587V75.127z"/>
<g>
</g>
<g>
</g>
<g>
</g>
<g>
</g>
<g>
</g>
<g>
</g>
<g>
</g>
<g>
</g>
<g>
</g>
<g>
</g>
<g>
</g>
<g>
</g>
<g>
</g>
<g>
</g>
<g>
</g>
</svg>
