<?xml version="1.0" encoding="utf-8"?>
<!-- Generator: Adobe Illustrator 27.2.0, SVG Export Plug-In . SVG Version: 6.00 Build 0)  -->
<svg version="1.1" id="레이어_1" xmlns="http://www.w3.org/2000/svg" xmlns:xlink="http://www.w3.org/1999/xlink" x="0px"
	 y="0px" viewBox="0 0 720 75.612" enable-background="new 0 0 720 75.612" xml:space="preserve">
<polyline fill="#004097" points="381.932,11.318 385.754,0 355.429,0 351.602,11.318 335.852,11.318 330.486,27.067 346.281,27.067 
	330.77,72.99 361.095,72.99 376.611,27.067 387.258,27.067 371.742,72.99 402.072,72.99 422.904,11.318 381.932,11.318 "/>
<polyline fill="#004097" points="622.779,0 546.161,0.036 540.885,15.785 587.118,15.785 573.111,57.255 526.991,57.255 
	521.716,72.99 598.125,72.99 622.779,0 "/>
<polyline fill="#004097" points="720,0 689.675,0 670.332,57.255 621.895,57.255 616.528,72.99 695.341,72.99 720,0 "/>
<polyline fill="#004097" points="681.889,0.036 643.173,0.036 637.807,15.785 676.568,15.785 681.889,0.036 "/>
<path fill="#004097" d="M488.565,32.536c0-9.122,7.394-16.517,16.517-16.517c1.829,0,3.583,0.31,5.229,0.859L516.014,0
	l-78.051,0.036l-5.367,15.75h40.637L453.905,72.99h37.45l8.391-24.836C493.246,45.932,488.565,39.788,488.565,32.536"/>
<path fill="#004097" d="M510.312,16.878l-2.973,8.807c2.876,0.945,4.96,3.654,4.96,6.851c0,3.984-3.232,7.217-7.217,7.217
	c-0.828,0-1.621-0.147-2.363-0.407l-2.973,8.807c1.677,0.574,3.466,0.9,5.336,0.9c9.122,0,16.517-7.394,16.517-16.517
	C521.599,25.243,516.867,19.068,510.312,16.878"/>
<path fill="#004097" d="M497.865,32.536c0,3.156,2.033,5.829,4.853,6.81l4.62-13.661c-0.711-0.234-1.469-0.361-2.256-0.361
	C501.098,25.324,497.865,28.551,497.865,32.536"/>
<path fill="#004097" d="M26.046,48.448c-3.995-5.672-5.595-8.309-6.79-11.506v38.106h-6.231V36.622
	c-2.241,7.273-5.514,14.144-9.748,20.456L0,49.165c5.672-7.105,10.225-17.574,12.461-26.681H1.362v-6.231h11.664V0.834h6.231v15.419
	h9.905v6.231h-9.905v5.275c1.596,3.832,6.708,10.703,11.023,15.018L26.046,48.448 M56.081,75.048h-6.307V45.81
	C42.98,58.195,33.872,65.783,30.361,68.66l-4.554-5.595c10.942-7.908,17.813-16.532,22.046-24.282H29.161v-6.149h20.613V20.166
	H39.625c-2.317,5.357-4.391,8.152-5.753,10.149l-5.992-3.679c3.913-4.792,7.273-10.22,9.91-23.642l6.627,0.874
	c-0.396,2.16-0.874,5.036-2.475,10.149h7.832V0.834h6.307v13.183h17.574v6.149H56.081v12.466h19.495v6.149H58.317
	c5.753,11.821,11.506,17.894,18.377,23.647l-3.674,6.708c-7.43-6.551-13.183-14.698-16.939-23.805V75.048z"/>
<path fill="#004097" d="M147.483,13.696c-3.034-2.556-6.231-4.955-12.543-8.228l3.674-4.792c5.834,2.958,8.309,4.635,12.863,8.065
	L147.483,13.696 M129.991,1.077c0,3.273,0,6.149,0.158,13.178h25.324v6.312h-25.085c0.396,9.346,1.037,20.369,5.194,32.515
	c1.997,5.91,7.029,14.138,10.225,14.138c2.236,0,3.995-5.672,4.472-13.102l6.149,2.795c-0.793,5.59-1.514,10.469-3.832,13.9
	c-2.475,3.837-4.554,4.076-5.992,4.076c-8.787,0-15.419-13.259-17.411-19.49c-2.719-8.228-4.396-16.781-4.879-25.406
	c-0.478-8.228-0.554-9.107-0.554-9.427H81.578v-6.312h41.938c-0.158-3.837-0.158-8.467-0.239-13.178H129.991z M123.76,65.148
	c-13.183,2.953-28.282,5.27-41.546,6.866l-0.955-6.551c3.273-0.315,7.506-0.722,17.574-2.155V38.223H83.017v-6.231h38.024v6.231
	h-15.495v24.125c5.987-0.961,11.979-1.997,17.97-3.273L123.76,65.148z"/>
<path fill="#004097" d="M216.997,23.042c-11.028-7.745-15.582-13.178-18.692-17.172c-3.837,5.27-9.031,10.703-18.535,17.172H216.997
	 M219.553,29.116H177.29v-4.472c-6.307,4.071-11.262,6.231-14.215,7.43l-3.283-6.393c4.477-1.758,11.43-4.472,20.054-10.703
	c5.275-3.756,10.708-8.629,14.86-14.779h7.11c8.386,11.262,21.009,20.689,34.909,25.644l-3.512,6.388
	c-2.638-1.199-6.952-3.115-13.661-7.43V29.116z M212.524,47.97c8.147,7.989,13.259,13.737,19.653,23.723l-5.834,3.918
	c-1.199-2.079-2.16-3.679-3.995-6.312c-32.195,2.475-35.712,2.795-58.16,3.512l-0.635-6.551c1.514,0,8.624-0.158,11.099-0.239
	c4.955-8.548,7.989-16.136,9.671-20.532H162.43v-6.068h71.424v6.068h-41.785c-4.071,9.27-7.745,16.141-10.144,20.374
	c5.031-0.163,12.7-0.32,13.981-0.401c3.512-0.239,19.17-1.357,22.366-1.514c-3.913-4.874-5.59-6.871-11.023-12.385L212.524,47.97z"
	/>
<path fill="#004097" d="M295.693,0.676v23.083h17.574v6.556h-17.574v35.387h19.414v6.551h-46.573v-6.551h20.45V30.315H272.29v-6.556
	h16.695V0.676H295.693 M260.306,75.129h-6.475v-32.51c-5.031,4.63-8.706,7.029-10.861,8.467l-2.719-6.475
	c13.259-8.147,20.689-18.529,23.327-24.841h-22.366v-6.073h12.619V0.676h6.475v13.02h10.383v6.073
	c-1.118,2.556-3.115,7.43-8.706,14.22c4.152,4.874,6.866,7.191,11.42,10.464l-3.593,5.834c-4.233-3.359-8.147-7.989-9.504-9.59
	V75.129z"/>
<g>
</g>
<g>
</g>
<g>
</g>
<g>
</g>
<g>
</g>
<g>
</g>
<g>
</g>
<g>
</g>
<g>
</g>
<g>
</g>
<g>
</g>
<g>
</g>
<g>
</g>
<g>
</g>
<g>
</g>
</svg>
