<?xml version="1.0" encoding="utf-8"?>
<!-- Generator: Adobe Illustrator 27.1.1, SVG Export Plug-In . SVG Version: 6.00 Build 0)  -->
<svg version="1.1" id="레이어_1" xmlns="http://www.w3.org/2000/svg" xmlns:xlink="http://www.w3.org/1999/xlink" x="0px"
	 y="0px" viewBox="0 0 720 217.494" enable-background="new 0 0 720 217.494" xml:space="preserve">
<g>
	<path fill="#FFFFFF" d="M359.822,9.898c-2.789,1.2-5.741,2.174-8.757,3.017v7.621h6.584v9.033h-6.584v2.886
		c2.384,1.817,5.254,3.632,8.757,5.319l-2.935,6.016l21.843-4.264V3.882h10.362v33.6l6.876-1.314l0.551,9.585l-7.427,1.475v19.055
		H378.73V49.32l-21.632,4.345l-0.486-9.308l-1.119,2.174c-1.622-1.055-3.081-2.108-4.427-3.082v22.541h-9.795V48.623
		c-1.816,3.015-3.778,5.885-6.032,8.611c-0.973-4.201-2.303-7.623-3.843-10.153c2.449-3.227,4.556-6.728,6.373-10.426
		c0.908-1.833,1.817-4.135,2.725-7.087h-7.2v-9.033h7.978v-5.448c-2.027,0.34-4.07,0.616-6.032,0.843
		c-0.551-2.807-1.459-5.677-2.724-8.757c8.692-0.503,15.827-2.32,21.567-5.465L359.822,9.898z M378.179,16.482l-5.741,7.639
		c-3.502-3.504-7.07-6.309-10.654-8.482l5.951-7.427C370.687,10.109,374.19,12.833,378.179,16.482 M374.044,29.859l-4.622,7.914
		c-3.227-2.87-6.795-5.4-10.638-7.637L363.682,23C367.12,24.752,370.541,27.054,374.044,29.859"/>
</g>
<g>
	<path d="M389.744,66.932h-11.663V50.114l-21.593,4.331l-0.396-7.657l-0.356,0.681l-0.602-0.388
		c-1.235-0.808-2.375-1.615-3.421-2.368v21.925H340.62V50.897c-1.592,2.494-3.199,4.711-4.885,6.746l-0.831,1.014l-0.301-1.275
		c-0.926-3.999-2.225-7.443-3.761-9.961l-0.23-0.38l0.269-0.356c2.312-3.041,4.434-6.517,6.311-10.317
		c0.847-1.734,1.647-3.753,2.415-6.152h-6.96V19.882h7.974v-4.03c-1.568,0.253-3.27,0.483-5.305,0.721l-0.602,0.071l-0.111-0.586
		c-0.523-2.684-1.401-5.511-2.692-8.639l-0.348-0.839l0.911-0.055c8.615-0.491,15.583-2.257,21.3-5.384l0.507-0.277l6.532,9.32
		l-0.736,0.309c-2.486,1.069-5.234,2.027-8.362,2.914v6.477h6.588v9.811l5.171-7.53l0.507,0.261
		c3.357,1.71,6.786,3.975,10.468,6.928l0.435,0.348l-5.305,9.09l-0.594-0.531c-3.056-2.724-6.596-5.273-10.523-7.562l-0.602-0.356
		l0.087-0.127h-6.232v1.916c2.494,1.869,5.321,3.571,8.393,5.06l0.586,0.285L358.04,42.9l20.041-3.904V17.681l-5.574,7.427
		l-0.531-0.531c-3.373-3.373-6.912-6.192-10.523-8.385l-0.633-0.38l6.778-8.464l0.491,0.317c3.033,1.956,6.39,4.592,9.993,7.847
		V3.231h11.663V36.7l6.825-1.306l0.633,10.879l-7.459,1.489V66.932z M379.38,65.633h9.066V46.701l7.396-1.473l-0.475-8.282
		l-6.92,1.322V4.529h-9.066v35.528l-22.115,4.315l0.443,8.504l21.672-4.347V65.633z M341.919,65.34h8.496V42.18l1.029,0.744
		c1.14,0.823,2.415,1.742,3.801,2.668l1.053-2.09l2.653-5.432c-3.025-1.504-5.812-3.223-8.282-5.099l-0.253-0.19v-3.864h6.588
		v-7.736h-6.588v-8.757l0.475-0.135c2.961-0.823,5.566-1.702,7.942-2.676l-4.949-7.055c-5.59,2.938-12.281,4.648-20.437,5.21
		c1.053,2.653,1.813,5.107,2.304,7.451c2.082-0.253,3.809-0.499,5.408-0.776l0.76-0.127v6.865h-7.974v7.736h7.427l-0.261,0.839
		c-0.871,2.843-1.782,5.194-2.763,7.182c-1.837,3.737-3.912,7.158-6.176,10.183c1.346,2.32,2.502,5.289,3.381,8.686
		c1.774-2.233,3.468-4.703,5.163-7.514l1.204-2.003V65.34z M359.711,29.93c3.516,2.098,6.722,4.395,9.541,6.841l3.943-6.754
		c-3.262-2.581-6.319-4.608-9.296-6.176L359.711,29.93z M362.752,15.472c3.294,2.067,6.517,4.64,9.613,7.665l4.941-6.58
		c-3.397-3.064-6.556-5.582-9.43-7.483L362.752,15.472z"/>
</g>
<g>
	<path fill="#FFFFFF" d="M463.629,31.611c-4.913,3.714-14.075,8.676-14.075,8.676h23.951v9.242H447.51v12.325
		c0,1.411-1.119,2.595-3.211,3.504c-2.449,1.2-6.649,1.815-12.681,1.962c-0.357-3.91-1.33-7.281-3.016-10.07h6.308
		c1.265,0,1.897-0.422,1.897-1.411V49.53h-25.151v-9.242h25.151v-3.892h4.751l3.438-2.627h-20.87v-8.173h31.508l1.476-0.843
		L463.629,31.611z M463.061,30.134v-7.362h-41.806v7.639h-9.308V13.758h9.373c-1.184-2.951-2.514-5.612-3.924-7.995l8.205-3.779
		c1.962,2.805,3.778,6.162,5.449,10.088l-4.119,1.687h12.179c-1.541-3.163-3.211-5.968-5.043-8.482l8.27-3.86
		c2.238,2.951,4.265,6.374,6.227,10.379l-4.686,1.964h7.427l5.805-11.499l10.086,3.504l-4.622,7.995h10.362v16.654h-9.6
		L463.061,30.134z"/>
</g>
<g>
	<path d="M431.021,67.985l-0.055-0.61c-0.356-3.919-1.314-7.118-2.922-9.795l-0.594-0.982h7.459c1.251,0,1.251-0.42,1.251-0.76
		v-5.661h-25.156V39.638h25.156V35.75h5.178l1.742-1.33h-19.605v-9.47h31.981l1.774-1.014l5.178,5.448v-5.962h-40.501v7.641h-10.61
		V13.104h9.058c-1.037-2.455-2.217-4.814-3.524-7.008l-0.364-0.618l9.359-4.307l0.309,0.443c1.995,2.858,3.848,6.287,5.511,10.206
		l0.261,0.61l-1.663,0.673h7.823c-1.394-2.74-2.882-5.186-4.521-7.451L433.08,5.02l9.454-4.41l0.317,0.412
		c2.185,2.874,4.244,6.303,6.303,10.484l0.301,0.618l-2.344,0.982h3.801l5.875-11.648l11.37,3.951l-4.458,7.696h9.89v17.958H464
		l0.602,0.626l-0.586,0.435c-3.413,2.589-8.924,5.796-11.964,7.514h22.099v10.539h-25.995v11.679c0,1.679-1.211,3.056-3.595,4.094
		c-2.47,1.211-6.588,1.861-12.93,2.019L431.021,67.985z M429.707,57.897c1.306,2.486,2.13,5.368,2.494,8.757
		c5.733-0.174,9.605-0.792,11.814-1.885c1.892-0.823,2.843-1.797,2.843-2.914V48.878h25.995v-7.942H449.55l-0.309-1.219
		c0.087-0.048,8.488-4.608,13.413-8.195l-5.661-5.954l-1.188,0.681h-31.031v6.873h22.139l-5.131,3.927h-4.323v3.888h-25.156v7.942
		h25.156v6.96c0,0.942-0.443,2.059-2.55,2.059H429.707z M463.707,29.764h8.583V14.403h-10.84l4.79-8.282l-8.805-3.064l-5.733,11.347
		h-7.823l-0.253-1.251l4.054-1.694c-1.813-3.626-3.634-6.659-5.551-9.232l-7.079,3.31c1.687,2.399,3.215,5.004,4.648,7.934
		l0.451,0.934h-13.223l-0.245-1.251l3.516-1.425c-1.481-3.389-3.096-6.382-4.814-8.924l-7.071,3.254
		c1.346,2.336,2.558,4.846,3.611,7.451l0.356,0.895h-9.684v15.361h8.013v-7.641h43.098V29.764z"/>
</g>
<g>
	<path fill="#FFFFFF" d="M547.292,4.444c-0.146,17.012-0.843,27.503-1.962,31.508c-0.633,2.514-2.108,4.201-4.411,5.044
		c-2.254,0.827-5.676,1.184-10.297,1.184c-0.697-4.476-1.605-7.556-2.805-9.308h6.308c0.762,0,1.184-0.146,1.184-0.568l1.265-18.55
		h-15.26c-0.503,3.145-1.135,6.016-1.962,8.546c2.854,1.394,5.87,2.87,9.033,4.539l-4.914,8.482c-2.935-1.687-5.74-3.145-8.4-4.557
		l-0.065,0.081c-3.989,5.448-11.562,9.52-22.686,12.178c-1.541-3.779-3.373-6.73-5.465-8.757c8.254-1.962,14.141-4.686,17.789-8.043
		c-2.805-0.99-5.465-1.768-7.995-2.383l2.741-8.48c3.211,0.697,6.714,1.75,10.427,3.015c0.503-1.409,0.908-2.936,1.265-4.62H491.2
		v-9.31H547.292z M502.113,47.077c-1.541,4.769-3.924,9.811-7.07,15.064c-3.422-1.962-6.162-3.292-8.189-4.135
		c3.357-5.107,5.676-9.874,7.07-14.221L502.113,47.077z M512.265,43.023v12.534c0,1.12,0.502,1.687,1.621,1.687h12.6
		c1.119,0,2.027-1.962,2.724-6.032c4.346,1.962,7.508,3.082,9.325,3.292c-0.632,3.779-1.605,6.519-3.016,8.399
		c-1.476,1.833-3.503,2.807-6.016,2.807h-17.789c-3.146,0-5.319-0.633-6.584-1.752c-1.816-1.477-2.741-3.292-2.741-5.384V43.023
		H512.265z M528.659,45.472l-7.07,6.016c-2.659-3.064-5.821-6.372-9.324-9.858l6.583-5.19
		C521.654,38.547,524.881,41.548,528.659,45.472 M552.189,55.557l-7.346,6.309c-2.951-4.216-6.308-8.755-10.168-13.653l6.876-5.465
		C544.551,45.683,548.119,49.947,552.189,55.557"/>
</g>
<g>
	<path d="M529.507,66.362h-17.792c-3.223,0-5.582-0.649-7.015-1.924c-1.956-1.584-2.961-3.563-2.961-5.867v-8.488
		c-1.497,3.927-3.555,8.084-6.137,12.392l-0.325,0.546l-0.554-0.317c-3.025-1.734-5.836-3.151-8.116-4.094l-0.728-0.301l0.435-0.657
		c3.215-4.901,5.574-9.628,6.992-14.063l0.048-0.158c-0.293,0.079-0.586,0.15-0.887,0.222l-0.538,0.127l-0.214-0.515
		c-1.504-3.706-3.294-6.58-5.313-8.536l-0.847-0.823l1.148-0.277c7.395-1.75,12.994-4.157,16.668-7.158
		c-2.272-0.768-4.585-1.441-6.873-1.995l-0.681-0.166l3.136-9.708l0.57,0.127c2.803,0.61,6.042,1.536,9.89,2.827
		c0.309-0.934,0.594-1.98,0.863-3.151H490.55V3.793h57.398L547.94,4.45c-0.143,16.826-0.808,27.484-1.987,31.68
		c-0.681,2.708-2.304,4.561-4.814,5.471c-2.265,0.839-5.606,1.227-10.515,1.227h-0.554l-0.087-0.546
		c-0.689-4.442-1.576-7.395-2.708-9.05l-0.689-1.014h7.538c0.301,0,0.459-0.024,0.546-0.048l1.204-17.768h-14.007
		c-0.483,2.898-1.045,5.384-1.726,7.554c2.7,1.322,5.574,2.74,8.544,4.307l0.602,0.309l-5.574,9.636l-0.562-0.325
		c-2.581-1.481-5.052-2.787-7.443-4.054l-0.451-0.238c-3.967,5.115-11.022,9.003-21.03,11.616l7.514,3.017V42.37h10.349
		c-0.095-0.095-0.19-0.19-0.285-0.285l-0.515-0.515l7.554-5.946l0.396,0.301c2.756,2.059,5.986,5.044,9.89,9.098l0.475,0.499
		l-8.084,6.881l-0.42-0.483c-2.201-2.542-4.885-5.408-8.187-8.726v12.368c0,0.776,0.238,1.029,0.974,1.029h12.606
		c0.119,0,1.172-0.15,2.082-5.487l0.143-0.823l0.768,0.34c3.983,1.797,6.897,2.858,8.678,3.167
		c-1.306-1.726-2.637-3.452-3.991-5.171l-0.404-0.507l7.831-6.224l0.404,0.396c3.104,3.033,6.707,7.372,10.713,12.899l0.356,0.483
		l-8.346,7.158l-0.412-0.586c-1.671-2.383-3.413-4.79-5.218-7.198c-0.657,3.69-1.655,6.398-3.064,8.251
		C534.424,65.308,532.167,66.362,529.507,66.362z M503.036,43.668V58.57c0,1.892,0.839,3.531,2.502,4.878
		c1.196,1.061,3.326,1.615,6.176,1.615h17.792c2.288,0,4.141-0.863,5.503-2.565c1.243-1.639,2.154-4.094,2.771-7.459
		c-1.789-0.348-4.497-1.314-8.076-2.898c-0.76,3.967-1.766,5.749-3.215,5.749h-12.606c-1.465,0-2.272-0.823-2.272-2.328V43.668
		H503.036z M487.818,57.715c2.043,0.887,4.442,2.106,7,3.547c2.858-4.846,5.036-9.494,6.485-13.817l-6.984-2.795
		C492.917,48.799,490.732,53.186,487.818,57.715z M535.588,48.316c3.294,4.197,6.445,8.425,9.375,12.59l6.35-5.448
		c-3.65-5.004-6.944-8.979-9.811-11.845L535.588,48.316z M513.235,41.681c3.381,3.381,6.144,6.303,8.425,8.9l6.049-5.155
		c-3.452-3.563-6.358-6.247-8.852-8.164L513.235,41.681z M488.103,34.626c1.726,1.924,3.27,4.482,4.6,7.633
		c10.626-2.605,17.95-6.572,21.783-11.798l0.333-0.459l0.554,0.19l0.942,0.491c2.225,1.18,4.521,2.391,6.92,3.753l4.244-7.34
		c-2.93-1.528-5.756-2.922-8.417-4.212l-0.507-0.253l0.174-0.538c0.784-2.36,1.417-5.123,1.94-8.441l0.087-0.546h16.509
		l-1.307,19.249c0,0.507-0.317,1.164-1.837,1.164h-5.178c0.911,1.789,1.647,4.434,2.233,8.013c4.395-0.032,7.506-0.404,9.518-1.148
		c2.106-0.768,3.421-2.265,4.007-4.585c1.116-3.991,1.782-14.601,1.932-30.706h-54.785v8.013h20.033l-0.166,0.784
		c-0.388,1.821-0.808,3.365-1.291,4.711l-0.214,0.602l-0.602-0.206c-3.809-1.299-7.015-2.241-9.787-2.874l-2.344,7.261
		c2.47,0.626,4.949,1.37,7.38,2.233l1.021,0.356l-0.8,0.728C501.453,30.041,495.744,32.702,488.103,34.626z M534.661,32.29
		c0,0.008,0,0.008,0,0.016V32.29z"/>
</g>
<g>
	<path fill="#FFFFFF" d="M598.005,2.48v6.584h11.205v3.357c2.238-2.449,4.622-5.125,7.135-7.977l7.638,6.291
		c-3.081,3.779-6.227,7.281-9.308,10.654h12.876v9.033h-21.859l-3.632,3.292h18.357v32.563H609.21v-2.239h-19.119v2.239h-10.93v-18
		c-3.357,1.605-6.941,3.145-10.719,4.555c-1.249-3.227-3.081-6.241-5.465-9.031c11.497-4.494,20.384-8.969,26.692-13.38h-24.243
		v-9.033h21.649v-3.017h-15.341V9.064h15.341V2.48H598.005z M609.21,52.265h-19.119v3.567h19.119V52.265z M609.21,44.919v-3.017
		h-18.292l-0.827,0.487v2.53H609.21z M603.535,18.372h-5.53v3.017h2.449L603.535,18.372z"/>
</g>
<g>
	<path d="M621.063,66.924h-12.503v-2.241h-17.824v2.241h-12.226V49.298c-3.199,1.504-6.509,2.89-9.842,4.141l-0.602,0.222
		l-0.23-0.602c-1.204-3.112-3.009-6.089-5.353-8.837l-0.594-0.689l0.847-0.333c10.325-4.046,18.663-8.116,24.807-12.131h-22.772
		V20.737h21.648v-1.718h-15.337V8.417h15.337V1.829h12.233v6.588h11.204v2.328c1.908-2.106,3.904-4.355,6.002-6.73l0.412-0.475
		l8.623,7.11l-0.412,0.499c-2.827,3.468-5.741,6.73-8.338,9.589h12.051v10.333h-22.25l-2.209,1.995h17.325V66.924z M609.859,65.625
		h9.906V34.365h-19.383l5.06-4.592h21.458v-7.736h-13.698l0.998-1.085c2.708-2.969,5.828-6.422,8.876-10.127l-6.659-5.479
		c-2.36,2.676-4.608,5.194-6.73,7.514l-1.124,1.235V9.715h-11.204V3.128h-9.636v6.588h-15.337v8.005h15.337v4.315h-21.648v7.736
		h25.655l-1.687,1.18c-6.208,4.347-14.949,8.757-25.987,13.128c2.011,2.478,3.611,5.139,4.751,7.918
		c3.429-1.299,6.81-2.748,10.08-4.307l0.926-0.443v18.378h9.628v-2.241h20.421V65.625z M609.859,56.48h-20.421v-4.862h20.421V56.48z
		 M590.737,55.181h17.824v-2.265h-17.824V55.181z M609.859,45.569h-20.421v-3.555l1.306-0.76h19.114V45.569z M590.737,44.27h17.824
		v-1.718h-17.467l-0.356,0.206V44.27z M600.714,22.036h-3.357v-4.315h7.768L600.714,22.036z M598.655,20.737h1.536l1.75-1.718
		h-3.286V20.737z"/>
</g>
<g>
	<path fill="#FFFFFF" d="M647.145,4.161h4.395h9.6l6.519,5.45l-1.833,4.135h6.941c-1.541-3.082-3.227-5.806-5.108-8.255l7.978-3.779
		c2.027,2.789,3.924,6.146,5.741,10.072l-4.622,1.962h7.978c2.741-4.622,4.703-8.886,5.967-12.877l9.227,3.844
		c-1.249,2.936-2.935,5.95-5.027,9.033h10.005v8.205h-9.941c0.211,2.789,0.487,5.319,0.908,7.621
		c1.605-1.037,3.357-2.302,5.189-3.842l6.016,7.409c-3.146,2.189-6.292,4.072-9.454,5.612c0.292,0.99,0.568,1.881,0.843,2.724
		c2.384,6.73,5.254,11.903,8.611,15.486c-3.503,2.595-6.016,5.174-7.427,7.914c-4.265-5.887-7.491-12.6-9.729-20.173
		c-1.541-4.897-2.805-12.325-3.778-22.345l-3.778,2.805c2.092,4.201,3.778,8.27,4.962,12.113c1.119,4.072,1.687,9.033,1.687,15.001
		c0,4.897-0.908,8.74-2.724,11.691c-1.476,2.239-5.4,3.357-11.773,3.357c-0.697-3.923-1.605-6.859-2.741-8.757h6.033
		c1.265,0,1.897-2.108,1.897-6.291v-0.356c-4.914,4.054-10.379,7.281-16.395,9.664c-0.632-2.027-1.751-4.282-3.292-6.73
		c-1.686,0.99-3.989,1.477-6.859,1.542c-0.276-2.66-0.779-5.254-1.622-7.768v18.146h-8.757V4.161H647.145z M678.588,41.41
		l-0.292-1.328l-0.211-0.909c-3.632,3.502-7.638,6.228-12.049,8.189c-0.341-1.118-0.827-2.239-1.395-3.504v0.503
		c0,3.066-0.697,5.741-1.962,7.914C668.502,49.68,673.821,46.032,678.588,41.41 M675.572,31.534l-0.632-1.54
		c-3.778,2.239-7.557,4.201-11.352,5.887c-0.551-2.383-1.67-4.688-3.211-7.071c1.541,4.135,2.724,7.558,3.503,10.282
		C668.145,37.356,672.069,34.826,675.572,31.534 M673.188,21.951h-9.876v-2.676l-3.568,7.849l0.422,1.055
		C664.431,26.492,668.777,24.4,673.188,21.951 M652.383,45.757c1.621,0,2.449-0.422,2.449-1.396c0-0.843-0.276-2.674-0.827-5.335
		c-0.567-2.092-1.41-4.541-2.465-7.346v14.076H652.383z M655.399,13.469h-3.86v9.941L655.399,13.469z"/>
</g>
<g>
	<path d="M674.518,67.977h-0.546l-0.095-0.538c-0.681-3.864-1.576-6.73-2.653-8.536l-0.166-0.277
		c-2.415,1.346-4.917,2.534-7.506,3.555l-0.649,0.261l-0.206-0.673c-0.554-1.774-1.536-3.817-2.906-6.057
		c-1.679,0.831-3.848,1.267-6.612,1.33l-0.602,0.016l-0.055-0.602c-0.095-0.839-0.198-1.663-0.333-2.463v13.429h-10.056V3.508
		h19.241l7.079,5.923l-1.631,3.666h4.885c-1.394-2.66-2.89-5.028-4.561-7.213l-0.491-0.641l9.185-4.347l0.317,0.435
		c2.035,2.803,3.935,6.137,5.804,10.183l0.285,0.602l-2.304,0.982h4.418c2.605-4.442,4.482-8.504,5.725-12.423L690.299,0
		l10.484,4.363l-0.261,0.602c-1.109,2.621-2.597,5.353-4.41,8.132h9.446v9.502h-9.89c0.182,2.288,0.404,4.197,0.681,5.891
		c1.457-0.99,2.898-2.082,4.292-3.262l0.507-0.42l0.42,0.507l6.453,7.958l-0.57,0.396c-3.033,2.114-6.073,3.935-9.05,5.424
		c0.237,0.776,0.459,1.489,0.689,2.185c2.344,6.612,5.194,11.75,8.464,15.242l0.499,0.531l-0.586,0.435
		c-3.571,2.637-5.939,5.155-7.237,7.681l-0.483,0.942l-0.618-0.855c-4.244-5.859-7.538-12.669-9.779-20.231
		c0.214,2.241,0.317,4.648,0.317,7.253c0,5.004-0.926,8.947-2.819,12.035C685.208,66.781,681.178,67.977,674.518,67.977z
		 M672.864,59.219c0.871,1.813,1.607,4.315,2.193,7.459c5.788-0.063,9.383-1.093,10.697-3.064c1.758-2.866,2.613-6.58,2.613-11.339
		c0-5.891-0.546-10.745-1.663-14.831c-1.14-3.698-2.803-7.736-4.917-11.988l-0.245-0.491l5.139-3.817l0.111,1.14
		c0.958,9.882,2.217,17.349,3.753,22.21c2.106,7.134,5.139,13.572,9.042,19.162c1.37-2.257,3.524-4.49,6.532-6.786
		c-3.191-3.611-5.97-8.71-8.259-15.187c-0.285-0.863-0.562-1.758-0.863-2.755l-0.15-0.523l0.491-0.245
		c2.882-1.402,5.844-3.143,8.797-5.163l-5.163-6.358c-1.544,1.267-3.136,2.431-4.751,3.476l-0.816,0.523l-0.174-0.95
		c-0.388-2.138-0.681-4.585-0.919-7.696l-0.048-0.697h9.993v-6.905h-10.586l0.689-1.014c1.94-2.851,3.516-5.646,4.711-8.322
		l-7.974-3.318c-1.299,3.896-3.207,7.934-5.812,12.336l-0.182,0.317h-8.346l-0.253-1.243l3.999-1.702
		c-1.647-3.492-3.318-6.422-5.083-8.924l-6.762,3.207c1.718,2.328,3.254,4.862,4.688,7.72l0.475,0.942h-8.995l2.043-4.6l-5.97-4.988
		h-17.467v61.318h7.459V48.625l1.267-0.206c0.752,2.265,1.275,4.664,1.584,7.308c2.558-0.119,4.513-0.586,5.946-1.441l0.546-0.317
		l0.333,0.531c1.433,2.272,2.486,4.363,3.143,6.224c5.661-2.312,10.895-5.44,15.583-9.304l1.061-0.879v1.734
		c0,2.977-0.261,6.944-2.542,6.944H672.864z M672.278,57.921h5.535c0.119,0,1.101-0.135,1.227-4.632
		C676.894,54.983,674.629,56.527,672.278,57.921z M683.189,25.362c1.489,3.033,2.748,5.954,3.753,8.734
		c-0.491-3.12-0.934-6.635-1.33-10.539L683.189,25.362z M661.105,53.685l1.014-1.734c1.243-2.138,1.877-4.695,1.877-7.586v-0.507
		l1.243-0.261c0.42,0.942,0.847,1.908,1.188,2.874c4.054-1.892,7.823-4.497,11.204-7.768l0.823-0.792l0.847,3.714l-0.261,0.253
		c-4.838,4.688-10.254,8.385-16.097,10.99L661.105,53.685z M665.151,46.756c-0.182,1.481-0.538,2.866-1.069,4.149
		c4.965-2.431,9.597-5.693,13.793-9.708l-0.174-0.784c-3.46,3.183-7.293,5.717-11.402,7.538l-0.665,0.293l-0.214-0.697
		C665.341,47.287,665.246,47.018,665.151,46.756z M652.38,46.408h-1.489V31.68l1.259-0.23c1.172,3.128,1.964,5.479,2.478,7.411
		c0.396,1.885,0.855,4.339,0.855,5.503C655.483,45.299,654.945,46.408,652.38,46.408z M652.189,45.109h0.19
		c1.805,0,1.805-0.538,1.805-0.744c0-0.475-0.103-1.789-0.816-5.202c-0.293-1.085-0.681-2.32-1.18-3.777V45.109z M663.449,39.963
		l-0.198-0.697c-0.728-2.558-1.869-5.899-3.484-10.222l0.071-0.04l-0.04,0.016l-0.76-1.916l0.111-0.253l3.571-7.847l1.243,0.269
		V21.3h11.735l-2.193,1.219c-4.323,2.399-8.536,4.426-12.526,6.034c1.473,2.272,2.47,4.387,3.049,6.422
		c3.492-1.584,7.047-3.444,10.579-5.535l0.649-0.388l1.085,2.653l-0.325,0.309c-3.547,3.334-7.554,5.915-11.893,7.681
		L663.449,39.963z M663.766,36.51c0.198,0.594,0.372,1.164,0.531,1.702c3.809-1.639,7.34-3.935,10.507-6.841l-0.182-0.435
		c-3.603,2.106-7.221,3.967-10.769,5.535L663.766,36.51z M660.448,27.135l0.079,0.198c3.238-1.306,6.627-2.89,10.103-4.735h-7.966
		v-0.333L660.448,27.135z M652.142,23.651l-1.251-0.238V12.819h5.456L652.142,23.651z M652.189,14.118v5.828l2.257-5.828H652.189z"
		/>
</g>
<g>
	<path fill="#E71F19" d="M236.942,32.605h26.578c-18.795,6.487-28.524,25.932-29.173,32.417H209.05
		c1.946-5.188,12.973-20.739,12.973-20.739C232.401,46.875,236.942,32.605,236.942,32.605"/>
</g>
<g>
	<path fill="#221815" d="M235.516,66.322h-28.331l0.657-1.75c1.972-5.289,12.669-20.397,13.12-21.038l0.515-0.721l0.863,0.214
		c9.011,2.312,13.192-10.278,13.366-10.816l0.285-0.903h27.531l0.42,2.526c-18.053,6.232-27.69,25.172-28.307,31.316L235.516,66.322
		z M211.065,63.725h22.171c1.386-6.841,9.359-22.068,24.047-29.82h-19.415c-1.94,5.242-7.063,13.271-15.274,11.822
		C220.685,48.451,213.741,58.459,211.065,63.725z"/>
</g>
<g>
	<path fill="#E71F19" d="M269.039,31.953h26.594c-18.811,6.487-28.541,25.948-29.189,32.433h-25.281
		c1.946-5.188,12.957-20.755,12.957-20.755C264.498,46.224,269.039,31.953,269.039,31.953"/>
</g>
<g>
	<path fill="#221815" d="M267.616,65.681h-28.331l0.665-1.758c1.98-5.281,12.661-20.405,13.112-21.046l0.515-0.721l0.863,0.214
		c9.035,2.272,13.192-10.278,13.366-10.816l0.285-0.903h27.539l0.42,2.526c-18.053,6.232-27.697,25.187-28.315,31.332
		L267.616,65.681z M243.173,63.083h22.163c1.386-6.849,9.367-22.076,24.063-29.835h-19.431c-1.948,5.242-7.182,13.192-15.274,11.83
		C252.793,47.794,245.857,57.818,243.173,63.083z"/>
</g>
<g>
	<path fill="#E71F19" d="M702.316,116.762c-26.579,1.299-52.525,9.731-29.173,21.407c-20.757,0.631-33.73,6.471-14.27,14.902
		c-19.46-0.647-28.541,1.946-31.135-16.216C632.278,107.033,702.316,116.762,702.316,116.762"/>
</g>
<g>
	<path fill="#221815" d="M658.833,154.371c-2.518-0.087-4.862-0.119-7.039-0.143c-14.783-0.19-22.923-0.293-25.338-17.19
		l-0.032-0.19l0.032-0.19c4.672-30.738,73.116-21.608,76.045-21.181l-0.119,2.581c-19.993,0.974-35.893,5.622-36.977,10.8
		c-0.491,2.328,2.463,5.226,8.314,8.148l-0.538,2.463c-14.181,0.428-22.084,3.183-22.559,5.677c-0.127,0.633,0.15,3.001,8.765,6.738
		L658.833,154.371z M629.053,136.864c2.122,14.506,8.195,14.585,22.772,14.767c0.443,0.008,0.895,0.016,1.354,0.024
		c-3.88-2.352-5.558-4.656-5.107-7c1.006-5.266,12.542-6.992,20.547-7.554c-4.442-2.898-6.374-5.844-5.756-8.781
		c1.196-5.669,12.17-9.51,25.298-11.481C667.804,115.723,632.307,116.863,629.053,136.864z"/>
</g>
<g>
	<path fill="#E71F19" d="M110.927,34.337c15.567,0,112.395,0.212,112.395,0.212s-43.881,2.255-32.416,6.697
		c18.146,3.682,11.887,2.692,11.887,2.692c-29.611,1.72-51.227,20.223-57.292,31.461h114.13
		c-50.141,5.188-44.952,15.129-35.449,20.318c-21.616,4.329-36.73,22.054-80.838,96.407c-12.746,22.701,27.243,23.156,27.243,23.156
		l-69.178-0.016c-12.973-7.785-7.784-19.249,3.454-37.411c11.254-18.146,39.779-63.974,39.779-63.974l-27.665,4.331l-51.016,79.929
		c-4.103,7.346,26.676,17.238,26.676,17.238l-71.627,0.049c-13.832-8.645,0-19.411,11.238-36.698
		c11.238-17.287,25.07-40.638,25.07-40.638s-22.476,4.329-56.205,25.071l41.514-69.163c14.692-7.783,53.595-13.833,53.595-13.833
		c10.378-4.329,8.222-19.037,2.173-24.212C100.111,51.624,110.927,34.337,110.927,34.337"/>
</g>
<g>
	<path d="M20.635,216.726l-0.317-0.198c-3.642-2.28-5.685-4.838-6.247-7.823c-1.093-5.828,3.619-12.146,9.581-20.144
		c2.47-3.31,5.028-6.73,7.506-10.539c8.884-13.667,19.518-31.332,23.469-37.943c-7.126,1.9-26.652,8.084-52.837,24.19L0,162.495
		l41.697-69.473l0.317-0.174c14.72-7.791,52.41-13.722,54.009-13.968c4.094-1.75,5.535-5.432,5.97-8.195
		c0.784-4.996-1.124-10.903-4.442-13.738l-0.705-0.61l0.34-0.855c1.742-4.395,12.194-21.118,12.637-21.83l0.38-0.61h0.721
		c15.567,0,112.397,0.206,112.397,0.206l0.063,2.597c-13.587,0.697-29.012,2.352-32.575,3.951c0.15,0.071,0.333,0.15,0.562,0.238
		c13.999,2.819,13.999,2.819,13.738,4.244c-0.23,1.306-1.512,1.101-2.526,0.942c-26.446,1.56-47.263,17.206-54.801,28.877h111.843
		l0.135,2.589c-35.117,3.634-39.986,9.367-40.446,11.663c-0.372,1.853,1.631,4.117,5.487,6.224l3.136,1.71l-3.5,0.705
		c-21.363,4.276-36.312,22.186-79.981,95.801c-2.605,4.64-3.017,8.583-1.211,11.711c5.273,9.122,27.135,9.478,27.357,9.478
		l-0.016,2.597l-69.537-0.016l-0.309-0.19c-4.379-2.621-6.952-5.749-7.879-9.557c-1.766-7.269,2.47-16.026,10.895-29.645
		c9.708-15.654,32.266-51.903,38.284-61.571l-24.293,3.801l-50.7,79.434c-0.222,0.412-0.238,0.879-0.016,1.449
		c2.035,5.171,19.455,11.758,25.995,13.865l-0.396,2.534L20.635,216.726z M59.908,136.27l-1.473,2.486
		c-0.143,0.23-13.975,23.564-25.108,40.675c-2.518,3.88-5.218,7.498-7.593,10.682c-5.582,7.491-10.001,13.405-9.114,18.109
		c0.404,2.162,1.964,4.094,4.767,5.907l63.749-0.04c-7.578-2.93-18.568-7.918-20.516-12.859c-0.507-1.291-0.435-2.581,0.206-3.729
		l51.373-80.479l0.578-0.095l30.461-4.767l-1.497,2.407c0,0-28.521,45.822-39.781,63.962c-7.863,12.716-12.115,21.323-10.579,27.674
		c0.736,3.009,2.827,5.551,6.39,7.76l51.626,0.016c-5.147-1.584-10.048-4.117-12.4-8.187c-2.296-3.967-1.885-8.781,1.211-14.3
		c42.108-70.986,57.953-90.773,78.65-96.332c-3.183-2.312-4.592-4.814-4.086-7.316c0.95-4.719,8.789-8.401,23.841-11.149h-97.29
		l1.037-1.916c6.073-11.244,25.338-27.317,50.85-31.332c-1.306-0.269-2.819-0.578-4.569-0.926c-1.029-0.38-3.207-1.227-2.922-3.017
		c0.23-1.441,3.199-2.684,8.852-3.714c-29.218-0.063-73.417-0.15-84.929-0.15c-1.805,2.906-9.533,15.393-11.695,19.993
		c3.555,3.595,5.479,9.906,4.608,15.456c-0.76,4.83-3.547,8.48-7.839,10.27c-0.681,0.143-38.593,6.105-53.17,13.619L4.901,159.36
		c31.086-18.33,51.959-22.503,52.172-22.543L59.908,136.27z"/>
</g>
<g>
	<path fill="#E71F19" d="M186.143,157.107h16.865l-14.919,30.487h-22.054l11.027-22.054
		C185.494,166.189,186.143,157.107,186.143,157.107"/>
</g>
<g>
	<path fill="#221815" d="M188.894,188.894h-24.958l12.36-24.712l0.871,0.071c2.843,0.174,5.076-0.879,6.429-3.254
		c1.085-1.908,1.251-3.975,1.259-3.991l0.087-1.196l20.152-0.008L188.894,188.894z M168.133,186.297h19.146l13.651-27.895h-13.667
		c-0.317,1.599-1.18,4.45-3.452,6.406c-1.592,1.378-3.571,2.067-5.891,2.067c-0.024,0-0.048,0-0.071,0L168.133,186.297z"/>
</g>
<g>
	<path fill="#E71F19" d="M214.671,156.784h16.865l-14.919,30.487h-22.038l11.011-22.054
		C214.022,165.866,214.671,156.784,214.671,156.784"/>
</g>
<g>
	<path fill="#221815" d="M217.423,188.569h-24.942l12.344-24.712l0.871,0.071c2.843,0.127,5.083-0.871,6.422-3.246
		c1.085-1.916,1.251-3.975,1.259-3.991l0.087-1.196l20.152-0.008L217.423,188.569z M196.677,185.972h19.13l13.643-27.888h-13.667
		c-0.317,1.599-1.18,4.442-3.452,6.398c-1.592,1.378-3.571,2.067-5.891,2.067c-0.016,0-0.04,0-0.063,0L196.677,185.972z"/>
</g>
<g>
	<path fill="#E71F19" d="M244.425,145.75h55.119c-25.946,3.244-30.47,3.894-16.216,11.677c-16.2,5.188-18.957,10.119-35.173,45.794
		c-1.93,9.08-4.524,8.383,29.838,12.924c-22.573,0-51.227,0.049-51.227,0.049c-14.919-3.244-11.027-7.785-5.189-18.162
		c5.838-10.379,17.011-32.838,17.011-32.838h-4.541L244.425,145.75z"/>
</g>
<g>
	<path fill="#221815" d="M226.766,217.494c-6.794-1.449-10.072-3.167-11.236-5.772c-1.433-3.223,0.721-6.984,3.698-12.194
		l1.211-2.13c4.783-8.488,13.239-25.29,16.05-30.904h-4.608l11.766-22.044h55.894l0.158,2.589
		c-11.925,1.489-22.218,2.779-23.073,4.276c0.103,0.348,1.156,1.607,7.324,4.973l2.653,1.449l-2.882,0.926
		c-15.654,5.012-18.307,9.723-34.388,45.094c-0.055,0.396-0.198,1.014-0.333,1.576c-0.507,2.154-0.752,3.302-0.301,3.959
		c1.283,1.853,8.971,2.866,25.829,5.091l3.626,0.483l-0.166,2.581C255.422,217.447,226.766,217.494,226.766,217.494z
		 M236.205,163.897h4.482l-0.934,1.877c-0.111,0.222-11.26,22.606-17.048,32.892l-1.227,2.154c-2.597,4.545-4.474,7.823-3.571,9.85
		c0.752,1.694,3.737,3.088,9.137,4.26c0-0.024,15.044-0.055,31.894-0.071c-8.116-1.243-11.062-2.185-12.368-4.094
		c-1.132-1.631-0.673-3.571-0.095-6.026c0.135-0.554,0.269-1.148,0.412-1.789c15.124-33.343,18.774-40.572,33.264-45.814
		c-4.339-2.526-6.437-4.347-6.057-6.35c0.333-1.734,2.209-2.755,7.142-3.737H245.2L236.205,163.897z"/>
</g>
<g>
	<path fill="#E71F19" d="M371.602,90.094h75.227c-37.622,4.541-52.524,14.27-33.081,16.866
		c-16.849,1.946-49.93,22.687-29.822,18.146c-16.865,9.729-16.865,18.162-16.865,18.162c25.298-4.541,57.714-4.541,57.714-4.541
		c-28.524,4.541-35.011,14.27-29.173,18.811c-12.973,0.649-40.216,5.838-41.514,8.433c-7.135,8.417-18.146,27.876-18.146,27.876
		c-7.135,10.379-14.822,21.567,27.341,21.567c-25.979,0-60.422-0.162-60.422-0.162c-8.432-1.297-9.73-9.729-2.595-20.755
		c7.135-11.028,12.324-18.811,12.324-18.811l-32.416,10.379l14.902-32.417l32.432-5.188l6.487-9.082
		c-8.433,1.297-31.784,0.649-31.784,0.649l9.73-20.108C328.158,121.863,349.548,117.972,371.602,90.094"/>
</g>
<g>
	<path fill="#221815" d="M363.282,216.71c-25.979,0-60.431-0.158-60.431-0.158c-3.817-0.578-6.406-2.36-7.673-5.178
		c-1.948-4.347-0.523-10.594,3.999-17.586c4.45-6.873,8.14-12.479,10.294-15.741l-31.704,10.151l16.422-35.719l32.575-5.218
		l4.482-6.263c-9.842,0.831-28.204,0.325-29.075,0.325l-2.003-0.055l11.006-22.749l0.926,0.111
		c21.648,2.653,40.81-6.984,58.491-29.344l0.388-0.491h75.847l0.158,2.589c-28.576,3.452-40.469,9.312-40.477,11.679
		c-0.008,0.451,1.322,1.797,7.411,2.613l-0.024,2.573c-12.732,1.473-32.029,12.693-34.681,16.2c0.665,0.103,1.932-0.04,4.426-0.61
		l0.934,2.391c-11.568,6.675-14.886,12.661-15.836,15.432c24.823-4.189,55.72-4.236,56.036-4.236l0.206,2.581
		c-20.445,3.254-28.901,9.106-29.93,13.136c-0.333,1.283,0.127,2.415,1.354,3.373l2.756,2.146l-3.492,0.174
		c-13.603,0.681-38.537,5.78-40.493,7.823c-7.071,8.377-17.998,27.626-18.101,27.824c-3.341,4.862-6.73,9.787-4.957,13.152
		c2.265,4.3,12.748,6.477,31.166,6.477V216.71z M303.239,213.971c1.829,0,17,0.063,34.262,0.103
		c-3.983-1.259-6.509-2.993-7.681-5.226c-2.502-4.751,1.338-10.341,5.052-15.741c0.396-0.705,11.093-19.558,18.227-27.975
		c1.56-3.191,27.626-7.657,39.86-8.71c-0.633-1.196-0.784-2.534-0.428-3.927c1.227-4.759,7.981-9.05,18.734-12.154
		c-11.75,0.451-29.17,1.544-43.977,4.205l-1.528,0.277v-1.552c0-0.34,0.166-7.57,12.756-16.288c-0.784-0.119-1.338-0.388-1.71-0.823
		c-0.491-0.578-0.594-1.362-0.285-2.162c1.647-4.212,18.568-13.564,31.118-17.087c-2.51-0.942-3.737-2.217-3.729-3.864
		c0.032-4.616,11.679-8.765,26.304-11.655h-57.984c-17.934,22.448-37.429,32.187-59.52,29.922l-8.457,17.459
		c5.828,0.111,22.757,0.356,29.542-0.681l3.041-0.467l-8.583,12.028l-32.29,5.171l-13.382,29.115l33.145-10.618l-2.059,3.088
		c0,0-5.178,7.776-12.305,18.79c-3.975,6.137-5.368,11.648-3.817,15.108c0.903,2.011,2.755,3.238,5.511,3.666
		C303.057,213.971,303.12,213.971,303.239,213.971z"/>
</g>
<g>
	<path fill="#E71F19" d="M409.211,149.327h61.605c-22.054,1.299-27.243,6.487-29.173,9.082c1.93-0.649,23.983,0.649,23.983,0.649
		c2.595-2.595,11.676-10.379,11.676-10.379c11.027,5.838,30.47,9.729,51.227,3.892c-3.892,7.134-25.946,12.972-25.946,12.972
		c3.243,2.595,9.729,1.299,9.729,1.299c-5.189,5.838-39.551,23.984-55.768,22.038c3.243-4.541,12.325-18.146,12.325-18.146
		c-5.189-1.297-20.108-1.297-22.054,1.297c0.649,7.12,12.973,28.525,12.973,28.525c4.541,7.136,12.324,10.329,32.432,14.87
		c-21.032,0-47.352,0.049-47.352,0.049c-11.011-4.541-26.578-37.623-26.578-37.623c-19.46,2.595-36.957,11.675-39.552,14.92
		c0-2.595,11.66-27.228,11.66-27.228l22.054-3.892C409.859,158.409,409.211,149.327,409.211,149.327"/>
</g>
<g>
	<path fill="#221815" d="M444.617,216.774l-0.238-0.103c-10.46-4.315-24.245-32.013-26.85-37.405
		c-19.526,2.811-35.671,11.687-37.777,14.316l-2.312,2.89v-3.698c0-2.684,9.027-21.941,11.79-27.785l0.285-0.61l0.665-0.111
		l20.199-3.571c-1.892-3.999-2.399-10.444-2.455-11.275l-0.103-1.394h62.996l0.079,2.597c-12.637,0.744-21.331,2.866-25.932,6.319
		c0.079,0,0.166,0,0.253,0c5.677,0,15.614,0.538,19.906,0.784c3.017-2.898,10.982-9.731,11.331-10.032l0.673-0.578l0.784,0.412
		c10.191,5.4,29.455,9.628,50.272,3.793l2.961-0.831l-1.473,2.708c-3.136,5.741-16.493,10.484-23.081,12.526
		c2.106,0.301,4.418,0.048,5.471-0.158l3.793-0.744l-2.573,2.882c-5.123,5.756-40.184,24.514-56.891,22.464l-0.823-0.103
		c2.787,5.376,5.289,9.747,5.345,9.842c4.102,6.437,11.196,9.644,31.593,14.253l-0.285,2.565c-21.03,0-47.35,0.048-47.35,0.048
		H444.617z M419.057,176.439l0.404,0.855c0.158,0.325,15.258,32.211,25.678,36.882c2.32,0,19.312-0.032,36.289-0.04
		c-12.043-3.254-18.726-6.596-22.733-12.883c-0.538-0.934-12.503-21.791-13.168-29.107l-0.048-0.499l0.301-0.396
		c2.645-3.547,18.845-2.938,23.406-1.774l1.782,0.451l-1.021,1.528c-0.079,0.119-7.142,10.697-11.006,16.272
		c0.071,0,0.143,0,0.214,0c14.435,0,39.899-12.637,49.219-19.273c-2.193-0.032-4.783-0.443-6.604-1.9l-2.003-1.607l2.486-0.657
		c4.893-1.299,16.588-5.075,22.329-9.391c-19.304,4.323-36.621,0.626-47.097-4.672c-2.138,1.845-8.813,7.617-10.943,9.747
		l-0.412,0.412l-0.586-0.032c-10.357-0.618-22.155-1.069-23.501-0.713l-3.555,0.919l2.114-2.93
		c1.014-1.362,3.421-4.608,12.241-7.008H410.64c0.333,3.009,1.204,8.187,2.827,10.206l1.37,1.71l-23.548,4.165
		c-3.476,7.364-7.902,17.111-10.016,22.424c6.825-4.355,21.498-10.523,36.843-12.566L419.057,176.439z M448.188,172.527
		c0.61,3.666,3.761,10.452,6.77,16.351l0.538-0.752c2.526-3.539,8.702-12.74,11.212-16.485
		C460.722,170.738,450.429,171.213,448.188,172.527z"/>
</g>
<g>
	<path fill="#E71F19" d="M592.078,92.123c16.216,1.948,59.659,3.894,72.632-7.783c-5.838,11.028-33.081,24-36.324,24.633
		c5.189,1.962,11.027,0,11.027,0c-6.486,9.729-28.524,17.513-28.524,17.513c-1.297,6.487-32.432,47.336-53.822,55.12
		c14.254,8.433,26.579,24,28.524,33.729h-47.335c4.541-5.188,12.324-24-12.973-42.162c7.784-0.649,14.919,1.946,16.865,3.892
		c13.622-10.361,26.579-35.01,25.281-51.875c-11.659,0.649-69.373,18.162-73.913,24.649c1.297-7.783,12.973-32.433,18.162-38.254
		c5.821-3.244,61.589-12.974,72.616-9.729C586.889,99.259,592.078,92.123,592.078,92.123"/>
</g>
<g>
	<path fill="#221815" d="M587.174,216.631h-51.776l1.885-2.154c2.019-2.312,5.202-8.266,4.315-15.947
		c-1.006-8.718-6.746-16.897-17.071-24.301l-2.858-2.051l3.508-0.293c7.324-0.626,14.039,1.481,16.984,3.524
		c11.98-9.676,24.578-32.29,24.047-48.807c-14.799,1.679-67.842,18.568-71.627,23.976l-2.344-0.958
		c1.354-8.14,13.089-32.868,18.473-38.902l0.333-0.269c5.836-3.231,59.774-12.756,72.839-10.04c2.613-2.819,7.095-8.979,7.142-9.042
		l0.451-0.618l0.76,0.087c14.498,1.758,58.752,4.117,71.603-7.467l2.019,1.576c-4.973,9.391-23.889,19.605-32.813,23.596
		c3.286,0.127,5.915-0.784,5.954-0.792l3.595-1.211l-2.106,3.159c-6.105,9.153-24.823,16.414-28.545,17.784
		c-2.993,8.084-30.809,44.706-52.038,54.358c12.867,8.401,24.934,23.145,26.961,33.24L587.174,216.631z M540.814,214.034h43.114
		c-2.708-9.09-13.849-23.224-27.515-31.316l-2.367-1.402l2.581-0.934c21.434-7.791,51.903-48.736,52.988-54.152l0.15-0.721
		l0.689-0.245c0.198-0.071,17.594-6.287,25.583-14.268c-2.257,0.253-5.25,0.277-8.108-0.808l-4.268-1.607l4.482-0.879
		c2.352-0.459,21.252-9.359,30.857-18.386c-17.523,7.562-51.982,5.836-66.322,4.189c-1.33,1.805-5.258,7.055-7.467,9.264
		l-0.546,0.546l-0.736-0.222c-10.571-3.08-64.889,6.311-71.437,9.525c-4.497,5.242-13.706,24.166-16.786,33.897
		c13.651-8.116,61.927-22.076,71.651-22.622l1.267-0.071l0.095,1.267c1.394,18.053-12.463,42.869-25.781,53.004l-0.903,0.689
		l-0.8-0.8c-1.338-1.338-6.208-3.334-12.186-3.587c9.05,7.261,14.142,15.266,15.124,23.841
		C544.931,204.77,543.07,210.407,540.814,214.034z"/>
</g>
<g>
	<path fill="#E71F19" d="M622.557,177.066c25.281-1.297,77.805-14.268,92.724-81.713c3.892,42.162-6.486,82.362-41.497,110.238
		c8.432,2.611-3.892,2.611,46.038,9.729h-88.833c-3.892-2.593-22.703-18.794-22.703-18.794
		C609.583,194.581,622.557,177.066,622.557,177.066"/>
</g>
<g>
	<path fill="#221815" d="M719.818,216.615h-89.229l-0.325-0.222c-3.912-2.597-22.06-18.22-22.828-18.885l-0.871-0.744l0.641-0.958
		c1.299-1.948,13.777-18.798,14.308-19.518l0.364-0.491l0.618-0.032c17.475-0.887,75.737-9.343,91.517-80.685l2.558,0.158
		c4.307,46.598-9.581,84.549-40.192,109.919c0.768,0.333,1.275,0.633,1.75,0.911c2.193,1.299,4.458,2.637,41.871,7.966
		L719.818,216.615z M631.389,214.018h70.804c-21.331-3.318-23.232-4.442-25.385-5.709c-0.76-0.451-1.481-0.879-3.405-1.473
		l-2.344-0.728l1.916-1.528c29.764-23.699,43.732-57.66,41.586-101.035c-18.37,65.103-73.369,73.741-91.319,74.778
		c-1.892,2.55-10.586,14.308-13.223,17.982C613.684,199.457,627.564,211.318,631.389,214.018z"/>
</g>
</svg>
