<?xml version="1.0" encoding="utf-8"?>
<!-- Generator: Adobe Illustrator 27.1.1, SVG Export Plug-In . SVG Version: 6.00 Build 0)  -->
<svg version="1.1" id="레이어_1" xmlns="http://www.w3.org/2000/svg" xmlns:xlink="http://www.w3.org/1999/xlink" x="0px"
	 y="0px" viewBox="0 0 720 129.781" enable-background="new 0 0 720 129.781" xml:space="preserve">
<polygon fill="#E60039" points="124.992,92.031 582.449,73.405 567.27,101.687 145.171,129.781 "/>
<path d="M106.494,73.79c-1.381,0-1.655-0.3-4.922-5.291c-6.38-9.802-8.593-11.8-17.897-20.196l-0.3-0.274
	c-2.461-2.17-2.967-3.679-2.967-4.562c0-2.307,2.153-4.545,3.722-6.183c15.865-16.397,15.865-18.386,15.865-20.144
	c0-1.552-1.106-2.916-3.464-4.262c0.592-0.154,1.278-0.266,2.229-0.266c5.377,0,10.008,4.674,10.008,6.972
	c0,1.844-2.418,3.567-4.974,5.394c-0.232,0.137-3.121,2.427-9.939,7.89c-6.166,5.051-9.039,8.293-9.039,10.205
	c0,1.201,0.566,2.17,3.653,4.142c11.543,7.538,19.046,14.964,20.496,17.263c0.849,1.355,1.389,3.13,1.389,4.528
	C110.353,71.817,108.32,73.79,106.494,73.79 M119.4,31.049c-1.192,0-1.406-0.403-2.204-2.324l-0.103-0.249
	c-1.432-3.567-3.044-5.583-4.331-6.946c2.787,0.84,5.051,2.23,5.994,2.856c1.055,0.66,2.779,1.741,2.779,4.331
	C121.535,29.84,120.866,31.049,119.4,31.049 M126.475,26.684c-1.029,0-1.578-0.918-2.453-2.547c-2.11-3.79-4.219-5.703-5.797-6.775
	c4.691,0.652,10.256,2.899,10.256,6.655C128.481,25.543,127.418,26.684,126.475,26.684"/>
<path d="M171.891,71.271c-2.324,0-2.985-1.852-3.542-4.099c-1.844-7.058-4.631-17.709-9.785-25.598l-0.266-0.42l-0.386,0.317
	c-3.499,2.899-4.322,3.808-6.329,5.994c-0.249,0.317-1.535,1.775-3.181,1.775c-3.422,0-7.761-3.439-7.761-7.298
	c0-1.518,0.557-2.564,1.055-3.259c1.261,2.504,3.173,3.636,4.588,3.636c1.664,0,2.547-0.463,9.407-4.022l0.48-0.249
	c0,0-1.029-1.243-1.604-1.93c-0.995-1.192-2.316-2.778-3.242-3.919c-0.635-0.755-1.226-1.458-1.226-2.761
	c0-2.59,1.895-4.742,3.73-5.334c2.015-0.695,9.459-1.038,10.977-1.038c0.875,0,1.964,0,1.964-1.106c0-1.535-3.293-3.07-8.095-5.008
	c1.158-0.249,2.341-0.369,3.687-0.369c4.648,0,13.318,2.273,13.318,7.761c0,1.518-1.175,2.204-2.273,2.204
	c-0.934,0-1.62-0.274-3.859-1.218c-0.918-0.395-5.831-1.629-9.365-1.629c-2.281,0-4.939,0.78-4.939,2.959
	c0,0.969,0.352,1.535,4.648,8.447l5.162,8.25c7.058,11.534,10.625,19.252,10.625,22.931
	C175.681,67.918,174.755,71.271,171.891,71.271"/>
<path d="M184.394,47.986c-3.568,0-8.679-0.9-12.769-3.37c0.952,0.206,2.264,0.412,4.039,0.412c7.169,0,14.595-3.825,14.595-10.231
	c0-4.116-3.318-5.994-6.397-5.994c-4.425,0-12.16,3.139-19.364,7.847l-1.381-2.204c6.269-3.104,15.23-7.075,22.528-7.075
	c6.38,0,11.011,4.099,11.011,9.742C196.657,40.139,194.453,47.986,184.394,47.986"/>
<path d="M302.036,69.55c-6.826,0-7.169-15.059-7.169-18.077c0-7.101,0.789-11.646,2.898-23.78c0.069-0.352,0.412-2.101,0.412-3.542
	c0-2.736-1.381-4.159-2.496-4.991c0.343-0.086,0.695-0.129,1.123-0.129c4.125,0,8.49,3.413,8.49,6.638
	c0,1.072-0.292,1.604-0.994,2.873c-1.055,1.895-5.291,11.517-5.291,20.942c0,0.669,0.051,6.526,1.767,6.526
	c0.206,0,0.703,0,1.406-1.87c0.48-1.235,2.084-5.008,3.379-8.044c0.472-1.124,0.918-2.161,1.269-2.993
	c-0.943,4.742-2.796,15.222-2.796,17.897c0,0.455,0.12,1.647,0.249,2.916c0.103,1.115,0.223,2.273,0.223,2.641
	C304.506,68.572,303.691,69.55,302.036,69.55 M323.269,68.101c-3.902,0-11.268-1.595-11.268-7.632c0-4.991,4.828-8.095,12.589-8.095
	c1.406,0,2.427,0.12,3.413,0.231l1.424,0.154l-0.026-0.515c-0.592-12.435-0.6-12.538-0.661-15.29l-0.017-0.489l-0.48,0.017
	c-3.542,0.386-3.928,0.386-4.845,0.386c-3.67,0-8.361-1.398-10.145-5.265c2.453,0.909,4.665,1.261,7.77,1.261
	c2.453,0,4.836-0.223,7.289-0.678l0.369-0.069l-0.009-0.369c-0.197-8.267-0.257-8.764-0.686-10.171
	c-0.635-1.852-2.178-2.238-5.137-2.693c2.504-2.127,5.016-2.298,5.78-2.298c2.067,0,6.766,1.655,6.766,4.382
	c0,0.446-0.326,2.17-0.652,3.679c-0.223,1.115-0.411,2.221-0.737,5.48l-0.06,0.677l1.51-0.506c3.919-1.312,4.425-1.475,5.274-1.475
	c1.415,0,4.785,0.806,4.785,2.796c0,2.41-2.855,3.147-11.448,4.133l-0.377,0.043l-0.008,0.386
	c-0.129,5.463,0.223,11.783,0.994,17.794l0.035,0.257l0.249,0.094c7.624,2.873,11.019,5.6,11.019,8.85
	c0,3.422-2.109,3.593-2.53,3.593c-0.875,0-1.51-0.206-2.624-0.858c-0.257-0.171-1.518-1.235-2.735-2.264
	c-1.312-1.098-2.667-2.238-3.182-2.616l-0.48-0.352l-0.197,0.566C333.02,64.808,330.858,68.101,323.269,68.101 M321.151,55.726
	c-4.399,0-6.921,1.364-6.921,3.748c0,1.492,1.312,4.013,6.26,4.013c6.569,0,8.181-3.13,8.378-5.763l0.017-0.292l-0.249-0.129
	C327.763,56.832,325.713,55.726,321.151,55.726"/>
<path d="M465.402,69.993c3.379-0.806,9.639-2.813,16.036-7.581c4.836-3.61,6.997-7.212,6.997-11.671
	c0-0.832-0.223-8.181-7.787-8.181c-10.497,0-17.64,10.239-20.23,14.639c-0.857,1.441-1.663,2.17-2.393,2.17
	c-1.492,0-4.519-2.83-4.519-6.114c0-0.755,0.489-3.293,0.883-5.325c0.275-1.415,0.515-2.641,0.566-3.156
	c0.317-2.941,0.66-7.092,0.66-9.905c0-5.6,0-8.687,8.953-10.016l0.429-0.051c1.57-0.172,2.487-0.292,2.813-0.455
	c0.292-0.189,0.515-0.369,0.515-0.789c0-0.626-0.188-0.755-2.452-2.315c-1.681-1.141-3.104-4.125-3.104-6.423
	c0-0.317,0.008-0.575,0.034-0.798c3.55,3.13,5.446,3.653,9.716,4.819l0.403,0.111c6.612,1.775,6.689,7.195,6.689,7.246
	c0,2.899-2.435,2.933-2.539,2.933c-0.995,0-1.904-0.412-2.976-0.943c-1.972-0.986-5.291-2.17-9.922-2.17
	c-1.484,0-5.995,0-5.995,2.959c0,1.295,0.712,2.152,1.69,3.327c0.737,0.952,1.483,2.333,1.483,3.224
	c0,0.918-0.103,1.226-1.072,4.193l-0.231,0.695c-0.789,2.298-1.672,6.535-1.672,7.418c0,0.832,0.489,1.364,1.235,1.364
	c0.592,0,1.312-0.532,1.501-0.72c4.228-3.164,13.412-7.684,20.461-7.684c7.675,0,13.918,5.591,13.918,12.46
	c0,10.025-11.577,16.748-28.797,16.748C466.268,70.002,465.839,70.002,465.402,69.993"/>
<path d="M554.444,68.692c-2.676,0-16.243-0.24-20.719-4.957c-3.182-3.379-3.182-7.358-3.182-20.53v-0.617l-0.583,0.197
	c-0.051,0.017-5.403,1.835-7.838,3.353l-0.309,0.197c-1.775,1.149-1.955,1.252-2.564,1.252c-2.358,0-6.106-3.645-6.106-7.958
	c0-1.081,0.206-1.758,0.489-2.333c1.055,1.792,2.487,3.37,5.617,3.37c1.389,0,2.53-0.24,11.011-2.067l0.351-0.069v-0.36
	c0-9.467-0.154-10.797-5.042-11.963c0.9-0.806,2.229-1.681,4.528-1.681c2.444,0,7.238,2.015,7.238,4.451
	c0,0.515-0.42,1.947-0.574,2.487l-0.069,0.24c-0.052,0.154-0.103,0.369-0.154,0.635h-0.017l-0.06,0.429
	c-0.111,0.746-0.532,4.476-0.78,6.706c-0.077,0.635-0.197,1.698-0.197,1.698c-0.214,2.118-0.463,5.617-0.463,10.231
	c0,7.975,0.763,11.226,8.507,11.226c2.787,0,9.776-0.12,14.656-1.201l0.377-0.086c0.746-0.163,1.381-0.3,1.904-0.3
	c2.564,0,4.982,2.324,4.982,4.785c0,0.755-0.111,1.381-1.501,1.904C562.016,68.392,557.231,68.692,554.444,68.692"/>
<path d="M549.088,56.585c-1.244,0-1.879-0.574-2.359-2.135c-0.909-2.856-1.261-3.653-5.257-6.843
	c3.438,1.183,6.131,1.261,6.157,1.261c1.209,0,2.127-0.231,2.873-3.173c0.489-2.007,0.952-7.461,1.012-8.078l0.043-0.557L551,37.144
	c-2.856,0.437-6.809,1.158-12.237,2.744l0.36-3.199l0.995-0.223c4.014-0.892,9.733-2.161,11.242-2.496l0.343-0.069l0.008-0.352
	c0.077-3.319,0.12-11.26-1.115-13.395c-0.48-0.789-1.732-2.101-4.965-2.616c1.175-1.072,2.821-1.621,4.914-1.621
	c4.288,0,7.049,2.933,7.075,2.967c0.369,0.437,0.549,1.081,0.549,1.955c0,0.729-0.043,0.978-0.343,2.59l-0.112,0.566
	c-0.258,1.415-0.523,4.348-0.712,6.483l-0.215,2.247l0.609-0.146c2.641-0.66,5.531-1.432,6.972-2.152
	c1.072-0.566,1.929-0.617,2.71-0.617c1.518,0,7.435,1.029,7.435,3.928c0,2.461-1.733,2.804-3.593,2.804
	c-0.634,0-2.384-0.111-4.065-0.206c-1.638-0.103-3.181-0.197-3.748-0.197c-2.427,0-4.511,0.094-6.191,0.266l-0.368,0.043
	l-0.026,0.36c-0.772,9.802-1.157,14.724-3.739,17.889C551.712,56.002,550.16,56.585,549.088,56.585"/>
<path d="M595.999,69.949c-1.467,0-3.593-1.561-3.593-4.391c0-1.424,0.214-1.775,2.246-5.102l0.137-0.223
	c4.245-6.792,7.89-14.338,10.823-22.425c0.857-2.659,2.118-6.535,2.435-7.469l0.026-0.009l0.189-0.737
	c0.454-1.784,1.406-5.506,1.406-7.761c0-1.201,0-3.636-4.708-5.085c0.772-0.549,1.929-1.158,3.61-1.158
	c2.83,0,8.49,2.161,8.49,4.991c0,0.806-0.086,0.995-1.012,2.701c-1.295,2.384-1.612,3.027-2.135,4.339l-0.412,1.029l1.69-0.78
	c1.26-0.583,1.647-0.755,2.41-1.226c3.147-1.972,3.413-2.118,4.468-2.118c1.929,0,3.388,1.895,3.388,3.13
	c0,1.321-1.664,2.212-2.908,2.77c-4.639,2.11-7.718,2.89-10.196,3.516l-0.884,0.223l-0.077,0.231
	c-4.554,13.601-10.737,29.474-11.492,31.112C597.834,69.949,596.899,69.949,595.999,69.949"/>
<path d="M599.505,35.945c-4.459,0-7.35-2.958-8.078-6.011c2.435,1.252,4.57,1.732,7.547,1.732c1.672,0,3.49-0.18,5.531-0.557
	l-1.415,4.588C601.7,35.859,600.534,35.945,599.505,35.945"/>
<path d="M633.904,69.949c-17.34,0-18.215-8.172-18.215-9.81c0-1.767,0.857-4.176,2.341-5.857c-0.154,0.712-0.249,1.475-0.249,2.015
	c0,4.639,3.91,6.989,11.62,6.989c3.379,0,4.82-0.266,7.77-0.866c0.935-0.189,1.663-0.326,2.358-0.326
	c2.959,0,5.317,3.25,5.317,4.528c0,0.12-0.034,1.192-1.08,1.724C642.625,68.938,639.272,69.949,633.904,69.949"/>
<path d="M629.015,43.602c2.118-1.458,4.871-3.602,4.871-4.897c0-1.767-3.928-2.032-6.269-2.032c-1.878,0-3.087,0.103-4.039,0.249
	c3.43-2.727,8.37-3.73,12.118-3.73c7.538,0,10.076,3.962,10.076,5.78c0,0.918-0.274,2.135-2.676,2.135
	c-0.326,0-1.217-0.052-2.118-0.103c-0.918-0.051-1.844-0.094-2.178-0.094C636.501,40.909,634.331,41.484,629.015,43.602"/>
<path d="M682.73,65.054c-3.164,0-12.314-4.176-12.854-22.725l-0.043-1.321c-0.112-3.122-0.309-8.944-0.42-9.956
	c-0.438-3.696-1.021-4.948-2.616-7.881c5.205,0.772,10.205,3.765,10.205,8.318c0,0.678-0.112,1.201-0.258,1.87l-0.128,0.626
	c-0.866,3.533-1.801,7.624-1.801,11.14c0,5.514,2.359,10.428,4.21,10.428c1.072,0,2.247-1.389,3.259-2.684
	c2.804-3.499,6.123-8.181,8.035-11.02c-1.424,3.705-4.699,12.297-5.102,13.669c-0.326,1.055-0.412,1.432-0.412,2.238
	c0,0.395,0.206,1.218,0.532,2.521c0.206,0.815,0.463,1.844,0.463,2.11C685.801,64.231,684.257,65.054,682.73,65.054 M716.21,54.403
	c-1.269,0-1.681-0.463-3.422-2.676c-1.852-2.221-5.574-3.113-8.893-3.756c2.212-0.292,6.286-0.883,6.912-1.115
	c0.643-0.214,1.346-0.909,1.346-2.204c0-1.329-1.098-5.909-3.096-9.536c-1.818-3.173-4.356-5.686-6.148-7.324
	C711.433,28.848,720,38.478,720,47.439C720,51.624,717.719,54.403,716.21,54.403"/>
<path d="M4.056,68.559c-2.118,0-2.796-2.864-2.796-4.253c-0.069-2.101,0.343-2.693,3.542-6.672
	c6.569-8.31,11.286-18.918,12.109-21.096l0.326-0.892l-0.892,0.326c-4.614,1.647-6.089,2.676-9.03,4.716l-0.137,0.103
	c-0.574,0.446-1.209,0.84-2.067,0.84C3.096,41.632,0,38.665,0,34.994c0-1.801,0.618-2.744,1.286-3.465
	c0.798,2.333,1.647,3.447,3.696,3.447c1.449,0,5.728-0.926,9.167-1.672c1.887-0.403,3.516-0.755,4.194-0.849l0.257-0.034
	l0.326-0.866c1.201-3.216,2.444-6.543,2.444-8.799c0-3.122-2.624-4.142-4.777-4.708c1.321-0.969,2.916-1.526,4.399-1.526
	c3.139,0,7.761,2.796,7.761,5.308c0,1.201-0.78,2.487-1.715,3.928c-0.935,1.406-1.269,2.075-2.864,5.274
	c-0.077,0.163-7.032,15.247-7.95,17.134c-5.137,10.908-8.85,18.009-10.179,19.475C5.489,68.268,4.854,68.559,4.056,68.559"/>
<path d="M22.051,70.544c-1.99,0-2.127-0.617-2.539-3.876c-0.446-3.585-2.255-6.329-3.55-8.018c2.204,1.218,5.78,2.984,6.946,2.984
	c1.244,0,2.136-0.575,2.899-1.87c3.73-6.518,4.888-16.457,4.888-19.338c0-3.43-0.498-6.595-4.082-6.595
	c-0.086,0-0.206,0-0.343,0.009c0.438-0.943,0.866-1.861,1.064-2.255c4.013,0.077,8.035,1.432,8.035,10.094
	c0,7.341-2.444,20.264-7.032,25.444C26.408,69.232,23.998,70.544,22.051,70.544"/>
<path d="M54.534,52.749c-1.089,0-1.252-0.171-3.027-2.47c-1.158-1.501-4.716-3.242-8.533-3.756c1.835-0.343,4.717-0.926,5.591-1.329
	c1.038-0.403,1.115-1.526,1.115-1.861c0-1.072-1.458-5.205-4.279-8.361c-1.921-2.127-3.945-3.73-5.497-4.854
	c3.611,0.643,8.807,2.058,12.984,6.569c4.614,5.025,4.974,10.153,4.974,11.611C57.861,48.752,57.767,52.749,54.534,52.749"/>
<path d="M229.658,36.359c-0.026-4.039-0.052-7.358-0.052-7.358h8.053c0.549,0,0.549-0.146,0.549-0.223
	c0-0.197-0.008-0.223-0.472-0.755l-3.576-3.765c-0.472-0.523-1.046-0.755-1.475,0.026l-1.724,3.396h-1.355
	c0-7.195,0.035-9.579,0.069-10.299l0.009-0.249l0.609-0.326c1.895-1.02,1.895-1.029,1.895-1.321c0-0.437-0.832-0.703-1.235-0.763
	l-8.052-1.698c0.798,2.547,0.849,3.945,0.909,14.656h-2.47c-2.058-0.034-4.468-0.154-6.466-0.334l0.627,2.067
	c1.149-0.189,2.701-0.412,6.877-0.412h0.498l-0.06,0.497c-0.978,7.752-4.493,19.904-9.167,27.759
	c4.33-3.653,7.727-8.644,9.407-11.38l0.84-1.363l-0.026,1.604c-0.06,4.562-0.06,5.085-0.06,5.883c0,1.329-0.095,5.102-0.197,9.09
	c-0.094,4.082-0.206,8.31-0.206,9.828c0,1.269,0,2.273,2.212,2.273c4.253,0,4.253-2.401,4.253-3.988
	c0-3.164-0.137-21.722-0.214-32.33c0.814,0.943,1.809,2.573,2.89,6.192c0.609,1.912,1.192,3.267,3.019,3.267
	c1.672,0,3.396-1.226,3.396-3.267C238.962,39.892,234.958,37.079,229.658,36.359"/>
<path d="M262.719,54.132l-0.361-0.446l0.523-0.232c5.788-2.641,6.457-2.976,6.766-3.156l0.111-0.069l0.12,0.009
	c0.661,0.009,1.192,0.026,1.612,0.026c0.909,0,1.175-0.069,1.226-0.111c0.009,0,0.026-0.043,0.026-0.206
	c0-0.154-0.171-0.497-0.549-0.763l-6.234-4.468c-0.952,3.096-2.615,6.14-3.353,7.487l-0.566,1.055l-0.403-0.617
	c-3.216-4.785-4.073-8.773-4.433-10.471l-0.111-0.532h14.338h1.552c0.549,0,0.549-0.146,0.549-0.292c0-0.18-0.172-0.429-0.506-0.72
	l-3.73-3.267c-0.223-0.214-0.72-0.583-0.875-0.592c-0.172,0-0.317,0.086-0.712,0.617l-2.238,2.924h-8.276v-6.68h8.276h4.468
	c0.549,0,0.549-0.146,0.549-0.283c0-0.231-0.257-0.472-0.497-0.652l-4.039-3.241c-0.643-0.532-0.866-0.557-0.909-0.557
	c-0.163,0-0.309,0.086-0.703,0.617l-2.118,2.796h-5.025v-6.089h10.557h4.768c0.618,0,0.618-0.18,0.618-0.283
	c0-0.197-0.317-0.48-0.506-0.652l-3.79-3.199c-0.575-0.429-0.806-0.532-0.884-0.54c-0.172,0-0.36,0.206-0.712,0.626l-2.109,2.727
	h-7.598l0.223-0.171c0.626-0.48,2.607-2.101,4.442-3.61c1.449-1.183,2.804-2.298,3.362-2.736l0.077-0.069l0.566-0.12
	c1.904-0.403,1.904-0.412,1.904-0.789c0-0.154-0.223-0.369-0.557-0.532l-7.538-3.833c-0.807,4.399-2.908,9.587-3.996,11.86h-11.046
	c-2.17-0.043-4.348-0.129-6.492-0.292l0.626,2.015c1.501-0.274,3.01-0.403,6.878-0.403h5.343v31.67c0,6.337,0,7.649-2.496,7.649
	c-0.395,0-1.544-0.086-2.753-0.189c-0.721-0.052-1.51-0.12-2.127-0.163c4.528,2.504,5.385,5.737,5.892,8.258
	c1.055-0.214,3.019-0.729,4.939-2.144c2.539-1.921,2.539-3.447,2.539-7.984c0-0.583-0.069-14.664-0.129-16.328l-0.18-2.941
	c2.53,12.315,7.04,20.204,11.774,24.115c1.098-1.595,2.779-3.739,6.56-5.025C268.627,60.563,265.308,57.296,262.719,54.132"/>
<path d="M248.109,24.5c1.672,0,3.396-1.218,3.396-3.267c0-3.276-4.279-6.183-9.854-6.775c0.875,0.832,2.093,2.281,3.439,6.775
	C245.707,23.146,246.282,24.5,248.109,24.5"/>
<path d="M238.428,48.14c0.506,0.969,0.9,2.041,1.501,4.056c0.626,1.947,1.217,3.327,3.087,3.327c1.706,0,3.464-1.243,3.464-3.327
	c0-2.624-2.187-4.794-6.02-5.977C240.169,46.639,239.526,47.42,238.428,48.14"/>
<path d="M241.565,42.051c1.475-0.223,2.933-0.412,6.68-0.42v-1.321c-2.564-0.026-5.017-0.137-7.315-0.309L241.565,42.051z"/>
<path d="M248.241,32.308c-2.564-0.034-5.017-0.137-7.307-0.309l0.626,2.05c1.475-0.223,2.942-0.412,6.681-0.42V32.308z"/>
<path d="M250.832,54.524c-5.72,3.25-12.006,5.583-17.049,6.346l4.597,6.878c0.137,0.274,0.395,0.42,0.532,0.42
	c0.36,0,0.411,0,0.626-1.732l0.017-0.154l0.111-0.111c1.363-1.295,2.324-2.255,10.9-11.363L250.832,54.524z"/>
<path fill="#E60039" d="M423.216,27.08c0.549,0,0.549-0.103,0.549-0.223c0-0.223-0.146-0.369-0.497-0.652l-6.097-5.034
	c-0.446-0.394-0.712-0.549-0.901-0.549c-0.077,0-0.292,0.06-0.686,0.66l-2.967,4.476h-7.589v0.617v0.703h8.695H423.216z"/>
<path fill="#E60039" d="M428.232,39.706l-6.415-5.197c-0.343-0.292-0.549-0.463-0.849-0.463c-0.111,0-0.206,0-0.626,0.592
	l-3.036,4.682h-12.28v0.617v0.703h16.491h6.663c0.549,0,0.549-0.146,0.549-0.283C428.729,40.28,428.677,40.083,428.232,39.706"/>
<path fill="#E60039" d="M419.45,48.946l-5.412-3.953c-0.094-0.069-0.188-0.137-0.283-0.206c-0.223-0.163-0.438-0.317-0.592-0.317
	c-0.154,0-0.257,0.034-0.909,0.952l-2.641,3.482h-23l-8.644-3.619c0.334,1.647,0.772,4.494,0.772,11.44
	c0,0.978-0.086,3.696-0.172,6.363c-0.086,2.556-0.163,5.068-0.163,5.943c0,0.849,0,2.273,2.804,2.273
	c1.124,0,2.658-0.206,3.619-1.218c0.661-0.686,0.96-1.681,0.901-2.967V50.224h24.963v15.127h-21.876v0.617v0.703h21.876v0.446
	c0,2.513,0,3.653,2.667,3.653c2.032,0,4.451-0.635,4.451-3.653c0-1.183-0.103-4.485-0.206-7.684
	c-0.094-3.139-0.189-6.097-0.189-7.135l0.052-0.257l0.171-0.137c2.23-1.715,2.358-1.844,2.358-2.255
	C419.999,49.435,419.707,49.161,419.45,48.946"/>
<path fill="#E60039" d="M401.937,39.319L401.937,39.319c-0.017-5.231-0.052-20.161,0-21.216l0.017-0.24l0.377-0.214
	c0.686-0.386,2.521-1.406,2.521-1.972c0-0.137-0.12-0.206-0.935-0.377l-0.231-0.043l-9.862-1.792
	c0.841,2.77,0.866,3.979,1.046,12.066l0.008,0.231h-12.434l0.051-0.069c1.064-1.604,1.818-2.89,2.77-4.511l0.395-0.677l0.111-0.06
	c0.128-0.06,1.535-0.729,2.307-1.081c0.146-0.051,0.626-0.24,0.626-0.643c0-0.249-0.18-0.352-0.78-0.583l-9.107-3.628
	c0.035,0.249,0.052,0.437,0.052,0.703c0,2.05-2.298,14.072-5.986,21.139c3.422-2.787,6.2-5.763,8.49-9.082l0.137-0.189h13.438
	l0.06,12.237h-17.837c-2.573-0.017-5.266-0.12-7.95-0.326l0.668,2.067c1.638-0.257,3.156-0.42,6.887-0.42h25.161V39.319z"/>
<path fill="#E60039" d="M398.977,78.784l-0.368-0.249c-0.111-0.077-11.2-7.615-22.134-17.906
	c-14.767-13.884-22.253-25.907-22.253-35.717C354.221,11.174,365.395,0,379.133,0c7.786,0,15.136,3.67,19.844,9.871
	C403.685,3.67,411.034,0,418.821,0c13.738,0,24.912,11.174,24.912,24.912c0,9.81-7.486,21.834-22.253,35.717
	c-10.934,10.291-22.022,17.829-22.134,17.906L398.977,78.784z M379.133,1.321c-13.009,0-23.592,10.582-23.592,23.592
	c0,21.473,39.173,49.31,43.435,52.268c4.262-2.959,43.435-30.795,43.435-52.268c0-13.009-10.582-23.592-23.591-23.592
	c-7.667,0-14.879,3.756-19.304,10.051l-0.54,0.772l-0.54-0.772C394.012,5.077,386.791,1.321,379.133,1.321"/>
<path fill="#FFFFFF" d="M208.506,98.364l-5.686,0.3l-0.497,1.621l1.895-0.094c1.509-0.086,1.106,1.235,0.977,1.672
	c-0.591,1.938-2.332,6.903-5.694,11.183c-3.147,4.005-7.924,6.946-13.429,8.301c-1.955,0.472-2.316,0.6-2.513,1.243
	c-0.197,0.643,0.309,0.755,0.764,0.729c0.42-0.026,3.053-0.515,5.78-1.338c2.247-0.678,8.224-2.487,13.601-8.996
	c3.868-4.648,6.175-10.548,6.578-11.877C210.804,99.41,210.067,98.278,208.506,98.364"/>
<path fill="#FFFFFF" d="M199.876,100.414l0.497-1.621h-0.035l1.244-4.073c0.249-0.798,0.66-2.144-1.621-2.024
	c-2.212,0.111-2.641,1.509-2.864,2.264l-1.244,4.065l-7.409,0.386c-1.595,0.086-3.165,1.363-3.662,2.967l-1.51,4.957
	c-0.249,0.798-0.66,2.144,1.621,2.024c2.212-0.12,2.658-1.569,2.864-2.264l1.424-4.639c0.223-0.737,1.02-1.535,1.972-1.586
	L199.876,100.414z"/>
<path fill="#FFFFFF" d="M249.451,103.871c-0.369,0.017-0.532,0.18-1.167,0.935c-5.085,6.037-9.39,7.701-9.828,7.718
	c-0.583,0.034-0.755-0.343-0.523-1.115l5.317-17.391c0.206-0.66,0.626-2.041-1.475-1.93c-1.415,0.077-2.264,0.755-2.693,2.153
	l-6.792,22.228c-0.66,2.135,1.149,2.11,1.355,2.092c1.886-0.094,6.989-3.542,9.965-6.32c3.525-3.293,6.217-7.272,6.38-7.701
	C250.077,104.257,249.906,103.845,249.451,103.871"/>
<path fill="#FFFFFF" d="M279.67,102.065c-1.724-0.823-3.876-1.535-5.943-1.998l-0.695,2.281c1.347,0.686,3.036,1.818,4.931,4.022
	c0.703,0.857,1.003,1.218,1.792,1.175c1.235-0.069,2.478-1.346,2.813-2.453C282.8,104.346,283.014,103.635,279.67,102.065"/>
<path fill="#FFFFFF" d="M319.014,96.451l-20.753,1.089c-0.935,0.051-1.106,0.6-1.158,0.78c-0.146,0.489,0.095,0.72,0.712,0.686
	l17.108-0.9c0.678-0.034,0.978,0.412,0.755,1.149c-0.197,0.635-1.346,3.096-2.915,5.137c-3.619,4.717-7.787,7.272-13.935,8.558
	c-1.21,0.231-1.535,0.369-1.724,0.969c-0.103,0.36,0.077,0.72,0.566,0.695c0.292-0.017,1.689-0.249,2.238-0.369
	c5.728-1.183,9.485-3.593,10.711-4.382c7.684-4.931,9.707-11.294,9.733-11.354C320.832,96.914,319.975,96.399,319.014,96.451"/>
<path fill="#FFFFFF" d="M271.555,99.682h-0.026l2.35-7.692c0.231-0.763,0.626-2.041-1.535-1.93
	c-2.101,0.111-2.521,1.492-2.727,2.153l-7.427,24.295c-0.231,0.746-0.617,2.007,1.552,1.895c2.101-0.111,2.504-1.441,2.718-2.153
	l4.52-14.784l0.026,0.009L271.555,99.682z"/>
<path fill="#FFFFFF" d="M439.021,84.982l14.81-0.772c0.857-0.051,1.012-0.557,1.063-0.72c0.18-0.592-0.334-0.652-0.652-0.635
	l-14.81,0.78c-0.575,0.026-0.926,0.266-1.064,0.72C438.274,84.664,438.309,85.016,439.021,84.982"/>
<path fill="#FFFFFF" d="M495.136,90.491c-0.017,1.638,0.008,1.792,0.9,1.741c0.334-0.017,1.286-0.412,1.544-1.252
	c0.231-0.772-0.592-2.41-0.9-3.019l-0.077-0.154c-0.214-0.369-0.849-1.509-1.141-1.501c-0.249,0.017-0.609,0.24-0.695,0.506
	c-0.026,0.103-0.026,0.129,0.051,0.617C495.033,88.475,495.136,89.196,495.136,90.491"/>
<path fill="#FFFFFF" d="M168.02,107.481l-20.41,1.072c-1.424,0.069-1.835,0.892-2.024,1.509c-0.154,0.506-0.206,1.355,1.175,1.278
	l20.401-1.063c1.072-0.06,1.732-0.54,2.024-1.483C169.341,108.271,169.401,107.413,168.02,107.481"/>
<path fill="#FFFFFF" d="M303.107,92.208l16.053-0.84c0.626-0.034,1.012-0.3,1.158-0.78c0.103-0.334,0.069-0.729-0.712-0.686
	l-16.054,0.84c-0.934,0.051-1.098,0.6-1.157,0.78C302.197,92.165,302.755,92.226,303.107,92.208"/>
<path fill="#FFFFFF" d="M405.814,86.605c0.695,0.437,2.324,1.458,3.55,3.439c0.918,1.475,0.969,1.561,1.767,1.518
	c0.703-0.034,2.006-0.909,2.35-2.05c0.18-0.592,0.411-1.329-3.045-2.907c-2.135-0.986-4.176-1.398-4.425-1.389
	c-0.24,0.017-0.652,0.249-0.772,0.635C405.153,86.125,405.23,86.202,405.814,86.605"/>
<path fill="#FFFFFF" d="M233.753,92.511c-1.39,0.069-2.23,0.755-2.659,2.144l-2.812,9.21c-1.629,5.325-3.868,10.711-9.236,14.107
	c-1.878,1.201-1.981,1.269-2.084,1.629c-0.163,0.515,0.163,0.849,0.557,0.823c0.429-0.017,3.67-1.509,6.32-3.507
	c4.871-3.67,6.989-8.095,8.678-13.601l2.71-8.876C235.417,93.832,235.854,92.4,233.753,92.511"/>
<path fill="#FFFFFF" d="M526.714,84.242l0.026-0.026l1.44-1.801c0.661-0.857,1.449-1.989,1.604-2.495
	c0.326-1.055-0.798-1.389-1.578-1.346c-1.346,0.069-1.758,0.875-2.187,1.724c-2.881,5.497-5.9,7.907-8.481,9.536
	c-0.901,0.575-0.935,0.618-1.029,0.926c-0.12,0.395,0.12,0.592,0.394,0.583C516.946,91.335,522.014,89.611,526.714,84.242"/>
<path fill="#FFFFFF" d="M504.397,85.4c-1.329,0.069-1.595,0.652-2.11,2.067c-4.211,11.388-12.306,14.553-15.007,15.616
	c-0.3,0.103-0.472,0.214-0.557,0.506c-0.086,0.275,0.06,0.489,0.309,0.48c0.506-0.043,6.62-1.801,11.346-6.423
	c4.331-4.271,6.938-10.334,7.161-11.045C505.923,85.332,504.413,85.4,504.397,85.4"/>
<path fill="#FFFFFF" d="M491.182,93.224c0.197-0.66-0.42-2.332-1.124-3.687l-0.094-0.172c-0.274-0.506-0.841-1.552-1.158-1.535
	c-0.188,0.009-0.575,0.197-0.669,0.515c-0.017,0.111,0.069,0.652,0.232,1.338c0.214,0.952,0.343,2.581,0.334,3.439
	c-0.043,1.209-0.017,1.518,0.771,1.475C489.929,94.579,490.898,94.151,491.182,93.224"/>
<path fill="#FFFFFF" d="M563.35,86.652l-15.316,0.806c-1.072,0.051-1.381,0.669-1.518,1.132c-0.12,0.377-0.163,1.012,0.875,0.96
	l15.316-0.806c0.806-0.034,1.303-0.403,1.518-1.106C564.345,87.244,564.388,86.601,563.35,86.652"/>
<path fill="#FFFFFF" d="M536.916,82.398l-7.024,0.369l-1.003,1.252l4.837-0.257c0.643-0.034,0.703,0.506,0.557,0.986
	c-0.138,0.463-1.492,3.705-4.074,6.835c-4.64,5.6-9.15,7.521-14.51,8.687c-0.934,0.189-1.192,0.3-1.337,0.772
	c-0.095,0.309,0.026,0.6,0.437,0.575c0.266-0.009,2.221-0.334,4.279-0.84c1.955-0.489,7.915-2.007,13.069-7.641
	c4.605-5.043,6.029-9.107,6.037-9.142C538.434,83.178,538.142,82.329,536.916,82.398"/>
<path fill="#FFFFFF" d="M356.056,88.613l-1.535,0.077l-1.424,4.657h-0.026l-4.459,14.596c-0.231,0.763-1.021,1.389-1.784,1.432
	l-11.448,0.6c-0.892,0.043-1.158-0.617-0.952-1.286l5.025-16.422c0.206-0.678,0.884-1.389,1.784-1.432l10.625-0.557l0.446-1.466
	l-13.55,0.712c-1.398,0.069-2.838,1.243-3.267,2.667l-5.197,16.997c-0.438,1.424,0.317,2.478,1.715,2.41l17.297-0.909
	c1.561-0.086,2.881-1.424,3.268-2.667l5.196-16.997C358.208,89.6,357.454,88.536,356.056,88.613"/>
<path fill="#FFFFFF" d="M476.548,86.059c-0.627,0.034-0.695,0.077-2.264,1.638c-4.305,4.202-9.459,7.349-14.896,9.116
	c-0.352,0.111-0.523,0.197-0.6,0.446c-0.077,0.231,0.052,0.437,0.24,0.429c0.197-0.009,1.458-0.36,2.598-0.729
	c0.892-0.266,3.259-0.978,6.603-2.624l0.403-0.197l-3.147,10.308c-0.163,0.523-0.403,1.312,0.986,1.235
	c1.338-0.069,1.552-0.746,1.733-1.346l3.67-12.006l0.12-0.077c1.209-0.78,2.393-1.629,3.61-2.598
	c1.801-1.424,2.032-1.707,2.178-2.178C478.023,86.685,477.431,86.016,476.548,86.059"/>
<path fill="#FFFFFF" d="M390.785,87.632l-20.273,1.063c-0.592,0.034-0.96,0.283-1.107,0.746c-0.137,0.454,0.086,0.677,0.678,0.643
	l16.611-0.866c0.557-0.034,0.841,0.292,0.686,0.789c-0.24,0.78-2.993,4.116-6.312,7.109c-1.458,1.321-2.298,1.955-4.536,3.653
	l-0.823,0.626l-0.128-0.129c-0.498-0.48-3.473-2.933-4.279-2.89c-0.403,0.017-0.832,0.42-0.935,0.763
	c-0.112,0.36,0.035,0.532,0.695,1.08c2.075,1.827,3.816,4.708,4.777,7.915c0.532,1.767,0.583,1.835,1.321,1.792
	c1.132-0.06,2.504-1.141,2.838-2.23c0.197-0.643-0.042-1.115-0.317-1.492c-1.432-2.221-1.792-2.607-2.641-3.542l-0.206-0.223
	l0.368-0.214c2.067-1.183,5.926-3.387,10.977-8.044c2.504-2.333,3.893-3.91,4.142-4.699
	C392.483,88.936,392.534,87.538,390.785,87.632"/>
<path fill="#FFFFFF" d="M423.658,91.04c-0.334,0.017-0.523,0.206-0.858,0.618c-1.303,1.561-2.762,3.019-4.339,4.322
	c-7.77,6.415-14.261,7.924-17.031,8.576c-2.178,0.497-2.958,0.737-3.388,2.135c-0.163,0.54-0.308,2.058,1.098,1.981
	c1.115-0.06,8.918-2.556,15.11-7.058c6.998-5.077,9.853-9.991,9.871-10.008C424.207,91.323,424.027,91.023,423.658,91.04"/>
<path fill="#FFFFFF" d="M455.94,89.832l-7.075,0.369l-0.403,1.321l7.074-0.369c0.858-0.043,1.012-0.54,1.064-0.72
	C456.763,89.901,456.334,89.815,455.94,89.832"/>
<path fill="#FFFFFF" d="M446.825,90.31l-13.567,0.712c-0.866,0.043-1.012,0.532-1.072,0.72c-0.163,0.532,0.274,0.617,0.669,0.6
	l9.536-0.506l-0.086,0.266c-1.758,5.651-3.413,10.994-10.745,13.241c-0.755,0.223-1.098,0.343-1.26,0.883
	c-0.086,0.274,0,0.66,0.472,0.643c0.188-0.034,4.176-0.789,7.786-3.062c4.743-3.01,6.261-7.058,7.521-11.062L446.825,90.31z"/>
</svg>
