<?xml version="1.0" encoding="utf-8"?>
<!-- Generator: Adobe Illustrator 27.1.1, SVG Export Plug-In . SVG Version: 6.00 Build 0)  -->
<svg version="1.1" id="레이어_1" xmlns="http://www.w3.org/2000/svg" xmlns:xlink="http://www.w3.org/1999/xlink" x="0px"
	 y="0px" viewBox="0 0 720 100.584" enable-background="new 0 0 720 100.584" xml:space="preserve">
<path d="M241.994,85.062h-11.115v-1.95h11.115v-3.805h2.104v3.805h7.852v1.95h-7.852v2.588l-0.594,0.396
	c-0.44,0.301-0.939,0.601-1.51,0.924V85.062z"/>
<path d="M237.784,100.541l-0.308-1.994h3.548c0.902,0,0.968-0.345,0.968-0.916v-4.67l-0.293,0.132
	c-3.849,1.796-7.346,2.735-9.993,3.343l-0.748-1.957c4.89-0.909,7.947-2.17,9.824-3.05c0,0,0.718-0.33,1.034-0.491
	c0.909-0.462,1.781-0.968,2.602-1.532c1.958-1.254,2.918-2.375,3.497-3.064l1.672,1.305l-0.008,0.007
	c-0.931,0.99-2.478,2.632-5.374,4.201l-0.11,0.059v7.001c0,1.048-0.674,1.627-1.913,1.627H237.784z"/>
<polygon points="273.066,85.105 273.366,83.163 277.78,83.163 277.78,85.105 "/>
<path d="M275.307,87.296c1.833-0.755,3.731-1.327,8.695-1.327l0.674,0.007l-0.015,2.111c-0.52-0.029-1.085-0.044-1.891-0.044
	c-3.974,0-5.953,0.66-6.818,0.997L275.307,87.296z"/>
<path d="M265.648,98.759c2.089-4.494,3.335-11.385,3.666-13.409l0.044-0.242h-3.255v-1.943h3.497l0.015-0.183
	c0.191-1.738,0.227-2.126,0.249-2.742l2.229,0.066l-0.227,1.804l-0.484,3.175c-0.037,0.227-0.095,0.601-0.191,1.085
	c-0.264,1.466-1.686,8.929-3.49,13.123L265.648,98.759z"/>
<path d="M281.12,99.474c-2.486,0-7.669,0-7.669-4.091c0-1.591,0.88-2.83,1.789-3.834l1.525,1.092
	c-1.107,1.188-1.342,2.104-1.342,2.676c0,2.185,3.38,2.185,4.824,2.185c1.334,0,3.204-0.029,4.692-0.198l-0.022,2.068
	C284.265,99.438,283.642,99.474,281.12,99.474"/>
<path d="M306.279,99.496c-1.019,0-1.54-0.022-2.016-0.044l-0.403-0.015l-0.403-1.957c0.902,0.044,1.965,0.095,3.123,0.095
	c4.37,0,9.025-0.33,9.025-4.245c0-2.126-1.569-3.446-4.105-3.446c-2.031,0-4.766,0.652-6.363,2.47l-0.279,0.711l-2.134-0.44
	c0.609-1.606,1.048-3.541,1.401-6.041h2.17c-0.22,1.422-0.425,2.075-0.579,2.617l-0.162,0.513l0.462-0.279
	c1.539-0.953,3.636-1.496,5.74-1.496c4.553,0,6.166,3.028,6.166,5.616c0,3.482-2.903,4.766-3.79,5.073
	C312.217,99.276,310.377,99.474,306.279,99.496"/>
<path d="M299.527,84.948v-1.877h4.978l0.015-0.191c0.081-1.298,0.073-2.045,0.051-2.72l2.302,0.022
	c-0.022,0.726-0.051,1.496-0.154,2.669l-0.015,0.22H318.2v1.877H299.527z"/>
<path d="M337.479,97.671c-2.852,0-4.348-3.262-4.348-6.495c0-5.916,4.355-10.044,10.587-10.044c0.249,0,0.477,0.007,0.704,0.022
	l-0.162,2.016l-0.029,0.161c-0.381,3.93-0.77,7.94-2.493,11.195C341.305,95.325,340.015,97.671,337.479,97.671 M341.768,83.258
	c-6.21,1.092-6.525,7.082-6.525,8.27c0,2.771,1.173,4.018,2.331,4.018c3.218,0,4.171-8.438,4.428-12.067l0.022-0.264L341.768,83.258
	z"/>
<path d="M342.391,97.448c2.874-0.132,8.328-0.564,8.328-7.727c0-1.598-0.484-5.396-4.824-6.371l0.169-2.016
	c6.606,1.129,7.134,6.891,7.134,8.644c0,5.938-3.446,9.142-10.249,9.509L342.391,97.448z"/>
<path d="M420.731,100.505c-3.651-0.205-6.848-0.865-9.766-2.009c-3.094,1.063-6.363,1.693-9.883,1.87l-0.564-1.921
	c0.308,0.022,0.645,0.037,1.085,0.037c3.006,0,6.539-0.873,6.576-0.88c1.122-0.315,1.525-0.432,2.515-0.85
	c2.016-0.762,2.94-1.554,3.438-1.972l0.418-0.359l-0.498-0.051h-7.874l0.469,0.374c0.359,0.271,0.931,0.667,1.752,1.085
	c-0.191,0.059-0.404,0.125-0.66,0.198l-1.122,0.271c-0.513-0.359-0.982-0.726-1.407-1.136l-0.11-0.095l-0.125,0.073
	c-1.459,0.762-2.551,1.078-3.358,1.298l-0.887-1.598c3.109-0.667,4.802-1.488,6.825-3.299l0.242-0.213l-0.293-0.132
	c-0.528-0.227-0.777-0.645-0.777-1.327v-2.317h1.664v1.642c0,0.667,0.426,0.667,0.579,0.667h3.666c0.366,0,0.638-0.227,0.74-0.616
	c0.022-0.066,0.073-0.323,0.125-0.572c0.022-0.103,0.044-0.205,0.059-0.286l1.664,0.242c-0.403,2.309-0.762,2.647-1.818,2.647
	h-3.394l-0.234,0.256c-0.213,0.249-0.484,0.55-0.946,0.975l-0.388,0.359h8.893v1.628c-0.616,0.608-1.657,1.62-3.798,2.793
	l-0.477,0.257l0.528,0.117c3.695,0.828,6.379,0.894,7.889,0.924L420.731,100.505z"/>
<path d="M419.131,92.094c-0.667-1.136-2.258-3.094-3.079-3.996l1.474-1.004c0.381,0.33,0.711,0.652,1.29,1.29l0.191,0.205
	c1.012,1.166,1.444,1.833,1.811,2.412L419.131,92.094z M410.949,88.714c-0.887-1.004-1.136-1.276-1.738-1.848l1.188-1.026
	l0.469,0.396c0.594,0.498,0.718,0.601,1.349,1.305L410.949,88.714z M419.175,88.252v-2.47h-16.51v2.47h-1.921v-3.981h3.328
	c0,0-0.44-1.525-0.557-1.994l-0.044-0.147l-1.825,0.015l-0.403-1.613c3.541,0,13.16-0.037,18.233-1.386l1.048,1.723
	c-0.374,0.095-0.682,0.161-1.466,0.293l-0.11,0.015l-0.044,0.095c-0.286,0.616-0.836,1.642-1.533,2.683l-0.213,0.315h3.893v3.981
	H419.175z M416.323,81.485c-0.704,0.059-3.68,0.322-4.655,0.359l-0.242,0.015l0.044,0.242c0.073,0.323,0.367,1.723,0.418,1.994
	l0.03,0.176h3.174l0.051-0.088c0.366-0.55,0.902-1.525,1.378-2.397l0.183-0.345L416.323,81.485z M409.468,81.991
	c-1.269,0.044-2.537,0.066-3.827,0.095h-0.271l0.081,0.257c0.301,1.019,0.337,1.158,0.477,1.672l0.037,0.154l0.191,0.102h3.974
	l-0.491-2.287L409.468,81.991z"/>
<path d="M401.099,91.076c1.261-0.88,2.353-2.111,3.189-3.592l1.547,0.601c-0.675,1.422-1.936,3.013-3.292,4.12L401.099,91.076z"/>
<rect x="210.129" y="80.025" width="8.123" height="1.899"/>
<path d="M196.76,98.322c7.478-2.229,8.761-7.199,9.193-8.849l0.073-0.249h-8.336v-1.884h8.651l0.015-0.183
	c0.022-0.352,0.037-0.909,0.037-2.031v-3.204h-9.443v-1.899h11.54v5.058c0,1.085-0.059,1.635-0.117,2.031l-0.037,0.227h9.252v1.884
	h-8.614l0.073,0.249c1.005,3.812,4.259,6.869,9.413,8.856l-1.239,2.038c-4.516-2.009-7.969-5.271-9.472-8.988l-0.198-0.498
	l-0.191,0.506c-1.378,3.864-4.523,6.906-9.326,9.047L196.76,98.322z"/>
<path d="M368.982,90.747c3.035-1.796,4.098-3.636,4.325-7.456l0.015-0.22h-6.811v-1.825h9.494v-1.965h1.972v1.965h2.537v7.669
	c0,1.092-0.176,2.273-2.354,2.273h-2.199l-0.447-1.906h2.141c0.301,0,0.916,0,0.916-0.784v-5.425h-3.314l-0.007,0.198
	c-0.095,2.595-0.719,6.334-4.949,9.025L368.982,90.747z"/>
<path d="M386.207,90.625c-1.73-1.503-3.101-3.321-4.165-5.557l1.738-0.762c0.447,0.733,2.155,3.431,3.952,4.795L386.207,90.625z"/>
<rect x="382.166" y="81.249" width="5.425" height="1.825"/>
<path d="M378.138,95.938c-1.254-1.034-2.64-1.899-4.135-2.581l1.122-1.415c1.723,0.792,2.749,1.32,4.157,2.375L378.138,95.938z"/>
<path d="M373.513,100.448c-0.895,0-1.687-0.718-1.687-1.532v-4.157h1.87v3.094c0,0.477,0.286,0.645,0.557,0.645h4.78
	c0.814,0,1.246-0.403,1.415-2.661l1.899,0.55c-0.293,2.463-0.528,4.061-2.551,4.061H373.513z"/>
<path d="M385.942,99.811c-0.704-1.554-2.17-3.871-3.6-5.696l1.606-1.07c0.719,0.85,2.617,3.196,3.768,5.572L385.942,99.811z"/>
<path d="M366.34,88.463c0.674-0.506,1.921-1.561,3.27-4.12l1.73,0.667c-0.924,1.884-2.06,3.35-3.724,4.839L366.34,88.463z"/>
<path d="M366.246,98.687c1.085-1.173,2.053-3.042,2.566-4.993l1.862,0.499c-0.286,1.092-1.136,3.9-2.734,5.784L366.246,98.687z"/>
<rect x="434.144" y="79.878" width="8.944" height="1.716"/>
<path d="M452.737,95.802v-7.185h-6.092v2.009h4.45v1.503h-4.45v2.097h4.45v1.576h-6.188V83.58h3.548l0.044-0.154
	c0.095-0.3,0.257-1.114,0.352-1.584l0.051-0.249h-4.692v-1.716h11.239v1.716h-4.487l-0.037,0.154
	c-0.256,0.968-0.286,1.07-0.454,1.554l-0.103,0.279h4.135v12.221H452.737z M446.644,87.129h6.092V85.15h-6.092V87.129z"/>
<polygon points="434.72,90.489 434.72,88.935 440.614,88.935 440.614,85.152 436.458,85.152 436.458,87.293 434.72,87.293 
	434.72,83.583 442.352,83.583 442.352,90.489 "/>
<path d="M442.595,98.916c1.803-0.616,3.438-1.466,4.75-2.478l1.254,1.114c-1.305,1.158-3.512,2.383-4.963,2.94L442.595,98.916z"/>
<path d="M454.229,100.563c-1.239-0.85-2.39-1.862-3.431-3.006l1.356-1.071c1.363,1.276,2.031,1.789,3.46,2.515L454.229,100.563z"/>
<path d="M433.982,97.713c0.77-0.073,1.715-0.205,4.545-0.762l0.102-0.022l0.051-0.095c0.418-0.931,1.188-2.822,1.657-5.198
	l1.738,0.352c-0.396,1.891-1.166,3.886-1.253,4.098l-0.176,0.381l0.41-0.103c1.078-0.264,1.518-0.381,2.053-0.55l0.176,1.693
	c-2.339,0.799-5.77,1.488-8.849,2.075L433.982,97.713z"/>
<path d="M435.779,95.751c-0.169-1.429-0.33-2.287-0.69-3.644l1.606-0.469c0.352,1.048,0.681,2.493,0.828,3.658L435.779,95.751z"/>
<path d="M479.294,94.899c0.623-0.528,1.51-1.371,2.522-3.321l0.066-0.125l-0.081-0.095c-1.026-1.312-1.855-2.141-2.544-2.801
	l1.21-1.019c0.345,0.242,0.784,0.609,1.913,1.928l0.22,0.257l0.132-0.315c0.425-1.1,0.696-1.987,0.982-2.911l1.679,0.616
	c-0.176,0.77-0.528,2.192-1.4,4.142l-0.051,0.117l0.073,0.088c1.07,1.452,1.474,2.192,1.833,2.955l-1.378,1.246
	c-0.294-0.608-0.697-1.393-1.276-2.287l-0.176-0.271l-0.176,0.279c-0.85,1.4-1.517,2.089-2.163,2.734L479.294,94.899z"/>
<path d="M482.08,84.132c-0.154-1.84-0.469-3.196-1.063-4.435l1.943-0.315c0.579,1.525,0.894,3.482,0.997,4.487L482.08,84.132z"/>
<path d="M471.083,100.584l-0.213-1.95h1.533c0.674,0,0.726-0.345,0.726-0.799V81.691h-2.486v3.966h0.851v1.627h-0.851v4.216h0.851
	v1.62h-0.946l-0.014,0.191c-0.286,3.988-0.865,5.594-1.605,7.082l-1.312-1.84c1.334-3.013,1.334-5.183,1.334-7.698V80.02h5.902
	v18.783c0,1.202-0.63,1.781-1.921,1.781H471.083z"/>
<path d="M485.523,84.69c0.894-1.723,1.363-2.844,2.031-4.868l1.774,0.814c-0.726,2.023-0.99,2.617-2.163,4.861L485.523,84.69z"/>
<rect x="486.783" y="87.481" width="1.811" height="13.101"/>
<polygon points="476.596,100.584 476.596,87.483 478.428,87.483 478.428,97.762 485.143,97.762 485.143,99.514 478.428,99.514 
	478.428,100.584 "/>
<path d="M478.192,85.191c-0.374-1.158-0.807-2.155-2.001-4.135l1.781-0.667c0.953,1.598,1.408,2.595,1.928,4.216L478.192,85.191z"/>
<path d="M507.106,100.56v-3.702h-5.124v-1.781h5.124v-2.251h-4.223v-9.223h7.39l0.066-0.103c0.579-0.916,1.408-2.522,1.899-4.091
	l1.87,0.66c-0.682,1.466-1.327,2.544-1.767,3.211l-0.198,0.323h1.048v9.223h-2.705v-1.481h1.063V88.8h-1.063v-1.32h1.063v-2.449
	h-2.698l0.073,10.044h5.03v1.781h-5.03v3.702H507.106z M504.525,91.344h2.676v-2.544h-2.676V91.344z M504.525,87.481h2.676v-2.449
	h-2.676V87.481z"/>
<path d="M521.335,83.981c-0.469-0.946-1.635-2.808-2.038-3.438l1.43-0.902c0.63,0.755,1.774,2.485,2.141,3.387L521.335,83.981z"/>
<path d="M507.41,82.542c-0.139-1.041-0.308-1.818-0.704-3.182l1.833-0.22c0.359,1.158,0.52,1.87,0.762,3.16L507.41,82.542z"/>
<path d="M517.104,92.673c-0.294-1.657-0.469-3.409-0.543-5.22l-0.007-0.213l-2.419,0.183v-1.877l2.383-0.161
	c0,0-0.081-5.711-0.095-6.151h1.752c0,2.163,0.007,3.9,0.095,5.836l0.014,0.205l4.934-0.345v1.855l-4.883,0.345l0.007,0.198
	c0.037,0.946,0.118,1.913,0.242,3.042c-0.198,0.301-0.506,0.85-0.748,1.232C517.617,91.969,517.397,92.299,517.104,92.673"/>
<path d="M503.579,82.986c-0.462-1.188-0.777-1.811-1.371-2.8l1.664-0.696c0.528,0.755,1.144,1.884,1.517,2.771L503.579,82.986z"/>
<path d="M521.364,100.563c-1.65,0-2.837-2.713-3.16-3.541l-0.11-0.293l-0.227,0.22c-1.642,1.672-3.167,2.625-4.054,3.16
	l-1.342-1.606c1.158-0.572,2.947-1.525,4.875-3.592c0.843-0.938,1.371-1.554,1.884-2.449c0.278-0.425,0.784-1.386,0.784-1.386
	c0.498-0.96,0.821-1.833,1.056-2.522l1.627,0.814c-0.916,2.265-1.796,3.849-3.108,5.594l-0.073,0.088l0.044,0.11
	c0.902,2.471,1.239,2.669,1.481,2.669c0.352,0,0.506-0.469,0.579-0.704c0.059-0.191,0.161-0.682,0.256-1.18
	c0.052-0.293,0.11-0.579,0.162-0.792l1.532,0.894C523.065,99.038,522.331,100.563,521.364,100.563"/>
<path fill="#231815" d="M177.644,92.379c-0.822,0-2.09-0.322-4.003-1.011l-0.205-0.066c-2.639-0.931-4.084-1.444-5.242-1.444
	c-1.87,0-3.292,0.975-4.098,1.54L164,91.265c2.104-2.134,3.746-3.05,5.484-3.05c0.836,0,2.112,0.323,4.025,0.997l0.191,0.073
	c2.639,0.931,4.098,1.444,5.264,1.444c1.87,0,3.284-0.968,4.084-1.54l0.102,0.139C181.045,91.463,179.388,92.379,177.644,92.379"/>
<path fill="#231815" d="M550.395,92.379c-0.822,0-2.09-0.322-3.996-1.011l-0.205-0.066c-2.639-0.931-4.091-1.444-5.249-1.444
	c-1.87,0-3.292,0.975-4.091,1.54l-0.095-0.132c2.097-2.134,3.739-3.05,5.484-3.05c0.829,0,2.112,0.323,4.018,0.997l0.191,0.073
	c2.639,0.931,4.098,1.444,5.264,1.444c1.87,0,3.292-0.968,4.084-1.54l0.102,0.139C553.804,91.463,552.147,92.379,550.395,92.379"/>
<rect x="159.594" y="88.185" fill="#E60039" width="400.707" height="4.311"/>
<path d="M99.205,68.729c-1.29,0-1.547-0.271-4.589-4.927c-5.946-9.127-8.006-10.99-16.672-18.805l-0.286-0.249
	c-2.28-2.031-2.756-3.431-2.756-4.259c0-2.148,2.002-4.23,3.468-5.755C93.142,19.462,93.142,17.6,93.142,15.965
	c0-1.444-1.034-2.72-3.226-3.966c0.558-0.139,1.195-0.242,2.082-0.242c5,0,9.319,4.355,9.319,6.488c0,1.715-2.251,3.328-4.634,5.022
	c-0.213,0.132-2.903,2.265-9.267,7.346c-5.733,4.714-8.409,7.735-8.409,9.509c0,1.114,0.528,2.023,3.402,3.856
	c10.755,7.023,17.742,13.944,19.091,16.085c0.792,1.261,1.298,2.918,1.298,4.216C102.798,66.896,100.899,68.729,99.205,68.729
	 M111.221,28.927c-1.114,0-1.305-0.381-2.06-2.17l-0.088-0.227c-1.327-3.328-2.837-5.205-4.032-6.474
	c2.595,0.785,4.706,2.075,5.586,2.661c0.975,0.609,2.581,1.62,2.581,4.032C113.208,27.791,112.585,28.927,111.221,28.927
	 M117.812,24.858c-0.961,0-1.466-0.858-2.287-2.368c-1.965-3.541-3.93-5.322-5.396-6.32c4.37,0.609,9.553,2.713,9.553,6.202
	C119.681,23.788,118.692,24.858,117.812,24.858"/>
<path d="M160.118,66.39c-2.17,0-2.779-1.723-3.299-3.82c-1.723-6.569-4.318-16.495-9.113-23.841l-0.256-0.389l-0.345,0.293
	c-3.27,2.698-4.04,3.541-5.902,5.586c-0.235,0.293-1.43,1.65-2.962,1.65c-3.189,0-7.236-3.196-7.236-6.804
	c0-1.408,0.528-2.383,0.982-3.035c1.18,2.339,2.955,3.387,4.281,3.387c1.547,0,2.361-0.418,8.754-3.739l0.447-0.234
	c0,0-0.953-1.158-1.488-1.796c-0.924-1.114-2.155-2.588-3.02-3.651c-0.587-0.704-1.144-1.356-1.144-2.566
	c0-2.419,1.774-4.428,3.475-4.978c1.877-0.645,8.812-0.96,10.234-0.96c0.807,0,1.826,0,1.826-1.034c0-1.43-3.072-2.859-7.551-4.663
	c1.085-0.242,2.185-0.345,3.438-0.345c4.333,0,12.405,2.119,12.405,7.229c0,1.408-1.092,2.053-2.111,2.053
	c-0.88,0-1.518-0.257-3.6-1.136c-0.85-0.367-5.432-1.51-8.724-1.51c-2.119,0-4.597,0.719-4.597,2.749
	c0,0.902,0.323,1.43,4.333,7.867l4.809,7.683c6.562,10.755,9.89,17.932,9.89,21.363C163.644,63.26,162.786,66.39,160.118,66.39"/>
<path d="M171.759,44.698c-3.321,0-8.087-0.828-11.891-3.138c0.887,0.198,2.104,0.388,3.761,0.388c6.686,0,13.599-3.563,13.599-9.531
	c0-3.834-3.094-5.594-5.953-5.594c-4.127,0-11.334,2.932-18.042,7.324l-1.283-2.067c5.836-2.881,14.179-6.584,20.982-6.584
	c5.945,0,10.256,3.812,10.256,9.076C183.188,37.388,181.128,44.698,171.759,44.698"/>
<path d="M281.34,64.787c-6.356,0-6.672-14.025-6.672-16.84c0-6.613,0.733-10.85,2.698-22.155c0.066-0.323,0.381-1.957,0.381-3.299
	c0-2.544-1.29-3.863-2.317-4.648c0.315-0.081,0.645-0.117,1.041-0.117c3.849,0,7.91,3.175,7.91,6.188
	c0,0.99-0.271,1.488-0.931,2.676c-0.975,1.767-4.927,10.726-4.927,19.508c0,0.616,0.044,6.078,1.642,6.078
	c0.198,0,0.653,0,1.312-1.745c0.44-1.144,1.943-4.67,3.152-7.5c0.44-1.034,0.858-2.009,1.18-2.779
	c-0.873,4.414-2.602,14.172-2.602,16.664c0,0.432,0.11,1.54,0.22,2.72c0.103,1.041,0.213,2.111,0.213,2.456
	C283.642,63.878,282.887,64.787,281.34,64.787 M301.127,63.431c-3.636,0-10.499-1.488-10.499-7.104
	c0-4.648,4.494-7.544,11.723-7.544c1.305,0,2.266,0.117,3.182,0.22l1.327,0.139l-0.029-0.477c-0.55-11.576-0.55-11.679-0.616-14.245
	l-0.008-0.447l-0.447,0.007c-3.306,0.359-3.659,0.359-4.516,0.359c-3.424,0-7.785-1.298-9.45-4.897
	c2.287,0.843,4.34,1.166,7.229,1.166c2.287,0,4.516-0.205,6.796-0.623l0.345-0.066l-0.007-0.352
	c-0.183-7.698-0.242-8.16-0.638-9.472c-0.594-1.723-2.023-2.082-4.78-2.507c2.324-1.972,4.67-2.141,5.374-2.141
	c1.928,0,6.312,1.547,6.312,4.091c0,0.418-0.308,2.016-0.609,3.424c-0.213,1.034-0.388,2.068-0.689,5.103l-0.059,0.63l1.4-0.469
	c3.651-1.217,4.127-1.378,4.919-1.378c1.312,0,4.465,0.755,4.465,2.61c0,2.243-2.669,2.932-10.667,3.849l-0.359,0.037l-0.007,0.359
	c-0.117,5.095,0.213,10.982,0.931,16.569l0.029,0.257l0.227,0.081c7.112,2.668,10.271,5.213,10.271,8.24
	c0,3.189-1.965,3.35-2.361,3.35c-0.806,0-1.4-0.198-2.441-0.807c-0.235-0.161-1.408-1.144-2.551-2.097
	c-1.224-1.026-2.485-2.089-2.962-2.441l-0.447-0.33l-0.183,0.528C310.211,60.367,308.187,63.431,301.127,63.431 M299.148,51.906
	c-4.098,0-6.444,1.276-6.444,3.497c0,1.386,1.224,3.732,5.828,3.732c6.122,0,7.625-2.918,7.801-5.366l0.022-0.264l-0.234-0.132
	C305.313,52.94,303.4,51.906,299.148,51.906"/>
<path d="M433.517,65.202c3.152-0.755,8.981-2.624,14.941-7.067c4.502-3.358,6.517-6.715,6.517-10.865
	c0-0.784-0.213-7.617-7.258-7.617c-9.773,0-16.437,9.531-18.841,13.629c-0.799,1.342-1.554,2.016-2.228,2.016
	c-1.386,0-4.216-2.632-4.216-5.689c0-0.704,0.462-3.064,0.828-4.963c0.257-1.32,0.477-2.463,0.528-2.94
	c0.301-2.742,0.616-6.598,0.616-9.23c0-5.213,0-8.079,8.343-9.325l0.396-0.044c1.459-0.161,2.317-0.271,2.624-0.425
	c0.272-0.176,0.469-0.352,0.469-0.74c0-0.579-0.169-0.696-2.28-2.148c-1.569-1.063-2.896-3.842-2.896-5.99
	c0-0.3,0.015-0.528,0.037-0.741c3.306,2.918,5.073,3.402,9.054,4.487l0.374,0.11c6.158,1.642,6.231,6.701,6.231,6.752
	c0,2.698-2.273,2.727-2.368,2.727c-0.931,0-1.774-0.381-2.771-0.88c-1.84-0.916-4.934-2.016-9.238-2.016
	c-1.386,0-5.594,0-5.594,2.749c0,1.21,0.667,2.009,1.576,3.101c0.689,0.887,1.385,2.17,1.385,2.998c0,0.858-0.095,1.144-0.997,3.915
	l-0.22,0.645c-0.726,2.134-1.561,6.085-1.561,6.906c0,0.77,0.454,1.268,1.158,1.268c0.55,0,1.217-0.491,1.393-0.667
	c3.937-2.955,12.5-7.155,19.062-7.155c7.148,0,12.962,5.205,12.962,11.606c0,9.333-10.777,15.601-26.826,15.601
	C434.323,65.209,433.92,65.209,433.517,65.202"/>
<path d="M516.46,63.985c-2.493,0-15.132-0.22-19.304-4.611c-2.962-3.152-2.962-6.847-2.962-19.127v-0.572l-0.542,0.176
	c-0.051,0.022-5.037,1.708-7.295,3.13l-0.294,0.183c-1.657,1.071-1.825,1.166-2.39,1.166c-2.192,0-5.689-3.394-5.689-7.412
	c0-1.012,0.191-1.642,0.455-2.17c0.983,1.664,2.324,3.13,5.234,3.13c1.298,0,2.361-0.22,10.256-1.914l0.33-0.073v-0.33
	c0-8.82-0.147-10.066-4.699-11.136c0.835-0.762,2.074-1.576,4.223-1.576c2.273,0,6.73,1.877,6.73,4.142
	c0,0.484-0.388,1.818-0.528,2.324l-0.066,0.22c-0.044,0.139-0.095,0.345-0.132,0.594h-0.029l-0.051,0.403
	c-0.102,0.682-0.498,4.164-0.733,6.239c-0.066,0.586-0.176,1.584-0.176,1.584c-0.205,1.972-0.44,5.234-0.44,9.531
	c0,7.427,0.719,10.454,7.933,10.454c2.595,0,9.098-0.11,13.651-1.122l0.352-0.081c0.689-0.147,1.283-0.279,1.774-0.279
	c2.383,0,4.641,2.163,4.641,4.465c0,0.696-0.102,1.283-1.4,1.767C523.512,63.706,519.054,63.985,516.46,63.985"/>
<path d="M511.469,52.708c-1.159,0-1.752-0.535-2.2-1.987c-0.843-2.661-1.173-3.394-4.897-6.378c3.204,1.107,5.718,1.18,5.733,1.18
	c1.137,0,1.98-0.22,2.683-2.962c0.447-1.87,0.887-6.95,0.938-7.522l0.037-0.521l-0.513,0.073c-2.662,0.418-6.342,1.085-11.4,2.566
	l0.33-2.977l0.924-0.213c3.747-0.828,9.076-2.016,10.484-2.324l0.315-0.066l0.007-0.323c0.073-3.094,0.118-10.484-1.041-12.478
	c-0.44-0.74-1.606-1.965-4.619-2.441c1.092-1.004,2.624-1.503,4.575-1.503c3.988,0,6.569,2.734,6.591,2.757
	c0.345,0.418,0.513,1.012,0.513,1.825c0,0.682-0.044,0.916-0.33,2.412l-0.088,0.528c-0.249,1.32-0.499,4.047-0.675,6.041
	l-0.191,2.097l0.565-0.147c2.456-0.616,5.147-1.327,6.488-2.002c1.004-0.535,1.803-0.572,2.529-0.572
	c1.415,0,6.921,0.953,6.921,3.658c0,2.287-1.606,2.602-3.351,2.602c-0.586,0-2.206-0.095-3.783-0.183
	c-1.525-0.095-2.962-0.183-3.482-0.183c-2.266,0-4.208,0.088-5.777,0.249l-0.337,0.029l-0.03,0.345
	c-0.711,9.127-1.078,13.71-3.482,16.664C513.91,52.166,512.466,52.708,511.469,52.708"/>
<path d="M555.164,65.159c-1.371,0-3.344-1.452-3.344-4.091c0-1.327,0.191-1.65,2.082-4.751l0.14-0.205
	c3.959-6.334,7.353-13.358,10.081-20.894c0.799-2.478,1.965-6.085,2.258-6.95l0.029-0.007l0.176-0.689
	c0.425-1.664,1.312-5.125,1.312-7.229c0-1.129,0-3.387-4.384-4.743c0.719-0.513,1.796-1.07,3.365-1.07
	c2.632,0,7.903,2.001,7.903,4.641c0,0.755-0.081,0.931-0.938,2.515c-1.202,2.221-1.503,2.823-1.994,4.047l-0.381,0.96l1.569-0.733
	c1.18-0.543,1.532-0.696,2.243-1.144c2.94-1.833,3.182-1.965,4.164-1.965c1.804,0,3.16,1.767,3.16,2.911
	c0,1.232-1.547,2.068-2.713,2.588c-4.326,1.957-7.185,2.691-9.494,3.27l-0.821,0.205l-0.073,0.213
	c-4.245,12.676-10,27.463-10.711,28.988C556.872,65.159,556.007,65.159,555.164,65.159"/>
<path d="M558.428,33.486c-4.15,0-6.848-2.756-7.522-5.608c2.265,1.18,4.259,1.62,7.038,1.62c1.555,0,3.241-0.161,5.147-0.513
	l-1.327,4.267C560.481,33.405,559.389,33.486,558.428,33.486"/>
<path d="M590.474,65.159c-16.151,0-16.965-7.617-16.965-9.142c0-1.642,0.799-3.886,2.177-5.455
	c-0.139,0.675-0.227,1.378-0.227,1.884c0,4.311,3.637,6.51,10.828,6.51c3.138,0,4.487-0.249,7.229-0.814
	c0.873-0.169,1.547-0.293,2.199-0.293c2.756,0,4.949,3.02,4.949,4.208c0,0.11-0.029,1.114-1.004,1.606
	C598.59,64.221,595.474,65.159,590.474,65.159"/>
<path d="M585.921,40.616c1.979-1.363,4.531-3.358,4.531-4.56c0-1.65-3.651-1.899-5.836-1.899c-1.745,0-2.874,0.103-3.753,0.234
	c3.189-2.536,7.785-3.475,11.275-3.475c7.023,0,9.391,3.702,9.391,5.381c0,0.858-0.256,1.994-2.493,1.994
	c-0.3,0-1.136-0.044-1.972-0.095c-0.865-0.044-1.716-0.095-2.031-0.095C592.885,38.102,590.877,38.637,585.921,40.616"/>
<path d="M635.958,60.602c-2.947,0-11.474-3.893-11.979-21.173l-0.044-1.232c-0.095-2.911-0.286-8.328-0.381-9.274
	c-0.411-3.446-0.953-4.604-2.441-7.339c4.846,0.718,9.509,3.512,9.509,7.749c0,0.63-0.11,1.114-0.242,1.738l-0.117,0.586
	c-0.814,3.292-1.679,7.097-1.679,10.374c0,5.139,2.192,9.714,3.922,9.714c0.997,0,2.097-1.29,3.035-2.5
	c2.61-3.262,5.704-7.617,7.486-10.264c-1.327,3.453-4.377,11.451-4.758,12.734c-0.3,0.982-0.374,1.334-0.374,2.082
	c0,0.374,0.183,1.136,0.484,2.346c0.198,0.77,0.44,1.716,0.44,1.972C638.817,59.832,637.372,60.602,635.958,60.602 M667.138,50.675
	c-1.18,0-1.569-0.432-3.19-2.493c-1.723-2.06-5.19-2.896-8.27-3.49c2.053-0.279,5.836-0.836,6.422-1.041
	c0.609-0.205,1.253-0.85,1.253-2.053c0-1.246-1.012-5.513-2.881-8.886c-1.686-2.955-4.054-5.3-5.718-6.825
	c7.94,0.982,15.916,9.956,15.916,18.299C670.672,48.088,668.545,50.675,667.138,50.675"/>
<path d="M3.783,63.863c-1.972,0-2.603-2.668-2.603-3.966c-0.066-1.957,0.315-2.5,3.292-6.21
	c6.121-7.742,10.513-17.617,11.283-19.648l0.308-0.828l-0.829,0.293c-4.303,1.54-5.681,2.493-8.416,4.399l-0.132,0.095
	c-0.535,0.411-1.122,0.784-1.914,0.784C2.889,38.783,0,36.012,0,32.602c0-1.686,0.579-2.559,1.195-3.233
	c0.748,2.177,1.54,3.211,3.446,3.211c1.349,0,5.337-0.865,8.541-1.554c1.759-0.374,3.277-0.704,3.9-0.792l0.249-0.037l0.301-0.799
	c1.122-2.998,2.273-6.092,2.273-8.196c0-2.918-2.441-3.864-4.443-4.392c1.232-0.902,2.713-1.422,4.091-1.422
	c2.926,0,7.236,2.61,7.236,4.949c0,1.122-0.726,2.324-1.598,3.666c-0.873,1.305-1.18,1.921-2.669,4.897
	c-0.073,0.161-6.554,14.208-7.405,15.968c-4.78,10.161-8.24,16.774-9.479,18.145C5.117,63.599,4.531,63.863,3.783,63.863"/>
<path d="M20.544,65.71c-1.855,0-1.987-0.572-2.361-3.607c-0.418-3.336-2.104-5.902-3.314-7.471c2.06,1.136,5.389,2.786,6.474,2.786
	c1.158,0,1.987-0.543,2.698-1.745c3.475-6.07,4.56-15.33,4.56-18.02c0-3.189-0.469-6.136-3.805-6.136c-0.088,0-0.191,0-0.33,0.007
	c0.418-0.88,0.814-1.73,0.997-2.097c3.746,0.073,7.485,1.32,7.485,9.399c0,6.84-2.273,18.871-6.547,23.695
	C24.598,64.486,22.354,65.71,20.544,65.71"/>
<path d="M50.8,49.136c-1.019,0-1.166-0.161-2.815-2.302c-1.077-1.4-4.399-3.02-7.947-3.497c1.708-0.323,4.391-0.865,5.205-1.239
	c0.961-0.374,1.041-1.415,1.041-1.73c0-0.997-1.363-4.846-3.988-7.793c-1.789-1.98-3.673-3.475-5.124-4.523
	c3.365,0.601,8.203,1.921,12.096,6.122c4.304,4.685,4.634,9.465,4.634,10.821C53.901,45.411,53.812,49.136,50.8,49.136"/>
<path d="M213.928,33.872c-0.03-3.768-0.051-6.862-0.051-6.862h7.5c0.513,0,0.513-0.125,0.513-0.198c0-0.183-0.008-0.213-0.447-0.711
	l-3.321-3.504c-0.44-0.484-0.975-0.704-1.371,0.029l-1.606,3.153h-1.268c0-6.701,0.037-8.908,0.066-9.582l0.008-0.235l0.564-0.308
	c1.767-0.946,1.767-0.953,1.767-1.224c0-0.411-0.77-0.66-1.151-0.711l-7.5-1.584c0.748,2.368,0.792,3.673,0.843,13.644h-2.295
	c-1.914-0.022-4.164-0.132-6.026-0.308l0.579,1.928c1.078-0.176,2.522-0.388,6.408-0.388h0.469l-0.059,0.469
	c-0.909,7.214-4.186,18.541-8.541,25.85c4.047-3.402,7.199-8.043,8.768-10.586l0.784-1.276l-0.022,1.488
	c-0.059,4.252-0.059,4.743-0.059,5.484c0,1.239-0.095,4.751-0.183,8.468c-0.095,3.805-0.191,7.742-0.191,9.157
	c0,1.18,0,2.119,2.053,2.119c3.959,0,3.959-2.243,3.959-3.717c0-2.947-0.117-20.234-0.19-30.117c0.755,0.88,1.678,2.398,2.683,5.77
	c0.572,1.781,1.114,3.043,2.815,3.043c1.554,0,3.167-1.144,3.167-3.043C222.593,37.157,218.869,34.539,213.928,33.872"/>
<path d="M244.721,50.425l-0.337-0.418l0.491-0.22c5.396-2.449,6.011-2.764,6.297-2.933l0.11-0.059h0.11
	c0.616,0.015,1.114,0.029,1.503,0.029c0.835,0,1.092-0.066,1.144-0.102c0-0.007,0.014-0.051,0.014-0.191
	c0-0.154-0.154-0.469-0.506-0.719l-5.814-4.157c-0.88,2.881-2.427,5.718-3.116,6.972l-0.528,0.982l-0.381-0.572
	c-2.991-4.457-3.783-8.174-4.128-9.765l-0.102-0.491h13.35h1.452c0.513,0,0.513-0.132,0.513-0.264c0-0.168-0.154-0.403-0.469-0.682
	l-3.475-3.035c-0.205-0.205-0.675-0.543-0.814-0.557c-0.162,0-0.293,0.088-0.667,0.579l-2.082,2.727h-7.713v-6.217h7.713h4.164
	c0.506,0,0.506-0.139,0.506-0.279c0-0.205-0.242-0.432-0.462-0.601l-3.761-3.02c-0.601-0.498-0.806-0.52-0.85-0.52
	c-0.154,0-0.286,0.088-0.652,0.572l-1.965,2.61h-4.692v-5.667h9.838h4.436c0.579,0,0.579-0.168,0.579-0.271
	c0-0.183-0.301-0.447-0.469-0.609l-3.541-2.969c-0.535-0.411-0.741-0.506-0.821-0.513c-0.154,0-0.33,0.205-0.66,0.579l-1.957,2.551
	h-7.082l0.205-0.161c0.586-0.454,2.427-1.965,4.142-3.365c1.342-1.107,2.61-2.141,3.123-2.551l0.081-0.059l0.521-0.11
	c1.774-0.381,1.774-0.389,1.774-0.741c0-0.147-0.205-0.345-0.513-0.491l-7.023-3.578c-0.755,4.106-2.713,8.937-3.724,11.056h-10.286
	c-2.023-0.044-4.054-0.117-6.048-0.279l0.587,1.884c1.393-0.257,2.801-0.374,6.408-0.374h4.97v29.501c0,5.894,0,7.119-2.324,7.119
	c-0.366,0-1.437-0.088-2.559-0.168c-0.682-0.059-1.415-0.117-1.987-0.154c4.216,2.331,5.015,5.344,5.484,7.69
	c0.983-0.205,2.808-0.682,4.604-2.001c2.361-1.789,2.361-3.211,2.361-7.441c0-0.535-0.051-13.651-0.117-15.198l-0.169-2.742
	c2.361,11.474,6.562,18.819,10.968,22.456c1.019-1.481,2.588-3.475,6.107-4.677C250.227,56.414,247.125,53.365,244.721,50.425"/>
<path d="M231.111,22.825c1.554,0,3.167-1.136,3.167-3.042c0-3.057-3.988-5.762-9.178-6.312c0.814,0.777,1.95,2.126,3.196,6.312
	C228.868,21.564,229.41,22.825,231.111,22.825"/>
<path d="M222.097,44.841c0.469,0.902,0.835,1.906,1.393,3.783c0.594,1.818,1.137,3.101,2.874,3.101c1.591,0,3.233-1.166,3.233-3.101
	c0-2.441-2.038-4.465-5.608-5.572C223.717,43.448,223.116,44.174,222.097,44.841"/>
<path d="M225.018,39.17c1.371-0.205,2.734-0.381,6.217-0.388V37.55c-2.39-0.029-4.67-0.125-6.803-0.293L225.018,39.17z"/>
<path d="M231.233,30.099c-2.383-0.029-4.67-0.132-6.804-0.293l0.587,1.913c1.371-0.213,2.734-0.381,6.217-0.388V30.099z"/>
<path d="M233.646,50.79c-5.323,3.021-11.18,5.205-15.88,5.916l4.281,6.4c0.132,0.257,0.374,0.388,0.498,0.388
	c0.33,0,0.381,0,0.579-1.606l0.015-0.154l0.11-0.103c1.268-1.21,2.163-2.097,10.154-10.579L233.646,50.79z"/>
<path fill="#E60039" d="M394.218,25.223c0.513,0,0.513-0.095,0.513-0.198c0-0.22-0.132-0.345-0.462-0.609l-5.681-4.692
	c-0.411-0.366-0.653-0.513-0.836-0.513c-0.073,0-0.271,0.059-0.645,0.616l-2.764,4.164h-7.067v0.579v0.652h8.101H394.218z"/>
<path fill="#E60039" d="M398.893,36.986l-5.968-4.838c-0.323-0.271-0.52-0.433-0.799-0.433c-0.102,0-0.191,0-0.579,0.55l-2.83,4.362
	H377.28v0.572v0.66h15.352h6.21c0.513,0,0.513-0.132,0.513-0.264C399.355,37.522,399.311,37.338,398.893,36.986"/>
<path fill="#E60039" d="M390.71,45.592l-5.037-3.68c-0.088-0.066-0.176-0.132-0.272-0.191c-0.205-0.154-0.396-0.293-0.549-0.293
	c-0.14,0-0.235,0.037-0.843,0.88l-2.463,3.241h-21.422l-8.049-3.365c0.308,1.532,0.718,4.179,0.718,10.66
	c0,0.909-0.081,3.438-0.154,5.924c-0.081,2.383-0.154,4.721-0.154,5.542c0,0.784,0,2.111,2.61,2.111c1.041,0,2.47-0.198,3.38-1.136
	c0.609-0.638,0.887-1.561,0.828-2.764V46.78h23.255v14.098h-20.381v0.572v0.66h20.381v0.411c0,2.339,0,3.402,2.486,3.402
	c1.884,0,4.149-0.586,4.149-3.402c0-1.1-0.102-4.179-0.191-7.155c-0.095-2.918-0.183-5.674-0.183-6.649l0.051-0.235l0.162-0.125
	c2.074-1.606,2.192-1.716,2.192-2.104C391.223,46.046,390.952,45.797,390.71,45.592"/>
<path fill="#E60039" d="M374.401,36.629h-0.008c-0.007-4.868-0.044-18.783,0.008-19.758l0.014-0.235l0.352-0.191
	c0.645-0.366,2.346-1.32,2.346-1.84c0-0.125-0.11-0.191-0.865-0.352l-0.213-0.044l-9.193-1.664c0.784,2.581,0.814,3.71,0.982,11.239
	v0.205h-11.584l0.044-0.051c0.997-1.496,1.701-2.698,2.588-4.208l0.366-0.63l0.103-0.044c0.124-0.066,1.43-0.689,2.148-1.019
	c0.14-0.044,0.587-0.22,0.587-0.594c0-0.227-0.169-0.33-0.726-0.543l-8.49-3.38c0.03,0.227,0.051,0.396,0.051,0.652
	c0,1.906-2.148,13.116-5.572,19.692c3.182-2.595,5.777-5.366,7.91-8.46l0.118-0.183h12.514l0.059,11.408h-16.605
	c-2.405-0.022-4.912-0.11-7.412-0.3l0.63,1.921c1.518-0.242,2.933-0.388,6.408-0.388h23.438V36.629z"/>
<path fill="#E60039" d="M371.642,73.386l-0.337-0.227c-0.11-0.073-10.433-7.097-20.623-16.679
	c-13.754-12.94-20.733-24.135-20.733-33.277C329.948,10.411,340.366,0,353.159,0c7.25,0,14.098,3.424,18.482,9.201
	C376.025,3.424,382.873,0,390.124,0c12.8,0,23.211,10.411,23.211,23.204c0,9.142-6.972,20.337-20.733,33.277
	c-10.19,9.582-20.513,16.606-20.615,16.679L371.642,73.386z M353.159,1.232c-12.119,0-21.972,9.861-21.972,21.972
	c0,20.007,36.488,45.938,40.454,48.695c3.974-2.757,40.461-28.687,40.461-48.695c0-12.111-9.861-21.972-21.979-21.972
	c-7.141,0-13.856,3.505-17.977,9.362l-0.506,0.718l-0.506-0.718C367.023,4.736,360.3,1.232,353.159,1.232"/>
<path fill="#E60039" d="M703.431,66.35c-2.932,0-5.308-2.5-5.308-5.564c0-2.998,2.376-5.432,5.308-5.432
	c2.903,0,5.367,2.485,5.367,5.432C708.798,63.799,706.334,66.35,703.431,66.35 M703.036,50.947c-0.132,0-0.469,0-0.587-1.041
	c-0.22-1.693-0.33-3.072-0.33-4.325c0-2.705,0.549-5.975,4.618-9.765c4.069-4.003,5.799-7.881,5.799-11.466
	c0-6.518-3.9-10.102-8.849-10.102c-5.059,0-7.412,3.218-7.412,5.388c0,1.444,1.107,2.427,1.415,2.566
	c1.143,0.792,1.862,2.192,1.862,3.717c0,2.412-1.657,4.846-4.846,4.846c-4.641,0-4.773-5.345-4.773-5.953
	c0-8.805,9.084-11.994,15.198-11.994c7.39,0,14.868,4.304,14.868,12.515c0,6.276-4.355,10.388-10.902,14.626
	c-4.582,2.881-5.154,5.213-5.345,9.861c-0.059,1.129-0.234,1.129-0.528,1.129H703.036z"/>
</svg>
