<?xml version="1.0" encoding="utf-8"?>
<!-- Generator: Adobe Illustrator 27.2.0, SVG Export Plug-In . SVG Version: 6.00 Build 0)  -->
<svg version="1.1" id="레이어_1" xmlns="http://www.w3.org/2000/svg" xmlns:xlink="http://www.w3.org/1999/xlink" x="0px"
	 y="0px" viewBox="0 0 720 107.982" enable-background="new 0 0 720 107.982" xml:space="preserve">
<g>
	<path d="M465.396,69.995c3.383-0.8,9.648-2.82,16.034-7.583c4.839-3.612,6.996-7.201,6.996-11.667c0-0.838-0.221-8.185-7.788-8.185
		c-10.494,0-17.627,10.235-20.21,14.639c-0.877,1.44-1.677,2.157-2.408,2.157c-1.494,0-4.527-2.82-4.527-6.097
		c0-0.762,0.503-3.3,0.892-5.335c0.282-1.41,0.518-2.637,0.564-3.162c0.32-2.934,0.671-7.08,0.671-9.892
		c0-5.609,0-8.688,8.947-10.029L465,24.796c1.57-0.16,2.469-0.29,2.804-0.45c0.29-0.19,0.511-0.373,0.511-0.8
		c0-0.617-0.183-0.739-2.446-2.301c-1.684-1.143-3.109-4.123-3.109-6.424c0-0.32,0.015-0.571,0.046-0.808
		c3.544,3.14,5.441,3.658,9.717,4.832l0.389,0.107c6.615,1.768,6.699,7.194,6.699,7.248c0,2.903-2.431,2.934-2.538,2.934
		c-0.998,0-1.905-0.404-2.972-0.945c-1.974-0.983-5.297-2.164-9.922-2.164c-1.486,0-5.998,0-5.998,2.957
		c0,1.296,0.709,2.141,1.684,3.323c0.739,0.96,1.494,2.332,1.494,3.231c0,0.907-0.114,1.219-1.082,4.184l-0.229,0.701
		c-0.793,2.294-1.669,6.546-1.669,7.415c0,0.823,0.488,1.364,1.227,1.364c0.594,0,1.311-0.526,1.509-0.724
		c4.222-3.163,13.405-7.674,20.462-7.674c7.667,0,13.908,5.586,13.908,12.46c0,10.014-11.568,16.751-28.792,16.751
		C466.257,70.01,465.838,70.002,465.396,69.995"/>
	<path d="M554.441,68.692c-2.675,0-16.248-0.236-20.721-4.953c-3.185-3.384-3.185-7.354-3.185-20.538v-0.617l-0.579,0.198
		c-0.061,0.023-5.411,1.837-7.834,3.353l-0.312,0.198c-1.783,1.151-1.958,1.25-2.568,1.25c-2.355,0-6.104-3.635-6.104-7.948
		c0-1.09,0.206-1.76,0.488-2.34c1.052,1.791,2.492,3.369,5.617,3.369c1.387,0,2.538-0.236,11.012-2.058l0.351-0.076v-0.358
		c0-9.465-0.145-10.799-5.045-11.957c0.907-0.816,2.233-1.692,4.542-1.692c2.438,0,7.224,2.02,7.224,4.458
		c0,0.503-0.419,1.943-0.572,2.485l-0.069,0.236c-0.053,0.16-0.107,0.366-0.152,0.64l-0.023-0.008l-0.053,0.434
		c-0.114,0.747-0.534,4.473-0.785,6.714c-0.076,0.625-0.19,1.692-0.19,1.692c-0.221,2.119-0.465,5.624-0.465,10.227
		c0,7.971,0.762,11.225,8.505,11.225c2.789,0,9.777-0.122,14.647-1.196l0.389-0.092c0.739-0.16,1.387-0.297,1.898-0.297
		c2.568,0,4.984,2.325,4.984,4.786c0,0.762-0.099,1.379-1.494,1.905C562.016,68.388,557.215,68.692,554.441,68.692"/>
	<path d="M549.083,56.583c-1.235,0-1.882-0.579-2.363-2.134c-0.907-2.85-1.265-3.65-5.258-6.843
		c3.445,1.181,6.135,1.257,6.165,1.257c1.212,0,2.126-0.229,2.873-3.178c0.48-1.989,0.953-7.453,1.006-8.063l0.038-0.572
		l-0.549,0.084c-2.85,0.457-6.805,1.166-12.247,2.751l0.366-3.193l0.991-0.229c4.031-0.892,9.739-2.157,11.256-2.492l0.335-0.076
		l0.015-0.343c0.069-3.315,0.114-11.256-1.128-13.398c-0.465-0.792-1.722-2.103-4.953-2.622c1.166-1.074,2.82-1.616,4.9-1.616
		c4.298,0,7.057,2.942,7.088,2.972c0.366,0.427,0.541,1.074,0.541,1.951c0,0.731-0.03,0.975-0.343,2.591l-0.099,0.571
		c-0.267,1.402-0.534,4.344-0.724,6.478l-0.206,2.248l0.602-0.153c2.644-0.655,5.525-1.425,6.973-2.149
		c1.075-0.572,1.928-0.617,2.705-0.617c1.524,0,7.445,1.029,7.445,3.925c0,2.462-1.738,2.805-3.597,2.805
		c-0.64,0-2.385-0.107-4.077-0.206c-1.623-0.099-3.178-0.198-3.727-0.198c-2.438,0-4.527,0.091-6.203,0.274l-0.366,0.038
		l-0.023,0.358c-0.785,9.808-1.174,14.731-3.757,17.894C551.712,56.004,550.15,56.583,549.083,56.583"/>
	<path d="M595.991,69.95c-1.471,0-3.597-1.562-3.597-4.382c0-1.44,0.221-1.783,2.241-5.106l0.145-0.221
		c4.245-6.798,7.895-14.342,10.822-22.428c0.869-2.66,2.118-6.539,2.431-7.476h0.03l0.19-0.747c0.457-1.783,1.41-5.502,1.41-7.758
		c0-1.204,0-3.635-4.717-5.083c0.77-0.556,1.943-1.158,3.612-1.158c2.835,0,8.497,2.149,8.497,4.984
		c0,0.815-0.091,0.998-1.013,2.705c-1.295,2.378-1.608,3.025-2.134,4.336l-0.411,1.037l1.692-0.777
		c1.265-0.594,1.631-0.762,2.401-1.242c3.147-1.958,3.414-2.111,4.473-2.111c1.936,0,3.384,1.905,3.384,3.125
		c0,1.334-1.661,2.225-2.911,2.774c-4.633,2.118-7.712,2.888-10.189,3.521l-0.884,0.229l-0.076,0.229
		c-4.557,13.595-10.738,29.47-11.492,31.108C597.828,69.95,596.89,69.95,595.991,69.95"/>
	<path d="M599.497,35.946c-4.458,0-7.354-2.964-8.078-6.02c2.439,1.257,4.573,1.738,7.552,1.738c1.661,0,3.482-0.183,5.525-0.556
		l-1.418,4.588C601.699,35.863,600.533,35.946,599.497,35.946"/>
	<path d="M633.894,69.95c-17.337,0-18.214-8.169-18.214-9.816c0-1.76,0.861-4.176,2.347-5.853c-0.153,0.717-0.252,1.486-0.252,2.02
		c0,4.633,3.909,6.988,11.622,6.988c3.376,0,4.817-0.267,7.766-0.869c0.945-0.19,1.654-0.32,2.355-0.32
		c2.957,0,5.312,3.247,5.312,4.519c0,0.122-0.03,1.204-1.075,1.722C642.62,68.936,639.267,69.95,633.894,69.95"/>
	<path d="M629.012,43.605c2.111-1.463,4.87-3.605,4.87-4.9c0-1.768-3.925-2.027-6.272-2.027c-1.882,0-3.086,0.099-4.047,0.244
		c3.437-2.728,8.375-3.734,12.117-3.734c7.537,0,10.082,3.963,10.082,5.784c0,0.914-0.274,2.134-2.667,2.134
		c-0.328,0-1.227-0.053-2.134-0.099c-0.907-0.053-1.829-0.099-2.172-0.099C636.488,40.907,634.324,41.486,629.012,43.605"/>
	<path d="M682.727,65.05c-3.17,0-12.315-4.169-12.856-22.718l-0.046-1.326c-0.107-3.125-0.305-8.939-0.419-9.953
		c-0.442-3.704-1.013-4.946-2.614-7.88c5.197,0.762,10.204,3.765,10.204,8.314c0,0.671-0.114,1.197-0.259,1.86l-0.122,0.632
		c-0.884,3.536-1.806,7.621-1.806,11.142c0,5.517,2.355,10.425,4.214,10.425c1.067,0,2.233-1.379,3.262-2.675
		c2.797-3.506,6.127-8.177,8.032-11.012c-1.425,3.696-4.702,12.285-5.106,13.657c-0.328,1.059-0.404,1.44-0.404,2.233
		c0,0.404,0.191,1.227,0.518,2.53c0.206,0.815,0.465,1.844,0.465,2.111C685.79,64.227,684.251,65.05,682.727,65.05 M716.205,54.403
		c-1.273,0-1.692-0.472-3.422-2.682c-1.86-2.218-5.579-3.109-8.894-3.749c2.218-0.297,6.28-0.892,6.904-1.113
		c0.648-0.221,1.349-0.914,1.349-2.195c0-1.349-1.097-5.929-3.094-9.549c-1.814-3.163-4.359-5.685-6.15-7.324
		C711.427,28.843,720,38.476,720,47.438C720,51.63,717.714,54.403,716.205,54.403"/>
</g>
<g>
	<path d="M106.489,73.793c-1.387,0-1.661-0.305-4.923-5.304c-6.371-9.793-8.596-11.789-17.894-20.188l-0.305-0.267
		c-2.462-2.179-2.965-3.688-2.965-4.572c0-2.301,2.149-4.55,3.719-6.173C99.98,20.889,99.98,18.893,99.98,17.132
		c0-1.547-1.097-2.911-3.46-4.26c0.594-0.145,1.28-0.259,2.225-0.259c5.38,0,10.014,4.679,10.014,6.965
		c0,1.852-2.416,3.574-4.977,5.395c-0.229,0.145-3.117,2.439-9.937,7.895c-6.165,5.053-9.038,8.292-9.038,10.197
		c0,1.212,0.571,2.179,3.65,4.146c11.545,7.545,19.052,14.967,20.507,17.269c0.838,1.356,1.387,3.132,1.387,4.519
		C110.352,71.819,108.318,73.793,106.489,73.793 M119.391,31.048c-1.189,0-1.395-0.404-2.202-2.317l-0.099-0.259
		c-1.433-3.559-3.048-5.578-4.336-6.943c2.789,0.846,5.053,2.225,5.998,2.85c1.052,0.655,2.782,1.745,2.782,4.336
		C121.532,29.836,120.861,31.048,119.391,31.048 M126.471,26.681c-1.029,0-1.578-0.914-2.454-2.545
		c-2.111-3.788-4.222-5.708-5.792-6.775c4.687,0.648,10.257,2.904,10.257,6.653C128.482,25.546,127.415,26.681,126.471,26.681"/>
	<path d="M171.883,71.267c-2.325,0-2.98-1.852-3.544-4.092c-1.837-7.057-4.626-17.711-9.777-25.598l-0.267-0.419l-0.381,0.313
		c-3.506,2.896-4.329,3.803-6.333,5.997c-0.252,0.313-1.532,1.768-3.178,1.768c-3.422,0-7.765-3.429-7.765-7.293
		c0-1.517,0.556-2.568,1.052-3.254c1.265,2.5,3.17,3.628,4.595,3.628c1.654,0,2.545-0.457,9.396-4.016l0.48-0.244
		c0,0-1.021-1.242-1.593-1.928c-0.998-1.204-2.325-2.797-3.247-3.925c-0.632-0.754-1.219-1.463-1.219-2.759
		c0-2.591,1.898-4.748,3.726-5.335c2.012-0.694,9.457-1.036,10.974-1.036c0.876,0,1.966,0,1.966-1.113
		c0-1.532-3.3-3.071-8.101-5.007c1.158-0.251,2.34-0.374,3.689-0.374c4.641,0,13.321,2.279,13.321,7.766
		c0,1.517-1.174,2.21-2.271,2.21c-0.945,0-1.631-0.274-3.864-1.227c-0.914-0.389-5.83-1.623-9.366-1.623
		c-2.279,0-4.946,0.77-4.946,2.957c0,0.968,0.351,1.54,4.656,8.444l5.167,8.246c7.049,11.546,10.623,19.258,10.623,22.939
		C175.678,67.914,174.748,71.267,171.883,71.267"/>
	<path d="M184.385,47.988c-3.567,0-8.68-0.899-12.765-3.368c0.953,0.206,2.256,0.412,4.031,0.412
		c7.179,0,14.609-3.833,14.609-10.227c0-4.123-3.323-6.005-6.401-6.005c-4.428,0-12.163,3.147-19.365,7.857l-1.379-2.21
		c6.264-3.109,15.226-7.08,22.527-7.08c6.379,0,11.004,4.1,11.004,9.747C196.647,40.139,194.445,47.988,184.385,47.988"/>
	<path d="M302.023,69.544c-6.813,0-7.156-15.051-7.156-18.077c0-7.103,0.785-11.644,2.896-23.777
		c0.061-0.358,0.404-2.103,0.404-3.551c0-2.728-1.379-4.138-2.484-4.976c0.335-0.099,0.694-0.13,1.12-0.13
		c4.13,0,8.489,3.414,8.489,6.638c0,1.067-0.29,1.6-0.991,2.881c-1.067,1.89-5.289,11.5-5.289,20.934
		c0,0.67,0.046,6.531,1.753,6.531c0.213,0,0.709,0,1.41-1.882c0.473-1.227,2.088-5.007,3.376-8.04
		c0.48-1.12,0.922-2.164,1.273-2.987c-0.945,4.74-2.789,15.211-2.789,17.886c0,0.465,0.122,1.654,0.236,2.911
		c0.114,1.128,0.221,2.278,0.221,2.644C304.492,68.569,303.692,69.544,302.023,69.544 M323.262,68.097
		c-3.894,0-11.264-1.593-11.264-7.636c0-4.984,4.824-8.078,12.59-8.078c1.402,0,2.431,0.107,3.414,0.221l1.418,0.152l-0.023-0.51
		c-0.594-12.437-0.594-12.544-0.663-15.295l-0.015-0.48l-0.473,0.008c-3.551,0.389-3.932,0.389-4.847,0.389
		c-3.681,0-8.368-1.395-10.143-5.258c2.446,0.907,4.656,1.25,7.758,1.25c2.454,0,4.839-0.213,7.286-0.671l0.373-0.069l-0.007-0.373
		c-0.191-8.261-0.259-8.764-0.686-10.166c-0.64-1.852-2.172-2.241-5.129-2.69c2.499-2.126,5.014-2.309,5.769-2.309
		c2.073,0,6.775,1.661,6.775,4.39c0,0.45-0.328,2.179-0.655,3.681c-0.221,1.113-0.419,2.225-0.739,5.479l-0.061,0.67l1.509-0.503
		c3.925-1.303,4.428-1.471,5.281-1.471c1.41,0,4.778,0.8,4.778,2.797c0,2.408-2.858,3.147-11.447,4.131l-0.381,0.038l-0.008,0.389
		c-0.13,5.464,0.229,11.782,0.991,17.795l0.038,0.267l0.251,0.084c7.628,2.865,11.027,5.601,11.027,8.856
		c0,3.422-2.118,3.589-2.538,3.589c-0.869,0-1.509-0.206-2.622-0.861c-0.251-0.175-1.516-1.227-2.736-2.256
		c-1.311-1.097-2.667-2.241-3.178-2.614l-0.488-0.358l-0.19,0.571C333.017,64.804,330.853,68.097,323.262,68.097 M321.144,55.728
		c-4.397,0-6.92,1.364-6.92,3.749c0,1.486,1.318,4.016,6.264,4.016c6.562,0,8.177-3.147,8.375-5.769l0.023-0.29l-0.259-0.137
		C327.759,56.833,325.716,55.728,321.144,55.728"/>
	<path d="M4.054,68.558c-2.119,0-2.797-2.865-2.797-4.26C1.189,62.203,1.6,61.616,4.801,57.63
		c6.561-8.307,11.286-18.907,12.109-21.087l0.32-0.892l-0.891,0.328c-4.611,1.638-6.089,2.667-9.023,4.717l-0.145,0.091
		C6.6,41.23,5.967,41.634,5.113,41.634C3.086,41.634,0,38.662,0,34.996c0-1.806,0.61-2.751,1.28-3.467
		c0.8,2.324,1.654,3.452,3.696,3.452c1.448,0,5.731-0.922,9.168-1.669c1.89-0.411,3.521-0.762,4.192-0.854l0.259-0.038l0.328-0.861
		c1.196-3.216,2.439-6.554,2.439-8.802c0-3.125-2.614-4.146-4.771-4.71c1.311-0.968,2.911-1.524,4.397-1.524
		c3.14,0,7.758,2.797,7.758,5.304c0,1.204-0.77,2.492-1.707,3.932c-0.937,1.402-1.273,2.073-2.873,5.266
		c-0.076,0.168-7.026,15.249-7.941,17.139C11.088,59.078,7.377,66.181,6.043,67.644C5.479,68.269,4.847,68.558,4.054,68.558"/>
	<path d="M22.049,70.545c-1.989,0-2.126-0.617-2.538-3.879c-0.45-3.582-2.263-6.333-3.559-8.017c2.21,1.219,5.784,2.987,6.95,2.987
		c1.242,0,2.141-0.579,2.896-1.875c3.727-6.516,4.893-16.453,4.893-19.334c0-3.429-0.495-6.6-4.077-6.6
		c-0.092,0-0.213,0.008-0.351,0.015c0.434-0.945,0.869-1.867,1.059-2.256c4.024,0.076,8.04,1.425,8.04,10.09
		c0,7.339-2.439,20.264-7.034,25.438C26.393,69.234,23.992,70.545,22.049,70.545"/>
	<path d="M54.527,52.751c-1.09,0-1.25-0.175-3.018-2.477c-1.166-1.494-4.725-3.239-8.535-3.749c1.829-0.343,4.717-0.93,5.586-1.334
		c1.037-0.396,1.113-1.524,1.113-1.86c0-1.067-1.448-5.205-4.275-8.368c-1.92-2.119-3.947-3.727-5.502-4.854
		c3.62,0.648,8.802,2.065,12.986,6.577c4.618,5.022,4.976,10.158,4.976,11.606C57.857,48.75,57.766,52.751,54.527,52.751"/>
	<path d="M229.657,36.356c-0.031-4.039-0.061-7.361-0.061-7.361h8.055c0.549,0,0.549-0.137,0.549-0.213
		c0-0.206-0.007-0.221-0.472-0.754l-3.567-3.765c-0.48-0.518-1.044-0.762-1.478,0.023l-1.722,3.391h-1.357
		c0-7.186,0.038-9.579,0.069-10.288l0.008-0.251l0.61-0.328c1.89-1.021,1.89-1.037,1.89-1.326c0-0.442-0.823-0.701-1.235-0.762
		l-8.055-1.699c0.808,2.545,0.854,3.948,0.907,14.655h-2.462c-2.058-0.03-4.466-0.145-6.462-0.328l0.625,2.065
		c1.151-0.198,2.698-0.419,6.874-0.419h0.495l-0.061,0.51c-0.975,7.735-4.489,19.898-9.168,27.747
		c4.344-3.65,7.735-8.642,9.419-11.37l0.831-1.372l-0.023,1.608c-0.061,4.557-0.061,5.091-0.061,5.883
		c0,1.334-0.092,5.098-0.191,9.084c-0.107,4.092-0.206,8.314-0.206,9.838c0,1.265,0,2.263,2.202,2.263
		c4.252,0,4.252-2.393,4.252-3.986c0-3.155-0.122-21.719-0.206-32.335c0.8,0.945,1.798,2.576,2.888,6.196
		c0.61,1.913,1.189,3.269,3.018,3.269c1.669,0,3.399-1.227,3.399-3.269C238.962,39.892,234.953,37.08,229.657,36.356"/>
	<path d="M262.715,54.135l-0.366-0.45l0.526-0.236c5.792-2.637,6.455-2.964,6.767-3.155l0.114-0.061h0.114
		c0.663,0.015,1.196,0.03,1.615,0.03c0.915,0,1.174-0.069,1.227-0.107c0,0,0.015-0.046,0.015-0.213c0-0.145-0.16-0.495-0.541-0.762
		l-6.234-4.466c-0.945,3.094-2.614,6.135-3.353,7.484l-0.564,1.059l-0.411-0.61c-3.209-4.793-4.062-8.779-4.428-10.479l-0.114-0.541
		h14.342h1.555c0.549,0,0.549-0.137,0.549-0.282c0-0.183-0.175-0.427-0.51-0.724l-3.727-3.262c-0.221-0.221-0.716-0.579-0.876-0.594
		c-0.16,0-0.313,0.084-0.716,0.61l-2.233,2.934h-8.284v-6.676h8.276h4.473c0.556,0,0.556-0.153,0.556-0.297
		c0-0.229-0.267-0.465-0.503-0.64l-4.039-3.246c-0.64-0.534-0.861-0.564-0.907-0.564c-0.168,0-0.313,0.091-0.709,0.625l-2.103,2.797
		h-5.045V26.22h10.57h4.763c0.617,0,0.617-0.183,0.617-0.282c0-0.206-0.32-0.488-0.503-0.663l-3.795-3.185
		c-0.571-0.442-0.8-0.534-0.884-0.541c-0.168,0-0.35,0.206-0.709,0.625l-2.111,2.721h-7.598l0.229-0.168
		c0.625-0.48,2.599-2.103,4.443-3.612c1.44-1.189,2.805-2.301,3.353-2.736l0.084-0.069l0.564-0.122
		c1.898-0.404,1.898-0.412,1.898-0.785c0-0.16-0.213-0.374-0.549-0.541l-7.537-3.833c-0.816,4.405-2.911,9.595-4.001,11.866h-11.042
		c-2.172-0.038-4.344-0.13-6.493-0.29l0.625,2.02c1.501-0.274,3.01-0.404,6.882-0.404h5.334v31.664c0,6.341,0,7.651-2.492,7.651
		c-0.396,0-1.532-0.091-2.751-0.183c-0.724-0.061-1.509-0.122-2.126-0.168c4.527,2.5,5.38,5.738,5.891,8.253
		c1.052-0.213,3.01-0.724,4.938-2.141c2.538-1.921,2.538-3.445,2.538-7.987c0-0.579-0.069-14.662-0.13-16.316l-0.175-2.942
		c2.53,12.308,7.034,20.203,11.767,24.105c1.097-1.593,2.782-3.727,6.561-5.022C268.621,60.567,265.299,57.298,262.715,54.135"/>
	<path d="M248.106,24.501c1.669,0,3.391-1.219,3.391-3.269c0-3.277-4.275-6.181-9.854-6.767c0.884,0.831,2.096,2.279,3.445,6.767
		C245.698,23.144,246.277,24.501,248.106,24.501"/>
	<path d="M238.424,48.137c0.503,0.968,0.899,2.05,1.501,4.054c0.625,1.951,1.212,3.338,3.086,3.338c1.699,0,3.467-1.242,3.467-3.338
		c0-2.629-2.187-4.786-6.02-5.975C240.169,46.643,239.521,47.42,238.424,48.137"/>
	<path d="M241.557,42.049c1.471-0.221,2.942-0.404,6.676-0.419v-1.318c-2.561-0.03-5.014-0.137-7.301-0.312L241.557,42.049z"/>
	<path d="M248.233,32.307c-2.561-0.03-5.015-0.137-7.301-0.312l0.625,2.058c1.471-0.229,2.942-0.411,6.676-0.419V32.307z"/>
	<path d="M250.83,54.522c-5.716,3.247-12.011,5.579-17.048,6.348l4.596,6.874c0.137,0.274,0.396,0.419,0.533,0.419
		c0.351,0,0.412,0,0.625-1.738l0.015-0.145l0.107-0.122c1.364-1.288,2.324-2.241,10.905-11.355L250.83,54.522z"/>
</g>
<g>
	<path fill="#E60039" d="M423.206,27.083c0.556,0,0.556-0.107,0.556-0.221c0-0.229-0.145-0.373-0.503-0.648l-6.097-5.037
		c-0.45-0.396-0.709-0.556-0.891-0.556c-0.084,0-0.297,0.061-0.701,0.655l-2.957,4.481h-7.598v0.617v0.709h8.703H423.206z"/>
	<path fill="#E60039" d="M428.222,39.705L421.82,34.5c-0.35-0.29-0.556-0.45-0.854-0.45c-0.122,0-0.206,0-0.625,0.594l-3.048,4.671
		h-12.277v0.617v0.709h16.491h6.668c0.549,0,0.549-0.145,0.549-0.29C428.724,40.284,428.671,40.086,428.222,39.705"/>
	<path fill="#E60039" d="M419.448,48.941l-5.419-3.955c-0.099-0.061-0.183-0.13-0.274-0.198c-0.229-0.16-0.442-0.32-0.594-0.32
		c-0.16,0-0.259,0.038-0.899,0.953l-2.66,3.475h-23l-8.627-3.605c0.328,1.638,0.754,4.481,0.754,11.439
		c0,0.976-0.084,3.689-0.168,6.356c-0.084,2.553-0.16,5.075-0.16,5.944c0,0.854,0,2.279,2.797,2.279
		c1.128,0,2.667-0.214,3.627-1.227c0.656-0.678,0.96-1.677,0.899-2.965V50.229h24.966v15.12h-21.887v0.617v0.701h21.887v0.45
		c0,2.507,0,3.658,2.667,3.658c2.027,0,4.443-0.633,4.443-3.658c0-1.181-0.099-4.489-0.206-7.682
		c-0.091-3.132-0.19-6.097-0.19-7.141l0.061-0.259l0.175-0.122c2.225-1.722,2.347-1.852,2.347-2.263
		C419.989,49.428,419.699,49.162,419.448,48.941"/>
	<path fill="#E60039" d="M401.928,39.318L401.928,39.318c-0.015-5.228-0.053-20.165,0.007-21.216l0.008-0.236l0.381-0.213
		c0.686-0.389,2.523-1.41,2.523-1.974c0-0.145-0.122-0.206-0.93-0.373l-0.236-0.053l-9.869-1.791
		c0.846,2.782,0.876,3.986,1.052,12.064l0.007,0.236h-12.429l0.046-0.069c1.067-1.6,1.814-2.888,2.766-4.519l0.396-0.671
		l0.114-0.061c0.13-0.053,1.532-0.724,2.317-1.074c0.137-0.053,0.625-0.236,0.625-0.64c0-0.251-0.19-0.358-0.793-0.587l-9.099-3.627
		c0.03,0.244,0.061,0.434,0.061,0.709c0,2.042-2.317,14.068-5.997,21.133c3.422-2.789,6.203-5.769,8.489-9.084l0.13-0.183h13.451
		l0.061,12.231h-17.84c-2.576-0.015-5.266-0.122-7.956-0.32l0.678,2.065c1.631-0.259,3.147-0.419,6.874-0.419h25.164V39.318z"/>
	<path fill="#E60039" d="M398.97,78.784l-0.366-0.251c-0.114-0.076-11.203-7.613-22.139-17.901
		c-14.761-13.885-22.26-25.903-22.26-35.719C354.206,11.18,365.393,0,379.126,0c7.781,0,15.143,3.673,19.844,9.876
		C403.68,3.673,411.026,0,418.807,0c13.748,0,24.92,11.18,24.92,24.912c0,9.816-7.491,21.834-22.253,35.719
		c-10.936,10.288-22.024,17.825-22.131,17.901L398.97,78.784z M379.126,1.318c-13.009,0-23.594,10.585-23.594,23.594
		c0,21.468,39.186,49.307,43.438,52.263c4.26-2.957,43.439-30.796,43.439-52.263c0-13.009-10.593-23.594-23.602-23.594
		c-7.659,0-14.876,3.757-19.296,10.052l-0.541,0.777l-0.541-0.777C394.002,5.075,386.792,1.318,379.126,1.318"/>
</g>
<g>
	<path fill="#E60039" d="M233.363,91.316h-11.927v-2.088h11.927v-4.1h2.263v4.1h8.429v2.088h-8.429v2.766l-0.64,0.434
		c-0.48,0.328-1.014,0.655-1.623,0.998V91.316z"/>
	<path fill="#E60039" d="M228.845,107.927l-0.335-2.134h3.81c0.968,0,1.044-0.373,1.044-0.991v-5.007l-0.313,0.145
		c-4.138,1.928-7.887,2.926-10.73,3.589l-0.808-2.111c5.258-0.968,8.528-2.325,10.547-3.269c0,0,0.762-0.35,1.105-0.526
		c0.975-0.495,1.92-1.044,2.805-1.638c2.096-1.357,3.132-2.553,3.749-3.3l1.799,1.41l-0.015,0.007
		c-0.998,1.052-2.66,2.812-5.769,4.496l-0.107,0.069v7.522c0,1.128-0.732,1.738-2.065,1.738H228.845z"/>
	<polygon fill="#E60039" points="266.719,91.361 267.039,89.281 271.779,89.281 271.779,91.361 	"/>
	<path fill="#E60039" d="M269.13,93.713c1.966-0.808,3.993-1.417,9.328-1.417h0.731l-0.023,2.278
		c-0.556-0.046-1.158-0.061-2.035-0.061c-4.268,0-6.386,0.716-7.308,1.074L269.13,93.713z"/>
	<path fill="#E60039" d="M258.763,106.022c2.24-4.824,3.574-12.224,3.932-14.403l0.038-0.259h-3.49v-2.081H263l0.023-0.198
		c0.198-1.867,0.236-2.278,0.259-2.942l2.393,0.076l-0.251,1.928l-0.511,3.414c-0.038,0.244-0.107,0.648-0.206,1.151
		c-0.29,1.585-1.814,9.602-3.742,14.106L258.763,106.022z"/>
	<path fill="#E60039" d="M275.366,106.789c-2.675,0-8.231,0-8.231-4.389c0-1.707,0.953-3.041,1.921-4.123l1.638,1.174
		c-1.197,1.28-1.448,2.263-1.448,2.873c0,2.355,3.635,2.355,5.182,2.355c1.433,0,3.437-0.038,5.03-0.229l-0.015,2.233
		C278.735,106.751,278.072,106.789,275.366,106.789"/>
	<path fill="#E60039" d="M302.375,106.818c-1.097,0-1.654-0.03-2.165-0.053l-0.434-0.015l-0.419-2.103
		c0.96,0.053,2.096,0.107,3.338,0.107c4.694,0,9.694-0.358,9.694-4.565c0-2.278-1.684-3.688-4.413-3.688
		c-2.18,0-5.121,0.694-6.828,2.652l-0.297,0.762l-2.294-0.48c0.655-1.722,1.128-3.803,1.501-6.478h2.332
		c-0.236,1.524-0.45,2.233-0.625,2.804l-0.168,0.556l0.495-0.297c1.654-1.029,3.902-1.608,6.158-1.608
		c4.893,0,6.63,3.246,6.63,6.028c0,3.734-3.125,5.113-4.077,5.441C308.746,106.575,306.772,106.788,302.375,106.818"/>
	<path fill="#E60039" d="M295.133,91.19V89.17h5.334l0.015-0.198c0.091-1.395,0.084-2.195,0.061-2.919l2.469,0.023
		c-0.023,0.785-0.061,1.6-0.16,2.858l-0.023,0.236h12.346v2.019H295.133z"/>
	<path fill="#E60039" d="M335.876,104.852c-3.064,0-4.664-3.506-4.664-6.965c0-6.364,4.664-10.791,11.355-10.791
		c0.267,0,0.518,0.015,0.762,0.023l-0.175,2.165l-0.03,0.175c-0.411,4.214-0.831,8.528-2.682,12.018
		C339.976,102.329,338.589,104.852,335.876,104.852 M340.479,89.381c-6.668,1.174-7.011,7.598-7.011,8.878
		c0,2.98,1.258,4.306,2.507,4.306c3.452,0,4.481-9.053,4.755-12.948l0.023-0.282L340.479,89.381z"/>
	<path fill="#E60039" d="M341.148,104.616c3.071-0.137,8.932-0.61,8.932-8.299c0-1.715-0.511-5.799-5.182-6.828l0.191-2.18
		c7.095,1.219,7.651,7.4,7.651,9.282c0,6.379-3.696,9.808-10.997,10.22L341.148,104.616z"/>
	<path fill="#E60039" d="M425.245,107.898c-3.917-0.221-7.347-0.93-10.486-2.157c-3.323,1.143-6.828,1.814-10.608,2.004l-0.61-2.058
		c0.328,0.015,0.701,0.03,1.166,0.03c3.231,0,7.034-0.922,7.065-0.937c1.212-0.343,1.631-0.472,2.698-0.907
		c2.164-0.831,3.155-1.669,3.681-2.126l0.465-0.381l-0.533-0.053h-8.467l0.518,0.396c0.373,0.29,0.983,0.709,1.875,1.174
		c-0.213,0.061-0.442,0.114-0.716,0.198l-1.196,0.29c-0.556-0.381-1.044-0.77-1.517-1.212l-0.114-0.107l-0.145,0.076
		c-1.555,0.831-2.728,1.166-3.597,1.395l-0.937-1.715c3.338-0.716,5.144-1.593,7.324-3.536l0.251-0.229l-0.312-0.145
		c-0.564-0.236-0.838-0.694-0.838-1.433V93.99h1.798v1.76c0,0.716,0.442,0.716,0.617,0.716h3.94c0.389,0,0.671-0.244,0.785-0.663
		c0.023-0.069,0.084-0.343,0.137-0.61c0.015-0.114,0.038-0.221,0.061-0.312l1.791,0.259c-0.442,2.484-0.831,2.85-1.958,2.85h-3.65
		l-0.244,0.274c-0.229,0.267-0.51,0.587-1.014,1.036l-0.411,0.389h9.534v1.745c-0.648,0.655-1.783,1.753-4.069,3.003l-0.511,0.282
		l0.564,0.13c3.963,0.884,6.844,0.96,8.459,0.983L425.245,107.898z"/>
	<path fill="#E60039" d="M423.531,98.864c-0.716-1.219-2.423-3.323-3.308-4.29l1.585-1.075c0.404,0.358,0.762,0.701,1.379,1.379
		l0.198,0.229c1.09,1.242,1.562,1.958,1.951,2.591L423.531,98.864z M414.744,95.237c-0.953-1.075-1.219-1.364-1.875-1.989
		l1.28-1.097l0.518,0.434c0.625,0.526,0.754,0.648,1.44,1.387L414.744,95.237z M423.577,94.741v-2.66h-17.726v2.66h-2.058v-4.275
		h3.566c0,0-0.465-1.638-0.61-2.141l-0.038-0.152l-1.959,0.015l-0.434-1.738c3.803,0,14.129-0.038,19.585-1.478l1.128,1.844
		c-0.411,0.099-0.739,0.175-1.585,0.312l-0.122,0.015l-0.046,0.107c-0.297,0.663-0.891,1.76-1.638,2.873l-0.236,0.343h4.192v4.275
		H423.577z M420.505,87.471c-0.754,0.069-3.94,0.35-4.992,0.396l-0.259,0.015l0.046,0.252c0.084,0.35,0.404,1.859,0.45,2.149
		l0.03,0.183h3.406l0.069-0.099c0.389-0.594,0.968-1.631,1.471-2.568l0.206-0.366L420.505,87.471z M413.159,88.012
		c-1.364,0.053-2.721,0.084-4.108,0.107l-0.29,0.008l0.076,0.274c0.335,1.09,0.366,1.242,0.518,1.791l0.038,0.168l0.198,0.107h4.275
		l-0.526-2.462L413.159,88.012z"/>
	<path fill="#E60039" d="M404.169,97.776c1.356-0.953,2.538-2.278,3.414-3.864l1.661,0.648c-0.716,1.532-2.058,3.239-3.529,4.428
		L404.169,97.776z"/>
	<rect x="199.149" y="85.905" fill="#E60039" width="8.733" height="2.042"/>
	<path fill="#E60039" d="M184.802,105.553c8.017-2.385,9.404-7.735,9.869-9.495l0.076-0.274h-8.947v-2.02h9.29l0.015-0.206
		c0.015-0.374,0.038-0.968,0.038-2.164v-3.452h-10.136v-2.035h12.376v5.426c0,1.166-0.053,1.753-0.114,2.18l-0.038,0.251h9.93v2.02
		h-9.244l0.069,0.274c1.082,4.092,4.573,7.377,10.113,9.503l-1.326,2.187c-4.862-2.157-8.558-5.662-10.174-9.656l-0.213-0.534
		l-0.198,0.541c-1.486,4.146-4.862,7.415-10.021,9.724L184.802,105.553z"/>
	<path fill="#E60039" d="M369.689,97.419c3.262-1.92,4.389-3.909,4.641-8.009l0.015-0.229h-7.308v-1.966h10.189v-2.103h2.126v2.103
		h2.728v8.238c0,1.174-0.198,2.439-2.538,2.439h-2.363l-0.48-2.042h2.301c0.32,0,0.991,0,0.991-0.838v-5.83h-3.567v0.213
		c-0.107,2.782-0.785,6.798-5.319,9.686L369.689,97.419z"/>
	<path fill="#E60039" d="M388.183,97.285c-1.86-1.615-3.33-3.566-4.481-5.959l1.875-0.831c0.488,0.8,2.317,3.704,4.245,5.159
		L388.183,97.285z"/>
	<rect x="383.839" y="87.215" fill="#E60039" width="5.83" height="1.974"/>
	<path fill="#E60039" d="M379.528,102.993c-1.349-1.113-2.843-2.042-4.451-2.759l1.204-1.532c1.852,0.854,2.965,1.41,4.466,2.545
		L379.528,102.993z"/>
	<path fill="#E60039" d="M374.557,107.83c-0.968,0-1.806-0.77-1.806-1.638v-4.473h2.004v3.33c0,0.511,0.305,0.701,0.594,0.701h5.129
		c0.884,0,1.341-0.442,1.524-2.865l2.035,0.594c-0.313,2.644-0.564,4.351-2.736,4.351H374.557z"/>
	<path fill="#E60039" d="M387.9,107.154c-0.762-1.676-2.332-4.169-3.872-6.119l1.722-1.151c0.777,0.922,2.82,3.429,4.054,5.982
		L387.9,107.154z"/>
	<path fill="#E60039" d="M366.854,94.963c0.724-0.541,2.065-1.676,3.513-4.42l1.852,0.716c-0.991,2.02-2.202,3.597-3.993,5.197
		L366.854,94.963z"/>
	<path fill="#E60039" d="M366.757,105.941c1.166-1.25,2.202-3.269,2.751-5.35l2.004,0.518c-0.313,1.181-1.219,4.191-2.942,6.226
		L366.757,105.941z"/>
	<rect x="439.647" y="85.76" fill="#E60039" width="9.602" height="1.837"/>
	<path fill="#E60039" d="M459.606,102.846v-7.712h-6.531v2.149h4.778v1.616h-4.778v2.256h4.778v1.692H451.2V89.723h3.803
		l0.053-0.152c0.099-0.328,0.274-1.212,0.381-1.715l0.061-0.259h-5.037V85.76h12.056v1.837h-4.809l-0.046,0.16
		c-0.267,1.044-0.297,1.151-0.488,1.669l-0.107,0.297h4.435v13.123H459.606z M453.075,93.541h6.531v-2.126h-6.531V93.541z"/>
	<polygon fill="#E60039" points="440.263,97.136 440.263,95.475 446.588,95.475 446.588,91.413 442.13,91.413 442.13,93.715 
		440.263,93.715 440.263,89.721 448.455,89.721 448.455,97.136 	"/>
	<path fill="#E60039" d="M448.725,106.186c1.936-0.663,3.681-1.57,5.098-2.66l1.349,1.204c-1.418,1.234-3.772,2.553-5.334,3.155
		L448.725,106.186z"/>
	<path fill="#E60039" d="M461.213,107.957c-1.341-0.907-2.584-2.004-3.681-3.223l1.448-1.151c1.471,1.364,2.187,1.928,3.719,2.705
		L461.213,107.957z"/>
	<path fill="#E60039" d="M439.474,104.899c0.823-0.076,1.844-0.221,4.877-0.815l0.107-0.03l0.053-0.099
		c0.457-0.998,1.28-3.033,1.791-5.578l1.867,0.374c-0.442,2.035-1.25,4.176-1.357,4.405l-0.19,0.404l0.442-0.099
		c1.158-0.29,1.631-0.419,2.21-0.602l0.183,1.821c-2.515,0.861-6.188,1.601-9.496,2.225L439.474,104.899z"/>
	<path fill="#E60039" d="M441.402,102.792c-0.175-1.532-0.358-2.454-0.747-3.917l1.73-0.495c0.381,1.12,0.731,2.675,0.884,3.925
		L441.402,102.792z"/>
	<path fill="#E60039" d="M488.116,101.877c0.671-0.564,1.623-1.471,2.713-3.566l0.061-0.122l-0.084-0.114
		c-1.097-1.41-1.989-2.294-2.728-3.01l1.303-1.09c0.366,0.267,0.831,0.655,2.05,2.073l0.244,0.274l0.122-0.335
		c0.473-1.189,0.762-2.134,1.059-3.132l1.806,0.655c-0.19,0.831-0.564,2.362-1.509,4.458l-0.053,0.114l0.084,0.107
		c1.151,1.562,1.578,2.355,1.966,3.17l-1.471,1.341c-0.328-0.655-0.754-1.501-1.379-2.454l-0.19-0.297l-0.175,0.297
		c-0.914,1.509-1.638,2.248-2.332,2.942L488.116,101.877z"/>
	<path fill="#E60039" d="M491.108,90.319c-0.16-1.981-0.503-3.429-1.136-4.77l2.081-0.335c0.625,1.638,0.96,3.742,1.074,4.824
		L491.108,90.319z"/>
	<path fill="#E60039" d="M479.298,107.98l-0.221-2.088h1.638c0.732,0,0.793-0.374,0.793-0.869v-17.33h-2.675v4.253h0.907v1.745
		h-0.907v4.542h0.907v1.738h-1.014l-0.023,0.206c-0.297,4.275-0.922,6.013-1.722,7.606l-1.395-1.989
		c1.425-3.231,1.425-5.563,1.425-8.253V85.91h6.325v20.157c0,1.288-0.671,1.913-2.058,1.913H479.298z"/>
	<path fill="#E60039" d="M494.8,90.915c0.968-1.844,1.463-3.048,2.187-5.228l1.898,0.876c-0.77,2.172-1.067,2.812-2.324,5.22
		L494.8,90.915z"/>
	<rect x="496.163" y="93.914" fill="#E60039" width="1.936" height="14.068"/>
	<polygon fill="#E60039" points="485.221,107.98 485.221,93.912 487.188,93.912 487.188,104.947 494.397,104.947 494.397,106.844 
		487.188,106.844 487.188,107.98 	"/>
	<path fill="#E60039" d="M486.926,91.45c-0.396-1.242-0.861-2.309-2.141-4.443l1.913-0.709c1.021,1.715,1.509,2.782,2.065,4.527
		L486.926,91.45z"/>
	<path fill="#E60039" d="M517.981,107.959v-3.97h-5.51v-1.913h5.51v-2.431h-4.542v-9.9h7.933l0.076-0.107
		c0.61-0.983,1.509-2.705,2.035-4.397l2.012,0.716c-0.739,1.57-1.433,2.736-1.898,3.452l-0.221,0.335h1.136v9.9h-2.904v-1.593h1.128
		v-2.721h-1.128v-1.417h1.128v-2.629h-2.904l0.084,10.791h5.403v1.913h-5.403v3.97H517.981z M515.199,98.052h2.881v-2.713h-2.881
		V98.052z M515.199,93.914h2.881v-2.629h-2.881V93.914z"/>
	<path fill="#E60039" d="M533.246,90.155c-0.495-1.014-1.745-3.018-2.187-3.681l1.532-0.976c0.686,0.808,1.905,2.667,2.309,3.635
		L533.246,90.155z"/>
	<path fill="#E60039" d="M518.302,88.608c-0.153-1.113-0.328-1.943-0.762-3.406l1.966-0.244c0.396,1.25,0.556,2.004,0.823,3.391
		L518.302,88.608z"/>
	<path fill="#E60039" d="M528.706,99.488c-0.305-1.775-0.503-3.658-0.587-5.601l-0.007-0.236l-2.591,0.206v-2.012l2.553-0.175
		c0,0-0.084-6.142-0.091-6.615h1.875c0,2.324,0.008,4.191,0.114,6.272v0.221l5.297-0.373v1.997l-5.236,0.366l0.008,0.213
		c0.038,1.021,0.122,2.065,0.259,3.262c-0.206,0.32-0.549,0.922-0.8,1.334C529.263,98.733,529.026,99.084,528.706,99.488"/>
	<path fill="#E60039" d="M514.186,89.091c-0.495-1.28-0.831-1.951-1.463-3.01l1.783-0.747c0.564,0.808,1.227,2.019,1.631,2.972
		L514.186,89.091z"/>
	<path fill="#E60039" d="M533.284,107.957c-1.776,0-3.041-2.911-3.391-3.803l-0.122-0.312l-0.236,0.236
		c-1.776,1.791-3.407,2.812-4.359,3.391l-1.433-1.722c1.227-0.61,3.155-1.638,5.236-3.856c0.907-1.021,1.455-1.677,2.012-2.637
		c0.297-0.45,0.846-1.478,0.846-1.478c0.526-1.036,0.876-1.974,1.135-2.705l1.738,0.861c-0.975,2.438-1.928,4.146-3.338,6.013
		l-0.076,0.091l0.046,0.114c0.975,2.66,1.334,2.865,1.6,2.865c0.366,0,0.534-0.495,0.625-0.739c0.061-0.214,0.16-0.754,0.267-1.273
		c0.061-0.32,0.122-0.625,0.168-0.861l1.654,0.96C535.112,106.326,534.32,107.957,533.284,107.957"/>
	<path fill="#E60039" d="M164.277,98.617c-0.877,0-2.248-0.343-4.291-1.082l-0.229-0.068c-2.82-0.998-4.382-1.547-5.624-1.547
		c-2.012,0-3.536,1.036-4.397,1.646l-0.107-0.145c2.256-2.294,4.016-3.269,5.891-3.269c0.899,0,2.263,0.343,4.313,1.082l0.206,0.068
		c2.835,0.998,4.397,1.555,5.655,1.555c1.997,0,3.529-1.044,4.39-1.654l0.099,0.145C167.927,97.642,166.16,98.617,164.277,98.617"/>
	<path fill="#E60039" d="M564.451,98.617c-0.884,0-2.248-0.343-4.291-1.082l-0.229-0.068c-2.82-0.998-4.382-1.547-5.632-1.547
		c-2.012,0-3.536,1.036-4.39,1.646l-0.114-0.145c2.256-2.294,4.024-3.269,5.898-3.269c0.892,0,2.256,0.343,4.313,1.082l0.206,0.068
		c2.835,0.998,4.397,1.555,5.647,1.555c2.004,0,3.528-1.044,4.39-1.654l0.107,0.145C568.101,97.642,566.326,98.617,564.451,98.617"
		/>
</g>
</svg>
