<?xml version="1.0" encoding="utf-8"?>
<!-- Generator: Adobe Illustrator 27.1.1, SVG Export Plug-In . SVG Version: 6.00 Build 0)  -->
<svg version="1.1" id="레이어_1" xmlns="http://www.w3.org/2000/svg" xmlns:xlink="http://www.w3.org/1999/xlink" x="0px"
	 y="0px" viewBox="0 0 720 304.258" enable-background="new 0 0 720 304.258" xml:space="preserve">
<path fill="#006A79" d="M438.264,133.247c12.374-0.123,25.862,9.903,13.105,27.695c-4.653,6.497-38.855,55.917-44.397,63.998
	c-5.642,8.216-14.139,18.377-31.661,18.377h-24.738c-3.305,0-5.272,0.371,0.123-7.351c2.394-3.428,17.893-30.504,19.726-33.696
	c1.832-3.181,2.574-1.102,3.923,1.349c1.349,2.45,6.608,2.09,10.037-3.305c3.439-5.395,25.255-36.315,25.255-36.315
	s-9.689-0.023-12.015-0.123c-2.81-0.113-3.305,0.742-4.282,2.338c-0.978,1.585-34.079,48.813-39.957,55.422
	c-9.801,11.026-29.931,22.423-51.129,21.928c-3.428-0.078-15.196,0-18.5,0s-2.822-0.854-0.618-3.923
	c2.214-3.057,23.772-34.056,25.367-36.506c1.596-2.45,2.45-1.72,3.676,0.607c1.225,2.326,1.472,2.09,3.799,2.09
	c11.52,0,16.702-6.497,20.13-11.037c3.428-4.529,18.725-26.233,20.22-28.301c2.203-3.057,2.9-2.293-0.775-2.293h-18.703
	c-2.945,0-3.552-0.359-0.978-3.676c2.574-3.304,18.174-26.626,19.894-28.829L438.264,133.247z"/>
<path fill="#006A79" d="M436.18,126.711h15.443c2.203,0,2.686-0.494,3.799-1.955c1.102-1.473,14.207-20.962,15.185-22.311
	c0.989-1.337,1.225-2.45-1.832-2.45h-13.971c-1.832,0-2.327,0-3.676,1.967c-1.349,1.956-14.578,19.726-15.443,20.951
	C434.83,124.138,432.751,126.711,436.18,126.711"/>
<path fill="#006A79" d="M475.88,100.245h18.017c2.81,0,3.058,1.473,1.225,2.698c-1.843,1.225-3.923,0.606-6.62,4.777
	c-1.428,2.203-11.026,14.949-12.128,16.545c-1.113,1.585-1.225,2.203-3.798,2.203h-14.095c-1.843,0-3.428,0-1.349-2.944
	c2.079-2.933,14.095-20.456,15.196-21.805C473.43,100.369,474.037,100.245,475.88,100.245"/>
<path fill="#006A79" d="M459.177,154.158c2.81-3.63,23.355-33.82,24.952-36.022c1.596-2.203,1.596-1.956,6.249-1.956h44.16
	c3.181,0,4.406,1.708,0.978,3.057s-4.485,1.731-7.193,6.25c-2.945,4.9-20.097,28.054-21.569,30.268
	c-1.472,2.203-1.225,2.574-5.631,2.574h-39.002C459.053,158.328,455.378,159.059,459.177,154.158"/>
<path fill="#006A79" d="M529.346,135.247h32.55c2.225,0,5.878,1.607-0.281,3.653c-2.754,0.922-2.776,1.417-4.62,4.227
	c-1.832,2.821-48.522,70.506-57.344,81.779c-8.823,11.262-22.951,18.703-37.821,18.703h-55.052c-8.823,0-12.094,0.809-4.912-8.498
	c9.194-11.902,21.906-30.875,24.671-34.966c2.787-4.08,2.102-0.146,2.776,1.629c0.82,2.136,1.315,3.271,6.699,3.271h30.392
	c9.801,0,15.196-8.486,19.444-14.532c2.822-4.012,36.147-49.387,37.776-51.995C525.255,135.9,526.727,135.247,529.346,135.247"/>
<path fill="#006A79" d="M628.717,125.078h14.499c2.203,0,2.697-0.494,3.799-1.955c1.101-1.473,13.645-19.94,14.622-21.288
	c0.978-1.349,1.225-2.45-1.843-2.45h-14.207c-1.843,0-2.327,0-3.676,1.967c-1.349,1.956-12.824,18.703-13.689,19.928
	C627.368,122.505,625.289,125.078,628.717,125.078"/>
<path fill="#006A79" d="M666.782,99.143h18.871c2.822,0,3.305,1.473,1.473,2.698c-1.843,1.225-4.417,1.101-7.115,5.271
	c-1.416,2.203-10.082,13.926-11.183,15.511c-1.101,1.596-0.618,2.214-3.192,2.214h-16.747c-1.832,0-3.428,0-1.349-2.944
	c2.091-2.945,14.589-19.928,15.69-21.277C664.332,99.267,664.939,99.143,666.782,99.143"/>
<path fill="#006A79" d="M628.797,132.516c-6.856,0-16.331,0.158-16.331,0.158s6.204-7.834,8.655-10.947
	c2.45-3.102,2.776-2.776,5.721-4.08c2.945-1.303,2.608-2.944,0.157-2.944h-36.753c-2.293,0-2.45,0-4.417,2.776
	C583.872,120.266,561,154.726,561,154.726l-2.945-0.157c-1.135-3.102-2.125-3.754-3.754-1.304
	c-0.978,1.461-18.467,25.323-20.917,28.751c-2.45,3.429-1.461,4.08,2.125,4.406c5.552,0.506,13.397,0.202,21.726-1.259
	c-0.81,1.956-2.608,4.732-3.586,6.204c-2.023,3.035-3.428,3.754,1.225,3.754h26.053c-3.754,8.014-12.745,8.992-17.152,8.992h-30.628
	c-2.945,0-3.597-0.494-4.9-1.629c-1.315-1.146-2.293-3.44-4.912,0.157c-2.607,3.597-18.871,27.975-23.772,34.674
	c-4.901,6.699-2.282,5.518,3.597,5.518h53.669c18.95,0,33.337-10.419,39.372-18.59c6.272-8.463,36.192-50.724,45.509-63.796
	C653.85,143.408,642.846,132.516,628.797,132.516 M598.697,167.966H587.3l5.271-7.351h11.521L598.697,167.966z"/>
<path fill="#006A79" d="M677.338,115.325h40.204c3.766,0,2.743,2.642-1.011,3.462c-3.507,0.764-4.575,3.069-6.699,6.182
	c-2.125,3.102-56.356,78.272-56.356,78.272h29.773v-42.148c0,0,30.549-0.169,34.303-0.169c3.755,0,2.776,2.776-0.157,3.766
	c-2.945,0.978-2.776,1.798-2.776,3.754v68.775c0,3.923-1.146,4.001-4.001,4.001H618.87c-11.599,0-21.805-12.959-13.892-24.255
	C615.273,202.264,677.338,115.325,677.338,115.325"/>
<path d="M65.237,120.458c-3.349-3.181-6.485-6.778-7.598-8.16c-0.685-0.865-0.764-0.933-0.034-1.798
	c3.012-3.642,4.204-6.25,5.586-8.868c0.629-1.18,1.349-2.248-0.888-2.248h-6.418c-1.832,0-1.63,0.123-2.653,1.764
	c-1.349,2.158-1.225,2.203-1.955,0.528c-0.292-0.652-0.865-1.955-1.315-3.068c-0.45-1.102,0-0.911,1.023-0.911h11.992
	c1.439,0,1.506-0.112,1.506-2.045v-4.945c0-1.933,0.18-1.933-2.057-1.933c-1.315,0-0.989,0.202-0.989-2.54
	c0-1.349,0.09-1.473-1.101-1.473H51.48c-1.641,0-1.394,0.248-1.394,2.822c0,1.192,0.068,1.192-1.315,1.192
	c-1.394,0-1.214,0-1.214-2.17c0-2.326-0.495-2.36,2.034-2.36h13.173c1.124,0,1.394-0.416,1.394-1.394v-8.351
	c0-1.236-0.259-1.551-1.54-1.551h-4.046c-0.337,0-0.607-0.012-0.82-0.023c1.933-4.17,4.99-10.678,5.204-11.15
	c0.303-0.674,1.068-2.057-0.652-2.057h-4.811c-0.978,0-0.978,0-1.888,1.866c-0.494,1-0.337,1.045-0.618,0.865
	c-0.281-0.191-0.079-0.315,0.202-0.967c0.292-0.652,2.54-5.024,3.024-6.002c0.663-1.326,0.944-1.911-0.652-1.911h-4.001
	c-1.798,0-2.001,0.359-2.405,1.214c-0.393,0.809-2.327,5.148-3.641,7.733v-7.857c0-0.978-0.405-1.09-1.383-1.09h-6.867
	c-1.27,0-1.135,0.933-1.135,1.764v31.1c0,1.562,0.169,2.372-0.978,2.372H21.38c-0.54,0-0.663-0.124-0.663-0.945
	c0-0.584-0.011-1.618-0.011-2.383c0-0.978,0.067-1.236,1.169-1.236h13.813c1.809,0,1.809-0.697,1.809-2.203v-7.25
	c0-1.596-0.337-1.776-1.169-1.776h-4.282c-0.281,0-0.528-0.011-0.753-0.011c1.821-4.114,4.563-10.228,5.035-11.082
	c1.001-1.798,1.012-2.203-0.337-2.203H31.62c-1.237,0-1.326-0.157-2.428,1.81c-0.843,1.506-0.731,1.528-0.944,1.371
	c-0.191-0.135-0.213-0.124,0.461-1.405c0.202-0.405,2.518-4.845,3.181-6.126c0.495-0.955,0.888-1.798-0.731-1.798h-4.878
	c-1.034,0-1.281,0.495-1.652,1.292c-0.371,0.798-3.585,7.609-4.159,8.745c-1.102,2.203-1.012,2.372-0.281,3.428
	c0.371,0.539,2.574,4.091,2.821,4.417c0.899,1.18,0.731,1.551,0.157,2.821c-0.292,0.641-2.45,5.463-2.933,6.575
	c-0.393,0.877-0.574,1.382-1.225,1.382h-1.911c-0.764,0-0.708-0.18-0.708-0.888v-2.754c0-0.641,0.427-0.731,0.82-0.731
	c0.495,0,1.551-0.034,2.248-0.034c0.697,0,0.978-0.45,0.978-1.147v-6.935c0-1.753,0.079-1.753-2.776-1.753
	c-1.675,0-1.371-0.091-1.371-1.63c0-3.058,0.068-8.329,0.068-10.903c0-1.483-0.517-1.9-1.574-1.9H8.466
	c-1.056,0-1.573,0.416-1.573,1.9c0,2.574,0.068,7.845,0.068,10.903c0,1.63-0.191,1.63-0.899,1.63H1.228
	c-1.169,0-1.315,1.011-1.192,1.933c0.18,1.337,0.113,5.934,0.113,6.8c0,1.157,0.405,1.135,1.326,1.135h3.979
	c0.731,0,1.045-0.102,0.438,1.764c-0.899,2.765-2.698,6.036-4.001,7.834c-2.023,2.787-1.675,2.866-1.63,4.574
	c0.034,1.72,0.281,12.217,0.359,14.544c0.079,1.922,1.023,1.472,1.72,0.573c1.315-1.697,3.226-5.069,4.62-7.44
	c0.607,1.72,0.326,14.421,0.607,21.546c0.034,0.799,0.247,1.045,0.854,1.045h7.755c0.888,0,0.82-0.618,0.82-1.956
	c0-1.382-0.359-26.717-0.359-27.908c0-0.528,0.123-0.495,0.82-0.495c0.776,0,0.922-0.034,0.922,0.337v4.316
	c0,1.011,0.304,1.101,1.012,1.101h1.719c1.495,0,1.439-0.022,1.034,2.012c-0.292,1.506-3.642,17.613-4.282,20.355
	c-0.517,2.203-0.427,2.236,0.944,2.236h8.059c1.776,0,1.843-0.618,2.147-2.023c0.304-1.405,0.989-5.631,1.102-6.8
	c0.18-1.956,0.731-1.225,1.472-0.922c0.731,0.315,3.81,1.866,4.957,2.394c1.719,0.798,1.596,0.18,2.023-1.472
	c0.281-1.091,0.742-4.091,0.922-5.631c0.247-2.023,0.18-2.147-1.405-2.888c-0.877-0.394-4.237-2.327-5.215-2.81
	c-0.877-0.45-0.731-0.551-0.427-2.214c0.371-1.978,0.618-2.237,1.776-2.237h4.226c1.551,0,1.349,0,1.798,1.203
	c0.281,0.719,2.945,8.654,3.641,10.003c0.843,1.641,1.102,1.967-0.123,3.102c-2.72,2.54-7.8,6.373-12.094,8.452
	c-2.068,1.012-0.731,1.843,0.528,1.843h12.914c1.675,0,2.158-0.281,3.956-2.079c1.776-1.776,1.304-1.551,2.776,0.405
	c1.225,1.629,1.551,1.675,2.214,1.675c0.652,0,7.306,0.169,8.576,0C66.372,121.818,66.058,121.245,65.237,120.458 M56.178,76.354
	c0.067-0.191,0.382-0.854,0.82-1.798c0,0.506,0.011,1.034,0.011,1.517c0,0.888,0.27,1.056-0.427,1.056
	C55.886,77.129,55.931,76.938,56.178,76.354 M29.653,76.781c0.034-0.102,0.27-0.641,0.629-1.472
	c0.023,1.629,0.045,1.865-0.259,1.865C29.529,77.174,29.495,77.242,29.653,76.781 M47.512,67.171
	c0.629,0.945,1.866,2.765,2.54,3.755c0.674,1,0.562,1.36,0,2.45c-0.584,1.102-1.54,3.204-1.843,3.878
	c-0.495,1.056-0.697,1.675-0.697-0.595V67.171z"/>
<path d="M129.158,63.373h-8.745c-0.978,0-0.854-0.157-0.854-0.854v-8.34c0-0.944-0.326-1.225-1.102-1.225h-7.755
	c-0.978,0-1.281,0.764-1.281,1.528s-0.123,7.665-0.123,8.284c0,0.607,0,0.641-0.461,0.641h-4.192c-0.337,0-0.427,0.056-0.427-0.281
	c0-0.641-0.529-1.169-2.361-1.169H92.91c-0.495,0-0.618-0.248-0.618-0.618c0-0.36,0.067-0.427,0.798-0.551
	c0.742-0.123,7.969-0.427,9.138-0.607c0.899-0.146,1.528-0.551,1.528-1.843v-4.597c0-1.225-0.427-1.528-1.967-1.461
	c-1.529,0.056-25.975,1.405-27.751,1.585c-1.776,0.191-2.27,0.248-2.27,1.54c0,1.124,0,4.956,0.034,5.361
	c0.034,0.393,0.281,0.944,0.854,0.91c0.584-0.023,10.026-0.303,10.296-0.303c0.281,0,0.213,0,0.213,0.247
	c0,0.248,0.09,0.27-0.202,0.27H72.432c-0.776,0-0.989,0.292-0.989,1.023v5.924c0,1.023,0.45,1.427,1.191,1.427h10.329
	c0.54,0,0.45,0,0.45,0.742c0,0.731-0.034,0.731-0.573,0.731h-9.149c-1.135,0-1.551,0.652-1.551,1.742v25.997
	c0,1.135,0.528,2.125,1.394,2.125h9.846c0.449,0,0.404,0,0.404,0.731c0,0.63,0.011,0.607-0.528,0.607h-9.801
	c-1.192,0-1.596,0.742-1.596,1.27v5.642c0,1.18,1.023,1.225,1.63,1.225h9.722c0.45,0,0.573,0.078,0.573,0.483
	c0,0.416,0.045,0.652-0.247,0.742c-0.472,0.134-9.598,1.135-10.824,1.349c-1.225,0.202-1.349,0.528-1.349,1.225
	c0,0.685,0.168,4.529,0.247,6.328c0.079,1.798,1.056,1.303,2.327,1.146c1.27-0.169,21.164-2.821,24.053-3.237
	c0.573-0.078,0.697-0.078,0.54,0.292c-0.169,0.371-0.45,1.181-0.663,1.551c-0.382,0.697-0.157,1.349,1.27,1.349h8.542
	c1.956,0,2.36-0.955,2.731-1.798c7.193-16.028,8.542-37.473,9.116-46.476c0.022-0.416,0.022-0.371,0.528-0.371
	c0.731,0,0.573,0,0.573,0.945c0,0.606,0.405,35.247,0.405,35.933c0,0.697-0.326,0.866-0.978,0.866h-3.069
	c-0.899,0-1.135,0.899-1.135,1.63s0.123,7.025,0.123,7.845c0,0.809,0.236,1.427,1.012,1.427h12.341c1.259,0,1.349-0.652,1.349-1.349
	V65.329C130.675,64.385,130.225,63.373,129.158,63.373 M83.48,92.371c0,0.213-0.101,0.438-0.405,0.438h-1.495
	c-0.247,0-0.438-0.034-0.438-0.438v-1.709c0-0.247,0.213-0.46,0.551-0.46h1.326c0.461,0,0.461,0.27,0.461,0.517V92.371z
	 M83.48,82.076c0,0.213-0.101,0.449-0.405,0.449h-1.495c-0.247,0-0.438-0.045-0.438-0.449v-1.708c0-0.248,0.213-0.461,0.551-0.461
	h1.326c0.461,0,0.461,0.27,0.461,0.517V82.076z M92.843,70.262h9.441c0.529,0,0.45,0,0.45,0.742c0,0.731-0.045,0.731-0.573,0.731
	h-9.194c-0.54,0-0.573,0-0.573-0.731C92.393,70.262,92.303,70.262,92.843,70.262 M92.146,80.367c0-0.248,0.213-0.461,0.551-0.461
	h1.315c0.461,0,0.461,0.27,0.461,0.517v1.652c0,0.213-0.09,0.449-0.393,0.449h-1.506c-0.247,0-0.427-0.045-0.427-0.449V80.367z
	 M92.146,92.371v-1.709c0-0.247,0.213-0.46,0.551-0.46h1.315c0.461,0,0.461,0.27,0.461,0.517v1.653c0,0.213-0.09,0.438-0.393,0.438
	h-1.506C92.326,92.81,92.146,92.776,92.146,92.371 M105.431,103.105c-0.45,1.596-0.821,1.799-0.821,0.855
	c0-0.652-0.371-1.023-1.596-1.023H93c-0.528,0-0.517,0.023-0.517-0.607c0-0.731-0.045-0.731,0.404-0.731h10.048
	c0.697,0,0.865-0.326,0.865-1.394v-0.078c0-1.192-0.326-24.222-0.326-25.244c0-1.023,0.079-1.225,0.933-1.225h4.046
	c0.484,0,0.652,0.045,0.652,0.82C109.084,84.132,108.623,91.764,105.431,103.105"/>
<path d="M140.943,52.887h6.125c1.045,0,1.708,0.563,1.967,1.9c0.236,1.281,0.731,5.822,0.854,7.047
	c0.123,1.225,0.18,1.956-1.101,1.9c-1.293-0.067-6.25,0-6.924,0s-1.102-0.303-1.416-1.776c-0.304-1.472-0.855-6.125-0.978-7.115
	C139.347,53.865,139.414,52.887,140.943,52.887"/>
<path d="M191.773,65.324h5.675c1.304,0,1.72-0.37,1.72-2.169v-9.182c0-0.899-0.495-1.517-1.225-1.517h-6.125
	c-1.551,0-1.764,0.899-1.764,1.764v9.722C190.054,64.83,190.379,65.324,191.773,65.324"/>
<path d="M202.11,119.316c-5.069-6.407-6.744-9.711-9.644-16.859c-0.438-1.09-0.281-1.225,0.304-2.304
	c3.215-5.811,5.271-11.644,6.002-13.566c0.595-1.551-0.056-2.057-0.888-2.057h-6.058c-0.866,0-1.653,0.247-1.81,0.708
	c-0.158,0.461-0.495,1.281-0.641,1.742c-0.158,0.461-0.213,1.079-0.405-0.056c-0.067-0.46-0.574-5.237-0.607-5.575
	c-0.034-0.337-0.157-0.461,0.394-0.461h9.104c0.82,0,1.315-0.641,1.315-1.506v-7.621c0-0.888-0.584-1.416-1.405-1.416h-9.037
	c-0.989,0-0.956-0.427-0.956-0.944c0-0.528-0.078-14.982-0.078-15.736c0-0.742-0.596-1.146-1.147-1.146h-8.205
	c-0.551,0-0.888,0.281-0.888,0.888v16.287c0,0.685-0.191,0.652-0.528,0.652h-2.507c-0.528,0-0.528-0.427-0.528-0.888v-3.822
	c0-0.584-0.303-1.045-0.641-1.045h-1.922c-0.529,0-0.584-0.09-0.371-0.618c0.213-0.517,3.945-8.935,4.44-9.981
	c0.494-1.056,0.393-1.528-0.551-1.528h-7.778c-0.584,0-1.63-0.123-2.09,0.933c-0.383,0.854-2.192,5.507-3.339,8.407
	c-0.123-1.259-0.606-5.743-0.854-7.013c-0.259-1.338-0.921-1.9-1.956-1.9H152.7c-1.528,0-1.585,0.978-1.461,1.956
	c0.123,0.978,0.674,5.642,0.978,7.115c0.304,1.461,0.731,1.775,1.405,1.775s5.642-0.067,6.924,0c0.134,0,0.236-0.011,0.337-0.011
	c-0.045,0.113-0.09,0.213-0.123,0.281c-0.213,0.506-0.303,0.584-0.641,0.584h-18.871c-1.349,0-1.866,0.799-1.866,1.866v30.178
	c0,1.192,0.517,1.405,1.225,1.405h10.385c0.484,0,0.551,0.281,0.551,0.551v0.854c0,0.281-0.034,0.472-0.427,0.495
	c-1.102,0.045-11.273,0.427-11.768,0.427c-0.484,0-1.045,0.123-1.045,0.742v7.766c0,0.911,0.067,1.383,0.865,1.383
	c0.799,0,11.33-0.45,11.88-0.45c0.551,0,0.742-0.123,0.742,0.731v9.891c0,0.989,0.359,1.472,1.191,1.472h8.16
	c0.281,0,0.528-0.112,0.596-0.573c0.517,0.303,1.461,0.405,1.809,0.405h11.69c1.303,0,1.337-0.045,2.158-0.742
	c2.698-2.247,5.721-5.833,6.418-6.732c0.697-0.899,0.731-0.573,0.978,0.079c0.248,0.652,1.675,4.372,2.372,5.8
	c0.686,1.428,0.899,1.394,2.125,1.394c1.225,0,11.554,0.034,12.656,0C203.043,121.485,203.627,121.249,202.11,119.316
	 M151.981,87.98c0,0.494-0.292,0.753-0.742,0.753h-1.607c-0.528,0-0.574-0.506-0.574-0.831v-1.292c0-0.54,0.202-0.82,0.528-0.82
	h1.765c0.37,0,0.629,0.157,0.629,0.629V87.98z M151.981,76.954c0,0.495-0.292,0.742-0.742,0.742h-1.607
	c-0.528,0-0.574-0.495-0.574-0.82v-1.303c0-0.528,0.202-0.809,0.528-0.809h1.765c0.37,0,0.629,0.157,0.629,0.63V76.954z
	 M161.726,75.572c0-0.528,0.202-0.809,0.54-0.809h1.753c0.37,0,0.629,0.157,0.629,0.63v1.562c0,0.495-0.281,0.742-0.742,0.742
	h-1.607c-0.528,0-0.574-0.495-0.574-0.82V75.572z M161.726,87.901v-1.292c0-0.54,0.202-0.82,0.54-0.82h1.753
	c0.37,0,0.629,0.157,0.629,0.629v1.563c0,0.494-0.281,0.753-0.742,0.753h-1.607C161.771,88.733,161.726,88.227,161.726,87.901
	 M179.766,103.636c-5.148,6.295-9.284,10.802-17.5,16.241c-0.214,0.146-0.36,0.27-0.495,0.394v-9.868
	c0-0.764-0.034-1.012,0.798-1.035c1.259-0.034,10.756-0.404,11.431-0.438c0.73-0.034,0.82-0.55,0.82-1.472
	c0-0.91,0.067-5.957,0.067-6.879c0-0.91-0.405-1.495-1.326-1.472c-0.911,0.034-10.442,0.405-11.386,0.405
	c-0.461,0-0.529-0.18-0.529-0.674c0-0.799,0-0.799,0.675-0.799h10.879c0.584,0,0.674-0.551,0.641-1.349
	c-0.056-1.405,0-14.184,0-14.915c0-0.742,0.09-0.888,0.371-0.888h2.686c0.539,0,0.989-0.213,0.989,0.854
	c0,1.473,1.889,16.287,2.406,18.501C180.867,102.692,180.72,102.468,179.766,103.636"/>
<path d="M207.446,64.221h21.501c0.832,0,1.506,0,1.506-1.045v-9.801c0-0.922,0.483-1.158,1.157-1.158h10.813
	c1.135,0,1.382,0.394,1.382,1.349v9.857c0,0.517,0.123,0.798,0.764,0.798h21.659c0.405,0,0.854,0,0.854,0.709v8.969
	c0,0.618-0.607,1.596-1.315,1.596H244.48c-0.394,0-0.674,0.034-0.674,0.55v31.921c0,0.427,0.023,0.776,0.348,0.776h19.927
	c1.315,0,1.619,0.382,1.619,1.618v8.452c0,0.606-0.112,1.225-1.124,1.225H210.75c-1.011,0-1.349-0.247-1.349-1.168v-8.52
	c0-0.91,0.607-1.551,1.843-1.551h18.535c0.674,0,0.674-0.18,0.674-0.921V76.26c0-0.764-0.248-0.809-0.809-0.809H207.57
	c-0.854,0-1.012-0.348-1.012-1.124V64.93C206.558,64.436,206.704,64.221,207.446,64.221"/>
<path d="M108.943,42.982c1.719-2.99,21.242-37.248,22.221-39.046c0.978-1.798,1.135-2.461,5.181-2.45
	c21.861,0.078,104.247,0.134,183.801-0.248c82.971-0.393,162.806-1.225,164.683-1.225c2.933,0,2.405,0.978,0.775,2.372
	c-1.393,1.181-69.191,61.942-139.854,126.288c-77.8,70.843-159.152,145.901-160.951,147.452c-3.428,2.933-4.001,2.495,0.416,2.529
	c36.54,0.236,191.534-1.843,209.675-2.45c14.454-0.494,42.52,0.855,64.324-27.941c2.316-3.058,2.45-3.676,6.003-3.676h16.061
	c4.159,0,3.181,2.237,2.203,3.676c-3.676,5.395-33.573,48.397-35.046,50.365c-1.472,1.955-1.101,2.81-6.497,2.81
	c-18.747,0-372.12,2.821-374.087,2.821c-1.956,0-3.54-0.326-0.809-2.821c60.357-55.052,162.997-149.475,193.838-177.417
	c55.715-50.488,107.158-97.346,108.8-98.886c1.225-1.146,1.191-0.945-1.259-0.945c-2.698,0-192.737,0.495-198.379,0.495
	c-5.631,0-24.097-0.022-41.497,19.029c-1.708,1.889-2.124,2.54-3.675,2.54c-1.473,0-13.645-0.078-15.354-0.078
	C107.796,46.175,107.065,46.253,108.943,42.982"/>
<path fill="#FFE100" d="M232.374,125.241h20.096c1.799,0,2.023,0.945,0.326,2.45c-2.866,2.529-183.227,165.66-191.725,173.506
	c-1.18,1.102-2.596,3.035-4.923,3.035H37.693c-1.709,0-2.956-0.169-1.034-1.989c7.036-6.676,183.138-167.122,189.915-172.921
	C230.923,125.612,230.744,125.241,232.374,125.241"/>
<path fill="#FFE100" d="M495.729,0.015h17.522c3.248,0,2.877,1.113,0.978,2.63c-1.529,1.225-89.816,80.633-94.469,84.859
	c-2.136,1.944-3.057,3.18-5.721,3.18h-17.433c-1.439,0-2.326-0.809-0.899-2.158c1.428-1.349,95.436-85.938,96.841-87.252
	C494.133-0.232,494.414,0.015,495.729,0.015"/>
<path d="M361.11,122.464c0,0,14.375-0.078,15.6-0.078c1.225,0,1.473,0.157,2.529-1.315c1.067-1.461,10.25-14.51,10.79-15.354
	c0.978-1.551,1.955-1.551,3.923-1.551c1.955,0,35.607-0.18,38.147-0.247c3.259-0.079,3.338,1.203,0.483,2.45
	c-6.699,2.944-6.608,1.472-15.432,14.622c-0.472,0.697-0.495,0.82,0.573,0.82c1.629,0,15.758-0.09,19.433-0.123
	c12.374-0.123,25.862,9.902,13.117,27.694c-4.665,6.486-39.26,56.738-44.812,64.819c-5.631,8.205-14.128,18.377-31.651,18.377
	h-22.546c-3.305,0-5.271,0.37,0.123-7.351c2.394-3.428,17.894-30.515,19.726-33.696c1.843-3.192,2.574-1.101,3.923,1.349
	c1.349,2.45,4.406,2.079,7.845-3.315c3.428-5.395,26.099-36.754,26.099-36.754s-9.678-0.022-12.015-0.123
	c-2.81-0.123-3.304,0.731-4.282,2.327c-0.978,1.596-34.921,49.263-40.8,55.871c-9.812,11.026-26.964,22.424-48.161,21.94
	c-3.428-0.079-15.196,0-18.5,0c-3.305,0-2.822-0.866-0.607-3.923c2.203-3.069,23.761-34.067,25.356-36.518
	c1.596-2.45,2.45-1.719,3.676,0.618c1.225,2.327,1.472,2.08,3.799,2.08c11.52,0,13.724-6.497,17.152-11.026
	c3.439-4.541,18.736-26.233,20.219-28.301c2.203-3.069,3.069-2.945-0.606-2.945h-16.421c-2.945,0-3.552-0.37-0.978-3.675
	c2.574-3.305,18.006-25.975,19.726-28.178C358.244,118.744,358.829,118.216,361.11,122.464"/>
<path d="M434.832,116.419h14.701c2.203,0,2.697-0.494,3.799-1.955c1.101-1.473,15.443-22.547,16.421-23.896
	c0.978-1.349,1.225-2.45-1.843-2.45h-13.96c-1.843,0-2.327,0-3.676,1.955c-1.349,1.967-15.072,21.322-15.937,22.547
	C433.483,113.845,431.404,116.419,434.832,116.419"/>
<path d="M476.369,88.359h16.668c2.81,0,3.057,0.978,1.225,2.203c-1.843,1.225-3.923,1.101-6.62,5.271
	c-1.428,2.203-11.768,16.545-12.87,18.141c-1.102,1.585-1.225,2.203-3.799,2.203h-13.476c-1.832,0-3.428,0-1.349-2.945
	c2.09-2.944,15.567-22.052,16.668-23.4C473.918,88.484,474.525,88.359,476.369,88.359"/>
<path d="M627.901,115.194H642.4c2.203,0,2.697-0.494,3.799-1.955c1.101-1.473,15.926-22.345,16.904-23.693
	c0.978-1.349,1.225-2.45-1.832-2.45h-14.218c-1.832,0-2.327,0-3.676,1.956c-1.349,1.967-15.106,21.119-15.971,22.345
	C626.551,112.621,624.472,115.194,627.901,115.194"/>
<path d="M668.214,87.134h16.668c2.81,0,3.057,0.978,1.225,2.203c-1.843,1.225-3.923,1.101-6.62,5.271
	c-1.428,2.203-11.768,16.545-12.87,18.129c-1.102,1.596-1.225,2.214-3.799,2.214h-13.926c-1.843,0-3.428,0-1.349-2.945
	c2.079-2.944,16.017-22.052,17.118-23.4C665.764,87.258,666.371,87.134,668.214,87.134"/>
<path d="M460.441,141.783c2.81-3.63,21.198-30.268,22.793-32.471c1.585-2.203,1.585-1.956,6.25-1.956h41.777
	c3.192,0,4.417,1.709,0.978,3.058c-3.428,1.349-4.878,1.731-7.598,6.249c-2.933,4.901-17.511,24.502-18.984,26.717
	c-1.472,2.203-1.225,2.574-5.642,2.574h-36.63C460.317,145.953,456.642,146.684,460.441,141.783"/>
<path d="M527.508,125.813h34.797c2.225,0,5.878,1.607-0.292,3.653c-2.754,0.922-4.034,1.417-5.878,4.227
	c-1.832,2.821-47.667,68.494-56.479,79.767c-8.823,11.273-22.963,18.714-37.821,18.714H407.75c-8.823,0-12.083,0.809-4.9-8.497
	c9.194-11.903,21.895-30.875,24.67-34.967c2.788-4.08,2.102-0.146,2.776,1.641c0.82,2.125,0.326,3.26,5.721,3.26h30.381
	c9.812,0,15.207-8.486,19.444-14.533c2.821-4.012,34.314-47.386,35.944-49.994C523.417,126.465,524.889,125.813,527.508,125.813"/>
<path d="M628.309,120.582c-6.868,0-16.331,0.169-16.331,0.169s2.282-3.428,4.732-6.542c2.45-3.102,2.776-2.776,5.721-4.08
	c2.933-1.304,2.607-2.945,0.158-2.945h-33.977c-2.293,0-2.45,0-4.417,2.776c-1.956,2.787-22.873,33.337-22.873,33.337l-2.933-0.169
	c-1.146-3.102-2.124-3.754-3.754-1.303c-0.989,1.472-18.467,25.323-20.917,28.751c-2.45,3.428-1.472,4.091,2.125,4.417
	c5.553,0.506,14.207,0.652,22.546-0.82c-0.82,1.956-2.619,4.732-3.597,6.204c-2.023,3.035-3.428,3.766,1.225,3.766h23.277
	c-3.754,8.002-12.745,8.98-17.152,8.98h-26.469c-2.933,0-3.585-0.494-4.9-1.629c-1.304-1.146-2.282-3.428-4.901,0.157
	c-2.608,3.597-18.95,27.616-23.851,34.314c-4.9,6.699-2.282,5.508,3.597,5.508h49.499c18.95,0,33.326-10.408,39.373-18.579
	c6.272-8.475,37.416-51.298,46.723-64.369C653.362,131.485,642.358,120.582,628.309,120.582 M597.063,156.975h-11.397l5.271-7.351
	h11.521L597.063,156.975z"/>
<path d="M715.39,109.798c3.754-0.809,4.901-3.102,1.146-3.102h-40.361c0,0-60.278,84.308-70.573,99.009
	c-7.912,11.296,2.293,24.794,13.881,24.794h88.31c2.854,0,4.001-0.09,4.001-4.001v-69.314c0-1.967-0.157-2.776,2.776-3.766
	c2.945-0.978,3.923-3.754,0.157-3.754c-3.023,0-23.49,0.113-31.291,0.146c11.982-16.59,23.154-32.078,24.109-33.472
	C709.67,113.237,711.884,110.562,715.39,109.798 M680.424,191.981h-27.447c0,0,13.746-19.006,27.447-37.989V191.981z"/>
<path fill="#006A79" d="M9.743,55.705h3.282c1.012,0,1.079,0.124,1.079,1.091v11.498c0,0.921,0.068,1.629,1.709,1.629
	c2.327,0,2.327-0.191,2.327,0.551v4.35c0,0.573,0.056,0.978-0.584,0.978h-1.989c-1.135,0-1.292,0.764-1.292,1.618v5.575
	c0,0.865,0.157,1.338,1.337,1.338h1.787c0.584,0,0.944-0.158,0.944,0.944v3.237c0,0.584,0.068,1.349-0.393,1.349h-2.686
	c-0.529,0-0.866,0.517-0.866,1.135c0,1.315,0.461,27.324,0.461,28.122c0,0.798,0.09,1.192-0.607,1.192h-4.012
	c-0.584,0-0.618-0.371-0.618-1.686c0-1.315-0.123-24.379-0.214-25.896c-0.079-1.506-0.933-2.405-1.843-0.326
	c-0.663,1.563-3.327,7.508-3.766,8.273c-0.944,1.686-1.135,1.528-1.135-0.213c0-1.753-0.18-7.936-0.236-8.857
	c-0.068-0.921,0.034-0.877,1.067-2.361c1.439-2.046,4.069-6.036,4.99-11.172c0.169-0.888,0.551-2.091-1.191-2.091H3.37
	c-0.674,0-0.809,0.09-0.809-0.809c0-0.899-0.011-3.665-0.011-4.339s0.023-0.82,1.101-0.82H7.54c1.439,0,1.585-0.584,1.585-1.753
	c0-1.157-0.022-9.925-0.022-10.936C9.102,56.323,8.855,55.705,9.743,55.705"/>
<path fill="#006A79" d="M28.336,55.797c0.427,0,0.584,0.091,0.18,0.911c-0.438,0.921-1.989,4.203-2.36,5.103
	c-0.371,0.899-0.574,1.349-0.214,1.967c0.371,0.607,1.012,1.764,1.349,2.237c1.101,1.517,1.753,0.708,2.169-0.034
	c0.292-0.528,1.473-2.472,1.911-3.293c0.27-0.517,0.584-0.888,0.944-0.888h0.989c0.27,0,0.607,0,0.214,0.831
	c-0.405,0.82-6.452,13.993-6.834,14.791c-0.584,1.225-0.371,1.9,0.64,1.9h4.316c0.652,0,0.798-0.123,0.798-0.798
	s0.067-2.169,0.067-2.63s0.023-0.618,0.517-0.618h1.596c0.427,0,0.607,0.034,0.607,0.618v5.946c0,0.427,0.214,0.697-0.764,0.697
	H22.638c-0.495,0-0.551-0.056-0.123-0.854c0.427-0.798,3.147-7.126,3.428-7.722c0.438-0.888,0.742-1.012,0.281-1.742
	c-0.461-0.742-3.675-5.609-3.923-6.036c-0.247-0.427-0.247-0.46-0.056-0.978c0.18-0.528,4.035-8.733,4.193-9.127
	c0.157-0.405,0.281-0.315,0.551-0.315C27.269,55.764,27.909,55.797,28.336,55.797"/>
<path fill="#006A79" d="M40.958,55.644h3.372c0.551,0,0.922,0.124,0.922,0.922s0.056,31.426,0.056,32.471
	c0,1.035,0.495,1.956,1.776,1.956H60.75c0.978,0,1.281,0.123,1.281,0.798v2.63c0,0.674-0.056,0.922-0.922,0.922H48.128
	c-0.865,0-1.54,0.495-1.101,1.775c0.427,1.293,2.023,5.822,4.035,8.823c0.495,0.719,1.169,1.045,1.967-0.056
	c0.798-1.102,1.956-3.001,2.327-3.619c0.371-0.606,0.607-0.854,1.349-0.854h3.057c0.618,0,0.798,0.248,0.315,1.158
	c-0.495,0.921-2.147,4.417-4.721,7.541c-0.944,1.147-0.427,2.147,0,2.698c0.854,1.101,4.597,5.754,5.08,6.305
	c0.495,0.551,1.237,0.978,0,0.978h-5.26c-0.674,0-0.742,0-1.225-0.606c-0.494-0.619-1.719-2.203-2.27-3.001
	c-0.551-0.798-1.169-0.742-1.9,0.18c-0.731,0.922-2.203,2.079-2.754,2.574c-0.551,0.495-0.798,0.922-1.719,0.922h-7.654
	c-0.742,0-0.832-0.146,0.056-0.742c4.844-3.18,8.688-7.036,9.194-7.598c0.551-0.607,0.877-0.742,0.056-2.136
	c-1.045-1.776-4.451-8.992-4.901-12.319c-0.124-0.922-1.349-1.776-2.203-1.776h-7.778c-0.798,0-1.293,0.427-1.54,1.349
	c-0.236,0.922-0.798,4.406-0.978,5.148c-0.18,0.731-0.056,1.158,0.742,1.585c0.787,0.438,5.811,2.945,6.249,3.192
	c0.427,0.248,0.607,0.607,0.427,1.473c-0.191,0.854-0.371,2.259-0.495,2.754c-0.124,0.495,0.18,1.169-0.978,0.607
	c-1.169-0.551-4.653-2.327-5.451-2.686c-0.562-0.259-1.214-0.18-1.54,1.034c-0.303,1.169-1.461,8.52-1.652,9.317
	c-0.18,0.799-0.303,1.158-1.158,1.158h-5.024c-0.674,0-0.427-0.607-0.247-1.708c0.18-1.102,4.102-20.04,4.35-21.142
	c0.247-1.101,0.18-2.023-0.978-2.023h-2.641c-0.731,0-0.674-0.18-0.674-1.349c0-1.157,0.068-1.652,0.068-2.383
	c0-0.742,0.123-0.922,0.922-0.922h16.96c0.989,0,2.023-0.37,2.023-2.023c0-1.652-0.427-31.482-0.427-32.157
	S40.227,55.644,40.958,55.644"/>
<path fill="#006A79" d="M53.682,55.705c0.371,0,0.899,0.012,1.304,0c0.539-0.022,0.539,0.068,0.213,0.63
	c-0.337,0.574-2.192,4.856-2.45,5.44c-0.247,0.528-0.495,0.731-0.169,1.382c0.326,0.652,1.596,2.619,2.001,2.945
	c0.405,0.326,0.776,0.449,1.304-0.326c0.54-0.776,1.517-2.9,1.765-3.316c0.236-0.405,0.404-0.663,0.731-0.663h1.382
	c0.416,0,0.607,0.146,0.169,0.955c-0.529,0.978-6.901,14.825-7.149,15.354s-0.079,1.146,0.899,1.146h4.248
	c0.899,0,1.349-0.495,1.349-1.18V75.79c0-0.495,0.247-0.506,0.506-0.506h1.495c0.326,0,0.528,0.304,0.528,1.035v5.159
	c0,0.618-0.483,1.056-1.056,1.056H49.231c-0.528,0-0.899-0.236-0.281-1.382c0.607-1.146,3.305-7.497,3.63-8.07
	c0.326-0.573,0.731-1.63-0.168-2.933c-0.506-0.742-2.484-3.923-2.9-4.541C49.107,65,49.073,65,49.557,63.808
	c0.494-1.18,2.978-6.451,3.271-7.103C53.108,56.053,53.277,55.705,53.682,55.705"/>
<path fill="#006A79" d="M52.947,88.768h5.35c0.495,0,0.607-0.101,0.607-0.472v-0.854c0-0.247-0.146-0.517-0.517-0.517h-5.485
	c-0.427,0-0.674,0.056-0.674,0.359v1.011C52.227,88.51,52.283,88.768,52.947,88.768"/>
<path fill="#006A79" d="M101.36,104.898H91.132c-0.551,0-1.225-0.607-1.225-1.225v-3.248c0-0.55,0.371-0.978,1.405-0.978
	c1.045,0,7.879-0.09,8.823-0.09c0.956,0,0.989-0.708,0.989-1.439c0-0.922-0.214-22.03-0.214-22.817c0-0.798-0.337-1.079-1.079-1.079
	h-8.396c-1.034,0-1.529-1.225-1.529-1.775v-2.945c0-0.787,0.675-1.203,1.349-1.203h9.453c0.629,0,0.933-0.449,0.933-0.933v-2.361
	c0-0.528,0.034-0.584-0.584-0.584h-9.801c-0.922,0-1.349-0.674-1.349-1.349v-3.372c0-0.607,0.427-1.034,1.293-1.101
	c0.854-0.056,7.587-0.427,8.699-0.484c0.854-0.056,0.978-0.438,0.978-0.866v-1.775c0-0.551,0.056-0.731-0.978-0.674
	c-1.045,0.067-24.086,1.472-24.761,1.472c-0.607,0-0.854,0.056-0.854,0.674v1.832c0,0.674,0.18,0.674,0.798,0.742
	c0.618,0.056,7.531-0.371,8.576-0.371c1.045,0,2.271,0.191,2.271,0.866v2.81c0,1.225-0.798,1.596-1.596,1.596h-9.194
	c-0.91,0-1.101,0.304-1.101,0.855v2.09c0,0.787,0.247,0.978,0.989,0.978h9.183c0.978,0,1.72,0.483,1.72,1.225v3.125
	c0,0.978-0.866,1.528-1.529,1.528h-8.767c-0.978,0-1.281,0.427-1.281,1.292c0,0.855,0.011,22.086,0.011,22.985
	c0,0.899,0.225,1.09,1.09,1.09h9.217c0.831,0,1.259,0.461,1.259,1.259v3.192c0,0.922-0.618,1.056-1.349,1.056h-9.722
	c-0.663,0-0.967,0.54-0.967,0.967v2.012c0,0.697,0.337,0.82,0.82,0.82h9.801c0.798,0,1.416,0.674,1.416,1.416v2.383
	c0,0.865-0.371,1.596-1.596,1.72c-0.731,0.067-8.756,1.349-9.497,1.472c-0.731,0.123-1.225,0.123-1.225,0.854
	c0,0.731,0.067,2.079,0.067,2.45c0,1.045,0.18,1.349,1.349,1.169c1.158-0.191,21.625-3.125,23.03-3.316
	c1.405-0.18,1.473-0.483,1.596-0.921c0.124-0.427,0.124-1.528,0.247-2.45c0.124-0.91,0.124-0.787-0.989-0.607
	c-0.674,0.113-6.058,0.799-7.474,0.978c-1.405,0.191-1.529-0.484-1.529-1.225v-2.361c0-0.798,0.371-1.562,1.169-1.562h10.138
	c0.764,0,0.888-0.461,0.888-0.888v-2.361C102.102,105.021,102.034,104.898,101.36,104.898 M89.907,79.126
	c0-0.686,0.292-1.181,1.068-1.181h4.451c0.607,0,1.472,0.248,1.472,1.102v4.698c0,0.731-0.618,1.057-1.191,1.057h-4.575
	c-0.573,0-1.225-0.405-1.225-1.225V79.126z M89.907,89.095c0-0.697,0.292-1.18,1.068-1.18h4.451c0.607,0,1.472,0.247,1.472,1.102
	v5.024c0,0.731-0.618,1.056-1.191,1.056h-4.575c-0.573,0-1.225-0.404-1.225-1.225V89.095z M86.029,94.04
	c0,0.731-0.618,1.056-1.18,1.056h-4.945c-0.573,0-1.225-0.404-1.225-1.225v-4.777c0-0.697,0.281-1.18,1.056-1.18h4.822
	c0.618,0,1.473,0.247,1.473,1.102V94.04z M86.029,83.745c0,0.731-0.618,1.057-1.18,1.057h-4.945c-0.573,0-1.225-0.405-1.225-1.225
	v-4.451c0-0.686,0.281-1.181,1.056-1.181h4.822c0.618,0,1.473,0.248,1.473,1.102V83.745z"/>
<path fill="#006A79" d="M111.76,56.666c0-0.899,0.202-1.022,0.775-1.022h3.923c0.449,0,0.708,0.168,0.708,0.719v8.059
	c0,0.619,0.348,1.315,1.248,1.315h8.666c0.607,0,0.809,0.158,0.809,0.686c0,0.539,0.652,51.882,0.652,52.657
	c0,0.517,0,0.674-0.461,0.674h-9.441c-0.427,0-0.551-0.113-0.551-0.517v-5.114c0-0.371,0.157-0.427,0.427-0.427h3.53
	c0.641,0,1.247-0.338,1.247-1.315c0-0.989-0.022-38.327-0.056-39.271c-0.034-0.955-0.674-1.664-1.349-1.664h-3.608
	c-0.584,0-1.292,0.584-1.292,1.417c0,0.82-0.427,29.402-8.452,45.948c-0.405,0.831-0.472,0.944-0.955,0.944h-5.867
	c-0.45,0-0.461-0.157,0.045-1.169c5.125-10.25,10.329-23.918,9.902-45.24c-0.034-1.596-0.674-1.9-1.472-1.9h-4.17
	c-0.674,0-0.944-0.112-0.944-0.944v-3.889c0-0.742,0.517-0.865,1.068-0.865h4.046c0.731,0,1.472-0.236,1.472-1.461
	C111.658,63.061,111.76,57.621,111.76,56.666"/>
<path fill="#006A79" d="M142.718,54.909h2.944c0.854,0,0.91,0.371,1.034,1.225c0.124,0.855,0.619,3.855,0.674,4.406
	c0.068,0.562,0.124,0.865-0.73,0.865h-3.001c-0.495,0-0.866-0.303-0.978-1.292c-0.124-0.978-0.371-3.18-0.495-4.035
	C142.043,55.213,142.099,54.909,142.718,54.909"/>
<path fill="#006A79" d="M154.359,54.909h2.944c0.854,0,0.91,0.371,1.034,1.225c0.124,0.855,0.619,3.855,0.674,4.406
	c0.068,0.562,0.124,0.865-0.73,0.865h-3.001c-0.495,0-0.866-0.303-0.978-1.292c-0.124-0.978-0.371-3.18-0.495-4.035
	C153.684,55.213,153.74,54.909,154.359,54.909"/>
<path fill="#006A79" d="M192.34,62.328v-6.507c0-0.495,0.168-0.91,0.629-0.91h3.294c0.326,0,0.494,0.079,0.494,0.584v6.733
	c0,0.528-0.101,0.831-0.595,0.831h-3.091C192.666,63.059,192.34,62.891,192.34,62.328"/>
<path fill="#006A79" d="M197.736,117.981c-2.787-4.237-5.451-9.531-7.171-13.903c-0.719-1.832-1.45-2.664-0.393-4.417
	c1.349-2.236,4.956-9.643,5.664-12.161c0.191-0.686-0.303-0.607-0.831-0.607h-1.922c-0.865,0-0.888,0.303-1.135,0.888
	c-0.247,0.574-1.967,4.192-2.664,5.507c-0.708,1.315-1.562,1.169-1.877-0.18c-0.303-1.349-1.675-11.689-1.708-12.97
	c-0.034-1.169,0.607-1.585,1.742-1.585h8.655c0.663,0,0.753-0.169,0.753-0.742v-4.676c0-0.708-0.304-0.697-0.888-0.697h-8.71
	c-1.472,0-1.843-1.236-1.843-1.843V55.748c0-0.652-0.169-0.843-0.843-0.843h-4.507c-0.517,0-0.551,0.405-0.551,1.102v15.409
	c0,0.674-0.056,1.012-1.011,1.012h-6.463c-0.731,0-0.854-0.461-0.854-1.473v-3.518c0-0.584-0.056-0.764-0.517-0.764h-2.551
	c-0.731,0-0.394-1.102,0-1.9c0.405-0.798,3.125-6.958,3.743-8.272c0.618-1.338,1.011-1.596-0.214-1.596h-3.742
	c-0.709,0-0.584-0.079-1.203,1.068c-0.281,0.528-3.406,8.07-3.912,9.306c-0.618,1.517-0.663,1.394-1.889,1.394h-18.455
	c-0.776,0-0.899,0.371-0.899,1.349c0,0.978,0.135,24.997,0.135,26.56c0,1.157,0.213,1.259,1.169,1.259h9.655
	c1.191,0,1.585,0.91,1.585,1.652c0,0.731-0.034,2.338-0.034,3.551c0,1.214-0.765,1.473-1.529,1.473s-10.25,0.393-11.048,0.416
	c-0.798,0.034-0.866,0.034-0.866,0.528s-0.034,2.664-0.034,3.338s0.034,0.764,0.922,0.731c0.584-0.023,10.441-0.394,11.576-0.438
	c1.135-0.045,1.012,0.899,1.012,1.675v9.52c0,0.742,0,1.012,0.337,1.012h4.541c0.551,0,0.484-0.607,0.484-1.281v-10.138
	c0-0.989,0.247-1.035,1.776-1.09c0.921-0.045,9.992-0.382,10.632-0.405c0.652-0.023,0.708-0.382,0.708-0.843
	c0-0.449-0.067-2.754-0.067-3.091c0-0.55-0.236-0.674-1.068-0.641c-0.831,0.034-9.003,0.338-10.722,0.427
	c-1.315,0.067-1.259-0.82-1.259-1.652v-3.496c0-0.82,0.495-1.225,1.472-1.225h9.924c0.551,0,0.495-0.09,0.495-1.225V79.935
	c0-0.461,0.517-1.382,1.281-1.382h5.912c1.439,0,1.652,0.371,1.652,2.821c0,2.147,0.956,11.329,2.788,19.793
	c0.416,1.911,0.213,1.922-1.012,3.585c-2.507,3.383-9.801,10.958-13.847,13.87c-1.023,0.742-0.888,0.674-0.18,0.674h7.013
	c0.922,0,0.82-0.023,1.439-0.641c3.214-3.181,6.136-6.979,6.957-8.182c0.978-1.439,2.147-0.821,2.608,0.494
	c0.315,0.911,2.237,5.878,2.911,7.227c0.663,1.349,0.663,1.102,1.281,1.102h7.53C198.961,119.296,198.444,119.049,197.736,117.981
	 M154.081,89.624c0,0.742-0.248,1.304-1.304,1.304h-4.9c-0.652,0-1.181-0.731-1.181-1.461v-4.294c0-0.775,0.281-1.472,1.383-1.472
	h4.777c0.652,0,1.225,0.123,1.225,1.551V89.624z M154.081,78.597c0,0.731-0.248,1.304-1.304,1.304h-4.9
	c-0.652,0-1.181-0.731-1.181-1.472v-4.283c0-0.775,0.281-1.472,1.383-1.472h4.777c0.652,0,1.225,0.123,1.225,1.551V78.597z
	 M166.838,89.624c0,0.742-0.248,1.304-1.304,1.304h-4.9c-0.652,0-1.192-0.731-1.192-1.461v-4.294c0-0.775,0.292-1.472,1.393-1.472
	h4.777c0.652,0,1.225,0.123,1.225,1.551V89.624z M166.838,78.597c0,0.731-0.248,1.304-1.304,1.304h-4.9
	c-0.652,0-1.192-0.731-1.192-1.472v-4.283c0-0.775,0.292-1.472,1.393-1.472h4.777c0.652,0,1.225,0.123,1.225,1.551V78.597z"/>
<path fill="#006A79" d="M233.759,54.542h6.698c1.023,0,1.023,0,1.023,0.776v9.722c0,0.82,0,1.382,1.473,1.382h20.455
	c0.866,0,1.192-0.034,1.192,0.899v4.867c0,0.731-0.213,1.102-0.899,1.102h-20.995c-0.899,0-1.225,0.079-1.225,1.394v33.573
	c0,2.697,0.248,2.697,2.001,2.697h18.95c0.652,0,0.697,0,0.697,0.731v5.406c0,0.652,0.023,0.72-0.495,0.72h-49.668
	c-0.607,0-0.629-0.202-0.629-0.921v-5.002c0-0.933,0.146-0.933,0.842-0.933h17.635c1.967,0,1.967-1.315,1.967-3.44V76.145
	c0-2.035,0-2.855-2.09-2.855h-20.614c-0.865,0-0.865,0-0.865-1.067c0-1.057,0.045-4.327,0.045-5.058
	c0-0.742,0.034-0.742,0.855-0.742h20.703c1.517,0,1.967-0.562,1.967-2.203v-8.407C232.781,54.587,232.781,54.542,233.759,54.542"/>
<path fill="#006A79" d="M135.979,4.427c2.45,0,314.776-0.854,341.177-0.719c1.922,0,1.978-0.191,0.843,0.831
	c-4.901,4.462-280.63,253.475-301.997,274.842c-2.686,2.697-2.282,3.024,0.495,3.024c2.046,0,219.408-1.843,231.333-2.361
	c16.916-0.742,37.912-7.676,53.759-27.368c2.754-3.428,2.282-3.35,5.428-3.35h8.216c1.675,0,1.641,0.146,0.978,1.225
	c-2.327,3.799-25.368,37.518-30.842,44.925c-0.922,1.248-0.854,1.495-2.574,1.495c-1.72,0-365.017,3.979-367.231,3.855
	c-2.203-0.124-2.731,0.461-0.607-1.562c4.192-3.979,293.42-268.862,301.636-276.112c1.832-1.618,0.326-2.102-1.079-2.102
	c-24.289,0.045-199.267,0.686-207.764,0.528c-13.476-0.247-31.37,7.441-41.823,19.85c-1.236,1.483-1.101,1.472-2.574,1.472h-9.801
	c-1.349,0-1.101,0-0.528-1.023c0.574-1.023,19.771-35.303,20.501-36.349S133.978,4.427,135.979,4.427"/>
<path fill="#E60012" d="M393.539,107.229h29.649c0,0-9.452,13.297-10.801,15.017c-1.337,1.708-2.427,3.113,1.619,3.113h26.458
	c5.518,0,17.275,6.743,7.474,21.085c-7.407,10.824-35.124,50.05-41.654,59.424c-8.699,12.498-14.701,22.671-31.617,22.671h-20.951
	c0,0,17.028-28.189,19.118-31.864c5.384,3.552,9.924-0.854,14.454-7.474c3.305-4.81,24.019-34.18,25.727-36.518
	c1.72-2.326,2.574-3.675-0.359-3.675h-17.399c-2.338,0-2.574,0.247-4.9,3.563c-2.338,3.304-31.01,43.857-39.586,54.647
	c-15.566,19.579-36.877,22.175-41.418,22.175h-18.86c-2.214,0-3.069,0.978-0.371-3.069c2.697-4.034,17.028-24.626,21.445-30.381
	c0.607,4.283,15.308,3.676,21.558-4.541c9.013-11.835,26.592-37.608,27.941-39.451c1.349-1.832,1.843-2.574-1.72-2.574h-17.635
	c-1.349,0-1.967,0.619-0.495-1.596c1.472-2.203,15.072-21.198,16.792-23.401c1.551,2.271,1.922,1.473,11.026,1.473
	c11.431,0,10.127,0.37,12.094-2.079c1.955-2.45,9.587-13.724,10.565-15.196C392.684,107.106,392.684,107.229,393.539,107.229"/>
<polygon fill="#E60012" points="453.333,91.668 465.337,91.668 450.265,113.113 438.137,112.99 "/>
<polygon fill="#E60012" points="475.756,91.423 486.905,91.423 471.833,112.745 460.56,112.745 "/>
<path fill="#E60012" d="M464.362,142.396c0,0,35.292-0.247,36.022-0.247c0.742,0,1.225,0,1.967-1.102
	c0.731-1.101,19.355-26.716,20.333-28.054c0.978-1.349,1.349-2.09-0.854-2.09h-35.664L464.362,142.396z"/>
<path fill="#E60012" d="M525.712,129.571h28.425c-9.475,14.218-47.488,67.606-51.298,73.35c-8.992,13.567-21.4,25.166-42.8,25.166
	H408.73c-3.923,0-4.901,0.495-0.652-5.069c4.248-5.553,15.848-23.199,19.276-27.773c2.45,3.754,7.194,2.619,18.793,2.619
	c22.715,0,28.594,2.282,37.9-10.453C489.756,179.599,522.283,134.315,525.712,129.571"/>
<polygon fill="#E60012" points="646.442,90.648 657.962,90.648 643.137,111.891 631.211,111.767 "/>
<path fill="#E60012" d="M667.438,90.525c0,0,5.99-0.022,8.721-0.022c1.832,0,1.405,0.742,0.484,1.9
	c-0.753,0.967-13.454,19.118-13.454,19.118H652.41L667.438,90.525z"/>
<path fill="#E60012" d="M631.25,124.509h-21.895c-3.923,0-3.923-1.315-2.282-3.44c1.63-2.124,7.508-10.453,7.508-10.453h-26.626
	c-1.63,2.776-20.748,30.066-22.873,32.999c-2.124,2.945-1.146,2.788-6.204,2.788c-1.641,0-2.293,0.652-3.113-1.146
	c-1.135,1.472-13.386,19.601-16.005,23.198c-2.618,3.586-1.956,2.776,0.169,2.945c2.125,0.157,13.386,0.888,22.546-1.967
	c2.911-0.911,3.754-0.169,2.45,2.293c-1.315,2.45-5.889,8.655-5.889,8.655h21.242c4.406,0,5.238,0.764,3.271,3.754
	c-7.935,12.048-17.668,13.252-20.613,13.252h-26.301c-3.923,0-5.698,0.314-6.676-0.506c-0.978-0.82-1.551-0.899-3.349,1.877
	c-1.799,2.776-15.118,21.164-17.242,24.593c-2.125,3.428-2.889,3.956,0.697,3.956h48.038c22.299,0,33.449-16.376,38.833-23.558
	c5.395-7.193,40.687-56.367,44.61-62.087C645.456,135.94,640.556,124.509,631.25,124.509 M606.827,149.91
	c-2.372,2.776-5.07,7.429-6.204,8.823c-1.147,1.394-1.473,1.798-4.091,1.956c-2.607,0.169-12.656,0-14.454,0
	c-1.799,0-3.271-0.652-1.641-2.855c1.641-2.203,6.451-8.745,7.351-10.048c0.91-1.304,1.067-1.799,3.035-1.877
	c2.776-0.113,12.824-0.079,15.027,0C608.051,145.988,609.198,147.135,606.827,149.91"/>
<path fill="#E60012" d="M679.158,110.66h25.491c1.585,0,2.686-0.123,0.484,2.698c-2.203,2.821-53.793,75.103-56.85,78.789
	c-3.069,3.676-1.102,3.912,1.101,3.912h31.37c2.574,0,3.676-0.113,3.676-4.159c0-4.046,0.247-33.449,0.247-35.292
	c0-1.832-0.247-2.697,3.428-2.697c3.676,0,14.825,0.123,16.905,0.123c2.944,0,2.944,0.618,2.944,3.428v65.482
	c0,3.675-0.618,3.675-3.068,3.675h-83.802c-14.465,0-16.544-13.038-13.363-17.691c6.553-9.565,67.516-95.2,68.494-96.548
	C677.202,111.031,677.809,110.66,679.158,110.66"/>
</svg>
