<?xml version="1.0" encoding="utf-8"?>
<!-- Generator: Adobe Illustrator 27.1.1, SVG Export Plug-In . SVG Version: 6.00 Build 0)  -->
<svg version="1.1" id="레이어_1" xmlns="http://www.w3.org/2000/svg" xmlns:xlink="http://www.w3.org/1999/xlink" x="0px"
	 y="0px" viewBox="0 0 720 148.986" enable-background="new 0 0 720 148.986" xml:space="preserve">
<g>
	<path fill="#FFDB4F" d="M128.35,93.625l-11.839-34.588c-0.574-1.667-2.425-2.65-4.12-2.182l-16.504,4.544l-3.761-11.033
		l17.678-5.165c1.682-0.499,2.569-2.247,1.96-3.901l-10.777-29.164c-0.609-1.654-2.488-2.575-4.173-2.06l-16.683,5.128L76.592,4.819
		c-0.568-1.67-2.438-2.681-4.139-2.247l-46.14,11.67c-1.71,0.434-2.653,2.157-2.104,3.83l4.298,13L4.702,38.387
		c-1.682,0.515-2.616,2.316-2.079,3.989l9.054,28.165c0.54,1.67,2.36,2.637,4.051,2.147l24.195-7.069l3.39,10.25l-23.599,6.495
		c-1.695,0.468-2.544,2.185-1.885,3.817l15.275,37.831c0.659,1.629,2.569,2.534,4.254,1.997l20.378-6.501l8.168,24.704
		c0.549,1.679,2.388,2.656,4.086,2.191l47.076-13.015c1.695-0.465,2.622-2.216,2.051-3.876l-9.098-26.68l16.311-5.2
		C128.012,97.093,128.914,95.292,128.35,93.625"/>
	<path d="M69.148,148.986c-2.469,0-4.801-1.59-5.59-4.008l-7.401-22.374l-18.047,5.758c-2.896,0.925-6.163-0.619-7.294-3.424
		l-15.28-37.832c-0.576-1.431-0.524-3.021,0.137-4.365c0.664-1.343,1.899-2.348,3.383-2.76l21.095-5.805l-1.826-5.517l-21.906,6.399
		c-2.96,0.869-6.145-0.826-7.093-3.76L0.272,43.131c-0.463-1.442-0.332-2.979,0.369-4.328c0.704-1.347,1.887-2.333,3.334-2.778
		l21.394-6.575l-3.505-10.604c-0.479-1.451-0.335-3.034,0.387-4.346c0.732-1.332,1.96-2.274,3.456-2.652L71.845,0.178
		c2.944-0.757,6.111,0.98,7.084,3.848l2.768,8.112l14.393-4.423c2.923-0.901,6.163,0.706,7.215,3.565l10.778,29.163
		c0.533,1.451,0.451,2.992-0.229,4.345c-0.68,1.355-1.868,2.342-3.344,2.781l-15.209,4.444l2.176,6.387l14.262-3.927
		c2.926-0.811,6.117,0.875,7.108,3.76l11.841,34.596c0.491,1.44,0.384,2.979-0.299,4.336c-0.68,1.353-1.853,2.356-3.304,2.821
		l-13.914,4.435l8.284,24.294c0.491,1.425,0.375,3.008-0.326,4.334c-0.701,1.329-1.942,2.321-3.408,2.722l-47.07,13.013
		C70.15,148.921,69.648,148.986,69.148,148.986z M59.315,116.411l8.937,27.025c0.137,0.427,0.661,0.718,1.088,0.584l47.07-13.012
		c0.204-0.056,0.302-0.175,0.351-0.264c0.046-0.088,0.088-0.235,0.021-0.427l-9.915-29.073l18.715-5.965
		c0.223-0.072,0.338-0.223,0.396-0.337c0.055-0.114,0.11-0.299,0.034-0.523l-11.838-34.584c-0.149-0.436-0.71-0.721-1.122-0.599
		L94.3,64.399l-5.346-15.68l20.159-5.889c0.186-0.056,0.28-0.171,0.323-0.258c0.064-0.125,0.067-0.267,0.009-0.422L98.671,12.991
		c-0.155-0.427-0.707-0.684-1.134-0.553l-18.974,5.829l-4.31-12.651c-0.152-0.453-0.713-0.773-1.192-0.651l-46.14,11.671
		c-0.158,0.041-0.274,0.123-0.341,0.245c-0.046,0.084-0.088,0.224-0.024,0.419l5.093,15.389L5.426,40.748
		c-0.223,0.07-0.341,0.223-0.402,0.338c-0.052,0.098-0.125,0.294-0.049,0.53l9.056,28.168c0.128,0.399,0.588,0.652,1.009,0.53
		l26.481-7.736l4.953,14.981l-26.103,7.186c-0.091,0.024-0.213,0.078-0.265,0.186c-0.055,0.107-0.021,0.236,0.015,0.326
		l15.277,37.83c0.177,0.436,0.762,0.709,1.213,0.568L59.315,116.411z"/>
</g>
<g>
	<path fill="#FFDB4F" d="M127.749,31.276c-1.76,0.128-3.155,1.67-3.096,3.43l2.044,64.021c0.056,1.763,1.548,3.159,3.308,3.102
		l32.619-0.986c1.766-0.056,3.124-1.532,3.024-3.293l-3.633-65.503c-0.1-1.757-1.614-3.093-3.377-2.968L127.749,31.276z"/>
	<path d="M129.903,104.301c-3.045,0-5.575-2.428-5.675-5.494l-2.045-64.023c-0.101-3.069,2.316-5.749,5.386-5.973h0.003
		l30.891-2.198c1.512-0.09,2.981,0.386,4.121,1.387c1.137,1.001,1.814,2.388,1.899,3.903l3.633,65.509
		c0.085,1.521-0.433,2.973-1.457,4.09c-1.027,1.119-2.432,1.76-3.959,1.807l-32.617,0.988
		C130.022,104.3,129.961,104.301,129.903,104.301z M127.928,33.74L127.928,33.74c-0.436,0.032-0.823,0.453-0.808,0.884l2.045,64.023
		c0.012,0.399,0.347,0.745,0.765,0.713l32.617-0.988c0.238-0.008,0.387-0.119,0.469-0.21c0.085-0.09,0.18-0.245,0.168-0.475
		l-3.633-65.504c-0.015-0.233-0.134-0.386-0.232-0.471c-0.101-0.088-0.28-0.181-0.506-0.169L127.928,33.74z"/>
	<path fill="#FFDB4F" d="M169.641,17.568c-1.748,0.181-2.993,1.76-2.756,3.505l12.154,90.535c0.234,1.742,1.826,2.821,3.53,2.4
		l49.083-12.344c1.704-0.425,2.846-2.197,2.534-3.93l-6.205-34.351c-0.315-1.729-1.973-2.831-3.692-2.45l-13.399,3.003
		c-1.72,0.39-3.346-0.721-3.614-2.459l-6.863-43.952c-0.278-1.742-1.932-3.015-3.677-2.828L169.641,17.568z"/>
	<path d="M181.841,116.567c-1.067,0-2.106-0.312-2.984-0.91c-1.237-0.843-2.063-2.201-2.265-3.723l-12.155-90.531
		c-0.207-1.507,0.198-2.996,1.137-4.193c0.939-1.195,2.289-1.94,3.807-2.099l27.097-2.871c3.005-0.332,5.895,1.868,6.373,4.895
		l6.867,43.96c0.03,0.207,0.134,0.314,0.213,0.367c0.116,0.079,0.247,0.104,0.415,0.064l13.405-3.004
		c1.503-0.331,3.021-0.05,4.279,0.788c1.262,0.838,2.109,2.127,2.38,3.63l6.209,34.355c0.536,2.998-1.423,6.032-4.371,6.765
		l-49.076,12.343C182.731,116.513,182.283,116.567,181.841,116.567z M197.078,17.149c-0.024,0-0.052,0.002-0.076,0.005
		l-27.106,2.871c-0.226,0.024-0.363,0.143-0.436,0.238c-0.076,0.094-0.158,0.255-0.128,0.477l12.155,90.539
		c0.018,0.142,0.07,0.241,0.152,0.296c0.104,0.073,0.244,0.061,0.338,0.035l49.07-12.341c0.448-0.111,0.789-0.643,0.707-1.096
		l-6.206-34.351c-0.037-0.213-0.158-0.334-0.253-0.396c-0.091-0.061-0.247-0.128-0.472-0.079l-13.393,3.001
		c-1.5,0.338-3.024,0.056-4.279-0.799c-1.241-0.844-2.085-2.19-2.316-3.696l-6.864-43.947
		C197.907,17.493,197.492,17.149,197.078,17.149z"/>
</g>
<g>
	<path fill="#FFDB4F" d="M232.973,17.404c-0.044-1.76,1.351-3.099,3.109-2.974l63.968,4.454c1.76,0.128,3.152,1.664,3.106,3.421
		l-0.743,25.587c-0.05,1.76-1.532,3.13-3.283,3.037l-62.139-3.193c-1.76-0.094-3.237-1.604-3.28-3.361L232.973,17.404z"/>
	<path fill="#FFDB4F" d="M243.931,54.799c0.1-1.754,1.617-3.127,3.377-3.046l44.654,2.051c1.751,0.078,3.187,1.586,3.18,3.346
		l-0.122,22.41c-0.016,1.76-1.458,3.112-3.215,3.003l-46.04-2.84c-1.763-0.109-3.118-1.645-3.021-3.396L243.931,54.799z"/>
	<path d="M299.304,53.403c-0.104,0-0.207-0.003-0.311-0.008l-62.133-3.193c-3.072-0.163-5.541-2.694-5.62-5.765l-0.735-26.969
		c-0.04-1.536,0.558-3.011,1.643-4.046c1.079-1.033,2.53-1.548,4.109-1.457l63.962,4.453c3.069,0.223,5.489,2.894,5.404,5.954
		l-0.741,25.589c-0.046,1.527-0.686,2.935-1.807,3.967C302.035,52.886,300.706,53.403,299.304,53.403z M235.443,17.341l0.735,26.966
		c0.012,0.471,0.469,0.937,0.942,0.962l62.136,3.193c0.213,0.024,0.381-0.085,0.475-0.168c0.091-0.087,0.207-0.239,0.213-0.475
		l0.741-25.585c0.012-0.437-0.369-0.853-0.817-0.885l-63.959-4.453c-0.146-0.015-0.268,0.021-0.347,0.099
		C235.48,17.071,235.44,17.19,235.443,17.341L235.443,17.341z"/>
	<path d="M292.011,85.038c-0.119,0-0.238-0.003-0.357-0.011l-46.04-2.841c-3.115-0.194-5.508-2.885-5.334-5.998l1.186-21.531
		c0.18-3.106,2.911-5.535,5.956-5.372l44.653,2.05c3.063,0.139,5.55,2.751,5.538,5.823l-0.122,22.413
		c-0.012,1.545-0.631,2.964-1.74,3.999C294.726,84.525,293.41,85.038,292.011,85.038z M246.397,54.939l-1.186,21.522
		c-0.021,0.405,0.302,0.77,0.707,0.794l46.04,2.841c0.244,0.032,0.344-0.069,0.421-0.139c0.079-0.073,0.171-0.204,0.174-0.421
		l0.122-22.401c0-0.431-0.393-0.846-0.826-0.866l-44.653-2.05C246.754,54.224,246.422,54.529,246.397,54.939z"/>
	<path fill="#FFDB4F" d="M235.201,86.138c0-1.763,1.43-3.14,3.193-3.056l70.229,3.227c1.76,0.078,3.137,1.579,3.062,3.343
		l-1.298,30.556c-0.075,1.76-1.573,3.118-3.333,3.021l-68.606-3.68c-1.757-0.091-3.202-1.617-3.202-3.377L235.201,86.138z"/>
	<path d="M307.235,125.704c-0.107,0-0.213-0.003-0.32-0.008l-68.598-3.68c-3.054-0.157-5.541-2.778-5.541-5.843l-0.043-30.035
		c0-1.541,0.607-2.967,1.707-4.017c1.097-1.044,2.566-1.582,4.072-1.506l70.223,3.226c3.115,0.137,5.547,2.79,5.419,5.913
		l-1.298,30.559c-0.067,1.518-0.722,2.914-1.847,3.933C309.966,125.194,308.634,125.704,307.235,125.704z M237.671,86.137
		l0.043,30.033c0,0.448,0.418,0.888,0.86,0.911l68.61,3.68c0.253,0.021,0.411-0.087,0.509-0.177
		c0.098-0.088,0.216-0.244,0.226-0.483l1.298-30.555c0.018-0.399-0.305-0.753-0.704-0.771l-70.232-3.226
		c-0.213,0.003-0.357,0.075-0.433,0.148C237.769,85.774,237.674,85.913,237.671,86.137z"/>
</g>
<g>
	<path fill="#FFDB4F" d="M359.194,77.403c-1.361,1.114-1.504,3.099-0.321,4.401l28.958,31.882c1.186,1.298,3.252,1.43,4.594,0.287
		l25.537-21.767c1.336-1.142,3.502-1.111,4.803,0.072l40.671,36.914c1.305,1.186,3.337,1.092,4.526-0.212l28.605-31.436
		c1.189-1.301,1.086-3.333-0.225-4.507l-72.033-64.854c-1.314-1.174-3.496-1.223-4.857-0.109L359.194,77.403z"/>
	<path d="M465.59,132.492c-1.362,0-2.731-0.486-3.816-1.474l-40.669-36.911c-0.381-0.349-1.149-0.357-1.536-0.024l-25.539,21.77
		c-2.35,1.992-5.944,1.771-8.025-0.501l-28.959-31.888c-1.03-1.132-1.539-2.592-1.43-4.11c0.11-1.516,0.826-2.888,2.012-3.862h0.003
		l60.259-49.33c2.298-1.885,5.84-1.809,8.068,0.178l72.039,64.86c1.125,1.006,1.786,2.399,1.862,3.915
		c0.076,1.521-0.445,2.975-1.469,4.095l-28.602,31.432C468.672,131.869,467.133,132.492,465.59,132.492z M420.319,88.891
		c1.484,0,2.969,0.523,4.109,1.561l40.672,36.911c0.299,0.271,0.765,0.247,1.036-0.047l28.605-31.434
		c0.174-0.192,0.189-0.407,0.183-0.518c-0.003-0.11-0.043-0.32-0.229-0.486L422.66,30.019c-0.411-0.366-1.225-0.376-1.643-0.034
		l-60.256,49.329c-0.165,0.134-0.21,0.291-0.216,0.399c-0.009,0.107,0.012,0.268,0.155,0.425l28.959,31.887
		c0.29,0.315,0.835,0.344,1.167,0.066l25.533-21.766C417.481,89.368,418.898,88.891,420.319,88.891z"/>
	<path fill="#FFDB4F" d="M477.707,30.932c-0.259,7.019-6.161,12.5-13.187,12.238c-7.023-0.259-12.503-6.17-12.238-13.187
		c0.262-7.023,6.164-12.5,13.187-12.235C472.495,18.007,477.969,23.909,477.707,30.932"/>
	<path d="M465.008,45.649c-0.192,0-0.387-0.003-0.579-0.011c-4.054-0.149-7.809-1.871-10.57-4.848s-4.197-6.847-4.045-10.9
		c0.152-4.055,1.871-7.809,4.846-10.569c2.972-2.76,6.806-4.217,10.903-4.043c4.054,0.149,7.809,1.87,10.567,4.845
		c2.758,2.973,4.197,6.844,4.045,10.9c-0.149,4.055-1.871,7.809-4.843,10.569C472.5,44.221,468.855,45.649,465.008,45.649z
		 M464.981,20.209c-2.594,0-5.051,0.963-6.959,2.734c-2.009,1.862-3.17,4.395-3.271,7.132c-0.104,2.736,0.866,5.346,2.728,7.355
		c1.862,2.009,4.395,3.17,7.132,3.27c2.743,0.105,5.349-0.869,7.358-2.729c2.006-1.862,3.167-4.395,3.267-7.131l0,0
		c0.104-2.739-0.866-5.351-2.728-7.356c-1.862-2.006-4.395-3.167-7.132-3.267C465.246,20.212,465.112,20.209,464.981,20.209z"/>
	<path fill="#FFDB4F" d="M458.069,36.332c-0.265,7.016-6.17,12.5-13.193,12.238c-7.023-0.259-12.497-6.164-12.238-13.187
		c0.259-7.023,6.164-12.503,13.187-12.241C452.85,23.404,458.328,29.309,458.069,36.332"/>
	<path d="M445.358,51.048c-0.192,0-0.381-0.003-0.573-0.011c-4.057-0.149-7.809-1.87-10.57-4.845
		c-2.758-2.973-4.194-6.844-4.045-10.901c0.149-4.055,1.871-7.81,4.843-10.572c2.978-2.76,6.873-4.194,10.903-4.048
		c8.37,0.312,14.929,7.378,14.621,15.75v0.002C460.229,44.602,453.475,51.048,445.358,51.048z M445.34,25.602
		c-2.594,0-5.054,0.965-6.965,2.739c-2.006,1.864-3.167,4.397-3.267,7.134c-0.207,5.651,4.215,10.417,9.86,10.625
		c5.596,0.18,10.418-4.214,10.631-9.862c0.207-5.651-4.218-10.418-9.866-10.628C445.602,25.605,445.471,25.602,445.34,25.602z"/>
</g>
<g>
	<path fill="#FFDB4F" d="M311.956,42.564c-1.754-0.03-3.255,1.38-3.313,3.136l-1.294,36.307c-0.061,1.759,1.325,3.225,3.088,3.258
		l60.028,1.158c1.76,0.039,3.149-1.374,3.075-3.129l-1.501-36.413c-0.079-1.764-1.578-3.225-3.335-3.258L311.956,42.564z"/>
	<path d="M370.533,88.894c-0.04,0-0.082,0-0.122,0l-60.021-1.158c-1.518-0.029-2.932-0.652-3.975-1.753
		c-1.042-1.102-1.588-2.544-1.536-4.061l1.295-36.309c0.101-3.094,2.755-5.537,5.825-5.518h0.003l56.747,1.059
		c3.091,0.059,5.617,2.527,5.758,5.617l1.503,36.422c0.064,1.513-0.503,2.996-1.554,4.068
		C373.431,88.303,372.008,88.894,370.533,88.894z M311.902,45.035c-0.408,0-0.777,0.346-0.789,0.747l-1.295,36.314
		c-0.009,0.233,0.094,0.395,0.186,0.489c0.088,0.093,0.244,0.206,0.482,0.21l60.03,1.158c0.213,0,0.341-0.081,0.415-0.154
		c0.07-0.072,0.152-0.2,0.143-0.401l-1.503-36.414c-0.018-0.453-0.454-0.882-0.911-0.89l-56.744-1.059
		C311.911,45.035,311.905,45.035,311.902,45.035z"/>
</g>
<g>
	<path fill="#FFDB4F" d="M566.159,60.333l-14.779-37.6c-0.637-1.636-2.506-2.453-4.154-1.817L472.612,49.89
		c-1.639,0.637-2.553,2.531-2.032,4.214l10.727,34.701c0.512,1.679,2.303,2.597,3.973,2.038l16.561-5.556l4.089,33.621
		c0.209,1.754,1.804,2.934,3.539,2.64l33.343-5.721c1.735-0.3,2.981-1.973,2.759-3.724l-4.944-39.832l23.658-7.94
		C565.96,63.766,566.802,61.969,566.159,60.333"/>
	<path d="M508.93,124.065c-1.186,0-2.326-0.376-3.286-1.094c-1.216-0.908-1.984-2.246-2.167-3.769l-3.722-30.609l-13.689,4.592
		c-1.451,0.485-2.993,0.369-4.343-0.329c-1.347-0.693-2.335-1.878-2.777-3.33l-10.726-34.692c-0.899-2.899,0.671-6.149,3.499-7.245
		l74.615-28.974c2.923-1.128,6.215,0.314,7.349,3.223l14.774,37.592c0.561,1.423,0.518,2.964-0.122,4.339
		c-0.64,1.379-1.798,2.411-3.258,2.905l-21.747,7.298l4.694,37.827c0.387,3.037-1.762,5.939-4.788,6.463l-33.348,5.723
		C509.567,124.037,509.247,124.065,508.93,124.065z M503.931,81.981l4.453,36.628c0.024,0.219,0.131,0.34,0.219,0.404
		c0.085,0.066,0.25,0.13,0.454,0.101l33.339-5.721c0.433-0.075,0.78-0.541,0.725-0.978l-5.194-41.841l25.573-8.583
		c0.207-0.07,0.308-0.204,0.354-0.305c0.046-0.096,0.082-0.251,0.006-0.448l-14.777-37.6c-0.146-0.373-0.585-0.561-0.963-0.416
		l-74.615,28.973c-0.427,0.166-0.704,0.739-0.567,1.178l10.729,34.703c0.07,0.223,0.21,0.334,0.32,0.39
		c0.107,0.056,0.28,0.11,0.509,0.035L503.931,81.981z"/>
</g>
<g>
	<path fill="#FFDB4F" d="M548.079,73.393c-1.264,1.22-1.252,3.221,0.025,4.435l29.192,27.806c1.273,1.217,3.308,1.164,4.523-0.112
		l18.858-19.788c1.211-1.277,3.274-1.351,4.585-0.169l43.04,38.974c1.308,1.174,3.318,1.055,4.466-0.284l26.071-30.178
		c1.152-1.336,1.018-3.38-0.3-4.554l-74.492-66.081c-1.314-1.167-3.43-1.117-4.691,0.109L548.079,73.393z"/>
	<path d="M650.393,127.815c-1.384,0-2.701-0.503-3.74-1.439l-43.05-38.979c-0.317-0.287-0.85-0.27-1.134,0.037l-18.861,19.792
		c-1.049,1.097-2.46,1.721-3.978,1.757c-1.53-0.047-2.951-0.521-4.042-1.564l-29.191-27.802c-1.113-1.061-1.725-2.483-1.731-4.007
		c-0.003-1.515,0.594-2.932,1.689-3.99l51.276-49.841c2.176-2.112,5.788-2.196,8.056-0.187l74.49,66.082
		c2.323,2.067,2.563,5.662,0.533,8.015l-26.076,30.181c-0.984,1.146-2.362,1.835-3.871,1.932
		C650.64,127.812,650.515,127.815,650.393,127.815z M603.055,82.257c1.384,0,2.771,0.488,3.862,1.475l43.044,38.975
		c0.168,0.149,0.372,0.172,0.482,0.166c0.125-0.008,0.302-0.053,0.451-0.227l26.079-30.184c0.271-0.314,0.238-0.815-0.076-1.093
		L602.409,25.29c-0.347-0.309-0.997-0.291-1.332,0.032l-51.282,49.847c-0.155,0.149-0.186,0.314-0.186,0.427
		c0,0.117,0.037,0.288,0.198,0.445L579,103.844c0.18,0.171,0.384,0.215,0.515,0.2c0.116-0.003,0.335-0.037,0.515-0.227
		l18.858-19.788C600.004,82.853,601.528,82.257,603.055,82.257z"/>
	<path fill="#FFDB4F" d="M658.898,32.556c-0.265,7.023-6.17,12.503-13.187,12.241c-7.023-0.265-12.51-6.174-12.244-13.19
		c0.262-7.026,6.164-12.503,13.19-12.238C653.679,19.628,659.157,25.533,658.898,32.556"/>
	<path d="M646.193,47.277c-0.192,0-0.381-0.003-0.573-0.011c-4.057-0.154-7.812-1.876-10.573-4.851
		c-2.765-2.976-4.2-6.849-4.048-10.901c0.152-4.057,1.871-7.81,4.846-10.57c2.975-2.761,6.8-4.212,10.906-4.043
		c8.367,0.309,14.923,7.372,14.615,15.746v0.002C661.058,40.829,654.307,47.277,646.193,47.277z M646.169,21.83
		c-2.594,0-5.054,0.963-6.962,2.734c-2.009,1.862-3.17,4.395-3.27,7.134c-0.104,2.736,0.866,5.346,2.731,7.355
		c1.865,2.009,4.398,3.171,7.138,3.275c5.575,0.186,10.406-4.214,10.622-9.865l0,0c0.101-2.737-0.869-5.351-2.731-7.358
		c-1.862-2.006-4.395-3.167-7.132-3.267C646.434,21.834,646.3,21.83,646.169,21.83z"/>
	<path fill="#FFDB4F" d="M637.674,33.957c-0.265,7.023-6.167,12.503-13.187,12.241c-7.019-0.265-12.503-6.167-12.238-13.19
		c0.256-7.023,6.158-12.506,13.18-12.241C632.453,21.032,637.933,26.937,637.674,33.957"/>
	<path d="M624.97,48.677c-0.192,0-0.381-0.003-0.573-0.011c-8.376-0.317-14.932-7.382-14.615-15.752
		c0.149-4.055,1.868-7.81,4.843-10.573c2.972-2.758,6.782-4.209,10.9-4.043c8.37,0.317,14.926,7.382,14.618,15.75v0.002
		C639.835,42.229,633.084,48.677,624.97,48.677z M624.939,23.228c-2.588,0-5.044,0.963-6.953,2.734
		c-2.009,1.864-3.167,4.398-3.267,7.135c-0.213,5.651,4.209,10.418,9.863,10.631c5.59,0.186,10.409-4.214,10.622-9.865
		c0.207-5.648-4.218-10.415-9.869-10.628C625.204,23.231,625.073,23.228,624.939,23.228z"/>
</g>
<g>
	<path fill="#FFDB4F" d="M654.979,45.446c-1.768,0.09-3.104,1.601-2.986,3.356l2.092,30.588c0.124,1.755,1.654,3.122,3.419,3.035
		l57.121-2.77c1.762-0.083,3.061-1.587,2.887-3.341l-2.971-30.641c-0.164-1.748-1.745-3.12-3.503-3.027L654.979,45.446z"/>
	<path d="M657.346,84.899c-2.972,0-5.511-2.339-5.724-5.336l-2.094-30.593c-0.101-1.519,0.396-2.978,1.402-4.112
		c1.009-1.135,2.402-1.803,3.926-1.881h0.003l56.059-2.801c3.021-0.166,5.794,2.199,6.084,5.262l2.972,30.635
		c0.149,1.522-0.314,2.998-1.308,4.148c-0.994,1.151-2.387,1.824-3.92,1.897l-57.122,2.771
		C657.531,84.896,657.437,84.899,657.346,84.899z M655.105,47.914L655.105,47.914c-0.241,0.012-0.393,0.13-0.482,0.227
		c-0.082,0.094-0.183,0.259-0.165,0.495l2.091,30.584c0.027,0.418,0.424,0.727,0.832,0.738l57.125-2.771
		c0.219-0.011,0.347-0.11,0.418-0.192c0.07-0.081,0.149-0.223,0.128-0.437l-2.972-30.648c-0.043-0.436-0.503-0.832-0.911-0.797
		L655.105,47.914z"/>
</g>
</svg>
