<?xml version="1.0" encoding="utf-8"?>
<!-- Generator: Adobe Illustrator 27.2.0, SVG Export Plug-In . SVG Version: 6.00 Build 0)  -->
<svg version="1.1" id="레이어_1" xmlns="http://www.w3.org/2000/svg" xmlns:xlink="http://www.w3.org/1999/xlink" x="0px"
	 y="0px" viewBox="0 0 720 409.459" enable-background="new 0 0 720 409.459" xml:space="preserve">
<g>
	<path d="M270.5,22.493c1.713,2.379,3.27,4.39,4.442,5.632c1.749,1.977,2.082,2.588,2.082,5.282c0,0.84-0.052,2.641-2.397,2.641
		c-0.664-0.07-1.801-0.682-2.414-0.979c-0.63-0.263-6.017-1.715-12.278-1.715c-5.021,0-6.525,1.4-6.525,3.114
		c0,2.274,4.775,3.83,9.113,3.83c1.452,0,2.344-0.262,2.449-0.315c1.014-0.262,1.381-0.367,1.75-0.367
		c1.818,0,5.02,1.854,5.02,3.778c0,1.871-2.589,3.114-5.44,3.114c-8.168,0-15.252-4.513-15.252-9.218c0-0.42,0.053-0.77,0.141-1.084
		c1.189-3.516,4.862-4.356,8.902-5.195c3.516-0.665,8.063-0.665,10.197-1.172c0.717-0.21,0.979-0.315,0.979-0.612
		c0-0.612-1.294-2.956-2.99-5.702c-6.926,3.043-7.714,3.148-9.271,3.148c-3.428,0-8.238-2.221-8.238-4.862v-0.105
		c0-1.452,0.333-1.767,0.578-1.767c0.263,0,0.525,0.315,0.665,0.525c0.105,0.175,0.262,0.315,0.472,0.472
		c0.927,0.717,3.201,1.085,5.265,1.085c1.732,0,3.9-0.263,8.552-1.662c-0.874-1.382-1.819-2.834-2.781-4.285
		c-0.891,0.402-3.165,1.189-4.88,1.189c-1.854,0-6.472-1.609-7.189-5.859c0-0.105-0.052-0.157-0.052-0.21
		c0-0.192,0.158-0.297,0.263-0.297c0.157,0,0.35,0.105,0.559,0.263c1.452,1.084,3.271,1.242,5.125,1.242
		c1.137,0,2.186-0.105,3.411-0.367c-1.4-2.081-2.729-3.936-3.813-5.422c-0.578-0.734-1.715-1.102-2.537-1.102
		c-0.42,0-0.734,0.052-0.891,0.21c-0.298,0.263-0.507,0.402-0.665,0.402c-0.052,0-0.105-0.088-0.105-0.193
		c0-0.21,0.105-0.525,0.209-0.874c0.77-2.134,2.222-2.554,4.967-2.554c2.887,0,3.831,1.312,3.936,3.008
		c0.052,0.77,0.209,1.347,0.455,2.221c0.367,1.102,0.839,2.222,1.4,3.428c0.105-0.052,1.924-0.717,2.379-1.102
		c0.175-0.105,0.332-0.262,0.576-0.314c0.158-0.035,0.421-0.035,0.77-0.035c2.501,0,2.851,1.242,2.851,2.081
		c0,0.91-0.052,1.382-4.46,3.359c0.839,1.487,1.767,2.991,2.711,4.443c1.4-0.507,2.117-0.997,2.361-1.224
		c0.106-0.122,0.158-0.28,0.158-0.385c0-0.665-1.242-1.504-2.326-2.221c-0.052,0-0.525-0.297-0.525-0.507
		c0-0.105,0.123-0.157,0.227-0.157c0.158,0,0.35,0.087,0.559,0.157c1.4,0.559,3.114,1.119,4.775,1.172
		c0.298,0,0.665-0.105,0.962-0.105h0.263c0.945,0.21,1.662,0.315,1.662,1.924c0,1.557-1.243,2.221-2.641,2.799L270.5,22.493z"/>
	<path d="M317.534,30.091c0.209-0.052,0.314-0.052,0.42-0.052c0.105,0,0.263,0,0.402,0.052c1.049,0.262,2.379,1.609,2.379,3.515
		c0,1.767-1.329,2.606-2.991,2.606c-1.661,0-3.148-0.892-3.672-1.207c-3.062,4.198-4.654,5.44-6.927,5.44
		c-0.944,0-1.766-0.315-2.396-0.84c-2.833-2.169-3.883-3.673-3.883-5.212c0-1.802,0.979-3.148,5.946-8.588
		c-1.119-3.061-1.854-6.926-1.854-11.807c0-0.84,0-1.696,0.07-2.641c0-0.717,0-1.451-0.123-2.169
		c-0.052-0.367-0.105-0.717-0.105-0.944c0-0.157,0-0.297,0.105-0.297c0.298,0,2.029,1.802,2.432,5.02
		c0.209,4.355,0.979,7.661,2.186,10.197c2.99-2.746,6.366-5.23,9.777-6.892c0.315-0.927,0.421-1.802,0.421-2.431
		c0-3.253-1.767-3.358-2.501-3.358c-0.367,0-0.717,0.052-1.032,0.105c-0.298,0.052-0.559,0.105-0.77,0.105
		c-0.263,0-0.367-0.052-0.367-0.21c0-0.28,1.242-2.396,4.356-2.396c1.907,0,5.335,2.029,5.335,5.229
		c0,0.385-0.052,0.787-0.158,1.242c0.717-0.088,1.383-0.14,2.117-0.14c6.734,0,15.007,5.02,15.007,12.821
		c0,14.553-24.854,17.561-26.604,17.561c-0.315,0-0.472,0-0.472-0.105c0-0.175,0.524-0.42,1.504-0.734
		c7.923-2.641,19.1-9.83,19.1-18.331c0-4.897-3.672-9.148-9.428-9.148c-0.612,0-1.277,0.053-1.907,0.157
		c-1.346,3.516-3.883,8.798-6.611,13.451H317.534z M307.861,28.29c-2.483,3.358-2.658,4.547-2.658,5.125
		c0,1.539,1.206,2.064,1.609,2.116c0.227,0.052,0.385,0.052,0.578,0.052c1.312,0,1.871-0.63,3.586-2.991
		C309.82,31.438,308.788,30.039,307.861,28.29 M310.607,25.071c0.874,1.4,1.959,2.449,3.043,3.271
		c1.767-3.061,3.569-6.577,4.706-9.323C315.504,20.629,312.88,22.693,310.607,25.071"/>
	<path d="M368.291,40.598c-1.085,0-1.767-0.105-1.767-0.262c0-0.14,0.542-0.297,1.767-0.455
		c11.439-1.347,24.015-8.396,24.015-16.406c0-4.443-3.97-5.895-7.032-5.895c-4.828,0-8.552,3.201-12.121,6.524
		c-1.346,1.172-2.466,2.361-3.201,3.026c-1.715,1.504-2.833,2.239-5.265,2.239c-2.693,0-7.976-1.644-7.976-4.81
		c0-0.052,0-0.787,0.263-0.787c0.14,0,0.298,0.122,0.507,0.157c0.84,0.227,1.854,0.525,3.008,0.525c1.644,0,3.97-0.945,8.274-3.253
		c6.839-3.568,11.387-5.789,16.354-5.789c4.915,0,13.661,2.833,13.661,9.2c0,7.294-9.096,15.986-29.245,15.986H368.291z"/>
	<path d="M421.268,35.123c-3.83,0-5.142-6.139-5.142-7.433c0-6.21,7.539-13.258,14.745-13.258c7.346,0,12.313,5.65,12.313,11.002
		c0,3.166-1.626,6.349-5.352,9.095c-3.411,2.537-10.214,4.373-12.156,4.373c-0.07,0-0.105-0.035-0.105-0.035
		c0-0.053,0.489-0.28,1.329-0.647c4.88-2.169,11.981-7.748,11.981-14.01c0-4.828-3.778-8.186-8.589-8.186
		c-0.472,0-1.381,0.105-2.36,0.314c0.034,0.035,2.623,1.679,2.623,4.268c0,0.874-0.192,1.294-0.874,2.589
		c-1.066,2.029-3.271,5.58-4.425,7.941C424.277,33.27,423.298,35.123,421.268,35.123 M418.593,26.063
		c0,2.746,1.836,4.565,2.431,4.565c0.28,0,0.578-0.193,0.857-0.49c0.91-0.927,4.46-7.818,4.967-10.354
		c0.122-0.542,0.14-1.049,0.14-1.557c0-0.577-0.052-1.119-0.21-1.557C422.545,18.087,418.593,22.058,418.593,26.063"/>
	<path d="M473.937,3.926c0.122-0.437,1.696-0.717,3.41-0.717c6.454,0,8.921,2.974,8.921,6.052c0,2.064-1.574,3.358-3.288,3.358
		c-0.244,0-0.524-0.052-0.787-0.122c-1.644-0.437-2.764-1.504-4.373-1.714c-0.227,0-0.525-0.07-0.857-0.07
		c-3.463,0-5.877,2.082-5.877,5.44c0,0.28,0,0.508,0.052,0.665c0.175,0.839,0.559,1.626,1.172,2.361
		c15.426-7.521,17.84-8.028,23.053-8.028c10.354,0,11.195,4.932,11.195,6.506c0,3.481-4.128,9.935-14.448,9.935
		c-8.518,0-14.972-4.163-14.972-4.548c0-0.052,0-0.052,0.069-0.052c0.14,0,0.875,0.28,1.487,0.385
		c1.854,0.402,4.425,0.787,7.137,0.787c10.529,0,13.905-5.597,13.905-7.731c0-2.589-2.589-3.253-6.052-3.253
		c-6.576,0-13.293,5.16-18.576,9.305c14.693,15.48,14.693,18.436,14.693,21.357c0,1.977-0.438,5.16-3.096,5.16
		c-1.155,0-2.117-0.945-2.572-2.694c-1.451-6.314-6.891-15.584-11.544-21.794c-2.904,2.519-4.863,3.411-7.521,3.411
		c-4.024,0-7.609-2.414-7.609-4.32c0-0.105,0.263-1.504,0.734-1.959c0.088-0.157,0.21-0.227,0.263-0.227
		c0.175,0,0.297,0.175,0.349,0.385c0.106,0.175,0.21,0.682,0.385,0.735c0.664,0.227,1.4,0.28,2.116,0.28
		c3.096,0,5.107-0.84,8.257-2.239c-2.186-2.414-2.624-4.81-2.624-6.279c0-1.015,0.21-4.933,3.586-4.933
		c0.612,0,1.346,0.105,2.308,0.28c0.717,0.105,1.329,0.175,1.89,0.175c2.746,0,4.093-1.574,4.093-2.799
		c0-0.839-0.682-2.588-3.586-2.658c-0.175,0-1.294,0-1.294-0.385V3.926z"/>
	<path d="M533.789,19.523c-0.07,0.839-0.123,1.732-0.123,2.676c0,9.935,4.373,13.118,7.346,13.118c2.799,0,3.481-1.155,7.906-10.32
		c0.455-0.927,0.734-1.277,0.839-1.277c0.07,0,0.123,0.122,0.123,0.35c0,0.315-0.052,0.822-0.175,1.33
		c-0.385,2.186-0.787,4.758-0.787,7.119c0,2.134,0.28,3.656,1.014,5.16c0.175,0.28,0.227,0.612,0.227,0.91
		c0,0.717-0.682,3.183-5.003,3.183c-2.571,0-4.984-0.857-7.119-1.96c-6.822-3.585-9.236-11.666-9.918-19.117
		c-0.175-1.802-0.612-6.227-1.976-7.241c-0.158-0.105-0.56-0.262-0.665-0.489v-0.07c0-0.438,1.452-0.56,1.452-0.56
		c2.257,0,6.857,3.131,6.857,6.717V19.523z M566.584,28.88c-1.522-0.909-4.496-1.119-6.997-1.119c-1.137,0-2.186,0.035-2.921,0.105
		c-0.227,0-0.402,0.052-0.578,0.052c-0.263,0-0.384-0.052-0.384-0.157c0-0.105,0.507-0.402,0.839-0.577
		c6.769-2.624,8.08-3.114,8.08-4.425c0-2.134-3.322-6.279-6.611-6.612c-1.137-0.105-1.469-0.28-1.469-0.455
		c0-0.227,1.4-0.787,3.428-0.787c4.775,0,9.918,3.376,12.209,7.696c0.227,0.507,0.402,1.347,0.402,2.134
		c0,0.438-0.052,4.863-3.376,4.863C568.333,29.598,567.371,29.318,566.584,28.88"/>
	<path d="M593.56,6.839c2.572,0,5.983,4.722,5.983,8.011c0,2.484-0.997,6.629-1.556,9.095c-0.578,2.239-1.504,6.052-1.504,8.361
		c0,0.735,0.157,1.557,0.489,1.557c0.175,0,0.508-0.385,0.84-1.47c1.574-4.688,4.32-10.862,4.617-10.862
		c0.035,0,0.035,0.053,0.035,0.157c0,0.297-0.158,1.032-0.332,1.697c-1.575,6.157-1.89,11.772-1.89,15.13
		c0,1.696,0.035,3.306,0.035,4.32c0,2.799-1.732,3.148-2.693,3.148c-3.131,0-5.265-6.734-5.265-10.267
		c0-1.959,0.28-4.251,0.717-7.346c0.298-2.186,0.734-4.653,1.085-6.997c0.384-2.414,0.664-4.722,0.734-6.559
		c0-0.91-0.07-5.737-1.592-7.014c-0.105-0.122-0.612-0.455-0.612-0.682V7.066c0-0.122,0.227-0.227,0.839-0.227H593.56z
		 M625.568,41.611c0.175-0.227,0.385-0.507,0.385-0.787c0-0.612-2.361-1.959-2.904-2.239c-0.507,0.787-3.866,5.877-9.55,5.877
		c-3.9,0-7.486-3.201-7.486-5.825c0-0.612,0.088-4.652,10.145-4.652c1.277,0,2.501,0.105,3.691,0.227
		c0.944-2.361,1.171-4.828,1.171-7.469v-0.962c0-2.186-0.174-5.037-0.28-8.011c-2.396,0.84-4.88,1.907-7.294,2.763
		c-0.664,0.21-1.661,0.438-2.676,0.438c-2.186,0-6.559-0.84-6.559-3.306c0-0.175,0.053-0.28,0.158-0.28
		c0.332,0,0.962,0.437,1.521,0.49h0.665c2.256,0,4.32-0.77,7.014-1.784l7.119-2.641c-0.28-4.373-0.455-7.836-3.253-7.836h-0.49
		c-0.35,0-0.472-0.07-0.472-0.175c0-0.385,1.136-2.344,2.921-2.344c2.641,0,6.629,2.624,6.629,5.107
		c0,0.437-0.069,0.927-0.244,1.557c-0.088,0.402-0.088,0.682-0.14,1.067l-0.07,0.437c0.613,0.123,0.945,0.175,1.679,0.175h0.578
		c0.664,0,4.688,0.122,4.688,2.746c0,1.294-1.172,1.802-2.186,1.906c-0.892,0.07-2.449,0.175-3.359,0.333
		c-0.542,0.175-1.12,0.297-1.627,0.402c-0.105,2.134-0.175,4.268-0.175,6.384v2.186c0.07,1.837,0.123,3.428,0.123,4.933
		c0,2.239-0.175,3.253-0.682,4.775c1.242,0.333,10.775,3.078,10.775,7.731c0,1.521-1.172,2.484-2.869,2.484
		c-1.172,0-2.921-0.402-3.849-0.578c-0.455-0.105-1.014-0.105-1.574-0.105c-0.298,0-2.537,0-5.895,0.944
		c-0.507,0.175-0.787,0.227-1.014,0.227h-0.105c-0.158,0-0.227-0.052-0.227-0.122c0-0.105,0.384-0.367,0.891-0.717
		c1.015-0.507,4.425-2.624,4.652-3.096c0-0.052,0.053-0.087,0.053-0.087L625.568,41.611z M613.011,35.944
		c-1.12,0-5.038,0.56-5.038,2.186c0,0.682,1.277,2.081,4.075,2.081c2.974,0,4.95-1.399,6.402-3.376
		C616.718,36.276,614.847,35.996,613.011,35.944 M630.327,7.573c-1.662-2.693-2.676-3.865-4.635-4.652
		c-0.123-0.052-0.175-0.052-0.175-0.122c0-0.053,0.227-0.105,0.332-0.157c0.455-0.123,1.015-0.175,1.504-0.175
		c1.189,0,6.07,0.333,6.07,3.691c0,1.364-0.91,2.186-1.802,2.186C631.113,8.343,630.676,8.133,630.327,7.573 M634.874,5.002
		c-2.537-3.306-2.695-3.655-4.654-4.39c-0.157-0.053-0.332-0.105-0.332-0.21c0-0.07,0.105-0.123,0.263-0.175
		C630.728,0.122,631.393,0,632.075,0c1.732,0,5.825,0.507,5.825,3.655c0,1.504-1.189,2.064-1.679,2.064
		C635.783,5.719,635.259,5.492,634.874,5.002"/>
</g>
<g>
	<path d="M719.836,56.637H506.27v41.261h81.998c-1.767,23.561-4.863,50.566-9.568,50.462c-10.32-5.195-30.662-14.57-40.054-18.75
		c-12.944-5.563-26.587-9.2-28.878-9.288c-0.665,0-1.312,0.297-1.33,0.944c0,0.997,0.315,0.997,4.128,3.726
		c11.597,7.503,36.678,24.19,55.813,42.713c4.145,3.708,5.353,6.682,5.248,10.6c-0.123,4.583-16.267,82.015-98.318,129.521
		c-1.031,0.612-8.973,4.985-9.008,5.65c-0.017,0.665,0.281,2.291,2.554,2.361c1.295,0.018,16.81-4.477,36.382-15.06
		c20.587-10.897,58.857-35.052,85.112-98.789c0.716-1.942,2.081-4.513,4.006-4.46c4.285,0.105,11.683,16.319,14.15,22.616
		c9.235,21.514,10.145,23.823,17.981,24.05c8.501,0.21,13.293-7.836,13.521-15.043c0.524-20.254-14.973-39.634-30.889-56.426
		c-5.09-5.37-6.979-7.731-6.839-13.276c0.017-0.647,6.297-39.075,7.136-45.932c0.473-3.481,1.224-9.445,2.065-15.62h39.074h24.436
		c0,55.114,0,105.594-3.603,132.512c-4.863,35.104-10.757,39.459-28.948,39.459c-11.789,0-19.992-2.309-25.642-3.848l10.792,49.203
		c31.256,0.787,67.393,1.802,79.182-38.166C719.066,235.255,720.604,104.318,719.836,56.637"/>
	<path d="M220.876,270.738c-1.696,0-10.757-1.469-11.737-1.469c-1.451,0-1.451,0.734-1.451,1.714c0,2.186,3.182,18.82,7.328,18.82
		c0.98,0,4.408-4.39,5.632-5.125c1.696-0.979,33.25-7.591,33.985-7.591c2.939,0,3.183,0.997,4.145,6.122
		c0.98,4.407,4.652,5.142,5.387,5.142c5.37,0,9.533-6.367,9.533-10.774c0-14.413-19.556-24.208-22.249-24.208
		c-0.734,0-0.979,0.507-0.979,0.979c0,0.734,1.469,3.428,1.696,4.162c1.732,3.918,2.712,7.101,2.712,9.043
		c0,1.715-0.49,2.938-2.939,3.428c-2.938,0.49-13.923,0.734-15.392,0.734c-1.242,0-4.915,0-4.915-2.204
		c0-0.962,0.507-1.696,4.408-8.063c9.532-15.654,10.775-17.368,13.45-18.575c4.652-1.469,6.122-2.204,6.122-4.897
		c0-1.959-0.98-2.449-8.063-5.859c-0.997-0.508-10.775-5.142-12.244-5.142c-0.962,0-1.225,0.489-1.225,1.224
		c0,0.49,0.263,3.183,0.263,3.919c0,4.39-3.673,20.272-4.408,22.965C225.774,270.738,225.039,270.738,220.876,270.738
		 M305.306,290.153c-0.367-1.277-2.274-2.537-7.871-7.067c-5.493-4.145-5.493-5.509-7.224-19.939
		c-0.332-2.414-2.064-16.861-3.795-16.861c-0.682,0-2.746,20.289-3.778,24.067c-3.411,14.833-8.203,20.552-14.535,23.054
		c-26.849,2.134-58.945,2.658-63.703-8.903c-8.08-19.538,1.435-59.662,1.435-59.662h85.584V92.172h-118.31
		c3.148-7.748,3.446-8.606,4.006-10.303c7.452-2.588,8.885-4.023,8.885-6.594c0-2.869-2.571-4.023-4.862-4.32l-52.736-4.285
		c-1.137,5.737-2.291,11.754-8.589,25.502h-52.84v132.669l51.004-0.175c0.105,0.997,0.21,2.029,0.28,3.166
		c0.805,12.821-3.673,33.968-8.955,48.94C97.688,311.247,73.183,358.21,0,402.323l2.028,7.136
		c64.595-29.945,109.197-72.658,129.137-145.14c5.107-18.068,5.422-20.289,15.164-27.566l0.788-1.819l-12.611-10.32l28.58-0.088
		v73.375c0,20.919,9.726,33.81,38.393,33.81H258.5c24.662,0,35.332-6.979,42.468-26.184c1.679-3.813,3.149-8.431,4.356-14.203
		c0.07-0.28,0.088-0.542,0.052-0.787c0.035-0.14,0.07-0.245,0.105-0.368C305.446,290.17,305.358,290.17,305.306,290.153
		 M162.789,196.628h-48.1c-10.337,0-10.337-2.134-10.337-22.826c0-11.264,1.206-13.713,10.022-13.713h48.415
		c10.039,0,10.039,3.061,10.039,19.502C172.828,193.602,172.828,196.628,162.789,196.628 M163.104,152.184h-49.623
		c-9.743,0-9.743-2.414-9.743-16.424c0-17.351,0-19.188,9.743-19.188h49.623c9.724,0,9.724,2.134,9.724,17.054
		C172.828,150.05,172.828,152.184,163.104,152.184 M203.577,116.572h48.1c10.635,0,10.635,3.656,10.635,18.593
		c0,12.769,0,17.019-10.635,17.019h-48.415c-10.651,0-10.651-4.863-10.651-15.217C192.611,120.228,192.611,116.572,203.577,116.572
		 M192.611,178.665c0-13.678,0-18.575,10.966-18.575h48.1c10.635,0,10.635,4.583,10.635,17.98c0,14.011,0,18.558-10.635,18.558
		h-48.1C192.611,196.628,192.611,192.081,192.611,178.665"/>
	<path d="M518.174,162.904c-26.115,0-43.343,20.429-43.343,40.842c0,18.295,13.223,29.227,20.692,29.227
		c11.912,0,24.331-29.14,25.677-55.604c18.54,2.309,18.54,17.841,18.54,20.516c0,9.498-5.685,23.176-24.942,26.202
		c4.18,5.405,8.151,12.611,8.955,14.203c4.635-1.505,11.999-3.988,18.576-10.478c12.331-11.998,13.416-23.368,13.416-30.102
		C555.745,176.302,539.408,162.904,518.174,162.904 M505.091,210.094c-6.298,9.813-8.519,10.949-11.247,10.985
		c-5.703,0.088-8.238-8.186-8.326-14.255c-0.246-17.648,17.771-29.945,26.656-30.085c1.224-0.018,1.592,0.437,1.679,6.034
		C513.977,192.044,509.918,202.451,505.091,210.094"/>
	<path d="M286.939,115.551c5.457,4.407,10.268,13.013,13.206,18.89c4.845,10.285,5.055,10.285,8.395,10.285
		c3.569,0,7.977-3.148,7.977-9.865c0-16.372-21.83-20.989-31.047-21.409C285.033,114.081,285.471,114.501,286.939,115.551
		 M299.515,65.596c0.84,0.647,11.124,8.623,16.792,18.069c5.247,8.815,5.877,9.637,8.587,9.637c1.907,0,8.413-1.889,8.413-10.477
		c0-16.389-23.91-19.328-33.163-19.328c-1.049,0-1.889,0.227-2.099,0.437C297.854,64.774,298.676,65.194,299.515,65.596
		 M481.894,154.503c3.359-0.437,5.877-0.647,5.877-2.729c0-2.326-1.679-2.956-4.198-3.795l-26.447-8.798
		c-1.678,7.329-4.18,19.52-9.445,33.985c-0.822-12.156-1.469-27.898-1.469-42.591h38.41V101.82h-10.74
		c0.298-0.804,0.49-1.662,0.49-2.641c0-11.754-15.515-21.391-26.848-21.391c-0.857,0-1.47,0.192-1.679,0.822
		c0,0.42,0.42,0.84,1.889,1.487c3.148,1.871,8.816,10.477,11.124,16.774c0.77,2.046,1.364,3.655,1.89,4.95h-28.563
		c-0.105-2.676-0.105-6-0.105-10.25c0-3.568,0.209-6.507,1.906-8.606c0.421-0.437,2.729-3.148,2.729-3.568
		c0-4.215-18.05-7.346-19.939-7.346c-0.63,0-1.662,0.192-1.662,1.242s1.662,5.457,1.871,6.524c0.49,2.624,1.12,15.182,1.347,22.004
		h-76.419v56.88c0,44.9-5.667,67.358-18.261,91.915c9.882,3.131,20.797,8.186,29.176,13.853c3.165-6.507,5.247-10.915,9.445-23.281
		c0.052,0,0.105,0,0.158,0.018c3.848-13.398,7.206-32.306,7.818-37.168l0.455-7.206c0.874,1.224,2.309,2.169,4.337,2.169
		c7.416,0,7.416-11.404,7.416-12.663c0-7.049-4.181-18.663-5.247-18.663c-0.367,0-0.367,0.368-0.559,1.645
		c-0.175,1.976-0.892,8.868-2.169,12.471c-0.315,0.997-1.994,4.285-3.305,7.241l1.171-18.785l0.123-20.115h37.798
		c3.726,0,6.384-0.088,7.748-1.014c0.524,7.503,1.189,15.024,2.082,23.612c-2.922-3.358-9.936-8.308-10.495-8.308
		c-0.524,0-1.259,2.361-1.976,4.355c-2.169,5.247-5.265,13.398-8.169,13.398c-1.609,0-1.609-2.361-1.609-3.621
		c0-4.897,0.35-14.5,0.892-15.392c0.384-0.559,3.27-3.078,3.27-3.813c0-2.886-14.308-4.705-15.391-4.705
		c-0.736,0-1.627,0.175-1.627,0.91c0,0.717,1.085,3.988,1.26,4.705c0.541,3.795,1.277,10.862,1.277,22.266
		c0,16.669-1.103,32.603-18.296,52.159c-0.717,0.542-3.621,3.27-3.988,4.162l0.175,0.542c1.277,0,16.844-7.049,26.796-27.321
		c2.712-5.457,2.904-5.982,4.356-5.982c2.712,0,5.072,5.247,5.982,8.308c2.361,7.609,2.519,8.343,5.422,8.343
		c3.079,0,6.175-2.903,6.175-7.609c0-5.789-2.904-8.326-11.597-11.404c-5.439-1.819-5.982-1.994-5.982-4.53
		c0-1.451,0.367-9.602,2.886-11.596c0.56-0.525,13.958-8.676,16.127-9.952c2.484-0.752,4.041-1.189,4.898-1.644l1.609,12.069
		c2.099,12.821,3.778,19.31,4.618,22.878c-5.388,7.277-11.247,14.955-21.864,24.103c0,0,0.017,0.035,0.034,0.035
		c-0.455,0.35-0.822,0.665-1.277,1.015c-4.127,3.498-8.99,7.206-14.815,11.194c9.2,4.6,17.369,10.267,26.167,18.208
		c3.568-2.292,11.963-8.378,24.365-23.298c1.871-2.484,4.373-6.017,6.908-9.707c0.123,0.175,0.227,0.314,0.35,0.507
		c6.716,9.865,22.861,28.126,33.163,28.126c3.551,0,6.699-1.679,6.699-5.877c0-1.679-2.274-9.69-2.711-11.544
		c-0.98-4.093-2.134-7.469-2.641-12.576c-0.035-0.21-0.227-1.049-0.63-1.049c-0.63,0-1.784,3.778-2.519,5.317
		c-4.407,9.393-9.672,3.568-10.302,2.921c-2.151-2.186-8.395-10.635-13.135-18.033c2.414-3.638,4.11-6.175,4.11-6.175
		C466.362,200.452,477.697,173.394,481.894,154.503 M403.762,133.339c-1.89,0-6.926,8.168-8.395,9.637
		c-0.84,1.049-1.243,1.469-9.026,1.469h-13.835l0.052-6.944v-6.927h44.27c0.297,5.02,0.576,9.708,0.874,14.325
		C414.204,140.685,404.619,133.339,403.762,133.339 M316.517,240.873c0-10.914,21.514-119.586,21.514-125.253
		c0-0.63-0.402-1.259-0.822-1.259c-0.84,0-1.469,1.032-1.907,2.291c-7.976,22.668-20.464,83.922-28.44,102.392
		c-6.507,15.112-7.767,15.322-21.83,16.162c-2.099,0.21-2.501,0.21-2.501,0.84c0,0.42,2.292,0.822,3.341,1.049
		c15.549,3.551,17.421,14.272,18.05,21.619c0.839,10.914,1.679,19.083,10.285,19.083c7.346,0,8.815-7.556,8.815-11.107
		c0-3.376-0.401-4.407-4.617-14.92C317.146,248.85,316.517,244.652,316.517,240.873"/>
</g>
</svg>
