<?xml version="1.0" encoding="utf-8"?>
<!-- Generator: Adobe Illustrator 27.2.0, SVG Export Plug-In . SVG Version: 6.00 Build 0)  -->
<svg version="1.1" id="레이어_1" xmlns="http://www.w3.org/2000/svg" xmlns:xlink="http://www.w3.org/1999/xlink" x="0px"
	 y="0px" viewBox="0 0 720 588.653" enable-background="new 0 0 720 588.653" xml:space="preserve">
<path fill="#FFFFFF" d="M685.95,292.661c0,149.36-121.07,270.43-270.43,270.43c-149.345,0-270.43-121.07-270.43-270.43
	c0-149.344,121.085-270.429,270.43-270.429C564.88,22.232,685.95,143.317,685.95,292.661"/>
<path d="M589.256,433.287c-2.472,2.711-5.582,1.579-6.969-2.344c-0.319,2.073-0.877,4.226-1.706,6.363
	c-0.894,2.089-1.993,4.194-3.237,6.315c-0.622,1.084-1.292,2.137-1.993,3.221c-0.718,1.037-1.515,2.057-2.313,3.094
	c-1.611,2.073-3.302,4.162-5.071,6.236c-7.272,8.053-15.612,15.692-21.847,23.299l-2.87-5.932c-0.367,1.499-1.069,3.03-2.121,4.401
	c-1.037,1.387-2.36,2.743-3.844,4.051c-1.515,1.308-3.125,2.679-4.911,3.859c-1.818,1.164-3.684,2.36-5.533,3.572
	c-7.464,4.704-14.927,8.978-16.761,15.022l-2.456-1.706c0,0-0.877,1.053-2.169,2.615c-1.308,1.563-3.158,3.477-5.008,5.486
	c-1.866,1.978-3.732,4.051-5.199,5.502c-1.451,1.435-2.456,2.392-2.456,2.392c-8.883,2.6-9.234-7.654-9.027-4.848
	c-4.465,2.073-8.818,3.763-12.933,5.406c-4.194,1.371-8.181,2.647-12.04,3.604c-3.875,0.829-7.559,1.467-11.099,1.85
	c-3.557,0.287-6.953,0.223-10.191-0.048c-0.797,4.433-5.98,7.702-13.06,10.397c-10.701,0.909-21.529,1.324-32.644,1.212
	c-2.217-0.064-4.449-0.128-6.714-0.191c-25.404-0.989-48.957-5.438-71.586-13.045c-22.565-7.718-44.332-18.434-65.605-33.504
	c-10.446-7.4-27.78-18.26-35.371-23.586l-20.955-15.485l-15.755-13.332c-2.121-2.169-4.784-4.656-7.591-7.224
	c-2.823-2.583-4.911-4.322-8.308-7.256c-3.142-2.727-6.315-5.773-9.552-8.643c-3.157-2.919-6.06-6.012-8.739-9.154l7.574,16.489
	c1.786,3.285,6.123,10.987,7.909,12.901c2.297,2.264,4.45,4.545,6.379,6.442c1.052,2.695,1.85,5.183,2.265,7.671
	c0.271,1.483,0.446,2.934,0.558,4.385l26.074,32.564l19.344,19.695c0.877,1.451,0.43,7.16,1.212,8.468
	c0.845,1.276,1.659,2.503,2.424,3.651c1.499,2.329,2.855,4.481,3.955,6.523l6.204,5.039c0.59,3.397,11.131,10.11,19.327,15.803
	l72.846,30.443c0.957-0.383,2.073-0.654,3.334-0.845c1.292-0.223,2.743-0.335,4.401-0.319c3.348,0,7.527,0.574,12.948,1.483
	l61.971,5.039c4.194,0.367,8.451,0.463,12.725,0.67c4.274,0.159,8.516,0,12.646-0.207c4.145-0.255,8.132-0.925,11.88-1.738
	c1.849-0.446,3.683-0.877,5.389-1.515c1.723-0.638,3.349-1.371,4.88-2.185c2.503-0.782,5.31-0.893,8.451-0.749
	c3.126,0.095,6.571,0.383,10.35,0.622l22.405-9.887c8.74,1.308,27.764-2.137,47.012-6.937l44.971-13.81
	c5.422-5.964,9.632-10.238,13.523-13.124c3.939-2.823,7.224-4.64,10.541-5.757l27.349-25.77c0.814-1.659,1.499-3.285,2.201-4.976
	c0.702-1.674,1.419-3.396,2.328-5.199c0.909-1.802,1.993-3.7,3.333-5.869c2.68-4.322,6.826-9.153,13.061-15.819l66.579-205.797
	c-0.128-3.604-0.255-7.208-0.383-10.764c-0.08-1.786-0.095-3.572-0.223-5.342c-0.144-1.786-0.256-3.54-0.399-5.294
	c-0.272-3.524-0.527-7.017-0.797-10.461c-0.383-3.445-0.766-6.857-1.133-10.206l-2.838-0.319c0.112-1.467,0.16-2.902,0.16-4.338
	c-0.048-1.451-0.175-2.886-0.335-4.322c-0.287-2.854-0.797-5.709-1.404-8.563c-0.574-2.871-1.451-5.677-2.424-8.484
	c-0.957-2.823-1.993-5.645-3.078-8.452c-1.101-2.839-2.425-5.598-3.652-8.436c-1.276-2.807-2.472-5.693-3.779-8.548
	c-1.356-2.839-2.647-5.709-3.876-8.675c-1.227-2.966-2.424-5.996-3.652-9.026c0,0,0.16,0.829,0.384,2.041
	c0.223,1.228,0.542,2.839,0.749,4.513c0.446,3.301,0.893,6.586,0.893,6.586c-5.565-6.714-9.121-12.152-12.183-17.765
	c-1.515-2.823-3.205-5.502-4.944-8.388c-1.818-2.807-3.7-5.821-6.331-8.787c0,0,0.415-2.902,0.814-5.821l-19.615-15.755
	c-1.468-3.732-4.067-7.99-7.288-12.247c-3.38-4.13-7.208-8.436-11.194-12.215c-4.051-3.716-7.942-7.224-11.291-9.919
	c-3.365-2.695-6.012-4.816-7.32-6.108c-1.355-6.124,8.006,0.558,11.355,0.702c-4.146-2.935-7.511-4.705-10.477-5.965
	c-3.014-1.196-5.694-1.85-8.388-2.679c-2.712-0.797-5.407-1.802-8.707-3.412c-3.349-1.579-8.755-3.221-13.651-6.793L545.257,27.85
	c-14.655-6.012-30.076-11.37-45.863-15.787C467.898,3.068,411.813,0.58,381.051,3.833l-33.441,7.878
	c-8.643,3.078-19.854,6.809-24.495,8.611c-1.93,0.749-3.907,1.26-5.821,1.993c-1.898,0.749-3.779,1.515-5.645,2.281
	c-3.764,1.595-7.479,3.078-11.083,4.784c-3.572,1.786-7.081,3.604-10.509,5.454c-1.706,0.941-3.445,1.802-5.071,2.823
	c-1.626,1.053-3.254,2.073-4.864,3.11c-3.19,2.089-6.315,4.13-9.314,6.283c-7.957,6.108-15.069,12.518-21.049,19.296
	c-13.364,9.281-25.994,19.758-37.651,31.607l-2.52,2.568c-1.531,1.594-3.078,3.221-4.577,4.88c-3.19,3.827-6.363,7.638-9.297,11.163
	c-2.695,3.652-5.087,7.049-6.777,9.935c-0.479,1.084-0.941,2.185-1.419,3.301c-0.447,1.116-0.829,2.248-1.244,3.365
	c-0.175,0.494-0.335,0.973-0.527,1.451l-1.691,4.959l-6.442,26.281l10.924-15.006c0.989-1.547,2.153-2.95,3.222-4.433l6.49-8.85
	c4.673-5.629,9.105-11.466,14.129-16.776c4.753-5.565,10.095-10.589,15.214-15.82l8.164-7.352c1.371-1.196,2.68-2.488,4.114-3.62
	l4.274-3.429l4.306-3.46c1.419-1.149,2.855-2.313,4.354-3.333l8.978-6.363c1.467-1.116,3.03-2.042,4.593-3.014l4.672-2.902
	l4.673-2.919c1.562-0.973,3.205-1.77,4.816-2.679l9.695-5.199l9.999-4.609c1.691-0.733,3.317-1.595,5.039-2.217l5.151-1.961
	l5.151-1.962c1.723-0.638,3.429-1.323,5.199-1.818c0.399-0.191,0.846-0.383,1.26-0.574c2.87-1.324,6.012-2.647,9.361-3.987
	c0.829-0.335,1.691-0.702,2.552-1.021c0.877-0.287,1.77-0.558,2.663-0.861c1.818-0.558,3.667-1.132,5.549-1.722
	c1.898-0.574,3.828-1.165,5.789-1.754c1.946-0.606,4.002-0.973,6.043-1.467c4.114-0.893,8.308-1.93,12.582-2.727
	c9.824-1.834,19.982-3.062,29.87-3.923c2.184,0.016,4.289-0.032,6.363,0.016c-5.693,0.59-11.227,1.164-16.489,2.472
	c-3.094,0.797-7.798,1.228-12.854,2.089c-2.536,0.366-5.166,0.781-7.766,1.164c-2.551,0.51-5.039,1.084-7.335,1.658
	c-1.915,0.574-3.908,1.196-5.949,1.818c-1.004,0.303-2.041,0.59-3.093,0.941c-1.004,0.367-4.721,1.946-5.757,2.313l-7.144,2.918
	c-2.201,1.053-4.529,1.77-6.793,2.631c-2.265,0.845-3.621,1.531-5.932,2.392c-1.149,0.431-2.297,0.877-3.445,1.292
	c-1.116,0.478-2.248,1.005-3.333,1.499c-2.217,0.988-4.386,1.977-6.459,2.902c-4.226,1.802-7.926,3.891-11.067,5.614l-12.216,7.399
	c0.032,0.064,4.051-1.738,5.725-2.647c1.706-0.829,4.211-2.025,7.336-3.524c1.563-0.766,3.285-1.595,5.135-2.504
	c1.834-0.957,3.938-1.674,6.108-2.631c4.353-1.77,9.138-3.987,14.511-5.693c21.13-7.686,49.357-13.89,73.165-14.527
	c4.656,0.574,2.663,2.472-1.132,4.306c-1.898,0.941-4.258,1.77-6.491,2.615c-2.248,0.845-4.385,1.483-5.868,1.738
	c-0.654,0.191-1.387,0.383-2.105,0.558c3.412-0.207,6.842-0.558,10.271-0.702c3.428-0.08,6.841-0.176,10.237-0.255
	c10.764-0.558,21.72-0.814,32.628,0.064c17.589,1.164,35.291,4.226,52.593,9.217l-7.08-1.499c-2.36-0.478-4.705-1.004-7.097-1.323
	c-2.281-0.271-4.625-0.638-7.001-1.005c-2.344-0.446-4.784-0.638-7.255-1.004c-2.44-0.351-4.945-0.702-7.48-1.069
	c-2.567-0.271-5.151-0.558-7.766-0.893c-1.307-0.175-2.615-0.319-3.938-0.494c-1.324-0.112-2.664-0.223-4.019-0.351
	c-2.695-0.239-5.406-0.494-8.149-0.749c-2.743-0.16-5.534-0.319-8.34-0.479c-1.404-0.064-2.807-0.207-4.226-0.223
	c-1.419-0.016-2.823-0.048-4.258-0.064c-2.854-0.016-5.741-0.176-8.611-0.128c-12.28,0.829-24.335,2.679-36.12,5.087
	c-0.303,0.095-0.573,0.191-0.893,0.287c15.15-2.503,30.778-3.349,45.943-2.902c27.827-0.861,56.548,2.998,83.993,12.183
	c-2.328-0.622-4.625-1.212-6.953-1.818c-2.281-0.638-4.656-1.005-6.985-1.499c-20.173-3.684-44.301-8.197-70.055-8.867l-4.959,0.191
	c-1.659,0.048-3.302,0.128-4.944,0.287c-3.285,0.303-6.554,0.606-9.824,0.893c-6.507,0.925-12.98,1.706-19.327,3.078l-4.753,0.909
	c-1.579,0.319-3.125,0.781-4.689,1.148c-3.109,0.797-6.203,1.595-9.313,2.392c-1.531,0.335-3.046,0.877-4.561,1.371l-4.497,1.467
	l-4.481,1.451l-2.248,0.717l-2.185,0.877c16.234-4.848,35.308-8.5,52.004-10.27c33.568-3.971,66.611-1.116,97.564,7.639
	c30.985,8.755,59.849,23.458,85.093,43.376c3.237,2.169,6.618,4.258,9.695,6.682c3.047,2.456,6.172,4.864,8.962,7.623
	c13.284,12.375,26.218,29.406,35.641,44.939c-0.605-3.174,3.764,4.864,4.211,4.64c5.342,7.495,9.727,16.489,13.779,26.01
	c3.7,9.68,7.128,19.87,9.488,30.379c0.717,2.966-0.43,3.046,0.351,6.108c2.694,10.7,1.993,25.468,3.109,38.911
	c-0.031-0.415,0.096-0.941,0.096-1.228c0-0.16-0.017-0.319-0.032-0.478l2.615-6.283c-0.415-3.285-0.67-6.618-1.324-9.903
	c-0.574-3.285-1.1-6.602-1.754-9.903c-0.717-3.269-1.483-6.57-2.248-9.887c-0.08-0.383-0.16-0.733-0.239-1.116
	c-3.397-13.14-7.798-25.723-13.077-37.699c-1.116-2.424-2.248-4.832-3.365-7.24l-0.032-0.686c0,0-0.318-0.494-0.909-1.339
	c-0.016-0.032-0.063-0.08-0.08-0.112c-1.419-2.695-2.854-5.406-4.273-8.085c-0.718-1.435-1.548-2.823-2.36-4.194l-2.488-4.13
	c-0.829-1.371-1.611-2.759-2.472-4.114l-2.663-3.971c-3.428-5.374-7.304-10.382-11.067-15.421c-2.01-2.44-4.019-4.848-6.012-7.272
	c-1.978-2.44-4.194-4.672-6.267-7.001c-8.531-9.106-17.541-17.653-27.285-25.228c-1.978-1.356-4.178-2.488-6.235-3.7
	c25.515,20.922,46.66,46.15,63.15,71.841c0.591,0.925,1.26,1.962,1.962,3.03l3.843,7.176c1.069,1.515,1.898,2.839,2.44,3.795
	c0.558,0.925,0.893,1.467,0.893,1.467l-0.048-0.67c0.622,1.196,1.196,2.376,1.626,3.492c5.71,13.156,10.35,26.424,13.97,39.868
	c3.142,12.008,2.153,25.484,3.524,37.731c-2.36-0.239-1.483-1.244-3.381,0.893c-1.754-3.365-3.301-6.985-4.689-10.589
	c-1.53-3.572-3.013-7.144-4.337-10.509c-1.324-3.365-2.855-6.426-4.099-9.122c-0.638-1.339-1.244-2.568-1.849-3.652
	c-0.654-1.084-1.292-2.025-1.898-2.791c0,0,0.16,0.383,0.43,1.037c0.256,0.67,0.734,1.61,1.116,2.774
	c0.829,2.313,1.93,5.422,3.047,8.532c0.605,1.547,1.068,3.126,1.499,4.609c0.446,1.499,0.86,2.886,1.227,4.083
	c0.702,2.376,1.181,3.987,1.181,3.987c-1.164-0.223-1.914,0.829-2.712,2.312c-0.797,1.499-1.482,3.429-2.216,4.96
	c-1.467,3.078-3.11,4.529-6.012-1.786c-0.111,12.662,0.749,26.233,1.308,39.931c0.574,13.65,0.702,27.429-0.239,39.788
	c2.265-3.046,3.859-7.336,6.442-6.108c0.128,6.634-1.419,9.297-3.125,10.493c-1.77,1.196-3.891,0.989-5.71,1.85
	c0.096,1.228,0.287,2.329,0.559,3.301c0.239,0.989,0.558,1.866,0.941,2.647c0.781,1.595,1.834,2.886,2.998,4.098
	c2.328,2.456,5.071,4.545,6.825,8.357c-3.173,4.369-5.406,7.83-7.16,10.796c-1.914,2.902-3.334,5.342-4.8,7.654
	c-1.419,2.328-3.093,4.434-5.278,6.714c-2.201,2.248-4.864,4.72-8.915,7.352l7.113,2.488c-5.2,1.467-20.397,16.664-31.384,26.855
	L589.256,433.287z"/>
<path fill="#D7000F" d="M178.64,457.544c-1.961-2.568-10.446-13.013-13.396-15.612c-0.462-0.383-8.339-8.229-8.786-8.612
	c0.765,2.121,8.962,13.061,9.297,15.07c0.271,1.483,0.43,2.934,0.542,4.385c0.16,1.404,0.255,2.823,0.335,4.258
	c0.143,2.855,0.175,5.757,0.415,8.787c0.319,2.998,0.813,6.14,1.818,9.553c0,0,0.366-2.44,0.733-4.864l1.021-7.415
	c8.5,5.916,9.855,11.546,11.179,14.288c1.292,2.695,5.422,8.548,13.459,11.594l-13.3,2.487c4.099-0.016,9.44,4.768,12.423,8.883
	c3.094,3.955,8.308,14.368,9.6,17.446c0,0-0.111-12.04,2.201-12.757c2.313-0.718,4.258,4.354,4.258,4.354
	c0.86,1.435,1.706,2.807,2.503,4.114c0.845,1.276,1.659,2.488,2.408,3.652c1.514,2.328,2.87,4.481,3.955,6.522
	c2.265,4.003,6.299,11.099,5.853,15.293l0.367-10.254c0.574,3.397,11.115,10.11,19.327,15.804
	c8.245,5.533,14.64,10.509-0.318,12.024c2.089,0.207,8.914,0.383,11.561,0.494c2.647,0.128,5.613,0.814,9.185,2.998l-10.907,4.274
	c11.991,3.636,34.19,9.903,36.151,15.038c2.201,5.167-16.76,1.834-20.779,1.148c3.062,1.387,13.172,4.944,15.692,5.773
	c2.536,0.782,4.784,1.404,6.809,1.786c4.067,0.702,7.112,0.75,9.488,0.335c4.736-0.781,6.777-3.572,8.595-6.299
	c1.834-2.759,3.492-5.645,7.352-7.128c0.973-0.383,2.058-0.654,3.333-0.845c1.292-0.223,2.743-0.335,4.418-0.335
	c3.348,0,7.511,0.59,12.933,1.499l-9.935,5.087c0,0,9.425-1.116,14.496-1.898c3.062-0.447,5.948-1.595,5.948-1.595
	s2.68,1.961,5.343,3.923c1.339,0.988,2.727,1.881,3.763,2.583c1.037,0.702,1.723,1.164,1.723,1.164
	c8.995-7.032,23.905-5.422,40.649-4.226c4.194,0.366,8.436,0.462,12.725,0.67c4.258,0.16,8.516,0,12.646-0.207
	c4.146-0.255,8.133-0.925,11.864-1.738c1.866-0.43,3.684-0.877,5.407-1.515c1.706-0.638,3.348-1.371,4.864-2.185
	c2.519-0.782,5.31-0.909,8.468-0.749c3.125,0.096,6.57,0.383,10.349,0.622c1.881,0.128,3.843,0.239,5.9,0.271
	c2.026-0.032,4.13-0.144,6.315-0.367c4.337-0.43,15.133-3.333,23.171-5.98l-12.997-3.811c8.739,1.308,27.78-2.153,47.027-6.937
	c19.249-4.657,38.098-6.554,50.329-8.468c-16.107-1.132-8.212-2.791-5.358-5.342c5.422-5.965,9.632-10.238,13.523-13.124
	c3.939-2.823,7.224-4.641,10.541-5.757c3.285-1.18,6.57-1.69,9.855-2.583c3.302-0.893,5.9-2.966,9.744-5.071
	c3.875-2.759,8.037-7.336,11.641-13.14l-11.641,8.579c-5.821,3.046-12.168,6.506-8.15,2.472c6.459-3.955,10.159-7.719,12.758-11.083
	c1.292-1.69,2.312-3.301,3.141-4.944c0.797-1.659,1.483-3.285,2.185-4.975c0.702-1.675,1.419-3.397,2.344-5.199
	c0.893-1.802,1.993-3.7,3.334-5.868c2.679-4.322,6.825-9.154,13.06-15.82c3.588-3.588,1.961,2.073,0.447,5.071l20.811-36.312
	c9.695-17.382,19.582-36.869,24.989-55.432c2.057-5.661,3.333-10.637,5.231-16.441c0.988-2.902,2.009-5.869,2.981-8.914
	c0.861-3.078,1.738-6.22,2.6-9.409c0.447-1.579,0.861-3.205,1.292-4.816c0.367-1.659,0.734-3.301,1.101-4.96
	c0.702-3.333,1.419-6.714,2.121-10.126c0.558-3.445,1.1-6.921,1.659-10.414c0.271-1.754,0.526-3.524,0.813-5.294
	c0.175-1.77,0.351-3.557,0.559-5.343c0.35-3.572,0.749-7.16,1.052-10.78c0.207-3.604,0.415-7.24,0.59-10.86
	c0.08-1.818,0.239-3.652,0.255-5.454l0.049-5.438c0-3.636,0.095-7.256,0.031-10.876c-0.128-3.604-0.271-7.208-0.383-10.765
	c-0.08-1.786-0.08-3.572-0.223-5.342c-0.144-1.77-0.272-3.54-0.415-5.294c-0.255-3.524-0.527-7.017-0.782-10.461
	c-0.399-3.46-1.149-13.459-1.516-16.808l-2.456,6.283c0.096-1.467,0.144-2.902,0.144-4.353c-0.048-1.435-0.16-2.87-0.319-4.29
	c-0.303-2.886-0.797-5.725-1.404-8.579c-0.574-2.87-1.467-5.677-2.424-8.484c-0.957-2.823-1.993-5.645-3.094-8.467
	c-1.084-2.823-2.424-5.582-3.635-8.42c-1.276-2.823-2.472-5.677-3.796-8.548c-1.323-2.838-2.646-5.725-3.875-8.675
	c-1.212-2.982-2.408-5.996-3.635-9.026c0,0,0.159,0.813,0.366,2.057c0.239,1.212,0.542,2.823,0.766,4.497
	c0.43,3.301,0.893,6.586,0.893,6.586c-5.565-6.714-9.121-12.136-12.183-17.765c-1.531-2.823-3.205-5.517-4.944-8.388
	c-1.834-2.807-3.7-5.821-6.331-8.787c0,0,0.287-1.993,0.606-4.322l0.064-0.526c0.048-0.319,0.095-0.638,0.143-0.973
	c0.367-2.935,6.076-0.654,6.076-0.654c-2.902-3.301-10.509-10.142-12.151-11.099c-1.675-0.925-2.855-1.037-3.971-1.021
	c-2.264,0.048-4.242,0.606-9.584-2.982c-1.451-3.732-4.067-7.99-7.287-12.263c-1.244-1.531-2.583-3.078-3.939-4.624l-0.59-0.67
	c-2.153-2.392-4.369-4.72-6.666-6.905c-4.05-3.716-7.926-7.224-11.291-9.919s-6.011-4.816-7.303-6.108
	c-1.371-6.124,7.989,0.558,11.369,0.702c-4.177-2.934-7.542-4.705-10.492-5.964c-3.03-1.196-5.71-1.85-8.405-2.679
	c-2.695-0.798-5.389-1.802-8.691-3.413c-1.419-0.67-2.95-1.515-4.593-2.472l-3.221-2.073c-0.415-0.239-2.089-1.196-2.536-1.435
	l-43.009-21.991c-14.655-6.012-30.076-11.37-45.863-15.787c-31.512-8.994-90.181-21.752-151.801-0.351
	c5.645-0.957,47.603-10.047,60.455-5.549c-1.993,0.032-5.916,0.064-7.926,0.095c-2.025,0.064-2.136,0.255-4.162,0.383
	c-2.026,0.128-4.067,0.255-6.108,0.383s-4.099,0.255-6.14,0.527c-4.067,0.462-8.181,0.925-12.279,1.403
	c-4.099,0.638-8.197,1.355-12.295,2.057l-6.124,1.1l-6.076,1.435c-4.034,0.973-8.07,1.962-12.057,2.982
	c-3.97,1.244-7.894,2.503-11.784,3.795c-1.946,0.654-3.891,1.259-5.805,1.977c-1.898,0.766-3.779,1.531-5.661,2.312
	c-3.748,1.579-7.464,3.062-11.068,4.752c-3.557,1.802-7.08,3.62-10.509,5.47c-1.706,0.941-3.445,1.802-5.071,2.822
	c-1.643,1.053-3.253,2.073-4.864,3.11c-3.19,2.089-6.332,4.114-9.297,6.283c-7.974,6.108-15.963,11.864-23.299,18.243
	c-12.439,10.43-23.761,20.795-35.434,32.66l-2.52,2.568c-1.531,1.595-3.062,3.221-4.577,4.88c-3.174,3.827-6.347,7.639-9.282,11.163
	c-2.711,3.651-5.087,7.048-6.777,9.935c-0.478,1.1-0.941,2.185-1.435,3.301c-0.017,0.064-0.049,0.111-0.064,0.16l-2.392,6.697
	c-0.318,0.989-0.685,1.977-0.988,2.919l-1.436,4.768c-0.479,1.595-0.67,3.19-0.861,4.545h0.064c2.647-3.955,5.421-7.83,8.244-11.657
	l2.935-3.827c6.012-7.862,12.375-15.485,19.184-22.756c2.44-2.536,4.944-5.008,7.463-7.447c2.918-2.966,5.884-5.869,8.786-8.835
	l8.771-7.894c1.468-1.308,2.871-2.695,4.418-3.907l4.609-3.7l4.592-3.684c1.531-1.26,3.062-2.488,4.689-3.604l9.632-6.841
	c1.579-1.196,3.285-2.185,4.96-3.237l5.007-3.126l5.023-3.125c1.674-1.037,3.46-1.898,5.167-2.871l10.429-5.597l10.749-4.944
	c1.817-0.798,3.572-1.706,5.421-2.376l5.533-2.121l5.518-2.089c1.85-0.702,3.684-1.436,5.582-1.962
	c0.446-0.207,0.908-0.415,1.355-0.622c3.078-1.403,6.459-2.839,10.063-4.289c0.908-0.351,1.802-0.75,2.743-1.085
	c0.94-0.303,1.897-0.606,2.854-0.925c1.962-0.606,3.956-1.228,5.965-1.85c2.041-0.622,4.114-1.244,6.22-1.882
	c2.104-0.654,4.305-1.037,6.49-1.579c4.434-0.957,8.93-2.105,13.523-2.934c10.557-1.978,15.708-3.11,26.329-4.019
	c3.109-0.207,10.637-0.303,12.582-0.191c-6.092,0.654-11.929,1.93-17.685,2.663c-3.349,0.431-8.388,1.324-13.826,2.264
	c-2.727,0.399-5.55,0.813-8.325,1.244c-2.743,0.542-5.421,1.148-7.909,1.77c-2.041,0.622-4.179,1.276-6.363,1.962
	c-1.084,0.351-2.217,0.622-3.334,1.004c-1.084,0.399-9.903,3.285-11.035,3.668l22.645-5.39c0.861-0.016-4.162,1.579-11.689,3.508
	c-3.701,1.132-8.102,2.488-12.854,3.939c-2.376,0.67-4.752,1.611-7.208,2.519c-2.424,0.925-4.911,1.834-7.399,2.775
	c-1.227,0.462-2.471,0.941-3.7,1.387c-1.212,0.51-2.391,1.068-3.588,1.61c-2.36,1.069-4.689,2.105-6.937,3.142
	c-4.513,1.914-8.516,4.162-11.88,6.012l-21.864,13.173c0.017,0.064,13.092-7.097,14.878-8.069c1.835-0.893,4.53-2.185,7.878-3.779
	c1.691-0.829,3.54-1.738,5.533-2.695c1.978-1.021,4.243-1.802,6.554-2.823c4.689-1.914,9.824-4.289,15.612-6.124
	c22.677-8.261,53.008-14.91,78.588-15.596c5.007,0.59,11.019,0.319-1.213,4.625c-2.153,0.766-4.449,1.898-7.017,2.153
	c-8.675,0.813-11.896,1.706-13.507,1.993c-0.685,0.191,10.047,0.383,9.282,0.59c3.683-0.255,3.046-0.048,6.745-0.223
	c3.668-0.095,7.399-0.494,11.036-0.59c7.352-0.383,14.719-0.271,22.167-0.176c-3.142-0.207-6.299-0.43-9.409-0.67
	c-1.946-0.048-8.34-0.032-10.254-0.08c2.105-0.111,9.775-1.323,12.662-1.579c3.923-0.366,7.798-0.366,11.641-0.526
	c7.735,0.446,14.018,1.435,21.689,2.647c8.212,1.26,16.489,3.524,24.574,5.534c6.379,1.339,18.562,5.087,24.862,6.889l-13.379-3.237
	c-2.456-0.431-4.673-0.813-6.953-1.324c-0.446-0.064-11.402-2.583-14.576-3.062l-20.029-2.855c-1.436-0.111-4.896-0.383-6.347-0.511
	c-2.886-0.271-3.907-0.43-6.857-0.717c-2.95-0.144-4.179-0.319-7.208-0.494c-1.5-0.08-6.921-0.287-8.452-0.303
	c-1.531-0.032-2.998,0.128-4.529,0.095c-3.078-0.016-6.299,0.032-9.409,0.08l-21.847-0.67c-9.871,0.861-17.685,2.567-26.759,4.465
	c-3.716,0.861-7.224,1.706-12.2,3.174c-4.944,1.451-11.004,3.859-13.379,4.911l-23.011,11.721
	c3.205-0.989,20.412-7.049,23.793-7.942c3.397-1.196,8.516-2.631,11.976-3.795l5.869-1.594c1.802-0.511,3.635-0.941,5.469-1.404
	c3.668-0.941,5.343-0.909,9.09-1.738c2.073-0.415,6.682-1.212,6.363-1.116c8.038-1.1,16.904-1.787,28.529-2.488l10.143-0.048
	c-1.771,0.032-3.557,0.128-5.31,0.319c-3.541,0.303-7.049,0.622-10.558,0.925c-7,1.005-13.937,1.834-20.763,3.301l-2.631,0.527
	c5.502-0.638,10.908-1.053,16.107-1.196c1.387,0.175,2.169,0.462,2.503,0.829c0.144-0.016,0.287-0.048,0.415-0.064
	c18.642-2.217,44.461-2.839,62.672-1.611l-13.172-1.626c-7.782-0.813-15.755-1.404-23.921-1.626
	c29.901-0.909,60.743,3.237,90.212,13.092c-2.487-0.654-4.959-1.308-7.447-1.946c-2.456-0.686-5.007-1.084-7.511-1.626
	c-9.712-1.754-20.301-3.684-31.479-5.374c5.932,1.18,11.801,2.584,18.02,4.114c5.997,1.531,11.69,3.174,17.478,4.8
	c33.281,9.409,64.298,25.196,91.408,46.613c3.492,2.312,7.112,4.577,10.414,7.176c3.269,2.631,6.634,5.215,9.648,8.197
	c14.256,13.3,22.948,21.465,34.302,39.054c3.461,5.119,5.63,7.83,8.867,13.3c5.741,8.069,10.11,18.626,14.448,28.849
	c3.955,10.397,6.681,19.822,9.217,31.096c0.765,3.19,0.829,4.29,1.579,8.229c4.401,11.307,7.463,24.766,8.898,39.278
	c-0.734-0.16-1.483-0.303-2.248-0.367c-0.017-0.175-0.017-0.335-0.032-0.51l-0.622-5.31c-0.447-3.524-0.734-7.097-1.436-10.637
	c-0.622-3.524-1.18-7.097-1.849-10.637c-0.814-3.524-1.626-7.064-2.456-10.637c-0.064-0.399-0.16-0.766-0.255-1.18
	c-3.652-14.113-8.373-27.636-14.034-40.505l-4.721-10.094c-1.531-2.871-3.062-5.773-4.593-8.659
	c-0.781-1.547-1.659-3.046-2.551-4.513l-2.647-4.449c-0.893-1.467-1.754-2.966-2.663-4.417l-2.855-4.274
	c-3.667-5.757-7.862-11.147-11.913-16.553c-2.152-2.615-4.289-5.215-6.443-7.814c-2.121-2.631-4.512-5.007-6.73-7.511
	c-9.17-9.791-18.849-18.977-29.326-27.11c-2.121-1.467-4.465-2.664-6.697-3.971c27.413,22.469,50.154,49.579,67.855,77.168
	c0.622,1.004,1.355,2.105,2.104,3.269c-1.403-1.898-2.918-3.859-4.512-5.773c-1.579-1.93-3.174-3.875-4.641-5.693
	c-1.499-1.77-3.014-3.381-4.257-4.784c-2.472-2.774-4.146-4.608-4.146-4.608s1.69,2.025,4.242,5.055
	c1.26,1.531,2.855,3.237,4.305,5.247c1.516,1.977,3.11,4.098,4.705,6.219c0.813,1.069,1.611,2.137,2.424,3.174
	c0.734,1.1,1.436,2.153,2.137,3.205c1.419,2.057,2.726,3.987,3.875,5.645c1.148,1.659,1.754,3.19,2.344,4.21l4.003,8.021
	c2.631,6.22,10.047,24.862,13.954,39.309c3.365,12.901,5.741,25.93,7.208,39.087c-2.536-0.256-5.023,0.111-7.064,2.424
	c-1.881-3.652-3.54-7.511-5.039-11.387c-1.659-3.843-3.253-7.67-4.656-11.291c-1.419-3.604-3.062-6.921-4.401-9.807
	c-0.702-1.435-1.356-2.759-1.993-3.923c-0.718-1.148-1.388-2.169-2.041-2.998c0,0,0.175,0.415,0.462,1.132
	c0.287,0.718,0.782,1.706,1.212,2.95c0.877,2.504,2.057,5.837,3.269,9.17c0.638,1.675,1.148,3.365,1.594,4.976
	c0.494,1.594,0.925,3.094,1.308,4.369c0.781,2.568,1.275,4.29,1.275,4.29c-1.227-0.255-2.057,0.877-2.902,2.487
	c-0.845,1.611-1.594,3.684-2.391,5.327c-1.548,3.317-3.349,4.864-6.443-1.93c-0.128,13.603,0.797,28.21,1.403,42.882
	c0.622,14.687,0.749,29.518-0.271,42.77c2.456-3.253,4.162-7.878,6.921-6.554c0.159,7.129-0.893,10.876-2.504,12.439
	c-1.897,1.866-4.146,2.073-6.969,0.829c0.096,1.324,0.304,2.488,0.591,3.557c0.255,1.052,0.59,1.977,1.02,2.822
	c0.829,1.722,1.978,3.11,3.222,4.417c2.488,2.615,8.914,4.306,7.335,8.946c-3.413,4.72-5.804,8.436-7.702,11.625
	c-2.041,3.125-3.588,5.741-5.166,8.212c-1.5,2.52-3.334,4.768-5.662,7.224c-2.36,2.424-5.214,5.072-9.568,7.894l7.622,2.679
	c-2.966,2.169-4.56,4.21-5.469,6.251c-0.941,2.057-1.324,4.034-1.595,6.139c-0.287,2.089-0.574,4.258-1.467,6.507
	c-0.909,2.264-2.647,4.497-5.565,6.841c-1.898-0.335-0.494-5.916,0.16-10.541c-2.185,5.932-5.278,7.368-8.133,8.771
	c-2.823,1.467-5.805,2.631-8.038,8.372c0,0-0.398-3.205-0.829-6.411c-0.415-3.189-0.908-6.299-0.908-6.299
	c-1.276,1.897-2.6,4.083-3.924,6.203c-1.324,2.089-2.583,4.146-3.955,5.566c-2.663,2.918-4.944,3.827-6.427-0.399
	c-0.35,2.248-0.957,4.544-1.849,6.857c-0.958,2.217-2.137,4.497-3.477,6.777c-0.686,1.148-1.404,2.297-2.137,3.445
	c-0.765,1.148-1.626,2.233-2.488,3.333c-1.722,2.216-3.556,4.465-5.454,6.681c-7.814,8.675-16.776,16.888-23.474,25.053
	l-3.078-6.363c-0.399,1.611-1.149,3.253-2.265,4.721c-1.148,1.499-2.536,2.934-4.146,4.338c-1.626,1.403-3.348,2.87-5.278,4.146
	c-1.946,1.26-3.955,2.552-5.932,3.828c-8.037,5.103-16.042,9.664-18.004,16.17l-2.663-1.818c0,0-0.925,1.116-2.328,2.791
	c-1.388,1.675-3.381,3.732-5.375,5.9c-1.993,2.137-4.002,4.338-5.565,5.916c-1.594,1.531-2.646,2.552-2.646,2.552
	c-9.569,2.791-9.936-8.229-9.712-5.215c-4.785,2.217-9.457,4.05-13.89,5.805c-4.512,1.483-8.786,2.854-12.933,3.891
	c-4.162,0.893-8.133,1.579-11.928,1.993c-3.812,0.287-7.48,0.239-10.956-0.064c-0.846,4.752-6.411,8.292-14.033,11.163
	c-11.498,0.988-23.123,1.435-35.068,1.323c-2.391-0.064-4.799-0.144-7.208-0.207c-27.302-1.1-52.625-5.837-76.913-14.033
	c-24.255-8.276-47.65-19.79-70.502-35.976c-11.194-7.957-22.182-16.314-32.117-25.866l-15.66-7.798
	c2.488,2.216,11.689,10.126,14.033,12.056c2.312,1.946,4.497,3.748,6.442,5.39c3.907,3.189,6.857,5.677,7.894,7.319
	c1.164,2.44-3.269-0.191-9.744-4.656c-6.331-4.625-14.543-11.211-20.874-16.521L178.64,457.544z M459.196,16.593
	c19.87,1.228,41.51,6.586,62.704,14.56c1.1,0.431,2.216,0.877,3.316,1.308c-0.398-0.128-0.828-0.255-1.275-0.383
	c-4.481-1.324-10.573-2.695-16.569-4.226c-2.998-0.797-6.044-1.371-8.898-1.93c-2.839-0.558-5.487-1.084-7.783-1.531
	c-2.264-0.447-4.162-0.798-5.486-1.069c-1.339-0.191-2.105-0.303-2.105-0.303s0.447,0.176,1.213,0.494
	c0.749,0.287,1.834,0.798,3.109,1.42c1.675,0.797,3.748,1.786,5.949,2.823c-3.174-1.132-6.379-2.281-9.696-3.381
	c-3.19-0.941-6.427-1.914-9.792-2.902c-1.69-0.511-3.413-1.004-5.182-1.499L459.196,16.593z M530.576,34.565
	c11.242,4.561,22.262,9.76,32.787,15.022c19.806,10.047,39.166,23.091,56.628,38.416c4.289,3.923,8.723,7.719,12.773,11.897
	c2.041,2.073,4.178,4.051,6.172,6.14c1.977,2.137,3.955,4.258,5.916,6.379c2.026,2.089,3.891,4.274,5.757,6.49
	c1.898,2.201,3.779,4.37,5.645,6.554c1.786,2.264,3.556,4.497,5.326,6.746l5.215,6.777c2.009,2.871,4.433,6.507,6.475,10.382
	c2.009,3.859,4.018,7.751,5.644,10.828c-6.426-10.429-12.948-19.695-20.269-28.29c-7.096-8.739-14.974-16.76-23.378-25.276
	c-14.097-13.316-30.028-26.408-47.49-38.002l-3.253-2.217c-1.116-0.717-2.249-1.371-3.365-2.073c-1.85-1.132-3.716-2.28-5.582-3.429
	c-5.454-3.524-11.083-6.889-16.872-10.365c-0.797-0.478-1.674-0.861-2.52-1.276L530.576,34.565z"/>
<g>
	<path d="M248.371,139.42c1.562,2.169,2.981,4.003,4.05,5.135c1.594,1.802,1.898,2.36,1.898,4.816c0,0.766-0.048,2.408-2.185,2.408
		c-0.605-0.064-1.642-0.622-2.201-0.893c-0.574-0.239-5.486-1.563-11.194-1.563c-4.578,0-5.949,1.276-5.949,2.839
		c0,2.073,4.354,3.492,8.308,3.492c1.324,0,2.137-0.239,2.233-0.287c0.925-0.239,1.259-0.335,1.595-0.335
		c1.658,0,4.577,1.691,4.577,3.445c0,1.706-2.36,2.839-4.96,2.839c-7.447,0-13.906-4.114-13.906-8.404
		c0-0.383,0.049-0.702,0.128-0.988c1.084-3.206,4.433-3.971,8.117-4.736c3.205-0.606,7.352-0.606,9.297-1.069
		c0.654-0.191,0.893-0.287,0.893-0.558c0-0.558-1.18-2.695-2.726-5.199c-6.315,2.774-7.033,2.87-8.452,2.87
		c-3.125,0-7.511-2.025-7.511-4.433v-0.096c0-1.324,0.304-1.611,0.527-1.611c0.239,0,0.479,0.287,0.606,0.478
		c0.095,0.16,0.238,0.287,0.43,0.431c0.845,0.654,2.918,0.989,4.8,0.989c1.579,0,3.556-0.239,7.797-1.515
		c-0.797-1.26-1.659-2.584-2.536-3.907c-0.813,0.366-2.886,1.084-4.449,1.084c-1.691,0-5.9-1.467-6.554-5.342
		c0-0.096-0.048-0.144-0.048-0.192c0-0.175,0.144-0.271,0.239-0.271c0.143,0,0.319,0.096,0.51,0.239
		c1.324,0.988,2.982,1.132,4.673,1.132c1.037,0,1.993-0.095,3.11-0.335c-1.276-1.898-2.488-3.588-3.477-4.944
		c-0.527-0.67-1.563-1.004-2.313-1.004c-0.383,0-0.67,0.048-0.813,0.191c-0.272,0.239-0.462,0.367-0.606,0.367
		c-0.048,0-0.095-0.08-0.095-0.176c0-0.191,0.095-0.478,0.191-0.797c0.702-1.946,2.025-2.328,4.529-2.328
		c2.632,0,3.493,1.196,3.589,2.743c0.048,0.702,0.191,1.228,0.415,2.025c0.335,1.005,0.765,2.025,1.276,3.126
		c0.095-0.048,1.754-0.654,2.169-1.005c0.16-0.095,0.303-0.239,0.526-0.287c0.144-0.032,0.383-0.032,0.702-0.032
		c2.281,0,2.6,1.132,2.6,1.897c0,0.829-0.048,1.26-4.067,3.062c0.765,1.355,1.611,2.727,2.471,4.051
		c1.276-0.462,1.93-0.909,2.153-1.116c0.096-0.111,0.144-0.255,0.144-0.351c0-0.606-1.132-1.371-2.121-2.025
		c-0.048,0-0.479-0.271-0.479-0.462c0-0.096,0.112-0.144,0.207-0.144c0.144,0,0.319,0.079,0.51,0.144
		c1.276,0.51,2.839,1.021,4.354,1.068c0.272,0,0.606-0.096,0.877-0.096h0.239c0.861,0.192,1.515,0.287,1.515,1.754
		c0,1.419-1.133,2.025-2.408,2.552L248.371,139.42z"/>
	<path d="M291.253,146.348c0.191-0.048,0.286-0.048,0.383-0.048c0.095,0,0.239,0,0.367,0.048c0.957,0.239,2.169,1.467,2.169,3.205
		c0,1.611-1.212,2.376-2.727,2.376c-1.514,0-2.87-0.813-3.348-1.1c-2.792,3.827-4.243,4.96-6.316,4.96
		c-0.86,0-1.61-0.287-2.184-0.766c-2.583-1.978-3.54-3.349-3.54-4.752c0-1.643,0.893-2.87,5.421-7.83
		c-1.02-2.791-1.691-6.315-1.691-10.765c0-0.766,0-1.547,0.064-2.408c0-0.654,0-1.323-0.112-1.977
		c-0.048-0.335-0.095-0.654-0.095-0.861c0-0.144,0-0.271,0.095-0.271c0.272,0,1.85,1.642,2.217,4.577
		c0.191,3.971,0.893,6.985,1.993,9.297c2.726-2.504,5.804-4.768,8.914-6.283c0.287-0.845,0.384-1.642,0.384-2.217
		c0-2.966-1.611-3.062-2.281-3.062c-0.335,0-0.654,0.048-0.941,0.096c-0.272,0.048-0.51,0.095-0.702,0.095
		c-0.239,0-0.335-0.048-0.335-0.191c0-0.255,1.132-2.185,3.971-2.185c1.738,0,4.864,1.85,4.864,4.768
		c0,0.351-0.048,0.718-0.144,1.132c0.654-0.08,1.26-0.128,1.93-0.128c6.14,0,13.682,4.577,13.682,11.689
		c0,13.268-22.66,16.011-24.255,16.011c-0.287,0-0.43,0-0.43-0.096c0-0.159,0.478-0.383,1.371-0.67
		c7.224-2.408,17.414-8.962,17.414-16.713c0-4.465-3.348-8.34-8.595-8.34c-0.558,0-1.164,0.048-1.738,0.144
		c-1.227,3.206-3.54,8.022-6.028,12.263H291.253z M282.434,144.705c-2.264,3.062-2.424,4.146-2.424,4.672
		c0,1.403,1.1,1.881,1.467,1.93c0.207,0.048,0.351,0.048,0.527,0.048c1.196,0,1.706-0.574,3.269-2.727
		C284.22,147.576,283.28,146.3,282.434,144.705 M284.938,141.771c0.797,1.276,1.786,2.233,2.774,2.982
		c1.611-2.791,3.254-5.996,4.29-8.5C289.403,137.72,287.011,139.602,284.938,141.771"/>
	<path d="M337.53,155.927c-0.989,0-1.611-0.095-1.611-0.239c0-0.128,0.494-0.271,1.611-0.415
		c10.429-1.228,21.895-7.655,21.895-14.958c0-4.051-3.62-5.374-6.411-5.374c-4.401,0-7.797,2.918-11.051,5.948
		c-1.227,1.069-2.248,2.153-2.918,2.759c-1.563,1.371-2.583,2.041-4.8,2.041c-2.456,0-7.272-1.499-7.272-4.385
		c0-0.048,0-0.717,0.239-0.717c0.128,0,0.272,0.111,0.462,0.144c0.766,0.207,1.691,0.478,2.743,0.478
		c1.499,0,3.62-0.861,7.543-2.966c6.235-3.253,10.382-5.278,14.91-5.278c4.481,0,12.455,2.583,12.455,8.388
		c0,6.65-8.293,14.575-26.663,14.575H337.53z"/>
	<path d="M385.831,150.935c-3.492,0-4.689-5.597-4.689-6.777c0-5.661,6.874-12.088,13.444-12.088
		c6.697,0,11.226,5.151,11.226,10.031c0,2.886-1.482,5.789-4.879,8.292c-3.11,2.313-9.313,3.987-11.083,3.987
		c-0.064,0-0.095-0.032-0.095-0.032c0-0.048,0.446-0.255,1.212-0.59c4.449-1.977,10.924-7.064,10.924-12.773
		c0-4.401-3.445-7.463-7.83-7.463c-0.43,0-1.259,0.095-2.152,0.287c0.031,0.032,2.391,1.531,2.391,3.891
		c0,0.797-0.175,1.18-0.797,2.36c-0.972,1.85-2.982,5.087-4.034,7.24C388.574,149.245,387.681,150.935,385.831,150.935
		 M383.392,142.675c0,2.504,1.674,4.162,2.216,4.162c0.255,0,0.527-0.176,0.782-0.447c0.829-0.845,4.067-7.128,4.529-9.44
		c0.111-0.494,0.128-0.957,0.128-1.42c0-0.526-0.048-1.021-0.192-1.419C386.995,135.403,383.392,139.023,383.392,142.675"/>
	<path d="M433.85,122.492c0.111-0.399,1.547-0.654,3.109-0.654c5.885,0,8.133,2.711,8.133,5.518c0,1.881-1.435,3.062-2.998,3.062
		c-0.223,0-0.478-0.048-0.717-0.111c-1.499-0.399-2.52-1.371-3.987-1.563c-0.207,0-0.479-0.064-0.782-0.064
		c-3.158,0-5.358,1.898-5.358,4.96c0,0.256,0,0.463,0.048,0.606c0.16,0.765,0.51,1.483,1.069,2.153
		c14.065-6.857,16.265-7.319,21.018-7.319c9.44,0,10.206,4.497,10.206,5.932c0,3.174-3.764,9.058-13.173,9.058
		c-7.766,0-13.65-3.796-13.65-4.146c0-0.048,0-0.048,0.063-0.048c0.128,0,0.798,0.255,1.356,0.351
		c1.691,0.366,4.034,0.717,6.507,0.717c9.6,0,12.678-5.103,12.678-7.048c0-2.36-2.36-2.966-5.518-2.966
		c-5.996,0-12.12,4.704-16.936,8.484c13.396,14.113,13.396,16.808,13.396,19.471c0,1.802-0.399,4.705-2.823,4.705
		c-1.053,0-1.93-0.861-2.345-2.456c-1.323-5.757-6.283-14.209-10.525-19.87c-2.647,2.297-4.434,3.11-6.857,3.11
		c-3.668,0-6.937-2.201-6.937-3.939c0-0.095,0.239-1.371,0.67-1.786c0.08-0.143,0.192-0.207,0.239-0.207
		c0.16,0,0.271,0.16,0.318,0.351c0.096,0.16,0.192,0.622,0.351,0.67c0.605,0.207,1.276,0.255,1.929,0.255
		c2.823,0,4.656-0.766,7.528-2.041c-1.993-2.201-2.392-4.386-2.392-5.725c0-0.925,0.192-4.497,3.269-4.497
		c0.558,0,1.227,0.096,2.104,0.256c0.654,0.095,1.212,0.159,1.723,0.159c2.503,0,3.732-1.435,3.732-2.552
		c0-0.765-0.622-2.36-3.269-2.424c-0.16,0-1.18,0-1.18-0.351V122.492z"/>
	<path d="M488.419,136.712c-0.064,0.765-0.112,1.579-0.112,2.44c0,9.058,3.987,11.96,6.697,11.96c2.552,0,3.174-1.053,7.208-9.409
		c0.415-0.845,0.67-1.164,0.765-1.164c0.064,0,0.112,0.111,0.112,0.319c0,0.287-0.048,0.749-0.16,1.212
		c-0.351,1.993-0.717,4.338-0.717,6.49c0,1.946,0.255,3.333,0.925,4.705c0.16,0.255,0.207,0.558,0.207,0.829
		c0,0.654-0.622,2.902-4.561,2.902c-2.344,0-4.544-0.782-6.49-1.787c-6.22-3.269-8.42-10.637-9.042-17.43
		c-0.16-1.643-0.558-5.677-1.802-6.602c-0.144-0.095-0.511-0.239-0.606-0.446v-0.064c0-0.399,1.324-0.511,1.324-0.511
		c2.058,0,6.252,2.854,6.252,6.124V136.712z M518.319,145.243c-1.388-0.829-4.099-1.021-6.379-1.021
		c-1.037,0-1.993,0.032-2.663,0.096c-0.207,0-0.367,0.048-0.527,0.048c-0.239,0-0.35-0.048-0.35-0.144
		c0-0.095,0.462-0.366,0.765-0.526c6.172-2.392,7.367-2.839,7.367-4.034c0-1.946-3.029-5.725-6.028-6.028
		c-1.037-0.095-1.339-0.255-1.339-0.415c0-0.207,1.276-0.717,3.125-0.717c4.354,0,9.042,3.078,11.131,7.017
		c0.207,0.462,0.367,1.228,0.367,1.945c0,0.399-0.048,4.434-3.078,4.434C519.914,145.898,519.037,145.643,518.319,145.243"/>
	<path d="M542.914,125.148c2.345,0,5.455,4.306,5.455,7.304c0,2.264-0.909,6.044-1.419,8.292c-0.527,2.042-1.371,5.518-1.371,7.623
		c0,0.67,0.143,1.42,0.446,1.42c0.16,0,0.463-0.351,0.766-1.34c1.435-4.274,3.939-9.903,4.21-9.903c0.032,0,0.032,0.048,0.032,0.144
		c0,0.271-0.144,0.941-0.303,1.547c-1.436,5.613-1.723,10.732-1.723,13.794c0,1.547,0.032,3.014,0.032,3.939
		c0,2.552-1.579,2.87-2.456,2.87c-2.855,0-4.8-6.14-4.8-9.361c0-1.786,0.255-3.875,0.654-6.697c0.272-1.993,0.67-4.242,0.989-6.379
		c0.35-2.201,0.605-4.306,0.67-5.98c0-0.829-0.064-5.231-1.451-6.395c-0.095-0.111-0.558-0.415-0.558-0.622v-0.048
		c0-0.111,0.207-0.207,0.765-0.207H542.914z M572.097,156.85c0.16-0.207,0.351-0.462,0.351-0.718c0-0.558-2.153-1.786-2.647-2.041
		c-0.462,0.718-3.524,5.358-8.707,5.358c-3.556,0-6.825-2.918-6.825-5.31c0-0.558,0.08-4.242,9.25-4.242
		c1.164,0,2.281,0.096,3.365,0.207c0.86-2.153,1.068-4.401,1.068-6.809v-0.877c0-1.993-0.159-4.593-0.255-7.304
		c-2.184,0.766-4.449,1.738-6.65,2.519c-0.605,0.192-1.515,0.399-2.44,0.399c-1.993,0-5.98-0.766-5.98-3.014
		c0-0.16,0.049-0.256,0.144-0.256c0.303,0,0.877,0.399,1.387,0.447h0.606c2.057,0,3.939-0.702,6.395-1.627l6.49-2.408
		c-0.255-3.987-0.415-7.144-2.966-7.144h-0.447c-0.319,0-0.43-0.064-0.43-0.159c0-0.351,1.036-2.137,2.663-2.137
		c2.408,0,6.043,2.392,6.043,4.656c0,0.399-0.063,0.845-0.223,1.419c-0.08,0.367-0.08,0.622-0.128,0.973l-0.064,0.399
		c0.559,0.112,0.861,0.16,1.531,0.16h0.527c0.605,0,4.274,0.111,4.274,2.504c0,1.18-1.069,1.642-1.993,1.738
		c-0.814,0.064-2.233,0.16-3.062,0.303c-0.494,0.16-1.021,0.271-1.483,0.367c-0.095,1.945-0.16,3.891-0.16,5.821v1.993
		c0.064,1.675,0.112,3.126,0.112,4.497c0,2.041-0.16,2.966-0.622,4.353c1.132,0.303,9.824,2.807,9.824,7.049
		c0,1.387-1.069,2.264-2.615,2.264c-1.069,0-2.663-0.367-3.509-0.527c-0.415-0.095-0.925-0.095-1.435-0.095
		c-0.272,0-2.313,0-5.375,0.861c-0.462,0.16-0.717,0.207-0.925,0.207h-0.095c-0.144,0-0.207-0.048-0.207-0.111
		c0-0.096,0.35-0.335,0.813-0.654c0.926-0.462,4.034-2.392,4.242-2.823c0-0.048,0.049-0.079,0.049-0.079L572.097,156.85z
		 M560.648,151.683c-1.021,0-4.593,0.511-4.593,1.993c0,0.622,1.164,1.898,3.715,1.898c2.712,0,4.513-1.276,5.837-3.078
		C564.028,151.987,562.322,151.731,560.648,151.683 M576.435,125.817c-1.515-2.456-2.44-3.524-4.226-4.242
		c-0.112-0.048-0.16-0.048-0.16-0.111c0-0.048,0.207-0.096,0.303-0.144c0.415-0.112,0.926-0.16,1.371-0.16
		c1.084,0,5.534,0.303,5.534,3.365c0,1.244-0.829,1.993-1.643,1.993C577.152,126.519,576.753,126.328,576.435,125.817
		 M580.581,123.473c-2.313-3.014-2.457-3.333-4.243-4.002c-0.143-0.048-0.303-0.096-0.303-0.191c0-0.064,0.095-0.112,0.239-0.16
		c0.526-0.096,1.132-0.207,1.754-0.207c1.579,0,5.31,0.462,5.31,3.333c0,1.371-1.084,1.882-1.531,1.882
		C581.41,124.127,580.932,123.92,580.581,123.473"/>
</g>
<path fill="#FFFFFF" d="M274.033,179.997c1.021,0.782,9.887,7.734,14.815,15.947c4.704,7.91,5.677,9.536,9.122,9.536
	c2.998,0,9.17-2.695,9.17-11.051c0-15.086-19.95-19.121-31.735-19.121c-0.813,0-2.248,0.112-2.966,0.829l-0.303,0.303l-0.112,0.399
	C271.577,178.657,273.204,179.583,274.033,179.997 M291.831,338.527c0-5.661,6.73-42.148,12.152-71.491
	c4.624-25.053,7.463-40.522,7.463-42.706c0-1.276-0.909-2.647-2.264-2.647c-0.957,0-2.28,0.543-3.126,3.094
	c-3.316,9.441-7.399,25.739-11.689,42.993c-5.071,20.237-10.286,41.159-14.209,50.265c-5.613,13.045-6.108,13.076-18.674,13.842
	l-0.335,0.032c-1.626,0.16-3.301,0.303-3.301,2.201c0,1.61,1.706,1.946,4.21,2.424c12.311,2.838,14.623,10.509,15.293,18.371
	c0.749,9.664,1.451,18.786,10.876,18.786c7.543,0,9.537-7.304,9.537-11.642c0-3.365-0.415-4.369-4.338-14.161
	C292.452,345.575,291.831,342.003,291.831,338.527 M276.728,378.139c-0.813-0.654-1.754-1.403-2.902-2.328
	c-4.353-3.269-4.433-3.987-5.853-15.963l-0.286-2.328c-1.882-14.033-2.967-15.548-4.8-15.548c-1.643,0-1.643,0-3.205,11.928
	c-0.59,4.497-1.276,9.6-1.706,11.163c-3.317,14.384-7.974,18.179-12.12,19.87c-9.217,0.734-17.048,1.085-23.905,1.085
	c-10.382,0-17.558-0.829-22.501-2.105c0.654-0.51,1.388-1.292,2.377-2.328c0.622-0.67,1.562-1.659,1.786-1.802
	c1.946-0.877,28.864-6.554,30.299-6.745c1.468,0,1.468,0,2.313,4.401c1.069,4.784,5.071,5.852,6.379,5.852
	c5.9,0,10.174-6.745,10.174-11.306c0-14.321-18.961-23.554-21.769-23.554c-1.387,0-2.391,0.988-2.391,2.376
	c0,0.702,0.367,1.563,1.148,3.221c0.224,0.462,0.399,0.845,0.527,1.18c2.026,4.625,2.345,6.777,2.345,7.639
	c0,0.973-0.064,1.371-1.42,1.659c-2.503,0.399-12.326,0.638-13.81,0.638c-2.52,0-2.935-0.462-2.967-0.494
	c0-0.431,0.909-1.898,3.317-5.789l0.479-0.798c8.388-13.762,9.584-15.42,11.434-16.297c3.7-1.165,6.618-2.089,6.618-5.885
	c0-2.743-1.419-3.413-8.181-6.682c-0.063-0.032-4.832-2.392-8.387-3.795h49.228v-92.238c1.674,2.568,3.397,5.55,5.103,8.962
	c4.257,9.074,4.816,10.254,9.01,10.254c4.242,0,8.771-3.7,8.771-10.509c0-12.535-12.598-18.18-22.884-20.157v-20.269H161.799
	c1.77-4.37,2.248-5.629,2.615-6.73c5.805-2.057,8.42-3.652,8.42-7.176c0-2.934-2.153-4.944-5.837-5.422l-49.388-4.034l-0.304,1.531
	c-0.988,5.023-2.041,10.238-7.287,21.832H61.316v123.956l46.645-0.144c0.049,0.462,0.08,0.941,0.112,1.483
	c0.734,11.801-3.524,31.081-8.101,44.046c-9.792,29.071-30.714,72.479-98.999,113.655L0,485.032l2.663,9.281l1.579-0.733
	c64.905-30.076,101.471-71.187,118.551-133.254l0.542-1.929c4.082-14.512,4.609-16.362,12.741-22.422l0.319-0.255l1.308-3.062
	l-9.138-7.479l20.38-0.064v65.415c0,22.023,11.593,32.309,36.503,32.309h51.972c22.82,0,33.313-6.506,40.107-24.766
	c1.658-3.747,2.998-8.085,4.066-13.22c0.064-0.287,0.096-0.59,0.096-0.909l0.462-1.754l-1.037-0.128
	C280.477,381.121,279.216,380.117,276.728,378.139 M150.173,296.697h-43.854c-7.798,0-7.926,0-7.926-19.328
	c0-10.238,1.052-10.987,7.639-10.987h44.141c7.367,0,7.654,0.606,7.654,16.266C157.827,295.693,157.652,296.697,150.173,296.697
	 M150.444,256.176h-45.241c-7.176,0-7.384-0.383-7.384-13.491c0-15.995,0-15.995,7.384-15.995h45.241
	c7.304,0,7.384,0.144,7.384,14.049C157.827,256.176,157.684,256.176,150.444,256.176 M187.361,226.69h43.854
	c7.974,0,8.197,1.308,8.197,15.453c0,12.04-0.207,14.033-8.197,14.033h-44.141c-8.229,0-8.229-2.871-8.229-12.391
	C178.845,227.902,179.053,226.69,187.361,226.69 M178.845,281.803c0-12.965,0.272-15.421,8.516-15.421h43.854
	c7.99,0,8.197,2.121,8.197,14.879c0,13.236-0.207,15.437-8.197,15.437h-43.854C179.085,296.697,178.845,294.577,178.845,281.803
	 M194.218,382.046c-2.758-1.355-4.13-2.886-4.736-4.322c-6.378-15.42-0.238-46.023,1.149-52.322h23.458
	c-0.255,0.415-0.415,0.941-0.415,1.563c0,0.223,0.048,0.877,0.095,1.579c0.064,0.781,0.144,1.626,0.144,1.993
	c0,3.684-3.174,17.653-3.971,20.572c-3.492,13.14-3.859,13.14-6.809,13.14c-0.782,0-4.002-0.446-6.347-0.797
	c-2.806-0.383-3.907-0.542-4.354-0.542c-2.822,0-2.822,2.312-2.822,3.062C189.61,366.115,190.95,376.975,194.218,382.046
	 M659.537,170.541l-0.016-1.483H461.842v40.633h74.616c-2.807,36.71-6.109,42.116-6.921,42.881
	c-9.44-4.704-27.173-12.885-36.088-16.856c-12.04-5.199-24.575-8.532-26.966-8.595c-1.5,0-2.615,0.973-2.664,2.36
	c0,1.531,0.654,1.993,2.839,3.524l1.611,1.132c21.257,13.746,38.289,26.807,50.695,38.799c3.684,3.301,4.354,5.613,4.258,8.516
	c-0.017,0.67-12.232,72.447-88.905,116.828c-0.192,0.128-0.606,0.351-1.18,0.686c-7.4,4.242-7.703,4.641-7.751,5.693
	c-0.016,0.462,0.063,1.626,0.972,2.567c0.463,0.51,1.34,1.116,2.87,1.148c1.675,0,16.154-4.322,33.872-13.905
	c12.917-6.842,52.243-27.652,78.284-90.882c0.75-2.025,1.674-3.094,2.233-3.094c1.993,0.064,7.591,9.616,11.546,19.71l0.239,0.558
	c8.372,19.535,9.456,22.055,17.494,22.278h0.367c8.451,0,13.252-7.798,13.507-15.15c0.494-19.2-14.177-37.332-28.577-52.529
	c-4.434-4.672-5.932-6.507-5.837-10.956c0.049-0.478,0.941-6.044,1.882-11.913c1.738-10.955,4.13-25.994,4.624-29.885l0.574-4.481
	c0.319-2.472,0.717-5.422,1.116-8.436h55.096c0,49.26-0.031,94.901-3.253,119.092c-4.434,31.974-9.727,34.669-24.909,34.669
	c-10.334,0-17.462-1.946-22.677-3.365l-2.695-0.733l10.605,48.447l1.435,0.032c3.971,0.08,8.085,0.192,12.2,0.192
	c26.264,0,51.843-4.37,61.205-36.088C658.755,333.886,660.255,215.001,659.537,170.541 M470.868,321.718l-2.488,0.415l1.531,1.993
	c3.907,5.039,7.479,11.625,8.021,12.71l0.59,1.164l1.228-0.415c3.907-1.259,11.163-3.62,17.494-9.903
	c11.37-11.035,12.679-21.56,12.679-28.513c0-19.567-14.704-33.249-35.738-33.249c-25.34,0-41.016,20.125-41.016,38.751
	c0,16.904,12.264,28.131,20.365,28.131c12.056,0,23.171-27.19,24.798-50.456c12.151,2.232,14.033,11.514,14.033,16.984
	C492.365,302.502,491.328,318.529,470.868,321.718 M460.996,309.647c-5.533,8.611-7.287,9.313-9.058,9.329
	c-3.987,0-5.964-6.857-6.011-11.514c-0.224-15.469,15.548-25.564,22.58-25.898c0.112,0.622,0.207,1.978,0.224,4.035
	C468.842,292.854,465.94,301.832,460.996,309.647 M446.756,351.635c0-1.244-0.894-4.736-1.993-8.819
	c-0.224-0.893-0.431-1.642-0.527-2.057c-0.239-0.941-0.462-1.85-0.702-2.743c-0.686-2.647-1.339-5.151-1.674-8.548
	c-0.112-1.1-0.814-2.28-2.058-2.28c-1.419,0-1.978,1.435-2.998,4.051c-0.223,0.638-0.462,1.228-0.654,1.642
	c-0.845,1.818-2.233,3.971-3.955,3.971c-0.622,0-1.643-0.271-3.03-1.706c-1.771-1.786-6.953-8.755-11.226-15.373
	c1.897-2.886,3.189-4.848,3.237-4.927c7.128-12.535,17.127-36.407,21.161-53.725c2.87-0.351,5.613-0.893,5.613-3.828
	c0-3.253-2.568-4.114-4.832-4.88l-25.691-8.563l-0.845,3.796c-1.196,5.31-2.87,12.741-5.63,21.449
	c-0.542-9.839-0.845-20.237-0.86-29.63h35.004v-29.215h-9.394c0.032-0.319,0.049-0.606,0.049-0.925
	c0-12.168-15.517-21.002-25.978-21.002c-2.058,0-2.727,1.116-2.966,1.77l-0.064,0.494c0,1.595,1.706,2.328,2.44,2.631
	c2.328,1.387,7.367,8.691,9.52,14.544c0.335,0.909,0.654,1.738,0.925,2.488h-22.373c-0.049-2.233-0.049-4.88-0.049-7.846
	c0-3.285,0.239-5.47,1.276-6.793c0.032-0.032,2.935-3.014,2.935-4.322c0-5.9-19.471-8.197-19.679-8.197
	c-1.786,0-3.03,1.084-3.03,2.647c0,0.782,0.43,2.137,1.132,4.274c0.304,0.861,0.542,1.627,0.606,1.946
	c0.398,2.009,0.909,11.53,1.164,18.291h-69.625v53.359c0,42.865-5.788,62.273-16.473,83.116l-0.814,1.579l1.691,0.527
	c9.201,2.934,19.009,7.591,26.217,12.455l1.436,0.957l0.749-1.563c2.902-5.996,4.784-9.999,8.261-20.189l0.207,0.048l0.383-1.308
	c0.048-0.207,0.095-0.415,0.16-0.606l1.116,0.048c1.945,0,16.617-7.113,25.785-25.771l0.383-0.765
	c1.052-2.105,1.817-3.62,2.232-3.844c0.973,0,2.919,2.791,4.019,6.538l0.112,0.335c2.073,6.73,2.568,8.309,6.267,8.309
	c3.508,0,7.128-3.142,7.128-8.42c0-6.522-3.907-9.105-11.609-11.833c-4.417-1.467-4.417-1.467-4.417-2.695
	c0-2.791,0.701-8.308,2.104-9.44c0.846-0.654,11.88-7.384,14.336-8.819l0.766-0.239c0.717-0.223,1.324-0.415,1.866-0.574l1.212,9.17
	c1.691,10.286,3.078,16.154,3.907,19.631l0.16,0.654c-5.151,6.953-10.286,13.396-19.296,21.178l-1.084,0.941
	c-3.939,3.317-8.34,6.634-13.427,10.11l-2.089,1.451l2.28,1.132c8.357,4.194,15.612,9.233,23.506,16.378l0.861,0.766l0.957-0.622
	c4.561-2.902,12.152-9.026,22.581-21.592c1.324-1.77,3.062-4.146,5.135-7.144c5.533,7.734,20.109,24.989,30.554,24.989
	C443.774,358.492,446.756,355.797,446.756,351.635 M380.368,239.464c0.16,2.631,0.319,5.151,0.478,7.639
	c-3.046-2.823-7.335-6.363-9.663-7.639H380.368z M342.924,239.464h25.468c-1.356,0.877-2.919,2.934-5.327,6.251
	c-0.765,1.053-1.562,2.153-2.025,2.631c-0.351,0.43-0.622,0.749-7.049,0.749h-11.099L342.924,239.464z M375.202,267.323
	c-1.483,0-1.993,1.467-2.935,4.115l-0.749,1.977c-1.084,2.615-3.859,9.409-5.39,10.047c-0.143-0.463-0.143-1.404-0.143-1.771
	c0-5.087,0.335-11.912,0.653-13.284c0.144-0.16,0.383-0.399,0.654-0.67c1.754-1.754,2.472-2.583,2.472-3.54
	c0-4.625-15.374-5.789-15.517-5.789c-2.201,0-2.998,1.26-2.998,2.328c0,0.574,0.271,1.547,0.909,3.62
	c0.128,0.462,0.255,0.845,0.271,0.877c0.51,3.652,1.149,10.094,1.149,20.093c0,15.309-1.244,29.374-16.234,46.47
	c-0.383,0.319-1.388,1.196-2.296,2.136c2.95-11.609,5.278-25.005,5.773-28.912l0.223-3.7c0.797,0.351,1.691,0.542,2.631,0.542
	c6.092,0,8.277-6.762,8.277-13.061c0-3.508-2.919-18.499-6.299-18.499c-1.594,0-1.802,1.483-1.93,2.376l-0.063,0.462
	c-0.255,2.886-0.765,6.777-1.451,9.505l0.527-8.516l0.111-16.856h32.963c2.345,0,4.226-0.032,5.71-0.319
	c0.383,5.167,0.813,10.222,1.339,15.565C379.969,270.034,376.254,267.323,375.202,267.323"/>
<g>
	<path d="M658.043,170.55H463.329v37.619h74.76c-1.611,21.481-4.434,46.103-8.723,46.007c-9.409-4.736-27.955-13.284-36.518-17.095
		c-11.802-5.072-24.24-8.388-26.329-8.468c-0.606,0-1.196,0.271-1.213,0.861c0,0.909,0.287,0.909,3.764,3.397
		c10.573,6.841,33.441,22.055,50.887,38.942c3.779,3.381,4.88,6.092,4.785,9.664c-0.112,4.178-14.831,74.776-89.639,118.088
		c-0.94,0.558-8.181,4.545-8.213,5.151c-0.016,0.606,0.256,2.089,2.328,2.152c1.181,0.016,15.326-4.082,33.17-13.73
		c18.77-9.935,53.662-31.958,77.599-90.069c0.653-1.771,1.897-4.115,3.652-4.067c3.907,0.095,10.652,14.878,12.901,20.62
		c8.42,19.615,9.25,21.72,16.394,21.927c7.751,0.191,12.12-7.144,12.327-13.715c0.478-18.466-13.651-36.136-28.162-51.445
		c-4.641-4.896-6.363-7.049-6.235-12.104c0.016-0.59,5.741-35.626,6.506-41.877c0.431-3.174,1.116-8.612,1.882-14.241h35.625h22.279
		c0,50.249,0,96.273-3.285,120.815c-4.434,32.006-9.807,35.976-26.393,35.976c-10.748,0-18.228-2.105-23.378-3.508l9.839,44.859
		c28.497,0.717,61.444,1.642,72.193-34.797C657.341,333.401,658.744,214.022,658.043,170.55"/>
	<path d="M203.128,365.751c-1.547,0-9.807-1.339-10.701-1.339c-1.323,0-1.323,0.67-1.323,1.563c0,1.993,2.902,17.159,6.681,17.159
		c0.894,0,4.019-4.002,5.135-4.672c1.547-0.893,30.315-6.921,30.985-6.921c2.68,0,2.902,0.909,3.779,5.582
		c0.894,4.018,4.242,4.689,4.911,4.689c4.896,0,8.692-5.805,8.692-9.823c0-13.14-17.829-22.071-20.285-22.071
		c-0.67,0-0.893,0.462-0.893,0.893c0,0.67,1.339,3.125,1.547,3.795c1.579,3.572,2.472,6.475,2.472,8.245
		c0,1.563-0.447,2.679-2.68,3.126c-2.679,0.447-12.694,0.67-14.033,0.67c-1.132,0-4.481,0-4.481-2.009
		c0-0.877,0.462-1.547,4.019-7.352c8.691-14.272,9.824-15.835,12.263-16.935c4.242-1.34,5.582-2.009,5.582-4.465
		c0-1.786-0.894-2.233-7.352-5.342c-0.909-0.463-9.824-4.689-11.163-4.689c-0.877,0-1.116,0.446-1.116,1.116
		c0,0.447,0.239,2.902,0.239,3.573c0,4.002-3.349,18.483-4.019,20.938C207.594,365.751,206.923,365.751,203.128,365.751
		 M280.105,383.453c-0.335-1.164-2.073-2.313-7.176-6.443c-5.008-3.779-5.008-5.023-6.587-18.179
		c-0.303-2.201-1.881-15.373-3.46-15.373c-0.622,0-2.503,18.498-3.445,21.943c-3.11,13.523-7.479,18.738-13.252,21.019
		c-24.479,1.945-53.741,2.424-58.08-8.117c-7.367-17.813,1.308-54.396,1.308-54.396h78.029V202.948H159.576
		c2.87-7.064,3.142-7.846,3.652-9.393c6.794-2.36,8.101-3.668,8.101-6.012c0-2.615-2.344-3.668-4.433-3.939l-48.081-3.907
		c-1.037,5.231-2.089,10.716-7.83,23.251H62.81v120.958l46.502-0.16c0.095,0.909,0.192,1.85,0.255,2.886
		c0.734,11.689-3.349,30.969-8.164,44.62c-10.589,31.432-32.931,74.249-99.653,114.468l1.849,6.506
		c58.893-27.301,99.558-66.244,117.738-132.329c4.656-16.473,4.944-18.498,13.825-25.132l0.718-1.659l-11.498-9.409l26.057-0.08
		v66.898c0,19.072,8.867,30.825,35.004,30.825h51.987c22.485,0,32.213-6.363,38.719-23.872c1.531-3.477,2.871-7.686,3.971-12.949
		c0.064-0.255,0.08-0.494,0.048-0.717c0.032-0.128,0.064-0.223,0.095-0.335C280.232,383.468,280.152,383.468,280.105,383.453
		 M150.168,298.184h-43.854c-9.425,0-9.425-1.945-9.425-20.811c0-10.27,1.1-12.502,9.138-12.502h44.141
		c9.153,0,9.153,2.791,9.153,17.781C159.321,295.425,159.321,298.184,150.168,298.184 M150.455,257.663h-45.242
		c-8.883,0-8.883-2.201-8.883-14.974c0-15.82,0-17.494,8.883-17.494h45.242c8.866,0,8.866,1.946,8.866,15.548
		C159.321,255.717,159.321,257.663,150.455,257.663 M187.356,225.194h43.854c9.696,0,9.696,3.333,9.696,16.952
		c0,11.642,0,15.517-9.696,15.517h-44.141c-9.711,0-9.711-4.434-9.711-13.874C177.358,228.527,177.358,225.194,187.356,225.194
		 M177.358,281.806c0-12.47,0-16.935,9.998-16.935h43.854c9.696,0,9.696,4.178,9.696,16.393c0,12.774,0,16.92-9.696,16.92h-43.854
		C177.358,298.184,177.358,294.038,177.358,281.806"/>
	<path d="M474.183,267.436c-23.81,0-39.517,18.626-39.517,37.237c0,16.68,12.056,26.647,18.865,26.647
		c10.86,0,22.183-26.568,23.411-50.695c16.904,2.105,16.904,16.266,16.904,18.705c0,8.659-5.183,21.13-22.74,23.889
		c3.811,4.927,7.431,11.498,8.164,12.949c4.226-1.372,10.94-3.636,16.936-9.553c11.243-10.939,12.232-21.305,12.232-27.444
		C508.437,279.652,493.542,267.436,474.183,267.436 M462.255,310.461c-5.742,8.946-7.767,9.983-10.254,10.015
		c-5.2,0.08-7.511-7.463-7.591-12.997c-0.224-16.091,16.202-27.301,24.303-27.429c1.116-0.016,1.451,0.399,1.531,5.502
		C470.356,294.004,466.655,303.493,462.255,310.461"/>
	<path d="M263.36,224.263c4.976,4.018,9.361,11.864,12.04,17.223c4.417,9.377,4.609,9.377,7.654,9.377
		c3.254,0,7.273-2.87,7.273-8.994c0-14.926-19.903-19.137-28.306-19.519C261.621,222.923,262.02,223.306,263.36,224.263
		 M274.825,178.718c0.766,0.59,10.142,7.862,15.309,16.474c4.784,8.037,5.358,8.787,7.829,8.787c1.738,0,7.671-1.722,7.671-9.552
		c0-14.943-21.8-17.622-30.236-17.622c-0.957,0-1.722,0.207-1.914,0.399C273.311,177.969,274.06,178.352,274.825,178.718
		 M441.105,259.777c3.062-0.399,5.358-0.59,5.358-2.488c0-2.121-1.531-2.695-3.827-3.46l-24.112-8.022
		c-1.53,6.682-3.811,17.797-8.611,30.985c-0.749-11.083-1.339-25.436-1.339-38.831h35.019v-26.217h-9.792
		c0.272-0.733,0.447-1.515,0.447-2.408c0-10.716-14.145-19.503-24.478-19.503c-0.782,0-1.34,0.175-1.531,0.749
		c0,0.383,0.383,0.766,1.722,1.355c2.87,1.706,8.038,9.552,10.142,15.293c0.702,1.865,1.244,3.333,1.723,4.513h-26.041
		c-0.095-2.44-0.095-5.47-0.095-9.345c0-3.253,0.191-5.932,1.737-7.846c0.383-0.399,2.488-2.87,2.488-3.253
		c0-3.843-16.457-6.697-18.179-6.697c-0.574,0-1.515,0.175-1.515,1.132c0,0.957,1.515,4.976,1.706,5.949
		c0.447,2.392,1.021,13.842,1.228,20.061h-69.673v51.859c0,40.936-5.166,61.412-16.649,83.802c9.01,2.855,18.961,7.464,26.6,12.63
		c2.886-5.932,4.784-9.951,8.611-21.226c0.048,0,0.095,0,0.144,0.016c3.508-12.215,6.57-29.454,7.128-33.887l0.415-6.57
		c0.797,1.116,2.105,1.977,3.955,1.977c6.762,0,6.762-10.398,6.762-11.546c0-6.427-3.812-17.016-4.784-17.016
		c-0.335,0-0.335,0.335-0.51,1.499c-0.16,1.802-0.814,8.085-1.978,11.37c-0.287,0.909-1.818,3.907-3.013,6.602l1.068-17.127
		l0.112-18.339h34.462c3.397,0,5.82-0.08,7.064-0.925c0.478,6.841,1.084,13.698,1.898,21.528c-2.664-3.062-9.059-7.574-9.569-7.574
		c-0.478,0-1.148,2.153-1.802,3.971c-1.978,4.784-4.8,12.215-7.448,12.215c-1.467,0-1.467-2.153-1.467-3.301
		c0-4.465,0.319-13.22,0.814-14.033c0.35-0.51,2.981-2.807,2.981-3.476c0-2.631-13.045-4.29-14.033-4.29
		c-0.671,0-1.483,0.16-1.483,0.829c0,0.654,0.989,3.636,1.149,4.29c0.493,3.46,1.164,9.903,1.164,20.3
		c0,15.198-1.005,29.725-16.681,47.554c-0.654,0.494-3.302,2.982-3.636,3.795l0.16,0.494c1.164,0,15.357-6.426,24.431-24.909
		c2.472-4.976,2.647-5.454,3.971-5.454c2.472,0,4.624,4.784,5.454,7.575c2.153,6.937,2.297,7.607,4.944,7.607
		c2.807,0,5.63-2.647,5.63-6.937c0-5.278-2.647-7.591-10.573-10.398c-4.959-1.659-5.454-1.818-5.454-4.13
		c0-1.323,0.335-8.755,2.631-10.573c0.511-0.478,12.726-7.91,14.703-9.074c2.265-0.686,3.684-1.084,4.466-1.499l1.467,11.004
		c1.914,11.689,3.445,17.606,4.211,20.858c-4.912,6.634-10.254,13.635-19.934,21.975c0,0,0.016,0.032,0.031,0.032
		c-0.415,0.319-0.749,0.606-1.164,0.925c-3.763,3.189-8.196,6.57-13.507,10.206c8.388,4.194,15.836,9.361,23.857,16.601
		c3.253-2.089,10.907-7.639,22.214-21.241c1.706-2.264,3.987-5.486,6.298-8.85c0.112,0.159,0.207,0.287,0.319,0.462
		c6.123,8.994,20.843,25.643,30.236,25.643c3.237,0,6.108-1.531,6.108-5.358c0-1.531-2.073-8.835-2.471-10.525
		c-0.894-3.732-1.946-6.809-2.408-11.466c-0.032-0.191-0.207-0.957-0.574-0.957c-0.574,0-1.626,3.445-2.297,4.848
		c-4.018,8.564-8.818,3.253-9.393,2.663c-1.961-1.993-7.654-9.696-11.976-16.441c2.201-3.317,3.747-5.63,3.747-5.63
		C426.944,301.67,437.278,277,441.105,259.777 M369.87,240.481c-1.723,0-6.315,7.447-7.654,8.787
		c-0.766,0.957-1.133,1.34-8.229,1.34h-12.613l0.048-6.331v-6.315h40.362c0.271,4.577,0.526,8.851,0.797,13.061
		C379.39,247.179,370.652,240.481,369.87,240.481 M290.327,338.523c0-9.951,19.615-109.029,19.615-114.196
		c0-0.574-0.367-1.148-0.749-1.148c-0.766,0-1.339,0.941-1.738,2.089c-7.272,20.667-18.658,76.514-25.93,93.354
		c-5.932,13.778-7.081,13.97-19.903,14.735c-1.914,0.191-2.281,0.191-2.281,0.766c0,0.383,2.09,0.749,3.047,0.957
		c14.177,3.237,15.883,13.012,16.457,19.71c0.765,9.951,1.531,17.398,9.377,17.398c6.697,0,8.037-6.889,8.037-10.127
		c0-3.078-0.366-4.018-4.21-13.603C290.9,345.796,290.327,341.968,290.327,338.523"/>
</g>
</svg>
