<?xml version="1.0" encoding="utf-8"?>
<!-- Generator: Adobe Illustrator 27.0.1, SVG Export Plug-In . SVG Version: 6.00 Build 0)  -->
<svg version="1.1" id="레이어_1" xmlns="http://www.w3.org/2000/svg" xmlns:xlink="http://www.w3.org/1999/xlink" x="0px"
	 y="0px" viewBox="0 0 720 418.042" enable-background="new 0 0 720 418.042" xml:space="preserve">
<path fill="#4CA535" d="M109.881,316.298l2.233,1.874l-29.618,34.804l-2.195-1.874c3.747-4.429,4.807-9.784,2.536-12.396
	l-2.385-2.025l-20.988-17.866L35.371,358.01l-1.362,2.214c-1.93,3.16,1.041,8.403,6.454,11.715l-1.533,2.479L0,350.496l1.533-2.479
	c4.94,3.047,10.39,3.274,12.624,0.643l1.646-2.706l25.966-42.184l-19.985-16.995l-2.593-2.214
	c-2.763-1.646-7.854,0.265-11.601,4.693l-2.214-1.892l29.599-34.804l2.214,1.874c-4.126,4.845-5.318,10.73-2.517,13.134l2.006,1.684
	l17.26,14.706l22.181-36.11l1.779-2.914c1.211-2.952-1.438-7.702-6.396-10.75l1.533-2.48l38.93,23.941l-1.552,2.46
	c-5.375-3.293-11.394-3.596-13.362-0.454l-1.343,2.233l-24.054,39.138l25.701,21.859
	C100.153,323.262,105.774,321.124,109.881,316.298 M205.398,231.323c3.52,5.28,4.05,11.28,0.984,13.323l-2.195,1.476l-80.358,53.805
	l-2.176,1.476c-3.085,2.043-8.441-0.738-11.98-6l-2.404,1.628l25.436,37.945l2.404-1.608c-3.218-4.826-3.652-10.238-1.325-12.434
	l2.82-1.912l27.499-18.377c1.855,1.099,3.085,2.555,3.255,4.088l-0.094,3.426l-1.666,46.197l-0.114,3.123
	c-0.643,3.426-5.488,5.904-11.298,5.677l-0.095,2.914l45.667,1.628l0.095-2.895c-6.34-0.227-11.507-3.312-11.374-7.021l0.094-2.612
	l1.647-46.178l0.095-2.65c0.132-3.672,5.526-6.397,11.847-6.169l0.113-2.896l-31.473-1.135l46.197-30.943l2.612-1.722
	c3.141-1.476,7.967,0.984,11.223,5.829l2.423-1.628l-25.436-37.983L205.398,231.323z M318.856,294.931l-2.46-0.851l-34.217-11.734
	l-2.498-0.871c-3.483-1.211-4.523-7.134-2.46-13.134l-2.763-0.946l-6.548,19.095l-1.647-32.116l-0.132-2.593
	c-0.189-3.709,4.939-6.889,11.279-7.192l-0.151-2.914l-45.648,2.328l0.151,2.934c5.791-0.304,10.674,2.082,11.393,5.223l0.151,3.406
	l4.977,97.068l0.152,3.141c-0.341,3.426-4.94,6.34-10.75,6.624l0.151,2.915l45.629-2.347l-0.151-2.914
	c-6.321,0.341-11.734-2.309-11.942-5.962l-0.113-2.649l-2.479-48.014l2.706-0.454l3.218,1.097l34.236,11.734l2.952,1.022
	c3.085,1.608,4.05,6.964,2.157,12.452l2.763,0.947l14.819-43.207l-2.763-0.946C326.824,292.055,322.376,296.124,318.856,294.931z
	 M290.316,246.633l0.284,2.309l0.965,7.93l0.265,2.101c-0.076,2.366-3.066,4.56-6.984,5.052l0.208,1.968l30.924-3.785l-0.228-1.949
	c-4.296,0.511-8.1-1.022-8.403-3.52l-0.227-1.78l-0.965-7.91l-0.208-1.779c-0.303-2.499,3.028-4.902,7.324-5.413l-0.265-1.987
	l-30.905,3.784l0.246,1.95C286.267,243.132,289.711,244.552,290.316,246.633z M313.878,253.901c3.937,0.435,6.946,2.612,7.079,4.788
	l-0.265,2.309l-1.06,9.557l-0.227,2.12c-0.625,2.289-4.05,3.728-7.987,3.293l-0.208,1.968l30.943,3.443l0.227-1.967
	c-4.277-0.474-7.665-2.839-7.362-5.356l0.189-1.779l1.06-9.539l0.208-1.779c0.284-2.517,4.069-4.068,8.365-3.614l0.208-1.95
	l-30.943-3.482L313.878,253.901z M363.539,279.885c-0.152-5.829,2.328-10.655,5.488-11.28l3.407-0.113l73.166-2.214l3.141-0.113
	c3.445,0.454,6.227,5.109,6.435,10.901l2.896-0.057l-1.42-45.706l-2.895,0.076c0.208,6.359-2.555,11.715-6.246,11.847l-2.612,0.057
	l-73.166,2.252l-2.631,0.076c-3.69,0.095-6.756-5.072-6.946-11.413l-2.895,0.095l1.401,45.686L363.539,279.885z M353.357,271.237
	l-2.895-0.151l-2.706,45.61l2.896,0.151c0.359-5.791,3.255-10.371,6.453-10.693l64.536,3.823l-25.701,36.431l-7.551-1.57
	c-3.274-1.212-4.883-6.378-3.71-12.074l-2.839-0.587l-9.236,44.739l2.839,0.606c1.306-6.208,5.166-10.807,8.857-10.05l21.745,4.466
	l58.196-82.477l-104.979-6.226C355.552,283.009,352.998,277.576,353.357,271.237z M555.027,251.725l0.455-1.742l1.419-5.393
	l0.473-1.741c0.625-2.422,4.637-3.445,8.801-2.309l0.511-1.93l-30.129-7.968l-0.492,1.93c3.842,1.003,6.491,3.577,6.283,5.754
	l-0.587,2.252l-1.439,5.412l-0.549,2.063c-0.927,2.158-4.523,3.085-8.365,2.082l-0.492,1.912l21.764,5.754l-73.412,8.194
	c-3.672,0.417-7.154-4.504-7.854-10.806l-2.895,0.322l5.091,45.42l2.877-0.321c-0.662-5.772,1.457-10.807,4.542-11.677l68.17-7.609
	l-9.028,49.774l-52.518,1.306c-3.445-0.416-6.208-5.11-6.359-10.938l-2.895,0.075l1.135,45.686l2.914-0.076
	c-0.17-6.34,2.612-11.677,6.302-11.772l70.705-1.779l17.866-98.545l-18.377,2.045C556.219,255.718,554.535,253.617,555.027,251.725z
	 M570.394,231.777l0.227,2.328l0.984,10.126c-0.114,2.366-3.16,4.466-7.116,4.863l0.208,1.968l31-3.066l-0.189-1.968
	c-4.296,0.397-8.081-1.192-8.327-3.709l-0.189-1.76l-0.795-8.005l-0.151-1.779c-0.265-2.517,3.123-4.846,7.419-5.243l-0.189-1.987
	l-31,3.066l0.189,1.968C566.42,228.2,569.827,229.676,570.394,231.777z M587.957,273.337c3.085-4.921,7.854-7.513,10.826-6.302
	l2.877,1.817l28.426,17.79l2.668,1.684c2.612,2.271,2.347,7.703-0.757,12.605l2.479,1.552l24.244-38.74l-2.441-1.534
	c-3.369,5.376-8.63,8.327-11.772,6.34l-2.233-1.382l-28.426-17.808l-2.214-1.401c-3.122-1.949-2.801-7.967,0.587-13.361l-2.46-1.533
	l-24.262,38.74L587.957,273.337z M689.19,266.694l-2.139,1.95c4.277,4.675,5.677,10.542,2.952,13.021l-1.931,1.76l-63.703,58.101
	l-7.854-6.964l-1.968-1.741c-2.764-2.441-1.42-8.327,2.763-13.077l-2.158-1.912l-30.299,34.179l2.157,1.949
	c3.861-4.372,9.009-6.151,11.715-4.467l2.555,2.272l23.316,20.666l78.976-71.992l2.328-2.138c2.895-1.912,8.024-0.189,11.961,4.106
	l2.139-1.949L689.19,266.694z"/>
<path d="M111.887,129.712l-0.852,2.479l-17.279,49.017l-0.87,2.479c-1.23,3.463,2.782,7.968,8.763,10.05l-0.966,2.782L57.59,181.322
	l0.965-2.763c5.489,1.95,10.844,1.022,12.472-2.025l1.041-2.971l17.279-49.017l1.135-3.199c0.53-3.179-3.066-7.248-8.554-9.16
	l0.984-2.743l43.112,15.178l-0.984,2.725C119.079,125.265,113.117,126.249,111.887,129.712 M152.047,205.432l0.095-2.952
	l3.463-115.596l0.076-3.009c0.133-4.183,6.246-7.305,13.418-7.097l0.113-3.293l-51.894-1.571l-0.113,3.312
	c6.605,0.209,11.923,3.369,12.415,6.984l-0.133,3.88l-3.463,115.596l-0.095,3.558c-0.719,3.918-6.208,6.738-12.813,6.53
	l-0.095,3.312l51.894,1.552l0.114-3.313C157.819,213.136,151.914,209.653,152.047,205.432z M226.802,166.9
	c-5.867,2.404-11.866,1.76-13.267-1.684l-1.003-2.422l-18.32-44.551l-1.003-2.422c-1.401-3.425,2.366-8.119,8.233-10.542
	l-1.097-2.668l-42.28,17.393l1.116,2.668c5.375-2.195,10.769-1.571,12.472,1.174l1.306,3.16l18.32,44.532l1.211,2.933
	c0.814,3.35-2.574,7.627-7.949,9.822l1.098,2.706l42.261-17.393L226.802,166.9z M371.639,192.866l0.719,2.214l34.558-11.203
	l-0.7-2.214c-4.807,1.533-9.519,0.662-10.428-2.138l-0.643-1.968l-13.438-41.466l-0.624-1.968c-0.909-2.8,2.385-6.301,7.154-7.854
	l-0.7-2.196l-27.801,9.009l-0.511-20.704l15.651-2.006l2.99-0.378c3.312,0.095,6.397,4.277,7.097,9.784l2.745-0.359l-5.526-43.282
	l-2.764,0.378c0.757,5.981-1.324,11.337-4.826,11.791l-2.499,0.321l-13.399,1.704l-0.133-5.943l-0.057-2.497
	c-0.095-3.539,4.883-6.417,10.939-6.568l-0.076-2.782l-43.605,1.041l0.057,2.801c5.546-0.151,10.144,2.271,10.731,5.28l0.057,3.255
	l0.208,8.233l-11.999,1.533l-2.479,0.284c-3.501,0.472-6.889-4.164-7.665-10.201l-2.744,0.359l5.526,43.264l2.763-0.341
	c-0.7-5.508,1.211-10.334,4.145-11.203l3.218-0.417l9.765-1.249l0.606,24.83l-21.632-7.609l-0.757,2.196
	c4.372,1.514,7.23,4.75,6.794,7.286l-0.909,2.555l-4.599,13.115c-3.255,0.208-5.923-0.833-6.586-2.858l-0.643-2.006l-3.918-12.244
	l-0.624-1.988c-0.889-2.801,2.403-6.302,7.192-7.816l-0.701-2.214l-24.244,7.759l0.038-22.161l7.892,0.378l3.009,0.133
	c3.255,0.643,5.564,5.299,5.299,10.844l2.782,0.113l1.987-43.566l-2.782-0.132c-0.265,6.037-3.255,10.957-6.794,10.788l-2.498-0.114
	l-8.876-0.416l0.018-7.986v-2.517c0-3.539,5.054-6.284,11.109-6.284V72.5l-43.604-0.075l-0.019,2.763
	c5.545,0.018,10.069,2.554,10.561,5.564l0.018,3.255l-0.018,7.059l-13.456-0.605l-2.499-0.095c-3.52-0.189-6.056-5.338-5.791-11.394
	l-2.763-0.132l-1.987,43.603l2.782,0.095c0.246-5.545,2.972-9.935,6-10.314l3.274,0.133l14.402,0.662l-0.019,22.578l-27.934-7.267
	l-0.587,2.233c4.485,1.174,7.608,4.145,7.381,6.7l-0.681,2.631l-11.072,42.582l-0.624,2.422c-1.097,2.535-5.28,3.633-9.765,2.46
	l-0.587,2.233l35.183,9.16l0.587-2.234c-4.883-1.287-8.365-4.579-7.627-7.418l0.549-1.987l11.053-42.602l0.511-2.043
	c0.378-1.42,1.741-2.422,3.614-2.914l-0.095,62.188v2.991c-0.511,3.293-5.053,5.81-10.598,5.792v2.763l43.605,0.057l0.019-2.763
	c-6.056,0-11.09-2.801-11.09-6.302v-2.517l0.057-31.776l28.407-9.103l-8.687,24.774l-0.814,2.347
	c-1.325,2.441-5.583,3.199-9.936,1.646l-0.757,2.196l34.293,12.017l0.776-2.176c-4.769-1.684-7.967-5.242-7.002-8.005l0.701-1.968
	l13.967-39.895l1.306,53.919l0.076,3.01c-0.435,3.274-4.902,5.923-10.447,6.037l0.057,2.782l43.642-1.041l-0.076-2.763
	c-6.075,0.151-11.166-2.517-11.261-6.056l-0.057-2.497l-1.646-68.264c1.741,0.321,3.085,1.097,3.652,2.195l0.851,2.593
	l13.418,41.447l0.776,2.366C378.982,188.286,376.01,191.466,371.639,192.866z M287.288,167.45l0.019-24.244l0.151,0.208l0.833,2.593
	l3.936,12.263l0.757,2.366C293.363,163.116,290.979,165.897,287.288,167.45z M524.689,182.268c1.135,2.877,0.814,5.772-0.814,6.34
	l-1.571,0.549l-2.763,0.851c-1.855,0.512-3.672,0.966-5.432,1.212c-1.741,0.284-3.426,0.379-4.807,0.208l-1.76-0.379l-1.401-0.738
	l-1.135-1.116l-1.174-1.893c-0.87-1.533-1.609-3.596-3.596-6.226c-0.984-1.268-2.536-2.687-4.447-3.539l-0.701-0.303l-0.416-0.113
	l-0.398-0.095l-0.795-0.057l-3.066,0.795l-3.388,1.666l1.552-3.501l3.369-7.665l11.658-26.438c0.738-1.666,3.672-1.93,6.473-0.682
	l0.568-1.306l-20.345-8.951l-0.568,1.287c2.593,1.154,4.183,3.255,3.785,4.769l-11.658,26.457l-9.009,20.44l-4.675,10.598
	c0.398,0.72,1.325,0.682,0.643,4.296c5.829-3.141,11.942-6.377,17.014-8.686l3.52-1.438l1.476-0.417l0.189-0.057l0.095-0.132
	l0.095-0.266l0.019,0.038l0.284,0.303c0.568,0.682,1.42,2.593,2.574,4.751l2.29,3.501l3.463,3.274
	c2.555,1.817,5.943,2.782,8.668,3.009c2.801,0.228,5.337,0,7.721-0.397c2.404-0.379,4.656-0.946,6.851-1.571l3.237-1.041l1.57-0.549
	c1.722-0.359,3.842,1.305,4.864,3.937l1.438-0.568l-8.308-20.628L524.689,182.268z M576.526,126.249
	c0.795,2.989,0.076,5.829-1.665,6.302l-1.23,0.303l-23.392,6.188l0.814-6.093c0.228-1.78,2.972-2.821,6.019-2.423l0.208-1.4
	l-22.067-2.971l-0.189,1.42c2.82,0.359,4.939,1.967,4.997,3.52l-1.495,11.034l-10.674,2.801l-1.23,0.341
	c-1.722,0.454-3.747-1.685-4.542-4.675l-1.363,0.359l5.659,21.519l1.382-0.36c-0.719-2.725-0.057-5.299,1.344-5.942l1.628-0.417
	l6.189-1.646l-1.495,11.223l-1.079,8.005l-0.549,4.012l-0.265,1.988l0.038,0.359l0.113,0.265l0.208,0.474
	c3.747-1.551,7.665-3.142,11.563-4.637c1.93-0.738,3.842-1.458,5.696-2.006l2.782-0.757l1.382-0.284l1.23-0.208
	c2.082-0.322,4.145-0.417,5.924-0.228c1.911,0.228,2.82,0.568,3.841,1.306l1.798,3.009c0.303,1.325,0.303,3.35,0,5.318
	c-0.284,2.005-0.814,4.145-1.495,6.283l-1.135,3.199l-0.814,2.063c-0.833,1.363-3.464,1.514-6.019,0.341l-0.53,1.154l20.156,9.406
	l0.662-1.438c-2.82-1.268-4.543-3.671-3.823-5.431c0.34-0.776,1.57-3.918,2.309-6.34c0.795-2.535,1.457-5.223,1.836-8.081
	c0.341-2.896,0.492-5.847-0.322-9.386c-0.871-3.558-2.839-6.871-5.791-9.027c-1.476-1.117-3.104-1.95-4.845-2.537
	c-1.817-0.567-3.293-0.833-4.864-1.003c-3.085-0.284-5.981-0.057-8.706,0.359c-2.668,0.416-4.901,1.154-7.267,2.12l-0.549,0.171
	l0.095-0.663l0.17-1.305l0.36-2.65l0.87-6.53l0.227-1.628l27.84-7.323l1.476-0.397c1.703-0.189,3.52,1.722,4.258,4.447l1.362-0.341
	l-5.678-21.519L576.526,126.249z M646.361,160.144c-0.814-7.74-4.807-15.215-10.825-20.193c-3.047-2.517-6.283-4.448-10.276-5.735
	c-3.899-1.211-7.93-1.513-11.828-1.021c-7.798,0.926-15.159,4.863-20.156,10.976c-2.499,3.047-4.372,6.605-5.545,10.277
	c-1.439,4.485-1.817,9.425-1.42,13.853c0.36,4.58,1.439,8.592,2.612,12.718l0.909,3.142l0.246,0.795l0.132,0.397l0.322-0.133
	l1.476-0.776l5.848-3.122l11.734-6.208l1.476-0.795l1.325-0.72l2.062-1.249l2.101-1.268c1.551-0.926,4.087,0.53,5.677,3.18
	l1.211-0.72l-11.488-19.057l-1.211,0.738c1.457,2.422,1.552,5.071,0.359,6.055l-9.311,5.64l-2.043,1.249l-0.966,0.492l-0.34-1.154
	l-0.72-4.675l0.587-4.675c0.682-2.328,1.855-4.713,3.426-6.643c3.066-3.937,7.854-6.585,12.869-7.192
	c9.861-1.665,19.91,7.155,20.667,17.298c0.53,5.11-0.851,10.561-3.501,15.614c-1.325,2.555-2.933,4.997-4.75,7.343l-2.877,3.426
	l-1.287,1.4c-1.268,0.946-3.728,0.133-5.716-1.912l-0.889,0.871l15.349,16.106l1.116-1.079c-2.12-2.214-2.858-5.11-1.552-6.492
	l1.779-1.949l3.312-4.031c2.12-2.801,4.05-5.792,5.696-9.009C645.206,175.511,647.25,167.922,646.361,160.144z M421.943,156.208
	l-1.401-0.114l1.836-22.181l1.401,0.113c-0.246,3.067,0.927,5.754,2.725,5.905l1.287,0.095l15.368,1.268l-1.155-4.088l-0.435-1.589
	c-0.662-1.401-3.237-2.025-5.962-1.25l-0.397-1.362l21.404-6.038l0.397,1.363c-2.971,0.833-5.053,2.876-4.561,4.618l0.341,1.23
	l2.29,8.1l13.91,1.135l1.268,0.095c1.798,0.17,3.426-2.291,3.672-5.356l1.419,0.095l-1.816,22.181l-1.42-0.113
	c0.227-2.82-0.87-5.243-2.498-5.621l-1.533-0.114l-9.766-0.813l3.047,10.788l0.341,1.23c0.492,1.722,3.368,2.404,6.321,1.551
	l0.397,1.363L447,174.735l-0.378-1.362c2.725-0.776,4.599-2.65,4.391-4.316l-0.416-1.476l-4.183-14.799l-19.531-1.609l-1.666-0.132
	C423.646,151.173,422.17,153.369,421.943,156.208z M448.59,185.333c0.113,3.085-1.155,5.716-2.858,5.716l-1.193-0.018
	c-3.199-0.038-6.34-0.284-9.16-0.833c-2.839-0.587-5.28-1.533-6.851-2.896c-1.589-1.305-2.593-3.179-3.236-5.829
	c-0.662-2.63-0.87-5.754-0.928-8.951l-0.018-1.212c0-1.722,2.574-3.085,5.677-3.028l0.019-1.325l-22.238-0.474l-0.038,1.476
	c2.82,0.057,5.129,1.4,5.375,3.009l0.019,1.76c0.095,3.596,0.284,7.343,1.249,11.393c0.492,2.063,1.212,4.145,2.366,6.208
	c1.117,2.063,2.706,3.993,4.542,5.526c3.728,3.104,7.986,4.504,11.828,5.3c3.898,0.775,7.608,0.983,11.261,1.041h1.628
	c1.741,0.283,3.179,2.517,3.293,5.375l1.552-0.076l-1.003-22.219L448.59,185.333z"/>
<path fill="#4CA535" d="M637.391,19.092c-6.719,11.243-12.756,19.948-27.745,23.43c9.557-9.047,12.434-30.735,13.191-37.908
	c-2.99-2.537-17.336-5.772-22.9-4.202c-2.423,11.828-13.74,46.482-33.423,65.198c0.208-5.223-3.444-8.705-7.248-10.238l-0.492-0.209
	c-0.984-0.434-2.612-1.154-4.466-1.154l-3.16,0.795l-0.284-0.605l-2.782-1.571c0.303-1.912,0.019-3.899-0.889-5.943
	c-2.006-4.58-11.507-7.854-14.989-8.023h-0.53c-2.062,0-6.472,0.605-8.63,5.658l-4.485-0.946c-0.643-2.006-1.874-4.106-4.334-5.601
	c-1.457-0.891-3.633-1.345-6.416-1.345c-3.52,0-7.135,0.72-8.649,1.25c-1.968,0.7-5.753,2.043-6.245,8.346
	c-2.385-1.192-5.337-0.643-6.719,0.908c-1.041-0.889-2.763-1.571-5.564-1.571c-3.085,0-6.529,0.852-8.706,1.647
	c-5.829,2.101-8.8,5.98-8.479,10.863c-2.139-0.472-4.542,0.512-5.696,2.347l-0.795,2.384l-2.574-0.529
	c-2.347,0-4.542,1.267-6.208,2.574c-19.02-18.945-29.959-52.613-32.343-64.234c-5.564-1.57-19.929,1.666-22.919,4.202
	c0.776,7.172,3.653,28.861,13.211,37.908c-14.989-3.483-21.027-12.188-27.745-23.43c-3.747-1.551-18.737,7.609-19.02,10.693
	c17.979,32.742,30.47,33.234,45.137,34.823c11.563,1.249,22.862,12.472,33.99,21.007l0.322,1.893
	c-2.555,1.021-4.769,4.485-5.167,6.15c-0.378,1.458-0.738,6.302,1.325,8.934l1.684,1.362c-1.06,2.442-1.041,4.808,0.095,6.814
	c1.23,2.233,3.766,3.822,6.7,4.239l0.397,1.382l2.858,1.249l3.558-0.72c5.772-2.157,10.465-8.592,10.825-12.831l0.057-0.228
	l0.038-2.838c0.095-4.808,0.151-7.779,1.211-10.106l1.855-0.928l-0.076,1.117l0.322,2.895l1.571,0.738
	c1.211,0,2.593-0.87,4.391-2.082l0.833-0.549c0.53-0.341,4.769-3.047,5.318-5.469l0.113-0.379c0.246-2.441,1.098-6.283,2.214-7.456
	c3.464-1.684,8.99-3.614,12.396-3.614l0.662,0.037l0.322,5.773l0.019,0.037l0.397,1.23l3.52,1.041
	c3.766,0,11.469-1.324,13.456-3.955l0.454-2.271l0.133-2.782l2.876-1.571l4.656-0.474c3.047,0,5.659,0.568,7.646,1.363
	c0.549,0.53,1.646,3.766,2.366,6.946l0.018,0.037l0.038,0.568l3.88,3.122l4.694,2.442c2.687,1.551,4.996,2.896,6.794,2.896
	l2.177-1.022l0.511-1.722l-0.019-0.17l-0.019-0.058v-0.018l-0.019-0.018l-1.287-4.108l1.098-0.189c2.062,0,5.053,1.23,7.683,3.047
	c0.455,1.117,0.984,5.867,1.23,9.86l1.287,3.539l1.287,2.706c1.022,2.347,1.911,4.391,3.823,4.391l1.362-0.397l2.252-2.668
	l0.189-0.303l1.647,2.971l-0.397,0.246l-2.29,2.46l1.098,2.499c1.722,1.741,4.618,3.784,7.059,3.784l2.668-1.305
	c1.041-1.438,1.041-3.804,0-7.381c5.754-1.362,6.927-4.542,7.116-6.397c0.246-2.687-1.287-5.317-3.255-6.869l1.116-2.896
	l-1.287-1.703l1.93-3.104l0.228-1.666c10.106-8.081,20.364-17.393,30.83-18.528c14.667-1.589,27.158-2.082,45.137-34.823
	C656.127,26.701,641.138,17.541,637.391,19.092"/>
<path fill="#FFFFFF" d="M458.412,100.019l-1.59-1.193c-0.378-1.324,0.587-3.443,2.158-5.166c-0.246,1.816-0.341,3.917-0.397,6.434
	L458.412,100.019 M469.881,89.893l-0.889,0.587l-2.309,1.4l0.038-0.188l-0.397-3.293l-1.968-0.871c-2.082,0-4.807,2.045-6.246,3.275
	l-1.287,1.305c0.227-1.76,0.625-3.86,1.401-6.377l-0.397-1.363c4.618-5.413,10.958-10.957,19.02-15.235
	c-1.855,3.331-3.861,7.854-4.864,13.134v0.133l-0.038,1.628l1.949,2.422C473.344,87.263,471.659,88.777,469.881,89.893z
	 M512.633,70.154c-2.195,0.434-3.747,1.362-4.599,2.782c-0.795,1.343-0.946,3.009-0.378,4.769
	c-0.454,1.174-6.642,2.971-11.412,2.971l-1.268-0.057l0.151-0.605c0.284-0.984,0.7-2.499,0.587-4.429l-1.836-2.537l-0.17-0.095
	l-2.385-0.378c-3.823,0-9.746,2.006-13.645,3.937l-0.057,0.018l-1.647,0.908c1.59-4.637,3.748-8.233,5.242-10.409
	c7.589-3.312,16.465-5.469,26.666-5.469c7.173,0,13.664,1.099,19.531,2.877c0.624,2.043,1.268,5.109,1.665,8.118l-2.214-1.154
	l-0.303-0.17l-0.264-0.038C522.493,69.757,517.365,69.207,512.633,70.154z M537.766,84.461c-1.722-1.003-3.52-2.045-5.091-2.612
	c-1.987-0.757-2.233-1.306-2.252-1.4l0.965-1.893l0.625-1.912l0.018-0.113c-0.076-3.577-0.832-7.948-1.647-11.165
	c2.101,0.737,4.088,1.608,6.019,2.517l4.637,17.695l0.132,0.208l0.095,0.587L537.766,84.461z M542.479,80.789l-2.952-11.336
	c6.833,3.71,12.378,8.347,16.693,13.002l0.113,0.568l0.833,1.93l-0.397-0.359l-1.571-1.193l-0.208-0.17l-0.038-0.018
	c-3.085-2.12-6.642-3.501-9.254-3.501L542.479,80.789z M556.597,88.132c1.476,1.78,2.195,3.559,1.987,4.297l-0.379,0.246
	l-1.135,0.226C556.919,90.915,556.767,89.363,556.597,88.132z M572.722,103.462l-0.928,0.625l-0.114,1.079
	c1.628,4.921,0.947,6.246,0.795,6.454l-0.549,0.228c-1.268,0-3.501-1.288-5.204-3.029l-0.284-0.284l0.889-0.549l0.473-0.265
	l1.116-1.722c0.341-2.214-1.949-4.996-2.403-5.546l-1.779-0.965l-2.384,2.025l-1.23,1.76l-1.533-2.858l-1.382-2.914l-0.927-1.931
	l1.401-0.321l2.441-2.158l0.095-1.135c0-0.492-0.076-1.987-0.492-4.069c2.46,3.408,4.258,6.625,5.299,9.255l1.116-2.668
	c-5.053-12.907-23.07-38.418-59.256-38.418c-36.185,0-54.183,25.511-59.274,38.418l1.135,2.668c1.003-2.574,2.744-5.696,5.129-8.989
	c-1.476,6.283-0.814,9.822-0.738,10.201l0.151,1.174c0.455,1.628,1.76,2.725,3.653,3.084l0.568,0.72v0.095
	c0.227,2.876-3.842,9.065-9.16,11.034l-3.236,0.511l-0.057,0.018l0.17-0.624c0.947-1.837,1.836-3.483,2.952-4.826l-0.189-1.855
	l-1.855,0.189l-2.839,4.542c-2.29-0.208-4.372-1.287-5.262-2.914c-0.909-1.609-0.662-3.596,0.682-5.772l0.038-1.325l-1.155-0.662
	l-1.571-0.758l-0.852-6.7c0.322-1.325,2.536-4.466,4.391-4.371l1.684-0.36l-0.132-1.722l-0.852-2.914l2.555-1.041l1.533-0.17
	l0.284-1.496c-3.633-7.948-0.17-11.411,1.893-13.456c1.098-1.116,4.012-4.05,6.851-4.05l3.445,1.817l2.422,4.542l1.155,0.682
	l0.606-0.151l0.549-1.779l-2.479-4.656l-0.094-3.52l2.328-1.268l1.987,0.833l1.589,0.208l0.587-1.495
	c-1.798-6.094,2.46-9.047,6.34-10.447c1.968-0.72,5.072-1.476,7.816-1.476c1.874,0,4.202,0.341,4.542,2.063l1.401,1.059l1.192-1.305
	c0-1.741,1.93-1.817,2.309-1.817l2.914,1.987l1.457,1.155l1.135-1.438c-0.795-7.684,2.366-8.801,4.542-9.577
	c1.06-0.378,4.41-1.079,7.684-1.079c2.271,0,4.012,0.341,5.053,0.966c2.933,1.797,3.52,4.655,3.804,7.476l-0.833,5.545l1.097,1.495
	l0.208,0.02l1.268-1.135l0.871-5.716v-0.133l0.018-0.113l0.322-1.647l0.416-0.151l2.044,2.329l1.193,1.305l1.401-1.097
	c0.908-5.716,4.315-6.927,7.002-6.927l0.416,0.02c3.141,0.151,11.355,3.368,12.699,6.454c1.438,3.255,0.643,5.375-0.095,6.7
	l0.455,1.741l1.76-0.341l1.041-0.587l0.701,0.341l-0.284,1.968l0.511,1.722l1.741-0.417l3.691-2.233l3.425,0.946l0.549,0.228
	c1.836,0.757,7.608,3.709,5.053,10.693l-0.038,0.095l-4.656,6.491l0.303,1.817l0.757,0.246l1.079-0.529l4.75-6.643l0.095-0.208
	l0.511,0.416c0.265,0.341,0.757,1.4,0,3.52l0.549,1.534l1.628-0.171l2.384-1.022c1.912,0,3.861,1.458,4.485,2.46l0.303,0.492
	c0.946,1.476,2.895,4.58,2.195,7.117l-3.047,3.16l-0.682,1.457l1.287,1.022l1.798,0.397l-1.628,1.287l-0.701,1.25l0.852,1.154
	c1.798,0.643,3.728,3.104,3.52,5.3C578.891,101.286,576.639,102.819,572.722,103.462z"/>
<path d="M127.746,389.937l0.416,0.076l2.65,18.566l-0.53,0.7l-1.589,0.208l-0.72-0.53l-1.57-11.015l-5.64,9.709h-0.643l-6.34-9.993
	l-1.551,11.223l-0.72,0.549l-1.589-0.227l-0.53-0.719l2.517-18.377l0.435-0.095l8.006,12.661L127.746,389.937 M537.142,402.674
	l-8.006-12.661l-0.416,0.095l-2.536,18.377l0.53,0.719l1.59,0.227l0.7-0.549l1.571-11.223l6.321,9.993h0.662l5.639-9.709
	l1.571,11.015l0.719,0.53l1.59-0.208l0.53-0.7l-2.649-18.566l-0.416-0.076L537.142,402.674z M156.115,403.563l-2.668-1.192
	l-0.946-0.284l-0.682-0.662l0.246-0.549l2.65,0.341l0.851-0.114l1.06-1.192l0.019-0.814c-2.044-1.608-4.258-1.836-6.151-0.624
	l-1.514,3.293l2.612,3.009l1.06,0.341l1.741,0.719l0.17,0.492l-0.682,0.643l-2.214-0.435l-0.682-0.379l-0.927,0.076l-1.079,1.155
	l0.095,0.909l1.287,0.795l2.952,0.776l1.097-0.095l2.933-2.782L156.115,403.563z M172.184,403.563l-2.669-1.192l-0.927-0.284
	l-0.701-0.662l0.246-0.549l2.65,0.341l0.851-0.114l1.041-1.192l0.019-0.814c-2.025-1.608-4.239-1.836-6.113-0.624l-1.533,3.293
	l2.612,3.009l1.06,0.341l1.722,0.719l0.189,0.492l-0.682,0.643l-2.214-0.435l-0.682-0.379l-0.927,0.076l-1.079,1.155l0.095,0.909
	l1.287,0.795l2.952,0.776l1.079-0.095l2.952-2.782L172.184,403.563z M320.881,403.563l-2.65-1.192l-0.946-0.284l-0.701-0.662
	l0.265-0.549l2.631,0.341l0.851-0.114l1.06-1.192l0.019-0.814c-2.044-1.608-4.239-1.836-6.132-0.624l-1.533,3.293l2.612,3.009
	l1.079,0.341l1.722,0.719l0.17,0.492l-0.662,0.643l-2.233-0.435l-0.681-0.379l-0.908,0.076l-1.098,1.155l0.095,0.909l1.306,0.795
	l2.933,0.776l1.098-0.095l2.952-2.782L320.881,403.563z M374.156,403.563l-2.669-1.192l-0.946-0.284l-0.7-0.662l0.265-0.549
	l2.631,0.341l0.852-0.114l1.06-1.192l0.018-0.814c-2.044-1.608-4.239-1.836-6.131-0.624l-1.533,3.293l2.612,3.009l1.079,0.341
	l1.722,0.719l0.17,0.492l-0.662,0.643l-2.214-0.435l-0.7-0.379l-0.908,0.076l-1.098,1.155l0.095,0.909l1.306,0.795l2.933,0.776
	l1.098-0.095l2.952-2.782L374.156,403.563z M206.627,393.287l0.095-0.909l-1.022-1.211l-0.889-0.095l-9.369,7.759v-8.1l-0.643-0.643
	h-1.589l-0.643,0.643v17.79l0.643,0.625h1.589l0.643-0.625v-5.98l1.722-1.439l7.816,8.119l0.89,0.019l1.154-1.098l0.019-0.908
	l-7.665-7.967L206.627,393.287z M224.569,403.923c0,3.274-2.498,5.867-5.677,5.867c-3.199,0-5.696-2.593-5.696-5.867
	c0-3.293,2.498-5.886,5.696-5.886C222.071,398.037,224.569,400.63,224.569,403.923z M221.711,403.923
	c0-1.722-1.211-3.028-2.82-3.028s-2.82,1.306-2.82,3.028c0,1.703,1.211,2.99,2.82,2.99S221.711,405.626,221.711,403.923z
	 M486.592,403.923c0,3.274-2.498,5.867-5.677,5.867s-5.677-2.593-5.677-5.867c0-3.293,2.498-5.886,5.677-5.886
	S486.592,400.63,486.592,403.923z M483.734,403.923c0-1.722-1.211-3.028-2.82-3.028c-1.59,0-2.801,1.306-2.801,3.028
	c0,1.703,1.211,2.99,2.801,2.99C482.523,406.913,483.734,405.626,483.734,403.923z M244.062,403.79c0,3.142-2.479,5.621-5.621,5.621
	l-2.971-0.851l-0.606,0.587h-1.609l-0.643-0.625V390.58l0.643-0.643h1.589l0.625,0.643v8.422l2.971-0.833
	C241.583,398.17,244.062,400.649,244.062,403.79z M241.186,403.79l-2.745-2.763l-2.763,2.763l2.763,2.745L241.186,403.79z
	 M335.151,398.454l-3.047,0.795v-8.498l-0.624-0.624h-1.59l-0.643,0.624v17.809l0.643,0.624h1.59l0.624-0.624v-4.277
	c0-1.741,1.287-2.971,3.047-2.971c1.779,0,3.066,1.23,3.066,2.971v4.239l0.625,0.625h1.608l0.624-0.625v-4.239
	C341.074,400.952,338.538,398.454,335.151,398.454z M597.571,389.937l0.624,0.643v17.941l-0.624,0.625h-1.59l-0.662-0.625v-0.113
	l-3.217,1.003c-3.142,0-5.602-2.479-5.602-5.621c0-3.141,2.46-5.621,5.602-5.621l3.217,1.003v-8.592l0.662-0.643H597.571z
	 M594.864,403.79l-2.763-2.763l-2.744,2.763l2.744,2.745L594.864,403.79z M263.215,404.604l1.93,3.047l0.019,0.909l-1.117,1.135
	l-0.927-0.019l-1.628-1.949c-1.022,1.192-2.555,1.949-4.334,1.949c-3.255,0-5.716-2.422-5.716-5.658c0-3.199,2.46-5.621,5.716-5.621
	l3.199,0.928v-0.416l0.643-0.624h1.589l0.625,0.624V404.604z M259.997,404.018l-2.839-2.764l-2.858,2.764l2.858,2.782
	L259.997,404.018z M304.132,404.604l1.949,3.047v0.909l-1.079,1.135l-0.946-0.019l-1.628-1.949
	c-1.022,1.192-2.555,1.949-4.353,1.949c-3.255,0-5.696-2.422-5.696-5.658c0-3.199,2.441-5.621,5.696-5.621l3.218,0.928v-0.416
	l0.643-0.624h1.571l0.662,0.624L304.132,404.604z M300.914,404.018l-2.839-2.764l-2.839,2.764l2.839,2.782L300.914,404.018z
	 M445.788,404.604l1.95,3.047l0.018,0.909l-1.097,1.135l-0.947-0.019l-1.628-1.949c-1.022,1.192-2.555,1.949-4.333,1.949
	c-3.256,0-5.716-2.422-5.716-5.658c0-3.199,2.46-5.621,5.716-5.621l3.198,0.928v-0.416l0.643-0.624h1.59l0.624,0.624
	L445.788,404.604z M442.59,404.018l-2.839-2.764l-2.839,2.764l2.839,2.782L442.59,404.018z M565.757,404.604l1.93,3.047l0.019,0.909
	l-1.079,1.135l-0.965-0.019l-1.59-1.949c-1.041,1.192-2.574,1.949-4.352,1.949c-3.255,0-5.716-2.422-5.716-5.658
	c0-3.199,2.46-5.621,5.716-5.621l3.198,0.928v-1.079l0.643-0.643h1.589l0.625,0.643L565.757,404.604z M562.54,404.018l-2.82-2.764
	l-2.839,2.764l2.839,2.782L562.54,404.018z M348.682,408.522l0.643,0.625h1.59l0.643-0.625v-8.252l-0.643-0.624h-1.59l-0.643,0.624
	V408.522z M352.183,395.52l-2.063,2.082l-2.082-2.082l2.082-2.082L352.183,395.52z M137.871,408.522l0.624,0.625h1.59l0.643-0.625
	v-8.252l-0.643-0.624h-1.59l-0.624,0.624V408.522z M141.373,395.52l-2.082,2.082l-2.082-2.082l2.082-2.082L141.373,395.52z
	 M575.125,408.522l0.643,0.625h1.59l0.624-0.625v-8.252l-0.624-0.624h-1.59l-0.643,0.624V408.522z M578.645,395.52l-2.082,2.082
	l-2.082-2.082l2.082-2.082L578.645,395.52z M283.162,409.014h1.968l0.624,0.643v1.59l-0.624,0.624h-2.082
	c-0.322,1.987-1.268,3.861-2.574,4.977l-3.009,1.193l-0.682-0.057l-2.99-2.933l0.587-4.164c1.362-1.457,3.672-1.816,5.923-1.855
	v-1.211l-2.763,0.682c-3.199,0-5.621-2.385-5.621-5.564v-4.031l0.643-0.624h1.59l0.643,0.624v4.031l2.744,2.687l2.763-2.687v-4.031
	l0.643-0.624h1.59l0.624,0.624V409.014z M280.134,411.891c-1.911,0.076-3.141,0.397-3.633,0.928l-0.057,1.116l0.795,1.211
	l1.362-0.473L280.134,411.891z M465.944,409.014h1.95l0.643,0.643v1.59l-0.643,0.624h-2.063c-0.322,1.987-1.268,3.861-2.593,4.977
	l-2.991,1.193l-0.681-0.057l-2.991-2.933l0.587-4.164c1.344-1.457,3.672-1.816,5.923-1.855v-1.135l-2.593,0.568
	c-3.16,0-5.45-2.176-5.45-5.185c0-2.991,2.29-5.167,5.45-5.167c3.142,0,5.45,2.176,5.45,5.167V409.014z M462.897,411.891
	c-1.912,0.076-3.123,0.397-3.615,0.928l-0.076,1.116l0.795,1.211l1.382-0.473L462.897,411.891z M463.086,403.28l-2.593-2.29
	l-2.593,2.29c0,1.722,1.401,2.309,2.593,2.309C461.686,405.588,463.086,405.001,463.086,403.28z M500.767,398.245l-3.388,0.965
	v-0.303l-0.643-0.624h-1.59l-0.624,0.624v9.879l0.114,0.114l0.303,0.303h1.912l0.624-0.624v-4.277c0-1.855,1.401-3.199,3.293-3.199
	c1.892,0,3.274,1.344,3.274,3.199v4.277l0.644,0.624h1.589l0.643-0.624v-4.277C506.918,400.838,504.268,398.245,500.767,398.245z
	 M358.315,392.359l0.227,0.871l1.382,0.795l0.87-0.246l1.76-3.047l-0.246-0.87l-1.362-0.795l-0.871,0.227L358.315,392.359z
	 M411.098,399.702c0,5.469-3.937,9.596-9.141,9.596h-5.735l-0.624-0.643v-17.904l0.624-0.643h5.735
	C407.162,390.107,411.098,394.233,411.098,399.702z M408.222,399.702c0-3.899-2.631-6.718-6.264-6.718h-3.483v13.437h3.483
	C405.591,406.421,408.222,403.602,408.222,399.702z M420.826,400.024v-1.116l-0.625-0.624h-1.589l-0.643,0.624v9.614l0.643,0.625
	h1.589l0.625-0.625v-3.918l2.309-2.252h2.763l0.625-0.643v-1.59l-0.625-0.624h-2.763L420.826,400.024z"/>
</svg>
