<?xml version="1.0" encoding="utf-8"?>
<!-- Generator: Adobe Illustrator 27.9.0, SVG Export Plug-In . SVG Version: 6.00 Build 0)  -->
<svg version="1.1" id="레이어_1" xmlns="http://www.w3.org/2000/svg" xmlns:xlink="http://www.w3.org/1999/xlink" x="0px"
	 y="0px" viewBox="0 0 720 180.033" enable-background="new 0 0 720 180.033" xml:space="preserve">
<path d="M180.339,94.041l13.119,25.376h20.693l-16.781-31.272l28.148-27.819h-19.395l-24.548,24.06l2.908-24.06h-18.334
	l-7.053,59.091h18.153C177.249,119.417,180.339,94.041,180.339,94.041z M232.496,119.428h24.695c8.634,0,12.92-3.345,13.89-10.845
	l3.18-26.033c0.448-3.725,0-6.35-1.497-7.96s-4.462-2.812-9.093-2.812h-24.78c-6.196,0-12.898,1.054-14.111,10.953l-3.186,26.039
	c-0.488,3.713,0,6.35,1.508,8.067c1.508,1.712,4.513,2.591,9.388,2.591H232.496z M242.734,85.708
	c0.136-1.633,0.862-6.491,7.075-6.491h6.582c0,0-0.601,5.8-0.964,8.164l-2.041,16.424c-0.329,2.381-1.009,6.968-7.33,6.968h-6.678
	L242.734,85.708z M291.91,119.428h25.132c8.555,0,12.614-3.175,13.652-10.743l0.34-2.648h-18.227
	c-1.066,4.065-4.876,4.734-7.024,4.734h-6.542l1.287-10.998h31.26l2.126-17.337c0.437-3.577-0.074-6.128-1.559-7.801
	c-1.667-1.871-4.677-2.857-9.456-2.857h-23.936c-9.558,0-13.595,3.226-14.553,10.964l-3.305,26.028c-0.454,3.651,0,6.259,1.565,7.96
	C284.228,118.431,287.17,119.428,291.91,119.428z M302.267,85.708c0.216-3.716,3.343-6.589,7.064-6.491h6.701l-1.485,12.319
	l-13.068,0.13C301.479,91.666,302.267,85.708,302.267,85.708z M558.404,119.428h25.137c8.549,0,12.608-3.175,13.646-10.743
	l0.34-2.648h-18.227c-1.06,4.065-4.876,4.734-7.024,4.734h-6.542l1.287-10.998h31.255l2.12-17.337
	c0.437-3.577-0.085-6.128-1.559-7.801c-1.678-1.871-4.683-2.857-9.468-2.857h-23.953c-9.558,0-13.601,3.226-14.553,10.964
	l-3.317,26.028c-0.448,3.651,0.062,6.259,1.576,7.96C550.631,118.431,553.67,119.428,558.404,119.428z M568.762,85.708
	c0.268-3.683,3.372-6.511,7.064-6.435h6.707l-1.491,12.319l-13.068,0.125L568.762,85.708z M361.658,88.032
	c0,0,4.144-3.385,6.882-5.374c2.16-1.332,4.575-2.2,7.087-2.551c0,0-0.794,6.055-0.935,7.472l-3.889,31.85h18.272l4.433-36.878
	c0.476-3.742,0-6.35-1.519-8.084c-1.519-1.735-4.303-2.687-8.617-2.687h-4.252c-3.419,0.019-6.765,0.993-9.66,2.812l-6.86,5.42
	l0.992-8.232H345.32l-5.873,47.633h18.283C357.729,119.411,361.658,88.032,361.658,88.032z M399.041,119.428h18.255l5.72-47.65
	h-18.198l-5.783,47.65H399.041z M444.554,71.773c-8.079,0-12.058,3.345-12.898,10.84l-3.186,25.608
	c-0.454,3.64,0.057,6.236,1.57,7.931c1.508,1.689,4.331,3.277,8.498,3.277h6.843c9.354,0,13.946-8.657,13.946-8.657l-2.058,15.772
	h-30.807l-0.935,8.827h35.444c6.758,0,13.81-1.225,14.876-10.301l6.372-53.285C482.22,71.784,444.554,71.773,444.554,71.773z
	 M462.197,87.068l-1.933,15.976c0,0-3.611,7.727-11.832,7.727h-2.086l3.118-25.064c0.391-3.345,2.409-6.48,7.104-6.48h6.469
	C463.036,79.228,462.389,85.623,462.197,87.068z M623.101,71.773c-8.073,0-12.058,3.345-12.898,10.84l-3.186,25.608
	c-0.448,3.64,0.062,6.236,1.559,7.931c1.497,1.689,4.348,3.277,8.498,3.277h6.809c9.36,0,13.952-8.657,13.952-8.657l-2.064,15.772
	h-30.807l-0.901,8.816h35.438c6.758,0,13.81-1.225,14.87-10.295l6.378-53.291C660.751,71.773,623.101,71.773,623.101,71.773z
	 M640.744,87.068l-1.984,15.976c0,0-3.606,7.727-11.837,7.727h-2.03l3.124-25.064c0.397-3.345,2.415-6.48,7.109-6.48h6.469
	C641.594,79.228,640.88,85.623,640.744,87.068z M682.351,71.773c-8.073,0-12.047,3.345-12.898,10.84l-3.186,25.608
	c-0.459,3.64,0.062,6.236,1.559,7.931c1.497,1.689,4.337,3.277,8.498,3.277h6.843c9.371,0,13.958-8.657,13.958-8.657l-2.115,15.772
	h-30.807l-0.901,8.816h35.45c6.758,0,13.81-1.225,14.87-10.295L720,71.773H682.351z M699.993,87.068l-1.984,15.976
	c0,0-3.6,7.727-11.837,7.727h-2.03l3.124-25.064c0.385-3.345,2.404-6.48,7.098-6.48h6.48
	C700.844,79.228,700.163,85.623,699.993,87.068z M499.421,119.434h24.366c8.753,0,13.238-3.702,14.111-11.174l0.765-6.35
	c0.442-3.39,0-5.822-1.406-7.466c-2.29-2.687-6.917-3.078-10.981-3.175h-17.921l0.601-5.38c0.275-3.834,3.54-6.76,7.381-6.616h6.123
	l-0.55,6.491h18.351l0.505-3.402c0.425-3.64-0.13-6.253-1.689-7.965c-1.565-1.718-4.377-2.625-8.436-2.562h-26.368
	c-7.977,0-11.951,3.345-12.898,10.851l-0.879,6.486c-0.493,4.037,0,6.848,1.548,8.589c2.285,2.602,6.831,2.665,11.242,2.727h17.325
	l-0.352,2.733c-0.147,1.82-1.168,7.608-8.05,7.608h-6.197l0.567-4.728h-18.595l-0.255,2.494c-0.476,3.674,0,6.282,1.502,7.982
	C491.427,119.014,495.64,119.434,499.421,119.434z M37.848,131.402c1.446,2.37,2.993,4.74,4.643,7.087l5.936-2.823
	C48.427,135.665,37.848,131.402,37.848,131.402z M27.768,111.571c1.429,3.419,3.027,6.922,4.836,10.46l10.324-4.235L27.768,111.571z
	 M21.634,94.132c0.935,3.271,2.03,6.712,3.317,10.29l13.447-4.564C38.398,99.858,21.634,94.132,21.634,94.132z M17.518,76.365
	c0.646,3.39,1.389,6.916,2.228,10.443l15.874-4.87l-18.102-5.579V76.365z M14.729,58.92c0.346,2.71,0.828,6.032,1.417,9.706
	l16.639-4.632L14.729,58.92z M42.939,117.773l21.855,8.929l21.861-8.929l-21.861-8.957L42.939,117.773z M48.5,135.676l16.316,8.946
	l16.327-8.946l-16.327-8.946L48.5,135.676z"/>
<path d="M87.057,138.522c1.644-2.353,3.186-4.722,4.643-7.092l-10.624,4.235L87.057,138.522z M97.001,122.031
	c1.747-3.423,3.36-6.912,4.836-10.46l-15.16,6.236C86.677,117.807,97.001,122.031,97.001,122.031z M104.62,104.428
	c1.287-3.583,2.381-7.024,3.316-10.295l-16.764,5.726l13.447,4.564L104.62,104.428z M109.813,86.808
	c0.839-3.526,1.587-7.053,2.234-10.448l-18.062,5.579C93.985,81.938,109.813,86.808,109.813,86.808z M96.797,64l16.628,4.654
	c0.607-3.668,1.06-6.996,1.434-9.706l-18.062,5.046V64z M87.176,48.155c-14.031-4.859-19.973-5.686-22.371-5.686
	c-2.404,0-8.339,0.828-22.377,5.686l22.377,6.877L87.176,48.155z M64.805,144.679l-12.121,6.599
	c3.781,4.167,7.824,8.073,12.121,11.713c4.292-3.635,8.341-7.547,12.121-11.713l-12.121-6.605V144.679z M35.66,81.904l29.123,8.94
	l29.14-8.946l-29.14-8.94l-29.129,8.946L35.66,81.904z M38.443,99.847l26.339,8.94l26.339-8.94l-26.339-8.946L38.443,99.847z
	 M32.825,63.983l31.958,8.935l31.969-8.935l-31.969-8.94l-31.963,8.94H32.825z M53.892,25.478l-1.831,1.814
	c3.151,3.145,8.233,3.21,11.463,0.147v4.739h2.625v-4.785c3.231,3.063,8.312,2.998,11.463-0.147l-1.899-1.769
	c-2.209,2.201-5.784,2.195-7.985-0.014c-1.048-1.052-1.64-2.475-1.647-3.96c0-2.277,1.375-4.328,3.481-5.193
	c2.109-0.871,4.534-0.39,6.151,1.219l1.825-1.82c-3.159-3.124-8.224-3.19-11.463-0.147v-4.734h-2.574v4.734
	c-3.238-3.038-8.299-2.973-11.458,0.147l1.825,1.814c2.212-2.198,5.787-2.187,7.985,0.026c1.045,1.052,1.634,2.472,1.641,3.954
	c0.004,2.278-1.373,4.331-3.481,5.193c-2.107,0.868-4.529,0.388-6.145-1.219C53.869,25.478,53.892,25.478,53.892,25.478z"/>
<path d="M98.152,46.08c-16.35-6.157-27.621-9.298-33.358-9.298c-5.732,0-16.996,3.18-33.352,9.298
	c-9.411,3.549-22.938,9.309-22.938,9.309c1.437,12.445,3.675,24.784,6.701,36.941c5.624,21.43,18.805,53.915,49.589,78.054
	c30.807-24.134,43.971-56.619,49.589-78.054c3.028-12.158,5.268-24.5,6.707-36.946c0,0-13.527-5.743-22.938-9.298V46.08z
	 M111.962,91.694c-5.703,21.742-18.516,52.31-47.157,75.48c-28.686-23.17-41.431-53.744-47.157-75.48
	c-2.844-11.437-4.973-23.04-6.372-34.741c6.984-2.957,14.017-5.797,21.095-8.521c20.012-7.546,28.686-9.144,32.468-9.144
	c3.781,0,12.461,1.587,32.462,9.139c7.079,2.726,14.114,5.566,21.101,8.521c-1.426,11.703-3.58,23.306-6.452,34.741h0.011V91.694z"
	/>
<path d="M99.637,17.087C88.598,10.297,76.936,4.576,64.811,0C52.701,4.579,41.055,10.3,30.03,17.087
	C11.185,28.562,0,39.537,0,39.537c0.46,18.487,3.051,36.86,7.722,54.754c6.208,23.652,21.917,60.338,57.089,85.742
	c35.172-25.404,50.887-62.09,57.089-85.742c4.686-17.892,7.292-36.264,7.767-54.754C129.667,39.537,118.482,28.562,99.637,17.087z
	 M120.075,93.815c-3.88,14.644-9.761,28.683-17.478,41.72c-9.651,16.44-22.499,30.778-37.786,42.168
	c-15.289-11.387-28.138-25.726-37.786-42.168c-7.715-13.037-13.594-27.076-17.473-41.72C5.012,76.327,2.428,58.389,1.848,40.331
	c8.986-8.14,18.741-15.387,29.129-21.64C41.718,12.098,53.044,6.507,64.811,1.99c11.766,4.514,23.092,10.101,33.834,16.69
	c10.386,6.256,20.14,13.508,29.123,21.651C127.186,58.388,124.606,76.326,120.075,93.815z"/>
<g>
</g>
<g>
</g>
<g>
</g>
<g>
</g>
<g>
</g>
<g>
</g>
<g>
</g>
<g>
</g>
<g>
</g>
<g>
</g>
<g>
</g>
<g>
</g>
<g>
</g>
<g>
</g>
<g>
</g>
</svg>
