<?xml version="1.0" encoding="utf-8"?>
<!-- Generator: Adobe Illustrator 27.0.1, SVG Export Plug-In . SVG Version: 6.00 Build 0)  -->
<svg version="1.1" id="레이어_1" xmlns="http://www.w3.org/2000/svg" xmlns:xlink="http://www.w3.org/1999/xlink" x="0px"
	 y="0px" viewBox="0 0 720 257.682" enable-background="new 0 0 720 257.682" xml:space="preserve">
<path d="M480.677,99.718l0.524,22.886h34.988v-0.786l3.969,4.794c6.406,6.443,14.909,9.964,24.013,9.964
	c9.026,0,17.605-3.521,23.972-9.964c6.443-6.404,10.003-14.946,9.966-23.972l-0.039-1.388h14.946l3.484-32.589h-22.287v-6.854
	h15.693l2.323-18.618h10.151V26.034h-28.168V10.227h-32.628v15.808H525.74V9.591h-47.05l1.237,56.525h-29.743v20.79
	c0,4.458-3.67,8.091-8.203,8.091l-5.693-2.359l-2.398-5.732V51.282h-20.602l5.206-16.107l9.141,2.846l5.057-16.407L387.927,7.792
	l-7.529,24.086l-1.536-16.594l-41.655,3.708L327.168,0L298.1,14.948l3.82,7.154l-45.288,3.784l0.862-8.016h-45.662v-7.719h-31.055
	v7.719h-42.59l3.484,31.727l-0.526,0.375l11.349,18.355h-18.73l1.724,16.183l-23.037-53.754L89.64,40.532l0.224-12.586l9.516-0.039
	V10.789H48.285l1.612,30.154l-25.435-9.44L0,97.432l35.063,12.961l1.685-4.531l2.247,25.36h48.621l1.312-60.498l10.714,24.912
	l-7.456,3.297l7.042,15.62l18.019-8.091l19.742-8.43l0.037,0.414l-10.414,13.446l25.735,20.003l4.159-5.355v3.708h5.805
	l2.51,121.479h70.423l-1.461-13.336h25.36v14.159h30.154l2.284-68.587h9.029l2.284-15.469h1.911l1.049,12.248h20.602v8.99
	l-29.407,25.172l21.24,24.761l8.167-7.005v17.644h34.126v-46.936l4.943-4.195v54.353l59.486-33.337l-15.956-28.433l-10.901,6.143
	v-69.525l-37.571,32.102v-11.724h9.552v-17.157h-43.678v11.763h-23.862l0.674,8.016h-18.355l10.227-3.633l-7.456-21.201
	c7.831,3.633,16.708,5.618,25.922,5.618c13.073,0,25.435-3.857,35.024-10.901l4.833-3.558l-19.329-26.222l-4.833,3.521
	c-3.932,2.922-9.628,4.57-15.696,4.57c-5.956,0-11.761-1.724-15.584-4.57l-3.896-5.505l3.896-5.544
	c3.823-2.846,9.628-4.57,15.584-4.57h6.068V64.918l7.792,26.969l37.61-10.938l-12.813,40.868l35.738,11.05l13.373-43.415
	c0.974,15.734,10.974,29.144,24.873,34.951l-4.008-0.713l-2.398,12.813h-16.032v37.347h9.138l-2.883,15.469l32.326,5.995
	c-8.24,6.367-13.56,16.331-13.56,27.532c0,19.178,15.62,34.837,34.8,34.837c19.253,0,34.876-15.659,34.876-34.837l-0.075-2.247
	h19.477V187.97h-10.224l20.49-24.198l2.135,75.444h46.374v-37.347H565.22v-55.103h-37.496l0.336,12.55l-38.358-32.441
	l-12.287,14.459v-4.831h-19.553l1.086-6.031l-15.659-2.885c10.414-0.3,20.079-4.495,27.534-11.912
	C475.432,111.104,478.729,105.674,480.677,99.718 M516.188,61.808h25.36v6.966c-8.055,0.601-15.584,4.047-21.391,9.815l-3.969,4.794
	V61.808z M50.983,67.428l1.273,26.446h-11.05L50.983,67.428z M476.593,164.709h-7.154v-6.031L476.593,164.709z M450.934,173.85
	h10.787v14.232c-5.094,0.263-9.852,1.648-14.159,3.935L450.934,173.85z M494.386,187.97v-8.279l9.703,8.279H494.386z
	 M253.974,50.496l2.209-20.303l5.544,28.17l18.281-1.612l-1.388,0.937c-10.899,8.016-17.118,19.628-17.118,31.803
	c0,11.425,5.432,22.287,15.133,30.23l-32.553,11.5l24.873-19.331l-10.375-13.446l3.258-30.118h-20.003l11.013-17.831H253.974z
	 M241.237,132.268l-8.128-2.021h5.919V126.5l4.008,5.133L241.237,132.268z M218.687,134.068h-12.922l-1.312-5.208l3.932,3.034
	l1.273-1.646h9.966L218.687,134.068z M197.822,123.69l4.833,3.784l-8.018,1.948h-3.071l-0.224-0.75L197.822,123.69z M353.354,50.345
	l18.99-1.685l-1.386-15.396l9.289-0.86L366.575,76.08L353.354,50.345z"/>
<polygon points="668.72,130.245 638.49,210.109 639.876,210.746 636.016,214.754 627.777,232.922 627.589,239.364 632.047,244.047 
	650.176,252.214 653.66,252.961 661.34,247.979 669.468,229.851 669.918,224.268 671.866,225.169 703.929,164.933 712.995,169.016 
	720,153.396 "/>
<path d="M621.523,146.803l-3.672-4.682l-29.407,22.964l3.596,4.719c2.586,3.448,7.68,11.651,8.805,19.443l-2.997-3.036
	l-12.211,12.063l33.938,34.162l4.232-4.232C651.003,201.007,634.183,163.099,621.523,146.803"/>
<path fill="#FFFFFF" d="M248.167,94.921h4.758l2.247-20.641H233.07v-5.469l1.013,0.638l10.862-17.532l-11.987-7.417h15.584
	l2.323-20.602h-45.063v-7.792h-18.992v7.792h-41.917l2.211,20.602h14.235l-11.987,7.417l10.826,17.532l2.323-1.424v6.255h-22.102
	l2.286,20.641h4.682l-12.362,15.92l16.258,12.625l11.237-14.422v15.209h19.029v-9.44l6.706,8.654l9.589-7.38l9.477,7.38l6.781-8.654
	v9.44h18.99v-15.209l11.237,14.422l16.295-12.625L248.167,94.921z M214.08,60.345V74.28h-14.123v20.641h3.445l-5.581,7.193
	l-5.695-7.193h3.448V74.28h-14.047V60.345h-6.594l11.875-7.341v15.808h18.992V51.954l13.597,8.391H214.08z"/>
<polygon fill="#FFFFFF" points="132.755,93.309 109.305,38.621 85.931,48.621 107.469,98.666 100.164,101.963 102.299,106.646 
	114.924,100.953 "/>
<polygon fill="#FFFFFF" points="93.387,21.951 93.387,16.784 54.579,16.784 56.376,49.709 27.982,39.222 7.716,93.911 
	31.503,102.713 49.97,52.855 56.376,55.215 58.512,99.867 42.18,99.867 44.501,125.227 81.773,125.227 84.022,21.951 "/>
<path fill="#FFFFFF" d="M456.14,72.108v14.797c0,7.755-6.331,14.123-14.161,14.123c-7.753,0-14.084-6.367-14.047-14.123V57.314
	h-22.925l9.552-29.594l9.104,2.81l1.573-4.943l-9.141-2.81l-24.235-7.492l-32.105,102.601l24.274,7.492l14.646-47.462h8.617
	l-0.039,8.99c0,19.141,15.622,34.725,34.725,34.725c19.18,0,34.8-15.584,34.8-34.725V72.108H456.14"/>
<polygon fill="#FFFFFF" points="519.709,15.62 484.797,15.62 487.044,116.612 510.193,116.612 510.193,20.753 519.709,20.753 "/>
<path fill="#FFFFFF" d="M568.181,73.233V55.816h16.482l2.247-18.618h9.513v-5.169h-28.243V16.221h-20.604v15.808h-30.79
	l0.188,23.787h30.566v19.029l-3.37-0.187c-15.471,0-27.982,12.511-27.982,27.982c0,15.394,12.511,27.943,27.982,27.943
	c15.394,0,27.943-12.55,27.943-27.943l-0.974-7.344h16.446l2.247-20.639h-21.69v-1.424H568.181 M544.17,109.942
	c-4.083,0-7.344-3.258-7.344-7.303c0-4.083,3.26-7.344,7.344-7.344c4.045,0,7.341,3.26,7.341,7.344
	C551.512,106.684,548.215,109.942,544.17,109.942"/>
<polygon fill="#FFFFFF" points="364.403,27.831 373.917,26.972 373.43,21.839 363.99,22.701 333.76,25.323 324.621,8.055 
	306.267,17.495 311.548,27.308 262.513,31.391 266.558,51.957 321.775,47.087 330.166,63.418 325.819,64.692 331.588,84.471 
	359.906,76.192 343.875,45.139 365.826,43.228 "/>
<path fill="#FFFFFF" d="M313.608,105.56c-7.232,0-14.235-2.06-19.18-5.693c-2.359-1.76-6.294-5.393-6.294-10.375
	c0-4.982,3.935-8.654,6.294-10.378c4.945-3.633,11.948-5.693,19.18-5.693V52.819c-11.727,0-22.852,3.445-31.391,9.701
	c-9.365,6.857-14.761,16.708-14.761,26.972c0,10.227,5.396,20.078,14.761,26.969c8.427,6.255,19.665,9.703,31.391,9.703
	c11.836,0,22.962-3.448,31.464-9.703l-12.25-16.594C327.916,103.5,320.911,105.56,313.608,105.56"/>
<path fill="#FFFFFF" d="M220.296,220.223v-14.386l2.284,8.992l12.287-3.036l-5.919-23.899l-8.651,2.174v-9.74h12.886v-15.883
	h-12.886v-5.844l10.901,2.698l5.956-23.899l-12.362-3.034l-4.495,18.167v-12.435h-15.883v13.745l-4.758-19.477l-10.638,2.622v-1.536
	h-20.565l2.174,110.242H228.5l-2.247-20.565l-37.235-0.037v-13.261l12.211,2.997l3.185-13.336v18.73H220.296z M194.712,187.895
	l-5.695,23.112v-66.713l4.195,17.006l11.201-2.773v5.919h-12.399v15.883h12.399v9.964L194.712,187.895z"/>
<polygon fill="#FFFFFF" points="302.483,157.365 259.441,157.365 259.441,154.032 287.535,144.068 280.644,124.628 238.875,139.461 
	238.875,232.359 257.193,232.359 259.441,177.97 265.136,177.97 265.136,246.518 283.527,246.518 285.775,177.97 295.478,177.97 
	297.725,162.498 302.483,162.498 "/>
<polygon fill="#FFFFFF" points="672.092,138.336 646.095,206.963 669.244,217.377 701.273,157.18 710,161.076 712.098,156.394 "/>
<polygon fill="#FFFFFF" points="416.845,217.898 406.806,199.882 392.157,208.122 392.157,141.37 354.625,173.509 354.625,142.719 
	364.177,142.719 364.177,137.586 332.411,137.586 332.411,149.35 309.036,149.35 311.397,174.709 332.411,174.709 332.411,192.502 
	305.515,215.539 318.926,231.198 332.411,219.622 332.411,244.307 354.625,244.307 354.625,200.63 371.518,186.171 371.518,243.297 
	"/>
<polygon fill="#FFFFFF" points="505.55,181.301 473.971,154.668 490.414,135.302 521.881,161.936 "/>
<path fill="#FFFFFF" d="M511.915,194.001h-23.597l0.073-23.337h-20.639v23.636l-4.12-0.299c-15.846,0-28.808,12.925-28.808,28.844
	c0,15.883,12.961,28.844,28.808,28.844c15.92,0,28.881-12.961,28.881-28.844l-1.2-8.24h20.602V194.001 M463.632,231.086
	c-4.497,0-8.206-3.708-8.206-8.24c0-4.57,3.708-8.24,8.206-8.24c4.531,0,8.24,3.67,8.24,8.24
	C471.872,227.377,468.164,231.086,463.632,231.086"/>
<polygon fill="#FFFFFF" points="471.424,142.493 450.632,142.493 452.02,135.302 427.033,130.695 424.861,142.493 409.803,142.493 
	409.803,167.892 420.103,167.892 417.032,184.522 441.981,189.132 445.95,167.892 463.445,167.892 463.445,147.626 471.424,147.626 
	"/>
<polygon fill="#FFFFFF" points="559.265,152.758 533.866,152.758 536.113,233.221 570.726,233.221 570.726,207.861 559.265,207.861 
	"/>
<path fill="#FFFFFF" d="M616.802,150.511l-20.005,15.622c0.226,0.224,16.071,20.938,8.055,35.699l-7.042-7.156l-3.672,3.633
	l25.472,25.662C643.847,199.697,628.376,165.308,616.802,150.511"/>
<polygon fill="#FFFFFF" points="655.834,245.544 652.611,246.745 634.482,238.578 633.321,235.356 641.449,217.226 644.634,215.991 
	662.764,224.195 664.038,227.377 "/>
</svg>
