<?xml version="1.0" encoding="utf-8"?>
<!-- Generator: Adobe Illustrator 27.0.1, SVG Export Plug-In . SVG Version: 6.00 Build 0)  -->
<svg version="1.1" id="레이어_1" xmlns="http://www.w3.org/2000/svg" xmlns:xlink="http://www.w3.org/1999/xlink" x="0px"
	 y="0px" viewBox="0 0 720 306.316" enable-background="new 0 0 720 306.316" xml:space="preserve">
<path fill="#EF8200" d="M413.712,7.996c-2.385-0.276-7.072-0.138-7.072-0.138h-26.179l-1.337,0.138h-3.433l-2.633-0.276
	c0,0-0.758-0.276-0.965,2.895c-0.207,3.171-0.427,100.497-0.427,100.497l0.042,2.757c0,0,0.069,1.792,3.06,2.068
	c2.385,0.276,13.703,0.138,13.703,0.138h24.318l2.647,0.276c0,0,0.744,0.138,0.951-3.032c0.207-3.171,0.441-100.497,0.441-100.497
	l-0.055-2.757C416.772,10.064,416.703,8.271,413.712,7.996 M395.212,97.602l-1.393-1.379l-1.544-30.88l1.255-1.379h6.424
	l1.337,1.379v30.88l-1.351,1.379H395.212z M401.305,43.976l-1.337,1.379h-7.375l-1.406-1.379l-0.855-16.267l1.268-1.379h8.396
	l1.323,1.379L401.305,43.976z"/>
<path fill="#EF8200" d="M487.616,37.083l-22.747,1.379l-1.186-0.827l1.475-1.103l14.847-0.69l2.412-0.689l0.992-3.171l-0.082-2.206
	l-0.593-2.481l-3.074-0.965l-13.11,0.69l-1.158-1.241l1.517-1.241l18.155-1.379h2.661c0,0,0.744,0.138,0.744-1.654
	c0-1.792-0.055-9.65-0.055-9.65l0.276-2.757c0,0,0.083-0.414-2.426-0.551l-16.998-0.138l-1.296-0.414l-0.51-1.516l-3.557-3.584
	l-2.551-0.414l-13.841,0.138l-2.55,0.552l-3.433,3.722l-0.538,1.241l-1.324,0.138l-14.764-0.138l-2.661,0.138
	c0,0-0.979,0-1.199,2.482c-0.22,2.481-0.469,12.545-0.469,12.545l-0.097,2.757c0,0-0.055,1.241,3.033,1.241l16.419-0.965
	l1.337,0.965l-1.309,1.103l-10.946,0.551l-2.413,0.552l-0.979,3.171l0.082,2.206l0.579,2.481l3.074,0.965l10.725-0.552l1.351,0.689
	l0.041,0.965l-1.241,0.827l-18.39,1.241h-2.661c0,0-0.744,0-0.744,1.792c0.013,1.792,0.082,9.65,0.082,9.65l-0.276,2.757
	c0,0-0.069,0.276,2.44,0.414c2.509,0.276,65.564,0.138,65.564,0.138l2.661-0.138c0,0,0.979,0,1.186-2.481
	c0.22-2.481,0.455-12.407,0.455-12.407l0.083-2.757C490.635,38.462,490.69,37.083,487.616,37.083"/>
<path fill="#EF8200" d="M482.309,60.105l-2.633,0.276l-7.168-0.138h-35.071c-2.109,0-11.828,0-11.828,0l-2.633-0.276
	c0,0-0.745-0.138-0.965,3.033c-0.207,3.171-0.427,59.14-0.427,59.14l0.041,2.757c0,0,0.069,1.93,3.061,2.206
	c2.992,0.276,15.164,0.138,15.164,0.138h2.661c0,0,1.833,0.276,1.902-3.584c0.041-1.379-1.172-16.267-1.172-16.267l1.227-1.379
	l20.169,0.138l1.323,1.103l-1.323,2.206h-1.792l-2.482,0.552l-1.323,3.171l-0.703,11.166l0.345,2.481l2.991,1.103h8.919
	c0,0,7.017,0.276,10.009-0.138c2.978-0.138,3.06-2.068,3.06-2.068l0.042-2.757c0,0-0.234-56.797-0.441-59.967
	C483.053,59.829,482.309,60.105,482.309,60.105 M442.289,80.784l-1.406-0.69l1.213-1.378h22.512l1.324,0.689l-1.324,1.379H442.289z
	 M443.544,95.12l-1.448-1.103l1.144-2.344h21.367l1.337,1.241l-1.324,2.205H443.544z"/>
<path fill="#E4006E" d="M369.529,89.744c-1.268-2.895-16.653-25.09-16.943-25.641c-0.593-0.965-1.82-2.206-3.681-1.379
	c-1.626,0.689-10.05,4.687-10.05,4.687s-1.737,0.414-0.827,2.895c0.248,0.69,1.199,3.171,2.44,6.204h-21.188
	c6.92-5.239,14.516-10.891,14.516-10.891s1.737-1.516,0.441-3.584l-1.075-1.654c15.081,0,26.317,0,26.317,0s2.578-0.138,2.826-3.033
	c0.248-2.757,0.524-15.44,0.524-15.44s0.138-3.033-3.308-3.033c-1.434,0-19.548,0.827-40.364,1.792l0.4-2.619l28.329-0.689
	c1.365-0.138,2.427-1.241,2.372-2.619l-0.207-5.514c-0.055-1.517-1.199-2.482-2.55-2.482l-26.4,0.69l0.345-2.482
	c18.018-0.965,33.058-1.792,33.058-1.792s2.316,0.138,2.316-1.792c0-1.93-0.069-12.407-0.069-12.407s0.4-1.93-2.412-2.068
	c-1.048-0.138-14.172-0.138-30.232-0.276l0.11-0.689C324.161,2.619,321.472,0,318.233,0l-18.514,0.276
	c-3.253,0-5.859,2.757-5.817,6.203l0.014,0.138c-17.784-0.138-32.548-0.138-32.548-0.138s-2.592,0.138-2.826,2.895
	c-0.262,2.895-0.565,15.577-0.565,15.577s-0.138,2.895,3.322,3.033c1.337,0,15.784-0.689,32.906-1.654l0.027,2.344l-27.323,1.103
	c-1.365,0.138-2.412,1.241-2.371,2.619l0.207,5.514c0.055,1.517,1.199,2.482,2.55,2.482l27.089-1.241l0.027,1.93l0.097,0.827
	c-21.588,1.103-40.226,2.068-40.226,2.068s-2.33-0.138-2.33,1.792c0.014,2.068,0.11,12.407,0.11,12.407s-0.4,1.93,2.412,2.068
	c0.8,0.138,9.65,0.138,21.878,0.138l-0.785,0.69l-3.998,5.514l-0.345,0.414l-0.166,0.276l-0.151,0.276
	c-1.213,1.654-0.868,3.998,0.758,5.238l4.894,3.722h-17.618c-2.371,0-4.287,1.93-4.287,4.411v9.374c0,2.343,1.916,4.273,4.287,4.273
	l37.193,0.138v30.19c0,0-0.469,4.549,3.764,4.549c3.405,0,13.055,0,13.62,0c0.565,0,4.949,0.276,4.949-5.101
	c0-4.136,0-21.505,0-29.639h29.294c0.951,2.205,1.557,3.86,1.557,3.86s1.089,2.068,3.474,1.241
	c2.385-0.827,15.523-5.928,15.523-5.928S370.783,92.777,369.529,89.744 M299.691,73.201l-0.8,0.965l-6.783-5.239
	c3.888-2.757,6.576-4.825,6.576-4.825s1.186-2.068-0.785-3.722c4.783,0,9.677,0,14.516,0
	C306.267,66.585,299.691,73.201,299.691,73.201z"/>
<path fill="#E4006E" d="M344.784,98.843c0,0-1.048-2.068-2.647-0.965c-1.585,0.965-16.874,8.409-16.874,8.409
	s-1.764,0.69-0.441,3.171c1.296,2.481,12.214,25.503,12.214,25.503s1.764,2.895,4.136,1.654c2.385-1.241,16.943-11.58,16.943-11.58
	s2.44-1.517,0.717-4.411C357.081,117.591,344.784,98.843,344.784,98.843"/>
<path fill="#E4006E" d="M290.262,109.044c0,0-15.964-7.995-17.991-9.374c-2.027-1.241-3.377,1.379-3.377,1.379
	s-16.956,24.263-19.176,27.985c-2.206,3.86,0.91,5.652,0.91,5.652s16.349,10.477,19.382,11.993c3.019,1.654,5.252-2.068,5.252-2.068
	s13.91-28.398,15.564-31.569C292.495,109.872,290.262,109.044,290.262,109.044"/>
<path fill="#641B0C" d="M186.139,85.884l-1.641,0.276c-3.97,0.689-7.789,1.103-11.649,1.103c-10.38,0-18.031-2.757-22.787-8.133
	l-1.103-1.241l-9.981,9.099l1.117,1.379c7.403,8.409,18.349,12.683,32.562,12.683c4.384,0,9.168-0.414,14.172-1.379l1.627-0.276
	L186.139,85.884"/>
<rect x="145.968" y="49.628" fill="#641B0C" width="38.793" height="13.648"/>
<path fill="#641B0C" d="M242.578,79.129c-5.197-5.652-11.966-8.547-20.127-8.547c-7.72,0-14.392,2.757-19.81,8.271
	c-5.446,5.377-8.202,12.131-8.202,20.265c0,4.687,1.172,9.374,3.488,13.648c2.523,4.963,5.804,8.409,9.746,10.202
	c1.571,0.689,2.978,1.379,4.315,1.93l1.365,0.552l16.24-31.018l-11.773-6.479l-8.823,16.818c-0.8-1.93-1.186-3.86-1.186-5.652
	c0-4.273,1.392-7.72,4.26-10.615c2.854-2.895,6.259-4.273,10.38-4.273c4.411,0,7.872,1.516,10.574,4.687
	c2.605,3.033,3.943,6.755,3.943,11.442c0,4.963-1.53,9.374-4.701,13.648l-0.992,1.378l10.518,8.271l1.02-1.241
	c4.99-6.617,7.513-14.061,7.513-22.057C250.325,91.95,247.719,84.781,242.578,79.129"/>
<path fill="#641B0C" d="M508.295,94.845V82.3h-15.44v27.02h1.875c4.88,0,8.161,0.414,9.995,1.103
	c2.84,1.103,4.177,3.171,4.177,6.479c0,3.446-2.04,6.342-6.245,8.685l-1.668,0.965l7.624,13.924l1.682-0.965
	c4.122-2.481,7.458-5.652,9.912-9.237c2.743-4.136,4.136-8.685,4.136-13.372c0-5.514-1.668-10.339-4.935-14.337
	C516.4,98.843,512.665,96.224,508.295,94.845"/>
<polyline fill="#641B0C" points="527.388,70.72 506.475,62.036 500.671,76.786 521.598,85.471 527.388,70.72 "/>
<path fill="#641B0C" d="M566.443,96.637c-6.19-1.378-10.546-5.101-13.317-11.304c-2.04-4.825-3.226-11.304-3.515-19.3
	c-0.193-5.239-0.014-11.304,0.551-18.335l0.124-1.654l-13.316-1.103l-0.138,1.792c-0.593,7.306-0.786,13.924-0.579,19.851
	c0.882,24.814,10.049,39.427,27.268,43.425l1.626,0.414l2.923-13.372L566.443,96.637"/>
<path fill="#641B0C" d="M588.623,107.252c-0.29-4.963,0.096-9.925,1.13-15.164c0.965-4.825,2.289-8.961,4.081-12.545l0.731-1.379
	l-11.442-6.066l-0.744,1.379c-2.33,4.549-4.067,9.788-5.28,15.991c-1.433,7.168-1.93,13.51-1.447,18.611
	c0.386,5.101,1.916,11.028,4.646,18.059l0.73,1.792l22.333-14.75l-7.016-11.166L588.623,107.252"/>
<polyline fill="#641B0C" points="619.2,86.436 608.295,93.467 621.681,115.248 632.586,108.217 619.2,86.436 "/>
<path fill="#E4006E" d="M118.852,168.598c0.524-4.136,1.695-18.887,1.695-18.887s0.358-4.273-4.715-4.687
	c-0.841,0-4.618,0.138-10.215,0.414c-0.055-8.823-0.124-15.302-0.179-16.129c-0.22-3.171-2.261-2.757-2.261-2.757
	s-11.056-0.138-13.179-0.138c-2.109,0-1.902,2.619-1.902,2.619s0,7.306,0,17.37c-4.591,0.276-9.512,0.552-14.613,0.827
	c0.041-9.236,0.069-16.129,0.041-17.232c-0.082-3.86-3.239-3.446-3.239-3.446s-13.523-0.276-16.515,0
	c-2.978,0.276-3.116,3.584-3.116,3.584s0.028,7.858,0.069,18.335c-3.515,0.276-6.975,0.552-10.339,0.69
	c-0.055-10.064-0.124-17.094-0.234-18.335c-0.441-5.239-4.673-4.687-4.673-4.687s-18.335-1.103-22.319-0.552
	c-3.984,0.69-3.901,4.549-3.901,4.549s0.579,8.547,1.434,20.816c-4.508,0.276-7.168,0.414-7.168,0.414s-3.419-0.414-3.515,2.619
	c-0.124,2.895,1.64,14.199,1.64,14.199s-0.703,2.895,3.419,3.308c0.579,0.138,3.143,0.138,7.058,0.276
	c2.095,30.052,4.618,65.758,4.935,68.239c0.551,4.135,3.336,4.411,3.336,4.411s14.86,1.516,17.701,1.241h0.041
	c20.596,1.379,75.697,5.376,75.697,5.376s3.805-0.138,4.26-4.273c0.455-4.135,1.324-22.746,1.324-22.746s0.303-4.411-4.783-4.549
	c-3.971-0.276-53.047,1.241-74.167,1.93c0.014-13.786,0.014-32.534-0.014-49.352c3.364,0.138,6.838,0.138,10.38,0.138
	c0.069,16.405,0.179,31.707,0.262,33.085c0.22,3.171,2.275,2.757,2.275,2.757s9.622,0,14.847,0h24.125
	c2.247,0.138,8.037,0.138,10.422,0c2.992-0.414,3.116-3.584,3.116-3.584s-0.041-15.164-0.124-31.707c5.445,0,8.781,0,8.781,0
	S118.328,172.734,118.852,168.598 M88.138,184.589H73.304c0.028-3.86,0.041-7.995,0.069-12.131c5.156,0,10.132,0,14.751,0.138
	C88.124,176.732,88.124,180.867,88.138,184.589z"/>
<path fill="#EF8200" d="M233.589,221.948c-11.869-3.446-19.81-8.271-24.593-11.993h5.886c2.151,0,8.271,0.138,10.753-0.138
	c3.033-0.276,3.157-3.584,3.157-3.584s-0.234-58.313-0.441-61.484c-0.221-3.17-2.303-2.757-2.303-2.757s-8.216,0-11.938,0h-64.572
	c-3.433-0.138-13.041-0.138-15.509,0c-3.033,0.276-3.171,3.584-3.171,3.584s0.234,58.313,0.455,61.622
	c0.22,3.171,2.302,2.619,2.302,2.619s8.34,0.138,12.007,0.138h4.659c-4.797,3.722-12.724,8.547-24.607,11.993l-1.227,1.654
	c0.165,0.827,3.515,13.648,4.742,18.197l2.303,1.241c6.052-1.792,11.346-3.86,15.95-6.066c-3.212,5.239-7.858,11.442-14.544,17.922
	l-0.345,2.343c0.551,0.69,10.325,11.58,13.896,15.578l2.868-0.138c20.527-19.851,26.551-38.048,28.177-44.803
	c0.552-2.343-1.999-2.895-1.999-2.895s-3.612-0.689-7.761-1.379c1.82-1.654,3.198-3.033,4.122-4.135
	c1.393-1.654-0.386-3.171-0.386-3.171s-4.329-3.308-8.258-6.341h32.837c-3.929,3.033-8.258,6.341-8.258,6.341
	s-1.778,1.517-0.386,3.171c1.378,1.516,3.763,3.998,7.237,6.893c-1.668,0-2.785,0-2.785,0s-1.599-0.414-1.861,1.93
	c-0.262,2.482-0.703,41.495-0.703,41.495s0.027,2.344,2.343,2.619c2.33,0.276,18.79-0.138,18.79-0.138s2.468,0.138,2.647-2.757
	c0.124-2.206-1.062-21.505-1.792-32.81c4.742,2.343,10.201,4.411,16.487,6.341l2.316-1.241c1.213-4.549,4.577-17.37,4.715-18.197
	L233.589,221.948 M152.985,160.74h19.672c-0.014,1.517-0.041,3.309-0.055,5.239c-8.34-0.138-16.074-0.138-20.044-0.138
	C152.709,164.049,152.861,162.257,152.985,160.74z M150.972,184.176c3.86,0.138,12.338,0.138,21.478,0.138
	c-0.013,2.482-0.027,4.825-0.041,6.893h-22.057C150.559,189.001,150.765,186.657,150.972,184.176z M190.385,184.313
	c8.189,0,14.295,0,14.295,0s2.592,0.276,2.578-1.93c0.013-2.206-0.083-13.786-0.083-13.786s0.455-2.068-2.661-2.344
	c-0.979,0-6.7-0.138-14.103-0.138c0-1.93,0-3.722,0-5.377h20.334c0.014,9.374,0.014,21.23,0.027,30.466h-20.402
	C190.371,189.138,190.385,186.795,190.385,184.313z"/>
<path fill="#641B0C" d="M574.81,165.841l-0.731,0.276c-3.584,1.103-7.072,2.757-10.684,4.687l-0.855,0.552l0.662,0.689l0.276,0.414
	c0.855,0.827,3.143,3.308,5.928,8.133l0.111,0.138l0.689-0.414l-0.676,0.414l0.372,0.689l0.662-0.276
	c2.385-1.241,4.811-2.344,7.223-3.171l0.745-0.276L574.81,165.841"/>
<path fill="#641B0C" d="M568.193,181.28c-3.446-6.203-7.72-10.477-9.416-11.993l-0.193-0.138l-0.179-0.138l-0.096-0.138
	l-0.248-0.138l1.13-3.998l9.539,0.276l0.441-12.407l-6.438-0.276l1.158-3.998l-11.759-3.446l-1.999,6.893l-7.472-0.276
	l-0.455,12.545l4.398,0.138l-3.033,10.615l0.772,0.276c0.11,0,10.973,3.171,15.536,17.784l0.234,0.827l11.704-3.86l-0.248-0.69
	C570.716,186.381,569.571,183.762,568.193,181.28"/>
<path fill="#641B0C" d="M557,200.994c-2.013-1.654-2.95-3.446-2.867-5.79c0.055-1.792,0.662-3.584,1.806-5.239h0.069l0.207-0.276
	l0.345-0.414l-0.22-0.552c-1.682-3.584-3.902-6.617-6.589-9.237l-0.593-0.414l-0.648,0.69c-4.177,4.411-6.382,9.512-6.576,15.026
	c-0.207,5.652,1.737,10.477,5.776,14.475c3.612,3.584,8.285,5.79,13.882,6.755l0.772,0.138l1.902-12.269l-0.758-0.138
	C560.942,203.2,558.736,202.373,557,200.994"/>
<polyline fill="#641B0C" points="236.746,163.084 242.302,216.158 255.453,214.642 249.897,161.568 236.746,163.084 "/>
<polyline fill="#641B0C" points="285.947,172.458 284.541,158.948 257.852,161.981 259.272,175.353 285.947,172.458 "/>
<path fill="#641B0C" d="M290.703,198.099l-1.641,0.138c-10.587,1.241-18.224-0.276-22.498-4.273l-1.227-1.103l-8.919,10.201
	l1.213,1.103c5.831,5.515,14.185,8.271,24.842,8.271c2.523,0,5.239-0.138,8.023-0.552l1.64-0.138L290.703,198.099"/>
<path fill="#E4006E" d="M629.994,133.582c0,0-8.271-2.205-15.509-3.86c-7.183-1.93-15.495-3.86-15.495-3.86
	s-4.659-1.792-6.203,4.136c-1.558,5.79-16.543,101.462-16.543,101.462s-1.268,3.86,1.944,4.687h0.193l0.317,0.138
	c1.847,0.414,5.9,1.517,9.871,2.481c3.956,0.965,8.023,1.93,9.871,2.482h0.331l0.179,0.138c3.212,0.69,3.819-3.308,3.819-3.308
	s29.653-91.95,30.893-97.878C634.915,134.272,629.994,133.582,629.994,133.582"/>
<path fill="#E4006E" d="M586.887,245.246c-9.25-2.344-18.597,3.446-20.858,12.958c-2.247,9.512,3.419,19.024,12.683,21.367
	c9.264,2.344,18.611-3.446,20.858-12.958C601.83,257.101,596.164,247.589,586.887,245.246 M589.327,263.994
	c-0.745,3.171-3.419,5.377-6.521,5.377l-1.585-0.276c-3.598-0.827-5.831-4.687-4.949-8.271c0.745-3.171,3.419-5.239,6.521-5.239
	l1.599,0.138c1.751,0.414,3.226,1.516,4.149,3.17C589.478,260.41,589.754,262.202,589.327,263.994z"/>
<path fill="#641B0C" d="M607.193,300.94c-3.805,0-5.335,0.965-5.335,2.206h-3.419v-2.206c0.565-40.943,19.782-62.035,52.702-79.267
	c22.829-11.993,36.518-23.987,36.518-35.015c0-16.956-13.124-23.711-25.669-23.711c-9.912,0-20.168,4.411-28.55,9.65
	c-8.175,5.652-11.029,10.477-11.029,16.681c0,1.93,0.951,4.273,1.71,6.203l-4.191,4.136l-27.199-36.256l3.805-3.722l3.805,1.93
	c3.998,1.792,12.366-7.306,16.556-10.615c15.219-11.166,32.341-15.164,50.028-15.164c26.441,0,51.558,17.094,51.558,50.869
	c0,29.914-19.603,47.146-43.383,59.416c-11.221,5.652-30.053,14.337-35.181,25.917h67.715c5.128,0,6.465-1.379,7.61-7.306H720
	v41.632h-4.563c-0.758-3.86-1.53-5.377-7.61-5.377H607.193"/>
<path fill="#E4006E" d="M346.949,212.298c0,0,11.139,0.138,13.275,0.138h32.575c0,0,8.423,0.138,11.428-0.138
	c3.005-0.276,3.143-3.584,3.143-3.584s-0.234-52.799-0.441-55.969c-0.22-3.171-2.288-2.757-2.288-2.757s-11.139-0.138-13.276-0.138
	l-0.414,0.138l-0.4-0.138h-25.531l-0.427,0.138h-0.593c0,0-13.634-0.276-16.653,0c-3.005,0.276-3.13,3.584-3.13,3.584
	s0.235,52.799,0.441,56.107C344.88,212.85,346.949,212.298,346.949,212.298 M366.083,168.46h23.366
	c0,7.996,0.014,17.508,0.028,25.366h-25.779C364.483,185.83,365.379,176.318,366.083,168.46z"/>
<path fill="#E4006E" d="M317.902,162.946c8.051,0,14.571-6.755,14.571-15.026c0-8.271-6.52-14.888-14.571-14.888
	c-8.051,0-14.571,6.617-14.571,14.888C303.33,156.191,309.851,162.946,317.902,162.946"/>
<path fill="#E4006E" d="M337.105,233.528c1.792-1.378,11.511-9.512,11.511-9.512s1.82-1.655,0.289-3.309
	c-1.53-1.792-14.53-11.855-14.53-11.855s-1.709-2.206-3.736-0.276c-0.51,0.414-2.178,2.068-3.901,3.86
	c-0.014-1.93-0.028-3.722-0.055-5.101c2.992-5.376,5.308-10.339,6.962-14.199l0.11-0.138c1.117-2.344,2.633-6.617,3.626-9.512
	l0.124-0.276c1.42-4.411,4.467-11.993,4.08-15.44l-0.772-1.93l-2.22-0.552c-3.722,0-11.607,0-15.398,0c0,0-25.421,0-27.819,0
	c-2.385,0-2.096,1.792-2.096,1.792v15.715c0,0-0.138,2.068,1.53,2.068c1.544,0,19.534,0,21.781,0
	c-0.607,1.93-1.751,4.549-2.564,6.204c-4.99,10.339-13.979,24.125-24.566,32.12l-0.648,2.206l8.919,13.648l2.275,0.414
	c2.302-1.654,4.494-3.584,6.576-5.514c-1.296,16.267-2.619,33.361-2.578,35.291c0.082,3.998,3.267,3.584,3.267,3.584
	s13.634,0.276,16.639,0c3.005-0.414,3.143-3.584,3.143-3.584s-0.111-24.814-0.221-43.976c3.378,3.998,7.251,8.547,7.251,8.547
	S335.327,235.045,337.105,233.528"/>
<path fill="#E4006E" d="M370.784,221.535c0,0-10.408-3.998-12.407-4.825c-1.999-0.69-2.702,1.792-2.702,1.792
	s-18.886,35.015-20.141,38.737c-1.241,3.584,1.847,4.411,1.847,4.411s12.696,5.101,15.619,5.928
	c2.909,0.827,4.149-2.206,4.149-2.206s13.965-37.359,14.847-40.392C372.879,221.949,370.784,221.535,370.784,221.535"/>
<path fill="#E4006E" d="M410.844,246.073c-0.056-1.241-1.062-2.068-2.247-1.654l-15.219,4.549l-1.599-1.241
	c0.028-13.648,0.028-29.501,0.028-29.501s0.22-2.757-1.93-2.619c-2.123-0.138-13.275,0-13.275,0s-2.054-0.414-2.275,2.757
	c-0.22,3.17-0.441,47.698-0.441,47.698s0.124,3.171,3.13,3.446c3.019,0.276,11.442,0.138,11.442,0.138h21.23
	c1.241,0,2.206-0.965,2.137-2.344L410.844,246.073"/>
<path fill="#EF8200" d="M439.698,163.497c8.395,0,15.192-7.03,15.192-15.577c0-8.547-6.796-15.578-15.192-15.578
	c-8.396,0-15.192,7.03-15.192,15.578C424.506,156.467,431.302,163.497,439.698,163.497"/>
<path fill="#EF8200" d="M537.286,154.812c0,0,0.358-4.411-4.714-4.687c-5.073-0.276-69.135-0.414-69.135-0.414
	s-3.419-0.414-3.529,2.481c-0.11,2.895,0.014,13.234,0.014,13.234l-0.041,0.552c-4.025,0-9.774,0-12.834,0c0,0-25.255,0-27.64,0
	c-2.371,0-2.082,1.654-2.082,1.654v15.716c0,0-0.124,1.93,1.517,1.93c1.571,0,19.796,0,21.712,0
	c-1.199,3.584-4.08,9.099-5.004,10.891c-5.197,9.512-13.014,20.54-22.015,27.296l-0.648,2.206l8.864,13.51l2.261,0.414
	c2.288-1.654,4.466-3.584,6.548-5.514c-1.31,16.267-2.619,33.085-2.578,35.153c0.082,3.86,3.239,3.446,3.239,3.446
	s13.551,0.276,16.543,0c2.978-0.276,3.102-3.584,3.102-3.584s-0.083-24.538-0.193-43.7c3.35,3.998,7.196,8.547,7.196,8.547
	s1.241,1.103,3.005-0.276c0.634-0.414,2.261-1.792,4.108-3.308c0.069,15.302,0.207,36.532,0.331,38.324
	c0.179,2.757,2.013,2.343,2.013,2.343s7.651,0.138,10.753,0.138h43.948c0,0,7.43,0.138,10.091-0.138
	c2.661-0.138,2.771-3.17,2.771-3.17s-0.207-51.145-0.386-53.902c-0.193-2.895-2.026-2.481-2.026-2.481s-9.843,0-11.731,0h-38.352
	c0,0-12.048-0.138-14.709,0c-2.234,0.276-2.674,2.343-2.757,3.033c-3.474-2.757-6.769-5.377-6.769-5.377s-1.709-2.068-3.708-0.276
	c-0.51,0.414-2.178,2.068-3.887,3.86c-0.014-1.93-0.028-3.722-0.055-5.101c2.109-3.722,3.86-7.307,5.307-10.339
	c2.992-5.377,5.9-14.889,6.052-15.302c1.462-4.273,3.57-10.064,3.474-13.234c11.773,0.414,67.205,1.103,67.205,1.103
	s3.805,0,4.329-4.135C537.41,161.567,537.286,154.812,537.286,154.812 M507.812,227.876h11.235c0.014,1.517,0.014,3.171,0.014,4.825
	c-2.054,0-6.465-0.138-11.249-0.138C507.812,230.909,507.812,229.392,507.812,227.876z M507.785,248.554
	c4.852,0,9.278,0.138,11.277,0.138c0,2.068,0,4.136,0.014,6.066h-11.304C507.785,252.966,507.785,250.898,507.785,248.554z
	 M484.322,227.876h7.913c-0.027,1.379-0.041,2.895-0.055,4.549h-2.84c0,0-2.84,0.138-3.074,2.757
	c-0.248,2.757-0.648,10.339-0.648,10.339s-0.303,2.895,3.06,3.032h3.364c-0.014,2.206-0.028,4.411-0.042,6.204h-9.995
	C482.75,246.486,483.66,236.01,484.322,227.876z"/>
<path fill="#EF8200" d="M515.077,172.872h-42.349c0,0-1.613,0.138-1.751,2.068c-0.151,2.481-0.331,30.604-0.331,30.604
	s0.096,2.619,2.399,2.757c2.329,0.276,8.795,0,8.795,0l33.513,0.138h0.827c1.64,0,10.89-0.138,10.89-0.138s1.668,0.138,1.737-2.068
	c0.083-2.481,0.345-30.604,0.345-30.604s-0.082-2.481-2.398-2.757C524.906,172.734,517.862,172.734,515.077,172.872
	 M484.404,194.101c0-2.343,0.013-4.687,0.013-7.03h28.081c0.248,2.343,0.51,4.687,0.785,7.03H484.404z"/>
<polyline fill="#641B0C" points="37.435,301.077 31.644,301.077 31.644,300.664 31.713,299.285 27.564,293.771 25.289,295.563 
	25.289,299.837 25.978,300.664 25.978,301.077 21.346,301.077 21.346,300.664 22.036,299.837 22.036,287.568 21.346,286.741 
	21.346,286.327 25.978,286.327 25.978,286.741 25.289,287.568 25.289,291.979 30.638,287.981 31.121,287.292 30.665,286.741 
	30.665,286.327 36.773,286.327 36.773,286.741 34.029,288.533 29.976,291.703 35.435,299.147 37.435,300.664 37.435,301.077 "/>
<path fill="#641B0C" d="M47.332,301.629c-4.536,0-8.672-3.033-8.672-7.995c0-4.963,4.274-7.858,8.878-7.858
	c4.508,0,8.533,3.171,8.533,7.858C56.072,298.596,51.909,301.629,47.332,301.629 M47.332,288.257c-3.143,0-5.652,2.206-5.652,5.377
	c0,3.308,2.509,5.514,5.652,5.514c3.17,0,5.721-2.206,5.721-5.514C53.053,290.462,50.503,288.257,47.332,288.257z"/>
<polyline fill="#641B0C" points="73.925,301.077 69.596,301.077 69.596,300.664 69.568,299.423 61.476,290.876 61.476,299.837 
	62.138,300.664 62.138,301.077 58.002,301.077 58.002,300.664 58.677,299.837 58.677,287.568 58.002,286.741 58.002,286.327 
	62.813,286.327 62.813,286.741 62.455,287.292 62.8,287.843 70.492,296.253 70.492,287.568 69.816,286.741 69.816,286.327 
	73.925,286.327 73.925,286.741 73.263,287.568 73.263,299.837 73.925,300.664 73.925,301.077 "/>
<path fill="#641B0C" d="M84.554,301.629c-4.522,0-8.658-3.033-8.658-7.995c0-4.963,4.273-7.858,8.878-7.858
	c4.494,0,8.533,3.171,8.533,7.858C93.307,298.596,89.13,301.629,84.554,301.629 M84.554,288.257c-3.13,0-5.652,2.206-5.652,5.377
	c0,3.308,2.523,5.514,5.652,5.514c3.184,0,5.735-2.206,5.735-5.514C90.288,290.462,87.738,288.257,84.554,288.257z"/>
<path fill="#641B0C" d="M108.264,301.491c-2.04,0-4.026-0.276-5.886-1.241l-1.006,0.138l-0.579-0.138l1.572-3.722l0.552,0.138
	l0.234,0.827c1.172,0.965,3.708,1.379,5.211,1.379c1.13,0,3.874-0.276,3.874-2.068c0-0.827-1.213-1.516-3.667-1.654
	c-1.958,0-4.466-0.138-6.079-1.379l-1.282-2.895c0-2.895,2.743-4.963,6.81-4.963c1.682,0,3.557,0.276,5.555,1.103l1.434,0.138
	l0.469,0.276l-1.792,3.446l-0.551-0.276l-0.303-0.69c-1.103-1.103-3.336-1.516-4.811-1.516c-1.075,0-3.529,0.414-3.529,1.93
	c0,1.517,1.82,1.792,2.854,1.792c1.958,0.138,3.653,0.138,5.294,0.69c1.682,0.551,3.074,1.792,3.074,3.722
	C115.708,300.25,111.159,301.491,108.264,301.491"/>
<path fill="#641B0C" d="M133.603,286.741l-0.69,0.828v8.133c0,4.273-2.082,5.928-7.361,5.928c-5.183,0-7.292-1.792-7.292-5.928
	v-8.133l-0.662-0.828v-0.414h4.536v0.414l-0.662,0.828v7.857c0,2.757,1.199,3.722,4.094,3.722c2.936,0,4.136-1.103,4.136-3.722
	v-7.857l-0.662-0.828v-0.414h4.563V286.741"/>
<path fill="#641B0C" d="M144.548,301.077h-8.933v-0.414l0.689-0.965v-12.131l-0.689-0.827v-0.414h9.03
	c2.399,0,5.197,0.827,5.197,3.86c0,1.241-0.537,2.343-1.764,3.033v0.138c1.337,0.414,2.44,1.792,2.44,3.584
	C150.517,300.25,147.305,301.077,144.548,301.077 M144.052,288.808h-4.577v3.308h5.128c1.296,0,2.068-0.551,2.027-1.792
	C146.602,289.084,145.679,288.808,144.052,288.808z M144.135,294.598h-4.66v3.998h4.204c1.462,0,3.267-0.276,3.35-1.93
	C147.112,294.874,145.5,294.598,144.135,294.598z"/>
<path fill="#641B0C" d="M156.983,297.769l-0.593,1.654l0.496,1.241v0.414h-4.963v-0.414l1.379-1.517l4.563-11.166l-0.579-1.241
	v-0.414h7.085v0.414l-0.579,1.241l4.536,11.166l1.379,1.517v0.414h-4.949v-0.414l0.538-1.241l-0.621-1.654H156.983 M161.27,288.808
	h-0.91l-2.536,6.755h6.01L161.27,288.808z"/>
<path fill="#641B0C" d="M186.911,301.078h-5.321v-0.414l0.524-0.552l-0.317-0.689l-2.95-3.998h-3.763v4.411l0.703,0.827v0.414
	h-4.549v-0.414l0.675-0.827v-12.269l-0.675-0.827v-0.414h8.836c2.716,0,5.997,0.827,5.997,4.273c0,2.482-1.613,3.998-3.929,4.411
	l2.964,4.135l1.806,1.517V301.078 M179.261,288.808h-4.177v4.136h4.273c1.461,0,3.667-0.138,3.667-2.206
	C183.024,288.808,180.653,288.808,179.261,288.808z"/>
<path fill="#641B0C" d="M193.087,297.769l-0.579,1.654l0.483,1.241v0.414h-4.963v-0.414l1.393-1.517l4.549-11.166l-0.579-1.241
	v-0.414h7.099v0.414l-0.579,1.241l4.522,11.166l1.379,1.517v0.414h-4.949v-0.414l0.538-1.241l-0.621-1.654H193.087 M197.389,288.808
	h-0.924l-2.536,6.755h6.024L197.389,288.808z"/>
<path fill="#641B0C" d="M214.469,301.491c-2.04,0-4.012-0.276-5.873-1.241l-1.02,0.138l-0.579-0.138l1.586-3.722l0.551,0.138
	l0.221,0.827c1.186,0.965,3.722,1.379,5.211,1.379c1.144,0,3.887-0.276,3.887-2.068c0-0.827-1.227-1.516-3.681-1.654
	c-1.958,0-4.466-0.138-6.079-1.379l-1.268-2.895c0-2.895,2.73-4.963,6.81-4.963c1.682,0,3.543,0.276,5.542,1.103l1.448,0.138
	l0.455,0.276l-1.792,3.446l-0.538-0.276l-0.303-0.69c-1.117-1.103-3.336-1.516-4.811-1.516c-1.075,0-3.543,0.414-3.543,1.93
	c0,1.517,1.82,1.792,2.868,1.792c1.944,0.138,3.639,0.138,5.294,0.69c1.668,0.551,3.074,1.792,3.074,3.722
	C221.927,300.25,217.364,301.491,214.469,301.491"/>
<polyline fill="#641B0C" points="239.517,301.077 234.996,301.077 234.996,300.664 235.644,299.699 235.644,294.874 
	227.758,294.874 227.758,299.699 228.434,300.664 228.434,301.077 223.912,301.077 223.912,300.664 224.588,299.699 
	224.588,287.568 223.912,286.741 223.912,286.327 228.434,286.327 228.434,286.741 227.758,287.568 227.758,292.255 
	235.644,292.255 235.644,287.568 234.996,286.741 234.996,286.327 239.517,286.327 239.517,286.741 238.842,287.568 
	238.842,299.699 239.517,300.664 239.517,301.077 "/>
<polyline fill="#641B0C" points="246.244,301.077 241.709,301.077 241.709,300.664 242.384,299.837 242.384,287.568 
	241.709,286.741 241.709,286.327 246.244,286.327 246.244,286.741 245.555,287.568 245.555,299.837 246.244,300.664 
	246.244,301.077 "/>
<polyline fill="#641B0C" points="253.069,301.077 248.519,301.077 248.519,300.664 249.195,299.837 249.195,287.568 
	248.519,286.741 248.519,286.327 253.069,286.327 253.069,286.741 252.352,287.568 252.352,299.837 253.069,300.664 
	253.069,301.077 "/>
<path fill="#641B0C" d="M268.288,301.491c-2.04,0-4.026-0.276-5.873-1.241l-1.02,0.138l-0.579-0.138l1.572-3.722l0.565,0.138
	l0.221,0.827c1.172,0.965,3.708,1.379,5.211,1.379c1.13,0,3.874-0.276,3.874-2.068c0-0.827-1.213-1.516-3.667-1.654
	c-1.971,0-4.466-0.138-6.079-1.379l-1.282-2.895c0-2.895,2.743-4.963,6.81-4.963c1.682,0,3.557,0.276,5.555,1.103l1.434,0.138
	l0.469,0.276l-1.792,3.446l-0.538-0.276l-0.303-0.69c-1.117-1.103-3.35-1.516-4.825-1.516c-1.075,0-3.529,0.414-3.529,1.93
	c0,1.517,1.806,1.792,2.854,1.792c1.958,0.138,3.653,0.138,5.294,0.69c1.682,0.551,3.088,1.792,3.088,3.722
	C275.745,300.25,271.182,301.491,268.288,301.491"/>
<polyline fill="#641B0C" points="291.268,301.629 290.786,301.629 289.986,301.078 277.717,301.078 277.717,300.664 
	278.392,299.699 278.392,287.568 277.717,286.741 277.717,286.327 289.807,286.327 290.607,285.775 291.103,285.775 
	291.103,289.635 290.607,289.635 289.917,288.946 281.549,288.946 281.549,292.393 286.512,292.393 287.326,291.704 
	287.808,291.704 287.808,295.564 287.326,295.564 286.512,294.874 281.549,294.874 281.549,298.458 289.959,298.458 
	290.786,297.769 291.268,297.769 291.268,301.629 "/>
<polyline fill="#641B0C" points="309.369,301.077 303.579,301.077 303.579,300.664 303.648,299.285 299.498,293.771 
	297.224,295.563 297.224,299.837 297.913,300.664 297.913,301.077 293.295,301.077 293.295,300.664 293.956,299.837 
	293.956,287.568 293.295,286.741 293.295,286.327 297.913,286.327 297.913,286.741 297.224,287.568 297.224,291.979 
	302.572,287.981 303.055,287.292 302.586,286.741 302.586,286.327 308.707,286.327 308.707,286.741 305.964,288.533 
	301.911,291.703 307.37,299.147 309.369,300.664 309.369,301.077 "/>
<path fill="#641B0C" d="M315.241,297.769l-0.579,1.654l0.483,1.241v0.414h-4.949v-0.414l1.379-1.517l4.549-11.166l-0.579-1.241
	v-0.414h7.086v0.414l-0.579,1.241l4.536,11.166l1.379,1.517v0.414h-4.949v-0.414l0.538-1.241l-0.621-1.654H315.241 M319.543,288.808
	h-0.924l-2.536,6.755h6.011L319.543,288.808z"/>
<polyline fill="#641B0C" points="334.1,301.077 329.565,301.077 329.565,300.664 330.254,299.837 330.254,287.568 329.565,286.741 
	329.565,286.327 334.1,286.327 334.1,286.741 333.411,287.568 333.411,299.837 334.1,300.664 334.1,301.077 "/>
<polyline fill="#641B0C" points="358.128,301.077 353.786,301.077 353.786,300.664 353.772,299.423 345.68,290.876 345.68,299.837 
	346.341,300.664 346.341,301.077 342.206,301.077 342.206,300.664 342.881,299.837 342.881,287.568 342.206,286.741 
	342.206,286.327 347.017,286.327 347.017,286.741 346.659,287.292 347.003,287.843 354.695,296.253 354.695,287.568 
	354.006,286.741 354.006,286.327 358.128,286.327 358.128,286.741 357.466,287.568 357.466,299.837 358.128,300.664 
	358.128,301.077 "/>
<polyline fill="#641B0C" points="364.897,301.077 360.376,301.077 360.376,300.664 361.051,299.837 361.051,287.568 
	360.376,286.741 360.376,286.327 364.897,286.327 364.897,286.741 364.208,287.568 364.208,299.837 364.897,300.664 
	364.897,301.077 "/>
<path fill="#641B0C" d="M386.031,301.491c-2.04,0-4.012-0.276-5.886-1.241l-1.006,0.138l-0.579-0.138l1.572-3.722l0.552,0.138
	l0.22,0.827c1.186,0.965,3.736,1.379,5.211,1.379c1.144,0,3.888-0.276,3.888-2.068c0-0.827-1.227-1.516-3.681-1.654
	c-1.958,0-4.453-0.138-6.066-1.379l-1.282-2.895c0-2.895,2.743-4.963,6.81-4.963c1.682,0,3.557,0.276,5.555,1.103l1.434,0.138
	l0.469,0.276l-1.806,3.446l-0.538-0.276l-0.29-0.69c-1.117-1.103-3.35-1.516-4.825-1.516c-1.075,0-3.529,0.414-3.529,1.93
	c0,1.517,1.82,1.792,2.854,1.792c1.958,0.138,3.653,0.138,5.294,0.69c1.682,0.551,3.074,1.792,3.074,3.722
	C393.474,300.25,388.925,301.491,386.031,301.491"/>
<polyline fill="#641B0C" points="411.258,286.741 409.342,288.257 404.806,295.702 404.806,299.699 405.468,300.664 
	405.468,301.078 400.671,301.078 400.671,300.664 401.332,299.699 401.332,295.977 396.879,288.257 394.853,286.741 
	394.853,286.327 400.919,286.327 400.919,286.741 400.45,287.982 403.29,293.082 406.309,287.982 405.868,286.741 405.868,286.327 
	411.258,286.327 411.258,286.741 "/>
<path fill="#641B0C" d="M428.683,286.741l-0.676,0.828v8.133c0,4.273-2.082,5.928-7.375,5.928c-5.17,0-7.292-1.792-7.292-5.928
	v-8.133l-0.648-0.828v-0.414h4.522v0.414l-0.662,0.828v7.857c0,2.757,1.199,3.722,4.108,3.722c2.936,0,4.122-1.103,4.122-3.722
	v-7.857l-0.648-0.828v-0.414h4.549V286.741"/>
<polyline fill="#641B0C" points="446.797,301.077 440.993,301.077 440.993,300.664 441.076,299.285 436.913,293.771 
	434.638,295.563 434.638,299.837 435.341,300.664 435.341,301.077 430.709,301.077 430.709,300.664 431.385,299.837 
	431.385,287.568 430.709,286.741 430.709,286.327 435.341,286.327 435.341,286.741 434.638,287.568 434.638,291.979 
	440.001,287.981 440.469,287.292 440.015,286.741 440.015,286.327 446.122,286.327 446.122,286.741 443.392,288.533 
	439.339,291.703 444.798,299.147 446.797,300.664 446.797,301.077 "/>
<path fill="#641B0C" d="M464.112,286.741l-0.676,0.828v8.133c0,4.273-2.082,5.928-7.375,5.928c-5.17,0-7.292-1.792-7.292-5.928
	v-8.133l-0.662-0.828v-0.414h4.536v0.414l-0.662,0.828v7.857c0,2.757,1.213,3.722,4.108,3.722c2.922,0,4.122-1.103,4.122-3.722
	v-7.857l-0.648-0.828v-0.414h4.549V286.741"/>
<polyline fill="#641B0C" points="479.69,289.635 479.18,289.635 478.477,288.946 470.012,288.946 470.012,292.117 475.071,292.117 
	475.871,291.428 476.367,291.428 476.367,295.288 475.871,295.288 475.071,294.598 470.012,294.598 470.012,299.837 
	470.688,300.664 470.688,301.078 466.139,301.078 466.139,300.664 466.814,299.699 466.814,287.568 466.139,286.741 
	466.139,286.327 478.38,286.327 479.18,285.775 479.69,285.775 479.69,289.635 "/>
<path fill="#641B0C" d="M497.349,286.741l-0.69,0.828v8.133c0,4.273-2.068,5.928-7.361,5.928c-5.183,0-7.306-1.792-7.306-5.928
	v-8.133l-0.648-0.828v-0.414h4.536v0.414l-0.662,0.828v7.857c0,2.757,1.199,3.722,4.094,3.722c2.936,0,4.149-1.103,4.149-3.722
	v-7.857l-0.676-0.828v-0.414h4.563V286.741"/>
<polyline fill="#641B0C" points="515.45,301.077 509.66,301.077 509.66,300.664 509.742,299.285 505.579,293.771 503.304,295.563 
	503.304,299.837 504.007,300.664 504.007,301.077 499.375,301.077 499.375,300.664 500.051,299.837 500.051,287.568 
	499.375,286.741 499.375,286.327 504.007,286.327 504.007,286.741 503.304,287.568 503.304,291.979 508.653,287.981 
	509.136,287.292 508.681,286.741 508.681,286.327 514.788,286.327 514.788,286.741 512.044,288.533 508.005,291.703 
	513.451,299.147 515.45,300.664 515.45,301.077 "/>
<path fill="#641B0C" d="M532.778,286.741l-0.676,0.828v8.133c0,4.273-2.082,5.928-7.375,5.928c-5.17,0-7.292-1.792-7.292-5.928
	v-8.133l-0.662-0.828v-0.414h4.536v0.414l-0.662,0.828v7.857c0,2.757,1.199,3.722,4.094,3.722c2.936,0,4.135-1.103,4.135-3.722
	v-7.857l-0.662-0.828v-0.414h4.563V286.741"/>
<polyline fill="#641B0C" points="564.595,286.741 563.327,288.257 559.398,299.423 559.977,300.664 559.977,301.078 555.18,301.078 
	555.18,300.664 555.8,299.423 552.505,289.773 549.183,299.423 549.776,300.664 549.776,301.078 544.923,301.078 544.923,300.664 
	545.502,299.423 541.477,288.257 540.098,286.741 540.098,286.327 545.323,286.327 545.323,286.741 544.826,287.982 
	547.487,296.253 550.382,287.982 549.776,286.741 549.776,286.327 555.331,286.327 555.331,286.741 554.835,287.982 
	557.689,296.115 560.266,287.982 559.618,286.741 559.618,286.327 564.595,286.327 564.595,286.741 "/>
<path fill="#641B0C" d="M574.576,301.629c-4.522,0-8.672-3.033-8.672-7.995c0-4.963,4.287-7.858,8.892-7.858
	c4.494,0,8.533,3.171,8.533,7.858C583.33,298.596,579.152,301.629,574.576,301.629 M574.576,288.257
	c-3.13,0-5.652,2.206-5.652,5.377c0,3.308,2.523,5.514,5.652,5.514c3.184,0,5.735-2.206,5.735-5.514
	C580.311,290.462,577.76,288.257,574.576,288.257z"/>
<path fill="#641B0C" d="M589.506,286.741l-0.634,0.827l-0.483,7.996l0.703,0.965v0.414h-3.598v-0.414l0.662-0.965l-0.441-7.996
	l-0.703-0.827v-0.414h4.494V286.741 M587.259,297.769l1.861,1.93l-1.861,1.93l-1.847-1.93L587.259,297.769z"/>
</svg>
