<?xml version="1.0" encoding="utf-8"?>
<!-- Generator: Adobe Illustrator 27.0.1, SVG Export Plug-In . SVG Version: 6.00 Build 0)  -->
<svg version="1.1" id="레이어_1" xmlns="http://www.w3.org/2000/svg" xmlns:xlink="http://www.w3.org/1999/xlink" x="0px"
	 y="0px" viewBox="0 0 720 312.465" enable-background="new 0 0 720 312.465" xml:space="preserve">
<path fill="#382912" d="M0.997,129.491c0.996,0,2.816-0.332,5.316-1.213c43.049-13.449,69.297-42.413,96.556-84.479
	c3.164-4.883,5.49-8.711,8.985-9.94c2.991-1.04,4.478-2.441,4.478-4.189c0-3.669-10.473-10.82-13.955-10.82
	c-1.01,0-1.994,0.52-3.51,1.561c-1.82,1.228-2.643,2.268-4.811,2.629c-5.142,0.867-15.284,2.629-20.599,3.308
	c1.661-2.269,2.817-4.536,2.817-6.978c0-6.443-8.971-12.034-14.62-12.034c-2.831,0-6.66,2.441-6.66,4.363
	c0,0.867,0.679,1.561,2.181,1.921c3.308,0.867,5.475,2.615,5.475,5.229c-4.42,9.968-41.46,57.625-59.127,65.701
	c-4.378,1.994,1.95,6.168,8.523,3.164c6.573-3.005,7.83-7.988,7.83-7.988s-1.43,4.622,0.42,8.638
	c3.857-2.195,4.68-2.571,6.096-9.837c0.664-3.41,0.419-6.833,1.849-6.602c1.415,0.231-0.694,4.29,3.9,11.47
	c1.878,3.106,3.265-0.607,4.378-6.861c1.112-6.256-0.318-11.341-0.318-11.341s2.629,1.907,2.903,4.406
	c0.26,2.529,3.222,5.158,3.222,5.158s5.533-1.936,4.912-16.324c-0.303-7.007,8.176-24.544,22.723-24.573
	c1.155,0,2.485-0.361,4.16-0.881c5.475-1.907,16.7-3.857,21.524-3.857c2.991,0,3.814,0.868,3.814,2.081
	c0,1.069-0.593,3.308-1.257,4.536c-25.598,42.399-56.151,74.035-93.06,89.911C1.835,127.05,0,128.451,0,128.971
	C0,129.318,0.332,129.491,0.997,129.491"/>
<path fill="#382912" d="M518.017,52.013c-1.488,0-5.937,6.241-7.815,9.361c-0.405,0.708-1.358,1.271-2.297,1.271h-32.403
	c0-14.172,0.275-14.315,3.092-15.862c1.502-0.867,2.845-1.994,2.845-2.976c0-0.722-0.534-1.43-2.166-1.994l-0.795-0.288
	c6.082-4.103,13.912-10.488,18.491-14.172c2.962-2.412,6.067-3.12,8.769-3.684c2.167-0.419,4.059-1.849,4.059-3.698
	c0.491-3.164-5.143-11.976-25.656-18.419c-8.653-2.73-26.638-1.806-36.548,2.326c-9.91,4.132-13.435,0.607-16.208,0.246
	c-2.774-0.376,1.906,9.274,14.359,4.363c-6.168,2.947-7.959,1.675-14.865,1.473c-6.601-0.203-11.586,3.553-11.369,4.767
	c0.361,2.124,6.573,7.397,19.184,1.979c-3.453,2.499-5.243,1.748-6.732,2.903c-4.84,3.814-2.614,7.599-2.326,7.888
	c1.242,1.242,13.55-2.643,16.439-8.494c5.374-10.979,17.147-13.247,17.147-13.247s-18.447,10.719-15.269,21.438
	c5.576,0.751,7.266-5.288,7.266-5.288s0.853,4.609,3.38,4.305c2.528-0.303,3.857-4.753,3.742-7.671
	c-0.347-7.223,9.26-15.905,22.16-12.409c-11.268,3.626-15.876,7.599-16.859,12.466c-0.245,0.968,0.058,3.02,1.315,4.319
	c1.33-0.65,3.092-2.788,3.511-4.637c0.433-1.979,1.199-2.312,1.199-2.312s-0.463,0.824-0.794,2.312
	c-0.824,3.51,1.718,5.547,2.311,5.402c1.618-0.39,2.441-2.426,1.661-5.836c3.641,5.36,1.213-1.271,3.987-4.506
	c4.623-5.432,9.794-5.1,12.871-1.459c-0.794,0.607-1.56,1.315-1.863,1.994c-0.491,1.098-0.78,1.935-1.214,3.336
	c-0.057,0.015-0.13,0-0.216,0.015c-2.297,0.448-2.918,3.134-1.792,5.056c-2.471,4.247-8.277,12.9-12.987,18.39
	c-4.724-1.271-9.159-2.123-9.578-2.123c-0.26,0-0.26,0-0.26,0.288c0,0.275,0,0.563,0.13,1.127
	c1.213,5.808,1.473,12.626,1.618,17.437c0,0.996,0.145,2.831,0.145,5.244h-10.95c-7.83,0-32.532-0.419-46.43-2.268
	c0,1.849,3.785,7.382,6.342,7.382h0.13c9.159-0.968,22.521-1.372,31.781-1.502c8.017,2.095,16.079,7.714,19.242,20.976
	c0,9.968-0.13,19.155-0.26,22.203c-0.274,5.952-2.976,7.931-8.639,7.931c-4.189,0-9.722-0.997-17.147-2.412
	c-0.809-0.13-1.343-0.275-1.748-0.275c-0.274,0-0.534,0.145-0.534,0.275c0,1.141,13.622,7.382,15.775,10.921
	c0.824,1.286,1.488,1.849,2.716,1.849c1.213,0,18.216-0.853,18.216-17.032c0-3.105-0.548-10.328-0.548-13.174
	c-0.13-3.973-0.13-12.322-0.13-20.975V66.185h52.642c2.297,0,2.976-0.838,2.976-1.69C531.119,61.663,520.862,52.013,518.017,52.013"
	/>
<path fill="#382912" d="M123.721,270.121c-1.849,0.303-3.279,1.055-3.279,1.661c0,0.434,0.722,0.737,2.571,0.737h1.416
	c31.261-2.24,67.361-13.739,85.967-54.78c0.996-2.225,1.849-3.264,3.698-3.264c2.412,0,3.973-1.344,3.973-2.543
	c0-2.976-12.785-8.653-13.507-8.653c-0.419,0-0.275,0.593-0.419,1.344C202.018,216.426,188.092,260.731,123.721,270.121
	 M140.493,209.708c0,0.145,0,0.289,0.145,0.289c2.268,0,15.63-11.933,25.713-30.279c1.127-2.109,0.982-2.254,2.687-2.398
	c2.717-0.303,3.699-1.488,3.699-2.543c0-2.383-9.939-7.454-13.362-7.454c-0.563,0-0.694,0.145-0.694,0.896
	c-1.156,17.899-16.208,38.195-16.641,38.787C140.912,208.509,140.493,209.391,140.493,209.708 M191.487,168.509
	c-0.563,0-0.852,0.159-0.852,0.448c0,0.303,0.288,0.592,0.852,1.055c6.27,5.071,16.353,16.714,18.91,22.68
	c1.56,3.582,3.553,5.07,5.533,5.07c2.702,0,5.128-2.976,5.128-6.861C221.058,179.719,195.908,168.509,191.487,168.509
	 M109.796,198.657c-12.943,21.64-21.467,26.71-21.741,26.71c-0.145,0-0.289-0.145-0.289-0.303c0-0.289,0.434-1.04,1.271-2.239
	c15.79-20.874,28.155-54.909,29.137-64.314c-4.68,0.159-10.227,0.448-16.901,1.358h-0.145c-1.704,0-5.677-5.533-5.677-7.18
	c10.647,1.647,21.438,2.095,27.26,2.095h8.827c0.419,0,0.996-0.448,1.704-1.185c1.994-2.109,2.976-4.782,4.969-7.165
	c0.274-0.303,0.578-0.448,0.997-0.448c0.274,0,0.563,0.145,0.852,0.145c4.551,1.935,10.517,8.956,10.517,10.893
	c0,0.895-0.578,1.487-2.702,1.487h-20.181c0.853,0.303,1.561,0.607,1.994,0.751c0.997,0.448,1.561,1.055,1.561,1.647
	c0,0.751-0.853,1.487-2.702,2.08c-1.56,0.593-1.835,0.896-3.539,4.926c-2.86,6.558-5.691,12.842-8.827,18.953
	c1.286,0.736,2.717,1.487,3.699,2.239h8.104c0.708,0,1.561-0.448,1.979-1.199c0.867-1.343,2.571-3.727,3.553-3.727
	c1.43,0,10.662,4.638,10.662,7.902c0,1.502-1.994,2.702-3.12,3.439c-2.269,1.647-2.138,1.344-2.269,4.767
	c0,1.949-0.144,4.334-0.144,7.02c0,9.549,0.419,22.391,0.982,33.573c0.145,3.134-2.687,5.677-5.403,5.677
	c-1.849,0-3.539-1.344-3.539-4.334v-0.145v-5.085h-13.493c0,5.389,0.13,10.603,0.13,15.674c0,3.134-2.991,5.071-5.533,5.071
	c-1.994,0-3.699-1.185-3.699-4.016v-0.593c1.142-17.017,1.705-32.994,1.705-48.35V198.657z M131.103,208.061
	c0-1.025-0.014-2.008-0.029-2.99c-3.322-6.631-8.393-10.214-12.12-12.049c-1.907,1.011-1.907,1.257-1.907,20.412
	c0,5.967,0.145,12.814,0.145,19.849h13.637C130.973,224.183,131.103,215.675,131.103,208.061 M184.915,191.52
	c-0.766-5.576-1.171-11.513-6.964-11.903c-0.895,6.024-0.722,12.207,1.662,16.252c-1.011,1.17-1.618-2.672-3.641-2.239
	c-2.138,5.013,1.141,7.107,1.286,10.661c0.693,16.714-14.07,24.934-23.807,27.693c-0.924,0.318-1.184,1.676-1.184,1.676
	c-0.16,0.693,0.101,1.603,0.867,1.401c18.259-2.615,31.361-17.22,35.421-41.287c2.86-17.003-7.945-29.383-5.691-42.08
	c0.982-5.504,7.021-11.947,8.725-4.609c3.756-10.271-11.875-10.733-13.796,2.181c-1.112,7.584,1.907,8.336,3.207,15.212
	c-1.661,0.057-4.246-6.183-7.93-2.745C172.953,175.501,189.696,174.793,184.915,191.52"/>
<path fill="#382912" d="M500.168,198.52c0,0.288,0.145,0.448,0.42,0.448c1.01,0,7.122-5.229,15.067-20.456h31.131
	c0.419,0,0.707,0.317,0.707,0.751c0,1.487-4.261,10.459-8.812,18.347c-0.274,0.607-0.433,1.055-0.433,1.198
	c0,0.16,0,0.16,0.159,0.16c0.13,0,0.419-0.16,0.982-0.448c4.84-3.135,14.345-13.724,19.329-14.027
	c3.698-0.303,5.244-1.792,5.244-3.582c0-4.175-9.361-10.3-10.791-10.3c-0.707,0-1.994,0.303-4.117,2.976
	c-0.563,0.607-1.704,1.199-2.412,1.199h-29.138c2.702-5.663,5.403-12.092,7.815-19.098c0.853-2.225,0.996-2.225,3.12-2.672
	c2.152-0.462,3.698-1.199,3.698-2.398c0-3.134-13.059-7.165-14.763-7.165c-0.578,0-0.434,0.303-0.578,1.647
	c-0.144,1.647-0.288,5.821-0.996,9.101c-3.41,15.818-9.231,33.427-14.923,42.528C500.313,197.48,500.168,198.072,500.168,198.52
	 M455.126,245.368c0,2.687,0.145,5.533,0.289,7.917c0,1.632-0.997,4.334-4.825,4.334c-1.85,0-3.568-1.07-3.568-3.453v-0.434
	c0.578-7.757,1.155-14.489,1.155-21.64c0-1.95-0.303-8.205-1.43-13.579c-0.144-0.448-0.144-0.751-0.144-0.896
	c0-0.288,0-0.288,0.144-0.288c0.275,0,8.523,3.265,11.225,5.807l0.145,0.145h7.092c0.578,0,1.286-0.434,1.704-1.185
	c0.578-1.198,1.85-2.542,2.557-3.134c0.303-0.303,0.578-0.448,1.142-0.448c1.575,0,9.101,4.464,9.101,7.006
	c0,1.344-1.849,2.543-2.846,3.135c-2.138,1.344-2.268,1.647-2.268,3.872c0,5.677,0.419,11.05,0.708,14.937
	c0.144,2.687-1.416,5.071-4.407,5.071c-1.574,0-3.12-1.185-3.12-3.872v-0.16v-3.134H455.126z M467.781,241.641v-1.69
	c-2.817-5.793-7.643-9.664-11.21-11.875c-1.402,1.185-1.315,1.43-1.445,4.767v8.798H467.781z M568.382,266.257
	c-26.003-11.34-33.673-44.753-36.519-72.518l0.13-0.145c1.286-0.607,1.994-1.488,1.994-2.384c0-2.99-12.64-4.334-14.2-4.478
	c-1.43,0-1.43,0.145-1.43,0.145s0,0.145,0.145,0.463c0.578,2.383,1.286,6.847,1.286,11.932
	c-0.145,32.517-8.971,64.905-39.784,75.335c-1.574,0.463-2.86,1.358-2.86,1.806c0,0.145,0.303,0.289,0.867,0.289
	s1.43-0.145,2.832-0.434c36.389-8.812,46.472-41.04,47.18-77.155c0.145-4.334,0.419-4.334,2.123-4.767v3.134
	c0,55.198,22.32,75.798,24.313,75.798c0.419,0,0.982-0.303,1.415-0.751c3.265-2.976,13.493-3.886,13.493-5.374
	C569.364,266.849,569.089,266.56,568.382,266.257 M477.589,266.416c0.708,1.184,1.401,1.632,2.543,1.632
	c1.994,0,13.796-1.488,13.796-14.013v-1.055c-0.145-5.518-0.434-14.33-0.434-18.201c0-4.782,0-10.748,0.145-14.937
	c0.145-4.464,0.145-4.319,2.412-5.505c0.867-0.462,1.43-1.055,1.43-1.647c0-0.447-0.434-1.055-1.286-1.329h11.224
	c2.138,0,2.702-0.751,2.702-1.661c0-2.383-5.533-7.454-9.809-9.39c-0.288,0-0.563-0.159-0.852-0.159
	c-1.142,0-6.111,6.27-6.241,6.429c-0.448,0.737-1.286,1.185-1.705,1.185h-18.621c-7.237,0-23.315-0.304-36.1-1.936
	c0,1.632,3.987,6.861,6.255,6.861h0.145c11.224-1.198,22.305-1.329,29.267-1.329h13.218c0.289,2.817,0.434,6.255,0.434,8.942
	c0.13,4.926,0.13,12.683,0.13,19.689c0,5.085,0,9.708-0.13,12.38c-0.289,4.334-2.557,6.429-8.248,6.429
	c-3.265,0-7.527-0.751-13.219-1.935c-0.838-0.159-1.286-0.318-1.56-0.318c-0.289,0-0.419,0.16-0.419,0.16
	C462.667,257.619,475.307,262.993,477.589,266.416 M458.217,145.605c-8.364,1.604-21.423,17.118-31.289,6.53
	c1.372-1.733,3.409-0.347,5.2-1.315c-4.449-0.477-10.647-8.032-4.261-10.445c1.01,1.473-0.174,2.283,0.476,3.901
	c2.268,2.354,5.172,3.539,9.477,3.496c11.615-0.101,22.551-7.151,36.028-7.845c16.107-0.838,26.248,3.915,37.935,10.893
	c-0.751,1.95-2.123,3.322-3.337,4.796c-2.701-3.019-9.505-5.171-14.951-4.507c0,7.715,0.043,31.493,0.434,40.536v1.055
	c0,8.956-7.815,12.235-12.221,12.235c-0.997,0-1.575-0.303-2.138-1.343c-1.849-2.991-12.929-7.758-12.929-8.653h0.274
	c0.289,0,0.723,0,1.43,0.159c4.984,1.04,8.668,1.632,11.225,1.632c6.399,0,6.674-2.383,6.674-13.435
	c0-6.255-0.13-13.565-0.13-17.017c0-1.502-0.043-6.053-0.145-10.243c-1.344,0-1.892-0.722-3.568-0.419
	c-1.719-2.066,1.748-3.207,0.462-4.796c-3.192,0.491-1.762,4.608-3.322,6.992c-1.56,2.369-5.952,4.854-8.523,2.181
	c1.531,0.116,2.282-0.52,2.368-1.748c-1.748-5.157,3.496-5.995,2.832-8.725c-3.048,0.072-2.572,3.453-6.168,3.048
	c-0.289-8.985,11.195-7.151,18.49-9.158c-13.391-0.968-25.944,2.557-26.06,15.254c-0.939,0.925-1.488,2.153-3.323,2.196
	c-1.487,0.057-0.188-2.427-2.369-1.763c0.853,3.265-0.636,5.302-3.424,6.168c2.066,1.084,3.958,2.195,4.609,2.817l0.145,0.145h7.092
	c0.578,0,1.286-0.448,1.704-1.199c0.578-1.185,1.85-2.543,2.557-3.135c0.303-0.288,0.578-0.448,1.142-0.448
	c1.704,0,8.956,5.086,8.956,6.718c0,1.344-1.704,2.24-2.846,3.134c-1.994,1.488-2.268,1.792-2.268,5.967
	c0,2.831,0.274,5.822,0.708,8.798v0.317c0,2.384-2.269,3.872-4.262,3.872c-1.704,0-3.12-1.04-3.12-3.12v-0.159H455.27
	c0,1.632,0.145,3.279,0.145,4.767c0,2.239-1.849,4.334-4.825,4.334c-1.85,0-3.424-0.896-3.424-3.294v-0.592
	c0.707-7.455,1.01-14.027,1.01-18.505c0-1.936-0.144-7.007-1.43-12.236c-0.144-0.433-0.144-0.751-0.144-1.04
	c0-0.145,0-0.145,0.144-0.145c0.347,0,2.153,0.78,4.219,1.777c-0.318-1.907,0.491-4.001,0.13-5.374
	c-1.676-0.216-1.156,1.561-2.86,1.33C443.598,151.21,456.253,149.65,458.217,145.605 M467.781,185.23v-1.04
	c-2.702-5.562-7.223-9.318-10.748-11.572c-1.892,1.561-1.763,1.488-1.907,5.143v7.468H467.781z"/>
<path fill="#382912" d="M127.107,78.416c-5.402-3.597-13.926-7.772-19.617-9.708c-1.142-0.448-1.705-0.593-1.705-0.896
	c0,0,3.843-2.672,13.637-2.672c12.221,0,17.205,5.359,17.205,10.733c0,2.543-1.43,4.464-4.132,4.464
	C130.936,80.337,129.231,79.744,127.107,78.416 M211.789,44.829c-15.992,25.511-61.135,68.661-82.413,68.791
	c-3.28,0.029-5.548-1.502-6.819-4.175c-0.433-1.198-1.141-2.239-1.849-2.239c-1.56,0-2.702,4.03-2.702,5.822
	c0,7.757,12.8,13.564,16.339,13.564c3.553,0,4.969-3.265,8.667-5.662c30.12-18.953,61.381-51.919,70.337-74.599
	c1.141-2.832,1.704-4.478,1.704-4.926v-0.159C214.765,41.246,213.378,42.286,211.789,44.829 M178.39,25.731
	c0,0.448,0.997,0.91,2.138,1.502c3.842,2.24,8.523,5.807,12.221,10.43c1.286,1.502,2.687,2.24,3.828,2.24
	c2.283,0,4.117-2.08,4.117-4.912c0-6.717-9.072-10.141-16.757-10.141C180.384,24.85,178.39,25.586,178.39,25.731 M207.672,30.513
	c1.271,1.344,2.557,1.936,3.698,1.936c2.268,0,4.118-2.095,4.118-4.767c0-6.429-8.538-9.852-16.339-9.852
	c-0.288,0-6.269,0-6.269,1.185c0,0.303,1.155,0.751,2.297,1.343C198.99,22.452,203.685,26.034,207.672,30.513 M149.802,49.22
	c-1.532,0.708-7.498,0.694-6.356,2.369c0.852,1.301,3.048,3.308,8.306,2.153c4.594-1.011,5.62-1.806,9.766-0.925
	c4.117,0.896,7.338,1.806,7.628,0.318c0.101-0.491-2.586-2.687-2.586-2.687c-5.721-4.334-10.849-9.26-13.03-11.961
	c-2.196-2.716-4.811-3.365-10.3-3.149c-5.49,0.217-11.065-2.788-11.976-3.77c-0.939-0.967-3.033,6.53,1.59,9.506
	c4.637,2.976,10.271,0.376,12.077,0.939c1.95,0.593,1.646,1.546-0.839,2.225c-2.456,0.693-8.133,0.52-9.433-0.274
	c-1.301-0.794,1.458,8.176,12.727,4.363C151.001,47.111,151.319,48.513,149.802,49.22"/>
<path fill="#382912" d="M610.477,91.938c0-11.932-11.37-21.336-22.868-21.336c-5.114,0-10.662,1.778-15.212,4.926
	c-1.184,0.824-2.254,1.633-3.265,2.412c-3.322-2.947-9.332-0.765-9.476,3.251c-0.145,4.29,4.406,4.723,5.373,2.73
	c0.911-1.849-1.589-2.716-2.528-1.69c-0.39-1.3,0.549-2.643,2.009-2.888c0.838-0.13,1.979,0.231,2.773,1.127l0.723,1.358
	c0.13,0.52,0.216,1.112,0.13,1.806c-0.346,3.293-4.073,4.608-6.024,5.013c-1.95,0.419-3.828-1.141-4.695-1.921
	c-0.838-0.794-0.91,1.502,0.448,2.774c-3.265,0.13-8.451-5.403-9.072-8.509c1.372,1.099,4.637,0.636,5.922-0.231
	c1.271-0.881,0.607-1.343-0.736-1.632c0.809-0.52,1.415-1.69,1.502-3.337c0.101-1.647-1.835-0.578-2.803-0.217
	c-0.376-1.458-1.344-0.404-2.571,1.43c-1.69,2.543-3.41,1.127-2.889-2.513c0.362-2.658,3.294-3.597,2.933-4.406
	c-0.361-0.795-1.849-0.896-2.817-0.535c0.91-5.46,6.963-6.197,6.746-3.886c-0.115,1.156-0.043,2.788,0.794,3.582
	c1.156,0.26,1.127-0.881,2.081-1.589c-0.563,2.181,1.372,5.056,2.354,5.331c2.586-1.242,2.615-4.536,2.24-5.345
	c0.202,0.636,1.56,1.733,1.849,0.91c0.881-2.514-0.346-8.379-6.486-9.766c-2.225-0.491-4.551-0.145-6.645,0.824
	c0.086-0.52,0.174-1.055,0.26-1.546c1.271-6.718,2.268-9.837,2.268-13.276c0-2.095-0.288-4.175-1.127-7.006
	c-0.448-1.199-0.578-2.702-0.578-4.189c0-4.767,2.426-10.286,10.661-10.286c2.976,0,7.107,0.434,9.809,1.488
	c1.849,0.607,3.698,1.343,5.244,1.343c2.572,0,5.258-2.831,5.258-6.572c0-9.549-17.754-17.899-19.329-17.899
	c-0.419,0-0.563,0.145-0.563,0.289c0,0.607,0.708,1.646,0.997,2.687c0.433,1.647,2.557,3.294,3.41,6.573
	c0,0.145,0.144,0.448,0.144,0.592c0,1.95-2.412,3.583-3.553,4.334c-8.379,5.07-18.188,9.693-18.188,21.481
	c0,0.895,0,1.791,0.145,2.845c0.13,1.04,0.13,2.384,0.13,3.583c0,4.015-0.419,8.205-0.694,9.548
	c-0.476,3.727-1.069,8.032-1.56,12.395c-2.066-0.578-3.756-0.145-4.797,1.487c-1.546,2.355,1.806,5.374,2.948,3.482
	c1.834-3.034,2.614-0.274,2.369,1.704c-0.246,1.994,0.26,5.519,2.412,10.43c2.542,5.808,9,10.791,16.526,9.809
	c5.937-0.751,8.639-5.648,8.667-9.823c1.156-1.199,2.369-2.369,3.828-3.525c3.135-2.542,6.544-3.582,9.954-3.582
	c8.248,0,16.338,6.573,16.338,16.122c0,11.629-12.351,27.75-38.932,34.454c-4.261,1.055-6.11,1.806-6.11,2.094
	c0,0.303,0.563,0.303,1.575,0.303C580.92,128.948,610.477,115.066,610.477,91.938"/>
<path fill="#382912" d="M324.991,266.915c0,0.882-0.708,1.792-3.135,1.792h-72.75c-7.945,0-28.415,0.274-41.2,1.632h-0.145
	c-1.155,0-2.513-1.069-3.727-2.441h-1.127c0.391-0.303,0.636-0.505,0.636-0.505v-0.043c-1.387-1.733-2.456-3.77-2.456-4.767
	c1.04,0.13,2.152,0.26,3.294,0.391c-0.015-0.391-0.029-0.751-0.029-0.751s-0.563-0.232-0.13-0.795
	c0.347-0.447,1.142-1.458,1.373-1.675l-1.011-0.853c0,0-1.069,1.084-1.084,0.275c0,0-0.592,0.274,0.303-1.402
	c0.91-1.661,0.636-2.037,0.636-2.037s0.217,0.072,0.65-0.505c0,0,2.948-3.091,2.441-2.312c-0.491,0.794,1.242,0.029,1.242,0.029
	c0.809,1.416,1.618,1.315,1.618,1.315l1.994-0.505c0,0,0.723-1.113,0.665-1.43c0.376-0.015,0.765,0,0.765,0l0.448-1.199
	c0,0-1.213-1.358-0.476-1.17c0.751,0.202,0.953,0.188,1.256,0.144l0.622,0.723c0,0,0.693,0.519,0.491,1.372l0.65,0.939l1.603-0.448
	c0,0,0.361-0.563,0.347-1.069c-0.029-0.925-0.794-0.607-0.029-0.925c0.78-0.317,0.39-0.159,0.78-0.317l0.376-0.16
	c0,0,0.014-1.329,0.404-0.881c0.072,0.115,0.101,0.159,0.101,0.159c0.043,0.029,0.188,0.101,0.708,0.549l1.17,0.953
	c0,0,0.246-0.433,0.101,0.708c-0.145,1.156,0.404,1.387,0.404,1.387l1.344,0.722l0.982,1.113c0.939-0.563,2.052-1.445,2.312-1.07
	c0.26,0.391,0.982,0.376,0.982,0.376l0.419-2.008l0.592-0.91c0,0-0.347-0.982-0.361-1.792l-0.014-0.824l0.361-1.184l-0.145-1.618
	c0,0,0.13-1.257-0.202-1.416c-0.332-0.159,0.794-1.661,0.347-1.907c-0.448-0.245-0.462-3.12-0.462-3.12l0.953-0.548
	c0,0,0.665-2.572,0.896-3.12c0.231-0.534,0.188-2.283,0.188-2.283s0.246-0.794,0.434-0.476l0.548,0.953c0,0,0.231,0.794,0.506,1.358
	l0.303,0.693c0,0,0.448,0.434,0.462,1.055c0.101,3.482,0.26,3.872,0.303,4.175l0.072,1.228c0,0,0.708,0.708,0.679,1.228
	c-0.029,0.52,0.101,0.707-0.029,1.242c-0.115,0.534-0.13,1.155-0.13,1.155l0.534,0.13c0,0,0.765-1.763,0.925-2.095l0.274-0.968
	l0.26-3.119c0.361-1.185,0.202-5.779,0.593-6.675c0.39-0.867,0.303-1.473,0.462-2.514c0.145-1.069,0.751-1.863,0.751-1.863
	s0.13-3.424,0.347-4.074c0.202-0.635,0.014-2.037,0.014-2.037s0.015-2.788-0.057-3.293c-0.072-0.506,0.289-1.473,0.289-1.473
	l0.607-0.809l0.404-0.794l1.026-1.473c0,0,0.39-0.78,0.881-0.332c0.462,0.448,1.488,0.405,1.488,0.405l0.924-0.751l0.911,0.693
	l0.202,2.023l0.332,0.881l1.517,0.506l1.055,0.968l0.794,1.935l-0.448,1.921l-0.433,1.199l-0.448,1.199l-0.174,0.953
	c0,0,0.839,0.982,0.506,1.358l-0.708,0.824l-0.534,2.037l0.231,0.78l-0.477,1.719l0.043,1.025l0.448,0.953l1.733-0.043
	c0,0,0-2.152,0.246-1.878c0.245,0.275,0.288-0.145,0.419-1.401c0.13-1.242,0.217-1.979,0.217-1.979l0.679-1.025l0.491-0.274
	l1.127,0.043c0,0,0.448-0.477,0.433-1.301c-0.014-0.823-0.159-1.733,0.332-1.906c0,0,0.939-1.358,1.011-0.231l0.058,1.112
	c0,0-0.015,0.622-0.058,1.04c0,0-0.448,0.578-0.145,0.419c0.274-0.13,0.838-0.636,0.838-0.636s-0.288-1.184,0.203-2.08l0.491-0.896
	c0,0,0.578-0.896,0.65-0.405c0.086,0.506,0.159,1.011,0.462,1.69c0.044,0.086,0.058,0.174,0.087,0.26v-10.733
	c0-21.336,0-53.421-1.979-63.707c-0.145-0.462-0.145-0.751-0.145-0.91c0-0.289,0.145-0.289,0.275-0.289
	c0.578,0,18.635,2.384,18.635,6.256c0,1.199-1.156,2.239-2.557,3.293c-4.001,2.672-4.421,1.488-4.565,7.454
	c-0.275,7.31-0.42,21.496-0.42,37.3h23.171c0.839,0,1.835-0.593,2.269-1.329c6.529-9.404,7.092-10.012,8.234-10.012
	c2.557,0,13.204,9.404,13.204,13.132c0,1.055-0.708,1.949-2.977,1.949H265.17c0,6.444,0.015,13.088,0.029,19.618
	c0.087-0.043,0.13-0.029,0.26,0.245c0.289,0.679,0.217,0.174,0.405,1.387c0.174,1.199-0.116,0.737,0.13,1.618
	c0.217,0.896,0.506,1.373,0.679,1.849c0.16,0.491,0.145,1.011,0,1.445l1.532,2.037c0,0,1.561,1.632,1.95,2.095l0.996,0.578
	l1.344-2.152l0.997-0.867c0.967,0.274,1.878,0.852,1.878,0.852l0.953,0.174c0,0,0.072,0.607,0.231,0.996
	c0.174,0.391-0.029,1.084-0.057,1.662c-0.058,1.04,0.231,2.325,0.231,2.325l-0.13,1.257l-0.664,1.127l0.838,0.809l0.202,0.679
	l1.011,0.578l0.953,0.896l-0.173,1.762l-0.274,0.882l-0.145,1.849l0.895-0.939l1.04-2.095l0.679-1.04l0.246-1.778l1.141,0.044
	l1.025-0.058l1.33,0.636l0.621,0.737c0.636,0.852,0.534,1.56,0.534,1.56l0.015,0.824c0,0-0.91,0.245-1.17,0.477l-0.506,0.895
	l-0.029,1.864l-0.519,1.401l-1.084,1.084c0,0-0.809,1.43-0.982,1.69c-0.679,1.025-0.376,1.704-0.376,1.704l0.057,1.113l-0.26,0.953
	l0.535,0.867l0.376,1.286c-0.304,1.387,0.361,1.69,0.361,1.69c0.029,0.029,0.043,0.058,0.072,0.087h17.928
	c0.982,0,1.979-0.592,2.412-1.344c1.415-2.398,6.529-10.156,8.523-10.156C313.766,253.467,324.991,263.333,324.991,266.915
	 M267.467,244.279c0.159,0.404,0.419,1.112,0.765,1.04c0.896-0.245,1.546-1.834,1.964-2.138c0.824-0.65,1.055-1.184,1.055-1.184
	s-0.072-0.505-0.534-0.853l-2.571-1.473C268.146,239.671,267.323,243.904,267.467,244.279 M265.257,239.122
	c0.014,1.718,0.029,3.395,0.029,5.07l0.014-0.014c0,0,0.217-1.979,0.188-2.283c-0.043-0.288,0.043-1.025,0.043-1.025
	C265.705,240.205,265.502,239.584,265.257,239.122 M255.809,228.995l0.115,0.289v-0.65L255.809,228.995z M254.119,250.144
	l0.91,0.101l0.072-0.607l-0.925-0.101L254.119,250.144z M253.541,254.594l1.315,0.145l0.16-1.416l-1.315-0.145L253.541,254.594z
	 M247.98,246.128l-0.015,1.632h0.91l0.015-1.618L247.98,246.128z M248.399,255.186v0.621h0.505V255.2L248.399,255.186z
	 M247.632,249.494l-0.014,0.809h0.722v-0.809H247.632z M246.014,237.403l0.203,4.189c0,0,0.231,0.997,0.664,1.142
	c0.448,0.144,1.099-0.983,1.099-0.983l0.476-2.441l-0.057-1.127C248.399,238.183,246.968,239.021,246.014,237.403 M246.997,252.224
	l-0.014,0.924h0.622v-0.924H246.997z M245.466,253.741l-0.015,1.011l1.33,0.014v-1.01L245.466,253.741z M246.766,245.507h-0.621
	l-0.015,0.809l0.622,0.014L246.766,245.507z M245.697,248.454h0.924l0.015-0.607l-0.925-0.015L245.697,248.454z M245.061,251.387
	v0.823l0.809,0.015l0.015-0.824L245.061,251.387z M244.224,225.629l0.014,2.254l0.896-0.838L244.224,225.629z M242.678,228.519
	c-0.26,0.361-0.332,1.286-0.332,1.286l0.419,0.765c0,0,0.91,0.534,1.084,0.26c0.636-1.127,0.231-1.156,0.39-1.502L242.678,228.519z
	 M243.688,232.606l-0.404,0.867l-0.347,1.084l1.141,0.145l0.361-1.084L243.688,232.606z M242.071,244.135l-0.014,1.532l0.52,0.014
	l0.029-1.532L242.071,244.135z M241.955,225.644l0.679,1.242l0.723-2.152l-0.853-0.303L241.955,225.644z M241.84,249.234h0.708
	l0.015-1.517h-0.708L241.84,249.234z M241.479,253.712v0.694l0.809,0.014l0.015-0.708H241.479z M241.927,250.751h-0.405v1.011h0.405
	V250.751z M241.724,232.578l-1.213,0.159l0.376,1.184l0.794-0.202L241.724,232.578z M240.597,251.56v-1.329l-0.708-0.015
	l-0.014,1.33L240.597,251.56z M239.572,253.178l-0.014,1.127h0.794l0.014-1.127H239.572z M240.916,248.512l0.014-1.733h-0.505
	l-0.015,1.719L240.916,248.512z M240.959,244.655v-1.127h-0.289l-0.014,1.127H240.959z M239.947,223.159
	c-0.101,0.636-0.26,1.777-0.26,1.777s0,1.07,0.434,0.766c0.924-0.65,1.069-1.07,1.069-1.07c0.159-1.055,0.607-0.809,0.159-1.055
	l-0.448-0.245l-0.419-0.043c0,0-0.621-0.737-0.578-0.434L239.947,223.159z M238.979,228.446c0,0,0.072,1.315,0.391,1.372
	c0,0,1.098-0.245,1.358-0.607c0.245-0.332,0.794-0.824,0.65-1.227l-1.763-0.766C239.327,227.363,238.633,228.288,238.979,228.446
	 M238.546,233.43l1.055,0.058l-0.101-1.416l-0.824,0.116L238.546,233.43z M239.095,247.067l0.015-0.809h-0.405l-0.014,0.809H239.095
	z M238.575,249.509l-0.015,1.127h0.506l0.014-1.127H238.575z M239.543,244.323l0.015-0.91h-0.723l-0.014,0.91H239.543z
	 M237.217,252.917v0.91l0.824-0.014l-0.028-0.91L237.217,252.917z M225.762,258.826l0.072,0.607l0.607-0.086l-0.072-0.607
	L225.762,258.826z M223.609,258.205l0.216,1.415l1.705-0.245l-0.203-1.401L223.609,258.205z M225.343,261.658l-0.997,0.159
	l0.13,0.91l0.996-0.145L225.343,261.658z M221.688,261.989l0.13,0.896l1.704-0.231l-0.13-0.91L221.688,261.989z M220.965,259.115
	l0.203,1.401l1.415-0.188l-0.202-1.415L220.965,259.115z M218.293,262.683l0.101,0.708l0.708-0.101l-0.101-0.708L218.293,262.683z
	 M217.369,259.115l0.115,0.794l0.809-0.116l-0.116-0.794L217.369,259.115z M215.534,262.062l0.101,0.794l1.43-0.202l-0.13-0.809
	L215.534,262.062z M214.046,258.869l0.216,1.502l1.402-0.188l-0.203-1.517L214.046,258.869z"/>
<path fill="#382912" d="M260.198,25.832c12.265-2.137,25.294-4.723,36.476-5.388c4.175-0.332,6.515-2.441,6.515-4.709
	c0-5.056-9.621-6.039-11.037-6.039c-6.341,0-8.046,3.901-13.955,5.215c-6.356,1.618-14.734,3.41-21.871,3.41
	c-4.652,0-8.841-0.794-11.484-2.933c-0.78-0.65-1.561-1.301-2.167-1.301c-1.401,0-1.401,2.788-1.401,2.948
	c0,4.882,5.894,9.274,14.272,9.274C257.107,26.309,258.653,26.15,260.198,25.832 M291.142,83.543
	c1.155,0.405,2.368,0.42,3.495,0.246c2.225-0.332,3.785-2.095,4.103-3.482c1.084-4.521-3.626-6.096-5.359-3.236
	c-0.636,1.011,0.26,3.554,2.066,2.948c-2.803,1.675-5.619-1.286-4.955-4.869c0.809-4.247,7.368-4.68,9.694-2.716
	c2.311,1.979,1.806-3.626-1.604-3.756c0,0,1.994-0.707,4.782,0.549c1.994,0.867,2.557,2.311,2.529,3.641
	c-0.015,1.329,2.137,0.491,2.397-1.994c0.448-4.319-3.857-7.555-8.769-5.952c0,0,12.323-6.299,12.366-15.862
	c0-3.193-0.968-5.879-2.514-7.96c-1.358-2.397-2.542-5.59-1.112-9c1.733-4.146-7.209-1.3-5.706,4.377
	c-3.973-1.098-8.379-0.303-11.326,2.687c-0.391,0.405-0.679,0.924-0.982,1.43c-8.365,0.824-27.693,3.669-33.761,4.29
	c-3.727,0.491-7.771,0.65-11.34,0.65c-5.736,0-10.705-0.65-11.788-2.6c-0.622-0.982-1.705-1.459-2.644-1.459
	c-1.387,0-2.629,0.968-2.629,3.41c0,3.438,11.485,11.586,19.863,11.586c3.727,0,7.137-1.633,13.493-3.756
	c10.82-3.655,21.293-5.576,27.65-6.472c0.058,0.477,0.086,0.968,0.217,1.387c0.245,1.3,2.181,2.759,3.784,2.499
	c1.59-0.274,3.308-1.329,2.76-3.886c-0.448-2.21-3.02-2.528-4.103-1.763l0.086-0.548c0.346-0.42,0.853-0.911,1.487-1.33
	c4.002-2.47,9.65-2.412,12.078,1.17c4.334,6.399-3.656,13.594-6.473,15.269c0.968-4.796-4.334-5.287-4.796-3.38
	c1.849,4.724-0.549,6.256,0.086,5.244c0.332-3.265-3.828-3.366-3.9-0.52c-0.116,5.013-3.149,7.266-3.771,11.831
	c-12.265,18-32.474,41.59-57.841,53.017c-2.643,1.141-4.045,2.282-4.045,2.773c0,0.16,0.16,0.332,0.78,0.332
	c0.78,0,2.023-0.173,4.03-0.824C251.849,120.741,272.637,107.668,291.142,83.543"/>
<path fill="#382912" d="M363.533,32.197c-28.805,0-44.147,26.233-44.147,45.187c0,4.406,0.925,8.076,2.672,10.618
	c1.271,1.922,2.326,3.872,3.323,5.736c2.542,4.752,4.709,8.827,8.826,8.827c10.069,0,28.776-26.09,28.776-50.749
	c0-5.894-0.982-10.719-2.745-13.579l-0.693-1.127l1.329-0.058c0.405-0.029,0.839-0.043,1.242-0.043
	c21.336,0,31.059,16.381,31.059,31.622c0,7.338-2.571,32.011-35.754,41.402c-5.258,1.532-5.258,2.571-5.258,2.918
	c0,0.607,0.765,0.967,2.051,0.967c10.387,0,47.065-10.733,47.065-44.84C401.28,51.323,389.463,32.197,363.533,32.197
	 M356.672,59.109c-4.031,16.859-15.457,32.735-21.381,32.735c-4.551,0-9.433-6.862-9.433-17.075
	c0-11.413,6.516-23.893,16.223-31.059l0.303-0.231l0.346,0.101c4.738,1.112,10.993,4.651,13.941,15.139l0.057,0.188L356.672,59.109z
	"/>
<path fill="#382912" d="M646.802,62.632c-1.416,0-5.995,9.289-9.535,17.018c-4.218,4.435-6.284,1.458-6.991-3.699
	c1.198-7.092,3.9-14.359,6.457-21.163c2.615-7.151,5.1-11.268,5.1-16.367c0-9.751-9.954-22.117-14.533-22.117
	c-0.13,0-1.704,0-1.704,0.679c0,0.419,0.78,1.242,1.445,2.21c4.839,7.006,6.414,12.914,6.414,18.418
	c0,4.811-1.184,9.347-2.225,14.287c-2.5,11.557-6.804,23.937-6.804,38.498c0,13.897,3.929,29.441,9.954,29.441
	c1.834,0,3.264-1.661,3.264-4.406c0-1.098-0.26-2.34-0.779-3.698c-0.794-1.936-1.055-4.147-1.055-6.487
	c0-6.053,3.005-21.857,10.733-39.452c0.534-1.098,0.794-1.921,0.794-2.47C647.337,62.777,647.076,62.632,646.802,62.632
	 M720,108.701c0,2.745-1.575,5.214-3.656,5.214c-1.315,0-2.888-1.083-4.463-3.712c-3.135-5.504-8.119-9.766-12.698-12.235
	c-1.835,11.686-10.864,19.805-20.701,19.805c-9.144,0-17.523-7.165-17.523-14.432c0-8.118,10.733-14.026,23.692-14.026
	c2.759,0,5.634,0.259,8.508,0.823v-6.876c-0.13-6.053-0.26-19.257-0.39-32.446c-3.005,0.679-5.36,0.679-6.414,0.679
	c-15.587,0-21.336-11.282-21.336-12.785c0-0.288,0.13-0.404,0.52-0.404c0.52,0,1.56,0.26,3.005,0.809
	c2.499,0.968,6.934,3.164,9.563,4.002c2.614,0.823,5.75,1.358,9.029,1.358c0.274,0,1.575,0,5.634-0.535v-8.118
	c0-13.623-0.78-13.739-4.059-14.706c-1.964-0.549-3.019-0.954-3.019-1.921c0-0.968,2.628-4.276,5.504-4.276
	c2.874,0,9.303,5.504,9.303,10.185c0,0.809-0.13,1.646-0.26,2.6c2.34,0.968,7.324,3.164,9.029,3.712
	c4.969,1.387,6.804,2.341,6.804,5.374c0,7.281-13.493,11.413-17.682,12.64v6.053c0,10.574,0.405,20.08,0.794,26.263
	c0.13,3.164,0.391,6.587,0.391,9.895C709.266,94.674,720,102.777,720,108.701 M698.663,42.567c9.419-2.629,9.419-5.648,9.419-6.746
	c0-2.21-2.225-3.568-7.989-7.151C698.793,38.161,698.663,41.73,698.663,42.567 M689.562,103.081
	c-2.774-4.246-7.7-7.251-11.182-8.941c-8.09,0.78-13.362,4.955-13.362,9.058c0,5.504,6.79,7.151,11.253,7.151
	C681.848,110.348,686.572,107.631,689.562,103.081"/>
<path fill="#382912" d="M396.337,187.853c4.681,0,22.305-1.04,22.305-8.061c0-2.383-2.412-4.463-6.384-4.463
	c-0.997,0-1.994,0-2.977,0.289c-1.849,0.447-3.424,1.487-5.402,1.935c-3.987,0.751-7.96,1.344-11.803,1.344
	c-5.114,0-9.939-1.04-14.2-3.568c-1.142-0.751-1.994-1.199-2.412-1.199c-0.304,0-0.434,0.145-0.434,0.593
	C375.03,175.762,376.879,187.853,396.337,187.853 M356.698,203.975c-1.43,0-5.591,8.422-9.318,16.656
	c-5.229,5.735-7.497,1.358-8.061-5.302c1.387-7.8,4.334-15.876,7.151-22.998c2.268-5.981,3.842-10.445,3.842-15.371
	c0-9.997-6.414-17.609-10.95-17.609c-1.849,0-2.831,0.448-2.831,0.896c0,0.593,1.127,1.647,1.704,2.831
	c1.271,2.24,3.12,7.469,3.12,15.385c0,2.976-0.289,6.414-0.997,10.141c-2.282,12.38-7.959,26.104-7.959,42.818
	c0,8.364,2.845,30.871,11.224,30.871c2.124,0,3.828-1.778,3.828-4.767c0-0.751-0.13-1.488-0.274-2.384
	c-0.563-2.383-0.982-5.07-0.982-8.508c0-10.141,6.096-28.949,10.227-39.38c0.42-1.198,0.694-2.094,0.694-2.701
	C357.117,204.119,356.986,203.975,356.698,203.975 M419.365,242.617h-0.868c-5.244,0.304-7.237,2.225-10.502,2.687
	c-2.702,0.448-5.402,0.592-7.959,0.592c-10.662,0-20.311-3.135-23.302-7.614c-1.127-1.791-2.138-2.687-2.831-2.687
	c-0.433,0-0.722,0.448-0.722,1.329c0,3.294,4.406,19.257,31.406,19.257c7.945,0,22.029-1.792,22.029-8.798
	C426.616,244.843,424.045,242.617,419.365,242.617"/>
<path fill="#382912" d="M617.667,173.888c-5.388,0-10.791,2.239-15.182,4.03c-2.557,1.04-6.256,2.383-9.535,2.383
	c-2.268,0-4.392-0.751-5.402-3.134c-0.275-0.882-0.563-1.792-1.271-1.792c-0.853,0-2.427,2.384-2.427,5.229
	c0,5.071,4.709,11.037,11.384,11.037c3.553,0,6.529-2.081,9.375-4.782c3.843-3.568,7.96-6.4,11.932-6.4
	c5.822,0,13.362,8.206,13.362,24.169c0,27.158-24.154,54.157-41.069,63.706c-2.846,1.633-4.55,2.991-4.55,3.439
	c0,0.144,0,0.144,0.419,0.144c3.857,0,37.386-11.932,50.301-45.807c2.716-7.006,4.132-14.157,4.132-21.178
	C639.134,190.746,631.896,173.888,617.667,173.888 M634.685,156.35c-1.185-0.216-5.909-3.886-8.784-5.504
	c-6.515-3.669-14.951-6.053-26.552-4.117c-13.464,2.268-11.672,8.147-11.672,8.147c0.65,0.694,1.358,0.246,1.228-0.881
	c-0.13-1.127,6.948-4.261,11.238-3.351c4.118,0.881,6.949,4.03,8.769,6.847c1.604,2.485,2.745,6.284,3.468,7.237
	c1.343,1.748,2.976-1.286,2.903-3.005c-0.217-5.49-1.517-6.876-7.137-9.477c-1.777-0.838-1.661-1.372-0.115-0.953
	c3.38,0.939,9.866,3.842,11.326,9.418c1.315,4.984,1.242,7.671-0.347,8.798c-1.589,1.127,0.794,3.727,4.42,1.994
	c3.611-1.733,6.168-9.448,0.708-14.186c2.066-0.217,4.969,1.936,4.969,1.936s2.297,2.643,6.212,2.745
	c4.204,0.086,6.704-4.378,5.779-4.464C638.224,157.275,636.057,156.582,634.685,156.35"/>
<path fill="#382912" d="M205.482,293.728c0.707,0,0.867,0.101,0.867,0.592c0.028,0.708,0.505,3.251,0.505,4.175
	c0,0.246-0.274,0.463-0.505,0.463c-0.174,0-0.332-0.101-0.405-0.289c-1.025-3.207-3.872-4.478-6.544-4.478
	c-3.279,0-6.689,2.6-6.689,8.45c0,5.865,3.438,8.769,7.454,8.769c3.279,0,5.374-2.717,6.154-4.638
	c0.057-0.145,0.188-0.188,0.332-0.188c0.274,0,0.563,0.159,0.563,0.376c0,0.029,0,0.087-0.029,0.101
	c-0.203,0.592-0.506,1.994-0.708,2.933c-0.101,0.39-0.188,0.636-0.722,0.953c-1.373,0.824-3.857,1.416-5.836,1.416
	c-5.634,0-10.849-3.207-10.849-9.723c0-5.099,4.507-9.375,10.459-9.375c2.312,0,3.684,0.462,5.779,0.462H205.482z"/>
<path fill="#382912" d="M220.706,311.969c-0.13,0-0.246-0.144-0.246-0.303c0-0.13,0.072-0.274,0.217-0.404
	c1.531-0.145,1.531-1.04,1.531-4.118c0-2.903,0-4.666-1.935-4.666c-1.575,0-2.571,1.04-2.672,1.777
	c-0.014,0.26-0.043,1.026-0.043,1.936c0,1.502,0.043,3.41,0.072,3.828c0.043,0.462,0.317,1.242,1.575,1.271
	c0.057,0.072,0.101,0.217,0.101,0.376c0,0.16-0.043,0.303-0.173,0.303c-0.058,0-1.676-0.173-3.38-0.173
	c-0.853,0-1.733,0.057-2.441,0.173h-0.058c-0.13,0-0.202-0.116-0.202-0.274c0-0.13,0.072-0.303,0.202-0.405
	c1.142-0.13,1.402-0.809,1.43-1.242c0.116-1.718,0.145-9.144,0.145-10.444c0-1.719-0.029-3.236-0.072-4.016
	c-0.072-0.996-0.491-1.17-1.502-1.387c-0.072-0.014-0.101-0.145-0.101-0.274c0-0.116,0.057-0.274,0.173-0.289
	c1.17-0.188,3.308-0.924,4.016-1.256c0.116-0.058,0.217-0.087,0.289-0.087c0.145,0,0.231,0.087,0.231,0.347v0.072
	c-0.101,2.268-0.159,4.882-0.188,8.725l-0.015,1.098c0,0.043,0.015,0.072,0.015,0.072c0.029,0,0.086-0.029,0.101-0.058
	c0.881-1.084,2.166-1.719,3.741-1.719c2.138,0,3.467,1.502,3.539,3.611c0.029,0.376,0.029,0.809,0.029,1.271
	c0,3.424,0,3.713,0.043,4.449c0.058,0.492,0.361,1.07,1.459,1.07c0.13,0.13,0.173,0.26,0.173,0.376c0,0.188-0.115,0.361-0.202,0.361
	c-0.014,0-1.704-0.173-3.41-0.173c-0.852,0-1.704,0.057-2.383,0.173H220.706z"/>
<path fill="#382912" d="M232.433,311.957c-0.173,0-0.217-0.101-0.217-0.26c0-0.159,0.101-0.39,0.174-0.462
	c1.632-0.188,1.733-0.679,1.733-3.641c0-4.752,0-4.752-1.43-5.042c-0.174-0.043-0.231-0.202-0.231-0.318
	c0-0.173,0.086-0.346,0.26-0.361c1.069-0.159,2.774-0.592,3.641-0.982c0.202-0.087,0.404-0.217,0.563-0.217
	c0.144,0,0.216,0.101,0.216,0.362v0.202c-0.202,1.704-0.216,5.446-0.216,6.212v1.907c0.043,1.227,0,1.733,1.603,1.863
	c0.13,0.116,0.174,0.275,0.174,0.419c0,0.188-0.072,0.332-0.203,0.332c-0.028,0-1.863-0.173-3.669-0.173
	c-0.838,0-1.704,0.057-2.34,0.159H232.433z M233.387,295.69c0-1.069,0.881-1.964,1.979-1.964c1.098,0,1.936,0.896,1.936,1.964
	c0,1.07-0.839,2.009-1.936,2.009C234.268,297.699,233.387,296.76,233.387,295.69"/>
<path fill="#382912" d="M244.42,311.969c-0.116,0-0.188-0.116-0.188-0.245c0-0.159,0.101-0.39,0.216-0.462
	c1.344-0.043,1.532-0.708,1.59-1.242c0.071-1.07,0.086-5.519,0.086-7.888c0-2.167,0-4.536-0.072-6.053
	c-0.014-1.055-0.072-1.56-1.358-1.835c-0.072-0.028-0.145-0.159-0.145-0.317c0-0.145,0.072-0.289,0.217-0.318
	c1.127-0.144,2.614-0.65,4.088-1.213c0.087-0.014,0.16-0.043,0.232-0.043c0.144,0,0.216,0.086,0.216,0.303v0.13
	c-0.216,2.268-0.288,9.563-0.288,12.625c0,1.011,0,3.713,0.101,4.536c0.043,0.65,0.318,1.17,1.633,1.286
	c0.115,0.101,0.173,0.26,0.173,0.405c0,0.159-0.086,0.332-0.188,0.332c0,0-2.008-0.116-3.872-0.116c-0.924,0-1.82,0.015-2.412,0.116
	H244.42z"/>
<path fill="#382912" d="M265.013,301.299c0.101,0,0.145-0.13,0.145-0.332c0.029-0.593,0.043-1.704,0.043-2.802
	c0-3.482-0.043-3.511-1.517-3.872c-0.13-0.029-0.188-0.174-0.188-0.303c0-0.16,0.101-0.332,0.245-0.347
	c1.17-0.202,2.745-0.722,3.958-1.256c0.145-0.043,0.26-0.101,0.361-0.101c0.145,0,0.231,0.101,0.231,0.332v0.043
	c-0.029,1.026-0.13,3.005-0.159,4.276c-0.043,3.106-0.145,6.616-0.145,9.881c0,0.779,0,1.575,0.029,2.297
	c0.014,1.387,0.881,1.415,1.661,1.473c0.116,0,0.217,0.245,0.217,0.433c0,0.145-0.029,0.246-0.16,0.275
	c-0.867,0.202-2.441,0.708-2.976,1.011c-0.101,0.086-0.231,0.159-0.332,0.159c-0.13,0-0.492-0.332-0.868-1.055
	c-0.043-0.072-0.043-0.115-0.071-0.115c-0.029,0-0.058,0.014-0.13,0.072c-0.607,0.39-1.704,0.867-2.947,0.867
	c-3.568,0-5.605-2.572-5.605-5.46c0-2.889,2.037-5.779,6.053-5.779c0.693,0,1.43,0.174,2.094,0.303H265.013z M265.186,306.961
	c0-0.679,0-1.343-0.029-1.748c-0.072-2.369-1.17-3.395-2.485-3.395c-2.254,0-2.889,2.398-2.889,4.204c0,1.329,0.708,5.07,3.293,5.07
	c1.517,0,1.95-1.069,2.038-1.632C265.157,308.954,265.186,307.915,265.186,306.961"/>
<path fill="#382912" d="M275.441,311.998c-0.145,0-0.203-0.1-0.203-0.231c0-0.159,0.13-0.404,0.174-0.462
	c1.227-0.086,1.531-0.534,1.56-1.344v-4.781c0-2.138-0.086-2.528-1.329-2.802c-0.13-0.029-0.174-0.145-0.174-0.275
	c0-0.13,0.072-0.288,0.203-0.303c0.967-0.231,2.34-0.722,3.553-1.198c0.13-0.058,0.217-0.072,0.289-0.072
	c0.173,0,0.231,0.144,0.231,0.404v0.231l-0.058,0.824c0.029,0.087,0,0.145,0.058,0.145c0.029,0,0.043-0.029,0.13-0.057
	c0.882-0.665,2.138-1.257,2.991-1.257c1.358,0,1.863,0.563,1.863,1.199c0,0.766-0.794,1.69-1.646,1.69
	c-0.332,0-0.708-0.159-1.026-0.491c-0.404-0.448-0.881-0.679-1.271-0.679c-0.506,0-0.911,0.405-0.968,1.242
	c0,0.072-0.029,0.289-0.029,3.799c0.029,0.809,0,1.719,0.058,2.485c0.043,0.708,0.578,1.04,2.109,1.199
	c0.13,0.101,0.173,0.303,0.173,0.462c0,0.174-0.043,0.303-0.173,0.303c-0.015,0-2.081-0.159-4.045-0.159
	c-0.91,0-1.777,0.058-2.412,0.13H275.441z"/>
<path fill="#382912" d="M296.401,312.341c-4.059,0-5.764-3.048-5.764-5.46c0-3.308,2.643-5.981,6.009-5.981
	c2.832,0,4.421,1.748,4.45,3.265c0,0.881-0.622,1.242-2.398,1.314c-1.344,0.072-3.222,0.174-4.521,0.174
	c-0.463,0-0.563,0-0.563,0.824c0,2.283,1.343,4.666,3.958,4.666c0.116,0,1.661,0,2.86-1.084c0.043-0.029,0.116-0.057,0.159-0.057
	c0.231,0,0.434,0.231,0.434,0.433C301.023,310.694,299.42,312.341,296.401,312.341 M294.205,304.915
	c0.938-0.202,2.137-0.433,3.178-0.534c0.477-0.043,0.505-0.534,0.505-0.607c0-0.52-0.202-2.109-1.661-2.109
	c-1.95,0-2.326,2.672-2.326,2.788c0,0.217,0.072,0.462,0.246,0.462H294.205z"/>
<path fill="#382912" d="M314.448,311.969c-0.13,0-0.246-0.144-0.246-0.303c0-0.13,0.072-0.274,0.217-0.404
	c1.372-0.13,1.401-0.607,1.401-3.67c0-1.084-0.029-2.441-0.058-2.976c-0.101-1.372-0.65-2.181-1.806-2.181
	c-1.343,0-2.456,0.982-2.557,1.849c-0.028,0.26-0.057,1.025-0.057,1.936c0,1.531,0.057,3.438,0.072,3.842
	c0.057,0.491,0.159,1.199,1.401,1.227c0.072,0.072,0.13,0.217,0.13,0.376c0,0.16-0.087,0.303-0.232,0.303
	c-0.028,0-1.675-0.173-3.351-0.173c-0.794,0-1.632,0.057-2.239,0.173h-0.058c-0.145,0-0.202-0.116-0.202-0.274
	c0-0.13,0.057-0.303,0.202-0.405c1.373-0.159,1.502-0.765,1.502-4.131c0-3.944-0.029-4.392-1.444-4.681
	c-0.086-0.029-0.13-0.145-0.13-0.274c0-0.13,0.072-0.26,0.203-0.289c1.17-0.202,2.947-0.924,3.655-1.271
	c0.13-0.043,0.231-0.071,0.317-0.071c0.145,0,0.231,0.071,0.231,0.288v0.13c-0.086,0.476-0.101,1.17-0.101,1.487
	c0,0.058,0.014,0.072,0.072,0.072c0.043,0,0.101-0.014,0.13-0.043c0.751-0.91,2.109-1.676,3.655-1.676
	c2.066,0,3.467,1.502,3.539,3.67c0.029,0.376,0.029,0.91,0.029,1.459c0,3.424,0.015,3.77,0.043,4.334
	c0.058,0.477,0.26,0.939,1.373,0.939c0.116,0.13,0.159,0.26,0.159,0.376c0,0.188-0.116,0.361-0.188,0.361
	c-0.014,0-1.661-0.173-3.322-0.173c-0.839,0-1.661,0.057-2.297,0.173H314.448z"/>
<path fill="#382912" d="M343.769,312.311c-3.944,0-6.039-2.73-6.039-5.633c0-3.179,2.557-5.765,6.039-5.765
	c3.64,0,5.922,2.601,5.922,5.765C349.691,309.668,347.467,312.311,343.769,312.311 M346.513,307.313
	c0-3.322-1.171-5.721-2.977-5.721c-2.137,0-2.643,2.86-2.643,4.319c0,0.303,0,5.692,3.048,5.692
	C345.704,311.604,346.513,309.769,346.513,307.313"/>
<path fill="#382912" d="M355.755,311.969c-0.13,0-0.232-0.144-0.232-0.303c0-0.13,0.058-0.274,0.174-0.361
	c1.733-0.231,1.704-1.17,1.733-2.456v-6.227c0-0.274-0.231-0.289-0.303-0.289h-0.867c-0.145-0.028-0.231-0.173-0.231-0.347
	c0-0.145,0.029-0.274,0.188-0.376c0.39-0.202,1.112-0.303,1.17-0.867c0.101-0.751,0.115-1.242,0.174-1.806
	c0.39-4.42,3.178-6.458,6.298-6.458c0.043,0,4.001,0.13,4.001,2.254c0,0.853-0.636,1.286-1.286,1.286
	c-0.548,0-1.199-0.304-1.733-1.257c-0.448-0.78-0.665-1.502-1.502-1.502c-2.672,0-2.976,3.915-2.976,7.382
	c0,0.593,0.072,0.608,0.217,0.608h0.159c0.39,0,1.127-0.015,1.301-0.044h0.057c0.217,0,0.303,0.232,0.303,0.463
	c0,0.534-0.231,0.679-0.361,0.679c-0.203-0.015-0.968-0.015-1.43-0.015c-0.203,0-0.275,0.116-0.275,0.289
	c-0.043,0.563-0.043,1.387-0.043,2.254c0,1.502,0.029,3.149,0.043,3.944c0.029,1.647,0,2.297,2.009,2.485
	c0.072,0.057,0.13,0.231,0.13,0.361c0,0.188-0.057,0.332-0.174,0.332c-0.028,0-1.964-0.231-3.9-0.231
	c-0.939,0-1.864,0.058-2.6,0.202H355.755z"/>
<path fill="#382912" d="M387.482,310.46c0.144,0,0.303,0.246,0.303,0.434c0,0.332-1.575,1.401-3.265,1.401
	c-1.907,0-3.251-1.055-3.38-2.976c-0.058-0.693-0.072-1.589-0.072-2.6c0-1.43,0.043-2.976,0.072-4.001v-0.043
	c0-0.145-0.072-0.232-0.231-0.232h-0.072c-0.289,0.058-0.607,0.101-0.838,0.101h-0.029c-0.13,0-0.203-0.202-0.203-0.362
	c0-0.202,0.072-0.376,0.203-0.419c1.863-0.491,3.033-1.704,3.582-2.86c0.029-0.101,0.159-0.145,0.303-0.145
	c0.231,0,0.448,0.101,0.448,0.232c0,0.361-0.058,1.517-0.086,1.979c0,0.203,0.057,0.275,0.26,0.275c1.069,0,2.441-0.246,2.585-0.275
	h0.029c0.188,0,0.303,0.332,0.303,0.636c0,0.26-0.086,0.534-0.332,0.534c-0.953,0-2.008,0.043-2.585,0.101
	c-0.42,0.043-0.434,0.13-0.434,3.813c0,3.41,0,4.84,1.604,4.84c0.751,0,1.531-0.303,1.777-0.434H387.482z"/>
<path fill="#382912" d="M400.446,311.969c-0.13,0-0.246-0.144-0.246-0.303c0-0.13,0.072-0.274,0.217-0.404
	c1.531-0.145,1.531-1.04,1.531-4.118c0-2.903,0-4.666-1.935-4.666c-1.575,0-2.571,1.04-2.672,1.777
	c-0.014,0.26-0.043,1.026-0.043,1.936c0,1.502,0.043,3.41,0.072,3.828c0.043,0.462,0.317,1.242,1.575,1.271
	c0.057,0.072,0.1,0.217,0.1,0.376c0,0.16-0.043,0.303-0.173,0.303c-0.058,0-1.676-0.173-3.38-0.173
	c-0.853,0-1.733,0.057-2.441,0.173h-0.058c-0.13,0-0.202-0.116-0.202-0.274c0-0.13,0.072-0.303,0.202-0.405
	c1.142-0.13,1.402-0.809,1.43-1.242c0.116-1.718,0.145-9.144,0.145-10.444c0-1.719-0.029-3.236-0.072-4.016
	c-0.072-0.996-0.491-1.17-1.502-1.387c-0.072-0.014-0.101-0.145-0.101-0.274c0-0.116,0.057-0.274,0.173-0.289
	c1.17-0.188,3.308-0.924,4.016-1.256c0.116-0.058,0.217-0.087,0.289-0.087c0.145,0,0.231,0.087,0.231,0.347v0.072
	c-0.101,2.268-0.159,4.882-0.188,8.725l-0.015,1.098c0,0.043,0.015,0.072,0.015,0.072c0.029,0,0.086-0.029,0.101-0.058
	c0.881-1.084,2.166-1.719,3.741-1.719c2.138,0,3.467,1.502,3.539,3.611c0.029,0.376,0.029,0.809,0.029,1.271
	c0,3.424,0,3.713,0.043,4.449c0.058,0.492,0.362,1.07,1.459,1.07c0.13,0.13,0.173,0.26,0.173,0.376c0,0.188-0.116,0.361-0.202,0.361
	c-0.014,0-1.704-0.173-3.41-0.173c-0.852,0-1.704,0.057-2.383,0.173H400.446z"/>
<path fill="#382912" d="M418.132,312.341c-4.059,0-5.764-3.048-5.764-5.46c0-3.308,2.643-5.981,6.009-5.981
	c2.832,0,4.421,1.748,4.45,3.265c0,0.881-0.607,1.242-2.398,1.314c-1.344,0.072-3.222,0.174-4.521,0.174
	c-0.463,0-0.563,0-0.563,0.824c0,2.283,1.343,4.666,3.958,4.666c0.116,0,1.661,0,2.86-1.084c0.058-0.029,0.116-0.057,0.159-0.057
	c0.231,0,0.434,0.231,0.434,0.433C422.755,310.694,421.151,312.341,418.132,312.341 M415.936,304.915
	c0.938-0.202,2.137-0.433,3.178-0.534c0.491-0.043,0.505-0.534,0.505-0.607c0-0.52-0.202-2.109-1.646-2.109
	c-1.965,0-2.341,2.672-2.341,2.788c0,0.217,0.072,0.462,0.246,0.462H415.936z"/>
<path fill="#382912" d="M466.145,293.757c0.202,0,0.303,0.13,0.303,0.304c0,0.115-0.101,0.288-0.275,0.433
	c-0.867,0.159-1.271,0.462-1.632,1.141c-1.733,3.236-6.458,14.418-7.18,15.992c-0.159,0.303-0.347,0.447-0.549,0.447
	c-0.159,0-0.332-0.144-0.433-0.419c-0.174-0.534-3.164-6.717-3.222-6.717c-0.043,0-1.155,2.687-2.759,6.66
	c-0.101,0.26-0.347,0.505-0.622,0.52c-0.231,0-0.505-0.145-0.65-0.608c-0.289-0.91-1.661-3.727-3.134-6.76
	c-1.459-3.005-3.698-7.209-4.507-8.913c-0.462-0.939-0.809-1.185-1.763-1.344c-0.116-0.101-0.202-0.303-0.202-0.433
	c0-0.174,0.086-0.304,0.26-0.304c0,0,1.575,0.13,3.308,0.13c0.881,0,1.777-0.029,2.542-0.13h0.029c0.174,0,0.274,0.16,0.274,0.318
	c0,0.174-0.1,0.346-0.245,0.448c-0.722,0.072-1.026,0.26-1.026,0.607c0,0.13,0.044,0.231,0.101,0.39
	c0.997,2.586,4.118,8.465,5.779,12.106c0.072,0.174,0.145,0.274,0.231,0.274c0.231,0,1.777-4.059,1.777-4.088
	c0-0.303-3.105-6.458-3.886-7.945c-0.491-0.968-0.925-1.242-1.964-1.373c-0.13-0.101-0.188-0.245-0.188-0.405
	c0-0.159,0.086-0.303,0.216-0.303c0,0,1.647,0.101,3.424,0.101c0.882,0,1.806-0.029,2.586-0.101h0.015
	c0.159,0,0.259,0.145,0.259,0.303c0,0.16-0.071,0.332-0.231,0.434c-0.664,0.101-0.967,0.332-0.967,0.736
	c0,0.087,0.028,0.203,0.071,0.332c0.463,1.142,1.502,3.308,2.052,4.565c0.043,0.086,0.115,0.173,0.188,0.173
	c0.058,0,0.13-0.086,0.174-0.173c1.517-3.727,1.589-4.666,1.589-4.898c0-0.505-0.361-0.693-1.604-0.794
	c-0.202,0-0.274-0.145-0.274-0.288c0-0.188,0.115-0.42,0.245-0.42c0.029,0,1.228,0.13,2.629,0.13c0.679,0,1.445-0.029,2.124-0.13
	h0.029c0.159,0,0.216,0.174,0.216,0.362c0,0.202-0.057,0.434-0.216,0.448c-0.563,0.058-1.113,0.029-1.59,0.853
	c-0.491,0.852-1.589,3.784-2.557,5.836c-0.043,0.072-0.101,0.245-0.101,0.347c0,0.043,0.028,0.072,0.028,0.101
	c0.463,0.939,1.994,4.001,2.904,6.053c0.072,0.159,0.144,0.26,0.202,0.26c0.072,0,0.101-0.116,0.202-0.332
	c3.771-9.087,4.738-11.485,4.738-12.323c0-0.679-0.636-0.765-1.763-0.838c-0.101-0.101-0.173-0.274-0.173-0.434
	c0-0.173,0.086-0.332,0.245-0.332c0,0,1.185,0.13,2.644,0.13c0.736,0,1.531-0.029,2.297-0.13H466.145z"/>
<path fill="#382912" d="M478.995,311.969c-0.13,0-0.246-0.144-0.246-0.303c0-0.13,0.072-0.274,0.217-0.404
	c1.531-0.145,1.531-1.04,1.531-4.118c0-2.903,0-4.666-1.935-4.666c-1.575,0-2.571,1.04-2.672,1.777
	c-0.014,0.26-0.043,1.026-0.043,1.936c0,1.502,0.043,3.41,0.072,3.828c0.057,0.462,0.317,1.242,1.575,1.271
	c0.057,0.072,0.101,0.217,0.101,0.376c0,0.16-0.043,0.303-0.173,0.303c-0.058,0-1.676-0.173-3.38-0.173
	c-0.853,0-1.733,0.057-2.441,0.173h-0.058c-0.13,0-0.202-0.116-0.202-0.274c0-0.13,0.072-0.303,0.202-0.405
	c1.142-0.13,1.402-0.809,1.43-1.242c0.115-1.718,0.145-9.144,0.145-10.444c0-1.719-0.029-3.236-0.072-4.016
	c-0.072-0.996-0.491-1.17-1.502-1.387c-0.072-0.014-0.101-0.145-0.101-0.274c0-0.116,0.057-0.274,0.173-0.289
	c1.185-0.188,3.308-0.924,4.016-1.256c0.115-0.058,0.217-0.087,0.289-0.087c0.145,0,0.231,0.087,0.231,0.347v0.072
	c-0.101,2.268-0.159,4.882-0.174,8.725l-0.029,1.098c0,0.043,0.029,0.072,0.029,0.072c0.015,0,0.072-0.029,0.087-0.058
	c0.881-1.084,2.166-1.719,3.741-1.719c2.138,0,3.467,1.502,3.539,3.611c0.029,0.376,0.029,0.809,0.029,1.271
	c0,3.424,0,3.713,0.043,4.449c0.058,0.492,0.362,1.07,1.459,1.07c0.13,0.13,0.173,0.26,0.173,0.376c0,0.188-0.116,0.361-0.202,0.361
	c-0.014,0-1.704-0.173-3.41-0.173c-0.852,0-1.704,0.057-2.383,0.173H478.995z"/>
<path fill="#382912" d="M500.543,310.874c0.101,0,0.462-0.217,0.693-0.39c0.058-0.029,0.101-0.058,0.16-0.058
	c0.173,0,0.346,0.231,0.346,0.376c0,0.058-0.939,1.502-2.745,1.502c-0.766,0-1.661-0.26-2.037-1.242
	c-0.058-0.13-0.072-0.188-0.101-0.188c-0.029,0-0.058,0.029-0.101,0.072c-0.592,0.549-1.242,0.925-1.979,1.184
	c-0.434,0.13-0.896,0.203-1.33,0.203c-1.935,0-2.745-1.561-2.745-2.543c0-1.17,1.199-1.892,2.21-2.311
	c1.228-0.52,2.643-0.954,3.742-1.358c0.072-0.029,0.173-0.174,0.173-0.246c0.029-0.274,0.072-0.636,0.072-1.055
	c0.029-0.217,0.029-0.477,0.029-0.708c0-1.632-0.376-2.369-1.315-2.369c-1.271,0-1.358,0.997-1.358,1.59
	c-0.043,1.574-1.502,1.748-1.907,1.748c-0.65,0-1.112-0.362-1.112-0.91c0-1.185,2.34-3.279,5.373-3.279
	c2.24,0,3.265,1.213,3.265,2.976c0,0.145-0.014,0.274-0.014,0.419c-0.231,2.802-0.26,4.68-0.26,4.767c0,1.502,0.159,1.82,0.737,1.82
	H500.543z M496.729,308.822c0-0.707,0.057-1.531,0.071-1.834c0-0.072-0.014-0.101-0.071-0.101c-0.015,0-2.009,0.708-2.471,0.968
	c-0.65,0.332-0.824,0.736-0.824,1.17c0,1.199,0.722,1.733,1.387,1.733c0.896,0,1.935-0.968,1.935-1.17
	C496.729,309.386,496.729,309.126,496.729,308.822"/>
<path fill="#382912" d="M507.084,311.969c-0.116,0-0.203-0.116-0.203-0.245c0-0.159,0.101-0.39,0.231-0.462
	c1.344-0.043,1.532-0.708,1.575-1.242c0.086-1.07,0.101-5.519,0.101-7.888c0-2.167,0-4.536-0.072-6.053
	c-0.029-1.055-0.072-1.56-1.358-1.835c-0.072-0.028-0.145-0.159-0.145-0.317c0-0.145,0.072-0.289,0.217-0.318
	c1.127-0.144,2.614-0.65,4.088-1.213c0.087-0.014,0.16-0.043,0.232-0.043c0.144,0,0.216,0.086,0.216,0.303v0.13
	c-0.216,2.268-0.288,9.563-0.288,12.625c0,1.011,0,3.713,0.101,4.536c0.043,0.65,0.318,1.17,1.618,1.286
	c0.13,0.101,0.188,0.26,0.188,0.405c0,0.159-0.086,0.332-0.188,0.332c0,0-2.008-0.116-3.872-0.116c-0.924,0-1.82,0.015-2.412,0.116
	H507.084z"/>
<path fill="#382912" d="M525.235,312.341c-4.059,0-5.764-3.048-5.764-5.46c0-3.308,2.643-5.981,6.009-5.981
	c2.832,0,4.421,1.748,4.45,3.265c0,0.881-0.622,1.242-2.398,1.314c-1.344,0.072-3.222,0.174-4.521,0.174
	c-0.463,0-0.563,0-0.563,0.824c0,2.283,1.343,4.666,3.958,4.666c0.116,0,1.661,0,2.86-1.084c0.043-0.029,0.115-0.057,0.159-0.057
	c0.231,0,0.434,0.231,0.434,0.433C529.858,310.694,528.254,312.341,525.235,312.341 M523.039,304.915
	c0.938-0.202,2.137-0.433,3.178-0.534c0.477-0.043,0.505-0.534,0.505-0.607c0-0.52-0.202-2.109-1.661-2.109
	c-1.95,0-2.326,2.672-2.326,2.788c0,0.217,0.072,0.462,0.246,0.462H523.039z"/>
<path fill="#382912" d="M536.471,303.843c0-1.979,2.137-3.004,3.929-3.004c0.217,0,2.543,0.072,2.846,0.881
	c0.144,0.491,0.303,1.733,0.303,1.792c0,0.13-0.16,0.231-0.332,0.231c-0.13,0-0.231-0.043-0.274-0.145
	c-0.593-1.127-1.359-1.979-2.557-1.979c-1.416,0-1.575,0.882-1.575,1.344c0,0.824,0.52,1.213,1.444,1.748
	c1.936,1.112,3.439,2.037,3.439,4.146c0,2.268-2.052,3.438-4.089,3.438c-1.329,0-2.643-0.332-3.279-0.896
	c-0.217-0.173-0.434-0.433-0.434-2.47c0-0.174,0.145-0.231,0.274-0.231c0.16,0,0.304,0.057,0.332,0.101
	c0.636,1.561,1.647,2.731,3.106,2.731c1.141,0,1.979-0.563,1.979-1.604c0-0.968-1.04-1.517-2.037-2.152
	C536.643,306.039,536.471,304.479,536.471,303.843"/>
</svg>
