<?xml version="1.0" encoding="utf-8"?>
<!-- Generator: Adobe Illustrator 27.0.1, SVG Export Plug-In . SVG Version: 6.00 Build 0)  -->
<svg version="1.1" id="레이어_1" xmlns="http://www.w3.org/2000/svg" xmlns:xlink="http://www.w3.org/1999/xlink" x="0px"
	 y="0px" viewBox="0 0 720 400.256" enable-background="new 0 0 720 400.256" xml:space="preserve">
<path d="M190.192,234.67h-3.74c-2.335,15.87-15.249,33.636-24.095,33.636c-8.865,0-21.779-17.766-24.114-33.636h-3.74
	c-2.152,15.742-12.932,33.636-23.786,33.636c-9.612,0-21.706-17.766-24.041-33.636h-3.738c-2.153,15.742-12.167,30.262-23.84,33.636
	v3.593c11.673,3.393,21.687,18.022,23.84,33.708h3.738c2.517-15.686,14.683-33.708,24.041-33.708
	c10.288,0,21.634,18.022,23.786,33.708h3.74c2.498-15.686,14.757-33.708,24.114-33.708s21.596,18.022,24.095,33.708h3.74
	c2.152-15.686,12.166-30.315,23.858-33.708v-3.593C202.358,264.932,192.344,250.412,190.192,234.67"/>
<path d="M52.021,271.826l-0.037-3.575c-11.674-3.355-21.688-17.875-23.859-33.616h-3.721c-2.517,15.741-12.294,30.261-24.095,33.616
	v3.612c2.937,0.857,5.8,2.299,8.354,4.469c12.658,10.744-2.499,84.361,44.907,123.925l1.077-2.9
	C4.65,347.56,28.655,275.019,52.021,271.826"/>
<path d="M241.812,213.476c-10.379,0-21.688-18.149-23.84-33.891h-3.74c-2.335,15.869-15.158,33.58-24.023,33.58l-52.641-0.018
	c-8.427,0-11.218,0.146-11.218-11.966v-8.026h61.962v-3.721c-12.238-3.502-22.563-18.77-25.025-35.077h-3.849
	c-2.482,16.307-14.903,35.058-25.045,35.058h-8.044v-56.07h37.356c0.602,18.441,5.217,26.995,16.946,35.076l33.069-37.593
	l-2.006-4.068c-1.751,2.499-5.017,5.946-7.77,5.946c-4.762,0-8.774-4.121-8.774-15.084l-0.109-48.757
	c0-12.349,22.745-8.5,22.745,4.451c0,12.057-7.552,12.495-10.724,12.495l0.438,2.682c3.137,0,12.531-0.42,13.424-15.651
	c0.894-15.194-14.775-19.663-14.775-19.663c-12.238-3.502-22.508-18.751-24.952-35.076h-3.849
	c-2.48,16.324-15.121,35.093-25.044,35.093h-14.738c-9.979,0-22.582-18.769-25.045-35.093h-3.83
	c-2.482,16.324-14.885,35.093-25.045,35.093H57.876c-0.62-18.459-5.235-27.013-16.944-35.076L7.843,55.697l2.006,4.068
	c1.751-2.499,5.017-5.946,7.771-5.946c4.76,0,8.774,4.121,8.774,15.102l0.091,48.739c0,12.112-2.719,11.947-11.163,11.947v3.74
	c12.257,3.502,22.581,18.751,25.044,35.076h3.83c2.482-16.324,15.34-35.076,25.063-35.076h25.537v56.07H22.217v3.703l72.578,0.019
	v7.898c0,13.498-4.888,12.112-11.127,12.112H0v3.721h83.668c9.65,0,22.563,18.769,25.045,35.095h3.83
	c2.463-16.325,14.246-35.095,25.026-35.095l52.641-0.037c9.357,0,21.506,18.003,24.023,33.691h3.74
	c2.152-15.688,14.154-33.928,23.84-33.928l62.418-0.018l-0.019,30.461h-29.476v3.102l29.476-0.037l-0.018,41.259
	c0,11.091-4.086,9.868-9.284,9.868v3.065c15.96,0,18.587,42.025,20.611,55.432h3.156c2.024-13.407,4.76-55.432,20.575-55.432v-3.065
	c-6.931,0-9.138,0.146-9.138-9.813l0.018-41.333l40.877-0.036l0.018-3.01c-9.449-2.7-17.566-14.464-19.28-27.178H348.7
	c-2.025,12.221-11.363,25.992-18.569,27.087l0.018-30.37h31.848c4.743,4.56,10.178,7.934,15.066,10.306v8.427
	c0.638,18.168-0.237,43.285-4.232,58.552c-6.968,26.704-21.688,62.364-36.718,73.016l2.663,1.733
	c12.094-6.037,61.889-69.878,64.169-129.488c8.062,6.584,14.318,16.435,16.143,29.658v3.101c0,2.499-4.743,5.673-8.482,6.694v3.028
	c9.74,2.754,17.985,14.866,19.955,27.889l2.882-0.037c2.846-12.495,7.041-26.685,14.374-38.852
	c7.332-12.238,14.81-30.552,33.288-30.552c18.971,0,32.359,9.85,30.206,31.1c-2.335,23.038-24.441,30.552-41.551,29.932l0.09,2.535
	c19.572,0,44.269-7.113,46.331-34.875c2.08-27.998-15.431-42.409-41.917-41.478c-11.783,0.42-21.413,5.892-29.312,13.224
	l-0.072-86.586c0-12.331,20.83-5.691,20.83,7.259c0,12.057-7.569,12.368-10.743,12.368v3.046l130.217-0.037l0.019,12.914
	c-13.552-1.879-25.901,0.073-32.231,2.991c-11.09,5.126-16.435,15.669-16.435,28.309c0,2.827,0.183,5.435,0.529,8.281h1.916
	l-0.346-4.36c0-5.235,2.389-8.39,6.092-11.016c6.603-4.688,24.223-3.831,41.259,1.969c2.208,43.85,6.622,118.106,10.926,147.199
	h2.007c4.249-30.607,8.409-91.512,10.78-134.777l2.444,2.024c1.314,1.295,8.609,8.263,11.2,11.145
	c3.301-9.376,5.398-14.154,14.281-19.371c13.772-7.862,17.602-8.938,17.602-22.017V179.44l-0.109-2.882h8.263
	c7.515,0,17.327,14.574,19.426,27.288h3.064c0.694-5.198,2.718-10.105,4.98-14.574c5.271-10.469,25.974-8.481,25.974,4.469
	c0,12.057-7.552,12.495-10.726,12.495l0.438,2.682c3.137,0,12.531-0.42,13.425-15.651c0.894-15.194-14.811-19.626-14.811-19.626
	c-9.449-2.718-17.583-14.446-19.28-27.16h-3.064c-2.099,12.714-12.294,27.142-19.426,27.142h-8.391
	c-0.62-8.336-2.572-16.891-5.892-23.859l21.743-24.715l-1.66-3.32c-1.423,2.043-4.086,4.871-6.385,4.871
	c-3.866,0-7.169-3.393-7.169-12.385l-0.055-3.922c0-9.958,2.208-9.813,9.139-9.813v-3.065
	c-10.051-2.863-18.569-15.395-20.575-28.801h-3.156c-2.024,13.406-12.786,28.783-20.593,28.783h-9.285V63.414h36.535
	c7.516,0,17.328,14.592,19.426,27.305h3.065c1.696-12.713,9.832-24.515,19.28-27.287v-2.919
	c-9.449-2.699-17.585-14.446-19.28-27.159h-3.065c-2.097,12.713-12.294,27.123-19.426,27.123h-36.663
	c-11.764-0.11-22.07-14.739-22.07-27.488c0-3.392,0.838-6.53,3.958-6.53c14.556,0,14.428,18.33,27.215,18.33
	c19.426,0,19.098-24.879,15.686-33.361c-5.672-14.154-14.701-11.583-17.693-10.58l0.455,2.682c3.01-1.003,10.306-2.991,14.119,8.445
	c1.458,4.341-0.657,12.112-6.33,12.112c-4.797,0-9.849-17.256-24.058-17.256c-13.571,0-17.748,20.868-17.748,34.183
	c0,6.53,0.639,12.878,0.639,19.408v0.055l-70.791-0.019v2.956h70.791l0.018,33.963h-15.286c-0.438-15.34-4.195-22.473-13.881-29.148
	l-27.178,30.863l1.66,3.32c1.423-2.043,4.086-4.871,6.384-4.871c3.868,0,7.169,3.392,7.169,12.385l0.055,3.921
	c0,9.96-2.207,9.814-9.138,9.814v3.064c10.069,2.882,18.569,15.395,20.575,28.802h3.156c2.024-13.407,13.004-28.802,20.629-28.802
	h5.855l0.018,28.838H528.64v3.083h56.544v14.957l-121.243-0.018c2.444-2.225,4.506-6.111,4.906-12.896
	c0.894-15.193-14.81-19.644-14.81-19.644c-10.051-2.882-18.551-15.377-20.576-28.783h-3.155
	c-2.006,13.406-12.805,28.764-20.612,28.764h-6.64V98.598c0-9.958,2.225-9.813,9.139-9.813v-3.065
	c-10.051-2.882-18.551-15.395-20.557-28.801h-3.174c-2.006,13.406-10.506,25.919-20.593,28.801v3.065
	c5.18,0,9.266-1.222,9.266,9.886l-0.019,42.335l-19.226-0.018c-2.59-4.377-4.487-9.485-5.198-14.811h-3.046
	c-2.097,12.677-12.075,27.069-19.371,27.16v-30.079l41.68-0.055l0.018-2.991c-9.449-2.718-17.566-14.464-19.28-27.178h-3.046
	c-2.097,12.659-12.075,27.051-19.371,27.16l0.018-21.724c0-8.993,3.284-12.385,7.151-12.385c2.317,0,4.98,2.827,6.403,4.87
	l1.66-3.338L318.33,56.755c-10.088,6.95-13.79,14.319-13.954,31.009l-0.019,32.449h-29.641v3.083l29.641-0.018l-0.018,30.078
	h-29.623v3.083l97.24-0.091l0.018-2.991c-4.523-1.295-8.719-4.706-12.075-9.266h17.218l-0.018,20.009l-0.328-0.018
	c-11.583,0-21.943,4.341-25.555,15.449c-6.111-5.107-10.78-13.844-12.075-23.11h-3.028c-1.86,12.786-12.312,27.141-19.463,27.141
	c-7.15,0-17.583-14.355-19.481-27.141h-2.973c-1.806,12.676-9.887,24.441-19.335,27.141v2.918
	c9.393,2.719,17.419,14.428,19.279,26.996H241.812 M579.312,123.642c-5.199,0-9.303,1.241-9.303-9.849l-0.055-13.334h15.212v23.183
	H579.312z M126.351,68.903c0-12.129,2.791-11.984,11.237-11.984h14.738c6.238,0,11.218-1.477,11.218,12.038l0.037,22.217h-37.229
	V68.903z M126.351,94.896h37.229l0.055,34.748h-37.283V94.896z M94.795,129.625H69.258c-6.238,0-11.235,1.46-11.235-12.038
	l-0.019-22.691h36.791V129.625z M94.795,91.175H57.986L57.932,56.92h25.736c6.239,0,11.127-1.386,11.127,12.129V91.175z
	 M297.208,213.476c2.115-12.605,11.929-26.996,19.444-26.996s17.311,14.392,19.408,26.996H297.208z M339.197,213.476
	c1.24-8.537,5.363-16.599,10.817-21.797c0.638,8.955,4.195,16.161,9.047,21.797H339.197z M377.081,193.047
	c-6.401-4.287-10.852-9.577-10.962-16.18c-0.091-5.454,3.976-7.643,10.98-8.008L377.081,193.047z M403.056,204.94v-60.85l6.64,0.018
	c5.198,0,9.284-1.221,9.284,9.886l0.056,61.817C414.51,211.671,409.221,207.968,403.056,204.94z M620.39,100.478
	c5.198,0,9.266-1.222,9.266,9.886l0.055,13.278h-18.587l-0.019-23.164H620.39z M629.09,214.425
	c-4.888-5.654-10.069-10.835-15.686-14.593l-2.262-1.386l-0.018-21.906h17.966V214.425z M611.124,158.645h10.67
	c5.436,0.019,7.114,6.148,7.26,14.957h-17.93V158.645z M625.752,155.563h-14.629v-28.838h18.659c0.274,9.54,1.825,15.96,5.29,20.995
	L625.752,155.563z"/>
</svg>
