<?xml version="1.0" encoding="utf-8"?>
<!-- Generator: Adobe Illustrator 27.1.1, SVG Export Plug-In . SVG Version: 6.00 Build 0)  -->
<svg version="1.1" id="레이어_1" xmlns="http://www.w3.org/2000/svg" xmlns:xlink="http://www.w3.org/1999/xlink" x="0px"
	 y="0px" viewBox="0 0 720 298.633" enable-background="new 0 0 720 298.633" xml:space="preserve">
<path d="M191.227,210.598l-0.532-0.429l-20.318,11.917l0.943,1.011c4.064,4.201,16.683,17.969,25.565,34.978l-37.293,13.751
	l41.288-5.247l23.593-18.689l-0.463-0.806C217.22,234.706,202.646,219.84,191.227,210.598"/>
<path d="M165.042,226.769l-7.973,20.987c-3.926-11.608-9.19-24.296-13.751-33.075l-0.325-0.651l-23.593,3.086l0.532,1.303
	c5.247,12.877,10.648,31.566,13.46,46.484l0.171,0.994l27.314-4.201L165.042,226.769z"/>
<path d="M49.484,221.434c0.171-0.445,0.377-0.84,0.6-1.2l0.737-1.081l-1.149-0.514c-7.39-3.36-17.42-6.841-21.399-8.179
	l-0.943-0.309l-0.325,0.96C22.924,223.286,13.7,242.524,1.08,256.704L0,257.922l1.526,0.532c7.27,2.469,17.129,6.224,22.736,10.013
	l0.703,0.463l39.848-46.466l-22.581,16.734C44.717,233.66,47.152,227.71,49.484,221.434"/>
<path d="M96.733,215.773l-0.172-0.891l-25.153,1.234l0.154,1.166c1.132,8.367,1.766,18.655,1.766,28.942
	c0,5.967-0.223,11.968-0.634,17.849l-0.069,1.183l27.399-0.995l13.254-42.059l-13.305,22.119
	C99.425,233.657,98.259,223.403,96.733,215.773"/>
<path d="M229.317,177.273h-99.173c-2.143,0-3.892-2.435-3.892-5.418v-9.225l75.271-9.31c-2.726-3.172-6.567-8.144-8.556-13.22
	c-1.252-3.207-1.92-6.241-2.263-8.779h-60.56c-2.143,0-3.892-2.418-3.892-5.418v-10.596c0-2.983,1.749-5.418,3.892-5.418h31.652
	l17.472-18.312h-49.123c-2.143,0-3.892-2.417-3.892-5.401v-15.86c0-2.966,1.749-5.401,3.892-5.401h47.134
	c2.126,0,3.875,2.435,3.875,5.401v15.86c0,0.223-0.017,0.446-0.069,0.789L180.759,90L205.741,63.8V0H71.024L50.157,21.878h46.637
	c2.143,0,3.893,2.418,3.893,5.401v14.883c0,2.984-1.749,5.418-3.893,5.418H52.129c-2.143,0-3.893-2.435-3.893-5.418V27.279
	c0-0.223,0.035-0.429,0.069-0.754l0.309-3.035L24.387,48.9v66.167h23.799l0.137-0.892c0.377-2.487,1.972-4.287,3.807-4.287h44.665
	c2.143,0,3.893,2.435,3.893,5.418v10.596c0,3-1.749,5.418-3.893,5.418H50.037l-20.867,21.861h67.624
	c2.143,0,3.893,2.435,3.893,5.418v2.743l-60.629,11.951l60.629-7.493v6.053c0,2.984-1.749,5.418-3.893,5.418H3.863v24.142h202.443
	L229.317,177.273z M127.606,154.538c0.086-0.12,0.189-0.206,0.291-0.309c0.069-0.069,0.137-0.137,0.206-0.206
	c0.257-0.223,0.531-0.394,0.823-0.531c0.069-0.035,0.154-0.069,0.223-0.086c0.326-0.137,0.652-0.223,0.995-0.223h4.509h8.076
	l-16.101,3.155c0.223-0.72,0.6-1.303,1.029-1.817L127.606,154.538z M126.252,27.279c0-2.983,1.749-5.401,3.892-5.401h47.134
	c2.126,0,3.875,2.418,3.875,5.401v14.883c0,2.984-1.749,5.418-3.875,5.418h-47.134c-2.143,0-3.892-2.435-3.892-5.418V27.279z
	 M100.687,86.176c0,2.984-1.749,5.401-3.893,5.401H52.129c-2.143,0-3.893-2.417-3.893-5.401v-15.86c0-2.966,1.749-5.401,3.893-5.401
	h44.665c2.143,0,3.893,2.435,3.893,5.401V86.176z"/>
<path d="M238.209,173.234c9.362-1.543,24.313-5.59,35.133-16.066c9.756-9.447,15.123-21.844,15.123-34.892
	c0-21.518-15.809-43.294-46.02-43.294c-39.11,0-52.261,36.298-52.261,52.879c0,5.058,1.046,9.465,2.932,12.43
	c1.2,1.886,2.298,3.978,3.361,6.001c3.137,5.933,6.104,11.539,10.99,11.539c12.654,0,32.783-31.669,32.783-58.005
	c0-8.487-2.126-15.98-5.435-19.049c-0.48-0.446-0.651-1.115-0.446-1.715c0.206-0.6,0.755-1.046,1.389-1.115
	c1.286-0.154,2.675-0.154,3.893-0.154h1.475c21.192,0,37.807,17.592,37.807,40.07c0,10.613-3.738,21.261-10.802,30.811
	C261.527,161.437,248.582,169.461,238.209,173.234 M236.546,95.51c0,19.804-16.22,53.376-28.548,53.376
	c-5.967,0-12.911-10.048-12.911-23.01c0-15.534,10.305-35.475,32.955-42.471c0.154-0.051,0.325-0.086,0.497-0.086
	c0.24,0,0.566-0.051,0.892-0.171c0.669-0.24,1.166-0.24,1.492-0.24C235.568,82.908,236.546,89.766,236.546,95.51"/>
<path d="M639.294,141.438H720V118.84l-53.17-48.232l38.63,47.769h-66.166c-1.527,0-2.761-1.663-2.761-3.704V66.818
	c0-0.292,0-7.476,0.411-14.626c0.051-1.029,0.446-1.989,1.045-2.64l1.955-2.04l-2.709-0.24c-6.807-0.6-16.545-1.063-20.421-1.234
	l-1.354-0.069l0.068,1.457c0.326,8.35,0.326,16.546,0.326,16.889v50.358c0,2.04-1.235,3.704-2.761,3.704h-71.654v23.062h71.654
	c1.526,0,2.761,1.663,2.761,3.704v73.934c0,2.041-1.235,3.704-2.761,3.704h-58.125v0.017c-0.206-0.566-0.309-2.349-0.309-2.966
	v-40.413l-17.181-17.197L520.3,145.09c-0.617-0.394-1.097-0.96-1.406-1.663c-0.617-1.355-0.583-3.035,0.069-4.372
	c3.292-6.841,6.344-13.82,8.898-19.735c0.309-0.669,0.737-1.234,1.252-1.612l0.806-0.583l-0.721-0.686
	c-3.086-2.966-8.161-6.739-10.613-8.367l-0.48-0.325l-0.48,0.36c-0.497,0.377-1.252,0.874-2.212,0.874h-20.987
	c-1.012,0-1.972-0.634-2.572-1.732c-0.652-1.166-0.789-2.658-0.395-3.995c0.343-1.115,0.72-2.161,1.115-3.224l0.12-0.291
	c0.275-0.755,0.549-1.492,0.772-2.28c0.12-0.411,0.291-0.789,0.48-1.115l0.514-0.874l-18.038-6.516l-0.257,0.857
	c-6.207,21.964-16.889,44.529-29.268,61.915c-0.84,1.2-2.195,1.646-3.361,1.097c-1.252-0.617-2.109-2.212-2.109-3.961v-33.983
	h-28.789l-18.277,18.278h-86.297l-19.769,19.769h2.006c19.649-0.051,83.398-0.223,83.638-0.223c0.686,0,1.372,0.343,1.886,0.995
	c0.566,0.72,0.874,1.68,0.874,2.692v28.428l17.66-17.66v93.806h16.666v-16.94c0-2.332,1.423-4.218,3.172-4.218h8.402
	c1.749,0,3.172,1.886,3.172,4.218v8.127h15.654v-3.601c0-2.315,1.423-4.201,3.172-4.201h38.013c1.183,0,2.298,0.909,2.846,2.332
	c0.566,1.526,0.395,3.326-0.446,4.612c-10.39,15.894-30.297,24.296-60.868,25.685l-1.801,0.086l1.234,1.32
	c5.521,5.915,12.757,14.145,15.912,19.769l0.274,0.48l0.549-0.069c7.03-0.909,42.916-6.996,60.354-38.39
	c0.583-1.046,1.509-1.697,2.538-1.731c0.977,0,1.869,0.566,2.469,1.56c18.277,29.834,41.099,34.669,45.488,35.338l0.548,0.086
	l0.292-0.463c3.258-5.35,9.739-13.426,14.591-19.255l0.995-1.183l-1.544-0.172c-19.478-2.109-35.235-9.979-45.574-22.736
	c-0.994-1.2-1.286-3.103-0.771-4.715c0.497-1.56,1.646-2.555,2.915-2.555h32.355h10.287h116.508l21.552-21.57h-64.023
	c-1.527,0-2.761-1.663-2.761-3.704v-73.934C636.533,143.101,637.767,141.438,639.294,141.438 M425.774,213.297
	c0,2.314-1.423,4.201-3.172,4.201H414.2c-1.749,0-3.172-1.886-3.172-4.201v-73.163c0-2.314,1.423-4.201,3.172-4.201h8.402
	c1.749,0,3.172,1.886,3.172,4.201V213.297z M475.583,138.952l1.097-2.109c1.475-2.898,3.018-5.881,4.406-9.002
	c0.566-1.286,1.612-2.092,2.726-2.092h18.398c1.081,0,2.058,0.737,2.675,1.938c0.617,1.269,0.669,2.881,0.137,4.218
	c-1.268,3.206-3.292,7.321-5.864,11.899c-0.583,1.063-1.543,1.697-2.538,1.697h-18.415c-1.115,0-2.177-0.806-2.743-2.109
	C474.863,141.986,474.914,140.289,475.583,138.952 M471.451,166.231c0-2.314,1.406-4.201,3.172-4.201h8.196
	c1.749,0,3.172,1.886,3.172,4.201c0,10.922-0.926,18.038-8.984,30.4c-0.84,1.286-2.212,1.801-3.395,1.252
	c-1.303-0.583-2.16-2.177-2.16-3.978V166.231z M455.179,219.83c0,2.332-1.423,4.201-3.172,4.201H444.6
	c-1.749,0-3.172-1.869-3.172-4.201v-45.54c0-1.406,0.548-2.726,1.44-3.515c0.532-0.446,1.132-0.686,1.732-0.686
	c0.36,0,0.72,0.086,1.063,0.24c3.635,1.715,6.378,3.36,7.681,4.183c1.115,0.703,1.835,2.195,1.835,3.807V219.83z M538.201,219.47
	l-20.37-4.681l17.969,9.122c-0.24,0.086-0.48,0.12-0.772,0.12h-20.609c-1.749,0-3.172-1.869-3.172-4.201v-6.944
	c0-0.84,0.189-1.663,0.566-2.366l0.566-1.115l-1.234-0.103c-2.058-0.154-14.009-1.149-16.409-1.355l-0.96-0.086l0.051,0.96
	c0.103,1.955,0.154,3.875,0.154,5.83v5.178c0,2.332-1.423,4.201-3.172,4.201h-16.186c-1.766,0-3.172-1.869-3.172-4.201v-14.094
	c0-1.372,0.497-2.658,1.371-3.447c0.789-0.737,1.783-0.96,2.692-0.583c1.937,0.772,5.435,1.972,8.659,3.961l0.651,0.394l0.463-0.617
	c1.767-2.383,6.19-5.761,10.751-14.232c4.561-8.47,10.905-26.182,10.905-26.182l-9.825,16.014c0.361-3.875,0.532-7.853,0.532-12.036
	v-2.778c0-2.314,1.423-4.201,3.172-4.201h6.396c1.749,0,3.172,1.886,3.172,4.201v19.856c0,14.814,7.938,17.712,21.638,17.712h3
	c1.749,0,3.172,1.886,3.172,4.201V219.47z M538.201,187.286c0,2.315-1.423,4.218-3.172,4.218c-4.938,0-11.711,0-12.362-9.893
	c0-0.12,0-0.24,0-0.377c0-1.937,0-5.504,0.188-15.105c0.051-2.264,1.475-4.098,3.172-4.098h8.968l2.348,0.189l0.686,2.743
	c0.119,0.48,0.172,0.874,0.172,1.268V187.286z"/>
<path d="M333.016,50.383c0.291-1.68,1.423-2.897,2.709-2.897h48.214c0.721,0,1.441,0.394,1.955,1.115
	c0.651,0.874,0.789,2.075,0.789,2.915c0,43.791-6.601,53.787-25.17,56.565l-30.195-38.099l30.555,58.742l0.532-0.034
	c20.575-1.183,32.012-10.682,37.104-30.811c3.481-13.786,6.43-43.242,6.978-68.31l0.035-1.371l-135.06,0.206l-19.615,19.323h59.874
	c0.806,0,1.577,0.48,2.109,1.321c0.583,0.908,0.789,2.091,0.583,3.241c-6.052,33.332-26.697,51.798-69.047,61.777l-2.349,0.566
	l1.801,1.732c4.595,4.475,10.699,10.785,13.631,15.465l0.498,0.789l0.874-0.257C315.407,115.333,328.146,79.6,333.016,50.383"/>
<path d="M281.417,186.88v-27.073l-17.455,17.472v45.952h17.66v-8.899c0-2.04,1.234-3.704,2.777-3.704h66.492l20.044-20.044h-86.742
	C282.669,190.584,281.417,188.921,281.417,186.88"/>
</svg>
