<?xml version="1.0" encoding="utf-8"?>
<!-- Generator: Adobe Illustrator 27.2.0, SVG Export Plug-In . SVG Version: 6.00 Build 0)  -->
<svg version="1.1" id="레이어_1" xmlns="http://www.w3.org/2000/svg" xmlns:xlink="http://www.w3.org/1999/xlink" x="0px"
	 y="0px" viewBox="0 0 720 272.508" enable-background="new 0 0 720 272.508" xml:space="preserve">
<path fill-rule="evenodd" clip-rule="evenodd" d="M51.535,56.056c0-0.629,0.071-0.975,0-1.287c-0.743-3.189-1.513-6.371-2.447-9.503
	c-0.382-1.301-0.665-2.645-0.87-3.981c-0.212-1.407-0.537-2.765-1.018-4.094c-0.94-2.609-1.888-5.211-2.793-7.827
	c-0.509-1.478-0.919-2.984-1.379-4.476c-1.089-3.543-2.8-6.788-4.681-9.956c-0.764-1.301-1.428-2.658-2.15-3.981
	c-0.41-0.75-0.792-1.534-1.294-2.22c-1.393-1.923-1.549-4.101-1.372-6.349c0.064-0.792,0.474-1.429,1.117-1.895
	c0.764-0.552,1.584-0.658,2.418-0.198c0.431,0.233,0.841,0.544,1.195,0.898c0.686,0.693,1.471,1.223,2.348,1.626
	c2.659,1.216,5.275,2.517,8.068,3.408c4.037,1.294,7.898,3.012,11.745,4.787c1.874,0.863,3.783,1.655,5.699,2.425
	c2.715,1.096,5.239,2.581,7.757,4.052c0.643,0.382,1.223,0.891,1.789,1.386c1.831,1.577,3.585,3.253,5.48,4.745
	c2.348,1.838,4.525,3.854,6.682,5.897c3.005,2.842,5.848,5.826,8.174,9.277c0.643,0.955,1.386,1.852,2.128,2.744
	c2.015,2.418,0.856,4.624-0.948,5.805c-0.417,0.276-0.848,0.537-1.294,0.778c-1.633,0.898-2.432,2.355-2.708,4.137
	c-0.085,0.544-0.106,1.103-0.113,1.655c-0.014,2.065-0.007,4.129-0.021,6.194c-0.007,0.82,0.177,1.591,0.516,2.34
	c0.863,1.874,1.683,3.769,2.567,5.635c0.834,1.775,2.1,3.005,4.115,3.458c1.068,0.24,2.121,0.658,3.09,1.174
	c3.224,1.697,6.583,3.026,10.041,4.144c1.584,0.509,3.154,1.039,4.73,1.584c2.623,0.905,5.133,2.086,7.552,3.429
	c2.743,1.52,5.565,2.85,8.45,4.045c1.393,0.573,2.729,1.265,3.988,2.121c1.831,1.252,3.634,2.539,5.324,3.981
	c1.619,1.386,2.977,2.998,4.327,4.624c1.167,1.407,1.018,2.948-0.382,4.13c-0.566,0.481-1.259,0.848-1.952,1.11
	c-1.98,0.75-3.988,1.421-5.982,2.107c-1.336,0.467-2.715,0.743-4.115,0.955c-1.393,0.205-2.786,0.474-4.151,0.806
	c-1.336,0.325-2.673,0.495-4.037,0.502c-4.179,0.021-8.365,0.042-12.544,0.05c-4.582,0-9.164-0.014-13.746-0.021
	c-0.205,0-0.403,0-0.608,0.014c-0.608,0.035-1.061,0.318-1.287,0.884c-0.495,1.224-0.969,2.447-0.976,3.79
	c-0.007,3.274-0.028,6.54,0.021,9.814c0.014,0.792,0.212,1.605,0.474,2.355c0.587,1.683,0.94,3.394,0.884,5.183
	c-0.014,0.247-0.007,0.502,0.021,0.757c0.12,1.053,0.502,1.563,1.563,1.739c1.188,0.198,2.192,0.757,3.104,1.471
	c1.846,1.435,3.875,2.517,5.982,3.507c1.959,0.919,3.854,1.959,5.6,3.274c0.594,0.445,1.301,0.757,1.966,1.103
	c0.941,0.488,1.902,0.926,2.821,1.45c1.011,0.566,2.022,1.11,3.147,1.457c1.188,0.361,2.058,1.11,2.192,2.418
	c0.141,1.33-0.481,2.355-1.584,3.048c-0.453,0.29-1.011,0.438-1.527,0.615c-0.523,0.17-1.089,0.24-1.584,0.467
	c-1.061,0.481-2.135,0.884-3.295,1.068c-0.438,0.07-0.863,0.283-1.259,0.481c-1.202,0.594-2.468,0.855-3.804,0.841
	c-1.506-0.021-3.019,0.007-4.532,0c-1.068,0-2.107,0.135-3.118,0.481c-0.622,0.205-1.266,0.34-1.902,0.488
	c-0.785,0.184-1.35,0.637-1.69,1.372c-0.325,0.686-0.721,1.33-1.004,2.03c-0.205,0.502-0.325,1.053-0.389,1.591
	c-0.071,0.601-0.035,1.209-0.028,1.81c0,1.174-0.177,2.312-0.594,3.408c-0.481,1.28-0.771,2.602-0.926,3.96
	c-0.092,0.848-0.29,1.69-0.509,2.51c-0.382,1.471-0.658,2.955-0.735,4.469c-0.099,1.824-0.417,3.592-0.933,5.345
	c-0.24,0.813-0.396,1.668-0.467,2.517c-0.156,1.768-0.53,3.486-0.969,5.19c-0.615,2.39-1.202,4.787-1.831,7.17
	c-0.198,0.728-0.481,1.435-0.792,2.114c-0.29,0.657-0.778,1.181-1.372,1.584c-1.266,0.855-2.616,0.749-3.712-0.318
	c-0.354-0.347-0.665-0.757-0.94-1.173c-0.771-1.181-1.492-2.397-1.98-3.734c-0.672-1.838-1.343-3.691-2.008-5.529
	c-0.806-2.227-1.598-4.462-2.418-6.675c-0.41-1.096-0.714-2.199-0.891-3.352c-0.149-0.997-0.332-1.987-0.587-2.963
	c-0.382-1.513-0.693-3.04-0.771-4.61c-0.078-1.52-0.347-2.998-0.841-4.44c-0.226-0.665-0.361-1.358-0.559-2.037
	c-0.636-2.206-2.326-2.899-4.32-1.761c-0.608,0.354-1.174,0.785-1.768,1.167c-0.997,0.665-2.086,0.968-3.288,0.926
	c-1.435-0.05-2.553-0.672-3.118-2.008c-0.714-1.676-1.711-3.189-2.637-4.737c-0.615-1.032-1.075-2.164-1.584-3.253
	c-0.24-0.502-0.389-1.047-0.657-1.527c-1.803-3.147-3.705-6.229-5.932-9.107c-1.096-1.414-2.383-2.588-3.854-3.578
	c-0.962-0.643-1.959-1.237-2.927-1.874c-1.138-0.742-2.256-1.513-3.387-2.277c-1.817-1.237-3.189-2.899-4.412-4.709
	c-1.527-2.263-2.736-4.695-3.769-7.219c-0.205-0.502-0.318-1.068-0.339-1.612c-0.078-1.803,1.945-3.444,3.797-2.418
	c1.732,0.955,3.627,1.188,5.537,1.322c1.909,0.142,3.825,0.127,5.734,0.198c1.11,0.042,2.213,0.092,3.316,0.177
	c0.658,0.05,1.308,0.135,1.944,0.297c1.796,0.46,3.585,0.983,5.381,1.45c1.655,0.424,3.316,0.863,4.999,1.167
	c1.838,0.332,3.641,0.778,5.437,1.287c0.431,0.12,0.877,0.198,1.329,0.248c0.304,0.035,0.566-0.255,0.594-0.558
	c0-0.057,0.021-0.106,0.007-0.149c-0.339-1.676-0.382-3.415-1.216-4.964c-1.534-2.821-2.135-5.961-3.026-9.001
	c-0.17-0.573-0.148-1.195-0.219-1.796c-0.106-0.905-0.311-1.181-1.167-1.315c-4.073-0.615-7.665-2.39-11.08-4.596
	c-1.011-0.65-2.036-1.294-3.083-1.902c-1.669-0.976-3.161-2.15-4.469-3.571c-1.11-1.216-1.492-1.273-2.814-0.325
	c-1.548,1.11-3.154,2.157-4.497,3.557c-1.046,1.096-2.072,2.185-2.807,3.528c-0.311,0.559-0.75,1.082-1.223,1.527
	c-1.124,1.047-2.475,1.089-3.705,0.148c-0.396-0.297-0.735-0.678-1.075-1.053c-1.994-2.213-4.144-4.257-6.491-6.095
	c-1.57-1.23-2.765-2.786-3.988-4.313c-1.103-1.379-2.15-2.793-3.189-4.221c-1.336-1.832-2.468-3.804-3.316-5.919
	c-0.375-0.926-0.665-1.895-0.905-2.871c-0.629-2.595-1.181-5.204-1.817-7.792c-0.502-2.008-0.997-4.002-1.089-6.088
	c-0.035-0.948-0.17-1.916-0.403-2.835c-0.622-2.489-1.146-5.006-2.065-7.417c-0.431-1.132-0.799-2.284-1.153-3.437
	c-0.184-0.573-0.361-1.167-0.424-1.76c-0.24-2.468-0.898-4.851-1.577-7.227c-0.714-2.517-1.329-5.063-1.803-7.637
	c-0.212-1.16-0.58-2.241-1.16-3.252c-0.679-1.188-1.188-2.44-1.506-3.776c-0.191-0.778-0.474-1.542-0.75-2.298
	c-0.608-1.711-0.078-3.175,0.976-4.504c0.82-1.032,1.945-1.258,3.104-0.65c0.53,0.276,1.011,0.658,1.499,1.011
	c3.606,2.588,6.972,5.466,10.232,8.471c1.902,1.747,4.037,3.182,6.3,4.405c1.563,0.842,3.019,1.81,4.349,2.984
	c2.546,2.234,5.324,4.129,8.195,5.919c5.134,3.203,10.21,6.477,15.309,9.722C50.545,55.526,50.898,55.703,51.535,56.056"/>
<path fill-rule="evenodd" clip-rule="evenodd" d="M187.035,51.989c0.255-0.495-0.092-0.7-0.325-0.933
	c-1.817-1.824-3.684-3.585-5.43-5.466c-2.171-2.319-4.264-4.702-6.328-7.113c-1.916-2.235-3.38-4.759-4.299-7.566
	c-0.29-0.877-0.643-1.697-1.273-2.383c-0.134-0.148-0.233-0.325-0.346-0.495c-0.552-0.863-0.509-1.733,0.106-2.532
	c0.622-0.799,1.386-1.463,2.277-1.958c0.686-0.382,1.45-0.46,2.199-0.262c0.672,0.177,1.343,0.417,1.98,0.722
	c1.725,0.841,3.521,1.442,5.402,1.867c1.619,0.361,3.189,0.94,4.752,1.492c1.633,0.573,3.309,0.955,5.02,1.004
	c3.592,0.099,7.106,0.622,10.613,1.372c2.036,0.431,4.002,0.99,5.932,1.74c1.167,0.452,2.376,0.82,3.557,1.258
	c2.786,1.053,5.402,2.447,8.004,3.882c0.219,0.12,0.417,0.276,0.608,0.445c1.598,1.379,3.203,2.758,4.78,4.172
	c2.574,2.312,2.878,5.169,1.86,8.287c-0.24,0.764-0.636,1.485-1.018,2.192c-0.806,1.492-1.273,3.054-1.195,4.765
	c0.042,1.011,0.007,2.015,0.014,3.027c0.007,0.919,0.255,1.782,0.622,2.623c0.566,1.308,1.556,2.121,2.92,2.376
	c1.11,0.205,2.143,0.53,3.076,1.174c0.085,0.05,0.177,0.099,0.269,0.134c1.372,0.495,2.743,0.997,4.108,1.499
	c0.99,0.36,1.98,0.735,2.963,1.103c1.181,0.438,2.348,0.912,3.542,1.322c0.516,0.177,1.075,0.297,1.619,0.311
	c1.541,0.035,2.984,0.453,4.412,0.94c0.389,0.135,0.764,0.283,1.16,0.347c1.959,0.347,3.726,1.209,5.501,2.05
	c1.548,0.728,3.146,1.365,4.66,2.164c1.775,0.94,3.486,2.001,5.211,3.026c0.785,0.467,1.541,0.962,2.298,1.45
	c0.891,0.573,1.789,1.131,2.659,1.732c0.877,0.594,1.718,1.23,2.581,1.845c1.11,0.792,2.284,1.4,3.649,1.732
	c1.506,0.368,2.956,0.976,4.419,1.527c0.955,0.354,1.803,0.891,2.517,1.627c0.848,0.884,1.266,1.916,1.167,3.153
	c-0.071,0.969-0.346,1.874-0.785,2.737c-1.202,2.39-2.383,4.773-3.599,7.155c-1.174,2.305-1.959,4.737-2.581,7.24
	c-0.163,0.679-0.318,1.372-0.523,2.043c-0.41,1.407-0.679,2.835-0.99,4.264c-0.566,2.602-1.266,5.176-2.015,7.735
	c-0.311,1.061-0.658,2.093-0.82,3.203c-0.184,1.202-0.566,2.362-1.195,3.408c-1.966,3.281-3.953,6.548-5.947,9.814
	c-0.877,1.428-2.001,2.645-3.238,3.769c-2.234,2.029-4.483,4.052-6.717,6.088c-0.742,0.679-1.435,1.407-2.199,2.065
	c-2.213,1.924-4.646,3.55-7.142,5.07c-1.548,0.947-3.316,1.442-5.084,1.852c-0.792,0.184-1.57,0.354-2.355,0.545
	c-2.644,0.637-5.282,1.287-7.933,1.909c-0.636,0.148-1.287,0.233-1.937,0.268c-2.072,0.106-4.108,0.445-6.123,0.905
	c-1.237,0.283-2.482,0.438-3.741,0.438c-4.886,0.021-9.772,0.035-14.658,0.057c-1.209,0.007-2.418,0.014-3.627,0.014
	c-0.827,0-1.591-0.205-2.241-0.763c-1.032-0.877-1.251-2.079-0.566-3.253c0.177-0.297,0.389-0.594,0.636-0.834
	c1.294-1.273,2.588-2.538,3.917-3.776c1.499-1.4,3.316-2.249,5.24-2.92c1.23-0.431,2.454-0.912,3.634-1.464
	c2.645-1.244,5.261-2.538,7.877-3.832c0.905-0.438,1.782-0.94,2.666-1.421c1.909-1.025,3.797-2.079,5.713-3.09
	c1.994-1.046,3.719-2.383,5.042-4.228c1.464-2.044,2.977-4.059,4.469-6.088c0.566-0.778,0.997-1.626,1.322-2.538
	c0.417-1.188,0.848-2.368,1.322-3.535c0.65-1.584,1.237-3.182,1.626-4.865c0.509-2.213,1.492-4.271,2.496-6.307
	c0.198-0.403,0.41-0.806,0.573-1.224c0.141-0.353-0.078-0.735-0.467-0.799c-0.389-0.071-0.792-0.092-1.195-0.099
	c-4.688-0.049-9.369-0.092-14.05-0.134c-1.061-0.007-2.114-0.014-3.175-0.014c-1.322,0-2.595-0.268-3.861-0.636
	c-2.56-0.735-5.133-1.457-7.714-2.121c-2.213-0.566-4.278-1.492-6.335-2.433c-1.605-0.728-3.21-1.457-4.829-2.163
	c-0.46-0.205-0.933-0.375-1.421-0.495c-0.332-0.085-0.7-0.085-1.039-0.071c-0.389,0.028-0.622,0.467-0.424,0.785
	c0.163,0.247,0.361,0.481,0.566,0.7c0.742,0.771,1.301,1.662,1.725,2.637c0.686,1.57,1.386,3.132,2.1,4.688
	c0.417,0.933,0.601,1.916,0.601,2.934c0,2.065,0.021,4.137,0,6.201c-0.007,1.471,0.156,2.906,0.686,4.292
	c0.552,1.428,0.757,2.92,0.707,4.447c-0.035,0.905,0.021,1.817-0.042,2.722c-0.12,1.952-1.252,3.048-3.21,3.055
	c-0.848,0-1.711-0.099-2.538-0.304c-0.969-0.24-1.909-0.622-2.85-0.983c-1.343-0.516-2.482-1.322-3.323-2.524
	c-0.141-0.205-0.29-0.403-0.467-0.587c-2.333-2.397-4.172-5.169-6.088-7.884c-0.643-0.898-1.153-1.881-1.711-2.842
	c-0.396-0.7-0.721-1.443-1.16-2.121c-1.266-1.945-2.355-3.988-3.359-6.074c-0.778-1.612-1.789-3.027-3.055-4.278
	c-1.329-1.315-2.63-2.644-3.931-3.981c-0.481-0.509-0.976-1.032-1.358-1.612c-1.626-2.454-3.733-4.483-5.713-6.633
	c-1.902-2.078-3.776-4.186-5.522-6.399c-2.595-3.281-4.292-7.043-5.381-11.073c-0.813-3.012-1.626-6.025-2.326-9.065
	c-0.622-2.75-1.153-5.522-1.874-8.244c-0.332-1.266-0.629-2.546-0.983-3.804c-0.608-2.171-0.552-4.398-0.431-6.604
	c0.099-2.008,1.888-4.355,4.61-4.341c2.574,0.007,5.14-0.057,7.707-0.064c1.831-0.007,3.592,0.417,5.353,0.856
	c2.828,0.714,5.678,1.365,8.513,2.057c0.785,0.191,1.57,0.389,2.305,0.707c2.093,0.891,4.285,1.457,6.477,2.043
	C185.875,51.982,186.462,52.173,187.035,51.989"/>
<path fill-rule="evenodd" clip-rule="evenodd" d="M629.545,36.584c0,1.612-0.035,3.225,0.007,4.837
	c0.057,2.001-0.361,3.889-1.068,5.749c-0.488,1.273-0.905,2.567-1.351,3.854c-0.099,0.283-0.212,0.573-0.255,0.87
	c-0.375,2.425-1.471,4.582-2.56,6.745c-0.629,1.259-1.23,2.539-1.86,3.797c-0.495,0.99-0.99,1.98-1.52,2.949
	c-0.467,0.841-0.898,1.69-1.096,2.644c-0.403,1.881-1.131,3.649-1.959,5.381c-0.481,0.997-0.976,1.987-1.407,3.012
	c-0.332,0.785-0.651,1.591-0.841,2.418c-0.396,1.782-1.061,3.465-1.746,5.14c-0.46,1.117-0.877,2.256-1.237,3.409
	c-0.544,1.732-1.301,3.38-2.185,4.964c-0.269,0.488-0.537,0.969-0.813,1.45c-1.202,2.072-1.959,4.306-2.432,6.639
	c-0.276,1.393-0.679,2.737-1.351,3.995c-1.188,2.248-1.768,4.702-2.446,7.127c-0.41,1.457-0.792,2.92-1.146,4.384
	c-0.269,1.075-0.552,2.149-0.686,3.245c-0.198,1.683-0.728,3.224-1.506,4.723c-0.552,1.061-1.054,2.171-1.506,3.288
	c-0.884,2.171-2.234,4.052-3.627,5.904c-0.488,0.643-0.983,1.273-1.471,1.917c-1.563,2.078-3.415,3.832-5.664,5.154
	c-1.732,1.019-3.458,2.058-5.091,3.246c-1.266,0.933-2.729,1.52-4.235,1.958c-1.329,0.382-2.546,0.905-3.585,1.853
	c-0.509,0.467-1.138,0.827-1.761,1.16c-0.969,0.53-1.973,1.004-2.97,1.478c-1.45,0.7-2.991,0.905-4.568,0.813
	c-1.273-0.071-2.178-0.763-2.652-1.937c-0.481-1.188-0.219-2.298,0.651-3.21c0.403-0.424,0.948-0.743,1.464-1.04
	c0.339-0.198,0.757-0.268,1.131-0.424c0.969-0.41,1.966-0.785,2.899-1.273c1.336-0.7,2.595-1.542,3.634-2.666
	c0.276-0.297,0.559-0.587,0.856-0.863c2.857-2.595,4.37-5.954,5.544-9.539c0.785-2.411,1.124-4.907,1.633-7.368
	c0.12-0.587,0.156-1.195,0.156-1.796c0-1.379,0.219-2.715,0.714-3.995c0.318-0.813,0.46-1.64,0.445-2.51
	c-0.035-1.471,0.184-2.899,0.714-4.292c0.262-0.686,0.346-1.471,0.368-2.213c0.049-1.372,0.226-2.708,0.658-4.009
	c0.283-0.877,0.41-1.768,0.403-2.68c-0.007-1.167,0.141-2.312,0.509-3.422c0.276-0.827,0.332-1.676,0.325-2.532
	c-0.014-1.273,0.134-2.51,0.615-3.705c0.212-0.502,0.304-1.068,0.375-1.612c0.269-2.051,0.481-4.101,0.749-6.145
	c0.099-0.75,0.269-1.492,0.474-2.213c0.368-1.259,0.714-2.517,0.863-3.825c0.057-0.495,0.205-0.99,0.382-1.457
	c1.082-2.871,2.178-5.742,3.274-8.612c0.071-0.184,0.148-0.375,0.205-0.565c0.269-0.856,0-1.11-0.856-0.983
	c-2.517,0.375-4.858,1.28-7.198,2.206c-0.792,0.311-1.641,0.488-2.447,0.771c-0.799,0.29-1.598,0.594-2.362,0.976
	c-0.771,0.389-1.195,1.06-1.223,1.944c-0.042,1.429-0.368,2.793-0.962,4.087c-0.41,0.884-0.566,1.824-0.559,2.8
	c0.007,0.297-0.021,0.601-0.014,0.905c0.028,1.329-0.191,2.609-0.714,3.832c-0.481,1.124-0.778,2.277-0.735,3.514
	c0.035,0.77-0.198,1.499-0.566,2.178c-0.495,0.898-0.799,1.831-0.856,2.863c-0.05,0.82-0.41,1.548-0.785,2.263
	c-0.509,0.983-0.969,1.994-1.471,2.977c-0.382,0.763-0.785,1.52-1.209,2.263c-0.728,1.266-1.464,2.524-2.227,3.768
	c-0.665,1.068-1.322,2.143-2.072,3.147c-1.626,2.178-3.323,4.299-4.985,6.456c-0.622,0.82-1.386,1.435-2.34,1.845
	c-1.676,0.721-3.231,1.612-4.554,2.913c-0.629,0.63-1.464,1.061-2.185,1.612c-0.799,0.608-1.577,1.237-2.348,1.881
	c-1.16,0.976-2.291,1.973-3.444,2.949c-0.156,0.134-0.311,0.262-0.488,0.353c-1.527,0.799-3.146,1.393-4.808,1.732
	c-1.846,0.389-3.147-0.912-2.97-2.793c0.057-0.545,0.191-1.103,0.424-1.598c0.544-1.181,1.103-2.376,1.782-3.486
	c1.266-2.058,2.531-4.115,4.129-5.947c1.464-1.669,2.779-3.451,4.186-5.169c0.721-0.884,1.054-1.937,1.372-2.998
	c0.304-1.011,0.622-2.022,0.856-3.047c0.163-0.679,0.255-1.393,0.269-2.093c0.028-1.513,0.149-3.005,0.601-4.469
	c0.445-1.442,0.361-2.899-0.177-4.306c-0.481-1.245-0.7-2.517-0.665-3.84c0.028-0.87-0.148-1.697-0.495-2.503
	c-0.665-1.548-0.926-3.175-0.912-4.858c0.014-1.768,0.007-3.528,0.007-5.289c0-0.353,0.007-0.707-0.028-1.061
	c-0.071-0.636-0.438-0.912-1.054-0.665c-2.503,0.99-5.119,1.011-7.743,0.983c-0.608-0.014-1.209,0-1.817-0.028
	c-1.556-0.078-2.807-0.742-3.705-2.015c-0.41-0.58-0.742-1.202-1.082-1.817c-0.438-0.806-0.969-1.527-1.683-2.114
	c-0.311-0.262-0.629-0.516-0.891-0.82c-1.11-1.308-2.595-2.037-4.129-2.708c-1.011-0.438-2.015-0.919-2.984-1.45
	c-1.11-0.608-2.263-1.082-3.493-1.407c-2.92-0.77-5.826-1.584-8.747-2.362c-0.58-0.148-1.188-0.24-1.782-0.297
	c-1.414-0.142-2.333-0.842-2.743-2.213c-0.113-0.389-0.212-0.785-0.382-1.145c-0.481-1.047-0.255-1.987,0.424-2.822
	c1.103-1.336,2.348-2.531,4.002-3.132c3.642-1.329,7.241-2.793,10.988-3.811c1.011-0.276,2.065-0.473,3.111-0.552
	c2.538-0.191,4.992-0.714,7.354-1.64c2.044-0.799,4.129-1.23,6.336-1.131c1.259,0.057,2.517,0.007,3.783,0.007
	c0.346,0,0.7,0.021,1.054-0.014c0.608-0.064,0.905-0.354,0.962-0.969c0.092-1.124-0.007-2.227-0.679-3.182
	c-0.339-0.495-0.714-0.983-1.153-1.393c-1.209-1.159-2.178-2.496-3.04-3.931c-1.138-1.895-2.263-3.804-3.634-5.558
	c-0.523-0.658-0.877-1.471-1.181-2.27c-1.117-2.927-2.531-5.706-4.037-8.443c-0.749-1.365-1.718-2.602-2.553-3.924
	c-0.509-0.806-1.032-1.619-1.379-2.503c-0.947-2.425,0.453-4.511,3.048-4.639c2.496-0.113,4.921,0.227,7.255,1.16
	c0.799,0.319,1.584,0.643,2.362,1.004c1.789,0.813,3.606,1.555,5.494,2.107c2.475,0.728,4.801,1.832,7.099,2.977
	c0.361,0.184,0.693,0.41,1.032,0.622c1.421,0.87,2.8,1.796,4.257,2.595c1.881,1.047,3.344,2.574,4.872,4.03
	c0.354,0.339,0.636,0.792,0.841,1.244c0.884,1.987,2.142,3.755,3.161,5.671c0.304,0.573,0.601,1.153,0.912,1.732
	c0.424,0.764,0.566,1.598,0.665,2.461c0.134,1.301,0.269,2.609,0.523,3.889c0.184,0.926,0.537,1.832,0.87,2.722
	c0.191,0.509,0.552,0.672,1.089,0.601c0.248-0.035,0.488-0.114,0.728-0.184c1.513-0.446,3.062-0.587,4.631-0.58
	c1.365,0.007,2.722-0.021,4.08-0.007c1.004,0.014,1.867-0.297,2.637-0.948c0.65-0.552,1.343-1.053,2.036-1.555
	c1.407-1.011,2.934-1.732,4.61-2.199c1.457-0.41,2.857-0.976,4.285-1.471c1.379-0.473,2.758-0.954,4.144-1.414
	c1.718-0.566,3.451-1.11,5.169-1.669c1.683-0.552,3.352-1.117,5.027-1.655c1.4-0.452,2.835-0.707,4.306-0.686
	c1.273,0.021,2.503-0.184,3.712-0.58c1.732-0.573,3.521-0.855,5.353-0.792c1.011,0.028,2.015,0.007,3.026,0.007
	c1.789-0.007,3.048,0.834,3.889,2.397c0.898,1.676,1.428,3.415,1.351,5.345C629.495,33.155,629.545,34.866,629.545,36.584"/>
<path fill-rule="evenodd" clip-rule="evenodd" d="M475.182,153.977c3.125,0,6.244,0,9.369,0.007c0.403,0,0.82-0.035,1.209,0.035
	c1.605,0.276,3.217,0.028,4.829,0.035c0.396,0.007,0.806-0.071,1.181-0.191c1.11-0.361,2.206-0.7,3.38-0.778
	c0.658-0.042,1.131-0.382,1.379-1.011c0.382-0.947,0.99-1.746,1.619-2.538c1.018-1.266,1.831-2.652,2.326-4.207
	c0.354-1.11,0.87-2.135,1.534-3.097c0.594-0.87,1.153-1.782,1.633-2.722c0.46-0.891,0.827-1.831,1.181-2.772
	c0.629-1.697,1.195-3.422,1.853-5.105c1.046-2.673,2.157-5.324,3.217-7.99c0.75-1.881,1.69-3.655,2.864-5.303
	c0.884-1.244,1.542-2.595,2.128-3.988c0.339-0.813,0.445-1.655,0.339-2.517c-0.198-1.704-1.81-3.719-4.214-3.472
	c-1.966,0.198-3.889,0.495-5.727,1.252c-1.506,0.615-3.076,0.962-4.695,1.089c-1.428,0.113-2.772,0.552-3.981,1.315
	c-1.209,0.771-2.531,1.216-3.91,1.542c-1.471,0.353-2.934,0.714-4.391,1.11c-1.025,0.283-2.072,0.41-3.132,0.438
	c-1.414,0.042-2.786,0.219-4.151,0.7c-1.471,0.516-3.019,0.771-4.603,0.721c-0.65-0.014-1.308-0.021-1.966-0.007
	c-1.527,0.035-3.019-0.17-4.448-0.721c-1.244-0.481-2.524-0.658-3.846-0.63c-0.304,0.007-0.608,0-0.905-0.007
	c-1.435-0.007-2.666-0.523-3.67-1.527c-1.428-1.421-2.956-2.737-4.186-4.349c-0.672-0.87-1.471-1.655-2.263-2.425
	c-2.015-1.98-4.045-3.939-6.095-5.869c-0.735-0.693-1.548-1.287-2.355-1.888c-0.523-0.389-1.089-0.728-1.64-1.082
	c-2.093-1.343-3.924-2.984-5.466-4.942c-0.283-0.353-0.544-0.728-0.757-1.117c-0.566-1.018-0.403-1.937,0.417-2.743
	c0.488-0.481,1.082-0.75,1.754-0.799c0.65-0.043,1.308-0.021,1.959-0.007c1.612,0.028,3.224,0.085,4.837,0.092
	c1.046,0,1.259-0.198,1.612-1.23c0.636-1.852,1.245-3.719,1.945-5.557c0.573-1.52,1.57-2.8,2.609-4.038
	c0.58-0.693,1.167-1.386,1.69-2.121c0.481-0.658,1.025-1.237,1.704-1.697c1.923-1.294,3.846-2.588,5.77-3.875
	c0.247-0.163,0.509-0.325,0.785-0.446c0.997-0.417,1.944,0.014,2.312,1.025c0.049,0.142,0.106,0.297,0.113,0.438
	c0.021,1.174,0.636,2.093,1.237,3.026c2.22,3.437,4.101,7.057,5.494,10.911c0.071,0.184,0.12,0.382,0.198,0.565
	c0.311,0.735,0.643,0.927,1.414,0.771c1.181-0.255,2.369-0.481,3.535-0.785c2.348-0.594,4.709-1.068,7.149-1.117
	c1.563-0.021,3.097-0.318,4.624-0.658c2.708-0.601,5.423-1.16,8.132-1.711c0.693-0.141,1.4-0.24,2.1-0.268
	c2.333-0.092,4.568-0.764,6.837-1.188c0.615-0.113,1.018-0.445,1.032-1.103c0.042-1.81,0.799-3.422,1.315-5.105
	c0.7-2.319,1.273-4.66,1.167-7.106c-0.021-0.502-0.05-1.011,0.021-1.513c0.149-1.117,1.075-1.824,2.164-1.534
	c0.813,0.219,1.605,0.615,2.326,1.047c1.167,0.7,2.277,1.485,3.401,2.248c1.181,0.792,2.185,1.775,3.083,2.878
	c0.728,0.898,1.485,1.768,2.241,2.645c0.792,0.905,1.626,1.789,2.376,2.736c0.523,0.672,0.955,1.414,1.386,2.15
	c0.424,0.721,0.99,1.075,1.846,1.075c1.322,0,2.623-0.049,3.839-0.636c0.226-0.113,0.474-0.17,0.714-0.262
	c2.355-0.827,4.441-0.375,6.314,1.273c1.69,1.485,2.567,3.295,2.546,5.572c-0.035,3.932-0.028,7.856-0.014,11.787
	c0.007,1.542-0.283,3.005-0.962,4.391c-0.912,1.852-1.725,3.747-2.234,5.763c-0.113,0.431-0.283,0.863-0.488,1.265
	c-1.499,2.864-2.616,5.883-3.691,8.931c-1.11,3.133-2.524,6.152-3.882,9.185c-1.393,3.125-2.772,6.258-3.832,9.525
	c-0.339,1.053-0.813,2.057-1.223,3.09c-0.354,0.891-0.742,1.768-1.032,2.673c-0.453,1.4-1.032,2.73-1.697,4.038
	c-1.549,3.047-2.984,6.166-4.759,9.1c-0.488,0.813-0.403,1.471,0.212,2.185c1.485,1.725,2.248,3.804,2.722,5.989
	c0.113,0.488,0.134,1.004,0.148,1.506c0.028,0.898,0.007,1.81,0.028,2.715c0.043,2.326-0.544,4.49-1.732,6.484
	c-1.626,2.737-3.373,5.381-5.876,7.424c-0.82,0.658-1.669,1.301-2.567,1.853c-1.895,1.167-3.557,2.645-5.282,4.03
	c-0.849,0.672-1.428,1.555-1.768,2.581c-0.445,1.343-0.12,2.065,1.117,2.729c0.743,0.403,1.499,0.538,2.326,0.375
	c0.445-0.085,0.905-0.177,1.35-0.156c2.673,0.127,5.197-0.565,7.672-1.442c1.018-0.361,2.029-0.552,3.097-0.53
	c0.601,0.007,1.209-0.021,1.81-0.085c0.594-0.063,0.827-0.304,0.848-0.87c0.078-1.4,0.177-2.814,0.156-4.221
	c-0.035-1.973,0.474-3.776,1.478-5.452c0.212-0.347,0.417-0.686,0.615-1.04c1.746-3.231,4.504-5.36,7.686-7.014
	c1.075-0.552,2.178-1.04,3.267-1.563c0.134-0.064,0.269-0.135,0.389-0.219c0.339-0.24,0.389-0.778,0.099-1.061
	c-0.106-0.106-0.226-0.212-0.354-0.276c-1.648-0.799-2.602-2.242-3.302-3.811c-0.877-1.98-1.542-4.066-1.365-6.286
	c0.085-1.047,0.233-2.107,0.488-3.125c0.502-2.022,1.28-3.917,2.864-5.388c0.693-0.651,1.273-1.422,1.973-2.065
	c1.336-1.216,3.005-1.817,4.688-2.354c1.047-0.34,2.128-0.615,3.21-0.856c1.492-0.332,2.998-0.318,4.462,0.177
	c1.584,0.537,3.076,1.301,4.342,2.39c1.266,1.103,2.284,2.425,2.758,4.073c0.332,1.16,0.587,2.34,0.877,3.514
	c0.283,1.125-0.057,2.214-0.29,3.281c-0.219,1.082-0.594,2.135-0.976,3.168c-0.424,1.138-1.032,2.185-1.803,3.132
	c-0.247,0.318-0.509,0.629-0.721,0.968c-0.311,0.509,0,1.054,0.594,1.054c0.757,0.007,1.513-0.028,2.27-0.028
	c2.786-0.014,5.494,0.495,8.188,1.153c0.877,0.219,1.782,0.332,2.68,0.473c1.153,0.184,1.697-0.148,1.98-1.294
	c0.368-1.492,0.983-2.863,1.98-4.03c0.658-0.757,1.386-1.471,2.171-2.093c1.018-0.82,2.086-1.591,3.203-2.27
	c1.421-0.863,2.97-1.463,4.617-1.782c0.396-0.071,0.771-0.212,1.16-0.318c0.347-0.085,0.686-0.219,1.032-0.226
	c1.711-0.021,3.436-0.177,5.126,0.028c2.227,0.276,4.497,0.53,6.611,1.428c1.45,0.622,2.708,1.421,3.748,2.694
	c1.478,1.803,2.355,3.84,2.899,6.067c0.156,0.608,0.163,1.188-0.049,1.775c-0.035,0.092-0.057,0.191-0.085,0.29
	c-0.7,2.27-3.472,6.074-5.317,7.573c-1.605,1.308-3.274,2.503-5.098,3.479c-0.891,0.474-1.782,0.933-2.779,1.167
	c-0.728,0.162-1.442,0.438-2.15,0.693c-0.53,0.191-0.714,0.495-0.643,1.053c0.057,0.495,0.156,0.99,0.247,1.485
	c0.205,1.138,0.46,2.27,0.615,3.408c0.205,1.556,0.198,3.09-0.191,4.645c-0.431,1.733-1.061,3.338-2.086,4.815
	c-1.499,2.15-3.38,3.847-5.678,5.091c-1.011,0.552-2.086,0.983-3.132,1.471c-0.226,0.106-0.467,0.198-0.679,0.325
	c-0.198,0.12-0.226,0.545-0.021,0.665c0.382,0.219,0.785,0.445,1.202,0.58c1.153,0.367,2.341,0.615,3.472,1.032
	c1.697,0.636,3.38,1.315,5.013,2.086c2.503,1.181,4.971,2.425,7.432,3.691c1.018,0.53,1.973,1.202,2.963,1.803
	c0.339,0.212,0.665,0.46,1.039,0.608c1.598,0.643,3.048,1.563,4.448,2.539c1.061,0.742,2.213,1.096,3.479,1.343
	c1.944,0.382,3.896,0.432,5.855,0.432c0.764-0.007,1.506-0.028,2.249-0.227c0.424-0.12,0.898-0.148,1.343-0.127
	c2.687,0.106,5.317-0.29,7.962-0.679c0.693-0.106,1.393-0.148,2.093-0.205c2.404-0.212,4.822-0.198,7.234-0.177
	c0.799,0.007,1.605,0.085,2.404,0.092c1.775,0,3.493,0.368,5.225,0.686c1.633,0.297,3.274,0.545,4.907,0.834
	c0.29,0.05,0.573,0.191,0.849,0.304c0.509,0.212,1.004,0.473,1.527,0.643c0.933,0.318,1.669,0.877,2.362,1.577
	c0.636,0.637,0.764,1.365,0.382,2.058c-1.018,1.845-2.008,3.734-3.762,5.042c-0.078,0.057-0.156,0.134-0.233,0.191
	c-0.856,0.643-1.344,0.658-2.171,0.028c-0.318-0.24-0.629-0.509-0.905-0.799c-1.294-1.378-2.871-1.937-4.745-1.775
	c-0.7,0.071-1.414,0.035-2.114-0.028c-2.765-0.262-5.529-0.177-8.301-0.155c-1.351,0.014-2.694-0.05-4.059,0.127
	c-1.407,0.191-2.779,0.53-4.101,0.969c-2.001,0.678-3.938,1.513-5.89,2.312c-0.509,0.205-1.018,0.481-1.443,0.82
	c-1.895,1.534-4.052,2.623-6.201,3.719c-0.092,0.049-0.184,0.092-0.269,0.134c-2.319,1.053-4.349,2.517-6.194,4.257
	c-0.841,0.792-1.782,1.485-2.694,2.199c-0.764,0.594-1.414,1.273-1.944,2.086c-0.474,0.714-1.004,1.393-1.443,2.121
	c-0.445,0.729-0.827,1.499-1.209,2.263c-0.53,1.082-0.969,2.213-1.577,3.253c-0.898,1.513-1.817,3.033-2.899,4.412
	c-1.237,1.577-2.666,3.019-4.023,4.497c-0.615,0.665-1.266,1.301-1.895,1.945c-1.273,1.287-2.524,2.588-3.953,3.712
	c-1.662,1.301-3.281,2.665-4.893,4.037c-0.375,0.318-0.7,0.728-0.94,1.16c-0.58,1.025-1.471,1.64-2.524,2.058
	c-1.959,0.77-4.009,0.933-6.088,0.742c-0.827-0.078-1.534-0.481-2.241-0.87c-0.17-0.092-0.311-0.255-0.438-0.41
	c-0.46-0.544-0.46-1.124,0.042-1.619c0.24-0.24,0.537-0.452,0.841-0.615c0.665-0.361,1.329-0.721,2.029-1.004
	c0.686-0.262,1.202-0.7,1.69-1.223c1.259-1.372,2.538-2.715,3.839-4.052c1.761-1.796,3.62-3.514,5.289-5.395
	c1.054-1.195,1.881-2.602,2.765-3.945c0.856-1.308,1.683-2.63,2.446-3.995c0.636-1.138,1.153-2.348,1.74-3.514
	c0.269-0.545,0.573-1.068,0.827-1.612c0.269-0.587,0.049-0.99-0.58-1.103c-0.891-0.163-1.782-0.347-2.68-0.46
	c-1.152-0.149-2.277-0.396-3.366-0.814c-0.7-0.262-1.45-0.396-2.164-0.643c-3.253-1.124-6.236-2.778-9.1-4.673
	c-1.64-1.082-3.33-2.086-4.907-3.246c-1.252-0.926-2.383-2.008-3.521-3.068c-1.322-1.237-2.666-2.475-3.861-3.819
	c-1.025-1.167-1.895-2.475-2.786-3.755c-1.471-2.114-2.489-4.49-3.543-6.823c-0.382-0.834-0.94-1.266-1.704-1.577
	c-1.577-0.65-3.161-1.294-4.752-1.923c-2.567-1.032-4.391-2.786-5.31-5.424c-0.325-0.947-0.891-1.796-1.039-2.821
	c-0.085-0.552-0.799-0.721-1.195-0.318c-0.24,0.247-0.445,0.552-0.58,0.863c-0.658,1.555-1.846,2.609-3.21,3.514
	c-0.834,0.559-1.655,1.138-2.468,1.733c-1.103,0.799-2.234,1.513-3.543,1.973c-1.648,0.58-3.111,0.226-4.419-0.735
	c-1.619-1.188-1.895-1.535-1.054-3.705c0.46-1.188,1.167-2.235,2.178-3.048c0.502-0.41,0.997-0.848,1.527-1.23
	c1.018-0.742,1.98-1.548,2.779-2.538c0.311-0.382,0.728-0.693,1.124-1.004c0.354-0.29,0.467-0.643,0.368-1.068
	c-0.071-0.29-0.156-0.587-0.276-0.863c-0.332-0.778-0.849-1.096-1.676-0.933c-0.693,0.135-1.372,0.332-2.043,0.552
	c-1.004,0.325-1.994,0.693-2.984,1.061c-1.796,0.665-3.641,1.202-5.537,1.407c-3.302,0.347-6.42-0.318-9.256-2.107
	c-1.393-0.877-2.397-2.135-3.21-3.55c-0.481-0.842-0.7-1.761-0.721-2.743c-0.078-3.097,0.827-5.826,2.765-8.266
	c1.902-2.397,4.214-4.32,6.59-6.194c1.506-1.181,3.012-2.362,4.497-3.564c1.308-1.06,2.27-2.425,3.161-3.832
	c0.594-0.926,0.841-1.937,0.608-3.026c-0.035-0.17-0.184-0.396-0.332-0.445c-0.134-0.035-0.389,0.085-0.488,0.219
	c-0.24,0.318-0.424,0.678-0.622,1.032c-0.636,1.082-1.584,1.668-2.821,1.775c-0.552,0.05-1.11,0.042-1.662,0.042
	c-3.981,0.007-7.962,0.014-11.943-0.007c-1.174-0.007-2.298,0.142-3.387,0.622c-0.926,0.403-1.909,0.601-2.913,0.728
	c-0.841,0.106-1.69,0.304-2.482,0.608c-1.386,0.53-2.793,0.785-4.278,0.778c-3.981-0.028-7.962-0.028-11.936,0.007
	c-1.167,0.007-2.185-0.276-3.097-0.997c-0.311-0.248-0.65-0.474-0.976-0.7c-0.721-0.516-1.209-1.188-1.513-2.03
	c-0.41-1.138-0.764-2.291-0.827-3.514c-0.078-1.294-0.587-2.432-1.344-3.472c-0.87-1.188-1.86-2.255-3.125-3.034
	c-0.339-0.219-0.672-0.445-0.983-0.707c-0.46-0.375-0.552-0.813-0.304-1.337c0.247-0.53,0.629-0.898,1.202-1.06
	c0.877-0.248,1.732-0.552,2.616-0.729c0.686-0.141,1.4-0.184,2.1-0.191c3.175-0.021,6.343-0.007,9.517-0.007V153.977z
	 M543.713,203.919c0.049,0.233,0.028,0.474,0.141,0.558c0.339,0.29,0.693,0.615,1.103,0.75c0.997,0.332,2.029,0.58,3.048,0.848
	c0.53,0.142,1.103,0.191,1.605,0.403c1.11,0.467,2.242,0.516,3.401,0.304c0.445-0.085,0.891-0.233,1.336-0.247
	c0.495-0.014,1.004,0.042,1.485,0.142c0.354,0.078,0.622,0.332,0.679,0.728c0.049,0.41-0.177,0.665-0.488,0.87
	c-0.085,0.057-0.177,0.106-0.269,0.142c-2.022,0.757-4.087,1.145-6.194,0.424c-1.584-0.544-3.196-0.912-4.844-1.145
	c-0.94-0.134-1.732-0.488-2.447-1.075c-0.467-0.389-0.884-0.835-1.386-1.167c-0.912-0.608-1.52-1.357-1.923-2.418
	c-0.382-0.976-0.771-1.81-0.198-2.835c0.297-0.537,0.007-1.082-0.361-1.527c-0.311-0.375-0.714-0.304-1.117-0.184
	c-0.481,0.148-0.87-0.014-1.252-0.318c-1.252-0.983-2.574-0.665-3.846-0.106c-0.82,0.353-1.096,1.089-0.969,2.015
	c0.127,0.87,0.481,1.648,1.068,2.298c0.481,0.537,0.806,1.16,0.997,1.845c0.332,1.174,0.955,2.206,1.563,3.253
	c0.693,1.188,1.662,2.008,2.892,2.539c0.834,0.361,1.69,0.672,2.503,1.053c1.464,0.7,2.97,1.252,4.561,1.577
	c1.28,0.268,2.56,0.537,3.854,0.763c1.542,0.276,3.09,0.396,4.653,0.142c0.403-0.071,0.813-0.092,1.209-0.071
	c2.086,0.106,4.115-0.191,6.116-0.763c0.339-0.092,0.686-0.163,1.039-0.219c1.697-0.283,3.33-0.778,4.872-1.556
	c0.643-0.325,1.336-0.438,2.051-0.389c0.643,0.05,0.983,0.714,0.566,1.202c-0.354,0.41-0.778,0.806-1.252,1.068
	c-0.742,0.417-1.527,0.764-2.333,1.047c-2.531,0.884-5.169,1.322-7.778,1.853c-0.636,0.127-1.301,0.106-1.959,0.134
	c-0.806,0.028-1.612-0.007-2.411,0.071c-1.973,0.184-3.924,0.134-5.862-0.318c-0.283-0.071-0.594-0.064-0.891-0.05
	c-0.255,0.014-0.438,0.311-0.375,0.558c0.028,0.142,0.071,0.29,0.127,0.424c1.344,2.956,3.041,5.685,5.169,8.132
	c1.358,1.563,2.814,3.026,4.405,4.349c1.471,1.223,2.913,2.489,4.469,3.592c1.683,1.195,3.479,2.213,5.225,3.316
	c1.237,0.778,2.517,1.457,3.861,2.065c3.337,1.499,6.774,2.546,10.415,2.949c0.445,0.049,0.905,0.127,1.322,0.29
	c1.167,0.474,1.633,1.711,1.089,2.835c-0.509,1.04-1.117,2.043-1.556,3.104c-0.799,1.923-1.824,3.705-2.934,5.445
	c-0.622,0.983-1.287,1.93-1.853,2.941c-0.827,1.457-1.902,2.715-3.083,3.896c-2.92,2.913-5.925,5.755-8.626,8.881
	c-0.134,0.156-0.283,0.29-0.424,0.432c-0.368,0.382-0.806,0.594-1.344,0.58c-0.255-0.007-0.523-0.05-0.749,0.021
	c-0.332,0.099-0.672,0.233-0.926,0.445c-0.155,0.127-0.226,0.453-0.198,0.665c0.014,0.134,0.276,0.24,0.431,0.353
	c0.042,0.028,0.099,0.035,0.148,0.028c1.308-0.007,2.623,0.014,3.924-0.063c0.417-0.021,0.877-0.262,1.223-0.523
	c0.898-0.65,1.761-1.344,2.609-2.057c1.952-1.662,3.868-3.38,5.855-5.006c1.294-1.053,2.503-2.185,3.656-3.38
	c0.983-1.011,1.98-2.015,2.949-3.034c1.57-1.633,3.196-3.217,4.349-5.204c0.347-0.608,0.728-1.209,1.131-1.789
	c0.841-1.195,1.45-2.517,2.029-3.861c0.41-0.969,0.933-1.895,1.471-2.793c0.467-0.778,1.039-1.492,1.541-2.248
	c0.559-0.855,1.266-1.548,2.065-2.178c1.146-0.905,2.284-1.817,3.387-2.779c1.831-1.598,3.811-2.949,6.024-3.981
	c2.143-1.004,4.243-2.1,6.102-3.592c0.552-0.432,1.195-0.764,1.838-1.032c1.768-0.743,3.55-1.428,5.331-2.121
	c2.609-1.019,5.346-1.422,8.132-1.506c1.86-0.057,3.712,0.014,5.579,0.163c1.853,0.155,3.719,0.099,5.579,0.148
	c1.011,0.028,2.015,0.106,3.019,0.148c0.785,0.042,1.471,0.29,2.044,0.848c0.467,0.452,0.962,0.884,1.457,1.315
	c0.544,0.481,0.905,0.481,1.457,0.007c1.082-0.934,1.853-2.122,2.574-3.33c0.41-0.7,0.276-1.202-0.403-1.669
	c-0.205-0.142-0.431-0.262-0.665-0.36c-1.096-0.495-2.199-0.997-3.436-1.047c-0.403-0.014-0.792-0.156-1.188-0.219
	c-1.937-0.34-3.861-0.778-5.812-0.976c-4.822-0.495-9.652-0.424-14.467,0.24c-2.043,0.283-4.094,0.516-6.166,0.53
	c-0.799,0.007-1.605,0.092-2.404,0.177c-2.517,0.276-5.02,0.304-7.516-0.17c-0.445-0.085-0.905-0.191-1.35-0.148
	c-0.962,0.085-1.775-0.226-2.567-0.714c-1.973-1.209-3.882-2.524-6.003-3.486c-0.495-0.226-0.919-0.608-1.393-0.898
	c-0.594-0.375-1.195-0.75-1.817-1.075c-2.051-1.075-4.094-2.164-6.18-3.161c-1.867-0.891-3.748-1.747-5.678-2.461
	c-2.121-0.778-4.313-1.372-6.477-2.05c-0.431-0.134-0.884-0.24-1.287-0.431c-0.353-0.177-0.7-0.41-0.969-0.686
	c-0.389-0.389-0.368-0.976,0-1.372c0.198-0.212,0.453-0.41,0.721-0.523c0.601-0.262,1.216-0.467,1.838-0.678
	c3.048-1.004,5.876-2.376,8.096-4.78c1.796-1.945,3.069-4.129,3.154-6.845c0.035-1.103,0.028-2.22-0.071-3.316
	c-0.148-1.704-0.276-3.401-0.912-5.034c-0.453-1.145,0.028-1.916,1.223-2.058c1.131-0.142,2.135-0.587,3.161-0.997
	c4.596-1.845,8.52-4.532,10.981-8.994c0.071-0.134,0.177-0.247,0.24-0.382c0.219-0.46,0.438-0.912,0.629-1.372
	c0.226-0.53,0.255-1.075,0.127-1.633c-0.424-1.952-1.209-3.719-2.553-5.233c-0.651-0.721-1.379-1.35-2.298-1.683
	c-1.131-0.403-2.27-0.891-3.444-1.075c-2.185-0.34-4.398-0.622-6.618-0.509c-2.807,0.148-5.473,0.848-7.877,2.362
	c-0.933,0.587-1.817,1.259-2.694,1.945c-1.45,1.138-2.588,2.531-3.147,4.327c-0.184,0.58-0.346,1.16-0.559,1.725
	c-0.778,2.065-1.548,2.227-3.182,1.867c-1.718-0.375-3.451-0.714-5.169-1.103c-1.626-0.375-3.267-0.573-4.943-0.566
	c-1.966,0.007-3.931,0.057-5.89-0.014c-3.854-0.156-7.509,0.799-11.094,2.001c-2.277,0.764-4.448,1.881-6.647,2.878
	c-1.068,0.488-1.146,0.835-0.438,1.846c1.054,1.506,0.841,3.154,0.636,4.808c-0.014,0.142-0.092,0.29-0.17,0.417
	c-0.99,1.662-2.298,2.92-4.264,3.345c-1.082,0.226-1.577,0.028-2.135-0.94c-0.219-0.389-0.346-0.834-0.58-1.223
	c-0.106-0.184-0.368-0.41-0.552-0.403c-0.191,0.007-0.438,0.233-0.559,0.431c-0.297,0.509-0.339,1.047,0.028,1.563
	c0.113,0.163,0.269,0.297,0.375,0.467c0.311,0.488,0.269,0.785-0.177,1.181c-0.29,0.255-0.764,0.347-0.629,0.976
	c0.311,0.142,0.679,0.283,1.025,0.474c0.325,0.17,0.41,0.622,0.17,0.912c-0.247,0.304-0.537,0.573-0.813,0.863
	c0.092,0.184,0.12,0.353,0.219,0.438c0.629,0.53,0.643,1.089,0.141,1.704c-0.092,0.113-0.177,0.283-0.163,0.41
	c0.021,0.184,0.085,0.417,0.212,0.523c0.134,0.099,0.375,0.106,0.559,0.078c0.134-0.014,0.276-0.127,0.375-0.226
	c0.311-0.332,0.601-0.686,0.905-1.011c2.079-2.22,4.709-2.638,7.502-2.058c2.008,0.424,3.458,1.782,4.497,3.542
	c0.474,0.799,0.743,1.648,0.665,2.595c-0.042,0.502-0.021,1.011-0.049,1.513c-0.035,0.75,0.304,1.252,0.997,1.514
	c0.841,0.325,1.626,0.806,2.56,0.891c0.339,0.028,0.672,0.191,0.997,0.318c1.138,0.453,2.114,1.167,3.132,1.817
	c0.53,0.339,0.849,0.848,1.047,1.435c0.346,1.082-0.177,2.093-1.28,2.319c-1.23,0.262-2.475,0.523-3.726,0.063
	C544.229,203.862,544.017,203.919,543.713,203.919 M533.602,159.026c-0.12,1.527,0.255,3.034,0.792,4.518
	c0.559,1.548,1.358,2.913,2.8,3.819c0.339,0.212,0.651,0.473,0.941,0.742c0.551,0.516,1.11,0.495,1.81,0.276
	c1.718-0.537,3.465-1.047,5.225-1.435c1.421-0.311,2.878-0.46,4.32-0.643c0.573-0.071,1.068-0.226,1.485-0.643
	c1.697-1.683,3.132-3.529,3.896-5.84c0.735-2.234,1.223-4.469,0.403-6.795c-0.078-0.233-0.085-0.495-0.177-0.735
	c-0.226-0.601-0.396-1.266-0.764-1.789c-1.916-2.807-4.511-4.391-8.018-4.158c-2.447,0.163-4.759,0.912-6.894,2.058
	c-2.093,1.124-3.507,2.97-4.695,4.992c-0.057,0.085-0.092,0.184-0.127,0.276C534.005,155.377,533.488,157.116,533.602,159.026
	 M519.071,210.007c1.308,0.014,2.701-0.333,3.91-1.266c0.559-0.432,1.174-0.778,1.725-1.224c2.043-1.619,3.62-3.627,4.794-5.939
	c0.177-0.347,0.304-0.771,0.29-1.153c-0.035-0.827,0.057-1.598,0.382-2.355c0.219-0.502,0.064-0.983-0.219-1.435
	c-0.587-0.926-1.435-1.202-2.475-1.039c-0.643,0.106-1.259,0.276-1.923,0.007c-1.046-0.424-2.086,0.637-1.527,1.732
	c0.021,0.043,0.035,0.092,0.057,0.142c0.495,1.174,0.205,2.157-0.735,2.977c-1.252,1.096-2.468,2.227-3.762,3.267
	c-1.153,0.926-2.065,2.058-2.977,3.189c-0.163,0.191-0.29,0.417-0.396,0.643c-0.283,0.637-0.17,1.167,0.325,1.648
	C517.19,209.844,517.982,210.091,519.071,210.007 M533.799,192.669c-0.12,0.106-0.283,0.177-0.318,0.297
	c-0.035,0.113,0.021,0.297,0.106,0.389c0.134,0.142,0.318,0.248,0.502,0.318c0.919,0.396,1.838,0.785,2.779,1.138
	c0.417,0.163,0.863,0.262,1.308,0.34c0.368,0.071,0.672-0.177,0.778-0.552c0.177-0.658-0.177-1.202-0.82-1.075
	c-1.358,0.262-2.581,0-3.748-0.707C534.224,192.725,534.005,192.718,533.799,192.669 M532.449,177.509
	c-0.043-0.467-0.325-0.976-0.891-1.301c-0.325-0.184-0.665-0.17-1.004-0.007c-0.403,0.191-0.58,0.693-0.283,0.997
	c0.382,0.389,0.806,0.749,1.259,1.047C531.975,178.541,532.491,178.202,532.449,177.509 M531.289,180.648
	c0.014-0.431-0.495-0.82-0.962-0.707c-0.544,0.134-1.025,0.431-1.329,0.898c-0.113,0.162-0.092,0.488-0.014,0.693
	c0.049,0.148,0.297,0.318,0.453,0.318c0.735,0,1.351-0.304,1.782-0.912C531.275,180.861,531.268,180.74,531.289,180.648
	 M537.533,191.481c-0.021-0.177,0-0.29-0.042-0.368c-0.368-0.643-0.926-1.025-1.641-1.167c-0.346-0.071-0.679,0.304-0.622,0.658
	c0.141,0.785,1.16,1.442,1.93,1.216C537.321,191.771,537.434,191.58,537.533,191.481 M533.121,190.137
	c-0.092-0.12-0.205-0.375-0.396-0.459c-0.481-0.241-1.068-0.064-1.287,0.396c-0.085,0.184-0.057,0.509,0.057,0.679
	c0.212,0.332,0.594,0.325,0.948,0.219C532.802,190.866,533.05,190.646,533.121,190.137"/>
<path fill-rule="evenodd" clip-rule="evenodd" d="M410.209,214.24c0.396-4.193,0.233-8.124,0.276-12.049
	c0.007-0.403,0-0.813,0.078-1.209c0.566-2.828,0.431-5.713,0.594-8.577c0.106-1.81,0.269-3.606,0.587-5.402
	c0.24-1.329,0.233-2.694,0.297-4.052c0.021-0.53-0.396-0.827-0.933-0.65c-0.856,0.297-1.711,0.608-2.531,0.99
	c-3.712,1.711-7.601,2.941-11.483,4.193c-0.29,0.092-0.587,0.156-0.863,0.276c-2.432,1.061-5.027,1.435-7.615,1.796
	c-2.1,0.283-4.186,0.58-6.286,0.842c-0.75,0.099-1.506,0.155-2.256,0.162c-7.156,0.007-14.311,0-21.46,0
	c-0.601-0.007-1.209-0.035-1.81-0.049c-0.87-0.014-1.683-0.233-2.482-0.587c-0.827-0.368-1.711-0.594-2.546-0.948
	c-1.244-0.53-2.475-1.11-3.698-1.697c-0.141-0.078-0.311-0.353-0.276-0.473c0.064-0.212,0.262-0.396,0.438-0.545
	c0.106-0.085,0.276-0.113,0.424-0.134c1.973-0.248,3.783-1.054,5.65-1.64c1.584-0.495,3.189-0.948,4.752-1.506
	c1.039-0.375,2.086-0.785,3.012-1.372c1.683-1.068,3.521-1.718,5.409-2.277c1.011-0.297,2.036-0.566,3.076-0.778
	c1.69-0.36,3.246-1.053,4.752-1.881c2.56-1.407,5.119-2.821,7.7-4.179c1.662-0.87,3.26-1.81,4.674-3.033
	c1.831-1.584,3.755-3.048,5.374-4.865c0.658-0.735,1.513-1.322,2.319-1.916c2.567-1.867,5.14-3.719,7.736-5.55
	c1.563-1.103,3.168-2.142,4.737-3.239c0.431-0.297,1.131-0.488,0.948-1.195c-0.148-0.566-0.785-0.552-1.259-0.643
	c-1.237-0.247-2.468-0.58-3.712-0.657c-2.609-0.177-5.049-0.919-7.46-1.825c-1.223-0.46-2.425-0.962-3.755-1.089
	c-0.905-0.085-1.57-0.629-2.1-1.343c-0.354-0.495-0.707-0.983-1.047-1.478c-0.898-1.287-1.909-2.468-3.055-3.542
	c-1.146-1.082-2.001-2.397-2.807-3.734c-1.824-3.019-3.62-6.045-5.381-9.1c-0.629-1.089-1.096-2.27-1.662-3.394
	c-0.445-0.898-0.933-1.775-1.4-2.665c-0.516-0.983-1.046-1.952-1.527-2.942c-0.82-1.676-1.563-3.387-2.404-5.042
	c-1.167-2.291-2.383-4.561-3.606-6.809c-0.778-1.435-1.117-3.026-1.669-4.532c-0.276-0.757-0.085-1.499,0.375-2.15
	c0.205-0.29,0.438-0.558,0.707-0.785c1.52-1.266,3.274-0.99,4.144,0.799c0.636,1.315,1.556,2.348,2.595,3.295
	c1.407,1.294,2.857,2.545,4.476,3.585c3.387,2.178,6.76,4.391,10.14,6.583c1.86,1.202,3.726,2.397,5.586,3.599
	c2.27,1.471,4.78,2.362,7.382,3.012c1.336,0.332,2.588,0.806,3.79,1.464c2.213,1.216,4.547,2.135,6.965,2.878
	c1.966,0.601,3.953,1.195,5.805,2.129c0.601,0.304,1.23,0.431,1.895,0.424c1.266-0.007,2.524,0.042,3.783-0.028
	c0.686-0.042,1.379-0.219,2.058-0.41c1.11-0.318,2.206-0.686,3.309-1.032c0.29-0.092,0.587-0.163,0.863-0.276
	c2.715-1.132,5.607-1.619,8.457-2.242c1.874-0.403,3.741-0.799,5.607-1.244c0.679-0.163,1.344-0.432,1.973-0.728
	c1.068-0.495,2.164-0.827,3.344-0.87c0.813-0.028,1.584-0.233,2.319-0.594c1.011-0.488,2.086-0.735,3.203-0.792
	c1.004-0.064,2.015-0.135,3.012-0.269c0.841-0.113,1.69-0.283,2.51-0.509c1.527-0.417,3.083-0.495,4.646-0.382
	c1.888,0.134,3.33,1.06,4.398,2.588c0.905,1.28,1.11,2.701,0.629,4.172c-0.283,0.855-0.714,1.662-1.138,2.46
	c-0.587,1.11-1.294,2.157-1.86,3.281c-0.962,1.916-2.213,3.599-3.769,5.062c-0.587,0.559-1.16,1.125-1.725,1.697
	c-0.389,0.389-0.806,0.778-1.11,1.23c-1.421,2.135-3.161,4.073-4.278,6.392c-1.428,2.962-3.55,5.367-5.869,7.615
	c-1.407,1.372-2.85,2.701-4.243,4.094c-0.452,0.453-0.799,1.025-1.16,1.563c-0.276,0.417-0.453,0.912-0.75,1.308
	c-2.001,2.645-3.804,5.452-6.102,7.877c-0.764,0.799-1.527,1.612-2.369,2.334c-0.679,0.58-1.442,1.096-2.234,1.52
	c-1.294,0.672-2.637,1.238-3.967,1.846c-0.276,0.127-0.559,0.24-0.827,0.375c-0.615,0.304-0.877,0.813-0.778,1.485
	c0.134,0.947,0.269,1.895,0.445,2.835c0.396,2.128,0.792,4.257,1.244,6.371c0.318,1.478,0.785,2.92,1.061,4.398
	c0.544,2.871,1.046,5.749,1.485,8.634c0.396,2.588,0.686,5.19,1.004,7.792c0.29,2.397,0.587,4.794,0.389,7.227
	c-0.042,0.545,0.028,1.103,0.064,1.655c0.191,3.026,0.12,6.039-0.453,9.029c-0.184,0.94-0.304,1.888-0.495,2.829
	c-0.099,0.488-0.191,1.004-0.431,1.435c-0.608,1.096-1.244,2.185-1.959,3.217c-0.926,1.337-2.1,2.433-3.528,3.253
	c-1.046,0.601-2.051,1.287-3.083,1.902c-0.516,0.311-1.047,0.622-1.612,0.835c-1.563,0.58-3.09-0.163-3.62-1.747
	c-0.127-0.375-0.177-0.785-0.205-1.188c-0.035-0.552-0.057-1.11-0.021-1.662c0.163-2.044-0.311-4.002-0.799-5.954
	c-0.311-1.259-1.018-2.284-1.874-3.232c-0.948-1.047-1.881-2.114-2.765-3.21C411.029,218.723,410.329,216.446,410.209,214.24"/>
<path fill-rule="evenodd" clip-rule="evenodd" d="M376.098,78.029c0,1.082-0.347,1.945-1.018,2.581
	c-1.591,1.513-2.673,3.387-3.96,5.126c-0.771,1.061-1.612,2.065-2.369,3.14c-0.841,1.188-1.633,2.411-2.439,3.627
	c-0.693,1.053-1.322,2.149-2.093,3.139c-0.643,0.827-1.386,1.605-2.206,2.263c-2.086,1.676-4.009,3.521-5.805,5.494
	c-1.259,1.386-2.454,2.814-3.741,4.158c-1.909,2.001-3.875,3.96-5.826,5.925c-0.856,0.855-1.747,1.676-2.609,2.517
	c-1.372,1.336-2.765,2.658-4.37,3.719c-2.256,1.478-4.129,3.365-5.883,5.395c-1.153,1.336-2.439,2.531-3.854,3.599
	c-1.216,0.912-2.51,1.69-3.882,2.333c-2.142,1.004-4.292,1.994-6.293,3.267c-1.167,0.742-2.454,1.167-3.839,1.28
	c-1.817,0.134-3.571,0.615-5.324,1.068c-1.556,0.417-3.118,0.813-4.674,1.23c-1.223,0.34-2.475,0.453-3.74,0.467l-4.681,0.057
	c-1.11,0.014-2.206,0.155-3.281,0.445c-1.167,0.318-2.348,0.594-3.521,0.891c-1.471,0.368-2.864,0.933-4.221,1.612
	c-2.524,1.258-5.056,2.517-7.587,3.755c-0.537,0.268-1.096,0.495-1.669,0.693c-0.643,0.219-1.294,0.17-1.916-0.114
	c-1.52-0.693-1.909-2.368-0.813-3.62c0.361-0.41,0.813-0.778,1.294-1.019c1.428-0.7,2.411-1.803,3.146-3.16
	c0.587-1.082,1.393-1.966,2.305-2.765c0.53-0.467,1.039-0.969,1.464-1.527c1.273-1.711,2.835-3.125,4.511-4.427
	c0.877-0.679,1.704-1.407,2.546-2.135c1.817-1.584,3.627-3.182,5.452-4.765c1.598-1.386,3.196-2.765,4.448-4.497
	c0.467-0.636,1.103-1.181,1.732-1.668c1.796-1.4,3.465-2.899,4.928-4.66c1.45-1.747,3.104-3.295,4.9-4.702
	c0.749-0.587,1.45-1.237,2.107-1.93c1.768-1.881,3.811-3.436,5.791-5.07c0.707-0.573,1.372-1.188,2.043-1.789
	c0.262-0.233,0.481-0.523,0.764-0.728c2.022-1.492,3.429-3.535,4.978-5.452c0.509-0.629,0.856-1.35,1.16-2.107
	c1.075-2.715,2.213-5.402,3.309-8.111c0.339-0.834,0.615-1.697,0.919-2.552c0.255-0.707,0.467-1.435,0.757-2.135
	c0.417-0.997,0.573-2.015,0.566-3.09c-0.021-3.783,0.014-7.559-0.014-11.334c-0.007-1.733,0.184-3.415,0.841-5.027
	c0.255-0.609,0.389-1.252,0.559-1.888c1.011-3.691,1.937-7.403,3.041-11.066c0.813-2.694,1.81-5.339,2.814-7.976
	c0.771-2.037,1.435-4.08,1.633-6.258c0.099-1.075,0.438-2.072,1.124-2.92c0.757-0.94,1.124-2.001,1.16-3.21
	c0.007-0.445,0.085-0.912,0.247-1.322c0.559-1.449,2.489-2.524,4.002-0.799c1.096,1.244,2.043,2.645,2.142,4.398
	c0.05,0.848,0.361,1.57,0.912,2.192c2.913,3.323,4.921,7.234,7.156,10.995c0.311,0.523,0.594,1.053,0.827,1.612
	c0.87,2.051,1.966,3.974,3.048,5.911c1.761,3.161,3.429,6.385,5.14,9.581c0.933,1.732,1.867,3.458,2.835,5.169
	c1.11,1.98,2.1,4.009,2.623,6.244c0.106,0.488,0.311,0.954,0.467,1.435c0.417,1.301,0.749,2.616,0.749,3.995
	c0,0.926,0.212,1.796,0.636,2.616C375.871,76.764,376.112,77.429,376.098,78.029"/>
<path fill-rule="evenodd" clip-rule="evenodd" d="M680.608,74.514c-2.171,0-4.334,0.035-6.498-0.014
	c-0.948-0.028-1.895-0.219-2.835-0.353c-0.65-0.085-1.294-0.212-1.937-0.311c-0.898-0.142-1.789-0.269-2.687-0.41
	c-0.247-0.042-0.488-0.113-0.742-0.148c-3.182-0.473-6.364-1.025-9.56-1.393c-3.203-0.361-6.442-0.361-9.652-0.057
	c-2.517,0.24-4.943,0.99-7.163,2.241c-1.966,1.11-4.03,1.775-6.286,1.959c-0.898,0.071-1.782,0.332-2.659,0.537
	c-0.785,0.184-1.549,0.438-2.333,0.622c-0.806,0.198-1.598,0.141-2.355-0.248c-1.329-0.679-2.036-2.05-1.428-3.401
	c0.693-1.556,0.905-3.175,1.209-4.809c0.233-1.244,0.785-2.383,1.322-3.521c0.431-0.912,0.849-1.831,1.273-2.743
	c0.424-0.919,0.757-1.852,0.813-2.885c0.057-0.884,0.502-1.64,1.174-2.213c1.082-0.919,2.263-1.718,3.649-2.086
	c1.527-0.403,2.892-1.153,4.271-1.881c1.775-0.94,3.535-1.916,5.324-2.835c1.895-0.969,3.67-2.093,5.183-3.613
	c0.488-0.495,1.054-0.948,1.64-1.315c1.881-1.174,3.797-2.284,5.678-3.458c0.721-0.452,1.421-0.954,2.029-1.541
	c1.994-1.924,3.946-3.889,5.883-5.869c0.523-0.53,1.011-1.124,1.407-1.768c0.919-1.485,2.157-2.645,3.535-3.67
	c2.192-1.633,4.525-3.055,7.021-4.13c2.97-1.28,5.77-2.863,8.626-4.349c1.966-1.018,3.953-2.001,5.918-3.026
	c1.068-0.558,2.107-1.174,3.147-1.796c1.555-0.926,3.09-1.888,4.638-2.821c2.206-1.343,4.561-2.376,6.979-3.239
	c0.848-0.304,1.739-0.523,2.63-0.643c3.599-0.481,6.194,1.216,8.252,3.974c0.325,0.445,0.58,0.948,0.891,1.407
	c0.742,1.075,1.082,2.263,1.025,3.557c-0.049,1.237,0.205,2.404,0.721,3.521c0.58,1.258,0.785,2.588,0.757,3.967
	c-0.028,1.315,0.021,2.624,0.007,3.932c-0.028,2.015,0.035,4.023,0.346,6.024c0.134,0.891,0.148,1.81,0.156,2.715
	c0.021,2.262,0.035,4.525,0,6.788c-0.014,0.955-0.156,1.909-0.233,2.857c-0.092,1.054-0.24,2.107-0.255,3.161
	c-0.042,2.715-0.057,5.437-0.007,8.153c0.028,1.739-0.431,3.281-1.541,4.617c-0.707,0.849-1.386,1.725-2.135,2.539
	c-0.99,1.047-2.22,1.74-3.599,2.135c-2.086,0.601-4.137,1.28-6.123,2.135c-1.414,0.601-2.878,0.905-4.419,0.848
	c-1.273-0.042-2.496,0.127-3.705,0.58c-1.315,0.495-2.652,0.955-3.995,1.365c-0.813,0.247-1.655,0.445-2.503,0.53
	C687.855,74.514,684.235,74.684,680.608,74.514"/>
<path fill-rule="evenodd" clip-rule="evenodd" d="M676.396,186.944c-0.453,0-0.905-0.014-1.358,0
	c-2.843,0.127-5.614-0.226-8.358-1.004c-2.567-0.729-5.176-1.287-7.778-1.895c-2.043-0.474-3.967-1.266-5.593-2.56
	c-4.872-3.861-10.274-6.922-15.407-10.387c-1.287-0.87-2.539-1.817-3.719-2.835c-2.602-2.263-5.438-4.158-8.605-5.522
	c-0.651-0.283-1.308-0.558-1.909-0.926c-2.1-1.28-4.299-2.404-6.35-3.797c-1.28-0.863-2.729-1.506-4.165-2.107
	c-1.527-0.636-3.139-1.096-4.702-1.655c-1.089-0.382-2.157-0.827-3.253-1.202c-0.559-0.191-1.16-0.304-1.747-0.403
	c-0.445-0.063-0.905-0.028-1.358-0.071c-0.778-0.078-1.457-0.396-2.008-0.947c-0.856-0.835-1.046-2.029-0.417-3.04
	c0.311-0.502,0.757-0.933,1.216-1.322c2.885-2.432,6.187-4.108,9.715-5.402c1.315-0.488,2.595-1.103,3.854-1.725
	c0.332-0.163,0.615-0.53,0.806-0.87c0.742-1.351,1.888-1.825,3.387-1.803c2.114,0.042,4.2,0.191,6.286,0.665
	c1.81,0.41,3.684,0.665,5.536,0.714c3.634,0.099,7.226,0.551,10.833,0.919c2.454,0.248,4.921,0.403,7.389,0.432
	c5.692,0.063,11.384-0.007,17.076,0.035c2.107,0.014,4.101-0.347,6.01-1.23c1.506-0.693,3.026-1.365,4.561-2.015
	c1.315-0.566,2.482-1.351,3.465-2.376c1.605-1.676,3.55-2.793,5.678-3.649c1.959-0.785,3.896-1.654,5.904-2.305
	c2.058-0.672,4.165-1.188,6.279-1.647c1.075-0.233,2.199-0.269,3.309-0.283c1.824-0.014,3.606-0.191,5.324-0.877
	c1.534-0.615,3.154-0.665,4.766-0.53c2.241,0.177,3.429,1.697,3.111,3.924c-0.057,0.353-0.12,0.7-0.226,1.032
	c-0.46,1.442-0.87,2.899-1.414,4.306c-0.94,2.447-1.909,4.886-2.984,7.269c-1.74,3.854-3.5,7.707-5.367,11.497
	c-2.192,4.426-4.462,8.811-6.795,13.159c-1.478,2.75-3.139,5.402-4.723,8.082c-0.255,0.431-0.559,0.848-0.884,1.23
	c-2.341,2.779-4.341,5.806-6.491,8.726c-0.184,0.24-0.354,0.495-0.523,0.743c-0.757,1.06-1.782,1.612-3.083,1.633
	c-1.053,0.021-2.114,0.014-3.175,0.021C677.81,186.944,677.103,186.944,676.396,186.944"/>
<path fill-rule="evenodd" clip-rule="evenodd" d="M146.488,163.508c4.179,0,8.358,0,12.537,0c2.036,0,2.248-0.17,2.546-2.128
	c0.177-1.16,0.629-2.22,1.082-3.288c0.247-0.608,0.516-1.202,0.735-1.817c0.12-0.354-0.113-0.707-0.474-0.827
	c-0.092-0.035-0.191-0.071-0.29-0.078c-1.287-0.043-2.454-0.509-3.627-0.969c-0.813-0.318-1.669-0.403-2.524-0.375
	c-1.846,0.07-3.606-0.233-5.324-0.898c-0.559-0.212-1.167-0.311-1.761-0.403c-2.192-0.361-4.108-1.266-5.777-2.743
	c-0.488-0.432-0.997-0.848-1.563-1.167c-1.216-0.686-2.164-1.633-2.97-2.743c-3.139-4.327-6.215-8.683-8.726-13.414
	c-0.566-1.068-1.174-2.114-1.803-3.147c-1.011-1.647-1.768-3.394-2.263-5.254c-0.24-0.884-0.544-1.725-1.131-2.44
	c-0.099-0.12-0.17-0.254-0.247-0.382c-0.488-0.82-0.495-1.627,0.071-2.411c0.573-0.792,1.358-1.252,2.34-1.047
	c0.778,0.163,1.549,0.445,2.27,0.799c1.138,0.552,2.319,0.955,3.528,1.301c1.068,0.304,2.107,0.693,3.139,1.082
	c3.076,1.16,6.272,1.852,9.496,2.404c0.75,0.12,1.499,0.248,2.248,0.297c3.288,0.184,6.463,1.011,9.666,1.676
	c2.312,0.488,4.61,1.025,6.979,1.245c1.499,0.134,2.977,0.495,4.462,0.785c0.806,0.148,1.584,0.205,2.39-0.007
	c1.336-0.353,2.701-0.226,4.059-0.155c0.665,0.028,1.28,0.276,1.824,0.665c0.679,0.495,1.421,0.721,2.263,0.672
	c0.99-0.049,1.888,0.269,2.715,0.778c0.559,0.346,1.117,0.686,1.648,1.068c0.82,0.594,1.308,1.414,1.336,2.432
	c0.035,1.308,0.071,2.63-0.057,3.924c-0.085,0.884-0.382,1.768-0.714,2.602c-0.389,0.962-0.58,1.916-0.573,2.942
	c0.007,1.563-0.014,3.125-0.014,4.681c0,1.025-0.184,2.015-0.665,2.92c-0.905,1.697-1.379,3.563-2.107,5.324
	c-0.276,0.65-0.502,1.322-0.841,1.93c-0.573,1.032-0.962,2.1-0.898,3.302c0.035,0.615-0.127,1.195-0.375,1.753
	c-0.198,0.46-0.382,0.948-0.474,1.429c-0.318,1.782,0.481,3.401,2.157,4.059c2.058,0.806,4.151,1.605,6.435,1.414
	c2.461-0.198,4.646,0.65,6.76,1.768c0.849,0.445,1.725,0.834,2.553,1.308c1.096,0.615,2.171,1.266,3.217,1.958
	c0.658,0.432,0.629,0.87,0,1.294c-1.131,0.757-2.27,1.492-3.408,2.241c-2.729,1.81-5.43,3.656-8.195,5.409
	c-2.765,1.753-5.77,2.835-9.107,2.786c-0.559-0.007-1.11-0.021-1.662,0c-2.036,0.092-4.023-0.162-5.947-0.855
	c-0.191-0.063-0.382-0.127-0.58-0.17c-2.659-0.559-5.303-1.16-7.976-1.655c-2.828-0.537-5.621-1.252-8.273-2.34
	c-3.274-1.343-6.668-2.263-10.083-3.111c-5.72-1.428-11.427-2.892-16.956-4.935c-0.665-0.24-1.351-0.403-2.008-0.658
	c-1.266-0.488-2.531-0.983-3.776-1.527c-1.103-0.495-2.213-0.94-3.387-1.266c-0.912-0.254-1.761-0.728-2.616-1.145
	c-0.304-0.148-0.587-0.403-0.806-0.665c-0.141-0.17-0.255-0.488-0.184-0.679c0.057-0.177,0.346-0.36,0.559-0.389
	c0.445-0.071,0.905-0.042,1.358-0.05c0.905-0.007,1.81-0.007,2.715-0.014c0.912-0.007,1.81-0.113,2.659-0.481
	c0.75-0.332,1.541-0.446,2.355-0.438c1.075,0.014,2.107-0.191,3.118-0.516c1.202-0.389,2.418-0.707,3.599-1.153
	c0.962-0.36,1.937-0.474,2.956-0.467c4.129,0.007,8.259,0,12.388,0V163.508z"/>
<path fill-rule="evenodd" clip-rule="evenodd" d="M660.252,120.289c-2.312,0.106-4.624,0.227-6.937,0.311
	c-1.287,0.057-2.44,0.594-3.649,0.933c-0.58,0.17-1.146,0.382-1.725,0.537c-1.266,0.353-2.503,0.75-3.641,1.428
	c-0.559,0.325-1.16,0.629-1.782,0.813c-2.128,0.615-4.271,1.153-6.406,1.747c-0.622,0.177-1.216,0.445-1.824,0.679
	c-1.365,0.516-2.652,0.113-3.436-1.082c-0.325-0.481-0.417-1.018-0.431-1.577c-0.028-1.301,0.297-2.539,1.004-3.592
	c1.725-2.552,3.104-5.296,4.688-7.926c1.216-2.022,2.588-3.96,3.861-5.947c0.325-0.502,0.636-1.047,0.799-1.619
	c0.453-1.556,1.16-2.998,1.853-4.448c0.884-1.867,1.739-3.747,2.623-5.607c0.502-1.047,1.011-2.086,1.57-3.097
	c0.318-0.587,0.58-1.16,0.651-1.832c0.156-1.499,1.068-2.319,2.461-2.715c1.124-0.319,2.234-0.566,3.408-0.177
	c0.778,0.255,1.598,0.198,2.397,0.05c1.386-0.248,2.765-0.545,4.158-0.778c0.99-0.17,1.987-0.34,2.984-0.396
	c1.457-0.085,2.92-0.092,4.384-0.099c3.168-0.014,6.343,0.071,9.51-0.021c2.842-0.078,5.487,0.58,8.075,1.654
	c0.926,0.389,1.846,0.806,2.786,1.16c1.174,0.438,2.093,1.174,2.885,2.122c0.877,1.039,1.761,2.072,2.666,3.09
	c1.011,1.146,1.796,2.425,2.326,3.854c0.191,0.509,0.332,1.068,0.368,1.612c0.106,1.365-0.636,2.447-1.937,2.892
	c-0.283,0.099-0.587,0.184-0.884,0.184c-1.273,0.014-2.319,0.573-3.366,1.202c-1.867,1.124-3.599,2.404-5.02,4.073
	c-0.389,0.46-0.834,0.877-1.301,1.258c-2.828,2.284-5.218,5.027-7.934,7.432c-0.368,0.339-0.735,0.693-1.075,1.06
	c-0.714,0.75-1.556,1.245-2.588,1.457c-0.53,0.114-1.061,0.318-1.541,0.58c-1.089,0.587-2.242,0.87-3.479,0.855
	c-2.164-0.014-4.327,0-6.498,0C660.252,120.331,660.252,120.31,660.252,120.289"/>
<path fill-rule="evenodd" clip-rule="evenodd" d="M309.18,68.461c0,2.814-0.007,5.636,0,8.457c0.007,2.729,0.7,5.275,2.114,7.615
	c0.368,0.601,0.785,1.167,1.23,1.719c1.075,1.308,1.103,2.786,0.601,4.278c-0.424,1.252-1.407,1.93-2.722,2.079
	c-1.046,0.12-2.015-0.177-2.857-0.757c-1.301-0.891-2.687-1.577-4.137-2.164c-0.735-0.297-1.4-0.792-2.065-1.244
	c-1.966-1.308-3.91-2.659-5.883-3.967c-0.453-0.297-0.976-0.544-1.499-0.686c-0.792-0.212-1.506-0.573-2.164-1.047
	c-2.687-1.937-5.388-3.882-8.068-5.847c-0.728-0.53-1.393-1.146-2.093-1.732c-1.174-0.983-2.093-2.157-2.729-3.564
	c-0.226-0.502-0.502-0.99-0.813-1.442c-1.485-2.15-2.885-4.37-4.667-6.307c-0.198-0.226-0.396-0.452-0.58-0.693
	c-1.973-2.623-4.108-5.084-6.47-7.368c-1.909-1.845-3.118-4.186-4.356-6.491c-0.212-0.389-0.375-0.856-0.396-1.287
	c-0.064-1.358-0.078-2.715-0.057-4.073c0.007-0.559,0.247-1.089,0.636-1.499c1.046-1.096,2.121-2.149,3.663-2.56
	c1.124-0.29,2.213-0.714,3.337-0.954c2.114-0.453,3.974,0.07,5.565,1.57c1.068,1.004,2.185,1.937,3.281,2.906
	c0.955,0.841,2.043,1.463,3.231,1.916c2.581,0.997,5.211,1.831,7.948,2.362c2.616,0.495,5.211,1.153,7.714,2.079
	c0.962,0.353,1.923,0.573,2.949,0.552c0.148,0,0.304,0.014,0.453,0.007c1.86-0.05,3.253,0.7,4.37,2.22
	c0.94,1.287,2.051,2.475,3.182,3.613c0.877,0.884,1.294,1.86,1.287,3.097C309.159,62.317,309.18,65.386,309.18,68.461z"/>
<path fill-rule="evenodd" clip-rule="evenodd" d="M418.941,100.761c0.057,2.871,0.106,5.742,0.17,8.612
	c0.028,1.429-0.106,2.821-0.82,4.094c-0.481,0.855-0.7,1.768-0.686,2.757c0.007,0.714-0.184,1.386-0.679,1.952
	c-0.898,1.04-2.135,1.216-3.224,0.389c-0.389-0.297-0.735-0.693-1.011-1.103c-0.481-0.722-1.025-1.365-1.747-1.86
	c-1.089-0.757-1.768-1.775-1.923-3.111c-0.106-0.856-0.551-1.506-1.216-2.015c-1.598-1.216-3.196-2.447-4.836-3.613
	c-0.651-0.467-1.393-0.813-2.114-1.167c-1.061-0.517-1.952-1.23-2.722-2.114c-1.619-1.86-3.26-3.705-4.886-5.558
	c-1.266-1.442-2.432-2.949-3.345-4.645c-1.146-2.129-2.397-4.2-3.634-6.272c-0.898-1.492-1.485-3.069-1.669-4.808
	c-0.106-0.948-0.332-1.888-0.615-2.793c-0.474-1.506-0.735-3.034-0.735-4.61c0-4.632,0.007-9.27-0.014-13.901
	c-0.007-1.435,0.53-2.539,1.761-3.288c1.287-0.792,2.546-0.58,3.472,0.622c0.297,0.396,0.53,0.856,0.721,1.322
	c0.566,1.386,1.471,2.482,2.659,3.408c2.503,1.952,4.964,3.953,7.446,5.925c1.973,1.577,3.769,3.337,5.508,5.169
	c1.315,1.393,2.609,2.793,3.967,4.144c0.636,0.636,1.365,1.195,2.107,1.711c1.761,1.23,3.175,2.786,4.441,4.497
	c0.87,1.167,1.704,2.376,2.595,3.528c0.806,1.047,1.146,2.185,1.124,3.507c-0.049,3.076-0.014,6.144-0.014,9.22H418.941z"/>
<path fill-rule="evenodd" clip-rule="evenodd" d="M477.932,206.103c-0.085,1.393-0.389,2.609-1.626,3.444
	c-0.318,0.219-0.559,0.573-0.813,0.877c-0.163,0.191-0.269,0.424-0.438,0.615c-1.068,1.223-2.8,0.954-3.436-0.53
	c-0.134-0.325-0.198-0.679-0.262-1.025c-0.177-1.138-0.721-2.079-1.506-2.906c-1.202-1.28-2.425-2.552-3.613-3.854
	c-0.834-0.905-1.831-1.372-3.069-1.365c-1.718,0.014-3.429-0.035-5.14-0.007c-2.086,0.035-4.108-0.297-6.088-0.954
	c-1.626-0.538-3.246-1.082-4.872-1.619c-1.775-0.587-3.062-1.697-3.755-3.458c-0.29-0.757-0.629-1.485-0.94-2.227
	c-0.537-1.301-1.103-2.595-1.598-3.917c-0.615-1.647-1.174-3.316-1.747-4.985c-0.29-0.855-0.566-1.718-0.841-2.581
	c-0.205-0.672-0.431-1.343-0.601-2.022c-0.276-1.075-0.58-2.128-1.174-3.09c-0.552-0.884-0.686-1.888-0.467-2.914
	c0.346-1.69,1.789-2.397,3.316-1.626c0.948,0.481,1.846,1.047,2.793,1.513c0.721,0.347,1.478,0.643,2.249,0.863
	c1.11,0.325,2.241,0.587,3.373,0.834c2.963,0.665,5.791,1.711,8.57,2.906c1.662,0.714,3.274,1.556,4.893,2.362
	c1.669,0.82,3.316,1.697,4.999,2.51c1.577,0.763,2.864,1.853,3.832,3.316c1.075,1.64,2.135,3.295,3.203,4.95
	c1.054,1.626,1.669,3.436,2.22,5.275c0.693,2.256,1.358,4.532,1.98,6.816C477.628,204.215,477.748,205.17,477.932,206.103"/>
<path fill-rule="evenodd" clip-rule="evenodd" d="M541.375,180.979c-0.29-1.76,0.813-3.153,1.641-4.631
	c0.262-0.474,0.728-0.707,1.266-0.714c0.856-0.007,1.718-0.035,2.567,0.057c1.549,0.184,2.666,1.52,2.765,3.097
	c0.148,2.461-0.792,4.398-2.722,5.897c-0.551,0.424-1.167,0.693-1.824,0.467c-0.898-0.318-1.775-0.714-2.623-1.138
	c-0.728-0.375-1.068-1.032-1.068-1.867C541.375,181.8,541.375,181.446,541.375,180.979 M546.112,177.281
	c-0.488,0.099-0.891,0.149-1.273,0.269c-0.396,0.127-0.686,0.403-0.877,0.785c-0.205,0.41,0.057,0.912,0.502,0.841
	c0.841-0.12,1.683-0.297,2.51-0.488c0.424-0.106,0.53-0.728,0.163-0.962C546.812,177.522,546.423,177.408,546.112,177.281
	 M545.136,183.284c0.156,0,0.205,0.007,0.262,0c0.792-0.091,1.973-1.378,2.029-2.206c0.014-0.212-0.247-0.488-0.474-0.509
	c-0.375-0.035-0.686,0.12-0.948,0.375c-0.431,0.424-0.87,0.835-1.259,1.301c-0.127,0.155-0.184,0.488-0.106,0.665
	C544.726,183.101,545.009,183.2,545.136,183.284"/>
<path fill-rule="evenodd" clip-rule="evenodd" d="M537.237,184.496c0,0.82-0.813,1.619-1.648,1.633
	c-0.849,0.014-1.669-0.877-1.662-1.796c0-0.82,0.686-1.492,1.541-1.52C536.381,182.792,537.237,183.605,537.237,184.496"/>
<path fill-rule="evenodd" clip-rule="evenodd" d="M549.659,185.978c0.269,0.057,0.721,0.106,1.138,0.248
	c0.297,0.092,0.474,0.361,0.481,0.693c0,0.339-0.191,0.558-0.474,0.7c-0.134,0.063-0.283,0.12-0.424,0.134
	c-0.841,0.113-1.683,0.212-2.531,0.297c-0.191,0.014-0.396-0.028-0.58-0.092c-0.474-0.155-0.643-0.771-0.262-1.089
	c0.332-0.283,0.742-0.481,1.138-0.686c0.17-0.085,0.389-0.092,0.587-0.12C548.98,186.035,549.228,186.013,549.659,185.978"/>
<path fill-rule="evenodd" clip-rule="evenodd" d="M548.298,189.202c0.502,0.142,1.329,0.325,2.121,0.609
	c0.509,0.184,0.7,0.657,0.566,1.082c-0.127,0.424-0.559,0.735-1.061,0.608c-0.87-0.212-1.718-0.495-2.567-0.785
	c-0.346-0.12-0.573-0.403-0.537-0.806c0.028-0.368,0.389-0.658,0.849-0.707C547.768,189.195,547.867,189.202,548.298,189.202"/>
<path fill-rule="evenodd" clip-rule="evenodd" d="M547.66,194.94c-0.085-0.021-0.318-0.021-0.453-0.134
	c-0.608-0.523-1.209-1.047-1.761-1.626c-0.262-0.262-0.276-0.637-0.057-0.969c0.205-0.318,0.721-0.46,1.082-0.184
	c0.665,0.516,1.322,1.068,1.881,1.69C548.763,194.183,548.374,194.912,547.66,194.94"/>
<path fill-rule="evenodd" clip-rule="evenodd" fill="#FFFFFF" d="M543.714,203.92c0.304,0,0.516-0.057,0.686,0.007
	c1.252,0.452,2.496,0.191,3.726-0.064c1.103-0.233,1.626-1.237,1.28-2.319c-0.198-0.587-0.516-1.103-1.046-1.442
	c-1.018-0.643-2.001-1.358-3.132-1.81c-0.325-0.127-0.658-0.29-0.997-0.319c-0.933-0.085-1.718-0.565-2.56-0.891
	c-0.693-0.262-1.032-0.764-0.997-1.52c0.028-0.495,0.007-1.004,0.05-1.506c0.078-0.947-0.191-1.796-0.665-2.595
	c-1.039-1.761-2.489-3.125-4.497-3.543c-2.793-0.587-5.423-0.17-7.502,2.051c-0.304,0.332-0.594,0.686-0.905,1.011
	c-0.099,0.106-0.24,0.219-0.375,0.233c-0.184,0.028-0.424,0.021-0.559-0.085c-0.127-0.099-0.198-0.333-0.212-0.517
	c-0.014-0.127,0.071-0.297,0.163-0.41c0.502-0.615,0.488-1.174-0.141-1.704c-0.099-0.085-0.127-0.255-0.219-0.446
	c0.276-0.283,0.566-0.551,0.813-0.855c0.24-0.29,0.156-0.742-0.17-0.919c-0.346-0.184-0.714-0.325-1.025-0.467
	c-0.141-0.629,0.339-0.729,0.629-0.976c0.445-0.396,0.488-0.693,0.177-1.181c-0.106-0.17-0.262-0.311-0.375-0.474
	c-0.368-0.509-0.325-1.053-0.028-1.556c0.12-0.198,0.361-0.424,0.559-0.431c0.184-0.007,0.445,0.212,0.552,0.403
	c0.233,0.382,0.361,0.834,0.58,1.223c0.552,0.969,1.054,1.167,2.135,0.933c1.959-0.417,3.274-1.676,4.264-3.337
	c0.078-0.127,0.156-0.276,0.17-0.417c0.205-1.655,0.417-3.302-0.636-4.808c-0.707-1.018-0.629-1.358,0.438-1.845
	c2.199-0.997,4.363-2.121,6.647-2.878c3.585-1.202,7.241-2.157,11.094-2.008c1.959,0.078,3.924,0.028,5.89,0.022
	c1.669-0.007,3.316,0.191,4.943,0.558c1.718,0.396,3.451,0.735,5.169,1.11c1.633,0.353,2.404,0.191,3.182-1.874
	c0.212-0.558,0.375-1.145,0.559-1.718c0.559-1.803,1.697-3.189,3.147-4.327c0.87-0.686,1.761-1.358,2.694-1.944
	c2.404-1.514,5.063-2.214,7.87-2.362c2.227-0.113,4.433,0.17,6.618,0.509c1.181,0.184,2.319,0.672,3.451,1.075
	c0.919,0.332,1.648,0.962,2.298,1.683c1.336,1.506,2.128,3.281,2.553,5.232c0.12,0.558,0.099,1.103-0.127,1.633
	c-0.191,0.459-0.41,0.912-0.629,1.372c-0.064,0.134-0.17,0.247-0.24,0.375c-2.461,4.469-6.392,7.156-10.988,9.001
	c-1.018,0.41-2.029,0.856-3.154,0.99c-1.195,0.148-1.676,0.919-1.23,2.065c0.643,1.633,0.771,3.33,0.919,5.027
	c0.099,1.103,0.106,2.22,0.071,3.324c-0.085,2.715-1.358,4.893-3.154,6.837c-2.22,2.411-5.049,3.783-8.096,4.787
	c-0.622,0.205-1.237,0.417-1.838,0.672c-0.269,0.113-0.523,0.318-0.721,0.53c-0.368,0.396-0.389,0.983-0.007,1.372
	c0.276,0.276,0.622,0.509,0.976,0.686c0.403,0.191,0.856,0.297,1.287,0.431c2.157,0.679,4.349,1.273,6.477,2.051
	c1.93,0.714,3.811,1.57,5.671,2.46c2.093,0.997,4.129,2.086,6.187,3.161c0.622,0.318,1.216,0.7,1.817,1.075
	c0.474,0.29,0.898,0.672,1.393,0.898c2.121,0.962,4.03,2.277,6.003,3.486c0.792,0.488,1.605,0.792,2.567,0.714
	c0.445-0.042,0.898,0.057,1.343,0.148c2.496,0.467,5.006,0.445,7.523,0.17c0.799-0.085,1.605-0.17,2.404-0.176
	c2.072-0.014,4.122-0.248,6.166-0.53c4.815-0.665,9.645-0.742,14.467-0.24c1.952,0.198,3.875,0.637,5.812,0.969
	c0.396,0.07,0.785,0.212,1.181,0.226c1.245,0.05,2.348,0.545,3.444,1.047c0.233,0.099,0.46,0.212,0.665,0.353
	c0.679,0.467,0.813,0.976,0.403,1.676c-0.721,1.209-1.492,2.397-2.574,3.33c-0.552,0.474-0.912,0.474-1.464-0.007
	c-0.488-0.431-0.983-0.862-1.45-1.322c-0.573-0.559-1.259-0.799-2.044-0.842c-1.004-0.05-2.008-0.12-3.019-0.148
	c-1.86-0.057-3.726,0.007-5.586-0.148c-1.86-0.148-3.712-0.219-5.579-0.163c-2.779,0.085-5.515,0.488-8.124,1.506
	c-1.782,0.693-3.564,1.379-5.331,2.121c-0.643,0.269-1.294,0.601-1.838,1.032c-1.86,1.492-3.96,2.588-6.102,3.585
	c-2.213,1.039-4.193,2.39-6.024,3.988c-1.103,0.962-2.241,1.867-3.387,2.772c-0.799,0.636-1.506,1.329-2.072,2.185
	c-0.495,0.757-1.068,1.471-1.534,2.242c-0.537,0.905-1.061,1.832-1.471,2.793c-0.58,1.35-1.188,2.666-2.029,3.868
	c-0.41,0.58-0.785,1.181-1.138,1.789c-1.153,1.98-2.772,3.571-4.342,5.204c-0.976,1.018-1.966,2.022-2.949,3.033
	c-1.152,1.195-2.362,2.327-3.656,3.38c-1.987,1.626-3.903,3.337-5.862,4.999c-0.841,0.714-1.704,1.414-2.602,2.065
	c-0.347,0.254-0.806,0.502-1.23,0.523c-1.301,0.078-2.609,0.05-3.917,0.064c-0.049,0-0.106-0.007-0.148-0.028
	c-0.156-0.113-0.417-0.219-0.431-0.353c-0.028-0.219,0.042-0.537,0.198-0.665c0.255-0.212,0.594-0.347,0.919-0.446
	c0.233-0.07,0.502-0.035,0.75-0.028c0.544,0.014,0.983-0.191,1.35-0.573c0.141-0.148,0.29-0.283,0.424-0.432
	c2.701-3.125,5.706-5.968,8.626-8.881c1.181-1.181,2.249-2.439,3.083-3.896c0.566-1.011,1.23-1.966,1.853-2.942
	c1.11-1.74,2.135-3.521,2.927-5.445c0.445-1.068,1.054-2.065,1.563-3.104c0.544-1.125,0.078-2.362-1.089-2.835
	c-0.417-0.17-0.877-0.241-1.322-0.29c-3.641-0.403-7.085-1.45-10.415-2.956c-1.343-0.601-2.623-1.28-3.861-2.057
	c-1.747-1.103-3.543-2.122-5.225-3.317c-1.556-1.103-2.998-2.368-4.469-3.592c-1.591-1.322-3.048-2.786-4.405-4.349
	c-2.135-2.453-3.825-5.176-5.169-8.131c-0.064-0.135-0.099-0.283-0.127-0.424c-0.064-0.255,0.12-0.545,0.375-0.559
	c0.297-0.014,0.608-0.021,0.891,0.043c1.937,0.452,3.889,0.509,5.855,0.325c0.806-0.078,1.612-0.042,2.418-0.071
	c0.658-0.028,1.322-0.007,1.959-0.141c2.609-0.523,5.247-0.962,7.778-1.846c0.799-0.283,1.591-0.636,2.333-1.046
	c0.474-0.262,0.898-0.658,1.251-1.075c0.417-0.481,0.078-1.152-0.566-1.195c-0.714-0.049-1.407,0.064-2.058,0.389
	c-1.534,0.778-3.168,1.273-4.872,1.556c-0.346,0.057-0.693,0.12-1.032,0.219c-2.001,0.573-4.03,0.87-6.116,0.763
	c-0.396-0.021-0.813,0-1.209,0.064c-1.563,0.262-3.111,0.141-4.653-0.134c-1.294-0.227-2.574-0.495-3.854-0.764
	c-1.591-0.325-3.097-0.877-4.561-1.577c-0.813-0.382-1.669-0.693-2.503-1.053c-1.237-0.53-2.199-1.35-2.892-2.538
	c-0.608-1.047-1.23-2.079-1.563-3.26c-0.191-0.686-0.516-1.301-0.997-1.839c-0.587-0.657-0.948-1.428-1.068-2.298
	c-0.127-0.927,0.149-1.662,0.969-2.015c1.273-0.558,2.595-0.884,3.846,0.106c0.382,0.304,0.771,0.467,1.252,0.318
	c0.403-0.12,0.806-0.191,1.11,0.177c0.375,0.452,0.665,0.997,0.368,1.534c-0.573,1.025-0.184,1.86,0.198,2.835
	c0.403,1.053,1.011,1.81,1.923,2.419c0.502,0.332,0.919,0.778,1.386,1.159c0.714,0.594,1.506,0.948,2.447,1.082
	c1.64,0.233,3.26,0.601,4.844,1.138c2.1,0.728,4.172,0.339,6.194-0.417c0.092-0.035,0.184-0.085,0.269-0.141
	c0.311-0.205,0.537-0.467,0.481-0.87c-0.05-0.396-0.318-0.65-0.672-0.728c-0.488-0.099-0.99-0.156-1.485-0.142
	c-0.445,0.014-0.891,0.163-1.336,0.248c-1.16,0.212-2.291,0.163-3.408-0.304c-0.495-0.212-1.068-0.262-1.598-0.403
	c-1.018-0.268-2.051-0.516-3.048-0.848c-0.41-0.134-0.764-0.46-1.11-0.749C543.743,204.394,543.764,204.153,543.714,203.92
	 M541.374,180.982c0,0.46,0,0.814,0,1.167c0,0.827,0.339,1.492,1.068,1.86c0.848,0.431,1.725,0.82,2.623,1.138
	c0.658,0.233,1.273-0.035,1.824-0.46c1.93-1.506,2.871-3.437,2.722-5.904c-0.099-1.57-1.216-2.906-2.765-3.09
	c-0.848-0.099-1.711-0.063-2.567-0.057c-0.537,0.007-1.004,0.24-1.266,0.707C542.187,177.828,541.084,179.221,541.374,180.982
	 M537.237,184.496c0-0.891-0.855-1.704-1.768-1.683c-0.856,0.028-1.541,0.7-1.541,1.52c-0.007,0.919,0.813,1.81,1.655,1.796
	C536.424,186.115,537.23,185.316,537.237,184.496 M549.661,185.974c-0.431,0.042-0.679,0.057-0.933,0.092
	c-0.191,0.028-0.41,0.035-0.58,0.12c-0.396,0.205-0.806,0.403-1.145,0.686c-0.375,0.318-0.205,0.933,0.262,1.082
	c0.191,0.064,0.396,0.113,0.587,0.092c0.841-0.078,1.69-0.184,2.524-0.29c0.149-0.021,0.297-0.07,0.424-0.141
	c0.29-0.142,0.481-0.361,0.481-0.7c-0.007-0.332-0.191-0.594-0.488-0.693C550.375,186.087,549.93,186.031,549.661,185.974
	 M548.296,189.198c-0.424,0-0.523,0-0.629,0.007c-0.453,0.042-0.813,0.332-0.848,0.7c-0.035,0.403,0.198,0.686,0.544,0.806
	c0.841,0.297,1.697,0.573,2.56,0.792c0.502,0.12,0.933-0.184,1.068-0.608c0.127-0.424-0.064-0.898-0.566-1.082
	C549.626,189.531,548.805,189.34,548.296,189.198 M547.66,194.94c0.714-0.028,1.103-0.757,0.693-1.223
	c-0.559-0.622-1.216-1.174-1.881-1.69c-0.361-0.276-0.877-0.134-1.082,0.184c-0.219,0.332-0.205,0.707,0.057,0.969
	c0.552,0.58,1.153,1.103,1.761,1.626C547.342,194.919,547.575,194.919,547.66,194.94"/>
<path fill-rule="evenodd" clip-rule="evenodd" fill="#FFFFFF" d="M533.604,159.023c-0.12-1.909,0.396-3.641,0.997-5.36
	c0.035-0.092,0.071-0.191,0.12-0.276c1.188-2.022,2.609-3.86,4.702-4.985c2.135-1.153,4.44-1.902,6.887-2.058
	c3.507-0.233,6.102,1.343,8.025,4.15c0.361,0.53,0.53,1.188,0.764,1.796c0.092,0.233,0.092,0.495,0.177,0.735
	c0.82,2.319,0.332,4.554-0.403,6.788c-0.764,2.312-2.199,4.157-3.896,5.84c-0.417,0.417-0.912,0.573-1.485,0.643
	c-1.442,0.184-2.899,0.332-4.32,0.65c-1.761,0.389-3.507,0.891-5.232,1.428c-0.693,0.219-1.252,0.24-1.803-0.269
	c-0.29-0.276-0.608-0.537-0.948-0.75c-1.442-0.905-2.241-2.27-2.8-3.818C533.859,162.064,533.484,160.558,533.604,159.023"/>
<path fill-rule="evenodd" clip-rule="evenodd" fill="#FFFFFF" d="M519.072,210.004c-1.089,0.085-1.881-0.162-2.531-0.806
	c-0.495-0.481-0.608-1.011-0.325-1.648c0.099-0.226,0.233-0.445,0.389-0.636c0.919-1.138,1.831-2.27,2.984-3.196
	c1.287-1.039,2.51-2.171,3.755-3.26c0.948-0.82,1.23-1.803,0.735-2.984c-0.014-0.042-0.028-0.099-0.05-0.142
	c-0.559-1.089,0.481-2.157,1.527-1.732c0.665,0.269,1.28,0.099,1.923,0c1.032-0.17,1.888,0.106,2.475,1.04
	c0.283,0.452,0.438,0.933,0.219,1.428c-0.332,0.757-0.417,1.535-0.382,2.355c0.014,0.382-0.113,0.806-0.29,1.16
	c-1.174,2.312-2.758,4.32-4.794,5.94c-0.552,0.438-1.167,0.792-1.725,1.216C521.766,209.679,520.38,210.018,519.072,210.004"/>
<path fill-rule="evenodd" clip-rule="evenodd" fill="#FFFFFF" d="M533.801,192.669c0.205,0.05,0.424,0.057,0.587,0.149
	c1.167,0.714,2.383,0.968,3.748,0.707c0.643-0.12,0.997,0.417,0.82,1.075c-0.106,0.375-0.417,0.622-0.778,0.559
	c-0.445-0.085-0.891-0.184-1.308-0.347c-0.94-0.353-1.86-0.742-2.779-1.132c-0.184-0.078-0.368-0.184-0.502-0.325
	c-0.085-0.092-0.141-0.276-0.106-0.389C533.518,192.846,533.681,192.775,533.801,192.669"/>
<path fill-rule="evenodd" clip-rule="evenodd" fill="#FFFFFF" d="M532.448,177.508c0.042,0.693-0.474,1.033-0.912,0.735
	c-0.453-0.297-0.877-0.657-1.266-1.046c-0.297-0.297-0.12-0.806,0.283-0.997c0.339-0.162,0.686-0.177,1.011,0.007
	C532.122,176.533,532.412,177.042,532.448,177.508"/>
<path fill-rule="evenodd" clip-rule="evenodd" fill="#FFFFFF" d="M531.292,180.649c-0.021,0.092-0.014,0.212-0.071,0.29
	c-0.431,0.608-1.046,0.905-1.782,0.905c-0.163,0-0.403-0.162-0.46-0.311c-0.071-0.205-0.092-0.53,0.014-0.693
	c0.311-0.467,0.792-0.764,1.336-0.898C530.797,179.829,531.299,180.218,531.292,180.649"/>
<path fill-rule="evenodd" clip-rule="evenodd" fill="#FFFFFF" d="M537.534,191.484c-0.099,0.092-0.212,0.29-0.375,0.34
	c-0.771,0.226-1.789-0.438-1.93-1.224c-0.057-0.353,0.276-0.721,0.622-0.65c0.714,0.142,1.273,0.523,1.64,1.16
	C537.534,191.187,537.512,191.308,537.534,191.484"/>
<path fill-rule="evenodd" clip-rule="evenodd" fill="#FFFFFF" d="M533.121,190.137c-0.071,0.509-0.318,0.729-0.679,0.835
	c-0.354,0.106-0.735,0.113-0.948-0.219c-0.113-0.17-0.141-0.495-0.057-0.679c0.219-0.46,0.806-0.637,1.287-0.396
	C532.916,189.763,533.029,190.017,533.121,190.137"/>
<path fill-rule="evenodd" clip-rule="evenodd" fill="#FFFFFF" d="M546.113,177.28c0.311,0.135,0.7,0.241,1.025,0.446
	c0.368,0.233,0.262,0.855-0.163,0.962c-0.834,0.198-1.669,0.368-2.51,0.495c-0.445,0.063-0.707-0.432-0.502-0.848
	c0.191-0.382,0.481-0.658,0.877-0.785C545.222,177.429,545.625,177.379,546.113,177.28"/>
<path fill-rule="evenodd" clip-rule="evenodd" fill="#FFFFFF" d="M545.136,183.284c-0.127-0.085-0.41-0.183-0.495-0.375
	c-0.078-0.177-0.021-0.509,0.106-0.665c0.389-0.467,0.827-0.877,1.259-1.301c0.262-0.254,0.573-0.41,0.948-0.375
	c0.226,0.021,0.488,0.297,0.474,0.509c-0.057,0.827-1.237,2.114-2.029,2.206C545.341,183.292,545.292,183.284,545.136,183.284"/>
<g>
</g>
<g>
</g>
<g>
</g>
<g>
</g>
<g>
</g>
<g>
</g>
<g>
</g>
<g>
</g>
<g>
</g>
<g>
</g>
<g>
</g>
<g>
</g>
<g>
</g>
<g>
</g>
<g>
</g>
</svg>
