<?xml version="1.0" encoding="utf-8"?>
<!-- Generator: Adobe Illustrator 27.1.1, SVG Export Plug-In . SVG Version: 6.00 Build 0)  -->
<svg version="1.1" id="레이어_1" xmlns="http://www.w3.org/2000/svg" xmlns:xlink="http://www.w3.org/1999/xlink" x="0px"
	 y="0px" viewBox="0 0 720 407.902" enable-background="new 0 0 720 407.902" xml:space="preserve">
<path fill="#9E765E" d="M135.184,407.902c-0.114,0-0.537-0.374-0.586-0.488c-0.098-0.228-4.411-11.312-4.411-11.312
	c-0.879,3.581-2.36,7.308-3.809,11.198c-1.921-1.709-4.346-8.187-8.545-19.564l-0.374-1.628l-1.123-0.016
	c-1.091-0.049-1.823-0.212-1.823-0.765c2.067-0.44,3.255-0.472,4.395-0.472c0.13,0,4.15-0.13,4.15-0.13
	c-1.465,1.367-1.709,1.546-1.742,1.579c0.033,0.325,1.042,3.516,5.827,16.342l2.572-7.911l-3.125-7.878l-1.53-0.863
	c1.481-1.123,2.312-1.139,3.467-1.139h5.973l2.8-0.098c0.114,0,0.781,0.179,0.846,0.244c0.049,0.049,0.488,0.212,0.651,0.309
	c0.423-0.13,1.709-0.537,1.709-0.537l3.76,0.081l-1.546,1.66l0.277,0.13c-0.244,0.521-0.651,1.579-1.188,3.19
	c-0.944,2.881-1.79,5.371-2.539,7.406c-1.269,3.467-2.409,6.787-3.45,10.026L135.184,407.902z M138.668,385.424
	c-2.149,0.57-2.8,0.7-3.223,0.928c-0.016,0-0.293,0.244-1.025,2.1l-1.286,3.027c-0.391,1.611,0.049,2.783,0.83,4.704
	c1.009,2.458,1.839,4.557,2.49,6.299l1.058-4.753l2.539-7.373c1.107-3.174,1.27-3.89,1.27-4.037
	C139.677,386.042,138.733,385.977,138.668,385.424 M132.108,391.609c-0.114-1.09,0.456-2.49,1.107-4.215
	c0.439-1.042,0.277-1.302-1.205-1.302l-0.928-0.309l-0.846,0.472C130.285,386.254,132.108,391.609,132.108,391.609"/>
<path fill="#9E765E" d="M162.998,407.715c-2.132,0-3.955-0.765-5.42-2.279c-1.449-1.481-2.198-3.337-2.198-5.518
	c0-2.23,0.716-4.118,2.1-5.55c1.4-1.416,3.207-2.149,5.388-2.149c2.067,0,3.825,0.765,5.225,2.246c1.383,1.514,2.1,3.386,2.1,5.583
	c0,2.116-0.7,3.939-2.083,5.42C166.709,406.95,165,407.715,162.998,407.715 M162.77,393.326c-1.416,0-2.409,0.765-3.06,2.344
	c-0.472,1.107-0.7,2.588-0.7,4.346c0,2.116,0.358,3.776,1.074,4.916c0.716,1.139,1.676,1.693,2.914,1.693
	c2.409,0,3.564-2.116,3.564-6.478c0-2.376-0.472-4.264-1.416-5.615C164.56,393.717,163.779,393.326,162.77,393.326"/>
<path fill="#9E765E" d="M197.292,407.707c-1.253,0-2.262-0.472-3.027-1.416c-0.814-1.628-0.928-2.539-1.091-3.988
	c-0.081-0.814-0.342-1.367-0.732-1.66c-0.407-0.326-1.172-0.505-2.279-0.537l0.342,6.201c0.163,0,1.921,0.505,1.921,0.667
	l-2.539,0.554h-3.321l0.635-13.738l-1.839-0.814l3.988-0.537h1.709c2.523,0,3.727,0.293,4.639,0.895
	c0.944,0.667,1.416,1.514,1.416,2.572c0,1.139-0.489,2.083-1.481,2.767c-0.7,0.488-1.579,0.814-2.637,1.009
	c1.156,0.016,1.969,0.44,2.506,1.042c0.716,0.781,1.156,2.132,1.367,4.134c0.098,1.123,0.391,1.676,0.846,1.676
	c0.147,0,1.091-0.212,1.481-0.212c0.114,0,0.179,0.016,0.179,0.049C199.376,406.551,197.455,407.707,197.292,407.707
	 M190.554,393.676l-0.049,5.599c2.067-0.326,3.223-1.237,3.223-3.158c0-1.709-0.797-2.507-2.49-2.507v-0.309L190.554,393.676z"/>
<path fill="#9E765E" d="M214.294,407.488l1.009-1.66v-12.403l3.385-0.993c0.179,0,1.66,0.407,1.66,0.569l-1.367,0.228l-0.342,0.391
	l-0.033,12.972c4.232-0.277,5.225-0.602,5.567-0.879c0.391-0.309,0.651-1.009,0.765-2.067c1.4,1.855,1.384,2.848,1.335,3.662
	l-0.797,0.342L214.294,407.488"/>
<path fill="#9E765E" d="M241.987,407.497l0.732-2.311v-10.124l0.195-1.676l-1.058,0.163l1.432-1.107h2.116
	c2.865,0,4.834,0.163,5.99,0.521c1.448,0.407,2.653,1.27,3.564,2.555c0.895,1.302,1.351,2.8,1.351,4.444
	c0,2.572-1.009,4.606-2.979,6.006c-1.433,1.009-3.288,1.53-5.485,1.53H241.987z M247.651,393.613c-1.253,0-1.53,0.065-1.595,0.098
	l-0.049,12.093c0.488,0.049,0.928,0.081,1.351,0.081c3.874,0,5.274-2.116,5.274-6.039
	C252.632,395.647,251.004,393.613,247.651,393.613"/>
<path fill="#9E765E" d="M299.474,407.715c-2.132,0-3.955-0.765-5.42-2.279c-1.449-1.497-2.198-3.353-2.198-5.518
	c0-2.23,0.716-4.102,2.1-5.55c1.4-1.416,3.207-2.149,5.388-2.149c2.067,0,3.825,0.765,5.225,2.246c1.383,1.514,2.1,3.386,2.1,5.583
	c0,2.132-0.7,3.955-2.083,5.42C303.201,406.95,301.476,407.715,299.474,407.715 M299.246,393.326c-1.416,0-2.409,0.765-3.06,2.344
	c-0.472,1.123-0.7,2.604-0.7,4.346c0,2.116,0.358,3.776,1.074,4.916c0.716,1.139,1.676,1.693,2.914,1.693
	c2.409,0,3.581-2.116,3.581-6.478c0-2.376-0.488-4.248-1.432-5.615C301.036,393.717,300.255,393.326,299.246,393.326"/>
<path fill="#9E765E" d="M323.804,407.521c-0.179,0-1.872-0.358-1.872-0.537l1.709-0.651l0.033-11.914
	c-0.163,0-1.709-1.27-1.709-1.449c0,0,7.21-0.569,7.276-0.569c2.441,0,3.597-0.049,4.183-0.13l0.212,2.083l0.309-0.033l0.163,1.628
	c-1.335-0.586-1.611-1.351-2.035-1.758c-0.391-0.407-1.481-0.602-3.272-0.602l-2.132,0.033l0.309,5.681
	c2.181-0.309,2.62-0.537,2.751-0.619c0.114-0.098,0.374-0.456,0.521-2.035l1.188,2.962l0.065,2.62
	c-1.481-1.448-1.742-1.758-1.79-1.807c-0.065-0.049-0.407-0.261-2.051-0.261l-0.684,5.795l1.839,1.025l-0.733,0.537H323.804z"/>
<path fill="#9E765E" d="M383.196,407.585l-13.168-0.098l1.79-1.172l-0.228-0.228l0.13-18.751l-1.628-1.237
	c0.749-1.156,2.035-1.188,3.923-1.188c0.098,0,2.767-0.081,2.767-0.081l-1.448,1.27l0.277,0.147l-0.13,20.199l2.067-0.293
	c2.441,0,4.167-0.13,5.143-0.358c0.928-0.244,1.546-0.651,1.855-1.27c0.342-0.667,0.553-1.579,0.602-2.702l1.367,1.172l-0.098,4.411
	c0,0.179-0.147,0.309-0.309,0.309L383.196,407.585z"/>
<path fill="#9E765E" d="M408.215,407.521l-6.039,0.098l0.749-2.035v-10.905c-0.163,0-1.709-1.498-1.709-1.677l2.132-0.569h8.073
	c0.179,0,1.676,0.146,1.676,0.325l0.293,3.467c-1.497-1.253-1.986-2.116-2.702-2.36c-0.407-0.13-1.465-0.195-3.174-0.195
	l-1.286,5.599c2.165-0.309,2.62-0.505,2.734-0.586c0.13-0.098,0.374-0.423,0.488-1.595l1.237,2.149c0,1.367,0.033,2.295,0.081,2.8
	c-1.465-1.27-1.725-1.579-1.807-1.628c-0.098-0.081-0.537-0.277-2.279-0.277l-0.456,6.527c3.776-0.326,4.802-0.488,5.062-0.553
	c0.863-0.261,1.156-1.644,1.237-2.783l0.944,0.846l0.26,0.651v1.839c0.033,0.098,0.049,0.488-0.016,0.553
	c-0.065,0.081-0.098,0.407-0.212,0.407L408.215,407.521z"/>
<path fill="#9E765E" d="M436.199,407.52l1.676-1.318c-0.277-0.537-0.521-1.221-0.96-2.441l-4.606-0.863
	c-0.863,2.686-0.977,3.304-0.977,3.451l1.921,0.635l-2.1,0.179l-0.016,0.309l-1.807-0.049c-0.179,0-1.807-0.228-1.807-0.407
	l1.498-0.326l0.439-0.488c0.114-0.13,0.407-0.716,1.514-3.532l3.76-9.831l6.299,12.631l1.449,1.253l-0.033,0.797H436.199z
	 M432.781,402.148l3.858-0.423l-2.002-4.313L432.781,402.148z"/>
<path fill="#9E765E" d="M457.842,407.497l0.732-2.311v-10.124l0.195-1.676l-1.058,0.163l1.432-1.107h2.116
	c2.865,0,4.834,0.163,5.99,0.521c1.448,0.407,2.653,1.27,3.564,2.555c0.895,1.302,1.351,2.8,1.351,4.444
	c0,2.572-1.009,4.606-2.979,6.006c-1.433,1.009-3.288,1.53-5.485,1.53H457.842z M463.507,393.613c-1.253,0-1.53,0.065-1.595,0.098
	l-0.049,12.093c0.488,0.049,0.928,0.081,1.351,0.081c3.874,0,5.274-2.116,5.274-6.039
	C468.487,395.647,466.859,393.613,463.507,393.613"/>
<path fill="#9E765E" d="M494.915,407.52l1.676-1.318c-0.277-0.537-0.521-1.221-0.96-2.441l-4.606-0.863
	c-0.863,2.686-0.977,3.304-0.977,3.451l1.921,0.635l-2.1,0.179l-0.016,0.309l-1.807-0.049c-0.179,0-1.807-0.228-1.807-0.407
	l1.498-0.326l0.439-0.488c0.114-0.13,0.407-0.716,1.514-3.532l3.76-9.831l6.299,12.631l1.449,1.253l-0.033,0.797H494.915z
	 M491.497,402.148l3.858-0.423l-2.002-4.313L491.497,402.148z"/>
<path fill="#9E765E" d="M516.246,407.488l1.009-1.66v-12.387l3.385-1.009c0.179,0,1.66,0.407,1.66,0.569l-1.367,0.228l-0.342,0.391
	l-0.033,12.972c4.232-0.277,5.225-0.602,5.567-0.879c0.407-0.326,0.651-1.009,0.765-2.067l1.335,3.662l-0.797,0.342L516.246,407.488
	"/>
<path fill="#9E765E" d="M549.927,407.521l-6.039,0.098l0.749-2.035v-10.905c-0.179,0-1.709-1.498-1.709-1.677l2.116-0.569h8.089
	c0.179,0,1.676,0.146,1.676,0.325c0.065,0.928,0.163,1.888,0.277,3.467c-1.481-1.253-1.986-2.116-2.686-2.36
	c-0.407-0.13-1.465-0.195-3.174-0.195l-1.302,5.599c2.165-0.309,2.62-0.505,2.734-0.586c0.146-0.098,0.374-0.423,0.504-1.595
	l1.237,2.149c0,1.367,0.016,2.295,0.065,2.8c-1.449-1.237-1.693-1.563-1.79-1.628c-0.114-0.081-0.537-0.277-2.279-0.277
	l-0.472,6.527c3.776-0.326,4.818-0.488,5.062-0.553c0.879-0.261,1.156-1.644,1.253-2.783l0.928,0.846l0.277,0.651v1.839
	c0.016,0.098,0.049,0.488-0.016,0.553c-0.065,0.081-0.114,0.407-0.212,0.407L549.927,407.521z"/>
<path fill="#9E765E" d="M635.712,344.703c-9.441,0-22.153-5.632-30.926-13.705c-10.759-10.043-16.667-22.331-16.667-34.604
	c0-11.117,4.997-25.034,12.419-34.604c3.516-4.395,4.264-5.55,4.264-6.559c0-0.293,0-0.439-0.147-0.732
	c-7.536,2.832-24.805,11.605-30.258,15.381l-0.683,0.472c-7.015,4.802-7.747,5.306-11.28,5.306c-4.818,0-11.833-3.939-17.074-9.587
	c-2.018-2.132-3.076-3.499-3.516-4.574c-0.195-0.472-0.081-1.009,0.277-1.367c0.244-0.244,0.57-0.374,0.895-0.374
	c0.163,0,0.326,0.033,0.488,0.098c2.539,1.058,8.301,1.677,12.419,1.677c5.453,0,11.377-1.612,23.503-6.364
	c11.979-4.834,31.495-13.493,35.662-15.707c3.662-1.986,5.811-3.272,6.934-4.151c0.195-0.147,0.423-0.244,0.683-0.261
	c1.855-0.13,3.776-0.26,5.225-0.26c10.108,0,16.896,3.337,16.896,8.268c0,1.725-0.472,4.118-4.607,5.013
	c-1.237,0.358-7.373,1.53-14.844,2.832c-13.07,5.534-18.93,9.733-23.829,17.155c-3.906,5.876-5.811,12.175-5.811,19.288
	c0,11.052,5.274,21.55,14.454,28.777c4.33,3.483,11.117,7.048,19.125,10.059c6.511,2.36,8.268,3.467,10.58,5.778
	c1.969,1.97,3.093,4.216,3.093,6.169C642.987,341.936,639.927,344.703,635.712,344.703"/>
<path fill="#9E765E" d="M124.72,235.791c-0.147,0.163-0.195,0.391-0.147,0.602c14.502,58.873,52.736,81.171,84.427,94.014
	c0.26,0.114,0.407,0.358,0.391,0.635c-0.016,0.277-0.212,0.505-0.488,0.57c-7.341,1.79-17.969,5.908-25.44,21.095
	c-0.081,0.146-0.228,0.277-0.391,0.325c-0.065,0.016-0.13,0.033-0.179,0.033c-0.114,0-0.228-0.033-0.326-0.081
	c-32.016-18.263-51.743-52.329-58.612-101.241c-0.049-0.358-0.342-0.619-0.7-0.619c-0.342,0-0.651,0.244-0.7,0.586
	c-11.833,72.496-60.142,93.037-95.462,102.201c-0.049,0-0.098,0.016-0.147,0.016c-0.261,0-0.505-0.163-0.602-0.423
	c-0.114-0.309,0.033-0.651,0.326-0.781c67.45-31.869,71.959-95.511,73.456-116.427c0-0.212-0.065-0.407-0.195-0.537
	c-0.147-0.146-0.326-0.228-0.521-0.228H81.929c-1.839,1.383-2.914,3.483-3.825,7.487c-0.081,0.293-0.325,0.489-0.618,0.489
	c-0.309,0-0.553-0.212-0.618-0.489c-0.928-4.053-1.97-6.087-3.841-7.487h-18.49c-9.506,0-13.9,1.091-17.123,1.904
	c-1.107,0.277-2.083,0.521-3.06,0.667c-0.033,0.016-0.065,0.016-0.098,0.016c-0.26,0-0.504-0.163-0.602-0.423l-2.653-7.357
	c-0.065-0.212-0.033-0.423,0.098-0.602c0.114-0.163,0.309-0.244,0.505-0.244c0.016,0,0.033,0,0.049,0
	c8.268,0.667,17.676,1.025,26.515,1.025h13.282c2.881-1.351,4.248-3.434,5.42-8.513c0.065-0.293,0.309-0.505,0.618-0.505
	c0.293,0,0.537,0.212,0.618,0.488c1.156,5.095,2.539,7.194,5.664,8.578l16.049-0.049c0.375,0,0.684-0.293,0.7-0.667l0.081-1.139
	c0.212-3.288,0.537-8.236,0.537-15.072c0-13.754-1.302-27.247-3.841-40.122c-0.049-0.212,0.016-0.423,0.179-0.57
	c0.114-0.114,0.277-0.179,0.44-0.179c0.049,0,0.098,0,0.147,0.016l31.495,7.585c2.669,0.667,3.288,1.074,3.288,2.132
	c0,2.002-2.067,3.434-6.739,6.478c-0.195,0.13-0.309,0.342-0.326,0.57c-0.212,3.646-1.628,35.255-1.823,40.219
	c-0.016,0.195,0.065,0.391,0.195,0.537c0.147,0.13,0.325,0.212,0.521,0.212h47.69c0.244,0,0.456-0.114,0.586-0.309l10.515-15.561
	c1.449-2.067,1.66-2.327,2.653-2.327c0.57,0,1.286,0.358,3.581,2.262l18.799,15.561l0.342,0.325
	c0.586,0.537,1.416,1.302,1.416,2.165c0,1.807-0.863,2.897-2.311,2.897h-82.669C125.062,235.531,124.85,235.629,124.72,235.791"/>
<path fill="#9E765E" d="M435.805,339.184c-3.874,0-6.462-3.158-8.415-10.271c-1.139-3.841-2.116-11.459-2.116-14.974
	c0-0.814,0.13-1.221,0.407-1.937c1.302-2.914,2.018-5.16,2.279-7.096l2.116-14.291c1.693-11.182,4.248-30.6,4.248-34.392
	c0-5.648-0.553-7.927-2.979-12.207c-0.57-0.928-0.977-1.612-1.237-2.1c-0.244-0.488-0.163-1.091,0.228-1.481
	c0.244-0.244,0.57-0.375,0.895-0.375c0.195,0,0.391,0.033,0.57,0.13c0.814,0.39,2.018,1.042,3.613,1.872l1.205,0.651
	c7.683,4.183,10.287,7.878,10.287,14.633c0,3.646-0.13,4.85-1.986,15.137c-2.051,10.824-4.427,26.075-4.102,37.355
	c0.147,3.613,0.537,7.178,0.928,10.629c0.391,3.402,0.765,6.918,0.912,10.319c0.146,2.669-0.537,4.883-2.002,6.429
	C439.435,338.5,437.758,339.184,435.805,339.184 M523.374,330.28c-9.815,0-17.807-1.237-26.71-4.102
	c-9.245-3.093-15.886-8.741-19.19-16.374c-1.042-2.197-1.676-4.916-1.839-5.681c-0.13-0.602,0.195-1.221,0.765-1.449
	c0.163-0.065,0.309-0.098,0.472-0.098c0.423,0,0.846,0.228,1.074,0.602c4.443,7.194,13.396,10.84,26.612,10.84
	c5.436,0,9.75-0.537,14.421-1.79c0.114-0.033,0.228-0.049,0.342-0.049h0.033c0.684,0.016,0.977,0.098,1.742,0.277
	c4.492,1.058,9.701,3.044,11.866,4.525c1.628,1.091,2.93,3.548,2.93,5.583C535.89,327.595,528.631,330.28,523.374,330.28
	 M491.032,272.71c-0.358,0-0.716-0.163-0.96-0.439c-0.407-0.472-0.407-1.172-0.016-1.644c1.693-2.002,3.467-4.313,4.671-6.022
	c0.716-1.139,1.139-2.002,1.139-2.295c-0.261-0.374-1.644-0.374-2.767-0.374c-4.151,0-6.755-0.342-8.448-1.123
	c-2.669-1.123-3.646-1.807-4.932-2.816c-1.676-1.107-2.995-2.295-6.087-5.095c-0.44-0.391-0.537-1.042-0.261-1.546
	c0.228-0.407,0.651-0.651,1.107-0.651c0.114,0,0.228,0.016,0.342,0.033c2.116,0.602,6.462,1.465,8.806,1.465
	c7.227,0,15.284-1.725,20.525-4.378c0.163-0.098,0.374-0.13,0.57-0.13c0.016,0,0.049,0,0.065,0c2.523,0.13,4.151,0.407,7.097,1.66
	c4.72,1.97,7.878,4.037,7.878,7.715c0,2.474-1.612,4.72-4.2,5.876c-2.23,0.977-3.939,1.253-7.829,1.253
	c-4.199,1.302-5.648,2.002-12.126,5.957c-1.416,0.879-2.783,1.709-3.923,2.377C491.471,272.645,491.26,272.71,491.032,272.71"/>
<path fill="#9E765E" d="M720,124.485c0,6.381-1.661,11.801-5.078,16.554c-2.035,2.962-5.062,5.55-7.975,7.959
	c-3.532,2.832-7.797,5.339-12.354,7.243c-3.597,1.498-8.268,3.093-12.207,4.167c-1.693,0.472-3.272,0.83-4.557,1.074
	c-0.033,0.016-0.196,0.033-0.228,0.033c-0.553,0-1.058-0.358-1.237-0.879c-0.195-0.635,0.114-1.286,0.7-1.563
	c2.132-1.058,4.931-2.506,7.552-4.167c4.606-2.946,9.196-6.608,12.924-10.336c7.699-7.862,11.296-15.202,11.296-23.113
	c0-13.233-10.059-22.478-24.464-22.478c-6.689,0-12.37,1.937-17.888,6.071c-5.615,4.313-8.008,8.805-8.008,14.991
	c0,7.601,3.19,17.237,5.16,17.237c0.44,0,1.042-0.212,2.458-1.676c3.662-4.069,5.746-6.739,7.878-9.571
	c6.527-8.74,10.042-17.79,10.042-21.859c0-1.123-0.13-1.807-0.456-2.458c-0.244-0.488-0.163-1.074,0.228-1.449
	c0.227-0.244,0.57-0.391,0.911-0.391c0.065,0,0.439,0.081,0.521,0.114c0.618,0.277,1.335,0.651,1.969,1.058
	c3.109,2.067,5.111,5.42,5.111,8.578c0,1.335-0.651,3.255-1.953,5.697c-2.49,4.737-7.032,13.135-9.847,16.667
	c-1.954,2.506-6.185,7.552-8.611,10.026c-2.132,2.23-3.239,3.337-4.264,4.362c-2.555,3.044-4.101,3.662-5.778,3.662
	c-1.042,0-2.702-0.537-3.727-1.546c-3.662-3.564-5.632-14.307-5.632-22.592c0-7.113,2.035-13.949,5.583-18.783
	c5.86-8.09,17.563-13.526,29.103-13.526c8.757,0,16.651,3.093,22.853,8.92C716.745,108.876,720,116.07,720,124.485"/>
<g>
	<defs>
		<path id="SVGID_1_" d="M3.274,36.085c-0.667,0.488-2.198,1.66-3.076,2.539c-0.179,0.163-0.244,0.44-0.163,0.651
			c0.081,0.228,0.277,0.391,0.521,0.423c1.302,0.179,2.816,0.423,4.102,1.074c2.507,1.497,3.581,3.809,3.988,8.529
			c0.212,1.546,0.391,4.02,0.619,7.585c0.374,5.681,0.814,12.126,0.814,22.885c0,3.532,0,6.315-0.212,8.317
			C9.67,93.916,9.67,94.128,9.67,95.12c0,3.483,1.27,7.097,3.581,10.206c2.067,2.653,5.42,5.811,9.603,5.811
			c2.018,0,3.711-0.765,5.046-2.279c1.4-1.4,2.083-3.32,2.083-5.86c0-3.548-0.212-7.699-0.407-9.196
			c-1.253-17.009-1.823-28.956-1.823-33.237c0-3.89,0-8.741,0.212-11.947c0-0.846,0-1.465,0.244-3.32
			c0.423-1.465,0.553-2.246,0.569-2.523c0-1.302-1.628-3.06-4.313-4.671c-1.774-1.123-4.492-2.409-8.285-3.939
			c-1.986-0.732-4.232-1.546-5.453-1.546C9.133,32.618,6.22,33.969,3.274,36.085 M82.199,110.144
			c0.618-6.608,0.618-17.627,0.618-28.305c0-9.278,0.456-24.382,0.83-36.525l0.195-6.315c0.212-0.358,0.439-0.667,0.732-1.042
			l0.505-0.879l0.683-0.391c1.253-1.156,4.541-2.262,6.527-3.19c0.244-0.13,0.374-0.472,0.342-0.765l0.147,0.537l0.065,28.663
			c-0.83,1.579-2.067,2.392-4.525,3.06c-0.277,0.065-0.472,0.309-0.472,0.602c0,0.277,0.212,0.553,0.472,0.619
			c2.376,0.635,3.646,1.416,4.46,2.734l0.065,9.229c-0.83,1.562-2.067,2.376-4.525,3.044c-0.277,0.065-0.472,0.325-0.472,0.618
			c0,0.293,0.212,0.537,0.472,0.602c2.376,0.635,3.646,1.432,4.46,2.767v38.201C88.205,119.405,82.069,113.757,82.199,110.144
			 M58.647,18.214l-0.423,0.049c-3.499,0.586-6.348,1.074-6.966,1.188c-0.651,0.13-1.156,0.651-1.253,1.302
			c-0.098,0.618,0.244,1.253,0.846,1.562c7.422,3.76,11.036,9.652,11.036,18.002c0,1.693,0.065,3.239,0.147,4.753
			c-0.13,0.228-0.179,0.57-0.163,0.732l0.016,0.407c0.618,9.278,0.814,19.597,0.814,22.299c0,32.163-0.667,42.091-3.662,55.959
			c-2.767,12.826-9.457,25.033-19.32,35.337c-5.29,5.306-10.987,9.603-17.4,13.119c-0.277,0.163-0.407,0.504-0.261,0.814
			c0.114,0.228,0.342,0.375,0.57,0.375c0.081,0,0.147-0.016,0.228-0.049c8.757-3.141,16.684-6.576,23.552-10.222
			c6.95-3.906,12.028-7.422,15.544-10.742c3.109-2.995,5.941-6.299,8.366-9.766c4.541-4.362,8.187-7.569,10.873-9.506
			c5.436-3.988,12.305-4.411,14.324-4.411c0.423,0,0.7,0.016,1.058,0.033c0.732,0,1.351-0.505,1.481-1.221
			c0.147-0.749-0.277-1.465-1.009-1.758c-0.228-0.098-0.651-0.293-1.432-0.83l-0.049-39.585c0.846-1.953,2.1-2.897,4.769-3.613
			c0.277-0.065,0.472-0.309,0.472-0.602c0-0.293-0.195-0.553-0.472-0.618c-2.653-0.7-3.906-1.66-4.72-3.337l-0.049-8.073
			c0.846-1.937,2.1-2.897,4.769-3.597c0.277-0.065,0.472-0.342,0.472-0.619c0-0.293-0.195-0.537-0.472-0.602
			c-2.653-0.732-3.906-1.66-4.72-3.353l-0.016-29.461l1.367-0.407l1.611-0.895c0.374-0.195,0.651-0.553,0.749-0.928
			c0.114-0.423,0.049-0.846-0.179-1.204l-0.472-0.732c-0.195-0.326-0.57-0.684-1.758-0.684c-0.667,0.163-1.432,0.244-2.262,0.244
			c-0.993,0-3.646-0.114-4.671-0.358c-4.557-1.042-7.943-3.646-14.47-11.149c-0.293-0.342-0.732-0.504-1.562-0.504
			C72.14,15.951,64.344,17.253,58.647,18.214"/>
	</defs>
	<clipPath id="SVGID_00000173846272358817722530000014028391574156261030_">
		<use xlink:href="#SVGID_1_"  overflow="visible"/>
	</clipPath>
	
		<linearGradient id="SVGID_00000083090853957217151280000016189350077661798298_" gradientUnits="userSpaceOnUse" x1="106.137" y1="359.4449" x2="122.4136" y2="359.4449" gradientTransform="matrix(28.1487 0 0 -28.1487 -2930.0413 10212.7578)">
		<stop  offset="0" style="stop-color:#8EC356"/>
		<stop  offset="1" style="stop-color:#58B089"/>
	</linearGradient>
	
		<rect x="-0.047" y="15.561" clip-path="url(#SVGID_00000173846272358817722530000014028391574156261030_)" fill="url(#SVGID_00000083090853957217151280000016189350077661798298_)" width="100.85" height="158.551"/>
</g>
<g>
	<defs>
		<path id="SVGID_00000029742093269419700380000009113418809739340222_" d="M165.356,71.357c-0.195,0.033-0.391,0.179-0.488,0.374
			c-0.081,0.195-0.065,0.44,0.065,0.602c2.62,3.923,3.174,6.576,3.174,14.86c0,18.507-5.567,38.413-14.535,51.971
			c-4.346,6.527-9.945,12.354-16.244,16.863c-3.727,2.832-7.829,5.371-11.866,7.341c-0.293,0.147-0.439,0.488-0.309,0.797
			c0.081,0.244,0.326,0.407,0.586,0.407c0.049,0,0.114,0,0.163-0.016c0.732-0.212,1.514-0.423,2.327-0.684
			c6.299-1.807,13.884-4.834,18.621-6.999c12.598-5.941,21.68-13.233,28.549-22.918l0.553-0.814
			c0.163-0.179,0.407-0.505,0.928-1.221l0.472-0.618c0.57-0.749,1.172-1.562,1.563-2.018c4.655-5.843,12.793-9.131,15.088-9.196
			c0.423-0.016,0.814-0.195,1.074-0.537c0.456-0.57,1.058-2.995,1.27-4.411c0.553-1.953-1.074-3.467-1.953-3.89
			c-3.125-1.498-3.548-2.279-3.646-2.474c-0.326-0.781-1.481-8.757-1.27-11.443c4.769-5.827,9.815-10.042,11.329-10.189
			c0.814-0.065,1.416-0.716,1.481-1.611c0-0.016-0.098-2.132-0.96-2.751c-1.335-0.944-17.953-6.445-22.934-8.073
			c-1.921-0.944-4.102-2.002-6.69-3.255c-0.277-0.13-1.416-0.423-1.937-0.423C168.221,71.048,166.756,71.161,165.356,71.357
			 M218.841,22.494l-1.172,0.928c-2.979,2.23-71.78,9.31-85.631,9.31c-8.285,0-12.403-2.686-17.628-11.491
			c-0.114-0.195-0.325-0.309-0.537-0.309c-0.033,0-0.065,0-0.081,0.016c-0.261,0.033-0.472,0.212-0.537,0.456
			c-0.993,3.434-1.465,6.739-1.465,10.156c0,6.771,4.606,12.224,7.357,14.877c4.167,4.037,8.627,6.202,10.694,6.202
			c0.977-0.033,3.89-1.156,9.766-3.76c1.009-0.456,1.839-0.83,2.344-1.025c13.998-5.29,59.524-12.777,66.116-12.777
			c2.279,0,3.385,0.977,3.385,2.979c0,3.565-5.453,10.596-18.539,26.059l-0.781,0.928c-0.732,0.895-1.66,2.051-2.425,2.848
			c-0.016,0.016-0.83,0.879-0.977,1.416c-0.065,0.521,0.065,1.025,0.391,1.449c0.407,0.521,1.107,0.911,1.888,1.009
			c0,0,0.358,0.033,0.374,0.033h0.016c1.546-0.016,3.792-1.204,5.567-2.23l0.326-0.179c4.948-2.604,10.059-5.518,15.202-8.659
			c2.604-1.611,22.429-13.624,25.034-14.096l0.977-0.228c10.433-2.376,11.052-2.506,11.052-5.518c0-3.63-3.255-6.576-14.519-16.293
			c-6.934-5.762-8.138-6.185-9.18-6.185C223.887,18.409,221.983,19.939,218.841,22.494"/>
	</defs>
	<clipPath id="SVGID_00000067227235231515201020000001638533335329800851_">
		<use xlink:href="#SVGID_00000029742093269419700380000009113418809739340222_"  overflow="visible"/>
	</clipPath>
	
		<linearGradient id="SVGID_00000049926193410680317870000017554372628373191565_" gradientUnits="userSpaceOnUse" x1="106.137" y1="359.5565" x2="122.4136" y2="359.5565" gradientTransform="matrix(28.1487 0 0 -28.1487 -2930.0413 10212.5518)">
		<stop  offset="0" style="stop-color:#8EC356"/>
		<stop  offset="1" style="stop-color:#58B089"/>
	</linearGradient>
	
		<rect x="111.79" y="18.409" clip-path="url(#SVGID_00000067227235231515201020000001638533335329800851_)" fill="url(#SVGID_00000049926193410680317870000017554372628373191565_)" width="137.765" height="146.164"/>
</g>
<g>
	<defs>
		<path id="SVGID_00000034068069504022502070000007472353479398484612_" d="M509.981,46.209c-0.212,0.13-0.342,0.358-0.309,0.618
			c0.033,0.261,0.195,0.456,0.456,0.537c11.41,3.45,15.349,5.192,15.349,16.179c0,59.084-29.005,91.865-37.908,100.508
			c-0.228,0.244-0.261,0.602-0.033,0.863l0.944,1.172c0.114,0.147,0.309,0.244,0.488,0.244c0.081,0,0.179-0.016,0.26-0.065
			c11.036-4.997,44.614-20.167,54.641-79.951c0.244-1.335,0.683-4.639,1.172-8.496c0.31-2.279,0.619-4.704,0.911-6.836
			c0.065-0.277,1.335-6.576,1.742-7.927c0.374-1.188,0.83-2.409,1.27-3.386c3.255-3.028,5.273-4.183,6.022-4.248
			c0.846-0.081,1.481-0.749,1.53-1.644c0-0.016-0.081-2.197-1.009-2.848c-1.042-0.651-19.499-7.992-20.948-8.545
			c-3.337-1.27-6.38-1.921-9.017-1.921C521.326,40.464,517.989,41.701,509.981,46.209 M547.775,26.498
			c-0.195,0.163-0.293,0.407-0.228,0.651c0.065,0.244,0.244,0.423,0.488,0.488c3.434,0.716,11.459,2.376,14.242,7.113
			c2.49,4.281,3.028,31.561,3.028,41.717c0,11.915-1.172,43.361-2.132,49.302c-0.114,0.504-0.44,1.611-0.895,3.239
			c-1.221,4.362-2.246,8.073-2.246,9.375c0,5.257,9.961,23.113,16.065,23.113c1.465,0,2.539-0.781,3.776-1.676l0.309-0.212
			c1.09-0.83,3.955-3.044,7.145-5.518l0.472-0.342c3.223-2.49,6.445-4.981,7.618-5.86l0.358-0.277
			c17.855-13.624,47.739-36.443,60.988-76.988c0.098-0.261,0-0.537-0.228-0.7l-1.383-0.977c-0.097-0.098-0.228-0.13-0.358-0.13
			c-0.195,0-0.374,0.098-0.505,0.261c-20.72,26.661-67.694,58.319-71.356,58.319c-0.505,0-0.928-0.13-0.928-1.904
			c0-2.295-0.033-5.941-0.081-10.401c-0.147-15.658-0.537-57.228,1.074-64.618c0.081-0.277,0.407-1.025,0.944-2.002
			c5.029-6.771,11.345-12.403,13.2-12.565c0.814-0.065,1.433-0.716,1.481-1.612c0-0.016-0.098-2.132-0.944-2.751
			c-1.27-0.911-15.853-5.762-24.415-8.562c-1.546-0.57-3.06-1.058-4.46-1.449l-2.409-0.7c-0.049,0-0.244,0.033-0.26,0.033
			c-1.693-0.358-3.093-0.553-4.102-0.553C555.833,20.313,550.396,24.496,547.775,26.498"/>
	</defs>
	<clipPath id="SVGID_00000083088166495220634570000003737570499401859240_">
		<use xlink:href="#SVGID_00000034068069504022502070000007472353479398484612_"  overflow="visible"/>
	</clipPath>
	
		<linearGradient id="SVGID_00000024690991805827719600000000373199867809071541_" gradientUnits="userSpaceOnUse" x1="106.137" y1="359.4954" x2="122.4136" y2="359.4954" gradientTransform="matrix(28.1487 0 0 -28.1487 -2930.0413 10212.665)">
		<stop  offset="0" style="stop-color:#8EC356"/>
		<stop  offset="1" style="stop-color:#58B089"/>
	</linearGradient>
	
		<rect x="487.308" y="20.313" clip-path="url(#SVGID_00000083088166495220634570000003737570499401859240_)" fill="url(#SVGID_00000024690991805827719600000000373199867809071541_)" width="169.554" height="146.017"/>
</g>
<path fill="#9E765E" d="M404.068,327.632l-1.009-0.928c-2.409-2.214-3.858-3.548-6.088-23.341c-0.033-0.309-0.277-0.537-0.586-0.553
	c-0.016-0.016-0.033-0.016-0.049-0.016c-0.277,0-0.537,0.195-0.602,0.472c-7.292,26.075-11.735,26.075-40.659,26.075
	c-33.709,0-33.709,0-35.06-5.355c-0.553-1.953-0.83-28.272-0.83-78.225c0-0.293,0.179-0.553,0.456-0.651l15.821-6.12
	c0.146,0,0.277,0.049,0.407,0.13c0.195,0.13,0.309,0.342,0.309,0.586c0,3.874-0.114,19.45-0.212,34.181l-0.049,5.436
	c-0.081,11.475-0.147,21.388-0.147,23.243c0,6.755,0.618,12.826,8.187,12.826c3.158,0,9.652-1.676,11.638-7.992
	c0.814-2.637,0.537-17.253,0.374-23.406c-0.016-0.293,0.147-0.553,0.407-0.667c0.212-0.098,0.358-0.326,0.358-0.57
	c0-0.244-0.147-0.472-0.358-0.569c-0.244-0.114-0.407-0.358-0.407-0.619c-0.195-7.145-0.602-41.75-0.602-49.741
	c0-0.293,0.179-0.553,0.44-0.667l17.644-6.917c0.146,0,0.293,0.033,0.407,0.114c0.195,0.13,0.309,0.358,0.309,0.602
	c0,2.067,0.049,7.943,0.098,13.965c0.049,6.299,0.114,12.761,0.114,15.137c0,26.987,0,28.598-9.001,28.598
	c-2.083,0-3.841-0.114-6.071-0.244l-1.676-0.049c-0.261,0-0.488,0.163-0.586,0.39c-0.098,0.244-0.049,0.521,0.147,0.7
	c8.757,8.562,9.408,15.3,9.326,22.006c0,0.179,0.081,0.358,0.212,0.472c0.13,0.114,0.277,0.163,0.423,0.163c0.033,0,0.065,0,0.098,0
	c6.511-0.895,13.998-2.669,20.265-9.099c7.015-7.015,7.259-11.166,7.259-29.607c0-2.62-0.081-9.212-0.163-16.244l-0.049-3.565
	c-0.098-7.308-0.195-14.291-0.195-16.765c0-0.212,0.098-0.407,0.244-0.537l0.879-0.749c2.393-2.067,4.948-4.411,4.948-6.202
	c0-1.042-1.139-2.262-1.709-2.637l-16.911-11.557c-1.66-1.188-2.669-1.839-3.304-1.872c-0.83,0-1.709,1.042-2.588,3.044
	l-5.664,11.312c-0.081,0.163-0.212,0.293-0.391,0.358l-13.786,5.306c-0.147,0-0.293-0.049-0.407-0.13
	c-0.195-0.13-0.309-0.358-0.309-0.586v-38.608c0-0.212,0.081-0.407,0.261-0.553c5.583-4.655,5.86-5.567,6.006-6.12
	c0-0.83-0.456-1.725-3.695-2.539l-23.064-5.387c-0.049-0.016-0.098-0.016-0.147-0.016c-0.146,0-0.309,0.065-0.423,0.179
	c-0.163,0.147-0.228,0.358-0.195,0.57c1.481,8.122,2.425,16.716,2.067,60.37c0,0.277-0.179,0.537-0.456,0.651l-15.625,6.104
	c-0.147,0-0.277-0.033-0.407-0.114c-0.195-0.13-0.309-0.358-0.309-0.586v-31.74c0-0.212,0.114-0.439,0.293-0.569l0.358-0.277
	c5.42-4.053,5.615-4.281,5.615-6.022c0-1.188-0.716-1.693-3.711-2.539l-22.706-6.152c-0.049-0.016-0.114-0.016-0.163-0.016
	c-0.163,0-0.309,0.049-0.423,0.147c-0.163,0.147-0.244,0.358-0.212,0.57c1.107,8.822,1.188,14.909,1.676,48.683l0.081,5.778
	c0.016,0.309-0.179,0.586-0.456,0.684c-11.068,4.053-13.851,4.964-20.964,7.064c-0.212,0.065-0.375,0.228-0.423,0.456
	c-0.065,0.212,0,0.439,0.163,0.602l3.369,3.483c0.114,0.13,0.277,0.195,0.456,0.195c0.114,0,0.212-0.033,0.326-0.098
	c3.923-2.327,8.334-4.557,16.83-7.829c0.147,0,0.277,0.049,0.391,0.13c0.195,0.13,0.309,0.342,0.309,0.586v44.468
	c0,0.309-0.212,0.602-0.521,0.684l-27.068,7.097c-0.147,0-0.309-0.049-0.423-0.147c-0.179-0.13-0.293-0.342-0.293-0.553
	c-0.195-21.632-0.195-43.621-0.195-64.895c0-0.391,0.325-0.716,0.716-0.716h20.818c1.644,0,2.311-0.44,2.311-1.497
	c0-0.684-0.537-1.644-1.644-2.979l-8.513-10.14c-0.504-0.667-1.758-1.937-2.865-1.937c-1.253,0-2.116,1.432-2.604,2.246
	l-5.453,10.498c-0.13,0.244-0.375,0.39-0.635,0.39h-1.416c-0.195,0-0.374-0.081-0.521-0.212c-0.13-0.146-0.195-0.325-0.195-0.521
	c0.13-4.15,0.195-18.653,0.195-40.805c0-0.244,0.147-0.489,0.342-0.602l0.879-0.537c5.729-3.548,6.462-4.004,6.462-5.534
	c0-1.595-1.676-2.279-3.304-2.751l-24.952-6.885c-0.049-0.016-0.114-0.016-0.163-0.016c-0.163,0-0.326,0.049-0.439,0.163
	c-0.163,0.147-0.228,0.375-0.195,0.586c1.986,9.798,1.986,16,1.986,56.398c0,0.391-0.326,0.716-0.716,0.716
	c-8.35,0-18.637-0.651-24.024-1.042c-0.016,0-0.033,0-0.049,0c-0.195,0-0.391,0.098-0.521,0.277
	c-0.114,0.179-0.147,0.423-0.049,0.619l2.035,4.297c0.098,0.228,0.326,0.358,0.57,0.358c0.033,0,0.065,0,0.081,0
	c2.262-0.309,4.395-0.586,7.91-0.781l0.081,20.867c-0.83,1.579-2.067,2.393-4.525,3.06c-0.277,0.065-0.472,0.326-0.472,0.602
	c0,0.293,0.195,0.553,0.472,0.618c2.36,0.635,3.646,1.432,4.443,2.751l0.081,9.212c-0.83,1.563-2.067,2.393-4.525,3.044
	c-0.277,0.081-0.472,0.326-0.472,0.619c0,0.293,0.195,0.537,0.472,0.618c2.36,0.619,3.646,1.416,4.443,2.751v30.095
	c-5.029,1.025-7.666,1.367-10.466,1.367c0,0-0.586,0-0.602,0c-0.212,0-0.423,0.114-0.537,0.309c-0.114,0.195-0.114,0.44,0,0.635
	l13.933,24.545c0.521,0.846,1.595,2.279,2.425,2.279c1.139,0,2.181-1.823,3.972-6.999c0.065-0.147,0.179-0.293,0.309-0.375
	c10.319-6.038,14.665-8.903,48.488-31.202l3.841-2.539c0.114-0.065,0.244-0.114,0.391-0.114c0.114,0,0.244,0.033,0.342,0.098
	c0.244,0.13,0.375,0.374,0.358,0.651c-0.228,6.283-0.147,29.331,0.797,32.732c3.695,13.819,15.251,13.819,43.166,13.819
	c45.77,0,47.918-0.993,54.266-3.972c6.299-3.044,9.701-8.822,9.701-12.696C408.12,331.343,407.827,331.051,404.068,327.632
	 M252.304,310.444c0,0.342-0.244,0.619-0.57,0.7c0,0-8.952,1.953-11.149,2.409l-0.049-28.663c0.846-1.937,2.1-2.881,4.769-3.597
	c0.277-0.081,0.472-0.326,0.472-0.618c0-0.293-0.195-0.537-0.472-0.619c-2.669-0.716-3.923-1.644-4.72-3.336l-0.049-8.073
	c0.846-1.937,2.1-2.881,4.769-3.597c0.277-0.065,0.472-0.325,0.472-0.618c0-0.277-0.195-0.521-0.472-0.602
	c-2.669-0.716-3.923-1.66-4.72-3.337l0.016-20.72c3.044-0.114,6.722-0.179,11.182-0.179c0.391,0,0.716,0.326,0.716,0.716
	C252.5,268.809,252.5,270.225,252.304,310.444 M284.565,291.791c0,1.97-1.595,3.564-3.565,3.564c-1.969,0-3.564-1.595-3.564-3.564
	s1.595-3.564,3.564-3.564C282.969,288.227,284.565,289.822,284.565,291.791 M284.565,278.721c0,1.969-1.595,3.565-3.565,3.565
	c-1.969,0-3.564-1.595-3.564-3.565c0-1.969,1.595-3.565,3.564-3.565C282.969,275.156,284.565,276.752,284.565,278.721"/>
<g>
	<defs>
		<path id="SVGID_00000018935618841976811410000014498905574568735879_" d="M470.869,107.165c0,1.953,1.628,3.565,3.581,3.565
			c1.97,0,3.564-1.612,3.564-3.565c0-1.97-1.595-3.564-3.564-3.564C472.496,103.601,470.869,105.196,470.869,107.165
			 M470.869,94.095c0,1.953,1.628,3.564,3.581,3.564c1.97,0,3.564-1.611,3.564-3.564c0-1.97-1.595-3.565-3.564-3.565
			C472.496,90.531,470.869,92.126,470.869,94.095 M452.264,14.779c-0.993,0.407-1.693,0.765-2.197,1.074
			c-0.212,0.13-0.326,0.358-0.293,0.602c0.016,0.244,0.179,0.456,0.407,0.537c1.139,0.407,2.36,1.091,3.597,2.002
			c1.091,0.732,2.23,2.181,2.23,3.418c0,0.797-0.26,1.888-0.716,2.897c-0.293,0.797-0.57,1.562-0.911,2.474
			c-1.139,3.109-2.311,6.315-4.867,10.629c-10.092,16.602-26.58,35.792-41.994,48.895c-7.943,6.836-19.109,13.933-22.234,15.593
			c-0.342,0.179-1.107,0.977-0.846,1.742c0.423,1.156,1.4,2.311,2.702,2.311c0.244,0,0.472-0.033,0.716-0.114
			c12.907-4.167,30.014-14.502,50.913-30.73l0.309-0.277c1.205-0.944,2.393-1.937,3.792-3.158c0.179-0.065,0.326-0.081,0.456-0.081
			c0.163,0,0.342,0.016,0.488,0.081c0.212,0.098,0.749,0.814,1.091,1.53c0.944,9.571,1.025,30.714,1.025,36.964
			c0,8.529-0.765,13.249-1.937,20.395l-0.732,4.574c-0.13,0.911-0.863,3.662-1.465,5.957c-0.7,2.669-1.383,5.209-1.497,6.202
			c-0.684,5.273,1.319,10.742,5.518,15.023c3.451,3.548,7.959,5.746,11.768,5.746c3.239,0,7.097-1.546,7.097-8.985
			c0-1.839-0.863-8.155-1.53-13.07c0,0-0.326-2.279-0.358-2.718c-0.553-7.65-0.814-17.888-0.814-22.739
			c0-3.386,0.033-9.929,0.049-10.124c0.033-1.058,0.098-4.118,0.098-6.95c0.114-6.69,0.277-12.094,0.505-16.016
			c0.439-3.109,0.879-5.306,1.302-6.608c0.358-1.091,0.83-2.214,1.253-3.142c3.32-2.848,5.387-3.923,6.136-3.988
			c0.846-0.065,1.497-0.7,1.546-1.579c0-0.016-0.098-2.1-1.025-2.718c-0.618-0.407-3.906-1.595-18.165-6.136
			c-0.244-0.179-0.375-0.439-0.456-1.009l21.892-21.16l1.497-1.514c4.167-4.281,5.567-5.729,9.701-7.585
			c2.718-1.253,4.281-2.897,4.281-4.509c0-2.506-2.523-5.143-10.775-11.345c-6.511-4.769-9.685-6.218-13.64-6.218
			C462.584,10.954,456.317,12.94,452.264,14.779"/>
	</defs>
	<clipPath id="SVGID_00000096749867856666098520000016789822170576462522_">
		<use xlink:href="#SVGID_00000018935618841976811410000014498905574568735879_"  overflow="visible"/>
	</clipPath>
	
		<linearGradient id="SVGID_00000117660156678531776340000011284757016846863780_" gradientUnits="userSpaceOnUse" x1="106.137" y1="359.6058" x2="122.4136" y2="359.6058" gradientTransform="matrix(28.1487 0 0 -28.1487 -2930.0413 10212.4619)">
		<stop  offset="0" style="stop-color:#8EC356"/>
		<stop  offset="1" style="stop-color:#58B089"/>
	</linearGradient>
	
		<rect x="384.179" y="10.954" clip-path="url(#SVGID_00000096749867856666098520000016789822170576462522_)" fill="url(#SVGID_00000117660156678531776340000011284757016846863780_)" width="106.416" height="158.111"/>
</g>
<g>
	<defs>
		<path id="SVGID_00000063622376981129321550000006057334438795872952_" d="M359.715,51.939c-1.074,0.44-1.839,0.733-2.653,1.025
			c-0.765,0.309-1.432,0.553-2.425,0.993c-5.778,2.262-8.268,2.881-16.635,4.118c-19.402,2.816-37.599,5.453-52.15,7.487
			c-17.172,2.197-27.035,3.434-30.063,3.434c-4.004,0-7.422-0.602-12.126-2.1l-0.358-0.13c-0.081-0.016-0.147-0.033-0.228-0.033
			c-0.146,0-0.293,0.049-0.423,0.163c-0.163,0.147-0.244,0.391-0.179,0.618c0.765,2.962,3.109,6.706,6.266,10.027
			c4.167,4.395,8.35,7.113,10.889,7.113c0.716,0,1.497-0.081,3.32-1.091c5.176-2.604,9.961-4.59,12.761-5.339
			c4.655-1.221,11.573-2.962,17.855-4.264c5.762-1.107,9.847-1.823,12.354-2.035c0.358,0,0.732,0.179,0.928,0.488
			c3.255,4.541,3.858,7.048,3.858,15.837c0,18.49-5.567,38.413-14.535,51.971c-4.346,6.511-9.961,12.354-16.228,16.863
			c-3.744,2.832-7.861,5.371-11.882,7.341c-0.293,0.147-0.439,0.472-0.326,0.781c0.098,0.26,0.342,0.423,0.602,0.423
			c0.049,0,0.098,0,0.163-0.016c0.732-0.212,1.514-0.44,2.311-0.684c6.299-1.807,13.884-4.818,18.637-6.999
			c14.616-6.901,24.724-15.805,31.821-28.028c5.013-8.659,8.431-18.848,10.482-31.153c4.899-6.039,10.059-10.401,11.654-10.547
			c0.798-0.065,1.433-0.716,1.481-1.595c0-0.016-0.081-2.132-0.96-2.767c-1.074-0.765-12.582-4.671-22.934-8.057
			c-1.921-0.96-4.102-2.018-6.706-3.272c-0.456-0.228-0.732-0.749-0.618-1.27c0.098-0.521,0.537-0.895,1.058-0.944
			c11.752-0.683,21.208-1.009,29.786-1.009c10.368,0,15.902,0.391,26.303,2.458c8.122,1.611,11.996,2.197,12.907,2.197
			c2.718,0,6.315-3.711,6.315-6.511c0-2.637-2.393-5.664-6.071-7.699c-6.853-3.906-18.262-8.529-21.062-8.529
			C362.743,51.206,361.766,51.239,359.715,51.939 M329.913,16.081l-1.107,0.456c-5.567,2.474-15.284,4.557-24.692,6.559
			c-9.571,1.904-18.344,3.06-23.471,3.06c-2.1,0-5.632-0.586-8.269-1.025c-0.309-0.065-0.651-0.13-1.025-0.228
			c-0.033-0.016-0.098-0.016-0.146-0.016c-0.179,0-0.391,0.098-0.505,0.26c-0.147,0.195-0.163,0.472-0.033,0.7l0.456,0.749
			c0.96,1.546,2.149,3.093,3.353,4.72c3.776,4.671,6.836,6.869,9.62,6.869c0.163,0,1.872-0.033,4.932-0.993
			c4.932-1.335,13.038-2.669,19.532-3.662c9.44-1.481,19.874-2.262,23.78-2.262c0.472,0,0.846,0.016,1.123,0.033l4.232,0.195
			c2.962,0.13,5.111,0.391,6.999,0.651c0.781,0.081,1.383,0.163,1.839,0.163c6.608,0,9.961-1.644,9.961-4.899
			c0-2.995-1.091-5.274-6.625-8.057c-6.169-3.076-10.922-5.127-14.047-5.127C334.438,14.226,333.884,14.438,329.913,16.081
			 M368.017,7.959c-0.391,0.619-0.277,1.416,0.228,1.937c3.744,3.809,7.08,10.059,7.927,14.828l0.212,1.188
			c0.602,3.337,0.684,3.776,1.579,5.209c1.27,1.807,3.255,2.734,5.892,2.734c3.858,0,6.446-2.995,6.446-7.471
			c0-4.916-4.02-10.71-9.994-14.372c-3.06-1.888-7.324-3.776-10.938-4.818C368.83,7.194,368.309,7.487,368.017,7.959 M384.977,0.977
			c-0.293,0.684-0.081,1.465,0.521,1.888c5.42,3.906,10.124,10.108,12.289,16.179c1.97,5.681,4.134,6.722,7.683,6.722
			c3.792,0,6.657-3.207,6.657-7.471c0-5.99-6.348-11.801-17.432-15.967c-3.418-1.237-5.957-1.953-8.252-2.328
			C385.791,0,385.221,0.374,384.977,0.977"/>
	</defs>
	<clipPath id="SVGID_00000066483710893602267730000006293704213340669852_">
		<use xlink:href="#SVGID_00000063622376981129321550000006057334438795872952_"  overflow="visible"/>
	</clipPath>
	
		<linearGradient id="SVGID_00000094581191644034246700000018112388506362529710_" gradientUnits="userSpaceOnUse" x1="106.137" y1="359.8457" x2="122.4136" y2="359.8457" gradientTransform="matrix(28.1487 0 0 -28.1487 -2930.0413 10212.0195)">
		<stop  offset="0" style="stop-color:#8EC356"/>
		<stop  offset="1" style="stop-color:#58B089"/>
	</linearGradient>
	
		<rect x="242.409" y="0" clip-path="url(#SVGID_00000066483710893602267730000006293704213340669852_)" fill="url(#SVGID_00000094581191644034246700000018112388506362529710_)" width="169.716" height="165.631"/>
</g>
</svg>
