<?xml version="1.0" encoding="utf-8"?>
<!-- Generator: Adobe Illustrator 27.0.1, SVG Export Plug-In . SVG Version: 6.00 Build 0)  -->
<svg version="1.1" id="레이어_1" xmlns="http://www.w3.org/2000/svg" xmlns:xlink="http://www.w3.org/1999/xlink" x="0px"
	 y="0px" viewBox="0 0 720 192.346" enable-background="new 0 0 720 192.346" xml:space="preserve">
<path d="M175.138,113.345l-96.429,0.011c-9.584,0-9.692-5.384-9.95-6.461l-1.174-1.669l-0.797,1.669v31.002l0.786,1.669l1.184-1.669
	c0.258-1.066,0.356-6.45,9.95-6.45h71.867v11.113c0,24.907-11.318,31.701-11.318,31.701c31.691,0,29.429-18.112,29.429-31.701
	v-17.584c0.108-9.293,5.384-9.411,6.451-9.659l1.669-1.184L175.138,113.345"/>
<path d="M118.532,138.204H87.531l-1.658,0.787l1.658,1.184c1.077,0.248,6.461,0.366,6.461,9.939l-0.021,6.892
	c0,24.917-11.318,31.701-11.318,31.701c31.691,0,29.429-18.112,29.429-31.701l-0.011-6.892c0-9.573,5.384-9.691,6.461-9.939
	l1.669-1.184L118.532,138.204"/>
<path d="M651.566,113.345l-96.429,0.011c-9.584,0-9.692-5.384-9.95-6.461l-1.174-1.669l-0.797,1.669v31.002l0.786,1.669l1.184-1.669
	c0.258-1.066,0.366-6.45,9.95-6.45h71.877v11.113c0,24.907-11.328,31.701-11.328,31.701c31.691,0,29.429-18.112,29.429-31.701
	v-17.584c0.119-9.293,5.395-9.411,6.451-9.659l1.669-1.184L651.566,113.345"/>
<path d="M594.96,138.204h-31.002l-1.658,0.787l1.658,1.184c1.077,0.248,6.461,0.366,6.461,9.939l-0.021,6.892
	c0,24.917-11.318,31.701-11.318,31.701c31.691,0,29.429-18.112,29.429-31.701l-0.011-6.892c0-9.573,5.395-9.691,6.461-9.939
	l1.669-1.184L594.96,138.204"/>
<path d="M291.928,120.139l-69.864,0.022l-0.022-7.538c0-9.594,5.384-9.702,6.45-9.949l1.68-1.185l-1.68-0.786l-31.001-0.011
	l-1.658,0.797l1.658,1.174c1.077,0.248,6.461,0.366,6.461,9.96v7.538h-6.472c-9.293-0.118-9.411-5.395-9.659-6.45l-1.174-1.669
	l-0.797,1.669v31.002l0.786,1.669l1.184-1.669c0.237-1.034,0.356-6.095,9.013-6.428h7.118v18.725
	c0,24.907-13.578,31.701-13.578,31.701c29.44,0,31.691-18.112,31.691-31.701v-18.725h45.302v29.364c-6.784,0-15.743,0-24.81-6.795
	c0,0,0.118,24.788,31.712,24.788c11.209,0,11.209-2.143,11.209-15.732v-38.151c0.108-9.282,5.384-9.4,6.451-9.648l1.669-1.184
	L291.928,120.139"/>
<path d="M316.975,135.04l1.173-1.658c0.259-1.077,0.377-6.471,9.961-6.471h53.151c9.584,0,9.702,5.384,9.96,6.461l1.174,1.658
	l0.776-1.658l0.011-31.002l-0.776-1.669l-1.184,1.669c-0.258,1.066-0.377,6.45-9.95,6.45H328.11c-9.584,0-9.692-5.384-9.95-6.45
	l-1.184-1.658l-0.776,1.658v31.012L316.975,135.04"/>
<path d="M406.77,131.822l-0.787-1.669l-1.184,1.669c-0.248,1.077-0.366,6.461-9.939,6.461h-80.298c-9.594,0-9.702-5.384-9.96-6.461
	l-1.184-1.669l-0.776,1.669v31.002l0.776,1.658l1.184-1.658c0.248-1.077,0.366-6.461,9.96-6.461l35.643,0.011v1.335
	c0,6.224-0.7,11.328-1.766,15.463c-1.066,4.146-2.476,7.333-3.887,9.723c-1.422,2.412-2.832,4.038-3.898,5.072
	c-1.066,1.023-1.777,1.454-1.777,1.454c7.936,0,13.74-1.142,17.972-3.058c4.254-1.895,6.946-4.587,8.636-7.699
	c1.702-3.112,2.412-6.665,2.692-10.273c0.28-3.597,0.151-12.017,0.151-12.017l26.533-0.011c9.573,0,9.691,5.384,9.939,6.461
	l1.196,1.658l0.776-1.658V131.822z"/>
<path d="M527.301,105.921l-1.185,1.594c-0.258,1.066-0.366,6.44-9.95,5.934l-75.797-2.455c-9.583-0.506-9.702-5.901-9.949-6.988
	l-1.174-1.723l-0.797,1.626v30.991l0.786,1.723l1.185-1.615c0.247-1.045,0.366-6.429,9.949-5.934l75.797,2.466
	c9.584,0.517,9.692,5.901,9.95,6.978l1.174,1.734l0.786-1.626v-31.002L527.301,105.921"/>
<path d="M527.301,158.016l-1.185,1.594c-0.258,1.066-0.366,6.439-9.95,5.933l-75.797-2.455c-9.583-0.506-9.702-5.901-9.949-6.988
	l-1.174-1.723l-0.797,1.626v31.001l0.786,1.712l1.185-1.604c0.247-1.056,0.366-6.44,9.949-5.934l75.797,2.466
	c9.584,0.506,9.692,5.89,9.95,6.978l1.174,1.723l0.786-1.626v-31.001L527.301,158.016"/>
<path d="M498.583,135.166l-0.894,1.207c-0.194,0.807-0.269,4.867-7.516,4.479l-23.83-0.786c-7.236-0.377-7.333-4.447-7.516-5.266
	l-0.883-1.303l-0.603,1.228v23.421l0.592,1.292l0.894-1.206c0.183-0.808,0.269-4.878,7.516-4.48l23.83,0.776
	c7.247,0.388,7.322,4.458,7.516,5.276l0.894,1.303l0.592-1.217v-23.431L498.583,135.166"/>
<path d="M405.771,126.175c-0.399-0.086-2.423-0.129-2.423-3.725v-9.153c0-3.596,2.024-3.64,2.423-3.736l0.624-0.442l-0.624-0.29
	h-11.619l-0.624,0.29l0.624,0.442c0.409,0.097,2.423,0.14,2.423,3.736v9.153c0,3.586-2.014,3.629-2.412,3.725l-0.636,0.453
	l0.636,0.28h11.608l0.635-0.28L405.771,126.175"/>
<path d="M417.096,126.175c-0.399-0.086-2.423-0.129-2.423-3.725v-9.153c0-3.596,2.024-3.64,2.423-3.736l0.624-0.442l-0.624-0.29
	h-11.619l-0.624,0.29l0.624,0.442c0.398,0.097,2.423,0.14,2.423,3.736v9.153c0,3.586-2.025,3.629-2.423,3.725l-0.624,0.453
	l0.624,0.28h11.619l0.624-0.28L417.096,126.175"/>
<path d="M247.172,25.244h-31.012l-1.669,0.776l1.669,1.184c1.077,0.259,6.461,0.366,6.461,9.95v24.96
	c0,24.896-11.328,31.691-11.328,31.691c31.702,0,29.429-18.101,29.429-31.691l-0.011-24.96c0-9.584,5.384-9.691,6.461-9.939
	l1.669-1.196L247.172,25.244"/>
<path d="M283.861,72.786l-0.022-46.949c0-9.584,5.384-9.702,6.461-9.95l1.658-1.184l-1.658-0.786h-31.012l-1.669,0.776l1.669,1.195
	c1.066,0.248,6.45,0.366,6.45,9.95v49.222c0,13.589,0,15.721,11.21,15.721c31.604,0,31.723-24.788,31.723-24.788
	C299.604,72.786,290.645,72.786,283.861,72.786"/>
<path d="M96.06,13.918H65.048l-1.659,0.776l1.659,1.196c1.077,0.248,6.461,0.366,6.461,9.939v36.289
	c0,24.896-13.578,31.691-13.578,31.691c29.429,0,31.691-18.111,31.691-31.691l-0.022-36.289c0-9.573,5.384-9.691,6.461-9.939
	l1.658-1.184L96.06,13.918"/>
<path d="M32.671,73.092c-1.077-0.247-6.461-0.366-6.461-9.949l-0.011-37.312c0-9.573,5.384-9.691,6.461-9.939l1.669-1.185
	l-1.669-0.786H1.659L0,14.696l1.659,1.196c1.077,0.248,6.461,0.366,6.461,9.939v37.301c0,9.594-5.384,9.702-6.461,9.96L0,74.266
	l1.659,0.786h7.602c5.395,0.119,7.839,2.412,7.839,4.221l0.065,0.076l0.064-0.076c0-1.798,2.412-4.081,7.753-4.21h7.689l1.658-0.797
	L32.671,73.092"/>
<path d="M204.666,35.234l-1.185,1.659c-0.258,1.077-0.377,6.461-9.95,6.461h-60.538l-0.011-17.52c0-9.583,5.384-9.691,6.45-9.95
	l1.669-1.173l-1.669-0.786h-31.001l-1.669,0.775l1.669,1.184c1.077,0.259,6.461,0.367,6.461,9.95v53.152
	c0,9.583-5.384,9.702-6.461,9.95l-1.658,1.184l1.658,0.786h7.634c5.374,0.129,7.807,2.412,7.807,4.221l0.065,0.065l0.075-0.065
	c0-1.798,2.402-4.07,7.742-4.221h7.689l1.669-0.786l-1.669-1.184c-1.077-0.248-6.45-0.367-6.45-9.95v-17.53h60.538
	c9.573,0,9.692,5.373,9.95,6.45l1.174,1.658l0.786-1.658V36.893L204.666,35.234"/>
<path d="M609.692,43.374h-31.034L577,44.149l1.658,1.184c1.077,0.259,6.461,0.366,6.461,9.95v3.92
	c0,24.907-11.317,31.701-11.317,31.701c31.691,0,29.429-18.123,29.429-31.701v-3.92c0-9.573,5.384-9.691,6.461-9.939l1.658-1.196
	L609.692,43.374"/>
<path d="M719.214,43.374l-1.174,1.659c-0.259,1.077-0.377,6.461-9.95,6.461h-29.72V32.315l11.738-3.941
	c9.109-2.994,10.897,2.089,11.468,3.025l1.647,1.206l0.226-1.819l-9.691-29.451L692.498,0l-0.603,1.938
	c0.097,1.109,1.669,6.246-7.441,9.25L653.42,21.59c-5.201,1.55-23.151,6.31-29.785,1.367c0,0,10.014,23.313,35.438,15.83
	l1.174-0.388v13.094l-32.456,0.011c-9.583,0-9.702-5.384-9.949-6.461l-1.174-1.658l-0.797,1.658v31.002l0.786,1.669l1.185-1.669
	c0.247-1.066,0.355-6.45,9.949-6.45h32.078c-0.301,2.983-0.786,5.631-1.389,7.979c-1.055,4.146-2.477,7.312-3.888,9.724
	c-1.422,2.412-2.832,4.027-3.888,5.061c-1.066,1.034-1.776,1.454-1.776,1.454c7.926,0,13.73-1.142,17.983-3.048
	c4.232-1.905,6.924-4.597,8.626-7.709c1.702-3.112,2.402-6.655,2.682-10.262c0.086-1.056,0.129-2.132,0.161-3.198h29.764
	c9.519,0.021,9.627,5.384,9.896,6.45l1.174,1.658l0.775-1.658L720,45.032L719.214,43.374"/>
<path d="M431.902,29.777l-44.946-0.011v-4.942c0.366-8.582,5.405-8.7,6.439-8.938l1.658-1.174l-1.658-0.797h-31.001l-1.669,0.786
	l1.669,1.184c1.077,0.248,6.461,0.366,6.461,9.95v3.93h-40.423l-1.669,0.786l1.669,1.184c1.066,0.248,6.45,0.366,6.45,9.939
	l0.01,21.472c0,9.573-5.384,9.691-6.45,9.939l-1.669,1.184l1.669,0.786h7.172c5.696,0.011,8.248,2.38,8.248,4.243l0.076,0.053
	l0.064-0.053c0-1.863,2.542-4.211,8.206-4.243h7.236l1.669-0.775l-1.669-1.196c-1.077-0.248-6.461-0.366-6.461-9.939V47.889h54.358
	v14.225c0,24.895-13.579,31.691-13.579,31.691c29.43,0,31.691-18.102,31.691-31.691V41.396c0.108-9.293,5.384-9.412,6.451-9.659
	l1.658-1.184L431.902,29.777"/>
<path d="M511.517,55.761l-9.681-29.451l-1.27-1.335l-0.592,1.949c0.097,1.098,1.669,6.246-7.441,9.25l-31.034,10.402
	c-5.19,1.562-23.152,6.321-29.774,1.368c0,0,9.788,22.807,34.598,16.087v13.31v1.648c0,9.584-5.384,9.702-6.461,9.95l-1.658,1.173
	l1.658,0.797h7.635c5.373,0.118,7.807,2.402,7.807,4.21l0.064,0.076l0.065-0.076c0-1.798,2.412-4.07,7.742-4.21h7.699l1.659-0.797
	l-1.659-1.173c-1.077-0.248-6.461-0.366-6.461-9.95V77.05v-19.06l13.772-4.641c9.099-2.993,10.886,2.089,11.468,3.037l1.637,1.206
	L511.517,55.761"/>
<path d="M540.719,79.306c-0.797-0.193-4.835-0.269-4.835-7.451V52.3c0-7.182,4.028-7.268,4.835-7.451l1.249-0.883l-1.249-0.592
	h-23.216l-1.249,0.592l1.249,0.883c0.797,0.183,4.835,0.269,4.835,7.451v19.555c0,7.182-4.038,7.258-4.835,7.451l-1.239,0.883
	l1.239,0.592h3.273c5.718,0,8.281,2.358,8.281,4.221l0.064,0.075l0.064-0.075c0-1.852,2.552-4.2,8.216-4.221h3.317l1.249-0.592
	L540.719,79.306"/>
<path d="M570.962,79.306c-0.808-0.193-4.835-0.269-4.835-7.451L566.116,52.3c0-7.182,4.038-7.268,4.835-7.451l1.249-0.883
	l-1.249-0.592h-23.216l-1.238,0.592l1.238,0.883c0.808,0.183,4.835,0.269,4.835,7.451v19.555c0,7.182-4.028,7.258-4.835,7.451
	l-1.238,0.883l1.238,0.592h3.284c5.718,0,8.281,2.358,8.281,4.221l0.064,0.075l0.064-0.075c0-1.852,2.552-4.2,8.216-4.221h3.317
	l1.238-0.592L570.962,79.306"/>
</svg>
