<?xml version="1.0" encoding="utf-8"?>
<!-- Generator: Adobe Illustrator 27.0.1, SVG Export Plug-In . SVG Version: 6.00 Build 0)  -->
<svg version="1.1" id="레이어_1" xmlns="http://www.w3.org/2000/svg" xmlns:xlink="http://www.w3.org/1999/xlink" x="0px"
	 y="0px" viewBox="0 0 720 152.277" enable-background="new 0 0 720 152.277" xml:space="preserve">
<path fill="#763B32" d="M708.88,89.92l10.845-62.131c0.836-4.744-0.248-9.489-3.027-13.556c-1.898-2.711-4.474-4.744-7.433-6.1
	c-1.965-1.356-4.225-2.259-6.71-2.711l-2.96-0.226c-8.382,0-15.499,6.101-16.945,14.234l-0.746,4.293l-3.389-2.033
	c-2.757-1.808-6.1-2.937-9.692-2.937h-2.44c-1.627-4.744-5.174-8.585-9.715-10.619c-2.756-1.807-6.1-2.937-9.692-2.937
	c-8.247,0-15.183,5.874-16.809,13.556h-12.991c-9.489,0-17.193,7.682-17.193,17.171c0,3.615,1.107,7.004,3.005,9.715
	c2.44,5.422,7.501,9.489,13.556,10.393l-4.7,4.519c-1.536-2.937-4.135-5.422-7.298-6.778c-2.192-1.581-4.857-2.485-7.727-2.485
	c-0.949-4.519-4.225-8.585-8.563-10.393c-2.192-1.356-4.857-2.486-7.749-2.486c-7.252,0-13.172,5.874-13.353,13.104
	c-3.909,0.452-7.275,2.711-9.331,5.874c-2.282-1.356-4.925-2.033-7.659-2.259c2.417-3.163,3.886-7.004,3.886-11.071
	c0-3.389-0.971-6.551-2.621-9.263c2.101,0.678,4.383,1.356,6.8,1.356c9.534,0,17.306-7.907,17.306-17.396
	c0-7.004-4.248-13.104-10.325-15.815C562.567,1.129,559.359,0,555.925,0c-3.14,0-6.055,0.903-8.54,2.485
	C544.9,0.903,541.962,0,538.845,0c-8.156,0-14.912,6.1-16.177,13.781l-5.4-2.259l-3.863-0.452c-8.066,0-14.934,5.422-16.764,13.33
	h-1.356c-9.467,0-17.193,7.682-17.193,17.171l0.271,2.937c-3.095-3.163-6.439-6.101-9.963-8.134l-1.423-0.678l-1.333-0.904
	c-2.598-1.356-5.558-2.259-8.54-2.259c-6.145,0-11.884,3.389-14.934,8.585c-3.389,5.874-2.869,13.104,0.7,18.3
	c1.491,3.39,3.999,6.327,7.411,8.36c1.085,0.678,4.383,4.293,7.479,9.489h0.022c-2.146-0.904-4.473-1.356-6.846-1.356
	c-3.525,0-6.913,1.13-9.76,2.937c-2.124-4.744-3.434-8.812-3.728-11.523c-0.655-6.551-4.858-12.2-10.619-14.685
	c-2.757-1.807-6.077-2.937-9.647-2.937h-0.565c3.638-6.551,3.005-14.912-2.169-20.785c-3.954-4.519-8.766-8.134-14.053-10.845
	c-4.7-2.937-9.851-4.971-15.228-5.874l-3.321-0.452c-4.903,0-9.421,2.259-12.585,5.648l-5.4-3.841
	c-2.553-1.581-5.513-2.711-8.653-2.937c-10.212-0.904-18.888,6.551-19.769,16.493l-3.209,36.827
	c-0.384,4.519,0.791,8.585,3.028,11.748c2.757,6.326,8.631,10.619,15.77,11.297h1.672c4.586,0,8.766-1.581,12.042-4.067
	c2.327,0.452,4.428,1.582,6.01,3.389l0.294,0.452l0.746,5.196c-0.565,6.101-6.1,10.845-12.494,10.393l-3.118-0.678l-2.847-3.39
	c-2.033-3.614-5.196-6.326-8.879-7.907c-2.96-2.033-6.439-3.163-10.099-3.163c-3.118,0-6.213,0.904-8.947,2.486
	c-4.248,2.259-7.298,6.326-8.585,10.844c-1.333,4.745-0.723,9.715,1.672,14.008l0.858,1.356l0.678,1.356
	c4.654,8.133,11.5,14.685,19.611,18.978c-15.115,0.903-25.666,2.711-25.666,4.744c0,2.711,19.204,4.971,42.904,4.971
	c23.723,0,42.949-2.259,42.949-4.971c0-1.582-6.145-2.937-15.77-3.841c14.143-7.229,24.604-20.785,26.931-37.052l2.96,5.422
	c4.496,8.359,8.834,14.685,10.37,16.945c3.208,4.519,8.45,7.456,14.076,7.682h0.813c5.332,0,10.393-2.259,13.827-6.326
	l14.053-16.719c3.118-3.841,4.609-8.359,4.18-13.33l-0.384-2.259l5.784,0.904c2.259,0,4.473-0.452,6.575-1.13l2.44,5.197
	c2.237,4.971,6.688,9.037,12.426,10.393l2.508,0.226c-0.655,4.067,0.271,8.359,2.621,11.748l1.83,3.163
	c3.185,4.518,8.337,7.004,13.782,7.004h28.219c6.846,0,12.743-3.841,15.454-9.715c3.796,3.163,8.879,4.971,14.776,4.971
	c5.016,0,9.986-2.259,15.002-6.778c2.35,3.389,6.1,5.648,10.461,5.874l4.744-0.452l-0.271,1.129c-0.926,4.519,0,9.037,2.553,12.878
	l0.113,0.225l1.446,2.712c2.666,4.067,6.755,6.778,11.5,7.682c2.914,0.452,5.806,0.903,8.608,0.903
	c8.744,0,16.719-2.711,23.068-8.133c4.383-3.389,7.794-8.134,9.896-13.104l0.294,0.452l0.52,1.129l0.655,1.13l4.451,3.163
	l0.249,0.226l3.457,4.067l1.039,0.678l5.603,0.452l5.016,2.034h0.249l1.265-0.226l5.061-2.259l5.513-0.904l1.13-0.678l3.163-4.518
	h0.022l4.338-3.615l0.61-1.13l0.52-5.422h-0.045l0.09-0.226l1.921-4.97l-0.045-1.356l-2.35-5.196l-0.904-5.423l-0.655-1.129
	l-3.118-2.711C705.762,98.054,708.112,94.213,708.88,89.92 M671.805,81.561c-0.746,4.293,0.226,8.585,2.395,11.974l-2.417,0.904
	l-1.085,0.678l-2.847,4.067l-0.113,0.452l-0.746,0.225c0.023-2.259,0-4.293-0.09-6.326c1.31-3.389,2.056-7.23,2.056-11.07
	c0-3.389-0.565-6.778-1.581-9.715V56.483h3.75l5.219-0.904L671.805,81.561z M276.268,72.297c2.756,6.326,8.97,10.619,16.154,10.619
	h0.926c3.163-0.225,6.145-1.129,8.721-2.937c2.417,1.356,5.151,2.033,8.043,2.033h0.926c4.722-0.225,9.06-2.485,12.223-5.874
	c3.163-3.615,4.767-8.134,4.519-12.878c-0.362-6.778-4.609-12.652-10.528-15.138c-2.937-2.033-6.507-3.163-10.325-2.937
	c-3.185,0.225-6.145,1.129-8.698,2.937l-1.83-0.903l2.35-2.711c6.913-8.36,5.829-20.56-2.44-27.564l-4.519-2.937
	c-3.05-2.033-6.665-3.163-10.37-3.163c-5.535,0-10.754,2.486-14.324,6.778l-40.057,47.671l-0.791,1.13l-3.864-2.259
	c-2.937-2.033-6.439-3.163-10.167-3.163l-5.49,0.904c-4.654,1.356-8.45,4.519-10.687,8.811l-1.74,4.971l-2.576-4.518
	c-1.943-2.711-4.541-4.744-7.478-6.101l-4.022-2.033l5.558-11.974c2.146-4.744,2.372-9.715,0.61-14.685
	c-1.762-4.744-5.287-8.585-9.919-10.619l-0.226-0.226l-2.463-1.356c-2.417-1.129-5.016-1.807-7.659-1.807
	c-7.072,0-13.578,4.293-16.561,10.619l-19.769,42.701c-2.802-12.878-9.557-24.4-19.204-32.986l6.168-5.648
	c6.055-5.648,8.02-14.008,5.061-21.689c-1.921-4.971-5.603-8.812-10.19-10.845c-3.028-2.033-6.665-3.163-10.528-3.163H51.738
	c-10.393,0-18.843,8.359-18.843,18.752c0,3.841,1.175,7.682,3.231,10.619c2.53,5.422,7.501,9.489,13.51,11.07l-10.619,9.716
	c-3.728,3.389-5.897,7.907-6.1,12.878l0.587,5.874c-2.688-1.582-5.784-2.485-9.082-2.485h-0.565
	c-10.393,0.452-18.594,9.037-18.301,19.43c0.339,11.748,3.479,22.593,8.789,31.63c5.196,9.941,12.878,18.075,22.39,23.723
	C15.228,143.24,0,145.047,0,147.307c0,2.711,25.914,4.97,57.861,4.97s57.861-2.259,57.861-4.97c0-1.356-6.529-2.711-17.08-3.615
	l4.293-2.485l1.197-0.904l1.514-1.129c3.253-2.259,6.281-4.971,9.015-7.908l1.084-1.13l1.017-1.356l3.886-4.971l3.434,3.615
	c3.412,2.711,7.682,4.293,12.065,4.293c4.157,0,8.111-1.356,11.432-3.84l16.606-12.427c7.41,8.134,18.052,13.104,29.868,13.104
	c19.43,0,35.72-13.782,39.651-32.082c3.028,1.807,6.462,2.937,9.963,2.937h0.203l33.506,32.082
	c3.683,3.615,8.495,5.423,13.601,5.423h1.017c4.97-0.226,9.625-2.259,13.081-5.874c7.501-7.908,7.252-20.334-0.52-27.79
	l-30.501-29.371l1.853-2.033L276.268,72.297z M66.808,110.254c-3.886,0-7.411-0.903-10.506-2.259
	c-5.919-3.841-9.579-10.845-9.828-19.43l-0.294-2.711c2.463,0.904,5.151,1.582,7.863,1.582h0.022c4.948,0,9.67-1.808,13.33-5.197
	l13.624-12.426c2.847,1.807,5.241,4.067,7.049,6.778c1.446,3.163,2.259,6.552,2.259,10.167
	C90.327,99.636,79.776,110.254,66.808,110.254z"/>
<path fill="#F4A000" d="M349.311,77.946c-6.868-0.452-11.952-6.551-11.342-13.33l3.231-37.052
	c0.587-6.778,6.643-11.749,13.488-11.297c6.868,0.678,11.952,6.778,11.342,13.556l-3.231,36.826
	C362.212,73.654,356.157,78.624,349.311,77.946"/>
<path fill="#FFF000" d="M356.632,132.847c-13.895-1.129-26.253-9.037-33.122-21.237c-3.389-6.101-1.265-13.556,4.744-16.945
	c5.987-3.39,13.578-1.356,16.968,4.744c2.824,4.971,7.885,8.133,13.578,8.811c9.489,0.678,17.894-6.326,18.73-15.815
	c0.836-9.489-6.213-17.849-15.725-18.753c-2.056-0.225-4.089,0-6.055,0.452c-6.643,1.807-13.511-2.033-15.318-8.585
	c-1.807-6.778,2.124-13.556,8.766-15.363c4.812-1.356,9.783-1.808,14.776-1.356c23.203,2.033,40.419,22.593,38.385,45.864
	C400.327,117.71,379.812,134.881,356.632,132.847"/>
<path fill="#F4A000" d="M51.761,78.397c-3.547,0-7.094-1.356-9.67-4.292c-4.88-5.197-4.519-13.556,0.813-18.526l24.514-22.368
	h-15.68c-7.23,0-13.081-5.874-13.081-13.104S44.508,7.004,51.738,7.004h49.366c5.4,0,10.235,3.389,12.2,8.359
	c1.943,5.196,0.61,10.844-3.366,14.459L60.594,75.008C58.064,77.268,54.901,78.397,51.761,78.397"/>
<path fill="#FFF000" d="M66.808,142.11c-31.224,0-54.54-23.045-55.466-54.901c-0.226-7.23,5.467-13.33,12.697-13.556h0.384
	c7.049,0,12.855,5.648,13.081,12.653c0.497,17.396,12.539,29.597,29.303,29.597c16.154,0,29.28-13.104,29.28-29.145
	c0-13.104-8.314-24.401-20.718-28.015c-6.913-2.259-10.822-9.489-8.699-16.267c2.101-7.004,9.421-10.845,16.335-8.812
	c23.474,7.23,39.267,28.467,39.267,53.094C122.273,117.258,97.398,142.11,66.808,142.11"/>
<polyline fill="#763B32" points="53.139,133.524 51.173,138.27 47.897,134.203 53.139,133.524 "/>
<polyline fill="#763B32" points="55.308,132.395 57.725,132.847 55.963,137.14 57.974,137.592 57.183,139.625 52.777,138.722 
	55.308,132.395 "/>
<path fill="#763B32" d="M60.301,137.818l0.474,0.903l0.701-0.452l1.649,0.452l-2.757,1.356l-2.124-2.485l0.949-1.808l2.169-0.678
	l2.146,2.259l-0.113,0.678L60.301,137.818 M61.634,137.139v-0.225l-0.407-0.452l-0.723,0.452L61.634,137.139z"/>
<polyline fill="#763B32" points="64.3,137.139 63.713,137.139 64.074,135.558 64.639,135.558 64.933,134.203 67.147,134.203 
	66.876,135.558 67.553,135.558 67.192,137.366 66.514,137.366 65.881,140.303 63.667,140.303 64.3,137.139 "/>
<polyline fill="#763B32" points="69.428,133.524 71.801,133.299 69.88,136.688 67.915,136.914 69.428,133.524 "/>
<polyline fill="#763B32" points="70.739,138.043 72.072,138.722 72.32,138.496 71.936,138.27 71.552,138.043 70.603,136.914 
	72.433,135.107 74.353,135.558 73.721,136.688 72.817,136.462 72.569,136.688 73.021,136.914 73.292,136.914 74.286,138.043 
	72.343,140.077 70.061,139.625 70.739,138.043 "/>
<path fill="#763B32" d="M79.573,136.689l0.746,0.452l0.52-0.678h1.717l-2.101,2.259l-2.847-1.582l0.203-2.033l1.807-1.356
	l2.824,1.356l0.135,0.678L79.573,136.689 M80.544,135.332h-0.023l-0.565-0.225l-0.497,0.678L80.544,135.332z"/>
<polyline fill="#763B32" points="82.487,133.073 84.453,132.17 84.566,132.847 85.808,131.492 87.593,132.395 87.819,133.299 
	88.339,135.785 86.237,136.688 85.786,134.203 85.673,133.751 85.289,133.751 85.063,134.881 85.469,136.914 83.413,137.818 
	82.487,133.073 "/>
<path fill="#763B32" d="M87.322,129.684l0.655-1.807l1.536,0.452l-0.678,1.582L87.322,129.684 M87.842,130.813l1.988-0.903
	l1.92,6.551l-1.988,0.904L87.842,130.813z"/>
<path fill="#763B32" d="M90.869,130.136l1.333-1.807l3.208,0.678l0.384,1.807l-1.378,2.034l-3.163-0.678L90.869,130.136
	 M92.903,130.813l0.7,0.226l0.135-0.904l-0.678-0.225L92.903,130.813z"/>
<polyline fill="#763B32" points="97.512,129.458 94.303,127.199 96.02,125.844 96.901,126.521 97.534,127.199 97.263,126.295 
	97.014,125.166 98.867,123.584 99.816,131.492 97.873,132.847 97.512,129.458 "/>
<polyline fill="#763B32" points="105.397,124.261 102.211,124.261 101.33,122.454 102.166,120.195 103.228,119.517 104.267,120.872 
	103.567,121.325 103.589,122.454 104.606,122.454 104.922,121.776 105.962,123.358 105.397,124.261 "/>
<polyline fill="#763B32" points="107.136,120.647 103.431,119.066 104.742,117.484 105.826,117.936 106.594,118.388 
	106.097,117.484 105.532,116.355 106.978,114.547 109.825,122.003 108.311,123.81 107.136,120.647 "/>
<polyline fill="#763B32" points="111.994,115.676 108.898,116.58 107.656,114.773 108.085,112.514 108.989,111.61 110.277,112.74 
	109.644,113.418 109.893,114.547 110.909,114.321 111.09,113.643 112.4,114.773 111.994,115.676 "/>
<polyline fill="#763B32" points="112.988,113.869 107.407,109.35 108.469,107.317 114.027,111.835 112.988,113.869 "/>
<path fill="#763B32" d="M109.644,107.316l-0.52-1.807l1.446-0.452l0.52,1.581L109.644,107.316 M110.797,107.994l0.926-2.033
	l3.909,2.712l-0.926,2.033L110.797,107.994z"/>
<polyline fill="#763B32" points="112.107,105.058 112.807,103.251 113.395,103.477 113.169,101.669 114.931,100.766 
	115.744,101.217 118.003,102.573 117.258,104.606 115.179,103.477 114.773,103.251 114.411,103.477 115.134,104.38 116.987,105.51 
	116.264,107.543 112.107,105.058 "/>
<path fill="#763B32" d="M115.066,94.665l3.999,1.807l1.74,3.389l-1.017,2.033l-1.152-0.903l0.655-1.13l-0.7-1.356l-0.384-0.226
	l0.452,1.582l-2.237,1.356l-1.74-1.129l-0.542-1.808l1.107-1.129l-0.655-0.226L115.066,94.665 M116.648,98.957l0.61-0.452
	l-0.542-0.678l-0.655,0.226L116.648,98.957z"/>
<path fill="#763B32" d="M112.83,93.31l0.294-2.485l4.134,1.581l-0.271,2.033L112.83,93.31 M118.727,95.117l-1.175-1.356l1.288-1.129
	l1.152,1.582L118.727,95.117z"/>
<path fill="#F4A000" d="M133.841,122.68c-2.802,0-5.581-0.903-7.863-2.937c-4.428-3.39-5.852-9.716-3.434-14.912l32.263-69.361
	c2.914-6.326,10.302-9.037,16.561-6.1c6.236,2.937,8.947,10.393,6.055,16.493l-11.522,24.853l0.746-0.452
	c5.513-4.293,13.307-3.163,17.442,2.485c4.112,5.423,2.96,13.33-2.553,17.397l-40.238,30.048
	C139.083,121.777,136.462,122.68,133.841,122.68"/>
<path fill="#FFF000" d="M191.725,119.517c-18.685,0-33.912-15.137-33.912-33.89c0-6.778,5.58-12.426,12.471-12.426
	c6.891,0,12.471,5.648,12.471,12.426c0,4.971,4.021,9.038,8.97,9.038c4.97,0,8.992-4.067,8.992-9.038l-0.407-2.711
	c-2.078-6.551,1.582-13.555,8.156-15.589c6.552-2.033,13.556,1.582,15.634,8.134c1.017,3.389,1.536,6.778,1.536,10.166
	C225.637,104.38,210.432,119.517,191.725,119.517"/>
<path fill="#F4A000" d="M242.04,90.372c-3.141,0-6.349-0.903-8.97-3.163c-5.468-4.519-6.168-12.652-1.604-18.074l40.057-47.898
	c4.564-5.422,12.72-6.1,18.187-1.581c5.468,4.744,6.191,12.878,1.604,18.3L251.28,85.627
	C248.885,88.564,245.496,90.146,242.04,90.372"/>
<path fill="#FFF000" d="M289.35,128.102c-3.457,0-6.959-1.129-9.647-3.614l-42.317-40.893c-5.151-4.745-5.287-13.104-0.362-18.075
	c4.971-5.197,13.127-5.422,18.278-0.452l42.317,40.667c5.128,4.971,5.287,13.104,0.361,18.3
	C295.608,126.521,292.49,127.877,289.35,128.102"/>
<path fill="#FFF000" d="M301.121,62.356c0.339,6.101-4.338,11.297-10.416,11.523c-6.077,0.226-11.251-4.293-11.568-10.393
	c-0.339-6.1,4.338-11.297,10.415-11.523C295.63,51.512,300.827,56.257,301.121,62.356"/>
<path fill="#FFF000" d="M318.811,61.452c0.316,6.101-4.338,11.071-10.438,11.523c-6.077,0.226-11.251-4.293-11.568-10.393
	c-0.316-6.1,4.361-11.297,10.438-11.748C313.298,50.608,318.495,55.353,318.811,61.452"/>
<path fill="#FFF000" d="M549.464,16.493c0,5.874-4.745,10.619-10.619,10.619c-5.874,0-10.641-4.744-10.641-10.619
	c0-5.874,4.767-10.618,10.641-10.618C544.719,5.874,549.464,10.619,549.464,16.493"/>
<path fill="#FFF000" d="M566.566,16.493c0,5.874-4.767,10.619-10.642,10.619s-10.641-4.744-10.641-10.619
	c0-5.874,4.767-10.618,10.641-10.618S566.566,10.619,566.566,16.493"/>
<path fill="#F4A000" d="M398.542,49.931c-3.163,0-6.349-1.129-8.585-3.84c-2.666-2.937-6.304-5.197-10.258-5.874
	c-6.19-1.129-10.234-7.23-9.037-13.33c1.22-6.326,7.185-10.393,13.398-9.037c8.879,1.582,17.08,6.326,23.067,13.33
	c4.157,4.519,3.683,11.748-1.062,16.041C403.919,49.027,401.208,49.931,398.542,49.931"/>
<path fill="#F4A000" d="M436.882,121.325l-0.52-0.225c-3.547,0-6.823-1.808-8.856-4.744c-2.011-2.937-19.791-28.92-21.735-48.35
	c-0.633-6.326,3.954-11.748,10.235-12.426c6.258-0.678,11.884,3.84,12.517,10.166s5.038,16.041,9.783,24.626l3.886-4.744
	c4.067-4.744,11.274-5.422,16.086-1.356c4.835,4.067,5.445,11.297,1.401,16.267l-14.053,16.493
	C443.457,119.744,440.248,121.325,436.882,121.325"/>
<path fill="#FFF000" d="M474.364,83.594c-4.293,0-8.427-2.485-10.371-6.778c-4.067-8.811-10.054-15.589-12.607-17.171
	c-5.467-3.163-7.365-10.166-4.202-15.589c3.14-5.422,10.122-7.455,15.589-4.292c9.263,5.422,17.6,18.074,21.938,27.564
	c2.666,5.648,0.181,12.426-5.513,15.137L474.364,83.594"/>
<path fill="#F4A000" d="M499.895,98.279l-2.598-0.225c-6.145-1.582-9.986-7.682-8.563-13.782l13.533-58.516
	c1.423-6.1,7.546-9.941,13.691-8.585c6.145,1.356,9.986,7.456,8.563,13.782L511.01,89.468
	C509.79,94.665,505.091,98.279,499.895,98.279"/>
<path fill="#FFF000" d="M679.893,102.798c-6.348,2.033-9.963,8.812-8.02,15.138c1.966,6.326,8.721,9.941,15.092,7.907
	c6.371-1.807,9.963-8.585,8.02-14.911C693.042,104.38,686.264,100.765,679.893,102.798 M689.111,107.317h0.452l1.581,1.807
	l-0.022,0.226l-0.045,0.225l-0.09,0.452l0.926,2.259l0.384,0.225h0.023l0.339,0.226l0.135,1.129l-0.294,0.226h-0.022l-0.339,0.452
	l-0.881,3.615l0.135,0.452h0.045l0.068,0.452l-1.469,1.807h-0.994l-2.033,1.356l-0.203,0.452h0.023l-0.249,0.452l-2.327,0.452
	l-0.362-0.226l-0.023-0.226l-0.384-0.225l-2.304-0.452l-0.452,0.226l-0.068,0.226h-0.429l-2.101-1.13l-0.135-0.226l0.09-0.225
	l-0.09-0.452l-1.536-1.807l-0.475-0.226l-0.181,0.226l-0.407-0.226l-0.904-2.259l0.181-0.452h0.203l0.249-0.452l-0.068-2.259
	l-0.294-0.452h-0.181l-0.203-0.452l0.723-2.259l0.406-0.225l0.181,0.225l0.452-0.225l0.678-1.13l0.723-0.678l0.068-0.452
	l-0.09-0.226l0.09-0.452l2.033-1.129h0.429l0.068,0.225h0.474l2.282-0.452l0.339-0.226l0.023-0.225l0.339-0.226l2.372,0.226
	l0.271,0.452h-0.023l0.226,0.452l2.124,1.13H689.111z M699.978,111.835l-1.582-1.129l-0.474-1.582l0.61-2.033l0.407-1.582
	l-0.678-1.129l-1.762-0.452l-1.966-0.225l-1.22-1.13l-0.407-2.033l-0.52-1.582l-1.13-0.678l-1.717,0.452l-1.807,0.904l-1.649-0.452
	l-1.31-1.582l-1.31-1.129h-1.31l-1.22,1.356l-1.198,1.582l-1.604,0.452l-1.875-0.678l-1.762-0.226l-1.085,0.678l-0.406,1.581
	l-0.249,2.033l-1.152,1.13l-1.92,0.452h-0.023l-1.717,0.678l-0.587,0.904l0.52,1.807l0.746,1.808l-0.362,1.582l-1.491,1.356
	l-1.22,1.356l0.045,1.356l1.31,1.129l1.559,1.356l0.497,1.582l-0.633,1.807l-0.407,1.808l0.678,0.904l1.762,0.452l1.966,0.226
	l1.242,1.129l0.384,2.033l0.52,1.808l1.129,0.452l1.74-0.452l1.807-0.678l1.65,0.225l1.288,1.582l1.333,1.129h1.288l1.22-1.356
	l1.198-1.581l1.627-0.452l1.853,0.678l1.762,0.452l1.085-0.678l0.406-1.808l0.249-2.033l1.152-1.129l1.943-0.452l1.74-0.452
	l0.587-1.129l-0.52-1.808l-0.746-1.807l0.362-1.582l1.468-1.356l1.243-1.356l-0.045-1.13L699.978,111.835z M687.326,127.198
	c-7.049,2.034-14.527-1.807-16.674-9.037c-2.146-7.004,1.83-14.459,8.879-16.493c7.049-2.259,14.527,1.807,16.674,8.811
	S694.375,124.94,687.326,127.198z"/>
<path fill="#F4A000" d="M689.157,96.02l-2.372-0.225c-6.213-1.13-10.37-7.004-9.286-13.33l10.845-62.131
	c1.085-6.101,7.004-10.167,13.217-9.263c6.213,1.129,10.37,7.004,9.286,13.33l-10.845,62.131
	C699.052,91.953,694.443,95.794,689.157,96.02"/>
<path fill="#FFF000" d="M533.626,53.093h-38.341c-6.304,0-11.41-5.196-11.41-11.522c0-6.101,5.106-11.297,11.41-11.297h38.341
	c6.303,0,11.432,5.196,11.432,11.297C545.058,47.897,539.929,53.093,533.626,53.093"/>
<path fill="#FFF000" d="M546.526,90.598l-3.208-0.452c-3.954-1.129-6.62-4.744-7.117-8.585h-14.979
	c-5.739,0-10.393-4.518-10.393-10.393c0-5.648,4.654-10.393,10.393-10.393h28.219c3.321,0,6.439,1.581,8.382,4.293
	c1.965,2.711,2.53,6.326,1.491,9.263l-2.914,9.263C554.976,87.887,550.887,90.598,546.526,90.598"/>
<path fill="#F4A000" d="M544.764,120.195h-28.219c-3.344,0-6.462-1.581-8.404-4.292c-1.966-2.712-2.508-6.101-1.491-9.263
	l2.937-9.038c1.762-5.648,7.614-8.585,13.081-6.778c3.954,1.356,6.597,4.744,7.094,8.585h15.002c5.739,0,10.37,4.519,10.37,10.393
	C555.134,115.45,550.503,120.195,544.764,120.195"/>
<path fill="#FFF000" d="M596.796,72.297h-27.722c-4.202,0-7.614-3.389-7.614-7.455c0-4.293,3.412-7.682,7.614-7.682h27.722
	c4.202,0,7.614,3.389,7.614,7.682C604.41,68.909,600.998,72.297,596.796,72.297"/>
<path fill="#FFF000" d="M574.994,115.45c-4.654,0-8.36-1.356-11.003-4.067c-3.908-4.067-3.863-9.037-3.863-11.748v-0.452
	c0-8.134,7.93-15.364,14.708-18.979c5.196-2.711,10.37-4.067,15.092-3.84c1.988-3.615,6.394-4.971,10.054-3.163
	c3.525,1.808,5.084,5.874,3.683,9.489c4.609,5.422,6.484,13.781,5.535,24.853c-0.339,4.067-4.021,7.229-8.201,7.004
	c-4.18-0.452-7.297-4.067-6.959-8.359c0.113-1.356,0.271-3.841,0.09-6.552C587.171,110.028,580.777,115.45,574.994,115.45"/>
<path fill="#F4A000" d="M668.823,47.445h-51.648c-6.326,0-11.432-5.196-11.432-11.522s5.106-11.297,11.432-11.297h51.648
	c6.303,0,11.409,4.971,11.409,11.297S675.126,47.445,668.823,47.445"/>
<path fill="#FFF000" d="M659.989,80.205c0-3.163-0.565-6.1-1.582-8.585V22.367c0-6.326-5.106-11.522-11.432-11.522
	c-6.304,0-11.432,5.196-11.432,11.522v32.986h-0.271c-13.624,0-24.717,11.07-24.717,24.852c0,13.556,10.958,24.401,24.468,24.627
	v8.359c-0.361,1.129-2.056,4.293-8.698,3.163c-6.191-1.356-12.201,2.711-13.443,8.812c-1.243,6.326,2.779,12.2,8.97,13.556
	c2.485,0.452,4.925,0.678,7.297,0.678c7.117,0,13.646-2.259,18.843-6.552c6.01-4.744,9.896-12.426,9.896-18.978v-10.167l0.045-2.033
	c0.113-3.84,0.135-7.682-0.09-11.523C659.221,86.983,659.989,83.82,659.989,80.205"/>
<path fill="#763B32" d="M635.294,96.924c-6.439,0-12.426-3.614-15.205-9.489c-1.965-4.067-2.214-8.585-0.723-12.878
	c1.491-4.293,4.541-7.682,8.585-9.715c2.327-0.904,4.767-1.582,7.32-1.582c6.439,0,12.426,3.841,15.205,9.489
	c1.966,4.067,2.214,8.811,0.723,12.878c-1.491,4.293-4.541,7.682-8.608,9.716C640.287,96.472,637.848,96.924,635.294,96.924
	 M635.272,64.39c-2.395,0-4.7,0.452-6.846,1.582c-3.818,1.808-6.688,4.97-8.088,9.037c-1.401,3.841-1.152,8.134,0.678,11.974
	c2.621,5.423,8.224,9.038,14.279,9.038c2.372,0,4.7-0.678,6.846-1.582c3.818-1.808,6.688-4.971,8.088-9.037
	c1.378-4.067,1.152-8.359-0.678-12.2C646.907,67.779,641.304,64.39,635.272,64.39z"/>
<path fill="#763B32" d="M644.987,93.083l-1.514-5.196l0.361-0.452l5.377,0.904h0.158l0.406-0.678h-0.135l-3.66-4.067l0.158-0.678
	l5.264-1.356h0.158l0.045-0.903h-0.158l-5.061-2.033l-0.068-0.678l4.067-3.615h0.158l-0.339-0.904h-0.135l-5.49,0.452l-0.294-0.452
	l2.101-4.971l0.09-0.226l-0.633-0.452h-0.113l-4.767,2.711l-0.497-0.226l-0.294-5.648h0.023l-0.813-0.225h-0.068l-3.14,4.518h-0.542
	l-2.621-4.744l-0.068-0.226l-0.813,0.226l-0.881,5.422l-0.52,0.226l-4.451-3.163h-0.113l-0.678,0.452h0.068l1.536,5.422
	l-0.384,0.226l-5.377-0.904h-0.158l-0.384,0.678l0.113,0.226l3.66,4.067l-0.158,0.452l-5.241,1.581h-0.158l-0.045,0.904h0.158
	l5.061,2.033l0.068,0.452l-4.067,3.614l-0.158,0.226l0.339,0.678h0.158l5.445-0.452l0.316,0.452l-2.101,5.197h-0.09l0.61,0.678
	l0.135-0.226l4.767-2.485l0.497,0.225l0.271,5.423l-0.023,0.225l0.814,0.226l0.068-0.226l3.141-4.518h0.565l2.598,4.744l0.068,0.226
	h0.836l-0.022-0.226l0.904-5.422l0.497-0.226l4.451,3.163l0.113,0.225l0.701-0.452L644.987,93.083 M648.805,87.435l-0.158,0.226
	l-4.97-0.904l-0.655-0.452l-0.497-1.808l0.339-0.678l1.717-0.452l0.858,0.226L648.805,87.435z M641.011,79.527l-0.068-0.678h0.181
	l0.09,0.452L641.011,79.527z M641.078,81.561l-0.135,0.452h-0.203l0.158-0.452H641.078z M641.214,78.172l-0.384-0.903l0.474-0.226
	h0.294l0.294,0.678l-0.135,0.452H641.214z M641.508,79.98h0.565l0.203,0.225l-0.045,0.678l-0.226,0.226l-0.542-0.226L641.508,79.98z
	 M642.276,79.302l-0.135-0.678l0.226-0.678l0.678-0.226l1.423,0.678l0.09,0.452l-1.152,1.13l-0.746-0.226L642.276,79.302z
	 M641.801,76.591l-0.542-0.226l-0.497-0.678l-0.045-0.452l0.497-0.678h1.536l0.316,0.452l-0.587,1.356L641.801,76.591z
	 M640.965,82.691l0.52,0.226l0.091,0.225l-0.362,0.678h-0.316l-0.407-0.225L640.965,82.691z M640.807,84.498l0.565-0.225
	l0.633,0.452l0.429,1.356l-0.362,0.452l-1.514-0.225l-0.429-0.678l0.09-0.452L640.807,84.498z M642.072,83.142l-0.158-0.678
	l0.226-0.904l0.452-0.225h0.723l1.039,1.129l-0.158,0.452l-1.491,0.452L642.072,83.142z M650.635,80.883l-0.023,0.226l-4.857,1.356
	l-0.859-0.225l-1.175-1.356l0.022-0.678l1.356-1.129l0.859-0.226L650.635,80.883z M644.377,74.331l5.038-0.226l0.135,0.226
	l-3.773,3.389l-0.881,0.226l-1.649-0.678l-0.294-0.678l0.701-1.582L644.377,74.331z M640.988,70.943l4.406-2.486l0.271,0.226
	l-1.966,4.744l-0.723,0.452l-1.785,0.226l-0.542-0.452l-0.091-1.808L640.988,70.943z M640.197,75.235l0.022,0.226l-0.429,0.452
	l-0.723-0.678l0.271-0.452h0.316L640.197,75.235z M640.288,76.816l-0.135,0.226l-0.316-0.452l0.158-0.226L640.288,76.816z
	 M640.129,73.654l-0.497,0.452h-0.565l-0.768-0.452l-0.271-0.452l0.203-0.678l1.333-0.678l0.474,0.226L640.129,73.654z
	 M638.299,75.235l-0.452-0.225l0.09-0.226l0.452,0.226L638.299,75.235z M636.447,69.361l2.914-4.067h0.339l0.271,5.196l-0.43,0.678
	l-1.581,0.904l-0.678-0.226l-0.881-1.582L636.447,69.361z M637.464,74.331l-0.926-0.226l0.045-0.678h0.971l0.181,0.452
	L637.464,74.331z M636.063,70.716l0.746,1.356l-0.203,0.678l-0.497,0.452h-0.881l-0.474-0.452l-0.113-0.678l0.881-1.356H636.063z
	 M635.859,74.331h-0.52l0.022-0.226h0.52L635.859,74.331z M634.707,73.879l-0.949,0.226l-0.203-0.452l0.181-0.226l0.723-0.226
	l0.271,0.226L634.707,73.879z M632.538,65.068l0.316-0.226l2.44,4.519l-0.045,0.903l-1.039,1.356l-0.723,0.225l-1.446-1.129
	l-0.339-0.678L632.538,65.068z M631.431,71.62l0.52-0.226l1.243,0.904l0.113,0.678l-0.316,0.452l-0.813,0.452l-0.565-0.225
	l-0.429-0.452L631.431,71.62z M633.306,74.783l-0.497,0.226l-0.068-0.226l0.474-0.226L633.306,74.783z M631.521,74.331h0.316
	l0.226,0.452l-0.791,0.452l-0.384-0.225l0.045-0.452L631.521,74.331z M631.137,76.139l-0.362,0.452l-0.135-0.226l0.362-0.452
	L631.137,76.139z M626.235,67.779l0.294-0.226l4.112,2.937l0.339,0.678l-0.316,1.808l-0.587,0.452l-1.762-0.226l-0.655-0.678
	L626.235,67.779z M629.533,80.883l0.09,0.452h-0.203l-0.068-0.452H629.533z M629.465,78.85l0.136-0.678l0.203,0.226l-0.135,0.452
	H629.465z M629.353,82.013l0.361,0.904l-0.452,0.452l-0.293-0.226l-0.294-0.678l0.135-0.225L629.353,82.013z M629.036,80.205
	l-0.542,0.226l-0.226-0.226l0.045-0.903l0.249-0.226l0.52,0.226L629.036,80.205z M628.404,78.624l-0.429,0.452h-0.746l-1.039-1.356
	l0.158-0.452l1.491-0.452l0.633,0.452l0.181,0.452L628.404,78.624z M627.884,80.431l0.384,0.452l0.158,0.904l-0.226,0.452
	l-0.678,0.225l-1.423-0.452l-0.09-0.678l1.152-0.904H627.884z M628.765,83.595l0.52,0.225l0.52,0.678l0.023,0.678l-0.497,0.452
	l-1.514,0.225l-0.339-0.452l0.61-1.582L628.765,83.595z M629.601,77.494h-0.542l-0.09-0.452l0.361-0.678h0.316l0.429,0.452
	L629.601,77.494z M629.737,75.687l-0.542,0.225l-0.655-0.225l-0.429-1.582l0.362-0.452l1.514,0.225l0.429,0.678l-0.09,0.678
	L629.737,75.687z M621.739,72.75l0.158-0.226l4.993,0.904l0.655,0.678l0.497,1.582l-0.362,0.678l-1.717,0.452l-0.836-0.225
	L621.739,72.75z M619.931,79.527l0.023-0.452l4.835-1.356l0.859,0.226l1.197,1.356L626.8,79.98l-1.333,1.129l-0.858,0.226
	L619.931,79.527z M626.19,85.853l-5.038,0.226l-0.135-0.226l3.773-3.389h0.881l1.649,0.678l0.271,0.678l-0.678,1.582L626.19,85.853z
	 M629.578,89.243l-4.406,2.485l-0.271-0.226l1.966-4.744l0.7-0.452h1.807l0.52,0.452l0.113,1.808L629.578,89.243z M630.234,81.335
	l-0.113-0.678l-0.113-0.452l-0.158-0.225l0.023-0.452l0.181-0.225l0.158-0.226l0.181-0.678l0.068-0.452l-0.045-0.226l0.226-0.452
	h0.249l0.271-0.226l0.497-0.678l0.226-0.226l0.068-0.226l0.362-0.225h0.271l0.362-0.226l0.678-0.226l0.362-0.225l0.158-0.226h0.678
	l0.362,0.226h1.152l0.226-0.226l0.429,0.226l0.158,0.225l0.294,0.226l0.655,0.226l0.362,0.225h0.271l0.316,0.226l0.045,0.452
	l0.203,0.225l0.43,0.678l0.249,0.226l0.226,0.226l0.181,0.225l-0.09,0.452l0.023,0.225l0.135,0.904l0.113,0.226l0.136,0.225
	l-0.023,0.452l-0.181,0.225l-0.158,0.226l-0.181,0.904l-0.068,0.226l0.045,0.225l-0.203,0.452l-0.248,0.225l-0.294,0.226
	l-0.497,0.452l-0.203,0.452l-0.09,0.225l-0.362,0.226h-0.655l-0.678,0.226l-0.316,0.225l-0.181,0.226l-0.452,0.226l-0.226-0.226
	h-0.362l-0.745-0.226l-0.384,0.226h-0.248l-0.407-0.226h-0.158l-0.316-0.452l-0.655-0.226l-0.362-0.225h-0.271l-0.316-0.226
	l-0.046-0.226l-0.181-0.452l-0.429-0.452l-0.249-0.452h-0.249l-0.158-0.452l0.068-0.226L630.234,81.335z M639.904,83.82
	l-0.362,0.452h-0.158l0.361-0.452H639.904z M637.802,85.628l-0.474,0.225l-0.09-0.225l0.497-0.226L637.802,85.628z M636.989,86.757
	l-0.181,0.226h-0.972l0.023-0.678l0.926-0.226L636.989,86.757z M635.204,86.08h-0.542l0.022-0.226h0.52V86.08z M633.984,86.757
	l-0.294,0.226l-0.701-0.226l-0.158-0.226l0.271-0.452l0.926,0.226L633.984,86.757z M632.628,85.402l-0.452-0.226l0.068-0.225
	l0.475,0.452H632.628z M630.414,83.368l0.316,0.226l-0.158,0.225l-0.316-0.452H630.414z M630.347,85.176l-0.022-0.452l0.452-0.226
	l0.723,0.678l-0.271,0.452h-0.339L630.347,85.176z M630.414,86.757l0.497-0.678h0.587l0.768,0.452l0.271,0.452l-0.203,0.678
	l-1.356,0.904l-0.474-0.452L630.414,86.757z M634.097,90.824l-2.914,4.067h-0.316l-0.271-4.971l0.429-0.904l1.559-0.904l0.701,0.226
	l0.858,1.582L634.097,90.824z M634.481,89.468l-0.745-1.356l0.203-0.678l0.497-0.226h0.881l0.474,0.226l0.113,0.904l-0.881,1.129
	H634.481z M638.006,95.343h-0.316l-2.44-4.519l0.045-0.903l1.039-1.356l0.723-0.226l1.446,1.129l0.339,0.904L638.006,95.343z
	 M639.113,88.565l-0.52,0.225l-1.243-0.903l-0.113-0.678l0.316-0.452l0.814-0.226h0.565l0.429,0.678L639.113,88.565z M639.022,86.08
	h-0.316l-0.226-0.678l0.768-0.452l0.43,0.452l-0.068,0.226L639.022,86.08z M644.016,92.857l-4.09-2.937l-0.339-0.904l0.294-1.808
	l0.587-0.452l1.762,0.452l0.655,0.452l1.423,4.971L644.016,92.857z"/>
<path fill="#763B32" d="M632.651,74.782c3.005-1.581,6.642-0.225,8.088,2.712c1.446,2.937,0.181,6.551-2.824,8.133
	c-3.027,1.356-6.642,0.226-8.088-2.937C628.381,79.753,629.624,76.139,632.651,74.782"/>
<path fill="#F4A000" d="M580.506,106.639c-4.202,0-7.614-3.389-7.614-7.682V51.964c0-4.293,3.412-7.682,7.614-7.682
	c4.202,0,7.614,3.389,7.614,7.682v46.993C588.12,103.25,584.708,106.639,580.506,106.639"/>
</svg>
