<?xml version="1.0" encoding="utf-8"?>
<!-- Generator: Adobe Illustrator 27.0.1, SVG Export Plug-In . SVG Version: 6.00 Build 0)  -->
<svg version="1.1" id="레이어_1" xmlns="http://www.w3.org/2000/svg" xmlns:xlink="http://www.w3.org/1999/xlink" x="0px"
	 y="0px" viewBox="0 0 720 114.614" enable-background="new 0 0 720 114.614" xml:space="preserve">
<polygon fill="#00AA80" points="317.665,30.845 323.455,36.648 331.927,28.189 322.514,18.763 310.302,18.763 298.219,30.845 "/>
<polygon fill="#00AA80" points="511.224,46.797 523.203,46.797 535.364,34.65 523.371,34.65 "/>
<polygon fill="#00AA80" points="494.937,63.045 552.244,63.045 562.186,53.103 553.714,44.644 547.382,50.975 507.033,50.975 "/>
<polygon fill="#00AA80" points="547.332,38.26 543.721,34.65 538.949,34.65 526.802,46.798 538.794,46.798 "/>
<polygon fill="#00AA80" points="493.171,30.845 505.267,18.763 458.946,18.763 446.85,30.845 "/>
<polygon fill="#00AA80" points="442.57,46.746 477.245,46.746 489.366,34.637 443.059,34.637 436.767,40.93 442.518,46.682 "/>
<polygon fill="#00AA80" points="438.352,50.975 438.288,50.975 432.485,45.173 424.012,53.633 433.439,63.058 486.4,63.058 
	518.6,30.846 548.453,30.846 580.665,63.058 628.249,63.058 679.212,12.122 679.224,12.122 679.25,12.096 707.891,12.096 
	719.974,0.001 637.547,0.026 637.405,0.026 606.559,30.872 576.461,30.872 588.557,42.942 611.408,42.942 642.241,12.122 
	662.28,12.122 623.401,50.975 587.977,50.975 555.751,18.763 513.751,18.763 481.552,50.975 "/>
<path fill="#00AA80" d="M278.063,50.975L265.98,63.058h56.534l13.682-13.669l13.746,13.708h56.16l44.321-44.334h-16.97
	l-13.695,13.682l-13.682-13.682h-56.25l-32.161,32.212H278.063z M354.752,30.845h46.474l10.071,10.071l-10.071,10.059h-46.513
	L344.667,40.93L354.752,30.845z"/>
<polygon fill="#00AA80" points="245.051,30.794 224.87,50.975 197.803,50.975 185.706,63.058 257.444,63.058 269.526,50.975 
	241.801,50.975 241.827,50.95 241.788,50.95 261.931,30.846 289.682,30.846 301.778,18.763 230.066,18.763 218.022,30.794 "/>
<polygon fill="#00AA80" points="560.588,12.108 572.708,0 555.79,0 543.681,12.108 "/>
<polygon fill="#00AA80" points="549.794,0 532.876,0 520.754,12.109 537.659,12.109 "/>
<polygon fill="#00AA80" points="124.338,18.762 42.04,18.762 54.135,30.845 108.761,30.871 42.594,97.037 42.569,97.037 
	12.096,97.025 0.001,109.108 47.443,109.108 131.082,25.507 "/>
<polygon fill="#00AA80" points="118.316,12.108 106.219,0.013 0,0.013 12.096,12.108 "/>
<polygon fill="#00AA80" points="713.14,102.144 677.278,102.144 644.472,69.339 112.693,69.339 118.986,63.058 177.183,63.058 
	209.395,30.871 209.408,30.871 221.517,18.763 172.476,18.763 160.38,30.871 134.241,30.871 122.107,42.942 165.229,42.942 
	177.312,30.871 192.476,30.871 172.36,50.975 114.124,50.975 88.166,76.934 99.849,76.934 640.578,76.96 672.558,109.005 
	720,108.991 "/>
<polygon fill="#00AA80" points="151.753,90.796 148.323,90.848 148.323,109.108 158.961,109.108 158.961,105.626 151.753,105.626 
	"/>
<polygon fill="#00AA80" points="203.335,105.806 199.685,105.806 199.685,94.497 196.255,94.497 196.255,109.108 206.893,109.108 
	206.893,94.497 203.335,94.497 "/>
<polygon fill="#00AA80" points="244.794,109.108 255.187,109.108 255.187,105.807 248.34,105.807 248.34,97.902 252.002,97.902 
	252.002,100.558 255.432,100.558 255.432,94.497 244.794,94.497 "/>
<polygon fill="#00AA80" points="304.666,94.536 299.869,94.536 296.155,99.14 296.155,87.779 292.712,87.779 292.712,109.108 
	296.155,109.108 296.155,103.821 299.869,109.108 304.95,109.108 298.502,101.564 "/>
<polygon fill="#00AA80" points="413.026,90.796 409.595,90.848 409.595,109.108 420.234,109.108 420.234,105.626 413.026,105.626 
	"/>
<path fill="#00AA80" d="M449.249,109.108h10.638V94.511h-10.638V109.108z M452.809,97.901l3.649-0.025v7.931h-3.649V97.901z"/>
<path fill="#00AA80" d="M488.954,109.108h7.028v2.192h-7.092v3.314h10.651V94.51h-10.587V109.108z M492.319,97.875h3.662v7.866
	h-3.662V97.875z"/>
<polygon fill="#00AA80" points="528.543,109.108 531.973,109.108 531.973,94.497 528.543,94.537 "/>
<rect x="528.543" y="87.779" fill="#00AA80" width="3.43" height="5.145"/>
<polygon fill="#00AA80" points="560.975,109.108 571.368,109.108 571.368,105.807 564.533,105.807 564.533,97.902 568.183,97.902 
	568.183,100.558 571.626,100.558 571.626,94.511 560.975,94.511 "/>
<path fill="#00AA80" d="M362.94,100.765l-2.966-0.052l-0.542,2.631l-1.78-1.819c2.141-1.573,3.018-2.669,3.018-4.707
	c0-2.63-1.651-3.998-4.656-3.998c-2.798,0-4.63,1.367-4.63,3.74c0,1.521,0.284,2.14,1.173,3.352
	c-1.754,1.006-3.172,2.438-3.172,4.668c0,3.263,2.192,5.029,5.442,5.029c2.412,0,3.662-0.683,5.351-1.986l2.347,2.038l1.832-2.064
	l-2.553-2.36C362.18,104.221,362.734,102.157,362.94,100.765 M356.015,95.697l1.547,1.457c0,1.044-0.593,1.599-1.78,2.464
	l-0.322-0.349l-0.993-2.257L356.015,95.697z M354.92,106.735c-1.341,0-2.386-0.837-2.386-2.179l1.87-2.528l3.482,3.714
	C356.815,106.516,356.106,106.735,354.92,106.735"/>
<polygon fill="#00AA80" points="651.345,69.338 680.798,98.778 692.301,98.778 662.86,69.338 "/>
<polygon fill="#00AA80" points="709.787,98.778 680.347,69.339 668.844,69.339 698.284,98.778 "/>
</svg>
