<?xml version="1.0" encoding="utf-8"?>
<!-- Generator: Adobe Illustrator 27.1.1, SVG Export Plug-In . SVG Version: 6.00 Build 0)  -->
<svg version="1.1" id="레이어_1" xmlns="http://www.w3.org/2000/svg" xmlns:xlink="http://www.w3.org/1999/xlink" x="0px"
	 y="0px" viewBox="0 0 720 124.645" enable-background="new 0 0 720 124.645" xml:space="preserve">
<polygon points="285.409,124.329 283.243,124.329 283.243,113.778 285.699,113.778 288.837,120.185 292.002,113.778 
	294.445,113.778 294.445,124.329 292.286,124.329 292.286,117.748 288.837,124.645 285.409,117.748 "/>
<path d="M298.425,122.509l-0.638,1.817h-2.301l3.642-10.538h2.701l3.609,10.538h-2.372l-0.599-1.817H298.425z M300.443,116.373
	l-1.47,4.37h2.926L300.443,116.373z"/>
<path d="M314.612,122.938c-1.225,1.135-2.353,1.592-3.925,1.592c-1.566,0-2.842-0.529-3.777-1.579
	c-0.902-0.986-1.424-2.417-1.424-3.874c0-3.21,2.185-5.498,5.227-5.498c1.637,0,2.746,0.451,3.996,1.676l-1.412,1.418
	c-0.857-0.773-1.586-1.089-2.462-1.089c-1.856,0-3.145,1.424-3.145,3.448c0,2.017,1.347,3.493,3.255,3.493
	c0.96,0,1.702-0.335,2.353-1.07L314.612,122.938z"/>
<polygon points="317.897,124.329 315.725,124.329 315.725,113.778 317.897,113.778 317.897,118.238 321.894,118.238 
	321.894,113.778 324.066,113.778 324.066,124.329 321.894,124.329 321.894,120.011 317.897,120.011 "/>
<rect x="326.351" y="113.783" width="2.166" height="10.545"/>
<polygon points="332.878,124.329 330.712,124.329 330.712,113.778 332.878,113.778 332.878,118.367 335.875,113.778 
	338.389,113.778 334.966,118.857 338.389,124.329 335.836,124.329 332.878,119.631 "/>
<path d="M341.778,122.509l-0.625,1.817h-2.301l3.648-10.538h2.694l3.609,10.538h-2.378l-0.599-1.817H341.778z M343.808,116.373
	l-1.47,4.37h2.926L343.808,116.373z"/>
<path d="M349.769,113.782h2.978c1.721,0,2.868,0.348,3.796,1.167c1.077,0.954,1.663,2.333,1.663,3.983
	c0,1.695-0.593,3.21-1.676,4.183c-0.864,0.793-2.133,1.212-3.655,1.212h-3.107V113.782z M351.928,122.541h0.412
	c1.154,0,1.863-0.206,2.481-0.722c0.754-0.651,1.192-1.643,1.192-2.83c0-2.095-1.302-3.455-3.294-3.455h-0.793V122.541z"/>
<path d="M368.767,115.348c0.902,1.012,1.347,2.23,1.347,3.764c0,3.004-2.404,5.421-5.395,5.421c-3.081,0-5.504-2.385-5.504-5.421
	c0-3.126,2.411-5.536,5.543-5.536C366.305,113.575,367.723,114.213,368.767,115.348 M361.433,119.08
	c0,1.966,1.399,3.461,3.242,3.461c1.824,0,3.242-1.495,3.242-3.41c0-2.05-1.36-3.545-3.223-3.545
	C362.825,115.586,361.433,117.069,361.433,119.08"/>
<polygon points="378.409,124.329 376.243,124.329 376.243,113.778 378.686,113.778 381.844,120.185 385.009,113.778 
	387.445,113.778 387.445,124.329 385.279,124.329 385.279,117.748 381.844,124.645 378.409,117.748 "/>
<path d="M391.183,122.509l-0.632,1.817h-2.295l3.642-10.538h2.701l3.597,10.538h-2.366l-0.606-1.817H391.183z M393.2,116.373
	l-1.463,4.37h2.926L393.2,116.373z"/>
<polygon points="406.582,122.56 406.582,124.326 398.738,124.326 403.675,115.554 399.285,115.554 399.285,113.781 407.052,113.781 
	402.128,122.56 "/>
<path d="M416.982,115.348c0.902,1.012,1.347,2.23,1.347,3.764c0,3.004-2.411,5.421-5.395,5.421c-3.081,0-5.504-2.385-5.504-5.421
	c0-3.126,2.404-5.536,5.53-5.536C414.513,113.575,415.938,114.213,416.982,115.348 M409.647,119.08c0,1.966,1.405,3.461,3.229,3.461
	c1.83,0,3.248-1.495,3.248-3.41c0-2.05-1.36-3.545-3.223-3.545C411.033,115.586,409.647,117.069,409.647,119.08"/>
<polygon points="422.044,124.329 419.879,124.329 419.879,113.778 422.044,113.778 422.044,118.367 425.035,113.778 
	427.542,113.778 424.126,118.857 427.542,124.329 425.003,124.329 422.044,119.631 "/>
<path d="M430.686,119.967c0,0.98,0.135,1.515,0.483,1.927c0.309,0.393,0.877,0.645,1.463,0.645c0.612,0,1.218-0.29,1.534-0.722
	c0.316-0.425,0.412-0.889,0.412-1.869v-6.168h2.179v6.104c0,1.56-0.329,2.63-1.044,3.422c-0.709,0.786-1.818,1.225-3.049,1.225
	c-1.289,0-2.449-0.471-3.197-1.302c-0.683-0.767-0.948-1.714-0.948-3.345v-6.104h2.166V119.967z"/>
<path fill="#FFFFFF" d="M44.808,4.496c-24.216,0-43.926,19.71-43.926,43.913c0,24.209,19.71,43.926,43.926,43.926
	c24.203,0,43.906-19.717,43.906-43.926C88.714,24.206,69.01,4.496,44.808,4.496 M39.838,27.036v2.881l-0.657,0.657h-7.348
	l-0.657-0.657v-2.894l0.657-0.632h7.348L39.838,27.036 M31.175,35.589l0.657-0.651h7.348l0.657,0.651v2.881l-0.657,0.651h-7.348
	l-0.657-0.651V35.589z M38.962,74.874c-4.028,0-7.167-2.984-7.619-7.238c-0.554-6.652,1.25-12.743,4.931-16.726
	c1.779-1.94,3.912-3.236,6.168-3.725V22.924l0.651-0.657h2.875l0.664,0.657v3.468h10.558l0.657,0.644v2.881l-0.657,0.657H46.632
	v4.377h10.558l0.657,0.651v2.868l-0.657,0.651H46.632v8.076c6.13,1.495,10.951,9.455,11.215,18.608v0.019l0.052,1.386l-0.677,0.645
	h-2.849l-0.67-0.632l-0.039-1.283c-0.168-5.627-2.636-12.285-7.032-14.315V67.21C46.632,71.426,43.203,74.874,38.962,74.874"/>
<path fill="#FFFFFF" d="M42.42,51.541v15.991c-0.161,1.792-1.65,3.152-3.461,3.152c-1.869,0-3.236-1.36-3.461-3.448
	c-0.425-5.356,1.005-10.403,3.835-13.484C40.261,52.733,41.337,51.973,42.42,51.541"/>
<path fill-rule="evenodd" clip-rule="evenodd" fill="#EA5776" d="M42.42,51.541v15.991c-0.161,1.792-1.65,3.152-3.461,3.152
	c-1.869,0-3.236-1.36-3.461-3.448c-0.425-5.356,1.005-10.403,3.835-13.484C40.261,52.733,41.337,51.973,42.42,51.541"/>
<path fill-rule="evenodd" clip-rule="evenodd" fill="#EA5776" d="M44.808,6.941c-22.894,0-41.464,18.582-41.464,41.463
	c0,22.901,18.569,41.464,41.464,41.464s41.457-18.563,41.457-41.464C86.265,25.523,67.702,6.941,44.808,6.941 M57.221,67.857h-2.849
	l-0.67-0.638l-0.039-1.276c-0.168-5.633-2.636-12.285-7.032-14.322v15.585c0,4.222-3.429,7.664-7.67,7.664
	c-4.028,0-7.154-2.984-7.619-7.232c-0.554-6.658,1.25-12.743,4.931-16.726c1.779-1.94,3.912-3.236,6.168-3.725V22.919l0.651-0.651
	h2.875l0.664,0.651v3.468h10.558l0.657,0.651v2.881l-0.657,0.657H46.632v4.37h10.558l0.657,0.657v2.862l-0.657,0.657H46.632v8.083
	c6.13,1.483,10.951,9.449,11.215,18.595v0.019l0.052,1.386L57.221,67.857 M39.838,27.038v2.881l-0.651,0.657h-7.354l-0.657-0.657
	v-2.894l0.657-0.638h7.354L39.838,27.038 M31.176,35.591l0.657-0.657h7.354l0.651,0.657v2.875l-0.651,0.657h-7.354l-0.657-0.657
	V35.591z"/>
<path fill="#FFFFFF" d="M44.808,4.496c-24.216,0-43.926,19.71-43.926,43.913c0,24.209,19.71,43.926,43.926,43.926
	c24.203,0,43.906-19.717,43.906-43.926C88.714,24.206,69.01,4.496,44.808,4.496 M39.838,27.036v2.881l-0.657,0.657h-7.348
	l-0.657-0.657v-2.894l0.657-0.632h7.348L39.838,27.036 M31.175,35.589l0.657-0.651h7.348l0.657,0.651v2.881l-0.657,0.651h-7.348
	l-0.657-0.651V35.589z M38.962,74.874c-4.028,0-7.167-2.984-7.619-7.238c-0.554-6.652,1.25-12.743,4.931-16.726
	c1.779-1.94,3.912-3.236,6.168-3.725V22.924l0.651-0.657h2.875l0.664,0.657v3.468h10.558l0.657,0.644v2.881l-0.657,0.657H46.632
	v4.377h10.558l0.657,0.651v2.868l-0.657,0.651H46.632v8.076c6.13,1.495,10.951,9.455,11.215,18.608v0.019l0.052,1.386l-0.677,0.645
	h-2.849l-0.67-0.632l-0.039-1.283c-0.168-5.627-2.636-12.285-7.032-14.315V67.21C46.632,71.426,43.203,74.874,38.962,74.874"/>
<path fill="#FFFFFF" d="M42.42,51.541v15.991c-0.161,1.792-1.65,3.152-3.461,3.152c-1.869,0-3.236-1.36-3.461-3.448
	c-0.425-5.356,1.005-10.403,3.835-13.484C40.261,52.733,41.337,51.973,42.42,51.541"/>
<path fill="#1A1A1A" d="M44.809,3.613C20.103,3.613,0,23.716,0,48.409c0,24.705,20.103,44.796,44.809,44.796
	c24.699,0,44.796-20.09,44.796-44.796C89.605,23.716,69.508,3.613,44.809,3.613 M44.809,92.335
	c-24.216,0-43.926-19.717-43.926-43.926c0-24.203,19.71-43.913,43.926-43.913c24.203,0,43.913,19.71,43.913,43.913
	C88.722,72.618,69.011,92.335,44.809,92.335"/>
<path fill-rule="evenodd" clip-rule="evenodd" fill="#EA5776" d="M42.42,51.541v15.991c-0.161,1.792-1.65,3.152-3.461,3.152
	c-1.869,0-3.236-1.36-3.461-3.448c-0.425-5.356,1.005-10.403,3.835-13.484C40.261,52.733,41.337,51.973,42.42,51.541"/>
<path fill-rule="evenodd" clip-rule="evenodd" fill="#EA5776" d="M44.808,6.941c-22.894,0-41.464,18.582-41.464,41.463
	c0,22.901,18.569,41.464,41.464,41.464s41.457-18.563,41.457-41.464C86.265,25.523,67.702,6.941,44.808,6.941 M57.221,67.857h-2.849
	l-0.67-0.638l-0.039-1.276c-0.168-5.633-2.636-12.285-7.032-14.322v15.585c0,4.222-3.429,7.664-7.67,7.664
	c-4.028,0-7.154-2.984-7.619-7.232c-0.554-6.658,1.25-12.743,4.931-16.726c1.779-1.94,3.912-3.236,6.168-3.725V22.919l0.651-0.651
	h2.875l0.664,0.651v3.468h10.558l0.657,0.651v2.881l-0.657,0.657H46.632v4.37h10.558l0.657,0.657v2.862l-0.657,0.657H46.632v8.083
	c6.13,1.483,10.951,9.449,11.215,18.595v0.019l0.052,1.386L57.221,67.857 M39.838,27.038v2.881l-0.651,0.657h-7.354l-0.657-0.657
	v-2.894l0.657-0.638h7.354L39.838,27.038 M31.176,35.591l0.657-0.657h7.354l0.651,0.657v2.875l-0.651,0.657h-7.354l-0.657-0.657
	V35.591z"/>
<path fill-rule="evenodd" clip-rule="evenodd" fill="#FFFFFF" d="M42.42,51.541v15.991c-0.161,1.792-1.65,3.152-3.461,3.152
	c-1.869,0-3.236-1.36-3.461-3.448c-0.425-5.356,1.005-10.403,3.835-13.484C40.261,52.733,41.337,51.973,42.42,51.541"/>
<path fill-rule="evenodd" clip-rule="evenodd" fill="#FFFFFF" d="M44.795,15.622c-18.099,0-32.782,14.683-32.782,32.782
	c0,18.118,14.683,32.782,32.782,32.782c18.118,0,32.782-14.663,32.782-32.782C77.576,30.305,62.913,15.622,44.795,15.622
	 M31.175,27.024l0.657-0.638h7.348l0.657,0.651v2.881l-0.657,0.657h-7.348l-0.657-0.657V27.024z M31.175,35.59l0.657-0.651h7.348
	l0.657,0.651v2.875l-0.657,0.658h-7.348l-0.657-0.658V35.59z M57.221,67.856h-2.849l-0.67-0.638l-0.039-1.276
	c-0.168-5.627-2.636-12.285-7.032-14.315v15.579c0,4.222-3.429,7.664-7.67,7.664c-4.028,0-7.167-2.978-7.619-7.232
	c-0.554-6.652,1.25-12.743,4.931-16.726c1.779-1.94,3.912-3.236,6.168-3.725V22.925l0.651-0.658h2.875l0.664,0.658v3.461h10.558
	l0.657,0.651v2.881l-0.657,0.657H46.632v4.377h10.558l0.657,0.651v2.862l-0.657,0.658H46.632v8.083
	c6.13,1.482,10.951,9.449,11.215,18.601v0.019l0.052,1.379L57.221,67.856"/>
<polygon fill="#1C88CA" points="39.839,35.591 39.839,38.466 39.175,39.123 31.828,39.123 31.177,38.466 31.177,35.591 
	31.828,34.934 39.175,34.934 "/>
<polygon fill="#1C88CA" points="39.839,27.037 39.839,29.918 39.175,30.575 31.828,30.575 31.177,29.918 31.177,27.024 
	31.828,26.386 39.175,26.386 "/>
<path fill="#1C88CA" d="M57.847,65.822v-0.019c-0.264-9.152-5.085-17.113-11.215-18.601v-8.076h10.558l0.657-0.657v-2.862
	l-0.657-0.657H46.632v-4.377h10.558l0.657-0.651V27.04l-0.657-0.651H46.632v-3.461l-0.664-0.664h-2.875l-0.651,0.664v24.254
	c-2.256,0.496-4.389,1.792-6.168,3.732c-3.68,3.983-5.485,10.068-4.931,16.719c0.451,4.254,3.59,7.232,7.619,7.232
	c4.241,0,7.67-3.442,7.67-7.657V51.629c4.396,2.024,6.864,8.689,7.032,14.315l0.039,1.276l0.67,0.638h2.849l0.677-0.651
	L57.847,65.822z M38.962,70.682c-1.876,0-3.236-1.36-3.468-3.448c-0.425-5.356,1.012-10.397,3.842-13.49
	c0.922-1.012,1.998-1.772,3.087-2.204v15.998C42.262,69.322,40.773,70.682,38.962,70.682"/>
<path fill-rule="evenodd" clip-rule="evenodd" fill="#1C88CA" d="M502.159,11.618h-71.306c-2.043,0-3.706,1.663-3.706,3.725
	l-0.019,71.287c0,0.638,0.161,1.257,0.451,1.779l0.187,0.297v0.013l0.206,0.271v0.013l0.245,0.258l0.535,0.445l0.309,0.193
	l0.632,0.271h0.019l0.045,0.013h0.019l0.065,0.039l0.045,0.006h0.026v0.013l0.941,0.116h71.306l0.193-0.006h0.039l0.077-0.019h0.026
	h0.039h0.026l0.168-0.013l0.181-0.032v-0.013l0.103-0.013l0.155-0.032l0.097-0.039l0.032-0.006l0.316-0.116v-0.013h0.019l0.2-0.097
	l0.103-0.058l0.168-0.084l0.142-0.097v-0.013h0.019l0.123-0.09l0.071-0.065l0.348-0.29c0.664-0.677,1.089-1.599,1.089-2.63V15.343
	C505.891,13.281,504.209,11.618,502.159,11.618 M453.805,37.445h7.348l0.664,0.651v2.875l-0.664,0.683h-7.348l-0.657-0.683v-2.875
	L453.805,37.445 M453.148,32.424v-2.888l0.657-0.645h7.348l0.664,0.658v2.875l-0.664,0.664h-7.348L453.148,32.424 M458.24,53.423
	c1.785-1.946,3.919-3.242,6.175-3.732V25.431l0.651-0.651h2.881l0.638,0.651v3.461h10.577l0.645,0.658v2.875l-0.645,0.664h-10.577
	v4.364h10.577l0.645,0.658v2.862l-0.645,0.657h-10.577v8.083c6.149,1.483,10.977,9.449,11.234,18.602v0.019l0.039,1.379
	l-0.664,0.658h-2.849l-0.67-0.645l-0.045-1.276c-0.168-5.627-2.623-12.285-7.026-14.315v15.579c0,4.222-3.429,7.67-7.67,7.67
	c-4.022,0-7.161-2.971-7.625-7.238C452.755,63.491,454.56,57.4,458.24,53.423"/>
<path fill-rule="evenodd" clip-rule="evenodd" fill="#1C88CA" d="M464.396,54.046v15.991c-0.161,1.792-1.65,3.152-3.461,3.152
	c-1.876,0-3.236-1.36-3.461-3.448c-0.438-5.356,0.999-10.403,3.835-13.484C462.23,55.239,463.313,54.478,464.396,54.046"/>
<path fill="#1A1A1A" d="M502.162,90.346h-71.306c-0.657,0-1.257-0.161-1.798-0.445c0.541,0.29,1.141,0.458,1.798,0.458h71.306
	c1.018,0,1.959-0.412,2.636-1.102C504.115,89.933,503.18,90.346,502.162,90.346"/>
<path fill-rule="evenodd" clip-rule="evenodd" fill="#FFFFFF" d="M502.159,11.618h-71.306c-2.043,0-3.706,1.663-3.706,3.725
	l-0.019,71.287c0,0.638,0.161,1.257,0.451,1.779l0.187,0.297v0.013l0.206,0.271v0.013l0.245,0.258l0.535,0.445l0.309,0.193
	l0.632,0.271h0.019l0.045,0.013h0.019l0.065,0.039l0.045,0.006h0.026v0.013l0.941,0.116h71.306l0.193-0.006h0.039l0.077-0.019h0.026
	h0.039h0.026l0.168-0.013l0.181-0.032v-0.013l0.103-0.013l0.155-0.032l0.097-0.039l0.032-0.006l0.316-0.116v-0.013h0.019l0.2-0.097
	l0.103-0.058l0.168-0.084l0.142-0.097v-0.013h0.019l0.123-0.09l0.071-0.065l0.348-0.29c0.664-0.677,1.089-1.599,1.089-2.63V15.343
	C505.891,13.281,504.209,11.618,502.159,11.618 M453.805,37.445h7.348l0.664,0.651v2.875l-0.664,0.683h-7.348l-0.657-0.683v-2.875
	L453.805,37.445 M453.148,32.424v-2.888l0.657-0.645h7.348l0.664,0.658v2.875l-0.664,0.664h-7.348L453.148,32.424 M458.24,53.423
	c1.785-1.946,3.919-3.242,6.175-3.732V25.431l0.651-0.651h2.881l0.638,0.651v3.461h10.577l0.645,0.658v2.875l-0.645,0.664h-10.577
	v4.364h10.577l0.645,0.658v2.862l-0.645,0.657h-10.577v8.083c6.149,1.483,10.977,9.449,11.234,18.602v0.019l0.039,1.379
	l-0.664,0.658h-2.849l-0.67-0.645l-0.045-1.276c-0.168-5.627-2.623-12.285-7.026-14.315v15.579c0,4.222-3.429,7.67-7.67,7.67
	c-4.022,0-7.161-2.971-7.625-7.238C452.755,63.491,454.56,57.4,458.24,53.423"/>
<path fill-rule="evenodd" clip-rule="evenodd" fill="#FFFFFF" d="M464.396,54.046v15.991c-0.161,1.792-1.65,3.152-3.461,3.152
	c-1.876,0-3.236-1.36-3.461-3.448c-0.438-5.356,0.999-10.403,3.835-13.484C462.23,55.239,463.313,54.478,464.396,54.046"/>
<path fill="#1A1A1A" d="M502.16,10.737h-71.306c-2.539,0-4.589,2.056-4.589,4.602l-0.019,71.293c0,2.533,2.069,4.609,4.608,4.609
	h71.306c2.533,0,4.608-2.076,4.608-4.609V15.339C506.768,12.793,504.693,10.737,502.16,10.737 M505.892,86.632
	c0,1.025-0.425,1.953-1.089,2.623l-0.348,0.296l-0.071,0.065l-0.123,0.09h-0.019v0.013l-0.142,0.09l-0.168,0.09l-0.103,0.058
	l-0.213,0.09h-0.006v0.013l-0.316,0.123l-0.039,0.006l-0.09,0.039l-0.155,0.026l-0.11,0.013v0.013l-0.18,0.032l-0.161,0.013h-0.064
	h-0.026l-0.078,0.019h-0.039l-0.193,0.013h-71.306l-0.941-0.116v-0.013h-0.026l-0.045-0.019l-0.065-0.026h-0.019l-0.045-0.013
	h-0.019l-0.632-0.271l-0.309-0.193l-0.535-0.451l-0.245-0.258v-0.013l-0.206-0.271v-0.013l-0.187-0.296
	c-0.29-0.522-0.451-1.134-0.451-1.773l0.019-71.293c0-2.056,1.663-3.725,3.706-3.725h71.306c2.05,0,3.732,1.669,3.732,3.725V86.632z
	"/>
<path fill-rule="evenodd" clip-rule="evenodd" fill="#EA5776" d="M464.396,54.046v15.991c-0.161,1.792-1.65,3.152-3.461,3.152
	c-1.876,0-3.236-1.36-3.461-3.448c-0.438-5.356,0.999-10.403,3.835-13.484C462.23,55.239,463.313,54.478,464.396,54.046"/>
<path fill-rule="evenodd" clip-rule="evenodd" fill="#EA5776" d="M499.317,14.016h-65.615c-2.275,0-4.164,1.889-4.164,4.177v65.589
	c0,2.282,1.889,4.157,4.164,4.157h65.615c2.288,0,4.151-1.876,4.151-4.157V18.193C503.468,15.905,501.605,14.016,499.317,14.016
	 M479.201,70.369h-2.855l-0.67-0.645l-0.045-1.276c-0.168-5.627-2.623-12.285-7.026-14.315v15.579c0,4.222-3.429,7.67-7.67,7.67
	c-4.022,0-7.161-2.971-7.625-7.238c-0.554-6.658,1.25-12.743,4.931-16.726c1.785-1.94,3.919-3.236,6.175-3.725V25.431l0.651-0.651
	h2.881l0.645,0.651v3.461h10.57l0.645,0.651v2.881l-0.645,0.664h-10.57v4.364h10.57l0.645,0.657v2.862l-0.645,0.657h-10.57v8.083
	c6.143,1.483,10.97,9.449,11.228,18.595v0.019l0.045,1.386L479.201,70.369 M461.817,29.543v2.881l-0.664,0.664h-7.348l-0.657-0.664
	v-2.888l0.657-0.645h7.348L461.817,29.543 M453.148,38.096l0.657-0.657h7.348l0.664,0.657v2.875l-0.664,0.683h-7.348l-0.657-0.683
	V38.096z"/>
<path fill-rule="evenodd" clip-rule="evenodd" fill="#FFFFFF" d="M464.396,54.046v15.991c-0.161,1.792-1.65,3.152-3.461,3.152
	c-1.876,0-3.236-1.36-3.461-3.448c-0.438-5.356,0.999-10.403,3.835-13.484C462.23,55.239,463.313,54.478,464.396,54.046"/>
<path fill-rule="evenodd" clip-rule="evenodd" fill="#FFFFFF" d="M492.849,20.48H440.17c-2.307,0-4.177,1.876-4.177,4.151v52.691
	c0,2.301,1.869,4.164,4.177,4.164h52.679c2.288,0,4.177-1.863,4.177-4.164V24.631C497.025,22.355,495.137,20.48,492.849,20.48
	 M453.145,29.535l0.664-0.645h7.348l0.657,0.651v2.881l-0.657,0.664h-7.348l-0.664-0.664V29.535z M453.145,38.095l0.664-0.651h7.348
	l0.657,0.651v2.875l-0.657,0.677h-7.348l-0.664-0.677V38.095z M479.197,70.367h-2.855l-0.664-0.644l-0.052-1.276
	c-0.161-5.627-2.617-12.285-7.019-14.315V69.71c0,4.222-3.436,7.67-7.67,7.67c-4.028,0-7.167-2.971-7.625-7.238
	c-0.554-6.652,1.244-12.743,4.931-16.72c1.779-1.947,3.912-3.242,6.168-3.732V25.43l0.651-0.651h2.888l0.638,0.651v3.461h10.577
	l0.638,0.651v2.881l-0.638,0.664h-10.577v4.37h10.577l0.638,0.651v2.862l-0.638,0.664h-10.577v8.076
	c6.143,1.483,10.97,9.449,11.234,18.602v0.019l0.039,1.379L479.197,70.367"/>
<polygon fill="#1C88CA" points="461.815,29.548 461.815,32.423 461.151,33.087 453.804,33.087 453.146,32.423 453.146,29.536 
	453.804,28.891 461.151,28.891 "/>
<path fill="#1C88CA" d="M479.822,68.327v-0.019c-0.264-9.152-5.092-17.113-11.234-18.601V41.63h10.577l0.638-0.657v-2.862
	l-0.638-0.657h-10.577v-4.37h10.577l0.638-0.657v-2.881l-0.638-0.651h-10.577v-3.461l-0.651-0.657h-2.875l-0.651,0.657v24.254
	c-2.256,0.496-4.389,1.792-6.181,3.738c-3.674,3.977-5.472,10.061-4.918,16.713c0.458,4.267,3.597,7.238,7.625,7.238
	c4.235,0,7.67-3.448,7.67-7.664V54.134c4.402,2.024,6.858,8.689,7.019,14.315l0.052,1.276l0.664,0.645h2.855l0.664-0.657
	L479.822,68.327z M460.937,73.187c-1.882,0-3.236-1.36-3.468-3.442c-0.432-5.356,1.006-10.403,3.842-13.49
	c0.915-1.012,1.992-1.772,3.087-2.211v15.998C464.23,71.827,462.729,73.187,460.937,73.187"/>
<polygon fill="#1C88CA" points="461.815,38.096 461.815,40.971 461.151,41.654 453.804,41.654 453.146,40.971 453.146,38.096 
	453.804,37.439 461.151,37.439 "/>
<path fill-rule="evenodd" clip-rule="evenodd" fill="#E8E614" d="M715.692,49.985l-0.019-0.013L681.654,4.39
	c-1.006-1.353-2.578-2.224-4.016-2.224c-1.431,0-3.01,0.87-4.009,2.224L639.61,49.972c-2.398,2.984-3.435,6.091-3.435,10.351
	l0.019,23.294c0,3.017,2.443,5.459,5.459,5.459h71.996c3.004,0,5.453-2.443,5.453-5.459V60.324
	C719.102,56.063,718.09,52.956,715.692,49.985 M716.549,83.617c0,1.56-1.321,2.901-2.901,2.901h-71.996
	c-1.579,0-2.9-1.341-2.9-2.901l-0.019-23.294c0-3.68,0.832-6.213,2.862-8.74l34.077-45.673c0.625-0.831,1.212-1.192,1.966-1.192
	c0.735,0,1.373,0.387,1.979,1.192L713.63,51.5c2.088,2.572,2.933,5.143,2.933,8.824L716.549,83.617z"/>
<path fill-rule="evenodd" clip-rule="evenodd" fill="#E8E614" d="M712.941,52.053L678.909,6.432
	c-0.548-0.748-0.986-0.831-1.263-0.831c-0.393,0-0.754,0.148-1.276,0.831l-34.096,45.685c-1.882,2.366-2.662,4.731-2.662,8.218
	l0.013,23.281c0,1.089,0.928,2.017,2.03,2.017h71.996c1.089,0,2.024-0.928,2.024-2.017V60.336
	C715.674,56.823,714.92,54.49,712.941,52.053 M683.718,76.649l-0.019,0.006l0.058,0.239l-0.677,0.69h-3.113l-0.612-0.432
	L666.94,51.596l-0.077-0.412l0.097-0.464l0.006-0.045l12.388-25.492l0.612-0.406h3.113l0.677,0.67l-0.058,0.258l-0.039,0.065
	l-12.337,25.414L683.718,76.649z"/>
<path fill="#1A1A1A" d="M716.371,49.431L682.378,3.868c-0.954-1.244-2.662-2.578-4.737-2.578c-2.056,0-3.79,1.334-4.718,2.578
	l-34.006,45.563c-2.501,3.113-3.616,6.465-3.616,10.893l0.013,23.294c0,3.494,2.836,6.336,6.342,6.336h71.989
	c3.493,0,6.342-2.842,6.342-6.336L720,60.324C720,55.896,718.885,52.544,716.371,49.431 M719.104,83.617
	c0,3.017-2.456,5.459-5.459,5.459h-71.989c-3.016,0-5.459-2.443-5.459-5.459l-0.019-23.294c0-4.261,1.038-7.367,3.436-10.351
	L673.625,4.39c1.005-1.353,2.585-2.224,4.016-2.224c1.431,0,3.016,0.87,4.009,2.224l34.019,45.582l0.026,0.013
	c2.398,2.971,3.41,6.078,3.41,10.339V83.617z"/>
<path fill="#1A1A1A" d="M713.631,51.5L679.612,5.911c-0.6-0.806-1.238-1.192-1.972-1.192c-0.761,0-1.341,0.361-1.966,1.192
	l-34.077,45.673c-2.037,2.527-2.868,5.06-2.868,8.74l0.013,23.294c0,1.56,1.334,2.901,2.913,2.901h71.996
	c1.579,0,2.901-1.341,2.901-2.901l0.013-23.294C716.563,56.643,715.719,54.072,713.631,51.5 M715.674,83.617
	c0,1.089-0.935,2.011-2.024,2.011h-71.996c-1.102,0-2.03-0.922-2.03-2.011l-0.013-23.294c0-3.474,0.78-5.846,2.662-8.205
	L676.37,6.433c0.522-0.683,0.883-0.831,1.27-0.831c0.283,0,0.715,0.09,1.27,0.831l34.032,45.621c1.979,2.43,2.733,4.77,2.733,8.269
	V83.617z"/>
<polygon fill="#1A1A1A" points="683.699,76.668 683.757,76.906 683.08,77.583 679.967,77.583 679.354,77.151 666.94,51.595 
	666.863,51.183 666.96,50.719 666.966,50.673 679.354,25.175 679.967,24.775 683.08,24.775 683.757,25.439 683.699,25.697 
	683.66,25.775 671.323,51.183 683.718,76.649 "/>
<path fill="#FFFFFF" d="M571.857,7.211c-24.209,0-43.9,19.691-43.9,43.906c0,24.215,19.691,43.913,43.9,43.913
	c24.216,0,43.913-19.697,43.913-43.913C615.769,26.902,596.072,7.211,571.857,7.211 M569.13,77.408l0.019-0.039
	c-2.366-4.106-3.655-9.475-3.655-15.147c0-2.043,0.322-4.957,0.857-7.58l0.032-0.065l0.632-0.458h2.907l0.683,0.658l-0.026,0.103
	v0.045c-0.561,2.495-0.915,5.356-0.915,7.296c0,5.801,1.618,11.357,4.286,14.844l0.026,0.058l0.071,0.226l-0.458,0.445h-3.829
	l-0.522-0.251h-0.064v-0.103L569.13,77.408z M568.995,36.635l-0.058,0.374l-1.566,4.357l-0.451,0.341l-0.413-0.316l-6.252-15.437
	l-0.065-0.271l0.677-0.677h3.061l0.606,0.4l0.019,0.026l4.37,10.77L568.995,36.635 M557.851,47.044l0.658-0.651h10.822l7.631-21.025
	l0.587-0.361h3.023l0.677,0.696l-0.032,0.193l-0.013,0.039l-7.399,20.458h10.068l0.657,0.651v2.881l-0.657,0.658h-25.363
	l-0.658-0.658V47.044z M583.49,35.204c0-1.353,1.096-2.462,2.469-2.462c1.36,0,2.469,1.109,2.469,2.462
	c0,1.347-1.109,2.462-2.469,2.462C584.586,37.666,583.49,36.551,583.49,35.204 M585.959,29.699c-1.373,0-2.469-1.109-2.469-2.462
	c0-1.366,1.096-2.462,2.469-2.462c1.36,0,2.469,1.096,2.469,2.462C588.428,28.59,587.319,29.699,585.959,29.699"/>
<path fill="#1A1A1A" d="M571.853,6.333c-24.68,0-44.777,20.097-44.777,44.789s20.097,44.789,44.777,44.789
	c24.699,0,44.789-20.097,44.789-44.789S596.552,6.333,571.853,6.333 M571.853,95.029c-24.209,0-43.9-19.697-43.9-43.906
	c0-24.216,19.691-43.913,43.9-43.913c24.222,0,43.913,19.697,43.913,43.913C615.766,75.332,596.075,95.029,571.853,95.029"/>
<path fill-rule="evenodd" clip-rule="evenodd" fill="#EA5776" d="M571.857,9.667c-22.894,0-41.464,18.556-41.464,41.451
	c0,22.907,18.569,41.47,41.464,41.47c22.901,0,41.47-18.563,41.47-41.47C613.326,28.223,594.757,9.667,571.857,9.667
	 M568.995,36.635l-0.058,0.374l-1.566,4.357l-0.451,0.341l-0.413-0.316l-6.252-15.437l-0.065-0.271l0.677-0.677h3.061l0.606,0.4
	l0.019,0.026l4.37,10.77L568.995,36.635 M557.851,47.044l0.658-0.651h10.822l7.631-21.025l0.587-0.361h3.023l0.677,0.696
	l-0.032,0.193l-0.013,0.039l-7.399,20.458h10.068l0.657,0.651v2.881l-0.657,0.658h-25.363l-0.658-0.658V47.044z M583.49,35.204
	c0-1.353,1.096-2.462,2.469-2.462c1.36,0,2.469,1.109,2.469,2.462c0,1.347-1.109,2.462-2.469,2.462
	C584.586,37.666,583.49,36.551,583.49,35.204 M569.24,77.544h-0.064v-0.103l-0.045-0.032l0.019-0.039
	c-2.366-4.106-3.655-9.475-3.655-15.147c0-2.043,0.322-4.957,0.857-7.58l0.032-0.065l0.632-0.458h2.907l0.683,0.658l-0.026,0.103
	v0.045c-0.561,2.495-0.915,5.356-0.915,7.296c0,5.801,1.618,11.357,4.286,14.844l0.026,0.058l0.071,0.226l-0.458,0.445h-3.829
	L569.24,77.544 M585.959,29.699c-1.373,0-2.469-1.109-2.469-2.462c0-1.366,1.096-2.462,2.469-2.462c1.36,0,2.469,1.096,2.469,2.462
	C588.428,28.59,587.319,29.699,585.959,29.699"/>
<path fill-rule="evenodd" clip-rule="evenodd" fill="#1C88CA" d="M571.857,18.684c-17.918,0-32.421,14.515-32.421,32.434
	c0,17.925,14.502,32.44,32.421,32.44s32.459-14.515,32.459-32.44C604.316,33.199,589.775,18.684,571.857,18.684 M560.867,25.007
	h3.061l0.606,0.4l0.019,0.026l4.37,10.77l0.071,0.432l-0.058,0.374l-1.566,4.357l-0.451,0.341l-0.413-0.316l-6.252-15.437
	l-0.065-0.271L560.867,25.007 M573.59,77.795h-3.829l-0.522-0.251h-0.064v-0.103l-0.045-0.032l0.019-0.039
	c-2.366-4.106-3.655-9.475-3.655-15.147c0-2.043,0.322-4.957,0.857-7.58l0.032-0.065l0.632-0.458h2.907l0.683,0.658l-0.026,0.103
	v0.045c-0.561,2.495-0.915,5.356-0.915,7.296c0,5.801,1.618,11.357,4.286,14.844l0.026,0.058l0.071,0.226L573.59,77.795
	 M584.528,49.925l-0.657,0.658h-25.363l-0.658-0.658v-2.881l0.658-0.651h10.822l7.631-21.025l0.587-0.361h3.023l0.677,0.696
	l-0.032,0.193l-0.013,0.039l-7.399,20.458h10.068l0.657,0.651V49.925z M585.959,37.666c-1.373,0-2.469-1.115-2.469-2.462
	c0-1.353,1.096-2.462,2.469-2.462c1.36,0,2.469,1.109,2.469,2.462C588.428,36.551,587.319,37.666,585.959,37.666 M585.959,29.699
	c-1.373,0-2.469-1.109-2.469-2.462c0-1.366,1.096-2.462,2.469-2.462c1.36,0,2.469,1.096,2.469,2.462
	C588.428,28.59,587.319,29.699,585.959,29.699"/>
<path fill-rule="evenodd" clip-rule="evenodd" fill="#1C88CA" d="M571.857,18.684c-17.918,0-32.421,14.515-32.421,32.434
	c0,17.925,14.502,32.44,32.421,32.44s32.459-14.515,32.459-32.44C604.316,33.199,589.775,18.684,571.857,18.684 M560.867,25.007
	h3.061l0.606,0.4l0.019,0.026l4.37,10.77l0.071,0.432l-0.058,0.374l-1.566,4.357l-0.451,0.341l-0.413-0.316l-6.252-15.437
	l-0.065-0.271L560.867,25.007 M573.59,77.795h-3.829l-0.522-0.251h-0.064v-0.103l-0.045-0.032l0.019-0.039
	c-2.366-4.106-3.655-9.475-3.655-15.147c0-2.043,0.322-4.957,0.857-7.58l0.032-0.065l0.632-0.458h2.907l0.683,0.658l-0.026,0.103
	v0.045c-0.561,2.495-0.915,5.356-0.915,7.296c0,5.801,1.618,11.357,4.286,14.844l0.026,0.058l0.071,0.226L573.59,77.795
	 M584.528,49.925l-0.657,0.658h-25.363l-0.658-0.658v-2.881l0.658-0.651h10.822l7.631-21.025l0.587-0.361h3.023l0.677,0.696
	l-0.032,0.193l-0.013,0.039l-7.399,20.458h10.068l0.657,0.651V49.925z M585.959,37.666c-1.373,0-2.469-1.115-2.469-2.462
	c0-1.353,1.096-2.462,2.469-2.462c1.36,0,2.469,1.109,2.469,2.462C588.428,36.551,587.319,37.666,585.959,37.666 M585.959,29.699
	c-1.373,0-2.469-1.109-2.469-2.462c0-1.366,1.096-2.462,2.469-2.462c1.36,0,2.469,1.096,2.469,2.462
	C588.428,28.59,587.319,29.699,585.959,29.699"/>
<path fill="#FFFFFF" d="M574.051,77.348l-0.458,0.445h-3.835l-0.516-0.251h-0.071v-0.097l-0.045-0.032l0.019-0.045
	c-2.359-4.106-3.661-9.475-3.661-15.147c0-2.043,0.335-4.944,0.87-7.573l0.032-0.065l0.632-0.464h2.9l0.69,0.657l-0.032,0.11v0.039
	c-0.554,2.494-0.909,5.363-0.909,7.296c0,5.807,1.611,11.357,4.28,14.844l0.026,0.064L574.051,77.348z"/>
<polygon fill="#FFFFFF" points="568.993,36.636 568.935,37.01 567.375,41.36 566.917,41.708 566.505,41.392 560.253,25.956 
	560.188,25.685 560.872,25.008 563.927,25.008 564.539,25.408 564.552,25.434 568.928,36.204 "/>
<polygon fill="#FFFFFF" points="584.53,47.046 584.53,49.921 583.866,50.585 558.517,50.585 557.846,49.921 557.846,47.046 
	558.517,46.389 569.345,46.389 576.957,25.371 577.55,25.01 580.573,25.01 581.243,25.699 581.211,25.893 581.198,25.938 
	573.805,46.389 583.866,46.389 "/>
<path fill="#FFFFFF" d="M588.427,35.207c0,1.347-1.109,2.462-2.469,2.462c-1.373,0-2.469-1.115-2.469-2.462
	c0-1.36,1.096-2.469,2.469-2.469C587.318,32.738,588.427,33.847,588.427,35.207"/>
<path fill="#FFFFFF" d="M588.427,27.238c0,1.354-1.109,2.462-2.469,2.462c-1.373,0-2.469-1.109-2.469-2.462
	c0-1.366,1.096-2.462,2.469-2.462C587.318,24.776,588.427,25.872,588.427,27.238"/>
<path fill-rule="evenodd" clip-rule="evenodd" fill="#1C88CA" d="M183.01,10.288h-68.812c-2.056,0-3.725,1.669-3.725,3.713v68.812
	c0,0.999,0.38,1.927,1.083,2.623c0.722,0.722,1.644,1.102,2.643,1.102h68.812c2.063,0,3.725-1.663,3.725-3.725V14.001
	C186.736,11.957,185.073,10.288,183.01,10.288 M184.145,81.439c0,1.354-1.089,2.456-2.449,2.456h-66.195
	c-1.347,0-2.449-1.102-2.449-2.456V15.373c0-1.347,1.102-2.449,2.449-2.449h66.195c1.36,0,2.449,1.102,2.449,2.449V81.439z"/>
<path fill-rule="evenodd" clip-rule="evenodd" fill="#1C88CA" d="M181.691,13.664h-66.188c-0.948,0-1.715,0.773-1.715,1.714v66.059
	c0,0.96,0.767,1.714,1.715,1.714h66.188c0.967,0,1.715-0.754,1.715-1.714V15.379C183.406,14.438,182.658,13.664,181.691,13.664
	 M138.681,29.92l-0.657,0.658h-3.539l-0.651-0.658v-2.881l0.651-0.651h3.539l0.657,0.651V29.92z M160.531,29.92l-0.664,0.658
	h-14.399v18.634c0.754-0.219,1.508-0.335,2.288-0.335c2.984,0,5.769,1.379,7.786,3.854c3.493,4.235,5.24,10.687,4.911,18.144
	c-0.052,1.244-0.271,2.411-0.683,3.552l-0.632,0.451H155.6l-0.445-0.451l0.116-0.284c0.451-0.664,0.928-1.644,1.018-3.597
	c0.296-6.246-1.031-11.421-3.835-14.992c-1.302-1.644-2.875-2.475-4.699-2.475c-0.638,0-1.296,0.142-1.959,0.425l-0.329,0.155v2.701
	l-0.651,0.664h-2.875l-0.664-0.664V22.926l0.664-0.657h2.875l0.651,0.657v3.461h14.399l0.664,0.651V29.92z"/>
<path fill="#1A1A1A" d="M183.012,9.405h-68.812c-2.533,0-4.608,2.062-4.608,4.595v68.812c0,1.218,0.477,2.385,1.341,3.255
	c0.883,0.877,2.037,1.36,3.268,1.36h68.812c2.539,0,4.608-2.075,4.608-4.615V14C187.621,11.467,185.552,9.405,183.012,9.405
	 M186.738,82.812c0,2.063-1.669,3.725-3.725,3.725h-68.812c-0.999,0-1.927-0.374-2.643-1.102c-0.703-0.696-1.089-1.624-1.089-2.623
	V14c0-2.043,1.669-3.713,3.732-3.713h68.812c2.056,0,3.725,1.669,3.725,3.713V82.812z"/>
<path fill="#FFFFFF" d="M181.693,12.924h-66.195c-1.347,0-2.449,1.102-2.449,2.449v66.066c0,1.354,1.102,2.456,2.449,2.456h66.195
	c1.36,0,2.449-1.102,2.449-2.456V15.373C184.143,14.026,183.053,12.924,181.693,12.924 M183.414,81.439
	c0,0.954-0.754,1.715-1.721,1.715h-66.195c-0.941,0-1.715-0.761-1.715-1.715V15.373c0-0.941,0.773-1.714,1.715-1.714h66.195
	c0.967,0,1.721,0.773,1.721,1.714V81.439z"/>
<path fill="#FFFFFF" d="M145.469,30.574v18.64c0.754-0.226,1.508-0.335,2.288-0.335c2.984,0,5.769,1.379,7.786,3.854
	c3.493,4.235,5.24,10.686,4.911,18.144c-0.052,1.237-0.271,2.404-0.696,3.551l-0.619,0.438h-3.532l-0.458-0.438l0.122-0.284
	c0.451-0.677,0.928-1.644,1.018-3.596c0.297-6.252-1.025-11.428-3.835-14.999c-1.302-1.643-2.875-2.475-4.699-2.475
	c-0.638,0-1.296,0.148-1.959,0.432l-0.329,0.148v2.7l-0.657,0.67h-2.868l-0.664-0.67V22.924l0.664-0.657h2.868l0.657,0.657v3.468
	h14.399l0.664,0.651v2.875l-0.664,0.657H145.469z"/>
<polygon fill="#FFFFFF" points="138.684,27.037 138.684,29.918 138.026,30.575 134.494,30.575 133.837,29.918 133.837,27.037 
	134.494,26.386 138.026,26.386 "/>
<path fill-rule="evenodd" clip-rule="evenodd" fill="#E8E614" d="M303.082,46.944L258.118,1.981c-1.399-1.405-3.88-1.405-5.272,0
	l-44.963,44.963c-1.463,1.444-1.463,3.816,0,5.272l44.963,44.957c1.457,1.457,3.809,1.457,5.272,0l44.963-44.957
	c0.709-0.709,1.089-1.643,1.089-2.642C304.171,48.568,303.791,47.647,303.082,46.944 M299.788,51.327l-42.547,42.559
	c-0.496,0.483-1.121,0.735-1.766,0.735c-0.625,0-1.27-0.251-1.747-0.735l-42.566-42.559c-0.967-0.967-0.967-2.539,0-3.506
	l42.566-42.553c0.954-0.98,2.539-0.98,3.513,0l42.547,42.553C300.755,48.787,300.755,50.36,299.788,51.327"/>
<path fill-rule="evenodd" clip-rule="evenodd" fill="#E8E614" d="M299.159,48.451L256.612,5.879l-1.134-0.458l-1.134,0.458
	l-42.553,42.572l-0.464,1.121l0.464,1.128l42.553,42.566c0.612,0.606,1.669,0.606,2.269,0L299.159,50.7l0.477-1.128L299.159,48.451z
	 M245.558,29.946l-0.657,0.664h-3.365l-0.638-0.664v-2.862l0.638-0.651h3.365l0.657,0.651V29.946z M267.466,70.456
	c-0.135,1.644-0.438,2.907-0.967,4.009l-0.052,0.097l-0.561,0.316h-3.867l-0.438-0.451l0.142-0.348
	c0.883-0.915,1.379-1.785,1.566-3.893l-0.039-39.575h-10.906v40.162c0,0.915-0.077,2.295-0.625,3.687l-0.064,0.09l-0.574,0.329
	l-3.964-0.013l-0.38-0.438l0.187-0.374l0.11-0.084c0.806-0.651,1.096-1.534,1.096-3.197V22.927l0.677-0.664h2.862l0.677,0.664v3.487
	h14.425l0.651,0.67l0.058,43.281L267.466,70.456z"/>
<path fill="#1A1A1A" d="M303.715,46.317l-44.983-44.97C257.862,0.483,256.721,0,255.477,0c-1.244,0-2.385,0.483-3.249,1.347
	l-44.976,44.97c-1.785,1.792-1.785,4.712,0,6.523l44.976,44.957c0.889,0.902,2.075,1.347,3.249,1.347
	c1.18,0,2.353-0.445,3.255-1.347l44.983-44.957c0.857-0.864,1.341-2.03,1.341-3.268C305.056,48.347,304.572,47.187,303.715,46.317
	 M303.083,52.214l-44.97,44.964c-1.457,1.45-3.809,1.45-5.266,0l-44.97-44.964c-1.463-1.457-1.463-3.829,0-5.266l44.97-44.97
	c1.386-1.405,3.874-1.405,5.266,0l44.97,44.97c0.703,0.696,1.089,1.624,1.089,2.623C304.172,50.565,303.786,51.512,303.083,52.214"
	/>
<path fill="#1A1A1A" d="M299.79,47.823L257.244,5.263c-0.98-0.973-2.559-0.973-3.513,0l-42.566,42.559
	c-0.967,0.967-0.967,2.533,0,3.506l42.566,42.553c0.477,0.483,1.115,0.735,1.747,0.735c0.638,0,1.27-0.251,1.766-0.735
	l42.546-42.553C300.757,50.356,300.757,48.789,299.79,47.823 M299.159,50.697l-42.547,42.566c-0.599,0.606-1.656,0.606-2.269,0
	L211.79,50.697l-0.464-1.128l0.464-1.122l42.553-42.566l1.134-0.458l1.134,0.458l42.547,42.566l0.477,1.122L299.159,50.697"/>
<polygon fill="#1A1A1A" points="245.556,27.087 245.556,29.942 244.898,30.613 241.534,30.613 240.908,29.942 240.908,27.087 
	241.534,26.43 244.898,26.43 "/>
<path fill="#1A1A1A" d="M267.483,70.367l-0.013,0.09c-0.135,1.644-0.445,2.907-0.973,4.022l-0.052,0.071l-0.561,0.316h-3.861
	l-0.445-0.438l0.148-0.341c0.883-0.922,1.373-1.798,1.566-3.893l-0.045-39.588h-10.906v40.162c0,0.928-0.071,2.301-0.625,3.693
	l-0.058,0.084l-0.574,0.322l-3.964-0.006l-0.387-0.432l0.193-0.38l0.103-0.077c0.812-0.651,1.102-1.541,1.102-3.203V22.929
	l0.677-0.664h2.855l0.677,0.664v3.487h14.431l0.651,0.67L267.483,70.367z"/>
<path fill="#FFFFFF" d="M405.906,14.552c-1.167-2.011-3.326-3.261-5.653-3.261h-80.149c-2.327,0-4.486,1.25-5.646,3.261
	c-1.173,2.018-1.173,4.525,0,6.536l40.078,69.411c1.154,2.011,3.319,3.261,5.653,3.261c2.314,0,4.486-1.25,5.653-3.261
	l40.065-69.411C407.072,19.077,407.072,16.57,405.906,14.552 M361.116,47.083c-2.385-1.541-3.513-2.011-3.771-2.108v29.269
	l-0.651,0.664h-2.881l-0.664-0.664V22.951l0.664-0.651h2.881l0.651,0.651V40.16l0.039,0.013c0.026,0.013,2.617,1.012,4.196,2.101
	c6.278,3.951,10.513,10.925,10.822,17.751l0.058,1.392l-0.67,0.651h-2.849l-0.657-0.625l-0.084-1.244
	C368,55.372,365.344,50.473,361.116,47.083 M368.251,27.16c-1.36,0-2.462-1.096-2.462-2.462c0-1.353,1.102-2.462,2.462-2.462
	c1.36,0,2.462,1.109,2.462,2.462C370.714,26.064,369.611,27.16,368.251,27.16 M370.714,32.664c0,1.36-1.102,2.469-2.462,2.469
	c-1.36,0-2.462-1.109-2.462-2.469c0-1.366,1.102-2.475,2.462-2.475C369.611,30.189,370.714,31.298,370.714,32.664"/>
<path fill="#1A1A1A" d="M406.676,14.121c-1.328-2.288-3.777-3.719-6.42-3.719h-80.149c-2.649,0-5.085,1.431-6.413,3.719
	c-1.315,2.275-1.315,5.118,0,7.406l40.078,69.411c1.328,2.282,3.771,3.706,6.413,3.706c2.623,0,5.085-1.424,6.407-3.706
	l40.084-69.411C407.984,19.239,407.984,16.396,406.676,14.121 M405.909,21.089L365.831,90.5c-1.154,2.011-3.332,3.255-5.646,3.255
	c-2.333,0-4.499-1.244-5.653-3.255l-40.071-69.411c-1.173-2.011-1.173-4.518,0-6.536c1.154-2.011,3.319-3.268,5.646-3.268h80.149
	c2.32,0,4.486,1.257,5.653,3.268C407.076,16.571,407.076,19.078,405.909,21.089"/>
<path fill="#EA5776" d="M403.82,15.761c-0.728-1.263-2.095-2.056-3.564-2.056h-80.149c-1.457,0-2.836,0.793-3.571,2.056
	c-0.728,1.27-0.728,2.855,0,4.131l40.078,69.398c0.735,1.263,2.101,2.056,3.577,2.056c1.45,0,2.829-0.793,3.558-2.056l40.071-69.398
	C404.555,18.616,404.555,17.031,403.82,15.761 M368.255,22.232c1.36,0,2.456,1.109,2.456,2.462c0,1.366-1.096,2.469-2.456,2.469
	s-2.462-1.102-2.462-2.469C365.792,23.341,366.895,22.232,368.255,22.232 M368.255,30.192c1.36,0,2.456,1.109,2.456,2.475
	c0,1.353-1.096,2.462-2.456,2.462s-2.462-1.109-2.462-2.462C365.792,31.301,366.895,30.192,368.255,30.192 M371.787,62.078h-2.849
	l-0.651-0.638l-0.077-1.231c-0.213-4.834-2.868-9.739-7.09-13.123c-2.385-1.54-3.519-2.017-3.771-2.108v29.269l-0.657,0.658h-2.881
	l-0.664-0.658V22.961l0.664-0.664h2.881l0.657,0.664v17.203l0.026,0.006c0.032,0.019,2.623,1.018,4.209,2.108
	c6.278,3.951,10.506,10.919,10.815,17.751l0.058,1.386L371.787,62.078"/>
<path fill="#FFFFFF" d="M372.46,61.416l-0.67,0.658h-2.849l-0.657-0.632l-0.084-1.231c-0.2-4.834-2.855-9.739-7.084-13.129
	c-2.385-1.54-3.513-2.011-3.771-2.108v29.269l-0.651,0.664h-2.881l-0.664-0.664V22.957l0.664-0.657h2.881l0.651,0.657V40.16
	l0.039,0.013c0.026,0.013,2.617,1.012,4.196,2.101c6.278,3.957,10.513,10.925,10.822,17.751L372.46,61.416z"/>
<path fill="#FFFFFF" d="M370.714,24.696c0,1.366-1.102,2.469-2.462,2.469c-1.36,0-2.462-1.102-2.462-2.469
	c0-1.353,1.102-2.462,2.462-2.462C369.611,22.234,370.714,23.342,370.714,24.696"/>
<path fill="#FFFFFF" d="M370.714,32.664c0,1.36-1.102,2.469-2.462,2.469c-1.36,0-2.462-1.109-2.462-2.469
	c0-1.366,1.102-2.475,2.462-2.475C369.611,30.189,370.714,31.298,370.714,32.664"/>
</svg>
