<?xml version="1.0" encoding="utf-8"?>
<!-- Generator: Adobe Illustrator 27.0.1, SVG Export Plug-In . SVG Version: 6.00 Build 0)  -->
<svg version="1.1" id="레이어_1" xmlns="http://www.w3.org/2000/svg" xmlns:xlink="http://www.w3.org/1999/xlink" x="0px"
	 y="0px" viewBox="0 0 720 510.19" enable-background="new 0 0 720 510.19" xml:space="preserve">
<polygon fill="#FFFFFF" points="594.074,170.512 628.723,145.753 630.859,140.921 635.802,160.249 636.216,161.299 655.693,200.031 
	659.141,202.803 661.05,202.915 663.521,201.941 675.659,193.101 677.607,187.332 668.203,155.117 662.547,112.19 660.339,108.593 
	656.18,107.731 629.51,113.501 626.101,115.86 625.39,118.183 620.82,118.369 569.949,146.464 506.419,174.109 503.461,177.443 
	504.096,181.863 518.219,203.664 524.925,205.612 560.324,188.718 568.301,209.957 557.662,229.698 557.402,234.193 
	560.735,237.265 597.369,248.803 599.58,249.027 602.202,247.903 604.225,243.408 602.239,211.867 602.127,211.194 "/>
<polygon fill="#FFFFFF" points="717.903,181.889 709.849,177.282 703.294,178.294 681.268,202.417 656.02,209.197 628.524,193.914 
	624.405,193.502 621.22,196.237 607.099,224.855 606.873,229.05 609.722,232.085 654.71,251.825 657.481,252.276 659.541,251.526 
	699.997,226.878 701.945,224.743 720,188.894 "/>
<polygon fill="#FFFFFF" points="168.417,152.442 201.342,107.979 264.685,66.7 267.046,62.804 265.585,58.533 230.148,22.535 
	223.481,21.861 175.084,54.188 173.584,55.761 142.495,104.832 94.471,30.776 90.762,28.379 86.494,29.728 37.759,73.03 
	35.998,76.813 37.496,80.709 110.505,155.29 79.751,203.874 1.836,252.534 0,259.538 13.224,283.924 16.445,286.471 18.055,286.658 
	20.565,285.947 105.671,236.426 107.283,235.002 137.026,194.847 172.162,252.084 176.094,254.594 176.881,254.632 180.477,253.021 
	199.582,233.204 200.631,227.474 "/>
<polygon fill="#FFFFFF" points="365.735,77.34 367.194,71.759 357.681,43.703 354.121,40.294 349.326,41.268 285.273,93.748 
	191.438,140.684 188.628,146.64 199.529,193.014 202.6,196.648 204.886,197.098 207.321,196.423 272.387,160.126 277.406,183.051 
	257.067,237.403 260.025,244.183 302.653,261.677 304.864,262.089 307.26,261.414 309.919,257.631 314.453,230.024 314.49,229.012 
	310.932,127.536 "/>
<polygon fill="#FFFFFF" points="486.158,161.036 456.301,156.129 466.978,61.919 462.707,141.895 464.243,145.902 468.215,147.475 
	481.924,146.988 486.944,142.607 502.939,51.506 501.927,47.348 498.143,45.325 473.384,43.453 469.488,44.764 468.85,45.437 
	469.637,38.507 465.892,32.851 440.944,25.51 436.298,26.258 434.126,30.454 431.092,152.008 424.011,150.848 424.162,149.91 
	424.199,149.05 418.43,5.094 413,0 361.794,1.499 357.747,3.521 356.736,7.904 385.805,144.591 375.802,142.944 369.958,146.352 
	364.976,160.249 365.164,164.332 368.236,167.067 381.646,171.712 368.086,257.118 369.21,261.351 373.106,263.261 404.758,264.199 
	405.133,264.199 410.19,259.591 419.704,184.972 454.28,196.959 454.954,197.147 488.103,204.189 489.416,204.338 492.786,202.953 
	494.473,198.42 490.577,165.644 "/>
<polygon fill="#FFFFFF" points="381.87,331.286 370.294,283.714 365.461,279.78 261.326,276.822 148.611,269.18 144.191,271.165 
	143.329,275.885 158.202,323.346 162.358,326.904 250.461,340.351 251.063,340.427 331.71,343.461 304.066,377.211 300.882,378.934 
	301.856,362.865 298.522,357.695 262.599,344.06 257.805,344.622 255.631,348.967 256.232,403.845 240.349,412.685 238.138,419.315 
	245.292,435.573 248.401,438.382 250.237,438.645 251.735,438.344 227.575,491.237 227.575,495.544 230.833,498.354 
	270.352,510.004 272.001,510.19 276.571,507.119 295.564,463.554 295.975,461.794 298.973,411.636 318.788,400.324 319.986,399.388 
	380.594,336.119 "/>
<polygon fill="#FFFFFF" points="517.547,462.539 530.318,437.63 529.719,432.011 524.362,430.287 478.4,442.911 411.649,441.787 
	410.975,423.208 421.912,422.459 423.149,422.196 504.247,395.113 507.768,390.393 508.667,362.374 506.833,358.253 502.45,357.167 
	470.01,363.985 476.192,320.008 487.429,293.45 486.979,288.542 482.596,286.257 455.215,286.67 455.1,286.67 450.194,290.865 
	442.29,331.508 442.254,333.156 446.374,364.66 448.884,368.406 445.061,369.229 439.444,347.765 447.983,275.918 446.749,271.948 
	443.04,270.112 415.657,269.026 411.724,270.599 410.3,274.607 415.808,343.382 416.219,344.994 428.095,372.787 417.305,375.035 
	416.818,375.186 414.009,376.047 414.982,338.326 412.099,333.531 406.555,334.093 375.201,358.928 373.253,363.123 
	373.778,388.896 357.783,394.027 354.635,396.874 354.674,401.107 364.789,423.095 369.656,426.129 369.883,426.129 
	374.602,425.792 375.763,481.456 380.669,486.513 493.609,491.87 494.02,491.87 498.028,489.735 517.133,463.213 "/>
<polygon fill="#FFFFFF" points="708.241,428.152 700.411,417.214 693.744,415.716 682.468,421.859 639.766,380.655 701.46,313.04 
	702.809,309.332 701.273,264.681 698.762,260.41 693.819,260.224 658.381,277.642 510.381,269.888 506.225,271.611 504.988,275.956 
	512.03,316.674 517.124,321.019 578.408,320.72 640.438,324.915 593.766,376.646 593.43,377.096 527.689,468.87 526.827,473.103 
	529.522,476.474 546.606,485.202 549.153,485.765 552.934,483.891 609.123,415.716 668.309,458.831 671.53,459.842 674.377,458.868 
	707.08,435.344 "/>
<path fill="#FFFFFF" d="M534.23,59.784h2.284l2.659-2.622v-3.746l2.435,3.072l2.06,1.012l2.099-0.974l2.471-3.146v3.783l2.659,2.622
	h2.286l1.237-0.375l1.347,0.375h2.51l2.323-1.423l0.862-1.648h6.068l0.823,1.648l2.398,1.423h2.471l1.312-0.375l1.273,0.375h9.138
	l6.893-2.473l1.612-1.835v1.685l2.622,2.622h14.42l2.661-2.622v-2.06l-2.661-2.659h-1.834l0.412-1.424v-2.06l-0.151-0.899h1.049
	l2.659-2.66v-2.06l-2.659-2.622h-13.896l-2.622,2.622v1.648l-1.424-1.648l-7.492-2.622h-8.727l-2.659,2.622v8.016l-4.87-9.252
	l-2.323-1.387h-2.922l-2.323,1.387l-4.906,9.252v-8.016l-2.622-2.622h-2.846l-2.06,1.012l-4.57,5.694l-4.534-5.694l-2.097-1.012
	h-2.846l-2.622,2.622v13.822L534.23,59.784z M587.197,50.344l-0.562,1.536l-1.5,0.562h-4.383V48.06h3.971l1.872,0.637
	L587.197,50.344"/>
<polygon fill="#FFFFFF" points="583.061,61.281 580.775,61.281 578.116,63.941 578.116,68.512 572.196,62.106 570.249,61.281 
	567.402,61.281 565.118,62.706 562.795,61.281 560.509,61.281 557.886,63.941 557.886,77.689 560.509,80.386 562.795,80.386 
	565.118,78.963 567.402,80.386 569.725,80.386 572.347,77.689 572.347,73.119 578.264,79.525 580.212,80.386 583.061,80.386 
	585.681,77.689 585.681,63.941 "/>
<path fill="#FFFFFF" d="M616.61,89.264l-0.226-0.15l1.013-1.124l0.636-2.098l-1.123-1.91c-2.474-1.648-5.469-2.472-8.917-2.472
	l-6.555,1.535l-1.76,1.611l-0.638-0.674c-2.435-1.648-5.469-2.472-8.951-2.472l-6.331,1.423l-2.099-1.049h-2.846l-1.985,0.862
	l-3.82,4.233l-3.896-4.271l-1.948-0.824h-2.849l-2.247,1.311l-4.531-1.311h-11.125l-2.659,2.622v8.016l-4.87-9.252l-2.359-1.387
	h-2.885l-2.323,1.387l-7.305,13.784l0.075,2.585l2.284,1.311h2.474l2.396-1.461l0.825-1.648h6.031l0.86,1.648l2.362,1.461h2.508
	l1.312-0.375l1.273,0.375h10.974c7.305,0,7.867-4.794,7.867-6.255l-1.123-3.858l0.487-2.06l4.568,5.094v4.421l2.661,2.659h2.284
	l2.659-2.659v-4.421l3.82-4.233l1.687,2.922l-0.487,0.487l-1.273,1.648l0.487,3.671c2.396,1.91,5.73,2.884,9.852,2.884l6.966-1.611
	l1.385-1.086c2.398,1.798,5.583,2.697,9.516,2.697l6.966-1.611l3.221-5.619L616.61,89.264"/>
<polygon points="553.177,57.146 550.89,57.146 550.89,45.872 550.854,45.872 543.661,54.825 536.58,45.872 536.544,45.872 
	536.544,57.146 534.221,57.146 534.221,43.362 537.067,43.362 543.698,51.678 550.328,43.362 553.177,43.362 "/>
<path d="M573.234,57.158h-2.51l-1.61-3.071h-9.253l-1.612,3.071h-2.471l7.266-13.784h2.885L573.234,57.158z M568.029,51.989
	l-3.523-6.667l-3.521,6.667H568.029z"/>
<path d="M584.511,43.373l5.732,1.91l2.06,5.132l-2.172,4.908l-5.169,1.836h-9.141V43.373H584.511z M585.148,55.097l3.407-1.348
	l1.312-3.409l-1.424-3.596l-3.745-1.348h-6.594v9.701H585.148z"/>
<polygon points="610.499,57.146 596.077,57.146 596.077,43.362 609.973,43.362 609.973,45.422 598.361,45.422 598.361,48.943 
	606.452,48.943 606.452,51.004 598.361,51.004 598.361,55.087 610.499,55.087 "/>
<rect x="560.509" y="63.953" width="2.284" height="13.748"/>
<polygon points="583.061,77.704 580.212,77.704 569.725,66.392 569.725,77.704 567.402,77.704 567.402,63.957 570.249,63.957 
	580.775,75.27 580.775,63.957 583.061,63.957 "/>
<path d="M543.823,98.31h-2.51l-1.61-3.071h-9.253l-1.612,3.071h-2.471l7.266-13.784h2.885L543.823,98.31z M538.617,93.141
	l-3.523-6.667l-3.521,6.667H538.617z"/>
<path d="M560.228,91.198l2.398,3.483c0,2.397-1.76,3.634-5.245,3.634h-10.974V84.53h11.125l3.295,1.012l1.2,2.734L560.228,91.198
	 M557.569,90.298l1.612-0.561l0.599-1.349l-0.526-1.311l-1.573-0.524h-8.99v3.745H557.569z M557.42,96.254l2.846-1.91l-2.474-1.985
	h-9.102v3.895H557.42z"/>
<polygon points="581.671,84.51 574.14,92.864 574.14,98.296 571.819,98.296 571.819,92.864 564.288,84.51 567.137,84.51 
	573.017,90.954 578.822,84.51 "/>
<path d="M596.162,87.765l-6.258-1.573l-3.221,0.487l-1.123,1.387l1.198,1.311l2.773,0.449l3.782,0.262l3.82,1.311l1.276,2.622
	l-1.948,3.409l-5.62,1.198c-3.484,0-6.219-0.786-8.167-2.322l1.237-1.648l6.966,1.948l3.747-0.637l1.273-1.798l-1.685-1.76
	l-4.721-0.449l-4.758-0.9l-1.61-2.697l1.836-3.072l5.13-1.124l7.456,2.022L596.162,87.765z"/>
<path d="M614.047,87.765l-6.258-1.573l-3.258,0.487l-1.086,1.387l1.198,1.311l2.773,0.449l3.782,0.262l3.82,1.311l1.276,2.622
	l-1.987,3.409l-5.581,1.198c-3.484,0-6.255-0.786-8.167-2.322l1.237-1.648l6.93,1.948l3.784-0.637l1.273-1.798l-1.685-1.76
	l-4.721-0.449l-4.794-0.9l-1.573-2.697l1.797-3.072l5.169-1.124l7.456,2.022L614.047,87.765z"/>
<polygon fill="#EA5514" points="373.305,257.975 391.285,144.812 361.917,6.813 413.124,5.278 418.892,149.27 404.957,258.875 "/>
<polygon fill="#F5A200" points="468.018,142.16 473,48.737 497.759,50.611 481.727,141.674 "/>
<polygon fill="#EA5514" points="623.376,122.991 572.318,151.236 508.564,178.956 522.647,200.795 563.252,181.503 574.117,210.309 
	562.317,232.222 598.951,243.76 596.966,212.257 588.201,168.204 625.623,141.421 "/>
<polygon fill="#4E3612" points="707.219,181.851 684.18,207.137 655.299,214.853 625.971,198.521 611.848,227.215 656.799,246.993 
	697.217,222.345 715.272,186.497 "/>
<polygon fill="#4E3612" points="660.396,197.656 672.531,188.815 662.979,156.226 657.286,112.887 630.653,118.655 640.953,158.923 
	"/>
<polygon fill="#EA5514" points="163.149,321.775 148.277,274.352 260.992,281.994 365.278,284.991 376.851,332.526 316.243,395.832 
	250.052,433.479 242.862,417.221 307.441,381.26 342.314,338.67 251.289,335.223 "/>
<polygon fill="#EA5514" points="517.108,315.812 510.102,275.058 659.451,282.886 696.085,264.869 697.658,309.519 616.896,398.073 
	548.984,480.595 531.902,471.867 597.607,380.13 651.472,320.458 578.614,315.551 "/>
<polygon fill="#F5A200" points="525.741,435.25 479.066,448.099 406.619,446.899 405.533,415.247 408.268,397.754 409.767,338.157 
	378.413,362.992 380.923,481.325 493.824,486.719 512.928,460.198 "/>
<polygon fill="#F5A200" points="226.4,26.235 178.04,58.563 83.567,207.762 4.641,257.021 17.902,281.369 103.01,231.849 
	197.632,104.001 261.797,62.235 "/>
<polygon fill="#EA5514" points="153.967,132.247 90.024,33.656 41.289,76.996 120.74,158.207 176.666,249.307 195.77,229.567 "/>
<polygon fill="#EA5514" points="269.856,123.577 282.929,183.475 262.026,239.288 304.693,256.782 309.224,229.174 304.917,105.859 
	"/>
<polygon fill="#4E3612" points="193.802,145.419 288.197,98.259 352.664,45.366 362.18,73.423 276.996,151.488 204.701,191.793 "/>
<polygon fill="#4E3612" points="374.954,148.16 485.307,166.253 489.24,199.03 456.052,191.988 369.933,162.058 "/>
<polygon fill="#EA5514" points="436.01,167.879 439.455,30.554 464.404,37.933 449.682,167.355 "/>
<polygon fill="#F5A200" points="290.817,461.512 296.659,362.509 260.775,348.874 261.749,428.999 232.306,493.391 271.825,505.04 
	"/>
<polygon fill="#EA5514" points="369.466,420.944 359.388,398.957 418.387,380.114 503.493,362.246 502.633,390.229 421.572,417.273 
	"/>
<polygon fill="#EA5514" points="434.176,348.113 442.791,275.331 415.447,274.169 420.952,342.945 436.984,380.291 441.817,377.219 
	"/>
<polygon fill="#4E3612" points="464.58,365.377 471.171,318.629 482.671,291.433 455.288,291.846 447.384,332.489 451.468,363.992 
	"/>
<polygon fill="#F5A200" points="600.586,403.095 671.345,454.676 704.046,431.152 696.218,420.251 681.572,428.231 625.683,374.252 
	"/>
</svg>
