<?xml version="1.0" encoding="utf-8"?>
<!-- Generator: Adobe Illustrator 27.2.0, SVG Export Plug-In . SVG Version: 6.00 Build 0)  -->
<svg version="1.1" id="레이어_1" xmlns="http://www.w3.org/2000/svg" xmlns:xlink="http://www.w3.org/1999/xlink" x="0px"
	 y="0px" viewBox="0 0 720 267.682" enable-background="new 0 0 720 267.682" xml:space="preserve">
<path fill="#716C6A" d="M144.204,17.422c2.569-0.715,3.825-1.957,4.175-4.117l1.635,0.365c-1.138,2.321-2.745,3.533-5.665,4.132
	l-0.014,0.015L144.204,17.422z M142.408,17.524c1.3-3.052,1.417-6.833,1.417-10.425V1.42l6.015,0.613l-0.015-2.03l1.797,0.175
	l-0.745,1.855l6.775,0.058l-12.804,0.423l0.014,5.563c0.934-0.861,1.738-1.971,2.278-3.212l-1.884,0.029l2.307-0.482l-0.014-1.548
	l1.533,0.131l-0.555,1.387l1.344-0.847l3.562,0.876l-0.014-1.562l1.548,0.146l-0.555,1.387l2.015-0.876l1.153,0.964l-2.832,0.423
	c0.934,1.212,2.379,1.884,2.964,2.132c-0.277,0.058-0.512,0.073-0.745,0.073c-1.372,0-2.102-0.949-2.584-1.971l0.029,2.803
	l-0.993-2.19c-0.599,0.759-1.46,1.431-2.526,2.015c0.7-1.081,1.474-1.942,2-2.891l-4.38,0.029c1.372,0.657,1.855,1.27,1.855,1.781
	c-0.993-0.044-1.445-0.643-1.869-1.036l0.029,2.38l-0.978-1.942c-0.614,0.934-1.475,1.737-2.497,2.365
	c-0.219,2.906-0.496,6.571-2.365,9.257v0.015L142.408,17.524z M152.658,17.495c-1.343,0-1.577-0.233-1.577-1.504v-3.008
	l-3.854,0.015l-0.979-4.789l3.271,0.555c0.161-0.394,0.351-0.934,0.468-1.402l1.402,0.613l-1.227,0.789h4.425l1.839,0.423
	l-0.672,3.855l-3.344-0.044l-0.335,3.037l0.715,0.102l-0.335-1.095c0.847-0.613,0.978-1.314,1.051-1.869l0.117,1.825l1.752-0.088
	l-2.175,0.993l-0.263,0.248l3.052,0.394c0.569,0,0.569,0,0.92-1.387l0.716,1.621c0,0.511-0.482,0.715-1.665,0.715H152.658z
	 M151.432,12.516l3.329-0.014l-3.329-1.402V12.516z M147.242,12.516l3.198-0.014l-3.198-1.402V12.516z M151.432,10.618l3.329-0.014
	l-3.329-1.343V10.618z M147.242,10.618l3.198-0.014l-3.198-1.343V10.618z"/>
<path fill="#716C6A" d="M165.962,16.902c0.087-0.701,0.131-1.372,0.131-1.913c0-1.869-0.365-1.971-1.138-2.073
	c1.197-1.007,1.416-1.548,4.38-9.432l-0.789,3.84c-0.584,1.898-1.139,3.709-1.285,4.249c-0.175,0.745-0.263,1.27-0.263,1.664
	c0.278,1.606,0.409,2.205,0.409,2.993c0,0.525,0,1.65-0.905,1.65L165.962,16.902z M178.022,17.515
	c-0.058-0.613-0.248-1.329-0.599-2.132c-1.723,0.438-4.102,0.92-7.373,1.562l-1.183-1.387l2.205-0.131
	c0.526-1.621,1.168-3.943,1.65-6.001l-3.782,0.015l4.614-0.482l-0.015-4.41l-3.548,0.015l3.563-0.482l-0.015-4.001l1.855,0.176
	l-0.716,3.84l4.293,0.029l-4.307,0.438l0.014,4.41l5.081,0.044l-6.322,0.424c-0.146,2.555-1.022,4.526-1.87,5.986l5.695-0.467
	c-0.453-0.905-0.978-1.796-1.475-2.395c2.526,1.329,3.344,3.052,3.344,4.161l-0.613,1.051L178.022,17.515z M166.429,7.777
	c-0.263-0.788-1.007-1.752-1.737-2.248c2.043,0,2.73,0.934,2.73,1.679l-0.569,0.745L166.429,7.777z M167.16,3.031
	c-0.278-0.92-1.125-1.971-1.797-2.482c2.117,0.088,2.818,1.11,2.818,1.883l-0.584,0.788L167.16,3.031z"/>
<path fill="#716C6A" d="M186.932,17.453c4.483-1.387,7.987-3.431,10.615-8.907l1.533,1.007c-3.694,5.519-7.242,7.242-12.031,8.264
	l-0.014,0.014L186.932,17.453z M192.174,12.313c0-0.949-0.555-1.154-1.869-1.27l2.219-0.321L192.89,0.18l1.766,0.131l-0.686,10.031
	c0,1.11-0.292,1.781-1.781,1.986l-0.014,0.015V12.313z M185.924,10.123c1.607-2.059,2.891-5.023,3.446-7.067l1.665,0.789
	c-1.022,1.197-2.497,4.41-4.906,6.526l-0.015,0.015L185.924,10.123z M199.884,9.335c-0.453-1.81-2.205-4.453-3.622-6.001
	c3.446,1.942,4.585,4.147,4.585,5.388l-0.496,0.847L199.884,9.335z"/>
<path fill="#716C6A" d="M206.721,17.513c3.431-0.92,5.753-2.263,7.344-4.205c-1.256-0.642-2.628-1.27-4.132-1.81l-1.533,1.007
	c0.554-1.489,1.357-4.19,2.059-6.789l-3.957,0.015l4.117-0.482c0.54-2.044,1.008-3.986,1.256-5.169l1.679,0.277
	c-0.861,1.431-1.314,3.11-1.81,4.906l7.461-0.014l0.832-1.27l1.576,1.329l-3.372,0.423c-0.585,3.3-1.388,5.563-2.556,7.286
	c3.986,1.723,5.052,3.49,5.052,4.263c-1.883-0.832-3.68-2.219-5.723-3.431c-1.724,2.059-4.263,3.3-8.192,4.03l-0.014,0.015
	L206.721,17.513z M210.064,11.103c1.781,0.453,3.314,0.935,4.584,1.446c1.109-1.679,1.855-3.84,2.365-6.833l-5.402,0.015
	L210.064,11.103z"/>
<path fill="#716C6A" d="M232.691,16.962c-2.321,0-3.344-1.285-3.344-2.57c0-1.635,1.839-2.38,3.562-2.38
	c0.541,0,1.198,0.073,1.724,0.19l-0.117-1.84c-0.672-1.212-1.562-1.256-2.337-1.256h-0.146c-1.927,0-2.322-0.774-2.322-1.431
	c0-0.584,0.614-1.285,1.562-1.796c-0.525,0.7-0.948,1.197-0.948,1.65c0,0.511,0.54,0.759,1.635,0.759
	c0.759,0,1.839-0.087,2.467-0.146l-0.072-3.022c-0.658-0.146-1.344-0.176-1.928-0.176h-0.847c-1.49,0-2.205-0.394-2.804-1.46
	c0.7,0.248,1.533,0.569,2.511,0.569c0.759,0,2.321-0.059,3.066-0.146c-0.045-2.073-0.088-2.468-0.905-2.468
	c0.526-0.307,0.993-0.438,1.357-0.438c0.599,0,0.935,0.336,0.935,0.671l-0.35,1.635c0.38,0.131,0.774,0.19,1.153,0.19
	c0.569,0,1.095-0.131,1.402-0.248l1.576-0.525l-0.408,1.372l-0.088,0.044c-0.876,0.233-2.788,0.511-3.708,0.584l0.014,3.314
	c0.585-0.044,2.935-0.292,2.935-0.745l1.781,0.233c0,0.54-0.38,0.686-1.299,0.905c-0.744,0.19-2.132,0.35-3.402,0.467
	c0.044,1.212,0.102,2.292,0.19,2.92c1.766,1.066,3.314,1.986,4.074,2.672l0.175,1.839c-1.723-1.533-2.803-2.307-4.131-2.847
	C235.699,16.247,234.808,16.962,232.691,16.962 M232.721,12.742c-1.592,0-2.687,0.628-2.687,1.563c0,1.022,0.949,1.606,2.569,1.606
	c0.848,0,1.388-0.16,1.694-0.467l0.365-2.351v0.015C233.961,12.889,233.261,12.742,232.721,12.742"/>
<path fill="#716C6A" d="M252.969,16.741c-3.49,0-4.979-1.007-4.979-3.344c0-1.781,1.781-3.621,3.46-4.745
	c-1.008-0.671-1.008-1.869-1.008-4.497l-0.789-2.409c0.482-0.278,0.891-0.394,1.227-0.394c0.643,0,1.036,0.394,1.036,0.876
	c-0.423,1.855-0.453,2.672-0.453,3.46c0.044,1.752,0.453,2.336,0.789,2.453c0.817-0.526,2.19-1.299,3.227-1.855l0.657-1.825
	c0.745,0,1.621,0.993,1.621,1.621c0,0.496-0.409,0.745-1.125,0.963c-3.884,1.329-7.797,3.767-7.797,6.249
	c0,2.117,1.855,2.278,4.074,2.278c2.102,0,3.402-0.321,3.753-0.628c0.92,0.088,1.65,0.16,1.65,0.818c0,0.423-0.73,0.584-1.43,0.686
	C256.108,16.566,254.735,16.741,252.969,16.741 M256.386,3.294c-0.205-0.569-0.759-1.445-1.65-2.03
	c2.088,0.292,2.584,1.46,2.584,1.971l-0.394,0.584L256.386,3.294z M258.401,2.447c-0.219-0.555-0.774-1.431-1.65-2.029
	c2.074,0.321,2.57,1.46,2.57,1.971l-0.38,0.584L258.401,2.447z"/>
<path fill="#716C6A" d="M271.769,15.949c-0.087-0.394-1.183-1.417-1.971-2.146c1.402,0.496,2.351,1.168,2.76,1.168
	c1.066-1.197,1.635-3.051,1.635-5.534c0-1.957-0.117-3.241-1.766-3.241c-0.438,0-1.417,0.205-1.884,0.336
	c-0.774,3.051-2.001,6.76-2.993,8.906l-0.73-1.343c0.759-1.066,2.117-4.818,2.76-7.315c-0.409,0.146-1.125,0.394-1.577,0.628
	c-0.233,0.073-0.438,0.102-0.613,0.102c-0.949,0-1.285-0.832-1.285-1.402c0.643,0.088,1.168,0.117,1.607,0.117
	c0.89,0,1.43-0.131,2.043-0.277c0.161-0.759,0.555-2.76,0.555-3.402l-1.212-0.876c0.569-0.234,1.036-0.321,1.431-0.321
	c0.847,0,1.27,0.423,1.27,0.861c-0.643,1.928-0.832,2.731-1.052,3.533l1.738-0.219c2.292,0,2.701,1.445,2.701,4.278
	s-0.89,7.008-2.804,7.008L271.769,15.949z M278.734,10.561c0-2.949-0.949-4.964-2.847-5.986c3.124,0.613,4.131,3.329,4.131,5.344
	c0,0.92-0.277,1.519-0.7,1.519L278.734,10.561z"/>
<path fill="#716C6A" d="M295.214,13.138l-5.446,3.986l2.059-6.483l-5.417-3.898l6.717-0.073l2.074-6.424l2.175,6.439l6.687-0.015
	l-5.402,3.986l2.132,6.498L295.214,13.138z M293.521,7.225l-5.475,0.015l4.438,3.198l-1.752,5.286l4.512-3.256l4.497,3.242
	l-1.752-5.257l4.424-3.212h-5.446l-1.723-5.286L293.521,7.225z"/>
<path fill="#716C6A" d="M318.288,14.211c-1.257-2.715-2.819-4.176-4.862-5.694c1.708,0.35,3.037,1.212,3.781,1.869
	c2.643-2.497,4.556-5.314,4.556-5.65h-0.146c-1.022,0-6.176,0.394-8.206,0.701l-1.65,0.584c-0.613,0-1.533-1.373-1.533-2.103
	c0.627,0.073,1.211,0.482,2.219,0.482c1.036,0,6.658-0.277,9.009-0.54c0.263-0.146,0.554-0.219,0.817-0.219
	c1.022,0,1.84,0.891,1.84,1.227c-2.248,2.278-4.395,4.453-6.527,5.913c1.066,0.934,2.205,2.555,2.205,3.68l-0.599,0.905
	L318.288,14.211z"/>
<path fill="#716C6A" d="M337.761,17.244c-0.569,0-0.804-1.037-0.877-1.489c0.118-1.957-0.014-3.884-0.102-4.819
	c-1.489,0.263-3.607,0.686-4.614,1.227c-0.145,0.029-0.291,0.044-0.438,0.044c-0.978,0-1.694-0.745-1.694-1.329
	c0.088-0.015,0.176-0.015,0.249-0.015c0.438,0,0.803,0.161,1.387,0.161l5.081-0.861c-0.087-1.154-0.307-3.373-0.423-4.424
	c-0.979,0.233-2.292,0.511-2.891,0.774c-0.233,0.058-0.453,0.073-0.672,0.073c-1.095,0-1.679-0.657-1.679-1.27
	c0.511,0.029,0.832,0.248,1.533,0.248c0.803,0,2.38-0.321,3.65-0.584c-0.321-2.76-0.408-3.358-1.387-3.358
	c0.526-0.35,1.066-0.496,1.503-0.496c0.482,0,0.818,0.205,0.818,0.467l-0.117,2.38c0.759,0.131,1.329,0.175,1.752,0.175
	c0.862,0,1.197-0.19,1.372-0.453c0.89,0.088,1.811,0.394,1.811,0.949c-2.015,0.423-3.315,0.613-4.833,0.934l0.291,3.067l3.154,0.89
	c0.789-0.146,1.299-0.307,1.577-0.73c1.153,0.205,1.912,0.438,1.912,0.934c0,0.526-0.7,0.526-1.752,0.526
	c-1.212,0-3.023,0.219-4.731,0.511l0.512,4.293L337.761,17.244z M341.863,3.066c-0.117-0.423-0.511-1.489-1.547-2.263
	c1.562,0.205,2.555,1.27,2.555,2.117l-0.496,0.686L341.863,3.066z M343.996,2.234c-0.176-0.525-0.599-1.518-1.548-2.234
	c1.533,0.175,2.526,1.27,2.526,2.117l-0.467,0.701L343.996,2.234z"/>
<path fill="#716C6A" d="M358.612,16.235c-0.249-0.671-0.263-0.7-2.774-2.365c0.993,0.044,2.175,0.628,2.745,0.832h0.073
	c1.576,0,2.263-4.906,2.263-8.176c-0.16-0.205-0.613-0.278-1.27-0.278c-0.774,0-1.855,0.102-3.066,0.263
	c-0.979,4.585-2.978,7.914-6.103,10.148c3.416-3.767,4.643-7.899,5.037-10.031c-0.92,0.146-2.497,0.336-2.949,0.716
	c-0.088,0.015-0.176,0.029-0.263,0.029c-0.774,0-1.445-0.759-1.445-1.519c0.525,0.102,0.949,0.263,1.752,0.263
	c0.438,0,0.7-0.014,3.037-0.233c0.175-0.905,0.394-2.731,0.394-3.212c0-0.73-0.292-0.993-1.11-0.993
	c0.496-0.219,0.949-0.307,1.343-0.307c0.818,0,1.314,0.409,1.314,0.745c-0.541,1.927-0.731,2.993-0.891,3.679
	c1.84-0.19,2.92-0.262,3.65-0.365c0.307-0.175,0.585-0.233,0.847-0.233c0.818,0,1.417,0.598,1.417,0.832l-0.658,1.299
	c-0.131,3.066-0.613,6.877-1.547,8.439c-0.395,0.657-0.832,0.964-1.299,0.964L358.612,16.235z"/>
<path fill="#716C6A" d="M370.005,17.478c3.373-2.613,5.388-6.921,6.147-13.17l-2.95,0.015c-0.38,1.241-0.832,2.424-1.372,3.431
	c2.117,0.525,2.877,1.694,2.877,2.54c-1.256-0.467-2.22-1.592-3.066-2.248c-0.467,0.891-0.963,1.592-1.519,2.161
	c1.125-2.19,2.264-5.87,2.804-10.089l1.679,0.409c-0.759,1.402-0.993,2.395-1.256,3.315l2.701-0.015l1.884,0.482
	c-1.285,4.789-2.673,10.352-7.753,13.506l-0.029,0.014L370.005,17.478z M380.285,9.52c-1.037-1.606-1.855-3.679-2.424-6.147
	c0.817,1.519,1.519,3.037,2.452,4.41l-0.029-7.607l1.766,0.175l-0.686,8.819c1.08,1.241,2.365,2.205,3.723,2.804l-1.066,1.328
	c-1.008-0.598-1.912-1.387-2.687-2.307l0.029,6.351l-1.08,0.453V9.52z"/>
<path fill="#716C6A" d="M393.011,17.803l-0.015-10.717c-0.599,1.183-1.285,2.204-2,3.051c1.08-2.424,2.54-6.264,3.402-10.016
	l1.694,0.613c-1.037,1.752-1.548,3.14-2.117,4.395l0.102,12.235l-0.891,0.438H393.011z M404.589,17.438
	c-0.073-0.598-0.277-1.329-0.599-2.19c-1.883,0.467-4.438,1.036-7.898,1.708l-1.11-1.358l1.898-0.131
	c0.585-2.175,1.314-5.023,1.781-7.125l-3.46,0.014l8.439-0.496l2.219,0.058l-6.409,0.438c-0.16,2.453-1.198,5.008-2.132,7.096
	l6.526-0.614c-0.511-1.153-1.226-2.409-1.912-3.358c2.789,1.839,3.709,3.927,3.709,5.198l-0.555,1.022L404.589,17.438z
	 M396.354,2.618l6.234-0.496l2.205,0.073l-0.759,0.423H396.354z"/>
<path fill="#716C6A" d="M438.208,16.944h-8.907v-0.73l4.819-5.256c0.263-0.292,0.54-0.628,0.803-1.022
	c0.263-0.409,0.512-0.818,0.716-1.256c0.219-0.423,0.394-0.862,0.526-1.3c0.131-0.452,0.204-0.861,0.204-1.27
	c0-0.876-0.277-1.592-0.817-2.146c-0.555-0.555-1.271-0.832-2.132-0.832c-0.526,0-0.935,0.029-1.256,0.088
	c-0.307,0.044-0.585,0.146-0.832,0.277c-0.234,0.131-0.482,0.307-0.731,0.511c-0.233,0.219-0.54,0.496-0.92,0.818l-0.131-0.16
	c0.16-0.351,0.364-0.73,0.627-1.125c0.249-0.409,0.526-0.715,0.832-0.963c0.438-0.321,0.92-0.555,1.431-0.716
	c0.526-0.16,1.051-0.219,1.576-0.205c0.526,0.029,1.037,0.131,1.534,0.321c0.481,0.176,0.92,0.438,1.284,0.774
	c0.38,0.336,0.686,0.73,0.921,1.212c0.218,0.467,0.335,1.007,0.335,1.621c0,0.511-0.072,1.022-0.218,1.519
	c-0.146,0.496-0.351,0.964-0.599,1.431c-0.249,0.453-0.54,0.891-0.862,1.314c-0.336,0.424-0.657,0.818-1.007,1.197l-4.103,4.439
	h6.395c0.263,0,0.482-0.088,0.643-0.263c0.16-0.161,0.307-0.351,0.423-0.569l0.132,0.088L438.208,16.944z"/>
<path fill="#716C6A" d="M457.698,2.24c-0.161,0.073-0.278,0.161-0.351,0.307c-0.058,0.131-0.102,0.292-0.102,0.496
	c-0.015,0.219-0.015,0.453-0.015,0.745V17.06h-1.124l-8.907-12.746v10.805c0,0.292,0,0.526,0.015,0.73
	c0,0.205,0.044,0.365,0.102,0.496c0.073,0.131,0.19,0.234,0.351,0.292c0.16,0.058,0.394,0.087,0.686,0.087v0.219h-3.577v-0.219
	c0.307,0,0.554-0.029,0.715-0.087c0.161-0.058,0.278-0.161,0.351-0.278c0.073-0.131,0.117-0.292,0.117-0.496
	c0.014-0.19,0.014-0.438,0.014-0.745V3.072c-0.087-0.19-0.16-0.35-0.219-0.482c-0.058-0.117-0.131-0.219-0.204-0.278
	c-0.073-0.073-0.16-0.117-0.277-0.146c-0.102-0.015-0.278-0.029-0.496-0.029V1.919h2.935c1.358,2.059,2.745,4.074,4.147,6.059
	c1.402,1.986,2.788,4.001,4.147,6.06V3.788c0-0.307,0-0.555,0-0.759c-0.014-0.205-0.044-0.38-0.117-0.511
	c-0.059-0.131-0.19-0.233-0.35-0.292c-0.176-0.058-0.409-0.088-0.731-0.088V1.919h3.607v0.219
	C458.092,2.138,457.858,2.167,457.698,2.24"/>
<path fill="#716C6A" d="M463.484,16.718c0.233,0,0.409,0,0.555-0.015s0.263-0.058,0.336-0.131c0.073-0.073,0.131-0.19,0.16-0.336
	c0.029-0.146,0.044-0.35,0.044-0.598V3.227c0-0.248-0.014-0.453-0.044-0.598c-0.029-0.146-0.087-0.263-0.16-0.336
	c-0.073-0.073-0.19-0.117-0.336-0.131s-0.322-0.015-0.555-0.015V1.913h5.155c1.226,0,2.351,0.16,3.358,0.453
	c1.022,0.307,1.884,0.774,2.614,1.387c0.73,0.628,1.285,1.416,1.693,2.365c0.395,0.934,0.585,2.059,0.585,3.344
	c0,1.081-0.161,2.088-0.496,3.037c-0.351,0.934-0.935,1.767-1.781,2.497c-0.862,0.73-1.825,1.241-2.891,1.533
	c-1.066,0.277-2.147,0.409-3.256,0.409h-4.979V16.718z M466.463,15.345c0,0.131,0.058,0.234,0.16,0.307
	c0.102,0.073,0.218,0.131,0.364,0.175c0.161,0.029,0.307,0.058,0.453,0.058c0.146,0.015,0.263,0.015,0.336,0.015
	c1.08,0,2.059-0.117,2.95-0.365c0.89-0.248,1.635-0.628,2.263-1.153c0.628-0.526,1.109-1.197,1.445-2.015
	c0.336-0.832,0.512-1.81,0.512-2.964c0-1.095-0.161-2.044-0.496-2.862c-0.322-0.803-0.789-1.474-1.388-2
	c-0.599-0.54-1.314-0.934-2.175-1.197c-0.847-0.248-1.796-0.38-2.847-0.38c-0.263,0-0.54,0.015-0.818,0.058
	c-0.291,0.044-0.54,0.161-0.758,0.336V15.345z"/>
<path fill="#716C6A" d="M489.64,16.645c-0.073,0.073-0.118,0.161-0.118,0.278h-0.262l-0.102-3.241l0.044-0.073h0.19
	c0.277,0.643,0.627,1.153,1.08,1.533c0.453,0.394,0.935,0.672,1.431,0.832c0.511,0.175,1.008,0.248,1.533,0.219
	c0.512-0.029,0.993-0.161,1.402-0.38c0.423-0.219,0.774-0.526,1.022-0.92c0.263-0.394,0.394-0.861,0.394-1.387
	c0-0.642-0.175-1.168-0.525-1.606c-0.351-0.423-0.774-0.818-1.3-1.154c-0.511-0.35-1.08-0.686-1.693-1.007
	c-0.613-0.321-1.183-0.671-1.694-1.066c-0.525-0.394-0.949-0.847-1.299-1.372c-0.35-0.526-0.526-1.183-0.526-1.971
	c0-0.569,0.117-1.081,0.365-1.533c0.248-0.453,0.569-0.847,0.963-1.168c0.409-0.321,0.862-0.569,1.372-0.745
	c0.512-0.175,1.037-0.248,1.562-0.248c0.307,0,0.614,0.015,0.921,0.073c0.307,0.044,0.598,0.117,0.905,0.205
	c0.029,0.014,0.103,0.044,0.234,0.087c0.145,0.029,0.277,0.073,0.438,0.117c0.16,0.044,0.307,0.088,0.438,0.117
	c0.131,0.044,0.204,0.059,0.218,0.059c0.249-0.029,0.395-0.161,0.424-0.424h0.233c0.073,0.555,0.117,1.11,0.175,1.694
	c0.044,0.569,0.059,1.139,0.029,1.679h-0.248c-0.19-0.555-0.482-1.022-0.862-1.387c-0.38-0.38-0.803-0.657-1.27-0.847
	c-0.468-0.19-0.949-0.292-1.461-0.292c-0.482,0-0.934,0.087-1.343,0.263c-0.409,0.175-0.745,0.452-0.993,0.803
	c-0.263,0.35-0.395,0.788-0.395,1.314c0,0.394,0.102,0.745,0.322,1.051c0.219,0.307,0.467,0.584,0.774,0.832
	c0.38,0.307,0.789,0.599,1.212,0.861c0.438,0.263,0.876,0.526,1.314,0.759l-0.161-0.073c0.496,0.263,0.964,0.526,1.417,0.832
	c0.452,0.292,0.847,0.628,1.211,0.993c0.351,0.365,0.628,0.789,0.832,1.256c0.219,0.467,0.322,1.007,0.322,1.606
	c0,0.643-0.146,1.197-0.423,1.694c-0.278,0.496-0.643,0.92-1.095,1.256c-0.453,0.351-0.964,0.599-1.533,0.774
	c-0.555,0.19-1.125,0.277-1.708,0.277c-0.614,0-1.212-0.073-1.767-0.219c-0.569-0.161-1.139-0.307-1.738-0.467
	C489.8,16.543,489.712,16.572,489.64,16.645"/>
<path fill="#716C6A" d="M514.321,16.944h-10.119v-0.219c0.453,0,0.745-0.058,0.862-0.19c0.117-0.131,0.176-0.423,0.176-0.905V3.22
	c0-0.467-0.059-0.759-0.176-0.891c-0.117-0.131-0.409-0.19-0.862-0.19V1.92h9.9l0.014,2.278h-0.307
	c-0.073-0.555-0.248-0.905-0.526-1.022c-0.263-0.131-0.671-0.19-1.183-0.19h-4.483c-0.248,0-0.394,0.029-0.438,0.073
	c-0.029,0.058-0.059,0.205-0.059,0.438v5.081h4.512c0.233,0,0.438-0.014,0.627-0.029c0.176-0.029,0.322-0.073,0.423-0.146
	c0.118-0.073,0.205-0.19,0.263-0.336c0.059-0.146,0.102-0.351,0.132-0.599h0.292v3.344h-0.292c-0.029-0.263-0.073-0.467-0.132-0.613
	c-0.058-0.146-0.145-0.263-0.263-0.351c-0.102-0.073-0.248-0.131-0.423-0.146c-0.16-0.029-0.38-0.044-0.627-0.044h-4.512v5.797
	c0,0.131,0.044,0.233,0.132,0.307c0.073,0.058,0.175,0.102,0.291,0.117c0.103,0.015,0.219,0.015,0.351,0.015
	c0.117-0.015,0.233-0.015,0.321-0.015h3.664c0.351,0,0.658-0.014,0.921-0.058c0.262-0.029,0.496-0.117,0.7-0.233
	c0.204-0.117,0.394-0.278,0.555-0.467c0.16-0.204,0.307-0.482,0.467-0.818h0.35L514.321,16.944z"/>
<path fill="#716C6A" d="M529.347,16.942v-0.219c0.336,0,0.599-0.058,0.759-0.19c0.16-0.131,0.16-0.365,0-0.745l-1.372-3.373h-6.687
	l-1.241,3.11c-0.16,0.38-0.219,0.686-0.146,0.891c0.059,0.204,0.336,0.307,0.803,0.307v0.219h-3.095v-0.219
	c0.176-0.015,0.321-0.073,0.453-0.161c0.117-0.087,0.234-0.19,0.321-0.307c0.102-0.117,0.19-0.248,0.249-0.394
	c0.073-0.146,0.131-0.307,0.19-0.453l5.679-13.652h1.227l5.899,14.236c0.16,0.394,0.481,0.643,0.963,0.73v0.219H529.347z
	 M525.42,4.093l-2.936,7.242h5.87L525.42,4.093z"/>
<path fill="#716C6A" d="M538.317,16.645c-0.073,0.073-0.118,0.161-0.118,0.278h-0.262l-0.102-3.241l0.044-0.073h0.19
	c0.277,0.643,0.627,1.153,1.08,1.533c0.453,0.394,0.935,0.672,1.431,0.832c0.511,0.175,1.008,0.248,1.533,0.219
	c0.512-0.029,0.993-0.161,1.402-0.38c0.423-0.219,0.774-0.526,1.022-0.92c0.263-0.394,0.394-0.861,0.394-1.387
	c0-0.642-0.175-1.168-0.525-1.606c-0.351-0.423-0.774-0.818-1.3-1.154c-0.511-0.35-1.08-0.686-1.693-1.007
	c-0.613-0.321-1.183-0.671-1.694-1.066c-0.525-0.394-0.949-0.847-1.299-1.372c-0.35-0.526-0.526-1.183-0.526-1.971
	c0-0.569,0.117-1.081,0.365-1.533c0.248-0.453,0.569-0.847,0.963-1.168c0.409-0.321,0.862-0.569,1.372-0.745
	c0.512-0.175,1.037-0.248,1.562-0.248c0.307,0,0.614,0.015,0.921,0.073c0.307,0.044,0.598,0.117,0.905,0.205
	c0.029,0.014,0.102,0.044,0.234,0.087c0.145,0.029,0.277,0.073,0.438,0.117c0.16,0.044,0.307,0.088,0.438,0.117
	c0.131,0.044,0.204,0.059,0.218,0.059c0.249-0.029,0.395-0.161,0.424-0.424h0.234c0.073,0.555,0.117,1.11,0.175,1.694
	c0.044,0.569,0.059,1.139,0.029,1.679h-0.248c-0.19-0.555-0.482-1.022-0.862-1.387c-0.38-0.38-0.803-0.657-1.27-0.847
	c-0.468-0.19-0.949-0.292-1.461-0.292c-0.482,0-0.934,0.087-1.343,0.263c-0.409,0.175-0.745,0.452-0.993,0.803
	c-0.263,0.35-0.395,0.788-0.395,1.314c0,0.394,0.102,0.745,0.322,1.051s0.467,0.584,0.773,0.832c0.38,0.307,0.789,0.599,1.212,0.861
	c0.438,0.263,0.876,0.526,1.314,0.759l-0.161-0.073c0.496,0.263,0.964,0.526,1.417,0.832c0.452,0.292,0.847,0.628,1.211,0.993
	c0.351,0.365,0.628,0.789,0.832,1.256c0.219,0.467,0.322,1.007,0.322,1.606c0,0.643-0.146,1.197-0.423,1.694
	c-0.278,0.496-0.643,0.92-1.095,1.256c-0.453,0.351-0.964,0.599-1.533,0.774c-0.555,0.19-1.125,0.277-1.708,0.277
	c-0.614,0-1.212-0.073-1.767-0.219c-0.569-0.161-1.139-0.307-1.738-0.467C538.477,16.543,538.389,16.572,538.317,16.645"/>
<path fill="#716C6A" d="M565.42,12.451c-0.307,0.934-0.773,1.767-1.372,2.468c-0.599,0.716-1.329,1.27-2.205,1.679
	c-0.876,0.409-1.869,0.613-2.993,0.613c-1.139,0-2.146-0.204-3.022-0.613c-0.876-0.409-1.606-0.963-2.205-1.664
	c-0.599-0.701-1.052-1.519-1.358-2.468c-0.307-0.949-0.453-1.957-0.453-3.022c0-1.314,0.205-2.468,0.599-3.446
	c0.394-0.979,0.935-1.796,1.606-2.453c0.657-0.657,1.416-1.139,2.264-1.475c0.832-0.321,1.693-0.482,2.569-0.467
	c0.876,0,1.724,0.161,2.57,0.497c0.847,0.321,1.606,0.818,2.263,1.46c0.672,0.657,1.198,1.475,1.607,2.453
	c0.394,0.979,0.598,2.132,0.598,3.431C565.887,10.509,565.726,11.516,565.42,12.451 M563.61,7.077
	c-0.19-0.803-0.482-1.533-0.877-2.19c-0.394-0.642-0.92-1.183-1.547-1.591c-0.643-0.424-1.416-0.628-2.337-0.628
	c-0.934,0-1.723,0.204-2.351,0.628c-0.642,0.409-1.153,0.949-1.562,1.591c-0.394,0.657-0.686,1.387-0.861,2.176
	c-0.176,0.803-0.263,1.591-0.263,2.38c0,0.788,0.087,1.577,0.263,2.38c0.175,0.818,0.467,1.533,0.861,2.176
	c0.409,0.642,0.921,1.168,1.562,1.576c0.628,0.409,1.417,0.614,2.351,0.614c0.921,0,1.694-0.205,2.337-0.614
	c0.643-0.409,1.167-0.934,1.576-1.576c0.395-0.657,0.686-1.387,0.862-2.176c0.175-0.803,0.263-1.592,0.263-2.38
	C563.887,8.669,563.799,7.881,563.61,7.077"/>
<path fill="#716C6A" d="M583.332,2.24c-0.161,0.073-0.278,0.161-0.351,0.307c-0.058,0.131-0.102,0.292-0.102,0.496
	c-0.015,0.219-0.015,0.453-0.015,0.745V17.06h-1.124l-8.907-12.746v10.805c0,0.292,0,0.526,0.015,0.73
	c0,0.205,0.044,0.365,0.102,0.496c0.073,0.131,0.19,0.234,0.351,0.292c0.16,0.058,0.394,0.087,0.686,0.087v0.219h-3.577v-0.219
	c0.321,0,0.554-0.029,0.715-0.087c0.161-0.058,0.278-0.161,0.351-0.278c0.073-0.131,0.117-0.292,0.131-0.496c0-0.19,0-0.438,0-0.745
	V3.072c-0.087-0.19-0.16-0.35-0.219-0.482c-0.058-0.117-0.117-0.219-0.204-0.278c-0.073-0.073-0.16-0.117-0.277-0.146
	c-0.102-0.015-0.278-0.029-0.496-0.029V1.919h2.935c1.358,2.059,2.745,4.074,4.147,6.059c1.402,1.986,2.788,4.001,4.147,6.06V3.788
	c0-0.307,0-0.555,0-0.759c-0.014-0.205-0.044-0.38-0.117-0.511c-0.059-0.131-0.19-0.233-0.35-0.292
	c-0.176-0.058-0.409-0.088-0.731-0.088V1.919h3.607v0.219C583.726,2.138,583.493,2.167,583.332,2.24"/>
<g>
	<defs>
		<path id="SVGID_1_" d="M367.403,176.421c0,0.789,0.627,1.417,1.416,1.417c0.774,0,1.416-0.628,1.416-1.417
			c0-0.788-0.643-1.416-1.416-1.416C368.03,175.005,367.403,175.633,367.403,176.421 M671.438,158.944
			c1.723,1.957,6.745,2.307,8.921,1.913c-3.957,0.029-4.789-2.409-6.541-3.577c-0.438-0.307-0.89-0.424-1.285-0.424
			C671.349,156.856,670.562,157.936,671.438,158.944 M589.191,154.812c5.767-0.628,10.585-5.68,13.842-11.038
			C590.475,144.314,592.198,152.739,589.191,154.812 M697.514,149.117c11.287-2.234,17.58-5.782,22.486-11.476
			c-1.431-0.205-2.687-0.292-3.811-0.292C706.26,137.349,706.509,144.65,697.514,149.117 M336.58,136.969
			c0,0.789,0.643,1.417,1.416,1.417c0.789,0,1.416-0.628,1.416-1.417c0-0.788-0.627-1.431-1.416-1.431
			C337.223,135.539,336.58,136.181,336.58,136.969 M397.699,136.969c0,0.789,0.628,1.417,1.431,1.417
			c0.774,0,1.416-0.628,1.416-1.417c0-0.788-0.643-1.431-1.416-1.431C398.327,135.539,397.699,136.181,397.699,136.969
			 M92.175,135.509C92.263,135.655,92.292,135.714,92.175,135.509 M92.175,135.509c-0.058-0.131-0.16-0.35-0.248-0.496
			C92.044,135.247,92.132,135.393,92.175,135.509 M91.928,135.013c-0.029-0.058-0.045-0.117-0.088-0.175
			C91.839,134.838,91.883,134.911,91.928,135.013 M242.112,119.273l-8.074,21.405v-21.405h-12.06
			c2.322,0.365,4.336,2.512,4.614,5.578v26.004h7.447l8.074-30.633v30.633h12.849c-2.322-0.365-5.124-2.511-5.387-5.578v-26.004
			H242.112z M85.59,159.017v4.38c-0.555,6.498-1.635,11.024-6.571,11.812h22.617c0.131-1.621,0.204-3.271,0.204-4.921
			c0-25.085-15.141-49.643-38.736-57.192C77.195,122.383,85.59,140.488,85.59,159.017 M577.042,110.732h-14.469
			c9.154,4.161,14.469,11.652,14.469,11.652v-7.14h26.617l4.672-4.512H577.042z M366.191,132.765l-9.097-7.505l7.636,9.228
			l-22.514,2.482l22.514,2.468l-7.636,9.228l9.097-7.505l2.613,30.764l2.629-30.764l9.096,7.505l-7.651-9.228l22.543-2.468
			l-22.543-2.482l7.651-9.228l-9.096,7.505L368.804,102L366.191,132.765z M683.074,132.166v-15.828v-1.898v-8.804
			c-0.496,5.563-4.965,8.454-9.359,8.775c-11.769-0.716-21.61-4.512-30.4-14.659C649.39,117.974,666.443,133.086,683.074,132.166
			 M367.403,97.62c0,0.788,0.627,1.416,1.416,1.416c0.774,0,1.416-0.628,1.416-1.416c0-0.789-0.643-1.417-1.416-1.417
			C368.03,96.204,367.403,96.832,367.403,97.62 M287.594,88.392c3.241,0.511,7.154,3.49,7.519,7.753v33.319
			c0,21.127-3.226,39.174-14.484,48.606c0,0,30.4-16.937,30.4-52.957V88.392H287.594z M253.428,93.882
			c-3.022,1.533-2.38,5.271,0.482,4.687c4.088-0.876,8.57-7.651,9.739-11.038C260.553,93.108,256.465,92.364,253.428,93.882
			 M143.001,87.341c0.847,2.307,3.591,2.146,3.402,0.058c-0.291-3.008-4.789-6.775-7.125-7.899
			C143.016,82.172,142.169,85.063,143.001,87.341 M30.311,65.995c3.709,3.314,13.345,2.862,17.419,1.606
			c-7.534,0.934-9.68-3.49-13.272-5.33c-0.73-0.38-1.445-0.54-2.102-0.54C29.844,61.731,28.282,64.155,30.311,65.995
			 M479.392,53.219c17.229,3.607,20.923,15.141,20.923,15.141V57.73h29.917v112.982h-24.486v-10.629c0,0-3.709,11.535-20.938,15.127
			h62.799V62.446c0.453-5.066,5.11-8.614,8.95-9.228H479.392z M408.782,52.693c5.008,0.803,11.067,5.403,11.622,11.988V177.75
			c28.092-9.914,49.95-34.764,57.645-65.938c-8.425,20.033-22.603,36.575-40.241,47.219V52.693H408.782z M611.106,52.693
			c5.008,0.803,11.053,5.403,11.637,11.988V175.21h29.026c-5.008-0.789-11.052-5.388-11.637-11.973V52.693H611.106z M675.613,52.693
			l-8.06,21.391V52.693h-12.074c2.321,0.365,4.351,2.511,4.614,5.563V84.26h7.461l8.06-30.618V84.26h12.864
			c-2.337-0.38-5.139-2.511-5.402-5.563V52.693H675.613z M282.148,67.688V57.19h39.963v15.462l0.059-0.058
			c-0.16,13.418-1.665,27.231-10.688,34.765c0,0,25.741-11.885,27.873-47.541c0,0.716,5.096-6.526,8.95-7.125
			c-4.424,0-77.91-0.131-87.094-0.131C278.439,56.153,282.148,67.688,282.148,67.688 M179.255,49.671
			c4.498,0.716,9.841,4.454,11.447,9.929h-37.276c17.229,3.606,20.952,15.141,20.952,15.141V64.111h16.776v44.46
			c-12.893,6.643-24.573,11.023-30.924,12.41v11.652c10.294-3.884,20.821-8.643,30.924-14.571v57.148h29.319
			c-5.124-0.803-11.33-5.519-11.9-12.265v-56.739c10.616-8.425,20.222-18.558,27.859-30.895
			c-7.621,8.702-17.579,16.557-27.859,23.215V64.111h23.347l4.658-4.512h-28.005v-9.929H179.255z M176.057,39.421
			c-0.876-2.059-3.271-3.3-5.621-3.913C172.013,40.107,174.948,38.545,176.057,39.421 M16.295,37.786
			C11.403,28.996,7.184,33.493,0,29.93C6.162,35.406,10.936,37.464,16.295,37.786 M78.611,25.798
			c2.321-1.942,3.286-0.832,5.315-0.832c2.044,0,3.796-2.643,1.081-3.198c-0.249-0.044-0.496-0.073-0.731-0.073
			C81.765,21.695,79.269,24.119,78.611,25.798 M28.691,35.727c-5.914,4.687-6.06,10.396-2.205,13.769
			c-0.015-6.6,5.826-9.549,13.929-7.271c6.848,1.957,7.358,9.432,3.183,10.469c17.229,3.592,20.937,15.141,20.937,15.141V57.19
			h37.919v31.947h0.014c0.087,16.397,1.241,35.758-10.63,45.701c0,0,28.019-12.922,28.019-52.286V61.906
			c0.438-5.067,5.096-8.614,8.951-9.213h-14.484c-17.814,0-35.948-1.883-32.955-12.017c-11.623,6.06-25.348,4.103-33.641-7.315
			c-5.052-6.95-14.834-11.608-32.107-14.981C32.458,25.287,33.436,31.945,28.691,35.727 M29.231,12.147
			c-1.198-0.745-0.672-4.03-5.534-4.03C25.055,10.146,26.997,12,29.231,12.147"/>
	</defs>
	<clipPath id="SVGID_00000134948604945732212250000011945901519815650494_">
		<use xlink:href="#SVGID_1_"  overflow="visible"/>
	</clipPath>
	
		<linearGradient id="SVGID_00000050636514973393316230000017849740629011272354_" gradientUnits="userSpaceOnUse" x1="-82.7863" y1="606.1016" x2="-68.1854" y2="606.1016" gradientTransform="matrix(15.8215 27.4037 27.4037 -15.8215 -15060.4785 11741.8379)">
		<stop  offset="0" style="stop-color:#7DCDEF"/>
		<stop  offset="0.2161" style="stop-color:#ACB9DD"/>
		<stop  offset="0.3314" style="stop-color:#C7AED3"/>
		<stop  offset="0.6459" style="stop-color:#ED7FAF"/>
		<stop  offset="0.8158" style="stop-color:#EF879E"/>
		<stop  offset="1" style="stop-color:#F19286"/>
	</linearGradient>
	
		<polygon clip-path="url(#SVGID_00000134948604945732212250000011945901519815650494_)" fill="url(#SVGID_00000050636514973393316230000017849740629011272354_)" points="
		539.999,-303.652 793.592,135.583 179.999,489.841 -73.593,50.606 	"/>
</g>
<path fill="#716C6A" d="M236.898,266.817c11.607-3.869,16.076-8.79,17.346-19.58l-5.271-0.38l-0.277,3.957
	c0,0.876-0.876,1.898-1.679,1.898l-0.219-30.37l2.628,2.424l20.047,0.015l1.49-1.883l2.964,3.095l-1.329,0.993l-0.205,22.646
	c0,0.438-0.832,0.92-2.015,0.92l-0.131-3.475l-5.519-0.219l-0.292,11.389c0,2.555,0,3.183,1.562,3.534
	c1.183,0.292,3.84,0.496,6.454,0.496c2.409,0,5.446-0.19,6.409-0.584c1.431-0.613,2.351-2.088,2.847-4.512l1.489-7.49l-0.058,8.03
	c-0.117,1.446,0.103,1.957,1.11,2.774c0.613,1.942-0.817,3.022-2.731,3.46c-2.175,0.438-6.687,0.774-10.746,0.774
	c-3.709,0-6.367-0.277-7.286-0.745c-0.7-0.394-1.183-1.372-1.183-4.848v-11.943l-5.534-0.336c-1.519,6.658-2.015,8.191-3.402,10.629
	c-1.986,3.519-5.242,6.03-10.017,7.68C241.935,265.693,238.431,266.554,236.898,266.817 M249.368,239.382l-0.672,5.913l21.245,0.35
	l0.321-5.957c-0.029-0.365-0.321-0.643-0.686-0.643L249.368,239.382z M249.368,232.607l-0.672,5.241l21.245,0.336l0.321-5.286
	c-0.029-0.365-0.321-0.628-0.686-0.628L249.368,232.607z M249.368,225.979l-0.672,5.096l21.245,0.336l0.321-5.14
	c-0.029-0.365-0.321-0.628-0.686-0.628L249.368,225.979z M237.351,227.453c-0.832,0-1.49-0.832-1.49-1.898
	c0-0.891,0.205-1.402,1.635-3.066c1.913-2.263,2.556-4.19,2.804-8.468c0.088,0.102,0.278,0.131,0.482,0.131
	c0.204,0,0.438-0.044,0.511-0.044c-0.438,1.095-0.394,1.417-0.336,2.95l25.83,0.321l1.679-3.343
	c1.445-3.913,2.044-5.578,3.826-10.776l3.957,3.066l-2.205,1.723c-3.723,5.577-4.001,6.015-6.001,8.79l11.287,0.54l1.752-1.971
	l4.351,5.256l-3.051,1.49l-5.315,5.198c1.388-2.964,1.825-4.57,2.745-7.724c0.044-0.205,0.088-0.73-0.029-0.905
	c-0.132-0.175-0.249-0.584-0.468-0.584l-38.021,0.438c-0.643,4.191-1.357,7.023-2.569,8.25
	C238.314,227.234,237.848,227.453,237.351,227.453 M249.893,215.013c-0.511,0-0.847-0.248-1.343-1.708
	c-1.241-3.519-2.307-5.052-5.49-7.767c6.308,2.482,8.089,4.249,8.089,7.651C251.149,213.626,251.061,215.013,249.893,215.013
	 M260.654,212.721c-0.453,0-0.789-0.204-1.241-1.328c-1.811-4.497-2.321-5.271-5.578-8.148c5.695,1.942,8.133,4.161,8.133,7.227
	C261.968,211.786,261.413,212.721,260.654,212.721"/>
<path fill="#716C6A" d="M311.535,219.26l2.541,2.702l3.212,0.029l0.336-9.651l-2.351-0.307l-4.716,0.19l-1.635-2.263l3.796,0.716
	l2.964,0.131h11.418l2.906-3.505l2.555,3.037l-0.277,1.752l-8.075-0.073l-0.35,9.651l4.424,0.321l1.329-2.132l2.293,2.716
	l-0.512,1.372l-0.554,39.627l-1.154,1.942l-0.744-4.745l-15.2-0.233l-0.322,5.417l-1.094,1.08l-0.409,0.19L311.535,219.26z
	 M314.075,249.689l-0.658,9.301l15.215,0.336l0.321-9.301c-0.014-0.38-0.321-0.657-0.686-0.657L314.075,249.689z M319.842,223.145
	c-0.7,11.447-2.16,16.922-6.366,22.383l-0.059,2.672l15.215,0.307l0.321-7.082l-2.292-0.204c-4.336-0.029-4.468-0.336-4.468-2.263
	v-15.433c0-0.19-0.087-0.394-0.248-0.526c-0.117-0.102-0.278-0.16-0.438-0.16C321.463,222.838,319.842,223.145,319.842,223.145
	 M314.032,223.145l-0.614,20.149c3.505-5.665,4.264-10.892,4.205-19.77c0-0.19-0.087-0.38-0.233-0.511
	c-0.132-0.117-0.292-0.175-0.453-0.175C316.908,222.838,314.032,223.145,314.032,223.145 M324.486,223.159l-0.628,13.842
	c0,1.591,0.774,1.737,2.687,1.737c0.014,0,1.474-0.131,1.503-0.131l0.847-15.068c0-0.19-0.072-0.38-0.218-0.511
	c-0.117-0.117-0.292-0.19-0.468-0.19C328.194,222.838,324.486,223.159,324.486,223.159 M319.842,211.975l-0.554,9.666l2.686,0.336
	l0.219-9.637c-0.014-0.204-0.102-0.394-0.248-0.496c-0.132-0.102-0.278-0.16-0.438-0.16
	C321.463,211.683,319.842,211.975,319.842,211.975 M332.56,260.654l2.088,0.613c2.628,0.117,4.044,0.16,5.577,0.16h5.461
	l0.35-10.629c-1.592-0.131-2.584-0.175-3.431-0.175c-0.817,0-4.074,0.205-4.074,0.205l-1.109-2.38
	c3.957,0.832,4.614,0.832,8.264,0.832l0.35-8.322l-6.745-0.321c-1.504,3.095-2.935,5.797-4.876,8.454
	c-0.38,0.511-1.607,2.117-1.928,2.234c0.102-0.555,0.102-0.555,0.7-1.445c2.877-4.512,5.125-11.33,6.045-18.397l3.387,1.052
	c-1.956,3.913-2.132,4.365-2.818,6.307l5.943,0.599l0.291-9.929l3.855,1.139l-0.628,1.197l-0.89,0.452l-0.176,6.819l5.373,0.321
	l2.511-3.022l2.673,2.774l-10.207,1.445l-0.35,8.337l4.162,0.307l2.336-2.876l2.336,2.555l0.059,1.518h-8.542l-0.35,10.644
	l5.987,0.307l2.686-3.3l2.935,3.095l-19.594,1.401c-1.416,0-1.883,0-5.855,0.219L332.56,260.654z M336.707,207.405l2.132,2.351
	l15.185,0.014l1.694-2.219l2.161,2.365c-0.132,0.92-0.322,5.183-0.905,18.748c0,0.789-0.963,1.562-1.898,1.562l-0.277-2.438
	l-15.857-0.336c-0.219,0-0.233,0.803-0.365,0.964c-0.131,0.16,0,1.081,0.044,1.27c-0.146,0.19-0.35,0.671-0.291,0.905
	c0.029,0.088,0.044,0.19,0.058,0.321l-1.445,0.015L336.707,207.405z M339.277,218.983l-0.672,6.906l15.871,0.351l0.322-6.95
	c-0.015-0.35-0.322-0.643-0.672-0.643L339.277,218.983z M339.277,210.953l-0.672,6.498l15.871,0.351l0.322-6.541
	c-0.015-0.351-0.322-0.628-0.672-0.628L339.277,210.953z"/>
<path fill="#716C6A" d="M386.524,223.949l2.526,2.964l11.389,0.029l1.592-2.088l2.526,2.804l-1.109,33.48
	c0,2.876-0.19,3.431-0.891,3.942c-0.7,0.628-1.576,1.037-2.175,1.037c-0.481,0-0.54,0-0.905-1.212l-3.854-2.555
	c-0.029-0.117,0.292-0.16,0.774-0.16c1.227,0,3.446,0.278,3.577,0.278c1.271,0,1.358-0.789,1.358-2.073v-11.024l-12.309-0.351
	l-0.321,16.339c0,0.657-0.978,1.737-1.65,2.015L386.524,223.949z M389.371,238.593l-0.672,8.877l12.309,0.336l0.321-8.877
	c-0.014-0.38-0.307-0.657-0.686-0.657L389.371,238.593z M389.371,228.139l-0.672,8.936l12.309,0.336l0.321-8.95
	c-0.014-0.365-0.307-0.657-0.686-0.657L389.371,228.139z M423.04,266.335c-0.233,0-0.453-0.073-0.671-0.891l-0.628-1.723
	l-3.358-1.402l4.088,0.088l1.752-1.314l0.219-37.772l3.271,1.314l-0.979,1.445l-0.073,35.772c0,1.533-0.335,2.541-1.109,3.256
	C424.53,265.941,423.566,266.335,423.04,266.335 M412.615,225.628l3.548,1.197l-1.329,29.406c0,0.788-0.715,1.577-1.474,1.767
	L412.615,225.628z M381.369,217.437c2.731,0.803,4.789,0.832,6.614,0.832c0.132,0,23.172,0.015,23.172,0.015l1.489-3.154
	c1.036-3.358,2.526-8.191,3.3-11.141l3.664,2.949l-2.219,1.664c-2.293,4.234-3.505,6.308-5.315,9.17l12.337,0.511l3.723-4.307
	l3.066,4.015c0.204,1.154-0.044,1.504-0.059,1.504l-39.101-0.014l-9.432,0.35L381.369,217.437z M399.592,216.341
	c-0.585,0-0.848-0.321-1.563-2.628c-0.715-2.409-2.978-5.592-5.475-7.753c2.643,0.862,3.622,1.49,4.906,2.672
	c2.161,1.986,3.3,3.957,3.3,5.68C400.759,215.305,400.161,216.341,399.592,216.341"/>
<path fill="#716C6A" d="M460.533,235.195c-4.497,5.475-6.687,8.031-9.009,10.06c-0.38,0.365-1.329,1.241-1.665,1.241
	c6.351-7.213,12.075-17.054,16.353-28.428l3.65,3.388l-1.942,0.745c-1.869,3.124-2.132,3.533-5.11,8.425l1.855,2.219l-0.686,1.168
	l-0.949,0.686l-0.176,31.071c0,0.628-1.139,1.708-1.956,1.912L460.533,235.195z M465.804,266.411
	c0.102-0.613,0.102-0.613,1.212-1.329c5.227-3.679,10.965-9.374,13.403-13.243c-2.468-3.709-4.512-7.855-7.403-15.521
	c-2.846,3.022-6.876,7.783-7.84,7.958l0.526-1.621c5.052-5.257,10.25-15.185,12.746-24.194l3.869,3.008l-2.088,1.095
	c-0.292,0.015-0.934,1.431-1.022,1.723l-1.679,3.636l13.842,0.482l1.694-2.424l3.168,3.226l-0.643,1.022l-0.963,0.453l-1.942,4.074
	l-0.862,2.03c-2.102,4.614-5.695,10.732-8.746,14.893c4.541,5.271,10.805,8.907,18.164,11.403c-2.818,0.643-3.256,0.934-4.322,3.227
	c-4.38-1.898-10.731-7.257-14.907-12.615c-3.095,3.066-6.527,6.366-11.301,9.826C468.651,265.024,466.285,266.353,465.804,266.411
	 M476.915,229.676c-1.343,1.752-1.825,2.643-3.446,5.125c1.607,5.49,4.848,11.447,7.797,15.053
	c5.125-7.183,8.045-12.951,10.294-19.799c0.059-0.205,0.029-0.438-0.117-0.628c-0.131-0.16-0.321-0.263-0.54-0.263
	C490.888,229.164,476.915,229.676,476.915,229.676 M482.916,241.97c-0.438,0-0.716-0.19-1.606-2.059
	c-1.241-2.409-2.541-4.102-4.819-6.307c4.687,2.146,7.374,3.986,7.374,6.673C483.865,241.049,483.617,241.97,482.916,241.97
	 M449.597,214.417c3.811,0.964,6.263,0.993,7.971,0.993c0.087,0,16.849,0.014,16.849,0.014l0.351-11.111l4.336,1.197l-1.665,2.161
	l-0.073,7.432l16.44,0.321l3.943-4.088l2.818,3.592l-0.014,1.694h-40.109c-1.475,0-1.548,0-8.396,0.278L449.597,214.417z"/>
<polygon fill="#716C6A" points="122.592,238.007 168.336,237.627 197.465,237.262 197.465,238.007 197.465,238.752 168.336,238.386 
	"/>
<polygon fill="none" stroke="#716C6A" stroke-width="0.028" stroke-linecap="round" stroke-linejoin="round" stroke-miterlimit="10" points="
	122.592,238.007 168.336,237.627 197.465,237.262 197.465,238.007 197.465,238.752 168.336,238.386 "/>
<polygon fill="#716C6A" points="611.769,238.007 566.024,237.627 536.895,237.262 536.895,238.007 536.895,238.752 566.024,238.386 
	"/>
<polygon fill="none" stroke="#716C6A" stroke-width="0.028" stroke-linecap="round" stroke-linejoin="round" stroke-miterlimit="10" points="
	611.769,238.007 566.024,237.627 536.895,237.262 536.895,238.007 536.895,238.752 566.024,238.386 "/>
</svg>
