<?xml version="1.0" encoding="utf-8"?>
<!-- Generator: Adobe Illustrator 27.0.1, SVG Export Plug-In . SVG Version: 6.00 Build 0)  -->
<svg version="1.1" id="레이어_1" xmlns="http://www.w3.org/2000/svg" xmlns:xlink="http://www.w3.org/1999/xlink" x="0px"
	 y="0px" viewBox="0 0 720 161.17" enable-background="new 0 0 720 161.17" xml:space="preserve">
<rect x="371.746" y="38.731" width="2.724" height="83.117"/>
<rect x="345.543" y="38.731" width="2.712" height="83.117"/>
<polyline points="357.236,8.391 357.236,5.888 357.294,5.737 357.398,5.83 357.723,6.687 362.382,6.687 362.59,6.629 359.45,4.625 
	358.499,4.091 358.801,3.813 360.713,2.84 361.605,2.341 362.729,1.681 362.474,1.565 357.931,1.565 357.526,1.901 357.468,2.214 
	357.34,2.341 357.236,2.237 357.236,0.174 357.352,0 357.456,0.128 357.955,1.205 362.776,1.205 363.089,0.638 363.089,0.464 
	363.193,0.232 363.332,0.58 363.332,2.365 363.367,3.118 363.239,3.385 363.112,3.141 363.112,3.037 362.973,2.712 362.857,2.712 
	360.458,3.883 359.925,4.219 359.797,4.393 360.887,5.135 362.903,6.259 363.112,5.714 363.112,5.609 363.239,5.366 363.367,5.621 
	363.332,6.386 363.332,8.379 363.216,8.414 363.123,8.356 363.123,8.113 362.335,7.499 358.244,7.499 357.433,8.125 357.433,8.356 
	357.34,8.437 357.236,8.391 "/>
<path d="M357.166,15.842l1.136-1.02c-0.197,0-1.205-0.835-1.205-2.051c0-1.808,1.263-3.048,3.06-3.048
	c1.773,0,3.083,1.321,3.083,3.106c0,1.657-1.356,2.944-3.094,2.944h-1.68l-0.684,0.498l0.336,0.533l0.209,0.162l0.046,0.081
	l-0.128,0.069L357.166,15.842 M359.936,14.776c2.016,0,3.036-0.66,3.036-1.923c0-1.298-1.055-2.133-2.758-2.133
	c-1.75,0-2.862,0.788-2.862,2.04l1.704,2.016H359.936z"/>
<path d="M361.93,23.526l0.255-0.765l-0.267-0.405l-1.089,0.22c-1.217,0-2.155-0.799-2.283-2.237l-0.545-0.069l-0.568,0.011
	l-0.185,0.487c0,0.116,0.29,1.901-2.214,1.901c-1.391,0-2.874-1.251-2.874-2.387l0.556-0.614l0.8,1.089l1.518,1.576
	c0.336,0,1.124,0.081,1.171-1.414l0.023-0.962v-0.035l0.151-0.139l0.255,0.011l0.95,0.185l0.974-0.139l0.058-0.417
	c0.22-1.02,1.02-1.657,2.132-1.657c1.275,0,2.399,0.904,2.399,2.445l-0.533,1.611l-0.186,0.255l0.417,1.251l-0.591,0.568
	L361.93,23.526 M360.701,21.648c1.46,0,2.202-0.498,2.202-1.495c0-1.055-0.614-1.495-2.04-1.495c-1.31,0-2.016,0.499-2.016,1.437
	c0,1.008,0.556,1.53,1.715,1.553H360.701z"/>
<path d="M357.236,27.524v-2.329l0.104-0.116l0.116,0.069l0.035,0.417l0.475,0.313h4.114l0.8-0.649v-0.243l0.116-0.081l0.093,0.069
	v2.399l-0.093,0.116l-0.116-0.058l-0.081-0.429l-0.44-0.29h-4.114l-0.788,0.614v0.255l-0.104,0.058L357.236,27.524 M366.079,26.272
	l0.707-0.707l0.707,0.707l-0.707,0.696L366.079,26.272z"/>
<path d="M357.016,31.789c0-1.68,1.228-2.827,3.025-2.827c1.379,0,3.315,0.741,3.315,3.291l-0.359,0.637l-0.255-0.047l-0.336-0.115
	l-0.324-0.301l0.255-0.337l0.336-0.799c0-0.591-0.336-1.472-2.179-1.472c-1.692,0-2.955,1.055-2.955,2.422l0.672,1.484l0.104,0.139
	l-0.058,0.058C358.198,33.922,357.016,33.446,357.016,31.789"/>
<path d="M357.166,40.829l1.136-1.02c-0.197,0-1.205-0.835-1.205-2.051c0-1.808,1.263-3.048,3.06-3.048
	c1.773,0,3.083,1.321,3.083,3.106c0,1.657-1.356,2.944-3.094,2.944h-1.68l-0.684,0.498l0.336,0.533l0.209,0.162l0.046,0.081
	l-0.128,0.069L357.166,40.829 M359.936,39.762c2.016,0,3.036-0.66,3.036-1.923c0-1.298-1.055-2.133-2.758-2.133
	c-1.75,0-2.862,0.788-2.862,2.04l1.704,2.016H359.936z"/>
<polyline points="357.19,45.093 357.248,43.773 357.19,42.706 357.34,42.533 357.456,42.625 357.514,43.309 358.233,43.633 
	366.183,43.633 366.519,43.054 366.519,42.88 366.635,42.671 366.785,43.007 366.785,44.167 366.044,44.468 357.792,44.468 
	357.479,45.036 357.479,45.209 357.364,45.441 357.19,45.093 "/>
<path d="M358.685,55.547l-1.565,0.035c-2.468,0.069-3.025-1.611-3.025-2.272l0.707-0.95l0.51,0.568l-0.649,1.251l1.251,0.649h1.194
	l0.487-0.313c0-0.267-0.521-0.672-0.521-1.75c0-1.193,1.112-2.885,3.129-2.885c1.785,0,3.222,1.518,3.222,2.99
	c0,1.193-0.545,1.761-0.545,2.121l0.012,0.116l-0.186,0.127l-0.997,0.174l-0.545,0.116l-0.058-0.093l0.035-0.093l0.579-0.186
	c0.707-0.231,1.402-0.915,1.402-2.144c0-1.483-1.634-2.039-3.036-2.039c-2.016,0-2.619,1.101-2.619,2.086l0.661,1.576l0.927,0.058
	l0.185-0.394v-0.463l0.128-0.128l0.081,0.058l0.151,0.962l0.139,0.719l-0.127,0.162L358.685,55.547"/>
<path d="M357.236,59.707v-2.329l0.104-0.116l0.116,0.081l0.035,0.417l0.475,0.313h4.114l0.8-0.649V57.18l0.116-0.081l0.093,0.069
	v2.399l-0.093,0.116l-0.116-0.058l-0.081-0.429l-0.44-0.29h-4.114l-0.788,0.615v0.243l-0.104,0.058L357.236,59.707 M366.079,58.455
	l0.707-0.695l0.707,0.695l-0.707,0.707L366.079,58.455z"/>
<path d="M362.602,65.304l-0.348-0.115l-0.313-0.301l0.243-0.325l0.348-0.869c0-0.788-0.591-1.193-2.04-1.193h-2.237l-0.742,0.278
	l-0.058,0.429l-0.093,0.127l-0.128-0.267V61.55l-0.058-0.73l0.128-0.185l0.093,0.069l0.093,0.579l0.719,0.313h0.707
	c2.492,0,4.288,1.193,4.3,3.117l-0.371,0.637L362.602,65.304"/>
<polyline points="357.19,68.503 357.248,67.182 357.19,66.116 357.34,65.942 357.456,66.023 357.514,66.718 358.233,67.032 
	366.183,67.032 366.519,66.464 366.519,66.29 366.635,66.07 366.785,66.417 366.785,67.564 366.044,67.866 357.792,67.866 
	357.479,68.446 357.479,68.619 357.364,68.851 357.19,68.503 "/>
<path d="M357.224,78.98l0.046-1.124l-0.035-0.951l0.128-0.266l0.128,0.255l0.533,0.626h0.881c0.765,0,1.321-0.417,1.321-1.553v-0.73
	l-0.209-0.232h-2.225l-0.313,0.638l-0.116,0.22l-0.174-0.336l0.058-1.24l-0.058-0.962l0.151-0.174l0.116,0.081l0.058,0.591
	l0.718,0.313h4.497l0.336-0.603V73.36l0.116-0.209l0.151,0.348v2.874c0,1.669-0.892,1.819-1.367,1.819l-1.321-1.101l-0.232-0.615
	c-0.139,1.565-1.031,1.97-1.762,1.97h-0.742l-0.417,0.197l-0.058,0.336l-0.128,0.093L357.224,78.98 M363.089,75.55l-0.325-0.545
	h-2.179l-0.116,0.417l0.023,0.557l1.31,1.275C362.521,77.254,363.089,76.674,363.089,75.55z"/>
<path d="M357.166,85.934l1.136-1.02c-0.197,0-1.205-0.835-1.205-2.04c0-1.807,1.263-3.048,3.06-3.048
	c1.773,0,3.083,1.321,3.083,3.106c0,1.657-1.356,2.933-3.094,2.933h-1.68l-0.684,0.509l0.336,0.522l0.209,0.162l0.046,0.093
	l-0.128,0.069L357.166,85.934 M359.936,84.867c2.016,0,3.036-0.66,3.036-1.923c0-1.298-1.055-2.133-2.758-2.133
	c-1.75,0-2.862,0.8-2.862,2.051l1.704,2.005H359.936z"/>
<path d="M357.236,90.315v-2.329l0.104-0.116l0.116,0.069l0.035,0.417l0.475,0.313h4.114l0.8-0.649v-0.243l0.116-0.081l0.093,0.069
	v2.399l-0.093,0.116l-0.116-0.058l-0.081-0.429l-0.44-0.29h-4.114l-0.788,0.614v0.255l-0.104,0.058L357.236,90.315 M366.079,89.063
	l0.707-0.707l0.707,0.707l-0.707,0.696L366.079,89.063z"/>
<path d="M357.004,93.779l0.046-0.533l0.162-0.661l0.313-0.661l1.24-0.22l0.128,0.035l0.023,0.139l-0.116,0.115l-0.638,0.429
	l-0.927,1.553l1.24,1.321c0.602,0,0.707-0.197,1.24-1.461c0.719-1.715,0.962-1.947,1.692-1.947c1.31,0,1.924,1.727,1.924,2.793
	l-0.359,0.638l-0.243-0.047l-0.348-0.116l-0.313-0.301l0.243-0.336l0.348-0.857l-0.858-1.078c-0.475,0-0.684,0.243-1.066,1.287
	c-0.626,1.703-0.939,2.132-1.843,2.132C357.711,96.005,357.004,95.171,357.004,93.779"/>
<path d="M357.236,99.922v-2.329l0.104-0.116l0.116,0.069l0.035,0.417l0.475,0.313h4.114l0.8-0.649v-0.243l0.116-0.081l0.093,0.069
	v2.399l-0.093,0.116l-0.116-0.058l-0.081-0.429l-0.44-0.29h-4.114l-0.788,0.626v0.243l-0.104,0.058L357.236,99.922 M366.079,98.67
	l0.707-0.707l0.707,0.707l-0.707,0.707L366.079,98.67z"/>
<path d="M357.236,107.848v-2.596l0.116-0.057l0.104,0.057v0.267l0.788,0.603h2.283c1.391,0,2.422-0.765,2.422-1.761l-1.414-1.425
	h-3.338l-0.742,0.567v0.244l-0.104,0.057l-0.116-0.046v-2.399l0.104-0.115l0.128,0.115l0.058,0.371l0.44,0.347h5.215l0.209,0.139
	l-0.116,0.162l-0.382,0.383l0.232,0.869l0.07,0.614c0,1.715-1.275,2.735-3.257,2.735h-1.692l-0.788,0.603v0.266l-0.104,0.058
	L357.236,107.848"/>
<path d="M361.93,114.652l0.255-0.765l-0.267-0.405l-1.089,0.22c-1.217,0-2.155-0.788-2.283-2.225l-0.545-0.081l-0.568,0.011
	l-0.185,0.499c0,0.116,0.29,1.901-2.214,1.901c-1.391,0-2.874-1.252-2.874-2.399l0.556-0.614l0.8,1.089l1.518,1.576
	c0.336,0,1.124,0.081,1.171-1.414l0.023-0.962v-0.023l0.151-0.151l0.255,0.011l0.95,0.185l0.974-0.139l0.058-0.417
	c0.22-1.02,1.02-1.657,2.132-1.657c1.275,0,2.399,0.904,2.399,2.445l-0.533,1.611l-0.186,0.267l0.417,1.252l-0.591,0.556
	L361.93,114.652 M360.701,112.774c1.46,0,2.202-0.498,2.202-1.495c0-1.043-0.614-1.495-2.04-1.495c-1.31,0-2.016,0.51-2.016,1.437
	c0,1.008,0.556,1.53,1.715,1.553H360.701z"/>
<path d="M357.132,122.358l0.162-1.124l-0.174-0.174h-1.68l-0.313,0.58v0.173l-0.116,0.232l-0.174-0.348l0.058-1.355l-0.058-1.067
	l0.139-0.162l0.116,0.081l0.058,0.695l0.719,0.313h6.872l0.336-0.603v-0.174l0.116-0.22l0.139,0.347v2.701
	c0,2.411-1.518,3.535-2.99,3.535C358.325,125.789,357.132,124.155,357.132,122.358 M363.112,122.393v-0.359l-0.047-0.835
	l-0.208-0.116h-4.195l-1.194,1.275c0,1.495,1.298,2.399,2.874,2.399C361.663,124.758,363.112,123.807,363.112,122.393z"/>
<path d="M362.602,131.455l-0.348-0.115l-0.313-0.301l0.243-0.336l0.348-0.869c0-0.788-0.591-1.194-2.04-1.194h-2.237l-0.742,0.278
	l-0.058,0.429l-0.093,0.127l-0.128-0.267v-1.507l-0.058-0.741l0.128-0.186l0.093,0.07l0.093,0.579l0.719,0.313h0.707
	c2.492,0,4.288,1.194,4.3,3.129l-0.371,0.626L362.602,131.455"/>
<path d="M357.097,135.593c0-1.808,1.263-3.06,3.059-3.06c1.773,0,3.083,1.321,3.083,3.106c0,1.646-1.356,2.932-3.094,2.932
	C358.372,138.571,357.097,137.285,357.097,135.593 M362.996,135.651c0-1.298-1.078-2.132-2.781-2.132
	c-1.75,0-2.909,0.823-2.909,2.075c0,1.193,1.055,1.97,2.631,1.97C361.953,137.563,362.996,136.914,362.996,135.651z"/>
<path d="M362.799,142.547v-0.173l-0.301-0.58h-7.985l-0.916,0.163l-0.197-0.139l0.058-0.209l0.22-0.567l-0.8-1.82l0.915-1.344
	l0.51,0.498l-0.568,0.684l-0.452,0.719c0,0.324,0.348,1.182,1.541,1.182h7.232l0.718-0.313l0.058-0.695l0.116-0.081l0.139,0.173
	l-0.058,1.055l0.058,1.333l-0.174,0.336L362.799,142.547 M366.079,141.191l0.707-0.707l0.707,0.707l-0.707,0.707L366.079,141.191z"
	/>
<path d="M360.945,148.955v-3.535l-0.371-0.324c-2.468,0-3.361,0.73-3.361,1.877l0.915,1.553l0.649,0.417l0.116,0.127l-0.035,0.139
	l-0.127,0.035l-1.24-0.22l-0.313-0.661l-0.162-0.661l-0.035-0.533c0-1.483,0.95-3.071,3.187-3.071c1.785,0,3.083,1.193,3.083,2.967
	c0,1.205-1.031,2.306-2.086,2.306L360.945,148.955 M363.008,146.904c0-0.95-0.579-1.518-1.646-1.715l-0.07,0.463v2.295l0.336,0.417
	L363.008,146.904z"/>
<path d="M357.016,153.614c0-1.68,1.228-2.827,3.025-2.827c1.379,0,3.315,0.741,3.315,3.291l-0.359,0.637l-0.255-0.047l-0.336-0.115
	l-0.324-0.301l0.255-0.337l0.336-0.799c0-0.591-0.336-1.472-2.179-1.472c-1.692,0-2.955,1.055-2.955,2.422l0.672,1.484l0.104,0.139
	l-0.058,0.058C358.198,155.747,357.016,155.272,357.016,153.614"/>
<polyline points="362.428,161.112 362.358,159.467 362.277,159.189 362.127,159.154 357.873,159.154 357.479,159.699 
	357.479,159.872 357.363,160.104 357.19,159.757 357.248,158.436 357.19,157.369 357.34,157.196 357.456,157.288 357.514,157.972 
	358.233,158.296 362.022,158.296 362.347,157.949 362.382,156.35 362.602,156.222 362.706,156.187 362.915,156.361 362.938,157.949 
	363.077,158.215 364.317,158.215 364.502,158.169 364.607,158.262 364.363,158.505 362.949,159.282 362.961,161.008 
	362.741,161.136 362.648,161.17 362.428,161.112 "/>
<path d="M685.557,101.671v1.808h5.899v3.338c0.093,1.379,0.521,1.715,2.411,1.715c2.828,0,5.134-0.429,5.818-0.939l0.429-1.634
	c-0.162-13.026-0.162-16.028-0.162-23.306c0-5.829,0-10.291,0-17.152c1.796-1.02,2.48-1.541,2.48-2.133l-0.858-1.205
	c-2.654-2.144-3.511-2.747-6.42-4.891c-1.889,2.063-2.492,2.666-4.207,4.717h-5.389v1.808h5.899v16.966h-5.899v1.796h5.899v19.11
	H685.557"/>
<path d="M719.49,47.423c-4.462-3.511-5.829-4.543-10.291-7.799c-3.083,3.175-4.021,4.195-6.93,7.452h-52.974
	c-3.083,0-5.91-0.255-8.321-0.765l0.429,3.001c2.492-0.347,4.381-0.429,7.892-0.429h25.797v54.597h8.564V48.883h35.405L720,48.281
	L719.49,47.423"/>
<path d="M673.203,63.798v-1.807h-4.879c-3.952-2.051-5.227-2.735-9.434-4.717c0.255,4.891,0.348,7.893,0.348,22.46
	c0,12.436,0,14.313-0.174,27.513c0,1.46,0.429,1.808,2.48,1.808c4.81,0,5.922-0.429,5.922-2.318v-3.257h5.737v-1.808h-5.737v-19.11
	h5.737v-1.796h-5.737V63.798H673.203"/>
<path d="M711.691,59.939c-1.286-0.173-3.43-0.347-6.003-0.683c0.348,4.114,0.429,6.084,0.429,8.483v45.685h-52.881v-49.37
	c1.97-1.031,2.573-1.461,2.573-2.063c0-1.112-1.286-1.367-12.261-2.735c0.429,4.195,0.521,7.197,0.521,20.57
	c0,18.856-0.093,26.736-0.429,38.395v0.255c0,1.634,0.684,2.063,3.338,2.063c4.972,0,6.258-0.521,6.258-2.491v-2.828h52.881v3.431
	c0,1.541,0.603,1.97,3.002,1.97c4.891,0,6.687-0.684,6.687-2.573v-0.255c-0.348-11.31-0.429-16.028-0.429-30.433V64.054
	c2.144-0.777,3.083-1.461,3.083-2.237C718.459,60.878,716.999,60.449,711.691,59.939"/>
<path d="M564.671,49.231h26.087l0.939-0.602l-0.51-0.858c-3.871-3.083-5.064-4.033-9.016-6.942c-2.573,2.828-3.43,3.685-5.922,6.606
	h-11.578c-1.982,0-3.778-0.174-5.76-0.695l0.521,2.921C561.576,49.324,562.689,49.231,564.671,49.231"/>
<path d="M604.12,71.794h-7.359c-2.063,0-3.952-0.162-6.096-0.683l0.521,3.001c1.97-0.336,3.43-0.51,5.574-0.51h7.359V71.794"/>
<path d="M589.553,92.481c-2.839-2.237-3.778-2.92-6.861-5.145c-1.912,2.063-2.607,2.839-4.126,4.555v26.423
	c0.081,1.287,0.603,1.542,3.175,1.542s4.543-0.348,5.493-0.858l0.776-1.715c-0.348-10.048-0.348-10.477-0.348-20.594
	c1.97-1.287,2.747-2.063,2.747-2.921L589.553,92.481"/>
<path d="M615.721,75.376v-3.581c0-16.294,0-16.294,0.093-24.28c2.747-0.939,3.685-1.541,3.685-2.317
	c0-1.287-1.46-1.542-14.243-2.492c0.649,3.952,0.684,4.601,0.753,26.076v0.058l0.012,2.955h-0.012v1.808h0.012
	c0.093,2.747,0.093,5.401,0.093,6.096c0,15.865-0.174,26.249-0.603,39.043c0,1.623,0.603,1.889,3.685,1.889
	c3.094,0,5.493-0.348,6.351-0.869l0.776-1.97C615.825,105.519,615.732,96.723,615.721,75.376"/>
<path d="M568.785,114.964V92.018c-3.651-2.132-5.157-2.874-9.445-4.856c0.348,5.575,0.429,8.576,0.429,14.417
	c0,6.003-0.081,9.353-0.336,17.326c0.081,1.46,0.684,1.808,3.604,1.808c4.462,0,5.748-0.521,5.748-2.399V114.964"/>
<rect x="570.674" y="113.156" width="6.003" height="1.808"/>
<path d="M627.472,64.076c-3.002,3.349-3.859,4.381-6.687,7.719h-3.175v1.808h18.195l1.112-0.684l-0.51-0.95
	C632.537,68.458,631.343,67.426,627.472,64.076"/>
<rect x="570.674" y="92.562" width="6.003" height="1.808"/>
<path d="M593.412,60.472l1.031-0.509l-0.521-0.777c-3.685-3.175-4.891-4.033-8.831-7.035c-2.573,2.747-3.349,3.604-5.841,6.525
	h-17.071c-2.237,0-4.207-0.267-6.606-0.777l0.51,3.002c2.144-0.336,3.257-0.429,5.574-0.429H593.412"/>
<path d="M564.671,82.7h24.627l1.02-0.521l-0.429-0.765c-3.512-3.002-4.624-3.952-8.402-6.699c-2.318,2.573-3.094,3.431-5.412,6.177
	h-11.404c-1.982,0-3.604-0.163-5.841-0.591l0.51,2.828C561.495,82.781,562.608,82.7,564.671,82.7"/>
<path d="M564.497,71.366h24.708l0.95-0.509l-0.429-0.684c-3.442-2.921-4.554-3.778-8.24-6.606c-2.41,2.573-3.094,3.431-5.412,6.003
	h-11.404c-2.063,0-4.126-0.174-6.015-0.603l0.522,2.828C561.147,71.459,562.086,71.366,564.497,71.366"/>
<path d="M419.006,50.505h9.955V45.87c2.92-0.765,3.685-1.194,3.685-2.051c0-1.379-1.622-1.808-7.892-2.144
	c-1.367-0.093-3.43-0.267-6.177-0.429c0.348,2.747,0.429,3.94,0.429,5.481V50.505"/>
<rect x="410.859" y="76.084" width="27.363" height="1.795"/>
<path d="M464.401,52.916c-4.207-3.604-5.574-4.728-9.955-7.903c-2.747,3.001-3.604,4.033-6.27,7.382H392.49
	c-1.889,0-4.543-0.255-6.606-0.683l0.684,3.001c1.634-0.255,4.717-0.51,5.922-0.51h18.021c-0.858,4.288-1.715,7.035-3.094,10.465
	c-10.639,0-10.639,0-16.723-0.51c1.622,11.404,1.889,12.435,2.909,12.435c0.776,0,1.379-0.939,2.318-3.604l3.43-0.429
	c0.174,3.176,0.267,6.699,0.267,9.098c0,11.161-0.174,29.61-0.429,37.236v0.521c0,1.205,0.591,1.541,2.828,1.541
	c2.654,0,4.891-0.174,5.748-0.51c0.858-0.267,1.205-0.857,1.205-2.063V75.62c-2.631-1.565-3.952-2.387-5.841-3.489
	c13.559-1.031,27.374-2.921,41.536-5.667c1.715,1.461,3.859,3.605,5.829,6.096c2.411,2.828,2.839,3.176,4.033,3.176
	c1.808,0,3.268-2.921,3.268-6.525c0-5.829-4.636-8.147-24.975-12.608l-0.429,0.776c4.555,2.747,5.574,3.431,9.271,6.432
	c-9.619,0.777-13.907,0.858-29.61,0.858c4.033-3.431,6.177-5.319,11.589-10.465h40.585l0.684-0.603L464.401,52.916"/>
<path d="M451.19,77.022c-3.175-2.399-4.207-3.175-7.556-5.493c-1.53,1.611-2.283,2.318-3.523,3.581v34.524
	c0,0.857-0.162,1.031-1.541,1.031c-4.891-0.174-4.891-0.174-14.324-0.857l-0.093,1.02c6.27,1.634,8.321,2.491,9.781,4.125
	c0.858,0.858,1.553,2.492,1.808,3.859c0.174,1.541,0.348,1.715,1.205,1.715c0.857,0,4.033-0.429,5.319-0.765
	c5.227-1.205,6.942-2.921,7.208-7.557c0-1.379,0-2.491,0-3.257l-0.093-5.319v-22.75c1.715-0.857,2.747-1.796,2.747-2.399
	L451.19,77.022"/>
<rect x="410.859" y="86.721" width="27.363" height="1.797"/>
<rect x="410.859" y="97.963" width="27.363" height="1.797"/>
<path d="M529.231,52.059c0.857,2.237,0.939,2.492,1.46,2.921l1.46,0.522c2.399,0,4.636-2.747,4.636-5.587
	c0-2.051-1.379-3.511-4.3-4.543c-1.796-0.603-3.859-1.031-8.066-1.541l-0.255,0.684C526.658,46.832,527.944,48.721,529.231,52.059"
	/>
<path d="M485.737,63.566h-0.012v-6.432c-3.929-2.271-5.516-3.094-9.874-5.157c0.255,5.239,0.348,7.464,0.348,13.814
	c0,17.256-0.522,26.088-1.889,33.991c-1.379,7.811-3.094,12.865-6.78,20.502l0.765,0.521c3.604-3.604,5.064-5.412,6.953-8.066
	c3.778-5.319,6.525-11.671,8.066-18.021C485.412,86.096,485.725,70.81,485.737,63.566"/>
<path d="M548.11,90.511l-0.939-0.255c-3.871,7.893-5.157,10.21-8.843,16.04c-5.574-4.717-7.382-6.78-10.21-11.323
	c4.717-6.699,7.29-11.844,11.068-22.228c2.92-0.429,3.778-0.858,3.778-1.715c0-1.031-2.237-1.889-12.273-4.809
	c-0.684,5.922-2.839,12.365-6.699,19.91c-2.225-6.606-3.257-14.069-3.778-26.597h26.528l0.765-0.429l-0.336-0.777
	c-3.871-3.175-5.064-4.114-9.016-7.127c-2.318,3.013-3.002,3.952-4.972,6.525h-13.049c-0.081-2.573-0.081-3.349-0.081-4.369
	c0-1.205,0.081-3.349,0.162-6.953c2.237-0.777,2.92-1.287,2.92-2.063c0-1.113-0.857-1.287-12.875-2.318
	c0.429,2.921,0.521,4.207,0.695,10.21c0,1.808,0.081,3.002,0.255,5.493h-23.595v1.808h23.677
	c1.112,16.816,3.175,27.119,7.208,35.949c-6.606,9.701-13.385,16.051-24.801,23.434l0.429,0.857
	c9.016-3.175,13.478-5.575,19.736-10.21c2.92-2.318,5.412-4.462,8.333-7.383c2.144,3.349,4.369,6.096,7.116,8.924
	c5.412,5.493,9.793,8.321,13.049,8.321c2.573,0,4.717-2.225,4.717-5.053c0-1.286-0.429-2.411-1.205-3.349
	c-1.622-1.715-1.622-1.715-1.622-2.491l0.336-2.144L548.11,90.511"/>
<path d="M502.541,104.152c1.97-3.337,3.094-10.29,4.033-25.658c2.237-1.193,2.747-1.715,2.747-2.317l-0.939-1.368
	c-3.013-2.237-3.952-2.921-6.954-4.983c-1.982,2.237-2.584,2.921-4.462,5.239h-9.584l-0.081,1.808h10.349
	c-0.081,6.605-0.857,15.008-1.634,19.134c-0.51,2.92-1.113,3.511-3.002,3.511c-1.367,0-3.175-0.162-9.526-0.684l-0.174,1.031
	c5.586,1.889,7.127,3.523,7.209,7.731c0,1.193,0.348,1.541,1.286,1.541l2.584-0.255
	C498.334,108.185,501.081,106.644,502.541,104.152"/>
<path d="M173.061,90.847c4.624-6.525,7.973-12.864,11.404-21.358c2.573-6.432,3.859-10.72,4.543-15.599
	c3.083,0.939,5.401,1.623,6.861,2.051c5.829,1.541,7.197,2.237,7.197,3.175c0,0.857-1.194,1.367-4.114,1.715
	c-3.685,7.545-6.861,12.435-11.74,18.264c-3.604,4.369-6.861,7.371-13.385,12.435L173.061,90.847 M174.521,119.658
	c17.569-5.412,28.799-11.148,38.835-19.818c8.657-7.451,14.231-14.996,18.183-24.522c11.659,5.145,12.435,5.575,12.435,6.699
	c0,0.857-0.95,1.286-2.92,1.286h-1.541c-5.146,7.881-8.402,11.74-13.722,16.631c-12.864,11.739-27.872,17.916-50.842,20.918
	L174.521,119.658z M208.466,51.062c0-3.175-0.081-5.065-0.51-8.831c2.828,0.336,5.064,0.591,6.513,0.765
	c5.922,0.684,7.382,1.113,7.382,2.237c0,0.765-1.031,1.367-3.685,1.877v28.046c0,1.622,0,2.225,0.081,11.484
	c-0.174,3.685-0.939,5.319-3.512,6.942c-2.063,1.287-6.003,2.411-8.576,2.411c-1.031,0-1.124-0.174-1.379-1.634
	c-0.336-2.063-1.367-3.778-3.164-5.065c-1.982-1.449-4.288-2.306-10.117-3.685l0.081-1.194c7.892,0.765,9.689,0.939,15.437,1.113
	h0.336l1.113-1.46V51.062z M226.394,55.176c9.943,3.686,15.17,6.166,19.713,9.434c3.002,2.051,4.288,4.369,4.288,7.452
	c0,3.859-2.051,7.811-4.195,7.811c-0.858,0-1.46-0.521-2.225-1.889c-1.982-3.175-4.462-6.942-6.699-9.781
	c-4.276-5.655-6.942-8.402-11.485-12.168L226.394,55.176z"/>
<path d="M278.615,65.722c-4.636,11.323-6.954,16.214-13.038,27.026l-0.522,1.379l1.46,1.286c1.379,0.255,5.065,0.591,6.177,0.591
	c1.634,0,2.411-0.429,3.175-1.97c1.286-2.399,1.808-3.257,2.666-4.972l0.858-1.715c3.257-6.873,6.606-14.59,9.179-21.626
	l0.684-1.796c3.002-7.637,3.778-9.874,5.574-16.051c3.175-0.51,4.288-1.031,4.288-1.97c0-1.113-0.846-1.379-13.64-3.685
	c-1.367,7.289-3.175,13.64-6.258,21.706h-13.814c-3.523,0-5.829-0.267-9.352-0.951l0.603,3.349c2.92-0.429,5.227-0.603,8.495-0.603
	H278.615"/>
<path d="M326.49,56.369c-3.083,3.176-4.033,4.207-7.116,7.557h-28.08l-0.684,1.796h16.839c-1.808,10.384-5.493,19.563-10.813,26.852
	c-4.149-1.46-10.28-3.326-15.46-4.74l-0.962,1.959c4.821,2.097,8.611,4.033,13.154,6.733c-3.685,4.114-7.8,7.637-12.945,10.894
	c-6.606,4.207-12.702,6.953-23.688,10.732l0.267,1.019c11.659-1.622,17.836-3.175,25.044-6.084
	c7.208-3.002,12.957-6.699,18.45-11.925c6.953,4.798,12.099,9.179,16.816,14.069c3.685,3.94,3.859,4.033,5.146,4.033
	c1.808,0,3.43-3.175,3.43-6.779c0-3.685-1.031-5.749-4.033-7.985c-2.909-2.225-9.26-5.481-16.642-8.576
	c3.697-4.717,6.525-9.781,8.75-15.784c1.715-4.555,2.492-7.556,3.778-14.417h17.928l1.031-0.603l-0.51-0.939
	C332.157,60.658,330.871,59.626,326.49,56.369"/>
<path d="M156.917,72.49c-2.156,2.399-4.392,4.891-6.791,7.649h-11.265v-32.67c3.094-1.286,3.616-1.622,3.616-2.399l-1.124-1.124
	c-0.939-0.255-1.541-0.336-12.551-1.368c0.475,3.825,0.661,5.969,0.684,9.365h0.012V80.14h-15.043c-2.063,0-3.616-0.174-6.026-0.777
	l0.603,3.095c1.901-0.348,3.442-0.51,5.424-0.51h11.948c-1.124,5.922-4.473,17.268-7.139,24.407c-2.063,0-3.094,0-3.871,0
	c-2.144,0-3.604,0-7.127-0.174c3.002,12.47,3.43,14.011,4.462,14.011c0.869,0,1.379-1.113,1.727-3.778
	c27.849-6.455,27.93-6.455,37.039-9.202c1.298,2.921,2.063,4.821,2.839,7.394c1.031,3.175,1.808,4.207,3.094,4.207
	c2.839,0,6.015-4.809,6.015-9.016c0-2.585-1.46-4.995-5.157-8.855c-4.033-4.219-7.823-6.965-16.584-11.948l-0.776,0.765
	c4.045,4.902,6.189,8.251,9.202,14.452c-7.915,0.857-15.819,1.46-26.91,1.97c3.349-4.555,5.157-7.22,7.22-10.569
	c2.237-3.616,6.015-10.663,7.394-13.664h28.37l0.939-0.603l-0.51-0.869C162.503,76.79,161.205,75.759,156.917,72.49"/>
<path d="M101.301,99.133c0-1.124,0.348-2.747,1.205-5.412l11.52-36.703l-1.124-0.347c-2.921,7.22-4.81,11.426-8.078,18.218
	c-3.175,6.617-7.139,14.533-8.333,16.77c-1.031,1.97-1.808,2.665-3.013,2.665c-0.95,0-0.95,0-6.362-1.031l-0.174,1.113
	c3.094,1.113,4.3,1.715,5.25,2.747c1.205,1.298,1.796,3.094,1.796,5.505c0,2.839-0.591,7.997-1.286,11.867l-0.336,2.828
	c0,1.461,1.031,2.411,2.747,2.411c4.902,0,8.854-4.381,8.854-9.712c0-2.063-0.429-3.697-1.889-7.649
	C101.556,100.849,101.301,99.91,101.301,99.133"/>
<path d="M96.828,79.015c2.758,0,5.679-3.604,5.679-6.953c0-4.219-4.218-6.884-15.472-9.712l-0.348,0.765
	c3.616,4.125,5.076,6.536,6.965,11.612C95.02,78.586,95.367,79.015,96.828,79.015"/>
<path d="M119.867,62.256h7.73v-1.807h-7.649c-1.97,0-3.094-0.163-5.331-0.684l0.521,3.013
	C116.854,62.35,117.885,62.256,119.867,62.256"/>
<path d="M140.75,62.256h23.039l0.858-0.509l-0.51-0.869c-4.045-3.523-5.25-4.462-9.55-7.73c-2.747,3.013-3.604,4.045-6.362,7.301
	h-7.475V62.256"/>
<path d="M103.445,60.194c2.492,0,5.331-3.523,5.331-6.791c0-4.461-3.952-6.872-16.155-9.711l-0.429,0.683
	c4.381,4.567,6.015,7.221,8.506,13.328C101.475,59.592,102.077,60.194,103.445,60.194"/>
<line x1="62.593" y1="95.217" x2="62.593" y2="89.121"/>
<line x1="62.593" y1="87.324" x2="62.593" y2="81.831"/>
<path d="M62.593,81.831v15.958c0.174,0.684,0.521,0.858,2.144,0.858c2.747,0,4.972-0.255,5.748-0.603l0.684-1.205
	c-0.255-9.005-0.255-9.086-0.255-13.722c2.144-1.193,2.573-1.541,2.573-2.225l-0.858-1.193c-1.889-1.205-4.114-2.665-6.606-4.381
	c-1.541,1.692-2.237,2.411-3.43,3.755V81.831"/>
<path d="M30.19,97.963c-0.429,4.022-2.144,7.881-4.891,11.404c-3.94,4.798-8.495,7.545-17.581,10.547l0.348,1.02
	c8.657-0.939,14.66-2.654,19.551-5.656c5.053-3.083,8.657-7.197,11.137-12.945c2.411-0.683,2.747-0.857,2.747-1.46
	C41.501,100.015,38.847,99.239,30.19,97.963"/>
<path d="M28.903,95.217V79.746c-3.5-1.483-4.786-2.028-8.576-3.569c0.255,2.747,0.255,3.685,0.255,7.811
	c0,8.831,0,10.883-0.255,14.996c0.081,1.205,0.51,1.461,2.225,1.461c4.972,0,6.084-0.255,6.351-1.541V95.217"/>
<path d="M79.235,111.673c-1.286-0.429-1.634-0.857-1.634-2.653l0.093-0.522l0.417-10.535l-0.846-0.093
	c-2.665,8.495-4.126,12.435-4.983,13.466c-1.02,1.194-3.002,1.449-12.342,1.449c-1.113,0-2.144,0-4.369,0l0.591-1.796
	c6.351-1.97,6.525-1.97,10.639-3.605l0.684,1.889c0.429,1.287,0.939,1.889,1.634,1.889c1.286,0,2.573-1.971,2.573-3.859
	c0-1.971-1.982-3.431-7.208-5.32l-0.603,0.603c1.205,1.287,1.541,1.797,2.237,3.176c-1.808,0.173-2.237,0.255-5.319,0.429
	c-0.776,0-1.97,0.081-3.512,0.174c1.286-1.032,1.449-1.287,3.685-3.431l1.194-1.205c1.97-0.347,2.573-0.603,2.573-1.031
	c0-0.603,0-0.603-7.718-2.307c-0.162,2.735-0.765,5.308-1.622,8.055h-0.858l-2.063-0.081c0.95,3.766,1.541,5.91,1.715,6.42
	c-3.257-0.081-3.338-0.081-3.338-1.703V97.013h9.851v-1.797H49.312v-6.096h11.392v-1.796H49.312v-5.493h11.392v-1.797H43.216
	c1.113-0.683,1.46-0.857,3.094-2.144l1.541-1.193c2.654-0.348,3.164-0.522,3.164-1.125c0-0.683-0.081-0.683-7.626-2.051
	c4.462-2.237,7.035-4.033,10.975-7.545l-0.081,3.512c-0.093,2.573-0.174,3.43-0.266,5.922c0.174,1.02,0.348,1.113,2.318,1.113
	c3.778,0,4.972-0.348,5.146-1.541v-3.175c0-0.684,0-1.715,0-3.431l-0.255-6.687c2.492,5.053,4.543,7.8,8.054,10.894
	c2.144,1.877,5.146,3.767,6.003,3.767l0.776-0.857c0.858-3.257,2.225-4.972,4.798-6.003v-0.684
	c-8.657-0.939-14.058-3.257-18.774-8.066h16.202l0.858-0.429l-0.429-0.765c-2.735-2.491-3.685-3.257-6.861-5.748
	c-2.051,2.318-2.654,3.001-4.543,5.145h-5.829V56.37c2.237-0.777,2.92-1.113,2.92-1.715l-0.95-0.857
	c-0.858-0.336-1.286-0.336-9.596-1.031c0.255,1.634,0.255,1.981,0.255,4.125v2.051h-6.177c-2.144-1.97-2.828-2.573-5.146-4.462
	c-1.367,1.542-2.654,3.095-3.859,4.462h-4.717V56.37c2.237-0.51,3.094-0.939,3.094-1.623c0-0.776-1.379-1.124-5.748-1.46
	c-1.113-0.093-2.828-0.255-4.891-0.429c0.255,1.97,0.348,3.001,0.348,4.195v1.889h-4.891c-2.654,0-3.94-0.081-5.829-0.603
	l0.429,2.921c1.715-0.347,3.175-0.521,5.401-0.521h3.002c-2.225,5.412-5.053,9.526-9.862,14.405
	c0.093-3.431,0.093-3.767,0.174-8.565c0-1.715,0.081-5.319,0.174-9.781c0-2.144,0-3.001,0-5.655v-2.422
	c-3.627-2.017-5.25-2.851-9.781-5.041c0.429,7.637,0.603,15.008,0.603,27.176c0,24.87-1.541,36.795-6.432,49.393l0.858,0.521
	C10.801,109.1,13.977,99.412,15.182,76.35c5.146-2.654,8.657-5.319,12.087-9.179l-0.081,4.114c-0.174,3.002-0.174,3.002-0.174,4.288
	c0.081,0.951,0.429,1.205,2.144,1.205c4.114,0,5.053-0.255,5.319-1.541l-0.174-8.495c0-1.368,0-1.971-0.093-2.909
	c1.553,1.032,2.665,2.399,4.033,4.972c1.113,2.051,1.286,2.318,2.144,2.318c1.634,0,3.175-1.889,3.175-4.033
	c0-2.654-1.715-3.511-9.352-4.543v-1.808h17.233c-3.848,6.177-7.116,9.689-12.771,13.814l0.429,0.765l1.205-0.51
	c-0.695,2.654-1.031,3.685-1.715,5.227h-7.799v1.797h10.372v5.493H30.792v1.796h10.372v6.096H30.792v1.797h11.995v16.549
	c0,2.399,0.255,3.431,1.205,4.207c1.112,1.113,3.002,1.542,6.513,1.542c2.573,0,6.351,0,11.068,0.081h1.449
	c9.434,0,14.243-0.336,16.213-1.286c1.715-0.765,2.573-1.971,2.573-3.431C81.808,113.052,81.113,112.195,79.235,111.673"/>
<path d="M79.745,51.143l1.031-0.602l-0.521-0.777c-4.114-3.164-5.401-4.115-9.689-7.023c-2.573,2.828-3.338,3.685-5.829,6.595H46.31
	v-3.941c2.735-0.857,3.419-1.287,3.419-1.97c0-1.031-1.704-1.379-7.116-1.808c-1.368-0.081-3.419-0.255-6.165-0.51
	c0.336,2.225,0.429,3.257,0.429,5.145v3.083H17.5v1.807H79.745"/>
</svg>
