<?xml version="1.0" encoding="utf-8"?>
<!-- Generator: Adobe Illustrator 27.0.1, SVG Export Plug-In . SVG Version: 6.00 Build 0)  -->
<svg version="1.1" id="레이어_1" xmlns="http://www.w3.org/2000/svg" xmlns:xlink="http://www.w3.org/1999/xlink" x="0px"
	 y="0px" viewBox="0 0 720 209.913" enable-background="new 0 0 720 209.913" xml:space="preserve">
<path fill="#443329" d="M720,76.203l-25.68-4.985l-0.146-5.801l-33.279-0.125l-17.82-21.081l-31.647,34.752l11.674,9.198
	l-5.456,12.626l-19.587,8.445l-11.612-47.817l-47.848,18.96l6.678,13.012l-8.936-5.707l2.09-9.918l-49.092-3.366l2.331,20.119
	l-25.523,24.279L493.96,31.94l-51.966-10.776L430.8,80.802l-1.578,0.627l-8.455-46.97l-47.587,6.898l18.782,74.092
	c-3.606-0.93-7.138-1.421-10.525-1.421c-20.621,0-29.035,10.337-29.035,10.337c-4.358,5.132-8.549-2.665-8.393-9.772
	c3.804-6.553,7.609-14.925,10.786-23.757l3.564-9.887l-37.052-13.587l-3.752,9.678c-2.32,5.958-5.863,13.42-9.846,20.977
	l-38.891-8.999l-2.55,10.034c-2.425,9.469-6.741,19.127-11.016,24.572l-1.808,2.31v-29.61h12.929V43.238H220.47v-9.103h-39.832
	v9.103h-42.413v0.084h-16.608l1.411-6.908l-50.639-0.168l0.585,7.076H13.18V82.38h23.872v0.147H16.953v31.92l-11.152,0.104
	l8.905,44.452l10.076-1.463l-10.953,8.225c12.615,9.302,33.331,13.629,41.358,13.629c23.903,0,44.305-9.835,60.766-29.276
	c7.128,4.369,18.102,10.63,22.116,12.595l2.582,1.275l-7.013,13.336c0,0,26.464-4.746,39.947-14.518l0.888,1.745
	c7.797,15.197,22.743,24.646,39.016,24.646h10.577v-34.261c2.477,5.477,4.505,10.828,5.947,15.782l4.034,13.964l33.968-22.963
	c5.623,6.46,10.588,12.971,13.138,17.413l5.278,9.219l36.654-21.259l-6.511-9.355l3.188-4.149l0.178,0.177
	c4.735,4.463,10.859,6.909,17.245,6.909c3.898,0,7.703-0.868,11.34-2.592l1.39-0.69l0.167-0.094l0.115-0.063
	c1.787,5.947,5.299,11.528,10.421,16.231l3,2.561l12.448,7.724l4.735-5.383l2.738,0.387c0.418,0.052,1.923,0.23,4.108,0.23
	c11.183,0,20.287-4.379,25.753-12.051l8.884,37.292l35.902-39.079l17.381,16.754l23.84-24.603l36.362,26.986l20.245-17.715
	l7.755,15.165l50.305-33.488l18.468,38.975l83.049-53.596l-7.651-13.315L720,76.203"/>
<polyline fill="#443329" points="388.679,45.914 383.025,51.391 389.118,56.376 382.513,60.651 387.509,66.734 380.182,69.619 
	383.892,76.558 376.148,77.97 378.437,85.505 370.567,85.38 371.35,93.208 363.658,91.557 362.895,99.385 355.673,96.26 
	353.394,103.796 346.924,99.302 343.214,106.252 337.737,100.598 332.752,106.691 328.477,100.075 322.394,105.081 319.51,97.766 
	312.559,101.465 311.159,93.721 303.623,96.02 303.749,88.139 295.92,88.923 297.572,81.231 289.733,80.468 292.868,73.246 
	285.333,70.967 289.816,64.497 282.876,60.787 288.531,55.3 282.427,50.325 289.043,46.04 284.036,39.967 291.363,37.072 
	287.653,30.132 295.397,28.721 293.109,21.185 300.989,21.321 300.195,13.483 307.898,15.134 308.65,7.305 315.873,10.431 
	318.161,2.895 324.631,7.389 328.341,0.439 333.818,6.093 338.804,0 343.068,6.616 349.161,1.609 352.046,8.946 358.986,5.226 
	360.397,12.97 367.922,10.692 367.807,18.551 375.635,17.767 373.974,25.47 381.813,26.233 378.687,33.445 386.223,35.734 
	381.739,42.204 388.679,45.914 "/>
<polyline fill="#443329" points="80.991,63.828 72.88,68.364 79.151,75.211 70.1,77.269 74.176,85.61 64.916,85.035 66.484,94.191 
	57.746,91.034 56.68,100.263 49.186,94.755 45.559,103.315 39.926,95.926 34.042,103.106 30.697,94.441 23.025,99.667 
	22.283,90.407 13.441,93.261 15.333,84.168 6.041,84.418 10.41,76.224 1.432,73.852 7.933,67.236 0,62.418 8.1,57.881 1.829,51.035 
	10.88,48.977 6.804,40.626 16.075,41.2 14.507,32.045 23.245,35.201 24.311,25.972 31.794,31.48 35.432,22.921 41.065,30.31 
	46.949,23.129 50.294,31.794 57.966,26.568 58.707,35.828 67.55,32.975 65.658,42.068 74.95,41.817 70.581,50.011 79.559,52.394 
	73.047,59.021 80.991,63.828 "/>
<polyline fill="#443329" points="711.105,147.15 703.015,151.686 709.287,158.532 700.225,160.591 704.301,168.942 695.03,168.357 
	696.609,177.512 687.871,174.356 686.805,183.585 679.311,178.087 675.684,186.637 670.051,179.248 664.156,186.438 
	660.822,177.763 653.14,182.989 652.398,173.739 643.556,176.593 645.447,167.489 636.166,167.75 640.535,159.556 631.557,157.174 
	638.068,150.547 630.125,145.729 638.225,141.203 631.954,134.357 641.005,132.287 636.94,123.947 646.2,124.533 644.632,115.377 
	653.37,118.533 654.435,109.304 661.919,114.792 665.556,106.253 671.19,113.642 677.074,106.462 680.419,115.126 688.09,109.9 
	688.832,119.15 697.675,116.307 695.793,125.4 705.064,125.149 700.705,133.343 709.683,135.705 703.172,142.342 711.105,147.15 "/>
<polyline fill="#443329" points="471.52,172.338 463.19,176.446 469.106,183.605 459.95,185.194 463.587,193.734 454.358,192.678 
	455.445,201.896 446.896,198.29 445.339,207.446 438.148,201.561 434.072,209.913 428.835,202.241 422.575,209.107 419.7,200.276 
	411.767,205.094 411.506,195.803 402.528,198.196 404.89,189.218 395.609,188.978 400.396,181.024 391.554,178.192 398.4,171.91 
	390.728,166.684 399.048,162.587 393.142,155.417 402.288,153.828 398.661,145.279 407.89,146.345 406.803,137.127 415.352,140.732 
	416.899,131.577 424.09,137.451 428.177,129.11 433.413,136.782 439.673,129.915 442.548,138.736 450.481,133.928 450.742,143.209 
	459.72,140.837 457.358,149.815 466.639,150.045 461.852,157.999 470.694,160.842 463.849,167.112 471.52,172.338 "/>
<path fill="#F08A1A" d="M373.504,170.478l-4.327-3.574c-8.435-6.95-11.622-16.305-8.748-25.648
	c4.264-14.016,15.719-19.66,30.613-15.103c6.396,1.955,11.361,5.424,14.361,10.023c2.446,3.752,4.776,10.149,1.976,19.284
	c-4.662,15.239-22.409,12.813-22.409,12.813s9.386-7.117,12.103-15.96c2.415-7.912-0.679-13.253-9.177-15.845
	c-9.198-2.822-14.653-0.303-17.183,7.933c-1.077,3.533-0.595,6.877,1.432,9.971l11.758-15.625l8.612,6.511L373.504,170.478"/>
<path fill="#F08A1A" d="M290.329,173.864c-4.578-7.985-15.667-21.467-25.889-31.344l-6.02-5.801l5.152-6.574
	c5.195-6.616,10.18-17.632,12.939-28.492l18.05,4.181c-2.467,9.856-6.355,19.628-11.016,27.676l-0.773,1.338l1.118,1.045
	c9.125,8.477,16.169,16.629,23.956,27.812L290.329,173.864"/>
<path fill="#E74883" d="M337.184,150.097c-3.732,0-7.191-1.39-9.992-4.023l-0.167-0.199c-2.059-2.508-3.689-5.414-4.881-8.654
	l-1.317-3.595l-2.101,3.209c-2.237,3.407-4.358,6.418-6.334,8.988l-14.476-11.538c9.511-12.532,23.36-37.616,29.495-53.419
	l17.434,6.396c-3.679,10.201-8.298,19.848-12.511,26.087l-0.763,1.118l0.805,1.098c2.111,2.906,3.972,7.515,4.745,11.758
	c0.376,2.048,2.508,5.947,5.905,7.808c1.651,0.888,3.491,1.338,5.466,1.338c2.393,0,5.707-0.679,9.647-3.23
	c-3.898,7.379-8.079,12.04-13.085,14.748l-1.087,0.544C341.783,149.575,339.494,150.097,337.184,150.097"/>
<polyline fill="#E74883" points="429.493,105.74 427.581,93.47 421.101,96.062 412.164,46.395 386.317,50.137 405.486,125.786 
	429.493,105.74 "/>
<polyline fill="#E74883" points="475.314,166.976 498.265,143.273 535.223,170.708 548.654,158.95 491.305,109.482 453.219,145.686 
	475.314,166.976 "/>
<polyline fill="#E74883" points="588.841,116.087 579.037,75.722 553.336,85.913 572.337,122.954 588.841,116.087 "/>
<polyline fill="#F08A1A" points="480.3,39.904 450.397,33.717 427.487,155.887 421.331,154.591 427.957,182.403 448.296,160.267 
	442.182,158.981 480.3,39.904 "/>
<polyline fill="#F08A1A" points="519.138,118.136 525.576,87.471 501.318,85.819 504.976,117.394 519.138,118.136 "/>
<polyline fill="#F08A1A" points="530.896,133.008 553.817,111.405 531.367,97.044 519.765,126.33 530.896,133.008 "/>
<polyline fill="#F08A1A" points="567.781,166.349 620.384,131.336 612.472,114.53 554.172,139.677 567.781,166.349 "/>
<polyline fill="#F08A1A" points="684.495,101.674 683.857,75.963 667.281,75.901 671.911,103.221 684.495,101.674 "/>
<polyline fill="#F08A1A" points="706.789,84.418 690.546,81.252 687.431,108.834 699.681,110.423 706.789,84.418 "/>
<polyline fill="#E74883" points="663.268,84.502 642.771,60.244 626.906,77.688 650.454,96.219 663.268,84.502 "/>
<polyline fill="#E74883" points="656.976,105.437 633.71,90.303 624.554,111.447 650.589,120.561 656.976,105.437 "/>
<polyline fill="#E74883" points="621.722,139.687 636.94,171.795 701.417,130.186 690.201,110.652 621.722,139.687 "/>
<path fill="#A5CC43" d="M135.225,71.803h6.448V53.889h-33.111c0.533-2.226,1.035-4.525,1.526-6.94l-26.213-0.094
	c1.003,12.061,0,47.033-5.194,62.585c11.998-12.876,19.346-23.819,24.561-37.637h13.305c-0.481,12.323-3.219,24.259-7.943,35.348
	c-2.331-2.613-4.609-5.456-6.762-8.56L86.31,108.52c3.742,5.394,8.132,10.577,12.981,15.375
	c-17.036,23.58-35.275,39.989-67.351,41.933c32.265,7.776,59.679,1.264,81.586-29.861l0.031,0.031
	c5.153,3.721,21.52,13.326,27.049,16.033l8.497-15.939c-3.219-1.588-19.795-10.974-26.161-15.761
	C130.406,105.364,134.66,88.902,135.225,71.803"/>
<rect x="173.959" y="77.468" fill="#A5CC43" width="56.68" height="17.914"/>
<path fill="#A5CC43" d="M240.171,167.782l20.203-13.671c-10.849-12.834-22.837-21.405-41.817-30.342
	C228.705,138.507,236.45,154.937,240.171,167.782"/>
<path fill="#A5CC43" d="M190.034,133.218l-16.169-10.336c-5.341,13.023-13.148,29.359-20.955,38.975
	C169.068,154.79,179.948,146.157,190.034,133.218"/>
<polyline fill="#A5CC43" points="167.479,71.719 237.119,71.719 237.119,85.746 255.796,85.746 255.796,53.816 209.892,53.816 
	209.892,44.702 191.215,44.702 191.215,53.816 148.812,53.816 148.812,86.039 167.479,86.039 167.479,71.719 "/>
<path fill="#A5CC43" d="M66.296,121.156v-20.234h7.264V83.008h-7.264V71.803h11.758V53.889H23.757v17.914h23.872v51.674
	c-1.202,0.105-2.404,0.219-3.606,0.334V93.093H27.53v31.711c-2.979,0.115-5.916,0.177-8.8,0.209l4.588,22.429
	c21.249-4.358,46.803-14.308,65.334-30.686C81.492,118.512,73.956,119.965,66.296,121.156"/>
<path fill="#A5CC43" d="M161.438,99.855v17.915h33.372v41.943h-10.933c5.508,10.744,16.597,18.907,29.61,18.907v-60.85h29.38V99.855
	H161.438"/>
<polyline fill="#FFFFFF" points="305.902,43.98 307.229,52.311 304.365,52.76 303.958,49.123 303.884,49.134 303.08,52.958 
	301.47,53.22 299.568,49.854 299.505,49.865 300.206,53.418 297.352,53.868 296.035,45.548 299.787,44.953 301.355,47.796 
	301.449,47.785 302.15,44.587 305.902,43.98 "/>
<path fill="#FFFFFF" d="M314.963,43.782l1.129,7.107l-2.968,0.47l-0.617-0.146l-1.39,0.637c-0.961,0.157-1.683-0.01-2.153-0.501
	c-0.575-0.607-0.982-1.652-1.212-3.115l-0.084-1.766l0.418-1.222l1.745-0.91l2.331,0.021
	C313.103,44.43,314.043,44.242,314.963,43.782 M311.023,46.823l-0.742,1.349l1.139,1.254l0.606-0.387l0.073-1.15l-0.397-0.941
	L311.023,46.823z"/>
<path fill="#FFFFFF" d="M322.332,42.893l0.324,2.101l-1.902,0.156l-1.181,0.262l-0.115,0.376l0.209,0.303h0.47l1.745-0.178
	l1.045,0.46l0.449,1.16c0.178,1.087-0.073,1.84-0.731,2.268l-2.059,0.638c-0.982,0.157-2.028,0.209-3.156,0.157l-0.282-1.766
	c0.982-0.052,1.86-0.136,2.634-0.251l0.502-0.156l0.115-0.376l-0.188-0.303l-0.47-0.021l-0.742,0.126l-1.735-0.147l-0.836-1.714
	c-0.167-1.003,0.021-1.724,0.554-2.132c0.439-0.334,1.192-0.575,2.237-0.753C319.949,42.988,320.983,42.925,322.332,42.893"/>
<path fill="#FFFFFF" d="M331.195,41.201l1.129,7.128l-2.979,0.47l-0.617-0.157l-1.38,0.638c-0.972,0.156-1.693-0.011-2.164-0.491
	c-0.575-0.628-0.982-1.652-1.212-3.125l-0.084-1.756l0.428-1.233l1.746-0.91l2.32,0.021
	C329.334,41.869,330.264,41.671,331.195,41.201 M327.244,44.242l-0.742,1.359l1.139,1.244l0.606-0.376l0.073-1.15l-0.387-0.941
	L327.244,44.242z"/>
<path fill="#FFFFFF" d="M333.735,41.022l1.599-0.47c0.522-0.376,1.328-0.324,2.414,0.147l2.069-0.46l1.923-0.951
	c0.972-0.157,1.651,0,2.038,0.48l0.428,0.983l0.115,0.459l0.805,5.101l-2.958,0.47l-0.543-3.428l-0.24-0.679l-0.544-0.177
	l-0.512,0.93l0.565,3.543l-2.958,0.47l-0.554-3.47l-0.199-0.596l-0.544-0.198l-0.564,0.93l0.554,3.553l-2.958,0.471l-1.129-7.128
	L333.735,41.022"/>
<path fill="#FFFFFF" d="M352.454,37.824l0.669,4.254l0.104,1.171l-0.272,1.076l-0.857,0.815l-2.038,0.69
	c-1.463,0.23-2.55,0.041-3.24-0.596c-0.376-0.335-0.648-1.003-0.815-2.028l-0.669-4.243l2.958-0.47l0.585,3.574l0.157,0.586
	l0.575,0.262l0.481-0.418l-0.031-0.606l-0.575-3.595L352.454,37.824"/>
<path fill="#FFFFFF" d="M354.638,37.584c1.254-0.084,2.362-0.303,3.355-0.647c1.129-0.471,2.09-0.418,2.906,0.167l0.679,1.474
	l0.795,4.996l-2.958,0.47l-0.512-3.345l-0.115-0.491l-0.387-0.47l-0.418-0.021l-0.606,0.366l-0.115,0.7l0.554,3.512l-2.906,0.46
	l-1.129-7.138L354.638,37.584"/>
<path fill="#FFFFFF" d="M370.128,40.219l-0.084,1.871c-1.16,0.47-2.174,0.773-3.021,0.909c-1.348,0.219-2.362,0-3.021-0.627
	c-0.554-0.533-0.93-1.411-1.118-2.634c-0.219-1.359-0.042-2.351,0.502-2.968l1.212-0.773l1.317-0.303l2.049-0.052l1.62,1.191
	l0.481,1.766l0.105,1.025l-4.212,0.679l0.282,0.565l1.442,0.136C368.361,40.898,369.177,40.636,370.128,40.219 M367.651,38.441
	l-0.146-0.522l-1.035-0.324l-0.847,0.544l-0.032,0.627L367.651,38.441z"/>
<polyline fill="#FFFFFF" points="370.483,37.646 373.629,37.145 373.963,39.257 370.817,39.758 370.483,37.646 "/>
<polyline fill="#FFFFFF" points="321.444,52.467 322.008,56.147 322.102,56.136 323.095,53.889 326.304,53.377 324.913,57.16 
	327.161,60.348 324.192,60.818 322.394,58.174 322.311,58.174 322.802,61.038 319.917,61.498 318.559,52.927 321.444,52.467 "/>
<path fill="#FFFFFF" d="M334.215,51.914l0.669,4.254l0.104,1.16l-0.272,1.087l-0.847,0.815l-2.038,0.679
	c-1.474,0.24-2.561,0.031-3.25-0.585c-0.376-0.335-0.648-1.014-0.805-2.028l-0.679-4.254l2.958-0.47l0.575,3.584l0.178,0.586
	l0.565,0.24l0.491-0.408l-0.042-0.596l-0.575-3.595L334.215,51.914"/>
<path fill="#FFFFFF" d="M336.4,51.662c1.244-0.073,2.362-0.292,3.365-0.637c1.108-0.47,2.08-0.418,2.895,0.167l0.679,1.463
	l0.795,5.006l-2.958,0.47l-0.522-3.355l-0.094-0.502l-0.387-0.459l-0.418-0.011l-0.617,0.366l-0.105,0.69l0.544,3.522l-2.895,0.46
	l-1.139-7.149L336.4,51.662"/>
<polyline fill="#FFFFFF" points="346.068,52.509 344.939,52.687 344.144,49.53 345.869,49.269 346.068,52.509 "/>
<path fill="#FFFFFF" d="M353.499,49.154l0.334,2.101l-1.913,0.156l-1.171,0.251l-0.115,0.387l0.209,0.303h0.46l1.756-0.188
	l1.045,0.46l0.449,1.171c0.167,1.087-0.073,1.84-0.742,2.258l-2.049,0.648c-0.982,0.157-2.038,0.198-3.156,0.157l-0.282-1.766
	c0.983-0.052,1.85-0.136,2.623-0.262l0.502-0.146l0.115-0.376l-0.178-0.303l-0.481-0.021l-0.732,0.136l-1.745-0.157l-0.826-1.714
	c-0.167-1.014,0.021-1.714,0.543-2.122c0.449-0.334,1.192-0.596,2.247-0.763C351.116,49.248,352.161,49.175,353.499,49.154"/>
<path fill="#FFFFFF" d="M309.047,65.877l5.539-0.878l1.474,0.167l1.16,1.85c0.146,0.982-0.031,1.735-0.554,2.258l-1.15,0.607
	l2.937,3.052l-3.47,0.544l-2.028-2.54l-0.073,0.011l0.491,2.79l-3,0.471L309.047,65.877 M312.685,69.389l0.679-0.115l0.679-0.219
	l0.262-0.836l-0.962-0.679l-0.93,0.146L312.685,69.389z"/>
<path fill="#FFFFFF" d="M325.75,69.64l-0.073,1.871c-1.171,0.47-2.185,0.773-3.031,0.909c-1.348,0.209-2.352,0.01-3.021-0.638
	c-0.544-0.533-0.93-1.4-1.118-2.633c-0.219-1.349-0.052-2.331,0.502-2.958l1.223-0.763l1.306-0.303l2.059-0.063l1.609,1.191
	l0.491,1.777l0.094,1.024l-4.212,0.658l0.282,0.586l1.442,0.126C323.983,70.329,324.798,70.057,325.75,69.64 M323.262,67.862
	l-0.136-0.533l-1.035-0.314l-0.847,0.533l-0.031,0.637L323.262,67.862z"/>
<polyline fill="#FFFFFF" points="333.474,63.243 332.69,70.675 328.885,71.27 325.812,64.456 328.77,63.986 330.191,67.424 
	330.254,67.414 330.537,63.703 333.474,63.243 "/>
<path fill="#FFFFFF" d="M341.918,67.079l-0.084,1.871c-1.16,0.48-2.174,0.773-3.021,0.909c-1.348,0.209-2.362,0.01-3.021-0.627
	c-0.554-0.533-0.93-1.411-1.118-2.634c-0.219-1.359-0.052-2.341,0.502-2.968l1.212-0.763l1.317-0.313l2.059-0.052l1.609,1.191
	l0.481,1.777l0.104,1.014l-4.212,0.669l0.282,0.586l1.442,0.126C340.152,67.758,340.967,67.497,341.918,67.079 M339.431,65.302
	l-0.136-0.533l-1.045-0.314l-0.836,0.533l-0.031,0.637L339.431,65.302z"/>
<path fill="#FFFFFF" d="M343.256,61.769c1.244-0.084,2.372-0.292,3.355-0.627c1.118-0.47,2.09-0.418,2.906,0.157l0.679,1.474
	l0.795,4.996l-2.958,0.47l-0.522-3.355l-0.105-0.491l-0.387-0.46l-0.418-0.021l-0.606,0.366l-0.115,0.7l0.554,3.523l-2.906,0.46
	l-1.128-7.159L343.256,61.769"/>
<path fill="#FFFFFF" d="M358.537,59.261l0.93,5.853c0.167,1.024-0.042,1.829-0.617,2.425c-0.522,0.544-1.505,0.93-2.937,1.16
	c-0.857,0.136-1.829,0.188-2.926,0.168l-0.491-1.631h1.139l1.077-0.094l1.756-0.742l0.125-0.825l-0.564,0.282l-1.463,0.7
	c-1.014,0.167-1.745-0.031-2.215-0.554c-0.418-0.501-0.721-1.317-0.899-2.456c-0.219-1.4-0.042-2.383,0.544-2.978
	c0.648-0.627,1.808-0.889,3.47-0.826C356.405,59.763,357.429,59.595,358.537,59.261 M354.649,61.895l-0.659,0.376l-0.094,1.025
	l1.118,1.118l0.669-0.418l0.094-0.471l-0.021-0.575L354.649,61.895z"/>
<path fill="#FFFFFF" d="M367.41,63.034l-0.084,1.881c-1.171,0.47-2.174,0.773-3.021,0.909c-1.359,0.209-2.362,0-3.021-0.637
	c-0.554-0.522-0.93-1.401-1.118-2.634c-0.219-1.348-0.052-2.341,0.502-2.968l1.212-0.763l1.317-0.303l2.048-0.052l1.61,1.192
	l0.491,1.777l0.104,1.014l-4.222,0.669l0.282,0.575l1.453,0.136C365.644,63.724,366.449,63.452,367.41,63.034 M364.923,61.257
	l-0.136-0.512l-1.045-0.335l-0.836,0.544l-0.042,0.638L364.923,61.257z"/>
</svg>
