<?xml version="1.0" encoding="utf-8"?>
<!-- Generator: Adobe Illustrator 27.0.1, SVG Export Plug-In . SVG Version: 6.00 Build 0)  -->
<svg version="1.1" id="레이어_1" xmlns="http://www.w3.org/2000/svg" xmlns:xlink="http://www.w3.org/1999/xlink" x="0px"
	 y="0px" viewBox="0 0 720 176.295" enable-background="new 0 0 720 176.295" xml:space="preserve">
<path d="M3.28,157.846c13.3-3.497,26.541-11.817,34.825-21.223c5.8-6.512,10.141-14.832,13.035-22.911h20.982l-3.364,3.617h-2.231
	l-0.193,0.362c-8.308,15.676-15.809,23.032-24.611,28.338C33.51,150.972,17.135,156.037,3.28,157.846 M77.765,107.2H59.786
	l-1.073,3.617H47.245l9.526-34.005l8.55,5.547h13.312l5.065-9.285h9.876l-2.231,1.447L80.514,82.36h28.133l7.175-7.235l7.983,6.873
	l-4.16,3.497l-6.548,24.358h-13.035l0.723-2.653H90.499l-6.27,23.635h33.149l7.187-14.711c-3.244,16.4-2.231,17.364-1.893,17.726
	c1.254,1.206,2.074,1.809,2.641,2.412c-1.206,2.05-4.534,6.994-8.477,6.994H67.347L77.765,107.2z M83.758,105.271h17.533
	l2.472-9.285H86.218L83.758,105.271z M60.304,105.271h15.471l2.472-9.285H62.776L60.304,105.271z M86.893,93.574h17.533l2.496-9.285
	H89.377L86.893,93.574z M63.44,93.574H78.91l2.496-9.285H65.936L63.44,93.574z M67.563,62.102
	c-4.944,4.944-9.598,8.561-15.435,12.058c7.223-7.115,16.605-23.152,16.605-23.152H58.375l0.639-2.532h10.949l1.929-6.873h13.385
	l-3.557,2.412l-1.326,4.462h8.441l4.896-4.462l3.533,4.462h7.971l1.953-6.873h13.264l-3.75,2.17l-1.338,4.703h22.2l5.728-5.547
	l6.596,8.079h-35.054l1.194,2.774h-1.664l-5.885,22.67h-9.936l4.208-16.399c0,0-9.816,8.32-16.363,11.817l-2.219,0.965l0.217-0.121
	c7.247-5.668,19.161-21.705,19.161-21.705H79.73l-6.475,25.926h-9.852L67.563,62.102z M131.763,81.515
	c-3.159-1.929-7.934-5.668-10.189-9.165c-3.015-4.582-4.872-9.767-5.004-17.485c4.039,6.632,9.888,10.008,19.523,11.576
	L131.763,81.515z M83.831,67.769l-3.618-12.3l10.226,4.944L83.831,67.769z"/>
<path d="M319.513,56.916l7.585,4.221h56.096l5.245-4.582l10.66,7.838l-3.907,3.135l-20.97,78.622h-14.53l0.808-2.894h-53.733
	l-0.916,3.256l-10.37,0.12L319.513,56.916 M307.431,141.325h53.733l21.042-78.139h-53.733L307.431,141.325z M329.329,137.105
	l4.112-16.038c0,0-1.327,1.929-6.198,4.823c-4.884,3.015-12.734,6.271-15.483,6.873c8.055-5.788,16.098-13.264,24.431-23.514
	l1.109-1.447h-6.56l-1.049,3.98h-7.729l5.474-20.5l5.993,3.376h21.947l4.16-3.617l5.957,4.703l-2.677,1.929l-2.882,10.853
	l4.932,4.824l-16.014,5.547l11.733,8.079l-3.497,11.697l-12.686-22.79l4.233,2.894l10.43-8.32h-7.862l0.687-2.653h-6.186
	l-7.464,29.302H329.329z M331.222,105.994h21.151l2.568-9.526h-21.151L331.222,105.994z M325.615,85.495h16.532l2.424-9.044h-13.168
	l0.495-1.809h13.168l1.712-6.391l10.78,0.121l-2.014,1.206l-1.387,5.064h7.85l4.824-4.341l4.353,6.15h-17.521l-2.424,9.044h12.432
	l4.872-4.341l3.726,6.15h-47.173L325.615,85.495z"/>
<path fill="#E3007F" d="M141.121,80.43l10.37-9.044c0,0-0.977-5.305-3.642-8.682c-2.834-3.497-7.38-5.065-8.248-5.426
	c0.941,1.688,2.411,6.391,2.605,10.973C142.447,74.28,141.121,80.43,141.121,80.43"/>
<polyline fill="#E3007F" points="167.118,73.918 182.661,73.918 176.946,95.503 162.029,95.503 161.185,97.794 211.373,97.794 
	205.633,89.594 198.989,95.503 191.066,95.503 196.782,73.918 231.173,73.918 224.926,65.357 218.512,71.989 197.361,71.989 
	200.556,59.81 203.607,57.036 187.172,57.036 183.228,71.989 167.781,71.989 167.118,73.918 "/>
<polyline fill="#E3007F" points="150.08,84.53 144.147,106.718 154.686,106.718 167.227,59.81 171.122,56.795 157.532,56.795 
	150.092,84.53 133.559,84.65 128.025,106.356 150.08,84.53 "/>
<path fill="#E3007F" d="M200.231,106.476l-6.958,6.271h-18.751l1.471-5.306l3.762-2.894l-16.87,0.12l-2.388,8.079H118.8
	l-0.639,2.291h41.144l-2.014,1.688c-9.37,8.32-19.74,15.073-33.257,21.826c8.151-1.688,15.592-3.497,21.235-6.391l1.592-0.723
	l-3.159,11.817h-14.977l-4.618,16.641l45.075-16.641h-11.564l4.619-18.088c4.208-2.532,7.947-5.306,11.443-9.888l0.35-0.241h33.595
	L200.231,106.476"/>
<path fill="#E3007F" d="M181.384,133.849l19.282-7.958l-6.994-8.803l-12.963,16.279l-1.025-1.568
	c-3.207-4.582-5.258-8.32-5.812-14.47c-1.169,23.273,9.575,33.884,25.094,41.723c2.412,1.206,7.826,2.894,9.249,3.617l4.293-17.244
	c-12.312-1.447-24.708-4.944-30.038-10.491L181.384,133.849"/>
<path d="M287.281,121.549l-9.876,9.285h-23.393l2.231-8.441l4.281-2.894h-17.871l-2.894,11.335l-39.214-0.121l-0.639,2.774h39.142
	l-7.585,29.181h-21.356c5.68,0.965,11.154,1.688,12.963,4.221c1.483,2.05,1.942,4.823,1.351,7.959l-0.265,1.447h1.025
	c3.666-0.12,11.733-1.568,14.374-3.135c3.437-2.291,4.715-4.1,6.186-9.285l7.621-30.387h42.82l-0.241-0.362L287.281,121.549"/>
<polyline points="288.041,106.717 274.704,94.297 270.592,100.688 231.884,100.688 230.92,103.462 269.133,103.462 257.316,119.138 
	288.041,106.717 "/>
<path d="M298.315,76.812l-5.234,9.406h-15.278l28.277-23.273h-22.26l-8.055,23.273h-43.398l0.29-1.206
	c0.458-1.929,0.711-3.376,1.037-5.547c-3.425,8.562-7.344,9.768-13.18,13.144c-2.87,1.688-4.474,2.291-4.474,2.291l-5.921,20.982
	c0,0,8.429-2.412,13.397-8.441c3.364-3.979,6.077-10.612,7.597-16.279l0.579-2.17h59.979l-7.175,12.782l23.852-12.42L298.315,76.812
	"/>
<path d="M240.241,77.898c-0.024,4.582-0.169,5.065-0.169,5.065l11.95-11.817c0,0-3.002-7.235-14.663-12.3
	C239.698,64.875,240.289,68.13,240.241,77.898"/>
<path d="M259.173,75.848c-0.157,6.029-0.217,7.115-0.217,7.115l12.191-12.903c0,0-3.919-8.803-14.494-12.782
	C258.883,63.186,259.378,67.166,259.173,75.848"/>
<polyline points="164.466,42.205 164.092,42.446 163.609,42.567 162.97,42.567 162.777,43.29 167.661,43.29 167.866,42.567 
	167.516,42.567 167.215,42.446 166.805,42.325 166.588,42.205 166.6,41.843 168.553,34.487 168.734,34.126 169.108,33.885 
	169.603,33.764 170.23,33.764 170.435,32.92 165.539,32.92 165.346,33.643 165.683,33.764 165.961,33.764 166.419,34.005 
	166.624,34.126 166.624,34.487 165.816,37.502 160.824,37.502 161.608,34.487 161.801,34.126 162.175,33.885 162.669,33.764 
	163.296,33.764 163.489,32.92 158.605,32.92 158.412,33.643 158.738,33.764 159.027,33.764 159.474,34.005 159.69,34.126 
	159.679,34.487 157.737,41.843 157.532,42.205 157.158,42.446 156.676,42.567 156.037,42.567 155.832,43.29 160.727,43.29 
	160.921,42.567 160.583,42.567 160.269,42.446 159.871,42.325 159.642,42.205 159.666,41.843 160.595,38.346 165.587,38.346 
	164.671,41.843 164.466,42.205 "/>
<path d="M177.621,36.778l0.169-0.12l0.181-0.603h-3.147l-0.169,0.603l0.314,0.12l0.41,0.121l0.205,0.241l-0.193,0.362l-0.265,0.362
	l-1.363,1.929l-1.001,1.327l-0.326-1.809l-0.374-2.05l-0.024-0.12V37.02l0.289-0.121l0.446-0.121h0.217l0.193-0.723h-3.798
	l-0.181,0.603l0.302,0.12l0.434,0.241l0.301,0.362l0.543,2.774c0.169,0.844,0.338,1.809,0.531,3.015l-1.122,1.326l-1.073,0.844
	l-0.072-0.121l-0.193-0.362l-0.301-0.241l-1.146,0.241l-0.41,0.603l0.217,0.724l0.989,0.241l0.675-0.121l0.796-0.362l1.013-0.844
	l1.302-1.567l1.748-2.412c0.808-1.206,1.7-2.291,2.629-3.617l0.687-0.482L177.621,36.778"/>
<path d="M184.965,36.899l-2.219-1.085l-1.242,0.241l-1.073,0.603l1.23-4.582l-3.268,0.12l-0.169,0.724h0.675l0.41,0.12l0.169,0.362
	v0.362l-1.857,6.994l-0.398,1.447l-0.326,0.965l-0.109,0.362l0.651,0.121l0.796-0.723l0.977,0.362l1.242,0.241l2.918-1.085
	l1.857-2.773C185.532,38.587,185.447,37.622,184.965,36.899 M179.105,41.602l1.085-4.1l0.82-0.482l0.965-0.121l0.905,0.241
	l0.482,0.603l0.132,0.844l-0.157,1.086l-1.169,2.291l-1.701,0.723l-0.639-0.121l-0.422-0.241l-0.229-0.362L179.105,41.602z"/>
<polyline points="192.719,37.14 192.598,36.175 191.778,35.934 190.548,36.175 189.451,36.778 189.692,35.934 186.701,36.175 
	186.521,36.778 186.858,36.899 187.063,36.899 187.34,37.02 187.521,37.261 187.521,37.622 186.364,41.964 186.183,42.325 
	185.845,42.566 185.049,42.566 184.856,43.29 189.209,43.29 189.402,42.566 188.739,42.566 188.281,42.446 188.076,42.325 
	188.088,41.964 189.173,37.864 190.162,37.14 190.801,36.899 190.825,37.02 190.717,37.261 190.849,37.864 191.561,38.105 
	192.32,37.743 192.719,37.14 "/>
<polyline points="197.518,33.402 197.373,32.558 196.614,32.317 195.769,32.558 195.239,33.402 195.384,34.126 196.107,34.487 
	196.987,34.126 197.518,33.402 "/>
<polyline points="196.662,35.934 193.514,36.175 193.334,36.778 193.671,36.899 193.949,36.899 194.298,37.02 194.491,37.261 
	194.491,37.622 193.334,41.963 193.153,42.325 192.815,42.566 192.031,42.566 191.838,43.29 195.841,43.29 196.023,42.566 
	195.552,42.566 195.251,42.446 195.058,42.325 195.058,41.963 196.662,35.934 "/>
<path d="M206.646,32.076l-3.593,0.121l-0.181,0.723h0.916l0.495,0.241l0.157,0.241l-0.036,0.482l-0.627,2.291l-0.687-0.241
	l-2.605,0.241l-1.411,0.723l-1.158,1.206l-0.687,1.568l-0.145,1.568l0.446,1.206l0.916,0.723l1.266,0.362l1.351-0.241l1.013-0.603
	l-0.169,0.603l3.135-0.12l0.193-0.723h-0.663l-0.35-0.121l-0.181-0.241l0.012-0.362L206.646,32.076 M199.098,41.722l-0.181-0.844
	l0.169-1.085l0.518-1.327l0.711-0.965l0.844-0.603l0.868-0.241l0.639,0.121l0.422,0.241l0.229,0.362l0.085,0.362l-1.085,3.979
	l-0.784,0.603l-1.061,0.121l-0.892-0.121L199.098,41.722z"/>
<polyline points="219.669,35.814 216.124,38.346 213.965,35.814 212.904,36.658 215.075,39.19 211.53,41.723 212.205,42.567 
	215.762,40.034 217.908,42.567 218.982,41.723 216.811,39.19 220.356,36.658 219.669,35.814 "/>
<polyline points="237.974,34.487 238.155,34.125 238.529,33.884 239.023,33.764 239.65,33.764 239.855,32.92 234.959,32.92 
	234.766,33.643 235.104,33.764 235.381,33.764 235.84,34.005 236.045,34.125 236.045,34.487 235.237,37.502 230.244,37.502 
	231.028,34.487 231.221,34.125 231.595,33.884 232.077,33.764 232.717,33.764 232.909,32.92 228.014,32.92 227.821,33.643 
	228.158,33.764 228.448,33.764 228.894,34.005 229.111,34.125 229.099,34.487 227.158,41.843 226.953,42.205 226.579,42.446 
	226.096,42.566 225.457,42.566 225.252,43.29 230.148,43.29 230.341,42.566 229.991,42.566 229.69,42.446 229.28,42.325 
	229.063,42.205 229.087,41.843 230.015,38.346 235.008,38.346 234.091,41.843 233.886,42.205 233.512,42.446 233.042,42.566 
	232.391,42.566 232.198,43.29 237.082,43.29 237.287,42.566 236.937,42.566 236.635,42.446 236.225,42.325 236.008,42.205 
	236.02,41.843 237.974,34.487 "/>
<path d="M245.197,36.779l-0.856-0.723l-1.447-0.241l-1.616,0.362l-1.363,0.844l-1.049,1.206l-0.615,1.326l-0.169,1.568l0.386,1.206
	l0.989,0.844l1.615,0.362l2.074-0.603l1.556-1.206l0.253-0.241l-0.675-0.362L244.1,41.24l-1.133,0.965l-1.23,0.241l-1.061-0.241
	l-0.579-0.603l-0.181-0.844l0.169-1.206h5.137l0.145-0.482l0.145-1.206L245.197,36.779 M243.774,37.984l-0.145,0.724h-3.316
	l0.965-1.447l1.459-0.603l0.687,0.121l0.314,0.482L243.774,37.984z"/>
<path d="M252.263,42.446l-0.205-0.241l0.024-0.362l0.482-1.688l0.506-1.809l0.096-1.206l-0.458-0.844l-0.856-0.362l-1.158-0.121
	l-1.049,0.121l-0.977,0.362l-0.832,0.603l-0.458,0.723l0.036,0.603l0.627,0.362l0.808-0.241l0.422-0.603l0.06-0.482l0.036-0.362
	l0.422-0.241h0.663l0.687,0.121l0.29,0.362l0.048,0.482l-0.048,0.362l-0.181,0.603l-1.531,0.482l-1.556,0.482l-0.7,0.241
	l-0.639,0.362l-0.555,0.723l-0.337,0.723l0.253,1.326l1.399,0.603h0.193l0.181-0.121l1.157-0.241l1.109-0.603h0.084l0.302,0.603
	l0.989,0.241h0.687l0.603-0.241h0.169l0.181-0.723H252.263 M249.888,42.084l-0.302,0.121l-1.001,0.241l-0.712-0.241l-0.084-0.723
	l0.41-0.723l0.748-0.603l1.025-0.362l1.061-0.362l-0.639,2.291l-0.386,0.241L249.888,42.084z"/>
<polyline points="260.801,35.934 259.571,36.175 258.473,36.778 258.703,35.934 255.712,36.175 255.531,36.778 255.881,36.899 
	256.086,36.899 256.363,37.02 256.544,37.261 256.544,37.622 255.387,41.963 255.193,42.325 254.868,42.566 254.072,42.566 
	253.879,43.29 258.232,43.29 258.413,42.566 257.75,42.566 257.304,42.446 257.099,42.325 257.099,41.963 258.184,37.863 
	259.185,37.14 259.824,36.899 259.836,37.02 259.727,37.261 259.86,37.863 260.572,38.105 261.343,37.743 261.741,37.14 
	261.621,36.175 260.801,35.934 "/>
<polyline points="266.336,33.884 264.647,33.884 264.045,36.055 262.622,36.055 262.381,37.02 263.779,37.02 262.549,41.602 
	262.634,42.928 263.984,43.411 265.178,43.29 266.143,43.049 266.299,42.928 266.492,42.205 266.046,42.325 265.19,42.325 
	264.587,42.205 264.358,41.964 264.334,41.602 264.491,40.878 265.528,37.02 267.735,37.02 267.976,36.055 265.745,36.055 
	266.336,33.884 "/>
<polyline points="290.272,34.487 290.465,34.125 290.839,33.884 291.357,33.764 292.008,33.764 292.213,32.92 288.33,32.92 
	288.258,33.161 288.053,33.523 287.607,34.246 283.338,40.275 282.192,32.92 278.189,32.92 277.996,33.643 278.346,33.764 
	278.78,33.764 279.262,34.125 279.431,34.487 279.358,35.211 277.984,40.275 277.514,41.722 277.019,42.205 276.392,42.446 
	275.753,42.566 275.548,42.566 275.355,43.29 280.118,43.29 280.311,42.566 279.986,42.566 279.515,42.446 278.937,42.205 
	278.768,41.602 278.997,40.275 280.54,34.608 281.783,43.169 282.337,43.169 288.282,34.849 286.437,41.722 286.232,42.084 
	285.834,42.446 285.255,42.566 284.471,42.566 284.266,43.29 289.464,43.29 289.656,42.566 289.307,42.566 288.969,42.446 
	288.535,42.325 288.318,42.205 288.33,41.843 290.272,34.487 "/>
<path d="M297.724,42.446h-0.977l-0.205-0.241l0.024-0.362l0.47-1.688l0.507-1.809l0.109-1.206l-0.459-0.844l-0.856-0.362
	l-1.158-0.121l-1.049,0.121l-0.977,0.362l-0.832,0.603l-0.458,0.723l0.036,0.603l0.627,0.362l0.808-0.241l0.422-0.603l0.06-0.482
	l0.036-0.362l0.422-0.241h0.663l0.687,0.121l0.289,0.362l0.048,0.482l-0.048,0.362l-0.181,0.603l-1.531,0.482l-1.556,0.482
	l-0.7,0.241l-0.639,0.362l-0.567,0.723l-0.326,0.723l0.241,1.327l1.399,0.603l1.544-0.362l1.182-0.603h0.012l0.301,0.603
	l0.989,0.241h0.687l0.603-0.241h0.169L297.724,42.446 M294.07,42.205l-1.001,0.241l-0.712-0.241l-0.084-0.723l0.41-0.723
	l0.748-0.603l1.025-0.362l1.061-0.362l-0.639,2.291l-0.386,0.241L294.07,42.205z"/>
<path d="M305.538,37.02h1.724l0.241-0.965h-2.846l-0.663-0.12l-0.711-0.121l-2.352,0.723l-1.314,1.688l0.121,1.206l0.844,0.844
	l-0.929,0.482l-0.519,0.844l-0.012,0.482l0.277,0.482l0.434,0.241h0.048l-1.399,0.482l-1.001,1.206l0.567,1.447
	c0.531,0.362,1.375,0.482,2.581,0.482l1.893-0.121l1.435-0.603l0.977-0.723l0.519-1.085l0.048-0.844l-0.362-0.723l-0.603-0.362
	l-0.735-0.121l-0.832-0.121h-1.568l-0.482-0.12l-0.301-0.121l-0.024-0.362l0.253-0.241l0.386-0.241h0.941l2.17-0.603l1.302-1.688
	l0.048-0.723L305.538,37.02 M299.111,44.978l0.012-0.482l0.555-0.844l1.278-0.482l1.568,0.12h0.868l0.459,0.241l0.012,0.603
	l-0.928,1.206l-1.881,0.362l-1.073-0.121l-0.615-0.241L299.111,44.978z M301.414,39.431l-0.036-1.206l0.241-0.603l0.362-0.482
	l0.494-0.362l0.627-0.241l0.808,0.482l0.012,1.206l-0.663,1.206l-1.097,0.482L301.414,39.431z"/>
<polyline points="311.447,35.934 308.299,36.175 308.118,36.778 308.456,36.899 308.733,36.899 309.083,37.02 309.276,37.261 
	309.276,37.622 308.118,41.963 307.937,42.325 307.6,42.566 306.804,42.566 306.623,43.29 310.626,43.29 310.795,42.566 
	310.337,42.566 310.036,42.446 309.831,42.325 309.843,41.963 311.447,35.934 "/>
<polyline points="312.303,33.402 312.158,32.558 311.398,32.317 310.554,32.558 310.035,33.402 310.168,34.126 310.892,34.487 
	311.772,34.126 312.303,33.402 "/>
<path d="M318.211,42.446l-0.205-0.241l0.024-0.362l0.482-1.688l0.506-1.809l0.097-1.206l-0.459-0.844l-0.856-0.362l-1.158-0.121
	l-1.049,0.121l-0.977,0.362l-0.832,0.603l-0.458,0.723l0.036,0.603l0.627,0.362l0.808-0.241l0.422-0.603l0.06-0.482l0.036-0.362
	l0.422-0.241h0.663l0.687,0.121l0.289,0.362l0.048,0.482l-0.048,0.362l-0.181,0.603l-1.531,0.482l-1.556,0.482l-0.687,0.241
	l-0.651,0.362l-0.567,0.723l-0.338,0.723l0.253,1.327l1.399,0.603l1.544-0.362l1.182-0.603h0.012l0.301,0.603l0.989,0.241h0.687
	l0.603-0.241h0.169l0.181-0.723H318.211 M315.534,42.205l-1.001,0.241l-0.712-0.241l-0.084-0.723l0.41-0.723l0.748-0.603
	l1.037-0.362l1.049-0.362l-0.639,2.291l-0.35,0.241L315.534,42.205z"/>
<polyline points="326.303,36.175 325.663,35.934 324.735,35.814 322.612,36.417 321.455,37.985 321.455,38.949 321.889,39.552 
	322.588,40.034 323.36,40.276 324.12,40.517 324.65,40.878 324.892,41.119 324.88,41.602 324.289,42.446 323.095,42.687 
	322.251,42.567 321.696,41.964 321.395,41.361 321.31,40.878 321.286,40.637 320.55,40.637 319.911,43.29 320.732,43.29 
	320.985,42.929 321.6,43.29 322.842,43.531 325.157,42.808 326.447,41.24 326.495,40.276 326.122,39.673 325.446,39.19 
	324.542,38.828 323.734,38.587 323.239,38.346 323.011,37.985 323.034,37.502 323.541,36.899 324.578,36.658 325.699,37.02 
	326.049,37.985 326.061,38.346 326.809,38.346 327.34,35.814 326.568,35.814 326.303,36.175 "/>
<path d="M341.87,42.446l-0.386-0.12l-0.301-0.241l-0.132-0.482l-1.411-8.802h-0.796l-2.978,4.341
	c-1.037,1.447-2.05,2.894-3.003,4.221l-0.482,0.603l-0.567,0.362l-0.519,0.12l-0.41,0.121h-0.205l-0.193,0.723h4.462l0.205-0.723
	h-0.362l-0.832-0.241l-0.301-0.241l0.121-0.241l0.265-0.482l0.434-0.723l0.555-0.844h3.762l0.301,2.17v0.121l-0.024,0.121
	l-0.386,0.241l-0.904,0.121h-0.217l-0.193,0.723h4.895l0.193-0.723h-0.338L341.87,42.446 M335.66,38.949l2.375-3.497h0.012
	l0.567,3.497H335.66z"/>
<path d="M349.816,36.416l-1.797-0.603l-1.664,0.362l-1.411,0.844l-1.085,1.206l-0.639,1.447c-0.314,1.085-0.229,2.05,0.241,2.773
	c0.482,0.724,1.314,1.086,2.472,1.086l1.942-0.603l1.616-1.085l0.241-0.362l-0.615-0.362l-0.181,0.121l-1.097,0.965l-1.302,0.241
	l-1.375-0.723l-0.073-2.05l0.555-1.447l0.711-0.965l0.772-0.482l1.266-0.121l0.241,0.241l-0.217,0.362l-0.277,0.723l0.157,0.603
	l0.747,0.241l0.784-0.362l0.386-0.603L349.816,36.416"/>
<path d="M356.762,42.446l-0.205-0.241l0.024-0.362l0.482-1.688l0.506-1.809l0.097-1.206l-0.459-0.844l-0.856-0.362h-2.207
	l-0.977,0.362l-0.832,0.603l-0.458,0.723l0.036,0.603l0.627,0.362l0.808-0.241l0.422-0.603l0.06-0.482l0.036-0.362l0.422-0.241
	h0.663l0.687,0.121l0.289,0.362l0.048,0.482l-0.048,0.362l-0.181,0.603l-1.519,0.482l-1.568,0.482l-0.687,0.241l-0.651,0.362
	l-0.567,0.723l-0.326,0.723l0.253,1.327l1.399,0.603l1.532-0.362l1.182-0.603h0.012l0.301,0.603l0.989,0.241h0.687l0.603-0.241
	h0.169l0.181-0.723H356.762 M354.085,42.205l-1.001,0.241l-0.712-0.241l-0.084-0.723l0.41-0.723l0.748-0.603l1.037-0.362
	l1.049-0.362l-0.639,2.291l-0.374,0.241L354.085,42.205z"/>
<path d="M423.626,42.446l-0.205-0.241l0.012-0.362l0.482-1.688l0.506-1.809l0.109-1.206l-0.47-0.844l-0.844-0.362h-2.219
	l-0.965,0.362l-0.844,0.603l-0.458,0.723l0.048,0.603l0.615,0.362l0.82-0.241l0.41-0.603l0.072-0.482l0.024-0.362l0.422-0.241h0.675
	l0.687,0.121l0.29,0.362l0.036,0.482l-0.048,0.362l-0.181,0.603l-1.519,0.482l-1.568,0.482l-0.687,0.241l-0.651,0.362l-0.555,0.723
	l-0.337,0.723l0.253,1.327l1.399,0.603l1.532-0.362l1.194-0.603l0.314,0.603l0.989,0.241h0.687l0.603-0.241h0.169l0.169-0.723
	H423.626 M420.938,42.205l-0.989,0.241l-0.724-0.241l-0.072-0.723l0.41-0.723l0.736-0.603l1.037-0.362l1.061-0.362l-0.639,2.291
	l-0.374,0.241L420.938,42.205z"/>
<path d="M438.724,42.446l-0.193-0.241l0.012-0.362l0.482-1.688l0.506-1.809l0.109-1.206l-0.47-0.844l-0.856-0.362h-2.207
	l-0.965,0.362l-0.844,0.603l-0.458,0.723l0.048,0.603l0.615,0.362l0.82-0.241l0.41-0.603l0.072-0.482l0.024-0.362l0.422-0.241h0.675
	l0.687,0.121l0.277,0.362l0.048,0.482l-0.048,0.362l-0.181,0.603l-1.519,0.482l-1.568,0.482l-0.687,0.241l-0.651,0.362l-0.555,0.723
	l-0.337,0.723l0.253,1.327l1.399,0.603l1.532-0.362l1.182-0.603h0.012l0.301,0.603l1.001,0.241h0.675l0.615-0.241h0.157l0.181-0.723
	H438.724 M436.047,42.205l-1.001,0.241l-0.712-0.241l-0.072-0.723l0.41-0.723l0.736-0.603l1.037-0.362l1.049-0.362l-0.627,2.291
	l-0.374,0.241L436.047,42.205z"/>
<path d="M460.32,42.446l-0.205-0.241l0.024-0.362l0.482-1.688l0.495-1.809l0.109-1.206l-0.459-0.844l-0.856-0.362h-2.207
	l-0.977,0.362l-0.832,0.603l-0.458,0.723l0.036,0.603l0.627,0.362l0.808-0.241l0.422-0.603l0.06-0.482l0.024-0.362l0.434-0.241
	h0.663l0.687,0.121l0.289,0.362l0.048,0.482l-0.048,0.362l-0.181,0.603l-1.531,0.482l-1.556,0.482l-0.7,0.241l-0.651,0.362
	l-0.555,0.723l-0.338,0.723l0.253,1.327l1.399,0.603l1.544-0.362l1.182-0.603h0.012l0.301,0.603l0.989,0.241h0.687l0.603-0.241
	h0.169l0.169-0.723H460.32 M457.644,42.205l-1.001,0.241l-0.712-0.241l-0.084-0.723l0.41-0.723l0.748-0.603l1.037-0.362l1.049-0.362
	l-0.639,2.291l-0.374,0.241L457.644,42.205z"/>
<path d="M366.059,42.446l-0.35-0.121l-0.181-0.241l0.012-0.362l2.593-9.647l-3.594,0.121l-0.181,0.723h0.916l0.495,0.241
	l0.157,0.241l-0.036,0.482l-0.627,2.291l-0.687-0.241l-2.605,0.241l-1.411,0.723l-1.146,1.206l-0.7,1.568l-0.132,1.568l0.434,1.206
	l0.916,0.723l1.266,0.362l1.351-0.241l1.013-0.603l-0.169,0.603l3.147-0.12l0.181-0.723H366.059 M360.585,41.722l-0.169-0.844
	l0.157-1.085l0.518-1.327l0.711-0.965l0.844-0.603l0.88-0.241l0.639,0.121l0.41,0.241l0.229,0.362l0.085,0.362l-1.085,3.979
	l-0.784,0.603l-1.061,0.121l-0.88-0.121L360.585,41.722z"/>
<path d="M373.391,41.119l-0.169,0.121l-1.133,0.965l-1.23,0.241l-1.061-0.241l-0.579-0.603l-0.193-0.844l0.181-1.206h5.137
	l0.145-0.482l0.145-1.206l-0.314-1.085l-0.856-0.723l-1.447-0.241l-1.628,0.362l-1.363,0.844l-1.037,1.206l-0.615,1.326
	l-0.169,1.568l0.386,1.206l0.989,0.844l1.615,0.362l2.074-0.603l1.556-1.206l0.241-0.241L373.391,41.119 M372.896,37.984
	l-0.145,0.724h-3.316l0.965-1.447l1.459-0.603l0.675,0.121l0.326,0.482L372.896,37.984z"/>
<polyline points="384.883,41.963 384.69,42.325 384.364,42.566 383.58,42.566 383.399,43.29 387.427,43.29 387.608,42.566 
	387.101,42.566 386.788,42.446 386.595,42.325 386.619,41.963 387.56,38.346 387.451,36.537 385.956,35.814 384.991,35.934 
	384.183,36.296 383.496,36.658 383.013,37.02 382.471,36.296 381.193,35.814 380.24,35.934 379.456,36.296 378.805,36.658 
	378.564,36.899 378.419,36.899 378.685,35.934 375.67,36.175 375.489,36.778 375.827,36.899 376.044,36.899 376.333,37.02 
	376.538,37.261 376.538,37.622 375.369,41.963 375.188,42.325 374.85,42.566 374.054,42.566 373.873,43.29 377.889,43.29 
	378.081,42.566 377.575,42.566 377.298,42.446 377.093,42.205 377.093,41.963 378.166,37.984 378.455,37.622 378.721,37.502 
	378.902,37.381 378.914,37.381 379.589,37.02 380.312,36.899 381.048,37.261 381.096,38.346 380.132,41.963 379.939,42.325 
	379.613,42.566 378.865,42.566 378.672,43.29 382.628,43.29 382.808,42.566 382.314,42.566 382.037,42.446 381.844,42.325 
	381.868,41.963 382.941,37.984 383.219,37.622 383.677,37.381 384.352,37.02 385.076,36.899 385.799,37.261 385.847,38.346 
	384.883,41.963 "/>
<path d="M393.963,36.658l0.313,0.121l0.41,0.121l0.205,0.241l-0.193,0.362l-0.253,0.362l-1.374,1.929l-0.989,1.327l-0.338-1.809
	l-0.374-2.05l-0.024-0.121v-0.12l0.289-0.121l0.458-0.121h0.205l0.193-0.723h-3.798l-0.181,0.603l0.302,0.121l0.434,0.241
	l0.314,0.362l0.531,2.773c0.169,0.844,0.35,1.809,0.543,3.015l-1.134,1.327l-1.061,0.844l-0.085-0.12l-0.193-0.362l-0.301-0.241
	l-1.146,0.241l-0.41,0.603l0.229,0.723l0.977,0.241l0.675-0.121l0.796-0.362l1.013-0.844l1.314-1.568l1.748-2.411
	c0.748-1.085,1.604-2.291,2.617-3.618l0.687-0.482l0.567-0.241l0.169-0.121l0.181-0.603h-3.135L393.963,36.658"/>
<path d="M410.483,42.446l-0.386-0.12l-0.301-0.241l-0.132-0.482l-1.411-8.802h-0.796l-2.978,4.341
	c-1.037,1.447-2.05,2.894-3.003,4.221l-0.482,0.603l-0.567,0.362l-0.519,0.12l-0.398,0.121h-0.217L399.1,43.29h4.462l0.205-0.723
	h-0.362l-0.82-0.241l-0.314-0.241l0.121-0.241l0.265-0.482l0.434-0.723l0.567-0.844h3.75l0.301,2.17l0.012,0.121l-0.024,0.121
	l-0.398,0.241l-0.904,0.121h-0.217l-0.193,0.723h4.895l0.193-0.723h-0.338L410.483,42.446 M404.273,38.949l2.375-3.497h0.012
	l0.567,3.497H404.273z"/>
<polyline points="415.451,42.325 414.872,42.325 414.281,42.205 414.04,41.963 414.016,41.602 414.173,40.878 415.21,37.02 
	417.417,37.02 417.67,36.055 415.439,36.055 416.018,33.884 414.329,33.884 413.738,36.055 412.316,36.055 412.063,37.02 
	413.461,37.02 412.243,41.602 412.316,42.928 413.678,43.411 414.86,43.29 415.837,43.049 415.993,42.928 416.186,42.205 
	415.728,42.325 415.451,42.325 "/>
<polyline points="433.092,37.14 432.972,36.175 432.152,35.934 430.922,36.175 429.824,36.778 430.066,35.934 427.075,36.175 
	426.882,36.778 427.232,36.899 427.437,36.899 427.714,37.02 427.895,37.261 427.895,37.622 426.738,41.964 426.556,42.325 
	426.219,42.566 425.423,42.566 425.242,43.29 429.583,43.29 429.776,42.566 429.101,42.566 428.655,42.446 428.45,42.325 
	428.462,41.964 429.547,37.864 430.536,37.14 431.175,36.899 431.199,37.02 431.078,37.261 431.223,37.864 431.923,38.105 
	432.694,37.743 433.092,37.14 "/>
<polyline points="447.888,37.502 448.564,37.02 449.468,36.778 449.649,36.658 449.817,36.055 446.706,36.055 446.526,36.658 
	446.827,36.778 447.116,36.899 447.249,36.899 447.201,37.02 447.116,37.14 446.212,37.984 445.464,38.708 445.042,37.864 
	444.934,37.622 444.693,37.02 444.645,36.899 444.62,36.778 445.38,36.778 445.573,36.055 441.931,36.055 441.751,36.778 
	442.112,36.778 442.534,36.899 442.848,37.261 443.33,38.226 444.066,39.793 442.655,40.999 441.762,41.843 441.051,42.325 
	440.219,42.566 440.05,42.687 439.869,43.29 442.993,43.29 443.173,42.687 442.836,42.566 442.45,42.446 442.353,42.325 
	442.438,42.205 442.583,42.084 443.559,41.119 444.452,40.396 444.91,41.361 445.247,42.084 445.332,42.325 445.368,42.446 
	445.163,42.566 444.464,42.566 444.271,43.29 448.081,43.29 448.262,42.566 447.924,42.566 447.478,42.446 447.141,41.964 
	446.55,40.758 445.838,39.311 447.08,38.226 447.888,37.502 "/>
<polyline points="454.4,32.558 453.64,32.317 452.784,32.558 452.265,33.402 452.41,34.125 453.121,34.487 454.002,34.125 
	454.532,33.402 454.4,32.558 "/>
<polyline points="453.676,35.934 450.529,36.175 450.348,36.778 450.686,36.899 450.975,36.899 451.325,37.02 451.518,37.261 
	451.518,37.622 450.36,41.963 450.167,42.325 449.841,42.566 449.046,42.566 448.865,43.29 452.856,43.29 453.037,42.566 
	452.567,42.566 452.265,42.446 452.072,42.325 452.072,41.963 453.676,35.934 "/>
<path d="M0,143.978c7.609-6.511,18.22-18.691,27.807-52.092c6.921-24.238,14.916-65.598,14.916-65.598L59.4,35.693h28.627
	l2.375-9.526h19.45l-5.414,4.341l-1.531,5.185h23.176l8.417-8.079l7.838,10.491H59.846c0,0-12.034,42.446-13.325,46.908
	l-0.337,1.206h-0.072l-0.205,0.723C35.03,121.911,17.352,134.934,0,143.978"/>
<polyline points="91.524,122.996 108.755,121.429 89.691,130.111 91.524,122.996 "/>
<path d="M110.07,129.99c0,0,0.072-1.085,0.12-3.015c0.096-3.738-0.012-10.37-1.182-12.42c6.367,3.618,7.296,6.029,6.632,8.441
	C114.712,126.494,110.07,129.99,110.07,129.99"/>
<polyline points="99.736,110.938 105.138,113.109 104.185,113.591 94.598,122.032 99.736,110.938 "/>
<path fill="#E3007F" d="M479.433,124.443l19.728-71.868c3.654-13.746,8.176-15.917,18.546-16.52l0.036-0.121h-49.826l-0.036,0.121
	c10.057,0.603,10.467,2.774,6.801,16.52L462.189,96.83h-48.463l6.801-24.358c3.666-13.626,5.245-15.797,15.616-16.399l0.036-0.121
	h-39.769l-0.036,0.121c9.936,0.603,11.781,2.774,8.127,16.399l-19.884,73.437c-1.628,6.15-4.884,10.008-9.044,12.42
	c-4.92,2.894-14.024,3.858-20.27,4.22l-0.024,0.121h53.045l0.024-0.121c-11.287-0.603-10.901-3.256-7.344-16.64l10.636-39.914
	h16.568l2.93-4.1h29.989l-6.174,22.549c-3.557,13.264-5.137,18.088-16.785,18.691l-0.024,0.121h47.908l0.036-0.121
	C474.923,142.531,475.876,137.708,479.433,124.443"/>
<polyline points="436.24,132.764 483.135,95.985 471.607,80.551 474.344,70.904 488.923,91.645 514.933,70.542 512.51,79.224 
	491.468,95.503 503.719,111.782 500.873,121.549 485.848,99.844 433.382,141.687 436.24,132.764 "/>
<path d="M614.597,70.904l4.184-14.952L720,0l-20.596,35.693l-57.555,29.181l-4.51-1.809l-6.415,3.497l-1.254,4.221l5.499,4.462
	c0,0-4.124,31.955-33.836,43.893c0,0,9.671-7.114,15.025-21.464c4.654-12.42,4.667-21.584,4.667-21.584L614.597,70.904"/>
<path d="M639.582,83.806l44.447-20.74l10.069-17.364l-51.345,25.684h0.012C642.765,71.386,642.464,77.536,639.582,83.806"/>
<path d="M622.724,110.938l21.404-9.285l4.136-5.788l16.677-6.994l8.996-14.591l-35.753,15.676
	C634.759,96.709,630.309,104.306,622.724,110.938"/>
<path d="M586.271,26.167l-0.024,0.121c10.057,0.482,10.467,2.774,6.801,16.4l-9.176,34.005h-30.677l-3.22,4.582h-17.533
	l7.513-28.699c3.654-13.746,6.716-15.917,17.075-16.52l0.036-0.12H517.67l-0.036,0.12c9.948,0.603,10.322,2.774,6.656,16.52
	l-18.992,71.869c-3.557,13.264-8.055,18.088-19.571,18.691l-0.024,0.121h46.799l0.036-0.121
	c-11.299-0.603-14.772-5.426-11.214-18.691l10.057-38.105h49.512l-7.79,30.387c-3.557,13.264-4.594,15.917-16.231,16.52
	l-0.036,0.121h49.741l0.036-0.121c-11.166-0.603-12.227-3.256-8.67-16.52l19.583-74.039c1.532-5.668,6.029-9.406,11.516-11.817
	c7.633-3.376,20.089-4.341,26.131-4.582l0.024-0.121H586.271"/>
<path fill="#E3007F" d="M555.667,152.902l-0.277,0.241c2.026,2.411,3.195,5.064,3.388,8.802l0.711,1.327
	c0.832,0,1.929-1.206,2.315-2.653c0.326-1.206,0.097-2.05-0.952-3.617C559.791,155.313,557.693,153.987,555.667,152.902"/>
<path fill="#E3007F" d="M548.191,151.696v2.533c-0.241,0.965-1.592,2.773-3.847,5.306c-2.701,2.894-5.583,5.426-8.369,7.355
	l0.084,0.241c1.821-0.724,3.015-1.327,4.727-2.291c3.328-2.05,5.655-3.859,8.766-6.753c1.242-1.206,3.256-3.135,3.256-3.135
	s-1.097-0.965-2.207-1.688C549.228,152.299,548.191,151.696,548.191,151.696"/>
<path fill="#E3007F" d="M567.858,156.881c-1.278,0-2.243-0.241-2.605-0.362l-1.688-0.844l1.399,3.256h15.568l0.747-2.05
	C581.279,156.881,568.943,156.881,567.858,156.881"/>
<path fill="#E3007F" d="M591.843,156.881c-1.182-0.482-3.16-0.965-5.209-1.085l0.41-1.447l1.724-5.909h-3.823l0.567,1.447
	c0.133,0.482,0.036,1.206-0.856,4.582c-0.88,3.376-1.519,5.667-2.038,7.235c-0.41,1.206-0.748,2.05-1.073,2.532l-0.422,0.844
	l-0.048,0.482l0.012,0.241l0.024,0.241l0.012,0.121l0.289,0.844l1.013,0.844h0.06l0.965-0.603l0.506-1.327l0.277-1.085
	c0.506-2.17,0.627-2.653,0.892-3.617l0.314-1.085l0.832-3.135l0.145-0.482c1.7,0.603,3.135,1.929,4.172,3.497l0.88,0.844
	l1.459-1.688L591.843,156.881"/>
<path d="M440.81,152.902l-0.277,0.241c2.026,2.411,3.195,5.064,3.389,8.802l0.711,1.327c0.832,0,1.929-1.206,2.315-2.653
	c0.326-1.206,0.085-2.05-0.952-3.617C444.934,155.313,442.836,153.987,440.81,152.902"/>
<path d="M433.334,151.696v2.533c-0.254,0.965-1.592,2.773-3.847,5.306c-2.701,2.894-5.583,5.426-8.369,7.355l0.084,0.241
	c1.821-0.724,3.015-1.327,4.727-2.291c3.328-2.05,5.655-3.859,8.766-6.753c1.242-1.206,3.256-3.135,3.256-3.135
	s-1.097-0.965-2.207-1.688C434.371,152.299,433.334,151.696,433.334,151.696"/>
<path d="M464.505,149.887c-0.217,0.844-1.869,2.533-5.004,5.065c-3.618,2.894-7.211,5.185-10.479,6.873l0.048,0.241
	c1.435-0.482,3.28-1.085,4.848-1.809c1.58-0.723,3.509-1.809,5.824-3.376h0.024c0.169,0.482,0.145,0.844-0.157,1.929
	c-0.663,2.532-1.556,4.944-2.098,5.909l-0.337,0.844l1.483,2.291l1.327-1.327l0.205-0.965c1.049-4.341,1.133-4.703,1.387-5.668
	c0.434-1.809,0.482-2.05,0.35-2.291l-1.169-1.326c1.965-1.447,1.989-1.447,3.991-2.894c1.773-1.326,1.785-1.326,1.881-1.447
	l1.7-1.326l-3.389-2.774L464.505,149.887"/>
<path d="M487.223,146.752l-0.157,0.121c1.182,0.844,1.748,1.568,2.11,2.532l0.519,0.724l0.916-0.965l-0.41-1.326
	C489.671,147.355,488.549,146.872,487.223,146.752"/>
<path d="M484.775,148.319l-0.193,0.121c1.11,0.965,1.544,1.688,1.978,3.135l0.458,0.482l0.543-0.241l0.531-0.844
	C488.393,149.887,487.38,149.043,484.775,148.319"/>
<path d="M482.882,150.731c0,0-0.917,0.362-2.701,0.603c-4.257,0.723-6.753,1.085-7.765,1.085c-1.158,0-2.496-0.362-2.496-0.362
	l0.627,1.206c0.591,1.206,1.206,1.688,1.206,1.688s3.352-1.206,5.125-1.688c2.074-0.482,5.173-0.965,5.173-0.965l0.663-0.12
	l-0.567,0.965c-0.157,0.362-0.748,1.206-1.821,2.653h-0.012c-1.7,2.291-3.244,4.1-5.101,5.909c-2.653,2.653-4.775,4.462-7.766,6.271
	l0.097,0.241c2.882-1.085,4.582-2.05,6.849-3.617l-0.06,0.12c3.22-2.291,6.054-5.064,9.297-9.164l2.098-2.894l-2.086-2.291
	L482.882,150.731"/>
<path d="M493.12,160.86l1.073-0.844l0.41-1.327l0.35-1.326l0.506-2.05c0.374-1.447,0.724-2.411,0.953-2.894l0.422-0.723l0.012-0.121
	l-0.301-0.965l-2.798-0.965l-0.916,0.121l1.182,1.206c0.193,0.482,0.096,1.206-0.337,2.894c-0.446,1.688-0.965,3.135-1.399,3.738
	l-0.29,0.603l0.133,1.567L493.12,160.86"/>
<path d="M502.393,149.525c0.12,0.482,0.06,1.327-0.639,3.859c-1.423,5.306-2.207,7.235-3.883,9.406
	c-1.568,1.929-3.545,3.618-6.391,5.185l0.073,0.241c4.57-1.327,8.055-3.859,9.997-7.114c0.747-1.327,1.169-2.412,2.122-5.788
	c0.892-3.015,2.315-7.235,2.315-7.235h-4.015L502.393,149.525"/>
<path d="M510.074,160.016l1.628-1.688c0.314-1.206-0.47-2.05-2.99-3.135l-0.193,0.121c0.7,1.085,0.929,1.929,1.025,3.859
	L510.074,160.016"/>
<path d="M513.776,158.569l0.446,0.362l1.737-1.809l-0.422-1.568c-0.543-0.603-1.23-0.965-2.376-1.447l-0.205,0.241
	c0.591,0.844,0.784,1.568,0.796,3.135L513.776,158.569"/>
<path d="M519.371,155.434c-0.217,0.844-1.749,3.015-3.449,4.944c-2.593,3.015-5.149,5.185-8.019,6.994l0.121,0.241
	c1.724-0.603,3.328-1.447,4.872-2.532c2.569-1.688,4.679-3.618,7.392-6.994l2.086-2.291l-2.834-1.929L519.371,155.434"/>
<path d="M537.604,153.263l1.157-1.206c0.301-1.085-0.519-1.809-3.316-2.894l-0.193,0.241c1.049,0.965,1.435,1.688,1.869,3.256
	L537.604,153.263"/>
<polyline points="539.026,149.043 539.87,150.852 540.304,151.214 541.329,150.128 540.461,148.561 537.953,147.596 
	537.784,147.837 539.026,149.043 "/>
<path d="M533.612,160.016l0.892,0.844l1.459-1.688l-1.085-2.291c-1.182-0.482-3.171-0.965-5.221-1.085l0.41-1.447l1.7-5.909h-3.786
	l0.567,1.447c0.121,0.482,0.036,1.206-0.856,4.582c-0.892,3.376-1.531,5.667-2.038,7.235c-0.422,1.206-0.76,2.05-1.085,2.532
	l-0.422,0.844l-0.048,0.482l0.024,0.241l0.024,0.241l0.012,0.121l0.29,0.844l1.001,0.844h0.06l0.965-0.603l0.518-1.326l0.265-1.085
	c0.519-2.171,0.639-2.653,0.892-3.618l0.325-1.085l0.832-3.135l0.133-0.482C531.14,157.122,532.587,158.449,533.612,160.016"/>
</svg>
