<?xml version="1.0" encoding="utf-8"?>
<!-- Generator: Adobe Illustrator 27.2.0, SVG Export Plug-In . SVG Version: 6.00 Build 0)  -->
<svg version="1.1" id="레이어_1" xmlns="http://www.w3.org/2000/svg" xmlns:xlink="http://www.w3.org/1999/xlink" x="0px"
	 y="0px" viewBox="0 0 720 194.722" enable-background="new 0 0 720 194.722" xml:space="preserve">
<path fill="#007F5E" d="M370.135,108.774c-1.335-1.393-3.203-2.254-5.293-2.254H272.16c-7.392,0-13.42,6.018-13.42,13.42
	c0,3.541,1.393,6.773,3.638,9.182l3.193,3.532c2.39,2.254,5.621,3.648,9.182,3.648h92.683c4.083,0,7.392-3.328,7.392-7.411v-12.036
	c0-1.945-0.755-3.715-1.993-5.041L370.135,108.774z"/>
<path fill="#007F5E" d="M597.016,32.457l-2.854-3.222c-2.545-2.564-6.076-4.151-9.976-4.151c-6.724,0-12.346,4.731-13.749,11.04
	c-0.31-0.542-0.687-1.055-1.122-1.48l-2.535-2.864c-1.335-1.432-3.241-2.322-5.322-2.322h-53.622c-4.083,0-7.402,3.328-7.402,7.411
	v12.037c0,1.983,0.784,3.773,2.051,5.099l2.632,2.961c0.648,0.687,1.432,1.239,2.312,1.625l-11.669,36.119
	c-1.916,5.699-1.384,11.233,1.451,15.191c0.3,0.406,0.648,0.832,1.055,1.258l2.68,3.048c2.158,2.254,5.834,4.432,11.978,4.432
	h57.163v12.559c0,1.838,0.677,3.512,1.8,4.799l2.961,3.358c1.345,1.335,3.183,2.177,5.225,2.177h13.41
	c4.073,0,7.402-3.309,7.402-7.402V42.132C600.887,38.378,599.406,34.992,597.016,32.457 M530.235,88.865l9.424-29.627h24.363
	c2.516,0,4.722-1.248,6.067-3.154v32.771L530.235,88.865z"/>
<path fill="#007F5E" d="M717.871,111.688l-2.487-2.806c-1.345-1.451-3.261-2.361-5.389-2.361h-27.846
	c15.829-5.786,25.776-19.941,25.776-37.435c0-9.801-3.386-18.548-9.153-25.35l-4.528-5.031c-6.047-6.173-14.262-10.411-23.734-11.93
	c-0.203-1.297-0.793-2.458-1.664-3.328l-2.67-3.019c-1.103-1.045-2.612-1.674-4.325-1.674c-0.91,0-1.664,0.184-2.148,0.31
	c-39.447,11.823-39.564,43.627-39.447,47.178c0.019,11.069,4.044,20.793,10.972,27.895c4.238,5.37,9.966,9.54,16.797,12.143v0.242
	h-30.701c-7.402,0-13.42,6.018-13.42,13.42c0,3.58,1.413,6.841,3.706,9.25l2.806,3.154c2.429,2.438,5.786,3.957,9.492,3.957h92.692
	c4.073,0,7.402-3.328,7.402-7.412v-12.036C720,114.842,719.187,113.023,717.871,111.688 M665.381,55.114
	c4.276,0,7.944,1.306,10.624,3.542c1.384,2.129,2.158,4.693,2.158,7.566c0,8.205-6.473,14.156-15.365,14.156
	c-4.219,0-7.857-1.326-10.556-3.609c-1.422-2.158-2.235-4.751-2.235-7.634C650.007,60.881,656.335,55.114,665.381,55.114"/>
<path fill="#007F5E" d="M488.688,97.728l-2.787-3.115c-1.326-1.364-3.174-2.206-5.215-2.206h-1.442
	c0.01-0.164,0.029-0.329,0.029-0.503V79.857c0-2.254-1.026-4.248-2.622-5.602c1.596-1.354,2.622-3.357,2.622-5.602V56.607
	c0-2.254-1.026-4.248-2.622-5.602c1.596-1.374,2.622-3.358,2.622-5.602V33.356c0-1.983-0.784-3.764-2.042-5.099l-2.68-2.999
	c-1.345-1.384-3.203-2.245-5.263-2.245h-72.973c-4.093,0-7.411,3.319-7.411,7.402v12.046c0,1.935,0.764,3.696,1.993,5.031
	l2.806,3.145c0.542,0.522,1.19,0.987,1.877,1.345l-7.924,23.396c-1.935,5.689-1.403,11.224,1.442,15.191
	c0.213,0.281,0.436,0.552,0.687,0.871l0.871,0.968h-2.661c-7.402,0-13.42,6.028-13.42,13.43c0,3.328,1.219,6.357,3.222,8.699
	l3.058,3.464c2.438,2.574,5.902,4.18,9.724,4.18h8.747v9.018c0,1.964,0.774,3.754,2.032,5.07l2.719,3.058
	c1.335,1.364,3.174,2.206,5.234,2.206h13.41c4.083,0,7.392-3.309,7.392-7.402v-11.95h8.021v9.018c0,1.945,0.764,3.715,1.993,5.031
	l2.932,3.251c1.306,1.277,3.096,2.051,5.07,2.051h13.401c4.083,0,7.402-3.309,7.402-7.402v-11.95h14.349
	c4.064,0,7.382-3.299,7.382-7.382V102.74C490.662,100.815,489.917,99.054,488.688,97.728"/>
<path fill="#007F5E" d="M343.612,39.599c-2.438-2.448-6.076-4.393-11.533-4.393h-7.673c0.155-0.426,0.31-0.822,0.435-1.181
	l0.097-0.232l0.068-0.232c0.571-2.061,0.193-4.17-1.016-5.766c-0.135-0.155-0.271-0.3-0.397-0.445l-2.719-3.067
	c-1.258-1.297-3.067-2.022-5.07-2.022h-14.533c-3.851,0-6.425,2.593-7.324,5.205c-2.912,7.654-25.07,64.246-25.36,65.078
	c-0.803,2.158-0.581,4.383,0.639,6.125c0.116,0.174,0.252,0.348,0.397,0.493l2.893,3.27c1.161,1.161,2.787,1.819,4.586,1.819h15.113
	c1.829,0,5.186-0.619,7.112-4.77l0.087-0.203c0.232-0.571,6.889-17.523,13.43-34.281h11.611c4.838,14.204,8.621,24.46,10.972,30.778
	l0.116,0.29c0.348,1.045,0.91,1.974,1.606,2.728l2.874,3.241c1.384,1.403,3.299,2.206,5.418,2.206h15.094
	c2.196,0,4.132-0.968,5.302-2.67c1.2-1.713,1.432-3.958,0.639-6.115c-0.464-1.258-9.327-25.814-15.51-44.324
	c-0.532-1.684-1.635-5.167-4.315-8.108L343.612,39.599z"/>
<path fill="#007F5E" d="M1.904,154.072c-0.716,0-1.287,0.59-1.287,1.306v2.777c0,0.697,0.571,1.287,1.287,1.287H718.44
	c0.697,0,1.287-0.59,1.287-1.287v-2.777c0-0.716-0.59-1.306-1.287-1.306H1.904z"/>
<path fill="#007F5E" d="M518.481,177.41c0,0.194-0.165,0.348-0.348,0.348h-20.454c-0.203,0-0.368-0.155-0.368-0.348v-3.86
	c0-0.184,0.164-0.348,0.368-0.348h20.454c0.184,0,0.348,0.164,0.348,0.348V177.41z"/>
<path fill="#007F5E" d="M510.243,176.73c0.184,0,0.348,0.145,0.348,0.348v16.913c0,0.213-0.164,0.358-0.348,0.358h-3.851
	c-0.194,0-0.358-0.145-0.358-0.358v-16.913c0-0.203,0.164-0.348,0.358-0.348H510.243z"/>
<path fill="#007F5E" d="M659.74,173.196c-0.3,0-0.561,0.242-0.561,0.552v20.057c0,0.29,0.261,0.552,0.561,0.552h3.589
	c0.31,0,0.561-0.261,0.561-0.552v-20.057c0-0.309-0.251-0.552-0.561-0.552H659.74z"/>
<path fill="#007F5E" d="M384.46,180.462c-0.3,0-0.561,0.242-0.561,0.561v12.762c0,0.31,0.261,0.571,0.561,0.571h3.58
	c0.3,0,0.561-0.261,0.561-0.571v-12.762c0-0.319-0.261-0.561-0.561-0.561H384.46z"/>
<path fill="#007F5E" d="M344.839,180.462c-0.3,0-0.561,0.252-0.561,0.561v12.782c0,0.309,0.261,0.551,0.561,0.551h3.59
	c0.3,0,0.561-0.242,0.561-0.551v-12.782c0-0.31-0.261-0.561-0.561-0.561H344.839z"/>
<path fill="#007F5E" d="M310.824,174.539c-0.02-1.006-1.161-1.838-2.584-1.838c-1.209,0-2.206,0.581-2.506,1.374l-6.047,13.4
	l-6.018-13.4h-0.019c-0.29-0.793-1.297-1.374-2.506-1.374c-1.432,0-2.603,0.832-2.603,1.838v19.196c0,0.3,0.261,0.552,0.561,0.552
	h3.599c0.29,0,0.551-0.252,0.551-0.552v-9.124c0,0,3.328,7.363,3.338,7.402c0.474,0.9,1.558,2.215,3.174,2.215
	c1.587,0,2.506-0.89,3.135-2.177c0.097-0.184,3.232-7.441,3.232-7.441v9.124c0,0.3,0.251,0.552,0.551,0.552h3.59
	c0.329,0,0.571-0.252,0.571-0.552C310.843,193.736,310.862,175.536,310.824,174.539"/>
<path fill="#007F5E" d="M349.386,175.238c0,1.568-1.268,2.845-2.835,2.845c-1.567,0-2.845-1.277-2.845-2.845
	c0-1.567,1.277-2.844,2.845-2.844C348.118,172.393,349.386,173.67,349.386,175.238"/>
<path fill="#007F5E" d="M389.145,175.238c0,1.568-1.277,2.845-2.835,2.845c-1.577,0-2.845-1.277-2.845-2.845
	c0-1.567,1.267-2.844,2.845-2.844C387.868,172.393,389.145,173.67,389.145,175.238"/>
<path fill="#007F5E" d="M465.284,177.761c0.174,0,0.319-0.164,0.319-0.348v-3.87c0-0.174-0.145-0.348-0.319-0.348H446.9
	c-0.01,0-0.019,0.019-0.019,0.019c-1.364,0.039-2.448,1.132-2.448,2.496c0,0.058,0.01,8.244,0.01,8.244
	c0.077,1.287,1.151,2.322,2.487,2.322h0.116h13.991v3.522h-16.284c-0.174,0-0.31,0.155-0.31,0.339v3.86
	c0,0.203,0.135,0.358,0.31,0.358c0,0,18.403,0,18.413-0.01c1.335-0.058,2.4-1.132,2.4-2.477c0-0.029,0-7.915-0.029-7.953
	c-0.135-1.171-1.064-2.119-2.245-2.206c-0.039-0.019-14.281-0.019-14.281-0.019v-3.928H465.284z"/>
<path fill="#007F5E" d="M571.337,191.895c0-0.116,0.019-18.616,0.019-18.616c0-0.164-0.165-0.3-0.348-0.3h-3.851
	c-0.194,0-0.358,0.136-0.358,0.3v16.516h-11.611v-16.516c0-0.164-0.155-0.3-0.348-0.3h-3.87c-0.193,0-0.358,0.136-0.358,0.3
	c0,0-0.01,18.413-0.01,18.568c0,1.335,1.026,2.438,2.341,2.496c0,0,0.019,0.01,0.048,0.01h15.994l0.019-0.01
	C570.341,194.285,571.337,193.23,571.337,191.895"/>
<path fill="#007F5E" d="M626.426,175.352c0-1.403-1.113-2.506-2.487-2.506c-0.106,0-18.219,0.039-18.219,0.039
	c-0.203,0-0.358,0.155-0.358,0.339v20.774c0,0.193,0.155,0.358,0.358,0.358h18.277c0.019,0,0.029-0.009,0.029-0.009
	c1.326-0.058,2.4-1.152,2.4-2.477V175.352z M621.859,189.788h-11.92v-12.336h11.92V189.788z"/>
<path fill="#007F5E" d="M718.819,175.719c0-1.374-1.103-2.458-2.467-2.458c-0.106,0-16.1,0.02-16.129,0.02
	c-1.355,0.029-2.438,1.122-2.438,2.496c0,0.058-0.048,16.255-0.048,16.419c0,1.384,1.113,2.477,2.506,2.477
	c0.029,0,16.216,0.048,16.216,0.048c1.326-0.087,2.361-1.171,2.361-2.487V175.719z M702.331,177.829h11.92v12.336h-11.92V177.829z"
	/>
<path fill="#007F5E" d="M133.04,30.018c0.426-11.166-11.185-18.741-12.017-19.303c-4.412-2.999-9.859-4.46-16.12-4.46
	c-4.741,0-9.54,1.664-13.497,4.664c-4.18,3.183-7.141,7.586-8.563,12.743c-0.871,2.642-10.392,31.513-16.748,51.358
	c-6.357-19.738-15.123-46.346-15.916-48.716c-1.461-5.254-4.48-9.724-8.747-12.975c-0.445-0.339-0.919-0.658-1.384-0.977
	c-0.552-0.484-1.113-0.968-1.703-1.432c-3.957-2.999-8.756-4.664-13.488-4.664c-6.27,0-12.104,1.722-16.42,4.838
	C3.183,14.876,0.261,20.459,0,27.222v0.174v105.348c0,1.171,0.397,2.284,1.122,3.096H1.103l2.728,3.309l0.242,0.29
	c0.9,0.764,2.042,1.248,3.309,1.248h21.954c2.816,0,5.099-2.303,5.099-5.128V84.869c5.583,18.142,10.643,33.99,11.282,35.616
	c3.628,10.421,11.669,19.39,21.964,19.419c5.002,0.029,9.676-2.206,13.507-6.396c3.096-3.377,5.031-7.315,6.115-10.033
	c1.074-2.69,5.554-17.01,11.311-35.732v45.001c0,1.287,0.697,2.554,1.2,3.299c0.484,0.755,2.245,2.777,2.874,3.425
	c0.61,0.697,2.061,1.219,3.309,1.219h21.954c2.816,0,5.099-2.303,5.099-5.128V30.212C133.049,30.144,133.04,30.086,133.04,30.018"/>
<path fill="#007F5E" d="M233.044,47.575c-0.697-0.145-0.822-0.126-0.822-0.126c-0.106-0.019-0.851-0.039-0.958-0.039h-22.593
	c-3.028,0-5.476,2.332-5.476,5.196v82.62c0,0,0.029,0.658,0.223,1.316c0.184,0.668,0.9,1.935,1.8,2.912
	c0.9,0.977,1.984,0.977,3.454,0.977h23.231c3.019,0,5.467-2.342,5.467-5.196v-82.63C237.359,49.316,234.176,47.759,233.044,47.575
	 M180.786,47.575c-0.697-0.145-0.822-0.126-0.822-0.126c-0.106-0.019-0.842-0.039-0.958-0.039h-22.593
	c-3.019,0-5.467,2.332-5.467,5.196v82.62c0,0,0.029,0.658,0.213,1.316c0.184,0.668,0.9,1.935,1.79,2.912
	c0.91,0.977,2.003,0.977,3.464,0.977h23.231c3.019,0,5.467-2.342,5.467-5.196v-82.63C185.101,49.316,181.927,47.759,180.786,47.575
	 M179.305,3.802C175.687,1.345,171.323,0,166.717,0c-11.727,0-21.257,9.269-21.257,20.677c0,6.434,3.038,12.172,7.789,15.984
	c3.986,4.567,9.947,7.489,16.594,7.489c5.921,0,11.475-2.138,15.616-6.038C189.678,34.135,192,28.756,192,22.98
	c0-5.786-2.322-11.146-6.541-15.133C183.65,6.144,181.569,4.799,179.305,3.802 M205.11,36.661c4.006,4.567,9.956,7.489,16.603,7.489
	c5.921,0,11.466-2.138,15.597-6.038c4.228-3.977,6.56-9.356,6.56-15.133c0-5.786-2.332-11.146-6.55-15.133
	c-1.809-1.703-3.89-3.048-6.154-4.044C227.538,1.345,223.194,0,218.588,0c-11.727,0-21.267,9.269-21.267,20.677
	C197.321,27.111,200.359,32.849,205.11,36.661"/>
<g>
	<defs>
		<path id="SVGID_1_" d="M87.573,25.69c0,0-19.738,59.718-22.06,68.3v-0.029c0,0.009-0.01,0.029-0.01,0.029
			c-0.039-0.058-0.126-0.039-0.194-0.01c-0.058,0.019-0.106,0.039-0.106,0.01c-2.341-8.582-22.07-68.3-22.07-68.3
			c-2.409-8.805-10.179-14.001-17.571-14.001c-10.024,0-19.699,5.032-20.145,16.41v104.438h21.818V46.869c0-0.348,0.581-0.668,0.9,0
			c4.964,16.168,20.445,66.916,22.399,71.812c1.964,4.886,6.763,13.091,14.842,13.091c8.069,0,12.83-8.205,14.794-13.091
			c1.954-4.896,17.435-55.644,22.399-71.812c0.319-0.668,0.89-0.348,0.89,0v85.668h21.828V28.099
			c-0.435-11.378-10.111-16.41-20.135-16.41C97.761,11.689,89.992,16.885,87.573,25.69"/>
	</defs>
	<clipPath id="SVGID_00000065787695571235314070000008862840040605454499_">
		<use xlink:href="#SVGID_1_"  overflow="visible"/>
	</clipPath>
	
		<linearGradient id="SVGID_00000001654943615751206940000012624721572792102793_" gradientUnits="userSpaceOnUse" x1="-120.3075" y1="-56.8119" x2="-110.6319" y2="-56.8119" gradientTransform="matrix(0 15.5211 15.5211 0 947.1354 1864.5067)">
		<stop  offset="0" style="stop-color:#FFFFFF"/>
		<stop  offset="0.2858" style="stop-color:#FFFFFF"/>
		<stop  offset="0.448" style="stop-color:#FCFEFD"/>
		<stop  offset="0.5628" style="stop-color:#F3FAF8"/>
		<stop  offset="0.663" style="stop-color:#E3F3EE"/>
		<stop  offset="0.7549" style="stop-color:#CDEAE1"/>
		<stop  offset="0.841" style="stop-color:#B1DED0"/>
		<stop  offset="0.9217" style="stop-color:#8ECFBB"/>
		<stop  offset="0.999" style="stop-color:#66BEA2"/>
		<stop  offset="1" style="stop-color:#65BEA2"/>
	</linearGradient>
	
		<rect x="5.417" y="11.689" clip-path="url(#SVGID_00000065787695571235314070000008862840040605454499_)" fill="url(#SVGID_00000001654943615751206940000012624721572792102793_)" width="119.871" height="120.848"/>
</g>
<path fill="#FFFFFF" d="M150.464,20.295c0,8.892,7.489,16.1,16.7,16.1c9.569,0,17.077-7.063,17.077-16.1
	c0-9.037-7.508-16.11-17.077-16.11C157.953,4.186,150.464,11.404,150.464,20.295"/>
<path fill="#FFFFFF" d="M202.333,20.295c0,8.892,7.479,16.1,16.7,16.1c9.559,0,17.077-7.063,17.077-16.1
	c0-9.037-7.518-16.11-17.077-16.11C209.812,4.186,202.333,11.404,202.333,20.295"/>
<g>
	<defs>
		<rect id="SVGID_00000136407261248555948210000013300323623506139805_" x="156.144" y="52.307" width="21.557" height="80.607"/>
	</defs>
	<clipPath id="SVGID_00000028299511745399421570000015085901401392588421_">
		<use xlink:href="#SVGID_00000136407261248555948210000013300323623506139805_"  overflow="visible"/>
	</clipPath>
	
		<linearGradient id="SVGID_00000114769401549789057890000005050061548892657811_" gradientUnits="userSpaceOnUse" x1="-120.2837" y1="-50.9436" x2="-110.6081" y2="-50.9436" gradientTransform="matrix(0 15.5203 15.5203 0 957.5812 1864.429)">
		<stop  offset="0" style="stop-color:#FFFFFF"/>
		<stop  offset="0.2833" style="stop-color:#FFFFFF"/>
		<stop  offset="0.446" style="stop-color:#FCFEFD"/>
		<stop  offset="0.5613" style="stop-color:#F3FAF8"/>
		<stop  offset="0.6618" style="stop-color:#E3F3EE"/>
		<stop  offset="0.754" style="stop-color:#CDEAE1"/>
		<stop  offset="0.8405" style="stop-color:#B1DED0"/>
		<stop  offset="0.9215" style="stop-color:#8ECFBB"/>
		<stop  offset="0.9989" style="stop-color:#66BEA2"/>
		<stop  offset="1" style="stop-color:#65BEA2"/>
	</linearGradient>
	
		<rect x="156.144" y="52.307" clip-path="url(#SVGID_00000028299511745399421570000015085901401392588421_)" fill="url(#SVGID_00000114769401549789057890000005050061548892657811_)" width="21.557" height="80.608"/>
</g>
<g>
	<defs>
		<rect id="SVGID_00000085245288816864569880000012100036600915216542_" x="208.005" y="52.307" width="21.567" height="80.607"/>
	</defs>
	<clipPath id="SVGID_00000067951811049081156740000006247307731435251841_">
		<use xlink:href="#SVGID_00000085245288816864569880000012100036600915216542_"  overflow="visible"/>
	</clipPath>
	
		<linearGradient id="SVGID_00000168823949230847260510000013950678194400645284_" gradientUnits="userSpaceOnUse" x1="-120.2837" y1="-47.9471" x2="-110.6081" y2="-47.9471" gradientTransform="matrix(0 15.5203 15.5203 0 962.9415 1864.429)">
		<stop  offset="0" style="stop-color:#FFFFFF"/>
		<stop  offset="0.2776" style="stop-color:#FFFFFF"/>
		<stop  offset="0.4416" style="stop-color:#FCFEFD"/>
		<stop  offset="0.5578" style="stop-color:#F3FAF8"/>
		<stop  offset="0.6591" style="stop-color:#E3F3EE"/>
		<stop  offset="0.7521" style="stop-color:#CDEAE1"/>
		<stop  offset="0.8392" style="stop-color:#B1DED0"/>
		<stop  offset="0.9208" style="stop-color:#8ECFBB"/>
		<stop  offset="0.9989" style="stop-color:#66BEA2"/>
		<stop  offset="1" style="stop-color:#65BEA2"/>
	</linearGradient>
	
		<rect x="208.005" y="52.307" clip-path="url(#SVGID_00000067951811049081156740000006247307731435251841_)" fill="url(#SVGID_00000168823949230847260510000013950678194400645284_)" width="21.567" height="80.608"/>
</g>
<path fill="#007F5E" d="M170.009,17.121c0.01,1.49,1.258,2.709,2.767,2.709c1.519-0.029,2.738-1.277,2.719-2.787
	c-0.029-1.509-1.267-2.728-2.767-2.709C171.209,14.354,169.99,15.602,170.009,17.121"/>
<path fill="#007F5E" d="M158.482,17.234c0.01,1.509,1.258,2.729,2.767,2.69c1.519,0,2.738-1.248,2.719-2.748
	c-0.019-1.509-1.267-2.729-2.767-2.719C159.681,14.486,158.462,15.725,158.482,17.234"/>
<path fill="#007F5E" d="M170.367,23.678c-3.416,2.593-6.125,0.436-6.425,0.174c-0.764-0.638-1.925-0.561-2.583,0.194
	c-0.658,0.764-0.6,1.916,0.165,2.583c1.761,1.558,6.338,3.56,11.069,0c0.803-0.619,0.968-1.771,0.348-2.583
	C172.331,23.243,171.189,23.078,170.367,23.678"/>
<path fill="#007F5E" d="M222.062,14.456c0.019,1.49,1.267,2.719,2.777,2.7c1.509-0.019,2.729-1.268,2.719-2.767
	c-0.029-1.519-1.258-2.728-2.777-2.719C223.262,11.689,222.052,12.937,222.062,14.456"/>
<path fill="#007F5E" d="M210.548,14.559c0.01,1.519,1.248,2.748,2.767,2.729c1.509-0.019,2.728-1.268,2.709-2.777
	c-0.01-1.509-1.258-2.729-2.767-2.719C211.738,11.821,210.528,13.06,210.548,14.559"/>
<path fill="#007F5E" d="M222.625,27.429c-3.406,2.584-6.115,0.426-6.415,0.184c-0.774-0.668-1.925-0.581-2.593,0.184
	c-0.668,0.755-0.59,1.906,0.165,2.583c1.761,1.558,6.338,3.551,11.069,0c0.813-0.619,0.977-1.771,0.368-2.583
	C224.599,26.975,223.447,26.82,222.625,27.429"/>
<path fill="#FFFFFF" d="M584.188,30.311c-4.906,0-8.873,3.977-8.873,8.882v54.88l-54.59,0.009c-1.287,0-0.851-1.238-0.851-1.238
	l13.265-41.76h28.311c1.18,0,2.177-0.987,2.177-2.177V36.871c0-1.209-0.997-2.187-2.177-2.187h-53.622
	c-1.19,0-2.167,0.977-2.167,2.187v12.037c0,1.19,0.977,2.177,2.167,2.177h7.46l-14.572,45.301
	c-2.07,6.144-0.948,14.088,9.618,14.088h64.981v20.725c0,1.19,0.987,2.167,2.177,2.167h13.401c1.2,0,2.187-0.977,2.187-2.167V39.193
	C593.079,34.287,589.103,30.311,584.188,30.311"/>
<path fill="#FFFFFF" d="M710,111.74h-38.993v-11.175c1.229-0.223,1.993-0.387,1.993-0.387c16.507-3.754,27.111-17.135,27.111-34.01
	c0-20.009-15.674-34.813-37.309-34.813v-6.502c0-1.248-1.442-0.861-1.587-0.813c-38.073,11.398-35.742,42.128-35.742,42.128
	c0,16.874,10.633,30.255,27.15,34.01c0.203,0.058,0.416,0.116,0.619,0.164v11.398h-35.916c-4.538,0-8.215,3.667-8.215,8.205
	c0,4.528,3.677,8.176,8.215,8.176H710c1.209,0,2.187-0.958,2.187-2.158v-12.036C712.187,112.727,711.21,111.74,710,111.74
	 M642.203,66.226c0-11.04,8.65-19.206,20.599-19.206c11.92,0,20.59,8.166,20.59,19.206c0,11.03-8.669,19.342-20.59,19.342
	C650.853,85.568,642.203,77.257,642.203,66.226"/>
<path fill="#FFFFFF" d="M480.687,97.634h-92.692c-4.528,0-8.195,3.667-8.195,8.205c0,4.509,3.667,8.195,8.195,8.195h16.555v17.165
	c0,1.19,0.977,2.167,2.158,2.167h13.43c1.19,0,2.177-0.977,2.177-2.167v-17.165h21.044v17.165c0,1.19,0.997,2.167,2.167,2.167h13.43
	c1.19,0,2.167-0.977,2.167-2.167v-17.165h19.564c1.19,0,2.177-0.987,2.177-2.177V99.812
	C482.864,98.622,481.877,97.634,480.687,97.634"/>
<path fill="#FFFFFF" d="M402.223,91.143h67.071c1.19,0,2.177-0.987,2.177-2.177V76.92c0-1.2-0.987-2.177-2.177-2.177l-56.689,0.01
	c-1.297,0-0.852-1.239-0.852-1.239l1.877-5.621h55.664c1.19,0,2.177-0.987,2.177-2.177V53.679c0-1.209-0.987-2.187-2.177-2.187
	h-50.178l2.284-6.85h47.894c1.19,0,2.177-0.987,2.177-2.177V30.419c0-1.2-0.987-2.177-2.177-2.177h-72.973
	c-1.209,0-2.196,0.977-2.196,2.177v12.046c0,1.19,0.987,2.177,2.196,2.177h7.266l-10.982,32.404
	C390.535,83.199,391.667,91.143,402.223,91.143"/>
<path fill="#FFFFFF" d="M364.844,111.742h-92.683c-4.528,0-8.195,3.667-8.195,8.205c0,4.518,3.667,8.176,8.195,8.176h92.683
	c1.19,0,2.187-0.958,2.187-2.158v-12.036C367.03,112.729,366.034,111.742,364.844,111.742"/>
<path fill="#FFFFFF" d="M274.512,96.094h15.104c1.209,0,1.984-0.6,2.39-1.751c0.232-0.542,7.808-20.009,14.629-37.512h18.742
	c1.606,0,2.187,1.055,2.361,1.587c6.444,19.284,12.559,35.442,12.723,35.916c0.339,1.074,1.19,1.742,2.38,1.742h15.103
	c1.219,0,1.364-0.89,1.045-1.742c-0.164-0.474-9.24-25.534-15.607-44.585c-1.364-4.441-3.745-9.327-11.311-9.327h-19.051
	c2.603-6.657,4.373-11.185,4.373-11.185c0.3-1.132-0.387-1.751-1.587-1.751h-14.533c-1.877,0-2.4,1.732-2.4,1.732
	s-25.089,64.275-25.398,65.126C273.167,95.194,273.322,96.094,274.512,96.094"/>
<g>
	<defs>
		<path id="SVGID_00000128477071708444197320000013681092287119828660_" d="M575.31,39.197v54.88l-54.58,0.01
			c-1.297,0-0.861-1.239-0.861-1.239l13.265-41.76h28.32c1.171,0,2.177-0.987,2.177-2.177V36.874c0-1.209-1.006-2.187-2.177-2.187
			h-53.622c-1.19,0-2.177,0.977-2.177,2.187v12.037c0,1.19,0.987,2.177,2.177,2.177h7.46l-14.571,45.301
			c-2.071,6.144-0.948,14.088,9.617,14.088h64.972v20.725c0,1.19,0.987,2.167,2.177,2.167h13.41c1.2,0,2.177-0.977,2.177-2.167
			V39.197c0-4.915-3.977-8.882-8.882-8.882C579.287,30.314,575.31,34.282,575.31,39.197"/>
	</defs>
	<clipPath id="SVGID_00000022560877803365747220000016455674034547709842_">
		<use xlink:href="#SVGID_00000128477071708444197320000013681092287119828660_"  overflow="visible"/>
	</clipPath>
	
		<linearGradient id="SVGID_00000083065735947810428500000016718745948568100021_" gradientUnits="userSpaceOnUse" x1="-120.1875" y1="-28.5109" x2="-110.5119" y2="-28.5109" gradientTransform="matrix(0 15.4512 15.4512 0 986.3903 1854.3285)">
		<stop  offset="0" style="stop-color:#FFFFFF"/>
		<stop  offset="0.0085" style="stop-color:#FFFFFF"/>
		<stop  offset="0.3374" style="stop-color:#FFFFFF"/>
		<stop  offset="0.4981" style="stop-color:#FCFEFD"/>
		<stop  offset="0.6045" style="stop-color:#F3FAF8"/>
		<stop  offset="0.6952" style="stop-color:#E4F4EF"/>
		<stop  offset="0.7771" style="stop-color:#CFEBE2"/>
		<stop  offset="0.8531" style="stop-color:#B4DFD1"/>
		<stop  offset="0.9248" style="stop-color:#92D1BD"/>
		<stop  offset="0.9918" style="stop-color:#6AC0A5"/>
		<stop  offset="1" style="stop-color:#65BEA2"/>
	</linearGradient>
	
		<rect x="498.65" y="30.315" clip-path="url(#SVGID_00000022560877803365747220000016455674034547709842_)" fill="url(#SVGID_00000083065735947810428500000016718745948568100021_)" width="94.424" height="103.055"/>
</g>
<g>
	<defs>
		<path id="SVGID_00000029015421307716164300000002237194878644836243_" d="M642.198,66.23c0-11.04,8.65-19.216,20.609-19.216
			c11.92,0,20.58,8.176,20.58,19.216c0,11.02-8.66,19.341-20.58,19.341C650.848,85.572,642.198,77.251,642.198,66.23 M661.21,24.035
			c-38.064,11.408-35.732,42.128-35.732,42.128c0,16.884,10.624,30.265,27.15,34.019c0.194,0.048,0.416,0.107,0.619,0.165v11.398
			h-35.925c-4.528,0-8.215,3.667-8.215,8.205c0,4.518,3.686,8.176,8.215,8.176h92.682c1.209,0,2.177-0.958,2.177-2.158v-12.046
			c0-1.19-0.968-2.177-2.177-2.177h-38.993v-11.185c1.229-0.213,1.993-0.377,1.993-0.377c16.497-3.754,27.111-17.135,27.111-34.019
			c0-20.009-15.675-34.803-37.309-34.803v-6.512c0-0.745-0.503-0.909-0.958-0.909C661.549,23.938,661.268,24.016,661.21,24.035"/>
	</defs>
	<clipPath id="SVGID_00000179605063105573757120000014637048448715868058_">
		<use xlink:href="#SVGID_00000029015421307716164300000002237194878644836243_"  overflow="visible"/>
	</clipPath>
	
		<linearGradient id="SVGID_00000168108414617617132500000002730680297881908879_" gradientUnits="userSpaceOnUse" x1="-120.1875" y1="-21.0823" x2="-110.5119" y2="-21.0823" gradientTransform="matrix(0 15.4512 15.4512 0 986.3903 1854.3285)">
		<stop  offset="0" style="stop-color:#FFFFFF"/>
		<stop  offset="0.0085" style="stop-color:#FFFFFF"/>
		<stop  offset="0.3374" style="stop-color:#FFFFFF"/>
		<stop  offset="0.4981" style="stop-color:#FCFEFD"/>
		<stop  offset="0.6045" style="stop-color:#F3FAF8"/>
		<stop  offset="0.6952" style="stop-color:#E4F4EF"/>
		<stop  offset="0.7771" style="stop-color:#CFEBE2"/>
		<stop  offset="0.8531" style="stop-color:#B4DFD1"/>
		<stop  offset="0.9248" style="stop-color:#92D1BD"/>
		<stop  offset="0.9918" style="stop-color:#6AC0A5"/>
		<stop  offset="1" style="stop-color:#65BEA2"/>
	</linearGradient>
	
		<rect x="609.107" y="23.938" clip-path="url(#SVGID_00000179605063105573757120000014637048448715868058_)" fill="url(#SVGID_00000168108414617617132500000002730680297881908879_)" width="103.074" height="104.187"/>
</g>
<g>
	<defs>
		<path id="SVGID_00000007389812109288523130000002576289774548610730_" d="M388,97.637c-4.528,0-8.195,3.667-8.195,8.205
			c0,4.509,3.667,8.195,8.195,8.195h16.545v17.165c0,1.19,0.987,2.167,2.167,2.167h13.42c1.2,0,2.177-0.977,2.177-2.167v-17.165
			h21.044v17.165c0,1.19,0.997,2.167,2.177,2.167h13.42c1.19,0,2.177-0.977,2.177-2.167v-17.165h19.554
			c1.19,0,2.177-0.987,2.177-2.177V99.805c0-1.181-0.987-2.167-2.177-2.167H388z"/>
	</defs>
	<clipPath id="SVGID_00000142160193568505345670000016428537636913974162_">
		<use xlink:href="#SVGID_00000007389812109288523130000002576289774548610730_"  overflow="visible"/>
	</clipPath>
	
		<linearGradient id="SVGID_00000158017001574937749500000016241872808140850855_" gradientUnits="userSpaceOnUse" x1="-120.1875" y1="-35.9233" x2="-110.5119" y2="-35.9233" gradientTransform="matrix(0 15.4512 15.4512 0 986.3903 1854.3285)">
		<stop  offset="0" style="stop-color:#FFFFFF"/>
		<stop  offset="0.0085" style="stop-color:#FFFFFF"/>
		<stop  offset="0.3374" style="stop-color:#FFFFFF"/>
		<stop  offset="0.4981" style="stop-color:#FCFEFD"/>
		<stop  offset="0.6045" style="stop-color:#F3FAF8"/>
		<stop  offset="0.6952" style="stop-color:#E4F4EF"/>
		<stop  offset="0.7771" style="stop-color:#CFEBE2"/>
		<stop  offset="0.8531" style="stop-color:#B4DFD1"/>
		<stop  offset="0.9248" style="stop-color:#92D1BD"/>
		<stop  offset="0.9918" style="stop-color:#6AC0A5"/>
		<stop  offset="1" style="stop-color:#65BEA2"/>
	</linearGradient>
	
		<rect x="379.805" y="97.637" clip-path="url(#SVGID_00000142160193568505345670000016428537636913974162_)" fill="url(#SVGID_00000158017001574937749500000016241872808140850855_)" width="103.055" height="35.732"/>
</g>
<g>
	<defs>
		<path id="SVGID_00000176013796644107574730000011486707647432865963_" d="M396.321,28.244c-1.209,0-2.196,0.977-2.196,2.177
			v12.046c0,1.19,0.987,2.177,2.196,2.177h7.266l-10.982,32.394c-2.07,6.164-0.939,14.107,9.618,14.107h67.062
			c1.19,0,2.187-0.987,2.187-2.177V76.922c0-1.2-0.997-2.177-2.187-2.177l-56.68,0.01c-1.287,0-0.842-1.238-0.842-1.238l1.858-5.621
			h55.664c1.19,0,2.187-0.987,2.187-2.177V53.681c0-1.209-0.997-2.187-2.187-2.187h-50.168l2.284-6.85h47.884
			c1.19,0,2.187-0.987,2.187-2.177V30.421c0-1.2-0.997-2.177-2.187-2.177H396.321z"/>
	</defs>
	<clipPath id="SVGID_00000178890512372077410980000009255921951661469084_">
		<use xlink:href="#SVGID_00000176013796644107574730000011486707647432865963_"  overflow="visible"/>
	</clipPath>
	
		<linearGradient id="SVGID_00000022548596467287769220000011502867080425669786_" gradientUnits="userSpaceOnUse" x1="-120.1875" y1="-35.9446" x2="-110.5119" y2="-35.9446" gradientTransform="matrix(0 15.4512 15.4512 0 986.3903 1854.3285)">
		<stop  offset="0" style="stop-color:#FFFFFF"/>
		<stop  offset="0.0085" style="stop-color:#FFFFFF"/>
		<stop  offset="0.3374" style="stop-color:#FFFFFF"/>
		<stop  offset="0.4981" style="stop-color:#FCFEFD"/>
		<stop  offset="0.6045" style="stop-color:#F3FAF8"/>
		<stop  offset="0.6952" style="stop-color:#E4F4EF"/>
		<stop  offset="0.7771" style="stop-color:#CFEBE2"/>
		<stop  offset="0.8531" style="stop-color:#B4DFD1"/>
		<stop  offset="0.9248" style="stop-color:#92D1BD"/>
		<stop  offset="0.9918" style="stop-color:#6AC0A5"/>
		<stop  offset="1" style="stop-color:#65BEA2"/>
	</linearGradient>
	
		<rect x="390.535" y="28.244" clip-path="url(#SVGID_00000178890512372077410980000009255921951661469084_)" fill="url(#SVGID_00000022548596467287769220000011502867080425669786_)" width="80.936" height="62.901"/>
</g>
<g>
	<defs>
		<path id="SVGID_00000181799764704166242540000001375980338048362632_" d="M272.164,111.744c-4.528,0-8.195,3.667-8.195,8.205
			c0,4.518,3.667,8.176,8.195,8.176h92.683c1.19,0,2.177-0.958,2.177-2.158v-12.046c0-1.19-0.987-2.177-2.177-2.177H272.164z"/>
	</defs>
	<clipPath id="SVGID_00000106129549961571846680000005316310636378561689_">
		<use xlink:href="#SVGID_00000181799764704166242540000001375980338048362632_"  overflow="visible"/>
	</clipPath>
	
		<linearGradient id="SVGID_00000137827923162864546470000016535668152520460192_" gradientUnits="userSpaceOnUse" x1="-120.1875" y1="-43.4202" x2="-110.5119" y2="-43.4202" gradientTransform="matrix(0 15.4512 15.4512 0 986.3903 1854.3285)">
		<stop  offset="0" style="stop-color:#FFFFFF"/>
		<stop  offset="0.0085" style="stop-color:#FFFFFF"/>
		<stop  offset="0.3374" style="stop-color:#FFFFFF"/>
		<stop  offset="0.4981" style="stop-color:#FCFEFD"/>
		<stop  offset="0.6045" style="stop-color:#F3FAF8"/>
		<stop  offset="0.6952" style="stop-color:#E4F4EF"/>
		<stop  offset="0.7771" style="stop-color:#CFEBE2"/>
		<stop  offset="0.8531" style="stop-color:#B4DFD1"/>
		<stop  offset="0.9248" style="stop-color:#92D1BD"/>
		<stop  offset="0.9918" style="stop-color:#6AC0A5"/>
		<stop  offset="1" style="stop-color:#65BEA2"/>
	</linearGradient>
	
		<rect x="263.969" y="111.745" clip-path="url(#SVGID_00000106129549961571846680000005316310636378561689_)" fill="url(#SVGID_00000137827923162864546470000016535668152520460192_)" width="103.055" height="16.381"/>
</g>
<g>
	<defs>
		<path id="SVGID_00000078025176633375723630000008410208706330924954_" d="M301.268,27.48c-1.867,0-2.4,1.742-2.4,1.742
			S273.78,93.496,273.48,94.347c-0.31,0.852-0.155,1.751,1.035,1.751h15.104c1.2,0,1.983-0.6,2.38-1.751
			c0.242-0.551,7.818-20.009,14.639-37.512h18.742c1.597,0,2.187,1.045,2.361,1.587c6.444,19.274,12.549,35.432,12.723,35.916
			c0.339,1.074,1.18,1.742,2.37,1.742h15.113c1.219,0,1.355-0.89,1.055-1.742c-0.174-0.484-9.25-25.544-15.616-44.585
			c-1.364-4.441-3.745-9.327-11.311-9.327h-19.051c2.603-6.666,4.364-11.194,4.364-11.194c0.31-1.132-0.387-1.751-1.577-1.751
			H301.268z"/>
	</defs>
	<clipPath id="SVGID_00000135688888608596902760000000655730468605723816_">
		<use xlink:href="#SVGID_00000078025176633375723630000008410208706330924954_"  overflow="visible"/>
	</clipPath>
	
		<linearGradient id="SVGID_00000183233247540667027020000004685820170807830407_" gradientUnits="userSpaceOnUse" x1="-120.1875" y1="-43.3723" x2="-110.5119" y2="-43.3723" gradientTransform="matrix(0 15.4512 15.4512 0 986.3903 1854.3285)">
		<stop  offset="0" style="stop-color:#FFFFFF"/>
		<stop  offset="0.0085" style="stop-color:#FFFFFF"/>
		<stop  offset="0.3374" style="stop-color:#FFFFFF"/>
		<stop  offset="0.4981" style="stop-color:#FCFEFD"/>
		<stop  offset="0.6045" style="stop-color:#F3FAF8"/>
		<stop  offset="0.6952" style="stop-color:#E4F4EF"/>
		<stop  offset="0.7771" style="stop-color:#CFEBE2"/>
		<stop  offset="0.8531" style="stop-color:#B4DFD1"/>
		<stop  offset="0.9248" style="stop-color:#92D1BD"/>
		<stop  offset="0.9918" style="stop-color:#6AC0A5"/>
		<stop  offset="1" style="stop-color:#65BEA2"/>
	</linearGradient>
	
		<rect x="273.17" y="27.48" clip-path="url(#SVGID_00000135688888608596902760000000655730468605723816_)" fill="url(#SVGID_00000183233247540667027020000004685820170807830407_)" width="86.132" height="68.619"/>
</g>
<g>
</g>
<g>
</g>
<g>
</g>
<g>
</g>
<g>
</g>
<g>
</g>
<g>
</g>
<g>
</g>
<g>
</g>
<g>
</g>
<g>
</g>
<g>
</g>
<g>
</g>
<g>
</g>
<g>
</g>
</svg>
