<?xml version="1.0" encoding="utf-8"?>
<!-- Generator: Adobe Illustrator 27.2.0, SVG Export Plug-In . SVG Version: 6.00 Build 0)  -->
<svg version="1.1" id="레이어_1" xmlns="http://www.w3.org/2000/svg" xmlns:xlink="http://www.w3.org/1999/xlink" x="0px"
	 y="0px" viewBox="0 0 720 190.116" enable-background="new 0 0 720 190.116" xml:space="preserve">
<path fill="#00C900" d="M132.147,75.582c-0.986-2.118-2.412-5.088-3.597-7.276c-1.063-1.98-2.174-3.981-3.255-5.883
	c3.566-4.366,5.572-9.934,5.572-15.878c0-13.526-10.353-24.122-23.586-24.122c-3.839,0-7.422,0.895-10.596,2.49
	C94.56,10.608,82.974,0,68.562,0C54.456,0,43.056,10.172,40.584,24.014c-3.134-1.686-6.709-2.633-10.578-2.633
	c-13.098,0-22.989,10.764-22.989,25.038c0,6.264,1.993,12.281,5.373,16.855c-1.137,1.997-2.308,4.154-3.398,6.238
	c-1.007,1.919-2.187,3.973-3.052,5.447C2.313,77.199,0,81.15,0,85.538C0,94.473,8.062,98.07,12.735,98.07
	c-4.673,10.289,0,18.917,15.61,18.917H46.32c1.66,4.773,8.957,5.637,15.779,5.637h12.926c8.153,0,14.841-1.846,15.809-5.637h18.658
	c15.368,0,20.063-8.629,15.368-18.645c4.695,0,12.74-3.463,12.74-12.498C137.599,81.651,135.493,77.864,132.147,75.582
	 M325.14,114.605h21.848V39.369H325.14V114.605z M288.789,114.605h21.844V39.369h-21.844V114.605z M299.717,3.999
	c-7.055,0-12.779,5.715-12.779,12.761c0,7.055,5.724,12.77,12.779,12.77c7.046,0,12.761-5.715,12.761-12.77
	C312.478,9.714,306.763,3.999,299.717,3.999 M257.43,8.054c-5.568,0-11.75,2.187-16.639,13.371
	c-3.363,7.673-26.374,59.816-26.374,59.816h-0.441c0,0-23.011-52.169-26.383-59.842C182.7,10.241,176.176,8.054,170.95,8.054
	c-7.6,0-14.659,5.023-14.659,17.024v89.528h23.448V55.597h0.467c0,0,18.623,42.347,21.848,49.666
	c3.774,8.607,8.002,10.042,12.139,10.042c4.15,0,8.365-1.435,12.152-10.042c3.225-7.319,21.848-49.666,21.848-49.666h0.454v59.008
	h23.456V25.181C272.102,13.185,265.648,8.054,257.43,8.054 M706.954,74.851c-0.324-15.614-13.924-37.808-40.013-37.808
	c-22.613,0-39.295,19.998-39.295,39.801c0,20.478,17.058,40.073,39.499,40.073c16.362,0,29.794-9.19,35.599-20.629l-17.854-6.286
	c-4.66,5.819-10.353,8.46-17.927,8.46c-7.639,0-16.57-5.028-18.71-14.603h44.327C702.116,83.86,706.954,81.98,706.954,74.851
	 M648.551,68.842c3.398-9.515,11.049-13.319,18.727-13.319c10.855,0,17.011,6.878,19.207,13.319H648.551z M470.338,37.043
	c-22.618,0-39.295,19.998-39.295,39.801c0,20.478,17.063,40.073,39.499,40.073c16.362,0,29.798-9.19,35.599-20.629l-17.849-6.286
	c-4.664,5.819-10.358,8.46-17.931,8.46c-7.634,0-16.57-5.028-18.718-14.603h44.336c9.541,0,14.365-1.881,14.365-9.009
	C510.031,59.237,496.419,37.043,470.338,37.043 M451.957,68.842c3.389-9.515,11.041-13.319,18.718-13.319
	c10.855,0,17.006,6.878,19.211,13.319H451.957z M540.18,46.216h-0.233v-6.852h-21.839v75.241h21.839V80.718
	c0-15.32,7.647-22.363,19.453-22.363h0.731V37.086C551.921,37.086,544.178,40.173,540.18,46.216 M600.917,69.046
	c-8.793-3.428-13.933-4.686-13.933-8.763c0-3.225,3.497-4.872,7.003-4.872c6.545,0,13.366,6.108,13.366,6.108l15.104-10.535
	c-3.64-5.395-14.733-13.967-28.129-13.967c-14.499,0-27.684,9.813-27.684,22.963c0,14.097,10.989,19.972,21.468,24.143
	c10.289,4.102,13.885,4.993,13.885,9.143c0,3.45-3.277,5.157-7.535,5.157c-6.601,0-14.594-7.206-14.594-7.206L564.5,101.969
	c5.188,7.206,16.985,14.923,29.837,14.923c15.446,0,28.618-10.392,28.618-23.478C622.955,79.844,614.43,74.311,600.917,69.046
	 M412.065,39.364l-17.94,45.974h-0.445l-17.936-45.974h-22.959c0,0,25.752,58.58,28.968,65.903
	c3.783,8.603,8.01,10.038,12.152,10.038c4.137,0,8.365-1.435,12.147-10.038c3.225-7.323,28.977-65.903,28.977-65.903H412.065z
	 M336.064,3.999c-7.051,0-12.766,5.715-12.766,12.761c0,7.055,5.715,12.77,12.766,12.77c7.051,0,12.766-5.715,12.766-12.77
	C348.83,9.714,343.115,3.999,336.064,3.999"/>
<path fill="#FFFFFF" d="M37.24,103.285c0,0,1.249-6.13,1.889-11.369c-2.685-1.5-5.944-4.66-5.944-9.783
	c0-8.144,8.157-11.127,9.61-11.127c-0.363-0.622-5.058-8.598-5.058-8.598c-0.151-0.246-0.069-0.558,0.173-0.722
	c4.383-2.996,7.038-9.169,7.038-15.269c0-9.294-5.866-16.989-14.944-16.989c-9.069,0-14.944,7.695-14.944,16.989
	c0,6.1,2.659,12.273,7.046,15.277c0.225,0.151,0.316,0.45,0.173,0.679c-1.759,2.758-3.921,6.415-6.082,10.25
	c-2.118,3.731-4.634,8.59-4.634,8.59c-2.019,0.493-3.515,2.239-3.515,4.323c0,2.477,2.088,4.487,4.69,4.487
	c2.589,0,4.686-2.01,4.686-4.487c0-0.942-0.307-1.816-0.826-2.538c0,0,4.548-8.153,4.673-8.378c0.13-0.22,0.229-0.316,0.329-0.277
	c0.121,0.043,0.156,0.156,0.056,0.484c-0.376,1.271-0.852,2.706-0.852,5.953c0,7.712,1.617,18.148,2.317,22.505
	c-1.63,0.623-2.966,2.412-2.966,3.696c0,1.656,2.01,1.967,4.492,1.967c2.486,0,3.947-0.311,3.947-1.967
	c0-0.878-0.212-1.945-1.046-2.771l0.147-12.632c0.739,0.186,1.686,0.294,2.49,0.294c0.795,0,1.738-0.108,2.481-0.294l0.147,12.632
	c-0.843,0.826-1.038,1.894-1.038,2.771c0,1.656,1.453,1.967,3.93,1.967c2.49,0,4.496-0.311,4.496-1.967
	C40.201,105.697,38.969,103.985,37.24,103.285 M126.028,81.51c0,0-2.654-5.888-4.552-9.389c-1.824-3.372-4.098-7.427-6.169-10.846
	c-0.143-0.234-0.052-0.545,0.182-0.692c4.392-2.931,7.34-7.937,7.34-14.041c0-9.286-6.83-16.077-15.55-16.077
	c-8.711,0-15.562,6.956-15.562,16.077c0,6.104,2.953,11.11,7.358,14.045c0.242,0.16,0.324,0.467,0.182,0.718
	c0,0-4.708,8.421-5.334,9.497c1.682,0,10.059,3.186,10.059,11.339c0,5.114-3.203,8.274-6.169,9.787
	c0.726,5.192,2.084,11.356,2.084,11.356c-1.725,0.7-2.97,2.412-2.97,3.692c0,1.66,2.019,1.971,4.5,1.971
	c2.481,0,3.938-0.311,3.938-1.971c0-0.873-0.203-1.941-1.046-2.767V92.832c0.744,0.182,1.984,0.29,2.788,0.29
	c0.804,0,2.045-0.108,2.788-0.29v11.378c-0.834,0.826-1.042,1.894-1.042,2.767c0,1.66,1.457,1.971,3.943,1.971
	c2.481,0,4.487-0.311,4.487-1.971c0-1.28-1.232-2.992-2.961-3.692c0.765-3.821,2.646-13.293,2.646-20.313
	c0-3.372-0.852-7.933-0.947-8.352c-0.039-0.182,0.009-0.294,0.091-0.337c0.104-0.052,0.246,0,0.329,0.194
	c0.251,0.489,4.561,8.819,4.561,8.819c-0.519,0.726-0.834,1.604-0.834,2.546c0,2.468,2.105,4.483,4.695,4.483
	c2.594,0,4.695-2.014,4.695-4.483C129.556,83.75,128.051,82.016,126.028,81.51 M94.039,76.638c0,0-3.826-8.322-6.463-13.371
	c-2.447-4.66-7.124-11.305-8.685-13.483c-0.173-0.233-0.13-0.562,0.112-0.722c5.992-3.938,9.995-11.136,9.995-19.38
	c0-12.45-9.152-21.645-20.439-21.645c-11.287,0-20.439,9.195-20.439,21.645c0,8.244,4.012,15.441,9.995,19.38
	c0.246,0.16,0.285,0.489,0.121,0.722c-1.565,2.179-6.242,8.823-8.689,13.483c-2.637,5.049-6.471,13.371-6.471,13.371
	c-2.71,0.674-4.716,3-4.716,5.801c0,3.316,2.81,6.004,6.281,6.004c3.471,0,6.29-2.689,6.29-6.004c0-1.262-0.415-2.438-1.12-3.402
	c0,0,7.124-13.327,7.358-13.712c0.242-0.402,0.316-0.549,0.497-0.475c0.238,0.099,0.121,0.316,0.009,0.679
	c-1.085,3.558-1.69,8.858-1.69,11.313c0,4.721,3.549,30.148,3.549,30.148c-2.313,0.934-3.964,3.229-3.964,4.954
	c0,2.218,2.697,2.637,6.009,2.637c3.342,0,5.399-0.419,5.399-2.637c0-1.171-0.385-2.607-1.513-3.705V91.315
	c0.99,0.246,2.023,0.385,3.091,0.385h0.013c1.068,0,2.105-0.138,3.087-0.385v16.924c-1.115,1.098-1.5,2.533-1.5,3.705
	c0,2.218,2.053,2.637,5.386,2.637c3.311,0,6.018-0.419,6.018-2.637c0-1.725-1.66-4.02-3.977-4.954c0,0,3.558-25.427,3.558-30.148
	c0-2.455-0.601-7.755-1.686-11.313c-0.112-0.363-0.238-0.579,0.009-0.679c0.182-0.073,0.264,0.073,0.497,0.475
	c0.225,0.385,7.349,13.712,7.349,13.712c-0.709,0.964-1.124,2.14-1.124,3.402c0,3.316,2.827,6.004,6.294,6.004
	c3.471,0,6.29-2.689,6.29-6.004C98.768,79.639,96.753,77.313,94.039,76.638 M56.619,25.204c-0.022-2.071,1.647-3.748,3.692-3.787
	c2.058-0.017,3.748,1.638,3.748,3.692c0.039,2.066-1.621,3.752-3.683,3.769C58.327,28.9,56.641,27.249,56.619,25.204 M75.705,41.204
	c-1.98,1.794-4.53,2.788-7.137,2.788c-2.615,0-5.149-0.994-7.146-2.788c-0.938-0.834-1.016-2.278-0.173-3.212
	c0.609-0.674,1.937-1.063,2.961-0.333c0.061,0.052,0.333,0.238,0.367,0.277c1.159,0.99,2.538,1.509,3.99,1.509
	c1.448,0,2.827-0.519,3.986-1.509c0.043-0.039,0.303-0.225,0.376-0.277c1.012-0.731,2.347-0.342,2.957,0.333
	C76.721,38.925,76.648,40.369,75.705,41.204 M76.812,28.706c-2.045,0.022-3.726-1.63-3.757-3.674
	c-0.009-2.04,1.63-3.731,3.679-3.757c2.045-0.03,3.735,1.63,3.765,3.675C80.512,26.994,78.852,28.684,76.812,28.706"/>
<path fill="#00C900" d="M704.584,108.099h2.369v6.484h1.375v-6.484h2.373v-1.249h-6.117V108.099z M717.925,106.85l-2.092,5.417
	l-2.062-5.417h-2.101v7.734h1.318v-6.428h0.022l2.347,6.428h0.96l2.347-6.428h0.026v6.428H720v-7.734H717.925z"/>
<path fill="#00C900" d="M295.472,168.588v-8.287c-10.561-1.232-27.338-2.274-39.092-2.391v7.85
	C271.631,166.128,281.976,166.798,295.472,168.588 M252.424,185.365c17.616,0.337,31.389,1.6,47.915,4.301v-8.585
	c-15.645-2.369-30.714-3.614-47.915-3.934V185.365z M412.943,139.339h-4.47v9.554h4.47V139.339z M297.906,141.79
	c-13.25-1.12-29.167-1.911-43.104-1.971v8.166c12.804,0.082,28.687,1.007,43.104,2.27V141.79z M308.605,165.272h48.062v-7.971
	h-48.062V165.272z M415.978,148.893h4.409v-9.554h-4.409V148.893z M517.268,164.118c4.076-6.64,7.012-14.43,8.041-23.621H484.76
	v7.786h30.2c-4.751,17.417-19.298,29.05-33.127,33.062v8.036c10.297-2.494,21.373-8.339,29.893-17.832
	c4.509,7.971,11.633,14.845,20.945,18.446v-8.888C527.012,177.692,520.744,172.457,517.268,164.118 M376.475,142.927
	c0,15.532-2.922,28.92-11.815,37.692v9.437c13.155-7.31,20.404-22.471,20.404-47.375v-3.342h-8.59V142.927z M426.815,165.272h48.062
	v-7.971h-48.062V165.272z M404.967,139.339h-8.646v3.342c0,24.788,7.245,40.065,20.46,47.435v-9.558
	c-8.888-8.771-11.814-22.099-11.814-37.566V139.339z"/>
<g>
</g>
<g>
</g>
<g>
</g>
<g>
</g>
<g>
</g>
<g>
</g>
<g>
</g>
<g>
</g>
<g>
</g>
<g>
</g>
<g>
</g>
<g>
</g>
<g>
</g>
<g>
</g>
<g>
</g>
</svg>
