<?xml version="1.0" encoding="utf-8"?>
<!-- Generator: Adobe Illustrator 27.1.1, SVG Export Plug-In . SVG Version: 6.00 Build 0)  -->
<svg version="1.1" id="레이어_1" xmlns="http://www.w3.org/2000/svg" xmlns:xlink="http://www.w3.org/1999/xlink" x="0px"
	 y="0px" viewBox="0 0 720 145.054" enable-background="new 0 0 720 145.054" xml:space="preserve">
<path fill="#FFFFFF" d="M710.087,63.747V1.668H608.693v1.785C603.615,1.196,597.593,0,590.779,0c-6.165,0-12.33,1.128-17.771,3.428
	v-1.76H446.626l-5.18,7.193l-5.18-7.193L330.586,1.389L320.1,15l-10.477-13.61H107.904L88.778,27.962L69.651,1.389H0v142.477h76.035
	v-32.164l12.743,17.703l12.743-17.703v32.164h208.103l10.477-13.61l10.486,13.61h88.55c3.394,0.766,7.049,1.187,10.957,1.187
	c15.505,0,25.132-5.449,30.48-12.928v11.302h49.109v-17.703c7.327,11.471,20.163,19.093,34.758,19.093
	c7.925,0,15.328-2.249,21.62-6.14v4.775l118.5-0.025v-33.638L720,63.747H710.087z M245.733,111.593v-77.93l30,38.961
	L245.733,111.593z M393.541,34.867v46.482h1.743c-1.12,3.032-1.743,6.434-1.743,10.224c0,2.51,0.211,4.876,0.623,7.108h-1.297
	v10.831l-28.4-36.889L393.541,34.867z"/>
<g>
	<defs>
		<polygon id="SVGID_1_" points="668.144,76.805 660.345,86.937 652.546,76.805 626.876,76.805 647.501,103.613 648.858,105.365 
			648.858,130.412 671.833,130.412 671.833,105.365 673.189,103.613 693.815,76.805 		"/>
	</defs>
	<clipPath id="SVGID_00000065796242362892682610000015921190734884374452_">
		<use xlink:href="#SVGID_1_"  overflow="visible"/>
	</clipPath>
	
		<linearGradient id="SVGID_00000156557252077999878800000013113869073457294249_" gradientUnits="userSpaceOnUse" x1="150.6834" y1="627.6471" x2="159.1056" y2="627.6471" gradientTransform="matrix(113.2251 0 0 -113.2251 -17320.6738 71169.0078)">
		<stop  offset="0" style="stop-color:#ED6C00"/>
		<stop  offset="0.0976" style="stop-color:#F08000"/>
		<stop  offset="0.2272" style="stop-color:#F39300"/>
		<stop  offset="0.3601" style="stop-color:#F49E00"/>
		<stop  offset="0.5" style="stop-color:#F5A200"/>
		<stop  offset="0.5292" style="stop-color:#F5A500"/>
		<stop  offset="1" style="stop-color:#FDD000"/>
	</linearGradient>
	
		<rect x="626.876" y="76.805" clip-path="url(#SVGID_00000065796242362892682610000015921190734884374452_)" fill="url(#SVGID_00000156557252077999878800000013113869073457294249_)" width="66.939" height="53.607"/>
</g>
<g>
	<defs>
		<polygon id="SVGID_00000027563728325467748530000015173983045040162436_" points="453.43,14.65 441.521,31.183 429.612,14.65 
			406.628,14.65 406.628,68.257 429.612,68.257 429.612,40.759 441.521,57.3 453.43,40.759 453.43,68.257 476.414,68.257 
			476.414,14.65 		"/>
	</defs>
	<clipPath id="SVGID_00000168807217688778182610000007131855627212733116_">
		<use xlink:href="#SVGID_00000027563728325467748530000015173983045040162436_"  overflow="visible"/>
	</clipPath>
	
		<linearGradient id="SVGID_00000004533179385304176920000004403738492688796062_" gradientUnits="userSpaceOnUse" x1="153.1269" y1="628.1309" x2="161.5491" y2="628.1309" gradientTransform="matrix(113.2251 0 0 -113.2251 -17283.3984 71161.6328)">
		<stop  offset="0" style="stop-color:#ED6C00"/>
		<stop  offset="0.0976" style="stop-color:#F08000"/>
		<stop  offset="0.2272" style="stop-color:#F39300"/>
		<stop  offset="0.3601" style="stop-color:#F49E00"/>
		<stop  offset="0.5" style="stop-color:#F5A200"/>
		<stop  offset="0.5292" style="stop-color:#F5A500"/>
		<stop  offset="1" style="stop-color:#FDD000"/>
	</linearGradient>
	
		<rect x="406.628" y="14.65" clip-path="url(#SVGID_00000168807217688778182610000007131855627212733116_)" fill="url(#SVGID_00000004533179385304176920000004403738492688796062_)" width="69.786" height="53.607"/>
</g>
<g>
	<defs>
		<rect id="SVGID_00000153672180097134039130000000145352085301407910_" x="537.264" y="14.641" width="22.976" height="53.616"/>
	</defs>
	<clipPath id="SVGID_00000142859191681408218030000005594499387204071814_">
		<use xlink:href="#SVGID_00000153672180097134039130000000145352085301407910_"  overflow="visible"/>
	</clipPath>
	
		<linearGradient id="SVGID_00000160162672160236701570000014970196446262590371_" gradientUnits="userSpaceOnUse" x1="153.1269" y1="628.1309" x2="161.5491" y2="628.1309" gradientTransform="matrix(113.2251 0 0 -113.2251 -17283.3984 71161.6328)">
		<stop  offset="0" style="stop-color:#ED6C00"/>
		<stop  offset="0.0976" style="stop-color:#F08000"/>
		<stop  offset="0.2272" style="stop-color:#F39300"/>
		<stop  offset="0.3601" style="stop-color:#F49E00"/>
		<stop  offset="0.5" style="stop-color:#F5A200"/>
		<stop  offset="0.5292" style="stop-color:#F5A500"/>
		<stop  offset="1" style="stop-color:#FDD000"/>
	</linearGradient>
	
		<rect x="537.264" y="14.641" clip-path="url(#SVGID_00000142859191681408218030000005594499387204071814_)" fill="url(#SVGID_00000160162672160236701570000014970196446262590371_)" width="22.976" height="53.616"/>
</g>
<g>
	<defs>
		<polygon id="SVGID_00000066491096951567291710000000184024368729717422_" points="500.072,14.625 500.072,14.65 484.862,14.65 
			484.862,68.257 500.072,68.257 507.846,68.257 528.8,68.257 528.8,53.855 507.846,53.855 507.846,48.035 528.8,48.035 
			528.8,34.838 507.846,34.838 507.846,29.027 528.8,29.027 528.8,14.625 		"/>
	</defs>
	<clipPath id="SVGID_00000177474708365284825520000015364471223496553358_">
		<use xlink:href="#SVGID_00000066491096951567291710000000184024368729717422_"  overflow="visible"/>
	</clipPath>
	
		<linearGradient id="SVGID_00000024003927376321782300000006819452710286540436_" gradientUnits="userSpaceOnUse" x1="153.1269" y1="628.131" x2="161.5491" y2="628.131" gradientTransform="matrix(113.2251 0 0 -113.2251 -17283.3984 71161.625)">
		<stop  offset="0" style="stop-color:#ED6C00"/>
		<stop  offset="0.0976" style="stop-color:#F08000"/>
		<stop  offset="0.2272" style="stop-color:#F39300"/>
		<stop  offset="0.3601" style="stop-color:#F49E00"/>
		<stop  offset="0.5" style="stop-color:#F5A200"/>
		<stop  offset="0.5292" style="stop-color:#F5A500"/>
		<stop  offset="1" style="stop-color:#FDD000"/>
	</linearGradient>
	
		<rect x="484.862" y="14.625" clip-path="url(#SVGID_00000177474708365284825520000015364471223496553358_)" fill="url(#SVGID_00000024003927376321782300000006819452710286540436_)" width="43.938" height="53.632"/>
</g>
<g>
	<defs>
		<rect id="SVGID_00000064337447404179021670000001739430018575012488_" x="674.629" y="14.641" width="22.976" height="53.616"/>
	</defs>
	<clipPath id="SVGID_00000157286918068964676080000000271178216404095641_">
		<use xlink:href="#SVGID_00000064337447404179021670000001739430018575012488_"  overflow="visible"/>
	</clipPath>
	
		<linearGradient id="SVGID_00000052799456124533706080000003468305385634206130_" gradientUnits="userSpaceOnUse" x1="153.1269" y1="628.1309" x2="161.5491" y2="628.1309" gradientTransform="matrix(113.2251 0 0 -113.2251 -17283.3984 71161.6328)">
		<stop  offset="0" style="stop-color:#ED6C00"/>
		<stop  offset="0.0976" style="stop-color:#F08000"/>
		<stop  offset="0.2272" style="stop-color:#F39300"/>
		<stop  offset="0.3601" style="stop-color:#F49E00"/>
		<stop  offset="0.5" style="stop-color:#F5A200"/>
		<stop  offset="0.5292" style="stop-color:#F5A500"/>
		<stop  offset="1" style="stop-color:#FDD000"/>
	</linearGradient>
	
		<rect x="674.629" y="14.641" clip-path="url(#SVGID_00000157286918068964676080000000271178216404095641_)" fill="url(#SVGID_00000052799456124533706080000003468305385634206130_)" width="22.976" height="53.616"/>
</g>
<g>
	<defs>
		<polygon id="SVGID_00000117674781393335291490000015272645125993243810_" points="637.437,14.625 637.437,14.65 622.235,14.65 
			622.235,68.257 637.437,68.257 645.219,68.257 666.173,68.257 666.173,53.855 645.219,53.855 645.219,48.035 666.173,48.035 
			666.173,34.838 645.219,34.838 645.219,29.027 666.173,29.027 666.173,14.625 		"/>
	</defs>
	<clipPath id="SVGID_00000109737706567518781210000001419328212839146931_">
		<use xlink:href="#SVGID_00000117674781393335291490000015272645125993243810_"  overflow="visible"/>
	</clipPath>
	
		<linearGradient id="SVGID_00000130641602240085404170000011051074432099252864_" gradientUnits="userSpaceOnUse" x1="153.1269" y1="628.131" x2="161.5491" y2="628.131" gradientTransform="matrix(113.2251 0 0 -113.2251 -17283.3984 71161.625)">
		<stop  offset="0" style="stop-color:#ED6C00"/>
		<stop  offset="0.0976" style="stop-color:#F08000"/>
		<stop  offset="0.2272" style="stop-color:#F39300"/>
		<stop  offset="0.3601" style="stop-color:#F49E00"/>
		<stop  offset="0.5" style="stop-color:#F5A200"/>
		<stop  offset="0.5292" style="stop-color:#F5A500"/>
		<stop  offset="1" style="stop-color:#FDD000"/>
	</linearGradient>
	
		<rect x="622.235" y="14.625" clip-path="url(#SVGID_00000109737706567518781210000001419328212839146931_)" fill="url(#SVGID_00000130641602240085404170000011051074432099252864_)" width="43.938" height="53.632"/>
</g>
<g>
	<defs>
		<polygon id="SVGID_00000166655239099408458000000006328152308086460604_" points="496.585,76.805 473.61,76.805 458.298,76.805 
			458.298,92.42 473.61,92.42 473.61,130.412 496.585,130.412 496.585,92.42 512.385,92.42 512.385,76.805 		"/>
	</defs>
	<clipPath id="SVGID_00000155834268762012579640000003966646790698266280_">
		<use xlink:href="#SVGID_00000166655239099408458000000006328152308086460604_"  overflow="visible"/>
	</clipPath>
	
		<linearGradient id="SVGID_00000037658289090384265090000016357565082604592035_" gradientUnits="userSpaceOnUse" x1="150.6834" y1="627.6471" x2="159.1056" y2="627.6471" gradientTransform="matrix(113.2251 0 0 -113.2251 -17320.6738 71169.0078)">
		<stop  offset="0" style="stop-color:#ED6C00"/>
		<stop  offset="0.0976" style="stop-color:#F08000"/>
		<stop  offset="0.2272" style="stop-color:#F39300"/>
		<stop  offset="0.3601" style="stop-color:#F49E00"/>
		<stop  offset="0.5" style="stop-color:#F5A200"/>
		<stop  offset="0.5292" style="stop-color:#F5A500"/>
		<stop  offset="1" style="stop-color:#FDD000"/>
	</linearGradient>
	
		<rect x="458.298" y="76.805" clip-path="url(#SVGID_00000155834268762012579640000003966646790698266280_)" fill="url(#SVGID_00000037658289090384265090000016357565082604592035_)" width="54.087" height="53.607"/>
</g>
<g>
	<defs>
		<path id="SVGID_00000105412389580919348520000001675156748773649328_" d="M568.62,29.422c0,8.927,3.403,14.637,13.366,16.634
			l8.734,1.735c3.15,0.649,4.489,1.609,4.489,2.956c0,1.727-1.474,2.248-4.295,2.248c-2.316,0-4.051-1.482-4.304-3.335h-18.63
			c0.185,13.164,9.441,20.23,24.155,20.23c16.701,0,22.866-7.58,22.866-17.602c0-8.355-4.876-14.259-14.452-16.507l-10.216-2.443
			c-1.415-0.328-1.988-0.901-1.988-2.055c0-1.348,1.221-1.803,3.276-1.803c2.181,0,3.723,1.028,3.975,2.637h18.318
			c-0.202-12.979-8.414-19.144-22.74-19.144C576.461,12.974,568.62,19.585,568.62,29.422"/>
	</defs>
	<clipPath id="SVGID_00000170985463133107990690000013507363904510643077_">
		<use xlink:href="#SVGID_00000105412389580919348520000001675156748773649328_"  overflow="visible"/>
	</clipPath>
	
		<linearGradient id="SVGID_00000087377955332411202640000003844599316917969086_" gradientUnits="userSpaceOnUse" x1="153.1269" y1="628.131" x2="161.5491" y2="628.131" gradientTransform="matrix(113.2251 0 0 -113.2251 -17283.3984 71161.625)">
		<stop  offset="0" style="stop-color:#ED6C00"/>
		<stop  offset="0.0976" style="stop-color:#F08000"/>
		<stop  offset="0.2272" style="stop-color:#F39300"/>
		<stop  offset="0.3601" style="stop-color:#F49E00"/>
		<stop  offset="0.5" style="stop-color:#F5A200"/>
		<stop  offset="0.5292" style="stop-color:#F5A500"/>
		<stop  offset="1" style="stop-color:#FDD000"/>
	</linearGradient>
	
		<rect x="567.98" y="12.975" clip-path="url(#SVGID_00000170985463133107990690000013507363904510643077_)" fill="url(#SVGID_00000087377955332411202640000003844599316917969086_)" width="47.021" height="56.916"/>
</g>
<g>
	<defs>
		<path id="SVGID_00000151525157835216702500000017319557530950856331_" d="M406.443,91.578c0,8.927,3.402,14.637,13.358,16.634
			l8.742,1.735c3.15,0.649,4.498,1.608,4.498,2.956c0,1.735-1.482,2.248-4.304,2.248c-2.316,0-4.051-1.474-4.312-3.335h-18.63
			c0.202,13.164,9.45,20.239,24.155,20.239c16.709,0,22.875-7.588,22.875-17.611c0-8.355-4.885-14.259-14.461-16.507l-10.208-2.443
			c-1.415-0.32-1.996-0.901-1.996-2.055c0-1.347,1.221-1.802,3.276-1.802c2.19,0,3.731,1.028,3.992,2.636h18.301
			c-0.185-12.978-8.414-19.143-22.74-19.143C414.276,75.129,406.443,81.741,406.443,91.578"/>
	</defs>
	<clipPath id="SVGID_00000111190726424444026050000017906814626385539491_">
		<use xlink:href="#SVGID_00000151525157835216702500000017319557530950856331_"  overflow="visible"/>
	</clipPath>
	
		<linearGradient id="SVGID_00000032608008806087750520000018240571839250928804_" gradientUnits="userSpaceOnUse" x1="150.6834" y1="627.6472" x2="159.1056" y2="627.6472" gradientTransform="matrix(113.2251 0 0 -113.2251 -17320.6738 71169.0078)">
		<stop  offset="0" style="stop-color:#ED6C00"/>
		<stop  offset="0.0976" style="stop-color:#F08000"/>
		<stop  offset="0.2272" style="stop-color:#F39300"/>
		<stop  offset="0.3601" style="stop-color:#F49E00"/>
		<stop  offset="0.5" style="stop-color:#F5A200"/>
		<stop  offset="0.5292" style="stop-color:#F5A500"/>
		<stop  offset="1" style="stop-color:#FDD000"/>
	</linearGradient>
	
		<rect x="405.795" y="75.13" clip-path="url(#SVGID_00000111190726424444026050000017906814626385539491_)" fill="url(#SVGID_00000032608008806087750520000018240571839250928804_)" width="47.029" height="56.925"/>
</g>
<g>
	<defs>
		<path id="SVGID_00000160897392163620993300000004306424339331992243_" d="M600.194,92.276h2.771c1.668,0,3.664,0.775,3.664,3.344
			c0,2.956-1.929,3.537-3.664,3.537h-2.771V92.276z M579.324,76.864v53.582h20.87v-16.448l5.912,16.448h23.068l-9.955-21.527
			c5.264-2.821,8.22-8.161,8.22-14.705c0-9.382-7.386-17.35-18.63-17.35H579.324z"/>
	</defs>
	<clipPath id="SVGID_00000034785029371862002680000015270982721511895737_">
		<use xlink:href="#SVGID_00000160897392163620993300000004306424339331992243_"  overflow="visible"/>
	</clipPath>
	
		<linearGradient id="SVGID_00000084517554787575483600000002652054534713127317_" gradientUnits="userSpaceOnUse" x1="150.6834" y1="627.6467" x2="159.1056" y2="627.6467" gradientTransform="matrix(113.2251 0 0 -113.2251 -17320.6738 71169.0156)">
		<stop  offset="0" style="stop-color:#ED6C00"/>
		<stop  offset="0.0976" style="stop-color:#F08000"/>
		<stop  offset="0.2272" style="stop-color:#F39300"/>
		<stop  offset="0.3601" style="stop-color:#F49E00"/>
		<stop  offset="0.5" style="stop-color:#F5A200"/>
		<stop  offset="0.5292" style="stop-color:#F5A500"/>
		<stop  offset="1" style="stop-color:#FDD000"/>
	</linearGradient>
	
		<rect x="579.324" y="76.864" clip-path="url(#SVGID_00000034785029371862002680000015270982721511895737_)" fill="url(#SVGID_00000084517554787575483600000002652054534713127317_)" width="49.851" height="53.582"/>
</g>
<g>
	<defs>
		<path id="SVGID_00000178917630022390959700000005039572314085079978_" d="M538.115,103.613c0-3.545,2.88-6.417,6.426-6.417
			c3.546,0,6.418,2.872,6.418,6.417c0,3.546-2.872,6.418-6.418,6.418C540.995,110.031,538.115,107.159,538.115,103.613
			 M516.335,103.613c0,15.573,12.625,28.206,28.206,28.206c15.573,0,28.206-12.633,28.206-28.206
			c0-15.581-12.633-28.206-28.206-28.206C528.96,75.407,516.335,88.032,516.335,103.613"/>
	</defs>
	<clipPath id="SVGID_00000026850855558469045630000006416988370160327833_">
		<use xlink:href="#SVGID_00000178917630022390959700000005039572314085079978_"  overflow="visible"/>
	</clipPath>
	
		<linearGradient id="SVGID_00000181806959440415112470000003294762076071775628_" gradientUnits="userSpaceOnUse" x1="150.6834" y1="627.6471" x2="159.1056" y2="627.6471" gradientTransform="matrix(113.2251 0 0 -113.2251 -17320.6738 71169.0078)">
		<stop  offset="0" style="stop-color:#ED6C00"/>
		<stop  offset="0.0976" style="stop-color:#F08000"/>
		<stop  offset="0.2272" style="stop-color:#F39300"/>
		<stop  offset="0.3601" style="stop-color:#F49E00"/>
		<stop  offset="0.5" style="stop-color:#F5A200"/>
		<stop  offset="0.5292" style="stop-color:#F5A500"/>
		<stop  offset="1" style="stop-color:#FDD000"/>
	</linearGradient>
	
		<rect x="516.335" y="75.407" clip-path="url(#SVGID_00000026850855558469045630000006416988370160327833_)" fill="url(#SVGID_00000181806959440415112470000003294762076071775628_)" width="56.411" height="56.412"/>
</g>
<g>
	<defs>
		<rect id="SVGID_00000182521163449132319820000006161820423144432516_" x="182.793" y="14.473" width="49.851" height="116.301"/>
	</defs>
	<clipPath id="SVGID_00000065782610861253966320000015026418390577491609_">
		<use xlink:href="#SVGID_00000182521163449132319820000006161820423144432516_"  overflow="visible"/>
	</clipPath>
	
		<linearGradient id="SVGID_00000129884304133233966530000007437660878391530639_" gradientUnits="userSpaceOnUse" x1="152.9996" y1="627.8884" x2="161.4218" y2="627.8884" gradientTransform="matrix(122.3715 0 0 -122.3715 -18710.7383 76908.2344)">
		<stop  offset="0" style="stop-color:#ED6C00"/>
		<stop  offset="0.0976" style="stop-color:#F08000"/>
		<stop  offset="0.2272" style="stop-color:#F39300"/>
		<stop  offset="0.3601" style="stop-color:#F49E00"/>
		<stop  offset="0.5" style="stop-color:#F5A200"/>
		<stop  offset="0.5292" style="stop-color:#F5A500"/>
		<stop  offset="1" style="stop-color:#FDD000"/>
	</linearGradient>
	
		<rect x="182.793" y="14.473" clip-path="url(#SVGID_00000065782610861253966320000015026418390577491609_)" fill="url(#SVGID_00000129884304133233966530000007437660878391530639_)" width="49.851" height="116.302"/>
</g>
<g>
	<defs>
		<polygon id="SVGID_00000106108851013812091700000013070826158332377003_" points="337.02,14.481 320.108,36.455 303.188,14.481 
			247.484,14.481 292.256,72.628 247.484,130.774 303.188,130.774 320.108,108.801 337.02,130.774 392.723,130.774 347.951,72.628 
			392.723,14.481 		"/>
	</defs>
	<clipPath id="SVGID_00000150073298048231490600000003654242637779769235_">
		<use xlink:href="#SVGID_00000106108851013812091700000013070826158332377003_"  overflow="visible"/>
	</clipPath>
	
		<linearGradient id="SVGID_00000111185726685209056740000007131021447934966697_" gradientUnits="userSpaceOnUse" x1="152.9996" y1="627.8883" x2="161.4218" y2="627.8883" gradientTransform="matrix(122.3715 0 0 -122.3715 -18710.7383 76908.2344)">
		<stop  offset="0" style="stop-color:#ED6C00"/>
		<stop  offset="0.0976" style="stop-color:#F08000"/>
		<stop  offset="0.2272" style="stop-color:#F39300"/>
		<stop  offset="0.3601" style="stop-color:#F49E00"/>
		<stop  offset="0.5" style="stop-color:#F5A200"/>
		<stop  offset="0.5292" style="stop-color:#F5A500"/>
		<stop  offset="1" style="stop-color:#FDD000"/>
	</linearGradient>
	
		<rect x="247.484" y="14.481" clip-path="url(#SVGID_00000150073298048231490600000003654242637779769235_)" fill="url(#SVGID_00000111185726685209056740000007131021447934966697_)" width="145.24" height="116.294"/>
</g>
<g>
	<defs>
		<polygon id="SVGID_00000047061378094623947110000008714922109675845561_" points="114.608,14.481 88.777,50.36 62.938,14.481 
			13.096,14.481 13.096,130.774 62.938,130.774 62.938,71.12 88.777,106.999 114.608,71.12 114.608,130.774 164.458,130.774 
			164.458,14.481 		"/>
	</defs>
	<clipPath id="SVGID_00000079443679615789174890000004625598458583718335_">
		<use xlink:href="#SVGID_00000047061378094623947110000008714922109675845561_"  overflow="visible"/>
	</clipPath>
	
		<linearGradient id="SVGID_00000073722938112839755810000012365952872104233891_" gradientUnits="userSpaceOnUse" x1="152.9996" y1="627.8883" x2="161.4218" y2="627.8883" gradientTransform="matrix(122.3715 0 0 -122.3715 -18710.7383 76908.2344)">
		<stop  offset="0" style="stop-color:#ED6C00"/>
		<stop  offset="0.0976" style="stop-color:#F08000"/>
		<stop  offset="0.2272" style="stop-color:#F39300"/>
		<stop  offset="0.3601" style="stop-color:#F49E00"/>
		<stop  offset="0.5" style="stop-color:#F5A200"/>
		<stop  offset="0.5292" style="stop-color:#F5A500"/>
		<stop  offset="1" style="stop-color:#FDD000"/>
	</linearGradient>
	
		<rect x="13.096" y="14.481" clip-path="url(#SVGID_00000079443679615789174890000004625598458583718335_)" fill="url(#SVGID_00000073722938112839755810000012365952872104233891_)" width="151.363" height="116.294"/>
</g>
<path fill="#FFFFFF" d="M156.206,35.979c-4.135-0.59-9.087-0.977-13.172-0.994V32.13c4.203,0.033,9.239,0.379,13.172,0.918V35.979z
	 M155.6,25.662c-4-0.337-8.085-0.522-12.027-0.522v-2.805c3.942,0.017,8.464,0.152,12.027,0.48V25.662z M154.943,30.522
	c-3.706-0.396-7.462-0.656-10.89-0.656v-2.704c3.377,0,7.184,0.126,10.89,0.556V30.522z"/>
<path fill="#FFFFFF" d="M145.529,58.323c-0.278-1.558-0.952-4.287-1.482-5.988h2.661c0.573,1.558,1.246,4.261,1.592,5.988H145.529z
	 M146.793,61.566c5.18-1.095,6.67-3.512,6.704-8.902v-0.312h2.922v0.345c-0.051,7.757-3.773,10.663-9.627,11.446V61.566z
	 M149.513,58.205c-0.261-1.558-0.918-4.261-1.432-5.988h2.661c0.573,1.559,1.213,4.203,1.558,5.988H149.513z"/>
<path fill="#FFFFFF" d="M144.691,91.317c5.196-0.505,8.102-3.167,8.725-8.237h-5.693c-0.952,2.299-2.863,4.186-5.298,4.952v-2.881
	c1.482-0.935,2.678-2.493,3.082-4.742h11.025v0.674c-0.101,8.363-4.447,12.515-11.841,12.844V91.317z"/>
<path fill="#FFFFFF" d="M156.632,123.07c-2.527-0.741-4.498-2.476-5.71-4.531c-2.358,2.451-5.424,3.874-8.186,4.371v-2.746
	c3.596-0.935,7.403-3.773,8.515-8.052h-7.673v-2.703h11.185c-0.101,2.577-0.817,4.759-1.904,6.611
	c0.792,2.013,2.409,3.327,3.773,4.017V123.07z"/>
</svg>
