<?xml version="1.0" encoding="utf-8"?>
<!-- Generator: Adobe Illustrator 27.1.1, SVG Export Plug-In . SVG Version: 6.00 Build 0)  -->
<svg version="1.1" id="레이어_1" xmlns="http://www.w3.org/2000/svg" xmlns:xlink="http://www.w3.org/1999/xlink" x="0px"
	 y="0px" viewBox="0 0 720 137.449" enable-background="new 0 0 720 137.449" xml:space="preserve">
<path fill="#E50065" d="M567.899,31.385h-37.505c-1.527,0-2.758-1.243-2.758-2.757V5.765c0-3.185-2.589-5.761-5.748-5.761h-15.031
	c-3.159,0-5.735,2.576-5.735,5.761v22.863c0,1.515-1.243,2.757-2.758,2.757h-51.953c-3.159,0-5.735,2.576-5.735,5.735v13.412
	c0,3.172,2.576,5.748,5.735,5.748h51.953c1.515,0,2.758,1.23,2.758,2.745V99.56c0,8.156-1.45,11.807-9.981,11.807h-30.747
	c-3.172,0-5.748,2.576-5.748,5.735v14.59c0,3.172,2.577,5.748,5.748,5.748h51.616c11.509,0,15.626-8.078,15.626-15.639V59.025
	c0-1.515,1.23-2.745,2.758-2.745h37.505c3.158,0,5.735-2.576,5.735-5.748V37.12C573.634,33.962,571.057,31.385,567.899,31.385"/>
<path fill="#E50065" d="M431.119,31.385h-7.665c-1.618,0-3.366-1.385-3.715-2.978l-5.165-23.083
	c-0.673-2.978-3.599-5.321-6.655-5.321h-17.283c-1.567,0-2.978,0.66-3.897,1.787c-0.906,1.139-1.217,2.667-0.88,4.195l10.085,44.975
	c0.673,2.978,3.599,5.321,6.641,5.321h28.534c3.172,0,5.748-2.576,5.748-5.748V37.12C436.866,33.962,434.29,31.385,431.119,31.385"
	/>
<path fill="#E50065" d="M431.119,76.288h-4.479c-1.515,0-2.745-1.23-2.745-2.757v-8.596c0-3.172-2.576-5.748-5.748-5.748h-15.017
	c-2.849,0-5.191,2.084-5.658,4.816c-3.508-1.1-7.25-1.696-11.133-1.696c-20.753,0-37.57,16.83-37.57,37.583
	c0,20.74,16.817,37.557,37.57,37.557h19.069c10.202,0,18.487-8.299,18.487-18.5v-13.956c0-1.515,1.23-2.757,2.745-2.757h4.479
	c3.172,0,5.748-2.576,5.748-5.735V82.036C436.866,78.877,434.29,76.288,431.119,76.288 M386.338,114.802
	c-8.247,0-14.914-6.693-14.914-14.914c0-8.247,6.667-14.927,14.914-14.927c8.234,0,14.914,6.68,14.914,14.927
	C401.252,108.109,394.572,114.802,386.338,114.802"/>
<path fill="#E50065" d="M359.207,43.939h27.083c1.566,0,2.977-0.647,3.896-1.786c0.906-1.126,1.218-2.654,0.881-4.195l-2.356-10.473
	c-0.661-2.991-3.587-5.321-6.629-5.321h-18.655c-0.673,0-1.23-0.233-1.567-0.647c-0.323-0.44-0.44-1.023-0.284-1.67l3.107-13.865
	c0.337-1.528,0.013-3.055-0.894-4.195C362.884,0.66,361.472,0,359.893,0H342.61c-3.055,0-5.968,2.343-6.641,5.334l-3.107,13.865
	c-0.363,1.58-2.084,2.965-3.715,2.965h-21.167c-3.172,0-5.748,2.589-5.748,5.761v10.266c0,3.172,2.576,5.748,5.748,5.748h16.959
	c0.661,0,1.204,0.233,1.553,0.66c0.337,0.414,0.44,1.01,0.298,1.657l-14.202,63.306c-0.363,1.592-2.097,2.991-3.715,2.991h-0.894
	c-3.172,0-5.748,2.576-5.748,5.735v13.399c0,3.172,2.576,5.761,5.748,5.761h21.763c3.055,0,5.981-2.343,6.628-5.321l19.121-85.224
	C355.854,45.324,357.589,43.939,359.207,43.939"/>
<path fill="#E50065" d="M710.407,25.291c-4.053,0-7.509,2.525-8.908,6.098h-34.345c-1.515,0-2.745-1.243-2.745-2.757V5.756
	c0-3.172-2.576-5.748-5.748-5.748h-15.031c-3.159,0-5.748,2.576-5.748,5.748v22.876c0,1.515-1.229,2.757-2.744,2.757h-51.94
	c-3.172,0-5.761,2.576-5.761,5.735v13.399c0,3.172,2.589,5.761,5.761,5.761h51.94c1.515,0,2.744,1.217,2.744,2.732V99.55
	c0,8.169-1.437,11.807-9.968,11.807h-30.747c-3.172,0-5.748,2.589-5.748,5.748v14.59c0,3.172,2.577,5.748,5.748,5.748h51.603
	c11.535,0,15.639-8.078,15.639-15.639V59.016c0-1.515,1.23-2.732,2.745-2.732h10.447v29.621c0,1.683,1.386,3.081,3.082,3.081
	c1.696,0,3.068-1.398,3.068-3.081V56.285h2.525v8.337c0,4.091,3.353,7.457,7.457,7.457c4.091,0,7.457-3.366,7.457-7.457v-8.337
	h3.482c3.159,0,5.736-2.589,5.736-5.761v-6.046c5.308,0,9.593-4.298,9.593-9.593C720,29.59,715.715,25.291,710.407,25.291"/>
<path fill="#E50065" d="M697.475,16.757c4,0,7.236-3.237,7.236-7.237c0-3.987-3.237-7.224-7.236-7.224
	c-4.001,0-7.237,3.237-7.237,7.224C690.238,13.521,693.474,16.757,697.475,16.757"/>
<path d="M12.506,85.761c0-3.457-2.796-6.24-6.241-6.24C2.796,79.521,0,82.305,0,85.761c0,3.457,2.796,6.253,6.265,6.253
	C9.71,92.014,12.506,89.218,12.506,85.761"/>
<path d="M15.047,88.088c0,1.385,1.139,2.512,2.524,2.512c1.399,0,2.525-1.126,2.525-2.512c0-1.385-1.126-2.524-2.525-2.524
	C16.186,85.564,15.047,86.703,15.047,88.088"/>
<path d="M137.441,100.933c-6.706,0-12.442,4-15.031,9.723c-0.932,1.994-2.952,3.301-5.282,3.301c-2.343,0-4.35-1.308-5.295-3.301
	c-2.589-5.722-8.324-9.723-15.031-9.723c-6.084,0-11.419,3.301-14.279,8.221c-0.026,0.039-0.052,0.052-0.078,0.104
	c-3.638,6.538-10.836,9.269-14.733,5.411c-0.194-0.207-0.375-0.349-0.556-0.44c-1.851-1.567-4.22-2.537-6.848-2.537
	c-1.722,0-3.315,0.427-4.751,1.152c-1.192-11.134-10.629-19.821-22.073-19.821c-5.398,0-10.344,1.929-14.202,5.127
	c-0.971-0.958-2.318-1.567-3.794-1.567c-2.977,0-5.386,2.421-5.386,5.399c0,2.058,1.165,3.832,2.861,4.738
	c-1.087,2.615-1.696,5.489-1.696,8.506c0,12.273,9.943,22.216,22.216,22.216c7.366,0,13.879-3.599,17.917-9.127
	c1.916,2.887,5.191,4.777,8.908,4.777c5.36,0,9.761-3.936,10.538-9.075c0.039-0.155,0.078-0.311,0.104-0.492
	c0.855-5.632,7.898-7.289,10.188-0.712c0.078,0.22,0.156,0.388,0.22,0.531c2.369,6.227,8.376,10.668,15.445,10.668
	c6.706,0,12.441-4,15.031-9.723c0.945-2.007,2.952-3.301,5.295-3.301c2.33,0,4.35,1.294,5.282,3.301
	c2.589,5.722,8.324,9.723,15.031,9.723c9.14,0,16.545-7.405,16.545-16.545S146.581,100.933,137.441,100.933"/>
<path d="M289.28,70.262h-12.118c-3.172,0-5.748,2.576-5.748,5.748v7.871c0,0.337-0.078,0.66-0.194,0.958h4.182
	c0.491,0,0.893,0.401,0.893,0.893c0,0.492-0.401,0.906-0.893,0.906h-15.769c-1.515,0-2.758-1.243-2.758-2.758V76.01
	c0-3.172-2.576-5.748-5.748-5.748h-12.118c-3.172,0-5.748,2.576-5.748,5.748v55.681c0,3.172,2.576,5.748,5.748,5.748h50.27
	c3.172,0,5.748-2.576,5.748-5.748v-10.266c0-3.172-2.576-5.748-5.748-5.748h-29.647c-0.337,0-0.66-0.078-0.958-0.194v4.143
	c0,0.492-0.415,0.893-0.906,0.893c-0.492,0-0.894-0.401-0.894-0.893v-6.693v-5.373c0-1.515,1.243-2.757,2.758-2.757h29.647
	c3.172,0,5.748-2.576,5.748-5.748V76.01C295.027,72.839,292.451,70.262,289.28,70.262"/>
<path d="M11.949,36.372h17.283c2.253,0,4.648-0.803,6.241-2.046v0.052v3.288c0,1.515-1.23,2.745-2.745,2.745h-3.573
	c-3.172,0-5.748,2.576-5.748,5.748v10.279c0,3.159,2.576,5.748,5.748,5.748h3.573c1.515,0,2.745,1.23,2.745,2.758v6.46
	c0,0.324-0.065,0.634-0.182,0.945H41c0.491,0,0.906,0.401,0.906,0.893c0,0.492-0.414,0.906-0.906,0.906h-8.26h-0.013h-2.162
	c-3.172,0-5.748,2.576-5.748,5.748v10.266c0,0.337,0.039,0.673,0.104,0.984c2.679-0.958,5.553-1.502,8.557-1.502
	c6.409,0,12.248,2.369,16.74,6.266h96.604c3.172,0,5.748-2.576,5.748-5.748V79.897c0-3.172-2.577-5.748-5.748-5.748h-2.162
	c-1.515,0-2.744-1.23-2.744-2.745v-6.46c0-1.528,1.23-2.758,2.744-2.758h3.573c3.185,0,5.761-2.589,5.761-5.748V46.159
	c0-3.172-2.576-5.748-5.761-5.748h-3.573h-6.939c-0.491,0-0.893-0.401-0.893-0.893s0.401-0.906,0.893-0.906h4.389
	c-0.117-0.298-0.194-0.608-0.194-0.945v-6.46c0-1.515,1.23-2.757,2.744-2.757h2.162c3.172,0,5.748-2.576,5.748-5.735V12.435
	c0-3.172-2.577-5.748-5.748-5.748H58.412L55.94,10.04c-0.182,0.233-0.466,0.362-0.725,0.362c-0.194,0-0.375-0.052-0.544-0.168
	c-0.388-0.298-0.479-0.854-0.194-1.269l2.408-3.237c0.971-1.321,1.217-2.745,0.635-3.884c-0.583-1.165-1.916-1.838-3.638-1.838
	H36.598c-2.796,0-6.305,1.774-7.975,4.039l-19.6,26.501C8,31.932,7.767,33.369,8.35,34.534C8.945,35.699,10.24,36.372,11.949,36.372
	 M116.307,29.381c2.784,0,5.049,2.253,5.049,5.049c0,2.796-2.265,5.075-5.049,5.075c-2.796,0-5.062-2.278-5.062-5.075
	C111.245,31.634,113.511,29.381,116.307,29.381 M116.307,63.106c2.784,0,5.049,2.266,5.049,5.062c0,2.783-2.265,5.062-5.049,5.062
	c-2.796,0-5.062-2.279-5.062-5.062C111.245,65.371,113.511,63.106,116.307,63.106 M88.693,29.381c2.81,0,5.062,2.253,5.062,5.049
	c0,2.796-2.252,5.075-5.062,5.075c-2.796,0-5.062-2.278-5.062-5.075C83.631,31.634,85.897,29.381,88.693,29.381 M88.693,63.106
	c2.81,0,5.062,2.266,5.062,5.062c0,2.783-2.252,5.062-5.062,5.062c-2.796,0-5.062-2.279-5.062-5.062
	C83.631,65.371,85.897,63.106,88.693,63.106 M61.093,29.381c2.796,0,5.062,2.253,5.062,5.049c0,2.796-2.266,5.075-5.062,5.075
	c-2.796,0-5.075-2.278-5.075-5.075C56.017,31.634,58.296,29.381,61.093,29.381 M61.093,63.106c2.796,0,5.062,2.266,5.062,5.062
	c0,2.783-2.266,5.062-5.062,5.062c-2.796,0-5.075-2.279-5.075-5.062C56.017,65.371,58.296,63.106,61.093,63.106"/>
<path d="M225.523,3.761h-12.131c-3.159,0-5.735,2.576-5.735,5.748v8.156c0,1.515-1.243,2.757-2.758,2.757h-11.224l-2.175,2.939
	c-0.181,0.233-0.453,0.362-0.738,0.362c-0.168,0-0.362-0.052-0.53-0.181c-0.389-0.285-0.479-0.855-0.182-1.243l12.183-16.48
	c1.01-1.359,1.256-2.822,0.673-3.975c-0.596-1.165-1.904-1.838-3.599-1.838h-17.283c-2.809,0-6.317,1.774-7.988,4.026L164.002,17.6
	c-1.58,2.149-2.822,5.904-2.822,8.558v10.279c0,3.185,2.576,5.761,5.761,5.761h58.581c3.172,0,5.748-2.576,5.748-5.761V9.509
	C231.27,6.337,228.694,3.761,225.523,3.761"/>
<path d="M239.012,67.189h50.27c3.172,0,5.748-2.576,5.748-5.735V51.175c0-3.172-2.576-5.761-5.748-5.761h-36.676
	c-0.505,0-0.906-0.388-0.906-0.893c0-0.492,0.401-0.893,0.906-0.893h4.466c-0.116-0.298-0.194-0.608-0.194-0.958v-5.373
	c0-1.515,1.243-2.745,2.758-2.745h29.647c3.172,0,5.748-2.589,5.748-5.748V9.514c0-3.172-2.576-5.748-5.748-5.748h-12.118
	c-3.172,0-5.748,2.576-5.748,5.748v10.862c0,0.505-0.401,0.906-0.894,0.906c-0.491,0-0.906-0.401-0.906-0.906v-4.182
	c-0.298,0.104-0.621,0.181-0.958,0.181h-9.024c-1.515,0-2.758-1.23-2.758-2.745V5.76c0-3.172-2.576-5.748-5.748-5.748h-12.117
	c-3.173,0-5.748,2.576-5.748,5.748v55.694C233.264,64.613,235.84,67.189,239.012,67.189"/>
<path d="M225.526,44.236h-58.593c-3.173,0-5.748,2.576-5.748,5.748v81.703c0,3.185,2.576,5.761,5.748,5.761h12.117
	c3.172,0,5.748-2.576,5.748-5.761v-15.302v-8.156c0-0.492,0.401-0.893,0.906-0.893c0.492,0,0.894,0.401,0.894,0.893v5.606
	c0.298-0.117,0.621-0.207,0.945-0.207h17.697c1.838,0,2.421,0.168,2.421,1.023c0,0.855-0.583,1.023-2.421,1.023h-4.765
	c-3.172,0-5.748,2.576-5.748,5.761v10.253c0,3.185,2.576,5.761,5.748,5.761h25.051c3.173,0,5.748-2.576,5.748-5.761V49.984
	C231.274,46.812,228.698,44.236,225.526,44.236 M196.229,102.325c-5.515,0-9.982-4.466-9.982-9.981c0-5.489,4.467-9.969,9.982-9.969
	c5.515,0,9.981,4.479,9.981,9.969C206.211,97.858,201.744,102.325,196.229,102.325 M196.229,74.775
	c-5.515,0-9.982-4.466-9.982-9.981c0-5.502,4.467-9.968,9.982-9.968c5.515,0,9.981,4.466,9.981,9.968
	C206.211,70.309,201.744,74.775,196.229,74.775"/>
</svg>
