<?xml version="1.0" encoding="utf-8"?>
<!-- Generator: Adobe Illustrator 27.0.1, SVG Export Plug-In . SVG Version: 6.00 Build 0)  -->
<svg version="1.1" id="레이어_1" xmlns="http://www.w3.org/2000/svg" xmlns:xlink="http://www.w3.org/1999/xlink" x="0px"
	 y="0px" viewBox="0 0 720 256.14" enable-background="new 0 0 720 256.14" xml:space="preserve">
<path d="M39.038,69.812L38.4,70.796l-1.483-0.776c-0.777-0.596-1.872-1.358-3.272-2.301L31.247,70.2l-3.105,0.499l-2.647-0.624
	l-1.442-1.746L24.731,66c0.929-0.957,2.246-1.428,3.951-1.4c0.79,0,1.996,0.166,3.646,0.485c0.263-1.386,0.36-3.119,0.319-5.212
	c-0.097-2.731-0.444-4.547-1.068-5.434l-2.176-0.957c-1.498-0.069-3.411,0.693-5.767,2.273L20.6,58.14l-2.467,2.329l-0.084,2.856
	c-0.014,0.624-0.014,1.594,0,2.911c0.028,0.818,0.111,2.176,0.25,4.062c0.125,1.317,0.139,2.079,0.056,2.287l-1.04,0.665
	l-0.818-1.067l-0.845-1.761l-1.566-2.135l-0.666-1.109l0.25-0.264l1.164,0.652l1.636,1.289c-0.028-1.04-0.014-2.357,0.027-3.979
	c0.028-2.01,0.069-3.175,0.097-3.479c-0.638,0.72-1.608,1.844-2.897,3.354c-0.569,0.652-1.442,1.747-2.62,3.285l-0.998,0.86
	l-0.874-1.095l0.25-1.511l2.246-1.788l2.44-2.787l1.746-2.523l1.054-2.661c0.124-1.345,0.18-2.246,0.194-2.745l-2.467,1.053
	l-2.44,1.165l-0.36,0.111l-1.22-0.832l-0.637-1.345l0.096-0.305l1.137,0.097h1.303c0.79-0.18,2.371-0.679,4.755-1.483l0.25-4.173
	l-0.014-1.164l-0.624-0.665l-0.749-0.873l1.303-0.236l1.65,0.471l0.79,0.915l-0.195,1.109l-0.541,2.121l-0.305,2.191l1.317,0.693
	l0.388,0.596l-0.624,0.79l-1.442,1.747l-0.278,2.537c0.777-0.652,1.982-1.636,3.591-2.953l3.438-2.149
	c1.65-0.804,3.105-1.179,4.353-1.151l1.414,0.236c1.455,0.485,2.439,1.691,2.953,3.646c0.443,1.58,0.652,3.424,0.652,5.504
	c0.027,0.984-0.097,2.426-0.36,4.325c1.386,0.555,2.578,1.206,3.562,1.955L39.038,69.812 M31.954,66.776l-3.064-0.901l-1.761,0.028
	l-1.317,0.776l-0.138,0.541l0.817,1.303l2.842,0.346L31.954,66.776z"/>
<path d="M62.077,64.724l-0.86,1.581c-1.234,1.303-2.745,2.426-4.519,3.382c-1.317,0.707-2.911,1.276-4.797,1.691l-2.98,0.291
	l-2.703-0.333l-2.51-1.941c-0.624-1.15-0.86-3.175-0.693-6.058c0.097-1.525,0.222-3.66,0.388-6.405
	c0.041-2.121,0.069-3.59,0.069-4.408l-0.195-2.496l-0.734-1.539l-0.347-0.998l1.317,0.083l1.234,0.652l1.47,1.22v0.693l-0.236,0.957
	c-0.222,1.206-0.458,3.77-0.693,7.721c-0.056,1.095-0.124,2.773-0.236,5.032c-0.096,1.83,0.014,3.147,0.36,3.923
	c0.375,0.957,1.65,1.442,3.785,1.442l1.359-0.083c1.539-0.194,3.022-0.541,4.436-1.067l3.327-1.608l2.01-1.441l1.399-0.652
	L62.077,64.724 M57.544,55.437l-1.275-0.222l-2.509-2.384l-0.305-0.888l0.957,0.042l1.594,0.693l1.511,1.22l0.305,0.873
	L57.544,55.437z M60.761,53.371l-1.276-0.208l-2.509-2.398l-0.319-0.873l0.97,0.028l1.58,0.707l1.511,1.206l0.305,0.915
	L60.761,53.371z"/>
<path d="M67.248,54.508l-0.458-1.137l2.606,0.097l1.151,0.028l2.329,0.041h4.089c0.79-2.884,1.192-5.836,1.192-8.872l2.925,0.333
	l0.18,0.028l0.734,0.443l-0.388,0.762l-0.735,0.541l-0.277,1.705l-0.36,1.677l-0.777,3.382h9.233l2.259-2.218l3.022,2.384
	l0.111,0.416l-0.36,0.25h-11.27l2.495,3.285h6.321l2.149-2.176l2.953,2.315l0.138,0.416l-0.318,0.277H85.741
	c1.636,1.622,3.396,2.994,5.281,4.117l2.675,1.4l2.814,1.178l0.707,0.264l-0.139,0.069l-0.915,0.429l-0.846,0.541l-1.275,1.276
	l-1.9-1.04l-2.398-1.844l-2.176-1.941l-2.01-2.149l-0.929-1.137l-0.901-1.165h-6.376l-1.123,1.719l-1.276,1.622h8.415l0.86-1.206
	l2.315,1.746l0.069,0.569l-0.873,0.541v4.117L85.2,68.19l-0.86,0.305l-0.748-0.707v-1.04h-7.999v4.09l0.638,0.596l0.554,0.069
	l0.569,0.028h0.25l2.994,0.111l1.469-0.041l0.749-0.028h0.734l0.666-0.041c1.344-0.014,2.259-0.236,2.758-0.665l1.234-2.37
	l0.624-1.982l0.637,0.166l-0.111,2.953v0.263l0.458,0.901l0.679,1.179l-1.344,0.929l-2.565,0.471l-1.372,0.069h-2.19l-0.915,0.028
	h-1.871c-1.4,0-2.662-0.014-3.771-0.055h-0.693l-0.749-0.111l-1.303-0.596l-0.346-0.707l-0.069-0.804v-6.557l2.702,1.345h7.584
	v-3.313h-9.372c-2.26,2.135-4.81,3.84-7.652,5.116l-1.164,0.499l-0.486,0.139l-0.277-0.236l1.012-0.776l0.291-0.125l1.968-1.345
	l1.872-1.469c1.498-1.248,2.758-2.523,3.757-3.812l0.777-1.067l0.707-1.109h-3.909l-1.941,0.028h-0.984l-0.984,0.041l-1.303,0.028
	L64.6,58.625l-0.388-1.178l0.845,0.027l0.888,0.042l1.718,0.069c1.289,0.042,2.44,0.069,3.452,0.069h4.269l0.762-1.636l0.638-1.65
	h-3.909l-2.718,0.028L67.248,54.508 M68.579,46.176l0.138-0.305l2.51,0.97l2.037,1.705l0.846,2.883l-1.581,0.998l-0.845-0.776
	l-0.319-1.165C70.935,48.949,70.006,47.507,68.579,46.176z M77.769,57.654h5.462l-1.691-3.285h-2.315l-0.679,1.65L77.769,57.654z
	 M89.151,48.075l-5.171,4.894l-0.499-0.278l0.805-1.372l0.845-1.539l0.846-1.497l1.483-3.119l2.578,1.636h0.028l0.43,0.61
	l-0.43,0.471L89.151,48.075z"/>
<path d="M119.316,56.975l-1.539,1.358c-0.582,0.264-1.857,0.638-3.826,1.123l1.137,2.121l1.58,1.968l0.805,1.691l-0.236,0.943
	l-0.569,0.499l-1.053-0.333l-2.703-0.915l-3.355-0.444c-1.538-0.069-2.828-0.014-3.853,0.18l-2.232,1.581l0.069,1.691l1.483,1.331
	l2.537,0.79l2.495,0.166l1.706,0.041l1.538,1.483c0,0.735-0.873,1.054-2.647,0.929c-1.262-0.097-2.371-0.264-3.327-0.499
	l-3.022-1.372l-1.816-2.329l0.111-2.703c0.499-0.97,1.386-1.622,2.634-1.913c1.247-0.305,2.884-0.471,4.893-0.527h2.648l0.859,0.055
	l0.694,0.055l-0.679-1.441c-0.25-0.555-0.666-1.47-1.248-2.773c-0.707,0.152-1.913,0.374-3.632,0.693
	c-1.484,0.194-2.537,0.264-3.148,0.208l-1.095-0.139l-0.901-0.499l-0.263-1.733l1.247-1.968l3.022-2.384
	c-1.872,0.18-2.953,0.25-3.258,0.222c-1.331-0.042-2.288-0.264-2.87-0.665l-0.873-1.345l0.375-0.402l0.624,0.277l0.513,0.305
	l2.773,0.36c1.663-0.069,3.285-0.333,4.88-0.762l-0.679-2.149l-0.499-1.428l-0.832-0.984l-0.915-0.929l1.289-0.652l1.497,0.36
	l1.04,0.79l0.083,1.76c0.041,0.527,0.208,1.442,0.486,2.773l1.885-0.874l1.525-0.027l1.012,1.039l-0.541,0.569l-1.608,0.471
	l-1.9,0.582l0.721,2.44l0.79,2.232c1.47-0.388,2.578-0.735,3.34-1.053l-0.915-0.998l-1.053-1.192l-0.679-0.998l0.222-0.25
	l1.026,0.679l1.816,1.178l1.663,0.471l0.832,0.832L119.316,56.975 M111.761,58.264c-0.139-0.305-0.416-1.136-0.846-2.481
	l-0.679-2.079l-2.454,1.039c-1.483,0.915-2.412,1.802-2.758,2.662l-0.236,0.901l0.832,0.818c0.666,0.055,1.663,0,2.994-0.18
	C109.141,58.874,110.194,58.653,111.761,58.264z"/>
<path d="M124.389,58.625l-0.43-1.04l3.175,0.069l2.634,0.055V44.762l2.371,0.069l1.012,0.471l-0.596,0.873l-0.735,0.527V57.71h1.553
	l1.65-1.968l2.328,1.775l0.278,0.652l-0.388,0.388h-5.42v3.216l2.703,0.998l2.052,1.913l-0.25,2.037l-1.622-0.333l-0.734-1.372
	l-2.149-2.509V74.04l-1.123,0.943l-0.929-0.638v-9.773l-1.192,1.747l-1.234,1.663c-0.943,1.262-1.872,2.301-2.814,3.147
	l-0.111,0.069l-0.845,0.374l0.207-0.679l0.042-0.028l1.234-1.802l1.164-1.774c1.123-1.927,2.065-3.909,2.814-5.961l0.734-2.773
	l-2.675,0.028h-1.372l-0.665,0.041H124.389 M124.528,48.879l0.458-0.236l1.899,2.038l1.124,2.551l0.152,0.943l-0.041,1.068
	l-1.303,1.303l-0.985-0.97v-2.246l-0.319-2.301L124.528,48.879z M133.22,56.546l-0.485-0.208c0.402-1.248,0.776-2.565,1.123-3.937
	c0.305-1.276,0.596-2.62,0.845-4.02l2.287,0.832l0.597,0.61l-0.458,0.638l-0.665,0.291l-0.486,0.97l-1.025,1.913l-0.845,1.47
	L133.22,56.546z M145.059,56.809v-2.842h-3.064l-1.123,0.028l-1.095,0.069h-1.124l-0.291-1.067l0.929,0.028l0.943,0.041l0.707,0.028
	h0.706l1.442,0.041h1.969v-3.022h-3.522l-1.053,0.042l-1.095,0.069h-1.096l-0.388-1.04l2.537,0.069l2.191,0.028h2.426v-4.519
	l2.537,0.208l0.984,0.569l-0.485,0.762l-0.818,0.402v2.579h3.91l1.76-1.871l2.26,1.608l0.527,0.721l-0.527,0.374h-7.93v3.022h3.216
	l1.65-1.747l2.191,1.608l0.346,0.624l-0.457,0.346h-6.946v2.842h4.52l1.829-1.941l2.315,1.608l0.458,0.721l-0.597,0.457h-13.28
	l-1.442,0.028h-0.707l-0.734,0.028h-0.735l-0.748,0.042l-0.319-1.068l1.164,0.028l1.206,0.069l2.316,0.028H145.059z M139.43,58.791
	l2.578,1.372h8.47l0.984-1.372l2.371,2.066l-0.18,0.943l-0.416,0.069v10.508l-0.041,0.568l-0.25,0.596l-0.554,0.471l-0.845,0.541
	l-1.303-0.208l-0.208-0.874l-0.638-0.333l-2.537-0.762v-0.499h2.814l1.053-0.208l0.111-0.028l0.208-0.277l0.041-0.333v-2.939h-9.509
	v5.725l-1.109,1.026l-1.04-0.527V58.791z M141.58,63.768h9.511v-2.773h-9.511V63.768z M141.58,67.317h9.511v-2.773h-9.511V67.317z"
	/>
<path d="M169.79,72.737v-7.832h-3.77l-2.856,0.042l-1.4,0.069h-0.749l-0.693,0.028l-0.388-1.067l0.763,0.027l0.817,0.042
	l1.123,0.027l1.137,0.028l2.246,0.041h17.259l1.872-1.872l2.565,1.775l0.36,0.527l-0.458,0.333h-10.106v7.832h7.001l2.191-2.135
	l2.856,1.968l0.347,0.582l-0.416,0.43h-25.05l-3.271,0.028l-1.622,0.069H158.7l-0.817,0.028l-0.388-1.137l0.887,0.041l0.874,0.028
	h0.679l0.624,0.027l1.303,0.042l2.578,0.027H169.79 M161.653,48.81l0.527,0.069l0.25,1.372h10.037v-2.578h-3.452l-3.092,0.041
	l-2.717,0.097l-0.278-1.109l0.735,0.041h0.776l1.511,0.055l3.064,0.042h10.536l2.079-2.149l2.357,1.844l0.43,0.679l-0.458,0.458
	h-9.274v2.578H185.4l1.372-1.372l2.495,2.343l0.43,1.012l-0.957,0.527h-1.33l-2.579,1.872l-0.415-0.097l1.192-3.508h-10.924v8.027
	l-1.164,0.998h-0.028l-1.025-0.457v-8.567h-9.995l-0.18,1.234l-0.43,1.303l-1.927,1.539l-1.455-0.832l0.569-1.608l1.442-1.178
	l0.817-1.165l0.167-0.665l0.152-0.707L161.653,48.81z M161.264,58.112V57.35h6.169l1.511-1.442l1.83,1.303l0.319,0.541l-0.388,0.36
	H161.264z M161.902,66.014l0.278-0.471l1.553,0.61l1.414,0.832l1.511,2.717l-1.165,1.941l-1.414-0.748l-0.235-2.273l-0.707-1.469
	L161.902,66.014z M162.249,54.771v-0.776h5.281l1.525-1.47l1.691,1.276l0.028,0.028l0.499,0.568l-0.388,0.374H162.249z
	 M179.092,61.134l1.83-1.719l2.259,1.553l0.278,0.527l-0.388,0.402h-13.418l-3.064,0.069l-2.675,0.069l-0.36-1.067l0.776,0.028
	l0.818,0.028l1.123,0.041l1.123,0.028l2.26,0.041H179.092z M171.939,72.737h3.424v-7.832h-3.424V72.737z M175.82,54.743v-0.846
	h4.533l1.483-1.441l1.663,1.206l0.028,0.042l0.458,0.541l-0.416,0.499H175.82z M175.848,58.057v-0.846h5.989l1.663-1.636l1.83,1.372
	l0.028,0.028l0.568,0.582l-0.429,0.499H175.848z M182.572,65.307l2.37,1.317l0.319,0.527l-0.36,0.471l-0.943,0.305
	c-1.248,1.331-2.412,2.523-3.494,3.577l-0.139,0.138l-0.845,0.36v-0.471l0.346-0.568l0.139-0.194
	C181.005,69.008,181.878,67.192,182.572,65.307z"/>
<path d="M198.777,67.358v-3.854h-4.076v1.442l-1.081,0.832l-1.067-0.36V52.123l2.467,1.372h9.676l0.915-1.441l1.982,1.885
	l-0.041,0.998l-0.526,0.208v9.066l-1.331,0.86l-0.208,0.041l-0.61-0.499v-1.109h-3.95v3.854h4.547l1.829-2.01l2.648,2.01l0.25,0.513
	l-0.388,0.319h-8.886v5.684l-0.416,0.679l-0.762,0.333l-0.97-0.499V68.19h-3.34l-2.329,0.069L191,68.287l-0.319-1.067l0.956,0.027
	l0.915,0.042l0.734,0.027h0.707l1.4,0.041H198.777 M190.959,45.871l0.318-0.402l2.579,1.469l1.788,2.246l-0.526,2.37l-1.581-0.569
	l-0.458-1.871C192.774,47.868,192.067,46.787,190.959,45.871z M194.701,58.085h4.076v-3.813h-4.076V58.085z M194.701,62.742h4.076
	v-3.826h-4.076V62.742z M196.628,45.372l0.25-0.471l1.622,0.735l1.553,1.137l1.053,3.175l-1.165,1.012l-1.123-0.846l-0.069-0.457
	l-0.249-1.081l-0.347-1.067L196.628,45.372z M200.926,58.085h3.951v-3.813h-3.951V58.085z M200.926,62.742h3.951v-3.826h-3.951
	V62.742z M207.302,47.576l-3.868,5.351l-0.526-0.305l0.346-0.901l0.458-1.234l0.458-1.206c0.513-1.428,0.998-2.994,1.442-4.713
	l2.439,1.331l0.666,0.707l-0.569,0.665L207.302,47.576z M211.822,44.665l2.911,0.166l0.846,0.499l-0.458,0.804l-0.984,0.61v2.939
	l0.069,2.939l0.069,1.581h3.562l2.038-2.273l2.758,2.01l0.319,0.596l-0.388,0.43h-8.248l0.069,1.151l0.111,1.095l0.235,2.246
	c0.222,1.386,0.541,2.772,0.957,4.145l0.845-1.636l0.777-1.636l0.596-1.442l0.527-1.469l2.606,1.469l0.499,0.638l-0.597,0.527
	l-1.067,0.277l-1.581,2.939l-1.83,2.842c0.638,1.303,1.428,2.523,2.399,3.688l0.485,0.527l0.679,0.346l0.208-0.277l0.027-0.097
	l1.595-4.783l0.637,0.264l-0.471,3.687l-0.097,0.832l-0.069,1.178l0.485,1.193l0.43,0.873l-0.25,0.873l-1.719-0.138l-0.956-0.596
	l-0.734-0.569l-0.18-0.139l-2.219-2.44l-1.761-2.745c-1.275,1.358-2.398,2.398-3.382,3.105l-2.829,1.719l-3.021,1.428l-0.18,0.069
	l-0.707,0.305l-0.665-0.097l0.277-0.541l2.399-1.234l2.19-1.539c1.733-1.358,3.439-3.063,5.102-5.129l-0.624-1.802l-0.471-1.871
	c-0.18-1.095-0.36-2.301-0.526-3.618l-0.167-1.802l-0.18-1.816l-0.915,0.041l-0.915,0.028l-1.829,0.069l-0.25-1.039l0.984,0.041
	l0.984,0.028l0.957,0.041l0.984,0.028l-0.069-1.234l-0.041-1.081l-0.028-1.026l-0.041-0.776l-0.028-0.776l-0.069-1.539
	L211.822,44.665z M214.636,47.812l0.138-0.374l1.511,0.333l1.553,0.679l1.691,2.44l-0.873,1.234l-1.303-0.665l-0.638-1.441
	L214.636,47.812z"/>
<path d="M224.354,50.792l2.356,0.097l2.371,0.028h5.032l1.9-2.01l2.356,1.677l0.43,0.679l-0.208,0.499h-9.509l-1.344,0.028h-0.666
	l-0.665,0.042l-0.845,0.028l-0.888,0.028L224.354,50.792 M226.087,47.604v-0.762h6.682l1.774-1.941l2.288,1.733l0.346,0.61
	l-0.526,0.36H226.087 M226.114,55.977v-0.776h6.834l1.622-1.83l2.219,1.567l0.346,0.665l-0.624,0.374H226.114 M226.114,60.164
	v-0.846h6.654l1.594-1.802l2.357,1.705l0.318,0.624l-0.596,0.319H226.114 M226.406,62.271l2.634,1.234h4.616l0.956-1.372
	l2.108,2.177l-0.25,0.873l-0.458,0.166v7.555l-1.068,0.748l-1.08-0.138v-2.482h-5.31v3.078l-1.067,0.707l-1.081-0.444V62.271
	 M228.554,70.255h5.31v-5.919h-5.31V70.255 M239.603,47.479l1.164,0.028l1.206,0.069l2.356,0.028h5.919l1.234-1.497l2.176,2.301
	l-0.236,1.081l-0.43,0.097v11.811l-1.164,0.832l-1.164-0.43v-2.482h-8.026v11.215l0.984,0.998l0.845,0.041h5.005l2.884-0.166
	l1.442-1.511l0.998-5.06l0.624,0.041l0.083,4.852v0.402l0.665,1.137l0.597,1.165l-1.303,0.915l-0.888,0.166l-0.776,0.055h-0.028
	l-3.244,0.111l-1.622,0.028h-4.713l-2.121-0.194l-1.47-0.943l-0.291-1.733V57.114l2.828,1.372h7.528V48.45h-6.266l-2.148,0.028
	l-2.26,0.069L239.603,47.479"/>
<path d="M59.845,96.026c-2.898,0-2.898,1.664-2.994,3.466c-0.112,3.327-0.624,15.388-0.624,18.022c0,2.772,1.248,2.772,2.384,2.772
	h12.824c4.352,0,5.49,0,6.626-1.802c2.994-4.575,3.313-5.13,4.353-5.13c1.442,0,9.718,6.931,9.718,8.179
	c0,1.386-2.065,1.386-5.476,1.386H63.158l-1.968,1.386c0,1.109,3.424,10.675,9.01,18.715c11.478,16.635,20.461,18.992,28.945,22.319
	c1.761,0.832,2.384,0.97,2.384,1.525c0,0.416-0.513,0.555-3.826,1.109c-0.734,0.139-4.921,2.357-7.194,4.991
	c-1.663,1.941-2.176,2.356-2.801,2.356c-1.247,0-4.741-2.356-10.743-10.951c-10.147-14.279-15.984-27.587-18.049-37.568
	c-0.305-1.663-0.721-3.327-1.969-3.327c-1.344,0-1.649,1.663-1.857,3.189c-1.553,9.011-6.183,21.764-19.436,34.795
	c-12.628,12.199-33.991,19.408-35.239,19.408L0,180.589l2.689-1.802c10.564-6.238,27.614-17.328,34.976-31.468
	c6.738-10.813,9.246-21.349,9.246-22.042c0-1.802-1.553-2.357-2.897-2.357h-7.278c-9.108,0-8.359,0.278-9.288,0.278l-2.176,0.416
	l-0.929-0.832l-2.065-2.357l-0.416-0.555l0.416-0.416l4.547,0.416c5.073,0.278,5.559,0.416,10.425,0.416h7.18l2.898-1.109
	c0.624-0.97,0.624-7.347,0.624-18.576c0-2.911,0-4.575-3.105-4.575H30.054c-9.108,0-12.102,0.278-13.031,0.278l-2.273,0.277
	l-0.832-0.693l-2.079-2.343l-0.402-0.721l0.305-0.208l4.658,0.305c4.963,0.208,9.316,0.416,14.182,0.416h51.125
	c4.353,0,5.49,0,6.627-1.761c3.618-5.698,3.826-6.003,4.865-6.003c1.234,0,8.9,7.25,8.9,9.108c0,1.344-2.176,1.344-5.49,1.344
	H59.845"/>
<path d="M109.931,128.049l-0.402-0.693l0.402-0.278c1.969,0,11.076,0.832,12.948,0.832c1.65,0,2.897-0.832,2.897-2.496
	c0-1.386,0-8.179-0.319-9.011l-2.897-1.248h-3.618c-1.553,0-2.482,0-4.561,2.495c-2.066,2.357-10.162,14.556-11.187,14.556
	l-0.319-0.555c0-0.693,10.785-18.576,11.617-20.101c2.994-6.1,9.62-18.784,10.341-23.345c0.624-3.507,0.624-3.826,2.08-3.826
	c0.305,0,8.165,2.177,8.165,4.45l-0.194,1.137l1.538,1.553c5.393,2.897,8.498,4.505,8.498,8.941c0,2.218-1.456,3.882-2.69,3.882
	c-1.566,0-1.969-0.555-5.074-6.377c-1.039-1.941-2.8-5.102-3.826-5.102c-1.039,0-1.358,0.527-4.255,4.824
	c-2.69,4.02-6.613,9.843-8.166,11.922l-0.928,1.941l1.746,0.97h5.392c4.547,0,5.061,0,6.21-1.802
	c1.026-1.663,1.553-2.495,2.482-2.495c1.137,0,6.1,4.159,6.1,5.684c0,1.248-2.065,1.248-5.49,1.248
	c-3.092,0-3.923,0.416-3.923,3.882c0,6.793,0.208,7.07,0.624,7.763l1.955,0.97c1.663,0,2.592-1.525,2.897-1.941
	c1.663-2.356,2.176-2.495,2.69-2.495c1.663,0,7.042,4.297,7.042,5.823c0,1.386-2.177,1.386-5.587,1.386h-5.891
	c-1.872,0-3.522,0.139-3.522,3.05c0,3.604-0.111,17.606-0.111,20.794c0,2.773,0.263,3.327,2.647,3.327
	c0.763,0,5.13-0.416,9.233,0.277c3.341,0.555,3.161,0.555,6.114,1.663l2.328,1.525c0,0.416-2.786-1.248-8.844-0.832
	c-5.448,0.416-14.584,4.713-22.942,10.951c-1.691,1.248-4.742,4.714-5.878,5.684c-0.985,0.97-2.953-3.188-4.076-5.684l-2.537-5.406
	l0.609-0.97l3.424,0.277c1.289-0.832,6.931-4.297,11.34-5.545c1.553-0.693,1.761-1.663,1.761-3.327
	c0-4.02,0.097-17.605,0.097-20.517c0.097-4.02,0-5.268-3.411-5.268c-1.455,0-8.484,0.555-9.634,0.555l-0.818-0.693L109.931,128.049
	 M118.471,156.468c-2.219,0.832-2.62,0.138-6.169-6.238c-1.428-2.495-4.089-5.545-4.866-6.377l-1.303-1.525l0.208-0.416
	c0.485-0.138,11.035,1.386,13.793,8.318C120.91,152.17,121.16,155.359,118.471,156.468z M147.61,136.783l-2.592,3.189
	c-1.344,2.079-9.316,15.11-11.284,15.11l1.663-5.684c1.649-4.574,4.033-10.674,4.033-15.249l1.137-1.802
	c0.513,0,0.832,0.139,3.203,1.525C146.265,135.258,147.61,135.951,147.61,136.783z M183.417,124.445c1.025,0,2.897,0,3.923-1.525
	c0.928-1.386,1.039-1.525,1.553-1.525c0.111,0,8.595,3.05,8.595,5.129c0,0.416-0.208,0.693-1.969,2.634l-1.04,3.743
	c0,1.941,0.527,11.783,0.527,14.001s-3.105,4.297-5.379,4.297c-2.08,0-2.384-1.248-2.897-3.189l-1.663-0.97
	c-1.553,0-2.69,0.139-2.69,1.525v12.476c0,4.575,0.832,7.763,6.308,7.763c8.595,0,12.712-6.238,13.127-8.04
	c0.416-1.663,2.301-24.676,2.925-24.676c0.305,0,0.569,6.654,0.777,7.901c0.208,1.109,1.289,14.001,2.315,16.497l3.757,4.159
	c0,4.02-12.365,11.783-20.531,11.783c-1.136,0-10.743-0.832-13.433-4.02c-1.663-2.079-1.553-2.079-1.663-20.517
	c0-4.436-0.096-4.852-2.065-4.852h-2.773l-0.624,0.278l1.483,1.802l-0.749,3.05c-0.36,0.832,0,0-0.943,2.634
	c-0.61,1.664-1.067,2.911-2.939,5.961c-7.75,12.892-25.369,11.783-26.713,11.783l-1.622-0.416l1.344-0.832
	c0.832-0.277,9.274-1.109,14.861-5.406c9.413-7.208,9.177-14.417,9.177-17.051c0-0.832-0.305-1.802-1.968-1.802
	c-2.385,0-2.607,0-2.718,1.664c-0.208,2.079-0.208,4.297-3.826,4.297c-2.592,0-3.008-1.525-3.008-2.911l0.319-6.793
	c0-4.436,0-13.308-0.527-17.051l-0.721-3.327l1.553-1.248c1.248,0,3.522,1.109,5.171,1.802c1.969,0.97,3.938,0.97,5.282,0.97
	H183.417z M189.932,114.048c4.547,0,5.476,0,6.613-1.664c2.287-3.327,2.592-3.743,3.216-3.743l8.58,6.654
	c0,1.109-1.025,1.525-5.475,1.525h-39.218c-7.042,0-10.66,0-13.044,0.278l-2.176,0.138l-0.929-0.555l-2.065-2.356l-0.416-0.693
	l0.416-0.278l4.547,0.278c5.073,0.277,10.563,0.416,14.182,0.416h11.173c2.897,0,3.729-0.139,5.795-8.595l0.415-4.852l1.344-1.525
	l6.419,2.634l0.929,1.248c0,0.97-0.513,1.248-2.273,2.357c-1.761,1.109-6.21,7.208-6.21,7.901l1.872,0.832H189.932z M183.625,95.333
	c4.339,0,4.852,0,5.683-0.804l3.522-3.632l7.652,5.684c0,1.525-2.066,1.525-5.476,1.525h-30.012c-6.003,0-8.498,0-11.187,0.278
	l-2.177,0.138l-0.928-0.554l-1.969-2.357l-0.526-0.776l0.415-0.208l6.529,0.416c6.931,0.291,6.113,0.291,11.284,0.291
	c1.04,0,2.69,0,2.69-2.468c0-1.649-0.61-6.307-0.818-7.347l-0.832-2.689l1.553-1.137l7.971,1.04l1.442,1.442l-2.273,3.105
	l-0.415,4.866c0,2.482,0.526,3.189,2.689,3.189H183.625z M163.954,113.493c-2.69,0-2.994-2.634-2.994-4.713
	c-0.111-2.218-0.832-5.407-1.344-7.07l-0.943-2.773l0.208-0.138c3.632,0,9.524,5.822,9.524,9.149
	C168.404,110.721,166.435,113.493,163.954,113.493z M162.512,136.644c-2.495,0-2.801,0.97-2.801,3.743
	c0,2.634,0.208,3.882,2.801,3.882h21.834c2.578,0,2.786-0.832,2.786-4.297c0-2.496-0.402-3.327-2.786-3.327H162.512z
	 M162.61,127.079c-1.969,0-2.787,0.555-2.787,3.466c0,2.911,0.721,3.327,2.787,3.327h21.833c2.69,0,2.69-1.109,2.69-4.02
	c0-2.773-1.553-2.773-2.69-2.773H162.61z"/>
<path fill="#C4A4A7" d="M333.481,254.892h-0.18l-0.264-0.138l-0.901-0.832l-1.123,0.554l-0.263-0.138l-0.888-0.832l-1.136,0.554
	l-0.264-0.138l-0.873-0.832l-1.151,0.416h-0.263l-0.845-0.97l-1.151,0.416h-0.111l-0.915-1.109l-1.234,0.554h-0.277l-0.805-0.97
	l-1.178,0.416h-0.264l-0.79-0.97l-1.178,0.277h-0.263l-0.777-0.97l-1.192,0.278h-0.25l-0.762-0.97l-1.192,0.277h-0.25l-0.749-1.109
	l-1.192,0.416l-0.263-0.139l-0.707-1.109l-1.206,0.416h-0.097l-0.776-1.248l-1.303,0.416l-0.264-0.139l-0.665-0.97l-1.234,0.139
	h-0.236l-0.665-1.109l-1.22,0.277l-0.235-0.139l-0.652-1.109l-1.234,0.277l-0.235-0.139l-0.624-1.109l-1.234,0.277l-0.235-0.138
	l-0.61-1.109l-1.234,0.139l-0.236-0.139l-0.582-1.109l-1.248,0.139l-0.222-0.139l-0.568-1.109l-1.234,0.139l-0.249-0.139
	l-0.541-1.109l-1.234,0.139l-0.222-0.139l-0.526-1.109h-1.248l-0.222-0.139l-0.513-1.109l-1.234,0.139l-0.223-0.277l-0.485-1.109
	h-1.248l-0.222-0.138l-0.485-0.832c-1.179,1.386-2.856,2.218-4.769,2.356c-0.18,0-0.347,0-0.513,0c-3.646,0-6.738-2.773-7.001-6.515
	c-0.125-1.663,0.374-3.189,1.262-4.436l-1.234-0.138l-0.096-0.139l-0.319-1.248l-1.331-0.139l-0.194-0.138l-0.291-1.248l-1.22-0.138
	l-0.222-0.278l-0.25-1.109l-1.234-0.277l-0.18-0.139l-0.25-1.248l-1.234-0.139l-0.18-0.277l-0.222-1.248l-1.219-0.139l-0.195-0.277
	l-0.194-1.248l-1.22-0.138l-0.167-0.278l-0.194-1.248l-1.206-0.277l-0.18-0.139l-0.153-1.248l-1.206-0.277l-0.167-0.278
	l-0.139-1.248l-1.192-0.277l-0.18-0.277l-0.111-1.109l-1.178-0.416l-0.167-0.139l-0.097-1.248l-1.178-0.416l-0.152-0.138
	l-0.084-1.248l-1.178-0.416l-0.153-0.277l-0.041-1.248l-1.164-0.416l-0.167-0.139l-0.027-1.248l-1.151-0.416l-0.152-0.277v-1.248
	l-1.151-0.416l-0.153-0.278l0.028-1.248l-1.151-0.416l-0.138-0.277l0.041-1.248l-1.137-0.416l-0.124-0.277l0.055-1.248l-1.108-0.555
	l-0.153-0.138l0.097-1.248l-1.109-0.554l-0.152-0.278l0.125-1.248l-1.096-0.554l-0.139-0.139l0.139-1.248l-1.095-0.555l-0.125-0.277
	l0.153-1.248l-1.081-0.555l-0.097-0.278l0.167-1.248l-1.068-0.554l-0.111-0.278l0.194-1.248l-1.053-0.555l-0.069-0.138l0.278-1.386
	l-1.137-0.693l-0.111-0.278l0.25-1.109l-1.04-0.693l-0.096-0.277l0.277-1.248l-1.025-0.693l-0.111-0.138l0.305-1.248l-1.025-0.693
	l-0.083-0.277l0.319-1.248l-1.013-0.693l-0.083-0.277l0.333-1.248l-0.984-0.693l-0.069-0.278l0.36-1.109l-0.984-0.832h-0.014
	l-0.056-0.278l0.374-1.109l-0.956-0.832l-0.069-0.278l0.402-1.109l-0.956-0.832l-0.056-0.277l0.416-1.109l-0.929-0.832l-0.028-0.139
	l0.527-1.248l-1.026-0.97l-0.069-0.277l0.471-1.109l-0.887-0.832l-0.069-0.278l0.499-1.109l-0.888-0.832l-0.055-0.278l0.513-1.109
	l0.762-0.139l0.873,0.832l0.041,0.278l-0.499,1.109l0.888,0.832l0.056,0.278l-0.486,1.109l0.901,0.832l0.056,0.277l-0.527,1.248
	l0.984,0.693l0.069,0.277l-0.43,1.109l0.929,0.832l0.069,0.277l-0.416,1.109l0.943,0.832l0.069,0.277l-0.388,1.109l0.956,0.832
	l0.069,0.138l-0.388,1.248l0.998,0.693l0.083,0.277l-0.346,1.248l0.984,0.693l0.097,0.277l-0.333,1.109l0.998,0.693l0.097,0.277
	l-0.305,1.248l0.998,0.693l0.097,0.277l-0.278,1.109h0.014l1.012,0.693l0.097,0.277l-0.25,1.248l1.026,0.555l0.111,0.277
	l-0.291,1.248l1.081,0.554l-0.929,0.555l1.04-0.277l-0.195,1.248l1.04,0.555l0.125,0.277l-0.195,1.248l1.053,0.555l0.125,0.277
	l-0.167,1.248l1.068,0.555l0.124,0.139l-0.139,1.248l1.081,0.554l0.125,0.278l-0.111,1.248l1.095,0.555l0.125,0.138l-0.097,1.248
	l1.109,0.555l0.124,0.139l-0.069,1.248l1.095,0.555l0.153,0.277l-0.056,1.109l1.109,0.555l0.166,0.139l-0.041,1.248l1.123,0.555
	l0.153,0.138l-0.014,1.248l1.137,0.416l0.152,0.277l0.028,1.248l1.151,0.416l0.138,0.139l0.042,1.248l1.15,0.416l0.167,0.139
	l0.056,1.248l1.136,0.416l0.194,0.138l0.069,1.248l1.165,0.416l0.166,0.138l0.111,1.248l1.179,0.416l0.167,0.139l0.124,1.248
	l1.164,0.278l0.195,0.138l0.138,1.248l1.193,0.278l0.179,0.277l0.167,1.109l1.179,0.277l0.194,0.277l0.18,1.248l1.207,0.139
	l0.18,0.277l0.207,1.109l1.207,0.277l0.194,0.139l0.236,1.248l1.192,0.277l0.207,0.139l0.25,1.248l1.22,0.139l0.18,0.139
	l0.278,1.248l1.206,0.138l0.222,0.139l0.25,1.248l1.248,0.139l0.208,0.139l0.318,1.109c1.179-1.248,2.842-2.218,4.742-2.357
	c0.166,0,0.333,0,0.499,0c3.659,0,6.751,2.773,7.014,6.515c0.111,1.525-0.263,2.911-0.97,4.02l0.915,0.139l0.222,0.138l0.471,1.248
	l1.22-0.139l0.236,0.139l0.485,1.109h1.207l0.25,0.139l0.498,1.109l1.22-0.139l0.236,0.139l0.526,1.109h1.22l0.236,0.138
	l0.541,1.109l1.219-0.139l0.25,0.139l0.555,0.97l1.219-0.138l0.25,0.138l0.582,1.109l1.207-0.139h0.25l0.61,1.109l1.206-0.139
	l0.25,0.139l0.624,0.97l1.192-0.138h0.264l0.637,1.109l1.192-0.277l0.264,0.138l0.665,0.97l1.192-0.138h0.25l0.679,1.248
	l1.192-0.416h0.166l0.735,1.109l1.247-0.416l0.264,0.139l0.721,0.97l1.164-0.277h0.263l0.749,1.109l1.164-0.416l0.263,0.138
	l0.749,0.97l1.179-0.416h0.25l0.776,0.97l1.179-0.416l0.25,0.138l0.79,0.97l1.164-0.416h0.25l0.817,1.109l1.137-0.554h0.263
	l0.832,0.97l1.137-0.555l0.277,0.138l0.833,0.832l1.136-0.416h0.278l0.845,0.97l1.123-0.554h0.278l0.873,0.97l1.095-0.554h0.278
	l0.888,1.248L333.481,254.892"/>
<polyline fill="#C4A4A7" points="228.069,126.247 227.334,126.247 226.627,125.277 226.641,124.999 227.375,124.029 226.724,122.92 
	226.738,122.643 227.5,121.672 226.862,120.564 226.876,120.286 227.653,119.315 227.043,118.345 227.056,118.068 227.861,117.098 
	227.251,115.989 227.264,115.85 228.207,114.88 227.514,113.632 227.555,113.355 228.387,112.523 227.819,111.414 227.861,111.137 
	228.706,110.167 228.165,109.057 228.207,108.78 229.081,107.948 228.554,106.839 228.609,106.562 229.483,105.592 228.984,104.483 
	229.039,104.205 229.94,103.374 229.468,102.265 229.524,101.987 230.439,101.155 229.981,99.908 230.037,99.77 230.966,98.938 
	230.536,97.69 230.606,97.413 231.548,96.581 231.132,95.472 231.201,95.195 232.158,94.404 231.77,93.226 231.853,92.963 
	232.823,92.2 232.449,91.008 232.532,90.758 233.516,89.996 233.17,88.804 233.253,88.554 234.252,87.806 233.933,86.6 
	234.015,86.364 235.042,85.629 234.736,84.423 234.834,84.188 235.859,83.481 235.568,82.274 235.624,82.122 236.788,81.401 
	236.456,80.126 236.566,79.863 237.606,79.211 237.37,77.991 237.496,77.727 238.923,77.187 239.464,78.629 239.366,78.864 
	238.313,79.516 238.562,80.722 238.466,80.958 237.342,81.623 237.689,82.815 236.636,82.524 237.592,83.065 236.566,83.758 
	236.871,84.936 236.76,85.213 235.763,85.907 236.067,87.071 235.97,87.348 234.986,88.056 235.318,89.234 235.236,89.497 
	234.252,90.232 234.598,91.41 234.528,91.674 233.559,92.422 233.933,93.587 233.85,93.85 232.893,94.626 233.295,95.749 
	233.225,96.026 232.283,96.858 232.699,97.967 232.643,98.244 231.714,99.076 232.158,100.185 232.089,100.462 231.174,101.294 
	231.631,102.403 231.59,102.681 230.689,103.512 231.174,104.621 231.118,104.899 230.245,105.73 230.744,106.978 230.689,107.117 
	229.829,108.087 230.356,109.196 230.315,109.473 229.468,110.305 230.009,111.414 229.968,111.691 229.136,112.523 
	229.705,113.632 229.677,113.909 228.762,114.88 229.441,115.989 228.346,115.989 229.413,116.127 228.623,117.098 229.219,118.207 
	229.192,118.484 228.415,119.454 229.039,120.425 229.025,120.702 228.263,121.672 228.901,122.781 228.886,123.059 
	228.152,124.029 228.803,124.999 228.803,125.277 228.069,126.247 "/>
<path fill="#C4A4A7" d="M264.237,123.197h-0.777l-0.624-1.109l0.027-0.277l0.805-0.97l-0.596-1.109l0.028-0.277l0.832-0.832
	l-0.569-1.109l0.041-0.278l0.846-0.97l-0.541-1.109l0.055-0.277l0.874-0.832l-0.514-1.109l0.056-0.277l0.901-0.97l-0.486-1.109
	l0.056-0.278l0.929-0.832l-0.458-1.109l0.069-0.278l0.943-0.832l-0.415-1.248l0.069-0.277l0.956-0.693l-0.388-1.248l0.084-0.277
	l0.984-0.693l-0.36-1.248l0.083-0.277l1.012-0.693l-0.333-1.248l0.083-0.278l1.026-0.693l-0.291-1.248l0.083-0.139l1.053-0.693
	l-0.277-1.276l0.111-0.264l1.054-0.652l-0.222-1.234l0.096-0.236l1.081-0.638l-0.208-1.234l0.111-0.236l1.096-0.624l-0.167-1.234
	l0.125-0.236l1.095-0.582l-0.124-1.234l0.111-0.236l1.123-0.568l-0.111-1.234l0.152-0.25l1.123-0.513l-0.083-1.234l0.096-0.152
	l1.262-0.513l-0.111-1.317l0.139-0.208l1.164-0.485l-0.014-1.248l0.152-0.208l1.164-0.443l0.028-1.248l0.152-0.208l1.179-0.416
	l0.056-1.248l0.152-0.208l1.192-0.388l0.083-1.234l0.18-0.222l1.192-0.346l0.111-1.234l0.18-0.208l1.192-0.319l0.152-1.234
	l0.18-0.194l1.207-0.291l0.18-1.234l0.194-0.208l1.207-0.25l0.207-1.22l0.195-0.18l1.22-0.236l0.235-1.22l0.194-0.18l1.234-0.208
	l0.277-1.206l0.18-0.18l1.248-0.166l0.305-1.206l0.195-0.166l1.234-0.139l0.333-1.192l0.222-0.18l1.234-0.097l0.36-1.179
	l0.223-0.194l1.234-0.055l0.388-1.179l0.223-0.166l1.234-0.028l0.43-1.178l0.207-0.138l1.248-0.014v-0.069
	c-0.707-1.276-1.164-2.717-1.275-4.256c-0.416-5.753,3.923-10.757,9.662-11.173c0.264-0.028,0.514-0.028,0.762-0.028
	c3.938,0,7.431,2.218,9.205,5.531l0.651-0.707l0.264-0.083l1.206,0.305l0.735-1.012l0.235-0.083l1.206,0.347l0.749-0.984
	l0.264-0.097l1.192,0.388l0.776-0.97l0.263-0.083l1.179,0.402l0.804-0.943l0.264-0.069l1.164,0.43l0.832-0.929l0.263-0.055
	l1.164,0.458l0.846-0.901l0.263-0.055l1.151,0.485l0.873-0.874l0.263-0.055l1.137,0.527l0.901-0.859l0.25-0.042l1.123,0.541
	l0.915-0.832l0.139-0.014l1.22,0.665l0.956-0.929l0.278-0.028l1.081,0.61l0.97-0.79l0.25-0.028l1.081,0.638l0.984-0.762l0.278-0.014
	l1.053,0.652l0.998-0.734l0.263-0.014l1.04,0.679l1.025-0.707h0.263l1.026,0.707l1.04-0.693l0.277,0.014l0.998,0.748l1.053-0.679
	l0.278,0.014l0.984,0.776l1.068-0.652l0.263,0.028l0.984,0.79l1.068-0.61l0.291,0.014l0.943,0.832l1.095-0.596l0.278,0.041
	l0.915,0.832l1.123-0.555l0.264,0.042l0.901,0.873l1.136-0.541l0.139,0.028l0.956,1.012l1.192-0.596l0.278,0.055l0.846,0.901
	l1.164-0.458l0.25,0.055l0.845,0.929l1.164-0.444l0.278,0.069l0.804,0.957l1.179-0.402l0.263,0.069l0.777,0.97l1.192-0.374
	l0.25,0.069l0.762,1.012l1.192-0.347l0.263,0.083l0.735,1.012l1.206-0.319l0.235,0.083l0.721,1.04l1.22-0.291l0.25,0.111
	l0.679,1.039l1.22-0.25l0.235,0.097l0.666,1.067l1.234-0.222l0.25,0.125l0.61,1.137l1.234-0.25l0.083,0.041l0.651,1.276l1.344-0.264
	l0.25,0.139l0.555,1.095l1.247-0.125l0.236,0.139l0.541,1.123l1.247-0.097l0.223,0.125l0.513,1.206l1.247-0.125l0.084,0.055
	l0.513,1.344l1.358-0.138l0.236,0.152l0.443,1.165h1.248l0.235,0.152l0.402,1.22l1.262-0.014l0.056,0.041l0.152,0.111l0.402,1.192
	l1.248,0.069l0.194,0.153l0.375,1.192l1.247,0.097l0.208,0.18l0.333,1.192l1.234,0.125l0.208,0.18l0.305,1.206l1.234,0.152
	l0.194,0.18l0.278,1.22l1.234,0.194l0.194,0.18l0.236,1.234l1.234,0.208l0.083,0.097l0.208,1.386l0.056-0.028l1.829-0.721
	c0.069,0,0.153,0,0.236,0c1.705,0,3.147,1.317,3.271,3.05c0.125,1.802-1.234,3.369-3.049,3.507c-0.069,0-0.152,0.014-0.236,0.014
	c-1.691,0-3.147-1.331-3.271-3.05l0.734-2.301l0.028-0.083l-1.248-0.138l-0.18-0.194l-0.235-1.206l-1.192-0.194l-0.208-0.194
	l-0.25-1.192l-1.206-0.166l-0.208-0.18l-0.278-1.192l-1.219-0.152l-0.195-0.167l-0.319-1.178l-1.219-0.125l-0.208-0.166
	l-0.347-1.178l-1.206-0.069l-0.222-0.18l-0.375-1.151l-1.206-0.041l-0.167-0.125l-0.415-1.234l-1.276,0.014l-0.222-0.152
	l-0.43-1.151l-1.219,0.014l-0.223-0.139l-0.429-1.275l-1.248,0.18l-0.152-0.097l-0.513-1.22l-1.262,0.138l-0.25-0.152l-0.527-1.095
	l-1.22,0.097l-0.222-0.125l-0.554-1.095l-1.22,0.125l-0.222-0.111l-0.555-1.22l-1.234,0.305l-0.166-0.083l-0.624-1.165l-1.275,0.25
	l-0.235-0.097l-0.624-1.053l-1.192,0.236l-0.263-0.125l-0.652-1.026l-1.192,0.264l-0.25-0.097l-0.693-1.026l-1.164,0.305
	l-0.278-0.111l-0.707-0.998l-1.178,0.333l-0.25-0.083l-0.735-0.984l-1.164,0.346l-0.278-0.083l-0.748-0.957l-1.165,0.388
	l-0.249-0.083l-0.79-0.943l-1.151,0.416l-0.264-0.069l-0.804-0.915l-1.123,0.444l-0.278-0.069l-0.832-0.901l-1.136,0.471
	l-0.263-0.055l-0.86-0.97l-1.109,0.596l-0.263-0.041l-0.873-0.873l-1.096,0.541l-0.291-0.042l-0.887-0.832l-1.096,0.555
	l-0.263-0.041l-0.929-0.804l-1.081,0.582l-0.25-0.028l-0.943-0.79l-1.053,0.624l-0.291-0.028l-0.956-0.762l-1.04,0.638h-0.264
	l-0.984-0.748l-1.04,0.665h-0.25l-1.012-0.707l-0.998,0.693h-0.278l-1.012-0.693l-0.984,0.721h-0.278l-1.025-0.665l-0.985,0.748
	l-0.249,0.014l-1.054-0.638l-0.943,0.763l-0.291,0.028l-1.053-0.61l-0.929,0.79l-0.263,0.028l-1.123-0.665l-0.86,0.887l-0.278,0.041
	l-1.095-0.541l-0.888,0.818l-0.263,0.055l-1.109-0.541l-0.873,0.859l-0.263,0.056l-1.123-0.499l-0.846,0.873l-0.263,0.055
	l-1.136-0.471l-0.818,0.901l-0.263,0.069l-1.137-0.444l-0.804,0.929L331.027,44l-1.151-0.402l-0.777,0.943l-0.263,0.069
	l-1.164-0.388l-0.749,0.97l-0.263,0.069l-1.165-0.346l-0.721,0.984l-0.277,0.097l-1.179-0.333l-0.693,0.998l-0.25,0.097
	l-0.845-0.042l0.637,2.87c0.402,5.739-3.923,10.757-9.676,11.173c-0.25,0.014-0.499,0.028-0.762,0.028
	c-3.577,0-6.806-1.858-8.692-4.686l-0.415,1.095l-0.236,0.166l-1.22,0.014l-0.402,1.151l-0.207,0.166l-1.22,0.055l-0.388,1.165
	l-0.194,0.152l-1.22,0.097l-0.347,1.165l-0.194,0.166l-1.22,0.111l-0.305,1.179l-0.222,0.18l-1.207,0.152l-0.278,1.178l-0.207,0.194
	l-1.207,0.166l-0.235,1.179l-0.208,0.208l-1.206,0.194l-0.208,1.192l-0.195,0.208l-1.206,0.236l-0.194,1.206l-0.167,0.194
	l-1.206,0.277l-0.153,1.192l-0.18,0.208l-1.178,0.305l-0.139,1.206l-0.167,0.208l-1.178,0.319l-0.111,1.22l-0.167,0.222l-1.164,0.36
	l-0.056,1.206l-0.18,0.222l-1.151,0.388l-0.027,1.206l-0.18,0.236l-1.137,0.416v1.206l-0.167,0.236l-1.136,0.444l0.041,1.206
	l-0.166,0.25l-1.207,0.444l0.139,1.234l-0.984-0.457l0.845,0.693l-1.123,0.499l0.083,1.234l-0.124,0.222l-1.109,0.527l0.139,1.22
	l-0.139,0.236l-1.095,0.569l0.152,1.206l-0.124,0.249l-1.081,0.583l0.194,1.192l-0.124,0.263l-1.054,0.61l0.223,1.192l-0.125,0.264
	l-1.04,0.638l0.236,1.192l-0.097,0.278l-1.025,0.693l0.277,1.109l-0.111,0.278l-0.998,0.693h-0.014l0.319,1.109l-0.097,0.416
	l-0.998,0.693l0.346,1.109l-0.096,0.278l-0.97,0.693l0.36,1.248l-0.069,0.278l-0.957,0.693l0.402,1.248l-0.069,0.139l-0.943,0.832
	l0.43,1.109l-0.069,0.278l-0.915,0.832l0.458,1.248l-0.056,0.139l-0.887,0.97l0.485,1.109l-0.055,0.277l-0.874,0.832l0.514,1.109
	l-0.042,0.277l-0.845,0.832l0.541,1.109l-0.041,0.277l-0.818,0.832l0.569,1.109l-0.028,0.278l-0.804,0.97l0.596,0.97l-0.027,0.278
	L264.237,123.197"/>
<polyline fill="#C4A4A7" points="352.722,221.483 352.445,221.483 351.433,220.652 350.379,221.345 350.115,221.345 
	349.118,220.652 348.064,221.206 347.911,221.206 346.858,220.374 345.735,221.067 345.472,221.067 344.501,220.236 
	343.406,220.929 343.157,220.79 342.214,219.959 341.091,220.513 340.828,220.513 339.913,219.682 338.79,220.236 338.513,220.236 
	337.639,219.266 336.502,219.82 336.226,219.82 335.366,218.85 334.215,219.404 334.104,219.266 333.175,218.295 331.942,218.85 
	331.692,218.711 330.86,217.741 329.696,218.295 329.432,218.156 328.628,217.186 327.45,217.602 327.187,217.463 326.424,216.493 
	325.232,216.909 324.969,216.77 324.22,215.8 323.028,216.077 322.904,216.077 322.127,214.968 320.852,215.245 320.588,215.245 
	319.895,214.136 318.689,214.414 318.564,214.414 317.843,213.166 316.54,213.582 316.29,213.443 315.667,212.334 314.433,212.473 
	314.35,212.473 313.684,211.225 312.34,211.503 312.104,211.364 311.522,210.255 310.288,210.393 310.053,210.255 309.609,208.869 
	311.078,208.314 311.328,208.453 311.882,209.562 313.089,209.423 313.338,209.562 313.892,210.809 315.113,210.532 
	315.293,210.532 315.93,211.641 317.178,211.364 317.428,211.503 318.066,212.75 319.258,212.334 319.506,212.473 320.186,213.443 
	321.378,213.166 321.628,213.304 322.321,214.414 323.499,213.998 323.749,214.136 324.483,215.107 325.648,214.691 
	325.911,214.829 326.646,215.8 327.825,215.384 328.074,215.522 328.85,216.493 330.001,216.077 330.264,216.077 331.054,217.048 
	332.205,216.632 332.468,216.77 333.286,217.741 334.409,217.186 334.673,217.186 335.518,218.156 336.655,217.602 336.904,217.741 
	337.778,218.572 338.887,218.018 339.151,218.018 340.037,218.988 341.119,218.434 341.396,218.434 342.297,219.266 
	343.379,218.711 343.655,218.711 344.584,219.543 345.638,218.85 345.915,218.988 346.886,219.82 347.911,219.127 347.967,220.236 
	348.175,219.127 349.159,219.82 350.185,219.266 350.462,219.266 351.446,219.959 352.458,219.266 352.736,219.266 353.776,220.097 
	354.732,219.266 355.009,219.266 356.035,219.959 357.005,219.266 357.283,219.127 358.323,219.82 359.279,219.127 359.556,219.127 
	360.61,219.682 361.552,218.988 361.815,218.85 362.883,219.543 363.812,218.711 364.075,218.711 365.157,219.266 366.071,218.434 
	366.321,218.434 367.43,218.988 368.303,218.018 368.581,218.018 369.69,218.572 370.535,217.741 370.813,217.602 371.977,218.156 
	372.767,217.186 373.1,218.295 373.031,217.186 374.181,217.602 374.985,216.77 375.249,216.632 376.399,217.048 377.189,216.077 
	377.453,216.077 378.603,216.493 379.366,215.522 379.629,215.384 380.794,215.8 381.542,214.829 381.792,214.829 382.956,215.107 
	383.677,214.136 383.927,213.998 385.105,214.275 385.798,213.304 386.048,213.166 387.24,213.443 387.905,212.473 388.155,212.334 
	389.347,212.611 389.985,211.641 390.234,211.503 391.44,211.641 392.05,210.67 392.3,210.532 393.492,210.67 394.088,209.7 
	394.324,209.562 395.529,209.7 396.098,208.591 396.334,208.453 397.54,208.591 398.08,207.482 398.302,207.344 399.522,207.482 
	400.035,206.373 400.257,206.235 401.477,206.235 401.948,205.125 402.184,204.987 403.403,204.987 403.848,203.878 
	404.069,203.739 405.4,203.739 405.691,202.63 405.844,202.492 407.174,202.492 407.535,201.244 407.757,201.106 408.962,200.967 
	409.323,199.858 409.531,199.719 410.751,199.58 411.083,198.333 411.278,198.194 412.497,198.056 412.803,196.947 412.997,196.669 
	414.217,196.531 414.494,195.422 414.674,195.144 415.88,195.006 416.13,193.758 416.31,193.62 417.516,193.342 417.737,192.233 
	417.904,191.956 419.221,191.817 419.276,190.57 419.47,190.292 420.774,190.154 420.801,188.906 420.968,188.629 422.257,188.352 
	422.271,187.104 422.451,186.965 423.63,186.55 423.713,185.302 423.865,185.163 425.043,184.747 425.098,183.5 425.252,183.361 
	426.416,182.945 426.444,181.698 426.596,181.559 427.732,181.005 427.732,179.895 427.886,179.618 429.008,179.202 428.98,177.955 
	429.119,177.678 430.242,177.262 430.173,176.014 430.311,175.737 431.42,175.321 431.309,174.073 431.448,173.796 432.931,173.38 
	433.347,174.905 433.208,175.044 432.086,175.598 432.169,176.846 432.03,177.123 430.893,177.678 430.963,178.925 430.811,179.064 
	429.66,179.618 429.687,180.866 429.521,181.005 428.37,181.559 428.37,182.807 428.204,182.945 427.039,183.361 426.998,184.609 
	426.831,184.886 425.654,185.302 425.584,186.411 425.404,186.688 424.225,187.104 424.128,188.352 424.031,188.352 
	422.687,188.768 422.618,190.015 422.548,190.154 421.161,190.431 421.065,191.817 420.996,191.817 419.595,192.095 
	419.484,193.481 419.276,193.758 418.071,193.897 417.849,195.144 417.641,195.422 416.421,195.56 416.171,196.808 415.949,196.947 
	414.729,197.085 414.452,198.333 414.23,198.472 413.011,198.61 412.692,199.858 412.484,199.996 411.236,200.135 410.89,201.383 
	410.682,201.521 409.448,201.66 409.06,202.769 408.851,202.907 407.548,202.907 407.202,204.155 407.119,204.294 405.691,204.155 
	405.289,205.541 405.067,205.68 403.833,205.68 403.362,206.789 403.14,206.928 401.893,206.928 401.394,208.037 401.158,208.175 
	399.924,208.175 399.397,209.285 399.162,209.423 397.928,209.285 397.36,210.393 397.124,210.532 395.904,210.393 395.308,211.503 
	395.073,211.641 393.838,211.364 393.229,212.473 392.993,212.611 391.759,212.334 391.121,213.443 390.886,213.582 
	389.652,213.304 388.986,214.414 388.737,214.552 387.531,214.275 386.838,215.245 386.589,215.384 385.382,215.107 
	384.661,216.077 384.412,216.216 383.219,215.8 382.471,216.77 382.207,216.909 381.03,216.493 380.253,217.463 380.003,217.602 
	378.811,217.186 378.021,218.156 377.758,218.295 376.593,217.879 375.775,218.711 375.512,218.85 374.348,218.434 373.516,219.266 
	373.336,219.266 372.102,218.711 371.228,219.82 370.965,219.82 369.828,219.266 368.927,220.236 368.677,220.236 367.541,219.682 
	366.64,220.513 366.362,220.513 365.254,219.959 364.325,220.79 364.062,220.79 362.966,220.236 362.01,221.067 361.746,221.067 
	360.665,220.513 359.695,221.206 359.431,221.206 358.364,220.652 357.366,221.345 357.103,221.345 356.049,220.652 
	355.051,221.483 354.912,221.483 353.776,220.652 352.722,221.483 "/>
<path fill="#C4A4A7" d="M470.153,82.108l-0.985-0.652l-0.111-0.263l0.25-1.192l-1.04-0.652l-0.111-0.25l0.222-1.206l-1.039-0.624
	l-0.112-0.249l0.195-1.192l-1.053-0.638l-0.125-0.222l0.18-1.206l-1.067-0.61l-0.111-0.222l0.152-1.206l-1.068-0.568l-0.139-0.264
	l0.139-1.192l-1.081-0.541l-0.139-0.263l0.112-1.206l-1.081-0.513l-0.153-0.249l0.097-1.22l-1.109-0.513l-0.139-0.222l0.069-1.22
	l-1.123-0.499l-0.139-0.222l0.042-1.22l-1.124-0.485l-0.138-0.208l0.014-1.234l-1.123-0.429l-0.167-0.25l0.014-1.206l-1.137-0.416
	l-0.166-0.25l-0.014-1.22l-1.151-0.402l-0.166-0.222l-0.041-1.22l-1.165-0.402l-0.152-0.194l-0.028-1.275l-1.206-0.305l0.79-0.762
	l-0.943,0.554l-0.097-1.234l-1.164-0.333l-0.18-0.222l-0.111-1.22l-1.179-0.319l-0.18-0.208l-0.124-1.22l-1.192-0.305l-0.167-0.194
	l-0.152-1.22l-1.192-0.278l-0.195-0.194l-0.166-1.22l-1.192-0.25l-0.195-0.208l-0.194-1.206l-1.192-0.222l-0.194-0.208l-0.195-1.248
	l-1.22-0.166l-0.194-1.553l-1.442-0.014l-0.208-0.208l-0.263-1.192l-1.206-0.166l-0.208-0.18l-0.278-1.206l-1.22-0.138l-0.207-0.18
	l-0.291-1.179l-1.22-0.125l-0.208-0.18l-0.319-1.178l-1.234-0.125l-0.194-0.152l-0.36-1.179l-1.207-0.083l-0.222-0.166l-0.36-1.179
	l-1.234-0.055l-0.208-0.152l-0.402-1.165l-1.22-0.041l-0.222-0.166l-0.402-1.151l-1.234-0.014l-0.222-0.152l-0.43-1.151l-1.22,0.014
	l-0.222-0.153l-0.458-1.15l-1.22,0.027l-0.235-0.138l-0.471-1.137l-1.22,0.055l-0.236-0.139l-0.485-1.137l-1.234,0.083l-0.222-0.139
	l-0.514-1.109l-1.234,0.083l-0.222-0.125l-0.541-1.109l-1.22,0.125l-0.235-0.139l-0.555-1.095l-1.219,0.153l-0.236-0.125
	l-0.582-1.095l-1.22,0.166l-0.235-0.125l-0.569-1.192l-1.22,0.305l-0.18-0.069l-0.637-1.164l-1.262,0.264l-0.25-0.111l-0.638-1.053
	l-1.192,0.236l-0.25-0.111l-0.651-1.04l-1.22,0.25l-0.235-0.097l-0.666-1.137l-1.206,0.374l-0.25-0.097l-0.693-1.012l-1.179,0.291
	l-0.263-0.097l-0.596-0.679c-1.178,2.787-3.798,4.852-7.014,5.088c-0.194,0.014-0.402,0.014-0.596,0.014
	c-4.297,0-7.929-3.327-8.248-7.68l0.139-2.065l-0.97,0.305l-0.277-0.055l-0.845-0.901L377.55,6.64l-0.25-0.042l-0.873-0.887
	l-1.108,0.513l-0.278-0.041l-0.888-0.859l-1.095,0.527l-0.278-0.042l-0.887-0.832l-1.109,0.541l-0.263-0.027l-0.901-0.818
	l-1.081,0.569l-0.278-0.041l-0.929-0.804l-1.081,0.596l-0.249-0.027l-0.943-0.79l-1.067,0.61l-0.263-0.014l-0.957-0.776
	l-1.068,0.624l-0.249-0.014l-0.998-0.86l-1.012,0.748l-0.263-0.014l-0.998-0.735l-1.012,0.679l-0.291-0.014l-0.984-0.721
	l-1.012,0.693l-0.277-0.014l-0.998-0.693l-0.998,0.707h-0.291l-1.013-0.679l-0.984,0.721h-0.277l-1.026-0.665l-0.984,0.748
	l-0.263,0.014l-1.054-0.652l-0.956,0.762l-0.278,0.014l-1.053-0.624l-0.956,0.776l-0.264,0.028l-1.053-0.61l-0.943,0.776
	l-0.263,0.041l-1.081-0.582l-0.915,0.79l-0.277,0.041l-1.081-0.568l-0.888,0.818l-0.278,0.041l-1.095-0.541l-0.873,0.832
	l-0.291,0.042l-1.095-0.527l-0.874,0.845l-0.263,0.056l-1.123-0.513l-0.86,0.874l-0.263,0.041l-1.123-0.471l-0.846,0.873
	l-0.25,0.055l-1.136-0.457l-0.832,0.901l-0.263,0.055l-1.207-0.541l-0.734,1.012l-0.264,0.055l-1.15-0.416l-0.79,0.929l-0.278,0.069
	l-1.136-0.388l-0.777,0.929l-0.263,0.083l-1.164-0.388l-0.763,0.957l-0.263,0.083l-1.164-0.36l-0.735,0.97l-0.263,0.083
	l-1.178-0.333l-0.735,0.984l-0.235,0.083l-1.192-0.305l-0.707,0.998l-0.235,0.083l-1.192-0.291l-0.679,1.012l-0.278,0.097
	l-1.179-0.277l-0.665,1.026l-0.263,0.111l-1.192-0.25l-0.652,1.026l-0.25,0.111l-1.192-0.222l-0.638,1.039l-0.25,0.111l-1.206-0.194
	l-0.61,1.053l-0.25,0.111l-1.207-0.18l-0.582,1.067l-0.25,0.125l-1.206-0.166l-0.582,1.081l-0.236,0.125l-1.219-0.139l-0.555,1.095
	l-0.222,0.125l-1.331-0.208l-0.415,1.192l-0.167,0.097l-1.317-0.139l-0.499,1.192l-0.236,0.139L288.26,22l-0.471,1.137l-0.222,0.139
	l-1.234-0.041l-0.471,1.123l-0.236,0.152l-1.22-0.027l-0.457,1.137l-0.208,0.152h-1.234l-0.416,1.137l-0.235,0.167l-1.22,0.014
	l-0.416,1.151l-0.207,0.152l-1.234,0.042l-0.374,1.151l-0.167,0.138l-1.178,0.097l0.346,1.248c0.139,1.816-1.234,3.382-3.036,3.521
	c-0.083,0-0.152,0-0.235,0c-1.705,0-3.147-1.317-3.285-3.036c-0.125-1.816,1.247-3.397,3.049-3.521l2.592,0.998l0.374-0.998
	l0.069-0.042l0.139-0.111l1.248-0.055l0.402-1.178l0.222-0.166l1.234-0.014l0.43-1.165l0.222-0.152l1.234-0.014l0.444-1.151
	l0.235-0.166l1.248,0.028l0.457-1.151l0.223-0.139l1.247,0.028l0.486-1.137l0.194-0.111l1.289,0.069l0.498-1.164l0.223-0.139
	l1.289,0.125l0.486-1.164l0.083-0.042l1.414,0.167l0.527-1.262l0.235-0.139l1.234,0.139l0.568-1.095l0.25-0.139l1.22,0.153
	l0.596-1.081l0.222-0.111l1.247,0.166l0.61-1.081l0.236-0.125l1.234,0.208l0.624-1.068l0.25-0.111l1.22,0.222l0.637-1.054
	l0.25-0.111l1.22,0.236l0.666-1.039l0.25-0.097l1.219,0.264l0.694-1.04l0.222-0.083l1.234,0.277l0.693-1.012l0.263-0.097
	l1.192,0.305l0.721-0.998l0.278-0.097l1.179,0.333l0.748-0.984l0.25-0.083l1.192,0.346l0.762-0.97l0.264-0.083l1.178,0.374
	l0.777-0.97l0.263-0.069l1.164,0.388l0.805-0.943l0.25-0.069L321.697,7l0.805-0.929l0.111-0.028l1.303,0.541l0.832-1.053
	l0.277-0.069l1.151,0.458l0.846-0.901l0.263-0.055l1.136,0.471l0.86-0.874l0.278-0.055l1.123,0.499l0.888-0.874l0.263-0.041
	l1.123,0.513l0.888-0.846l0.263-0.042l1.123,0.541l0.915-0.832l0.25-0.041l1.109,0.555l0.929-0.818l0.263-0.027l1.095,0.582
	l0.943-0.804l0.278-0.028l1.068,0.596l0.956-0.79l0.278-0.014l1.067,0.624l0.97-0.776l0.278-0.027l1.053,0.652l0.984-0.763h0.278
	l1.053,0.652l0.998-0.735l0.263-0.014l1.04,0.679l1.012-0.721h0.263l1.026,0.707l1.04-0.707h0.25l1.026,0.721l1.04-0.693
	l0.263,0.014l0.998,0.735l1.053-0.665h0.124l1.096,0.887l1.081-0.762l0.291,0.014l0.97,0.776l1.067-0.638l0.278,0.028l0.943,0.79
	l1.081-0.61l0.277,0.027l0.943,0.804l1.095-0.582l0.263,0.027l0.943,0.818l1.096-0.554l0.263,0.027l0.929,0.846l1.109-0.541
	l0.263,0.028l0.901,0.873l1.136-0.541l0.264,0.055l0.887,0.887l1.137-0.527l0.263,0.069l0.873,0.887l1.151-0.485l0.263,0.055
	l0.79,0.707c1.026-3.078,3.813-5.421,7.25-5.67C388.502,0,388.695,0,388.904,0c4.284,0,7.93,3.327,8.234,7.666l-0.236,2.509
	l0.957-0.083l0.235,0.083l0.721,1.026l1.207-0.291l0.124,0.055l0.735,1.178l1.289-0.36l0.278,0.111l0.651,1.039l1.22-0.25
	l0.25,0.111l0.652,1.068l1.22-0.222l0.235,0.097l0.638,1.15l1.234-0.277l0.083,0.041l0.666,1.276l1.331-0.291l0.25,0.139
	l0.596,1.081l1.22-0.153l0.25,0.125l0.568,1.109l1.248-0.138l0.222,0.125l0.555,1.123l1.234-0.111l0.25,0.138l0.526,1.123
	l1.234-0.083l0.236,0.139l0.499,1.137l1.247-0.069l0.236,0.138l0.485,1.137l1.248-0.041l0.222,0.153l0.471,1.15l1.234-0.014
	l0.222,0.152l0.458,1.151l1.234,0.014l0.236,0.152l0.415,1.165l1.248,0.027l0.208,0.152l0.402,1.179l1.247,0.055l0.222,0.166
	l0.375,1.178l1.247,0.069l0.208,0.166l0.36,1.192l1.234,0.083l0.222,0.18l0.333,1.192l1.234,0.125l0.208,0.166l0.318,1.192
	l1.234,0.153l0.194,0.166l0.305,1.206l1.234,0.166l0.194,0.18l0.278,1.206l1.234,0.194l0.18,0.18l0.124,1.456l1.359-0.041
	l0.139,0.139l0.222,1.317l1.289,0.18l0.18,0.194l0.222,1.234l1.206,0.249l0.18,0.194l0.194,1.22l1.22,0.277l0.167,0.194l0.166,1.234
	l1.207,0.291l0.18,0.208l0.139,1.234l1.206,0.319l0.167,0.194l0.124,1.234l1.192,0.346l0.167,0.194l0.111,1.248l1.179,0.346
	l0.111,0.139l0.055,1.344l1.248,0.347l0.18,0.236l0.041,1.234l1.164,0.402l0.167,0.208l0.027,1.248l1.165,0.43l0.139,0.194
	l0.027,1.262l1.151,0.444l0.152,0.208l-0.014,1.248l1.151,0.471l0.152,0.236l-0.041,1.234l1.137,0.471l0.152,0.25l-0.069,1.22
	l1.123,0.513l0.139,0.222l-0.069,1.248l1.109,0.527l0.124,0.222l-0.097,1.248l1.109,0.555l0.124,0.208l-0.111,1.248l1.096,0.583
	l0.111,0.222l-0.139,1.234l1.081,0.583l0.139,0.263l-0.18,1.206l1.067,0.596l0.125,0.277l-0.195,1.192l1.068,0.624l0.111,0.25
	l-0.222,1.22l1.053,0.652l0.111,0.25l-0.235,1.22l1.039,0.665l0.097,0.236l-0.554,1.428L470.153,82.108"/>
<path fill="#C4A4A7" d="M363.299,256.14l-1.081-1.109l0.998-1.109h0.278l1.053,0.554l0.943-0.693l0.263-0.139l1.068,0.693
	l0.929-0.832h0.263l1.081,0.554l0.915-0.832h0.278l1.081,0.555l0.915-0.832l0.25-0.139l1.165,0.693l0.817-0.97h0.278l1.109,0.416
	l0.859-0.832h0.291l1.109,0.416l0.846-0.832h0.277l1.123,0.416l0.832-0.832l0.264-0.139l1.136,0.416l0.818-0.832l0.263-0.139
	l1.151,0.416l0.79-0.832l0.278-0.138l1.15,0.416l0.777-0.97h0.263l1.165,0.416l0.776-0.97l0.25-0.139l1.22,0.416l0.693-0.97
	l0.25-0.139l1.192,0.416l0.721-0.97l0.263-0.138l1.179,0.277l0.707-0.97h0.264l1.178,0.278l0.707-1.109h0.25l1.178,0.278
	l-0.402-1.664c-0.235-3.188,2.177-5.961,5.351-6.238c0.139,0,0.277,0,0.416,0c2.176,0,4.089,1.248,5.074,3.05l0.568-0.97
	l0.236-0.139l1.206,0.139l0.569-1.109l0.236-0.139l1.206,0.139l0.541-1.109l0.235-0.139l1.207,0.139l0.526-1.109l0.236-0.139
	l1.22,0.139l0.485-1.109l0.25-0.138h1.207l0.485-1.109l0.222-0.139h1.22l0.443-1.109l0.25-0.139h1.22l0.43-1.109l0.222-0.139h1.331
	l0.305-1.248h1.47l0.374-1.248l0.208-0.139l1.22-0.138l0.388-1.109l0.194-0.139l1.234-0.138l0.333-1.109l0.236-0.277h1.206
	l0.333-1.248l0.207-0.139l1.22-0.139l0.305-1.248l0.207-0.138l1.22-0.139l0.278-1.109l0.208-0.278l1.025-0.138l-1.081-2.634
	c-0.194-2.634,1.761-4.852,4.339-5.13c0.111,0,0.222,0,0.333,0c1.179,0,2.26,0.416,3.092,1.248l0.194-1.109l0.195-0.277l1.192-0.278
	l0.152-1.109l0.194-0.277l1.179-0.278l0.152-1.248l0.152-0.139l1.193-0.277l0.111-1.248l0.166-0.277l1.179-0.278l0.083-1.248
	l0.18-0.277l1.179-0.278l0.055-1.248l0.18-0.138l1.151-0.416l0.056-1.248l0.152-0.277l1.164-0.416l0.028-1.109l0.139-0.278
	l1.164-0.416v-1.248l0.152-0.139l1.137-0.554l-0.014-1.248l0.139-0.139l1.151-0.416l-0.055-1.248l0.152-0.278l1.123-0.416
	l-0.056-1.248l0.125-0.277l1.123-0.555l-0.083-1.109l0.124-0.278l1.123-0.554l-0.124-1.248l0.139-0.138l1.108-0.555l-0.139-1.248
	l0.125-0.277l1.095-0.555l-0.152-1.248l0.111-0.139l1.081-0.693l-0.167-1.109l0.111-0.277l1.068-0.693l-0.194-1.109l0.111-0.277
	l1.053-0.693l-0.208-1.109l0.097-0.278l1.151-0.693l-0.347-1.109l0.097-0.278l1.04-0.693l-0.278-1.248l0.111-0.278l1.025-0.554
	l-0.305-1.248l0.097-0.278l1.053-0.693l-0.347-1.109l0.097-0.277l0.998-0.832l-0.333-1.109l0.084-0.277l0.984-0.693l-0.36-1.248
	l0.083-0.278l0.97-0.693l-0.374-1.109l0.083-0.277l0.596-0.693c-1.858-0.832-3.244-2.634-3.396-4.713
	c-0.223-3.189,2.12-5.823,5.226-6.1c0.139,0,0.278,0,0.416,0c2.925,0,5.42,2.356,5.628,5.267c0.222,3.05-2.121,5.823-5.226,6.1
	l-1.275-0.138l0.111,0.832l-0.084,0.277l-0.97,0.832l0.36,1.109l-0.069,0.277l-0.998,0.693l0.347,1.248l-0.084,0.277l-0.998,0.693
	l0.318,1.248l-0.083,0.278l-1.04,0.693l0.319,1.248h-0.014l-0.069,0.139l-1.026,0.832h-0.014l0.278,1.109l-0.097,0.278l-1.04,0.693
	l0.263,1.248l-0.055,0.139l-1.206,0.693l0.333,1.248l-0.111,0.277l-1.068,0.693l0.222,1.109l-0.124,0.277l-1.068,0.693l0.195,1.248
	l-0.125,0.138l-1.081,0.693l0.167,1.248l-0.125,0.139l-1.095,0.693l0.139,1.248l-0.125,0.139l-1.108,0.554l0.124,1.248l-0.124,0.277
	l-1.123,0.555l0.096,1.248l-0.139,0.138l-1.123,0.555l0.084,1.248l-0.153,0.278l-1.136,0.416l0.055,1.248l-0.138,0.277l-1.151,0.555
	l0.028,1.109l-0.139,0.278l-1.151,0.416v1.248l-0.139,0.277l-1.179,0.416v1.248l-0.166,0.278l-1.165,0.416l-0.027,1.248l-0.18,0.139
	l-1.165,0.416l-0.069,1.248l-0.153,0.277l-1.192,0.277l-0.083,1.248l-0.152,0.277l-1.207,0.277l-0.096,1.248l-0.18,0.278
	l-1.179,0.277l-0.124,1.248l-0.195,0.278l-1.192,0.277l-0.152,1.248l-0.18,0.139l-1.206,0.277l-0.167,1.248l-0.18,0.139
	l-1.179,0.277l0.985,2.634c0.18,2.495-1.775,4.852-4.353,4.991l-3.216-0.97l-0.291,1.109l-0.195,0.139l-1.234,0.139l-0.305,1.248
	l-0.195,0.139l-1.247,0.138l-0.319,1.248l-0.208,0.139l-1.234,0.139l-0.346,1.248l-0.208,0.138h-1.248l-0.36,1.248l-0.208,0.138
	l-1.234,0.139l-0.402,1.109l-0.222,0.139h-1.289l-0.346,1.248h-1.511l-0.375,1.386L426,233.96h-1.247l-0.458,1.109l-0.208,0.139
	h-1.247l-0.471,1.109l-0.236,0.139h-1.234l-0.499,1.109l-0.222,0.139h-1.234l-0.513,1.109l-0.236,0.139l-1.234-0.139l-0.541,1.109
	l-0.236,0.139l-1.219-0.139l-0.555,1.109l-0.25,0.139l-1.219-0.139l-0.583,1.109l-0.235,0.138l-1.192-0.138l0.319,1.525
	c0.235,3.189-2.177,5.961-5.351,6.1c-0.139,0-0.278,0-0.416,0c-2.107,0-3.993-1.109-5.005-2.911h-0.069l-0.693,0.97l-0.25,0.138
	l-1.206-0.277l-0.707,0.97l-0.263,0.138l-1.192-0.277l-0.734,0.97h-0.25l-1.207-0.278l-0.734,0.97h-0.139l-1.317-0.416l-0.762,1.109
	l-0.278,0.138l-1.164-0.416l-0.79,0.97l-0.25,0.139l-1.192-0.416l-0.79,0.832l-0.263,0.138l-1.165-0.416l-0.832,0.97h-0.263
	l-1.151-0.416l-0.832,0.832l-0.263,0.139l-1.164-0.555l-0.846,0.97h-0.263l-1.137-0.416l-0.873,0.832l-0.263,0.139l-1.137-0.555
	l-0.887,0.832h-0.111l-1.262-0.555l-0.915,0.97h-0.277l-1.109-0.555l-0.915,0.832h-0.264l-1.108-0.554l-0.929,0.832h-0.263
	l-1.096-0.555l-0.943,0.832h-0.263l-1.081-0.555l-0.957,0.693l-0.263,0.138H363.299"/>
<polyline fill="#C4A4A7" points="353.623,238.95 353.359,238.95 352.334,238.257 351.307,238.95 351.031,238.95 350.032,238.257 
	348.965,238.812 348.716,238.812 347.717,238.119 346.65,238.812 346.4,238.673 345.416,237.98 344.349,238.535 344.072,238.535 
	343.115,237.703 342.033,238.396 341.757,238.257 340.828,237.564 339.733,238.119 339.594,238.119 338.582,237.149 
	337.418,237.703 337.154,237.703 336.253,236.871 335.13,237.426 334.853,237.287 333.979,236.455 332.843,237.01 332.58,236.871 
	331.706,236.039 330.569,236.455 330.389,236.455 329.502,235.485 328.282,235.901 328.033,235.901 327.201,234.931 
	326.036,235.346 325.773,235.346 324.955,234.376 323.777,234.792 323.513,234.653 322.737,233.683 321.545,234.099 
	321.295,234.099 320.519,232.99 319.326,233.405 319.063,233.267 318.329,232.297 317.122,232.712 316.928,232.574 316.18,231.465 
	314.932,231.881 314.696,231.742 313.99,230.771 312.77,231.049 312.52,230.91 311.841,229.801 310.621,230.079 310.385,229.94 
	309.719,228.97 308.5,229.108 308.251,229.108 307.613,227.999 306.379,228.138 306.157,227.999 305.533,226.89 304.299,227.167 
	304.064,227.029 303.468,225.92 302.234,226.058 302.012,225.92 301.444,224.811 300.197,224.949 299.96,224.811 299.42,223.702 
	297.964,223.702 297.437,222.454 296.204,222.593 295.968,222.454 295.483,221.206 294.235,221.345 294,221.206 293.542,219.959 
	292.295,219.959 292.087,219.82 291.629,218.711 290.395,218.711 290.16,218.573 289.757,217.325 288.51,217.325 288.302,217.186 
	287.9,215.939 286.652,215.939 286.458,215.8 286.084,214.552 284.85,214.414 284.628,214.275 284.296,213.166 283.048,213.027 
	282.854,212.889 282.535,211.641 281.301,211.503 281.107,211.364 280.802,210.116 279.583,209.977 279.375,209.7 279.111,208.453 
	277.891,208.314 277.683,208.176 277.447,206.928 276.241,206.651 276.033,206.512 275.825,205.264 274.606,204.987 
	274.426,204.848 274.231,203.601 273.025,203.324 272.845,203.185 272.678,201.937 271.486,201.66 271.293,201.383 271.154,200.135 
	269.975,199.858 269.781,199.58 269.684,198.472 268.492,198.056 268.326,197.917 268.229,196.669 267.065,196.254 266.884,195.976 
	266.828,194.729 265.651,194.451 265.498,194.174 265.456,192.927 264.305,192.511 264.153,192.233 264.14,190.986 262.975,190.57 
	262.85,190.431 262.85,189.183 261.714,188.629 261.575,188.491 261.603,187.243 260.479,186.688 260.341,186.411 260.41,185.302 
	259.287,184.748 259.149,184.47 259.246,183.223 258.137,182.668 258.012,182.53 258.151,181.282 257.028,180.727 257,180.589 
	256.917,180.45 257.056,179.202 255.96,178.648 255.849,178.371 256.016,177.123 254.963,176.568 254.837,176.291 255.031,175.044 
	253.978,174.489 253.867,174.212 254.089,172.964 253.05,172.271 252.994,172.133 253.326,170.885 252.162,170.192 252.106,170.053 
	252.467,168.667 251.317,167.974 251.219,167.697 251.524,166.588 250.526,165.756 250.443,165.617 250.776,164.37 249.778,163.538 
	249.708,163.399 250.055,162.152 249.085,161.32 249.001,161.181 249.389,159.933 248.433,159.102 248.349,158.963 248.766,157.715 
	249.515,157.577 250.443,158.27 250.512,158.547 250.125,159.656 251.067,160.488 251.164,160.765 250.79,161.874 251.76,162.706 
	251.843,162.983 251.497,164.092 252.481,164.785 252.578,165.063 252.259,166.31 253.257,167.004 253.354,167.281 252.98,168.528 
	254.075,169.083 254.172,169.36 253.825,170.608 254.935,171.162 255.031,171.439 254.809,172.687 255.849,173.241 255.947,173.519 
	255.738,174.767 256.806,175.321 256.917,175.598 256.737,176.846 257.79,177.401 257.915,177.678 257.749,178.786 258.816,179.341 
	258.927,179.618 258.789,180.866 259.897,181.42 260.036,181.698 259.925,182.807 261.02,183.361 261.159,183.638 261.076,184.886 
	262.185,185.302 262.323,185.579 262.268,186.827 263.391,187.243 263.543,187.52 263.502,188.768 264.624,189.183 264.791,189.322 
	264.791,190.57 265.914,190.986 266.081,191.263 266.094,192.511 267.245,192.927 267.411,193.065 267.453,194.313 268.603,194.729 
	268.769,194.867 268.852,196.115 270.003,196.531 270.183,196.669 270.281,197.917 271.459,198.195 271.625,198.472 271.75,199.719 
	272.942,199.996 273.108,200.135 273.261,201.383 274.439,201.66 274.633,201.937 274.8,203.046 275.992,203.324 276.186,203.601 
	276.38,204.71 277.586,204.987 277.766,205.126 278.002,206.373 279.208,206.512 279.388,206.789 279.638,207.898 280.858,208.176 
	281.038,208.314 281.329,209.562 282.521,209.7 282.743,209.839 283.034,211.087 284.254,211.225 284.462,211.364 284.781,212.473 
	286.015,212.611 286.209,212.75 286.569,213.998 287.776,213.998 288.011,214.275 288.371,215.384 289.591,215.384 289.813,215.523 
	290.201,216.77 291.435,216.77 291.643,216.909 292.073,218.018 293.292,218.018 293.528,218.295 293.972,219.404 295.192,219.404 
	295.413,219.543 295.885,220.652 297.118,220.513 297.327,220.652 297.839,221.9 299.046,221.761 299.295,221.9 299.808,223.008 
	301.042,222.87 301.263,223.008 301.804,224.118 303.011,223.979 303.274,224.118 303.828,225.226 305.035,225.088 305.283,225.226 
	305.866,226.336 307.072,226.058 307.335,226.197 307.945,227.306 309.137,227.029 309.401,227.167 310.025,228.276 
	311.217,227.999 311.495,228.138 312.146,229.108 313.338,228.831 313.588,228.97 314.266,229.94 315.445,229.663 315.723,229.801 
	316.416,230.91 317.593,230.494 317.843,230.633 318.578,231.603 319.756,231.326 320.006,231.326 320.754,232.297 321.919,232.019 
	322.183,232.019 322.959,232.99 324.123,232.574 324.372,232.712 325.163,233.683 326.313,233.267 326.591,233.267 327.381,234.237 
	328.531,233.821 328.809,233.821 329.627,234.792 330.763,234.376 330.624,235.346 331.027,234.376 331.872,235.208 
	332.995,234.792 333.258,234.792 334.118,235.762 335.227,235.208 335.505,235.208 336.378,236.039 337.473,235.623 337.75,235.623 
	338.651,236.594 339.733,235.901 339.996,235.901 340.91,236.733 341.992,236.178 342.256,236.178 343.198,237.01 344.252,236.455 
	344.529,236.455 345.472,237.149 346.525,236.594 346.803,236.594 347.759,237.287 348.799,236.733 349.076,236.733 
	350.046,237.426 351.086,236.733 351.35,236.733 352.347,237.426 353.359,236.871 353.623,236.871 354.635,237.564 355.633,236.733 
	355.91,236.733 356.922,237.426 357.893,236.733 358.184,236.733 359.224,237.426 360.18,236.594 360.457,236.594 361.539,237.287 
	362.453,236.455 362.675,237.564 362.731,236.455 363.784,237.01 364.727,236.317 364.99,236.178 366.071,236.871 366.987,236.039 
	367.25,235.901 368.331,236.455 369.232,235.762 369.495,235.623 370.591,236.178 371.464,235.346 371.755,235.346 372.85,235.762 
	373.71,234.931 373.987,234.931 375.096,235.346 375.956,234.515 376.205,234.515 377.328,234.931 378.174,234.099 378.423,233.96 
	379.56,234.376 380.364,233.544 380.628,233.405 381.778,233.821 382.568,232.99 382.832,232.851 383.982,233.267 384.745,232.297 
	385.008,232.158 386.172,232.574 386.907,231.603 387.184,231.603 388.376,231.881 389.084,230.91 389.333,230.771 390.511,231.187 
	391.219,230.079 391.468,230.079 392.66,230.356 393.34,229.386 393.589,229.247 394.781,229.524 395.46,228.415 395.696,228.415 
	396.902,228.553 397.526,227.583 397.789,227.445 398.982,227.722 399.62,226.613 399.841,226.474 401.061,226.752 401.657,225.642 
	401.893,225.504 403.112,225.642 403.681,224.534 405.136,224.534 405.677,223.563 405.926,223.424 407.133,223.563 
	407.674,222.315 409.115,222.315 409.614,221.206 409.85,221.068 411.07,221.206 411.555,219.959 411.776,219.82 413.107,219.959 
	413.454,218.85 413.62,218.711 414.924,218.711 415.339,217.463 415.561,217.325 416.781,217.325 417.197,216.216 417.405,216.077 
	418.625,215.939 419.013,214.829 419.235,214.691 420.441,214.552 420.801,213.443 421.009,213.305 422.229,213.166 
	422.576,211.918 422.77,211.78 423.99,211.641 424.295,210.532 424.516,210.255 425.723,210.116 426,209.007 426.208,208.869 
	427.414,208.592 427.663,207.482 427.871,207.205 429.41,207.344 429.369,208.869 429.174,209.007 427.941,209.146 427.663,210.393 
	427.469,210.532 426.236,210.809 425.93,211.918 425.736,212.196 424.489,212.196 424.17,213.443 423.949,213.582 422.728,213.721 
	422.382,214.968 422.16,215.107 420.926,215.245 420.551,216.355 420.344,216.493 419.096,216.632 418.694,217.741 418.473,217.879 
	417.225,218.018 416.809,219.127 416.587,219.266 415.298,219.266 414.896,220.374 414.812,220.513 413.385,220.374 
	412.955,221.761 412.719,221.9 411.485,221.761 410.986,223.008 410.751,223.147 409.517,223.008 408.99,224.118 408.741,224.256 
	407.521,224.118 406.966,225.226 406.731,225.365 405.497,225.226 404.929,226.336 404.693,226.474 403.459,226.336 
	402.863,227.445 402.627,227.583 401.394,227.445 400.784,228.415 400.534,228.553 399.314,228.415 398.677,229.386 
	398.441,229.524 397.207,229.247 396.541,230.356 396.278,230.494 395.086,230.217 394.393,231.187 394.143,231.326 
	392.938,231.049 392.244,232.019 391.981,232.158 390.775,231.881 390.054,232.851 389.86,232.99 388.598,232.574 387.85,233.544 
	387.601,233.683 386.408,233.267 385.646,234.237 385.396,234.376 384.204,233.96 383.414,234.931 383.15,235.069 381.986,234.653 
	381.168,235.485 380.919,235.623 379.754,235.208 378.922,236.039 378.645,236.178 377.508,235.762 376.663,236.594 
	376.385,236.594 375.249,236.178 374.375,237.01 374.125,237.149 372.989,236.594 372.102,237.426 371.852,237.564 370.716,237.01 
	369.814,237.842 369.551,237.842 368.442,237.287 367.513,238.119 367.25,238.119 366.155,237.564 365.212,238.396 364.935,238.396 
	363.867,237.842 362.911,238.673 362.759,238.673 361.594,237.842 360.582,238.812 360.319,238.812 359.265,238.119 358.267,238.95 
	358.004,238.95 356.95,238.257 355.938,238.95 355.674,238.95 354.649,238.257 353.623,238.95 "/>
<path fill="#C4A4A7" d="M247.2,112.107l-0.763-0.138l-0.526-1.109l0.041-0.277l0.873-0.97l-0.499-1.109l0.056-0.278l0.887-0.832
	l-0.471-1.109l0.056-0.277l0.915-0.832l-0.457-1.248l0.069-0.277l0.929-0.693l-0.43-1.248l0.069-0.277l0.957-0.832l-0.416-1.109
	l0.084-0.278l0.97-0.832l-0.388-1.109l0.069-0.278l0.998-0.832l-0.36-1.15l0.084-0.236l1.012-0.762l-0.333-1.206l0.084-0.236
	l1.025-0.734h0.028l-0.347-1.22l0.028-0.027l0.069-0.208l1.04-0.707l-0.278-1.22l0.097-0.236l1.053-0.693l-0.263-1.22l0.096-0.236
	l1.081-0.665l-0.235-1.234l0.111-0.236l1.081-0.638l-0.208-1.234l0.111-0.222l1.095-0.624l-0.166-1.248l0.111-0.222l1.109-0.596
	l-0.153-1.234l0.125-0.236l1.123-0.569l-0.125-1.234l0.125-0.236l1.123-0.541l-0.083-1.248l0.124-0.222l1.137-0.527l-0.069-1.248
	l0.139-0.208l1.15-0.513l-0.041-1.248l0.139-0.208l1.164-0.471l-0.014-1.248l0.139-0.208l1.164-0.458l0.014-1.234l0.166-0.236
	l1.164-0.402l0.042-1.248l0.152-0.222l1.178-0.388l0.069-1.234l0.18-0.236l1.179-0.36l0.083-1.234l0.18-0.222l1.192-0.333
	l0.111-1.234l0.167-0.208l1.206-0.319l0.153-1.234l0.166-0.194l1.207-0.305l0.18-1.234l0.166-0.18l1.22-0.277l0.194-1.22
	l0.195-0.208l1.22-0.236l0.207-1.22l0.195-0.194l1.234-0.208l0.235-1.22l0.111-0.097l1.359-0.18l0.236-1.317l0.18-0.166l1.247-0.18
	l0.291-1.192l0.208-0.194l1.234-0.139l0.319-1.192l0.097-0.083l1.386-0.097l0.305-1.289l0.194-0.166l1.247-0.097l0.375-1.178
	l0.111-0.083l1.386-0.028l0.36-1.289l0.208-0.153l1.289-0.014l0.374-1.192l0.069-0.041l1.442,0.028l0.402-1.303l0.236-0.166
	l1.219,0.028l0.471-1.137l0.236-0.153l1.234,0.042l0.499-1.123l0.222-0.138l1.234,0.055l0.527-1.123l0.222-0.125l1.248,0.083
	l0.541-1.109l0.222-0.125l1.234,0.111l0.582-1.095l0.236-0.125l1.219,0.139l0.596-1.081l0.235-0.111l1.22,0.166l0.624-1.067
	l0.236-0.111l1.234,0.194l0.638-1.067l0.235-0.111l1.22,0.236l0.666-1.054l0.25-0.111l1.219,0.25l0.679-1.04l0.25-0.097l1.206,0.291
	l0.707-1.026l0.25-0.097l1.206,0.305l0.735-1.012l0.25-0.083l1.192,0.333l0.748-0.998l0.264-0.083l1.192,0.36l0.762-0.97
	l0.277-0.083l1.165,0.388l0.79-0.957l0.096-0.042l1.331,0.527l0.818-1.095l0.25-0.069l1.178,0.43l0.818-0.929l0.263-0.055
	l1.165,0.458l0.845-0.901l0.263-0.069l1.137,0.485l0.873-0.887l0.263-0.042l1.137,0.499l0.887-0.873l0.264-0.042l1.123,0.527
	l0.915-0.845l0.25-0.042l1.123,0.555l0.915-0.832l0.264-0.028l1.108,0.569l0.943-0.818l0.263-0.014l1.095,0.596l0.943-0.79
	l0.278-0.028l1.081,0.624l0.956-0.776l0.292-0.014l1.053,0.652l0.984-0.762h0.139l1.151,0.762l1.039-0.845h0.25l1.054,0.693
	l1.012-0.707h0.152l1.109,0.804l1.039-0.79h0.291l1.012,0.734l1.04-0.665l0.278,0.014l0.984,0.749l1.068-0.638l0.25,0.014
	l0.984,0.776l1.081-0.624l0.25,0.028l0.97,0.79l1.081-0.596l0.277,0.027l0.943,0.804l1.096-0.569l0.277,0.042l0.915,0.832
	l1.095-0.569l0.125,0.028l0.998,1.012l1.192-0.665l0.264,0.041l0.887,0.901l1.151-0.527l0.263,0.055l0.873,0.901l1.137-0.499
	l0.277,0.069l0.845,0.915l1.151-0.457l0.277,0.055l0.817,0.943l1.179-0.444l0.25,0.069l0.817,0.957l1.179-0.416l0.25,0.083
	l0.79,0.97l1.192-0.388l0.263,0.069l0.762,0.998l1.192-0.36l0.264,0.083l0.734,0.998l1.206-0.333l0.264,0.097l0.721,1.012
	l1.206-0.305l0.25,0.097l0.707,1.025l0.014-0.014c0.929-1.747,2.69-3.008,4.81-3.161c0.139,0,0.278-0.014,0.43-0.014
	c3.077,0,5.684,2.398,5.919,5.517l-0.291,2.273l0.873,0.028l0.069,0.041l0.624,1.317l1.345-0.25l0.235,0.139l0.541,1.123
	l1.234-0.097l0.236,0.138l0.527,1.137l1.234-0.083l0.25,0.166l0.471,1.123l1.247-0.041l0.222,0.152l0.471,1.151l1.234-0.027
	l0.124,0.083l0.458,1.317l1.344-0.069l0.208,0.153l0.43,1.178l1.247,0.041l0.195,0.153l0.415,1.178l1.234,0.055l0.222,0.18
	l0.36,1.178l1.248,0.083l0.208,0.18l0.346,1.192l1.234,0.111l0.208,0.166l0.319,1.22l1.234,0.139l0.195,0.166l0.305,1.206
	l1.22,0.166l0.208,0.194l0.263,1.206l1.234,0.194l0.194,0.18l0.25,1.234l1.22,0.208l0.195,0.194l0.207,1.22l1.22,0.25l0.18,0.18
	l0.194,1.248l1.207,0.264l0.124,0.125l0.167,1.331l1.262,0.263l0.194,0.208l0.139,1.234l1.192,0.319l0.167,0.208l0.124,1.234
	l1.192,0.346l0.167,0.208l0.083,1.234l1.192,0.374l0.167,0.222l0.055,1.234l1.179,0.402l0.152,0.208l0.041,1.248l1.165,0.43
	l0.138,0.194l0.028,1.248l1.164,0.457l0.139,0.208l-0.014,1.248l1.151,0.485l0.139,0.208l-0.028,1.248l1.123,0.485l0.083,0.125
	l-0.111,1.372l1.22,0.485l0.152,0.25l-0.097,1.234l1.109,0.527l0.139,0.264l-0.124,1.22h0.069l0.97-0.222
	c0.097-0.014,0.18-0.014,0.264-0.014c1.829,0,3.396,1.414,3.535,3.285c0.083,1.276-0.527,2.44-1.498,3.133l0.832,0.61l0.111,0.263
	l-0.222,1.206l1.04,0.652l0.111,0.264l-0.25,1.22l1.025,0.665l0.112,0.278l-0.278,1.192l1.025,0.693l0.097,0.277l-0.305,1.193
	l0.998,0.707l0.056,0.138l-0.416,1.331l1.123,0.762l0.069,0.167l-0.346,1.248l0.97,0.832l0.083,0.138l-0.707,1.386l-1.358-0.693
	l-0.097-0.278l0.374-1.109l-0.97-0.693l-0.096-0.416l0.43-1.151l-1.054-0.665l-0.096-0.25l0.305-1.192l-0.998-0.721l-0.084-0.222
	l0.278-1.206h-0.014l-1.013-0.693l-0.083-0.222l0.263-1.206l-1.039-0.665l-0.097-0.236l0.222-1.206l-1.04-0.652l-0.111-0.222
	l0.056-0.998l-0.693,0.125c-0.084,0-0.18,0.014-0.264,0.014c-1.829,0-3.396-1.442-3.521-3.299c-0.097-1.289,0.526-2.454,1.525-3.147
	l0.014-0.028l-1.081-0.555l-0.124-0.222l0.097-1.22l-1.109-0.541l-0.124-0.208l0.138-1.303l-1.164-0.416l-0.139-0.236l0.041-1.22
	l-1.123-0.471l-0.152-0.236l0.041-1.22l-1.136-0.429l-0.152-0.25v-1.22l-1.137-0.402l-0.167-0.25l-0.027-1.206l-1.137-0.402
	l-0.166-0.222l-0.042-1.22l-1.164-0.374l-0.166-0.222l-0.069-1.22l-1.179-0.347l-0.167-0.208l-0.096-1.22l-1.179-0.333l-0.167-0.208
	l-0.138-1.22l-1.179-0.305l-0.167-0.194l-0.124-1.276l-1.22-0.208l0.721-0.818l-0.901,0.61l-0.194-1.22l-1.179-0.236l-0.208-0.208
	l-0.194-1.206l-1.206-0.236l-0.18-0.18l-0.223-1.206l-1.206-0.194l-0.208-0.194l-0.25-1.192l-1.206-0.194l-0.194-0.166l-0.292-1.192
	l-1.206-0.152l-0.208-0.18l-0.291-1.192l-1.22-0.111l-0.207-0.18l-0.333-1.178l-1.206-0.111l-0.208-0.166l-0.36-1.165l-1.234-0.083
	l-0.194-0.153l-0.388-1.178l-1.206-0.041l-0.236-0.167l-0.402-1.15l-1.22-0.028l-0.222-0.152l-0.388-1.248l-1.262,0.111
	l-0.222-0.153l-0.443-1.151l-1.234,0.028l-0.222-0.152l-0.471-1.123l-1.234,0.042l-0.222-0.125l-0.499-1.123l-1.219,0.083
	l-0.236-0.139l-0.513-1.109l-1.234,0.111l-0.222-0.138l-0.527-1.234l-1.234,0.278l-0.167-0.097l-0.554-0.693
	c-0.97,1.553-2.62,2.634-4.588,2.786c-0.139,0-0.278,0.014-0.43,0.014c-3.077,0-5.684-2.384-5.919-5.517l0.346-2.426l-1.136,0.25
	l-0.25-0.097l-0.707-0.998l-1.192,0.305l-0.25-0.083l-0.72-0.998l-1.193,0.333l-0.249-0.069l-0.749-0.984l-1.164,0.36l-0.264-0.069
	l-0.762-0.97l-1.164,0.388l-0.263-0.069l-0.79-0.943l-1.137,0.416l-0.277-0.069l-0.805-0.929l-1.151,0.443l-0.249-0.069
	l-0.833-0.915l-1.136,0.471l-0.263-0.055l-0.846-0.901l-1.136,0.499l-0.264-0.055l-0.859-0.887l-1.109,0.527l-0.291-0.055
	l-0.888-0.97l-1.081,0.652l-0.277-0.028l-0.901-0.832l-1.096,0.555l-0.25-0.042l-0.928-0.804l-1.068,0.568l-0.278-0.027l-0.928-0.79
	l-1.053,0.596l-0.291-0.014l-0.943-0.776l-1.039,0.624l-0.291-0.014l-0.957-0.748l-1.04,0.638h-0.263l-0.984-0.735l-1.026,0.665
	h-0.263l-1.025-0.804l-0.985,0.776h-0.277l-1.012-0.693l-0.985,0.721h-0.277l-1.054-0.762l-0.956,0.832l-0.263,0.014l-1.04-0.652
	l-0.984,0.748l-0.25,0.014l-1.053-0.624l-0.957,0.776l-0.263,0.014l-1.068-0.596l-0.929,0.79l-0.277,0.027l-1.068-0.582
	l-0.915,0.818l-0.278,0.028l-1.081-0.555l-0.901,0.832l-0.277,0.042l-1.096-0.541l-0.887,0.846l-0.264,0.055l-1.108-0.513
	l-0.86,0.86l-0.263,0.055l-1.137-0.485l-0.845,0.887l-0.25,0.055l-1.137-0.471l-0.817,0.901l-0.278,0.069l-1.137-0.444l-0.804,0.915
	l-0.278,0.069l-1.206-0.527l-0.707,1.053l-0.277,0.069l-1.151-0.388l-0.777,0.957l-0.25,0.069l-1.164-0.36l-0.762,0.97l-0.25,0.083
	l-1.178-0.333l-0.721,0.984l-0.25,0.083l-1.192-0.319l-0.694,0.998l-0.263,0.097l-1.178-0.277l-0.679,1.012l-0.264,0.097
	l-1.192-0.263l-0.651,1.026l-0.25,0.111l-1.206-0.236l-0.638,1.039l-0.25,0.111l-1.206-0.208l-0.61,1.053l-0.25,0.111l-1.192-0.18
	l-0.596,1.054l-0.25,0.138l-1.192-0.166l-0.582,1.081l-0.236,0.125l-1.206-0.139l-0.541,1.081l-0.25,0.139l-1.207-0.097
	l-0.526,1.095l-0.236,0.125l-1.206-0.069l-0.499,1.095l-0.25,0.152l-1.206-0.055l-0.486,1.123l-0.222,0.138l-1.22-0.027
	l-0.457,1.137l-0.208,0.138l-1.331-0.083l-0.319,1.22l-0.166,0.125H290.7l-0.374,1.206l-0.222,0.166l-1.303-0.014l-0.291,1.22
	l-0.222,0.166l-1.22,0.069l-0.347,1.165l-0.222,0.18l-1.289,0.041l-0.249,1.22l-0.208,0.18l-1.22,0.124l-0.305,1.179l-0.195,0.18
	l-1.22,0.152l-0.277,1.178l-0.208,0.194l-1.289,0.125l-0.166,1.234l-0.195,0.194l-1.206,0.208l-0.236,1.192l-0.194,0.194
	l-1.207,0.222l-0.207,1.22l-0.167,0.18l-1.206,0.25l-0.167,1.206l-0.208,0.208l-1.178,0.277l-0.153,1.206l-0.18,0.208l-1.192,0.291
	l-0.124,1.22l-0.18,0.208l-1.179,0.333l-0.096,1.206l-0.167,0.208l-1.179,0.36l-0.083,1.234l-0.152,0.194l-1.164,0.374l-0.056,1.234
	l-0.166,0.208l-1.151,0.402l-0.042,1.234l-0.138,0.208l-1.151,0.43v1.206l-0.152,0.25l-1.137,0.443l0.028,1.206l-0.152,0.25
	l-1.123,0.457l0.055,1.22l-0.152,0.25l-1.123,0.485l0.083,1.206l-0.139,0.25l-1.109,0.513l0.112,1.22l-0.139,0.236l-1.096,0.541
	l0.139,1.22l-0.139,0.249l-1.095,0.569l0.18,1.192l-0.139,0.264l-1.081,0.582l0.195,1.192l-0.125,0.277l-1.067,0.596l0.222,1.192
	l-0.125,0.264l-1.04,0.638l0.236,1.192l-0.111,0.264l-1.04,0.652l0.263,1.192l-0.096,0.264l-1.026,0.679l0.291,1.179l-0.083,0.236
	l-1.053,0.707l0.346,1.192l-0.096,0.277l-0.998,0.721l0.347,1.206l-0.097,0.277l-0.97,0.693l0.36,1.109l-0.083,0.277l-0.957,0.832
	l0.388,1.109l-0.069,0.277l-0.956,0.832l0.415,1.109l-0.069,0.277l-0.928,0.832l0.429,1.109l-0.055,0.277l-0.915,0.832l0.471,1.109
	l-0.056,0.277l-0.887,0.832l0.485,1.109l-0.056,0.278l-0.873,0.832l0.499,1.109l-0.041,0.278L247.2,112.107"/>
<path d="M247.227,158.131h-0.236l-0.762-0.693l0.693-0.555c15.166-3.743,19.477-14.556,19.477-21.626
	c0-11.783-9.995-16.635-16.081-16.912c-0.929,12.338-7.388,28.141-12.476,34.934l-2.759,1.802l-2.925-1.109
	c-3.091-1.941-9.01-7.07-9.01-15.527c0-14.417,14.777-21.764,23.248-22.457c-0.236-3.743-3.702-6.793-5.476-8.456l-0.305-0.555
	l0.694-0.693l0.541,0.138c3.23,2.08,7,5.545,8.165,9.427c6.765,0.138,22.471,4.574,22.471,19.685
	C272.485,151.2,257.236,156.329,247.227,158.131 M246.396,118.484c-8.928,1.109-18.785,8.179-18.785,19.269
	c0,5.129,2.315,8.734,5.462,10.813l1.234,0.416l1.386-0.832C240.074,141.773,245.009,130.267,246.396,118.484z"/>
<path d="M134.204,200.412l0.291-0.139h0.555l1.067-0.138l0.707-0.832c0.402-0.832,0.86-1.941,1.372-3.327l0.458-1.248l0.554-1.525
	l1.109-3.05c0.166-0.555,0.582-1.663,1.234-3.327l0.61-1.802h0.749l0.887,2.079l0.693,1.941l1.789,4.714l0.943,2.634
	c0.499,1.525,0.832,2.357,0.984,2.773l0.43,0.693l0.443,0.139l0.541,0.139l0.749,0.277l0.041,0.139l-0.028,0.139h-6.03l-0.235-0.139
	l0.055-0.278h0.264l1.234-0.138l0.721-0.139l0.069-0.277l-0.305-1.109l-0.374-1.109c-0.097-0.416-0.513-1.525-1.248-3.466
	l-0.832-0.139h-3.258l-0.873,0.139l-0.208,0.416l-1.025,3.327l-0.666,1.941l0.111,0.416l0.652,0.138l1.595,0.139l0.138,0.139
	l-0.041,0.139h-5.961v-0.139L134.204,200.412 M139.805,193.342h4.463l-0.263-0.832c-0.513-1.386-0.79-2.079-0.846-2.218
	l-1.067-2.773l-0.125-0.139l-0.513,1.109l-1.081,2.911l-0.319,0.832l-0.207,0.693l-0.111,0.416H139.805z"/>
<path d="M163.025,186.272v-0.277l0.734-0.277l1.746-0.555h0.541v0.693c0,6.377-0.014,10.259-0.055,11.506l-0.028,1.109l0.097,1.525
	l0.873,0.277l0.845,0.139l0.097,0.139l-0.056,0.138l-0.194,0.139l-1.234-0.139h-1.539l-1.968,0.139l-0.278-0.139l-0.069-0.138
	l0.069-0.139l0.845-0.278l0.888-0.138l0.139-0.416c0.028-0.278,0.041-1.109,0.041-2.357v-2.772l0.028-2.773l-0.014-2.773
	l0.042-1.386l-0.125-0.555l-0.554-0.416L163.025,186.272"/>
<path d="M189.517,192.233l0.014-0.277l-0.014-1.386l0.014-2.634l-0.236-1.386l-1.372-0.554l-0.263-0.139v-0.139l0.027-0.277
	l2.745-0.555h0.596l0.056,1.802l-0.056,4.574l0.083,5.13l-0.027,2.634l0.111,0.97l1.039,0.278h0.444v0.138l-0.014,0.278
	l-0.748,0.138l-1.706,0.278l-0.596,0.138v-1.248l-0.624,0.278l-3.369,0.832l-1.885-0.693l-1.483-1.663l-0.513-2.218l0.346-1.941
	l0.888-1.525l0.998-0.693l1.067-0.555l1.4-0.277l2.592,0.554L189.517,192.233 M189.531,199.442c0.027-0.416,0.041-1.525,0.041-3.188
	c0-1.386-0.056-2.218-0.18-2.634l-0.97-0.97l-1.733-0.555l-2.273,1.109c-0.624,0.693-0.943,1.663-0.943,3.05l1.012,2.911l2.523,0.97
	l1.58-0.139L189.531,199.442z"/>
<path d="M215.717,194.59h-6.696l-0.111,0.554l0.014,0.139v0.139l-0.014,0.554l0.458,1.663l1.289,1.664l2.093,0.554l1.067-0.138
	l1.123-0.693l0.846-0.693l0.069,0.555l-0.014,0.138l-1.331,1.248l-1.649,0.693l-1.317,0.138l-1.636-0.416l-1.885-1.663l-0.679-2.772
	l0.194-1.248l0.693-1.802l0.832-0.97l1.234-0.832l1.774-0.277l1.774,0.416l1.4,1.386l0.471,1.525V194.59 M209.175,194.174h0.54
	c0.403,0,1.595-0.138,3.577-0.277h0.568l0.208-0.416l-0.235-0.832l-0.721-0.693l-1.124-0.278l-2.19,0.97L209.175,194.174z"/>
<path d="M230.357,200.828l-0.042-0.138l0.111-0.278l0.679-0.138l0.985-0.139l0.166-0.277l0.069-0.832
	c0-2.634-0.028-4.159-0.056-4.575l-0.207-0.832l-0.846-0.277l-0.637-0.139l0.055-0.277l1.65-0.97l0.998-1.386h0.402
	c0.041,0.416,0.069,1.248,0.069,2.634l-0.014,0.277l0.028,0.139l1.109-1.525l0.263-0.278l0.319-0.277l1.22-0.416l0.845,0.277
	l0.333,0.832l-0.235,0.693l-0.721,0.277l-0.749-0.139l-0.721-0.277l-0.458,0.139l-0.804,1.109l-0.36,1.109l0.056,1.802l0.027,2.357
	l0.097,0.555l0.236,0.138l1.497,0.278h0.25l0.693,0.138l0.111,0.139l-0.096,0.139h-4.353L230.357,200.828"/>
<path d="M262.684,199.165l0.069,0.277l-0.291,0.555l-0.805,0.832l-0.776,0.138l-1.262-0.416l-0.36-1.109l-1.317,0.832l-1.053,0.555
	l-1.414,0.138l-0.943-0.277l-0.347-0.97l0.998-1.941l2.689-1.802l1.47-0.693l0.028-0.832l-0.416-2.079l-1.192-0.416l-1.525,0.555
	l-0.652,1.525l-0.278,0.693l-0.804,0.277l-0.471-0.139l-0.111-0.138l0.652-1.386l1.636-1.663l1.733-0.555l1.498,0.277l0.873,0.555
	l0.458,0.97l0.041,1.941l-0.028,1.802v1.802l-0.014,0.555l0.222,0.555l0.526,0.277l0.763-0.416l0.138-0.139L262.684,199.165
	 M259.246,198.749l0.083-2.079l-0.041-0.832l-1.663,0.832l-1.4,1.386l-0.388,0.97l0.319,0.832l0.776,0.277l0.888-0.277
	L259.246,198.749z"/>
<path d="M277.42,200.412l0.513-0.277l0.734-0.139l0.278-0.554c0.055-0.278,0.083-1.248,0.083-2.911c0-1.663-0.055-2.772-0.152-3.188
	l-0.666-0.278l-0.541-0.138v-0.416l1.124-0.555l1.192-1.248h0.457l-0.014,1.386l0.014,0.832l2.26-1.525l1.525-0.277l1.622,0.416
	l1.136,1.386l1.886-1.525l1.718-0.416l2.163,0.832l0.86,2.634v0.97l0.014,1.109l-0.014,2.634l0.208,0.832l0.721,0.139l0.457,0.139
	l0.069,0.277l-0.069,0.278h-0.083l-1.179-0.139h-2.841l-0.499,0.139l-0.014-0.278l0.083-0.277l0.873-0.139l0.679-0.277l0.139-1.941
	c0-2.218-0.028-3.604-0.084-4.02l-0.748-1.386l-1.526-0.416l-1.372,0.416l-1.317,1.109l-0.014,0.278v1.663l-0.042,1.525
	c0,1.386,0.014,2.218,0.042,2.357l0.194,0.416l0.929,0.277l0.526,0.139l0.139,0.277l-0.111,0.139h-5.129l-0.028-0.278l0.014-0.138
	l0.956-0.278l0.749-0.138l0.111-0.139l0.083-0.97l0.056-1.386l-0.028-1.525l0.014-0.832l-0.582-2.079l-1.47-0.693l-1.677,0.416
	l-1.386,1.109l-0.014,0.555l0.056,4.02l0.139,1.386l0.609,0.277l0.97,0.278l0.111,0.277l-0.014,0.139h-4.907l-0.028-0.139
	L277.42,200.412"/>
<path d="M310.802,192.372l0.014-0.277l0.818-0.277l0.887-0.555l0.79-0.832l0.222-0.139h0.139l0.041,0.832l-0.014,0.555v4.02
	l-0.028,3.604l0.139,0.555l0.901,0.416l0.706,0.278l0.028,0.138l-0.055,0.139l-1.165-0.139h-3.175l-0.679,0.139l-0.18-0.139
	l-0.069-0.138l0.222-0.139l1.206-0.277l0.486-0.278l0.207-0.832c0.014-0.555,0.014-2.218,0.014-4.852l-0.069-1.109l-0.305-0.277
	L310.802,192.372"/>
<path d="M330.722,200.412l0.679-0.138l0.888-0.278l0.152-0.693l0.028-0.416v-0.555l-0.014-3.604l-0.195-0.97l-1.164-0.416v-0.416
	l1.303-0.693l1.123-1.386h0.402l0.041,0.832v0.832l0.014,0.138l0.319-0.277l1.442-0.832l1.317-0.416l0.818-0.139l1.663,0.555
	l0.887,1.248c0.139,0.416,0.208,1.386,0.208,2.773v1.663l-0.014,0.555l-0.014,0.832l0.069,1.109l0.305,0.277l1.303,0.416
	l-0.069,0.416h-0.222l-1.539-0.139l-1.525,0.139h-1.567l-0.069-0.278l0.083-0.277l0.887-0.139h0.471l0.319-0.277l0.139-0.416
	l-0.028-0.416c-0.014-0.278-0.027-1.248-0.041-2.634v-0.555l0.028-0.97l-0.61-2.079l-1.636-0.555l-1.539,0.278l-1.455,1.109
	l-0.014,0.97l0.028,2.495c0,1.386,0.028,2.218,0.056,2.495l0.083,0.278l0.374,0.138l0.652,0.139l0.499,0.139l0.305,0.277v0.278
	h-1.234l-2.537-0.139h-1.414l-0.014-0.139L330.722,200.412"/>
<path d="M364.824,195.976l0.346-1.663l1.012-1.663l1.442-0.97l2.606-0.555c1.456,0,2.675,0.555,3.66,1.525
	c0.984,0.97,1.469,2.218,1.469,3.604c0,1.248-0.513,2.357-1.538,3.327c-1.026,0.97-2.329,1.525-3.896,1.525l-2.745-0.832
	l-1.663-1.663L364.824,195.976 M370.023,200.551l1.718-0.416l1.317-1.525l0.498-2.495l-0.388-2.079l-1.165-1.802l-1.871-0.693
	l-1.581,0.416l-1.359,1.386c-0.374,0.693-0.554,1.663-0.554,2.911c0,1.386,0.319,2.496,0.97,3.327L370.023,200.551z"/>
<path d="M388.321,200.412l0.679-0.138l0.888-0.278l0.152-0.693l0.028-0.416v-0.555l-0.014-3.604l-0.195-0.97l-1.164-0.416v-0.416
	l1.303-0.693l1.136-1.386h0.388l0.041,0.832v0.832l0.014,0.138l0.319-0.277l1.442-0.832l1.317-0.416l0.818-0.139l1.663,0.555
	l0.887,1.248c0.139,0.416,0.208,1.386,0.208,2.773v1.663l-0.014,0.555l-0.014,0.832l0.069,1.109l0.305,0.277l1.317,0.416
	l-0.069,0.416h-0.235l-1.539-0.139l-1.525,0.139h-1.567l-0.069-0.278l0.083-0.277l0.887-0.139h0.471l0.319-0.277l0.139-0.416
	l-0.014-0.416c-0.028-0.278-0.041-1.248-0.056-2.634v-0.555l0.028-0.97l-0.61-2.079l-1.636-0.555l-1.539,0.278l-1.455,1.109
	l-0.014,0.97l0.028,2.495c0,1.386,0.028,2.218,0.069,2.495l0.069,0.278l0.388,0.138l0.637,0.139l0.499,0.139l0.305,0.277v0.278
	h-1.234l-2.537-0.139h-1.414l-0.014-0.139L388.321,200.412"/>
<polyline points="428.357,189.183 428.716,189.183 428.772,190.293 428.744,191.679 431.947,191.679 431.975,192.095 
	431.905,192.511 431.697,192.511 429.882,192.649 428.772,192.649 428.675,193.343 428.716,195.145 428.689,198.195 
	429.008,199.858 429.923,200.135 431.074,199.997 431.767,199.58 431.864,199.58 432.03,199.719 432.099,199.858 432.086,199.997 
	430.935,200.69 429.202,200.967 427.941,200.69 427.303,199.858 427.164,197.779 427.206,195.145 427.192,193.758 427.192,193.343 
	427.178,192.649 425.723,192.649 425.667,192.511 425.75,192.233 426.277,191.956 426.998,191.54 427.677,190.709 428.079,189.877 
	428.357,189.183 "/>
<path d="M443.398,200.412l1.58-0.277l0.125-0.416v-2.218l-0.014-3.466l0.014-1.248v-0.97l0.028-1.109
	c0-1.802-0.014-2.911-0.056-3.189l-0.208-0.693l-1.538-0.555l0.014-0.277h0.319l0.291-0.139l2.037-0.693h0.569l0.028,2.079
	l-0.014,1.386l0.014,1.941l-0.041,2.357l0.014,0.554l1.081-1.109l1.303-0.832l1.455-0.277l2.371,1.248l0.527,1.941l-0.041,1.248
	l0.014,0.693l-0.041,1.109l-0.056,1.663l0.028,0.832l0.665,0.139l1.04,0.277l-0.014,0.416l-2.495-0.139l-1.151,0.139h-0.929
	l-0.055-0.139v-0.139l0.609-0.277l0.707-0.139l0.152-0.277c0.041-0.278,0.069-1.248,0.111-3.05l0.028-0.832l-0.222-2.218
	l-0.734-1.109l-1.359-0.277l-1.192,0.277l-0.929,0.693l-0.748,0.832l-0.139,0.693v0.832l-0.014,0.832l0.028,1.525l-0.014,0.693
	l0.027,0.832l0.042,0.278l1.649,0.416l0.388,0.138l0.028,0.139l-0.056,0.139h-3.451l-1.511,0.139h-0.347l-0.014-0.139
	L443.398,200.412"/>
<path d="M473.036,194.59h-6.696l-0.096,0.554l0.014,0.139v0.139l-0.014,0.554l0.443,1.663l1.289,1.664l2.093,0.554l1.067-0.138
	l1.137-0.693l0.845-0.693l0.069,0.555l-0.014,0.138l-1.345,1.248l-1.636,0.693l-1.317,0.138l-1.636-0.416l-1.885-1.663l-0.693-2.772
	l0.194-1.248l0.707-1.802l0.832-0.97l1.234-0.832l1.761-0.277l1.788,0.416l1.4,1.386l0.458,1.525V194.59 M466.494,194.174h0.554
	c0.402,0,1.594-0.138,3.563-0.277h0.582l0.207-0.416l-0.235-0.832l-0.721-0.693l-1.137-0.278l-2.176,0.97L466.494,194.174z"/>
<path d="M504.727,186.272l0.096,0.832l-0.041,1.109l-0.069,0.832l-0.166,0.139l-0.112-0.139l-1.275-2.356l-2.191-0.693l-2.19,0.693
	l-0.86,1.802l0.61,1.386c0.388,0.416,1.414,0.97,3.049,1.802c1.262,0.693,2.149,1.248,2.69,1.663l1.22,1.386l0.415,1.802
	l-0.652,2.356l-1.761,1.664l-2.911,0.554l-3.036-0.416l-1.054-0.555l-0.18-0.416l0.014-0.277l0.18-2.356l0.083-0.555l0.18-0.139
	l0.167,0.139l0.083,0.277l1.344,2.495l2.703,1.248l1.705-0.416l1.22-1.109l0.443-1.525l-0.665-1.664
	c-0.443-0.554-1.344-1.109-2.689-1.802c-1.345-0.693-2.219-1.248-2.62-1.525l-1.483-1.663l-0.36-1.663l1.289-2.773
	c0.859-0.693,2.01-1.109,3.451-1.109l2.065,0.277L504.727,186.272"/>
<polyline points="519.172,200.689 519.144,200.412 519.324,200.273 519.919,200.273 520.557,199.996 520.682,198.472 
	520.71,193.758 520.682,192.926 520.71,192.233 520.738,191.402 520.682,189.461 520.696,187.659 520.516,186.827 519.227,186.411 
	519.227,186.272 519.24,186.134 520.432,185.718 521.791,185.025 522.165,185.025 522.151,185.302 522.151,186.411 522.138,186.827 
	522.179,187.797 522.165,189.183 522.179,191.54 522.138,194.451 522.138,195.283 522.151,195.699 522.277,195.838 523.094,195.422 
	525.396,193.758 525.867,193.065 525.714,192.649 524.924,192.372 524.647,192.372 524.301,192.233 524.273,192.233 
	524.328,191.956 527.558,191.817 529.208,191.956 529.208,192.095 529.152,192.233 528.598,192.372 527.502,192.649 
	525.631,194.035 524.633,194.867 524.217,195.283 524.37,195.422 524.549,195.699 525.063,196.254 526.935,198.333 527.378,198.749 
	528.445,199.996 529.415,200.273 529.943,200.412 529.997,200.551 529.984,200.689 525.313,200.689 525.063,200.828 
	524.813,200.689 524.772,200.551 524.91,200.412 526.255,200.135 526.449,200.135 526.103,199.442 524.411,197.501 523.289,196.392 
	522.595,196.254 522.151,196.254 522.096,198.056 522.332,199.858 522.942,200.135 523.565,200.412 523.691,200.689 
	519.172,200.689 "/>
<path d="M541.269,191.54h0.998l0.762-0.138l0.998,0.138h1.968l0.056,0.139l-0.013,0.139l-0.763,0.139l-1.039,0.277l-0.028,0.139
	l0.097,0.416l0.152,0.416c0.166,0.554,0.541,1.663,1.123,3.327l1.151,3.05l0.734-1.802l0.984-2.773l0.527-1.802l0.069-0.555
	l-0.152-0.277l-0.61-0.278l-0.915-0.277l-0.069-0.278l0.152-0.138h0.734l0.79,0.138l1.164-0.138l0.749,0.138l0.194-0.138
	l0.264,0.138l0.124,0.139l-0.111,0.139l-0.235,0.139l-1.04,0.277l-0.347,0.693l-0.152,0.416l-0.167,0.416l-0.291,0.832l-0.139,0.278
	h-0.013l-1.982,5.268l-1.774,4.99l-0.333,0.693l-0.527,0.97l-0.61,0.555l-0.596,0.277h-0.375l-0.776-0.138l-0.25-0.693l0.36-0.693
	l0.235-0.139h0.153l1.303,0.139l0.374-0.277l0.984-1.802l0.735-2.496l-0.319-1.109l-1.303-3.466
	c-0.18-0.416-0.707-1.941-1.608-4.297l-0.207-0.416l-0.805-0.277h-0.235l-0.208-0.278L541.269,191.54"/>
<polyline points="315.501,182.252 315.376,182.53 315.071,182.53 313.144,183.223 312.437,184.193 312.492,184.886 313.158,185.441 
	313.823,185.857 314.031,186.134 314.017,186.55 313.588,187.243 312.534,187.382 311.245,186.272 311.106,184.47 311.993,183.084 
	313.74,182.252 315.501,182.252 "/>
<path fill="#E84437" d="M464.511,120.009c-0.223,0-10.245,2.911-16.178,5.545c-2.565,0.97-3.951,1.663-5.989,1.663
	c-3.964,0-11.436-2.495-13.377-6.1c2.176,4.297,11.173,9.011,15.194,9.011c2.024,0,3.41-0.555,5.974-1.663
	c5.934-2.495,15.956-5.545,16.178-5.545l0.167,0.138C466.175,121.257,465.523,120.009,464.511,120.009"/>
<polyline fill="#E84437" points="498.558,81.512 498.751,81.526 498.558,81.512 "/>
<path fill="#E84437" d="M452.423,108.503c1.178,0,2.342,0,3.632-0.138c6.516-0.832,16.123-5.684,24.232-5.823
	c2.981-0.138,5.046-1.248,4.588-2.495c-0.845-2.218-1.594-3.604-2.301-4.297l0.485,1.248c0,1.248-1.594,2.357-4.588,2.495
	c-8.11,0.139-17.717,4.991-24.218,5.823c-1.289,0.277-2.454,0.277-3.632,0.277c-5.282,0-7.875-1.941-9.122-3.743
	C443.038,104.76,446.337,108.503,452.423,108.503"/>
<path fill="#E84437" d="M502.799,97.967c0-1.386-1.456-4.408-2.856-5.836l-0.069-0.055l1.124,2.814c0,2.107-1.387,3.632-3.092,3.632
	l-2.884-1.663c-1.581-3.632-6.571-7.431-10.966-8.345c4.478,1.192,10.023,7.098,11.604,10.702c0.541,1.386,2.55,2.218,3.396,2.218
	C500.761,101.433,502.799,99.908,502.799,97.967"/>
<path fill="#E84437" d="M617.791,135.951c0.568-2.634-1.276-5.822-2.607-7.347l-0.083-0.138c0.888,1.386,1.262,2.911,0.888,4.436
	c-0.541,2.218-2.648,3.604-4.866,3.049c-1.22-0.277-2.44-1.109-3.604-2.634c-4.519-5.823-9.302-10.675-15.789-14.417
	c6.612,4.02,12.199,11.783,16.718,17.605c1.164,1.525,2.384,2.357,3.604,2.634C614.269,139.694,617.305,138.169,617.791,135.951"/>
<polyline fill="#E84437" points="487.177,86.655 487.398,86.669 487.177,86.655 "/>
<path fill="#E84437" d="M665.186,117.236c-0.139,1.248-0.985,4.991-4.7,4.575c-1.289-0.139-2.745-0.97-4.214-2.634
	c-5.448-6.515-11.326-9.981-18.368-13.724c7.042,3.743,14.445,10.535,19.906,16.912c1.47,1.802,2.911,2.495,4.201,2.634
	c3.729,0.416,4.574-3.189,4.699-4.575c0.152-1.386-1.262-5.406-2.273-6.931l-0.028-0.139
	C665.061,114.741,665.311,115.989,665.186,117.236"/>
<path fill="#E84437" d="M567.649,96.997c0,1.525-1.608,2.911-4.478,3.05c-7.694,0.555-19.296,4.852-27.725,6.238l-3.202,0.277
	c-4.284,0-7.611-1.663-9.052-3.743c1.774,3.189,6.336,6.793,10.855,6.793l3.202-0.277c8.429-1.525,20.046-5.823,27.725-6.238
	c2.884-0.277,4.7-2.495,4.312-4.02c-0.513-1.941-1.483-3.189-2.606-4.131L567.649,96.997"/>
<path fill="#E84437" d="M562.423,115.711c-0.541,0-14.501,4.714-26.131,8.595c-4.367,1.386-6.724,2.495-9.289,2.495
	c-5.004,0-11.616-4.159-13.266-6.654c1.844,3.05,9.995,9.704,15.083,9.704c2.565,0,4.907-1.109,9.288-2.495
	c11.631-3.882,25.591-8.595,26.117-8.595l0.901,0.139l0.278-0.97C565.403,116.682,564.239,115.711,562.423,115.711"/>
<path fill="#E84437" d="M332.968,91.868c-6.28,0-32.827,8.179-44.929,12.199c-3.646,1.109-5.587,2.218-7.985,2.218
	c-1.774,0-8.9-2.079-12.449-5.822c2.204,5.129,11.908,8.179,14.029,8.179c2.398,0,4.339-1.109,7.985-2.218
	c12.102-4.02,38.649-12.269,44.928-12.269l1.511,0.222l0.097-0.416C336.156,92.561,334.673,91.868,332.968,91.868"/>
<path fill="#E84437" d="M501.275,115.157l0.443,1.386c0,1.525-1.608,2.911-3.854,2.911l-1.483-0.278
	c-5.018-1.109-9.718-1.663-14.736-1.663c-1.068,0-8.484,0.139-12.712,1.386l2.287,0.693l2.356,1.663
	c4.104-0.693,9.025-0.832,9.871-0.832c5.018,0,9.718,0.555,14.736,1.802l1.497,0.139c2.232,0,4.34-1.386,3.84-2.773
	C502.841,117.652,502.092,116.266,501.275,115.157"/>
<path fill="#E84437" d="M383.164,114.048l-0.707,3.05c-2.01,4.991-5.268,26.755-5.462,28.973c-0.125,1.525,0.901,1.663,0.901,1.663
	l1.108-0.278c0.79-5.822,3.494-23.012,5.254-27.448l0.707-2.911c0.208-2.634-1.913-7.486-4.214-10.674
	C382.374,108.78,383.344,111.691,383.164,114.048"/>
<path fill="#E84437" d="M513.904,92.547c0-1.469-1.415-4.422-3.078-5.975l-0.069-0.055l1.345,3.022c0,1.968-1.387,3.493-3.105,3.493
	l-2.773-1.414c-5.226-6.571-7.348-7.624-12.158-8.318c4.81,0.693,8.082,4.672,13.322,11.243l2.773,1.483
	C511.865,96.026,513.904,94.516,513.904,92.547"/>
<path fill="#E84437" d="M657.216,166.033c-3.161,2.08-3.758,5.268-7.029,5.268c-2.829,0-10.106-3.604-12.851-7.901
	c3.064,5.267,11.824,10.951,14.708,10.951c3.272,0,3.854-3.188,7.015-5.268C699.691,142.466,720,87.612,720,85.213
	C720,87.612,697.834,139.278,657.216,166.033"/>
<path fill="#E84437" d="M617.957,174.628c-0.915,2.357-3.05,3.466-5.393,2.634c-1.386-0.554-2.842-1.941-4.006-4.297
	c-4.395-9.149-12.809-19.685-23.372-28.973c-1.733-1.525-2.593-2.495-2.426-2.911c-0.167,0.416,0.582,2.218,4.228,5.961
	c10.563,9.288,17.453,19.824,21.847,28.973c1.151,2.496,2.869,4.02,4.256,4.575c2.343,0.832,5.766-0.555,6.667-3.05
	c0.888-2.357-1.262-7.486-3.16-10.813C618.205,169.499,618.843,172.271,617.957,174.628"/>
<path fill="#E84437" d="M621.409,103.651c0.928,1.525,1.192,2.911,1.039,4.02c-0.291,2.218-1.996,3.743-4.256,3.466
	c-1.234-0.277-2.647-0.832-4.075-2.218c-6.349-5.961-15.083-10.535-23.927-13.308c8.844,2.773,19.38,10.258,25.729,16.22
	c1.428,1.386,2.842,2.079,4.09,2.218c2.259,0.416,3.937-1.109,4.242-3.327c0.305-2.218-1.206-5.129-2.814-7.07H621.409"/>
<path fill="#E84437" d="M578.323,115.989c0,0.832-0.749,1.664-2.246,2.773c-1.705,0.97-2.98,1.525-4.588,4.297
	c-14.792,27.032-38.164,49.767-58.001,56.976c19.989-6.931,44.998-26.894,59.817-53.926c1.595-2.911,2.884-3.327,4.589-4.436
	c1.497-0.97,2.231-1.802,2.231-2.634c0-0.97-0.873-2.634-2.176-4.159L578.323,115.989"/>
<path fill="#E84437" d="M316.43,114.741c-0.624-2.218-2.038-3.882-4.132-4.99c1.858,1.109,2.911,2.634,2.911,5.545v0.416
	L316.43,114.741"/>
<line fill="#E84437" x1="352.958" y1="110.028" x2="352.958" y2="110.028"/>
<path fill="#E84437" d="M363.729,121.256c0,2.08-0.569,3.882-1.026,5.407c-9.468,28.696-38.094,50.044-43.349,50.044
	c5.254,0,35.683-18.298,45.151-46.994c0.458-1.525,1.025-3.466,1.025-5.545c0-2.495-1.317-5.407-3.258-7.763
	C363.161,117.791,363.729,119.455,363.729,121.256"/>
<path fill="#E84437" d="M383.511,154.666c-1.678,0.832-4.353,4.298-6.848,4.02c-1.372,0-2.731-1.248-3.868-2.772
	c1.317,2.634,3.466,5.683,5.67,5.822c2.495,0.278,5.184-3.188,6.862-4.02c24.509-14.279,45.289-52.817,45.553-56.005
	C430.616,104.899,408.034,140.387,383.511,154.666"/>
<path fill="#E84437" d="M474.395,123.336l0.138,1.525l-0.222,2.773c-6.293,36.736-56.172,55.728-59.262,55.728
	c3.091,0,54.771-15.942,61.065-52.678l0.222-2.911C476.335,125.416,475.614,124.168,474.395,123.336"/>
<path fill="#E84437" d="M352.001,97.967l-1.83-3.368l0.25,1.151c0,2.772-5.129,3.05-7.528,4.574
	c-7.652,5.129-21.626,15.665-28.141,18.992c-4.852,22.319-28.848,50.599-50.156,57.53c1.276-0.277,2.787-0.832,4.533-1.248
	c20.988-6.515,42.309-31.468,47.216-53.926c6.501-3.327,20.475-14.001,28.127-18.992
	C346.871,101.155,352.001,100.878,352.001,97.967"/>
<path d="M350.421,95.749c0,2.773-5.129,3.05-7.527,4.575c-7.652,5.129-21.627,15.665-28.142,18.992
	c-4.907,22.596-29.278,51.153-50.723,57.808c-2.163,0.693-3.313,0.97-3.771,0.97l-0.333-0.138c0-0.278,1.248-1.109,2.856-2.08
	c23.165-11.922,43.654-44.638,43.654-58.362c0-3.743-1.719-5.129-4.117-5.129c-1.706,0-2.399-0.416-2.399-1.109
	c0-1.109,2.523-3.327,5.6-3.327c1.248,0,2.51,0.278,4.104,0.693c3.535,0.97,5.587,2.634,5.587,6.654v0.416
	c6.057-4.436,20.946-18.714,20.946-21.751c0-1.4-1.483-2.093-3.188-2.093c-6.28,0-32.827,8.179-44.929,12.199
	c-3.646,1.109-5.587,2.218-7.985,2.218c-2.399,0-14.486-3.882-14.486-10.12l1.247-1.677l1.719,0.845
	c2.052,1.941,5.933,2.634,10.493,2.634c1.941,0,3.993-0.138,6.045-0.277c11.187-1.248,35.571-9.108,45.608-9.912
	c4.672-0.36,4.45-1.761,6.155-1.761C339.47,86.018,350.421,91.396,350.421,95.749 M319.354,176.708l-0.457-0.278
	c0-0.277,0.679-0.97,2.052-1.663c14.833-8.179,34.795-41.588,34.795-52.956c0-6.515-5.143-6.931-6.958-7.208l-1.719-1.248
	c0-0.555,1.137-3.327,4.797-3.327c4.671,0,11.867,4.852,11.867,11.229c0,2.079-0.569,3.882-1.026,5.406
	C353.235,155.359,324.608,176.708,319.354,176.708z M383.511,154.666c-1.678,0.832-4.353,4.297-6.848,4.02
	c-3.646-0.277-7.125-8.179-6.987-9.842c0.097-1.248,1.124-2.495,1.844-5.823c2.163-9.565,3.341-17.051,3.799-22.596
	c0.762-9.427-0.721-13.724-3.937-14.971c-1.997-0.832-2.62-1.663-2.565-2.218c0.069-0.832,2.55-1.802,5.156-1.525
	c5.116,0.416,9.58,7.624,9.191,12.338l-0.707,3.05c-2.01,4.991-5.267,26.755-5.462,28.973c-0.124,1.525,0.901,1.663,0.901,1.663
	c1.941,0.139,30.068-14.417,50.044-43.806c1.526-1.802,2.399-2.634,2.745-2.634l0.195,0.416
	C430.616,104.899,408.034,140.387,383.511,154.666z M501.718,116.543c0,1.525-1.608,2.911-3.854,2.911l-1.483-0.278
	c-5.018-1.109-9.718-1.663-14.736-1.663c-1.068,0-8.484,0.139-12.712,1.386l2.287,0.693c2.024,0.832,3.313,2.08,3.313,5.268
	l-0.222,2.773c-6.294,36.736-56.172,55.728-59.263,55.728l-0.333-0.139c0-0.277,1.068-0.97,2.675-1.802
	c18.147-8.872,47.147-34.38,49.24-54.896c0.291-2.772-0.415-6.515-2.121-6.515c-0.222,0-10.244,2.911-16.178,5.545
	c-2.565,0.97-3.951,1.663-5.989,1.663c-4.588,0-13.863-3.189-13.863-7.902l1.068-1.386l2.232,0.832
	c2.356,1.248,6.945,1.941,10.466,1.941l2.661-0.139c9.829-1.663,22.43-6.793,35.779-8.179c3.73-0.416,5.226-2.357,8.54-2.357
	C491.681,110.028,501.718,112.8,501.718,116.543z M483.059,96.997c0,1.248-1.594,2.356-4.588,2.495
	c-8.11,0.138-17.717,4.99-24.218,5.822c-1.289,0.278-2.454,0.278-3.632,0.278c-9.178,0-10.245-5.823-10.245-6.654l0.956-1.248
	l1.068,0.416c2.024,1.386,4.907,1.941,8.11,1.941c6.196,0,12.517-2.079,16.856-4.574c2.357-1.276,4.062-2.509,7.265-2.509
	C478.055,92.963,483.059,94.488,483.059,96.997z M500.997,94.89c0,2.107-1.386,3.632-3.092,3.632l-2.883-1.663
	c-1.706-3.895-7.348-8.054-11.964-8.539l-1.594-1.095c0-0.111,1.497-0.652,4.159-0.652C491.39,86.572,500.997,89.983,500.997,94.89z
	 M512.101,89.539c0,1.968-1.387,3.494-3.105,3.494l-2.773-1.414c-5.226-6.571-7.348-7.625-12.158-8.318l-1.719-0.984l4.7-0.873
	C502.924,81.443,512.101,84.839,512.101,89.539z M578.323,115.989c0,0.832-0.749,1.663-2.246,2.772
	c-1.705,0.97-2.981,1.525-4.588,4.297c-15.471,28.28-40.299,51.847-60.691,57.808c-1.387,0.416-2.232,0.555-2.773,0.555
	l-0.541-0.139c0-0.416,0.97-1.109,2.786-1.941c29.347-12.892,55.132-59.055,55.132-61.412c0-1.248-1.164-2.218-2.98-2.218
	c-0.541,0-14.501,4.713-26.131,8.595c-4.367,1.386-6.724,2.496-9.289,2.496c-5.753,0-13.655-5.407-13.655-7.763
	c0-1.664,0.86-2.218,1.816-2.218l1.817,0.97c0.749,1.248,4.159,1.663,8.109,1.663c2.454,0,5.226-0.139,7.791-0.416
	c4.381-0.416,21.64-6.238,26.88-6.654c2.773-0.277,3.937-2.773,6.183-2.773C568.938,109.612,578.323,112.939,578.323,115.989z
	 M567.649,96.997c0,1.525-1.608,2.911-4.478,3.049c-7.694,0.555-19.296,4.852-27.725,6.238l-3.202,0.277
	c-5.767,0-9.829-2.911-9.829-6.238l0.97-1.941l1.483,0.832c1.817,1.525,4.699,2.08,7.902,2.08c4.907,0,13.322-3.882,17.703-4.852
	c4.048-0.97,5.226-3.549,9.592-3.549C561.036,92.894,567.649,93.545,567.649,96.997z M660.487,121.811
	c-1.289-0.138-2.745-0.97-4.214-2.634c-5.448-6.515-11.326-9.981-18.368-13.724l-1.414-1.109c0.042-0.278,3.244-0.555,7.902-0.139
	c15.485,1.663,21.321,7.902,20.794,13.031C665.048,118.484,664.202,122.227,660.487,121.811z M657.215,166.033
	c-3.16,2.079-3.757,5.268-7.028,5.268c-3.508,0-13.932-5.545-13.932-11.229l1.289-3.743l1.761,1.525
	c1.4,1.663,3.272,2.634,5.726,2.634c14.403,0,48.7-34.934,72.502-73.112c1.414-1.677,2.107-2.273,2.343-2.273l0.124,0.111
	C719.999,87.612,697.833,139.278,657.215,166.033z M617.957,174.628c-0.915,2.357-3.05,3.466-5.393,2.634
	c-1.386-0.554-2.841-1.941-4.006-4.297c-4.394-9.149-12.808-19.685-23.372-28.973c-1.733-1.525-2.593-2.495-2.426-2.911l1.511,0.277
	C592.352,144.546,622.171,163.399,617.957,174.628z M622.448,107.671c-0.291,2.218-1.996,3.743-4.256,3.466
	c-1.234-0.277-2.647-0.832-4.076-2.218c-6.348-5.961-15.082-10.536-23.926-13.308c-1.997-0.583-2.966-1.067-2.925-1.414
	c0.096-0.693,7.07-0.319,12.836,0.485C619.093,97.274,622.947,103.79,622.448,107.671z M594.335,117.375
	c-4.644-1.109-6.169-1.109-6.253-0.832c-0.055,0.278,0.721,0.97,2.301,1.664c7.209,3.743,12.31,8.872,17.135,15.11
	c1.164,1.525,2.384,2.356,3.604,2.634c2.218,0.554,4.324-0.832,4.865-3.05C617.638,126.108,605.078,120.148,594.335,117.375z"/>
</svg>
