<?xml version="1.0" encoding="utf-8"?>
<!-- Generator: Adobe Illustrator 27.0.1, SVG Export Plug-In . SVG Version: 6.00 Build 0)  -->
<svg version="1.1" id="레이어_1" xmlns="http://www.w3.org/2000/svg" xmlns:xlink="http://www.w3.org/1999/xlink" x="0px"
	 y="0px" viewBox="0 0 720 146.943" enable-background="new 0 0 720 146.943" xml:space="preserve">
<path fill="#C3D83F" d="M141.722,41.852l-15.337,0.005c-0.903,0.011-1.757,0.362-2.389,0.995c-0.633,0.633-0.99,1.497-0.984,2.384
	v5.547c0,1.865,1.514,3.368,3.373,3.373l15.348-0.011c0.892,0,1.751-0.351,2.384-0.989c0.633-0.632,0.984-1.487,0.989-2.384
	l-0.005-5.547C145.095,43.366,143.587,41.852,141.722,41.852 M145.63,82.068c0-0.897-0.357-1.757-0.984-2.389
	c-0.638-0.627-1.498-0.984-2.39-0.978l-20.894,0.005c-6.049,0-9.169-2.562-9.796-8.06c-0.011-0.108-0.032-0.211-0.049-0.314
	c-0.059-0.265-0.086-0.535-0.092-0.8l-0.016-39.01l0.005-1.741c0-7.044,3.06-10.19,9.926-10.19l20.878-0.016
	c1.86-0.005,3.368-1.514,3.368-3.379l-0.005-6.563c0-1.725-1.297-3.168-3.011-3.352c-6.287-0.676-13.023-1.011-20.602-1.011
	c-20.549,0.016-28.549,6.887-28.539,24.522l0.021,39.751c0.011,17.618,8.006,24.484,28.506,24.484h0.065
	c7.563-0.005,14.304-0.346,20.608-1.033c1.709-0.195,3.006-1.638,3.001-3.357V82.068z"/>
<path fill="#B5B295" d="M270.247,19.686c0-1.865-1.514-3.373-3.374-3.373l-11.239,0.005c-0.892,0-1.752,0.357-2.384,0.995
	c-0.633,0.627-0.989,1.487-0.989,2.384l0.038,56.953c0.005,3.411-0.308,6.898-2.584,9.331c-2.368,2.535-5.779,2.892-9.109,2.892
	l-7.347,0.005c-2.125,0-3.855-1.735-3.855-3.855l-0.043-65.311c0-1.865-1.508-3.368-3.373-3.368l-11.369,0.005
	c-0.892,0-1.751,0.357-2.384,0.989c-0.633,0.633-0.984,1.487-0.984,2.384l0.038,65.316c0.005,2.119-1.725,3.849-3.849,3.854h-7.374
	c-9.688,0-11.677-4.876-11.682-12.201l-0.038-56.953c0-1.865-1.514-3.373-3.368-3.373c-0.006,0-11.25,0.005-11.25,0.005
	c-0.892,0.005-1.752,0.357-2.384,0.989c-0.633,0.638-0.984,1.492-0.984,2.389l0.033,56.953c0.016,17.759,9.006,27.149,26.008,27.149
	h0.038c9.39-0.011,16.835-1.438,22.111-4.249c0.557-0.303,1.184-0.454,1.806-0.454c0.632,0,1.259,0.151,1.811,0.449
	c5.271,2.795,12.71,4.222,22.127,4.222c8.536-0.011,15.094-2.346,19.473-6.952c4.33-4.563,6.525-11.364,6.514-20.229L270.247,19.686
	z"/>
<path fill="#C37BB1" d="M381.184,52.997c0-0.897-0.357-1.752-0.984-2.379c-0.633-0.633-1.492-0.995-2.39-0.989h-10.482
	c-1.865,0.005-3.373,1.519-3.373,3.379l0.016,21.251c0.005,1.957-1.465,3.606-3.401,3.838c-2.265,0.27-4.833,0.405-7.428,0.411
	c-5.979-0.005-15.98-3.011-15.997-23.214l-0.005-13.423c-0.005-5.433,0.54-13.218,5.347-17.981
	c4.325-4.292,10.542-4.871,16.056-4.876c5.509,0,11.726,0.243,19.019,0.73c0.081,0.005,0.151,0.011,0.222,0.011
	c0.854-0.005,1.687-0.324,2.308-0.908c0.681-0.643,1.07-1.535,1.07-2.471l-0.005-6.514c0-1.573-1.087-2.941-2.622-3.281
	c-7.271-1.67-15.234-2.514-23.657-2.514c-10.104,0-18.245,2.368-24.208,7.017c-7.904,6.168-11.904,16.532-11.899,30.809
	l0.011,13.288c0.022,33.972,24.03,37.648,34.35,37.648h0.032c8.633-0.005,16.905-0.778,25.29-2.352
	c1.6-0.297,2.757-1.692,2.757-3.319L381.184,52.997z"/>
<path fill="#96D0B6" d="M473.167,39.505c-0.006-17.662-8.282-24.862-28.566-24.862l-9.742,0.005
	c-20.283,0.016-28.549,7.233-28.539,24.9l0.038,59.234c0,1.86,1.514,3.373,3.374,3.373l11.239-0.011
	c0.897,0,1.757-0.351,2.384-0.984c0.638-0.633,0.995-1.497,0.995-2.389l-0.038-59.234c-0.005-2.519,0.287-5.703,2.611-7.963
	c2.276-2.195,5.438-2.481,7.941-2.481l9.769-0.011c7.19,0.005,10.542,3.319,10.542,10.439l0.016,14.937
	c0,1.011-0.411,2.006-1.13,2.725c-0.719,0.719-1.708,1.135-2.719,1.135h-10.79c-1.86,0.005-3.374,1.508-3.374,3.379l0.006,6.428
	c0,0.892,0.357,1.752,0.984,2.389c0.638,0.627,1.492,0.978,2.384,0.978h10.796c2.125,0,3.854,1.725,3.854,3.849l0.017,23.414
	c0,0.892,0.362,1.746,0.989,2.384c0.638,0.627,1.486,0.984,2.384,0.984l11.245-0.005c1.86,0,3.374-1.514,3.374-3.379L473.167,39.505
	z"/>
<path fill="#ED7980" d="M596.718,36.674c-0.022-28.409-11.802-32.95-49.622-32.95h-0.341c-17.602,0.011-30.95,0.957-38.886,5.541
	c-5.465,3.152-11.061,8.888-11.044,27.474l0.027,51.26c0.005,1.86,1.514,3.368,3.384,3.368l11.234-0.005
	c0.903,0,1.757-0.357,2.39-0.989c0.633-0.633,0.989-1.492,0.989-2.389l-0.038-51.255c-0.006-15.418,5.606-17.91,19.04-17.921
	c1.011,0,2.005,0.411,2.725,1.13c0.719,0.714,1.13,1.708,1.13,2.725l0.043,65.305c0,1.865,1.508,3.373,3.373,3.373l11.364-0.005
	c0.897,0,1.757-0.351,2.389-0.995c0.633-0.627,0.984-1.487,0.984-2.384l-0.038-65.311c0-0.984,0.427-1.979,1.167-2.719
	c0.719-0.719,1.725-1.135,2.773-1.135c13.104,0,18.954,2.584,18.965,17.894l0.038,51.266c0,1.86,1.508,3.363,3.368,3.363h11.25
	c0.892-0.005,1.751-0.362,2.379-0.995c0.638-0.633,0.984-1.487,0.984-2.389L596.718,36.674z"/>
<path fill="#F18F56" d="M712.934,1.049C712.302,0.378,711.415,0,710.496,0l-10.104,0.005c-0.93,0-1.811,0.384-2.444,1.054
	c-0.643,0.676-0.973,1.573-0.925,2.498l2.72,52.406c0.092,1.789,1.578,3.2,3.373,3.195h4.73c1.789,0,3.271-1.411,3.363-3.206
	l2.66-52.406C713.907,2.622,713.577,1.724,712.934,1.049"/>
<path fill="#82CDDB" d="M666.933,52.151l-14.045,0.011c-0.898,0-1.752,0.357-2.395,0.989c-0.622,0.632-0.979,1.492-0.979,2.384
	l0.006,5.547c0,1.86,1.508,3.373,3.373,3.368l14.04-0.005c0.897,0,1.757-0.351,2.389-0.989c0.633-0.632,0.99-1.492,0.984-2.384
	l-0.005-5.547C670.301,53.665,668.787,52.151,666.933,52.151 M669.847,89.977c-0.633-0.627-1.492-0.984-2.384-0.984l-20.9,0.016
	c-6.855,0-9.915-3.141-9.92-10.18l-0.022-39.756c-0.005-7.039,3.054-10.185,9.92-10.19l20.878-0.011c1.86,0,3.374-1.514,3.374-3.373
	l-0.006-6.568c0-1.719-1.297-3.173-3.011-3.352c-6.282-0.681-13.018-1.016-20.608-1.011c-20.549,0.011-28.544,6.887-28.539,24.516
	l0.033,39.751c0.005,17.624,8.001,24.489,28.506,24.489h0.059c7.568-0.005,14.304-0.346,20.608-1.038
	c1.708-0.189,3.006-1.633,3-3.357v-6.563C670.836,91.469,670.479,90.61,669.847,89.977"/>
<path fill="#F18F56" d="M719.995,77.597c0-0.822-0.676-1.497-1.503-1.497l-5.017,0.005c-0.833,0-1.508-0.676-1.508-1.503V69.58
	c0-0.827-0.67-1.497-1.503-1.497l-9.931,0.005c-0.822,0-1.497,0.676-1.503,1.503l0.006,5.022c0.005,0.822-0.676,1.497-1.498,1.503
	h-5.022c-0.822,0-1.498,0.676-1.498,1.497l0.006,9.936c0,0.827,0.681,1.508,1.503,1.508l5.022-0.005c0.822,0,1.492,0.67,1.498,1.497
	l0.005,5.022c0,0.827,0.676,1.503,1.503,1.497l9.931-0.005c0.822,0,1.497-0.67,1.497-1.503l-0.005-5.022
	c0-0.822,0.676-1.503,1.508-1.503h5.017c0.827,0,1.497-0.676,1.497-1.503L719.995,77.597z"/>
<path fill="#FABF13" d="M68.898,47.818c-0.016-22.165-8.828-29.587-22.614-31.939c-0.011,0-0.011,0-0.021-0.005
	c-0.757-0.124-1.541-0.238-2.335-0.341c-6.714-0.914-8.958-0.573-11.628-0.47c-2.963,0.119-3.174,4.044-3.174,4.941
	c0,0.903,0,3.871,0,5.395c0,1.524,1.438,3.59,4.584,3.595c1.492-0.005,3.438,0.189,5.395,0.622c0.108,0.022,0.222,0.049,0.335,0.076
	c2.033,0.487,4.06,1.254,5.595,2.384c3.162,2.362,5.747,6.866,5.747,15.753l0.038,51.26c0,1.86,1.509,3.368,3.374,3.368
	l11.369-0.005c0.892,0,1.751-0.357,2.384-0.989c0.633-0.627,0.984-1.487,0.984-2.384L68.898,47.818z"/>
<path fill="#FABF13" d="M18.121,19.211c0-0.946-0.4-1.849-1.103-2.487c-0.616-0.568-1.433-0.881-2.276-0.881
	c-0.097-0.005-0.195,0.005-0.298,0.011c-4.211,0.378-7.774,0.773-9.996,1.13c-0.789,0.119-1.357,0.232-1.762,0.324
	c-1.406,0.324-2.443,1.508-2.59,2.941C0.049,20.736,0,21.433,0,22.417l0.054,76.701c0,1.865,1.508,3.373,3.368,3.373l11.374-0.011
	c0.897,0,1.757-0.351,2.384-0.984c0.633-0.632,0.984-1.492,0.989-2.389L18.121,19.211z"/>
<path fill="#965E0C" d="M411.921,130.753h-15.034c-0.763,0-1.379,0.622-1.379,1.373v1.152c0,0.751,0.616,1.373,1.379,1.373h15.034
	c0.757,0,1.378-0.622,1.378-1.373v-1.152C413.299,131.375,412.677,130.753,411.921,130.753"/>
<path fill="#965E0C" d="M276.975,125.718c0,0.757,0.616,1.379,1.379,1.379h13.472c0.757,0,1.379-0.622,1.379-1.379v-1.146
	c0-0.757-0.622-1.379-1.379-1.379h-13.472c-0.763,0-1.379,0.622-1.379,1.379V125.718z M296.275,138.05h-21.922
	c-0.757,0-1.379,0.622-1.379,1.379v1.146c0,0.757,0.622,1.379,1.379,1.379h21.922c0.757,0,1.378-0.622,1.378-1.379v-1.146
	C297.653,138.671,297.031,138.05,296.275,138.05"/>
<path fill="#965E0C" d="M324.15,140.134h-0.957c-0.752,0-1.379-0.616-1.379-1.379v-6.947c0-0.751-0.616-1.373-1.379-1.373h-8.736
	c-0.762,0-1.379,0.622-1.379,1.373v1.27c0,0.762,0.616,1.379,1.379,1.379h4.714c0.762,0,1.379,0.622,1.379,1.379v2.919
	c0,0.762-0.616,1.379-1.379,1.379h-8.071c-0.762,0-1.379,0.622-1.379,1.379v1.27c0,0.757,0.616,1.379,1.379,1.379h15.807
	c0.757,0,1.378-0.622,1.378-1.379v-1.27C325.528,140.756,324.906,140.134,324.15,140.134"/>
<path fill="#965E0C" d="M350.761,130.753h-15.04c-0.757,0-1.379,0.622-1.379,1.373v1.152c0,0.751,0.622,1.373,1.379,1.373h15.04
	c0.762,0,1.378-0.622,1.378-1.373v-1.152C352.139,131.375,351.523,130.753,350.761,130.753"/>
<path fill="#965E0C" d="M438.223,139.432H429.6c-2.222,0-1.66-1.514-1.286-2.546l4.406-12.18c0.308-0.838-0.033-1.73-0.746-1.984
	l-1.076-0.395c-0.708-0.254-1.541,0.222-1.843,1.049l-5.363,14.807c-0.27,0.687-0.578,1.141-1.276,1.249
	c-0.757,0-1.379,0.622-1.379,1.379v0.957c0,0.751,0.622,1.379,1.379,1.379h15.807c0.762,0,1.378-0.627,1.378-1.379v-0.957
	C439.601,140.054,438.985,139.432,438.223,139.432"/>
<path fill="#965E0C" d="M437.267,135.719h0.957c0.763,0,1.379-0.622,1.379-1.384v-0.951c0-0.762-0.616-1.379-1.379-1.379h-0.957
	c-0.757,0-1.379,0.616-1.379,1.379v0.951C435.888,135.097,436.51,135.719,437.267,135.719"/>
<path fill="#965E0C" d="M443.321,137.098c0-0.762-0.622-1.379-1.384-1.379h-0.957c-0.757,0-1.379,0.616-1.379,1.379v0.957
	c0,0.757,0.622,1.379,1.379,1.379h0.957c0.762,0,1.384-0.622,1.384-1.379V137.098z"/>
<path fill="#965E0C" d="M445.647,139.432h-0.957c-0.752,0-1.368,0.622-1.368,1.379v0.957c0,0.751,0.616,1.379,1.368,1.379h0.957
	c0.767,0,1.384-0.627,1.384-1.379v-0.957C447.031,140.054,446.414,139.432,445.647,139.432"/>
<path fill="#965E0C" d="M385.232,123.402l-15.807,0.043c-0.757,0-1.379-0.616-1.379-1.379v-0.957c0-0.757-0.622-1.379-1.379-1.379
	h-0.957c-0.757,0-1.379,0.622-1.379,1.379v5.428c0,1.341-0.265,1.946-0.854,2.508l-2.13,2.049c-0.46,0.432-0.395,1.238,0.13,1.784
	l0.789,0.822c0.53,0.546,1.324,0.643,1.773,0.211l3.552-3.411c0.276-0.254,0.454-0.605,0.454-1.006v-0.957
	c0-0.757,0.622-1.379,1.379-1.379h4.665c0.757,0,1.384,0.622,1.384,1.379v8.385c0,0.757,0.622,1.373,1.379,1.373h0.957
	c0.757,0,1.373-0.616,1.373-1.373v-8.385c0-0.757,0.622-1.379,1.384-1.379h4.666c0.762,0,1.384-0.622,1.384-1.373v-1.011
	C386.616,124.024,385.995,123.402,385.232,123.402"/>
<path fill="#965E0C" d="M369.528,142.656h-1.103c-0.876,0-1.589,0.714-1.589,1.589v1.108c0,0.87,0.714,1.589,1.589,1.589h1.103
	c0.876,0,1.589-0.719,1.589-1.589v-1.108C371.117,143.37,370.404,142.656,369.528,142.656"/>
<path fill="#965E0C" d="M373.777,138.407h-1.108c-0.87,0-1.589,0.714-1.589,1.589v1.108c0,0.87,0.719,1.589,1.589,1.589h1.108
	c0.876,0,1.584-0.719,1.584-1.589v-1.108C375.361,139.121,374.653,138.407,373.777,138.407"/>
<path fill="#965E0C" d="M391.092,113.392l-1.427-0.287c-0.416-0.076-0.973-0.422-1.232-0.757l-0.897-1.141
	c-0.265-0.335-0.649-0.303-0.86,0.07l-0.708,1.265c-0.211,0.378-0.702,0.795-1.103,0.946l-1.362,0.497
	c-0.395,0.151-0.492,0.524-0.194,0.833l0.989,1.07c0.286,0.314,0.535,0.914,0.551,1.341l0.059,1.454
	c0.011,0.427,0.341,0.627,0.735,0.443l1.308-0.616c0.384-0.173,1.033-0.227,1.444-0.114l1.4,0.4
	c0.411,0.119,0.703-0.135,0.654-0.551l-0.173-1.454c-0.054-0.422,0.097-1.054,0.335-1.406l0.806-1.206
	C391.654,113.824,391.508,113.468,391.092,113.392"/>
<path fill="#965E0C" d="M381.186,117.853c-0.184-0.157-0.357-0.481-0.389-0.719l-0.13-0.897c-0.033-0.238-0.227-0.33-0.438-0.216
	l-0.779,0.476c-0.211,0.114-0.573,0.184-0.805,0.146l-0.897-0.157c-0.238-0.038-0.389,0.119-0.335,0.351l0.206,0.892
	c0.054,0.232,0.005,0.6-0.108,0.806l-0.427,0.811c-0.108,0.216-0.005,0.405,0.227,0.427l0.919,0.081
	c0.238,0.016,0.562,0.173,0.73,0.346l0.643,0.654c0.162,0.173,0.373,0.135,0.47-0.086l0.357-0.843
	c0.097-0.222,0.351-0.487,0.568-0.595l0.816-0.395c0.211-0.108,0.238-0.324,0.054-0.481L381.186,117.853z"/>
<polygon fill="#FABF13" points="229.046,140.829 225.986,140.829 225.986,138.261 223.461,138.261 223.461,135.742 221.353,135.742 
	221.353,140.829 218.331,140.829 218.331,135.742 216.222,135.742 216.222,138.261 213.66,138.261 213.66,140.829 210.676,140.829 
	210.676,137.85 213.238,137.85 213.238,135.282 215.768,135.282 215.768,130.611 213.238,130.611 213.238,128.043 210.676,128.043 
	210.676,125.065 213.66,125.065 213.66,127.589 216.222,127.589 216.222,130.152 218.331,130.152 218.331,125.065 221.353,125.065 
	221.353,130.152 223.461,130.152 223.461,127.589 225.986,127.589 225.986,125.065 229.046,125.065 229.046,128.043 226.44,128.043 
	226.44,130.611 223.877,130.611 223.877,135.282 226.44,135.282 226.44,137.85 229.046,137.85 "/>
<rect x="246.929" y="126.974" fill="#FABF13" width="3.022" height="11.953"/>
<rect x="242.458" y="131.44" fill="#FABF13" width="11.953" height="3.022"/>
<rect x="189.771" y="126.974" fill="#FABF13" width="3.022" height="11.953"/>
<rect x="185.306" y="131.44" fill="#FABF13" width="11.953" height="3.022"/>
<rect x="527.217" y="126.974" fill="#FABF13" width="3.022" height="11.953"/>
<rect x="522.751" y="131.44" fill="#FABF13" width="11.948" height="3.022"/>
<polygon fill="#FABF13" points="509.336,140.829 506.276,140.829 506.276,138.261 503.752,138.261 503.752,135.742 501.643,135.742 
	501.643,140.829 498.621,140.829 498.621,135.742 496.508,135.742 496.508,138.261 493.945,138.261 493.945,140.829 
	490.961,140.829 490.961,137.85 493.529,137.85 493.529,135.282 496.054,135.282 496.054,130.611 493.529,130.611 493.529,128.043 
	490.961,128.043 490.961,125.065 493.945,125.065 493.945,127.589 496.508,127.589 496.508,130.152 498.621,130.152 
	498.621,125.065 501.643,125.065 501.643,130.152 503.752,130.152 503.752,127.589 506.276,127.589 506.276,125.065 
	509.336,125.065 509.336,128.043 506.73,128.043 506.73,130.611 504.163,130.611 504.163,135.282 506.73,135.282 506.73,137.85 
	509.336,137.85 "/>
<rect x="470.059" y="126.974" fill="#FABF13" width="3.022" height="11.953"/>
<rect x="465.593" y="131.44" fill="#FABF13" width="11.953" height="3.022"/>
</svg>
