<?xml version="1.0" encoding="utf-8"?>
<!-- Generator: Adobe Illustrator 27.2.0, SVG Export Plug-In . SVG Version: 6.00 Build 0)  -->
<svg version="1.1" id="레이어_1" xmlns="http://www.w3.org/2000/svg" xmlns:xlink="http://www.w3.org/1999/xlink" x="0px"
	 y="0px" viewBox="0 0 720 349.034" enable-background="new 0 0 720 349.034" xml:space="preserve">
<path d="M667.902,272.185l-6.242-0.007v-38.211c0-10.412-4.352-19.884-11.352-26.698v-0.007l-26.224-27.939
	c-0.368-0.393-0.708-0.789-1.105-1.164l-0.035-0.053h-0.011c-5.183-5.022-11.801-8.616-19.21-10.114v-11.667
	c-0.021-5.646-1.729-10.787-4.766-15.069c3.076-5.281,4.766-11.281,4.766-17.419c0-9.931-4.173-19.151-11.741-25.958
	c0,0-25.775-27.722-27.374-29.156c-7.133-6.414-16.602-10.019-26.684-10.026H464.35c-11.734-0.01-22.02,6.663-27.739,16.584
	c-1.68-2.42-3.686-4.682-6.021-6.726c-7.252-6.368-16.847-9.851-27.034-9.858H297.403v9.423
	c-6.884-6.845-16.528-11.12-27.196-11.134c-19.495-0.014-35.63,14.231-37.587,32.435l-14.957-4.384l18.8-20.568l-27.189-3.475
	l22.079-34.521l-41.648,16.342l-2.02-23.552l-25.874,14.315L150.451,0L130.42,34.781L108.818,22.16l-8.743,23.833l-37.79-13.116
	L74.942,65.75l-28.634,5.674l12.877,19.695l-42.296,15.328l38.488,11.303l-18.811,20.564l27.217,3.475l-17.278,26.989
	c-3.538-1.255-7.263-1.974-11.064-1.974C15.897,166.786,0,183.581,0,204.232v113.377l27.381,29.458h277.182v-12.095
	c7.031,8.444,17.752,13.838,29.749,13.845c13.961,0.014,26.196-7.34,32.894-18.285l15.49,16.535h41.875
	c6.979-0.6,13.533-2.963,19.084-6.775l6.368,6.775h76.611v-11.334c7.049,8.104,17.527,13.242,29.226,13.249
	c14.532,0.014,27.21-7.918,33.722-19.586c6.502,11.674,19.182,19.621,33.725,19.638c8.827,0,16.938-2.928,23.419-7.827l5.635,5.86
	h42.917v-45.691L667.902,272.185"/>
<path fill="#FFCB04" d="M134.544,47.627c0,0,9.851-17.103,12.561-21.827c1.897,5.615,7.729,22.837,7.729,22.837
	s19.018-10.538,23.138-12.818c0.358,4.068,1.852,21.525,1.852,21.525s19.663-7.712,26.68-10.461
	c-3.938,6.162-14.557,22.759-14.557,22.759s18.839,2.413,23.776,3.03c-3.622,3.987-16.815,18.4-16.815,18.4
	s16.64,4.882,23.499,6.898c-7.459,2.707-25.365,9.195-25.365,9.195s8.946,13.701,11.39,17.44c-5.152,1.02-25.488,5.032-25.488,5.032
	s6.098,15.812,8.374,21.704c-6.354-2.206-24.225-8.395-24.225-8.395s-6.365,17.345-7.887,21.497
	c-3.5-2.044-19.502-11.422-19.502-11.422s-10.415,18.078-13.799,23.948c-1.897-5.611-7.722-22.826-7.722-22.826
	s-19.018,10.521-23.135,12.796c-0.358-4.061-1.848-21.49-1.848-21.49s-19.649,7.691-26.68,10.447
	c3.963-6.172,14.581-22.76,14.581-22.76s-18.842-2.413-23.777-3.044c3.623-3.97,16.794-18.383,16.794-18.383
	s-16.622-4.878-23.489-6.901c7.463-2.704,25.376-9.174,25.376-9.174S67.062,81.92,64.614,78.178
	c5.144-1.013,25.474-5.046,25.474-5.046s-6.091-15.788-8.367-21.697c6.361,2.199,24.197,8.385,24.197,8.385
	s6.365-17.345,7.89-21.494c3.503,2.041,19.526,11.404,19.526,11.404L134.544,47.627"/>
<path fill="#FFFFFF" d="M145.98,20.2l-9.753,16.952c0,0-2.571,4.45-3.998,6.94c-3.019-1.771-20.301-11.874-20.301-11.874
	s-6.87,18.744-8.213,22.384c-3.545-1.241-29.345-10.17-29.345-10.17s8.522,22.076,9.995,25.919
	c-4.457,0.887-26.677,5.278-26.677,5.278s9.826,15.016,11.958,18.292c-4.517,1.638-31.769,11.509-31.769,11.509
	s24.888,7.305,29.163,8.564c-3.24,3.538-17.555,19.204-17.555,19.204s20.845,2.676,25.07,3.209
	c-2.563,3.998-17.426,27.199-17.426,27.199s28.381-11.113,32.34-12.663c0.312,3.595,1.918,22.262,1.918,22.262
	s20.701-11.45,24.166-13.365c1.115,3.275,9.093,26.88,9.093,26.88s14.101-24.481,16.153-28.034
	c3.012,1.764,20.301,11.864,20.301,11.864s6.877-18.727,8.213-22.374c3.542,1.22,29.359,10.187,29.359,10.187
	s-8.511-22.079-9.998-25.926c4.468-0.891,26.673-5.278,26.673-5.278s-9.802-15.006-11.944-18.292
	c4.517-1.631,31.751-11.517,31.751-11.517S210.271,90.049,206,88.79c3.244-3.545,17.573-19.221,17.573-19.221
	s-20.855-2.662-25.078-3.198c2.553-3.994,17.419-27.206,17.419-27.206s-28.392,11.138-32.337,12.684
	c-0.319-3.605-1.936-22.286-1.936-22.286s-20.701,11.471-24.176,13.382c-1.112-3.303-9.093-26.901-9.093-26.901L145.98,20.2
	 M134.544,47.627c0,0,9.851-17.103,12.561-21.827c1.897,5.615,7.729,22.837,7.729,22.837s19.018-10.538,23.138-12.818
	c0.358,4.068,1.852,21.525,1.852,21.525s19.663-7.712,26.68-10.461c-3.938,6.162-14.557,22.759-14.557,22.759
	s18.839,2.413,23.776,3.03c-3.622,3.987-16.815,18.4-16.815,18.4s16.64,4.882,23.499,6.898c-7.459,2.707-25.365,9.195-25.365,9.195
	s8.946,13.701,11.39,17.44c-5.152,1.02-25.488,5.032-25.488,5.032s6.098,15.812,8.374,21.704
	c-6.354-2.206-24.225-8.395-24.225-8.395s-6.365,17.345-7.887,21.497c-3.5-2.044-19.502-11.422-19.502-11.422
	s-10.415,18.078-13.799,23.948c-1.897-5.611-7.722-22.826-7.722-22.826s-19.018,10.521-23.135,12.796
	c-0.358-4.061-1.848-21.49-1.848-21.49s-19.649,7.691-26.68,10.447c3.963-6.172,14.581-22.76,14.581-22.76
	s-18.842-2.413-23.777-3.044c3.623-3.97,16.794-18.383,16.794-18.383s-16.622-4.878-23.489-6.901
	c7.463-2.704,25.376-9.174,25.376-9.174S67.062,81.92,64.614,78.178c5.144-1.013,25.474-5.046,25.474-5.046
	s-6.091-15.788-8.367-21.697c6.361,2.199,24.197,8.385,24.197,8.385s6.365-17.345,7.89-21.494
	c3.503,2.041,19.526,11.404,19.526,11.404L134.544,47.627z"/>
<path d="M189.181,80.914c-0.161,0.512-6.165,19.4-6.165,19.4c-0.838,2.634-2.606,5.607-5.443,9.125l-0.41,0.526l-0.116-0.466
	c-0.715-3.128-0.656-5.909,0.175-8.536c0,0,6.13-19.288,6.162-19.396c-0.53,0.067-8.82,0.982-9.353,1.045
	c-0.032,0.098-6.144,19.396-6.144,19.396c-0.838,2.616-2.613,5.604-5.432,9.114l-0.421,0.508l-0.105-0.452
	c-0.712-3.121-0.666-5.906,0.165-8.518c0,0,5.951-18.786,6.109-19.277c-0.523,0.049-8.802,0.975-9.335,1.028
	c-0.158,0.505-6.105,19.284-6.105,19.284c-2.378,7.484,0.502,13.025,1.455,14.855c0,0,0.382,0.445,0.512,0.586
	c0.246-0.014,10.44-1.14,10.44-1.14s-0.032,0.007-0.042,0.007c0.056-0.007,0.133-0.018,0.2-0.021
	c0.158-0.21,0.515-0.684,0.515-0.684c0.046-0.049,2.153-2.171,2.153-2.171l0.33-0.351l0.154,0.284l0.863,1.81
	c0,0,0.27,0.438,0.4,0.607c0.123-0.01,10.559-1.175,10.717-1.192c0.161-0.203,0.522-0.666,0.522-0.666
	c2.265-2.223,9.009-8.858,11.38-16.328c0,0,5.997-18.909,6.155-19.41C197.997,79.942,189.707,80.865,189.181,80.914 M114.134,77.929
	c-0.161,0.502-9.532,29.942-9.532,29.942s-3.942-28.262-4.043-28.437c-0.274,0.035-9.451,1.049-9.991,1.112
	c-0.154,0.508-14.841,46.862-15.006,47.374c0.536-0.074,9.297-1.049,9.833-1.105c0.165-0.516,9.507-29.745,9.507-29.745
	l4.226,28.213c0,0,0.147-0.487,0,0c0.519-0.042,9.286-1.031,9.819-1.091c0.168-0.505,14.848-46.848,15.013-47.364
	C123.434,76.891,114.66,77.866,114.134,77.929z M145.819,85.862l-10.847,1.21c-4.864,0.533-9.959,4.531-11.355,8.883l-6.319,19.965
	c-1.389,4.359,1.455,7.463,6.337,6.923c0,0,18.383-2.048,18.944-2.111c0.154-0.47,2.627-8.297,2.791-8.781
	c-0.568,0.074-17.969,2.013-17.969,2.013l1.497-4.734l9.861-1.087c4.868-0.551,9.966-4.538,11.352-8.879l2.048-6.477
	C153.548,88.422,150.697,85.311,145.819,85.862z M140.562,99.472l-8.883,0.982l0.077-0.256l1.424-4.457l8.879-0.982L140.562,99.472z
	"/>
<path fill="#FFFFFF" d="M441.205,93.335v27.869c0.035,14.606,10.363,26.438,23.124,26.463l33.823,0.017v-21.921l-33.823-0.014
	V90.603l33.823,0.032V68.724l-33.823-0.021C451.56,68.692,441.205,79.728,441.205,93.335 M339.478,68.584v55.524h-7.533V68.584
	h-25.211v55.517c0,13.586,12.979,24.594,28.977,24.608c15.981,0.01,28.963-10.984,28.963-24.569V68.622h-0.014l0.014-0.039H339.478z
	 M470.624,117.298l27.529,0.018V99.072l-27.529-0.014V117.298z M298.549,122.94v-1.35c0-12.193-10.338-22.083-23.103-22.083
	l-10.598-0.014v-6.319l33.701,0.021c0-14.473-12.716-26.231-28.399-26.231c-15.658,0-28.364,11.685-28.399,26.126v1.571
	c0.147,12.067,10.426,21.834,23.096,21.844l10.598,0.004v6.411l-33.694-0.021c0,14.42,12.719,26.116,28.399,26.126
	C285.83,149.038,298.549,137.357,298.549,122.94z M532.05,92.223h6.902v55.489l28.002,0.014V127.19
	c-0.018-5.856-2.897-10.98-8.529-14.105c5.295-4.692,8.529-11.204,8.529-18.422c0-14.294-12.719-25.895-29.037-25.909l-28.974-0.025
	v78.953l23.107,0.021V92.223z M403.527,68.661l-29.479-0.035v78.964l23.517,0.021V92.223h6.646v28.188
	c16.272-0.298,29.016-11.752,29.016-25.846C433.227,80.258,420.132,68.675,403.527,68.661z M461.471,178.853l-29.433-0.095v129.045
	h23.096V204.555l11.632,0.007v26.624h-5.884v24.594h5.884v52.024h23.103v-52.003c0-5.944-3.097-11.271-7.996-14.88
	c4.885-3.602,7.982-8.9,7.996-14.834V204.58C489.869,190.387,477.157,178.871,461.471,178.853z M557.447,204.625
	c0-15.174-12.972-27.466-28.977-27.469c-16.002-0.014-28.977,12.26-28.977,27.424v77.768c0,15.164,12.982,27.473,28.977,27.48
	c16.005,0.014,28.988-12.271,28.988-27.462l-0.01,0.007V204.625z M534.343,282.365l-11.741-0.01v-77.754l11.741,0.007V282.365z
	 M634.37,282.162v25.642h24.134v-25.625L634.37,282.162z M595.928,177.198c-16.005-0.004-28.974,12.267-28.974,27.441v23.086
	c0,14.711,5.513,18.937,22.307,24.415c12.186,3.987,12.548,5.846,12.548,12.488v17.766l-11.748-0.014v-25.954l-23.107-0.021v25.968
	c0,15.185,12.968,27.48,28.974,27.501c16.016,0.014,28.977-12.271,28.977-27.473v-22.977c0-14.704-5.502-18.923-22.3-24.415
	c-12.186-3.98-12.544-4.317-12.544-12.519V204.65l11.748,0.01v26.073l23.096,0.018v-26.07
	C624.905,189.518,611.933,177.209,595.928,177.198z M306.934,176.991c-15.988-0.011-28.963,12.267-28.963,27.438v77.758
	c0,15.171,12.975,27.469,28.963,27.476c16.002,0.014,28.984-12.264,28.984-27.438v-77.754
	C335.918,189.297,322.936,177.002,306.934,176.991z M312.819,282.208l-11.744-0.01v-77.754l11.744,0.011V282.208z M206.81,178.685
	l-29.468-0.105v129.224h23.135V204.376h11.632V231h-5.891v24.643h5.891v52.161h23.103v-52.147c0-5.958-3.114-11.281-8.003-14.901
	c4.881-3.605,7.989-8.928,8.003-14.869V204.39C235.212,190.209,222.492,178.689,206.81,178.685z M394.143,178.811l-29.433-0.095
	v129.088h23.103V204.506l11.625,0.014v26.628l-5.86-0.014v24.601l5.86,0.014v26.522h-5.86v25.533
	c16.251,0.007,28.97-11.32,28.97-25.519v-26.536c0-5.941-3.1-11.271-7.989-14.873c4.871-3.598,7.967-8.897,7.982-14.837h0.007
	v-21.504C422.548,190.342,409.829,178.825,394.143,178.811z M138.872,176.869c-0.256,0-0.512,0.032-0.757,0.035L123.21,202.76
	l-5.727-16.935c-4.703,4.882-7.596,11.348-7.596,18.488v103.491h23.11v-27.329l11.748,0.011v27.318h23.1V204.348
	C167.845,189.188,154.873,176.883,138.872,176.869z M144.746,255.885l-11.748-0.007v-51.551l11.748,0.004V255.885z M74.349,176.826
	c-7.743-0.011-14.687,3.538-19.46,9.195c-4.773-5.657-11.72-9.216-19.449-9.216c-14.389-0.021-26.052,12.26-26.052,27.427v103.572
	h23.114v-103.54l10.829,0.007v103.533h23.114V204.278l10.84,0.004v103.523h23.1V204.303
	C100.384,189.129,88.727,176.833,74.349,176.826z M244.712,307.804h23.1V178.643l-23.1-0.014V307.804z"/>
<path d="M708.932,335.242h1.056c1.305,0,2.314-0.421,2.314-1.518c0-0.884-0.635-1.553-2.146-1.553c-0.551,0-0.926,0-1.224,0.039
	V335.242 M708.932,341.298h-2.23v-10.521c0.842-0.126,1.767-0.295,3.367-0.295c1.813,0,2.904,0.295,3.619,0.842
	c0.589,0.463,0.926,1.178,0.926,2.272c0,1.263-0.884,2.146-2.016,2.441v0.088c0.926,0.168,1.515,1.01,1.68,2.563
	c0.214,1.645,0.424,2.276,0.589,2.609h-2.315c-0.249-0.375-0.421-1.305-0.628-2.735c-0.168-1.133-0.845-1.596-1.981-1.596h-1.01
	V341.298z M710.531,328.214c-3.956,0-7.154,3.405-7.154,7.617c0,4.25,3.198,7.575,7.2,7.575c3.994,0.042,7.235-3.324,7.235-7.575
	c0-4.212-3.24-7.617-7.235-7.617H710.531z M710.616,326.32c5.222,0,9.384,4.25,9.384,9.465c0,5.306-4.163,9.514-9.423,9.514
	c-5.222,0-9.469-4.208-9.469-9.514c0-5.215,4.247-9.465,9.469-9.465H710.616z"/>
<g>
</g>
<g>
</g>
<g>
</g>
<g>
</g>
<g>
</g>
<g>
</g>
<g>
</g>
<g>
</g>
<g>
</g>
<g>
</g>
<g>
</g>
<g>
</g>
<g>
</g>
<g>
</g>
<g>
</g>
</svg>
