<?xml version="1.0" encoding="utf-8"?>
<!-- Generator: Adobe Illustrator 27.2.0, SVG Export Plug-In . SVG Version: 6.00 Build 0)  -->
<svg version="1.1" id="레이어_1" xmlns="http://www.w3.org/2000/svg" xmlns:xlink="http://www.w3.org/1999/xlink" x="0px"
	 y="0px" viewBox="0 0 720 150.008" enable-background="new 0 0 720 150.008" xml:space="preserve">
<rect x="321.66" y="111.811" fill="#9E9EA0" width="5.4" height="25.747"/>
<path fill="#9E9EA0" d="M461.191,137.965H439.29v-2.331h-5.857v14.373h28.562c1.793,0,3.06-0.406,3.873-1.249
	c0.822-0.873,1.174-1.847,1.174-3.248v-9.876h-5.851V137.965z M439.287,144.967v-2.056h21.907v1.291
	c0.003,0.266,0,0.472-0.137,0.589c-0.191,0.161-0.302,0.176-1.297,0.176H439.287z"/>
<polygon fill="#9E9EA0" points="458.909,128.074 458.909,124.853 453.052,124.853 453.052,128.074 447.42,128.074 447.42,124.853 
	441.572,124.853 441.566,128.074 430.958,128.074 430.958,133.327 469.518,133.327 469.518,128.074 "/>
<polygon fill="#9E9EA0" points="354.48,135.748 349.08,135.748 349.08,144.061 332.495,144.064 332.495,148.911 371.058,148.911 
	371.058,144.064 354.48,144.061 "/>
<polygon fill="#9E9EA0" points="308.587,126.55 313.972,126.544 313.975,137.555 319.414,137.555 319.414,111.812 313.972,111.812 
	313.972,121.703 308.587,121.709 "/>
<path fill="#9E9EA0" d="M299.517,138.885h-5.442v6.12c0,1.566,0.529,2.818,1.572,3.711c1.001,0.858,2.343,1.291,3.98,1.291h28.412
	v-4.844l-28.523-0.003V138.885z"/>
<rect x="279.111" y="111.791" fill="#9E9EA0" width="5.394" height="27.937"/>
<path fill="#9E9EA0" d="M256.488,138.885h-5.397v6.12c0,1.566,0.526,2.818,1.569,3.711c1.004,0.858,2.343,1.291,3.98,1.291h28.496
	v-4.829l-28.648-0.027V138.885z"/>
<path fill="#9E9EA0" d="M297.841,136.337l0.338,0.015c0.248,0.003,0.493,0.006,0.735,0.006l0.167-0.003
	c0.227,0,0.445-0.003,0.666-0.009c2.056-0.027,3.995-0.209,5.917-0.556c2.621-0.439,4.21-0.968,4.279-0.989l0.26-0.09l-1.324-4.327
	l-0.084-0.263l-0.505,0.14c-5.582,1.452-9.018,1.44-9.957,1.399v-5.11h7.772v-4.844h-7.772v-3.861l10.641-0.009v-4.85h-16.041
	v18.157c0,1.742,0.433,3.06,1.294,3.918C295.02,135.853,296.239,136.286,297.841,136.337"/>
<path fill="#9E9EA0" d="M340.882,133.713h27.172v-4.847l-27.16-0.009v-10.805l27.16,0.015v-4.841h-32.551v15.697
	c0,1.661,0.481,2.899,1.431,3.679C337.837,133.337,339.167,133.713,340.882,133.713"/>
<path fill="#9E9EA0" d="M255.398,134.816l0.535,0.069c0.087,0.012,0.17,0.027,0.269,0.03c1.025,0.06,2.056,0.09,3.069,0.09
	c2.391,0,4.82-0.167,7.22-0.496c0.604-0.081,1.237-0.179,1.868-0.281c4.563-0.696,7.497-1.65,7.892-1.781h0.356l-1.697-4.718
	l-0.257,0.075c-6.759,1.996-11.762,2.417-14.765,2.417c-2.155,0-3.508-0.215-4.007-0.308V113.45h-5.397v15.996
	c0,1.826,0.505,3.185,1.5,4.043C252.772,134.171,253.919,134.622,255.398,134.816"/>
<path fill="#9E9EA0" d="M406.797,114.283c-9.616,0-16.053,7.405-16.053,16.606c0,9.434,6.727,16.609,16.468,16.609
	c6.553,0,12.216-3.532,14.221-9.784h-6.55c-1.18,3.245-4.485,4.862-7.85,4.862c-5.842,0-9.852-4.228-10.035-9.891h23.431
	c0,0,2.125,0.03,2.137-2.456v-0.012l-0.003-0.003C421.977,121.556,416.452,114.283,406.797,114.283 M397.118,128.169
	c0.529-5.152,4.133-9.027,9.562-9.027c5.367,0,9.266,3.819,9.503,9.027H397.118z"/>
<path fill="#9E9EA0" d="M431.933,120.886l0.932,3.637c0,0,0.009,0.057,0.027,0.09l0.114,0.445l0.239-0.018
	c1.817-0.14,3.556-0.391,5.31-0.759l0.929-0.209c1.685-0.388,3.233-0.873,4.727-1.479c0.496-0.209,1.007-0.439,1.56-0.717
	l0.505-0.248c0.735-0.385,1.124-0.645,1.145-0.66l0.081-0.057c1.103-0.699,2.011-1.44,2.695-2.226l0.015,0.021l0.036-0.045
	c0.726,0.831,1.691,1.623,2.896,2.361c0.12,0.075,0.242,0.152,0.368,0.224c0.143,0.081,0.308,0.173,0.514,0.287
	c0.705,0.38,1.458,0.735,2.238,1.061c1.527,0.622,3.108,1.115,4.838,1.506l0.251,0.06c0.224,0.045,0.442,0.096,0.66,0.141
	c1.73,0.359,3.436,0.604,5.226,0.741l0.239,0.018l1.21-4.721l-0.347-0.018c0,0-0.123-0.006-0.338-0.024
	c-1.201-0.117-2.376-0.275-3.475-0.469c-2.289-0.43-4.339-1.046-6.102-1.832c-0.374-0.167-0.75-0.347-1.115-0.541l-0.215-0.12
	c-0.675-0.374-1.255-0.738-1.763-1.13c-1.291-0.977-2.023-2.014-2.161-3.042l-0.009-1.658h-5.857l0.003,1.357
	c-0.003,0.027-0.009,0.269-0.006,0.275c-0.149,1.082-0.914,2.143-2.259,3.144c-0.2,0.149-0.409,0.293-0.619,0.424l-0.126,0.087
	c-0.057,0.039-0.123,0.084-0.188,0.122l-0.245,0.143c-0.227,0.132-0.454,0.266-0.705,0.397c-0.394,0.206-0.795,0.397-1.192,0.574
	c-0.215,0.099-0.43,0.188-0.651,0.278l-0.353,0.14c-1.482,0.562-3.141,1.025-4.928,1.36c-1.133,0.209-2.298,0.365-3.544,0.487
	l-0.087,0.012c-0.164,0.009-0.266,0.015-0.266,0.015l-0.347,0.018l0.14,0.547L431.933,120.886z"/>
<path fill="#9E9EA0" d="M45.926,53.155L16.65,14.643c-3.015-3.974-5.902-5.191-8.236-5.191C2.899,9.452,0,12.781,0,17.547v62.284
	h15.494l-0.003-43.24l29.27,38.521c3.012,3.965,5.902,5.191,8.233,5.191c5.525,0,8.421-3.326,8.421-8.095V9.915H45.92L45.926,53.155
	z M336.941,33.806h-0.251c-1.144-1.7-6.475-5.179-13.301-5.179c-14.233,0-26.219,11.866-26.219,26.368
	c0,14.499,11.986,26.38,26.219,26.38c6.825,0,12.156-3.496,13.301-5.191h0.251v3.67h14.442V9.918h-14.442V33.806z M323.874,68.437
	c-7.536,0-13.307-6.03-13.307-13.441c0-7.408,5.77-13.444,13.307-13.444c7.557,0,13.145,5.938,13.145,13.444
	S331.431,68.437,323.874,68.437 M72.438,79.855h14.43V30.149h-14.43V79.855z M79.654,6.787c-4.659,0-8.436,3.771-8.436,8.43
	c0,4.659,3.777,8.436,8.436,8.436c4.656,0,8.43-3.777,8.43-8.436C88.084,10.558,84.31,6.787,79.654,6.787 M382.742,28.627
	c-14.645,0-26.5,11.833-26.5,26.383c0,14.541,11.854,26.371,26.5,26.371c14.642,0,26.503-11.83,26.503-26.371
	C409.244,40.461,397.384,28.627,382.742,28.627 M382.739,68.377c-7.208,0-13.074-5.988-13.074-13.345
	c0-7.363,5.869-13.348,13.074-13.348c7.211,0,13.068,5.985,13.068,13.348C395.806,62.389,389.949,68.377,382.739,68.377
	 M173.56,16.468h-14.397V30.16h-9.649v11.711h9.649v37.965h14.397V41.871h9.76V30.16h-9.76V16.468z M124.221,28.634
	c-5.4,0-10.235,2.19-13.181,5.755h-0.155v-4.222H96.46V79.84h14.424V55.659c0-9.652,5.247-13.821,11.203-13.821
	c4.139,0,10.429,2.621,10.429,12.398v25.585h14.439V53.173C146.955,36.463,135.415,28.634,124.221,28.634 M269.583,28.634
	c-5.4,0-10.232,2.19-13.175,5.755h-0.158v-4.222h-14.427V79.84h14.427V55.659c0-9.652,5.25-13.821,11.203-13.821
	c4.136,0,10.426,2.621,10.426,12.398v25.585h14.442V53.173C292.321,36.463,280.78,28.634,269.583,28.634 M210.452,28.627
	c-14.95,0-25.965,13.208-25.965,26.296c0,13.519,11.263,26.464,26.096,26.464c10.802,0,19.672-6.069,23.505-13.629l-11.792-4.148
	c-3.072,3.84-6.834,5.591-11.833,5.591c-5.062,0-10.958-3.326-12.374-9.652h29.288c6.296,0,9.485-1.24,9.485-5.944
	C236.653,43.288,227.673,28.627,210.452,28.627 M198.293,49.629c2.241-6.284,7.288-8.794,12.38-8.794
	c7.16,0,11.227,4.545,12.682,8.794H198.293z"/>
<path fill="#F18C1E" d="M693.784,28.626c-6.828,0-12.159,3.493-13.301,5.191h-0.251v-3.67h-14.421v69.934h14.421V76.196h0.251
	c1.141,1.694,6.472,5.182,13.301,5.182c14.23,0,26.216-11.875,26.216-26.368C720,40.51,708.014,28.626,693.784,28.626 M693.3,68.447
	c-7.56,0-13.145-5.938-13.145-13.438c0-7.507,5.585-13.444,13.145-13.444c7.536,0,13.304,6.033,13.304,13.444
	C706.604,62.417,700.836,68.447,693.3,68.447 M634.459,28.626c-14.648,0-26.506,11.836-26.506,26.386
	c0,14.538,11.857,26.371,26.506,26.371c14.639,0,26.494-11.833,26.494-26.371C660.953,40.463,649.098,28.626,634.459,28.626
	 M634.456,68.376c-7.214,0-13.077-5.988-13.077-13.342c0-7.366,5.869-13.348,13.077-13.348c7.208,0,13.068,5.982,13.068,13.348
	C647.523,62.387,641.667,68.376,634.456,68.376 M580.369,28.647c-5.4,0-10.235,2.187-13.178,5.758h-0.158V9.92h-14.424v69.937
	h14.424V55.673c0-9.652,5.247-13.815,11.203-13.815c4.136,0,10.426,2.618,10.426,12.392v25.582h14.442V53.187
	C603.103,36.479,591.563,28.647,580.369,28.647 M462.785,68.528c-4.016,0-8.555-1.667-10.913-4.569l28.998-16.848
	c6.218-3.592,9.099-6.727,6.419-11.373c-4.169-6.562-14.651-13.507-25.986-13.507c-16.041,0-29.129,14.203-29.129,29.945
	c0,16.931,14.831,29.978,31.108,29.978c15.043,0,28.472-10.814,29.204-26.461h-14.92C476.889,62.71,471.012,68.528,462.785,68.528
	 M462.316,35.114c4.01,0,7.175,1.467,10.097,4.172l-26.072,15.049C444.446,44.365,452.159,35.114,462.316,35.114 M490.268,7.505
	c-0.09-0.099-0.257-0.09-0.335,0.021l-10.65,14.711c-0.045,0.06-0.039,0.14,0.009,0.194c0.051,0.06,0.131,0.072,0.197,0.033
	l15.742-9.06c0.12-0.066,0.149-0.224,0.051-0.329L490.268,7.505z M474.373,19.115c0.069,0.024,0.149-0.003,0.185-0.066l9.655-15.386
	c0.072-0.114,0.021-0.269-0.114-0.317l-7.037-2.567c-0.128-0.048-0.269,0.042-0.29,0.179l-2.495,17.986
	C474.266,19.016,474.308,19.091,474.373,19.115 M468.474,18.487c0.072-0.009,0.128-0.072,0.134-0.146l1.297-18.115
	c0.012-0.137-0.111-0.242-0.245-0.224l-7.42,1.043c-0.14,0.012-0.221,0.155-0.176,0.284l6.242,17.06
	C468.331,18.454,468.403,18.496,468.474,18.487 M525.893,37.92c-6.942-2.322-12.234-4.034-12.234-8.926
	c0-3.254,2.863-6.326,8.152-6.326c5.385,0,8.573,2.845,11.134,4.951l11.914-8.286c-5.062-6.251-13.689-11.493-22.827-11.493
	c-12.652,0-23.523,9.29-23.523,21.378c0,9.036,6.087,17.565,18.796,21.781c7.967,2.645,12.948,4.252,12.948,9.341
	c0,3.511-3.541,6.682-7.856,6.682c-5.34,0-9.694-3.58-13.044-6.547l-12.643,8.818c6.302,7.309,16.256,12.622,25.298,12.622
	c14.066,0,23.703-10.704,23.703-21.898C545.711,51.355,540.846,42.898,525.893,37.92"/>
<g>
</g>
<g>
</g>
<g>
</g>
<g>
</g>
<g>
</g>
<g>
</g>
<g>
</g>
<g>
</g>
<g>
</g>
<g>
</g>
<g>
</g>
<g>
</g>
<g>
</g>
<g>
</g>
<g>
</g>
</svg>
