<?xml version="1.0" encoding="utf-8"?>
<!-- Generator: Adobe Illustrator 27.2.0, SVG Export Plug-In . SVG Version: 6.00 Build 0)  -->
<svg version="1.1" id="레이어_1" xmlns="http://www.w3.org/2000/svg" xmlns:xlink="http://www.w3.org/1999/xlink" x="0px"
	 y="0px" viewBox="0 0 720 132.726" enable-background="new 0 0 720 132.726" xml:space="preserve">
<path fill="#9E9E9F" d="M124.219,28.638c-5.391,0-10.226,2.19-13.18,5.75h-0.146v-4.223H96.46v49.671h14.432v-24.17
	c0-9.653,5.239-13.826,11.192-13.826c4.144,0,10.434,2.622,10.434,12.388v25.585h14.443V53.172
	C146.962,36.466,135.416,28.638,124.219,28.638 M79.647,6.798c-4.65,0-8.429,3.763-8.429,8.429c0,4.65,3.779,8.435,8.429,8.435
	c4.661,0,8.435-3.785,8.435-8.435C88.082,10.561,84.308,6.798,79.647,6.798 M72.442,79.852h14.432V30.159H72.442V79.852z
	 M45.925,53.156L16.65,14.649c-3.016-3.976-5.902-5.195-8.227-5.195C2.898,9.455,0,12.785,0,17.552v62.272h15.494V36.601
	l29.269,38.507c3.016,3.965,5.896,5.195,8.233,5.195c5.52,0,8.418-3.324,8.418-8.098V9.926H45.919L45.925,53.156z M382.736,28.632
	c-14.64,0-26.5,11.843-26.5,26.377c0,14.55,11.86,26.377,26.5,26.377c14.64,0,26.5-11.827,26.5-26.377
	C409.236,40.475,397.376,28.632,382.736,28.632 M382.736,68.368c-7.211,0-13.068-5.975-13.068-13.337
	c0-7.362,5.863-13.348,13.068-13.348c7.211,0,13.079,5.986,13.079,13.348C395.814,62.393,389.946,68.368,382.736,68.368
	 M173.558,16.468h-14.399v13.697h-9.642v11.709h9.642v37.962h14.399V41.874h9.766V30.165h-9.766V16.468z M269.586,28.638
	c-5.402,0-10.232,2.19-13.169,5.75h-0.168v-4.223h-14.432v49.671h14.432v-24.17c0-9.653,5.251-13.826,11.198-13.826
	c4.133,0,10.434,2.622,10.434,12.388v25.585h14.438V53.172C292.318,36.466,280.778,28.638,269.586,28.638 M336.94,33.81h-0.253
	c-1.134-1.69-6.475-5.178-13.281-5.178c-14.253,0-26.242,11.866-26.242,26.366c0,14.511,11.989,26.388,26.242,26.388
	c6.806,0,12.147-3.504,13.281-5.2h0.253v3.661h14.438V9.926H336.94V33.81z M323.878,68.436c-7.542,0-13.315-6.026-13.315-13.438
	s5.773-13.438,13.315-13.438c7.553,0,13.135,5.941,13.135,13.438C337.013,62.506,331.431,68.436,323.878,68.436 M210.447,28.632
	c-14.949,0-25.961,13.202-25.961,26.293c0,13.511,11.259,26.461,26.085,26.461c10.821,0,19.683-6.071,23.524-13.624l-11.787-4.15
	c-3.077,3.835-6.845,5.593-11.838,5.593c-5.065,0-10.962-3.324-12.377-9.648h29.291c6.295,0,9.468-1.241,9.468-5.947
	C236.655,43.295,227.67,28.632,210.447,28.632 M198.295,49.629c2.235-6.284,7.289-8.8,12.377-8.8c7.166,0,11.237,4.543,12.686,8.8
	H198.295z"/>
<path fill="#F08D1D" d="M468.474,18.5c0.073-0.017,0.124-0.073,0.129-0.152l1.297-18.116c0.011-0.135-0.112-0.247-0.247-0.23
	l-7.413,1.05c-0.14,0.017-0.219,0.152-0.174,0.292l6.239,17.049C468.328,18.466,468.407,18.5,468.474,18.5 M634.457,28.63
	c-14.64,0-26.512,11.843-26.512,26.382c0,14.545,11.872,26.371,26.512,26.371c14.634,0,26.5-11.827,26.5-26.371
	C660.957,40.474,649.091,28.63,634.457,28.63 M634.457,68.372c-7.205,0-13.079-5.975-13.079-13.343
	c0-7.357,5.874-13.348,13.079-13.348c7.194,0,13.068,5.992,13.068,13.348C647.524,62.397,641.65,68.372,634.457,68.372
	 M474.551,19.044l9.653-15.376c0.073-0.118,0.028-0.275-0.101-0.309l-7.048-2.578c-0.123-0.045-0.27,0.045-0.286,0.174
	l-2.505,17.993c-0.006,0.067,0.039,0.146,0.112,0.168C474.449,19.14,474.522,19.117,474.551,19.044 M462.786,68.53
	c-4.015,0-8.564-1.662-10.911-4.577l28.994-16.836c6.211-3.583,9.097-6.728,6.408-11.372c-4.15-6.57-14.64-13.511-25.967-13.511
	c-16.05,0-29.145,14.208-29.145,29.954c0,16.92,14.837,29.971,31.122,29.971c15.039,0,28.466-10.816,29.207-26.455h-14.926
	C476.892,62.706,471.007,68.53,462.786,68.53 M462.32,35.128c4.004,0,7.177,1.466,10.097,4.167l-26.074,15.039
	C444.445,44.371,452.15,35.128,462.32,35.128 M490.263,7.515c-0.09-0.112-0.258-0.101-0.337,0.017l-10.642,14.702
	c-0.045,0.067-0.045,0.146,0.006,0.202c0.056,0.056,0.135,0.062,0.197,0.034l15.752-9.052c0.112-0.079,0.135-0.23,0.045-0.343
	L490.263,7.515z M580.372,28.647c-5.414,0-10.237,2.196-13.18,5.762h-0.163V9.93h-14.427v69.921h14.427v-24.17
	c0-9.653,5.251-13.826,11.203-13.826c4.139,0,10.434,2.623,10.434,12.388v25.591h14.432V53.193
	C603.099,36.487,591.553,28.647,580.372,28.647 M693.78,28.63c-6.823,0-12.158,3.504-13.298,5.195h-0.241v-3.667h-14.438v69.926
	h14.438V76.206h0.241c1.14,1.69,6.475,5.178,13.298,5.178c14.23,0,26.22-11.866,26.22-26.371C720,40.513,708.011,28.63,693.78,28.63
	 M693.286,68.457c-7.542,0-13.135-5.936-13.135-13.444c0-7.497,5.593-13.444,13.135-13.444s13.315,6.031,13.315,13.444
	C706.601,62.414,700.828,68.457,693.286,68.457 M525.889,37.919c-6.941-2.308-12.225-4.026-12.225-8.923
	c0-3.246,2.853-6.323,8.154-6.323c5.385,0,8.558,2.836,11.136,4.953l11.911-8.289c-5.065-6.256-13.697-11.495-22.833-11.495
	c-12.646,0-23.524,9.294-23.524,21.373c0,9.041,6.087,17.571,18.796,21.789c7.969,2.645,12.955,4.234,12.955,9.344
	c0,3.51-3.544,6.677-7.867,6.677c-5.335,0-9.693-3.588-13.034-6.548l-12.647,8.817c6.29,7.295,16.246,12.624,25.304,12.624
	c14.056,0,23.692-10.703,23.692-21.895C545.707,51.363,540.849,42.905,525.889,37.919"/>
<path fill="#9E9E9F" d="M134.668,130.053l34.75,0.039v-5.369h-34.75V130.053z M194.076,101.312
	c-5.442-1.101-11.737-1.881-16.892-2.235v5.515c5.206,0.371,11.45,1.219,16.892,2.477V101.312z M165.885,100.453h-27.966v5.357
	h27.966V100.453z M177.588,125.909v5.475c18.358-0.691,29.639-7.879,31.392-26.832h-5.925
	C201.219,120.585,191.728,124.847,177.588,125.909 M214.472,114.211h16.718c-0.803,6.66-5.273,11.209-13.068,12.433v5.223
	c9.906-1.252,17.813-6.368,19.234-17.656h11.9v-5.032h-34.783V114.211z M246.863,98.751h-29.881v5.11h29.881V98.751z
	 M465.745,99.919c-5.279-0.685-12.062-1.297-17.218-1.454v5.194c4.959,0.124,12.062,0.854,17.218,1.584V99.919z M271.931,101.312
	c-5.447-1.101-11.737-1.881-16.892-2.235v5.515c5.189,0.371,11.445,1.219,16.892,2.477V101.312z M529.954,118.726l0.017,0.168h5.245
	l-0.039-0.219c-0.606-3.712-1.584-8.963-2.858-12.882l-0.039-0.135h-5.11l0.079,0.236
	C528.382,109.848,529.466,114.998,529.954,118.726 M314.554,98.504h-2.971v6.587h2.971V98.504z M319.737,98.504h-3.038v6.587h3.038
	V98.504z M374.277,113.728v5.273c5.599-0.842,11.45-2.269,16.639-4.667v18.391h5.863V111.01c4.616-3.24,8.395-7.514,10.591-13.32
	h-6.301C397.621,104.76,390.113,110.769,374.277,113.728 M525.933,119.002c-0.685-4.335-1.881-9.535-2.971-12.922l-0.034-0.129
	h-5.065l0.062,0.241c1.123,3.701,2.319,9.103,2.847,12.871l0.028,0.157h5.178L525.933,119.002z M487.056,110.673h19.357v5.172
	h-18.846v4.723h18.846v5.947h-19.357v4.801l24.439,0.039h0.191v-25.405h-24.63V110.673z M539.664,106.462
	c-0.09,12.703-4.476,18.543-15.679,20.862l-0.152,0.039v4.863l0.236-0.045c14.151-2.258,20.845-10.411,21.053-25.68v-0.696h-5.458
	V106.462z M581.321,95.056c-2.168,0-3.942,1.791-3.987,3.976h-27.725v5.195h25.293c-1.089,11.984-8.407,19.896-20.873,22.289v5.11
	c14.168-1.707,25.737-10.462,26.955-28.572h0.337c2.179,0,4.01-1.825,4.01-3.976C585.33,96.881,583.5,95.056,581.321,95.056
	 M581.321,100.897c-0.977,0-1.836-0.842-1.836-1.819c0-1.061,0.859-1.881,1.836-1.881c1.05,0,1.853,0.82,1.853,1.881
	C583.174,100.054,582.371,100.897,581.321,100.897 M449.066,126.15v5.402c18.616-0.286,30.56-7.469,32.144-27.281h-5.795
	C473.781,119.9,465.79,125.589,449.066,126.15 M255.444,125.909v5.475c18.352-0.691,29.634-7.879,31.38-26.832h-5.93
	C279.069,120.585,269.567,124.847,255.444,125.909 M327.813,115.632h32.054v-5.318h-32.054V115.632z M299.28,97.331h-5.773v34.823
	h5.773v-18.015c7.222,1.494,15.016,3.358,22.811,5.52v-5.807c-7.227-2.072-14.988-3.74-22.811-5.318V97.331z M465.374,111.291
	c-5.11-0.758-12.006-1.337-17.206-1.505v5.2c4.874,0.124,11.9,0.764,17.206,1.539V111.291z M409.313,115.632h32.043v-5.318h-32.043
	V115.632z"/>
<g>
</g>
<g>
</g>
<g>
</g>
<g>
</g>
<g>
</g>
<g>
</g>
<g>
</g>
<g>
</g>
<g>
</g>
<g>
</g>
<g>
</g>
<g>
</g>
<g>
</g>
<g>
</g>
<g>
</g>
</svg>
