<?xml version="1.0" encoding="utf-8"?>
<!-- Generator: Adobe Illustrator 27.2.0, SVG Export Plug-In . SVG Version: 6.00 Build 0)  -->
<svg version="1.1" id="레이어_1" xmlns="http://www.w3.org/2000/svg" xmlns:xlink="http://www.w3.org/1999/xlink" x="0px"
	 y="0px" viewBox="0 0 720 264.46" enable-background="new 0 0 720 264.46" xml:space="preserve">
<g>
	<defs>
		<path id="SVGID_1_" d="M426.452,123.518V71.88c0-1.799,1.469-3.269,3.279-3.269h9.816c15.523,0,26.369,11.985,26.369,29.138
			c0,17.113-10.846,29.048-26.369,29.048h-9.816C427.922,126.797,426.452,125.328,426.452,123.518 M425.283,55.947
			c-6.807,0-12.345,5.538-12.345,12.345v58.816c0,6.757,5.298,12.175,12.125,12.345c0.07,0,0.15,0.02,0.22,0.02h16.173
			c22.931,0,38.944-17.163,38.944-41.723c0-24.61-16.013-41.803-38.944-41.803H425.283z"/>
	</defs>
	<clipPath id="SVGID_00000057106919459075249990000004627516563610224309_">
		<use xlink:href="#SVGID_1_"  overflow="visible"/>
	</clipPath>
	
		<linearGradient id="SVGID_00000032647607920104267410000004920803448092538757_" gradientUnits="userSpaceOnUse" x1="-202.8504" y1="4.4286" x2="-192.8546" y2="4.4286" gradientTransform="matrix(0 22.3043 22.3043 0 347.8916 4571.0908)">
		<stop  offset="0" style="stop-color:#09B8E4"/>
		<stop  offset="0.4866" style="stop-color:#1F9CD3"/>
		<stop  offset="1" style="stop-color:#3A7BBE"/>
	</linearGradient>
	
		<rect x="412.938" y="55.947" clip-path="url(#SVGID_00000057106919459075249990000004627516563610224309_)" fill="url(#SVGID_00000032647607920104267410000004920803448092538757_)" width="67.462" height="83.525"/>
</g>
<g>
	<defs>
		<path id="SVGID_00000051364669342315017790000004723345953848005812_" d="M337.939,73.109c-0.11,0.39-0.21,0.82-0.27,1.269
			l0.05,0.06h-0.06l-0.01,0.17c-0.02,0.2-0.06,0.38-0.06,0.58c-0.03,1.949,0.72,3.788,2.079,5.178
			c1.379,1.4,3.199,2.179,5.238,2.209c3.518,0,6.537-2.539,7.157-6.017l0.03-0.02c1.159-6.827,7.057-10.905,15.783-10.905
			c7.467,0,15.034,4.168,15.034,12.125c0,4.708-3.599,9.366-9.126,11.865c-1.909,0.72-5.078,1.149-9.416,1.279l-0.03,0.04
			c-3.239,0.02-5.908,2.679-5.938,5.937c-0.02,1.589,0.59,3.109,1.709,4.238c1.109,1.159,2.609,1.789,4.258,1.809l0.02,0.02
			c3.938,0.04,7.087,0.38,9.656,1.06c7.027,1.559,11.385,6.347,11.385,12.475c0,8.057-7.387,14.144-17.193,14.144
			c-9.656,0-17.003-5.428-18.283-13.494l-0.05-0.04c-0.55-3.549-3.539-6.157-7.207-6.187c-3.978,0-7.257,3.248-7.297,7.227
			c0,0.25,0.02,0.5,0.05,0.73l0.03,0.18h0.01l-0.05,0.07c0.01,0.09,0.04,0.16,0.07,0.31c0.03,0.16,0.07,0.31,0.13,0.53
			c2.789,13.494,16.233,22.92,32.716,22.92c16.373,0,33.306-9.716,33.306-25.959c0-8.067-5.008-15.573-13.814-20.801
			c6.887-3.708,10.806-9.966,10.806-17.393c0-14.214-13.364-25.329-30.417-25.329C352.383,53.388,340.468,61.174,337.939,73.109"/>
	</defs>
	<clipPath id="SVGID_00000119082763242875289510000017783491824645937537_">
		<use xlink:href="#SVGID_00000051364669342315017790000004723345953848005812_"  overflow="visible"/>
	</clipPath>
	
		<linearGradient id="SVGID_00000177470757440034845060000002048785160943723418_" gradientUnits="userSpaceOnUse" x1="-202.8506" y1="1.2757" x2="-192.8548" y2="1.2757" gradientTransform="matrix(0 22.3045 22.3045 0 340.0775 4571.1387)">
		<stop  offset="0" style="stop-color:#09B8E4"/>
		<stop  offset="0.4866" style="stop-color:#1F9CD3"/>
		<stop  offset="1" style="stop-color:#3A7BBE"/>
	</linearGradient>
	
		<rect x="335.4" y="53.388" clip-path="url(#SVGID_00000119082763242875289510000017783491824645937537_)" fill="url(#SVGID_00000177470757440034845060000002048785160943723418_)" width="66.262" height="89.483"/>
</g>
<g>
	<defs>
		<path id="SVGID_00000054987222872078047810000011098840909032867499_" d="M491.035,78.497c0,18.812,16.103,22.241,29.068,24.99
			c11.515,2.169,19.642,4.348,19.642,12.775c0,9.356-8.586,13.624-16.593,13.624c-10.526,0-18.502-6.347-20.342-16.143
			c-0.67-3.379-3.649-5.847-7.097-5.847c-3.978,0-7.227,3.248-7.227,7.237c0,0.59,0.09,1.199,0.27,1.859
			c3.399,15.524,17.123,25.559,34.936,25.559c14.754,0,30.647-8.116,30.647-25.959c0-17.983-15.164-21.861-28.528-25.289l-0.91-0.23
			c-10.296-2.699-19.182-5.028-19.182-13.095c0-8.177,7.917-12.445,15.743-12.445c8.127,0,14.184,4.508,15.793,11.745
			c0.65,3.349,3.599,5.798,7.027,5.798c3.938,0,7.137-3.209,7.137-7.157c0-0.97-0.19-1.909-0.53-2.699
			c-3.548-11.985-15.314-19.732-29.968-19.732C506.519,53.488,491.035,61.324,491.035,78.497"/>
	</defs>
	<clipPath id="SVGID_00000162316848407047686210000018238778151279994809_">
		<use xlink:href="#SVGID_00000054987222872078047810000011098840909032867499_"  overflow="visible"/>
	</clipPath>
	
		<linearGradient id="SVGID_00000155142441720058790860000003742270366892189104_" gradientUnits="userSpaceOnUse" x1="-202.8497" y1="7.4456" x2="-192.8538" y2="7.4456" gradientTransform="matrix(0 22.3034 22.3034 0 355.3514 4570.894)">
		<stop  offset="0" style="stop-color:#09B8E4"/>
		<stop  offset="0.4866" style="stop-color:#1F9CD3"/>
		<stop  offset="1" style="stop-color:#3A7BBE"/>
	</linearGradient>
	
		<rect x="488.487" y="53.488" clip-path="url(#SVGID_00000162316848407047686210000018238778151279994809_)" fill="url(#SVGID_00000155142441720058790860000003742270366892189104_)" width="65.853" height="89.063"/>
</g>
<g>
	<defs>
		<path id="SVGID_00000010313012574675944960000004630629200489859496_" d="M2.339,58.556C0.79,59.735,0,61.584,0,64.023V96.44
			c0,4.548,1.269,7.937,3.758,10.086c2.369,2.049,5.888,3.239,10.486,3.559c2.519,0.13,5.058,0.21,7.547,0.21
			c5.888,0,11.875-0.41,17.773-1.23c8.906-1.219,12.955-2.029,18.892-3.808c3.519-1.17,4.618-3.599,4.908-5.408
			c0.47-2.749-0.78-5.018-3.568-6.407l-0.4-0.15c-1.469-0.31-2.019-0.35-2.349-0.35c-0.45,0-1.11,0.11-2.849,0.59
			c-1.229,0.37-2.489,0.75-3.728,1.159c-3.159,1-5.528,1.409-9.096,2.029l-0.43,0.08c-5.088,0.72-9.426,1.189-12.875,1.389
			c-2.049,0.11-3.888,0.17-5.488,0.17c-6.817,0-8.037-1.03-8.157-1.14c-0.18-0.19-0.77-0.98-0.77-3.688V63.933
			c0-2.479-0.79-4.298-2.379-5.468c-1.349-0.99-2.889-1.499-4.418-1.499C5.278,56.966,3.708,57.496,2.339,58.556"/>
	</defs>
	<clipPath id="SVGID_00000041280610412321811010000006945917312782561684_">
		<use xlink:href="#SVGID_00000010313012574675944960000004630629200489859496_"  overflow="visible"/>
	</clipPath>
	
		<linearGradient id="SVGID_00000137130811600389216080000006546018192923948222_" gradientUnits="userSpaceOnUse" x1="-202.8496" y1="-12.3051" x2="-192.8537" y2="-12.3051" gradientTransform="matrix(0 22.3033 22.3033 0 306.3607 4570.8701)">
		<stop  offset="0" style="stop-color:#09B8E4"/>
		<stop  offset="0.4866" style="stop-color:#1F9CD3"/>
		<stop  offset="1" style="stop-color:#3A7BBE"/>
	</linearGradient>
	
		<rect x="0" y="56.967" clip-path="url(#SVGID_00000041280610412321811010000006945917312782561684_)" fill="url(#SVGID_00000137130811600389216080000006546018192923948222_)" width="63.833" height="53.328"/>
</g>
<g>
	<defs>
		<path id="SVGID_00000143585844323737664180000013984199175258974902_" d="M69.001,54.307c-1.1,0.72-2.409,2.149-2.409,4.848
			v58.655c0,2.919,1.309,4.448,2.419,5.218c1.369,0.97,2.899,1.459,4.568,1.459c1.749,0,3.289-0.59,4.598-1.759
			c1.369-1.219,2.079-2.879,2.079-4.918V59.155c0-2.719-1.359-4.148-2.489-4.868c-1.329-0.85-2.869-1.27-4.388-1.27
			C71.84,53.018,70.311,53.448,69.001,54.307"/>
	</defs>
	<clipPath id="SVGID_00000011752699835735956510000000086037344260912541_">
		<use xlink:href="#SVGID_00000143585844323737664180000013984199175258974902_"  overflow="visible"/>
	</clipPath>
	
		<linearGradient id="SVGID_00000076585429492476255540000018159940546543516062_" gradientUnits="userSpaceOnUse" x1="-202.8515" y1="-10.6319" x2="-192.8557" y2="-10.6319" gradientTransform="matrix(0 22.3055 22.3055 0 310.5736 4571.3594)">
		<stop  offset="0" style="stop-color:#09B8E4"/>
		<stop  offset="0.4866" style="stop-color:#1F9CD3"/>
		<stop  offset="1" style="stop-color:#3A7BBE"/>
	</linearGradient>
	
		<rect x="66.592" y="53.018" clip-path="url(#SVGID_00000011752699835735956510000000086037344260912541_)" fill="url(#SVGID_00000076585429492476255540000018159940546543516062_)" width="13.664" height="71.47"/>
</g>
<g>
	<defs>
		<path id="SVGID_00000169516660265302869520000000198477731936205740_" d="M5.848,118.84c-2.329,1.14-3.569,3.209-3.569,6.008
			v9.826c0,3.928,1.329,7.037,3.928,9.266c2.509,2.149,5.848,3.229,9.926,3.229h57.776c2.139,0,3.848-0.63,5.108-1.889
			c1.259-1.249,1.879-2.809,1.779-4.498c-0.1-1.679-0.88-3.119-2.289-4.278c-1.339-1.1-3.119-1.649-5.328-1.649H20.282
			c-2.429,0-3.279-0.5-3.528-0.72c-0.17-0.13-0.71-0.76-0.71-2.989v-5.578c0-2.849-1.17-5.058-3.409-6.387
			c-1.189-0.71-2.449-1.07-3.708-1.07C7.887,118.111,6.847,118.351,5.848,118.84"/>
	</defs>
	<clipPath id="SVGID_00000029724619576441125910000016824046567480995494_">
		<use xlink:href="#SVGID_00000169516660265302869520000000198477731936205740_"  overflow="visible"/>
	</clipPath>
	
		<linearGradient id="SVGID_00000096754581705903152340000018246274269936514204_" gradientUnits="userSpaceOnUse" x1="-202.8416" y1="-11.9131" x2="-192.8457" y2="-11.9131" gradientTransform="matrix(0 22.2957 22.2957 0 307.1987 4569.1855)">
		<stop  offset="0" style="stop-color:#09B8E4"/>
		<stop  offset="0.4866" style="stop-color:#1F9CD3"/>
		<stop  offset="1" style="stop-color:#3A7BBE"/>
	</linearGradient>
	
		<rect x="2.279" y="118.111" clip-path="url(#SVGID_00000029724619576441125910000016824046567480995494_)" fill="url(#SVGID_00000096754581705903152340000018246274269936514204_)" width="78.617" height="29.058"/>
</g>
<g>
	<defs>
		<path id="SVGID_00000170991046078176038990000017646758940756353681_" d="M104.147,118.84c-2.319,1.14-3.558,3.209-3.558,6.008
			v9.826c0,3.928,1.319,7.037,3.918,9.266c2.509,2.149,5.848,3.229,9.926,3.229h59.375c2.129,0,3.848-0.63,5.098-1.889
			c1.279-1.279,1.879-2.879,1.719-4.608c-0.16-1.689-0.95-3.119-2.359-4.238c-1.329-1.04-3.119-1.579-5.298-1.579h-54.377
			c-2.429,0-3.279-0.5-3.538-0.72c-0.16-0.13-0.7-0.76-0.7-2.989v-5.578c0-2.849-1.18-5.058-3.409-6.387
			c-1.199-0.71-2.459-1.07-3.718-1.07C106.186,118.111,105.146,118.351,104.147,118.84"/>
	</defs>
	<clipPath id="SVGID_00000123424923351175194390000016971211421159442838_">
		<use xlink:href="#SVGID_00000170991046078176038990000017646758940756353681_"  overflow="visible"/>
	</clipPath>
	
		<linearGradient id="SVGID_00000085957668867342736550000015668968719833294727_" gradientUnits="userSpaceOnUse" x1="-202.8425" y1="-7.9135" x2="-192.8467" y2="-7.9135" gradientTransform="matrix(0 22.2968 22.2968 0 317.1314 4569.4302)">
		<stop  offset="0" style="stop-color:#09B8E4"/>
		<stop  offset="0.4866" style="stop-color:#1F9CD3"/>
		<stop  offset="1" style="stop-color:#3A7BBE"/>
	</linearGradient>
	
		<rect x="100.588" y="118.111" clip-path="url(#SVGID_00000123424923351175194390000016971211421159442838_)" fill="url(#SVGID_00000085957668867342736550000015668968719833294727_)" width="80.197" height="29.058"/>
</g>
<g>
	<defs>
		<path id="SVGID_00000048483065350573352800000001108007200685483439_" d="M111.424,55.797c-4.148,0-7.497,1.269-9.956,3.758
			c-2.449,2.509-3.679,5.928-3.679,10.196v30.847c0,4.338,1.08,7.627,3.229,9.786c2.149,2.149,5.468,3.229,9.856,3.229
			c0.61,0.01,1.199,0.01,1.799,0.01c8.976,0,17.003-1.01,23.87-3.019c3.648-1.17,4.728-3.609,5.008-5.448
			c0.41-2.779-0.88-4.988-3.649-6.207c-1.309-0.5-2.989-0.49-5.038,0.01c-7.217,1.769-13.604,2.659-18.982,2.659
			c-1.619-0.06-1.989-0.43-1.989-0.43c-0.02-0.03-0.45-0.7-0.45-3.698v-7.677h11.535c2.169,0,3.868-0.65,5.058-1.939
			c1.15-1.239,1.709-2.679,1.709-4.268s-0.58-3.019-1.749-4.238c-1.179-1.23-2.859-1.849-5.018-1.849h-11.535V71.82
			c0-2.499,0.5-3.149,0.55-3.209c0.02-0.02,0.47-0.51,2.549-0.51h15.264c2.369,0,4.178-0.64,5.388-1.909
			c1.21-1.239,1.809-2.679,1.809-4.238c0-1.58-0.64-3.019-1.879-4.278c-1.259-1.239-3.079-1.879-5.418-1.879H111.424z"/>
	</defs>
	<clipPath id="SVGID_00000095330478335435114240000007518501167244220584_">
		<use xlink:href="#SVGID_00000048483065350573352800000001108007200685483439_"  overflow="visible"/>
	</clipPath>
	
		<linearGradient id="SVGID_00000138531049470170498530000017483275294527829166_" gradientUnits="userSpaceOnUse" x1="-202.8477" y1="-8.7553" x2="-192.8519" y2="-8.7553" gradientTransform="matrix(0 22.3016 22.3016 0 315.1316 4570.5044)">
		<stop  offset="0" style="stop-color:#09B8E4"/>
		<stop  offset="0.4866" style="stop-color:#1F9CD3"/>
		<stop  offset="1" style="stop-color:#3A7BBE"/>
	</linearGradient>
	
		<rect x="97.789" y="55.797" clip-path="url(#SVGID_00000095330478335435114240000007518501167244220584_)" fill="url(#SVGID_00000138531049470170498530000017483275294527829166_)" width="44.172" height="57.826"/>
</g>
<g>
	<defs>
		<path id="SVGID_00000082368864531460759150000016132954200809853581_" d="M168.8,54.257c-1.12,0.75-2.439,2.219-2.439,4.988
			v58.485c0,2.089,0.68,3.798,2.039,5.038c1.299,1.23,2.919,1.839,4.788,1.839c1.879,0,3.499-0.65,4.808-1.909
			c1.329-1.289,2.019-2.959,2.019-4.968V59.155c0-2.809-1.349-4.248-2.489-4.978c-1.349-0.839-2.829-1.259-4.318-1.259
			C171.669,52.918,170.139,53.358,168.8,54.257"/>
	</defs>
	<clipPath id="SVGID_00000005237924024220236890000012729150102283930251_">
		<use xlink:href="#SVGID_00000082368864531460759150000016132954200809853581_"  overflow="visible"/>
	</clipPath>
	
		<linearGradient id="SVGID_00000089555949557616946250000017382767859544151480_" gradientUnits="userSpaceOnUse" x1="-202.851" y1="-6.6064" x2="-192.8552" y2="-6.6064" gradientTransform="matrix(0 22.3049 22.3049 0 320.5437 4571.2373)">
		<stop  offset="0" style="stop-color:#09B8E4"/>
		<stop  offset="0.4866" style="stop-color:#1F9CD3"/>
		<stop  offset="1" style="stop-color:#3A7BBE"/>
	</linearGradient>
	
		<rect x="166.361" y="52.918" clip-path="url(#SVGID_00000005237924024220236890000012729150102283930251_)" fill="url(#SVGID_00000089555949557616946250000017382767859544151480_)" width="13.654" height="71.69"/>
</g>
<g>
	<defs>
		<path id="SVGID_00000090995166311212905810000006914431862117947273_" d="M149.088,54.917c-1.349,1.14-2.069,2.709-2.069,4.538
			v17.743h-6.467c-4.478,0-6.137,2.229-6.747,4.078c-0.84,2.579-0.14,4.958,1.889,6.507c1.349,1.14,3.149,1.729,5.368,1.729h5.958
			v28.418c0,1.949,0.67,3.558,1.979,4.818c1.269,1.229,2.899,1.859,4.868,1.859c1.919,0,3.569-0.61,4.878-1.839
			c1.359-1.239,2.049-2.869,2.049-4.838V59.355c0-1.849-0.73-3.399-2.089-4.508c-1.259-1.02-2.869-1.54-4.798-1.54
			C151.977,53.308,150.357,53.847,149.088,54.917"/>
	</defs>
	<clipPath id="SVGID_00000102537868152282913460000016435060366050637220_">
		<use xlink:href="#SVGID_00000090995166311212905810000006914431862117947273_"  overflow="visible"/>
	</clipPath>
	
		<linearGradient id="SVGID_00000181080898125540777320000011714493729967604358_" gradientUnits="userSpaceOnUse" x1="-202.8479" y1="-7.6675" x2="-192.852" y2="-7.6675" gradientTransform="matrix(0 22.3018 22.3018 0 317.8782 4570.5522)">
		<stop  offset="0" style="stop-color:#09B8E4"/>
		<stop  offset="0.4866" style="stop-color:#1F9CD3"/>
		<stop  offset="1" style="stop-color:#3A7BBE"/>
	</linearGradient>
	
		<rect x="132.965" y="53.308" clip-path="url(#SVGID_00000102537868152282913460000016435060366050637220_)" fill="url(#SVGID_00000181080898125540777320000011714493729967604358_)" width="27.828" height="71.301"/>
</g>
<g>
	<defs>
		<path id="SVGID_00000070076983212077709040000018103365714787870641_" d="M233.353,115.592c-1.299,1.269-1.949,2.979-1.949,5.048
			v11.515h-36.125c-2.129,0-3.788,0.68-4.908,2.019c-1.04,1.229-1.559,2.609-1.559,4.088c0,1.449,0.5,2.819,1.459,4.068
			c1.089,1.429,2.729,2.139,4.908,2.139h86.844c2.169,0,3.818-0.71,4.918-2.139c0.96-1.249,1.449-2.619,1.449-4.068
			c0-1.499-0.55-2.879-1.649-4.138c-1.139-1.3-2.839-1.969-5.018-1.969h-36.655V120.64c0-2.459-0.8-4.308-2.379-5.458
			c-1.379-1.019-2.949-1.539-4.658-1.539C236.202,113.643,234.632,114.302,233.353,115.592"/>
	</defs>
	<clipPath id="SVGID_00000134943829733334657300000015816896926437362060_">
		<use xlink:href="#SVGID_00000070076983212077709040000018103365714787870641_"  overflow="visible"/>
	</clipPath>
	
		<linearGradient id="SVGID_00000163038987398638152310000016590762737495196562_" gradientUnits="userSpaceOnUse" x1="-202.8563" y1="-3.9705" x2="-192.8604" y2="-3.9705" gradientTransform="matrix(0 22.3099 22.3099 0 327.1819 4572.3389)">
		<stop  offset="0" style="stop-color:#09B8E4"/>
		<stop  offset="0.4866" style="stop-color:#1F9CD3"/>
		<stop  offset="1" style="stop-color:#3A7BBE"/>
	</linearGradient>
	
		<rect x="188.811" y="113.643" clip-path="url(#SVGID_00000134943829733334657300000015816896926437362060_)" fill="url(#SVGID_00000163038987398638152310000016590762737495196562_)" width="99.578" height="30.828"/>
</g>
<g>
	<defs>
		<path id="SVGID_00000172433064557775361560000006729723477128500927_" d="M212.112,55.687c-4.528,0-8.027,0.94-10.406,2.759
			c-2.559,1.949-3.848,5.118-3.848,9.436V96.75c0,4.158,1.21,7.247,3.579,9.196c2.269,1.839,5.588,2.779,9.846,2.779h61.704
			c2.499,0,4.388-0.66,5.658-1.959c1.249-1.31,1.859-2.779,1.799-4.418c-0.05-1.679-0.83-3.119-2.319-4.298
			c-1.37-1.08-3.189-1.629-5.438-1.629H215.53c-2.849,0-3.479-0.52-3.519-0.54c0-0.02-0.5-0.49-0.5-2.759V71.1
			c0-2.119,0.46-2.559,0.46-2.559c0.03-0.03,0.69-0.53,3.559-0.53h55.997c2.339,0,4.178-0.66,5.478-1.939
			c1.349-1.359,1.909-3.029,1.609-4.688c-0.23-1.709-1.429-5.698-7.707-5.698H212.112z"/>
	</defs>
	<clipPath id="SVGID_00000151538160951117104520000003736181442040717970_">
		<use xlink:href="#SVGID_00000172433064557775361560000006729723477128500927_"  overflow="visible"/>
	</clipPath>
	
		<linearGradient id="SVGID_00000015338922273488732480000009315091891324632464_" gradientUnits="userSpaceOnUse" x1="-202.8499" y1="-3.9427" x2="-192.854" y2="-3.9427" gradientTransform="matrix(0 22.3036 22.3036 0 327.1178 4570.9448)">
		<stop  offset="0" style="stop-color:#09B8E4"/>
		<stop  offset="0.4866" style="stop-color:#1F9CD3"/>
		<stop  offset="1" style="stop-color:#3A7BBE"/>
	</linearGradient>
	
		<rect x="197.858" y="55.687" clip-path="url(#SVGID_00000151538160951117104520000003736181442040717970_)" fill="url(#SVGID_00000015338922273488732480000009315091891324632464_)" width="82.646" height="53.038"/>
</g>
<g>
	<defs>
		<path id="SVGID_00000039849693447530112320000013354861380776643991_" d="M274.865,172.008c-0.8,0.89-1.709,2.419-1.519,4.748v0.4
			c-0.43,18.642-3.598,52.608-20.211,70.86c-1.979,2.439-2.509,5.448-1.369,7.817c1.07,2.269,3.369,3.529,6.147,3.309
			c1.679-0.04,3.289-0.77,4.738-2.249c8.616-9.586,15.633-24.43,19.542-41.183c7.517,11.025,15.044,26.409,18.562,38.174
			c0.9,3.289,3.379,5.328,6.497,5.328c2.239,0,4.368-1.08,5.678-2.909c1.429-1.969,1.739-4.498,0.89-7.077
			c-4.848-16.863-17.673-36.934-28.258-50.369c0.83-7.986,1.21-16.603,1.21-21.751c0-4.208-2.869-7.257-6.817-7.257
			C278.454,169.849,276.325,170.419,274.865,172.008"/>
	</defs>
	<clipPath id="SVGID_00000147199596548591765070000016734150558125888421_">
		<use xlink:href="#SVGID_00000039849693447530112320000013354861380776643991_"  overflow="visible"/>
	</clipPath>
	
		<linearGradient id="SVGID_00000044866848163965588210000014768588184700921780_" gradientUnits="userSpaceOnUse" x1="-202.85" y1="-2.1895" x2="-192.8541" y2="-2.1895" gradientTransform="matrix(0 22.3037 22.3037 0 331.4801 4570.9688)">
		<stop  offset="0" style="stop-color:#09B8E4"/>
		<stop  offset="0.4866" style="stop-color:#1F9CD3"/>
		<stop  offset="1" style="stop-color:#3A7BBE"/>
	</linearGradient>
	
		<rect x="250.625" y="169.849" clip-path="url(#SVGID_00000147199596548591765070000016734150558125888421_)" fill="url(#SVGID_00000044866848163965588210000014768588184700921780_)" width="64.043" height="89.513"/>
</g>
<g>
	<defs>
		<path id="SVGID_00000160874696030781154490000010154429162297655729_" d="M327.683,167.51c-3.738,0-6.467,2.729-6.467,6.497
			v84.055c0,3.758,2.759,6.397,6.717,6.397c3.818,0,6.707-2.709,6.707-6.287v-36.265h7.227c4.158,0,6.387-3.198,6.387-6.187
			c0-3.579-2.799-6.067-6.817-6.067h-6.797v-35.535c0-3.759-2.879-6.607-6.637-6.607H327.683z"/>
	</defs>
	<clipPath id="SVGID_00000158000134052607019850000004456382760204656303_">
		<use xlink:href="#SVGID_00000160874696030781154490000010154429162297655729_"  overflow="visible"/>
	</clipPath>
	
		<linearGradient id="SVGID_00000161628611666310580240000008663698280681983924_" gradientUnits="userSpaceOnUse" x1="-202.8486" y1="-0.0864" x2="-192.8527" y2="-0.0864" gradientTransform="matrix(0 22.3026 22.3026 0 336.6617 4570.7251)">
		<stop  offset="0" style="stop-color:#09B8E4"/>
		<stop  offset="0.4866" style="stop-color:#1F9CD3"/>
		<stop  offset="1" style="stop-color:#3A7BBE"/>
	</linearGradient>
	
		<rect x="321.216" y="167.51" clip-path="url(#SVGID_00000158000134052607019850000004456382760204656303_)" fill="url(#SVGID_00000161628611666310580240000008663698280681983924_)" width="27.039" height="96.95"/>
</g>
<g>
	<defs>
		<path id="SVGID_00000093861219519850700170000002872516078778783361_" d="M371.875,189.551c0-3.778,11.175-7.857,29.248-7.857
			c19.142,0,29.348,4.558,29.348,7.857c0,3.739-11.225,7.757-29.348,7.757C380.951,197.308,371.875,192.77,371.875,189.551
			 M358.351,189.551c0,7.357,5.548,19.692,42.772,19.692c38.704,0,42.872-13.764,42.872-19.692
			c0-17.973-29.977-19.892-42.872-19.892C373.934,169.659,358.351,176.896,358.351,189.551"/>
	</defs>
	<clipPath id="SVGID_00000101067037016782999150000007357201224815228294_">
		<use xlink:href="#SVGID_00000093861219519850700170000002872516078778783361_"  overflow="visible"/>
	</clipPath>
	
		<linearGradient id="SVGID_00000100342169697213924110000007871675263574992036_" gradientUnits="userSpaceOnUse" x1="-202.8457" y1="2.5972" x2="-192.8499" y2="2.5972" gradientTransform="matrix(0 22.2999 22.2999 0 343.2558 4570.1147)">
		<stop  offset="0" style="stop-color:#09B8E4"/>
		<stop  offset="0.4866" style="stop-color:#1F9CD3"/>
		<stop  offset="1" style="stop-color:#3A7BBE"/>
	</linearGradient>
	
		<rect x="358.351" y="169.659" clip-path="url(#SVGID_00000101067037016782999150000007357201224815228294_)" fill="url(#SVGID_00000100342169697213924110000007871675263574992036_)" width="85.644" height="39.584"/>
</g>
<g>
	<defs>
		<path id="SVGID_00000087393504448011754620000011449807133892179851_" d="M359.01,214.32c-2.269-0.15-4.158,0.58-5.438,1.999
			c-1.01,1.12-1.519,2.599-1.399,4.068c0.06,3.489,2.839,5.937,7.027,6.077l34.995-0.1v11.485c0,2.759,1.14,4.338,2.099,5.208
			c1.11,0.98,2.589,1.519,4.148,1.519c0.18,0,0.38-0.01,0.56-0.02c3.848-0.05,6.727-3.019,6.727-6.927v-11.275h36.365
			c3.769,0,6.497-2.539,6.497-6.057c0-2.439-1.779-6.088-6.707-6.088L359.01,214.32z"/>
	</defs>
	<clipPath id="SVGID_00000021832687968066818530000014283543032632934566_">
		<use xlink:href="#SVGID_00000087393504448011754620000011449807133892179851_"  overflow="visible"/>
	</clipPath>
	
		<linearGradient id="SVGID_00000112602437180587850800000010334686656710993811_" gradientUnits="userSpaceOnUse" x1="-202.8496" y1="2.5997" x2="-192.8537" y2="2.5997" gradientTransform="matrix(0 22.3033 22.3033 0 343.3407 4570.8701)">
		<stop  offset="0" style="stop-color:#09B8E4"/>
		<stop  offset="0.4866" style="stop-color:#1F9CD3"/>
		<stop  offset="1" style="stop-color:#3A7BBE"/>
	</linearGradient>
	
		<rect x="352.053" y="214.171" clip-path="url(#SVGID_00000021832687968066818530000014283543032632934566_)" fill="url(#SVGID_00000112602437180587850800000010334686656710993811_)" width="98.539" height="30.407"/>
</g>
<g>
	<defs>
		<path id="SVGID_00000160880401875406688570000003236372060415049627_" d="M360.9,238.91v10.855
			c0,5.238,2.309,11.495,13.305,11.495h62.344c4.478,0,6.817-3.059,6.817-6.067c0-3.529-2.909-6.088-6.927-6.088h-58.196
			c-3.808,0-3.808-0.18-3.808-2.539v-7.447c0-3.878-2.999-6.927-6.827-6.927C364.278,232.193,360.9,234.272,360.9,238.91"/>
	</defs>
	<clipPath id="SVGID_00000106856691973880583410000017401342132534630324_">
		<use xlink:href="#SVGID_00000160880401875406688570000003236372060415049627_"  overflow="visible"/>
	</clipPath>
	
		<linearGradient id="SVGID_00000010996191964739822290000008791963889697026235_" gradientUnits="userSpaceOnUse" x1="-202.853" y1="2.6298" x2="-192.8571" y2="2.6298" gradientTransform="matrix(0 22.3061 22.3061 0 343.4713 4571.5068)">
		<stop  offset="0" style="stop-color:#09B8E4"/>
		<stop  offset="0.4866" style="stop-color:#1F9CD3"/>
		<stop  offset="1" style="stop-color:#3A7BBE"/>
	</linearGradient>
	
		<rect x="360.899" y="232.193" clip-path="url(#SVGID_00000106856691973880583410000017401342132534630324_)" fill="url(#SVGID_00000010996191964739822290000008791963889697026235_)" width="82.466" height="29.068"/>
</g>
<g>
	<defs>
		<path id="SVGID_00000031918201220169610450000010832938105443996572_" d="M478.561,170.319c-9.656,0-14.154,3.828-14.154,12.035
			v28.578c0,8.027,4.358,11.925,13.314,11.925h61.804c2.349,0,4.368-0.78,5.718-2.199c1.05-1.109,1.589-2.509,1.529-3.878
			c0-3.568-3.229-6.177-7.687-6.177h-57.116c-4.138,0-4.138-0.31-4.138-3.279v-21.781c0-1.509,0.27-2.269,0.48-2.609
			c0.38-0.17,1.339-0.46,3.658-0.46h56.057c4.148,0,7.147-2.549,7.147-6.077l-0.01-0.22c-0.31-2.699-2.509-5.858-7.767-5.858
			H478.561z"/>
	</defs>
	<clipPath id="SVGID_00000077296361171831413590000000227434097714482331_">
		<use xlink:href="#SVGID_00000031918201220169610450000010832938105443996572_"  overflow="visible"/>
	</clipPath>
	
		<linearGradient id="SVGID_00000141457228835053137190000014527948010759071910_" gradientUnits="userSpaceOnUse" x1="-202.8522" y1="6.8057" x2="-192.8563" y2="6.8057" gradientTransform="matrix(0 22.3057 22.3057 0 353.813 4571.4092)">
		<stop  offset="0" style="stop-color:#09B8E4"/>
		<stop  offset="0.4866" style="stop-color:#1F9CD3"/>
		<stop  offset="1" style="stop-color:#3A7BBE"/>
	</linearGradient>
	
		<rect x="464.407" y="170.319" clip-path="url(#SVGID_00000077296361171831413590000000227434097714482331_)" fill="url(#SVGID_00000141457228835053137190000014527948010759071910_)" width="82.426" height="52.538"/>
</g>
<g>
	<defs>
		<path id="SVGID_00000055685788973651037390000014808033450682484390_" d="M462.287,246.667c-4.828,0-6.647,3.508-6.707,5.937
			c-0.16,1.489,0.28,2.929,1.28,4.078c1.17,1.329,3.009,2.129,4.898,2.129h86.694c3.828,0,5.888-3.059,5.888-5.928
			c0-1.629-0.62-3.169-1.749-4.298c-0.88-0.87-2.469-1.919-5.088-1.919H462.287z"/>
	</defs>
	<clipPath id="SVGID_00000018956257647099556400000002935907079254602377_">
		<use xlink:href="#SVGID_00000055685788973651037390000014808033450682484390_"  overflow="visible"/>
	</clipPath>
	
		<linearGradient id="SVGID_00000075860482939623347340000014160625633583637154_" gradientUnits="userSpaceOnUse" x1="-202.8402" y1="6.7865" x2="-192.8444" y2="6.7865" gradientTransform="matrix(0 22.2961 22.2961 0 353.5662 4569.2881)">
		<stop  offset="0" style="stop-color:#09B8E4"/>
		<stop  offset="0.4866" style="stop-color:#1F9CD3"/>
		<stop  offset="1" style="stop-color:#3A7BBE"/>
	</linearGradient>
	
		<rect x="455.42" y="246.667" clip-path="url(#SVGID_00000018956257647099556400000002935907079254602377_)" fill="url(#SVGID_00000075860482939623347340000014160625633583637154_)" width="98.919" height="12.145"/>
</g>
<g>
	<defs>
		<path id="SVGID_00000107555615328149869200000009032994300422514352_" d="M628.228,112.293l-1.929,0.37l-0.03,109.724
			c-4.388-2.349-9.396-3.658-16.253-3.658c-7.817,0-17.193,0.42-24.62,5.558c-7.437,4.968-12.495,12.945-11.455,21.451
			c0.5,4.138,2.549,7.457,5.858,10.436c3.329,2.989,10.116,5.378,15.564,5.918c9.766,0.979,20.791-2.449,27.868-6.837
			c7.607-4.718,19.082-14.804,19.082-22.271v-80.636l61.165-14.424v69.621c-3.539-2.799-9.406-3.689-16.233-3.149
			c-6.128,0.46-12.825,2.249-18.842,6.337c-7.407,5.018-12.085,12.075-10.955,20.172c0.65,4.518,2.159,7.947,5.867,10.435
			c3.509,2.489,10.056,5.428,15.524,5.428c8.596,0,18.382-2.969,25.809-7.936C712.253,233.852,720,223.647,720,216.2l-0.04-126.237
			L628.228,112.293z"/>
	</defs>
	<clipPath id="SVGID_00000078031667227856935890000017049947754282076834_">
		<use xlink:href="#SVGID_00000107555615328149869200000009032994300422514352_"  overflow="visible"/>
	</clipPath>
	
		<linearGradient id="SVGID_00000158031240703638609240000014383223889691832218_" gradientUnits="userSpaceOnUse" x1="-196.676" y1="21.7351" x2="-186.6801" y2="21.7351" gradientTransform="matrix(0 17.2369 17.2369 0 271.8057 3443.8315)">
		<stop  offset="0" style="stop-color:#0BB8E3"/>
		<stop  offset="1" style="stop-color:#3A7ABE"/>
	</linearGradient>
	
		<rect x="572.901" y="89.963" clip-path="url(#SVGID_00000078031667227856935890000017049947754282076834_)" fill="url(#SVGID_00000158031240703638609240000014383223889691832218_)" width="147.099" height="173.108"/>
</g>
<g>
	<defs>
		<path id="SVGID_00000112620633585067083430000004056736987278359702_" d="M680.916,0c-11.325,0-19.672,6.317-25.05,12.525
			c-5.428,6.197-8.566,12.935-9.566,14.734c-0.75,1.369-1.109,1.849-1.519,2.449c-0.38,0.52-1.269,1.889-1.639,3.349v0.04
			c-2.239,1.669-4.778,3.958-7.837,6.777c-4.058,3.788-8.786,8.436-13.524,13.264c-9.496,9.636-19.092,19.872-23.6,24.89
			c-1.329,1.469-2.109,2.339-2.739,3.158c-0.76,1.05-3.548,4.318-6.407,7.607c-2.889,3.338-5.938,6.847-7.757,9.056
			c-1.539,1.929-2.709,4.018-2.739,6.807c-0.05,1.849,0.76,4.078,2.369,5.498c1.579,1.429,3.509,1.939,5.138,1.939h0.05
			c2.159-0.01,4.018-0.73,5.688-1.829c2.899-1.949,5.238-3.989,7.427-5.348c2.209-1.36,4.028-2.089,6.357-2.139
			c1.879,0.05,4.178,0.1,6.767,0.1c4.718,0,10.406-0.14,16.433-0.52c-0.04,0.29-0.05,0.6-0.05,0.91
			c-0.02,2.659,1.469,4.888,2.959,6.038c1.539,1.189,3.119,1.799,5.128,1.829h0.38l8.527-1.149c0.17-0.02,0.32-0.05,0.46-0.06
			c0.45,0.23,1.17,0.58,2.099,1.01l0.31,0.15l0.3,0.09c0.35,0.11,1.13,0.37,2.479,0.38c1.629,0.15,5.068-0.91,6.597-3.769
			c0.76-1.239,1.09-2.739,1.08-3.938c0-1.529-0.42-2.719-0.85-3.588c-0.48-0.87-0.74-1.329-1.539-2.119
			c3.848-1.09,7.447-2.449,10.626-4.208c9.696-5.428,15.743-13.864,19.492-21.371c2.979-6.077,4.518-11.425,5.178-15.044
			c3.538-3.519,5.138-7.967,6.317-11.835c0.63-2.209,1.1-4.388,1.409-6.118c2.499-0.879,4.668-2.339,6.117-4.398
			c2.149-3.079,2.469-6.077,2.809-8.647l0.02,0.01c0.08-0.56,0.09-1.03,0.09-1.4c0-2.379-0.78-4.908-2.629-7.057
			c-0.84-1.019-1.929-1.879-3.169-2.549c-0.78-3.758-2.979-7.167-6.048-9.676c-3.908-3.239-9.176-5.248-15.444-5.818L681.176,0
			H680.916z"/>
	</defs>
	<clipPath id="SVGID_00000021825547913767725320000013927649537841344445_">
		<use xlink:href="#SVGID_00000112620633585067083430000004056736987278359702_"  overflow="visible"/>
	</clipPath>
	
		<linearGradient id="SVGID_00000048468557047459747900000009413150672836464558_" gradientUnits="userSpaceOnUse" x1="-196.6693" y1="21.5981" x2="-186.6734" y2="21.5981" gradientTransform="matrix(0 17.2328 17.2328 0 271.4008 3442.9255)">
		<stop  offset="0" style="stop-color:#0BB8E3"/>
		<stop  offset="1" style="stop-color:#3A7ABE"/>
	</linearGradient>
	
		<rect x="578.489" clip-path="url(#SVGID_00000021825547913767725320000013927649537841344445_)" fill="url(#SVGID_00000048468557047459747900000009413150672836464558_)" width="130.216" height="112.093"/>
</g>
<path fill-rule="evenodd" clip-rule="evenodd" fill="#F5FAFD" d="M588.681,105.58c4.938-3.289,9.566-8.386,16.963-8.417
	c6.957,0.2,19.832,0.18,32.407-1.269v4.868l-1.229,0.15c-1.269,0.2-2.469,0.93-2.469,2.349c0,1.409,1.409,2.259,2.469,2.259
	l8.147-1.109c2.819-0.37,2.019-0.25,5.658,1.429c0,0,1.659,0.57,2.489-0.9c0.76-1.3-0.11-2.539-0.35-2.749
	c-4.558-2.789-5.068-2.639-7.727-2.309l-3.569,0.45v-4.878c8.876-1.22,17.323-3.209,23.07-6.427
	c16.703-9.326,21.781-29.808,22.151-34.366c6.257-4.448,8.217-19.842,8.716-26.369c0.25-1.829,2.729-2.009,2.869,0.04
	c-0.12,1.489-0.45,3.858-0.78,6.017c4.318-1.329,5.058-4.458,5.568-8.636c0.27-2.339-1.13-5.528-5.518-6.077
	c0.73-6.497-5.318-12.995-16.633-14.014c-18.212,0-27.408,20.152-29.678,24.33c-0.29,0.53-0.54,0.98-0.78,1.37
	c8.706-0.64,15.234,3.848,17.213,11.305c3.568,0.81,10.156,3.698,13.224,8.736c2.289,4.308-3.509,6.647-5.398,3.759
	c-2.339-3.568-9.216-6.587-12.285-6.997c-3.069-10.096-10.126-11.565-16.893-10.396c-9.246,7.097-33.056,32.107-42.512,42.472
	c9.116,1.53,19.172,1.599,25.829,0.75c18.452-2.339,27.439-8.896,31.087-20.971c0.43-1.409,2.349-2.999,4.598-2.339
	c1.989,0.59,2.299,2.769,1.959,4.488c-2.819,14.044-17.483,24.35-37.764,25.649c-9.006,0.58-18.822,1.1-30.807-1.669
	c-3.209,3.888-10.126,11.705-13.064,15.304C582.223,105.58,585.262,107.859,588.681,105.58 M684.461,24.994
	c-2.549,0-4.608-2.059-4.608-4.608c0-2.559,2.059-4.618,4.608-4.618c2.549,0,4.618,2.059,4.618,4.618
	C689.079,22.934,687.01,24.994,684.461,24.994"/>
<g>
</g>
<g>
</g>
<g>
</g>
<g>
</g>
<g>
</g>
<g>
</g>
<g>
</g>
<g>
</g>
<g>
</g>
<g>
</g>
<g>
</g>
<g>
</g>
<g>
</g>
<g>
</g>
<g>
</g>
</svg>
