<?xml version="1.0" encoding="utf-8"?>
<!-- Generator: Adobe Illustrator 27.2.0, SVG Export Plug-In . SVG Version: 6.00 Build 0)  -->
<svg version="1.1" id="레이어_1" xmlns="http://www.w3.org/2000/svg" xmlns:xlink="http://www.w3.org/1999/xlink" x="0px"
	 y="0px" viewBox="0 0 720 171.495" enable-background="new 0 0 720 171.495" xml:space="preserve">
<path fill="#FEF6EB" d="M655.599,119.604c0,17.12-13.885,31.004-31.013,31.004c-17.12,0-31.004-13.885-31.004-31.004
	c0-17.119,13.885-31.004,31.004-31.004C641.714,88.6,655.599,102.485,655.599,119.604"/>
<g>
	<defs>
		<path id="SVGID_1_" d="M597.273,119.501c0-15.37,12.444-27.796,27.805-27.796c15.325,0,27.805,12.426,27.805,27.796
			c0,15.343-12.479,27.796-27.805,27.796C609.718,147.296,597.273,134.844,597.273,119.501 M609.284,55.636
			c-0.194,0-0.46,0.133-0.575,0.283l-14.945,18.772c-0.124,0.159-0.389,0.274-0.583,0.274h-27.54c-0.177,0-0.504,0.071-0.672,0.15
			l-6.098,6.116c-0.08,0.203-0.15,0.495-0.15,0.698v75.186c0,0.212,0.071,0.521,0.15,0.698l6.098,6.116
			c0.168,0.088,0.495,0.15,0.672,0.15h118.82c0.186,0,0.486-0.062,0.68-0.15l6.125-6.116c0.08-0.177,0.141-0.486,0.141-0.698V81.93
			c0-0.203-0.062-0.495-0.141-0.698l-6.125-6.116c-0.194-0.08-0.495-0.15-0.68-0.15L656.931,75c-0.186,0-0.451-0.124-0.575-0.283
			l-14.928-18.799c-0.115-0.15-0.38-0.283-0.566-0.283H609.284z"/>
	</defs>
	<clipPath id="SVGID_00000046332688485383444740000015593040083006905227_">
		<use xlink:href="#SVGID_1_"  overflow="visible"/>
	</clipPath>
	
		<linearGradient id="SVGID_00000160871480025296830810000004972285984383613854_" gradientUnits="userSpaceOnUse" x1="197.3435" y1="270.8008" x2="206.1816" y2="270.8008" gradientTransform="matrix(0 14.0601 14.0601 0 -3182.4226 -2741.4492)">
		<stop  offset="0" style="stop-color:#F8BB00"/>
		<stop  offset="1" style="stop-color:#ED8100"/>
	</linearGradient>
	
		<rect x="558.721" y="55.636" clip-path="url(#SVGID_00000046332688485383444740000015593040083006905227_)" fill="url(#SVGID_00000160871480025296830810000004972285984383613854_)" width="132.687" height="108.444"/>
</g>
<g>
	<defs>
		<path id="SVGID_00000060737652504453296830000017325824652210562963_" d="M648.331,0l-0.186,0.009
			c-4.357,0.398-8.043,1.803-10.774,4.065c-2.148,1.759-3.668,4.136-4.216,6.744c-0.875,0.477-1.617,1.078-2.227,1.785
			c-1.273,1.503-1.821,3.288-1.821,4.932c0,0.265,0.009,0.592,0.071,0.972c0.239,1.794,0.468,3.889,1.962,6.037
			c1.008,1.441,2.519,2.457,4.26,3.076c0.221,1.211,0.548,2.722,0.99,4.269c0.831,2.696,1.936,5.807,4.41,8.281
			c0.468,2.51,1.538,6.231,3.624,10.491c2.616,5.241,6.841,11.136,13.611,14.928c2.227,1.229,4.728,2.165,7.415,2.925
			c-0.557,0.548-0.734,0.875-1.061,1.476c-0.318,0.618-0.601,1.441-0.61,2.519c0,0.831,0.239,1.883,0.76,2.749
			c1.069,1.989,3.456,2.722,4.605,2.634c0.928-0.009,1.494-0.186,1.732-0.274l0.212-0.062l0.212-0.097
			c0.654-0.301,1.158-0.548,1.467-0.707c0.088,0.009,0.203,0.026,0.327,0.044l5.948,0.795h0.265
			c1.396-0.018,2.492-0.442,3.571-1.273c1.06-0.804,2.086-2.368,2.068-4.225c0-0.221,0-0.433-0.027-0.627
			c4.207,0.265,8.184,0.362,11.481,0.362c1.803,0,3.412-0.026,4.72-0.071c1.617,0.027,2.899,0.548,4.437,1.494
			c1.538,0.955,3.164,2.369,5.188,3.739c1.158,0.76,2.466,1.264,3.968,1.281h0.035c1.14,0,2.492-0.362,3.597-1.361
			c1.052-0.946,1.626-2.395,1.653-3.659v-0.186c-0.035-1.944-0.857-3.394-1.927-4.737c-1.264-1.547-3.394-4.004-5.4-6.337
			c-1.997-2.289-3.951-4.569-4.49-5.312c-0.424-0.575-0.981-1.175-1.909-2.201c-3.138-3.509-9.846-10.65-16.483-17.376
			c-3.306-3.376-6.602-6.629-9.439-9.271c-2.13-1.98-3.906-3.571-5.462-4.728c-0.009-0.018-0.009-0.018-0.009-0.035
			c-0.247-1.016-0.884-1.971-1.149-2.333c-0.283-0.416-0.53-0.76-1.052-1.715c-0.698-1.246-2.899-5.966-6.673-10.288
			C662.243,4.401,656.418,0,648.508,0H648.331z"/>
	</defs>
	<clipPath id="SVGID_00000148629045376330471770000008200703176110112406_">
		<use xlink:href="#SVGID_00000060737652504453296830000017325824652210562963_"  overflow="visible"/>
	</clipPath>
	
		<linearGradient id="SVGID_00000118392698102841823560000005459391035404112552_" gradientUnits="userSpaceOnUse" x1="197.3448" y1="273.9238" x2="206.1829" y2="273.9238" gradientTransform="matrix(0 14.0592 14.0592 0 -3176.6091 -2741.2913)">
		<stop  offset="0" style="stop-color:#F8BB00"/>
		<stop  offset="1" style="stop-color:#ED8100"/>
	</linearGradient>
	
		<rect x="629.108" clip-path="url(#SVGID_00000148629045376330471770000008200703176110112406_)" fill="url(#SVGID_00000118392698102841823560000005459391035404112552_)" width="90.892" height="78.271"/>
</g>
<path fill-rule="evenodd" clip-rule="evenodd" fill="#FEF6EB" d="M715.029,70.803c-2.05-2.51-6.876-7.972-9.121-10.677
	c-8.361,1.909-15.219,1.556-21.512,1.149c-14.168-0.901-24.402-8.096-26.364-17.906c-0.239-1.193-0.035-2.722,1.37-3.137
	c1.573-0.451,2.908,0.663,3.208,1.635c2.554,8.44,8.82,13.019,21.707,14.636c4.649,0.601,11.675,0.557,18.039-0.513
	c-6.602-7.247-23.227-24.702-29.687-29.652c-4.728-0.822-9.66,0.203-11.799,7.256c-2.148,0.283-6.938,2.386-8.573,4.888
	c-1.326,2.015-5.365,0.38-3.774-2.634c2.139-3.5,6.735-5.524,9.236-6.098c1.379-5.206,5.939-8.326,12.02-7.901
	c-0.159-0.265-0.345-0.575-0.557-0.946c-1.582-2.916-7.99-16.987-20.726-16.987c-7.884,0.725-12.099,5.259-11.604,9.793
	c-3.049,0.38-4.039,2.607-3.836,4.234c0.336,2.916,0.857,5.108,3.871,6.036c-0.23-1.511-0.451-3.164-0.539-4.207
	c0.097-1.432,1.83-1.299,2.006-0.027c0.345,4.561,1.714,15.308,6.072,18.419c0.274,3.173,3.818,17.473,15.476,23.996
	c4.021,2.236,9.916,3.615,16.112,4.49v3.403l-2.492-0.309c-1.856-0.221-2.218-0.345-5.4,1.6c-0.159,0.15-0.769,1.016-0.247,1.927
	c0.592,1.016,1.75,0.618,1.75,0.618c2.537-1.158,1.98-1.246,3.942-0.981l5.701,0.76c0.734,0,1.723-0.583,1.723-1.573
	s-0.848-1.502-1.723-1.635l-0.875-0.115v-3.403c8.785,1.016,17.782,1.034,22.634,0.901c5.17,0.009,8.405,3.571,11.852,5.869
	C715.294,75.302,717.416,73.711,715.029,70.803 M642.813,14.221c0-1.785,1.432-3.226,3.217-3.226c1.776,0,3.217,1.441,3.217,3.226
	c0,1.786-1.441,3.226-3.217,3.226C644.245,17.448,642.813,16.007,642.813,14.221"/>
<g>
	<defs>
		<path id="SVGID_00000036947433024805066720000015726747851599483052_" d="M349.16,159.334c1.741,3.341,3.182,7.203,4.331,11.543
			l8.255-3.632c-1.379-4.074-3.129-7.822-5.232-11.198L349.16,159.334z"/>
	</defs>
	<clipPath id="SVGID_00000092454166926624602790000009365169207494070158_">
		<use xlink:href="#SVGID_00000036947433024805066720000015726747851599483052_"  overflow="visible"/>
	</clipPath>
	
		<linearGradient id="SVGID_00000071529647023552098110000009139718099923844240_" gradientUnits="userSpaceOnUse" x1="194.7252" y1="253.3492" x2="203.5633" y2="253.3492" gradientTransform="matrix(0 16.3149 16.3149 0 -3777.9204 -3157.3828)">
		<stop  offset="0" style="stop-color:#F8BB00"/>
		<stop  offset="1" style="stop-color:#ED8100"/>
	</linearGradient>
	
		<rect x="349.16" y="156.046" clip-path="url(#SVGID_00000092454166926624602790000009365169207494070158_)" fill="url(#SVGID_00000071529647023552098110000009139718099923844240_)" width="12.585" height="14.83"/>
</g>
<g>
	<defs>
		<path id="SVGID_00000029747584214353600400000006547731262682379658_" d="M365.661,159.06c1.874,3.447,3.412,7.371,4.605,11.816
			l8.308-3.632c-1.503-4.172-3.367-7.999-5.559-11.481L365.661,159.06z"/>
	</defs>
	<clipPath id="SVGID_00000075139430205003601620000015774806705771464833_">
		<use xlink:href="#SVGID_00000029747584214353600400000006547731262682379658_"  overflow="visible"/>
	</clipPath>
	
		<linearGradient id="SVGID_00000001623922809381904650000016528896721978947996_" gradientUnits="userSpaceOnUse" x1="194.7188" y1="254.2538" x2="203.557" y2="254.2538" gradientTransform="matrix(0 16.3202 16.3202 0 -3777.3616 -3158.3618)">
		<stop  offset="0" style="stop-color:#F8BB00"/>
		<stop  offset="1" style="stop-color:#ED8100"/>
	</linearGradient>
	
		<rect x="365.661" y="155.764" clip-path="url(#SVGID_00000075139430205003601620000015774806705771464833_)" fill="url(#SVGID_00000001623922809381904650000016528896721978947996_)" width="12.913" height="15.113"/>
</g>
<g>
	<defs>
		<path id="SVGID_00000025418762483707086290000008167946828320160657_" d="M341.948,133.765h7.689v10.456h-7.689V133.765z
			 M341.948,116.443h7.689v10.173h-7.689V116.443z M334.586,109.284v44.544h7.362v-2.466h15.193v-42.079H334.586z"/>
	</defs>
	<clipPath id="SVGID_00000088811744559249368610000017374058843388386691_">
		<use xlink:href="#SVGID_00000025418762483707086290000008167946828320160657_"  overflow="visible"/>
	</clipPath>
	
		<linearGradient id="SVGID_00000074415752757315260740000000828907107819894710_" gradientUnits="userSpaceOnUse" x1="194.7112" y1="252.8263" x2="203.5494" y2="252.8263" gradientTransform="matrix(0 16.3268 16.3268 0 -3781.9766 -3159.5742)">
		<stop  offset="0" style="stop-color:#F8BB00"/>
		<stop  offset="1" style="stop-color:#ED8100"/>
	</linearGradient>
	
		<rect x="334.586" y="109.284" clip-path="url(#SVGID_00000088811744559249368610000017374058843388386691_)" fill="url(#SVGID_00000074415752757315260740000000828907107819894710_)" width="22.555" height="44.544"/>
</g>
<g>
	<defs>
		<path id="SVGID_00000010291966813291564350000003545071151354287019_" d="M381.605,158.777c2.157,3.898,3.898,8.025,5.223,12.391
			l8.803-4.207c-1.653-4.393-3.659-8.432-6.045-12.099L381.605,158.777z"/>
	</defs>
	<clipPath id="SVGID_00000122685090227498499530000016254372166089204865_">
		<use xlink:href="#SVGID_00000010291966813291564350000003545071151354287019_"  overflow="visible"/>
	</clipPath>
	
		<linearGradient id="SVGID_00000040568935587197164360000005209684797741351067_" gradientUnits="userSpaceOnUse" x1="194.7054" y1="255.1473" x2="203.5436" y2="255.1473" gradientTransform="matrix(0 16.3318 16.3318 0 -3778.4009 -3160.5046)">
		<stop  offset="0" style="stop-color:#F8BB00"/>
		<stop  offset="1" style="stop-color:#ED8100"/>
	</linearGradient>
	
		<rect x="381.605" y="154.862" clip-path="url(#SVGID_00000122685090227498499530000016254372166089204865_)" fill="url(#SVGID_00000040568935587197164360000005209684797741351067_)" width="14.026" height="16.306"/>
</g>
<g>
	<defs>
		<path id="SVGID_00000129913883317882245730000009718977385854910884_" d="M332.323,166.961l7.76,4.207
			c1.609-3.35,3.049-7.486,4.331-12.391l-7.901-2.731C335.514,159.608,334.1,163.258,332.323,166.961"/>
	</defs>
	<clipPath id="SVGID_00000138546891478620827110000013497786184901370008_">
		<use xlink:href="#SVGID_00000129913883317882245730000009718977385854910884_"  overflow="visible"/>
	</clipPath>
	
		<linearGradient id="SVGID_00000147935118736395541170000011767479359184682885_" gradientUnits="userSpaceOnUse" x1="194.7192" y1="252.4199" x2="203.5574" y2="252.4199" gradientTransform="matrix(0 16.3202 16.3202 0 -3781.1804 -3158.3608)">
		<stop  offset="0" style="stop-color:#F8BB00"/>
		<stop  offset="1" style="stop-color:#ED8100"/>
	</linearGradient>
	
		<rect x="332.323" y="156.047" clip-path="url(#SVGID_00000138546891478620827110000013497786184901370008_)" fill="url(#SVGID_00000147935118736395541170000011767479359184682885_)" width="12.091" height="15.122"/>
</g>
<g>
	<defs>
		<path id="SVGID_00000145770698629120640170000009900386248983718025_" d="M367.791,140.023h17.058v6.319h-17.058V140.023z
			 M360.163,153.828h32.445v-21.167h-32.445V153.828z"/>
	</defs>
	<clipPath id="SVGID_00000103980223933993175820000006672749048778467242_">
		<use xlink:href="#SVGID_00000145770698629120640170000009900386248983718025_"  overflow="visible"/>
	</clipPath>
	
		<linearGradient id="SVGID_00000010991919443133896070000015998022271033217977_" gradientUnits="userSpaceOnUse" x1="194.7149" y1="254.485" x2="203.5531" y2="254.485" gradientTransform="matrix(0 16.3236 16.3236 0 -3777.7314 -3158.9905)">
		<stop  offset="0" style="stop-color:#F8BB00"/>
		<stop  offset="1" style="stop-color:#ED8100"/>
	</linearGradient>
	
		<rect x="360.163" y="132.661" clip-path="url(#SVGID_00000103980223933993175820000006672749048778467242_)" fill="url(#SVGID_00000010991919443133896070000015998022271033217977_)" width="32.445" height="21.167"/>
</g>
<g>
	<defs>
		<path id="SVGID_00000147187836790046032400000008847785134625666203_" d="M360.163,109.567v7.353h7.283
			c-0.362,2.236-1.131,3.845-2.271,4.799c-1.6,1.387-3.942,2.536-7.009,3.456l4.472,6.867c4.074-1.467,7.194-3.253,9.342-5.356
			c1.883-1.75,3.005-4.985,3.376-9.766h10.588c-0.186,3.951-0.504,6.213-0.963,6.805c-0.318,0.451-0.893,0.689-1.723,0.689
			c-2.104,0-4.605-0.398-7.495-1.175l1.715,7.698c2.528,0.557,4.72,0.831,6.611,0.831c3.438,0,5.824-0.707,7.212-2.139
			c1.741-1.22,2.616-7.919,2.616-20.063H360.163z"/>
	</defs>
	<clipPath id="SVGID_00000064343638012877146520000001055160412982839700_">
		<use xlink:href="#SVGID_00000147187836790046032400000008847785134625666203_"  overflow="visible"/>
	</clipPath>
	
		<linearGradient id="SVGID_00000127725071612011226230000006851004968380111253_" gradientUnits="userSpaceOnUse" x1="194.7117" y1="254.4655" x2="203.5498" y2="254.4655" gradientTransform="matrix(0 16.3267 16.3267 0 -3778.5388 -3159.5566)">
		<stop  offset="0" style="stop-color:#F8BB00"/>
		<stop  offset="1" style="stop-color:#ED8100"/>
	</linearGradient>
	
		<rect x="358.166" y="109.567" clip-path="url(#SVGID_00000064343638012877146520000001055160412982839700_)" fill="url(#SVGID_00000127725071612011226230000006851004968380111253_)" width="35.75" height="22.475"/>
</g>
<g>
	<defs>
		<path id="SVGID_00000147216203360505453950000002112174947194699694_" d="M415.473,107.843v11.074h-8.529v7.698h8.043
			c-0.734,3.809-1.83,7.566-3.288,11.277c-2.121,5.268-4.437,9.74-6.956,13.39l5.78,5.303c1.971-3.208,3.615-6.505,4.949-9.899
			v24.756h7.91v-29.563c1.688,2.103,3.359,4.41,5.02,6.938l4.94-7.079c-2.846-3.305-6.16-6.646-9.961-10.031v-5.091h7.972v-7.698
			h-7.972v-11.074H415.473z"/>
	</defs>
	<clipPath id="SVGID_00000111172906526474586480000000236945822980313489_">
		<use xlink:href="#SVGID_00000147216203360505453950000002112174947194699694_"  overflow="visible"/>
	</clipPath>
	
		<linearGradient id="SVGID_00000144314762441218306910000016602664137644052878_" gradientUnits="userSpaceOnUse" x1="194.7101" y1="256.8009" x2="203.5483" y2="256.8009" gradientTransform="matrix(0 16.3278 16.3278 0 -3773.9521 -3159.7629)">
		<stop  offset="0" style="stop-color:#F8BB00"/>
		<stop  offset="1" style="stop-color:#ED8100"/>
	</linearGradient>
	
		<rect x="404.743" y="107.843" clip-path="url(#SVGID_00000111172906526474586480000000236945822980313489_)" fill="url(#SVGID_00000144314762441218306910000016602664137644052878_)" width="28.6" height="63.599"/>
</g>
<g>
	<defs>
		<path id="SVGID_00000044857963242900226450000007816167307799410872_" d="M441.863,150.461h17.606v8.873h-17.606V150.461z
			 M441.863,134.313h17.606v9.015h-17.606V134.313z M441.863,118.917h17.606v8.237h-17.606V118.917z M433.9,111.423v60.073h7.963
			v-5.02h17.606v5.02h7.91v-60.073H433.9z"/>
	</defs>
	<clipPath id="SVGID_00000155851158265009948980000011034108609374795943_">
		<use xlink:href="#SVGID_00000044857963242900226450000007816167307799410872_"  overflow="visible"/>
	</clipPath>
	
		<linearGradient id="SVGID_00000098935019606509173960000005353044805936781709_" gradientUnits="userSpaceOnUse" x1="194.7132" y1="258.5185" x2="203.5513" y2="258.5185" gradientTransform="matrix(0 16.3251 16.3251 0 -3769.6934 -3159.2585)">
		<stop  offset="0" style="stop-color:#F8BB00"/>
		<stop  offset="1" style="stop-color:#ED8100"/>
	</linearGradient>
	
		<rect x="433.9" y="111.423" clip-path="url(#SVGID_00000155851158265009948980000011034108609374795943_)" fill="url(#SVGID_00000098935019606509173960000005353044805936781709_)" width="33.479" height="60.073"/>
</g>
<g>
	<defs>
		<path id="SVGID_00000175318349716825419780000005188162114374339510_" d="M516.855,154.659h15.732v6.814h-15.732V154.659z
			 M516.855,131.839h12.992v5.153h-12.992V131.839z M513.55,120.561h20.071v4.119H513.55V120.561z M491.278,120.146
			c0.769-0.91,1.529-1.856,2.263-2.81c1.511,1.105,3.023,2.271,4.543,3.5h-7.495C490.853,120.65,491.092,120.429,491.278,120.146
			 M485.497,115.002c-3.076,3.014-5.975,5.497-8.723,7.415l4.87,6.328c1.423-0.91,3.076-2.218,4.958-3.915v2.324h14.574v-3.562
			c0.963,0.822,1.874,1.706,2.749,2.678l1.989-2.13v1.847h3.571v45.454h7.371v-2.828h15.732v2.828h7.362V147.5h-23.094v-3.359
			h20.337v-18.18h4.198v-12.824h-13.54v-5.294h-8.246v5.294h-13.69v4.534c-2.66-2.236-5.453-4.331-8.387-6.249
			c0.23-0.327,0.442-0.698,0.628-1.105l-6.266-3.509C490.296,109.469,488.149,112.2,485.497,115.002"/>
	</defs>
	<clipPath id="SVGID_00000119119154923889940360000002442941846260432007_">
		<use xlink:href="#SVGID_00000175318349716825419780000005188162114374339510_"  overflow="visible"/>
	</clipPath>
	
		<linearGradient id="SVGID_00000159460527494091301730000011521913586938114181_" gradientUnits="userSpaceOnUse" x1="194.7099" y1="261.6912" x2="203.548" y2="261.6912" gradientTransform="matrix(0 16.3281 16.3281 0 -3763.8489 -3159.8247)">
		<stop  offset="0" style="stop-color:#F8BB00"/>
		<stop  offset="1" style="stop-color:#ED8100"/>
	</linearGradient>
	
		<rect x="476.774" y="106.809" clip-path="url(#SVGID_00000119119154923889940360000002442941846260432007_)" fill="url(#SVGID_00000159460527494091301730000011521913586938114181_)" width="64.616" height="64.634"/>
</g>
<g>
	<defs>
		<path id="SVGID_00000088126432301973950240000007536719366014997160_" d="M489.139,153.828h10.173l-5.223,3.305
			c0.742,1.061,1.441,2.165,2.13,3.297c-2.192,0.477-4.56,0.946-7.079,1.458V153.828z M489.139,144.76h8.794v2.475h-8.794V144.76z
			 M489.139,135.957h8.794v2.475h-8.794V135.957z M481.379,129.364v33.691c-0.786,0.124-1.617,0.247-2.475,0.327l1.441,8.06
			c7.009-1.193,13.496-2.66,19.444-4.401c0.46,1.149,0.928,2.342,1.388,3.579l7.212-4.198c-1.83-4.357-4.216-8.555-7.141-12.594
			h4.393v-24.464H481.379z"/>
	</defs>
	<clipPath id="SVGID_00000064324566848318916100000013068431045533929862_">
		<use xlink:href="#SVGID_00000088126432301973950240000007536719366014997160_"  overflow="visible"/>
	</clipPath>
	
		<linearGradient id="SVGID_00000008146468869872926600000005910798999412014988_" gradientUnits="userSpaceOnUse" x1="194.712" y1="260.854" x2="203.5501" y2="260.854" gradientTransform="matrix(0 16.3263 16.3263 0 -3765.1255 -3159.478)">
		<stop  offset="0" style="stop-color:#F8BB00"/>
		<stop  offset="1" style="stop-color:#ED8100"/>
	</linearGradient>
	
		<rect x="478.904" y="129.364" clip-path="url(#SVGID_00000064324566848318916100000013068431045533929862_)" fill="url(#SVGID_00000008146468869872926600000005910798999412014988_)" width="29.484" height="42.078"/>
</g>
<g>
	<defs>
		<rect id="SVGID_00000012466881470232089190000004194129846221552558_" x="57.006" y="21.768" width="10.526" height="11.719"/>
	</defs>
	<clipPath id="SVGID_00000130611906262234187140000002729497651218482357_">
		<use xlink:href="#SVGID_00000012466881470232089190000004194129846221552558_"  overflow="visible"/>
	</clipPath>
	
		<linearGradient id="SVGID_00000008118940774197629760000006994284982756504982_" gradientUnits="userSpaceOnUse" x1="194.7133" y1="237.4198" x2="203.5514" y2="237.4198" gradientTransform="matrix(0 16.3243 16.3243 0 -3813.4448 -3159.1191)">
		<stop  offset="0" style="stop-color:#F8BB00"/>
		<stop  offset="1" style="stop-color:#ED8100"/>
	</linearGradient>
	
		<rect x="57.006" y="21.769" clip-path="url(#SVGID_00000130611906262234187140000002729497651218482357_)" fill="url(#SVGID_00000008118940774197629760000006994284982756504982_)" width="10.526" height="11.719"/>
</g>
<g>
	<defs>
		<path id="SVGID_00000023996109759626533920000008493944079891087544_" d="M38.234,21.777v38.835c0,1.025,0.027,2.21,0.08,3.517
			c0.053,1.326,0.124,2.616,0.203,3.916c0.071,1.122,0.133,2.183,0.212,3.199c-0.221-0.539-0.451-1.078-0.698-1.653
			c-0.407-0.946-0.813-1.874-1.255-2.793c-0.433-0.901-0.866-1.75-1.308-2.536L12.356,21.777H0v63.971h9.943V47.646
			c0-2.775-0.071-5.524-0.203-8.158c-0.044-1.14-0.115-2.192-0.159-3.182c0.212,0.592,0.442,1.193,0.672,1.803
			c0.389,0.981,0.76,1.9,1.14,2.802c0.389,0.919,0.707,1.609,0.99,2.095l23.191,42.741h12.612V21.777H38.234z"/>
	</defs>
	<clipPath id="SVGID_00000089542964735888061320000003507795877017939108_">
		<use xlink:href="#SVGID_00000023996109759626533920000008493944079891087544_"  overflow="visible"/>
	</clipPath>
	
		<linearGradient id="SVGID_00000163765295250837786980000008199373505128497589_" gradientUnits="userSpaceOnUse" x1="194.7124" y1="235.3469" x2="203.5506" y2="235.3469" gradientTransform="matrix(0 16.3256 16.3256 0 -3818.0852 -3159.3547)">
		<stop  offset="0" style="stop-color:#F8BB00"/>
		<stop  offset="1" style="stop-color:#ED8100"/>
	</linearGradient>
	
		<rect y="21.777" clip-path="url(#SVGID_00000089542964735888061320000003507795877017939108_)" fill="url(#SVGID_00000163765295250837786980000008199373505128497589_)" width="48.186" height="63.971"/>
</g>
<g>
	<defs>
		<rect id="SVGID_00000110450693580900471520000002096304466971918263_" x="57.174" y="40.046" width="10.111" height="45.702"/>
	</defs>
	<clipPath id="SVGID_00000107564598297168173540000012232262935682128284_">
		<use xlink:href="#SVGID_00000110450693580900471520000002096304466971918263_"  overflow="visible"/>
	</clipPath>
	
		<linearGradient id="SVGID_00000092421537719873930140000003496632881009663382_" gradientUnits="userSpaceOnUse" x1="194.7115" y1="237.4197" x2="203.5497" y2="237.4197" gradientTransform="matrix(0 16.3269 16.3269 0 -3814.0916 -3159.5903)">
		<stop  offset="0" style="stop-color:#F8BB00"/>
		<stop  offset="1" style="stop-color:#ED8100"/>
	</linearGradient>
	
		<rect x="57.174" y="40.046" clip-path="url(#SVGID_00000107564598297168173540000012232262935682128284_)" fill="url(#SVGID_00000092421537719873930140000003496632881009663382_)" width="10.111" height="45.702"/>
</g>
<g>
	<defs>
		<path id="SVGID_00000141434365562328557230000012233330735127218109_" d="M89.751,41.168c-1.909,1.008-3.447,2.218-4.569,3.633
			v-4.755h-9.218v45.702h9.943V55.221c0.875-2.545,2.333-4.481,4.357-5.754c2.068-1.29,4.384-1.962,6.885-1.962
			c2.634,0,4.835,0.769,6.54,2.298c1.688,1.52,2.545,3.739,2.545,6.611v29.334h9.952V55.044c0-2.316-0.415-4.49-1.22-6.461
			c-0.813-1.971-1.962-3.677-3.447-5.065c-1.458-1.396-3.244-2.483-5.303-3.27c-2.05-0.778-4.331-1.158-6.797-1.158
			C95.629,39.091,92.376,39.781,89.751,41.168"/>
	</defs>
	<clipPath id="SVGID_00000102539335157068494110000005303049517717149607_">
		<use xlink:href="#SVGID_00000141434365562328557230000012233330735127218109_"  overflow="visible"/>
	</clipPath>
	
		<linearGradient id="SVGID_00000128476159049275414280000006038490884424434350_" gradientUnits="userSpaceOnUse" x1="194.7142" y1="239.2558" x2="203.5523" y2="239.2558" gradientTransform="matrix(0 16.3235 16.3235 0 -3809.4285 -3158.978)">
		<stop  offset="0" style="stop-color:#F8BB00"/>
		<stop  offset="1" style="stop-color:#ED8100"/>
	</linearGradient>
	
		<rect x="75.964" y="39.091" clip-path="url(#SVGID_00000102539335157068494110000005303049517717149607_)" fill="url(#SVGID_00000128476159049275414280000006038490884424434350_)" width="40.222" height="46.657"/>
</g>
<g>
	<defs>
		<path id="SVGID_00000093149695256115324260000015128032914596262071_" d="M130.151,26.046v14h-6.593v8.184h6.275V73.48
			c0,2.536,0.309,4.666,0.928,6.363c0.628,1.75,1.679,3.146,3.146,4.189c1.432,0.999,3.297,1.715,5.55,2.104
			c2.201,0.389,4.967,0.575,8.193,0.575h0.451l2.148-8.67h-0.751c-2.236,0-4.039-0.044-5.347-0.15
			c-1.237-0.097-2.183-0.345-2.828-0.76c-0.61-0.371-0.99-0.928-1.193-1.715c-0.23-0.849-0.345-2.042-0.345-3.544V48.23h7.892
			v-8.184h-7.892v-14H130.151z"/>
	</defs>
	<clipPath id="SVGID_00000147218738297777917350000012340013446308737450_">
		<use xlink:href="#SVGID_00000093149695256115324260000015128032914596262071_"  overflow="visible"/>
	</clipPath>
	
		<linearGradient id="SVGID_00000029738406903595293810000015252463289253317048_" gradientUnits="userSpaceOnUse" x1="194.712" y1="241.4754" x2="203.5502" y2="241.4754" gradientTransform="matrix(0 16.3262 16.3262 0 -3805.47 -3159.4641)">
		<stop  offset="0" style="stop-color:#F8BB00"/>
		<stop  offset="1" style="stop-color:#ED8100"/>
	</linearGradient>
	
		<rect x="123.557" y="26.046" clip-path="url(#SVGID_00000147218738297777917350000012340013446308737450_)" fill="url(#SVGID_00000029738406903595293810000015252463289253317048_)" width="26.691" height="60.665"/>
</g>
<g>
	<defs>
		<path id="SVGID_00000100358539968934724500000007608166125360552340_" d="M169.295,50.837c2.28-2.316,5.321-3.491,8.997-3.491
			c3.217,0,5.877,0.928,7.91,2.74c1.883,1.706,3.023,3.871,3.358,6.478l-23.916,3.208C165.91,56.016,167.129,53.011,169.295,50.837
			 M169.198,40.876c-2.687,1.175-5.02,2.855-6.911,4.967c-1.9,2.121-3.367,4.64-4.393,7.53c-1.008,2.864-1.52,6.045-1.52,9.474
			c0,3.606,0.548,6.903,1.609,9.837c1.069,2.934,2.59,5.462,4.507,7.521c1.927,2.059,4.313,3.686,7.053,4.817
			c2.749,1.114,5.807,1.688,9.077,1.688c4.808,0,8.865-0.937,12.091-2.784c3.208-1.821,5.939-4.428,8.122-7.698l0.247-0.363
			l-5.347-6.664l-0.415,0.787c-1.343,2.634-3.305,4.702-5.851,6.169c-2.554,1.476-5.338,2.218-8.281,2.218
			c-3.553,0-6.584-1.007-9.05-3.014c-2.307-1.874-3.747-4.481-4.286-7.733l33.408-4.34v-1.882c0-3.385-0.495-6.478-1.485-9.218
			c-0.99-2.731-2.413-5.1-4.233-7.053c-1.83-1.927-4.048-3.429-6.611-4.472c-2.545-1.052-5.427-1.573-8.547-1.573
			C174.995,39.091,171.893,39.692,169.198,40.876"/>
	</defs>
	<clipPath id="SVGID_00000024691538186000255380000004850720534515605172_">
		<use xlink:href="#SVGID_00000100358539968934724500000007608166125360552340_"  overflow="visible"/>
	</clipPath>
	
		<linearGradient id="SVGID_00000158029161815445059610000017416282387362794421_" gradientUnits="userSpaceOnUse" x1="194.7134" y1="243.6972" x2="203.5516" y2="243.6972" gradientTransform="matrix(0 16.3246 16.3246 0 -3800.4551 -3159.1799)">
		<stop  offset="0" style="stop-color:#F8BB00"/>
		<stop  offset="1" style="stop-color:#ED8100"/>
	</linearGradient>
	
		<rect x="156.373" y="39.091" clip-path="url(#SVGID_00000024691538186000255380000004850720534515605172_)" fill="url(#SVGID_00000158029161815445059610000017416282387362794421_)" width="42.883" height="47.62"/>
</g>
<g>
	<defs>
		<path id="SVGID_00000088838269853700700460000012864840782072331945_" d="M220.671,41.168c-1.918,1.008-3.447,2.218-4.578,3.633
			v-4.755h-9.218v45.702h9.952V55.221c0.866-2.545,2.324-4.481,4.357-5.754c2.068-1.29,4.384-1.962,6.885-1.962
			c2.625,0,4.826,0.769,6.531,2.298c1.688,1.52,2.537,3.739,2.537,6.611v29.334h9.952V55.044c0-2.316-0.398-4.49-1.202-6.461
			c-0.813-1.971-1.971-3.677-3.438-5.082c-1.476-1.379-3.261-2.466-5.321-3.253c-2.042-0.778-4.34-1.158-6.805-1.158
			C226.54,39.091,223.296,39.781,220.671,41.168"/>
	</defs>
	<clipPath id="SVGID_00000132053389454544668690000005405066774610462382_">
		<use xlink:href="#SVGID_00000088838269853700700460000012864840782072331945_"  overflow="visible"/>
	</clipPath>
	
		<linearGradient id="SVGID_00000013178397707186467480000014564508860735506097_" gradientUnits="userSpaceOnUse" x1="194.7142" y1="246.3679" x2="203.5523" y2="246.3679" gradientTransform="matrix(0 16.3235 16.3235 0 -3794.6165 -3158.978)">
		<stop  offset="0" style="stop-color:#F8BB00"/>
		<stop  offset="1" style="stop-color:#ED8100"/>
	</linearGradient>
	
		<rect x="206.875" y="39.091" clip-path="url(#SVGID_00000132053389454544668690000005405066774610462382_)" fill="url(#SVGID_00000013178397707186467480000014564508860735506097_)" width="40.214" height="46.657"/>
</g>
<g>
	<defs>
		<path id="SVGID_00000152944403015468544130000015662050865690500753_" d="M272.348,77.493c-1.476-0.628-2.784-1.582-3.898-2.837
			c-1.131-1.237-2.015-2.855-2.66-4.781c-0.645-1.953-0.981-4.242-0.981-6.867c0-2.643,0.345-5.002,1.025-6.956
			c0.663-1.962,1.555-3.579,2.651-4.843c1.096-1.246,2.386-2.201,3.862-2.837c1.476-0.627,3.076-0.955,4.755-0.955
			c2.563,0,4.79,0.619,6.638,1.847c1.838,1.184,3.305,2.916,4.366,5.126v13.452c0,1.467-0.292,2.864-0.866,4.145
			c-0.574,1.299-1.37,2.439-2.369,3.359c-0.981,0.946-2.157,1.715-3.482,2.271c-1.326,0.566-2.731,0.84-4.198,0.84
			C275.45,78.456,273.824,78.129,272.348,77.493 M287.867,21.777v21.857c-1.114-1.131-2.519-2.112-4.189-2.925
			c-2.245-1.078-4.967-1.617-8.105-1.617c-2.846,0-5.586,0.512-8.105,1.529c-2.537,1.016-4.781,2.563-6.655,4.578
			c-1.874,1.998-3.359,4.516-4.428,7.477c-1.061,2.943-1.609,6.408-1.609,10.261c0,3.8,0.53,7.23,1.573,10.19
			c1.043,2.961,2.492,5.471,4.348,7.477c1.838,2.015,4.066,3.544,6.611,4.578c2.528,1.016,5.312,1.529,8.264,1.529
			c1.476,0,2.987-0.168,4.481-0.495c1.485-0.327,2.89-0.831,4.198-1.458c1.299-0.636,2.492-1.458,3.553-2.43
			c0.513-0.46,0.954-0.972,1.352-1.52v4.94h8.653V21.777H287.867z"/>
	</defs>
	<clipPath id="SVGID_00000018194876980581150100000010887538160280232630_">
		<use xlink:href="#SVGID_00000152944403015468544130000015662050865690500753_"  overflow="visible"/>
	</clipPath>
	
		<linearGradient id="SVGID_00000178199928686040747980000009996309995436474276_" gradientUnits="userSpaceOnUse" x1="194.7118" y1="249.0473" x2="203.55" y2="249.0473" gradientTransform="matrix(0 16.3264 16.3264 0 -3789.7632 -3159.5117)">
		<stop  offset="0" style="stop-color:#F8BB00"/>
		<stop  offset="1" style="stop-color:#ED8100"/>
	</linearGradient>
	
		<rect x="254.777" y="21.777" clip-path="url(#SVGID_00000018194876980581150100000010887538160280232630_)" fill="url(#SVGID_00000178199928686040747980000009996309995436474276_)" width="43.033" height="64.934"/>
</g>
<g>
	<defs>
		<path id="SVGID_00000064312828503501719590000016144990268037204901_" d="M323.273,77.307c-1.529-0.716-2.872-1.741-3.995-3.032
			c-1.122-1.317-2.015-2.943-2.66-4.879c-0.645-1.944-0.981-4.145-0.981-6.549c0-2.439,0.336-4.631,0.981-6.523
			c0.645-1.865,1.538-3.491,2.66-4.79s2.466-2.298,3.986-2.996c1.529-0.689,3.182-1.034,4.923-1.034
			c3.712,0,6.664,1.299,9.015,3.995c2.333,2.669,3.518,6.487,3.518,11.348c0,2.457-0.318,4.684-0.946,6.629
			c-0.61,1.944-1.485,3.571-2.581,4.888c-1.096,1.29-2.422,2.298-3.933,2.97c-1.538,0.689-3.244,1.043-5.073,1.043
			C326.446,78.377,324.793,78.014,323.273,77.307 M318.819,40.779c-2.775,1.131-5.179,2.749-7.124,4.817
			c-1.953,2.05-3.482,4.578-4.56,7.477c-1.052,2.899-1.609,6.195-1.609,9.775c0,3.606,0.557,6.903,1.609,9.837
			c1.078,2.934,2.607,5.462,4.56,7.521c1.944,2.059,4.348,3.686,7.124,4.817c2.775,1.114,5.93,1.688,9.368,1.688
			c3.482,0,6.655-0.575,9.43-1.688c2.775-1.131,5.179-2.758,7.124-4.817c1.962-2.059,3.482-4.587,4.525-7.539
			c1.043-2.916,1.564-6.213,1.564-9.819c0-3.526-0.521-6.797-1.564-9.731c-1.043-2.925-2.563-5.462-4.525-7.521
			c-1.944-2.068-4.348-3.685-7.124-4.817c-2.775-1.113-5.948-1.688-9.43-1.688C324.749,39.091,321.594,39.666,318.819,40.779"/>
	</defs>
	<clipPath id="SVGID_00000119117221406597003110000002137274364823547534_">
		<use xlink:href="#SVGID_00000064312828503501719590000016144990268037204901_"  overflow="visible"/>
	</clipPath>
	
		<linearGradient id="SVGID_00000061472598287524190990000014085883492695357608_" gradientUnits="userSpaceOnUse" x1="194.7134" y1="251.8658" x2="203.5516" y2="251.8658" gradientTransform="matrix(0 16.3246 16.3246 0 -3783.4419 -3159.1799)">
		<stop  offset="0" style="stop-color:#F8BB00"/>
		<stop  offset="1" style="stop-color:#ED8100"/>
	</linearGradient>
	
		<rect x="305.526" y="39.091" clip-path="url(#SVGID_00000119117221406597003110000002137274364823547534_)" fill="url(#SVGID_00000061472598287524190990000014085883492695357608_)" width="45.304" height="47.62"/>
</g>
<g>
	<defs>
		<path id="SVGID_00000071553535465327100080000008685158863348120193_" d="M395.931,23.66c-2.36,0.76-4.419,1.812-6.116,3.12
			c-1.706,1.299-3.12,2.837-4.216,4.578c-1.087,1.723-1.865,3.579-2.289,5.506l-0.115,0.53l8.988,2.758l0.115-0.654
			c0.451-2.369,1.609-4.331,3.571-5.992c1.927-1.626,4.552-2.457,7.804-2.457c3.12,0,5.656,0.76,7.565,2.28
			c1.883,1.511,2.802,3.579,2.802,6.372c0,1.281-0.318,2.475-0.928,3.553c-0.628,1.087-1.485,2.051-2.572,2.855
			c-1.061,0.796-2.36,1.432-3.836,1.883c-1.494,0.451-3.146,0.672-4.888,0.672h-7.115v8.856h8.122c4.393,0,7.769,0.99,10.022,2.934
			c2.263,1.936,3.367,4.401,3.367,7.504c0,1.609-0.336,3.049-1.016,4.313c-0.689,1.255-1.617,2.342-2.775,3.226
			c-1.184,0.884-2.581,1.573-4.145,2.077c-1.573,0.504-3.252,0.751-4.985,0.751c-3.226,0-6.116-0.84-8.555-2.51
			c-2.439-1.626-4.066-4.048-4.852-7.132l-0.168-0.654l-8.873,3.465l0.141,0.495c1.22,4.622,3.765,8.343,7.565,11.003
			c3.783,2.678,8.794,4.03,14.883,4.03c3.721,0,7.009-0.424,9.81-1.291c2.811-0.884,5.197-2.148,7.079-3.774
			c1.9-1.626,3.35-3.632,4.322-5.957c0.946-2.316,1.441-4.905,1.441-7.751c0-2.369-0.389-4.543-1.175-6.452
			c-0.778-1.909-1.829-3.562-3.138-4.914c-1.317-1.37-2.837-2.484-4.561-3.306c-0.928-0.442-1.883-0.831-2.846-1.105
			c2.457-0.831,4.569-2.201,6.284-4.065c2.263-2.492,3.412-5.798,3.412-9.863c0-2.413-0.477-4.64-1.414-6.629
			c-0.946-1.989-2.316-3.703-4.092-5.091c-1.75-1.379-3.898-2.475-6.363-3.208c-2.448-0.734-5.206-1.114-8.202-1.114
			C400.987,22.502,398.282,22.9,395.931,23.66"/>
	</defs>
	<clipPath id="SVGID_00000068652329218181752270000018177196767451520395_">
		<use xlink:href="#SVGID_00000071553535465327100080000008685158863348120193_"  overflow="visible"/>
	</clipPath>
	
		<linearGradient id="SVGID_00000001658488890263802500000007422134694085439625_" gradientUnits="userSpaceOnUse" x1="194.7128" y1="255.9557" x2="203.5509" y2="255.9557" gradientTransform="matrix(0 16.325 16.325 0 -3775.011 -3159.2454)">
		<stop  offset="0" style="stop-color:#F8BB00"/>
		<stop  offset="1" style="stop-color:#ED8100"/>
	</linearGradient>
	
		<rect x="380.845" y="22.502" clip-path="url(#SVGID_00000068652329218181752270000018177196767451520395_)" fill="url(#SVGID_00000001658488890263802500000007422134694085439625_)" width="45.243" height="64.519"/>
</g>
<g>
	<defs>
		<path id="SVGID_00000022560267440644533720000006926840429930962574_" d="M447.37,32.683h9.439c3.208,0,6.125,0.53,8.661,1.573
			c2.519,1.061,4.675,2.554,6.372,4.446c1.732,1.882,3.058,4.234,3.968,6.938c0.901,2.713,1.37,5.754,1.37,9.05
			c0,3.076-0.433,5.992-1.29,8.679c-0.857,2.652-2.139,5.02-3.818,7.018c-1.662,1.989-3.765,3.579-6.24,4.728
			c-2.475,1.149-5.347,1.732-8.564,1.732h-9.899V32.683z M437.276,23.89v61.734h21.238c4.507,0,8.591-0.795,12.117-2.369
			c3.518-1.573,6.558-3.791,9.05-6.558c2.466-2.758,4.375-6.072,5.674-9.828c1.281-3.738,1.918-7.839,1.918-12.179
			c0-4.56-0.663-8.759-2.006-12.515c-1.343-3.756-3.305-7.026-5.824-9.74c-2.528-2.713-5.621-4.843-9.218-6.319
			c-3.579-1.467-7.671-2.227-12.179-2.227H437.276z"/>
	</defs>
	<clipPath id="SVGID_00000126297531426136687230000013902668702801935245_">
		<use xlink:href="#SVGID_00000022560267440644533720000006926840429930962574_"  overflow="visible"/>
	</clipPath>
	
		<linearGradient id="SVGID_00000031895882600652618130000014784174981799045776_" gradientUnits="userSpaceOnUse" x1="194.7126" y1="259.1504" x2="203.5508" y2="259.1504" gradientTransform="matrix(0 16.3252 16.3252 0 -3768.4182 -3159.2903)">
		<stop  offset="0" style="stop-color:#F8BB00"/>
		<stop  offset="1" style="stop-color:#ED8100"/>
	</linearGradient>
	
		<rect x="437.276" y="23.89" clip-path="url(#SVGID_00000126297531426136687230000013902668702801935245_)" fill="url(#SVGID_00000031895882600652618130000014784174981799045776_)" width="49.997" height="61.734"/>
</g>
<g>
	<defs>
		<path id="SVGID_00000134247846684002337660000011489262375408306570_" d="M510.244,23.854c-2.492,0.91-4.64,2.148-6.399,3.677
			c-1.768,1.564-3.146,3.385-4.101,5.444c-0.963,2.05-1.458,4.304-1.458,6.655c0,4.207,1.149,7.627,3.412,10.128
			c2.236,2.475,5.815,4.578,10.65,6.257l8.776,3.032c3.526,1.211,6.125,2.625,7.742,4.216c1.582,1.564,2.342,3.518,2.342,6.019
			c0,2.634-1.008,4.693-3.076,6.337c-2.086,1.644-5.064,2.475-8.838,2.475c-1.671,0-3.323-0.3-4.914-0.893
			c-1.591-0.601-3.067-1.441-4.393-2.475c-1.326-1.061-2.519-2.342-3.571-3.809c-1.052-1.458-1.883-3.093-2.484-4.861l-0.256-0.707
			l-7.751,5.171l0.141,0.433c1.573,4.79,4.384,8.723,8.317,11.658c3.942,2.926,8.988,4.41,14.99,4.41
			c7.044,0,12.532-1.644,16.297-4.914c3.792-3.288,5.718-7.875,5.718-13.681c0-4.737-1.405-8.582-4.163-11.437
			c-2.713-2.793-6.629-5.038-11.613-6.664l-9.086-2.943c-3.111-1.007-5.321-2.183-6.593-3.509c-1.255-1.299-1.865-2.81-1.865-4.64
			c0-1.087,0.247-2.13,0.725-3.12c0.477-0.963,1.184-1.838,2.095-2.545c0.928-0.734,2.077-1.326,3.429-1.768
			s2.899-0.681,4.596-0.681c3.067,0,5.736,0.742,7.892,2.201c2.157,1.449,3.809,3.765,4.896,6.885l0.265,0.743l7.769-5.542
			l-0.177-0.424c-1.697-4.296-4.322-7.495-7.786-9.501c-3.438-1.971-7.875-2.979-13.178-2.979
			C515.538,22.502,512.728,22.953,510.244,23.854"/>
	</defs>
	<clipPath id="SVGID_00000105427015428740128250000011862946063429929113_">
		<use xlink:href="#SVGID_00000134247846684002337660000011489262375408306570_"  overflow="visible"/>
	</clipPath>
	
		<linearGradient id="SVGID_00000064315877777058041350000002530993956667987114_" gradientUnits="userSpaceOnUse" x1="194.7128" y1="262.2136" x2="203.5509" y2="262.2136" gradientTransform="matrix(0 16.325 16.325 0 -3761.9775 -3159.2454)">
		<stop  offset="0" style="stop-color:#F8BB00"/>
		<stop  offset="1" style="stop-color:#ED8100"/>
	</linearGradient>
	
		<rect x="495.926" y="22.502" clip-path="url(#SVGID_00000105427015428740128250000011862946063429929113_)" fill="url(#SVGID_00000064315877777058041350000002530993956667987114_)" width="45.463" height="64.519"/>
</g>
<g>
</g>
<g>
</g>
<g>
</g>
<g>
</g>
<g>
</g>
<g>
</g>
<g>
</g>
<g>
</g>
<g>
</g>
<g>
</g>
<g>
</g>
<g>
</g>
<g>
</g>
<g>
</g>
<g>
</g>
</svg>
