<?xml version="1.0" encoding="utf-8"?>
<!-- Generator: Adobe Illustrator 27.2.0, SVG Export Plug-In . SVG Version: 6.00 Build 0)  -->
<svg version="1.1" id="레이어_1" xmlns="http://www.w3.org/2000/svg" xmlns:xlink="http://www.w3.org/1999/xlink" x="0px"
	 y="0px" viewBox="0 0 720 1352.923" enable-background="new 0 0 720 1352.923" xml:space="preserve">
<path d="M156.196,1263.083h-21.402v52.248h-17.021v-111.715h17.021v44.529h21.402V1263.083z M77.841,1274.718
	c0-3.842-1.831-7.074-5.674-9.517c-3.771-2.549-9.193-3.806-16.77-3.806c-7.361,0-13.035,1.257-16.877,3.806
	c-3.807,2.443-5.71,5.674-5.71,9.517c0,3.806,1.903,6.894,5.71,9.408c3.699,2.37,9.372,3.627,16.877,3.627
	c7.577,0,12.999-1.186,16.77-3.555C76.01,1281.721,77.841,1278.597,77.841,1274.718 M80.247,1216.509h-50.13v-13.538h50.13V1216.509
	z M139.283,1351.026H29.399v-41.655h18.206v27.435h91.677V1351.026 M55.182,1300.968c-12.533,0-22.444-2.693-30.021-7.864
	c-7.505-5.279-11.204-11.383-11.204-18.171c0-7.289,3.699-13.466,11.348-18.385c7.505-4.883,17.56-7.361,29.949-7.361
	c12.999,0,23.162,2.478,30.38,7.361c7.146,4.919,10.737,11.097,10.737,18.385c0,6.932-3.591,13.036-10.881,18.243
	C78.272,1298.346,68.11,1300.968,55.182,1300.968 M102.942,1240.999H7.494v-13.682h95.448V1240.999z"/>
<path d="M303.62,1352.923v-40.829h93.365v-13.718H303.62v-13.214h111.715v39.788h-93.329v14.723h96.489v13.25H303.62z
	 M284.121,1270.797v-14.364h107.298c0.79-2.872,2.119-7.433,3.735-13.825c1.688-6.321,2.729-12.641,3.447-18.817h-97.243v-14.004
	h116.85c-0.251,4.129-1.329,11.49-3.268,22.156c-1.831,10.593-3.878,18.709-5.853,24.49h25.747v14.364H284.121"/>
<path d="M698.346,1261.332v52.751h-16.985v-110.35h16.985v43.163H720v14.436H698.346z M593.849,1351.106v-46.073h16.842v31.673
	h92.288v14.4H593.849 M574.422,1211.813h88.158v14.04h-88.158V1211.813z M651.915,1291.064c-6.859,0.359-13.466,0.719-19.93,0.899
	c-9.372,0.358-21.797,0.574-37.095,0.574h-24.814v-13.969h20.54l-2.729-46.898h16.913l2.585,46.898h12.066
	c2.37,0,5.53,0,9.444-0.144l1.975-46.754h17.201l-2.406,45.928c4.489-0.215,9.121-0.502,13.61-0.754
	c4.489-0.287,8.618-0.646,12.425-1.148v13.753C665.381,1290.096,658.918,1290.634,651.915,1291.064"/>
<path fill="#1D2087" d="M556.18,1118.601h157.248V803.206c-35.012-74.368-87.261-144.896-157.248-208.384V1118.601z"/>
<path fill="#E50012" d="M556.18,0v594.809c69.988,63.487,122.237,134.051,157.248,208.383V0H556.18z"/>
<path fill="#1D2087" d="M278.02,422.991v695.607h157.248V504.076c-11.994-7.649-23.234-15.586-36.197-22.947
	C360.792,459.26,320.034,440.444,278.02,422.991"/>
<path fill="#E50012" d="M278.02,0v422.981c42.014,17.488,82.772,36.268,121.052,58.137c12.963,7.397,24.203,15.297,36.197,22.947V0
	H278.02z"/>
<path fill="#1D2087" d="M0,1118.601h157.248V379.796C106.113,364.497,53.577,352.217,0,342.773V1118.601z"/>
<path fill="#E50012" d="M0,0v342.758c53.577,9.48,106.113,21.726,157.248,37.023V0H0z"/>
<g>
</g>
<g>
</g>
<g>
</g>
<g>
</g>
<g>
</g>
<g>
</g>
<g>
</g>
<g>
</g>
<g>
</g>
<g>
</g>
<g>
</g>
<g>
</g>
<g>
</g>
<g>
</g>
<g>
</g>
</svg>
