<?xml version="1.0" encoding="utf-8"?>
<!-- Generator: Adobe Illustrator 27.2.0, SVG Export Plug-In . SVG Version: 6.00 Build 0)  -->
<svg version="1.1" id="레이어_1" xmlns="http://www.w3.org/2000/svg" xmlns:xlink="http://www.w3.org/1999/xlink" x="0px"
	 y="0px" viewBox="0 0 720 215.289" enable-background="new 0 0 720 215.289" xml:space="preserve">
<g>
	<defs>
		<path id="SVGID_1_" d="M376.333,91.963V46.372c0-1.589,1.304-2.884,2.884-2.884h8.663c13.697,0,23.269,10.573,23.269,25.731
			c0,15.084-9.572,25.62-23.269,25.62h-8.663C377.638,94.839,376.333,93.543,376.333,91.963 M375.304,32.317
			c-6.017,0-10.904,4.869-10.904,10.877v51.902c0,5.971,4.667,10.757,10.702,10.913c0.074,0,0.138,0.009,0.202,0.009h14.257
			c20.246,0,34.375-15.157,34.375-36.8c0-21.735-14.129-36.901-34.375-36.901H375.304z"/>
	</defs>
	<clipPath id="SVGID_00000149365067947276048860000016862784711918467231_">
		<use xlink:href="#SVGID_1_"  overflow="visible"/>
	</clipPath>
	
		<linearGradient id="SVGID_00000015315147500987824100000002262202217062247045_" gradientUnits="userSpaceOnUse" x1="192.5692" y1="255.7146" x2="201.7555" y2="255.7146" gradientTransform="matrix(0 21.7141 21.7141 0 -5158.4429 -4156.1406)">
		<stop  offset="0" style="stop-color:#F8BB00"/>
		<stop  offset="1" style="stop-color:#ED8000"/>
	</linearGradient>
	
		<rect x="364.4" y="32.317" clip-path="url(#SVGID_00000149365067947276048860000016862784711918467231_)" fill="url(#SVGID_00000015315147500987824100000002262202217062247045_)" width="59.536" height="73.702"/>
</g>
<g>
	<defs>
		<path id="SVGID_00000148637100772221802040000001835102802942360485_" d="M298.002,47.475c-0.11,0.331-0.184,0.726-0.239,1.102
			l0.037,0.064l-0.037-0.009l-0.028,0.156c-0.018,0.147-0.037,0.34-0.037,0.496c-0.018,1.727,0.634,3.353,1.837,4.593
			c1.203,1.231,2.811,1.911,4.612,1.929c3.114,0,5.769-2.232,6.32-5.3l0.037-0.027c1.01-6.026,6.219-9.618,13.908-9.618
			c6.586,0,13.274,3.684,13.274,10.674c0,4.18-3.178,8.295-8.056,10.5c-1.681,0.634-4.474,0.992-8.304,1.13l-0.018,0.028
			c-2.866,0.037-5.227,2.361-5.245,5.236c-0.018,1.406,0.514,2.728,1.507,3.748c0.983,1.01,2.297,1.589,3.757,1.607l0.018,0.009
			c3.482,0.027,6.247,0.34,8.516,0.946c6.201,1.369,10.05,5.567,10.05,10.996c0,7.11-6.531,12.475-15.167,12.475
			c-8.525,0-15.019-4.795-16.14-11.905l-0.046-0.037c-0.487-3.142-3.123-5.429-6.357-5.457c-3.509,0-6.403,2.857-6.44,6.393
			c0,0.211,0.018,0.432,0.046,0.634l0.018,0.147h0.009l-0.027,0.074c0.009,0.064,0.018,0.128,0.055,0.276
			c0.027,0.138,0.064,0.285,0.11,0.459c2.462,11.905,14.331,20.219,28.872,20.219c14.45,0,29.387-8.571,29.387-22.91
			c0-7.101-4.428-13.733-12.19-18.345c6.081-3.289,9.526-8.791,9.526-15.35c0-12.539-11.777-22.378-26.824-22.378
			C310.743,30.03,300.243,36.929,298.002,47.475"/>
	</defs>
	<clipPath id="SVGID_00000042712759998099828080000017328694237989425336_">
		<use xlink:href="#SVGID_00000148637100772221802040000001835102802942360485_"  overflow="visible"/>
	</clipPath>
	
		<linearGradient id="SVGID_00000131358194341758226530000008524990562465610912_" gradientUnits="userSpaceOnUse" x1="192.5662" y1="252.8757" x2="201.7525" y2="252.8757" gradientTransform="matrix(0 21.7188 21.7188 0 -5167.1602 -4157.0073)">
		<stop  offset="0" style="stop-color:#F8BB00"/>
		<stop  offset="1" style="stop-color:#ED8000"/>
	</linearGradient>
	
		<rect x="295.76" y="30.03" clip-path="url(#SVGID_00000042712759998099828080000017328694237989425336_)" fill="url(#SVGID_00000131358194341758226530000008524990562465610912_)" width="58.47" height="78.983"/>
</g>
<g>
	<defs>
		<path id="SVGID_00000137841970010393364820000014318704947697400234_" d="M433.315,52.224c0,16.572,14.22,19.622,25.657,22.056
			c10.169,1.902,17.344,3.831,17.344,11.253c0,8.268-7.588,12.016-14.652,12.016c-9.269,0-16.333-5.567-17.95-14.22
			c-0.588-3.013-3.224-5.172-6.274-5.172c-3.509,0-6.366,2.866-6.366,6.384c0,0.514,0.073,1.057,0.239,1.654
			c2.995,13.678,15.102,22.534,30.829,22.534c13.035,0,27.044-7.165,27.044-22.901c0-15.865-13.375-19.282-25.18-22.314
			l-0.799-0.202c-9.085-2.389-16.921-4.437-16.921-11.566c0-7.202,6.972-10.968,13.88-10.968c7.174,0,12.521,3.968,13.945,10.344
			c0.579,2.976,3.179,5.126,6.192,5.126c3.491,0,6.32-2.829,6.32-6.311c0-0.854-0.184-1.699-0.487-2.379
			c-3.133-10.592-13.513-17.399-26.447-17.399C446.994,30.158,433.315,37.057,433.315,52.224"/>
	</defs>
	<clipPath id="SVGID_00000075859739759427921060000014271860485934049429_">
		<use xlink:href="#SVGID_00000137841970010393364820000014318704947697400234_"  overflow="visible"/>
	</clipPath>
	
		<linearGradient id="SVGID_00000002380168367835128640000013635031725227151250_" gradientUnits="userSpaceOnUse" x1="192.5705" y1="258.4225" x2="201.7568" y2="258.4225" gradientTransform="matrix(0 21.7109 21.7109 0 -5150.4521 -4155.5518)">
		<stop  offset="0" style="stop-color:#F8BB00"/>
		<stop  offset="1" style="stop-color:#ED8000"/>
	</linearGradient>
	
		<rect x="431.074" y="30.159" clip-path="url(#SVGID_00000075859739759427921060000014271860485934049429_)" fill="url(#SVGID_00000002380168367835128640000013635031725227151250_)" width="58.112" height="78.57"/>
</g>
<g>
	<defs>
		<path id="SVGID_00000142864577762586754120000004875045842738718621_" d="M2.067,33.603C0.698,34.632,0,36.249,0,38.417v28.624
			c0,3.987,1.121,6.991,3.316,8.902c2.094,1.8,5.209,2.857,9.26,3.114c2.223,0.138,4.455,0.211,6.651,0.211
			c5.199,0,10.472-0.377,15.699-1.084c7.836-1.075,11.419-1.801,16.655-3.381c3.114-1.02,4.07-3.169,4.345-4.777
			c0.404-2.425-0.698-4.4-3.151-5.649l-0.358-0.129c-1.304-0.266-1.782-0.303-2.076-0.303c-0.404,0-0.983,0.073-2.499,0.523
			c-1.102,0.312-2.214,0.662-3.307,1.011c-2.793,0.9-4.869,1.258-8.02,1.81l-0.386,0.046c-4.483,0.643-8.304,1.056-11.354,1.231
			c-1.8,0.11-3.445,0.156-4.85,0.156c-6.008,0-7.092-0.909-7.193-1.02c-0.156-0.138-0.671-0.845-0.671-3.234V38.343
			c0-2.177-0.707-3.785-2.094-4.823c-1.203-0.873-2.554-1.323-3.904-1.323C4.667,32.198,3.289,32.666,2.067,33.603"/>
	</defs>
	<clipPath id="SVGID_00000123435977838715609620000009725327904891570321_">
		<use xlink:href="#SVGID_00000142864577762586754120000004875045842738718621_"  overflow="visible"/>
	</clipPath>
	
		<linearGradient id="SVGID_00000054241678163768380080000004440823304099047843_" gradientUnits="userSpaceOnUse" x1="192.5657" y1="240.6989" x2="201.752" y2="240.6989" gradientTransform="matrix(0 21.7218 21.7218 0 -5200.2485 -4157.5576)">
		<stop  offset="0" style="stop-color:#F8BB00"/>
		<stop  offset="1" style="stop-color:#ED8000"/>
	</linearGradient>
	
		<rect y="32.198" clip-path="url(#SVGID_00000123435977838715609620000009725327904891570321_)" fill="url(#SVGID_00000054241678163768380080000004440823304099047843_)" width="56.33" height="47.071"/>
</g>
<g>
	<defs>
		<path id="SVGID_00000108308284527748498550000003621958457331604636_" d="M60.905,29.846c-0.974,0.652-2.131,1.892-2.131,4.262
			v51.774c0,2.581,1.157,3.932,2.131,4.63c1.213,0.827,2.563,1.258,4.024,1.258c1.543,0,2.921-0.514,4.06-1.543
			c1.222-1.084,1.846-2.554,1.846-4.345V34.108c0-2.397-1.203-3.628-2.214-4.29c-1.167-0.726-2.517-1.093-3.858-1.093
			C63.403,28.725,62.062,29.093,60.905,29.846"/>
	</defs>
	<clipPath id="SVGID_00000162350784720184399720000008348964564604014760_">
		<use xlink:href="#SVGID_00000108308284527748498550000003621958457331604636_"  overflow="visible"/>
	</clipPath>
	
		<linearGradient id="SVGID_00000055666687834913321030000004700655790799926441_" gradientUnits="userSpaceOnUse" x1="192.5712" y1="242.1953" x2="201.7574" y2="242.1953" gradientTransform="matrix(0 21.7093 21.7093 0 -5193.0869 -4155.2603)">
		<stop  offset="0" style="stop-color:#F8BB00"/>
		<stop  offset="1" style="stop-color:#ED8000"/>
	</linearGradient>
	
		<rect x="58.774" y="28.725" clip-path="url(#SVGID_00000162350784720184399720000008348964564604014760_)" fill="url(#SVGID_00000055666687834913321030000004700655790799926441_)" width="12.062" height="63.045"/>
</g>
<g>
	<defs>
		<path id="SVGID_00000000931762634145708410000002095045636468014487_" d="M5.163,86.801c-2.058,1.001-3.142,2.829-3.142,5.291
			v8.69c0,3.445,1.167,6.192,3.463,8.167c2.205,1.892,5.153,2.848,8.745,2.848h50.993c1.892,0,3.399-0.57,4.51-1.663
			c1.112-1.13,1.654-2.499,1.571-3.987c-0.101-1.479-0.781-2.728-2.012-3.757c-1.185-0.974-2.756-1.461-4.703-1.461H17.904
			c-2.15,0-2.903-0.432-3.123-0.625c-0.147-0.119-0.625-0.68-0.625-2.646v-4.933c0-2.508-1.029-4.455-3.004-5.631
			c-1.056-0.625-2.159-0.946-3.27-0.946C6.963,86.149,6.045,86.369,5.163,86.801"/>
	</defs>
	<clipPath id="SVGID_00000129183128580478040360000001861309679855176350_">
		<use xlink:href="#SVGID_00000000931762634145708410000002095045636468014487_"  overflow="visible"/>
	</clipPath>
	
		<linearGradient id="SVGID_00000001626654534650520090000001118157984330255762_" gradientUnits="userSpaceOnUse" x1="192.5695" y1="241.0441" x2="201.7558" y2="241.0441" gradientTransform="matrix(0 21.7133 21.7133 0 -5197.1592 -4155.9946)">
		<stop  offset="0" style="stop-color:#F8BB00"/>
		<stop  offset="1" style="stop-color:#ED8000"/>
	</linearGradient>
	
		<rect x="2.021" y="86.149" clip-path="url(#SVGID_00000129183128580478040360000001861309679855176350_)" fill="url(#SVGID_00000001626654534650520090000001118157984330255762_)" width="69.365" height="25.648"/>
</g>
<g>
	<defs>
		<path id="SVGID_00000170973979217263968810000018137962493442994577_" d="M91.918,86.801c-2.058,1.001-3.142,2.829-3.142,5.291
			v8.69c0,3.445,1.157,6.192,3.454,8.167c2.205,1.892,5.163,2.848,8.755,2.848h52.389c1.892,0,3.399-0.57,4.51-1.663
			c1.121-1.148,1.654-2.554,1.516-4.06c-0.147-1.516-0.845-2.784-2.085-3.757c-1.176-0.928-2.747-1.387-4.667-1.387H104.65
			c-2.15,0-2.894-0.432-3.123-0.625c-0.147-0.119-0.606-0.68-0.606-2.646v-4.933c0-2.508-1.047-4.455-3.022-5.631
			c-1.056-0.625-2.168-0.946-3.28-0.946C93.709,86.149,92.79,86.369,91.918,86.801"/>
	</defs>
	<clipPath id="SVGID_00000105412359868449550490000014295539580913323434_">
		<use xlink:href="#SVGID_00000170973979217263968810000018137962493442994577_"  overflow="visible"/>
	</clipPath>
	
		<linearGradient id="SVGID_00000155835414148402540270000003115918964218418597_" gradientUnits="userSpaceOnUse" x1="192.5695" y1="244.6334" x2="201.7558" y2="244.6334" gradientTransform="matrix(0 21.7133 21.7133 0 -5187.6416 -4155.9946)">
		<stop  offset="0" style="stop-color:#F8BB00"/>
		<stop  offset="1" style="stop-color:#ED8000"/>
	</linearGradient>
	
		<rect x="88.776" y="86.149" clip-path="url(#SVGID_00000105412359868449550490000014295539580913323434_)" fill="url(#SVGID_00000155835414148402540270000003115918964218418597_)" width="70.762" height="25.648"/>
</g>
<g>
	<defs>
		<path id="SVGID_00000144316109884237296190000005743040964874470031_" d="M98.32,31.169c-3.656,0-6.605,1.121-8.773,3.316
			c-2.159,2.214-3.261,5.227-3.261,8.975v27.228c0,3.822,0.965,6.734,2.857,8.626c1.892,1.902,4.823,2.857,8.699,2.857
			c0.533,0.009,1.066,0.009,1.589,0.009c7.909,0,14.992-0.882,21.064-2.646c3.215-1.038,4.18-3.188,4.419-4.805
			c0.349-2.462-0.772-4.418-3.224-5.484c-1.139-0.459-2.636-0.45-4.437,0.009c-6.366,1.553-12.007,2.343-16.747,2.343
			c-1.433-0.055-1.773-0.386-1.773-0.386c-0.018-0.027-0.377-0.606-0.377-3.261v-6.77h10.169c1.911,0,3.417-0.569,4.465-1.718
			c1.01-1.102,1.507-2.361,1.507-3.748c0-1.405-0.505-2.682-1.543-3.748c-1.038-1.102-2.526-1.626-4.428-1.626H98.357v-5.034
			c0-2.214,0.432-2.783,0.478-2.848c0.009-0.009,0.404-0.45,2.241-0.45h13.476c2.095,0,3.675-0.542,4.74-1.681
			c1.075-1.084,1.598-2.352,1.598-3.72c0-1.415-0.542-2.682-1.654-3.785c-1.102-1.112-2.701-1.654-4.777-1.654H98.32z"/>
	</defs>
	<clipPath id="SVGID_00000056409812097633247480000006424075600487599292_">
		<use xlink:href="#SVGID_00000144316109884237296190000005743040964874470031_"  overflow="visible"/>
	</clipPath>
	
		<linearGradient id="SVGID_00000151511329383810322230000012337938847667623606_" gradientUnits="userSpaceOnUse" x1="192.573" y1="243.8763" x2="201.7592" y2="243.8763" gradientTransform="matrix(0 21.7057 21.7057 0 -5187.7319 -4154.5972)">
		<stop  offset="0" style="stop-color:#F8BB00"/>
		<stop  offset="1" style="stop-color:#ED8000"/>
	</linearGradient>
	
		<rect x="86.286" y="31.169" clip-path="url(#SVGID_00000056409812097633247480000006424075600487599292_)" fill="url(#SVGID_00000151511329383810322230000012337938847667623606_)" width="38.977" height="51.011"/>
</g>
<g>
	<defs>
		<path id="SVGID_00000106825455814950415470000002932101240107903368_" d="M148.955,29.8c-0.974,0.68-2.15,1.966-2.15,4.41v51.599
			c0,1.856,0.597,3.353,1.801,4.465c1.157,1.066,2.581,1.617,4.226,1.617c1.654,0,3.087-0.57,4.253-1.699
			c1.176-1.112,1.782-2.6,1.782-4.382v-51.7c0-2.443-1.203-3.72-2.205-4.354c-1.185-0.753-2.508-1.13-3.821-1.13
			C151.49,28.624,150.14,29.019,148.955,29.8"/>
	</defs>
	<clipPath id="SVGID_00000170246995849901557500000012304315190435998366_">
		<use xlink:href="#SVGID_00000106825455814950415470000002932101240107903368_"  overflow="visible"/>
	</clipPath>
	
		<linearGradient id="SVGID_00000139252318224028571780000007654636503561273264_" gradientUnits="userSpaceOnUse" x1="192.5691" y1="245.8105" x2="201.7553" y2="245.8105" gradientTransform="matrix(0 21.7144 21.7144 0 -5184.7915 -4156.1968)">
		<stop  offset="0" style="stop-color:#F8BB00"/>
		<stop  offset="1" style="stop-color:#ED8000"/>
	</linearGradient>
	
		<rect x="146.805" y="28.624" clip-path="url(#SVGID_00000170246995849901557500000012304315190435998366_)" fill="url(#SVGID_00000139252318224028571780000007654636503561273264_)" width="12.062" height="63.266"/>
</g>
<g>
	<defs>
		<path id="SVGID_00000096031133703963846900000002433380369514452880_" d="M131.565,30.388c-1.185,1.011-1.819,2.407-1.819,4.005
			v15.653h-5.732c-3.932,0-5.392,1.966-5.934,3.601c-0.744,2.269-0.11,4.372,1.681,5.75c1.185,1.001,2.756,1.507,4.722,1.507h5.264
			v25.079c0,1.727,0.579,3.151,1.736,4.262c1.13,1.084,2.572,1.644,4.299,1.644c1.699,0,3.151-0.551,4.308-1.617
			c1.194-1.112,1.81-2.554,1.81-4.29V34.311c0-1.653-0.643-3.022-1.846-3.996c-1.121-0.882-2.545-1.35-4.226-1.35
			C134.11,28.964,132.677,29.442,131.565,30.388"/>
	</defs>
	<clipPath id="SVGID_00000146459231481078476460000012518336878381391013_">
		<use xlink:href="#SVGID_00000096031133703963846900000002433380369514452880_"  overflow="visible"/>
	</clipPath>
	
		<linearGradient id="SVGID_00000168107346354436718800000007323416859462479288_" gradientUnits="userSpaceOnUse" x1="192.5689" y1="244.8566" x2="201.7552" y2="244.8566" gradientTransform="matrix(0 21.7148 21.7148 0 -5187.3945 -4156.2695)">
		<stop  offset="0" style="stop-color:#F8BB00"/>
		<stop  offset="1" style="stop-color:#ED8000"/>
	</linearGradient>
	
		<rect x="117.336" y="28.964" clip-path="url(#SVGID_00000146459231481078476460000012518336878381391013_)" fill="url(#SVGID_00000168107346354436718800000007323416859462479288_)" width="24.564" height="62.926"/>
</g>
<g>
	<defs>
		<path id="SVGID_00000004507354067682467440000018171433126882667189_" d="M205.919,83.925c-1.139,1.112-1.718,2.627-1.718,4.455
			v10.16h-31.876c-1.883,0-3.344,0.606-4.327,1.791c-0.919,1.075-1.378,2.287-1.378,3.601c0,1.268,0.432,2.489,1.295,3.592
			c0.955,1.249,2.407,1.883,4.317,1.883h76.641c1.92,0,3.381-0.634,4.345-1.883c0.845-1.102,1.268-2.324,1.268-3.592
			c0-1.323-0.487-2.563-1.442-3.638c-1.02-1.148-2.517-1.755-4.437-1.755h-32.336v-10.16c0-2.168-0.707-3.812-2.104-4.804
			c-1.222-0.928-2.6-1.378-4.106-1.378C208.445,82.199,207.058,82.795,205.919,83.925"/>
	</defs>
	<clipPath id="SVGID_00000158031144030248010120000016703863956459366791_">
		<use xlink:href="#SVGID_00000004507354067682467440000018171433126882667189_"  overflow="visible"/>
	</clipPath>
	
		<linearGradient id="SVGID_00000175288281049997455220000007721806252442884538_" gradientUnits="userSpaceOnUse" x1="192.5631" y1="248.1812" x2="201.7493" y2="248.1812" gradientTransform="matrix(0 21.7247 21.7247 0 -5181.1084 -4158.0947)">
		<stop  offset="0" style="stop-color:#F8BB00"/>
		<stop  offset="1" style="stop-color:#ED8000"/>
	</linearGradient>
	
		<rect x="166.62" y="82.199" clip-path="url(#SVGID_00000158031144030248010120000016703863956459366791_)" fill="url(#SVGID_00000175288281049997455220000007721806252442884538_)" width="87.866" height="27.209"/>
</g>
<g>
	<defs>
		<path id="SVGID_00000132778055840982932110000009625952047552345239_" d="M187.179,31.077c-3.978,0-7.073,0.817-9.177,2.416
			c-2.269,1.727-3.399,4.529-3.399,8.332v25.492c0,3.647,1.066,6.385,3.169,8.102c1.993,1.626,4.915,2.443,8.672,2.443h54.465
			c2.195,0,3.867-0.57,4.979-1.709c1.102-1.167,1.635-2.48,1.589-3.904c-0.046-1.488-0.735-2.756-2.03-3.803
			c-1.213-0.946-2.829-1.433-4.823-1.433H190.21c-2.535,0-3.096-0.459-3.114-0.496c0,0-0.441-0.395-0.441-2.416V44.654
			c0-1.847,0.413-2.242,0.413-2.242c0.028-0.018,0.606-0.478,3.142-0.478h49.404c2.076,0,3.693-0.569,4.823-1.699
			c1.194-1.203,1.699-2.673,1.424-4.143c-0.193-1.516-1.249-5.016-6.789-5.016H187.179z"/>
	</defs>
	<clipPath id="SVGID_00000098939644848148699750000012543887939882550416_">
		<use xlink:href="#SVGID_00000132778055840982932110000009625952047552345239_"  overflow="visible"/>
	</clipPath>
	
		<linearGradient id="SVGID_00000047059047200821753220000001178573324271191729_" gradientUnits="userSpaceOnUse" x1="192.5719" y1="248.1987" x2="201.7582" y2="248.1987" gradientTransform="matrix(0 21.7074 21.7074 0 -5176.6855 -4154.9097)">
		<stop  offset="0" style="stop-color:#F8BB00"/>
		<stop  offset="1" style="stop-color:#ED8000"/>
	</linearGradient>
	
		<rect x="174.603" y="31.077" clip-path="url(#SVGID_00000098939644848148699750000012543887939882550416_)" fill="url(#SVGID_00000047059047200821753220000001178573324271191729_)" width="72.92" height="46.785"/>
</g>
<g>
	<defs>
		<path id="SVGID_00000025435557482216641100000007016423657822253959_" d="M345.421,197.679c-0.018-0.027-0.533-0.588-0.533-3.05
			v-47.566c0-2.554,0.505-3.206,0.606-3.307c0.129-0.138,0.753-0.606,2.949-0.606h3.665c2.526,0,3.188,0.514,3.289,0.625
			c0.11,0.101,0.625,0.753,0.625,3.206v47.759c0,1.727-0.34,2.591-0.625,2.811c-0.147,0.129-1.029,0.643-4.308,0.643h-2.747
			C346.028,198.193,345.477,197.716,345.421,197.679 M377.913,130.959c-1.176,0.992-1.819,2.389-1.819,3.996v28.67h-8.02V144.5
			c0-4.345-1.029-7.514-3.077-9.416c-2.049-1.892-5.328-2.802-10.059-2.802h-8.424c-5.108,0-8.589,0.955-10.61,2.921
			c-2.067,1.984-3.068,5.346-3.068,10.298v50.607c0,4.731,0.937,8.019,2.884,9.986c1.957,2.002,5.218,2.967,9.976,2.967h9.149
			c4.97,0,8.341-1.029,10.325-3.114c1.957-2.067,2.903-5.365,2.903-10.004v-21.441h8.02v34.825c0,1.709,0.588,3.142,1.736,4.235
			c1.139,1.093,2.572,1.635,4.299,1.635c1.718,0,3.16-0.533,4.318-1.617c1.203-1.084,1.81-2.526,1.81-4.253v-74.482
			c0-1.607-0.643-2.986-1.846-3.959c-1.121-0.9-2.545-1.36-4.226-1.36C380.467,129.526,379.034,130.022,377.913,130.959"/>
	</defs>
	<clipPath id="SVGID_00000057833704027357138380000002563080269578895754_">
		<use xlink:href="#SVGID_00000025435557482216641100000007016423657822253959_"  overflow="visible"/>
	</clipPath>
	
		<linearGradient id="SVGID_00000121980504851075070780000010312206857088617868_" gradientUnits="userSpaceOnUse" x1="192.5687" y1="254.3347" x2="201.755" y2="254.3347" gradientTransform="matrix(0 21.7144 21.7144 0 -5162.1797 -4156.1978)">
		<stop  offset="0" style="stop-color:#F8BB00"/>
		<stop  offset="1" style="stop-color:#ED8000"/>
	</linearGradient>
	
		<rect x="332.836" y="129.526" clip-path="url(#SVGID_00000057833704027357138380000002563080269578895754_)" fill="url(#SVGID_00000121980504851075070780000010312206857088617868_)" width="55.421" height="85.671"/>
</g>
<g>
	<defs>
		<path id="SVGID_00000044161915722478415680000018314077138256509857_" d="M395.321,130.546c-0.992,0.661-2.168,1.975-2.168,4.409
			v74.372c0,1.782,0.588,3.224,1.736,4.336c1.13,1.075,2.554,1.626,4.253,1.626c1.69,0,3.133-0.569,4.299-1.672
			c1.167-1.13,1.773-2.581,1.773-4.29v-74.482c0-2.453-1.194-3.72-2.205-4.354c-1.185-0.744-2.499-1.112-3.812-1.112
			C397.847,129.379,396.506,129.765,395.321,130.546"/>
	</defs>
	<clipPath id="SVGID_00000125565476792256616770000003564908627733362602_">
		<use xlink:href="#SVGID_00000044161915722478415680000018314077138256509857_"  overflow="visible"/>
	</clipPath>
	
		<linearGradient id="SVGID_00000169516909644811046030000011717758154911037326_" gradientUnits="userSpaceOnUse" x1="192.5685" y1="255.9203" x2="201.7548" y2="255.9203" gradientTransform="matrix(0 21.7149 21.7149 0 -5158.1006 -4156.2905)">
		<stop  offset="0" style="stop-color:#F8BB00"/>
		<stop  offset="1" style="stop-color:#ED8000"/>
	</linearGradient>
	
		<rect x="393.153" y="129.379" clip-path="url(#SVGID_00000125565476792256616770000003564908627733362602_)" fill="url(#SVGID_00000169516909644811046030000011717758154911037326_)" width="12.062" height="85.91"/>
</g>
<g>
	<defs>
		<path id="SVGID_00000094608159837301269000000012219728735178069137_" d="M480.781,130.252c-2.076,0.955-3.169,2.756-3.169,5.172
			v74.17c0,1.644,0.615,3.059,1.755,4.134c1.112,1.029,2.517,1.562,4.106,1.562c1.479,0,2.829-0.404,4.033-1.203
			c0.992-0.652,2.168-1.957,2.168-4.41v-31.968l5.117,0.009l0.156,0.009c2.995,0,5.438-2.453,5.438-5.438
			c0-3.013-2.434-5.447-5.503-5.447h-5.209v-31.325c0-2.324-1.075-4.097-3.05-5.135c-0.992-0.514-2.012-0.781-3.05-0.781
			C482.646,129.599,481.699,129.82,480.781,130.252"/>
	</defs>
	<clipPath id="SVGID_00000025436905356678131570000018075170053448537011_">
		<use xlink:href="#SVGID_00000094608159837301269000000012219728735178069137_"  overflow="visible"/>
	</clipPath>
	
		<linearGradient id="SVGID_00000147929923266035455410000013873255833953606076_" gradientUnits="userSpaceOnUse" x1="192.5691" y1="259.6062" x2="201.7553" y2="259.6062" gradientTransform="matrix(0 21.7144 21.7144 0 -5148.1963 -4156.1968)">
		<stop  offset="0" style="stop-color:#F8BB00"/>
		<stop  offset="1" style="stop-color:#ED8000"/>
	</linearGradient>
	
		<rect x="477.612" y="129.599" clip-path="url(#SVGID_00000025436905356678131570000018075170053448537011_)" fill="url(#SVGID_00000147929923266035455410000013873255833953606076_)" width="22.773" height="85.69"/>
</g>
<g>
	<defs>
		<path id="SVGID_00000163751478188332349680000004004822562789717665_" d="M425.287,133.017c-2.71,0-4.648,0.863-5.787,2.637
			c-1.185,1.8-1.167,3.812,0.064,5.603c1.167,1.736,3.031,2.618,5.549,2.618h23.269c2.655,0,3.564,0.422,3.812,0.606
			c0.368,0.248,0.57,0.983,0.57,2.039v13.926c0,1.58-0.358,1.874-0.358,1.874c-0.037,0.027-0.744,0.468-4.106,0.468h-15.855
			c-4.373,0-7.551,0.873-9.719,2.618c-2.26,1.801-3.417,4.814-3.417,8.975v23.048c0,4.336,1.387,7.432,4.116,9.168
			c2.508,1.617,6.155,2.407,11.152,2.425l0.377,0.009c4.648,0,10.748-0.551,18.152-1.672c7.799-1.167,10.601-2.039,16.884-4.722
			c2.949-1.323,3.757-3.325,3.968-4.786c0.266-2.104-0.505-3.895-2.251-5.144c-1.672-1.204-3.739-1.369-5.861-0.478
			c-12.346,5.108-18.033,5.649-29.975,5.787c-3.289-0.074-3.959-0.588-3.996-0.616c0,0-0.524-0.468-0.524-2.738v-17.803
			c0-2.131,0.459-2.637,0.496-2.701c0.064-0.046,0.551-0.487,2.609-0.487h17.61c4.639,0,7.818-0.827,9.774-2.508
			c2.012-1.727,2.986-4.648,2.986-8.874v-18.354c0-3.5-1.056-6.247-3.151-8.148c-2.067-1.865-5.411-2.774-10.252-2.774H425.287z"/>
	</defs>
	<clipPath id="SVGID_00000108299854832493636560000005969044450625383827_">
		<use xlink:href="#SVGID_00000163751478188332349680000004004822562789717665_"  overflow="visible"/>
	</clipPath>
	
		<linearGradient id="SVGID_00000083065010020064224570000017231123863163592633_" gradientUnits="userSpaceOnUse" x1="192.5695" y1="257.8526" x2="201.7557" y2="257.8526" gradientTransform="matrix(0 21.7135 21.7135 0 -5152.6152 -4156.0312)">
		<stop  offset="0" style="stop-color:#F8BB00"/>
		<stop  offset="1" style="stop-color:#ED8000"/>
	</linearGradient>
	
		<rect x="418.314" y="133.017" clip-path="url(#SVGID_00000108299854832493636560000005969044450625383827_)" fill="url(#SVGID_00000083065010020064224570000017231123863163592633_)" width="55.907" height="76.016"/>
</g>
<g>
	<defs>
		<path id="SVGID_00000071548243196105006890000001178719934051894933_" d="M307.096,130.252c-2.058,0.955-3.16,2.765-3.16,5.172
			v74.17c0,1.663,0.597,3.05,1.755,4.134c1.121,1.029,2.499,1.562,4.088,1.562c1.488,0,2.838-0.404,4.051-1.203
			c0.992-0.652,2.159-1.957,2.159-4.41v-31.968l5.117,0.009l0.165,0.009c2.995,0,5.438-2.453,5.438-5.438
			c0-3.013-2.444-5.447-5.438-5.447h-5.282v-31.325c0-2.324-1.066-4.097-3.059-5.135c-0.983-0.514-2.003-0.781-3.041-0.781
			C308.952,129.599,308.015,129.82,307.096,130.252"/>
	</defs>
	<clipPath id="SVGID_00000124856211360858345590000007027916857325223085_">
		<use xlink:href="#SVGID_00000071548243196105006890000001178719934051894933_"  overflow="visible"/>
	</clipPath>
	
		<linearGradient id="SVGID_00000013904284383331641190000005973857778866476703_" gradientUnits="userSpaceOnUse" x1="192.5691" y1="252.4788" x2="201.7553" y2="252.4788" gradientTransform="matrix(0 21.7144 21.7144 0 -5167.103 -4156.1968)">
		<stop  offset="0" style="stop-color:#F8BB00"/>
		<stop  offset="1" style="stop-color:#ED8000"/>
	</linearGradient>
	
		<rect x="303.936" y="129.599" clip-path="url(#SVGID_00000124856211360858345590000007027916857325223085_)" fill="url(#SVGID_00000013904284383331641190000005973857778866476703_)" width="22.773" height="85.69"/>
</g>
<g>
	<defs>
		<path id="SVGID_00000039826925593328981670000004243929816214128531_" d="M251.152,131.538c-1.773,0-3.234,0.496-4.363,1.433
			c-1.185,1.011-1.8,2.333-1.8,3.868c0,1.479,0.533,2.774,1.58,3.877c1.075,1.13,2.646,1.699,4.676,1.699h23.379
			c2.315,0,3.133,0.441,3.371,0.643c0.404,0.349,0.625,1.258,0.625,2.526v11.464l-4.63,1.029
			c-8.653,1.736-18.079,2.875-27.972,3.353c-1.801,0-3.215,0.569-4.244,1.672c-1.02,1.121-1.451,2.499-1.268,3.987
			c0.175,1.424,0.799,2.609,1.865,3.546c1.066,0.909,2.434,1.387,4.134,1.387c7.514-0.138,17.454-1.277,29.534-3.426
			c0.064-0.019,0.101-0.019,0.174-0.055c0.707-0.119,1.387-0.257,1.994-0.368c-0.882,8.681-3.16,15.479-6.78,20.274
			c-4.749,6.256-13.054,10.546-24.702,12.705c-3.509,0.616-4.905,2.664-5.457,4.299c-0.854,2.517,0,4.713,2.297,5.953
			c0.955,0.662,2.122,0.955,3.463,0.955c0.505,0,1.029-0.037,1.663-0.128c14.882-3.27,25.731-9.113,32.225-17.408
			c6.476-8.304,9.774-20.063,9.774-35.018v-15.782c0-4.446-1.203-7.68-3.574-9.655c-2.306-1.902-5.695-2.829-10.39-2.829H251.152z"
			/>
	</defs>
	<clipPath id="SVGID_00000004525540052104416390000010804813222047591041_">
		<use xlink:href="#SVGID_00000039826925593328981670000004243929816214128531_"  overflow="visible"/>
	</clipPath>
	
		<linearGradient id="SVGID_00000103249825832123567150000011605716929457370038_" gradientUnits="userSpaceOnUse" x1="192.5699" y1="250.4338" x2="201.7562" y2="250.4338" gradientTransform="matrix(0 21.7124 21.7124 0 -5172.0127 -4155.8296)">
		<stop  offset="0" style="stop-color:#F8BB00"/>
		<stop  offset="1" style="stop-color:#ED8000"/>
	</linearGradient>
	
		<rect x="240.322" y="131.538" clip-path="url(#SVGID_00000004525540052104416390000010804813222047591041_)" fill="url(#SVGID_00000103249825832123567150000011605716929457370038_)" width="50.368" height="80.82"/>
</g>
<path fill="#FFF5EA" d="M638.591,151.161c0,21.652-17.518,39.179-39.18,39.179c-21.624,0-39.188-17.527-39.188-39.179
	c0-21.633,17.564-39.188,39.188-39.188C621.073,111.973,638.591,129.528,638.591,151.161"/>
<g>
	<defs>
		<path id="SVGID_00000036230945714702585760000002659386735465216943_" d="M564.89,151.04c0-19.429,15.745-35.128,35.156-35.128
			c19.374,0,35.119,15.699,35.119,35.128c0,19.392-15.745,35.119-35.119,35.119C580.635,186.159,564.89,170.432,564.89,151.04
			 M580.075,70.312c-0.239,0-0.588,0.156-0.726,0.368l-18.887,23.719c-0.156,0.202-0.496,0.349-0.735,0.349h-34.788
			c-0.239,0-0.643,0.092-0.863,0.184l-7.726,7.753c-0.073,0.248-0.156,0.597-0.156,0.863v95.032c0,0.248,0.083,0.643,0.156,0.854
			l7.726,7.753c0.22,0.092,0.625,0.175,0.863,0.175h150.122c0.257,0,0.643-0.083,0.882-0.175l7.735-7.762
			c0.101-0.202,0.174-0.597,0.174-0.845v-95.032c0-0.266-0.073-0.615-0.174-0.863l-7.735-7.753
			c-0.239-0.092-0.625-0.184-0.882-0.184l-34.779,0.046c-0.239,0-0.551-0.175-0.717-0.368l-18.869-23.746
			c-0.138-0.211-0.487-0.368-0.717-0.368H580.075z"/>
	</defs>
	<clipPath id="SVGID_00000015336774898028832800000017640040777976160907_">
		<use xlink:href="#SVGID_00000036230945714702585760000002659386735465216943_"  overflow="visible"/>
	</clipPath>
	
		<linearGradient id="SVGID_00000160161414834524500950000006678453986874257026_" gradientUnits="userSpaceOnUse" x1="195.8132" y1="267.2902" x2="204.9995" y2="267.2902" gradientTransform="matrix(0 17.0955 17.0955 0 -3969.4382 -3305.5317)">
		<stop  offset="0" style="stop-color:#F7BA00"/>
		<stop  offset="1" style="stop-color:#EC8000"/>
	</linearGradient>
	
		<rect x="516.194" y="70.312" clip-path="url(#SVGID_00000015336774898028832800000017640040777976160907_)" fill="url(#SVGID_00000160161414834524500950000006678453986874257026_)" width="167.658" height="137.05"/>
</g>
<g>
	<defs>
		<path id="SVGID_00000109751121816761986990000003131582381029781431_" d="M629.424,0l-0.22,0.027
			c-5.521,0.514-10.188,2.269-13.605,5.126c-2.728,2.223-4.667,5.236-5.356,8.543c-1.102,0.579-2.058,1.341-2.802,2.241
			c-1.635,1.892-2.333,4.143-2.333,6.219c0,0.34,0.018,0.744,0.092,1.24h0.009c0.312,2.269,0.588,4.924,2.489,7.606
			c1.277,1.846,3.188,3.123,5.392,3.904c0.276,1.534,0.68,3.472,1.259,5.401c1.01,3.408,2.453,7.331,5.549,10.445
			c0.597,3.178,1.947,7.9,4.565,13.256c3.325,6.66,8.663,14.092,17.206,18.887c2.829,1.534,5.999,2.738,9.398,3.702
			c-0.717,0.68-0.937,1.093-1.369,1.865c-0.377,0.772-0.744,1.828-0.753,3.169c-0.009,1.066,0.285,2.37,0.965,3.482
			c1.332,2.526,4.382,3.454,5.815,3.325c1.176,0,1.883-0.239,2.195-0.331l0.257-0.092l0.257-0.119
			c0.836-0.395,1.47-0.689,1.883-0.909c0.101,0,0.248,0.037,0.386,0.055l7.533,1.02h0.322c1.782-0.037,3.178-0.588,4.529-1.617
			c1.341-1.001,2.618-2.976,2.6-5.337c0.009-0.267-0.009-0.524-0.037-0.809c5.319,0.358,10.344,0.478,14.523,0.478
			c2.26,0,4.299-0.027,5.962-0.083c2.039,0.046,3.674,0.68,5.604,1.874c1.938,1.203,4.005,3.004,6.559,4.722
			c1.47,0.965,3.114,1.617,5.016,1.626h0.028c1.451,0,3.178-0.468,4.547-1.709c1.359-1.203,2.085-3.077,2.113-4.676v-0.184
			c-0.064-2.471-1.075-4.299-2.453-6.008h-0.009c-1.571-1.938-4.272-5.034-6.807-7.992c-2.535-2.884-4.988-5.778-5.668-6.715
			c-0.551-0.698-1.249-1.479-2.398-2.783c-4.005-4.419-12.457-13.467-20.844-21.965c-4.198-4.244-8.35-8.359-11.924-11.703
			c-2.71-2.499-4.942-4.492-6.926-5.98v-0.046c-0.312-1.277-1.121-2.48-1.442-2.958c-0.377-0.514-0.689-0.937-1.35-2.14
			c-0.873-1.589-3.656-7.542-8.442-13.008C646.997,5.576,639.648,0.009,629.644,0H629.424z"/>
	</defs>
	<clipPath id="SVGID_00000016063953617666145600000004449547332469668787_">
		<use xlink:href="#SVGID_00000109751121816761986990000003131582381029781431_"  overflow="visible"/>
	</clipPath>
	
		<linearGradient id="SVGID_00000077298664202535199340000009552839209182141064_" gradientUnits="userSpaceOnUse" x1="195.8132" y1="270.5498" x2="204.9995" y2="270.5498" gradientTransform="matrix(0 17.0955 17.0955 0 -3962.6318 -3305.5317)">
		<stop  offset="0" style="stop-color:#F7BA00"/>
		<stop  offset="1" style="stop-color:#EC8000"/>
	</linearGradient>
	
		<rect x="605.107" y="0" clip-path="url(#SVGID_00000016063953617666145600000004449547332469668787_)" fill="url(#SVGID_00000077298664202535199340000009552839209182141064_)" width="114.892" height="98.917"/>
</g>
<path fill-rule="evenodd" clip-rule="evenodd" fill="#FFF5EA" d="M713.709,89.484c-2.6-3.169-8.69-10.068-11.51-13.513
	c-10.583,2.443-19.254,1.984-27.201,1.479c-17.904-1.139-30.838-10.243-33.328-22.626c-0.285-1.516-0.018-3.454,1.736-3.978
	c1.984-0.56,3.684,0.836,4.051,2.076c3.224,10.647,11.18,16.434,27.439,18.492c5.87,0.744,14.744,0.707,22.782-0.661
	c-8.341-9.15-29.35-31.188-37.508-37.471c-5.971-1.02-12.199,0.276-14.909,9.168c-2.719,0.386-8.782,3.041-10.83,6.201
	c-1.663,2.535-6.798,0.478-4.768-3.325c2.692-4.437,8.525-6.982,11.676-7.716c1.745-6.587,7.505-10.537,15.167-9.986
	c-0.193-0.322-0.432-0.717-0.68-1.194c-1.984-3.684-10.096-21.478-26.199-21.478c-9.958,0.919-15.304,6.651-14.661,12.383
	c-3.877,0.478-5.098,3.289-4.869,5.355c0.459,3.684,1.102,6.449,4.915,7.615c-0.303-1.92-0.597-3.996-0.698-5.3
	c0.119-1.819,2.324-1.663,2.544-0.037c0.423,5.769,2.168,19.337,7.689,23.25c0.34,4.042,4.804,22.102,19.539,30.351
	c5.089,2.829,12.539,4.566,20.357,5.659v4.309l-3.151-0.386c-2.333-0.294-2.793-0.441-6.807,2.012
	c-0.202,0.193-0.983,1.295-0.322,2.434c0.753,1.304,2.205,0.799,2.205,0.799c3.224-1.47,2.517-1.589,4.988-1.258l7.193,0.974
	c0.928,0,2.186-0.753,2.186-2.002c0-1.249-1.075-1.883-2.186-2.058l-1.084-0.156v-4.29c11.088,1.295,22.46,1.314,28.588,1.13
	c6.55,0.028,10.628,4.538,14.992,7.441C714.058,95.161,716.732,93.177,713.709,89.484 M622.435,17.978
	c0-2.251,1.819-4.051,4.079-4.051c2.251,0,4.07,1.8,4.07,4.051c0,2.242-1.819,4.079-4.07,4.079
	C624.254,22.057,622.435,20.22,622.435,17.978"/>
<g>
</g>
<g>
</g>
<g>
</g>
<g>
</g>
<g>
</g>
<g>
</g>
<g>
</g>
<g>
</g>
<g>
</g>
<g>
</g>
<g>
</g>
<g>
</g>
<g>
</g>
<g>
</g>
<g>
</g>
</svg>
