<?xml version="1.0" encoding="utf-8"?>
<!-- Generator: Adobe Illustrator 27.0.1, SVG Export Plug-In . SVG Version: 6.00 Build 0)  -->
<svg version="1.1" id="레이어_1" xmlns="http://www.w3.org/2000/svg" xmlns:xlink="http://www.w3.org/1999/xlink" x="0px"
	 y="0px" viewBox="0 0 720 339.379" enable-background="new 0 0 720 339.379" xml:space="preserve">
<g>
	<path fill="#D30052" d="M526.678,185.99h-19.706c-0.537,0-1.057-0.228-1.415-0.65c-0.341-0.406-0.504-0.959-0.423-1.496
		l0.195-1.236c0.049-0.325,0.195-0.634,0.406-0.894c-0.634-1.301-0.927-2.845-0.829-4.333c0.13-1.772,1.073-3.349,1.902-4.642
		l-0.049-0.065c-0.472-0.797-0.293-1.813,0.423-2.398l0.634-0.52c0.423-0.935,0.813-1.723,1.187-2.471
		c1.219-2.455,2.146-4.284,2.618-9.398h-0.13c-0.602,0-1.171-0.293-1.512-0.789l-1.041-1.48c-0.488-0.675-0.455-1.585,0.065-2.236
		l1.236-1.528c0.163-0.203,0.374-0.366,0.602-0.48l0.13-1.642l-3.301-4.992c-0.098-0.138-0.163-0.285-0.211-0.447l-0.667-2.032
		c-0.065-0.187-0.098-0.382-0.098-0.577c0-2.675,2.146-4.853,4.796-4.853h0.163c0.049-0.073,0.114-0.13,0.163-0.195l0.845-0.862
		c0.358-0.358,0.829-0.553,1.333-0.553h5.658c0.504,0,0.976,0.195,1.317,0.553l0.862,0.862c0.049,0.065,0.114,0.122,0.163,0.195
		h0.163c2.65,0,4.796,2.179,4.796,4.853c0,0.203-0.033,0.398-0.098,0.593l-0.683,2.032c-0.049,0.154-0.114,0.301-0.211,0.439
		l-3.252,4.878l0.114,1.74c0.244,0.13,0.471,0.317,0.65,0.553l1.187,1.61c0.471,0.65,0.488,1.528,0.016,2.179l-0.992,1.398
		c-0.341,0.488-0.91,0.78-1.512,0.78h-0.163c0.471,4.853,1.463,6.699,2.683,8.999c0.455,0.845,0.927,1.74,1.398,2.821l0.699,0.602
		c0.715,0.602,0.862,1.634,0.358,2.414l-0.081,0.114c0.667,1.154,1.545,3.008,1.658,4.878c0.081,1.48-0.195,2.845-0.829,4.049
		l0.016,0.016c0.179,0.244,0.309,0.504,0.358,0.797l0.228,1.219c0.098,0.537-0.032,1.106-0.39,1.528
		C527.751,185.746,527.23,185.99,526.678,185.99z M509.784,182.282h14.211l-0.049-0.455c-0.033-0.439,0.081-0.894,0.341-1.268
		c0.553-0.764,0.78-1.593,0.732-2.634c-0.065-1.049-0.65-2.48-1.593-3.918c-0.098-0.13-0.163-0.268-0.211-0.423
		c-0.146-0.423-0.163-0.967-0.033-1.439c-0.244-0.285-0.455-0.642-0.52-1.016c-0.423-0.951-0.846-1.748-1.252-2.504
		c-1.398-2.642-2.732-5.146-3.203-11.747c-0.016-0.179,0-0.366,0.049-0.545l0.163-0.715c0.146-0.659,0.634-1.171,1.268-1.358
		c-0.276-0.301-0.439-0.683-0.471-1.114l-0.26-3.902c-0.033-0.406,0.081-0.813,0.309-1.154l3.479-5.195l0.471-1.447
		c-0.098-0.528-0.52-0.911-1.057-0.911h-1.658c-0.943,0-1.724-0.699-1.837-1.61h-3.675c-0.114,0.911-0.894,1.61-1.837,1.61h-1.658
		c-0.537,0-0.959,0.39-1.073,0.919l0.488,1.447l3.512,5.317c0.228,0.35,0.341,0.764,0.309,1.179l-0.309,3.78
		c-0.032,0.415-0.211,0.78-0.455,1.073c0.455,0.138,0.846,0.447,1.073,0.87c0.179,0.317,0.439,0.992,0.423,1.35
		c-0.471,7.146-1.642,9.495-3.138,12.471c-0.325,0.675-0.683,1.382-1.057,2.211c0,0.041-0.016,0.073-0.016,0.098
		c-0.098,0.358-0.276,0.683-0.537,0.951c0.016,0.081,0.033,0.171,0.049,0.252c0.016,0.285,0,0.74-0.098,1
		c-0.049,0.114-0.146,0.35-0.211,0.455l-0.374,0.61c-0.634,0.976-1.398,2.187-1.463,3.122c-0.081,1.041,0.211,2.138,0.732,2.919
		c0.033,0.033,0.081,0.081,0.114,0.13C509.8,181.144,509.931,181.73,509.784,182.282z M513.15,137.935h0.049H513.15z"/>
</g>
<g>
	<path fill="#D30052" d="M516.955,138.521c-0.179,0-0.358-0.024-0.52-0.073l-1.772-0.52c-0.618-0.179-1.106-0.667-1.268-1.284
		c-0.602-0.187-1.073-0.675-1.236-1.293l-0.472-1.772c-0.098-0.317-0.081-0.65,0-0.967l0.504-1.845
		c0.163-0.626,0.65-1.114,1.268-1.293c0.179-0.61,0.65-1.089,1.268-1.26l1.723-0.48c0.325-0.098,0.667-0.098,0.992,0l1.772,0.48
		c0.65,0.179,1.171,0.699,1.317,1.366c0.016,0.049,0.016,0.089,0.032,0.138c0.537,0.187,1.041,0.52,1.187,1.073l0.488,1.813
		c0.081,0.309,0.081,0.634,0.016,0.943l-0.471,1.821c-0.163,0.618-0.634,1.114-1.236,1.301c-0.179,0.626-0.667,1.106-1.284,1.284
		l-1.805,0.504C517.296,138.504,517.117,138.521,516.955,138.521z"/>
</g>
<g>
	<path fill="#D30052" d="M309.974,185.924h-7.756c-0.659,0-1.268-0.341-1.602-0.927l-4.821-8.268v7.341
		c0,1.024-0.829,1.854-1.854,1.854h-7.764c-1.024,0-1.854-0.829-1.854-1.854v-28.104c0-1,0.789-1.813,1.78-1.854l7.764-0.301
		c0.602-0.138,1.325,0.325,1.675,0.919l4.821,8.252v-7.016c0-1,0.789-1.813,1.78-1.854l7.756-0.301c0.52-0.033,1,0.163,1.358,0.512
		c0.366,0.35,0.569,0.837,0.569,1.341v28.405C311.828,185.095,310.999,185.924,309.974,185.924z M303.284,182.217h4.837v-24.625
		l-4.049,0.163v12.097c0,0.837-0.561,1.577-1.366,1.789c-0.837,0.244-1.675-0.13-2.089-0.854l-7.715-13.227l-4.87,0.195v24.462
		h4.057v-12.365c0-0.837,0.561-1.577,1.374-1.789c0.764-0.244,1.658,0.13,2.081,0.854L303.284,182.217z"/>
</g>
<g>
	<path fill="#D30052" d="M329.77,186.445c-8.203,0-16.511-5.756-16.511-16.763c0-9.764,6.577-16.576,15.991-16.576
		c10.495,0,16.154,8.691,16.154,16.877C345.403,177.966,339.924,186.445,329.77,186.445z M329.25,156.812
		c-7.349,0-12.284,5.17-12.284,12.869c0,8.967,6.642,13.056,12.804,13.056c8.747,0,11.926-7.626,11.926-12.755
		C341.696,164.69,338.379,156.812,329.25,156.812z M330.632,180.185c-4.146,0-9.926-4.683-9.926-12.308
		c0-5.301,2.593-8.463,6.951-8.463c5.87,0,9.373,6.179,9.373,12.162C337.03,177.226,333.81,180.185,330.632,180.185z
		 M327.656,163.121c-0.805,0-3.244,0-3.244,4.756c0,6.032,4.447,8.593,6.219,8.593c1.301,0,2.691-1.715,2.691-4.894
		C333.323,168.169,331.518,163.121,327.656,163.121z"/>
</g>
<g>
	<path fill="#D30052" d="M379.304,185.924c-3.268,0-6.439-0.585-9.219-1.691c-5.609-2.146-9.235-7.951-9.235-14.755
		c0-10.682,8.845-16.438,17.17-16.438c4,0,7.609,1.154,11.333,3.65c0.423,0.276,0.715,0.715,0.797,1.211
		c0.098,0.488-0.016,1-0.309,1.406l-3.675,5.162l2.146-0.049c0.667,0.033,0.976,0.179,1.35,0.528
		c0.358,0.35,0.553,0.829,0.553,1.325v17.487c0,0.992-0.797,1.821-1.789,1.854l-7.869,0.276
		C380.133,185.908,379.71,185.924,379.304,185.924z M378.019,156.747c-5.414,0-13.463,3.39-13.463,12.731
		c0,3.992,1.805,9.349,6.878,11.292c2.683,1.073,5.772,1.512,8.975,1.415l6.097-0.211v-13.804l-9.414,0.211l0.683,2.675h2.78
		c1.024,0,1.854,0.829,1.854,1.854v5.227c0,0.496-0.195,0.976-0.553,1.333c-0.341,0.325-0.813,0.52-1.301,0.52
		c-0.016,0-0.033,0-0.033,0c-7.577-0.163-11.658-5.951-11.658-11.316c0-3.821,2.536-9.479,7.983-9.479
		c2.065,0,4.276,0.886,6.634,2.65l2.179-3.065C383.141,157.381,380.718,156.747,378.019,156.747z M375.45,174.543
		c0.862,0.691,1.935,1.236,3.252,1.52v-1.301h-2.374C376.003,174.762,375.711,174.681,375.45,174.543z M372.865,166.739
		c-0.195,0.699-0.293,1.382-0.293,1.935c0,1.577,0.65,3.675,2.211,5.276c-0.114-0.179-0.195-0.374-0.26-0.585l-1.61-6.333
		C372.898,166.934,372.881,166.836,372.865,166.739z M376.849,162.901c-1.577,0-2.667,1.016-3.349,2.276
		c0.325-0.285,0.748-0.447,1.171-0.455l6.26-0.138C379.385,163.487,377.987,162.901,376.849,162.901z"/>
</g>
<g>
	<path fill="#D30052" d="M420.781,185.924h-8.91c-0.813,0-1.545-0.537-1.772-1.317l-1.057-3.496l-6.065,0.049l-1.089,3.463
		c-0.244,0.78-0.959,1.301-1.772,1.301h-7.967c-0.602,0-1.171-0.293-1.512-0.78c-0.358-0.504-0.439-1.138-0.228-1.707l9.886-27.543
		c0.228-0.634,0.78-1.097,1.447-1.203l8.195-1.333c0.797-0.154,1.74,0.341,2.032,1.195l10.552,28.885
		c0.211,0.569,0.13,1.203-0.211,1.691C421.952,185.632,421.383,185.924,420.781,185.924z M413.253,182.217h4.878l-9.121-24.95
		l-5.593,0.911l-8.634,24.039h3.967l1.089-3.463c0.244-0.764,0.959-1.293,1.756-1.293l8.796-0.065h0.016
		c0.813,0,1.545,0.528,1.772,1.317L413.253,182.217z M403.514,174.86c-0.585,0-1.122-0.268-1.48-0.732
		c-0.358-0.472-0.472-1.098-0.293-1.675l2.536-8.146c0.244-0.772,0.959-1.301,1.772-1.301l0,0c0.829,0,1.545,0.537,1.772,1.317
		l2.423,7.975c0.179,0.553,0.081,1.146-0.26,1.618c-0.341,0.472-0.878,0.756-1.447,0.772l-4.959,0.171
		C403.563,174.86,403.53,174.86,403.514,174.86z"/>
</g>
<g>
	<path fill="#D30052" d="M457.316,185.924h-8.26c-0.927,0-1.707-0.667-1.837-1.577l-0.878-5.959l-1.967,5.634
		c-0.26,0.748-0.976,1.236-1.756,1.236h-4.894c-0.797,0-1.496-0.504-1.756-1.252l-1.723-5l-0.618,5.276
		c-0.098,0.943-0.894,1.642-1.837,1.642h-7.544c-0.537,0-1.041-0.228-1.398-0.634c-0.341-0.39-0.504-0.927-0.439-1.463l3.675-28.104
		c0.114-0.894,0.862-1.577,1.772-1.61l7.658-0.301c0.829-0.081,1.593,0.504,1.837,1.301l2.65,8.463l2.862-8.219
		c0.26-0.724,0.927-1.219,1.691-1.244l8.26-0.301c0.016,0,0.049,0,0.065,0c0.911,0,1.691,0.658,1.837,1.569l4.439,28.397
		c0.081,0.537-0.081,1.089-0.423,1.496C458.372,185.697,457.852,185.924,457.316,185.924z M450.666,182.217h4.488l-3.853-24.633
		l-5.349,0.195l-4.292,12.316c-0.26,0.748-0.976,1.244-1.756,1.244c-0.016,0-0.016,0-0.033,0c-0.797-0.008-1.496-0.537-1.74-1.301
		l-3.902-12.463l-4.666,0.187l-3.203,24.454h3.772l1.366-11.755c0.098-0.862,0.78-1.536,1.642-1.634
		c0.829-0.171,1.658,0.431,1.951,1.244l3.951,11.479h2.26l4.032-11.495c0.276-0.813,1.089-1.406,1.935-1.228
		c0.845,0.081,1.528,0.732,1.658,1.577L450.666,182.217z"/>
</g>
<g>
	<path fill="#D30052" d="M481.314,185.941h-20.389c-1.024,0-1.854-0.829-1.854-1.854v-28.128c0-1.016,0.813-1.845,1.821-1.854
		l20.389-0.285c0.016,0,0.016,0,0.033,0c0.976,0,1.789,0.756,1.854,1.732l0.439,6.528c0.033,0.512-0.146,1.008-0.488,1.39
		c-0.358,0.374-0.845,0.585-1.35,0.585l-11.235,0.057v0.797l9.398-0.317c0.52,0.114,1.008,0.179,1.35,0.52
		c0.374,0.35,0.569,0.829,0.569,1.333v6.593c0,1.024-0.813,1.854-1.837,1.854l-9.479,0.065v0.935l11.17-0.341
		c0.39,0,1.024,0.195,1.382,0.561c0.358,0.382,0.553,0.894,0.52,1.415l-0.439,6.674C483.103,185.193,482.29,185.941,481.314,185.941
		z M462.779,182.234h16.796l0.195-2.91l-11.04,0.341c-0.374,0.163-0.976-0.179-1.333-0.528c-0.374-0.35-0.569-0.829-0.569-1.333
		v-4.691c0-1.024,0.813-1.854,1.837-1.854l9.479-0.065v-2.829l-9.398,0.317c-0.39,0.057-0.992-0.171-1.35-0.52
		c-0.374-0.35-0.569-0.829-0.569-1.333v-4.561c0-1.024,0.829-1.854,1.837-1.854l11.105-0.057l-0.195-2.805l-16.796,0.236V182.234z"
		/>
</g>
<g>
	<path fill="#D30052" d="M309.974,185.924h-7.756c-0.659,0-1.268-0.341-1.602-0.927l-4.821-8.268v7.341
		c0,1.024-0.829,1.854-1.854,1.854h-7.764c-1.024,0-1.854-0.829-1.854-1.854v-28.104c0-1,0.789-1.813,1.78-1.854l7.764-0.301
		c0.602-0.138,1.325,0.325,1.675,0.919l4.821,8.252v-7.016c0-1,0.789-1.813,1.78-1.854l7.756-0.301c0.52-0.033,1,0.163,1.358,0.512
		c0.366,0.35,0.569,0.837,0.569,1.341v28.405C311.828,185.095,310.999,185.924,309.974,185.924z M303.284,182.217h4.837v-24.625
		l-4.049,0.163v12.097c0,0.837-0.561,1.577-1.366,1.789c-0.837,0.244-1.675-0.13-2.089-0.854l-7.715-13.227l-4.87,0.195v24.462
		h4.057v-12.365c0-0.837,0.561-1.577,1.374-1.789c0.764-0.244,1.658,0.13,2.081,0.854L303.284,182.217z"/>
</g>
<g>
	<path fill="#D30052" d="M329.77,186.445c-8.203,0-16.511-5.756-16.511-16.763c0-9.764,6.577-16.576,15.991-16.576
		c10.495,0,16.154,8.691,16.154,16.877C345.403,177.966,339.924,186.445,329.77,186.445z M329.25,156.812
		c-7.349,0-12.284,5.17-12.284,12.869c0,8.967,6.642,13.056,12.804,13.056c8.747,0,11.926-7.626,11.926-12.755
		C341.696,164.69,338.379,156.812,329.25,156.812z M330.632,180.185c-4.146,0-9.926-4.683-9.926-12.308
		c0-5.301,2.593-8.463,6.951-8.463c5.87,0,9.373,6.179,9.373,12.162C337.03,177.226,333.81,180.185,330.632,180.185z
		 M327.656,163.121c-0.805,0-3.244,0-3.244,4.756c0,6.032,4.447,8.593,6.219,8.593c1.301,0,2.691-1.715,2.691-4.894
		C333.323,168.169,331.518,163.121,327.656,163.121z"/>
</g>
<g>
	<path fill="#D30052" d="M379.304,185.924c-3.268,0-6.439-0.585-9.219-1.691c-5.609-2.146-9.235-7.951-9.235-14.755
		c0-10.682,8.845-16.438,17.17-16.438c4,0,7.609,1.154,11.333,3.65c0.423,0.276,0.715,0.715,0.797,1.211
		c0.098,0.488-0.016,1-0.309,1.406l-3.675,5.162l2.146-0.049c0.667,0.033,0.976,0.179,1.35,0.528
		c0.358,0.35,0.553,0.829,0.553,1.325v17.487c0,0.992-0.797,1.821-1.789,1.854l-7.869,0.276
		C380.133,185.908,379.71,185.924,379.304,185.924z M378.019,156.747c-5.414,0-13.463,3.39-13.463,12.731
		c0,3.992,1.805,9.349,6.878,11.292c2.683,1.073,5.772,1.512,8.975,1.415l6.097-0.211v-13.804l-9.414,0.211l0.683,2.675h2.78
		c1.024,0,1.854,0.829,1.854,1.854v5.227c0,0.496-0.195,0.976-0.553,1.333c-0.341,0.325-0.813,0.52-1.301,0.52
		c-0.016,0-0.033,0-0.033,0c-7.577-0.163-11.658-5.951-11.658-11.316c0-3.821,2.536-9.479,7.983-9.479
		c2.065,0,4.276,0.886,6.634,2.65l2.179-3.065C383.141,157.381,380.718,156.747,378.019,156.747z M375.45,174.543
		c0.862,0.691,1.935,1.236,3.252,1.52v-1.301h-2.374C376.003,174.762,375.711,174.681,375.45,174.543z M372.865,166.739
		c-0.195,0.699-0.293,1.382-0.293,1.935c0,1.577,0.65,3.675,2.211,5.276c-0.114-0.179-0.195-0.374-0.26-0.585l-1.61-6.333
		C372.898,166.934,372.881,166.836,372.865,166.739z M376.849,162.901c-1.577,0-2.667,1.016-3.349,2.276
		c0.325-0.285,0.748-0.447,1.171-0.455l6.26-0.138C379.385,163.487,377.987,162.901,376.849,162.901z"/>
</g>
<g>
	<path fill="#D30052" d="M420.781,185.924h-8.91c-0.813,0-1.545-0.537-1.772-1.317l-1.057-3.496l-6.065,0.049l-1.089,3.463
		c-0.244,0.78-0.959,1.301-1.772,1.301h-7.967c-0.602,0-1.171-0.293-1.512-0.78c-0.358-0.504-0.439-1.138-0.228-1.707l9.886-27.543
		c0.228-0.634,0.78-1.097,1.447-1.203l8.195-1.333c0.797-0.154,1.74,0.341,2.032,1.195l10.552,28.885
		c0.211,0.569,0.13,1.203-0.211,1.691C421.952,185.632,421.383,185.924,420.781,185.924z M413.253,182.217h4.878l-9.121-24.95
		l-5.593,0.911l-8.634,24.039h3.967l1.089-3.463c0.244-0.764,0.959-1.293,1.756-1.293l8.796-0.065h0.016
		c0.813,0,1.545,0.528,1.772,1.317L413.253,182.217z M403.514,174.86c-0.585,0-1.122-0.268-1.48-0.732
		c-0.358-0.472-0.472-1.098-0.293-1.675l2.536-8.146c0.244-0.772,0.959-1.301,1.772-1.301l0,0c0.829,0,1.545,0.537,1.772,1.317
		l2.423,7.975c0.179,0.553,0.081,1.146-0.26,1.618c-0.341,0.472-0.878,0.756-1.447,0.772l-4.959,0.171
		C403.563,174.86,403.53,174.86,403.514,174.86z"/>
</g>
<g>
	<path fill="#D30052" d="M457.316,185.924h-8.26c-0.927,0-1.707-0.667-1.837-1.577l-0.878-5.959l-1.967,5.634
		c-0.26,0.748-0.976,1.236-1.756,1.236h-4.894c-0.797,0-1.496-0.504-1.756-1.252l-1.723-5l-0.618,5.276
		c-0.098,0.943-0.894,1.642-1.837,1.642h-7.544c-0.537,0-1.041-0.228-1.398-0.634c-0.341-0.39-0.504-0.927-0.439-1.463l3.675-28.104
		c0.114-0.894,0.862-1.577,1.772-1.61l7.658-0.301c0.829-0.081,1.593,0.504,1.837,1.301l2.65,8.463l2.862-8.219
		c0.26-0.724,0.927-1.219,1.691-1.244l8.26-0.301c0.016,0,0.049,0,0.065,0c0.911,0,1.691,0.658,1.837,1.569l4.439,28.397
		c0.081,0.537-0.081,1.089-0.423,1.496C458.372,185.697,457.852,185.924,457.316,185.924z M450.666,182.217h4.488l-3.853-24.633
		l-5.349,0.195l-4.292,12.316c-0.26,0.748-0.976,1.244-1.756,1.244c-0.016,0-0.016,0-0.033,0c-0.797-0.008-1.496-0.537-1.74-1.301
		l-3.902-12.463l-4.666,0.187l-3.203,24.454h3.772l1.366-11.755c0.098-0.862,0.78-1.536,1.642-1.634
		c0.829-0.171,1.658,0.431,1.951,1.244l3.951,11.479h2.26l4.032-11.495c0.276-0.813,1.089-1.406,1.935-1.228
		c0.845,0.081,1.528,0.732,1.658,1.577L450.666,182.217z"/>
</g>
<g>
	<path fill="#D30052" d="M481.314,185.941h-20.389c-1.024,0-1.854-0.829-1.854-1.854v-28.128c0-1.016,0.813-1.845,1.821-1.854
		l20.389-0.285c0.016,0,0.016,0,0.033,0c0.976,0,1.789,0.756,1.854,1.732l0.439,6.528c0.033,0.512-0.146,1.008-0.488,1.39
		c-0.358,0.374-0.845,0.585-1.35,0.585l-11.235,0.057v0.797l9.398-0.317c0.52,0.114,1.008,0.179,1.35,0.52
		c0.374,0.35,0.569,0.829,0.569,1.333v6.593c0,1.024-0.813,1.854-1.837,1.854l-9.479,0.065v0.935l11.17-0.341
		c0.39,0,1.024,0.195,1.382,0.561c0.358,0.382,0.553,0.894,0.52,1.415l-0.439,6.674C483.103,185.193,482.29,185.941,481.314,185.941
		z M462.779,182.234h16.796l0.195-2.91l-11.04,0.341c-0.374,0.163-0.976-0.179-1.333-0.528c-0.374-0.35-0.569-0.829-0.569-1.333
		v-4.691c0-1.024,0.813-1.854,1.837-1.854l9.479-0.065v-2.829l-9.398,0.317c-0.39,0.057-0.992-0.171-1.35-0.52
		c-0.374-0.35-0.569-0.829-0.569-1.333v-4.561c0-1.024,0.829-1.854,1.837-1.854l11.105-0.057l-0.195-2.805l-16.796,0.236V182.234z"
		/>
</g>
<g>
	<path fill="#D30052" d="M309.974,185.924h-7.756c-0.659,0-1.268-0.341-1.602-0.927l-4.821-8.268v7.341
		c0,1.024-0.829,1.854-1.854,1.854h-7.764c-1.024,0-1.854-0.829-1.854-1.854v-28.104c0-1,0.789-1.813,1.78-1.854l7.764-0.301
		c0.602-0.138,1.325,0.325,1.675,0.919l4.821,8.252v-7.016c0-1,0.789-1.813,1.78-1.854l7.756-0.301c0.52-0.033,1,0.163,1.358,0.512
		c0.366,0.35,0.569,0.837,0.569,1.341v28.405C311.828,185.095,310.999,185.924,309.974,185.924z M303.284,182.217h4.837v-24.625
		l-4.049,0.163v12.097c0,0.837-0.561,1.577-1.366,1.789c-0.837,0.244-1.675-0.13-2.089-0.854l-7.715-13.227l-4.87,0.195v24.462
		h4.057v-12.365c0-0.837,0.561-1.577,1.374-1.789c0.764-0.244,1.658,0.13,2.081,0.854L303.284,182.217z"/>
</g>
<g>
	<path fill="#D30052" d="M329.77,186.445c-8.203,0-16.511-5.756-16.511-16.763c0-9.764,6.577-16.576,15.991-16.576
		c10.495,0,16.154,8.691,16.154,16.877C345.403,177.966,339.924,186.445,329.77,186.445z M329.25,156.812
		c-7.349,0-12.284,5.17-12.284,12.869c0,8.967,6.642,13.056,12.804,13.056c8.747,0,11.926-7.626,11.926-12.755
		C341.696,164.69,338.379,156.812,329.25,156.812z M330.632,180.185c-4.146,0-9.926-4.683-9.926-12.308
		c0-5.301,2.593-8.463,6.951-8.463c5.87,0,9.373,6.179,9.373,12.162C337.03,177.226,333.81,180.185,330.632,180.185z
		 M327.656,163.121c-0.805,0-3.244,0-3.244,4.756c0,6.032,4.447,8.593,6.219,8.593c1.301,0,2.691-1.715,2.691-4.894
		C333.323,168.169,331.518,163.121,327.656,163.121z"/>
</g>
<g>
	<path fill="#D30052" d="M379.304,185.924c-3.268,0-6.439-0.585-9.219-1.691c-5.609-2.146-9.235-7.951-9.235-14.755
		c0-10.682,8.845-16.438,17.17-16.438c4,0,7.609,1.154,11.333,3.65c0.423,0.276,0.715,0.715,0.797,1.211
		c0.098,0.488-0.016,1-0.309,1.406l-3.675,5.162l2.146-0.049c0.667,0.033,0.976,0.179,1.35,0.528
		c0.358,0.35,0.553,0.829,0.553,1.325v17.487c0,0.992-0.797,1.821-1.789,1.854l-7.869,0.276
		C380.133,185.908,379.71,185.924,379.304,185.924z M378.019,156.747c-5.414,0-13.463,3.39-13.463,12.731
		c0,3.992,1.805,9.349,6.878,11.292c2.683,1.073,5.772,1.512,8.975,1.415l6.097-0.211v-13.804l-9.414,0.211l0.683,2.675h2.78
		c1.024,0,1.854,0.829,1.854,1.854v5.227c0,0.496-0.195,0.976-0.553,1.333c-0.341,0.325-0.813,0.52-1.301,0.52
		c-0.016,0-0.033,0-0.033,0c-7.577-0.163-11.658-5.951-11.658-11.316c0-3.821,2.536-9.479,7.983-9.479
		c2.065,0,4.276,0.886,6.634,2.65l2.179-3.065C383.141,157.381,380.718,156.747,378.019,156.747z M375.45,174.543
		c0.862,0.691,1.935,1.236,3.252,1.52v-1.301h-2.374C376.003,174.762,375.711,174.681,375.45,174.543z M372.865,166.739
		c-0.195,0.699-0.293,1.382-0.293,1.935c0,1.577,0.65,3.675,2.211,5.276c-0.114-0.179-0.195-0.374-0.26-0.585l-1.61-6.333
		C372.898,166.934,372.881,166.836,372.865,166.739z M376.849,162.901c-1.577,0-2.667,1.016-3.349,2.276
		c0.325-0.285,0.748-0.447,1.171-0.455l6.26-0.138C379.385,163.487,377.987,162.901,376.849,162.901z"/>
</g>
<g>
	<path fill="#D30052" d="M420.781,185.924h-8.91c-0.813,0-1.545-0.537-1.772-1.317l-1.057-3.496l-6.065,0.049l-1.089,3.463
		c-0.244,0.78-0.959,1.301-1.772,1.301h-7.967c-0.602,0-1.171-0.293-1.512-0.78c-0.358-0.504-0.439-1.138-0.228-1.707l9.886-27.543
		c0.228-0.634,0.78-1.097,1.447-1.203l8.195-1.333c0.797-0.154,1.74,0.341,2.032,1.195l10.552,28.885
		c0.211,0.569,0.13,1.203-0.211,1.691C421.952,185.632,421.383,185.924,420.781,185.924z M413.253,182.217h4.878l-9.121-24.95
		l-5.593,0.911l-8.634,24.039h3.967l1.089-3.463c0.244-0.764,0.959-1.293,1.756-1.293l8.796-0.065h0.016
		c0.813,0,1.545,0.528,1.772,1.317L413.253,182.217z M403.514,174.86c-0.585,0-1.122-0.268-1.48-0.732
		c-0.358-0.472-0.472-1.098-0.293-1.675l2.536-8.146c0.244-0.772,0.959-1.301,1.772-1.301l0,0c0.829,0,1.545,0.537,1.772,1.317
		l2.423,7.975c0.179,0.553,0.081,1.146-0.26,1.618c-0.341,0.472-0.878,0.756-1.447,0.772l-4.959,0.171
		C403.563,174.86,403.53,174.86,403.514,174.86z"/>
</g>
<g>
	<path fill="#D30052" d="M457.316,185.924h-8.26c-0.927,0-1.707-0.667-1.837-1.577l-0.878-5.959l-1.967,5.634
		c-0.26,0.748-0.976,1.236-1.756,1.236h-4.894c-0.797,0-1.496-0.504-1.756-1.252l-1.723-5l-0.618,5.276
		c-0.098,0.943-0.894,1.642-1.837,1.642h-7.544c-0.537,0-1.041-0.228-1.398-0.634c-0.341-0.39-0.504-0.927-0.439-1.463l3.675-28.104
		c0.114-0.894,0.862-1.577,1.772-1.61l7.658-0.301c0.829-0.081,1.593,0.504,1.837,1.301l2.65,8.463l2.862-8.219
		c0.26-0.724,0.927-1.219,1.691-1.244l8.26-0.301c0.016,0,0.049,0,0.065,0c0.911,0,1.691,0.658,1.837,1.569l4.439,28.397
		c0.081,0.537-0.081,1.089-0.423,1.496C458.372,185.697,457.852,185.924,457.316,185.924z M450.666,182.217h4.488l-3.853-24.633
		l-5.349,0.195l-4.292,12.316c-0.26,0.748-0.976,1.244-1.756,1.244c-0.016,0-0.016,0-0.033,0c-0.797-0.008-1.496-0.537-1.74-1.301
		l-3.902-12.463l-4.666,0.187l-3.203,24.454h3.772l1.366-11.755c0.098-0.862,0.78-1.536,1.642-1.634
		c0.829-0.171,1.658,0.431,1.951,1.244l3.951,11.479h2.26l4.032-11.495c0.276-0.813,1.089-1.406,1.935-1.228
		c0.845,0.081,1.528,0.732,1.658,1.577L450.666,182.217z"/>
</g>
<g>
	<path fill="#D30052" d="M481.314,185.941h-20.389c-1.024,0-1.854-0.829-1.854-1.854v-28.128c0-1.016,0.813-1.845,1.821-1.854
		l20.389-0.285c0.016,0,0.016,0,0.033,0c0.976,0,1.789,0.756,1.854,1.732l0.439,6.528c0.033,0.512-0.146,1.008-0.488,1.39
		c-0.358,0.374-0.845,0.585-1.35,0.585l-11.235,0.057v0.797l9.398-0.317c0.52,0.114,1.008,0.179,1.35,0.52
		c0.374,0.35,0.569,0.829,0.569,1.333v6.593c0,1.024-0.813,1.854-1.837,1.854l-9.479,0.065v0.935l11.17-0.341
		c0.39,0,1.024,0.195,1.382,0.561c0.358,0.382,0.553,0.894,0.52,1.415l-0.439,6.674C483.103,185.193,482.29,185.941,481.314,185.941
		z M462.779,182.234h16.796l0.195-2.91l-11.04,0.341c-0.374,0.163-0.976-0.179-1.333-0.528c-0.374-0.35-0.569-0.829-0.569-1.333
		v-4.691c0-1.024,0.813-1.854,1.837-1.854l9.479-0.065v-2.829l-9.398,0.317c-0.39,0.057-0.992-0.171-1.35-0.52
		c-0.374-0.35-0.569-0.829-0.569-1.333v-4.561c0-1.024,0.829-1.854,1.837-1.854l11.105-0.057l-0.195-2.805l-16.796,0.236V182.234z"
		/>
</g>
<g>
	<path fill="#D30052" d="M716.358,185.941h-20.389c-1.024,0-1.854-0.829-1.854-1.854v-28.112c0-1.016,0.813-1.845,1.821-1.854
		l20.389-0.285c0.016,0,0.016,0,0.032,0c0.976,0,1.789,0.756,1.854,1.732l0.423,6.512c0.033,0.512-0.146,1.016-0.488,1.39
		c-0.358,0.374-0.845,0.585-1.349,0.585l-11.219,0.073v0.797l9.398-0.333c0.618,0.114,1.008,0.179,1.35,0.52
		c0.374,0.35,0.569,0.829,0.569,1.333v6.593c0,1.024-0.813,1.854-1.837,1.854l-9.479,0.065v0.943l11.138-0.35
		c0.033,0,0.049,0,0.065,0c0.504,0,0.976,0.203,1.333,0.561c0.358,0.374,0.553,0.886,0.52,1.406l-0.423,6.683
		C718.146,185.177,717.333,185.941,716.358,185.941z M697.822,182.234h16.796l0.179-2.91l-11.008,0.358c-0.033,0-0.049,0-0.065,0
		c-0.488,0-0.943-0.195-1.284-0.528c-0.374-0.35-0.569-0.829-0.569-1.333v-4.707c0-1.024,0.813-1.854,1.837-1.854l9.479-0.065
		v-2.821l-9.398,0.333c-0.293,0.033-0.992-0.171-1.35-0.52c-0.374-0.35-0.569-0.829-0.569-1.333v-4.569
		c0-1.024,0.829-1.854,1.837-1.854l11.089-0.073l-0.179-2.788l-16.796,0.236V182.234z"/>
</g>
<g>
	<path fill="#D30052" d="M577.065,185.924h-7.772c-0.667,0-1.268-0.341-1.61-0.927l-4.797-8.252v7.325
		c0,1.024-0.829,1.854-1.854,1.854h-7.756c-1.024,0-1.854-0.829-1.854-1.854v-28.088c0-1,0.78-1.821,1.789-1.854l7.756-0.293
		c0.016,0,0.049,0,0.065,0c0.667,0,1.268,0.35,1.61,0.919l4.797,8.227v-7c0-1,0.78-1.821,1.789-1.854l7.772-0.293
		c0.585,0.114,1.008,0.171,1.35,0.52c0.374,0.35,0.569,0.829,0.569,1.333v28.381C578.919,185.095,578.089,185.924,577.065,185.924z
		 M570.366,182.217h4.845v-24.6l-4.065,0.154v12.081c0,0.837-0.553,1.577-1.366,1.789c-0.813,0.244-1.675-0.13-2.097-0.854
		l-7.691-13.203l-4.862,0.187v24.446h4.049v-12.365c0-0.837,0.553-1.577,1.366-1.789c0.813-0.244,1.675,0.13,2.097,0.854
		L570.366,182.217z"/>
</g>
<g>
	<path fill="#D30052" d="M596.657,186.445c-8.211,0-16.519-5.756-16.519-16.763c0-9.764,6.585-16.576,15.999-16.576
		c10.503,0,16.162,8.691,16.162,16.877C612.299,177.966,606.819,186.445,596.657,186.445z M596.137,156.812
		c-7.349,0-12.292,5.17-12.292,12.869c0,8.967,6.65,13.056,12.812,13.056c8.747,0,11.934-7.626,11.934-12.755
		C608.592,164.69,605.275,156.812,596.137,156.812z M597.503,180.185c-4.146,0-9.934-4.683-9.934-12.308
		c0-5.292,2.601-8.447,6.975-8.447c5.87,0,9.365,6.17,9.365,12.146C603.909,177.226,600.69,180.185,597.503,180.185z
		 M594.544,163.137c-0.813,0-3.268,0-3.268,4.74c0,6.032,4.455,8.593,6.227,8.593c1.333,0,2.699-1.683,2.699-4.894
		C600.202,168.177,598.397,163.137,594.544,163.137z"/>
</g>
<g>
	<path fill="#D30052" d="M652.557,185.941h-21.088c-1.024,0-1.854-0.829-1.854-1.854v-28.128c0-1,0.78-1.821,1.789-1.854
		l7.772-0.285c0.553,0.049,1.008,0.179,1.35,0.52c0.374,0.35,0.569,0.829,0.569,1.333v19.292l11.853-0.398
		c0.585-0.057,1.024,0.187,1.398,0.561c0.358,0.374,0.553,0.878,0.52,1.406l-0.455,7.666
		C654.345,185.177,653.532,185.941,652.557,185.941z M633.322,182.234h17.479l0.244-3.886l-11.739,0.39
		c-0.325,0.081-0.992-0.179-1.349-0.52c-0.374-0.35-0.569-0.829-0.569-1.333v-19.283l-4.065,0.146V182.234z"/>
</g>
<g>
	<path fill="#D30052" d="M665.45,185.924h-7.756c-1.024,0-1.854-0.829-1.854-1.854v-28.088c0-1,0.78-1.821,1.789-1.854l7.756-0.293
		c0.488,0.114,0.992,0.171,1.35,0.52c0.374,0.35,0.569,0.829,0.569,1.333v28.381C667.304,185.095,666.475,185.924,665.45,185.924z
		 M659.548,182.217h4.049v-24.6l-4.049,0.154V182.217z"/>
</g>
<g>
	<path fill="#D30052" d="M678.636,185.941h-7.772c-1.024,0-1.854-0.829-1.854-1.854v-28.128c0-1.016,0.813-1.845,1.821-1.854
		l20.389-0.276c0.016,0,0.016,0,0.033,0c0.976,0,1.789,0.756,1.854,1.74l0.406,6.52c0.033,0.504-0.146,1.008-0.504,1.382
		c-0.341,0.374-0.829,0.585-1.333,0.585l-11.186,0.065v0.789l9.382-0.325c0.52,0.122,1.008,0.179,1.349,0.52
		c0.374,0.35,0.569,0.829,0.569,1.333v6.674c0,1.024-0.829,1.854-1.854,1.854h-9.447v9.121
		C680.49,185.111,679.661,185.941,678.636,185.941z M672.718,182.234h4.065v-9.121c0-1.024,0.829-1.854,1.854-1.854h9.447v-2.894
		l-9.382,0.325c-0.406,0.049-0.992-0.171-1.35-0.52c-0.374-0.35-0.569-0.829-0.569-1.333v-4.561c0-1.024,0.829-1.854,1.837-1.854
		l11.073-0.065l-0.179-2.797l-16.796,0.228V182.234z"/>
</g>
<g>
	<path fill="#D30052" d="M257.034,93.873h-87.442c-1.024,0-1.854-0.829-1.854-1.854V56.655c0-1.024,0.829-1.854,1.854-1.854h87.442
		c1.024,0,1.854,0.829,1.854,1.854v35.364C258.888,93.044,258.059,93.873,257.034,93.873z M171.446,90.166h83.735V58.509h-83.735
		V90.166z"/>
</g>
<g>
	<path fill="#D30052" d="M544.547,93.946h-87.426c-1.024,0-1.854-0.829-1.854-1.854V56.729c0-1.024,0.829-1.854,1.854-1.854h87.426
		c1.024,0,1.854,0.829,1.854,1.854v35.364C546.4,93.117,545.571,93.946,544.547,93.946z M458.974,90.239h83.719V58.582h-83.719
		V90.239z"/>
</g>
<g>
	<path fill="#D30052" d="M380.556,145.187h-96.938c-1.024,0-1.854-0.829-1.854-1.854V107.97c0-1.024,0.829-1.854,1.854-1.854h59.72
		V54.631h-22.487v13.715c0,1.024-0.829,1.854-1.854,1.854h-35.38c-1.024,0-1.854-0.829-1.854-1.854V1.87
		c0-1.024,0.829-1.854,1.854-1.854h35.38c1.024,0,1.854,0.829,1.854,1.854v13.69H425.09c1.024,0,1.854,0.829,1.854,1.854v35.364
		c0,1.024-0.829,1.854-1.854,1.854h-42.681v88.702C382.409,144.358,381.58,145.187,380.556,145.187z M285.472,141.48h93.231V52.778
		c0-1.024,0.829-1.854,1.854-1.854h42.681V19.267H318.998c-1.024,0-1.854-0.829-1.854-1.854V3.723h-31.673v62.769h31.673V52.778
		c0-1.024,0.829-1.854,1.854-1.854h26.194c1.024,0,1.854,0.829,1.854,1.854v55.192c0,1.024-0.829,1.854-1.854,1.854h-59.72V141.48z
		 M425.09,94.222h-17.869c-1.024,0-1.854-0.829-1.854-1.854V57.013c0-1.024,0.829-1.854,1.854-1.854h17.869
		c1.024,0,1.854,0.829,1.854,1.854v35.356C426.943,93.393,426.114,94.222,425.09,94.222z M409.074,90.515h14.162V58.867h-14.162
		V90.515z M402.847,94.222h-17.885c-1.024,0-1.854-0.829-1.854-1.854V57.013c0-1.024,0.829-1.854,1.854-1.854h17.885
		c1.024,0,1.854,0.829,1.854,1.854v35.356C404.701,93.393,403.872,94.222,402.847,94.222z M386.816,90.515h14.178V58.867h-14.178
		V90.515z"/>
</g>
<g>
	<path fill="#D30052" d="M718.033,145.187H576.561c-1.024,0-1.854-0.829-1.854-1.854V1.878c0-1.024,0.829-1.854,1.854-1.854h35.364
		c1.024,0,1.854,0.829,1.854,1.854V106.1h67.037V71.85c0-1.024,0.829-1.854,1.854-1.854h35.364c1.024,0,1.854,0.829,1.854,1.854
		v71.484C719.886,144.358,719.057,145.187,718.033,145.187z M578.414,141.48h137.765V73.703h-31.657v34.25
		c0,1.024-0.829,1.854-1.854,1.854h-70.744c-1.024,0-1.854-0.829-1.854-1.854V3.731h-31.657V141.48z"/>
</g>
<g>
	<path fill="#D30052" d="M90.263,145.179H1.854c-1.024,0-1.854-0.829-1.854-1.854v-35.38c0-1.024,0.829-1.854,1.854-1.854h51.192
		v-33.51c0-1.024,0.829-1.854,1.854-1.854h51.16V1.854c0-1.024,0.829-1.854,1.854-1.854h35.364c1.024,0,1.854,0.829,1.854,1.854
		v106.092c0,1.024-0.829,1.854-1.854,1.854h-51.16v33.527C92.117,144.35,91.288,145.179,90.263,145.179z M3.707,141.472H88.41
		v-33.527c0-1.024,0.829-1.854,1.854-1.854h51.16V3.707h-31.657v68.874c0,1.024-0.829,1.854-1.854,1.854h-51.16v33.51
		c0,1.024-0.829,1.854-1.854,1.854H3.707V141.472z"/>
</g>
<g>
	<path fill="#D30052" d="M718.146,339.379h-35.348c-1.024,0-1.854-0.829-1.854-1.854V233.336H576.707
		c-1.024,0-1.854-0.829-1.854-1.854v-35.364c0-1.024,0.829-1.854,1.854-1.854h141.439c1.024,0,1.854,0.829,1.854,1.854v141.407
		C720,338.55,719.171,339.379,718.146,339.379z M684.652,335.672h31.641v-137.7H578.561v31.657h104.238
		c1.024,0,1.854,0.829,1.854,1.854V335.672z"/>
</g>
<g>
	<path fill="#D30052" d="M407.676,339.379h-35.38c-1.024,0-1.854-0.829-1.854-1.854v-57.086H283.61
		c-1.024,0-1.854-0.829-1.854-1.854v-35.364c0-1.024,0.829-1.854,1.854-1.854h124.066c1.024,0,1.854,0.829,1.854,1.854v94.304
		C409.53,338.55,408.701,339.379,407.676,339.379z M374.15,335.672h31.673v-90.597H285.464v31.657h86.832
		c1.024,0,1.854,0.829,1.854,1.854V335.672z M407.676,233.288H283.61c-1.024,0-1.854-0.829-1.854-1.854V196.07
		c0-1.024,0.829-1.854,1.854-1.854h124.066c1.024,0,1.854,0.829,1.854,1.854v35.364C409.53,232.458,408.701,233.288,407.676,233.288
		z M285.464,229.581h120.359v-31.657H285.464V229.581z"/>
</g>
<g>
	<path fill="#D30052" d="M509.784,339.184H474.42c-1.024,0-1.854-0.829-1.854-1.854V268.7h-48.209c-1.024,0-1.854-0.829-1.854-1.854
		v-35.364c0-1.024,0.829-1.854,1.854-1.854h48.209v-33.51c0-1.024,0.829-1.854,1.854-1.854h85.589c1.024,0,1.854,0.829,1.854,1.854
		v35.348c0,1.024-0.829,1.854-1.854,1.854h-48.371v104.01C511.638,338.355,510.809,339.184,509.784,339.184z M476.274,335.477
		h31.657v-104.01c0-1.024,0.829-1.854,1.854-1.854h48.371v-31.64h-81.882v33.51c0,1.024-0.829,1.854-1.854,1.854h-48.209v31.657
		h48.209c1.024,0,1.854,0.829,1.854,1.854V335.477z"/>
</g>
<g>
	<path fill="#D30052" d="M257.164,288.211h-87.442c-1.024,0-1.854-0.829-1.854-1.854v-35.364c0-1.024,0.829-1.854,1.854-1.854
		h87.442c1.024,0,1.854,0.829,1.854,1.854v35.364C259.018,287.382,258.189,288.211,257.164,288.211z M171.576,284.504h83.735
		v-31.657h-83.735V284.504z"/>
</g>
<g>
	<path fill="#D30052" d="M90.247,339.379H1.854c-1.024,0-1.854-0.829-1.854-1.854v-35.348c0-1.024,0.829-1.854,1.854-1.854H53.03
		v-33.527c0-1.024,0.829-1.854,1.854-1.854h51.16V196.07c0-1.024,0.829-1.854,1.854-1.854h35.38c1.024,0,1.854,0.829,1.854,1.854
		v87.426c0,0.081,0,0.163-0.016,0.244v18.438c0,1.024-0.829,1.854-1.854,1.854H92.1v33.494
		C92.1,338.55,91.271,339.379,90.247,339.379z M3.707,335.672h84.686v-33.494c0-1.024,0.829-1.854,1.854-1.854h51.16v-16.828
		c0-0.081,0-0.163,0.016-0.244v-85.329H109.75v68.874c0,1.024-0.829,1.854-1.854,1.854h-51.16v33.527
		c0,1.024-0.829,1.854-1.854,1.854H3.707V335.672z"/>
</g>
<g>
	<path fill="#D30052" d="M213.297,205.907c-21.064,0-38.201-17.137-38.201-38.217c0-21.064,17.137-38.201,38.201-38.201
		s38.201,17.137,38.201,38.201C251.498,188.77,234.361,205.907,213.297,205.907z M213.297,133.196
		c-19.015,0-34.494,15.479-34.494,34.494c0,19.031,15.479,34.51,34.494,34.51s34.494-15.479,34.494-34.51
		C247.791,148.675,232.312,133.196,213.297,133.196z"/>
</g>
<path fill="#FFFFFF" d="M525.841,182.14l-0.034-0.499c0.749-1.049,1.148-2.281,1.065-3.813c-0.1-1.632-0.982-3.446-1.897-4.845
	l-0.083-0.233l0.1-0.1l0.6-0.933l-0.916-0.782h-0.184l0.017-0.167l-0.017-0.083c-1.948-4.495-3.845-5.627-4.429-13.935l0.167-0.716
	h1.948l0.983-1.398l-1.183-1.615h-0.916l-0.249-3.896l3.613-5.411l0.683-2.031c0-1.665-1.316-2.997-2.947-2.997h-1.666v-0.749
	l-0.849-0.866h-5.645l-0.849,0.866v0.749h-1.666c-1.631,0-2.946,1.332-2.946,2.997l0.666,2.031l3.662,5.528l-0.3,3.779h-0.882
	l-1.232,1.531l1.031,1.482h1.932l0.183,0.317c-0.566,8.625-2.165,9.773-4.162,14.335v0.117l-0.034,0.133h-0.1l-0.949,0.782
	l0.55,0.916l0.016,0.167l-0.05,0.133c-0.782,1.265-1.998,2.931-2.115,4.579c-0.116,1.631,0.383,3.229,1.199,4.295h0.034l-0.083,0.3
	h-0.067l-0.682,0.799l-0.184,1.233h19.697l-0.216-1.215L525.841,182.14"/>
<polygon fill="#FFFFFF" points="514.264,134.516 516.262,133.767 515.529,135.815 515.18,136.148 516.961,136.665 518.759,136.166 
	518.376,135.815 517.627,133.767 519.625,134.516 519.974,134.899 520.457,133.085 519.958,131.271 519.658,131.587 517.66,132.353 
	518.393,130.304 518.725,130.004 516.961,129.522 515.23,130.004 515.595,130.338 516.328,132.385 514.33,131.62 513.981,131.253 
	513.481,133.102 513.947,134.867 "/>
<polygon fill="#FFFFFF" points="309.975,184.074 302.216,184.074 293.941,169.856 293.941,184.074 286.183,184.074 286.183,155.969 
	293.941,155.67 302.216,169.856 302.216,155.969 309.975,155.67 "/>
<path fill="#FFFFFF" d="M343.553,169.979c0,6.277-4.029,14.618-13.786,14.618c-7.609,0-14.652-5.394-14.652-14.918
	c0-9.024,6.094-14.718,14.135-14.718C339.224,154.961,343.553,163.419,343.553,169.979 M322.559,167.88
	c0,6.91,5.178,10.439,8.075,10.439c2.214,0,4.545-2.214,4.545-6.743c0-4.613-2.581-10.306-7.526-10.306
	C323.041,161.271,322.559,165.783,322.559,167.88"/>
<path fill="#FFFFFF" d="M383.847,164.547c-1.715-1.531-4.379-3.496-6.993-3.496c-4.278,0-6.127,4.679-6.127,7.626
	c0,4.228,3.229,9.324,9.823,9.457v-5.228h-4.228l-1.598-6.327l13.636-0.3v17.483l-7.876,0.283c-3.596,0.15-6.909-0.416-9.723-1.531
	c-5.445-2.098-8.058-7.675-8.058-13.037c0-10.056,8.375-14.585,15.317-14.585c3.829,0,7.026,1.148,10.306,3.346L383.847,164.547z"/>
<path fill="#FFFFFF" d="M401.605,179.316l-1.482,4.762h-7.975l9.89-27.555l8.192-1.332l10.556,28.888h-8.908l-1.465-4.829
	L401.605,179.316z M408.465,172.838l-2.414-7.974l-2.531,8.141L408.465,172.838z"/>
<polygon fill="#FFFFFF" points="457.308,184.074 449.049,184.074 447.085,170.671 442.623,183.408 437.728,183.408 433.333,170.671 
	431.784,184.074 424.242,184.074 427.922,155.969 435.58,155.67 439.909,169.489 444.621,155.969 452.878,155.67 "/>
<polygon fill="#FFFFFF" points="480.004,166.449 480.004,173.043 468.681,173.109 468.681,177.804 481.752,177.404 481.319,184.081 
	460.923,184.081 460.923,155.96 481.319,155.677 481.752,162.204 468.681,162.27 468.681,166.832 "/>
<polygon fill="#FFFFFF" points="715.049,166.449 715.049,173.043 703.726,173.109 703.726,177.821 716.779,177.404 716.364,184.081 
	695.967,184.081 695.967,155.977 716.364,155.693 716.779,162.204 703.726,162.286 703.726,166.849 "/>
<polygon fill="#FFFFFF" points="577.073,184.074 569.297,184.074 561.039,169.856 561.039,184.074 553.28,184.074 553.28,155.987 
	561.039,155.687 569.297,169.856 569.297,155.987 577.073,155.687 "/>
<path fill="#FFFFFF" d="M610.441,169.979c0,6.277-4.029,14.618-13.786,14.618c-7.608,0-14.668-5.394-14.668-14.918
	c0-9.024,6.11-14.718,14.152-14.718C606.112,154.961,610.441,163.402,610.441,169.979 M589.43,167.88
	c0,6.926,5.194,10.439,8.075,10.439c2.231,0,4.545-2.214,4.545-6.743c0-4.613-2.565-10.29-7.51-10.29
	C589.929,161.287,589.43,165.783,589.43,167.88"/>
<polygon fill="#FFFFFF" points="639.248,176.888 653.017,176.423 652.55,184.081 631.472,184.081 631.472,155.96 639.248,155.677 
	"/>
<polygon fill="#FFFFFF" points="665.458,184.074 657.699,184.074 657.699,155.987 665.458,155.687 "/>
<polygon fill="#FFFFFF" points="689.944,166.434 689.944,173.111 678.639,173.111 678.639,184.084 670.863,184.084 670.863,155.962 
	691.259,155.679 691.659,162.206 678.639,162.272 678.639,166.835 "/>
<g>
	<defs>
		<rect id="SVGID_1_" x="169.589" y="56.642" width="87.426" height="35.364"/>
	</defs>
	<clipPath id="SVGID_00000111192714036912295420000010335601980128029594_">
		<use xlink:href="#SVGID_1_"  overflow="visible"/>
	</clipPath>
	
		<linearGradient id="SVGID_00000060739092118980633250000000708507380858262401_" gradientUnits="userSpaceOnUse" x1="-155.7747" y1="733.9333" x2="-139.1252" y2="733.9333" gradientTransform="matrix(0 23.1393 23.1393 0 -16769.3945 3660.8293)">
		<stop  offset="0" style="stop-color:#FFFFFF"/>
		<stop  offset="1" style="stop-color:#E50B72"/>
	</linearGradient>
	
		<rect x="169.589" y="56.643" clip-path="url(#SVGID_00000111192714036912295420000010335601980128029594_)" fill="url(#SVGID_00000060739092118980633250000000708507380858262401_)" width="87.426" height="35.364"/>
</g>
<g>
	<defs>
		<rect id="SVGID_00000122702823054400944220000000475794332764879496_" x="457.125" y="56.741" width="87.426" height="35.364"/>
	</defs>
	<clipPath id="SVGID_00000098908452560412805880000016921626578363658136_">
		<use xlink:href="#SVGID_00000122702823054400944220000000475794332764879496_"  overflow="visible"/>
	</clipPath>
	
		<linearGradient id="SVGID_00000039106045961776383840000005527823641156168843_" gradientUnits="userSpaceOnUse" x1="-155.7747" y1="745.6133" x2="-139.1252" y2="745.6133" gradientTransform="matrix(0 23.1394 23.1394 0 -16752.2344 3660.8523)">
		<stop  offset="0" style="stop-color:#FFFFFF"/>
		<stop  offset="1" style="stop-color:#E50B72"/>
	</linearGradient>
	
		<rect x="457.124" y="56.742" clip-path="url(#SVGID_00000098908452560412805880000016921626578363658136_)" fill="url(#SVGID_00000039106045961776383840000005527823641156168843_)" width="87.426" height="35.363"/>
</g>
<g>
	<defs>
		<path id="SVGID_00000078015060709712692410000015518846844885695362_" d="M384.966,92.372h17.898V57.009h-17.898V92.372z
			 M407.227,92.372h17.865V57.009h-17.865V92.372z M283.621,1.865V68.33h35.38V52.779h26.19v55.193h-61.57v35.364h96.934V52.779
			h44.537V17.416H319.001V1.865H283.621z"/>
	</defs>
	<clipPath id="SVGID_00000119089057544985639270000004783845220181346959_">
		<use xlink:href="#SVGID_00000078015060709712692410000015518846844885695362_"  overflow="visible"/>
	</clipPath>
	
		<linearGradient id="SVGID_00000011030347053443738230000014739336298139457441_" gradientUnits="userSpaceOnUse" x1="-155.7747" y1="739.6631" x2="-139.1252" y2="739.6631" gradientTransform="matrix(0 23.1393 23.1393 0 -16760.9316 3660.8313)">
		<stop  offset="0" style="stop-color:#FFFFFF"/>
		<stop  offset="1" style="stop-color:#E50B72"/>
	</linearGradient>
	
		<rect x="283.62" y="1.866" clip-path="url(#SVGID_00000119089057544985639270000004783845220181346959_)" fill="url(#SVGID_00000011030347053443738230000014739336298139457441_)" width="141.47" height="141.471"/>
</g>
<g>
	<defs>
		<polygon id="SVGID_00000123416811232106871260000010363856561118820746_" points="576.568,1.883 576.568,143.336 718.038,143.336 
			718.038,71.86 682.675,71.86 682.675,107.956 611.931,107.956 611.931,1.883 		"/>
	</defs>
	<clipPath id="SVGID_00000036954069288075929420000008454657408806556093_">
		<use xlink:href="#SVGID_00000123416811232106871260000010363856561118820746_"  overflow="visible"/>
	</clipPath>
	
		<linearGradient id="SVGID_00000042735087407178612210000003350019575444074371_" gradientUnits="userSpaceOnUse" x1="-155.7747" y1="751.5629" x2="-139.1252" y2="751.5629" gradientTransform="matrix(0 23.1393 23.1393 0 -16743.3242 3660.8289)">
		<stop  offset="0" style="stop-color:#FFFFFF"/>
		<stop  offset="1" style="stop-color:#E50B72"/>
	</linearGradient>
	
		<rect x="576.567" y="1.883" clip-path="url(#SVGID_00000036954069288075929420000008454657408806556093_)" fill="url(#SVGID_00000042735087407178612210000003350019575444074371_)" width="141.471" height="141.453"/>
</g>
<g>
	<defs>
		<polygon id="SVGID_00000122707223713706760010000004950593152397036936_" points="107.919,1.865 107.919,72.592 54.89,72.592 
			54.89,107.956 1.862,107.956 1.862,143.336 90.254,143.336 90.254,107.956 143.265,107.956 143.265,89.292 143.282,89.292 
			143.282,1.865 		"/>
	</defs>
	<clipPath id="SVGID_00000103961947467793294710000013607215002267546045_">
		<use xlink:href="#SVGID_00000122707223713706760010000004950593152397036936_"  overflow="visible"/>
	</clipPath>
	
		<linearGradient id="SVGID_00000120523648798876477600000004920716776865300904_" gradientUnits="userSpaceOnUse" x1="-155.7747" y1="728.2168" x2="-139.1252" y2="728.2168" gradientTransform="matrix(0 23.1393 23.1393 0 -16777.8574 3660.8313)">
		<stop  offset="0" style="stop-color:#FFFFFF"/>
		<stop  offset="1" style="stop-color:#E50B72"/>
	</linearGradient>
	
		<rect x="1.861" y="1.866" clip-path="url(#SVGID_00000103961947467793294710000013607215002267546045_)" fill="url(#SVGID_00000120523648798876477600000004920716776865300904_)" width="141.42" height="141.471"/>
</g>
<g>
	<defs>
		<polygon id="SVGID_00000089540434052392011320000007980975322038009777_" points="576.701,196.132 576.701,231.478 
			682.809,231.478 682.809,337.535 718.155,337.535 718.155,196.132 		"/>
	</defs>
	<clipPath id="SVGID_00000062900994648514242980000013010797523961272488_">
		<use xlink:href="#SVGID_00000089540434052392011320000007980975322038009777_"  overflow="visible"/>
	</clipPath>
	
		<linearGradient id="SVGID_00000158018548844036162750000001633391775180795525_" gradientUnits="userSpaceOnUse" x1="-148.4483" y1="752.0409" x2="-131.7988" y2="752.0409" gradientTransform="matrix(0 22.2469 22.2469 0 -16083.1299 3533.488)">
		<stop  offset="0" style="stop-color:#FFFFFF"/>
		<stop  offset="1" style="stop-color:#E50B72"/>
	</linearGradient>
	
		<rect x="576.7" y="196.133" clip-path="url(#SVGID_00000062900994648514242980000013010797523961272488_)" fill="url(#SVGID_00000158018548844036162750000001633391775180795525_)" width="141.455" height="141.404"/>
</g>
<g>
	<defs>
		<path id="SVGID_00000127757469754763779340000010233399582777616821_" d="M283.604,243.217v35.363h88.692v58.956h35.38v-94.319
			H283.604z M283.604,231.445h124.072v-35.364H283.604V231.445z"/>
	</defs>
	<clipPath id="SVGID_00000115486426055153015460000002848609520234393254_">
		<use xlink:href="#SVGID_00000127757469754763779340000010233399582777616821_"  overflow="visible"/>
	</clipPath>
	
		<linearGradient id="SVGID_00000149342635713398864660000003383469899521923231_" gradientUnits="userSpaceOnUse" x1="-148.4483" y1="739.2902" x2="-131.7988" y2="739.2902" gradientTransform="matrix(0 22.2468 22.2468 0 -16101.1914 3533.4749)">
		<stop  offset="0" style="stop-color:#FFFFFF"/>
		<stop  offset="1" style="stop-color:#E50B72"/>
	</linearGradient>
	
		<rect x="283.603" y="196.081" clip-path="url(#SVGID_00000115486426055153015460000002848609520234393254_)" fill="url(#SVGID_00000149342635713398864660000003383469899521923231_)" width="124.071" height="141.454"/>
</g>
<g>
	<defs>
		<polygon id="SVGID_00000121243599976239421600000004307084685197037985_" points="474.44,196.132 474.44,231.478 424.359,231.478 
			424.359,266.858 474.44,266.858 474.44,337.335 509.804,337.335 509.804,231.478 560.001,231.478 560.001,196.132 		"/>
	</defs>
	<clipPath id="SVGID_00000018215219654089346940000014896733924984161688_">
		<use xlink:href="#SVGID_00000121243599976239421600000004307084685197037985_"  overflow="visible"/>
	</clipPath>
	
		<linearGradient id="SVGID_00000052813051667489459230000008962124963544248213_" gradientUnits="userSpaceOnUse" x1="-148.4483" y1="745.4816" x2="-131.7988" y2="745.4816" gradientTransform="matrix(0 22.2469 22.2469 0 -16092.4648 3533.4905)">
		<stop  offset="0" style="stop-color:#FFFFFF"/>
		<stop  offset="1" style="stop-color:#E50B72"/>
	</linearGradient>
	
		<rect x="424.359" y="196.133" clip-path="url(#SVGID_00000018215219654089346940000014896733924984161688_)" fill="url(#SVGID_00000052813051667489459230000008962124963544248213_)" width="135.643" height="141.203"/>
</g>
<g>
	<defs>
		<rect id="SVGID_00000044163601367206300160000004592111028611644855_" x="169.722" y="250.992" width="87.426" height="35.364"/>
	</defs>
	<clipPath id="SVGID_00000080185596645834258630000008564884993796129682_">
		<use xlink:href="#SVGID_00000044163601367206300160000004592111028611644855_"  overflow="visible"/>
	</clipPath>
	
		<linearGradient id="SVGID_00000133506143603783383300000014994203812372051357_" gradientUnits="userSpaceOnUse" x1="-148.4486" y1="733.7048" x2="-131.7992" y2="733.7048" gradientTransform="matrix(0 22.2479 22.2479 0 -16109.9805 3533.6519)">
		<stop  offset="0" style="stop-color:#FFFFFF"/>
		<stop  offset="1" style="stop-color:#E50B72"/>
	</linearGradient>
	
		<rect x="169.722" y="250.992" clip-path="url(#SVGID_00000080185596645834258630000008564884993796129682_)" fill="url(#SVGID_00000133506143603783383300000014994203812372051357_)" width="87.426" height="35.364"/>
</g>
<g>
	<defs>
		<polygon id="SVGID_00000046311102160037940730000017166225772962587062_" points="107.902,196.082 107.902,266.809 54.89,266.809 
			54.89,302.189 1.845,302.189 1.845,337.535 90.254,337.535 90.254,302.189 143.249,302.189 143.249,283.492 143.282,283.492 
			143.282,196.082 		"/>
	</defs>
	<clipPath id="SVGID_00000060749888079801037950000001181853614805026451_">
		<use xlink:href="#SVGID_00000046311102160037940730000017166225772962587062_"  overflow="visible"/>
	</clipPath>
	
		<linearGradient id="SVGID_00000120556179427977333990000017291021039337786274_" gradientUnits="userSpaceOnUse" x1="-148.4483" y1="727.7526" x2="-131.7988" y2="727.7526" gradientTransform="matrix(0 22.2468 22.2468 0 -16117.5938 3533.4749)">
		<stop  offset="0" style="stop-color:#FFFFFF"/>
		<stop  offset="1" style="stop-color:#E50B72"/>
	</linearGradient>
	
		<rect x="1.844" y="196.082" clip-path="url(#SVGID_00000060749888079801037950000001181853614805026451_)" fill="url(#SVGID_00000120556179427977333990000017291021039337786274_)" width="141.437" height="141.453"/>
</g>
<path fill="#FFFFFF" d="M249.644,167.686c0,20.063-16.284,36.363-36.346,36.363s-36.346-16.3-36.346-36.363
	c0-20.062,16.284-36.346,36.346-36.346S249.644,147.624,249.644,167.686"/>
<path fill="#E50B72" d="M210.078,156.222v-16.749c0-1.765,1.432-3.229,3.229-3.229c1.782,0,3.214,1.464,3.214,3.229v16.749
	c0,1.765-1.432,3.214-3.214,3.214C211.51,159.437,210.078,157.988,210.078,156.222"/>
<path fill="#E50B72" d="M186.494,168.71c0-9.123,4.579-17.215,11.554-22.027l4.479,0.816l-0.799,4.462
	c-5.328,3.696-8.791,9.806-8.791,16.749c0.016,11.239,9.124,20.346,20.345,20.363c11.255-0.016,20.362-9.123,20.379-20.363
	c0-6.959-3.496-13.086-8.824-16.765l-0.849-4.478l4.479-0.833c7.026,4.829,11.638,12.92,11.638,22.077
	c-0.016,14.818-12.004,26.789-26.822,26.789C198.481,195.499,186.494,183.528,186.494,168.71"/>
</svg>
