<?xml version="1.0" encoding="utf-8"?>
<!-- Generator: Adobe Illustrator 27.2.0, SVG Export Plug-In . SVG Version: 6.00 Build 0)  -->
<svg version="1.1" id="logo" xmlns="http://www.w3.org/2000/svg" xmlns:xlink="http://www.w3.org/1999/xlink" x="0px" y="0px"
	 viewBox="0 0 720 281.328" enable-background="new 0 0 720 281.328" xml:space="preserve">
<path fill="#FF6BC2" d="M145.345,184.978c-0.721,0.961-1.441,1.682-1.922,2.643c-5.526,7.688-12.252,13.694-20.42,18.258
	c-12.252,7.207-25.706,10.09-39.64,10.09c-6.727,0-13.213-0.721-19.7-2.402c-9.369-2.402-17.778-6.486-25.465-12.492
	c-6.967-5.285-12.733-12.012-17.057-19.7c-7.447-12.733-10.33-26.667-10.09-41.321c0-6.967,0.721-14.174,2.643-20.901
	c0.721-2.643,1.682-5.285,2.643-7.928c0-1.201-0.24-2.162-0.721-3.123c-1.441-1.922-2.643-4.084-3.844-6.006
	c-5.045-8.649-6.967-18.258-7.447-28.108c-0.24-6.486,0-12.733,1.201-18.979c1.201-5.766,3.123-11.291,6.006-16.577
	c4.084-7.688,9.61-14.174,16.577-19.7c4.084-3.363,8.649-6.246,13.453-8.649C50.45,5.518,60.06,2.635,69.91,1.194
	c20.18-2.883,39.88-0.721,58.619,8.408c9.61,4.565,18.018,10.811,24.985,19.219l0.721,0.721c-0.721,1.201-1.922,1.922-2.883,2.883
	s-2.162,1.682-3.123,2.883c-0.48-0.48-0.961-0.961-1.441-1.682c-8.408-9.61-18.739-16.336-30.511-20.901
	C104.504,8.401,92.252,6.96,79.76,7.68c-13.213,0.961-25.706,4.084-37.237,10.811C30.751,25.218,21.862,34.828,16.577,47.32
	c-2.883,6.967-3.844,14.414-3.844,22.102s0.961,15.375,4.084,22.583c1.201,2.643,2.643,5.285,4.084,7.688
	c0,0.24,0.24,0.24,0.48,0.48c1.201-1.682,2.162-3.123,3.363-4.565c5.526-7.688,12.492-13.934,20.661-18.739
	c13.453-7.928,28.108-10.811,43.483-10.09c11.291,0.48,21.862,3.123,31.712,8.408c7.688,4.084,14.414,9.129,20.18,15.616
	c6.486,7.447,11.051,15.856,13.934,25.225c3.844,12.252,4.565,24.505,2.883,37.237c-0.961,7.447-2.883,14.655-6.006,21.381
	c-0.48,0.961-0.48,1.922,0,2.883c4.805,7.207,6.967,15.375,7.928,24.024c0.961,10.33,0.24,20.661-2.883,30.511
	c-2.643,8.168-6.967,15.375-12.492,22.102c-5.526,6.727-12.252,12.012-19.7,16.096c-6.246,3.363-12.733,5.766-19.7,7.688
	c-8.408,2.162-17.297,3.123-25.946,3.123c-12.973,0-25.946-1.922-38.198-6.246c-14.895-5.285-28.108-13.213-39.159-24.745
	c-0.48-0.48-0.721-0.961-1.441-1.682c2.162-1.922,4.084-3.604,6.246-5.526l1.441,1.441c8.649,9.129,18.739,16.096,30.27,20.901
	c10.33,4.324,21.141,6.967,32.432,7.928c7.928,0.721,16.096,0.24,24.024-0.961c8.168-1.441,15.856-3.844,23.303-7.688
	c10.09-5.045,18.498-12.252,24.745-21.622c5.766-8.889,8.649-18.739,9.129-29.309c0.24-6.967-0.24-13.694-2.162-20.42
	C147.988,190.263,147.027,187.861,145.345,184.978z M25.465,106.419l1.441,1.441c6.486,6.967,14.414,12.252,23.063,16.336
	c9.61,4.565,19.459,7.928,29.309,11.291c12.493,4.324,24.985,8.408,36.997,13.934c10.571,4.805,20.18,10.571,28.108,19.219
	c0.24,0.48,0.721,0.721,1.201,0.961l0.721-1.441c0.721-2.402,1.682-5.045,2.402-7.447c2.162-8.168,2.643-16.336,2.162-24.745
	c-0.961-15.616-5.766-29.79-16.096-41.802c-4.805-5.766-10.571-10.33-17.057-13.934c-7.928-4.324-16.096-6.967-24.985-7.688
	c-9.129-0.721-18.498-0.48-27.387,1.922c-11.772,3.123-21.862,9.129-30.27,18.018C31.231,96.81,28.108,101.134,25.465,106.419z
	 M21.381,115.548c-0.48,1.441-0.961,2.883-1.201,4.324c-4.565,17.057-3.844,34.114,2.883,50.931
	c4.084,9.85,10.33,18.258,18.739,24.985c8.408,6.727,17.778,11.291,28.348,13.213c7.447,1.441,14.895,1.441,22.342,0.721
	c9.129-0.961,17.538-3.604,25.465-8.168c5.526-3.123,10.33-6.967,14.895-11.532c2.883-3.123,5.526-6.486,7.688-10.09
	c0.48-0.721,0.721-1.441,0-2.162c-2.643-2.883-5.045-5.766-7.928-8.408c-6.967-6.246-14.655-10.811-23.063-14.414
	c-6.727-2.883-13.694-5.285-20.42-7.688c-12.973-4.565-26.186-8.408-38.919-13.934c-10.09-4.324-19.219-9.369-27.387-16.817
	C22.342,116.029,22.102,115.789,21.381,115.548z M720,141.014c-0.24,14.414-1.922,28.829-6.006,42.763
	c-6.006,20.901-16.096,39.64-30.991,55.495c-13.453,14.414-29.549,25.225-47.808,32.432c-17.538,6.967-35.556,9.85-54.294,9.61
	c-15.135-0.24-30.03-2.402-44.444-7.447c-16.336-5.766-31.231-13.934-44.204-25.465c-16.817-14.655-28.829-32.673-36.517-53.574
	c-4.565-11.772-7.207-24.024-8.408-36.757c-1.441-13.213-1.201-26.426,0.48-39.64c3.123-23.063,11.291-44.444,24.985-63.423
	c12.012-16.817,27.147-29.79,45.646-39.159c13.453-6.967,27.868-11.532,42.763-13.694c11.051-1.682,22.102-1.922,33.393-1.201
	c9.85,0.721,19.219,2.162,28.589,5.045c18.258,5.285,34.835,13.934,49.49,26.426c17.537,15.135,30.03,33.634,38.198,55.255
	c4.324,11.532,6.967,23.303,8.168,35.556C719.279,129.002,719.52,135.008,720,141.014z M711.351,140.533
	c0-8.649-0.721-17.778-2.402-26.667c-3.363-18.739-10.33-36.276-21.381-52.132c-6.487-9.369-14.174-17.778-23.063-25.225
	c-8.649-6.967-18.018-12.733-28.108-17.297c-12.973-6.006-26.667-9.369-40.841-10.571c-7.928-0.721-15.856-0.721-23.784-0.24
	c-9.85,0.721-19.459,2.402-29.069,5.285c-21.622,6.967-40.12,18.498-55.255,35.315c-12.252,13.694-21.141,29.55-26.667,46.847
	c-3.604,11.291-5.766,22.823-6.486,34.595c-0.721,12.493-0.24,24.985,1.922,37.237c2.162,11.772,5.766,23.063,10.811,34.114
	c7.207,15.616,17.057,29.069,29.79,40.601c12.252,11.051,26.426,18.979,42.042,24.505c11.291,3.844,22.823,5.766,34.595,6.486
	c16.336,0.961,32.192-0.48,47.808-5.045c15.135-4.324,28.829-11.532,41.321-21.381c20.42-16.096,33.874-36.997,41.802-61.742
	C709.429,170.804,711.591,156.149,711.351,140.533L711.351,140.533z"/>
<path fill="#FF6BC2" d="M353.874,129.723L488.889,8.161h-11.051L343.063,129.723l141.742,144.144h11.051L353.874,129.723z"/>
<path fill="#FF6BC2" d="M343.063,8.161l-160-0.24v265.946h160.24V15.368L343.063,8.161z M326.246,266.419H190.991V139.572h135.255
	C326.246,139.572,326.246,266.419,326.246,266.419z M326.246,132.125H190.991V15.368h135.255V132.125z M335.135,266.419h-1.201
	V15.368h1.201V266.419z"/>
</svg>
