<?xml version="1.0" encoding="utf-8"?>
<!-- Generator: Adobe Illustrator 27.0.1, SVG Export Plug-In . SVG Version: 6.00 Build 0)  -->
<svg version="1.1" id="레이어_1" xmlns="http://www.w3.org/2000/svg" xmlns:xlink="http://www.w3.org/1999/xlink" x="0px"
	 y="0px" viewBox="0 0 720 154.415" enable-background="new 0 0 720 154.415" xml:space="preserve">
<path fill="#E75297" d="M8.926,105.732H8.799c-6.517,0-8.646-8.621-8.646-11.409c0.026-3.296,1.293-3.803,6.136-6.085
	c20.005-8.622,25.507-23.581,27.89-33.977l0.33-1.521H6.922C2.359,52.739,0,52.232,0,45.133c0-7.86,2.232-8.114,8.139-8.114
	c0.203,0,0.405,0,0.608,0h27.131v-12.17c0-6.339,0-8.875,7.886-8.875h0.634c7.759,0.253,7.759,2.282,7.733,8.875v12.17h30.655
	c4.64,0,7.048,0.508,7.048,8.114s-2.56,7.606-8.722,7.606c-0.026,0-0.026,0-0.051,0H54.413l0.355,1.521
	c1.496,6.086,6.111,24.849,27.739,34.23c4.945,2.029,6.643,3.043,6.643,6.339c0,4.311-3.93,10.903-8.595,10.903
	c-4.082,0-12.424-5.071-17.85-9.634c-7.277-6.339-12.855-14.453-16.126-23.581l-0.938-2.789l-1.217,2.789
	c-2.257,4.565-6.415,13.438-16.988,22.821C21.983,100.154,13.844,105.732,8.926,105.732"/>
<path fill="#E75297" d="M217.55,56.543l-3.221-2.282c-0.862-1.268-2.865-4.565-6.617-13.185l-0.33-0.507H190.47l-4.842-0.508
	l-1.623-3.296l1.598-4.057c0.71-0.508,2.206-0.508,4.868-0.508h14.098l-0.405-1.521c-0.634-2.282-0.735-3.043-0.735-4.057
	c0-0.761,0-3.043,5.324-3.043c2.485,0,3.245,0.508,3.727,1.521c0.355,0.761,0.71,2.282,1.521,5.832l0.203,1.014l0.989-0.254
	c4.26,0,5.755-0.254,9.001-0.761c2.865-0.507,3.448-0.507,3.575-0.507c2.789,0,3.372,2.535,3.372,4.818
	c0,3.296-0.912,3.803-12.424,4.817h-1.724l0.887,1.775c1.04,2.282,2.105,4.311,4.184,7.353l1.37,3.043
	C223.432,55.275,219.223,56.543,217.55,56.543 M212.961,72.516c-15.062,0-26.624-0.761-26.624-11.916c0-2.029,0-7.1,7.201-11.41
	l5.502-1.775c2.84,0,3.803,2.79,3.803,4.311l-2.206,2.282c-4.031,2.028-4.893,4.057-4.893,5.578c0,4.818,6.136,4.818,11.055,4.818
	s7.606-0.254,9.559-0.254h0.736l4.26-0.254c2.637,0,3.752,1.014,3.752,4.057l-1.927,3.803
	C222.013,72.263,219.527,72.516,212.961,72.516"/>
<path fill="#F5AC3C" d="M255.507,108.267c-5.427,0-8.52-1.774-10.294-5.831c-0.609-1.268-0.888-3.296-0.812-5.578l0.127-2.789
	l0.05-1.267l0.051-1.014c0-2.028,0-4.564-3.271-4.564c-3.676,0-6.289,3.043-7.835,9.381l-0.989,4.057l-1.217,4.818l-2.992,2.536
	c-1.547,0-5.781-0.761-5.781-3.803l0.026-1.014l11.613-40.823c0.912-2.535,1.42-3.549,4.133-3.549c0.076,0,5.958,0,5.958,3.296
	l-1.901,6.592l-1.192,3.043c-1.42,3.803-1.725,4.564-2.637,7.353l-0.989,2.79l2.637-1.521l5.096-1.521
	c1.42,0,6.136,0.507,7.48,5.831c0.304,1.268,0.38,2.282,0.304,5.578l-0.051,4.818c0,3.803,2.46,4.057,3.525,4.057
	c4.691,0,5.401-5.832,6.288-13.185c0.228-1.775,0.659-3.296,3.576-3.296c2.612,0,5.4,1.267,5.4,4.564
	c0,1.267-0.431,6.339-2.485,11.663C267.627,103.197,263.849,108.267,255.507,108.267"/>
<path fill="#F5AC3C" d="M488.448,43.865l-2.459,5.324h11.536l-0.583-1.521l-1.09-2.789l-0.405-1.014H488.448 M480.613,60.092
	l-0.355,0.508l-2.256,3.043l-1.496,2.028h30.173l-1.42-2.028l-2.129-3.043l-0.355-0.508H480.613 M475.313,76.827v19.524h32.607
	V76.827H475.313 M514.513,111.564c-6.111,0-6.39-1.014-6.644-2.028l-0.253-0.761h-31.745l-0.355,0.507l-2.383,1.775l-5.122,0.507
	c-9.534,0-9.534-2.282-9.534-9.634V81.898l-2.129,1.521l-3.702,1.775l-1.648,0.253c-2.612,0-4.565-2.535-5.528-3.803l-2.434-7.353
	c0-3.043,0.634-3.804,6.896-7.861c3.018-1.774,4.716-3.043,6.111-4.31l2.536-2.029h-10.319c-2.764,0-6.06-1.014-6.06-5.578
	c0-3.043,1.243-4.817,3.702-5.577l2.359-0.254h19.701l0.355-0.508l0.786-1.521l0.583-1.014l0.836-1.775h-15.442l-4.209-1.267
	l-1.623-3.55c0-2.282,1.166-4.057,3.499-4.564l2.332-0.254h19.549l0.254-0.761l0.177-0.507l0.609-2.029l0.836-1.521h-26.039
	l-4.513-1.521l-1.445-4.564c0-2.79,1.42-4.818,3.93-5.324l2.029-0.254h28.17l0.253-0.761l4.158-4.057l5.122-0.507
	c6.592,0,7.505,2.282,7.86,4.31l0.152,1.014h35.98c4.665,0,6.567,1.775,6.567,6.085c0,2.79-1.217,4.564-3.778,5.071l-2.789,0.507
	h-38.008l-0.405,1.521l-0.457,1.775l-0.33,1.521h35.092l4.31,1.267l1.648,3.55c0,2.282-1.192,3.803-3.549,4.564l-2.409,0.254
	h-16.101l1.394,2.028l1.623,2.282l0.355,0.508h19.346l4.564,1.267l1.699,4.564c0.026,2.79-1.268,4.565-3.778,5.325l-2.485,0.253
	h-10.015l2.89,2.029c2.079,1.521,3.905,2.789,8.646,5.578c3.499,2.028,4.108,3.296,4.108,5.578c0,2.789-2.942,10.396-7.784,11.917
	h-1.42l-4.539-1.521l-1.774-1.014v19.27c-0.026,6.085-0.178,8.113-3.804,8.874C519.483,111.311,517.378,111.564,514.513,111.564"/>
<path fill="#E75297" d="M401.352,112.831h-35.574c-3.525-0.507-6.111-1.774-7.886-4.056c-1.597-1.775-1.876-4.057-1.876-7.86V84.687
	c0-4.057,0-7.099,1.167-8.875c1.166-1.775,3.752-2.536,8.621-2.536l3.474,0.254c0.381,0,0.735,0,1.039,0
	c-2.256,3.55-1.293,8.368,2.232,10.903l3.423,0.761v2.282c0,2.283,0,5.832,4.209,6.086h10.497l4.184-3.296
	c0.761-3.55,1.141-5.324,6.237-5.324l2.256,0.253c3.702,0.254,7.353,1.268,9.128,2.536c2.358,1.775,2.358,4.057,2.358,5.071
	c0,1.521-0.685,8.114-2.738,12.424C411.265,107.254,408.73,112.831,401.352,112.831"/>
<path fill="#E75297" d="M427.341,107.76h-0.736c-2.155-0.253-4.361-1.267-5.73-7.099c-1.648-6.846-2.51-9.888-6.517-18.509
	c-1.343-3.043-1.876-4.818-1.876-6.593c0-2.789,0.964-4.31,3.525-5.832c3.296-1.774,7.201-3.043,9.23-3.043h0.888
	c3.98,0.254,5.477,3.296,9.153,10.396c2.434,4.564,6.111,12.932,6.694,16.988c0.507,3.043-0.203,5.578-2.029,7.606
	C436.215,106.239,428.684,107.76,427.341,107.76"/>
<path fill="#E75297" d="M339.434,109.282h-0.837c-6.288-0.507-12.678-7.099-12.678-12.931c0-1.268,0.152-2.029,1.75-5.324
	c1.04-1.775,5.122-13.185,5.882-15.721c1.293-4.818,2.384-6.592,6.237-6.592l0.888,0.253c2.586,0.254,5.122,1.268,7.049,2.282
	c3.194,1.522,4.336,3.296,4.336,6.339c0,1.775-1.09,7.1-3.068,14.707C344.657,108.014,342.197,109.282,339.434,109.282"/>
<path fill="#E75297" d="M353.785,16.481v27.891h60.422V16.481H353.785 M418.441,59.838h-20.716c-0.05-2.535-1.243-5.071-3.448-6.592
	c-1.395-1.014-3.018-1.268-4.615-1.268c-2.536,0-5.02,1.014-6.593,3.296l-1.648,2.282l-2.332-1.521
	c-1.395-1.014-3.018-1.521-4.615-1.521c-2.536,0-5.02,1.268-6.593,3.55c-0.405,0.507-0.735,1.014-0.963,1.774h-17.85
	c-2.763,0-4.945,0-6.795-0.253l-4.969-1.268c-4.437-2.789-4.437-6.846-4.437-14.706V16.228c0-5.832,0-9.382,1.546-11.917
	C337.202,0,340.93,0,349.094,0h69.322c2.789,0,4.995,0,6.846,0.254l4.944,1.267c4.437,2.79,4.437,6.593,4.437,14.707v28.398
	c0.026,5.324,0.026,8.367-1.42,10.649C430.434,59.838,426.428,59.838,418.441,59.838"/>
<path fill="#F5BED6" d="M372.548,84.434l6.009,1.267l5.198-3.296l1.648-2.282l2.307,1.521l6.035,1.268l5.198-3.296
	c2.536-3.55,1.648-8.621-1.978-11.156l-2.358-1.521l1.648-2.536c2.56-3.55,1.674-8.621-1.978-11.156
	c-3.626-2.536-8.672-1.521-11.208,2.028l-1.647,2.283l-2.333-1.522c-3.651-2.535-8.646-1.774-11.208,2.029
	c-2.535,3.549-1.673,8.621,1.978,11.156l2.333,1.521l-1.623,2.536C368.009,76.827,368.897,81.898,372.548,84.434 M382.412,63.135
	c2.713-0.253,5.273,1.522,5.73,4.057c0.482,2.789-1.319,5.325-4.006,5.832c-2.688,0.507-5.249-1.267-5.731-4.057
	C377.948,66.178,379.723,63.642,382.412,63.135"/>
<path fill="#F5AC3C" d="M677.751,98.886c-0.583,0-1.192-0.253-1.775-0.253l-1.775-0.508c-5.35-1.774-8.114-7.86-6.162-13.185
	l16.38-67.952c1.598-4.311,6.39-13.185,16.304-13.185c2.18,0,4.615,0.508,7.302,1.522c14.833,5.324,12.475,18.763,10.548,24.087
	L687.462,92.04C685.941,96.097,681.986,98.886,677.751,98.886"/>
<path fill="#F5AC3C" d="M666.545,132.355c-1.497,0-3.018-0.253-4.488-0.761c-6.795-2.535-10.32-9.888-7.861-16.734
	c1.953-5.325,6.973-8.622,12.349-8.622c1.47,0,2.991,0.254,4.487,0.761c6.795,2.536,10.32,9.889,7.835,16.735
	C676.94,129.059,671.895,132.355,666.545,132.355"/>
<path fill="#231815" d="M5.122,124.242l1.243-2.283l1.978-1.267l2.637-0.507l2.636,0.507l1.978,1.267l1.243,2.283l0.431,2.535
	l-0.431,2.536l-1.243,2.282l-1.978,1.268l-2.636,0.507l-2.637-0.507l-1.978-1.268l-1.243-2.282l-0.431-2.536L5.122,124.242
	 M7.708,128.298l0.583,1.522l1.065,1.014l1.623,0.254l1.623-0.254l1.065-1.014l0.608-1.522l0.178-1.521l-0.178-1.521l-0.608-1.521
	l-1.065-1.014l-1.623-0.254l-1.623,0.254l-1.065,1.014l-0.583,1.521l-0.204,1.521L7.708,128.298z"/>
<path fill="#231815" d="M32.379,126.523l0.963-1.521l1.521-1.014l1.952-0.254l1.978,0.254l1.521,1.014l0.963,1.521l0.355,2.029
	l-0.355,2.028l-0.963,1.521l-1.521,1.014l-1.978,0.254l-1.952-0.254l-1.521-1.014l-0.963-1.521l-0.33-2.028L32.379,126.523
	 M34.687,129.566l0.38,1.014l0.685,0.761l1.065,0.254l1.09-0.254l0.71-0.761l0.354-1.014l0.101-1.014l-0.101-1.014l-0.354-1.014
	l-0.71-0.761l-1.09-0.253l-1.065,0.253l-0.685,0.761l-0.38,1.014l-0.102,1.014L34.687,129.566z"/>
<polyline fill="#231815" points="60.119,135.905 58.064,136.412 56.517,136.412 56.517,134.131 57.253,134.384 57.988,134.384 
	58.749,133.877 58.977,133.116 58.876,132.609 55.631,123.989 58.344,123.989 60.423,130.327 60.473,130.327 62.502,123.989 
	65.113,123.989 61.259,134.384 60.119,135.905 "/>
<path fill="#231815" d="M79.743,125.256l1.014-1.014l1.37-0.507h2.941l1.319,0.507l0.963,0.761l0.355,1.268v4.818l0.076,1.267
	l0.254,0.761h-2.587l-0.101-0.507l-0.076-0.254l-1.42,0.761l-1.674,0.254l-1.242-0.254l-1.014-0.507l-0.659-0.761l-0.254-1.268
	l0.279-1.267l0.735-0.761l0.989-0.508l1.141-0.253h1.116l0.989-0.254l0.685-0.254l0.228-0.761l-0.127-0.507l-0.355-0.507h-0.532
	l-0.634-0.254l-1.166,0.507l-0.508,1.014h-2.536L79.743,125.256 M84.764,128.805l-0.508,0.254h-1.192l-0.558,0.254l-0.481,0.254
	l-0.33,0.253l-0.127,0.761l0.127,0.508l0.33,0.507h1.09l1.166-0.254l0.608-0.507l0.228-0.761l0.051-0.507v-1.014L84.764,128.805z"/>
<rect x="103.095" y="127.283" fill="#231815" width="5.375" height="2.03"/>
<polyline fill="#231815" points="125.966,130.833 126.397,131.341 127.005,131.595 128.298,131.595 128.831,131.341 
	129.237,131.087 129.414,130.58 128.654,129.566 126.523,129.059 125.433,128.805 124.495,128.298 123.836,127.538 123.582,126.523 
	123.937,125.256 124.851,124.242 126.143,123.734 129.085,123.734 130.327,124.242 131.265,125.256 131.696,126.523 
	129.287,126.523 128.729,125.509 127.538,125.256 127.081,125.509 126.625,125.509 126.27,125.763 126.143,126.27 126.372,126.777 
	127.031,127.03 127.943,127.284 129.009,127.538 130.099,127.791 131.037,128.298 131.696,129.059 131.95,130.073 131.569,131.595 
	130.631,132.608 129.262,133.116 127.715,133.369 126.143,133.116 124.774,132.608 123.785,131.595 123.38,130.073 125.788,130.073 
	125.966,130.833 "/>
<path fill="#231815" d="M147.188,125.256l1.014-1.014l1.37-0.507h2.941l1.319,0.507l0.963,0.761l0.38,1.268v4.818l0.051,1.267
	l0.254,0.761h-2.561l-0.127-0.507l-0.05-0.254l-1.445,0.761l-1.674,0.254l-1.242-0.254l-1.014-0.507l-0.659-0.761l-0.228-1.268
	l0.254-1.267l0.735-0.761l0.989-0.508l1.141-0.253h1.141l0.963-0.254l0.685-0.254l0.228-0.761l-0.127-0.507l-0.355-0.507H151.6
	l-0.634-0.254l-1.166,0.507l-0.508,1.014h-2.536L147.188,125.256 M152.209,128.805l-0.508,0.254h-1.192l-0.558,0.254l-0.481,0.254
	l-0.33,0.253l-0.127,0.761l0.127,0.508l0.33,0.507h1.09l1.166-0.254l0.608-0.507l0.254-0.761l0.026-0.507v-1.014L152.209,128.805z"
	/>
<polyline fill="#231815" points="172.975,123.988 172.975,125.256 173.026,125.256 174.293,123.988 175.865,123.735 
	177.539,123.988 178.553,124.749 179.086,126.017 179.238,127.538 179.238,133.116 176.702,133.116 176.702,128.045 176.348,126.27 
	175.079,125.763 173.558,126.27 173.102,128.298 173.102,133.116 170.567,133.116 170.567,123.988 172.975,123.988 "/>
<polyline fill="#231815" points="220.973,133.115 219.325,127.03 219.274,127.03 217.702,133.115 215.066,133.115 212.149,123.988 
	214.812,123.988 216.536,130.073 216.561,130.073 218.108,123.988 220.567,123.988 222.139,130.073 222.19,130.073 223.889,123.988 
	226.501,123.988 223.585,133.115 220.973,133.115 "/>
<path fill="#231815" d="M241.332,125.256l1.014-1.014l1.37-0.507h2.941l1.293,0.507l0.963,0.761l0.381,1.268v4.818l0.076,1.267
	l0.254,0.761h-2.587l-0.101-0.507l-0.076-0.254l-1.42,0.761l-1.699,0.254l-1.216-0.254l-1.014-0.507l-0.659-0.761l-0.254-1.268
	l0.279-1.267l0.71-0.761l1.014-0.508l1.141-0.253h1.116l0.989-0.254l0.685-0.254l0.228-0.761l-0.127-0.507l-0.381-0.507h-0.507
	l-0.634-0.254l-1.192,0.507l-0.482,1.014h-2.56L241.332,125.256 M246.354,128.805l-0.508,0.254h-1.192l-0.583,0.254l-0.481,0.254
	l-0.33,0.253l-0.127,0.761l0.127,0.508l0.355,0.507h1.09l1.166-0.254l0.608-0.507l0.228-0.761l0.051-0.507v-1.014L246.354,128.805z"
	/>
<polyline fill="#231815" points="285.503,130.073 286.136,130.834 287.024,131.087 288.114,131.341 288.925,131.341 
	289.711,131.087 290.345,130.58 290.599,129.566 290.269,128.805 289.382,128.298 288.19,128.045 285.4,127.03 284.184,126.523 
	283.321,125.509 282.992,123.988 283.398,122.213 284.514,120.945 286.06,120.185 289.686,120.185 291.334,120.945 292.475,122.213 
	292.881,124.242 290.168,124.242 289.914,123.227 289.382,122.72 288.595,122.466 287.632,122.213 286.973,122.213 286.339,122.466 
	285.883,122.973 285.705,123.734 285.857,124.242 286.415,124.748 287.581,125.256 289.534,125.763 290.523,126.017 
	291.765,126.523 292.855,127.538 293.312,129.312 292.982,131.087 291.968,132.355 290.295,133.116 288.013,133.369 
	285.958,133.116 284.184,132.355 282.992,130.834 282.561,128.805 285.274,128.805 285.503,130.073 "/>
<polyline fill="#231815" points="310.681,120.438 310.681,125.255 310.731,125.255 311.974,123.988 313.444,123.734 
	315.118,123.988 316.132,124.748 316.665,126.016 316.816,127.538 316.816,133.115 314.281,133.115 314.281,128.045 313.926,126.27 
	312.658,125.763 311.137,126.27 310.681,128.298 310.681,133.115 308.145,133.115 308.145,120.438 310.681,120.438 "/>
<path fill="#231815" d="M334.794,122.466h-2.56v-2.03h2.56V122.466z M332.232,123.988h2.56v9.129h-2.56V123.988z"/>
<polyline fill="#231815" points="352.365,130.833 352.796,131.341 353.404,131.595 354.697,131.595 355.229,131.341 
	355.635,131.087 355.813,130.58 355.052,129.566 352.922,129.059 351.832,128.805 350.894,128.298 350.234,127.538 349.981,126.523 
	350.336,125.256 351.249,124.242 352.542,123.734 355.458,123.734 356.726,124.242 357.664,125.256 358.095,126.523 
	355.686,126.523 355.128,125.509 353.936,125.256 353.48,125.509 353.023,125.509 352.669,125.763 352.516,126.27 352.77,126.777 
	353.429,127.03 354.342,127.284 355.407,127.538 356.497,127.791 357.435,128.298 358.095,129.059 358.348,130.073 357.968,131.595 
	357.03,132.608 355.66,133.116 354.113,133.369 352.542,133.116 351.172,132.608 350.183,131.595 349.778,130.073 352.187,130.073 
	352.365,130.833 "/>
<polyline fill="#231815" points="375.793,120.438 375.793,125.255 375.844,125.255 377.086,123.988 378.557,123.734 380.23,123.988 
	381.245,124.748 381.777,126.016 381.929,127.538 381.929,133.115 379.394,133.115 379.394,128.045 379.039,126.27 377.77,125.763 
	376.249,126.27 375.793,128.298 375.793,133.115 373.258,133.115 373.258,120.438 375.793,120.438 "/>
<polyline fill="#231815" points="403.558,133.115 403.558,131.848 403.507,131.848 402.264,133.115 400.667,133.369 
	398.993,133.115 397.979,132.355 397.446,131.087 397.295,129.566 397.295,123.988 399.83,123.988 399.83,129.059 400.185,130.833 
	401.453,131.341 402.974,130.833 403.431,128.805 403.431,123.988 405.966,123.988 405.966,133.115 403.558,133.115 "/>
<polyline fill="#231815" points="423.74,123.988 423.74,125.256 423.791,125.256 425.058,123.988 426.63,123.735 428.304,123.988 
	429.343,124.749 429.851,126.017 430.003,127.538 430.003,133.116 427.467,133.116 427.467,128.045 427.113,126.27 425.844,125.763 
	424.323,126.27 423.866,128.298 423.866,133.116 421.332,133.116 421.332,123.988 423.74,123.988 "/>
<polyline fill="#231815" points="448.158,120.438 448.158,127.284 451.352,123.988 454.37,123.988 450.871,127.284 454.75,133.115 
	451.682,133.115 449.121,129.059 448.158,130.073 448.158,133.115 445.597,133.115 445.597,120.438 448.158,120.438 "/>
<path fill="#231815" d="M471.688,122.466h-2.561v-2.03h2.561V122.466z M469.127,123.988h2.561v9.129h-2.561V123.988z"/>
<path fill="#231815" d="M487.23,130.327h2.815v2.787h-2.815V130.327z M489.259,129.312h-1.268l-0.685-5.577v-3.296h2.663v3.296
	L489.259,129.312z"/>
<g>
	<defs>
		<path id="SVGID_1_" d="M566.821,30.426v6.085h12.07v-6.085H566.821 M620.423,28.905v10.396h9.863V28.905H620.423 M566.821,49.443
			v6.085h12.07v-6.085H566.821 M620.423,55.021v9.635h9.863v-9.635H620.423 M566.821,67.445v6.339h12.07v-6.085L566.821,67.445
			 M596.589,30.426v43.358h7.708l0.077-1.267c0.228-5.071,0.228-5.578,0.228-7.353V25.355l-2.257,3.043l-4.488,2.028H596.589
			 M608.987,116.888c-0.177,0-0.33,0-0.507,0h-0.05c-2.333-0.254-9.712-6.339-10.954-7.86l0.354-0.761
			c-2.078-1.014-1.8-3.043-0.456-6.846c1.445-2.282,3.118-7.606,3.905-10.142l0.457-1.521h-49.773l-3.575-0.253l-2.891-0.761
			c-2.028-1.267-3.043-3.803-3.043-7.86c0-6.085,2.637-7.099,5.198-7.099h1.216V30.426h-1.065c-4.031-0.761-4.538-4.564-4.538-7.86
			c0-7.86,2.56-7.86,4.437-7.86l1.141-0.254l0.025-1.014c0.102-3.55,0.583-5.325,9.508-5.325h2.637
			c5.02,0.508,5.883,2.029,5.807,5.071l-0.05,1.521h12.17l-0.05-1.521l1.065-3.296c1.217-1.267,3.676-1.775,7.733-1.775h2.383
			c6.289,0.508,6.415,3.043,6.517,5.325l0.076,1.014l1.192,0.254h1.674l3.296,2.282l1.673,2.282l0.533-2.789
			c1.267-6.339,5.882-6.593,14.655-6.593h19.22c9.203,0.761,9.203,5.832,9.203,14.96v79.363c0,10.142-2.282,12.424-12.88,12.424
			h-9.533l-3.145-1.014c-2.967-1.268-3.93-5.832-3.93-7.861l0.33-4.31l0.381-1.267c1.293-3.043,2.536-3.043,6.288-3.043
			c4.666-0.253,4.666-4.057,4.666-6.085V81.137h-10.193l-0.127,1.014C618.547,99.9,613.957,116.888,608.987,116.888"/>
	</defs>
	<clipPath id="SVGID_00000140695242347508884840000009961099718158929024_">
		<use xlink:href="#SVGID_1_"  overflow="visible"/>
	</clipPath>
	<g clip-path="url(#SVGID_00000140695242347508884840000009961099718158929024_)">
		<defs>
			
				<rect id="SVGID_00000168080187457373490380000009555579206916308910_" x="-6510.822" y="-26007.08" width="26162.004" height="37014.895"/>
		</defs>
		<clipPath id="SVGID_00000124881748785913327390000006164166226524356799_">
			<use xlink:href="#SVGID_00000168080187457373490380000009555579206916308910_"  overflow="visible"/>
		</clipPath>
		<g clip-path="url(#SVGID_00000124881748785913327390000006164166226524356799_)">
			<defs>
				
					<rect id="SVGID_00000077312895668256711310000001899185460122036364_" x="-6510.822" y="-26006.826" width="26162.254" height="37014.641"/>
			</defs>
			<clipPath id="SVGID_00000030444445697211360120000005279558965696406146_">
				<use xlink:href="#SVGID_00000077312895668256711310000001899185460122036364_"  overflow="visible"/>
			</clipPath>
			
				<rect x="542.455" y="8.111" clip-path="url(#SVGID_00000030444445697211360120000005279558965696406146_)" fill="#E75297" width="105.656" height="108.777"/>
		</g>
	</g>
</g>
<path fill="#8DC21F" d="M589.742,108.014l4.513,1.522c3.144,0,5.705-2.536,5.705-5.832c0-3.043-2.561-5.578-5.705-5.578
	l-4.082,1.267l1.293-4.057c0-3.043-2.561-5.831-5.705-5.831c-3.144,0.254-5.705,2.789-5.705,5.831l1.547,4.565l-4.488-1.521
	c-3.169,0-5.705,2.535-5.705,5.578c0,3.296,2.536,5.831,5.705,5.831l4.083-1.267l-1.319,4.057c0,3.043,2.56,5.578,5.73,5.578
	c3.145,0,5.705-2.536,5.705-5.578L589.742,108.014"/>
<path fill="#8DC21F" d="M560.001,118.663l-2.029,0.254c5.02-7.353,5.502-14.453,4.387-22.566l-4.082,0.507
	c0.963,7.099,0.609,13.185-3.474,19.27l0.279-2.282c0-5.578-4.539-10.143-10.143-10.143c-5.603,0-10.142,4.565-10.142,10.143
	c0,2.535,1.065,5.324,2.738,7.86c-2.51-1.775-5.198-2.79-7.961-2.79c-5.629,0-10.168,4.564-10.168,10.142
	c0.026,5.578,4.538,10.143,10.142,10.143c2.359,0,4.893-0.761,7.252-2.283c-1.445,2.283-2.307,4.818-2.307,7.353
	c0,5.578,4.538,10.142,10.142,10.142s10.142-4.564,10.142-10.142c0-2.789-1.09-5.578-2.763-8.114c2.51,1.775,5.198,2.79,7.987,2.79
	c5.603,0,10.142-4.564,10.142-10.142C570.143,123.228,565.604,118.663,560.001,118.663"/>
<path fill="#E75297" d="M296.355,90.265c-16.38,0-29.641-13.185-29.641-29.665c0-16.228,13.26-29.666,29.641-29.666
	c16.38,0,29.64,13.438,29.64,29.666C325.995,77.081,312.734,90.265,296.355,90.265"/>
<path fill="#FFFFFF" d="M285.527,43.611l-0.532,3.803c-0.457,3.55-0.812,8.114-0.812,13.185c0,5.831,0.508,11.409,1.04,14.96
	l0.127,1.267l-2.789,2.282l-2.104-1.774c-0.305-1.268-1.167-7.607-1.167-16.735c0-9.128,0.812-16.228,1.344-17.749l2.206-1.521
	L285.527,43.611 M302.439,44.626c-0.05-1.521-0.101-3.296,2.333-3.296l2.561,2.79l0.05,4.564h5.882l2.663,2.282l-2.663,2.536h-5.755
	l0.177,11.409c2.688,1.268,5.122,3.043,7.455,5.071l1.268,2.028l-2.688,3.043l-2.738-2.029l-3.347-2.789l-0.431,4.564
	c-1.166,3.803-5.578,4.31-8.494,4.31c-8.596,0-10.066-5.071-10.066-7.86c0-4.057,3.448-8.367,10.243-8.367l3.981,0.507l-0.178-9.888
	h-10.852l-2.763-2.282l2.763-2.536h10.675L302.439,44.626z M302.871,67.952l-3.854-0.761c-3.449,0-5.654,1.522-5.654,4.057
	c0,0.508,0.304,3.55,5.172,3.55c4.336,0,4.336-2.029,4.336-4.818V67.952z"/>
<path fill="#F5AC3C" d="M109.536,36.765l0.076,1.268v2.789l-0.203,1.268h54.692l-0.076-1.268l-0.102-2.789v-1.268H109.536
	 M136.387,88.236l-1.825,1.268c-3.727,2.282-7.657,4.31-11.004,5.831l0.532,2.283h7.226c4.843,0,4.944-3.296,5.02-7.099
	L136.387,88.236 M136.819,108.774h-11.385c-4.412,0-6.644-2.282-6.644-6.846l0.152-1.267l0.583-2.282l-2.156,0.761
	c-8.113,3.549-15.973,5.578-18.661,5.578c-3.727,0-6.237-4.057-6.237-7.86c0-2.283,0.761-3.804,4.64-4.565
	c8.291-1.774,24.189-5.324,37.475-12.424l0.836-0.507l-1.572-5.071l-1.268,0.507c-10.877,6.086-27.485,11.41-31.72,11.41
	c-3.98,0-5.704-4.818-5.704-7.099c0-2.789,1.217-3.55,5.35-4.057c9.914-1.267,19.168-3.803,27.51-7.353l1.471-0.761l-1.497-1.774
	l-1.445-1.522l-0.532-0.507l-0.71,0.254c-11.081,4.31-20.867,6.339-23.987,6.339c-5.02,0-6.339-4.564-6.339-7.099
	c0-3.296,1.928-3.55,5.122-4.057c7.049-0.508,11.867-1.521,16.583-3.296l-0.406-2.282h-5.781c-3.245,0-4.387-0.507-5.249-1.268
	l-1.394-4.056l-0.076-1.014h-1.09c-2.383,0-5.071,0-6.491-1.014c-2.105-1.267-2.181-2.536-2.181-9.381
	c0-8.621,0.862-11.917,10.599-11.917h24.215l0.177-1.014c0.177-1.014,0.786-4.818,7.987-4.818c4.437,0,6.947,1.775,7.429,4.818
	l0.152,1.014h22.515c9.306,0,12.323,1.014,12.323,10.65c0,6.085,0,8.621-1.37,9.888c-1.267,1.268-2.383,1.775-5.908,1.775h-2.104
	l-0.051,1.014l-1.47,4.056c-0.913,1.014-2.232,1.268-5.173,1.268h-4.893l0.152,1.267c0.431,3.55,0.761,5.325,1.344,7.607
	l0.558,2.535l0.076,0.254c0,0,2.46,7.607,5.578,12.424l0.634,1.014l0.203,0.254c2.359,3.549,4.919,6.846,10.65,12.171
	c2.713,2.789,2.941,4.056,2.941,5.324c0,4.31-4.665,8.621-9.255,8.621c-3.195,0-4.97-1.521-9.483-7.099
	c-8.013-9.889-14.098-26.37-15.873-43.358l-0.101-1.014h-2.612l-0.305,0.254l-4.691,3.549l-1.141,0.761l0.963,1.014
	c7.886,8.114,11.739,18.256,11.739,31.187c0,7.861-1.267,11.917-4.969,15.721C143.284,107,139.937,108.774,136.819,108.774"/>
<path fill="#F5AC3C" d="M170.567,72.516c-3.905,0-7.075-3.296-7.075-7.099c0-3.803,3.169-7.099,7.075-7.099
	c3.905,0,7.048,3.296,7.048,7.099C177.615,69.221,174.471,72.516,170.567,72.516"/>
<path fill="#E75297" d="M384.009,43.104c-3.931,0-7.125-3.043-7.202-7.099h-8.772c-3.094,0-5.604-2.282-5.604-5.578
	c0-3.043,2.51-5.577,5.604-5.577h8.772c0.077-3.804,3.271-7.1,7.202-7.1c3.93,0,7.099,3.296,7.201,7.1h8.748
	c3.118,0,5.603,2.535,5.603,5.577c0,3.296-2.485,5.578-5.603,5.578h-8.748C391.108,40.061,387.939,43.104,384.009,43.104"/>
<path fill="#F5AC3C" d="M498.869,91.279h-14.605c-2.637,0-4.792-2.028-4.792-4.817c0-2.536,2.155-4.818,4.792-4.818h14.605
	c2.662,0,4.792,2.282,4.792,4.818C503.661,89.251,501.531,91.279,498.869,91.279"/>
</svg>
