<?xml version="1.0" encoding="utf-8"?>
<!-- Generator: Adobe Illustrator 27.0.1, SVG Export Plug-In . SVG Version: 6.00 Build 0)  -->
<svg version="1.1" id="레이어_1" xmlns="http://www.w3.org/2000/svg" xmlns:xlink="http://www.w3.org/1999/xlink" x="0px"
	 y="0px" viewBox="0 0 720 122.504" enable-background="new 0 0 720 122.504" xml:space="preserve">
<path d="M59.894,65.151c-3.717,3.622-7.878,6.512-12.5,8.688c-4.622,2.176-9.593,3.209-14.899,3.114
	c-4.462-0.111-8.656-1.064-12.579-2.875c-3.939-1.811-7.353-4.225-10.276-7.242c-2.923-3.033-5.257-6.544-7.004-10.514
	C0.873,52.334,0,48.173,0,43.805C0,38.5,0.953,33.751,2.874,29.558c1.906-4.194,4.781-8.1,8.593-11.706
	c3.717-3.622,7.894-6.433,12.5-8.45c4.622-2.016,9.593-3.018,14.898-3.018c4.463,0,8.657,0.874,12.596,2.621
	c3.923,1.747,7.354,4.145,10.26,7.163c2.923,3.033,5.257,6.544,7.02,10.514c1.747,3.987,2.62,8.148,2.62,12.516
	c0,5.305-0.953,10.054-2.859,14.246C66.581,57.639,63.721,61.546,59.894,65.151 M35.848,11.308c-4.575,0-8.72,0.858-12.437,2.557
	s-6.877,3.923-9.466,6.687c-2.605,2.764-4.606,5.956-5.972,9.561C6.591,33.719,5.892,37.5,5.892,41.423
	c0,3.605,0.794,7.195,2.398,10.753c1.589,3.558,3.733,6.766,6.449,9.641c2.7,2.859,5.861,5.225,9.466,7.083
	c3.622,1.858,7.496,2.891,11.643,3.113c4.558,0.206,8.703-0.54,12.42-2.239c3.717-1.699,6.877-3.986,9.482-6.846
	c2.605-2.874,4.558-6.178,5.893-9.958c1.317-3.764,1.937-7.624,1.826-11.547c-0.111-3.606-0.953-7.227-2.542-10.832
	c-1.604-3.605-3.7-6.846-6.29-9.72c-2.605-2.859-5.686-5.179-9.243-6.925C43.837,12.198,39.977,11.308,35.848,11.308z"/>
<path d="M161.37,2.715l2.064,1.748l-3.986,4.78v5.575c2.334-2.334,4.702-4.32,7.1-5.972c2.382-1.652,5.337-2.462,8.83-2.462
	c1.493,0,2.97,0.206,4.463,0.636c1.493,0.413,2.97,0.904,4.463,1.429v-6.21h2.7v28.986h-2.7v-1.112c0-2.017-0.032-4.145-0.079-6.369
	c-0.063-2.239-0.46-4.304-1.191-6.21c-0.746-1.922-1.858-3.542-3.351-4.861c-1.493-1.334-3.287-2.16-5.416-2.478
	c-1.493-0.206-2.969,0-4.463,0.636c-1.493,0.635-2.89,1.525-4.225,2.636l-3.573,3.749l-2.557,4.13v43.805
	c0,1.811,0.191,3.192,0.555,4.145l1.763,2.065l2.938,0.731c1.176,0.048,2.493,0.079,3.987,0.079v2.7h-23.57v-2.7h7.163V17.694
	l-5.575,6.686l-2.065-1.762L161.37,2.715"/>
<path d="M298.836,71.536c-2.447,1.589-5.052,2.891-7.814,3.891c-2.748,1.017-5.671,1.525-8.752,1.525
	c-3.082,0-5.972-0.571-8.688-1.683c-2.7-1.112-5.035-2.652-7.004-4.622c-1.97-1.953-3.527-4.272-4.702-6.925
	c-1.175-2.652-1.747-5.511-1.747-8.592c0-3.622,0.794-6.956,2.382-10.038c1.589-3.081,3.669-5.734,6.21-7.973
	c2.557-2.223,5.48-3.954,8.767-5.178c3.288-1.222,6.687-1.826,10.197-1.826c2.128,0,4.034,0.269,5.734,0.794
	c1.699,0.54,3.446,1.223,5.257,2.065v-1.906c0.095-2.446,0.079-4.861-0.079-7.242c-0.159-2.398-0.826-4.654-2.002-6.782
	c-1.159-2.43-2.811-4.272-4.924-5.496c-2.128-1.207-4.526-1.826-7.178-1.826c-2.97,0-5.575,0.746-7.799,2.239
	c-2.239,1.477-4.113,3.336-5.654,5.575c-1.541,2.224-2.684,4.717-3.431,7.481c-0.746,2.763-1.112,5.416-1.112,7.957h-2.716V2.08
	h2.716v13.215c2.763-2.859,5.654-5.067,8.688-6.607c3.018-1.54,6.544-2.303,10.577-2.303c3.4,0,6.56,0.636,9.483,1.906
	c2.922,1.271,5.384,3.399,7.417,6.369c1.794,2.652,2.811,5.575,3.018,8.767c0.206,3.177,0.318,6.306,0.318,9.387v32.338
	c0,1.811,0.19,3.192,0.555,4.145l1.763,2.065l2.938,0.731c1.175,0.048,2.493,0.079,3.986,0.079v2.7h-16.406V71.536 M298.836,41.263
	c-1.811-2.128-3.86-3.843-6.132-5.178c-2.287-1.334-4.86-1.985-7.735-1.985c-2.541,0-4.987,0.445-7.322,1.35
	c-2.334,0.905-4.399,2.144-6.21,3.749c-1.811,1.588-3.208,3.478-4.225,5.654c-1.017,2.176-1.413,4.527-1.191,7.084
	c0.095,2.541,0.667,5.066,1.667,7.559c1.017,2.494,2.367,4.766,4.067,6.782c1.699,2.017,3.668,3.637,5.892,4.844
	c2.224,1.223,4.717,1.843,7.481,1.843s5.289-0.555,7.576-1.684c2.271-1.112,4.321-2.668,6.132-4.685V41.263z"/>
<path d="M394.084,72.171V17.852l-5.575,6.687l-2.065-1.747l16.724-19.917l2.065,1.747l-3.971,4.781v4.781
	c2.224-2.129,4.717-3.955,7.481-5.496c2.764-1.541,5.782-2.303,9.085-2.303c2.859,0,5.591,0.651,8.195,1.985s4.701,3.209,6.29,5.655
	c1.811,2.874,2.843,5.892,3.113,9.084c0.27,3.177,0.397,6.417,0.397,9.705v32.338c0,1.811,0.19,3.192,0.555,4.145l1.747,2.065
	l2.955,0.731c1.175,0.048,2.493,0.079,3.986,0.079v2.701h-23.586v-2.701h7.178V32.496c0-2.334-0.079-4.828-0.237-7.481
	c-0.159-2.652-0.715-5.051-1.684-7.163c-0.953-2.334-2.493-4.193-4.606-5.575c-2.129-1.381-4.463-2.08-7.02-2.08
	c-2.335,0-4.352,0.587-6.051,1.763c-1.699,1.159-3.129,2.62-4.304,4.367c-1.159,1.763-2.049,3.701-2.621,5.814
	c-0.587,2.128-0.873,4.209-0.873,6.226v36.785c0,1.811,0.174,3.192,0.556,4.145l1.747,2.065l2.954,0.731
	c1.159,0.048,2.493,0.079,3.971,0.079v2.701h-23.57v-2.701H394.084"/>
<path d="M568.827,0c1.493,2.351,2.239,4.94,2.239,7.814c0,1.811-0.428,3.495-1.271,5.098c-0.857,1.589-2.016,2.97-3.51,4.13
	c1.589,2.986,2.367,5.846,2.303,8.608c-0.047,2.764-0.492,5.321-1.35,7.655c-0.857,2.335-1.969,4.368-3.335,6.132
	c-1.382,1.747-2.605,3.049-3.669,3.891c-2.446,1.81-5.162,3.113-8.131,3.907c-2.97,0.794-5.893,1.462-8.752,1.985l-3.828,1.207
	c-1.27,0.572-1.906,1.668-1.906,3.256l0.953,2.319l2.383,1.271l2.954,0.476l2.462,0.079c6.163,0.111,11.372,1.112,15.612,3.034
	c4.257,1.906,7.704,4.288,10.356,7.163c2.652,2.859,4.574,6.051,5.733,9.561c1.176,3.494,1.748,6.846,1.748,10.022
	c0,5.099-0.874,9.8-2.621,14.104c-1.747,4.304-4.193,7.989-7.322,11.071c-3.145,3.081-6.861,5.464-11.149,7.163
	c-4.304,1.699-9.006,2.557-14.104,2.557c-5.21,0-9.832-0.905-13.85-2.716c-4.05-1.794-7.418-4.161-10.118-7.083
	c-2.715-2.923-4.78-6.322-6.226-10.197c-1.43-3.875-2.144-7.877-2.144-12.023c0-6.798,1.826-12.85,5.496-18.154
	c3.668-5.321,8.529-9.355,14.58-12.119l-1.112-2.144l-0.333-2.303c0-2.128,0.699-3.795,2.081-5.019
	c1.381-1.223,2.969-2.207,4.78-2.954c-4.145-1.159-7.464-3.447-9.959-6.846c-2.493-3.399-3.748-7.274-3.748-11.626
	c0-3.287,0.619-6.322,1.826-9.085c1.222-2.763,2.923-5.178,5.115-7.242c2.16-2.08,4.685-3.685,7.559-4.86
	c2.859-1.176,5.893-1.747,9.085-1.747c1.906,0,3.605,0.206,5.098,0.635c1.477,0.413,2.811,0.873,3.971,1.35l3.114,1.27l2.302,0.556
	l3.59-1.35l1.508-3.431l-0.317-2.7L566.286,0H568.827 M542.398,62.61c-7.767,0-13.914,2.334-18.488,7.004
	c-4.558,4.67-6.846,10.832-6.846,18.488c0,4.352,0.874,8.275,2.637,11.785c1.747,3.495,4.05,6.496,6.925,8.989
	c2.859,2.494,6.178,4.416,9.958,5.734c3.764,1.334,7.655,2.001,11.706,2.001c3.606,0,7.052-0.508,10.356-1.508
	c3.287-1.017,6.146-2.525,8.592-4.543c2.447-2.017,4.384-4.526,5.814-7.496c1.43-2.97,2.097-6.417,2.001-10.355
	c-0.11-4.13-0.984-8.037-2.636-11.706c-1.652-3.654-3.908-6.846-6.766-9.546c-2.874-2.716-6.29-4.861-10.276-6.465
	C551.388,63.404,547.068,62.61,542.398,62.61z M548.132,44.932c2.016,0,3.891-0.428,5.654-1.286
	c1.747-0.841,3.256-1.953,4.543-3.335c1.271-1.382,2.303-3.002,3.097-4.861c0.794-1.858,1.191-3.748,1.191-5.654
	c0-2.447-0.477-4.829-1.43-7.179c-0.953-2.319-2.255-4.399-3.907-6.21c-1.636-1.795-3.574-3.256-5.814-4.384
	c-2.224-1.112-4.622-1.667-7.163-1.667c-4.463,0-7.941,1.603-10.435,4.78c-2.494,3.192-3.796,6.846-3.908,10.991
	c0,2.446,0.477,4.78,1.445,7.004c0.953,2.239,2.256,4.225,3.891,5.988c1.652,1.747,3.59,3.16,5.814,4.209
	C543.351,44.392,545.686,44.932,548.132,44.932z"/>
<path d="M720,52.731c-3.177,7.656-7.91,13.596-14.168,17.837c-6.274,4.257-13.596,6.385-21.981,6.385
	c-4.575,0-8.958-0.858-13.151-2.557c-4.194-1.699-7.878-4.034-11.071-7.004c-3.177-2.97-5.734-6.481-7.64-10.514
	c-1.921-4.035-2.874-8.386-2.874-13.072c0-5.194,1.112-10.086,3.351-14.644c2.224-4.575,5.193-8.53,8.91-11.881
	c3.717-3.335,7.941-5.987,12.675-7.957c4.717-1.97,9.641-2.938,14.739-2.938c3.287,0,6.496,0.492,9.625,1.508
	c3.128,1.001,6.051,2.447,8.767,4.304c2.7,1.858,5.066,4.082,7.083,6.687s3.558,5.448,4.622,8.513h-60.847
	c-1.064,2.128-1.811,4.336-2.24,6.623c-0.413,2.287-0.682,4.59-0.794,6.925c-0.206,4.352,0.556,8.385,2.319,12.102
	c1.748,3.717,4.114,6.988,7.084,9.8c2.969,2.811,6.4,5.051,10.276,6.687c3.876,1.652,7.941,2.478,12.183,2.478
	c7.004,0.095,13.119-1.731,18.329-5.496c5.193-3.781,9.338-8.735,12.42-14.898L720,52.731 M709.327,23.904
	c-2.764-4.034-6.369-7.146-10.832-9.323c-4.448-2.176-9.133-3.272-14.009-3.272c-4.685,0-9.244,1.095-13.706,3.272
	c-4.463,2.176-8.021,5.289-10.674,9.323H709.327z"/>
<path d="M90.835,100.204l-0.985,0.937h-0.032l-1.144-0.095l-2.016-0.111h-0.619v1.366c0,2.811,0.079,5.797,0.317,7.926l0.016,0.523
	c0,0.937-0.937,2.574-2.43,2.574l-1.048-0.81l-2.669-2.366l-0.762-0.556l0.079-0.031l0.763,0.174l2.732,0.413
	c1.017,0,1.048-0.222,1.048-2.811l-0.048-3.495c-4.098,5.512-9.974,7.227-10.864,7.227l-0.174-0.063l0.556-0.35
	c2.764-1.048,7.877-6.131,9.037-9.228l-3.192,1.017l-2.383,0.587c-0.667,0-2.223-0.301-2.223-1.795l0.301-0.936l0.286,0.143
	l1.794,0.413l0.683-0.048c2.366-0.413,4.113-0.889,6.083-1.254l-0.191-2.621l-1.366-1.413l-0.238-0.19l1.763-0.937l2.303,1.794
	l-0.079,0.937l-0.064,2.128l0.159-0.016l1.874-0.555h0.111L90.835,100.204"/>
<path d="M175.824,110.655l-0.572,0.509l-0.858,0.428l-2.669-3.05l0.079-0.396c0.333-1.096,0.588-2.796,0.588-4.734
	c0-3.049-0.238-3.494-1.462-4.32l-0.428-0.286l1.508-0.81c1.699,0,2.907,1.35,2.907,2.224l-0.111,1.159
	c-0.048,1.779-0.46,6.242-0.46,6.401l0.143,0.238h0.032c3.812-1.207,10.245-5.543,12.405-8.195l0.699-0.636l0.048,0.064
	C187.672,99.3,185.734,105.208,175.824,110.655"/>
<path d="M269.532,102.889l-1.35-0.794l-1.969-2.224c-1.557-1.318-1.954-1.684-1.954-1.985l0.111-0.079l0.349,0.079l2.637,0.524
	c1.239,0.254,3.542,0.873,3.542,2.97L269.532,102.889 M269.643,111.386l-1.875,0.524c-1.318,0-2.684-0.905-2.684-2.51l0.509-1.54
	l0.365,0.254l1.843,0.715c2.144,0,10.499-6.242,13.421-9.72l0.636-0.604l0.063,0.064l-0.317,0.857
	C279.57,103.89,273.661,109.116,269.643,111.386z"/>
<path d="M364.621,104l-1.286,1.255l-2.207-0.778c-2.747-1.207-3.097-3.161-3.097-3.288l0.064-0.095l0.444,0.286l3.908,0.762
	C363.939,102.253,364.621,103.174,364.621,104 M365.114,111.212c-1.556,0.905-1.715,1-2.573,1c-1.318,0-2.652-0.778-2.652-2.366
	l0.54-1.636l0.381,0.381l1.699,0.667c2.303,0,10.976-6.782,13.533-9.783l0.54-0.477l0.047,0.064
	C376.629,100.077,372.674,106.558,365.114,111.212z M365.305,101.078l-1.826-0.524l-2.303-0.873l-0.46-0.191l0.508-0.19l1.335-0.255
	l0.174-0.19l-0.143-0.27l-1.889-1.794l-0.238-0.428l0.095-0.064l0.587,0.206l5.02,2.256l0.317,1.032L365.305,101.078z M373.516,97.6
	l-0.778,0.953l-0.572-0.333l-2.065-2.065l-0.064-0.048l0.159-0.063l0.683-0.079L373.516,97.6z M375.502,96.44l-0.763,0.954l-1-0.922
	l-1.62-1.334l-0.143-0.095l0.969-0.159C373.326,94.884,375.502,94.979,375.502,96.44z"/>
</svg>
