<?xml version="1.0" encoding="utf-8"?>
<!-- Generator: Adobe Illustrator 27.1.1, SVG Export Plug-In . SVG Version: 6.00 Build 0)  -->
<svg version="1.1" id="레이어_1" xmlns="http://www.w3.org/2000/svg" xmlns:xlink="http://www.w3.org/1999/xlink" x="0px"
	 y="0px" viewBox="0 0 720 122.504" enable-background="new 0 0 720 122.504" xml:space="preserve">
<path d="M59.894,65.151c-3.717,3.622-7.878,6.512-12.5,8.688c-4.622,2.176-9.593,3.209-14.899,3.114
	c-4.462-0.111-8.656-1.064-12.579-2.875c-3.939-1.811-7.353-4.225-10.276-7.242c-2.923-3.033-5.257-6.544-7.004-10.514
	C0.873,52.334,0,48.173,0,43.805C0,38.5,0.953,33.751,2.874,29.558c1.906-4.194,4.781-8.1,8.593-11.706
	c3.717-3.622,7.894-6.433,12.5-8.45c4.622-2.016,9.593-3.018,14.898-3.018c4.463,0,8.657,0.874,12.596,2.621
	c3.923,1.747,7.354,4.145,10.26,7.163c2.923,3.033,5.257,6.544,7.02,10.514c1.747,3.987,2.62,8.148,2.62,12.516
	c0,5.305-0.953,10.054-2.859,14.246C66.581,57.639,63.721,61.546,59.894,65.151 M35.848,11.308c-4.575,0-8.72,0.858-12.437,2.557
	s-6.877,3.923-9.466,6.687c-2.605,2.764-4.606,5.956-5.972,9.561C6.591,33.719,5.892,37.5,5.892,41.423
	c0,3.605,0.794,7.195,2.398,10.753c1.589,3.558,3.733,6.766,6.449,9.641c2.7,2.859,5.861,5.225,9.466,7.083
	c3.622,1.858,7.496,2.891,11.643,3.113c4.558,0.206,8.703-0.54,12.42-2.239c3.717-1.699,6.877-3.986,9.482-6.846
	c2.605-2.874,4.558-6.178,5.893-9.958c1.317-3.764,1.937-7.624,1.826-11.547c-0.111-3.606-0.953-7.227-2.542-10.832
	c-1.604-3.605-3.7-6.846-6.29-9.72c-2.605-2.859-5.686-5.179-9.243-6.925C43.837,12.198,39.977,11.308,35.848,11.308z"/>
<path d="M161.37,2.715l2.064,1.748l-3.986,4.78v5.575c2.334-2.334,4.702-4.32,7.1-5.972c2.382-1.652,5.337-2.462,8.83-2.462
	c1.493,0,2.97,0.206,4.463,0.636c1.493,0.413,2.97,0.904,4.463,1.429v-6.21h2.7v28.986h-2.7v-1.112c0-2.017-0.032-4.145-0.079-6.369
	c-0.063-2.239-0.46-4.304-1.191-6.21c-0.746-1.922-1.858-3.542-3.351-4.861c-1.493-1.334-3.287-2.16-5.416-2.478
	c-1.493-0.206-2.969,0-4.463,0.636c-1.493,0.635-2.89,1.525-4.225,2.636l-3.573,3.749l-2.557,4.13v43.805
	c0,1.811,0.191,3.192,0.555,4.145l1.763,2.065l2.938,0.731c1.176,0.048,2.493,0.079,3.987,0.079v2.7h-23.57v-2.7h7.163V17.694
	l-5.575,6.686l-2.065-1.762L161.37,2.715"/>
<path d="M298.836,71.536c-2.447,1.589-5.052,2.891-7.814,3.891c-2.748,1.017-5.671,1.525-8.752,1.525
	c-3.082,0-5.972-0.571-8.688-1.683c-2.7-1.112-5.035-2.652-7.004-4.622c-1.97-1.953-3.527-4.272-4.702-6.925
	c-1.175-2.652-1.747-5.511-1.747-8.592c0-3.622,0.794-6.956,2.382-10.038c1.589-3.081,3.669-5.734,6.21-7.973
	c2.557-2.223,5.48-3.954,8.767-5.178c3.288-1.222,6.687-1.826,10.197-1.826c2.128,0,4.034,0.269,5.734,0.794
	c1.699,0.54,3.446,1.223,5.257,2.065v-1.906c0.095-2.446,0.079-4.861-0.079-7.242c-0.159-2.398-0.826-4.654-2.002-6.782
	c-1.159-2.43-2.811-4.272-4.924-5.496c-2.128-1.207-4.526-1.826-7.178-1.826c-2.97,0-5.575,0.746-7.799,2.239
	c-2.239,1.477-4.113,3.336-5.654,5.575c-1.541,2.224-2.684,4.717-3.431,7.481c-0.746,2.763-1.112,5.416-1.112,7.957h-2.716V2.08
	h2.716v13.215c2.763-2.859,5.654-5.067,8.688-6.607c3.018-1.54,6.544-2.303,10.577-2.303c3.4,0,6.56,0.636,9.483,1.906
	c2.922,1.271,5.384,3.399,7.417,6.369c1.794,2.652,2.811,5.575,3.018,8.767c0.206,3.177,0.318,6.306,0.318,9.387v32.338
	c0,1.811,0.19,3.192,0.555,4.145l1.763,2.065l2.938,0.731c1.175,0.048,2.493,0.079,3.986,0.079v2.7h-16.406V71.536 M298.836,41.263
	c-1.811-2.128-3.86-3.843-6.132-5.178c-2.287-1.334-4.86-1.985-7.735-1.985c-2.541,0-4.987,0.445-7.322,1.35
	c-2.334,0.905-4.399,2.144-6.21,3.749c-1.811,1.588-3.208,3.478-4.225,5.654c-1.017,2.176-1.413,4.527-1.191,7.084
	c0.095,2.541,0.667,5.066,1.667,7.559c1.017,2.494,2.367,4.766,4.067,6.782c1.699,2.017,3.668,3.637,5.892,4.844
	c2.224,1.223,4.717,1.843,7.481,1.843s5.289-0.555,7.576-1.684c2.271-1.112,4.321-2.668,6.132-4.685V41.263z"/>
<path d="M394.084,72.171V17.852l-5.575,6.687l-2.065-1.747l16.724-19.917l2.065,1.747l-3.971,4.781v4.781
	c2.224-2.129,4.717-3.955,7.481-5.496c2.764-1.541,5.782-2.303,9.085-2.303c2.859,0,5.591,0.651,8.195,1.985s4.701,3.209,6.29,5.655
	c1.811,2.874,2.843,5.892,3.113,9.084c0.27,3.177,0.397,6.417,0.397,9.705v32.338c0,1.811,0.19,3.192,0.555,4.145l1.747,2.065
	l2.955,0.731c1.175,0.048,2.493,0.079,3.986,0.079v2.701h-23.586v-2.701h7.178V32.496c0-2.334-0.079-4.828-0.237-7.481
	c-0.159-2.652-0.715-5.051-1.684-7.163c-0.953-2.334-2.493-4.193-4.606-5.575c-2.129-1.381-4.463-2.08-7.02-2.08
	c-2.335,0-4.352,0.587-6.051,1.763c-1.699,1.159-3.129,2.62-4.304,4.367c-1.159,1.763-2.049,3.701-2.621,5.814
	c-0.587,2.128-0.873,4.209-0.873,6.226v36.785c0,1.811,0.174,3.192,0.556,4.145l1.747,2.065l2.954,0.731
	c1.159,0.048,2.493,0.079,3.971,0.079v2.701h-23.57v-2.701H394.084"/>
<path d="M568.827,0c1.493,2.351,2.239,4.94,2.239,7.814c0,1.811-0.428,3.495-1.271,5.098c-0.857,1.589-2.016,2.97-3.51,4.13
	c1.589,2.986,2.367,5.846,2.303,8.608c-0.047,2.764-0.492,5.321-1.35,7.655c-0.857,2.335-1.969,4.368-3.335,6.132
	c-1.382,1.747-2.605,3.049-3.669,3.891c-2.446,1.81-5.162,3.113-8.131,3.907c-2.97,0.794-5.893,1.462-8.752,1.985l-3.828,1.207
	c-1.27,0.572-1.906,1.668-1.906,3.256l0.953,2.319l2.383,1.271l2.954,0.476l2.462,0.079c6.163,0.111,11.372,1.112,15.612,3.034
	c4.257,1.906,7.704,4.288,10.356,7.163c2.652,2.859,4.574,6.051,5.733,9.561c1.176,3.494,1.748,6.846,1.748,10.022
	c0,5.099-0.874,9.8-2.621,14.104c-1.747,4.304-4.193,7.989-7.322,11.071c-3.145,3.081-6.861,5.464-11.149,7.163
	c-4.304,1.699-9.006,2.557-14.104,2.557c-5.21,0-9.832-0.905-13.85-2.716c-4.05-1.794-7.418-4.161-10.118-7.083
	c-2.715-2.923-4.78-6.322-6.226-10.197c-1.43-3.875-2.144-7.877-2.144-12.023c0-6.798,1.826-12.85,5.496-18.154
	c3.668-5.321,8.529-9.355,14.58-12.119l-1.112-2.144l-0.333-2.303c0-2.128,0.699-3.795,2.081-5.019
	c1.381-1.223,2.969-2.207,4.78-2.954c-4.145-1.159-7.464-3.447-9.959-6.846c-2.493-3.399-3.748-7.274-3.748-11.626
	c0-3.287,0.619-6.322,1.826-9.085c1.222-2.763,2.923-5.178,5.115-7.242c2.16-2.08,4.685-3.685,7.559-4.86
	c2.859-1.176,5.893-1.747,9.085-1.747c1.906,0,3.605,0.206,5.098,0.635c1.477,0.413,2.811,0.873,3.971,1.35l3.114,1.27l2.302,0.556
	l3.59-1.35l1.508-3.431l-0.317-2.7L566.286,0H568.827 M542.398,62.61c-7.767,0-13.914,2.334-18.488,7.004
	c-4.558,4.67-6.846,10.832-6.846,18.488c0,4.352,0.874,8.275,2.637,11.785c1.747,3.495,4.05,6.496,6.925,8.989
	c2.859,2.494,6.178,4.416,9.958,5.734c3.764,1.334,7.655,2.001,11.706,2.001c3.606,0,7.052-0.508,10.356-1.508
	c3.287-1.017,6.146-2.525,8.592-4.543c2.447-2.017,4.384-4.526,5.814-7.496c1.43-2.97,2.097-6.417,2.001-10.355
	c-0.11-4.13-0.984-8.037-2.636-11.706c-1.652-3.654-3.908-6.846-6.766-9.546c-2.874-2.716-6.29-4.861-10.276-6.465
	C551.388,63.404,547.068,62.61,542.398,62.61z M548.132,44.932c2.016,0,3.891-0.428,5.654-1.286
	c1.747-0.841,3.256-1.953,4.543-3.335c1.271-1.382,2.303-3.002,3.097-4.861c0.794-1.858,1.191-3.748,1.191-5.654
	c0-2.447-0.477-4.829-1.43-7.179c-0.953-2.319-2.255-4.399-3.907-6.21c-1.636-1.795-3.574-3.256-5.814-4.384
	c-2.224-1.112-4.622-1.667-7.163-1.667c-4.463,0-7.941,1.603-10.435,4.78c-2.494,3.192-3.796,6.846-3.908,10.991
	c0,2.446,0.477,4.78,1.445,7.004c0.953,2.239,2.256,4.225,3.891,5.988c1.652,1.747,3.59,3.16,5.814,4.209
	C543.351,44.392,545.686,44.932,548.132,44.932z"/>
<path d="M720,52.731c-3.177,7.656-7.91,13.596-14.168,17.837c-6.274,4.257-13.596,6.385-21.981,6.385
	c-4.575,0-8.958-0.858-13.151-2.557c-4.194-1.699-7.878-4.034-11.071-7.004c-3.177-2.97-5.734-6.481-7.64-10.514
	c-1.921-4.035-2.874-8.386-2.874-13.072c0-5.194,1.112-10.086,3.351-14.644c2.224-4.575,5.193-8.53,8.91-11.881
	c3.717-3.335,7.941-5.987,12.675-7.957c4.717-1.97,9.641-2.938,14.739-2.938c3.287,0,6.496,0.492,9.625,1.508
	c3.128,1.001,6.051,2.447,8.767,4.304c2.7,1.858,5.066,4.082,7.083,6.687s3.558,5.448,4.622,8.513h-60.847
	c-1.064,2.128-1.811,4.336-2.24,6.623c-0.413,2.287-0.682,4.59-0.794,6.925c-0.206,4.352,0.556,8.385,2.319,12.102
	c1.748,3.717,4.114,6.988,7.084,9.8c2.969,2.811,6.4,5.051,10.276,6.687c3.876,1.652,7.941,2.478,12.183,2.478
	c7.004,0.095,13.119-1.731,18.329-5.496c5.193-3.781,9.338-8.735,12.42-14.898L720,52.731 M709.327,23.904
	c-2.764-4.034-6.369-7.146-10.832-9.323c-4.448-2.176-9.133-3.272-14.009-3.272c-4.685,0-9.244,1.095-13.706,3.272
	c-4.463,2.176-8.021,5.289-10.674,9.323H709.327z"/>
<g>
	<path d="M90.858,100.201c0,0.427-0.213,0.948-0.995,0.948c0,0,0,0-0.024,0c-0.355,0-0.758-0.023-1.161-0.095
		c-0.64-0.095-1.327-0.119-2.014-0.119c-0.213,0-0.403,0-0.616,0c0,0.45,0,0.925,0,1.375c0,2.819,0.071,5.806,0.308,7.938
		c0.024,0.166,0.024,0.355,0.024,0.521c0,0.947-0.948,2.583-2.441,2.583c-0.545,0-0.758-0.332-1.042-0.806
		c-0.545-0.948-1.327-1.541-2.678-2.37c-0.474-0.284-0.758-0.498-0.758-0.568c0,0,0.023-0.024,0.071-0.024
		c0.119,0,0.355,0.048,0.758,0.166c1.327,0.379,2.678,0.427,2.749,0.427c1.019,0,1.042-0.237,1.042-2.82
		c0-1.019-0.023-2.251-0.047-3.507c-4.1,5.521-10,7.251-10.877,7.251c-0.118,0-0.189-0.023-0.189-0.07
		c0-0.071,0.213-0.214,0.569-0.355c2.772-1.043,7.891-6.138,9.052-9.242c-1.138,0.261-2.228,0.616-3.199,1.019
		c-0.616,0.285-1.588,0.593-2.394,0.593c-0.663,0-2.228-0.308-2.228-1.801c0-0.403,0.143-0.948,0.308-0.948
		c0.071,0,0.166,0.071,0.285,0.143c0.545,0.308,1.232,0.427,1.801,0.427c0.261,0,0.474-0.024,0.688-0.048
		c2.37-0.427,4.123-0.9,6.09-1.256c-0.047-1.09-0.119-2.015-0.189-2.631c-0.095-0.687-0.782-1.231-1.375-1.421
		c-0.119-0.048-0.237-0.095-0.237-0.19c0-0.26,0.545-0.947,1.777-0.947c1.09,0,2.298,0.592,2.298,1.801
		c0,0.308-0.071,0.616-0.071,0.948c-0.023,0.64-0.047,1.351-0.071,2.133l0.166-0.024c0.663-0.071,1.279-0.497,1.872-0.545
		c0.047,0,0.071,0,0.118,0C88.963,98.685,90.858,99.112,90.858,100.201z"/>
	<path d="M175.824,110.676c-0.332,0.189-0.568,0.521-0.568,0.521c-0.237,0.237-0.498,0.427-0.853,0.427
		c-0.806,0-2.678-1.729-2.678-3.057c0-0.143,0.023-0.261,0.071-0.403c0.332-1.09,0.592-2.796,0.592-4.739
		c0-3.057-0.237-3.507-1.469-4.336c-0.237-0.143-0.427-0.143-0.427-0.285c0-0.07,0.213-0.806,1.517-0.806
		c1.706,0,2.915,1.352,2.915,2.228c0,0.355-0.095,0.711-0.118,1.161c-0.047,1.777-0.45,6.257-0.45,6.422
		c0,0.095,0.071,0.237,0.142,0.237c0.023,0,0.023,0,0.023,0c3.815-1.208,10.261-5.568,12.441-8.223
		c0.355-0.427,0.592-0.64,0.688-0.64c0.047,0,0.047,0.023,0.047,0.071C187.697,99.301,185.753,105.225,175.824,110.676z"/>
	<path d="M269.534,102.903c-0.427,0-0.924-0.213-1.351-0.806c-0.498-0.687-1.185-1.563-1.967-2.228
		c-1.564-1.326-1.967-1.682-1.967-1.99c0-0.047,0.024-0.071,0.119-0.071c0.071,0,0.189,0.024,0.355,0.071
		c0.64,0.189,1.777,0.355,2.63,0.521c1.256,0.261,3.555,0.877,3.555,2.985C270.909,102.263,270.269,102.903,269.534,102.903z
		 M269.652,111.41c-0.592,0.308-1.019,0.521-1.872,0.521c-1.327,0-2.702-0.9-2.702-2.513c0-0.592,0.237-1.54,0.521-1.54
		c0.095,0,0.213,0.095,0.355,0.261c0.426,0.45,1.185,0.711,1.848,0.711c2.156,0,10.521-6.256,13.46-9.739
		c0.332-0.403,0.545-0.616,0.64-0.616c0.024,0,0.047,0.023,0.047,0.071c0,0.142-0.095,0.427-0.308,0.853
		C279.605,103.899,273.681,109.135,269.652,111.41z"/>
	<path d="M364.642,104.017c0,0.663-0.45,1.256-1.279,1.256c-0.45,0-0.854-0.166-2.228-0.782c-2.749-1.208-3.104-3.175-3.104-3.294
		c0-0.07,0.023-0.095,0.071-0.095c0.095,0,0.237,0.119,0.45,0.284c0.9,0.759,2.606,0.688,3.91,0.759
		C363.955,102.263,364.642,103.188,364.642,104.017z M365.14,111.244c-1.564,0.9-1.73,0.995-2.583,0.995
		c-1.327,0-2.654-0.782-2.654-2.369c0-0.735,0.284-1.636,0.545-1.636c0.166,0,0.284,0.261,0.378,0.379
		c0.38,0.403,1.043,0.664,1.707,0.664c2.298,0,10.995-6.801,13.555-9.811c0.26-0.309,0.45-0.474,0.545-0.474
		c0.023,0,0.047,0.023,0.047,0.07C376.68,100.083,372.723,106.576,365.14,111.244z M365.329,101.078
		c-0.498,0-1.138-0.189-1.824-0.521c-0.688-0.355-1.564-0.711-2.323-0.877c-0.284-0.047-0.45-0.118-0.45-0.189
		s0.143-0.142,0.498-0.189c0.498-0.071,1.043-0.166,1.351-0.261c0.118-0.047,0.166-0.118,0.166-0.189
		c0-0.095-0.071-0.189-0.143-0.261c-0.592-0.711-1.279-0.948-1.896-1.801c-0.166-0.237-0.236-0.355-0.236-0.427
		s0.023-0.071,0.094-0.071c0.118,0,0.379,0.119,0.592,0.214c0.734,0.355,4.147,0.829,5.024,2.251
		c0.213,0.332,0.331,0.663,0.331,1.043C366.514,100.249,366.301,101.078,365.329,101.078z M373.552,97.595
		c0,0.593-0.379,0.948-0.782,0.948c-0.213,0-0.426-0.095-0.568-0.332c-0.854-1.28-1.138-1.683-2.062-2.062
		c-0.048-0.024-0.071-0.024-0.071-0.048c0-0.047,0.095-0.071,0.166-0.071c0.213-0.047,0.45-0.07,0.688-0.07
		C371.894,95.96,373.552,96.316,373.552,97.595z M375.542,96.434c0,0.593-0.379,0.948-0.758,0.948c-0.332,0-0.568-0.237-0.995-0.925
		c-0.475-0.616-0.877-1.042-1.636-1.327c-0.07-0.023-0.142-0.047-0.142-0.095c0-0.023,0.332-0.166,0.972-0.166
		C373.362,94.869,375.542,94.964,375.542,96.434z"/>
</g>
</svg>
