<?xml version="1.0" encoding="utf-8"?>
<!-- Generator: Adobe Illustrator 27.5.0, SVG Export Plug-In . SVG Version: 6.00 Build 0)  -->
<svg version="1.1" id="레이어_1" xmlns="http://www.w3.org/2000/svg" xmlns:xlink="http://www.w3.org/1999/xlink" x="0px"
	 y="0px" viewBox="0 0 720 172.173" enable-background="new 0 0 720 172.173" xml:space="preserve">
<path d="M10.579,0.012L68.614,0.08C54.952,11.883,45.113,24.794,38.913,38.426c-6.2,13.642-9.31,29.643-9.329,47.657
	c-0.01,18.004,3.062,34.024,9.233,47.676c6.171,13.642,15.982,26.389,29.605,38.414l-58.026-0.067L10.579,0.012z"/>
<rect x="-83.568" y="83.666" transform="matrix(0.002 -1 1 0.002 -83.579 88.3602)" width="172.093" height="4.775"/>
<path d="M709.42,172.16l-58.035-0.067c13.662-11.803,23.501-24.714,29.692-38.347c6.21-13.642,9.319-29.643,9.329-47.657
	c0.019-18.004-3.052-34.024-9.223-47.666C675.01,24.772,665.2,12.025,651.567,0l58.035,0.067L709.42,172.16z"/>
<polygon points="719.817,172.17 715.032,172.161 715.225,0.067 720,0.077 "/>
<path d="M117.508,81.106c0.52-0.693-0.173-2.59-0.867-2.079c-3.629,2.07-7.086,3.967-10.552,5.699l0.029-26.283l21.267,0.019
	c1.733,0,2.253-0.51,2.253-1.723c0-1.203-1.377-2.773-3.629-5.016c-5.353-4.843-7.076-6.239-8.636-6.239
	c-1.213,0-3.293,1.386-8.829,8.983h-2.416l0.029-28.873c3.803-1.213,5.536-2.763,5.536-4.669c0-2.936-4.66-3.976-21.951-5.555
	c0.683,5.882,0.847,9.165,0.837,20.41l-0.019,18.668l-11.062-0.01c-3.283-0.01-6.575-0.356-10.889-1.396l1.887,6.402
	c3.639-0.693,6.229-1.03,9.002-1.03l11.062,0.01l-0.038,33.542c-3.976,1.723-7.953,3.11-11.938,4.486
	c-4.149,1.377-8.126,2.416-12.102,3.273c6.21,17.301,7.413,19.891,9.32,19.891c2.07,0,3.11-2.07,3.466-6.393
	c3.524-2.234,6.903-4.766,10.398-7.327l18.187-15.366C111.077,87.566,114.293,84.466,117.508,81.106"/>
<path d="M99.985,107.84l-0.048,42.256c0,2.243-0.173,2.59-2.417,2.59c-5.189-0.01-11.072-0.356-18.158-0.886
	c-0.866,0-0.866,2.08,0,2.253c12.092,3.649,14.172,5.892,15.029,13.151c0.337,2.599,1.03,3.283,3.456,3.293
	c5.873,0.01,10.889-1.377,14.008-4.65c2.59-2.763,3.803-7.096,3.813-12.795c0.009-8.299-0.154-14.528-0.135-38.905l0.029-19.457
	L99.985,107.84z"/>
<path d="M344.382,95.862c-11.794,28.864-33.417,45.789-58.488,45.76c-18.504-0.019-28.873-10.234-28.844-28.729
	c0.01-10.379,2.272-23.164,7.481-50.131c3.302-14.875,4.178-20.747,4.178-26.283c0.019-12.795-9.656-23.174-21.238-23.193
	c-2.243,0-3.803,0.347-6.576,1.723c-0.346,0.173-0.346,0.52,0,0.693c7.779,2.773,10.542,7.442,10.533,17.647
	c-0.009,6.913-0.539,18.331-2.118,32.329c-2.792,27.487-3.322,36.479-3.331,45.298c-0.029,29.913,13.44,45.837,38.684,45.856
	c30.953,0.038,54.839-23.799,60.586-60.798C345.248,95.352,344.728,95.178,344.382,95.862"/>
<path d="M572.307,148.11c0,1.897-0.52,2.417-2.946,2.417c-6.566-0.01-19.361-0.712-27.487-1.579c-0.857-0.173-0.876,2.417,0,2.59
	c13.305,3.302,20.045,5.728,21.941,12.131c1.203,3.976,1.724,5.362,6.393,5.362c7.442,0.01,12.795-2.06,15.915-6.036
	c2.253-2.763,3.292-6.739,3.302-11.582c0-6.566-0.51-10.205-0.501-20.747l0.039-33.427l-16.598-1.377L572.307,148.11z"/>
<path fill="#DA007D" d="M493.9,85.7c0.038-36.315-28.286-62.964-67.364-63.013c-1.8,0-3.591,0.087-5.363,0.212l5.324,5.68
	c30,0.27,50.497,22.702,50.468,55.542c-0.029,21.277-9.041,38.722-25.475,50.295c-9.512,7.076-20.757,12.083-35.805,15.346
	c-0.866,0.173-0.693,1.213,0.173,1.213c2.59,0,4.833-0.164,6.739-0.337C464.267,148.26,493.862,122.872,493.9,85.7"/>
<path fill="#DA007D" d="M431.497,67.323c0.019-12.448-3.427-23.347-11.37-33.899c0.048-0.01,0.077-0.01,0.115-0.019l-5.016-5.353
	c-34.024,5.151-59.97,33.321-60.009,67.027c-0.009,13.315,4.13,23.867,10.696,26.293c6.739,2.599,7.086,2.946,8.289,7.615
	c1.723,5.546,4.14,7.615,9.165,7.625c6.566,0,14.172-3.62,20.574-8.973C420.04,114.517,431.478,90.313,431.497,67.323
	 M404.675,86.924l-0.241,26.312l-12.41-15.221l-12.419,19.429l1.839-23.289l-14.2-2.128l13.315-14.798l-5.122-16.338l13.999,3.466
	l15.048-20.805l0.154,22.557l17.792,7.047L404.675,86.924z"/>
<path d="M212.145,18.033c4.91-0.029,7.346-0.905,7.769-3.418c0.53-3.139-3.986-6.479-18.957-14.403
	c-1.194,4.968-3.35,11.486-5.95,18.581c-2.725,7.057-6.113,15.009-9.945,22.721C185.062,41.515,202.892,30.617,212.145,18.033"/>
<path d="M231.555,145.898c-7.259-6.922-9.329-8.135-10.889-8.135c-1.203-0.01-3.283,1.377-10.725,11.399l-14.355-0.01l0.029-28.825
	l33.023,0.029c1.733,0,2.253-0.51,2.253-1.723c0-1.213-1.203-2.763-3.793-5.016c-6.393-5.882-8.472-7.096-10.022-7.096
	c-1.213,0-3.292,1.377-9.695,9.839l-11.755-0.01l0.029-30.086l32.676,0.038c1.733,0,2.253-0.52,2.253-1.733
	c0-1.213-1.377-2.763-3.793-5.016c-6.739-6.229-8.819-7.442-10.369-7.452c-1.213,0-3.292,1.386-9.695,10.196l-11.072-0.01
	l0.029-23.434l-15.038-0.019l-0.029,23.434l-18.456-0.019v3.976l18.456,0.019l-0.038,30.086l-18.456-0.019v3.976l18.456,0.029
	l-0.029,28.815l-23.347-0.029l0.106-100.801l73.487,0.077c1.897,0,2.59-0.52,2.59-1.733c0.01-1.377-0.857-3.11-3.966-5.526
	c-7.779-6.412-9.329-7.105-11.062-7.105c-1.377,0-2.763,1.03-10.379,10.359l-49.284-0.048c4.333-7.952,7.972-16.251,10.754-24.367
	c5.7-1.377,7.086-2.243,7.086-3.967c0-3.119-3.1-4.332-22.634-9.194c-0.529,7.433-2.272,16.251-4.872,25.407
	c-5.555,19.361-14.913,40.446-24.608,54.271c-0.52,0.693,1.377,2.253,2.07,1.733c5.536-5.18,10.908-11.399,16.097-18.138v3.283
	c-0.058,56.889-1.463,71.754-1.473,85.936c-0.01,4.149,1.723,6.056,6.903,6.056c6.402,0.01,9.165-1.714,9.175-6.903l0.01-5.363
	l76.424,0.087c1.723,0,2.243-0.52,2.243-1.723C235.868,150.221,234.492,148.845,231.555,145.898"/>
<path d="M658.013,85.582c-9.474-9.117-11.255-10.658-12.805-10.783c-1.213-0.106-3.389,1.098-14.432,12.843l-107.174-8.954
	c-5.517-0.462-11.004-1.261-18.158-2.898l1.377,6.528c6.595-0.144,11.63-0.067,16.627,0.356L661.113,94.17
	c1.723,0.144,2.282-0.327,2.378-1.54C663.597,91.426,662.345,89.761,658.013,85.582"/>
<path d="M588.998,61.578c4.496-1.897,6.056-3.283,6.056-5.006c0-0.866,0.009-1.386-1.04-1.906
	c13.325-6.73,23.539-14.153,35.824-25.898c8.299-1.714,8.819-2.234,8.819-4.313c0-1.386-0.857-2.253-4.66-5.883
	c-7.943-7.269-9.676-8.135-11.399-8.135c-1.386,0-3.119,0.857-10.388,7.943l-76.077-0.087c-4.323,0-8.472-0.356-14.172-1.396
	l1.887,6.749c5.199-1.03,8.992-1.377,12.978-1.367l75.384,0.077c-4.862,10.022-13.161,20.218-24.415,30.751
	c-3.456-0.693-8.472-1.569-15.905-2.782c0.52,5.526,0.52,7.259,0.51,12.968l-0.009,10.176l16.588,1.377L588.998,61.578z"/>
<g>
</g>
<g>
</g>
<g>
</g>
<g>
</g>
<g>
</g>
<g>
</g>
<g>
</g>
<g>
</g>
<g>
</g>
<g>
</g>
<g>
</g>
<g>
</g>
<g>
</g>
<g>
</g>
<g>
</g>
</svg>
