<?xml version="1.0" encoding="utf-8"?>
<!-- Generator: Adobe Illustrator 27.2.0, SVG Export Plug-In . SVG Version: 6.00 Build 0)  -->
<svg version="1.1" id="레이어_1" xmlns="http://www.w3.org/2000/svg" xmlns:xlink="http://www.w3.org/1999/xlink" x="0px"
	 y="0px" viewBox="0 0 720 485.045" enable-background="new 0 0 720 485.045" xml:space="preserve">
<path fill="#FAD6BA" d="M604.242,162.389c12.567-32.077-4.962-68.899-43.129-90.045c-9.651-5.365-20.751-10.504-30.063-13.92
	c-3.899-2.046-9.071-12.937-7.846-21.984c0.596-4.342,0.918-10.303-3.255-12.027c-4.543-1.845-8.652,3.649-10.021,5.462
	c-2.417,3.206-4.253,6.074-5.655,8.901c-1.16-2.183-1.917-4.286-2.239-6.179c-0.725-4.326-2.191-10.118-6.686-10.512
	c-4.704-0.572-7.169,6.05-7.943,8.176c-1.772,4.97-2.997,9.489-3.222,14.564c-0.532-0.733-0.983-1.466-1.353-2.191
	c-2.014-3.875-5.011-8.966-9.57-7.959c-4.753,1.063-5.01,7.943-5.091,10.214c-0.306,9.062,0.628,16.345,6.477,26.358
	c-0.081,0.113-0.145,0.218-0.209,0.33c-8.233,12.841-19.301,47.729-25.907,68.577c-1.531,4.809-2.787,8.772-3.673,11.391
	c-0.467,1.386-46.77,138.66-27.663,146.78c0.532,0.226,1.063,0.371,1.676,0.371c5.977,0,18.012-14.129,73.805-110.2
	c4.753,3.327,9.844,6.146,15.193,8.402c23.554,10.005,49.59,8.644,70.019-3.649c34.349,11.882,38.087,7.024,39.746,4.938
	C619.354,195.989,622.899,191.446,604.242,162.389z M529.97,145.183c-3.979-1.684-7.057-4.817-8.684-8.829
	c-1.611-4.004-1.579-8.394,0.113-12.365c2.626-6.154,8.635-9.86,14.935-9.86c2.094,0,4.221,0.419,6.283,1.289
	c8.201,3.48,12.035,12.986,8.571,21.194c-1.692,3.987-4.833,7.073-8.845,8.684C538.364,146.931,533.95,146.891,529.97,145.183z"/>
<path fill="#F5B2B0" d="M453.861,94.159c-2.143-34.381-33.575-60.352-77.107-63.397c-14.887-1.055-31.441-0.612-42.058,1.112
	c-9.046,1.152-23.329-4.954-28.299-12.172c-2.473-3.593-6.195-8.265-10.488-6.694c-4.592,1.659-3.963,8.531-3.754,10.802
	c0.491,5.236,1.297,9.844,3.23,14.516c-0.781-0.435-1.506-0.902-2.151-1.402c-3.464-2.682-8.466-5.905-12.027-3.182
	c-3.867,2.972-1.176,9.328-0.29,11.415c3.544,8.378,7.484,14.605,16.989,21.186c-0.016,0.121-0.032,0.242-0.048,0.362
	c-2.006,15.128,2.699,51.459,5.51,73.168c0.644,4.962,1.176,9.062,1.482,11.801c0.161,1.45,16.175,144.734,36.814,144.717
	c0.056,0,0.113,0,0.161,0c6.138-0.209,11.004-9.538,21.984-131.434c5.703,1.015,11.495,1.45,17.311,1.2
	c25.617-0.91,48.639-13.179,61.915-32.899c36.153-3.778,37.539-9.747,38.135-12.325C481.75,118.414,483.087,112.558,453.861,94.159z
	 M394.895,93.217c0.161,4.326-1.386,8.45-4.334,11.608c-2.932,3.158-6.928,4.97-11.246,5.115
	c-8.716,0.483-16.425-6.71-16.739-15.612c-0.306-8.893,6.686-16.393,15.595-16.715c0.193,0,0.387-0.008,0.58-0.008
	c4.108,0,8.007,1.531,11.02,4.35C392.93,84.895,394.75,88.899,394.895,93.217z"/>
<path fill="#F9D8E7" d="M319.246,83.768c-0.532-2.529-1.772-8.394-36.04-12.744C266.7,40.759,227.203,30.537,186.523,46.18
	c-13.856,5.292-28.662,12.679-37.66,18.777c-7.725,4.906-23.256,5.357-30.772,0.91c-3.77-2.223-9.151-4.801-12.349-1.635
	c-3.456,3.448,0.016,9.409,1.16,11.374c4.89,8.362,9.892,14.25,20.993,19.623c0.242,0.113,0.475,0.218,0.709,0.322
	c-0.677,5.47-0.137,11.02,1.603,16.546c4.584,14.524,24.167,45.425,35.863,63.888c2.707,4.269,4.938,7.79,6.38,10.158
	c0.733,1.2,70.792,116.064,92.413,116.048c0.822,0,1.579-0.161,2.247-0.516c5.502-2.787,5.985-13.308-35.638-128.413
	c5.615-1.506,11.06-3.601,16.216-6.235c22.854-11.64,38.53-32.48,42.211-55.978C321.058,92.419,319.793,86.369,319.246,83.768z
	 M222.289,116.852c-7.935,4.028-17.682,0.862-21.75-7.073c-1.958-3.851-2.304-8.233-0.967-12.341c1.337-4.1,4.189-7.443,8.039-9.401
	c2.344-1.192,4.849-1.756,7.314-1.756c5.897,0,11.592,3.23,14.444,8.821C233.414,103.052,230.232,112.8,222.289,116.852z"/>
<path fill="#FFFFFF" d="M406.157,285.985c-0.612,0-1.16-0.145-1.676-0.371c-19.059-8.072,27.195-145.386,27.663-146.772
	c0.886-2.634,2.159-6.614,3.689-11.439c6.622-20.832,17.69-55.696,25.89-68.536c0.064-0.113,0.129-0.217,0.209-0.33
	c-5.848-10.045-6.783-17.327-6.477-26.358c0.081-2.272,0.338-9.151,5.091-10.214c4.576-1.007,7.588,4.076,9.586,7.951
	c0.371,0.725,0.806,1.458,1.337,2.183c0.226-5.067,1.45-9.578,3.222-14.532c0.773-2.119,2.771-8.74,7.959-8.176
	c4.479,0.395,5.961,6.179,6.686,10.488c0.322,1.917,1.079,4.02,2.207,6.195c1.418-2.827,3.254-5.703,5.671-8.917
	c1.369-1.796,5.478-7.29,10.037-5.437c4.157,1.716,3.851,7.669,3.254,12.003c-1.241,9.046,3.931,19.937,7.83,21.992
	c9.312,3.416,20.413,8.555,30.063,13.92c38.151,21.162,55.68,57.984,43.129,90.053c18.673,29.04,14.983,33.761,13.404,35.791
	c-1.611,2.078-5.381,6.928-39.762-4.938c-20.364,12.261-46.416,13.678-70.003,3.665c-5.365-2.28-10.472-5.099-15.193-8.418
	C424.201,271.824,412.15,285.985,406.157,285.985z M462.368,29.941c-0.097,0.628-0.177,1.434-0.209,2.473
	c-0.338,9.981,1.176,15.829,6.283,24.038c0.709,1.152,0.999,3.101,0.193,4.205c-0.628,0.862-0.951,1.297-1.224,1.748
	c-7.782,12.172-19.108,47.85-25.198,67.022c-1.547,4.882-2.819,8.909-3.722,11.56c-18.85,55.639-36.556,127.261-31.803,137.701
	c10.843-8.555,54.633-84.075,69.358-109.491c0.483-0.83,1.305-1.418,2.256-1.603c0.934-0.185,1.933,0.056,2.691,0.636
	c5.123,3.955,10.778,7.258,16.788,9.804c22.12,9.385,46.48,7.894,65.201-4.012c0.838-0.556,1.885-0.685,2.9-0.33
	c23.248,8.16,32.367,8.482,33.93,7.508c0.274-1.329-2.078-9.699-14.854-29.33c-0.628-0.959-0.725-2.175-0.242-3.206
	c12.341-29.266-3.931-63.405-39.569-83.173c-9.36-5.212-20.139-10.19-29.531-13.67c-7.604-3.963-13.227-18.246-11.745-29.008
	c0.209-1.531,0.274-2.666,0.274-3.504c-0.435,0.459-0.967,1.071-1.579,1.893c-3.754,4.962-5.8,8.756-7.057,13.082
	c-0.354,1.208-1.369,2.111-2.594,2.352c-1.224,0.177-2.513-0.25-3.271-1.249c-2.642-3.391-5.961-8.652-6.912-14.403
	c-0.258-1.531-0.532-2.634-0.789-3.432c-0.274,0.564-0.596,1.313-0.934,2.28c-2.884,7.999-3.496,13.292-2.32,20.26
	c0.226,1.353-0.387,2.707-1.563,3.424c-1.192,0.717-2.674,0.636-3.77-0.201c-4.173-3.166-7.347-6.742-9.183-10.335
	C463.464,31.592,462.852,30.617,462.368,29.941z M523.574,140.486c-3.029,0-6.058-0.612-8.925-1.829
	c-5.639-2.401-10.005-6.847-12.277-12.518c-2.288-5.663-2.223-11.874,0.177-17.489c4.914-11.6,18.383-17.021,29.967-12.116
	c5.623,2.392,9.989,6.823,12.277,12.486c2.288,5.671,2.239,11.89-0.161,17.521c-2.384,5.623-6.815,9.981-12.486,12.269
	C529.39,139.923,526.474,140.486,523.574,140.486z M523.622,101.425c-6.299,0-12.309,3.697-14.919,9.844
	c-1.692,3.979-1.74,8.37-0.129,12.373c1.611,4.012,4.704,7.153,8.684,8.845c3.979,1.684,8.378,1.716,12.389,0.113
	c4.012-1.619,7.137-4.704,8.829-8.676c0,0,0,0,0-0.008c1.692-3.971,1.724-8.37,0.113-12.381c-1.627-4.004-4.704-7.145-8.684-8.829
	C527.86,101.836,525.717,101.425,523.622,101.425z"/>
<g>
	<defs>
		<path id="SVGID_1_" d="M515.952,135.571c-9.931-4.224-14.551-15.673-10.328-25.604c4.207-9.915,15.656-14.535,25.588-10.328
			c9.915,4.19,14.568,15.673,10.344,25.588c-3.167,7.44-10.394,11.895-17.999,11.895
			C521.017,137.121,518.443,136.627,515.952,135.571 M477.842,18.717c-2.838,7.853-3.811,13.875-2.458,21.926
			c-3.58-2.722-6.534-5.89-8.233-9.173c-4.751-9.223-8.051-7.705-8.331,0.825c-0.346,9.948,0.99,16.597,6.781,25.902
			c0.099,0.181,0.214,0.33,0.314,0.495c-0.462,0.643-0.94,1.287-1.369,1.98c-9.866,15.475-24.615,65.578-29.234,79.239
			c-12.456,36.79-41.987,137.343-29.514,142.639c6.533,2.772,49.427-70.742,73.151-111.673c5.213,4.026,11.086,7.507,17.537,10.245
			c23.789,10.097,49.46,7.688,68.284-4.273c11.168,3.927,33.903,11.202,37.516,6.566c3.448-4.388-7.82-23.081-14.518-33.375
			c0.017-0.033,0.033-0.066,0.033-0.115c13.891-32.732-6.286-68.102-41.014-87.372c-10.261-5.675-21.216-10.624-30.009-13.858
			c-5.609-2.969-10.938-15.574-9.585-25.406c1.402-10.262-2.145-10.922-7.292-4.108c-3.695,4.884-6.137,9.091-7.605,14.155
			c-3.201-4.124-5.576-8.694-6.253-12.884c-0.891-5.296-2.277-7.721-3.811-7.721C480.795,12.712,479.245,14.824,477.842,18.717"/>
	</defs>
	<clipPath id="SVGID_00000043452501551913973630000010267546647069099399_">
		<use xlink:href="#SVGID_1_"  overflow="visible"/>
	</clipPath>
	
		<linearGradient id="SVGID_00000071550811753453796380000009684014983449484679_" gradientUnits="userSpaceOnUse" x1="49.9347" y1="439.4048" x2="66.4325" y2="439.4048" gradientTransform="matrix(0 -16.3601 -16.3601 0 7688.2544 1099.5585)">
		<stop  offset="0" style="stop-color:#F8C27B"/>
		<stop  offset="1" style="stop-color:#EF822B"/>
	</linearGradient>
	
		<rect x="393.324" y="12.366" clip-path="url(#SVGID_00000043452501551913973630000010267546647069099399_)" fill="url(#SVGID_00000071550811753453796380000009684014983449484679_)" width="212.408" height="272.955"/>
</g>
<path fill="#FFFFFF" d="M328.969,283.697c-20.695,0.016-36.653-143.275-36.814-144.725c-0.306-2.739-0.838-6.855-1.49-11.85
	c-2.811-21.694-7.524-57.992-5.518-73.128c0.016-0.121,0.032-0.25,0.056-0.371c-9.538-6.622-13.469-12.832-16.997-21.178
	c-0.886-2.086-3.577-8.434,0.29-11.407c3.561-2.747,8.571,0.507,12.043,3.182c0.644,0.507,1.378,0.983,2.175,1.426
	c-1.966-4.769-2.787-9.441-3.254-14.556c-0.209-2.256-0.854-9.119,3.746-10.786c4.205-1.539,8.015,3.077,10.496,6.686
	c4.962,7.234,19.333,13.38,28.259,12.188c10.609-1.724,27.155-2.175,42.082-1.128c43.532,3.045,74.965,29.008,77.124,63.405
	c29.209,18.439,27.904,24.054,27.292,26.768c-0.644,2.795-1.982,8.563-38.135,12.325c-13.276,19.736-36.298,32.005-61.891,32.899
	c-5.8,0.258-11.616-0.185-17.335-1.192c-10.98,121.872-15.845,131.216-21.975,131.442
	C329.073,283.697,329.017,283.697,328.969,283.697z M273.531,27.524c0.177,0.604,0.443,1.369,0.846,2.312
	c3.891,9.199,7.741,13.847,15.837,19.124c1.136,0.733,2.207,2.384,1.957,3.722c-0.169,0.878-0.298,1.539-0.387,2.215
	c-1.885,14.242,2.932,51.402,5.526,71.364c0.652,5.043,1.192,9.207,1.498,11.979c6.412,58.403,20.622,130.797,29.37,138.241
	c6.187-12.325,13.96-99.276,16.578-128.534c0.089-0.959,0.58-1.837,1.361-2.409c0.765-0.564,1.756-0.765,2.699-0.564
	c6.372,1.418,12.905,2.006,19.374,1.788c23.997-0.846,45.441-12.51,57.396-31.191c0.548-0.862,1.466-1.426,2.481-1.531
	c24.602-2.449,32.947-5.993,33.93-7.524c-0.306-1.313-5.961-7.886-25.874-20.316c-0.983-0.612-1.579-1.692-1.579-2.844v-0.113
	c-1.079-31.553-30.273-55.664-70.969-58.507c-14.258-1.015-30.547-0.564-40.6,1.063c-11.616,1.482-28.452-5.768-34.8-15.024
	c-0.87-1.273-1.595-2.159-2.151-2.779c-0.016,0.636,0.008,1.45,0.105,2.473c0.765,8.45,2.457,13.509,6.469,19.341
	c0.773,1.128,0.781,2.618,0.016,3.754c-0.757,1.144-2.111,1.756-3.48,1.41c-5.131-1.096-9.522-2.989-12.704-5.462
	C275.206,28.571,274.256,27.943,273.531,27.524z M366.024,103.939c-12.228,0-22.394-9.731-22.845-22.064
	c-0.427-12.615,9.473-23.216,22.072-23.643c5.929-0.298,11.89,1.933,16.353,6.09c4.479,4.165,7.073,9.828,7.298,15.942
	c0.209,6.122-1.966,11.946-6.138,16.417c-4.173,4.463-9.828,7.041-15.926,7.242l0,0C366.564,103.939,366.29,103.939,366.024,103.939
	z M366.105,64.918c-0.201,0-0.411,0-0.612,0.008c-8.926,0.306-15.926,7.798-15.62,16.715c0.314,8.716,7.508,15.604,16.151,15.604
	c0.201,0.008,0.644,0.145,0.58-0.016c4.318-0.145,8.313-1.957,11.262-5.115c2.948-3.166,4.479-7.29,4.334-11.616
	c-0.145-4.318-1.982-8.321-5.156-11.27C374.047,66.432,370.181,64.918,366.105,64.918z"/>
<g>
	<defs>
		<path id="SVGID_00000000935188547093578230000014393375554153275042_" d="M346.521,81.771c-0.363-10.789,8.051-19.83,18.84-20.193
			c10.756-0.396,19.797,8.034,20.193,18.808c0.363,10.789-8.068,19.83-18.84,20.193c-0.231,0.017-0.462,0.017-0.693,0.017
			C355.562,100.596,346.9,92.28,346.521,81.771 M282.79,10.782c0.759,8.331,2.409,14.204,7.045,20.919
			c-4.388-0.957-8.431-2.557-11.334-4.817c-8.216-6.368-10.542-3.596-7.209,4.256c3.877,9.156,7.902,14.617,17.091,20.622
			c0.165,0.116,0.346,0.198,0.512,0.297c-0.148,0.792-0.314,1.567-0.429,2.376c-2.392,18.18,5.428,69.851,6.995,84.171
			c4.273,38.588,19.995,142.21,33.54,141.732c7.111-0.248,14.881-84.98,19.088-132.097c6.45,1.435,13.231,2.112,20.226,1.864
			c25.836-0.891,48.074-13.941,60.085-32.731c11.812-1.172,35.454-4.191,36.773-9.899c1.27-5.445-16.844-17.619-27.27-24.12V83.24
			c-1.238-35.536-34.497-59.079-74.091-61.85c-15.59-1.089-31.725-0.462-41.36,1.106h-0.033c-9.998,1.32-25.621-5.048-31.478-13.594
			c-2.606-3.811-4.669-5.527-6.071-5.527C283.103,3.358,282.345,6.064,282.79,10.782"/>
	</defs>
	<clipPath id="SVGID_00000176723394005173147850000013649136640890667684_">
		<use xlink:href="#SVGID_00000000935188547093578230000014393375554153275042_"  overflow="visible"/>
	</clipPath>
	
		<linearGradient id="SVGID_00000006689767445498889780000015374634252114039973_" gradientUnits="userSpaceOnUse" x1="50.4114" y1="446.7066" x2="66.9091" y2="446.7066" gradientTransform="matrix(0 -16.7891 -16.7891 0 7867.0054 1126.7072)">
		<stop  offset="0" style="stop-color:#F3B2C1"/>
		<stop  offset="1" style="stop-color:#E7364A"/>
	</linearGradient>
	
		<rect x="267.958" y="3.359" clip-path="url(#SVGID_00000176723394005173147850000013649136640890667684_)" fill="url(#SVGID_00000006689767445498889780000015374634252114039973_)" width="198.484" height="277.458"/>
</g>
<path fill="#FFFFFF" d="M252.143,289.481c-21.653,0.016-91.664-114.848-92.389-116.048c-1.418-2.328-3.609-5.784-6.259-9.965
	c-11.745-18.52-31.4-49.509-35.984-64.082c-1.756-5.51-2.296-11.06-1.619-16.538c-0.226-0.105-0.443-0.201-0.669-0.306
	c-11.141-5.405-16.143-11.294-21.033-19.647c-1.144-1.957-4.616-7.902-1.16-11.35c3.206-3.214,8.579-0.604,12.349,1.627
	c7.556,4.463,23.071,3.996,30.764-0.918c9.022-6.114,23.836-13.509,37.684-18.785c40.68-15.684,80.152-5.413,96.666,24.843
	c34.252,4.342,35.509,10.206,36.048,12.728c0.008,0.008,0.008,0.016,0.008,0.024c0.548,2.61,1.812,8.668-29.362,27.276
	c-3.697,23.522-19.365,44.37-42.195,55.994c-5.147,2.626-10.585,4.704-16.216,6.219c41.583,115.121,41.107,125.626,35.622,128.413
	C253.722,289.32,252.965,289.481,252.143,289.481z M98.839,57.329c0.258,0.58,0.62,1.297,1.136,2.183
	c4.439,7.588,8.458,12.293,18.117,16.981c0.83,0.379,1.692,0.725,2.529,0.975c1.643,0.507,2.642,2.183,2.296,3.867
	c-1.063,5.268-0.733,10.657,0.983,16.03c4.326,13.751,24.44,45.473,35.251,62.519c2.674,4.221,4.89,7.709,6.324,10.069
	c30.49,50.21,73.966,109.829,85.034,112.874c0.411-13.807-29.298-95.885-39.295-123.507c-0.33-0.902-0.25-1.909,0.217-2.747
	c0.459-0.846,1.265-1.45,2.207-1.659c6.396-1.41,12.559-3.617,18.31-6.541c21.395-10.899,35.912-30.538,38.836-52.538
	c0.137-1.015,0.733-1.917,1.619-2.441c20.389-12.043,26.809-18.785,27.518-20.928c-1.474-1.603-9.675-5.011-31.98-7.717
	c-0.741-0.089-1.434-0.427-1.966-0.959c-0.371-0.371-0.693-0.91-0.854-1.41c-14.21-27.767-50.854-37.289-88.901-22.66
	c-15.265,5.824-29.266,13.3-36.379,18.125c-10.029,6.396-28.057,6.879-37.861,1.096C100.643,58.151,99.612,57.652,98.839,57.329z
	 M300.074,72.667h0.081H300.074z M202.296,112.598c-8.337,0-16.385-4.567-20.429-12.486c-2.779-5.446-3.262-11.64-1.378-17.448
	c1.893-5.816,5.937-10.537,11.391-13.308c11.237-5.719,25.02-1.208,30.748,9.997c5.719,11.246,1.241,25.037-9.989,30.748l0,0
	C209.32,111.793,205.784,112.598,202.296,112.598z M202.215,73.577c-2.465,0-4.962,0.564-7.306,1.756
	c-3.851,1.949-6.71,5.292-8.047,9.401c-1.337,4.108-0.991,8.491,0.967,12.333c4.076,7.951,13.847,11.133,21.766,7.073
	c0,0,0-0.008,0.008-0.008c3.842-1.949,6.694-5.292,8.023-9.401c1.337-4.108,0.991-8.491-0.967-12.341
	C213.807,76.799,208.112,73.577,202.215,73.577z"/>
<g>
	<defs>
		<path id="SVGID_00000136386902243126231900000003972495996250391955_" d="M184.843,98.583c-4.9-9.585-1.056-21.348,8.546-26.248
			c9.602-4.883,21.348-1.056,26.248,8.546s1.089,21.364-8.529,26.231c-2.838,1.452-5.857,2.145-8.843,2.145
			C195.154,109.257,188.308,105.363,184.843,98.583 M175.011,36.585c-14.601,5.593-28.954,13-37.038,18.494h-0.016
			c-8.497,5.411-25.341,6.236-34.266,0.99c-8.925-5.279-10.921-2.244-6.599,5.131c4.999,8.579,9.668,13.512,19.55,18.312
			c1.006,0.478,2.013,0.858,3.003,1.172c-1.122,5.493-0.924,11.433,1.056,17.685c5.494,17.504,34.414,60.992,41.904,73.316
			c20.16,33.21,78.216,120.45,90.275,114.296c6.352-3.217-22.42-83.297-38.505-127.808c6.434-1.402,12.868-3.646,19.104-6.83
			c23.064-11.746,37.681-32.963,40.634-55.07c10.212-6.038,30.372-18.774,29.168-24.515c-1.188-5.461-22.718-8.843-34.942-10.328
			c-0.017-0.033-0.033-0.066-0.049-0.115c-10.905-21.414-32.764-31.676-57.247-31.692C199.328,29.623,187.004,31.981,175.011,36.585
			"/>
	</defs>
	<clipPath id="SVGID_00000158724442546768220500000016645594555309688237_">
		<use xlink:href="#SVGID_00000136386902243126231900000003972495996250391955_"  overflow="visible"/>
	</clipPath>
	
		<linearGradient id="SVGID_00000034777535685865623470000013042685542404653992_" gradientUnits="userSpaceOnUse" x1="49.0073" y1="457.7473" x2="65.505" y2="457.7473" gradientTransform="matrix(0 -15.5575 -15.5575 0 7320.0449 1048.7268)">
		<stop  offset="0" style="stop-color:#F9DBE8"/>
		<stop  offset="1" style="stop-color:#ED86B3"/>
	</linearGradient>
	
		<rect x="92.769" y="29.623" clip-path="url(#SVGID_00000158724442546768220500000016645594555309688237_)" fill="url(#SVGID_00000034777535685865623470000013042685542404653992_)" width="211.715" height="262.511"/>
</g>
<g opacity="0.65">
	<path fill="#FFFFFF" d="M205.153,53.067c-0.577,5.708,8.942,4.504,18.527,7.705c9.024,3.003,19.253,8.546,21.793,0.528
		c1.535-4.801-4.421-11.02-16.91-13.842C216.652,44.769,205.978,45.066,205.153,53.067"/>
	<rect x="205.135" y="45.939" fill="none" width="40.584" height="19.517"/>
</g>
<g opacity="0.65">
	<path fill="#FFFFFF" d="M383.616,47.38c-3.019,4.867,6.071,7.968,13.297,15.03c6.797,6.649,13.578,16.118,19.351,10.031
		c3.481-3.662,0.858-11.862-9.139-19.863C397.606,44.956,387.872,40.534,383.616,47.38"/>
	<rect x="383.03" y="43.992" fill="none" width="34.695" height="30.406"/>
</g>
<g opacity="0.65">
	<path fill="#FFFFFF" d="M559.323,96.583c-5.115,2.558,1.006,9.965,3.448,19.765c2.31,9.239,3.118,20.837,11.252,18.675
		c4.883-1.287,6.929-9.651,2.606-21.695C572.521,101.83,566.532,92.97,559.323,96.583"/>
	<rect x="557.345" y="95.761" fill="none" width="21.645" height="39.529"/>
</g>
<path fill="#8ED2F4" d="M188.988,324.974c-2.159-2.03-5.292-3.351-9.578-4.012l-47.06-7.234c-5.075-0.789-9.07-0.129-12.252,1.917
	c-3.689,2.368-5.905,6.316-6.783,12.051l-9.9,64.509c-0.886,5.719,0.04,10.15,2.844,13.533c2.417,2.932,6.05,4.737,11.117,5.526
	l48.309,7.411c0.926,0.129,2.296,0.322,3.81,0.322c7.057,0,11.713-3.979,12.768-10.891c0.926-5.8-1.321-9.264-3.359-11.133
	c-2.191-2.03-5.325-3.351-9.562-3.996l-34.961-5.381l1.812-11.729l29.209,4.479c3.987,0.612,7.105,0.338,9.683-0.886
	c2.417-1.128,5.494-3.673,6.412-9.393c0.862-5.671-1.305-9.054-3.271-10.875c-2.111-1.949-4.978-3.158-8.998-3.77l-29.201-4.495
	l1.458-9.538l33.978,5.236c4.237,0.628,7.637,0.338,10.311-0.951c2.513-1.176,5.687-3.818,6.573-9.602
	C193.217,330.274,190.986,326.827,188.988,324.974z"/>
<path fill="#8ED2F4" d="M373.177,372.276l-24.94-0.242c-3.641-0.032-7.008,1.096-9.288,3.335c-2.288,2.175-3.569,5.429-3.609,9.167
	c-0.048,7.653,5.397,12.647,13.864,12.728l6.96,0.064c-2.618,5.236-8.039,8.41-14.943,8.41c-6.38-0.064-11.374-2.239-14.854-6.444
	c-3.561-4.318-5.397-10.762-5.317-18.608c0.081-9.441,2.167-16.514,6.219-21.025c3.456-3.851,8.362-5.558,14.178-5.623
	c9.167,0.081,11.56,3.399,14.113,6.928c2.223,3.045,5.268,7.218,12.051,7.282c8.579,0,14.186-5.333,14.266-13.582
	c0.113-10.698-13.751-26.325-39.085-26.583c-0.201,0-0.411,0-0.612,0c-31.223,0-50.758,19.462-51.04,50.943
	c-0.314,31.707,17.972,51.588,48.228,51.894c9.336,0,17.07-2.384,23.466-7.266c1.563,3.448,4.672,7.041,11.262,7.105
	c6.509,0,11.664-5.059,11.729-11.503l0.322-33.511c0.048-4.173-0.983-7.331-3.093-9.651
	C380.766,373.565,377.527,372.308,373.177,372.276z"/>
<path fill="#8ED2F4" d="M102.729,317.74c-4.286-7.282-12.003-12.808-22.314-15.95c-25.729-7.862-25.834-7.878-25.882-7.894
	c-6.557-1.692-14.677-9.892-16.079-16.224c-0.491-2.223-1.796-8.104-6.122-8.265c-0.064,0-0.121,0-0.185,0
	c-4.084,0-5.679,5.284-6.203,7.041c-2.175,7.185-2.876,13.147-0.048,22.298c0.797,2.594,1.982,4.785,3.52,6.541
	c-1.313,4.334-5.591,18.399-19.519,64.251c-1.249,4.124-0.959,8.104,0.83,11.471c1.788,3.416,4.93,5.897,9.151,7.218
	c1.676,0.499,3.319,0.741,4.882,0.741c2.417,0,4.656-0.564,6.638-1.643c3.424-1.837,5.881-4.978,7.105-9.07l5.631-18.463
	l16.941,5.156c10.061,3.061,19.51,2.691,27.324-1.047c7.935-3.786,13.63-10.762,16.474-20.139
	C107.812,334.125,107.071,325.119,102.729,317.74z M76.251,335.043c-1.41,4.608-5.752,6.396-11.278,4.721l-13.493-4.108
	l4.551-14.919l11.487,3.512c3.907,1.176,6.702,2.771,8.096,4.608C76.452,329.952,77.282,331.644,76.251,335.043z"/>
<path fill="#8ED2F4" d="M271.114,326.859c-4.487-0.29-8.184,0.773-10.915,3.158c-2.747,2.384-4.35,5.977-4.648,10.392l-2.521,36.218
	l-23.74-44.982c-2.562-5.059-7.564-8.201-13.711-8.635c-5.929-0.354-10.4,0.709-13.59,3.496c-3.005,2.61-4.712,6.638-5.075,11.938
	l-4.882,70.454c-0.33,4.543,0.773,8.281,3.335,11.117c2.473,2.674,5.913,4.173,10.222,4.479c9.054,0.661,14.919-4.608,15.539-13.565
	l2.425-35.025l23.643,43.774c3.254,5.977,6.944,8.168,14.669,8.716c0.596,0.032,1.184,0.048,1.764,0.048
	c4.712,0,8.507-1.369,11.278-4.044c2.924-2.819,4.535-6.815,4.922-12.244l4.833-69.745
	C285.276,333.432,280.088,327.487,271.114,326.859z"/>
<path fill="#8ED2F4" d="M619.225,322.348c-1.353-8.877-7.604-13.501-16.643-12.228c-4.334,0.661-7.637,2.465-9.812,5.333
	c-2.272,2.964-3.077,6.767-2.417,11.31l5.51,35.879l-33.028-38.683c-3.625-4.382-9.296-6.299-15.273-5.413
	c-5.655,0.87-9.602,2.819-12.083,5.929c-2.723,3.335-3.625,7.669-2.755,13.227l10.698,69.825
	c1.176,7.798,6.283,12.454,13.662,12.454c0.934,0,1.949-0.081,2.964-0.242c4.318-0.661,7.62-2.449,9.812-5.317
	c2.288-2.981,3.093-6.783,2.417-11.31l-5.317-34.703l32.657,37.507c4.495,5.139,8.571,6.444,16.192,5.284
	c5.22-0.806,9.103-2.884,11.519-6.187c2.497-3.399,3.319-7.975,2.449-13.582L619.225,322.348z"/>
<path fill="#8ED2F4" d="M718.63,351.235c-4.398-15.016-16.546-22.362-34.445-21.492l-17.319,1.096
	c-5.397,0.354-10.456,0.306-11.117-1.901c-1.418-4.93,4.978-7.395,7.798-8.217c8.571-2.546,12.196-0.209,16.047,2.256
	c3.109,1.966,7.379,4.721,13.179,2.964c3.464-1.015,6.396-3.045,8.265-5.752c2.159-3.126,2.739-6.879,1.659-10.553
	c-0.854-2.916-2.497-5.494-4.882-7.701c0.451-0.918,0.838-1.885,1.16-2.916c2.819-9.151,2.127-15.112-0.032-22.346
	c-0.532-1.772-2.288-6.799-6.412-7.008c-4.318,0.161-5.623,6.058-6.106,8.265c-1.386,6.267-9.312,14.323-15.821,16.143
	c-4.495,0.193-8.926,0.902-12.841,2.062c-9.892,2.9-18.334,7.943-23.78,14.21c-6.879,7.943-8.909,17.577-5.897,27.872
	c1.514,5.204,6.058,20.751,30.385,20.751c0.693,0,1.418-0.016,2.159-0.048l23.587-0.854c5.107-0.064,5.784,1.901,6.122,3.029
	c0.435,1.482,0.048,3.19-1.112,4.801c-1.095,1.547-3.367,3.689-7.991,5.075c-9.006,2.594-12.953-0.242-17.142-3.319
	c-3.625-2.691-8.104-6.058-14.903-4.044c-7.298,2.143-11.213,9.216-9.103,16.449c2.497,8.587,12.696,17.239,29.822,17.239
	c5.671,0,11.793-0.951,18.222-2.852C712.267,387.372,724.253,370.423,718.63,351.235z"/>
<path fill="#8ED2F4" d="M522.833,336.139c-0.371-4.253-2.207-7.943-5.139-10.392c-2.948-2.465-6.783-3.673-11.085-3.174
	c-4.237,0.371-7.91,2.175-10.359,5.091c-2.449,2.932-3.593,6.896-3.206,11.149l6.428,71.694c0.371,4.237,2.127,7.814,5.091,10.343
	c2.578,2.159,5.865,3.303,9.522,3.303c0.483,0,1.031-0.032,1.643-0.081c4.286-0.403,7.878-2.175,10.392-5.188
	c2.449-2.997,3.544-6.815,3.158-11.052L522.833,336.139z"/>
<path fill="#8ED2F4" d="M482.733,340.118c-0.177-4.221-1.821-7.975-4.608-10.569c-2.835-2.61-6.718-4.06-10.955-3.754
	c-4.286,0.161-8.072,1.837-10.633,4.688c-2.61,2.852-3.883,6.622-3.706,10.891l2.078,48.671c0.193,4.495-0.773,7.83-2.852,9.908
	c-2.078,2.062-5.51,3.206-10.214,3.416c-4.72,0.193-8.297-0.677-10.521-2.61c-2.24-1.949-3.416-5.059-3.609-9.538l-2.078-48.671
	c-0.177-4.269-1.821-8.056-4.64-10.633c-2.803-2.562-6.67-3.931-10.939-3.689c-8.781,0.387-14.677,6.783-14.307,15.595l2.014,47.06
	c0.564,13.292,5.091,23.393,13.453,30.031c7.089,5.623,16.659,8.458,28.452,8.458c1.08,0,2.175-0.016,3.287-0.064
	c13.308-0.564,23.699-4.286,30.917-11.068c7.781-7.314,11.439-17.771,10.843-31.046L482.733,340.118z"/>
<path fill="#FFFFFF" d="M330.233,421.801c-15.249-0.145-27.445-5.027-35.791-14.146c-8.297-9.054-12.591-22.12-12.438-37.764
	c0.298-31.674,19.962-51.265,51.668-50.927c14.427,0.129,23.715,5.156,28.968,9.361c6.283,5.027,10.166,11.616,10.102,17.223
	c-0.097,8.249-5.687,13.582-14.266,13.582c-6.807-0.064-9.836-4.253-12.051-7.298c-2.57-3.528-4.986-6.847-14.113-6.928
	c-6.058-0.193-10.722,1.788-14.162,5.623c-4.06,4.527-6.154,11.6-6.235,21.025c-0.153,15.789,7.202,24.924,20.171,25.053
	c6.694-0.097,12.341-3.174,14.959-8.41l-6.976-0.064c-8.474-0.081-13.912-5.075-13.847-12.744c0.016-3.738,1.257-6.912,3.585-9.151
	c2.304-2.239,5.897-3.335,9.312-3.319l24.94,0.226l0,0c4.286,0.032,7.604,1.321,9.876,3.818c2.111,2.32,3.142,5.494,3.093,9.667
	l-0.322,33.511c-0.081,6.461-5.252,11.503-11.761,11.503c-6.581-0.064-9.683-3.657-11.246-7.121
	C347.295,419.417,339.562,421.801,330.233,421.801z M333.053,325.377c-27.695,0-44.37,16.627-44.636,44.579
	c-0.137,13.984,3.585,25.52,10.754,33.366c7.113,7.766,17.706,11.938,30.619,12.067c9.949,0,17.408-2.9,23.248-8.845
	c0.838-0.838,2.086-1.128,3.198-0.822c1.144,0.338,1.998,1.273,2.231,2.449c1.2,5.913,3.109,7.024,6.444,7.057
	c3.037,0,5.333-2.223,5.381-5.172l0.322-33.495c0.016-2.465-0.451-4.205-1.434-5.284c-1.039-1.144-2.731-1.692-5.188-1.724
	l-24.996-0.226c-2.111-0.145-3.681,0.499-4.729,1.531c-1.337,1.273-1.627,3.19-1.635,4.576c-0.04,5.139,4.052,6.251,7.5,6.283
	l11.382,0.113c0.951,0,1.853,0.435,2.457,1.176c0.604,0.741,0.846,1.724,0.661,2.658c-2.03,10.263-11.173,17.352-22.282,17.352
	c-0.113,0-0.226,0-0.338,0c-16.538-0.161-26.696-12.244-26.511-31.529c0.081-11.02,2.731-19.527,7.878-25.246
	c4.656-5.188,11.165-7.588,19.011-7.749c12.325,0.113,16.304,5.558,19.204,9.538c2.167,2.981,3.528,4.656,6.734,4.688
	c3.689,0,7.927-1.257,7.999-7.234c0.024-2.964-2.344-7.878-7.693-12.148c-4.463-3.561-12.43-7.846-25.02-7.959
	C333.431,325.377,333.238,325.377,333.053,325.377z M430.533,420.239c-11.793,0-21.363-2.836-28.452-8.458
	c-8.346-6.638-12.873-16.739-13.453-30.015l-1.998-47.093c-0.193-4.302,1.096-8.088,3.706-10.939s6.267-4.447,10.585-4.64
	c4.157-0.258,8.152,1.128,10.956,3.706c2.819,2.578,4.463,6.348,4.624,10.617l2.078,48.671c0.193,4.479,1.369,7.588,3.609,9.538
	c2.256,1.949,5.848,2.771,10.537,2.61c4.672-0.193,8.104-1.337,10.198-3.416c2.094-2.078,3.045-5.397,2.852-9.876l-2.062-48.704
	c-0.177-4.269,1.096-8.023,3.673-10.891c2.61-2.868,6.283-4.495,10.633-4.672c4.06-0.274,8.136,1.096,10.972,3.754
	c2.787,2.578,4.431,6.332,4.608,10.553l0,0l1.982,47.076c0.596,13.276-3.061,23.732-10.843,31.046
	c-7.186,6.783-17.593,10.504-30.917,11.068C432.724,420.222,431.612,420.239,430.533,420.239z M401.758,325.49
	c-0.177,0-0.354,0-0.548,0.016c-2.578,0.113-4.704,0.999-6.138,2.562c-1.45,1.563-2.143,3.754-2.03,6.332l1.998,47.093
	c0.483,11.342,4.205,19.833,11.036,25.262c6.477,5.139,15.837,7.604,27.469,7.008c11.745-0.499,20.751-3.641,26.793-9.328
	c6.364-5.977,9.328-14.758,8.829-26.1l-1.982-47.093c-0.113-2.546-0.983-4.656-2.546-6.106c-1.595-1.466-3.738-2.062-6.364-2.046
	c-2.578,0.113-4.704,0.999-6.122,2.578c-1.466,1.595-2.143,3.722-2.03,6.316l2.062,48.688c0.29,6.348-1.321,11.294-4.753,14.709
	c-3.271,3.238-8.12,5.011-14.435,5.268c-6.606,0.371-11.503-1.128-15.016-4.189c-3.593-3.109-5.542-7.846-5.816-14.097
	l-2.078-48.688c-0.097-2.578-0.983-4.704-2.546-6.154C406.092,326.182,404.095,325.49,401.758,325.49z M254.495,419.304
	c-0.58,0-1.144-0.016-1.756-0.048c-7.733-0.548-11.423-2.739-14.661-8.716l-23.659-43.758l-2.409,35.025
	c-0.636,8.958-6.42,14.29-15.555,13.549c-4.366-0.306-7.806-1.821-10.231-4.495c-2.546-2.836-3.657-6.557-3.327-11.084l4.882-70.454
	c0.362-5.301,2.07-9.312,5.067-11.938c3.19-2.771,7.572-3.883,13.598-3.512c6.13,0.435,11.133,3.577,13.727,8.635l23.723,44.982
	l2.521-36.218c0.298-4.414,1.909-8.007,4.648-10.392c2.747-2.384,6.589-3.416,10.915-3.158c8.974,0.628,14.162,6.589,13.549,15.579
	l-4.833,69.712c-0.387,5.429-1.99,9.441-4.906,12.244C263.018,417.935,259.216,419.304,254.495,419.304z M211.978,352.314
	c1.16,0,2.256,0.628,2.819,1.676l28.919,53.489c2.054,3.786,3.544,4.962,9.433,5.365c3.448,0.274,6.396-0.467,8.184-2.207
	c1.724-1.659,2.691-4.302,2.964-8.072l4.833-69.712c0.363-5.413-2.191-8.346-7.604-8.716l0,0c-2.755-0.242-4.809,0.338-6.251,1.595
	c-1.45,1.257-2.28,3.271-2.465,5.993l-3.303,47.447c-0.097,1.434-1.136,2.61-2.537,2.916c-1.426,0.29-2.836-0.387-3.496-1.643
	l-29-54.971c-1.603-3.126-4.535-4.914-8.482-5.188c-4.116-0.371-7.121,0.371-8.934,1.949c-1.692,1.466-2.634,3.931-2.884,7.54
	l-4.882,70.454c-0.193,2.739,0.371,4.866,1.692,6.332c1.273,1.402,3.262,2.207,5.905,2.384c5.454,0.532,8.329-2.111,8.724-7.588
	l3.166-46.061c0.097-1.418,1.12-2.61,2.521-2.916C211.527,352.331,211.753,352.314,211.978,352.314z M504.95,415.019
	c-3.657,0-6.944-1.144-9.522-3.319c-2.932-2.465-4.704-6.042-5.075-10.327l-6.444-71.694c-0.387-4.237,0.757-8.184,3.19-11.117
	c2.449-2.932,6.138-4.753,10.376-5.123c4.237-0.483,8.12,0.693,11.084,3.174c2.932,2.433,4.769,6.138,5.139,10.392l6.444,71.694
	c0.387,4.237-0.709,8.056-3.158,11.052c-2.465,3.013-6.058,4.801-10.392,5.188C506.045,415.002,505.465,415.019,504.95,415.019z
	 M499.134,319.77c-0.354,0-0.709,0.016-1.079,0.048c-2.578,0.242-4.656,1.224-6.026,2.868c-1.369,1.627-1.966,3.851-1.74,6.412
	l6.444,71.694c0.242,2.562,1.208,4.64,2.836,5.993c1.627,1.386,3.641,1.998,6.412,1.772c2.61-0.242,4.688-1.224,6.042-2.868
	c1.353-1.659,1.966-3.883,1.74-6.412l-6.444-71.694l0,0c-0.242-2.594-1.224-4.688-2.868-6.042
	C503.065,320.366,501.244,319.77,499.134,319.77z M547.95,410.846c-7.379,0-12.486-4.656-13.662-12.454l-10.682-69.809
	c-0.854-5.607,0.032-9.924,2.739-13.227c2.497-3.126,6.461-5.075,12.099-5.929c6.026-0.967,11.632,1.031,15.257,5.413l33.028,38.667
	l-5.51-35.879c-0.677-4.559,0.145-8.362,2.433-11.326c2.127-2.819,5.429-4.624,9.795-5.317c8.877-1.257,15.273,3.335,16.643,12.228
	l0,0l10.553,69.084c0.87,5.607,0.048,10.182-2.465,13.598c-2.417,3.303-6.283,5.381-11.503,6.187
	c-7.556,1.16-11.697-0.161-16.175-5.301l-32.673-37.507l5.317,34.703c0.677,4.527-0.129,8.329-2.417,11.31
	c-2.175,2.868-5.462,4.672-9.796,5.333C549.883,410.781,548.868,410.846,547.95,410.846z M541.457,315.613
	c-0.661,0-1.337,0.048-2.03,0.161c-3.979,0.596-6.622,1.788-8.088,3.609c-1.514,1.837-1.949,4.527-1.386,8.233l10.682,69.809
	c0.822,5.429,3.867,7.588,9.344,6.847c2.594-0.403,4.495-1.369,5.639-2.868c1.208-1.579,1.595-3.689,1.176-6.461l-6.992-45.643
	c-0.209-1.402,0.532-2.787,1.821-3.399c1.305-0.58,2.819-0.274,3.77,0.806l39.939,45.852c2.803,3.206,4.688,4.044,10.375,3.174
	c3.464-0.532,5.929-1.756,7.298-3.625c1.466-1.998,1.901-4.962,1.289-8.829l-10.553-69.1c-0.806-5.333-3.867-7.733-9.312-6.847
	c-2.642,0.419-4.559,1.386-5.671,2.868c-1.208,1.563-1.595,3.722-1.192,6.477l7.218,46.996c0.209,1.418-0.532,2.803-1.837,3.399
	c-1.337,0.58-2.852,0.258-3.77-0.838l-40.374-47.27C546.951,316.741,544.454,315.613,541.457,315.613z M160.359,409.863
	c-1.676,0-3.182-0.209-4.1-0.354l-48.019-7.379c-5.027-0.773-8.66-2.578-11.109-5.526c-2.803-3.383-3.738-7.798-2.852-13.517
	l9.9-64.525c0.894-5.719,3.109-9.651,6.767-12.035c3.222-2.078,7.274-2.674,12.277-1.917l47.052,7.218l0,0
	c4.237,0.644,7.363,1.966,9.554,3.996c2.038,1.901,4.277,5.365,3.383,11.149c-0.886,5.752-4.052,8.378-6.549,9.57
	c-2.682,1.289-6.074,1.595-10.319,0.951l-33.986-5.22l-1.466,9.538l29.193,4.479c4.028,0.612,6.887,1.804,9.006,3.77
	c1.957,1.821,4.124,5.188,3.287,10.859c-0.91,5.736-4.004,8.281-6.428,9.409c-2.513,1.224-5.599,1.531-9.667,0.902l-29.225-4.495
	l-1.796,11.729l34.945,5.381c4.221,0.644,7.355,1.949,9.57,3.979c2.038,1.901,4.277,5.349,3.375,11.149
	C172.087,405.884,167.431,409.863,160.359,409.863z M119.275,310.7c-1.99,0-3.585,0.403-4.841,1.208
	c-2.038,1.321-3.319,3.818-3.907,7.637l-9.9,64.525c-0.596,3.802-0.121,6.557,1.442,8.442c1.402,1.676,3.738,2.755,7.137,3.271
	l48.043,7.379c0.717,0.113,1.853,0.29,3.109,0.29c3.931,0,5.864-1.643,6.444-5.462c0.572-3.641-0.894-4.994-1.378-5.446
	c-1.224-1.128-3.311-1.917-6.195-2.352l-38.119-5.864c-1.748-0.274-2.948-1.901-2.682-3.657l2.771-18.077
	c0.129-0.838,0.588-1.595,1.273-2.111c0.693-0.499,1.522-0.628,2.392-0.58l32.391,4.978c2.634,0.403,4.592,0.306,5.929-0.354
	c1.015-0.467,2.344-1.434,2.852-4.576c0.459-3.126-0.532-4.463-1.313-5.188c-1.12-1.047-2.908-1.724-5.607-2.127l-32.367-4.962
	c-0.846-0.129-1.603-0.596-2.102-1.273c-0.507-0.693-0.717-1.547-0.588-2.384l2.441-15.885c0.266-1.756,1.933-2.884,3.657-2.691
	l37.152,5.703c2.948,0.483,5.123,0.338,6.581-0.387c0.612-0.29,2.417-1.16,2.972-4.769c0.508-3.254-0.564-4.672-1.41-5.462
	c-1.2-1.128-3.271-1.917-6.146-2.352l-47.06-7.218C121.169,310.78,120.186,310.7,119.275,310.7z M660.776,388.161
	c-17.126,0-27.308-8.668-29.805-17.239c-2.111-7.234,1.788-14.307,9.087-16.449c6.783-2.014,11.278,1.353,14.903,4.044
	c4.157,3.061,8.007,5.945,17.158,3.319c4.592-1.353,6.896-3.512,8.007-5.075c0.806-1.128,1.643-2.884,1.079-4.817
	c-0.338-1.128-1.112-3.303-6.09-2.997l-23.619,0.854c-0.725,0.032-1.434,0.032-2.111,0.032
	c-24.328,0.016-28.903-15.547-30.434-20.751c-3.013-10.295-0.967-19.929,5.929-27.872c5.397-6.251,13.839-11.294,23.748-14.194
	c3.995-1.176,8.426-1.885,12.857-2.062c6.702-2.046,14.452-9.989,15.821-16.159c0.483-2.223,1.788-8.104,6.122-8.265
	c4.173,0.081,5.864,5.268,6.396,7.041c2.143,7.186,2.852,13.147,0.016,22.33c-0.322,1.031-0.709,1.998-1.16,2.9
	c2.384,2.207,4.012,4.785,4.882,7.685c1.079,3.722,0.499,7.476-1.659,10.585c-1.885,2.691-4.817,4.721-8.265,5.736
	c-5.848,1.724-10.069-0.999-13.163-2.964c-3.883-2.465-7.556-4.688-16.047-2.256c-2.819,0.822-9.232,3.287-7.798,8.217
	c0.644,2.223,5.752,2.256,11.101,1.901l17.335-1.079c17.883-1.015,30.031,6.493,34.429,21.476l0,0
	c5.703,19.478-5.993,36.04-30.498,43.226C672.569,387.211,666.447,388.161,660.776,388.161z M643.988,360.305
	c-0.661,0-1.369,0.097-2.127,0.322c-3.979,1.176-5.881,4.576-4.737,8.491c1.772,6.09,9.924,12.631,23.651,12.631
	c5.059,0,10.569-0.87,16.417-2.578c21.025-6.171,30.804-19.349,26.148-35.267l0,0c-3.561-12.148-13.114-17.803-27.872-16.868
	l-17.352,1.079c-6.171,0.338-15.499,0.902-17.642-6.509c-1.643-5.623,0.693-12.824,12.148-16.175
	c11.31-3.319,17.078,0.306,21.299,2.997c3.013,1.917,4.914,3.093,7.911,2.223c2.062-0.596,3.754-1.756,4.801-3.238
	c1.031-1.498,1.305-3.271,0.773-5.107c-0.693-2.336-2.304-4.414-4.769-6.154c-0.709-0.499-1.176-1.273-1.321-2.127
	c-0.129-0.854,0.081-1.724,0.596-2.417c0.757-1.015,1.353-2.207,1.804-3.625c2.352-7.621,1.853-12.212,0-18.447
	c-0.048,0.209-0.097,0.419-0.161,0.644c-1.917,8.7-11.793,18.737-20.735,21.057c-4.769,0.258-8.797,0.886-12.389,1.933
	c-8.732,2.562-16.095,6.912-20.703,12.244c-5.397,6.219-6.992,13.775-4.624,21.863c2.465,8.329,7.749,16.61,26.164,16.111
	l23.603-0.854c0.306-0.016,0.612-0.016,0.918-0.016c7.669,0,10.537,4.092,11.568,7.621c1.015,3.416,0.29,7.105-1.998,10.343
	c-1.708,2.401-5.075,5.623-11.439,7.508c-12.067,3.544-18.254-0.983-22.749-4.286C648.435,361.675,646.421,360.305,643.988,360.305z
	 M15.625,379.832c-1.643,0-3.295-0.258-4.914-0.757c-4.165-1.273-7.322-3.77-9.119-7.202c-1.788-3.367-2.078-7.331-0.83-11.455
	c13.928-45.868,18.205-59.933,19.519-64.267c-1.555-1.756-2.731-3.947-3.504-6.541c-2.844-9.135-2.143-15.096,0.032-22.298
	c0.532-1.788,2.086-7.226,6.396-7.032c4.334,0.161,5.639,6.034,6.13,8.257c1.394,6.332,9.497,14.532,16.063,16.224
	c0.048,0.016,0.153,0.032,25.882,7.894l0,0c21.025,6.412,30.402,22.491,24.473,41.969c-5.752,18.898-23.321,27.437-43.814,21.202
	l-16.925-5.156l-5.631,18.447c-1.241,4.124-3.706,7.266-7.121,9.087C20.257,379.284,18.018,379.832,15.625,379.832z M22.915,269.278
	c-1.869,6.235-2.376,10.827-0.008,18.463c0.677,2.223,1.667,3.851,3.061,4.994c0.999,0.838,1.402,2.191,1.015,3.432
	c-0.242,0.806-20.082,66.12-20.082,66.12c-0.741,2.465-0.62,4.737,0.371,6.606c0.991,1.885,2.836,3.287,5.333,4.06
	c2.368,0.709,4.753,0.628,6.63-0.403c1.917-1.031,3.254-2.803,4.012-5.284l6.565-21.54c0.516-1.692,2.304-2.562,4.004-2.143
	l19.994,6.09c17.263,5.317,31.014-1.208,35.807-16.917c4.922-16.176-2.449-28.549-20.203-33.946v-0.016
	c-0.008,0-24.819-7.588-25.689-7.83c-8.869-2.304-18.737-12.341-20.654-21.041C23.02,269.697,22.964,269.471,22.915,269.278z
	 M59.697,337.669c-1.845,0-3.762-0.29-5.719-0.902l-16.554-5.027c-0.814-0.258-1.498-0.822-1.901-1.563
	c-0.395-0.757-0.483-1.643-0.234-2.449l6.42-21.073c0.25-0.822,0.814-1.498,1.563-1.901c0.749-0.387,1.611-0.467,2.449-0.226
	l14.532,4.447c5.276,1.595,9.103,3.915,11.35,6.879c2.489,3.287,3.053,7.298,1.676,11.906c-0.008,0.016-0.008,0.016-0.008,0.016
	c-1.208,3.963-3.842,7.008-7.419,8.619C63.966,337.251,61.888,337.669,59.697,337.669z M42.361,326.521l13.493,4.108
	c2.779,0.854,5.325,0.806,7.371-0.081c1.885-0.854,3.238-2.449,3.907-4.64c1.015-3.383,0.185-5.075-0.644-6.187
	c-1.394-1.837-4.197-3.432-8.104-4.608l-11.471-3.512L42.361,326.521z M70.201,326.843h0.081H70.201z"/>
<path fill="#0054A7" d="M169.795,315.005l-47.068-7.226c-4.24-0.66-7.507-0.182-10.031,1.435c-2.854,1.848-4.603,5.081-5.345,9.832
	l-9.899,64.539c-0.742,4.768-0.033,8.348,2.145,10.971c1.914,2.31,4.9,3.762,9.123,4.405l48.041,7.374
	c0.809,0.132,2.128,0.313,3.597,0.313c3.728,0,8.562-1.27,9.618-8.182c0.545-3.514-0.247-6.302-2.375-8.282
	c-1.716-1.567-4.29-2.623-7.886-3.167l-38.11-5.857l2.772-18.082l32.385,4.982c3.366,0.512,5.857,0.314,7.837-0.643
	c2.524-1.188,4.058-3.53,4.603-6.962c0.512-3.448-0.247-6.137-2.293-8.051c-1.617-1.485-3.926-2.425-7.308-2.936l-32.369-4.966
	l2.442-15.887l37.153,5.708c3.58,0.544,6.351,0.33,8.463-0.677c2.606-1.254,4.206-3.662,4.751-7.176
	c0.544-3.53-0.264-6.319-2.392-8.298C175.949,316.589,173.359,315.55,169.795,315.005 M261.754,320.928
	c-7.21-0.512-11.648,3.349-12.143,10.575l-3.299,47.448l-29.003-54.97c-2.095-4.091-6.038-6.55-11.086-6.896
	c-9.734-0.677-14.617,3.283-15.244,12.472l-4.883,70.445c-0.264,3.662,0.594,6.582,2.507,8.694c1.848,2.046,4.57,3.217,8.068,3.448
	c7.193,0.495,11.631-3.349,12.142-10.558l3.168-46.062l28.92,53.486c2.706,4.999,5.395,6.566,12.027,7.045
	c0.544,0.033,1.056,0.05,1.567,0.05c3.86,0,6.896-1.056,9.074-3.168c2.326-2.227,3.597-5.56,3.927-10.146l4.834-69.72
	C272.823,325.861,268.963,321.423,261.754,320.928 M364.022,366.346l-24.994-0.231c-2.821-0.066-5.329,0.809-6.995,2.442
	c-1.683,1.617-2.59,3.992-2.606,6.863c-0.049,5.89,3.943,9.437,10.674,9.503l11.383,0.115c-1.732,8.744-9.503,14.898-19.434,14.766
	c-14.798-0.132-23.509-10.707-23.344-28.277c0.083-10.261,2.475-18.032,7.061-23.146c3.993-4.438,9.602-6.797,16.58-6.682
	c10.757,0.099,13.891,4.421,16.679,8.249c2.112,2.92,4.306,5.923,9.272,5.972h0.181c6.863,0,10.988-3.877,11.054-10.41
	c0.083-8.265-11.845-23.113-35.882-23.344c-29.729-0.231-48.157,18.015-48.437,47.761c-0.297,30.207,16.366,48.388,44.543,48.668
	h0.479c10.41,0,18.642-3.217,25.093-9.8c1.105,5.461,3.184,9.569,9.552,9.635h0.066c4.768,0,8.497-3.646,8.546-8.331l0.33-33.507
	c0.033-3.299-0.709-5.758-2.277-7.474C369.896,367.303,367.421,366.379,364.022,366.346 M470.384,331.107
	c-0.132-3.415-1.386-6.302-3.564-8.331c-2.211-2.046-5.164-3.035-8.678-2.887c-3.448,0.132-6.352,1.402-8.381,3.613
	c-2.013,2.227-2.986,5.197-2.838,8.612l2.062,48.685c0.231,5.428-1.056,9.568-3.811,12.307c-2.672,2.64-6.813,4.108-12.307,4.339
	c-11.251,0.495-17.025-4.504-17.488-15.227l-2.079-48.668c-0.28-7.028-5.196-11.565-12.241-11.251
	c-7.012,0.313-11.532,5.23-11.219,12.241l1.996,47.084c0.528,12.324,4.653,21.612,12.241,27.651
	c6.5,5.147,15.393,7.754,26.446,7.754c1.04,0,2.095-0.017,3.168-0.066c12.538-0.528,22.239-3.959,28.854-10.195
	c7.061-6.632,10.377-16.25,9.833-28.574L470.384,331.107z M510.506,327.296c-0.627-7.011-5.725-11.317-12.736-10.674
	c-7.012,0.627-11.301,5.774-10.674,12.77l6.45,71.699c0.297,3.431,1.667,6.236,3.959,8.166c1.996,1.683,4.537,2.557,7.441,2.557
	c0.429,0,0.891-0.017,1.353-0.066c3.431-0.314,6.285-1.699,8.199-4.026c1.898-2.309,2.755-5.312,2.458-8.727L510.506,327.296z
	 M606.919,313.702c-1.106-7.16-5.873-10.625-12.967-9.536c-3.481,0.544-6.104,1.914-7.754,4.108
	c-1.749,2.26-2.343,5.263-1.798,8.876l7.21,47.002l-40.37-47.266c-2.937-3.547-7.325-5.065-12.307-4.29
	c-4.784,0.726-8.1,2.293-10.113,4.784c-2.095,2.59-2.755,6.087-2.046,10.723l10.69,69.802c0.957,6.286,4.735,9.734,10.493,9.734
	c0.775,0,1.617-0.066,2.491-0.198c3.464-0.528,6.071-1.914,7.737-4.108c1.732-2.26,2.326-5.246,1.782-8.876l-6.995-45.633
	l39.941,45.847c3.745,4.29,6.714,5.23,13.281,4.24c8.925-1.369,12.72-6.797,11.284-16.135L606.919,313.702z M70.347,295.736
	c0,0-25.604-7.836-25.753-7.869c-7.457-1.93-16.696-10.905-18.395-18.642c-1.716-7.721-4.438-7.242-6.319-0.99
	c-2.194,7.259-2.524,12.456-0.033,20.457c0.875,2.92,2.277,5.048,4.075,6.533c-0.049,0.132-20.094,66.123-20.094,66.123
	c-0.99,3.283-0.792,6.401,0.61,9.04c1.402,2.673,3.91,4.603,7.226,5.626c1.353,0.412,2.689,0.611,3.959,0.611
	c1.831,0,3.58-0.413,5.131-1.254c2.656-1.419,4.569-3.893,5.56-7.193l6.566-21.513l19.995,6.087
	c18.906,5.742,34.529-1.732,39.809-19.055C98.113,315.846,89.765,301.642,70.347,295.736 M70.198,326.851
	c-1.93,6.302-8.067,9.057-15.277,6.863l-16.564-5.048l6.418-21.068l14.535,4.438c4.635,1.402,7.902,3.332,9.734,5.758
	C70.908,320.251,71.287,323.221,70.198,326.851 M706.416,343.001c-3.976-13.561-14.716-20.226-31.164-19.17l-17.323,1.072
	c-6.813,0.412-13.033,0.396-14.37-4.207c-1.567-5.345,2.145-9.899,9.965-12.192c9.932-2.92,14.584,0.033,18.676,2.623
	c3.002,1.93,6.121,3.91,10.542,2.606c2.755-0.809,5.065-2.409,6.517-4.487c1.6-2.309,2.029-5.081,1.221-7.836
	c-0.908-3.101-2.97-5.758-5.989-7.886c0.94-1.254,1.716-2.755,2.293-4.569c2.458-8.018,2.144-13.198-0.033-20.474
	c-1.897-6.253-4.619-6.731-6.319,1.006c-1.716,7.737-10.954,16.712-18.411,18.642l-0.049,0.017
	c-4.273,0.149-8.546,0.809-12.44,1.947c-9.321,2.722-17.223,7.424-22.239,13.231c-6.137,7.061-7.952,15.673-5.263,24.862
	c2.425,8.265,8.002,19.17,29.349,18.411l23.608-0.858c5.164-0.214,8.183,1.534,9.289,5.296c0.726,2.475,0.181,5.164-1.535,7.589
	c-1.402,1.963-4.206,4.669-9.717,6.285c-10.608,3.118-15.574-0.561-19.945-3.794c-3.382-2.508-6.88-5.098-12.126-3.564
	c-5.642,1.65-8.529,6.896-6.913,12.472c1.996,6.814,10.74,14.931,26.743,14.931c5.048,0,10.823-0.809,17.306-2.706
	C700.708,375.618,711.563,360.572,706.416,343.001"/>
<path fill="#8ED2F4" d="M133.073,459.838c2.128,0.363,6.648-8.958,9.139-14.287c2.491-5.329,1.765-6.962,0.94-7.358
	c-0.743-0.33-2.211,0.049-4.356,4.157c-0.181,0.33-0.577,1.287-0.248-0.808v-0.017c0.677-4.867-0.33-6.087-1.138-6.236
	c-0.808-0.149-2.178,0.66-3.217,5.461v0.017c-0.412,2.078-0.446,1.056-0.495,0.709l-0.017-0.017
	c-0.594-4.603-1.864-5.461-2.689-5.395c-0.891,0.066-2.128,1.369-1.617,7.226C129.905,449.165,130.961,459.476,133.073,459.838"/>
<path fill="#8ED2F4" d="M576.319,459.838c-2.129,0.363-6.649-8.958-9.157-14.287c-2.475-5.329-1.749-6.962-0.924-7.358
	c0.743-0.33,2.211,0.049,4.356,4.157c0.181,0.33,0.577,1.287,0.231-0.808v-0.017c-0.66-4.867,0.346-6.087,1.155-6.236
	c0.808-0.149,2.177,0.66,3.217,5.461v0.017c0.412,2.078,0.446,1.056,0.495,0.709l0.017-0.017c0.594-4.603,1.864-5.461,2.689-5.395
	c0.891,0.066,2.128,1.369,1.617,7.226C579.486,449.165,578.43,459.476,576.319,459.838"/>
<path fill="#8ED2F4" d="M150.556,436.684l10.657,1.353c5.774,0.743,9.42,3.927,8.628,10.08c-0.791,6.319-4.57,8.662-10.657,7.886
	l-3.943-0.495l-1.122,8.892l-6.962-0.891L150.556,436.684z M155.967,449.882l1.154,0.148c2.541,0.314,5.032,0.643,5.445-2.623
	c0.429-3.382-1.881-3.712-4.587-4.058l-1.171-0.148L155.967,449.882z"/>
<path fill="#8ED2F4" d="M191.833,460.521l-13.66-1.435c-0.28,2.64,0.957,4.207,3.63,4.487c1.402,0.149,2.458-0.214,3.3-1.353
	l6.236,0.643c-1.485,4.223-5.79,5.758-9.965,5.312c-6.071-0.643-10.245-4.537-9.585-10.855c0.643-6.088,5.197-9.321,11.152-8.694
	c6.352,0.66,9.618,4.966,8.975,11.218L191.833,460.521z M186.191,456.133c-0.132-1.765-1.617-3.085-3.366-3.267
	c-1.881-0.198-3.564,0.627-4.158,2.475L186.191,456.133z"/>
<path fill="#8ED2F4" d="M203.462,454.232h0.082c1.452-2.128,3.679-2.953,6.22-2.722l1.237,0.115l-0.544,6.253
	c-0.858-0.577-1.699-0.759-2.689-0.858c-3.613-0.33-4.719,1.996-4.999,5.131l-0.643,7.424l-6.516-0.577l1.617-18.345l6.517,0.577
	L203.462,454.232z"/>
<path fill="#8ED2F4" d="M220.653,471.068l-6.517-0.495l0.99-12.983l-2.309-0.165l0.412-5.361l2.293,0.149l0.165-2.31
	c0.198-2.54,0.429-4.405,2.359-6.302c1.749-1.765,4.158-2.64,6.616-2.442c1.023,0.066,1.881,0.314,2.739,0.841l-0.413,5.626
	c-0.725-0.379-1.386-0.726-2.243-0.792c-1.683-0.132-2.343,0.841-2.475,2.904l-0.231,2.986l4.537,0.33l-0.396,5.361l-4.537-0.33
	L220.653,471.068z"/>
<path fill="#8ED2F4" d="M250.413,463.824c-0.396,6.236-5.774,9.453-11.664,9.074c-5.89-0.346-10.855-4.19-10.46-10.443
	c0.38-6.269,5.758-9.503,11.664-9.123C245.86,453.678,250.793,457.555,250.413,463.824 M235.153,462.867
	c-0.149,2.343,1.286,4.224,3.926,4.389c2.656,0.149,4.306-1.535,4.455-3.861c0.149-2.243-1.287-4.256-3.927-4.405
	C236.951,458.809,235.301,460.607,235.153,462.867"/>
<path fill="#8ED2F4" d="M261.783,458.147h0.066c1.353-2.194,3.563-3.085,6.104-2.986l1.237,0.066l-0.28,6.269
	c-0.891-0.544-1.749-0.693-2.738-0.742c-3.613-0.165-4.636,2.194-4.768,5.329l-0.363,7.424l-6.5-0.314l0.858-18.362l6.517,0.297
	L261.783,458.147z"/>
<path fill="#8ED2F4" d="M279.441,458.195h0.082c1.601-1.98,3.531-2.788,5.89-2.705c2.656,0.082,4.916,1.237,6.153,3.728
	c1.336-2.26,3.844-3.415,6.352-3.332c4.652,0.149,6.17,3.267,6.038,7.474l-0.38,11.73l-6.533-0.198l0.297-8.794
	c0.066-1.897,0.247-5.015-2.524-5.098c-3.019-0.099-3.217,2.722-3.283,4.916l-0.28,8.776l-6.533-0.214l0.297-8.777
	c0.066-2.046,0.165-5.164-2.738-5.246c-2.904-0.099-3.019,3.002-3.085,5.048l-0.264,8.793l-6.533-0.214l0.594-18.378l6.533,0.198
	L279.441,458.195z"/>
<path fill="#8ED2F4" d="M329.694,475.478l-6.533-0.099l0.033-2.046h-0.066c-1.171,1.815-3.448,2.607-5.593,2.574
	c-5.461-0.083-9.222-4.685-9.123-9.965c0.066-5.263,3.893-9.734,9.354-9.651c2.112,0.033,4.322,0.858,5.659,2.508l0.033-1.815
	l6.516,0.116L329.694,475.478z M315.144,466.074c-0.033,2.343,1.468,4.158,4.124,4.191c2.656,0.049,4.223-1.732,4.256-4.058
	c0.033-2.261-1.485-4.174-4.124-4.224C316.744,461.95,315.176,463.814,315.144,466.074"/>
<path fill="#8ED2F4" d="M342.388,459.516h0.066c1.534-2.227,3.349-2.969,5.906-2.953c4.949,0.017,6.896,3.151,6.879,7.671
	l-0.05,11.383l-6.533-0.033l0.05-8.975c0.016-1.765,0.297-4.834-2.92-4.85c-2.656-0.017-3.415,1.947-3.432,4.256l-0.049,9.536
	l-6.517-0.033l0.083-18.411l6.533,0.033L342.388,459.516z"/>
<path fill="#8ED2F4" d="M374.593,463.045c-0.99-0.709-2.129-1.27-3.382-1.254c-2.508,0.017-4.487,1.964-4.471,4.504
	c0.033,2.656,1.963,4.52,4.653,4.487c1.138,0,2.392-0.495,3.25-1.27l0.033,5.527c-1.419,0.726-3.002,1.056-4.57,1.072
	c-5.477,0.033-10.047-3.976-10.097-9.536c-0.05-5.939,4.454-10.064,10.212-10.097c1.518,0,3.035,0.33,4.322,1.039L374.593,463.045z"
	/>
<path fill="#8ED2F4" d="M399.192,466.965l-13.726,0.248c0.05,2.639,1.469,4.058,4.158,4.009c1.402-0.017,2.409-0.512,3.085-1.749
	l6.269-0.116c-0.957,4.372-5.032,6.418-9.239,6.484c-6.087,0.116-10.707-3.25-10.806-9.585c-0.115-6.121,4.009-9.899,9.981-10.014
	c6.384-0.116,10.146,3.761,10.261,10.047L399.192,466.965z M393.056,463.303c-0.347-1.732-1.98-2.87-3.745-2.838
	c-1.897,0.033-3.464,1.072-3.811,2.986L393.056,463.303z"/>
<path fill="#8ED2F4" d="M417.192,447.519l10.757-0.412c5.807-0.214,9.931,2.309,10.146,8.513c0.247,6.384-3.085,9.305-9.206,9.536
	l-3.976,0.165l0.33,8.958l-7.028,0.264L417.192,447.519z M424.682,459.645l1.188-0.033c2.557-0.115,5.065-0.198,4.932-3.498
	c-0.132-3.398-2.458-3.349-5.18-3.25l-1.188,0.049L424.682,459.645z"/>
<path fill="#8ED2F4" d="M449.187,457.842l0.082-0.016c1.138-2.327,3.234-3.432,5.774-3.564l1.254-0.049l0.313,6.269
	c-0.907-0.462-1.782-0.528-2.788-0.478c-3.613,0.198-4.372,2.64-4.24,5.774l0.396,7.424l-6.533,0.313l-0.907-18.362l6.5-0.33
	L449.187,457.842z"/>
<path fill="#8ED2F4" d="M481.589,462.103c0.396,6.22-4.537,10.113-10.426,10.476c-5.873,0.396-11.285-2.788-11.681-9.057
	c-0.396-6.269,4.52-10.129,10.426-10.492C475.798,452.634,481.176,455.867,481.589,462.103 M466.345,463.093
	c0.148,2.327,1.798,4.009,4.454,3.828c2.656-0.149,4.075-2.046,3.927-4.372c-0.149-2.26-1.815-4.042-4.471-3.877
	C467.615,458.837,466.197,460.833,466.345,463.093"/>
<path fill="#8ED2F4" d="M517.453,460.155l-13.677,1.254c0.231,2.64,1.765,3.927,4.438,3.679c1.386-0.115,2.359-0.676,2.953-1.947
	l6.253-0.561c-0.643,4.405-4.586,6.747-8.744,7.111c-6.087,0.561-10.921-2.458-11.499-8.793c-0.544-6.104,3.3-10.146,9.272-10.674
	c6.351-0.577,10.394,3.003,10.938,9.255L517.453,460.155z M511.085,456.954c-0.479-1.715-2.195-2.722-3.943-2.557
	c-1.897,0.165-3.366,1.32-3.596,3.234L511.085,456.954z"/>
<path fill="#8ED2F4" d="M534.737,454.006c-1.023-0.61-2.244-1.056-3.482-0.94c-2.491,0.28-4.256,2.425-3.976,4.949
	c0.264,2.623,2.359,4.29,5.048,3.993c1.138-0.099,2.327-0.709,3.102-1.567l0.578,5.477c-1.353,0.858-2.887,1.353-4.438,1.518
	c-5.428,0.594-10.394-2.97-10.971-8.497c-0.643-5.89,3.432-10.426,9.173-11.037c1.485-0.165,3.036,0.033,4.389,0.611
	L534.737,454.006z"/>
<polygon fill="#8ED2F4" points="548.883,464.834 542.399,465.626 540.848,452.691 538.753,452.939 538.11,447.61 540.205,447.346 
	539.562,441.869 546.029,441.094 546.688,446.587 550.351,446.126 550.995,451.471 547.332,451.916 "/>
<path fill="#8ED2F4" d="M563.979,459.388c0.297,2.277-1.303,4.405-3.613,4.702c-2.309,0.314-4.405-1.336-4.718-3.613
	c-0.297-2.293,1.303-4.388,3.613-4.702C561.57,455.478,563.648,457.062,563.979,459.388"/>
<path fill="#8ED2F4" d="M488.76,451.241c2.095-0.165,3.663-2.013,3.514-4.092c-0.165-2.078-2.013-3.679-4.091-3.514
	c-2.095,0.165-3.679,2.012-3.514,4.091C484.818,449.823,486.682,451.39,488.76,451.241 M487.193,475.08
	c0.165,2.095-1.238,2.739-2.953,2.92l-5.626,0.429l0.528,6.616l12.159-0.94c1.798-0.149,3.398-0.182,3.217-2.376l-0.066-0.891
	l-2.046-26.33l-6.764,0.528L487.193,475.08z"/>
<path fill="#009FE8" d="M130.543,457.292c2.112,0.363,6.632-8.942,9.139-14.287c2.475-5.329,1.749-6.962,0.94-7.341
	c-0.743-0.346-2.227,0.033-4.372,4.141c-0.165,0.33-0.561,1.287-0.231-0.808c0.66-4.884-0.33-6.104-1.154-6.253
	c-0.809-0.149-2.161,0.66-3.217,5.477c-0.412,2.078-0.446,1.056-0.495,0.709v-0.017c-0.61-4.603-1.881-5.461-2.689-5.378
	c-0.908,0.049-2.145,1.353-1.633,7.209C127.358,446.619,128.431,456.93,130.543,457.292"/>
<path fill="#FFFFFF" d="M130.666,457.503c-0.056,0-0.105,0-0.153-0.016l0,0c-1.676-0.29-2.876-5.446-3.875-16.723
	c-0.322-3.577-0.032-5.897,0.846-6.912c0.411-0.467,0.806-0.516,1.096-0.532c0.806,0,2.119,0.789,2.747,5.446
	c0.04-0.145,0.081-0.338,0.129-0.58c1.136-5.22,2.634-5.8,3.44-5.639c0.806,0.145,2.038,1.16,1.321,6.477
	c-0.032,0.226-0.056,0.403-0.081,0.564c2.312-4.366,3.867-4.431,4.567-4.108c0.822,0.387,1.804,1.901-0.846,7.604
	C135.201,453.025,132.35,457.503,130.666,457.503z M130.577,457.101c0.032,0,0.064,0,0.105,0c1.442,0,4.406-4.769,8.821-14.178
	c2.666-5.752,1.466-6.879,1.031-7.089c-0.33-0.129-1.764-0.403-4.108,4.06l-0.032,0.064c-0.145,0.306-0.258,0.548-0.443,0.548
	c-0.024,0-0.048,0-0.072-0.016c-0.201-0.048-0.258-0.209-0.048-1.531c0.717-5.301-0.588-5.945-0.999-6.026
	c-0.04,0-0.081-0.016-0.129-0.016c-0.524,0-1.812,0.548-2.86,5.349c-0.25,1.273-0.354,1.418-0.556,1.418c-0.008,0-0.008,0-0.016,0
	c-0.226,0-0.258-0.258-0.298-0.58l-0.016-0.145c-0.628-4.769-1.917-5.236-2.401-5.236c-0.322-0.016-0.54,0.129-0.773,0.387
	c-0.548,0.628-1.136,2.304-0.757,6.622C127.975,451.349,129.168,456.859,130.577,457.101L130.577,457.101z"/>
<path fill="#009FE8" d="M573.775,457.292c-2.112,0.363-6.649-8.942-9.14-14.287c-2.491-5.329-1.765-6.962-0.94-7.341
	c0.743-0.346,2.211,0.033,4.356,4.141c0.181,0.33,0.577,1.287,0.248-0.808c-0.677-4.884,0.33-6.104,1.138-6.253
	c0.808-0.149,2.177,0.66,3.233,5.477c0.396,2.078,0.446,1.056,0.495,0.709v-0.017c0.611-4.603,1.864-5.461,2.689-5.378
	c0.891,0.049,2.128,1.353,1.617,7.209C576.959,446.619,575.887,456.93,573.775,457.292"/>
<path fill="#FFFFFF" d="M573.663,457.503c-1.692,0-4.704-4.721-9.199-14.419c-2.674-5.703-1.692-7.218-0.854-7.604
	c0.709-0.354,2.256-0.226,4.576,4.141c-0.016-0.161-0.048-0.354-0.081-0.596c-0.741-5.301,0.499-6.332,1.305-6.477
	c0.064-0.016,0.145-0.016,0.209-0.016c0.838,0,2.191,0.854,3.238,5.639c0.048,0.258,0.097,0.451,0.129,0.612
	c0.644-4.672,1.949-5.462,2.771-5.462c0.274-0.032,0.661,0.081,1.047,0.516c0.87,0.999,1.176,3.399,0.854,6.928
	c-0.934,10.956-2.191,16.433-3.851,16.723l0,0C573.76,457.503,573.712,457.503,573.663,457.503z M564.142,435.753
	c-0.161,0-0.274,0.048-0.371,0.081c-0.435,0.209-1.643,1.321,1.047,7.089c5.671,12.212,7.959,14.178,8.829,14.178
	c0.032,0,0.064,0,0.097,0l0,0c0.983-0.177,2.401-3.158,3.528-16.369c0.371-4.318-0.209-5.993-0.757-6.638
	c-0.209-0.226-0.435-0.354-0.677-0.371c-0.016,0-0.032,0-0.064,0c-0.483,0-1.788,0.467-2.417,5.22l-0.016,0.129
	c-0.032,0.338-0.064,0.612-0.306,0.612c0,0,0,0-0.016,0c-0.193,0-0.306-0.145-0.548-1.434c-1.047-4.785-2.336-5.333-2.868-5.333
	c-0.048,0-0.097,0.016-0.129,0.016c-0.419,0.081-1.708,0.725-0.983,6.026c0.209,1.321,0.145,1.466-0.048,1.531
	c-0.032,0.016-0.064,0.016-0.081,0.016c-0.177,0-0.274-0.209-0.419-0.499l-0.064-0.113
	C566.043,436.398,564.802,435.753,564.142,435.753z"/>
<path fill="#009FE8" d="M148.01,434.155l10.657,1.353c5.774,0.726,9.42,3.91,8.645,10.063c-0.808,6.319-4.586,8.662-10.657,7.886
	l-3.943-0.495l-1.138,8.892l-6.962-0.891L148.01,434.155z M153.421,447.336l1.171,0.165c2.524,0.314,5.016,0.627,5.428-2.64
	c0.429-3.382-1.881-3.712-4.587-4.058l-1.155-0.149L153.421,447.336z"/>
<path fill="#FFFFFF" d="M151.739,462.079l-0.193-0.032l-7.153-0.902l0.024-0.209l3.424-27.002l0.193,0.032l10.657,1.353
	c3.053,0.387,5.373,1.402,6.896,3.045c1.651,1.788,2.296,4.205,1.917,7.234c-0.395,3.142-1.555,5.413-3.432,6.734
	c-1.796,1.289-4.294,1.708-7.443,1.321l-3.746-0.467L151.739,462.079z M144.828,460.79l6.573,0.838l1.144-8.893l0.193,0.032
	l3.939,0.499c3.077,0.387,5.454-0.032,7.169-1.257c1.78-1.257,2.884-3.432,3.271-6.477c0.363-2.884-0.25-5.204-1.821-6.896
	c-1.458-1.579-3.697-2.562-6.654-2.932l-10.464-1.321L144.828,460.79z M156.774,447.885c-0.709,0-1.466-0.097-2.207-0.193
	l-1.361-0.177l0.024-0.209l0.878-6.879l0.193,0.032l1.16,0.145c2.682,0.354,5.212,0.677,4.753,4.286
	c-0.137,1.096-0.508,1.885-1.144,2.368C158.449,447.74,157.644,447.885,156.774,447.885z M153.64,447.16l0.975,0.145
	c1.611,0.209,3.23,0.403,4.213-0.354c0.548-0.435,0.87-1.128,0.999-2.127c0.403-3.206-1.724-3.48-4.414-3.834l-0.967-0.113
	L153.64,447.16z"/>
<path fill="#009FE8" d="M189.287,457.976l-13.66-1.435c-0.28,2.64,0.957,4.224,3.63,4.487c1.403,0.149,2.458-0.214,3.3-1.353
	l6.236,0.66c-1.485,4.207-5.79,5.741-9.965,5.296c-6.071-0.627-10.245-4.52-9.568-10.839c0.627-6.105,5.18-9.338,11.152-8.711
	c6.335,0.66,9.602,4.966,8.958,11.218L189.287,457.976z M183.662,453.587c-0.149-1.765-1.634-3.085-3.382-3.267
	c-1.88-0.198-3.564,0.643-4.157,2.475L183.662,453.587z"/>
<path fill="#FFFFFF" d="M180.224,465.897c-0.475,0-0.951-0.032-1.418-0.081c-3.335-0.338-6.122-1.676-7.83-3.786
	c-1.555-1.917-2.215-4.431-1.909-7.25c0.298-2.9,1.482-5.284,3.432-6.863c2.054-1.643,4.769-2.417,7.935-2.03
	c6.388,0.661,9.804,4.93,9.127,11.423l-0.097,0.87l-0.201-0.016l-13.461-1.402c-0.089,1.176,0.145,2.127,0.701,2.803
	c0.58,0.709,1.514,1.144,2.779,1.273c1.361,0.113,2.344-0.242,3.117-1.273l0.072-0.097l0.113,0.016l6.485,0.677l-0.089,0.242
	C187.538,464.479,183.736,465.897,180.224,465.897z M178.951,446.193c-2.425,0-4.551,0.693-6.203,2.03
	c-1.861,1.514-3.005,3.802-3.295,6.589c-0.29,2.723,0.338,5.139,1.829,6.96c1.643,2.03,4.334,3.335,7.564,3.657
	c3.649,0.403,8.039-0.693,9.675-4.914l-5.872-0.628c-0.846,1.079-1.933,1.466-3.416,1.337c-1.361-0.129-2.393-0.612-3.037-1.418
	c-0.652-0.789-0.91-1.901-0.765-3.287l0.016-0.209l0.201,0.032l13.461,1.418l0.064-0.483c0.636-6.251-2.642-10.359-8.789-11.004
	C179.901,446.226,179.418,446.193,178.951,446.193z M183.881,453.814l-0.242-0.032l-7.782-0.806l0.081-0.242
	c0.54-1.659,1.974-2.642,3.81-2.642c0.177,0,0.363,0.016,0.556,0.032c1.901,0.193,3.399,1.643,3.552,3.448L183.881,453.814z
	 M176.397,452.622l7.041,0.741c-0.25-1.498-1.547-2.691-3.174-2.852c-0.177-0.016-0.346-0.016-0.516-0.016
	C178.177,450.495,176.937,451.268,176.397,452.622z"/>
<path fill="#009FE8" d="M200.932,451.687l0.066,0.017c1.452-2.145,3.695-2.969,6.219-2.738l1.254,0.115l-0.561,6.253
	c-0.841-0.577-1.699-0.759-2.689-0.858c-3.613-0.313-4.718,1.996-4.999,5.147l-0.643,7.408l-6.517-0.577l1.617-18.345l6.517,0.577
	L200.932,451.687z"/>
<path fill="#FFFFFF" d="M199.758,467.234l-6.912-0.612l0.024-0.193l1.627-18.528l6.912,0.612l-0.024,0.193l-0.201,2.417
	c1.265-1.579,3.045-2.401,5.228-2.401c0.266,0,0.54,0.016,0.822,0.048l1.458,0.129l-0.024,0.193l-0.588,6.589l-0.282-0.193
	c-0.789-0.548-1.611-0.725-2.594-0.822c-0.209-0.016-0.411-0.016-0.612-0.016c-2.578,0-3.875,1.563-4.173,4.994L199.758,467.234z
	 M193.282,466.268l6.122,0.548l0.628-7.202c0.201-2.336,0.902-5.365,4.576-5.365c0.201,0,0.411,0.016,0.628,0.032
	c0.934,0.081,1.732,0.242,2.505,0.709l0.516-5.736l-1.055-0.097c-0.266-0.016-0.532-0.032-0.789-0.032
	c-2.247,0-4.052,0.918-5.252,2.691l-0.073,0.113l-0.298-0.081l-0.048-0.177l0.234-2.803l-6.122-0.548L193.282,466.268z"/>
<path fill="#009FE8" d="M218.107,468.523l-6.517-0.495l0.99-12.983l-2.293-0.165l0.413-5.361l2.277,0.165l0.181-2.326
	c0.198-2.54,0.412-4.405,2.343-6.302c1.749-1.765,4.158-2.623,6.632-2.442c1.006,0.066,1.864,0.314,2.738,0.841l-0.429,5.626
	c-0.725-0.379-1.386-0.726-2.243-0.792c-1.683-0.132-2.326,0.841-2.475,2.92l-0.231,2.969l4.537,0.33l-0.396,5.361l-4.537-0.33
	L218.107,468.523z"/>
<path fill="#FFFFFF" d="M218.294,468.733l-6.912-0.532l0.008-0.193l0.983-12.792l-2.296-0.161l0.008-0.193l0.427-5.558l2.28,0.177
	l0.161-2.143c0.217-2.739,0.491-4.527,2.409-6.428c1.603-1.627,3.81-2.529,6.146-2.529c0.209,0,0.427,0.016,0.644,0.032
	c1.096,0.081,1.966,0.354,2.819,0.886l0.105,0.048l-0.008,0.129l-0.451,5.929l-0.274-0.145c-0.765-0.419-1.377-0.709-2.159-0.773
	c-0.644,0-1.12,0.081-1.458,0.371c-0.459,0.403-0.717,1.144-0.797,2.368l-0.226,2.771l4.535,0.338l-0.008,0.193l-0.411,5.558
	l-4.535-0.338L218.294,468.733z M211.801,467.847l6.122,0.467l0.991-12.986l4.535,0.338l0.371-4.978l-4.535-0.338l0.25-3.158
	c0.089-1.321,0.387-2.159,0.934-2.642c0.362-0.306,0.838-0.467,1.442-0.467c0.105,0,0.201,0,0.306,0.016
	c0.806,0.064,1.442,0.354,2.046,0.661l0.395-5.188c-0.765-0.451-1.555-0.693-2.537-0.773c-2.417-0.145-4.817,0.693-6.477,2.401
	c-1.821,1.788-2.086,3.528-2.288,6.171l-0.193,2.529l-2.28-0.177l-0.387,4.978l2.296,0.161l-0.008,0.193L211.801,467.847z"/>
<path fill="#009FE8" d="M247.867,461.278c-0.396,6.236-5.774,9.453-11.664,9.074c-5.89-0.346-10.839-4.174-10.46-10.443
	c0.38-6.269,5.774-9.503,11.664-9.123C243.314,451.149,248.247,455.009,247.867,461.278 M232.607,460.338
	c-0.149,2.327,1.286,4.207,3.943,4.372c2.64,0.165,4.29-1.534,4.438-3.861c0.149-2.243-1.27-4.256-3.927-4.405
	C234.405,456.28,232.755,458.078,232.607,460.338"/>
<path fill="#FFFFFF" d="M237.079,470.586c-0.298,0-0.596-0.016-0.894-0.032c-3.029-0.177-5.768-1.273-7.693-3.061
	c-2.111-1.949-3.126-4.576-2.948-7.604c0.169-2.674,1.249-4.962,3.134-6.622c1.974-1.74,4.777-2.707,7.806-2.707
	c0.306,0,0.62,0,0.942,0.032c5.413,0.338,11.052,3.834,10.641,10.698l0,0C247.656,467.766,242.243,470.586,237.079,470.586z
	 M236.483,450.946c-2.932,0-5.639,0.934-7.548,2.61c-1.804,1.595-2.836,3.786-2.989,6.364c-0.177,2.9,0.798,5.413,2.811,7.282
	c1.869,1.74,4.511,2.787,7.451,2.964c0.29,0.016,0.58,0.016,0.87,0.016c4.978,0,10.198-2.691,10.585-8.926l0,0
	c0.403-6.589-5.043-9.941-10.271-10.279C237.087,450.962,236.781,450.946,236.483,450.946z M236.918,464.914
	c-0.129,0-0.25,0-0.387-0.016c-1.305-0.081-2.384-0.564-3.126-1.402c-0.725-0.822-1.079-1.949-0.999-3.174l0,0
	c0.161-2.449,1.925-4.092,4.342-4.092c0.105,0,0.217,0,0.322,0.016c1.273,0.064,2.336,0.548,3.077,1.386
	c0.749,0.854,1.12,1.998,1.039,3.238s-0.58,2.32-1.402,3.045C239.029,464.576,238.046,464.914,236.918,464.914z M236.749,456.633
	c-2.199,0-3.802,1.482-3.939,3.722l0,0c-0.081,1.112,0.242,2.143,0.894,2.884c0.669,0.757,1.659,1.192,2.852,1.273
	c0.129,0,0.242,0,0.363,0c1.031,0,1.925-0.306,2.602-0.902c0.749-0.644,1.2-1.643,1.265-2.771c0.081-1.128-0.25-2.175-0.926-2.932
	c-0.677-0.773-1.643-1.208-2.803-1.273C236.951,456.633,236.854,456.633,236.749,456.633z"/>
<path fill="#009FE8" d="M259.238,455.602h0.066c1.369-2.194,3.563-3.085,6.104-2.969l1.254,0.066l-0.297,6.269
	c-0.874-0.544-1.732-0.709-2.722-0.759c-3.63-0.165-4.653,2.194-4.784,5.345l-0.363,7.424l-6.5-0.33l0.858-18.362l6.533,0.314
	L259.238,455.602z"/>
<path fill="#FFFFFF" d="M258.684,471.182l-0.193-0.016l-6.702-0.322l0.008-0.209l0.87-18.56l0.193,0.016l6.734,0.322l-0.129,2.594
	c1.265-1.692,3.142-2.578,5.47-2.578c0.161,0,0.322,0,0.483,0.016l1.45,0.064l-0.008,0.209l-0.314,6.606l-0.29-0.193
	c-0.91-0.564-1.796-0.677-2.618-0.725c-0.121,0-0.234,0-0.346,0c-1.208,0-2.127,0.306-2.803,0.918
	c-0.886,0.822-1.345,2.175-1.426,4.253L258.684,471.182z M252.208,470.457l6.106,0.306l0.346-7.218
	c0.097-2.175,0.588-3.609,1.563-4.511c0.741-0.677,1.78-1.031,3.085-1.031c0.113,0,0.234,0,0.346,0.016
	c0.798,0.032,1.643,0.145,2.521,0.612l0.274-5.736l-1.047-0.064c-0.153,0-0.306,0-0.459,0c-2.401,0-4.286,0.983-5.47,2.884
	l-0.056,0.081h-0.322l-0.056-0.209l0.137-2.787l-6.138-0.306L252.208,470.457z"/>
<path fill="#009FE8" d="M276.895,455.666h0.082c1.617-1.996,3.531-2.804,5.89-2.722c2.656,0.099,4.916,1.237,6.153,3.728
	c1.336-2.26,3.861-3.415,6.352-3.332c4.669,0.165,6.17,3.267,6.038,7.49l-0.38,11.713l-6.516-0.198l0.28-8.777
	c0.066-1.914,0.247-5.015-2.508-5.114c-3.019-0.099-3.233,2.739-3.3,4.916l-0.28,8.777l-6.533-0.214l0.297-8.777
	c0.066-2.046,0.182-5.147-2.738-5.246c-2.904-0.099-3.003,3.003-3.069,5.048l-0.28,8.793l-6.533-0.214l0.594-18.378l6.533,0.198
	L276.895,455.666z"/>
<path fill="#FFFFFF" d="M301.226,472.761l-0.201-0.016l-6.71-0.209v-0.193l0.29-8.926c0.064-1.869,0.161-4.672-2.328-4.769
	c-0.822,0.016-1.49,0.177-1.974,0.644c-0.943,0.886-1.071,2.562-1.112,4.076l-0.29,8.99l-0.201-0.016l-6.726-0.209v-0.193
	l0.298-8.781c0.073-2.111,0.161-4.962-2.546-5.059c-0.04,0-0.081,0-0.129,0c-0.677,0-1.208,0.193-1.627,0.58
	c-0.999,0.934-1.063,2.884-1.104,4.286l-0.29,8.99l-0.201-0.016l-6.726-0.209v-0.193l0.604-18.592l0.201,0.016l6.726,0.209v0.193
	l-0.064,1.837c1.482-1.676,3.222-2.465,5.429-2.465c0.113,0,0.217,0,0.33,0.016c2.811,0.097,4.93,1.321,6.162,3.512
	c1.297-1.949,3.561-3.126,6.034-3.126c0.105,0,0.201,0,0.306,0.016c4.286,0.145,6.38,2.723,6.235,7.669L301.226,472.761z
	 M294.717,472.148l6.122,0.193l0.371-11.519c0.145-4.753-1.764-7.137-5.848-7.282c-0.097,0-0.193,0-0.29,0
	c-2.457,0-4.688,1.224-5.881,3.222l-0.185,0.322l-0.161-0.338c-1.128-2.256-3.198-3.496-5.985-3.609c-0.105,0-0.209,0-0.306,0
	c-2.231,0-3.955,0.854-5.421,2.658l-0.056,0.064h-0.298l-0.081-0.193l0.081-2.111l-6.138-0.193l-0.588,17.98l6.138,0.193
	l0.274-8.571c0.048-1.498,0.113-3.528,1.241-4.576c0.508-0.483,1.176-0.741,2.038-0.677c3.101,0.097,2.989,3.432,2.932,5.413
	l-0.298,8.619l6.138,0.193l0.274-8.571c0.048-1.595,0.193-3.383,1.249-4.366c0.524-0.499,1.224-0.741,2.102-0.741
	c0.048,0,0.097,0,0.153,0c2.884,0.097,2.771,3.271,2.707,5.172v0.129L294.717,472.148z"/>
<path fill="#009FE8" d="M327.149,472.932l-6.516-0.099l0.033-2.046h-0.083c-1.171,1.815-3.448,2.606-5.576,2.573
	c-5.477-0.082-9.223-4.685-9.14-9.964c0.083-5.263,3.91-9.734,9.354-9.652c2.112,0.033,4.322,0.875,5.659,2.508l0.033-1.798
	l6.516,0.099L327.149,472.932z M312.598,463.545c-0.033,2.327,1.485,4.141,4.124,4.174c2.656,0.049,4.223-1.732,4.272-4.042
	c0.033-2.261-1.485-4.19-4.141-4.224C314.198,459.405,312.631,461.285,312.598,463.545"/>
<path fill="#FFFFFF" d="M315.121,473.55c-0.04,0-0.073,0-0.113,0c-2.658-0.032-5.067-1.128-6.807-3.093
	c-1.676-1.901-2.578-4.398-2.537-7.057c0.089-5.558,4.213-9.844,9.417-9.844c0.048,0,0.097,0,0.137,0
	c2.151,0.032,4.157,0.838,5.478,2.191l0.024-1.482h0.193l6.718,0.097v0.193l-0.29,18.576h-0.193l-6.718-0.097l0.024-1.724
	C319.133,472.954,316.902,473.55,315.121,473.55z M315.081,453.943c-4.986,0-8.934,4.124-9.014,9.457
	c-0.04,2.562,0.822,4.978,2.433,6.799c1.659,1.869,3.971,2.916,6.509,2.964c0.04,0,0.081,0,0.121,0c1.804,0,4.108-0.644,5.284-2.481
	l0.064-0.081h0.306l0.081,0.193l-0.032,1.853l6.122,0.097l0.274-17.996l-6.122-0.097l-0.04,2.143l-0.338-0.419
	c-1.216-1.482-3.279-2.401-5.51-2.433C315.17,453.943,315.121,453.943,315.081,453.943z M316.829,467.911c-0.04,0-0.073,0-0.105,0
	c-1.297-0.016-2.384-0.435-3.166-1.241c-0.765-0.789-1.176-1.901-1.16-3.126c0.024-1.241,0.475-2.352,1.281-3.126
	c0.789-0.773,1.845-1.16,3.077-1.16c0.032,0,0.064,0,0.097,0c1.273,0.016,2.36,0.451,3.15,1.257
	c0.781,0.806,1.208,1.933,1.192,3.158C321.139,466.219,319.391,467.911,316.829,467.911z M312.801,463.545
	c-0.016,1.128,0.354,2.143,1.047,2.852c0.701,0.725,1.692,1.112,2.876,1.128c0.032,0,0.064,0,0.097,0
	c2.336,0,3.923-1.547,3.971-3.851c0.016-1.128-0.363-2.159-1.079-2.884c-0.709-0.725-1.7-1.128-2.86-1.144c-0.032,0-0.064,0-0.097,0
	c-1.12,0-2.086,0.371-2.795,1.047C313.228,461.402,312.817,462.417,312.801,463.545L312.801,463.545z"/>
<path fill="#009FE8" d="M339.842,456.97h0.082c1.518-2.227,3.349-2.969,5.89-2.953c4.949,0.017,6.912,3.167,6.879,7.671
	l-0.05,11.383l-6.516-0.033l0.033-8.975c0.016-1.765,0.313-4.834-2.92-4.85c-2.64-0.017-3.415,1.947-3.432,4.256l-0.033,9.536
	l-6.533-0.033l0.083-18.411l6.533,0.033L339.842,456.97z"/>
<path fill="#FFFFFF" d="M352.837,473.26l-6.912-0.032l0.04-9.554c0.024-1.144,0.056-2.723-0.789-3.577
	c-0.443-0.467-1.079-0.677-1.933-0.693c-0.008,0-0.024,0-0.032,0c-2.135,0-3.182,1.337-3.198,4.06l-0.04,9.731l-6.928-0.032v-0.193
	l0.089-18.608l6.928,0.032l-0.016,2.078c1.394-1.853,3.126-2.642,5.687-2.642c0.032,0,0.056,0,0.081,0
	c2.199,0,3.915,0.612,5.107,1.821c1.329,1.337,1.99,3.367,1.974,6.042L352.837,473.26z M346.328,472.841l6.122,0.032l0.04-11.181
	c0.024-2.562-0.604-4.495-1.853-5.752c-1.112-1.144-2.739-1.708-4.825-1.724c-0.024,0-0.048,0-0.073,0
	c-2.594,0-4.286,0.87-5.655,2.868l-0.056,0.081h-0.306l-0.081-0.193l0.016-2.191l-6.138-0.032l-0.073,18.028l6.13,0.032l0.032-9.344
	c0.024-2.916,1.265-4.447,3.601-4.447c0.008,0,0.024,0,0.032,0c0.959,0,1.7,0.274,2.215,0.789c0.959,0.983,0.926,2.658,0.902,3.883
	L346.328,472.841z"/>
<path fill="#009FE8" d="M372.048,460.5c-0.99-0.709-2.129-1.27-3.382-1.254c-2.508,0.017-4.487,1.964-4.454,4.504
	c0.016,2.656,1.946,4.52,4.636,4.504c1.138-0.016,2.392-0.495,3.25-1.286l0.033,5.527c-1.419,0.726-3.002,1.056-4.569,1.072
	c-5.461,0.033-10.047-3.976-10.097-9.536c-0.05-5.923,4.454-10.064,10.228-10.08c1.501-0.017,3.019,0.33,4.306,1.039L372.048,460.5z
	"/>
<path fill="#FFFFFF" d="M367.498,473.759c-5.695,0-10.19-4.253-10.239-9.731c-0.016-2.803,0.991-5.365,2.844-7.25
	c1.925-1.949,4.624-3.029,7.588-3.029c0.032,0,0.064,0,0.097,0c1.522,0,3.053,0.371,4.31,1.063l0.097,0.064v0.113l0.048,5.897
	l-0.306-0.226c-1.176-0.838-2.199-1.224-3.214-1.224c-0.016,0-0.04,0-0.056,0c-1.176,0.016-2.264,0.467-3.061,1.273
	c-0.789,0.806-1.208,1.885-1.192,3.045c0.008,2.529,1.821,4.302,4.398,4.302c0.008,0,0.016,0,0.032,0
	c1.136-0.016,2.336-0.499,3.126-1.241l0.322-0.306l0.032,6.09l-0.097,0.064c-1.353,0.709-2.964,1.079-4.664,1.096
	C367.539,473.759,367.522,473.759,367.498,473.759z M367.788,454.136c-0.032,0-0.064,0-0.097,0c-2.86,0.016-5.454,1.047-7.306,2.932
	c-1.78,1.788-2.747,4.269-2.723,6.96c0.04,5.252,4.358,9.344,9.836,9.344c0.016,0,0.04,0,0.064,0
	c1.595-0.016,3.101-0.371,4.374-0.999l-0.032-4.994c-0.838,0.661-1.974,1.047-3.061,1.063c-0.008,0-0.024,0-0.032,0
	c-2.763,0-4.785-1.966-4.801-4.688c-0.016-1.257,0.451-2.449,1.313-3.319c0.87-0.886,2.054-1.386,3.343-1.386
	c0.016,0,0.04,0,0.056,0c1.007,0,2.006,0.338,3.134,1.079l-0.048-5.027C370.616,454.475,369.206,454.136,367.788,454.136z"/>
<path fill="#009FE8" d="M396.647,464.419l-13.726,0.248c0.05,2.64,1.469,4.058,4.158,4.009c1.402-0.016,2.409-0.511,3.101-1.732
	l6.253-0.116c-0.94,4.356-5.032,6.401-9.222,6.484c-6.087,0.116-10.723-3.267-10.823-9.602c-0.115-6.121,4.009-9.899,9.998-10.014
	c6.384-0.115,10.129,3.778,10.245,10.047L396.647,464.419z M390.527,460.773c-0.347-1.749-1.996-2.87-3.762-2.838
	c-1.88,0.033-3.448,1.072-3.811,2.97L390.527,460.773z"/>
<path fill="#FFFFFF" d="M386.92,473.502c-3.238,0-6.058-0.999-7.959-2.836c-1.772-1.724-2.739-4.124-2.771-6.96
	c-0.113-6.074,3.883-10.086,10.198-10.198c0.097,0,0.177,0,0.274,0c6.267,0,10.053,3.802,10.166,10.231l0.032,0.87h-0.209
	l-13.517,0.258c0.048,1.176,0.403,2.078,1.031,2.691c0.644,0.612,1.563,0.918,2.739,0.918c0.064,0,0.113,0,0.177,0
	c1.386-0.016,2.288-0.516,2.916-1.627l0.064-0.097h0.113l6.493-0.129l-0.048,0.258c-1.031,4.769-5.526,6.557-9.409,6.622
	C387.113,473.502,387.017,473.502,386.92,473.502z M386.662,453.895c-0.097,0-0.177,0-0.274,0c-6.058,0.113-9.908,3.963-9.812,9.812
	c0.048,2.723,0.967,5.027,2.658,6.67c1.837,1.772,4.559,2.739,7.685,2.739c0.097,0,0.193,0,0.29,0
	c3.657-0.081,7.894-1.708,8.958-6.074l-5.881,0.097c-0.693,1.16-1.708,1.708-3.206,1.724c-0.064,0-0.113,0-0.177,0
	c-1.289,0-2.304-0.338-3.013-1.015c-0.741-0.725-1.144-1.788-1.16-3.174l-0.016-0.193h0.209l13.517-0.258v-0.483
	C396.329,457.568,392.672,453.895,386.662,453.895z M382.715,461.112l0.048-0.242c0.354-1.901,1.885-3.093,3.996-3.126
	c0.016,0,0.048,0,0.081,0c1.901,0,3.528,1.241,3.883,2.997l0.048,0.226h-0.242L382.715,461.112z M386.84,458.132
	c-0.032,0-0.048,0-0.081,0c-1.821,0.032-3.158,1.015-3.561,2.562l7.073-0.113C389.868,459.147,388.467,458.132,386.84,458.132z"/>
<path fill="#009FE8" d="M414.662,444.99l10.74-0.429c5.807-0.214,9.931,2.326,10.146,8.513c0.248,6.385-3.069,9.305-9.205,9.552
	l-3.976,0.148l0.347,8.958l-7.045,0.264L414.662,444.99z M422.153,457.116l1.171-0.049c2.557-0.099,5.065-0.198,4.933-3.498
	c-0.132-3.398-2.458-3.349-5.18-3.233l-1.188,0.033L422.153,457.116z"/>
<path fill="#FFFFFF" d="M415.469,472.213v-0.209l-1.015-27.212h0.209l10.746-0.419c0.226-0.016,0.451-0.016,0.677-0.016
	c3.013,0,5.462,0.789,7.105,2.32c1.595,1.498,2.465,3.641,2.546,6.396c0.129,3.029-0.564,5.397-2.062,7.024
	c-1.547,1.676-4.012,2.594-7.331,2.723l-3.77,0.145l0.354,8.958h-0.209L415.469,472.213z M414.873,445.178l0.983,26.615l6.654-0.258
	l-0.354-8.958h0.209l3.979-0.145c3.19-0.129,5.558-1.015,7.041-2.61c1.418-1.547,2.078-3.802,1.966-6.751
	c-0.097-2.642-0.902-4.688-2.433-6.106c-1.563-1.45-3.915-2.223-6.831-2.223c-0.209,0-0.435,0.016-0.677,0.016L414.873,445.178z
	 M421.962,457.326v-0.209l-0.29-6.944l1.402-0.032c1.659-0.048,3.399-0.145,4.414,0.806c0.612,0.564,0.918,1.418,0.967,2.626
	c0.048,1.112-0.193,1.933-0.741,2.529c-0.951,1.031-2.691,1.096-4.382,1.16L421.962,457.326z M422.091,450.56l0.258,6.348
	l0.967-0.032c1.676-0.064,3.254-0.129,4.108-1.047c0.467-0.499,0.677-1.241,0.644-2.256c-0.048-1.079-0.322-1.853-0.838-2.336
	c-0.677-0.612-1.724-0.741-2.852-0.741c-0.435,0-0.87,0.016-1.289,0.032L422.091,450.56z"/>
<path fill="#009FE8" d="M446.659,455.296h0.066c1.138-2.326,3.233-3.431,5.774-3.563l1.271-0.066l0.297,6.269
	c-0.907-0.462-1.765-0.528-2.788-0.462c-3.597,0.181-4.372,2.623-4.224,5.758l0.38,7.424l-6.534,0.33l-0.907-18.362l6.5-0.346
	L446.659,455.296z"/>
<path fill="#FFFFFF" d="M440.715,471.198v-0.193l-0.934-18.576h0.193l6.718-0.354v0.193l0.129,2.433
	c1.16-1.949,3.109-3.029,5.655-3.158l1.482-0.081v0.193l0.322,6.622l-0.306-0.161c-0.886-0.451-1.756-0.548-2.674-0.451
	c-2.981,0.145-4.221,1.869-4.06,5.558l0.403,7.621h-0.193L440.715,471.198z M440.199,452.815l0.902,17.964l6.122-0.322l-0.371-7.202
	c-0.113-2.465,0.209-5.768,4.414-5.977c0.999-0.081,1.74-0.016,2.594,0.338l-0.29-5.736l-1.063,0.048
	c-2.626,0.145-4.559,1.337-5.607,3.448l-0.048,0.113h-0.322l-0.064-0.177l-0.161-2.819L440.199,452.815z"/>
<path fill="#009FE8" d="M479.043,459.558c0.396,6.236-4.537,10.113-10.426,10.476c-5.857,0.396-11.285-2.788-11.681-9.057
	c-0.396-6.253,4.52-10.129,10.426-10.492C473.269,450.105,478.631,453.322,479.043,459.558 M463.8,460.548
	c0.165,2.327,1.798,4.009,4.454,3.844c2.656-0.165,4.075-2.062,3.927-4.372c-0.148-2.26-1.815-4.058-4.455-3.893
	C465.07,456.291,463.651,458.288,463.8,460.548"/>
<path fill="#FFFFFF" d="M467.669,470.263c-3.029,0-5.848-0.967-7.814-2.707c-1.869-1.643-2.948-3.915-3.109-6.557
	c-0.177-2.674,0.612-5.091,2.256-6.96c1.917-2.175,4.962-3.544,8.346-3.754c0.338-0.032,0.661-0.032,0.967-0.032
	c6.122,0,10.553,3.722,10.923,9.296l0,0c0.177,2.658-0.612,5.043-2.256,6.912c-1.917,2.191-4.962,3.561-8.346,3.77
	C468.313,470.263,467.991,470.263,467.669,470.263z M468.233,450.656c-0.29,0-0.58,0-0.854,0.016
	c-3.287,0.209-6.235,1.531-8.072,3.625c-1.579,1.804-2.336,4.108-2.175,6.67c0.161,2.546,1.192,4.721,2.981,6.299
	c1.901,1.676,4.624,2.61,7.556,2.61c0.322,0,0.628-0.016,0.934-0.032c3.287-0.209,6.235-1.531,8.088-3.641
	c1.579-1.788,2.32-4.076,2.159-6.622l0,0C478.431,453.363,473.211,450.656,468.233,450.656z M467.91,464.608
	c-2.417,0-4.141-1.595-4.302-4.044l0,0c-0.081-1.241,0.29-2.368,1.031-3.222c0.741-0.838,1.804-1.321,3.077-1.402
	c0.129-0.016,0.258-0.016,0.371-0.016c1.112,0,2.078,0.354,2.852,1.015c0.854,0.741,1.353,1.837,1.434,3.061
	c0.161,2.578-1.482,4.414-4.108,4.592C468.152,464.608,468.023,464.608,467.91,464.608z M463.995,460.532
	c0.161,2.272,1.676,3.673,3.915,3.673c0.097,0,0.209,0,0.322,0c2.433-0.161,3.899-1.804,3.754-4.173
	c-0.081-1.128-0.548-2.127-1.305-2.787c-0.693-0.612-1.579-0.918-2.594-0.918c-0.113,0-0.226,0-0.338,0
	c-1.176,0.081-2.143,0.516-2.819,1.273C464.253,458.373,463.931,459.405,463.995,460.532L463.995,460.532z"/>
<path fill="#009FE8" d="M514.907,457.609l-13.66,1.254c0.214,2.64,1.749,3.943,4.421,3.695c1.402-0.132,2.359-0.693,2.969-1.964
	l6.236-0.561c-0.643,4.405-4.586,6.748-8.744,7.111c-6.087,0.561-10.921-2.458-11.482-8.776c-0.561-6.104,3.283-10.163,9.255-10.691
	c6.351-0.577,10.394,3.019,10.954,9.255L514.907,457.609z M508.539,454.409c-0.479-1.715-2.195-2.705-3.927-2.54
	c-1.914,0.148-3.382,1.303-3.597,3.234L508.539,454.409z"/>
<path fill="#FFFFFF" d="M504.724,467.396c-2.771,0-5.22-0.789-7.008-2.272c-1.885-1.579-3.013-3.899-3.254-6.734
	c-0.274-2.9,0.435-5.462,2.046-7.395c1.692-2.014,4.237-3.238,7.379-3.512c0.451-0.048,0.886-0.064,1.305-0.064
	c2.578,0,4.817,0.741,6.493,2.191c1.917,1.643,3.093,4.173,3.367,7.314l0.064,0.87l-0.193,0.016l-13.469,1.224
	c0.145,1.176,0.548,2.046,1.224,2.61c0.709,0.612,1.74,0.822,2.981,0.725c1.386-0.129,2.239-0.709,2.803-1.853l0.048-0.113h0.113
	l6.477-0.596l-0.032,0.258c-0.709,4.866-5.252,6.96-8.926,7.266C505.659,467.379,505.191,467.396,504.724,467.396z M505.191,447.821
	c-0.419,0-0.838,0.016-1.273,0.048c-3.029,0.274-5.494,1.45-7.105,3.383c-1.547,1.853-2.223,4.302-1.966,7.105
	c0.242,2.723,1.321,4.946,3.126,6.461c1.708,1.434,4.076,2.191,6.751,2.191c0.451,0,0.918-0.032,1.386-0.064
	c3.464-0.306,7.733-2.223,8.523-6.686l-5.864,0.532c-0.628,1.224-1.579,1.837-3.077,1.966c-0.209,0.016-0.419,0.032-0.628,0.032
	c-1.096,0-1.982-0.274-2.642-0.838c-0.789-0.677-1.257-1.708-1.369-3.077l-0.016-0.193l0.193-0.016l13.469-1.224l-0.032-0.483
	c-0.274-3.029-1.402-5.462-3.238-7.057C509.815,448.53,507.689,447.821,505.191,447.821z M500.793,455.328l0.032-0.242
	c0.209-1.949,1.659-3.254,3.77-3.416c0.129-0.016,0.258-0.016,0.387-0.016c1.756,0,3.303,1.079,3.754,2.707l0.064,0.226
	l-0.242,0.016L500.793,455.328z M504.982,452.042c-0.113,0-0.226,0.016-0.354,0.016c-1.821,0.145-3.093,1.208-3.383,2.819
	l7.041-0.644C507.801,452.912,506.48,452.042,504.982,452.042z"/>
<path fill="#009FE8" d="M532.207,451.46c-1.04-0.61-2.244-1.056-3.498-0.924c-2.491,0.264-4.256,2.409-3.976,4.933
	c0.264,2.64,2.359,4.29,5.048,4.009c1.138-0.116,2.326-0.726,3.101-1.584l0.594,5.494c-1.353,0.841-2.904,1.353-4.455,1.501
	c-5.427,0.594-10.394-2.953-10.971-8.48c-0.627-5.906,3.431-10.443,9.173-11.054c1.501-0.165,3.035,0.05,4.388,0.611L532.207,451.46
	z"/>
<path fill="#FFFFFF" d="M527.811,465.14c-2.384,0-4.64-0.773-6.461-2.239c-1.982-1.595-3.222-3.899-3.496-6.477
	c-0.306-2.868,0.483-5.591,2.239-7.653c1.724-2.03,4.253-3.303,7.121-3.609c1.531-0.129,3.093,0.048,4.479,0.628l0.097,0.032
	l0.016,0.129l0.644,5.881l-0.338-0.193c-1.257-0.741-2.352-1.015-3.383-0.902c-1.16,0.129-2.191,0.677-2.9,1.547
	c-0.709,0.886-1.031,1.998-0.902,3.174c0.129,1.208,0.628,2.223,1.482,2.916c0.886,0.709,2.03,1.047,3.351,0.918
	c1.112-0.129,2.256-0.709,2.981-1.531l0.29-0.338l0.661,6.058l-0.097,0.064c-1.353,0.854-2.916,1.386-4.559,1.531
	C528.633,465.124,528.214,465.14,527.811,465.14z M528.23,445.501c-0.322,0-0.661,0.016-0.983,0.048
	c-2.755,0.29-5.204,1.531-6.847,3.48c-1.692,1.982-2.449,4.592-2.159,7.363c0.258,2.465,1.45,4.672,3.351,6.203
	c1.756,1.418,3.931,2.159,6.219,2.159c0.403,0,0.789-0.032,1.192-0.064c1.531-0.145,2.997-0.628,4.269-1.402l-0.532-4.962
	c-0.789,0.725-1.885,1.241-2.948,1.353c-0.193,0.016-0.387,0.032-0.58,0.032c-1.16,0-2.223-0.354-3.045-1.031
	c-0.934-0.757-1.498-1.869-1.627-3.19c-0.145-1.273,0.209-2.497,0.983-3.448c0.773-0.967,1.901-1.563,3.174-1.692
	c0.161-0.016,0.322-0.032,0.499-0.032c0.87,0,1.788,0.258,2.771,0.789l-0.532-4.994C530.421,445.71,529.342,445.501,528.23,445.501z
	"/>
<polygon fill="#009FE8" points="546.338,462.304 539.854,463.08 538.303,450.162 536.208,450.393 535.564,445.064 537.676,444.801 
	537.016,439.323 543.483,438.564 544.143,444.041 547.822,443.596 548.449,448.925 544.786,449.387 "/>
<path fill="#FFFFFF" d="M539.669,463.303l-0.016-0.209l-1.531-12.712l-2.094,0.242l-0.016-0.209l-0.677-5.526l0.209-0.016
	l1.901-0.242l-0.661-5.478l0.209-0.016l6.67-0.806l0.016,0.209l0.644,5.268l3.673-0.435l0.016,0.209l0.661,5.526l-0.193,0.016
	l-3.464,0.435l1.547,12.921l-0.209,0.016L539.669,463.303z M538.477,449.931l0.016,0.209l1.531,12.712l6.09-0.725l-1.547-12.921
	l0.193-0.016l3.464-0.435l-0.58-4.93l-3.673,0.435l-0.016-0.209l-0.644-5.268l-6.074,0.725l0.661,5.478l-0.209,0.016l-1.901,0.242
	l0.596,4.93L538.477,449.931z"/>
<path fill="#009FE8" d="M561.433,456.842c0.313,2.277-1.303,4.405-3.613,4.702c-2.309,0.314-4.405-1.32-4.702-3.613
	c-0.297-2.293,1.287-4.388,3.597-4.702C559.024,452.932,561.103,454.533,561.433,456.842"/>
<path fill="#FFFFFF" d="M557.262,461.789c-0.967,0-1.901-0.322-2.674-0.918c-0.918-0.709-1.514-1.74-1.659-2.9
	c-0.161-1.176,0.145-2.32,0.854-3.254c0.709-0.934,1.74-1.531,2.9-1.676c0.209-0.032,0.403-0.048,0.596-0.048
	c2.175,0,4.028,1.579,4.35,3.818l0,0c0.161,1.16-0.145,2.304-0.854,3.238c-0.725,0.934-1.756,1.547-2.916,1.692
	C557.649,461.773,557.456,461.789,557.262,461.789z M557.278,453.395c-0.177,0-0.354,0.016-0.532,0.032
	c-1.063,0.145-2.014,0.693-2.642,1.531c-0.644,0.838-0.934,1.885-0.789,2.948c0.129,1.063,0.677,1.998,1.514,2.658
	c0.854,0.628,1.901,0.886,2.964,0.789c1.063-0.145,2.014-0.693,2.658-1.547c0.644-0.838,0.934-1.885,0.789-2.932
	C560.935,454.829,559.26,453.395,557.278,453.395z"/>
<path fill="#009FE8" d="M486.215,448.696c2.095-0.165,3.662-1.996,3.514-4.091c-0.165-2.079-2.012-3.663-4.091-3.498
	c-2.079,0.165-3.663,1.996-3.498,4.091C482.289,447.277,484.136,448.844,486.215,448.696 M484.664,472.551
	c0.165,2.079-1.254,2.739-2.953,2.904l-5.642,0.429l0.528,6.632l12.159-0.957c1.798-0.132,3.398-0.182,3.217-2.376l-0.066-0.891
	l-2.029-26.33l-6.78,0.528L484.664,472.551z"/>
<path fill="#FFFFFF" d="M476.417,482.733l-0.564-7.024l5.848-0.451c2.014-0.193,2.9-1.047,2.771-2.691l-1.579-20.252l7.153-0.564
	l0.016,0.193l2.111,27.228c0.064,0.757-0.081,1.321-0.419,1.724c-0.596,0.693-1.676,0.773-2.819,0.854h-0.161L476.417,482.733z
	 M476.272,476.063l0.499,6.251l12.132-0.967c1.063-0.081,2.062-0.145,2.546-0.709c0.274-0.322,0.387-0.789,0.338-1.434l-0.081-0.902
	l-2.014-26.132l-6.38,0.499l1.547,19.865c0.145,1.853-0.902,2.9-3.126,3.109L476.272,476.063z M485.922,448.9
	c-0.967,0-1.869-0.338-2.61-0.983c-0.822-0.693-1.305-1.659-1.369-2.707c-0.177-2.191,1.482-4.124,3.673-4.302
	c0.097-0.016,0.209-0.016,0.306-0.016c0.951,0,1.869,0.338,2.61,0.967c0.806,0.693,1.305,1.659,1.386,2.723
	c0.161,2.207-1.498,4.141-3.689,4.302l0,0C486.116,448.9,486.019,448.9,485.922,448.9z M485.922,441.296c-0.081,0-0.177,0-0.274,0
	c-1.982,0.177-3.464,1.917-3.319,3.883c0.064,0.951,0.516,1.821,1.241,2.449c0.661,0.564,1.482,0.87,2.352,0.87
	c0.081,0,0.177,0,0.274,0l0,0c1.982-0.161,3.464-1.901,3.335-3.883c-0.081-0.951-0.532-1.821-1.257-2.449
	C487.598,441.586,486.776,441.296,485.922,441.296z"/>
<path fill="#FFFFFF" d="M85.255,331.611c-0.165,0-0.33-0.016-0.479-0.049c-1.303-0.28-2.161-1.551-1.914-2.854
	c0.017-0.049,1.089-5.79-2.112-12.159c-2.013-3.993-7.144-7.374-10.938-9.09c-1.221-0.544-1.749-1.963-1.221-3.184
	c0.544-1.221,1.98-1.765,3.217-1.204c4.718,2.095,10.674,6.203,13.247,11.301c3.976,7.919,2.607,14.996,2.557,15.293
	C87.383,330.803,86.376,331.611,85.255,331.611"/>
<path fill="#FFFFFF" d="M173.737,326.536c-0.66,0-1.337-0.28-1.798-0.825c-1.584-1.765-4.57-2.375-8.018-3.085l-0.924-0.198
	c-4.537-0.957-18.247-2.574-18.379-2.59c-1.336-0.149-2.26-1.353-2.128-2.673c0.165-1.336,1.402-2.277,2.706-2.128
	c0.561,0.083,14.039,1.65,18.774,2.656l0.924,0.198c3.927,0.792,8.001,1.65,10.641,4.619c0.891,0.99,0.792,2.524-0.198,3.415
	C174.875,326.322,174.298,326.536,173.737,326.536"/>
<path fill="#FFFFFF" d="M263.605,360.304c-0.083,0-0.165,0-0.231-0.016c-1.336-0.116-2.293-1.303-2.178-2.623
	c0-0.149,1.303-13.875,1.32-18.511v-0.957c0.017-3.514,0.049-6.55-1.369-8.479c-0.792-1.072-0.561-2.574,0.528-3.382
	c1.072-0.759,2.573-0.544,3.365,0.545c2.343,3.201,2.327,7.341,2.31,11.35l-0.017,0.94c-0.017,4.85-1.287,18.362-1.32,18.939
	C265.898,359.364,264.825,360.304,263.605,360.304"/>
<path fill="#FFFFFF" d="M464.187,360.175h-0.033c-1.336-0.033-2.392-1.122-2.376-2.458c0-0.132,0.198-13.99-0.115-18.609
	l-0.066-0.957c-0.231-3.398-0.446-6.599-1.897-8.413c-0.842-1.04-0.677-2.558,0.346-3.399c1.039-0.841,2.557-0.676,3.398,0.363
	c2.442,2.986,2.706,7.127,2.969,11.136l0.066,0.924c0.33,4.834,0.132,18.444,0.116,19.022
	C466.596,359.12,465.507,360.175,464.187,360.175"/>
<path fill="#FFFFFF" d="M506.075,355.906c-1.271,0-2.343-1.023-2.409-2.309c0-0.115-0.693-13.858-1.336-18.428l-0.115-0.94
	c-0.462-3.332-0.875-6.467-2.442-8.1c-0.907-0.957-0.891-2.491,0.083-3.415c0.957-0.924,2.475-0.891,3.415,0.066
	c2.656,2.772,3.201,6.863,3.729,10.806l0.115,0.924c0.676,4.768,1.353,18.279,1.369,18.857c0.066,1.336-0.94,2.458-2.277,2.524
	C506.174,355.89,506.124,355.906,506.075,355.906"/>
<path fill="#FFFFFF" d="M603.966,342.163c-1.205,0-2.244-0.907-2.409-2.128c0-0.132-1.666-13.775-2.623-18.28l-0.181-0.94
	c-0.677-3.283-1.32-6.385-3.003-7.902c-0.99-0.907-1.056-2.425-0.165-3.415c0.891-0.99,2.425-1.072,3.415-0.165
	c2.838,2.574,3.679,6.599,4.487,10.493l0.182,0.924c0.99,4.718,2.64,18.147,2.706,18.708c0.149,1.32-0.775,2.524-2.112,2.689
	C604.164,342.163,604.064,342.163,603.966,342.163"/>
<path fill="#FFFFFF" d="M361.624,345.515c-0.908,0-1.766-0.511-2.178-1.386c-1.221-2.54-4.091-6.269-10.905-9.502
	c-7.622-3.646-15.706-3.465-18.84-3.217c-1.353,0.115-2.491-0.891-2.606-2.227c-0.099-1.32,0.907-2.508,2.227-2.59
	c3.53-0.28,12.637-0.479,21.298,3.662c8.1,3.877,11.631,8.546,13.182,11.796c0.577,1.204,0.066,2.656-1.155,3.217
	C362.334,345.433,361.971,345.515,361.624,345.515"/>
<path fill="#FFFFFF" d="M679.689,303.867c-0.495,0-1.006-0.165-1.435-0.478c-3.266-2.441-6.5-4.009-13.396-4.932
	c-7.408-1.006-11.449,0.297-16.778,2.392c-1.238,0.512-2.64-0.115-3.135-1.369c-0.495-1.237,0.115-2.64,1.369-3.118
	c5.642-2.227,10.657-3.844,19.17-2.706c7.902,1.056,11.846,3.019,15.656,5.857c1.056,0.792,1.287,2.309,0.478,3.365
	C681.157,303.521,680.431,303.867,679.689,303.867"/>
<g>
	<defs>
		<path id="SVGID_00000176026391437348184490000007343109289692691390_" d="M175.011,36.585c-14.601,5.593-28.954,13-37.038,18.494
			h-0.016c-8.497,5.411-25.341,6.236-34.266,0.99c-8.925-5.279-10.921-2.244-6.599,5.131c4.999,8.579,9.668,13.512,19.55,18.312
			c1.006,0.478,2.013,0.858,3.003,1.172c-1.122,5.493-0.924,11.433,1.056,17.685c5.494,17.504,34.414,60.992,41.904,73.316
			c20.16,33.21,78.216,120.45,90.275,114.296c6.352-3.217-22.42-83.297-38.505-127.808c6.434-1.402,12.868-3.646,19.104-6.83
			c23.064-11.746,37.681-32.963,40.634-55.07c10.212-6.038,30.372-18.774,29.168-24.515c-1.188-5.461-22.718-8.843-34.942-10.328
			c-0.017-0.033-0.033-0.066-0.049-0.115c-10.905-21.414-32.764-31.676-57.247-31.692C199.328,29.623,187.004,31.981,175.011,36.585
			"/>
	</defs>
	<clipPath id="SVGID_00000165220298961406300710000001961105648743274675_">
		<use xlink:href="#SVGID_00000176026391437348184490000007343109289692691390_"  overflow="visible"/>
	</clipPath>
	<path clip-path="url(#SVGID_00000165220298961406300710000001961105648743274675_)" fill="#FFFFFF" d="M233.525,240.841
		c0,4.801-3.894,8.694-8.694,8.694c-4.817,0-8.728-3.893-8.728-8.694c0-4.801,3.91-8.694,8.728-8.694
		C229.631,232.147,233.525,236.04,233.525,240.841"/>
	<path clip-path="url(#SVGID_00000165220298961406300710000001961105648743274675_)" fill="#FFFFFF" d="M246.607,247.334
		c0,2.558-2.079,4.636-4.636,4.636c-2.574,0-4.636-2.078-4.636-4.636c0-2.557,2.062-4.635,4.636-4.635
		C244.528,242.699,246.607,244.777,246.607,247.334"/>
	<path clip-path="url(#SVGID_00000165220298961406300710000001961105648743274675_)" fill="#FFFFFF" d="M242.08,262.317
		c0,2.574-2.079,4.653-4.636,4.653c-2.574,0-4.636-2.079-4.636-4.653c0-2.557,2.062-4.635,4.636-4.635
		C240.002,257.682,242.08,259.76,242.08,262.317"/>
	<path clip-path="url(#SVGID_00000165220298961406300710000001961105648743274675_)" fill="#FFFFFF" d="M227.645,259.562
		c0,2.574-2.079,4.653-4.636,4.653c-2.574,0-4.653-2.079-4.653-4.653c0-2.557,2.079-4.635,4.653-4.635
		C225.566,254.927,227.645,257.005,227.645,259.562"/>
	<path clip-path="url(#SVGID_00000165220298961406300710000001961105648743274675_)" fill="#FFFFFF" d="M252.311,269.631
		c0,1.535-1.238,2.772-2.788,2.772c-1.535,0-2.772-1.238-2.772-2.772c0-1.551,1.237-2.788,2.772-2.788
		C251.073,266.843,252.311,268.08,252.311,269.631"/>
	<path clip-path="url(#SVGID_00000165220298961406300710000001961105648743274675_)" fill="#FFFFFF" d="M249.813,282.021
		c0,1.551-1.238,2.788-2.788,2.788c-1.535,0-2.788-1.237-2.788-2.788c0-1.534,1.254-2.788,2.788-2.788
		C248.575,279.233,249.813,280.487,249.813,282.021"/>
	<path clip-path="url(#SVGID_00000165220298961406300710000001961105648743274675_)" fill="#FFFFFF" d="M238.182,274.079
		c0,1.551-1.254,2.788-2.788,2.788c-1.535,0-2.788-1.237-2.788-2.788c0-1.534,1.254-2.788,2.788-2.788
		C236.927,271.291,238.182,272.545,238.182,274.079"/>
</g>
<g>
	<defs>
		<path id="SVGID_00000152251824583787699210000016870604804809710481_" d="M282.79,10.782c0.759,8.331,2.409,14.204,7.045,20.919
			c-4.388-0.957-8.431-2.557-11.334-4.817c-8.216-6.368-10.542-3.596-7.209,4.256c3.877,9.156,7.902,14.617,17.091,20.622
			c0.165,0.116,0.346,0.198,0.512,0.297c-0.148,0.792-0.314,1.567-0.429,2.376c-2.392,18.18,5.428,69.851,6.995,84.171
			c4.273,38.588,19.995,142.21,33.54,141.732c7.111-0.248,14.881-84.98,19.088-132.097c6.45,1.435,13.231,2.112,20.226,1.864
			c25.836-0.891,48.074-13.941,60.085-32.731c11.812-1.172,35.454-4.191,36.773-9.899c1.27-5.445-16.844-17.619-27.27-24.12V83.24
			c-1.238-35.536-34.497-59.079-74.091-61.85c-15.59-1.089-31.725-0.462-41.36,1.106h-0.033c-9.998,1.32-25.621-5.048-31.478-13.594
			c-2.606-3.811-4.669-5.527-6.071-5.527C283.103,3.358,282.345,6.064,282.79,10.782"/>
	</defs>
	<clipPath id="SVGID_00000110447522575318188020000003518656276873851071_">
		<use xlink:href="#SVGID_00000152251824583787699210000016870604804809710481_"  overflow="visible"/>
	</clipPath>
	<path clip-path="url(#SVGID_00000110447522575318188020000003518656276873851071_)" fill="#FFFFFF" d="M331.899,231.013
		c-2.261,4.257-7.523,5.857-11.78,3.613c-4.24-2.261-5.84-7.539-3.596-11.78c2.26-4.24,7.523-5.856,11.779-3.596
		C332.541,221.511,334.159,226.773,331.899,231.013"/>
	<path clip-path="url(#SVGID_00000110447522575318188020000003518656276873851071_)" fill="#FFFFFF" d="M340.405,242.888
		c-1.205,2.277-4.009,3.118-6.286,1.914c-2.26-1.188-3.118-4.009-1.914-6.269c1.204-2.26,4.009-3.118,6.285-1.914
		C340.752,237.807,341.609,240.628,340.405,242.888"/>
	<path clip-path="url(#SVGID_00000110447522575318188020000003518656276873851071_)" fill="#FFFFFF" d="M329.37,254.005
		c-1.205,2.261-4.009,3.118-6.286,1.914c-2.26-1.204-3.118-4.009-1.914-6.286c1.204-2.243,4.009-3.101,6.285-1.914
		C329.716,248.924,330.574,251.728,329.37,254.005"/>
	<path clip-path="url(#SVGID_00000110447522575318188020000003518656276873851071_)" fill="#FFFFFF" d="M317.915,244.789
		c-1.205,2.277-4.009,3.118-6.286,1.914c-2.26-1.188-3.118-4.009-1.914-6.269c1.204-2.26,4.009-3.118,6.285-1.93
		C318.262,239.708,319.103,242.528,317.915,244.789"/>
	<path clip-path="url(#SVGID_00000110447522575318188020000003518656276873851071_)" fill="#FFFFFF" d="M334.976,265.249
		c-0.726,1.369-2.409,1.881-3.778,1.155c-1.353-0.726-1.864-2.409-1.138-3.761c0.726-1.353,2.409-1.864,3.778-1.171
		C335.19,262.197,335.701,263.897,334.976,265.249"/>
	<path clip-path="url(#SVGID_00000110447522575318188020000003518656276873851071_)" fill="#FFFFFF" d="M326.953,275.029
		c-0.726,1.353-2.409,1.864-3.778,1.155c-1.353-0.726-1.864-2.409-1.138-3.761c0.709-1.369,2.409-1.88,3.761-1.171
		C327.167,271.977,327.678,273.677,326.953,275.029"/>
	<path clip-path="url(#SVGID_00000110447522575318188020000003518656276873851071_)" fill="#FFFFFF" d="M320.397,262.559
		c-0.71,1.353-2.409,1.864-3.762,1.138c-1.369-0.725-1.88-2.392-1.154-3.761c0.725-1.353,2.425-1.864,3.778-1.154
		C320.611,259.506,321.122,261.19,320.397,262.559"/>
</g>
<g>
	<defs>
		<path id="SVGID_00000042006161019680382080000008109156778420707460_" d="M477.842,18.717c-2.838,7.853-3.811,13.875-2.458,21.926
			c-3.58-2.722-6.534-5.89-8.233-9.173c-4.751-9.223-8.051-7.705-8.331,0.825c-0.346,9.948,0.99,16.597,6.781,25.902
			c0.099,0.181,0.214,0.33,0.314,0.495c-0.462,0.643-0.94,1.287-1.369,1.98c-9.866,15.475-24.615,65.578-29.234,79.239
			c-12.456,36.79-41.987,137.343-29.514,142.639c6.533,2.772,49.427-70.742,73.151-111.673c5.213,4.026,11.086,7.507,17.537,10.245
			c23.789,10.097,49.46,7.688,68.284-4.273c11.168,3.927,33.903,11.202,37.516,6.566c3.448-4.388-7.82-23.081-14.518-33.375
			c0.017-0.033,0.033-0.066,0.033-0.115c13.891-32.732-6.286-68.102-41.014-87.372c-10.261-5.675-21.216-10.624-30.009-13.858
			c-5.609-2.969-10.938-15.574-9.585-25.406c1.402-10.262-2.145-10.922-7.292-4.108c-3.695,4.884-6.137,9.091-7.605,14.155
			c-3.201-4.124-5.576-8.694-6.253-12.884c-0.891-5.296-2.277-7.721-3.811-7.721C480.795,12.712,479.245,14.824,477.842,18.717"/>
	</defs>
	<clipPath id="SVGID_00000127029951007426581180000014975921744030676376_">
		<use xlink:href="#SVGID_00000042006161019680382080000008109156778420707460_"  overflow="visible"/>
	</clipPath>
	<path clip-path="url(#SVGID_00000127029951007426581180000014975921744030676376_)" fill="#FFFFFF" d="M429.161,239.745
		c-3.828,2.887-9.289,2.129-12.175-1.715c-2.904-3.844-2.145-9.289,1.699-12.192c3.844-2.904,9.305-2.128,12.192,1.716
		C433.764,231.398,432.988,236.842,429.161,239.745"/>
	<path clip-path="url(#SVGID_00000127029951007426581180000014975921744030676376_)" fill="#FFFFFF" d="M431.852,254.1
		c-2.046,1.551-4.966,1.122-6.5-0.924c-1.535-2.046-1.138-4.949,0.907-6.483c2.046-1.551,4.966-1.155,6.517,0.891
		C434.31,249.629,433.898,252.55,431.852,254.1"/>
	<path clip-path="url(#SVGID_00000127029951007426581180000014975921744030676376_)" fill="#FFFFFF" d="M417.159,259.498
		c-2.046,1.551-4.966,1.138-6.517-0.907c-1.518-2.046-1.122-4.949,0.924-6.5c2.046-1.551,4.966-1.138,6.517,0.907
		C419.6,255.044,419.204,257.964,417.159,259.498"/>
	<path clip-path="url(#SVGID_00000127029951007426581180000014975921744030676376_)" fill="#FFFFFF" d="M410.665,246.32
		c-2.046,1.535-4.966,1.122-6.5-0.924c-1.535-2.046-1.138-4.949,0.907-6.5c2.046-1.535,4.966-1.138,6.517,0.907
		C413.123,241.849,412.711,244.769,410.665,246.32"/>
	<path clip-path="url(#SVGID_00000127029951007426581180000014975921744030676376_)" fill="#FFFFFF" d="M417.48,272.081
		c-1.221,0.924-2.97,0.677-3.894-0.544c-0.924-1.237-0.676-2.986,0.545-3.927c1.22-0.907,2.986-0.676,3.893,0.577
		C418.965,269.408,418.717,271.141,417.48,272.081"/>
	<path clip-path="url(#SVGID_00000127029951007426581180000014975921744030676376_)" fill="#FFFFFF" d="M406.074,277.542
		c-1.221,0.924-2.97,0.677-3.894-0.544c-0.924-1.221-0.676-2.986,0.545-3.91c1.22-0.924,2.986-0.676,3.893,0.561
		C407.559,274.869,407.295,276.602,406.074,277.542"/>
	<path clip-path="url(#SVGID_00000127029951007426581180000014975921744030676376_)" fill="#FFFFFF" d="M405.414,263.461
		c-1.221,0.94-2.97,0.693-3.894-0.544c-0.924-1.221-0.676-2.969,0.545-3.91c1.22-0.907,2.986-0.676,3.893,0.561
		C406.899,260.805,406.651,262.537,405.414,263.461"/>
</g>
<g>
</g>
<g>
</g>
<g>
</g>
<g>
</g>
<g>
</g>
<g>
</g>
<g>
</g>
<g>
</g>
<g>
</g>
<g>
</g>
<g>
</g>
<g>
</g>
<g>
</g>
<g>
</g>
<g>
</g>
</svg>
