<?xml version="1.0" encoding="utf-8"?>
<!-- Generator: Adobe Illustrator 27.0.1, SVG Export Plug-In . SVG Version: 6.00 Build 0)  -->
<svg version="1.1" id="레이어_1" xmlns="http://www.w3.org/2000/svg" xmlns:xlink="http://www.w3.org/1999/xlink" x="0px"
	 y="0px" viewBox="0 0 720 455.44" enable-background="new 0 0 720 455.44" xml:space="preserve">
<path d="M32.621,310.335c-15.984-11.534-24.671-26.057-28.83-42.188c-5.62-21.896-4.234-43.939-0.731-66.053
	c8.322-52.042,23.575-102.917,51.677-151.747c5.765-10.073,11.97-19.998,19.853-29.34c5.036-6.059,11.24-11.315,18.61-15.837
	c5.622-3.359,11.899-5.769,19.417-5.038l5.912,8.469l-4.818,5.328c-17.007,13.209-24.085,29.999-31.53,46.491
	c-17.154,38.103-25.694,77.15-29.563,116.857c-0.51,4.963,0.731,5.546,7.446,3.724c13.795-3.871,27.881-7.083,42.333-9.271
	c9.05-1.461,18.029-1.969,26.787,0.802l4.014,0.076l0.147-2.994c-5.985-14.746-0.657-27.589,12.554-39.341
	c5.985-5.257,12.189-10.367,20.145-14.162c13.576-6.424,27.663-7.008,41.604-1.314c13.721,5.551,21.678,13.868,21.02,25.838
	c-0.949,18.105-12.117,33.358-26.496,47.592l-6.35,3.649l-11.021-3.283l-4.963-2.045c-14.817,4.669-25.034,3.136-36.786-5.328
	l-11.387,0.365l-15.837,7.956c-19.782,7.734-39.562,15.619-59.342,23.281l-6.203,6.789c0.439,14.741,1.971,29.34,8.32,43.502
	l0.657,1.238c9.709,19.998,21.898,25.62,50.946,22.992c16.935-1.533,33.356-4.669,49.122-9.779
	c10.877-3.577,21.898-6.718,34.16-5.11c10.509,1.238,11.75,2.994,7.299,10.144l-12.993,12.117
	c-22.043,12.189-45.4,22.698-71.967,28.609c-10.22,2.263-20.657,3.506-31.24,3.653C63.714,327.268,46.636,321.428,32.621,310.335
	 M174.293,139.102l-13.942,14.964c-3.869,8.687,0.365,15.182,12.044,18.1l9.197,3.43l7.371-1.604
	c4.526-9.636,7.738-19.49,9.707-29.487l0.147-1.827l-6.569-9.342l-13.576,2.553L174.293,139.102z M431.945,190.779
	c1.824-11.752-2.92-21.896-13.723-30.583c-15.764-12.701-35.909-18.319-59.266-18.537c-33.795-0.294-64.523,8.246-94.448,19.049
	c-21.678,7.809-39.341,18.684-52.699,33.354c-5.181,5.769-8.685,11.899-8.101,18.688c0.657,8.393,8.175,13.138,18.978,12.478
	l7.226-5.328l4.526-7.662c7.883-5.983,16.058-11.752,25.983-15.619c25.912-10.22,53.354-16.933,82.623-18.978
	c8.54-0.584,16.935-0.365,25.11,1.68c12.333,3.136,16.202,7.881,13.356,17.298c-5.62,18.684-17.372,35.18-35.984,49.048l-4.45,1.898
	l-0.586-3.724l2.045-18.466l-8.322-15.472l-16.568-0.294l-11.24,12.919c-8.832,18.1-17.811,36.205-26.204,54.452
	c-13.356,28.903-19.049,58.462-16.058,88.679c0.731,7.52,2.408,14.67,9.489,20.439c5.912,4.816,10.73,4.963,17.517,0.584
	c7.665-4.963,10.511-11.605,11.168-18.688c0.875-10.291,3.722-20.363,7.152-30.36c8.467-24.453,17.007-48.906,25.473-73.43
	l6.569-2.918c10.073,2.41,19.123,0.294,27.591-3.943c8.538-4.379,16.276-9.413,25.179-14.96
	C413.698,228.44,428.659,211.873,431.945,190.779z M677.042,304.205l-15.692-5.912l-18.978-1.68l-6.203-5.257
	c1.385-7.226,2.261-14.452,2.481-21.602c0.218-6.861,0.292-6.861,9.268-8.54c8.832-1.608,17.59-3.43,25.912-6.353l9.489-9.195
	l-10.146-9.052l-10.073-1.969c-24.742-2.7-49.414-1.751-74.011,1.68l-14.305,4.161c-9.928,5.328-9.707,14.888,0.292,19.78
	l10.291,2.918c7.665,1.096,15.474,1.532,23.284,1.532c6.789,0,7.444,0.512,5.767,5.257l-7.446,19.561l-9.415,5.034l-18.976,2.045
	c-9.271,2.628-16.058,7.155-17.372,14.67c-1.388,7.662,3.577,13.356,12.115,17.37c7.812,3.724,16.715,4.891,25.912,4.82
	c16.715-0.218,33.43-0.437,50.144-0.949c10.364-0.294,19.998-2.481,27.807-7.885C687.26,317.561,687.26,310.771,677.042,304.205z
	 M469.241,246.322c-8.903,9.636-16.494,19.78-20.729,30.948c-2.043,5.328-1.532,10.732,5.255,14.162
	c6.789,3.502,13.432,1.532,19.635-1.39l4.963-2.771c9.197-5.038,17.007-11.168,25.547-16.791
	c48.391-31.238,96.93-62.329,144.956-93.86c16.933-11.097,34.526-21.606,51.53-32.556c8.905-5.765,15.695-12.625,18.613-21.165
	c2.19-6.206,1.169-7.079-7.371-7.738c-14.015-1.02-26.422,2.481-38.392,7.444c-51.459,21.317-99.193,46.425-142.474,75.983
	c-19.561,13.503-39.707,26.422-55.911,42.264L469.241,246.322z M470.117,121.002c-12.772,1.532-21.239,8.83-22.335,17.227
	c-1.094,8.54,5.767,16.786,18.176,19.561c21.165,4.744,42.916,5.105,64.449-0.223c8.467-2.116,14.888-6.201,16.131-13.138
	c1.241-6.714-4.016-11.021-12.336-15.619C515.59,121.073,493.4,118.155,470.117,121.002z M489.97,111.584
	c13.285,1.243,26.351-0.584,38.831-4.232l8.832-7.956l-7.809-8.977c-15.182-4.816-30.365-4.014-45.108,1.827l-3.869,2.481
	C473.11,102.242,477.781,110.417,489.97,111.584z M380.925,334.204l0.074,1.533l0.657,0.949l1.533,0.437l2.773,0.147v0.508
	l-3.065-0.143h-5.84l-2.773,0.143v-0.508l1.532-0.218l1.022-0.294l0.657-0.873l0.145-1.39v-16.639l-0.657-2.116l-2.408-0.731v-0.441
	l6.35-0.584v1.68l2.773-1.461l3.138-0.437l3.285,0.584l2.481,1.608l1.606,2.481l0.51,3.065l-0.731,3.212l-1.969,2.334l-2.847,1.461
	l-3.359,0.584l-2.553-0.365l-2.337-0.878V334.204z M380.925,325.005l1.824,2.045l3.285,0.802l3.796-1.751l1.241-4.526l-0.292-2.334
	l-0.949-2.045l-1.606-1.457l-2.19-0.588l-3.285,0.588l-1.824,1.751V325.005z M416.763,318.875l-0.074-1.532l-0.365-1.243
	l-0.949-0.726l-1.677-0.441v-0.508l6.277-0.441v11.24l0.145,1.537l0.586,0.873l0.947,0.294l1.535,0.218v0.437l-2.92-0.147h-4.744
	l-1.824,0.147v-0.437l1.385-0.218l0.949-0.294l0.512-0.873l0.218-1.537V318.875z M417.93,302.744l1.532,0.659l0.657,1.457
	l-0.657,1.532l-1.532,0.512l-1.533-0.512l-0.657-1.532l0.657-1.457L417.93,302.744z M442.893,317.271l0.949-1.827l1.388-1.096
	l1.751-0.508l2.116-0.076l2.118,0.218l1.896,0.731l1.388,1.243l0.51,2.04v7.083l0.365,1.314l1.314,0.508l1.459-0.437l1.243-0.878
	l0.363,0.441l-0.949,0.949l-1.167,0.949l-1.241,0.802l-1.314,0.365l-0.802-0.294l-0.875-0.584l-0.878-0.655l-0.584-0.731
	l-2.991,1.533l-3.285,0.731l-1.68-0.294l-1.385-0.802l-1.022-1.167l-0.365-1.608l0.949-2.481l2.481-1.385l3.432-0.655l3.867-0.223
	v-2.918l-0.949-2.187l-2.408-0.731l-1.68,1.02l-0.657,2.192L442.893,317.271z M451.869,321.94l-2.773-0.29l-1.606,0.143
	l-1.385,0.512l-1.022,1.02l-0.365,1.461l0.949,1.827l2.19,0.584l2.41-0.512l1.604-0.873V321.94z M491.576,320.189l-0.949-1.898
	l-1.241-1.751l-1.677-1.243l-2.263-0.508l-2.19,0.584l-1.461,1.457l-0.875,1.974l-0.218,2.263l0.437,2.406l1.314,2.045l1.971,1.461
	l2.628,0.508l2.918-0.508l2.628-1.39l0.51,0.659l-3.649,2.116l-4.014,0.731l-3.067-0.659l-2.553-1.604l-1.827-2.41l-0.584-2.994
	L478,318.51l1.827-2.481l2.553-1.604l3.067-0.659l3.138,0.147l2.991,0.512l0.512,5.765H491.576z M515.59,320.407l0.51,3.283
	l1.388,2.045l1.824,1.096l1.824,0.365l3.138-0.584l2.628-1.608l0.731,0.584l-3.504,2.557l-4.234,0.949l-3.212-0.731l-2.408-1.68
	l-1.459-2.41l-0.584-2.847l0.584-2.771l1.459-2.557l2.408-1.675l3.212-0.659l5.183,1.68l2.481,4.963H515.59z M523.618,319.24
	l-0.292-1.827l-0.657-1.385l-1.241-0.802l-1.898-0.294l-1.606,0.441l-1.241,0.949l-0.802,1.457l-0.218,1.461H523.618z
	 M134.295,438.137c-7.956-0.655-10.948-9.484-18.102-9.926h-0.363l-11.679,7.52l-0.878,0.437l-0.728-0.731l13.795-10.291
	c8.977,0,11.752,9.342,18.686,9.854h0.363l11.607-7.444l0.947-0.512l0.586,0.731l-13.723,10.362H134.295z M178.381,431.789
	l-9.05,14.599l-0.731,0.365l-0.875-0.802l0.145-0.659l8.614-18.466h-7.518l-1.314-0.878l1.314-0.949h9.415v-9.048l-8.467,0.731
	l-0.949-0.806l0.949-0.949l15.837-3.649l0.804-0.147l2.334,1.974l-2.408,1.898l-4.379,0.508V425h7.371l1.314,0.949l-1.314,0.878
	h-7.371v2.553l6.35,4.673l1.094,1.898l-1.751,1.68l-1.68-0.949l-4.014-4.891v21.825l-1.824,1.827l-1.898-1.755V431.789z
	 M211.153,448.575l-23.139,4.237l-2.116-1.898l2.408-2.045h1.314c2.773-8.103,6.716-27.442,7.518-36.495l2.555-2.41l1.971,2.339
	c0,1.532-4.161,23.575-9.636,36.419l18.394-2.045c-4.597-11.895-4.597-12.113-4.597-12.331l1.167-1.314l1.241,0.873l7.956,16.349
	l0.292,1.243l-1.971,2.116l-2.045-1.608L211.153,448.575z M252.245,426.973c0,11.387-4.306,22.698-11.313,22.698l-8.393-12.701
	c0-11.748,7.297-20.947,18.319-20.947c11.242,0,18.176,7.52,18.176,15.984c0,14.086-11.534,20.363-13.066,20.363l-0.51-0.437
	l0.949-1.604c4.597-4.161,8.611-9.052,8.611-17.958c0-6.714-4.816-14.67-13.939-14.67L252.245,426.973z M236.406,436.68
	c0,7.515,2.481,10.656,4.818,10.656c3.357,0,7.444-11.387,7.444-21.896l-0.728-6.936l-0.074-0.29
	C241.006,420.112,236.406,427.481,236.406,436.68z M312.315,450.036l-2.043,1.751l-2.045-1.822v-23.794
	c-8.393,4.232-17.517,6.348-17.882,6.348l-0.875-0.731l1.094-0.949c12.336-3.867,22.261-10.22,30.436-17.953l1.461-0.659
	l1.971,1.827l-0.949,1.898l-11.752,8.464l0.584,25.549V450.036z M356.327,422.229l-10.583,11.24l-0.731-0.659l0.584-1.02
	l11.534-18.613l2.043-1.167l1.753,1.461l-3.285,6.714l18.247-0.294l2.19,2.263l-0.292,1.608
	c-5.912,17.004-21.751,30.948-23.502,30.948l-0.804-0.731l0.439-0.802l12.407-15.623l-10.801-8.901l-0.804-0.949l0.657-0.512
	l12.627,7.515l5.62-12.554L356.327,422.229z M404.062,415.511l1.753-1.898l1.751,1.898v19.49l-1.677,2.192l-1.753-2.192
	L404.062,415.511z M425.376,414.784l1.751-1.755l1.971,1.974l0.145,6.714l-0.51,11.387c-0.802,12.625-10.73,20.876-11.679,20.876
	l-0.731-0.802l0.221-0.584c4.306-4.602,7.954-11.899,8.54-19.637l0.437-11.529l-0.145-6.571V414.784z M490.043,417.19l2.92,2.339
	l-0.731,1.822c-6.35,8.834-14.16,12.995-14.891,12.995l-0.728-0.588l0.365-0.726l10.509-13.797l-31.603,0.437h-0.074l-1.388-0.949
	l1.461-1.02l34.084-0.512H490.043z M475.3,433.468c0,9.052-2.847,15.107-10.948,19.78l-0.731,0.218l-0.657-0.584l0.439-0.802
	c5.402-4.09,8.32-9.342,8.32-18.323v-0.508l-0.292-6.277v-0.076l1.824-1.898c1.898,0,2.045,1.39,2.045,8.175V433.468z
	 M523.838,425.73l-8.03-8.83l-0.584-1.025l0.657-0.584l10.73,7.008l1.459,2.847l-1.898,1.974L523.838,425.73z M523.547,453.177
	l-2.118-1.898l1.532-2.628c9.489-7.444,20.145-18.831,27.226-29.269l1.314-0.949l0.51,0.655c0,2.263-9.415,19.637-25.838,33.14
	L523.547,453.177z M603.178,438.137c-8.03-0.655-11.021-9.484-18.176-9.926h-0.365l-11.605,7.52l-0.949,0.437l-0.657-0.731
	l13.797-10.291c8.977,0,11.75,9.342,18.61,9.854h0.365l11.678-7.444l0.875-0.512l0.657,0.731l-13.721,10.362H603.178z"/>
</svg>
