<?xml version="1.0" encoding="utf-8"?>
<!-- Generator: Adobe Illustrator 27.2.0, SVG Export Plug-In . SVG Version: 6.00 Build 0)  -->
<svg version="1.1" id="레이어_1" xmlns="http://www.w3.org/2000/svg" xmlns:xlink="http://www.w3.org/1999/xlink" x="0px"
	 y="0px" viewBox="0 0 720 252.377" enable-background="new 0 0 720 252.377" xml:space="preserve">
<g>
	<path fill="#FFE4B8" d="M588.888,223.49c-1.369-0.09-1.834-0.18-1.796-0.106c-0.17-0.218-0.456-0.97-0.851-2.246
		c-0.877-2.805-1.638-5.975-5.092-21.196c-0.652-2.907-2.226-9.48-3.486-14.607c-1.253-5.089-2.666-10.923-3.142-12.963
		c-6.621-28.389-7.08-28.73-8.288-29.632c-1.166-0.883-2.644-1.166-4.144-0.784c-2.621,0.655-4.851,3.193-5.818,5.285
		c-0.453,0.996-1.844,5.985-6.078,21.495c-2.001,7.344-4.494,16.484-4.851,17.46l-0.328,0.797c-0.135,0.328-0.238,0.614-0.347,0.848
		c-2.798,0.357-4.857,2.808-4.693,5.603c0.103,1.728,1.028,3.145,2.438,3.9c-0.44,1.388-1.041,3.168-1.671,4.973
		c-0.17-0.234-0.36-0.443-0.562-0.639c-0.948-0.903-2.178-1.317-3.492-1.192c-4.318,0.45-4.318,6.351-4.318,8.288
		c0,0.732-0.032,1.565-0.083,2.416c-1.452,0.649-2.451,1.85-2.667,3.309c-0.083,0.575-0.164,2.262,1.417,3.71
		c-0.626,0.408-2.149,0.492-6.782-0.337c-6.775-1.221-8.571-2.156-9.037-2.596c-0.18-1.185-0.649-7.035,0.864-32.675l1.378-23.805
		c0.321-5.648,0.626-10.98,1.186-11.944c0.356-0.353,0.363-0.36,1.172-0.517c5.201-1.006,5.606-4.549,5.606-5.612
		c0-1.079-0.427-2.059-1.205-2.76c-1.369-1.237-2.772-1.095-5.844-0.781l-2.021,0.202c-4.17,0.398-8.818,1.009-12.253,1.458
		l-2.663,0.344c-5.371,0.668-9.612,1.195-10.29,4.771c-0.37,1.918,0.267,3.184,0.861,3.91c1.401,1.699,3.576,1.847,5.866,1.854
		c0.074,0.003,0.138,0.003,0.193,0.006c0.655,3.482,1.594,20.959,1.571,37.625c-0.023,13.836-0.916,23.477-1.825,26.182
		c-0.37,0.331-1.179,0.716-1.873,0.928l-0.096-3.328c-0.167-6.068-0.588-8.841-2.766-10.293c-0.684-0.456-2.12-1.095-4.038-0.363
		c-2.972,1.137-3.01,4.652-3.055,8.728c-0.068,7.209-0.906,8.606-1.786,9.03c-1.038,0.498-1.729,0.829-7.511-0.228
		c-3.045-0.559-5.477-1.581-6.653-2.14l-0.591-0.273c-0.225-0.103-0.443-0.183-0.405-0.061c-0.822-1.648-0.344-11.385,0.707-32.716
		l0.781-16.201c0.546-11.629,0.858-18.218,1.391-19.728c0.379-0.299,0.578-0.389,1.41-0.569c1.841-0.398,5.677-1.224,5.677-5.23
		c0-0.511,0-2.066-1.269-3.238c-1.478-1.372-3.139-1.243-7.142-0.935c-1.629,0.125-6.104,0.838-10.434,1.526
		c-3.065,0.488-6.235,0.993-7.135,1.079c-0.058,0.006-0.116,0.013-0.173,0.016c0.116-0.385,0.157-0.768,0.157-1.121
		c-0.026-4.494-3.267-4.494-16.911-4.494c-2.323,0-4.186,0.016-5.677,0.029c-0.347,0.003-0.684,0.006-1.009,0.01
		c2.936-7.545,10.126-24.557,10.871-26.073c0.145-0.246,0.267-0.466,0.376-0.665c0.597,0.141,1.413,0.438,1.825,0.588
		c0.405,0.149,0.765,0.276,1.038,0.358c2.281,0.684,4.713,0.358,6.338-0.853c1.198-0.893,1.889-2.217,1.889-3.632
		c0-4.18-3.245-5.111-21.238-10.282c-5.143-1.483-17.293-4.93-18.941-4.944c-0.023,0-0.048,0-0.074,0
		c-2.409,0-4.726,1.743-5.41,4.08c-0.562,1.924,0.138,3.826,1.789,4.849c1.108,0.681,2.149,0.928,8.928,2.538l0.739,0.177
		c0.376,0.09,1.391,0.413,4.128,1.637c0.723,0.321-0.077,3.172-0.379,4.244c-0.109,0.39-0.209,0.747-0.286,1.06
		c-0.202,0.824-4.311,15.499-10.415,33.725c-4.128,12.346-11.784,34.127-24.807,67.82c-0.909-2.792-1.895-6.069-2.512-8.684
		c-1.902-8.035-8.812-35.64-9.567-38.464c-3.727-13.955-4.186-19.137-4.18-20.869c1.025-0.63,2.747-1.587,4.597-2.152
		c2.47-0.758,4.604-1.41,5.638-3.527c0.626-1.279,0.633-2.747,0.019-4.35c-0.273-0.724-0.912-2.421-2.724-3.233
		c-1.963-0.885-3.993-0.228-6.856,0.867c-0.668,0.249-8.754,2.935-17.316,5.781c-33.81,11.237-33.838,11.257-34.544,11.8
		c-1.475,1.153-1.984,3.113-1.328,5.114c0.731,2.229,2.849,4.53,5.506,4.61c1.617,0.109,4.237-0.492,7.005-1.43
		c4.528-1.529,6.995-1.786,8.203-1.786c0.731,0,1.006,0.109,0.983,0.058c0.448,0.524,1.711,2.76,2.395,4.777
		c0.153,0.453,1.113,3.396,2.597,7.948c11.435,35.052,24.761,75.742,26.328,79.285c1.985,4.507,3.421,7.765,6.618,8.025
		c0.122,0.01,0.244,0.016,0.363,0.016c2.66,0,4.247-2.435,4.989-3.572c1.433-2.345,4.546-9.085,7.395-16.027
		c1.317-3.193,8.504-21.058,16.104-39.958c8.15-20.265,17.29-42.984,19.285-47.857c1.173,8.031,3.258,34.599,2.464,50.977
		c-0.1,2.017-0.157,4.311-0.212,6.579c-0.058,2.294-0.132,5.33-0.276,7.54c-0.354-0.199-0.704-0.414-1.051-0.623l-0.296-0.18
		c-1.513-0.916-3.489-1.063-5.278-0.382c-1.886,0.713-3.328,2.258-4.032,4.536l-0.366,1.696c-0.19,0.871-0.016,1.78,0.479,2.522
		c0.495,0.742,1.269,1.25,2.146,1.41l7.305,1.288c2.197,0.366,5.477,0.906,8.638,1.288c2.319,0.276,4.542,0.655,7.508,1.16
		c4.774,0.81,11.311,1.921,22.957,3.444l7.286,0.967c2.943,0.395,5.551,0.745,6.978,0.916c4.446,0.533,12.465,1.124,12.805,1.15
		c1.812,0.135,3.315-1.16,3.511-2.92l0.225-2.014c4.385,0.472,14.485,1.732,22.388,2.833c18.228,2.544,19.741,1.969,20.583,1.651
		c2.48-0.964,3.18-3.8,3.515-6.165c0.064-0.466,0.112-1.009,0.145-1.613c0.244,0.035,0.495,0.071,0.755,0.106
		c2.265,0.315,4.388,0.61,5.615,0.829c0.003,0.003,0.006,0.003,0.01,0.003c5.953,1.047,7.18-2.14,7.418-3.139
		c0.459-1.947-0.511-4.665-4.745-5.927c-1.352-0.408-1.754-0.681-1.712-0.604c-0.28-0.88,0.665-4.722,1.176-6.791
		c0.626-2.56,1.542-5.487,2.127-7.273c2.573-0.167,7.832-0.039,9.93,0.283c0.244,0.659,0.636,2.162,1.195,5.583
		c0.421,2.573,0.842,4.999,1.234,7.273c0.96,5.574,1.792,10.386,2.059,14.036c0.032,0.447,0.068,0.967,0.074,1.333
		c-0.296,0.125-0.829,0.312-1.776,0.549c-1.577,0.398-6.377,1.616-5.661,5.439c0.716,3.816,5.821,3.691,10.2,3.148
		c3.142-0.385,6.74-0.961,11.327-1.693l4.038-0.643c6.778-1.06,9.586-1.5,9.586-5.346
		C595.056,223.885,590.892,223.619,588.888,223.49z M555.885,186.633c0.032-0.119,1.542-5.689,3.116-11.633
		c0.475,2.747,1.034,5.773,1.658,8.963l0.283,1.43c0.145,0.726,0.289,1.465,0.402,2.085c-0.447,0.01-0.941,0-1.414,0l-1.301-0.006
		c-1.279,0-2.233-0.019-2.939-0.045C555.747,187.172,555.811,186.909,555.885,186.633z M451.073,149.807
		c1.401,1.867,1.976,17.251,2.583,33.542c0.604,16.175-0.893,25.598-2.069,29.279c-0.026-0.023-0.055-0.045-0.083-0.068
		c-0.784-0.617-1.626-0.81-2.432-0.81c-0.768,0-1.5,0.173-2.124,0.321c-1.169,0.279-3.299,0.302-4.539,0.183
		c-0.572-2.93-0.578-13.069-0.517-26.744c0.071-15.035,0.215-27.997,0.337-30.175c0.122-2.425,0.231-6.149,0.238-8.256l0.019-3.341
		c0.398-0.051,0.874-0.093,1.317-0.125c-0.174,0.443-0.26,0.922-0.267,1.439c-0.023,2.663,2.184,4.266,6.692,4.78
		C450.623,149.875,451.156,149.936,451.073,149.807z"/>
	<path fill="#FFE4B8" d="M696.369,210.431c-0.649-3.592-1.85-9.397-2.323-11.051l-0.308-1.083c-0.755-2.676-1.253-4.443-3.209-5.272
		c-1.844-0.787-3.486,0.09-4.356,0.556c-3.36,1.796-2.287,5.227-1.577,7.501c0.418,1.333,0.626,5.506-1.407,9.895
		c-1.815,3.919-4.337,5.946-8.176,6.57c-5.689,0.922-11.697-0.27-13.126-1.314c-0.437-4.077-0.498-27.666-0.154-35.499
		c3.643,0.19,10.303,0.903,12.156,1.359c0.498,0.662,1.102,2.647,1.115,3.73c0.029,2.946,1.542,5.67,3.858,6.945
		c1.719,0.954,3.672,0.957,5.169,0.029c1.574-0.941,2.432-2.095,1.015-10.145c-0.18-1.002-0.363-2.143-0.553-3.331
		c-0.536-3.367-1.092-6.849-1.85-9.23l-0.222-0.704c-0.08-0.247-0.157-0.492-0.234-0.729c0.109,0.276,0.254,0.546,0.431,0.806
		c1.099,1.597,2.962,2.12,5.545,1.545c3.919-0.848,4.443-3.354,4.44-5.689c0-0.116-0.668-12.384-2.676-14.479
		c-0.81-0.855-1.298-1.369-10.598-2.075c-4.398-0.328-11.18-0.903-15.073-1.282l-5.166-0.501
		c-19.343-1.892-20.509-2.001-22.366,0.324c-1.391,1.741-0.752,3.662-0.398,4.719c0.912,2.75,3.569,3.213,4.844,3.434
		c0.289,0.048,0.588,0.096,0.883,0.18c0.697,0.202,1.047,0.598,1.044,0.498c0.546,1.754,1.944,14.726,2.676,26.102l0.366,5.773
		c1.083,16.962,1.603,25.128,1.542,27.705c-0.35,0.18-0.777,0.347-1.128,0.379c-6.846,0.662-7.572,4.379-7.562,5.901
		c-0.013,0.989-0.035,3.312,2.101,4.26c0.145,0.064,0.296,0.119,0.45,0.164c0.385,0.106,0.517,0.145,9.194,0.688
		c12.516,0.794,28.036,1.876,34.602,2.409l7.273,0.575c0.132,0.01,0.27,0.013,0.414,0.013c1.516,0,3.431-0.546,4.343-2.091
		C697.915,227.136,699.049,225.312,696.369,210.431z M683.246,163.599c-1.147,1.716-1.549,3.261-1.205,4.607
		c-1.221-3.739-2.377-6.123-6.521-5.493c-3.569,0.527-3.457,4.363-3.383,6.904l0.029,1.298c-0.851-0.106-1.927-0.267-3.036-0.434
		l-7.456-1.089l0.016-2.442c0.016-1.985,0.202-4.279,0.341-5.953c0.058-0.691,0.103-1.266,0.128-1.664
		c0.013-0.238,0.032-0.43,0.055-0.588c0.161,0.013,0.328,0.026,0.466,0.039c0.328,0.032,0.662,0.061,0.999,0.08
		c15.224,0.848,18.083,1.491,18.385,1.571l0.437,0.222c0.154,0.074,0.385,0.186,0.44,0.241
		C683.876,162.654,683.754,162.834,683.246,163.599z"/>
	<path fill="#FFE4B8" d="M645.492,168.61c-0.572-1.722-2.506-3.473-6.13-2.756c-0.941,0.19-2.242,0.681-4.456,1.532
		c-1.503,0.578-3.174,1.224-4.597,1.677c-9.695,3.078-22.533,4.761-22.658,4.777c-1.613,0.202-4.051,0.508-4.979,2.817
		c-0.058,0.145-0.106,0.286-0.145,0.427c0.083-1.471,0.186-3.029,0.312-4.674c1.295-16.734,2.31-21.164,5.42-23.699
		c2.245-1.825,5.317-4.324,6.178-4.324c0,0,0,0,0.003,0c0.61,0,2.978,2.291,4.703,3.961c7.752,7.524,7.758,9.461,6.881,11.556
		l-0.138,0.328c-0.967,2.303-1.883,4.478-0.514,6.534c0.858,1.291,2.281,1.947,4.228,1.947c4.42,0,5.42-3.213,6.804-7.662
		c0.742-2.387,1.564-5.5,2.589-9.792l0.099-0.421c1.327-5.561,1.876-7.864,0.039-9.782c-1.057-1.102-2.525-1.475-4.388-1.118
		c-2.65,0.517-3.331,2.866-3.935,4.941c-0.061,0.202-0.122,0.421-0.193,0.652c-1.051-1.372-2.229-2.859-3.335-4.115
		c-5.134-5.831-7.951-8.606-12.866-8.417c-4.459,0.173-14.151,5.596-19.844,10.338c-5.252,4.385-6.142,8.121-8.78,19.201
		c-0.777,3.232-3.02,15.468-4.225,22.192c-2.352,13.117-3.649,20.345,3.332,24.072c1.577,0.842,9.689,5.243,13.801,7.472
		l1.288,0.697c6.293,3.402,9.92,4.934,13.656,4.934c2.644,0,5.342-0.771,9.079-2.188c7.656-2.898,10.653-4.372,12.211-6.843
		c1.963-3.081,4.144-11.822,3.354-15.022c-0.308-1.24-0.813-3.084-1.353-5.047c-0.774-2.817-1.619-5.889-2.008-7.665
		c-0.113-0.514-0.305-1.311-0.527-2.223c-0.289-1.189-0.655-2.686-0.906-3.865c0.585-0.286,1.381-0.639,2.159-0.989
		c1.208-0.54,2.702-1.205,4.517-2.075C645.717,173.336,646.129,170.512,645.492,168.61z M603.807,181.435l0.273,0.357
		c2.069,2.795,4.257,2.554,8.626,1.796l1.78-0.318c1.494-0.267,3.155-0.569,3.987-0.594c0.337,1.012,0.665,3.431,1.012,5.972
		l0.491,3.54c0.861,6.004,1.378,12.651,1.266,14.588c-0.068,1.201-0.071,1.272-1.883,2.593c-1.327,0.961-2.111,1.256-5.101,1.491
		c-2.377,0.238-7.305-5.143-9.615-8.764c-0.771-1.198-3-6.229-2.197-23.374C602.656,180.018,603.466,181.017,603.807,181.435z"/>
</g>
<g>
	<path fill="#FFE4B8" d="M183.346,184.58c0.361-9.454,0.732-19.182,0.961-22.684c0.586-0.1,1.396-0.167,1.953-0.212
		c0.94-0.077,1.887-0.161,2.763-0.324c2.618-0.492,4.062-2.702,4.334-4.671c0.243-1.767-0.965-3.405-2.724-3.698
		c-0.27-0.045-2.951-0.44-13.785-0.569c-9.869-0.145-13.682,0.318-13.838,0.337c-1.404,0.167-2.546,1.208-2.837,2.593
		c-0.249,1.182-0.117,2.939,1.002,4.321c0.692,0.858,2,1.883,4.295,1.889c0.565,0.003,1.216,0.106,1.688,0.225
		c0.193,0.986,0.45,2.94,0.777,5.429l0.363,2.756c0.662,4.986,1.086,23.998,1.29,33.134l0.108,4.828
		c0.124,5.436,0.204,8.982,0.151,10.682c-0.035,0-0.068,0-0.1,0c-0.811,0.003-2.218,0-3.515,0.533
		c-0.618-0.874-1.197-1.712-1.55-2.278c-2.16-3.45-8.404-16.034-10.804-21.556c3.436-1.24,6.833-4.09,8.545-7.257
		c1.756-3.277,1.966-12.066,0.378-15.674c-1.129-2.567-5.935-9.326-8.598-11.771c-1.156-1.057-3.307-3.023-7.575-3.264
		c-2.427-0.145-5.423,0.209-7.183,0.594c-0.569,0.125-1.609,0.324-2.968,0.585c-2.393,0.463-5.734,1.102-9.234,1.854
		c-9.702,2.088-9.972,2.358-10.802,3.184c-1.314,1.343-1.72,3.123-1.091,4.745c1.491,3.9,5.929,2.968,8.481,2.419
		c0.797-0.17,2.011-0.43,2.986-0.614c0.003,0.148,0.005,0.292,0.006,0.434c0.013,1.018,0.031,2.252,0.13,3.733
		c0.427,6.361-0.363,36.941-0.922,44.744c-0.186,0.026-0.385,0.051-0.593,0.071c-1.277,0.122-5.53,0.755-6.595,3.727
		c-0.488,1.365-0.148,2.853,0.855,3.852c0.858,0.877,1.036,1.06,9.13,2.05c3.755,0.45,8.846,1.144,11.353,1.552
		c3.873,0.62,6.965,0.909,8.508-1.394c0.842-1.253,0.83-2.84-0.05-4.279c-0.278-0.44-1.02-1.616-4.567-2.531
		c-1.012-0.26-2.474-0.88-3.049-1.237c-0.063-0.039-0.124-0.074-0.18-0.109c-0.111-0.665-0.207-2.079-0.292-3.344
		c-0.079-1.185-0.194-2.605-0.328-4.224c-0.177-2.146-0.381-4.645-0.561-7.395c-0.095-1.465-0.223-3-0.341-4.408
		c-0.12-1.442-0.265-3.177-0.292-4.025l2.074-0.231c1.269-0.157,2.273-0.257,3-0.315c3.193,6.431,12.797,33.851,13.289,36.716
		c0.217,2.361-0.196,2.875-0.202,2.882c-2.026,2.027-4.12,4.125-3.084,6.833c0.707,1.786,2.292,2.943,4.009,2.943
		c0.154,0,0.31-0.01,0.467-0.029c1.277-0.18,2.366-0.941,4.536-2.454c1.335-0.935,2.999-2.095,4.599-2.988
		c0.002,0,0.003-0.003,0.005-0.003c3.799-2.124,7.803-4.726,10.195-6.281l1.288-0.835c1.656-1.063,4.101-2.988,6.29-4.78
		c3.116,0.045,4.83-0.08,6.229-1.455c0.895-0.877,1.348-2.072,1.348-3.556c0-2.001-0.977-3.135-2.119-3.794
		c-0.334-0.559-0.848-1.166-1.627-1.613c-1.079-0.626-2.382-0.752-3.659-0.357c-0.408,0.125-0.845,0.331-1.356,0.633
		c-0.178-0.023-0.316-0.045-0.427-0.071c-0.549-4.244-1.07-20.233-0.819-26.709L183.346,184.58z M146.717,183.854
		c-0.36,1.32-0.426,1.558-2.101,2.496c-2.578,1.442-3.479,1.6-5.979,1.799v-20.612l0.483-0.096c0.773-0.151,1.458-0.244,1.955-0.289
		c0.633,0.826,1.847,2.702,3.563,6.194C146.653,177.451,147.409,181.284,146.717,183.854z"/>
	<path fill="#FFE4B8" d="M84.162,194.038c-1.932-1.214-3.526-0.816-4.305-0.466c-2.347,1.047-2.798,3.73-3.068,5.33
		c-0.837,4.934-10.42,20.869-17.595,28.107c-2.398,2.416-5.672,5.057-7.606,6.146c-4.727,2.634-6.025,2.352-9.246-2.053
		c-2.31-3.171-6.751-10.139-8.834-15.346c-0.398-0.999-0.842-1.879-1.285-2.753c-1.145-2.255-2.05-4.038-1.858-8.41
		c0.284-6.428,3.558-32.228,5.174-43.575c0.22-1.539,0.418-3,0.602-4.372c0.668-4.957,1.245-9.236,2.176-11.122
		c2.213-4.481,7.68-14,9.707-16.344c1.352,0.834,5.832,4.599,14.162,20.812c2.274,4.417,4.152,8.613,4.356,9.252
		c0.164,0.941-0.341,5.098-0.583,7.096l-0.084,0.691c-1.584,13.098-1.679,13.881,0.031,15.546c1.351,1.314,2.991,1.073,3.656,0.973
		c3.874-0.536,4.303-3.788,4.588-5.94c0.403-3.052,1.369-9.39,2.292-15.07c0.846-5.201,1.526-9.48,2.185-13.746
		c0.313-2.066,0.978-5.959,1.471-8.655c0.467-2.544,0.969-6.126,0.977-7.761c0.006-1.468,0.014-3.127-1.354-4.375
		c-1.348-1.23-2.962-1.073-4.139-0.961l-1.897,0.183c-1.495,0.145-2.703,1.283-2.935,2.766l-0.928,5.93
		c-0.321,2.05-0.732,3.778-1.152,5.166c-3.487-6.891-9.551-17.234-13.436-20.814c-3.77-3.478-6.383-4.628-12.828-2.71
		c-3.627,1.079-7.058,3.132-11.032,5.51l-1.399,0.837c-6.219,3.698-13.75,9.663-16.114,12.767c-7.54,9.882-7.577,46.01-3.288,73.814
		c2.029,13.152,3.638,16.406,7.092,21.187c2.607,3.608,11.398,12.102,16.898,15.362c4.168,2.467,7.956,3.364,11.355,3.364
		c4.2,0,7.805-1.369,10.801-2.833c1.924-0.938,4.539-2.856,6.085-4.465c3.302-3.441,10.365-13.454,11.996-17.004
		c0.358-0.781,0.861-1.767,1.487-3c1.741-3.421,4.372-8.597,7.538-16.294c1.105-2.686,2.173-5.053,2.607-6.014l0.241-0.543
		C87.405,198.471,87.132,195.904,84.162,194.038z"/>
	<path fill="#FFE4B8" d="M126.534,159.053c-1.317-1.709-3.339-1.847-8.745-2.213c-11.538-0.787-14.276-0.964-15.39,2.348
		c-0.43,1.275-0.122,2.882,0.787,4.099c0.946,1.263,2.358,1.937,3.996,1.889c1.242-0.045,2.051,0.029,2.552,0.119l-0.024,6.913
		c-0.247,13.743-1.709,26.462-2.919,29.722c-3.971,10.752-6.195,13.053-9.141,13.714c-1.266,0.283-1.396,0.212-2.38-0.344
		c-1.78-0.999-2.101-7.292-2.117-24.518l-0.035-16.137l0.087-0.89c0.336-0.103,0.705-0.196,0.981-0.267
		c0.773-0.199,1.494-0.402,2.07-0.649c1.937-0.845,3.169-2.403,3.294-4.167c0.109-1.532-0.638-2.946-1.993-3.781
		c-0.769-0.475-1.563-0.964-6.579,0.109c-1.984,0.43-7.387,1.346-11.803,1.998c-8.422,1.246-13.504,1.998-13.504,6.216
		c0,1.144,0.469,2.185,1.322,2.93c1.531,1.333,3.635,1.32,7.471,0.794c0.281-0.035,0.522-0.064,0.726-0.087
		c0.008,0.048,0.014,0.1,0.023,0.151l0.222,1.449c0.233,1.42,1.351,16.246,1.696,21.122l0.345,5.201
		c0.548,8.462,0.678,10.473,3.248,12.934c3.433,3.267,8.586,5.278,12.302,6.39c1.434,0.43,3.082,0.623,4.838,0.623
		c7.26,0,16.373-3.309,19.86-7.003c1.266-1.333,2.575-2.711,1.422-41.387l-0.35-10.354c0.461-0.013,0.935,0.006,1.275,0.01
		c1.092,0.026,2.119,0.045,3.017-0.138c2.218-0.437,3.765-1.873,4.136-3.836C127.43,160.948,127.185,159.898,126.534,159.053z"/>
	<path fill="#FFE4B8" d="M324.147,197.581c-0.953-7.064-4.925-9.58-7.077-10.942c-0.4-0.251-5.771-3.637-10.765-6.801
		c2.928,1.285,6.343,2.217,8.028,1.571c1.203-0.459,2.849-1.086,5.566-12.673c0.35-1.523,1.171-5.085-2.313-6.451
		c-1.171-0.44-2.454-0.308-3.542,0.296c-0.019-0.019-0.039-0.035-0.058-0.051c-2.682-2.39-5.966-4.144-13.261-4.954
		c-1.812-0.206-6.46-0.482-10.43,1.324c-7.384,3.383-9.395,6.926-8.272,14.572c0.649,4.44,2.263,7.758,4.936,10.145
		c1.752,1.565,3.192,2.409,4.645,2.939c-0.088,0.006-0.178,0.016-0.268,0.026c-2.291,0.231-5.763,1.378-9.302,5.542
		c-1.01,1.192-2.408,3.637-3.02,6.599c-0.896,4.35-0.867,7.042,0.096,9.284c0.103,0.244,0.228,0.665,0.395,1.192
		c0.509,1.606,1.279,4.035,2.429,6.258l1.007,1.972c2.909,5.76,3.943,7.315,13.102,12.375c1.786,0.986,3.482,1.365,5.087,1.365
		c3.033,0,5.731-1.356,8.059-2.528c4.944-2.474,8.178-6.03,11.156-12.275C324.449,207.774,325.088,204.613,324.147,197.581z
		 M289.611,201.748c0.355-1.163,1.76-2.763,2.715-3.421c0.066,0.071,0.138,0.148,0.218,0.234c-0.445,0.318-0.856,0.688-1.189,1.124
		c-1.809,2.364-1.616,5.465,0.458,7.373c1.961,1.809,4.841,1.796,6.843-0.019c0.854-0.774,2.146-2.4,2.98-3.601l1.463-2.111
		c0.649-0.938,0.768-2.146,0.313-3.19l-1.214-2.785c-0.663-1.529-1.532-3.55-1.926-4.482c-0.529-1.253-1.385-2.262-2.498-2.994
		c5.055,0.993,7.983,2.538,8.973,3.595c2.106,2.252,2.878,4.212,1.891,9.856c-0.57,3.232-1.484,4.867-2.774,6.457
		c-1.465,1.805-1.902,2.001-3.977,2.727c-3.254,1.147-7.236,1.025-8.778,0.202C289.644,208.867,288.84,204.247,289.611,201.748z
		 M301.235,176.616c-1.569-0.999-2.78-1.78-3.311-2.13c-3.041-2.008-3.439-2.467-3.58-2.978c-0.259-0.935-0.215-1.279-0.23-1.279
		c0.027-0.035,0.19-0.215,0.715-0.508c3.813-2.123,5.951-2.438,6.819-2.442c0.095,0.01,0.207,0.029,0.333,0.058
		c-0.374,0.292-0.718,0.643-1.02,1.054C299.145,170.882,299.261,174.084,301.235,176.616z"/>
	<path fill="#FFE4B8" d="M288.2,160.238c-0.257-0.79-0.908-1.841-2.557-2.364c-1.296-0.414-18.763-2.355-21.502-0.318
		c-0.935,0.716-1.495,2.178-1.343,3.344c0.233,1.783,1.626,3.37,3.733,4.247c1.238,0.511,2.573,0.623,3.751,0.723
		c0.104,0.006,0.207,0.016,0.308,0.022c0.085,1.346-0.111,4.327-0.361,8.134l-0.066,0.999c-0.109,1.68-0.218,3.656-0.332,5.702
		c-0.223,4.029-0.453,8.192-0.728,10.942c-0.607,6.11-1.335,9.088-3.391,13.846c0,0,0,0-0.002,0
		c-2.989,6.936-4.371,8.176-6.605,9.191c-3.277,1.487-3.868,0.382-4.56-0.903c-0.511-0.941-0.607-8.176-0.723-19.898l-0.196-19.603
		c0.043-0.244,0.527-0.604,1.484-0.819c2.445-0.549,4.326-2.13,4.907-4.128c0.442-1.52,0.069-3.062-0.983-4.118
		c-1.646-1.667-4.064-1.301-7.842-0.485c-1.976,0.421-6.194,1.182-8.589,1.613l-5.28,0.935c-6.759,1.166-8.574,1.478-9.748,3.065
		c-0.924,1.263-1.044,2.866-0.316,4.186c1.052,1.908,3.412,2.689,7.116,2.454l1.614-0.068l0.031,0.27
		c0.259,2.316,0.61,7.819,0.983,13.647c0.504,7.893,1.026,16.053,1.47,18.71l0.106,0.643c0.922,5.574,1.581,8.173,7.533,11.305
		c4.025,2.117,7.411,3.097,11.289,3.097c1.924,0,3.969-0.241,6.272-0.707c7.283-1.475,12.29-3.627,14.872-6.387
		c2.218-2.361,2.218-3.861,2.218-10.174c0-3.582-0.347-14.084-0.773-23.407c-0.339-7.373-0.652-15.26-0.185-17.264
		c0.014,0,0.034,0.003,0.051,0c0.965-0.003,2.424-0.006,4.364-0.572c1.598-0.472,2.97-1.555,3.67-2.898
		C288.403,162.224,288.509,161.164,288.2,160.238z"/>
	<path fill="#FFE4B8" d="M208.937,219.992c-0.532-1.616-1.727-2.104-3.897-2.994c-0.834-0.341-1.825-0.745-2.705-1.182
		c-0.948-0.466-2.596-1.597-3.797-2.422c-2.53-1.735-3.381-2.323-4.904-2.072c-1.818,0.305-3.082,1.876-3.076,3.823
		c0.011,3.001,3.28,8.15,7.591,8.844c2.05,0.337,4.191,0.411,5.722,0.411c1.229,0,2.062-0.048,2.138-0.051
		c1.076-0.067,2.051-0.655,2.61-1.577C209.119,221.948,209.238,220.904,208.937,219.992z"/>
	<path fill="#FFE4B8" d="M237.463,192.91c-0.421-7.37-2.485-14.55-5.387-18.745c-2.544-3.675-7.259-8.369-10.511-10.463
		c-8.089-5.217-13.107-3.209-24.076,5.455c-6.379,5.015-7.821,7.909-9.083,18.199c-2.769,22.44-1.283,26.664,11.356,32.299
		c3.466,1.545,5.776,2.538,8.622,3.283c2.364,0.623,4.032,0.932,5.471,0.932c2.098,0,3.707-0.659,6.276-1.972
		c5.058-2.58,12.103-9.156,14.321-12.731C237.216,204.726,237.919,200.925,237.463,192.91z M200.129,179.276
		c1.968-3.097,7.283-7.196,10.939-8.436c2.072-0.704,3.103-0.286,3.693,0.093c1.34,0.851,3.752,3.794,4.861,13.926
		c0.413,3.727,1.033,8.725,1.426,11.363c0.517,3.498,0.596,4.038-0.498,8.025c-2.891,10.576-2.885,10.579-8.868,9.416
		c0,0-1.691-0.389-2.816-0.675c-2.679-3.958-5.249-11.096-8.463-23.432C198.741,183.166,199.023,181.011,200.129,179.276z"/>
	<path fill="#FFE4B8" d="M223.233,174.753c-0.52-4.012-1.836-5.297-4.117-7.222l-0.331-0.279c-1.092-0.922-3.124-2.644-5.375-1.25
		c-2.205,1.369-1.626,3.727-1.274,5.159c0.027,0.109,2.83,10.993,7.384,10.993c1.078,0,2.104-0.466,2.816-1.279
		C223.572,179.466,223.596,177.487,223.233,174.753z"/>
</g>
<g>
	<path fill="#FFE4B8" d="M135.129,139.219c0.026-0.177,0.058-0.369,0.087-0.575c0.511-3.604,0.936-6.438,1.524-10.25l0.182-1.062
		c0.434-2.425,1.089-6.091-2.35-8.973c-2.115-1.752-4.599-1.915-9.024-1.605c-1.14,0.077-2.44,0.268-3.664,0.596
		c-0.095-1.314-0.565-2.832-2.122-3.686c-1.155-0.634-3.037-0.953-5.481,1.108c-0.832,0.702-1.682,1.324-3.258,2.485l-2.417,1.788
		c-2.861-3.927-5.473-6.505-8.7-6.505c-1.985,0-3.198,0.501-4.817,1.992c-0.739,0.684-1.494,1.73-2.443,3.376
		c-1.311,2.252-1.328,6.546,0.398,8.733c-0.667,0.896-1.195,2.143-1.637,3.852c-2.05,7.893,0.681,11.183,2.493,12.442
		c1.712,1.185,4.221,1.237,6.412,0.649c0.19,1.176,0.599,2.252,1.418,3.296c1.214,1.539,2.554,2.069,3.847,2.069
		c1.958,0,3.81-1.218,4.96-1.992c2.466-1.455,3.757-2.201,8.523-3.36c0.893-0.215,1.728-0.36,2.438-0.466
		c0.098,0.932,0.586,1.857,1.301,2.429c2.21,1.754,11.064,1.494,12.537,0.932c1.542-0.575,2.538-1.976,2.535-3.566
		C137.871,141.651,137.145,140.022,135.129,139.219z M123.066,134.548c-0.164-2.14-0.209-5.747,0.18-7.8
		c0.193-1.02,0.337-1.508,0.427-1.741c0.559-0.14,1.05-0.239,1.45-0.302c0.198,1.699-0.003,6.628-0.284,10.566
		C124.308,134.924,123.705,134.676,123.066,134.548z M111.842,128.656c-0.283-0.328-0.606-0.615-0.943-0.855
		c-0.016-0.214-0.032-0.45-0.045-0.679c0.241-0.145,0.469-0.297,0.683-0.45C111.642,127.332,111.75,128.026,111.842,128.656z
		 M111.617,134.541c0.297-0.244,0.62-0.591,0.875-1.067c0.143,1.14,0.268,2.246,0.331,3.042c-0.406,0.225-1.007,0.533-1.895,0.964
		c-0.005-1.112-0.063-1.873-0.116-2.435C111.085,134.92,111.355,134.757,111.617,134.541z"/>
	<path fill="#FFE4B8" d="M157.134,138.901c-0.254-0.045-0.604-0.087-0.92-0.196c-0.241-0.077-0.31-0.138-0.366-0.395
		c-0.19-1.15,0.021-7.392,0.634-14.852c0.067-0.827,0.329-3.723,0.622-6.949c0.374-4.135,0.795-8.807,0.925-10.409
		c0.238-2.93,0.818-5.036,1.014-5.583c0.149-0.406,0.406-0.866,0.479-0.975c0.792-1.144,1.752-2.899,0.957-4.97
		c-0.385-0.978-1.137-1.725-2.115-2.101c-1.733-0.665-3.482,0.079-5.151,0.908l-3.023,1.52c-0.636,0.318-1.878,0.848-2.671,1.179
		c-3.905,1.634-3.677,4.29-3.515,5.066c0.268,1.277,1.274,2.615,3.409,2.968c0.043,1.879-0.252,5.489-0.41,7.419
		c-0.141,1.69-0.27,3.126-0.381,4.271c-4.655-0.308-9.573,2.676-11.886,6.173c-1.638,2.482-2.543,8.669-2.78,10.507
		c-0.321,2.464-0.467,4.546,0.779,7.039c2,4.016,5.717,6.12,8.356,6.12c1.327,0,3.169-0.588,4.872-1.34
		c-0.511,1.789-0.752,2.94,0.223,4.234c0.622,0.826,1.608,1.32,2.642,1.32c1.216,0,9.893-3.73,11.176-5.892
		c0.548-0.935,0.601-2.095,0.141-3.078C159.389,139.277,157.866,139.023,157.134,138.901z M146.59,129.162
		c-0.117,2-0.182,3.102-0.516,4.339c-0.039,0.145-0.074,0.279-0.108,0.408c-0.753-0.186-1.255-0.556-2.419-4.048
		c-0.665-1.99-0.896-3.127-0.912-3.845c0.084,0.267,0.194,0.519,0.333,0.742c0.675,1.087,1.72,1.775,2.946,1.937
		c0.239,0.032,0.48,0.048,0.702,0.032L146.59,129.162z"/>
	<path fill="#FFE4B8" d="M209.975,135.659c0.059-0.244,0.135-0.54,0.233-0.887c2.22-8.104,2.776-12.765,1.862-15.582
		c-0.962-2.983-6.407-6.939-9.552-6.939c-1.54,0-2.848,0.483-4.322,1.166c0.257-3.996,0.723-9.474,1.139-12.217
		c0.313-1.979,0.573-4.859,0.596-6.549c0.039-2.523,0.079-5.132-3.331-6.333c-2.36-0.842-4.165-0.072-5.821,0.8
		c-1.155,0.612-5.98,3.669-6.814,4.289c-1.227,0.92-2.911,2.181-3.148,4.192c-0.127,1.073,0.191,2.133,0.901,2.989
		c0.684,0.821,1.632,1.322,2.671,1.41c1.006,0.076,1.831-0.209,2.515-0.607c-0.053,1.807-0.13,3.796-0.218,6.096
		c-0.149,3.878-0.333,8.629-0.493,14.852c-0.165,6.379-0.234,10.754-0.281,13.78c-0.04,2.503-0.069,4.343-0.127,5.278
		c-0.132,0.071-0.259,0.125-0.341,0.151c-3.857,0.922-5.612,2.628-5.217,5.079c0.458,2.837,3.29,3.302,5.328,3.302
		c0.662,0,1.24-0.048,1.626-0.08c1.643-0.141,4.559-0.382,6.475-0.527c0.056-0.006,0.112-0.013,0.167-0.019
		c2.379-0.305,5.972-0.768,6.531-3.81c0.117-0.633,0.292-2.795-2.318-4.192l-0.443-0.222c-0.138-0.064-0.402-0.193-0.604-0.308
		c-0.268-1.336-0.631-4.931-0.17-9.779c0.098-1.034,0.175-2.035,0.249-2.98c0.116-1.483,0.214-2.813,0.378-3.873
		c0.076-0.493,0.138-0.794,0.183-0.977c0.112-0.031,0.271-0.067,0.493-0.108c0.326-0.061,0.773-0.143,0.728-0.196
		c0.002,0.002,0.284,0.19,0.789,1.001c1.012,1.635,1.682,7.154,1.555,10.187c-1.126,0.003-2.183,0.251-3.057,0.964
		c-0.859,0.704-1.352,1.744-1.352,2.853c0,1.95,1.51,3.704,3.566,4.16c6.195,1.433,8.224,1.709,8.436,1.735
		c1.716,0.228,3.341-0.957,3.654-2.679C212.789,139.126,212.023,136.861,209.975,135.659z"/>
	<path fill="#FFE4B8" d="M184.559,121.945c0.024-0.003,0.048-0.005,0.072-0.008l1.176-0.133c4.417-0.586,4.894-3.614,4.894-4.89
		c0-0.477,0-1.931-1.227-3.06c-0.869-0.8-1.847-1.026-2.931-1.044c0.318-1.148,0.689-2.499,1.095-4.053l0.471-1.738
		c0.511-1.836,0.993-3.571-0.514-5.076c-2.511-2.488-11.645,0.374-11.758,0.419c-2.551,1.07-2.438,3.728-2.355,5.67
		c0.029,0.704,0.068,1.565,0.058,2.593l-0.006,1.738c0,0.504-0.002,1.015-0.006,1.471c-2.056,0.492-3.622,2.117-3.898,4.041
		c-0.234,1.618,0.445,2.682,0.872,3.174c0.723,0.832,1.6,1.16,2.474,1.288c-0.067,0.914-0.157,2.221-0.267,3.829l-0.443,6.42
		c-0.72,10.219-0.819,16.509,5.906,17.014c0.18,0.016,0.355,0.022,0.527,0.022c3.736,0,5.868-3.174,7.162-5.108l0.427-0.626
		c0.943-1.349,4.102-7.594,1.311-11.617c-1.402-2.021-3.153-2.535-4.371-2.642c0.156-0.882,0.297-1.706,0.406-2.393
		C183.955,125.231,184.286,123.174,184.559,121.945z"/>
	<path fill="#FFE4B8" d="M237.025,120.764c-1.817-0.978-3.381-1.115-4.658-0.406c-0.413-2.911-1.375-6.11-2.743-7.962
		c-1.744-2.364-6.417-4.599-9.615-4.599c-3.137,0-5.688,1.96-7.774,3.882c-3.645,3.368-5.508,9.193-5.114,15.976
		c0.353,6.166,1.844,8.531,7.259,11.512c4.335,2.38,5.514,2.403,5.942,2.416c0.21,0.019,0.424,0.029,0.644,0.029
		c0.957,0,2.062-0.215,3.783-0.961c2.27-0.973,9.246-6.917,10.823-8.349c4.708-4.273,4.708-6.009,4.708-6.75
		C240.277,123.23,237.837,121.192,237.025,120.764z M219.208,117.102c0.14-0.31,0.291-0.472,0.477-0.651
		c0.069-0.066,0.128-0.119,0.18-0.162c0.12,0.08,0.284,0.201,0.498,0.379c0.064,0.055,0.124,0.104,0.18,0.151
		c0.014,0.199,0.024,0.469,0.029,0.768C220.159,117.335,219.696,117.168,219.208,117.102z M220.97,127.985l0.962,0.175
		c1.245,0.226,2.689,0.355,3.847,0.453c0.528,0.045,0.98,0.08,1.271,0.122c-0.752,0.488-1.654,1.017-2.734,1.582
		c-0.654,0.344-1.243,0.62-1.696,0.816c-0.774-0.636-1.974-1.834-2.858-3.121c-0.064-0.092-0.128-0.19-0.193-0.292
		C220.037,127.818,220.509,127.903,220.97,127.985z"/>
</g>
<g>
	<path fill="#943B2F" d="M552.113,189.95c-0.178-0.451,0.095-2.329,0.599-4.184c2.165-7.938,6.553-24.689,6.553-24.995
		c0.003-0.188,0.247-0.339,0.536-0.339c0.289,0,0.711,1.74,0.937,3.869c0.424,3.997,1.576,10.964,3.151,19.037
		c1.549,7.964,1.928,7.425-5.26,7.425C554.074,190.763,552.334,190.542,552.113,189.95 M549.159,218.718
		c4.527,0.799,4.783-1.589,1.151-2.671c-4.875-1.464-4.832-3.01-2.783-11.33c0.99-4.053,2.632-8.856,2.783-9.257
		c0.355-0.964,12.846-0.648,14.284,0.122c1.03,0.556,1.671,2.115,2.628,7.977c1.49,9.093,2.941,16.359,3.316,21.448
		c0.237,3.323,0.385,4.319-4.165,5.467c-5.652,1.431-3.51,2.971,3.329,2.128c3.724-0.457,8.093-1.181,14.014-2.122
		c7.204-1.135,8.047-1.197,8.047-2.293c0-1.026-0.497-1.25-3.082-1.415c-3.829-0.243-4.349-0.678-5.583-4.652
		c-0.915-2.931-1.694-6.171-5.158-21.458c-0.655-2.895-2.22-9.438-3.474-14.544c-1.257-5.105-2.671-10.954-3.151-13.001
		c-3.53-15.136-6.569-27.383-7.063-27.751c-1.48-1.115-4.079,1.273-4.987,3.24c-0.786,1.721-10.155,37.094-10.892,38.864
		c-1.02,2.428-1.158,3.388-3.27,3.632c-2.267,0.266-2.533,3.543-0.316,3.543c0.878,0,1.592,0.27,1.592,0.595
		c0,1.28-5.27,16.3-6.013,17.1c-0.392,0.421-0.73,0.549-0.997,0.592c-1.888,0.329-4.52,0.98-5.083,1.069
		c-1.411,0.227-2.207,1.336-0.247,2.286C535.3,216.896,545.708,218.1,549.159,218.718 M538.932,211.807
		c0.237-4.602-0.125-8.231-1.905-8.046c-1.109,0.115-1.365,2.941-1.365,5.013c0,3.273-0.605,8.968-1.155,10.158
		c-1.424,3.105-3.78,3.444-10.836,2.178c-7.352-1.322-10.458-2.517-11.468-4.408c-0.819-1.533-0.612-13.886,0.592-34.294
		c0.358-6.129,0.977-16.843,1.378-23.797c0.678-11.892,0.809-12.744,2.145-14.083c0.783-0.783,1.306-1.118,2.875-1.424
		c1.615-0.313,2.937-1.049,2.937-2.382c0-0.743-0.97-0.487-5.461-0.059c-5.369,0.513-11.533,1.378-14.826,1.793
		c-5.017,0.622-7.28,1.161-7.464,2.125c-0.293,1.52,0.628,1.842,3.513,1.852c1.832,0.01,2.734,0.688,3.178,1.776
		c0.908,2.168,1.882,22.741,1.862,39.15c-0.023,13.511-0.865,24.432-2.138,27.617c-0.596,1.51-4.102,3.158-6.198,2.921l-1.859-0.214
		l-0.181-6.458c-0.181-6.517-0.72-8.293-2.339-7.671c-0.671,0.257-0.898,1.655-0.941,5.684c-0.072,7.737-0.967,10.668-3.661,11.971
		c-2.043,0.974-3.675,1.102-9.524,0.04c-3.401-0.625-6.132-1.77-7.471-2.405c-4.036-1.921-3.941,0.181-1.892-41.703
		c1.339-27.442,1.244-31.294,2.911-32.643c0.73-0.595,1.273-1.023,2.994-1.395c1.938-0.418,3.079-0.72,3.079-2.01
		c0-1.204-0.263-1.247-4.869-0.892c-2.688,0.207-15.244,2.382-17.508,2.599c-6.898,0.658-9.033,3.046-2.869,3.747
		c4.717,0.526,5.112,0.25,6.474,36.68c0.665,17.784-1.168,31.63-4.273,33.808c-0.845,0.595-2.72,0.951-2.72,1.434
		c0,0.118-0.23-1.026-0.23-2.072c-0.007-1.487-0.142-1.563-2.01-1.118c-2.148,0.51-6.48,0.421-7.405-0.155
		c-1.592-0.984-1.813-4.783-1.707-29.626c0.069-14.293,0.21-27.939,0.345-30.324c0.118-2.382,0.227-6.033,0.234-8.112l0.023-3.786
		c0.053-1.941,0.421-2.066,1.267-2.424c1.493-0.638,5.178-0.503,6.622-0.862c1.599-0.395,2.632-0.997,2.632-1.549
		c-0.007-1.079-1.868-1.22-13.619-1.22c-9.149,0-11.142,0.247-11.139-0.434c0.01-1.497,12.034-29.801,12.484-30.557
		c0.938-1.599,0.908-2.013,2.049-2.299c1.461-0.365,3.918,0.776,4.971,1.092c2.036,0.609,3.99-0.148,3.99-1.332
		c0-1.438-2.895-2.533-18.853-7.119c-9.188-2.645-17.33-4.809-18.08-4.816c-1.625-0.023-3.069,2.125-1.921,2.836
		c0.684,0.421,2.263,0.786,8.708,2.316c1.428,0.342,4.224,1.622,4.698,1.832c3.783,1.681,1.76,6.79,1.194,9.093
		c-0.27,1.102-4.402,15.8-10.487,33.985c-10.221,30.544-24.893,67.987-25.607,69.905c-2.322,6.201-2.586,4.846-3.089,4.342
		c-0.372-0.372-3.573-9.547-4.951-15.396c-1.888-7.981-8.777-35.502-9.543-38.374c-6.086-22.777-3.902-23.748-3.902-23.748
		s3-2.188,6.537-3.27c2.98-0.911,4.388-1.349,3.543-3.566c-0.721-1.905-1.378-1.964-5.346-0.447
		c-1.668,0.628-50.559,16.761-50.986,17.09c-1.128,0.882,0.678,3.796,2.227,3.846c1.046,0.026,3.194-0.355,5.872-1.26
		c5.78-1.951,10.517-2.632,12.481-1.013c0.727,0.595,2.418,3.612,3.273,6.132c0.852,2.533,26.745,82.261,28.817,86.955
		c2.78,6.31,3.744,7.77,6.152,4.076c1.224-2,4.221-8.405,7.158-15.56c2.944-7.148,35.334-87.873,35.87-88.949
		c0.747-1.49,1.382-1.947,2.707-1.947c0.957,0,2.046,0.365,2.418,0.819c1.197,1.444,4.115,35.551,3.188,54.651
		c-0.355,7.336-0.164,18.35-1.411,18.231c-2.138-0.197-3.938-1.368-5.408-2.257c-1.247-0.753-3.668-0.266-4.395,2.03l-0.365,1.697
		l5.326,0.97c1.638,0.243,6.145,1.059,10.415,1.576c6.05,0.72,11.464,2.119,30.498,4.609c5.273,0.684,11.672,1.569,14.231,1.878
		c4.421,0.53,12.655,1.135,12.655,1.135l0.306-2.747c0-2.247-0.128-2.441,1.273-2.388c1.76,0.069,15.063,1.707,24.761,3.056
		c10.366,1.447,17.991,2.201,18.935,1.842c0.618-0.24,1.125-1.27,1.444-3.553C539.168,219.554,538.872,212.978,538.932,211.807"/>
	<path fill="#943B2F" d="M663.862,155.577c5.655,0.316,18.096,1.053,19.771,1.964c0.572,0.309,1.592,0.638,2.214,1.813
		c1.115,2.095,1.674,3.763,0.135,6.073c-1.079,1.615-1.346,2.994,1.484,2.369c1.602-0.349,1.845-0.681,1.842-2.474
		c0-3.02-1.257-11.678-1.77-12.214c-0.237-0.25-4.046-0.724-8.458-1.056c-4.418-0.332-11.231-0.911-15.146-1.29
		c-25.459-2.467-25.459-2.688-24.488,0.23c0.405,1.217,2.046,1.066,3.507,1.487c1.75,0.497,2.905,1.665,3.243,2.559
		c0.727,1.97,2.165,16.218,2.859,26.995c1.961,30.804,2.263,34.781,1.586,35.591c-0.372,0.457-2.076,1.592-3.773,1.753
		c-2.836,0.273-4.596,1.125-4.589,2.655c-0.007,0.638,0.062,1.184,0.148,1.22c0.082,0.023,3.918,0.286,8.517,0.576
		c12.323,0.78,27.958,1.868,34.653,2.415c3.234,0.257,6.494,0.513,7.237,0.569c0.747,0.053,1.53-0.181,1.74-0.536
		c0.424-0.681,0.375-5.161-1.444-15.257c-0.645-3.573-1.819-9.241-2.247-10.728c-1.26-4.382-1.171-4.875-3.158-3.803
		c-0.937,0.5-0.665,1.447,0.01,3.609c0.665,2.119,0.813,7.145-1.559,12.264c-1.839,3.971-4.816,7.491-10.635,8.435
		c-6.477,1.049-15.932-0.237-16.807-3.438c-0.701-2.602-0.711-39.058,0.023-39.792c0.605-0.615,14.07,0.697,16.435,1.48
		c2.023,0.678,3.082,4.984,3.102,6.747c0.03,3.158,2.596,5.079,4.046,4.181c0.263-0.158,0.109-3.073-0.536-6.744
		c-0.655-3.668-1.352-9.171-2.296-12.139c-1.635-5.142-1.618-5.395-3.507-5.125c-0.826,0.122-0.579,2.244-0.54,4.99
		c0.056,4.204,0.283,3.8-9.28,2.415l-7.816-1.135l0.036-5.309c0.02-2.925,0.392-6.412,0.47-7.793
		C659.145,154.597,661.431,155.442,663.862,155.577"/>
	<path fill="#943B2F" d="M621.551,216.642c7.208-2.73,9.639-4,10.606-5.536c1.638-2.569,3.461-10.333,2.938-12.458
		c-0.757-3.033-2.72-9.767-3.385-12.807c-0.329-1.517-1.411-5.635-1.711-7.537c-0.26-1.665,1.869-1.99,8.75-5.283
		c5.244-2.51,4.089-4.504,1.27-3.941c-1.378,0.28-5.619,2.138-8.714,3.119c-8.968,2.849-20.899,4.615-23.245,4.908
		c-2.257,0.283-3.076,0.556-1.697,2.257c1.181,1.454,0.724,1.862,5.777,0.98c10.273-1.793,9.096-2.507,11.093,11.372
		c0.875,6.089,1.428,12.991,1.296,15.244c-0.132,2.306-0.668,3.198-3.24,5.073c-2.033,1.47-3.494,1.849-6.76,2.105
		c-5.069,0.418-11.474-8.412-12.655-10.264c-2.687-4.184-3.609-15.001-2.313-31.719c1.303-16.859,2.336-22.504,6.625-25.998
		c8.349-6.79,8.556-6.655,15.247-0.171c7.296,7.076,9.52,10.665,7.629,15.188c-1.198,2.852-1.882,4.244,0.539,4.244
		c1.753,0,2.151-0.493,3.661-5.346c0.832-2.674,1.691-6.059,2.53-9.579c1.513-6.346,1.905-7.773-0.418-7.323
		c-0.941,0.181-1.046,1.714-2.112,4.928c-0.737,2.214-1.29,4.023-1.629,4.023c-0.336,0-3.855-5.165-6.823-8.53
		c-5.329-6.05-7.056-7.431-10.27-7.303c-3.25,0.125-12.277,4.925-17.859,9.573c-4.299,3.589-5.026,6.26-7.691,17.448
		c-0.694,2.882-2.75,13.988-4.181,21.995c-2.244,12.501-3.23,17.994,1.638,20.593c1.766,0.941,11.734,6.352,15.103,8.178
		C611.481,219.442,613.482,219.705,621.551,216.642"/>
</g>
<g>
	<path fill="#632B26" d="M135.346,178.14v-13.313l3.138-0.615c1.724-0.339,3.471-0.487,3.882-0.329
		c0.99,0.391,2.99,3.454,5.227,8.014c2.082,4.244,3.319,9.04,2.299,12.823c-0.546,2-1.049,3.036-3.668,4.504
		c-3.145,1.76-4.503,1.987-7.829,2.234h-3.049V178.14z M166.117,237.811c4.464-2.497,9.178-5.645,11.31-7.014
		c3.451-2.217,10.889-8.695,10.889-8.695s-0.316-1.362-1.674-0.944c-1.839,0.566-10.682,8.484-12.984,8.484
		c-2.138,0-4.184-1.572-7.277-4.744c-0.158-0.161-3.339-4.444-4.487-6.28c-2.487-3.971-9.491-18.195-11.379-22.804
		c-0.638-1.566-1.263-2.648,1.428-3.342c3.049-0.776,6.168-3.355,7.583-5.971c1.204-2.247,1.487-10.017,0.266-12.79
		c-0.921-2.092-5.428-8.484-7.806-10.668c-1.171-1.072-2.576-2.24-5.55-2.408c-2.017-0.118-4.704,0.178-6.283,0.523
		c-1.579,0.349-6.701,1.257-12.218,2.444c-4.777,1.026-8.839,1.964-9.142,2.267c-0.306,0.313-0.563,0.763-0.368,1.266
		c0.313,0.816,1.099,1.142,4.556,0.411c1.967-0.421,4.405-0.947,5.237-0.941c2.484,0.016,1.651,1.964,2.02,7.454
		c0.484,7.194-0.536,46.812-1.22,47.489c-0.313,0.313-1.78,0.684-3.263,0.826c-2.378,0.227-4.388,1.316-3.701,2
		c0.132,0.135,3.359,0.618,7.168,1.082c3.809,0.457,8.977,1.165,11.481,1.569c4.31,0.691,5.865,0.493,5.155-0.665
		c-0.178-0.283-1.349-0.78-2.605-1.102c-1.257-0.326-3.04-1.059-3.961-1.625c-1.642-1.02-1.691-1.165-2.023-6.036
		c-0.181-2.75-0.572-6.803-0.888-11.626c-0.247-3.829-0.727-8.139-0.628-9.316l-0.102-2.257l5.053-0.569
		c2.5-0.309,4.833-0.5,5.158-0.362c1.829,0.776,14.57,37.058,14.813,39.732c0.211,2.306,0.033,4.323-1.151,5.507
		c-1.763,1.763-2.579,2.704-2.352,3.296c0.188,0.474,0.615,0.908,0.954,0.865C159.1,242.733,162.554,239.798,166.117,237.811
		 M179.779,191.737c0.618-15.991,1.158-31.291,1.418-31.729c1.043-1.783,4.556-1.388,7.221-1.885
		c1.457-0.273,1.678-1.885,1.678-1.885s-2.392-0.395-13.287-0.526c-9.75-0.112-13.415,0.319-13.415,0.319s-0.47,2.23,2.095,2.24
		c1.234,0.007,2.846,0.316,3.582,0.691c1.316,0.661,1.204,0.905,2.49,10.576c0.737,5.556,1.165,26.794,1.362,35.499
		c0.322,14.448,0.408,15.395-0.424,16.228c-1.444,1.451-4.944-0.362-5.964,1.885c-0.523,1.151-0.625,2.931,0.944,2.727
		c1.572-0.211,7.467-0.47,13.231-0.451c7.602,0.03,9.073,0.562,9.073-1.648c0-0.951-0.595-1.227-2.411-1.464
		c-3.908-0.517-4.879-0.266-6.359-1.681C180.104,219.764,179.519,198.441,179.779,191.737"/>
	<path fill="#632B26" d="M82.412,196.826c-1.536-0.97-2,0.385-2.378,2.625c-1.02,6.02-11.29,22.6-18.504,29.877
		c-2.619,2.638-6.138,5.464-8.336,6.698c-6.204,3.467-9.293,2.783-13.511-2.987c-2.362-3.24-7-10.487-9.231-16.063
		c-1.474-3.688-3.678-5.599-3.375-12.527c0.299-6.747,3.619-32.768,5.204-43.897c1.115-7.806,1.628-13.54,3.086-16.484
		c1.832-3.714,9.076-16.866,11.471-18.172c2.651-1.444,8.76,4.069,18.274,22.59c2.178,4.227,4.342,8.941,4.619,9.941
		c0.316,1.132,0.023,3.967-0.503,8.31c-1.694,14.024-1.691,13.78-0.115,13.553c1.184-0.164,1.447-0.618,1.776-3.112
		c0.415-3.135,1.388-9.524,2.306-15.169c0.845-5.188,1.523-9.461,2.178-13.711c0.319-2.089,0.99-6.027,1.49-8.754
		c0.5-2.73,0.914-5.961,0.921-7.185c0.01-2.158-0.046-2.217-1.885-2.043L74,130.5l-0.928,5.928
		c-1.322,8.461-4.306,13.083-5.119,10.941c-1.77-4.658-10.343-20.432-14.951-24.679c-2.99-2.76-4.408-3.533-9.658-1.974
		c-3.619,1.076-7.231,3.369-11.688,6.02c-6.329,3.763-13.32,9.494-15.178,11.932c-6.178,8.099-7.366,40.769-2.652,71.319
		c1.961,12.711,3.372,15.425,6.507,19.761c2.497,3.457,10.968,11.53,15.905,14.455c7.237,4.286,13.198,3.263,19.037,0.408
		c1.576-0.77,3.895-2.477,5.152-3.786c3.076-3.204,9.882-12.839,11.379-16.096c1.352-2.951,4.671-8.718,8.974-19.179
		c1.398-3.401,2.74-6.3,2.849-6.56C84.011,198.066,83.132,197.28,82.412,196.826"/>
	<path fill="#632B26" d="M80.415,199.349c0.885,12.701,0.635,14.116,2.579,15.978c2.602,2.477,6.79,4.369,10.977,5.622
		c6.171,1.849,17.813-1.73,21.366-5.494c1.043-1.099,1.25-14.507,0.52-39.009l-0.421-12.461c0.421-1.99,5.204-1,7.017-1.362
		c1.046-0.207,1.447-0.747,1.54-1.23c0.132-0.684-0.947-0.898-6.425-1.27c-9.451-0.638-11.803-0.618-12.05,0.118
		c-0.125,0.365,0.25,1.697,1.543,1.645c6.073-0.224,5.971,1.99,5.971,1.99l-0.03,8.392c-0.237,13.152-1.609,26.725-3.122,30.804
		c-3.806,10.3-6.484,14.659-11.51,15.784c-2.599,0.582-3.517-0.016-4.711-0.688c-3.253-1.826-3.776-5.599-3.796-27.383l-0.02-16.458
		l0.253-2.589c1.043-1.155,3.563-1.368,4.846-1.915c1.207-0.526,1.796-1.569,0.885-2.132c-0.243-0.151-2.109,0.089-4.148,0.526
		c-2.04,0.444-7.448,1.362-12.02,2.036c-7.915,1.171-10.695,1.938-10.695,2.961c0,0.852,1.322,0.974,5.066,0.464
		c4.497-0.602,3.954,0.043,4.652,4.23C78.974,179.65,80.257,197.125,80.415,199.349"/>
	<path fill="#632B26" d="M307.71,225.699c3.747-1.872,6.675-4.484,9.665-10.754c3.829-8.017,4.359-10.593,3.51-16.925
		c-0.727-5.402-3.388-7.217-5.556-8.589c-0.691-0.431-16.823-10.609-19.215-12.198c-3.405-2.247-4.471-3.142-4.941-4.849
		c-0.793-2.869-0.194-4.28,2.056-5.536c3.253-1.813,6.211-2.855,8.487-2.855c2.174,0,8.961,3.474,10.07,5.612
		c1.158,2.24,0.806,5.477-0.605,5.678c-1.484,0.214-5.602-2.832-5.602-4.142c0-1.497-1.112-1.961-1.957-0.809
		c-0.987,1.355-0.875,2.964,0.316,4.392c1.109,1.332,8.073,4.053,9.227,3.609c0.684-0.26,2.23-4.803,3.526-10.336
		c0.441-1.911,0.398-2.368-0.266-2.628c-0.451-0.171-1.026,0.082-1.303,0.579c-0.684,1.224-0.954,1.142-3.323-0.961
		c-2.191-1.947-4.892-3.415-11.441-4.138c-2.803-0.316-6.171-0.105-8.691,1.043c-5.994,2.747-7.316,4.773-6.385,11.106
		c0.625,4.293,2.171,6.648,3.869,8.165c2.934,2.619,4.372,2.609,8.415,3.329c6.178,1.095,9.991,3.026,11.586,4.734
		c3.096,3.309,3.803,6.53,2.727,12.675c-0.628,3.563-1.674,5.757-3.457,7.958c-1.928,2.378-2.944,2.885-5.444,3.763
		c-3.859,1.355-8.826,1.382-11.415,0c-4.908-2.615-6.333-8.833-5.099-12.833c0.72-2.359,3.536-5.418,5.428-5.892
		c1.299-0.322,1.757-0.069,3.553,1.974c1.132,1.293,2.069,2.563,2.082,2.836c0.013,0.266-2.793,0.98-3.556,1.984
		c-1.655,2.161,0.76,4.467,2.477,2.911c0.562-0.51,1.681-1.878,2.484-3.036l1.464-2.112l-1.214-2.79
		c-0.668-1.536-1.543-3.573-1.941-4.513c-0.888-2.105-3.467-2.503-5.573-2.293c-2.099,0.211-4.582,1.411-7.122,4.398
		c-0.664,0.783-1.809,2.727-2.306,5.132c-0.74,3.592-0.773,5.763-0.102,7.326c0.421,0.984,1.253,4.395,2.721,7.227
		c3.592,6.925,3.138,7.655,12.78,12.984C301.088,228.831,303.877,227.627,307.71,225.699"/>
	<path fill="#632B26" d="M268.734,206.82c-3.092,7.175-4.862,9.336-8.267,10.885c-4.135,1.875-6.941,1.138-8.813-2.329
		c-0.819-1.507-0.951-3.997-1.122-21.439l-0.191-19.728c0,0-0.138-2.997,4.05-3.938c2.181-0.49,2.931-2.092,2.303-2.721
		c-0.372-0.378-1.888-0.211-4.816,0.421c-2.48,0.526-8.448,1.586-10.056,1.882c-6.385,1.148-11.103,1.799-11.589,2.457
		c-0.658,0.895,0.809,1.625,4.01,1.405l4.681-0.191l0.368,3.316c0.618,5.523,1.694,27.781,2.428,32.179
		c0.905,5.421,0.967,6.967,5.925,9.576c5.28,2.776,9.135,3.339,15.376,2.079c6.474-1.309,11.04-3.184,13.129-5.415
		c1.257-1.339,1.326-1.73,1.326-7.921c0-3.586-0.349-14.047-0.77-23.254c-0.763-16.593-0.464-18.33,0.615-19.784
		c1.211-1.628,2.579-0.372,5.971-1.359c1.26-0.372,1.885-1.372,1.78-1.688c-0.326-1-18.011-1.766-18.929-1.082
		c-0.26,0.197,0.026,1.257,1.648,1.931c1.694,0.701,4.717,0.276,5.342,1.151c1.053,1.48,0.885,3.303,0.316,11.987
		c-0.322,4.944-0.645,12.494-1.069,16.751C271.77,198.128,271.04,201.481,268.734,206.82"/>
	<path fill="#632B26" d="M205.806,221.06c0.164-0.27-2.714-1.197-4.928-2.293c-2.217-1.095-6.277-4.27-6.698-4.201
		c-1.26,0.211,1.263,5.652,4.5,6.175C202.056,221.294,205.806,221.06,205.806,221.06"/>
	<path fill="#632B26" d="M206.852,215.823c-3.517-4.559-6.392-12.984-9.635-25.439c-1.625-6.247-1.842-9.77,0.135-12.876
		c2.365-3.721,8.277-8.296,12.655-9.787c7.138-2.428,11.389,3.099,12.885,16.774c0.408,3.684,1.02,8.629,1.372,10.984
		c0.572,3.878,0.766,4.872-0.54,9.635c-3.471,12.691-4.247,13.412-12.787,11.754C210.938,216.869,206.945,215.945,206.852,215.823
		 M218.633,218.968c4.454-2.273,11.04-8.346,13.024-11.54c2.369-3.806,2.934-7.053,2.52-14.333
		c-0.385-6.747-2.25-13.363-4.806-17.057c-2.309-3.336-6.688-7.701-9.589-9.57c-6.102-3.934-9.372-3.323-20.258,5.273
		c-5.612,4.415-6.675,6.411-7.852,16.017c-2.727,22.09-1.036,24.225,9.431,28.89c3.55,1.582,5.589,2.444,8.119,3.105
		C214.182,221.06,214.965,220.84,218.633,218.968"/>
	<path fill="#632B26" d="M219.972,175.183c-0.405-3.119-1.214-3.638-3.313-5.418c-1.872-1.586-1.76-1.161-1.326,0.609
		c0.72,2.928,3.352,8.487,4.188,8.487C220.215,178.861,220.281,177.522,219.972,175.183"/>
</g>
<g>
	<path fill="#632B26" d="M98.38,137.342c-0.53-0.592-0.589-1.247-0.326-3.645c0.266-2.392,0.826-5.01,1.253-4.984
		c0.046,0.007,1.322,0.464,2.234,0.773l1.546,0.776v2.918c0.102,2.622-0.118,3.053-0.924,3.905
		C101.074,138.25,99.301,138.365,98.38,137.342 M108.782,144.172c2.895-1.707,4.428-2.536,9.51-3.773
		c2.619-0.632,4.783-0.717,5.069-0.941c0.717-0.566-0.089-1.717-1.29-1.717c-0.497,0-1.543,0.082-1.888-0.517
		c-0.464-0.816-0.836-7.583-0.171-11.086c0.5-2.648,1.003-3.859,2.75-4.296c0.957-0.243,2.28-0.516,3.178-0.516
		c1.628,0,1.974,0.947,2.319,2.234c0.687,2.592-0.362,16.998-0.836,17.882c-0.207,0.388-1.033,0.434-1.655,0.507
		c-0.625,0.072-0.97,0.651-1,0.882c-0.118,0.832,8.366,0.984,9.418,0.579c0.474-0.178,0.687-0.776-0.339-1.158
		c-2.339-0.865-2.207-1.819-1.892-4.069c0.513-3.619,0.941-6.464,1.53-10.287c0.424-2.767,1.27-5.086-1.016-7
		c-1.033-0.855-2.332-1.161-6.701-0.855c-2.494,0.168-4.566,0.849-5.24,1.461c-1.461,1.313-2.306-0.187-2.007-2.474
		c0.319-2.398-0.188-3.362-2.119-1.737c-1.273,1.072-2.579,1.974-6.221,4.684c-1.447,1.076-2.194,1.862-1.503,2.553
		c0.141,0.145,0.793-0.395,1.625-1.053c0.826-0.658,2.148-1.201,2.773-1.359c1.132-0.273,1.066,0.28,1.434,2.388
		c0.207,1.201,0.507,3.072,0.688,4.388c0.513,3.691,1.168,8.484,0.885,9.214c-0.217,0.572-1.674,1.411-5.74,3.286
		c-2.559,1.181-2.688,1.059-2.707-3.829c-0.003-2.046-0.214-2.78-0.171-3.349c0.086-1.115-0.329-2.464,0.891-2.221
		c1.086,0.211,1.309,0.132,1.309-0.49c0-0.414-0.444-0.957-0.993-1.204c-0.908-0.414-1.003-0.74-1.151-3.895
		c-0.135-2.849-0.342-3.691-1.194-4.892c-2.451-3.441-4.523-5.681-6.421-5.681c-0.99,0-1.457,0.082-2.579,1.115
		c-0.701,0.648-1.549,2.122-1.836,2.619c-0.826,1.418-0.572,4.336,0.204,5.112c0.727,0.73,1.76,0.822,2.665-0.086
		c0.915-0.915,0.444-2.253-0.74-3.323c-1.382-1.257-0.737-3.063,1.089-3.063c0.977,0,2.151,1.118,3.464,3.306
		c0.638,1.063,0.868,2.148,0.872,4.046v2.592l-3.204-0.23c-3.934-0.283-4.365-0.007-5.247,3.398
		c-1.141,4.402-0.717,7.592,1.184,8.912c0.875,0.609,3.178,0.618,5.076-0.345c1.066-0.543,2.362-2.013,2.487-1.892
		c0.128,0.128,0.115,2.099,0.115,3.395c0,1.763,0.22,2.638,0.859,3.451C105.426,146.247,106.518,145.698,108.782,144.172"/>
	<path fill="#632B26" d="M145.468,137.168c-2.701-0.589-3.694-2.224-5.043-6.267c-1.329-3.987-1.48-5.938-0.194-7.967
		c1.168-1.849,2.944-2.546,5.191-2.365c1.559,0.125,1.605,0.181,1.727,1.836c0.109,1.451-0.01,1.743-0.763,1.941
		c-0.49,0.125-0.77,0.431-0.622,0.678c0.461,0.74,1.322,0.497,2.668-0.766c0.704-0.658,1.299-1.171,1.316-1.135
		c0.02,0.039,0.451,1.352,0.24,4.405c-0.22,3.303-0.204,4.865-0.737,6.836C148.481,137.204,148.307,137.54,145.468,137.168
		 M157.163,142.3c0.066-0.112-1.086-0.168-1.984-0.47c-1.29-0.428-2.234-1.372-2.556-2.859c-0.352-1.615,0.062-9.51,0.579-15.78
		c0.155-1.888,1.316-14.504,1.546-17.356c0.253-3.112,0.862-5.497,1.204-6.448c0.253-0.694,0.655-1.415,0.862-1.717
		c0.77-1.112,0.727-1.563,0.602-1.888c-0.201-0.51-1.036-0.303-2.714,0.533c-1.155,0.586-1.842,0.928-3.043,1.53
		c-0.684,0.342-2.02,0.915-2.872,1.27c-1.941,0.813-2.112,1.822-0.349,1.793c2.441-0.039,2.648,1.053,1.842,10.899
		c-0.349,4.204-0.707,7.724-0.803,7.819c-0.095,0.102-0.891-0.043-1.776-0.303c-3.375-1.017-8.102,1.266-10.221,4.467
		c-0.799,1.211-1.737,5.06-2.263,9.116c-0.306,2.355-0.319,3.586,0.461,5.148c1.441,2.895,4.076,4.296,5.411,4.296
		c1.309,0,4.563-1.352,6.208-2.48c1.572-1.079,2.48-0.569,2.813,0.76c0.26,1.033-1.52,5.935-1.283,5.935
		C149.067,146.563,156.639,143.205,157.163,142.3"/>
	<path fill="#632B26" d="M193.401,146.04c3.072-0.395,4.711-0.964,3.072-1.842c-0.5-0.27-2.155-0.891-2.513-1.987
		c-0.421-1.299-0.984-5.615-0.421-11.53c0.26-2.747,0.375-5.257,0.651-7.043c0.368-2.398,0.789-3.349,3.227-3.8
		c1.79-0.332,3.188-0.655,5.017,2.29c2.194,3.546,2.869,15.879,0.803,15.468c-1.612-0.322-3.165-0.431-3.165,0.266
		c0,0.395,0.454,0.829,1.016,0.954c6.211,1.438,8.109,1.678,8.109,1.678s0.319-1.773-1.546-2.26
		c-0.816-0.214-1.053-0.099-1.168-1.168c-0.089-0.724,0.257-2.112,0.549-3.165c1.681-6.135,2.668-11.343,1.905-13.701
		c-0.536-1.658-4.678-4.658-6.421-4.658c-1.582,0-2.987,0.947-6.204,2.408c-0.766,0.349-1.385,0.737-1.533,0.592
		c-0.332-0.339,0.625-13.382,1.303-17.856c0.29-1.829,0.536-4.563,0.556-6.086c0.039-2.589-0.026-2.786-1.151-3.184
		c-0.944-0.339-1.618-0.207-3.168,0.609c-1.066,0.566-5.737,3.536-6.382,4.017c-1.507,1.128-2.204,1.822-1.691,2.441
		c0.549,0.661,1.375-0.194,2.158-0.845c0.566-0.467,1.118-0.931,2.082-1.48l1.747-1l0.016,3.888
		c-0.089,5.257-0.467,11.734-0.77,23.38c-0.517,19.991-0.082,20.241-1.033,21.119c-0.526,0.493-1.533,1.036-2.24,1.204
		c-3.977,0.951-3.507,2.178,0.691,1.822C188.549,146.428,191.477,146.188,193.401,146.04"/>
	<path fill="#632B26" d="M183.588,142.004c1-1.424,2.721-5.816,1.306-7.856c-0.816-1.174-1.642-1.299-2.671-1.234
		c-1.355,0.079-2.013,1.77-0.605,2.053c1.392,0.28,1.947-0.013,1.901,1.563c-0.099,3.349-1.691,5.796-3.592,5.198
		c-1.651-0.526-2.023-2.201-1.072-6.724c0.484-2.316,1.171-6.046,1.53-8.287c0.638-3.98,1.007-6.224,1.517-7.241
		c0.375-0.747,1.546-0.688,3.474-0.934c1.78-0.237,2.036-0.859,2.036-1.628c0-0.855-0.207-0.915-2.471-0.727
		c-1.447,0.115-2.681,0.02-2.628-0.25c0.247-1.247,1.072-3.925,2.141-8.01c0.635-2.434,1.02-3.451,0.826-3.645
		c-0.355-0.352-6.615,0.48-8.168,1.115c-0.658,0.276-0.25,1.98-0.28,5.257c-0.026,3.073,0.059,4.721-0.28,5.724
		c-0.349,1.007-1.586,0.503-2.257,0.658c-0.711,0.168-1.319,0.688-1.408,1.316c-0.125,0.849,0.566,0.776,1.773,0.776
		c1.316,0,2.043-0.447,1.697,2.227c-0.086,0.694-0.372,5.257-0.809,11.464c-0.849,12.037,0.148,13.297,2.878,13.504
		C180.868,146.511,182.335,143.803,183.588,142.004"/>
	<path fill="#632B26" d="M223.449,137.629c1.444-0.618,7.435-5.52,9.908-7.764c2.421-2.198,3.628-3.888,3.628-4.313
		c0-0.428-1.036-1.635-1.52-1.888c-1.431-0.77-1.964-0.576-1.665,0.602c0.609,2.431-1.148,5.398-7.954,8.964
		c-1.53,0.803-3.099,1.454-3.494,1.454c-0.977,0-3.684-2.454-5.303-4.806c-1.688-2.451-2.405-5.638-1.734-10.326
		c0.428-2.974,0.796-4.237,2.099-5.484c1.819-1.734,3.23-1.461,5.069,0.086c1.342,1.132,1.388,1.293,1.388,4.898
		c0,2.053-0.089,3.823-0.204,3.938c-0.109,0.105-1.04,0.115-2.066,0.02c-1.217-0.115-1.947-0.434-2.099-0.921
		c-0.135-0.401-0.322-1.016-0.428-1.352c-0.326-1.066-1.533,0.339-1.533,1.786c0,1.651,1.161,1.697,4.977,2.398
		c1.839,0.336,4.152,0.424,5.082,0.569l1.698,0.27v-2.448c0-3.125-1.079-7.273-2.326-8.961c-1.118-1.517-4.856-3.263-6.967-3.263
		c-1.595,0-3.257,0.905-5.54,3.007c-2.885,2.668-4.395,7.645-4.063,13.372c0.29,5.056,1.122,6.375,5.556,8.816
		c1.99,1.092,3.987,1.997,4.444,2.007C220.86,138.296,221.343,138.537,223.449,137.629"/>
</g>
<path fill="#FFE4B8" d="M61.2,2.184l429.403,1.79c0,0,33.443,4.178,33.443,38.818c0,0-5.974,37.028-34.64,37.028H57.022L61.2,2.184z
	"/>
<g>
	<path fill="#632B26" d="M91.82,6.063h391.928l0.684-0.007c19.471,0,36.887,15.784,36.887,35.255
		c0,19.475-15.78,35.255-35.252,35.255l-0.401,0.033H91.82H72.148c-1.135-0.013-2.191-0.095-4.375-0.095
		c-1.263,0-1.786-0.938-1.151-1.875c0.74-1.122,3.651-4.28,3.651-4.28L41.114,82.623h444.973l-0.02,0.003
		c22.81,0,41.308-18.498,41.308-41.315C527.375,18.498,508.878,0,486.067,0l-1.184,0.036H41.114L70.273,12.31
		c0,0-2.911-3.152-3.651-4.27c-0.635-0.938-0.112-1.875,1.151-1.875c2.184,0,3.24-0.092,4.375-0.102H91.82z"/>
	<path fill="#632B26" d="M0,41.413c0,22.774,18.517,41.295,41.291,41.295c22.778,0,41.302-18.521,41.302-41.295
		c0-22.771-18.524-41.288-41.302-41.288C18.517,0.125,0,18.642,0,41.413"/>
</g>
<path fill="#FFE4B8" d="M10.991,61.585c0.888,1.332,3.378,3.885,5.352,5.119c2.997,1.878,8.806,2.911,13.711,2.112
	c7.569-1.224,11.132-3.757,14.892-6.004c4.586-2.73,8.148-5.428,13.922-6.254c1.438-0.204,3.362-0.329,6.073,0.444
	c3.576,1.016,6.165,3.484,6.333,5.056v-0.007c4.023-5.872,6.415-13.03,6.415-20.619c0-20.077-16.327-36.406-36.413-36.406
	c-9.701,0-18.843,3.783-25.735,10.672C8.665,22.577,4.882,31.722,4.882,41.433C4.882,46.94,6.105,54.23,10.991,61.585"/>
<path fill="#632B26" d="M23.491,57.986c0,0,0.368-1.5,0.622-3.033c0.533-3.773,0.681-8.208,0.342-15.29
	c-0.342-7.556-0.737-13.455-1.915-18.942c-1.155-5.428-0.757-6.639,1.954-7.757c3.319-1.365,7.892-3.796,16.744-3.444
	c10.001,0.398,18.659,3.711,22.12,5.961c3.431,2.247,3.658,2.536,2.056,6.865c-1.619,4.336-3.52,13.165-3.809,18.106
	c-0.227,4.231-0.579,9.609-0.602,12.876l-0.049,0.079c-1.026,0.043-2.846,0.415-3.961,0.796c-4.438,1.487-8.234,3.434-12.32,6.277
	c-4.875,3.382-9.237,5.997-14.777,6.8c-7.632,1.082-11.244-0.454-13.951-2.625c-2.895-2.329-4.161-5.569-2.921-7.448
	c1.174-1.766,3.638-2.194,6.662-1.368C20.817,56.371,22.485,56.815,23.491,57.986"/>
<path fill="#FFE4B8" d="M32.6,24.623c1.128,3.892,0.102,17.241,0.043,18.912c-0.046,1.813-0.316,3.921-1.599,5.369
	c-1.079,1.224-2.01,1.744-2.01,1.744l2.01,3.086c0,0,2.964-1.628,5.467-2.089c3.859-0.717,4.721,1.566,9.069,1.928
	c5.076,0.418,8.135-3.119,8.747-6.981c0.658-4.079-1.319-7.362-4.487-8.537c-3.342-1.243-7.372-0.171-8.277,3.112
	c-0.595,2.174,0.809,4.109,2.263,4.471c3.095,0.796,3.76-2.072,3.76-2.072s-0.73,1.003-2.063,0.382
	c-0.694-0.342-0.895-1.533-0.572-2.286c0.54-1.303,2.428-2.224,4.53-1.546c2.474,0.803,3.645,3.382,3.497,5.655
	c-0.194,2.954-1.74,5.517-4.925,5.829c-2.579,0.257-5.165-2.207-7.241-2.816c-2.832-0.832-5.05-0.092-7.902,1.734
	c0,0,4.191-6.096,4.161-10.688c-0.033-4.533-2.247-13.228-1.813-16.024c0.148-0.944,0.707-2.691,3.155-3.553
	c2.77-0.961,4.342,1.016,3.902,2.076c-0.349,0.832,1.832-0.28,1.832-1.832c0-2.777-4.175-5.106-8.092-2.184
	c-3.757,2.803-5.856,3.138-5.856,3.138S32.136,22.988,32.6,24.623"/>
<path fill="#FFE4B8" d="M61.628,68.29c-5.997,6.112-14.484,9.859-23.751,9.948c-11.672,0.115-19.508-6.359-19.508-6.359
	s2.059,0.704,4.911,0.681c9.958-0.076,17.359-4.829,21.718-6.546c5.099-1.98,9.928-3.214,13.359,0.642
	c0.799,0.891,2.063,1.711,3.27,1.642V68.29z"/>
<g>
	<path fill="#632B26" d="M367.272,51.782c0.02-0.322-0.398-0.582-0.767-0.655c-0.526-0.099-0.691,0.02-0.987,0.727
		c-0.612,1.49-2.184,5.477-3.346,6.645c-1.964,1.964-3.806,2.22-5.379,2.576c-0.628,0.138-2.405,0.066-3.984,0.102
		c-2.23,0.046-3.059-0.688-3.059-0.688c-1.063-2.444-0.507-14.965-0.26-28.482c0.227-11.984,0.313-13.514,0.651-14.044
		c0.372-0.553,0.569-0.513,2.263-0.605c1.428-0.082,2.115-0.158,2.596-1.602l0.276-1.549h-20.613c0,0-0.299,1.934,1.178,2.77
		c0.204,0.115,1.02,0.151,1.694,0.151c1.428,0,2.135,1.036,2.589,2.424c0.368,1.095,1.424,13.609,1.293,29.475l-0.809,11.892
		c0,1.592-0.22,3.273-3.309,3.8c-0.309,0.049-1.099,0.273-1.421,0.595c-0.635,0.632-0.516,1.132,0.069,1.655
		c0.391,0.359,2.819,0.184,13.491,0.184c10.912,0,12.668-0.023,12.432,2.003c-0.115,0.961,0.273,1.372,0.661,1.451
		c1.309,0.24,1.839-1.875,1.839-1.875C365.199,65.48,367.173,53.874,367.272,51.782"/>
	<path fill="#632B26" d="M375.545,51.832c-0.497-0.549-0.507-1.224-0.046-3.053c0.191-0.76,0.786-3.122,1.322-5.254
		c0.599-2.375,1.125-3.967,1.368-4.119c0.642-0.405,1.171-0.003,1.342,1.013c0.086,0.526,1.51,5.277,2.418,8.685
		c0.28,1.046,0.441,2.467-0.299,2.803c-1.52,0.681-4.378,0.454-4.855,0.454C376.634,52.361,375.775,52.085,375.545,51.832
		 M366.176,66.855h11.152c0,0,0.076-0.618,0.076-1.007c0-0.628-0.382-0.757-1.115-0.757c-2.145,0-2.421-1.974-2.421-3.267
		c0-1.816,0.391-5.362,0.888-5.977c0.905-1.138,6.359-0.461,6.359-0.461c1.957-0.089,2.365,1.086,3.017,3.793
		c0.355,1.477,0.428,2.441,0.467,3.26c0.076,1.434-0.201,1.98-0.609,2.431c-0.289,0.322-0.674,0.47-1.033,0.398
		c-0.701-0.132-1.145,0.355-1.03,1.128l0.079,0.457h12.613c0,0,0.345-0.645,0.345-1.039c0-0.632-0.095-0.724-0.737-0.724
		c-1.655,0-3.026-3.168-5.536-12.803c-0.306-1.168-0.648-2.411-0.76-2.753c-0.115-0.349-0.454-1.645-0.747-2.888
		c-0.296-1.244-0.753-3.165-1.013-4.267c-0.602-2.51-1.5-6.875-2.365-11.382c-0.431-2.276-0.743-3.635-1.211-3.642
		c-0.168,0-1.309,0.891-2.526,1.276c-2.464,0.76-2.724,1.033-3.184,3.267c-0.434,2.112-1.263,5.934-1.53,6.964
		c-1.132,4.484-4.168,16.024-4.474,17.195c-0.595,2.329-1.421,5.106-1.76,5.898c-0.115,0.276-0.276,0.898-0.51,1.309
		c-1.059,1.826-1.359,1.52-2.188,1.826C365.591,65.395,366.176,66.855,366.176,66.855"/>
	<path fill="#632B26" d="M494.321,51.832c-0.392-0.487-1.066-1.135-2.977-4.056c-0.477-0.727-1.026-1.829-1.349-2.385
		c-1.698-2.898-4.75-9.734-5.747-12.03c-0.872-2.017-0.882-2.744-0.056-3.059c0.507-0.191,1.007-0.411,1.007-1.125v-0.855h-13.224
		c0,0-0.684,1.467,0.786,1.98c0.385,0.132,1.053,0.273,1.464,0.618c1.385,1.168,1.437,2.668,1.382,16.353
		c-0.026,6.836-0.132,13.553-0.132,14.932c0,1.299-0.507,2.401-1.29,2.681c-0.372,0.135-1.115,0.322-1.382,0.586
		c-0.569,0.566-0.464,1.293-0.464,1.293h10.096c0,0,0.069-1.293-0.625-1.507c-0.97-0.306-1.763-0.477-2.533-2.257
		c-0.553-1.27-0.569-1.487-0.585-11.586l-0.023-12.033c0-0.658,0.878-0.046,0.878-0.046c0.53,0.753,1.059,2.138,2.806,5.53
		c0.352,0.691,7.461,13.603,9.06,15.965c0.793,1.171,1.635,2.415,1.859,2.76c0.937,1.434,1.957,2.997,2.908,4.217
		c0.487,0.618,1.069,1.454,1.928,1.454c0.382,0,0.888-0.289,0.826-1.28c-0.036-0.553-0.174-3.77-0.319-7.152
		c-0.266-6.721,0.079-27.13,0.497-28.893c0.279-1.148,0.882-1.836,1.878-2c0.908-0.148,0.961-1.615,0.961-1.615h-11.04
		c0,0-0.678,1.234,1.665,1.694c1.51,0.29,2.563,1.059,2.563,4.112c0,0.875,0.207,5.981,0.164,10.26l-0.062,7.78
		C495.239,52.878,494.617,52.213,494.321,51.832"/>
	<path fill="#632B26" d="M410.442,65.849c-0.23-0.757-0.796-0.651-1.369-0.757c-0.355-0.069-1.135,0.148-1.668-1.063
		c-0.559-1.257-0.602-1.681-0.734-8.543l0.056-7.063c0,0,0.076-0.803,0.684-1.671c1.211-1.74,2.622-3.921,3.257-5.152
		c1.247-2.438,2.652-5.681,4.086-9.099c0.648-1.556,0.891-2.352,1.424-2.352c0.368,0,0.618-0.553,0.618-1.359v-0.47h-10.392
		c0,0-0.608,0.484-0.513,1.158c0.069,0.461,0.625,0.74,1.52,0.76c1.816,0.043,1.845,0.52,1.967,1.819
		c0.099,1.063-0.556,3.852-0.908,5c-0.987,3.181-3,6.487-3.635,6.55c-0.599,0.056-0.678-0.138-0.938-0.378
		c-0.487-0.441-0.753-0.951-1.007-1.507c-0.911-2.03-1.418-3.043-2.043-5.059c-0.638-2.056-1.569-5.191-1.484-5.793
		c0.069-0.467,0.26-0.615,0.901-0.674c0.911-0.086,1.188-1.875,1.188-1.875h-11.833c0,0-0.441,1.885,0.645,2.105
		c0.438,0.092,1.023,0.375,1.303,0.628c0.517,0.464,2.349,5.961,3.655,8.336c1.365,2.48,4.171,7.349,4.454,7.971
		c0.477,1.033,0.891,2.994,0.855,7.695c-0.013,2.829-0.105,6.086-0.201,7.24c-0.158,1.993-0.194,2.112-0.951,2.576
		c-0.441,0.283-1.066,0.296-1.592,0.523c-0.885,0.378-0.605,1.411-0.605,1.411h13.113L410.442,65.849z"/>
	<path fill="#632B26" d="M154.764,62.072c-0.97-0.97-1.954-2.168-2.477-3.5c-1.27-3.244-1.868-8.293-1.51-13.307
		c0.566-7.895,3.385-12.807,7.342-12.8c3.197,0.007,5.566,2.632,6.928,7.681c0.744,2.744,0.938,11.221,0.415,14.405
		c-0.444,2.73-1.056,4.497-1.421,5.145c-1.22,2.207-3.398,3.711-4.263,3.895C157.745,64.026,156.452,63.76,154.764,62.072
		 M162.479,66.891c3.747-1.73,6.056-4.191,7.767-8.244c0.602-1.441,1.434-3.487,1.882-6.359c0.372-2.421,0.372-7.066-0.28-10.037
		c-0.319-1.451-0.839-3.678-1.53-5.198c-1.007-2.224-2.744-4.28-4.099-5.497c-1.665-1.503-4.309-2.688-7.826-2.836
		c-1.026-0.043-3.665,0.184-5.283,1.125c-5.369,3.115-6.984,8.227-7.415,9.329c-0.822,2.092-1.326,4.829-1.589,7.987
		c-0.207,2.447,0.569,7.612,1.523,10.142c2.046,5.425,6.25,9.507,10.632,10.31C158.07,67.948,160.317,67.967,162.479,66.891"/>
	<path fill="#632B26" d="M276.142,62.072c-0.974-0.97-1.954-2.168-2.48-3.5c-1.263-3.244-1.865-8.293-1.507-13.307
		c0.566-7.895,3.385-12.807,7.346-12.8c3.194,0.007,5.563,2.632,6.928,7.681c0.744,2.744,0.934,11.221,0.411,14.405
		c-0.444,2.73-1.056,4.497-1.418,5.145c-1.224,2.207-3.405,3.711-4.27,3.895C279.119,64.026,277.833,63.76,276.142,62.072
		 M283.86,66.891c3.747-1.73,6.056-4.191,7.76-8.244c0.609-1.441,1.444-3.487,1.882-6.359c0.375-2.421,0.375-7.066-0.28-10.037
		c-0.312-1.451-0.832-3.678-1.526-5.198c-1.013-2.224-2.744-4.28-4.099-5.497c-1.665-1.503-4.309-2.688-7.823-2.836
		c-1.03-0.043-3.668,0.184-5.29,1.125c-5.365,3.115-6.984,8.227-7.412,9.329c-0.822,2.092-1.326,4.829-1.589,7.987
		c-0.207,2.447,0.569,7.612,1.523,10.142c2.04,5.425,6.254,9.507,10.632,10.31C279.448,67.948,281.695,67.967,283.86,66.891"/>
	<path fill="#632B26" d="M233.235,67.066c4.066-1.523,6.734-5.75,6.717-11.221c-0.007-2.24-0.441-4.342-1.283-5.938
		c-1.286-2.448-2.596-3.675-6.402-6.02c-6.152-3.78-6.382-3.977-6.767-5.688c-0.609-2.707,0.53-4.928,2.826-5.523
		c2.678-0.691,5.382,0.78,6.928,4.602c0.431,1.076,0.477,2.49,0.609,2.806c0.299,0.73,1.424,0.661,1.513-0.227
		c0.066-0.678,0-2.22,0-2.73c0-1.819,0.273-3.352,0.523-5.872c0.299-2.944-0.178-3.632-1.128-2.385
		c-0.711,0.928-1.747,1.24-2.352,0.908c-0.559-0.306-2.576-0.984-4.428-1.056c-0.747-0.026-3.082,0.095-4.362,0.753
		c-1.322,0.684-2.717,1.803-3.934,3.865c-0.99,1.665-1.273,3.934-1.293,5.757c-0.016,2.099,0.516,3.832,1.365,5.53
		c0.684,1.365,3.332,3.865,6.29,5.76c1.352,0.868,2.645,1.625,3.28,1.997c1.619,0.934,2.73,2.049,3.316,3.079
		c0.678,1.214,1.168,2.553,0.98,3.865c-0.303,2.122-1.063,3.181-2.043,3.786c-1.063,0.655-2.128,0.842-3.658,0.806
		c-1.237-0.033-2.257-0.579-3.306-1.336c-2.053-1.477-3.29-3.411-4.122-5.543c-0.293-0.747-0.776-2.74-0.885-3.033
		c-0.263-0.661-1.342-0.54-1.665,0.191c-0.122,0.276,0.033,2.905,0.158,4.563c0.158,1.997-0.194,5.063-0.388,6.931
		c-0.164,1.586-0.987,2.349,0.224,3.03c0.549,0.309,1.197-1.26,1.477-2.125c0.217-0.678,0.589-1.5,1.115-1.566
		c0.378-0.043,0.868,0.079,1.099,0.276c0.625,0.53,2.698,1.592,3.964,1.898C230.1,67.816,232.334,67.405,233.235,67.066"/>
	<path fill="#632B26" d="M255.891,67.066c4.063-1.523,6.734-5.75,6.714-11.221c-0.007-2.24-0.444-4.342-1.28-5.938
		c-1.286-2.448-2.596-3.675-6.408-6.02c-6.145-3.78-6.379-3.977-6.764-5.688c-0.609-2.707,0.53-4.928,2.826-5.523
		c2.678-0.691,5.382,0.78,6.928,4.602c0.438,1.076,0.477,2.49,0.609,2.806c0.299,0.73,1.424,0.661,1.517-0.227
		c0.063-0.678,0-2.22,0-2.73c0-1.819,0.27-3.352,0.523-5.872c0.289-2.944-0.181-3.632-1.132-2.385
		c-0.711,0.928-1.743,1.24-2.349,0.908c-0.559-0.306-2.576-0.984-4.428-1.056c-0.75-0.026-3.082,0.095-4.362,0.753
		c-1.326,0.684-2.721,1.803-3.941,3.865c-0.984,1.665-1.267,3.934-1.286,5.757c-0.02,2.099,0.513,3.832,1.362,5.53
		c0.684,1.365,3.332,3.865,6.29,5.76c1.352,0.868,2.648,1.625,3.28,1.997c1.622,0.934,2.73,2.049,3.313,3.079
		c0.681,1.214,1.171,2.553,0.987,3.865c-0.306,2.122-1.063,3.181-2.046,3.786c-1.056,0.655-2.125,0.842-3.658,0.806
		c-1.234-0.033-2.253-0.579-3.303-1.336c-2.056-1.477-3.29-3.411-4.122-5.543c-0.293-0.747-0.776-2.74-0.888-3.033
		c-0.26-0.661-1.339-0.54-1.665,0.191c-0.125,0.276,0.036,2.905,0.161,4.563c0.158,1.997-0.197,5.063-0.391,6.931
		c-0.168,1.586-0.984,2.349,0.227,3.03c0.549,0.309,1.197-1.26,1.477-2.125c0.217-0.678,0.589-1.5,1.115-1.566
		c0.372-0.043,0.868,0.079,1.099,0.276c0.619,0.53,2.694,1.592,3.964,1.898C252.756,67.816,254.993,67.405,255.891,67.066"/>
	<path fill="#632B26" d="M101.939,37.946l-0.378-0.24l-0.066-9.415c0-4.152-0.043-6.648,0.046-7.754
		c0.151-1.911,0.533-2.017,1.253-2.369c1.204-0.582,4.444-0.737,5.78-0.227c3.464,1.322,4.754,3.78,4.494,9.464
		c-0.115,2.464-1.092,4.793-1.569,5.579c-0.875,1.467-1.757,2.273-2.721,2.997c-0.819,0.612-2.382,1.701-4.086,1.974
		C103.864,38.087,102.857,38.16,101.939,37.946 M102.699,63.395c-0.862-1.671-1.158-2.948-1.158-13.135v-8.652l2.007-0.174
		c6.902-0.585,12.438-4.05,15.169-10.283c1.424-3.253,1.921-8.872,1.023-11.981c-0.559-1.914-1.296-3.674-2.997-4.971
		c-1.237-0.938-2.655-1.224-5.036-1.29c-1.839-0.056-2.52,0.132-5.448,0.474c-4.694,0.549-8.573,1.056-11.708,1.056h-5.813
		l-0.243,0.579c-0.375,0.497-0.562,1.007-0.342,1.497c0.247,0.543,0.365,0.388,1.734,0.388c1.849,0,2.359,0.24,2.727,1.303
		c0.566,1.619,0.786,9.704,0.753,27.449L93.33,60.825c0,2.046-0.405,2.872-0.75,3.138c-0.526,0.408-1.076,0.401-1.569,0.401
		c-1.224,0-1.875,0.309-2.247,0.885c-0.474,0.747,0.296,1.464,0.296,1.464h18.636c0.339-0.414,0.128-1.507-0.211-1.737
		c-0.411-0.273-0.763-0.487-1.924-0.487C104.864,64.49,103.127,64.23,102.699,63.395"/>
	<path fill="#632B26" d="M127.964,46.275l-0.266-0.171l-0.049-6.678c0-2.948-0.03-4.717,0.033-5.5
		c0.109-1.355,0.378-1.434,0.885-1.678c0.859-0.415,3.155-0.523,4.105-0.161c2.457,0.938,3.372,2.681,3.184,6.708
		c-0.079,1.753-0.773,3.401-1.109,3.961c-0.625,1.04-1.25,1.615-1.934,2.128c-0.579,0.431-1.688,1.207-2.895,1.401
		C129.325,46.381,128.615,46.427,127.964,46.275 M134.273,47.542c2.507-1.444,4.342-3.23,5.592-6.086
		c1.01-2.309,1.362-6.296,0.724-8.5c-0.395-1.359-0.918-2.609-2.125-3.526c-0.875-0.664-1.882-0.865-3.573-0.915
		c-1.306-0.039-1.786,0.099-3.862,0.336c-3.332,0.388-6.086,0.75-8.306,0.75h-4.125l-0.171,0.411
		c-0.266,0.352-0.401,0.711-0.243,1.063c0.174,0.378,0.257,0.27,1.227,0.27c1.313,0,1.674,0.174,1.941,0.928
		c0.398,1.148,0.556,6.885,0.53,19.475l-0.026,10.764c0,1.447-0.286,2.033-0.53,2.22c-0.375,0.293-0.763,0.29-1.115,0.29
		c-0.865,0-1.329,0.217-1.589,0.628c-0.342,0.53,0.207,1.033,0.207,1.033h13.218c0.243-0.29,0.095-1.069-0.148-1.227
		c-0.29-0.194-0.54-0.345-1.365-0.345c-0.497,0-1.727-0.188-2.033-0.776c-0.609-1.188-0.819-2.095-0.819-9.323v-6.138l0.984-0.072
		c1.142,0.151,2.293,2.313,3.26,4.319c1.059,2.197,3.425,7.527,5.684,15.307c1.362,4.698,4.543,6.74,6.971,6.74
		c1.444,0,3.711-1.059,4.471-4.698c0.194-0.938-0.76-1.665-1.441-1.362c-0.405,0.178-0.523,0.766-0.681,1.362
		c-0.303,1.135-1.428,1.97-2.273,1.97c-1.743,0-4.244-4.319-4.168-9.925c0.089-6.668-0.984-10.76-2.651-12.201
		c-2.204-1.901-2.836-1.329-3.487-1.589C133.97,48.575,133.829,47.795,134.273,47.542"/>
	<path fill="#632B26" d="M192.671,39.706c0,0-1.362-0.605-1.971,0.681c-0.293,0.619,0.155,1.823-0.306,2.73
		c-0.451,0.908-3.405,0.984-4.619,0.984c-1.214,0-2.803,0.378-3.257-0.984c-0.457-1.362,0.303-7.731,0.303-8.106
		c0-0.382-0.151-0.684,0.681-0.915c0.832-0.224,5.152-0.303,6.592,0.309c1.438,0.605,0.303,1.892,1.135,2.573
		c0.836,0.684,1.365,0.53,1.592-0.76c0.227-1.286,0.076-2.122,0.076-3.257c-0.016-5.234,0.503-6.145-0.095-6.145
		c-0.319,0-0.457,0.332-0.76,0.842c-0.586,0.984-0.642,1.51-10.155,1.533c-7.885,0.016-8.662,0.056-8.971,0.451
		c-0.184,0.24-0.306,0.661-0.276,0.938c0.053,0.405,0.424,0.513,1.467,0.642c0.711,0.086,1.283,0.273,1.441,0.336
		c1.211,0.5,0.931,20.284,0.931,20.284l-0.023,10.764c0,1.444-0.286,2.036-0.53,2.224c-0.375,0.286-0.763,0.286-1.115,0.286
		c-0.868,0-1.332,0.217-1.592,0.628c-0.339,0.53,0.207,1.036,0.207,1.036h13.221c0.237-0.293,0.089-1.072-0.151-1.23
		c-0.29-0.191-0.54-0.345-1.365-0.345c-0.497,0-1.724-0.184-2.03-0.776c-0.609-1.188-0.819-2.092-0.819-9.323l0.082-1.303
		c0-3.925,0.066-4.763,0.388-5.03c0.533-0.441,7.329-0.684,7.796-0.201c0.178,0.181,0.066,0.99,0.454,1.661
		c0.306,0.536,0.53,0.99,1.49,1.24l0.72-0.082l-0.342-3.628C192.697,44.982,192.671,39.706,192.671,39.706"/>
	<path fill="#632B26" d="M212.521,66.793c1.934,0.115,1.566,2.04,1.595,2.313c0.069,0.678,1.211,1.283,1.513,0.224
		c1.405-4.911,1.819-10.303,1.819-10.912c0-0.602-0.072-1.362-0.609-1.283c-0.898,0.128-1.056,1.059-1.513,2.118
		c-0.388,0.905-0.832,1.895-1.668,2.424c-1.421,0.901-7.346,0.987-8.03,0.836c-0.684-0.151-0.605-5.605-0.546-7.408l0.089-1.303
		c0-3.925,0.062-4.763,0.385-5.03c0.53-0.441,7.333-0.684,7.796-0.201c0.181,0.181,0.069,0.99,0.454,1.661
		c0.303,0.536,0.533,0.99,1.49,1.24l0.724-0.082l-0.342-3.628c-0.178-2.78-0.201-8.056-0.201-8.056s-1.369-0.605-1.974,0.681
		c-0.289,0.618,0.155,1.822-0.299,2.73c-0.46,0.908-3.411,0.984-4.625,0.984c-1.211,0-2.803,0.378-3.257-0.984
		c-0.457-1.362,0.306-7.731,0.306-8.106c0-0.382-0.155-0.684,0.678-0.915c0.836-0.224,5.155-0.303,6.592,0.309
		c1.441,0.605,0.306,1.891,1.138,2.572c0.832,0.684,1.362,0.53,1.589-0.76c0.23-1.286,0.076-2.122,0.072-3.257
		c-0.01-5.234,0.51-6.145-0.089-6.145c-0.319,0-0.457,0.332-0.76,0.842c-0.585,0.984-0.641,1.51-10.155,1.533
		c-7.885,0.016-8.662,0.056-8.971,0.451c-0.184,0.24-0.306,0.661-0.273,0.938c0.043,0.405,0.421,0.513,1.461,0.642
		c0.711,0.086,1.286,0.273,1.438,0.336c1.217,0.5,0.938,20.284,0.938,20.284l-0.03,10.764c0,1.444-0.283,2.036-0.526,2.224
		c-0.375,0.286-0.76,0.286-1.115,0.286c-0.865,0-1.332,0.217-1.592,0.628c-0.336,0.53,0.207,1.036,0.207,1.036h13.221
		C209.451,66.78,211.53,66.737,212.521,66.793"/>
	<path fill="#632B26" d="M303.808,46.275l-0.27-0.171l-0.043-6.678c0-2.948-0.03-4.717,0.03-5.5
		c0.109-1.355,0.382-1.434,0.888-1.678c0.859-0.415,3.155-0.523,4.105-0.161c2.457,0.938,3.372,2.681,3.184,6.708
		c-0.086,1.753-0.773,3.401-1.109,3.961c-0.625,1.04-1.247,1.615-1.934,2.128c-0.579,0.431-1.691,1.207-2.898,1.401
		C305.176,46.381,304.463,46.427,303.808,46.275 M310.121,47.542c2.503-1.444,4.342-3.23,5.589-6.086
		c1.01-2.309,1.365-6.296,0.727-8.5c-0.398-1.359-0.921-2.609-2.125-3.526c-0.878-0.664-1.882-0.865-3.573-0.915
		c-1.306-0.039-1.786,0.099-3.865,0.336c-3.336,0.388-6.079,0.75-8.303,0.75h-4.122l-0.171,0.411
		c-0.273,0.352-0.405,0.711-0.247,1.063c0.178,0.378,0.257,0.27,1.227,0.27c1.316,0,1.678,0.174,1.941,0.928
		c0.395,1.148,0.556,6.885,0.53,19.475l-0.03,10.764c0,1.447-0.286,2.033-0.526,2.22c-0.368,0.293-0.763,0.29-1.115,0.29
		c-0.868,0-1.329,0.217-1.592,0.628c-0.342,0.53,0.207,1.033,0.207,1.033h13.224c0.237-0.29,0.089-1.069-0.151-1.227
		c-0.293-0.194-0.539-0.345-1.365-0.345c-0.5,0-1.73-0.188-2.03-0.776c-0.612-1.188-0.826-2.095-0.826-9.323v-6.138l0.987-0.072
		c1.142,0.151,2.293,2.313,3.263,4.319c1.059,2.197,3.424,7.527,5.675,15.307c1.365,4.698,4.55,6.74,6.974,6.74
		c1.451,0,3.714-1.059,4.474-4.698c0.194-0.938-0.76-1.665-1.444-1.362c-0.405,0.178-0.523,0.766-0.678,1.362
		c-0.303,1.135-1.428,1.97-2.273,1.97c-1.747,0-4.24-4.319-4.168-9.925c0.086-6.668-0.987-10.76-2.655-12.201
		c-2.201-1.901-2.836-1.329-3.484-1.589C309.821,48.575,309.673,47.795,310.121,47.542"/>
	<path fill="#632B26" d="M433.617,45.963c-0.01-6.566,0.082-12.241,0.082-12.241s1.901-0.03,3.184,0
		c1.165,0.026,1.842,0.622,2.27,0.911c0.753,0.507,1.089,1.063,1.243,3.237c0.122,1.688,0.273,2.596,0.984,2.875
		c0.934,0.372,1.122-0.566,1.059-5.355c-0.043-3.01,0.026-3.786,0.125-5.379c0.072-1.214,0.059-2.01,0.059-2.273
		c0-0.73-0.698-0.602-1.421,0.26c-0.349,0.415-1.079,0.576-1.668,0.763c-0.224,0.072-0.842,0.105-2.507,0.112
		c-1.296,0.007-3.503-0.319-6.435-0.342c-1.753-0.01-2.5,0.23-3.711,0.342c-0.835,0.076-1.882,0.266-3.194,0.266
		c-1.892,0-3.02-0.191-3.79-1.013c-0.503-0.54-0.915-0.77-1.049-0.77c-0.517,0.007-0.753,0.546-0.494,1.526
		c0.138,0.52,0.28,3.276,0.319,6.129c0.043,2.852,0.148,5.306,0.244,5.458c0.092,0.158,0.434,0.276,0.766,0.276
		c0.737,0,0.602-0.516,1.105-3.125c0.257-1.319,0.181-2.023,1.007-2.576c1.118-0.753,2.586-1.155,4.29-1.181l1.382-0.016l0.066,12.8
		c-0.036,2.691-0.049,6.402,0.016,8.359c0.096,2.829-0.112,6.086-0.201,7.24c-0.161,1.997-0.197,2.115-0.951,2.579
		c-0.447,0.276-1.069,0.29-1.599,0.52c-0.885,0.378-0.602,1.415-0.602,1.415h13.366l-0.115-0.961
		c-0.224-0.757-0.789-0.645-1.362-0.757c-0.352-0.069-1.138,0.145-1.675-1.066c-0.553-1.25-0.628-1.678-0.727-8.54
		C433.67,54.496,433.62,47.818,433.617,45.963"/>
	<path fill="#632B26" d="M454.299,61.47c-0.971-0.967-1.961-2.165-2.474-3.497c-1.273-3.244-1.872-8.296-1.517-13.307
		c0.569-7.895,3.388-12.807,7.342-12.8c3.201,0.003,5.569,2.628,6.928,7.678c0.75,2.747,0.944,11.224,0.418,14.409
		c-0.447,2.73-1.063,4.494-1.418,5.145c-1.227,2.207-3.405,3.707-4.27,3.892C457.273,63.428,455.99,63.164,454.299,61.47
		 M462.017,66.293c3.747-1.727,6.053-4.194,7.764-8.247c0.605-1.441,1.441-3.484,1.878-6.352c0.375-2.424,0.375-7.073-0.28-10.04
		c-0.319-1.447-0.835-3.684-1.526-5.198c-1.013-2.224-2.75-4.277-4.096-5.5c-1.668-1.503-4.316-2.684-7.823-2.836
		c-1.036-0.04-3.678,0.187-5.29,1.128c-5.372,3.112-6.984,8.227-7.415,9.326c-0.819,2.096-1.329,4.836-1.592,7.991
		c-0.201,2.444,0.576,7.609,1.526,10.142c2.043,5.425,6.254,9.504,10.632,10.31C457.605,67.349,459.855,67.365,462.017,66.293"/>
</g>
<g>
	<polygon fill="#632B26" points="702.736,219.83 702.736,218.231 709.799,218.231 709.799,219.83 707.21,219.83 707.21,226.847 
		705.318,226.847 705.318,219.83 	"/>
	<polygon fill="#632B26" points="713.388,218.231 715.404,224.159 715.428,224.159 717.335,218.231 720,218.231 720,226.847 
		718.224,226.847 718.224,220.741 718.204,220.741 716.092,226.847 714.631,226.847 712.526,220.807 712.496,220.807 
		712.496,226.847 710.723,226.847 710.723,218.231 	"/>
</g>
<g>
</g>
<g>
</g>
<g>
</g>
<g>
</g>
<g>
</g>
<g>
</g>
<g>
</g>
<g>
</g>
<g>
</g>
<g>
</g>
<g>
</g>
<g>
</g>
<g>
</g>
<g>
</g>
<g>
</g>
</svg>
