<?xml version="1.0" encoding="utf-8"?>
<!-- Generator: Adobe Illustrator 27.2.0, SVG Export Plug-In . SVG Version: 6.00 Build 0)  -->
<svg version="1.1" id="레이어_1" xmlns="http://www.w3.org/2000/svg" xmlns:xlink="http://www.w3.org/1999/xlink" x="0px"
	 y="0px" viewBox="0 0 720 182.689" enable-background="new 0 0 720 182.689" xml:space="preserve">
<g>
	<path fill="#FEEAC8" d="M407.189,148.284h-16.855v-11.383h15.135l0.171-4.7c0.135-3.34,0.884-5.207,3.213-7.999l3.033-3.649
		l-3.558-3.151c-6.653-5.867-14.773-8.72-24.836-8.72c-11.2,0-29.99,4.809-29.99,37.014c0,2.601,0.13,5.007,0.359,7.263h-16.77
		v9.162h-7.719v-54.205l-24.892,2.459v5.157c-5.139-4.329-12.961-6.85-21.661-6.85c-13.553,0-29.704,6.423-29.704,37.014
		c0,6.68,0.804,12.166,2.165,16.684h-0.138l-9.324-33.124h6.653l2.818-19.685h-54.623l2.821,19.685h7.251l-9.198,33.124h-3.422
		l-2.009,7.251l-2.353-7.251h-3.419l-4.421-13.621c6.653-4.806,10.149-11.241,10.149-18.769c0-6.14-2.58-20.418-26.483-20.418
		h-64.598l-4.45-18.46h-3.849c-18.89,0-34.155,12.305-43.046,34.222C44.928,103.415,29.702,91.11,10.703,91.11H6.311l-2.412,22.097
		l4.715,0.633c1.331,0.18,2.665,0.412,3.855,0.669l-5.222,47.87H2.12L0,181.796h29.383l5.013-46.253
		c5.083,10.273,9.51,23.602,12.426,37.751l0.807,3.899h12.107l0.807-3.902c2.907-14.139,7.342-27.481,12.449-37.771l5.019,46.277
		h84.015v-24.268l2.659-0.518c0.607-0.121,1.166-0.235,1.699-0.345l7.981,25.131h18.369v0.006l24.913-0.006l2.771-10.579
		l7.834,5.501l7.943-5.513l2.945,10.591l24.821,0.006l-2.023-7.292c6.264,6.706,14.611,8.179,20.689,8.179
		c9.577,0,17.261-3.384,21.853-9.106v8.214h53.869v-12.85c6.244,11.515,17.173,13.742,24.659,13.742
		c15.901,0,26.583-9.136,26.583-22.728c0-3.62-0.424-5.56-1.311-8.287L407.189,148.284z M225.296,152.748l2.789-10.47l3.016,10.844
		l-2.642,1.885L225.296,152.748z M100.152,162.379l-5.216-47.726c1.773-0.306,3.696-0.566,4.877-0.722l4.103-0.563v16.343h7.003
		v32.667H100.152z M140.565,162.379h-8.579v-32.67h8.579V162.379z M162.026,141.348v-11.636h7.071c3.246,0,4.621,0.395,5.122,0.61
		v0.109c0,5.643-3.846,9.265-11.436,10.767L162.026,141.348z M307.904,129.712v21.915c-0.135-0.392-0.256-0.792-0.418-1.184
		l-1.243-3.048h-21.959l3.219,6.945c0.53,1.152,0.836,2.453,0.836,3.57c0,2.206-0.427,4.559-5.519,4.559
		c-2.745,0-7.846,0-7.846-16.958c0-16.607,4.603-16.607,7.654-16.607c0.186,0,0.365,0.003,0.539,0.003
		c-0.2,0.804-0.356,1.626-0.462,2.456l-0.742,5.54H303.4l0.327-4.55c0.103-1.446,0.353-2.721,0.754-3.899v1.26H307.904z
		 M383.296,128.816c0.568,0,1.09,0.009,1.576,0.027c-0.177,0.919-0.298,1.867-0.362,2.851l-0.209,3.301h-7.987
		C377.812,129.37,380.56,128.816,383.296,128.816 M383.198,162.556c-2.076,0-5.711,0-7.251-8.137h11.792l0.188,0.498
		c0.574,1.508,0.786,2.559,0.786,3.879C388.715,160.291,388.715,162.556,383.198,162.556"/>
	<path fill="#FEEAC8" d="M696.901,162.379h-3.419L681,138.297c4.68-4.692,10.376-8.635,16.293-11.245l4.992-2.221l-10.161-17.415
		l-3.938,1.632c-9.277,3.814-17.694,10.376-24.279,18.74v-19.9l-24.386,2.509v7.363c-4.859-4.583-13.565-9.083-24.813-9.083
		c-15.559,0-25.611,8.682-25.611,22.112c0,11.954,6.629,17.429,14.181,20.795h-11.46v4.895c0,3.693-0.521,5.834-2.065,7.973
		l-0.577-2.073h-3.437l-9.321-33.124h6.653l2.824-19.685h-54.623l2.819,19.685h7.251l-9.201,33.124h-3.413l-1.49,5.363l-0.583-5.363
		h-5.13l-5.237-47.873c1.193-0.253,2.518-0.483,3.841-0.666l4.724-0.636l-2.412-22.094h-4.385
		c-18.884,0-34.152,12.308-43.043,34.222c-8.712-21.918-23.935-34.222-42.937-34.222h-4.391l-2.409,22.094l4.715,0.636
		c1.328,0.183,2.662,0.412,3.852,0.666l-5.225,47.873h-5.125l-2.123,19.417h29.386l5.01-46.253
		c5.083,10.273,9.51,23.594,12.425,37.73l0.792,3.917h12.131l0.804-3.902c2.904-14.14,7.342-27.478,12.449-37.774l5.013,46.282
		h48.868l2.768-10.579l7.834,5.501l7.949-5.516l2.942,10.594l24.821,0.006l-1.558-5.625c5.195,3.561,12.926,6.512,22.577,6.512
		c11.18,0,19.458-3.649,23.938-10.175v9.283h23.314l0.377-4.488c0.518-6.256,1.932-12.452,4.15-18.269l12.057,22.757h27.543
		L696.901,162.379z M555.897,152.749l2.789-10.47l3.019,10.844l-2.642,1.882L555.897,152.749z M642.94,129.709v25.057
		c-1.938-10.464-10.826-14.932-18.964-17.865h13.227l0.409-4.435c0.212-2.238,0.763-3.873,1.908-5.493v2.736H642.94z
		 M616.437,131.662l-0.186,2.58c-5.699-2.073-5.699-2.71-5.699-3.988c0-1.057,0-2.247,4.156-2.247c0.757,0,1.484,0.047,2.176,0.138
		C616.67,129.22,616.52,130.393,616.437,131.662 M621.485,159.688c0,1.779,0,3.319-5.219,3.319c-1.325,0-2.603-0.091-3.752-0.265
		c0.398-2.171,0.471-4.368,0.471-6.261v-1.402C621.485,157.885,621.485,159.237,621.485,159.688"/>
</g>
<g>
	<polygon fill="#E9480C" points="107.945,123.377 114.948,123.377 114.948,164.108 107.945,164.108 107.945,175.467 
		134.963,175.467 134.963,164.108 127.957,164.108 127.957,123.377 134.963,123.377 134.963,111.299 107.945,111.299 	"/>
	<polygon fill="#E9480C" points="341.118,163.844 325.344,163.844 325.344,110.06 308.513,111.721 308.513,123.378 311.932,123.378 
		311.932,164.109 308.513,164.109 308.513,175.469 354.321,175.469 354.321,154.688 341.118,154.688 	"/>
	<path fill="#E9480C" d="M187.408,164.109l-6.279-19.338c7.239-4.247,10.909-9.987,10.909-17.085
		c0-7.475-3.896-16.387-22.457-16.387h-28.406v12.078h3.419v40.731h-3.419v11.359h16.826v-52.09h11.094
		c8.447,0,9.156,2.45,9.156,4.75c0,10.273-9.198,13.633-14.679,14.72l-0.698,0.144v7.961l1.034-0.2
		c2.079-0.409,3.723-0.772,5.192-1.149l8.214,25.864h17.199l-3.687-11.359H187.408z"/>
	<path fill="#E9480C" d="M252.089,164.108l-11.592-41.182h8.479l1.667-11.627h-45.328l1.664,11.627h9.062l-11.439,41.182h-3.419
		l-3.148,11.362l16.502-0.006l3.452-13.176l10.276,7.216l10.299-7.151l3.64,13.112l16.457,0.006l-3.151-11.362H252.089z
		 M235.744,152.469l-7.289,5.183l-7.769-5.549l7.313-27.466L235.744,152.469z"/>
	<path fill="#E9480C" d="M96.538,164.109l-5.999-54.9c2.206-0.695,6.379-1.26,8.726-1.57l1.611-0.224l-3.514-14.581h-0.677
		c-20.224,0-35.804,15.668-43.099,43.146C46.548,108.502,31.044,92.834,10.7,92.834H9.925l-1.593,14.599l0.833,0.109
		c2.427,0.336,5.599,0.931,7.684,1.655l-5.99,54.912H5.731l-1.237,11.359H25.77l5.926-54.759
		c7.849,11.015,14.911,29.271,19.07,49.469l0.144,0.683h5.546l0.141-0.689c4.144-20.156,11.212-38.407,19.096-49.463l5.934,54.759
		h21.279l-1.237-11.359H96.538z"/>
	<path fill="#E9480C" d="M388.473,130.57h13.109l0.032-0.83c0.171-4.229,1.255-6.956,4.141-10.417l0.539-0.645l-0.63-0.56
		c-5.884-5.192-13.132-7.713-22.171-7.713c-16.984,0-25.961,11.404-25.961,32.988c0,21.567,8.815,32.968,25.478,32.968
		c13.701,0,22.554-7.345,22.554-18.701c0-3.128-0.336-4.642-1.116-7.051l-0.194-0.598h-13.006l0.448,1.172
		c0.748,1.956,1.048,3.499,1.048,5.316c0,6.432-5.189,7.781-9.545,7.781c-7.213,0-10.985-5.148-11.816-16.192h14.923v-11.371h-14.79
		c1.087-9.831,4.748-14.231,11.78-14.231c3.219,0,5.357,0.242,6.88,0.804c-0.954,1.95-1.496,4.038-1.64,6.362L388.473,130.57z"/>
	<path fill="#E9480C" d="M303.536,149.118h-12.947l0.571,1.225c0.778,1.685,1.205,3.555,1.205,5.263c0,5.54-3.387,8.588-9.545,8.588
		c-8.217,0-11.878-6.47-11.878-20.99c0-14.655,3.381-20.636,11.683-20.636c2.739,0,4.765,0.271,6.143,0.819
		c-1.048,1.755-1.773,3.926-2.073,6.208l-0.13,0.975h13.085l0.053-0.804c0.298-4.156,1.564-7.38,4.111-10.443l0.462-0.56
		l-0.465-0.554c-4.126-4.886-11.972-7.804-20.993-7.804c-17.035,0-25.673,11.097-25.673,32.988c0,21.567,8.809,32.968,25.478,32.968
		c13.701,0,22.551-7.519,22.551-19.155c0-2.713-0.465-5.183-1.422-7.545L303.536,149.118z"/>
</g>
<g>
	<path fill="#F08600" d="M694.449,164.109h-3.416l-14.926-28.8c5.372-5.999,12.287-11.038,19.547-14.237l0.88-0.392l-6.117-10.496
		l-0.698,0.289c-12.537,5.154-23.461,15.839-29.84,29.015v-29.433l-16.328,1.676v11.648h3.419v40.731h-3.419v11.359h15.58
		l0.065-0.789c0.789-9.507,3.508-18.828,7.887-27.069l14.761,27.858h18.492L694.449,164.109z"/>
	<path fill="#F08600" d="M582.693,164.108l-11.595-41.182h8.482l1.67-11.627h-45.328l1.664,11.627h9.056l-11.436,41.182h-3.416
		l-3.154,11.362l16.505-0.006l3.455-13.176l10.27,7.216l10.299-7.151l3.64,13.112l16.46,0.006l-3.148-11.362H582.693z
		 M566.345,152.469l-7.286,5.183l-7.772-5.549l7.313-27.466L566.345,152.469z"/>
	<path fill="#F08600" d="M517.912,164.109l-6.002-54.912c2.088-0.725,5.26-1.319,7.684-1.655l0.833-0.109l-1.596-14.599h-0.775
		c-20.218,0-35.798,15.668-43.099,43.146c-7.039-27.478-22.533-43.146-42.881-43.146h-0.775l-1.596,14.599l0.833,0.109
		c2.424,0.336,5.596,0.931,7.687,1.655l-5.993,54.912h-5.124l-1.243,11.359h21.279l5.926-54.759
		c7.849,11.015,14.908,29.271,19.073,49.469l0.138,0.683h5.552l0.138-0.689c4.141-20.156,11.209-38.407,19.096-49.463l5.931,54.759
		h21.281l-1.24-11.359H517.912z"/>
	<path fill="#F08600" d="M618.379,136.947c-9.457-3.181-11.854-4.48-11.854-8.994c0-4.167,2.754-6.279,8.184-6.279
		c2.766,0,5.275,0.521,7.322,1.517c-0.872,1.549-1.39,3.673-1.576,6.456l-0.065,0.925h13.138l0.071-0.783
		c0.356-3.779,1.546-6.465,4.117-9.28l0.533-0.583l-0.542-0.586c-3.979-4.318-12.116-8.933-22.999-8.933
		c-13.312,0-21.582,6.933-21.582,18.08c0,12.679,8.394,16.366,20.248,20.183c10.264,3.287,12.14,5.516,12.14,8.721
		c0,5.012-2.939,7.348-9.251,7.348c-3.534,0-6.68-0.56-8.818-1.549c1.325-2.601,1.511-6.132,1.511-9.009v-0.863h-13.109v0.863
		c0,5.478-1.113,8.641-4.25,12.087l-0.533,0.583l0.539,0.586c3.988,4.312,12.378,8.927,23.979,8.927
		c15.073,0,23.717-7.115,23.717-19.511C639.301,144.851,630.236,140.882,618.379,136.947"/>
</g>
<g>
	<path fill="#FEEAC8" d="M345.82,76.176c-0.886-0.244-1.905-0.365-3.122-0.365l-6.953-0.006v0.003h-5.454v4.164
		c-1.791-2.135-3.973-3.658-6.255-4.285l-2.132-0.527v5.973l1.063,0.433c0.027,0.012,0.047,0.021,0.074,0.033l-0.374,7.584
		l-0.25,0.003l-0.003-0.006h-0.872l-2.153-7.64l1.552-0.003l0.825-5.728l-14.661-0.003l0.816,5.731h1.632l-2.12,7.646h-0.866
		l-1.573,5.657h7.11l0.648-2.48l1.805,1.269l1.764-1.225l0.677,2.433h4.515v0.006l1.682-0.006h0.786l4.253-0.009l0.274-6.915
		c0.833,1.726,1.464,3.605,1.835,5.531l0.274,1.387l6.382,0.009V94.83l2.545,0.006c6.771-0.003,10.814-5.996,10.814-11.792
		C350.356,79.312,348.83,77.003,345.82,76.176 M342.539,88.08v-6.429h0.109c0.542,0,0.975,0.041,1.272,0.121
		c0.262,0.077,0.406,0.115,0.406,1.137c0,1.705-0.377,3.181-1.09,4.267C342.999,87.535,342.772,87.829,342.539,88.08
		 M336.134,89.172v-7.519l0.236-0.003l0.233,0.003v7.519H336.134z M314.163,87.011l0.312-1.178l0.324,1.166l-0.33,0.233
		L314.163,87.011z"/>
	<path fill="#FEEAC8" d="M398.311,85.531l-3.835-0.003V83.44l3.528-0.047l0.056-1.467c0.032-0.795,0.188-1.225,0.695-1.882
		l0.883-1.131l-1.101-1.045c-1.664-1.59-3.693-2.368-6.202-2.368c-1.608,0-3.846,0.439-5.44,2.453v-2.232h-6.803v5.622l-2.041,0.931
		V75.73l-22.044-0.015l0.792,2.1c0.401,1.084,0.618,2.336,0.671,3.941l0.068,1.637h4.391l0.029,5.622h-1.829v5.728l9.577-0.003
		v-5.728l-1.82,0.003v-5.622l4.232-0.003v5.699h-0.866v5.666l6.797-0.012v-6.026l2.041-0.94v6.959l6.803,0.024V92.39
		c1.087,1.42,2.415,2.047,3.411,2.321c0.645,0.18,1.349,0.268,2.085,0.268h0.009c3.941,0,6.585-2.427,6.585-6.037
		c0-0.937-0.1-1.449-0.318-2.173L398.311,85.531z M392.224,81.355c-0.006,0.079-0.015,0.162-0.021,0.244l-0.032,0.56h-0.819
		C391.602,81.541,391.926,81.39,392.224,81.355 M393.19,88.47c0,0.342,0,0.666-0.919,0.666c-0.135,0-0.259-0.018-0.359-0.041
		c-0.377-0.106-0.604-0.654-0.745-1.275h1.932C393.163,88.052,393.19,88.244,393.19,88.47"/>
</g>
<g>
	<path fill="#F08600" d="M321.44,89.818h-0.869L317.7,79.619h2.129l0.457-3.172h-11.71l0.454,3.169h2.206l-2.833,10.202
		l-0.863,0.003l-0.863,3.101h4.435l0.863-3.307l2.586,1.814l2.512-1.744l0.898,3.234h4.326L321.44,89.818z M316.274,86.878
		l-1.805,1.284l-1.77-1.264l1.749-6.579L316.274,86.878z"/>
	<path fill="#F08600" d="M349.074,82.402c0-3.169-1.143-4.957-3.596-5.634c-0.775-0.212-1.682-0.318-2.777-0.318l-5.675-0.006v3.29
		l0.86-0.003v10.078l-0.866,0.003v3.098l2.521,0.009C345.511,92.916,349.074,87.568,349.074,82.402 M345.608,82.269
		c0,1.953-0.448,3.673-1.302,4.968c-0.863,1.317-1.723,2.012-3.048,2.439v-9.946h1.39c0.677,0,1.202,0.056,1.614,0.171
		C345.116,80.134,345.608,80.596,345.608,82.269"/>
	<path fill="#F08600" d="M327.393,83.025c2.038,2.642,3.519,5.999,4.203,9.53l0.071,0.353l4.047,0.009v-3.101h-0.86V79.73
		l0.86,0.003v-3.287h-4.147v7.245c-1.534-3.201-4.347-6.438-7.84-7.401l-0.545-0.135v3.475l0.277,0.115
		c0.309,0.127,0.624,0.289,0.895,0.456l-0.468,9.613l-0.878,0.006l-0.15,3.098l4.144-0.012L327.393,83.025z"/>
	<polygon fill="#F08600" points="381.372,81.523 376.772,83.623 376.772,76.369 372.531,76.36 372.531,79.644 373.396,79.644 
		373.396,89.731 372.531,89.728 372.531,92.835 376.772,92.826 376.772,87.257 381.372,85.137 381.372,92.821 385.619,92.835 
		385.619,89.731 384.75,89.731 384.75,79.644 385.619,79.644 385.619,76.363 381.372,76.363 	"/>
	<path fill="#F08600" d="M357.995,76.73c0.457,1.216,0.695,2.592,0.754,4.335l0.018,0.406l3.163,0.003l-0.006-0.262
		c-0.035-0.783-0.103-1.443-0.218-2l1.532,0.003v10.44h-1.826v3.166l7.018-0.003v-3.166l-1.817,0.003v-10.44h1.493
		c-0.091,0.521-0.15,1.122-0.18,1.823l-0.018,0.436l3.178-0.003l0.009-0.233c0.068-1.749,0.309-3.137,0.766-4.359l0.191-0.518
		l-14.198-0.006L357.995,76.73z"/>
	<path fill="#F08600" d="M393.455,81.474l3.319-0.003l0.009-0.23c0.041-1.063,0.292-1.749,0.966-2.627l0.168-0.212l-0.259-0.247
		c-1.423-1.361-3.145-2.017-5.322-2.017c-3.999,0.003-6.114,2.898-6.114,8.373c0,5.873,2.406,7.772,4.424,8.323
		c0.536,0.15,1.125,0.227,1.749,0.227c3.228,0.003,5.313-1.867,5.313-4.762c0-0.783-0.079-1.175-0.265-1.808l-0.091-0.318
		l-3.243-0.003l0.127,0.365c0.165,0.477,0.236,0.854,0.236,1.293c0,1.258-0.78,1.95-2.203,1.947c-0.25,0-0.483-0.029-0.692-0.086
		c-0.707-0.194-1.661-0.804-1.873-3.787l3.493,0.003v-3.101h-3.44c0.283-2.333,1.125-3.378,2.707-3.378
		c0.586,0,1.031,0.038,1.346,0.124c-0.183,0.459-0.295,0.951-0.327,1.487L393.455,81.474z"/>
</g>
<g>
	<polygon fill="#E9480C" points="718.422,167.715 718.419,167.715 718.419,167.718 716.487,172.56 714.552,167.715 712.967,167.715 
		712.967,175.47 714.552,175.47 714.552,170.613 715.906,174.012 717.067,174.012 718.419,170.619 718.419,175.47 720,175.47 
		720,167.715 	"/>
	<polygon fill="#E9480C" points="705.844,168.871 708.33,168.871 708.33,175.469 709.909,175.469 709.909,168.871 712.394,168.871 
		712.394,167.714 705.844,167.714 	"/>
</g>
<path fill="#FEEAC8" d="M188.251,1.77l348.181,1.458c0,0,27.119,3.39,27.119,31.471c0,0-4.839,30.026-28.085,30.026H184.858
	L188.251,1.77z"/>
<g>
	<path fill="#E9480C" d="M138.627,33.583c0,18.466,15.017,33.489,33.465,33.489c18.49,0,33.501-15.023,33.501-33.489
		c0-18.46-15.011-33.48-33.501-33.48C153.644,0.103,138.627,15.123,138.627,33.583"/>
	<path fill-rule="evenodd" clip-rule="evenodd" fill="#E9480C" d="M213.08,4.918h317.805l0.542-0.006
		c15.801,0,29.917,12.8,29.917,28.588c0,15.795-12.808,28.588-28.582,28.588l-0.336,0.024H213.08h-15.948
		c-0.922-0.009-1.779-0.074-3.561-0.074c-1.019,0-1.44-0.76-0.922-1.52c0.592-0.91,2.951-3.472,2.951-3.472l-23.64,9.946h360.81
		h-0.009c18.492,0,33.492-14.991,33.492-33.492C566.253,15,551.254,0,532.761,0l-0.96,0.032H171.961l23.64,9.955
		c0,0-2.359-2.559-2.951-3.466c-0.518-0.76-0.097-1.517,0.922-1.517c1.782,0,2.639-0.074,3.561-0.086H213.08z"/>
</g>
<path fill-rule="evenodd" clip-rule="evenodd" fill="#FEEAC8" d="M147.534,49.942c0.722,1.081,2.733,3.148,4.341,4.15
	c2.438,1.523,7.148,2.359,11.121,1.717c6.138-0.998,9.021-3.051,12.072-4.874c3.723-2.215,6.612-4.394,11.295-5.069
	c1.157-0.165,2.712-0.271,4.918,0.356c2.898,0.833,4.998,2.824,5.142,4.102v-0.003c3.246-4.765,5.192-10.567,5.192-16.722
	c0-16.281-13.238-29.522-29.522-29.522c-7.869,0-15.279,3.063-20.875,8.656c-5.566,5.578-8.632,12.994-8.632,20.866
	C142.586,38.067,143.576,43.972,147.534,49.942"/>
<path fill-rule="evenodd" clip-rule="evenodd" fill="#E9480C" d="M157.675,47.021c0,0,0.286-1.216,0.507-2.453
	c0.424-3.066,0.545-6.662,0.283-12.402c-0.283-6.129-0.607-10.912-1.576-15.362c-0.919-4.397-0.598-5.384,1.596-6.282
	c2.695-1.116,6.4-3.089,13.577-2.801c8.105,0.327,15.126,3.013,17.945,4.833c2.78,1.823,2.954,2.056,1.655,5.572
	c-1.313,3.508-2.854,10.673-3.089,14.681c-0.171,3.425-0.462,7.787-0.486,10.438l-0.038,0.059c-0.836,0.038-2.306,0.339-3.216,0.648
	c-3.599,1.21-6.674,2.783-9.984,5.092c-3.958,2.742-7.498,4.86-11.987,5.513c-6.182,0.869-9.103-0.371-11.321-2.129
	c-2.341-1.885-3.363-4.518-2.359-6.038c0.951-1.437,2.948-1.782,5.401-1.113C155.499,45.719,156.853,46.07,157.675,47.021"/>
<path fill="#FEEAC8" d="M165.061,19.97c0.91,3.154,0.076,13.981,0.041,15.341c-0.044,1.461-0.265,3.172-1.305,4.35
	c-0.883,0.99-1.632,1.411-1.632,1.411l1.632,2.506c0,0,2.412-1.325,4.438-1.697c3.122-0.583,3.82,1.269,7.354,1.564
	c4.111,0.33,6.585-2.533,7.089-5.666c0.533-3.308-1.072-5.97-3.64-6.921c-2.709-1.01-5.987-0.138-6.715,2.527
	c-0.483,1.767,0.663,3.325,1.841,3.622c2.5,0.645,3.042-1.685,3.042-1.685s-0.58,0.819-1.664,0.315
	c-0.56-0.28-0.733-1.243-0.468-1.858c0.439-1.051,1.976-1.8,3.67-1.249c2.011,0.645,2.951,2.748,2.845,4.58
	c-0.162,2.4-1.422,4.474-3.999,4.73c-2.091,0.212-4.185-1.782-5.873-2.283c-2.3-0.677-4.088-0.077-6.406,1.405
	c0,0,3.399-4.945,3.375-8.665c-0.029-3.681-1.826-10.729-1.473-12.997c0.124-0.763,0.577-2.179,2.565-2.88
	c2.238-0.778,3.519,0.828,3.163,1.682c-0.286,0.68,1.478-0.224,1.478-1.484c0-2.253-3.387-4.138-6.562-1.773
	c-3.039,2.277-4.756,2.548-4.756,2.548S164.678,18.645,165.061,19.97"/>
<path fill-rule="evenodd" clip-rule="evenodd" fill="#FEEAC8" d="M193.086,54.332c-5.298,5.396-12.802,8.712-20.993,8.788
	c-10.308,0.1-17.232-5.622-17.232-5.622s1.817,0.624,4.338,0.601c8.797-0.062,15.338-4.262,19.19-5.781
	c4.512-1.749,8.771-2.842,11.81,0.56c0.704,0.795,1.817,1.517,2.886,1.458V54.332z"/>
<g>
	<path fill="#E9480C" d="M436.426,41.987c0.021-0.259-0.315-0.465-0.616-0.53c-0.427-0.074-0.563,0.024-0.795,0.595
		c-0.507,1.205-1.788,4.441-2.713,5.384c-1.596,1.599-3.089,1.802-4.368,2.088c-0.51,0.112-1.944,0.059-3.231,0.088
		c-1.805,0.032-2.483-0.554-2.483-0.554c-0.866-1.985-0.409-12.14-0.203-23.098c0.18-9.719,0.244-10.959,0.524-11.395
		c0.298-0.442,0.457-0.412,1.829-0.489c1.169-0.065,1.723-0.124,2.112-1.299l0.224-1.258h-16.722c0,0-0.239,1.573,0.96,2.253
		c0.168,0.088,0.833,0.121,1.372,0.121c1.16,0,1.726,0.842,2.1,1.964c0.297,0.892,1.16,11.035,1.057,23.902l-0.663,9.642
		c0,1.29-0.18,2.654-2.68,3.078c-0.256,0.041-0.892,0.224-1.157,0.489c-0.509,0.512-0.412,0.91,0.053,1.343
		c0.318,0.283,2.291,0.141,10.941,0.141c8.85,0,10.279-0.015,10.081,1.629c-0.091,0.778,0.227,1.113,0.539,1.178
		c1.066,0.191,1.493-1.52,1.493-1.52C434.75,53.099,436.352,43.692,436.426,41.987"/>
	<path fill="#E9480C" d="M435.543,54.209h9.036c0,0,0.065-0.495,0.065-0.81c0-0.507-0.309-0.613-0.898-0.613
		c-1.747,0-1.964-1.608-1.964-2.648c0-1.478,0.315-4.353,0.719-4.857c0.73-0.916,5.151-0.365,5.151-0.365
		c1.59-0.077,1.92,0.875,2.453,3.069c0.28,1.196,0.345,1.979,0.377,2.645c0.062,1.163-0.165,1.608-0.501,1.976
		c-0.227,0.262-0.536,0.38-0.825,0.324c-0.571-0.109-0.931,0.283-0.845,0.91l0.068,0.368h10.225c0,0,0.286-0.521,0.286-0.839
		c0-0.507-0.088-0.583-0.598-0.583c-1.343,0-2.453-2.574-4.494-10.384c-0.241-0.951-0.53-1.961-0.618-2.238
		c-0.091-0.28-0.362-1.334-0.601-2.335c-0.239-1.013-0.613-2.565-0.822-3.461c-0.486-2.038-1.216-5.575-1.917-9.227
		c-0.351-1.852-0.598-2.951-0.978-2.954c-0.144,0-1.066,0.725-2.05,1.034c-2.006,0.619-2.215,0.836-2.586,2.651
		c-0.35,1.708-1.028,4.81-1.243,5.643c-0.919,3.64-3.375,12.994-3.626,13.948c-0.489,1.882-1.16,4.132-1.431,4.78
		c-0.091,0.221-0.221,0.727-0.415,1.06c-0.848,1.484-1.096,1.231-1.773,1.484C435.063,53.031,435.543,54.209,435.543,54.209
		 M443.139,42.031c-0.404-0.448-0.412-0.992-0.038-2.48c0.153-0.61,0.636-2.53,1.075-4.253c0.489-1.929,0.913-3.216,1.11-3.34
		c0.515-0.333,0.951-0.006,1.087,0.819c0.071,0.424,1.225,4.276,1.961,7.045c0.227,0.851,0.356,1.997-0.247,2.271
		c-1.225,0.554-3.546,0.368-3.923,0.368C444.022,42.461,443.322,42.237,443.139,42.031"/>
	<path fill="#E9480C" d="M539.445,42.031c-0.318-0.397-0.851-0.922-2.403-3.29c-0.389-0.589-0.839-1.487-1.096-1.929
		c-1.375-2.35-3.852-7.899-4.662-9.763c-0.707-1.635-0.722-2.221-0.032-2.474c0.395-0.159,0.798-0.339,0.798-0.907v-0.701h-10.711
		c0,0-0.563,1.193,0.624,1.608c0.309,0.103,0.866,0.215,1.193,0.495c1.125,0.954,1.166,2.168,1.116,13.268
		c-0.018,5.543-0.1,10.985-0.1,12.107c0,1.048-0.409,1.941-1.039,2.171c-0.303,0.109-0.922,0.262-1.131,0.474
		c-0.453,0.463-0.374,1.057-0.374,1.057h8.193c0,0,0.05-1.057-0.516-1.237c-0.777-0.244-1.428-0.38-2.05-1.823
		c-0.451-1.034-0.468-1.207-0.483-9.392l-0.009-9.76c0-0.53,0.707-0.041,0.707-0.041c0.436,0.613,0.869,1.735,2.283,4.491
		c0.28,0.554,6.049,11.027,7.345,12.938c0.645,0.948,1.314,1.967,1.508,2.241c0.754,1.169,1.581,2.43,2.356,3.419
		c0.386,0.498,0.863,1.178,1.561,1.178c0.306,0,0.722-0.233,0.666-1.037c-0.018-0.448-0.141-3.06-0.25-5.802
		c-0.218-5.442,0.053-21.994,0.386-23.425c0.236-0.934,0.722-1.487,1.534-1.62c0.739-0.118,0.775-1.311,0.775-1.311h-8.947
		c0,0-0.56,0.995,1.355,1.369c1.219,0.242,2.07,0.863,2.07,3.334c0,0.713,0.174,4.851,0.13,8.326l-0.05,6.302
		C540.19,42.882,539.689,42.341,539.445,42.031"/>
	<path fill="#E9480C" d="M471.428,53.401c-0.183-0.612-0.636-0.533-1.096-0.612c-0.289-0.056-0.928,0.118-1.358-0.863
		c-0.456-1.022-0.492-1.367-0.592-6.93l0.038-5.723c0,0,0.062-0.657,0.557-1.361c0.987-1.408,2.138-3.175,2.636-4.173
		c1.016-1.982,2.156-4.609,3.31-7.383c0.539-1.26,0.736-1.908,1.166-1.908c0.301,0,0.504-0.448,0.504-1.098v-0.38h-8.426
		c0,0-0.498,0.392-0.418,0.937c0.053,0.374,0.512,0.601,1.228,0.618c1.478,0.033,1.493,0.412,1.596,1.467
		c0.082,0.866-0.454,3.131-0.742,4.064c-0.789,2.577-2.424,5.257-2.939,5.31c-0.486,0.044-0.557-0.115-0.766-0.309
		c-0.389-0.356-0.613-0.772-0.81-1.222c-0.736-1.649-1.154-2.474-1.661-4.1c-0.515-1.67-1.269-4.212-1.199-4.698
		c0.05-0.383,0.206-0.498,0.73-0.542c0.736-0.077,0.963-1.526,0.963-1.526h-9.589c0,0-0.362,1.526,0.512,1.705
		c0.35,0.074,0.839,0.297,1.057,0.509c0.427,0.374,1.908,4.833,2.963,6.759c1.104,2.009,3.384,5.958,3.617,6.462
		c0.383,0.839,0.713,2.433,0.692,6.238c-0.012,2.297-0.085,4.942-0.162,5.876c-0.118,1.623-0.153,1.714-0.772,2.091
		c-0.356,0.224-0.866,0.236-1.296,0.424c-0.719,0.303-0.48,1.143-0.48,1.143h10.632L471.428,53.401z"/>
	<path fill="#E9480C" d="M270.378,54.243c3.033-1.408,4.907-3.399,6.294-6.685c0.489-1.166,1.166-2.833,1.523-5.154
		c0.3-1.964,0.3-5.731-0.227-8.14c-0.259-1.172-0.68-2.989-1.24-4.214c-0.816-1.803-2.224-3.472-3.322-4.456
		c-1.352-1.219-3.493-2.18-6.344-2.303c-0.842-0.032-2.977,0.153-4.285,0.916c-4.356,2.53-5.658,6.671-6.014,7.56
		c-0.671,1.702-1.072,3.917-1.29,6.482c-0.165,1.982,0.465,6.176,1.234,8.22c1.664,4.397,5.068,7.713,8.626,8.367
		C266.794,55.103,268.614,55.111,270.378,54.243 M264.111,50.334c-0.783-0.789-1.585-1.758-2-2.833
		c-1.034-2.63-1.517-6.73-1.228-10.791c0.462-6.408,2.745-10.393,5.955-10.384c2.595,0,4.518,2.138,5.622,6.235
		c0.598,2.221,0.754,9.101,0.321,11.674c-0.345,2.212-0.848,3.649-1.143,4.179c-0.993,1.782-2.754,3.001-3.466,3.151
		C266.529,51.922,265.489,51.698,264.111,50.334"/>
	<path fill="#E9480C" d="M368.801,54.243c3.028-1.408,4.907-3.399,6.288-6.685c0.486-1.166,1.166-2.833,1.526-5.154
		c0.306-1.964,0.306-5.731-0.227-8.14c-0.253-1.172-0.677-2.989-1.24-4.214c-0.822-1.803-2.227-3.472-3.322-4.456
		c-1.346-1.219-3.496-2.18-6.35-2.303c-0.825-0.032-2.972,0.153-4.282,0.916c-4.356,2.53-5.661,6.671-6.011,7.56
		c-0.663,1.702-1.075,3.917-1.29,6.482c-0.159,1.982,0.462,6.176,1.237,8.22c1.652,4.397,5.066,7.713,8.62,8.367
		C365.217,55.103,367.043,55.111,368.801,54.243 M362.531,50.334c-0.783-0.789-1.576-1.758-2.009-2.833
		c-1.022-2.63-1.511-6.73-1.219-10.791c0.465-6.408,2.751-10.393,5.955-10.384c2.598,0,4.518,2.138,5.619,6.235
		c0.604,2.221,0.763,9.101,0.333,11.674c-0.362,2.212-0.857,3.649-1.149,4.179c-0.993,1.782-2.757,3.001-3.455,3.151
		C364.946,51.922,363.906,51.698,362.531,50.334"/>
	<path fill="#E9480C" d="M327.744,54.383c3.299-1.231,5.46-4.659,5.446-9.097c0-1.817-0.353-3.522-1.037-4.818
		c-1.045-1.979-2.109-2.977-5.192-4.88c-4.986-3.066-5.172-3.225-5.484-4.609c-0.495-2.194,0.43-4.005,2.282-4.477
		c2.182-0.566,4.371,0.63,5.631,3.732c0.345,0.866,0.377,2.02,0.48,2.268c0.25,0.598,1.166,0.542,1.231-0.18
		c0.053-0.548,0-1.802,0-2.212c0-1.476,0.227-2.715,0.424-4.762c0.236-2.389-0.141-2.945-0.916-1.932
		c-0.574,0.751-1.411,1.001-1.906,0.736c-0.451-0.253-2.085-0.801-3.587-0.863c-0.61-0.018-2.497,0.08-3.537,0.615
		c-1.078,0.551-2.206,1.458-3.198,3.137c-0.789,1.349-1.028,3.19-1.043,4.659c-0.018,1.705,0.415,3.113,1.107,4.491
		c0.554,1.107,2.707,3.134,5.098,4.668c1.102,0.704,2.147,1.319,2.662,1.62c1.308,0.757,2.212,1.667,2.683,2.498
		c0.554,0.987,0.954,2.07,0.801,3.137c-0.247,1.717-0.863,2.58-1.655,3.069c-0.86,0.527-1.723,0.683-2.972,0.654
		c-0.998-0.029-1.823-0.471-2.683-1.087c-1.658-1.193-2.665-2.768-3.34-4.494c-0.23-0.604-0.636-2.221-0.719-2.453
		c-0.212-0.542-1.081-0.436-1.346,0.15c-0.094,0.224,0.029,2.359,0.13,3.699c0.127,1.626-0.156,4.105-0.318,5.619
		c-0.138,1.287-0.807,1.908,0.186,2.462c0.442,0.248,0.975-1.019,1.196-1.729c0.177-0.548,0.474-1.216,0.901-1.266
		c0.303-0.035,0.71,0.065,0.889,0.224c0.51,0.421,2.188,1.287,3.216,1.537C325.2,54.995,327.017,54.66,327.744,54.383"/>
	<path fill="#E9480C" d="M346.117,54.383c3.29-1.231,5.46-4.659,5.448-9.097c-0.003-1.817-0.356-3.522-1.037-4.818
		c-1.046-1.979-2.109-2.977-5.21-4.88c-4.977-3.066-5.16-3.225-5.475-4.609c-0.498-2.194,0.427-4.005,2.285-4.477
		c2.173-0.566,4.368,0.63,5.625,3.732c0.347,0.866,0.386,2.02,0.489,2.268c0.244,0.598,1.154,0.542,1.231-0.18
		c0.047-0.548,0-1.802,0-2.212c0-1.476,0.221-2.715,0.424-4.762c0.242-2.389-0.153-2.945-0.913-1.932
		c-0.58,0.751-1.417,1.001-1.914,0.736c-0.451-0.253-2.091-0.801-3.584-0.863c-0.607-0.018-2.5,0.08-3.543,0.615
		c-1.075,0.551-2.2,1.458-3.187,3.137c-0.798,1.349-1.028,3.19-1.046,4.659c-0.018,1.705,0.415,3.113,1.104,4.491
		c0.56,1.107,2.704,3.134,5.098,4.668c1.096,0.704,2.141,1.319,2.665,1.62c1.316,0.757,2.215,1.667,2.683,2.498
		c0.557,0.987,0.945,2.07,0.792,3.137c-0.236,1.717-0.857,2.58-1.658,3.069c-0.857,0.527-1.723,0.683-2.96,0.654
		c-0.998-0.029-1.829-0.471-2.683-1.087c-1.664-1.193-2.662-2.768-3.34-4.494c-0.236-0.604-0.627-2.221-0.722-2.453
		c-0.209-0.542-1.081-0.436-1.346,0.15c-0.106,0.224,0.032,2.359,0.13,3.699c0.127,1.626-0.165,4.105-0.321,5.619
		c-0.127,1.287-0.795,1.908,0.191,2.462c0.445,0.248,0.966-1.019,1.196-1.729c0.18-0.548,0.477-1.216,0.901-1.266
		c0.312-0.035,0.707,0.065,0.881,0.224c0.515,0.421,2.203,1.287,3.228,1.537C343.581,54.995,345.38,54.66,346.117,54.383"/>
	<path fill="#E9480C" d="M221.901,51.414c-0.701-1.361-0.942-2.397-0.942-10.658V33.74l1.62-0.141
		c5.602-0.474,10.096-3.284,12.305-8.341c1.152-2.633,1.561-7.189,0.83-9.716c-0.454-1.549-1.043-2.975-2.433-4.029
		c-1.001-0.76-2.141-0.99-4.079-1.049c-1.487-0.041-2.044,0.115-4.418,0.392c-3.805,0.442-6.95,0.854-9.486,0.854h-4.721l-0.2,0.468
		c-0.303,0.4-0.454,0.816-0.277,1.213c0.206,0.442,0.297,0.312,1.414,0.312c1.493,0,1.905,0.197,2.203,1.06
		c0.462,1.311,0.639,7.869,0.618,22.259l-0.029,12.299c0,1.661-0.327,2.333-0.607,2.544c-0.433,0.324-0.878,0.324-1.281,0.324
		c-0.993,0-1.514,0.253-1.82,0.718c-0.386,0.607,0.244,1.187,0.244,1.187h15.108c0.277-0.336,0.1-1.219-0.177-1.402
		c-0.33-0.224-0.615-0.4-1.555-0.4C223.651,52.294,222.249,52.082,221.901,51.414 M221.289,30.768l-0.309-0.188l-0.05-7.64
		c0-3.363-0.041-5.39,0.029-6.285c0.124-1.555,0.433-1.64,1.019-1.914c0.972-0.477,3.596-0.604,4.686-0.191
		c2.807,1.075,3.855,3.066,3.634,7.675c-0.083,2-0.872,3.885-1.261,4.524c-0.707,1.187-1.428,1.847-2.209,2.433
		c-0.663,0.498-1.932,1.381-3.322,1.596C222.841,30.889,222.031,30.951,221.289,30.768"/>
	<path fill="#E9480C" d="M247.5,38.552c2.032-1.169,3.522-2.621,4.536-4.936c0.816-1.876,1.107-5.104,0.586-6.889
		c-0.321-1.104-0.739-2.123-1.72-2.86c-0.71-0.542-1.531-0.704-2.904-0.748c-1.051-0.026-1.446,0.083-3.128,0.277
		c-2.704,0.309-4.936,0.61-6.73,0.61h-3.352l-0.147,0.33c-0.206,0.292-0.321,0.577-0.186,0.863c0.141,0.309,0.209,0.215,0.998,0.215
		c1.06,0,1.352,0.144,1.573,0.763c0.324,0.922,0.445,5.575,0.43,15.783l-0.035,8.732c0,1.172-0.227,1.646-0.418,1.802
		c-0.306,0.239-0.618,0.23-0.904,0.23c-0.701,0-1.072,0.174-1.29,0.504c-0.274,0.436,0.159,0.845,0.159,0.845h10.729
		c0.188-0.236,0.068-0.866-0.13-0.998c-0.227-0.156-0.43-0.271-1.101-0.271c-0.412,0-1.405-0.156-1.646-0.633
		c-0.492-0.969-0.66-1.702-0.66-7.569V39.63l0.786-0.053c0.937,0.121,1.864,1.867,2.645,3.502c0.863,1.776,2.777,6.094,4.606,12.405
		c1.11,3.802,3.69,5.466,5.661,5.466c1.172,0,3.007-0.86,3.625-3.808c0.159-0.763-0.618-1.352-1.172-1.104
		c-0.327,0.144-0.424,0.624-0.548,1.104c-0.253,0.919-1.157,1.596-1.841,1.596c-1.42,0-3.443-3.502-3.387-8.046
		c0.08-5.407-0.798-8.726-2.147-9.893c-1.788-1.54-2.3-1.075-2.824-1.29C247.256,39.385,247.138,38.755,247.5,38.552 M242.39,37.527
		l-0.224-0.141l-0.032-5.413c0-2.391-0.029-3.829,0.027-4.456c0.082-1.104,0.3-1.163,0.71-1.367
		c0.692-0.336,2.556-0.418,3.331-0.127c1.991,0.754,2.745,2.171,2.58,5.437c-0.056,1.417-0.621,2.757-0.892,3.21
		c-0.507,0.842-1.013,1.317-1.579,1.726c-0.465,0.347-1.361,0.981-2.341,1.134C243.486,37.607,242.912,37.651,242.39,37.527"/>
	<path fill="#E9480C" d="M294.853,32.199c0,0-1.104-0.492-1.596,0.554c-0.233,0.498,0.121,1.475-0.247,2.212
		c-0.371,0.733-2.757,0.801-3.746,0.801c-0.99,0-2.28,0.3-2.645-0.801c-0.362-1.104,0.253-6.264,0.253-6.568
		c0-0.318-0.13-0.563,0.548-0.748c0.674-0.18,4.176-0.241,5.345,0.25c1.169,0.498,0.25,1.534,0.922,2.091
		c0.674,0.548,1.107,0.427,1.293-0.618c0.18-1.043,0.062-1.723,0.056-2.636c-0.012-4.253,0.412-4.989-0.071-4.989
		c-0.268,0-0.38,0.268-0.619,0.686c-0.471,0.798-0.521,1.225-8.243,1.24c-6.394,0.018-7.021,0.047-7.266,0.365
		c-0.156,0.2-0.256,0.539-0.23,0.76c0.038,0.327,0.345,0.418,1.199,0.521c0.571,0.068,1.043,0.221,1.16,0.271
		c0.984,0.4,0.754,16.451,0.754,16.451l-0.018,8.726c0,1.172-0.233,1.649-0.421,1.802c-0.306,0.233-0.63,0.233-0.904,0.233
		c-0.707,0-1.084,0.174-1.296,0.507c-0.274,0.427,0.165,0.839,0.165,0.839h10.72c0.189-0.235,0.08-0.866-0.118-0.998
		c-0.236-0.15-0.445-0.277-1.11-0.277c-0.409,0-1.396-0.15-1.649-0.624c-0.492-0.969-0.663-1.702-0.663-7.56l0.074-1.057
		c0-3.19,0.056-3.87,0.306-4.088c0.427-0.351,5.949-0.545,6.329-0.165c0.141,0.153,0.05,0.813,0.362,1.358
		c0.25,0.433,0.436,0.795,1.21,1.007l0.583-0.071l-0.277-2.942C294.874,36.479,294.853,32.199,294.853,32.199"/>
	<path fill="#E9480C" d="M310.948,54.161c1.579,0.091,1.272,1.655,1.296,1.876c0.056,0.545,0.984,1.045,1.228,0.183
		c1.134-3.985,1.473-8.352,1.473-8.844c0-0.495-0.056-1.107-0.498-1.046c-0.722,0.112-0.854,0.857-1.219,1.723
		c-0.321,0.733-0.674,1.528-1.358,1.964c-1.151,0.727-5.952,0.798-6.512,0.674c-0.548-0.121-0.498-4.541-0.439-6.002l0.074-1.057
		c0-3.19,0.044-3.87,0.306-4.088c0.433-0.353,5.949-0.545,6.329-0.165c0.144,0.153,0.047,0.813,0.365,1.358
		c0.241,0.433,0.433,0.795,1.21,1.007l0.583-0.071l-0.28-2.942c-0.144-2.253-0.162-6.532-0.162-6.532s-1.11-0.495-1.599,0.554
		c-0.236,0.498,0.121,1.476-0.244,2.212c-0.368,0.733-2.757,0.801-3.746,0.801c-0.984,0-2.274,0.3-2.639-0.801
		c-0.368-1.104,0.241-6.264,0.241-6.568c0-0.318-0.118-0.562,0.557-0.748c0.677-0.18,4.179-0.242,5.339,0.25
		c1.172,0.498,0.247,1.534,0.922,2.088c0.683,0.551,1.107,0.427,1.296-0.616c0.183-1.043,0.062-1.723,0.059-2.639
		c-0.015-4.25,0.409-4.986-0.077-4.986c-0.259,0-0.374,0.268-0.615,0.686c-0.483,0.798-0.521,1.225-8.238,1.24
		c-6.394,0.018-7.021,0.047-7.271,0.365c-0.147,0.2-0.253,0.539-0.224,0.76c0.038,0.327,0.345,0.418,1.187,0.521
		c0.571,0.068,1.037,0.221,1.166,0.271c0.984,0.401,0.757,16.451,0.757,16.451l-0.024,8.726c0,1.172-0.233,1.649-0.427,1.8
		c-0.303,0.235-0.621,0.235-0.904,0.235c-0.707,0-1.081,0.174-1.29,0.507c-0.274,0.427,0.174,0.839,0.174,0.839h10.711
		C308.456,54.15,310.144,54.114,310.948,54.161"/>
	<path fill="#E9480C" d="M390.091,38.552c2.029-1.169,3.516-2.621,4.53-4.936c0.819-1.876,1.104-5.104,0.589-6.889
		c-0.321-1.104-0.748-2.123-1.723-2.86c-0.713-0.542-1.531-0.704-2.895-0.748c-1.06-0.026-1.455,0.083-3.128,0.277
		c-2.709,0.309-4.933,0.61-6.741,0.61h-3.346l-0.135,0.33c-0.218,0.292-0.327,0.577-0.2,0.863c0.141,0.309,0.206,0.215,1.001,0.215
		c1.06,0,1.355,0.144,1.567,0.763c0.324,0.922,0.451,5.575,0.427,15.783l-0.021,8.732c0,1.172-0.227,1.646-0.424,1.802
		c-0.309,0.239-0.619,0.23-0.91,0.23c-0.698,0-1.072,0.174-1.287,0.504c-0.274,0.436,0.165,0.845,0.165,0.845h10.726
		c0.194-0.236,0.068-0.866-0.13-0.998c-0.227-0.156-0.43-0.271-1.099-0.271c-0.406,0-1.408-0.156-1.649-0.633
		c-0.495-0.969-0.668-1.702-0.668-7.569V39.63l0.801-0.053c0.925,0.121,1.861,1.867,2.642,3.502
		c0.863,1.776,2.777,6.094,4.609,12.405c1.107,3.802,3.678,5.466,5.646,5.466c1.178,0,3.016-0.86,3.628-3.808
		c0.156-0.763-0.613-1.352-1.166-1.104c-0.327,0.144-0.421,0.624-0.548,1.104c-0.247,0.919-1.163,1.596-1.838,1.596
		c-1.422,0-3.443-3.502-3.384-8.046c0.071-5.407-0.804-8.726-2.15-9.893c-1.791-1.54-2.303-1.075-2.833-1.29
		C389.841,39.385,389.729,38.755,390.091,38.552 M384.976,37.527l-0.221-0.141l-0.041-5.413c0-2.391-0.027-3.829,0.027-4.456
		c0.088-1.104,0.306-1.163,0.722-1.367c0.695-0.336,2.556-0.418,3.325-0.127c1.994,0.754,2.733,2.171,2.586,5.437
		c-0.065,1.417-0.633,2.757-0.907,3.21c-0.504,0.842-1.01,1.317-1.561,1.726c-0.474,0.347-1.369,0.981-2.344,1.134
		C386.08,37.607,385.506,37.651,384.976,37.527"/>
	<path fill="#E9480C" d="M490.238,37.267c-0.015-5.319,0.062-9.919,0.062-9.919s1.54-0.026,2.577,0
		c0.933,0.021,1.496,0.501,1.844,0.733c0.613,0.421,0.872,0.866,1.004,2.63c0.094,1.367,0.224,2.103,0.792,2.329
		c0.775,0.301,0.922-0.454,0.863-4.341c-0.024-2.436,0.024-3.066,0.106-4.362c0.062-0.981,0.047-1.629,0.047-1.844
		c0-0.589-0.565-0.486-1.157,0.212c-0.289,0.333-0.86,0.462-1.358,0.613c-0.171,0.062-0.669,0.088-2.02,0.094
		c-1.051,0.006-2.833-0.256-5.227-0.271c-1.42-0.018-2.026,0.183-2.998,0.271c-0.672,0.062-1.526,0.218-2.595,0.218
		c-1.534,0-2.444-0.156-3.072-0.822c-0.409-0.442-0.739-0.624-0.851-0.624c-0.424,0.003-0.613,0.442-0.406,1.24
		c0.118,0.415,0.236,2.654,0.274,4.971c0.024,2.309,0.121,4.297,0.188,4.421c0.08,0.124,0.359,0.224,0.616,0.224
		c0.607,0,0.501-0.412,0.901-2.539c0.206-1.069,0.138-1.631,0.816-2.085c0.904-0.61,2.1-0.937,3.475-0.96l1.125-0.006l0.056,10.376
		c-0.035,2.182-0.041,5.186,0.012,6.774c0.079,2.3-0.094,4.942-0.165,5.872c-0.124,1.623-0.159,1.72-0.769,2.097
		c-0.359,0.224-0.866,0.233-1.293,0.418c-0.716,0.306-0.492,1.149-0.492,1.149h10.838l-0.097-0.775
		c-0.174-0.621-0.639-0.53-1.093-0.621c-0.295-0.053-0.937,0.121-1.358-0.863c-0.457-1.013-0.516-1.361-0.595-6.924
		C490.279,44.188,490.238,38.775,490.238,37.267"/>
	<path fill="#E9480C" d="M513.252,53.754c3.031-1.399,4.909-3.396,6.297-6.679c0.492-1.175,1.163-2.83,1.52-5.157
		c0.312-1.967,0.312-5.731-0.221-8.137c-0.262-1.181-0.674-2.992-1.231-4.217c-0.828-1.802-2.235-3.469-3.337-4.459
		c-1.352-1.222-3.493-2.176-6.338-2.297c-0.83-0.035-2.977,0.153-4.282,0.913c-4.365,2.524-5.663,6.671-6.005,7.56
		c-0.677,1.705-1.081,3.926-1.296,6.482c-0.168,1.979,0.454,6.17,1.228,8.226c1.661,4.391,5.069,7.701,8.629,8.355
		C509.679,54.611,511.499,54.626,513.252,53.754 M507.005,49.843c-0.792-0.783-1.593-1.752-2.009-2.83
		c-1.037-2.627-1.523-6.73-1.24-10.794c0.465-6.403,2.751-10.381,5.952-10.373c2.603,0,4.524,2.129,5.625,6.226
		c0.598,2.224,0.763,9.101,0.339,11.683c-0.365,2.212-0.863,3.646-1.155,4.167c-0.987,1.791-2.742,3.013-3.452,3.157
		C509.417,51.436,508.372,51.215,507.005,49.843"/>
</g>
<g>
</g>
<g>
</g>
<g>
</g>
<g>
</g>
<g>
</g>
<g>
</g>
<g>
</g>
<g>
</g>
<g>
</g>
<g>
</g>
<g>
</g>
<g>
</g>
<g>
</g>
<g>
</g>
<g>
</g>
</svg>
