<?xml version="1.0" encoding="utf-8"?>
<!-- Generator: Adobe Illustrator 27.2.0, SVG Export Plug-In . SVG Version: 6.00 Build 0)  -->
<svg version="1.1" id="레이어_1" xmlns="http://www.w3.org/2000/svg" xmlns:xlink="http://www.w3.org/1999/xlink" x="0px"
	 y="0px" viewBox="0 0 720 86.198" enable-background="new 0 0 720 86.198" xml:space="preserve">
<path fill="#09070D" d="M81.197,83.311c0,1.666-1.998,2.221-9.775,2.221c-8.776,0-16.662-2.333-22.547-9.885
	c-6.887-8.889-12.775-23.885-18.551-29.883c-0.777-0.777-1.779-1.221-2.888-1.221h-0.335c-1.109,0-1.776,0.11-2.665,0.11
	c-0.889,0-1.112,0.335-1.112,1.112c0,4.999,0,13.107,0.222,17.661c0.445,15.331,0.557,17.107,10.887,17.996
	c0.777,0.667,0.999,1.331,0.999,1.889c0,0.777-0.445,1.444-1.109,1.444c-0.113,0-9.221-0.667-18.886-0.667
	c-4.776,0-9.775,0.11-13.771,0.667H1.331c-0.667,0-0.999-0.445-0.999-1.112c0-0.777,0.445-1.666,1.112-2.221
	c9.217-0.999,9.108-2.001,9.217-17.774c0.113-5.108,0.222-19.882,0.222-30.659c0-4.776,0-8.885-0.11-10.884
	C10.329,8.221,10.552,8.776,0.999,6.997C0.332,6.555,0,5.888,0,5.221c0-0.777,0.554-1.556,1.109-1.556h0.113
	c3.664,0.222,6.887,0.335,9.885,0.335c6.111,0,11.554-0.335,18.328-0.667c0.999,0,2.001-0.11,3.11-0.11
	c14.551,0,28.216,4.664,28.216,19.55c0,12.105-9.221,16.55-17.997,18.993c-0.445,0.113-0.554,0.222-0.554,0.445
	c0,0.222,0.222,0.445,0.445,0.78c6.775,7.106,11.883,20.659,19.215,28.88c4.999,5.553,9.443,9.44,17.774,9.997
	C80.643,81.977,81.197,82.644,81.197,83.311 M29.657,6.665c-5.666,0-6.22,1.889-6.22,9.33c0,1.222,0,2.665-0.113,4.444v18.883
	c0,1.444,0.222,2.111,0.889,2.111c10.11-0.113,22.995-2.888,22.995-16.33C47.209,20.662,45.765,6.665,29.657,6.665"/>
<path fill="#09070D" d="M173.924,83.311c0,0.777-0.445,1.553-1.776,1.553c-0.113,0-8.331-0.777-16.997-0.777
	c-4.109,0-8.218,0.11-11.664,0.667h-0.222c-0.664,0-0.999-0.558-0.999-1.112c0-0.777,0.335-1.666,1.112-2.111
	c4.554-0.667,6.665-1.666,6.665-4.222c0-2.221-6.443-20.994-7.999-24.994c-0.332-0.999-1.331-0.999-2.221-0.999
	c-3.89-0.222-7.886-0.445-11.776-0.445c-9.44,0-10.439,0.113-11.219,2.556c-1.666,5.334-6.33,19.105-6.997,22.106
	c-0.113,0.445-0.113,0.889-0.113,1.334c0,3.332,3.223,3.996,7.777,4.554c0.777,0.664,1.112,1.444,1.112,2.111
	c0,0.777-0.445,1.444-1.221,1.444c-0.113,0-5.666-0.889-12.331-0.889c-3.332,0-6.887,0.222-10.22,0.889H94.28
	c-1.002,0-1.444-0.558-1.444-1.334s0.442-1.557,1.109-2.111c7.664-1.112,8.889-3.22,20.662-35.99
	c3.887-11.109,8.218-23.549,12.108-33.879c0.222-0.332,0.222-0.667,0.222-0.999c0-0.335-0.113-0.78-0.335-1.334
	c-0.11-0.332-0.222-0.554-0.222-0.889c0-0.664,0.335-1.222,1.225-1.776c2.108-1.112,4.441-2.333,6.884-5.553
	C135.046,0.332,135.601,0,136.046,0c0.667,0,1.221,0.667,1.444,1.889c1.334,5.888,3.11,10.664,4.999,15.663
	c6.887,18.661,15.441,41.43,20.662,54.76c1.666,4.335,4.776,8.331,9.997,9.111C173.592,81.755,173.924,82.532,173.924,83.311
	 M129.158,17.661c-0.777,0-5.108,13.108-9.775,27.771v0.11c0,0.445,0.667,0.667,1.334,0.667c1.889,0.11,5.331,0.11,8.773,0.11
	c3.555,0,7.11,0,9.111-0.11c0.445,0,0.999-0.113,0.999-0.667C139.6,44.875,129.935,17.661,129.158,17.661"/>
<path fill="#09070D" d="M227.59,85.199c-8.331,0-17.884-0.889-27.104-0.889c-4.109,0-7.996,0.222-11.773,0.667h-0.335
	c-1.109,0-1.553-0.667-1.553-1.557c0-0.667,0.332-1.444,0.889-1.889c6.775-0.554,8.995-2.33,9.662-7.219
	c0.667-5.888,0.777-15.55,0.777-29.992c0-26.769-0.777-31.101-0.777-31.436c-0.445-3.333-2.556-5.108-8.553-5.108
	c-0.777-0.558-1.109-1.334-1.109-2.111s0.442-1.444,1.331-1.444h0.222c2.111,0.222,4.444,0.222,6.665,0.222
	c10.664,0,22.106-1.557,30.659-1.557c24.881,0,47.763,12.663,47.763,40.766C274.354,66.094,257.138,85.199,227.59,85.199
	 M225.924,6.887c-9.221,0-13.884,0.777-14.551,5.331c-0.222,2.556-0.445,4.335-0.554,12.331c0,9.888-0.113,23.44-0.113,33.215
	c0.113,4.109,0,8.886,0.445,12.772c0.554,4.554,1.889,10.774,16.108,10.774c18.329,0,32.435-12.885,32.435-36.322
	C259.693,20.771,241.587,6.887,225.924,6.887"/>
<path fill="#09070D" d="M389.946,12.219c-7.664,14.661-28.326,64.316-31.549,71.535c-0.664,1.334-1.331,2.111-2.33,2.111
	c-0.999,0-1.779-0.667-2.224-2.111c-0.999-3.11-14.107-30.878-14.439-30.878c-0.557,0-11.776,28.99-12.553,30.878
	c-0.554,1.112-1.553,2.224-2.778,2.333c-1.221,0-2.108-0.667-2.775-2.665c-3-9.665-26.328-56.874-33.215-70.313
	c-2.221-4.332-3.664-5.779-7.996-6.555c-0.557-0.554-0.999-1.331-0.999-1.998s0.442-1.222,1.109-1.222c0,0,7.11,0.554,14.774,0.554
	c3.777,0,7.777-0.113,11.109-0.554h0.222c0.667,0,0.999,0.664,0.999,1.331c0,0.777-0.332,1.557-0.999,2.001
	c-3.332,0.332-5.221,1.109-5.221,3.11c0,0.445,0.11,1.109,0.445,1.889c4.554,12.105,18.216,38.655,25.657,55.095
	c0.222,0.667,0.557,1.112,0.78,1.112c0.999,0,8.663-19.995,8.663-20.33c0-1.331-12.772-27.327-16.327-34.324
	c-2.224-4.554-4.444-6.111-9.111-6.552c-0.664-0.558-0.886-1.225-0.886-1.889c0-0.667,0.332-1.334,0.999-1.334
	c0,0,7.219,0.445,14.996,0.445c4,0,7.996-0.113,11.441-0.445h0.11c0.667,0,1.112,0.667,1.112,1.334c0,0.664-0.332,1.444-0.999,1.889
	c-3.332,0.442-4.999,1.553-4.999,3.332c0,2.221,9.662,23.659,10.329,23.659c0.889,0,8.109-19.218,8.109-23.549
	c0-2.111-1.553-3.333-6.887-3.665c-0.777,0-1.109-0.667-1.109-1.334c0-0.777,0.442-1.776,1.109-1.776
	c0.113,0,5.556,0.554,11.776,0.554c3.22,0,6.552-0.113,9.553-0.554h0.11c0.558,0,0.889,0.777,0.889,1.554
	c0,0.889-0.332,1.779-0.999,1.888c-3.11,0.332-5.666,0.667-7.554,4.444c-2.888,5.553-7.664,17.661-11.664,26.437
	c-0.222,0.554-0.445,1.222-0.445,1.776c0,0.222,0.113,0.445,0.113,0.557c2.33,4.664,8.995,17.994,13.107,27.324
	c0.332,0.777,0.554,1.112,0.777,1.112c0.999,0,22.328-52.652,22.328-57.873c0-2.556-2.224-3.555-8.109-3.887
	c-0.557-0.445-0.889-1.225-0.889-1.779c0-0.89,0.445-1.554,1.221-1.554c0,0,5.666,0.554,12.331,0.554
	c3.332,0,6.997-0.113,10.329-0.554h0.222c0.777,0,1.112,0.554,1.112,1.222s-0.335,1.444-0.999,1.998
	C393.833,7.22,391.612,8.886,389.946,12.219"/>
<path fill="#09070D" d="M447.692,83.31c0,0.777-0.445,1.444-1.112,1.444c-0.11,0-9.33-0.777-18.548-0.777
	c-4.667,0-9.221,0.223-12.666,0.777h-0.332c-0.667,0-0.999-0.554-0.999-1.222c0-0.777,0.445-1.666,0.999-2.111
	c10.107-0.999,8.998-4.444,9.33-15.663c0.11-5.331,0.222-14.329,0.222-22.992c0-8.666-0.113-16.885-0.222-20.772
	C423.92,9.11,425.142,7.663,414.59,6.664c-0.667-0.445-0.999-1.109-0.999-1.666c0-0.886,0.554-1.666,1.221-1.666
	c0,0,8.222,0.557,17.329,0.557c4.886,0,9.997-0.113,14.216-0.667h0.113c0.667,0,0.999,0.777,0.999,1.554
	c0,0.78-0.332,1.666-1.112,2.001c-9.997,1.109-8.773,3.887-9.108,15.106c-0.11,5.221-0.222,12.331-0.222,19.663
	c0,8.773,0.113,17.771,0.222,24.104c0.222,11.219-0.222,14.774,9.443,15.773C447.36,81.976,447.692,82.643,447.692,83.31"/>
<path fill="#09070D" d="M560.069,34.99c0,9.33,0.222,19.55,0.445,26.882c0.445,12.995-0.335,17.774,9.885,19.328
	c0.667,0.222,0.999,0.889,0.999,1.553c0,0.89-0.664,1.779-1.331,1.779c0,0-9.33-0.667-18.441-0.667
	c-4.886,0-9.775,0.222-13.104,0.777h-0.113c-0.777,0-1.112-0.777-1.112-1.666c0-0.777,0.335-1.554,0.889-1.776
	c8.776-1.112,9.775-3.777,9.775-14.774v-2.443c-0.11-5.111-0.222-18.441-0.222-29.77c0-5.111,0-9.775,0.113-13.107
	c0-0.557-0.113-0.78-0.335-0.78c-0.999,0-24.326,44.988-30.991,59.43c-0.667,1.444-1.331,2.221-2.333,2.221h-0.332
	c-1.112-0.11-2.001-1.221-2.443-2.997c-1.221-4.222-5.556-13.22-10.887-23.55c-4.554-8.885-11.664-23.994-15.885-32.77
	c-0.332-0.667-0.554-0.886-0.667-0.886c-1.109,0-2.221,31.546-2.221,36.544c0,21.216,0.222,21.438,9.553,22.992
	c0.558,0.223,0.889,0.89,0.889,1.557c0,0.889-0.554,1.776-1.334,1.776h-0.222c-0.11,0-6.552-0.777-13.662-0.777
	c-3.555,0-7.332,0.222-10.552,0.777h-0.222c-0.777,0-1.112-0.664-1.112-1.444c0-0.777,0.335-1.666,0.889-1.889
	c8.109-0.886,9.553-5.885,10.664-21.993c0.332-5.108,1.889-29.879,2.665-39.654c0-0.557,0.11-1.222,0.11-1.779
	c0-6.443-3.555-9.885-11.883-11.106c-0.558-0.222-0.89-0.889-0.89-1.556c0-0.889,0.554-1.776,1.666-1.776
	c0,0,5.663,0.554,11.551,0.554c3.223,0,6.443-0.222,8.776-0.667c0.445-0.11,0.889-0.11,1.221-0.11c1.444,0,1.334,0.886,1.779,2.665
	c0.332,1.331,2.111,5.775,2.553,6.775c7.777,18.773,19.218,38.101,24.329,49.32c0.219,0.445,0.442,0.78,0.777,0.78
	c0.222,0,0.445-0.222,0.667-0.667c21.439-40.434,28.104-53.764,28.88-57.319c0.222-0.777,0.667-1.112,1.666-1.112
	c0.332,0,0.667,0.113,1.109,0.113c2.001,0.222,4.335,0.332,6.778,0.332c4,0,8.331-0.332,11.551-0.777h0.222
	c0.889,0,1.334,0.889,1.334,1.666c0,0.777-0.335,1.557-1.112,1.779C560.178,8.108,560.069,10.774,560.069,34.99"/>
<path fill="#09070D" d="M621.705,48.43c-1.222,0-1.779-0.777-1.779-1.553c0-0.889,0.557-1.669,1.334-1.669h0.445
	c9.553,0,17.217-6.997,17.217-17.661c0-2.221-0.332-20.772-17.217-20.772c-5.998,0-6.22,2.443-6.22,14.664
	c-0.113,7.551-0.222,17.884-0.222,26.992c0,5.888,0.11,11.332,0.222,15.218c0.554,13.552-0.335,16.885,11.109,17.774
	c0.664,0.554,0.999,1.221,0.999,1.885c0,0.78-0.445,1.447-1.221,1.447c0,0-9.443-0.78-19.108-0.78c-4.886,0-9.775,0.222-13.552,0.78
	h-0.332c-0.777,0-1.112-0.557-1.112-1.225c0-0.777,0.445-1.666,1.112-2.108c9.888-1.002,9.108-5.444,9.33-17.774
	c0.113-4.332,0.113-15.55,0.113-25.548c0-7.222,0-13.887-0.113-16.662c-0.332-12.998-1.221-13.552-9.662-14.442
	c-0.78-0.554-1.002-1.222-1.002-1.776c0-0.889,0.557-1.557,1.112-1.557h0.113C596.933,3.887,600.156,4,603.154,4
	c6.111,0,11.441-0.335,18.216-0.667h2.333c14.664,0,28.771,6.107,28.771,21.993C652.473,45.652,632.811,48.43,621.705,48.43"/>
<path fill="#09070D" d="M692.454,86.198c-3.11,0-10.665-0.332-18.438-4.109c-2.001-0.889-2.111-1.222-2.224-3
	c-0.11-3.11-1.109-12.663-1.221-14.219c0-0.886,0.999-1.221,1.889-1.221c0.777,0,1.444,0.222,1.557,0.667
	c3.442,16.33,13.439,18.329,18.77,18.329c8.222,0,15.218-5.331,15.218-15.995c0-9.665-5.666-13.552-16.662-20.884
	c-8.331-5.553-16.44-11.996-16.44-23.327c0-17.771,18.551-20.659,25.992-20.659c6.443,0,11.886,1.222,13.552,1.331
	c1.557,0,1.557,0,2.111,1.779c0.999,3.22,2.221,11.773,2.333,13.994c0,0.445-1.334,1.112-2.333,1.112
	c-0.445,0-0.89-0.222-0.999-0.667c-2.778-9.108-8.222-13.884-16.108-13.884c-9.997,0-13.439,7.332-13.439,12.663
	c0,7.664,5.998,11.441,11.109,14.774c2.108,1.334,4.109,2.556,5.998,3.668C711.227,41.655,720,49.764,720,61.982
	C720,77.313,706.783,86.198,692.454,86.198"/>
<g>
</g>
<g>
</g>
<g>
</g>
<g>
</g>
<g>
</g>
<g>
</g>
<g>
</g>
<g>
</g>
<g>
</g>
<g>
</g>
<g>
</g>
<g>
</g>
<g>
</g>
<g>
</g>
<g>
</g>
</svg>
