<?xml version="1.0" encoding="utf-8"?>
<!-- Generator: Adobe Illustrator 27.0.1, SVG Export Plug-In . SVG Version: 6.00 Build 0)  -->
<svg version="1.1" id="레이어_1" xmlns="http://www.w3.org/2000/svg" xmlns:xlink="http://www.w3.org/1999/xlink" x="0px"
	 y="0px" viewBox="0 0 720 382.07" enable-background="new 0 0 720 382.07" xml:space="preserve">
<polygon points="28.374,319.49 56.754,319.49 42.573,294.909 28.374,270.344 14.174,294.909 "/>
<polygon points="28.374,221.189 14.174,245.771 42.573,245.771 70.954,245.771 56.754,221.189 "/>
<polygon fill="#554444" points="99.312,294.926 42.582,294.926 53.214,313.342 56.764,319.492 85.129,319.492 "/>
<polygon fill="#040000" points="42.588,294.926 42.571,294.926 53.203,313.342 "/>
<rect x="42.58" y="294.926" fill="none" width="56.762" height="24.565"/>
<polygon fill="#554444" points="42.565,245.772 14.183,245.772 0.001,270.338 0.001,270.354 14.183,294.903 26.182,274.154 
	28.382,270.338 "/>
<polygon fill="#040000" points="26.179,274.145 14.179,294.911 14.196,294.927 "/>
<path fill="#040000" d="M42.565,245.765H14.183H42.565z"/>
<rect y="245.781" fill="none" width="42.564" height="49.146"/>
<polygon fill="#554444" points="85.131,221.182 56.766,221.182 56.766,221.2 70.949,245.764 99.313,245.764 "/>
<polygon fill="#040000" points="56.763,221.201 56.763,221.201 70.962,245.766 "/>
<rect x="56.762" y="221.183" fill="none" width="42.564" height="24.581"/>
<polygon points="241.22,49.148 212.838,0.002 184.474,49.148 156.092,98.295 212.838,98.295 "/>
<polygon points="127.705,147.465 99.324,98.303 70.959,147.465 42.578,196.611 99.324,196.611 "/>
<polygon points="212.836,196.615 269.598,196.615 241.217,147.469 212.836,98.306 184.471,147.469 "/>
<polygon fill="#554444" points="212.831,0.001 99.323,0.001 127.704,49.148 184.45,49.148 "/>
<rect x="99.326" fill="none" width="113.507" height="49.146"/>
<polygon points="99.319,0 42.573,0 70.954,49.147 99.319,98.293 127.699,49.147 "/>
<polygon fill="#554444" points="212.826,98.309 156.08,98.309 127.715,147.456 184.478,147.456 "/>
<rect x="127.706" y="98.309" fill="none" width="85.126" height="49.146"/>
<path d="M191.493,319.502h-19.915l-37.231-41.564v41.564h-15.732v-98.31h36.963c15.466,0,28.065,12.582,28.065,28.031
	c0,15.482-12.599,28.065-28.065,28.065h-1.966L191.493,319.502z M154.93,234.958h-20.583v28.565h20.583
	c7.866,0,12.965-6.416,12.965-14.299C167.895,241.374,162.796,234.958,154.93,234.958"/>
<polygon points="263.255,319.505 206.225,319.505 206.225,221.197 263.255,221.197 263.255,234.962 221.941,234.962 
	221.941,263.527 259.438,263.527 259.438,277.293 221.941,277.293 221.941,305.74 263.255,305.74 "/>
<path d="M368.15,319.51h-17.049l-9.833-25.448h-40.363l-9.832,25.448h-16.916l38.93-98.326h16.132L368.15,319.51z M336.019,280.43
	l-14.933-38.547l-14.948,38.547H336.019z"/>
<polygon points="437.591,234.958 408.626,234.958 408.626,319.502 392.877,319.502 392.877,234.958 363.913,234.958 
	363.913,221.192 437.591,221.192 "/>
<path d="M495.786,322.132c-28.581,0-51.762-23.215-51.762-51.797c0-28.581,23.181-51.762,51.762-51.762
	c28.582,0,51.797,23.181,51.797,51.762C547.582,298.917,524.367,322.132,495.786,322.132 M495.92,232.321
	c-19.915,0-36.048,17.033-36.048,38.014c0,20.982,16.132,38.014,36.048,38.014c19.932,0,36.047-17.032,36.047-38.014
	C531.966,249.354,515.851,232.321,495.92,232.321"/>
<path d="M639.538,319.502h-19.915l-37.231-41.564v41.564H566.66v-98.31h36.963c15.482,0,28.065,12.582,28.065,28.031
	c0,15.482-12.582,28.065-28.065,28.065h-1.966L639.538,319.502z M602.974,234.958h-20.583v28.565h20.583
	c7.866,0,12.965-6.416,12.965-14.299C615.939,241.374,610.84,234.958,602.974,234.958"/>
<path d="M685.536,322.127c-14.55,0-30.548-7.599-36.465-24.764l13.25-5.516c3.666,11.532,13.515,16.648,22.681,16.648
	c10.233,0,19.798-6.149,19.798-16.648c0-5.9-3.932-11.682-12.716-13.499l-17.431-3.933c-14.549-3.283-22.549-14.948-22.549-26.748
	c0-18.999,16.116-29.098,32.631-29.098c14.815,0,30.031,8.116,34.364,25.165l-12.732,4.983
	c-3.267-11.399-12.85-16.516-21.766-16.516c-9.05,0-17.299,5.383-17.299,15.083c0,5.749,3.683,11.515,10.766,13.099l19.782,4.449
	C712.934,268.115,720,279.397,720,291.063C720,306.262,707.951,322.127,685.536,322.127"/>
<path d="M344.701,45.837c-42.564,0-77.061,34.496-77.061,77.06c0,42.53,34.497,77.027,77.061,77.027
	c21.381,0,40.73-8.732,54.695-22.815l-23.364-23.348c-7.983,8.1-19.066,13.149-31.331,13.149c-18.665,0-34.565-11.615-40.981-27.998
	h57.479h24.465h16.548h17.832c1.083-5.166,1.683-10.516,1.683-16.015C421.728,80.333,387.231,45.837,344.701,45.837
	 M304.071,105.898c6.632-15.881,22.331-27.03,40.63-27.03c18.282,0,33.963,11.149,40.614,27.03H304.071z"/>
<polygon points="457.982,147.465 486.346,196.611 429.617,196.611 "/>
<polygon points="457.982,98.299 429.617,49.153 486.346,49.153 "/>
<path d="M97.171,350.997l4.765,0.067c-0.05,1.284-0.217,16.383-0.249,22.531c4.199-1.55,8.432-5.966,11.166-13.849l3.383,4.3
	c-2.717,6.716-8.783,14.765-19.098,16.315L97.171,350.997z"/>
<path d="M146.825,376.922c11.281-2.599,14.549-12.282,15.382-18.632h-6.066c-1.6,3.884-4.133,7.75-6.916,10.166l-3.566-3.549
	c4.849-3.633,7.516-10.517,8.432-15.499l4.6,0.966l-1.033,3.65c2.95-0.05,8.267-0.083,9.616-0.083
	c-0.967,9.616-2.95,22.631-17.333,27.398L146.825,376.922z"/>
<path d="M197.195,350.407h4.516v18.333h-4.516V350.407z M197.863,376.972c9.265-1.283,10.732-7.566,10.782-13.015v-13.616h4.516
	c0,0,0.083,6.566,0.083,10.766c0,8.299-0.55,17.248-12.616,20.382L197.863,376.972z"/>
<polygon points="242.617,378.386 242.617,373.804 250.799,373.854 250.799,357.672 243.683,357.705 243.683,353.223 
	262.899,353.223 262.899,357.705 255.632,357.672 255.632,373.854 264.098,373.804 264.098,378.386 "/>
<path d="M301.632,381.023l0.082-15.265c-2.783,2.366-5.383,4.2-8.082,5.683l-3.166-4.083c8.15-3.617,14.566-10.183,18.015-17.749
	l4.367,2.533c-2.017,3.749-4.45,7.183-6.633,9.766c0,3.367,0,9.75,0.034,19.148L301.632,381.023z"/>
<path d="M339.73,377.525c5.266-1.217,8.882-4,11.349-7.315c-1.7-1.65-3.65-2.884-5.433-4.166l2.65-3.216
	c1.4,0.95,3.149,2.117,4.966,3.683c1.401-2.983,2.051-6.033,2.284-8.533h-6.617c-1.599,3.717-4.316,7.733-7.083,10.183l-3.366-3.35
	c4.716-3.633,7.665-10.416,8.633-15.399l4.516,0.966l-1.133,3.65c2.899-0.05,8.415-0.083,9.766-0.083
	c-0.817,9.732-3.117,22.732-17.249,27.415L339.73,377.525z"/>
<rect x="388.503" y="363.038" width="21.182" height="4.583"/>
<path d="M456.102,380.024c-2.016-4.45-3.815-7.267-5.582-9.783c-3.1,4.95-7.166,8.333-10.549,9.949l-2.817-4.282
	c9.099-3.733,12.716-12.449,13.698-18.766l-10.882,0.133v-4.683h14.016c-0.534-1.599-1.184-3.366-1.5-3.982l2.234-0.5
	c0.45,1.017,1.933,4.866,2.249,6.433l-1.032,0.25c-0.701,4.433-1.683,8-3.1,11.249c2.15,2.484,4.683,5.967,6.833,9.833
	L456.102,380.024z M458.536,354.675l-2.2-6.25l2.2-0.4l2.249,6.033L458.536,354.675z"/>
<polygon points="71.131,348.605 64.514,348.605 54.848,365.337 64.514,382.07 71.131,382.07 61.465,365.337 "/>
<polygon points="482.199,348.605 488.815,348.605 498.481,365.337 488.815,382.07 482.199,382.07 491.864,365.337 "/>
</svg>
