<?xml version="1.0" encoding="utf-8"?>
<!-- Generator: Adobe Illustrator 27.0.1, SVG Export Plug-In . SVG Version: 6.00 Build 0)  -->
<svg version="1.1" id="레이어_1" xmlns="http://www.w3.org/2000/svg" xmlns:xlink="http://www.w3.org/1999/xlink" x="0px"
	 y="0px" viewBox="0 0 720 295.59" enable-background="new 0 0 720 295.59" xml:space="preserve">
<linearGradient id="SVGID_1_" gradientUnits="userSpaceOnUse" x1="-179.1374" y1="797.6635" x2="-163.8835" y2="797.6635" gradientTransform="matrix(0 6.5518 6.5518 0 -4866.1714 1257.821)">
	<stop  offset="0" style="stop-color:#900000"/>
	<stop  offset="1" style="stop-color:#EF8200"/>
</linearGradient>
<path fill-rule="evenodd" clip-rule="evenodd" fill="url(#SVGID_1_)" d="M171.942,200.925h1.556v15.742h-1.556V200.925z
	 M558.278,176.29c1.785-3.692,3.264-5.171,6.803-6.621c2.746-1.129,5.598-1.8,8.557-2.09c4.439-0.412,8.71,1.159,13.118,1.144
	l0.305,0.076c4.439,1.327,6.544,6.331,4.347,10.373c-1.404,2.547-3.615,4.042-6.391,4.729l-3.585-0.748
	c0.259-1.693,1.586-2.608,2.746-3.645l2.593-2.288l0.305-3.523c-0.808-1.541-2.151-2.242-3.844-2.334
	c-5.095-0.274-10.083,0.29-14.872,2.151l-3.554,2.013c-1.358,0.885-2.227,2.212-2.715,3.768l-0.61,2.837l-2.791-0.519
	c-5.552,0.351-11.044-0.183-16.596,0.152c-5.858,0.32-38.562,11.532-39.157,10.785c-0.229-1.114,11.623-6.956,15.239-8.328
	c3.6-1.388,11.486-2.334,11.654-2.273c2.318,0.809,11.166-6.01,12.951-6.315c1.754-0.275,4.759,0.702,6.956,0.686
	C552.649,176.29,555.12,176.106,558.278,176.29z M405.007,224.934c-3.509-0.259-6.895,0.305-10.098,1.861l-3.081,2.09
	c-2.837,2.639-2.776,6.056,0.076,8.694c1.113,1.022,2.425,1.755,3.798,2.334l2.197,0.9l-0.778,0.473
	c-3.325,0.153-6.62,0.534-9.808,1.556l-1.205-0.076c-2.105-0.961-4.225-0.519-6.346-0.152l-1.708,0.183
	c-2.975-0.229-5.949-0.564-8.939-0.717c-2.364-0.122-4.713-0.092-7.078,0c-1.495-0.427-2.99-0.885-4.5-1.312
	c-3.036-0.87-6.132-1.357-9.32-1.205l-3.722,0.488l-0.641,0.214l0.015,0.183h2.853c2.227,0.03,4.454,0.275,6.651,0.732
	c2.09,0.442,4.134,1.098,6.117,1.83c4.241,1.571,8.588,2.425,13.118,2.517c2.349,0.046,4.637-0.152,6.895-0.594l1.876,0.107
	c2.029,0.763,5.888,0.32,5.232-0.015c0.488-0.244,1.495-0.458,3.615-0.534c1.693-0.183,3.173-0.351,4.653-0.458
	c3.31-0.275,6.635-0.458,9.945-0.763c2.639-0.275,5.247-0.824,7.917-0.87l2.669-0.519l0.793-0.549
	c-1.525-1.22-1.953-1.449-4.088-1.815c-2.212-0.381-4.439-0.687-6.651-1.053c-2.791-0.442-5.598-0.885-8.207-1.998l-2.974-1.785
	l-0.091-3.005l3.523-2.288c2.776-1.159,5.705-1.769,8.649-2.364l1.144-0.244l-0.854-0.565l-1.51-0.87L405.007,224.934z
	 M321.949,23.445c1.51-0.61,2.73-0.884,3.676-0.778l1.861,0.29l0.351-0.107l9.32,0.259l13.667-0.488h5.69l2.075-0.519
	c0.183,0,1.19,0.336,3.081,1.006l4.149,1.327l2.608,2.029l5.69,3.127c0.656,0.839,1.373,2.334,2.029,4.362
	c0.702,2.075,1.068,3.539,1.068,4.408c-0.183,2.425-0.763,3.844-1.693,4.302c-0.961,0.381-2.822,0.61-5.553,0.61l-9.579-1.022
	l-15.254,2.075l-6.178,2.288l-18.884,7.017l-9.305,4.912l-6.696,2.807l14.72-9.046l22.728-12.661
	c1.403-0.656,2.379-1.235,2.99-1.663l0.351-1.418l-3.6,0.793c-0.32,0.137-1.205-0.61-2.563-2.334
	c-0.534-0.351-2.746-1.114-6.62-2.212l-0.549-0.153c-1.922-0.198-4.302-0.748-6.91-0.839l-0.397,0.107l-0.381-0.122
	c-1.388-0.015-2.822,0.107-4.271,0.503l-1.556,0.458l-1.815,2.792l-1.281,1.8l-1.541,3.356l-2.334,1.815l-0.808,2.059l-1.007,1.281
	l-0.275,1.541l-5.949,7.246l-0.519,3.081l-2.044,1.586c-0.168,0.137-0.61,1.114-1.327,2.822l-3.874,4.896l-0.747,2.883l3.615-1.067
	l17.298-9.03c4.851-2.395,7.49-3.722,8.024-3.89h5.171c2.944-0.671,4.484-1.022,4.668-1.022l2.075,1.54l3.356,0.534
	c0.351,0.183,1.235,0.931,2.685,2.334c1.51,1.373,2.334,2.746,2.609,4.103c0.259,1.419-1.144,3.31-4.286,5.69
	c-1.19,1.053-2.73,2.608-4.637,4.683l-9.839,4.363l-8.512,5.689l-5.674,2.868l-3.097,2.303l-4.149,1.586
	c-0.885,0.473-3.035,1.983-6.483,4.362l-8.771,5.949c-1.022,0.854-3.768,3.386-8.13,7.642c-4.408,4.179-6.651,6.788-6.742,7.764
	c-0.092,0.915,0.397,2.944,1.403,6.04c1.068,3.127,2.074,4.591,3.142,4.408l1.281-1.419c0.702-0.961,2.38-2.608,5.019-4.942
	c2.7-2.288,5.476-3.478,8.435-3.478c3.081,0.168,6.163,1.358,9.305,3.615l5.415-12.127c2.746-6.04,6.636-8.771,11.608-8.298
	c2.776,0.534,4.317,0.976,4.683,1.327l2.075,3.081l1.281-0.793l7.23-7.978l9.579-8.024l2.059-1.815l2.563,0.793l0.793-0.534
	c1.724,1.373,3.356,2.242,4.896,2.608c1.541,0.305,2.517,0.488,2.868,0.488l1.281,1.54c0.519,0.717,1.846,1.724,4.012,3.005
	c2.166,1.281,3.401,2.029,3.752,2.212l2.288,4.088l1.586,2.074v3.143c0,2.196-0.168,3.6-0.519,4.088l-12.661,17.863
	c-0.351,0.32-1.586,1.785-3.752,4.256c-2.166,2.502-3.402,4.179-3.753,5.064l-1.281,5.171c-1.053,1.708-2.334,2.898-3.874,3.615
	l-2.075,0.748l-2.075,1.571l-2.349,0.488l-4.363,3.356l-19.937,10.86l-1.815,0.793l-16.749,6.209l-5.69,1.022l-1.556,1.266
	l1.556,0.275l4.363-0.275l4.942,2.349c3.432,1.541,5.339,2.426,5.69,2.609l3.341-1.556l13.195-7.001
	c2.563-1.19,4.469-2.288,5.644-3.356l7.017-5.156c2.38-1.205,4.82-2.166,7.23-2.822l6.193,0.748c1.541,0,2.502,0,2.868,0l2.288,1.8
	l1.586-1.007c0.656-0.702,1.495-2.639,2.425-5.827c0.976-3.172,3.081-7.017,6.346-11.516l-3.874,10.86l-0.137,0.916v2.959
	l0.137,1.067l-0.534,6.163l2.334,5.964c0.351,1.19,0.625,3.661,0.808,7.352c0.122,3.707-0.32,6.193-1.464,7.383l-2.548,2.196
	c-0.625,0.275-2.212-0.747-4.82-2.99l-4.103-3.356l-1.586-2.09l-4.896-9.519c-1.892-3.478-3.661-5.339-5.293-5.552
	c-1.632-0.259-3.661,0.702-6.086,2.959l-1.8,1.815l-2.09,3.6l-4.622,5.171l-1.541,2.852l-6.483,9.32l-1.815,4.622
	c-0.656,0.885-2.166,1.51-4.378,1.937c-2.242,0.458-4.927-1.937-8.023-7.078l-4.897-7.52c-1.724-2.425-2.685-3.707-2.868-3.874
	l-5.949,2.593l-2.288,0.504l-2.349,2.852l-0.519,2.334l-1.281,1.281l-4.424,3.097l-7.23,9.305c-3.92,0.9-6.437,0.625-7.505-0.748
	l-1.8-2.608l-2.822-3.081l-0.534-1.586l-3.081-2.822l-1.815-4.149l-1.281-2.425l0.488-1.724l3.142,1.327
	c0,0.183,1.007,0.183,3.081,0l5.949,1.006l2.075-0.488l13.149-3.874l6.483-3.127l16.55-12.142
	c9.305-6.879,14.72-11.898,16.276-14.995l-0.534-8.511c0-0.168,0.183-1.236,0.534-3.127l0.519-4.896l0.534-3.615v-8.787
	c0-1.54,0-2.608,0-3.097c-0.168-1.571-0.976-3.219-2.334-4.927c-1.419-1.724-2.7-1.19-3.874,1.541
	c-1.556,3.31-2.608,6.04-3.097,8.298c-0.534,2.242-0.702,3.615-0.534,4.149l0.259,11.852l0.488,8.527
	c-0.305,2.074-1.754,4.362-4.225,6.879c-2.517,2.456-4.195,3.645-5.079,3.493l-1.8-1.083l-2.303-4.607
	c-1.403-2.441-2.105-3.676-2.197-3.767l0.137-0.915l0.259-17.832c0-2.242-0.976-3.493-2.868-3.737
	c-1.907-0.275-3.356,1.266-4.378,4.545l-0.519,1.525l-2.349,4.637l-0.259,1.601l-0.747,1.282l0.488,2.059l-1.541,6.178l0.519,3.386
	l-1.281,1.556l0.275,2.288l-0.793,2.334l-0.275,2.075l-2.822,2.837l-2.593,3.874c-1.19,0.885-2.425-0.183-3.631-3.081
	c-1.541-2.746-2.334-4.546-2.334-5.43l-0.488-3.89l-0.793-4.637c-0.168-0.87-0.076-2.151,0.275-3.86
	c0.351-1.739,0.519-2.974,0.519-3.63V124.96c0-3.081,0.58-5.903,1.815-8.42c1.19-2.471,3.798-5.644,7.718-9.396l6.483-5.964
	c2.73-2.425,5.339-5.019,7.764-7.886c2.38-2.822,4.058-4.637,5.034-5.431l1.403-1.678l-1.937-1.541
	c-1.098-0.702-2.425-1.144-4.012-1.281c-1.541-0.168-3.936-0.87-7.23-2.059c-0.488,0.29-1.022,1.282-1.556,2.807
	c-0.519,1.556-1.098,2.7-1.8,3.355l-5.171,4.942l-1.007,1.8l-7.23,8.801l-3.142,4.363l-3.6,4.134l-4.652,7.246l-6.208,6.483
	c-1.373,1.541-3.173,2.731-5.43,3.615l-11.913,4.637l-1.8-0.626l-0.763-1.586l0.534-2.166l0.29-1.952
	c-0.427,0.412-0.564,0.091,0.183-2.212l0.275-1.251l1.129-0.259l1.983-3.233c0.061-1.068,2.654-1.083,2.029-2.502
	c0-1.8,0.732-2.242,1.846-2.731l5.491-2.395l0.275-0.382l3.524-4.942l17.084-23.918l10.846-17.038l3.615-6.971
	c2.608-4.134,4.103-6.971,4.546-8.42c0.397-1.449,0.793-2.395,1.144-2.685l2.608-2.09l0.259-2.319l1.144-2.227l1.19-1.342
	c1.037-2.807,3.585-11.562,3.783-12.737c0.366-2.318,1.678-4.729,3.631-7.306c0.961-2.883,1.678-5.003,2.136-6.376l-0.244-2.792
	l-0.046-0.046v-0.336l-0.259-2.273l-1.647-2.303l-1.769-0.564l-2.746-1.83c2.303-1.098,3.524-1.693,3.676-1.83l0.915-0.092
	l0.03-0.015h0.061l1.739-0.854c2.883,0,5.674-0.259,8.252-0.884c1.846,1.053,3.676,1.983,5.522,2.73
	c6.559,4.149,10.251,8.74,10.998,13.79l-1.8,2.12l0.336,1.373l-0.671,1.678l-0.259,1.418L321.949,23.445z M231.127,124.944
	l1.403-1.51L231.127,124.944z M606.053,51.955l0.443,0.595l-0.503,1.342c1.739,1.571,1.739,1.571,2.852,3.341l-1.083-0.381
	l0.061,1.053l-2.395-2.776l-0.976,1.892l-1.373-1.708l0.793-0.961l-0.397-1.068L606.053,51.955z M601.126,75.339l-1.541-1.174
	l-1.251-1.144h-2.38l-1.602,1.678l1.602,11.135c1.144,7.932-0.198,13.286-1.525,15.941c-0.091,4.256-0.412,8.115-1.098,11.197
	c-2.563,11.745,0.702,16.428-3.249,31.377l-0.717,0.519c-0.412,0.198-1.708-0.198-3.966-1.189c-2.258-0.961-4.973-1.572-8.085-1.77
	c-6.254-0.198-11.486-0.198-15.589,0l-13.805,1.19c2.563-0.381,4.225-0.595,5.019-0.595l-11.776,0.595l-2.059-2.944
	c0-1.357,0-4.317,0-8.832v-13.499l1.19-20.868c0-0.595,0.153-1.693,0.564-3.417c0.397-1.647,0.595-3.051,0.595-4.256l-0.29-3.509
	l1.19-3.508V78.71l0.152-1.465c0.046-0.763,0.198-2.502,0.397-5.125c0.214-2.654,0.412-4.347,0.61-5.156v-3.813l0.595-2.959
	l0.305-2.913l0.854-4.103l-0.854-10.891l0.854-7.368l-0.595-1.465l-2.059-5.568l-1.754-2.654l-0.564-2.959l-2.944-4.378
	l-1.159-2.639c-0.397-0.412-2.364-1.724-5.919-3.966c-3.508-2.273-6.574-3.707-9.091-4.271l-4.714-0.595l-3.508-1.769
	c-3.158-0.397-4.866-0.046-5.156,1.022c-0.305,1.099,0.137,2.685,1.296,4.851l1.51,5.872l2.609,7.368v2.364
	c0,1.755,0.336,3.463,1.037,5.11c0.717,1.662,1.114,2.715,1.312,3.127c0,0.183-0.107,1.296-0.305,3.341
	c-0.137,2.059,0.305,6.026,1.51,11.898v18.808l0.854,30.6l0.305,6.483c0,1.144-0.061,3.158-0.153,6.01
	c-0.091,2.822-0.305,5.476-0.702,7.932c-0.397,2.456-0.61,3.768-0.61,3.951l-0.9,27.335l-18.808,7.383l-1.754,0.549l-17.908,5.872
	c-1.754,0.61-2.715,0.198-2.807-1.144l0.153-3.524l-0.61-8.816c-0.198-2.776-0.351-4.622-0.549-5.568l-0.9-3.264l-0.305-2.67
	l-1.144-2.349l-1.51-4.362l-1.159-1.205l-0.305-3.203l-7.627-17.069c-0.397-0.595-0.839-1.998-1.342-4.256
	c-0.458-2.258-0.717-3.554-0.717-3.966l2.364-9.732l-1.495-0.854c-2.913-0.992-5.827,1.602-8.634,7.78
	c-2.868,6.162-4.363,9.824-4.561,11.028c-0.198,1.16-0.305,3.203-0.305,6.178l-0.305,4.103l6.773,30.858
	c0.549,3.158,0.854,5.858,0.854,8.222c-0.198,3.722-0.961,7.276-2.349,10.586l-2.319,5.019c-1.007,2.166-1.495,3.31-1.495,3.509
	l-3.219,4.118l-1.205,2.959c0,0.397,0.305,1.449,0.915,3.203l0.336,1.495l0.549-0.031c5.934-0.381,11.868-0.473,17.817-0.32
	c4.088,0.092,8.176,0.519,12.264,0.854c2.044,0.168,4.073,0.458,6.117,0.687l3.554,0.503l11.974-10.205l14.4-5.629l9.686-4.104
	c14.003-5.842,25.52-11.242,43.779-9.686c17.267,1.358,26.74,3.066,28.403,5.125c1.647,2.059,2.654,3.966,3.051,5.766l-0.839,8.527
	v1.159c0,1.144,0.244,3.707,0.702,7.627l0.244,1.785c2.959-5.049,7.871-6.879,13.317-8.069l-0.442-1.937
	c-0.839-2.776-0.091-5.079,1.907-7.108c1.861-1.861,4.027-3.249,6.346-4.439l1.739-0.839l2.318-8.192l-0.305-4.973l0.9-10.571
	c-0.397-1.816-0.488-2.868-0.29-3.264l0.595-2.67v-2.914l0.854-2.959v-2.654l1.51-8.466v-5.034l0.854-3.509l0.29-6.467
	c0-2.349,0-3.813,0-4.408l-1.754-5.629v-1.739l-2.609-6.162c-0.229-4.012-1.083-8.42-2.608-10.312l-1.327,2.151l-1.419-0.809
	l-1.663-2.349l0.778-0.793l1.419,1.373l0.625-0.183c-0.595-2.486-0.107-3.051-2.639-3.676l-0.275-3.051l-0.839-0.259l-0.473,1.159
	l-0.686-0.076l-3.081-4.408l2.166,1.708c0.442-1.769,1.068-2.746,1.022-4.729l1.403-0.198l-0.763-1.724l-0.702,0.076l0.503,1.022
	l-1.251-1.357l-0.93,0.595c-1.144-1.434-1.144-1.434-1.144-2.197l-0.991,0.32l0.595,0.931l-0.473,0.381l-2.319-2.669l-0.656,0.534
	l1.083,1.144l-0.717,1.068c1.708,1.907,1.708,1.907,2.135,3.417l-1.861,2.151l-2.624-3.844c0.839,2.608,0.839,2.608,0.671,4.164
	l-0.992,0.488l-0.641-1.373l-1.419,1.144l1.617,2.608l-0.87-0.702l-0.671,0.534L601.126,75.339z M614.87,50.338l-0.885-2.257
	l1.571,0.778L614.87,50.338z M613.512,52.534c-1.388-2.486-1.388-2.486-1.388-3.28l0.931,0.198c0.168,0.961,0.168,0.961,1.114,2.547
	L613.512,52.534z M599.525,64.89c-1.602-0.442-1.678-1.296-1.968-2.639l2.639,2.09L599.525,64.89z M612.338,56.119l-0.793-3.111
	l1.739,0.793l-2.273-2.242l0.564-0.458l-0.869-1.465l-0.015,0.015l-0.656,0.519l0.458,0.564l-0.564,1.235l-1.419-0.412l-0.061,0.519
	C610.736,54.914,610.736,54.914,612.338,56.119z M612.368,60.817l-0.702-1.632l0.702-0.107l0.519,0.824L612.368,60.817z
	 M614.87,59.261l-1.007-1.235l-0.656,0.534l-0.351-0.809l0.992-0.335L614.87,59.261z M610.629,63.136l-0.778-0.778l-1.281,0.565
	l-0.656-1.037l1.373-1.572c0.503,0.214,0.503,0.214,0.595,1.708l1.419,0.58L610.629,63.136z M599.845,72.456l-2.441-0.687
	l-0.427-1.708l0.931-0.58c-0.244-1.678-1.403-2.319-2.639-2.883l-0.152-1.739c1.708,0.168,2.563,1.983,3.554,3.219l2.044-0.549
	l1.251,2.12l-0.671-0.244l-0.854,1.465l-1.281-0.992l-0.885,1.022C599.723,71.922,599.723,71.922,599.845,72.456z M615.587,65.409
	l-1.449-0.244l-2.029-3.692C614.961,63.075,613.558,62.495,615.587,65.409z M615.633,73.798l-1.068-1.312l-0.412,1.419
	c-1.22-2.288-1.22-2.288-1.022-2.624L615.633,73.798z M616.792,76.01l-0.549-2.212l0.915,1.129L616.792,76.01z M610.553,69.451
	c-1.449-1.8-1.632-1.647-1.998-3.859c1.19,0.915,1.19,0.915,2.319,2.502L610.553,69.451z M606.862,73.996l-1.495-1.296l0.061-1.449
	l2.105,1.419L606.862,73.996z M603.445,76.865l-0.702-1.586l0.564-0.458l1.419,0.595c-1.388-2.486-1.388-2.486-1.098-2.731
	l3.081,1.892l-0.031,1.128l-0.732-0.336l0.961,2.349l-1.159-0.641l-0.259,0.458L603.445,76.865z M174.718,200.925v15.742h153.348
	c-8.847-2.349-19.571-4.088-35.877-3.28c13.805-10.601,39.462-5.003,59.246,3.28h33.101c-1.51,0.321-3.005,0.717-4.469,1.236
	l1.586,0.793c4.088,0.442,8.1-0.046,12.127-0.717l3.356-0.641c1.769,0.336,3.341,0.641,4.714,0.9l4.302,4.179l0.793,2.334
	l1.495,0.87c0.656-0.046,3.509,3.539,9.351,8.71l2.334,2.074c0.32,0.488,1.037,1.769,2.166,3.752
	c1.129,1.983,1.617,3.219,1.541,3.737l0.442,0.488l4.363-4.088c1.342-1.266,3.539-6.147,6.437-14.751l1.068-3.127l2.334-18.839
	l-0.122-2.12l1.464-0.32c5.476-1.282,11.074-1.8,16.673-1.816c4.225-0.03,8.451,0.29,12.661,0.58
	c8.435,0.595,16.428,2.715,23.689,7.246l1.434,0.656c2.944,0.915,5.308-0.488,5.919-3.462l0.336-1.602
	c4.149-1.174,8.207-2.334,12.279-3.417c15.315-4.088,30.889-6.117,46.723-5.888c8.725,0.137,17.252,1.525,25.505,4.439
	c3.096,1.113,6.056,2.502,8.74,4.424c1.998,1.434,3.753,3.097,5.186,5.095c1.312,1.831,1.342,3.158-0.091,4.912
	c-1.831,2.242-3.997,4.057-7.002,4.591c-2.914,0.549-5.797,1.205-8.71,1.647c-1.693,0.229-3.005,0.809-3.981,2.227l-1.8,1.708
	l-3.188,2.059c-2.181,1.113-3.523,3.005-4.866,4.896l-0.305,2.929l1.907-1.038l1.419-1.128c2.09-0.717,4.164-1.51,6.193-2.395
	c1.281-0.564,2.487-0.961,3.951-0.778l3.447-0.275c2.38-0.458,4.805-0.87,7.093-1.632c3.005-0.992,5.858-0.641,8.68,0.381
	c1.693,0.595,3.325,1.357,4.958,2.09c1.846,0.793,3.661,1.633,5.476,2.471l1.312,0.778l3.066,0.564l2.288-2.334
	c1.419-0.183,2.669-0.442,3.936-0.549c4.668-0.366,9.32-0.244,13.805,1.251c4.286,1.434,6.132,4.927,4.896,9.274
	c-0.503,1.8-1.358,3.539-2.166,5.247c-0.763,1.602-1.693,3.112-2.532,4.653l3.691-0.137c-0.168,2.013-0.137,2.074-1.22,2.746
	c-1.617,0.976-3.234,2.044-4.973,2.761c-9.061,3.691-18.305,3.92-27.625,1.114c-2.136-0.641-4.134-1.632-5.903-3.02
	c-1.159-0.9-2.303-1.861-2.639-3.387l0.656-0.778l1.678-0.884c2.105-0.671,4.195-1.465,6.361-1.937
	c3.615-0.748,7.276-1.281,10.922-1.922l1.373-0.442l-0.015-0.748c-1.556-0.229-3.097-0.641-4.653-0.702
	c-2.532-0.091-5.079-0.061-7.612,0.092c-2.746,0.168-5.461,0.671-8.054,1.601l-3.127,1.495c-2.41,1.678-3.02,4.362-1.724,6.986
	c0.809,1.663,1.983,3.051,3.448,4.104c1.434,1.037,2.944,2.12,4.576,2.822c10.007,4.347,20.257,4.683,30.6,1.282
	c3.142-1.053,5.995-2.67,8.222-5.202c0.93-1.053,1.846-1.816,3.264-2.273c2.364-0.717,3.356-3.462,2.319-5.705l-1.205-1.891
	l1.586-2.746c2.364-4.714,1.708-10.129-1.663-13.927c-2.044-2.273-4.637-3.676-7.566-4.378c-5.324-1.296-10.663-1.373-16.001-0.076
	c-1.77,0.412-3.402,1.114-4.912,2.12l-1.617,0.747c-3.173-3.889-3.173-3.889-10.967-7.703c1.266-2.166,2.517-4.332,3.874-6.651
	l2.318,0.595c3.081,0.931,6.239,1.19,9.412,0.823l3.966-1.006c1.571-0.687,3.142-1.221,4.805-1.525
	c1.815-0.32,3.432-1.037,4.836-2.227c1.251-1.053,2.12-2.349,2.548-3.936c0.427-1.617-0.259-3.264-1.724-4.057l-1.785-0.61
	c-2.425-0.366-4.851-0.213-7.245,0.26l-1.068,0.641c2.715,1.235,5.888,0.488,8.268,2.685c-1.144,3.89-4.378,5.171-7.261,6.391
	c-3.127-1.053-5.949-1.937-8.725-2.914c-1.998-0.687-4.012-1.357-5.919-2.227l-3.02-2.242c-1.815-1.922-1.769-3.844,0.244-5.491
	c1.434-1.19,3.142-2.105,4.82-2.99l4.058-1.785l1.861-1.815l-1.068-0.915c-2.471-2.014-2.593-5.141-0.091-6.986
	c1.51-1.114,3.219-2.029,4.927-2.807c5.232-2.349,10.693-3.936,16.383-4.805c9.473-1.464,18.533-0.275,27.167,3.92
	c3.249,1.571,6.346,3.401,8.817,6.101c0.946,1.007,1.724,2.075,1.754,3.585c0.046,2.532,1.358,2.608,3.005,2.898l1.251-0.092
	c3.386-0.092,6.757-0.275,10.144-0.214c3.508,0.061,6.956,0.641,10.235,1.922c2.99,1.159,5.644,2.853,7.596,5.522
	c1.266,1.754,1.678,3.676,1.022,5.705c-0.885,2.685-1.449,5.522-3.188,7.886l-0.122,0.961c2.242-0.641,4.134-1.556,5.934-2.624
	c3.737-2.242,6.788-7.841,4.073-13.606l-2.319-3.753c-2.715-3.417-6.33-5.583-10.342-7.093c-5.888-2.166-11.974-2.487-18.137-1.663
	c-1.754,0.229-3.509,0.595-5.202,0.87c-2.975-4.866-5.156-6.986-10.235-9.778c-1.48-0.823-2.99-1.571-4.546-2.242
	c-8.573-3.706-17.496-4.637-26.694-3.264c-6.437,0.946-12.569,2.807-18.366,5.736c-2.288,1.174-4.393,2.532-6.224,4.363
	c-1.952,1.983-2.669,4.225-1.861,6.94l0.442,1.907c-5.339,1.174-10.144,2.944-13.042,7.886l-1.739-1.083
	c-2.654-1.754-5.446-3.249-8.42-4.378c-8.161-3.127-16.627-4.866-25.337-5.308c-7.093-0.351-14.171-0.168-21.233,0.58
	c-4.195,0.458-8.405,0.915-12.554,1.647c-11.288,1.968-22.286,4.896-32.567,10.357c-3.356-1.601-6.986-2.212-10.662-2.639
	c-1.998-0.244-3.981-0.519-5.98-0.671c-4.012-0.351-8.008-0.763-12.005-0.87c-5.812-0.137-11.624-0.061-17.435,0.336
	c-4.469,0.29-8.817,0.976-13.042,2.471l-0.427,0.137l-0.137-2.257l-0.03-0.717l-0.824-14.018l-0.275-2.059l0.03-1.8l-0.32-0.351
	l-0.259-1.846l0.198,0.046l-0.29-0.687l-0.168-1.25l1.053-0.382c0.351-3.066,0.381-6.223,0.168-9.381
	c0.519-1.617,0.519-1.617,0.534-3.692l-1.678-1.556v-1.891l0.03-0.229l1.617-0.336c-0.946-1.922-0.29-3.844-0.564-5.842
	c-0.61-0.183-0.885-6.513-0.976-14.125c0.046-1.632,0.076-3.234,0.076-4.851l0.091-16.581c0.092-2.822,0.198-4.683,0.275-4.881
	l-0.229-0.366l0.32-61.824l1.037-2.746c0.93-1.8,1.495-2.898,1.678-3.219l0.793-6.483l2.288-5.43
	c-0.183-3.448-0.305-5.293-0.397-5.553l-1.144-2.212l-2.563-4.363l-4.149-3.402l-2.075-3.081l-2.334-1.815l-7.23-3.6
	c-2.425-1.373-4.149-2.181-5.156-2.349c-5.69-0.488-8.603,0.976-8.786,4.408v0.793l0.747,2.303l-1.281,10.357l1.281,0.275
	l2.075-4.942l-0.046-1.022c1.51,6.681,3.981,12.707,3.981,18.152v71.236l-0.076,0.092l0.076-0.031v45.259l-0.091,1.129l0.091,1.769
	v33.391c-0.091,2.166-1.693,3.692-1.19,6.01l0.976,0.625c-0.397,1.449-0.564,3.234-2.486,3.234l-0.29-0.626l-0.015,0.946
	l-2.029,1.739l0.686-0.504l-5.614,0.931l-0.717,0.915c-1.159-0.305-1.159-0.305-2.563-0.076c-0.839,3.005-6.941-0.305-9.564,1.16
	c-2.075,0.412-4.256,1.129-6.422,1.632l-1.312-0.32l1.022,0.381l-2.913,0.458l-0.259,1.007c2.181,0.458,2.181,0.458,2.563,0.839
	c-1.419,0.931-5.568,1.693-6.132,3.005l1.556,0.839h-2.41l-0.473-0.382l-0.412,0.534l-1.678-0.992
	c0.564-1.312,4.714-2.074,6.147-3.005c-0.397-0.381-0.397-0.381-2.578-0.839l0.259-1.007l2.913-0.458l-1.007-0.381l1.296,0.32
	l3.524-0.915H174.718z M109.615,36.914l-0.29-0.152c-1.48,0.397-2.319-0.153-3.829,0.198l0.122,0.427l0.686-0.366L109.615,36.914z
	 M155.041,50.46c2.075,0.244,4.637,0.107,6.391,0.259l-0.015,0.259l1.403-0.274l0.214,0.229h3.096l0.137,0.732l-0.549-0.244
	l0.381,0.412l2.044,0.046l-0.915-0.839l1.129,0.61l0.747-0.091l-0.717-0.9l1.068-0.107l0.32,0.351
	c2.791-1.068,2.441,0.305,2.791,1.525l0.366-0.961l1.037,0.687l0.153-0.671l0.397-0.214l0.336,0.183l-0.214,0.702l0.793-0.153
	l0.808,0.625l1.144-0.122l-1.083-0.945l0.305-0.107l1.373,0.976l-0.564-1.281c1.114-0.168,2.288,0.214,3.676,0.091l0.076,0.549
	l-0.9,0.031l2.471,0.503l-1.129-0.595l0.198-0.336l1.175-0.091l0.488,0.641l3.6,0.275c-1.449-0.58-1.449-0.58-1.419-0.732
	l1.998,0.732l1.815-0.488l-0.61,0.442l0.198,0.397l1.693,0.137l-0.381-1.006l1.388,0.259l0.122,0.412l3.31-0.213l0.198-0.458
	l1.846,1.067c1.525-0.168,1.861,0.015,2.99,0.626l0.503,0.015l-1.114,13.942c-0.534,2.731-0.534,4.378,0,4.942l0.458,0.168
	c-1.495-5.705,3.447-10.129,8.1-12.371c5.705-2.761,11.791-3.6,18.091-2.837c1.586,0.183,3.097,0.595,4.805,1.8l0.351,0.076
	c3.707,0.549,6.117,0,7.169-1.663c1.602-2.166,0.778-5.202-2.38-9.076c-9.015-9.305-17.237-15.346-24.681-18.091
	c-1.297,0-3.203,1.465-5.72,4.363l-2.883-1.724l-0.824,0.458l-1.556,0.244l0.61,0.946l-2.502,0.747l0.046,0.336
	c-2.242,0.763-3.188,0.915-5.583,0.839l-0.58,0.472l0.427,0.107l-3.691,0.275l0.396,0.152l-0.625,0.137l-1.129-0.961l-1.983,0.03
	c-1.48,0.565-4.195,1.449-4.79-0.152l-0.915,0.198l-1.541-0.595l-1.708,1.053l-0.458-0.488l0.763-0.442l-0.397-0.275l-0.854,0.534
	l-0.549-0.412l-3.035-0.488l-0.732,0.472l-0.427-0.305l-4.729,0.046l-2.441-0.58l-1.144,0.488l-0.519-0.107l-0.336,0.275
	l-0.702-0.03l0.107-0.351l-0.427-0.107l0.259-0.366l-1.007,0.183l-0.564-0.336l-1.556,0.58l-1.312-0.9l-0.229,1.434l-1.159-1.678
	l-0.488,0.153v-7.52h58.865c2.685-1.083,3.188-3.584,1.602-7.413c-7.947-8.222-14.567-12.905-19.891-14.018
	c-3.158,0-6.895,4.942-11.135,14.827H97.884c-8.801-0.717-17.481-2.212-26.023-4.546c-6.513-1.785-12.951-3.799-19.433-5.644
	C40.759,6.91,28.906,5.034,16.718,5.598c-4.82,0.213-9.564,0.808-14.262,1.876L0,8.283L0.076,9c3.63,0,7.246-0.031,10.876,0.015
	c8.588,0.091,17.084,1.053,25.489,2.791c8.024,1.678,15.803,4.18,23.476,7.017c16.2,5.98,32.872,9.26,50.201,9.641
	c5.217,0.122,10.373-0.122,15.498-0.671v6.331c-7.398,0.259-14.613,0.549-16.123,1.266c-0.671,0.305-3.295,0.732-7.078,1.174
	l2.288-0.015l-0.763,0.641l-0.839-0.198l-0.229,0.305c-4.515,0.274-9.427,1.418-13.912,1.159l0.076-0.565
	c-1.891,0.168-3.859,0.321-5.827,0.473l-0.214,0.61c-1.053-0.061-4.805,1.098-7.322,2.059c-1.937-2.486-3.844-4.988-5.766-7.459
	c-3.188-2.746-5.034-2.746-5.568,0c-0.503,7.139-3.691,14.018-9.534,20.578c-6.391,8.253-5.293,14.568,3.188,18.945
	c10.586,1.647,17.481-2.746,20.669-13.18c0.214-1.464,0.336-2.974,0.381-4.53h0.137l-0.122-0.046l0.015-0.854l1.48,0.031
	l-1.053,0.503l0.214,0.229c1.449-0.244,2.913-0.503,4.332-0.671l-0.641-0.9l3.341-0.274l-0.61-0.397l1.525,0.305l0.168-0.29
	l1.647,0.168l-0.29-0.519l1.159,0.275l0.503-0.183c2.898,0.443,5.415-0.656,8.313-0.213c2.044-0.626,5.034,0.107,6.651-0.519
	l2.364,0.137l-3.661-0.931c1.617-0.625,3.371-0.152,5.003-0.458l1.312,0.885l0.885-0.031l-0.808-0.808
	c1.663-0.641,6.376-0.061,8.496-0.305c1.083,0.275,3.768,0.015,6.208-0.076v25.154c-0.549,5.476,1.586,7.932,6.346,7.413
	c1.083,0,3.188-0.29,6.376-0.854c4.759-0.519,7.947-1.083,9.549-1.647c4.775-1.083,7.154-4.683,7.154-10.677V50.46z M90.456,37.754
	l2.517-0.214l-3.31,0.503L90.456,37.754z M93.14,37.525l1.373-0.122l-0.824,0.442L93.14,37.525z M94.681,37.372l0.625-0.061
	l-0.275,0.183L94.681,37.372z M121.818,51.726l-1.602-0.122l0.412-0.198L121.818,51.726z M125.189,51.482
	c-1.815,0.107-2.746-0.092-2.959,0.046l-0.519-0.595l2.547-0.015L125.189,51.482z M157.115,47.592h-1.647H157.115z M155.041,47.608
	v-0.015h0.336L155.041,47.608z M165.764,47.912l-0.381,0.046l-0.519-0.366h0.549L165.764,47.912z M164.178,47.592h0.32l-0.015,0.29
	L164.178,47.592z M166.817,47.882l-0.747-0.29h0.473L166.817,47.882z M172.278,48.385c-1.419,0.183-2.608,0.168-3.874-0.122
	L172.278,48.385z M169.074,36.152l-0.381,0.153l-1.159-0.565l0.046-0.214l1.251-0.015L169.074,36.152z M220.48,62.785l-3.203-1.296
	c-3.813-0.458-7.505,0.061-10.968,1.723l-3.02,2.044c-2.776,2.609-2.715,5.965,0.076,8.542l3.737,2.288l2.151,0.884l-0.763,0.473
	c-3.264,0.137-12.905-2.044-16.047-1.068l-1.175-0.061c-2.075-0.946-3.554,0.885-6.224-0.137l-1.678,0.168
	c-2.914-0.214-5.827-0.565-8.756-0.687c-4.973-0.259-12.92-0.458-17.878-0.015l3.905,2.868c2.12,0.183,2.654,0.259,4.759,0.366
	c4.058,0.214,14.171,1.48,18.244,1.739c2.029,0.122,4.042,0.412,6.086,0.641c0.61,1.602,1.968,2.135,3.325,2.776
	c1.709,0.808,3.341,0.656,4.927-0.137c1.373-0.687,2.7-1.495,4.042-2.273l0.168-0.381l-0.473-0.671
	c1.663-0.168,4.683-1.22,6.147-1.342c3.249-0.275,5.522,2.532,8.756,2.196c2.593-0.244,6.925-1.769,9.549-1.815l2.624-0.992
	l6.086-1.724c-1.48-1.205-9.579-0.823-11.7-1.19c-2.166-0.381-4.332-0.671-6.513-1.037c-2.746-0.442-5.491-0.87-8.054-1.983
	l-2.914-1.723l-0.076-2.944l3.447-2.257c2.73-1.144,5.598-1.739,8.466-2.319L220.48,62.785z M113.23,194.396l-0.168-0.397
	c-2.807,0.168-3.081-2.883-5.141-3.447l-0.061-0.382l-0.458-0.046l-1.129-1.144c-0.9-1.617-1.907-3.066-3.92-3.951l-0.427-1.16
	c-2.074-1.525-3.02-4.668-5.095-5.903l-0.107-0.442l-0.946-1.434l-2.029-3.31c-7.398,7.124-16.962,14.003-28.601,20.547
	c-2.136,0.58-3.737,0.29-4.775-0.793c-1.053-0.564-0.793-1.373,0.778-2.456c10.083-13.225,16.184-28.006,18.289-44.481
	c0-3.874,1.602-5.247,4.79-4.118c12.188,2.181,20.944,4.118,26.282,5.751c2.09,1.083,3.142,2.746,3.142,4.927
	c0,1.662-1.053,2.746-3.142,3.294c-2.685,1.099-5.339,3.021-7.978,5.766l-1.907,2.791l0.61,0.076l0.259-0.29l3.402,1.449h0.946
	l2.761,1.907l0.107,0.564l2.227,1.357l0.214-0.351l1.068,0.778v0.259l1.754,1.053l1.007,0.046l0.046,0.381l0.366,0.122l0.275,0.946
	l0.732,0.503l0.58,0.092l2.349,2.242l2.12,4.744l1.48,2.654c0.793,1.968,1.815,3.249,1.968,5.156l0.961,1.357l-1.235,1.708
	l-2.227,2.685l-2.959-1.236l0.153,0.9l-0.793-0.473l-0.946-0.031l-0.87,1.556l-1.525-0.717l-1.922,0.168l0.061,0.549L113.23,194.396
	z M213.036,196.76l-0.153-0.381c-2.822,0.153-3.081-2.914-5.141-3.462l-0.061-0.366l-0.473-0.046l-1.114-1.144
	c-0.9-1.632-1.907-3.081-3.936-3.966l-0.412-1.144c-2.074-1.541-3.035-4.683-5.095-5.919l-0.107-0.427l-0.961-1.449l-2.059-3.921
	l-0.488-0.03c-0.275-1.724-2.288-3.02-2.486-4.759l-0.503,0.549l-1.358,1.464c-7.642,8.192-16.49,15.376-26.481,21.569
	c-2.136,0.58-3.707,0.29-4.79-0.793c-1.053-0.564-1.053-1.662,0-3.31c8.481-11.517,13.82-26.069,15.925-43.626
	c-0.549-2.746,1.053-4.118,4.79-4.118c3.691,1.083,9.259,2.456,16.688,4.118c4.256,1.083,7.444,1.633,9.549,1.633
	c1.586,1.083,2.639,2.746,3.188,4.927c0,2.212-1.053,3.294-3.188,3.294c-3.707,1.099-6.361,3.021-7.947,5.766l-1.403,2.029
	l-0.869,1.083l3.508,0.854l2.654,0.687v0.503l0.747,0.092l0.259-0.305l3.386,1.449h0.961l2.761,1.907l0.107,0.564l2.227,1.357
	l0.214-0.351l1.053,0.763v0.275l1.754,1.053l1.007,0.046l0.046,0.381l0.381,0.122l0.259,0.945l0.747,0.503l0.58,0.092l2.334,2.242
	l2.12,4.729l1.495,2.685c0.793,1.968,1.8,3.234,1.952,5.156l0.961,1.342l-1.22,1.724l-2.227,2.685l-2.975-1.251l0.168,0.9
	l-0.793-0.473l-0.961-0.046l-0.854,1.571l-1.541-0.702l-1.907,0.153l0.061,0.549L213.036,196.76z M388.212,215.888l-0.9,0.183
	l-0.076-0.015c-3.417-0.183-6.818-0.641-10.144-0.778C380.722,215.111,384.46,215.568,388.212,215.888z M297.711,211.328
	l1.678-0.534c3.203-0.732,6.452-1.129,9.747-1.297c8.313-0.381,16.413,0.916,24.391,3.158c4.439,1.251,8.832,2.639,13.271,3.86
	c7.825,2.135,15.803,3.249,23.903,3.417c10.357,0.198,20.745,0.259,31.103,0.397l0.824,0.137l-0.87,0.519
	c-9.411,2.746-18.945,4.362-28.815,4.134c-11.837-0.244-23.232-2.502-34.306-6.574c-5.247-1.937-10.556-3.646-16.032-4.79
	c-5.751-1.205-11.547-1.861-17.42-1.922c-2.471-0.015-4.942,0-7.413,0L297.711,211.328z M651.678,259.743
	c2.654-1.006,5.675-1.129,8.756-0.976c4.851,0.259,9.656,0.702,14.628,2.258l-1.296,0.854c-3.524,1.373-7.2,1.571-10.891,1.312
	c-2.075-0.153-3.676,0.259-5.064,1.83c-1.602,1.815-3.829,2.608-6.117,3.066l-3.112-0.061c-2.273-0.519-3.753-2.456-3.875-4.805
	l0.092-1.662l-3.661-2.242c1.19-0.732,1.724-0.854,4.988-0.534C647.91,258.966,649.649,259.393,651.678,259.743z M698.873,221.41
	c3.02-1.037,5.751-2.135,8.588-2.913c2.136-0.565,4.363-0.778,6.574-1.022c1.373-0.153,2.746,0.137,3.981,0.809l1.983,2.685
	l-1.876,1.571l-1.8,0.61c-5.461,1.19-10.937,2.38-16.413,3.539l-2.883,0.29l-1.037-1.633c-0.9-1.373-2.074-2.41-3.646-2.898
	l-3.996-1.007c-5.11-0.519-10.113,0.305-14.964,1.937c-1.617,0.549-2.715,1.602-3.097,3.31c-0.29,1.388,0.03,2.578,1.251,3.325
	l3.127,1.51c1.403,0.687,2.944,1.221,3.646,2.792l-3.264,1.693c-2.868,0.092-5.415-0.763-7.459-2.852
	c-3.234-3.31-2.547-8.726,1.388-11.227l0.29-0.137c4.271-1.174,7.978-3.859,12.386-4.668c2.944-0.519,5.888-0.625,8.847-0.29
	C694.328,217.307,696.158,218.329,698.873,221.41z M560.017,232.531c-1.571,0.351-2.669,0.626-3.783,0.839
	c-3.737,0.763-7.459,1.541-10.983,3.02c-1.678,0.687-3.249,1.525-4.469,2.914c-1.297,1.434-1.358,2.593,0.107,3.798l3.768,2.273
	c3.325,1.403,6.895,1.968,10.434,2.563c2.822,0.442,5.644,0.823,8.451,1.312c2.73,0.488,3.264,0.763,5.202,2.319l-0.992,0.702
	l-3.401,0.671c-3.402,0.046-6.712,0.747-10.083,1.083c-4.195,0.397-8.42,0.626-12.63,0.946c-1.892,0.153-3.768,0.397-5.919,0.61
	l0.61,0.854l-0.213,0.503c-1.739,1.007-3.448,2.044-5.232,2.944c-2.075,1.037-4.18,1.221-6.407,0.168
	c-1.739-0.809-3.509-1.495-4.286-3.6c-2.669-0.274-5.278-0.671-7.902-0.824c-5.278-0.32-10.556-0.473-15.833-0.748
	c-2.73-0.152-5.461-0.442-8.207-0.641l1.342-1.022c6.422-0.549,12.844-1.022,19.296-0.702c3.798,0.198,7.581,0.626,11.364,0.9
	l2.166-0.214c2.7-0.458,5.385-1.037,8.069,0.168l1.525,0.107c4.073-1.282,8.237-1.785,12.478-1.968l1.007-0.61l-2.807-1.129
	c-1.754-0.748-3.417-1.678-4.836-2.99c-3.615-3.325-3.707-7.688-0.107-11.044c1.144-1.083,2.517-1.983,3.92-2.654
	c4.5-2.181,9.259-2.837,14.201-2.242C557.225,231.005,558.522,231.371,560.017,232.531z M160.136,200.925h10.601v15.742h-10.601
	c1.19-2.379,1.861-5.049,1.861-7.886C161.997,205.958,161.325,203.289,160.136,200.925z M160.197,208.78
	c0-8.176-5.583-15.04-13.164-16.993l-2.456-0.214l-3.524-0.336c-9.702,0-17.557,7.841-17.557,17.542
	c0,9.702,7.856,17.557,17.557,17.557h0.137c5.674-0.351,8.435-3.813,8.435-8.13c0-5.964-3.783-7.749-8.573-9.427
	c-3.783-1.342-7.703-2.73-8.161-8.649c-0.412-5.308,4.988-8.862,10.998-8.527c-5.339,0.32-9.778,3.691-9.412,8.527
	c0.473,5.919,4.378,7.307,8.176,8.649c4.79,1.678,8.557,3.463,8.557,9.427c0,4.317-2.761,7.78-8.42,8.13
	C152.417,226.261,160.197,218.421,160.197,208.78z M142.655,196.135c1.51,0,2.746,1.235,2.746,2.761c0,1.51-1.236,2.746-2.746,2.746
	c-1.525,0-2.761-1.235-2.761-2.746C139.894,197.37,141.129,196.135,142.655,196.135z M141.053,215.919
	c1.525,0,2.746,1.235,2.746,2.761c0,1.51-1.22,2.746-2.746,2.746c-1.525,0-2.761-1.235-2.761-2.746
	C138.292,217.155,139.528,215.919,141.053,215.919z M34.321,210.29l-0.107,0.244l0.03,1.815l0.153,0.153v0.046
	c0,1.556,0.702,2.944,1.8,3.874l-1.19,0.214c-2.166-0.641-1.953-3.005-2.166-4.805l-2.715-3.127l0.229-1.602l1.647-1.235
	l0.092-2.181l0.351-1.083l1.8-1.647l1.236,0.244l-1.083,3.142l0.015,0.351l-0.198,0.397l0.183,1.327l-0.808,0.687l-0.229,1.602
	L34.321,210.29z M41.857,209.284l-0.092-0.031l-3.127,1.282l0.03,1.815l0.869,0.534l0.015-1.876c0.381-1.724,1.556-1.205,2.41-1.617
	l0.076,0.031l-0.183-0.931l-1.647-1.785l-0.686-2.334h-0.092l-0.793,0.717l0.839,2.059l2.151,1.404L41.857,209.284z M42.604,212.685
	l0.076,0.687l-0.381,2.029l-0.641,1.053v0.213h81.319c-1.19-2.379-1.861-5.049-1.861-7.886c0-2.822,0.656-5.491,1.861-7.856H41.521
	l0.641,2.7l-0.091,0.503l-1.388-2.288l-2.013-0.885l-1.8,1.647l-0.351,1.083l-0.092,2.181l-1.647,1.235l-0.229,1.602l2.715,3.127
	c0.214,1.8,0,4.164,2.166,4.805l1.327-0.366l0.595-1.388l0.854-0.839L42.604,212.685z M126.394,194.38v-55.402H87.42
	c-7.978,0.564-14.323,1.129-19.113,1.647c-2.105,0.564-3.432,0-3.966-1.647c-1.053-0.519-2.105-1.647-3.188-3.264l-0.778-2.502
	c-1.053-1.647-0.549-2.181,1.586-1.647c2.105,0.564,6.117,1.129,11.913,1.647c6.925,0,12.493,0,16.734,0h100.249
	c3.691-6.574,7.398-10.678,11.135-12.341v-2.486h-7.978c-0.503,4.393-1.831,6.895-3.966,7.429
	c-2.105,1.114-5.568,1.632-10.327,1.632c-5.324,0.565-7.703-1.632-7.154-6.574c0-0.549,0-2.196,0-4.942
	c0-2.181,0.229-5.202,0.778-9.076c0-4.912-0.275-8.787-0.778-11.517c0-2.731,0-5.202,0-7.413c-1.098-4.394,0.503-6.285,4.744-5.766
	c7.978,2.227,13.82,4.119,17.512,5.766h4.79c2.654-4.912,5.568-7.414,8.725-7.414c9.579,3.874,15.925,7.978,19.113,12.356
	c0.503,2.197-0.259,3.829-2.38,4.942c-1.586,1.114-2.41,3.005-2.41,5.797v11.517c0,3.264-1.586,5.75-4.744,7.413
	c-1.098,0.534-2.41,1.083-4.012,1.617c-1.556,0-2.639,0-3.158,0c3.158,2.212,6.62,5.232,10.327,9.061
	c1.083,1.647,1.586,3.02,1.586,4.118c-0.503,1.129-1.586,1.647-3.188,1.647h-63.655v54.944c-3.646-3.417-8.558-5.537-13.973-5.537
	c-5.629,0-10.739,2.303-14.415,5.994H126.394z M86.612,88.763H89.8c3.737-5.507,6.62-7.963,8.756-7.398
	c8.497,3.249,14.598,7.398,18.305,12.325c0.534,2.212-0.275,3.859-2.38,4.942c-1.602,1.098-2.41,3.035-2.41,5.766v12.371
	c0,4.393-1.556,6.849-4.759,7.383c-2.136,1.128-5.049,1.662-8.756,1.662c-5.293,1.114-7.429-0.823-6.376-5.766v-0.809h-7.139
	c-1.083,4.912-2.669,7.398-4.775,7.398c-3.203,1.098-6.895,1.907-11.135,2.456c-5.293,0.58-7.719-1.647-7.169-6.559
	c0-1.114,0-2.776,0-4.942c0-2.746,0.275-6.056,0.778-9.884c0-4.958-0.259-8.787-0.778-11.532c0-2.761,0-5.217,0-7.413
	c-1.053-4.378,0.519-6.315,4.759-5.751c8.481,2.181,14.873,4.119,19.098,5.751H86.612z M141.541,89.586h3.966
	c2.639-4.973,5.293-7.429,7.947-7.429c7.429,2.746,13.545,6.864,18.289,12.371c0,2.166-0.778,3.829-2.364,4.912
	c-2.654,1.129-3.707,3.02-3.203,5.766v12.386c0,4.378-1.312,6.849-3.966,7.398c-3.188,1.083-6.117,1.647-8.756,1.647
	c-5.308,1.098-7.444-0.824-6.346-5.766v-0.823h-7.169c-1.083,3.859-2.41,6.315-3.966,7.398c-2.685,1.099-5.842,1.647-9.579,1.647
	c-6.346,0.58-8.756-1.647-7.169-6.559c0-6.04,0-10.708,0-14.018c0-4.912-0.229-8.786-0.778-11.532c0-2.746,0-5.202,0-7.398
	c-1.053-4.393,0.549-6.33,4.79-5.766c5.293,1.647,11.135,3.31,17.481,4.942L141.541,89.586z M194.823,64.066h-34.992v-6.605h34.992
	V64.066z M120.826,79.702H87.42v-6.605h33.406V79.702z M120.826,64.066H87.42v-6.605h33.406V64.066z M201.992,93.69v18.93h-7.978
	V97.808c0-2.196,0.534-3.57,1.602-4.118H201.992z M147.109,95.337h-6.391c-1.053,0.564-1.327,1.937-0.778,4.103v14.842h7.169V95.337
	z M92.179,94.528h-6.361c-1.037,0.534-1.312,1.907-0.778,4.103v14.842h7.139V94.528z M380.967,208.109l0.366-0.443l0.473,0.382
	l2.624,0.076l-2.349,1.633l0.29,0.61c-3.203,3.081-11.151,3.371-15.605,4.149c1.785,0.778,4.424,0.534,6.315,0.687l0.015,0.122
	l-3.249,0.427l-0.183-0.549c-1.892-0.153-4.53,0.091-6.3-0.687c4.454-0.778,12.386-1.068,15.59-4.149l-0.29-0.61l2.364-1.633
	L380.967,208.109z M403.512,195.509l-0.595-0.992l1.159-0.702l-1.327,1.373l1.831,0.244L403.512,195.509z M383.255,199.597
	l-0.992,0.381l-0.183-0.473c-1.403-0.458-1.998-0.686-3.325-0.458c-1.449-0.305-2.669,0.458-3.935,0.687l0.183,0.549
	c0.534,0.305,0.534,0.305,2.807,0.458l0.992-1.464l0.244,0.778l1.724,0.534l0.275-0.534h1.235l0.336,0.534
	c1.632-0.305,3.28-0.534,5.003-0.778l-0.046-1.312l-1.251-0.076L383.255,199.597z M343.594,116.402l4.134-16.535
	c-1.053-0.488-2.41,0.259-4.134,2.334l-5.43,5.431c-1.907,2.41-3.005,3.966-3.356,4.683l-2.075,5.949l-1.8,2.013
	c-1.022,1.236-1.678,3.066-1.953,5.446c-0.259,2.425,0.137,3.706,1.159,3.874c0.168,0.168,1.235-0.046,3.127-0.61
	c1.891-0.626,2.99-1.114,3.356-1.465l1.541-2.822l2.593-3.341l1.022-2.883L343.594,116.402z M373.584,61.625l6.712,13.714
	l1.053,12.401l0.229,17.817l-1.815,3.387l0.274,2.044l-0.763,1.8l-1.327,3.615l-2.014,3.143l-1.068,2.822l1.281,4.149v2.593
	l0.519,2.822c0,1.724,0.046,2.654,0.137,2.746c0.091,0.092,1.053,0.443,2.959,1.144l5.201,6.971
	c2.212,2.425,4.546,1.617,6.971-2.334l1.281-1.831c0.702-0.823,1.632-4.698,2.868-11.578l2.029-11.654l2.334-8.527l0.793-14.72
	l-0.259-19.677l1.815-7.459l2.593-14.766l1.022-4.378l2.822-14.995l0.534-3.89l0.122-2.807l-0.793-1.693
	c-0.397-0.259-1.053,2.517-1.891,8.389l-2.075,6.209l-4.683,17.573l-6.162,15.513l-1.953-0.793l-2.334-1.922
	c-0.976-0.595-2.212-1.647-3.753-3.097c-1.541-1.449-3.127-2.334-4.759-2.608c-1.678-0.259-2.959-0.626-3.89-1.144l-3.478-1.541
	L373.584,61.625z"/>
<path fill="#EF8200" d="M41.125,286.453c1.388,0.031,3.051-0.595,4.271-1.266l2.242-2.105l0.839-1.113l1.617,0.427l0.412,0.823
	l2.425,1.8l1.891,0.748l0.549,0.519l-1.617,1.312l-0.595-0.137l-0.107-0.031l-0.305,1.312l-0.107,3.997l-0.381,1.754l-0.961,0.442
	l-2.105-0.03l-1.724,0.274l-1.236,0.305l-0.869-1.8l0.046-2.517c0.03-1.403,0.061-2.532-0.29-3.158l-2.441,1.205l-1.678-1.724
	l-0.076-0.93L41.125,286.453 M49.819,276.02l-0.107,0.03l-0.061,0.793l0.351,0.061l2.883,0.107l1.663,0.183l0.931,0.915
	l-0.351,0.595l-0.244,1.068c0,1.479,0,1.937-0.793,1.937l-0.93-1.006l-0.244-1.769c-0.488-0.061-1.739-0.229-3.158-0.198
	l-2.944,0.061l-2.517,0.198l-0.58,1.342l-0.961,2.456l-1.251-1.16l0.549-1.907l-0.198-1.022l1.205-1.479
	c0.473-0.122,1.144-0.153,4.454-0.351l-0.153-2.258l-0.381-0.778l1.388-1.693c1.281,0,1.617,0.107,1.586,2.166l1.617-0.031
	c1.724,0.046,1.937,0.046,1.937,0.595l-1.342,1.113L49.819,276.02z M45.06,282.762l1.48-0.823l0.625,0.564l-0.488,0.687
	l-1.266,1.266l-1.281,0.625l-0.885-1.251l0.122-0.381L45.06,282.762z M51.375,279.619l0.854,0.732l-0.991,0.839l-2.593,0.061
	l-2.41,0.107l-1.175-0.397l0.87-1.343l2.852-0.061L51.375,279.619z M48.401,292.25l-1.022,0.031l-0.076,0.061l0.076,0.854
	l1.953,0.091l1.388-0.107l0.168-0.961L48.401,292.25z M47.928,289.87l-0.549,0.031l-0.046,0.122l0.336,0.839l1.663-0.061
	l1.586-0.092l0.046-0.732l-0.046-0.153L47.928,289.87z M47.379,288.635l3.02-0.046l0.458-0.061l0.107-0.214l-0.107-0.687
	l-1.007-0.091c-1.541,0-2.136,0.122-2.471,0.198l-0.046,0.823L47.379,288.635z M51.055,285.935l0.03-0.107l-1.922-1.724l-0.442,0.32
	l-1.175,1.449L51.055,285.935z M51.497,281.74l0.839,0.473l1.724,0.839l0.549,0.427l-1.251,1.007l-2.547-2.166L51.497,281.74z
	 M56.714,282.289l-0.488,0.107l-0.824-0.87l0.931-1.617l0.625-0.214l1.144,0.9l0.686,2.136l0.351,0.976l0.137,0.092l0.122-0.168
	l0.931-2.38l0.869-3.584l-0.549-0.076l-2.075,0.03l-1.449,0.031l-0.793,0.137l-0.687-0.793l1.541-2.151l0.244,0.061h3.676
	l0.992-0.107l2.715,1.968l-1.51,1.175l-0.381,0.503l-0.9,3.081l-0.687,2.273l-0.732,2.105l0.732,1.342l1.419,1.861l0.656,0.686
	l1.556,1.388l0.641,0.534l0.076,0.198l-1.068,1.8l-1.251,0.884l-0.549-0.427l-0.686-0.717l-1.312-1.861l-0.198-0.305l-1.281-2.273
	l-0.32,0.687l-1.434,2.41l-1.77,2.059l-1.022,0.397l-1.174-0.946l-0.29-1.51l0.122-0.488c1.571-0.626,4.713-4.897,4.713-5.37
	l-0.641-1.601l-0.702-2.227L56.714,282.289z"/>
<path fill="#EF8200" d="M158.809,280.214l-2.41,0.137l-2.242,0.519l-0.366-0.107l-0.198-0.594l0.198-0.854l-2.151-2.029l0.961-0.61
	l3.798-3.005l-0.214-0.732l1.144-0.748l1.129,1.373l-0.107,0.793l3.935-0.107l1.998,0.823l-0.275,0.87l-1.266,0.534l-1.19,0.091
	l-0.107,0.534l0.29,0.976h1.922l1.205,0.763l-0.9,1.006l-1.678,0.168l0.137,0.32l1.373,1.343l0.687,1.159l-1.129,1.068l-2.075-1.739
	l-0.656-0.641l-1.403,1.205l-0.839,0.625l-2.578,1.617l-0.519,0.168l-1.586,0.351l-2.181-2.212l0.702-0.488
	c1.51,0,1.663,0,3.035-0.427c1.51-0.458,1.678-0.519,2.059-0.747l1.495-1.312V280.214 M172.141,294.492l-2.746,0.244l-3.524,0.061
	l-6.788-0.03l-1.175-0.168l-0.381-0.137l-0.168,0.031l-0.976-1.495l-0.686-2.974l-0.549-1.114l-0.824-1.556l2.349-2.273l1.541-0.229
	c2.319-0.015,5.751-0.091,8.039-0.152l2.791-0.046h0.488l2.486,0.076c1.983,0.061,3.295,1.098,3.295,2.212l-0.198,0.717
	l-0.824,1.418l-0.458,1.922c-0.656,2.685-0.732,2.975-1.663,3.371L172.141,294.492z M159.556,278.186l0.351-0.427l0.076-0.931
	l-0.244-0.305l-2.685,0.183l-1.281,1.373l-0.076,0.137L159.556,278.186z M171.347,286.972l-2.38-0.229l-0.534-0.015h-2.883
	l-4.927,0.214l-2.242,0.305l0.046,0.839l0.488,0.473l6.33-0.076l3.768,0.046l2.029,0.061l0.442-0.411l0.137-1.16L171.347,286.972z
	 M159.205,292.341l2.349,0.046l6.605-0.046l0.915-0.091l0.763,0.061l1.037-0.107l0.214-1.83l-0.076-0.091h-0.671l-2.959,0.091
	l-7.474,0.076l-1.236,0.122l0.229,1.708L159.205,292.341z M172.11,274.082l1.419-0.061c2.593,0.366,3.28,1.343,3.28,1.846
	l-0.534,0.9l-0.473,1.343l-0.458,1.632l-0.641,2.547l-1.22,1.068l-1.068,0.092l-2.166-0.107h-2.029l-1.342,0.183l-0.976-1.251
	l-0.229-3.371l-0.29-1.571l-0.488-1.282l1.77-1.907l2.517-0.122L172.11,274.082z M167.656,280.763l0.046,0.031l2.441,0.031
	l2.029-0.061l0.839-0.549l0.381-3.615l-0.351-0.046l-2.136-0.137l-2.578,0.03l-0.839,0.076l-0.061,0.107L167.656,280.763z"/>
<path fill="#EF8200" d="M278.399,288.481l-2.212-2.44l-2.563-2.853l-2.746-3.371l-0.427-0.229l-0.259,0.107l-1.586,1.754
	l-1.907,1.968l-1.312,1.632l-0.793,0.336c-1.434,0-1.861-2.105-1.861-2.517l0.656-1.159l1.007-0.031l4.302-3.341l2.212-1.235
	l2.105,1.495c1.342,2.654,5.11,6.254,6.163,6.971c2.151,1.51,2.669,1.861,4.286,2.486l1.449,0.915l-2.425,2.563l-1.892-1.022
	l-1.693-1.602L278.399,288.481"/>
<path fill="#EF8200" d="M387.19,293.089l-1.205,0.305l-2.898-1.663l0.58-0.503l2.319-0.748l3.005-1.708
	c2.059-1.861,2.197-3.462,2.197-5.11c0-3.265-2.822-6.331-7.276-6.331l-0.412,0.549l-0.198,3.264l-0.03,0.275l-0.397,2.212
	l-0.137,0.626l-0.717,2.227l-0.931,2.074c-0.656,1.465-1.998,3.234-3.661,3.234c-1.51,0-2.822-1.098-3.691-1.922
	c-1.007-0.961-1.343-2.532-1.343-3.966c0-1.724,0.458-4.241,2.181-6.574c0.519-0.702,3.89-4.088,8.985-4.088
	c2.288,0,3.462,0.32,5.324,1.083c3.31,1.343,4.957,4.332,4.957,7.81c0,1.083-0.305,4.043-2.548,6.407l-2.425,1.846L387.19,293.089
	 M380.082,284.79c1.037-2.654,1.037-4.774,1.037-6.513l-0.214-0.626c-0.03,0-2.685,0.702-4.576,3.188
	c-1.037,1.403-1.647,3.096-1.647,4.835c0,2.258,1.464,3.432,2.364,3.432C378.221,289.108,379.365,286.651,380.082,284.79z"/>
<path fill="#EF8200" d="M484.388,282.731l-1.22,0.519l-2.166-2.059l0.442-0.885l0.214-0.03c2.029,0,3.92-1.022,3.996-1.083
	l1.998-1.373l0.717-0.884l0.87,1.037l-3.036,3.523L484.388,282.731 M482.482,293.195l1.174,0.061l5.064-0.976l1.205-0.397
	l1.419,0.656l-6.101,2.944l-3.31-1.891L482.482,293.195z M484.236,272.877l0.931,0.137l4.012,2.685l-0.458,0.412l-0.931-0.244
	l-1.937-0.214l-2.334,0.015l-0.992-0.626L484.236,272.877z M490.734,281.877l2.364-0.107l2.563,0.031l2.318,0.107l2.395,0.336
	l1.8,1.922l-0.549,0.976l-0.93,2.654l-0.412,2.151c-0.32,1.678-2.303,1.678-4.347,1.617l-3.035-0.076l-4.378,0.076l-1.48-0.534
	l-0.32-0.915l-0.061-1.968l-0.564-2.578l-0.549-1.205l2.166-2.227l2.334-0.168L490.734,281.877z M496.485,273.899l3.096,0.03
	l1.586-0.061l2.593,1.968l-0.168,0.107l-1.769,0.61l-1.586,0.519l-1.449,0.656l-0.61-0.443l0.793-1.312l-2.593-0.137l-0.549,0.107
	l0.763,0.366l0.061,0.168l-0.305,0.625l1.724,1.007l2.105,0.793l2.38,0.488l2.486,0.351l0.58,0.442l-3.554,2.136l-1.342-0.473
	l-1.892-1.144l-1.663-1.053l-2.136-0.915l-1.373,1.205l-1.83,1.174l-1.22,0.412l-1.998-1.48l1.113-0.793
	c0.107,0,2.898-0.808,4.347-2.379l1.174-0.9l-2.486,0.519l-1.465,1.038l-1.053-0.336l-0.519-1.113l2.197-1.663l0.488-0.915
	l-0.305-0.534l0.9-0.671l1.343,1.541L496.485,273.899z M498.163,283.769l-2.502-0.107l-2.685,0.015h-0.747l-2.364,0.092
	l-1.068,0.488l0.092,0.626l6.147-0.061h3.63l0.122-0.656l-0.031-0.29L498.163,283.769z M489.056,287.338l9.32-0.091l0.107-0.854
	l-2.959-0.076l-4.073,0.076l-1.892,0.03l-0.656,0.229l0.061,0.656L489.056,287.338z M489.102,289.824l0.076,0.046l4.271,0.107
	l3.341-0.03l1.22-0.076l0.198-1.037l-5.888-0.031l-2.776,0.046l-0.442,0.031V289.824z M502.8,293.18l1.617,0.244l0.305,0.29
	l-3.31,1.876l-2.837-0.732l-2.014-0.992l-1.693-1.159v-0.336l1.846-0.61l1.022,0.458l2.273,0.58L502.8,293.18z"/>
<path fill="#EF8200" d="M598.686,277.819l0.397,0.229h0.931l0.778,0.961l-0.549,0.93l-1.388,0.275l0.915,1.525l1.053,1.235
	l-0.961,1.037l-0.58-0.335l-0.732-0.702l-0.061,0.046l-0.061,0.58l-0.015,6.483l0.046,2.258l-1.312,2.913l-1.632-2.654l0.595-1.724
	l0.366-2.517l0.107-2.456l-0.03-1.312h-0.107l-0.137,0.168l-0.824,1.663c-0.931,1.891-1.785,3.692-2.715,3.692l-1.174-1.755
	l0.9-2.013c1.48-1.235,3.478-4.469,3.478-5.979c-0.412-0.015-0.564,0-1.968,0.259l-0.87,0.214l-0.961-0.961
	c0-0.213,0.442-1.998,2.166-1.998l2.318,0.137l-0.244-2.563l-0.351-0.549v-0.137l1.831-2.105l1.098,1.418v0.732L598.686,277.819
	 M604.025,279.909l-1.861,1.312l-1.022-1.968l1.419-1.434l1.891-1.495l0.763-1.51l-0.32-0.336l-0.168-0.458l1.541-1.113l0.93,1.236
	h2.181l0.793-0.031l0.732-0.153l2.395,2.12l-1.297,0.793l-0.458,0.351l-1.174,1.571l-1.083,1.479l2.425,1.724l2.212,0.87
	l2.456,0.641l0.549,0.458l-2.212,2.395l-3.005-1.343l-2.059-1.602l-1.48-1.403l-0.686,0.961l-1.495,1.755l-1.815,1.495l-2.318,0.823
	l-2.029-1.769l0.778-0.58c2.364-0.473,6.224-4.043,6.224-4.271l-0.382-0.626l-1.174-1.388L604.025,279.909z M611.804,294.339
	c-0.778,0.092-2.044,0.183-5.903,0.183c-2.12,0-2.242-0.839-2.38-1.892l-0.549-2.41l-0.427-1.373l1.724-2.12l1.968-0.275
	l2.669,0.061l2.166-0.061l2.471,0.29l1.495,1.769l-0.763,1.465l-1.037,3.203l-0.275,0.564L611.804,294.339z M605.763,291.853
	l0.473,0.351l1.617,0.076l1.464-0.031c1.464,0,1.617,0,1.8-0.137l0.839-3.173l-0.748-0.381l-4.424,0.061l-1.51,0.427
	L605.763,291.853z M609.531,276.446l-0.427-0.061l-1.968,0.031l-0.519,0.076l-0.137,0.412l1.556,2.212L609.531,276.446z"/>
</svg>
