<?xml version="1.0" encoding="utf-8"?>
<!-- Generator: Adobe Illustrator 27.0.1, SVG Export Plug-In . SVG Version: 6.00 Build 0)  -->
<svg version="1.1" id="레이어_1" xmlns="http://www.w3.org/2000/svg" xmlns:xlink="http://www.w3.org/1999/xlink" x="0px"
	 y="0px" viewBox="0 0 720 296.713" enable-background="new 0 0 720 296.713" xml:space="preserve">
<g>
	<defs>
		<path id="SVGID_1_" d="M641.15,259.248l3.667,2.273l-0.106,1.667c0.121,2.273,1.606,4.242,3.864,4.849h3.136
			c2.288-0.455,4.5-1.212,6.106-3.031c1.394-1.666,3-1.97,5.06-1.818c3.697,0.152,7.379,0,10.895-1.364l1.303-0.909
			c-4.97-1.515-9.789-1.97-14.637-2.273c-3.076-0.151-6.106,0-8.758,1.061c-2.015-0.303-3.773-0.757-5.546-0.909
			c-1.227-0.166-2.06-0.258-2.682-0.258C642.392,258.536,641.908,258.778,641.15,259.248 M541.678,233.035
			c-1.409,0.606-2.773,1.515-3.909,2.576c-3.622,3.485-3.531,7.728,0.091,11.061c1.424,1.364,3.076,2.273,4.834,3.03l2.803,1.212
			l-1.001,0.606c-4.227,0.151-8.409,0.606-12.485,1.969l-1.516-0.151c-2.682-1.212-5.379-0.606-8.075-0.152l-2.167,0.152
			c-3.788-0.303-7.561-0.758-11.364-0.909c-6.439-0.303-12.88,0.151-19.303,0.757l-1.334,1.061c2.742,0.151,5.485,0.455,8.212,0.606
			c5.257,0.303,10.561,0.455,15.819,0.758c2.637,0.152,5.243,0.455,7.909,0.757c0.788,2.121,2.546,2.879,4.288,3.637
			c2.227,1.06,4.334,0.909,6.394-0.152c1.788-0.909,3.5-1.97,5.243-3.031l0.227-0.455l-0.621-0.909
			c2.151-0.151,4.03-0.455,5.909-0.606c4.212-0.303,8.44-0.455,12.651-0.909c3.349-0.303,6.667-1.06,10.061-1.06l3.41-0.606
			l0.985-0.757c-1.924-1.515-2.47-1.819-5.183-2.273c-2.818-0.606-5.637-0.909-8.454-1.364c-3.546-0.606-7.106-1.212-10.44-2.576
			l-3.772-2.273c-1.469-1.212-1.394-2.424-0.106-3.788c1.227-1.364,2.788-2.273,4.47-2.878c3.531-1.515,7.258-2.273,10.986-3.031
			c1.106-0.303,2.212-0.455,3.788-0.909c-1.5-1.061-2.788-1.515-4.167-1.667c-1.09-0.136-2.182-0.197-3.273-0.197
			C548.815,230.565,545.163,231.384,541.678,233.035 M394.902,226.671l-3.076,2.121c-2.834,2.727-2.773,6.061,0.076,8.788
			c1.121,0.909,2.424,1.666,3.803,2.273l2.197,0.909l-0.773,0.455c-3.333,0.152-6.621,0.606-9.818,1.515h-1.212
			c-2.106-1.061-4.212-0.455-6.349-0.152l-1.697,0.152c-2.97-0.152-5.955-0.606-8.94-0.757h-7.076c-1.5-0.303-2.985-0.909-4.5-1.212
			c-3.045-0.909-6.136-1.364-9.318-1.212l-3.728,0.455l-0.636,0.152l0.016,0.303h2.848c2.243,0,4.455,0.152,6.651,0.606
			c2.091,0.455,4.122,1.212,6.122,1.969c4.242,1.515,8.59,2.273,13.106,2.424c2.348,0,4.652-0.151,6.909-0.606l1.878,0.151
			c2.031,0.758,5.879,0.303,5.213,0c0.499-0.303,1.515-0.455,3.621-0.606c1.697-0.152,3.182-0.303,4.652-0.455
			c3.318-0.303,6.636-0.455,9.955-0.758c2.636-0.303,5.242-0.757,7.909-0.757l2.682-0.606l0.788-0.606
			c-1.531-1.212-1.955-1.364-4.091-1.818c-2.212-0.303-4.439-0.606-6.667-1.061c-2.773-0.303-5.576-0.757-8.196-1.969l-2.97-1.667
			l-0.076-3.031l3.515-2.273c2.773-1.212,5.698-1.818,8.637-2.424l1.151-0.303l-0.848-0.455l-1.515-0.909l-0.137-0.455
			c-0.606-0.045-1.197-0.076-1.773-0.076C400.342,224.777,397.569,225.414,394.902,226.671 M681.666,217.126
			c-4.409,0.758-8.122,3.485-12.395,4.546l-0.272,0.151c-3.955,2.576-4.637,8.03-1.409,11.213c2.046,2.121,4.591,3.03,7.47,2.878
			l3.273-1.666c-0.712-1.515-2.257-2.121-3.667-2.727l-3.121-1.515l-1.242-3.333c0.378-1.818,1.47-2.727,3.091-3.333
			c4.863-1.666,9.833-2.424,14.97-1.97l3.985,1.061c1.576,0.455,2.758,1.515,3.652,2.879l1.045,1.666l2.879-0.303
			c5.47-1.212,10.94-2.424,16.41-3.636l1.803-0.606l1.863-1.515l-1.97-2.727c-1.258-0.606-2.606-0.909-3.985-0.757
			c-2.212,0.303-4.439,0.455-6.56,1.06c-2.848,0.758-5.591,1.818-8.591,2.879c-2.727-3.03-4.56-4.091-8.379-4.545
			c-1.167-0.182-2.349-0.273-3.515-0.273C685.211,216.55,683.439,216.762,681.666,217.126 M309.128,209.398
			c-3.288,0.152-6.53,0.606-9.743,1.364l-1.681,0.455l0.06,0.606h7.424c5.864,0,11.667,0.606,17.425,1.819
			c5.47,1.212,10.788,2.878,16.03,4.848c11.076,4.091,22.455,6.364,34.289,6.516c9.88,0.303,19.424-1.364,28.834-4.091l0.864-0.455
			l-0.818-0.152c-10.364-0.151-20.743-0.151-31.106-0.455c-8.091-0.151-16.077-1.212-23.895-3.333
			c-4.455-1.212-8.848-2.727-13.288-3.939c-7.166-2.046-14.44-3.228-21.894-3.228C310.794,209.353,309.961,209.368,309.128,209.398
			 M32.44,202.58l-0.363,1.061l-0.076,2.121l-1.652,1.212l-0.242,1.666l2.727,3.182c0.212,1.819,0,4.091,2.167,4.697l1.182-0.151
			c-1.091-0.909-1.789-2.273-1.789-3.94l-0.151-0.152l-0.046-1.818l0.122-0.151l-0.97-1.667l0.242-1.666l0.803-0.606l-0.197-1.364
			l0.197-0.303v-0.455l1.076-3.182l-1.227-0.152L32.44,202.58z M41.758,209.247h0.091l-0.242-0.758l-2.136-1.364l-0.848-2.121
			l0.803-0.758h0.091l0.682,2.424l1.651,1.818l0.182,0.909h-0.076c-0.318,0.106-0.682,0.122-1.03,0.167l-0.833,0.318
			c-0.242,0.197-0.424,0.515-0.546,1.03l-0.015,1.97l-0.864-0.606l-0.045-1.818l1.469-0.576c0.242-0.197,0.53-0.273,0.833-0.318
			L41.758,209.247z M41.516,200.913l0.636,2.728l-0.091,0.455l-1.395-2.273l-1.999-0.909l-1.803,1.667l-0.363,1.061l-0.076,2.121
			l-1.652,1.212l-0.242,1.666l2.727,3.182c0.197,1.819,0,4.091,2.167,4.697l1.318-0.303l0.607-1.364l0.848-0.909l0.394-1.364
			l0.076,0.757l-0.363,1.97l-0.652,1.061v0.303h81.32c-1.197-2.424-1.863-5.152-1.863-7.879c0-2.879,0.667-5.606,1.863-7.879H41.516
			z M160.125,200.913c1.182,2.273,1.863,5,1.863,7.879c0,2.727-0.682,5.454-1.863,7.879h10.606v-15.758H160.125z M171.942,216.671
			h1.545v-15.758h-1.545V216.671z M383.251,199.549l-1.001,0.303l-0.166-0.455c-1.409-0.455-2-0.606-3.333-0.455
			c-1.44-0.303-2.667,0.455-3.925,0.757l0.182,0.455c0.53,0.303,0.53,0.303,2.787,0.455l1.001-1.364l0.242,0.757l1.728,0.455
			l0.273-0.455h1.227l0.349,0.455c1.636-0.303,3.273-0.455,4.999-0.757l-0.045-1.212l-1.242-0.152L383.251,199.549z
			 M403.523,195.459l1.061-0.152l-1.211-0.091L403.523,195.459z M402.751,195.156l0.621,0.061l-0.242-0.44L402.751,195.156z
			 M402.917,194.398l0.213,0.379l0.954-0.985L402.917,194.398z M138.291,218.641c0-1.515,1.242-2.727,2.757-2.727
			c1.516,0,2.743,1.212,2.743,2.727c0,1.515-1.227,2.727-2.743,2.727C139.533,221.368,138.291,220.156,138.291,218.641
			 M139.882,198.792c0-1.515,1.242-2.727,2.758-2.727c1.515,0,2.758,1.212,2.758,2.727s-1.243,2.727-2.758,2.727
			C141.124,201.519,139.882,200.307,139.882,198.792 M123.487,208.792c0,9.697,7.864,17.425,17.561,17.425h0.137
			c5.667-0.303,8.424-3.788,8.424-8.03c0-6.061-3.772-7.728-8.561-9.394c-3.788-1.364-7.697-2.727-8.167-8.788
			c-0.409-5.303,4.986-8.788,11-8.485c-5.333,0.303-9.788,3.788-9.409,8.485c0.47,6.061,4.379,7.425,8.167,8.788
			c4.803,1.666,8.576,3.333,8.576,9.394c0,4.242-2.758,7.728-8.424,8.03c9.621,0,17.409-7.879,17.409-17.425
			c0-8.182-5.591-15.152-13.167-17.122l-2.469-0.152l-3.516-0.303C131.351,191.216,123.487,199.095,123.487,208.792
			 M573.648,167.579c-2.955,0.151-5.818,0.909-8.561,1.97c-3.546,1.515-5.015,3.03-6.803,6.667c-3.152-0.152-5.622,0-8.546,0
			c-2.197,0-5.197-0.91-6.954-0.606c-1.773,0.303-10.621,7.121-12.97,6.364c-0.152-0.151-8.046,0.758-11.637,2.121
			c-3.606,1.515-15.47,7.273-15.228,8.333c0.591,0.758,33.304-10.455,39.137-10.758c2.561-0.136,5.107-0.076,7.652-0.03
			c2.985,0.075,5.955,0.121,8.955-0.122l2.788,0.606l0.621-2.879c0.486-1.515,1.349-2.879,2.712-3.788l3.56-1.97
			c4.773-1.97,9.773-2.424,14.864-2.121c1.697,0,3.031,0.757,3.849,2.273l-0.303,3.485l-2.591,2.273
			c-1.166,1.061-2.5,1.97-2.758,3.636l3.576,0.758c2.788-0.606,5-2.121,6.394-4.697c2.212-3.939,0.106-9.091-4.334-10.303
			l-0.302-0.151c-3.818,0-7.546-1.137-11.364-1.137C574.83,167.503,574.239,167.519,573.648,167.579 M551.845,142.488l1.107-0.061
			C552.679,142.427,552.314,142.442,551.845,142.488 M173.337,145.458c-2.107,17.576-7.44,32.122-15.925,43.637
			c-1.045,1.667-1.045,2.879,0,3.333c1.091,1.061,2.651,1.364,4.789,0.909c10-6.212,18.833-13.485,26.485-21.667l1.348-1.515
			l0.515-0.455c0.197,1.667,2.212,3.031,2.485,4.697l0.485,0.152l2.06,3.788l0.955,1.515l0.105,0.455
			c2.076,1.212,3.031,4.394,5.107,5.909l0.424,1.061c1.999,0.909,3.015,2.424,3.924,4.091l1.106,1.06h0.485l0.045,0.455
			c2.076,0.606,2.334,3.637,5.152,3.485l0.152,0.303l0.378-0.151l-0.06-0.606l1.909-0.152l1.545,0.758l0.849-1.667l0.954,0.152
			l0.788,0.455l-0.152-0.909l2.97,1.212l2.227-2.727l1.227-1.666l-0.954-1.364c-0.166-1.969-1.182-3.182-1.97-5.152l-1.485-2.727
			l-2.121-4.697l-2.334-2.273h-0.591l-0.742-0.606l-0.258-0.909l-0.378-0.152l-0.046-0.303h-1.015l-1.742-1.061v-0.303l-1.061-0.758
			l-0.213,0.303l-2.227-1.364l-0.106-0.606l-2.758-1.818h-0.954l-3.409-1.515l-0.258,0.303h-0.743v-0.606l-2.651-0.606l-3.515-0.909
			l0.864-1.061l1.424-1.97c1.591-2.727,4.243-4.697,7.939-5.758c2.136,0,3.182-1.212,3.182-3.333c-0.531-2.273-1.606-3.788-3.182-5
			c-2.106,0-5.303-0.455-9.546-1.666c-7.424-1.515-13-2.879-16.697-4.091C174.382,141.366,172.791,142.73,173.337,145.458
			 M79.441,145.458c-2.106,16.515-8.212,31.364-18.304,44.546c-1.56,1.061-1.833,1.97-0.772,2.424
			c1.045,1.061,2.636,1.364,4.788,0.909c11.622-6.667,21.182-13.485,28.576-20.606l2.046,3.333l0.954,1.364l0.106,0.455
			c2.06,1.212,3.015,4.394,5.091,5.909l0.424,1.212c2.015,0.909,3.015,2.273,3.924,3.94l1.106,1.06l0.486,0.152l0.03,0.303
			c2.091,0.606,2.349,3.637,5.167,3.485l0.152,0.455l0.379-0.303l-0.061-0.606l1.91-0.152l1.545,0.758l0.848-1.515h0.954
			l0.804,0.455l-0.167-0.909l2.97,1.212l2.227-2.576l1.227-1.818l-0.954-1.364c-0.166-1.819-1.182-3.182-1.97-5.152l-1.484-2.576
			l-2.121-4.697l-2.333-2.273l-0.576-0.152l-0.757-0.455l-0.258-0.909l-0.378-0.152l-0.045-0.455h-1.015l-1.742-1.061v-0.303
			l-1.061-0.757l-0.213,0.303l-2.227-1.364l-0.106-0.455l-2.758-1.97h-0.954l-3.394-1.364l-0.273,0.303l-0.606-0.152l1.894-2.727
			c2.651-2.727,5.303-4.697,7.985-5.758c2.107-0.606,3.152-1.666,3.152-3.333c0-2.273-1.045-3.788-3.152-5
			c-5.333-1.666-14.091-3.485-26.273-5.758c-0.696-0.227-1.318-0.349-1.863-0.349C80.411,141.018,79.441,142.503,79.441,145.458
			 M415.418,104.245h0.091H415.418z M139.927,99.396c-0.53-2.121-0.273-3.485,0.788-4.091h6.379v18.94h-7.167V99.396z
			 M145.503,89.547h-3.969l-0.818-0.909c-6.349-1.515-12.182-3.182-17.485-4.849c-4.243-0.606-5.834,1.364-4.788,5.758v7.424
			c0.545,2.727,0.772,6.515,0.772,11.516v13.939c-1.591,5,0.818,7.121,7.167,6.667c3.743,0,6.893-0.606,9.575-1.666
			c1.561-1.061,2.895-3.637,3.97-7.425h7.167v0.758c-1.091,5,1.061,6.97,6.349,5.758c2.651,0,5.561-0.455,8.758-1.515
			c2.651-0.606,3.969-3.031,3.969-7.425v-12.424c-0.5-2.728,0.546-4.697,3.197-5.758c1.591-1.061,2.379-2.727,2.379-5
			c-4.757-5.454-10.864-9.545-18.303-12.273C150.791,82.123,148.155,84.547,145.503,89.547 M85.032,98.638
			c-0.531-2.273-0.258-3.636,0.788-4.242h6.349v18.94h-7.137V98.638z M89.789,88.638h-3.197H85.82
			c-4.243-1.515-10.621-3.485-19.106-5.758c-4.243-0.455-5.804,1.364-4.758,5.758v7.424c0.515,2.727,0.788,6.667,0.788,11.516
			c-0.515,3.939-0.788,7.273-0.788,10v4.849c-0.546,5,1.863,7.121,7.167,6.667c4.242-0.606,7.939-1.364,11.136-2.576
			c2.106,0,3.697-2.424,4.773-7.273h7.137v0.757c-1.046,5,1.09,6.819,6.378,5.758c3.697,0,6.622-0.606,8.758-1.666
			c3.197-0.455,4.758-3.031,4.758-7.425v-12.273c0-2.727,0.818-4.697,2.409-5.758c2.106-1.212,2.924-2.727,2.379-5
			c-3.696-5-9.819-9.091-18.304-12.273c-0.212-0.061-0.424-0.091-0.651-0.091C95.836,81.274,93.154,83.729,89.789,88.638
			 M194.004,97.729c0-2.121,0.545-3.485,1.605-4.091h6.379v18.94h-7.985V97.729z M199.611,87.88h-4.789
			c-3.696-1.666-9.53-3.636-17.516-5.758c-4.242-0.606-5.833,1.364-4.742,5.758v7.424c0.5,2.728,0.773,6.516,0.773,11.516
			c-0.546,3.788-0.773,6.819-0.773,9.091v4.849c-0.546,5,1.818,7.121,7.151,6.667c4.758,0,8.213-0.606,10.319-1.667
			c2.136-0.606,3.47-3.03,3.97-7.424h7.985v2.424c-3.728,1.666-7.44,5.758-11.136,12.424H90.608H73.865
			c-5.803-0.606-9.804-1.06-11.91-1.666c-2.136-0.606-2.651,0-1.591,1.666l0.772,2.424c1.091,1.667,2.136,2.728,3.197,3.333
			c0.546,1.667,1.864,2.121,3.97,1.667c4.788-0.606,11.136-1.061,19.106-1.667h38.971v55.304h1.03
			c3.697-3.636,8.803-5.909,14.44-5.909c5.409,0,10.318,2.121,13.97,5.606v-55.001h63.653c1.591,0,2.682-0.606,3.182-1.666
			c0-1.061-0.5-2.424-1.592-4.091c-3.696-3.788-7.166-6.818-10.318-9.091h3.152c1.605-0.455,2.924-1.061,4.015-1.667
			c3.152-1.666,4.743-4.091,4.743-7.424v-11.516c0-2.727,0.818-4.697,2.424-5.758c2.107-1.06,2.879-2.727,2.364-4.848
			c-3.182-4.394-9.531-8.637-19.106-12.425C205.186,80.456,202.262,82.881,199.611,87.88 M616.801,75.91l0.363-1.06l-0.909-1.061
			L616.801,75.91z M87.411,79.698h33.41v-6.667h-33.41V79.698z M614.513,72.623l1.136,1.167l-1.076-1.364L614.513,72.623z
			 M614.165,73.789l0.349-1.167l-1.364-1.409C612.937,71.517,612.937,71.517,614.165,73.789 M595.285,66.516
			c1.243,0.606,2.38,1.212,2.637,2.879l-0.94,0.606l0.424,1.666l2.44,0.758c-0.106-0.606-0.106-0.606-1.561-1.515l0.894-1.061
			l1.273,0.909l0.849-1.364l0.667,0.152l-1.243-2.121l-2.046,0.606c-1-1.212-1.848-3.031-3.56-3.182L595.285,66.516z M599.543,64.85
			l0.652-0.606l-2.622-2.121C597.861,63.486,597.937,64.395,599.543,64.85 M614.149,65.153l1.455,0.152
			c-2.03-2.879-0.62-2.273-3.485-3.94L614.149,65.153z M206.307,63.183l-3.015,1.97c-2.788,2.576-2.727,6.061,0.076,8.637
			l3.727,2.273l2.152,0.909l-0.757,0.455c-1.395,0.061-3.894-0.288-6.591-0.667c-3.667-0.5-7.667-1-9.455-0.394l-1.182-0.151
			c-1-0.424-1.863-0.228-2.803-0.031c-0.985,0.212-2.046,0.424-3.425-0.121l-1.666,0.152c-2.924-0.152-5.834-0.455-8.758-0.606
			c-4.985-0.303-12.925-0.455-17.879,0l3.909,2.879c2.121,0.152,2.637,0.152,4.742,0.303c4.076,0.303,14.183,1.515,18.258,1.818
			c2.015,0,4.03,0.303,6.091,0.606c0.607,1.515,1.955,2.121,3.318,2.727c1.713,0.91,3.334,0.758,4.925-0.151
			c1.379-0.606,2.712-1.515,4.046-2.273l0.166-0.303l-0.47-0.757c1.666-0.152,4.682-1.212,6.137-1.364
			c1.575-0.061,2.924,0.545,4.257,1.151c1.44,0.636,2.834,1.288,4.516,1.121c2.591-0.303,6.924-1.818,9.546-1.818l2.621-1.061
			l6.092-1.667c-1.485-1.212-9.591-0.757-11.698-1.212c-2.167-0.303-4.348-0.606-6.515-1.061c-2.742-0.455-5.5-0.757-8.061-1.97
			l-2.909-1.666l-0.091-3.031l3.454-2.121c2.727-1.212,5.591-1.818,8.47-2.424l2.939-0.606l-3.212-1.364
			c-0.833-0.091-1.636-0.152-2.454-0.152C211.883,61.213,209.034,61.88,206.307,63.183 M607.922,61.819l0.667,1.061l1.273-0.606
			l0.788,0.758l0.651-0.455l-1.408-0.606c-0.092-1.515-0.092-1.515-0.591-1.667L607.922,61.819z M611.68,59.092l0.682,1.666
			l0.531-0.909l-0.515-0.757H611.68z M87.411,63.941h33.41v-6.515h-33.41V63.941z M159.821,63.941h35.001v-6.515h-35.001V63.941z
			 M612.876,57.728l0.334,0.757l0.667-0.455l1,1.212l-1.015-1.819L612.876,57.728z M603.482,53.183l0.394,1.061l-0.803,1.061
			l1.379,1.666l0.985-1.969l2.393,2.878l-0.06-1.06l1.076,0.303c-1.106-1.666-1.106-1.666-2.848-3.333l0.5-1.364l-0.44-0.606
			L603.482,53.183z M120.214,51.516l1.606,0.152l-1.212-0.303L120.214,51.516z M121.699,50.91l0.515,0.606
			c0.213-0.152,1.151,0,2.97-0.152l-0.939-0.455H121.699z M610.695,49.546l-0.652,0.606l0.455,0.455l-0.56,1.364l-1.44-0.455
			l-0.045,0.455c2.288,2.879,2.288,2.879,3.894,4.091l-0.788-3.182l1.712,0.909l-2.257-2.273l0.576-0.455l-0.879-1.515H610.695z
			 M613.513,52.425l0.667-0.455c-0.954-1.667-0.954-1.667-1.106-2.576l-0.94-0.151C612.134,50.001,612.134,50.001,613.513,52.425
			 M614.877,50.304l0.682-1.515l-1.56-0.758L614.877,50.304z M90.441,37.728l-0.773,0.303l3.303-0.606L90.441,37.728z
			 M93.138,37.425l0.531,0.303l0.833-0.455L93.138,37.425z M94.668,37.273l0.349,0.152l0.273-0.152H94.668z M167.579,35.455
			l-0.045,0.152l0.288,0.151h1.121l-0.121-0.303H167.579z M407.206,30.758l-2.076,6.212l-4.681,17.576l-6.167,15.606l-1.939-0.758
			l-2.348-1.97c-0.97-0.606-2.197-1.666-3.743-3.182c-1.545-1.364-3.137-2.273-4.773-2.576c-1.666-0.303-2.955-0.606-3.88-1.06
			c-0.969-0.606-2.121-1.061-3.485-1.667l-0.53,2.576l6.712,13.788l1.061,12.424l0.212,17.728l-1.803,3.485l0.258,1.969
			l-0.743,1.819l-1.334,3.636l-2.015,3.182l-1.061,2.727l1.258,4.243v2.576l0.546,2.727c0,1.818,0.045,2.728,0.137,2.728
			c0.091,0.151,1.06,0.455,2.954,1.212l5.197,6.97c2.212,2.424,4.545,1.667,6.97-2.273l1.287-1.818
			c0.712-0.909,1.637-4.849,2.864-11.667l2.03-11.667l2.334-8.485l0.803-14.697l-0.273-19.697l1.818-7.425l2.591-14.849l1.014-4.394
			l2.834-15l0.531-3.788l0.121-2.879l-0.788-1.667c-0.016-0.015-0.045-0.03-0.061-0.03C408.63,22.394,407.994,25.273,407.206,30.758
			 M168.398,48.183l3.879,0.152c-0.591,0.061-1.137,0.091-1.666,0.091C169.852,48.425,169.139,48.364,168.398,48.183
			 M155.366,47.577h-0.333H155.366z M157.11,47.577h-1.637H157.11z M164.185,47.577h0.318l-0.031,0.303L164.185,47.577z
			 M164.852,47.577h0.56l0.349,0.303h-0.379L164.852,47.577z M166.064,47.577h0.486l0.257,0.303L166.064,47.577z M109.305,36.667
			l0.303,0.152l-3.318,0.152l-0.667,0.303l-0.137-0.303c0.757-0.228,1.348-0.182,1.939-0.152c0.228,0.015,0.44,0.03,0.683,0.03
			C108.472,36.849,108.85,36.819,109.305,36.667 M16.697,5.454C11.894,5.758,7.121,6.364,2.44,7.424L0,8.182L0.076,8.94h10.864
			c8.591,0.152,17.091,1.061,25.5,2.879c8.015,1.666,15.788,4.091,23.47,6.97c16.198,5.909,32.879,9.243,50.198,9.546
			c5.228,0.152,10.379,0,15.5-0.606v6.364c-7.394,0.151-14.606,0.455-16.121,1.212c-0.667,0.303-3.289,0.758-7.077,1.212h2.288
			l-0.757,0.606l-0.833-0.151l-0.242,0.303c-4.516,0.303-9.425,1.364-13.91,1.061l0.076-0.455c-1.894,0.151-3.848,0.303-5.834,0.455
			l-0.212,0.606c-1.046-0.151-4.803,1.061-7.318,1.97c-1.924-2.424-3.834-5-5.773-7.424c-3.181-2.727-5.015-2.727-5.561,0
			c-0.515,7.121-3.696,14.091-9.546,20.606c-6.378,8.334-5.288,14.546,3.197,18.94c10.592,1.667,17.486-2.727,20.667-13.182
			c0.197-1.515,0.334-3.03,0.394-4.545h0.137h-0.137l0.016-0.909h1.484l-1.045,0.606l0.212,0.151
			c1.455-0.151,2.909-0.455,4.334-0.606l-0.652-0.91l3.334-0.303l-0.591-0.455l1.515,0.303l0.182-0.151l1.636,0.151l-0.288-0.606
			l1.167,0.303l0.499-0.152c1.44,0.227,2.803,0.046,4.167-0.136c1.334-0.197,2.697-0.379,4.151-0.166
			c1-0.288,2.257-0.258,3.455-0.212c1.197,0.031,2.364,0.061,3.181-0.242l2.364,0.152l-3.667-0.909
			c0.94-0.349,1.924-0.349,2.909-0.333c0.712,0,1.424,0.015,2.106-0.121l1.303,0.909l0.894-0.152l-0.818-0.757
			c0.97-0.333,2.909-0.288,4.803-0.243c1.409,0.046,2.803,0.076,3.712-0.061c1.076,0.303,3.757,0,6.197,0v25
			c-0.546,5.607,1.591,8.03,6.349,7.425c1.091,0,3.197-0.152,6.379-0.758c4.757-0.606,7.939-1.06,9.546-1.666
			c4.788-1.061,7.151-4.697,7.151-10.758V50.455c2.076,0.152,4.636,0,6.379,0.152l-0.016,0.303l1.424-0.303l0.213,0.303h3.091
			l0.152,0.758l-0.56-0.303l0.378,0.455h2.046l-0.924-0.909l1.136,0.606h0.758l-0.743-0.909l1.09-0.152l0.303,0.455
			c2.803-1.212,2.454,0.303,2.788,1.515l0.378-1.061l1.046,0.758l0.136-0.758l0.41-0.151l0.333,0.151l-0.212,0.758l0.788-0.152
			l0.818,0.606l1.137-0.152l-1.09-0.909l0.318-0.152l1.379,1.061l-0.576-1.364c0.546-0.076,1.121,0,1.728,0.076
			c0.606,0.076,1.258,0.151,1.954,0.076l0.076,0.455l-0.893,0.151l2.454,0.455l-1.122-0.606l0.197-0.303l1.182-0.151l0.486,0.606
			l3.606,0.303c-1.455-0.606-1.455-0.606-1.455-0.758l2.015,0.758l1.834-0.455l-0.621,0.455l0.197,0.455h1.697l-0.394-0.909
			l1.394,0.151l0.121,0.455l3.303-0.151l0.197-0.455l1.863,1.06c1.531-0.151,1.849,0,2.985,0.606h0.5l-1.106,13.94
			c-0.546,2.727-0.546,4.394,0,5l0.454,0.152c-1.5-5.758,3.455-10.152,8.107-12.425c5.712-2.727,11.787-3.636,18.091-2.879
			c1.576,0.303,3.091,0.606,4.803,1.818l0.349,0.152c3.712,0.455,6.121,0,7.166-1.667c1.592-2.273,0.788-5.152-2.379-9.091
			c-9.015-9.243-17.243-15.304-24.667-18.031c-1.303,0-3.213,1.364-5.727,4.242l-2.895-1.667l-0.833,0.455l-1.545,0.152l0.606,1.061
			l-2.5,0.757l0.061,0.303c-2.243,0.757-3.197,0.909-5.591,0.909l-0.576,0.455h0.424l-3.697,0.303l0.41,0.152l-0.636,0.151
			l-1.122-0.909h-1.985c-1.485,0.606-4.212,1.364-4.803-0.151l-0.909,0.151l-1.545-0.606l-1.712,1.06l-0.44-0.455l0.758-0.455
			l-0.394-0.303l-0.864,0.606l-0.546-0.455l-3.031-0.455l-0.727,0.455l-0.439-0.303h-2.334l0.121,0.303l-0.378,0.151l-0.864-0.455
			h-1.273l-2.44-0.606l-1.137,0.606l-0.53-0.151l-0.334,0.303h-0.696l0.105-0.455h-0.424l0.258-0.455l-1.015,0.151l-0.56-0.303
			l-1.545,0.606l-1.318-0.909L156.7,35.91l-1.182-1.667l-0.485,0.152V26.97h58.865c2.682-1.061,3.197-3.637,1.605-7.425
			c-7.954-8.182-14.561-12.879-19.894-14.091c-3.167,0-6.893,5-11.136,14.849H97.865c-8.788-0.758-17.47-2.121-26.015-4.546
			c-6.5-1.818-12.94-3.788-19.425-5.606C41.94,7.167,31.334,5.394,20.455,5.394C19.213,5.394,17.955,5.409,16.697,5.454
			 M603.634,72.577l3.091,1.97l-0.03,1.061l-0.743-0.303l0.954,2.424l-1.151-0.758l-0.258,0.455l-2.046-0.606l-0.696-1.666
			l0.56-0.455l1.409,0.606C603.346,72.88,603.346,72.88,603.634,72.577 M605.362,72.577l0.076-1.364l2.106,1.364l-0.667,1.364
			L605.362,72.577z M608.559,65.607c1.197,0.909,1.197,0.909,2.333,2.424l-0.318,1.364
			C609.119,67.577,608.922,67.729,608.559,65.607 M507.798,5.606c-0.302,1.061,0.152,2.727,1.303,4.849l1.5,5.909l2.622,7.273v2.424
			c0,1.818,0.348,3.485,1.045,5.152c0.697,1.666,1.106,2.727,1.303,3.03c0,0.303-0.091,1.364-0.303,3.485
			c-0.151,1.97,0.303,5.909,1.516,11.818v18.788l0.848,30.607l0.303,6.515c0,1.061-0.045,3.182-0.152,6.061
			c-0.105,2.727-0.302,5.455-0.696,7.879c-0.41,2.424-0.607,3.788-0.607,3.939l-0.909,27.274l-18.803,7.424l-1.758,0.606
			l-17.91,5.758c-1.757,0.606-2.712,0.303-2.803-1.061l0.137-3.485l-0.591-8.94c-0.213-2.727-0.364-4.545-0.561-5.454l-0.893-3.333
			l-0.303-2.576l-1.151-2.424l-1.531-4.394l-1.137-1.212l-0.302-3.182l-7.622-16.97c-0.393-0.606-0.848-2.121-1.348-4.394
			c-0.454-2.121-0.712-3.485-0.712-3.94l2.364-9.697l-1.5-0.909c-2.909-0.91-5.834,1.666-8.637,7.879
			c-2.863,6.061-4.363,9.849-4.56,11.061c-0.197,1.06-0.303,3.182-0.303,6.061l-0.303,4.091l6.773,30.91
			c0.56,3.182,0.848,5.909,0.848,8.182c-0.197,3.788-0.954,7.273-2.348,10.606l-2.318,5c-1,2.273-1.5,3.333-1.5,3.485l-3.212,4.243
			l-1.198,2.879c0,0.455,0.303,1.515,0.894,3.182l0.349,1.515h0.56c5.924-0.455,11.864-0.455,17.803-0.303
			c4.091,0,8.183,0.455,12.273,0.909c2.031,0.152,4.077,0.303,6.106,0.606l3.56,0.455l11.971-10.152l14.409-5.606l9.682-4.091
			c14-5.909,25.516-11.213,43.789-9.697c17.258,1.364,26.743,3.031,28.395,5.152c1.652,1.97,2.651,3.94,3.06,5.758l-0.848,8.485
			v1.212c0,1.06,0.242,3.636,0.696,7.576l0.243,1.818c2.969-5.152,7.878-6.97,13.333-8.03l-0.454-1.97
			c-0.833-2.879-0.091-5.152,1.909-7.121c1.864-1.818,4.015-3.333,6.349-4.394l1.728-0.909l2.318-8.182l-0.289-5l0.894-10.606
			c-0.394-1.818-0.5-2.879-0.303-3.182l0.607-2.727v-2.879l0.848-3.031v-2.576l1.516-8.485v-5l0.848-3.485l0.303-6.516v-4.394
			l-1.758-5.607v-1.818l-2.606-6.061c-0.242-4.091-1.09-8.485-2.621-10.455l-1.319,2.273l-1.424-0.909l-1.667-2.273l0.788-0.757
			l1.409,1.364l0.636-0.303c-0.606-2.424-0.106-3.03-2.637-3.636l-0.288-3.03l-0.833-0.303l-0.47,1.212l-0.682-0.152l-3.092-4.394
			l2.167,1.818c0.439-1.818,1.076-2.727,1.03-4.848l1.409-0.152l-0.773-1.667h-0.712l0.515,1.061l-1.242-1.364l-0.94,0.606
			c-1.137-1.364-1.137-1.364-1.151-2.273l-0.985,0.455l0.591,0.909l-0.47,0.303l-2.318-2.576l-0.651,0.455l1.076,1.212l-0.712,1.061
			c1.697,1.818,1.697,1.818,2.136,3.333l-1.863,2.273l-2.622-3.94c0.834,2.576,0.834,2.576,0.682,4.243l-1.015,0.455l-0.636-1.364
			l-1.409,1.061l1.621,2.727l-0.879-0.757l-0.667,0.455l0.576,1.515l-1.546-1.212l-1.242-1.212h-2.394l-1.591,1.818l1.591,11.061
			c1.151,7.879-0.197,13.333-1.515,15.909c-0.091,4.242-0.409,8.182-1.091,11.212c-2.576,11.818,0.697,16.515-3.257,31.364
			l-0.728,0.606c-0.394,0.151-1.697-0.303-3.954-1.212c-2.257-1.06-4.97-1.515-8.076-1.818c-6.273-0.151-11.485-0.151-15.606,0
			l-13.789,1.212c1.697-0.303,2.985-0.47,3.909-0.546l-10.681,0.546l-2.076-2.879v-8.94V117.73l1.212-20.758
			c0-0.606,0.152-1.818,0.56-3.485c0.394-1.666,0.606-3.03,0.606-4.243l-0.302-3.485l1.197-3.485v-3.636l0.152-1.515
			c0.045-0.758,0.197-2.424,0.409-5c0.197-2.727,0.394-4.394,0.591-5.152v-3.939l0.607-2.879l0.302-2.879l0.849-4.091l-0.849-10.909
			l0.849-7.424l-0.591-1.515l-2.06-5.454l-1.758-2.727l-0.56-2.879l-2.955-4.394l-1.151-2.727c-0.41-0.303-2.364-1.667-5.924-3.94
			c-3.5-2.273-6.561-3.636-9.076-4.242l-4.713-0.606l-3.515-1.818c-0.757-0.076-1.439-0.106-2.03-0.106
			C509.071,4.439,508.026,4.803,507.798,5.606 M377.083,215.156c3.652-0.151,7.364,0.303,11.137,0.606l-0.909,0.303h-0.076
			C383.826,215.762,380.432,215.308,377.083,215.156 M381.341,207.58l0.455,0.455h2.637l-2.349,1.667l0.288,0.606
			c-3.212,3.03-11.136,3.333-15.591,4.091c1.773,0.757,4.409,0.606,6.303,0.757l0.015,0.152l-3.242,0.455l-0.197-0.606
			c-1.878-0.151-4.531,0-6.302-0.757c4.454-0.757,12.394-1.061,15.591-4.091l-0.273-0.606l2.348-1.667h-0.06L381.341,207.58z
			 M408.751,6.97v0.909l0.743,2.273l-1.272,10.304l1.272,0.303l2.075-5l-0.06-0.909c1.531,6.667,4,12.727,4,18.031v71.365v45.304
			l-0.105,1.061l0.105,1.818v33.334c-0.091,2.273-1.697,3.788-1.197,6.061l0.969,0.606c-0.378,1.515-0.56,3.182-2.469,3.182
			l-0.288-0.606l-0.016,0.909l-1.56,1.394l0.197-0.031l-0.667,0.455l0.47-0.424l-5.394,0.879l-0.743,0.909
			c-1.137-0.303-1.137-0.303-2.545-0.151c-0.486,1.727-2.667,1.394-4.925,1.076c-1.728-0.258-3.515-0.53-4.652,0.136
			c-2.06,0.455-4.243,1.061-6.409,1.666l-1.319-0.303l1.015,0.303l-2.909,0.455l-0.257,1.06c2.182,0.455,2.182,0.455,2.576,0.758
			c-1.424,0.909-5.576,1.818-6.152,3.03l1.576,0.909h-2.425l-0.485-0.455l-0.409,0.606l-1.666-1.061
			c0.575-1.212,4.712-2.121,6.136-3.03c-0.379-0.303-0.379-0.303-2.561-0.758l0.258-1.06l2.908-0.455l-1.014-0.303l1.303,0.303
			l3.515-0.909H174.716v15.758h153.351c-8.848-2.424-19.576-4.091-35.879-3.333c13.803-10.606,39.47-5,59.243,3.333h33.092
			c-1.5,0.303-2.985,0.606-4.455,1.212l1.591,0.757c4.077,0.455,8.107,0,12.122-0.757l3.363-0.606
			c1.773,0.303,3.333,0.606,4.712,0.909l4.288,4.242l0.788,2.273l1.515,0.909c0.652-0.151,3.515,3.485,9.349,8.637l2.333,2.121
			c0.303,0.455,1.046,1.818,2.152,3.788c1.137,1.969,1.621,3.182,1.545,3.636l0.439,0.606l4.379-4.242
			c1.334-1.212,3.531-6.061,6.439-14.697l1.061-3.031l2.333-18.94l-0.121-2.121l1.455-0.303c5.485-1.212,11.076-1.818,16.682-1.818
			c4.212,0,8.44,0.303,12.636,0.606c8.454,0.606,16.455,2.727,23.713,7.273l1.44,0.606c2.924,0.909,5.303-0.455,5.909-3.485
			l0.349-1.515c4.151-1.212,8.197-2.424,12.273-3.485c15.303-4.091,30.88-6.061,46.729-5.909c8.727,0.152,17.243,1.515,25.5,4.546
			c3.091,1.061,6.045,2.424,8.742,4.394c1.986,1.364,3.758,3.03,5.183,5c1.318,1.97,1.334,3.182-0.092,5
			c-1.833,2.273-4,4.091-7,4.546c-2.909,0.606-5.788,1.212-8.713,1.666c-1.681,0.303-3,0.758-3.985,2.273l-1.802,1.667l-3.182,2.121
			c-2.182,1.061-3.515,2.879-4.863,4.849l-0.318,2.879l1.924-1.061l1.424-1.06c2.076-0.758,4.152-1.515,6.182-2.424
			c1.273-0.606,2.485-0.909,3.954-0.758l3.455-0.303c2.379-0.455,4.803-0.909,7.091-1.666c3-0.91,5.848-0.606,8.682,0.455
			c1.681,0.606,3.318,1.364,4.954,2.121c1.818,0.757,3.652,1.515,5.47,2.424l1.303,0.757l3.076,0.606l2.288-2.424
			c1.424-0.151,2.666-0.303,3.924-0.455c4.682-0.455,9.334-0.303,13.804,1.212c4.303,1.515,6.137,5,4.909,9.242
			c-0.515,1.818-1.348,3.636-2.166,5.303c-0.758,1.515-1.697,3.03-2.546,4.697l3.697-0.152c-0.167,1.97-0.121,1.97-1.212,2.728
			c-1.621,0.909-3.242,1.969-4.985,2.727c-9.046,3.636-18.289,3.939-27.622,1.061c-2.121-0.606-4.137-1.515-5.895-2.879
			c-1.166-0.909-2.303-1.97-2.637-3.485l0.652-0.757l1.682-0.91c2.106-0.606,4.197-1.515,6.348-1.969
			c3.622-0.758,7.288-1.212,10.925-1.819l1.379-0.455l-0.015-0.757c-1.545-0.303-3.091-0.606-4.652-0.757
			c-2.53,0-5.076,0-7.606,0.151c-2.758,0.152-5.454,0.606-8.06,1.515l-3.121,1.515c-2.409,1.666-3.031,4.394-1.727,6.97
			c0.803,1.667,1.97,3.031,3.439,4.091c1.44,1.06,2.94,2.121,4.576,2.878c10.016,4.394,20.259,4.698,30.607,1.212
			c3.136-0.909,6-2.576,8.227-5.152c0.925-1.061,1.834-1.818,3.258-2.273c2.364-0.758,3.363-3.485,2.318-5.607l-1.198-1.969
			l1.576-2.728c2.364-4.697,1.728-10.151-1.666-13.939c-2.03-2.273-4.636-3.637-7.561-4.394c-5.318-1.212-10.667-1.364-16,0
			c-1.773,0.303-3.424,1.061-4.924,2.121l-1.591,0.757c-3.182-3.94-3.182-3.94-10.986-7.728c1.258-2.273,2.531-4.394,3.88-6.667
			l2.318,0.606c3.092,0.909,6.243,1.212,9.425,0.758l3.955-0.91c1.56-0.757,3.136-1.364,4.802-1.666
			c1.803-0.303,3.439-0.909,4.834-2.121c1.258-1.06,2.136-2.424,2.545-3.939c0.439-1.667-0.242-3.333-1.712-4.091l-1.788-0.606
			c-2.425-0.303-4.849-0.303-7.243,0.303l-1.076,0.606c2.712,1.212,5.879,0.455,8.272,2.727c-1.151,3.788-4.379,5.152-7.257,6.364
			c-3.137-1.061-5.955-1.97-8.743-2.879c-1.985-0.758-4-1.364-5.909-2.273l-3.031-2.273c-1.802-1.97-1.757-3.788,0.243-5.454
			c1.454-1.212,3.167-2.121,4.833-3.031l4.061-1.818l1.849-1.818l-1.046-0.909c-2.485-1.97-2.606-5.152-0.121-6.97
			c1.516-1.06,3.228-1.969,4.955-2.727c5.227-2.424,10.681-3.939,16.349-4.849c9.5-1.515,18.546-0.303,27.197,3.94
			c3.243,1.515,6.334,3.333,8.819,6.061c0.94,1.061,1.728,2.121,1.742,3.637c0.045,2.576,1.364,2.576,3,2.879l1.258-0.152
			c3.379,0,6.773-0.303,10.137-0.152c3.515,0,6.969,0.606,10.242,1.97c3,1.061,5.652,2.727,7.592,5.455
			c1.273,1.818,1.697,3.636,1.03,5.757c-0.894,2.576-1.455,5.455-3.182,7.879l-0.136,0.909c2.257-0.606,4.137-1.515,5.939-2.576
			c3.743-2.273,6.788-7.879,4.077-13.637l-2.333-3.788c-2.698-3.333-6.303-5.606-10.334-7.121
			c-5.879-2.121-11.971-2.424-18.137-1.666c-1.758,0.303-3.5,0.606-5.197,0.909c-2.97-4.849-5.151-6.97-10.227-9.697
			c-1.485-0.909-3-1.666-4.561-2.273c-8.56-3.788-17.485-4.697-26.697-3.333c-6.424,1.061-12.561,2.879-18.365,5.758
			c-2.272,1.212-4.394,2.576-6.212,4.394c-1.97,1.969-2.682,4.242-1.863,6.97l0.439,1.818c-5.333,1.212-10.151,3.031-13.046,7.879
			l-1.742-1.06c-2.651-1.667-5.44-3.182-8.409-4.394c-8.167-3.031-16.621-4.849-25.349-5.303
			c-7.077-0.303-14.183-0.152-21.213,0.606c-4.212,0.455-8.409,0.909-12.576,1.666c-11.288,1.97-22.288,4.849-32.561,10.304
			c-3.349-1.515-6.985-2.121-10.667-2.576c-1.986-0.303-3.985-0.606-5.985-0.757c-4-0.303-8-0.758-12-0.758
			c-5.803-0.151-11.622-0.151-17.44,0.303c-4.455,0.303-8.803,0.909-13.03,2.424l-0.424,0.152l-0.137-2.273l-0.03-0.606
			l-0.818-14.091l-0.288-2.121l0.03-1.666l-0.333-0.455l-0.242-1.818h0.197l-0.288-0.606l-0.167-1.212l1.046-0.455
			c0.349-3.031,0.378-6.212,0.181-9.395c0.5-1.666,0.5-1.666,0.531-3.636l-1.682-1.515v-1.97l0.016-0.303l1.621-0.303
			c-0.94-1.818-0.289-3.788-0.546-5.758c-0.621-0.303-0.909-6.515-0.985-14.243c0.015-1.515,0.06-3.182,0.076-4.697l0.106-16.667
			c0.075-2.879,0.166-4.697,0.257-4.849l-0.227-0.455l0.318-61.819l1.03-2.727c0.94-1.819,1.501-2.879,1.682-3.182l0.788-6.515
			l2.303-5.454c-0.181-3.333-0.318-5.303-0.394-5.455l-1.151-2.273l-2.561-4.394l-4.151-3.333l-2.06-3.03l-2.349-1.819L422.69,5
			c-2.424-1.364-4.151-2.273-5.167-2.424C416.857,2.53,416.221,2.5,415.63,2.5C411.175,2.5,408.903,4.03,408.751,6.97
			 M232.52,123.336l-1.395,1.515L232.52,123.336z M330.128,129.548c-1-0.152-1.408-1.515-1.136-3.94
			c0.257-2.273,0.924-4.091,1.939-5.303l1.802-2.121l2.076-5.909c0.349-0.758,1.455-2.273,3.349-4.697l5.44-5.455
			c1.712-2.121,3.076-2.727,4.137-2.273l-4.137,16.515l-1.834,2.121l-1,2.879l-2.606,3.333l-1.545,2.728
			c-0.349,0.455-1.455,0.909-3.349,1.515c-1.455,0.47-2.409,0.667-2.864,0.667C330.265,129.609,330.174,129.593,330.128,129.548
			 M299.37,0.757l-1.728,0.909h-0.106l-0.909,0.152c-0.151,0.152-1.363,0.757-3.682,1.818c1.379,0.757,2.318,1.364,2.727,1.818
			l1.773,0.606l1.682,2.273l0.257,2.273l-0.015,0.303h0.045l0.242,2.879c-0.454,1.364-1.166,3.485-2.136,6.364
			c-1.955,2.576-3.258,5-3.636,7.273c-0.182,1.212-2.743,10-3.773,12.727l-1.182,1.364l-1.151,2.273l-0.257,2.273l-2.622,2.121
			c-0.333,0.303-0.727,1.212-1.137,2.727c-0.439,1.364-1.939,4.243-4.545,8.334l-3.606,6.97l-10.849,17.122l-17.091,23.788l-3.515,5
			l-0.273,0.455l-5.501,2.273c-1.106,0.606-1.833,1.061-1.833,2.727c0.621,1.515-1.985,1.515-2.046,2.576l-1.985,3.182l-1.122,0.303
			l-0.273,1.212c-0.757,2.424-0.606,2.727-0.181,2.273l-0.289,1.97l-0.53,2.121l0.743,1.515l1.818,0.758l11.91-4.697
			c2.257-0.909,4.061-2.121,5.424-3.637l6.228-6.515l4.621-7.121l3.621-4.243l3.136-4.394l7.228-8.788l1.015-1.818l5.167-4.849
			c0.697-0.606,1.273-1.818,1.803-3.333c0.53-1.515,1.061-2.576,1.545-2.879c3.303,1.212,5.697,1.97,7.243,2.121
			c1.591,0.151,2.908,0.606,4.015,1.212l1.94,1.515l-1.409,1.818c-0.97,0.758-2.651,2.576-5.031,5.303
			c-2.424,2.879-5.03,5.454-7.773,7.879l-6.485,6.061c-3.924,3.637-6.53,6.819-7.712,9.395c-1.243,2.424-1.819,5.303-1.819,8.333
			v13.182c0,0.758-0.166,1.97-0.53,3.637c-0.349,1.818-0.439,3.03-0.257,3.939l0.787,4.546l0.486,3.939
			c0,0.909,0.803,2.728,2.348,5.455c1.182,2.879,2.425,3.939,3.607,3.03l2.606-3.788l2.818-2.879l0.273-2.121l0.788-2.273
			l-0.257-2.273l1.273-1.515l-0.531-3.485l1.545-6.212l-0.485-1.97l0.757-1.364l0.258-1.515l2.348-4.697l0.531-1.515
			c1.015-3.182,2.469-4.849,4.363-4.546c1.894,0.303,2.864,1.515,2.864,3.788l-0.273,17.728l-0.121,1.06
			c0.091,0,0.788,1.212,2.197,3.637l2.303,4.697l1.803,1.061c0.879,0.151,2.561-1.061,5.075-3.485
			c2.47-2.576,3.925-4.849,4.228-6.97l-0.486-8.485l-0.257-11.818c-0.182-0.606,0-1.97,0.53-4.091c0.486-2.273,1.545-5,3.092-8.333
			c1.182-2.727,2.469-3.333,3.879-1.515c1.363,1.667,2.167,3.333,2.333,4.849v3.182v8.788l-0.53,3.485l-0.531,5
			c-0.349,1.818-0.53,2.879-0.53,3.03l0.53,8.637c-1.545,3.031-6.97,8.03-16.288,15l-16.531,12.122l-6.485,3.03l-13.137,3.94
			l-2.076,0.455l-5.954-1.061c-2.076,0.303-3.092,0.303-3.092,0l-3.136-1.212l-0.486,1.666l1.288,2.424l1.803,4.091l3.091,2.878
			l0.531,1.667l2.818,3.031l1.803,2.576c1.061,1.364,3.575,1.667,7.5,0.757l7.242-9.242l4.409-3.182l1.273-1.212l0.531-2.424
			l2.348-2.879l2.288-0.455l5.955-2.576c0.182,0.152,1.151,1.515,2.864,3.94l4.909,7.424c3.076,5.152,5.773,7.576,8.015,7.121
			c2.212-0.455,3.712-1.061,4.379-1.97l1.803-4.545l6.485-9.395l1.546-2.878l4.636-5.152l2.06-3.636l1.818-1.818
			c2.425-2.121,4.455-3.182,6.092-2.879c1.621,0.152,3.394,2.121,5.272,5.606l4.91,9.546l1.591,1.97l4.106,3.333
			c2.606,2.273,4.182,3.333,4.803,3.03l2.561-2.121c1.151-1.212,1.591-3.788,1.455-7.424c-0.182-3.637-0.44-6.212-0.788-7.425
			l-2.349-5.909l0.531-6.212l-0.122-1.061v-2.879l0.122-0.909l3.893-10.909c-3.273,4.546-5.393,8.334-6.363,11.516
			c-0.924,3.182-1.758,5.152-2.424,5.758l-1.592,1.06l-2.288-1.818h-2.863l-6.182-0.757c-2.424,0.757-4.849,1.666-7.227,2.879
			l-7.015,5.152c-1.197,1.061-3.091,2.121-5.651,3.333l-13.198,6.97l-3.349,1.667c-0.348-0.303-2.242-1.061-5.682-2.728
			l-4.939-2.273l-4.379,0.303l-1.545-0.303l1.545-1.212l5.698-1.061l16.757-6.212l1.818-0.757l19.94-10.909l4.363-3.333l2.334-0.455
			l2.075-1.667l2.076-0.757c1.545-0.606,2.818-1.818,3.879-3.636l1.273-5.152c0.364-0.909,1.592-2.576,3.758-5
			c2.166-2.576,3.394-3.94,3.742-4.242l12.667-17.879c0.349-0.455,0.531-1.97,0.531-4.091v-3.182l-1.606-2.121l-2.272-4.091
			c-0.364-0.152-1.592-0.909-3.758-2.121c-2.151-1.364-3.485-2.273-4.015-3.031l-1.273-1.515c-0.349,0-1.318-0.151-2.863-0.455
			c-1.545-0.455-3.182-1.364-4.91-2.727l-0.788,0.606l-2.561-0.758l-2.075,1.818l-9.576,8.03l-7.227,7.879l-1.272,0.909
			l-2.076-3.182c-0.363-0.303-1.894-0.758-4.682-1.364c-4.985-0.455-8.863,2.273-11.606,8.333l-5.424,12.121
			c-3.121-2.273-6.213-3.333-9.303-3.636c-2.955,0-5.727,1.212-8.424,3.485c-2.652,2.424-4.319,4.091-5.031,5l-1.273,1.364
			c-1.061,0.152-2.076-1.212-3.137-4.394c-1.014-3.03-1.5-5.152-1.408-6.061c0.076-0.909,2.333-3.485,6.727-7.727
			c4.379-4.243,7.122-6.819,8.136-7.576l8.774-6.061c3.439-2.273,5.606-3.788,6.485-4.243l4.151-1.666l3.092-2.273l5.682-2.879
			l8.515-5.758l9.849-4.243c1.894-2.121,3.439-3.636,4.621-4.697c3.137-2.424,4.545-4.243,4.288-5.758
			c-0.273-1.364-1.106-2.727-2.606-4.091c-1.455-1.364-2.349-2.121-2.698-2.273l-3.349-0.606l-2.075-1.515
			c-0.182,0-1.728,0.303-4.682,1.061h-5.151c-0.531,0.151-3.182,1.515-8.031,3.788l-17.288,9.091l-3.622,1.061l0.743-2.879
			l3.894-4.848c0.696-1.819,1.137-2.728,1.318-2.879l2.031-1.515l0.53-3.182l5.955-7.121l0.257-1.667l1.015-1.212l0.804-2.121
			l2.333-1.818l1.545-3.333l1.273-1.818l1.834-2.727l1.545-0.455c1.455-0.455,2.894-0.606,4.273-0.606l0.379,0.152h0.409
			c2.591,0,4.97,0.606,6.909,0.757l0.546,0.152c3.879,1.06,6.076,1.818,6.606,2.273c1.364,1.666,2.258,2.424,2.561,2.273
			l3.621-0.757l-0.349,1.364c-0.621,0.455-1.591,1.06-3,1.666l-22.728,12.727l-14.727,9.091l6.697-2.879l9.318-4.849l18.879-7.121
			l6.167-2.273l15.273-2.121l9.561,1.061c2.742,0,4.591-0.152,5.561-0.606c0.924-0.455,1.5-1.818,1.681-4.242
			c0-0.909-0.348-2.424-1.076-4.394c-0.651-2.121-1.348-3.636-2.015-4.394l-5.682-3.182l-2.606-1.97l-4.151-1.364
			c-1.894-0.606-2.909-1.061-3.091-1.061l-2.061,0.606h-5.697l-13.682,0.455l-9.303-0.303l-0.348,0.151l-1.879-0.303
			c-0.94,0-2.152,0.152-3.667,0.757l-0.197-0.303l0.273-1.364L322.673,20l-0.318-1.364l1.789-2.121
			c-0.743-5.152-4.424-9.697-11-13.788C311.309,1.97,309.446,1.06,307.627,0C305.036,0.606,302.264,0.757,299.37,0.757"/>
	</defs>
	<clipPath id="SVGID_00000012442571225327054840000010390893138728085180_">
		<use xlink:href="#SVGID_1_"  overflow="visible"/>
	</clipPath>
	
		<linearGradient id="SVGID_00000039111452627524229830000014675234624473050003_" gradientUnits="userSpaceOnUse" x1="-189.1091" y1="692.8962" x2="-173.9573" y2="692.8962" gradientTransform="matrix(0 6.5962 6.5962 0 -4210.4688 1331.49)">
		<stop  offset="0" style="stop-color:#900000"/>
		<stop  offset="1" style="stop-color:#EF8200"/>
	</linearGradient>
	
		<rect x="-0.001" y="0" clip-path="url(#SVGID_00000012442571225327054840000010390893138728085180_)" fill="url(#SVGID_00000039111452627524229830000014675234624473050003_)" width="720" height="268.036"/>
</g>
<path fill-rule="evenodd" clip-rule="evenodd" fill="#EF8200" d="M46.698,280.915c0.727-0.303,2.03-0.455,3.94-0.606
	c1.742,0,3.181,0.152,4.318,0.455l1.44-0.152l0.985-1.212l0.666-2.727l0.515-1.97l0.167-1.212l-0.849-0.757
	c-0.546-0.152-1.652-0.303-3.288-0.455c-2.454,0-4.788,0-7.001,0.152h-2.182l-1.636,0.606l0.06,1.364c0.166,0.455,0.5,2.121,1.061,5
	l0.743,1.515H46.698 M46.107,277.278c0.727-0.151,2.485-0.151,5.288-0.151c2.333-0.152,3.94,0,4.833,0l-0.302,1.364l-0.289,0.455
	h-1.318c-1.894,0-4.137,0-6.697,0.152h-1.03l-0.349-0.758L46,277.278H46.107z M51.364,275.764c-2.651,0.151-4.424,0-5.318-0.152
	h-0.197v-0.606l0.092-0.757l0.757-0.303c1.409-0.151,4.03-0.151,7.894-0.151l1.666,0.303l0.273,0.757l-0.076,0.758
	C55.652,275.764,53.955,275.764,51.364,275.764 M60.925,291.825c2.349,0.151,3.925,0.151,4.743,0l1.09,0.455l-0.893,1.515
	l-1.152,0.758L62.91,294.4c-0.879-0.303-2.136-0.606-3.788-0.909c-2.031-0.303-4.742-0.606-8.122-0.606
	c-1.531,0-3.363,0.152-5.485,0.303c-2.257,0.151-4.182,0.606-5.788,1.061l-2.136,0.303l-0.5-0.758l0.758-1.364l1.772-0.757
	c1.107-0.152,2.531-0.152,4.319-0.152h6.833v-2.727c-2.227,0-4.015,0-5.333,0.152l-1.243-0.606l0.031-0.606l1.409-0.606
	c2.394,0.151,4.015,0.151,4.879,0.151h0.257v-1.515l-0.031-0.909H45.97h-0.424l-0.031,0.152l-1.091,1.212l-1.408,1.061l-0.728-0.151
	l0.531-1.212l0.984-1.515l0.258-1.666l0.606-0.758l1.015,0.455l0.424,0.758h0.06c2.137,0,3.621,0.152,4.47,0.152l-0.092-1.212
	l0.652-1.212l1.288,0.455l0.227,1.818l-0.031,0.152c1.243,0,2.955-0.152,5.122-0.152l1.258,0.455l0.061,0.909l-1.182,0.303h-5.454
	v0.303l-0.031,2.121c1.318,0,3.091-0.151,5.348-0.151l1.258,0.455l0.061,0.909l-1.182,0.303h-5.485l0.06,1.667l-0.06,1.06
	C54.924,291.521,57.758,291.673,60.925,291.825 M156.411,270.763l-2.136,0.606l-0.651,2.424c0.257,2.576,0.318,4.545,0.166,6.212
	l-0.954,3.636l-1.91,2.879l-2.53,2.121l-1.379,1.364l0.197,0.91l1.122,0.303l1.408-0.606l2.455-2.424
	c0.818-1.06,1.576-2.424,2.272-4.091c0.485-1.364,0.818-3.031,1.015-5.303l0.56-1.818c0.288-0.152,1.531-0.455,3.728-0.606
	c4.076-0.151,6.893-0.151,8.439,0l1.743-0.455l0.197-1.061l0.076-1.212l0.288-1.212l0.076-1.364l-0.697-0.303h-1.939
	c-0.94,0-3.121,0-6.515,0.152C158.73,270.915,157.048,270.915,156.411,270.763 M155.73,273.794l0.485-1.212
	c0.227-0.151,2.183-0.303,5.849-0.455c3.712-0.151,5.727,0,6.06,0.303l0.166,0.909l-0.302,1.212
	c-0.092,0.152-2.121,0.152-6.121,0.303c-3.818,0.152-5.819,0.152-5.94-0.151L155.73,273.794z M158.624,280.461l-1.287-1.061
	l0.818-1.061l1.681,0.606l1.379,0.909l1.258,1.061l-0.076,0.606l-1.106-0.303L158.624,280.461z M172.23,280.157l-1.484,0.303
	l-2.879,1.06l-0.531-0.303l0.455-0.606l2.955-1.97l2.015-0.455l0.485,1.212L172.23,280.157z M159.473,290.764l-1.348,2.121
	l-2.076,2.121l-1.182,0.455l-0.788-0.455l-0.166-0.606l0.636-0.606c1.652-1.364,2.894-2.424,3.682-3.636l1.243-3.485l-0.166-2.273
	l0.166-1.515l0.667-0.303l1.015,0.152h3.015l-0.031-1.818l-0.06-1.515l-0.167-1.212l0.667-1.212l1.182,0.455l0.227,1.667
	l-0.106,0.757l-0.091,1.818l-0.06,1.061h4l1.151,0.455l0.394,0.757l-0.197,0.758l-0.363,0.909l-0.197,2.879
	c0.031,2.273,0.166,3.788,0.424,4.545l0.076,1.667l-0.818,0.606l-0.607-0.151l-0.348-0.758l-0.227-3.636
	c-0.607-0.152-2.121-0.152-4.576-0.152c-2.546,0-4.122,0.152-4.742,0.152H159.473z M164.442,289.4c-1.939,0-3.349,0-4.273-0.152
	l0.454-1.666c0.591-0.152,2.046-0.152,4.334-0.152c2.06-0.152,3.425,0,4.076,0.152v0.757l-0.015,0.909
	C168.352,289.249,166.837,289.249,164.442,289.4 M164.958,286.067c-1.985,0-3.379,0-4.167-0.152l0.303-1.515
	c0.076-0.151,0.97-0.303,2.651-0.303c2.197,0,3.652,0,4.379,0.152l0.531,0.151l0.363,1.515
	C168.337,286.067,166.987,286.067,164.958,286.067 M269.384,282.127l1.91-0.606c1.455-0.455,2.485-0.909,3.091-1.212l1.319-1.364
	l-1.319-0.758l-1.212,0.152l-2.636,1.061l-0.258,0.152c0.531-1.667,0.925-2.576,1.182-2.728l0.424-1.06l-1.015-1.061l-2.834-0.909
	l-0.152,0.606l0.909,1.212v1.212l-1.136,3.485l-1.516,0.303h-1.849l-1.576-0.909l-0.485,0.455l1.697,2.121l2.212,0.455l0.621-0.152
	l-0.894,2.121c-1.182,2.727-2.364,5.152-3.545,7.121l-0.621,2.576l0.591,1.515l1.121-0.303c0.349-0.303,0.864-1.212,1.531-2.728
	C266.808,288.642,268.293,285.006,269.384,282.127 M280.279,284.4c-1.425,0.152-2.803,0.606-4.122,1.364l-0.546-0.909l2.333-1.666
	h-0.469c-1.364-0.152-3.092-0.152-5.228,0.152l-0.258-0.758c1.743-0.909,3.258-1.364,4.531-1.515c1.5-0.151,2.743,0,3.758,0.303
	l1.802,1.06l0.303,1.667l-0.728,0.455L280.279,284.4z M272.384,289.249l0.031,1.818l0.56,0.758l1.803,0.455
	c1.076,0.151,2.576,0.151,4.516,0l1.697,0.303l0.924,1.212c-0.015,0.455-0.894,0.758-2.621,1.061c-1.576,0.152-3.076,0.152-4.485,0
	c-1.576-0.303-2.697-0.757-3.379-1.515l-0.848-2.273l0.94-2.424L272.384,289.249z M385.386,283.945
	c-1.727,0-3.378,0.758-4.924,2.273l-0.758,0.455l-0.076-0.758c0.092-0.303,0.531-1.364,1.319-3.333l0.53-1.515
	c1.667-0.455,3.439-1.06,5.333-1.969l1.44-1.061l-1.44-0.758l-1.621,0.303l-2.787,1.212l1.121-2.273l0.258-0.909l-0.955-1.212
	c-0.651-0.455-1.848-0.909-3.591-1.364l-0.318,0.758l1.47,1.364l0.227,1.364l-1.014,3.031l-3.182,0.151l-1.879-0.455l-0.621-1.061
	l-0.697,0.152l0.636,2.273c0.273,0.455,1.137,0.909,2.561,1.061h2.47c-0.561,1.515-1.076,2.879-1.592,4.242l-0.515,2.727
	l1.015,2.121l0.727,0.152l0.621-0.758l1.348-1.515c1.773-1.969,3.41-3.03,4.894-3.03l2.38,1.212l0.742,2.727l-1.575,3.031
	c-1.122,1.061-2.637,1.818-4.531,2.273c-1.395,0.455-2.803,0.606-4.273,0.758v1.06c1.97,0.152,3.88-0.151,5.743-0.455
	c2.046-0.455,3.682-1.212,4.909-2.273c1.44-1.212,2.212-2.727,2.288-4.394c0.031-1.666-0.363-2.878-1.166-3.939
	C388.947,284.552,387.447,283.945,385.386,283.945 M493.238,274.551c-2.394,0-4.531,0.606-6.41,1.818
	c-1.469,0.909-2.621,2.273-3.454,3.788c-0.879,1.667-1.303,3.637-1.288,5.606c-0.015,1.364,0.288,2.728,0.924,3.788l2.501,1.819
	l2.303-1.364c1.001-1.06,1.939-2.727,2.788-5c0.591-1.364,1.106-3.031,1.515-4.849c0.41-1.667,0.728-2.576,0.925-2.727l0.136-0.606
	l-0.242-0.606h0.303c1.53,0,3.015,0.455,4.439,1.212l2.197,2.424c0.394,0.757,0.591,2.121,0.591,3.636
	c0,1.818-0.455,3.182-1.348,4.546c-0.743,1.06-1.849,1.969-3.318,2.727l-3.94,1.061v1.06c1.242,0.152,2.59,0.152,4.045-0.303
	c2.121-0.606,3.788-1.515,4.986-3.031c1.408-1.666,2.121-3.636,2.136-6.061c0-1.666-0.273-3.03-0.849-4.394l-2.666-2.879
	C497.783,275.157,495.692,274.551,493.238,274.551 M490.464,277.43c-0.257,1.667-0.667,3.333-1.242,5.152
	c-0.531,1.667-1.03,2.879-1.516,3.788l-1.106,1.667l-1.09,0.455l-0.864-0.758l-0.349-1.97c-0.031-1.515,0.409-3.182,1.303-5
	c0.879-1.666,1.955-2.727,3.197-3.485l1.606-0.606L490.464,277.43z M611.952,274.551l0.379,0.455l0.378,1.515l0.334,1.515
	l0.394,1.061l0.591,0.151l0.56-0.303l0.424-1.212l-0.227-1.06l-0.197-0.606l-0.06-0.757l-0.167-1.061l-1.076-0.909l-2.637-0.606
	c-1.773,0-3.985-0.152-6.606-0.152l0.257-0.606l-0.848-1.667l-1.516,0.152l0.364,1.515l0.318,0.606c-2.712,0-5.107,0-7.198,0.152
	l-2.227,0.455l-0.803,1.515l-0.94,3.03l0.152,1.667l0.727,0.455l0.833-0.303l0.379-1.667l0.378-2.121l0.424-0.91l2.136-0.606
	c1.395-0.152,3.318-0.303,5.788-0.303c2.773,0,4.925,0,6.439,0.152C610.437,274.097,611.528,274.4,611.952,274.551 M615.437,288.946
	c-2.046-0.606-3.97-1.061-5.773-1.212l-0.727,0.909l-3.318,1.97c1.484,0.606,2.984,1.364,4.5,2.121l2.046,1.212l0.06,0.606
	l-0.788,0.606l-1.999-0.758c-1.955-1.061-3.818-1.97-5.591-2.879l-0.925,0.455c-2.803,1.364-4.909,2.273-6.318,2.879l-1.909,0.303
	l-0.652-0.455l0.197-0.758l1.349-0.757c0.742-0.152,2.409-0.758,4.999-1.97l1.348-0.606l-2.196-0.909
	c-1.5-0.757-2.409-1.212-2.743-1.515l-0.257-0.303c-2.819,0.152-5.076,0.303-6.743,0.606l-1.742-0.303l0.394-1.364l2.212-0.606h1.97
	c1.727-0.151,3.257-0.151,4.606-0.151l1.803-1.667l1.379-1.515l-1.318,0.151h-1.667l-0.636-1.515l-0.06-1.515l-0.061-1.97
	l-0.045-0.606l0.363-1.212l0.985-0.303l3.167-0.151h5.652l1.939,0.455l0.363,1.364l-0.197,3.03l-0.53,1.97l-1.834,0.303h-0.954
	h0.031l0.757,0.606l2.864,2.576l0.03,0.151c2.47,0,4.303,0,5.485,0.152h3.121l0.47,0.758l-1.455,1.666L615.437,288.946z
	 M602.028,286.067c1.97,0,3.757,0,5.333,0.151l-2.228-1.818l-1.227-1.06l-0.136-0.455h-1.243l0.031,0.455l-1.045,1.06l-1.288,1.061
	l-0.56,0.606H602.028z M607.361,287.733c-1.985-0.151-3.757-0.151-5.333-0.151l-2.651,0.151l0.363,0.303
	c0.893,0.455,2.046,1.06,3.439,1.515l0.47,0.303c1.5-0.758,2.666-1.515,3.439-1.97L607.361,287.733z M603.043,279.703
	c2.272,0,3.742,0,4.409,0.152l-0.257,1.212l-1.243,0.303h-3.682l-2.409,0.151l-1.046-0.151l-0.302-1.515
	C599.103,279.854,600.618,279.703,603.043,279.703 M603.043,278.642c-2.318,0-3.864,0-4.622-0.151l0.167-1.061
	c0.212-0.303,1.469-0.303,3.772-0.303c2.955-0.152,4.576-0.152,4.864,0.151l0.227,1.364H603.043z"/>
</svg>
