<?xml version="1.0" encoding="utf-8"?>
<!-- Generator: Adobe Illustrator 27.1.1, SVG Export Plug-In . SVG Version: 6.00 Build 0)  -->
<svg version="1.1" id="레이어_1" xmlns="http://www.w3.org/2000/svg" xmlns:xlink="http://www.w3.org/1999/xlink" x="0px"
	 y="0px" viewBox="0 0 720 278.631" enable-background="new 0 0 720 278.631" xml:space="preserve">
<path d="M0.012,240.625h4.145c2.777,0,4.422,1.395,4.422,3.685c0,1.645-0.592,2.579-1.803,3.224l2.106,2.474H5.499L4.026,248.1
	v-2.027h0.132c1.29,0,1.948-0.711,1.948-1.671c0-0.869-0.645-1.606-1.948-1.606H2.42v7.212H0.012V240.625z"/>
<rect x="13.765" y="240.626" width="2.474" height="9.383"/>
<path d="M21.766,240.633h2.474v3.474l3.224-3.474h2.895l-6.119,6.777v2.606h-2.474V240.633z M25.491,247.489l1.75-1.895l3.593,4.422
	h-3.172L25.491,247.489z"/>
<path d="M35.084,240.626h6.869v2.04h-4.382v5.29h4.514v2.053h-7.001V240.626z M38.519,244.193h2.566v2.053h-2.566V244.193z"/>
<rect x="47.112" y="240.626" width="2.487" height="9.383"/>
<path d="M62.639,245.435c0-2.921,2.106-5.027,5.145-5.027c0.645,0,1.211,0.079,1.737,0.237l-0.75,2.04
	c-0.29-0.105-0.605-0.158-0.961-0.158c-1.553,0-2.685,1.04-2.685,2.842c0,1.763,1.132,2.711,2.777,2.711
	c1.013,0,1.882-0.579,2.053-1.553h-2.185v-2.04h4.501c0.039,0.382,0.039,0.697,0.039,1.04c-0.039,2.816-1.895,4.672-4.54,4.672
	C64.732,250.199,62.639,248.396,62.639,245.435"/>
<polygon points="84.004,240.625 84.004,250.008 81.53,250.008 81.53,244.494 79.635,246.758 80.583,246.758 80.583,248.732 
	77.99,248.732 76.924,250.008 73.99,250.008 81.951,240.625 "/>
<path d="M96.067,240.633h2.474v3.474l3.224-3.474h2.895l-6.119,6.777v2.606h-2.474V240.633z M99.791,247.489l1.75-1.895l3.593,4.422
	h-3.172L99.791,247.489z"/>
<path d="M108.868,245.331c0-2.869,2.224-4.882,4.948-4.882c2.711,0,4.935,2.013,4.935,4.882c0,2.737-2.224,4.817-4.935,4.817
	C111.092,250.148,108.868,248.068,108.868,245.331 M116.277,245.331c0-1.632-1.053-2.671-2.461-2.671s-2.474,1.04-2.474,2.671
	c0,1.592,1.04,2.606,2.474,2.606C115.238,247.937,116.277,246.923,116.277,245.331"/>
<rect x="123.755" y="240.626" width="2.487" height="9.383"/>
<polygon points="146.834,240.625 146.834,250.008 144.36,250.008 144.36,246.152 140.781,243.981 140.781,250.008 138.294,250.008 
	138.294,240.625 139.912,240.625 144.36,243.336 144.36,240.625 "/>
<rect x="152.351" y="240.626" width="2.487" height="9.383"/>
<path d="M167.865,245.331c0-2.869,2.224-4.882,4.948-4.882c2.711,0,4.948,2.013,4.948,4.882c0,2.737-2.237,4.817-4.948,4.817
	C170.089,250.148,167.865,248.068,167.865,245.331 M175.274,245.331c0-1.632-1.053-2.671-2.461-2.671s-2.474,1.04-2.474,2.671
	c0,1.592,1.04,2.606,2.474,2.606S175.274,246.923,175.274,245.331"/>
<path d="M182.241,245.435c0-2.921,2.106-5.027,5.119-5.027c1.658,0,2.869,0.553,3.777,1.474l-1.698,1.527
	c-0.553-0.592-1.211-0.882-2.092-0.882c-1.513,0-2.619,1.04-2.619,2.842c0,1.763,1.105,2.711,2.711,2.711
	c0.816,0,1.513-0.29,2.079-0.842l1.434,1.527c-0.908,0.895-2.092,1.434-3.593,1.434
	C184.347,250.199,182.241,248.199,182.241,245.435"/>
<path d="M195.857,240.626h2.474v5.303h3.053v2.119h-3.053v1.961h-2.474V240.626z M202.319,240.626h2.487v9.383h-2.487V240.626z"/>
<rect x="210.32" y="240.626" width="2.474" height="9.383"/>
<path d="M217.467,240.625h2.329v2.119h-2.329V240.625z M220.599,240.625h5.619v2.119h-3.132v7.264h-2.487V240.625z"/>
<polygon points="237.767,240.625 237.767,250.008 235.293,250.008 235.293,244.494 233.398,246.758 234.346,246.758 
	234.346,248.732 231.753,248.732 230.687,250.008 227.753,250.008 235.714,240.625 "/>
<polygon points="258.367,240.625 258.367,250.008 255.879,250.008 255.879,246.152 252.3,243.981 252.3,250.008 249.826,250.008 
	249.826,240.625 251.444,240.625 255.879,243.336 255.879,240.625 "/>
<path d="M263.367,245.331c0-2.869,2.224-4.882,4.948-4.882c2.711,0,4.948,2.013,4.948,4.882c0,2.737-2.237,4.817-4.948,4.817
	C265.591,250.148,263.367,248.068,263.367,245.331 M270.776,245.331c0-1.632-1.053-2.671-2.461-2.671s-2.474,1.04-2.474,2.671
	c0,1.592,1.04,2.606,2.474,2.606C269.75,247.937,270.776,246.923,270.776,245.331"/>
<path d="M284.795,243.654h2.408v4.29h1.645c1.474,0,2.527-1,2.527-2.619c0-1.632-1.066-2.658-2.5-2.658h-4.08v-2.04h4.08
	c2.921,0,4.988,1.908,4.988,4.698c0,2.724-2.079,4.698-5.014,4.685l-4.053-0.013V243.654z"/>
<path d="M298.872,240.626h6.856v2.04h-4.382v5.29h4.514v2.053h-6.988V240.626z M302.294,244.193h2.553v2.053h-2.553V244.193z"/>
<path d="M397.268,62.851h-5.751h-0.237h-13.976h-4.382h-1.605l-6.712,25.083h5.975l5.119-19.095h13.976l-3.514,13.12h-7.198v5.974
	h5.606l-2.461,9.172h-17.963v31.136h33.4V97.105h-9.449l2.461-9.172h6.988v-5.974h-5.395L397.268,62.851z M391.57,122.254h-21.437
	v-19.161h21.437V122.254z"/>
<path d="M20.924,87.933h17.187v13.515H20.924v5.988h17.187v14.818H20.924v5.988h34.373v-5.988H44.085v-14.818h17.187v-5.988H44.085
	V87.933h17.187V43.887H20.924V87.933z M26.912,68.904h11.199v13.054H26.912V68.904z M44.085,68.904h11.199v13.054H44.085V68.904z
	 M55.284,62.916H44.085V49.862h11.199V62.916z M38.111,62.916H26.912V49.862h11.199V62.916z"/>
<polygon points="5.993,46.879 5.993,49.866 5.993,62.92 0.005,62.92 0.005,68.908 5.993,68.908 5.993,104.834 0.005,106.427 
	0.005,112.625 18.6,107.651 18.6,101.452 11.981,103.229 11.981,68.908 18.6,68.908 18.6,62.92 11.981,62.92 11.981,49.866 
	18.6,49.866 18.6,43.891 5.993,43.891 "/>
<polygon points="70.638,49.87 91.93,49.87 80.652,65.872 91.996,81.953 70.638,81.953 70.638,87.941 95.549,87.941 95.549,128.236 
	101.537,128.236 101.537,87.941 120.474,87.941 120.474,81.953 105.103,81.953 114.026,69.294 109.143,65.846 98.55,80.874 
	87.969,65.872 99.247,49.87 126.462,49.87 126.462,43.882 70.638,43.882 "/>
<rect x="278.962" y="61.837" width="5.988" height="66.404"/>
<rect x="296.675" y="81.959" width="30.307" height="5.988"/>
<rect x="505.258" y="97.119" width="20.016" height="5.975"/>
<polygon points="391.565,49.233 375.918,49.233 375.918,42.508 369.93,42.508 369.93,49.233 363.376,49.233 363.376,42.508 
	357.402,42.508 357.402,49.233 335.767,49.233 335.767,55.221 391.565,55.221 "/>
<polygon points="326.986,122.255 302.653,122.255 302.653,114.912 296.679,114.912 296.679,128.243 326.986,128.243 "/>
<polygon points="143.955,101.452 136.783,128.232 142.758,128.232 149.943,101.452 149.943,87.937 167.985,87.937 167.985,128.232 
	173.96,128.232 173.96,81.949 149.943,81.949 149.943,61.828 143.955,61.828 143.955,81.949 134.888,81.949 134.888,87.937 
	143.955,87.937 "/>
<rect x="184.422" y="81.919" width="5.988" height="19.529"/>
<rect x="184.422" y="55.85" width="5.988" height="16.7"/>
<rect x="174.012" y="55.85" width="5.988" height="16.7"/>
<rect x="651.884" y="90.763" width="5.988" height="16.7"/>
<rect x="641.475" y="90.763" width="5.988" height="16.7"/>
<polygon points="428.19,81.955 461.366,81.955 461.366,75.967 428.19,75.967 428.19,55.859 422.202,55.859 422.202,75.967 
	414.596,75.967 414.596,81.955 422.202,81.955 422.202,103.089 458.365,103.089 458.365,122.25 428.19,122.25 428.19,128.238 
	464.353,128.238 464.353,97.115 428.19,97.115 "/>
<polygon points="486.375,128.238 492.362,128.238 492.362,81.955 508.457,81.955 508.457,75.967 492.362,75.967 492.362,55.846 
	486.375,55.846 486.375,75.967 477.215,75.967 477.215,81.955 486.375,81.955 "/>
<polygon points="544.367,128.238 572.069,128.238 572.069,98.418 566.081,98.418 566.081,122.25 550.355,122.25 550.355,81.955 
	587.795,81.955 587.795,128.238 593.782,128.238 593.782,75.967 544.367,75.967 "/>
<polygon points="109.741,101.452 116.913,128.232 123.111,128.232 115.939,101.452 "/>
<polygon points="73.983,128.238 80.181,128.238 87.354,101.457 81.155,101.457 "/>
<rect x="336.259" y="62.851" width="24.188" height="5.975"/>
<rect x="342.142" y="81.959" width="18.2" height="5.988"/>
<polygon points="360.441,115.56 336.253,122.034 336.253,128.233 360.441,121.758 "/>
<polygon points="655.476,57.987 599.757,57.987 599.757,63.974 643.934,63.974 617.957,100.809 637.315,128.234 644.645,128.234 
	625.287,100.809 "/>
<polygon points="511.569,111.735 505.371,111.735 500.949,128.238 507.147,128.238 531.256,128.238 531.256,122.25 508.753,122.25 
	"/>
<polygon fill="#E45298" points="237.294,96.89 242.044,114.642 248.032,114.642 243.281,96.89 "/>
<polygon fill="#E45298" points="223.527,90.632 229.515,90.632 229.515,55.009 236.068,55.009 236.068,90.632 242.043,90.632 
	242.043,55.009 260.704,55.009 260.704,49.034 235.779,49.034 235.779,42.309 229.804,42.309 229.804,49.034 204.88,49.034 
	204.88,55.009 223.527,55.009 "/>
<polygon fill="#E45298" points="236.067,122.053 229.514,122.053 229.514,101.247 223.526,101.247 223.526,128.04 242.055,128.04 
	242.055,114.644 236.067,114.644 "/>
<polygon fill="#E45298" points="202.016,91.051 207.991,91.051 215.176,64.271 209.188,64.271 "/>
<polygon fill="#E45298" points="250.404,64.267 257.576,91.047 263.563,91.047 256.391,64.267 "/>
<polygon fill="#E45298" points="202.016,128.034 207.991,128.034 215.176,101.254 209.188,101.254 "/>
<polygon fill="#E45298" points="250.404,101.25 257.576,128.03 263.563,128.03 256.391,101.25 "/>
<rect x="55.298" y="122.267" fill="#E45298" width="5.975" height="5.975"/>
<rect x="0.013" y="43.887" fill="#E45298" width="5.975" height="5.988"/>
<rect x="120.465" y="81.945" fill="#E45298" width="5.988" height="5.988"/>
<rect x="143.955" y="55.849" fill="#E45298" width="5.988" height="5.988"/>
<rect x="278.962" y="55.849" fill="#E45298" width="5.988" height="5.988"/>
<rect x="336.141" y="81.945" fill="#E45298" width="5.988" height="5.988"/>
<rect x="391.557" y="49.23" fill="#E45298" width="5.988" height="5.988"/>
<rect x="408.612" y="75.971" fill="#E45298" width="5.988" height="5.988"/>
<rect x="422.206" y="122.254" fill="#E45298" width="5.988" height="5.988"/>
<rect x="525.274" y="97.119" fill="#E45298" width="5.988" height="5.975"/>
<rect x="566.082" y="92.434" fill="#E45298" width="5.988" height="5.975"/>
<rect x="593.784" y="57.981" fill="#E45298" width="5.975" height="5.988"/>
<path d="M0.013,223.782h23.714v-31.123H0.013V223.782z M5.988,198.633h11.752v19.161H5.988V198.633z"/>
<path d="M414.113,223.782h23.714v-31.123h-23.714V223.782z M420.101,198.633h11.752v19.161h-11.752V198.633z"/>
<rect x="3" y="178.92" width="17.726" height="5.988"/>
<rect x="3" y="166.747" width="17.726" height="5.988"/>
<rect x="3" y="154.588" width="17.726" height="5.988"/>
<rect x="5.988" y="142.415" width="17.726" height="5.988"/>
<polygon points="26.142,148.397 40.276,148.397 40.276,217.789 32.13,217.789 32.13,169.742 26.142,169.742 26.142,223.777 
	54.409,223.777 54.409,217.789 46.263,217.789 46.263,186.087 60.397,186.087 60.397,180.112 46.263,180.112 46.263,148.397 
	60.397,148.397 60.397,142.41 26.142,142.41 "/>
<path d="M92.882,142.415H69.168v54.574h23.714V142.415z M86.907,167.537H75.156v-19.134h11.752V167.537z M75.156,173.511h11.752
	v17.489H75.156V173.511z"/>
<polygon points="194.743,217.794 154.697,217.794 154.697,157.378 148.71,157.378 148.71,223.782 200.717,223.782 200.717,195.265 
	194.743,195.265 "/>
<path d="M328.704,171.511h-5.988v21.135h-19.74v-39.032h-17.739v5.988h11.752v33.044h-0.763h-16.963v31.136h23.714v-25.148h19.74
	v25.24h5.988v-25.24h4.303v-5.988h-4.303V171.511z M296.989,217.794h-11.752v-19.161h10.988h0.763V217.794z"/>
<path d="M98.291,167.537v5.974v17.503v5.975l-7.172,26.793h6.198l7.172-26.793h22.082v20.806h5.974v-75.379H98.291V167.537z
	 M104.278,173.511h22.293v17.489h-22.293V173.511z M126.571,167.537h-22.293v-19.134h22.293V167.537z"/>
<polygon points="211.586,153.616 211.586,159.604 255.763,159.604 229.786,196.438 249.144,223.864 256.461,223.864 
	237.103,196.438 267.305,153.616 "/>
<polygon points="378.202,177.492 378.202,171.505 362.108,171.505 362.108,151.396 356.12,151.396 356.12,171.505 352.949,171.505 
	352.949,177.492 356.12,177.492 356.12,223.775 362.108,223.775 362.108,177.492 "/>
<rect x="375.015" y="192.646" width="26.004" height="5.988"/>
<polygon points="381.321,207.273 375.123,207.273 370.701,223.775 376.899,223.775 395.034,223.775 395.034,217.801 
	378.505,217.801 "/>
<rect y="142.415" fill="#E45298" width="5.988" height="5.988"/>
<rect x="54.416" y="217.794" fill="#E45298" width="5.988" height="5.988"/>
<rect x="126.558" y="217.794" fill="#E45298" width="5.988" height="5.988"/>
<rect x="148.719" y="151.39" fill="#E45298" width="5.975" height="5.988"/>
<rect x="205.596" y="153.614" fill="#E45298" width="5.988" height="5.988"/>
<rect x="333.009" y="192.646" fill="#E45298" width="5.975" height="5.988"/>
<rect x="279.264" y="153.614" fill="#E45298" width="5.975" height="5.988"/>
<rect x="346.958" y="171.511" fill="#E45298" width="5.988" height="5.988"/>
<rect x="395.018" y="217.781" fill="#E45298" width="5.988" height="5.988"/>
<path d="M0.012,265.575h2.395c0,0.974,0.645,1.645,1.605,1.645c1.105,0,1.513-0.316,1.513-1.066s-0.382-1.053-1.513-1.105
	c-1.974-0.092-3.171-0.895-3.171-2.724c0-1.645,1.329-2.645,3.171-2.645c1.316,0,2.04,0.526,2.316,0.842l-1.474,1.606
	c-0.316-0.303-0.487-0.395-0.842-0.395c-0.421,0-0.724,0.25-0.724,0.592c0,0.395,0.276,0.618,1.079,0.645
	c1.895,0.079,3.422,0.697,3.422,2.987c0,2.106-1.579,3.316-3.777,3.316C1.446,269.273,0.012,267.851,0.012,265.575"/>
<path d="M12.699,259.827h2.487v5.303h3.04v2.119h-3.04v1.961h-2.487V259.827z M19.161,259.827h2.487v9.383h-2.487V259.827z"/>
<path d="M26.647,264.53c0-2.869,2.224-4.882,4.948-4.882c2.711,0,4.948,2.013,4.948,4.882c0,2.737-2.237,4.817-4.948,4.817
	C28.871,269.346,26.647,267.267,26.647,264.53 M34.056,264.53c0-1.632-1.053-2.671-2.461-2.671c-1.408,0-2.474,1.04-2.474,2.671
	c0,1.592,1.04,2.606,2.474,2.606C33.017,267.136,34.056,266.122,34.056,264.53"/>
<path d="M41.413,265.064v-5.238h2.474v5.527c0,1.105,0.724,1.842,1.763,1.842c0.947,0,1.619-0.737,1.619-1.842v-5.527h2.448v5.238
	c0,2.987-1.711,4.277-4.093,4.277C43.189,269.341,41.413,268.051,41.413,265.064"/>
<polygon points="64.694,259.823 64.694,269.206 62.206,269.206 62.206,263.652 59.851,266.034 57.6,263.81 57.6,269.206 
	55.126,269.206 55.126,259.823 56.916,259.823 59.903,262.784 62.996,259.823 "/>
<path d="M70.221,259.827h6.856v2.04h-4.382v5.29h4.514v2.053h-6.988V259.827z M73.642,263.393h2.553v2.053h-2.553V263.393z"/>
<rect x="82.249" y="259.827" width="2.474" height="9.383"/>
<path d="M96.121,265.575h2.395c0,0.974,0.645,1.645,1.605,1.645c1.105,0,1.513-0.316,1.513-1.066s-0.382-1.053-1.513-1.105
	c-1.974-0.092-3.171-0.895-3.171-2.724c0-1.645,1.329-2.645,3.171-2.645c1.316,0,2.04,0.526,2.316,0.842l-1.474,1.606
	c-0.316-0.303-0.487-0.395-0.842-0.395c-0.421,0-0.724,0.25-0.724,0.592c0,0.395,0.276,0.618,1.079,0.645
	c1.895,0.079,3.422,0.697,3.422,2.987c0,2.106-1.579,3.316-3.777,3.316C97.555,269.273,96.121,267.851,96.121,265.575"/>
<path d="M108.819,259.827h2.474v5.303h3.04v2.119h-3.04v1.961h-2.474V259.827z M115.267,259.827h2.487v9.383h-2.487V259.827z"/>
<rect x="123.268" y="259.827" width="2.474" height="9.383"/>
<path d="M130.421,259.823h2.329v2.119h-2.329V259.823z M133.554,259.823h5.619v2.119h-3.145v7.264h-2.474V259.823z"/>
<path d="M143.837,259.827h6.856v2.04h-4.382v5.29h4.514v2.053h-6.988V259.827z M147.258,263.393h2.553v2.053h-2.553V263.393z"/>
<polygon points="173.467,259.823 173.467,269.206 170.98,269.206 170.98,263.652 168.624,266.034 166.374,263.81 166.374,269.206 
	163.9,269.206 163.9,259.823 165.69,259.823 168.677,262.784 171.77,259.823 "/>
<rect x="178.987" y="259.827" width="2.474" height="9.383"/>
<path d="M186.134,259.823h2.329v2.119h-2.329V259.823z M189.266,259.823h5.619v2.119h-3.145v7.264h-2.474V259.823z"/>
<polygon points="206.435,259.823 206.435,269.206 203.961,269.206 203.961,263.692 202.066,265.968 203.014,265.968 
	203.014,267.929 200.421,267.929 199.355,269.206 196.421,269.206 204.382,259.823 "/>
<rect x="211.702" y="266.933" width="2.25" height="2.277"/>
<path d="M224.209,262.347h2.382v0.842c0.355-0.605,0.961-0.974,1.921-0.974v2.316c-1.395,0-1.869,0.803-1.869,1.829v2.843h-2.435
	V262.347z"/>
<path d="M232.455,262.893h5.764v1.908h-5.764V262.893z M232.455,266.275h5.764v1.908h-5.764V266.275z"/>
<polygon points="242.581,267.318 243.937,267.318 243.937,261.594 242.581,261.594 242.581,259.699 246.411,259.699 
	246.411,267.318 247.74,267.318 247.74,269.214 242.581,269.214 "/>
<rect x="251.813" y="264.511" width="4.619" height="2.04"/>
<path d="M260.422,266.693h1.987c0,0.553,0.408,0.829,1.066,0.829c0.684,0,0.855-0.184,0.855-0.461c0-0.276-0.158-0.395-0.882-0.5
	c-1.434-0.224-2.514-0.842-2.514-2.171c0-1.25,0.947-2.185,2.527-2.185c0.566,0,1.132,0.145,1.553,0.421l-0.908,1.592
	c-0.145-0.118-0.342-0.171-0.526-0.171c-0.263,0-0.382,0.092-0.382,0.276c0,0.276,0.289,0.342,0.934,0.461
	c1.408,0.211,2.369,0.75,2.369,2.158c0,1.408-1.158,2.382-3.027,2.382C261.659,269.325,260.422,268.457,260.422,266.693"/>
<path d="M270.434,262.34h2.435v6.856h-2.435V262.34z M270.474,259.076h2.421v2.092h-2.421V259.076z"/>
<path d="M277.323,262.347h2.382v0.829c0.382-0.526,1.092-0.961,2.079-0.961c1.777,0,2.764,1.026,2.764,3.119v3.869h-2.421v-3.553
	c0-0.961-0.461-1.382-1.171-1.382c-0.711,0-1.197,0.474-1.197,1.382v3.553h-2.435V262.347z"/>
<path d="M296.863,264.017c0,3.961-1.434,5.935-4.093,5.935c-2.658,0-4.093-1.974-4.093-5.948c0-3.316,1.092-5.922,4.093-5.922
	c3,0,4.093,2.606,4.093,5.922V264.017z M292.717,259.898c-1.342,0-1.724,1.421-1.777,3.027h3.579
	C294.481,261.319,294.073,259.898,292.717,259.898 M290.941,264.819c0.026,1.842,0.605,3.198,1.777,3.198
	c1.184,0,1.763-1.355,1.803-3.198H290.941z"/>
<path d="M479.995,183.838h5.672v2.014c0.842-1.461,2.29-2.342,4.593-2.342v5.54c-3.33,0-4.461,1.908-4.461,4.343v6.804h-5.803
	V183.838z"/>
<path d="M497.836,185.131h13.726v4.54h-13.726V185.131z M497.836,193.198h13.726v4.527h-13.726V193.198z"/>
<polygon points="520.135,195.691 523.372,195.691 523.372,182.057 520.135,182.057 520.135,177.53 529.268,177.53 529.268,195.691 
	532.439,195.691 532.439,200.192 520.135,200.192 "/>
<rect x="539.881" y="189" width="11.015" height="4.856"/>
<path d="M558.552,194.2h4.724c0,1.329,0.974,1.974,2.566,1.974c1.619,0,2.04-0.447,2.04-1.092c0-0.658-0.395-0.947-2.106-1.197
	c-3.435-0.526-6.001-2.013-6.001-5.185c0-2.987,2.277-5.185,6.027-5.185c1.329,0,2.685,0.329,3.698,1l-2.171,3.79
	c-0.329-0.289-0.816-0.421-1.263-0.421c-0.619,0-0.908,0.224-0.908,0.684c0,0.645,0.711,0.803,2.237,1.066
	c3.369,0.513,5.632,1.816,5.632,5.145c0,3.369-2.75,5.711-7.185,5.711C561.5,200.49,558.552,198.411,558.552,194.2"/>
<path d="M580.137,183.842h5.803v16.358h-5.803V183.842z M580.229,176.038h5.764v4.988h-5.764V176.038z"/>
<path d="M594.73,183.838h5.672v1.974c0.908-1.263,2.619-2.303,4.948-2.303c4.251,0,6.606,2.461,6.606,7.448v9.238h-5.79v-8.488
	c0-2.303-1.066-3.303-2.79-3.303c-1.684,0-2.843,1.132-2.843,3.303v8.488h-5.803V183.838z"/>
<path d="M639.232,187.825c0,9.449-3.435,14.147-9.751,14.147c-6.343,0-9.778-4.698-9.778-14.186c0-7.896,2.619-14.12,9.778-14.12
	c7.159,0,9.751,6.225,9.751,14.12V187.825z M629.349,178.008c-3.198,0-4.106,3.369-4.237,7.225h8.514
	C633.56,181.377,632.587,178.008,629.349,178.008 M625.112,189.733c0.066,4.409,1.461,7.606,4.237,7.606
	c2.829,0,4.211-3.198,4.277-7.606H625.112z"/>
<polygon points="471.494,210.813 461.36,210.813 461.36,164.833 471.494,164.833 471.494,168.978 465.979,168.978 465.979,206.668 
	471.494,206.668 "/>
<polygon points="647.735,164.831 657.868,164.831 657.868,210.812 647.735,210.812 647.735,206.666 653.249,206.666 
	653.249,168.977 647.735,168.977 "/>
<path fill="#E45298" d="M561.033,278.631c-41.822,0-81.117-15.713-110.661-44.243l5.251-5.435
	c28.123,27.162,65.562,42.111,105.41,42.111c31.399,0,61.259-9.159,86.368-26.504c23.359-16.147,41.717-38.492,53.087-64.654
	c21.793-50.165,13.331-104.91-22.082-142.85C651.046,7.749,616.08,4.078,594.459,9.855c-15.871,4.224-26.991,13.792-29.741,25.583
	h-7.37c-2.75-11.791-13.87-21.358-29.741-25.596c-21.635-5.764-56.587-2.093-83.946,27.214l-5.527-5.159
	c29.649-31.755,67.773-35.663,91.421-29.36c14.463,3.856,25.622,11.752,31.478,21.911c5.856-10.159,17.016-18.055,31.478-21.911
	c23.648-6.304,61.772-2.395,91.421,29.36c37.505,40.177,46.507,98.054,23.49,151.022c-11.936,27.451-31.202,50.915-55.732,67.865
	C625.318,268.998,593.972,278.631,561.033,278.631"/>
</svg>
