<?xml version="1.0" encoding="utf-8"?>
<!-- Generator: Adobe Illustrator 27.2.0, SVG Export Plug-In . SVG Version: 6.00 Build 0)  -->
<svg version="1.1" id="레이어_1" xmlns="http://www.w3.org/2000/svg" xmlns:xlink="http://www.w3.org/1999/xlink" x="0px"
	 y="0px" viewBox="0 0 720 146.011" enable-background="new 0 0 720 146.011" xml:space="preserve">
<path fill="#FF3F8C" d="M138.214,141.702c-15.02-4.473-28.439-19.312-35.292-29.042c-11.942,12.923-35.415,28.406-59.668,30.474
	l-0.328-0.952c20.929-8.782,39.437-22.501,52.815-40.857c-4.473-7.974-13.706-27.446-14.199-51.063h-3.98
	c-1.272,30.638-5.909,47.714-21.216,66.386c-13.091,15.955-25.853,21.381-30.819,23.457l-1.436-0.8
	c21.381-18.828,31.435-36.864,35.579-50.579c-14.979,7.653-30.286,14.835-46.413,19.944c-1.765,2.708-2.38,3.669-3.816,3.669
	c-1.601,0-2.75-2.232-3.365-3.829L0,91.911c2.873,0.8,6.853,1.916,11.491,1.916c4.145,0,13.255-1.436,16.62-2.077
	c0-7.177-0.164-38.932-0.164-45.318h-4.637c-9.726,0-13.255,0.32-17.236,0.956l-2.544-5.741c8.946,0.796,18.836,0.956,24.417,0.956
	c-0.164-24.573-0.328-25.049-0.821-30.634C26.962,10.054,24.91,1.752,24.581,0l18.672,5.741c0.78,0.324,2.873,0.96,2.873,2.557
	c0,0.952-1.108,3.189-4.801,4.945c-0.164,2.553-0.164,4.149-0.164,6.225c-0.123,3.669-0.287,19.784-0.451,23.137h0.451l5.745-7.342
	c1.149-1.432,1.6-2.072,2.421-2.072c0.944,0,2.544,1.436,2.873,1.752l8.29,7.342c0.944,0.8,1.6,1.28,1.6,2.397
	c0,1.436-1.272,1.752-2.421,1.752H40.709c-0.164,6.706,0,37.02,0,43.245c11.49-2.232,16.907-3.353,19.944-3.989
	c3.652-14.999,3.652-43.561,3.652-49.311c0-4.625,0-14.359-2.708-27.922l18.344,7.813h41.202l7.305-9.25
	c1.313-1.596,1.6-1.912,2.421-1.912c0.78,0,1.6,0.476,3.037,1.748l11.162,9.098c0.616,0.64,1.601,1.436,1.601,2.393
	c0,1.436-1.436,1.76-2.544,1.76H77.889c0.164,8.458-0.164,17.392-0.328,26.325h37.96l6.238-4.149
	c0.944-0.636,1.929-1.592,2.873-1.592c0.821,0,2.093,0.956,3.201,1.912l7.674,6.702c1.272,1.12,2.052,1.916,2.052,3.513
	c0,3.193-3.981,4.629-7.346,5.745c-10.054,28.718-16.415,39.412-21.052,46.274c3.365,3.513,18.344,18.352,45.962,21.54v1.28
	C147.775,130.367,142.03,135.637,138.214,141.702 M84.742,50.262c2.38,19.152,10.67,35.428,15.799,43.565
	c2.873-4.785,11.819-20.104,15.635-43.565H84.742z"/>
<path fill="#FF3F8C" d="M166.53,38.776c-9.726,0-13.255,0.32-17.236,1.116l-2.708-5.901c9.726,0.792,21.052,0.952,22.817,0.952
	h39.724c0-4.305-0.164-24.249-3.201-33.827l19,5.905c1.601,0.48,1.929,1.116,1.929,2.072c0,1.6-1.6,2.712-5.13,5.109
	c0.164,3.189-0.123,17.712-0.123,20.74h34.307l8.289-9.574c0.944-1.116,1.6-1.916,2.38-1.916c0.657,0,1.929,0.8,3.037,1.6
	l13.542,9.574c0.492,0.316,1.601,1.276,1.601,2.393c0,1.436-1.272,1.756-2.38,1.756h-57.616
	c11.655,26.81,40.709,57.604,67.671,64.15v0.956c-5.909,1.28-11.162,3.029-19.164,11.65c-33.035-22.505-49.286-65.59-51.379-76.756
	h-0.451c-0.164,13.083-0.164,18.028,0.164,62.233h6.853l6.361-7.498c0.985-1.12,1.601-1.916,2.421-1.916
	c0.616,0,1.724,0.64,2.996,1.596l8.946,7.658c0.821,0.64,1.601,1.276,1.601,2.393c0,1.436-1.272,1.596-2.38,1.596h-26.797
	c0,6.701,0,18.032,0.287,24.417c0,1.272,0.492,7.182,0.492,8.458c0,6.697-5.745,8.298-9.274,8.298c-6.197,0-6.525-2.877-6.525-5.905
	c0-0.64,0.492-5.901,0.492-6.866c0.78-9.414,1.108-19.308,1.436-28.402h-10.054c-9.89,0-13.255,0.48-17.236,1.116l-2.708-5.905
	c9.726,0.96,21.052,0.96,22.817,0.96h7.182c0.164-15.639,0.287-31.279,0.451-47.074c-29.506,48.99-63.485,59.837-67.63,60.957
	l-0.492-0.96c32.871-24.729,57.781-62.229,62.09-75.156H166.53"/>
<path fill="#FF3F8C" d="M300.599,51.079c2.339,0,4.063-0.583,7.715-2.323c3.775-2.035,49.901-21.179,59.176-25.386
	c6.812-3.189,8.125-3.189,9.439-3.189c4.35,0,14.076,2.749,14.076,8.7c0,3.628-2.462,3.919-8.577,4.494
	c-21.298,2.183-44.402,17.847-44.402,46.134c0,11.749,2.175,26.543,25.402,35.107c5.95,2.031,11.901,3.193,16.251,3.915
	c3.611,0.579,4.637,0.87,6.648,2.466c1.6,1.161,4.104,3.193,4.104,5.95c0,5.511-6.566,5.799-8.002,5.799
	c-2.914,0-12.475-1.74-21.75-5.22c-15.389-5.946-31.763-20.162-31.763-40.906c0-24.372,19-42.072,31.311-53.677
	c-10.136,3.775-27.126,10.3-51.789,28.435c-5.212,3.919-7.1,5.22-9.849,5.22c-8.577,0-16.251-18.422-16.251-21.467
	c0-2.758,1.149-4.789,2.626-6.968C289.436,49.191,298.711,51.079,300.599,51.079 M384.766,63.555c0,2.031-1.026,5.364-4.678,5.364
	c-3.324,0-3.898-1.736-6.073-7.83c-1.724-5.368-4.186-8.413-7.099-12.04C377.215,51.223,384.766,58.77,384.766,63.555
	 M399.54,59.635c0,3.193-1.888,5.516-4.35,5.516c-3.611,0-4.473-2.471-6.648-8.125c-1.6-4.063-5.54-8.417-7.551-10.735
	C393.179,47.886,399.54,54.272,399.54,59.635"/>
<path fill="#FF3F8C" d="M424.654,133.765c13.912-3.045,27.864-8.704,38.575-25.821c-11.449,0.14-16.374-12.332-16.374-19.874
	c0-10.009,8.249-11.458,10.3-11.458c5.048,0,9.274,2.897,12.188,4.785c0.287-4.498,0.287-4.937,0.287-8.995V55.138
	c-19.903,3.771-36.154,12.332-43.089,16.977c-3.201,2.027-4.227,2.171-5.212,2.171c-4.391,0-19.452-8.121-19.452-13.633
	c0-1.309,0.862-2.323,2.298-2.323c0.862,0,1.888,0.439,2.175,0.439c8.413,3.185,10.013,3.624,13.05,3.624
	c2.503,0,4.965-0.144,7.428-1.014c29.301-9.726,31.599-10.588,42.925-12.188c0.164-2.758,0.451-14.946,0.575-17.552v-4.354
	c0-5.22-1.888-6.094-3.611-6.094c-3.324,0-6.689,2.035-11.162,4.933c1.436-10.153,9.151-14.503,15.799-14.503
	c4.924,0,13.337,4.206,13.337,8.121c0,1.305-0.575,2.171-2.175,4.929c-0.698,1.161-1.149,2.031-2.585,10.592
	c4.186,3.193,10.588,7.112,16.538,8.273c2.011,0.431,18.836,3.624,19.575,3.911c4.35,1.457,5.089,5.95,5.089,7.112
	c0,1.596-0.739,4.785-4.514,4.785c-1.313,0-7.551-1.449-8.864-1.736c-2.873-0.587-18.836-3.771-29.588-3.336
	c-0.123,2.61-0.287,6.238-0.287,12.04c0,5.942,0.164,8.556,1.149,15.377c0.575,4.785,0.739,7.247,0.739,9.861
	c0,11.605-8.248,40.762-55.113,43.52V133.765 M451.78,89.088c0,5.364,4.924,10.44,8.823,10.44c1.6,0,4.227-1.592,4.227-4.498
	c0-3.189-3.775-11.314-8.7-11.314C454.406,83.716,451.78,85.891,451.78,89.088 M478.454,48.465
	c8.413-0.579,9.274-0.579,12.639-1.018c-6.238-5.072-8.7-7.255-11.49-9.861C478.742,43.824,478.618,46.581,478.454,48.465"/>
<path fill="#FF3F8C" d="M544.032,70.371c0.287,4.206,0.574,8.704,2.914,15.377c6.648-8.995,12.886-18.422,18.426-28.287
	c-4.924,1.596-8.413,3.045-15.225,5.946c-5.089,2.319-7.715,3.48-8.864,3.48c-5.089,0-17.277-13.776-17.277-18.709
	c0-2.031,1.313-2.905,2.339-2.905c1.313,0,2.462,1.161,3.775,2.175c9.274,8.13,12.886,8.13,15.512,8.13
	c3.324,0,4.35-0.291,13.337-2.901c2.626-0.726,5.376-1.309,9.89-2.035c1.559-3.332,6.238-12.475,6.238-15.52
	c0-1.744-1.888-4.35-4.966-4.35c-1.436,0-6.525,2.175-9.685,3.624c2.749-5.803,7.797-11.605,12.885-11.605
	c2.052,0,3.776,0.439,8.987,4.354c4.966,3.628,5.54,4.933,5.54,6.381c0,1.309-1.026,2.901-9.151,16.247
	c10.587,0.435,11.449,11.61,11.449,18.574c0,2.754-1.436,52.368-21.462,52.368c-8.864,0-18.139-7.543-22.94-17.991
	c-4.35,6.529-8.7,13.345-9.685,14.65c-1.19,1.453-3.365,3.341-6.115,3.341c-2.175,0-4.35-1.453-4.35-5.08
	c0-1.305,0.164-6.238,3.775-9.578c4.924-4.641,7.099-6.669,13.05-14.211c-0.287-1.74-0.862-4.793-0.862-9.287
	c0-5.511,0.739-9.139,1.313-12.471L544.032,70.371 M566.233,107.797c2.011,0,3.488-1.014,4.186-1.744
	c2.913-2.897,4.801-7.247,5.54-8.991c3.899-9.718,5.048-31.476,5.048-33.507c0-3.771-0.287-8.852-5.212-8.704
	c-2.585,4.206-3.899,6.377-15.061,25.094c-0.164,0.435-8.126,12.332-9.603,14.654C553.881,99.093,560.734,107.797,566.233,107.797
	 M619.459,82.702c8.577-2.175,11.778-5.515,11.778-7.69c0-2.462-4.227-8.125-9.89-11.458c-3.775-2.175-10.711-5.807-16.087-8.704
	c19.575-0.726,42.063,12.184,42.063,26.691c0,5.507-3.611,11.897-7.551,11.897c-1.6,0-2.913-1.161-4.35-2.758
	c-3.324-3.336-7.387-6.238-15.963-6.816V82.702z M629.061,26.707c7.1,3.915,8.823,6.964,8.823,10.009
	c0,2.614-1.601,5.515-4.35,5.515c-2.462,0-3.776-1.744-7.264-6.098c-3.037-3.771-3.734-4.494-10.136-11.462
	c-0.287-0.287-0.452-0.431-1.436-1.74C618.146,22.932,622.085,22.788,629.061,26.707 M649.498,26.998c0,3.189-2.175,5.22-4.637,5.22
	c-2.052,0-2.626-0.87-5.663-5.076c-1.436-1.884-6.238-7.686-13.05-12.188C639.649,14.232,649.498,19.887,649.498,26.998"/>
<path fill="#FF3F8C" d="M679.004,98.945V87.344c0-21.762,23.966-22.854,23.966-46.245c0-13.235-8.905-23.757-22.694-23.757
	c-9.603,0-21.216,5.987-21.216,16.686c1.477-0.361,2.914-0.726,5.089-0.726c5.786,0,9.439,3.808,9.439,9.25
	s-4.555,9.972-9.808,9.972c-8.864,0-12.311-6.71-12.311-15.052c0-15.955,17.769-26.293,32.255-26.293
	c17.236,0,36.277,8.339,36.277,28.287c0,15.598-20.478,28.106-30.655,38.267c-3.242,3.263-4.514,10.875-4.514,21.212H679.004
	 M693.531,126.51c0,6.529-4.719,10.518-10.506,10.518c-5.827,0-10.546-3.989-10.546-10.518c0-6.525,4.719-10.518,10.546-10.518
	C688.812,115.992,693.531,119.985,693.531,126.51"/>
</svg>
