<?xml version="1.0" encoding="utf-8"?>
<!-- Generator: Adobe Illustrator 27.2.0, SVG Export Plug-In . SVG Version: 6.00 Build 0)  -->
<svg version="1.1" id="레이어_1" xmlns="http://www.w3.org/2000/svg" xmlns:xlink="http://www.w3.org/1999/xlink" x="0px"
	 y="0px" viewBox="0 0 720 175.914" enable-background="new 0 0 720 175.914" xml:space="preserve">
<path d="M186.535,24.112L131.532,7.279v48.472l55.003,16.838V24.112z M131.532,175.914l82.811-48.057V79.385l-82.811,48.047V175.914
	z M661.026,88.027l-15.669,35.6H720v-35.6H661.026z M218.885,161.652h35.891l13.077-82.817h-35.616L218.885,161.652z
	 M320.927,78.835l13.045,82.817h35.891l-13.325-82.817H320.927z M467.939,35.789l11.833-24.667H362.201v44.631h61.275l-18.438,41.22
	l-30.379-17.587v48.472l82.828,48.057v-48.483l-24.829-14.403L467.939,35.789z M572.675,35.551l11.714-24.43h-95.705l-21.127,44.631
	h60.445l-47.546,105.835h34.754l10.712-23.493l9.613,23.493h35.611l-26.429-64.793L572.675,35.551z M686.986,11.121h-93.313
	l-21.397,44.631h58.349l-16.515,36.764l-38.434-22.679v48.472l21.213,12.511l-13.842,30.767h34.77l57.481-126.111L686.986,11.121z
	 M106.444,0H70.817l0.005,11.121H51.08V0H15.459v11.121H0v44.631h15.459v51.393H51.08V55.752h19.742l0.022,51.511l-24.479,54.346
	h35.627l24.452-54.346V55.752h16.289V11.121h-16.289V0z M354.803,33.445h-43.548V0h-35.627v11.121H232.07v44.631h43.558v105.997
	h35.627V55.752h43.548V33.445z M333.935,0h-15.874v27.668h15.874V0z M355.611,0h-15.89v27.668h15.89V0z"/>
<g>
</g>
<g>
</g>
<g>
</g>
<g>
</g>
<g>
</g>
<g>
</g>
<g>
</g>
<g>
</g>
<g>
</g>
<g>
</g>
<g>
</g>
<g>
</g>
<g>
</g>
<g>
</g>
<g>
</g>
</svg>
