<?xml version="1.0" encoding="utf-8"?>
<!-- Generator: Adobe Illustrator 27.0.1, SVG Export Plug-In . SVG Version: 6.00 Build 0)  -->
<svg version="1.1" id="레이어_1" xmlns="http://www.w3.org/2000/svg" xmlns:xlink="http://www.w3.org/1999/xlink" x="0px"
	 y="0px" viewBox="0 0 720 249.128" enable-background="new 0 0 720 249.128" xml:space="preserve">
<g>
	<defs>
		<path id="SVGID_1_" d="M147.009,236.562c0,2.322,1.106,3.76,4.41,5.142c2.655,1.106,3.94,1.839,3.94,3.47
			c0,1.423-1.092,2.543-2.917,2.543c-1.894,0-3.235-1.369-3.235-4.091c-1.369,0-2.668,0.608-2.668,2.212
			c0,1.52,1.299,3.291,5.516,3.291c3.913,0,6.414-2.129,6.414-5.157c0-2.322-1.272-3.691-4.493-5.004
			c-3.193-1.299-3.898-2.198-3.898-3.552c0-1.396,1.065-2.157,2.336-2.157c1.811,0,2.488,1.936,2.488,3.249
			c1.949,0,2.903-0.843,2.903-1.963c0-1.521-1.576-2.724-5.019-2.724C149.455,231.82,147.009,233.659,147.009,236.562"/>
	</defs>
	<clipPath id="SVGID_00000045613947560694566450000011672035518823952525_">
		<use xlink:href="#SVGID_1_"  overflow="visible"/>
	</clipPath>
	
		<linearGradient id="SVGID_00000168820704728133316130000010853929561968881539_" gradientUnits="userSpaceOnUse" x1="-150.8772" y1="685.134" x2="-137.0529" y2="685.134" gradientTransform="matrix(0 9.2992 9.2992 0 -6218.7148 1530.6266)">
		<stop  offset="0" style="stop-color:#30B8B9"/>
		<stop  offset="0.4665" style="stop-color:#78CECF"/>
		<stop  offset="1" style="stop-color:#C6E6E6"/>
	</linearGradient>
	
		<rect x="146.538" y="231.821" clip-path="url(#SVGID_00000045613947560694566450000011672035518823952525_)" fill="url(#SVGID_00000168820704728133316130000010853929561968881539_)" width="11.93" height="17.308"/>
</g>
<g>
	<defs>
		<path id="SVGID_00000123441754474703837710000005758123048490964403_" d="M194.965,237.916c0.359-1.078,0.843-2.433,1.134-3.4
			c0.235,1.105,0.65,2.46,0.995,3.525l1.245,3.87h-4.77L194.965,237.916z M195.325,232.041l-5.115,13.88
			c-0.567,1.41-1.05,1.714-1.894,1.714h-0.29v1.258h6.138v-1.258h-0.981c-0.554,0-1.065-0.304-1.065-0.912
			c0-0.374,0.152-0.968,0.277-1.355l0.691-2.018h5.723l0.815,2.364c0.097,0.262,0.235,0.635,0.235,1.009
			c0,0.663-0.553,0.912-1.023,0.912h-0.926v1.258h7.783v-1.258h-0.414c-0.761,0-1.327-0.373-1.812-1.687l-4.922-13.907H195.325z"/>
	</defs>
	<clipPath id="SVGID_00000042014683260441282320000012158478794514822548_">
		<use xlink:href="#SVGID_00000123441754474703837710000005758123048490964403_"  overflow="visible"/>
	</clipPath>
	
		<linearGradient id="SVGID_00000045603293210331821350000002139706262728066728_" gradientUnits="userSpaceOnUse" x1="-150.8771" y1="689.5586" x2="-137.0528" y2="689.5586" gradientTransform="matrix(0 9.2992 9.2992 0 -6215.4761 1530.6205)">
		<stop  offset="0" style="stop-color:#30B8B9"/>
		<stop  offset="0.4665" style="stop-color:#78CECF"/>
		<stop  offset="1" style="stop-color:#C6E6E6"/>
	</linearGradient>
	
		<rect x="188.025" y="232.042" clip-path="url(#SVGID_00000042014683260441282320000012158478794514822548_)" fill="url(#SVGID_00000045603293210331821350000002139706262728066728_)" width="17.668" height="16.852"/>
</g>
<g>
	<defs>
		<path id="SVGID_00000158000999028514326430000017159847885964445837_" d="M246.986,232.041v1.258h0.996
			c0.635,0,1.189,0.193,1.189,1.451v9.069l-8.322-11.778h-5.24v1.258h0.996c0.635,0,1.202,0.193,1.202,1.451v11.35
			c0,1.326-0.526,1.534-1.202,1.534h-0.996v1.258h6.165v-1.258h-0.981c-0.678,0-1.217-0.208-1.217-1.534v-10.203l9.194,12.995h2.184
			v-14.045c0-1.355,0.526-1.548,1.189-1.548h0.982v-1.258H246.986z"/>
	</defs>
	<clipPath id="SVGID_00000142869725194923949830000008524282420527943596_">
		<use xlink:href="#SVGID_00000158000999028514326430000017159847885964445837_"  overflow="visible"/>
	</clipPath>
	
		<linearGradient id="SVGID_00000106832908265250761390000002213541489444768386_" gradientUnits="userSpaceOnUse" x1="-150.8771" y1="694.2978" x2="-137.0528" y2="694.2978" gradientTransform="matrix(0 9.2992 9.2992 0 -6212.0396 1530.6205)">
		<stop  offset="0" style="stop-color:#30B8B9"/>
		<stop  offset="0.4665" style="stop-color:#78CECF"/>
		<stop  offset="1" style="stop-color:#C6E6E6"/>
	</linearGradient>
	
		<rect x="235.609" y="232.042" clip-path="url(#SVGID_00000142869725194923949830000008524282420527943596_)" fill="url(#SVGID_00000106832908265250761390000002213541489444768386_)" width="17.516" height="16.852"/>
</g>
<g>
	<defs>
		<path id="SVGID_00000044156154082193476790000009759273756236745860_" d="M289.178,233.438h1.258c2.101,0,2.917,0.926,2.917,3.318
			c0,2.295-0.691,3.47-2.862,3.47h-1.313V233.438z M283.247,232.041v1.258h0.982c0.65,0,1.216,0.193,1.216,1.451v11.474
			c0,1.245-0.566,1.41-1.216,1.41h-0.982v1.258h8.142v-1.258h-1.009c-0.65,0-1.202-0.165-1.202-1.41v-4.645h1.548l2.806,5.184
			c0.996,1.756,2.226,2.129,5.046,2.129h0.788v-1.258h-0.111c-0.885,0-1.548-0.581-2.364-1.921l-2.779-4.839
			c1.59-0.635,3.194-1.963,3.194-4.451c0-2.834-2.005-4.383-6.457-4.383H283.247z"/>
	</defs>
	<clipPath id="SVGID_00000182504012577528050240000000570270478156916653_">
		<use xlink:href="#SVGID_00000044156154082193476790000009759273756236745860_"  overflow="visible"/>
	</clipPath>
	
		<linearGradient id="SVGID_00000145775753971240423110000013933661517745645992_" gradientUnits="userSpaceOnUse" x1="-150.8771" y1="698.9805" x2="-137.0528" y2="698.9805" gradientTransform="matrix(0 9.2992 9.2992 0 -6208.6445 1530.6205)">
		<stop  offset="0" style="stop-color:#30B8B9"/>
		<stop  offset="0.4665" style="stop-color:#78CECF"/>
		<stop  offset="1" style="stop-color:#C6E6E6"/>
	</linearGradient>
	
		<rect x="283.246" y="232.042" clip-path="url(#SVGID_00000182504012577528050240000000570270478156916653_)" fill="url(#SVGID_00000145775753971240423110000013933661517745645992_)" width="16.12" height="16.852"/>
</g>
<g>
	<defs>
		<path id="SVGID_00000090991593982740513550000000694239036784590266_" d="M329.241,232.041v1.258h0.981
			c0.678,0,1.203,0.221,1.203,1.548v11.253c0,1.326-0.526,1.534-1.203,1.534h-0.981v1.258h8.115v-1.258h-0.981
			c-0.678,0-1.202-0.208-1.202-1.534v-11.253c0-1.327,0.525-1.548,1.202-1.548h0.981v-1.258H329.241z"/>
	</defs>
	<clipPath id="SVGID_00000037661573766270569910000014134618822076354970_">
		<use xlink:href="#SVGID_00000090991593982740513550000000694239036784590266_"  overflow="visible"/>
	</clipPath>
	
		<linearGradient id="SVGID_00000057139190990286675050000011437020853667822526_" gradientUnits="userSpaceOnUse" x1="-150.8771" y1="703.1695" x2="-137.0528" y2="703.1695" gradientTransform="matrix(0 9.2992 9.2992 0 -6205.6074 1530.6205)">
		<stop  offset="0" style="stop-color:#30B8B9"/>
		<stop  offset="0.4665" style="stop-color:#78CECF"/>
		<stop  offset="1" style="stop-color:#C6E6E6"/>
	</linearGradient>
	
		<rect x="329.241" y="232.042" clip-path="url(#SVGID_00000037661573766270569910000014134618822076354970_)" fill="url(#SVGID_00000057139190990286675050000011437020853667822526_)" width="8.115" height="16.852"/>
</g>
<g>
	<defs>
		<path id="SVGID_00000067915088495643249620000017916183307718093963_" d="M371.198,240.446c0-4.492,1.106-7.119,4.064-7.119
			c2.917,0,3.995,2.627,3.995,7.119c0,4.521-1.078,7.148-4.009,7.148C372.345,247.594,371.198,244.967,371.198,240.446
			 M367.244,240.419c0,5.239,2.613,8.709,8.005,8.709c5.115,0,7.963-3.47,7.963-8.682c0-5.239-2.848-8.654-7.949-8.654
			C369.885,231.792,367.244,235.207,367.244,240.419"/>
	</defs>
	<clipPath id="SVGID_00000116235221918237138290000015179377026301488256_">
		<use xlink:href="#SVGID_00000067915088495643249620000017916183307718093963_"  overflow="visible"/>
	</clipPath>
	
		<linearGradient id="SVGID_00000010998496662741879210000006687483027202655898_" gradientUnits="userSpaceOnUse" x1="-150.8772" y1="707.3524" x2="-137.0529" y2="707.3524" gradientTransform="matrix(0 9.2992 9.2992 0 -6202.5996 1530.6257)">
		<stop  offset="0" style="stop-color:#30B8B9"/>
		<stop  offset="0.4665" style="stop-color:#78CECF"/>
		<stop  offset="1" style="stop-color:#C6E6E6"/>
	</linearGradient>
	
		<rect x="367.244" y="231.792" clip-path="url(#SVGID_00000116235221918237138290000015179377026301488256_)" fill="url(#SVGID_00000010998496662741879210000006687483027202655898_)" width="15.968" height="17.337"/>
</g>
<g>
	<defs>
		<path id="SVGID_00000114763351368814681490000005926179270277065629_" d="M475.047,240.446c0-4.492,1.106-7.119,4.05-7.119
			c2.931,0,3.982,2.627,3.982,7.119c0,4.521-1.051,7.148-4.009,7.148C476.18,247.594,475.047,244.967,475.047,240.446
			 M471.093,240.419c0,5.239,2.599,8.709,7.977,8.709c5.115,0,7.963-3.47,7.963-8.682c0-5.239-2.848-8.654-7.936-8.654
			C473.706,231.792,471.093,235.207,471.093,240.419"/>
	</defs>
	<clipPath id="SVGID_00000127042244759491627260000005840299752233080209_">
		<use xlink:href="#SVGID_00000114763351368814681490000005926179270277065629_"  overflow="visible"/>
	</clipPath>
	
		<linearGradient id="SVGID_00000092451513056658139910000006181245312154848155_" gradientUnits="userSpaceOnUse" x1="-150.8772" y1="717.7105" x2="-137.0529" y2="717.7105" gradientTransform="matrix(0 9.2992 9.2992 0 -6195.0884 1530.6257)">
		<stop  offset="0" style="stop-color:#30B8B9"/>
		<stop  offset="0.4665" style="stop-color:#78CECF"/>
		<stop  offset="1" style="stop-color:#C6E6E6"/>
	</linearGradient>
	
		<rect x="471.092" y="231.792" clip-path="url(#SVGID_00000127042244759491627260000005840299752233080209_)" fill="url(#SVGID_00000092451513056658139910000006181245312154848155_)" width="15.94" height="17.337"/>
</g>
<g>
	<defs>
		<path id="SVGID_00000056425154167006541200000015606535345163657624_" d="M526.182,232.041v1.258h0.526
			c1.078,0,1.576,0.359,1.576,1.148c0,0.277-0.084,0.747-0.401,1.423l-1.369,2.834c-0.526,1.065-0.941,2.046-1.286,2.876
			c-0.262-0.719-0.526-1.451-1.037-2.447l-1.742-3.47c-0.194-0.402-0.346-0.899-0.346-1.299c0-0.651,0.442-1.065,1.41-1.065h0.415
			v-1.258h-7.921v1.258h0.318c0.912,0,1.189,0.332,1.672,1.245l4.355,8.391v3.262c0,1.355-0.608,1.438-1.369,1.438h-1.106v1.258
			h8.696v-1.258h-1.134c-0.732,0-1.341-0.083-1.341-1.451v-3.235l4.023-7.811c0.719-1.479,0.981-1.839,1.797-1.839h0.442v-1.258
			H526.182z"/>
	</defs>
	<clipPath id="SVGID_00000112614910397166660490000015291268694040497294_">
		<use xlink:href="#SVGID_00000056425154167006541200000015606535345163657624_"  overflow="visible"/>
	</clipPath>
	
		<linearGradient id="SVGID_00000179611637603673410870000003736981798745659052_" gradientUnits="userSpaceOnUse" x1="-150.8771" y1="722.2117" x2="-137.0528" y2="722.2117" gradientTransform="matrix(0 9.2992 9.2992 0 -6191.7988 1530.6205)">
		<stop  offset="0" style="stop-color:#30B8B9"/>
		<stop  offset="0.4665" style="stop-color:#78CECF"/>
		<stop  offset="1" style="stop-color:#C6E6E6"/>
	</linearGradient>
	
		<rect x="516.007" y="232.042" clip-path="url(#SVGID_00000112614910397166660490000015291268694040497294_)" fill="url(#SVGID_00000179611637603673410870000003736981798745659052_)" width="16.354" height="16.852"/>
</g>
<g>
	<defs>
		<path id="SVGID_00000151523992550563270370000015013090785932371856_" d="M562.016,236.562c0,2.322,1.105,3.76,4.382,5.142
			c2.654,1.106,3.954,1.839,3.954,3.47c0,1.423-1.092,2.543-2.93,2.543c-1.88,0-3.235-1.369-3.235-4.091
			c-1.355,0-2.654,0.608-2.654,2.212c0,1.52,1.299,3.291,5.516,3.291c3.926,0,6.429-2.129,6.429-5.157
			c0-2.322-1.286-3.691-4.521-5.004c-3.179-1.299-3.885-2.198-3.885-3.552c0-1.396,1.065-2.157,2.336-2.157
			c1.812,0,2.489,1.936,2.489,3.249c1.949,0,2.917-0.843,2.917-1.963c0-1.521-1.576-2.724-5.032-2.724
			C564.448,231.82,562.016,233.659,562.016,236.562"/>
	</defs>
	<clipPath id="SVGID_00000178903618182444031690000008737225924735358354_">
		<use xlink:href="#SVGID_00000151523992550563270370000015013090785932371856_"  overflow="visible"/>
	</clipPath>
	
		<linearGradient id="SVGID_00000006695198390659631740000009843537907317235336_" gradientUnits="userSpaceOnUse" x1="-150.8772" y1="726.5333" x2="-137.0529" y2="726.5333" gradientTransform="matrix(0 9.2992 9.2992 0 -6188.6958 1530.6266)">
		<stop  offset="0" style="stop-color:#30B8B9"/>
		<stop  offset="0.4665" style="stop-color:#78CECF"/>
		<stop  offset="1" style="stop-color:#C6E6E6"/>
	</linearGradient>
	
		<rect x="561.531" y="231.821" clip-path="url(#SVGID_00000178903618182444031690000008737225924735358354_)" fill="url(#SVGID_00000006695198390659631740000009843537907317235336_)" width="11.944" height="17.308"/>
</g>
<g>
	<defs>
		<path id="SVGID_00000006665598662832344320000003626166272659938965_" d="M432.136,240.792h1.603c2.171,0,2.862,1.092,2.862,3.415
			c0,2.378-0.816,3.249-2.903,3.249h-1.562V240.792z M432.136,233.493h0.857c2.129,0,2.889,0.705,2.889,2.848
			c0,2.157-0.65,3.028-2.848,3.028h-0.899V233.493z M426.219,232.041v1.258h0.967c0.678,0,1.231,0.262,1.231,1.52v11.281
			c0,1.326-0.553,1.534-1.231,1.534h-0.967v1.258h7.603c4.465,0,6.732-1.507,6.732-4.631c0-2.266-1.507-3.663-3.677-4.216v-0.111
			c1.783-0.553,2.972-1.52,2.972-3.594c0-2.93-2.253-4.299-6.746-4.299H426.219z"/>
	</defs>
	<clipPath id="SVGID_00000042715346624817770970000014823671908184042902_">
		<use xlink:href="#SVGID_00000006665598662832344320000003626166272659938965_"  overflow="visible"/>
	</clipPath>
	
		<linearGradient id="SVGID_00000167382357193552771390000013955977511085801134_" gradientUnits="userSpaceOnUse" x1="-150.8771" y1="713.1541" x2="-137.0528" y2="713.1541" gradientTransform="matrix(0 9.2992 9.2992 0 -6198.3667 1530.6205)">
		<stop  offset="0" style="stop-color:#30B8B9"/>
		<stop  offset="0.4665" style="stop-color:#78CECF"/>
		<stop  offset="1" style="stop-color:#C6E6E6"/>
	</linearGradient>
	
		<rect x="426.219" y="232.042" clip-path="url(#SVGID_00000042715346624817770970000014823671908184042902_)" fill="url(#SVGID_00000167382357193552771390000013955977511085801134_)" width="14.336" height="16.852"/>
</g>
<g>
	<defs>
		<path id="SVGID_00000023970731255780728650000005475208024998324642_" d="M296.062,42.468v5.931h4.714
			c3.428,0,5.723,1.161,5.723,6.843v89.306c0,18.123-9.884,20.072-14.128,20.072h-2.033v6.511h4.037
			c18.235,0,42.469-2.765,42.469-26.694V55.698c0-6.055,2.226-7.299,5.834-7.299h4.714v-5.931H296.062z"/>
	</defs>
	<clipPath id="SVGID_00000146458024259396068280000002664262072185608879_">
		<use xlink:href="#SVGID_00000023970731255780728650000005475208024998324642_"  overflow="visible"/>
	</clipPath>
	
		<linearGradient id="SVGID_00000001659165280422277510000009348277217334974649_" gradientUnits="userSpaceOnUse" x1="-164.3848" y1="721.5803" x2="-150.5605" y2="721.5803" gradientTransform="matrix(0 20.1473 20.1473 0 -14219.0195 3187.8904)">
		<stop  offset="0" style="stop-color:#30B8B9"/>
		<stop  offset="1" style="stop-color:#C6E6E6"/>
	</linearGradient>
	
		<rect x="290.338" y="42.468" clip-path="url(#SVGID_00000146458024259396068280000002664262072185608879_)" fill="url(#SVGID_00000001659165280422277510000009348277217334974649_)" width="57.053" height="128.663"/>
</g>
<g>
	<defs>
		<path id="SVGID_00000036955302502117906970000002765952313715231407_" d="M253.069,42.468v5.931h4.701
			c3.414,0,5.709,1.245,5.709,7.272V91.13c0,6.041-2.295,7.272-5.709,7.272h-4.701v5.958h35.003v-5.958h-4.7
			c-3.429,0-5.71-1.23-5.71-7.272V55.67c0-6.027,2.281-7.272,5.71-7.272h4.7v-5.931H253.069z"/>
	</defs>
	<clipPath id="SVGID_00000165952585994629180860000001959598563180686526_">
		<use xlink:href="#SVGID_00000036955302502117906970000002765952313715231407_"  overflow="visible"/>
	</clipPath>
	
		<linearGradient id="SVGID_00000029030895334201159130000011219312413644779428_" gradientUnits="userSpaceOnUse" x1="-164.3849" y1="719.3566" x2="-150.5605" y2="719.3566" gradientTransform="matrix(0 20.1472 20.1472 0 -14222.4854 3187.8843)">
		<stop  offset="0" style="stop-color:#30B8B9"/>
		<stop  offset="1" style="stop-color:#C6E6E6"/>
	</linearGradient>
	
		<rect x="253.068" y="42.469" clip-path="url(#SVGID_00000165952585994629180860000001959598563180686526_)" fill="url(#SVGID_00000029030895334201159130000011219312413644779428_)" width="35.004" height="61.891"/>
</g>
<g>
	<defs>
		<path id="SVGID_00000042711508280844219760000013318661334440006037_" d="M199.721,87.466v5.323h4.203
			c3.083,0,5.128,1.023,5.128,6.124v79.905c0,16.229-8.847,17.971-12.649,17.971h-33.289v5.834H198.2
			c16.326,0,38.017-2.475,38.017-23.902V99.3c0-5.433,1.99-6.511,5.225-6.511h4.203v-5.323H199.721z"/>
	</defs>
	<clipPath id="SVGID_00000104694108853438380970000015456072647622192518_">
		<use xlink:href="#SVGID_00000042711508280844219760000013318661334440006037_"  overflow="visible"/>
	</clipPath>
	
		<linearGradient id="SVGID_00000183226383598836609760000015041062321729209267_" gradientUnits="userSpaceOnUse" x1="-164.3849" y1="716.3088" x2="-150.5605" y2="716.3088" gradientTransform="matrix(0 20.1472 20.1472 0 -14227.2676 3187.8833)">
		<stop  offset="0" style="stop-color:#30B8B9"/>
		<stop  offset="1" style="stop-color:#C6E6E6"/>
	</linearGradient>
	
		<rect x="163.113" y="87.466" clip-path="url(#SVGID_00000104694108853438380970000015456072647622192518_)" fill="url(#SVGID_00000183226383598836609760000015041062321729209267_)" width="82.532" height="115.158"/>
</g>
<g>
	<defs>
		<path id="SVGID_00000159459738609444601180000013747679584512758408_" d="M157.611,114.963c-0.276,8.004,6,14.751,14.004,15.041
			l0.526,0.014c4.658,0,8.93-2.142,11.668-5.903c0.235-0.304,0.567-0.456,0.926-0.456c0.083,0,0.18,0,0.277,0.014
			c0.442,0.111,0.774,0.498,0.843,0.953c0.429,2.834,0.18,5.862-0.138,8.958c1.479,0.636,2.239,0.94,2.295,0.981h0.013
			c5.392-18.58-1.908-30.096-10.962-32.929c-1.438-0.443-2.917-0.678-4.424-0.678C164.648,100.959,157.888,107.249,157.611,114.963"
			/>
	</defs>
	<clipPath id="SVGID_00000017483147883934396060000017723568850016828344_">
		<use xlink:href="#SVGID_00000159459738609444601180000013747679584512758408_"  overflow="visible"/>
	</clipPath>
	
		<linearGradient id="SVGID_00000059272577272830940110000009851680503251404203_" gradientUnits="userSpaceOnUse" x1="-164.3849" y1="714.9793" x2="-150.5605" y2="714.9793" gradientTransform="matrix(0 20.1472 20.1472 0 -14229.458 3187.8777)">
		<stop  offset="0" style="stop-color:#30B8B9"/>
		<stop  offset="1" style="stop-color:#C6E6E6"/>
	</linearGradient>
	
		<rect x="157.335" y="100.959" clip-path="url(#SVGID_00000017483147883934396060000017723568850016828344_)" fill="url(#SVGID_00000059272577272830940110000009851680503251404203_)" width="36.081" height="33.607"/>
</g>
<g>
	<defs>
		<path id="SVGID_00000160189001717731780970000002713314957177915548_" d="M642.542,125.884v5.875h4.673
			c3.401,0,5.641,1.162,5.641,6.775v10.977c0,0.691-0.553,1.272-1.258,1.272h-32.446v10.451h32.446c0.705,0,1.258,0.554,1.258,1.258
			v13.852c0,17.917-9.746,19.851-13.949,19.851h-1.99v6.429h3.982c18.013,0,41.957-2.752,41.957-26.377v-37.27
			c0-6,2.212-7.217,5.751-7.217h4.673v-5.875H642.542z"/>
	</defs>
	<clipPath id="SVGID_00000161631430784064724630000003018500683374909345_">
		<use xlink:href="#SVGID_00000160189001717731780970000002713314957177915548_"  overflow="visible"/>
	</clipPath>
	
		<linearGradient id="SVGID_00000072262186039251592530000016164211675935646897_" gradientUnits="userSpaceOnUse" x1="-164.3848" y1="737.1133" x2="-150.5605" y2="737.1133" gradientTransform="matrix(0 20.1472 20.1472 0 -14194.584 3187.8833)">
		<stop  offset="0" style="stop-color:#30B8B9"/>
		<stop  offset="1" style="stop-color:#C6E6E6"/>
	</linearGradient>
	
		<rect x="619.152" y="125.884" clip-path="url(#SVGID_00000161631430784064724630000003018500683374909345_)" fill="url(#SVGID_00000072262186039251592530000016164211675935646897_)" width="74.126" height="76.739"/>
</g>
<g>
	<defs>
		<rect id="SVGID_00000052072977835876517860000002517903758979412653_" x="691.425" y="150.782" width="23.764" height="10.451"/>
	</defs>
	<clipPath id="SVGID_00000088842483736643821080000008779363843978557880_">
		<use xlink:href="#SVGID_00000052072977835876517860000002517903758979412653_"  overflow="visible"/>
	</clipPath>
	
		<linearGradient id="SVGID_00000163042733773357947450000002730718879125159553_" gradientUnits="userSpaceOnUse" x1="-164.3849" y1="739.2816" x2="-150.5605" y2="739.2816" gradientTransform="matrix(0 20.1473 20.1473 0 -14191.2432 3187.897)">
		<stop  offset="0" style="stop-color:#30B8B9"/>
		<stop  offset="1" style="stop-color:#C6E6E6"/>
	</linearGradient>
	
		<rect x="691.424" y="150.783" clip-path="url(#SVGID_00000088842483736643821080000008779363843978557880_)" fill="url(#SVGID_00000163042733773357947450000002730718879125159553_)" width="23.763" height="10.451"/>
</g>
<g>
	<defs>
		<path id="SVGID_00000106129324408283288970000011958675360636300691_" d="M619.152,75.093v30.967h75.121
			c0.705,0,1.258,0.566,1.258,1.258v6.331c0,0.941-0.069,1.632-0.235,2.171c-0.138,0.511-0.415,1.12-1.203,1.631
			c-0.111,0.083-0.221,0.125-0.359,0.152c-0.332,0.097-0.746,0.152-1.189,0.152h-1.299v3.319H720v-3.319h-1.314
			c-0.483,0-0.912-0.096-1.382-0.276c-0.622-0.18-1.05-0.705-1.299-1.548c-0.111-0.305-0.166-0.719-0.193-1.355v-8.253
			c0-0.083,0.013-0.18,0.013-0.262V75.093H619.152z"/>
	</defs>
	<clipPath id="SVGID_00000170269764615760096200000009948206977879879324_">
		<use xlink:href="#SVGID_00000106129324408283288970000011958675360636300691_"  overflow="visible"/>
	</clipPath>
	
		<linearGradient id="SVGID_00000076568625191487707130000009405816116755848850_" gradientUnits="userSpaceOnUse" x1="-164.3849" y1="737.7285" x2="-150.5605" y2="737.7285" gradientTransform="matrix(0 20.1472 20.1472 0 -14193.6035 3187.8801)">
		<stop  offset="0" style="stop-color:#30B8B9"/>
		<stop  offset="1" style="stop-color:#C6E6E6"/>
	</linearGradient>
	
		<rect x="619.152" y="75.094" clip-path="url(#SVGID_00000170269764615760096200000009948206977879879324_)" fill="url(#SVGID_00000076568625191487707130000009405816116755848850_)" width="100.848" height="45.98"/>
</g>
<g>
	<defs>
		<path id="SVGID_00000062170454484763180830000007633390932019559808_" d="M407.514,60.896v5.931h4.701
			c3.414,0,5.709,1.23,5.709,7.272v4.907c0,0.705-0.581,1.272-1.286,1.272h-64.67v31.34h55.533c0.483,0,0.912,0.277,1.133,0.705
			c0.235,0.414,0.18,0.94-0.097,1.326l-35.666,49.491c-1.908,2.806-3.636,4.106-5.433,4.106c-1.023,0-2.06-0.401-3.387-1.285
			l-3.885-2.654l-4.286,6.304c0.083,0.083,8.322,7.465,15.58,7.465c3.138,0,5.654-1.354,7.478-4.064l36.648-50.97
			c0.249-0.359,0.636-0.539,1.05-0.539c0.125,0,0.249,0.027,0.387,0.055c0.526,0.166,0.899,0.664,0.899,1.23v53.515
			c0,6.041-2.295,7.285-5.709,7.285h-4.701v5.917h35.003v-5.917h-4.7c-3.443,0-5.71-1.244-5.71-7.285v-63.413
			c0-0.691,0.567-1.272,1.272-1.272h23.197v-31.34H433.38c-0.705,0-1.272-0.566-1.272-1.272v-4.907c0-6.041,2.267-7.272,5.71-7.272
			h4.7v-5.931H407.514z"/>
	</defs>
	<clipPath id="SVGID_00000067219292219736285540000011507371668101918616_">
		<use xlink:href="#SVGID_00000062170454484763180830000007633390932019559808_"  overflow="visible"/>
	</clipPath>
	
		<linearGradient id="SVGID_00000069396730371644725980000012230600537565651899_" gradientUnits="userSpaceOnUse" x1="-164.3849" y1="725.5128" x2="-150.5605" y2="725.5128" gradientTransform="matrix(0 20.1472 20.1472 0 -14212.7812 3187.8777)">
		<stop  offset="0" style="stop-color:#30B8B9"/>
		<stop  offset="1" style="stop-color:#C6E6E6"/>
	</linearGradient>
	
		<rect x="351.967" y="60.896" clip-path="url(#SVGID_00000067219292219736285540000011507371668101918616_)" fill="url(#SVGID_00000069396730371644725980000012230600537565651899_)" width="104.61" height="128.608"/>
</g>
<g>
	<defs>
		<path id="SVGID_00000122697983927129767750000004015700472890656152_" d="M86.126,12.054v8.378h6.65
			c4.838,0,8.073,1.631,8.073,9.636v7.506c0,0.996-0.802,1.797-1.812,1.797H63.911c-0.996,0-1.797-0.802-1.797-1.797v-6.912
			c0-8.502,3.221-10.258,8.032-10.258h6.635v-8.35H27.428v8.35h6.636c4.825,0,8.045,1.756,8.045,10.258v6.912
			c0,0.996-0.802,1.797-1.811,1.797H0V83.54h40.533c0.982,0,1.797,0.816,1.797,1.797v28.617c0,10.009,9.691,15.234,19.257,15.234
			c7.175,0,11.986-1.507,13.7-2.406v-6.262c-2.475,0.581-4.714,0.871-6.843,0.871c-4.48,0-6.387-2.515-6.387-8.391V85.337
			c0-0.981,0.816-1.797,1.812-1.797h35.168c1.009,0,1.812,0.816,1.812,1.797v70.573c0,6.193,0,19.023-4.231,25.506
			c-2.073,3.207-6.193,5.433-9.994,5.433c-1.673,0-3.194-0.429-4.48-1.272c-5.336-3.511-3.11-8.585-0.899-13.548
			c0.65-1.451,1.314-2.972,1.7-4.34c1.645-5.903-0.317-12.608-4.907-16.714c-2.986-2.668-6.843-4.147-10.838-4.147
			c-3.138,0-6.193,0.912-8.848,2.613c-0.746,0.483-1.451,1.036-2.212,1.714c-0.539,0.443-1.078,0.913-1.562,1.424
			c-5.53,5.737-6.816,15.649-3.042,23.584c7.23,15.165,26.999,17.432,38.127,17.432c1.383,0,2.752-0.041,4.064-0.111
			c9.373-0.414,18.193-2.074,26.197-4.894c5.391-1.893,9.953-4.493,13.589-7.742c8.35-7.479,10.092-17.75,10.092-25.078V85.337
			c0-0.981,0.816-1.797,1.825-1.797h22.354V39.371h-22.354c-1.009,0-1.825-0.802-1.825-1.797v-6.871
			c0-8.557,3.152-10.271,8.226-10.271h6.65v-8.378H86.126z"/>
	</defs>
	<clipPath id="SVGID_00000003097341012864295940000010273760091212100766_">
		<use xlink:href="#SVGID_00000122697983927129767750000004015700472890656152_"  overflow="visible"/>
	</clipPath>
	
		<linearGradient id="SVGID_00000122684626633602237090000006167894624438247072_" gradientUnits="userSpaceOnUse" x1="-164.3849" y1="710.7612" x2="-150.5605" y2="710.7612" gradientTransform="matrix(0 20.1472 20.1472 0 -14235.9863 3187.8838)">
		<stop  offset="0" style="stop-color:#30B8B9"/>
		<stop  offset="1" style="stop-color:#C6E6E6"/>
	</linearGradient>
	
		<rect y="12.055" clip-path="url(#SVGID_00000003097341012864295940000010273760091212100766_)" fill="url(#SVGID_00000122684626633602237090000006167894624438247072_)" width="167.786" height="181.541"/>
</g>
<g>
	<defs>
		<path id="SVGID_00000053538077953973924200000002156993462893910167_" d="M501.617,127.183v3.913h2.696
			c0.414,0,0.829,0.041,1.299,0.166c0.387,0.124,0.719,0.332,0.996,0.622c0.317,0.304,0.553,0.774,0.719,1.369
			c0.165,0.567,0.262,1.369,0.262,2.35l0.041,5.807c0,0.428-0.166,0.829-0.47,1.147c-0.305,0.29-0.705,0.47-1.134,0.47h-17.944v13.3
			h18.013c0.443,0,0.844,0.18,1.148,0.483c0.29,0.305,0.47,0.719,0.47,1.148l-0.027,0.705c-0.084,8.792-0.194,18.745-9.359,18.745
			l0.096,4.714h2.323c0.884,0,3.166,0.028,3.166,0.028c1.12,0,2.309,0.014,3.552,0.014c8.53,0,28.465,0,30.884-13.645
			c0.899-5.157,0.844-11.171,0.802-16.479l-0.013-3.055l-0.013-13.092c0-1.036,0.096-1.893,0.262-2.53
			c0.166-0.567,0.47-1.299,1.258-1.852c0.152-0.125,0.318-0.208,0.498-0.249c0.401-0.125,0.871-0.166,1.313-0.166h2.696v-3.913
			H501.617z"/>
	</defs>
	<clipPath id="SVGID_00000135663154743024270940000006990861116687158196_">
		<use xlink:href="#SVGID_00000053538077953973924200000002156993462893910167_"  overflow="visible"/>
	</clipPath>
	
		<linearGradient id="SVGID_00000126295117358613132720000011391317183726352560_" gradientUnits="userSpaceOnUse" x1="-164.3849" y1="730.6855" x2="-150.5605" y2="730.6855" gradientTransform="matrix(0 20.1472 20.1472 0 -14204.6494 3187.8765)">
		<stop  offset="0" style="stop-color:#30B8B9"/>
		<stop  offset="1" style="stop-color:#C6E6E6"/>
	</linearGradient>
	
		<rect x="488.082" y="127.184" clip-path="url(#SVGID_00000135663154743024270940000006990861116687158196_)" fill="url(#SVGID_00000126295117358613132720000011391317183726352560_)" width="57.068" height="54.98"/>
</g>
<g>
	<defs>
		<path id="SVGID_00000022560594827685511590000011027695608253686674_" d="M548.8,143.026v13.3h8.225
			c0.429,0,0.843,0.18,1.148,0.47c0.29,0.318,0.456,0.719,0.456,1.148v0.76c0,0.152-0.028,0.29-0.069,0.442v16.534
			c0,0.996-0.125,1.548-0.194,1.812l-0.083,0.249c-0.083,0.207-0.18,0.359-0.29,0.497c-0.208,0.402-0.567,0.664-1.009,0.788
			c-0.29,0.056-0.622,0.111-0.968,0.111h-1.12v2.779h32.238v-2.779h-1.12c-0.332,0-0.76-0.055-1.327-0.304
			c-0.373-0.18-0.677-0.47-0.829-0.857l-0.083-0.193c-0.041-0.083-0.083-0.166-0.097-0.249c-0.083-0.221-0.138-0.429-0.138-0.678
			v-20.225c0-0.111,0-0.207,0.027-0.304v-13.3H548.8z"/>
	</defs>
	<clipPath id="SVGID_00000052066825938878528900000005457853683896695199_">
		<use xlink:href="#SVGID_00000022560594827685511590000011027695608253686674_"  overflow="visible"/>
	</clipPath>
	
		<linearGradient id="SVGID_00000098913104173558296120000006828528278044688823_" gradientUnits="userSpaceOnUse" x1="-164.3849" y1="733.05" x2="-150.5605" y2="733.05" gradientTransform="matrix(0 20.1473 20.1473 0 -14200.9854 3187.887)">
		<stop  offset="0" style="stop-color:#30B8B9"/>
		<stop  offset="1" style="stop-color:#C6E6E6"/>
	</linearGradient>
	
		<rect x="548.8" y="143.026" clip-path="url(#SVGID_00000052066825938878528900000005457853683896695199_)" fill="url(#SVGID_00000098913104173558296120000006828528278044688823_)" width="38.334" height="38.889"/>
</g>
<g>
	<defs>
		<path id="SVGID_00000142876746577127419980000009145054475380473760_" d="M489.977,59.707c0-20.834,21.358-37.796,47.624-37.796
			c26.267,0,47.625,16.962,47.625,37.796c0,20.847-21.358,37.796-47.625,37.796C511.335,97.503,489.977,80.554,489.977,59.707
			 M462.37,59.707c0,32.93,33.731,59.708,75.231,59.708c41.487,0,75.232-26.778,75.232-59.708C612.833,26.791,579.089,0,537.601,0
			C496.101,0,462.37,26.791,462.37,59.707"/>
	</defs>
	<clipPath id="SVGID_00000040569641042739021620000016181795396053053074_">
		<use xlink:href="#SVGID_00000142876746577127419980000009145054475380473760_"  overflow="visible"/>
	</clipPath>
	
		<linearGradient id="SVGID_00000118395604093438472200000014422175526096340609_" gradientUnits="userSpaceOnUse" x1="-164.3849" y1="731.6519" x2="-150.5605" y2="731.6519" gradientTransform="matrix(0 20.1472 20.1472 0 -14203.1641 3187.8833)">
		<stop  offset="0" style="stop-color:#30B8B9"/>
		<stop  offset="1" style="stop-color:#C6E6E6"/>
	</linearGradient>
	
		<rect x="462.37" y="0.001" clip-path="url(#SVGID_00000040569641042739021620000016181795396053053074_)" fill="url(#SVGID_00000118395604093438472200000014422175526096340609_)" width="150.463" height="119.415"/>
</g>
<path fill="#DACFB2" d="M664.987,43.057l-9.304-6.068l-0.249-11.101c-0.041-1.245-1.687-2.018-2.668-1.245l-8.654,6.954
	l-10.632-3.194c-0.581-0.165-1.244,0-1.659,0.471c-0.429,0.456-0.553,1.105-0.332,1.686l3.94,10.383l-6.318,9.138
	c-0.346,0.497-0.373,1.175-0.083,1.714c0.304,0.554,0.884,0.871,1.507,0.829l11.101-0.539l6.732,8.834
	c0.166,0.221,0.373,0.373,0.608,0.483c0.304,0.152,0.663,0.193,1.009,0.125c0.608-0.125,1.092-0.567,1.258-1.175l2.903-10.7
	l10.48-3.691c0.594-0.208,1.009-0.732,1.078-1.341C665.789,43.998,665.498,43.389,664.987,43.057"/>
<path fill="#DACFB2" d="M249.636,27.708l2.764-6.787l7.175-1.576c0.787-0.18,1.078-1.354,0.456-1.88l-5.598-4.742l0.719-7.299
	c0.041-0.414-0.153-0.815-0.511-1.036c-0.346-0.208-0.775-0.208-1.134,0l-6.235,3.885l-6.719-2.945
	c-0.387-0.166-0.815-0.111-1.133,0.165c-0.318,0.263-0.443,0.678-0.359,1.078l1.756,7.12l-4.867,5.502
	c-0.124,0.138-0.207,0.277-0.249,0.456c-0.055,0.221-0.041,0.442,0.056,0.663c0.152,0.373,0.498,0.65,0.926,0.678l7.313,0.525
	l3.705,6.332c0.208,0.359,0.594,0.567,1.009,0.539C249.124,28.344,249.47,28.082,249.636,27.708"/>
<path fill="#DACFB2" d="M225.526,58.138l-5.502-11.322l6.207-10.949c0.691-1.23-0.47-2.945-1.866-2.765l-12.469,1.728l-8.502-9.276
	c-0.47-0.539-1.189-0.732-1.866-0.539c-0.678,0.194-1.189,0.761-1.314,1.466l-2.212,12.387l-11.447,5.198
	c-0.65,0.304-1.065,0.926-1.092,1.631c-0.028,0.705,0.345,1.355,0.981,1.7l11.115,5.917l1.396,12.525
	c0.028,0.305,0.153,0.581,0.318,0.816c0.208,0.332,0.526,0.581,0.899,0.705c0.664,0.249,1.41,0.096,1.908-0.402l9.069-8.723
	l12.332,2.516c0.691,0.138,1.396-0.111,1.824-0.663C225.747,59.52,225.816,58.76,225.526,58.138"/>
<path fill="#E7D570" d="M537.356,81.507c-0.415,0-0.83-0.138-1.175-0.386c-0.608-0.443-0.912-1.203-0.802-1.936l2.17-12.511
	c0.083-0.511-0.083-1.05-0.484-1.423l-9.082-8.848c-0.539-0.525-0.719-1.327-0.498-2.046c0.235-0.719,0.872-1.258,1.604-1.369
	l12.566-1.811c0.526-0.069,0.968-0.415,1.202-0.885l5.627-11.363c0.304-0.636,0.981-1.023,1.783-1.023
	c0.788,0,1.466,0.387,1.769,1.023l5.627,11.363c0.221,0.47,0.691,0.816,1.216,0.885l12.553,1.811
	c0.747,0.111,1.369,0.65,1.604,1.369c0.235,0.705,0.027,1.521-0.512,2.046l-9.082,8.848c-0.387,0.373-0.539,0.912-0.456,1.423
	l2.143,12.511c0.138,0.732-0.18,1.493-0.788,1.936c-0.332,0.249-0.747,0.386-1.175,0.386c-0.317,0-0.65-0.083-0.912-0.235
	L551,75.369c-0.222-0.124-0.484-0.193-0.733-0.193c-0.262,0-0.525,0.069-0.747,0.193l-11.253,5.903
	C537.991,81.424,537.673,81.507,537.356,81.507"/>
</svg>
