<?xml version="1.0" encoding="utf-8"?>
<!-- Generator: Adobe Illustrator 27.0.1, SVG Export Plug-In . SVG Version: 6.00 Build 0)  -->
<svg version="1.1" id="레이어_1" xmlns="http://www.w3.org/2000/svg" xmlns:xlink="http://www.w3.org/1999/xlink" x="0px"
	 y="0px" viewBox="0 0 720 175.325" enable-background="new 0 0 720 175.325" xml:space="preserve">
<path fill="#27AEE6" d="M172.297,23.761c0,10.21-8.844,18.565-19.645,18.565H22.2c-10.808,0-19.648-8.354-19.648-18.565
	c0-10.211,8.841-18.565,19.648-18.565h130.452C163.453,5.197,172.297,13.551,172.297,23.761 M165.617,88.595
	c0,10.318-8.841,18.759-19.645,18.759H28.883c-10.805,0-19.648-8.44-19.648-18.759c0-10.321,8.844-18.765,19.648-18.765h117.089
	C156.777,69.83,165.617,78.274,165.617,88.595 M174.852,152.477c0,10.324-8.841,18.765-19.645,18.765H19.645
	C8.841,171.242,0,162.801,0,152.477c0-10.318,8.841-18.759,19.645-18.759h135.562C166.012,133.718,174.852,142.159,174.852,152.477"
	/>
<path fill="#3BB898" d="M272.588,44.382c-3.211,1.635-6.055,2.974-6.326,2.974c-0.271,0-0.493-2.207-0.493-4.907
	c0-2.7,2.946-4.91,6.55-4.91h7.138c3.602,0,3.922,1.339,0.717,2.974L272.588,44.382z M355.162,53.906c0-3.602-2.949-6.55-6.55-6.55
	H338.33c-3.602,0-3.934-1.367-0.748-3.041l8.634-4.528c3.189-1.671,5.799-5.99,5.799-9.592V10.278c0-3.605-2.623-5.211-5.833-3.571
	l-26.836,13.698c-3.208,1.638-5.833,0.031-5.833-3.571v-3.414c0-3.602-2.946-6.547-6.547-6.547H272.32
	c-3.605,0-6.55-1.548-6.55-3.438c0-1.893-2.946-3.435-6.547-3.435h-24.429c-3.598,0-6.544,1.542-6.544,3.438
	c0,1.89-2.949,3.438-6.55,3.438h-31.102c-3.605,0-6.55,2.946-6.55,6.551v17.561c0,3.605,2.946,6.55,6.55,6.55h31.102
	c3.602,0,6.55,2.21,6.55,4.91c0,2.7-2.949,4.907-6.55,4.907h-35.427c-3.602,0-6.55,2.949-6.55,6.55v17.801
	c0,3.602,2.949,6.547,6.55,6.547h13.427c3.602,0,3.925,1.342,0.717,2.98l-14.862,7.588c-3.204,1.641-5.833,5.926-5.833,9.527v22.04
	c0,3.602,2.598,5.153,5.769,3.444l1.237-0.665c3.171-1.705,5.766-0.157,5.766,3.444v40.103c0,3.602,2.946,6.544,6.547,6.544h140.927
	c3.602,0,6.55-2.943,6.55-6.544V93.181c0-3.602-2.949-6.547-6.55-6.547h-77.079c-3.602,0-3.928-1.348-0.723-2.995l4.654-2.389
	c3.204-1.647,8.773-2.995,12.374-2.995h69.417c3.602,0,6.55-2.946,6.55-6.547V53.906z M235.188,118.108
	c-3.602,0-6.55-1.887-6.55-4.189s2.949-4.186,6.55-4.186h68.632c3.605,0,6.547,1.884,6.547,4.186s-2.943,4.189-6.547,4.189H235.188z
	 M235.188,149.872c-3.602,0-6.55-1.881-6.55-4.186c0-2.306,2.949-4.186,6.55-4.186h68.632c3.605,0,6.547,1.881,6.547,4.186
	c0,2.306-2.943,4.186-6.547,4.186H235.188z"/>
<path fill="#6EB92B" d="M534.27,23.758c0,10.214-8.844,18.565-19.645,18.565H384.173c-10.808,0-19.648-8.351-19.648-18.565
	c0-10.207,8.841-18.562,19.648-18.562h130.452C525.427,5.197,534.27,13.551,534.27,23.758 M527.591,88.592
	c0,10.321-8.841,18.762-19.645,18.762H390.856c-10.805,0-19.648-8.44-19.648-18.762c0-10.318,8.844-18.759,19.648-18.759h117.089
	C518.75,69.833,527.591,78.274,527.591,88.592 M536.825,152.477c0,10.324-8.841,18.765-19.645,18.765H381.618
	c-10.805,0-19.645-8.441-19.645-18.765c0-10.318,8.841-18.765,19.645-18.765H517.18
	C527.985,133.712,536.825,142.159,536.825,152.477"/>
<path fill="#21B7CF" d="M659.165,70.17c-3.598,0-6.547-1.299-6.547-2.89c0-1.588,2.949-2.884,6.547-2.884h8.514
	c3.598,0,6.547,1.296,6.547,2.884c0,1.591-2.949,2.89-6.547,2.89H659.165z M720,121.133c0-3.602-2.946-6.547-6.544-6.547h-55.473
	c-3.602,0-6.547-1.151-6.547-2.555c0-1.404,2.946-2.549,6.547-2.549h55.473c3.598,0,6.544-2.949,6.544-6.55v-9.466
	c0-3.602-2.946-6.547-6.544-6.547H596.099c-3.602,0-6.547-2.946-6.547-6.547v-0.074c0-3.605,2.946-6.547,6.547-6.547h11.072
	c3.602,0,6.544,1.985,6.544,4.417c0,2.432,2.949,4.42,6.55,4.42h86.51c3.602,0,6.55-1.989,6.55-4.417c0-2.432,1.502-4.42,3.337-4.42
	c1.838,0,3.337-2.943,3.337-6.544V54.772c0-3.602-1.499-6.55-3.337-6.55c-1.835,0-3.337-1.69-3.337-3.755
	c0-2.066-2.949-3.755-6.55-3.755h-7.926c-3.602,0-6.547-1.296-6.547-2.884c0-1.591,2.946-2.887,6.547-2.887h14.606
	c3.598,0,6.544-2.946,6.544-6.547V13.093c0-3.598-2.946-6.55-6.544-6.55H698.85c-3.602,0-6.547-1.404-6.547-3.127
	c0-1.721-2.946-3.131-6.547-3.131h-23.45c-3.598,0-6.544,1.416-6.544,3.143c0,1.727-2.949,3.143-6.55,3.143h-33.072
	c-3.602,0-6.547-1.416-6.547-3.143c0-1.727-2.946-3.143-6.55-3.143h-23.641c-3.602,0-6.55,1.41-6.55,3.131
	c0,1.724-2.943,3.127-6.544,3.127h-14.606c-3.602,0-6.547,2.952-6.547,6.55v15.299c0,3.602,2.946,6.547,6.547,6.547h14.606
	c3.602,0,6.544,1.296,6.544,2.887c0,1.588-2.943,2.884-6.544,2.884h-7.923c-3.602,0-6.547,1.69-6.547,3.755
	c0,2.065-1.502,3.755-3.343,3.755c-1.838,0-3.34,2.949-3.34,6.55v12.411c0,3.602,1.502,6.55,3.34,6.55
	c1.841,0,3.343,2.946,3.343,6.55v22.622c0,3.605,2.946,6.55,6.547,6.55h48.79c3.602,0,6.544,1.145,6.544,2.552
	c0,1.401-2.943,2.546-6.544,2.546h-55.473c-3.602,0-6.547,2.952-6.547,6.547v11.83c0,3.605,2.946,6.55,6.547,6.55h26.005
	c3.598,0,3.688,0.714,0.194,1.591l-26.396,6.627c-3.491,0.877-6.35,4.54-6.35,8.145v13.393c0,3.605,2.817,5.685,6.261,4.627
	l56.048-17.238c3.441-1.062,6.255,1.022,6.255,4.62v7.532c0,3.602,2.949,6.547,6.55,6.544l24.623-0.034
	c3.602-0.003,6.547-2.952,6.547-6.554v-7.406c0-3.602,2.817-5.682,6.258-4.63l55.851,17.167c3.441,1.056,6.258-1.025,6.258-4.63
	v-13.39c0-3.598-2.857-7.265-6.35-8.139l-26.39-6.621c-3.494-0.877-3.405-1.595,0.197-1.595h26.196c3.598,0,6.544-2.946,6.544-6.547
	V121.133z M659.165,48.222c-3.598,0-6.547-1.69-6.547-3.755c0-2.066-2.946-3.755-6.547-3.755h-25.805c-3.602,0-6.55,1.69-6.55,3.755
	c0,2.065-2.943,3.755-6.544,3.755h-11.072c-3.602,0-6.547-1.69-6.547-3.755c0-2.066,2.946-3.755,6.547-3.755h6.941
	c3.605,0,6.55-1.296,6.55-2.884c0-1.591,2.946-2.887,6.547-2.887h33.072c3.602,0,6.55,1.296,6.55,2.887
	c0,1.588,2.946,2.884,6.544,2.884h5.375c3.598,0,6.547,1.69,6.547,3.755c0,2.065-2.949,3.755-6.547,3.755H659.165z"/>
</svg>
