<?xml version="1.0" encoding="utf-8"?>
<!-- Generator: Adobe Illustrator 27.1.1, SVG Export Plug-In . SVG Version: 6.00 Build 0)  -->
<svg version="1.1" id="레이어_1" xmlns="http://www.w3.org/2000/svg" xmlns:xlink="http://www.w3.org/1999/xlink" x="0px"
	 y="0px" viewBox="0 0 720 319.4" enable-background="new 0 0 720 319.4" xml:space="preserve">
<path d="M109.997,158.963c19.364-11.352,39.236-21.745,59.807-30.731c16.708-7.302,34.447-12.774,50.052-22.384
	c3.019-1.873-3.992-1.321-5.386-0.464c-15.822,9.74-34.185,15.111-51.097,22.645c-19.742,8.782-38.831,18.784-57.454,29.7
	C101.911,160.08,108.225,160.008,109.997,158.963"/>
<path d="M174.125,88.475c-16.796,47.686-30.528,96.373-45.146,144.755c-0.711,2.366,6.242,1.365,6.924-0.914
	c14.618-48.382,28.35-97.055,45.146-144.741C181.847,85.31,174.923,86.21,174.125,88.475"/>
<path d="M176.188,179.841c17.085-8.115,35.274-15.692,53.636-20.366c4.094-1.045,3.397-3.585-0.682-2.54
	c-19.582,4.979-38.831,13.006-57.048,21.658C167.928,180.567,174.374,180.698,176.188,179.841"/>
<path d="M198.095,183.765c-1.597,13.834-5.821,26.347-13.892,37.757c-1.001,1.423,4.993,0.232,5.458-0.015
	c12.963-6.794,27.218-10.582,39.992-17.753c4.036-2.25-2.322-2.076-4.05-1.118c-12.759,7.157-27.043,10.96-39.992,17.753
	c1.815-0.015,3.644-0.015,5.459-0.029c8.056-11.41,12.295-23.923,13.877-37.757C205.178,180.658,198.298,182.023,198.095,183.765"/>
<path d="M100.446,119.381c-21.252,25.316-30.978,38.628-49.936,65.671c-19.089,27.247-39.325,53.1-50.357,84.862
	c-1.263,3.644,5.662,3.237,6.576,0.595c10.684-30.789,29.991-55.902,48.542-82.278c19.35-27.479,29.28-41.328,50.908-67.094
	C108.953,117.828,102.289,117.175,100.446,119.381"/>
<path d="M70.869,195.826c8.491,23.11,11.438,47.657,20.22,70.665c1.162,3.048,8.057,1.074,6.939-1.858
	c-8.782-23.008-11.744-47.555-20.221-70.665C76.689,190.92,69.794,192.88,70.869,195.826"/>
<path d="M273.29,85.313c-10.161,21.992-16.636,45.378-25.128,68.023c-1.394,3.702,5.56,3.513,6.605,0.726
	c8.491-22.645,14.98-46.031,25.142-68.037C281.549,82.483,274.538,82.613,273.29,85.313"/>
<path d="M278.663,113.56c8.578-6.242,23.196-9.856,31.006-0.726c4.529,5.284,1.146,13.906-1.191,19.321
	c-5.4,12.498-15.053,22.485-21.527,34.345c-0.261,0.464,0.29,0.915,0.653,1.031c13.181,4.442,28.568,5.589,41.502-0.261
	c4.427-2.003,0.305-3.658-2.599-2.337c-9.624,4.34-20.933,3.107-30.832,0.348c-2.425-0.682,7.084-13.268,7.969-14.545
	c6.315-9.131,13.544-19.307,14.966-30.586c3.121-24.721-34.679-15.155-45.406-7.36C270.141,115.012,277.124,114.678,278.663,113.56"
	/>
<path d="M328.419,90.152c25.868-9.711,49.732-23.894,73.829-37.219c25.229-13.936,51.59-25.853,77.618-38.221
	c4.341-2.061,0.407-4.848-2.86-3.31c-24.285,11.54-48.89,22.66-72.537,35.449c-25.926,14.037-51.212,29.613-78.91,40.007
	C321.044,88.54,325.124,91.386,328.419,90.152"/>
<path d="M409.176,3.863c4.311,6.01,6.692,13.529,9.159,20.424c4.079,11.366,7.519,22.965,10.931,34.548
	c6.692,22.703,11.584,46.495,19.916,68.662c1.089,2.874,7.897,1.016,6.938-1.858c-0.508-1.51-1.103-2.308-2.279-3.281
	c-2.178-1.771-8.375,1.365-5.414,3.789c0.392,0.377,0.639,0.827,0.755,1.35c2.308-0.624,4.63-1.248,6.938-1.858
	c-8.332-22.166-13.268-45.958-19.915-68.661c-5.27-18-9.509-40.515-20.643-56.061C413.879-1.421,407.216,1.134,409.176,3.863"/>
<path d="M425.353,51.059c-25.215,31.5-48.282,64.873-70.172,98.754c-2.047,3.165,5.037,3.15,6.619,0.711
	c21.615-33.474,44.419-66.426,69.329-97.534C433.859,49.564,427.254,48.679,425.353,51.059"/>
<path d="M447.705,56.233c17.723,6.532,37.03,6.198,55.335,10.219c1.684,0.377,7.767-2.308,5.676-2.773
	c-18.319-4.035-37.611-3.702-55.335-10.234C451.769,52.851,445.513,55.42,447.705,56.233"/>
<path d="M523.176,25.37c-6.925,9.116,3.077,17.303,12.019,19.074c7.389,1.481,16.259-2.25,22.82-5.197
	c6.416-2.889,13.993-7.084,16.999-13.805c2.642-5.908-5.676-9.726-10.278-9.319c-14.56,1.277-28.684,20.453-31.326,33.881
	c-4.325,21.919,30.208,8.797,38.555,4.674c4.326-2.134,0.334-4.297-2.715-2.787c-6.547,3.237-25.156,12.818-28.756,1.945
	c-2.976-8.942,8.187-21.905,13.587-27.726c3.411-3.673,11.497-9.958,14.226-2.119c1.525,4.369-6.329,8.768-9.073,10.408
	c-4.978,2.99-10.742,5.182-16.475,6.155c-7.883,1.335-19.277-6.997-13.138-15.068C531.493,23.019,524.511,23.614,523.176,25.37"/>
<path d="M402.26,180.436c4.514,3.934,8.361,10.539,8.825,16.578c0.13,1.727,7.113,0.377,6.939-1.858
	c-0.479-6.227-4.617-13.166-9.276-17.231C407.166,176.532,400.808,179.173,402.26,180.436"/>
<path d="M308.243,246.273c6.677,7.04,13.441,13.732,22.253,18.044c1.83,0.9,7.331-1.974,6.532-2.352
	c-8.797-4.326-15.576-11.018-22.254-18.044C313.569,242.629,307.182,245.155,308.243,246.273"/>
<path d="M332.421,249.028c26.245-22.108,57.454-38.25,89.042-51.242c15.837-6.518,32.124-11.932,48.745-15.997
	c7.708-1.887,15.736-3.876,23.706-3.992c9.755-0.145,6.822,9.058,4.282,14.937c-0.944,2.206,5.966,1.408,6.938-0.856
	c5.734-13.282,0.276-18.726-13.253-17.84c-18.015,1.19-36.465,7.606-53.405,13.413c-39.658,13.587-79.418,33.3-111.629,60.416
	C323.783,250.451,330.693,250.48,332.421,249.028"/>
<path d="M389.904,228.096c3.512,11.903,9.624,24.852,21.702,29.947c2.918,1.234,8.071-2.947,4.006-4.674
	c-10.554-4.456-15.736-16.868-18.77-27.131C395.899,223.044,388.961,224.917,389.904,228.096"/>
<path d="M417.524,226.762c4.123-4.892,9.711-8.303,15.387-11.105c6.01-2.99,20.67-5.037,16.635,6.097
	c-4.167,11.468-16.97,18.044-21.469,29.395c-0.668,1.713,5.864-0.377,6.561-0.9c8.899-6.735,18.755-13.137,29.25-17.057
	c4.645-1.727,0.218-2.453-2.381-1.495c-11.947,4.456-23.008,11.468-33.141,19.118c2.178-0.305,4.37-0.61,6.548-0.9
	c2.946-7.461,33.648-33.126,17.013-39.411c-12.528-4.732-33.039,7.752-40.674,16.824
	C409.889,228.954,416.479,227.996,417.524,226.762"/>
<path d="M436.664,250.407c-5.836,11.032-6.62,27.421-15.75,36.32c-2.947,2.874,3.89,2.961,5.603,1.277
	c9.741-9.479,10.48-25.723,16.635-37.35C444.749,247.62,437.782,248.302,436.664,250.407"/>
<path d="M412.656,292.848c13.035,12.861,29.438,25.766,48.498,26.55c1.568,0.073,7.97-2.831,4.457-2.976
	c-18.174-0.755-34.026-13.747-46.437-25.998C417.823,289.088,411.436,291.658,412.656,292.848"/>
<path d="M426.496,288.662c8.956-9.014,22.601-15.445,34.693-18.697c9.16-2.468,15.736,1.945,12.615,11.526
	c-2.09,6.402-6.837,12.121-10.582,17.637c-1.51,2.206,2.671,2.163,3.716,1.887c12.412-3.136,25.519-7.36,36.567-13.936
	c4.035-2.41-2.032-3.527-4.326-2.163c-10.001,5.952-21.977,9.668-33.198,12.513c1.234,0.639,2.468,1.263,3.716,1.902
	c4.965-7.316,11.396-15.097,12.252-24.213c0.741-7.911-8.143-10.205-14.269-9.944c-15.808,0.711-35.71,11.134-46.771,22.268
	C418.018,290.346,424.841,290.331,426.496,288.662"/>
<path d="M533.764,148.155c-0.393,16.781,13.732,35.1,29.076,40.921c2.613,1.002,8.129-2.773,4.107-4.297
	c-13.5-5.11-26.536-22.602-26.187-37.292C540.834,144.149,533.836,145.383,533.764,148.155"/>
<path d="M562.901,138.698c9.014-6.75,29.337-17.55,39.135-6.764c11.613,12.774-13.602,40.442-19.989,50.589
	c-1.815,2.86,4.848,1.902,6.024,0.682c5.182-5.4,13.239-6.793,19.568-10.553c4.036-2.395-2.047-3.469-4.325-2.119
	c-6.939,4.123-15.068,5.487-20.817,11.482c2.003,0.232,4.006,0.45,6.024,0.682c7.433-11.773,35.753-43.273,16.592-56.337
	c-13.63-9.305-36.871,2.961-47.787,11.148C554.148,139.888,561.115,140.033,562.901,138.698"/>
<path d="M545.102,172.219c13.064-3.76,24.953-10.626,38.061-14.255c3.267-0.9,4.006-4.398-0.101-4.05
	c-0.987,0.087-1.989,0.174-2.976,0.247c-3.571,0.305-5.632,4.631-0.842,4.239c0.987-0.087,1.988-0.174,2.975-0.247
	c-0.043-1.35-0.073-2.715-0.101-4.065c-13.122,3.644-24.997,10.51-38.047,14.255C539.905,169.548,540.907,173.424,545.102,172.219"
	/>
<path d="M567.201,148.306c4.732,26.245,22.195,47.439,29.409,72.813c0.436,1.539,7.36-0.377,6.939-1.858
	c-7.229-25.374-24.692-46.568-29.41-72.813C573.893,145.055,566.895,146.622,567.201,148.306"/>
<path d="M578.691,209.209c11.061-4.355,21.643-9.842,32.849-13.819c4.544-1.611,0.45-4.602-2.888-3.411
	c-11.206,3.977-21.788,9.465-32.85,13.819C571.331,207.568,575.352,210.515,578.691,209.209"/>
<path d="M581.954,236.236c10.465-9.886,23.632-17.202,36.275-23.85c12.513-6.576,26.913-14.11,41.226-15.242
	c3.759-0.305,5.472-5.081,0.726-4.703c-14.923,1.176-29.555,8.463-42.707,15.082c-14.501,7.302-29.395,15.736-41.255,26.942
	C573.113,237.398,579.906,238.182,581.954,236.236"/>
<path d="M627.281,104.719c4.819-4.297,11.351-6.75,17.288-9.029c5.923-2.25,17.375-6.794,22.921-1.96
	c5.241,4.558-19.655,18.044-22.95,20.526c-1.306,0.987-0.566,2.148,0.682,2.54c5.545,1.756,11.41,2.395,16.694,4.907
	c2.09,0.987,8.448-2.018,5.501-3.426c-5.705-2.7-11.99-3.44-17.971-5.327c0.232,0.842,0.45,1.684,0.682,2.526
	c4.529-3.411,37.321-20.366,19.946-26.84c-7.723-2.874-17.956,0.61-25.287,3.048c-7.955,2.642-16.752,6.14-23.095,11.816
	C618.673,106.199,625.554,106.272,627.281,104.719"/>
<path d="M630.326,144.565c10.77-13.718,31.819-21.847,47.743-27.189c8.826-2.976,18.959-5.415,28.176-2.932
	c17.492,4.703-4.093,19.089-11.787,20.715c-2.685,0.566-6.155,3.527-1.307,2.497c7.287-1.539,27.335-7.926,26.84-17.986
	c-0.551-11.148-19.51-9.203-26.564-8.231c-14.211,1.945-28.118,7.737-40.878,14.037c-10.205,5.052-21.89,11.192-29.061,20.323
	C623.067,146.336,629.062,146.177,630.326,144.565"/>
<path d="M673.335,137.422c18.566,14.313,25.751,37.205,29.526,59.458c1.379,8.216,2.264,16.563,3.106,24.852
	c0.842,8.26,3.034,22.5-3.672,28.916c-1.394,1.321,5.094,0.508,6.256-0.61c5.53-5.269,5.11-14.429,4.95-21.455
	c-0.232-9.668-1.713-19.452-3.019-29.032c-3.281-23.894-10.742-49.137-30.6-64.452C678.416,133.967,672.435,136.725,673.335,137.422
	"/>
</svg>
