<?xml version="1.0" encoding="utf-8"?>
<!-- Generator: Adobe Illustrator 27.0.1, SVG Export Plug-In . SVG Version: 6.00 Build 0)  -->
<svg version="1.1" id="레이어_1" xmlns="http://www.w3.org/2000/svg" xmlns:xlink="http://www.w3.org/1999/xlink" x="0px"
	 y="0px" viewBox="0 0 720 304.499" enable-background="new 0 0 720 304.499" xml:space="preserve">
<path fill="#FFFFFF" d="M571.64,36.81c0.755-5.646,1.102-9.133,1.102-9.255c0.06-0.663,0.347-1.056,1.464-0.86
	c1.117,0.196,42.949,8.182,45.878,8.997c5.027,1.42,6.748,4.831,4.076,8.801c-2.445,3.623-62.529,89.989-63.646,91.454
	c-0.815,1.056-1.026,0.966-0.875-0.287c0.076-0.664,3.834-31.626,7.307-60.234L571.64,36.81z M501.82,75.245
	c-0.71,0.997-22.041,31.174-25.543,35.884c-0.589,0.801-0.725,0.196-0.664-0.332c1.978-17.784,7.216-64.462,7.654-67.406
	c0.981-6.371,6.748-10.356,14.809-11.987c7.156-1.449,14.387-3.427,16.349-3.924c2.959-0.74,3.291-1.193,4.076-2.371
	c0.438-0.664,10.356-21.014,10.794-21.829c0.453-0.8,1.268-2.521-1.102-2.521c-1.917,0-165.018-0.755-166.12-0.755
	c-1.178,0-1.721,0.362-2.219,1.237c-0.438,0.725-8.439,16.395-11.111,21.603c-0.528,1.057-0.589,1.66,0.966,1.992
	c1.57,0.347,41.666,7.231,41.666,7.231c16.727,3.034,19.504,16.455,18.282,27.747c-0.891,8.198-25.286,241.059-25.347,242.689
	c-0.06,1.6,0.393,1.993,1.495,1.993c1.117,0,16.002-0.045,16.712-0.045c0.83,0,1.6-0.408,2.113-1.132
	c7.579-10.719,67.994-96.073,78.727-111.275c0.513-0.71,1.026-0.589,0.921,0.181c-2.264,16.002-13.707,95.877-15.655,109.6
	c-0.196,1.298,0.241,1.993,1.147,1.993c4.378-0.061,17.3-0.212,18.04-0.212c1.268,0,2.325-0.135,3.004-1.162
	c0.649-1.042,165.244-235.911,176.627-253.242c9.631-14.614,26.736-19.187,38.405-21.014c1.525-0.242,1.902-0.468,2.778-2.009
	c0.604-1.041,9.843-19.866,10.824-21.588c1.042-1.826,0.544-2.748-0.951-2.762C700.91,1.681,587.597,0.896,586.978,0.896
	c-1.782,0-2.763,0.423-3.185,1.163c-0.423,0.755-6.975,13.768-9.33,18.417c-0.317,0.619-0.664,0.619-0.604,0.045
	c0.544-4.68,1.555-14.236,1.963-18.025c0.106-1.012-0.589-1.615-1.827-1.615h-18.946c-0.815,0-1.208,0.151-1.826,1.087
	c-0.332,0.483-23.852,34.133-24.305,34.706L501.82,75.245z"/>
<path d="M563.989,75.511c-3.593,29.227-7.231,58.635-8.56,69.399c-0.332,2.748,0.393,3.155,1.842,1.117
	c1.178-1.675,51.796-74.697,68.884-99.455c1.782-2.581,2.732-4.287,1.782-7.473c-0.77-2.566-3.321-4.936-6.884-5.842
	c-6.31-1.615-42.255-8.378-43.432-8.666c-1.193-0.301-1.343-0.664-0.68-1.992c0.589-1.148,8.167-16.621,8.681-17.451
	c0.498-0.83,0.936-1.238,1.827-1.223c0.845,0.029,125.511,0.528,126.84,0.528c1.328,0,1.887,0.604,1.464,1.464
	c-0.438,0.846-8.846,17.633-9.239,18.312c-0.287,0.498-0.679,1.48-1.63,1.631c-18.719,2.793-32.381,10.325-40.186,22.176
	c-6.627,10.1-64.809,93.989-112.604,162.361c-30.057,42.963-61.638,87.347-62.302,88.434c-0.664,1.087-1.042,1.449-2.748,1.449
	c-1.495,0-12.349,0.151-13.24,0.151c-0.891,0-1.66,0.015-1.419-1.253c0.242-1.253,16.093-115.291,16.289-117.058
	c0.211-1.751-0.558-1.842-2.068,0c-1.434,1.752-75.316,106.565-83.393,118.023c-0.422,0.604-1.223,0.997-1.706,0.997h-12.862
	c-0.966,0-1.042-0.408-0.966-2.099c0.045-1.117,23.837-230.053,24.667-237.721c0.196-1.903,0.302-3.729,0.302-5.481
	c0-14.598-7.095-23.822-20.335-26.222c0,0-36.956-6.356-38.511-6.627c-1.57-0.242-1.585-0.65-1.102-1.827
	c0.498-1.162,7.397-14.567,9.013-17.753c0.211-0.423,0.513-0.921,1.766-0.861c1.208,0.06,160.051,1.041,160.867,1.041
	c0.815,0,1.328,0.196,0.996,1.132c-0.332,0.92-8.469,17.799-9.148,18.976c-0.649,1.178-0.725,1.041-2.431,1.403
	c-1.706,0.393-5.042,1.193-5.042,1.193c-18.886,3.789-26.525,5.087-28.789,19.746c-0.574,3.744-7.835,68.99-8.137,71.768
	l-0.347,3.05c0.151,0.755-0.211,2.657,1.615,0.045c4.771-6.747,17.753-25.225,32.035-45.561c0.377-0.438,0.739-1.178-0.815-1.178
	c-1.329,0-1.751,0.061-2.461,1.073c-0.725,1.011-22.056,31.189-25.558,35.883c-0.589,0.801-0.709,0.196-0.649-0.317
	c1.977-17.798,7.216-64.476,7.654-67.42c0.981-6.371,6.748-10.341,14.809-11.987c7.156-1.448,14.387-3.411,16.349-3.924
	c2.959-0.725,3.291-1.193,4.076-2.371c0.438-0.664,10.356-20.999,10.794-21.814c0.438-0.815,1.268-2.521-1.117-2.521
	C526.263,0.769,363.178,0,362.076,0c-1.193,0-1.721,0.362-2.219,1.237c-0.438,0.725-8.439,16.395-11.111,21.618
	c-0.528,1.042-0.589,1.646,0.966,1.993c1.57,0.332,41.666,7.216,41.666,7.216c16.711,3.035,19.489,16.47,18.281,27.747
	c-0.891,8.198-25.286,241.074-25.347,242.689c-0.06,1.615,0.393,1.993,1.495,1.993c1.117,0,15.987-0.045,16.712-0.045
	c0.83,0,1.6-0.393,2.114-1.118c7.578-10.718,67.994-96.072,78.727-111.275c0.498-0.709,1.026-0.589,0.92,0.166
	c-2.264,16.002-13.707,95.877-15.655,109.6c-0.196,1.298,0.241,1.993,1.147,1.993c4.378-0.061,17.301-0.212,18.04-0.212
	c1.268,0,2.325-0.121,2.989-1.162c0.664-1.026,165.26-235.911,176.643-253.226c9.632-14.629,26.736-19.203,38.405-21.029
	c1.525-0.227,1.902-0.468,2.778-2.008c0.604-1.042,9.828-19.867,10.809-21.573c1.056-1.827,0.543-2.762-0.936-2.778
	c-17.602-0.151-130.916-0.92-131.52-0.92c-1.781,0-2.778,0.407-3.185,1.162c-0.422,0.756-6.975,13.769-9.33,18.402
	c-0.317,0.635-0.679,0.635-0.604,0.046c0.528-4.665,1.555-14.237,1.963-18.026c0.106-0.996-0.589-1.6-1.827-1.6h-18.946
	c-0.815,0-1.208,0.136-1.827,1.073c-0.332,0.483-23.852,34.147-24.305,34.721c-0.438,0.573-0.649,1.237,0.755,1.237
	c1.404,0,1.827-0.105,2.204-0.679c0.377-0.589,20.606-29.347,22.961-32.683c0.347-0.484,0.876-0.83,1.691-0.83
	c3.065-0.016,13.979-0.076,14.87-0.076c0.891,0,1.328,0.694,1.223,1.554c-0.513,4.212-3.593,30.405-3.744,31.899
	c-0.06,0.589,0.227,0.966,0.966,0.966c0.74,0,1.63-0.076,1.781-1.253c0.77-5.661,1.117-9.148,1.117-9.268
	c0.06-0.664,0.347-1.042,1.464-0.846c1.117,0.182,42.949,8.182,45.878,8.983c5.027,1.419,6.748,4.846,4.076,8.8
	c-2.446,3.639-62.529,89.989-63.646,91.454c-0.815,1.057-1.026,0.966-0.876-0.287c0.076-0.664,3.834-31.612,7.307-60.234"/>
<path fill="#FFF100" d="M415.074,109.493c0.362-3.064,5.208-49.893,5.314-51.448c1.464-24.335-15.67-33.046-29.091-35.643
	c-11.05-2.128-23.807-4.363-24.999-4.543c-1.193-0.212-1.706-0.574-1.253-1.661c0.438-1.072,1.6-3.094,1.842-3.517
	c0.302-0.544,0.513-1.072,2.068-1.072c1.51,0,140.667,0.422,141.77,0.483c1.555,0.076,1.66,0.709,1.328,1.63
	c-0.332,0.921-1.102,2.657-1.842,4.076c-0.739,1.404-1.721,1.6-2.959,1.917c-1.902,0.468-13.39,2.445-20.275,5.178
	c-6.929,2.747-13.541,11.276-14.87,19.912c-0.604,3.85-7.593,65.458-8.363,72.432c0,0-4.574,39.583-4.741,41.138
	c-0.362,3.336-0.483,4.846,1.102,6.431c1.495,1.495,4.031,2.823,6.748,1.193c3.547-2.144,31.37-19.233,32.034-19.61
	c0.664-0.362,1.404-0.8,1.842-0.438c0.453,0.362,0.317,0.815-0.438,1.842c-1.857,2.521-99.817,141.709-100.934,142.962
	c-1.102,1.253-2.506,1.464-2.279-1.329c0.06-0.769,3.94-37.756,4.076-40.851c0.06-1.253,0.8-1.796,1.963-1.796h11.277
	c0.83,0,1.706,0.121,1.993-1.495c0.166-0.952,2.657-20.788,4.605-39.795c1.343-13.179,2.219-26.01,2.717-31.687
	c1.238-14.085,13.617-20.138,20.259-21.648c0.664-0.151,1.389-0.272,1.661-0.725c0.272-0.438,1.057-2.038,1.329-2.702
	c0.287-0.664,0.619-1.389-0.604-1.389c-1.329,0-33.137-0.181-33.801-0.181s-1.253-0.242-1.042-1.948
	c0.076-0.574,1.087-9.284,2.099-21.406c0.06-0.68,0.196-1.148,0.604-1.721c1.404-1.887,7.397-4.332,8.605-4.665
	c0.8-0.211,1.555-0.498,1.887-1.057c0.332-0.544,1.842-3.593,2.008-4.091c0.166-0.513,0.271-1.132-0.785-1.178
	c-1.057-0.045-9.149-0.045-9.873-0.045C415.331,111.048,414.923,110.731,415.074,109.493"/>
<path fill="#FFF100" d="M560.259,36.666c1.404-11.669,2.838-23.172,3.079-25.014s-0.77-2.204-2.37-0.076
	c-2.069,2.748-16.576,23.595-17.165,24.562c-0.589,0.967-1.178,2.22,0.589,2.22c1.782,0,12.138,0.075,13.391,0.075
	C559.036,38.432,560.063,38.145,560.259,36.666"/>
<path fill="#FFF100" d="M461.97,156.3c-2.023,1.057-2.823,0.363-1.404-1.765C467.767,144.299,515.486,76.094,516,75.4
	c0.498-0.709,1.238-1.525,2.642-1.525c1.419,0,34.253,0.151,35.295,0.151c1.706,0,1.555,1.328,1.419,2.445
	c-0.151,1.012-12.364,101.659-12.575,102.927c-0.227,1.268,0.347,1.163,0.936,0.196c0.574-0.981,22.162-31.264,22.162-31.264
	c15.368-21.92,66.56-97.069,68.869-100.21c6.945-9.48,1.268-20.139-7.624-21.739c-5.133-0.936-36.488-7.111-37.816-7.413
	c-1.329-0.287-1.329-0.951-1.102-1.691c0.166-0.544,1.253-2.823,1.796-3.533c0.544-0.739,0.861-1.358,2.566-1.358
	c1.646,0,106.399,0.513,107.063,0.498c0.68-0.015,2.295,0.318,1.706,1.51c-0.393,0.769-1.042,2.28-1.917,4.061
	c-0.377,0.755-1.102,1.464-2.219,1.691c-6.672,1.48-16.062,3.563-23.761,8.213c-6.823,4.152-12.364,9.345-15.383,13.557
	C646.93,57.359,485.43,289.194,484.463,290.462c-0.966,1.253-2.37,1.329-2.068-0.815c0.287-2.159,19.459-144.064,19.595-145.619
	c0.151-1.554,0-3.638-2.219-5.253c-2.189-1.615-5.103-2.083-7.684-0.438C489.491,139.952,463.374,155.561,461.97,156.3"/>
<path fill="#E60012" d="M89.117,135.809c1.102,0,1.736-0.301,2.4-1.524c0.664-1.223,9.586-18.901,10.024-19.776
	c0.453-0.906,1.298-1.193,2.627-1.193s34.963,0.212,36.08,0.212c1.102,0,2.023,0.634,1.993,0.981
	c-0.106,1.207-2.34,1.449-3.412,1.842c-9.541,3.547-14.643,12.349-16.485,17.526c-0.272,0.77-0.332,1.495,0.876,1.495
	c2.34,0,46.769,0.03,47.206,0.03c0.453,0,3.11,0.106,3.11,1.072c0,0.952-5.359,2.612-6.884,3.548c-3.774,2.339-7.91,4-13.239,14.583
	c-10.039,19.926-33.076,62.453-37.816,70.877c-2.551,4.544-9.164,10.659-14.342,13.92c-12.711,7.986-23.55,7.638-34.706,7.246
	c-1.238-0.045-2.446-0.302-1.117-2.506c1.343-2.234,22.795-43.78,23.354-44.882c0.559-1.117,2.34-1.645,2.4-0.196
	c0.076,1.797,0.649,5.707,4.287,5.857c3.774,0.151,4.997-2.973,7.261-7.034c1.48-2.657,15.972-30.661,16.863-32.005
	c0.483-0.724,0.785-1.54,0.105-1.54c-0.664,0-10.356-0.121-11.352-0.121c-0.996,0-1.661,0.151-2.445,1.48
	c-0.77,1.329-10.945,20.938-13.391,24.788c-9.979,15.73-18.418,25.453-34.329,37.303c-15.67,11.655-30.042,16.893-44.323,19.308
	c-6.265,1.042-11.549,1.208-12.424,1.102c-0.891-0.121-1.993-0.332-1.117-2.098c0.891-1.797,30.721-55.6,31.083-56.43
	c0.438-1.027,1.766-2.371,2.295-0.076c0.407,1.857,1.509,5.631,3.623,6.747c2.099,1.102,3.472,2.28,8.363,0.212
	c4.876-2.069,9.692-5.963,15.232-10.87c9.028-8.001,11.805-15.806,14.13-20.124c0.438-0.815-0.076-1.223-1.102-1.223
	c-0.785,0-25.271-0.076-26.268-0.076c-0.996,0-2.913,0.212-1.706-2.008c1.223-2.219,13.134-23.852,13.692-25.075
	c0.559-1.223,1.147-1.495,2.37-1.495S87.668,135.809,89.117,135.809"/>
<path fill="#E60012" d="M143.348,115.198c0.694-0.966,1.328-1.887,2.445-1.887c1.102,0,9.269,0.061,10.386,0.061
	c1.102,0,2.219,0.604,1.208,2.386c-0.996,1.766-6.99,13.345-7.594,14.371c-0.891,1.495-1.223,2.431-2.445,2.431
	c-1.223,0-9.103,0.121-10.22,0.121c-2.868,0-2.748-1.162-1.766-2.883C136.69,127.457,142.789,115.983,143.348,115.198"/>
<path fill="#E60012" d="M160.5,114.873c0.74-1.358,1.6-1.448,2.823-1.448c1.223,0,7.669,0.105,9.556,0.105s2.099,0.846,1.102,2.506
	c-0.996,1.66-6.657,13.028-7.548,14.87c-0.77,1.586-1.495,1.661-3.155,1.661c-1.676,0-8.544-0.106-9.767-0.106
	c-1.223,0-2.234-0.106-1.117-2.445C153.616,127.464,159.942,115.854,160.5,114.873"/>
<path fill="#E60012" d="M187.634,114.756c0.558-1.223,1.449-1.464,3.774-1.328c1.268,0.06,47.403,0,51.509,0
	c1.102,0,2.219,1.192,0.544,1.66c-6.099,1.706-12.802,4.046-17.708,12.379c-3.563,6.084-11.081,21.195-11.654,21.98
	c-0.543,0.77-0.543,1.932-1.993,1.932c-1.434,0-41.122-0.166-41.892-0.166c-0.785,0-1.449-0.83-0.664-2.386
	C170.319,147.274,186.97,116.221,187.634,114.756"/>
<path fill="#E60012" d="M231.862,129.131c0.724-1.298,1.057-1.448,2.279-1.448c1.223,0,35.627,0.06,36.412,0.06
	c0.77,0,1.766,1.178,0.378,1.449c-3.215,0.604-14.372,3.155-19.474,12.364c-5.117,9.223-26.419,51.78-36.02,69.488
	c-13.994,25.815-37.982,35.235-57.321,35.235c-7.11,0-40.081,0.333-41.183,0.333c-1.253,0-2.219-1.223-1.555-2.325
	c0.664-1.102,27.083-50.453,27.521-51.238c0.453-0.755,2.34-1.419,2.34,1.178c0,3.729,2.612,9.828,9.601,10.371
	c6.446,0.513,13.587,0.151,17.693,0.061c10.552-0.227,25.754-10.537,30.646-20.093C210.818,169.635,231.304,130.128,231.862,129.131
	"/>
<path fill="#E60012" d="M364.65,135.394c-0.77,0-61.623-0.242-62.514-0.242c-0.876,0-1.117-0.121-0.861-1.117
	c0.71-2.808,4.665-9.556,9.3-13.315c4.076-3.306,9.631-4.74,12.439-5.631c1.238-0.393,1.087-1.434,0.076-1.554
	c-0.981-0.106-35.914-0.106-37.364-0.106c-1.978,0-2.31-0.241-3.215,1.554c-0.438,0.876-12.183,23.913-13.345,26.132
	c-0.86,1.631-1.781,4.559-3.774,4.831c-0.559,0.076-1.162,0-1.947,0c-2.008-0.03-3.563-1.721-4.393-4.332
	c-0.513-1.631-1.797-1.51-2.476-0.513c-0.664,1.011-21.165,41.198-22.041,42.752c-0.891,1.555-0.332,2.642,1.298,2.642
	c0.664,0,2.355,0.016,8.68-0.211c6.507-0.211,12.56-1.449,13.225-1.676c0.679-0.226,0.891,0.333,0.679,0.785
	c-0.226,0.438-2.642,5.329-3.517,6.9c-0.891,1.54,0.211,2.159,1.389,2.159c0.77,0,38.466-0.302,39.13-0.302
	c0.679,0,1.389,0.257,0.891,0.891c-3.774,4.77-10.839,9.103-19.263,9.103c-3.004,0-27.249,0.121-33.967,0.121
	c-1.887,0-2.023-0.393-2.763-1.011c-1.51-1.223-2.37-3.397-2.959-5.481c-0.408-1.419-1.495-1.057-2.053-0.181
	c-0.559,0.89-23.339,44.836-24.124,46.406c-0.77,1.54,0.695,2.053,1.797,2.053h45.289c28.215,0,47.871-15.715,56.898-33.362
	c8.575-16.803,27.355-53.094,32.11-63.028c1.706-3.562,3.985-6.068,7.035-8.001c4.152-2.657,8.756-3.956,9.767-4.212
	C365.555,137.069,367.05,135.394,364.65,135.394 M312.039,165.072c-0.559,1.224-1.706,3.457-2.129,4.258
	c-0.634,1.178-0.634,1.585-2.295,1.585s-23.716-0.03-24.713-0.03c-0.996,0-2.129,0-0.921-1.524c1.147-1.449,2.732-3.548,3.215-4.288
	c0.815-1.268,0.921-1.328,2.627-1.373c1.223-0.03,22.328,0.045,23.43,0.045C312.371,163.744,312.597,163.849,312.039,165.072"/>
<path fill="#E60012" d="M335.17,114.785c0.619-1.131,0.724-1.252,2.355-1.313c1.676-0.045,8.937-0.015,9.918-0.015
	c1.011,0,2.008,0.438,1.011,2.113c-1.011,1.661-6.703,13.466-7.397,14.599c-0.634,1.012-0.936,1.857-2.174,1.857
	c-1.253,0-8.771-0.03-10.22-0.03c-1.434,0-2.325-0.452-1.328-2.114C328.331,128.221,334.641,115.767,335.17,114.785"/>
<path fill="#E60012" d="M351.593,114.889c0.77-1.223,0.709-1.675,2.597-1.675s8.258,0.076,9.254,0.076
	c0.996,0,2.627-0.045,1.646,1.6c-1.011,1.661-7.171,14.116-7.941,15.429c-0.785,1.329-0.921,1.676-2.37,1.676
	c-1.434,0-7.911,0.121-9.36,0.121c-1.434,0-2.581-0.333-1.389-2.355C345.237,127.691,351.034,115.795,351.593,114.889"/>
<path fill="#E60012" d="M360.026,158.894c10.764-19.096,21.346-42.133,21.905-43.356c0.876-1.948,0.83-2.159,3.05-2.159
	c2.219,0,35.899,0.121,36.684,0.121c1.585,0,1.66,1.374-0.166,2.143c-2.31,0.967-7.337,2.386-11.609,6.658
	c-3.035,3.034-4.922,7.941-6.823,11.548c-2.053,3.896-9.435,19.263-17.421,34.134c-9.541,17.708-18.825,31.898-20.199,33.846
	c-0.468,0.663-0.725,1.343,0.377,1.283c1.117-0.06,6.28-0.558,12.153-1.389c5.888-0.846,11.322-2.234,12.168-2.445
	c0.83-0.227,0.981-0.906,1.162-1.676c0.211-0.906,1.947-12.289,3.548-23.52c1.585-11.066,3.049-21.98,3.125-22.675
	c0.151-1.237,0.664-1.887,2.325-1.887c1.676,0,37.696,0.106,38.918,0.227c1.207,0.09,1.449,1.283,0.257,1.585
	c-5.48,1.374-15.836,7.397-17.814,21.739c-0.785,5.616-1.057,13.436-2.34,25.77c-2.008,19.323-4.59,40.986-4.997,43.779
	c-0.181,1.253-0.166,2.265-2.053,2.265c-1.887,0-26.569,0.03-27.792,0.03c-1.223,0-1.947-0.136-1.615-2.672
	c0.332-2.567,1.721-9.058,1.948-9.948c0.211-0.876-0.453-0.408-1.449-0.061c-5.51,1.993-23.747,8.122-43.04,11.247
	c-13.013,2.069-27.083,2.204-34.525,2.204c-1.328,0-1.766-0.891-0.876-2.325c0.876-1.449,23.958-46.119,24.517-47.221
	c0.558-1.118,1.268-1.193,1.932-0.076c0.664,1.102,1.495,2.46,1.827,2.989c0.996,1.554,2.068,2.008,3.17,0.785
	C340.144,195.624,349.337,177.825,360.026,158.894"/>
<path d="M129.417,52.874c0.845-0.151,9.163-1.313,13.934-3.11c0.921-0.332,0.725-0.664,0.498-1.284
	c-0.226-0.604-2.325-3.366-2.823-4.03c-0.513-0.664-0.951-0.846-1.887-0.558c-0.951,0.272-6.054,2.038-12.213,2.883
	c-1.706,0.227-4.665-0.182-5.329-0.182c-0.664,0-1.223,0.242-1.223,1.284c0,1.072,0.227,18.931-0.166,22.977
	c-0.393,4.045-1.329,9.268-1.661,9.994c-0.378,0.8-0.785,1.057-1.389,0.604c-0.619-0.438-3.834-3.653-4.212-4.151
	c-0.393-0.514,0.151-1.118,0.604-1.118h3.17c0.876,0,1.208-0.619,1.208-1.223v-4.816c0-0.784-0.438-1.117-1.163-1.117h-5.374
	c-0.725,0-1.011-0.544-1.011-0.951v-1.435c0-0.498,0.453-0.951,1.117-0.951h6.325c0.664,0,0.936-0.438,0.936-0.89v-4.816
	c0-0.724-0.332-0.891-0.83-0.891h-1.766c-1.178,0-0.83-0.663-0.725-1.056c0.121-0.378,0.83-2.718,0.997-3.171
	c0.166-0.438,0.226-0.875,0.891-0.875c0.664,0,0.725-0.891,0.725-1.329v-3.835c0-0.951-0.604-0.951-1.057-0.951h-4.725
	c-0.996,0-0.996-1.102-0.996-1.6v-2.838c0-0.936-0.272-1.057-1.268-1.057c-1.011,0-4.559,0.061-5.661,0.061
	c-1.117,0-1.117,0.664-1.117,1.057s-0.045,1.495-0.045,2.717s-0.679,1.57-1.555,1.57H95.51c-0.604,0-1.102,0.211-1.102,0.875v4.107
	c0,0.996,0.392,1.117,1.162,1.117c0.785,0,1.389,0.317,1.661,0.875c0.287,0.558,1.117,2.672,1.343,3.277
	c0.211,0.604,0.106,1.056-1.389,1.056H93.85c-0.77,0-1.223,0.272-1.223,1.224c0,0.935-0.166,3.049-0.166,4.106
	c0,1.041,0.725,1.268,1.283,1.268h7.488c0.664,0,0.996,0.453,0.996,0.906v1.766c0,0.498-0.559,0.785-1.223,0.785
	c-0.664,0-5.993-0.181-6.658-0.181c-0.664,0-1.057,0.226-1.057,0.996c0,0.785-0.045,3.834-0.045,4.786
	c0,0.935,0.272,1.102,0.77,1.102c0.498,0,3.94,0.226,4.378,0.226c0.453,0,0.785,0.408,0.619,0.891
	c-1.344,4.001-6.944,9.043-7.382,9.541c-0.438,0.498-0.272,0.664,0.106,1.162c0.393,0.498,3.774,2.551,4.725,2.989
	c0.936,0.453,1.268,0.227,1.721-0.211c0.438-0.453,2.929-3.276,3.261-3.713c0.347-0.453,0.785-0.559,0.785,0.211
	c0,0.785,0.166,5.661,0.166,6.673c0,0.996,0.498,1.102,1.283,1.102h5.601c0.83,0,1.102-0.785,1.102-1.223
	c0-0.439,0-6.824,0.06-7.368c0.06-0.573,0.332-0.724,0.664-0.452c0.347,0.272,0.785,0.664,1.163,1.117
	c0.393,0.438,0.951,0.272,1.404-0.121c0.438-0.393,2.717-2.431,3.05-2.717c0.332-0.287,1.268-1.102,1.042-0.287
	c-0.196,0.785-2.823,5.555-4.212,7.17c-0.755,0.861-0.604,1.268,0.272,1.766c0.891,0.498,4.453,1.887,4.891,2.053
	c0.438,0.182,1.253,0.83,1.932,0c6.325-7.593,7.397-20.516,7.669-26.525c0.061-1.343,1.102-1.162,1.887-1.162
	c0.77,0,1.223,0.558,1.223,1.329c0,0.785-0.121,24.426-0.121,25.317c0,0.875,0.619,1.268,1.223,1.268h5.616
	c0.936,0,1.268-0.951,1.268-1.676c0-0.709-0.105-24.577-0.06-25.286c0.06-0.724,0.393-1.012,1.057-1.012h2.611
	c0.83,0,0.785-0.604,0.785-1.268v-5.058c0-0.83-0.724-1.041-1.177-1.041c-0.619,0-12.258-0.121-13.089-0.121
	c-0.83,0-1.057-0.438-1.057-1.102v-4.332C128.481,53.538,128.586,53.04,129.417,52.874 M109.278,55.048
	c-0.287,0.664-1.057,2.929-1.329,3.382c-0.634,1.011-1.615,0.422-1.827,0c-0.287-0.559-1.011-2.34-1.283-3.156
	c-0.272-0.785-0.06-1.072,0.377-1.132c0.453-0.029,3.17,0,3.563,0.061S109.565,54.369,109.278,55.048"/>
<path d="M198.668,64.147c0.453-0.121,1.011-0.06,1.238,0.272c0.121,0.182,0.272,0.83,0.438,1.449
	c0.166,0.604,0.559,0.724,1.223,0.544c0.664-0.166,1.887-0.544,2.612-0.77c0.725-0.211,0.664-0.709,0.544-1.434
	c-0.106-0.725-1.042-4.847-1.328-6.22c-0.272-1.389-1.555-1.012-2.612-0.831c-0.77,0.121-0.709-0.498-0.438-0.951
	c0.272-0.438,2.098-2.656,2.446-3.11c0.332-0.438,0.559-0.604,0.226-1.162c-0.347-0.559-2.461-1.555-3.004-2.009
	c-0.558-0.438-0.77,0.061-1.102,0.408c-0.347,0.317-0.785,1.102-1.283,1.6c-0.498,0.498-1.057-0.122-0.604-0.664
	c0.332-0.423,2.929-4.333,3.427-4.937c0.498-0.619,0.453-0.936,0.06-1.389c-0.393-0.453-2.325-1.555-3.004-1.842
	c-0.664-0.257-0.83-0.106-1.208,0.452c-0.393,0.559-1.948,2.657-2.506,3.669c-0.544,0.996-1.223,0.936-1.827,0.604
	c-0.604-0.332-1.721,0.725-2.159,1.223c-0.453,0.498-0.845,0.664-1.344,0.846c0-1.238,0.061-5.571,0.121-6.114
	c0.045-0.558-0.453-0.724-0.845-0.724c-0.378,0-4.106-0.106-4.65-0.106c-0.559,0-0.785,0.272-0.891,0.83
	c-0.121,0.544-0.453,6.597-0.453,7.156s-0.378,0.664-0.709,0.438c-0.332-0.226-1.842-0.875-2.884-1.449
	c-1.057-0.543-1.736,1.073-2.446,1.948c-0.724,0.891-1.117,0.287-0.664-0.317c0.438-0.619,2.264-4.121,2.823-4.997
	c0.559-0.906,0.438-1.343-0.106-1.721c-0.558-0.393-2.008-1.237-2.717-1.615c-0.725-0.378-1.223-0.121-1.555,0.498
	c-0.332,0.604-2.113,3.653-2.778,4.498c-0.664,0.83-1.162-0.211-2.219,0.996c-0.513,0.604-2.053,2.159-2.778,2.718
	c-0.71,0.558-1.102-0.559-1.102-1.329c0-0.77-0.061-5.661-0.061-6.371c0-0.725,0.106-1.284-1.102-1.343
	c-1.238-0.046-3.834-0.106-4.619-0.106c-0.77,0-1.042,0.544-1.042,1.162c0,0.604-0.06,6.597-0.06,7.262
	c0,0.664-0.332,0.891-1.057,0.891h-4.167c-0.71,0-0.71,0.498-0.71,1.057c0,0.89,0.045,4.226,0.045,4.831
	c0,0.618,0.725,0.769,1.057,0.769h3.276c0.377,0,0.574,0.619,0.498,1.223c-0.725,6.266-5.329,12.998-6.265,14.206
	c-0.951,1.223-0.619,1.615,0,2.325c0.604,0.724,2.37,2.234,3.548,3.23c1.162,0.996,1.615,0.377,1.947,0.06
	c0.317-0.346,0.77-0.845,1.163-1.178c0.392-0.332,0.438-0.105,0.438,0.559v14.145c0,0.952,0.559,1.329,1.057,1.329h4.77
	c0.664,0,0.996-0.438,1.102-1.162c0.121-0.725,0.332-17.814,0.332-19.414c0-1.223,0.287-0.664,1.223,0
	c0.589,0.407,0.725,0.377,1.238,0c0.483-0.393,2.37-3.835,2.597-4.212c0.226-0.408,0.498-0.951-0.105-1.449
	c-0.604-0.498-4.71-5.601-5.103-8.333c-0.106-0.74,0.211-1.329,0.996-1.329h2.597c0.453,0,0.679-0.211,0.725-0.619
	c0.06-0.377,0.181-1.162,0.287-1.646c0.106-0.498,0.498-0.784,0.83-0.452c0.332,0.332,1.102,1.284,1.495,1.66
	c0.392,0.393,0.166,0.846-0.106,1.223c-0.287,0.408-1.162,1.661-1.449,2.054c-0.272,0.393-0.83,0.679-1.449,0.845
	c-0.604,0.151-0.77,0.317-0.664,1.223c0.121,0.875,0.559,2.325,0.785,3.11c0.226,0.755,0.453,0.709,1.057,0.709
	c0.604,0,5.706-0.709,6.657-0.89c0.936-0.167,1.495,0.121,1.495,0.558c0,0.83,0.287,0.83,1.223,0.724
	c0.951-0.121,1.993-0.438,2.445-0.438c0.438,0,0.498-0.513,0.438-1.012c-0.045-0.498,0.393-0.558,0.393,0.106
	c0,0.679,0.106,1.615,0.166,2.128c0.06,0.484-0.06,0.484-0.393,0.484h-10.311c-1.011,0-1.178,0.724-1.117,1.72
	c0.06,1.012,0.06,5.601-0.438,9.828c-0.513,4.212-3.563,6.824-4.333,7.548c-0.785,0.709-0.604,1.057-0.287,1.495
	c0.332,0.438,3.834,3.397,4.393,3.774c0.559,0.393,0.785,0.182,1.268-0.272c2.445-2.339,4.227-6.446,4.831-8.121
	c0.528-1.404,1.057-0.65,1.328-0.438c0.287,0.226,1.011,1.057,1.676,1.781c0.664,0.724,1.223,0.393,1.6,0.106
	c0.392-0.257,2.732-2.054,3.11-2.491c0.393-0.438,0.453-0.724,0.06-1.223c-0.393-0.498-2.717-2.989-3.215-3.427
	c-0.513-0.452-1.117-0.347-1.615-0.06c-0.498,0.271-0.936,0.604-1.329,0.875c-0.393,0.287-0.619,0.287-0.453-0.317
	c0.166-0.619,0.287-3.277,0.287-3.729c0-0.453,0.604-0.709,1.163-0.709h4.378c0.559,0,0.951,0.483,1.011,0.936
	c0.045,0.452,2.265,6.114,2.717,6.718c0.438,0.604,0.166,1.162-0.121,1.434c-1.887,1.826-7.156,4.604-7.88,4.997
	c-0.71,0.393-0.83,0.393-0.378,1.178c0.438,0.755,2.823,3.095,3.548,3.488c0.725,0.377,0.996,0.287,1.495,0.105
	c0.498-0.166,5.223-2.43,6.552-4.045c0.302-0.363,1.102-0.333,1.434,0c0.332,0.332,3.774,3.652,5.782,4.106
	c2.204,0.483,3.88-0.166,5.042-2.053c0.981-1.586,1.555-3.895,1.781-5.058c0.211-1.162,0.211-1.329-0.498-1.887
	c-0.725-0.544-2.672-1.554-3.608-2.114c-0.951-0.543-1.343,1.344-1.781,1.887c-0.438,0.559-1.057,0.619-1.6,0
	c-0.558-0.604-0.06-1.6,0.272-2.037c0.332-0.453,1.615-2.175,1.947-2.672c0.332-0.498,0.664-1.042-0.121-1.495
	c-0.77-0.439-2.883-1.661-4.046-2.009c-1.162-0.317-1.661,0.619-2.053,1.118s-0.724,0.272-0.891-0.106
	c-0.166-0.393-0.378-0.89-0.604-1.615c-0.226-0.709,0.378-0.996,0.997-0.996c0.604,0,9.48-0.121,10.205-0.121
	s1.011-0.604,1.057-1.163c0.06-0.544,0.166-2.204,0.166-3.155c0-0.936-0.77-1.284-1.389-1.284h-2.823
	c-0.951,0-0.543-0.407-0.226-0.83c0.166-0.211,0.166-0.438,0.06-0.875c-0.121-0.453-0.664-1.284-0.951-1.887
	C197.959,64.811,198.23,64.267,198.668,64.147 M176.809,61.037c-0.136,0.393-1.102,0.604-1.495,0.498
	c-0.226-0.061,0.891-0.604,1.283-1.042C176.975,60.025,177.035,60.373,176.809,61.037 M181.594,62.139
	c-0.061-0.438-0.725-2.325-0.785-2.808c-0.06-0.513-0.196-0.952-0.951-0.725c-0.936,0.257-1.993,0.378-1.313-0.845
	c0.423-0.785,2.038-3.547,2.431-3.88c0.392-0.332,0.724-0.785,0.724,0c0,0.77,0.226,7.82,0.226,8.258
	C181.926,62.592,181.639,62.592,181.594,62.139 M193.732,68.646h-3.653c-0.332,0-0.74-0.347-0.83-0.846
	c-0.664-3.653-0.785-13.028-0.724-14.371c0.03-0.664,0-0.831,0.438-0.333c0.453,0.513,3.231,3.005,3.563,3.563
	c0.332,0.544,0.438,0.664,0.105,1.041c-0.332,0.393-0.83,1.449-1.223,1.721c-0.393,0.287-0.619,0.407-0.996,0.513
	c-0.997,0.272-1.283,0.151-1.283,0.77c0,0.604,0.83,3.653,1.057,4.226c0.226,0.544,0.392,0.378,0.951,0.438
	c0.559,0.061,0.936-0.06,1.223-0.06c0.272,0,0.604-0.227,0.77,0.377c0.166,0.619,0.604,1.676,0.891,2.234
	C194.29,68.479,194.185,68.646,193.732,68.646 M197.732,60.267c-0.604,0.106-0.664-0.679,0-1.283
	c0.664-0.604,1.555-0.664,1.117-0.438c-0.453,0.211,0.106,0.724,0.106,1.041c0,0.347-0.257,0.302-0.559,0.438
	C198.291,60.086,198.11,60.192,197.732,60.267"/>
<path d="M260.933,55.882c-0.045-1.132-0.785-1.178-1.344-1.178c-0.543,0-5.359-0.136-6.582-0.136
	c-1.223,0-1.374-0.74-1.374-1.192c0-0.438,0.076-8.545,0.076-9.255c0-0.694-0.181-1.102-0.845-1.102
	c-0.664,0-4.589-0.15-5.556-0.105c-0.966,0.029-1.328,0.301-1.328,1.132c0,0.588-0.03,9.072-0.03,9.556
	c0,0.467-0.408,0.815-0.996,0.815h-2.672c-0.695,0-0.891-0.422-0.891-0.815v-1.344c0-0.317-0.03-0.8-0.664-0.875
	c-0.634-0.076-8.62-0.332-9.179-0.332c-0.544,0-0.589-0.529-0.589-1.223c0-0.709,0.589-0.635,0.996-0.709
	c0.408-0.076,5.133-0.846,6.069-1.118c0.951-0.287,0.559-0.936,0.166-1.554c-0.378-0.619-1.721-2.446-2.325-3.277
	c-0.604-0.83-0.996-0.452-1.781-0.227c-0.77,0.227-5.707,1.389-8.107,1.51c-2.37,0.106-9.767,0.106-10.93,0.106
	c-1.162,0-1.147,0.317-0.664,1.328c0.257,0.544,1.298,3.065,1.525,3.714c0.211,0.664,1.027,0.74,1.661,0.694
	c0.634-0.029,4.695-0.075,5.148-0.075c0.438,0,0.362,0.573,0.06,0.618c-0.287,0.016-9.013,0.212-9.344,0.212
	c-0.347,0-0.861,0.181-1.042,1.057c-0.181,0.906-0.151,2.415-0.181,3.185c-0.045,0.785,0.106,1.298,1.359,1.374
	c1.268,0.075,8.439,0.226,8.816,0.226c0.362,0,0.513,0.287,0.513,0.664c0,0.362-0.076,0.558-0.483,0.558
	c-0.408,0-6.431,0.076-7.473,0.076c-1.026,0-1.328,0.106-1.328,1.102c0,0.997-0.151,12.696-0.151,14.145
	c0,1.435-0.226,1.6,1.223,1.766c1.661,0.182,7.624,0.182,7.986,0.182c0.377,0,0.408,1.041,0.045,1.041h-8.077
	c-0.513,0-1.479-0.03-1.555,1.343c-0.075,1.359-0.03,1.419-0.03,2.551c0,1.102,0.287,1.223,1.147,1.329
	c1.147,0.136,6.25,0.287,7.775,0.287c1.51,0,1.328,1.525,0.407,1.782c-0.921,0.256-8.333,0.589-9.224,0.664
	c-0.876,0.075-0.845,0.181-0.996,1.102c-0.136,0.935,0.408,3.668,0.589,4.634c0.196,0.967,0.634,0.981,1.932,0.921
	c1.298-0.076,19.535-1.842,20.455-1.887c0.921-0.03,0.257,0.815-0.075,1.404c-0.332,0.589-0.181,1.011,0.196,1.328
	c0.362,0.347,4.317,2.627,4.982,2.989c0.679,0.378,1.072,0.196,1.374-0.015c0.302-0.227,3.472-4.71,4.001-5.525
	c0.498-0.785,0.438-0.891,1.132-0.136c0.558,0.589,1.826,3.653,2.159,4.498c0.332,0.861,0.876,1.118,1.661,1.042
	c3.397-0.332,6.582-0.92,8.213-3.246c2.083-2.989,3.14-8.046,3.517-13.919C260.993,66.737,260.963,57.044,260.933,55.882
	 M221.275,69.559c0,0.136-0.121,0.242-0.257,0.242h-1.721c-0.136,0-0.257-0.106-0.257-0.242v-0.8c0-0.135,0.121-0.256,0.257-0.256
	h1.721c0.136,0,0.257,0.121,0.257,0.256V69.559z M221.275,64.261c0,0.151-0.121,0.256-0.257,0.256h-1.721
	c-0.136,0-0.257-0.105-0.257-0.256V63.46c0-0.121,0.121-0.241,0.257-0.241h1.721c0.136,0,0.257,0.121,0.257,0.241V64.261z
	 M229.11,63.581c0-0.15,0.106-0.241,0.257-0.241h1.721c0.121,0,0.242,0.091,0.242,0.241v0.801c0,0.135-0.121,0.256-0.242,0.256
	h-1.721c-0.151,0-0.257-0.121-0.257-0.256V63.581z M229.11,69.665V68.88c0-0.151,0.106-0.256,0.257-0.256h1.721
	c0.121,0,0.242,0.105,0.242,0.256v0.785c0,0.136-0.121,0.257-0.242,0.257h-1.721C229.216,69.922,229.11,69.801,229.11,69.665
	 M237.549,84.052c-0.136,0.182-0.483-0.076-0.483-0.332c0-0.257-0.106-0.921-0.891-0.846c-0.77,0.061-6.401,0.317-6.627,0.317
	c-0.211,0-0.287-0.181-0.287-0.513c0-0.332,0-0.513,0.362-0.513h7.292c0.483,0,1.147-0.302,1.147-1.041v-3.322
	c0-0.452-0.362-1.117-1.223-1.117c-0.845,0-6.824-0.091-7.337-0.091c-0.226,0-0.393-1.026,0.045-1.026h7.367
	c0.71,0,1.223-0.438,1.223-1.178c0-0.739,0.151-13.828,0.151-14.87c0-1.041-0.302-1.284-1.072-1.284h-7.518
	c-0.211,0-0.347-0.301-0.362-0.589c-0.015-0.332,0.106-0.634,0.408-0.634c1.223,0,8.092,0.106,8.469,0.106
	c0.362,0,0.891,0.182,0.891,0.996c0,0.815-0.076,2.175-0.076,3.185c0,0.981,0.076,1.541,1.208,1.541h1.857
	c0.362,0,1.193,0.271,1.072,1.298C242.621,69.514,240.236,79.946,237.549,84.052 M250.607,85.757
	c-0.408,0.695-1.329,1.435-2.189,1.359c-0.845-0.076-2.446-0.332-2.778-0.468c-0.332-0.151-0.377-0.649-0.136-1.162
	c0.619-1.314,2.657-6.794,3.955-12.047c0.996-4.03,1.419-8.092,1.736-9.631c0.121-0.604,0.438-0.845,0.861-0.845
	c0.407,0,0.755,0.272,0.876,0.845C253.189,65.03,253.34,81.032,250.607,85.757"/>
<path d="M329.7,50.271c0.332,0,15.911,0.227,16.651,0.227c0.74,0,1.147-0.558,1.147-1.162
	c0-0.589-0.045-3.11-0.045-3.699c0-0.589-0.408-0.952-1.102-0.952c-0.709,0-15.247-0.076-16.198-0.076
	c-0.966,0-1.268,0.302-1.268,1.178c0,0.514-0.136,2.672-0.136,3.488C328.749,50.076,329.368,50.271,329.7,50.271"/>
<path d="M349.463,51.938c-0.71-0.075-21.346,0-22.011,0s-1.042,0.333-1.147,0.952
	c-0.075,0.452-0.181,4.347-0.181,4.891c0,0.558,0.694,0.679,1.283,0.679c0.604,0,21.528,0.167,22.207,0.091
	c0.664-0.061,0.876-0.438,0.921-1.102c0.03-0.664,0.075-3.895,0.075-4.484S350.157,52.013,349.463,51.938"/>
<path d="M346.611,60.517c-0.559,0-16.047-0.105-16.712-0.105c-0.679,0-0.86,0.301-1.011,1.057
	c-0.075,0.377-0.106,3.124-0.106,3.85c0,0.739,0.513,0.906,0.996,0.981c0.483,0.075,16.093,0.181,16.802,0.181
	c0.695,0,0.966-0.664,0.966-1.086c0-0.393,0.03-3.291,0.03-3.88S347.169,60.517,346.611,60.517"/>
<path d="M346.721,68.508c-0.589,0-16.093-0.15-16.802-0.15c-0.695,0-0.951,0.422-1.027,1.086
	c-0.045,0.287-0.075,2.733-0.075,3.473c0,0.739,0.589,1.026,1.102,1.026c0.528,0,15.655,0.196,16.44,0.196
	c0.77,0,1.057-0.453,1.177-1.042c0.106-0.589,0.151-2.883,0.151-3.517S347.31,68.508,346.721,68.508"/>
<path d="M347.684,75.83c-1.042-0.106-18.161,0.045-18.87,0.045c-0.709,0-1.026,0.302-1.042,1.072
	c0,0.513,0.045,16.681,0.045,17.346s0.664,0.952,1.072,0.952c0.408,0,4.801,0.09,5.435,0.09c0.634,0,0.589-0.227,0.891-0.77
	c0.302-0.573,0.302-0.966,1.072-0.966c0.785,0,3.397-0.151,3.774-0.151c0.378,0,0.453,0.227,0.891,0.966
	c0.226,0.378,0.362,0.589,0.921,0.589c0.559,0,5.435-0.045,5.963-0.045c0.513,0,1.072-0.694,1.072-1.403
	c0-0.709-0.045-15.731-0.045-16.349C348.862,76.57,348.726,75.951,347.684,75.83 M340.544,85.491c0,0.559-0.151,0.74-0.664,0.74
	h-3.955c-0.272,0-0.679-0.076-0.679-0.544v-2.083c0-0.438,0.151-0.739,0.528-0.739c0.362,0,3.729-0.121,4.136-0.121
	s0.634,0.15,0.634,0.634V85.491z"/>
<path d="M378.579,82.941c-0.559-0.271-4.921-2.113-5.329-2.219c-0.408-0.106-0.438,0.03-0.664,0.438
	c-0.226,0.408-0.332,2.265-0.785,3.699c-0.438,1.449-1.51,1.932-2.657,2.083c-0.559,0.076-6.325,0-7.246,0
	c-0.936,0-1.238-0.815-1.298-1.646c-0.076-0.8,0.06-13.013,0.106-13.496c0.045-0.483,0.453-0.74,0.921-0.769
	c0.483-0.046,5.027-0.076,6.114-0.076c1.072,0,1.026,0.513,1.026,1.102c0,0.589,0.453,0.634,1.193,0.664
	c0.74,0.045,5.148-0.106,6.28-0.106c1.147,0,0.966-0.725,1.011-1.359c0.03-0.634-0.121-23.943-0.121-24.984
	c0-1.026-0.559-1.374-1.178-1.374c-0.634,0-21.241-0.257-22.343-0.257c-1.117,0-1.48,0.453-1.48,1.374v4.921
	c0,0.861,0.921,0.952,1.329,0.952h14.432c0.77,0,0.77,0.346,0.77,0.785c0,0.438,0.03,9.148,0.03,9.661
	c0,0.513-0.619,0.559-0.921,0.559c-0.287,0-13.466,0.105-14.311,0.105c-0.861,0-1.329,0.333-1.329,1.072
	c0,0.74-0.121,20.833-0.121,23.944c0,4.392,4.514,6.733,6.839,6.733c2.34,0,10.401,0.03,13.36,0.03s4.333-1.329,5.178-2.733
	c0.861-1.404,1.751-5.631,1.932-6.914C379.5,83.832,379.138,83.199,378.579,82.941"/>
<path fill="#E60012" d="M504.547,46.794c1.192,0,1.524-0.075,2.038-1.223c0.408-0.89,1.223-2.4,1.479-2.989
	c0.257-0.589,0.861-1.011,1.48-1.011h4.257c1.042,0,1.374,0.513,0.891,1.751c-0.483,1.223-0.785,1.917-0.967,2.325
	c-0.181,0.408-0.181,0.997,0.332,0.997c0.528,0,5.51,0.272,6.024,0.272c0.528,0,1.479,0.393,0.936,1.434
	c-0.558,1.042-7.367,14.614-7.593,15.127c-0.211,0.528-0.997,0.861-2.023,1.449c-1.042,0.589-15.474,7.699-16.062,8.016
	c-0.589,0.346-0.996,0.663-1.66-0.03c-0.664-0.695-2.702-3.034-3.186-3.744c-0.483-0.68-0.966-0.906,0.257-1.586
	c1.223-0.664,15.579-7.095,16.168-7.397c0.589-0.302,1.479-0.695,1.932-1.706c0.438-0.997,1.993-4.137,2.219-4.62
	c0.211-0.468,0.257-0.89-0.302-0.89c-0.558,0-8.62-0.076-9.254-0.076c-0.619,0-1.026,0.226-1.328,0.861
	c-0.302,0.618-1.691,3.547-1.963,4.136c-0.196,0.468-0.664,0.936-1.555,0.936c-0.891,0-3.653,0.075-4.257,0.075
	c-0.589,0-1.072-0.271-0.664-1.223c0.408-0.966,4.771-9.631,4.997-10.145c0.227-0.513,0.815-0.815,1.63-0.815
	C499.188,46.719,504.14,46.794,504.547,46.794"/>
<path fill="#E60012" d="M519.201,57.157c-0.182-0.604-0.332-0.966,0.332-1.268c0.664-0.301,16.727-5.962,17.135-6.174
	c0.619-0.332,0.755-0.347,1.072-0.845c0.362-0.604,2.551-5.873,2.853-6.446c0.287-0.558,0.725-0.725,1.178-0.725
	c0.438,0,4.151,0.061,4.77,0.091c0.634,0.045,1.223,0.271,0.891,1.298c-0.332,1.041-4.559,9.435-4.816,9.933
	c-0.257,0.468-0.468,0.801-1.132,1.178c-0.679,0.362-4.967,1.917-5.269,2.053c-0.287,0.151-0.438,0.272-0.513,0.498
	c-0.076,0.212-6.295,12.786-6.582,13.3c-0.302,0.544-0.815,0.861-1.374,0.861c-0.558,0-3.85,0.045-4.62,0.045
	c-0.785,0-1.555-0.589-0.739-2.249c0.815-1.675,3.88-8.046,4.106-8.333c0.227-0.301,0.227-0.664-0.332-0.483
	c-0.559,0.182-3.82,1.147-4.212,1.298c-0.422,0.135-0.891,0.211-1.117-0.302C520.53,60.221,519.307,57.52,519.201,57.157"/>
<path fill="#E60012" d="M549.283,43.02c-0.302-0.951-0.408-1.403,0.588-1.403c0.997,0,4.544,0.076,5.073,0.076
	c0.513,0,1.072,0.301,1.253,0.966c0.181,0.664,2.551,7.91,2.778,8.938c0.226,1.056,0.483,1.751-0.528,1.751
	c-0.981,0-3.88,0.045-4.876,0.045c-0.997,0-1.148-0.076-1.404-0.936C551.909,51.595,549.433,43.503,549.283,43.02"/>
<path fill="#E60012" d="M567.557,46.645c0.468-0.558,1.072-0.815,1.66-0.815c0.589,0,4.031,0.105,4.408,0.151
	c0.363,0.029,0.483,0.181,0.695,0.362c0.226,0.181,0.302,0.528,0.045,0.936c-0.257,0.393-16.244,21.784-16.832,22.553
	c-0.604,0.785-0.936,1.223-2.144,1.223c-1.223,0-15.504-0.029-16.364-0.105c-0.845-0.076-1.208-0.106-0.876-1.118
	c0.332-0.981,1.585-3.533,1.993-4.212c0.408-0.664,0.996-0.89,1.887-0.89c0.891,0,9.465-0.03,10.069-0.03
	c0.845,0,1.329-0.045,1.585-0.408C553.94,63.931,567.149,47.129,567.557,46.645"/>
<path fill="#E60012" d="M580.766,42.531c0.392-0.588,0.891-0.739,1.404-0.739c0.513,0,3.653-0.151,4.182,0.076
	c0.513,0.226,0.891,0.634,0.634,1.298c-0.257,0.664-1.162,2.838-1.343,3.215c-0.182,0.363-0.287,0.921,0.453,0.921
	c0.739,0,9.994,0.121,10.99,0.121c0.996,0,1.298,0.664,0.815,1.676c-0.483,0.98-9.556,19.036-10.069,19.972
	c-0.513,0.92-0.996,1.917-2.596,1.917c-1.585,0-17.708,0.045-18.342,0.045c-0.634,0-1.585,0.03-1.072-1.131
	c0.513-1.132,1.811-3.608,2.174-4.212c0.377-0.589,0.558-0.952,1.781-0.952H581.4c0.845,0,1.51-0.15,1.917-1.041
	c0.408-0.875,4.212-8.137,4.59-8.937c0.377-0.831,0.332-1.449-0.634-1.449h-4.106c-0.664,0-1.359,0.151-1.842,1.178
	c-0.483,1.026-1.057,2.325-1.343,2.913c-0.363,0.785-0.951,1.223-1.736,1.223c-0.77,0-3.593,0.121-4.393-0.03
	c-0.815-0.135-1.148-0.604-0.604-1.781C573.806,55.636,580.54,42.864,580.766,42.531"/>
<path fill="#E60012" d="M594.234,42.798c0.332-0.618,0.739-0.86,1.253-0.89c0.528-0.045,2.551-0.136,3.08,0.106
	c0.513,0.271,0.921,0.483,0.619,1.192c-0.287,0.695-0.619,1.449-0.845,1.917c-0.226,0.498-0.966,1.178-1.781,1.253
	c-0.8,0.075-2.295,0.121-2.808,0.121c-0.513,0-0.996-0.106-0.709-1.148C593.343,44.322,594.007,43.206,594.234,42.798"/>
<path fill="#E60012" d="M600.557,42.651c0.453-0.649,1.026-0.739,1.66-0.739h2.114c0.694,0,1.449,0.618,0.996,1.524
	c-0.438,0.876-0.921,1.737-1.178,2.175c-0.257,0.452-0.709,0.769-1.374,0.769c-0.664,0-1.781-0.029-2.627-0.029
	c-0.649,0-1.223-0.257-0.921-1.178C599.516,44.237,600.3,43.014,600.557,42.651"/>
<path d="M272.912,55.815c0.513-0.301,4.106-2.188,4.71-2.505c0.589-0.333,0.649-0.815,0.287-1.57
	c-0.377-0.725-2.808-5.133-3.367-6.054c-0.438-0.74-0.845-0.875-1.449-0.634c-0.589,0.272-3.955,1.963-4.695,2.37
	c-0.74,0.407-0.649,0.679-0.257,1.555c0.408,0.92,3.065,5.917,3.336,6.521C271.765,56.163,272.399,56.117,272.912,55.815"/>
<path d="M280.314,54.784c0.302,0.785,0.891,0.74,1.404,0.589c0.513-0.15,3.819-1.54,4.559-1.962
	c0.74-0.393,0.544-0.664,0.362-1.374c-0.181-0.695-2.446-6.25-2.808-7.231c-0.377-1.012-1.374-0.756-1.962-0.484
	c-0.604,0.257-3.442,1.329-3.774,1.465c-0.513,0.226-0.709,0.589-0.438,1.524C277.944,48.339,280.012,54,280.314,54.784"/>
<path d="M288.561,54.901c0.71,0.257,3.955,0.77,4.74,0.952c0.77,0.181,1.147-0.408,1.434-1.102
	c0.302-0.709,2.747-6.884,3.004-7.76c0.257-0.906-0.075-1.086-0.664-1.268c-0.604-0.182-4.303-1.298-4.967-1.449
	c-0.664-0.151-1.253-0.423-1.509,0.604c-0.121,0.438-2.446,7.427-2.778,8.529C287.489,54.524,287.867,54.63,288.561,54.901"/>
<path d="M320.793,85.057c-0.302-0.272-3.11-2.822-3.819-3.411c-0.71-0.589-0.921-0.046-1.223,0.513
	c-0.287,0.558-0.845,2.038-1.374,2.672c-0.513,0.618-0.951,0.226-1.313-0.196c-0.378-0.393-1.63-2.355-1.887-2.717
	c-0.272-0.378-0.211-1.073,0.06-1.6c0.407-0.785,5.223-10.175,5.782-11.579c0.453-1.162,0.03-1.706-0.483-1.857
	c-0.528-0.135-3.367-1.284-4.106-1.66c-0.74-0.362-0.075-0.664,0.226-0.709c0.287-0.03,5.208-1.026,5.993-1.178
	c0.77-0.151,0.876-0.861,0.876-1.268c0-0.393-0.695-4.213-0.8-4.952c-0.121-0.74-0.906-0.861-1.449-0.77
	c-0.559,0.061-9.556,1.585-10.145,1.631c-0.589,0.029-0.891,0.029-0.966-0.936c-0.06-0.951,0-11.322,0-12.304
	c0-1.012-0.438-1.193-1.147-1.269c-0.694-0.075-4.469-0.029-5.057,0c-0.589,0.046-0.921,0.333-0.996,1.374
	c-0.121,1.435,0.181,13.452,0.181,13.723c0,0.257-0.151,0.514-0.332,0.559c-0.196,0.029-0.845,0.211-1.253,0.362
	c-0.407,0.151-0.453,0.302-0.423,1.253c0.045,0.966,0.679,4.664,0.83,5.449c0.136,0.77,0.815,0.635,1.147,0.589
	c0.332-0.029,0.589-0.076,0.74,0.664c0.105,0.589,1.811,9.496,2.612,11.911c0.257,0.725,0.091,1.269-0.257,1.706
	c-0.332,0.438-2.038,2.748-2.989,3.261c-0.634,0.332-0.709,0.211-0.891-0.272c-0.181-0.468-0.226-1.178-0.257-1.963
	c-0.045-0.77-0.151-1.026-0.996-1.026c-0.86,0-7.367-0.227-8.182-0.227s-0.921-0.257-0.921-0.664c0-0.407,0.287-0.558,0.996-0.558
	s5.767-0.076,6.476-0.076c0.695,0,0.996-0.362,0.996-1.223c0-0.83,0.105-18.494,0.105-19.61c0-1.102-0.181-1.464-1.102-1.464
	c-0.936,0-23.203,0.076-24.049,0.076s-0.921,0.241-0.921,0.92v20.23c0,1.072,0.845,0.996,1.359,0.996
	c0.528,0,6.959,0.106,7.412,0.106c0.438,0,0.589,0.346,0.589,0.679c0,0.332-0.302,0.544-0.559,0.544s-8.665,0.076-9.224,0.076
	c-0.544,0-1.132-0.106-1.132,0.935c0,1.027-0.226,3.261-0.151,4.438c0.076,1.193,0.559,1.148,1.072,1.148
	c0.513,0,8.726,0.226,9.465,0.226c0.74,0,0.966,0.589,0.966,1.223c0,0.393-0.03,5.088-0.03,5.752c0,0.664,0.136,0.83,0.695,0.906
	c0.559,0.076,5.178,0.076,5.737,0.076c0.559,0,0.664-0.559,0.664-0.981c0-0.393,0.196-5.435,0.196-6.129
	c0-0.709,0.996-0.921,1.434-0.921c0.453,0,4.816,0.046,5.254,0.046c0.438,0,0.559,0.166,0.362,0.317
	c-0.181,0.15-0.951,0.709-1.359,1.102c-0.408,0.422-0.634,0.634-0.181,1.147c0.438,0.528,3.623,3.533,4.317,4.075
	c0.71,0.559,1.117,0.227,1.676-0.029c0.543-0.272,5.54-5.329,6.099-5.737c0.559-0.408,0.996-0.287,1.298,0.03
	c0.544,0.634,1.51,2.868,5.54,5.811c2.068,1.51,4.182,0.952,5.661-0.438c1.48-1.403,3.08-5.299,3.563-6.476
	C321.669,86.205,321.08,85.299,320.793,85.057 M280.094,73.433c0,0.151-0.106,0.256-0.257,0.256h-1.6
	c-0.136,0-0.257-0.105-0.257-0.256v-1.827c0-0.135,0.121-0.256,0.257-0.256h1.6c0.151,0,0.257,0.121,0.257,0.256V73.433z
	 M280.094,65.568c0,0.121-0.106,0.241-0.257,0.241h-1.6c-0.136,0-0.257-0.121-0.257-0.241v-1.842c0-0.136,0.121-0.241,0.257-0.241
	h1.6c0.151,0,0.257,0.105,0.257,0.241V65.568z M287.536,63.726c0-0.136,0.106-0.241,0.242-0.241h1.615
	c0.121,0,0.242,0.105,0.242,0.241v1.842c0,0.121-0.121,0.241-0.242,0.241h-1.615c-0.136,0-0.242-0.121-0.242-0.241V63.726z
	 M287.536,73.433v-1.827c0-0.135,0.106-0.256,0.242-0.256h1.615c0.121,0,0.242,0.121,0.242,0.256v1.827
	c0,0.151-0.121,0.256-0.242,0.256h-1.615C287.642,73.69,287.536,73.585,287.536,73.433 M310.241,65.915
	c-0.106,0.756-1.253,3.669-1.782,4.303c-0.302,0.378-0.619,1.102-0.845,0.378c-0.211-0.756-0.589-2.159-0.74-3.307
	c-0.091-0.694-0.076-1.479,0.528-1.675c0.589-0.166,1.811-0.393,2.249-0.393C310.09,65.221,310.347,65.176,310.241,65.915"/>
<path d="M311.021,55.298c0.438,0.861,1.223,0.302,1.66,0.151c0.453-0.151,3.367-1.887,4.106-2.4
	c0.74-0.528,0.634-1.162,0.302-1.842c-0.332-0.709-3.11-5.449-3.774-6.234c-0.664-0.77-1.072-0.634-1.63-0.287
	c-0.559,0.332-3.487,2.008-4.106,2.445c-0.634,0.438-0.332,0.89-0.075,1.403C308.062,49.608,310.584,54.453,311.021,55.298"/>
</svg>
