<?xml version="1.0" encoding="utf-8"?>
<!-- Generator: Adobe Illustrator 27.0.1, SVG Export Plug-In . SVG Version: 6.00 Build 0)  -->
<svg version="1.1" id="레이어_1" xmlns="http://www.w3.org/2000/svg" xmlns:xlink="http://www.w3.org/1999/xlink" x="0px"
	 y="0px" viewBox="0 0 720 686.853" enable-background="new 0 0 720 686.853" xml:space="preserve">
<path fill="#009B73" d="M708.433,358.472H473.956l0.154,33.541l162.123-0.215c3.236,48.306-29.07,83.975-38.811,93.562
	c-17.296-23.121-40.571-41.649-67.359-30.798c0,0,2.619-0.461,16.554,34.004c13.933,34.497,53.27,96.8,96.8,87.398
	c0,0-6.474-12.486-16.678-37.457c-4.471-10.943-14.119-32.215-27.714-50.989C712.07,476.513,708.433,358.472,708.433,358.472"/>
<g>
	<path fill="#009B73" d="M634.308,588.559c-46.934,0-84.385-60.873-98.444-95.615c-8.58-21.194-12.373-27.878-13.517-29.714
		c-1.596-1.415-2.83-3.312-3.462-5.479c-1.626-5.72,1.325-11.741,6.804-13.939c17.521-7.105,43.593-8.038,72.223,23.783
		c10.657-12.975,25.289-35.735,26.794-64.185l-150.587,0.211l0,0c-6.382,0-11.56-5.178-11.621-11.56l-0.181-33.537
		c0-3.101,1.204-6.051,3.402-8.249c2.168-2.198,5.118-3.432,8.219-3.432h234.46c6.262,0,11.41,4.997,11.591,11.259
		c0.06,1.234,2.348,115.815-101.365,138.123c8.941,14.962,15.384,29.353,18.876,37.873c9.784,24.054,16.076,36.217,16.227,36.518
		c1.656,3.221,1.746,7.015,0.211,10.296c-1.535,3.281-4.516,5.66-8.068,6.412C641.955,588.168,638.101,588.559,634.308,588.559z
		 M548.478,463.231c2.529,5.509,5.419,12.434,8.881,20.983c12.735,31.46,39.98,71.44,67.526,79.599
		c-2.499-5.63-5.479-12.614-8.881-20.953c-4.305-10.447-13.457-30.707-26.372-48.53c-0.241-0.331-0.482-0.692-0.692-1.054
		c-0.271-0.301-0.542-0.632-0.813-0.963C574.579,474.219,561.302,464.495,548.478,463.231z M636.205,380.17
		c6.111,0,11.169,4.757,11.591,10.838c2.228,33.297-10.657,60.963-23.271,79.599c58.675-18.786,69.784-75.956,71.831-100.522
		H485.618l0.03,10.296L636.205,380.17L636.205,380.17z"/>
</g>
<path fill="#FFFFFF" d="M300.363,382.641c0,10.699,4.162,16.34,9.124,16.34c13.258,0,17.111-37.024,18.127-50.897
	C303.938,352.246,300.363,373.918,300.363,382.641 M329.003,407.21c11.775-0.523,35.914-1.601,35.914-32.277
	c0-7.829-2.683-25.864-26.019-27.343c-1.603,16.432-3.268,34.156-10.791,48.308c-1.695,3.082-7.521,13.965-19.021,13.965
	c-12.977,0-19.514-14.829-19.514-28.702c0-23.86,16.833-43.961,46.242-43.961c32.864,0,41.495,22.568,41.495,38.813
	c0,39.304-35.144,41.186-45.44,41.679L329.003,407.21z"/>
<g>
	<path fill="#E50012" d="M331.87,429.302c-5.208,0-9.814-3.492-11.199-8.58l-0.391-1.475c-4.004,1.686-7.888,2.228-11.199,2.228
		c-20.442,0-31.129-20.291-31.129-40.311c0-32.183,24.355-55.574,57.862-55.574c39.197,0,53.106,27.185,53.106,50.426
		c0,18.906-7.346,50.968-56.508,53.256C332.231,429.272,332.05,429.302,331.87,429.302z M326.993,349.583
		c-18.876,3.552-25.8,18.515-25.8,31.581c0,8.068,3.221,17.07,7.888,17.07c3.071,0,5.931-2.559,8.761-7.827
		C323.862,379.117,325.578,364.245,326.993,349.583z M348.939,362.86c-1.295,10.447-3.251,21.104-7.165,30.978
		c7.797-2.318,11.53-7.466,11.53-18.906C353.305,368.821,351.438,365.118,348.939,362.86z"/>
</g>
<g>
	<path fill="#E50012" d="M309.501,410.607c-10.326,0-20.773-8.67-20.773-27.968c0-18.244,9.664-41.214,36.879-46.001
		c3.673-0.692,7.165,0.421,9.814,2.83c2.649,2.408,4.034,5.901,3.763,9.453C336.084,391.008,326.661,410.607,309.501,410.607z"/>
</g>
<path fill="#E50012" d="M226.932,258.498h68.407c-2.188,1.944-19.977,16.31-37.487,26.297
	C239.356,273.358,233.004,265.804,226.932,258.498 M164.629,221.013h110.487v16.554H164.629V221.013z M275.116,203.224H164.629
	v-15.075h110.487V203.224z M161.946,167.216c12.64-7.06,37.487-21.919,59.622-43.342c25.556,23.614,41.617,34.804,56.971,43.342
	h-45.534v-23.121h-24.816v23.121H161.946z M329.189,259.946l-18.991-15.566c-3.176,3.667-5.118,5.825-10.482,10.45v-76.915
	c14.119,6.104,20.193,8.292,27.499,10.727l13.164-23.86c-44.33-11.19-73.771-27.283-102.503-59.405h-31.136
	c-21.179,21.672-58.203,48.216-105.647,58.419l13.38,24.846c8.262-2.681,15.075-4.87,25.063-9.494v136.198H12.277l24.415,21.887
	H219.81v-21.887h-55.181v-56.848h35.267c37.733,50.157,80.338,68.16,124.175,77.164l10.697-24.323
	c-10.697-1.727-28.978-4.655-54.534-15.354C308.01,278.691,319.909,268.24,329.189,259.946"/>
<g>
	<path fill="#E50012" d="M219.818,348.861H36.687c-2.86,0-5.63-1.084-7.737-2.98L4.534,323.994
		c-3.583-3.221-4.817-8.309-3.101-12.795c1.716-4.486,6.021-7.466,10.838-7.466h115.635V196.377
		c-3.161,1.144-6.292,2.137-9.634,3.221c-5.449,1.746-11.38-0.542-13.999-5.449l-13.427-24.837
		c-1.746-3.191-1.867-7.045-0.331-10.356c1.535-3.342,4.516-5.72,8.098-6.503c52.443-11.259,87.275-42.358,99.799-55.183
		c2.198-2.258,5.178-3.522,8.309-3.522h31.159c3.312,0,6.443,1.415,8.64,3.884c26.192,29.293,53.286,44.947,96.698,55.876
		c3.492,0.873,6.382,3.342,7.827,6.623c1.415,3.312,1.234,7.105-0.512,10.236l-13.186,23.874c-2.709,4.937-8.58,7.105-13.818,5.419
		c-3.974-1.325-7.556-2.589-12.193-4.395v37.541c2.198,0.211,4.395,1.084,6.232,2.589l18.966,15.595
		c2.619,2.168,4.155,5.329,4.215,8.731c0.09,3.372-1.325,6.623-3.853,8.881c-6.202,5.569-14.782,13.246-30.918,24.415
		c13.397,4.064,23.572,5.72,30.557,6.834c3.552,0.572,6.653,2.77,8.369,5.901c1.746,3.161,1.927,6.954,0.482,10.236L334.7,340.341
		c-2.198,5.028-7.587,7.767-12.975,6.714c-37.331-7.707-85.288-23.452-127.556-76.949h-17.943v33.628h43.593
		c6.412,0,11.621,5.208,11.621,11.621v21.887C231.438,343.652,226.23,348.861,219.818,348.861z M144.916,325.619h14.3
		c-3.703-1.927-6.232-5.81-6.232-10.266v-56.869c0-6.412,5.208-11.621,11.621-11.621h35.283c3.643,0,7.075,1.716,9.272,4.636
		c35.073,46.573,73.758,62.649,108.108,70.778l0.963-2.137c-10.898-2.318-25.018-6.141-42.479-13.427
		c-4.004-1.686-6.744-5.449-7.075-9.784c-0.361-4.305,1.746-8.49,5.419-10.778c13.578-8.49,23.211-15.233,30.497-20.773
		c-3.011,1.415-6.563,1.445-9.694,0.03c-4.155-1.897-6.804-6.021-6.804-10.567v-76.919c0-3.914,1.987-7.556,5.238-9.694
		c3.312-2.168,7.406-2.499,10.988-0.963c7.797,3.372,13.066,5.509,17.461,7.165l1.325-2.378
		c-38.414-11.5-64.907-27.757-90.346-55.063h-21.254c-14.812,14.36-46.874,40.853-93.176,54.4l1.716,3.161
		c4.456-1.565,9.001-3.342,14.631-5.931c3.583-1.656,7.767-1.355,11.109,0.753c3.342,2.137,5.359,5.84,5.359,9.784v136.197
		C151.147,319.809,148.618,323.693,144.916,325.619z"/>
</g>
<g>
	<path fill="#E50012" d="M278.523,178.826h-45.519c-6.412,0-11.621-5.208-11.621-11.621v-11.5h-1.565v11.5
		c0,6.412-5.208,11.621-11.621,11.621h-46.242c-5.299,0-9.905-3.583-11.229-8.7c-1.325-5.118,0.963-10.477,5.569-13.066
		c22.007-12.253,41.786-26.613,57.2-41.515c4.456-4.275,11.41-4.395,15.956-0.181c26.974,24.897,42.238,34.772,54.701,41.696
		c4.636,2.559,6.924,7.948,5.6,13.066C288.428,175.243,283.822,178.826,278.523,178.826z"/>
</g>
<g>
	<path fill="#E50012" d="M275.121,214.832H164.604c-6.412,0-11.621-5.208-11.621-11.621v-15.053c0-6.412,5.208-11.621,11.621-11.621
		h110.517c6.412,0,11.621,5.208,11.621,11.621v15.053C286.742,209.624,281.534,214.832,275.121,214.832z"/>
</g>
<g>
	<path fill="#E50012" d="M275.121,249.182H164.604c-6.412,0-11.621-5.208-11.621-11.621v-16.558c0-6.412,5.208-11.621,11.621-11.621
		h110.517c6.412,0,11.621,5.208,11.621,11.621v16.558C286.742,243.974,281.534,249.182,275.121,249.182z"/>
</g>
<g>
	<path fill="#E50012" d="M257.841,296.417c-2.137,0-4.245-0.602-6.111-1.746c-20.291-12.584-27.426-21.194-33.718-28.781
		c-2.89-3.462-3.522-8.249-1.596-12.343c1.897-4.064,5.991-6.683,10.507-6.683h68.429c4.817,0,9.122,2.98,10.838,7.496
		c1.716,4.486,0.482,9.604-3.131,12.795c-2.107,1.897-20.592,16.949-39.468,27.727C261.815,295.905,259.828,296.417,257.841,296.417
		z M256.546,270.105c0.482,0.331,0.993,0.692,1.535,1.024c0.542-0.331,1.114-0.692,1.656-1.024H256.546z"/>
</g>
<path fill="#E50012" d="M437.948,195.918h-58.419V179.61h58.419V195.918z M437.948,231.247h-58.419v-17.542h58.419V231.247z
	 M691.909,163.671H522.757l-0.094-1.571c-0.707-14.366-1.449-29.688-1.942-56.231h-24.107c0.739,33.85,1.479,48.925,1.942,57.217
	l0.062,0.585h-38.505v-3.515h-39.922v-16.061h43.312v-21.919h-43.312V110.37h0.03V11.628h-23.151v110.549h-44.547v21.919h44.547
	v16.061h-38.966v90.788h38.966v18.035h-46.981v21.888h46.981v141.283l23.121-37.425V290.868h46.981V268.98h-46.981v-18.035h39.922
	V185.56h40.108l0.062,0.894c2.188,27.497,6.072,54.997,11.436,82.033c-9.987,11.436-33.85,36.038-66.958,43.805l15.352,21.919
	c10.45-4.377,33.11-14.118,58.912-38.966c3.391,9.494,13.626,37.98,31.629,37.98c19.73,0,27.036-29.688,30.674-44.054l-18.003-10.48
	c-1.481,3.174-6.567,17.787-7.799,20.716l-3.885,5.332c-4.13,0-10.727-15.815-14.612-29.686
	c23.614-31.661,32.122-58.912,35.545-70.597l-21.672-7.306c-2.928,8.755-7.553,23.121-20.686,45.532
	c-2.928-18.742-3.637-27.004-6.072-57.123h141.745L691.909,163.671z M562.093,154.546l17.787-14.364
	c-5.364-9.496-21.919-30.181-29.471-36.747l-18.003,13.626C541.9,126.062,557.468,147.24,562.093,154.546"/>
<g>
	<path fill="#E50012" d="M562.085,166.151c-0.632,0-1.264-0.06-1.897-0.181c-3.251-0.542-6.141-2.439-7.918-5.238
		c-4.275-6.774-19.237-27.095-27.847-35.253c-2.469-2.348-3.793-5.66-3.613-9.062c0.181-3.402,1.867-6.563,4.606-8.64L543.42,94.17
		c4.275-3.281,10.477-3.101,14.601,0.512c8.52,7.406,25.861,28.961,31.972,39.769c2.77,4.937,1.596,11.199-2.83,14.752
		l-17.792,14.36C567.293,165.248,564.704,166.151,562.085,166.151z"/>
</g>
<g>
	<path fill="#E50012" d="M397.078,443.783c-1.054,0-2.107-0.151-3.161-0.452c-4.997-1.415-8.46-5.991-8.46-11.169V302.498h-35.374
		c-6.412,0-11.621-5.208-11.621-11.621v-21.887c0-5.871,4.365-10.717,10.025-11.5c-1.264-1.867-2.017-4.124-2.017-6.533V160.16
		c0-1.957,0.512-3.823,1.385-5.449c-4.094-1.806-6.954-5.871-6.954-10.627v-21.917c0-6.412,5.208-11.621,11.621-11.621h32.935
		V11.621C385.457,5.208,390.665,0,397.078,0h23.151c6.412,0,11.621,5.208,11.621,11.621v98.926h31.671
		c6.412,0,11.621,5.208,11.621,11.621v21.917c0,3.101-1.234,5.901-3.191,7.978H486.4c-0.452-9.754-0.903-23.904-1.385-45.911
		c-0.09-3.131,1.114-6.141,3.281-8.399c2.198-2.228,5.178-3.492,8.309-3.492h24.114c6.322,0,11.5,5.088,11.591,11.41
		c0.391,20.682,0.903,34.501,1.475,46.392h158.083c4.877,0,9.242,3.071,10.898,7.647c1.686,4.576,0.301,9.724-3.432,12.855
		l-25.981,21.887c-2.077,1.746-4.727,2.74-7.466,2.74h-84.265c2.288,2.83,3.191,6.744,2.077,10.507
		c-2.709,9.363-10.778,36.969-33.899,69.513c0.241,0.783,0.482,1.505,0.753,2.258c0.933-2.529,1.746-4.636,2.228-5.66
		c1.385-2.95,3.944-5.208,7.045-6.202c3.131-0.993,6.473-0.632,9.333,1.054l18.003,10.477c4.486,2.589,6.683,7.858,5.419,12.885
		c-4.426,17.461-13.367,52.835-41.937,52.835c-18.033,0-29.443-16.197-36.156-30.015c-22.639,18.665-41.877,26.703-49.885,30.075
		c-5.118,2.047-10.868,0.421-13.999-4.064l-15.354-21.917c-2.198-3.161-2.71-7.195-1.325-10.778c0.903-2.378,2.529-4.365,4.606-5.66
		h-6.713v92.243c0,2.168-0.602,4.275-1.746,6.111l-23.121,37.421C404.785,441.736,401.022,443.783,397.078,443.783z
		 M519.035,283.622c0.873,0,1.776,0.12,2.649,0.331c3.854,0.903,6.954,3.673,8.279,7.406c9.995,28.088,18.364,30.256,20.682,30.256
		c4.997,0,9.062-5.72,12.223-12.765l-1.836,2.709c-2.198,3.011-5.69,4.787-9.393,4.787c-4.516,0-15.113,0-25.77-38.174
		c-0.963-3.462-0.271-7.195,1.867-10.085c17.01-22.79,25.77-43.291,30.256-56.086c-3.462,9.182-8.7,21.104-17.792,36.548
		c-2.469,4.245-7.316,6.352-12.163,5.539c-3.763-0.723-6.834-3.221-8.369-6.563c1.054,6.232,2.198,12.464,3.432,18.695
		c0.692,3.522-0.271,7.195-2.649,9.905c-12.614,14.451-32.062,32.333-57.14,42.418l0.843,1.204
		c11.049-5.208,27.998-14.722,46.844-32.875C513.164,284.766,516.054,283.622,519.035,283.622z M400.961,279.919
		c4.185,1.505,7.255,5.329,7.677,9.905c0.421-4.576,3.492-8.399,7.677-9.905c-4.185-1.475-7.255-5.299-7.677-9.875
		C408.217,274.621,405.146,278.444,400.961,279.919z M469.602,257.642c5.238,1.114,9.182,5.78,9.182,11.35v14.36
		c7.918-5.84,14.782-12.283,20.442-18.334c-4.305-22.669-7.556-45.399-9.664-67.827h-17.822v53.768
		C471.739,253.457,470.956,255.745,469.602,257.642z M369.712,239.337h27.366c6.051,0,11.019,4.666,11.56,10.567
		c0.542-5.901,5.509-10.567,11.56-10.567h28.299v-53.768c0-5.058,3.251-9.333,7.737-10.928c-1.686-0.632-3.221-1.596-4.456-2.86
		h-31.581c-6.051,0-11.019-4.666-11.56-10.567c-0.542,5.901-5.509,10.567-11.56,10.567h-27.366V239.337z M502.988,174.28
		c4.787,1.204,8.46,5.359,8.821,10.477c0.903,11.711,2.137,23.362,3.643,34.952c-0.873-8.46-1.656-18.154-2.86-33.206
		c-0.271-3.221,0.843-6.412,3.041-8.791c1.114-1.234,2.499-2.198,4.034-2.83c-4.696-1.325-8.189-5.479-8.49-10.537
		c-0.723-13.668-1.355-26.854-1.836-46.844h-0.843c0.632,25.349,1.204,37.692,1.656,44.857c0.181,3.191-0.903,6.653-3.101,8.971
		C505.909,172.564,504.494,173.587,502.988,174.28z M536.737,197.19c0.12,1.535,0.241,2.98,0.361,4.395
		c0.572-1.565,1.084-3.041,1.565-4.395H536.737z M400.901,133.126c4.215,1.475,7.316,5.299,7.737,9.905
		c0.421-4.606,3.522-8.43,7.737-9.905c-4.215-1.475-7.316-5.299-7.737-9.905C408.217,127.827,405.116,131.651,400.901,133.126z"/>
</g>
<g>
	<path fill="#E50012" d="M437.961,242.86h-58.434c-6.412,0-11.621-5.208-11.621-11.621v-17.521c0-6.412,5.208-11.621,11.621-11.621
		h58.434c6.412,0,11.621,5.208,11.621,11.621v17.521C449.582,237.652,444.373,242.86,437.961,242.86z"/>
</g>
<g>
	<path fill="#E50012" d="M437.961,207.546h-58.434c-6.412,0-11.621-5.208-11.621-11.621v-16.317c0-6.412,5.208-11.621,11.621-11.621
		h58.434c6.412,0,11.621,5.208,11.621,11.621v16.317C449.582,202.338,444.373,207.546,437.961,207.546z"/>
</g>
<path fill="#009B73" d="M11.6,370.002c0,0,2.403-0.461,13.903,27.592c11.498,28.022,45.224,78.21,85.392,68.84
	c0,0-5.457-10.112-13.871-30.397C88.576,415.721,57.317,351.753,11.6,370.002"/>
<g>
	<path fill="#009B73" d="M101.112,479.157c-39.89,0.03-72.885-44.255-86.342-77.16c-6.563-16.046-9.694-21.586-10.748-23.241
		c-1.656-1.415-2.92-3.312-3.552-5.539c-1.686-5.72,1.295-11.771,6.834-13.999c44.556-17.792,81.134,25.71,100.401,72.403
		c8.038,19.207,13.246,28.991,13.427,29.292c1.686,3.191,1.836,6.984,0.331,10.296c-1.475,3.281-4.395,5.69-7.918,6.503
		C109.331,478.705,105.176,479.157,101.112,479.157z M30.034,378.605c1.867,4.094,3.914,8.941,6.232,14.601
		c8.008,19.538,30.346,54.762,56.177,61.565c-1.806-4.034-3.884-8.791-6.172-14.24C81.755,429.543,60.109,381.254,30.034,378.605z"
		/>
</g>
<path fill="#009B73" d="M173.292,358.472h72.846c0,0-15.26,224.304-169.862,218.849C76.276,577.321,164.443,552.226,173.292,358.472
	"/>
<g>
	<path fill="#009B73" d="M81.815,589.041c-1.957,0-3.944-0.03-5.961-0.12c-5.69-0.181-10.416-4.516-11.109-10.176
		c-0.692-5.69,2.86-11.019,8.339-12.584c0.692-0.211,80.351-26.914,88.63-208.239c0.271-6.172,5.389-11.079,11.591-11.079h72.825
		c3.221,0,6.292,1.355,8.49,3.703c2.198,2.348,3.312,5.509,3.101,8.7C257.54,361.565,240.199,589.041,81.815,589.041z
		 M184.293,370.085c-6.653,105.549-37.15,160.913-63.582,189.453c84.897-28.961,107.386-150.105,112.504-189.453H184.293z"/>
</g>
<path fill="#009B73" d="M510.549,474.507H287.478c-4.008,5.18-9.31,11.192-15.939,18.067l-20.161-41.773h217.398
	c1.511,0,4.625-2.589,9.372-7.769c3.022-3.144,6.166-6.288,9.372-9.462L510.549,474.507"/>
<g>
	<path fill="#009B73" d="M271.539,504.204c-0.602,0-1.204-0.06-1.836-0.151c-3.733-0.602-6.954-3.011-8.61-6.412l-20.171-41.786
		c-1.746-3.613-1.505-7.858,0.602-11.229c2.137-3.372,5.84-5.449,9.844-5.449h214.32c0.813-0.753,2.077-1.987,3.914-4.004
		c3.251-3.372,6.473-6.623,9.754-9.844c2.559-2.559,6.352-3.673,9.754-3.251c3.613,0.512,6.744,2.649,8.52,5.81l23.031,40.943
		c2.017,3.583,1.987,7.978-0.09,11.56c-2.077,3.552-5.901,5.75-10.025,5.75H293.004c-3.613,4.335-7.978,9.152-13.096,14.481
		C277.71,502.91,274.67,504.204,271.539,504.204z M269.853,462.418l4.666,9.634c1.355-1.596,2.589-3.131,3.703-4.606
		c2.198-2.86,5.6-4.546,9.212-4.546h203.271l-5.72-10.176c-5.931,6.232-10.537,9.694-16.197,9.694H269.853z"/>
</g>
<g>
	<path fill="#FFFFFF" d="M271.539,496.859c-0.211,0-0.452-0.03-0.662-0.06c-1.385-0.211-2.589-1.114-3.191-2.348l-20.171-41.786
		c-0.632-1.325-0.542-2.89,0.241-4.124c0.783-1.264,2.137-2.017,3.613-2.017h217.33c-0.331-0.03,1.415-1.054,6.322-6.382
		c3.101-3.221,6.262-6.412,9.483-9.604c0.963-0.933,2.288-1.445,3.613-1.174c1.295,0.181,2.469,0.963,3.131,2.107l23.031,40.943
		c0.723,1.325,0.723,2.95-0.06,4.275c-0.753,1.295-2.168,2.107-3.673,2.107H289.511c-3.823,4.817-8.7,10.296-14.902,16.739
		C273.796,496.377,272.683,496.859,271.539,496.859z M258.172,455.072l14.511,30.075c4.666-5.028,8.399-9.393,11.35-13.216
		c0.813-1.054,2.077-1.686,3.402-1.686h215.825l-16.708-29.684c-1.806,1.806-3.583,3.643-5.329,5.419
		c-6.954,7.587-9.844,9.092-12.434,9.092H258.172z"/>
</g>
<g>
	<path fill="#FFFFFF" d="M101.022,471.841c-36.217,0-66.804-41.726-79.448-72.614c-8.128-19.809-11.38-24.596-12.223-25.59
		c-0.843-0.542-1.535-1.385-1.836-2.439c-0.632-2.137,0.482-4.365,2.499-5.178c39.739-15.775,72.945,24.927,90.918,68.369
		c8.249,19.779,13.668,29.895,13.728,30.015c0.632,1.174,0.662,2.559,0.12,3.763c-0.542,1.234-1.626,2.107-2.92,2.408
		C108.217,471.42,104.604,471.841,101.022,471.841z M18.563,372.222c2.559,4.426,5.991,11.741,10.898,23.753
		c11.29,27.546,39.739,67.285,71.711,67.285c1.084,0,2.198-0.03,3.281-0.12c-2.439-4.967-6.382-13.427-11.41-25.469
		C87.625,424.546,59.838,361.686,18.563,372.222z"/>
</g>
<g>
	<path fill="#FFFFFF" d="M81.755,581.695c-1.867,0-3.733-0.03-5.63-0.09c-2.107-0.09-3.823-1.656-4.064-3.733
		c-0.271-2.077,1.024-4.064,3.041-4.636c0.843-0.271,85.349-27.185,93.929-214.952c0.12-2.288,1.987-4.094,4.275-4.094h72.825
		c1.174,0,2.318,0.482,3.131,1.355c0.783,0.873,1.204,2.017,1.114,3.221C250.224,361.023,233.455,581.695,81.755,581.695z
		 M177.369,362.739c-7.285,140.11-55.695,191.801-82.428,209.804c120.482-11.56,143.392-179.759,146.493-209.804H177.369z"/>
</g>
<g>
	<path fill="#FFFFFF" d="M634.428,581.214c-44.797,0-80.983-64.365-91.761-91.069c-10.236-25.258-14.059-30.888-14.932-32.002
		c-0.843-0.542-1.505-1.385-1.776-2.408c-0.602-2.107,0.482-4.305,2.499-5.118c23.091-9.393,47.055,0.361,69.333,28.239
		c11.591-12.403,35.374-42.87,34.35-82.79l-158.053,0.211l0,0c-2.348,0-4.245-1.897-4.275-4.245l-0.151-33.537
		c0-1.144,0.452-2.228,1.234-3.041c0.813-0.813,1.897-1.264,3.041-1.264h234.46c2.318,0,4.185,1.836,4.275,4.155
		c0.03,1.174,2.348,117.11-106.091,132.584c11.711,17.521,20.02,35.946,24.114,45.941c9.965,24.476,16.468,36.999,16.528,37.15
		c0.602,1.174,0.632,2.559,0.06,3.763c-0.542,1.204-1.656,2.077-2.95,2.378C640.991,580.883,637.68,581.214,634.428,581.214z
		 M536.947,456.788c2.98,5.148,7.195,14.24,13.608,30.166c14.029,34.711,48.229,85.68,84.114,85.68c0.783,0,1.535-0.03,2.318-0.06
		c-2.83-5.901-7.767-16.678-14.18-32.484c-4.425-10.778-13.848-31.611-27.245-50.065c-0.271-0.361-0.452-0.753-0.602-1.174
		c-0.361-0.271-0.692-0.572-0.963-0.933C575,462.478,555.853,451.971,536.947,456.788z M636.205,387.516
		c2.258,0,4.094,1.746,4.245,3.974c2.89,42.78-20.923,75.865-34.29,90.858c90.075-13.276,97.481-99.287,97.963-119.609h-225.91
		l0.12,24.987L636.205,387.516L636.205,387.516z"/>
</g>
<g>
	<path fill="#FFFFFF" d="M331.87,421.956c-1.927,0-3.613-1.295-4.124-3.161l-2.86-10.507c-0.06-0.241-0.12-0.482-0.12-0.723
		c-4.546,4.365-9.784,6.563-15.685,6.563c-15.625,0-23.783-16.588-23.783-32.965c0-28.389,20.773-48.229,50.517-48.229
		c33.748,0,45.76,22.248,45.76,43.081c0,19.9-8.58,44.014-49.493,45.941C331.99,421.956,331.93,421.956,331.87,421.956z
		 M334.519,411.149l0.542,2.047c25.529-2.107,37.963-14.3,37.963-37.18c0-8.098-2.679-34.531-37.21-34.531
		c-28.991,0-41.967,19.93-41.967,39.679c0,11.831,5.329,24.415,15.233,24.415c8.881,0,13.668-8.791,15.233-11.681
		c7.075-13.276,8.7-30.015,10.266-46.212c0.211-2.288,2.469-4.335,4.576-4.365c27.878,1.776,30.045,24.626,30.045,31.581
		C369.2,405.067,347.464,410.065,334.519,411.149z M342.708,352.353c-1.535,15.504-3.643,32.032-10.838,45.549
		c-0.993,1.806-2.047,3.492-3.131,4.997c0.03,0,0.06,0,0.09,0c15.414-0.632,31.821-3.372,31.821-27.998
		C360.65,367.436,358.212,355.123,342.708,352.353z"/>
</g>
<g>
	<path fill="#FFFFFF" d="M309.501,403.261c-6.683,0-13.427-6.382-13.427-20.622c0-15.384,8.068-34.772,30.828-38.776
		c1.234-0.211,2.619,0.151,3.583,1.054c0.993,0.873,1.505,2.168,1.385,3.462C329.19,384.806,321.664,403.261,309.501,403.261z
		 M322.868,353.738c-17.311,6.262-18.244,24.927-18.244,28.901c0,7.556,2.469,12.072,4.877,12.072
		C314.198,394.711,320.159,381.826,322.868,353.738z"/>
</g>
<g>
	<path fill="#FFFFFF" d="M219.818,341.515H36.687c-1.054,0-2.077-0.391-2.86-1.084L9.411,318.545
		c-1.295-1.204-1.746-3.071-1.114-4.727c0.632-1.656,2.198-2.74,3.974-2.74h122.98V185.72c-7.105,2.98-12.825,4.817-19.237,6.924
		c-2.077,0.512-4.335-0.181-5.299-1.987L97.289,165.82c-0.632-1.174-0.662-2.589-0.12-3.793c0.572-1.234,1.686-2.107,2.98-2.408
		c54.4-11.681,90.527-43.924,103.532-57.23c0.783-0.813,1.897-1.295,3.041-1.295h31.159c1.204,0,2.378,0.512,3.191,1.415
		c27.245,30.497,55.394,46.784,100.371,58.103c1.264,0.331,2.348,1.234,2.86,2.469c0.542,1.204,0.452,2.589-0.181,3.763
		l-13.186,23.874c-0.963,1.806-3.101,2.589-5.088,1.957c-6.744-2.258-12.223-4.245-21.856-8.279v60.542
		c0.963-1.054,1.897-2.137,2.98-3.372c1.565-1.716,4.185-1.927,5.931-0.512l18.966,15.564c0.963,0.813,1.535,1.957,1.565,3.221
		c0.03,1.234-0.482,2.439-1.415,3.251c-7.466,6.714-18.394,16.558-42.449,32.032c21.194,8.068,36.367,10.447,45.85,11.952
		c1.325,0.211,2.439,0.993,3.071,2.168c0.662,1.174,0.723,2.559,0.181,3.763l-10.687,24.355c-0.783,1.836-2.619,2.86-4.787,2.469
		c-36.759-7.556-84.114-23.151-125.419-77.07h-28.871v48.319h50.908c2.348,0,4.275,1.927,4.275,4.275v21.887
		C224.093,339.588,222.166,341.515,219.818,341.515z M38.312,332.965h177.23v-13.337h-50.908c-2.348,0-4.275-1.927-4.275-4.275
		v-56.869c0-2.348,1.927-4.275,4.275-4.275h35.253c1.355,0,2.619,0.632,3.402,1.716c38.505,51.149,81.164,66.834,118.254,74.842
		l7.105-16.136c-10.958-1.867-27.968-5.479-50.065-14.691c-1.475-0.632-2.469-2.017-2.589-3.613
		c-0.151-1.565,0.632-3.101,1.987-3.944c23.211-14.481,34.952-23.843,44.616-32.333l-11.922-9.784
		c-2.107,2.288-4.305,4.456-8.159,7.827c-1.234,1.084-3.011,1.415-4.576,0.662c-1.505-0.692-2.499-2.198-2.499-3.884v-76.949
		c0-1.445,0.723-2.77,1.927-3.552c1.204-0.813,2.709-0.963,4.034-0.361c12.102,5.208,18.184,7.526,23.783,9.453l8.821-15.956
		c-43.051-11.53-71.019-28.118-98.023-57.862h-27.486c-14.029,14.059-49.072,44.375-101.034,57.05l9.092,16.799
		c6.864-2.258,12.825-4.365,21.194-8.219c1.355-0.632,2.86-0.482,4.064,0.301c1.234,0.783,1.987,2.137,1.987,3.583v136.197
		c0,2.348-1.927,4.275-4.275,4.275H23.44L38.312,332.965z"/>
</g>
<g>
	<path fill="#FFFFFF" d="M278.523,171.48h-45.519c-2.348,0-4.275-1.927-4.275-4.275v-18.846h-16.257v18.846
		c0,2.348-1.927,4.275-4.275,4.275h-46.242c-1.957,0-3.643-1.325-4.124-3.191c-0.512-1.897,0.361-3.853,2.047-4.817
		c22.549-12.554,42.84-27.306,58.705-42.659c1.686-1.535,4.245-1.596,5.871-0.06c27.667,25.529,43.322,35.615,56.146,42.719
		c1.686,0.933,2.529,2.92,2.047,4.787C282.166,170.155,280.48,171.48,278.523,171.48z M237.279,162.93h25.891
		c-8.279-5.419-16.708-11.741-25.951-19.508c0.03,0.211,0.06,0.452,0.06,0.662V162.93z M177.64,162.93h26.282v-18.214
		C195.763,151.069,186.943,157.18,177.64,162.93z M210.063,139.809h22.91c-3.643-3.131-7.406-6.473-11.35-10.085
		C217.951,133.126,214.098,136.498,210.063,139.809z"/>
</g>
<g>
	<path fill="#FFFFFF" d="M275.121,207.486H164.635c-2.348,0-4.275-1.927-4.275-4.275v-15.053c0-2.348,1.927-4.275,4.275-4.275
		h110.487c2.348,0,4.275,1.927,4.275,4.275v15.053C279.396,205.559,277.469,207.486,275.121,207.486z M168.909,198.936h101.937
		v-6.503H168.909V198.936z"/>
</g>
<g>
	<path fill="#FFFFFF" d="M275.121,241.836H164.635c-2.348,0-4.275-1.927-4.275-4.275v-16.558c0-2.348,1.927-4.275,4.275-4.275
		h110.487c2.348,0,4.275,1.927,4.275,4.275v16.558C279.396,239.909,277.469,241.836,275.121,241.836z M168.909,233.286h101.937
		v-8.008H168.909V233.286z"/>
</g>
<g>
	<path fill="#FFFFFF" d="M257.841,289.072c-0.783,0-1.565-0.211-2.258-0.632c-19.267-11.982-26.011-20.08-31.942-27.215
		c-1.054-1.295-1.295-3.041-0.572-4.546c0.692-1.505,2.198-2.469,3.853-2.469h68.429c1.776,0,3.372,1.114,4.004,2.77
		c0.602,1.656,0.151,3.522-1.174,4.696c-1.957,1.746-20.171,16.528-38.234,26.824C259.286,288.891,258.563,289.072,257.841,289.072z
		 M236.315,262.759c4.576,4.757,10.748,10.146,21.616,17.04c9.393-5.539,18.575-12.072,25.168-17.04H236.315z"/>
</g>
<g>
	<path fill="#FFFFFF" d="M562.085,158.806c-0.241,0-0.452-0.03-0.692-0.06c-1.204-0.211-2.258-0.903-2.92-1.927
		c-4.215-6.653-19.568-27.757-28.991-36.668c-0.933-0.873-1.415-2.077-1.355-3.342c0.09-1.234,0.692-2.408,1.686-3.161
		l18.003-13.608c1.626-1.204,3.823-1.174,5.389,0.181c7.918,6.894,24.686,27.757,30.376,37.842c1.054,1.836,0.602,4.124-1.024,5.419
		l-17.792,14.36C564.012,158.475,563.049,158.806,562.085,158.806z M538.874,117.531c8.279,8.821,18.635,22.699,24.175,30.738
		l11.229-9.062c-5.72-8.851-17.16-23.151-24.175-30.196L538.874,117.531z"/>
</g>
<g>
	<path fill="#FFFFFF" d="M397.078,436.437c-0.391,0-0.783-0.06-1.174-0.181c-1.836-0.512-3.101-2.198-3.101-4.094V295.153h-42.719
		c-2.348,0-4.275-1.927-4.275-4.275v-21.887c0-2.348,1.927-4.275,4.275-4.275h42.719v-9.483h-34.711
		c-2.348,0-4.275-1.927-4.275-4.275V160.16c0-2.348,1.927-4.275,4.275-4.275h34.711v-7.526h-40.281
		c-2.348,0-4.275-1.927-4.275-4.275v-21.917c0-2.348,1.927-4.275,4.275-4.275h40.281V11.621c0-2.348,1.927-4.275,4.275-4.275h23.151
		c2.348,0,4.275,1.927,4.275,4.275v98.746c0,0.181-0.03,0.331-0.03,0.512v7.015h39.047c2.348,0,4.275,1.927,4.275,4.275v21.917
		c0,2.348-1.927,4.275-4.275,4.275h-39.047v7.526h35.645c2.107,0,3.853,1.535,4.215,3.522h29.774
		c-0.692-12.313-1.234-29.714-1.776-53.437c-0.03-1.144,0.421-2.258,1.234-3.071c0.783-0.813,1.897-1.295,3.041-1.295h24.114
		c2.318,0,4.215,1.867,4.275,4.185c0.452,25.108,1.114,39.95,1.806,53.618h165.068c1.806,0,3.402,1.114,4.004,2.8
		c0.632,1.686,0.12,3.583-1.264,4.727l-25.981,21.887c-0.753,0.662-1.746,1.024-2.74,1.024h-137.1
		c1.535,18.936,2.348,28.69,3.823,39.769c7.978-15.113,11.47-25.499,13.909-32.815c0.361-1.084,1.325-2.469,2.318-2.95
		c1.024-0.542,2.288-1.144,3.432-0.723l21.646,7.286c2.168,0.723,3.372,3.041,2.74,5.238c-2.709,9.333-10.898,37.451-34.922,70.236
		c3.161,10.808,6.774,18.876,9.152,22.639l1.174-1.656c0.03-0.331,1.234-3.613,2.529-7.195c1.867-5.148,3.974-10.898,4.847-12.795
		c0.512-1.084,1.445-1.897,2.589-2.258c1.144-0.452,2.408-0.211,3.432,0.361l18.003,10.477c1.656,0.963,2.469,2.89,1.987,4.757
		c-3.944,15.685-11.952,47.296-34.802,47.296c-17.792,0-28.359-21.856-33.387-34.772c-24.867,22.609-46.121,31.49-55.484,35.404
		c-1.867,0.753-4.004,0.151-5.148-1.505l-15.354-21.917c-0.813-1.144-0.993-2.649-0.512-3.974c0.512-1.295,1.656-2.288,3.011-2.619
		c27.817-6.533,49.583-25.529,63.342-40.883c-5.028-25.86-8.67-51.872-10.838-77.401h-31.882v61.114
		c0,2.348-1.927,4.275-4.275,4.275h-35.645v9.483h42.689c2.348,0,4.275,1.927,4.275,4.275v21.887c0,2.348-1.927,4.275-4.275,4.275
		h-42.689v99.588c0,0.783-0.241,1.565-0.632,2.258l-23.121,37.421C399.908,435.685,398.523,436.437,397.078,436.437z
		 M354.358,286.603h42.719c2.348,0,4.275,1.927,4.275,4.275V417.14l14.571-23.603V290.878c0-2.348,1.927-4.275,4.275-4.275h42.689
		v-13.337h-42.689c-2.348,0-4.275-1.927-4.275-4.275v-18.033c0-2.348,1.927-4.275,4.275-4.275h35.645v-61.114
		c0-2.348,1.927-4.275,4.275-4.275h40.1c2.258,0,4.094,1.746,4.245,3.974c2.228,27.697,6.051,55.123,11.44,82.368
		c0.271,1.325-0.09,2.649-0.963,3.643c-13.547,15.504-35.163,35.103-63.191,43.532l9.875,14.119
		c10.808-4.636,31.219-14.42,54.461-36.759c1.024-1.024,2.529-1.475,3.944-1.084c1.385,0.331,2.529,1.355,3.041,2.709
		c8.279,23.332,17.551,35.163,27.576,35.163c15.173,0,22.188-23.934,25.74-37.722l-10.928-6.382
		c-0.873,2.318-1.897,5.118-2.83,7.737c-1.385,3.763-2.649,7.195-3.161,8.46l-4.365,6.202c-0.813,1.084-2.107,1.746-3.462,1.746
		c-8.309,0-15.294-20.562-18.726-32.815c-0.331-1.264-0.09-2.649,0.692-3.703c21.284-28.54,30.105-53.557,33.688-65.298
		l-13.698-4.606c-3.312,9.604-8.49,23.151-19.719,42.268c-0.873,1.565-2.679,2.408-4.486,2.017
		c-1.746-0.331-3.131-1.746-3.402-3.522c-2.98-19.177-3.703-28.058-6.081-57.441c-0.12-1.174,0.301-2.348,1.114-3.221
		c0.813-0.873,1.927-1.385,3.131-1.385h140.17l15.865-13.337H522.768c-2.258,0-4.124-1.776-4.275-4.034l-0.09-1.596
		c-0.692-13.698-1.385-27.998-1.867-52.173h-15.564c0.572,24.476,1.174,41.726,1.867,52.654c0.06,1.174-0.331,2.649-1.144,3.492
		c-0.783,0.873-1.897,1.656-3.071,1.656h-38.505c-2.107,0-3.853-1.535-4.215-3.522h-35.705c-2.348,0-4.275-1.927-4.275-4.275
		v-16.076c0-2.348,1.927-4.275,4.275-4.275h39.047v-13.367h-39.047c-2.348,0-4.275-1.927-4.275-4.275v-11.801
		c0-0.181,0.03-0.331,0.03-0.512V15.896h-14.601v106.272c0,2.348-1.927,4.275-4.275,4.275h-40.281v13.367h40.281
		c2.348,0,4.275,1.927,4.275,4.275v16.076c0,2.348-1.927,4.275-4.275,4.275h-34.711v82.248h34.711c2.348,0,4.275,1.927,4.275,4.275
		v18.033c0,2.348-1.927,4.275-4.275,4.275h-42.719V286.603z"/>
</g>
<g>
	<path fill="#FFFFFF" d="M437.961,235.514h-58.434c-2.348,0-4.275-1.927-4.275-4.275v-17.521c0-2.348,1.927-4.275,4.275-4.275
		h58.434c2.348,0,4.275,1.927,4.275,4.275v17.521C442.236,233.587,440.309,235.514,437.961,235.514z M383.801,226.964h49.885v-8.971
		h-49.885V226.964z"/>
</g>
<g>
	<path fill="#FFFFFF" d="M437.961,200.201h-58.434c-2.348,0-4.275-1.927-4.275-4.275v-16.317c0-2.348,1.927-4.275,4.275-4.275
		h58.434c2.348,0,4.275,1.927,4.275,4.275v16.317C442.236,198.274,440.309,200.201,437.961,200.201z M383.801,191.651h49.885v-7.767
		h-49.885V191.651z"/>
</g>
<g>
	<defs>
		<rect id="SVGID_1_" x="251.38" y="433.57" width="259.169" height="59.035"/>
	</defs>
	<clipPath id="SVGID_00000113311312338195391280000001498961985410164410_">
		<use xlink:href="#SVGID_1_"  overflow="visible"/>
	</clipPath>
	<g clip-path="url(#SVGID_00000113311312338195391280000001498961985410164410_)">
		<defs>
			<path id="SVGID_00000121277402342318427060000009042845518890835105_" d="M478.148,443.032c-4.747,5.18-7.861,7.769-9.372,7.769
				H251.38l20.161,41.773c6.627-6.875,11.929-12.917,15.907-18.067h223.101L487.52,433.57
				C484.314,436.744,481.2,439.888,478.148,443.032"/>
		</defs>
		<clipPath id="SVGID_00000088836189262991606110000014361552317634302083_">
			<use xlink:href="#SVGID_00000121277402342318427060000009042845518890835105_"  overflow="visible"/>
		</clipPath>
		<g clip-path="url(#SVGID_00000088836189262991606110000014361552317634302083_)">
			<defs>
				
					<rect id="SVGID_00000174571482379920487920000017058509137377151394_" x="-25487.766" y="-24625.08" width="31808.506" height="45003.758"/>
			</defs>
			<clipPath id="SVGID_00000173130509561234496940000014299453684881965720_">
				<use xlink:href="#SVGID_00000174571482379920487920000017058509137377151394_"  overflow="visible"/>
			</clipPath>
			<g clip-path="url(#SVGID_00000173130509561234496940000014299453684881965720_)">
				<defs>
					
						<rect id="SVGID_00000022555325897370470540000012324020060431690674_" x="-25487.766" y="-24624.771" width="31808.812" height="45003.449"/>
				</defs>
				<clipPath id="SVGID_00000137104119069084367090000017436431448235918742_">
					<use xlink:href="#SVGID_00000022555325897370470540000012324020060431690674_"  overflow="visible"/>
				</clipPath>
				
					<linearGradient id="SVGID_00000113352565612902241690000006544086739777998242_" gradientUnits="userSpaceOnUse" x1="-488.0282" y1="-4713.5034" x2="-457.2003" y2="-4713.5034" gradientTransform="matrix(0 -1.9144 1.9144 0 -559.8322 -441.6768)">
					<stop  offset="0" style="stop-color:#28B6BB"/>
					<stop  offset="1" style="stop-color:#009B74"/>
				</linearGradient>
				
					<rect x="-25487.768" y="-24624.771" clip-path="url(#SVGID_00000137104119069084367090000017436431448235918742_)" fill="url(#SVGID_00000113352565612902241690000006544086739777998242_)" width="31808.811" height="45003.449"/>
			</g>
		</g>
	</g>
</g>
<g>
	<defs>
		<rect id="SVGID_00000125577121721592815610000003244169995597356953_" x="11.6" y="366.766" width="99.297" height="109.038"/>
	</defs>
	<clipPath id="SVGID_00000157297621417741523490000012617927667438537148_">
		<use xlink:href="#SVGID_00000125577121721592815610000003244169995597356953_"  overflow="visible"/>
	</clipPath>
	<g clip-path="url(#SVGID_00000157297621417741523490000012617927667438537148_)">
		<defs>
			<path id="SVGID_00000004504405769651237150000003347916409617457079_" d="M11.6,370.002c0,0,2.405-0.463,13.903,27.59
				c11.498,28.022,45.224,78.212,85.394,68.84c0,0-5.489-10.112-13.873-30.427c-7.398-17.788-32.401-69.208-69.301-69.208
				C22.573,366.764,17.211,367.782,11.6,370.002"/>
		</defs>
		<clipPath id="SVGID_00000042733046191678943130000011137994123316378773_">
			<use xlink:href="#SVGID_00000004504405769651237150000003347916409617457079_"  overflow="visible"/>
		</clipPath>
		<g clip-path="url(#SVGID_00000042733046191678943130000011137994123316378773_)">
			<defs>
				
					<rect id="SVGID_00000070101926574261790550000017229455342700869275_" x="-25487.766" y="-24625.08" width="31808.506" height="45003.758"/>
			</defs>
			<clipPath id="SVGID_00000179606872461734291360000000543320384133855391_">
				<use xlink:href="#SVGID_00000070101926574261790550000017229455342700869275_"  overflow="visible"/>
			</clipPath>
			<g clip-path="url(#SVGID_00000179606872461734291360000000543320384133855391_)">
				<defs>
					
						<rect id="SVGID_00000015312804851196536490000016501661542048599740_" x="-25487.766" y="-24624.771" width="31808.812" height="45003.449"/>
				</defs>
				<clipPath id="SVGID_00000099634428070821390140000008023331355076185240_">
					<use xlink:href="#SVGID_00000015312804851196536490000016501661542048599740_"  overflow="visible"/>
				</clipPath>
				
					<linearGradient id="SVGID_00000013879840315870832070000009318061929068945303_" gradientUnits="userSpaceOnUse" x1="-368.0482" y1="-2500.3369" x2="-337.2204" y2="-2500.3369" gradientTransform="matrix(0 -3.2699 3.2699 0 -1407.5082 -735.8472)">
					<stop  offset="0" style="stop-color:#28B6BB"/>
					<stop  offset="1" style="stop-color:#009B74"/>
				</linearGradient>
				
					<rect x="-25487.766" y="-24624.768" clip-path="url(#SVGID_00000099634428070821390140000008023331355076185240_)" fill="url(#SVGID_00000013879840315870832070000009318061929068945303_)" width="31808.812" height="45003.445"/>
			</g>
		</g>
	</g>
</g>
<g>
	<defs>
		<rect id="SVGID_00000002383489847951701970000008019805655300117127_" x="76.276" y="358.472" width="169.862" height="224.334"/>
	</defs>
	<clipPath id="SVGID_00000023988341210504876640000009860522756388570801_">
		<use xlink:href="#SVGID_00000002383489847951701970000008019805655300117127_"  overflow="visible"/>
	</clipPath>
	<g clip-path="url(#SVGID_00000023988341210504876640000009860522756388570801_)">
		<defs>
			<path id="SVGID_00000038411659710197650710000017296381802751926178_" d="M173.292,358.472
				c-8.847,193.754-97.016,218.847-97.016,218.847c154.602,5.457,169.862-218.847,169.862-218.847H173.292"/>
		</defs>
		<clipPath id="SVGID_00000121272318407589131290000004018012435486246288_">
			<use xlink:href="#SVGID_00000038411659710197650710000017296381802751926178_"  overflow="visible"/>
		</clipPath>
		<g clip-path="url(#SVGID_00000121272318407589131290000004018012435486246288_)">
			<defs>
				
					<rect id="SVGID_00000015314002709789816110000004885987736872422551_" x="-25487.766" y="-24625.08" width="31808.506" height="45003.758"/>
			</defs>
			<clipPath id="SVGID_00000098216427970377068860000006903351050251974034_">
				<use xlink:href="#SVGID_00000015314002709789816110000004885987736872422551_"  overflow="visible"/>
			</clipPath>
			<g clip-path="url(#SVGID_00000098216427970377068860000006903351050251974034_)">
				<defs>
					
						<rect id="SVGID_00000134955503842476379840000008456779705463942816_" x="-25487.766" y="-24624.771" width="31808.812" height="45003.449"/>
				</defs>
				<clipPath id="SVGID_00000114774969817887817490000002595439544438761382_">
					<use xlink:href="#SVGID_00000134955503842476379840000008456779705463942816_"  overflow="visible"/>
				</clipPath>
				
					<linearGradient id="SVGID_00000117654678152557334030000013133064301483328386_" gradientUnits="userSpaceOnUse" x1="-301.1821" y1="-818.1547" x2="-270.3542" y2="-818.1547" gradientTransform="matrix(0 -7.103 7.103 0 -3772.0103 -1561.8534)">
					<stop  offset="0" style="stop-color:#28B6BB"/>
					<stop  offset="1" style="stop-color:#009B74"/>
				</linearGradient>
				
					<rect x="-25487.768" y="-24624.771" clip-path="url(#SVGID_00000114774969817887817490000002595439544438761382_)" fill="url(#SVGID_00000117654678152557334030000013133064301483328386_)" width="31808.811" height="45003.449"/>
			</g>
		</g>
	</g>
</g>
<g>
	<defs>
		
			<rect id="SVGID_00000060002263973570360920000015411827207786026138_" x="473.926" y="358.472" width="238.145" height="226.891"/>
	</defs>
	<clipPath id="SVGID_00000042698100100774784260000013202658689007630209_">
		<use xlink:href="#SVGID_00000060002263973570360920000015411827207786026138_"  overflow="visible"/>
	</clipPath>
	<g clip-path="url(#SVGID_00000042698100100774784260000013202658689007630209_)">
		<defs>
			<path id="SVGID_00000040559887584990737500000007554074176277635740_" d="M473.926,358.472l0.154,33.541l162.123-0.216
				c3.268,48.308-29.04,83.975-38.781,93.594c-17.296-23.151-40.539-41.679-67.359-30.828c0,0,2.621-0.463,16.554,34.004
				c13.935,34.495,53.271,96.798,96.83,87.396c0,0-6.505-12.484-16.678-37.455c-4.501-10.913-14.149-32.216-27.744-51.021
				c113.046-10.975,109.377-129.015,109.377-129.015H473.926"/>
		</defs>
		<clipPath id="SVGID_00000046321296272874643480000009338101557119665292_">
			<use xlink:href="#SVGID_00000040559887584990737500000007554074176277635740_"  overflow="visible"/>
		</clipPath>
		<g clip-path="url(#SVGID_00000046321296272874643480000009338101557119665292_)">
			<defs>
				
					<rect id="SVGID_00000036227163905157173630000007451268546044630157_" x="-25487.766" y="-24625.08" width="31808.506" height="45003.758"/>
			</defs>
			<clipPath id="SVGID_00000074414661664635963350000008008984756220931250_">
				<use xlink:href="#SVGID_00000036227163905157173630000007451268546044630157_"  overflow="visible"/>
			</clipPath>
			<g clip-path="url(#SVGID_00000074414661664635963350000008008984756220931250_)">
				<defs>
					
						<rect id="SVGID_00000159456277975170893860000015719440261281730232_" x="-25487.766" y="-24624.771" width="31808.812" height="45003.449"/>
				</defs>
				<clipPath id="SVGID_00000018947288699271041710000007005423872473060503_">
					<use xlink:href="#SVGID_00000159456277975170893860000015719440261281730232_"  overflow="visible"/>
				</clipPath>
				
					<linearGradient id="SVGID_00000032635583375442693930000010481245191279978882_" gradientUnits="userSpaceOnUse" x1="-236.3815" y1="342.2526" x2="-205.5536" y2="342.2526" gradientTransform="matrix(7.6056 0 0 7.6056 2271.7488 -4726.084)">
					<stop  offset="0" style="stop-color:#E85076"/>
					<stop  offset="0.1212" style="stop-color:#ED725D"/>
					<stop  offset="0.3875" style="stop-color:#F9C91D"/>
					<stop  offset="0.5028" style="stop-color:#FFF000"/>
					<stop  offset="0.7013" style="stop-color:#94C144"/>
					<stop  offset="0.9077" style="stop-color:#2A9387"/>
					<stop  offset="1" style="stop-color:#0080A2"/>
				</linearGradient>
				
					<rect x="-25487.766" y="-24624.771" clip-path="url(#SVGID_00000018947288699271041710000007005423872473060503_)" fill="url(#SVGID_00000032635583375442693930000010481245191279978882_)" width="31808.812" height="45003.449"/>
				
					<linearGradient id="SVGID_00000019636364675490485180000012131482584031671699_" gradientUnits="userSpaceOnUse" x1="-301.3145" y1="-823.5153" x2="-270.4867" y2="-823.5153" gradientTransform="matrix(0 -7.0863 7.0863 0 -3747.6873 -1558.255)">
					<stop  offset="0" style="stop-color:#28B6BB"/>
					<stop  offset="1" style="stop-color:#009B74"/>
				</linearGradient>
				
					<rect x="-25487.77" y="-24624.771" clip-path="url(#SVGID_00000018947288699271041710000007005423872473060503_)" fill="url(#SVGID_00000019636364675490485180000012131482584031671699_)" width="31808.812" height="45003.449"/>
			</g>
		</g>
	</g>
</g>
<g>
	<defs>
		<rect id="SVGID_00000114784584251535868690000000822341629064728253_" x="289.578" y="337.201" width="87.733" height="80.492"/>
	</defs>
	<clipPath id="SVGID_00000103945690209250989020000007493673901318551471_">
		<use xlink:href="#SVGID_00000114784584251535868690000000822341629064728253_"  overflow="visible"/>
	</clipPath>
	<g clip-path="url(#SVGID_00000103945690209250989020000007493673901318551471_)">
		<defs>
			<path id="SVGID_00000011005385810046598190000014855831401964070837_" d="M300.365,382.641c0-8.725,3.575-30.395,27.251-34.557
				c-1.018,13.871-4.871,50.897-18.127,50.897C304.527,398.98,300.365,393.338,300.365,382.641 M289.574,381.162
				c0,13.873,6.537,28.7,19.514,28.7c11.468,0,17.326-10.881,18.991-13.965c7.553-14.15,9.218-31.876,10.789-48.306
				c23.399,1.479,26.051,19.514,26.051,27.313c0,30.704-24.169,31.784-35.946,32.277l2.898,10.512
				c10.296-0.493,45.44-2.375,45.44-41.679c0-16.247-8.631-38.813-41.495-38.813C306.407,337.201,289.574,357.301,289.574,381.162"
				/>
		</defs>
		<clipPath id="SVGID_00000132788758530309358670000014129188927246296739_">
			<use xlink:href="#SVGID_00000011005385810046598190000014855831401964070837_"  overflow="visible"/>
		</clipPath>
		<g clip-path="url(#SVGID_00000132788758530309358670000014129188927246296739_)">
			<defs>
				
					<rect id="SVGID_00000047749254192315113820000014455566611979186839_" x="-25487.766" y="-24625.08" width="31808.506" height="45003.758"/>
			</defs>
			<clipPath id="SVGID_00000092426400648757007770000014632724223994638767_">
				<use xlink:href="#SVGID_00000047749254192315113820000014455566611979186839_"  overflow="visible"/>
			</clipPath>
			<g clip-path="url(#SVGID_00000092426400648757007770000014632724223994638767_)">
				<defs>
					
						<rect id="SVGID_00000073000082391409467590000002017501290534815370_" x="-25487.766" y="-24624.771" width="31808.812" height="45003.449"/>
				</defs>
				<clipPath id="SVGID_00000158721747588931523190000014959727286176410509_">
					<use xlink:href="#SVGID_00000073000082391409467590000002017501290534815370_"  overflow="visible"/>
				</clipPath>
				
					<linearGradient id="SVGID_00000003821203078790566760000003403203347542371517_" gradientUnits="userSpaceOnUse" x1="-387.8249" y1="-3291.0249" x2="-356.997" y2="-3291.0249" gradientTransform="matrix(0 -2.6107 2.6107 0 -991.4846 -594.8016)">
					<stop  offset="0" style="stop-color:#F29600"/>
					<stop  offset="1" style="stop-color:#E50012"/>
				</linearGradient>
				
					<rect x="-25487.768" y="-24624.768" clip-path="url(#SVGID_00000158721747588931523190000014959727286176410509_)" fill="url(#SVGID_00000003821203078790566760000003403203347542371517_)" width="31808.811" height="45003.445"/>
			</g>
		</g>
	</g>
</g>
<g>
	<defs>
		<rect id="SVGID_00000137119838075753800660000014735403609544959872_" x="12.277" y="105.376" width="328.101" height="231.856"/>
	</defs>
	<clipPath id="SVGID_00000156580599292843513750000009172973096589644693_">
		<use xlink:href="#SVGID_00000137119838075753800660000014735403609544959872_"  overflow="visible"/>
	</clipPath>
	<g clip-path="url(#SVGID_00000156580599292843513750000009172973096589644693_)">
		<defs>
			<path id="SVGID_00000111175234638580597440000012264698658577686702_" d="M226.932,258.498h68.407
				c-2.188,1.942-19.977,16.308-37.487,26.295C239.356,273.356,233.006,265.804,226.932,258.498 M164.629,221.011h110.487v16.554
				H164.629V221.011 M164.629,188.149h110.487v15.105H164.629V188.149 M221.568,123.872c25.558,23.614,41.619,34.836,56.971,43.344
				h-45.532v-23.121H208.19v23.121h-46.242C174.587,160.157,199.433,145.298,221.568,123.872 M206.739,105.374
				c-21.177,21.672-58.203,48.216-105.645,58.419l13.378,24.848c8.262-2.683,15.075-4.871,25.063-9.496v136.198H12.277
				l24.415,21.888H219.81v-21.888h-55.181v-56.846h35.267c37.733,50.125,80.338,68.16,124.175,77.162l10.697-24.323
				c-10.697-1.727-28.978-4.655-54.534-15.352c27.746-17.296,39.675-27.746,48.923-36.038l-18.959-15.568
				c-3.174,3.669-5.118,5.857-10.48,10.48v-76.945c14.118,6.104,20.191,8.292,27.497,10.729l13.164-23.862
				c-44.33-11.19-73.771-27.251-102.503-59.405H206.739"/>
		</defs>
		<clipPath id="SVGID_00000160152958466393107670000007924300691510390674_">
			<use xlink:href="#SVGID_00000111175234638580597440000012264698658577686702_"  overflow="visible"/>
		</clipPath>
		<g clip-path="url(#SVGID_00000160152958466393107670000007924300691510390674_)">
			<defs>
				
					<rect id="SVGID_00000043430226094372346570000009250967398643540381_" x="-25487.766" y="-24625.08" width="31808.506" height="45003.758"/>
			</defs>
			<clipPath id="SVGID_00000062914787976661617510000009377816635340809872_">
				<use xlink:href="#SVGID_00000043430226094372346570000009250967398643540381_"  overflow="visible"/>
			</clipPath>
			<g clip-path="url(#SVGID_00000062914787976661617510000009377816635340809872_)">
				<defs>
					
						<rect id="SVGID_00000170252078104884110740000015682246982407553727_" x="-25487.766" y="-24624.771" width="31808.812" height="45003.449"/>
				</defs>
				<clipPath id="SVGID_00000051346503714858321730000010845286434712391053_">
					<use xlink:href="#SVGID_00000170252078104884110740000015682246982407553727_"  overflow="visible"/>
				</clipPath>
				
					<linearGradient id="SVGID_00000111885863175887350990000012169535408496999843_" gradientUnits="userSpaceOnUse" x1="-265.57" y1="-738.4537" x2="-234.7422" y2="-738.4537" gradientTransform="matrix(0 -7.5208 7.5208 0 -4029.5994 -1660.0665)">
					<stop  offset="0" style="stop-color:#F29600"/>
					<stop  offset="1" style="stop-color:#E50012"/>
				</linearGradient>
				
					<rect x="-25487.766" y="-24624.768" clip-path="url(#SVGID_00000051346503714858321730000010845286434712391053_)" fill="url(#SVGID_00000111885863175887350990000012169535408496999843_)" width="31808.809" height="45003.445"/>
			</g>
		</g>
	</g>
</g>
<g>
	<defs>
		<rect id="SVGID_00000150794358984560276660000000696473260236948610_" x="350.089" y="11.628" width="341.788" height="420.523"/>
	</defs>
	<clipPath id="SVGID_00000160885345205660622180000000844776254209220496_">
		<use xlink:href="#SVGID_00000150794358984560276660000000696473260236948610_"  overflow="visible"/>
	</clipPath>
	<g clip-path="url(#SVGID_00000160885345205660622180000000844776254209220496_)">
		<defs>
			<path id="SVGID_00000065038120261560946790000000384861066873702076_" d="M532.406,117.059
				c9.494,9.001,25.063,30.181,29.688,37.487l17.787-14.366c-5.363-9.494-21.919-30.181-29.471-36.747L532.406,117.059
				 M379.531,213.705h58.418v17.51h-58.418V213.705 M379.531,179.64h58.418v16.276h-58.418V179.64 M397.071,11.628v110.549h-44.547
				v21.919h44.547v16.061h-38.966v90.788h38.966v18.033h-46.981v21.888h46.981v141.284l23.121-37.425v-103.86h46.983v-21.888
				h-46.983v-18.033h39.891v-65.387h40.138l0.062,0.894c2.188,27.499,6.074,54.997,11.436,82.033
				c-9.987,11.438-33.848,36.038-66.958,43.807l15.322,21.919c10.482-4.409,33.14-14.119,58.943-38.966
				c3.393,9.494,13.626,37.98,31.629,37.98c19.73,0,27.036-29.688,30.674-44.054l-18.003-10.482
				c-1.479,3.176-6.567,17.788-7.799,20.716l-3.884,5.334c-4.132,0-10.729-15.815-14.612-29.688
				c23.614-31.66,32.122-58.912,35.543-70.595l-21.672-7.306c-2.928,8.755-7.553,23.121-20.684,45.532
				c-2.93-18.744-3.639-27.006-6.074-57.125h141.777l25.956-21.887h-169.12l-0.092-1.573c-0.741-14.366-1.449-29.718-1.942-56.229
				h-24.109c0.739,33.818,1.481,48.923,1.942,57.215l0.062,0.587h-38.535v-3.515h-39.891v-16.061h43.314v-21.919h-43.314V110.37
				h0.032V11.628H397.071"/>
		</defs>
		<clipPath id="SVGID_00000145036406320257527200000010348042333262785204_">
			<use xlink:href="#SVGID_00000065038120261560946790000000384861066873702076_"  overflow="visible"/>
		</clipPath>
		<g clip-path="url(#SVGID_00000145036406320257527200000010348042333262785204_)">
			<defs>
				
					<rect id="SVGID_00000062881496852107331630000012463720692022764977_" x="-25487.766" y="-24625.08" width="31808.506" height="45003.758"/>
			</defs>
			<clipPath id="SVGID_00000044867088689842619320000000604686711676946864_">
				<use xlink:href="#SVGID_00000062881496852107331630000012463720692022764977_"  overflow="visible"/>
			</clipPath>
			<g clip-path="url(#SVGID_00000044867088689842619320000000604686711676946864_)">
				<defs>
					
						<rect id="SVGID_00000088131838158444017050000007309001467193020834_" x="-25487.766" y="-24624.771" width="31808.812" height="45003.449"/>
				</defs>
				<clipPath id="SVGID_00000165946937310950671310000012327415615175309209_">
					<use xlink:href="#SVGID_00000088131838158444017050000007309001467193020834_"  overflow="visible"/>
				</clipPath>
				
					<linearGradient id="SVGID_00000096752143967012362190000011222650940191462822_" gradientUnits="userSpaceOnUse" x1="-250.2519" y1="-130.814" x2="-219.424" y2="-130.814" gradientTransform="matrix(0 -13.641 13.641 0 -7798.9268 -2981.5352)">
					<stop  offset="0" style="stop-color:#F29600"/>
					<stop  offset="1" style="stop-color:#E50012"/>
				</linearGradient>
				
					<rect x="-25487.766" y="-24624.771" clip-path="url(#SVGID_00000165946937310950671310000012327415615175309209_)" fill="url(#SVGID_00000096752143967012362190000011222650940191462822_)" width="31808.812" height="45003.449"/>
			</g>
		</g>
	</g>
</g>
<path d="M616.751,140.581c-1.234,4.04-3.948,6.044-8.14,6.044c-3.144,0-4.964-1.018-5.519-3.084l-0.339-3.329v-8.478l-0.555-0.956
	v-0.339l3.885-0.555v11.653l0.986,2.19l2.589,0.555l3.916-0.988l2.836-2.866L616.751,140.581"/>
<g>
	<path fill="#FFFFFF" d="M608.598,148.148c-3.853,0-6.202-1.415-6.984-4.215l-0.361-3.583l-0.03-8.189l-0.361-0.602
		c-0.12-0.241-0.211-0.512-0.211-0.783c0-0.753,0.572-1.746,1.325-1.836l3.914-0.572c0.422-0.151,0.903,0.09,1.204,0.361
		c0.331,0.271,0.542,0.692,0.542,1.144v11.32l0.512,1.204l1.475,0.331l3.161-0.813l2.559-2.559c0.421-0.452,1.114-0.572,1.596-0.361
		c0.783,0.301,1.505,1.234,1.264,2.017C616.787,145.68,613.475,148.148,608.598,148.148z M604.293,131.681c0,0.03,0,0.03,0,0.06
		v8.46l0.301,3.191c0.09,0.211,0.271,0.813,1.264,1.264c-0.09-0.09-0.151-0.211-0.181-0.331l-0.963-2.198
		c-0.09-0.181-0.151-0.391-0.151-0.602v-9.875L604.293,131.681z"/>
</g>
<path d="M626.891,144.252v-2.312l-0.986-0.309l-1.635,2.096l1.357,2.158L626.891,144.252 M634.075,137.344h-4.533v4.102l3.731,1.942
	l0.553,0.709l-0.523,1.725l-0.401,0.339l-0.709-0.523l-1.202-1.295l-1.294-1.234l-0.184,1.727l-1.543,1.571l-2.25,0.371
	l-2.958-0.617l-1.419-2.435l1.511-2.375l2.743-0.585l1.264,0.092v-5.918l-0.802-1.08l0.03-0.463l3.453-0.431v3.669h2.559
	l0.802-0.741l1.172,1.327V137.344z"/>
<g>
	<path fill="#FFFFFF" d="M625.728,148.299c-0.09,0-0.211-0.03-0.301-0.03l-2.98-0.602c-0.422-0.09-0.813-0.361-1.024-0.753
		l-1.415-2.439c-0.271-0.482-0.271-1.084,0.03-1.565l1.535-2.408c0.241-0.361,0.602-0.602,0.994-0.692l2.74-0.542
		c0.03,0,0.03,0,0.03,0v-3.823l-0.512-0.692c-0.211-0.271-0.301-0.632-0.301-0.993l0.03-0.452c0.06-0.753,0.632-1.325,1.355-1.415
		l3.462-0.421c0.452-0.211,0.843,0.09,1.204,0.361c0.301,0.301,0.512,0.692,0.512,1.144v2.137h0.422l0.331-0.331
		c0.301-0.271,0.723-0.241,1.114-0.421c0.422,0.03,0.813,0.211,1.084,0.512l1.174,1.325c0.241,0.301,0.391,0.662,0.391,1.024
		c0,0.843-0.692,1.656-1.535,1.656h-2.98v1.626l2.92,1.535c0.181,0.09,0.331,0.241,0.482,0.421l0.542,0.692
		c0.301,0.391,0.391,0.903,0.271,1.355l-0.512,1.746c-0.09,0.331-0.301,0.602-0.572,0.813l-0.452,0.331
		c-0.542,0.361-1.295,0.391-1.836-0.03l-1.445-1.325l-1.445,1.445c-0.241,0.211-0.512,0.361-0.843,0.421l-2.228,0.361
		C625.878,148.269,625.818,148.299,625.728,148.299z M623.711,144.807l2.047,0.391l1.475-0.211l0.813-0.843l0.151-1.174
		c0-0.211,0.06-0.391,0.151-0.572c-0.12-0.181-0.211-0.391-0.271-0.602c-0.06,0.06-0.12,0.12-0.151,0.181
		c-0.301,0.271-0.662,0.421-1.054,0.421c-0.03,0-0.06,0-0.12,0l-1.054-0.09l-1.897,0.391l-0.692,1.054L623.711,144.807z"/>
</g>
<g>
	<path fill="#FFFFFF" d="M625.638,147.426c-0.03,0-0.03,0-0.06,0c-0.512-0.03-0.963-0.301-1.234-0.723l-1.355-2.168
		c-0.331-0.542-0.301-1.234,0.09-1.746l1.626-2.107c0.391-0.572,1.114-0.753,1.686-0.512l0.963,0.331
		c0.632,0.211,1.054,0.783,1.054,1.445v2.258c0,0.331-0.12,0.632-0.301,0.903l-1.234,1.686
		C626.571,147.185,626.119,147.426,625.638,147.426z"/>
</g>
<polyline points="651.34,129.73 646.9,134.17 641.012,136.729 639.285,137.406 639.071,137.807 639.285,138.146 640.273,138.517 
	643.233,139.502 646.932,141.138 650.507,145.021 650.014,146.254 648.781,146.809 647.579,146.254 646.716,145.143 
	640.057,139.627 638.762,138.917 638.115,137.745 638.484,136.851 639.686,136.02 641.105,135.218 646.098,131.086 646.285,130.655 
	645.79,130.379 645.79,130.008 650.94,129.669 651.34,129.73 "/>
<g>
	<path fill="#FFFFFF" d="M648.789,148.329c-0.211,0-0.422-0.06-0.632-0.151l-1.204-0.542c-0.211-0.09-0.422-0.241-0.572-0.452
		l-0.873-1.114l-6.412-5.268l-1.084-0.572c-0.241-0.12-0.452-0.331-0.572-0.572l-0.662-1.174c-0.241-0.421-0.271-0.933-0.06-1.385
		l0.391-0.873c0.09-0.241,0.271-0.452,0.512-0.632l2.74-1.716l3.914-3.251c0-0.09-0.03-0.151-0.03-0.241v-0.391
		c0-0.813,0.632-1.475,1.445-1.535l5.148-0.331l0.723,0.09c0.572,0.09,1.024,0.482,1.204,1.024c0.181,0.542,0.03,1.144-0.361,1.565
		l-4.425,4.456c-0.151,0.12-0.301,0.241-0.482,0.301l-4.877,2.137l1.084,0.361l3.823,1.686c0.211,0.06,0.361,0.181,0.512,0.331
		l3.583,3.853c0.391,0.452,0.512,1.054,0.301,1.596l-0.482,1.264c-0.12,0.391-0.421,0.692-0.813,0.843l-1.234,0.542
		C649.21,148.269,648.999,148.329,648.789,148.329z M645.537,142.188l1.234,1.024l-0.753-0.813L645.537,142.188z"/>
</g>
<path d="M672.949,131.487l-0.154,0.587l-0.461,0.215l-0.463-0.401l-0.184-0.677l-0.833-1.665l0.124-0.154l1.417,1.048
	L672.949,131.487 M671.191,132.012l-0.615,0.771l-0.587-0.617l-0.307-1.327l-0.433-1.016l0.186-0.092l1.14,0.954L671.191,132.012
	 M672.241,134.725h-3.3l0.032,3.607l-0.216,3.298l-1.695,2.99l-6.412,2.343l-0.062-0.277l4.687-3.978l0.585-4.777v-3.206h-4.162
	l-0.864,0.585l-1.108-1.232l0.03-0.092h6.042l-0.092-2.591l-0.677-0.862v-0.371l3.791-0.617l0.092,4.441h1.14l0.926-0.802
	l1.264,1.325V134.725z M661.081,142.492l-2.96,3.054l-2.405-2.405l-0.246-3.761c0-1.573,0.092-4.132,0.246-7.677l-0.493-0.894
	v-0.371l3.854-0.585c-0.309,4.224-0.463,7.06-0.463,8.571l0.03,2.805l0.926,2.188l1.17-1.078L661.081,142.492z"/>
<g>
	<path fill="#FFFFFF" d="M658.121,147.095c-0.391,0-0.783-0.181-1.084-0.452l-2.408-2.408c-0.271-0.271-0.421-0.602-0.452-0.993
		l-0.241-3.793c0-1.626,0.09-4.064,0.241-7.376l-0.301-0.542c-0.12-0.211-0.181-0.482-0.181-0.723c0-0.753,0.572-1.746,1.294-1.867
		l3.854-0.602c0.512,0,0.933,0.06,1.264,0.391c0.361,0.301,0.542,0.753,0.512,1.234c-0.301,4.155-0.482,7.015-0.482,8.429
		l0.03,2.499c0.361-0.12,0.873-0.211,1.294,0.09c0.422,0.211,0.873,0.723,0.963,1.174c0.06,0.482,0.06,1.054-0.241,1.385
		l-2.95,3.071C658.904,146.944,658.272,147.185,658.121,147.095z M657.188,142.489l0.542,0.542l-0.512-1.204
		c-0.03-0.09-0.06-0.211-0.09-0.301L657.188,142.489z M657.248,131.681c0,0.03,0,0.06,0,0.09c-0.151,3.492-0.241,5.991-0.241,7.587
		l0.09,1.656l-0.03-2.589c0-1.295,0.151-3.522,0.361-6.774L657.248,131.681z"/>
</g>
<g>
	<path fill="#FFFFFF" d="M660.65,148.51c-0.271,0-0.512-0.06-0.753-0.211c-0.391-0.211-0.662-0.602-0.753-1.024
		c-0.09-0.542,0.03-1.415,0.452-1.776l4.245-3.583l0.512-4.155l-0.03-1.505h-2.138l-0.482,0.331
		c-0.632,0.452-1.505,0.331-2.017-0.241l-1.114-1.234c-0.301-0.361-0.452-0.843-0.361-1.325c0.151-0.723,0.813-1.385,1.535-1.385
		h4.456v-0.452l-0.361-0.452c-0.241-0.271-0.361-0.602-0.361-0.963c0-0.753,0.542-1.746,1.294-1.867l3.793-0.632
		c0.241,0,0.843,0.03,1.204,0.331c0.361,0.271,0.542,0.692,0.572,1.144l0.03,2.258c0.602-0.12,1.234-0.12,1.686,0.361l1.264,1.295
		c0.301,0.271,0.452,0.662,0.452,1.054c0,0.843-0.692,1.776-1.535,1.776h-1.776l0.03,2.077l-0.211,3.372
		c-0.03,0.241-0.09,0.452-0.211,0.662l-1.686,3.011c-0.181,0.301-0.452,0.542-0.813,0.692l-6.412,2.348
		C661.011,148.48,660.831,148.51,660.65,148.51z M667.303,134.21c0.06,0.151,0.09,0.331,0.09,0.512v3.221l-0.452,3.793l0.301-0.572
		l0.181-2.92l-0.03-3.522c0-0.09,0.03-0.211,0.06-0.331c-0.06-0.12-0.09-0.271-0.09-0.421l-0.12-2.619l0.09,2.529
		C667.333,133.999,667.333,134.119,667.303,134.21z"/>
</g>
<g>
	<path fill="#FFFFFF" d="M670.585,134.33c-0.422,0-0.813-0.181-1.114-0.482l-0.602-0.632c-0.181-0.211-0.301-0.452-0.361-0.723
		l-0.662-2.107c-0.301-0.723,0.03-1.565,0.723-1.927c0.572-0.301,1.355-0.301,1.867,0.09l1.144,0.963
		c0.151,0.151,0.301,0.331,0.391,0.542l0.602,1.325c0.241,0.512,0.181,1.114-0.181,1.565l-0.602,0.783
		C671.488,134.119,670.946,134.149,670.585,134.33z"/>
</g>
<g>
	<path fill="#FFFFFF" d="M672.331,133.818c-0.391,0-0.753-0.151-1.054-0.421l-0.452-0.421c-0.181-0.181-0.331-0.452-0.422-0.723
		l-0.181-0.662l-0.723-1.355c-0.271-0.542-0.211-1.174,0.151-1.656c0.542-0.602,1.686-0.813,2.228-0.421l1.415,1.054
		c0.181,0.151,0.331,0.301,0.421,0.482l0.572,1.024c0.211,0.361,0.241,0.783,0.151,1.204l-0.181,0.602
		c-0.151,0.391-0.422,0.753-0.843,0.933l-0.452,0.211C672.783,133.758,672.542,133.818,672.331,133.818z"/>
</g>
<polyline points="691.17,136.451 691.17,136.637 687.192,136.637 688.703,140.953 685.435,141.384 682.044,139.781 679.639,140.428 
	678.591,142.586 680.533,144.899 683.647,145.422 685.928,145.145 688.24,144.035 688.671,144.312 686.206,146.039 681.118,146.871 
	677.205,146.009 675.047,142.925 677.05,139.719 680.996,138.949 684.757,139.504 684.818,139.472 683.894,136.637 676.341,136.637 
	675.447,137.252 674.337,135.99 674.337,135.897 683.709,135.897 682.876,133.122 676.433,133.122 675.539,133.799 674.459,132.505 
	674.459,132.413 682.661,132.413 682.291,131.026 681.365,130.347 681.305,129.916 685.064,129.453 685.866,132.413 
	688.394,132.413 689.288,131.673 690.583,132.998 690.583,133.152 686.144,133.152 686.946,135.897 688.918,135.897 
	689.781,135.156 691.17,136.451 "/>
<g>
	<path fill="#FFFFFF" d="M681.122,148.419c-0.12,0-0.211-0.03-0.331-0.06l-3.914-0.873c-0.361-0.06-0.692-0.301-0.933-0.602
		l-2.168-3.131c-0.331-0.512-0.361-1.174-0.03-1.686l2.017-3.161c0.06-0.09,0.09-0.151,0.151-0.211
		c-0.602,0.211-1.204,0.03-1.596-0.421l-1.114-1.264c-0.241-0.301-0.391-0.662-0.391-1.024c0-0.753,0.542-1.475,1.264-1.626
		l-0.753-0.873c-0.241-0.271-0.391-0.632-0.391-0.993c0-0.843,0.692-1.626,1.535-1.626h5.449c-0.03-0.09-0.06-0.211-0.06-0.301
		l-0.06-0.452c-0.06-0.421,0.06-0.813,0.301-1.144c0.241-0.331,0.602-0.542,1.024-0.572l3.763-0.482c0.06-0.03,0.12-0.03,0.181-0.03
		c0.692,0,1.295,0.452,1.475,1.144l0.512,1.836h0.813l0.452-0.361c0.572-0.542,1.475-0.512,2.047,0.12l1.295,1.325
		c0.301,0.271,0.452,0.662,0.452,1.054c0,0.572-0.331,1.144-0.813,1.445l0.933,0.873c0.361,0.331,0.542,0.843,0.452,1.325
		l-0.03,0.211c-0.09,0.753-0.753,1.325-1.505,1.325h-1.806l0.813,2.258c0.151,0.452,0.09,0.933-0.151,1.325
		s-0.632,0.632-1.114,0.692l-0.391,0.06c0.181,0.03,0.391,0.12,0.572,0.241l0.452,0.301c0.422,0.271,0.692,0.753,0.692,1.264
		c0,0.482-0.241,0.963-0.662,1.264l-2.469,1.716c-0.181,0.12-0.391,0.211-0.632,0.241l-5.088,0.843
		C681.302,148.389,681.212,148.419,681.122,148.419z M678.111,144.656l0.271,0.06l-0.963-1.204
		c-0.241-0.271-0.361-0.632-0.361-0.963l-0.181,0.301L678.111,144.656z M681.333,143.482l2.348,0.391l1.836-0.211l2.047-1.024h0.03
		l-2.017,0.241c-0.361,0.151-0.572,0-0.843-0.12l-2.83-1.355l-1.204,0.331l-0.301,0.602L681.333,143.482z M685.246,135.926
		c0.03,0.09,0.06,0.181,0.09,0.271l0.903,2.83c0.09,0.211,0.09,0.452,0.06,0.692l0.331-0.03l-0.873-2.529
		c-0.03-0.151-0.06-0.271-0.09-0.421c-0.09-0.12-0.151-0.301-0.211-0.452l-0.783-2.709c-0.03-0.09-0.03-0.211-0.06-0.301
		c-0.09-0.151-0.151-0.301-0.211-0.482l-0.512-1.686l0.241,0.903c0.03,0.12,0.06,0.241,0.06,0.331c0.06,0.12,0.09,0.211,0.12,0.331
		l0.843,2.74C685.216,135.594,685.246,135.745,685.246,135.926z M676.817,138.184l-0.09,0.03h0.03l0.241-0.03H676.817z"/>
</g>
<path d="M616.751,140.581c-1.234,4.04-3.948,6.044-8.14,6.044c-3.144,0-4.964-1.018-5.519-3.084l-0.339-3.329v-8.478l-0.555-0.956
	v-0.339l3.885-0.555v11.653l0.986,2.19l2.589,0.555l3.916-0.988l2.836-2.866L616.751,140.581"/>
<path d="M626.891,144.252v-2.312l-0.986-0.309l-1.635,2.096l1.357,2.158L626.891,144.252 M634.075,137.344h-4.533v4.102l3.731,1.942
	l0.553,0.709l-0.523,1.725l-0.401,0.339l-0.709-0.523l-1.202-1.295l-1.294-1.234l-0.184,1.727l-1.543,1.571l-2.25,0.371
	l-2.958-0.617l-1.419-2.435l1.511-2.375l2.743-0.585l1.264,0.092v-5.918l-0.802-1.08l0.03-0.463l3.453-0.431v3.669h2.559
	l0.802-0.741l1.172,1.327V137.344z"/>
<polyline points="651.34,129.73 646.9,134.17 641.012,136.729 639.285,137.406 639.071,137.807 639.285,138.146 640.273,138.517 
	643.233,139.502 646.932,141.138 650.507,145.021 650.014,146.254 648.781,146.809 647.579,146.254 646.716,145.143 
	640.057,139.627 638.762,138.917 638.115,137.745 638.484,136.851 639.686,136.02 641.105,135.218 646.098,131.086 646.285,130.655 
	645.79,130.379 645.79,130.008 650.94,129.669 651.34,129.73 "/>
<path d="M672.949,131.487l-0.154,0.587l-0.461,0.215l-0.463-0.401l-0.184-0.677l-0.833-1.665l0.124-0.154l1.417,1.048
	L672.949,131.487 M671.191,132.012l-0.615,0.771l-0.587-0.617l-0.307-1.327l-0.433-1.016l0.186-0.092l1.14,0.954L671.191,132.012
	 M672.241,134.725h-3.3l0.032,3.607l-0.216,3.298l-1.695,2.99l-6.412,2.343l-0.062-0.277l4.687-3.978l0.585-4.777v-3.206h-4.162
	l-0.864,0.585l-1.108-1.232l0.03-0.092h6.042l-0.092-2.591l-0.677-0.862v-0.371l3.791-0.617l0.092,4.441h1.14l0.926-0.802
	l1.264,1.325V134.725z M661.081,142.492l-2.96,3.054l-2.405-2.405l-0.246-3.761c0-1.573,0.092-4.132,0.246-7.677l-0.493-0.894
	v-0.371l3.854-0.585c-0.309,4.224-0.463,7.06-0.463,8.571l0.03,2.805l0.926,2.188l1.17-1.078L661.081,142.492z"/>
<polyline points="691.17,136.451 691.17,136.637 687.192,136.637 688.703,140.953 685.435,141.384 682.044,139.781 679.639,140.428 
	678.591,142.586 680.533,144.899 683.647,145.422 685.928,145.145 688.24,144.035 688.671,144.312 686.206,146.039 681.118,146.871 
	677.205,146.009 675.047,142.925 677.05,139.719 680.996,138.949 684.757,139.504 684.818,139.472 683.894,136.637 676.341,136.637 
	675.447,137.252 674.337,135.99 674.337,135.897 683.709,135.897 682.876,133.122 676.433,133.122 675.539,133.799 674.459,132.505 
	674.459,132.413 682.661,132.413 682.291,131.026 681.365,130.347 681.305,129.916 685.064,129.453 685.866,132.413 
	688.394,132.413 689.288,131.673 690.583,132.998 690.583,133.152 686.144,133.152 686.946,135.897 688.918,135.897 
	689.781,135.156 691.17,136.451 "/>
<g>
	<path fill="#BD8943" d="M277.8,686.853l-36.729-77.25l11.711-8.911c2.047-1.535,49.824-37.421,89.353-12.614l38.655,24.114
		l-44.646,9.062c-0.632,0.151-22.459,5.69-40.943,36.548L277.8,686.853z"/>
</g>
<g>
	<path fill="#BD8943" d="M354.238,661.776l32.755-47.025c6.533-9.393,12.614-21.736,13.818-27.727l-24.716-21.676l91.34-18.154
		l-2.77,24.656c-0.241,2.138-6.412,52.052-56.598,70.326L354.238,661.776z"/>
</g>
<g>
	<polygon fill="#BD8943" points="356.315,565.469 256.365,565.469 219.938,521.003 319.888,521.003 	"/>
</g>
<g>
	<polygon fill="#BD8943" points="360.831,600.12 260.851,600.12 224.424,555.654 324.404,555.654 	"/>
</g>
<g>
	<polygon fill="#BD8943" points="366.551,575.494 325.487,533.497 366.551,491.5 407.615,533.497 	"/>
</g>
<g>
	<path fill="#BD8943" d="M617.389,673.306h-211.58l-36.578-44.104h65.449v-59.428l10.988-4.727
		c13.547-5.81,30.316-8.911,51.269-9.483c21.194,0.452,38.746,3.733,53.106,9.664l11.199,4.636v59.338h19.388L617.389,673.306z
		 M470.986,636.999h53.949v-41.846c-8.068-1.957-17.431-3.071-27.908-3.342c-9.784,0.301-18.575,1.325-26.041,3.071V636.999z"/>
</g>
<g>
	<path fill="#BD8943" d="M497.72,665.509h-46.242v-94.44l11.199-4.636c3.643-1.535,8.098-2.679,13.999-3.643l21.044-3.402V665.509z"
		/>
</g>
<g>
	<polygon fill="#BD8943" points="520.299,665.509 475.532,665.509 475.532,562.277 496.094,560.923 520.299,561.435 	"/>
</g>
<g>
	<path fill="#BD8943" d="M543.932,665.509h-45.82V558.936l21.435,3.914c4.034,0.753,7.978,1.686,11.711,2.89l12.674,4.004V665.509z"
		/>
</g>
<g>
	<path fill="#BD8943" d="M391.027,675.895c-9.032-0.181-17.13-2.017-24.927-5.479c-9.573-4.426-17.822-11.47-24.897-21.074
		c-9.032-13.036-15.564-29.895-20.201-51.932c-0.271-0.963-1.204-6.202-2.649-15.324h-75.203l-35.825-43.773h102.719
		c-0.662-1.505-1.746-3.522-3.011-5.69l-3.492-9.423l-0.602-4.877l5.178-13.969l14.872-4.516l6.744,2.469
		c10.386,4.456,18.334,10.416,25.499,18.695c4.094,5.419,7.436,11.079,10.296,17.311h178.705l35.645,43.773H378.443
		c2.98,13.307,5.539,23.904,7.737,31.912c3.191,12.223,8.369,21.375,15.866,28.179l3.853,2.77l5.63,13.156l-9.875,17.19
		L391.027,675.895z"/>
</g>
<path fill="#231815" d="M390.905,655.282c-10.482-8.97-17.788-21.147-21.949-36.531c-2.312-8.292-5.056-19.42-8.232-33.325
	l-3.822-16.276l-1.172-3.885h185.707l-6.104-7.244H353.448c-3.112-9.34-6.966-17.017-11.528-22.999
	c-5.364-6.01-10.975-10.234-16.801-12.639l-2.405-1.018l-0.709,0.216l-0.184,0.401l0.184,1.387l1.078,2.437
	c2.19,3.607,3.916,6.998,5.118,10.234c1.942,6.012,3.637,13.348,5.026,21.981h-86.905l6.074,7.244h82.001l0.585,3.885
	c2.19,14.612,3.577,22.967,4.194,25.093c4.008,18.899,9.679,33.479,16.985,43.775c5.242,6.968,11.099,11.901,17.542,14.861
	c5.611,2.403,11.282,3.667,17.017,3.822h0.555l0.339-0.617l-0.184-0.401L390.905,655.282 M525.53,646.559h-9.495v-64.954
	c3.298,0.585,6.473,1.357,9.495,2.28V646.559z M501.978,646.559h-8.416v-66.343l3.607-0.247l4.809,0.124V646.559z M479.505,646.559
	h-9.927V584.01c2.343-0.926,5.641-1.727,9.927-2.405V646.559z M571.772,646.559h-28.978v-63.692
	c-12.3-4.962-27.467-7.675-45.502-8.076c-18.374,0.493-33.201,3.114-44.422,7.829v63.938h-44.855l6.475,7.615h163.726
	L571.772,646.559z M382.488,535.61l-15.66-15.63l-15.63,15.63l15.63,15.628L382.488,535.61z M322.961,582.838l-6.659-7.953h-52.901
	l6.689,7.953H322.961z M318.46,549.082l-6.659-7.953H258.93l6.659,7.953H318.46z M446.673,571.031l-30.828,5.98
	c12.701,10.883-20.039,56.971-20.039,56.971C435.882,619.739,446.673,571.031,446.673,571.031 M264.419,615.144l15.845,32.493
	c23.243-38.01,52.654-43.837,52.654-43.837C303.661,585.92,264.419,615.144,264.419,615.144"/>
<g>
	<path fill="#B7183F" d="M279.005,674.299l-30.768-63.101l8.52-6.352c1.897-1.415,46.723-34.139,82.85-11.982l28.058,17.13
		l-32.243,6.382c-0.873,0.181-24.536,5.75-44.225,37.933L279.005,674.299z M281.052,619.929l1.415,2.95
		c2.107-2.408,4.185-4.636,6.292-6.714C285.899,617.4,283.31,618.695,281.052,619.929z"/>
</g>
<g>
	<path fill="#B7183F" d="M361.915,659.638l23.452-33.056c11.651-16.498,21.465-36.638,20.562-42.268l-20.14-17.311l27.637-2.619
		l49.975-9.634l-4.215,19.057c-0.512,2.288-12.855,55.845-59.067,72.253L361.915,659.638z"/>
</g>
<g>
	<polygon fill="#B7183F" points="345.959,561.916 259.587,561.916 231.529,528.289 317.78,528.289 	"/>
</g>
<g>
	<polygon fill="#B7183F" points="350.415,595.664 264.133,595.664 235.864,562.067 322.296,562.067 	"/>
</g>
<g>
	<polygon fill="#B7183F" points="366.822,569.352 333.074,535.604 366.822,501.856 400.63,535.604 	"/>
</g>
<g>
	<path fill="#B7183F" d="M605.949,666.954H408.548l-28.329-33.236h59.819v-59.609l7.857-3.312
		c12.674-5.329,29.172-8.309,49.072-8.821c20.08,0.421,36.909,3.462,50.637,9.001l8.008,3.251v59.488h22.097L605.949,666.954z
		 M465.688,641.304h64.275v-49.282c-9.363-2.649-20.381-4.124-32.935-4.395c-12.102,0.331-22.699,1.716-31.34,4.124V641.304z"/>
</g>
<g>
	<path fill="#B7183F" d="M492.331,659.367h-35.585v-84.054l8.098-3.221c3.312-1.325,7.466-2.348,12.704-3.161l14.782-2.288V659.367z
		"/>
</g>
<g>
	<polygon fill="#B7183F" points="514.82,659.367 480.741,659.367 480.741,568.208 496.335,567.185 514.82,567.606 	"/>
</g>
<g>
	<path fill="#B7183F" d="M538.362,659.367h-35.163v-92.995l15.023,2.589c3.854,0.662,7.526,1.596,11.079,2.679l9.062,2.77V659.367z"
		/>
</g>
<g>
	<path fill="#B7183F" d="M391.237,669.513c-8.219-0.211-15.534-1.836-22.579-4.877c-8.7-3.974-16.257-10.296-22.73-18.906
		c-8.64-12.102-14.872-27.998-19.298-48.801c-0.361-1.114-1.505-7.587-3.281-18.846h-76.919l-27.667-32.875h98.746
		c-0.482-1.836-0.993-3.583-1.505-5.208c-0.753-2.017-2.137-4.666-3.853-7.466l-3.312-10.988l3.583-10.176l10.416-3.402l4.937,1.626
		c9.875,4.094,17.1,9.483,23.723,16.919c4.305,5.569,7.827,11.741,10.808,18.695h178.976l27.787,32.875H372.181l1.054,4.425
		c3.101,13.728,5.81,24.656,8.068,32.815c3.522,12.975,9.363,22.82,17.852,30.135l3.552,4.155l3.613,6.683l-7.737,12.614
		L391.237,669.513z"/>
</g>
<path fill="#FFFFFF" d="M390.875,654.635c-10.482-8.939-17.789-21.147-21.919-36.531c-2.344-8.292-5.088-19.39-8.232-33.325
	l-3.853-16.276l-1.17-3.853h185.707l-6.074-7.276H353.448c-3.144-9.34-6.998-16.987-11.56-22.999
	c-5.363-6.01-10.973-10.234-16.801-12.639l-2.373-0.986l-0.741,0.184l-0.184,0.401l0.184,1.419l1.11,2.405
	c2.19,3.607,3.885,7.028,5.088,10.234c1.972,6.042,3.637,13.348,5.056,21.981h-86.935l6.072,7.276h82.003l0.585,3.853
	c2.188,14.612,3.577,22.967,4.192,25.125c4.04,18.867,9.681,33.447,16.987,43.743c5.24,6.968,11.098,11.931,17.572,14.861
	c5.579,2.403,11.252,3.699,16.985,3.821h0.555l0.371-0.617l-0.184-0.401L390.875,654.635 M525.53,645.912h-9.526v-64.954
	c3.298,0.615,6.475,1.357,9.526,2.28V645.912z M501.946,645.912h-8.416v-66.343l3.607-0.247l4.809,0.124V645.912z M479.473,645.912
	h-9.895v-62.549c2.312-0.926,5.611-1.727,9.895-2.405V645.912z M571.742,645.912h-28.948V582.22
	c-12.332-4.962-27.499-7.645-45.532-8.076c-18.374,0.493-33.17,3.114-44.422,7.829v63.938h-44.855l6.473,7.615h163.728
	L571.742,645.912z M382.458,534.963l-15.63-15.63l-15.66,15.63l15.66,15.66L382.458,534.963z M322.929,582.19l-6.659-7.923h-52.869
	l6.659,7.923H322.929z M318.428,548.465l-6.659-7.953H258.9l6.659,7.953H318.428z M446.641,570.383l-30.796,5.98
	c12.671,10.913-30.982,65.233-30.982,65.233C424.969,627.384,446.641,570.383,446.641,570.383 M264.419,614.497l15.813,32.493
	c23.245-38.01,52.686-43.837,52.686-43.837C303.631,585.304,264.419,614.497,264.419,614.497"/>
<g>
	<path fill="#FFFFFF" d="M279.577,660.722l-23.452-48.229l4.365-3.281c1.776-1.264,43.141-31.611,75.865-11.681l14.451,8.821
		l-16.618,3.281c-1.054,0.211-27.065,6.021-48.319,40.793L279.577,660.722z M272.893,616.798l8.279,17.009
		c11.229-15.263,23.181-24.385,32.664-29.774C297.008,603.1,280.721,611.981,272.893,616.798z"/>
</g>
<g>
	<path fill="#FFFFFF" d="M365.166,655.574l14.541-18.093c19.267-23.994,34.35-50.818,31.671-56.267l-10.356-8.881l55.996-10.687
		l-4.215,11.079c-0.933,2.439-23.271,60.03-65.75,75.113L365.166,655.574z M424.534,581.394c0.331,8.7-4.727,20.351-11.651,32.032
		c10.296-11.651,17.883-24.957,22.489-34.139L424.534,581.394z"/>
</g>
<g>
	<polygon fill="#FFFFFF" points="332.622,555.052 262.477,555.052 244.775,533.918 314.83,533.918 	"/>
</g>
<g>
	<polygon fill="#FFFFFF" points="337.078,588.77 266.993,588.77 249.261,567.666 319.346,567.666 	"/>
</g>
<g>
	<path fill="#FFFFFF" d="M366.822,559.959l-24.987-24.987l24.987-24.987l24.957,24.987L366.822,559.959z M360.5,534.972l6.322,6.322
		l6.292-6.322l-6.292-6.322L360.5,534.972z"/>
</g>
<g>
	<path fill="#FFFFFF" d="M592.401,660.12H411.408l-17.702-20.803h52.534v-61.746l4.064-1.686
		c11.982-4.997,27.727-7.797,46.784-8.339c19.027,0.422,35.103,3.312,48.169,8.55l4.124,1.656v61.565h25.439L592.401,660.12z
		 M459.426,646.934h76.769v-60.12c-10.838-3.673-23.964-5.72-39.077-6.081c-14.992,0.421-27.727,2.378-37.692,5.78V646.934z"/>
</g>
<g>
	<path fill="#FFFFFF" d="M486.069,652.503h-23.091v-73.668l4.185-1.626c2.83-1.114,6.503-2.017,11.259-2.77l7.647-1.234V652.503z"/>
</g>
<g>
	<polygon fill="#FFFFFF" points="508.558,652.503 486.942,652.503 486.942,573.386 496.696,572.724 508.558,572.995 	"/>
</g>
<g>
	<path fill="#FFFFFF" d="M532.13,652.503h-22.73v-79.538l7.827,1.505c3.552,0.662,6.924,1.445,10.236,2.439l4.666,1.445V652.503z"/>
</g>
<g>
	<path fill="#FFFFFF" d="M391.237,662.649c-7.195-0.12-13.758-1.596-20.171-4.365c-7.556-3.432-14.33-9.122-20.201-16.979
		c-7.978-11.199-13.879-26.312-18.154-46.302c-0.391-1.234-1.264-5.449-4.004-23.753h-79.448l-17.01-20.472h93.056
		c-1.024-5.028-2.168-9.483-3.432-13.367c-0.963-2.589-2.469-5.6-4.425-8.821l-2.258-6.894l1.957-6.021l5.329-1.626l5.088,1.565
		c6.774,2.8,13.216,7.617,19.237,14.36c4.516,5.901,8.219,12.795,11.289,20.803h180.361l17.01,20.472H364.293l2.86,11.982
		c3.131,13.879,5.84,24.897,8.128,33.086c3.763,13.969,10.386,25.108,19.689,33.146l2.258,2.439l1.806,3.372l-3.733,6.744
		L391.237,662.649z M340.931,563.963l0.572,3.522c2.77,18.816,3.673,23.271,3.974,24.265c3.974,18.424,9.303,32.333,16.046,41.786
		c3.613,4.847,7.647,8.61,11.952,11.139c-4.757-7.225-8.399-15.534-10.928-24.867c-2.318-8.309-5.088-19.508-8.249-33.598
		l-7.105-26.734c-2.89-8.58-6.443-15.685-10.567-21.134c-0.331-0.361-0.662-0.753-1.024-1.114c1.596,5.66,2.98,12.012,4.124,19.087
		l1.264,7.647H340.931z"/>
</g>
<path fill="#BD8943" d="M446.551,570.476l-30.828,5.951c12.701,10.913-30.952,65.263-30.952,65.263
	C424.847,627.446,446.551,570.476,446.551,570.476"/>
<polyline fill="#BD8943" points="318.338,548.525 311.679,540.572 258.778,540.572 265.467,548.525 318.338,548.525 "/>
<polyline fill="#BD8943" points="322.838,582.282 316.148,574.329 263.279,574.329 269.938,582.282 322.838,582.282 "/>
<polyline fill="#BD8943" points="382.366,535.055 366.704,519.426 351.075,535.055 366.704,550.685 382.366,535.055 "/>
<path fill="#BD8943" d="M525.406,646.004h-9.494V581.05c3.298,0.585,6.474,1.357,9.494,2.281V646.004 M501.854,646.004h-8.446
	v-66.341l3.637-0.246l4.809,0.122V646.004z M479.35,646.004h-9.897v-62.549c2.312-0.926,5.611-1.727,9.897-2.405V646.004z
	 M578.092,653.587l-6.474-7.583H542.67v-63.69c-12.3-4.964-27.467-7.677-45.5-8.078c-18.406,0.493-33.202,3.114-44.454,7.831v63.936
	H407.89l6.444,7.583H578.092z"/>
<path fill="#BD8943" d="M390.752,654.727c-10.482-8.969-17.788-21.147-21.92-36.531c-2.311-8.292-5.054-19.42-8.23-33.325
	l-3.823-16.276l-1.17-3.885h185.707l-6.104-7.244H353.326c-3.144-9.34-6.998-17.017-11.528-22.997
	c-5.364-6.012-10.975-10.236-16.833-12.641l-2.375-1.018l-0.739,0.216l-0.184,0.401l0.184,1.387l1.11,2.405
	c2.188,3.639,3.884,7.03,5.118,10.266c1.942,6.012,3.607,13.348,5.024,21.981H246.17l6.104,7.244h81.971l0.585,3.885
	c2.188,14.58,3.607,22.967,4.224,25.093c4.006,18.867,9.679,33.479,16.985,43.775c5.24,6.967,11.098,11.901,17.542,14.861
	c5.611,2.403,11.282,3.667,16.985,3.822h0.555l0.371-0.617l-0.186-0.401L390.752,654.727"/>
<path fill="#BD8943" d="M280.172,647.267l-15.847-32.461c0,0,39.429-29.656,68.87-11.344
	C333.195,603.462,305.142,607.469,280.172,647.267"/>
</svg>
