<?xml version="1.0" encoding="utf-8"?>
<!-- Generator: Adobe Illustrator 27.0.1, SVG Export Plug-In . SVG Version: 6.00 Build 0)  -->
<svg version="1.1" id="레이어_1" xmlns="http://www.w3.org/2000/svg" xmlns:xlink="http://www.w3.org/1999/xlink" x="0px"
	 y="0px" viewBox="0 0 720 334.375" enable-background="new 0 0 720 334.375" xml:space="preserve">
<path fill-rule="evenodd" clip-rule="evenodd" fill="#888888" d="M269.206,257.258l-1.699-1.543l-2.123-0.058
	c-5.54,1.003-11.061,2.084-16.601,3.107c-2.047,0.386-4.131,0.753-6.197,1.024c-1.969,0.27-3.532-0.425-3.687-3.186
	c-0.154-2.876-0.097-5.771,0-8.648c0.078-2.22,1.351-3.417,3.571-3.59l3.437-0.154c5.674-0.02,11.37-0.02,17.045-0.02l3.3-0.791
	l1.062-3.069l-0.772-1.563c-1.621-2.163-3.59-3.939-5.811-5.406l-4.729,0.444l-1.988,1.911l-3.919,1.853
	c-2.433,0.097-4.865,0.097-7.297,0.134l-0.58-0.097c-2.374-0.443-3.281-1.486-3.339-3.976c-0.058-2.49-0.078-4.98-0.097-7.49
	l0.097-2.49c0.154-1.989,0.811-3.725,3.764-3.842l5.018-0.154c2.935-0.077,5.599,0.522,7.568,2.993l0.115,0.097
	c1.814,1.563,3.456,1.602,5.251,0c1.95-1.738,3.397-3.842,4.034-6.428l0.868-4.151l-0.309-7.875l-0.309-4.537
	c-0.058-3.744-0.039-7.49-0.039-11.234c0-3.339,0-6.698,0.039-10.057l1.409-3.745l1.525-1.737c1.351-1.757,1.563-2.818,0.193-4.575
	l-3.513-3.842l-1.08-0.733l-3.437-0.078l-2.451,1.487c-2.51,2.123-5.406,2.722-8.571,2.586c-2.22-0.077-4.439-0.038-6.659-0.038
	c-5.811,0.019-11.62,0.038-17.412,0.058l-3.417-0.078c-2.335,0.058-4.401-0.714-6.408-1.796l-4.034-1.872l-2.838,2.143l0.135,1.891
	c0.444,2.993,0.753,6.004,0.753,9.034c-0.019,9.613,0,19.207-0.019,28.82l-0.251,2.915l-1.351,4.614
	c-0.656,1.757-0.464,3.398,0.482,4.884l3.571,4.943l1.641,1.389l3.436-0.849l0.753-1.409c0.734-1.679,1.95-2.644,3.764-2.664
	c2.432-0.038,4.845-0.038,7.278,0c2.664,0.039,3.995,1.294,4.073,4.015c0.077,3.34,0.097,6.679-0.019,9.999
	c-0.059,1.872-0.695,3.281-3.128,3.725l-2.008,0.174c-5.192,0.019-10.405,0-15.616,0.019l-2.683,0.329
	c-1.814,0.482-2.471,2.008-1.718,3.764c0.927,2.103,2.818,3.03,5.269,2.915c4.807-0.251,9.633-0.386,14.439-0.522l2.703,0.271
	l2.567,2.605l0.193,1.892c0.039,2.645-0.039,5.289,0.039,7.934c0.097,4.363-1.796,5.328-4.634,5.81
	c-5.636,0.985-11.292,1.95-16.928,2.915c-1.873,0.329-3.803,0.502-5.636,0.966c-2.22,0.56-2.857,2.181-1.814,4.265
	c1.177,2.355,2.818,4.402,4.536,6.37c1.448,1.621,3.262,1.892,5.251,1.119l3.899-1.447c6.756-2.279,13.493-4.556,20.25-6.776
	c7.084-2.336,14.168-4.614,21.272-6.911c2.452-0.791,4.941-1.486,7.373-2.316l2.375-1.274L269.206,257.258 M239.17,176.82
	l2.142-2.123l1.39-0.27c3.108,0,6.196-0.039,9.284,0.115c2.085,0.115,3.108,1.216,3.205,3.378c0.117,2.876,0.117,5.753-0.019,8.609
	c-0.078,1.834-1.062,2.857-2.857,3.089c-1.757,0.231-3.532,0.193-5.289,0.27v-0.077l-3.707-0.02l-1.969-0.27l-2.259-2.528
	c-0.154-2.472-0.232-4.961-0.27-7.432L239.17,176.82z M238.88,200.699c0.077-2.162,0.675-3.783,3.744-3.995l4.556-0.02v0.02
	l4.575,0.019c1.814,0.058,3.378,0.965,3.436,3.495c0.097,3.203,0.174,6.428-0.019,9.613c-0.135,2.201-1.255,3.108-3.417,3.185
	c-3.127,0.097-6.274,0.078-9.421,0c-1.949-0.058-2.934-1.042-3.32-2.954l-0.192-1.601
	C238.823,205.872,238.803,203.286,238.88,200.699 M232.24,210.1l-2.76,2.857c-2.954,0.154-5.926,0.174-8.861,0.019
	c-1.794-0.095-2.759-1.35-2.991-3.204l-0.058-0.425v-8.377c0.019-2.781,1.004-4.054,3.668-4.208c2.567-0.174,5.153-0.154,7.702,0
	c2.181,0.115,3.339,1.158,3.436,3.378C232.529,203.459,232.413,206.799,232.24,210.1 M232.433,185.931
	c-0.193,2.51-1.063,3.63-3.649,3.823c-2.471,0.212-4.961,0.134-7.432,0.019c-2.548-0.115-3.744-1.506-3.783-4.151v-6.601
	l0.097-1.467c0.328-1.834,1.216-2.742,2.991-3.011l2.143-0.154c2.047,0.019,4.092,0.039,6.138,0.115
	c2.394,0.115,3.417,1.621,3.495,3.803C232.549,180.836,232.606,183.403,232.433,185.931"/>
<path fill-rule="evenodd" clip-rule="evenodd" fill="#888888" d="M472.085,279.668c-2.935-0.095-4.363-0.019-7.298-0.019h-12.431
	c-6.756,0-13.532-0.019-20.288,0l-2.508,0.174c-1.719,0.27-2.877,1.292-3.244,3.127l-0.328,2.954
	c-0.232,2.142-0.406,4.285-0.657,6.427l-0.597,1.699l-3.186,1.062l-1.969-1.621c-2.645-3.205-4.845-6.776-6.852-10.481
	c-1.275-2.336-1.371-4.73-0.193-7.143c1.506-3.069,2.008-6.35,2.008-9.767c0-31.214,0.019-62.446-0.02-93.66
	c0-3.976-0.385-7.934-1.35-11.814l-0.386-2.76c0-1.796,1.119-2.779,2.779-2.452l2.065,0.792c12.297,4.69,8.59,18.84,8.571,20.056
	c-0.039,4.71-0.02,2.993-0.02,10.211l0.117,5.097c0.173,3.667,1.389,5.733,3.629,6.196l2.664,0.309
	c14.362,0.019,20.577,0.019,34.939,0c0.946,0,4.478,0.058,4.478,5.501c0,4.383-2.896,4.459-3.822,4.459
	c-7.393-0.039-6.64-0.019-14.015-0.019h-22.334l-2.355,0.309c-1.487,0.444-2.645,1.718-2.954,4.266
	c-0.212,1.737-0.328,3.532-0.328,5.289c-0.02,9.092-0.02,3.339-0.02,9.285l0.117,2.644c0.27,2.394,1.525,3.668,3.764,3.9l2.2,0.154
	c14.632,0.019,21.099,0.019,35.731,0c2.413,0,3.668,3.205,3.668,5.984c0,3.822-3.108,3.552-3.108,3.552
	c-15.095-0.02-22.044-0.02-37.14,0l-1.563,0.095c-2.026,0.29-2.953,1.197-3.397,3.301l-0.251,2.123
	c-0.02,5.772-0.058,11.525,0,17.296c0.039,4.305,1.409,5.618,5.462,5.618c7.49,0.02,14.979,0,22.489,0c7.49,0,11.833,0.02,19.322,0
	c0,0,3.919-0.328,3.919,4.402C477.393,279.881,472.085,279.668,472.085,279.668"/>
<path fill-rule="evenodd" clip-rule="evenodd" fill="#888888" d="M70.574,65.536c0-5.945,0.019-11.909,0-17.874
	c-0.019-5.811,0.058-11.62-0.116-17.45c-0.097-3.861-1.216-7.568-2.567-11.157C66.288,14.71,64.3,10.56,62.253,6.409l-1.081-2.625
	L60.96,2.202l2.085-1.583L65.516,1.7c2.877,1.911,5.714,3.899,8.532,5.867c3.706,2.606,7.431,5.212,11.119,7.876l2.22,1.969
	l0.039,3.437l-1.1,1.196c-2.181,1.853-2.934,4.286-2.973,7.008v1.08c0,16.215,0,19.651,0.019,35.846
	c0,3.262,0.038,6.506,0.077,9.768c0.077,5.365,0.115,15.249,0.289,20.616c0.135,4.246-1.274,7.856-3.919,11.1
	c-1.949,2.374-4.188,4.382-6.775,6.022l-1.622,0.734l-3.803-1.062l-1.332-1.892c-2.201-4.266-5.077-8.011-8.571-11.312l-1.718-1.911
	l-0.367-1.988l1.988-0.541l3.725,0.907c1.757,0.405,3.552,0.733,5.386,0.675c1.949-0.058,3.185-0.984,3.513-2.915l0.309-4.034
	c0.019-8.3-0.019-8.339-0.019-16.621v-7.992H70.574"/>
<path fill-rule="evenodd" clip-rule="evenodd" fill="#888888" d="M133.676,248.32l-0.541,3.321
	c-0.251,3.339-0.116,4.826,0.058,9.438c0.097,3.186,0.213,6.37,0.29,9.536c0.115,5.694,0.115,7.374-0.019,9.825l-1.197,4.402
	c-1.486,2.606-4.42,3.224-6.93,1.39c-2.124-1.583-2.432-2.259-3.745-4.441c-0.811-1.351-1.757-3.107-0.676-6.081
	c1.37-7.161,1.062-7.335,1.062-7.721c-0.135-4.633,0.251-8.668,0-13.281c-0.154-2.723-0.502-5.463-0.733-8.185l-0.097-2.625
	c0.116-2.162,1.757-3.244,3.88-2.413c2.259,0.887,4.421,2.006,6.621,3.01L133.676,248.32"/>
<path fill-rule="evenodd" clip-rule="evenodd" fill="#888888" d="M51.424,45.44l-0.985,2.124l-2.567,1.988l-3.107,3.205
	c-2.703,3.745-5.347,7.529-8.185,11.176c-2.915,3.725-6.254,7.142-9.729,10.462C20.23,80.727,12.933,86.384,5.269,91.673
	l-2.934,1.526l-2.239-0.368L0,90.785l1.892-2.53c5.328-6.099,10.482-12.316,15.23-18.782c3.803-5.193,7.374-10.501,10.578-16.003
	c2.143-3.705,4.073-7.49,5.675-11.408c1.043-2.547,1.66-5.211,2.181-7.875l0.811-1.892l2.491-0.56l2.316,1.66
	c2.934,3.069,5.849,6.196,8.725,9.304l1.332,1.969L51.424,45.44"/>
<path fill-rule="evenodd" clip-rule="evenodd" fill="#888888" d="M542.794,218.302c1.177,2.51-1.429,3.707-1.892,4.112
	c-2.182,1.873-4.653,3.282-6.911,5.019c-2.76,2.143-3.956,3.687-3.956,7.142c0,8.012-0.02,7.798,0,15.81
	c0.038,7.084,0.193,14.169,0.193,21.272c0,4.305-1.738,7.895-4.943,10.694l-2.084,1.292l-4.247-0.733l-1.389-1.429
	c-2.548-3.203-5.116-6.408-7.644-9.632l-1.158-1.814l1.35-1.796l2.818,0.829l2.645,0.87c2.297,0.463,3.571-0.464,3.938-2.818
	l0.232-2.818c0.019-9.575,0.019-12.375,0-21.948l-0.309-3.339c-0.329-1.738-1.487-1.931-3.147-1.351
	c-1.853,0.636-3.454,1.93-5.25,3.454l-2.452,2.452l-4.845,0.309l-2.491-2.355l0.135-3.261l2.047-1.873
	c3.358-2.104,6.756-4.111,10.134-6.157l2.413-1.409c2.587-1.39,3.725-3.688,3.745-6.564c0.058-4.806,0.038-16.407,0.019-21.233
	l-0.29-2.316c-0.424-1.853-1.93-3.089-3.995-3.089c-2.452-0.019-4.904,0.174-7.355,0.213l-3.571-0.213l-1.852-0.984
	c-1.622-1.487-1.255-3.725,0.829-4.344l5.019-0.54c2.394-0.078,4.787,0.058,7.181-0.097c2.316-0.154,3.59-1.468,3.802-3.822
	c0.193-2.065,0.193-4.132,0.232-6.197c0.078-3.59-0.058-7.161-0.56-10.693l-0.078-2.838l2.915-2.355
	c3.128,0.695,6.004,2.008,8.571,3.976l1.062,4.19c-1.93,4.536-1.853,9.246-1.333,13.995c0.271,2.625,2.067,3.513,4.324,2.297
	l0.715-0.444l0.385-0.29c2.818-2.547,5.077-1.911,7.278,0.502l2.394,2.973c1.292,1.853,0.868,3.262-1.294,3.958l-3.687,0.656
	c-1.853,0.097-3.707,0.02-5.579,0.02c-2.915,0.038-4.421,1.274-4.575,4.265c-0.174,3.61-0.135,14.035,0.038,17.643
	c0.097,2.201,1.68,3.244,3.822,2.703l2.857-1.177l2.799-1.351L542.794,218.302"/>
<path fill="#888888" d="M156.262,239.576l-1.371,0.522l-0.656,2.335l0.251,2.143c1.042,4.787,1.293,9.728,1.544,14.516l0.232,4.015
	l0.115,1.988c0.116,2.316,0.251,4.729,0.599,7.046c0.83,5.424,3.069,10.116,6.66,13.957c5.308,5.714,11.794,7.722,19.265,6.023
	c3.88-0.888,7.625-2.781,11.138-5.618l3.861-3.803l0.676-2.374l-2.529,0.058l-0.444,0.174l-1.158,0.444
	c-2.336,0.868-4.73,1.757-7.258,1.949l-1.429,0.039c-5.984,0-11.37-2.74-16.022-8.165c-2.645-3.108-4.073-6.891-4.266-11.235
	l-0.135-2.277l-0.193-3.938l-0.019-1.583c-0.058-2.586-0.097-5.27,0.599-7.876c0.54-2.065,0.019-3.571-1.68-4.748l-0.232-0.174
	l-0.348-0.231c-1.814-0.946-3.629-1.872-5.444-2.779l-1.255-0.368L156.262,239.576"/>
<path fill-rule="evenodd" clip-rule="evenodd" fill="#888888" d="M249.69,58.489c9.864-0.019,19.746,0,29.611-0.019l2.702-0.366
	l1.371-3.224l-0.483-0.811c-2.22-2.375-2.432-2.819-4.768-5.077c-1.833-1.816-3.822-3.803-6.717-2.896
	c-1.178,0.366-3.456,1.448-5.483,2.297c-1.969,0.811-4.458,2.104-6.64,2.065l-4.806,0.039c-4.922,0.019-6.293,0.058-11.235,0.077
	h-16.601c-3.474,0-6.949,0.019-10.443,0c-2.373-0.019-4.748,0-7.142-0.154l-17.991,0.039l-2.741,0.097h-10.308
	c-3.552-0.02-13.918-0.058-17.489-0.02l-4.092,0.309c-1.872,0.405-2.432,4.015-1.602,5.733c0.888,1.816,2.702,2.742,5.019,2.548
	c1.93-0.154,3.841-0.444,5.753-0.482c4.401-0.117,15.616-0.135,20.018-0.135l2.663,0.482l18.493-0.54
	c4.035,0.134,8.069,0.038,12.122,0.038c4.17,0,8.358-0.019,12.528,0H249.69"/>
<path fill-rule="evenodd" clip-rule="evenodd" fill="#888888" d="M142.653,211.18c-15.153,0-30.287-0.019-45.44,0l-1.988,0.135
	l-2.934,3.03l0.251,4.981l2.838,3.629c2.123,1.351,4.517,2.008,6.968,2.432c4.285,0.714,8.609,1.062,12.952,1.119
	c7.007,0.097,14.015,0.271,21.041,0.271c7.201,0.019,14.072-1.563,20.539-4.807c2.123-1.062,4.285-2.026,6.679-2.471
	c2.336-0.444,4.363,0.019,5.946,1.872c2.026,2.355,3.648,5,5.019,7.798l0.309,1.236c0.212,1.989-0.541,3.127-2.49,3.532l-4.537,0.58
	c-7.18,0.424-14.362,0.868-21.581,0.772c-6.062-0.097-12.123,0.058-18.184,0.115l-1.988,0.117c-2.201-0.02-4.382-0.078-6.563-0.135
	c-3.108-0.078-6.197-0.154-9.304-0.29c-3.378-0.134-6.776-0.193-10.115-0.599c-3.552-0.424-7.046-1.235-10.211-3.049
	c-3.687-2.085-5.714-5.27-6.197-9.401c-0.27-2.162-0.25-4.363-0.366-6.564l-0.174-1.409l-2.857-2.722
	c-2.181-0.174-4.382-0.193-6.563-0.115c-2.471,0.077-4.941,0.385-7.413,0.482c-3.185,0.135-6.061-2.837-5.926-6.042l2.084-2.413
	l3.823-0.386c12.142-0.038,24.264-0.019,36.406-0.019H116.4c3.494,0,4.806-1.255,4.71-4.748c-0.077-2.318-0.405-4.634-0.617-6.95
	l-0.097-1.988l2.741-2.201l0.965,0.251c2.22,1.177,4.459,2.316,6.641,3.571l1.506,4.227l-0.444,1.37l-0.482,1.641
	c-0.676,3.108,0.656,4.787,3.841,4.826c3.397,0.019,6.795,0,10.173,0h11.524c3.571,0.019,7.162,0,10.752,0
	c2.084,0,4.034-0.502,5.829-1.621c1.853-1.178,3.707-2.355,5.579-3.474c2.992-1.796,4.556-1.719,7.316,0.405
	c1.912,1.486,3.784,3.049,5.618,4.633l2.336,3.378c0.811,2.645-0.464,4.594-3.205,4.845l-3.436,0.135
	C172.65,211.18,157.651,211.18,142.653,211.18"/>
<path fill="#B4B4B5" d="M311.906,126.67c-4.054,10.772-6.718,13.436-10.501,13.436c-3.784,0-5.193-5.309-5.193-8.263
	c0-3.088,0.425-3.648,4.344-8.957c2.239-2.954,6.583-11.215,8.551-15.288c7.432-15.269,11.775-29.264,14.42-37.815
	c-8.822,2.104-15.539,2.104-17.374,2.104c-9.652,0-14.554-7.008-14.554-8.687l1.525-1.68l2.104,0.695
	c3.513,1.409,7.856,1.409,11.08,1.409c6.293,0,12.741-0.424,19.053-1.969c1.68-5.752,4.208-16.118,4.208-21.581l-0.154-4.614
	l-1.39-4.768c0-1.119,1.119-2.954,3.495-2.954c5.328,0,9.671,4.634,9.671,9.246c0,1.409-0.424,2.394-2.104,6.448
	c-0.984,2.528-4.478,13.744-5.328,15.983c1.409-0.715,19.342-5.83,25.925-8.995c4.768-2.297,7.876-3.166,9.497-3.649
	c5.443-1.563,6.621,2.818,5.328,5.618c-3.398,7.278-35.982,14.303-43.684,16.119C325.495,88.14,319.048,107.598,311.906,126.67"/>
<path fill="#B4B4B5" d="M384.004,138.058c-18.493,0-39.515-7.142-39.515-24.09l1.68-3.088c0.56,0,1.119,0.849,2.104,2.664
	c2.934,5.328,7.566,12.2,28.859,12.2c5.038,0,6.293,0,9.246,1.679c2.51,1.39,4.768,3.783,4.768,6.583
	C391.146,137.498,387.633,138.058,384.004,138.058"/>
<path fill="#B4B4B5" d="M366.766,94.24l6.891-7.431c-0.154-1.1-10.849-5.463-22.991-5.097c-2.026,0.117-4.092,0.117-4.227-0.849
	c-0.27-2.084,8.783-4.864,14.015-5.559c12.972-1.738,29.071,3.166,29.94,9.691c0.346,2.508-2.626,4.748-5.155,5.077
	c-5.56,0.753-6.235,0.829-10.327,2.239l-6.699,2.452L366.766,94.24"/>
<path fill="#B4B4B5" d="M412.708,66.752c-4.325-0.309-11.737-0.848-14.633-7.373l-1.023-2.742l1.506-1.428l6.525,2.008
	c1.969,0.56,4.285,0.733,6.138,0.868c6.486,0.463,11.022,0.078,17.779-0.985l2.374-14.439c0.077-0.984,0.29-3.493-0.058-7.027
	l-0.87-4.845c0.29-3.629,4.865-4.421,7.181-4.266c5.251,0.386,7.529,4.904,7.2,8.957c-0.077,0.966-0.27,1.371-1.794,5.058
	c-3.262,7.78-4.208,12.065-4.904,14.825c2.065-0.541,14.749-4.941,15.887-5.694c1.969-1.255,3.127-2.028,6.197-1.796
	c3.551,0.251,6.003,2.664,5.791,5.463c-0.405,5.038-22.045,10.732-30.364,12.102c-2.567,10.791-5.599,23.493-6.023,28.936
	c-0.251,3.069,0,5.772,3.552,6.023c1.389,0.097,1.718-0.154,5.462-2.279c12.683-7.239,21.774-10.249,33.357-9.42
	c15.424,1.1,26.677,10.057,25.635,23.203c-1.158,14.671-16.853,22.527-27.161,25.306c-13.956,3.783-36.425,3.281-41.83,2.896
	c-1.235-0.078-4.478-0.309-4.304-2.548c0.115-1.255,0.424-1.37,7.721-1.409c20.984-0.193,51.56-6.138,53.123-25.983
	c0.811-10.211-4.961-15.675-14.998-16.389c-13.416-0.965-31.117,8.86-37.025,20.809c-0.926,1.892-1.853,3.668-5.096,3.436
	c-6.795-0.502-7.798-9.42-7.335-15.153c0.599-7.547,4.517-25.674,6.795-36.735C424.83,66.636,421.046,67.35,412.708,66.752"/>
<path fill="#B4B4B5" d="M531.907,111.477l-0.676,3.282c-1.216,4.053-2.606,10.79-2.606,14.979l0.522,5.984
	c0,2.239-2.413,5.83-5.695,5.83c-7.258,0-14.671-15.25-14.671-36.368c0-15.114,3.108-32.024,7.761-50.884
	c1.043-4.188,2.084-8.378,2.084-12.567l-1.216-6.447c0-0.888,0.868-2.085,2.76-2.085c2.76,0,11.563,4.788,11.563,12.258
	c0,3.301-0.154,3.745-4.478,13.339c-10.366,23.492-10.366,45.034-10.366,46.83c0,6.891,1.389,15.868,4.15,15.868
	c1.892,0,4.478-3.88,5.695-5.984l4.497-5.077L531.907,111.477"/>
<path fill="#B4B4B5" d="M588.562,114.471c0.289-4.943,0-8.224-0.309-11.679c-0.888-10.172-1.796-20.345-2.085-30.537
	c6.12-1.333,18.705-4.19,18.705-10.328c0-3.281-3.899-4.188-6.447-4.188l-2.548,0.463c-3.281,2.085-4.922,2.993-9.42,4.478
	c0.309-8.088,1.197-14.072,1.64-16.909l1.351-8.532c0-4.034-5.231-6.737-8.377-6.737c-3.745,0-3.745,2.703-3.745,4.034
	c0,1.95,1.043,11.081,1.197,13.185c0.154,2.547,0.309,14.805,0.444,17.508c-2.993,0.753-8.224,1.95-20.056,1.95
	c-1.333,0-5.231,0-8.668-1.351c-2.103-0.753-3.609-2.993-4.941-2.993l-1.351,1.197c0,0.753,0,11.37,18.551,11.37
	c9.44,0,13.782-1.042,16.177-1.64c0,5.54,0.154,32.333,0.154,34.572c0,1.95-0.309,2.838-0.463,3.591
	c-4.633-1.043-9.131-1.641-13.764-1.641c-7.934,0-19.902,2.394-19.902,10.927c0,7.778,10.019,13.165,20.5,13.165
	c14.961,0,19.902-7.934,22.006-11.525c2.837,1.95,5.675,3.9,11.814,10.174c2.104,2.259,4.343,4.497,6.293,4.497
	c2.394,0,4.941-2.991,4.941-5.694C610.259,125.705,598.889,118.369,588.562,114.471 M561.306,127.635
	c-2.085,0-10.927-0.443-10.927-4.941c0-4.324,7.046-6.274,11.834-6.274c4.343,0,9.13,1.197,14.515,2.548
	C575.377,121.496,572.386,127.635,561.306,127.635"/>
<path fill="#B4B4B5" d="M396.493,212.474c3.3-2.586,4.343-3.454,6.003-3.454c2.586,0,7.278,2.22,7.278,5.443
	c0,2.471-1.989,3.958-6.12,5.926c-17.74,8.667-19.748,9.652-33.028,16.582c0.348,4.208,0.348,8.165,0.348,8.667
	c0,1.236-0.115,10.019-4.344,10.019c-2.818,0-4.111-3.842-4.111-6.062l0.811-3.34c0.115-0.868,0.366-2.239,0.366-5.578
	c-10.598,7.431-11.176,12.489-11.176,14.844c0,7.297,11.639,9.034,19.168,9.034c7.876,0,10.462-0.619,12.334-1.371l4.479-1.351
	c2.818,0,7.76,2.104,7.76,5.946c0,5.192-12.585,5.192-17.528,5.192c-17.508,0-30.924-3.958-30.924-16.08
	c0-9.652,10.462-17.701,15.887-21.523c0.232-7.317,0.348-11.891-5.424-11.891c-6.235,0-12.818,5.328-17.74,9.17
	c-3.069,2.471-4.826,3.822-5.887,3.822c-2.934,0-3.648-3.591-3.648-5.443c0-3.572,2.123-4.575,5.173-5.926
	c12.816-5.946,19.053-21.891,20.577-25.983c-1.641,0.366-3.166,0.617-7.992,0.617c-6.12,0-9.767-3.339-9.767-5.309l1.543-1.255
	l5.753,0.251c6.813,0,10.829-0.733,12.353-1.099c1.043-3.476,1.641-6.313,1.641-9.536c0-1.351,0-3.958-1.757-5.309l-0.946-1.119
	l4.112-1.738c5.753,0,5.869,3.591,5.869,5.077c0,2.355-0.232,3.707-1.989,11.139c1.757-0.386,5.772-1.487,7.644-2.606l3.282-0.733
	c4.246,0,4.594,3.204,4.594,3.956c0,3.822-4.343,4.692-17.277,7.162c-3.648,9.033-7.18,15.23-12.353,22.893
	c3.532-1.119,6.003-1.602,8.59-1.602c8.223,0,9.516,5.56,10.23,11.003C379.1,224.848,392.496,215.698,396.493,212.474"/>
<path fill="#B4B4B5" d="M669.057,203.015c-20.789,2.703-26.04,5.772-37.043,9.825c-4.073,1.506-6.042,1.506-6.64,1.506
	c-7.837,0-9.652-9.477-9.652-9.786l1.526-1.351l4.651,0.753c3.32,0,7.837-0.753,17.045-2.567c19.883-3.764,22.74-3.05,29.669-3.668
	c-0.309-3.456-1.37-18.84-1.506-22.006l-0.907-8.726c0-0.752,0-3.629,3.764-3.629c3.32,0,8.745,3.166,8.745,6.93l-0.753,6.042
	c-0.309,3.456-0.907,16.582-1.062,20.192c2.567-0.154,17.643-1.216,19.593-1.814l1.95-1.796l-1.506-3.783l2.123-1.796l5.27,3.61
	c2.567,1.506,3.011,1.66,10.405,3.474c1.506,0.29,5.27,1.506,5.27,5.116c0,4.826-5.424,4.826-6.93,4.826
	c-4.227,0-22.759-1.969-26.523-1.969c-2.876,0-6.64,0-9.652,0.154c0,7.837,0,9.652,0.753,22.604
	c1.814,3.166,2.857,5.889,2.857,12.818c0,26.215-13.552,39.032-25.771,45.055c-9.343,4.517-20.036,7.393-26.812,7.393
	c-1.814,0-1.814-0.907-1.814-1.37c0-0.888,1.216-1.351,4.517-2.259c21.851-5.869,35.73-22.45,37.525-34.805
	c-2.104,2.104-4.208,3.166-7.374,3.166c-6.486,0-12.972-4.826-12.972-14.323c0-14.766,11.157-21.388,16.736-21.388
	c1.97,0,4.363,0.753,5.869,1.95L669.057,203.015 M664.097,224.403c-4.383,0-9.497,3.63-9.497,13.262
	c0,9.343,6.466,9.497,6.775,9.497c5.27,0,8.146-6.93,8.146-12.509C669.52,228.631,668.15,224.403,664.097,224.403"/>
<path fill="#86C8A0" d="M124.411,38.626c10.79,4.325,25.114,9.845,24.013,27.257c-0.405,6.505-6.12,13.299-11.524,14.227
	c-6.447,1.119-10.018-3.474-11.755-8.59c-2.529-7.2-6.544-19.342-19.979-31.465l-5.618-5.231l1.467-1.467
	C103.292,32.971,113.504,34.244,124.411,38.626"/>
<path fill="#86C8A0" d="M61.347,158.095c52.698-18.763,65.284-50.748,65.033-64.492c-0.135-6.525-2.51-11.235-8.474-13.068
	c-6.254-1.931-12.914,2.142-16.331,10.868c-6.081,15.539-18.628,52.64-81.383,67.832c-8.165,1.969-14.053,3.224-9.324,4.478
	c2.065,0.56,1.68,0.502,6.023,0.734C29.09,165.084,50.285,162.053,61.347,158.095"/>
<path fill="#ED86B3" d="M221.488,0c-5.173-0.019-7.683,5.173-14.266,22.566c-2.027,5.367-23.627,46.232-27.141,51.599
	c-3.494,5.367-10.887,16.446-10.984,18.512c-0.097,2.065,1.235,4.208,3.397,4.324c2.162,0.097,7.606-0.348,17.605,1.872
	c9.999,2.201,24.457,9.131,36.251,19.034c11.795,9.922,21.331,19.285,25.462,23.627c4.131,4.363,8.879,12.644,16.813,13.011
	c7.915,0.385,12.587-2.413,14.767-6.911c3.03-6.254-0.463-12.721-6.042-16.794c-5.579-4.073-13.976-9.767-25.269-15.153
	c-11.292-5.386-30.345-14.613-43.876-18.377c-13.532-3.764-24.92-7.064-24.92-7.064s6.891-14.961,14.651-25.732
	c8.146-11.312,10.945-16.003,19.708-26.407c6.004-7.123,14.555-13.031,15.578-19.554c1.043-6.525-2.104-12.375-4.69-15.096
	C225.966,0.734,224.016,0,221.488,0"/>
<path fill="#F7B756" d="M83.623,250.365c0,8.185-1.255,18.898-5.463,30.384c-4.015,10.983-12.856,22.971-22.199,29.998
	c-9.343,7.007-15.578,11.678-19.477,13.628c-3.899,1.95-3.899,4.285,2.336,1.95c6.235-2.336,20.25-7.008,30.384-13.629
	c10.134-6.62,19.091-12.47,26.098-25.325c7.007-12.856,10.752-24.96,11.292-31.156c0.715-8.204-2.779-14.033-10.115-15.597
	C91.653,239.594,83.623,242.182,83.623,250.365"/>
<path fill="#F7B756" d="M192.919,164.968c-4.325-2.162-12.586-1.737-17.354,3.031c-4.594,4.594-6.698,8.494-14.265,8.494h-1.969
	l1.081-2.742c1.622-4.131,1.486-9.169-0.425-13.705c-1.892-4.517-9.787-5.83-12.644-1.351c-2.239,3.493-2.143,6.949-2.143,10.925
	c0,2.336-0.116,4.729-0.232,6.872h-35.267c0.038-1.911,0.038-3.668,0.038-4.98c0-4.441-1.949-9.092-5.386-12.605
	c-3.417-3.532-11.235-1.872-12.277,3.339c-0.811,4.073,0.56,7.259,2.008,10.964l1.197,3.282H59.995c0,0-2.876-0.714-2.876,2.162
	c0,2.895,3.609,3.61,3.609,3.61s16.562,0,36.445,0.019l1.043,3.32c2.625,8.243,1.158,11.254,5.771,9.633
	c2.375-0.831,2.877-2.954,4.324-6.294c0.599-1.409,0.946-3.899,1.158-6.659c12.393,0,25.037,0,35.094,0.019l-0.019,0.368
	c-0.56,8.628-3.011,10.925,1.853,11.08c2.528,0.097,3.764-1.718,6.332-4.285c1.254-1.275,2.76-4.131,4.15-7.162h7.664
	c3.59,0,11.91-0.097,17.045,0.502c8.397,0.966,15.983-1.235,16.832-7.624C199.154,169.563,197.243,167.131,192.919,164.968"/>
<path fill="#7DCCF3" d="M327.754,205.235h-12.161c-1.158,0-5.348,0.02-10.694,0.039c0.599-1.08,0.811-2.547,0.811-4.478
	c0-2.393-1.776-4.902-4.363-7.007c3.958-2.915,12.76-9.421,16.678-12.393c5.135-3.88,5.135-8.745,5.135-10.25
	c0-3.609-4.594-6.099-7.566-6.099c-2.974,0-10.965,1.236-13.938,1.236c0,0-23.646,0.154-25.538,0.154
	c-1.891,0-2.915-0.502-4.806,1.447l1.023,4.692c1.216,1.255,3.513,3.32,6.756,3.32c3.244,0,26.756-0.271,26.756-0.271
	c0,3.881-2.162,7.722-4.054,11.042c-1.1,1.93-2.355,3.764-3.242,5.173l-3.784-1.833c-5.675-2.221-11.215-5.136-12.701-3.61
	c-1.565,1.602,5.655,7.2,8.512,10.81c2.297,2.915,2.683,5.849,3.899,8.107c-10.152,0.039-20.365,0.058-21.6,0.058
	c-2.433,0-4.382,2.24-4.093,4.382c0.405,2.896,3.552,3.533,6.255,3.533h41.213c0,0-0.117,3.725-2.008,6.64
	c-1.931,2.953-2.799,3.938-4.575,4.633c-2.567,1.023-1.95,2.779,0.173,2.779c3.359,0,6.293-1.312,10.347-3.802
	c4.054-2.491,9.458-9.421,10.54-11.93C331.807,209.116,330.977,205.235,327.754,205.235"/>
<path fill="#7DCCF3" d="M300.709,231.409c0-5.54-0.792-7.315-4.344-8.802c-1.776-0.733-5.077-0.617-6.601,0.213
	c-2.781,1.486-4.227,3.938-4.227,7.046c0,3.861,5.096,5.482,5.153,7.741c0.329,12.547,0.135,20.307,0.135,23.087
	c0,4.151,0.193,7.625-0.888,10.674c-1.08,3.05-1.331,3.089-5.116,4.749c-3.783,1.679-10.539-0.097-11.37,1.486
	c-0.811,1.526,0.637,3.417,4.286,7.066c3.687,3.687,9.091,6.081,11.08,6.679c6.062,1.796,8.841-1.294,10.54-3.88
	c2.026-3.069,1.351-8.765,1.351-12.914V231.409"/>
<path fill="#A590C2" d="M560.514,214.288h35.692c5.404,0,8.648-1.099,10.539-3.01c1.892-1.931,2.162-5.792,2.162-8.822
	s-0.541-11.968-0.541-14.439c0-2.491-1.891-4.131-2.973-1.39c-1.08,2.76-2.393,10.694-6.486,14.864
	c-4.15,4.208-6.215,5.501-14.072,5.501h-20.538c-3.244,0-5.946-2.471-5.946-7.142l0.059-1.718l0.134-0.077
	c5.482-2.742,28.646-12.278,33.917-14.478c6.505-2.703,13.242-6.679,13.937-10.618c0.792-4.613-2.045-7.682-5.501-8.3
	c-3.629-0.656-8.417,0.271-14.033,5.869c-5,5.019-7.104,8.261-11.428,10.732c-3.551,2.047-11.871,7.22-16.389,9.633
	c0.444-4.112,0.927-8.223,0.927-10.173c0-3.591,0.27-10.193-2.162-12.663c-2.433-2.491-6.486-4.69-7.568-3.591
	c-1.486,1.526-0.811,4.961-0.811,7.722c0,2.742-0.27,29.438-0.27,33.298C549.164,209.347,551.595,214.288,560.514,214.288"/>
<path fill="#A590C2" d="M609.621,256.312c0-6.969-0.792-22.605,2.471-27.334c3.552-5.135-0.154-9.304-4.073-11.37
	c-3.185-1.68-9.748-1.1-11.543,0.733c-1.814,1.834-6.138,4.208-8.475,4.208c-1.757,0-18.473,0.212-27.739,0.309
	c-1.216-1.543-3.513-2.857-5.347-3.242c-2.625-0.541-4.421-0.463-5.251,0.193l-0.714,2.2c0,3.108-0.231,50.826-0.231,54.32
	c0,3.474,2.142,6.776,4.999,6.776c2.876,0,6.93-2.374,6.93-7.335v-0.927h3.744h33.994l0.656-0.019l0.038,2.973
	c0,4.402,2.433,7.066,5.502,7.066c3.069,0,6.833-1.757,8.185-6.525c0.753-2.645,1.08-6.601-0.656-10.637
	C610.954,264.998,609.621,263.3,609.621,256.312 M598.079,267.758h-33.318h-4.112v-16.021h3.744h26.04
	c3.513,0,4.961-1.158,4.961-3.359c0-3.9-1.853-4.17-5.27-4.17h-25.364h-4.112v-5.694c0-4.112,0.193-7.084,0.328-9.536h33.145
	c3.242,0,4.324,1.294,4.324,3.127c0,1.757,0.348,30.673,0.366,35.653H598.079z"/>
<path fill="#CBE097" d="M108.312,314.068l-4.112,1.834c-0.888,0-2.124-0.521-4.17-1.351l-0.232-0.097
	c-3.205-1.331-4.189-1.718-5.521-1.718c-2.277,0-4.768,1.621-6.814,4.478l-0.251,0.329l1.043,1.235l0.424-0.405l4.112-1.833
	c0.907,0,2.124,0.521,4.17,1.351l0.232,0.095c3.205,1.333,4.189,1.719,5.521,1.719c2.316,0,4.787-1.641,6.814-4.478l0.251-0.348
	l-1.043-1.217L108.312,314.068"/>
<path fill="#CBE097" d="M123.774,319.82h4.575v1.236l-2.008,0.927l-2.027,0.309l-3.378-1.351c-0.811-0.927-1.216-2.548-1.216-4.787
	c0-2.124,0.405-3.668,1.216-4.614l3.185-1.371l2.181,0.561l1.178,1.64l0.135,0.463l7.664-1.37l-0.154-0.578l-1.911-3.764
	l-3.262-2.22c-1.293-0.464-3.146-0.695-5.675-0.695c-2.625,0-4.748,0.386-6.312,1.138c-2.026,0.966-3.571,2.413-4.633,4.305
	c-1.023,1.853-1.563,4.073-1.563,6.564c0,2.393,0.482,4.517,1.429,6.369c0.965,1.873,2.336,3.301,4.092,4.247
	c1.718,0.926,3.977,1.409,6.699,1.409c2.181,0,4.092-0.27,5.714-0.772c1.583-0.522,3.456-1.487,5.502-2.896l0.251-0.154v-10.289
	h-11.678V319.82"/>
<rect x="138.251" y="310.709" fill="#CBE097" width="7.239" height="17.141"/>
<rect x="138.251" y="304.589" fill="#CBE097" width="7.239" height="5.27"/>
<path fill="#CBE097" d="M156.107,311.075l-0.849,0.87v-1.236h-6.853v17.141h7.278v-5.926c0-2.451,0.289-4.111,0.849-4.96
	l1.429-0.773l1.525,0.425l0.482,0.193l2.336-5.328l-0.463-0.232C159.562,310.052,157.477,310.091,156.107,311.075"/>
<rect x="162.323" y="304.589" fill="#CBE097" width="7.239" height="23.261"/>
<path fill="#CBE097" d="M186.086,317.31c-1.062-0.443-2.606-0.772-4.73-1.003l-2.451-0.502l-0.309-0.406l0.27-0.463l1.197-0.27
	l1.447,0.405l0.541,0.829l0.135,0.425l6.988-0.676l-0.251-0.675l-1.641-2.683l-2.51-1.487c-0.984-0.309-2.413-0.463-4.401-0.463
	c-1.872,0-3.397,0.193-4.536,0.599l-2.78,1.872l-1.042,3.088l0.965,2.915l2.336,1.777c0.869,0.348,2.374,0.675,4.555,1.062
	c1.796,0.328,2.336,0.502,2.49,0.578l0.405,0.561l-0.309,0.56l-1.602,0.405l-1.506-0.368l-0.849-1.292l-0.135-0.405l-7.162,0.675
	l0.135,0.599l2.625,3.9c1.351,0.907,3.513,1.35,6.583,1.35c2.143,0,3.861-0.27,5.135-0.829l2.896-2.297l0.926-2.991l-0.888-2.838
	L186.086,317.31"/>
<path fill="#CBE097" d="M213.168,310.342l-2.799,0.521l-1.351,0.753v-7.026h-7.297v23.26h6.853v-1.486l1.409,1.1l3.224,0.753
	l3.725-1.082l2.625-3.224c0.617-1.409,0.927-3.05,0.927-4.865c0-2.76-0.695-4.922-2.067-6.428
	C217.047,311.114,215.272,310.342,213.168,310.342 M213.245,319.163l-0.618,2.742l-1.448,0.714l-1.563-0.733l-0.637-2.645
	l0.656-2.491l1.641-0.733l1.371,0.695L213.245,319.163z"/>
<path fill="#CBE097" d="M236.91,311.443c-1.409-0.734-3.32-1.1-5.713-1.1c-2.954,0-5.328,0.829-7.027,2.471
	c-1.718,1.66-2.587,3.841-2.587,6.486c0,1.872,0.425,3.513,1.294,4.904l3.244,3.049c1.292,0.637,3.069,0.965,5.269,0.965
	c2.53,0,4.517-0.385,5.887-1.119l3.591-3.687l0.405-0.714l-7.2-0.676l-0.174,0.232l-0.907,0.887l-1.467,0.386l-1.93-0.868
	l-0.58-1.313h12.258v-1.236c0-2.201-0.366-4.015-1.1-5.404L236.91,311.443 M229.035,317.31l0.521-1.292l1.911-0.946l1.66,0.617
	l0.734,1.621H229.035z"/>
<path fill="#CBE097" d="M254.284,310.709l-2.684,9.343l-2.895-9.343h-7.722l6.969,16.602l-0.87,1.351l-1.448,0.385l-2.798-0.385
	l-0.792-0.251l0.617,5.54l0.425,0.058c1.891,0.251,3.262,0.366,4.188,0.366c2.316,0,4.073-0.54,5.251-1.602
	c0.829-0.753,1.601-2.123,2.354-4.17l6.66-17.894H254.284"/>
<path fill="#CBE097" d="M270.924,310.342c-2.934,0-5.328,0.849-7.064,2.53c-1.757,1.679-2.664,3.86-2.664,6.447
	c0,2.799,1.062,5.077,3.146,6.813c1.68,1.39,3.9,2.085,6.603,2.085c3.03,0,5.443-0.849,7.181-2.528
	c1.737-1.66,2.625-3.842,2.625-6.448c0-2.335-0.714-4.324-2.123-5.926C276.889,311.346,274.303,310.342,270.924,310.342
	 M270.982,322.967l-1.777-0.829l-0.753-2.837l0.753-2.799l1.814-0.849l1.718,0.829l0.734,2.76l-0.734,2.915L270.982,322.967z"/>
<path fill="#CBE097" d="M294.725,310.341l-3.476,0.753l-1.794,1.351v-1.737h-6.833v17.141h7.239v-8.263l0.578-2.683l1.409-0.656
	l1.158,0.444l0.425,1.776v9.382h7.278v-10.752c0-2.259-0.541-3.958-1.602-5.077C298.045,310.902,296.559,310.341,294.725,310.341"/>
<path fill="#CBE097" d="M313.99,311.616l-1.331-0.753l-2.799-0.521c-2.123,0-3.9,0.772-5.27,2.296
	c-1.37,1.506-2.065,3.688-2.065,6.467c0,2.49,0.617,4.633,1.833,6.389c1.255,1.796,3.089,2.722,5.463,2.722l3.224-0.753l1.409-1.1
	v1.487h6.854v-23.261h-7.317V311.616 M311.751,316.016l1.621,0.753l0.675,2.472l-0.656,2.644l-1.563,0.734l-1.428-0.714l-0.637-2.53
	l0.617-2.664L311.751,316.016z"/>
<path fill="#CBE097" d="M345.281,322.406l-1.757,0.368l-0.58-0.251l-0.135-1.082v-5.153h3.398v-5.579h-3.398v-6.467l-7.239,3.725
	v2.742h-2.277v5.579h2.277v5.116c0,1.891,0.174,3.224,0.56,4.111l1.853,2.047l3.649,0.656l4.382-0.521l0.463-0.097l-0.578-5.385
	L345.281,322.406"/>
<path fill="#CBE097" d="M360.202,310.341l-3.166,0.599l-1.738,1.12v-7.471h-7.239v23.261h7.239v-8.263l0.578-2.702l1.39-0.637
	l1.178,0.444l0.424,1.776v9.382h7.258v-10.752c0-2.24-0.521-3.938-1.582-5.058C363.483,310.902,362.016,310.341,360.202,310.341"/>
<path fill="#CBE097" d="M383.27,311.443c-1.39-0.734-3.32-1.1-5.694-1.1c-2.954,0-5.328,0.829-7.047,2.471
	c-1.698,1.66-2.567,3.841-2.567,6.486c0,1.872,0.425,3.513,1.275,4.904l3.262,3.049c1.292,0.637,3.069,0.965,5.269,0.965
	c2.53,0,4.517-0.385,5.887-1.119l3.572-3.687l0.424-0.714l-7.2-0.676l-0.174,0.232l-0.907,0.887l-1.467,0.386l-1.93-0.868
	l-0.58-1.313h12.258v-1.236c0-2.201-0.366-4.015-1.1-5.404L383.27,311.443 M375.414,317.31l0.521-1.292l1.911-0.946l1.66,0.617
	l0.714,1.621H375.414z"/>
<path fill="#CBE097" d="M410.99,310.709l-2.684,9.343l-2.895-9.343h-7.722l6.988,16.602l-0.888,1.351l-1.448,0.385l-2.798-0.385
	l-0.792-0.251l0.637,5.54l0.405,0.058c1.911,0.251,3.281,0.366,4.188,0.366c2.316,0,4.093-0.54,5.251-1.602
	c0.829-0.753,1.601-2.103,2.374-4.17l6.64-17.894H410.99"/>
<path fill="#CBE097" d="M427.629,310.341c-2.934,0-5.309,0.849-7.066,2.53c-1.755,1.699-2.644,3.861-2.644,6.447
	c0,2.799,1.043,5.077,3.127,6.815c1.679,1.389,3.9,2.084,6.601,2.084c3.031,0,5.444-0.849,7.181-2.528
	c1.738-1.66,2.625-3.842,2.625-6.447c0-2.336-0.714-4.325-2.123-5.926C433.594,311.345,431.007,310.341,427.629,310.341
	 M429.463,322.155l-1.777,0.812l-1.776-0.831l-0.753-2.837l0.753-2.799l1.814-0.849l1.718,0.831l0.734,2.76L429.463,322.155z"/>
<path fill="#CBE097" d="M450.118,318.97l-0.58,2.703l-1.39,0.656l-1.177-0.463l-0.425-1.796v-9.362h-7.258v10.771
	c0,2.24,0.521,3.939,1.583,5.039c1.062,1.119,2.547,1.698,4.382,1.698l3.474-0.753l1.796-1.35v1.737h6.833v-17.141h-7.239V318.97"/>
<path fill="#CBE097" d="M470.985,322.406l-1.757,0.368l-0.58-0.251l-0.135-1.082v-5.153h3.398v-5.579h-3.398v-6.467l-7.239,3.725
	v2.742h-2.277v5.579h2.277v5.116c0,1.872,0.174,3.224,0.56,4.111l1.853,2.047l3.649,0.656l4.382-0.521l0.463-0.097l-0.578-5.385
	L470.985,322.406"/>
<path fill="#CBE097" d="M485.907,310.341l-3.166,0.599l-1.738,1.12v-7.471h-7.239v23.261h7.239v-8.263l0.578-2.683l1.39-0.656
	l1.178,0.444l0.424,1.776v9.382h7.278v-10.752c0-2.24-0.541-3.938-1.602-5.058C489.188,310.902,487.721,310.341,485.907,310.341"/>
<polygon fill="#CBE097" points="530.189,304.589 519.533,304.589 513.143,312.041 513.143,304.589 505.21,304.589 505.21,327.85 
	513.143,327.85 513.143,322.117 516.02,319.106 520.498,327.85 530.227,327.85 521.482,313.585 "/>
<path fill="#CBE097" d="M539.647,304.203c-3.725,0-6.698,1.082-8.802,3.186c-2.123,2.123-3.186,5.096-3.186,8.841
	c0,2.683,0.541,4.96,1.602,6.756c1.062,1.814,2.491,3.147,4.208,3.995c1.718,0.831,3.88,1.255,6.447,1.255
	c2.548,0,4.71-0.502,6.428-1.467c1.738-0.965,3.089-2.335,4.015-4.092c0.907-1.718,1.351-3.958,1.351-6.621
	c0-3.707-1.062-6.64-3.147-8.724C546.481,305.264,543.469,304.203,539.647,304.203 M536.714,311.75l2.914-1.274l3.031,1.255
	c0.753,0.868,1.119,2.297,1.119,4.227c0,2.336-0.366,3.958-1.08,4.807l-3.011,1.255l-2.973-1.275
	c-0.753-0.868-1.12-2.393-1.12-4.478C535.593,314.144,535.98,312.639,536.714,311.75"/>
<polygon fill="#CBE097" points="566.422,304.589 562.232,311.558 558.083,304.589 549.145,304.589 558.256,318.18 558.256,327.85 
	566.209,327.85 566.209,318.18 575.301,304.589 "/>
<path fill="#CBE097" d="M578.524,304.589l-8.745,23.261h8.185l1.08-3.668h6.969l1.119,3.668h8.359l-8.745-23.261H578.524z
	 M584.277,318.314h-3.417l1.698-5.578L584.277,318.314z"/>
<path fill="#CBE097" d="M617.248,313.661l-0.406,0.406l-4.111,1.833c-0.907,0-2.143-0.521-4.17-1.351l-0.251-0.097
	c-3.186-1.331-4.17-1.718-5.502-1.718c-2.296,0-4.768,1.621-6.813,4.478l-0.251,0.329l1.042,1.235l0.406-0.405l4.131-1.833
	c0.887,0,2.123,0.502,4.15,1.351l0.251,0.097c3.186,1.331,4.17,1.718,5.521,1.718c2.297,0,4.787-1.641,6.815-4.478l0.231-0.348
	L617.248,313.661"/>
<path fill="#EE846D" d="M431.586,167.593c0-3.493,3.551-5.018,4.902-5.018c1.333,0,30.364-0.541,33.588-0.541
	c3.205,0,7.393-2.683,9.613-3.745c2.433-1.158,6.641-3.938,10.231-3.938c10.23,0,14.767,8.166,14.767,13.782
	c0,10.211-8.841,13.339-10.656,22.315c-0.483,2.433-1.255,6.737-1.255,13.725v41.02c0,9.092,3.281,28.511,4.131,33.53
	c0.617,3.688,0,10.694-2.934,13.648c-2.954,2.934-7.008,2.432-10.791-1.351c-3.03-3.03-0.56-18.995-0.56-24.612V177.11
	c0-2.143,0.27-4.015-2.413-4.015h-44.089C431.682,173.095,431.586,167.593,431.586,167.593"/>
<path fill-rule="evenodd" clip-rule="evenodd" fill="#888888" d="M231.429,58.489l2.451,0.29l2.316,2.781l-0.424,4.131
	c-1.197,5.81-3.205,11.37-5.675,16.774c-2.548,5.618-5.56,11.003-9.092,16.08l-0.675,0.87l-6.293,7.741l-5.27,5.81
	c-6.563,6.564-13.937,12.007-21.987,16.621c-9.401,5.367-19.284,9.709-29.418,13.57c-2.008,0.772-4.035,1.486-6.003,2.335
	l-1.911,1.448l0.791,1.93l1.448,0.154c2.49-0.405,4.884-0.945,7.335-1.679c2.297-0.656,4.227-1.409,6.081-2.065
	c9.091-3.205,18.01-6.64,26.851-11.061c4.517-2.277,8.918-4.768,13.126-7.586c5.057-3.378,9.594-7.258,13.899-11.582
	c4.324-4.324,10.481-12.856,10.481-12.856c2.703-4.073,5.463-8.107,8.108-12.219c2.702-4.208,4.96-8.668,7.122-13.184
	c1.178-2.51,2.452-5,3.688-7.51l0.502-1.08l-0.56-3.649l-1.39-1.486l-1.621-1.816l1.099-2.49l3.282-0.271
	c9.864-0.019,19.748,0,29.611-0.019l2.703-0.366l1.37-3.224l-0.483-0.811c-2.22-2.375-2.432-2.819-4.768-5.077
	c-1.833-1.816-3.822-3.803-6.717-2.896c-1.178,0.366-3.456,1.448-5.482,2.297c-1.969,0.811-4.459,2.104-6.64,2.065l-4.807,0.039
	c-4.922,0.019-6.293,0.058-11.234,0.077h-16.602L231.429,58.489"/>
</svg>
