<?xml version="1.0" encoding="utf-8"?>
<!-- Generator: Adobe Illustrator 27.0.1, SVG Export Plug-In . SVG Version: 6.00 Build 0)  -->
<svg version="1.1" id="레이어_1" xmlns="http://www.w3.org/2000/svg" xmlns:xlink="http://www.w3.org/1999/xlink" x="0px"
	 y="0px" viewBox="0 0 720 186.721" enable-background="new 0 0 720 186.721" xml:space="preserve">
<path fill="#00B9EF" d="M63.824,1.686H44.757v114.995h19.067V1.686z M19.055,33.666H0V81.23h19.055V33.666z M108.594,33.666H89.526
	V81.23h19.067V33.666z M89.686,91.643c-0.012,38.565-31.402,69.917-69.942,69.917h-4.05v19.067h4.05
	c49.065,0,88.997-39.907,89.009-88.985v-4.05H89.686V91.643z M208.496,91.619V53.607h-19.067v38.012
	c0,11.226-2.683,21.837-7.397,31.254L146.826,87.68V47.243h61.67V28.188h-61.67V1.686h-19.055v26.502h-12.346v19.055h12.346v48.315
	l43.268,43.28c-12.789,13.971-31.18,22.723-51.564,22.723h-4.05v19.067h4.05c25.641,0,48.77-10.907,65.031-28.324l19.941,19.941
	l13.466-13.478l-21.849-21.849C203.954,123.623,208.496,108.15,208.496,91.619 M223.292,153.621h19.055V99.854h-19.055V153.621z
	 M269.711,153.621h19.067V99.854h-19.067V153.621z M246.508,180.628h19.055V99.854h-19.055V180.628z M269.711,74.422h-25.505
	l33.679-33.666l-13.466-13.491l-11.706,11.706l-4.136-4.136l21.332-21.344L256.417,0l-34.811,34.835l17.627,17.615l-15.94,15.94
	v25.099h23.215h19.043h23.228V67.554h-19.067V74.422z M308.658,99.742c6.118-4.751,11.521-10.179,16.125-16.174l21.393,21.405
	l13.491-13.478L334.95,66.766c5.244-11.374,8.075-23.868,8.075-36.854v-9.158V4.148V1.686h-35.574h-17.774h-1.293v6.512
	c0,15.301-4.886,29.851-14.118,42.074l-2.129,2.819l13.49,13.491l2.832-3.594c2.339-3.004,4.481-6.118,6.413-9.33l16.248,16.236
	c-4.025,5.626-8.912,10.722-14.611,15.103l-1.588,1.219v9.318v13.405v6.266l2.856,0.874c13.282,4.123,24.964,12.125,33.802,23.129
	l2.819,3.521l13.626-13.602l-2.351-2.844C335.702,114.231,323.011,105.195,308.658,99.742 M320.29,52.105l-17.024-17.012
	c1.502-4.677,2.585-9.453,3.274-14.34h17.43v9.158C323.971,37.58,322.691,45.052,320.29,52.105 M300.299,134.036l-5.379-1.847
	v20.114l2.524,1.022c13.996,5.662,26.009,15.94,33.814,28.964l2.684,4.432l13.91-13.898l-1.785-2.757
	C335.246,153.301,318.985,140.511,300.299,134.036 M400.818,74.422h-37.002v19.067h37.002h19.067h36.99V74.422h-36.99V47.243h48.376
	V28.188h-48.376V1.686h-19.067v26.502h-48.389v19.055h48.389V74.422z M420.87,103.226l-0.566-3.373H400.4l-0.566,3.373
	c-4.111,24.459-21.185,45.077-44.535,53.829l-4.111,1.551l8.197,17.393l3.521-1.367c14.943-5.797,28.053-15.584,37.913-28.127
	v34.122h19.067v-34.122c9.859,12.556,22.969,22.33,37.912,28.127l3.521,1.367l8.198-17.393l-4.124-1.539
	C442.042,148.316,424.981,127.697,420.87,103.226 M529.414,47.243c-2.13,3.053-4.506,5.983-7.164,8.703l-2.782,2.868l13.43,13.43
	l2.868-2.941c6.475-6.635,11.731-14.033,15.756-22.059h40.757V28.188h-33.802c1.724-7.164,2.597-14.685,2.597-22.452v-4.05h-19.067
	v4.05c0,7.877-1.12,15.399-3.311,22.452h-21.738V1.686H497.89v26.502h-21.443v19.055h9.085l-10.943,133.385h19.079l10.956-133.385
	H529.414z M579.267,127.5V85.23h13.011V66.175h-13.011h-6.278c1.059-2.351,2.044-4.739,2.893-7.201l1.871-5.367h-20.027
	l-1.035,2.511c-5.305,13.011-14.402,24.003-25.997,31.734V73.856h-21.492l-1.563,19.067h4.013v68.637h-9.244v19.067h28.287v-70.816
	c1.785-0.862,3.521-1.784,5.219-2.757v73.574h19.055V92.406c1.834-1.821,3.581-3.717,5.231-5.723V127.5
	c0,20.212,6.696,39.304,19.338,55.22l2.831,3.545l13.516-13.515l-2.142-2.832C584.265,157.56,579.267,142.9,579.267,127.5
	 M653.652,20.753H720V1.686h-66.348V20.753z M688.598,161.561h-13.91v19.067h32.965V67.726h-19.055V161.561z M616.158,64.648
	c13.134-15.904,20.372-35.955,20.372-56.451V1.686h-19.055v6.512c0,15.965-5.306,31.045-15.35,43.6l-2.252,2.818l13.442,13.467
	L616.158,64.648z M637.601,42.307h-4.85v4.05c0,22.662-11.128,44.03-29.788,57.189l-3.939,2.757l13.688,13.688l2.794-2.068
	c2.425-1.797,4.739-3.717,6.955-5.723v68.428h19.043v-93.01c4.333-8.198,7.398-17.061,8.998-26.244h69.487V42.307h-68.17H637.601z"
	/>
</svg>
