<?xml version="1.0" encoding="utf-8"?>
<!-- Generator: Adobe Illustrator 27.0.1, SVG Export Plug-In . SVG Version: 6.00 Build 0)  -->
<svg version="1.1" id="레이어_1" xmlns="http://www.w3.org/2000/svg" xmlns:xlink="http://www.w3.org/1999/xlink" x="0px"
	 y="0px" viewBox="0 0 720 984.614" enable-background="new 0 0 720 984.614" xml:space="preserve">
<path d="M611.431,100.498h-7.203l8.195-26.987h6.954L611.431,100.498z M617.391,26.946l12.045,7.781l14.32-21.812h7.741
	l-25.952,40.728h23.717l5.174,6.457h-21.979v51.284h-6.912V60.1h-23.47l4.263-6.457h11.051l7.948-12.582L607.83,29.182
	l17.053-25.498h7.782L617.391,26.946z M648.683,99.464l-8.154-25.331l6.788-0.042l8.112,25.455L648.683,99.464z M682.624,12.915
	h32.491l-25.537,30.587L720,72.724v8.941l-35.058-32.823L655.554,84.19l-0.124-11.341l24.297-28.518l-13.246-12.418L655.43,45.034
	V33.445l25.083-29.761h9.686L682.624,12.915z M670.869,26.615l13.659,12.004l16.225-19.288h-23.759L670.869,26.615z M701.54,89.156
	l-27.153-14.362l-0.083-8.403l27.153,14.115L701.54,89.156z M701.54,111.922l-27.153-14.363l-0.083-8.403l27.153,14.115
	L701.54,111.922z M713.13,183.735h-49.836v20.779h46.689v6.912h-42.011l45.158,44.951l0.04,11.175l-49.876-51.366v51.161h-6.912
	V215.4l-49.877,51.946v-11.424l43.916-44.496h-40.273v-6.912h46.234v-20.779h-49.877v-6.416h49.877v-16.598h6.912v16.598h49.836
	V183.735z M634.61,350.129l-3.725,3.849v38.701h-8.651v-38.701l-3.725-3.849h-6.126v-8.403h6.126l3.725-3.685v-13.12h8.651v13.12
	l3.725,3.685h35.058v8.403H634.61z M696.325,340.443l-3.85,3.808v30.008l3.85,3.725h12.251v8.403h-12.251l-3.85,3.85v17.716h-43.791
	v-29.968h31.458l3.807-3.725v-42.26h24.835v8.444H696.325z M683.948,390.237l-3.807-3.85h-19.123l-3.725,3.85v5.463l3.725,3.85
	h19.123l3.807-3.85V390.237z M628.608,554.188h-8.526v-82.906h8.526V554.188z M693.676,481.96h-44.702v-8.403h44.702V481.96z
	 M657.624,524.344v15.025l3.725,3.808h47.31v8.401h-59.645v-27.235H657.624z M629.229,614.784v73.76l3.808,3.807h57.617l3.683-3.807
	v-29.182h8.65v41.309h-82.285v-85.887H629.229z M649.014,779.603l-3.849,3.85v48.841l3.849,3.725h51.574v8.403h-63.908v-60.969
	l-3.849-3.85H612.3v-8.403h96.276v8.403H649.014z M526.206,32.368l-3.683,3.849v6.954l3.683,3.808h14.115v8.319h-14.115
	l-3.683,3.808v7.119l3.683,3.849h21.979v8.279h-21.979l-3.683,3.849v17.799h-41.846V70.075h29.511l3.725-3.849v-7.119l-3.725-3.808
	h-49.048v-8.319h49.048l3.725-3.808v-6.954l-3.725-3.849h-43.709v-8.403h43.585l3.849-3.725v-6.25h8.526v6.25l3.767,3.725h27.774
	v8.403H526.206z M513.996,87.874v-5.672l-3.808-3.849h-17.136l-3.725,3.849v5.672l3.725,3.683h17.136L513.996,87.874
	 M551.372,184.564h-8.526l-3.725,3.849v63.577h-8.651v-11.217l-3.683-3.85h-45.323v-35.927h45.323l3.683-3.726v-8.857l-3.683-3.849
	h-65.977v-8.279h65.977l3.683-3.808v-6.25h8.651v6.25l3.725,3.808h8.526V184.564z M530.469,213.206l-3.683-3.808h-32.989
	l-3.849,3.808v11.589l3.849,3.725h32.989l3.683-3.725V213.206z M533.657,344.665v57.327h-8.61v-45.075l-3.725-3.85h-19.661
	l-4.719,3.601l-12.666,45.323h-9.064l12.584-45.323l-2.732-3.601h-27.195v-8.403h29.471l4.801-3.601l6.995-24.834h9.064
	l-6.87,24.834l2.731,3.601H533.657z M554.311,391.851h-8.526v-70.241h8.526V391.851z M545.785,462.713v53.105H508.45v16.142h-8.651
	v-24.461h37.459v-36.508h-62.46v18.501h-8.526v-26.779H545.785z M508.45,549.799h-8.61v-9.313h8.61V549.799z M317.843,66.392h-6.912
	V20.53h6.912V66.392z M332.826,110.39h-6.912V4.139h6.912V110.39z M346.941,62.005h-6.912V20.53h6.912V62.005z M417.099,25.29
	h-50.912v76.285h49.877v6.416h-56.747v-82.7h-6.333v-6.416h29.222V3.932h6.872v14.942h28.022V25.29z M333.323,165.607v73.758
	l3.808,3.808h57.617l3.685-3.808v-29.139h8.608v41.266h-82.244v-85.886H333.323z M327.86,317.264v68.337l3.808,3.849h31.251v8.32
	h-43.585v-80.506H327.86z M410.022,372.066h-8.61v-50.043h8.61V372.066z M353.109,476.827l-3.85,3.808v48.841l3.85,3.685h51.532
	v8.403h-63.908v-60.929l-3.808-3.808h-20.53v-8.443h96.235v8.443H353.109z M408.697,462.175h-6.085v-11.548h6.085V462.175z
	 M416.685,462.175h-6.001v-11.548h6.001V462.175z M409.897,623.063h-8.526l-3.725,3.807v63.577h-8.61V679.23l-3.725-3.849h-45.323
	v-35.928h45.323l3.725-3.725v-8.859l-3.725-3.807h-65.977v-8.32h65.977l3.725-3.807v-6.208h8.61v6.208l3.725,3.807h8.526V623.063z
	 M389.036,651.705l-3.725-3.849h-32.989l-3.808,3.849v11.549l3.808,3.725h32.989l3.725-3.725V651.705z M392.223,779.48v57.327h-8.65
	v-45.116l-3.725-3.808h-19.661l-4.677,3.643l-12.666,45.282h-9.106l12.584-45.282l-2.732-3.643h-27.195v-8.403h29.471l4.843-3.601
	l6.995-24.835h9.064l-6.912,24.835l2.731,3.601H392.223z M412.878,826.666h-8.526v-70.241h8.526V826.666z M404.35,897.527v53.106
	h-37.376v16.184h-8.651v-24.462h37.459v-36.507h-62.459v18.46h-8.526v-26.78H404.35z M366.975,984.614h-8.61v-9.272h8.61V984.614z"
	/>
<path d="M204.804,16.722L192.345,0.083L200.085,0l12.831,16.64L204.804,16.722z M175.664,70.697l-20.447,19.536V80.63l20.405-19.454
	L175.664,70.697z M213.372,26.159h-24.173v34.107l20.034-25.786l0.042,10.017l-15.191,19.619l19.288,14.859v8.941l-24.173-18.916
	v38.329h-20.903v-6.417h13.991V26.159h-27.07v-6.416h27.07V0h6.912v19.743h24.173V26.159z M175.664,59.727l-16.102-12.582
	l-0.04-9.768l16.142,13.162V59.727z M229.348,18.212H263v6.416h-3.932L241.683,58.32l25.787,49.463h-8.03l-21.648-41.971
	l-21.69,41.971h-8.07l25.704-49.752l-10.804-20.572l-5.421,17.136l-6.788-0.082L227.983,0l7.408,0.083L229.348,18.212z
	 M226.368,28.146l11.3,22.31l13.659-25.828h-24.048L226.368,28.146z M256.046,175.996v62.5h-46.234v-7.823h35.514l2.731-2.773
	v-41.267l-2.731-2.856h-68.42v-7.781H256.046z M197.685,326.867l-3.808,3.849v48.801l3.808,3.725h51.574v8.403H185.35v-60.929
	l-3.808-3.849h-20.571v-8.403h96.276v8.403H197.685z M200.416,501.869l-3.807,3.683v22.642l3.807,3.683h33.652l3.849-3.683v-10.638
	h8.526v22.766h-58.361v-34.77l-3.808-3.683h-7.781v-8.444h7.781l3.808-3.765v-12.915l-3.808-3.85h-20.116v-8.319h20.116l3.808-3.808
	v-6.001h8.526v6.001l3.807,3.808h36.301v8.319h-36.301l-3.807,3.85v12.915l3.807,3.765h48.512v8.444H200.416z M191.889,611.059
	v30.92l3.85,3.849h55.588v41.06h-84.562v-8.403h72.227l3.725-3.725v-16.805l-3.725-3.725h-55.63v-43.171H191.889z M217.593,601.125
	v9.395l3.808,3.683h27.442v8.444h-39.777v-21.523H217.593z M256.046,761.475v62.501h-46.234v-7.864h35.514l2.731-2.732v-41.308
	l-2.731-2.856h-68.42v-7.741H256.046z M197.685,912.345l-3.808,3.808v48.8l3.808,3.767h51.574v8.403H185.35v-60.969l-3.808-3.808
	h-20.571v-8.443h96.276v8.443H197.685z M11.506,19.578v68.379l3.808,3.85h31.251v8.277H2.98V19.578H11.506z M93.668,74.422h-8.61
	V24.379h8.61V74.422z M11.506,165.938v68.42l3.808,3.765h31.251v8.362H2.98v-80.548H11.506z M93.668,220.781h-8.61v-50.043h8.61
	V220.781z M36.714,325.542l-3.808,3.808v48.841l3.808,3.685h51.574v8.443H24.379V329.35l-3.808-3.808H0v-8.401h96.276v8.401H36.714z
	 M92.343,310.89h-6.126v-11.589h6.126V310.89z M100.332,310.89h-6.043v-11.589h6.043V310.89z M93.543,471.778h-8.526l-3.725,3.849
	v63.577h-8.61v-11.3l-3.725-3.767H23.634v-36.01h45.323l3.725-3.683v-8.817l-3.725-3.849H2.98v-8.279h65.977l3.725-3.849v-6.208
	h8.61v6.208l3.725,3.849h8.526V471.778z M72.682,500.378l-3.725-3.765H35.968l-3.849,3.765v11.631l3.849,3.685h32.989l3.725-3.685
	V500.378z M75.829,628.195v57.368h-8.61v-45.157l-3.725-3.808H43.833l-4.718,3.601l-12.666,45.364h-9.066l12.584-45.364
	l-2.732-3.601H0v-8.403h29.511l4.843-3.643L41.35,599.8h9.023l-6.87,24.752l2.732,3.643H75.829z M96.483,675.381h-8.526v-70.241
	h8.526V675.381z M87.956,746.284v53.064H50.621v16.184h-8.65v-24.462H79.43v-36.507H16.971v18.46H8.443v-26.739H87.956z
	 M50.621,833.329h-8.61v-9.313h8.61V833.329z"/>
</svg>
