<?xml version="1.0" encoding="utf-8"?>
<!-- Generator: Adobe Illustrator 27.1.1, SVG Export Plug-In . SVG Version: 6.00 Build 0)  -->
<svg version="1.1" id="레이어_1" xmlns="http://www.w3.org/2000/svg" xmlns:xlink="http://www.w3.org/1999/xlink" x="0px"
	 y="0px" viewBox="0 0 720 279.329" enable-background="new 0 0 720 279.329" xml:space="preserve">
<path fill="#EE87B4" d="M149.588,246.813c-0.59,0-1.113-0.409-1.246-0.999c-0.143-0.694,0.285-1.37,0.98-1.513
	c0.333-0.076,30.422-6.897,43.607-32.135c-2.968-0.428-6.022-1.332-9.17-2.721c-23.012-10.122-24.848-20.852-24.572-25
	c0.295-4.414,3.158-7.934,7.487-9.18c3.824-1.113,9.285-0.371,14.013,4.538c1.179-7.106,5.289-11.834,9.256-13.499
	c3.139-1.332,6.317-0.866,8.705,1.275c5.679,5.108,5.831,18.341,0.409,36.292c-0.638,2.112-1.389,4.119-2.216,6.031h0.028
	c3.843,0,7.467-0.932,10.863-2.797c13.423-7.372,19.692-26.874,21.28-37.234c1.465-9.551,5.622-26.303,17.038-31.164
	c6.516-2.778,14.213-1.103,22.86,4.985c0.58,0.409,0.714,1.198,0.314,1.769c-0.409,0.58-1.198,0.723-1.778,0.314
	c-7.877-5.546-14.736-7.144-20.396-4.728c-7.515,3.196-13.166,13.841-15.525,29.205c-1.655,10.826-8.276,31.24-22.565,39.089
	c-4.157,2.273-8.59,3.31-13.299,3.092c-13.508,27.064-45.453,34.275-45.805,34.351C149.769,246.803,149.674,246.813,149.588,246.813
	 M169.908,177.358c-0.904,0-1.76,0.124-2.531,0.352c-3.263,0.942-5.432,3.586-5.651,6.906c-0.19,2.816,0.913,12.757,23.05,22.508
	c3.225,1.417,6.345,2.293,9.342,2.626c0.951-2.084,1.798-4.291,2.502-6.612c7.487-24.781,2.14-32.03,0.323-33.666
	c-1.646-1.484-3.786-1.769-6.022-0.828c-3.758,1.589-7.696,6.64-8,14.345c-0.028,0.542-0.39,1.009-0.904,1.161
	c-0.523,0.162-1.084-0.028-1.398-0.466C177.213,179.004,173.199,177.358,169.908,177.358"/>
<path fill="#EE87B4" d="M475.157,39.169c1.798-0.913,2.417-1.807,2.417-3.491c0-1.027-1.912-1.275-3.063-1.531l-17.142-3.729
	c0.77,2.454,2.435,7.629,2.435,16.686c0,2.844-0.713,38.537-16.267,64.783c-3.719,6.202-17.827,27.036-33.229,38.166
	c-0.009,0-0.028,0.01-0.038,0.01v0.019c-0.009,0.01-0.019,0.019-0.028,0.019l0.181,0.913l0.143,0.932
	c51.094-8.248,63.46-52.017,66.343-76.598c4.776,25.856,15.801,57.335,40.249,77.226c5.26-10.597,11.473-18.046,18.797-20.89v-0.904
	C499.396,124.367,479.523,76.023,475.157,39.169 M418.584,148.264c48.335-24.296,53.729-72.955,54.1-106.849l0.8-1.474
	c0,6.516,0.485,16.4,2.169,27.864C474.501,87.99,466.585,135.688,418.584,148.264"/>
<path fill="#604C3F" d="M686.286,72.145c-0.599,3.054-2.578,15.145-2.578,17.894c0,0.799,0.381,4.395,0.381,5.137
	c0,1.522-0.438,3.168-2.417,3.168c-6.326,0-6.326-15.392-6.326-17.095c0-6.602,0.666-7.924,2.416-19.169
	c0.057-0.304,0.333-1.893,0.333-3.168c0-2.816-1.484-3.976-2.473-4.709c0.552-0.305,1.046-0.428,1.703-0.428
	c3.634,0,7.43,3.301,7.43,6.536c0,1.103-0.276,1.655-0.885,2.873c-1.046,2.074-4.348,7.924-4.348,16.229
	c0,0.609,0.171,5.622,1.104,5.622c0.276,0,0.656-0.98,0.827-1.465c0.657-1.893,3.786-9.96,4.395-11.606L686.286,72.145z
	 M702.896,55.926c-0.495-1.589-1.76-1.827-4.728-2.321c2.53-2.806,5.28-2.806,5.603-2.806c1.76,0,5.993,1.589,5.993,4.462
	c0,0.542-0.39,2.626-0.552,3.472c-0.162,0.923-0.323,1.893-0.599,5.013c3.957-1.465,4.395-1.646,5.223-1.646
	c1.265,0,4.338,0.79,4.338,2.987c0,2.626-2.635,3.301-9.836,4.214c-0.114,5.318,0.218,11.121,0.818,16.372
	C714.711,87.994,720,89.83,720,93.502c0,2.93-2.93,4.443-3.909,4.443c-0.828,0-1.436-0.247-2.369-0.856
	c-0.495-0.362-4.119-3.843-4.947-4.519c-0.932,3.053-2.692,6.592-9.455,6.592c-4.015,0-9.732-1.95-9.732-7.449
	c0-4.452,3.681-7.877,10.835-7.877c1.532,0,2.521,0.181,3.624,0.304c-0.495-11.539-0.495-11.606-0.552-14.165
	c-2.968,0.361-3.301,0.361-4.071,0.361c-3.843,0-7.915-1.893-9.066-5.984c2.255,1.037,4.176,1.465,7.087,1.465
	c1.218,0,3.301-0.057,6.003-0.609C703.276,57.457,703.219,57.153,702.896,55.926 M697.559,87.746c-0.932,0-5.385,0.057-5.385,3.054
	c0,1.161,0.932,3.301,4.833,3.301c1.323,0,6.269,0,6.602-4.947C702.896,88.726,701.241,87.746,697.559,87.746"/>
<path fill="#EF92B5" d="M265.162,179.495c6.098-1.484,7.135-2.15,7.135-3.967c0-1.322-0.742-2.15-2.074-2.977l-16.41-9.028
	c-0.142,8.105-10.112,32.725-20.072,44.616l0.894,0.837C251.881,198.721,260.995,184.784,265.162,179.495"/>
<path fill="#604C3F" d="M15.23,57.45c1.902,0,8.542-2.445,11.254-3.539c1.741-0.742,1.96-0.799,2.616-0.799
	c1.304,0,5.765,4.738,5.765,7.372c0,1.646-0.438,1.95-3.643,3.9c-2.064,1.284-10.769,7.572-12.566,8.8
	c-2.388,1.589-6.25,3.91-8.486,5.736c-0.105,0.066-0.323,0.247-0.323,0.428c0,0.124,0.105,0.371,0.381,0.371
	c0.656,0,24.419-7.572,25.837-8c1.408-0.494,2.502-0.856,3.691-0.856c2.293,0,7.125,1.465,7.125,4.766
	c0,2.007-1.085,2.74-3.852,2.74c-0.771,0-4.3-0.238-5.004-0.238c-14.041,0-19.587,8.058-19.587,12.881
	c0,2.388,1.474,7.515,11.206,8.067c2.445,0.124,3.758,0.238,5.061,2.131c0.266,0.371,1.027,1.589,1.027,3.177
	c0,2.626-1.569,3.244-3.967,3.244c-6.745,0-16.638-4.214-16.638-13.565c0-7.268,4.452-11.72,10.873-15.877
	c-5.108,0.247-13.974,4.889-18.55,8.124c-2.55,1.769-2.825,1.96-3.529,1.96C1.522,88.273,0,85.333,0,83.744
	c0-1.893,1.037-2.255,3.539-3.291c7.724-3.12,13.328-9.037,21.318-17.59c2.283-2.445,2.559-2.692,2.559-3.425
	c0-0.305-0.276-0.666-0.761-0.666c-1.418,0-6.317,3.358-9.199,5.917c-1.626,1.408-1.845,1.589-2.331,1.589
	c-1.36,0-4.737-2.197-4.737-6.659c0-2.864,1.198-4.148,1.693-4.756C12.51,57.736,13.927,57.45,15.23,57.45"/>
<path fill="#604C3F" d="M80.677,106.856c3.415-1.522,17.266-8,17.266-24.486c0-10.692-6.545-16.372-15.117-16.372
	c-1.484,0-1.931,0.124-2.644,0.371c1.436,0.913,4.899,3.111,4.899,6.773c0,2.997-5.175,14.536-8.524,20.462
	c-1.484,2.626-5.28,9.285-8.248,9.285c-1.978,0-2.635-1.227-4.119-3.91c-0.666-1.218-0.723-1.284-2.207-2.692
	c-1.864-1.703-2.473-4.633-2.473-7.449c0-13.489,10.398-24.971,24.524-24.971c10.388,0,22.603,6.897,22.603,20.215
	c0,19.055-20.52,22.346-25.847,23.202L80.677,106.856z M64.571,87.925c0,2.074,0.827,8.429,3.186,8.429
	c2.311,0,5.004-6.231,7.097-10.997c1.046-2.435,4.671-10.683,4.671-14.65c0-2.14-0.656-3.177-1.151-3.976
	C70.288,69.603,64.571,79.801,64.571,87.925"/>
<path fill="#604C3F" d="M163.897,50.636v8.429h10.635l3.624-5.404c0.657-1.008,0.989-1.103,1.323-1.103
	c0.247,0,0.494,0.095,1.483,0.923l6.678,5.308c0.323,0.276,0.903,0.913,0.903,1.465c0,0.913-0.827,1.008-1.322,1.008h-23.325v9.066
	h19.121l3.634-5.489c0.323-0.466,0.742-1.199,1.237-1.199s0.818,0.371,1.56,1.008l6.592,5.499c0.333,0.276,0.913,0.732,0.913,1.37
	c0,1.008-0.742,1.008-1.237,1.008h-44.683c-0.495,1.465-1.065,3.206-2.14,5.774l4.947,1.922h20.852l2.721-3.758
	c0.333-0.457,0.828-1.094,1.484-1.094c0.409,0,0.581,0.086,1.817,1.008l5.936,4.395c1.313,0.913,1.399,1.37,1.399,1.922
	c0,1.189-1.979,2.93-3.625,4.395v4.766c0,3.111,0.495,18.503,0.495,21.975c0,3.482-3.301,4.861-6.022,4.861
	c-3.796,0-3.71-2.293-3.624-4.861h-22.422c0.085,1.741,0.085,2.293-0.828,3.12c-1.313,1.37-3.786,1.826-5.603,1.826
	c-3.13,0-3.215-2.102-3.215-3.025c0-0.818,0.247-4.852,0.247-5.765c0.171-5.404,0.247-8.79,0.333-21.794
	c-7.582,11.815-16.981,17.951-21.433,20.691l-0.495-0.542c7.914-8.067,14.926-22.355,18.55-35.816h-7.753
	c-5.764,0-5.888,0.371-7.458,0.647l-1.398-3.396c3.786,0.371,6.555,0.552,10.34,0.552h20.529v-9.066h-13.195
	c-5.679,0-5.812,0.276-7.458,0.552l-1.313-3.301c3.786,0.371,6.545,0.552,10.255,0.552h11.711v-8.429h-16.943
	c-5.688,0-7.334,0.276-8.904,0.638l-1.313-3.387c3.71,0.371,7.905,0.552,11.701,0.552h8.2c-0.571-0.638-0.742-0.732-1.893-3.567
	c-2.312-5.955-4.785-8.248-6.345-9.808v-0.732c7.42,0.371,15.82,3.025,15.82,9.798c0,2.664-1.398,3.758-2.055,4.309h10.055
	c3.463-9.342,3.71-11.444,4.119-14.926l11.045,5.403c0.495,0.181,1.075,0.637,1.075,1.275c0,1.379-2.721,1.56-3.881,1.56
	c-2.959,2.473-5.432,4.309-9.142,6.688h14.669l3.377-5.404c0.419-0.732,0.742-1.094,1.237-1.094c0.333,0,0.581,0.181,1.57,0.913
	l6.754,5.403c0.333,0.276,0.828,0.828,0.828,1.37c0,0.923-0.742,1.008-1.237,1.008H163.897z M152.852,90.572h22.422v-8.153h-22.422
	V90.572z M152.852,100.922h22.422v-8.153h-22.422V100.922z M152.852,111.633h22.422v-8.514h-22.422V111.633z"/>
<path fill="#604C3F" d="M237.906,84.715c3.776,1.675,7.077,1.903,7.42,1.903c0.961,0,1.779,0,2.54-3.272
	c0.476-2.217,0.96-8.324,1.027-9.237c-3.092,0.533-8.238,1.522-15.725,4.195c-0.485,5.337-0.485,10.531-0.485,11.758
	c0,8.923,0.685,12.433,8.381,12.433c4.538,0,10.787-0.305,15.107-1.37c0.961-0.228,1.788-0.457,2.473-0.457
	c2.815,0,5.631,2.826,5.631,6.031c0,1.065-0.2,1.979-1.855,2.673c-2.198,0.837-7.41,1.142-10.027,1.142
	c-1.436,0-16.819,0-21.841-5.879c-3.434-4.043-3.434-8.857-3.434-24.039c-1.027,0.381-5.831,2.283-8.029,3.815
	c-2.131,1.522-2.407,1.75-3.235,1.75c-2.606,0-6.792-4.347-6.792-9.694c0-1.903,0.476-2.825,0.961-3.739
	c1.027,2.14,2.331,4.423,5.831,4.423c1.38,0,2.407-0.228,11.34-2.359c0-11.606-0.276-12.215-5.708-13.508
	c0.961-1.075,2.473-2.749,5.631-2.749c2.616,0,7.972,2.359,7.972,5.641c0,0.771-0.552,2.749-0.685,3.282
	c-0.209,0.771-0.409,2.597-0.761,5.803c2.473-0.609,13.261-3.282,15.459-3.815c0.067-3.282,0.134-12.823-1.103-15.192
	c-0.409-0.761-1.712-2.435-5.698-2.901c1.722-2.359,4.329-2.74,6.041-2.74c4.128,0,7.077,2.816,7.696,3.586
	c0.343,0.457,0.685,1.218,0.685,2.597c0,0.989-0.067,1.294-0.476,3.739c-0.343,2.055-0.694,6.945-0.894,9.313
	c2.473-0.694,5.631-1.608,7.144-2.445c1.161-0.685,2.122-0.761,3.016-0.761c1.855,0,8.172,1.294,8.172,5.032
	c0,3.739-2.883,3.739-4.186,3.739c-1.303,0-6.935-0.457-8.105-0.457c-3.092,0-5.08,0.152-6.383,0.305
	c-0.827,11.682-1.237,17.18-3.986,20.919c-1.237,1.674-3.025,2.369-4.186,2.369c-1.513,0-2.34-0.847-2.892-2.825
	c-0.96-3.358-1.161-4.052-6.25-8.476L237.906,84.715z"/>
<path fill="#604C3F" d="M312.279,48.88l2.226-4.947c0.247-0.542,0.581-1.189,1.237-1.189c0.333,0,0.581,0.181,1.484,1.009
	l5.356,4.947c0.409,0.371,0.828,0.913,0.828,1.37c0,0.923-0.742,1.008-1.237,1.008h-11.958c-0.247,5.042-0.656,7.239-0.989,9.161
	h3.71l2.645-4.947c0.161-0.361,0.742-1.094,1.237-1.094c0.732,0,1.065,0.542,1.474,0.913l4.624,4.947
	c0.495,0.457,0.818,0.913,0.818,1.37c0,0.913-0.742,1.009-1.237,1.009h-13.68c-0.162,0.732-0.247,1.465-0.904,3.758
	c11.539,2.835,11.787,9.618,11.787,10.169c0,2.654-2.311,5.213-5.032,5.213c-2.883,0-3.539-2.283-4.614-5.679
	c-0.741-2.378-1.151-3.567-2.968-7.23c-3.625,9.798-11.207,17.123-20.938,21.338l-0.247-0.542
	c5.441-4.585,11.872-11.91,14.431-27.026h-3.463c-5.032,0-6.849,0.276-8.904,0.647l-1.323-3.396
	c3.872,0.371,7.83,0.552,11.711,0.552h2.226c0.657-4.671,0.657-7.144,0.657-9.161h-2.473c-5.109,0-6.84,0.276-8.904,0.647
	l-1.398-3.386c4.946,0.457,10.388,0.542,12.69,0.542c0-2.017-0.161-6.231-1.237-13.004l11.463,2.93
	c1.151,0.276,1.237,1.284,1.237,1.465c0,0.923-1.484,1.922-2.226,2.378c0,3.12,0,4.49-0.086,6.231H312.279z M336.927,85.515
	l2.721-3.843c0.323-0.457,0.657-1.009,1.313-1.009c0.581,0,1.075,0.371,1.569,0.828l5.936,5.032
	c0.495,0.371,0.742,1.009,0.742,1.655c0,1.094-0.247,1.284-2.645,3.292c0,3.386,0.086,19.872,0.086,23.535
	c0,4.49-4.861,4.766-6.345,4.766c-1.237,0-2.968-0.181-2.968-3.206c0-0.638,0-0.818,0.085-2.198h-26.465
	c0.085,1.284,0.171,6.05-5.936,6.05c-3.872,0-3.872-2.207-3.872-3.301c0-0.361,0-1.37,0.086-3.111
	c0.409-5.318,0.409-14.108,0.409-16.125c0-7.782-0.161-11.815-0.58-16.21l9.893,3.843H336.927z M310.957,98.157h26.541V87.712
	h-26.541V98.157z M337.498,100.355h-26.541v11.815h26.541V100.355z M350.36,60.239l2.549-5.308c0.257-0.466,0.752-1.199,1.247-1.199
	s0.903,0.276,1.56,1.009l5.108,5.318c0.58,0.552,0.827,0.818,0.827,1.465c0,0.818-0.656,0.913-1.237,0.913h-17.637
	c7.335,10.902,16.895,13.651,20.767,14.659v0.638c-4.281,2.93-5.689,5.042-7.411,9.798c-5.528-3.567-12.205-9.066-15.173-25
	c-4.119,15.753-18.959,20.51-22.584,21.708l-0.085-0.647c3.301-2.102,11.463-7.782,14.345-21.157
	c-2.882,0.095-4.614,0.181-6.754,0.647l-1.322-3.396c4.119,0.466,5.194,0.466,8.571,0.552c0.409-2.568,0.827-5.127,0.989-9.161
	c-3.548,0-5.28,0.095-7.744,0.647l-1.322-3.386c2.473,0.361,6.592,0.542,9.228,0.542c0.247-6.868-0.324-9.979-0.904-12.728
	l10.959,2.749c0.666,0.181,0.989,0.637,0.989,1.189c0,0.732-0.247,1.103-2.464,2.654c-0.086,3.12-0.086,4.309-0.171,6.136h4.614
	l2.721-5.489c0.419-0.742,0.742-1.198,1.237-1.198s1.237,0.732,1.484,1.008l5.603,5.499c0.495,0.457,0.913,0.828,0.913,1.37
	c0,0.827-0.742,1.008-1.322,1.008H342.53c-0.247,2.473-0.58,6.05-1.16,9.161H350.36z"/>
<path fill="#604C3F" d="M389.054,70.015c3.909,0,15.791-4.357,16.134-4.509c2.892-1.294,3.158-1.37,3.919-1.37
	c1.855,0,7.068,4.043,7.068,6.564c0,1.522-0.685,2.217-1.712,2.901c-7.62,4.804-11.815,7.705-18.198,15.116
	c1.237-0.304,2.749-0.77,4.671-0.77c5.213,0,5.974,3.282,7.211,8.933c0.409,1.836,1.028,4.423,4.12,4.423
	c2.055,0,4.946-0.761,5.698-0.989c3.985-1.294,4.671-1.522,6.05-1.522c3.776,0,5.765,3.282,5.765,5.717
	c0,4.814-8.172,4.814-9.408,4.814c-12.776,0-16.619-1.836-17.314-9.465c-0.609-7.173-0.818-9.161-4.528-9.161
	c-2.064,0-4.052,0.152-10.303,10.54c-4.186,6.868-5.422,8.923-7.829,8.923c-2.264,0-3.301-2.521-3.301-4.652
	c0-3.282,0.694-3.891,7.354-10.692c1.027-0.989,22.118-23.507,22.118-25.029c0-0.305-0.21-0.542-0.685-0.542
	c-1.855,0-11.34,5.194-12.985,6.726c-1.646,1.522-1.855,1.751-3.092,1.751c-3.292,0-7.487-3.054-7.487-6.792
	c0-1.988,1.037-4.043,2.473-5.422C384.925,68.484,386.513,70.015,389.054,70.015 M394.476,58.409
	c1.645-0.989,5.565-3.358,5.565-4.804c0-0.771-0.209-0.923-2.34-2.217c-5.765-3.434-6.25-6.792-6.383-9.694
	c3.986,4.195,7.762,4.956,13.252,6.031c7.487,1.37,7.905,6.259,7.905,7.173c0,1.446-0.761,3.358-3.025,3.358
	c-1.104,0-5.908-0.913-6.868-0.913c-2.816,0-5.908,0.989-7.896,1.598L394.476,58.409z"/>
<path fill="#604C3F" d="M399.854,200.376c0-0.789-0.828-1.95-4.176-2.14c0.552-0.732,2.14-2.749,5.546-2.749
	c2.977,0,5.993,1.902,5.993,3.605c0,1.037-0.323,1.408-1.646,2.93c-0.333,0.428-1.151,1.769-2.311,3.605
	c0.714-0.304,2.426-0.913,5.223-2.445c0.942-0.485,1.436-0.609,1.979-0.609c1.379,0,3.909,1.893,3.909,3.177
	c0,1.342-1.322,1.95-1.712,2.14c-3.405,1.589-6.868,2.255-12.861,3.234c-0.77,1.284-4.29,7.021-4.889,8.248
	c1.151-0.675,2.968-1.655,5.936-1.655c4.785,0,6.051,2.502,7.04,5.013c0.875-0.552,9.893-5.622,10.112-5.803
	c0.608-0.428,0.827-0.923,0.827-1.284c0-0.856-0.276-0.98-2.645-2.074c0.885-0.618,1.713-0.856,2.749-0.856
	c3.52,0,7.477,3.719,7.477,7.087c0,2.007-1.313,2.197-2.083,2.321c-6.326,0.79-9.57,1.703-15.449,4.214
	c0.161,0.971,0.437,2.626,0.437,5.251c0,1.398,0,6.84-3.348,6.84c-1.817,0-3.025-2.321-3.025-4.338c0-0.799,0.219-4.214,0.219-4.947
	c-4.014,2.445-7.811,5.622-7.811,8.79c0,3.482,3.739,4.09,7.915,4.09c0.447,0,4.071-0.057,8.362-0.971
	c0.494-0.124,2.53-0.428,3.025-0.428c1.978,0,4.28,2.559,4.28,4.148c0,1.712-0.932,2.388-1.531,2.626
	c-1.655,0.675-6.764,1.351-10.341,1.351c-3.624,0-15.116-0.314-15.116-8.248c0-5.194,4.176-9.894,10.997-14.716
	c-0.39-2.692-0.77-5.746-3.682-5.746c-1.598,0-4.899,0.799-7.81,6.297c-2.864,5.432-3.187,5.86-4.347,5.86
	c-2.141,0-2.36-3.425-2.36-4.395c0-1.713,0.162-2.626,3.025-5.87c3.13-3.539,5.822-8,7.088-10.198
	c-0.819,0.067-1.208,0.067-1.865,0.067c-5.888,0-7.972-4.034-8.029-6.907c1.541,1.218,3.463,2.569,8.076,2.569
	c0.723,0,2.093-0.067,4.233-0.371C398.093,205.446,399.854,201.717,399.854,200.376"/>
<path fill="#604C3F" d="M449.343,263.072c6.26-3.843,11.434-12.824,12.091-19.416c-0.875,1.341-2.692,4.09-5.499,4.09
	c-3.52,0-6.431-4.338-6.431-9.522c0-5.013,2.911-10.94,7.696-10.94c1.646,0,3.025,0.552,4.071,0.98
	c0.057-1.341,0.057-2.378-0.114-5.746c-10.112,1.655-14.679,4.281-17.152,5.746c-0.552,0.305-1.427,0.79-2.083,0.79
	c-1.817,0-5.831-2.93-5.831-8.057c0-1.646,0.333-2.264,0.827-3.054c1.208,2.321,2.141,3.91,4.89,3.91
	c3.082,0,16.438-2.445,19.187-2.806c-0.437-8.552-0.552-10.445-6.05-10.816c0.989-1.341,1.874-2.559,4.842-2.559
	c3.13,0,7.258,2.502,7.258,4.519c0,0.181-0.39,1.646-0.552,2.502c-0.171,0.856-0.437,2.873-0.77,5.736
	c8.467-1.094,9.399-1.218,12.148-2.016c0.333-0.114,1.208-0.238,1.76-0.238c1.103,0,6.326,1.589,6.326,4.576
	c0,1.465-1.046,2.692-2.207,2.692c-0.876,0-4.614-0.98-5.442-1.103c-2.968-0.361-5.441-0.485-7.525-0.485
	c-2.644,0-4.233,0.124-5.393,0.181c-0.323,5.251-0.276,7.82-0.219,9.408c0.885,2.14,2.473,5.622,2.473,10.255
	c0,10.084-7.258,18.75-18.084,21.804L449.343,263.072z M453.024,236.997c0,3.054,1.76,5.679,3.577,5.679
	c1.76,0,4.119-3.054,4.119-6.716c0-2.93-1.484-5.127-3.577-5.127C454.508,230.833,453.024,234.067,453.024,236.997"/>
<path fill="#604C3F" d="M501.311,209.888c1.979,0,6.545-1.227,10.56-3.053c1.702-0.799,1.921-0.856,2.416-0.856
	c2.093,0,5.993,2.93,5.993,5.185c0,1.655-0.885,2.321-3.796,4.462c-2.968,2.14-12.034,12.338-13.851,15.877
	c3.244-1.95,7.363-4.09,12.805-4.09c9.789,0,12.975,7.696,12.975,12.519c0,6.84-5.879,15.392-16.543,15.392
	c-6.431,0-11.767-3.234-11.767-8.428c0-4.519,4.509-6.536,7.534-6.536c2.53,0,7.363,1.532,8.295,8.181
	c3.358-1.037,5.888-5.736,5.888-10.321c0-4.395-2.426-8.733-7.591-8.733c-9.617,0-14.897,8.923-18.636,15.268
	c-0.989,1.712-2.036,2.749-3.13,2.749c-1.702,0-2.587-2.445-2.587-4.338c0-2.502,1.427-4.091,4.29-7.201
	c2.311-2.568,5.384-6.783,6.269-7.943c5.603-7.629,5.765-7.81,9.675-12.947c0.656-0.856,2.53-3.415,2.53-4.148
	c0-0.305-0.171-0.495-0.495-0.495c-1.104,0-8.638,4.766-8.961,5.013c-1.208,1.037-1.436,1.218-2.255,1.218
	c-2.311,0-5.061-2.559-5.061-6.164c0-2.083,0.827-3.482,1.208-4.214C497.906,207.985,498.839,209.888,501.311,209.888
	 M505.326,243.535c-1.151,0-2.692,0.79-2.692,2.683c0,3.729,6.212,4.462,7.144,4.462c0.885,0,1.265-0.124,1.76-0.247
	C510.168,244.515,506.696,243.535,505.326,243.535"/>
<path fill="#604C3F" d="M236.914,19.863c-1.455,0.809-4.861,0.837-6.583,0.837c-2.768,0-5.67-0.028-7.23-1.417
	c-1.265-1.103-1.265-2.34-1.265-5.242c0-1.161,0-7.363-0.019-8.02c-0.028-1.284-0.485-1.941-2.046-2.416
	c0.457-0.381,1.284-1.084,2.141-1.084c1.617,0,4.518,1.836,4.518,2.797c0,0.323-0.105,0.504-0.333,0.828
	c-0.305,0.485-0.352,0.809-0.476,2.045c-0.105,1.056-0.228,2.797-0.257,3.33l0.076-0.048c3.358-2.226,4.49-3.13,5.603-4.89
	c0.076-0.105,0.153-0.285,0.153-0.409c0-0.399-0.561-0.885-1.266-1.084c0.276-0.124,0.685-0.276,1.618-0.276
	c2.721,0,4.842,2.977,4.842,3.529c0,0.533-0.409,0.628-1.218,0.837c-0.247,0.048-1.303,0.523-1.532,0.628
	c-1.997,0.78-5.698,1.988-8.324,2.416c-0.048,1.084-0.105,2.217-0.105,3.301c0,1.617,0.409,1.769,2.302,1.769
	c0.247,0,3.149,0,4.481-0.58c1.294-0.58,1.436-0.628,1.845-0.628c1.465,0,3.758,1.132,3.758,2.521
	C237.6,19.207,237.172,19.711,236.914,19.863 M236.011,5.013c-0.409,0-0.533-0.124-1.617-1.332c-1.009-1.113-1.608-1.513-2.34-2.017
	c0.352-0.028,0.428-0.057,0.675-0.057c0.78,0,4.214,0.285,4.214,2.302C236.943,4.566,236.486,5.013,236.011,5.013 M238.456,3.301
	c-0.476,0-0.533-0.047-1.865-1.436c-0.58-0.609-1.436-1.265-2.245-1.789C234.727,0.048,235.078,0,235.583,0
	c2.036,0,3.805,0.656,3.805,2.169C239.388,2.645,239.112,3.301,238.456,3.301"/>
<path fill="#604C3F" d="M296.842,20.295c-1.009,0-1.237-0.428-1.969-1.988c-1.009-2.093-2.797-4.566-4.081-5.679
	c-3.358,4.243-7.163,6.659-12.376,8.02l-0.028-0.095c3.7-2.426,9.455-7.268,12.528-15.106c-3.13,0.809-3.852,1.008-5.299,1.741
	c-1.208,0.599-1.331,0.676-1.636,0.676c-0.628,0-2.216-1.589-2.216-3.758c0-0.856,0.181-1.256,0.352-1.684
	c0.552,1.18,1.113,1.513,2.597,1.513c1.94,0,6.231-0.609,6.707-0.961c0.152-0.076,0.685-0.628,0.808-0.704
	c0.124-0.105,0.276-0.152,0.476-0.152c0.533,0,3.434,1.817,3.434,2.797c0,0.428-0.2,0.561-1.009,1.037
	c-0.228,0.152-0.333,0.323-0.608,0.828c-1.18,2.245-1.941,3.634-3.482,5.575c1.893,0.381,8.02,1.769,8.02,5.375
	C299.058,19.011,298.097,20.295,296.842,20.295"/>
<path fill="#604C3F" d="M357.32,8.444c-0.305,0.2-0.381,0.257-0.581,0.656c-3.529,6.83-8.114,10.864-15.734,12.938l-0.028-0.133
	c5.907-3.805,9.912-9.094,12.158-14.317c-0.181-0.076-0.229-0.105-0.352-0.105c-0.048,0-2.368,0.561-2.825,0.561
	c-0.304,0-0.532-0.209-0.827-0.504c-1.998,2.369-5.099,4.737-7.972,6.022l-0.124-0.152c3.929-4.309,6.098-8.999,6.098-9.808
	c0-0.904-0.552-1.256-1.36-1.636c0.685-0.333,0.961-0.485,1.56-0.485c1.542,0,2.93,0.809,4.11,1.798
	c0.381,0.295,0.505,0.476,0.505,0.78c0,0.247-0.077,0.447-0.448,0.704c-0.58,0.4-0.656,0.457-1.036,1.009
	c0.456-0.029,2.521-0.152,2.825-0.4c0.608-0.485,1.132-0.913,1.436-0.913c0.2,0,0.38,0.105,0.504,0.2
	c2.017,1.646,2.549,2.074,2.797,2.321c0.105,0.105,0.2,0.305,0.2,0.504C358.224,7.836,358.148,7.893,357.32,8.444"/>
<path fill="#604C3F" d="M452.756,14.923c-0.827,0-1.027-0.276-2.093-1.817c-0.552-0.799-1.941-2.445-3.577-3.605
	c0,2.017,0,3.101,0.048,5.023c0.028,0.828,0.21,4.462,0.21,5.213c0,0.837,0,1.569-0.485,2.017c-0.247,0.257-0.704,0.58-1.208,0.58
	c-1.036,0-2.55-1.379-2.55-3.073c0-0.352,0-0.399,0.181-1.389c0.352-1.912,0.399-4.129,0.399-6.069c0-1.265,0-6.859-0.048-8
	c-0.048-1.208-0.58-1.455-2.169-1.607c0.904-1.009,1.713-1.494,2.626-1.494c1.789,0,3.91,1.237,3.91,2.093
	c0,0.276-0.58,1.36-0.656,1.589c-0.181,0.533-0.228,3.634-0.257,4.462c2.721-0.152,7.687,0.333,7.687,3.682
	C454.773,14.038,453.793,14.923,452.756,14.923 M454.725,7.76c-0.581,0-0.704-0.152-1.465-1.085
	c-1.132-1.408-2.017-1.988-2.721-2.445c0.456-0.048,0.685-0.076,1.008-0.076c2.198,0,4.262,1.218,4.262,2.578
	C455.81,7.179,455.381,7.76,454.725,7.76 M457.122,5.847c-0.476,0-0.761-0.257-1.542-1.084c-1.132-1.161-2.188-1.865-2.721-2.169
	c0.609-0.048,0.913-0.076,1.313-0.076c3.482,0,4.034,1.484,4.034,2.14C458.206,5.296,457.655,5.847,457.122,5.847"/>
<path fill="#604C3F" d="M515.938,13.008c-0.048,0-1.637-0.076-1.893-0.105c-1.256-0.076-3.958-0.076-5.394-0.076
	c-2.52,0-5.974,0.361-7.011,0.58c-0.276,0.076-1.541,0.361-1.665,0.361c-1.103,0-2.416-2.302-2.416-3.358
	c0-0.628,0.276-1.313,0.932-2.473c0.523,1.465,1.028,1.817,4.186,1.817c0.457,0,9.827-0.247,10.207-0.305
	c0.276-0.048,0.761-0.323,1.189-0.323c1.18,0,3.501,0.58,3.501,2.245C517.575,11.895,517.298,13.008,515.938,13.008"/>
<path fill="#604C3F" d="M565.195,9.248c-0.476,4.566-1.36,9.256-8.295,12.557l-0.124-0.171c4.357-3.91,4.842-10.597,4.842-12.738
	c0-1.713-0.18-2.445-1.922-2.921c0.533-0.333,1.417-0.913,2.321-0.913c0.932,0,3.605,1.009,3.605,2.502
	C565.623,7.84,565.224,9.001,565.195,9.248 M569.885,20.017c-0.105,0.076-0.505,0.4-0.581,0.457
	c-0.152,0.095-0.276,0.124-0.399,0.124c-1.085,0-2.521-3.253-2.521-3.986c0-0.4,0.447-1.665,0.476-1.893
	c0.153-1.284,0.124-4.233,0.124-5.261c0-5.527-0.095-6.155-2.14-6.335c0.352-0.305,1.056-0.951,1.94-0.951
	c1.056,0,4.11,1.18,4.11,2.34c0,0.247-0.38,1.313-0.428,1.541c-0.124,0.523-0.276,1.161-0.38,3.453c-0.019,0.828-0.2,4.509-0.2,5.27
	c0,0.2,0.105,0.381,0.38,0.381c0.751,0,5.717-2.778,9.047-7.039l0.105,0.152C577.096,14.928,574.271,16.916,569.885,20.017"/>
<path fill="#EE87B4" d="M397.795,0.676c-6.222,0-11.264,5.042-11.264,11.263s5.042,11.263,11.264,11.263
	c6.221,0,11.263-5.042,11.263-11.263S404.016,0.676,397.795,0.676 M394.56,17.104c-1.198,0-2.159-0.97-2.159-2.159
	c0-1.199,0.961-2.16,2.159-2.16c1.189,0,2.159,0.961,2.159,2.16C396.72,16.134,395.749,17.104,394.56,17.104 M394.56,11.102
	c-1.198,0-2.159-0.97-2.159-2.159c0-1.199,0.961-2.159,2.159-2.159c1.189,0,2.159,0.961,2.159,2.159
	C396.72,10.131,395.749,11.102,394.56,11.102 M401.039,17.104c-1.189,0-2.16-0.97-2.16-2.159c0-1.199,0.971-2.16,2.16-2.16
	s2.159,0.961,2.159,2.16C403.198,16.134,402.228,17.104,401.039,17.104 M401.039,11.102c-1.189,0-2.16-0.97-2.16-2.159
	c0-1.199,0.971-2.159,2.16-2.159s2.159,0.961,2.159,2.159C403.198,10.131,402.228,11.102,401.039,11.102"/>
<path fill="#EE87B4" d="M612.427,66.756c16.447-5.689,27.93-17.018,34.104-23.221c3.862,0.257,4.909-2.093,4.909-4.157
	c0-0.647-0.79-1.57-1.826-2.217L636.2,28.219c-2.825,13.965-15.81,28.32-24.544,37.5L612.427,66.756z"/>
<path fill="#EE87B4" d="M605.741,105.034l0.647,1.294c18.379-6.726,35.388-18.826,45.548-29.69c3.52,0.495,4.214-2.654,4.214-2.787
	c0-0.523-0.257-1.807-1.294-2.588l-12.871-9.551C638.77,71.672,622.968,93.01,605.741,105.034"/>
<path fill="#EE87B4" d="M656.804,104.755l-11.349-9.161c-3.729,10.607-16.324,31.944-43.95,49.658l0.381,1.161
	c24.543-7.24,36.681-16.106,53.129-34.855c1.161,0.124,4.081-1.189,4.081-3.767C659.097,106.62,657.451,105.279,656.804,104.755"/>
<path fill="#EE87B4" d="M595.5,77.781h21.623c0.894,0,1.931-0.257,1.931-1.418c0-0.78-0.39-1.16-1.161-1.94l-20.595,0.257h-1.922
	V40.471h16.353c0.761,0,1.922-0.267,1.922-1.427c0-0.78-0.381-1.17-1.284-1.941l-18.759,0.257h-39.859
	c-6.174,0-12.215-0.257-18.379-0.771l2.178,4.652c3.986-0.647,6.944-0.77,14.783-0.77v34.208c-4.11,0-23.878-0.133-31.593-0.78
	l2.188,4.661c3.215-0.523,17.58-0.78,25.419-0.78h3.986c0,53.91-16.296,68.607-25.219,78.291c-0.048,0.029-0.105,0.057-0.162,0.076
	l0.028,0.066c-0.19,0.219-0.39,0.428-0.571,0.637l0.904,0.904c0.076-0.047,0.152-0.095,0.237-0.143l0.114,0.304
	c21.062-8.495,43.484-32.068,45.595-60.673c0.466-6.364,0.771-13.014,0.961-19.463h8.457v1.294c0,9.313,0,32.221-0.514,49.163
	c0,1.684-0.381,9.827-0.381,11.644c0,2.321,0.952,9.646,7.249,9.646c7.668,0,7.23-8.2,7.23-10.274
	C596.261,134.858,595.633,92.526,595.5,77.781 M566.21,40.471h6.174c0.124,5.032,0.38,18.779,0.009,34.208h-6.183V40.471z
	 M571.356,97.102c-1.589,21.566-15.078,40.164-30.604,51.303c16.058-14.326,25.457-37.043,25.457-70.624h6.098
	C572.117,84.183,571.822,90.785,571.356,97.102 M582.677,74.679h-8.381c0.371-15.401,0.124-29.119,0-34.208h8.381V74.679z"/>
<path fill="#EE87B4" d="M345.871,190.298c4.462,9.58,6.098,12.062,9.96,12.062c4.014,0,9.227-4.3,9.227-10.417
	c0-17.342-26.322-23.953-36.14-25.114v1.161C334.569,173.441,341.257,180.385,345.871,190.298"/>
<path fill="#EE87B4" d="M307.843,249.722c4.909,0,8.923-4.623,8.923-9.579c0-13.223-17.847-17.019-28.853-19.34l-0.143,1.322
	c5.346,4.462,7.877,7.601,10.55,15.04C302.192,247.906,302.934,249.722,307.843,249.722"/>
<path fill="#EE87B4" d="M338.089,258.466c-1.884-3.672-3.749-9.903-5.233-21.471h-1.046c-3.12,14.545-3.71,18.636-5.946,21.937
	c-1.484,2.312-8.248,3.805-20.3,3.805c-19.92,0-21.661-0.666-21.661-5.784c0-1.988,0.143-19.996,0.143-21.318
	c1.807-3.168,2.493-3.035,2.493-4.186c0-1.655-1.789-2.15-2.531-2.321l-15.325-3.919c0.447,6.611,0.447,16.048,0.447,38.356
	c0,17.18,11.9,15.734,32.42,15.734c24.686,0,31.973-2.074,35.911-5.451c3.007-2.559,2.768-5.974,2.768-7.782
	C340.229,263.584,339.507,261.234,338.089,258.466"/>
<path fill="#EE87B4" d="M330.997,224.276l-0.295,1.161c8.324,7.924,13.527,14.536,18.141,25.609
	c3.719,9.094,5.803,13.879,11.301,13.879c3.872,0,8.771-3.796,8.771-10.407C368.915,234.189,335.611,225.598,330.997,224.276"/>
<path fill="#EE87B4" d="M344.117,151.961h-34.979c0-3.472-0.076-9.323,0.066-11.14c0.694-1.047,0.971-1.551,1.427-2.312
	c0.371-0.609,0.514-0.999,0.514-1.655c0-1.16-1.484-1.817-2.53-1.988l-17.923-3.891c1.94,5.118,2.53,8.095,2.53,15.535v5.451
	l-51.427-0.181c-2.52-0.732-17.808-4.871-18.198,2.198c-0.381,6.897,14.764,3.13,17.951,2.255l35.36-0.305
	c1.189,34.542-6.688,54.528-36.14,68.084v1.151c49.077-4.623,51.056-43.122,51.056-69.235h18.351c0,4.794,0.304,37.509,0,40.316
	c-0.295,2.806-1.484,3.139-5.793,3.139c-4.167,0-8.039-0.494-10.854-0.818l-0.447,1.313c4.899,3.472,10.996,7.934,13.08,21.157
	c7.287-0.494,11.644-4.129,14.916-7.772c3.567-4.129,4.014-9.247,4.014-18.17c0-0.999-0.295-36.853-0.447-39.165
	c0,0,51.588,0.01,51.588-2.273C376.233,152.056,344.117,151.961,344.117,151.961 M233.054,155.794c-2.721,0-4.928-0.77-4.928-1.712
	s2.207-1.712,4.928-1.712c2.72,0,6.364,0.77,6.364,1.712S235.774,155.794,233.054,155.794"/>
<path fill="#EE87B4" d="M257.453,228.148c-0.4,0-2.217,4.833-2.417,5.632c-3.425,8.857-10.664,20.538-19.72,28.187
	c-4.833,4.024-6.241,5.631-6.241,7.639c0,2.217,2.616,8.058,8.248,8.058c5.032,0,16.105-6.241,19.121-21.737
	c1.208-6.44,1.617-13.489,1.617-26.17C258.061,228.957,257.653,228.148,257.453,228.148"/>
</svg>
