<?xml version="1.0" encoding="utf-8"?>
<!-- Generator: Adobe Illustrator 27.0.1, SVG Export Plug-In . SVG Version: 6.00 Build 0)  -->
<svg version="1.1" id="레이어_1" xmlns="http://www.w3.org/2000/svg" xmlns:xlink="http://www.w3.org/1999/xlink" x="0px"
	 y="0px" viewBox="0 0 720 113.495" enable-background="new 0 0 720 113.495" xml:space="preserve">
<path d="M285.374,42.913c0,1.056,0.859,2.456,1.924,2.456c1.056,0,1.915-1.4,1.915-2.456V16.208c0-1.057-0.859-2.466-1.915-2.466
	c-1.065,0-1.924,1.409-1.924,2.466V42.913z M319.509,13.742c-1.065,0-1.924,1.409-1.924,2.466v40.981
	c0,1.125-0.91,2.044-2.036,2.044h-1.572c-1.057,0-2.465,0.859-2.465,1.916s1.409,1.915,2.465,1.915h3.376
	c2.25,0,4.071-1.829,4.071-4.071V16.208C321.424,15.151,320.565,13.742,319.509,13.742"/>
<g>
	<defs>
		<path id="SVGID_1_" d="M285.379,16.206v26.705c0,1.056,0.859,2.457,1.916,2.457s1.915-1.4,1.915-2.457V16.206
			c0-1.056-0.859-2.465-1.915-2.465S285.379,15.15,285.379,16.206 M317.59,16.206v40.981c0,1.134-0.919,2.044-2.036,2.044h-1.581
			c-1.048,0-2.457,0.859-2.457,1.916c0,1.056,1.409,1.916,2.457,1.916h3.376c2.251,0,4.08-1.821,4.08-4.071V16.206
			c0-1.056-0.859-2.465-1.924-2.465C318.449,13.741,317.59,15.15,317.59,16.206"/>
	</defs>
	<clipPath id="SVGID_00000067915099014672457070000005909827881808364443_">
		<use xlink:href="#SVGID_1_"  overflow="visible"/>
	</clipPath>
	<polygon clip-path="url(#SVGID_00000067915099014672457070000005909827881808364443_)" fill="#3FB8EC" points="309.603,33.337 
		319,7.431 329.393,19.929 	"/>
	<polygon clip-path="url(#SVGID_00000067915099014672457070000005909827881808364443_)" fill="#0068B7" points="302.851,31.307 
		288.712,54.955 280.878,40.705 	"/>
</g>
<path d="M500.542,23.53c0-1.056-0.859-2.465-1.924-2.465c-1.057,0-1.915,1.409-1.915,2.465v33.361c0,2.251,1.83,4.08,4.08,4.08
	h1.838c1.057,0,2.457-0.859,2.457-1.916c0-1.065-1.4-1.924-2.457-1.924h-0.043c-1.125,0-2.036-0.911-2.036-2.036V23.53z
	 M542.262,29.336c-1.057,0-1.916,1.4-1.916,2.457v15.865c0,1.056,0.859,2.456,1.916,2.456c1.065,0,1.924-1.4,1.924-2.456V31.793
	C544.186,30.736,543.327,29.336,542.262,29.336"/>
<g>
	<defs>
		<path id="SVGID_00000157299980935850995170000008747302119052393123_" d="M540.35,31.796v15.856c0,1.065,0.859,2.465,1.916,2.465
			c1.056,0,1.915-1.4,1.915-2.465V31.796c0-1.065-0.859-2.465-1.915-2.465C541.209,29.331,540.35,30.731,540.35,31.796
			 M496.707,23.533v33.361c0,2.251,1.83,4.071,4.071,4.071h1.847c1.057,0,2.457-0.859,2.457-1.907c0-1.065-1.4-1.924-2.457-1.924
			h-0.043c-1.125,0-2.036-0.911-2.036-2.036V23.533c0-1.057-0.859-2.474-1.924-2.474C497.566,21.059,496.707,22.476,496.707,23.533"
			/>
	</defs>
	<clipPath id="SVGID_00000118392523277089774830000008794742901649090961_">
		<use xlink:href="#SVGID_00000157299980935850995170000008747302119052393123_"  overflow="visible"/>
	</clipPath>
	<polygon clip-path="url(#SVGID_00000118392523277089774830000008794742901649090961_)" fill="#3FB8EC" points="488.989,57.361 
		550.773,36.214 535.441,81.163 	"/>
	<polygon clip-path="url(#SVGID_00000118392523277089774830000008794742901649090961_)" fill="#0068B7" points="486.354,62.05 
		492.702,32.734 506.728,49.424 	"/>
</g>
<path d="M106.594,40.843H86.675c-0.447,0-0.816,0.369-0.816,0.824v2.208c0,0.447,0.369,0.816,0.816,0.816h19.919
	c1.065,0,2.465-0.868,2.465-1.924C109.059,41.71,107.659,40.843,106.594,40.843 M98.511,25.184c0-1.065-1.409-1.924-2.465-1.924
	H65.528c-1.065,0-2.465,0.859-2.465,1.924c0,1.057,1.4,1.916,2.465,1.916h11.295c1.134,0,2.044,0.911,2.044,2.044v9.663
	c0,1.134-0.91,2.036-2.044,2.036H54.971c-1.057,0-2.465,0.867-2.465,1.924c0,1.056,1.409,1.924,2.465,1.924h21.852
	c1.134,0,2.044,0.91,2.044,2.036v11.827c0,1.126-0.91,2.036-2.044,2.036h-3.006c-1.065,0-2.465,0.859-2.465,1.924
	c0,1.057,1.4,1.907,2.465,1.907h4.81c2.251,0,4.08-1.812,4.08-4.071V29.144c0-1.133,0.911-2.044,2.036-2.044h11.304
	C97.103,27.1,98.511,26.241,98.511,25.184 M107.41,13.038c-5.772-3.599-13.632-5.652-22.642-6.116
	c-1.143-0.06-2.062-0.97-2.062-2.113V2.473C82.707,1.409,81.848,0,80.783,0c-1.057,0-1.916,1.409-1.916,2.473V4.81
	c0,1.117-0.859,2.052-1.976,2.104c-5.411,0.24-11.098,0.996-16.913,2.293c-5.892,1.306-11.776,3.144-17.574,5.429l2.491,3.152
	c25.485-9.655,49.003-8.641,60.487-1.495c4.767,2.972,9.826,8.34,7.911,17.342c-0.223,1.048,0.06,2.843,1.082,3.144
	c0.996,0.309,2.354-0.971,2.586-1.984C119.006,25.837,115.656,18.167,107.41,13.038"/>
<g>
	<defs>
		<path id="SVGID_00000016070495362040228170000013024244972115141515_" d="M1.007,40.523c-0.79,0.713-1.409,2.405-0.687,3.187
			c0.713,0.755,2.457,0.386,3.23-0.309c13.408-12.214,27.839-20.555,41.668-25.751c-0.627-1.143-1.297-2.259-2.001-3.35
			C28.089,20.131,13.539,29.133,1.007,40.523"/>
	</defs>
	<clipPath id="SVGID_00000047743555145809767430000007331013281108923568_">
		<use xlink:href="#SVGID_00000016070495362040228170000013024244972115141515_"  overflow="visible"/>
	</clipPath>
	<defs>
		<filter id="Adobe_OpacityMaskFilter" filterUnits="userSpaceOnUse" x="-0.402" y="14.299" width="45.619" height="30.166">
			<feColorMatrix  type="matrix" values="1 0 0 0 0  0 1 0 0 0  0 0 1 0 0  0 0 0 1 0"/>
		</filter>
	</defs>
	
		<mask maskUnits="userSpaceOnUse" x="-0.402" y="14.299" width="45.619" height="30.166" id="SVGID_00000082340691701656441260000010401217974864546996_">
		<g filter="url(#Adobe_OpacityMaskFilter)">
			
				<radialGradient id="SVGID_00000070100969176337265330000008718386992697254333_" cx="71.1015" cy="570.6103" r="8.5895" gradientTransform="matrix(6.309 0 0 -6.309 -450.8707 3643.7058)" gradientUnits="userSpaceOnUse">
				<stop  offset="0" style="stop-color:#000000"/>
				<stop  offset="0.25" style="stop-color:#000000"/>
				<stop  offset="0.2967" style="stop-color:#161616"/>
				<stop  offset="0.3939" style="stop-color:#4E4E4E"/>
				<stop  offset="0.5322" style="stop-color:#A7A7A7"/>
				<stop  offset="0.55" style="stop-color:#B3B3B3"/>
				<stop  offset="0.6448" style="stop-color:#BCBCBC"/>
				<stop  offset="0.8043" style="stop-color:#D6D6D6"/>
				<stop  offset="1" style="stop-color:#FFFFFF"/>
			</radialGradient>
			
				<rect x="-0.402" y="14.299" clip-path="url(#SVGID_00000047743555145809767430000007331013281108923568_)" fill="url(#SVGID_00000070100969176337265330000008718386992697254333_)" width="45.619" height="30.166"/>
		</g>
	</mask>
	
		<radialGradient id="SVGID_00000068641854160592657280000000043580430950654125_" cx="71.1015" cy="570.6103" r="8.5895" gradientTransform="matrix(6.309 0 0 -6.309 -450.8707 3643.7058)" gradientUnits="userSpaceOnUse">
		<stop  offset="0" style="stop-color:#FFFFFF"/>
		<stop  offset="0.25" style="stop-color:#FFFFFF"/>
		<stop  offset="0.2938" style="stop-color:#E9F7FD"/>
		<stop  offset="0.385" style="stop-color:#B1E2F7"/>
		<stop  offset="0.5147" style="stop-color:#58C1EF"/>
		<stop  offset="0.55" style="stop-color:#3FB8EC"/>
		<stop  offset="0.5905" style="stop-color:#3CB0E2"/>
		<stop  offset="0.6589" style="stop-color:#359CC8"/>
		<stop  offset="0.7467" style="stop-color:#2A7B9D"/>
		<stop  offset="0.8504" style="stop-color:#1A4C62"/>
		<stop  offset="0.9664" style="stop-color:#061217"/>
		<stop  offset="1" style="stop-color:#000000"/>
	</radialGradient>
	
		<rect x="-0.402" y="14.299" clip-path="url(#SVGID_00000047743555145809767430000007331013281108923568_)" mask="url(#SVGID_00000082340691701656441260000010401217974864546996_)" fill="url(#SVGID_00000068641854160592657280000000043580430950654125_)" width="45.619" height="30.166"/>
</g>
<g>
	<defs>
		<path id="SVGID_00000179618259319496286790000006922282568950603142_" d="M86.678,40.849c-0.455,0-0.816,0.369-0.816,0.816v2.208
			c0,0.447,0.361,0.816,0.816,0.816h19.919c1.065,0,2.465-0.867,2.465-1.924c0-1.056-1.4-1.915-2.465-1.915H86.678z M65.523,23.267
			c-1.057,0-2.457,0.85-2.457,1.915c0,1.057,1.4,1.916,2.457,1.916h11.304c1.125,0,2.044,0.919,2.044,2.044v9.663
			c0,1.134-0.919,2.045-2.044,2.045h-21.86c-1.057,0-2.457,0.859-2.457,1.915c0,1.057,1.4,1.924,2.457,1.924h21.86
			c1.125,0,2.044,0.911,2.044,2.036v11.828c0,1.125-0.919,2.036-2.044,2.036H73.82c-1.065,0-2.465,0.859-2.465,1.924
			c0,1.056,1.4,1.916,2.465,1.916h4.802c2.251,0,4.08-1.821,4.08-4.08V29.142c0-1.125,0.919-2.044,2.044-2.044H96.05
			c1.048,0,2.457-0.859,2.457-1.916c0-1.065-1.409-1.915-2.457-1.915H65.523z M78.871,2.471v2.345c0,1.108-0.868,2.044-1.984,2.096
			c-5.403,0.24-11.098,1.004-16.913,2.293C38.989,13.87,18.126,24.967,1.007,40.523c-0.79,0.713-1.409,2.405-0.687,3.187
			c0.713,0.755,2.457,0.386,3.23-0.309C41.558,8.776,87.709,5.289,105.378,16.292c4.776,2.972,9.826,8.34,7.911,17.351
			c-0.223,1.031,0.069,2.834,1.082,3.135c1.005,0.309,2.362-0.962,2.585-1.976c2.044-8.959-1.306-16.637-9.543-21.766
			c-5.781-3.599-13.64-5.652-22.651-6.116c-1.134-0.06-2.061-0.971-2.061-2.104V2.471c0-1.065-0.85-2.465-1.924-2.465
			C79.721,0.006,78.871,1.406,78.871,2.471"/>
	</defs>
	<clipPath id="SVGID_00000038405344402933631760000001513122298552609442_">
		<use xlink:href="#SVGID_00000179618259319496286790000006922282568950603142_"  overflow="visible"/>
	</clipPath>
	<polygon clip-path="url(#SVGID_00000038405344402933631760000001513122298552609442_)" fill="#0068B7" points="121.38,21.2 
		114.878,44.237 104.527,30.254 	"/>
</g>
<path d="M173.734,8.238c-1.125,0-2.036-0.911-2.036-2.036V2.466c0-1.065-0.859-2.465-1.924-2.465c-1.057,0-1.916,1.4-1.916,2.465
	v3.736c0,1.125-0.91,2.036-2.036,2.036h-22.315c-2.259,0-4.089,1.821-4.089,4.08v8.048c0,1.056,0.868,2.465,1.924,2.465
	s1.915-1.409,1.915-2.465v-6.253c0-1.126,0.919-2.036,2.044-2.036h48.917c1.125,0,2.036,0.91,2.036,2.036v6.244
	c0,1.056,0.859,2.465,1.924,2.465c1.056,0,1.915-1.409,1.915-2.465v-8.04c0-2.259-1.821-4.08-4.08-4.08H173.734z M171.698,20.933
	c0-1.057-0.859-2.466-1.924-2.466c-1.057,0-1.916,1.409-1.916,2.466v6.94c0,1.125-0.91,2.044-2.036,2.044h-11.192
	c-2.25,0-4.08,1.83-4.08,4.071v26.834c0,2.259,1.83,4.089,4.08,4.089h30.287c2.259,0,4.08-1.83,4.08-4.089V33.989
	c0-2.242-1.821-4.071-4.08-4.071h-11.184c-1.125,0-2.036-0.919-2.036-2.044V20.933z M167.859,59.165c0,1.048-0.85,1.907-1.907,1.907
	h-9.655c-1.057,0-1.907-0.859-1.907-1.907v-7.962c0-1.048,0.85-1.898,1.907-1.898h9.655c1.057,0,1.907,0.85,1.907,1.898V59.165z
	 M167.859,43.566c0,1.048-0.85,1.898-1.907,1.898h-9.655c-1.057,0-1.907-0.85-1.907-1.898v-7.911c0-1.048,0.85-1.907,1.907-1.907
	h9.655c1.057,0,1.907,0.859,1.907,1.907V43.566z M183.26,33.748c1.056,0,1.907,0.859,1.907,1.907v23.509
	c0,1.048-0.85,1.907-1.907,1.907h-9.663c-1.048,0-1.898-0.859-1.898-1.907v-7.962c0-1.048,0.85-1.898,1.898-1.898h7.585
	c0.455,0,0.816-0.361,0.816-0.816v-2.207c0-0.447-0.361-0.816-0.816-0.816h-7.585c-1.048,0-1.898-0.85-1.898-1.898v-7.911
	c0-1.048,0.85-1.907,1.898-1.907H183.26z"/>
<g>
	<defs>
		<path id="SVGID_00000161603399266207618080000009466725404345128847_" d="M154.389,59.171v-7.962c0-1.056,0.85-1.907,1.907-1.907
			h9.663c1.048,0,1.898,0.85,1.898,1.907v7.962c0,1.039-0.85,1.898-1.898,1.898h-9.663C155.24,61.069,154.389,60.21,154.389,59.171
			 M154.389,43.564v-7.911c0-1.047,0.85-1.907,1.907-1.907h9.663c1.048,0,1.898,0.859,1.898,1.907v7.911
			c0,1.048-0.85,1.907-1.898,1.907h-9.663C155.24,45.47,154.389,44.612,154.389,43.564 M171.689,43.564v-7.911
			c0-1.047,0.859-1.907,1.915-1.907h9.655c1.048,0,1.907,0.859,1.907,1.907v23.518c0,1.039-0.859,1.898-1.907,1.898h-9.655
			c-1.057,0-1.915-0.859-1.915-1.898v-7.962c0-1.056,0.859-1.907,1.915-1.907h7.576c0.455,0,0.816-0.361,0.816-0.816v-2.208
			c0-0.438-0.361-0.807-0.816-0.807h-7.576C172.548,45.47,171.689,44.612,171.689,43.564 M167.858,20.93v6.94
			c0,1.134-0.911,2.045-2.036,2.045H154.63c-2.25,0-4.071,1.83-4.071,4.071v26.842c0,2.259,1.821,4.08,4.071,4.08h30.287
			c2.251,0,4.089-1.821,4.089-4.08V33.986c0-2.242-1.838-4.071-4.089-4.071h-11.184c-1.125,0-2.044-0.911-2.044-2.045v-6.94
			c0-1.056-0.85-2.465-1.916-2.465C168.717,18.465,167.858,19.874,167.858,20.93 M167.858,2.471v3.736
			c0,1.117-0.911,2.027-2.036,2.027h-22.316c-2.259,0-4.08,1.829-4.08,4.088v8.04c0,1.065,0.859,2.465,1.916,2.465
			s1.915-1.4,1.915-2.465V14.11c0-1.125,0.911-2.036,2.044-2.036h48.917c1.125,0,2.044,0.911,2.044,2.036v6.253
			c0,1.056,0.859,2.457,1.916,2.457s1.915-1.4,1.915-2.457v-8.04c0-2.259-1.821-4.088-4.071-4.088h-22.29
			c-1.125,0-2.044-0.911-2.044-2.027V2.471c0-1.065-0.85-2.465-1.916-2.465C168.717,0.006,167.858,1.406,167.858,2.471"/>
	</defs>
	<clipPath id="SVGID_00000067220428298426854640000017279632526094302653_">
		<use xlink:href="#SVGID_00000161603399266207618080000009466725404345128847_"  overflow="visible"/>
	</clipPath>
	<polygon clip-path="url(#SVGID_00000067220428298426854640000017279632526094302653_)" fill="#3FB8EC" points="166.043,59.575 
		192.602,25.398 201.784,41.52 	"/>
	<polygon clip-path="url(#SVGID_00000067220428298426854640000017279632526094302653_)" fill="#0068B7" points="165.599,-11.951 
		136.437,48.116 117.429,26.711 	"/>
	<polygon clip-path="url(#SVGID_00000067220428298426854640000017279632526094302653_)" fill="#0068B7" points="174.398,70.086 
		161.342,59.925 171.984,56.601 	"/>
</g>
<path d="M259.803,27.255c1.056,0,2.465-0.859,2.465-1.924c0-1.056-1.409-1.907-2.465-1.907h-14.19c-1.125,0-2.036-0.919-2.036-2.044
	v-6.76c0-1.057-0.859-2.457-1.916-2.457c-1.065,0-1.924,1.4-1.924,2.457v46.778c0,0.515-0.421,0.945-0.945,0.945h-14.009
	c-0.524,0-0.945-0.429-0.945-0.945V48.377c0-0.524,0.421-0.945,0.945-0.945h10.977c0.447,0,0.816-0.37,0.816-0.816v-2.208
	c0-0.455-0.369-0.816-0.816-0.816h-11.682c-2.259,0-4.08,1.821-4.08,4.08v14.43c0,2.251,1.821,4.08,4.08,4.08h15.418
	c2.251,0,4.08-1.83,4.08-4.08V49.468c0-1.126,0.911-2.036,2.036-2.036h6.279c1.057,0,2.457-0.859,2.457-1.925
	c0-1.056-1.4-1.915-2.457-1.915h-6.279c-1.125,0-2.036-0.911-2.036-2.036V29.292c0-1.126,0.911-2.036,2.036-2.036H259.803z"/>
<g>
	<defs>
		<path id="SVGID_00000098186694950200707820000004994434180234217653_" d="M239.735,14.625v46.77c0,0.524-0.421,0.945-0.945,0.945
			h-14.001c-0.524,0-0.953-0.42-0.953-0.945V48.374c0-0.515,0.429-0.945,0.953-0.945h10.977c0.447,0,0.807-0.37,0.807-0.807v-2.216
			c0-0.447-0.361-0.807-0.807-0.807h-11.69c-2.259,0-4.08,1.812-4.08,4.071v14.439c0,2.242,1.821,4.08,4.08,4.08h15.418
			c2.25,0,4.08-1.838,4.08-4.08V49.465c0-1.117,0.919-2.036,2.036-2.036h6.279c1.057,0,2.457-0.859,2.457-1.924
			c0-1.048-1.4-1.907-2.457-1.907h-6.279c-1.117,0-2.036-0.911-2.036-2.045V29.296c0-1.125,0.919-2.044,2.036-2.044h14.198
			c1.048,0,2.457-0.859,2.457-1.916c0-1.056-1.409-1.915-2.457-1.915H245.61c-1.117,0-2.036-0.911-2.036-2.036v-6.76
			c0-1.065-0.859-2.456-1.915-2.456C240.594,12.169,239.735,13.561,239.735,14.625"/>
	</defs>
	<clipPath id="SVGID_00000014608911084168812070000004338254221660881838_">
		<use xlink:href="#SVGID_00000098186694950200707820000004994434180234217653_"  overflow="visible"/>
	</clipPath>
	<polygon clip-path="url(#SVGID_00000014608911084168812070000004338254221660881838_)" fill="#0068B7" points="261.119,39.645 
		243.262,76.417 231.631,63.309 	"/>
	<polygon clip-path="url(#SVGID_00000014608911084168812070000004338254221660881838_)" fill="#3FB8EC" points="234.713,27.591 
		265.318,49.993 251.42,58.445 	"/>
</g>
<path d="M377.43,22.956c0-1.065-1.409-1.915-2.465-1.915h-7.696c-0.447,0-0.816,0.361-0.816,0.816v2.199
	c0,0.447,0.369,0.816,0.816,0.816h7.696C376.021,24.872,377.43,24.022,377.43,22.956 M386.243,52.255
	c-1.056,0-1.915,1.409-1.915,2.465v2.654c0,1.125-0.91,2.045-2.036,2.045l-16.964,0.008c-1.142,0.008-2.036-0.893-2.036-2.044
	V14.358c0-1.065-0.859-2.474-1.915-2.474c-1.065,0-1.916,1.409-1.916,2.474v4.647c0,1.117-0.919,2.036-2.044,2.036h-9.827
	c-1.065,0-2.465,0.85-2.465,1.915c0,1.065,1.4,1.916,2.465,1.916h9.827c1.125,0,2.044,0.919,2.044,2.036v8.375
	c0,1.134-0.919,2.045-2.044,2.045h-9.827c-1.065,0-2.465,0.859-2.465,1.915c0,1.065,1.4,1.925,2.465,1.925h9.827
	c1.125,0,2.044,0.91,2.044,2.036v15.985c0,2.251,1.821,4.08,4.071,4.08l20.555-0.009c2.293-0.008,4.08-1.787,4.08-4.089V54.72
	C388.167,53.664,387.308,52.255,386.243,52.255 M377.43,39.242c0-1.056-1.409-1.915-2.465-1.915h-7.696
	c-0.447,0-0.816,0.361-0.816,0.816v2.208c0,0.447,0.369,0.816,0.816,0.816h7.696C376.021,41.167,377.43,40.307,377.43,39.242"/>
<g>
	<defs>
		<path id="SVGID_00000079461317499882546220000001469118449591207824_" d="M367.272,37.327c-0.455,0-0.816,0.361-0.816,0.816v2.207
			c0,0.438,0.361,0.808,0.816,0.808h7.696c1.057,0,2.457-0.851,2.457-1.916c0-1.056-1.4-1.916-2.457-1.916H367.272z M367.272,21.042
			c-0.455,0-0.816,0.361-0.816,0.807v2.216c0,0.438,0.361,0.807,0.816,0.807h7.696c1.057,0,2.457-0.859,2.457-1.915
			c0-1.056-1.4-1.916-2.457-1.916H367.272z M359.464,14.351v4.647c0,1.133-0.928,2.044-2.053,2.044h-9.826
			c-1.057,0-2.457,0.859-2.457,1.916c0,1.056,1.4,1.915,2.457,1.915h9.826c1.125,0,2.053,0.911,2.053,2.045v8.366
			c0,1.134-0.928,2.044-2.053,2.044h-9.826c-1.057,0-2.457,0.859-2.457,1.916c0,1.065,1.4,1.916,2.457,1.916h9.826
			c1.125,0,2.053,0.919,2.053,2.044v15.985c0,2.25,1.821,4.08,4.071,4.08l20.546-0.008c2.293-0.009,4.08-1.787,4.08-4.089v-4.449
			c0-1.056-0.859-2.465-1.916-2.465s-1.915,1.409-1.915,2.465v2.663c0,1.117-0.911,2.027-2.044,2.027l-16.956,0.008
			c-1.142,0.008-2.036-0.885-2.036-2.036V14.351c0-1.056-0.859-2.465-1.915-2.465C360.314,11.886,359.464,13.294,359.464,14.351"/>
	</defs>
	<clipPath id="SVGID_00000099631057964395863030000013006867445088335235_">
		<use xlink:href="#SVGID_00000079461317499882546220000001469118449591207824_"  overflow="visible"/>
	</clipPath>
	<polygon clip-path="url(#SVGID_00000099631057964395863030000013006867445088335235_)" fill="#3FB8EC" points="368.593,75.429 
		374.958,46.035 389.027,62.768 	"/>
	<polygon clip-path="url(#SVGID_00000099631057964395863030000013006867445088335235_)" fill="#0068B7" points="370.963,44.485 
		336.416,31.713 359.126,17.532 	"/>
</g>
<path d="M468.122,47.525c-0.73-0.765-2.448-0.309-3.213,0.42l-0.421,0.395c-0.653,0.627-1.684,0.619-2.319-0.026l-0.429-0.464
	c-0.747-0.756-2.646-1.434-3.402-0.687c-0.747,0.739-0.077,2.62,0.67,3.376l6.554,6.674c0.739,0.756,2.654,1.486,3.41,0.739
	c0.756-0.748,0.069-2.68-0.679-3.436l-1.143-1.151c-0.627-0.636-0.61-1.667,0.034-2.285l0.369-0.361
	C468.328,49.99,468.861,48.298,468.122,47.525 M471.214,19.823c0-1.056-1.409-1.915-2.465-1.915h-9.277
	c-0.447,0-0.807,0.361-0.807,0.807v2.207c0,0.456,0.361,0.816,0.807,0.816h9.277C469.806,21.739,471.214,20.88,471.214,19.823
	 M468.655,9.748c0-1.056-1.4-1.907-2.457-1.907h-6.726c-0.447,0-0.807,0.361-0.807,0.807v2.207c0,0.447,0.361,0.816,0.807,0.816
	h6.726C467.255,11.672,468.655,10.813,468.655,9.748 M444.072,51.45c0.49-0.421,1.237-0.077,1.237,0.567v5.738
	c0,1.065,0.859,2.465,1.924,2.465c1.057,0,1.916-1.4,1.916-2.465v-9.019c0-1.031,0.455-2.019,1.245-2.688l2.654-2.276
	c0.12-0.094,0.137-0.292,0.034-0.421c-0.034-0.035,0-0.103,0.052-0.103h9.517c2.259,0,4.08-1.829,4.08-4.088v-9.26
	c0-2.259-1.821-4.089-4.08-4.089h-18.055c-2.251,0-4.08,1.83-4.08,4.089v9.26c0,2.259,1.83,4.088,4.08,4.088h1.538
	c0.567,0,0.816,0.696,0.387,1.057l-9.053,7.73c-0.799,0.687-1.555,2.474-0.868,3.281c0.687,0.807,2.56,0.326,3.367-0.361
	L444.072,51.45z M446.253,39.399c-1.048,0-1.898-0.841-1.898-1.898v-5.944c0-1.056,0.85-1.898,1.898-1.898h14.74
	c1.057,0,1.907,0.842,1.907,1.898V37.5c0,1.057-0.85,1.898-1.907,1.898H446.253z M455.504,5.9c0-1.057-0.859-2.465-1.915-2.465
	s-1.916,1.408-1.916,2.465v0.3c0,0.911-0.73,1.641-1.632,1.641h-9.062c-1.057,0-2.457,0.85-2.457,1.907
	c0,1.065,1.4,1.924,2.457,1.924h9.062c0.902,0,1.632,0.73,1.632,1.623v2.981c0,0.902-0.73,1.632-1.632,1.632h-11.613
	c-1.057,0-2.465,0.859-2.465,1.915c0,1.056,1.409,1.916,2.465,1.916h16.26c0.455,0,0.816-0.361,0.816-0.816V5.9z M423.654,14.464
	c0.747-0.739,0.258-2.466-0.49-3.221l-3.685-3.659c-0.739-0.756-2.585-1.46-3.341-0.713c-0.756,0.748-0.129,2.663,0.618,3.419
	l3.685,3.659C421.189,14.687,422.898,15.211,423.654,14.464 M436.676,62.822c-1.297,0-2.551-0.532-3.453-1.468l-6.683-6.94
	c-0.911-0.945-1.417-2.208-1.417-3.513V33.258c0-2.259-1.83-4.08-4.08-4.08h-7.877c-1.056,0-2.457,0.859-2.457,1.916
	c0,1.065,1.4,1.916,2.457,1.916h6.081c1.125,0,2.036,0.919,2.036,2.044v16.062c0,1.297-0.515,2.56-1.426,3.487l-6.279,6.253
	c-0.747,0.747-1.572,2.903-0.816,3.65c0.756,0.739,2.8-0.206,3.539-0.954l5.557-5.531c0.79-0.79,2.079-0.782,2.852,0.017
	l5.463,5.677c1.804,1.882,4.312,2.946,6.906,2.946h35.346c1.057,0,2.457-0.859,2.457-1.915c0-1.057-1.4-1.925-2.457-1.925H436.676z"
	/>
<g>
	<defs>
		<path id="SVGID_00000070832137059259412750000012763468900674906780_" d="M458.346,47.163c-0.765,0.739-0.077,2.628,0.661,3.376
			l6.554,6.674c0.747,0.756,2.654,1.486,3.41,0.73c0.747-0.739,0.06-2.672-0.679-3.419l-1.142-1.151
			c-0.627-0.636-0.618-1.675,0.034-2.294l0.369-0.361c0.765-0.73,1.306-2.422,0.567-3.195c-0.73-0.764-2.448-0.309-3.213,0.421
			l-0.421,0.404c-0.653,0.619-1.684,0.61-2.319-0.035l-0.43-0.463c-0.515-0.524-1.589-1.014-2.448-1.014
			C458.913,46.836,458.578,46.931,458.346,47.163 M413.166,29.176c-1.057,0-2.457,0.85-2.457,1.915c0,1.065,1.4,1.924,2.457,1.924
			h6.081c1.125,0,2.044,0.911,2.044,2.036v16.063c0,1.297-0.524,2.559-1.443,3.487l-6.27,6.253c-0.756,0.756-1.563,2.903-0.816,3.65
			c0.756,0.739,2.8-0.206,3.539-0.953l5.557-5.532c0.79-0.79,2.079-0.79,2.852,0.017l5.463,5.686
			c1.812,1.873,4.312,2.946,6.906,2.946h35.337c1.074,0,2.465-0.868,2.465-1.932c0-1.048-1.391-1.916-2.465-1.916h-35.741
			c-1.297,0-2.551-0.524-3.453-1.469l-6.683-6.94c-0.902-0.945-1.417-2.208-1.417-3.513V33.256c0-2.259-1.821-4.08-4.08-4.08
			H413.166z M444.354,37.499v-5.935c0-1.065,0.85-1.916,1.898-1.916h14.74c1.057,0,1.907,0.85,1.907,1.916v5.935
			c0,1.056-0.85,1.898-1.907,1.898h-14.74C445.204,39.398,444.354,38.556,444.354,37.499 M444.595,25.818
			c-2.259,0-4.08,1.821-4.08,4.08v9.26c0,2.259,1.821,4.089,4.08,4.089h1.538c0.558,0,0.816,0.696,0.387,1.056l-9.053,7.731
			c-0.799,0.687-1.546,2.482-0.859,3.281c0.679,0.807,2.551,0.327,3.359-0.361l4.106-3.504c0.49-0.421,1.237-0.078,1.237,0.567
			v5.738c0,1.065,0.868,2.466,1.924,2.466c1.065,0,1.916-1.4,1.916-2.466v-9.019c0-1.022,0.464-2.018,1.237-2.688l2.663-2.267
			c0.12-0.103,0.137-0.301,0.034-0.43c-0.034-0.034,0-0.103,0.052-0.103h9.526c2.25,0,4.071-1.83,4.071-4.089v-9.26
			c0-2.259-1.821-4.08-4.071-4.08H444.595z M459.472,17.898c-0.447,0-0.816,0.378-0.816,0.825v2.199
			c0,0.455,0.369,0.816,0.816,0.816h9.285c1.048,0,2.457-0.85,2.457-1.915c0-1.057-1.409-1.924-2.457-1.924H459.472z M459.472,7.84
			c-0.447,0-0.816,0.361-0.816,0.807v2.208c0,0.447,0.369,0.816,0.816,0.816h6.725c1.048,0,2.457-0.859,2.457-1.915
			c0-1.065-1.409-1.916-2.457-1.916H459.472z M416.138,6.869c-0.756,0.747-0.129,2.663,0.61,3.418l3.693,3.659
			c0.747,0.747,2.457,1.262,3.213,0.515c0.747-0.739,0.258-2.465-0.481-3.221l-3.694-3.65c-0.515-0.533-1.58-1.04-2.431-1.04
			C416.687,6.551,416.361,6.646,416.138,6.869 M451.672,5.907v0.3c0,0.902-0.739,1.632-1.632,1.632h-9.062
			c-1.057,0-2.457,0.85-2.457,1.916c0,1.056,1.4,1.915,2.457,1.915h9.062c0.893,0,1.632,0.73,1.632,1.632v2.972
			c0,0.902-0.739,1.624-1.632,1.624h-11.613c-1.057,0-2.465,0.867-2.465,1.924c0,1.065,1.409,1.915,2.465,1.915h16.26
			c0.455,0,0.816-0.361,0.816-0.816V5.907c0-1.065-0.859-2.474-1.915-2.474S451.672,4.842,451.672,5.907"/>
	</defs>
	<clipPath id="SVGID_00000040556764173536736500000017255509843726950808_">
		<use xlink:href="#SVGID_00000070832137059259412750000012763468900674906780_"  overflow="visible"/>
	</clipPath>
	<polygon clip-path="url(#SVGID_00000040556764173536736500000017255509843726950808_)" fill="#0068B7" points="413.025,52.412 
		420.111,-3.54 449.135,25.424 	"/>
	<polygon clip-path="url(#SVGID_00000040556764173536736500000017255509843726950808_)" fill="#3FB8EC" points="473.617,79.598 
		452.057,45.008 481.536,47.998 	"/>
</g>
<path d="M698.464,27.138c-0.447,0-0.807,0.361-0.807,0.816v2.208c0,0.447,0.361,0.807,0.807,0.807h8.375
	c1.125,0,2.044,0.919,2.044,2.044v30.794c0,1.056,0.859,2.465,1.916,2.465c1.056,0,1.915-1.409,1.915-2.465V33.013
	c0-1.125,0.91-2.044,2.044-2.044h2.774c1.065,0,2.465-0.85,2.465-1.916c0-1.056-1.4-1.915-2.465-1.915H698.464z M679.945,7.434
	c0-1.065-1.409-1.924-2.465-1.924h-17.583c-1.065,0-2.465,0.859-2.465,1.924c0,1.056,1.4,1.915,2.465,1.915h17.583
	C678.537,9.349,679.945,8.49,679.945,7.434 M712.826,8.954c0-1.065-1.4-1.924-2.457-1.924h-15.65c-2.25,0-4.08,1.829-4.08,4.08
	v52.697c0,1.056,0.859,2.465,1.915,2.465c1.065,0,1.924-1.409,1.924-2.465V12.914c0-1.134,0.911-2.045,2.036-2.045h13.855
	C711.426,10.87,712.826,10.011,712.826,8.954 M661.487,18.308c-2.302-0.009-4.08,1.778-4.08,4.071v41.556
	c0,1.056,0.859,2.456,1.924,2.456c1.056,0,1.915-1.4,1.915-2.456V42.625c0-1.125,0.91-2.044,2.036-2.044h12.601
	c2.259,0,4.08-1.812,4.08-4.071V22.38c0-2.242-1.821-4.071-4.08-4.071H661.487z M674.225,22.147c1.048,0,1.898,0.851,1.898,1.907
	v10.797c0,1.048-0.85,1.898-1.898,1.898h-11.081c-1.048,0-1.898-0.85-1.898-1.898V24.055c0-1.056,0.85-1.907,1.898-1.907H674.225z"
	/>
<g>
	<defs>
		<path id="SVGID_00000039126494391384987980000007891301268217119639_" d="M698.466,27.141c-0.447,0-0.816,0.361-0.816,0.807v2.216
			c0,0.447,0.369,0.807,0.816,0.807h8.375c1.125,0,2.044,0.911,2.044,2.044v30.794c0,1.056,0.85,2.465,1.916,2.465
			c1.056,0,1.915-1.409,1.915-2.465V33.015c0-1.133,0.91-2.044,2.044-2.044h2.774c1.056,0,2.465-0.859,2.465-1.924
			c0-1.048-1.409-1.907-2.465-1.907H698.466z M661.248,34.845V24.057c0-1.065,0.85-1.916,1.898-1.916h11.08
			c1.048,0,1.898,0.85,1.898,1.916v10.788c0,1.057-0.85,1.907-1.898,1.907h-11.08C662.098,36.752,661.248,35.902,661.248,34.845
			 M661.488,18.302c-2.31-0.009-4.088,1.778-4.088,4.08v41.556c0,1.056,0.867,2.457,1.933,2.457c1.056,0,1.915-1.4,1.915-2.457
			V42.627c0-1.125,0.91-2.044,2.027-2.044h12.61c2.25,0,4.08-1.821,4.08-4.071v-14.13c0-2.251-1.829-4.08-4.08-4.08H661.488z
			 M694.721,7.032c-2.259,0-4.08,1.83-4.08,4.071v52.705c0,1.056,0.859,2.465,1.915,2.465c1.065,0,1.924-1.409,1.924-2.465V12.916
			c0-1.142,0.911-2.053,2.036-2.053h13.846c1.065,0,2.465-0.859,2.465-1.907c0-1.065-1.4-1.924-2.465-1.924H694.721z M659.891,5.512
			c-1.057,0-2.457,0.85-2.457,1.924c0,1.056,1.4,1.916,2.457,1.916h17.591c1.057,0,2.457-0.859,2.457-1.916
			c0-1.074-1.4-1.924-2.457-1.924H659.891z"/>
	</defs>
	<clipPath id="SVGID_00000175282786318199766690000016323459586139821184_">
		<use xlink:href="#SVGID_00000039126494391384987980000007891301268217119639_"  overflow="visible"/>
	</clipPath>
	<polygon clip-path="url(#SVGID_00000175282786318199766690000016323459586139821184_)" fill="#3FB8EC" points="686.635,34.897 
		644.641,18.621 672.685,1.716 	"/>
	<polygon clip-path="url(#SVGID_00000175282786318199766690000016323459586139821184_)" fill="#0068B7" points="719.647,45.61 
		704.89,93.419 683.966,63.665 	"/>
</g>
<path d="M585.151,25.738h-4.209c-1.125,0-2.036-0.911-2.036-2.036v-5.016c0-1.057-0.859-2.457-1.915-2.457
	c-1.065,0-1.924,1.4-1.924,2.457v5.016c0,1.125-0.91,2.036-2.036,2.036h-4.2c-1.057,0-2.465,0.859-2.465,1.916
	c0,1.065,1.409,1.915,2.465,1.915h4.2c1.125,0,2.036,0.919,2.036,2.045v11.57c0,1.245-0.721,2.388-1.847,2.912l-4.647,2.147
	c-0.962,0.455-2.225,2.027-1.77,2.989c0.447,0.962,2.439,0.936,3.401,0.481l14.869-6.949c0.962-0.455,2.242-2.009,1.787-2.963
	c-0.447-0.954-2.465-0.954-3.419-0.507l-2.688,1.263c-0.859,0.404-1.847-0.223-1.847-1.177v-9.766c0-1.126,0.911-2.045,2.036-2.045
	h4.209c1.056,0,2.465-0.85,2.465-1.915C587.616,26.597,586.207,25.738,585.151,25.738 M600.93,27.877h19.103
	c2.25,0,4.08-1.829,4.08-4.088V8.216c0-2.259-1.829-4.08-4.08-4.08H600.93c-2.251,0-4.071,1.821-4.071,4.08v15.573
	C596.858,26.047,598.679,27.877,600.93,27.877 M600.689,19.829c0-1.057,0.85-1.907,1.907-1.907h13.674
	c0.455,0,0.816-0.361,0.816-0.816v-2.208c0-0.447-0.361-0.807-0.816-0.807h-13.674c-1.057,0-1.907-0.859-1.907-1.907v-2.31
	c0-1.048,0.85-1.898,1.907-1.898h15.779c1.048,0,1.898,0.85,1.898,1.898v12.257c0,1.056-0.85,1.907-1.898,1.907h-15.779
	c-1.057,0-1.907-0.85-1.907-1.907V19.829z M615.875,49.548c-0.91-0.532-2.603,0.636-3.144,1.538l-3.668,6.244
	c-0.541,0.911-0.73,2.955,0.18,3.496c0.91,0.532,2.585-0.636,3.118-1.555l3.685-6.227C616.58,52.125,616.794,50.09,615.875,49.548
	 M607.002,49.548c-0.911-0.532-2.603,0.636-3.135,1.538l-3.685,6.244c-0.533,0.911-0.73,2.955,0.189,3.496
	c0.91,0.532,2.585-0.636,3.126-1.555l3.668-6.227C607.707,52.125,607.921,50.09,607.002,49.548 M628.442,33.245h-37.038
	c-1.065,0-2.465,0.868-2.465,1.925c0,1.056,1.4,1.915,2.465,1.915h5.918c0.876,0,1.4,0.979,0.919,1.701l-10.015,15.212
	c-0.584,0.893-0.962,2.964-0.086,3.548c0.885,0.584,2.706-0.541,3.281-1.434l4.922-7.49c0.696-1.065,1.89-1.701,3.161-1.701h22.487
	c1.125,0,2.036,0.911,2.036,2.036v15.006c0,1.056,0.859,2.457,1.915,2.457c1.065,0,1.924-1.4,1.924-2.457V47.161
	c0-2.259-1.821-4.08-4.08-4.08h-21.748c-0.876,0-1.392-0.97-0.911-1.701l1.709-2.594c0.704-1.065,1.898-1.701,3.169-1.701h22.436
	c1.065,0,2.465-0.859,2.465-1.915C630.907,34.113,629.507,33.245,628.442,33.245"/>
<g>
	<defs>
		<path id="SVGID_00000087386424668603384360000008929359415326303627_" d="M603.861,51.088l-3.668,6.236
			c-0.541,0.911-0.739,2.964,0.172,3.505c0.919,0.533,2.594-0.644,3.135-1.555l3.668-6.227c0.532-0.919,0.756-2.955-0.163-3.496
			c-0.155-0.095-0.344-0.137-0.541-0.137C605.536,49.413,604.308,50.341,603.861,51.088 M612.734,51.088l-3.668,6.236
			c-0.541,0.911-0.739,2.964,0.172,3.505c0.919,0.533,2.594-0.644,3.126-1.555l3.676-6.227c0.541-0.919,0.747-2.955-0.163-3.496
			c-0.163-0.095-0.343-0.137-0.541-0.137C614.409,49.413,613.181,50.341,612.734,51.088 M591.398,33.248
			c-1.057,0-2.457,0.868-2.457,1.915c0,1.057,1.4,1.924,2.457,1.924h5.927c0.867,0,1.4,0.971,0.919,1.692L588.22,53.991
			c-0.584,0.893-0.962,2.964-0.086,3.556c0.893,0.584,2.706-0.541,3.29-1.434l4.913-7.49c0.704-1.065,1.898-1.701,3.17-1.701h22.487
			c1.125,0,2.036,0.911,2.036,2.036v15.006c0,1.056,0.859,2.457,1.915,2.457c1.065,0,1.924-1.4,1.924-2.457V47.163
			c0-2.259-1.83-4.08-4.089-4.08h-21.74c-0.876,0-1.391-0.971-0.919-1.701l1.709-2.602c0.704-1.056,1.907-1.692,3.169-1.692h22.444
			c1.056,0,2.457-0.867,2.457-1.924c0-1.047-1.4-1.915-2.457-1.915H591.398z M575.069,18.68v5.016c0,1.125-0.911,2.044-2.036,2.044
			h-4.209c-1.056,0-2.456,0.85-2.456,1.907c0,1.065,1.4,1.924,2.456,1.924h4.209c1.125,0,2.036,0.92,2.036,2.036v11.578
			c0,1.237-0.722,2.38-1.847,2.912l-4.647,2.147c-0.962,0.456-2.233,2.027-1.778,2.981c0.455,0.97,2.448,0.945,3.401,0.489
			l14.869-6.949c0.962-0.456,2.242-2.01,1.795-2.964c-0.447-0.953-2.465-0.953-3.427-0.515l-2.689,1.263
			c-0.859,0.404-1.838-0.223-1.838-1.169v-9.774c0-1.117,0.91-2.036,2.036-2.036h4.209c1.048,0,2.457-0.859,2.457-1.924
			c0-1.056-1.409-1.907-2.457-1.907h-4.209c-1.125,0-2.036-0.919-2.036-2.044V18.68c0-1.048-0.868-2.457-1.915-2.457
			C575.92,16.223,575.069,17.632,575.069,18.68 M600.692,12.178V9.876c0-1.048,0.85-1.898,1.898-1.898h15.779
			c1.057,0,1.907,0.85,1.907,1.898v12.257c0,1.056-0.85,1.907-1.907,1.907H602.59c-1.048,0-1.898-0.85-1.898-1.907v-2.31
			c0-1.048,0.85-1.907,1.898-1.907h13.683c0.455,0,0.816-0.352,0.816-0.807v-2.207c0-0.456-0.361-0.807-0.816-0.807H602.59
			C601.542,14.093,600.692,13.234,600.692,12.178 M600.932,4.137c-2.25,0-4.071,1.821-4.071,4.08V23.79
			c0,2.259,1.821,4.08,4.071,4.08h19.103c2.25,0,4.071-1.821,4.071-4.08V8.218c0-2.259-1.821-4.08-4.071-4.08H600.932z"/>
	</defs>
	<clipPath id="SVGID_00000119833187377640606890000015450929454174982321_">
		<use xlink:href="#SVGID_00000087386424668603384360000008929359415326303627_"  overflow="visible"/>
	</clipPath>
	<polygon clip-path="url(#SVGID_00000119833187377640606890000015450929454174982321_)" fill="#3FB8EC" points="566.059,47.01 
		577.998,-8.109 604.377,23.277 	"/>
	<polygon clip-path="url(#SVGID_00000119833187377640606890000015450929454174982321_)" fill="#0068B7" points="552.911,89.177 
		571.017,30.675 599.019,61.279 	"/>
</g>
<path fill="#000" d="M203.862,96.274l2.044-3.358c0.764-1.254,2.01-1.546,3.032-0.927c1.031,0.627,1.34,1.873,0.576,3.127
	l-2.044,3.358l-0.704-0.438l1.46-2.396l-1.898-1.16l0.395-0.67l1.907,1.16l0.206-0.326c0.507-0.834,0.352-1.59-0.301-1.984
	c-0.644-0.395-1.392-0.18-1.89,0.644l-2.07,3.401L203.862,96.274z"/>
<path fill="#000" d="M219.417,102.767l2.018,0.644c0.696,0.232,1.065,0.069,1.228-0.447c0.395-1.194-2.585-2.113-2.019-3.856
	c0.309-0.962,1.168-1.254,2.096-0.954l1.873,0.601l-0.232,0.739l-1.993-0.635c-0.438-0.146-0.79,0.008-0.936,0.464
	c-0.352,1.09,2.611,2.044,2.027,3.839c-0.309,0.936-1.1,1.383-2.139,1.04l-2.165-0.696L219.417,102.767z"/>
<path fill="#000" d="M231.274,103.32l-1.477-0.361l-0.533,2.156c-0.094,0.386,0.052,0.558,0.438,0.653l0.911,0.232l-0.18,0.722
	l-1.014-0.258c-0.773-0.18-1.091-0.816-0.885-1.624l0.945-3.822l0.747,0.189l-0.249,1.031l1.477,0.361L231.274,103.32z"/>
<path fill="#000" d="M238.231,103.923c1.151,0.214,2.001,1.288,1.761,2.577c-0.24,1.28-1.409,1.975-2.568,1.769
	c-1.151-0.214-2.001-1.28-1.761-2.577C235.903,104.413,237.071,103.708,238.231,103.923 M237.561,107.539
	c0.79,0.146,1.469-0.334,1.632-1.194c0.155-0.85-0.309-1.546-1.099-1.692c-0.79-0.154-1.469,0.335-1.632,1.194
	C236.307,106.689,236.771,107.385,237.561,107.539"/>
<path fill="#000" d="M245.106,105.14l0.73,0.112l-0.06,0.473h0.017c0.318-0.37,0.696-0.473,1.211-0.404l0.18,0.017l-0.103,0.739
	l-0.112-0.017c-0.747-0.095-1.246,0.3-1.409,1.425l-0.275,1.967l-0.764-0.112L245.106,105.14z"/>
<path fill="#000" d="M252.546,106.055l-0.249,2.534c-0.06,0.576,0.232,1.074,0.885,1.133c0.644,0.069,1.031-0.352,1.082-0.945
	l0.249-2.534l0.773,0.077l-0.241,2.543c-0.103,0.97-0.627,1.486-1.555,1.64l-0.172,1.812l-0.773-0.077l0.18-1.812
	c-0.885-0.327-1.297-0.936-1.203-1.907l0.249-2.543L252.546,106.055z"/>
<path fill="#000" d="M269.424,107.908l-1.52-0.051l-0.086,2.225c-0.009,0.395,0.172,0.532,0.567,0.549l0.936,0.035l-0.026,0.739
	l-1.039-0.035c-0.799-0.034-1.237-0.575-1.203-1.417l0.137-3.926l0.782,0.026l-0.043,1.056l1.52,0.06L269.424,107.908z"/>
<path fill="#000" d="M274.222,111.515l0.034-6.193l0.782,0.008l-0.017,2.319c0.249-0.258,0.644-0.456,1.091-0.456
	c0.979,0.009,1.761,0.438,1.752,1.873l-0.017,2.474l-0.782-0.009l0.017-2.473c0.009-0.868-0.472-1.117-1.031-1.117
	c-0.558-0.009-1.031,0.455-1.039,1.108l-0.017,2.474L274.222,111.515z"/>
<path fill="#000" d="M286.376,111.431l-0.052-2.387c-0.017-0.799-0.696-1.185-1.4-1.168c-0.868,0.017-1.392,0.704-1.374,1.511
	c0.017,0.79,0.61,1.443,1.417,1.426c0.447-0.017,0.807-0.275,1.057-0.619l0.026,0.928c-0.301,0.232-0.601,0.42-1.142,0.429
	c-1.22,0.026-2.104-0.971-2.13-2.208c-0.026-1.219,0.782-2.181,2.147-2.216c1.306-0.026,2.156,0.748,2.173,1.975l0.051,2.311
	L286.376,111.431z"/>
<path fill="#000" d="M294.558,107.615l-1.512,0.069l0.095,2.224c0.026,0.395,0.215,0.515,0.61,0.498l0.936-0.043l0.034,0.748
	l-1.039,0.043c-0.79,0.043-1.28-0.472-1.314-1.306l-0.189-3.925l0.782-0.035l0.043,1.057l1.52-0.069L294.558,107.615z"/>
<polygon fill="#000" points="306.651,110.324 306.144,104.157 306.925,104.088 307.424,110.255 "/>
<path fill="#000" d="M313.893,108.269l-0.378-0.584l1.967-1.374c-0.292-0.232-0.524-0.352-0.996-0.3
	c-0.799,0.077-1.323,0.73-1.237,1.597c0.086,0.859,0.721,1.4,1.529,1.323c0.911-0.094,1.203-0.67,1.28-1.469l0.79,0.026
	c0.026,1.125-0.79,2.052-2.001,2.181c-1.168,0.12-2.276-0.678-2.405-1.975c-0.137-1.306,0.799-2.311,1.967-2.431
	c0.988-0.086,1.701,0.361,2.173,1.142L313.893,108.269z"/>
<path fill="#000" d="M325.385,108.403l-0.283-2.362c-0.095-0.79-0.807-1.117-1.512-1.04c-0.85,0.103-1.306,0.842-1.211,1.641
	c0.095,0.782,0.747,1.374,1.555,1.271c0.438-0.043,0.765-0.344,0.988-0.705l0.103,0.919c-0.275,0.258-0.55,0.464-1.082,0.533
	c-1.211,0.146-2.19-0.747-2.336-1.984c-0.146-1.202,0.558-2.25,1.915-2.405c1.297-0.164,2.216,0.533,2.362,1.744l0.275,2.293
	L325.385,108.403z"/>
<path fill="#000" d="M334.558,100.938l0.541,3.908c0.189,1.383-0.558,2.431-1.795,2.603c-1.366,0.189-2.319-0.748-2.491-1.993
	c-0.163-1.168,0.661-2.207,1.735-2.362c0.412-0.06,0.833-0.026,1.228,0.137l0.112,0.799c-0.309-0.155-0.764-0.266-1.108-0.223
	c-0.833,0.12-1.306,0.773-1.185,1.632c0.12,0.867,0.782,1.391,1.606,1.271c0.73-0.103,1.271-0.748,1.108-1.898l-0.524-3.763
	L334.558,100.938z"/>
<path fill="#000" d="M340.228,105.601l2.147-0.334c0.361-0.06,0.481-0.215,0.438-0.481c-0.12-0.773-2.723-0.069-2.946-1.512
	c-0.12-0.739,0.335-1.211,1.254-1.366l1.804-0.275l0.12,0.73l-1.941,0.3c-0.369,0.06-0.472,0.189-0.438,0.447
	c0.103,0.73,2.714,0.009,2.946,1.512c0.12,0.798-0.378,1.254-1.117,1.374l-2.156,0.335L340.228,105.601z"/>
<path fill="#000" d="M357.256,99.94l-1.495,0.258l0.387,2.199c0.069,0.395,0.275,0.49,0.661,0.421l0.928-0.163l0.129,0.73
	l-1.031,0.189c-0.782,0.129-1.331-0.309-1.469-1.134l-0.687-3.874l0.764-0.137l0.189,1.039l1.495-0.257L357.256,99.94z"/>
<path fill="#000" d="M364.054,97.976c1.16-0.18,2.311,0.55,2.517,1.839c0.206,1.288-0.67,2.336-1.83,2.525
	c-1.16,0.18-2.311-0.55-2.517-1.839C362.027,99.213,362.895,98.165,364.054,97.976 M364.63,101.6c0.79-0.12,1.271-0.807,1.142-1.658
	c-0.138-0.859-0.807-1.366-1.598-1.237c-0.799,0.129-1.28,0.816-1.142,1.667C363.169,101.223,363.831,101.729,364.63,101.6"/>
<path fill="#000" d="M380.66,96.484l-1.512,0.181l0.275,2.207c0.052,0.404,0.258,0.507,0.653,0.456l0.928-0.112l0.094,0.73
	l-1.039,0.137c-0.79,0.103-1.314-0.369-1.409-1.211l-0.498-3.899l0.773-0.094l0.129,1.056l1.512-0.189L380.66,96.484z"/>
<path fill="#000" d="M385.957,99.386l-0.653-6.15l0.773-0.086l0.241,2.302c0.206-0.284,0.584-0.524,1.031-0.567
	c0.979-0.103,1.795,0.232,1.95,1.658L389.556,99l-0.773,0.086l-0.258-2.457c-0.095-0.868-0.601-1.056-1.143-0.996
	c-0.567,0.051-0.988,0.558-0.91,1.211l0.258,2.457L385.957,99.386z"/>
<path fill="#000" d="M395.871,96.995l-0.369-0.584l1.976-1.348c-0.284-0.241-0.515-0.361-0.988-0.326
	c-0.799,0.077-1.331,0.721-1.254,1.589c0.077,0.859,0.704,1.409,1.512,1.339c0.91-0.085,1.203-0.653,1.297-1.443l0.79,0.026
	c0.009,1.125-0.816,2.044-2.027,2.156c-1.168,0.103-2.268-0.712-2.379-2.009c-0.12-1.306,0.825-2.294,1.993-2.397
	c0.988-0.077,1.692,0.378,2.156,1.169L395.871,96.995z"/>
<path fill="#000" d="M410.777,97.323l-0.189-3.917c-0.069-1.468,0.799-2.405,1.993-2.465c1.203-0.06,2.156,0.799,2.225,2.268
	l0.189,3.917l-0.825,0.034l-0.137-2.808l-2.225,0.112l-0.034-0.782l2.225-0.103l-0.017-0.386c-0.052-0.971-0.601-1.512-1.357-1.469
	c-0.764,0.035-1.254,0.619-1.211,1.589l0.198,3.969L410.777,97.323z"/>
<path fill="#000" d="M420.134,96.929l-0.06-2.473c-0.034-1.117,0.722-1.881,1.761-1.907c1.031-0.026,1.83,0.696,1.864,1.812
	l0.06,2.473l-0.773,0.017l-0.069-2.474c-0.017-0.653-0.507-1.099-1.065-1.09c-0.558,0.017-1.022,0.498-1.005,1.151l0.069,2.474
	L420.134,96.929z"/>
<path fill="#000" d="M431.324,93.254l-1.52,0.009l0.017,2.224c0,0.404,0.18,0.524,0.584,0.524h0.936v0.739l-1.039,0.008
	c-0.799,0-1.263-0.524-1.263-1.366l-0.026-3.934h0.782l0.009,1.056l1.52-0.008V93.254z"/>
<path fill="#000" d="M439.632,96.844l0.043-2.387c0.009-0.799-0.653-1.22-1.357-1.228c-0.859-0.017-1.409,0.653-1.426,1.46
	c-0.017,0.79,0.55,1.46,1.357,1.477c0.447,0,0.816-0.232,1.082-0.576l-0.017,0.928c-0.309,0.223-0.61,0.395-1.151,0.386
	c-1.22-0.026-2.07-1.048-2.044-2.293c0.017-1.211,0.868-2.156,2.233-2.131c1.306,0.026,2.122,0.842,2.096,2.053l-0.043,2.319
	L439.632,96.844z"/>
<path fill="#000" d="M445.71,92.793l0.739,0.035l-0.026,0.49h0.017c0.292-0.404,0.661-0.55,1.177-0.533l0.18,0.008l-0.034,0.748
	l-0.112-0.008c-0.756-0.035-1.22,0.412-1.263,1.554l-0.086,1.975l-0.773-0.034L445.71,92.793z"/>
<path fill="#000" d="M455.461,94.076l-0.601-0.042c-0.73-0.052-1.486,0.377-1.546,1.288c-0.06,0.893,0.636,1.418,1.366,1.46
	l0.601,0.043l-0.052,0.739l-0.739-0.051c-0.988-0.06-2.07-0.893-1.984-2.251c0.094-1.366,1.28-2.044,2.259-1.975l0.739,0.051
	L455.461,94.076z"/>
<path fill="#000" d="M462.889,94.697l-1.512-0.146l-0.206,2.216c-0.034,0.404,0.137,0.55,0.533,0.593l0.936,0.077l-0.069,0.739
	l-1.039-0.086c-0.79-0.077-1.203-0.653-1.125-1.486l0.361-3.908l0.773,0.06l-0.094,1.056l1.512,0.146L462.889,94.697z"/>
<path fill="#000" d="M467.893,98.737l0.49-4.209l0.773,0.086l-0.49,4.218L467.893,98.737z M468.932,93.171
	c0.301,0.035,0.438,0.275,0.412,0.524c-0.034,0.232-0.223,0.438-0.524,0.404c-0.292-0.035-0.438-0.284-0.412-0.515
	C468.442,93.343,468.631,93.128,468.932,93.171"/>
<path fill="#000" d="M477.559,96.501l-0.593-0.085c-0.722-0.103-1.512,0.266-1.641,1.151c-0.129,0.893,0.515,1.469,1.246,1.581
	l0.593,0.077l-0.112,0.73l-0.73-0.094c-0.979-0.146-1.993-1.057-1.804-2.414c0.198-1.34,1.434-1.924,2.414-1.787l0.739,0.103
	L477.559,96.501z"/>
<path fill="#000" d="M485.273,101.349l0.429-2.344c0.137-0.782-0.447-1.306-1.142-1.426c-0.85-0.155-1.495,0.412-1.641,1.203
	c-0.146,0.782,0.309,1.537,1.099,1.675c0.438,0.085,0.842-0.095,1.16-0.378l-0.163,0.902c-0.344,0.18-0.67,0.292-1.203,0.189
	c-1.203-0.214-1.872-1.357-1.649-2.577c0.223-1.194,1.203-1.993,2.543-1.744c1.288,0.232,1.967,1.16,1.744,2.362l-0.412,2.285
	L485.273,101.349z"/>
<path fill="#0068B7" d="M510.588,106.81c0.034,0.155-0.138,0.266-0.275,0.181c-0.962-0.593-3.53-2.319-3.444-3.728
	c0,0,0.094-0.662,0.593-0.85c0.455-0.163,2.749-0.773,4.733,0c0.137,0.06,0.137,0.266-0.009,0.309
	c-0.464,0.18-1.245,0.463-1.752,0.575c-0.06,0.009-0.069,0.103-0.017,0.121c0.524,0.275,2.019,1.074,2.585,1.752
	c0.12,0.129-0.017,0.335-0.197,0.327c-0.679-0.035-2.027-0.146-2.929-0.558c-0.06-0.026-0.103,0.034-0.077,0.077
	C509.995,105.324,510.39,106.012,510.588,106.81"/>
<path fill="#0068B7" d="M538.357,109.762c0.094,0.129-0.026,0.301-0.181,0.275c-1.108-0.18-4.149-0.807-4.595-2.156
	c0,0-0.172-0.653,0.223-1.005c0.361-0.326,2.251-1.752,4.372-1.786c0.163,0,0.232,0.197,0.12,0.292
	c-0.369,0.335-0.988,0.893-1.409,1.185c-0.051,0.034-0.026,0.12,0.034,0.128c0.584,0.043,2.268,0.223,3.049,0.636
	c0.163,0.086,0.112,0.318-0.06,0.378c-0.636,0.223-1.933,0.627-2.929,0.592c-0.052-0.008-0.077,0.069-0.034,0.103
	C537.249,108.611,537.867,109.101,538.357,109.762"/>
<path fill="#3FB8EC" d="M526.094,102.926c0.094,0.138-0.026,0.301-0.181,0.275c-1.108-0.189-4.149-0.825-4.595-2.173
	c0,0-0.154-0.653,0.232-0.997c0.361-0.335,2.259-1.752,4.381-1.778c0.163,0,0.223,0.197,0.112,0.292
	c-0.361,0.335-0.979,0.884-1.4,1.176c-0.06,0.035-0.034,0.129,0.026,0.129c0.584,0.051,2.268,0.241,3.049,0.644
	c0.163,0.086,0.112,0.318-0.06,0.386c-0.636,0.215-1.933,0.619-2.929,0.576c-0.06,0-0.077,0.069-0.034,0.103
	C524.994,101.775,525.612,102.265,526.094,102.926"/>
<path fill="#3FB8EC" d="M499.055,98.33c0.086,0.138-0.052,0.301-0.206,0.258c-1.091-0.292-4.054-1.211-4.372-2.586
	c0,0-0.095-0.67,0.318-0.988c0.404-0.292,2.422-1.52,4.544-1.348c0.146,0.008,0.206,0.206,0.077,0.3
	c-0.395,0.292-1.065,0.791-1.512,1.04c-0.052,0.026-0.043,0.12,0.017,0.129c0.576,0.112,2.233,0.447,2.981,0.919
	c0.155,0.103,0.077,0.335-0.103,0.378c-0.653,0.171-1.984,0.447-2.972,0.309c-0.052-0.008-0.077,0.06-0.034,0.103
	C498.067,97.075,498.642,97.625,499.055,98.33"/>
<path fill="#3FB8EC" d="M568.609,90.771c-1.589-0.146-1.452-0.189-1.787-0.334c-0.344-0.146-0.962-0.628-1.589-0.739
	c-0.627-0.111-2.07-0.171-2.723,0.223c0,0-0.593,0.37-0.936,0.679c-0.335,0.318-0.395,0.318-1.417,1.005
	c-1.022,0.678-1.048,0.73-1.563,1.271c-0.507,0.541-0.447,0.515-0.962,1.047c-0.129,0.146-0.223,0.241-0.292,0.309v-0.008
	c-0.928,0.361-2.182,0.361-3.547,0.284c-1.323-0.078-5.66-0.395-7.292,2.568c-0.103,0.189-0.12,0.438,0.077,0.507
	c0.172,0.06,0.421-0.12,0.953-0.352c1.039-0.463,2.603-0.137,3.711,0.172c0,0,1.366,0.404,2.139,0.653
	c0.885,0.284,0.764,0.266,1.89-0.326l0.086-0.043c-0.3,0.575-1.065,2.216-1.58,4.767c-0.653,3.204-0.876,4.947-0.962,5.755
	c0,0,0.052,0.687-0.429,1.142c-0.163,0.163-0.541,0.524-1.022,0.945c-0.61,0.55-1.649,1.426-2.482,1.821
	c-0.146,0.069-0.129,0.3,0.034,0.309c0.773,0.06,2.242,0.008,4.269-0.868c0,0,1.22-0.052,1.649-0.223c0,0,0.447,0.481,0.988,0.506
	l0.232,0.146c0,0,0.051,0.395-0.06,0.653c0,0-0.232,0.653,0.172,0.825c0,0,1.555-0.086,2.8,0c1.254,0.077,1.881,0.026,2.525-0.369
	c0,0,0.146-0.344-1.134-0.344c-1.271,0-2.748,0.344-3.006-0.284l-0.172-0.627c0,0,0.49-0.163,0.661-0.335
	c0.163-0.171,1.014-0.094,1.417,0.086c0.395,0.164,1.125,0.335,1.864-0.257l1.194,0.223c0,0,0.283,0.318,0.962-0.026
	c0.678-0.344,1.305-0.395,2.182-1.194c0.885-0.79,1.305-0.902,1.563-0.902c0,0,0.06-0.455-1.194,0.06
	c-1.246,0.498-2.293,0.902-2.749,0.927c-0.455,0.035-1.245,0-1.331-0.112c0,0,0.112-0.567,0-1.503
	c-0.112-0.936,0.198-2.328,0.283-2.637c0.086-0.309,2.268-3.573,2.749-8.22c0,0,0.146-1.504,0.318-2.217
	c0.163-0.712,0.284-1.133,0.138-1.872c-0.138-0.739,0.653-1.16,0.902-1.306c0.266-0.137,1.4-0.678,2.079-0.824
	c0.679-0.129,1.443-0.223,1.701-0.473C569.915,91.261,570.198,90.918,568.609,90.771"/>
</svg>
