<?xml version="1.0" encoding="utf-8"?>
<!-- Generator: Adobe Illustrator 27.0.1, SVG Export Plug-In . SVG Version: 6.00 Build 0)  -->
<svg version="1.1" id="레이어_1" xmlns="http://www.w3.org/2000/svg" xmlns:xlink="http://www.w3.org/1999/xlink" x="0px"
	 y="0px" viewBox="0 0 720 231.354" enable-background="new 0 0 720 231.354" xml:space="preserve">
<path fill="#68A9C3" d="M711.791,53.141l-40.348-0.026c1.366-2.18,2.168-4.768,2.168-7.526c0-7.815-6.37-14.171-14.224-14.171
	h-23.996c0.499-3.219,0.539-6.922-2.048-10.153l-2.443-3.073H446.737v18.742h-5.542V18.191H238.958v20.581h-21.29v10.27
	c-5.555-6.396-13.081-10.27-21.395-10.27h-38.352c-5.253-12.28-17.56-20.896-31.534-20.896H78.305
	c-18.913,0-34.293,15.301-34.293,34.095v25.821c0,18.782,15.38,34.07,34.293,34.07h32.69c9.023,0,16.392,7.118,16.667,15.984
	c-2.18-5.437-7.526-6.094-13.751-6.094L8.8,121.739c-4.86,0-8.8,2.22-8.8,7.079c0,4.834,3.875,7.237,8.682,7.303l50.671,0.039
	c-7.013,4.649-13.331,11.61-14.316,20.16c-0.315,2.6,0.144,10.494,0.144,10.494c0,18.795,14.211,33.859,33.124,33.859h48.083
	c11.466,0,21.618-5.635,27.857-14.251v14.251h27.831v-83.453h14.198c8.314,0,15.839-3.861,21.395-10.27v93.723h21.29v0.013h30.326
	V131.51l0.552-0.867h6.107l11.348,70.042h45.378c0.315,5.175,2.6,9.601,6.068,12.36H22.288v0.013
	c-5.044,0.014-9.115,4.098-9.115,9.155c0,5.043,4.071,9.128,9.115,9.141h614.259c8.209,0,14.619-7.302,14.619-16.64
	c0-9.313-6.41-16.615-14.619-16.615h-37.195l-0.026-11.361l-5.398-1.024V50.133l0.053-4.518h22.59
	c-1.156,2.062-1.825,1.274-1.825,3.796c0,7.814,6.396,14.184,14.224,14.184l82.27,0.026c4.833,0,8.76-0.709,8.76-5.542
	C720,53.429,716.375,53.429,711.791,53.141 M127.675,166.591c0,9.088-7.486,16.483-16.68,16.483H94.196
	c-9.207,0-16.679-7.395-16.679-16.483v-2.036c0-9.089,7.473-16.496,16.679-16.496h19.714c6.225,0,11.584-3.849,13.764-9.299V166.591
	z M154.245,108.513c-6.238-8.616-16.391-14.238-27.857-14.238H92.634c-8.774-0.552-15.617-7.722-15.617-16.417V52.037
	c0-9.102,7.474-16.483,16.707-16.483l18.413-0.079c9.18,0,16.654,7.394,16.654,16.496v2.89c0,9.089-7.474,18.769-16.654,18.769
	H91.439v11.413h34.949c11.361,0,21.578-1.786,27.857-10.468V108.513z M197.363,79.631c0,10.757-6.2,19.819-13.555,19.819h-1.733
	V56.608l1.865-0.066c7.276,0.105,13.423,9.141,13.423,19.806V79.631z M291.665,86.698c0,14.027-8.367,25.861-18.256,25.861h-3.861
	V57.054l0.224-0.184l3.651-0.014c9.891,0.014,18.243,11.834,18.243,25.861V86.698z M317.67,198.69l-11.873-73.392
	c4.742-3.152,8.773-7.539,11.873-12.792V198.69z M317.67,56.791c-1.642-2.771-3.533-5.292-5.647-7.499h5.647V56.791z
	 M398.443,56.634l1.852-0.066c7.289,0.105,13.436,9.141,13.436,19.806v3.283c0,10.743-6.213,19.819-13.555,19.819h-1.733V56.634z
	 M436.138,183.389h-5.49l-0.591,14.723h-31.613v-80.865h14.198c9.43,0,17.835-4.964,23.509-12.963L436.138,183.389z M437.792,54.283
	c-1.077-1.8-2.272-3.481-3.586-5.004l1.773-0.014v0.105h4.308C439.277,50.895,438.449,52.549,437.792,54.283z M465.111,73.918
	c-0.014-3.611-0.014-9.062,1.208-13.015c1.051-3.441,2.115-3.441,3.231-3.441h4.334c2.141,0,4.439,5.332,4.439,17.047l0.014,19.688
	l-1.55,0.053c-6.304,0-11.111-2.614-11.689-2.942L465.111,73.918z M465.084,198.112l0.013-81.43c3.389,0.972,7.618,1.76,12.504,1.76
	h0.736l0.013,79.67H465.084z M504.801,52.3l-1.628-2.889h3.454L504.801,52.3z M513.417,198.112l-0.026-0.407l0.657,0.407H513.417z
	 M564.561,169.493l-7.644,0.04l-2.417,3.52c-0.538,0.801-2.023,2.666-3.756,2.666h-18.401c-2.509,0-6.186-4.414-6.186-11.321V76.099
	c0-6.908,3.677-11.321,6.186-11.321h18.401l2.009,0.539v7.302h11.808V169.493z"/>
<path fill="#F4C71E" d="M427.207,155.676c1.037,1.392,2.18,2.772,3.388,4.164l1.812,2.049v-26.478
	c-1.012-3.691-0.919-7.026,0.367-9.798c2.851-6.2,11.492-9.772,23.72-9.772c11.151,0,24.087,3.113,36.381,8.773
	c26.241,12.044,44.182,33.663,38.416,46.258c-0.736,1.576-1.892,2.994-3.402,4.255v16.181l1.012-0.433
	c7.171-3.1,12.464-7.972,15.261-14.093c9.404-20.476-10.521-49.056-45.378-65.052c-14.118-6.488-29.13-10.061-42.291-10.061
	c-18.007,0-31.351,6.581-36.604,18.033C415.057,130.223,417.671,142.99,427.207,155.676"/>
<rect x="40.125" y="201.343" fill="#F4C71E" width="235.859" height="26.084"/>
<rect x="324.894" y="42.107" fill="#B0DCE7" width="15.419" height="154.376"/>
<rect x="218.811" y="42.054" fill="#B0DCE7" width="12.214" height="154.415"/>
<path fill="#B0DCE7" d="M140.902,45.023c-1.209-14.053-13.108-25.125-27.569-25.125H62.321c-15.275,0-27.699,12.332-27.699,27.489
	v27.384c0,15.156,12.424,27.489,27.699,27.489h34.686c14.526,0,26.334,11.729,26.334,26.15v40.57
	c0,14.421-11.807,26.149-26.334,26.149H79.172c-14.526,0-26.347-11.729-26.347-26.149v-2.168c0-14.421,11.821-26.149,26.347-26.149
	h20.922c3.888,0,7.04-3.139,7.04-6.988c0-3.848-3.152-6.987-7.04-6.987H10.442v1.353H90.48c3.152,0,5.7,2.521,5.7,5.634
	c0,3.114-2.548,5.648-5.7,5.648H62.321c-15.261,0-27.673,12.306-27.699,27.423v2.233c0,15.156,12.424,27.489,27.699,27.489h51.012
	c15.275,0,27.699-12.332,27.699-27.489v-40.57c0-15.157-12.424-27.489-27.699-27.489H77.28
	c-13.895-0.709-24.993-12.123-24.993-26.084V47.454c0-14.421,11.834-26.137,26.346-26.137l19.569-0.079
	c14.526,0,26.346,11.741,26.346,26.15v3.073c0,14.408-11.82,26.15-26.346,26.15H84.925v1.327h28.408
	c14.487,0,26.386-11.085,27.569-25.178l0.131-2.299v-3.073L140.902,45.023"/>
<path fill="#B0DCE7" d="M563.471,187.316H543.94c-8.405,0-15.208-9.259-15.208-20.672V72.986c0-11.426,6.803-20.673,15.208-20.673
	h19.531c4.268,0,9.036,2.273,10.809,6.593l0.643-0.026c-0.196-14.171-8.51-16.364-16.286-16.364H536.27
	c-9.627,0-17.428,10.599-17.428,23.667V173.46c0,13.068,7.801,23.667,17.428,23.667h22.367c7.762,0,14.303-6.895,16.575-16.391
	h-0.631C571.81,184.781,567.857,187.316,563.471,187.316"/>
<path fill="#B0DCE7" d="M211.575,70.582c-1.064-15.957-11.467-28.527-24.127-28.527h-35.908V196.47h12.202v-80.629
	c0-4.006,2.929-7.303,6.751-7.894h16.955c12.675,0,23.089-12.609,24.127-28.593l0.105-2.614v-3.48L211.575,70.582 M197.272,76.742
	c0,16.365-10.337,29.683-23.05,29.683h-10.481V51.617c0-3.993,2.929-7.289,6.751-7.894l3.73-0.144
	c12.713,0,23.05,13.317,23.05,29.683V76.742z"/>
<path fill="#B0DCE7" d="M441.076,70.608c-1.064-15.958-11.453-28.527-24.114-28.527h-35.922v154.402h12.202v-80.629
	c0-3.993,2.942-7.289,6.764-7.894h16.956c12.674,0,23.089-12.595,24.127-28.58l0.105-2.627v-3.467L441.076,70.608 M426.774,76.754
	c0,16.378-10.337,29.683-23.037,29.683h-10.494V51.643c0-3.992,2.942-7.289,6.764-7.88l3.73-0.158
	c12.7,0,23.037,13.318,23.037,29.683V76.754z"/>
<path fill="#B0DCE7" d="M314.688,76.742c-1.287-19.399-13.948-34.687-29.328-34.687h-43.959v154.429h14.841v-64.711
	c0-4.86,3.559-8.866,8.222-9.588h14.867l12.031,74.299h15.039l-12.307-76.019c11.229-4.518,19.596-17.455,20.607-33.058l0.119-3.178
	v-4.216L314.688,76.742 M297.299,84.228c0,19.898-12.57,36.093-28.015,36.093h-12.766V51.183c0.893-3.704,3.914-6.567,7.71-7.263
	h5.056c15.446,0,28.015,16.181,28.015,36.092V84.228z"/>
<path fill="#B0DCE7" d="M514.665,195.445c-3.389,0-5.963-3.007-5.963-6.698v-49.291h-0.013L508.675,59.3
	c0-8.353-5.66-15.327-12.989-16.68v-0.105H463.56v0.105c-7.316,1.353-12.989,8.327-12.989,16.68l-0.026,129.448
	c0,3.691-2.758,6.698-6.147,6.698l-0.066,1.419h19.596v-27.687l0.026-97.886c0-8.537-0.341-26.741,13.383-26.741h4.584
	c12.49,0,13.383,18.203,13.383,26.741v27.883c-2.495,0.919-5.897,1.72-10.297,1.72c-9.929,0-17.047-4.452-17.047-4.452v8.327
	c0,0,7.118,4.479,17.901,4.479c3.993,0,7.119-0.276,9.443-0.617l0.026,80.117v8.117h19.439L514.665,195.445"/>
<path fill="#B0DCE7" d="M655.212,57.264c-2.863,0-5.202-2.311-5.202-5.148c0-2.679,2.063-4.859,4.69-5.109h7.328
	c3.546,0,6.423-2.863,6.423-6.371c0-3.52-2.877-6.383-6.423-6.383h-13.646l-4.085-0.644c-2.469-2.483,2.102-10.77,0-13.383H450.401
	v15.747l130.617,0.105c3.258,0.644,5.766,4.584,5.766,9.377v144.723c0,4.57-2.508,6.738-5.766,7.355v1.681h25.348v-1.681
	c-3.243-0.617-5.765-2.785-5.765-7.355V45.456c0-4.794,2.508-8.721,5.753-9.377h49.291c1.668,0.867,2.811,2.574,2.811,4.557
	c0,2.68-2.075,4.859-4.702,5.096h-7.303c-3.559,0-6.435,2.863-6.435,6.383c0,3.506,2.876,6.37,6.435,6.37h62.124v-1.222H655.212"/>
<path fill="#B0DCE7" d="M637.467,211.062H356.953c-3.06,0-5.542-3.257-5.542-7.276c0-3.376,1.773-6.213,4.176-7.027h20.935v-1.655
	c-3.979-0.617-7.04-2.758-7.04-7.25v-142.7c0-4.715,3.061-8.603,7.04-9.247l61.073-0.039V20.227H241.402v15.59l104.099,0.091
	c3.98,0.644,7.053,4.532,7.053,9.247v142.7c0,4.492-3.073,6.633-7.053,7.25v0.105c-2.758,1.169-4.781,4.584-4.781,8.577
	c0,4.964,3.087,9.01,6.869,9.01h278.727v-0.013h1.812c3.048,0,5.53,3.257,5.53,7.25c0,3.257-1.642,5.975-3.901,6.895H40.111v2.075
	h597.356c3.769,0,6.829-4.019,6.829-8.97C644.297,215.094,641.237,211.062,637.467,211.062"/>
<polyline fill="#295EAA" points="72.487,225.745 71.133,225.745 69.308,225.562 67.561,224.169 62.675,217.524 59.273,223.486 
	57.724,225.168 55.412,225.615 50.828,225.615 50.828,222.475 54.177,222.475 56.45,221.385 64.343,207.739 51.945,207.739 
	51.945,204.573 68.349,204.573 68.349,207.621 64.488,214.384 70.162,221.844 71.974,222.62 72.487,222.62 72.487,225.745 "/>
<path fill="#295EAA" d="M99.778,205.466l-0.591,1.642l-1.51,0.907c-1.038,2.43-1.655,3.835-1.865,4.189
	c-0.788,1.314-1.747,1.958-2.85,1.958H81.089v6.528l0.512,1.326l1.327,0.512h15.064v3.218H81.548c-1.221,0-2.167-0.341-2.863-1.037
	c-0.697-0.722-1.038-1.681-1.038-2.889v-17.6h3.415v6.791h9.758l1.8-0.697c0.249-0.302,0.696-1.116,1.352-2.469h2.18l-1.55-2.378
	l0.775-1.838l1.812-0.749l1.825,0.749L99.778,205.466 M98.386,205.466l-0.341-0.814l-0.854-0.381l-0.841,0.381l-0.341,0.814
	l0.341,0.828l0.841,0.341l0.854-0.341L98.386,205.466z"/>
<path fill="#295EAA" d="M107.607,217.34h-3.441v-13.252h3.441V217.34z M122.816,221.792c0,1.209-0.341,2.18-1.038,2.863
	c-0.683,0.709-1.642,1.064-2.85,1.064h-10.809v-3.218h9.43l1.34-0.512l0.499-1.352v-16.575h3.429V221.792z"/>
<path fill="#295EAA" d="M136.146,216.513h-1.156l-2.035-0.236l-1.419-1.405l-2.39-5.91h3.454l1.681,4.019l0.512,0.564l0.749,0.039
	h0.604V216.513 M147.27,210.103l-2.6,11.506c-0.329,1.497-0.735,2.508-1.222,3.047c-0.643,0.735-1.72,1.09-3.191,1.09h-10.06v-2.929
	h8.747c1.431,0,2.298-0.604,2.587-1.839l2.588-10.875H147.27z M141.334,214.792h-1.156l-2.023-0.262l-1.38-1.458l-2.298-5.503h3.323
	l1.497,3.691l0.499,0.539l0.762,0.052h0.775V214.792z"/>
<polyline fill="#295EAA" points="173.289,218.141 167.023,218.141 164.791,217.852 163.097,216.316 158.854,210.156 
	158.854,225.746 155.413,225.746 155.413,204.14 158.854,204.14 158.854,209.67 162.847,209.67 165.855,214.122 167.706,214.923 
	173.289,214.923 173.289,218.141 "/>
<path fill="#295EAA" d="M188.97,204.403l-3.716,17.915c-0.289,1.379-0.775,2.311-1.458,2.823l-2.482,0.604h-1.655v-3.415h0.46
	c1.024,0,1.655-0.604,1.917-1.839l3.362-16.089H188.97 M201.421,225.667h-1.628c-2.167,0-3.481-1.143-3.954-3.429l-3.586-17.835
	h3.56l3.296,16.234l0.735,1.457l1.576,0.197V225.667z M202.315,206.609l-0.775,1.826l-1.825,0.762l-1.812-0.762l-0.775-1.826
	l0.775-1.812l1.812-0.789l1.825,0.789L202.315,206.609z M200.91,206.609l-0.341-0.84l-0.854-0.354l-0.854,0.354l-0.329,0.84
	l0.329,0.854l0.854,0.329l0.854-0.329L200.91,206.609z"/>
<path fill="#295EAA" d="M228.714,210.549l-3.875,12.097c-0.381,1.234-0.932,2.062-1.642,2.522l-2.456,0.578h-11.479v-3.178h9.903
	c1.445,0,2.351-0.604,2.732-1.839l3.283-10.323h-11.242l-1.432,4.151c-0.499,1.457-1.392,2.18-2.693,2.18h-2.233v-3.218h0.788
	l1.155-0.879l2.916-8.577h3.704l-1.117,3.204h13.686V210.549"/>
<polyline fill="#295EAA" points="253.721,218.141 247.443,218.141 245.223,217.852 243.516,216.316 239.286,210.156 
	239.286,225.746 235.846,225.746 235.846,204.14 239.286,204.14 239.286,209.67 243.279,209.67 246.287,214.122 248.139,214.923 
	253.721,214.923 253.721,218.141 "/>
<path fill="#F4C71E" d="M398.509,85.791l-0.486-0.026c-3.113-0.407-5.031-4.584-4.387-9.496c0.631-4.833,3.586-8.379,6.672-8.025
	c3.113,0.407,5.03,4.584,4.387,9.496C404.091,82.324,401.425,85.791,398.509,85.791 M399.836,69.65
	c-2.141,0-4.282,3.061-4.768,6.817c-0.525,3.979,0.907,7.578,3.139,7.867c2.233,0.328,4.557-2.863,5.069-6.791
	c0.512-3.966-0.919-7.565-3.139-7.867L399.836,69.65z"/>
<path fill="#F4C71E" d="M401.241,100.54c-3.113,0-6.12-3.467-7.159-8.234c-1.155-5.293,0.552-10.021,3.902-10.744
	c3.296-0.722,6.882,2.916,8.024,8.13c0.539,2.456,0.46,4.899-0.21,6.882c-0.696,2.128-2.023,3.507-3.691,3.861L401.241,100.54
	 M398.838,83.033l-0.526,0.066c-2.403,0.526-3.625,4.597-2.693,8.879c0.919,4.216,3.756,7.447,6.161,6.921
	c1.103-0.249,2.009-1.247,2.535-2.823c0.578-1.72,0.63-3.861,0.157-6.042C403.605,86.106,401.136,83.033,398.838,83.033z"/>
<path fill="#F4C71E" d="M410.08,113.123c-2.666,0-5.753-1.852-8.052-4.807c-3.349-4.321-3.822-9.364-1.09-11.492l2.811-0.906
	c2.665,0,5.753,1.839,8.051,4.82c1.55,1.983,2.548,4.242,2.798,6.33c0.276,2.259-0.329,4.098-1.721,5.162L410.08,113.123
	 M403.749,97.65l-1.748,0.539c-1.891,1.485-1.26,5.622,1.406,9.062c1.943,2.509,4.557,4.137,6.672,4.137l1.747-0.539
	c0.879-0.683,1.247-1.943,1.05-3.559c-0.21-1.799-1.089-3.743-2.43-5.503C408.477,99.267,405.863,97.65,403.749,97.65z"/>
<path fill="#F4C71E" d="M423.201,122.724c-2.312,0-4.912-0.775-7.289-2.18c-2.417-1.432-4.347-3.349-5.464-5.411
	c-1.208-2.233-1.327-4.374-0.341-6.029c1.012-1.694,2.956-2.613,5.517-2.613c2.324,0,4.912,0.775,7.315,2.18
	c3.218,1.917,5.556,4.675,6.252,7.381c0.381,1.51,0.224,2.902-0.459,4.058C427.732,121.791,425.775,122.724,423.201,122.724
	 M415.623,108.525c-1.8,0-3.139,0.578-3.756,1.616c-0.604,1.037-0.473,2.456,0.381,4.019c0.945,1.734,2.613,3.376,4.702,4.623
	c2.075,1.209,4.308,1.892,6.252,1.892c1.812,0,3.152-0.565,3.769-1.602l0.224-2.508c-0.552-2.168-2.574-4.505-5.306-6.12
	C419.812,109.208,417.593,108.525,415.623,108.525z"/>
<path fill="#F4C71E" d="M370.836,16.077c-2.115,0-3.717-0.802-4.387-2.22c-0.565-1.222-0.341-2.719,0.644-4.164
	c0.893-1.34,2.35-2.522,4.097-3.349c1.471-0.683,2.995-1.051,4.414-1.051c2.14,0,3.73,0.814,4.373,2.22
	c1.143,2.443-0.932,5.74-4.728,7.513C373.792,15.709,372.268,16.077,370.836,16.077 M375.604,6.869c-1.17,0-2.509,0.329-3.756,0.907
	c-1.485,0.696-2.719,1.681-3.454,2.784l-0.499,2.627c0.683,1.485,3.901,1.721,6.686,0.407c2.902-1.352,4.728-3.835,3.979-5.411
	C378.178,7.356,377.075,6.869,375.604,6.869z"/>
<path fill="#F4C71E" d="M383.668,13.279c-4.334,0-7.749-2.102-7.933-4.873c-0.105-1.523,0.749-2.968,2.377-4.098
	c1.51-1.05,3.546-1.707,5.74-1.852c4.754-0.302,8.642,1.878,8.826,4.833c0.092,1.524-0.735,2.982-2.364,4.112
	c-1.524,1.037-3.559,1.694-5.753,1.838L383.668,13.279 M384.758,4.006l-0.802,0.026c-1.905,0.119-3.664,0.683-4.952,1.576
	l-1.694,2.705c0.131,2.036,3.375,3.599,7.145,3.349c1.918-0.118,3.677-0.669,4.951-1.562l1.695-2.705
	C390.97,5.503,388.186,4.006,384.758,4.006z"/>
<path fill="#F4C71E" d="M398.641,14.238c-1.392,0-2.903-0.289-4.347-0.841c-2.063-0.762-3.822-1.983-4.965-3.415
	c-1.221-1.562-1.615-3.191-1.089-4.609c0.683-1.826,2.745-2.916,5.503-2.916c1.405,0,2.902,0.302,4.347,0.841
	c2.062,0.762,3.821,1.983,4.964,3.415c1.234,1.563,1.615,3.205,1.077,4.623C403.461,13.148,401.398,14.238,398.641,14.238
	 M393.742,4.032c-2.036,0-3.586,0.723-4.019,1.892l0.841,3.073c0.959,1.221,2.495,2.259,4.281,2.928
	c1.274,0.486,2.587,0.736,3.796,0.736c2.049,0,3.586-0.722,4.019-1.892l-0.84-3.073c-0.972-1.209-2.495-2.259-4.282-2.929
	C396.277,4.295,394.963,4.032,393.742,4.032z"/>
<path fill="#F4C71E" d="M401.609,18.23h2.338l-0.131-0.079c-2.889-2.39-4.216-5.765-2.903-7.355l2.246-0.867
	c1.707,0,3.769,0.854,5.529,2.311c1.471,1.222,2.575,2.693,3.087,4.164l0.302,1.825h1.562l-0.368-2.35
	c-0.617-1.734-1.891-3.454-3.585-4.847c-3.534-2.929-8.117-3.52-9.996-1.235C398.01,11.847,398.877,15.367,401.609,18.23"/>
<path fill="#F4C71E" d="M408.583,60.81c0.682,1.55,0.511,4.019-0.592,6.423c-1.523,3.31-4.439,5.451-6.304,4.597
	c-0.867-0.407-1.432-1.392-1.576-2.771c-0.158-1.537,0.171-3.297,0.972-5.017c1.327-2.89,3.664-4.899,5.556-4.794l0.669,0.171
	l-1.839-1.392c-2.114,0.525-4.307,2.574-5.634,5.45c-0.893,1.918-1.274,3.966-1.09,5.713c0.21,1.905,1.051,3.271,2.364,3.875
	l1.261,0.328c2.456,0.145,5.293-2.14,6.869-5.582c0.696-1.471,1.037-2.968,1.116-4.308L408.583,60.81"/>
<path fill="#F4C71E" d="M366.935,9.443C361.55,3.271,353.551,0,343.806,0c-12.844,0-27.515,5.832-40.255,15.997l-2.6,2.22
	l20.187-0.026c7.684-4.098,15.827-7.158,22.669-7.158c4.505,0,10.743,0.985,14.829,5.66c9.233,10.56,1.563,32.993-16.759,48.99
	c-11.243,9.837-24.692,15.708-35.935,15.708c-4.518,0-10.756-0.972-14.841-5.674l-0.196-0.223l-0.014-0.014v-0.013
	c-1.681-2.01-3.073-6.423-3.599-9.338c-2.85-4.61-6.265-7.684-10.612-8.84l-0.184,1.826c-1.221,9.482,0.959,17.744,6.291,23.851
	c5.398,6.186,13.41,9.457,23.155,9.457c13.831,0,29.985-6.896,43.197-18.427C372.74,53.376,380.555,25.02,366.935,9.443"/>
<path fill="#F4C71E" d="M536.796,140.454c-1.025-1.379-2.168-2.771-3.389-4.15l-1.799-2.062v26.478
	c1.011,3.691,0.906,7.026-0.368,9.798c-2.85,6.213-11.492,9.759-23.719,9.759c-11.151,0-24.088-3.1-36.394-8.76
	c-26.228-12.044-44.183-33.649-38.404-46.244c0.735-1.576,1.891-3.008,3.401-4.256v-16.194l-1.011,0.433
	c-7.184,3.1-12.465,7.986-15.275,14.106c-9.391,20.462,10.521,49.042,45.378,65.052c14.119,6.475,29.144,10.048,42.304,10.048
	c18.006,0,31.337-6.581,36.617-18.033C548.957,165.921,546.344,153.142,536.796,140.454"/>
</svg>
