<?xml version="1.0" encoding="utf-8"?>
<!-- Generator: Adobe Illustrator 27.2.0, SVG Export Plug-In . SVG Version: 6.00 Build 0)  -->
<svg version="1.1" id="레이어_1" xmlns="http://www.w3.org/2000/svg" xmlns:xlink="http://www.w3.org/1999/xlink" x="0px"
	 y="0px" viewBox="0 0 720 248.332" enable-background="new 0 0 720 248.332" xml:space="preserve">
<path fill="#00A051" d="M227.416,105.045c0.379-10.392-10.421-17.456-11.189-17.978c-4.115-2.778-9.179-4.143-15.01-4.143
	c-4.419,0-8.875,1.536-12.564,4.343c-3.888,2.968-6.647,7.064-7.984,11.862c-0.806,2.446-9.662,29.337-15.589,47.818
	c-5.907-18.386-14.081-43.153-14.811-45.372c-1.356-4.883-4.172-9.046-8.145-12.061c-0.427-0.332-0.844-0.616-1.299-0.91
	c-0.503-0.465-1.034-0.92-1.583-1.337c-3.679-2.807-8.145-4.343-12.545-4.343c-5.841,0-11.274,1.603-15.295,4.504
	c-4.893,3.518-7.605,8.705-7.851,15.01c0,0.057-0.009,0.114-0.009,0.171v98.073c0,1.09,0.379,2.114,1.043,2.873h-0.009l2.551,3.091
	l0.228,0.265c0.834,0.711,1.887,1.157,3.072,1.157h20.434c2.617,0,4.751-2.133,4.751-4.769v-47.192
	c5.196,16.897,9.899,31.651,10.497,33.149c3.385,9.7,10.876,18.054,20.453,18.092c4.656,0.029,9.008-2.067,12.583-5.964
	c2.892-3.139,4.675-6.808,5.689-9.321c0.996-2.513,5.168-15.835,10.535-33.282v41.901c0,1.195,0.645,2.38,1.1,3.082
	c0.455,0.692,2.095,2.57,2.683,3.195c0.569,0.616,1.925,1.109,3.091,1.109h20.424c2.617,0,4.751-2.133,4.751-4.769v-98.073
	C227.416,105.159,227.407,105.102,227.416,105.045"/>
<path fill="#00A051" d="M326.146,121.375c-0.635-0.104-0.759-0.104-0.759-0.104c-0.095,0-0.778-0.038-0.891-0.038h-21.041
	c-2.807,0-5.092,2.181-5.092,4.845v76.909c0,0,0.019,0.616,0.209,1.223c0.171,0.616,0.834,1.811,1.669,2.712
	c0.834,0.901,1.858,0.91,3.214,0.91h21.629c2.826,0,5.101-2.162,5.101-4.845v-76.909
	C330.176,123.015,327.218,121.564,326.146,121.375 M274.687,121.375c-0.654-0.104-0.768-0.104-0.768-0.104
	c-0.095,0-0.787-0.038-0.891-0.038h-21.031c-2.816,0-5.092,2.181-5.092,4.845v76.909c0,0,0.009,0.616,0.199,1.223
	c0.171,0.616,0.834,1.811,1.669,2.712c0.844,0.901,1.859,0.91,3.224,0.91h21.619c2.816,0,5.092-2.162,5.092-4.845v-76.909
	C278.708,123.015,275.749,121.564,274.687,121.375 M273.312,80.63c-3.385-2.285-7.443-3.537-11.739-3.537
	c-10.904,0-19.78,8.638-19.78,19.258c0,5.974,2.826,11.331,7.254,14.868c3.717,4.267,9.254,6.989,15.437,6.989
	c5.528,0,10.696-2.001,14.555-5.633c3.926-3.698,6.087-8.695,6.087-14.081s-2.162-10.383-6.087-14.09
	C277.352,82.821,275.408,81.559,273.312,80.63 M300.147,111.219c3.726,4.267,9.264,6.989,15.456,6.989
	c5.519,0,10.686-2.001,14.526-5.633c3.935-3.698,6.107-8.695,6.107-14.081s-2.171-10.383-6.107-14.09
	c-1.669-1.584-3.613-2.845-5.718-3.783c-3.376-2.276-7.434-3.527-11.71-3.527c-10.923,0-19.808,8.638-19.808,19.258
	C292.893,102.325,295.728,107.683,300.147,111.219"/>
<g>
	<defs>
		<path id="SVGID_1_" d="M185.087,101.015c0,0-18.376,55.603-20.548,63.596v-0.029c0,0-0.01,0.01-0.019,0.019
			c-0.019-0.057-0.104-0.038-0.18-0.009c-0.047,0.019-0.085,0.038-0.085,0.019c-2.171-7.993-20.557-63.596-20.557-63.596
			c-2.228-8.202-9.482-13.038-16.347-13.038c-9.33,0-18.348,4.684-18.755,15.266v97.238h20.32v-79.744c0-0.332,0.531-0.626,0.834,0
			c4.618,15.057,19.031,62.288,20.851,66.858c1.83,4.551,6.296,12.184,13.815,12.184c7.51,0,11.957-7.633,13.768-12.184
			c1.821-4.57,16.243-51.8,20.861-66.858c0.294-0.626,0.825-0.332,0.825,0v79.744h20.32v-97.238
			c-0.408-10.582-9.416-15.266-18.746-15.266C194.55,87.977,187.334,92.813,185.087,101.015"/>
	</defs>
	<clipPath id="SVGID_00000021830630065969183650000014627926939779370121_">
		<use xlink:href="#SVGID_1_"  overflow="visible"/>
	</clipPath>
	
		<linearGradient id="SVGID_00000071556232570251325660000017111816244007015853_" gradientUnits="userSpaceOnUse" x1="189.3344" y1="245.4448" x2="198.8165" y2="245.4448" gradientTransform="matrix(0 14.7444 14.7444 0 -3454.5515 -2717.1355)">
		<stop  offset="0" style="stop-color:#FFFFFF"/>
		<stop  offset="0.191" style="stop-color:#FFFFFF"/>
		<stop  offset="0.5344" style="stop-color:#ECF5E8"/>
		<stop  offset="0.6236" style="stop-color:#E6F2E1"/>
		<stop  offset="0.7544" style="stop-color:#BEE0B5"/>
		<stop  offset="1" style="stop-color:#6CBB5A"/>
	</linearGradient>
	
		<rect x="108.595" y="87.977" clip-path="url(#SVGID_00000021830630065969183650000014627926939779370121_)" fill="url(#SVGID_00000071556232570251325660000017111816244007015853_)" width="111.594" height="112.504"/>
</g>
<path fill="#FFFFFF" d="M246.452,96.002c0,8.259,6.969,14.982,15.541,14.982c8.923,0,15.911-6.59,15.911-14.982
	c0-8.429-6.988-15.01-15.911-15.01C253.421,80.992,246.452,87.714,246.452,96.002"/>
<path fill="#FFFFFF" d="M297.564,96.002c0,8.259,6.969,14.982,15.541,14.982c8.913,0,15.901-6.59,15.901-14.982
	c0-8.429-6.988-15.01-15.901-15.01C304.533,80.992,297.564,87.714,297.564,96.002"/>
<g>
	<defs>
		<rect id="SVGID_00000050653219736361559360000007201727894651358863_" x="251.736" y="125.791" width="20.073" height="75.05"/>
	</defs>
	<clipPath id="SVGID_00000032647887240346023460000003045288842590318481_">
		<use xlink:href="#SVGID_00000050653219736361559360000007201727894651358863_"  overflow="visible"/>
	</clipPath>
	
		<linearGradient id="SVGID_00000083066366596631592560000006721981602308612027_" gradientUnits="userSpaceOnUse" x1="189.3567" y1="251.3529" x2="198.8387" y2="251.3529" gradientTransform="matrix(0 14.7443 14.7443 0 -3444.2593 -2717.0801)">
		<stop  offset="0" style="stop-color:#FFFFFF"/>
		<stop  offset="0.191" style="stop-color:#FFFFFF"/>
		<stop  offset="0.5344" style="stop-color:#ECF5E8"/>
		<stop  offset="0.6236" style="stop-color:#E6F2E1"/>
		<stop  offset="0.7544" style="stop-color:#BEE0B5"/>
		<stop  offset="1" style="stop-color:#6CBB5A"/>
	</linearGradient>
	
		<rect x="251.736" y="125.791" clip-path="url(#SVGID_00000032647887240346023460000003045288842590318481_)" fill="url(#SVGID_00000083066366596631592560000006721981602308612027_)" width="20.073" height="75.05"/>
</g>
<g>
	<defs>
		<rect id="SVGID_00000019678210436191250820000012539465499547957652_" x="302.844" y="125.791" width="20.064" height="75.05"/>
	</defs>
	<clipPath id="SVGID_00000171695894359751892590000002369661491980441481_">
		<use xlink:href="#SVGID_00000019678210436191250820000012539465499547957652_"  overflow="visible"/>
	</clipPath>
	
		<linearGradient id="SVGID_00000181794780625905586180000001379915198471467173_" gradientUnits="userSpaceOnUse" x1="189.3567" y1="254.4532" x2="198.8387" y2="254.4532" gradientTransform="matrix(0 14.7443 14.7443 0 -3438.8689 -2717.0801)">
		<stop  offset="0" style="stop-color:#FFFFFF"/>
		<stop  offset="0.191" style="stop-color:#FFFFFF"/>
		<stop  offset="0.5344" style="stop-color:#ECF5E8"/>
		<stop  offset="0.6236" style="stop-color:#E6F2E1"/>
		<stop  offset="0.7544" style="stop-color:#BEE0B5"/>
		<stop  offset="1" style="stop-color:#6CBB5A"/>
	</linearGradient>
	
		<rect x="302.844" y="125.791" clip-path="url(#SVGID_00000171695894359751892590000002369661491980441481_)" fill="url(#SVGID_00000181794780625905586180000001379915198471467173_)" width="20.064" height="75.05"/>
</g>
<path fill="#00A051" d="M264.652,93.027c0,1.403,1.166,2.532,2.579,2.532c1.403-0.019,2.541-1.185,2.513-2.589
	c-0.009-1.413-1.166-2.551-2.57-2.532C265.762,90.448,264.624,91.614,264.652,93.027"/>
<path fill="#00A051" d="M253.91,93.135c0.028,1.403,1.185,2.56,2.589,2.513c1.403,0,2.541-1.166,2.522-2.56
	c-0.009-1.413-1.176-2.541-2.579-2.541C255.029,90.575,253.891,91.722,253.91,93.135"/>
<path fill="#00A051" d="M264.986,99.135c-3.186,2.409-5.708,0.417-5.983,0.171c-0.721-0.607-1.792-0.531-2.408,0.19
	c-0.616,0.702-0.55,1.773,0.152,2.389c1.64,1.451,5.907,3.319,10.307,0c0.749-0.578,0.901-1.64,0.322-2.389
	C266.816,98.728,265.745,98.576,264.986,99.135"/>
<path fill="#00A051" d="M315.939,90.544c0.009,1.403,1.166,2.541,2.579,2.532c1.403-0.019,2.541-1.185,2.532-2.579
	c-0.028-1.413-1.185-2.551-2.598-2.541C317.048,87.974,315.92,89.131,315.939,90.544"/>
<path fill="#00A051" d="M305.205,90.66c0.019,1.413,1.176,2.551,2.579,2.522c1.413,0,2.551-1.176,2.532-2.579
	c-0.019-1.403-1.176-2.541-2.579-2.522C306.324,88.1,305.186,89.247,305.205,90.66"/>
<path fill="#00A051" d="M316.464,102.644c-3.177,2.39-5.699,0.389-5.983,0.161c-0.721-0.616-1.792-0.531-2.408,0.18
	c-0.616,0.702-0.55,1.764,0.142,2.39c1.65,1.451,5.907,3.309,10.307,0c0.759-0.569,0.91-1.64,0.341-2.39
	C318.294,102.217,317.213,102.066,316.464,102.644"/>
<path fill="#00A051" d="M646.733,102.211c9.283,9.748,13.73,21.05,9.89,25.232c-3.812,4.182-14.46-0.341-23.753-10.098
	c-9.273-9.757-9.88-25.232-9.88-25.232S637.45,92.454,646.733,102.211"/>
<path fill="#00A051" d="M667.451,103.161c-9.397,8.904-13.977,19.78-10.212,24.312c3.774,4.523,14.46,0.986,23.876-7.908
	c9.397-8.904,10.193-24.321,10.193-24.321S676.867,94.257,667.451,103.161"/>
<path fill="#00A051" d="M659.884,165.756l0.246-39.189c0-0.692-0.54-1.271-1.233-1.309l-3.755-0.18
	c-0.351-0.019-0.702,0.114-0.948,0.36c-0.266,0.247-0.408,0.578-0.408,0.948c0,0-0.266,44.262-0.266,44.281
	c-0.01,0.559,0.351,1.024,0.872,1.233c-0.009,0.009,1.735,0.436,1.877,0.474c46.803,8.847,56.589,20.045,56.551,27.868
	c-0.047,10.62-17.665,25.014-101.316,33.348c-56.475,5.623-136.456,8.003-251.691,7.491c-115.235-0.503-195.197-3.584-251.615-9.7
	c-83.575-9.065-101.06-23.61-101.012-34.24c0.028-7.519,9.179-18.215,52.578-26.588c0.341-0.066,1.83-0.417,2.124-0.569
	c1.394-0.711,1.024-2.029,0.711-3.641c-0.256-1.337-0.436-2.721-1.669-3.101c-0.54-0.161-1.934,0.142-2.522,0.265
	C19.173,171.066,0.067,182.056,0,197.104c-0.152,35.226,104.075,50.037,359.786,51.165c255.693,1.128,360.061-12.782,360.213-47.998
	C720.066,184.787,700.931,173.788,659.884,165.756"/>
<path fill="#00A051" d="M256.525,2.111h15.655v42.935h-9.681v3.537h-5.974V2.111z M262.499,14.323h3.802v-6.77h-3.802V14.323z
	 M262.499,26.641h3.802v-7.244h-3.802V26.641z M262.499,39.489h3.802v-7.557h-3.802V39.489z M296.909,7.345l6.353,0.844
	c-1.09,2.541-2.304,4.798-3.651,6.77h5.604v8.884h-3.859v2.589h2.541v5.282h-2.541v6.135h3.859v5.291h-3.859v6.931h-5.661v-6.931
	h-6.979l1.015-16.707h5.964v-4.238h3.755v-1.897h-20.51v1.271l4.229,0.417c-0.142,0.995-0.303,1.906-0.474,2.759h6.021
	c0,7.785-0.977,13.294-2.958,16.546c-1.83,3.271-4.741,6.154-8.723,8.619l-4.172-4.447c3.176-1.726,5.566-3.537,7.187-5.443
	c-0.844-1.1-1.688-2.171-2.541-3.233c-0.522,0.778-1.09,1.536-1.688,2.276l-2.958-4.864c1.403-1.612,2.56-3.404,3.432-5.329
	c0.645-1.375,1.185-3.053,1.64-5.025h-4.646v-8.884h20.396C295.24,12.626,296.321,10.095,296.909,7.345 M302.892,0.584l2.114,4.646
	c-7.624,1.83-17.788,2.75-30.504,2.75l-1.432-5.073C285.161,2.907,295.108,2.129,302.892,0.584 M281.482,8.881
	c0.948,1.337,1.716,2.959,2.323,4.855l-6.078,0.806c-0.076-1.631-0.578-3.366-1.536-5.234L281.482,8.881z M280.155,32.453
	c0.844,0.853,1.678,1.697,2.494,2.541c0.417-1.546,0.692-3.347,0.834-5.386h-2.114c-0.313,0.872-0.635,1.65-0.948,2.323
	C280.316,32.14,280.23,32.311,280.155,32.453 M291.467,8.189c0.673,1.479,1.233,3.262,1.697,5.339l-6.343,0.796
	c-0.076-1.764-0.379-3.641-0.901-5.661L291.467,8.189z M295.696,37.848v-6.135h-1.688l-0.417,6.135H295.696z"/>
<path fill="#00A051" d="M318.537,22.418v27.65h-6.761V2.117h20.718v20.301H318.537z M326.521,7.351h-7.984v2.75h7.984V7.351z
	 M318.537,17.07h7.984v-2.75h-7.984V17.07z M338.838,2.117h18.405v41.816c0,3.698-1.925,5.547-5.765,5.547h-5.661l-0.635-3.432
	h-22.197V25.168h23.051v17.494c1.754,0.18,2.797,0.266,3.11,0.266c0.891,0,1.327-0.588,1.327-1.745V22.418h-14.65V2.117H338.838z
	 M329.053,33.626h10.791v-3.224h-10.791V33.626z M339.853,37.637h-10.791v3.167h10.791V37.637z M350.472,7.351h-8.723v2.75h8.723
	V7.351z M350.472,14.321h-8.723v2.75h8.723V14.321z"/>
<path fill="#00A051" d="M395.505,22.415l5.926,3.328c-1.972,3.992-4.295,7.405-6.969,10.25c5.063,2.788,11.416,4.883,19.021,6.296
	l-3.859,7.197c-7.254-1.773-14.043-4.694-20.348-8.78c-0.076-0.029-0.123-0.076-0.161-0.104c-5.813,3.869-12.915,6.837-21.306,8.885
	l-3.432-6.988c7.045-0.986,13.408-3.025,19.087-6.125c0.066-0.038,0.123-0.076,0.152-0.104c-2.958-2.788-5.756-6.068-8.411-9.842
	l5.452-3.015c2.608,3.565,5.357,6.514,8.249,8.837C391.551,29.603,393.751,26.322,395.505,22.415 M378.76,12.895l5.329,3.546
	c-3.944,5.319-8.818,9.643-14.64,12.952l-3.755-5.983C370.909,20.424,375.271,16.916,378.76,12.895 M391.438,0
	c0.749,1.792,1.346,3.84,1.802,6.125h18.509v6.087h-45.836V6.125h19.078c-0.427-1.479-0.929-2.959-1.527-4.438L391.438,0z
	 M398.843,12.63c5.073,3.461,9.662,7.349,13.749,11.682l-6.078,4.656c-3.006-3.945-7.434-8.117-13.332-12.526L398.843,12.63z"/>
<path fill="#00A051" d="M440.343,5.654h3.338V0.363h6.344v5.291h5.974V0.363h6.344v5.291h3.745v5.974h-3.745v5.016h5.073v5.983
	h-27.498v5.025h-7.235v13.057c2.541-0.465,5.025-1.015,7.443-1.64v5.765c-6.087,1.546-12.858,2.864-20.301,3.954l-1.1-6.068
	c2.75-0.256,5.443-0.607,8.088-1.062V27.652h-7.671V22.2h7.671v-3.432h-5.547v-2.171c-0.749,0.74-1.517,1.47-2.333,2.171
	l-1.432-7.358c3.423-2.921,6.381-6.533,8.885-10.828h6.088c3.101,2.437,5.727,4.826,7.87,7.187V5.654z M424.271,29.387
	c0.673,2.864,1.214,6.296,1.64,10.307l-5.443,0.692c-0.076-3.281-0.36-6.818-0.853-10.62L424.271,29.387z M424.271,13.533h11.691
	c-1.83-2.816-3.85-5.376-6.031-7.671C428.348,8.508,426.462,11.068,424.271,13.533 M432.682,18.768V22.2h6.344v-5.556h4.656v-5.016
	h-3.338v-2.38l-3.271,4.286h0.73v5.234H432.682z M435.27,28.487l4.646,0.692c-0.313,3.527-0.948,6.694-1.896,9.52l-4.864-1.536
	C434.142,35.077,434.844,32.194,435.27,28.487 M465.091,24.95v24.738h-6.343v-2.323h-11.056v2.323h-6.334V24.95H465.091z
	 M447.692,33.626h11.056v-3.224h-11.056V33.626z M447.692,41.818h11.056v-3.338h-11.056V41.818z M450.024,16.644h5.974v-5.016
	h-5.974V16.644z"/>
<path fill="#00A051" d="M603.864,134.604V98.24c0-5.158-2.058-7.216-7.216-7.216h-56.086c-2.655,0-4.807,2.162-4.807,4.807v26.758
	c-0.465-2.465-2.57-5.471-6.884-5.471h-2.655V97.112c0-5.158-2.048-7.216-7.216-7.216H504.71c-2.665,0-4.807,2.153-4.807,4.817
	v22.406h-4.95c-2.665,0-4.807,2.153-4.807,4.808v14.308c0,4.191,5.253,7.216,7.216,7.216h2.541v18.092l-7.406,0.541
	c-2.494,0.18-4.438,2.257-4.457,4.769l-0.104,16.432c-0.019,1.384,0.569,2.693,1.593,3.613c0.37,0.332,1.897,1.953,2.409,2.408
	c0.882,0.796,2.029,1.223,3.214,1.223c0.18,0,0.37,0,0.56-0.029l33.794-3.982l-0.066,2.92c0,2.57,3.831,6.078,4.627,6.59
	c0.796,0.493,1.688,0.749,2.589,0.749c0.73,0,1.47-0.171,2.143-0.512c2.494-1.242,4.864-2.494,7.093-3.745l-0.161,7.709
	c0,3.508,3.897,6.125,4.76,6.647c0.759,0.436,1.603,0.664,2.456,0.664c0.825,0,1.659-0.208,2.399-0.635
	c3.869-2.228,7.586-4.665,10.98-7.13c0.218,0.929,0.702,1.792,1.432,2.456c0.37,0.341,1.916,1.953,2.399,2.399
	c0.891,0.825,2.058,1.28,3.262,1.28c0.095,0,0.19,0,0.275-0.009c2.892-0.171,5.537-0.256,7.88-0.341
	c9.681-0.341,16.082-0.578,20.529-5.338c5.462-5.888,5.613-16.3,4.656-42.432c-0.01-0.379-0.076-0.768-0.171-1.128
	c1.46-0.825,2.446-2.389,2.446-4.191v-11.113C609.031,137.42,607.325,135.913,603.864,134.604"/>
<path fill="#00A051" d="M471.248,94.16h-35.577c-1.033-4.712-1.233-6.182-7.102-6.182h-13.787c-2.664,0-4.817,2.152-4.817,4.807
	v1.375h-39.654c-2.664,0-4.807,2.153-4.807,4.808v40.773c0,8.449-0.493,15.977-1.64,25.194c-0.92,7.149-4.172,22.861-6.96,32.353
	c-0.427,1.46-0.142,3.025,0.759,4.248c0.493,0.654,2.2,2.115,2.408,2.408c0.91,1.204,2.333,1.925,3.85,1.925h13.559
	c2.029,0,3.85-1.29,4.532-3.205c0.36-0.996,0.673-1.972,0.996-2.958l0.607,1.394c0.493,1.138,4.959,5.301,6.818,5.301
	c0.341,0,0.683-0.029,1.034-0.104c6.277-1.375,12.042-2.883,17.153-4.504c5.357-1.603,10.269-3.613,14.574-5.974
	c1.29-0.702,2.181-1.953,2.437-3.395c0.123-0.74,0.076-1.489-0.133-2.2h4.978c0.408,1.223,3.821,4.741,4.845,5.234
	c4.731,2.285,9.804,4.428,15.057,6.362c4.457,1.707,9.198,3.196,14.033,4.428c0.398,0.104,0.797,0.152,1.185,0.152
	c1.697,0,3.3-0.901,4.172-2.418l6.543-11.416c0.787-1.375,0.853-3.044,0.171-4.476c-0.502-1.033-1.337-1.83-2.371-2.295
	c-0.009-0.038-0.019-0.066-0.038-0.104c-0.237-0.493-0.559-0.901-0.929-1.27v-29.736h0.417c2.664,0,4.817-2.152,4.817-4.817v-9.397
	c0-5.158-2.058-7.216-7.225-7.216h-11.682v-1.982h13.616c2.664,0,4.807-2.162,4.807-4.817v-9.264c0-0.559-0.076-1.081-0.256-1.574
	c0.531-0.777,0.825-1.707,0.825-2.712v-11.53C478.464,96.218,476.416,94.16,471.248,94.16"/>
<g>
	<defs>
		<polygon id="SVGID_00000095331811131746219620000015059656759609546418_" points="504.707,94.709 504.707,121.932 494.95,121.932 
			494.95,136.231 504.707,136.231 504.707,166.014 492.855,166.877 492.741,183.319 528.943,179.052 528.906,179.052 
			528.906,163.027 518.997,164.004 518.997,136.231 528.868,136.231 528.868,121.932 518.997,121.932 518.997,94.709 		"/>
	</defs>
	<clipPath id="SVGID_00000000934261241641826600000012490429645576629378_">
		<use xlink:href="#SVGID_00000095331811131746219620000015059656759609546418_"  overflow="visible"/>
	</clipPath>
	
		<linearGradient id="SVGID_00000145767543889216629480000012191036027980452230_" gradientUnits="userSpaceOnUse" x1="191.7755" y1="269.3131" x2="201.2575" y2="269.3131" gradientTransform="matrix(0 12.0074 12.0074 0 -2722.896 -2212.4729)">
		<stop  offset="0" style="stop-color:#FFFFFF"/>
		<stop  offset="0.191" style="stop-color:#FFFFFF"/>
		<stop  offset="0.5344" style="stop-color:#ECF5E8"/>
		<stop  offset="0.6236" style="stop-color:#E6F2E1"/>
		<stop  offset="0.7544" style="stop-color:#BEE0B5"/>
		<stop  offset="1" style="stop-color:#6CBB5A"/>
	</linearGradient>
	
		<rect x="492.741" y="94.709" clip-path="url(#SVGID_00000000934261241641826600000012490429645576629378_)" fill="url(#SVGID_00000145767543889216629480000012191036027980452230_)" width="36.202" height="88.61"/>
</g>
<g>
	<defs>
		<path id="SVGID_00000062913824689213648790000004208090284629547197_" d="M554.801,118.566h27.602v5.86h-27.602V118.566z
			 M554.801,105.092h27.602v5.822h-27.602V105.092z M540.559,134.126h56.096V95.838h-56.096V134.126z"/>
	</defs>
	<clipPath id="SVGID_00000014613532753727715560000009314813609619797904_">
		<use xlink:href="#SVGID_00000062913824689213648790000004208090284629547197_"  overflow="visible"/>
	</clipPath>
	
		<linearGradient id="SVGID_00000058581288650366611770000006810852710638340282_" gradientUnits="userSpaceOnUse" x1="191.7734" y1="273.6129" x2="201.2554" y2="273.6129" gradientTransform="matrix(0 12.0096 12.0096 0 -2717.374 -2212.886)">
		<stop  offset="0" style="stop-color:#FFFFFF"/>
		<stop  offset="0.191" style="stop-color:#FFFFFF"/>
		<stop  offset="0.5344" style="stop-color:#ECF5E8"/>
		<stop  offset="0.6236" style="stop-color:#E6F2E1"/>
		<stop  offset="0.7544" style="stop-color:#BEE0B5"/>
		<stop  offset="1" style="stop-color:#6CBB5A"/>
	</linearGradient>
	
		<rect x="540.559" y="95.838" clip-path="url(#SVGID_00000014613532753727715560000009314813609619797904_)" fill="url(#SVGID_00000058581288650366611770000006810852710638340282_)" width="56.096" height="38.289"/>
</g>
<g>
	<defs>
		<path id="SVGID_00000099646442334566534020000011360349551541045684_" d="M533.296,138.952v11.104h11.909
			c-2.333,2.788-8.022,5.964-10.43,7.586v14.337c0.493-0.275,7.974-3.802,10.554-6.258h5.879c-3.717,3.518-7.121,8.316-16.65,10.8
			l-0.313,13.038c11.805-5.888,25.611-14.413,30.589-23.838h5.215c-4.409,9.074-9.406,12.763-19.192,19.267l-0.322,15.332
			c7.899-4.542,15.039-9.861,19.533-14.327c0.692-0.92,10.895-14.46,10.639-19.988c1.479-0.076,5.547-0.019,5.623-0.019
			c0-0.085,0-0.171,0.019-0.266c0,0.133,0,0.227,0.009,0.36c0.114,0.92,1.299,16.527-1.915,19.249
			c-2.247,1.915-7.832,1.896-11.388,1.887c-0.948-0.01-1.754-0.01-2.314,0.019l0.275,11.464c28.361-1.64,30.248,3.707,28.522-43.134
			h-43.892l5.329-5.443l40.839-0.066v-11.104H533.296z"/>
	</defs>
	<clipPath id="SVGID_00000065787755189959325990000017326920725986380172_">
		<use xlink:href="#SVGID_00000099646442334566534020000011360349551541045684_"  overflow="visible"/>
	</clipPath>
	
		<linearGradient id="SVGID_00000085959836648497126270000011761857755045972368_" gradientUnits="userSpaceOnUse" x1="191.7755" y1="273.5381" x2="201.2575" y2="273.5381" gradientTransform="matrix(0 12.0074 12.0074 0 -2716.915 -2212.4729)">
		<stop  offset="0" style="stop-color:#FFFFFF"/>
		<stop  offset="0.191" style="stop-color:#FFFFFF"/>
		<stop  offset="0.5344" style="stop-color:#ECF5E8"/>
		<stop  offset="0.6236" style="stop-color:#E6F2E1"/>
		<stop  offset="0.7544" style="stop-color:#BEE0B5"/>
		<stop  offset="1" style="stop-color:#6CBB5A"/>
	</linearGradient>
	
		<rect x="533.296" y="138.952" clip-path="url(#SVGID_00000065787755189959325990000017326920725986380172_)" fill="url(#SVGID_00000085959836648497126270000011761857755045972368_)" width="68.517" height="63.454"/>
</g>
<g>
	<defs>
		<path id="SVGID_00000045580479507644636820000002987744300726101667_" d="M401.353,170.528h19.021v2.503h-19.021V170.528z
			 M432.748,170.528h20.453v2.503h-20.453V170.528z M401.353,159.225h19.021v2.257h-19.021V159.225z M432.748,159.225h20.453v2.257
			h-20.453V159.225z M388.514,150.321v32.685h16.29c-1.83,0.635-3.812,1.233-5.955,1.783c-4.523,1.271-9.71,2.418-15.569,3.452
			l4.75,10.942c6.192-1.346,11.767-2.816,16.774-4.4c5.064-1.508,9.634-3.375,13.673-5.594l-5.471-6.182h26.995l-4.997,5.708
			c4.599,2.219,9.473,4.286,14.621,6.182c4.371,1.669,8.885,3.101,13.559,4.286l6.552-11.416c-4.523-0.721-9.169-1.621-13.92-2.731
			c-2.702-0.635-5.31-1.309-7.842-2.029h17.94v-32.685H388.514z M385.063,147.467h86.097v-9.397h-86.097V147.467z M414.552,124.056
			h24.729v3.205h-24.729V124.056z M439.291,111.938v2.854h-24.739v-2.854h-12.725v2.854h-16.3v9.264h16.3v11.047h50.426v-11.047
			h18.433v-9.264h-18.433v-2.854H439.291z M414.78,92.784v6.182h-44.471v40.763c0,9.046-0.55,16.84-1.659,25.801
			c-0.958,7.292-4.201,23.127-7.13,33.121h13.55c2.93-8.249,5.035-16.243,6.296-24.084c1.517-9.833,2.276-18.784,2.276-29.243
			v-34.809h87.605V98.967h-42.679v-6.182H414.78z"/>
	</defs>
	<clipPath id="SVGID_00000089567832277029816760000005960310183634911907_">
		<use xlink:href="#SVGID_00000045580479507644636820000002987744300726101667_"  overflow="visible"/>
	</clipPath>
	
		<linearGradient id="SVGID_00000053517008496785900600000014213583151569776530_" gradientUnits="userSpaceOnUse" x1="192.142" y1="262.5573" x2="201.6241" y2="262.5573" gradientTransform="matrix(0 11.6141 11.6141 0 -2632.9941 -2140.0789)">
		<stop  offset="0" style="stop-color:#FFFFFF"/>
		<stop  offset="0.191" style="stop-color:#FFFFFF"/>
		<stop  offset="0.5344" style="stop-color:#ECF5E8"/>
		<stop  offset="0.6236" style="stop-color:#E6F2E1"/>
		<stop  offset="0.7544" style="stop-color:#BEE0B5"/>
		<stop  offset="1" style="stop-color:#6CBB5A"/>
	</linearGradient>
	
		<rect x="361.519" y="92.785" clip-path="url(#SVGID_00000089567832277029816760000005960310183634911907_)" fill="url(#SVGID_00000053517008496785900600000014213583151569776530_)" width="109.726" height="106.398"/>
</g>
<g>
</g>
<g>
</g>
<g>
</g>
<g>
</g>
<g>
</g>
<g>
</g>
<g>
</g>
<g>
</g>
<g>
</g>
<g>
</g>
<g>
</g>
<g>
</g>
<g>
</g>
<g>
</g>
<g>
</g>
</svg>
