<?xml version="1.0" encoding="utf-8"?>
<!-- Generator: Adobe Illustrator 27.2.0, SVG Export Plug-In . SVG Version: 6.00 Build 0)  -->
<svg version="1.1" id="레이어_1" xmlns="http://www.w3.org/2000/svg" xmlns:xlink="http://www.w3.org/1999/xlink" x="0px"
	 y="0px" viewBox="0 0 720 255.173" enable-background="new 0 0 720 255.173" xml:space="preserve">
<path fill="#009F50" d="M220.276,104.877c0.418-10.915-10.915-18.299-11.742-18.853c-4.29-2.918-9.612-4.348-15.74-4.348
	c-4.621,0-9.31,1.615-13.182,4.553c-4.096,3.094-6.975,7.403-8.386,12.443c-0.837,2.578-10.147,30.78-16.363,50.169
	c-6.177-19.262-14.758-45.266-15.507-47.601c-1.45-5.117-4.407-9.485-8.551-12.647c-0.457-0.36-0.905-0.652-1.372-0.953
	c-0.545-0.496-1.08-0.963-1.673-1.411c-3.852-2.938-8.541-4.553-13.162-4.553c-6.119,0-11.82,1.663-16.052,4.728
	c-5.117,3.687-7.967,9.125-8.24,15.75v0.166v102.915c0,1.138,0.409,2.218,1.09,3.016h-0.01l2.675,3.24l0.243,0.273
	c0.856,0.768,1.985,1.226,3.23,1.226h21.441c2.753,0,4.991-2.237,4.991-4.991V158.47c5.448,17.725,10.38,33.203,10.993,34.779
	c3.561,10.176,11.421,18.941,21.49,18.99c4.864,0.029,9.427-2.179,13.172-6.265c3.035-3.298,4.922-7.141,5.983-9.777
	c1.041-2.646,5.409-16.616,11.051-34.934v43.972c0,1.245,0.681,2.5,1.167,3.23c0.477,0.74,2.189,2.705,2.792,3.356
	c0.632,0.642,2.023,1.167,3.24,1.167h21.441c2.763,0,4.981-2.237,4.981-4.991V105.062
	C220.276,105.023,220.266,104.945,220.276,104.877"/>
<path fill="#009F50" d="M323.898,122.037c-0.691-0.136-0.808-0.136-0.808-0.136c-0.107,0-0.817-0.029-0.924-0.029h-22.093
	c-2.938,0-5.341,2.277-5.341,5.088v80.686c0,0,0.029,0.662,0.214,1.294c0.175,0.652,0.876,1.907,1.751,2.831
	c0.885,0.963,1.955,0.963,3.376,0.963h22.686c2.967,0,5.351-2.257,5.351-5.078v-80.696
	C328.101,123.739,324.988,122.202,323.898,122.037 M269.887,122.037c-0.661-0.136-0.817-0.136-0.817-0.136
	c-0.097,0-0.807-0.029-0.924-0.029h-22.073c-2.948,0-5.341,2.277-5.341,5.088v80.686c0,0,0.029,0.662,0.204,1.294
	c0.185,0.652,0.885,1.907,1.771,2.831c0.866,0.963,1.926,0.963,3.366,0.963h22.706c2.938,0,5.321-2.257,5.321-5.078v-80.696
	C274.099,123.739,270.986,122.202,269.887,122.037 M268.437,79.261c-3.541-2.393-7.792-3.697-12.287-3.697
	c-11.46,0-20.78,9.067-20.78,20.196c0,6.275,2.967,11.898,7.598,15.604c3.911,4.475,9.718,7.335,16.227,7.335
	c5.798,0,11.217-2.101,15.254-5.905c4.125-3.891,6.392-9.135,6.392-14.767c0-5.662-2.267-10.915-6.392-14.806
	C272.679,81.557,270.646,80.244,268.437,79.261 M296.611,111.365c3.901,4.475,9.718,7.335,16.227,7.335
	c5.779,0,11.197-2.101,15.234-5.905c4.125-3.891,6.411-9.135,6.411-14.767c0-5.662-2.286-10.915-6.411-14.806
	c-1.761-1.664-3.804-2.977-6.012-3.969c-3.541-2.383-7.802-3.687-12.287-3.687c-11.46,0-20.77,9.067-20.77,20.196
	C289.003,102.035,291.97,107.658,296.611,111.365"/>
<path fill="#009F50" d="M486.12,158.32c0.808,0.788,1.926,1.275,3.142,1.275c15.536,0,26.305-4.008,34.954-12.987
	c0.973-1.002,1.955-2.393,2.763-3.784c0.185,0.195,0.37,0.389,0.554,0.593c2.568,2.86,6.742,6.129,8.425,7.316
	c-27.103,1.041-44.4,12.404-44.4,29.545c0,6.537,2.539,12.248,7.16,16.849l3.317,2.987c8.172,7.802,22.492,12.336,40.898,12.336
	c29.914,0,48.496-11.343,48.496-29.623c0-7.85-3.424-14.417-9.719-19.369h5.166c2.51,0,4.553-2.033,4.553-4.543v-24.048h5.72
	c2.529,0,4.562-2.053,4.562-4.553v-18.396c0-1.284-0.535-2.423-1.381-3.259l-2.87-2.578c-0.827-0.778-1.936-1.284-3.162-1.284h-2.87
	V89.959c0-1.274-0.516-2.412-1.362-3.24l-2.918-2.627c-0.807-0.769-1.897-1.255-3.133-1.255h-16.227
	c-2.257,0-4.135,1.654-4.504,3.804c-0.768-1.42-2.277-2.383-4.008-2.383h-70.452c-2.51,0-4.553,2.043-4.553,4.553v15.556
	c0,1.284,0.516,2.432,1.372,3.249l2.87,2.578c0.817,0.798,1.926,1.284,3.162,1.284h16.451c-0.808,6.09-2.656,11.411-5.535,14.359
	c-3.687,3.833-10.049,6.294-16.178,6.294c-2.52,0-4.553,2.033-4.553,4.563v15.779c0,1.284,0.525,2.432,1.372,3.259L486.12,158.32z
	 M543.595,111.478h18.542c0.379,0,0.749-0.058,1.08-0.136v20.147c-6.605-0.36-11.898-2.782-14.388-4.718
	C546.319,124.806,544.13,118.366,543.595,111.478 M525.491,182.825c0-2.169,6.216-5.292,17.443-5.292
	c6.8,0,11.703,1.109,14.534,2.461c0.01,0.097,0.039,0.185,0.039,0.282c0,2.209-6.051,5.273-17.433,5.273
	c-6.742,0-11.674-1.129-14.524-2.5C525.52,182.981,525.491,182.904,525.491,182.825"/>
<path fill="#009F50" d="M478.572,109.155l-2.928-2.636c-0.817-0.759-1.907-1.216-3.113-1.235h-2.734V90.438
	c0-1.284-0.525-2.422-1.372-3.249l-2.957-2.656c-0.798-0.749-1.878-1.207-3.074-1.207h-16.188c-2.529,0-4.572,2.043-4.572,4.553
	v2.13c-0.243-0.545-0.593-1.031-1.002-1.43l-2.938-2.627c-0.798-0.749-1.887-1.216-3.074-1.216h-67.738
	c-2.52,0-4.563,2.053-4.563,4.553v15.565c0,1.275,0.535,2.412,1.352,3.23l2.909,2.617c0.827,0.778,1.926,1.264,3.152,1.264h42.678
	c-0.564,6.08-1.975,12.968-4.057,16.733v-8.57c0-1.275-0.525-2.423-1.372-3.249l-2.919-2.636c-0.837-0.759-1.926-1.235-3.123-1.235
	H382.7c-2.52,0-4.572,2.053-4.572,4.572v13.376h-16.781c-2.52,0-4.572,2.043-4.572,4.563v14.077c0,1.206,0.486,2.383,1.342,3.23
	l2.85,2.539c0.876,0.866,2.014,1.342,3.23,1.342h22.706c-10.759,5.146-16.956,13.308-16.956,23.572
	c0,6.654,2.597,12.433,7.393,17.083l3.142,2.831c8.182,7.734,22.463,12.258,40.82,12.258c29.914,0,48.496-11.343,48.496-29.623
	c0-7.889-3.463-14.475-9.777-19.408c-0.72-0.749-1.498-1.459-2.335-2.14h7.549c2.529,0,4.562-2.023,4.562-4.563v-21.373h5.574
	c2.52,0,4.563-2.043,4.563-4.563v-18.377C479.934,111.13,479.409,109.982,478.572,109.155 M418.442,185.551
	c-6.751,0-11.664-1.128-14.534-2.5c-0.01-0.078-0.039-0.146-0.039-0.224c0-2.169,6.207-5.292,17.433-5.292
	c6.8,0,11.684,1.109,14.524,2.461c0.019,0.097,0.059,0.185,0.059,0.282C435.885,182.487,429.814,185.551,418.442,185.551"/>
<path fill="#009F50" d="M307.372,32.874h-9.232V18.602h-6.109c-2.101,5.808-8.386,10.156-15.769,10.156
	c-21.5,0-21.5-28.757,0-28.757c7.812,0,14.271,4.699,16.013,11.061h5.866V0.372h9.232V32.874z M308.899,52.739
	c-13.834,0.36-20.78-4.28-23.027-8.279c-1.926,3.872-9.057,8.59-23.017,8.279v-7.792c11.907,0.301,18.007-4.533,18.484-13.941
	l9.193,0.039c0.73,9.203,6.537,14.437,18.367,13.902V52.739z M276.261,21.093c9.68,0,9.68-13.493,0-13.493
	C266.776,7.6,266.776,21.093,276.261,21.093"/>
<path fill="#009F50" d="M367.359,0.672c0,19.69-16.674,24.778-31.364,25.498v-7.491c12.394-0.438,19.028-5.321,20.721-10.516
	h-18.902V0.672H367.359z M382.146,52.932H346.56c-4.893,0-7.481-2.909-7.481-6.829v-8.989h33.893v-2.646h-33.893v-6.868h43.067
	v15.818h-33.883v2.588h33.883V52.932z M388.791,17.949h-6.645v7.958h-9.242V0.37h9.242v10.039h6.645V17.949z"/>
<path fill="#009F50" d="M450.98,30.411v-0.837h-28.572c-4.893,0-8.036-3.512-8.036-7.501V11.654h22.288V7.403h-22.288V0.37h31.413
	v17.842h-22.287v4.251h27.482V0h9.251v30.411H450.98z M422.534,52.562c-3.804,0-6.829-3.084-6.829-6.352V32.172h44.526v20.39
	H422.534z M450.98,39.721h-26.101v5.224h26.101V39.721z"/>
<g>
	<defs>
		<path id="SVGID_1_" d="M175.874,100.658c0,0-19.291,58.341-21.577,66.726v-0.019c0,0,0,0.009-0.01,0.019
			c-0.029-0.068-0.107-0.039-0.175-0.01c-0.058,0.01-0.107,0.029-0.117,0.01c-2.267-8.386-21.558-66.726-21.558-66.726
			c-2.344-8.609-9.933-13.688-17.161-13.688c-9.787,0-19.233,4.922-19.69,16.023v102.04h21.334v-83.692c0-0.35,0.564-0.652,0.885,0
			c4.845,15.799,19.962,65.374,21.879,70.16c1.907,4.786,6.605,12.773,14.476,12.773c7.909,0,12.559-7.987,14.476-12.773
			c1.926-4.786,17.024-54.362,21.869-70.16c0.331-0.652,0.885-0.35,0.885,0v83.692h21.315v-102.04
			c-0.428-11.1-9.884-16.023-19.671-16.023C185.816,86.971,178.228,92.049,175.874,100.658"/>
	</defs>
	<clipPath id="SVGID_00000127024799282332165290000003527253314842983569_">
		<use xlink:href="#SVGID_1_"  overflow="visible"/>
	</clipPath>
	
		<linearGradient id="SVGID_00000035523347968986392510000014438488833770447006_" gradientUnits="userSpaceOnUse" x1="190.7554" y1="244.2212" x2="200.4837" y2="244.2212" gradientTransform="matrix(0 15.0806 15.0806 0 -3528.855 -2803.884)">
		<stop  offset="0" style="stop-color:#FFFFFF"/>
		<stop  offset="0.2528" style="stop-color:#FFFFFF"/>
		<stop  offset="0.6124" style="stop-color:#E5F1E0"/>
		<stop  offset="1" style="stop-color:#6CBA5A"/>
	</linearGradient>
	
		<rect x="95.586" y="86.971" clip-path="url(#SVGID_00000127024799282332165290000003527253314842983569_)" fill="url(#SVGID_00000035523347968986392510000014438488833770447006_)" width="117.119" height="118.062"/>
</g>
<path fill="#FFFFFF" d="M240.264,95.394c0,8.678,7.316,15.731,16.314,15.731c9.349,0,16.684-6.926,16.684-15.731
	c0-8.843-7.335-15.75-16.684-15.75C247.58,79.644,240.264,86.688,240.264,95.394"/>
<path fill="#FFFFFF" d="M293.884,95.394c0,8.678,7.325,15.731,16.314,15.731c9.359,0,16.694-6.926,16.694-15.731
	c0-8.843-7.335-15.75-16.694-15.75C301.209,79.644,293.884,86.688,293.884,95.394"/>
<g>
	<defs>
		<rect id="SVGID_00000118367135489127252200000012757579499183371678_" x="245.801" y="126.652" width="21.062" height="78.76"/>
	</defs>
	<clipPath id="SVGID_00000132807002430202137230000006761900404235122346_">
		<use xlink:href="#SVGID_00000118367135489127252200000012757579499183371678_"  overflow="visible"/>
	</clipPath>
	
		<linearGradient id="SVGID_00000149361251769313647400000007526792270153411745_" gradientUnits="userSpaceOnUse" x1="190.7774" y1="250.3009" x2="200.5057" y2="250.3009" gradientTransform="matrix(0 15.0819 15.0819 0 -3518.6807 -2804.0833)">
		<stop  offset="0" style="stop-color:#FFFFFF"/>
		<stop  offset="0.2528" style="stop-color:#FFFFFF"/>
		<stop  offset="0.6124" style="stop-color:#E5F1E0"/>
		<stop  offset="1" style="stop-color:#6CBA5A"/>
	</linearGradient>
	
		<rect x="245.801" y="126.652" clip-path="url(#SVGID_00000132807002430202137230000006761900404235122346_)" fill="url(#SVGID_00000149361251769313647400000007526792270153411745_)" width="21.062" height="78.76"/>
</g>
<g>
	<defs>
		<rect id="SVGID_00000132806168845557796550000003217981115414634938_" x="299.433" y="126.652" width="21.071" height="78.76"/>
	</defs>
	<clipPath id="SVGID_00000141433991211739759590000009429936616885415345_">
		<use xlink:href="#SVGID_00000132806168845557796550000003217981115414634938_"  overflow="visible"/>
	</clipPath>
	
		<linearGradient id="SVGID_00000061468933041935201560000016581000566980464014_" gradientUnits="userSpaceOnUse" x1="190.7774" y1="253.4918" x2="200.5057" y2="253.4918" gradientTransform="matrix(0 15.0819 15.0819 0 -3513.168 -2804.0833)">
		<stop  offset="0" style="stop-color:#FFFFFF"/>
		<stop  offset="0.2528" style="stop-color:#FFFFFF"/>
		<stop  offset="0.6222" style="stop-color:#E5F1E0"/>
		<stop  offset="1" style="stop-color:#6CBA5A"/>
	</linearGradient>
	
		<rect x="299.433" y="126.652" clip-path="url(#SVGID_00000141433991211739759590000009429936616885415345_)" fill="url(#SVGID_00000061468933041935201560000016581000566980464014_)" width="21.072" height="78.76"/>
</g>
<path fill="#009F50" d="M259.36,92.269c0.01,1.479,1.226,2.656,2.695,2.656c1.488-0.019,2.675-1.235,2.656-2.704
	c-0.01-1.489-1.216-2.676-2.704-2.646C260.518,89.584,259.331,90.78,259.36,92.269"/>
<path fill="#009F50" d="M248.093,92.383c0.019,1.469,1.235,2.685,2.714,2.646c1.479,0,2.675-1.226,2.646-2.695
	c-0.01-1.469-1.226-2.666-2.714-2.666C249.26,89.708,248.073,90.904,248.093,92.383"/>
<path fill="#009F50" d="M259.701,98.691c-3.327,2.52-5.973,0.428-6.285,0.166c-0.739-0.632-1.878-0.535-2.5,0.204
	c-0.661,0.749-0.593,1.858,0.136,2.51c1.732,1.518,6.207,3.483,10.828,0c0.778-0.613,0.944-1.732,0.35-2.51
	C261.628,98.253,260.509,98.088,259.701,98.691"/>
<path fill="#009F50" d="M313.169,89.665c0.01,1.479,1.235,2.666,2.704,2.646c1.488,0,2.665-1.226,2.656-2.704
	c-0.01-1.479-1.235-2.666-2.724-2.656C314.337,86.971,313.15,88.197,313.169,89.665"/>
<path fill="#009F50" d="M301.912,89.789c0,1.479,1.216,2.666,2.695,2.646c1.498,0,2.685-1.226,2.666-2.714
	c-0.019-1.469-1.235-2.656-2.714-2.627C303.079,87.104,301.892,88.31,301.912,89.789"/>
<path fill="#009F50" d="M313.72,102.358c-3.347,2.51-5.983,0.419-6.275,0.166c-0.749-0.642-1.878-0.555-2.529,0.194
	c-0.642,0.73-0.574,1.858,0.156,2.52c1.732,1.508,6.207,3.473,10.818,0c0.798-0.613,0.953-1.732,0.35-2.52
	C315.636,101.901,314.508,101.765,313.72,102.358"/>
<path fill="#009F50" d="M642.666,100.59c9.796,10.195,14.495,22.035,10.506,26.432c-4.018,4.407-15.186-0.292-24.982-10.487
	c-9.777-10.195-10.477-26.441-10.477-26.441S632.87,90.386,642.666,100.59"/>
<path fill="#009F50" d="M664.403,101.493c-9.826,9.378-14.573,20.819-10.584,25.537c3.95,4.747,15.166,0.992,24.992-8.395
	c9.816-9.378,10.604-25.556,10.604-25.556S674.258,92.105,664.403,101.493"/>
<path fill="#009F50" d="M656.757,167.949l0.078-41.861c0-0.73-0.574-1.333-1.294-1.362l-3.94-0.175
	c-0.379-0.019-0.759,0.126-1.012,0.37c-0.253,0.272-0.399,0.623-0.399,1.002c0,0-0.097,46.443-0.097,46.462
	c0,0.603,0.379,1.07,0.924,1.294c-0.01,0,1.839,0.467,1.965,0.486c49.157,9.067,59.479,20.76,59.479,28.981
	c0,11.149-18.425,26.344-106.165,35.469c-59.226,6.148-120.932,9.008-241.855,9.008s-187.055-2.86-246.291-9.008
	C30.401,229.49,7.539,214.295,7.539,203.146c0-7.87,9.553-19.165,55.052-28.134c0.36-0.068,1.936-0.447,2.228-0.613
	c1.459-0.759,1.07-2.14,0.72-3.823c-0.263-1.42-0.457-2.841-1.751-3.24c-0.574-0.185-2.033,0.156-2.666,0.292
	C20.001,175.742,0,187.367,0,203.146c0,38.3,132.723,52.027,364.441,52.027c242.653,0,355.559-15.079,355.559-52.027
	C720,188.106,699.872,176.199,656.757,167.949"/>
<g>
	<defs>
		<path id="SVGID_00000015332448202201237490000005725218893264972678_" d="M396.453,180.275c0-6.421,9.845-9.845,21.996-9.845
			c12.141,0,21.986,3.327,21.986,9.845c0,6.528-9.845,9.855-21.986,9.855C406.298,190.13,396.453,186.686,396.453,180.275
			 M374.496,180.275c0,16.266,18.892,25.07,43.952,25.07c25.05,0,43.943-8.366,43.943-25.07c0-16.713-18.892-25.06-43.943-25.06
			C393.389,155.215,374.496,164.009,374.496,180.275"/>
	</defs>
	<clipPath id="SVGID_00000166650056345620178440000009245358206904298913_">
		<use xlink:href="#SVGID_00000015332448202201237490000005725218893264972678_"  overflow="visible"/>
	</clipPath>
	
		<linearGradient id="SVGID_00000168839585845431698210000012300669334237288111_" gradientUnits="userSpaceOnUse" x1="190.9569" y1="259.9886" x2="200.6852" y2="259.9886" gradientTransform="matrix(0 14.972 14.972 0 -3474.1062 -2783.6675)">
		<stop  offset="0" style="stop-color:#FFFFFF"/>
		<stop  offset="0.2528" style="stop-color:#FFFFFF"/>
		<stop  offset="0.6124" style="stop-color:#E5F1E0"/>
		<stop  offset="1" style="stop-color:#6CBA5A"/>
	</linearGradient>
	
		<rect x="374.496" y="155.215" clip-path="url(#SVGID_00000166650056345620178440000009245358206904298913_)" fill="url(#SVGID_00000168839585845431698210000012300669334237288111_)" width="87.895" height="50.13"/>
</g>
<g>
	<defs>
		<path id="SVGID_00000045594142537888129210000005198395573078717584_" d="M446.203,87.885v40.693
			c-3.152,2.209-10.37,4.806-16.548,4.806c4.368-11.528,4.971-22.696,4.971-28.523V89.296h-67.738v15.565h50.354
			c0.243,6.664-1.44,23.153-6.849,28.825c-1.255,1.304-2.52,1.81-4.319,1.829h-5.137v-17.939h-18.231v17.939h-21.363v14.087h44.701
			v0.01c0.029,0,0.058-0.01,0.078-0.01h15.225c7.15,0,16.898-1.265,24.856-5.156v9.728h16.188v-25.935h10.137v-18.377h-10.137
			V87.885H446.203z"/>
	</defs>
	<clipPath id="SVGID_00000122678856858195485480000010613387270404474290_">
		<use xlink:href="#SVGID_00000045594142537888129210000005198395573078717584_"  overflow="visible"/>
	</clipPath>
	
		<linearGradient id="SVGID_00000052788924447819418100000007549904046577555110_" gradientUnits="userSpaceOnUse" x1="190.9574" y1="259.8987" x2="200.6857" y2="259.8987" gradientTransform="matrix(0 14.9709 14.9709 0 -3473.9827 -2783.4656)">
		<stop  offset="0" style="stop-color:#FFFFFF"/>
		<stop  offset="0.2528" style="stop-color:#FFFFFF"/>
		<stop  offset="0.6124" style="stop-color:#E5F1E0"/>
		<stop  offset="1" style="stop-color:#6CBA5A"/>
	</linearGradient>
	
		<rect x="361.344" y="87.886" clip-path="url(#SVGID_00000122678856858195485480000010613387270404474290_)" fill="url(#SVGID_00000052788924447819418100000007549904046577555110_)" width="111.184" height="66.288"/>
</g>
<g>
	<defs>
		<path id="SVGID_00000007405451894596635110000006584576946168692644_" d="M518.096,180.275c0-6.421,9.835-9.845,21.976-9.845
			c12.16,0,22.005,3.327,22.005,9.845c0,6.528-9.845,9.855-22.005,9.855C527.931,190.13,518.096,186.686,518.096,180.275
			 M496.129,180.275c0,16.266,18.902,25.07,43.943,25.07c25.05,0,43.943-8.366,43.943-25.07c0-16.713-18.892-25.06-43.943-25.06
			C515.031,155.215,496.129,164.009,496.129,180.275"/>
	</defs>
	<clipPath id="SVGID_00000134227043288249262220000015417121018076072103_">
		<use xlink:href="#SVGID_00000007405451894596635110000006584576946168692644_"  overflow="visible"/>
	</clipPath>
	
		<linearGradient id="SVGID_00000049931281359991927760000005493783390612652167_" gradientUnits="userSpaceOnUse" x1="190.9569" y1="267.2773" x2="200.6852" y2="267.2773" gradientTransform="matrix(0 14.972 14.972 0 -3461.6035 -2783.6675)">
		<stop  offset="0" style="stop-color:#FFFFFF"/>
		<stop  offset="0.2528" style="stop-color:#FFFFFF"/>
		<stop  offset="0.6124" style="stop-color:#E5F1E0"/>
		<stop  offset="1" style="stop-color:#6CBA5A"/>
	</linearGradient>
	
		<rect x="496.129" y="155.215" clip-path="url(#SVGID_00000134227043288249262220000015417121018076072103_)" fill="url(#SVGID_00000049931281359991927760000005493783390612652167_)" width="87.885" height="50.13"/>
</g>
<g>
	<defs>
		<path id="SVGID_00000073679990533025807110000006988026391293531050_" d="M567.787,87.408v48.758
			c-10.39,0-18.97-2.062-24.544-7.783c-6.421-6.625-7.228-17.559-7.228-24.009h23.26V88.809h-70.443v15.565h24.262
			c0,6.216-0.788,18.036-7.228,24.651c-4.426,4.562-11.81,7.666-19.457,7.666v15.779c13.96,0,23.63-3.21,31.685-11.567
			c2.529-2.656,4.601-6.139,6.353-9.048c1.741,2.909,3.823,5.759,6.372,8.396c9.242,9.612,21.188,12.17,36.967,12.219v3.881h16.227
			v-28.601h10.283v-18.386h-10.283V87.408H567.787z"/>
	</defs>
	<clipPath id="SVGID_00000065058154129778817720000018314215532798673295_">
		<use xlink:href="#SVGID_00000073679990533025807110000006988026391293531050_"  overflow="visible"/>
	</clipPath>
	
		<linearGradient id="SVGID_00000072278940604675824080000008726073954060557700_" gradientUnits="userSpaceOnUse" x1="190.9588" y1="267.2965" x2="200.6871" y2="267.2965" gradientTransform="matrix(0 14.9693 14.9693 0 -3460.8882 -2783.1702)">
		<stop  offset="0" style="stop-color:#FFFFFF"/>
		<stop  offset="0.2528" style="stop-color:#FFFFFF"/>
		<stop  offset="0.6124" style="stop-color:#E5F1E0"/>
		<stop  offset="1" style="stop-color:#6CBA5A"/>
	</linearGradient>
	
		<rect x="486.41" y="87.409" clip-path="url(#SVGID_00000065058154129778817720000018314215532798673295_)" fill="url(#SVGID_00000072278940604675824080000008726073954060557700_)" width="107.887" height="68.944"/>
</g>
<g>
</g>
<g>
</g>
<g>
</g>
<g>
</g>
<g>
</g>
<g>
</g>
<g>
</g>
<g>
</g>
<g>
</g>
<g>
</g>
<g>
</g>
<g>
</g>
<g>
</g>
<g>
</g>
<g>
</g>
</svg>
