<?xml version="1.0" encoding="utf-8"?>
<!-- Generator: Adobe Illustrator 27.0.1, SVG Export Plug-In . SVG Version: 6.00 Build 0)  -->
<svg version="1.1" id="레이어_1" xmlns="http://www.w3.org/2000/svg" xmlns:xlink="http://www.w3.org/1999/xlink" x="0px"
	 y="0px" viewBox="0 0 720 190.852" enable-background="new 0 0 720 190.852" xml:space="preserve">
<polyline fill="#005BAB" points="229.077,64.955 229.332,64.226 242.305,64.226 246.318,52.001 247.104,52.001 251.117,64.226 
	264.109,64.226 264.346,64.955 253.854,72.619 257.868,85.026 257.23,85.391 246.702,77.91 236.192,85.391 235.572,85.026 
	239.586,72.619 229.077,64.955 "/>
<polyline fill="#48825A" points="268.981,64.955 269.217,64.226 282.227,64.226 286.222,52.001 287.008,52.001 291.021,64.226 
	304.013,64.226 304.268,64.955 293.741,72.619 297.754,85.026 297.134,85.391 286.605,77.91 276.096,85.391 275.476,85.026 
	279.49,72.619 268.981,64.955 "/>
<polyline fill="#BC771A" points="308.903,64.955 309.158,64.226 322.148,64.226 326.144,52.001 326.947,52.001 330.943,64.226 
	343.935,64.226 344.19,64.955 333.68,72.619 337.676,85.026 337.056,85.391 326.546,77.91 316.037,85.391 315.398,85.026 
	319.412,72.619 308.903,64.955 "/>
<polyline points="213.987,0 178.517,0 176.29,2.372 176.29,82.107 178.517,84.296 213.987,84.296 216.212,82.107 216.212,2.372 
	213.987,0 "/>
<polyline points="280.512,24.449 220.647,24.449 218.421,26.639 218.421,46.709 220.647,48.899 280.512,48.899 282.737,46.709 
	282.737,26.639 280.512,24.449 "/>
<polyline points="401.373,0 292.718,0 290.492,2.372 290.492,15.509 292.718,17.881 401.373,17.881 403.58,15.509 403.58,2.372 
	401.373,0 "/>
<polyline points="357.218,46.709 360.611,33.938 360.703,33.39 358.477,31.201 292.718,31.201 290.492,33.39 290.492,46.709 
	292.718,48.899 354.316,48.899 357.218,46.709 "/>
<polyline points="400.698,31.2 365.957,31.2 363.056,33.39 350.157,81.559 350.065,82.107 352.291,84.296 387.031,84.296 
	389.915,82.107 402.832,33.938 402.905,33.39 400.698,31.2 "/>
<path d="M123.908,3.831l0.656-1.459L122.338,0H59.883l-2.226,2.372v13.137l2.226,2.372h46.947c1.934,0,3.868-0.73,5.347-2.372
	L123.908,3.831"/>
<path d="M131.754,45.249h-3.139l-16.823,16.969v3.101l16.823,16.786c1.369,1.459,3.266,2.189,5.364,2.189h31.42l2.207-2.189
	l-0.638-1.642L131.754,45.249"/>
<path d="M167.606,2.372l-2.208-2.371h-31.419c-2.098,0-3.996,0.912-5.364,2.371L50.358,80.465l-0.639,1.642l2.208,2.189h31.419
	c2.098,0,3.996-0.73,5.364-2.189l78.257-78.275L167.606,2.372"/>
<path d="M489.573,82.107l-2.208,2.19h-35.488l-2.207-2.19V69.517c0-2.007,0.839-4.014,2.207-5.291l33.919-33.938l1.569-0.729
	l2.208,2.371V82.107"/>
<path d="M507.51,0h-31.42c-2.098,0-3.977,0.913-5.364,2.372l-69.389,69.335l-0.638,1.459l2.207,2.372h31.419
	c2.098,0,3.996-0.912,5.364-2.372l69.39-69.334l0.638-1.46L507.51,0"/>
<polyline points="557.977,2.372 555.751,0.001 521.011,0.001 518.128,2.372 506.396,45.98 506.322,46.71 508.531,48.899 
	543.271,48.899 546.154,46.71 557.904,2.92 557.977,2.372 "/>
<polyline points="625.323,8.94 560.86,8.94 557.976,11.13 554.564,23.902 554.492,24.449 556.699,26.639 580.656,26.639 
	582.882,28.829 582.791,29.376 568.851,81.559 568.76,82.107 570.986,84.296 605.726,84.296 608.609,82.107 627.475,11.678 
	627.548,11.13 625.323,8.94 "/>
<path d="M583.85,110.205l0.656-1.459l-2.226-2.189h-62.455l-2.226,2.189v13.32l2.226,2.189h46.947c1.934,0,3.868-0.73,5.347-2.189
	L583.85,110.205"/>
<path d="M591.677,151.805h-3.12l-16.823,16.786v3.102l16.823,16.786c1.369,1.46,3.266,2.372,5.346,2.372h31.42l2.225-2.372
	l-0.656-1.459L591.677,151.805"/>
<path d="M627.549,108.745l-2.226-2.189h-31.42c-2.079,0-3.977,0.73-5.346,2.189L510.3,187.02l-0.657,1.46l2.226,2.371h31.419
	c2.08,0,3.978-0.912,5.347-2.371l78.257-78.275L627.549,108.745"/>
<polyline points="532.744,153.083 530.535,155.273 470.67,155.273 468.444,153.083 468.444,139.764 470.67,137.574 530.535,137.574 
	532.744,139.764 532.744,153.083 "/>
<polyline points="95.353,115.314 59.883,115.314 57.657,117.504 57.657,153.083 59.883,155.272 95.353,155.272 97.578,153.083 
	97.578,117.504 95.353,115.314 "/>
<polyline points="176.729,115.314 141.934,115.314 139.707,113.124 139.707,108.745 137.482,106.556 102.012,106.556 
	99.786,108.745 99.786,130.823 102.012,133.195 132.062,133.195 134.271,135.384 134.197,135.932 120.258,187.932 120.166,188.48 
	122.392,190.852 157.132,190.852 160.016,188.48 178.882,118.233 178.954,117.504 176.729,115.314 "/>
<polyline points="458.465,106.556 349.81,106.556 347.584,108.746 347.584,122.065 349.81,124.254 458.465,124.254 460.69,122.065 
	460.69,108.746 458.465,106.556 "/>
<polyline points="458.465,137.574 429.362,137.574 427.136,135.384 427.227,134.837 428.687,129.181 428.778,128.633 
	426.552,126.444 391.812,126.444 388.929,128.633 387.159,135.384 384.276,137.574 349.81,137.574 347.584,139.764 347.584,153.083 
	349.81,155.272 378.912,155.272 381.138,157.462 381.066,158.009 373.055,187.932 372.964,188.48 375.19,190.852 409.93,190.852 
	412.813,188.48 421.114,157.462 424.017,155.272 458.465,155.272 460.69,153.083 460.69,139.764 458.465,137.574 "/>
<polyline points="625.323,137.574 618.681,137.574 616.455,139.764 616.455,153.083 618.681,155.272 625.323,155.272 
	627.548,153.083 627.548,139.764 625.323,137.574 "/>
<polyline points="605.362,137.574 603.153,139.764 603.153,153.083 605.362,155.272 612.021,155.272 614.248,153.083 
	614.248,139.764 612.021,137.574 605.362,137.574 "/>
<polyline points="297.7,164.213 297.7,128.634 295.491,126.444 282.172,126.444 279.964,128.634 279.964,164.213 282.172,166.403 
	295.491,166.403 297.7,164.213 "/>
<polyline points="273.305,126.444 260.004,126.444 257.778,128.634 257.778,164.213 260.004,166.402 273.305,166.402 
	275.53,164.213 275.53,128.634 273.305,126.444 "/>
<polyline points="337.621,126.444 312.861,126.444 309.96,128.634 294.086,187.933 294.013,188.48 296.221,190.852 320.98,190.852 
	323.863,188.48 339.755,129.181 339.829,128.634 337.621,126.444 "/>
<path d="M247.669,126.444h-21.44c-2.098,0-3.977,0.913-5.345,2.19l-49.447,49.446l-0.638,1.642l2.207,2.189h21.439
	c2.099,0,3.996-0.912,5.364-2.189l49.429-49.446l0.656-1.642L247.669,126.444"/>
<path d="M233.621,149.981l-1.551,0.548l-23.939,23.902c-1.369,1.459-2.226,3.284-2.226,5.474v8.576l2.226,2.372h25.49l2.225-2.372
	v-36.309L233.621,149.981"/>
<polyline points="2.226,97.615 0,95.426 2.226,93.236 634.191,93.236 636.417,95.426 634.191,97.615 2.226,97.615 "/>
<polyline points="2.226,97.615 0,95.426 2.226,93.236 634.191,93.236 636.417,95.426 634.191,97.615 2.226,97.615 "/>
<path fill-rule="evenodd" clip-rule="evenodd" d="M719.764,77.362L720,76.998h-1.787l-2.007-0.183
	c-0.84-2.737-2.135-3.649-2.865-4.014c-0.51-0.365-2.627-1.824-5.382-1.095l-1.496-1.459l-0.676-0.73l-0.967-1.277l0.164,0.913
	l-0.565-0.365l0.292,0.729v0.913l0.292,2.919l-2.026,2.189l-1.532,0.912l-3.595-2.919l-0.164,0.913l1.04,1.459l-2.08-1.642
	l-1.824-1.277l-4.872-3.831l-2.5-2.007h-0.218l-0.474,0.365l-0.803-0.73l-0.875-0.547l-0.548-0.547l-0.694-0.365l-0.328-0.183
	l-0.218-0.183l-0.237,0.183l0.401,0.73l0.383,0.365l0.347,0.547l-0.091,0.183l-0.803-0.73l-0.639-0.547l-0.273,0.183l0.237,0.547
	l1.204,1.277l0.146,0.365l-1.021-0.365l-0.511,0.183l0.183,0.183l0.803,0.547l0.327,0.365l0.712,0.547h-0.018l-0.109,0.183
	l-0.256,0.547l2.372,1.642l3.996,3.284l4.963,3.832l-1.606,1.277l-1.806,0.183c0,0-1.952-1.277-3.649-2.007l-3.594-0.547
	l-1.168-1.277l-1.532-3.649l0.566-3.101l-0.949,0.182l-0.694,1.46l-0.383-0.365l-0.346,0.547l-0.11,1.095l-0.146,0.183l-0.164-0.183
	l-0.109,0.365c-0.202,0.183-1.04,1.277-0.876,3.101l-0.31-0.365l1.386,2.189l-0.073,0.547l-2.645-0.547l-0.602-1.095
	c-1.04-0.73-2.518-1.095-4.872-1.459l-0.802,0.182l-1.096-0.365c-0.164-2.737-0.182-4.379-1.332-5.474l-4.177-0.547l-5.821,3.649
	c-2.919-0.365-13.758-2.007-15.053-2.007l-1.277-0.183l-0.127,0.183c0.419-3.649,0.292-6.386-0.347-6.569
	c-0.638,0-1.624,2.372-2.444,5.839l-1.532-0.183l-0.639-0.729l-2.007-3.649l-2.226-1.459l-1.789,0.912l-1.021,4.379l-0.329-0.182
	c-0.566,0-3.12,0-3.412,1.642c-0.201,1.095,1.715,2.007,3.996,2.919c1.88,0.729,5.475,1.824,7.882,2.554
	c-0.401,3.649-0.292,6.386,0.347,6.386c0.638,0.183,1.587-2.189,2.39-5.474l0.547,0.183l25.873,6.569l1.77,0.182l2.354,0.913
	c3.576,0.365,3.156,0.182,3.594,0.182l0.694-0.547l4.725,1.095l0.056,0.183l-3.194,0.73l-2.627-0.73
	c-2.189,0.183-3.102,0.365-3.887,0.547l-0.693,0.365h-1.205c-4.397,0.729-21.95,3.831-26.365,4.744
	c-0.784-2.554-1.861-4.379-2.791-4.196c-0.949,0.182-1.478,2.189-1.405,5.291l-1.642,0.365l-3.668-2.007l-2.828,0.73l-0.183,2.919
	l-0.785,0.182c-1.952,0.73-2.699,1.643-2.335,2.737l4.507,1.095c3.321,0,5.766-0.183,7.736-0.365
	c0.785,3.285,2.007,5.291,3.029,5.291c0.984-0.183,1.515-2.554,1.404-5.474c2.975-0.365,15.345-1.277,16.75-1.46l1.606,1.095
	c1.898,2.372,4.233,5.291,6.44,5.109l1.88-2.007l0.292-5.656l0.729-0.365l0.657,0.365c2.609-0.183,4.47-0.913,5.127-1.277
	l1.35-1.459l3.906-0.913l0.438,1.277l0.747,0.365c0.128-0.182,2.245-1.095,4.854-2.372l4.014-1.642h0.876l5.363,0.365h0.913
	c2.699-0.73,4.305-2.189,4.688-2.555l1.003-1.459l-0.036-1.46l-0.019-0.182l1.296,0.182l1.879,0.913h1.095l1.588-0.183l0.766-0.73
	l1.021-1.277l-0.511,1.277l1.242-1.642l-0.384,1.277l-0.547,1.095l1.806-2.007l-0.748,1.459l0.639-0.547l1.824,2.372l-0.694-3.102
	l0.566-2.189l0.237-1.459l2.135-0.913l1.26-0.912h-0.146L719.764,77.362"/>
<polyline points="311.567,106.556 311.001,107.104 311.001,110.935 310.453,111.483 307.132,111.483 306.566,110.935 
	306.566,107.104 306.02,106.556 303.793,106.556 303.246,107.104 303.246,119.328 303.793,119.876 306.02,119.876 306.566,119.328 
	306.566,115.314 307.132,114.767 310.453,114.767 311.001,115.314 311.001,119.328 311.567,119.876 313.774,119.876 314.34,119.328 
	314.34,107.104 313.774,106.556 311.567,106.556 "/>
<polyline points="326.528,109.84 327.075,109.293 327.075,107.103 326.528,106.556 316.547,106.556 316,107.103 316,119.328 
	316.547,119.876 326.528,119.876 327.075,119.328 327.075,116.956 326.528,116.409 319.868,116.409 319.321,115.862 
	319.321,115.314 319.868,114.767 324.302,114.767 324.868,114.219 324.868,112.03 324.302,111.483 319.868,111.483 319.321,110.935 
	319.321,110.388 319.868,109.84 326.528,109.84 "/>
<polyline points="301.02,109.84 301.585,109.293 301.585,107.103 301.02,106.556 291.039,106.556 290.492,107.103 290.492,119.328 
	291.039,119.876 301.02,119.876 301.585,119.328 301.585,116.956 301.02,116.409 294.379,116.409 293.813,115.862 293.813,110.388 
	294.379,109.84 301.02,109.84 "/>
<polyline points="268.324,106.556 267.758,107.104 267.758,115.862 267.21,116.409 266.664,116.409 266.098,115.862 
	266.098,107.104 265.55,106.556 263.324,106.556 262.777,107.104 262.777,115.862 262.211,116.409 261.663,116.409 261.116,115.862 
	261.116,107.104 260.551,106.556 258.342,106.556 257.778,107.104 257.778,119.328 258.342,119.876 270.531,119.876 
	271.097,119.328 271.097,107.104 270.531,106.556 268.324,106.556 "/>
<polyline points="339.282,109.84 339.829,109.293 339.829,107.103 339.282,106.556 329.3,106.556 328.753,107.103 328.753,114.219 
	329.3,114.767 335.942,114.767 336.508,115.314 336.508,115.862 335.942,116.409 329.3,116.409 328.753,116.956 328.753,119.328 
	329.3,119.876 339.282,119.876 339.829,119.328 339.829,112.03 339.282,111.483 332.621,111.483 332.074,110.935 332.074,110.388 
	332.621,109.84 339.282,109.84 "/>
<polyline points="275.531,106.556 273.305,106.556 272.757,107.104 272.757,119.328 273.305,119.876 275.531,119.876 
	276.078,119.328 276.078,107.104 275.531,106.556 "/>
<polyline points="288.833,107.103 288.285,106.556 278.304,106.556 277.739,107.103 277.739,109.293 278.304,109.841 
	281.06,109.841 281.625,110.388 281.625,119.328 282.172,119.876 284.398,119.876 284.946,119.328 284.946,110.388 285.512,109.841 
	288.285,109.841 288.833,109.293 288.833,107.103 "/>
<polyline points="196.252,109.84 196.799,109.293 196.799,107.103 196.252,106.556 186.271,106.556 185.724,107.103 
	185.724,114.219 186.271,114.767 192.932,114.767 193.478,115.314 193.478,115.862 192.932,116.409 186.271,116.409 
	185.724,116.956 185.724,119.328 186.271,119.876 196.252,119.876 196.799,119.328 196.799,112.03 196.252,111.483 189.592,111.483 
	189.045,110.935 189.045,110.388 189.592,109.84 196.252,109.84 "/>
<polyline points="209.554,107.103 209.006,106.556 199.025,106.556 198.46,107.103 198.46,109.293 199.025,109.841 201.798,109.841 
	202.346,110.388 202.346,119.328 202.893,119.876 205.119,119.876 205.667,119.328 205.667,110.388 206.233,109.841 
	209.006,109.841 209.554,109.293 209.554,107.103 "/>
<polyline points="227.289,119.328 226.741,119.876 224.514,119.876 223.968,119.328 223.968,107.103 224.514,106.556 
	226.741,106.556 227.289,107.103 227.289,119.328 "/>
<polyline points="251.684,109.84 252.249,109.293 252.249,107.103 251.684,106.556 241.702,106.556 241.156,107.103 
	241.156,119.328 241.702,119.876 251.684,119.876 252.249,119.328 252.249,116.956 251.684,116.409 245.042,116.409 
	244.476,115.862 244.476,115.314 245.042,114.767 249.476,114.767 250.024,114.219 250.024,112.03 249.476,111.483 245.042,111.483 
	244.476,110.935 244.476,110.388 245.042,109.84 251.684,109.84 "/>
<polyline points="240.207,106.921 240.042,106.556 236.721,106.556 235.772,106.921 232.671,110.023 232.288,109.84 
	232.288,107.103 231.722,106.556 229.514,106.556 228.967,107.103 228.967,119.328 229.514,119.876 231.722,119.876 
	232.288,119.328 232.288,116.409 232.671,116.409 235.772,119.51 236.721,119.876 240.042,119.876 240.207,119.51 234.349,113.489 
	234.349,112.759 240.207,106.921 "/>
<path d="M222.307,119.876l0.164-0.365l-4.215-4.379l0.165-0.365h3.339l0.548-0.547v-7.116l-0.548-0.547h-9.98l-0.566,0.547v12.225
	l0.566,0.547h2.208l0.566-0.547v-2.919h0.383l3.102,3.101l0.949,0.365H222.307 M214.553,110.387l0.547-0.547h3.321l0.566,0.547
	v0.548l-0.566,0.547H215.1l-0.547-0.547V110.387z"/>
</svg>
