<?xml version="1.0" encoding="utf-8"?>
<!-- Generator: Adobe Illustrator 27.0.1, SVG Export Plug-In . SVG Version: 6.00 Build 0)  -->
<svg version="1.1" id="레이어_1" xmlns="http://www.w3.org/2000/svg" xmlns:xlink="http://www.w3.org/1999/xlink" x="0px"
	 y="0px" viewBox="0 0 720 102.461" enable-background="new 0 0 720 102.461" xml:space="preserve">
<path fill="#59C2E1" d="M107.68,82.81l-2.622,1.563l-1.407-1.671l-1.792-0.445l-2.237,0.77l-0.89,1.888
	c0,1.046,0.77,1.888,2.333,2.537l2.141,0.866c1.744,0.71,3.019,1.563,3.824,2.586c0.806,1.01,1.203,2.261,1.203,3.728
	c0,1.984-0.661,3.608-1.972,4.895c-1.323,1.299-2.97,1.948-4.931,1.948c-1.864,0-3.403-0.553-4.618-1.66
	c-1.191-1.106-1.936-2.657-2.237-4.666l3.283-0.722c0.144,1.263,0.409,2.141,0.782,2.622c0.661,0.926,1.635,1.383,2.91,1.383
	l2.513-1.01l1.01-2.574l-0.181-1.142l-0.541-0.962l-0.95-0.818l-1.395-0.722l-2.068-0.866c-2.935-1.239-4.401-3.055-4.401-5.448
	c0-1.611,0.613-2.958,1.84-4.041c1.239-1.082,2.778-1.635,4.606-1.635C104.36,79.214,106.284,80.417,107.68,82.81"/>
<polyline fill="#59C2E1" points="135.195,93.97 129.602,79.635 126.091,79.635 135.206,102.461 140.955,87.248 146.475,102.448 
	156.059,79.635 152.548,79.635 146.607,93.97 141.027,78.589 135.195,93.97 "/>
<path fill="#59C2E1" d="M177.333,90.302c0,2.369,0.794,4.317,2.393,5.844c1.576,1.527,3.415,2.285,5.484,2.285
	c2.249,0,4.149-0.77,5.7-2.333c1.54-1.576,2.321-3.488,2.321-5.748c0-2.285-0.77-4.197-2.297-5.736
	c-1.515-1.563-3.403-2.333-5.64-2.333s-4.113,0.77-5.652,2.333C178.103,86.141,177.333,88.041,177.333,90.302 M174.062,90.266
	c0-3.018,1.118-5.616,3.331-7.78c2.201-2.177,4.847-3.259,7.937-3.259c3.067,0,5.688,1.094,7.877,3.283
	c2.189,2.189,3.283,4.81,3.283,7.877c0,3.091-1.094,5.7-3.307,7.853c-2.213,2.152-4.883,3.235-8.009,3.235
	c-2.778,0-5.255-0.95-7.468-2.874C175.277,96.484,174.062,93.705,174.062,90.266"/>
<path fill="#59C2E1" d="M220.217,89.485h1.022c3.066,0,4.606-1.166,4.606-3.511c0-2.201-1.492-3.295-4.486-3.295h-1.142V89.485
	 M224.246,91.95l6.638,9.14h-3.956l-6.133-8.779h-0.577v8.779h-3.235V79.635h3.788c2.838,0,4.882,0.529,6.145,1.599
	c1.383,1.178,2.081,2.742,2.081,4.69c0,1.527-0.433,2.826-1.311,3.92C226.82,90.94,225.665,91.637,224.246,91.95"/>
<path fill="#59C2E1" d="M253.757,98.047h1.455c1.455,0,2.67-0.156,3.632-0.457l2.61-1.539c1.587-1.467,2.393-3.355,2.393-5.688
	c0-2.357-0.793-4.257-2.369-5.724c-1.419-1.311-3.499-1.96-6.265-1.96h-1.455V98.047 M250.523,101.089V79.635h4.498
	c2.165,0,3.86,0.217,5.111,0.637c1.347,0.421,2.562,1.13,3.656,2.129c2.213,2.02,3.319,4.666,3.319,7.961
	c0,3.295-1.155,5.965-3.452,7.997c-1.166,1.022-2.381,1.732-3.644,2.129c-1.191,0.397-2.874,0.601-5.039,0.601H250.523z"/>
<path fill="#59C2E1" d="M324.061,92.84l-3.175-7.3l-3.343,7.3H324.061 M325.384,95.882h-9.188l-2.381,5.207h-3.5l10.619-22.801
	l10.246,22.801h-3.548L325.384,95.882z"/>
<path fill="#59C2E1" d="M353.512,89.485h1.022c3.066,0,4.606-1.166,4.606-3.511c0-2.201-1.491-3.295-4.486-3.295h-1.142V89.485
	 M357.541,91.95l6.638,9.14h-3.956l-6.133-8.779h-0.577v8.779h-3.247V79.635h3.8c2.838,0,4.882,0.529,6.133,1.599
	c1.395,1.178,2.093,2.742,2.093,4.69c0,1.527-0.433,2.826-1.311,3.92C360.114,90.94,358.96,91.637,357.541,91.95"/>
<polyline fill="#59C2E1" points="389.734,82.678 389.734,101.089 386.487,101.089 386.487,82.678 381.556,82.678 381.556,79.635 
	394.653,79.635 394.653,82.678 389.734,82.678 "/>
<path fill="#59C2E1" d="M441.337,90.302c0,2.369,0.794,4.317,2.393,5.844c1.576,1.527,3.404,2.285,5.484,2.285
	c2.249,0,4.149-0.77,5.7-2.333c1.54-1.576,2.321-3.488,2.321-5.748c0-2.285-0.77-4.197-2.297-5.736
	c-1.515-1.563-3.403-2.333-5.64-2.333s-4.125,0.77-5.652,2.333C442.107,86.141,441.337,88.041,441.337,90.302 M438.066,90.266
	c0-3.018,1.106-5.616,3.331-7.78c2.201-2.177,4.847-3.259,7.937-3.259c3.067,0,5.688,1.094,7.865,3.283
	c2.201,2.189,3.295,4.81,3.295,7.877c0,3.091-1.094,5.7-3.295,7.853c-2.225,2.152-4.894,3.235-8.033,3.235
	c-2.766,0-5.255-0.95-7.456-2.874C439.28,96.484,438.066,93.705,438.066,90.266"/>
<polyline fill="#59C2E1" points="480.974,101.089 480.974,78.168 496.62,94.547 496.62,79.635 499.867,79.635 499.867,102.388 
	484.221,86.069 484.221,101.089 480.974,101.089 "/>
<polyline fill="#59C2E1" points="524.652,79.635 524.652,98.047 530.954,98.047 530.954,101.089 521.405,101.089 521.405,79.635 
	524.652,79.635 "/>
<rect x="550.436" y="79.636" fill="#59C2E1" width="3.235" height="21.453"/>
<polyline fill="#59C2E1" points="575.233,101.089 575.233,78.168 590.878,94.547 590.878,79.635 594.125,79.635 594.125,102.388 
	578.48,86.069 578.48,101.089 575.233,101.089 "/>
<polyline fill="#59C2E1" points="627.509,82.678 618.911,82.678 618.911,87.825 627.257,87.825 627.257,90.879 618.911,90.879 
	618.911,98.047 627.509,98.047 627.509,101.089 615.676,101.089 615.676,79.635 627.509,79.635 627.509,82.678 "/>
<path fill="#59C2E1" d="M58.734,8.659c-3.8,21.31-7.793,31.183-15.453,39.337C36.053,55.8,29.692,60.309,20.095,64.807
	c-2.922-4.786-6.854-8.154-8.142-9.296C37.34,44.568,44.929,31.472,46.36,4.221L58.806,6.65L58.734,8.659 M9.873,8.37
	c4.437,5.364,8.009,11.87,9.945,16.524c-3.656,2.152-8.009,5.147-9.945,6.506C6.867,24.894,4.582,21.033,0,14.527L9.873,8.37z"/>
<rect x="65.818" y="28.117" fill="#59C2E1" width="45.963" height="12.158"/>
<rect x="239.772" y="28.117" fill="#59C2E1" width="45.963" height="12.158"/>
<path fill="#59C2E1" d="M163.335,2.934c1.371,1.071,4.871,4.005,7.3,7.228l-5.364,4.437c-3.716-4.077-5.219-5.58-7.444-7.516
	L163.335,2.934 M155.687,8.514c2.646,2.213,5.015,4.726,7.3,7.3c-1.647,1.359-4.293,3.499-5.869,4.858
	c-1.287-1.864-4.726-5.724-7.011-7.588L155.687,8.514z M135.447,5.147V27.25l4.293-6.073c8.803,4.786,17.449,9.945,24.749,16.812
	c-2.297,2.994-2.79,3.716-7.011,10.366c-8.935-9.44-19.386-15.093-22.031-16.452v33.913h-12.231V2.573l12.231,0.433V5.147z"/>
<path fill="#59C2E1" d="M214.914,21.815c-0.277,7.877-1.576,15.886-3.716,21.394c-2.862,7.372-9.585,16.379-17.954,21.166
	c-3.512-3.211-5.785-4.931-10.018-7.576c10.018-5.724,20.829-13.517,19.53-37.773l12.158,0.722V21.815 M232.231,6.145
	c0.493,0,2.285,0,4.004-0.637l7.937,7.3c-0.709,0.998-0.926,1.359-2.573,3.716c-9.44,13.601-15.526,19.819-19.241,23.607
	c-2.573-3.295-4.726-5.364-8.226-7.865c5.941-5.508,9.08-8.947,13.373-15.309h-47.851V6.145H232.231z"/>
<path fill="#59C2E1" d="M310.195,4.798v21.887l4.077-5.724c10.595,5.363,19.674,11.52,24.966,16.812
	c-3.223,4.642-3.572,5.147-6.722,10.006c-2.357-2.213-9.513-8.863-22.32-15.874v33.552h-12.086V2.285l12.086,0.577V4.798"/>
<path fill="#59C2E1" d="M432.486,4.654v11.088h14.816v10.799h-14.816v29.476c0,3.572-0.782,6.145-4.714,8.009
	c-0.722,0.349-4.365,1.996-11.521,1.647c-0.854-5.303-1.72-7.877-4.149-12.098c2.573,0.577,3.788,0.793,5.375,0.793
	c2.922,0,3.067-1.359,3.067-4.221V37.196c-10.366,13.384-21.671,19.253-25.531,21.25c-0.288-0.433-3.367-5.941-7.732-9.092
	c13.445-5.712,23.029-15.802,27.755-22.813h-26.541V15.742h32.049V1.864l11.942,0.71V4.654"/>
<path fill="#59C2E1" d="M460.939,64.446l-6.734-11.581c20.396-4.221,40.491-18.027,53.226-38.495
	c3.078,4.87,4.293,6.663,7.372,9.741c-4.149,6.145-10.727,15.165-22.248,23.811c-6.506,4.943-17.955,11.882-29.475,15.958
	L460.939,64.446 M460.073,3.427c12.014,6.158,15.742,9.741,17.882,11.737c-1.708,2.081-2.213,2.862-6.927,9.729
	c-7.66-6.578-14.455-9.801-18.039-11.449L460.073,3.427z"/>
<path fill="#59C2E1" d="M574.667,14.527H533.19V4.293h41.477V14.527z M570.458,20.961c2.213,0,4.077-0.072,6.145-0.649l6.939,4.943
	c-1.214,2.285-6.434,12.447-7.576,14.443c-7.227,12.663-14.96,20.745-31.123,27.467c-1.996-3.355-5.58-7.143-7.793-9.224
	c6.578-2.285,22.885-7.937,29.968-26.541h-42.92V20.961H570.458z"/>
<path fill="#59C2E1" d="M648.795,9.585c-5.087,6.085-15.381,14.311-15.814,14.66v41.14h-12.303V32.843
	c-6.362,3.848-12.88,7.432-19.819,10.15c-2.068-3.932-5.291-7.516-8.574-10.234C619.536,25.038,636.637,5.58,641.002,0l9.512,7.516
	L648.795,9.585"/>
<path fill="#59C2E1" d="M666.136,64.446l-6.723-11.581c20.384-4.221,40.491-18.027,53.215-38.495
	c3.078,4.87,4.293,6.663,7.372,9.741c-4.149,6.145-10.739,15.165-22.248,23.811c-6.518,4.943-17.955,11.882-29.475,15.958
	L666.136,64.446 M665.27,3.427c12.026,6.158,15.742,9.741,17.882,11.737c-1.708,2.081-2.213,2.862-6.939,9.729
	c-7.648-6.578-14.443-9.801-18.027-11.449L665.27,3.427z"/>
<path fill="#59C2E1" d="M361.004,42.451c4.738,0,8.574-3.836,8.574-8.574s-3.836-8.586-8.574-8.586c-4.75,0-8.587,3.848-8.587,8.586
	S356.254,42.451,361.004,42.451"/>
</svg>
