<?xml version="1.0" encoding="utf-8"?>
<!-- Generator: Adobe Illustrator 27.0.1, SVG Export Plug-In . SVG Version: 6.00 Build 0)  -->
<svg version="1.1" id="레이어_1" xmlns="http://www.w3.org/2000/svg" xmlns:xlink="http://www.w3.org/1999/xlink" x="0px"
	 y="0px" viewBox="0 0 720 103.12" enable-background="new 0 0 720 103.12" xml:space="preserve">
<polygon fill="#E9537D" points="384.577,70.012 383.767,70.762 382.8,71.693 382.425,72.007 382.063,72.297 382.026,72.285 
	381.7,72.575 380.66,73.433 380.334,73.711 379.137,74.63 378.315,75.173 377.759,75.525 377.155,75.947 376.394,76.467 
	375.596,76.902 374.931,77.253 374.217,77.688 373.843,77.93 370.833,79.405 370.519,79.537 369.951,79.876 368.21,81.326 
	367.727,81.906 367.291,83.865 367.388,84.373 367.848,85.714 368.029,85.944 368.984,87.213 369.83,87.648 371.486,88.047 
	372.562,88.047 373.468,87.938 375.185,87.189 376.103,86.439 376.575,86.028 377.36,85.182 377.578,84.916 377.771,84.711 
	378.231,84.167 378.424,83.925 378.896,83.357 379.403,82.934 380.213,82.209 380.842,81.315 381.216,80.783 381.688,80.287 
	382.401,79.477 382.764,78.788 383.247,77.93 383.706,76.963 384.009,76.298 384.323,75.694 384.831,74.823 385.145,74.207 
	385.592,73.228 385.858,72.043 385.967,71.475 386.076,70.278 385.919,69.347 385.447,69.347 "/>
<path fill="#E9537D" d="M426.134,65.821l-1.886-1.076l-1.378-0.314l-2.188,1.403l-0.653,1.571c-0.423,1.39-0.81,2.792-1.185,4.219
	l-0.254,0.834l-0.109,0.544l-0.991,3.771l-0.266,0.907l-0.06,0.665l0.157,1.293l0.278,0.266h0.314l0.834-0.399l0.786-0.846
	l0.52-0.592l0.52-0.411l0.895-0.786l1.161-1.426l0.508-0.532l0.737-0.809l0.423-0.98l0.29-0.761l0.677-1.161l0.399-0.713
	l0.689-1.342l0.339-0.882l0.29-1.04l-0.29-0.689L426.134,65.821"/>
<path fill="#E9537D" d="M396.859,53.367l1.535-1.112l0.109-0.085l0.23-0.012l0.193-0.181l0.326-0.519l0.592-0.774l1.148-1.571
	l0.085-0.084l0.411-0.411l0.774-0.798l0.302-0.411l0.713-1.051l0.725-1.306l0.145-0.241l0.435-0.423l0.834-0.967l0.037-1.341
	l-0.037-0.121l0.085-0.339l0.217-0.58l0.387-1.003l0.181-0.992l0.108-0.652l0.387-1.632l0.181-0.629l0.604-0.919l0.133-1.04
	l0.085-0.629l0.048-0.979l0.024-0.689l0.181-0.653l0.242-0.979l-0.157-1.112l-0.121-0.581l0.145-0.689l0.157-0.93l-0.133-0.762
	l0.073-0.785l0.435-0.919l0.024-0.858l0.048-0.871l0.06-0.29l0.35-0.375l0.29-0.302l0.278-0.302l0.242-0.108h1.463l0.181,0.024h0.06
	l0.387-0.024h0.931l0.737-0.036l0.278,0.084l1.088,0.266l1.04-0.327h1.765l0.423,0.35l0.653,0.157l0.459,0.134l0.218,0.629
	l0.157,0.677l0.169,1.015l0.169,0.81l-0.012,1.596l-0.435,1.136l0.411,1.185v1.426l-0.242,0.943l0.024,1.765l-0.084,0.798
	l-0.097,0.992l0.193,1.063l0.145,0.702l-0.097,0.773l-0.109,1.003l0.23,1.015v2.527l-0.012,0.701l0.024,0.108l-0.194,0.798
	l0.06,0.677l-0.242,1.608l-0.471,0.931l-0.52,1.148l-0.121,0.23c-0.906,1.197-2.285,1.886-4.194,2.115l0.012-0.013l-0.483,0.013
	l-0.012-0.013l-0.895,0.013l-0.036,0.157l-1.656-0.133l0.036,0.036l-0.169-0.013l1.439,1.342l0.326,0.242l0.568,0.616l1.088,0.641
	l1.596,1.1l0.169,0.145l0.072,0.036l0.556,0.181l1.462,0.254l0.339,0.193l1.003,0.411l1.62-0.375l0.447-0.145l1.293-0.544
	l0.556-0.411l1.172-1.391l0.484-1.462l0.109-0.387l0.205-0.556l0.363-1.208l0.084-1.173l0.012-0.652l-0.23-1.088l0.06-0.689
	l-0.181-0.81l0.036-0.93l0.073-0.677l0.097-1.076l-0.242-0.967l0.036-0.773l0.012-0.52l0.471-1.233l-0.592-1.257l-0.145-0.169v0.024
	l-0.073-0.339l-0.073-1.753l0.012-0.798l0.218-0.943l-0.073-1.112l0.085-0.725l-0.012-0.665l0.157-1.197l-0.157-0.906l0.084-0.919
	l-0.157-1.051l0.085-0.786l-0.097-0.81l0.097-1.027l-0.085-1.233l-0.036-0.435l0.471-0.302l0.375-0.798l0.157,0.024l1.317,0.531
	l0.979-0.35l0.737,0.036l0.46,0.013l1.172,0.339l0.919-0.291l1.245,0.024l0.544-0.012l0.339,0.072l0.314,0.206h0.205l0.774,0.06
	l0.979,0.085l1.003-0.362l0.338-0.024l5.222-0.013l0.991,0.109l0.568-0.097h0.931l0.363,0.024l0.943,0.06l0.846,0.072l0.919,0.085
	l1.052-0.109l0.629-0.072l0.616,0.084l1.112,0.314l1.426-0.266l0.363-0.024l1.293-0.435l0.411-0.181l1.293-0.592l0.725-1.052
	l-0.363-2.006l-1.1-1.149l-0.338-0.278l-0.798-0.277h-0.061l-0.483-0.302l-0.193-0.145l-2.672-0.906
	c-1.317,0-2.466,0.713-3.239,1.97l-0.194,0.302c-1.136,1.837-2.635,2.188-5.004,2.188l-1.064-0.012l-6.104-0.013l-1.04-0.266
	l-0.822-0.036l-0.931-0.036l-1.028,0.338h-0.761l-0.737,0.134l-0.508-0.085l-0.967,0.085l-0.737,0.06l-0.991,0.29l-0.423-0.013
	l-2.224-0.531l-1.245-0.423l-1.088,0.254l-0.133,0.085l-2.95,0.193l-0.52-0.085L418.29,18.7l-0.592,0.314l-1.705-0.072v-0.375
	l-0.072-0.737l-0.085-0.471v-0.399l0.205-0.411l0.46-1.161l-0.363-1.185l0.024-0.447l0.073-0.375l0.689-1.197l-0.229-1.112
	l-0.145-0.556l0.229-0.532l0.375-1.04l-0.435-1.172V7.289l-0.012-0.992l-0.012-0.616l0.229-1.753l-0.072-0.713l-0.048-1.402
	l-1.995-1.439l-0.024-0.097l-0.326-0.133L413.842,0l-0.496,0.06l-2.816,1.475l-0.459,0.447l-1.076,0.556l-0.81,1.716l-0.084,0.46
	l0.52,2.067l0.181,0.266l0.037,0.266l0.242,1.016l0.157,0.338l0.471,1.124l0.314,0.786l0.29,0.761l0.145,0.702l0.145,0.822
	l0.024,0.254l-0.036,0.81l-0.036,0.809l-0.073,0.992l-0.061,0.713l0.205,1.354l-0.012,0.435l-0.894,0.508l-0.774,0.302l-0.097,0.024
	l-3.203-0.291l-2.236,0.134l-0.762-0.109h-0.133l-0.931,0.423l-0.411,0.072l-0.955-0.435l-1.741-0.012l-1.172,0.278l-0.58,0.145
	h-0.544l-0.108,0.013l-1.088-0.23l-0.363,0.049l-0.483-0.085l-0.254,0.036l-0.109-0.012l-0.786,0.121l-0.121,0.06l-2.611-0.206
	l-1.148-0.411l-1.801-0.036l-1.523,0.036l-1.015,0.181l-0.363,0.085h-1.027l-0.87-0.013l-0.592-0.169l-1.124-0.266l-0.81,0.073
	l-0.713,0.06h-0.084l-0.701,0.145l-1.62-0.157l-0.786-0.339l-0.737-0.072l-0.846-0.097l-0.762-0.085l-1.898,0.641l-0.737,1.233
	l-0.387,1.051l0.484,1.645l-0.012,0.097l0.024,0.701l0.447,0.012l0.616,0.193l1.269-0.266l0.218-0.072l0.363-0.097l0.967-0.254
	l0.907-0.471l0.52-0.314l2.031-0.314l0.423,0.12l1.112,0.194l0.87-0.085l0.822-0.06l0.508,0.133l1.209,0.254l1.064-0.532
	l0.665-0.133l0.689,0.085l1.015,0.097l0.568-0.036l1.148,0.278l1.705-0.037l0.761-0.181l0.882,0.012l1.777-0.06l0.58-0.048
	l1.124,0.193l1.076-0.46l0.628-0.085l0.943-0.06l0.665-0.049h0.085l0.701,0.206l1.015,0.29l0.701-0.109l0.544,0.786l0.326,1.366
	l0.169,0.761l0.097,0.326l0.012,0.641l-0.085,0.374l-0.181,1.04l0.097,0.931l0.072,0.81l-0.169,0.75l-0.218,0.943l0.024,0.955
	l0.012,0.773l-0.024,0.399l-0.375,1.971l-0.435,0.991l-0.145,0.75l-0.205,0.931l-0.326,0.737l-0.387,0.846l-0.133,1.064
	l-0.036,0.508l-0.218,0.556l-0.193,0.375l-0.387,0.81l-0.423,0.604l-0.568,0.859l-0.109,1.112l-0.604,1.184l-0.87,0.762L396.17,47.3
	l-0.411,0.798l-0.931,1.475l-0.278,0.979l-0.375,0.568l-0.725,0.689l-0.701,0.29l-1.293,1.052l-0.302,0.616l-0.58,0.484
	c-1.112,0.942-1.922,1.668-2.043,2.03l-0.242,0.278l0.024,0.218l-0.049,0.314l0.194,0.278l0.822,0.375l0.641-0.097l0.774-0.374
	l0.991-0.206l0.616-0.278l1.003-0.459l0.459-0.266l1.076-0.629l0.786-0.979l0.109-0.229l0.242-0.254l0.278-0.193L396.859,53.367"/>
<path fill="#E9537D" d="M468.171,62.975l-0.206-0.326h-0.375l-0.35,0.024l-0.206,0.266v0.013l-0.677,0.907
	c-0.871,1.172-3.167,4.278-3.554,4.593l-0.677,0.677l-0.351,0.46l-0.713,0.665l-0.399,0.64l-0.508,0.725l-0.133,0.229l-0.266,0.339
	l-0.362,0.447l-0.46,0.556l-1.341,1.45l-0.423,0.52l-0.653,0.725l-0.906,0.701l-0.883,0.665l-0.58,0.701l-0.362,0.447l-0.677,0.448
	l-0.556,0.375l-0.58,0.471l-1.233,1.124l-1.584,0.713l-0.931,0.979l-0.858,0.508l-0.508,0.327l-0.931,0.531l-0.532,0.339
	l-1.402,0.761l-1.112,0.641l-0.991,0.616l-0.471,0.399l-1.04,0.786l-0.943,0.339l-1.003,0.145l-0.895,0.23l-0.834,0.205
	l-1.027,0.423L435.135,89l-1.1,0.508l-0.46,0.013l-0.749-0.013l-0.556,0.013l-0.471-0.061l-1.137-0.242l-0.798,0.06l-0.895,0.049
	l-0.895,0.29l-0.943,0.181l-0.29-0.013l-0.351,0.024l-0.955-0.193l-0.75-0.024l-0.906-0.036h-0.012l-1.221,0.29l-0.471,0.06
	l-0.229-0.072l-1.1-0.423l-1.729,0.036l-0.665,0.049l-1.173-0.097l-0.798,0.024h-0.181l-0.616-0.085l-0.834,0.181l-0.75,0.06h-0.061
	l-0.786-0.145l-0.87-0.145l-0.568-0.024h-0.169l-0.906-0.327l-0.943-0.181l-0.677-0.145l-0.665-0.108l-0.955-0.157l-0.665-0.085
	l-0.701,0.024l-0.314-0.037l-0.326-0.12l-1.197-0.496l-0.314-0.254l-0.495-0.979l-0.653-0.411l-0.314-0.423l-0.35-0.519
	l-0.061-0.121l-0.109-0.568l0.037-0.568l0.072-0.859l-0.338-0.966l-0.193-0.508l0.012-0.568l0.266-1.04l0.073-0.774l0.097-0.834
	l-0.193-1.063l-0.133-0.605l0.133-0.737l0.145-0.882l0.084-0.532l0.484-1.051l0.121-0.75l0.145-0.834l-0.387-1.197l-0.024-0.483
	l0.181-0.737l0.194-0.859l-0.06-1.076l-0.048-0.58l0.06-0.314l0.181-0.29l0.423-0.931l-0.024-1.342l0.133-0.568l0.205-1.015
	l-0.109-0.858l-0.084-1.003l-1.124-0.931l-0.919-0.169l-0.496,0.012l-0.834-0.133l-1.414,0.363l-0.943,0.338l-1.185,1.56
	l-0.109,1.015l0.061,1.378l0.036,1.318l0.447,0.761l0.314,1.475l-0.109,0.858l0.133,0.798l0.097,0.81l-0.073,0.871l-0.097,0.773
	l0.109,0.713l-0.218,2.261l-0.084,1.1l-0.278,0.955l0.084,0.992c-0.193,2.913-0.084,5.088,0.339,6.612l0.048,0.882l0.749,1.632
	l0.556,0.737c0.846,1.221,2.031,2.212,3.493,2.937l0.205,0.181l1.003,0.725l0.689,0.109l0.339-0.013l1.293,0.447l1.088,0.568
	l0.399-0.12l1.717,0.423l0.363,0.169l0.822,0.314l0.302,0.037l0.532-0.085l0.495,0.121l0.411,0.145l0.955,0.193l0.713,0.291
	l0.629,0.072l1.052,0.339l0.387,0.036l0.737-0.072l0.363-0.073c1.68,0.242,3.372,0.447,4.932,0.581l0.387,0.121l1.003,0.266
	l0.871,0.049h0.326l0.218-0.013l0.822-0.193h0.326l0.689,0.036l1.958,0.109l1.003,0.024l1.426-0.048l3.264-0.302h0.036l1.68-0.218
	l0.81,0.036L438,94.452l2.151-0.495l2.055-0.544l0.81-0.471l0.882-0.568l2.019-0.761l0.943-0.193l1.293-0.991l1.595-1.04
	l0.701-1.076l1.547-1.511l1.547-1.329l1.172-0.75l1.088-1.716l1.112-1.113l1.523-1.885l0.605-0.992l1.16-1.982l1.234-1.91
	c1.474-1.668,3.179-4.291,4.557-6.999C468.424,63.387,468.4,63.35,468.171,62.975"/>
<path fill="#E9537D" d="M383.774,43.085l0.991-0.519l0.58-0.314l0.544-0.278l1.04-0.532l0.713-0.411l0.871-0.411l0.906-0.798
	l0.435-0.363l0.532-0.544l0.193-0.193l0.532-0.52l0.616-0.435l0.725-0.532l0.979-1.136l-0.048-0.448l-0.205-0.133l-0.701-0.242
	l-0.35,0.013l-0.097-0.085h-0.363c-0.447,0-1.161,0.193-2.297,0.508l-1.124,0.254l-0.725,0.23l-0.967,0.29l-2.974,0.592
	l-0.484,0.048l-0.447,0.072l-1.632,0.085l-2.151-0.193l-0.798-0.302l-2.006-0.254h-0.06l-2.502,0.762l-1.173,1.148l-0.399,2.14
	l0.52,1.825l0.725,0.882l0.677,0.483l0.242,0.109l0.242,0.108l1.112,0.35l1.33,0.399l1.342-0.193l0.471-0.072l1.281-0.278
	l0.471-0.133l0.701-0.109l0.665-0.085l0.423-0.072l0.532-0.242l0.278-0.12L383.774,43.085z"/>
<path fill="#E9537D" d="M441.87,62.327l-0.435-0.12l-0.036,0.024l-0.605-0.241l-0.52-0.206l-0.302-0.121l-1.003-0.133l-0.58,0.049
	c-1.112,0.218-2.006,1.003-2.478,2.188l-0.713,1.801l-0.774,1.85l-0.169,0.435c-1.161,2.78-2.224,5.851-2.2,9.356l-0.471,1.028
	l-0.459,2.043l0.278,0.447h0.484l0.339-0.012l0.217-0.157l0.532-0.339l1.366-0.955l0.822-0.906l0.605-0.702l0.725-1.015l0.495-0.737
	l0.629-0.544l0.979-0.858l0.375-0.447l0.967-1.185l0.52-0.58l0.931-0.979l0.568-1.354l0.242-0.677l0.266-0.508l0.81-1.354
	l0.64-2.272l-1.257-2.454L441.87,62.327"/>
<path fill="#E9537D" d="M441.008,40.925l0.677,0.641l0.822,0.616l0.169,0.109l2.333,1.861c1.39,1.1,2.708,2.151,3.674,2.973
	c0.834,0.677,1.934,1.499,3.034,1.524l0.774,0.266l2.345-0.483l1.1-2.418l-0.423-1.487l-0.181-0.399l-0.786-1.161l-0.302-0.35
	l-0.29-0.471l-0.773-1.04l-0.786-0.508l-0.701-0.496l-0.616-0.495l-0.761-0.689l-1.016-0.46l-0.616-0.278l-0.967-0.35l-0.689-0.229
	l-1.04-0.435l-0.58-0.242l-0.677-0.277l-0.955-0.363l-0.979-0.242l-0.713-0.181l-1.209-0.206l-0.725-0.085l-0.411-0.193
	l-0.979-0.435l-1.692-0.362l-0.713-0.266l-0.943-0.302l-0.629-0.121l-0.073,0.278l-0.217,0.242l-0.097,0.217v0.206l0.592,0.822
	l1.438,0.677l0.145,0.314C436.814,37.154,437.515,38.073,441.008,40.925"/>
<path fill="#595757" d="M560.606,81.498l-0.508-0.072l-0.326-0.06l-0.532-0.024l-0.242,0.036l-0.411-0.036l-0.519-0.049
	l-0.072-0.302l-0.157,0.242l-0.605-0.121l-0.398-0.145l-0.134,0.012l-0.326-0.049l-0.483-0.277l-0.242-0.17l-0.339-0.108
	l-0.495-0.17l-0.266-0.169l-0.532-0.218l-0.604-0.508l-0.496-0.532l-0.145-0.181l-0.17-0.314l-0.302-0.423l-0.302-0.52l-0.097-0.193
	l-0.314-0.701l-1.1-2.007l-0.205-0.362v-0.641l-0.073-0.665l-0.169-0.544v-0.761l0.108-0.484l0.073-0.254l-0.024-0.375l-0.024-0.447
	l0.072-0.362l0.037-0.859l-0.049-0.326v-0.362l-0.012-0.387l-0.024-0.254l0.108-0.519l0.024-0.35l-0.024-0.351l-0.024-0.447
	l0.048-0.435l0.024-0.218l0.012-0.277l-0.229-0.665l0.254-0.544v-0.254l-0.024-0.786l0.06-0.447l0.049-0.35l0.024-0.798l0.278-0.266
	l-0.314-0.012l-0.145-0.52l0.036-0.423l0.012-0.278l-0.036-0.423l-0.036-0.471l0.072-0.46l0.06-0.35l0.085-0.327l0.048-0.459
	l-0.072-0.327l-0.108-0.471v-0.798l-0.049-0.339l-0.048-0.447l0.157-0.205l-0.037-0.399l-0.12-0.387l0.024-0.702l0.013-0.254
	l0.29-0.097l-0.254-0.108l-0.036-0.955l-0.157-0.531l0.108-0.532l-0.072-1.668c-0.085-1.221-0.157-2.454-0.169-3.796l-0.049-0.326
	l-0.036-0.544l0.713-0.798l0.242-0.048l0.314,0.036l0.375,0.072l1.499,0.689l0.387,0.254h0.012l0.242,0.145l0.206,0.459l0.157,0.556
	l-0.073,0.447l-0.108,0.483l-0.133,0.496l-0.097,0.35l-0.12,0.774l-0.085,0.665l0.024,0.387l0.036,0.484l-0.121,0.786l-0.072,0.798
	l-0.097,0.81l-0.134,0.471l-0.072,0.229l0.013,0.46l0.012,0.447l-0.097,0.496l0.024,0.302l0.036,0.35l0.024,0.46l-0.23,0.532
	l-0.097,0.266l0.06,0.314l0.085,0.508l-0.097,0.471l-0.097,0.339l-0.013,0.206l0.073,0.616l-0.17,0.46v0.338l-0.048,0.823
	l-0.013,0.277l0.157,0.532l-0.097,0.508l0.072,0.314l-0.145,0.508l-0.097,0.302l0.072,0.327l0.097,0.495l-0.036,0.35l0.024,0.471
	l-0.049,0.798l-0.06,0.314l0.049,0.483l-0.049,0.46l-0.036,0.362l0.024,0.399l0.072,0.399l-0.012,1.233l0.036,0.387l-0.278,0.145
	l0.242,0.097l0.048,0.58l-0.097,0.483l-0.314,0.109l0.254,0.085l0.024,0.966l0.036,0.254l0.242,0.556l-0.193,0.544l0.06,0.278
	l0.084,0.435l0.17,0.35l-0.097,0.544l0.036,0.278l0.157,0.774l0.181,0.459l0.145,0.254l0.411,0.689l0.339,0.363l0.229,0.205
	l0.17,0.242l0.435,0.29l0.241,0.218l0.46,0.145l0.411,0.229l0.75,0.169l0.737,0.134l0.592,0.229l0.35,0.085l0.35,0.024l0.423-0.097
	l0.786,0.013l0.604,0.181l1.886-0.17l1.305-0.229l0.35-0.218l0.206-0.024l0.326,0.036l0.689-0.218l0.363-0.205l0.326-0.049
	l2.792-1.1l0.629-0.314l0.266-0.205l0.363-0.29l0.387-0.073l0.798-0.435l0.181-0.157l0.326-0.302l0.266-0.242l0.797-0.411
	l0.931-0.266l0.205,0.012l0.508-0.411l0.121-0.169l0.278-0.193l0.339-0.363l0.169-0.229l0.23-0.544l0.483-0.302l0.447-0.29
	l0.278,0.157l0.012,0.326l-0.218,0.834l-0.544,0.387l-0.169,0.193l-0.182,0.326l-0.193,0.46l-0.375,0.375l-0.145,0.133l-0.387,0.036
	l0.242,0.121l-0.085,0.218l-0.266,0.496l-0.387,0.338l-0.254,0.23l-0.218,0.266l-0.338,0.399l-0.242,0.218l-0.399,0.362
	l-0.496,0.218l-0.302,0.121l-0.725,0.471l-0.254,0.218l-0.399,0.339l-0.35,0.084l-0.278-0.036l-0.229,0.145l-0.375,0.218
	l-0.314,0.302l-0.266,0.206l-0.459,0.302l-0.302,0.06l-0.278-0.024l-0.29,0.072l-0.471,0.121l-0.362,0.084l-0.302,0.097
	l-0.508,0.133l-0.399,0.036h-0.205l-0.242,0.024l-0.326,0.145l-0.471,0.302l-0.508,0.048l-0.387,0.037l-0.447-0.06l-0.362,0.072
	h-0.024l-0.483-0.072l-0.351,0.072l-0.701,0.036L560.606,81.498z"/>
<path fill="#595757" d="M215.072,83.563l-0.266-0.156l-0.218-0.121l-0.363-0.314l-0.762-1.113l-0.181-0.398l-0.532-0.907
	l-0.109-0.061l-0.375-0.375l-0.193-0.339l-0.218-0.398l-0.181-0.435l-0.145-0.327l-0.121-0.266l-0.556-0.81h-0.012l-0.339-0.241
	l-0.181-0.532l-0.121-0.145l-0.254-0.362l-0.459-0.291l-0.218-0.411l-0.181-0.314l-0.193-0.362l-1.45-1.717l-0.181-0.157
	l-0.338-0.302l-0.278-0.375l-0.157-0.206l-1.511-1.547h-0.012l-0.447-0.193l-0.242-0.568l-1.318-1.112l-0.205-0.097l-0.242-0.338
	l-0.677-0.761l-0.387-0.291l-0.205-0.205l-0.145-0.157l-0.133-0.145l-0.181-0.121l-0.375-0.277l-0.326-0.339l-0.375-0.193
	l0.037-0.291l-0.205,0.181l-0.617-0.435l-0.205-0.471c-0.459-0.822-0.097-1.946,1.221-3.566l0.097-0.157l0.326-0.665l0.242-0.229
	l0.991-1.403l0.133-0.362l0.435-0.314L204,56.1l0.858-1.547l0.181-0.46l0.363-0.375l0.205-0.193l0.169-0.157l0.145-0.133
	l0.919-1.088l0.169-0.471l0.278-0.266l0.266-0.302l0.229-0.217l0.931-1.451l0.108-0.326l0.218-0.254
	c0.556-1.051,0.991-2.14,1.269-3.251l0.121-0.617l0.036-0.254l0.084-0.242l0.073-0.519l0.145-0.846l0.121-0.423l0.254-0.544
	l0.218-0.108l0.556,0.339h0.012l0.169,0.108l0.181,0.109l0.713,0.544l0.363,0.604l-0.108,0.375l0.242-0.121l0.157,0.29l0.229,0.363
	l0.23,0.858l0.048,0.532l0.085,0.35l-0.024,0.375l0.109,0.568l-0.266,0.677l-0.121,0.217l-0.471,0.834l-0.338,0.242l-0.459,0.302
	l-0.194,0.242l-0.266,0.58l-0.435,0.302l-0.326,0.218l-0.314,0.278l-0.338-0.06l0.193,0.193l-0.205,0.205l-0.205,0.242l-0.242,0.29
	l-1.015,0.967l-0.266,0.278l-0.29,0.326l-0.23,0.314l-0.266,0.363l-0.399,0.29l-0.278,0.218l-0.568,0.592l-0.314,0.302l-0.278,0.266
	l-0.169,0.266l-0.145,0.568l-0.52,0.278l-0.302-0.157l0.06,0.29l-0.326,0.327l-0.278,0.254l-0.302,0.302l-0.278,0.278L204,58.748
	l-0.23,0.423l-0.338,0.277l-0.266,0.278l-0.205,0.218l-0.266,0.471l-0.169,0.218l-0.169,0.532l-0.556,0.35l-0.229,0.097
	l-0.085,0.375l-0.097,0.435l-0.193,0.326l-0.169,0.314l-0.024,0.411v0.254l0.012,0.206l0.012,0.229v0.302l0.254,0.701l0.205,0.097
	l0.484,0.266l0.23,0.398l0.169,0.29l0.29,0.291l0.157,0.157l0.447,0.266l0.375,0.254l0.29,0.206l0.411,0.193l0.278,0.278
	l0.157,0.181l0.314,0.157l0.375,0.206l0.616,0.411l0.169,0.157l0.411,0.133l0.363,0.435l0.169,0.218l0.218,0.157l0.701,0.544
	l0.193,0.036l0.169,0.134l0.314,0.375l1.426,1.256l0.508,0.291l0.302,0.398l0.169,0.254l0.677,0.653l0.423,0.339l0.435,0.483
	l0.205,0.266l0.278,0.229l0.363,0.29l0.182,0.327l0.302,0.35l0.278,0.302l0.024-0.012l0.35,0.205l0.206,0.52l0.205,0.206
	l0.471,0.665l0.157,0.157l0.447,0.447l0.181,0.278l0.266,0.447l0.157,0.592l0.048,0.266l-0.157,0.64l0.085,0.255l-0.218,0.979
	l-0.097,0.254l-0.339,0.689L215.072,83.563"/>
<path fill="#595757" d="M343.049,79.608l-0.435-0.254l-0.641-0.29l-0.169-0.108l-0.193-0.23l-0.314-0.338l-0.81-0.75l-0.459-0.435
	l-0.955-0.919l-0.52-0.52l-0.375-0.338l-1.088-0.725h-0.024l-0.254-0.049l-0.218-0.012l-0.169,0.012h-0.073l-0.012,0.085
	l-0.121,0.629l-0.351,0.435l-0.205,0.241l-0.423,0.411l-0.217,0.218l-0.496,0.375l-0.218,0.145l-0.181,0.145l-0.532,0.363
	l-0.459,0.169l-0.363,0.157l-0.411,0.097c-0.882,0.266-1.837,0.435-3.046,0.532l-0.75,0.024l-1.511-0.109l-0.278-0.024l-0.218-0.061
	l-0.75-0.181l-0.254-0.085l-0.556-0.58l0.072-0.145l-0.072-0.097l-0.254-0.121l-0.351-0.471l0.061-0.108l0.254-0.193l0.399,0.145
	l0.556,0.242l0.254,0.024h0.194l0.314,0.024l0.483,0.277l0.254,0.024l0.205,0.013l0.568-0.134l0.363,0.109l0.181,0.06l0.302-0.097
	l0.641-0.134l0.278-0.036l0.459-0.084l0.411-0.157l0.121-0.049l0.145-0.242l0.592-0.374l0.447-0.206l0.955-1.318l0.048-0.193
	l0.109-0.206l0.229-1.099l-2.369-0.605l-0.145,0.097l-0.254-0.157l-0.133-0.036l-0.592-0.084l-0.169,0.012l-0.338,0.024l-0.87-0.024
	l-0.375-0.024l-0.387,0.133h-0.06l-0.399-0.048l-0.254-0.036l-0.326,0.193l-0.411,0.278l-0.266,0.024l-0.278-0.024l-0.23,0.084
	l-0.411,0.134l-0.326,0.108l-0.218,0.302l-0.205,0.338l-0.229,0.23l-0.254,0.302l0.012,0.291l0.073,0.411l0.097,0.423l0.012,0.447
	l-0.157,0.109l-0.194,0.084l-0.193-0.097h-0.084l-0.846-0.955l-0.024-0.266l-0.049-0.798l1.511-1.692l0.206-0.218l0.544-0.156
	l0.302-0.049l0.242-0.097l0.532-0.218l0.109,0.012l0.871-0.387l0.169,0.242l0.024-0.266l1.281-0.145l0.314,0.012l1.003-0.072
	l0.471,0.012l0.326-0.024l0.35-0.036l0.713,0.17l0.23,0.072l0.387,0.205l0.363,0.17l0.943-0.036l0.508-0.109l0.133-0.229
	l0.302-2.248l-0.097-0.351l0.036-0.629l0.181-0.629l-0.024-0.097l0.024-0.64l-0.133-0.375l0.036-0.798l0.121-0.484
	c-0.037-1.087-0.097-2.272-0.145-3.469l-0.109-2.357v-0.205l-0.024-0.689l-0.459-0.798L333.21,57.5l-0.254,0.024l-0.604,0.133
	h-0.133l-0.387-0.036l-0.35,0.072l-0.339,0.036l-0.532,0.073l-0.87,0.06l-0.387,0.06l-0.483,0.193l-0.882,0.012l-0.556-0.133
	l-0.278-0.085l-0.339-0.012l-0.52-0.036l-0.326-0.036l-0.532-0.073l-0.822-0.278l-0.508-0.423l-0.024-0.35l-0.169,0.218
	l-0.266-0.254l-0.411-0.35l-0.459-0.846l0.072-0.302l0.182-0.072l0.133,0.036l0.024,0.012l0.326,0.23l0.169,0.12l0.532,0.291
	l0.278,0.084l0.447,0.097l0.254,0.037l0.278,0.036l0.35-0.06l0.447-0.049h0.012l0.508,0.109l0.423-0.049l0.508-0.036l0.29-0.072
	l0.725,0.012l0.532-0.085l0.484-0.084l0.411-0.036l0.459-0.049l0.798,0.012l0.919-0.072h0.23l0.278,0.012l1.414-1.547l-0.109-0.447
	l0.024-0.254v-0.58l0.072-0.532l-0.133-1.293l-0.024-0.278l-0.193-0.46l0.121-0.556l-0.085-1.173l-0.084-0.338l-0.097-0.496
	l0.109-0.532l-0.024-0.725l-0.121-0.46l0.012-0.519l0.061-1.571l0.339-0.266l0.072-0.133l0.23-0.097l0.35,0.072l0.568-0.036
	l0.29,0.036l0.689,0.556l0.266,0.278l0.012-0.012l0.157,0.145l0.23,0.435l0.145,0.447l-0.109,0.822l-0.363,0.568l0.23,0.471
	l-0.145,0.423l-0.109,0.35l-0.121,0.798l-0.073,0.411l-0.072,0.411l-0.073,0.327l-0.036,0.471v0.459l0.024,0.387l-0.036,0.809
	l-0.169,0.496l-0.084,0.314l-0.278,0.206l0.29,0.108l0.036,0.532l0.048,0.302l0.06,0.278l0.435,0.181l0.58-0.097l0.326-0.193
	l0.653-0.363l0.375-0.169l0.496-0.278l0.097-0.108l0.399-0.339l0.363-0.072l0.266,0.024l0.435-0.097l0.375,0.061l0.097-0.012
	l0.278,0.085l0.133-0.037l0.701,0.556l0.23,0.496l-0.278,0.737l-0.145,0.181l-0.58,0.411l-0.097,0.036v0.024l-0.314,0.205
	l-0.072-0.012l-0.145,0.085l-0.072-0.049l-0.302,0.411l-0.242,0.049l-0.35-0.049l-0.302,0.097l-0.351,0.181l-0.411,0.266
	l-0.508,0.06l-0.266,0.012l-1.161,0.29l-0.302,0.206h0.012l-0.084,0.084l-0.218,0.218l-0.157,0.266l-0.387,0.193l0.266,0.085
	l0.073,0.362l-0.037,0.471l-0.036,0.387l-0.242,0.266l0.254-0.085l0.145,0.653l-0.072,0.508l-0.061,0.35l0.121,0.302l0.194,0.544
	l-0.121,0.544l-0.048,0.314l0.097,1.704l-0.242,0.339l0.242-0.108l0.181,0.604l-0.012,0.471l-0.024,0.387l0.133,0.314l0.181,0.52
	l-0.169,0.58l-0.036,0.302l0.085,0.266l0.29,0.483l-0.084,0.52l-0.314,0.133l0.278,0.157l0.048,0.327l0.073,0.447l0.036,0.35
	l0.036,0.447l-0.024,0.447l-0.036,0.35l-0.06,0.291l0.858,0.991l0.024-0.012l0.435,0.121l0.363,0.145l0.363,0.145l0.411,0.362
	l0.737,0.363l0.242,0.072l0.411,0.266l0.169,0.12l0.58,0.375l0.193,0.097l0.641,0.508l0.302,0.29l0.375,0.375l0.29,0.314
	l0.375,0.266l0.35,0.617l0.085,0.181l0.266,0.943l-0.387,0.823l-0.278-0.109l0.121,0.242L343.049,79.608"/>
<polygon fill="#595757" points="314.364,80.943 313.965,80.823 313.929,80.834 313.651,80.702 313.554,80.726 313.034,80.52 
	312.72,80.085 312.624,79.903 312.14,79.154 312.031,79.021 311.741,78.634 311.548,78.175 311.439,77.909 311.294,77.402 
	311.197,77.136 311.1,76.894 310.931,76.422 310.955,76.036 310.871,75.093 310.75,74.645 310.931,73.944 310.968,73.715 
	310.907,73.497 310.702,72.953 310.702,72.941 310.653,72.615 310.436,71.914 310.291,71.551 310.266,71.032 310.23,70.79 
	310.145,69.218 310.085,68.976 309.952,68.481 310.097,67.973 310.182,66.571 310.109,66.147 310.23,65.894 310.339,64.975 
	310.303,64.649 310.484,64.214 310.593,63.621 310.557,63.15 310.895,62.546 310.883,62.449 311.016,61.978 311.33,61.881 
	311.221,61.845 311.197,61.881 311.1,61.809 311.064,61.784 311.076,61.76 310.979,61.494 311.088,60.878 311.088,60.467 
	311.1,60.08 311.004,59.488 311.076,58.641 311.258,58.17 311.318,57.553 311.366,57.263 311.354,56.998 311.366,56.635 
	311.379,56.14 311.596,55.656 311.789,54.725 312.079,54.556 311.813,54.508 311.983,53.698 312.164,52.694 312.14,52.549 
	312.128,52.018 312.237,51.594 312.333,51.219 312.479,50.76 312.599,50.41 312.793,49.322 312.732,48.718 312.865,48.258 
	312.938,48.065 312.962,47.339 312.95,47.061 312.877,46.65 312.817,46.251 312.877,45.804 312.624,44.596 312.72,44.329 
	312.877,44.269 313.01,44.293 313.337,44.463 313.409,44.45 313.47,44.463 314.231,44.837 314.437,45.007 314.884,45.321 
	315.114,45.465 315.561,45.84 315.984,46.565 316.129,46.783 316.395,47.351 316.407,47.968 316.395,48.234 316.274,49.092 
	316.056,49.455 315.851,49.781 315.815,50.011 315.73,50.543 315.585,50.881 315.428,51.244 315.21,51.607 315.029,51.921 
	314.969,52.549 314.727,52.972 314.558,53.262 314.558,53.565 314.558,54.12 314.195,54.568 314.159,54.846 313.917,55.317 
	313.856,55.595 313.651,55.97 313.579,56.356 313.554,56.708 313.518,57.179 313.397,57.59 313.361,57.977 313.143,58.376 
	313.022,58.726 312.962,59.125 312.902,59.536 312.793,59.946 312.684,60.309 312.66,60.66 312.708,61.12 312.563,61.518 
	312.527,61.917 312.43,62.328 312.345,62.703 312.261,63.513 312.116,63.984 312.019,64.286 312.019,64.71 312.031,65.096 
	311.959,65.906 311.886,66.342 311.838,66.704 311.874,67.079 311.922,67.514 311.898,67.913 312.007,68.311 311.838,68.916 
	311.789,69.11 311.777,69.484 311.765,69.883 311.85,70.197 311.947,70.657 311.971,71.128 312.079,71.43 311.922,71.914 
	311.91,72.216 312.019,72.796 312.14,73.364 312.345,73.702 312.43,74.138 312.551,74.416 312.998,74.899 313.252,75.08 
	313.445,74.972 314.69,74.162 314.787,74.126 314.848,74.017 315.38,73.594 315.609,73.679 315.694,73.932 315.573,74.38 
	315.464,74.791 315.488,75.165 315.537,75.697 315.416,76.156 315.331,76.567 315.21,77.051 315.186,77.438 315.271,77.764 
	315.501,78.586 315.428,79.094 315.38,79.372 315.162,80.375 "/>
<polygon fill="#595757" points="672.782,76.988 672.273,76.843 672.08,76.758 669.76,75.888 669.566,75.767 669.251,75.598 
	668.804,75.429 668.575,75.211 668.14,74.921 667.692,74.546 667.499,74.377 667.185,73.99 666.931,73.797 666.713,73.531 
	666.798,73.217 666.568,73.361 664.924,71.875 664.538,71.609 664.32,71.089 663.885,70.436 663.546,70.122 663.377,69.602 
	663.292,69.385 662.833,67.91 662.639,67.197 662.543,66.98 662.518,66.846 662.168,66.194 661.673,65.142 661.455,64.272 
	661.213,63.643 661.189,63.196 660.948,62.096 660.899,61.818 660.718,61.274 660.67,60.79 660.645,60.428 660.573,60.09 
	660.476,59.618 660.549,59.111 660.488,58.566 660.476,58.337 660.367,57.926 660.439,57.369 660.416,56.729 660.319,56.258 
	660.282,55.423 660.38,54.916 660.27,52.474 660.174,52.087 660.222,51.628 660.102,50.443 660.041,50.226 659.811,49.803 
	659.859,49.053 659.956,48.788 660.355,48.63 661.528,49.126 661.891,49.295 661.939,49.283 662.349,49.428 662.833,49.899 
	663.014,50.105 663.281,50.552 663.534,50.927 663.739,51.894 663.8,52.583 663.703,52.969 663.631,53.236 663.643,53.501 
	663.728,53.925 663.607,54.674 663.498,55.146 663.425,55.508 663.22,55.991 663.184,56.282 663.232,56.644 663.353,57.091 
	663.208,57.527 663.184,57.877 663.063,58.348 662.978,58.651 663.063,58.977 663.171,59.448 663.123,59.896 663.087,60.27 
	663.184,60.622 663.304,61.08 663.22,61.588 663.268,61.854 663.232,62.386 663.196,62.724 663.281,63.123 663.413,63.534 
	663.196,63.837 663.45,63.716 663.691,64.308 663.812,64.864 663.921,65.094 663.981,65.528 664.042,65.891 664.235,66.46 
	664.078,66.75 664.332,66.665 664.139,66.943 664.392,66.846 664.622,67.414 664.839,67.753 665.057,68.103 665.154,68.345 
	665.444,68.805 665.638,69.179 665.746,69.36 666.133,69.808 666.411,70.098 666.604,70.593 666.471,70.92 666.738,70.799 
	667.112,71.174 667.378,71.392 667.535,71.561 667.934,71.911 668.285,72.286 668.188,72.298 668.188,72.467 668.345,72.238 
	668.671,72.479 668.986,72.588 669.361,72.733 669.578,72.866 670.05,73.12 670.303,73.193 670.919,73.144 671.125,73.144 
	671.621,73.096 672.273,72.709 672.467,72.588 672.987,72.165 673.204,71.814 673.422,71.452 673.64,71.174 673.941,70.787 
	674.099,70.4 674.268,70.013 674.546,69.614 674.704,69.385 675.67,67.221 675.997,67.028 676.178,67.1 676.251,67.149 
	676.359,67.813 676.383,68.176 676.383,68.527 676.372,68.974 676.347,69.47 676.238,69.941 676.226,70.279 676.238,70.666 
	676.251,71.125 676.214,71.403 676.214,71.947 676.105,72.407 676.033,72.757 676.009,73.144 675.984,73.592 675.997,73.785 
	676.057,74.474 675.997,75.078 675.804,75.985 675.138,76.529 674.365,76.71 674.075,76.746 673.772,76.831 672.938,77 "/>
<polygon fill="#595757" points="697.702,66.966 697.254,66.664 695.937,65.044 695.756,64.572 695.115,63.195 694.97,62.929 
	694.874,62.506 694.813,62.203 694.668,61.986 694.426,61.539 694.172,61.055 693.761,60.644 693.543,60.233 693.266,59.798 
	693.024,59.508 692.698,59.157 692.432,58.916 692.19,58.649 691.863,58.348 691.598,58.202 691.09,57.997 690.788,57.719 
	690.485,57.453 690.195,57.235 689.821,56.981 688.987,56.607 687.923,56.377 687.439,56.317 687.004,56.172 685.868,55.858 
	685.602,55.604 685.626,55.326 686.521,54.902 687.452,54.842 688.382,54.854 688.89,54.878 689.398,55.048 690.038,55.192 
	690.461,55.29 690.727,55.362 691.138,55.531 691.621,55.688 691.948,55.833 692.42,56.015 692.867,56.269 693.145,56.449 
	693.35,56.559 693.882,56.849 694.281,57.163 694.571,57.344 694.897,57.562 695.296,57.78 695.671,58.154 695.913,58.371 
	696.167,58.602 696.542,58.94 696.832,59.387 696.976,59.665 697.279,60.039 697.521,60.306 697.775,60.56 698.125,60.934 
	698.367,61.393 698.487,61.696 698.633,61.938 698.911,62.445 699.08,62.977 699.153,63.219 699.418,64.077 699.213,64.415 
	699.467,64.343 699.575,64.947 699.43,65.467 699.249,65.878 698.814,66.446 698.644,66.628 698.246,66.833 "/>
<path fill="#595757" d="M510.591,81.805l-0.544-0.193l-0.302-0.048l-0.375,0.072l-0.532,0.085l-0.508-0.06l-0.278,0.024
	l-0.483-0.024l-0.363-0.036l-0.35,0.048l-0.423,0.049l-0.629-0.109l-0.217,0.024l-0.278,0.013l-0.46-0.073l-0.278-0.036
	l-0.652-0.036l-0.327-0.036l-0.508-0.049l-0.496-0.108l-0.302-0.073l-0.46-0.072l-0.483-0.085l-0.508-0.145l-0.278-0.097
	l-0.435-0.206l-0.314-0.133l-0.314-0.072l-0.496-0.134l-0.423-0.241l-0.29-0.17l-0.725-0.423l-0.375-0.326l-0.544-0.556
	l-0.277-0.375l-0.073-0.181l-0.218-1.535l-0.423-1.56l0.266-0.206h-0.266l0.048-0.688l0.23-0.859l0.604-0.616h0.085l0.193-0.218
	l0.157-0.266l0.375-0.447l0.169-0.229l0.097-0.133l-0.036-0.291l1.185-1.511l0.29-0.411l0.616-0.532l0.629-0.266l0.206-0.012
	l0.218,0.084l0.084-0.072l0.484-0.339l0.725-0.459l0.072-0.109l0.072-0.786l0.049-0.447l0.06-0.46l0.036-0.423l0.049-0.46
	l-0.061-0.508l-0.06-0.387l-0.024-0.193l-0.085-0.617l-0.036-0.218l-0.447-0.966l-0.133-0.266l-0.206-0.084l-0.145-0.109
	l-0.073-0.012l-0.157-0.327l0.266-0.193l0.629,0.036l0.108-0.012l0.423,0.121l0.701,0.362l0.653,0.617l0.169,0.181l0.411,0.519
	l0.29,0.81l-0.024,0.556l0.084,0.519l0.17,0.423l1.813-0.823l0.193-0.145l0.291-0.085l0.495-0.218l0.121-0.097l0.447-0.435
	l0.677-0.483l0.423-0.218l0.327-0.157l0.314-0.229l0.375-0.242l0.411-0.205l0.568-0.375l0.387-0.363l0.423-0.205l0.242-0.097
	l1.269-0.845l0.327,0.097l-0.145-0.23l1.717-1.22l0.266-0.254l0.206-0.121l1.462-1.233l0.182-0.23l0.399-0.241l1.197-0.399
	l0.519,0.085l0.072-0.013l0.52,0.145l0.689,0.629l0.254,0.218l0.229,0.169l0.363,0.798l-0.411,0.786l-0.339,0.013l0.229,0.133
	l-0.411,0.46l-0.677,0.374l-0.387,0.121l-0.338,0.097l-0.399,0.109l-0.375,0.133l-0.193,0.145l-0.447,0.387l-0.448,0.145
	l-0.29,0.133l-0.471,0.108l-0.35,0.073l-0.713,0.362l-0.387,0.157l-0.362,0.169l-0.314,0.17l-0.387,0.241l-0.314,0.181l-0.387,0.23
	l-0.399,0.157l-0.362,0.12l-0.339,0.218l-0.157,0.109l-0.181,0.121l-0.411,0.157l-0.362,0.133l-0.387,0.157l-0.35,0.169l-0.411,0.17
	l-0.35,0.145l-0.29,0.193l-0.387,0.266l-0.435,0.145l-0.35,0.134l-0.75,0.326l-0.242,0.218l-0.398,0.314l-0.423,0.108h-0.097
	l-0.242,0.036l-0.266,0.181l-0.35,0.266l-0.895,1.318v0.169l0.024,0.314l0.109,0.496l0.012,0.29l0.024,0.519l-0.024,0.423
	l-0.024,0.387l-0.097,0.532l0.012,0.326l-0.024,0.387l0.06,0.459l-0.121,0.858l-0.314,0.846l-0.229,0.302l-0.629,0.302l-0.484-0.242
	l-0.193-0.242l-0.302-0.241l-0.374-0.823l-0.109-0.483l0.049-0.798l0.036-0.302l0.024-0.387l-0.013-0.218l-0.108-2.309l-0.036,0.024
	l-0.327,0.314l-0.411,0.218l-0.326,0.193l-0.35,0.242l-0.351,0.229l-0.241,0.302l-0.29,0.35l-0.278,0.242l-0.327,0.314l-0.29,0.241
	l-0.326,0.327l-0.229,0.387l-0.194,0.326l-0.205,0.278l-0.266,0.387l-0.12,0.205l-0.073,0.206l-0.121,0.326l-0.193,0.774
	l-0.06,0.773l-0.084,0.46l0.048,0.314l0.302,0.652l0.181,0.17l0.241,0.205l0.193,0.097l0.399,0.218l0.423,0.145l0.327,0.097
	l0.254,0.121c1.04,0.326,2.333,0.604,3.711,0.81h0.362l0.327,0.012l0.398,0.097l0.375,0.072l0.846,0.06l0.314-0.012l0.327-0.024
	l0.495,0.049l0.387,0.036l0.423,0.048l0.229,0.024h0.242l0.242-0.061l0.447-0.084l0.508,0.108l1.064-0.133l0.314-0.109l0.362-0.145
	l0.411-0.085l0.339-0.061l0.774-0.181l0.773-0.108l0.895,0.097l0.145,0.133l0.52,0.278l0.036,0.314l0.145-0.229l0.314,0.241
	l0.338,0.314l0.242,0.907l-0.399,0.64l-0.314,0.218l-0.459,0.218l-0.387,0.145l-0.544,0.061l-0.121,0.036l-0.797,0.266h-0.036
	l-0.556-0.097l-0.242,0.013h-0.193l-0.447,0.097l-0.58,0.241H510.591z"/>
<polygon fill="#595757" points="489.312,66.659 488.938,66.539 488.889,66.55 488.623,66.333 488.611,66.357 488.309,66.139 
	488.115,65.523 488.127,64.507 488.285,64.133 488.707,63.674 489.578,63.021 490.46,62.67 491.077,62.38 491.331,62.283 
	492.394,61.655 492.576,61.474 492.829,61.317 493.228,61.014 493.518,60.712 493.772,60.422 494.05,60.18 494.365,59.866 
	494.51,59.721 494.897,59.249 495.67,58.198 495.864,57.871 496.383,57.219 497.713,55.985 498.003,55.031 498.16,54.644 
	498.378,54.209 498.644,54.294 498.475,54.04 499.03,52.976 499.115,52.673 499.26,52.19 499.345,51.876 499.502,51.393 
	499.381,51.175 499.127,51.138 498.692,51.272 498.124,51.308 497.761,51.344 496.843,51.452 496.637,51.465 496.239,51.441 
	495.887,51.429 495.283,51.356 495.029,51.356 494.679,51.272 493.374,51.018 492.467,50.099 493.507,49.483 494.667,49.422 
	495.718,49.446 496.807,49.483 497.241,49.373 497.652,49.265 497.979,49.229 498.45,49.156 498.886,49.108 500.203,48.334 
	500.372,48.032 500.65,47.766 501.001,46.557 500.977,46.267 500.965,45.88 501.025,45.433 500.965,44.66 500.844,44.249 
	500.819,43.777 501.073,43.56 500.771,43.426 500.638,43.015 500.469,42.339 500.433,42.206 500.566,41.964 501.327,41.577 
	501.569,41.553 502.33,41.771 503.201,42.581 503.442,43.56 503.37,44.092 503.358,44.382 503.225,44.841 503.165,45.192 
	503.152,45.53 503.128,46.001 503.019,46.557 503.019,46.811 502.971,47.016 502.911,47.621 502.73,48.032 502.62,48.262 
	502.935,48.31 503.878,48.104 504.108,48.044 505.171,47.633 505.594,47.391 505.993,47.162 506.488,47.065 506.706,47.029 
	506.96,46.956 507.6,46.799 508.58,47.198 508.604,47.162 508.737,47.21 509.474,48.25 509.184,48.733 508.737,49.036 
	508.338,49.168 507.842,49.313 507.564,49.108 507.637,49.362 507.262,49.483 507.13,49.821 506.803,49.797 506.513,49.857 
	506.223,49.882 506.03,49.882 505.304,50.099 504.796,50.256 504.555,50.28 504.265,50.256 503.914,50.316 503.539,50.425 
	503.056,50.57 502.681,50.691 502.198,50.824 501.931,51.03 501.787,51.295 501.641,51.804 501.4,52.202 501.315,52.552 500.977,53 
	500.88,53.254 500.626,53.689 500.505,53.967 500.36,54.33 500.263,54.595 499.949,55.14 499.756,55.43 499.526,55.816 
	499.405,56.179 499.297,56.494 499.127,56.953 498.729,57.339 498.498,57.533 498.354,57.848 498.136,58.282 497.979,58.585 
	497.761,59.007 497.629,59.177 497.29,59.685 496.915,60.023 496.673,60.241 496.468,60.531 496.202,60.893 496.105,61.171 
	496.178,61.364 496.287,61.438 496.396,61.655 496.262,61.909 495.718,62.175 495.465,62.332 494.981,62.718 494.618,62.888 
	494.28,63.057 494.039,63.286 493.712,63.601 493.301,63.782 493.011,63.975 492.648,64.314 492.322,64.496 492.117,64.604 
	491.899,64.81 491.596,65.075 491.161,65.475 490.569,65.994 490.158,66.236 "/>
<path fill="#595757" d="M106.003,92.436l-1.668-0.858l-0.109-0.085l-0.193,0.024l-1.233-0.919l-1.088-1.632l-0.242-0.519
	l-0.133-1.414v-0.278l-0.072-0.81l-0.073-0.907l-0.084-0.786l-0.085-0.919l0.157-0.798l-0.072-1.825l-0.23-0.798l0.133-1.113
	l-0.037-1.293l-0.072-1.74l-0.339-0.992l-0.048-1.704l0.073-0.991l0.072-0.738l0.037-0.483l-0.097-2.019l-0.278-0.907l0.06-0.967
	l0.048-0.761l-0.145-0.701l-0.181-0.992l0.109-1.051l0.084-0.52l-0.048-0.979l-0.109-0.882l-0.133-0.713l-0.205-0.992l0.169-1.064
	l0.072-0.362c-0.121-1.922-0.242-4.001-0.363-6.093l-0.375-1.027l0.242-1.028l-0.121-1.898l-0.121-0.508l0.024-1.016
	c-0.23-3.566-0.484-7.228-0.75-10.878l-0.169-0.761l-0.229-1.003l0.084-1.04l0.073-0.581l-0.036-0.387l-0.109-0.435l-0.181-0.979
	l-0.109-0.798l-0.133-0.907l-0.109-1.717l0.133-1.076l0.06-0.302l-0.048-0.351l-0.036-0.519l-0.073-0.121l-0.302-1.04l-0.036-0.387
	l0.544-0.399l-0.109-0.278l-0.169-0.29l-0.544-1.197l1.293,0.254l0.882,0.35l0.29,0.145c1.1-0.036,2.671-0.121,4.533-0.206
	l0.701-0.181l1.741-0.049l0.786-0.06l0.943-0.072h0.06l0.883,0.048l0.701,0.049l1.837-0.013l6.527-0.205l0.447-0.072l1.753-0.085
	l0.798-0.072l0.943-0.097l0.81-0.073l0.943-0.084l1.741,0.012l1.1,0.205l3.288-0.06l0.798-0.206l0.834-0.06l0.895-0.072l1.1,0.193
	l1.414-0.012l0.931-0.181l0.761-0.109l0.955-0.157h0.024l0.991,0.097l0.677,0.073h0.109l0.894,0.048l0.641,0.024l2.49-0.097
	l0.048-0.049l1.088-0.266h0.024l1.076,0.121l0.411,0.072l1.064-0.072l0.979-0.145h0.024l0.713,0.085l0.701-0.06l1.197-0.06
	l0.906-0.242l1.862-0.084l1.003,0.084l0.326,0.037c1.197-0.085,4.992-0.327,4.992-0.327L160.7,19.1l0.822-0.097l0.943-0.121h0.314
	l0.665,0.024l0.568,0.024l1.463-0.06l1.003,0.049l2.212,0.519l1.559,0.629l0.798,0.895l0.435,1.184l-0.036,0.508l0.024,0.072
	l-0.109,0.435l0.194,0.822l-0.532,1.233l-0.073,0.532v0.592l0.302,1.161l-0.411,1.184l-0.169,0.339l-0.061,0.677l0.036,0.206
	l0.036,1.015l-0.242,1.052l-0.157,0.652l0.036,0.702l0.061,1.051l-0.169,0.979l-0.133,0.713l-0.048,0.532l0.181,1.233l0.085,0.616
	l0.133,1.124l-0.761,1.318l-0.061,0.363l0.024,0.725l0.012,1.003l0.024,0.75l0.036,0.314l0.061,0.689l-0.181,0.75l-0.012,0.145
	l-0.097,0.809l-0.206,1.003l-0.145,0.689l-0.157,1.717l-0.012,0.773l-0.012,0.955l-0.194,1.003l-0.133,0.713l-0.048,0.665
	l0.145,1.088l-0.242,0.846l-0.048,0.858l-0.145,1.729l0.012,0.75v0.991l-0.121,0.931l-0.109,0.798l-0.073,0.689l0.193,1.051
	l-0.266,1.064l-0.169,0.653l0.084,0.616l0.145,1.136l-0.363,1.1l-0.157,2.357l-0.109,0.919l-0.097,0.798l0.024,0.737l0.036,1.028
	l-0.109,0.653l0.024,0.145l-0.024,0.943l-0.181,0.447l0.314,0.907l0.411,1.378l0.834,0.725l1.04,1.535l0.254,0.665l-0.629,0.326
	l-0.097,0.036l-0.205,0.013l-0.278-0.677v0.665l-0.834,0.121l-1.015,0.17l-1.366,0.012l-0.592,0.339h-0.036l-1.378-0.302
	l-0.254,0.013l-0.616-0.024l-0.858,0.108h-0.266l-0.665-0.024l-0.544-0.024h-0.544l-0.604-0.013l-0.496-0.024l-0.713,0.012
	l-0.52-0.012l-3.312,0.084l-0.46,0.097h-0.012l-0.447-0.072l-0.737,0.061l-0.919,0.072l-0.737,0.085l-0.955,0.108l-0.653,0.013
	l-1.052,0.121h-0.036l-1.1-0.121h-0.036l-0.882-0.109l-0.762,0.024l-0.604,0.35h-0.012l-1.124-0.205l-0.58-0.013l-0.399,0.013
	l-0.761,0.266l-0.919-0.145l-0.532-0.084l-0.532,0.108l-0.774,0.193l-1.173,0.242h-0.012l-1.161-0.242l-0.35-0.072l-0.689,0.036
	l-1.184,0.363h-0.375l-1.016-0.024h-0.363l-0.979-0.072l-0.423-0.049l-0.278,0.024l-0.471-0.012l-0.242,0.048l-0.979,0.121h-1.704
	l-0.544,0.048l-0.423,0.037l-0.29-0.013l-0.858-0.326l-1.16,0.036l-0.774,0.206l-0.774-0.17l-0.701,0.024l-0.363,0.108l-0.955,0.387
	h-0.024l-1.088-0.181l-0.254-0.085l-0.64,0.024l-0.653-0.024l-0.532-0.036l-0.338,0.012l-0.882-0.06l-0.58-0.049l-0.786,0.157
	l-1.088,0.423h-0.024l-1.015-0.12l-0.58-0.073l-0.907,0.049l-0.906,0.06h-0.037l-0.943-0.097l-0.568-0.036l-1.04,0.06l-0.629,0.024
	l-0.919,0.834l-0.084,0.181l0.048,0.605l0.024,0.822l0.037,0.858l0.157,0.846l0.133,0.665l0.205,1.028l-0.097,1.087l-0.073,0.653
	l-0.508,1.028l-0.097,0.024H106.003z M113.401,79.405l1.015,0.097l0.266,0.037l4.702,0.012c2.031,0,4.134-0.012,5.766-0.169
	l0.919-0.254l0.761-0.266l0.87-0.085l0.592-0.048l0.858-0.713l0.218-0.229l0.556-0.992l0.483-1.559l0.326-0.846l0.145-0.339
	l0.048-0.846l-0.048-0.084l-0.169-1.076l0.278-1.016l0.048-1.257l-0.278-1.04l0.169-1.015l0.109-0.459l-0.072-4.666l-0.169-0.652
	l-0.036-1.692l-0.085-1.015l-0.072-0.653v-0.895l-0.024-0.773l-0.278-1.487c-0.592-1.959-1.704-2.696-4.4-2.925l-0.302,0.036
	l-0.605-0.013l-0.629,0.013l-0.592,0.193l-1.112,0.326l-1.741,0.097l-1.063-0.157l-0.641-0.133l-0.955,0.049l-0.81,0.145h-0.036
	l-1.016-0.097l-0.64-0.097l-0.943,0.145l-0.834,0.314l-0.822,0.097l-0.906,0.121h-0.012l-1.148-0.387l-0.363-0.06l-0.701,0.109
	l-0.798,0.242l-0.858,0.266l-0.653,0.242l-0.701,0.145l-0.689,0.193l-0.919,0.798l-0.556,2.019l0.181,1.076l-0.084,0.629v0.483
	l0.06,0.617l0.229,1.064l-0.06,0.75l0.084,0.955l0.024,0.761l0.254,0.931l-0.097,1.051l-0.072,0.665l-0.024,0.992l0.024,0.701
	l0.097,1.704l0.036,0.858l0.037,0.846l0.06,0.871l0.23,0.81l0.169,0.568l0.326,1.112l-0.157,1.112l-0.085,0.605l-0.036,0.809
	c0.435,1.088,1.209,1.681,2.671,2.019l0.882-0.12l0.278,0.012l1.028,0.447l1.874,0.061l0.568-0.097L113.401,79.405z M138.434,78.765
	l0.061,0.689l0.181-0.689l0.592-0.036l0.979-0.072l0.749-0.145l1.027-0.169l1.088,0.181l0.52,0.121
	c1.982-0.072,4.049-0.121,6.141-0.157l1.148-0.35l1.221,0.363l1.257-0.049l0.375-0.012l0.713-0.145l1.016,0.072l0.508,0.061
	l2.14-0.024c1.438,0,2.381-0.218,2.974-0.725c0.629-0.544,0.943-1.487,1.003-2.974l0.072-1.269l-0.012-0.411l-0.072-0.677
	l-0.109-1.015l0.254-1.003l0.169-0.617l-0.037-0.737l-0.048-0.967l0.012-0.773l0.024-0.919l0.157-1.656l0.314-1.028l0.145-0.326
	l0.036-0.737l-0.061-0.17l-0.109-1.064l0.375-1.076l0.073-0.568l0.061-0.604l-0.157-1.064l0.278-1.015l0.145-0.435
	c0.181-1.873,0.314-3.251,0.266-4.207l-0.181-0.556l-0.399-0.786l-1.148-0.23l-0.58-0.072l-0.846-0.097l-0.568,0.121l-1.1,0.218
	h-0.363l-1.027-0.013l-0.375,0.013l-1.088-0.133l-1.257,0.048l-0.556,0.193l-0.532,0.181h-0.06l-0.979-0.085l-0.605-0.072
	l-0.363,0.157l-0.483,0.133l-0.979,0.206l-1.753,0.072l-0.689-0.302l-2.816,0.12l-0.87,0.206l-0.048,0.061l-0.798,0.218h-0.012
	l-1.16-0.193l-0.326-0.024l-0.363,0.012l-0.834-0.048l-0.822,0.097l-0.81,0.193l-0.906,0.205l-0.363,0.013l-0.798-0.097
	l-0.399-0.049h-0.024l-0.29-0.024l-0.641,0.75l0.012,0.399l0.266,1.112l-0.061,0.955l-0.037,0.314l0.037,0.471l-0.109,0.858
	l-0.048,0.882l-0.073,0.689l0.085,1.051l0.024,0.701l0.254,1.052v1.752l-0.205,1.1l-0.048,0.629l-0.157,1.052l-0.084,0.713
	l0.024,0.798l0.048,0.943l-0.012,0.858l0.157,0.894l0.024,0.823l0.024,0.919l-0.073,0.966l-0.073,0.786v0.725l0.182,1.028
	l-0.061,0.786l0.109,0.992l-0.133,0.979l-0.037,0.157l0.689,0.157l0.339,0.06l0.653,0.169l0.955,0.193H138.434z M110.04,49.186
	l1.705,0.024h0.242l0.604-0.108l1.016,0.072l0.242,0.024l2.357-0.06c1.161-0.06,2.333-0.121,3.517-0.206
	c1.68-0.108,3.336-0.205,4.993-0.241l0.387-0.036l0.725-0.121l1.028-0.145l0.967,0.133l0.532,0.073l1.015-0.411l0.278-0.157
	l0.725-0.846l0.411-1.185l0.23-0.774l0.145-0.362l-0.012-0.35v-0.254l-0.097-0.423l-0.242-1.1l0.242-1.136l0.097-0.29l-0.048-0.653
	v-0.266l-0.06-0.109l-0.254-1.124l0.181-1.076l0.121-0.556c-0.012-1.535,0-3.143,0.024-4.762l-0.145-0.75l0.048-1.777l-0.012-0.846
	l-0.024-0.943l0.037-0.761l0.012-1.051l-0.568-1.318l-1.45-0.532l-1.052,0.218h-0.157l-0.737-0.024l-0.641-0.036l-0.991,0.145
	l-0.314,0.072l-0.616,0.169l-1.729,0.121l-1.124,0.013l-0.605,0.012l-0.363,0.036l-0.653,0.06l-0.556-0.036l-0.266-0.024
	l-0.508,0.024l-0.532-0.024l-0.58,0.133h-0.435l-0.955-0.012l-0.399,0.012l-1.1-0.12l-0.604,0.072l-0.641,0.229l-1.076,0.327h-0.012
	l-1.257-0.363l-0.459-0.085l-0.762,0.121l-1.003,0.314l-0.786,0.157l-0.931,0.181h-0.012l-0.955-0.242l-0.133-0.06l-0.085,0.013
	l-1.16,0.35l-1.305,1.68l0.036,0.133l-0.048,0.967l-0.085,0.581h-0.193l0.012,0.761l-0.024,0.495l0.121,0.967l0.073,0.713
	l0.338,1.015l0.097,1.74l-0.109,1.113l-0.024,0.652l-0.085,1.064l-0.048,0.689l0.085,0.81l0.109,0.943l0.048,0.834l0.218,0.882
	l0.06,0.846l0.097,0.907l-0.024,0.979l-0.012,0.774l0.024,0.326l-0.024,0.024c0.568,1.596,1.584,2.284,3.808,2.598l0.967-0.193
	h0.145L110.04,49.186 M136.549,47.772l0.181,0.255l0.895,0.108l0.399-0.024c1.33-0.133,2.671-0.218,4.025-0.29l1.076-0.362h0.012
	l1.052,0.266l1.753-0.036l0.605-0.133h0.024l1.027,0.072l0.399,0.012c3.36-0.072,6.83-0.121,10.214-0.471l0.846-0.218l0.943-0.266
	l0.351-0.024l0.64,0.049l0.508,0.036l0.302-0.036l0.895-0.339l0.447-0.218l0.75-0.737l0.314-1.257l0.266-1.028l0.121-0.326v-0.302
	l0.024-0.447l-0.073-0.17l-0.145-1.063l0.326-1.076l0.072-0.581l0.037-0.592l-0.218-1.1l0.254-1.027l0.133-0.46l0.242-3.119
	l0.084-1.197l-0.097-0.858l0.145-1.681l0.036-0.773l0.049-0.895l0.169-0.93l0.133-0.725l0.061-0.629v-0.496
	c-0.109-1.305-0.58-1.619-1.257-1.765l-0.701,0.145l-0.363,0.084l-0.641,0.17l-1.728,0.121l-1.112,0.012l-0.629,0.012l-0.459,0.036
	l-0.931,0.049h-0.037l-0.35-0.024l-0.592,0.024l-0.592-0.024l-0.508,0.109l-0.435,0.012l-0.955-0.024l-0.387,0.013l-0.423-0.037
	l-0.447,0.109l-0.737,0.072l-0.81,0.073l-0.278,0.036l-0.447-0.036l-0.302,0.036h-0.073l-0.689-0.036l-0.459,0.036l-0.278-0.013
	l-0.121,0.085l-0.665,0.181l-0.326,0.036l-0.484-0.036l-0.338-0.024h-0.254v0.012l-0.653,0.024h-1.184v-0.036l-0.266-0.036v0.085
	h-0.133l-0.737-0.06l-1.294,0.133l-0.653,0.06l-0.895,0.29l-1.45,0.278l-0.761,0.157l-0.447,0.097
	c-1.052,0.496-1.716,1.354-2.14,2.901l0.073,0.64l-0.29,1.1l-0.048,0.145l-0.29,0.471l0.097,0.024l0.036,0.58l0.399,1.197
	l0.024,0.81l0.024,0.943l-0.121,1.027l-0.084,0.738l-0.121,0.822l-0.012,0.931l-0.084,0.822l0.073,0.955l-0.049,0.943l-0.048,0.81
	l0.085,0.713l0.133,1.052l-0.229,1.136l-0.121,0.459v0.774l0.024,0.181l0.073,0.991l0.133,0.471l0.338,0.798L136.549,47.772"/>
<path fill="#595757" d="M0.556,62.079L0,61.765l0.193-0.931l0.085-0.049l0.665-0.483l0.641-0.108l0.302,0.012l0.157-0.145
	l0.653-0.447l1.62-0.665l0.665-0.145l0.217-0.024l0.544-0.339l0.846-0.145v-0.036l0.955-0.616l0.677-0.387l0.109-0.072l0.447-0.496
	l1.547-1.318l0.75-0.519l1.197-0.302l0.423-0.097l0.447-0.048l0.35,0.024l0.665-0.205l0.58-0.29l0.834-0.725l1.052-0.218
	l1.499-0.738l0.689-0.556l0.834-0.23l3.058-1.571l0.351-0.314l0.629-0.193l2.127-1.1l1.257-1.245l1.015-0.871l0.218-0.133
	l1.161-0.52l0.81-0.411l1.354-1.197l0.641-0.508l0.641-0.278l0.834-0.387l1.257-1.487c0.012-0.919-1.596-2.092-2.816-2.913
	l-0.858-0.556l-0.737-0.35l-0.701-0.423l-0.882-0.544l-0.846-0.641l-0.641-0.495l-1.523-1.113l-0.568-0.411l-0.943-0.737
	l-1.015-1.861l0.145-0.617l0.677-0.435l0.06-0.012l0.121-0.133l0.447-0.157l0.375,0.084l0.459-0.266l0.508-0.072l1.535,0.483
	l0.725,0.483l0.677,0.46l0.484,0.278l0.919,0.58l0.677,0.556l0.58,0.496l0.568,0.387l0.846,0.483l0.302,0.314l0.193,0.134
	l0.798,0.568l0.665,0.592l0.58,0.52l0.604,0.496l0.713,0.471l0.653,0.689l0.411,0.459l0.194,0.085l0.87,0.205l0.616-0.229
	l0.641-0.399l0.532-0.326l0.52-0.423l2.308-2.019l0.616-0.882l0.713-0.532l0.58-0.411l0.544-0.519l0.616-0.581l0.689-0.531
	l0.58-0.435l0.254-0.206l1.269-1.511l0.435-0.846l0.895-0.713l1.874-2.224l0.484-0.834l0.641-0.471l0.205-0.278l0.35-0.423
	l0.967-2.067l-0.387-0.291l-0.314,0.024l-0.689,0.133L53.79,21.44l-0.592,0.121l-0.713,0.109l-0.967,0.133l-0.846,0.036
	l-0.858,0.036l-1.716,0.157l-1.088-0.229l-0.145-0.339l0.024,0.049l-0.097,0.097l-0.036,0.108l-0.06-0.012l-0.459,0.205
	l-0.411,0.024l-0.605-0.036l-0.52,0.097l-0.495,0.013l-1.185,0.266h-0.036l-1.1-0.193h-0.205l-0.387,0.012l-0.75,0.206l-0.278,0.097
	l-0.665,0.169l-1.729,0.145l-0.931-0.17h-0.157h-0.387l-0.677,0.024l-0.81,0.17l-0.302,0.084L34.1,22.927l-1.197,0.181l-1.825,0.085
	l-0.181,0.024l-0.629,0.121l-2.236,0.459l-0.411,0.568l-0.52,0.532l-0.737,0.725l-0.604,0.496l-0.75,0.629l-1.003,0.483
	l-0.616,0.291l-0.193,0.133l-0.35,0.35l-0.774,0.689l-0.798,0.399l-0.713,0.519l-0.81,0.508l-0.665,0.423l-0.701,0.29l-0.133,0.072
	l-0.762,0.399l-0.568,0.532l-0.64,0.834l-0.991,0.423l-0.641,0.254l-0.991,0.302l-0.641,0.399l-0.471,0.496l-0.737,0.919
	l-0.786,0.181l-0.52-0.036L9.96,35.716l-0.35,0.242l-0.29,0.229l-0.29,0.169l-2.502,1.56l-1.777,0.64l0.532-1.124l2.043-1.366
	l1.184-0.93l0.822-0.556L11,33.612l1.934-1.233l0.75-0.52l0.665-0.556l0.689-0.581l0.882-0.471l0.544-0.508l0.979-0.532l0.496-0.387
	l0.677-0.556l0.641-0.531l0.979-0.774l0.302-0.399l0.629-0.459l0.641-0.677l0.508-0.375l0.701-0.858l0.991-0.544l0.447-0.193
	l0.326-0.302l0.048-0.496l1.172-1.632l0.786-1.04l0.604-0.508l0.145-0.181c1.04-1.149,2.248-2.491,3.409-3.893l0.242-0.399
	l0.266-0.229l1.257-1.668l0.314-0.774l0.592-0.713l0.302-0.339l0.266-0.496l0.133-0.459l0.229-0.725l0.737-0.823l1.293-0.58
	l1.463,0.568l0.157,0.097l0.205,0.085l0.532,0.483l0.169,0.133l0.508,0.435l0.967,1.475l-0.157,0.653l-0.52,0.713l-0.544,0.738
	l-1.233,1.329l-0.834,0.665l-0.604,0.447l-0.508,0.617l-0.677,0.774l-1.027,0.665l-0.23,0.218l0.097,0.254l0.23,0.29l1.076,0.362
	l0.363,0.013l1.209-0.097l0.991-0.073l0.991-0.072l1.293-0.121l0.653-0.048l0.726-0.17l1.064-0.205h0.073l1.052,0.097l0.363,0.06
	l0.858-0.06l0.133-0.036l1.076-0.193l0.145-0.013l0.87,0.073l2.72-0.302l0.967-0.363h0.06l0.895,0.145l1.305-0.108l0.967-0.327
	l1.632-0.048h0.508l1.136,0.024l1.003,0.242l0.387,0.121c1.148,0.157,2.007,0.496,2.538,1.04l0.157,0.181l0.266,0.097l1.426,1.644
	l-0.907,1.571l-0.29,0.266l-1.1,0.713L60.729,23.7l-0.254,0.568l-0.508,1.028l-0.725,0.677l-0.532,0.496l-0.483,0.604l-0.58,0.738
	l-0.737,0.665l-0.556,0.483l-0.496,0.568l-0.629,0.713l-0.447,0.592l-0.556,0.701l-0.749,0.713l-0.556,0.508l-1.051,0.653
	l-0.387,0.326l-0.75,0.689l-0.508,0.459l-0.29,0.46l-0.677,1.015l-0.846,0.581l-0.592,0.375l-0.906,0.629l-0.447,0.435l-0.761,0.581
	l-0.604,0.447l-0.75,0.592l-0.58,0.423l-0.218,0.532l-0.665,1.185l-1.233,0.314l-0.556,0.157l-0.459,0.496l-0.737,0.761
	l-0.906,0.471l-0.629,0.326l-0.592,0.46l-0.749,0.592l-0.568,0.495l-0.689,0.702l-1.439,0.93l-1.076,0.35l-0.52,0.302l-0.931,0.423
	l-0.484,0.193l-0.35,0.181l-0.447,0.29l-0.81,0.508l-0.846,0.362l-0.629,0.483l-0.895,0.484l-0.556,0.423l-0.629,0.23l-0.919,0.495
	l-1.052,0.254l-0.266,0.17l-1.849,0.846l-0.484,0.254l-0.955,0.677l-0.689,0.35l-0.822,0.435l-0.713,0.133l-0.23,0.049l-0.749,0.181
	l-0.677,0.35l-0.641,0.314l-0.484,0.387l-1.511,0.556l-0.399,0.145l-0.713,0.327h0.012l-0.181,0.133l-1.148,0.181l-0.556,0.121
	l-0.883,0.277l-0.737,0.23l-0.871,0.29l-0.749,0.229l-1.62,0.532l-0.605,0.229l-0.894,0.641l-0.532,0.362l-0.955,0.568l-0.326,0.036
	l-0.725-0.169L2.14,61.62l-0.447,0.205L1.064,61.97l-0.242,0.049L0.556,62.079"/>
<path fill="#595757" d="M72.794,58.396l-0.895-1.377l-0.496-0.134l-0.52,0.097l-2.309-0.677l-1.04-0.108l-0.35,0.012l-0.943,0.229
	l-0.435,0.121l-0.46,0.024l-0.423-0.085l-1.1-0.145H63.8l-0.931,0.157l-0.774,0.12l-0.737,0.109l-3.506,0.181l-0.895-0.134
	l-1.753,0.085l-1.015,0.181l-4.739,0.229l-1.124-0.266h-0.012l-1.112,0.326c-1.197,0.049-2.273,0.085-3.216,0.121l-0.834-0.169
	l-0.906,0.169l0.145-0.157l0.713-0.871l0.471-0.592l0.701-0.531l0.798-0.617l0.737-0.834l0.484-0.556l0.641-0.592l0.846-0.568
	l0.991-1.861l0.049-0.242l-1.426-2.188l-0.653-0.339l-0.374-0.133l-0.266-0.17l-0.399-0.29l-0.097-0.036l0.048-0.06l-0.483-0.193
	l-0.121-0.013l-1.85,1.088L42.864,48.4l-0.242,0.483l-0.544,0.52l-0.641,0.616l-0.556,0.653l-0.508,0.592l-0.471,0.871l-0.967,1.1
	l-0.713,0.508l-0.544,0.508l-0.653,0.629l-0.447,0.919l-0.931,1.04l-0.785,0.519l-0.556,0.665l-0.495,0.604l-0.459,0.737
	l-0.435,0.508l-1.076,0.859l-0.871,0.737l-1.124,0.508l-0.701,0.931l-3.022,2.418l-0.592,0.362l-0.58,0.399l-0.544,0.326
	l-0.701,0.581l-0.496,0.423l-0.895,0.991l-0.242,0.314l-0.169,0.206l-0.701,1.04L20.72,70.46l-0.471,0.471l-0.653,0.471
	l-0.701,0.519l-2.019,1.403l-0.737,0.495l-0.761,0.605l-0.278,0.254l-1.282,0.689l-0.834,0.435l-1.632,0.75l-0.339,0.423
	l-0.036,0.701l0.568,0.339l0.266-0.06l0.23-0.109l-0.326-0.423l0.399,0.411l0.447-0.181l0.677-0.362l0.834-0.423l0.616-0.339
	l0.87-0.483l0.073-0.061l0.254-0.06l0.375-0.326l0.012-0.024l0.399-0.218l0.483-0.169l0.423,0.012l0.907-0.193l0.882-0.919
	l0.471-0.326l0.629-0.339l0.919-0.508l0.556-0.181l1.221-0.326l0.592-0.544l0.858-0.471l0.798-0.665l0.701-0.604l0.629-0.568
	l0.58-0.496l0.629-0.205l0.278-0.085l0.858-0.266l0.798-1.088l0.314-0.411l0.302-0.229l0.254-0.109l0.979-0.568l0.629-0.35
	l0.931-0.532l0.725-0.774l0.495-0.544l0.629-0.387l0.882-0.556l1.257-1.112l0.339,0.024h0.048l0.991-0.254l0.665-0.157l1.172,0.012
	l0.532-0.012l0.87-0.134l0.834-0.108l0.798-0.242l0.895-0.121l0.786-0.012l0.919,0.193l0.834-0.266l0.895-0.073l0.399,0.06
	l0.024-0.012l1.281,0.52h0.012l0.907-0.109l0.786-0.108l0.616-0.181l0.447-0.181l0.616-0.193h0.302l1.04,0.012l0.495-0.012
	l0.641,0.048l0.822,0.037h0.375l0.326,0.024l1.112,0.218h0.012l1.052-0.229l0.629-0.169l1.015-0.181l0.75-0.121l0.689,0.085
	l0.919,0.108h0.036l1.1-0.205l0.762-0.134l1.04,0.194c-0.109,0.411-0.52,1.305-1.922,3.009l-0.387,0.363l-0.133,0.241l-1.765,2.019
	L61.6,65.999l-0.604,0.725l-0.157,0.206l-0.375,0.398l-0.459,0.35l-0.774,0.617l-0.484,0.894l-2.478,2.648l-0.254,0.229l-0.52,0.544
	l-0.628,0.64l-0.568,0.725l-0.399,0.52l-0.532,0.58l-0.725,0.81c-1.269,1.463-2.357,2.115-3.517,2.115l-1.076-0.145l-0.761-0.592
	l-0.689-0.218h-0.012l-0.133-0.097l-0.979-0.556l-0.387-0.181l-0.205-0.302l-0.556-0.508l-0.75-0.641l-0.906-0.556l-0.641-0.399
	l-0.991-0.556l-0.205-0.108l-0.326-0.29l-1.245-0.859l-0.218-0.181l-0.629-0.556l-0.737-0.64l-0.906-0.327l-0.762-0.423l-1.39-0.677
	l-0.121-0.181l-0.374-0.218l-1.1-0.242l-0.641,0.072l-1.015,0.435l-0.06,1.052l0.387,0.87l0.037,0.35l0.834,0.448l0.556,0.048
	l0.629,0.363l0.943,0.58l0.459,0.52l0.786,0.809l0.906,0.544l0.544,0.483l0.689,0.399l0.749,0.629l1.028,0.519l1.04,1.1l0.592,0.677
	l0.447,0.277l1.402,1.342l0.326,0.665l0.52,0.617l-0.387,1.813l-0.423,0.242l-0.749,0.483l-0.326,0.266l-0.87,0.64l-0.713,0.508
	c-1.052,0.52-2.574,1.414-4.496,2.539l-1.982,1.148l-0.653,0.327l-0.798,0.387l-0.677,0.411l-0.725,0.447l-0.689,0.327l-0.798,0.362
	l-0.737,0.484l-0.725,0.483l-1.366,0.701l-1.825,0.931h-0.048l-0.181,0.024l-0.29,0.193l-1.197,0.556l-0.314,0.097l-0.81,0.278
	l-0.919,0.314l-0.894,0.52l-0.689,0.387L19.1,96.448l-0.955,0.291l-0.894,0.665l-0.617,0.241l-0.374,0.049l-0.484-0.072
	l-0.399,0.072l-0.822,0.254l-0.81,0.278l-0.725,0.471l-0.834,0.314l-0.834,0.338l-0.774,0.314l-0.871,0.399l-0.713,0.327
	l-0.677,0.072l-1.064,0.145l-0.629,0.266l-1.04,0.205L4.86,101.67l-0.314,0.266l-0.242,0.629l0.665,0.556h0.037l0.556-0.169
	l0.786-0.097l0.665-0.157l0.737,0.133l0.375-0.048l0.955-0.387l0.665-0.29l0.761-0.145l0.943-0.169l0.761-0.193l0.919-0.218
	l0.906-0.35l0.713-0.278l0.326-0.072l0.689-0.206l0.653-0.133l1.064-0.254l0.967-0.496l0.592-0.314l0.326,0.024l0.338-0.049
	l0.568-0.241l1.112-0.193l0.725-0.423l0.871-0.278l0.737-0.411l0.882-0.193l0.871-0.399l0.774-0.145l0.931-0.46l0.677-0.193
	l1.064-0.556l0.495-0.205l0.375-0.229l0.266-0.097l0.955-0.339l0.592-0.254l0.375,0.012l0.774-0.145l0.919-0.834l0.605-0.46
	l0.375,0.024l0.471,0.024l0.81-0.157l0.882-0.786l0.447-0.447l0.616-0.484l0.846-0.471l0.677-0.362l0.967-0.218l0.834-0.604
	l0.592-0.411l1.499-0.871l0.629-0.205l1.052-0.375l0.798-0.907l0.387-0.483l0.641-0.266l0.955-0.447l0.556-0.471l0.931-0.447
	l0.592-0.52l0.858-0.459l0.447-0.46l0.967-0.568l0.616-0.882l0.544-0.46l0.508-0.398l0.653-0.544l0.314-0.241l1.209-1.016
	l0.604-0.398l0.871-0.581l0.568-0.725l0.677-0.483l0.58-0.483l0.761-0.641l0.629-1.051l0.375-0.399l0.447-0.278l1.161-0.58
	l0.544-0.532l0.713-0.689l0.544-0.556l0.701-0.677l0.556-0.894l0.387-0.605l0.411-1.04l0.411-0.544l0.508-0.52l0.907-0.568
	l0.52-0.943l0.326-0.616l0.52-0.46l0.81-0.737l0.302-0.834l0.073-0.277l0.205-0.617l1.003-1.269l0.568-0.291l0.242-0.677l0.29-0.919
	L72.794,58.396"/>
<path fill="#595757" d="M249.683,80.364l-0.52-0.145l-0.459-0.254l-0.725-0.629l-0.387-0.992l0.157-0.64l0.072-0.169l0.242-1.04
	l0.048-0.327l0.061-0.495l0.326-0.448l0.23-0.786l0.048-0.277l0.205-0.387c0.604-1.68,1.269-3.191,1.995-4.569l0.097-0.254
	l0.278-0.423l1.1-1.729l0.097-0.23l0.242-0.411l0.157-0.302l0.229-0.435l0.484-0.326l0.955-1.1l0.205-0.411l0.423-0.255v-0.157
	l0.218-0.58l0.278-0.375l0.242-0.314l0.229-0.411l0.205-0.35l0.145-0.375l0.169-0.447l0.048-0.266l0.109-0.58l0.024-0.399
	l0.218-0.229l0.858-1.729l0.737-1.523l0.109-0.423l0.133-0.471l0.423-0.398l0.254-0.592l0.036-0.46l0.266-0.387l0.193-0.29
	l0.218-0.291l0.387-0.822l0.061-0.362l0.242-0.375l0.194-0.302l0.532-1.063l0.048-0.435l0.35-0.411l0.121-0.242l1.305-2.84
	l0.049-0.278l0.29-0.798l0.205-0.399l0.157-0.314l0.387-0.701v-0.157l0.254-0.194l0.254,0.024l0.278-0.06l0.943,0.314l0.266,0.109
	l0.121-0.024l0.218,0.072l0.616,0.653l0.423,0.786l-0.085,0.604l0.037,0.254l-0.375,0.992l-0.109,0.157l-0.338,0.592l-0.447,0.254
	l-0.314,0.193l-0.544,0.604l-0.496,0.653l-0.133,0.29l-0.218,0.46l-0.363,0.35l-0.169,0.145l-0.338,0.496l-0.169,0.302l-0.242,0.326
	l-0.242,0.326l-0.471,0.689l-0.097,0.302l-0.169,0.496l-0.278,0.29l-0.218,0.387l-0.157,0.326l-0.205,0.412l-0.326,0.362
	l-0.242,0.254l-0.205,0.339l-0.205,0.387l-0.157,0.327l-0.073,0.495l-0.435,0.363l-0.133,0.266l-0.23,0.327l-0.084,0.459
	l-0.52,0.363l-0.121,0.205l-0.193,0.363l-0.097,0.447l-0.387,0.375l-0.181,0.254l-0.121,0.339l-0.169,0.435l-0.29,0.423
	l-0.133,0.314l-0.29,0.339l-0.169,0.338l-0.218,0.387l-0.072,0.398l-0.314,0.423l-0.133,0.254l-0.097,0.29l-0.084,0.532
	l-0.145,0.375l0.326,0.072l0.194-0.133l0.266-0.169l0.169-0.206l0.194-0.145l0.411-0.193l0.266-0.278l0.701-0.435l0.544-0.097
	l0.483-0.242l0.29,0.097l-0.048-0.072l0.072-0.327l0.157-0.108l0.544-0.193l0.665-0.496l0.895-0.314l0.169-0.012l0.52,0.06
	l0.254,0.06h0.218l0.568,0.037l0.302,0.036l0.532,0.084l0.471,0.314l0.193,0.157l0.411,0.157l0.532,0.484l-0.012,0.387l0.193-0.181
	l0.447,0.604l0.133,0.544l0.048,0.278l0.097,0.229l0.339,0.532l-0.121,0.568l-0.048,0.266l-0.278,0.242l0.302,0.108l0.072,0.496
	l-0.048,0.484l-0.048,0.338l0.048,0.411l0.06,0.423l0.024,0.846l0.072,0.387l0.085,0.423l0.012,0.448v0.241l0.181,0.943v0.46
	l0.073,0.35l0.036,0.229l0.097,0.278l0.955,1.668l0.278,0.157l0.218,0.229l0.302,0.291l0.375,0.12l0.375,0.097l0.266,0.121
	l0.435,0.157l0.761,0.06l0.375,0.109l0.761-0.073l0.387-0.254h0.072l0.484,0.097l0.774-0.266l0.23-0.145l0.375-0.157l0.35-0.181
	l0.399-0.121l0.363-0.097l0.29-0.218l0.35-0.278l0.532-0.097l1.209-0.798l0.229-0.363l0.471-0.242l0.774-0.616l1.282-1.245
	l0.097-0.193l0.254-0.423l0.29-0.278l0.278-0.278l0.326-0.29l0.266-0.254l0.193-0.387l0.254-0.508l0.58-0.314l0.387-0.193
	l0.314-0.229l0.181-0.206l0.338-0.556l0.097-0.302l0.145-0.483l0.363-0.605l0.29-0.29h0.036l0.072-0.012l0.218,0.085l0.109,0.338
	l-0.157,0.544l-0.097,0.229l-0.024,0.314l-0.072,0.544l-0.375,0.399l-0.097,0.29l-0.302,0.774l-0.23,0.447l-0.145,0.278
	l-0.073,0.314l-0.133,0.519l-0.339,0.024l0.205,0.254l-0.181,0.483l-0.387,0.375l-0.242,0.23l-0.484,0.665l-0.495,0.665
	l-0.314,0.375l-0.205,0.218l-0.218,0.314l-0.29,0.398l-0.181,0.278l-0.29,0.399l-0.411,0.387l-0.218,0.181l-0.411,0.314
	l-0.242,0.218l-0.242,0.145l-0.435,0.339l-0.459,0.218l-0.314,0.121l-0.218,0.229l-0.266,0.254l-0.653,0.314l-0.278,0.109
	l-0.266,0.157l-0.471,0.266l-0.52,0.085l-0.338,0.036l-0.532,0.072l-0.302,0.036l-0.351,0.024l-0.483,0.145l-0.52,0.024h-0.314
	l-0.484-0.097l-0.314-0.072l-1.209-0.121l-0.218,0.024l-0.229-0.024l-0.435-0.266l-0.205-0.024l-0.169,0.109l-0.218-0.121
	l-0.012,0.048l-0.109-0.012l-0.375-0.121l-0.459-0.46l-0.58-0.302l-0.121,0.036l-0.363-0.133l-0.387-0.423l-0.194-0.241
	l-0.375-0.484L266.956,76l-0.254-0.242l-0.399-0.411l-0.206-0.532l-0.085-0.29l-0.097-0.218l-0.23-0.592l-0.036-0.568l-0.073-0.519
	l-0.121-0.556l-0.097-0.314l-0.121-0.447l0.012-0.46v-0.326l-0.085-0.339l-0.109-0.435l0.012-0.483l-0.024-0.35l-0.024-0.242
	l-0.145-0.471l-0.084-0.773l-0.133-0.774l-0.085-0.35l-0.085-0.423l-0.012-0.411l-0.012-0.374l-0.375-1.076h-0.024l-0.266-0.218
	l-0.169-0.374l-0.194-0.242l-1.051-0.229l-0.375,0.108l-0.326,0.06l-0.544,0.072l-0.194-0.084l-0.205,0.06l-0.508,0.145
	l-0.242,0.181l-0.363,0.435l-0.387,0.12l-0.363,0.121l-0.278,0.145l-0.411,0.218l-0.375,0.193l-0.338,0.181l-0.23,0.266l-0.29,0.35
	l-0.399,0.242l-0.302,0.193l-0.544,0.568l-0.157,0.314l-0.205,0.435l-0.278,0.314l-0.326,0.423l-0.326,0.544l-0.205,0.423
	l-0.242,0.52l-0.157,0.544l-0.278,0.399l-0.205,0.266l-0.06,0.339l-0.085,0.483l-0.229,0.363l-0.061,0.375l-0.157,0.326
	l-0.073,0.411l-0.169,0.75l-0.205,0.761l-0.084,0.181l-0.266-0.073l0.181,0.255l-0.145,0.362l-0.036,0.326l-0.036,0.508
	l-0.073,0.387l-0.072,0.435l-0.169,0.447l-0.133,0.326l-0.169,0.484v0.338l-0.302,0.834l-0.097,0.205l-0.254,0.568l-0.701,0.194
	L249.683,80.364"/>
<polygon fill="#595757" points="603.113,70.247 602.63,70.078 602.255,69.692 601.687,69.111 601.482,68.7 602.146,66.271 
	602.545,66.223 602.315,66.077 602.63,65.606 603.161,65.002 603.657,64.373 603.947,64.047 604.189,63.817 604.382,63.455 
	604.612,63.055 605.083,62.415 605.446,62.028 606.486,60.42 606.546,59.852 606.643,59.562 607.126,58.788 607.416,58.414 
	607.779,57.712 607.9,57.338 608.238,56.927 608.372,56.661 608.468,56.323 608.48,56.057 608.855,55.343 608.903,54.957 
	608.94,54.727 608.988,54.111 608.891,53.518 608.504,53.349 608.48,53.349 608.299,53.397 607.84,53.543 607.525,53.615 
	607.078,53.712 606.606,53.76 606.051,53.821 605.519,53.881 605.458,53.893 605.193,53.869 604.479,53.893 603.947,53.917 
	603.294,53.833 603.016,53.772 602.618,53.76 602.243,53.808 602.037,53.784 601.469,53.422 601.215,53.276 600.393,52.744 
	600.115,52.346 599.801,51.935 599.837,51.632 600.031,51.536 600.14,51.56 600.176,51.56 600.248,51.572 600.526,51.693 
	600.817,51.705 601.143,51.705 602.799,51.765 603.851,51.814 604.189,51.802 604.54,51.778 605.35,51.778 606.062,51.79 
	606.583,51.729 606.981,51.657 607.441,51.585 607.791,51.524 608.178,51.5 608.565,51.451 608.806,51.427 609.931,50.508 
	609.979,50.061 610.22,49.674 610.499,48.139 610.487,47.704 610.571,46.87 610.728,46.435 610.789,45.661 610.68,45.238 
	610.728,44.803 610.765,44.392 610.777,44.126 610.704,43.727 610.583,43.171 610.487,42.676 611.163,41.769 611.551,41.673 
	612.07,41.745 612.784,41.951 613.436,42.289 613.69,42.784 613.859,43.062 613.956,43.715 613.98,43.909 613.944,44.174 
	613.884,44.791 613.75,45.166 613.666,45.589 613.63,45.891 613.557,46.411 613.473,46.725 613.339,47.209 613.134,47.632 
	612.977,47.946 612.807,48.309 612.674,48.732 612.421,49.167 612.227,49.432 612.131,49.795 612.01,50.182 612.469,50.231 
	612.784,50.206 613.098,50.037 613.75,49.843 614.016,49.711 614.355,49.553 614.669,49.324 615.007,49.07 615.503,48.925 
	615.95,48.84 615.986,48.84 616.035,48.816 616.168,48.792 616.253,48.804 616.41,48.925 616.41,48.937 616.76,49.154 
	616.772,49.142 617.026,49.227 617.546,49.783 617.631,50.037 617.099,50.859 616.929,50.968 616.349,51.331 615.866,51.475 
	615.527,51.608 615.225,51.753 614.753,51.947 613.944,52.201 613.63,52.237 613.424,52.225 613.085,52.322 612.65,52.394 
	612.263,52.467 611.913,52.636 611.006,53.373 610.837,53.784 610.813,54.038 610.885,54.643 610.499,55.09 610.294,55.295 
	610.209,55.646 610.099,56.081 610.003,56.468 609.979,56.903 609.762,57.314 609.58,57.616 609.362,58.003 609.181,58.329 
	609.097,58.534 608.976,59.127 608.673,59.876 608.456,60.276 608.299,60.59 608.069,61.013 607.573,62.282 607.452,62.874 
	607.211,63.261 607.126,63.587 606.92,63.987 606.763,64.324 606.558,64.724 606.087,65.727 605.941,66.162 605.833,66.524 
	605.748,66.839 605.386,67.6 605.095,67.577 605.289,67.782 604.975,68.35 604.854,68.713 604.672,69.16 604.322,69.571 
	604.093,69.897 603.198,70.235 "/>
<polygon fill="#595757" points="631.007,55.256 630.233,55.076 630.16,55.027 630.087,54.133 630.45,53.686 630.414,53.19 
	630.305,52.815 628.649,51.546 628.238,51.413 627.694,51.208 627.525,51.159 627.247,51.075 627.017,51.026 626.51,50.954 
	626.268,50.676 626.401,50.446 626.51,50.41 626.872,50.349 626.993,50.265 629.217,50.071 629.761,50.083 630.244,50.108 
	631.055,50.229 631.647,50.434 632.88,50.99 633.315,51.232 633.497,51.401 633.955,51.63 634.209,51.787 634.101,52.054 
	634.33,51.933 634.802,52.513 634.983,53.48 634.838,54.06 634.584,54.398 634.294,54.544 633.762,54.737 632.965,54.87 
	632.734,54.858 631.828,55.112 631.018,55.256 "/>
<path fill="#595757" d="M614.289,81.659l-0.496-0.097l-0.254-0.048h-0.556l-0.278-0.024l-0.242-0.036l-0.532-0.109l-0.483-0.229
	l-0.229-0.121l-0.339-0.084l-0.447-0.145l-0.581-0.339l-0.519-0.496l-0.109-0.241l-0.012-0.121v-0.012l0.036-0.121l-0.012-0.049
	l-0.242-0.266l-0.109-0.206l-0.012,0.024l-0.108,0.072l-0.17,0.049l-0.339-0.242l-0.145-0.362l-0.206-0.605l0.085-1.003l0.387-0.955
	l0.206-0.302l1.221-1.524l0.145-0.133l0.846-0.375l0.822-0.35l0.375-0.193l0.363-0.206l0.93-0.254l0.738-0.061l0.979,0.073
	l0.229,0.012l0.35-0.085l0.496-0.097h0.012l0.52,0.073l0.278-0.024l0.532,0.048l0.145,0.302l0.072-0.278l0.882,0.024l0.23-0.049
	h0.084l0.677-0.072l0.218-0.049l0.483-0.544v-0.339l0.097-0.58V70.72v-1.233l-0.084-0.423l0.06-0.809l0.084-0.423l0.06-0.375
	l0.302-0.169l-0.266-0.013l0.036-0.495l-0.084-0.157l0.145-0.254l-0.024,0.012l-0.073-0.206l-0.036-0.398l0.049-0.375l0.036-0.314
	l0.254-0.206l-0.266,0.024l-0.06-0.616l-0.085-0.351l-0.097-0.398v-0.411l0.012-0.254l-0.024-0.314v-0.23l0.061-0.302l0.786-1.306
	l-0.012,0.013l-0.049-0.157l-0.036-0.641l0.339-0.266l0.592-0.665l0.133-0.17l0.29-0.181l0.629-0.387l0.435-0.254l0.169,0.049
	l0.157,0.121l0.024,0.29l-0.447,0.665l-0.75,1.439l-0.06,1.377l-0.072,0.484l-0.036,0.411l-0.085,0.302l-0.085,0.375l0.024,0.339
	l0.024,0.423l0.097,0.447l0.049,0.387l-0.134,0.52l-0.326,0.277l0.266-0.012l0.073,0.278l0.121,0.471l0.06,0.423l0.097,0.339
	l0.024,0.181l0.109,0.568l-0.061,0.508l-0.036,0.302l0.06,0.374l0.072,0.423v0.447v0.339l0.085,0.399l0.133,0.387l0.048,0.399
	l0.061,0.398l0.013,0.52l0.205,0.29l0.193,0.181l0.266,0.229l0.725,0.447l0.326,0.085l0.447,0.193l0.194,0.085l0.894,0.278
	l0.278,0.084l0.495,0.206l0.194,0.084l0.398,0.291l1.39,0.943l0.302,0.145l0.206,0.06l0.483,0.218l0.387,0.411l0.218,0.193
	l0.278,0.387l0.254,0.29l0.229,0.229l0.375,0.375l0.278,0.592l0.085,0.218l0.193,0.846l-0.145,0.822l-0.133,0.145l-0.677,0.314
	l-0.75-0.084l-0.218-0.085l-0.229-0.157v0.012l-0.121-0.097l-0.81-0.653L629,80.04l-0.531-0.568l-0.255-0.399l-0.145-0.205
	l-1.354-1.511l-0.181-0.121l-0.411-0.181l-0.182-0.242l-0.193-0.145l-0.205-0.145l-0.351-0.157l-0.277-0.097l-0.423-0.133
	l-0.387-0.302l-0.907-0.29l-0.411,0.157l0.012,0.097l-0.12,0.399l-0.206,0.81l-0.278,0.773l-0.398,0.738l-0.255,0.471l-0.145,0.277
	l-0.435,0.375l-0.218,0.181l-0.496,0.35l-0.193,0.121l-0.629,0.326l-0.387,0.218l-0.447,0.266l-0.81,0.266l-0.471,0.036l-0.35,0.085
	l-0.653,0.121l-0.182-0.06l-0.145,0.085h-0.193l-0.496-0.024l-0.266,0.048l-0.277,0.024L614.289,81.659z M610.337,75.241
	l-0.375,0.484l-0.181,0.266l-0.206,0.375l-0.048,0.399l0.06,0.35l0.121,0.774l0.29,0.713l0.483,0.52l0.169,0.097l0.206,0.048
	l0.471,0.121l0.254,0.121l0.483,0.206l0.786,0.181l0.46,0.17l0.35,0.108l0.242-0.012l0.616-0.145l0.411,0.013l0.617-0.024
	l0.483-0.145l0.411-0.036l0.218-0.012l0.581-0.218l0.254-0.109l0.58-0.326l0.423-0.218l0.278-0.206l0.483-0.483l0.326-0.314
	l0.29-0.532l0.085-0.29c0.266-1.257-0.048-2.128-0.93-2.719l-0.713-0.351l-0.46-0.133l-0.241-0.048l-0.762-0.073l-1.208-0.024
	l-0.519-0.17l-0.665-0.097l-0.737,0.061l-0.266,0.097l-0.363,0.17l-0.193,0.024l-0.302-0.036l-0.241,0.121l-0.097,0.024
	l-0.097-0.013l-0.145,0.037l-0.339,0.181l-0.097,0.145l-0.786,0.617l-0.266,0.169l-0.327-0.109L610.337,75.241z"/>
<path fill="#E9537D" d="M594.202,29.638l1.523-0.592l1.596-0.423l1.498-0.665l1.402-0.87l1.463-0.774l1.426-0.822l1.257-1.088
	l1.39-0.894l1.245-1.052l1.016-1.305l1.04-1.245l0.919-1.354l0.677-1.45l0.629-1.487l0.411-1.547l0.278-1.583l0.145-1.571
	l-0.133-1.571l-0.35-1.547l-0.653-1.45l-0.798-1.354l-1.076-1.161l-1.257-1.016l-1.329-0.809l-1.462-0.617l-1.584-0.133
	l-1.583-0.133l-1.56,0.326l-1.583,0.339l-1.487,0.629l-1.535,0.592l-1.245,1.076l-0.544-0.036l-1.293-0.967l-1.511-0.617
	l-1.498-0.592l-1.547-0.508l-1.571-0.218l-1.596,0.06l-1.547,0.302l-1.523,0.423l-1.257,0.98l-1.341,0.822l-0.979,1.281
	l-0.774,1.366l-0.665,1.438l-0.375,1.535l-0.085,1.56l-0.06,1.583l0.255,1.608l0.568,1.499l0.592,1.498l0.677,1.475l1.04,1.269
	l0.858,1.378l1.233,1.113l1.234,1.087l1.172,1.136l1.378,0.882l1.474,0.761l1.427,0.81l1.462,0.75l1.427,0.822l1.523,0.604
	L594.202,29.638z M594.13,30.266l-1.656-0.423l-1.547-0.713l-1.571-0.629l-1.583-0.568l-1.499-0.822l-1.463-0.882l-1.511-0.822
	l-1.245-1.197l-1.245-1.172l-1.318-1.088l-1.063-1.377l-0.967-1.414l-0.882-1.499l-0.677-1.619l-0.568-1.645l-0.302-1.74v-1.777
	l0.169-1.765l0.435-1.716l0.653-1.644l1.003-1.45l1.172-1.318l1.39-1.124l1.547-0.871l1.692-0.519l1.716-0.447l1.766,0.084
	l1.765,0.157l1.619,0.605l1.608,0.665l1.403,1.003l1.535,0.87l-0.568,0.024l1.45-0.943l1.439-0.991l1.583-0.689l1.692-0.423
	l1.74-0.254h1.741l1.752,0.278l1.608,0.701l1.644,0.738l1.221,1.245l1.269,1.221l1.039,1.45l0.629,1.644l0.411,1.717l0.218,1.753
	l-0.218,1.752l-0.339,1.704l-0.387,1.681l-0.701,1.583l-0.882,1.487l-0.846,1.524l-1.221,1.233l-1.112,1.293l-1.282,1.148
	l-1.426,0.919l-1.378,1.027l-1.414,0.943l-1.523,0.774l-1.535,0.725l-1.632,0.471l-1.596,0.544l-1.583,0.604L594.13,30.266"/>
<path fill="#E9537D" d="M719.988,32.78c-0.895,0.013-0.629-0.097-1.789-0.084l-1.789,0.254l-1.777-0.109l-1.777-0.048l-1.777,0.205
	l-1.801-0.108l-1.789-0.097l-1.801,0.157h-1.789l-1.788-0.109l-1.813,0.049l-1.717,0.169l-1.728-0.157l-1.741,0.097l-1.716-0.072
	l-1.741,0.012l-1.729,0.049l-1.728-0.072l-1.705,0.121l-1.728,0.012l-1.741-0.06l-1.716,0.157l-1.741-0.193l-1.729,0.097
	l-1.728,0.06l-1.717-0.157l-1.74,0.036l-1.753,0.036l-1.716,0.013l-1.741,0.06l-1.74,0.024l-1.74-0.072l-1.741,0.072l-1.752,0.049
	l-1.741-0.109l-1.765,0.036h-1.656l-1.645-0.024l-1.656-0.013l-1.668,0.109l-1.644-0.036l-1.656-0.061l-1.656,0.193l-1.668-0.097
	l-1.656-0.109l-1.656,0.013l-1.644,0.121l-1.656-0.024l-1.644-0.085l-1.632,0.049l-1.765,0.012l-1.789,0.181l-1.777-0.133
	l-1.777,0.024l-1.753,0.06l-1.765-0.012l-1.608-0.013l-1.584-0.036l-1.595,0.218l-1.608-0.193l-1.596,0.072l-1.583-0.241
	l-1.802,0.121l-1.777-0.242l-1.789-0.206l-1.789-0.145l-1.777-0.17l-1.789-0.218l-1.777-0.205l-1.753-0.363l-1.982-0.362
	l-1.898-0.701l-1.342-0.448l-0.266-0.241l0.35-0.049l0.06-0.181l1.318,0.508l1.945,0.398l1.959,0.363l1.728,0.362l1.753,0.242
	l1.777,0.121l1.765,0.193l1.788,0.085l1.753,0.205l1.801-0.036l1.777,0.145l1.571-0.024l1.583-0.013h1.571l1.596,0.157l1.559-0.024
	l1.62-0.013l1.777-0.06l1.765-0.133l1.777,0.072l1.777-0.097l1.777,0.134l1.788-0.037l1.656,0.097l1.644,0.012l1.632-0.145
	l1.644-0.097l1.656,0.17l1.644-0.049l1.644-0.012l1.656-0.085l1.668,0.242l1.644-0.085l1.656,0.085l1.668-0.036l1.656-0.17h1.668
	l1.741,0.133l1.729,0.134l1.752-0.17l1.729,0.036l1.74,0.157l1.729-0.06l1.753,0.024l1.74-0.145l1.729,0.133l1.753-0.024
	l1.729-0.012l1.74-0.06l1.729,0.012l1.74,0.145l1.729-0.085l1.729,0.133l1.74-0.084l1.729,0.084l1.741,0.013l1.729-0.073h1.728
	l1.717-0.084l1.729,0.048l1.716,0.036l1.717-0.072l1.801,0.145l1.789,0.036l1.777,0.024l1.802-0.109l1.801,0.049l1.801-0.024
	l1.777,0.133l1.801-0.036l1.777-0.133l1.801,0.157c1.149,0.012,0.882,0.012,1.766,0.024L720,32.696L719.988,32.78"/>
<path fill="#E9537D" d="M468.413,32.461c0.894-0.012,0.628,0.037,1.788,0.037l1.789,0.036l1.777-0.049l1.777,0.036l1.789,0.049
	l1.789-0.036l1.801,0.06l1.789-0.242l1.801,0.206l1.789-0.024l1.801-0.097l1.729,0.036l1.729,0.012h1.729l1.729-0.157l1.729-0.012
	l1.729,0.133l1.728-0.133l1.717,0.108l1.729,0.049l1.729-0.085l1.729-0.121l1.729,0.17l1.729-0.218l1.728,0.145l1.729-0.072
	l1.741-0.072l1.74,0.048h1.716l1.741-0.048l1.74,0.108l1.74,0.036l1.741-0.06h1.752l1.741-0.121l1.765,0.024l1.656-0.036
	l1.645,0.121l1.668-0.072l1.656-0.036l1.644,0.036l1.656,0.108l1.668-0.133l1.656-0.012l1.656,0.084l1.656-0.169l1.656,0.169
	l1.645-0.12l1.644,0.145l1.632-0.193l1.777-0.024l1.789,0.133l1.777-0.133l1.789,0.013l1.777,0.108l1.752-0.012l1.596,0.181
	l1.583-0.097l1.584,0.037l1.583,0.036l1.583,0.061l1.571-0.145l1.777-0.121l1.788-0.108l1.777,0.036l1.777-0.218l1.765-0.133
	l1.777-0.157l1.74-0.302l1.729-0.411l1.958-0.375l1.958-0.314l1.318-0.483l0.06,0.157l0.193,0.108l-0.048,0.35l-1.426,0.242
	l-1.862,0.75l-2.006,0.339l-1.741,0.387l-1.765,0.181l-1.777,0.302l-1.777,0.17l-1.788,0.193l-1.789,0.169l-1.813-0.012
	l-1.789,0.097l-1.583,0.229l-1.596-0.024l-1.583,0.121l-1.596-0.084l-1.583,0.072l-1.619-0.206l-1.777,0.134l-1.765-0.134h-1.765
	l-1.765,0.073l-1.777-0.049l-1.788,0.061l-1.644-0.061l-1.644-0.06l-1.644,0.121l-1.644-0.072l-1.656,0.036l-1.644-0.06
	l-1.644-0.012l-1.656-0.06l-1.668,0.084l-1.644-0.169l-1.656,0.193l-1.668-0.121l-1.656,0.06l-1.668-0.06l-1.741,0.049l-1.729,0.012
	l-1.74-0.072l-1.74-0.109l-1.74,0.013l-1.729,0.097l-1.741,0.06l-1.752-0.145l-1.729,0.133l-1.741-0.084h-1.728l-1.753,0.084
	l-1.729-0.072h-1.729l-1.74,0.024l-1.729-0.145l-1.729-0.06l-1.74,0.06h-1.741l-1.729-0.024l-1.728,0.06l-1.717-0.108l-1.729,0.169
	h-1.716l-1.717-0.193l-1.789,0.109l-1.801,0.072l-1.789-0.024l-1.789-0.181l-1.789,0.013l-1.801,0.145l-1.789-0.205l-1.788,0.108
	l-1.789-0.145l-1.801,0.133c-1.149-0.012-0.882-0.036-1.765-0.036l-0.073-0.145L468.413,32.461"/>
<polygon fill="#595757" points="484.295,12.358 485.758,12.382 487.196,12.382 487.45,12.455 487.571,12.612 487.474,12.817 
	486.954,12.817 485.806,12.842 484.476,12.914 484.247,13.881 484.271,14.8 484.211,15.574 484.283,16.432 484.669,17.205 
	485.77,17.519 486.301,17.532 486.882,17.35 487.764,17.133 488.115,16.928 488.308,16.964 488.357,17.157 488.284,17.338 
	487.293,17.774 486.398,17.943 485.806,18.051 484.815,17.87 484.295,17.556 483.884,16.964 483.764,16.432 483.836,15.235 
	483.751,14.075 483.751,13.047 482.494,12.829 482.675,12.479 483.751,12.334 483.775,10.787 483.824,10.496 484.041,10.424 
	484.211,10.545 484.283,10.763 "/>
<path fill="#595757" d="M495.999,17.812l0.024-0.773l-0.809,0.483l-0.375,0.229l-0.629,0.157l-0.689,0.109l-1.003-0.218
	l-0.496-0.242l-0.375-0.58l-0.169-0.605l0.205-0.652l0.544-0.689l0.471-0.266l0.471-0.229l1.063-0.024l0.834-0.024l0.544,0.12
	l0.399,0.037l0.012-0.859l-0.387-0.822l-0.713-0.229l-0.508-0.121l-0.907,0.145l-0.87,0.302l-0.254,0.049l-0.266-0.254l0.761-0.35
	l0.605-0.23l0.966-0.072l0.689,0.06l0.46,0.242l0.375,0.145l0.495,1.04l0.061,0.653l0.013,0.617l-0.036,0.29l0.097,0.798
	l-0.049,1.233l0.689,0.049l0.266,0.06l0.12,0.169l-0.097,0.218l-0.278,0.072L495.999,17.812z M495.999,15.273l-0.786-0.266
	l-0.882-0.048l-0.955,0.084l-0.447,0.145l-0.399,0.302l-0.459,0.508l-0.036,0.374l0.35,0.823l0.375,0.266l0.725,0.072l0.665-0.024
	l0.629-0.266l0.508-0.242l0.689-0.556l0.169-0.75L495.999,15.273"/>
<path fill="#595757" d="M514.143,17.812l0.012-0.773l-0.798,0.483l-0.387,0.229l-0.616,0.157l-0.689,0.109l-1.003-0.218
	l-0.508-0.242l-0.363-0.58l-0.169-0.605l0.193-0.652l0.556-0.689l0.459-0.266l0.484-0.229l1.063-0.024l0.834-0.024l0.544,0.12
	l0.399,0.037l0.012-0.859l-0.387-0.822l-0.725-0.229l-0.508-0.121l-0.895,0.145l-0.87,0.302l-0.266,0.049l-0.254-0.254l0.75-0.35
	l0.617-0.23l0.955-0.072l0.701,0.06l0.46,0.242l0.375,0.145l0.483,1.04l0.072,0.653l0.013,0.617l-0.036,0.29l0.084,0.798
	l-0.036,1.233l0.689,0.049l0.266,0.06l0.12,0.169l-0.097,0.218l-0.278,0.072L514.143,17.812z M514.143,15.273l-0.786-0.266
	l-0.895-0.048l-0.955,0.084l-0.447,0.145l-0.399,0.302l-0.447,0.508l-0.049,0.374l0.35,0.823l0.387,0.266l0.725,0.072l0.665-0.024
	l0.629-0.266l0.495-0.242l0.702-0.556l0.169-0.75L514.143,15.273"/>
<path fill="#595757" d="M568.562,17.812l0.024-0.773l-0.809,0.483l-0.375,0.229l-0.629,0.157l-0.689,0.109L565.08,17.8l-0.496-0.242
	l-0.362-0.58l-0.17-0.605l0.193-0.652l0.544-0.689l0.471-0.266l0.483-0.229l1.051-0.024l0.834-0.024l0.544,0.12l0.399,0.037
	l0.012-0.859l-0.387-0.822l-0.713-0.229l-0.508-0.121l-0.907,0.145l-0.87,0.302l-0.266,0.049l-0.254-0.254l0.75-0.35l0.617-0.23
	l0.955-0.072l0.701,0.06l0.46,0.242l0.375,0.145l0.483,1.04l0.072,0.653l0.013,0.617l-0.036,0.29l0.097,0.798l-0.049,1.233
	l0.689,0.049l0.266,0.06l0.12,0.169l-0.097,0.218l-0.278,0.072L568.562,17.812z M568.562,15.273l-0.786-0.266l-0.895-0.048
	l-0.955,0.084l-0.447,0.145l-0.387,0.302l-0.459,0.508l-0.036,0.374l0.35,0.823l0.375,0.266l0.725,0.072l0.677-0.024l0.617-0.266
	l0.495-0.242l0.702-0.556l0.181-0.75L568.562,15.273"/>
<path fill="#595757" d="M686.475,17.812l0.012-0.773l-0.798,0.483l-0.387,0.229l-0.629,0.157l-0.677,0.109l-1.015-0.218
	l-0.496-0.242l-0.362-0.58l-0.17-0.605l0.193-0.652l0.544-0.689l0.471-0.266l0.483-0.229l1.051-0.024l0.846-0.024l0.532,0.12
	l0.411,0.037l0.013-0.859l-0.387-0.822l-0.725-0.229l-0.508-0.121l-0.894,0.145l-0.871,0.302l-0.266,0.049l-0.254-0.254l0.749-0.35
	l0.617-0.23l0.955-0.072l0.702,0.06l0.459,0.242l0.375,0.145l0.483,1.04l0.073,0.653v0.617l-0.036,0.29l0.097,0.798l-0.036,1.233
	l0.688,0.049l0.266,0.06l0.121,0.169l-0.097,0.218l-0.291,0.072L686.475,17.812z M686.464,15.273l-0.774-0.266l-0.894-0.048
	l-0.955,0.084l-0.447,0.145l-0.399,0.302l-0.459,0.508l-0.036,0.374l0.35,0.823l0.387,0.266l0.725,0.072l0.665-0.024l0.629-0.266
	l0.496-0.242l0.701-0.556l0.169-0.75L686.464,15.273"/>
<path fill="#595757" d="M506.127,9.899l-0.024,1.221l0.013,1.221v1.245l0.048,1.234l-0.012,1.245l-0.036,1.257l0.737-0.048
	l0.266,0.108l0.108,0.181l-0.121,0.169l-0.254,0.073l-1.233,0.012l-0.024-0.64l0.024-0.412l-0.423,0.581l-0.605,0.362l-0.628,0.194
	l-0.702,0.133l-0.652-0.157l-0.726-0.242l-0.544-0.483l-0.519-0.581l-0.363-1.475l0.036-0.798l0.339-0.665l1.051-1.076l0.605-0.229
	l0.773-0.17l0.653,0.133l0.665,0.218l0.29,0.23l0.387,0.254l0.338,0.423l0.06-1.112l-0.06-0.375l-0.024-1.487l-0.677-0.06
	l-0.266-0.049l-0.121-0.181l0.375-0.29L506.127,9.899z M505.632,15.097l-0.073-0.447l-0.084-0.483l-0.255-0.52l-0.398-0.314
	l-0.471-0.447l-0.46-0.084l-0.592-0.134l-0.35-0.024l-0.495,0.205l-0.423,0.218l-0.35,0.339l-0.52,0.773l-0.217,0.919l0.229,0.919
	l0.072,0.314l0.411,0.495l0.411,0.266l0.327,0.242l0.398,0.145h0.508l0.823-0.193l0.822-0.447l0.326-0.52l0.193-0.278l0.061-0.495
	L505.632,15.097"/>
<polygon fill="#595757" points="520.576,15.451 520.503,16.08 520.563,16.649 520.672,17.253 520.587,17.808 519.355,17.797 
	519.065,17.76 518.992,17.567 519.113,17.397 519.355,17.265 520.08,17.301 520.104,16.757 520.14,16.407 520.055,15.935 
	520.116,15.295 520.092,14.569 520.055,13.844 520.104,13.191 520.031,12.792 520.092,12.176 520.092,11.801 520.164,11.052 
	520.08,10.423 519.355,10.435 519.088,10.35 519.028,10.157 519.065,9.952 519.355,9.891 520.599,9.891 520.635,11.028 
	520.648,11.39 520.624,11.886 520.66,12.285 520.576,12.804 520.599,13.566 520.635,14.436 521.24,14.182 521.724,13.832 
	522.134,13.433 522.642,13.131 522.835,12.865 522.582,12.853 522.328,12.792 522.207,12.623 522.292,12.406 522.582,12.321 
	523.198,12.37 524.298,12.321 524.649,12.623 524.588,12.828 524.298,12.889 523.657,12.853 523.126,13.3 522.618,13.723 
	522.255,13.989 521.905,14.328 521.627,14.629 521.905,14.992 522.219,15.295 522.485,15.5 522.751,15.814 523.066,16.165 
	523.367,16.382 523.766,16.806 524.225,17.301 524.842,17.325 525.145,17.337 525.217,17.567 525.108,17.748 524.842,17.821 
	524.431,17.772 524.045,17.821 523.524,17.76 523.114,17.797 522.835,17.76 522.787,17.567 522.86,17.386 523.114,17.325 
	523.513,17.276 523.114,16.878 522.751,16.503 522.328,16.068 521.953,15.742 521.397,15.258 520.987,15.004 "/>
<polygon fill="#E9537D" points="584.072,15.451 583.999,16.08 584.048,16.649 584.156,17.253 584.072,17.808 582.839,17.797 
	582.561,17.76 582.476,17.567 582.597,17.397 582.839,17.265 583.576,17.301 583.588,16.757 583.624,16.407 583.54,15.935 
	583.613,15.295 583.588,14.569 583.54,13.844 583.588,13.191 583.528,12.792 583.576,12.176 583.576,11.801 583.649,11.052 
	583.576,10.423 582.839,10.435 582.573,10.35 582.513,10.157 582.561,9.952 582.839,9.891 584.096,9.891 584.12,11.028 
	584.145,11.39 584.108,11.886 584.145,12.285 584.06,12.804 584.084,13.566 584.12,14.436 584.724,14.182 585.22,13.832 
	585.631,13.433 586.139,13.131 586.332,12.865 586.078,12.853 585.824,12.792 585.692,12.623 585.788,12.406 586.078,12.321 
	586.682,12.37 587.782,12.321 588.134,12.623 588.073,12.828 587.782,12.889 587.154,12.853 586.623,13.3 586.103,13.723 
	585.752,13.989 585.389,14.328 585.112,14.629 585.402,14.992 585.703,15.295 585.982,15.5 586.235,15.814 586.562,16.165 
	586.852,16.382 587.263,16.806 587.71,17.301 588.339,17.325 588.629,17.337 588.714,17.567 588.605,17.748 588.339,17.821 
	587.928,17.772 587.529,17.821 587.009,17.76 586.61,17.797 586.332,17.76 586.284,17.567 586.345,17.386 586.61,17.325 
	587.009,17.276 586.61,16.878 586.248,16.503 585.813,16.068 585.438,15.742 584.894,15.258 584.483,15.004 "/>
<polygon fill="#595757" points="532.581,17.812 532.629,17.087 531.976,17.558 531.493,17.8 530.901,18.006 530.212,18.018 
	529.571,17.885 529.015,17.619 528.665,16.967 528.496,16.314 528.459,15.625 528.532,15.178 528.459,14.585 528.483,14.041 
	528.604,13.461 528.519,12.881 527.794,12.917 527.528,12.796 527.456,12.614 527.528,12.446 527.794,12.361 529.039,12.349 
	529.028,13.667 528.991,14.15 529.015,14.996 528.979,15.685 529.051,16.314 529.354,17.172 529.692,17.462 530.187,17.51 
	530.78,17.51 531.493,17.232 531.976,16.954 532.569,16.314 532.593,15.636 532.629,15.153 532.618,14.561 532.629,14.017 
	532.557,12.893 531.59,12.917 531.324,12.796 531.251,12.614 531.3,12.409 531.59,12.325 533.113,12.337 533.125,13.582 
	533.173,14.017 533.113,14.815 533.161,15.516 533.101,16.06 533.125,17.293 533.548,17.293 533.802,17.401 533.875,17.558 
	533.838,17.764 533.56,17.849 "/>
<polygon fill="#595757" points="538.095,12.358 538.082,13.168 538.349,12.927 538.614,12.636 539.122,12.395 539.593,12.285 
	540.113,12.177 540.645,12.274 541.237,12.406 541.551,12.733 541.866,13.047 542.132,13.954 542.204,14.485 542.18,15.066 
	542.144,16.178 542.192,16.577 542.168,17.29 542.603,17.314 542.869,17.386 542.941,17.568 542.881,17.737 542.603,17.834 
	541.189,17.822 540.911,17.737 540.814,17.568 540.899,17.375 541.189,17.29 541.636,17.302 541.624,16.214 541.672,15.574 
	541.636,15.126 541.624,14.05 541.539,13.458 541.213,13.096 540.802,12.733 540.053,12.66 539.557,12.781 539.037,12.927 
	538.614,13.277 538.336,13.567 538.082,13.966 538.118,14.896 538.058,15.537 538.131,16.178 538.107,16.637 538.118,17.29 
	538.989,17.35 539.049,17.568 538.989,17.774 538.711,17.822 536.97,17.797 536.717,17.725 536.596,17.568 536.692,17.35 
	536.97,17.278 537.575,17.302 537.575,16.758 537.599,16.19 537.539,15.102 537.599,14.618 537.563,14.002 537.575,12.89 
	537.128,12.878 536.861,12.793 536.765,12.612 536.849,12.443 537.128,12.37 "/>
<polygon fill="#595757" points="674.139,12.358 674.127,13.168 674.393,12.927 674.67,12.636 675.166,12.395 675.638,12.285 
	676.169,12.177 676.701,12.274 677.281,12.406 677.596,12.733 677.922,13.047 678.176,13.954 678.26,14.485 678.237,15.066 
	678.188,16.178 678.237,16.577 678.224,17.29 678.659,17.314 678.913,17.386 678.986,17.568 678.926,17.737 678.659,17.834 
	677.233,17.822 676.967,17.737 676.859,17.568 676.955,17.375 677.233,17.29 677.68,17.302 677.68,16.214 677.729,15.574 
	677.68,15.126 677.669,14.05 677.596,13.458 677.258,13.096 676.847,12.733 676.109,12.66 675.601,12.781 675.094,12.927 
	674.67,13.277 674.38,13.567 674.139,13.966 674.175,14.896 674.102,15.537 674.175,16.178 674.151,16.637 674.163,17.29 
	675.033,17.35 675.106,17.568 675.045,17.774 674.755,17.822 673.015,17.797 672.773,17.725 672.64,17.568 672.737,17.35 
	673.015,17.278 673.631,17.302 673.631,16.758 673.643,16.19 673.595,15.102 673.655,14.618 673.607,14.002 673.631,12.89 
	673.172,12.878 672.918,12.793 672.809,12.612 672.906,12.443 673.172,12.37 "/>
<polygon fill="#595757" points="559.779,17.812 559.15,17.812 558.763,16.688 558.522,15.818 558.388,15.552 557.965,14.392 
	557.784,14.767 557.579,15.552 557.349,16.072 557.228,16.7 556.817,17.849 556.152,17.825 555.85,16.592 555.765,15.89 
	555.596,15.31 555.343,14.114 555.161,13.413 555.052,12.881 554.436,12.614 554.52,12.446 554.774,12.337 556.237,12.361 
	556.515,12.434 556.575,12.614 555.572,12.893 555.729,13.557 555.814,14.259 556.007,14.815 556.212,15.685 556.406,16.507 
	556.502,17.124 556.901,15.988 557.119,15.431 557.24,14.851 557.651,13.848 558.316,13.848 558.715,14.767 558.799,15.383 
	559.065,15.975 559.44,17.099 559.549,16.543 559.706,15.697 559.827,14.875 560.033,14.295 560.201,13.436 560.37,12.881 
	559.283,12.614 559.38,12.409 559.67,12.361 561.12,12.385 561.434,12.409 561.507,12.614 561.398,12.809 560.842,12.881 
	560.612,14.114 560.419,14.682 560.262,15.299 560.141,16.06 560.033,16.579 "/>
<polygon fill="#595757" points="623.264,17.812 622.647,17.812 622.26,16.688 622.006,15.818 621.873,15.552 621.462,14.392 
	621.269,14.767 621.075,15.552 620.846,16.072 620.725,16.7 620.314,17.849 619.637,17.825 619.347,16.592 619.262,15.89 
	619.093,15.31 618.839,14.114 618.658,13.413 618.549,12.881 617.932,12.614 618.005,12.446 618.271,12.337 619.733,12.361 
	620,12.434 620.072,12.614 619.057,12.893 619.226,13.557 619.299,14.259 619.492,14.815 619.71,15.685 619.891,16.507 
	619.987,17.124 620.398,15.988 620.616,15.431 620.725,14.851 621.136,13.848 621.812,13.848 622.212,14.767 622.296,15.383 
	622.55,15.975 622.937,17.099 623.033,16.543 623.203,15.697 623.323,14.875 623.529,14.295 623.686,13.436 623.868,12.881 
	622.78,12.614 622.876,12.409 623.154,12.361 624.617,12.385 624.919,12.409 625.004,12.614 624.895,12.809 624.339,12.881 
	624.097,14.114 623.904,14.682 623.759,15.299 623.638,16.06 623.529,16.579 "/>
<path fill="#E9537D" d="M597.494,15.097v0.556l-0.23,0.568l-0.218,0.508l-0.411,0.435l-0.955,0.641l-0.483,0.12l-0.653,0.121
	l-0.617-0.108l-0.532-0.109l-0.58-0.302l-0.362-0.375l-0.617-0.774l-0.169-0.725l-0.085-0.556l0.145-1.015l0.351-0.532l0.375-0.508
	l0.955-0.653l0.544-0.108l0.592-0.108l0.568,0.097l0.568,0.108l0.387,0.242l0.581,0.398l0.314,0.448l0.326,0.508L597.494,15.097z
	 M596.986,15.097l0.024-0.508l-0.193-0.423l-0.182-0.435l-0.362-0.35l-0.254-0.29l-0.532-0.254l-0.943-0.121H594l-0.387,0.157
	l-0.411,0.133l-0.411,0.375l-0.278,0.46l-0.266,0.35l-0.157,0.906l0.108,0.471l0.097,0.448l0.508,0.798l0.35,0.29l0.556,0.29
	l0.834,0.121l0.931-0.169l0.326-0.181l0.471-0.326l0.35-0.387l0.266-0.532L596.986,15.097"/>
<path fill="#595757" d="M633.474,15.097v0.556l-0.242,0.568l-0.206,0.508l-0.423,0.435l-0.955,0.641l-0.484,0.12l-0.64,0.121
	l-0.617-0.108l-0.532-0.109l-0.58-0.302l-0.362-0.375l-0.617-0.774l-0.169-0.725l-0.085-0.556l0.133-1.015l0.363-0.532l0.375-0.508
	l0.955-0.653l0.532-0.108l0.604-0.108l0.568,0.097l0.568,0.108l0.387,0.242l0.581,0.398l0.314,0.448l0.326,0.508L633.474,15.097z
	 M632.966,15.097l0.012-0.508l-0.182-0.423l-0.181-0.435l-0.362-0.35l-0.266-0.29l-0.531-0.254l-0.943-0.121h-0.532l-0.399,0.157
	l-0.399,0.133l-0.411,0.375l-0.278,0.46l-0.266,0.35l-0.157,0.906l0.108,0.471l0.085,0.448l0.508,0.798l0.363,0.29l0.556,0.29
	l0.823,0.121l0.943-0.169l0.326-0.181l0.459-0.326l0.351-0.387l0.277-0.532L632.966,15.097"/>
<path fill="#E9537D" d="M603.573,12.375l-0.024,1.208l0.036,0.435l-0.024,0.798l-0.049,0.35l0.037,0.895l0.06,1.221l0.471,0.084
	l0.556-0.072l0.556,0.085l0.483-0.037l0.339,0.218l-0.339,0.242h-1.172l-1.185,0.012h-1.172l-1.172,0.024l-0.327-0.278l0.496-0.229
	l0.871-0.036l0.435,0.06l0.483-0.17l0.121-0.991l0.048-0.508l-0.036-0.592l0.024-0.653l-0.036-0.447v-1.1l-1.547,0.024l-0.242-0.133
	l-0.049-0.387l0.291-0.084l1.04,0.012L603.573,12.375z M603.549,9.631l0.133,0.375l-0.145,0.967l-0.737,0.013l0.012-1.355H603.549"
	/>
<path fill="#595757" d="M667.057,12.375l-0.024,1.208l0.049,0.435l-0.024,0.798l-0.061,0.35l0.049,0.895l0.06,1.221l0.46,0.084
	l0.556-0.072l0.568,0.085l0.483-0.037l0.339,0.218l-0.339,0.242H668l-1.185,0.012h-1.172l-1.185,0.024l-0.326-0.278l0.496-0.229
	l0.882-0.036l0.423,0.06l0.484-0.17l0.133-0.991l0.048-0.508l-0.048-0.592l0.036-0.653l-0.049-0.447l0.013-1.1l-1.56,0.024
	l-0.229-0.133l-0.06-0.387l0.29-0.084l1.039,0.012L667.057,12.375z M667.045,9.631l0.12,0.375l-0.133,0.967l-0.737,0.013
	l0.012-1.355H667.045"/>
<path fill="#595757" d="M694.266,12.375l-0.012,1.208l0.036,0.435l-0.024,0.798l-0.06,0.35l0.049,0.895l0.06,1.221l0.46,0.084
	l0.556-0.072l0.568,0.085l0.483-0.037l0.339,0.218l-0.339,0.242h-1.185l-1.172,0.012h-1.172l-1.185,0.024l-0.314-0.278l0.484-0.229
	l0.882-0.036l0.423,0.06l0.484-0.17l0.12-0.991l0.049-0.508l-0.024-0.592l0.024-0.653l-0.049-0.447v-1.1l-1.535,0.024l-0.254-0.133
	l-0.049-0.387l0.302-0.084l1.027,0.012L694.266,12.375z M694.255,9.631l0.12,0.375l-0.145,0.967l-0.725,0.013l0.012-1.355H694.255"
	/>
<polygon fill="#595757" points="650.414,12.712 650.522,12.458 650.861,12.458 650.969,12.712 650.921,12.99 650.921,13.365 
	650.957,13.619 650.861,13.872 650.51,13.897 650.401,13.679 650.341,13.256 650.039,13.026 649.604,12.761 648.648,12.64 
	648.189,12.64 647.585,12.809 647.235,12.978 646.968,13.244 646.883,13.667 647.041,13.957 647.343,14.296 647.984,14.537 
	648.491,14.574 649.168,14.707 650.026,14.864 650.462,15.106 650.957,15.456 651.139,15.915 651.223,16.303 651.005,16.979 
	650.594,17.511 649.676,17.922 649.157,17.958 648.6,18.03 648.032,17.994 647.476,17.85 647.053,17.632 646.618,17.414 
	646.352,17.801 646.062,17.487 646.098,17.028 646.062,16.387 646.618,16.314 646.787,16.798 647.065,17.125 647.476,17.305 
	647.96,17.499 648.648,17.523 649.712,17.439 650.208,17.136 650.534,16.894 650.679,16.303 650.631,15.867 650.184,15.529 
	649.882,15.335 649.362,15.226 648.673,15.13 647.803,14.949 647.271,14.84 646.618,14.344 646.461,14.018 646.328,13.643 
	646.606,12.966 647.017,12.555 647.79,12.301 648.515,12.168 649.579,12.289 649.942,12.458 "/>
<polygon fill="#595757" points="655.973,9.903 655.936,10.98 655.9,11.475 655.949,12.08 655.949,13.18 656.359,12.756 
	656.939,12.357 657.411,12.26 657.991,12.152 658.547,12.285 659.031,12.418 659.792,13.034 659.937,13.53 660.046,14.002 
	660.022,14.714 660.034,15.234 660.034,16.202 659.986,16.83 660.034,17.313 660.662,17.313 660.917,17.386 661.025,17.567 
	660.929,17.749 660.662,17.797 659.381,17.772 658.656,17.749 658.56,17.567 658.668,17.386 659.539,17.302 659.526,16.382 
	659.514,15.766 659.514,15.307 659.55,14.436 659.49,13.989 659.139,13.059 658.656,12.828 657.955,12.671 657.375,12.732 
	656.976,13.01 656.492,13.337 656.238,13.687 656.009,13.941 655.973,14.424 656.009,15.053 655.96,15.56 656.009,16.418 
	655.997,17.277 656.577,17.289 656.867,17.35 656.939,17.567 656.831,17.724 656.577,17.797 655.223,17.845 654.559,17.772 
	654.607,17.422 655.417,17.277 655.477,16.733 655.428,15.935 655.465,15.113 655.453,14.57 655.501,13.784 655.453,13.18 
	655.501,12.648 655.477,11.801 655.538,11.438 655.477,10.967 655.441,10.435 654.728,10.411 654.486,10.338 654.413,10.158 
	654.486,9.988 654.728,9.903 "/>
</svg>
