<?xml version="1.0" encoding="utf-8"?>
<!-- Generator: Adobe Illustrator 27.0.1, SVG Export Plug-In . SVG Version: 6.00 Build 0)  -->
<svg version="1.1" id="레이어_1" xmlns="http://www.w3.org/2000/svg" xmlns:xlink="http://www.w3.org/1999/xlink" x="0px"
	 y="0px" viewBox="0 0 720 545.64" enable-background="new 0 0 720 545.64" xml:space="preserve">
<path d="M97.892,116.872l3.47,1.427l1.429,3.5v2.827h7.608V12.74H0v113.372h7.639v-4.313l1.427-3.5l3.47-1.427H97.892z
	 M58.712,24.401l1.457-3.498l3.5-1.429h34.223l3.47,1.429l1.429,3.498v31.513l-1.429,3.468l-3.47,1.459H63.669l-3.5-1.459
	l-1.457-3.468V24.401z M58.712,72.501l1.457-3.498l3.5-1.429h34.223l3.47,1.429l1.429,3.498v32.592l-1.429,3.441l-3.47,1.457H63.669
	l-3.5-1.457l-1.457-3.441V72.501z M7.639,24.401l1.427-3.498l3.47-1.429h33.816l3.47,1.429l1.429,3.498v31.513l-1.429,3.468
	l-3.47,1.459H12.535l-3.47-1.459l-1.427-3.468V24.401z M7.639,105.093V72.501l1.427-3.498l3.47-1.429h33.816l3.47,1.429l1.429,3.498
	v32.592l-1.429,3.441l-3.47,1.457H12.535l-3.47-1.457L7.639,105.093z"/>
<path d="M252.256,82.937l3.468,1.457l1.457,3.441v3.585h7.639V32.271h-48.742l-3.47-1.457l-1.427-3.47V1.778l1.165-0.495
	l0.817-0.351l-1.021-0.116L203.688,0v27.344l-1.429,3.47l-3.47,1.457h-47.954v58.42h7.608v-2.856l1.457-3.441l3.439-1.457h35.449
	l3.47,1.457l1.429,3.441v43.524h7.493V87.835l1.427-3.441l3.47-1.457H252.256z M203.688,71.567l-1.429,3.5l-3.47,1.427H163.34
	l-3.439-1.427l-1.457-3.5V43.611l1.457-3.468l3.439-1.459h35.449l3.47,1.459l1.429,3.468V71.567z M211.181,71.567V43.611
	l1.427-3.468l3.47-1.459h36.179l3.468,1.459l1.457,3.468v27.956l-1.457,3.5l-3.468,1.427h-36.179l-3.47-1.427L211.181,71.567z"/>
<path d="M365.132,20.725c-6.939,8.63-21.836,24.197-32.273,32.681c-4.08,3.237-7.345,5.772-7.345,12.361
	c0,3.265,1.048,5.567,3.235,7.491l8.484,7.055l1.778,1.4c26.266,22.505,36.12,36.994,42.358,46.789l7.756-7.055
	c-4.665-6.064-10.03-13.001-20.174-23.175c-7.375-7.521-21.047-19.562-26.617-24.4l-0.292-0.235
	c-3.206-2.272-6.325-4.489-6.325-8.92c0-2.973,1.196-4.955,5.132-8.571c16.382-15.247,30.579-28.453,43.728-44.691l-7.434-8.336
	C373.06,9.882,370.057,14.692,365.132,20.725"/>
<path d="M571.237,92.266l-5.044-7.578c-5.334,10.087-14.548,25.798-28.015,25.798c-6.268,0-9.678-3.788-9.678-10.64
	c0-0.961,0.057-4.518,0.902-9.765v-0.263c2.187-13.293,2.479-14.984,2.479-19.007c0-3.119-0.874-13.234-12.156-13.234
	c-8.018,0-16.617,4.722-24.983,10.318l-4.665,0.758l-0.466-4.546c6.735-16.297,17.201-36.645,25.451-51.251L505.935,7.9
	l-1.982,4.868c-2.886,7.405-4.489,11.487-6.646,16.355c-3.761,8.745-18.104,40.901-28.54,64.425
	c-4.432,9.971-8.251,18.571-10.466,23.439l8.016,3.091c10.409-24.079,13.731-31.572,22.681-40.522
	c4.315-4.315,15.247-14.169,25.684-14.169c6.208,0,9.59,4.548,9.59,8.834l-1.516,9.678c-1.165,7.26-1.808,13.731-1.808,16.092
	c0,11.165,6.035,17.841,16.092,17.841c5.073,0,10.32-1.778,15.946-5.422C562.316,106.289,566.892,99.177,571.237,92.266"/>
<path d="M699.449,99.641c4.139,1.603,8.92,3.703,18.103,9.27l2.448-7.754c-9.532-4.809-15.857-7.083-22.796-9.329l-2.448-3.324
	c-1.311-16.937-1.516-30.579-1.516-41.833l2.886-3.468c8.891-1.37,14.08-2.42,18.686-3.354h0.117l-0.351-7.987
	c-3.877,1.779-8.512,3.498-16.384,5.101c-3.002,0.584-4.955-1.281-4.722-4.605c0.379-4.868,1.078-12.886,2.594-20.407l-8.425-2.245
	c-0.495,7.142-1.311,18.046-1.632,25.508l-3.936,4.082c-2.507,0.146-5.247,0.205-9.795,0.205c-8.455,0-12.361-0.584-16.734-1.487
	l1.342,7.872l5.247,0.059c6.735,0,14.138-0.322,20.553-0.875l3.206,2.507c0,7.493,0.205,11.662,1.224,28.627l0.584,10.028
	l-3.237,3.003c-4.051-0.699-8.512-1.165-13.089-1.165c-16.033,0-21.718,8.308-21.718,15.45c0,15.421,22.827,15.887,25.449,15.887
	c17.725,0,19.708-8.978,20.348-17.024L699.449,99.641 M685.311,110.835c-2.041,2.13-5.277,3.149-9.912,3.149
	c-9.679,0-19.416-3.906-19.416-11.37c0-1.544,0.699-9.299,14.051-9.299c3.441,0,9.067,0.845,15.393,2.244l2.74,3.528
	C688.254,104.218,687.933,108.125,685.311,110.835"/>
<path d="M616.482,70.576c0,13.79,1.603,34.079,6.092,50.434l5.217-1.311c0.525-3.936,1.137-7.377,4.753-16.88
	c2.448-6.356,4.489-10.494,5.977-13.526l0.495-1.02l-4.343-4.811l-3.119,6.53l-0.786,1.633c-1.37,2.886-6.21,2.477-6.763-2.041
	c-0.642-5.16-1.08-11.049-1.08-20.028c0-17.17,2.596-33.554,9.037-56.205l-7.462-2.45C619.163,31.339,616.482,51.424,616.482,70.576
	"/>
<path d="M84.163,240.854c8.774,11.925,18.22,27.403,23.583,56.934l8.599-2.886c-2.185-10.377-8.22-36.819-25.07-56.466
	L84.163,240.854"/>
<path d="M44.022,291.753c-5.132,17.843-9.272,25.538-13.761,25.538c-6.792,0-20.144-15.654-20.144-51.746
	c0-11.544,1.457-19.706,2.302-24.254l-9.678-3.032c-0.292,4.285-0.73,10.612-0.73,19.386c0,19.766,2.1,34.576,6.414,45.303
	c0.116,0.292,9.066,23.321,21.542,23.321c9.913,0,17.083-19.386,20.407-28.686L44.022,291.753"/>
<path d="M250.71,307.35c11.106-8.279,16.121-23.846,16.121-35.593c0-27.49-25.538-36.732-37.198-36.732
	c-11.37,0-29.997,5.276-53.523,12.01c-7.055,1.923-17.667,3.79-26.586,4.722l5.217,8.804c5.831-1.05,8.163-1.575,18.425-4.722
	c26.412-8.308,45.943-14.197,56.584-14.197c16.122,0,29.27,13.701,29.27,30.581c0,3.614-0.904,22.097-18.658,32.592
	c-15.8,9.27-38.51,10-50.404,10.058l5.452,9.327C207.942,322.976,233.363,320.412,250.71,307.35"/>
<path d="M396.647,265.953l-6.356,4.724c4.809,5.742,12.389,15.391,12.389,28.218c0,16.909-14.343,30.115-32.65,30.115
	c-19.969,0-27.024-14.138-27.024-26.238c0-3.468,0.407-7.695,0.845-11.106c0.292-2.536,2.069-4.11,5.423-4.169
	c5.247-0.087,14.576-0.525,26.528-2.448l1.429-9.299c-5.365,1.603-13.964,3.788-27.17,4.313c-2.74,0.117-4.722-2.185-4.286-4.664
	c0.817-5.247,1.779-10.845,3.382-19.882l4.664-3.731c4.694-0.292,10.379-0.875,22.944-3.178l0.641-8.133
	c-5.16,1.69-11.224,3.324-20.466,4.139c-3.06,0.292-4.868-1.952-4.343-4.868c1.866-9.619,3.703-17.608,6.181-24.167l-11.953-3.557
	c-0.233,10.699-2.799,25.101-3.265,27.577c-0.728,3.907-1.982,5.306-4.489,5.073c-4.955-0.438-11.603-1.34-22.243-4.605
	l-0.174,7.317c5.509,2.215,10.699,3.585,20.873,4.402l3.206,4.051c-0.786,5.132-2.215,14.227-3.237,20.232
	c-0.407,2.681-1.544,3.703-3.818,3.557c-6.356-0.379-12.302-1.429-17.841-3.178v8.395c3.585,0.758,7.754,1.575,15.946,2.217
	c2.479,0.203,3.761,1.399,3.498,4.664c-0.205,2.945-0.525,7.025-0.525,10.727c0,2.799,0.438,12.507,6.327,21.224
	c7.288,10.786,20.873,12.418,28.335,12.418c23.321,0,42.241-16.761,42.241-37.344C411.659,282.979,401.543,271.202,396.647,265.953"
	/>
<path d="M10.292,482.466c0,17.259,3.818,40.872,12.243,53.029l5.219-2.333c2.973-9.153,6.354-18.861,10.932-28.19l-6.153-4.635
	c-1.399,4.43-2.973,8.599-4.722,12.477c-1.429,3.206-6.267,2.625-7.258-1.02c-2.158-7.93-3.208-16.85-3.208-27.111
	c0-19.766,3.907-35.712,8.338-51.571l-8.425-3.731C14.75,440.692,10.292,461.828,10.292,482.466"/>
<path d="M97.02,466.374c9.649-2.157,11.864-2.71,15.742-4.051l-0.292-8.308c-4.343,1.952-8.541,3.265-13.731,4.548
	c-2.827,0.699-5.306-1.459-5.363-4.402c-0.089-8.95-0.263-18.163-1.633-27.024l-9.562-0.904c2.333,11.982,3.003,22.563,3.293,29.88
	c0.146,2.799-1.078,5.219-3.877,5.511c-4.023,0.407-9.532,0.932-16.558,0.932c-7.58,0-12.302-0.438-15.421-0.845l3.352,8.251
	c3.295,0.233,4.665,0.233,6.996,0.233c7.055,0,14.14-0.379,21.631-1.196l4.053,3.091c0,10.174-0.233,25.828-3.936,38.51
	c-5.014,17.258-11.457,23.263-18.338,28.656l7.697,5.103c15.158-16.822,22.417-30.348,22.651-73.93L97.02,466.374"/>
<path d="M196.341,462.002c5.158-1.165,12.738-3.089,25.478-8.016v-7.317c-10.29,4.4-15.859,6.18-19.531,7.171
	c-3.091,0.786-5.569-1.662-4.868-4.607c1.457-5.829,3.936-16.005,5.073-20.405l-9.009-3.907c-0.059,8.832-2.681,20.435-4.665,28.978
	l-4.226,3.439c-4.781,0.584-10.35,0.875-16.501,0.875c-4.285,0-6.5-0.146-8.541-0.468l0.699,7.58l3.178,0.059
	c3.003,0,7.726-0.146,17.987-1.05l3.47,4.432c-2.858,9.736-6.706,22.592-13.439,38.83c-6.939,16.967-11.544,24.197-15.889,30.376
	l8.834,2.274c9.445-15.713,13.992-28.978,28.19-74.95L196.341,462.002"/>
<path d="M209.78,522.202c0-3.294,0.233-6.005,0.523-7.957l-5.713-2.304c-1.253,5.16-1.923,9.359-1.923,12.507
	c0,10.64,9.503,16.064,28.131,16.064c8.804,0,17.987-0.963,27.987-2.916l1.137-7.959c-11.895,2.799-27.956,3.82-30.755,3.82
	C216.833,533.456,209.78,529.346,209.78,522.202"/>
<path d="M234.151,433.521c4.256,4.315,9.386,10.788,12.01,14.053v0.028l5.276-3.644c-3.76-5.073-7.726-9.767-12.389-14.635
	L234.151,433.521"/>
<path d="M218.556,474.304l-0.292,6.852c8.745-1.721,14.955-2.041,24.167-2.041c9.299,0,12.827,0.379,16.704,0.963l0.174-7.114
	c-2.827-0.584-4.897-0.904-11.573-0.904C236.746,472.061,233.014,472.498,218.556,474.304"/>
<path d="M251.206,424.978c3.847,4.461,8.891,11.108,11.165,14.081v0.028l5.363-3.818c-3.324-5.043-7.288-9.913-11.573-14.226
	L251.206,424.978"/>
<path d="M370.727,468.271c-3.294,0-6.034,0.351-8.453,0.904c-4.11,0.932-6.297-3.557-3.616-6.064
	c6.268-5.975,12.624-12.359,21.457-21.309l2.041-2.071c0.786-0.786,3.906-3.498,6.968-6.267l0.466-0.379l-3.761-6.064
	c-11.66,3.527-29.239,8.571-60.082,8.366l2.448,7.987c14.46-0.874,26.529-2.653,34.517-4.256c3.644-0.758,5.772,3.208,3.235,6.123
	c-12.477,14.284-31.367,33.67-56.205,52.97l6.763,5.596c5.014-5.393,27.695-28.19,52.911-28.19
	c21.224,0,28.773,13.439,28.773,24.925c0,11.633-7.26,19.329-12.098,23.352c-2.479,2.1-5.393,1.311-6.968-1.37
	c-3.672-6.502-11.398-16.704-26.908-16.704c-12.943,0-19.706,7.841-19.706,15.596c0,14.081,18.192,17.841,27.811,17.841
	c18.891,0,45.536-12.097,45.536-39.004C405.856,475.005,383.759,468.271,370.727,468.271 M369.3,531.676
	c-3.528,0.642-6.793,0.963-9.913,0.963c-8.105,0-19.853-4.169-19.853-11.69c0-4.256,4.781-8.804,11.836-8.804
	c11.836,0,17.754,8.834,20.581,14.315L369.3,531.676z"/>
<path d="M553.601,421.772c3.03,5.277,6.208,11.021,8.044,15.772l5.306-3.119c-1.662-3.731-4.518-9.678-8.279-15.508L553.601,421.772
	"/>
<path d="M463.317,483.749c0,12.537,2.623,39.356,12.243,53.057l5.247-2.361c3.79-11.368,7.639-21.368,10.932-28.307l-6.181-4.576
	c-1.632,4.868-3.294,9.211-5.043,13.147c-1.429,3.119-5.772,2.333-6.822-1.194c-2.914-10.146-3.293-20.32-3.293-27.549
	c0-19.882,4.11-36.033,8.192-51.541l-8.279-3.761C467.952,441.334,463.317,463.022,463.317,483.749"/>
<path d="M549.87,466.899c5.13-1.078,10.697-2.39,15.537-4.167l-0.233-8.192c-5.073,2.302-9.503,3.76-14.984,4.927l-4.14-3.295
	c-0.059-8.571-0.407-19.677-1.719-28.51l-9.592-0.904c2.304,12.098,3.062,22.126,3.441,31.134l-3.528,4.228
	c-8.251,0.815-11.631,0.815-17.434,0.815c-8.804,0-12.331-0.146-14.896-0.436l3.295,8.279c10.699,0.349,19.24,0,28.919-1.254
	l3.701,4.023c0,3.79-0.116,9.037-0.407,15.48c-1.749,34.079-12.448,44.573-21.019,51.511l7.608,5.103
	c11.108-12.302,22.302-25.859,22.069-74.484L549.87,466.899"/>
<path d="M569.168,414.689c3.701,5.423,6.938,10.204,9.327,15.364l4.781-3.265c-2.011-3.877-5.422-9.913-9.27-14.927L569.168,414.689
	"/>
<polygon fill="#56C0D7" points="476.669,247.937 473.84,245.11 473.84,235.986 474.511,235.287 475.21,235.287 475.911,235.986 
	475.911,237.763 477.543,237.763 478.242,238.464 478.242,239.018 477.543,239.689 475.911,239.689 475.911,244.964 
	476.959,246.014 477.543,245.955 478.242,246.626 478.242,247.181 477.66,247.881 "/>
<path fill="#56C0D7" d="M493.138,244.703l-3.352,3.382l-3.352-3.06v-0.03l3.352-3.06h1.313v-0.845l-1.313-1.603l-1.078,1.02
	l-0.612,0.612h-0.758l-0.699-0.728l3.148-2.829l3.352,3.382V244.703z M491.099,244.557v-1.048h-1.313l-1.253,1.311l1.253,1.342
	L491.099,244.557z"/>
<polygon fill="#56C0D7" points="508.124,247.879 507.453,247.879 506.752,247.18 506.752,241.087 505.499,239.484 504.188,241.087 
	504.188,247.18 503.458,247.879 502.818,247.879 502.117,247.18 502.117,240.941 505.499,237.561 508.823,240.941 508.823,247.18 
	"/>
<path fill="#56C0D7" d="M524.362,244.703l-3.383,3.382l-3.352-3.06v-0.03l3.352-3.06h1.254v-0.845l-1.254-1.603l-1.108,1.02
	l-0.582,0.612h-0.788l-0.699-0.728l3.178-2.829l3.383,3.382V244.703z M522.234,244.557v-1.048h-1.254l-1.283,1.311l1.283,1.342
	L522.234,244.557z"/>
<polygon fill="#56C0D7" points="536.313,243.566 535.466,244.646 535.466,247.181 534.767,247.881 534.127,247.881 533.397,247.181 
	533.397,234.908 534.127,234.208 534.767,234.208 535.466,234.908 535.466,241.906 537.945,238.29 538.936,237.765 539.899,237.765 
	540.247,238.523 537.625,241.847 540.335,247.123 539.899,247.881 539.053,247.881 538.119,247.356 "/>
<path fill="#56C0D7" d="M555.32,244.703l-3.352,3.382l-3.352-3.06v-0.03l3.352-3.06h1.254v-0.845l-1.254-1.603l-1.108,1.02
	l-0.612,0.612h-0.786l-0.671-0.728l3.178-2.829l3.352,3.382V244.703z M553.222,244.557v-1.048h-1.254l-1.311,1.311l1.311,1.342
	L553.222,244.557z"/>
<polygon fill="#56C0D7" points="564.446,243.069 563.862,242.429 563.862,241.612 564.446,241.03 567.914,241.03 568.526,241.612 
	568.526,242.429 567.914,243.069 "/>
<polygon fill="#56C0D7" points="580.246,243.566 579.399,244.646 579.399,247.181 578.73,247.881 578.029,247.881 577.358,247.181 
	577.358,234.908 578.029,234.208 578.73,234.208 579.399,234.908 579.399,241.906 581.906,238.29 582.84,237.765 583.801,237.765 
	584.152,238.523 581.586,241.847 584.239,247.123 583.86,247.881 582.956,247.881 582.052,247.356 "/>
<polygon fill="#56C0D7" points="593.598,237.763 594.267,237.763 594.968,238.464 594.968,244.557 596.221,246.16 597.504,244.557 
	597.504,238.464 598.233,237.763 598.874,237.763 599.603,238.464 599.603,244.703 596.221,248.083 592.897,244.703 
	592.897,238.464 "/>
<polygon fill="#56C0D7" points="614.763,247.879 614.062,247.879 613.391,247.18 613.391,241.087 612.08,239.484 610.797,241.087 
	610.797,247.18 610.098,247.879 609.427,247.879 608.727,247.18 608.727,240.941 612.08,237.561 615.462,240.941 615.462,247.18 "/>
<polygon fill="#56C0D7" points="635.547,238.463 636.275,237.763 636.917,237.763 637.645,238.463 637.645,244.644 638.841,246.16 
	640.036,244.644 640.036,238.463 640.735,237.763 641.463,237.763 642.164,238.463 642.164,244.644 643.358,246.16 644.554,244.644 
	644.554,238.463 645.225,237.763 645.954,237.763 646.595,238.463 646.595,245.023 643.591,248.083 641.084,246.626 
	638.577,248.083 635.547,245.023 "/>
<path fill="#56C0D7" d="M662.133,244.703l-3.352,3.382l-3.352-3.06v-0.03l3.352-3.06h1.254v-0.845l-1.254-1.603l-1.109,1.02
	l-0.612,0.612h-0.786l-0.671-0.728l3.178-2.829l3.352,3.382V244.703z M660.036,244.557v-1.048h-1.254l-1.311,1.311l1.311,1.342
	L660.036,244.557z"/>
<path fill="#56C0D7" d="M473.899,273.506l0.728-0.671h0.671l0.699,0.671v0.671l-0.699,0.699h-0.671l-0.728-0.699V273.506z
	 M473.899,276.828l0.728-0.699h0.671l0.699,0.699v8.747l-0.699,0.699h-0.671l-0.728-0.699V276.828z"/>
<polygon fill="#56C0D7" points="488.096,286.331 485.238,283.476 485.238,274.351 485.966,273.68 486.667,273.68 487.338,274.351 
	487.338,276.129 488.998,276.129 489.669,276.828 489.669,277.383 488.998,278.082 487.338,278.082 487.338,283.358 
	488.416,284.408 488.998,284.349 489.669,285.02 489.669,285.575 489.087,286.274 "/>
<path fill="#56C0D7" d="M501.128,277.878l-1.08,0.963v0.03c0,2.011,4.374,1.078,4.374,4.722l-3.293,2.856l-3.267-2.681v-0.116
	l0.701-0.671h0.786l0.584,0.582l1.196,0.963l1.224-1.02v-0.03c0-1.982-4.402-0.991-4.402-4.635l3.178-2.914l3.119,2.71l-0.671,0.73
	h-0.817l-0.553-0.612L501.128,277.878"/>
<polygon fill="#56C0D7" points="513.924,276.127 514.565,276.127 515.264,276.828 515.264,282.92 516.575,284.524 517.858,282.92 
	517.858,276.828 518.529,276.127 519.228,276.127 519.899,276.828 519.899,283.066 516.575,286.447 513.223,283.066 
	513.223,276.828 "/>
<polygon fill="#56C0D7" points="540.133,285.573 539.432,286.274 538.733,286.274 538.062,285.573 538.062,279.365 536.81,277.878 
	535.614,279.365 535.614,285.573 534.943,286.274 534.272,286.274 533.545,285.573 533.545,279.365 532.32,277.878 531.125,279.365 
	531.125,285.573 530.454,286.274 529.755,286.274 529.084,285.573 529.084,278.986 532.087,275.924 534.594,277.353 
	537.102,275.924 540.133,278.986 "/>
<path fill="#56C0D7" d="M552.436,286.449l-3.382-3.381v-3.731l3.382-3.411l3.352,3.411v3.731L552.436,286.449z M552.436,277.878
	l-1.254,1.605v3.439l1.254,1.603l1.281-1.603v-3.439L552.436,277.878z"/>
<polygon fill="#56C0D7" points="476.844,320.352 475.997,321.432 475.997,323.967 475.297,324.638 474.626,324.638 473.899,323.967 
	473.899,311.694 474.626,310.994 475.297,310.994 475.997,311.694 475.997,318.661 478.447,315.048 479.408,314.551 
	480.399,314.551 480.749,315.309 478.125,318.633 480.808,323.909 480.399,324.638 479.525,324.638 478.68,324.113 "/>
<path fill="#56C0D7" d="M494.393,321.256h0.817l0.669,0.699l-3.235,2.916l-3.352-3.411v-3.761l3.352-3.381l3.352,3.381v1.633
	l-0.671,0.728h-3.993v1.254l1.311,1.603l1.165-1.05L494.393,321.256z M491.332,318.485h2.623v-0.641l-1.311-1.603l-1.311,1.603
	V318.485z"/>
<path fill="#56C0D7" d="M504.772,317.467l2.74-3.149l1.923,0.817v-3.411l0.642-0.699h0.728l0.671,0.699v9.736l-3.352,3.411
	l-3.352-3.411V317.467z M506.812,321.314l1.311,1.605l1.311-1.605v-3.468l-1.311-1.603l-1.311,1.603V321.314z"/>
<path fill="#56C0D7" d="M526.984,321.46l-3.324,3.411l-3.383-3.06v-0.059l3.383-3.032h1.254v-0.874l-1.254-1.603l-1.137,1.05
	l-0.553,0.582h-0.817l-0.671-0.699l3.178-2.858l3.324,3.382V321.46z M524.915,321.314v-1.048h-1.254l-1.311,1.34l1.311,1.313
	L524.915,321.314z"/>
<polygon fill="#56C0D7" points="538.062,317.583 538.062,323.969 537.333,324.638 536.662,324.638 535.963,323.969 535.963,317.409 
	539.023,314.436 540.014,314.494 540.569,315.222 540.569,315.777 539.899,316.448 539.256,316.389 "/>
<polygon fill="#56C0D7" points="549.461,314.551 550.13,314.551 550.859,315.222 550.859,321.316 552.142,322.919 553.425,321.316 
	553.425,315.222 554.096,314.551 554.823,314.551 555.494,315.222 555.494,321.462 552.142,324.871 548.79,321.462 548.79,315.222 
	"/>
<path fill="#56C0D7" d="M569.081,323.063l-1.925,0.788l-2.712-3.149v-3.002l3.354-3.382l3.352,3.382v7.083l-3.352,3.324l-3.265-2.77
	l0.699-0.699h0.786l0.584,0.612l1.196,1.02l1.283-1.514V323.063z M569.081,317.845l-1.283-1.603l-1.313,1.603v2.479l1.313,1.603
	l1.283-1.603V317.845z"/>
<path fill="#56C0D7" d="M585.289,321.256h0.729l0.699,0.699l-3.265,2.916l-3.324-3.411v-3.761l3.324-3.381l3.411,3.381v1.633
	l-0.73,0.728h-3.993v1.254l1.311,1.603l1.224-1.05L585.289,321.256z M582.141,318.485h2.623v-0.641l-1.311-1.603l-1.311,1.603
	V318.485z"/>
</svg>
