<?xml version="1.0" encoding="utf-8"?>
<!-- Generator: Adobe Illustrator 27.2.0, SVG Export Plug-In . SVG Version: 6.00 Build 0)  -->
<svg version="1.1" id="레이어_1" xmlns="http://www.w3.org/2000/svg" xmlns:xlink="http://www.w3.org/1999/xlink" x="0px"
	 y="0px" viewBox="0 0 720 668.62" enable-background="new 0 0 720 668.62" xml:space="preserve">
<rect x="2.814" y="2.81" fill="#FFFFFF" width="714.36" height="662.979"/>
<path d="M714.359,662.979H5.62V5.621h708.739V662.979z M720,0h-5.641H5.64H0v5.621v657.358v5.64h5.64h708.719H720v-5.64V5.621V0z"/>
<g>
	<path fill="#0088CC" d="M417.962,161.486c-10.527,0-19.98-4.667-26.098-13.882c-5.005-7.785-6.554-16.048-6.554-24.886
		c-0.04-12.83,3.098-27.289,3.098-44.488c0-6.494-0.477-13.287-1.688-20.715l22.383,4.29c0.119,2.88,0.219,5.64,0.238,8.361
		c-0.02,23.714-6.217,40.358-6.217,52.81c0,4.171,0.715,7.746,2.503,11.122c3.356,5.959,8.997,9.196,15.571,9.176
		c12.671,0.02,29.176-11.698,40.655-36.365l11.023,10.05C459.352,146.888,436.85,161.486,417.962,161.486"/>
	<path fill="#0088CC" d="M518.671,91.975c-4.786,27.845-15.313,52.87-30.149,70.209l-16.624-14.082
		c13.764-14.002,24.052-34.359,27.507-56.246c-8.381-0.953-16.028-2.999-22.244-6.336l5.144-15.452
		c5.621,2.999,11.837,4.786,18.431,5.263v-1.43c0-6.097-0.735-12.194-1.927-18.292l22.86,1.668
		c-0.02,5.502-0.258,11.003-0.596,16.406c8.838-2.026,17.954-5.78,26.554-10.804l8.262,17.378
		C544.768,86.811,531.62,90.664,518.671,91.975 M554.222,161.091c-2.046,0-4.072,0-6.117-0.079
		c-16.981-0.735-32.076-9.355-32.076-22.88c0-5.482,2.383-11.718,8.262-18.411l14.121,8.501c-3.098,3.118-4.568,5.74-4.568,8.004
		c0.04,4.191,5.283,6.693,14.379,6.693c8.381,0,19.762-1.669,29.692-5.124l2.125,21.033
		C572.037,160.177,563.656,161.091,554.222,161.091 M551.918,122.58l-12.076-7.984c2.423-2.304,5.501-4.926,8.262-6.951
		c-6.336,1.072-12.93,2.621-18.431,5.005l-3.833-14.24c15.213-5.621,32.552-8.838,48.103-9.216l3.813,17.717
		C567.251,109.055,557.201,116.483,551.918,122.58"/>
	<path fill="#0088CC" d="M621.501,161.831c-3.813,0-7.766-0.119-11.956-0.218l-7.289-15.313c5.859,0.576,11.261,0.835,16.147,0.835
		c14.002,0,24.667-2.284,32.532-6.693c6.018-3.377,9.354-9.096,9.354-14.379c0-5.382-3.357-10.268-10.884-11.976
		c-3.138-0.695-6.236-1.053-9.354-1.073c-14.241,0.02-28.362,7.071-36.465,21.212l-15.095-7.19
		c1.569-7.21,1.907-13.168,1.907-18.431c0-4.786-0.338-8.977-0.338-12.95c0-7.15,1.192-13.287,7.408-20.199l20.457,4.191
		c-13.148,12.81-11.38,23.098-11.837,32.294c7.647-8.123,23.198-15.055,39.841-15.055c4.052,0,8.143,0.437,12.195,1.291
		c15.452,3.337,22.463,14.598,22.482,26.455c0,12.314-7.507,25.263-21.291,30.983C647.599,160.401,635.622,161.831,621.501,161.831
		 M662.792,86.717c-21.43-2.998-34.102-9.473-45.343-20.476l10.765-12.294c9.096,8.838,20.338,11.341,42.463,11.817L662.792,86.717z
		"/>
</g>
<g>
	<defs>
		<path id="SVGID_1_" d="M211.056,297.924v34.478c9.533-0.179,74.757-1.45,107.646-1.629c-4.667,22.463-25.521,43.357-95.233,47.468
			l26.772,35.908c79.424-10.407,111.559-51.579,111.559-116.226H211.056z M60.768,296.097l70.367-0.893
			c-8.441,26.038-31.42,62.523-96.822,80.139l25.343,32.711c23.516-8.262,49.752-22.999,72.016-45.482
			c15.631,10.983,31.122,24.806,49.593,46.395l27.329-33.624c-17.259-17.617-36.306-31.261-53.724-41.509
			c13.108-20.298,22.999-44.747,27.11-73.685L60.768,259.99V296.097z M225.793,287.855h120.377V254.27H225.793V287.855z
			 M535.922,367.934c-7.17,0.516-14.518,0.894-21.35,1.232l5.76,38.789c32.671-3.416,76.842-8.6,123.178-15.969
			c2.502,6.117,4.647,12.374,6.971,18.868l37.716-18.491c-10.586-29.653-31.599-64.866-49.176-85.859l-36.087,16.167
			c9.136,10.606,17.577,22.979,25.303,36.981c-14.916,1.629-33.049,3.595-51.897,5.203c14.002-33.029,28.361-75.77,36.266-104.667
			l-41.827-9.176C565.019,280.824,554.075,322.314,535.922,367.934 M368.236,332.026l30.01,32.353
			c16.524-6.673,33.605-14.558,50.645-24.449l-0.357,71.599l40.278-0.179l-0.556-98.907c16.703-13.824,32.89-30.368,47.448-50.666
			l-35.948-19.583C472.625,283.148,430.779,313.158,368.236,332.026"/>
	</defs>
	<clipPath id="SVGID_00000164486603640170947280000006424772086889370762_">
		<use xlink:href="#SVGID_1_"  overflow="visible"/>
	</clipPath>
	
		<linearGradient id="SVGID_00000099634709245589304720000006830025958963967894_" gradientUnits="userSpaceOnUse" x1="155.6505" y1="702.4013" x2="175.5111" y2="702.4013" gradientTransform="matrix(0 -8.6582 -8.6582 0 6442.7666 1761.8002)">
		<stop  offset="0" style="stop-color:#0088CC"/>
		<stop  offset="0.1" style="stop-color:#0088CC"/>
		<stop  offset="0.8" style="stop-color:#0F244D"/>
		<stop  offset="1" style="stop-color:#0F244D"/>
	</linearGradient>
	
		<rect x="34.314" y="242.195" clip-path="url(#SVGID_00000164486603640170947280000006424772086889370762_)" fill="url(#SVGID_00000099634709245589304720000006830025958963967894_)" width="653.883" height="171.956"/>
</g>
<g>
	<path fill="#0F244D" d="M202.462,85.76h-75.154V53.148h75.154V85.76z M211.479,199.345l-31.142,9.016
		c-0.397-3.793-0.934-8.639-1.47-11.897c-5.76,1.629-12.254,3.257-19.464,4.31c-9.553,1.807-20,2.9-30.467,3.794l-4.508-34.797
		h5.422c3.118-8.599,7.647-32.473,8.302-39.106h-0.179h-5.998c-2.066,16.226-12.473,29.851-26.793,36.405h18.888v26.673h-22.363
		v14.618H69.99v-14.618H44.568v-26.673h21.966c-16.028-7.348-27.17-23.496-27.17-42.245c0-18.788,11.142-34.936,27.17-42.284H47.289
		V55.849H70.01v-9.732h31.698v9.732H122.8l0.02,26.693h-17.637c7.508,3.436,13.943,8.818,18.65,15.472h84.945v32.652h-37.1
		c-0.199,3.436-0.735,7.706-1.45,12.254l28.282-7.726C203.376,153.029,207.884,175.889,211.479,199.345 M107.785,112.791
		l-11.996,12.016l11.996,12.036c1.748-3.674,2.761-7.726,2.761-12.036C110.546,120.497,109.533,116.425,107.785,112.791
		 M85.839,100.119c-4.31,0-8.361,1.013-11.996,2.761l11.996,11.995l12.036-11.995C94.22,101.132,90.168,100.119,85.839,100.119
		 M75.928,124.806l-12.016-12.016c-1.748,3.634-2.761,7.706-2.761,12.016c0,4.31,1.013,8.362,2.761,12.036L75.928,124.806z
		 M85.839,149.494c4.33,0,8.382-0.993,12.016-2.741l-12.016-12.016l-11.996,12.016C77.497,148.501,81.549,149.494,85.839,149.494
		 M174.181,165.462c-0.735-6.454-3.396-18.689-4.092-21.767c-1.291,7.805-3.158,16.366-5.084,22.999
		C168.043,166.356,172.194,165.978,174.181,165.462"/>
	<path fill="#0F244D" d="M218.626,169.565v34.916h195.154l-28.361-34.916h-64.767v-17.279h41.926v-33.625h-41.926v-15.65
		l48.044-0.019l-0.02-34.181h-48.024V46.129l-35.968,0.02l-0.02,22.661h-14.379c2.324-6.832,3.774-15.849,3.774-15.849
		l-33.843-3.575c0,0-5.919,31.301-23.913,55.571l19.245,31.162c2.701-2.701,4.866-5.243,7.031-8.104v24.25l42.085,0.039v17.26
		H218.626z M249.231,118.661c3.416-5.045,6.276-10.268,8.997-15.67l26.435,0.019v15.65H249.231z"/>
</g>
<polygon fill="#1B2F55" points="422.163,178.301 443.414,204.479 423.136,204.479 401.884,178.301 "/>
<polygon fill="#273A5E" points="451.799,178.301 473.07,204.479 452.772,204.479 431.521,178.301 "/>
<polygon fill="#334567" points="488.514,187.011 502.695,204.488 482.417,204.488 468.236,187.031 "/>
<polygon fill="#3F5070" points="518.171,187.011 532.351,204.488 512.033,204.488 497.873,187.011 "/>
<polygon fill="#4B5B79" points="547.797,187.011 561.978,204.488 541.68,204.488 527.519,187.011 "/>
<polygon fill="#576582" points="591.65,204.487 571.332,204.467 564.242,195.768 584.56,195.748 "/>
<polygon fill="#63708B" points="621.277,204.487 600.959,204.487 593.869,195.768 614.186,195.768 "/>
<polygon fill="#7B869D" points="680.617,204.487 660.28,204.487 653.189,195.748 673.507,195.768 "/>
<polygon fill="#6F7B94" points="650.961,204.487 630.643,204.487 623.553,195.768 643.871,195.768 "/>
<g>
	<path fill="#0F244D" d="M524.949,625.154v-96.286c-4.409,7.17-9.076,13.128-13.247,16.961l-1.052,0.973l-7.21-33.406l0.318-0.318
		c17.477-17.081,29.295-37.518,37.2-64.33l0.218-0.755l25.938,6.435l-0.238,0.814c-4.667,16.286-9.513,27.805-16.723,39.742v130.169
		H524.949z"/>
	<path fill="#0F244D" d="M636.84,541.289v-35.988h38.769v-24.985H636.84v-28.083h-25.978v28.083h-15.213
		c2.661-7.964,4.588-17.815,4.727-18.471l-24.766-5.005c-0.06,0.338-4.29,32.433-22.065,56.524l-0.397,0.516l17.994,20.874
		l0.616-0.695c8.004-9.116,13.486-20.576,16.683-28.759h22.423v35.988h-52.175v25.78h52.175v58.094h25.978v-58.094h48.004v-25.78
		H636.84z"/>
</g>
<g>
	<path fill="#0088CC" d="M331.418,601.511c19.96-20.596,34.141-49.791,38.987-80.258l0.119-0.854l-0.854-0.099
		c-12.215-1.39-22.622-4.31-30.924-8.639l6.832-20.497c7.964,4.091,16.643,6.514,25.819,7.19l0.894,0.06v-2.96
		c0-7.964-0.834-16.246-2.562-25.263l30.844,2.244c-0.02,6.891-0.298,14.3-0.854,22.622l-0.079,1.112l1.092-0.238
		c12.334-2.84,25.263-8.044,37.458-15.055l11.102,23.337c-14.955,8.679-32.989,14.3-52.254,16.266l-0.616,0.059l-0.119,0.616
		c-6.852,39.881-21.887,75.154-42.403,99.444L331.418,601.511z M447.962,619.386c-2.86,0-5.8,0-8.679-0.159
		c-22.423-0.933-45.085-12.194-45.085-31.857c0-8.162,3.754-16.683,11.142-25.283l18.709,11.241
		c-4.052,4.231-6.018,7.945-6.018,11.282c0,6.633,7.785,10.427,21.37,10.427c12.949,0,28.818-2.701,41.728-7.071l2.9,28.322
		C470.703,618.453,459.561,619.386,447.962,619.386 M428.757,553.547c3.376-3.158,7.428-6.534,10.963-9.156l2.801-2.065
		l-3.416,0.576c-10.467,1.787-18.868,4.032-25.661,6.872l-5.045-18.709c20.775-7.607,45.164-12.254,67.13-12.85l5.164,23.853
		c-14.379,3.197-28.342,13.168-36.127,21.946L428.757,553.547z"/>
	<path fill="#0088CC" d="M41.066,601.505c19.96-20.596,34.141-49.791,38.967-80.258l0.139-0.854l-0.874-0.099
		c-12.195-1.39-22.602-4.29-30.904-8.639l6.832-20.477c7.964,4.091,16.643,6.494,25.819,7.17l0.874,0.06v-2.96
		c0-7.964-0.834-16.246-2.542-25.263l30.844,2.244c-0.02,6.931-0.298,14.34-0.854,22.622l-0.079,1.132l1.093-0.258
		c12.333-2.84,25.263-8.024,37.458-15.055l11.082,23.337c-14.935,8.679-32.969,14.32-52.234,16.266l-0.616,0.059l-0.119,0.616
		c-6.832,39.881-21.887,75.174-42.403,99.444L41.066,601.505z M157.61,619.4c-2.86,0-5.799,0-8.679-0.179
		c-22.423-0.933-45.104-12.174-45.104-31.857c0-8.162,3.754-16.663,11.162-25.283l18.689,11.241
		c-4.032,4.231-5.998,7.945-5.998,11.301c0,6.634,7.786,10.407,21.37,10.407c12.95,0,28.818-2.701,41.728-7.051l2.9,28.302
		C180.351,618.447,169.19,619.4,157.61,619.4 M138.405,553.542c3.376-3.158,7.428-6.534,10.963-9.156l2.8-2.066l-3.416,0.576
		c-10.467,1.787-18.888,4.032-25.68,6.872l-5.025-18.709c20.774-7.587,45.164-12.254,67.13-12.85l5.164,23.853
		c-14.399,3.197-28.322,13.168-36.127,21.966L138.405,553.542z M172.665,502.3l-17.458-22.244l6.157-4.469l25.005,14.558
		L172.665,502.3z M193.897,492.508l-20.219-19.345l5.462-4.051l26.256,10.626L193.897,492.508z"/>
	<path fill="#0088CC" d="M230.884,595.926h2.562c22.264,0,44.687-4.289,56.326-13.187c8.898-6.833,13.525-17.617,13.525-27.548
		c0-9.076-3.774-17.458-11.638-21.907c-3.098-1.708-6.336-2.383-9.772-2.383c-17.458,0-39.364,18.471-66.395,18.471h-0.695
		l-8.222-25.859c4.965,0.695,9.593,1.033,14.042,1.033c27.229,0,44.509-11.281,63.496-11.281c6.693,0,13.525,1.35,21.231,5.124
		c14.717,7.368,22.085,21.907,22.085,37.319c0,14.896-6.852,30.467-20.715,40.715c-16.941,12.671-37.14,15.591-67.785,16.783
		L230.884,595.926z"/>
</g>
</svg>
