<?xml version="1.0" encoding="utf-8"?>
<!-- Generator: Adobe Illustrator 27.2.0, SVG Export Plug-In . SVG Version: 6.00 Build 0)  -->
<svg version="1.1" id="레이어_1" xmlns="http://www.w3.org/2000/svg" xmlns:xlink="http://www.w3.org/1999/xlink" x="0px"
	 y="0px" viewBox="0 0 720 91.061" enable-background="new 0 0 720 91.061" xml:space="preserve">
<polygon points="118.743,89.238 163.589,89.238 163.589,78.113 131.588,78.113 131.588,50.078 163.589,50.078 163.589,39.196 
	131.588,39.196 131.588,12.966 163.589,12.966 163.589,1.836 118.743,1.836 "/>
<path d="M326.178,13.477c9.519,0,17.224,3.596,22.91,10.674h16.668C356.95,7.853,344.1,0.001,326.449,0.001
	c-11.932,0-22.33,4.261-30.871,12.664c-6.702,6.717-11.03,14.664-12.783,23.328l17.908,46.85c7.396,5.434,15.941,8.218,25.598,8.218
	c17.495,0,30.567-7.814,38.847-23.238h-16.716c-5.187,6.436-13.049,9.937-22.254,9.937c-17.21,0-30.691-14.303-30.691-32.557
	c0-8.408,3.406-16.697,9.344-22.767C310.432,16.665,318.027,13.477,326.178,13.477"/>
<path d="M402.5,45.16l0.679-1.012c0.504-0.746,17.058-27.004,26.715-42.314h-13.367l-26.444,44.024l26.434,43.378h13.41
	c-5.23-8.384-26.396-42.428-26.781-43.046L402.5,45.16z"/>
<rect x="371.301" y="1.837" width="12.949" height="87.402"/>
<path d="M510.41,17.624c0.161-0.242,0.347-0.442,0.513-0.67V1.835h-12.949v37.493h-34.937V1.835h-12.949v87.402h12.949V51.64h34.937
	v37.597h12.949V73.866c-5.695-8.242-8.802-17.927-8.802-28.529C502.121,34.962,504.91,25.633,510.41,17.624"/>
<path d="M551.174,0c-14.711,0-27.883,6.645-36.524,18.217c-0.394,0.513-0.812,0.978-1.178,1.501
	c-0.266,0.394-0.427,0.812-0.679,1.197c-0.679,1.05-1.292,2.123-1.867,3.225c-3.316,6.346-5.083,13.419-5.083,21.195
	c0,7.648,1.857,14.73,5.083,21.129c0.617,1.235,1.126,2.518,1.867,3.681c0.537,0.869,1.249,1.639,1.857,2.47
	c1.159,1.582,2.261,3.206,3.643,4.679c8.517,9.134,19.495,13.766,32.643,13.766c12.27,0,23.717-4.883,32.234-13.78
	c1.206-1.24,2.142-2.636,3.187-3.99V17.78c-1.259-1.615-2.461-3.249-3.919-4.722C573.875,4.636,562.779,0,551.174,0 M550.937,77.46
	c-8.351,0-16.649-3.814-22.739-10.469c-5.624-6.232-8.484-13.718-8.484-22.307c0-17.404,13.875-31.056,31.588-31.056
	c16.991,0,30.833,13.918,30.833,31.056C582.135,63.376,568.726,77.46,550.937,77.46"/>
<path d="M627.477,53.389c12.303-2.489,19.946-12.156,19.946-25.228c0-10.84-5.068-18.953-14.654-23.432
	c-5.719-2.689-13.585-2.898-23.28-2.898h-19.409v14.626v3.116v3.871v44.233v3.938v2.969v14.654h12.953V11.802h9.32
	c14.963,0,22.24,5.52,22.24,16.872c0,6.802-3.254,18.193-24.976,18.193h-2.195c4.123,7.386,21.005,37.654,23.637,42.371h15.39
	c-4.503-6.968-20.354-31.541-21.181-32.852l-1.534-2.437l2.841-0.409C627.026,53.484,627.463,53.389,627.477,53.389"/>
<path d="M707.431,1.834v65.2l-3.425-5.273c-2.152-3.292-35.018-54.066-38.813-59.928h-13.196v87.402h12.683V22.017l3.434,5.439
	c2.128,3.382,35.246,55.752,39.074,61.78H720V1.834H707.431z"/>
<polygon points="0,12.967 17.414,12.967 17.414,89.24 30.377,89.24 30.377,12.967 47.834,12.967 47.834,1.833 0,1.833 "/>
<polygon points="100.778,39.33 65.85,39.33 65.85,1.832 52.882,1.832 52.882,89.239 65.85,89.239 65.85,51.642 100.778,51.642 
	100.778,89.239 113.731,89.239 113.731,1.832 100.778,1.832 "/>
<path d="M296.118,81.267l-1.501-3.924l-12.64-33.089l-1.482-3.876l-1.492-3.871L265.746,1.836h-12.103L233.55,53.598
	c1.216,3.011,2.057,6.28,2.057,9.966c0,8.978-3.563,17.395-9.515,22.497c-1.534,1.325-3.111,2.313-4.741,3.178h11.557
	c1.306-3.539,6.465-17.485,6.731-18.207l0.48-1.178h37.901l0.446,1.221c0.257,0.698,5.515,14.687,6.835,18.164h13.88l-1.544-3.99
	L296.118,81.267z M244.376,57.797l0.974-2.522c0.257-0.665,2.318-6.185,4.707-12.498c3.173-8.465,6.892-18.383,7.538-20.05
	l1.81-4.726l1.682,4.76c1.045,2.921,11.324,30.966,11.918,32.538l0.922,2.498H244.376z"/>
<path d="M223.677,83.24c5.14-4.418,8.208-11.771,8.208-19.675c0-1.501-0.332-2.831-0.575-4.209c-0.195-1.126-0.38-2.237-0.717-3.292
	c-0.285-0.831-0.708-1.582-1.093-2.356c-2.166-4.432-5.681-7.838-10.479-9.268c-0.09-0.033-0.893-0.309-1.667-0.518l-4.603-1.273
	l5.838-2.978c6.683-3.344,8.085-10.369,8.085-15.685c0-9.339-5.021-16.54-14.151-20.255c-3.962-1.586-8.636-1.9-14.873-1.9h-17.385
	v87.407h20.615c6.398,0,11.329-0.513,15.633-2.033c0.76-0.285,1.587-0.47,2.313-0.836c0.931-0.437,1.786-1.102,2.66-1.682
	C222.205,84.194,222.965,83.833,223.677,83.24 M192.578,12.966h5.178c13.956,0,16.882,6.916,16.882,12.707
	c0,6.104-3.016,13.372-17.395,13.372h-4.665V12.966z M200.62,78.114h-8.042V48.901h8.042c16.155,0,18.573,9.6,18.573,15.329
	C219.193,76.675,208.586,78.114,200.62,78.114"/>
<g>
</g>
<g>
</g>
<g>
</g>
<g>
</g>
<g>
</g>
<g>
</g>
<g>
</g>
<g>
</g>
<g>
</g>
<g>
</g>
<g>
</g>
<g>
</g>
<g>
</g>
<g>
</g>
<g>
</g>
</svg>
