<?xml version="1.0" encoding="utf-8"?>
<!-- Generator: Adobe Illustrator 27.0.1, SVG Export Plug-In . SVG Version: 6.00 Build 0)  -->
<svg version="1.1" id="레이어_1" xmlns="http://www.w3.org/2000/svg" xmlns:xlink="http://www.w3.org/1999/xlink" x="0px"
	 y="0px" viewBox="0 0 720 203.797" enable-background="new 0 0 720 203.797" xml:space="preserve">
<path d="M189.421,132.248c-1.078,1.023-2.433,1.189-3.553,2.751c-1.354,1.824-1.562,4.257-3.939,5.336
	c-2.419,1.174-4.354,0.262-6.621,1.078c6.138,6.828,9.538,7.741,17.777,11.57l4.838,2.696c-1.824,1.189-5.059,2.475-7.215,2.475
	c-6.567,0-12.649-7.327-16.685-11.846c0.097,1.672,0.097,3.345,0.208,5.004c0.111,1.562,0.429,3.235,0.429,4.796
	c0,1.838-1.714,6.788-3.387,7.644c-3.014-0.594-3.718-3.331-5.004-5.709c-0.968-1.673-2.212-3.276-3.512-4.742
	c-3.166,3.512-5.433,5.709-9.524,8.087l-1.617-2.696c0-2.903,4.409-7.327,6.082-9.8l-1.341,5.115
	c3.608-3.124,6.787-6.621,9.855-10.285l-3.552,0.65l-1.411-0.595l-0.483,0.747c-2.681-1.396-4.202-4.299-4.202-7.257
	c0-5.447,5.391-8.834,9.759-10.824l-2.543,0.152c-1.825,0-4.575-0.208-5.806-1.825c4.354-1.023,8.446-2.806,12.497-4.63l0.096-0.816
	c0-1.935-2.419-2.958-3.926-3.553c1.286-0.58,2.53-1.714,4.092-1.714c1.825,0,3.442,0.483,4.575,2.046v3.123l3.4-0.276
	c1.935,0,4.3,0.815,4.3,3.069v0.221c-2.475,1.728-8.294,1.728-9.151,4.783c2.64-0.747,5.543-0.747,8.239-0.747
	c2.529,0,7.326,2.737,7.326,5.543V132.248 M170.137,126.442c-3.331,1.175-10.063,4.147-10.823,8.018
	c3.29-2.585,6.897-4.742,10.823-6.082V126.442z M170.137,136.879c-2.101,0.429-4.091,1.562-6.303,1.562l-3.497-0.968l9.8-4.575
	v-1.23c-3.773,0.58-6.994,2.848-10.602,3.76c0.802,2.267,1.935,4.687,2.157,7.064c2.585-1.728,5.487-2.751,8.446-3.512V136.879z
	 M170.193,145.339c-2.308,2.529-4.742,5.059-7.05,7.533c1.617,0.816,4.036,2.005,5.806,2.267
	C170.414,151.904,169.985,148.78,170.193,145.339z M178.169,137.155c1.395-1.88,2.363-3.939,2.958-6.303
	c-1.134-0.594-2.862-0.65-4.148-0.65l-3.123,0.443l0.055,1.078l2.046-0.277c1.562,0,3.276,0.277,4.299,1.562
	c-2.308,1.825-4.036,1.784-6.4,2.903v1.894L178.169,137.155z"/>
<path d="M263.03,142.587l-1.991-0.65c-2.474,0-3.179,0.553-3.497,0.981c2.364,0.857,4.839,3.498,4.839,6.193
	c0,1.12-0.208,2.959-1.507,3.166c-1.825-0.429-2.267-2.474-2.751-4.091l-7.105,5.336l-0.594-2.364c0-2.419,2.64-4.368,3.179-6.787
	c-3.553,1.395-3.718,2.584-3.718,6.193c0,1.617-0.636,5.861-1.341,7.215h-0.276c-1.991,0-2.42-3.069-2.42-4.686
	c0-3.663,1.728-7.976,3.235-11.307l1.134,1.88l4.202-2.585l0.097-2.101l-1.078-0.912l-3.013,2.363
	c-1.714-0.152-2.102-2.046-2.102-3.497l1.023-6.193c1.299,1.189,1.728,3.124,1.949,4.742l1.285-0.318
	c-0.967-1.355-1.285-3.124-1.285-4.742c0-1.299,1.174-2.267,2.363-2.267l3.124,0.387l0.539-1.894v-0.539
	c-2.861,0.761-6.511,2.323-8.612,4.534l-0.221,0.042l-1.341-1.77c0-1.672,0.594-2.75,1.562-4.091l0.539,1.617
	c3.87-2.212,9.524-5.073,14.003-5.073c1.935,0,5.377,0.76,5.377,3.29l-1.88,1.617c-1.41-0.539-3.4-1.078-4.907-1.078l-2.848,0.484
	l2.64,0.912l-1.894,2.917l1.023,2.585l-0.056,0.594l2.102,0.429l0.539-2.585v-0.221l-1.935-1.935h-0.166
	c0.65-1.023,1.189-2.322,2.696-2.322c0.802,0,3.235,1.189,3.235,4.092l-0.318,2.101c-0.221,1.949-0.442,4.313-1.894,5.82h-0.317
	c-1.299,0-1.728-1.673-2.585-2.157c-1.894,0.055-3.663,0.332-5.446,0.802l2.378,1.838l-0.968,1.023l4.354-1.189
	c2.529,0.539,4.948,2.267,5.543,4.852c-1.065,1.078-1.286,2.323-1.286,3.774c0,2.364,0.373,4.838,0.539,7.215v0.208
	c0,2.212-1.99,6.414-4.092,7.009l-1.189-0.705c-1.341-1.244-2.308-3.235-3.441-4.686c-1.134-1.562-2.641-2.848-3.774-4.299
	c2.046,0.912,5.391,2.474,7.644,2.626c0.539-0.857,0.705-1.341,0.705-5.004l0.165-1.189L263.03,142.587 M254.417,120.733l-2.64-1.99
	c1.659-0.539,3.608-0.76,5.322-0.76c1.299,0,2.75,0.802,2.75,2.267l-0.055,0.58c-3.014,1.617-6.511,1.949-9.469,3.621
	L254.417,120.733z M255.109,131.018l-1.673-0.374l-0.857,0.097l1.023,2.157L255.109,131.018z M257.749,147.011l-0.857-3.345
	c-1.078,1.244-1.507,2.958-2.267,4.424L257.749,147.011z M257.266,131.722l-2.157,2.42l3.663-1.134L257.266,131.722z
	 M277.668,151.642l-1.341-2.102c-0.704-0.539-2.157-0.332-2.157-1.728c0-1.824,4.686-4.299,6.193-4.894v-1.506l-2.792,0.58
	l-3.345-0.968c0.968-2.848,4.313-3.332,6.732-4.41v-1.507l-2.475,0.595c-1.672,0-3.4-0.705-4.948-1.507
	c-0.056,4.521,0.152,19.643-1.411,25.518l-1.714,2.419c-1.563-0.857-2.641-3.069-2.641-4.838v-0.277
	c0.263-1.714,2.309-15.081,2.309-22.56l-0.263-1.824l-2.046,1.12l-0.165-1.604l0.055-0.871c2.364-3.014,5.433-6.193,7.106-9.69
	l-3.014-1.134c2.046-1.023,3.774-3.069,6.248-3.069c1.769,0,4.354,0.387,4.465,2.585l-0.595,0.968l-3.387,3.235
	c-1.838,1.88-3.553,3.926-5.487,5.709l0.539,3.29l8.017-2.806l-0.276-3.014l-2.793-1.728c1.617-0.65,2.156-1.617,4.147-1.617
	c2.254,0,2.53,1.562,2.53,3.29l-0.056,1.244l3.442-0.166c1.562,0,2.861,0.636,2.972,2.364c-2.046,1.617-4.368,2.046-6.635,3.124
	v1.244l1.893-0.111c1.452,0,2.585,0.595,3.332,1.714c-1.134,2.599-4.948,1.783-5.861,4.796h0.913c1.728,0,3.234,0.65,4.091,2.323
	c-1.078,3.123-5.598,3.235-5.598,7.644l0.055,0.802l3.221-0.096c2.861,0,6.151,0.802,7.008,3.926l0.111,0.318l-2.64,1.728
	l-1.133-0.374c-3.83-1.244-5.972-1.299-6.47-1.299c-2.682,0-6.884,0.111-8.819,2.267l-1.838-1.783c0-1.341,0.276-2.738,0.387-4.092
	l1.769,1.893L277.668,151.642z M280.157,146.955l-4.037,0.747l3.442,1.617l0.595-1.99V146.955z"/>
<path d="M354.416,132.095l-1.466-1.562l-2.254,2.364c-1.354,1.395-6.082,6.566-7.064,7.271h-0.152l-1.673-2.806
	c0-1.563,2.806-5.433,3.774-6.995v2.364c3.981-4.147,7.755-9.261,10.768-14.155l-1.078-1.563l3.553-1.244
	c1.728,0,3.663,1.617,4.465,3.069l-3.124,3.124l0.982-0.056c2.419,0,7.906,1.355,7.906,4.534c0,1.341-0.65,2.419-2.156,2.419
	c-1.562,0-6.234-4.312-8.017-5.115l-4.742,4.742c1.396-0.594,3.774-1.935,5.336-1.935c1.134,0,3.719,1.009,3.719,2.308l-0.222,1.231
	c-1.824,1.133-3.926,1.893-5.93,2.806c-2.475,1.078-5.06,2.267-7.479,3.663L354.416,132.095 M349.453,148.185l3.179-1.023
	l2.101,1.355c-0.856,1.395-2.266,2.958-2.958,4.299l1.175,0.539c1.466-1.659,2.806-3.276,4.203-5.004
	c-1.659,2.75-2.641,10.229-4.092,11.695c-1.617,0-2.101-1.617-2.101-2.972l0.221-1.88c-1.507,0.429-3.884,4.147-5.115,5.377
	c-1.41-0.096-2.267-1.99-2.267-3.22c0-1.784,4.907-5.709,6.248-7.81L349.453,148.185z M349.191,144.854
	c0.262-1.728,2.584-3.442,3.22-5.281c-2.419,0-3.442,3.014-4.036,5.018l-0.912,2.572l-2.475-3.069c0-2.157,1.714-5.115,3.235-6.621
	l-0.056,1.99c0.968-1.659,4.354-3.442,6.345-3.442l2.862,1.991v0.221c-1.134,1.617-2.475,2.958-3.884,4.299l0.968-0.041
	c1.189,0,2.64,0.484,2.64,1.99l-0.262,1.023c-2.323,0.635-4.852,1.078-7.271,1.078L349.191,144.854z M358.936,146.416
	c0.857-0.912,2.585-2.322,3.871-2.322l3.013,1.949c-0.373,1.617-2.848,4.133-3.593,5.861c2.902,0,6.027,0.704,8.224,2.64l1.41,2.211
	l-0.76,1.935c-3.387,0.76-7.81-0.262-11.474,1.078l4.908-4.092l-2.475-1.451c-1.894,0.484-4.147,4.783-5.875,5.916l-1.23-2.695
	c0-2.309,5.487-7.424,5.75-10.492L358.936,146.416z M366.953,139.905l2.64,1.604l-0.594,1.507c-1.078,0.594-4.631,0.497-5.972,0.815
	l-1.189-1.395c0-1.466,2.156-4.202,2.806-5.612c-1.299,0-2.419,0.815-3.29,1.672c-0.207,1.894-0.428,4.203-1.88,5.654
	c-1.299-0.483-1.949-1.659-1.949-3.069v-1.562l0.442-2.696v-0.153l-0.165-2.432l2.585,1.949c1.395-1.244,4.409-3.718,6.358-3.718
	c1.396,0,3.705,1.672,4.092,3.013c-0.595,1.881-3.235,2.806-4.092,4.424H366.953z M382.201,121.05h-0.332
	c-1.396,0-2.363,1.507-3.013,2.696l-2.751,6.842l0.056,2.53v0.429c0,3.608-0.636,8.943-2.157,12.068l-0.58,0.041
	c-2.751,0-3.069-3.608-3.069-5.654c0-2.64,1.507-5.212,1.507-7.852c0-1.949-0.429-4.534-1.507-6.151
	c1.617,0.387,2.959,1.189,4.092,2.378c1.562-1.562,2.585-3.442,3.387-5.391c1.023-2.419,1.894-5.059,4.907-5.212
	c2.53,0.968,5.751,2.42,6.346,5.378c-2.254,1.935-2.364,6.621-2.364,9.428c0,4.091,0.056,8.128,0.318,12.219
	c0.111,2.046,0.387,4.092,0.387,6.082c0,3.663-0.111,7.009-2.806,9.8l-2.585,1.935c-2.157-0.802-3.235-3.014-4.742-4.409
	c-3.069-2.958-4.742-3.553-7.215-7.479c2.267,1.396,6.303,3.166,8.943,3.166c3.871,0,3.871-6.884,3.871-9.469
	c0-4.036-0.208-7.976-0.208-11.957c0-3.497,0.055-6.953,0.097-10.506L382.201,121.05z"/>
<path d="M439.816,155.083l1.99-1.991l0.539,0.65c2.696-0.387,5.487-0.443,8.294-0.443c5.281,0,10.603,0.595,15.938,0.926
	c1.935,0.097,2.793,0.152,11.792,0.152c1.451,0,2.902-0.055,4.409-0.055c2.005,0,3.94,0.055,5.875,0.332
	c-2.267,3.179-7.049,6.303-11.141,6.303c-1.562,0-4.963-1.023-6.621-1.466c-1.078-0.262-13.256-2.958-18.799-2.958l-3.387-0.055
	c-3.027,0-5.986,0.221-8.723,1.617L439.816,155.083 M445.677,148.683c-2.143-1.949-3.111-4.534-3.111-7.327
	c0-4.478,1.175-7.271,2.737-11.266v0.595c0,2.917,2.267,5.336,4.369,7.271c-0.926,1.728-3.94,1.99-3.94,4.092
	c0,3.069,3.663,3.939,4.631,6.732c-0.691,1.893-3.166,2.211-4.949,2.64c-1.562,0.429-3.069,1.133-4.575,1.88L445.677,148.683z
	 M446.174,126.11c-0.332-1.99-1.465-3.663-2.584-5.225l2.363-0.429c1.991,0.483,5.433,2.378,5.433,4.742
	c0,2.529-4.354,2.958-6.178,4.63L446.174,126.11z M459.473,132.579l1.562-3.18c-3.456,1.189-7.215,2.585-9.746,5.336
	c-0.967-1.023-1.244-2.212-1.244-3.609c0-1.672,2.267-1.672,3.4-2.114l11.253-4.562c1.825,0.429,3.22,0.525,4.188,2.363
	c-2.363,1.881-5.75,2.42-7.05,5.655c3.719,0.373,5.447,1.189,5.447,5.115c0,3.441-3.83,10.768-6.151,13.09
	c-1.175,1.286-2.958,1.935-4.727,2.308l-0.484-2.363c0-1.41,0.097-2.696,0.097-4.036l-0.056-1.078
	c-0.912,1.341-2.419,4.147-4.133,4.465l-1.023-2.102c0-3.608,6.345-10.173,6.677-15.772L459.473,132.579z M456.459,126.11
	c1.341-1.023,3.111-2.585,3.553-4.257c-0.816-1.341-1.784-2.42-2.862-3.498l2.42-0.207c2.695,0,6.303,0.746,7.008,3.815
	C463.827,123.801,459.68,125.142,456.459,126.11z M460.703,134.085v0.208c0,3.663-2.793,6.898-4.036,10.298l1.88,2.516
	c3.179-2.419,4.852-7.05,4.852-10.92c0-1.396-1.935-1.617-2.696-2.433V134.085z M478.687,130.367
	c-1.714,0.802-3.871,1.88-4.949,3.497l1.299,0.484c1.23-0.374,2.419-0.595,3.705-0.595c2.585,0,6.524,0.056,6.677,3.512
	c-1.396,2.198-3.926,3.441-6.138,4.672l0.166,2.75c0,3.829-2.585,8.031-6.138,9.372c-0.387,0-6.137-0.912-6.137-12.44
	c0-3.553,1.935-4.949,4.894-6.346l-0.153-1.562l0.747-2.046l-3.235,1.175l-0.373-1.784l0.111-0.912l5.115-3.594l-3.29,1.12
	l-1.23-2.529c1.077-1.935,2.695-3.608,3.663-5.654l-1.672-1.134c1.286-0.746,3.718-1.769,5.115-1.769l2.585,1.286
	c-1.341,1.99-3.609,3.179-5.004,5.115l4.354-1.286c1.189,0.263,2.64,0.747,2.64,2.267l-0.111,0.374
	c-2.64,1.396-4.838,1.659-7.105,3.926l1.99-0.221l2.972,0.608L478.687,130.367z M473.849,137.749
	c-1.838,0.429-5.059,1.23-5.059,3.608l0.055,0.484c2.102-0.277,4.147-0.968,6.082-1.894L473.849,137.749z M471.527,143.084
	l-2.585-0.221c0.221,1.991,2.005,4.797,3.718,5.764c1.673-0.815,3.014-3.123,3.014-5.018l-0.111-1.078
	C474.277,142.919,472.881,143.084,471.527,143.084z M480.305,136.822l-1.286-0.483l-2.585,0.483l1.672,1.673L480.305,136.822z"/>
<path d="M558.115,139.905c-0.208,1.451-0.857,3.926-0.857,5.377l0.166,3.663l-2.005,2.848c-2.571,0-2.958-2.419-3.981-4.133
	l-1.99-2.045l-3.552,2.958h0.428c5.543,0,6.567,4.147,6.567,4.893l-2.198,1.99c-1.894,0-4.258-5.115-5.281-6.511
	c-1.396,1.134-2.958,2.157-4.631,2.848c2.806,0.387,6.138,1.949,6.138,5.225l-1.825,2.862c-3.235-1.617-3.124-5.225-4.907-7.866
	l-1.88,0.539c4.091-3.926,8.183-7.921,11.57-12.496c-2.253,0-3.76,1.299-5.487,2.641l-0.374-2.309l6.677-7.27
	c-4.258,0.317-8.516,4.147-11.156,7.27c-1.562-0.76-1.562-2.529-1.88-3.994c5.972-5.267,12.98-14.916,13.353-15.51l-1.714-1.341
	c1.493-1.023,3.22-1.99,5.004-1.99c1.825,0,3.553,0.373,4.727,1.935l-1.023,1.99l-2.793,2.323c-2.419,2.142-4.893,4.354-6.897,6.939
	c1.935-0.746,4.147-1.395,6.193-1.395c1.562,0,3.013,0.802,3.497,2.378l-6.94,5.156l1.134,0.221l2.211-0.539l1.99,2.157
	c-1.949,2.529-4.312,4.631-6.732,6.677l5.17,0.65L558.115,139.905 M559.899,136.933c0.802-1.395,3.013-1.617,4.354-2.198
	c2.917-1.299,6.248-5.169,7.064-6.358l1.769-2.958c-3.718,0.317-7.05,1.659-10.603,2.474c-1.617-0.276-3.179-1.395-4.257-2.529
	c5.916-1.189,11.307-4.575,17.182-5.875c1.935,0.802,4.148,0.76,5.654,2.419l0.968,2.005l-0.76,1.451l-2.253,1.617
	c-2.157,1.714-4.424,3.11-6.082,5.433c1.603,0.373,3.069,0.539,3.069,2.529l-0.595,1.244c-3.497,0.857-9.316,1.451-11.1,5.004
	c-0.595,1.189-1.88,6.676-1.88,8.612l0.055,0.968l-0.055,0.483c0,1.673,1.783,2.917,3.345,2.917c2.474,0,5.211-0.429,7.534-1.244
	c4.948-1.673,6.566-4.465,6.566-9.525c0-1.354-0.11-2.64-0.262-3.939c1.604,4.424,4.838,8.778,5.695,13.408
	c-1.493,4.852-14.749,5.336-18.841,5.336c-2.848,0-5.764-1.617-7.05-4.257l-0.483-2.902l-0.11-1.3c0-3.069,1.451-7.809,2.474-10.602
	L559.899,136.933z"/>
<polyline points="32.637,0.013 32.637,13.574 45.465,13.574 45.465,105.859 58.624,105.859 58.624,13.574 71.453,13.574 
	71.453,0.013 32.637,0.013 "/>
<path d="M554.121,50.773c-0.692-1.99-1.632-3.663-2.806-4.976c-1.203-1.327-2.585-2.294-4.106-2.861
	c-1.507-0.58-3.028-0.857-4.507-0.857c-2.281,0-5.708,0.401-9.607,3.787v-3.069h-13.174v63.062h13.174V60.808
	c0-2.447,1.991-4.437,4.438-4.437c2.447,0,4.451,1.99,4.451,4.437v45.051h13.16V58.017
	C555.144,55.183,554.798,52.736,554.121,50.773"/>
<path d="M136.465,42.796v45.051c0,2.447-1.991,4.437-4.451,4.437c-2.447,0-4.437-1.99-4.437-4.437V42.796h-13.174v47.843
	c0,2.833,0.345,5.266,1.036,7.243c0.692,1.99,1.632,3.663,2.806,4.976c1.203,1.327,2.585,2.295,4.105,2.861
	c1.493,0.567,3.014,0.857,4.507,0.857c2.267,0,5.709-0.401,9.607-3.787v3.069h13.159V42.796H136.465"/>
<path d="M109.039,50.773c-0.677-1.99-1.632-3.663-2.806-4.99c-1.189-1.327-2.572-2.281-4.105-2.862
	c-1.493-0.566-3.014-0.856-4.507-0.856c-2.267,0-5.695,0.414-9.593,3.787V0.013H74.854v105.846h13.174V60.643
	c0.083-2.405,2.032-4.285,4.437-4.285c2.447,0,4.437,1.99,4.437,4.451v45.051h13.174V58.017
	C110.075,55.169,109.73,52.736,109.039,50.773"/>
<path d="M215.975,23.97v21.896c-3.898-3.387-7.326-3.802-9.606-3.802c-1.493,0-3,0.29-4.507,0.857
	c-1.52,0.58-2.902,1.548-4.105,2.862c-1.174,1.327-2.114,2.999-2.806,4.99c-0.677,1.963-1.036,4.41-1.036,7.244v32.623
	c0,2.833,0.359,5.266,1.036,7.243c0.692,1.977,1.632,3.663,2.806,4.976c1.203,1.327,2.585,2.295,4.105,2.862
	c1.507,0.566,3.014,0.856,4.507,0.856c2.281,0,5.709-0.401,9.606-3.787v3.069h13.174V23.97H215.975 M207.087,87.57V60.808
	c0-2.447,1.99-4.451,4.451-4.451c2.392,0,4.354,1.894,4.437,4.272v27.37c-0.083,2.405-2.045,4.285-4.437,4.285
	c-2.46,0-4.451-1.99-4.451-4.451V87.57z"/>
<path d="M338.021,50.773c-0.692-1.991-1.632-3.663-2.806-4.991c-1.203-1.313-2.585-2.281-4.12-2.861
	c-1.493-0.567-3.013-0.857-4.506-0.857c-2.267,0-5.695,0.414-9.593,3.801V23.97h-13.174v81.889h13.174v-3.069
	c3.898,3.387,7.326,3.787,9.593,3.787c1.493,0,3.014-0.29,4.506-0.857c1.535-0.567,2.917-1.535,4.12-2.861
	c1.174-1.314,2.114-3,2.806-4.977c0.677-1.977,1.023-4.409,1.023-7.243V58.017C339.044,55.183,338.698,52.736,338.021,50.773
	 M325.884,60.808v27.025c0,2.461-2.005,4.451-4.451,4.451c-2.405,0-4.354-1.88-4.437-4.272v-27.37
	c0.083-2.392,2.032-4.285,4.437-4.285C323.88,56.358,325.884,58.363,325.884,60.808z"/>
<path d="M378.053,57.27c-0.304-2.17-0.884-4.147-1.714-5.833c-1.368-2.792-3.387-5.073-6.013-6.787
	c-2.641-1.714-5.792-2.585-9.386-2.585c-3.594,0-6.746,0.871-9.373,2.585c-2.626,1.714-4.645,3.995-6.027,6.787
	c-0.829,1.7-1.41,3.663-1.714,5.833c-0.29,2.129-0.442,4.493-0.442,6.994v20.113c0,2.516,0.152,4.866,0.442,6.995
	c0.305,2.17,0.885,4.132,1.714,5.833c1.382,2.806,3.414,5.087,6.027,6.787c2.613,1.714,5.779,2.585,9.373,2.585
	c3.594,0,6.76-0.871,9.386-2.585c2.612-1.714,4.645-3.995,6.013-6.787c0.829-1.687,1.41-3.65,1.714-5.833
	c0.305-2.143,0.456-4.493,0.456-6.995V64.264C378.51,61.763,378.358,59.413,378.053,57.27 M356.503,60.808
	c0-2.446,1.99-4.451,4.437-4.451c2.46,0,4.451,2.005,4.451,4.451v27.025c0,2.447-1.99,4.451-4.451,4.451
	c-2.447,0-4.437-2.005-4.437-4.451V60.808z"/>
<path d="M400.392,92.284c-2.461,0-4.451-1.99-4.451-4.451V23.97h-13.119v60.408c0,2.516,0.153,4.866,0.443,6.994
	c0.304,2.184,0.884,4.147,1.728,5.848c1.382,2.806,3.4,5.087,6.013,6.787c2.626,1.7,5.778,2.572,9.386,2.572h2.101V92.284H400.392"
	/>
<path d="M424.293,92.284c-2.447,0-4.451-1.99-4.451-4.451V54.449h6.137V42.797h-6.137V23.97h-13.104v18.827h-6.318v11.652h6.318
	v29.928c0,2.516,0.138,4.866,0.442,6.994c0.29,2.184,0.871,4.147,1.714,5.848c1.382,2.806,3.4,5.087,6.013,6.787
	c2.626,1.7,5.778,2.572,9.386,2.572h2.101V92.284H424.293"/>
<path d="M582.818,92.284c-2.461,0-4.451-1.99-4.451-4.451V54.449h6.137V42.797h-6.137V23.97h-13.119v18.827h-6.303v11.652h6.303
	v29.928c0,2.516,0.153,4.866,0.443,6.994c0.304,2.184,0.884,4.147,1.728,5.848c1.382,2.806,3.4,5.087,6.013,6.787
	c2.626,1.7,5.778,2.572,9.386,2.572h2.101V92.284H582.818"/>
<path d="M268.587,64.264c0-2.502-0.153-4.852-0.456-6.994c-0.305-2.17-0.885-4.147-1.714-5.833
	c-1.368-2.793-3.387-5.073-6.013-6.788c-2.64-1.714-5.792-2.585-9.385-2.585c-3.594,0-6.746,0.872-9.386,2.585
	c-2.613,1.714-4.631,3.995-6.013,6.788c-0.829,1.7-1.41,3.663-1.714,5.833c-0.29,2.129-0.442,4.493-0.442,6.994v20.113
	c0,2.516,0.152,4.866,0.442,6.994c0.305,2.17,0.885,4.133,1.714,5.848c1.382,2.792,3.414,5.073,6.013,6.773
	c2.626,1.714,5.778,2.585,9.386,2.585c3.593,0,6.759-0.872,9.385-2.585c2.613-1.714,4.645-3.995,6.013-6.788
	c0.844-1.687,1.41-3.649,1.714-5.833c0.221-1.534,0.359-3.193,0.414-4.948l0.014-0.29h-13.091v1.7c0,2.447-2.005,4.451-4.451,4.451
	c-2.447,0-4.438-2.005-4.438-4.451v-7.866h22.007V64.264 M251.018,56.357c2.446,0,4.451,2.005,4.451,4.451v7.52h-8.888v-7.52
	C246.58,58.362,248.571,56.357,251.018,56.357z"/>
<polyline points="480.443,13.574 480.443,0.014 445.318,0.014 445.318,105.859 458.477,105.859 458.477,55.653 477.609,55.653 
	477.609,42.065 458.477,42.065 458.477,13.574 480.443,13.574 "/>
<path d="M514.227,53.593c-0.912-2.516-2.17-4.659-3.746-6.373c-1.576-1.701-3.484-3.014-5.654-3.871
	c-2.143-0.843-4.465-1.286-6.912-1.286c-2.433,0-4.755,0.443-6.912,1.286c-2.157,0.857-4.064,2.17-5.654,3.871
	c-1.562,1.714-2.82,3.857-3.733,6.373c-0.899,2.474-1.354,5.377-1.354,8.64v0.276h13.215v-1.7c0-2.447,1.99-4.451,4.437-4.451
	c2.46,0,4.451,2.005,4.451,4.451l0.013,6.788h-10.174c-1.493,0-3.013,0.29-4.506,0.856c-1.534,0.581-2.902,1.548-4.105,2.875
	c-1.174,1.314-2.129,2.986-2.806,4.977c-0.691,1.962-1.037,4.396-1.037,7.243v7.091c0,2.834,0.346,5.266,1.037,7.243
	c0.677,1.977,1.632,3.663,2.806,4.976c1.203,1.327,2.572,2.295,4.105,2.862c1.452,0.553,3.096,0.857,4.603,0.857
	c3.787,0,7.188-1.272,10.105-3.788v3.069h13.174V62.343C515.582,59.039,515.125,56.095,514.227,53.593 M497.971,92.284
	c-2.336,0-4.949-1.907-4.949-4.451v-3.912c0-2.543,2.613-4.437,4.949-4.437h4.423v8.778
	C502.173,90.556,500.279,92.284,497.971,92.284z"/>
<path d="M623.237,53.593c-0.912-2.516-2.17-4.659-3.733-6.373c-1.59-1.701-3.497-3.014-5.654-3.871
	c-2.156-0.843-4.478-1.286-6.912-1.286c-2.447,0-4.769,0.443-6.912,1.286c-2.17,0.857-4.078,2.17-5.667,3.871
	c-1.562,1.714-2.82,3.857-3.733,6.373c-0.899,2.474-1.354,5.377-1.354,8.64v0.276h13.215v-1.7c0-2.447,1.99-4.451,4.451-4.451
	c2.447,0,4.438,2.005,4.438,4.451l0.013,6.788h-10.174c-1.492,0-3.013,0.29-4.506,0.856c-1.52,0.581-2.902,1.548-4.105,2.875
	c-1.174,1.314-2.129,2.986-2.806,4.977c-0.691,1.962-1.037,4.396-1.037,7.243v7.091c0,2.834,0.346,5.266,1.037,7.243
	c0.677,1.977,1.632,3.663,2.806,4.976c1.203,1.327,2.585,2.295,4.105,2.862c1.452,0.553,3.096,0.857,4.617,0.857
	c3.774,0,7.175-1.272,10.092-3.788l0.013,3.069h13.174V62.343C624.605,59.039,624.135,56.095,623.237,53.593 M606.981,92.284
	c-2.336,0-4.949-1.907-4.949-4.451v-3.912c0-2.543,2.613-4.437,4.949-4.437h4.423v8.778
	C611.197,90.556,609.29,92.284,606.981,92.284z"/>
<path d="M663.699,86.727c-0.069-4.091-1.065-6.884-2.53-9.773c-1.7-3.332-4.741-5.944-9.027-7.782l-6.552-2.889l-0.027-0.014
	c-1.838-0.774-2.972-1.59-3.387-2.432c-0.429-0.926-0.553-1.563-0.567-2.821v-0.208c0-2.446,1.99-4.451,4.437-4.451
	c2.447,0,4.451,2.005,4.451,4.451v1.106h13.201v-0.276c-0.056-3.028-0.512-5.737-1.355-8.046c-0.899-2.516-2.157-4.658-3.733-6.373
	c-1.59-1.7-3.484-3.014-5.654-3.87c-1.382-0.539-2.861-0.926-4.382-1.12l-2.308-0.165h-0.221c-2.432,0-4.755,0.442-6.912,1.286
	c-2.157,0.856-4.064,2.17-5.654,3.87c-1.576,1.714-2.834,3.857-3.733,6.373c-0.829,2.308-1.285,5.018-1.354,8.046
	c0,3.69,1.05,6.966,3.207,10.049c2.087,2.986,5.004,5.28,8.667,6.815l5.377,2.157c2.405,1.009,3.22,1.756,4.051,2.945l0.802,3.179
	v0.968l-0.29,1.645c-0.65,1.728-2.323,2.889-4.161,2.889c-2.447,0-4.437-2.005-4.437-4.451v-1.106h-13.215v0.277
	c0.069,3.027,0.511,5.737,1.354,8.059c0.898,2.502,2.156,4.645,3.733,6.359c1.59,1.7,3.497,3.013,5.654,3.87
	c1.604,0.622,3.304,1.037,5.073,1.189l1.741,0.097l0.595-0.013c2.267-0.056,4.424-0.484,6.414-1.272
	c2.17-0.857,4.064-2.17,5.654-3.87c1.576-1.714,2.834-3.857,3.733-6.359c0.636-1.769,1.064-3.774,1.244-5.972l0.111-1.949V86.727"/>
<path d="M691.289,43.059c0,0-3.345,15.247-6.857,31.227c-3.497-15.897-6.87-31.227-6.87-31.227h-12.994l13.409,60.505
	c-0.871,3.899-1.438,6.456-1.521,6.829c-0.47,2.018-1.036,3.608-1.617,4.631l-1.742,1.783l-2.516,0.429h-2.239v13.022h3.815
	c1.728,0,3.428-0.221,5.045-0.691c1.659-0.47,3.221-1.286,4.672-2.42c1.451-1.147,2.737-2.668,3.829-4.548
	c1.078-1.88,1.935-4.229,2.516-7.022l16.062-72.517H691.289"/>
<path d="M300.56,43.073l-0.374-0.152c-1.493-0.566-3.014-0.857-4.506-0.857c-2.267,0-5.695,0.415-9.594,3.802v-2.806l-0.013-0.262
	h-13.159v63.062h13.173V66.656c0-5.682,4.618-10.298,10.285-10.298c1.396,0,2.737,0.276,4.009,0.815l0.373,0.152V43.156
	L300.56,43.073"/>
<path d="M188.578,50.773c-0.692-1.99-1.632-3.663-2.821-4.99c-1.189-1.314-2.571-2.281-4.105-2.862
	c-1.493-0.566-3.014-0.856-4.506-0.856c-2.267,0-5.695,0.414-9.607,3.801v-3.069h-13.16v63.062h13.16V60.808
	c0-2.447,2.005-4.451,4.451-4.451s4.451,2.004,4.451,4.451v45.051h13.16V58.017C189.6,55.183,189.254,52.736,188.578,50.773"/>
<path d="M127.271,3.884l-0.692,0.138l-0.76,0.18l-0.857,0.097l0.415-1.562l0.152-0.539L123.11,0.47l-1.092,0.968l0.704,0.332
	l0.387,1.382l-0.014,0.456l-0.028,0.401l-0.028,0.526l-0.29,0.027l-1.59,0.18l0.083-0.65l0.125-0.553l-2.06-1.576l-1.258,0.996
	l0.829,0.304l0.069,0.014l0.484,1.313l0.041,0.346l-0.981,0.111L117.622,5.1L115.3,4.727l-0.221-0.097l-0.18-0.069l-0.208,0.512
	l2.544,1.672l1.313-0.235l0.747-0.18l0.235-0.041l-0.068,1.632l-0.014,0.124l-0.014,0.138l0.912,1.548l1.009-1.659l-0.028-0.346
	V7.588L121.3,7.354l-0.097-1.286l1.741-0.208l0.084-0.013c-0.097,3.248-1.714,6.318-4.133,7.824l-0.954,0.733l0.138,0.111
	l1.314-0.429c3.552-1.41,5.46-4.272,5.515-8.239l0.014-0.152h0.208l0.262-0.014l2.862,0.332l0.47,0.055l1.147-0.774L127.271,3.884"
	/>
<path d="M142.45,6.206l1.05,0.539l1.258-1.326c0-0.926-0.913-2.005-3.484-2.005l-1.742,0.29l0.512,0.387L142.45,6.206"/>
<path d="M152.623,2.875l-0.705,0.623c-1.838,2.129-7.852,7.395-10.105,7.395l-0.359-0.111l-0.083-0.097l-0.498-0.428l-0.429,1.12
	l2.475,2.004l0.65-0.221l0.221-0.208l0.401-0.332c5.309-3.166,8.529-9.012,8.529-9.607L152.623,2.875"/>
<polyline points="174.063,0 173.123,0.277 173.496,0.608 174.893,1.645 175.459,1.935 176.109,1.231 174.063,0 "/>
<polyline points="172.115,0.787 171.34,1.064 171.699,1.395 173.068,2.502 173.648,2.792 174.298,2.101 172.115,0.787 "/>
<path d="M171.451,2.046l-0.622,0.29l-0.249,0.152l-1.548,0.346l0.097-0.442l-1.977-1.576l-1.244,0.899l0.442,0.208l0.249,0.041
	l0.263,0.29l-0.097,0.332c-1.562,2.557-3.248,4.603-4.769,5.751l-0.635,0.635l0.124,0.111c0.014,0,1.935-0.429,4.327-2.544
	l0.249,0.111l0.318,0.152l1.383,0.857c-1.535,1.866-3.927,4.341-6.746,5.487l-0.884,0.567l0.262,0.138
	c0.041,0,4.548-0.456,8.75-5.018l0.124,0.111l0.456,0.483l1.078,0.58l1.065-1.161l-1.314-1.714l1.341-1.908l0.816-0.967l0.802-0.65
	L171.451,2.046 M170.387,3.787l-1.77,2.751l-2.516-0.277l1.935-2.059l0.526-0.124l1.728-0.374L170.387,3.787z"/>
<path d="M193.928,5.86l-0.402,0.014c-1.962,0.165-7.436,0.429-7.588,0.429l-2.019-0.332l-0.511-0.194l-0.221,0.359
	c0,1.438,1.853,2.198,2.613,2.198l1.147-0.165c0.871-0.194,3.054-0.387,5.349-0.387h1.023l0.622,0.013l2.308-1.023
	C196.25,6.621,196.139,5.86,193.928,5.86"/>
<path d="M213.114,9.247l-0.153-2.543l0.014-0.775l0.18-0.013l1.258-0.056l2.184,0.166l0.056,0.013l0.345,0.028l1.106-0.704
	l-2.571-1.3l-0.885,0.222l-0.691,0.235l-0.332,0.041l-0.539,0.069l0.069-0.553l0.207-0.526l0.166-0.566l-2.405-1.548l-1.106,0.856
	l0.359,0.221l0.318-0.013h0.056l0.691,1.424v0.926c-1.438,0.194-2.267,0.222-2.267,0.222l-2.433-0.498l-0.262-0.056l-0.249,0.318
	l0.65,1.202l1.935,0.65l0.954-0.165l0.691-0.166l0.995-0.208l0.042,2.336l-0.056,1.466l-0.926-0.58l-0.332-0.221l-0.511-0.277
	l-0.097,0.097l0.608,1.023l0.76,2.171v0.055l1.078,1.271l1.341-2.253l-0.152-1.355L213.114,9.247"/>
<polyline points="214.524,2.335 215.893,3.414 216.473,3.705 217.136,2.986 214.994,1.741 214.165,2.004 214.524,2.335 "/>
<polyline points="209.258,7.285 208.981,7.769 208.94,7.838 206.507,9.635 206.479,9.649 205.567,10.852 206.755,11.944 
	208.483,11.004 209.465,8.336 209.258,7.285 "/>
<path d="M214.165,7.492l-0.194,0.125l0.442,0.414l0.111,0.084l1.521,1.99l0.332,0.58l1.161,0.775l1.203-1.286
	C218.74,7.907,214.206,7.492,214.165,7.492"/>
<polyline points="216.888,0.912 215.948,1.217 216.321,1.535 217.718,2.572 218.298,2.848 218.948,2.129 216.888,0.912 "/>
<path d="M243.747,3.414l-0.761,0.788c-2.073,2.557-5.377,4.824-5.764,4.921l-0.014-0.028l0.429-3.649l0.152-0.705l-0.981-1.603
	l-1.023-0.374L234.499,3.4l0.691,0.401c0.235,0.084,0.511,0.691,0.511,2.129c0,0.885-0.111,1.991-0.318,3.276l-0.083,0.29
	l-0.166,0.733l1.659,1.811l0.747-0.442l0.249-0.221c2.958-2.516,4.88-4.824,5.695-6.87l0.346-0.981L243.747,3.414"/>
<path d="M232.605,3.787l-1.162,0.816l0.664,0.277l0.677,0.663c0,0.926-1.41,4.506-4.589,7.037l-0.608,0.594l0.097,0.097
	c0.359,0,4.907-1.562,6.939-6.524l0.235-0.954L232.605,3.787"/>
<path d="M258.012,5.791l-1.19,0.097l0.125-2.032l0.221-0.677l0.18-0.664l-2.419-1.852l-0.981,0.732l0.566,0.29l0.138,0.042
	c0.29,0.069,0.456,0.76,0.456,4.188c0,0.747-0.014,2.654-0.138,4.105l-0.193,1.078l-0.166,0.747l-0.014,0.359l1.327,2.363
	l1.105-1.935l-0.028-0.359c-0.083-0.872-0.207-3.152-0.207-5.294V6.427l2.447,1.963l1.133,0.553l1.189-1.202
	C261.564,7.547,261.468,5.791,258.012,5.791"/>
<path d="M281.83,2.17l-0.941,0.526c-0.207,0.111-4.299,0.719-5.654,0.719l-1.009-0.166l-0.65-0.566l-0.414,0.926l2.64,1.756
	l1.258-0.29l0.442-0.152l0.705-0.221l2.903-0.719h0.041l0.069,0.055c-0.014,0.056-2.806,6.248-7.755,8.958l-0.953,0.65v0.028
	l0.013,0.013l0.111,0.042l1.037-0.249c4.064-1.203,7.091-3.802,9.538-8.143l0.069-0.138l0.29-0.443l0.235-0.18l0.678-0.788
	L281.83,2.17"/>
<path d="M303.118,5.349l-1.286-0.594l-0.221,0.028l-0.18,0.096l-0.305,0.125l-2.198,0.235l-1.479,0.166l-0.747,0.041l-0.94-0.111
	l-0.47-0.332L295.1,5.349l0.013,0.291l1.908,1.341l0.816-0.18l0.221-0.083l3.497-0.733l0.083,0.056v0.027l-1.479,1.466l-1.271-0.429
	l-1.106,0.664l0.041,0.138l0.553,0.111l0.208,0.111c0,0.815-1.493,4.132-3.691,5.446l-0.899,0.663l0.125,0.084l0.981-0.249
	c2.972-0.913,5.059-3.981,5.266-5.806l2.433-1.023l0.041-0.013l0.013-0.014l1.078-0.746L303.118,5.349"/>
<path d="M317.688,6.206l1.064,0.539l1.244-1.326c0-0.926-0.913-2.005-3.484-2.005l-1.742,0.29l0.512,0.387L317.688,6.206"/>
<path d="M327.861,2.875l-0.705,0.623c-1.838,2.129-7.852,7.395-10.105,7.395l-0.359-0.111l-0.083-0.097l-0.498-0.428l-0.429,1.12
	l2.488,2.004l0.636-0.221l0.235-0.208l0.386-0.332c5.309-3.166,8.529-9.012,8.529-9.607L327.861,2.875"/>
<path d="M346.758,2.074l-0.622,0.29l-0.249,0.166l-1.548,0.345l0.096-0.442l-1.949-1.59l-1.271,0.899l0.442,0.221l0.249,0.041
	l0.262,0.29l-0.096,0.332c-1.106,1.811-2.834,4.285-4.755,5.751l-0.636,0.636l0.111,0.096c0.028,0,2.101-0.539,4.341-2.529
	l0.262,0.111l0.318,0.152l1.368,0.844c-1.52,1.88-3.926,4.327-6.746,5.502l-0.871,0.553l0.262,0.138
	c0.042,0,4.466-0.374,8.751-5.018l0.553,0.595l1.078,0.594l1.092-1.174l-1.327-1.7l1.341-1.908l0.815-0.982l0.788-0.635
	L346.758,2.074 M345.735,3.787c-0.014,0.069-0.498,1.023-1.784,2.793l-2.529-0.277l1.935-2.059l2.226-0.511L345.735,3.787z"/>
<polyline points="368.792,1.644 370.16,2.723 370.741,3.027 371.39,2.322 369.247,1.064 368.432,1.327 368.792,1.644 "/>
<path d="M362.696,8.432l1.174-1.147c0-0.581-0.539-1.59-2.571-1.59l-2.115,0.581l0.414,0.276l0.084,0.041l2.018,1.424L362.696,8.432
	"/>
<path d="M362.17,3.276l0.152,0.111l1.838,1.714l1.106,0.567l1.161-1.161c0-0.636-0.636-1.825-3.042-1.825l-1.52,0.332L362.17,3.276"
	/>
<polyline points="370.589,0.856 371.984,1.893 372.551,2.184 373.201,1.479 371.155,0.249 370.215,0.525 370.589,0.856 "/>
<path d="M373.312,2.944l-0.775,0.705c-1.672,2.005-7.962,7.81-10.243,7.81l-0.539-0.235l-0.083-0.18l-0.414-0.539l-0.623,1.354
	l2.461,2.059l0.677-0.207l0.359-0.29l0.317-0.249c3.345-1.991,7.534-6.373,8.64-9.027l0.332-1.05L373.312,2.944"/>
<path d="M393.798,5.86l-0.402,0.014c-1.949,0.165-7.436,0.429-7.575,0.429l-2.033-0.332l-0.511-0.194l-0.221,0.359
	c0,1.438,1.853,2.198,2.613,2.198l1.147-0.165c0.871-0.194,3.054-0.387,5.349-0.387h1.023l0.635,0.013l2.295-1.023
	C396.12,6.621,396.01,5.86,393.798,5.86"/>
<polyline fill="#00B3EC" points="302.053,114.318 302.467,113.959 303.173,113.365 304.292,113.102 304.748,112.826 
	304.292,112.563 303.173,112.286 302.467,111.706 302.053,111.347 301.831,111.734 302.121,112.826 301.831,113.917 
	302.053,114.318 "/>
<polyline fill="#00B3EC" points="304.749,112.811 304.749,112.839 304.749,112.811 "/>
<path fill="#00B3EC" d="M72.946,98.104c-4.244,0.305-8.377,0.65-12.413,1.051v2.889c4.036-0.415,8.17-0.76,12.413-1.05V98.104"/>
<path fill="#00B3EC" d="M72.946,103.757c-2.323,0.153-7.409,0.844-10.146,1.231l-1.299,0.165l-0.968,0.138v1.563
	c5.087-0.775,10.409-1.507,12.413-1.66V103.757"/>
<path fill="#00B3EC" d="M95.008,96.901c-1.673,0.084-3.36,0.166-5.073,0.249v2.875c1.714-0.083,3.4-0.165,5.073-0.249V96.901"/>
<polyline fill="#00B3EC" points="89.935,103.052 89.935,104.49 93.307,104.366 95.007,104.297 95.007,102.859 93.266,102.928 
	89.935,103.052 "/>
<path fill="#00B3EC" d="M115.356,102.153l-3.373,0.111v1.423c1.396-0.041,2.861-0.083,4.368-0.124L115.356,102.153"/>
<polyline fill="#00B3EC" points="113.628,98.504 112.977,96.059 111.983,96.113 111.983,98.975 113.78,98.906 113.628,98.504 "/>
<polyline fill="#00B3EC" points="152.471,94.661 151.531,94.689 151.531,97.565 152.471,97.537 152.471,94.661 "/>
<path fill="#00B3EC" d="M169.46,101.836c1.824-0.055,3.524-0.111,5.072-0.152v-1.438c-1.548,0.041-3.248,0.097-5.072,0.153V101.836"
	/>
<path fill="#00B3EC" d="M174.533,93.86c-1.728,0.056-3.429,0.125-5.073,0.18v2.875c1.644-0.055,3.345-0.124,5.073-0.18V93.86"/>
<polyline fill="#00B3EC" points="152.471,100.979 151.531,101.021 151.531,102.459 152.471,102.417 152.471,100.979 "/>
<path fill="#00B3EC" d="M139.795,110.033c0,0,0.525-0.304,1.783-0.124c1.271,0.18,1.617,1.037,1.687,1.271l0.29-0.083
	c0.401-0.608,0.981-1.88,3.87-1.88c2.89,0,3.47,1.271,3.871,1.88l0.29,0.083c0.083-0.235,0.429-1.092,1.687-1.271
	c1.271-0.18,1.783,0.124,1.783,0.124l1.189-2.266h-3.773v-3.332l-0.94,0.041v3.29H138.62L139.795,110.033"/>
<polyline fill="#00B3EC" points="214.068,106.481 212.685,107.186 214.068,107.186 214.068,106.481 "/>
<polyline fill="#00B3EC" points="192.103,93.182 191.508,93.21 191.508,96.086 192.489,96.044 192.103,93.182 "/>
<path fill="#00B3EC" d="M196.347,104.13l-0.816-0.995c-1.037,0.013-2.392,0.055-4.023,0.097v3.967c2.917,0,6.124-0.014,8.888-0.028
	C198.904,106.467,197.535,105.457,196.347,104.13"/>
<polyline fill="#00B3EC" points="193.623,99.735 191.508,99.79 191.508,101.241 194.3,101.159 193.623,99.735 "/>
<polyline fill="#00B3EC" points="265.145,83.534 265.172,83.769 265.256,84.226 265.877,84.226 266.016,82.193 266.209,81.875 
	264.743,81.875 265.324,82.152 265.228,82.442 265.034,82.788 260.306,81.875 255.938,81.875 256.45,81.959 265.145,83.534 "/>
<polyline fill="#00B3EC" points="232.011,91.634 232.011,91.579 231.043,91.634 231.043,94.496 232.564,94.413 232.011,91.634 "/>
<path fill="#00B3EC" d="M234.209,98.643l-3.166,0.069v1.424c1.644-0.028,2.999-0.056,4.008-0.069L234.209,98.643"/>
<path fill="#00B3EC" d="M240.595,105.596c-1.424-0.926-2.682-2.004-3.774-3.234c-2.143,0.055-4.12,0.111-5.779,0.138v4.369
	c3.512-0.111,7.506-0.249,11.017-0.429L240.595,105.596"/>
<path fill="#00B3EC" d="M298.777,94.979l3.138-0.179v-2.89l-3.138,0.194c-1.604,0-3.456-0.138-5.516-0.402
	c-2.142-0.262-3.87-0.65-5.266-1.092v2.999c1.382,0.374,2.999,0.705,4.893,0.941C295.058,94.828,297.035,94.979,298.777,94.979"/>
<path fill="#00B3EC" d="M301.915,99.21c-4.714-0.428-9.607-0.774-13.92-1.009v1.438c4.313,0.235,9.22,0.581,13.92,1.009V99.21"/>
<path fill="#00B3EC" d="M321.434,90.376l0.663-0.096l-0.885-1.383l-0.083-0.152c-0.235-0.429-0.802-1.423-2.115-1.438h-0.111v0.664
	C318.959,89.326,320.079,90.376,321.434,90.376"/>
<path fill="#00B3EC" d="M322.056,79.664l1.921,0.816v-1.7l-1.175-0.636l-2.792-0.912l-0.235,0.028l-0.429,0.111l0.152,0.429
	C319.746,78.295,320.673,78.987,322.056,79.664"/>
<polyline fill="#00B3EC" points="306.781,108.651 306.905,107.767 305.039,107.767 305.164,107.836 306.781,108.651 "/>
<polyline fill="#00B3EC" points="323.977,85.511 323.977,84.17 321.308,83.52 319.331,83.327 318.903,83.341 318.903,84.626 
	321.018,85.179 323.977,85.511 "/>
<path fill="#00B3EC" d="M288.506,104.476l0.47,0.595l0.386,0.013l0.47,0.042h0.775l0.912,0.94l0.788,0.663l0.305,0.996l0.663,0.028
	l0.346-0.733l0.995,0.305l0.084,1.299l-0.595,0.138l-0.014,0.898l1.423,0.747l1.645-0.249l0.525-0.65l-0.497-0.635l-0.125-0.581
	l0.442-0.345l0.359-0.526l1.162,0.775l0.498,0.332l0.594-0.304l1.175-0.636l0.622,0.124v-3.441
	c-3.525-0.318-9.082-0.802-13.92-1.217v1.52L288.506,104.476"/>
<polyline fill="#00B3EC" points="291.382,83.893 300.063,85.484 300.09,85.718 301.915,88.317 301.915,87.626 300.808,86.216 
	300.947,84.142 301.915,83.05 301.915,82.373 300.808,83.243 300.56,83.465 292.335,79.401 289.667,77.853 287.994,76.844 
	287.994,78.531 289.128,78.958 291.976,80.12 300.242,84.101 300.145,84.391 299.966,84.737 291.519,83.106 288.548,82.359 
	287.994,82.221 287.994,83.548 288.243,83.576 291.382,83.893 "/>
<polyline fill="#00B3EC" points="302.178,108.015 301.845,108.167 301.666,108.416 301.887,108.872 301.555,109.812 
	301.873,110.517 302.841,110.71 303.933,110.794 304.721,110.116 305.108,109.701 305.052,109.356 304.555,109.038 304.32,108.707 
	304.306,107.988 304.555,107.767 301.998,107.767 302.178,108.015 "/>
<path fill="#00B3EC" d="M261.73,105.388c3.344-0.068,6.22-0.111,7.603-0.111l1.672,0.069v-3.276
	c-1.797-0.055-3.636-0.096-5.405-0.138C264.495,103.246,263.195,104.407,261.73,105.388"/>
<polyline fill="#00B3EC" points="287.995,105.015 287.995,105.527 287.995,105.015 "/>
<path fill="#00B3EC" d="M271.006,97.952l-2.862,0.042l-0.028,0.069l-0.746,1.368c1.257-0.014,2.474-0.042,3.636-0.056V97.952"/>
<polyline fill="#00B3EC" points="271.006,81.281 270.481,80.77 270.481,81.599 271.006,82.471 271.006,81.281 "/>
<polyline fill="#00B3EC" points="271.006,88.234 270.356,88.387 270.052,91.373 271.006,91.179 271.006,88.234 "/>
<polyline fill="#00B3EC" points="271.006,85.497 271.006,84.323 270.895,84.599 270.494,85.18 270.467,86.023 271.006,85.497 "/>
<polyline fill="#00B3EC" points="341.643,88.8 340.951,89.505 340.951,90.211 341.711,89.644 341.643,88.8 "/>
<polyline fill="#00B3EC" points="341.491,85.593 341.477,84.737 340.952,84.391 340.952,85.082 341.491,85.593 "/>
<polyline fill="#00B3EC" points="342.197,93.128 340.786,93.971 340.164,97.358 342.984,96.031 342.197,93.128 "/>
<path fill="#00B3EC" d="M348.375,103.978l-1.411-1.368c-1.977,0.084-4.409,0.125-7.285,0.125l-1.963-0.013l-1.092,1.41l-0.014,0.027
	C340.44,104.186,344.987,104.172,348.375,103.978"/>
<path fill="#00B3EC" d="M382.933,97.316l-0.954-2.709l-0.359,0.097l-2.46,0.511l-1.12,2.848l-0.125,0.235
	c1.604-0.194,3.124-0.47,4.437-0.816L382.933,97.316"/>
<path fill="#00B3EC" d="M372.704,108.526c2.35-0.124,7.423-1.368,11.238-2.543l0.953-0.305c1.093-0.345,2.295-0.719,3.663-1.092
	c-1.7-1.327-3.124-2.903-4.272-4.727c-2.516-0.47-4.907-0.968-6.497-1.314l-0.76,1.314l1.341,0.29l-0.041,0.262
	c-0.221,0.318-1.189,0.732-2.516,1.161c-1.244,1.548-2.723,2.903-4.451,4.023c-1.811,1.175-3.842,1.99-6.054,2.46
	c1.659,0.291,3.622,0.512,5.779,0.512L372.704,108.526"/>
<path fill="#00B3EC" d="M396.328,113.462l0.401,0.539l0.47,0.262l0.47,0.373l-0.138,0.857l0.802,0.483l0.414-0.304l0.401-0.677
	l1.078,0.305l-0.013,1.105l-0.719,0.208l0.111,0.981l2.032,0.677l1.493-1.078l0.47-0.276l0.359-0.471l-0.567-0.055l-0.65-0.028
	l0.014-1.037l1.479,0.125l0.774,0.719l0.526-0.387l0.663-0.511l1.161,0.041l-0.055,0.953l-0.65,0.125l-0.014,0.456l0.512,0.442
	l1.064,0.732l1.838-0.29l0.885-1.286l-0.332-0.304l-0.692-0.041l0.084-1.286l1.189-0.041l0.193,0.498l0.415,0.442l0.65-0.608
	l0.028-1.299l0.746-0.235l0.553-0.747l-0.553-0.732l-0.746-0.235l-0.028-1.313l-0.65-0.595l-0.415,0.429l-0.193,0.498l-1.189-0.028
	l-0.084-1.286l0.692-0.055l0.332-0.305l-0.885-1.271l-1.838-0.29l-1.064,0.719l-0.512,0.456l0.014,0.442l0.65,0.124l0.055,0.968
	l-1.161,0.028l-0.663-0.511l-0.526-0.387l-0.774,0.732l-1.479,0.125l-0.014-1.037l0.65-0.041l0.567-0.056l-0.359-0.47l-0.47-0.249
	h-2.737l-1.023-0.027l0.125,0.594l0.719,0.193l0.013,1.12l-1.078,0.29l-0.401-0.677l-0.414-0.29l-0.802,0.47l0.138,0.857
	l-0.47,0.373l-0.47,0.262l-0.401,0.539l-0.359,0.636L396.328,113.462 M402.466,112.811c0-1.064,0.94-1.921,2.225-1.921
	c2.323,0,2.626,1.424,2.682,1.935c-0.056,0.511-0.359,1.949-2.682,1.949c-1.285,0-2.225-0.871-2.225-1.935V112.811z"/>
<path fill="#00B3EC" d="M404.401,90.376v0.359l0.746-0.221l-0.235-2.93c-1.825,0.553-4.023,1.23-6.4,1.962l1.88,0.829H404.401"/>
<path fill="#00B3EC" d="M404.401,102.748c2.502,0.028,4.575,0.138,6.303,0.277l-1.286-1.438c-1.576-0.069-3.276-0.124-5.018-0.18
	V102.748"/>
<path fill="#00B3EC" d="M477.844,90.639v-0.967c-4.687,1.354-10.934,3.166-17.459,5.045v1.576
	c5.184-1.493,11.888-3.429,17.472-5.032L477.844,90.639"/>
<path fill="#00B3EC" d="M500.487,83.313c-1.784,0.484-3.691,1.01-5.557,1.521v1.672c1.756-0.47,3.677-0.995,5.557-1.507V83.313"/>
<path fill="#00B3EC" d="M469.149,84.086c3.123-0.538,5.944-1.023,8.708-1.603l0.249-2.972c-2.958,0.636-5.985,1.147-9.455,1.742
	l-1.244,0.221c-2.322,0.387-4.658,0.691-7.022,0.912v2.875c2.529-0.235,5.032-0.539,7.506-0.968L469.149,84.086"/>
<path fill="#00B3EC" d="M479.282,99.306l-0.305-0.802l-0.816-3.372c-4.714,1.161-12.897,3.165-17.776,4.492v1.258l0.248,0.332
	l-0.248,1.314v2.198c4.257-1.466,8.376-2.848,10.257-3.332C472.494,100.923,475.673,100.15,479.282,99.306"/>
<path fill="#00B3EC" d="M441.254,85.883h2.156v-2.875h-7.644c-4.976,0-9.815,0.429-14.017,1.009v2.889
	c4.188-0.58,9.026-1.023,14.017-1.023H441.254"/>
<path fill="#00B3EC" d="M482.585,112.826l5.889,4.478c0.94,0.512,13.256,4.313,14.999,4.714c1.368,0.318,2.032,0.387,2.571,0.084
	c0.415-0.235,3.802-2.489,5.833-3.76c2.046-1.271,6.206-3.235,7.866-3.787c2.46-0.816,10.574,1.838,12.44,2.557l5.668,2.018
	l1.962-0.056l-0.594-3.524l-0.829-2.696l0.829-2.737l0.594-3.525l-1.962-0.069l-5.668,2.032c-1.866,0.719-9.98,3.373-12.44,2.544
	c-1.466-0.484-4.921-2.087-7.106-3.332h-4.257l1.466,1.327c1.41,1.355,4.133,2.765,4.506,2.875l1.99,0.511l0.898,0.346v-0.014v0.042
	v-0.028l-0.898,0.359l-1.99,0.498c-0.374,0.111-3.096,1.534-4.506,2.889c-0.719,0.677-2.585,2.654-4.603,2.654
	c-2.475,0-14.335-3.594-16.381-4.548c-1.314-0.622-2.239-1.41-2.239-1.838v-0.013c0-0.429,0.926-1.23,2.239-1.838
	c1.382-0.65,7.23-2.502,11.639-3.622v-0.94c-2.502,1.368-5.239,2.059-8.197,2.059l-3.235-0.373l-0.594,0.249L482.585,112.826
	 M529.82,112.811l0.013,0.014c0-1.797,1.769-3.843,3.926-3.843c2.405,0,3.954,1.59,3.954,3.829v0.028c0,2.254-1.548,3.83-3.954,3.83
	c-2.157,0-3.926-2.032-3.926-3.843l-0.013,0.013V112.811z"/>
<path fill="#00B3EC" d="M518.581,107.932l4.617,1.023c0.635-0.041,2.917-0.553,5.128-1.189h-10.119L518.581,107.932"/>
<path fill="#00B3EC" d="M535.004,105.209c1.257-0.594,2.294-1.133,2.653-1.354l2.419-0.94V80.037l-1.064,0.981
	c-1.396,1.355-3.29,4.148-3.787,5.157l-0.221,0.511V105.209"/>
<polyline fill="#00B3EC" points="557.052,73.512 557.646,74.051 558.336,74.066 557.563,71.964 557.052,71.301 557.052,73.512 "/>
<polyline fill="#00B3EC" points="518.015,107.655 518.015,107.338 517.862,107.421 518.015,107.655 "/>
<polyline fill="#00B3EC" points="557.052,62.136 557.052,64.555 557.258,64.127 557.052,62.136 "/>
<polyline fill="#00B3EC" points="518.015,102.596 517.489,103.094 517.489,104.767 518.015,104.311 518.015,102.596 "/>
<polyline fill="#00B3EC" points="518.015,60.532 517.461,60.906 517.489,62.343 517.489,64.347 518.015,64.002 518.015,60.532 "/>
<path fill="#00B3EC" d="M562.374,87.017l-1.894-5.252c-0.318-0.816-1.88-4.023-2.82-5.336l-0.608-0.691v10.562
	c0.29,2.101,0.345,4.327,0.083,6.441l-0.083,0.028v1.065l0.774-0.138l-0.028,0.429l-0.138,0.539l0.566-0.249l0.857-0.318
	l1.507,0.526l0.663-0.208l0.222,0.414l0.871-0.221l0.815-0.498l0.249-1.755C563.535,90.059,562.636,88.054,562.374,87.017"/>
<path fill="#00B3EC" d="M535.128,76.981h-0.125v5.82l1.05-1.672c0.857-1.244,2.585-4.603,2.793-5.792
	c0.677-4.009-0.885-8.861-0.885-8.861l1.769-0.885l0.346-0.277v-1.52l-1.535,1.023c-0.663,0.345-1.893,0.58-3.303,0.414
	l-0.235,0.235v4.492h0.013c1.217,0,3.249,1.162,3.249,3.553C538.266,75.71,536.8,76.981,535.128,76.981"/>
<polyline fill="#00B3EC" points="518.015,94.648 517.489,94.537 517.489,100.399 518.015,100.675 518.015,94.648 "/>
<polyline fill="#00B3EC" points="518.015,90.736 517.489,90.833 517.489,92.506 518.015,92.409 518.015,90.736 "/>
<path fill="#00B3EC" d="M563.341,84.17v-3.773l-0.775-0.788l-2.709-3.746l-1.23-0.539l0.055,1.174l2.419,3.553
	C561.475,80.756,562.526,82.58,563.341,84.17"/>
<path fill="#00B3EC" d="M519.95,32.387c1.12,0.194,2.723,0.332,4.272,0.456c1.603,0.125,3.123,0.249,4.119,0.429l11.432,2.074
	l0.041,0.304c0.18,1.493,1.078,2.793,2.419,3.442l1.935,0.456l1.41-0.235l2.046-1.451l0.304-0.291l3.787,1.853l-3.704,1.783
	l2.322,1.217l2.308-1.05c0.111,0.816,0.305,2.129,0.567,3.718c1.133,1.411,2.046,3.111,2.709,5.06
	c0.76,2.17,1.134,4.811,1.134,7.865v2.779c1.88,4.796,4.078,9.606,6.289,13.837v-4.783c-1.562-3.235-3.054-6.691-4.396-10.132
	l-1.105-3.36h-0.802v-3.096c-1.492-6.248-2.378-12.966-2.391-13.063l-0.664-1.023l-0.663-0.208h-0.013l-4.935-2.488l0.068-0.318
	c0.471-2.004-0.483-4.05-2.322-4.948l-1.935-0.456c-1.327,0-2.571,0.595-3.414,1.617l-0.304,0.277l-10.837-5.35l-3.484-2.018
	c-1.438-0.884-2.792-1.714-3.815-2.211l-3.69-1.217l-0.318,0.028l-0.58,0.165l0.207,0.58c0.318,0.677,1.548,1.576,3.373,2.475
	c1.05,0.526,2.654,1.134,4.051,1.659c1.326,0.511,2.833,1.093,3.76,1.548l10.893,5.198l-0.125,0.373l-0.221,0.442l-11.141-2.142
	c-1.01-0.18-2.475-0.58-3.912-0.982c-1.548-0.414-3.138-0.856-4.272-1.05l-2.612-0.262l-1.576,0.262l-0.511,0.305l0.359,0.511
	C516.522,31.517,517.945,32.028,519.95,32.387 M540.989,33.576c0.594-1.216,1.824-1.976,3.179-1.976l1.562,0.359
	c1.769,0.871,2.488,2.999,1.617,4.755c-0.594,1.23-1.825,1.99-3.193,1.99l-1.548-0.373l-1.796-2.032L540.989,33.576z"/>
<path fill="#00B3EC" d="M588.279,102.582l0.386,1.314l-0.58,0.304l-0.47,0.747l1.424,1.078c1.244,0.221,2.612-0.165,3.552-0.539
	l-0.663-0.594l-0.567,0.124l-0.277-0.65l-0.235-0.249l0.138-0.221c-1.23-1.438-2.212-3.207-2.945-5.253l-1.217,0.028v4.327
	L588.279,102.582"/>
<path fill="#00B3EC" d="M626.735,103.536l0.456-0.607l1.009,0.511l0.083,1.299l-0.788,0.208l-0.097,0.635l0.456,0.664l0.65,0.165
	l0.622,0.277l1.7,0.028l0.981-0.374l-0.553-0.317l-0.304-1.355l0.414-1.451l1.244,0.027l-0.526-0.525
	c-1.106-1.203-2.059-2.585-2.875-4.147l-2.696-0.084v5.267L626.735,103.536"/>
<path fill="#00B3EC" d="M671.633,100.453c-1.438,0-4.783-0.027-9.676-0.262l-1.935,2.516c-1.784,1.921-3.926,3.387-6.359,4.354
	c-2.198,0.871-4.575,1.341-7.064,1.41l-0.65,0.014l-1.492-0.069l-0.014,0.013l-1.466,0.567c-0.622,0.318-1.99,0.747-3.344,0.304
	c-1.355-0.442-2.793-1.423-3.276-1.741l-2.364-0.76c-1.617,0-1.963,0.746-2.613,1.161c-0.857,0.526-2.516,1.023-3.884,1.023
	c-2.114,0-4.216-0.802-4.851-1.216h-13.119v-1.341c-1.783,0.968-3.677,1.604-5.695,1.881l-2.005,0.401l-2.073-0.318
	c-1.258-0.138-2.544-0.442-3.719-0.885l-2.515-1.327l-1.894,1.023c-1.217,0.829-2.557,1.147-4.313,1.023l-0.483-0.041v0.305h-4.009
	l-1.036-0.028l0.843,0.277c1.258,0.47,4.893,1.174,6.276,1.354c5.032,0.636,23.625,0.885,31.213,0.885
	c7.603,0,23.735-0.926,28.518-1.438c1.092-0.111,2.515-0.318,4.147-0.608c6.442,1.548,15.537,1.962,21.55,2.073l0.263-1.036
	l0.013-0.028c-9.815-0.277-16.132-1.12-18.882-1.562c7.091-1.383,16.076-3.525,19.145-4.493l1.147-0.359l-0.829-3.705
	C673.775,100.219,672.531,100.453,671.633,100.453"/>
<path fill="#00B3EC" d="M693.017,108.277l0.677-1.548l2.005-0.497l1.244-1.991l3.981-0.856l4.175-0.305l1.563,0.346l2.515-1.438
	l-1.769-1.341l-1.105-0.733l-1.244,0.305c-0.636,0.152-4.852,0.553-6.552-0.125c-1.562-0.622-3.539-1.769-4.299-2.391l-0.056-0.041
	l-0.526,2.335l0.844,0.705l1.507,0.636l0.401,0.456l1.741,0.829l-1.299,0.111c-0.345-0.111-1.894-0.844-3.469-1.48l-0.47,2.13
	l1.962,1.88l-2.419,0.193l-1.217,5.446l0.359-0.235L693.017,108.277"/>
<path fill="#00B3EC" d="M718.563,112.936l-0.138-0.111l0.138-0.111l1.437-1.797l-0.317-4.202l-1.479-0.954l-0.429-1.534
	l-0.926-1.272l-0.208-2.64l-0.94-1.673l-1.672-1.728l-0.138-0.055l-0.069-0.014l-0.028-0.415l-0.069-0.953
	c-0.249-1.493-1.423-1.908-2.46-2.267l-0.235-0.084l-2.516-3.954c-1.369-3.179-3.248-9.925-3.151-11.763l-0.677-2.641l-1.424-0.608
	l-1.99,0.788l-2.585,2.198l-0.968,4.396c1.632-1.962,3.304-3.704,4.797-4.838l0.65-0.373l0.041,0.953
	c-0.041,0.802,4.133,16.436,6.58,17.625l0.262,0.124l0.028,0.014l0.234,0.111l0.235,0.083l1.05,0.58l0.056,0.705l0.317,1.493
	l1.299,0.913l0.111,0.027l0.304,0.415l0.802,1.05l0.014,0.138l0.249,3.124l0.262,0.511l0.815,0.94l0.235,1.728l0.166,0.594
	l0.566,0.235l1.258,0.429l0.069,1.714l-0.193,0.484l-0.277,0.442l-1.466,2.059v0.014l1.466,2.046l0.277,0.442l0.193,0.498
	l-0.069,1.7l-1.258,0.429l-0.566,0.235l-0.166,0.595l-0.235,1.728l-0.815,0.94l-0.262,0.526l-0.249,3.123l-0.014,0.138l-0.802,1.037
	l-0.304,0.415l-0.111,0.041l-1.299,0.899l-0.317,1.493l-0.056,0.705l-1.05,0.58l-0.235,0.083l-0.234,0.111l-0.028,0.014
	l-0.262,0.124c-2.447,1.202-6.621,16.823-6.58,17.625l-0.041,0.953l-0.65-0.373c-4.521-3.414-10.755-12.496-12.331-16.27
	c0.899-1.811,3.263-4.12,4.023-4.727c0.76-0.608,2.737-1.77,4.299-2.378c1.701-0.677,5.917-0.276,6.552-0.138l1.244,0.304
	l1.106-0.719l1.769-1.355l-2.516-1.437l-1.563,0.345l-4.174-0.29l-3.981-0.871l-1.244-1.977l-2.004-0.511l-0.677-1.535l-1.451-2.405
	l-1.147-0.525l-0.332,1.534l-0.041,0.166l0.512,0.483l0.871,1.507l-0.359,0.913l-0.677,0.511l-0.857,0.304l-0.414-0.318
	l-0.926,2.364l0.318-0.069l3.898-1.645l2.433,0.194c0.276,0.926-2.875,2.502-4.382,2.806l-3.014,0.18l-0.097,0.165l-1.189,1.825
	c1.466,0.056,3.083,0.028,4.078-0.041c1.769-0.125,5.972-2.239,6.579-2.405l1.3,0.097l-1.742,0.829l-0.401,0.47l-1.507,0.622
	l-1.659,1.479l-1.921,1.396l-1.604,1.217l-0.483,0.871l-0.567,0.138c-0.083-0.097-1.161-0.981-2.419-1.853l-1.355-0.815l-1.41,1.258
	l-0.318,0.249c2.364,1.258,4.272,2.653,4.797,3.87c1.562,3.622,8.377,14.155,13.741,17.943l1.99,0.802l1.424-0.622l0.677-2.626
	c-0.097-1.853,1.783-8.598,3.151-11.764l2.516-3.967l0.235-0.084c1.037-0.359,2.211-0.76,2.46-2.253l0.069-0.954l0.028-0.429
	l0.069-0.014l0.138-0.041l1.672-1.742l0.94-1.672l0.208-2.64l0.926-1.272l0.429-1.534l1.479-0.954l0.317-4.202L718.563,112.936"/>
<path fill="#00B3EC" d="M180.601,107.767h-6.068v-4.023c-1.673,0.056-3.373,0.111-5.073,0.166v3.857h-8.888l0.856,2.018l0.857,0.262
	l0.816,1.093l1.202,1.105l1.023,0.58l-1.023,0.581l-1.202,1.105l-0.816,1.093l-0.857,0.276c0,1.258-0.58,1.935-1.451,2.419
	c-0.871,0.471-2.322,0.443-3.594-0.304l-1.327-2.364c0,0-0.511,0.305-1.783,0.125c-1.258-0.18-1.604-1.037-1.687-1.286l-0.29,0.097
	c-0.401,0.608-0.981,1.88-3.871,1.88c-2.889,0-3.469-1.271-3.87-1.88l-0.29-0.097c-0.069,0.249-0.415,1.106-1.687,1.286
	c-1.258,0.18-1.783-0.125-1.783-0.125l-1.314,2.364c-1.271,0.747-2.737,0.775-3.608,0.304c-0.857-0.483-1.438-1.161-1.438-2.419
	l-0.857-0.276l-0.816-1.093l-1.202-1.105l-1.023-0.581l1.023-0.58l1.202-1.105l0.816-1.093l0.857-0.262l1.12-2.226v-1.078
	c-3.083,1.756-5.779,2.005-7.7,2.005c-1.728,0-3.469-0.332-5.184-0.981l-3.29-1.894c-2.074,0.056-4.23,0.124-6.4,0.193v1.963H95.007
	v-1.451c-2.129,0.068-3.884,0.111-5.073,0.152v1.299H72.945v-0.138c-2.294,0.235-4.617,0.511-6.828,0.829
	c-8.349,1.202-11.238,1.99-13.409,2.433c-2.17,0.442-7.077,1.603-7.077,1.935c0,0.346,4.907,1.507,7.077,1.95
	c2.171,0.442,5.06,1.216,13.409,2.419c8.363,1.202,18.288,1.838,22.532,1.962c4.23,0.125,38.843,1.134,44.345,1.383
	c2.543,0.124,15.509,0.553,29.18,0.981c2.115-0.747,4.203-1.645,6.29-2.585c-0.277-0.318-0.968-0.774-2.516-1.382l-1.217-1.728
	l1.106-1.784l0.996-0.539c1.023-0.608,2.281-1.354,3.898-1.354l1.603,0.124l4.742-2.46
	C177.892,109.356,179.205,108.388,180.601,107.767 M105.749,112.826c-0.014,0.29-4.991,1.272-7.312,1.272l-15.994-0.788
	l-1.216,0.138l-1.078,0.401l-1.424,0.18c0,0.498-0.926,2.599-4.008,2.599c-3.083,0-3.442-2.723-3.442-3.802
	c0-1.064,0.359-3.787,3.442-3.787c3.082,0,4.008,2.102,4.008,2.585l1.424,0.193l1.078,0.402l1.216,0.124l15.994-0.788
	C100.758,111.554,105.734,112.55,105.749,112.826z M115.964,117.94c-3.995,0-4.839-3.746-4.839-5.115
	c0-1.354,0.844-5.115,4.839-5.115c4.299,0,5.985,3.442,5.985,5.115C121.949,114.499,120.263,117.94,115.964,117.94z"/>
<polyline fill="#00B3EC" points="177.216,116.102 177.216,117.112 178.708,117.042 179.026,117.056 177.201,115.923 
	177.216,116.102 "/>
<path fill="#00B3EC" d="M79.236,125.059c-20.39-1.12-37.959-3.428-55.321-7.243c-8.985-1.977-14.985-3.801-18.454-4.99
	c3.469-1.189,9.469-3,18.454-4.977c6.469-1.438,12.98-2.64,19.642-3.663v-2.903c-6.884,1.05-13.588,2.295-20.251,3.76
	c-15.441,3.387-22.173,6.318-22.449,6.442L0,112.799v0.069l0.857,1.313c0.277,0.111,7.009,3.042,22.449,6.442
	c17.514,3.857,35.236,6.165,55.777,7.312c33.59,1.838,58.902,2.641,68.232,2.903c2.267,0.069,5.515,0.18,9.428,0.304l2.681-2.778
	c-5.073-0.18-9.276-0.318-12.026-0.401C138.081,127.714,112.784,126.912,79.236,125.059"/>
<path fill="#00B3EC" d="M31.78,112.867l0.414,0.65c3.096,1.451,13.284,4.119,16.92,4.907c2.308,0.511,9.027,1.631,12.386,2.073
	l1.299,0.18c2.737,0.374,7.838,1.078,10.146,1.217c1.853,0.111,12.524,0.526,20.293,0.844c3.857,0.138,7.091,0.262,8.376,0.332
	c2.751,0.111,15.98,0.498,25.643,0.774c4.202,0.125,7.755,0.235,9.579,0.29c1.894,0.056,6.124,0.208,11.28,0.387
	c2.502,0.084,5.198,0.18,7.949,0.277l0.111-0.664l0.484-0.746c-2.931-0.097-5.82-0.208-8.488-0.305
	c-5.156-0.18-9.4-0.332-11.294-0.386c-1.825-0.056-5.391-0.166-9.579-0.277c-9.662-0.29-22.891-0.677-25.628-0.788
	c-1.271-0.056-4.506-0.18-8.363-0.332c-7.769-0.305-18.427-0.719-20.265-0.844c-3.512-0.235-18.703-2.529-22.684-3.331
	c-3.345-0.677-9.055-2.392-10.547-4.258v-0.068c1.493-1.881,7.202-3.581,10.547-4.258c0.94-0.193,2.502-0.47,4.381-0.774h-7.906
	c-4.534,1.106-12.054,3.166-14.639,4.382L31.78,112.867"/>
<path fill="#00B3EC" d="M269.845,120.552v-0.165h-0.512l-1.811-0.014c1.562,0.732,2.557,1.852,2.889,3.234l0.954-0.027l0.663-0.982
	l-0.953-0.359L269.845,120.552"/>
<path fill="#00B3EC" d="M250.174,119.779l-1.881-0.165c-6.552-0.595-21.288-0.926-25.462-1.078
	c-4.175-0.152-13.589-0.014-15.924-0.014c-2.557,0-20.873-0.125-23.679-0.056c1.064,0.885,1.687,2.115,1.687,3.553v0.207
	c6.427,0.194,11.21,0.332,12.482,0.346c4.811,0.069,25.338,0.415,30.177,0.498c3.151,0.069,12.192,0.304,19.712,0.483l1.714-0.622
	l0.124,0.028l0.346-0.277l2.226-1.825l-0.775-0.414L250.174,119.779"/>
<path fill="#00B3EC" d="M283.738,117.76l0.871-0.787l1.009,0.871l1.728-0.456l-0.084-1.202l0.166-0.415h0.954l1.133-0.553
	l2.143-1.217c1.216-0.498,3.649-0.705,5.072,0.29l0.733,0.498l-0.277-0.608l-0.553-1.341v-0.028l0.553-1.327l0.277-0.622
	l-0.733,0.498c-1.423,0.995-3.857,0.788-5.072,0.304l-2.143-1.217l-1.133-0.566h-0.954l-0.166-0.402l0.084-1.202l-0.816-0.511H285.7
	l-0.083,0.055l-1.009,0.872l-0.871-0.802v-0.124h-5.488c3.276,1.354,9.012,3.857,9.552,4.078l2.06,0.58l0.829,0.374v0.069
	l-0.829,0.373l-2.06,0.567c-0.359,0.152-3.041,1.327-5.764,2.488l1.701,1.52V117.76"/>
<path fill="#00B3EC" d="M235.383,127.036c2.335,0.028,5.86,0.084,10.035,0.18l0.484-1.423c-4.382-0.097-8.073-0.166-10.506-0.193
	c-5.281-0.056-21.965-0.539-35.36-0.926c-6.788-0.194-12.883-0.374-16.602-0.47l-0.456,0.235l3.663,1.286
	c3.593,0.097,8.28,0.235,13.353,0.387C213.404,126.498,230.088,126.968,235.383,127.036"/>
<path fill="#00B3EC" d="M225.099,130.878c-3.691-0.138-10.119-0.386-17.791-0.691c-5.184-0.193-10.837-0.414-16.574-0.635
	l0.594,2.267v0.429l-0.014,0.193c5.487,0.221,10.907,0.429,15.869,0.622c7.685,0.29,14.114,0.553,17.804,0.691
	c5.903,0.222,14.017,0.719,21.606,1.258l0.442-2.82l-0.041-0.028C239.296,131.612,231.085,131.1,225.099,130.878"/>
<path fill="#00B3EC" d="M283.972,112.826c-0.761-0.884-6.4-4.602-10.796-5.128c-2.295-0.262-9.469-0.111-12.095,0.056
	c-2.613,0.165-27.204,1.105-30.052,1.271c-2.848,0.166-14.362,0.083-16.491,0.083c-2.129,0-24.771-0.138-26.223-0.18
	c-1.41-0.028-5.169,0.346-6.414,0.567c-1.244,0.221-2.529,1.106-3.248,1.341l-1.576,0.456l-0.732,0.401l-1.037,0.097l-0.014,0.359
	l2.019,0.221v0.912l-2.019,0.221l0.014,0.374l1.037,0.096l0.732,0.387l1.576,0.47c0.719,0.235,2.004,1.258,3.248,1.479
	c1.244,0.221,5.004,0.443,6.414,0.415c1.452-0.028,24.095-0.166,26.223-0.166c2.129,0,13.644-0.097,16.491,0.069
	c1.728,0.111,11.39,0.498,19.352,0.816l0.802-0.526c1.216-0.387,2.626-0.65,4.119-0.774c-2.681-0.111-5.17-0.235-6.663-0.305
	c-3.456-0.193-22.021-0.65-26.624-0.65c-4.602,0-18.066,0-22.297,0.111c-4.216,0.111-14.791,0.221-17.403-0.483
	c-2.613-0.719-3.111-1.949-3.111-1.949v-0.084c0,0,0.498-1.216,3.111-1.935c2.612-0.719,13.187-0.595,17.403-0.484
	c4.23,0.111,17.694,0.111,22.297,0.111c4.603,0,23.168-0.47,26.624-0.65c3.954-0.221,14.832-0.663,17.97-0.871
	c3.138-0.221,5.336-0.069,6.414,0.056c2.945,0.304,8.557,3.814,8.557,3.814s-5.612,3.512-8.557,3.83
	c-1.078,0.111-3.276,0.262-6.414,0.041c-1.466-0.097-4.645-0.249-8.003-0.401l2.378,1.603l0.097,0.014
	c2.281,0.152,8.031,0.276,10.989,0.124l0.525-0.359c1.466-1.037,3.139-2.198,5.406-2.198l1.797,0.125
	C281.926,114.471,283.585,113.282,283.972,112.826"/>
<path fill="#00B3EC" d="M331.4,121.561l-2.267,0.042c-2.199,0-8.322,0.76-12.359,1.534c-6.939,1.327-20.057,2.447-29.775,2.931
	l0.041,0.456l1.507-0.055l2.945,0.774c9.027-0.566,19.56-1.562,25.546-2.696c3.967-0.76,9.966-1.506,12.095-1.506l2.294-0.042
	c2.046-0.027,5.088-0.068,8.253-0.068c4.354,0,7.713,0.083,9.98,0.262l1.23,0.124l0.94-1.341l-2.046-0.208
	C344.712,121.355,335.713,121.506,331.4,121.561"/>
<polyline fill="#00B3EC" points="378.123,130.284 380.777,130.755 380.805,127.824 379.201,127.534 378.123,130.284 "/>
<path fill="#00B3EC" d="M335.74,107.988c-1.59-0.056-3.11-0.138-4.603-0.263c-1.506,0.512-3.027,0.761-4.548,0.761
	c-1.921,0-4.603-0.249-7.685-2.005v1.286h-4.051l0.221,0.635l0.374,0.374l-0.042,1.064l-0.843,0.677l-0.511-0.456l-0.429-0.774
	l-1.617,0.138l-0.277,0.746l0.277,1.093l-0.899-0.138l-0.691-0.166l-0.29,0.608l-0.235,0.18l-0.304,0.208l0.332,0.18
	c0.359-0.125,1.825-0.401,4.658-0.401c2.834,0,2.572,0.318,4.659,0.483c2.087,0.152,6.096,0.387,6.442,0.387l0.732,0.221
	l-0.732,0.221c-0.346,0-4.354,0.235-6.442,0.401c-2.087,0.153-1.825,0.47-4.659,0.47c-2.833,0-4.299-0.262-4.658-0.386l-0.332,0.165
	l0.304,0.208l0.235,0.193l0.29,0.595l0.691-0.152l0.899-0.138l-0.277,1.078l0.277,0.747l1.617,0.152l0.429-0.775l0.511-0.47
	l0.843,0.677l0.042,1.065l-0.374,0.386l-0.373,0.885l-1.299,0.498l-1.866,0.069l-0.193,0.76l-0.775,0.414l-0.401-0.566l-0.318-0.138
	l-0.511,0.373h-0.567l-0.622-0.622v-0.664l-0.58,0.263l-0.608,0.124l-0.056-0.663L306.781,117l-1.617,0.829l-0.857-0.165
	l0.013-0.705l0.235-0.332l0.498-0.318l0.055-0.346l-0.386-0.414l-0.788-0.677l-1.093,0.069l-0.968,0.193l-0.317,0.719l0.332,0.926
	l-0.221,0.456l0.18,0.262l0.332,0.152l-0.885,0.429l-1.174-0.65l-0.595-0.304l-1.659,1.105l-0.359-0.511l-0.442-0.359l0.124-0.58
	l0.498-0.636l-0.525-0.635l-1.645-0.263l-1.424,0.747l0.014,0.899l0.594,0.152l-0.083,1.286l-0.996,0.304l-0.345-0.732l-0.664,0.041
	l-0.304,0.996l-0.788,0.663l-0.912,0.926h-0.775l-0.47,0.056l-0.387,0.013l-0.47,0.58l-0.553-0.456l-0.166-0.788l-1.023,0.18
	l-2.115-0.607l-0.373-0.346l0.096,0.719l-0.152,0.843l-0.857,1.424l1.881,0.677c6.483-0.511,15.537-1.327,18.91-1.645
	c4.216-0.387,10.989-1.368,15.8-1.99c4.81-0.623,9.925-1.327,15.786-1.507c5.751-0.18,9.649-0.235,18.192,1.161l0.138-0.208
	l-0.373-0.539l-0.262-1.575l0.041-0.153l-0.152-1.036l-1.203-0.29l-0.442-0.941l-0.442-0.401l-1.797-0.871l1.797-0.871l0.442-0.401
	l0.442-0.94l1.203-0.277c0,0,0-1.99,1.438-2.75l-1.701-0.636C345.113,108.222,341.284,108.167,335.74,107.988 M332.34,116.475
	c-2.793,0-4.009-2.101-4.009-3.649s1.217-3.649,4.009-3.649c2.792,0,3.608,2.737,3.608,3.649S335.132,116.475,332.34,116.475z
	 M344.173,116.475c-2.793,0-4.009-2.101-4.009-3.649s1.217-3.649,4.009-3.649c2.792,0,3.608,2.737,3.608,3.649
	S346.965,116.475,344.173,116.475z"/>
<path fill="#00B3EC" d="M340.579,140.79l-1.19,0.291l-2.446-1.521l-0.125-2.073l1.368-1.563l1.189-0.276l0.857,0.138l0.221-0.566
	l-1.078-0.18l-1.451,0.345l-1.825,2.599l-0.097,0.304l-8.625,1.52l-3.124,0.318l-3.235,0.346c-1.52,0.262-2.599,0.663-2.986,1.078
	l-0.262,0.345l0.373,0.249l1.189,0.194l1.977-0.208l3.248-0.802l2.959-0.732l8.543-1.576l0.097,0.29l0.055,0.387l-8.224,3.871
	l-2.848,1.174l-3.083,1.258c-1.382,0.677-2.308,1.355-2.557,1.866l-0.166,0.401l0.443,0.138l0.235,0.014l2.793-0.912l2.902-1.687
	l2.641-1.52l8.321-4.036l0.152,0.193l2.571,1.217l1.452-0.346l0.442-0.262l-0.373-0.47L340.579,140.79"/>
<path fill="#00B3EC" d="M331.566,127.216c-2.668,0-4.963,0.208-5.861,0.415c-1.562,0.345-2.833,1.147-3.484,2.211
	c-0.248,0.401-1.133,1.784-1.949,3.055l-1.52,2.405l-0.111,0.166l-4.147,0.013l-0.511,0.014l-1.383-0.373l-2.35-1.217l-2.668-1.41
	c-1.853-0.899-4.354-1.811-8.806-1.811c-1.603,0-3.414,0.111-5.377,0.359l-0.705,1.202l-2.82,1.659l0.677,0.484l2.709-0.443
	c2.087-0.262,3.884-0.401,5.515-0.401c3.871,0,5.985,0.775,7.548,1.535l2.571,1.368l0.733,0.387l-3.484,1.644l-0.152-0.208
	l-1.548-1.092l-1.078-0.18l-1.452,0.346l-1.824,2.599l-0.097,0.29l-8.612,1.52l-1.106,0.152l0.526,0.788l0.719-0.152l8.529-1.562
	l0.096,0.29l0.056,0.387l-8.225,3.87l-2.046,0.857l-2.142,1.866l-1.756,1.562l0.775-0.345l2.902-1.687l2.626-1.535l8.321-4.036
	l0.153,0.193l2.571,1.217l1.466-0.332c1.382-0.691,2.101-2.226,1.756-3.733l-0.014-0.332l3.705-1.811l0.221-0.125l0.996,0.484
	l2.46,0.58h0.305l0.235-0.014h4.506c1.314,0,1.881-1.009,2.115-1.423l0.083-0.152l1.48-2.323c0.843-1.327,1.728-2.696,1.976-3.11
	l1.66-0.913c0.635-0.138,2.668-0.332,5.211-0.332c2.834,0,5.309,0.249,6.967,0.691c1.313,0.359,2.488,0.968,3.497,1.617l1.244-1.949
	l0.317-0.47c-1.23-0.788-2.668-1.52-4.299-1.962C336.847,127.368,333.736,127.216,331.566,127.216 M305.952,141.191l-1.369,1.563
	l-1.202,0.277l-2.433-1.507l-0.138-2.074l1.368-1.562l1.189-0.29l2.447,1.52L305.952,141.191z"/>
<path fill="#00B3EC" d="M372.704,117.124l-1.617-0.041c-2.351,0-4.507,0.277-6.249,0.608l0.124,0.235l0.208,1.271l-0.594,1.286
	l2.198,0.747l1.299,0.677c1.893,0.512,3.373,0.94,4.382,1.217l2.848,0.802l0.774-1.672l0.221-0.526l1.922-3.608
	C376.007,117.581,373.961,117.193,372.704,117.124"/>
<polyline fill="#00B3EC" points="379.547,126.732 380.818,126.469 380.846,124.106 380.528,124.659 379.547,126.732 "/>
<polyline fill="#00B3EC" points="452.727,127.243 452.741,127.243 452.865,127.201 452.769,127.174 452.727,127.243 "/>
<polyline fill="#00B3EC" points="468.43,123.635 468.444,123.622 468.347,123.594 468.43,123.635 "/>
<path fill="#00B3EC" d="M474.567,112.785l6.234-7.078l1.921-0.996l-0.539-0.58l-0.677-0.815c-2.945,0.635-5.986,1.313-7.493,1.755
	c-3.248,0.926-11.763,3.884-13.408,4.382c-1.645,0.511-2.834,0.802-4.396,0.76c-1.548-0.041-8.64-0.926-8.64-0.926
	s1.714-0.622,4.23-1.52h-4.132l-0.719,0.359c-2.765,1.424-8.585,3.47-9.373,3.718l-2.972,0.291c-0.567-0.387,0.677-1.548,2.35-2.502
	c1.133-0.65,4.119-1.811,6.455-2.64v-1.535c-3.22,1.23-5.972,2.364-7.118,3.014l-6.318-2.198l-0.719-0.484l1.189-0.76
	c0.553-0.18,7.119-2.101,12.966-3.815v-1.59c-6.621,1.908-12.219,3.525-15.108,4.354v2.889c2.211,0.636,4.105,1.23,4.796,1.493
	l0.456,0.165l-4.962,1.093l-0.028-0.014c-0.041-0.028-1.23-0.498-2.945-1.12h-1.327c-3.981,0-7.492-0.968-10.422-2.889l-0.553-0.373
	c-2.833-0.415-6.068-0.747-8.915-0.83v3.899l0.111,0.138l0.096-0.153v-0.65l0.498-0.456l0.567,0.47v0.622l0.249,0.041
	c0.165-0.249,1.258-2.239,4.658-2.419c2.793-0.138,3.981,0.663,4.244,1.05l1.244,1.23l1.479,0.056l-0.415,0.968l-0.511,0.373
	l0.76,0.691l1.742-0.207c0.345-0.359,1.935-1.521,4.271-1.521c2.336,0,4.23,2.046,4.23,4.285v0.041c0,2.226-1.894,4.272-4.23,4.272
	c-2.336,0-3.926-1.161-4.271-1.507l-1.742-0.207l-0.76,0.677l0.511,0.374l0.415,0.981l-1.479,0.056l-1.244,1.216
	c-0.262,0.401-1.451,1.203-4.244,1.065c-3.4-0.18-4.493-2.184-4.658-2.419l-0.249,0.041v0.608l-0.567,0.483l-0.498-0.456v-0.663
	l-0.096-0.138l-0.885,1.05c-0.29,0.277-2.087,2.198-6.041,1.673l-2.543-1.286l-1.244-0.18l-0.926-0.18l0.332-0.899l0.235-0.498
	l-1.355-0.663l-1.244,0.332l-0.069,1.065l-0.94,0.208l-0.429-1.935c-0.304,0.165-1.05,0.483-2.323,0.483
	c-1.423,0-3.524-1.286-3.524-3.553v-0.041c0-2.281,2.101-3.552,3.524-3.552c1.272,0,2.019,0.304,2.323,0.47l0.429-1.922l0.94,0.208
	l0.069,1.05l1.244,0.332l1.355-0.663l-0.235-0.483l-0.332-0.899l0.222-0.153l-2.475-1.189l-2.765,0.664
	c-1.161,0.304-2.378,0.663-3.663,1.05c-3.76,1.106-8.017,2.35-11.777,2.488l-1.507,0.028c-4.603,0-8.224-0.816-10.422-1.769
	l-1.673-0.084l0.844,1.95l0.359,0.193l1.271-0.166l1.562,1.452l0.249,0.47l0.484,0.525v0.028l-0.484,0.539l-0.249,0.456l-0.704,1.12
	l1.492,1.23c1.991-0.456,4.437-0.774,7.271-0.774l1.507,0.027c2.35,0.084,4.894,0.608,7.395,1.258l2.82-0.829l0.788,0.125
	c1.438,0.553,3.911,1.493,5.654,3.29c5.115,1.258,10.27,2.005,14.031,2.005c4.575,0,10.643-0.788,14.279-1.576
	c4.437-0.968,11.101-3.622,11.183-3.649l0.028-0.014h0.055l4.907,1.093l-0.456,0.165c-1.894,0.705-12.745,3.83-14.39,4.092
	l-1.05,0.208c-2.115,0.456-6.041,1.313-14.432,1.313c-5.322,0-9.386-0.594-12.635-1.341l0.373,1.202l-0.635,1.825l-0.277,0.29
	l2.723-0.249c1.783-0.097,4.424-0.166,7.23-0.249c5.557-0.165,11.86-0.345,14.998-0.691c3.995-0.429,8.018-1.604,10.423-2.308
	l0.968-0.277c1.285,0.373,8.64,2.502,17.763,5.142l0.056-0.208l-0.581-1.548c-5.903-1.728-12.635-3.705-13.187-3.87l-1.189-0.775
	l0.719-0.47l6.318-2.198c0.981,0.553,3.165,1.466,5.806,2.502l1.147-0.677l0.774-0.138c-2.405-0.844-5.833-2.143-7.064-2.848
	c-1.673-0.968-2.917-2.115-2.35-2.516l2.972,0.29c0.788,0.249,6.608,2.308,9.373,3.733c1.686,0.871,8.584,4.022,10.658,4.879
	l0.249-0.359l-2.046-2.35l-0.374-0.511c-4.34-1.548-7.865-2.821-7.865-2.821s7.091-0.899,8.64-0.94
	c1.562-0.041,2.75,0.263,4.396,0.76l0.262,0.097c2.143,0.166,3.926,0.775,5.239,1.741c1.327,0.443,2.723,0.913,4.023,1.341
	l-0.291-1.078l0.222-0.844l-0.553,0.042c-3.469,0-5.059-2.157-5.059-4.59s1.59-4.589,5.059-4.589c4.064,0,4.3,3.787,4.3,4.589
	l-0.677,2.668l2.999-0.843l-1.562-1.866V112.785 M462.569,112.853l-0.608,0.415c-0.443,0.028-3.871,0.373-5.391,0.47
	c-1.535,0.111-5.53,0.442-7.479,0.442c-1.949,0-3.926-0.262-4.589-0.442l-1.134-0.885v-0.041l1.134-0.899
	c0.663-0.165,2.64-0.442,4.589-0.442c1.949,0,5.944,0.346,7.479,0.442c1.52,0.111,4.948,0.456,5.391,0.484l0.608,0.414V112.853z"/>
<path fill="#00B3EC" d="M451.372,121.244l1.672,2.461l2.364,0.816l1.659-1.48l-1.327-0.401
	C455.173,122.475,453.335,121.88,451.372,121.244"/>
<path fill="#00B3EC" d="M440.701,139.767l-4.936,0.014c-12.592,0-24.328-2.875-26.554-3.456c-2.239-0.58-7.769-2.308-13.119-3.981
	l-0.152-0.041c-2.488-0.774-5.004-1.562-7.243-2.253l-0.069,2.529v0.456c2.074,0.636,4.354,1.355,6.608,2.046
	c5.639,1.756,10.948,3.429,13.256,4.023c2.281,0.595,14.335,3.538,27.273,3.538h4.949l-0.056-1.285L440.701,139.767"/>
<path fill="#00B3EC" d="M483.152,122.695c2.709,0.581,5.045,1.051,5.584,1.147l0.041-0.386l-7.976-3.498l-0.318-0.29l-0.359,0.415
	C481.741,120.622,482.75,121.493,483.152,122.695"/>
<polyline fill="#00B3EC" points="465.721,130.906 465.278,131.197 467.269,132.317 467.144,131.308 465.721,130.906 "/>
<polyline fill="#00B3EC" points="448.732,141.26 447.64,142.048 447.778,142.684 450.653,142.74 451.966,140.459 452.284,139.919 
	450.612,139.865 448.732,141.26 "/>
<path fill="#00B3EC" d="M557.356,153.964l-0.194-0.774l-1.714,0.511l-0.788,0.775c-0.359,1.271-1.396,2.226-2.585,2.64l-2.032,2.433
	l-0.608,0.414l-1.326-0.373l-0.484,0.691l1.714,0.511l-0.069,0.332l-0.056,0.387l1.093-0.083l0.719-0.788l0.429-0.511l2.335,0.318
	l1.991,2.032l-1.023,1.604l-2.129,1.644l-1.866,4.811l-1.687,4.396l-0.553,0.608l0.968,0.138l1.645,2.626l-0.456,1.202l-0.18,0.802
	l1.451-0.912l0.512-2.087l-1.009-1.41l-0.857-1.314l2.875-8.404l2.806-1.687l0.981-2.972l-1.535-1.466l-1.133-0.567l0.276-0.567
	l0.443-0.719l-0.097-0.663l0.235-0.912L557.356,153.964"/>
<path fill="#00B3EC" d="M563.162,131.542l-0.816-0.497l-0.871-0.221l-0.221,0.428l-0.664-0.221l-0.691,0.443l-0.747,1.769
	l-1.88,1.396l0.028,1.644l0.871,1.714h0.138l-0.028-0.041l-0.041-1.977c0.953-1.645,2.806-2.212,4.16-2.626l0.982-0.332
	L563.162,131.542"/>
<polyline fill="#00B3EC" points="564.212,131.114 564.419,132.469 565.207,131.916 564.806,130.52 564.847,130.492 565.566,129.344 
	565.718,129.013 564.571,129.331 564.599,129.372 564.695,129.884 564.682,129.911 564.212,131.114 "/>
<path fill="#00B3EC" d="M567.253,144.246c-0.926,1.452-1.894,3.083-2.875,4.852l-0.042,0.705l0.028,0.663l-0.028,0.76v0.028
	l0.857,0.885c1.299-2.502,2.613-4.783,3.871-6.732c2.129-3.29,3.4-5.447,4.147-6.788l-2.889,0.705
	C569.588,140.556,568.607,142.16,567.253,144.246"/>
<path fill="#00B3EC" d="M573.252,110.213l-0.235-0.442l-0.442-0.843l-0.18-0.111l-0.692-0.58l-0.29-0.346l-0.096,0.097l-0.526,0.332
	l-0.414-0.221l-0.042-0.484l0.097-0.249l0.014-0.027l0.027-0.346l-0.235,0.249l-0.041,0.041l-0.318,0.235l-0.442,0.055l-0.512-0.208
	l-0.027-0.317l-0.014-0.166l-1.603-0.249h-0.692l-0.607-0.539l-0.069-0.111l-0.733-0.318l-2.198-0.193l-0.359,0.221l-0.193,0.152
	h-0.028l-0.235-0.401l-0.056-0.138h-0.636l-0.221-0.111l-0.083-0.235l0.373-0.402h0.899l0.277-0.304l0.083-0.208l1.299-0.262
	l3.401,0.069h0.041l0.732,0.111l0.581,0.111l0.705,0.235l0.056,0.013l0.18,0.041l1.423,0.415c-2.35-1.784-4.203-4.037-5.515-6.718
	c-0.622-1.244-1.092-2.613-1.451-4.078l-0.042,0.566l0.47,1.203l0.014,0.013l-0.097,0.511l-0.483,0.664l-0.926,0.152l-1.078-0.166
	l-0.415,0.042l0.18,0.856l-0.041,0.719l-0.691,0.456l-0.498,0.401l-0.386,0.374l-0.623,0.401l-0.401,0.511l-0.414-0.056
	l-0.235,0.402l-0.663,0.055l-0.636,0.429l-0.235,0.553v0.94l0.166,0.014l0.498,0.083l-0.069,0.346l0.511,0.193l-0.165,0.208
	l-0.829,0.055l-0.111,0.097v2.46h0.166l1.009,0.014l0.981-0.788l0.595-0.387l0.332-0.208h0.041l0.387,0.387l-0.166,0.747
	l-0.18,0.152l-0.345,0.305l0.373,0.055l1.065-0.29l0.622,0.18l-0.221,0.622l-1.811,0.94l-1.784,0.402l-0.429,0.068l-0.594,0.069
	l-0.678,0.208l0.028,0.305l0.096,0.497l-1.05,0.719l-0.262-0.013h-0.249l-0.47,0.221l-0.028,0.332l-0.318,1.065l-0.567,0.414
	l-0.691-0.386l-0.345-0.691l0.262-0.692l0.553-0.968l1.023-1.064l0.262-0.912h-3.939l-0.194,0.732l-1.299,0.277l-0.208,0.94
	l-0.719,0.691l-0.746-0.138l-0.083,0.65l-4.105-0.429l-0.276-0.013l-0.443,2.35l0.443,2.364l0.276-0.014l4.105-0.442l0.083,0.663
	l0.746-0.152l0.719,0.705l0.208,0.926l0.802-0.014l3.304-1.147l-0.511-0.774l-0.262-0.677l0.345-0.705l0.691-0.386l0.567,0.414
	l0.318,1.065l0.028,0.332l0.47,0.235l0.249-0.014h0.262l1.023,0.636l3.18,1.562l0.208,0.056l1.811,0.94l0.221,0.622l-0.636,0.18
	l-0.414-0.166l0.041,0.692l-1.59,3.138l-0.415,0.387c1.466-0.359,2.917-0.857,4.369-1.411l-0.484-0.235l-0.083-0.208l-0.277-0.29
	h-0.899l-0.373-0.414l0.083-0.222l0.221-0.111h0.636l0.056-0.138l0.235-0.402h0.028l0.193,0.138l0.359,0.235l2.198-0.208
	l0.733-0.304l0.069-0.111l0.607-0.539h0.692l1.603-0.262l0.014-0.152l0.027-0.318l0.512-0.221l0.442,0.056l0.332,0.248l0.028,0.042
	l0.235,0.235l-0.027-0.332l-0.014-0.014l-0.097-0.277l0.042-0.47l0.414-0.221l0.526,0.332l0.096,0.097l0.29-0.359l0.692-0.581
	l0.18-0.111l0.442-0.843l0.235-0.442l0.165-0.153l0.484-2.46l-0.484-2.46L573.252,110.213"/>
<polyline fill="#00B3EC" points="566.783,141.868 567.929,140.279 566.022,142.048 565.69,142.961 566.783,141.868 "/>
<path fill="#00B3EC" d="M556.941,165.161c-2.323,6-3.871,16.062-4.299,19.118c-2.544-1.023-6.262-3.152-6.636-3.414l-0.124-0.083
	l-0.318-0.415l-0.028-0.193l-0.65-1.908l-0.926-0.677l0.069-0.152c2.059-2.295,0.235-11.667-0.069-13.146
	c0.359-0.374,1.134-1.327,2.032-2.737l-0.083,0.041l-0.815,0.193l-0.58-0.096l0.083,0.248l-0.415,0.692l-0.428,0.802l-0.899,0.069
	l-0.705-0.014l-0.594,0.359l-0.402-0.746l-0.332,0.027c0.152,0.539,0.484,3.096-0.498,4.618c-0.332,0.511-1.202,1.659-3.483,1.603
	c-2.281-0.069-3.069-1.438-3.566-2.447l-0.567-2.571l-0.359,0.373l0.332,3.152l3.055,3.636c0.747,0.553,2.834,1.313,4.368,0.843
	c2.171-0.65,1.838-3.857,1.604-5.349l0.968-2.848l0.953,3.054c0.083,0.567,0.567,6.303,0.374,8.308l-1.452,2.212
	c-0.055,0.055-1.687,1.036-3.787,1.036c-1.59,0-3.276-0.414-4.838-1.05l-2.89-2.115c-0.774-1.092-1.935-5.432-2.35-7.672
	c-0.429-2.239-2.308-13.353-2.405-14.929c-0.138-1.853-0.884-5.018-0.719-6.027c0.166-1.023,1.258-1.562,1.728-3.082
	c0.567-1.866,0.097-9.331-1.285-12.98c-0.996-2.626-4.631-6.303-5.253-6.994l-5.419-4.728l-3.69,1.894l-5.032,3.014
	c-0.387-0.014-3.83-0.664-5.654-1.203c-1.838-0.539-12.372-3.884-13.063-4.133l-4.976-2.944l-2.71-2.972l2.71-2.958
	c0.456-0.359,2.599-1.673,3.953-2.433l-2.335-1.23c-1.438,0.567-2.433,0.968-2.544,1.065l-5.101,5.515v0.083
	c0,0,0.94,1.134,2.032,2.378l1.728,1.162l0.704,1.437l0.636,0.553c0.456,0.332,13.795,5.391,15.565,6.068
	c1.769,0.677,5.101,2.115,5.101,2.115s-2.364,2.281-3.124,3.622c-2.018,0.193-11.017-1.714-18.73-3.497l-0.664,0.29l0.872,2.17
	l-0.484,1.714l-0.069,0.207l0.844,0.208c3.082,0.76,19.062,3.94,20.555,4.272c1.493,0.332,3.939,0.815,4.658,0.719
	c0.719-0.097,3.746-2.198,7.064-3.884c3.304-1.673,8.972-1.963,9.552-1.963l0.76,0.816l-1.383,3.884l-0.483,0.622
	c-0.097-0.152-0.968-1.7-3.553-2.405c-2.64-0.719-4.548,0.235-5.142,0.58c-0.912,0.526-2.778,1.963-3.207,4.133
	c-0.511,2.516,0.332,4.272,0.954,4.949l-0.677,0.373c-0.567-0.193-19.256-5.281-21.993-6l-1.078-0.29v0.069l-0.29,1.12l-0.193,0.29
	c5.446,1.521,18.951,5.253,21.246,5.82l2.475,0.636l1.548,0.387l0.317,0.068l1.134,0.194l0.857-0.608l-0.705-1.217l-0.663-0.58
	l-0.138-0.193c-0.553-0.747-1.838-2.488-1.258-4.797c0.636-2.502,3.248-3.773,5.225-3.552c2.059,0.221,2.806,0.802,3.718,2.032
	c0.374,0.511,0.761,2.005,0.484,3.456l-1.714,2.641l-1.396,1.575l0.719,0.816l0.553,0.18l0.884,0.304l0.484,1.963l0.193,0.953
	c0.29,1.368,3.456,14.708,3.718,15.69l0.456,2.171c-5.169-3.774-17.459-12.331-29.402-17.612c-5.446-2.405-9.898-3.87-14.238-4.948
	l0.013,0.732l-0.221,2.171c4.064,1.036,8.183,2.419,13.284,4.672c13.671,6.041,28.047,16.671,30.578,18.565l0.856,3.359
	c0.898,3.553,7.658,7.451,12.911,7.451c2.046,0,3.733-0.719,4.493-1.12l0.152,0.677l0.069,0.429l1.202,1.672l0.069,0.056
	c0.401,0.277,4.175,2.46,6.953,3.608l-3.87,1.838l-0.208-0.262l-2.046-1.451l-1.41-0.249l-1.935,0.456
	c-1.341,0.664-2.239,1.949-2.419,3.456l-0.111,0.359l-11.363,2.005c-0.995,0.18-2.515,0.304-4.133,0.429
	c-1.535,0.124-3.139,0.262-4.258,0.456c-2.004,0.359-3.428,0.871-3.939,1.423l-0.359,0.484l0.511,0.345l1.576,0.262l2.612-0.262
	c1.134-0.208,2.724-0.65,4.272-1.064c1.438-0.387,2.903-0.788,3.912-0.968l11.225-2.102l0.138,0.387l0.069,0.484l-10.837,5.1
	c-0.926,0.456-2.432,1.023-3.76,1.535c-1.396,0.539-2.999,1.147-4.051,1.659c-1.824,0.899-3.055,1.797-3.372,2.475l-0.221,0.566
	l0.58,0.18l0.332,0.028l3.69-1.202c1.023-0.498,2.378-1.327,3.815-2.212l3.484-2.032l10.934-5.322l0.208,0.249
	c0.843,1.037,2.087,1.617,3.414,1.617l1.935-0.442c1.838-0.913,2.793-2.945,2.323-4.949l-0.028-0.414l4.893-2.392l0.677-0.221
	l0.663-1.023c0.014-0.125,1.687-12.773,4.299-19.505c0.912-2.35,1.893-4.7,2.93-6.967l-1.825-1.217
	C558.959,160.184,557.909,162.673,556.941,165.161 M506.776,131.28l-5.695-0.802c1.217-1.382,2.709-3.041,4.728-4.451
	c4.257-3,9.192-5.446,9.192-5.446l3.456,2.875l0.511,1.037L506.776,131.28z M545.731,193.691l-1.562,0.359
	c-1.355,0-2.585-0.76-3.179-1.976l-0.18-2.71l1.797-2.046l1.548-0.359c1.369,0,2.599,0.761,3.193,1.977
	C548.219,190.692,547.5,192.821,545.731,193.691z"/>
<path fill="#00B3EC" d="M648.63,116.116c-4.783-0.498-20.915-1.438-28.517-1.438c-7.589,0-26.181,0.263-31.213,0.899
	c-1.382,0.166-5.018,0.885-6.276,1.341l-3.843,0.899l-0.595-0.456l-1.202,0.055l-0.124-0.926l0.995-1.341l0.511-1.548l-0.249-0.774
	l0.249-0.76l-0.511-1.563l-0.995-1.341l0.124-0.926l1.202,0.069l0.111-0.276c-1.783-0.387-3.456-1.01-4.976-1.866l0.318,0.401
	l0.249,0.318l0.346,0.345l0.386,0.401c0.747,1.134,1.659,3.954,1.659,5.198c0,1.133-0.746,3.566-1.451,4.838l0.166-0.041
	l1.147,0.111l1.714,0.526l3.636,1.493h0.249l1.299-1.05c0.581-0.456,2.502-1.147,4.272-1.258c1.756-0.124,3.096,0.193,4.313,1.023
	c1.23,0.829,1.341,1.078,2.833,1.078c1.604,0,1.894-0.497,2.917-1.258c1.023-0.746,3.124-1.326,4.451-1.326l3.179,0.995l1.203,1.161
	l1.534,0.125l0.954-0.221l0.663,0.635l1.093,0.664l-0.29,0.318l-0.636-0.194l-0.732,0.553l1.244,0.442l1.12-0.926l1.12-0.373
	l0.512,1.327l-1.065,2.004l-1.741,0.581l-2.046,0.317l-0.194,0.829l-0.802-0.068l-0.788-0.277l-0.414,0.277l-0.705,0.553l-0.47-0.65
	l-0.553-0.719l-0.94-0.29l0.055-0.829l-0.097-0.733l-0.566-0.58l0.276-0.76l0.484-0.704l-0.58-0.346l-0.194,0.58l-0.442-0.262
	l-0.414-0.125l0.193,1.051l-0.387,1.59l-1.369-0.028l0.857-2.308l-1.037-1.134l-3.027,0.58l-0.65,0.664l0.857,0.373l0.014,1.41
	L595.729,123l-0.194-0.566l-0.055-0.844l-0.664,0.125l-0.622-0.208l-0.608-0.871c-0.622-0.346-2.723-1.314-4.548-1.009l-1.424,1.078
	l0.47,0.76l0.58,0.29l-0.386,1.313l-1.604-0.608l-0.76-0.317l-0.58,0.884l-0.663,0.636l-0.484-0.498l-0.359-0.041l0.111,0.691
	l0.097,0.193l-0.138,0.346l-1.244,2.323l-0.207,0.221c10.215,0.221,24.37,0.525,29.968,0.525c13.99,0,35.706-1.12,44.027-1.644
	c4.036-0.263,7.409-0.402,9.995-0.484V119.6c-3.428-0.802-7.285-1.645-10.713-2.308c1.894-0.318,5.474-0.802,10.713-1.175v-0.788
	h4.147l1.811-0.29l0.387-0.359c-5.944,0.166-14.086,0.623-20.003,2.059C651.146,116.448,649.723,116.227,648.63,116.116
	 M592.563,122.157v0.58l-0.511,0.208l-0.954-0.208l-0.069-0.816l-0.18-0.373l0.235-0.249l0.276-0.65l1.037,0.249l0.249,0.29v0.526
	l0.208,0.29L592.563,122.157z M652.059,122.391l-1.991,1.147l-1.852,0.194l-0.511,0.456l-0.498,0.829l-0.844-0.76l-0.525-0.083
	l-1.078,0.843l-0.539-0.525l-0.415-0.816l-1.05-0.401l0.097-0.968l-0.111-0.401l-0.802-0.788l-0.442,0.235l-0.539,0.968
	l-1.064-0.014l-0.125-1.12l0.76-1.05l0.415-0.013l0.262-0.138l-0.553-0.705l-0.719-0.622l-2.184-0.221l-1.368,0.953l0.056,0.94
	l0.373,0.47l-0.277,0.553l0.235,0.235l-0.138,0.456l-0.526,0.332l-1.147-0.069l-0.332-0.553l-0.608-0.47l-0.553,0.193l-0.76,0.885
	l-1.341,0.083l-0.415-1.466l0.305-1.341l0.553-0.318l-0.981-0.387l-1.701,0.042l-0.622,0.276l-0.65,0.166l-0.456,0.65l0.097,0.65
	l0.788,0.193l-0.083,1.3l-1.009,0.511l-0.456-0.595l-0.359-0.304l-0.373-0.664l-0.705,0.18l-0.387,0.456l0.332,0.332l-0.263,0.58
	l0.084,0.733l-0.595,0.47l-0.705,0.442l-0.704,1.092l-0.954-0.18l-1.12,0.056l-0.953,0.193l0.124-0.871
	c-0.083-0.193-0.124-0.277-1.562-0.277c-1.451,0-2.834-1.341-3.124-2.363l0.816-1.825l0.691,0.691l-0.539,0.553l1.271,0.207
	l1.493-0.456l0.304-1.299l-0.483-0.899l1.741-0.097l1.88-0.981c0.608-0.415,2.723-1.217,4.852-1.217
	c1.368,0,3.027,0.483,3.884,1.023c0.65,0.401,0.996,1.147,2.613,1.147l2.363-0.76c0.484-0.304,1.922-1.299,3.276-1.741
	c1.355-0.443,2.723-0.014,3.345,0.318l1.466,0.566l0.567,0.484l0.663,0.235l0.277,0.429l1.133,0.249l1.576-0.055l-0.526,1.271
	l0.332,0.732l0.096,0.664l1.452,0.152l1.603-0.277L652.059,122.391z"/>
<path fill="#00B3EC" d="M543.698,118.714l-0.623-0.718c-0.165,2.018-0.677,4.741-2.336,4.824l-3.082-1.009
	c-0.747-0.471-4.258-2.226-6.912-3.166c-2.654-0.926-6.663-1.894-7.548-1.935l-4.617,1.023l-0.719,0.511l1.714,0.705
	c0.636,0.483,2.848,2.502,4.908,4.645c2.06,2.143,4.589,5.46,4.866,9.22c0.111,1.535,0.18,6.649,0.193,8.667
	c0.028,3.553,0.443,7.7,0.844,10.146c0.829,5.169,4.851,8.791,4.851,8.791c1.411-0.166,2.641,0.069,3.304,0.429l1.604,1.078
	l1.23,0.332l0.65-0.359l0.553-0.373l0.526,0.373l0.318-0.165l0.097-0.567l-1.424-1.203l-1.106,0.733l-1.258-0.623l-1.769-0.884
	c0,0,0.691-2.17,0.954-4.811l-0.29,0.056l-1.065-0.125l-2.544,1.396c-0.622,0-3.552-0.663-3.552-3.484
	c0-2.806,1.977-3.552,3.663-3.552l2.724,1.672l0.788-0.76c-0.539-1.493-1.88-4.008-2.585-5.06c-0.622-0.912-2.17-3.331-2.502-4.699
	l-0.788-5.405l0.774-0.153l1.687,5.226c0.498,1.009,2.392,3.787,3.787,5.142l2.405,2.199l2.267-2.364l-1.175-1.466l-0.373-2.308
	l-0.028-0.318l-1.105,1.244l-2.295,0.483c-2.156-1.05-2.529-3.166-2.778-4.575l-0.138-0.719l0.608-1.838
	c3.29-2.917,6.939-7.23,9.552-10.519l-0.304-0.29l-0.899-1.12l1.783,0.663l1.023-1.313l-0.138-0.097l-0.262-0.954l-0.402-0.207
	l-0.429,0.111l-0.553-0.705l-0.677-0.704l-0.843,0.539l-0.401-0.47L543.698,118.714"/>
</svg>
