<?xml version="1.0" encoding="utf-8"?>
<!-- Generator: Adobe Illustrator 27.0.1, SVG Export Plug-In . SVG Version: 6.00 Build 0)  -->
<svg version="1.1" id="레이어_1" xmlns="http://www.w3.org/2000/svg" xmlns:xlink="http://www.w3.org/1999/xlink" x="0px"
	 y="0px" viewBox="0 0 720 123.857" enable-background="new 0 0 720 123.857" xml:space="preserve">
<path d="M231.764,107.602l1.258-1.258c1.531,0.524,2.727,1.153,3.576,1.993c-0.661,1.153-1.458,2.202-2.391,3.041
	C233.442,109.699,232.634,108.441,231.764,107.602 M238.36,106.343l1.196,0.839c-1.196,3.251-2.486,6.083-3.859,8.705
	c1.059,0.734,1.688,1.678,1.898,2.832c-1.007,1.154-2.339,1.888-3.996,2.098l0.084-1.468c0-1.783-0.503-3.356-1.5-4.51
	C233.819,113.475,235.875,110.643,238.36,106.343z M233.211,103.197l1.447-1.153c1.521,0.524,2.8,1.258,3.849,1.993l-0.042-0.315
	h8.39l1.217-1.363l2.58,2.307l-0.986,1.258h-3.723v11.327h1.51l1.342-1.363l2.695,2.307l-1.122,1.258h-12.218l-0.598-2.202h4.772
	v-11.327h-3.366l-0.367-1.678c-0.65,0.944-1.479,1.888-2.464,2.727C235.539,105.924,234.564,104.665,233.211,103.197z"/>
<path d="M253.599,103.197h14.452l1.531-1.468l3.293,2.202l-1.143,1.468h-17.483L253.599,103.197 M256.021,106.448l3.597,0.21v0.42
	h7.383l1.447-1.259l2.947,2.517l-0.923,0.944v5.978l-3.471,0.315v-1.678h-7.509c-0.073,2.622-1.479,4.929-4.237,7.026l-1.531-1.468
	c1.405-1.678,2.171-3.88,2.297-6.607V106.448z M259.619,111.692h7.383v-2.412h-7.383V111.692z"/>
<path d="M276.504,102.253l3.576,0.105v7.971c-0.073,2.727-0.503,4.824-1.279,6.502c-0.703,1.468-1.699,2.727-2.978,3.88
	l-1.825-1.258c0.776-0.944,1.363-1.993,1.772-3.146c0.451-1.154,0.692-2.832,0.734-5.034V102.253 M282.345,118.089v-15.102
	l3.44,0.105v14.892L282.345,118.089z M288.302,120.711v-18.458l3.492,0.105v18.144L288.302,120.711z"/>
<path d="M295.895,110.014l-0.514-2.097h4.531v-1.888c-1.007,0.105-2.223,0.21-3.639,0.315l-0.891-1.783
	c3.618-0.524,6.764-1.468,9.407-2.832l2.171,3.146c-0.996,0.21-2.286,0.525-3.87,0.734v2.307h0.64l1.279-1.363l2.444,2.098
	l-0.933,1.363h-3.429v2.622h0.43l1.185-1.258l2.349,2.517l-0.661,0.734v5.558l-2.989,0.21v-1.049h-3.933v1.258l-3.02,0.21v-8.914
	l3.02,0.21v0.524h0.44v-2.622H295.895 M303.404,114.524h-3.933v2.936h3.933V114.524z M310.903,102.148v14.683l0.419,0.419
	l0.776-0.944c0.252-0.839,0.461-1.993,0.64-3.461l1.615,0.524l-0.105,2.098c0,1.468,0.304,2.307,0.892,2.727l-0.745,1.888
	c-0.409,0.315-1.437,0.419-3.052,0.419c-1.657,0-2.664-0.105-3.031-0.21l-0.713-1.573v-16.675L310.903,102.148z"/>
<path d="M317.436,107.602h3.062v-4.51l3.241,0.105v4.405h2.307v-5.663l3.293,0.105v1.888h2.423l1.196-1.468l2.748,2.097
	l-1.049,1.258h-5.317v1.783h3.639l1.196-1.363l2.737,2.202l-1.059,1.259h-6.45v4.615l-0.189,0.944l2.171-1.993l2.58,2.412
	c-3.597,3.356-8.736,4.929-15.417,5.034l-0.996-1.783c2.087-0.105,4.038-0.419,5.852-0.944c2.318-0.734,3.964-1.468,4.95-2.202
	l-2.056,0.21h-0.766c-0.199-0.944-0.85-1.468-1.94-1.678v-1.259c-1.531,1.678-3.062,2.832-4.604,3.566l-1.342-1.049
	c1.479-1.258,2.695-3.146,3.629-5.558l3.723,1.258l-1.217,1.573l1.133,0.105h0.493l0.724-0.42v-2.832h-8.033L317.436,107.602
	 M330.001,111.063l1.154-1.049c0.829,0.21,1.762,0.629,2.79,1.153c1.353,0.629,2.391,1.258,3.125,1.888
	c-0.881,1.363-1.73,2.412-2.559,3.041C333.346,114.209,331.846,112.531,330.001,111.063z"/>
<path d="M348.238,104.351l3.796,1.153c-0.787,1.993-1.584,3.566-2.402,4.824c-0.776,1.049-1.814,2.203-3.115,3.461l-1.531-1.049
	C346.183,111.063,347.263,108.231,348.238,104.351 M358.631,110.853l3.188,2.307c-1.647,2.517-3.618,4.405-5.915,5.663
	c-2.318,1.258-5.097,1.992-8.348,2.202l-1.206-1.888c3.283-0.629,5.831-1.573,7.645-2.832
	C355.863,115.048,357.404,113.265,358.631,110.853z M350.22,113.056v-1.783h2.727l0.147-0.734v-8.495l3.45,0.105v9.858
	c0,1.259-0.325,2.098-0.954,2.412c-0.43,0.21-1.29,0.315-2.601,0.524C352.591,113.895,351.668,113.265,350.22,113.056z
	 M357.247,105.085l1.542-0.944c2.622,1.573,4.573,3.566,5.862,5.768c-0.839,0.944-1.951,1.888-3.356,2.727
	C360.184,109.385,358.831,106.868,357.247,105.085z"/>
<path d="M370.786,101.729l4.331,0.315l-0.273,0.524l-0.703,1.468h7.53l1.395-1.468l2.737,2.098l-0.954,1.468h-4.982v2.622h1.259
	l1.258-1.258l2.695,1.993l-0.912,1.363h-4.3v3.041h2.559l1.279-1.363l2.832,2.097l-0.944,1.468h-5.726v4.615h-3.398v-4.615h-8.694
	l-0.724-2.203h3.492v-5.034l-2.412,2.097l-1.164-1.468C368.899,107.078,370.168,104.561,370.786,101.729 M371.332,108.126
	l2.423,0.105v0.524h2.716v-2.622h-3.608L371.332,108.126z M373.817,113.894h2.653v-3.041h-2.653V113.894z"/>
<path d="M390.702,110.853v-3.251h-1.542l-0.472-1.993h2.014v-3.775l3.041,0.21v3.566h0.189l0.724-1.153l0.535,0.524
	c0.451-0.629,0.692-1.468,0.745-2.517h1.636l0.084,0.524h7.362l1.154-0.944l2.108,2.832c-0.996,0.42-1.888,1.154-2.685,2.203
	l-0.954-0.21l0.126-1.993h-0.556v2.727l0.346,0.42l1.143-0.105l0.682-1.258l1.3,0.629l-0.21,0.944l0.703,0.944l-1.122,1.258
	c-0.43,0-1.353,0.105-2.737,0.105h-1.353v1.468h1.762l1.238-1.363l2.297,2.097l-0.975,1.154h-3.88
	c1.143,1.363,2.832,2.622,5.086,3.566c-0.776,0.944-1.521,1.888-2.234,3.041c-1.227-1.154-2.328-2.727-3.293-4.615v4.824
	l-3.01,0.105v-3.671c-1.133,1.363-2.769,2.517-4.908,3.356l-0.818-1.154c2.391-1.993,3.838-3.775,4.31-5.453h-2.811l-0.482-1.783
	l-1.5,0.734v5.873l-0.64,1.678l-1.94,0.42l-0.996-0.105c-0.126-1.049-0.545-1.678-1.258-1.888v-1.573h1.154l0.64-0.734v-2.412
	l-1.321,0.524l-0.776-3.566L390.702,110.853 M395.338,110.224l-0.294-0.524c1.479-0.42,2.412-1.049,2.821-1.888
	c0.252-0.419,0.399-1.468,0.409-2.936h-0.493c-0.105,1.258-0.388,2.307-0.87,3.146l-1.122-0.734l-0.325,0.315h-1.72v2.936
	L395.338,110.224z M395.443,112.007h4.51v-1.888h1.5v-5.244h-0.43c-0.01,2.098-0.336,3.566-0.986,4.405
	c-0.65,0.734-1.972,1.363-3.954,1.888v0.524L395.443,112.007z"/>
<path d="M413.576,101.624l4.069,0.734c-0.65,1.783-1.237,3.146-1.783,4.3v13.004c1.521-0.839,2.758-1.888,3.702-3.041l-2.37,0.105
	v-10.697l3.115,0.105v0.419h0.682v-4.614l3.314,0.105v1.154h1.94l1.279-1.258l2.402,1.992l-0.912,1.049h-4.709v1.573h1.237
	l1.342-1.049l2.496,2.202l-0.755,0.734v7.866l-2.832,0.105c1.825,0.839,3.23,1.573,4.195,2.412
	c-0.954,1.049-1.982,1.888-3.104,2.307c-0.598-0.944-1.751-2.307-3.471-4.09l1.405-0.839l0.661,0.105v-0.315h-5.17v0.21l3.209,1.678
	c-2.444,1.573-4.625,2.622-6.534,3.041l-1.122-1.259v0.944l-3.283,0.105v-8.705l-1.08,1.468l-0.923-1.678
	C412.013,109.28,413.009,105.924,413.576,101.624 M420.309,109.175h5.17v-0.944h-5.17V109.175z M420.309,111.797h5.17v-0.944h-5.17
	V111.797z M420.309,114.419h5.17v-1.048h-5.17V114.419z"/>
<path d="M433.072,120.607v-18.144l3.188,0.21v0.63h10.414l1.531-1.363l2.853,2.622l-0.829,0.734v15.102l-3.314,0.105v-0.839H436.26
	v0.734L433.072,120.607 M436.26,117.46h10.655v-7.446h-2.276v4.929l-0.535,1.783c-0.367,0.21-1.3,0.419-2.811,0.419
	c-0.367-0.734-1.091-1.153-2.171-1.363v-1.678l1.762,0.105l0.598-0.105l0.105-0.525v-3.566h-4.667l-0.661-1.888h5.328v-2.412
	l3.052,0.105v2.307h0.273l0.954-1.154l1.049,1.258V105.4H436.26V117.46z M437.141,110.853l1.447-0.629
	c1.248,0.839,2.129,1.783,2.622,2.727c-1.028,0.734-2.066,1.258-3.115,1.573C437.969,113.37,437.644,112.216,437.141,110.853z"/>
<path d="M467.754,116.831c-0.042,1.049-0.482,1.888-1.321,2.622c-0.892,0.734-2.014,1.153-3.366,1.153
	c-1.552,0-2.674-0.315-3.366-0.944l-0.42-0.839c0-1.049,0.577-1.993,1.741-2.937c0.933-0.734,2.087-1.258,3.451-1.573
	c-0.011-1.049-0.063-2.727-0.147-4.929c-0.115-3.671-0.199-6.083-0.262-7.446l3.901,0.21c-0.189,1.888-0.294,3.461-0.294,4.405
	c1.311,0.105,2.601-0.105,3.87-0.629l-0.399,3.461l-0.839,0.105c-0.996,0-1.898-0.105-2.716-0.315
	c0.042,1.993,0.136,3.776,0.273,5.139c2.884,0.524,4.321,1.783,4.321,3.88l-0.168,0.839c-0.692,0-1.51,0.42-2.475,1.258
	l-1.678-0.734l1.049-1.573L467.754,116.831 M464.472,116.306l-1.982,0.944l-0.682,0.944l0.514,0.315
	C463.685,118.509,464.398,117.775,464.472,116.306z"/>
<path d="M477.633,114.104c-0.336-1.048-0.514-2.517-0.514-4.3c0-2.203,0.262-4.615,0.787-7.341l3.786,0.21
	c-0.776,1.993-1.269,3.671-1.489,4.824c1.626-3.776,3.083-5.558,4.384-5.558c0.692,0,1.342,0.419,1.94,1.468
	c0.766,1.363,1.154,3.356,1.154,6.083c0,2.622-0.43,4.719-1.279,6.397c-1.091,2.098-2.727,3.88-4.919,5.349l-2.003-1.049
	c2.999-2.307,4.499-6.293,4.499-11.746c0-1.993-0.105-3.041-0.325-3.041c-0.357,0-0.944,0.839-1.762,2.622
	c-0.545,1.154-0.944,2.412-1.196,3.776l0.252,1.258L477.633,114.104"/>
<polyline points="342.376,110.748 341.579,110.748 341.579,98.478 353.87,98.478 353.87,99.317 342.376,99.317 342.376,110.748 "/>
<polyline points="455.62,123.857 443.329,123.857 443.329,123.123 454.833,123.123 454.833,111.587 455.62,111.587 455.62,123.857 
	"/>
<polyline points="225.65,111.063 209.761,113.37 117.953,111.063 209.761,108.756 225.65,111.063 "/>
<polyline points="496.794,111.063 512.683,108.756 604.48,111.063 512.683,113.37 496.794,111.063 "/>
<path d="M303.876,31.882C298.695,13.529,279.797,0,257.207,0C230.642,0,209.1,18.772,209.1,41.95
	c0,23.282,21.541,42.055,48.106,42.055c19.213,0,35.794-9.858,43.502-24.121l-15.113-11.117
	c-3.587,10.068-14.892,17.724-27.886,17.724c-15.763,0-29.092-11.222-29.092-24.541c0-13.214,13.33-24.541,29.092-24.541
	c6.009,0,11.652,1.678,16.34,4.51l-11.232,9.963H303.876"/>
<rect x="185.556" y="1.048" width="18.982" height="81.908"/>
<polyline points="12.323,18.458 42.034,18.458 42.034,82.956 61.016,82.956 61.016,18.458 90.235,18.458 90.235,1.049 0,1.049 
	12.323,18.458 "/>
<polyline points="468.258,18.458 501.262,18.458 501.262,82.956 520.894,82.956 520.894,18.458 543.621,18.458 543.621,1.049 
	481.797,1.049 468.258,18.458 "/>
<polyline points="569.672,45.725 550.039,45.725 550.039,82.956 628.15,82.956 628.15,65.652 569.672,65.652 569.672,45.725 "/>
<polyline points="550.039,36.811 569.672,36.811 569.672,18.458 628.15,18.458 628.15,1.049 550.039,1.049 550.039,36.811 "/>
<path d="M698.931,52.333c4.583-1.363,8.39-3.67,11.337-6.712c4.499-4.824,6.88-10.907,6.88-17.619
	c0-7.761-2.853-14.578-8.264-19.717c-5.097-4.824-12.113-7.236-20.849-7.236h-53.476v81.908h19.14V18.458h31.305
	c8.883,0,13.193,3.041,13.193,9.544c0,5.873-3.943,8.705-12.04,8.705h-13.77l-13.539,17.304h18.668l20.534,28.946H720
	L698.931,52.333"/>
<path d="M172.069,45.62c4.499-4.824,6.88-10.907,6.88-17.619c0-7.761-2.853-14.577-8.254-19.717
	c-5.107-4.824-12.124-7.236-20.849-7.236H96.37v81.908h19.129V18.458h31.305c8.883,0,13.193,3.041,13.193,9.544
	c0,5.873-3.933,8.705-12.04,8.705h-13.76l-13.539,17.304h18.657l20.545,28.946h21.95l-21.08-30.624
	C165.315,50.969,169.122,48.662,172.069,45.62"/>
<polyline points="590.185,32.721 576.929,49.815 606.263,49.815 619.519,32.721 590.185,32.721 "/>
<path d="M449.212,33.14h-27.31c-7.121,0-8.652-4.405-8.652-7.131c0-4.3,1.51-7.551,11.075-7.551h35.49l13.602-17.409h-52.574
	c-8.054,0-14.546,2.203-19.276,6.712c-4.793,4.51-7.226,10.697-7.226,18.248c0,6.712,2.003,12.166,5.946,16.361
	c2.989,3.146,9.072,7.971,17.692,7.971h24.488c5.37,0,13.844,0.944,13.844,7.971c0,3.356-1.017,7.866-9.806,7.866h-65.725
	l-29.669-24.122l50.288-41.006h-26.334l-48.819,39.643V1.048h-19.14v81.908h19.14V43.313l48.694,39.643h66.239l13.571-0.524h0.304
	c6.156-1.049,11.106-3.461,14.714-7.341c3.943-4.09,5.946-10.173,5.946-16.78c0-7.761-2.559-13.949-7.215-18.353
	C463.769,35.448,457.277,33.14,449.212,33.14"/>
<path d="M238.843,39.328c1.112,0.42,3.136,1.468,4.132,2.412l-1.29,1.993l-3.346-2.202v5.139h-2.391v-9.963l2.349,0.105l0.273,0.105
	l-0.231,0.315v2.936L238.843,39.328"/>
<path d="M246.541,36.916l0.304,0.21l-0.304,0.315v5.244h-2.244v-5.768H246.541 M251.826,36.916l0.315,0.21l-0.315,0.315v3.356
	c0,0.315-0.011,2.202-1.017,3.67c-0.64,0.944-1.395,1.468-3.241,2.307l-1.678-1.783c1.605-0.315,2.569-1.154,2.926-1.678
	c0.189-0.315,0.682-0.944,0.682-3.041v-3.461L251.826,36.916z"/>
<path d="M255.025,39.433l1.07,2.307l-1.531,0.629l-1.091-2.412L255.025,39.433 M261.832,39.538l0.168,0.21l-0.241,0.21
	c-0.22,0.839-0.713,2.622-2.045,4.195c-0.482,0.525-1.772,1.783-3.419,2.517l-1.384-1.468c1.217-0.42,2.318-1.154,3.199-2.098
	c1.374-1.468,1.605-2.936,1.772-4.09L261.832,39.538z M257.406,38.804l1.038,2.307l-1.626,0.63l-0.975-2.412L257.406,38.804z"/>
<path d="M270.557,38.384l0.619-0.21l1.258,0.944l-0.325,0.629l-0.724,1.783c-0.399,0.944-1.772,3.775-5.013,5.453l-1.783-1.678
	c2.989-1.153,4.352-3.566,4.877-4.929h-2.748l-2.181,2.517l-1.772-1.468c1.458-1.258,2.853-2.936,3.608-4.929l2.202,0.839
	l0.21,0.105l-0.378,0.315l-0.336,0.629H270.557"/>
<path d="M273.724,39.433v-2.097h5.569l0.87-0.21l1.08,0.944l-0.378,0.734c-0.619,1.573-0.724,1.888-1.374,2.936
	c1.164,0.839,2.674,1.993,3.314,2.727l-1.615,1.888c-0.734-1.048-2.171-2.307-2.968-2.936c-0.472,0.525-1.93,2.098-4.048,3.041
	l-1.584-1.888c2.087-0.629,4.992-2.832,5.569-5.139H273.724"/>
<path d="M286.991,40.586l1.636,0.839l0.713-1.468h-2.507c-0.986,1.363-1.951,2.203-2.328,2.412l-1.762-1.363
	c1.615-1.153,3.199-3.146,3.65-4.51l2.202,0.629l0.22,0.21l-0.44,0.21l-0.262,0.524h2.129l0.881-0.21l1.049,0.839l-0.241,0.629
	c-0.409,1.049-0.828,2.098-1.563,3.251l1.196,0.944l-1.405,1.888l-1.154-1.049c-1.206,1.153-2.475,1.888-3.566,2.517l-1.605-1.888
	c1.856-0.524,3.146-1.678,3.398-1.888l-1.573-0.944L286.991,40.586"/>
<rect x="293.231" y="40.587" width="9.628" height="2.202"/>
</svg>
