<?xml version="1.0" encoding="utf-8"?>
<!-- Generator: Adobe Illustrator 27.0.1, SVG Export Plug-In . SVG Version: 6.00 Build 0)  -->
<svg version="1.1" id="레이어_1" xmlns="http://www.w3.org/2000/svg" xmlns:xlink="http://www.w3.org/1999/xlink" x="0px"
	 y="0px" viewBox="0 0 720 170.238" enable-background="new 0 0 720 170.238" xml:space="preserve">
<path d="M20.326,0.89l0.817-0.452l0.262-0.045l0.379-0.087L22.923,0l1.693,0.292l0.467,0.291l1.43,1.942l0.029,0.131l0.248,2.276
	l-0.175,3.093L26.6,8.347c-0.073,1.342-0.146,2.714-0.219,3.415l-0.248,1.109l-0.117,0.583l-0.19,0.773l-0.408,2.788l-0.029,1.342
	l-0.058,1.591l-0.204,2.014l-0.102,0.672l-0.277,1.824l-0.321,2.188c-0.146,1.08-0.335,3.808-0.525,6.552l-0.029,0.583
	c-0.16,2.203-0.321,4.494-0.423,5.341l-0.088,0.598l-0.16,2.189l-0.117,0.759l-0.161,1.138l-0.321,2.583l-0.014,0.16l-0.204,1.576
	l-0.292,1.779l-0.175,0.992l-1.27,9.996l-0.131,1.429l-0.073,0.846l-0.117,0.818l-0.131,1.284L20.049,66.8v0.146v0.044l-0.015,0.044
	v0.146l-0.19,2.072l-0.146,1.065l-0.219,1.298c-0.058,0.54-0.19,2.13-0.306,3.677l-0.044,0.568l-0.277,3.284l-0.131,0.875
	l-0.219,1.225L18.4,82.632l-0.015,0.627l-0.16,0.992l-0.058,0.525l-0.029,0.073l-0.511,1.547l-0.248,2.962l-0.029,0.087
	l-0.073,0.482c-0.044,0.437-0.263,2.159-0.481,3.765l-0.117,0.787l-0.277,2.262l-0.263,0.89l-0.525,1.941l-0.233,1.533l-0.263,1.737
	l-0.044,1.167l0.015,0.146l-0.117,0.569l-0.584,5.005l-0.19,1.109l-0.248,1.415l-0.088,1.153l-0.058,0.686l-0.131,0.904l-0.35,1.533
	l-0.131,0.496l-0.058,0.291l-0.044,0.118l-0.234,1.109l-0.102,1.036l-0.073,0.788l-0.365,1.356l-0.233,0.818l-0.102,0.467
	l-0.015,0.102l-0.277,1.284l-0.117,0.496l-0.248,1.152l-0.088,0.934l-0.015,0.248l-0.511,2.233l-0.014,0.16v0.511l-0.54,2.028
	l-0.204,0.861l-0.219,0.35l-0.277,1.955l-0.102,0.613l-0.146,0.438l-0.263,0.832l-0.146,0.846l-0.058,0.525l-0.19,0.759l-0.54,1.955
	l-0.292,0.978l-0.598,2.014l-1.853,1.488l-0.233,0.219l-0.044,0.365l0.015-0.365l-0.015,0.014l-0.014-0.014l-2.16-0.292
	l-0.744-0.131l-1.372-0.54l-0.7-0.92l0.365-1.619l0.073-1.839l-0.088-0.817v-0.014l1.445-3.24l0.058-0.218l0.175-0.642l0.832-2.481
	l0.204-1.4l0.029-0.292l0.117-0.672l0.16-1.036l0.175-0.802l0.131-0.788l0.044-0.35l0.496-2.495v-0.131l0.102-0.322l0.248-0.89
	l0.263-1.27L4.976,122l0.044-0.278l0.16-1.518l0.482-1.429l0.044-0.248l0.306-2.364l-0.015-0.131l0.365-2.262l0.175-1.168
	l0.117-0.86l0.219-1.095c0.248-0.482,0.89-1.751,0.336-3.268l0.175-1.342l0.044-0.306l0.117-0.774l0.015-0.219l0.204-1.459
	l0.204-0.146c0.467-0.336,1.43-1.298,0.817-3.137l-0.015-1.022v-0.044l0.263-2.16c0-0.059,0.029-0.438,0.379-3.167l0.029-0.233
	l0.306-2.451l0.102-1.168l0.044-0.423l0.044-0.832v-0.219l0.686-2.729l0.058-0.364l0.423-3.502l0.117-1.401l0.044-0.598l0.204-0.672
	c0.058-0.321,0.146-1.313,0.394-4.334l0.117-1.372l0.409-2.261l0.058-0.642l0.058-0.205l0.204-0.992l0.044-1.05l0.044-0.818
	l0.102-0.642l0.175-1.065L13.03,64.64l0.292-2.233v-0.306c0.044-0.496,0.467-3.749,0.671-5.311l0.029-0.132
	c0.292-2.014,0.554-3.867,0.613-4.392l0.204-1.824l0.015-0.146l0.029-0.19l0.029-0.248l0.131-1.036l0.248-1.634l0.35-2.349
	l0.146-1.838l0.014-0.379l0.219-2.13l0.015-0.015l0.131-0.598l0.014-0.132l0.073-1.328c0-0.058,0-0.759,0.525-6.683l0.131-1.429
	l0.015-0.088l0.073-0.569l0.015-0.248l0.204-1.664l0.204-2.116l-0.015-0.218l0.321-1.912l0.102-0.744l0.161-2.626l0.102-0.424
	l0.16-1.824l-0.029-0.277l0.146-1.225l0.073-0.832l0.088-0.788l0.277-1.678l0.087-0.598c0.131-0.729,0.219-2.014,0.365-3.545
	l0.277-2.83l0.088-0.438l0.175-2.247l0.117-1.62l0.029-0.218L20.326,0.89"/>
<path d="M558.653,93.399l-1.328-1.021l-0.19-0.161l-0.745-0.044l-0.102,0.029l-1.766-0.321l-1.722-0.292l-1.474-0.511l-0.496-0.233
	l-1.591-1.138l-2.014-1.298l-0.146-0.219l-1.152-0.204l-1.196-1.314l-0.671-1.255l-0.35-0.277l-0.16-0.131l-1.241-2.203
	l-1.838-1.868l-0.234-1.007l-0.948-1.707l-0.467-1.079l-0.073-1.474l-0.19-0.438l-0.627-0.54l-0.671-2.903l-0.029-0.219
	l-0.248-0.452l-0.729-0.788l-0.307-1.445l-0.087-0.496l-0.015-0.146l-0.073-0.102l-0.16-0.292l-0.905-2.714l-0.073-0.818
	l-0.131-1.911l-0.058-0.438l-0.131-0.19l-0.058-0.102l-0.875-1.737l-0.175-2.539l-0.015-0.058l0.044-1.226l0.044-0.35l-0.044-0.35
	l-0.161-1.926l-0.015-0.277l-0.014-0.394l-0.569-1.518l-0.248-0.322l-0.277-1.78l-0.015-0.087l-0.014-0.802l-0.029-0.379
	l-0.044-0.102l-0.088-1.605l0.248-0.759l-0.102-0.16c-0.788-1.342-0.336-2.612-0.146-3.152l0.058-0.146l-0.015-0.35l0.248-1.853
	l0.409-1.926h-0.015l-0.073-0.394l0.102-1.693v-0.014l0.044-1.838l0.015-0.102l-0.044-2.32l0.497-2.933l0.073-0.219l0.307-0.788
	l-0.175-0.467l-0.087-0.336l-0.219-0.277l-2.772-1.46l-1.809-0.087l-0.627,0.044l-2.116,0.088l-1.561,1.473l-0.059,0.117
	l-0.51,1.138l-1.168,1.211l-0.54,0.278l-0.496,0.277l-0.599,0.423l-0.233,0.146l-1.897,2.306l-0.175,0.204l-0.204,0.219
	l-1.474,0.729l-0.146,0.044l-0.102,0.044l-0.16,0.19l-1.649,1.401l-1.868,1.707l-0.759,0.656l-0.088,0.117l-1.43,1.109l-0.277,0.351
	l-1.05,1.138l-0.861,0.423l-0.744,0.423l-0.234,0.204l-1.517,1.095l-0.029,0.044l-0.146,0.278l-0.014,0.072l-0.102,0.336
	l-1.298,1.387l-1.328,1.095l-1.343,1.138l-0.613,0.627l-0.992,0.365l-0.073,0.19c-0.613,1.765-2.014,2.188-3.152,2.014l-0.569,0.875
	l-1.225,1.473l-1.78,1.226l-0.7,0.044l-0.379,0.336l-0.336,0.263l-0.35,0.233l-0.292,0.16l-2.568,2.437l-1.327,1.751l0.044-0.219
	l-0.365-1.634l0.321-1.356l-0.117-1.488l0.073-0.409l-0.073-1.883l0.044-2.334l0.087-0.395l0.015-0.087l0.146-0.729l-0.394-2.335
	l0.35-1.911l0.379-2.495l-0.087-0.759l-0.029-1.357v-0.132v-1.123l-0.117-2.685l-0.015-0.16v-0.365l-0.073-1.022v-1.152
	l-0.015-1.401v-0.51v-0.087l0.102-1.839l-0.102-0.54l-0.161-2.612l0.117-1.123l0.029-0.088l0.029-0.19l0.073-1.605l0.058-0.54
	l-0.029-0.087l-0.219-1.357l0.117-1.853l0.058-0.627l0.306-2.422l0.511-1.737l0.029-0.073l0.015-0.058l-0.379-2.043l-0.146-1.342
	l-0.131-1.62l-0.19-0.219l-1.415-0.846l-0.088-0.073l-0.35-0.248l-0.773-0.51l-0.788-0.058l-1.766,0.117l-0.54,0.583l-1.27,1.722
	l0.015,0.686l0.35,3.195v0.102l0.16,0.569l-0.452,1.824l-0.16,0.598l-0.336,1.006l-0.044,0.117l-0.102,0.322l0.262,2.772
	l-0.248,2.772l-0.146,0.569l0.029,0.175l0.248,1.985l0.19,1.313l0.102,0.745l0.044,0.306l0.146,1.518l-0.234,1.984l-0.058,0.525
	l0.248,2.407l0.321,0.686l-0.277,2.057l0.044,0.132l-0.117,2.276l0.058,0.35l0.087,1.051l-0.54,1.561l-0.088,1.415l-0.044,0.306
	l0.584,2.597l-0.058,0.948l-0.409,2.043l-0.044,0.087l-0.102,0.292l-0.102,0.438l-0.131,0.583l0.204,1.605l-0.058,0.569
	l-0.131,1.488v1.387l-0.102,1.05l-0.379,2.452l-0.029,0.875l0.073,0.321l0.029,0.146l0.102,1.634l-0.088,1.401l-0.686,0.394
	l-1.284,1.343l-0.54,0.729l-0.146,0.219l-1.839,1.591l-0.234,0.145l-0.058,0.059l-2.466,1.518l-1.357,1.415l-2.145,2.306
	l-0.204,0.204l-0.832,0.701l-0.54,0.787l-2.364,2.072l-2.933,0.248l-1.299-2.655l0.029-0.248l0.335-1.474l0.496-1.911l0.438-1.868
	l0.073-0.205l0.321-0.992l0.204-0.598l0.233-1.956v-1.926l0.452-0.627l0.015-0.029l0.613-1.926l0.131-0.86l0.015-0.088l0.19-1.342
	l0.015-0.131L464.45,58v-0.102l0.058-1.356l0.365-1.153l0.131-0.35l0.117-0.423l-0.044-0.073l-0.802-0.365l-0.7-0.496l-0.058-0.058
	l-1.27-0.452l-0.117-0.073l-0.335-0.132l-0.102-0.028l-0.219-0.088l-0.948-0.19h-1.561l-1.007-0.058l-0.7,0.131l-1.43-0.379
	l-1.809,0.102l-0.919,0.059l-1.109,0.817l-0.16,0.087l-0.394,0.292l-1.693,1.795l-0.087,0.233v0.045l0.073,0.087l0.467,0.073
	l0.934,0.248l2.962,0.263l2.787,0.336l1.342,2.729l-0.117,1.357v0.117l-0.481,1.707l-0.015,0.16l-0.029,0.19l-0.219,2.583v0.014
	l-0.496,1.81l-0.088,0.204l0.088,1.095c-0.117,1.328-0.452,2.539-0.978,3.502l-0.058,0.132l-0.598,1.167l-0.117,1.678l-0.058,0.19
	l0.554,1.533l-0.73,1.546h-0.014l-0.102,1.591l-0.671,0.847l-0.015,0.321l-0.058,0.686v0.059l0.365,1.152l-0.744,1.722l-0.204,0.16
	l-0.102,0.409l-0.131,0.496l-0.365,3.094l-0.058,0.35l0.336,2.261l-0.204,0.569l0.204,1.43v0.073l0.014,0.175l0.131,0.89
	l0.379,1.138l1.43,0.89l0.073,0.059l0.088,0.073l1.109,0.117l0.715,0.058l0.992,0.234l1.445-0.525l1.022-1.037l1.284-1.605
	l0.365-0.54l0.671-1.036l0.715-1.109l0.671-0.73l1.445-1.838l0.919-1.474l0.073-0.073l0.394-0.35l0.146-0.117l1.342-1.97
	l1.562-1.722l0.16-0.395l1.284-1.342c0.335-0.817,0.948-1.897,2.291-2.393l2.16-1.648l0.117-0.102l2.495-3.122l0.044-0.044
	l-0.409,1.036l-0.088,0.19l-0.102,0.277l0.015,0.161v0.117l-0.044,2.057l0.044,0.117l0.336,1.459l0.044,0.132l0.248,0.948
	l0.029,0.044c0.234,0.452,0.92,1.838-0.073,3.239v0.087l-0.248,0.964l-0.044,0.16l-0.087,0.525l-0.102,0.627l-0.146,3.385v2.656
	l0.029,0.044l0.554,2.393l-0.306,1.037l-0.146,0.437v0.087l-0.204,1.343l-0.102,0.379l0.161,1.006l0.015,0.102l0.014,0.175
	l0.146,2.188l0.423,1.43l0.058,0.248l-0.671,2.233l0.029,0.16l0.029,0.102l0.073,0.423l-0.175,1.941l0.175,1.314l-0.263,0.729
	l0.058,0.555l0.029,0.802l0.073,1.736l0.058,0.088l1.284,1.546l0.058,0.088l0.846,0.394l0.569,0.277l0.467-0.014l0.905-0.014
	l0.759-0.263l0.642-0.292l0.744-0.175l1.065-1.401l0.306-0.467l-0.088-0.583l-0.204-1.284l0.146-1.882l0.102-1.357l0.015-0.19
	l-0.044-0.745l-0.015-0.19l-0.058-2.233l0.015-0.714l-0.19-2.203l-0.102-1.46l0.029-0.336l0.015-0.117l-0.073-1.065l-0.073-0.817
	l0.088-0.802l0.015-0.102l0.029-0.496l-0.058-0.583v-0.964l-0.029-1.167l-0.044-0.088l0.029-2.16l-0.015-0.19v-0.598l0.044-1.08
	l0.029-0.963l0.16-2.992l0.088-0.671l0.394-1.679v-0.044l-0.015-0.131v-0.029l-0.015-0.277h0.015l-0.029-1.606l-0.073-0.175
	l-0.029-0.073l-0.408-2.028l0.102-1.11l0.131-1.561l0.175-1.736l0.044-0.964v-0.073l0.19-2.087l0.029-0.408v-0.088l0.233-1.502
	l-0.16-2.437l0.015-0.175l0.029-0.219l1.985-1.809l0.131-0.073l0.35-0.233l0.204-0.234l1.4-1.137l0.978-1.241l0.525-0.292
	l0.102-0.073l0.613-0.35l0.817-0.452l0.992-1.079l0.627-0.482l1.518-1.182l1.503-1.269l0.088-0.059l0.569-0.569l1.488-1.532
	l2.466-2.057l0.117-0.117l0.073-0.073l0.306-0.306l0.642-0.598l0.292-0.219l0.058-0.058l1.839-1.168l2.378-1.999l0.175-0.19
	l1.357-1.211l0.19-0.117l1.313-1.036l1.313-1.284l0.204-0.16l0.642-0.423l0.131-0.087l0.292-0.278l1.649-1.284l0.117-0.087
	l0.073-0.044l0.569-0.394l0.511-0.234l2.393-2.115l0.627-0.379l2.539-0.409c0.496,0.19,1.386,0.729,1.678,2.116l-0.088,3.502
	l0.569,1.868l-0.029,1.051l0.584,1.079l0.073,1.298l0.044,0.292l0.117,0.555l0.073,0.467l0.131,0.919l0.015,0.131l-0.029,0.978
	l0.219,0.395l0.102,1.809l0.088,0.525l0.846,1.036l0.161,1.27l0.015,0.364l-0.088,0.409l-0.146,0.51l0.379,0.818l0.175,0.219
	l0.482,2.305l0.394,1.124l0.058,0.496l0.16,0.672l0.321,0.7l0.146,1.284l0.408,1.445l0.54,2.174l-0.102,0.934l0.306,1.998
	l0.131,0.379l0.525,0.934l0.715,1.182l0.16,1.036l0.131,0.306l0.292,0.511l0.029,0.044l0.321,0.642l0.292,1.065l0.759,1.095
	l0.058,0.087l0.554,0.788l0.525,1.225l0.248,0.321l0.058,0.073l0.029,0.029l1.182,1.707l0.117,0.233l0.904,1.78l0.044,0.087
	l0.146,0.395l0.686,0.671l1.021,1.211l0.277,0.423l0.204,0.365l0.175,0.117l1.415,1.168l0.963,1.065l0.613,0.496l0.073,0.087
	l0.146,0.102l1.488,1.269l0.7,0.146l1.955,1.022l0.233,0.073l0.802,0.233l1.357,0.54l0.963,0.263l1.079,0.248l0.409-0.029
	l2.16,0.102l0.583,0.145l0.365,0.102l0.831-0.073l1.036-0.204l1.663-0.656l0.321-0.322l0.248-1.255l-0.058-0.437L558.653,93.399"/>
<path d="M719.986,67.164l-0.015-0.044v-0.014l-0.087-0.467l0.073-2.233l-0.029-0.19l-0.014-0.117l-0.059-0.263l0.059-2.32v-0.496
	l-0.045-1.065l-0.014-0.248l-0.073-1.109l0.132-1.648l0.058-0.511l-0.19-1.736l-0.437-2.393v-0.073l0.014-0.292l-0.16-0.919
	l-0.088-0.379l-0.16-1.503l-0.248-1.518l-0.102-0.394l-0.525-1.81l-0.306-1.05l-0.788-1.576l0.146-2.757l-0.014-2.276l-0.379-0.832
	l-0.35-0.818l-0.073-0.087l-0.102-0.16l-0.117-0.087l-0.613-0.672l-2.219-1.547l-0.014-0.029H713.2l-0.394-0.087l-1.752,0.014
	l-0.072-0.014l-1.095,0.277l-0.19,1.065l-0.146,0.978l0.131,1.634l0.015,0.379l0.219,1.707l0.014,0.233
	c0.642,1.474,0.686,2.816,0.729,3.794l0.015,0.365l0.117,0.16l0.919,2.539v0.19l0.087,1.225l0.19,0.423l0.423,2.101l0.015,0.248
	l-0.044,0.875l-0.014,0.277l0.073,1.415l0.029,0.569l0.058,0.424l0.015,1.648l0.029,3.181l-0.058,1.022l0.117,0.554l0.131,1.314
	l-0.087,1.401l-0.102,0.627l-0.51,2.349v0.233l0.014,0.102l0.015,0.263l-0.452,2.348l-0.175,0.803l-0.175,0.744l0.321,2.101
	l1.182,1.722l0.073,0.087l0.891,1.168l1.255,0.729l1.328,0.832h0.014l1.401,0.248h0.044l0.306-0.029l0.978-0.715l0.117-1.751
	l0.117-0.832l0.292-1.445l-0.015-0.073c-0.19-1.138-0.263-1.751,0.117-3.108l0.263-2.13L720,67.237L719.986,67.164z"/>
<path d="M642.503,75.985l-0.059-0.044l-0.175-0.044h-0.175l-0.511,0.306l-1.576,1.168l-0.205,0.117l-1.24,0.35l-0.059,0.044
	l-0.832,0.379l-0.204,0.146l-0.963,0.964l-0.379,0.291l-0.306,0.233l-1.824,1.27l-0.278,0.204l-0.714,0.525l-0.832,0.978
	l-1.503,0.715l-0.131,0.044l-1.78-0.117l-0.846-0.73l-0.088-0.072l-0.627-1.08l-0.029-0.117l-0.555-2.028l-0.394-0.598l-0.861-2.145
	l-0.073-1.036l-0.102-0.219c-0.438-0.963-1.168-2.538-0.978-4.508l-0.583-1.912l-0.569-2.611l-0.306-1.634l-0.379-2.043
	l-0.395-2.568l-0.16-1.21c-0.875-1.562-1.152-3.123-0.861-4.626l-0.058-0.336l-0.409-1.941l-0.204-1.561l-0.263-1.664
	c-0.452-1.81-0.613-3.589-0.482-5.413l0.059-2.218l-0.045-0.846l-0.072-3.312l-0.219-0.35l-0.525-1.007l-0.044-0.073l-0.205-0.394
	l-0.613-0.715h-0.014l-1.62-0.788l-0.35-0.233l-1.474-0.146l-2.028,0.322l-1.109,0.933l-0.059,0.073l0.044,0.598l0.117,0.832
	l0.146,1.006l0.102,0.919l0.014,0.118l0.146,1.109c0.219,0.817,0.599,2.16,0.248,3.808l-0.015,0.861l-0.044,1.648l0.132,2.174
	l0.044,0.263l0.19,0.525c0.394,1.065,0.846,2.247,0.86,3.721l0.306,1.284l0.424,3.56c0.875,1.824,0.919,3.517,0.963,4.772
	l0.073,1.124l0.146,1.079l0.117,0.817l0.773,2.233l0.277,1.46l0.029,0.218l0.19,0.964l0.219,0.963l0.496,2.568l1.079,3.531
	l0.379,2.028l0.073,0.394l0.292,1.547l0.059,0.117l0.35,0.832l0.248,0.686l0.306,0.788l0.219,0.394l0.875,1.766l0.146,0.437
	l1.838,2.014l0.614,1.634l1.299,0.263l2.714,1.328h0.015l0.496,0.029h0.072l0.964,0.175l0.131-0.028l0.102-0.029l0.248-0.175
	l1.283-0.788l0.541-0.248l0.613-0.322l1.546-1.152l0.701-0.875l0.277-0.35l2.714-1.547l0.774-0.846l0.19-0.19l0.146-0.219
	l1.006-1.328l0.248-0.219l1.897-2.174l0.102-0.087l0.438-0.365l0.627-1.109l0.613-1.591l0.073-0.627l-0.321-0.745L642.503,75.985"/>
<path d="M389.761,46.988l-0.525-0.613l-0.671-0.102l-1.693-0.132l-0.948-0.073l-0.598-0.073l-0.934-0.058l-1.08,0.175l-1.62,0.219
	l-1.036-0.029l-1.941,0.118l-1.386,0.321l-0.408,0.073l-0.773,0.19l-2.247,0.321l-2.145,0.19l-2.335,0.205l-0.7,0.117l-1.78,0.102
	l-1.284,0.146l-0.817,0.175l-0.73,0.117l-1.693,0.233l-1.094,0.015l0.087-0.452l-0.16-0.424l-0.131-0.379l-0.117-0.919l-0.175-0.423
	l-0.044-1.429l-0.934-3.59l-0.029-0.044l-0.482-0.875l-0.204-0.525l-0.219-0.525l-0.336-0.7l-0.044-0.555l0.029-0.437l-0.102-0.701
	l-1.022-2.568l-0.014-0.555l-0.219-0.773l-0.16-0.525l-0.102-0.263l-0.219-0.788l0.029-0.51l0.015-0.336l-0.219-0.672l-0.175-0.569
	l-0.306-0.729l-0.263-0.627l-0.058-0.117l-0.058-0.175l-0.102-0.759l1.561-0.336l0.642-0.087l1.313-0.146l1.386-0.087l1.182-0.146
	l2.831-0.087c1.401-0.029,2.714-0.059,4.1-0.146l1.897,0.364l1.328,0.205l0.511-0.044l0.525-0.059h0.467l0.365,0.014l1.97-1.283
	l0.51-0.452l0.131-0.365l-0.044-1.474l-0.554-0.787l-0.598-0.598l-0.335-0.248l-0.219-0.218l-0.248-0.205l-0.394-0.277h-0.35h-0.627
	l-1.459-0.175l-1.225-0.131l-0.219-0.029l-1.109-0.059l-1.197,0.146l-1.255,0.161l-1.532,0.087l-1.211,0.058l-1.853,0.146
	l-1.123,0.102l-0.613,0.029l-0.934,0.073l-0.496,0.117l-2.612,0.102l-1.372-0.117h-0.511l-0.292-0.817l-0.044-1.168l-0.423-1.824
	l-0.058-0.146l-0.117-0.481l-0.234-0.948l-0.058-0.424l-0.058-0.408l-0.481-1.27l0.058-1.386l-0.044-0.117l-0.073-0.175
	l-0.058-1.751l0.335-0.496l0.219-0.336l0.117-0.89l0.306-0.482l0.146-0.248l-0.263-0.468l-0.598-0.875l-0.54-0.379l-0.759-0.409
	l-1.225-0.467l-0.336,0.044l-0.467,0.029l-0.583-0.014l-0.993,0.044l-1.065,0.087l-0.335-0.014l-1.109,0.306l-1.08,0.846
	l-0.073,0.19l0.408,1.46l0.058,0.496l0.277,1.955l0.015,0.613l0.525,1.649l-0.058,0.204l0.058,0.204l0.029,0.146l0.146,0.745
	l0.161,0.817l0.16,1.022l0.088,0.672l0.16,1.225l0.015,0.306l0.015,0.204l0.365,0.847l0.015,0.452l-0.088,0.7l0.511,1.182
	l-1.547-0.029l-1.27,0.351l-0.89-0.088l-0.131-0.028l-0.394-0.088l-1.736,0.468l-0.657-0.059l-0.365-0.029l-1.211,0.146
	l-1.605,0.204l-3.488,0.132l-1.036-0.059l-0.992-0.058l-3.59,0.219l-0.861,0.671l-0.131,0.278l-0.379,1.05l-0.029,0.468l1.153,1.445
	l0.365,0.452l0.088,0.088l0.992,0.467l0.846,0.336l1.372,0.306l0.554,0.16l1.05,0.233l0.657,0.146l0.394,0.102l0.146,0.058
	l0.365-0.19l0.715-0.35l0.467-0.175l2.058-0.379l3.122,0.277l2.203-0.087l0.977-0.029l0.379,0.029l1.138,0.16l1.649-0.117
	l0.379-0.233l0.102-0.073l0.394-0.161l-0.102,0.541l0.102,1.269l0.496,0.759l0.102,0.277l0.671,1.226l0.058,0.204l0.146,0.963
	l0.292,1.095l0.409,1.547l0.233,0.89l0.204,0.322l0.306,0.525v1.474l0.029,0.117l0.292,0.92l0.117,0.218l0.802,2.292l0.554,1.722
	l0.058,0.51l0.131,0.73l0.146,0.686l0.788,1.925l0.073,0.365l0.044,0.948l-0.876-0.029l-1.036,0.044l-1.357,0.073l-0.365-0.044
	l-0.438-0.014l-1.328,0.277h-1.298l-2.32,0.146l-1.284-0.19l-0.233,0.102l-0.613,0.219l-0.613,0.146l-0.7,0.014l-0.993,0.045h-0.861
	l-1.022,0.072l-1.342,0.161l-0.92,0.102l-0.817,0.088l-0.365-0.015h-0.875l-0.233,0.044l-0.905,0.015l-1.386,0.175l-1.007,0.161
	l-0.379-0.073l-0.233-0.044l-0.365,0.044l-1.051,0.014l-2.889,0.146l-0.262,0.044l-0.117,0.292l-0.467,0.54l-0.175,0.336
	l-0.015,0.175l-0.117,0.745l-0.131,0.292l0.087,0.146l0.117,0.145l0.729,1.518l0.584,0.248l1.605,0.802l0.657,0.423l0.117,0.087
	l0.686-0.028l0.744-0.219l0.759-0.219l0.773-0.073l0.54-0.014l0.423-0.015l0.7-0.102l1.138-0.16l0.802-0.015l0.657,0.015l0.19-0.045
	l0.54-0.102h0.102l0.583,0.087l0.379,0.073l1.576-0.175l3.386-0.146l0.073-0.044l2.67-0.306l4.202-0.263l0.409-0.028l1.225,0.423
	l0.613,0.204l1.065-0.233l0.482-0.117l0.569-0.059l0.554,0.088l0.117,0.028l0.978,0.146h0.292l0.16,0.292l0.131,0.233l0.336,1.007
	l0.058,0.335l0.277,1.416l0.51,1.488l0.219,0.642l0.131,0.423l0.102,0.379l0.584,1.707l0.117,0.467l0.175,0.525l0.263,0.875
	l0.044,0.525l0.015,0.321l0.423,1.168l0.014,0.306v0.175l0.146,0.218l0.467,1.737l0.087,0.467l0.496,1.022l0.875,1.97l0.642,1.664
	l0.598,1.518l0.438,1.429l0.233,1.62l0.102,0.715l0.627,0.978v0.875l0.73,0.51l0.117,0.146l0.219,1.737l-1.532,0.948v-0.029
	l-0.569,0.029l-1.474-0.059l-0.583-0.014h-0.117l-1.065,0.714l-1.488,0.306l-0.277,0.045l-1.897,0.832l-0.234,1.283l-0.044,0.175
	l-0.044,0.365l-0.146,0.86l0.802,0.818l0.35,0.525l1.372,0.364l0.934,0.132l0.044,0.014h1.591l1.284,0.204l1.342,0.132l0.306-0.029
	l0.292,0.029l0.277,0.044l2.116,0.496l0.467,0.175l1.605-0.379l0.54,0.291l0.89-0.014l1.065-0.059l0.088,0.029l0.671-0.131
	l0.438-0.102l0.233-0.029l0.569-0.35l0.496-1.006l0.584-0.395l0.219-0.715l-0.015-0.102v-0.657l0.015-0.233l0.058-0.394
	l-0.102-0.861l-0.613-0.86l-0.16-0.395l-0.511-1.095l-0.35-0.686l-0.525-1.05l-0.423-0.948l-0.656-2.262l-0.277-0.642l-0.277-0.54
	l-0.263-1.225l-0.102-0.102l-0.7-0.729l-0.088-0.19l-0.117-0.277l-0.044-0.102v-0.029l-0.497-1.474l0.059-0.277v-0.744l-0.219-0.569
	l-0.365-1.328l-0.292-0.715l-0.715-2.364l-0.248-1.153l-0.423-1.123v-0.263l-0.131-0.395l-0.117-0.131l-0.175-0.204l-0.496-1.839
	l-0.073-0.802l-0.394-1.065l-0.379-1.065l-0.131-1.298l0.014-0.073l-0.321-1.152l-0.292-0.891l-0.408-1.386l-0.044-0.306
	l-0.554-1.037l1.343-0.19l2.262-0.19l1.649-0.073l0.934-0.102l3.823-0.233l0.496-0.117l1.05,0.044l0.292,0.058l0.394-0.321
	l0.861-0.292l1.999-0.219l0.204-0.028l1.518-0.175l0.306-0.087l0.598-0.146l0.511,0.014l0.905,0.015l2.262-0.336l1.328-0.175
	l0.263-0.029l0.802-0.175l1.853-0.452l1.766-0.452l0.744-0.905l-0.481-1.196L389.761,46.988"/>
<polygon points="333.246,113.205 332.954,113.045 332.385,113.133 330.517,113.235 328.008,112.695 327.351,112.52 326.68,112.302 
	325.877,112.039 324.024,111.017 323.47,111.032 323.12,111.003 321.762,110.01 320.712,109.427 319.384,108.712 318.246,107.923 
	317.297,106.946 316.626,106.245 315.926,104.991 315.838,104.188 315.123,103.518 314.889,103.21 314.598,102.51 314.554,102.087 
	314.393,101.459 313.883,100.482 313.883,100.366 313.854,100.176 313.795,99.986 313.766,99.797 313.474,99.344 313.416,99.212 
	313.431,97.914 313.445,97.9 312.511,95.419 312.555,95.273 312.643,94.558 312.643,94.28 312.701,93.537 312.73,93.318 
	312.511,92.88 312.38,92.005 312.38,91.727 312.336,91.333 312.351,90.998 313.051,89.83 313.037,89.247 312.891,88.502 
	312.701,86.912 312.176,85.715 311.665,85.526 311.125,85.322 310.045,84.811 307.915,83.877 306.587,83.702 306.339,83.688 
	305.974,83.921 305.566,84.111 305.04,84.461 304.734,85.642 304.223,86.504 304.719,87.978 304.807,88.269 305.201,89.802 
	305.274,90.152 305.361,90.443 305.551,91.61 305.39,93.142 305.274,94.12 305.361,94.515 305.42,94.792 305.916,96.63 
	305.974,96.878 306.339,97.812 306.616,99.096 306.777,99.256 307.098,101.007 307.477,101.708 307.579,101.839 307.93,103.283 
	308.031,103.809 308.367,104.275 308.572,104.86 308.63,105.093 308.732,105.472 308.761,105.633 309.637,106.654 309.987,107.121 
	310.381,107.589 310.556,107.822 310.877,108.158 311.096,108.303 311.504,108.551 312.146,108.974 312.321,109.091 
	313.387,110.682 315.284,112.155 315.415,112.33 315.473,112.403 317.618,113.513 317.866,113.819 319.311,114.49 320.274,114.695 
	321.003,115.264 321.806,115.555 322.448,115.76 322.681,115.861 323.674,115.949 323.849,116.037 324.622,116.357 325.293,116.46 
	325.556,116.489 326.038,116.519 326.942,116.853 327.292,116.971 330.298,116.898 330.313,116.898 330.722,116.942 
	330.824,116.956 331.086,116.971 331.918,116.956 333.494,116.693 333.669,116.547 334.092,114.738 334.048,113.746 "/>
<path d="M334.052,113.732v0.015V113.732z"/>
<path d="M82.441,73.479l-0.511-1.517l-0.044-0.905l0.117-0.992l0.102-0.964l0.015-1.269l-0.058-1.298l-0.073-1.839v-1.24
	l0.073-0.584l-0.044-0.263l-0.117-1.868l-0.204-2.028l-0.029-0.233l-0.146-1.226l0.088-1.167l-0.015-0.306L81.58,55.75l-0.044-0.628
	l0.044-0.19l0.219-0.598l0.029-0.379l-0.292-1.533l-0.088-0.992l0.044-0.554l0.146-1.649l0.044-0.277l0.029-0.117l0.044-1.124
	l0.044-0.86l0.146-1.634l0.015-0.102l-0.146-1.269l-0.131-0.818l0.044-1.328l0.087-0.933l-0.525-1.591l-0.058-1.153l-0.058-1.269
	l-0.073-0.394l-0.175-1.839l-0.015-1.095l-0.277-1.298l-0.014-0.525l-0.029-0.759l-0.409-2.451l-0.306-1.678l-0.146-0.818
	l-0.015-0.102l-0.496-2.379l-0.306-1.007l-0.482-1.488l-0.35-0.832l-0.015-0.028l-0.948-2.626l-0.365-0.847l-0.35-0.759l-0.19-0.467
	l-0.219-0.51l-0.54-0.715l-0.277-0.365l-0.233-0.219l-0.715-0.802l-0.204-0.248l-0.715-0.672l-0.379-0.35l-1.241-0.729l-0.087-0.073
	l-0.131-0.088l-2.203-0.963l-0.817-0.336l-1.211-0.496L66.653,8.43l-0.394-0.102l-0.73-0.233l-1.255-0.701l-0.423-0.175
	l-0.336,0.014l-0.467-0.014L62.771,7.16l-1.065,0.117l-0.438,0.015l-1.05,0.321L59.43,7.832l-0.861,0.102H58.54l-0.92,0.117
	c-2.116,0.598-4.859,1.401-7.908,2.349l-0.802,0.175l-0.029,0.014l-0.729,0.175l-2.787,0.992l-0.044,0.015
	c-1.182,0.423-2.393,0.86-3.736,1.283l-1.225,0.395l-0.788,0.16l-0.233,0.058l-0.657,0.205l-0.715,0.146l-0.073,0.014l-0.73,0.16
	l-0.102,0.088l-2.305,0.656l-0.365,0.219l-0.219,0.102l-1.401,0.468l-0.54,0.408l-0.029,0.132l0.044,0.263l0.788,0.977l0.248,0.175
	l0.292,0.409l1.649,0.671l0.905,0.059l0.292,0.117l0.569,0.059l0.263,0.028l0.058-0.044l0.54-0.248l0.54-0.073l0.948-0.175
	l6.464-2.028l1.474-0.569l0.058-0.029l1.693-0.656l1.036-0.205h0.058l0.657-0.131c3.487-1.095,5.399-1.707,5.662-1.81l1.503-0.496
	l1.211-0.19l0.044-0.014l1.503-0.263l2.904,0.087l0.54,0.059c2.028,0.233,3.75,1.357,4.844,3.137l1.095,1.883l0.117,0.19
	l0.642,1.386l0.408,1.62v0.014l0.234,0.948L71.657,22l0.379,1.328l0.219,1.459l0.146,1.022l0.088,1.328v0.073v0.219l0.467,2.364
	v0.058l0.029,0.395l0.117,0.583l0.131,0.569l0.044,0.35l-0.058,0.861l0.233,2.233l0.015,0.218l0.088,0.541l0.015,0.087l0.102,0.496
	l0.219,1.298l0.307,0.905l0.102,1.518l-0.044,1.722l0.496,2.102l-0.044-0.118l-0.087-0.072l-0.088-0.088l-0.598,0.015l-0.759,0.014
	l-2.583,0.146c-1.766,0.131-2.845,0.204-3.415,0.175l-1.08-0.072l-3.21,0.102L60.86,43.8l-0.219-0.028l-0.54-0.059l-0.861-0.044
	l-2.276,0.087l-1.751,0.088l-2.028,0.014h-0.146l-2.408,0.102l-0.452,0.028l-0.627,0.059h-0.16l-2.16,0.248l-1.269,0.687
	l-0.175,0.117l-0.671,0.554l-0.744,1.284l-0.029,0.087l0.336,0.832l0.306,0.19l0.175,0.102l0.788,0.482l0.671,0.364l0.832,0.233
	l0.642,0.292l1.766,0.146l1.576-0.087l1.094-0.073l1.211-0.045l1.984-0.087l0.92-0.117l1.4-0.175l2.203-0.087l1.445-0.058
	l1.153-0.045l0.963,0.088l0.525,0.044l0.875-0.029l0.803-0.029l2.772-0.204c2.407-0.204,3.765-0.321,4.582-0.292l1.197-0.014v0.277
	l0.131,1.255l-0.336,2.437l0.219,4.334l0.219,0.861l-0.452,2.116v0.744l0.146,1.679l0.204,2.159l-0.088,0.759l-0.044,0.584
	l0.306,2.466l-0.073,0.248l-0.073,0.832l-0.16,1.488l-0.102,0.656l-0.014,0.015l-0.029,0.146l0.161,0.686l0.554,2.611l-0.452,1.241
	l0.248,0.832l-0.233,1.999l-0.219,1.882l-0.277,1.065l-0.029,2.729l-0.015,0.233v1.445l0.044,0.467l0.102,1.503l0.015,0.073
	l-0.277,2.364l-0.16,3.94l-0.131,1.474l0.015,0.656l-0.015,2.364l-0.204,2.203l-0.102,0.759l-0.015,0.059l-0.029,0.175l-0.073,2.948
	l-0.19,0.933l-0.204,1.197l-0.306,1.998l-0.131,1.241v0.029l-0.044,0.219c-0.102,2.889-1.663,4.042-2.976,4.479l-0.102,0.117
	l-1.984,0.978l-0.875,0.059l-2.218,0.481l-1.27-0.117l-1.838-0.175l-0.204-0.029l-0.613-0.073l-0.832-0.19l-0.627-0.117
	l-2.699,0.336l-0.555,0.014l-1.459,0.029l-0.015,0.044l-0.277,1.124l-0.014,0.554l0.758,0.818l0.788,0.423l0.438,0.219l1.109,0.496
	l0.219,0.102l1.43,0.73l0.627,0.145l0.832,0.351l0.146,0.014l0.51-0.014l1.036,0.073l2.218,0.437l0.233,0.059l3.05,0.117
	l0.919-0.088l0.686,0.029h0.058l0.496,0.015l0.613-0.029l0.54-0.044h0.642h0.292l3.443-0.672l0.219-0.029l1.78-1.123l1.094-0.584
	l0.481-0.248l1.036-0.861v-0.014l0.204-0.613l0.058-0.175l0.16-2.145l0.058-0.92l0.044-0.598l0.014-0.102l0.044-0.745l-0.015-0.233
	l0.015-1.984l0.175-1.795l0.277-1.314l0.379-3.152l0.321-4.392l0.015-0.468v-0.058v-0.306l-0.058-0.613l-0.044-2.422l0.219-1.298
	l0.175-1.138v-4.144l-0.073-1.445l0.073-1.314l0.044-0.656l0.131-1.109v-0.059l-0.015-0.729l0.058-0.628v-0.044l0.029-0.233
	l-0.044-1.152l0.146-1.168v-0.058l0.131-1.11l0.029-0.948v-0.044l0.044-1.722l0.19-1.197v-0.028l-0.175-0.774l0.204-0.773
	l0.058-0.146v-0.014v-1.182L82.441,73.479z"/>
<path d="M60.994,77.923l0.656-0.058l1.503-0.131l2.057,0.087l0.963,0.058l2.947-0.19l0.131-0.044l2.32-0.131l0.277-0.073
	l0.802-0.964l0.336-0.963l0.087-1.474l-0.51-0.759l-0.438-0.321l-0.569-0.175l-0.978,0.102l-1.503,0.117l-2.057,0.044l-1.693,0.015
	l-2.262,0.058l-0.409,0.044l-1.372,0.073l-3.517-0.336l-3.006-0.525l-1.941-0.175l-2.437-0.204
	c-2.568-0.263-3.254-0.336-3.604-0.424l-2.714-0.321l-1.357-0.16l-1.766,0.204l-0.423,0.233l-0.175,0.073l-0.146,0.117l-1.547,1.328
	l-0.117,0.336l-0.117,0.35l0.204,0.774l0.015,0.058l0.146,0.16l1.532,0.584l0.146,0.058l0.7,0.278l2.247,0.86l0.729,0.132
	l1.109,0.044c1.547,0,2.947,0.014,4.013,0.51c1.693,0.088,5.413,0.336,9.455,0.715L60.994,77.923"/>
<polygon points="193.422,72.708 193.349,72.504 193.101,71.862 193.174,70.126 193.247,69.469 193.087,68.769 192.926,68.214 
	192.693,67.471 192.27,66.04 192.167,65.938 192.036,65.588 192.036,65.574 191.977,65.442 191.452,64.756 191.015,63.385 
	190.694,62.305 190.46,61.984 189.687,60.349 189.687,60.306 189.657,60.262 189.628,60.233 189.03,59.401 188.68,58.934 
	188.038,57.942 187.965,57.796 187.951,57.767 187.863,57.694 186.564,55.885 185.47,54.732 185.12,54.469 184.901,54.294 
	184.288,53.856 183.354,53.039 182.916,52.645 182.522,52.354 181.661,51.726 181.632,51.712 181.355,51.566 181.296,51.551 
	179.706,50.982 179.414,50.821 178.889,50.588 178.831,50.719 178.845,50.573 177.036,49.596 177.007,49.581 176.963,49.566 
	176.919,49.552 176.686,49.552 175.358,49.304 174.935,48.953 174.906,48.925 174.818,48.896 174.745,48.896 173.855,48.764 
	172.863,48.37 172.177,48.093 171.389,47.947 170.251,47.714 167.055,47.159 164.502,46.605 161.321,46.342 159.964,46.108 
	159.993,45.116 160.299,44.284 160.299,44.139 160.591,42.46 160.606,42.432 160.62,42.3 160.562,40.185 160.577,40.067 
	160.591,38.973 160.883,36.157 160.985,35.822 161.088,35.033 161.043,34.887 160.941,33.793 160.941,33.72 160.898,33.603 
	160.956,31.736 161.058,31.283 161.131,30.597 161.16,29.882 161.131,29.839 160.854,29.212 160.795,29.051 160.737,28.789 
	160.65,28.38 160.431,27.854 160.008,26.512 159.993,26.483 159.978,26.424 159.964,26.38 159.687,25.71 159.672,25.68 
	159.628,25.593 159.409,25.418 159.38,25.388 159.132,25.141 158.621,24.673 158.592,24.659 158.461,24.629 158.417,24.645 
	156.871,24.367 156.841,24.338 156.695,24.309 156.651,24.323 156.33,24.455 156.287,24.483 155.995,24.659 155.951,24.702 
	155.922,24.746 155.893,24.805 155.543,25.578 155.528,25.593 155.499,25.637 155.484,25.68 155.222,26.424 155.207,26.469 
	155.207,26.599 155.222,26.629 155.105,28.277 155.09,28.336 154.974,29.241 154.974,29.269 154.799,30.816 154.681,31.561 
	154.784,32.348 154.799,33.107 154.799,33.166 154.842,34.523 154.828,35.282 154.799,35.442 154.769,36.084 154.769,37.47 
	154.754,37.63 154.448,39.236 154.244,40.199 154.229,40.651 154.302,41.658 154.113,43.219 154.098,43.248 154.083,43.278 
	154.069,43.321 153.894,44.153 153.792,44.591 153.66,45.817 152.829,45.656 152.42,45.495 152.289,45.495 151.778,45.568 
	151.048,45.525 150.45,45.51 148.699,45.364 148.582,45.379 147.853,45.422 147.765,45.452 147.255,45.379 146.117,45.627 
	144.482,45.918 144.409,45.948 144.263,45.977 144.147,46.021 143.038,46.094 142.177,46.254 140.805,46.722 139.098,47.042 
	136.661,48.195 136.457,48.356 135.465,48.953 135.333,49.026 135.26,49.173 135.26,49.216 135.304,49.552 135.363,50.107 
	135.377,50.15 135.435,50.253 135.698,50.719 135.727,50.763 135.815,50.85 136.821,51.959 137.551,52.777 138.12,52.85 
	138.179,52.85 139.536,52.981 139.58,52.996 140.834,52.747 141.272,52.704 142.439,52.674 143.198,52.558 143.694,52.47 
	145.898,52.31 146.175,52.339 146.248,52.324 146.7,52.12 148.028,51.697 149.049,51.609 149.137,51.609 150.8,51.508 
	151.121,51.508 152.128,51.58 152.186,51.58 152.975,51.624 153.237,51.639 153.616,51.682 153.616,52.004 153.573,53.214 
	153.091,54.703 153.077,54.747 153.062,54.834 153.062,54.893 153.077,54.966 153.091,56.717 153.091,56.79 153.077,58.365 
	152.624,61.503 152.624,61.59 152.551,64.509 152.508,64.975 152.551,65.69 152.376,68.39 152.113,68.915 152.099,68.959 
	152.084,69.09 151.982,70.826 151.851,72.898 151.822,73.512 151.778,74.241 151.778,74.285 151.807,74.401 151.865,74.605 
	151.895,74.65 151.924,74.693 151.968,74.737 152.858,76.648 152.945,76.765 154.448,77.713 155.032,77.86 155.192,77.874 
	155.338,77.786 155.645,77.83 155.747,77.903 155.937,77.918 155.98,77.918 156.33,77.991 156.36,78.006 156.403,78.006 
	156.491,77.976 156.52,77.947 156.929,77.656 156.958,77.626 156.987,77.583 157.002,77.567 157.104,77.261 157.571,76.196 
	157.702,76.021 158.184,74.927 158.461,72.504 158.592,71.819 158.65,71.571 158.578,69.645 158.65,68.564 158.826,67.981 
	158.826,67.952 158.84,67.645 159.132,65.559 159.146,65.515 159.307,64.655 159.322,63.4 159.322,61.867 159.366,61.693 
	159.716,58.745 159.716,58.686 159.789,57.855 159.978,55.272 159.993,55.14 159.905,53.769 159.978,53.156 160.183,52.412 
	160.431,52.514 160.679,52.616 160.781,52.616 161.627,52.528 162.619,52.85 162.853,52.923 163.408,52.981 164.37,53.069 
	166.37,53.287 167.522,53.273 167.595,53.273 171.199,53.739 171.724,54.017 172.264,54.236 173.782,54.644 174.19,54.79 
	174.949,55.184 175.154,55.301 175.898,55.87 175.941,55.899 175.985,55.929 176.029,55.943 176.51,56.031 177.021,56.235 
	180.056,58.424 180.158,58.526 180.582,58.993 182.026,60.977 182.041,61.021 182.055,61.05 182.085,61.079 182.741,62.027 
	182.77,62.072 182.814,62.1 182.872,62.13 184.142,62.947 184.448,63.604 184.886,65.179 185.47,67.485 185.558,67.704 
	185.718,68.098 185.733,68.113 185.761,68.156 185.791,68.185 186.243,69.718 186.258,69.761 186.36,70.214 186.593,71.192 
	186.637,71.819 186.564,73.132 186.55,73.249 186.506,73.686 186.17,74.927 186.156,74.97 186.127,75.101 185.922,76.109 
	185.806,76.429 185.761,76.546 185.761,76.648 185.688,77.553 185.382,78.487 185.222,78.881 185.222,78.925 185.061,79.873 
	184.944,81.201 184.784,82.266 184.653,82.426 184.638,82.456 184.58,82.587 184.288,83.959 184.244,84.149 183.909,85.681 
	183.471,86.424 183.354,86.643 182.931,88.103 181.997,90.759 181.676,91.503 181.53,92.014 181.209,93.034 178.787,94.435 
	178.086,94.289 178.013,94.289 177.007,94.392 176.963,94.377 176.846,94.421 176.758,94.421 176.35,94.377 176.292,94.362 
	176.131,94.435 176.102,94.479 175.664,95.311 175.343,95.996 175.329,96.113 175.329,96.639 175.343,96.712 175.416,97.223 
	175.431,97.296 175.475,97.383 175.591,97.646 175.621,97.69 176,98.346 176.073,98.433 176.7,99.032 177.226,99.557 
	178.582,100.229 179.196,100.564 179.925,101.002 180.567,101.367 180.961,101.571 181.02,101.585 182.245,101.819 182.61,101.95 
	182.624,101.95 182.654,101.95 183.325,101.936 183.456,101.863 184.04,101.44 184.142,101.381 184.215,101.308 184.303,101.104 
	185.207,100.286 185.309,100.257 185.382,100.213 186.302,99.047 186.331,99.017 186.36,98.93 186.36,98.886 186.433,98.667 
	186.798,97.719 187.206,97.193 187.235,97.164 187.294,97.062 187.892,95.486 188.14,94.8 188.271,94.392 188.724,93.297 
	188.724,93.269 188.782,93.02 189.409,91.649 189.439,91.605 189.453,91.561 189.468,91.517 189.964,89.766 190.431,88.657 
	190.723,87.329 190.752,87.213 190.869,86.659 191.175,86.074 191.219,85.928 191.263,85.374 191.438,84.762 191.554,84.382 
	191.802,83.419 191.934,82.894 192.095,82.207 192.095,82.135 192.05,81.989 192.095,80.705 192.05,80.545 192.123,80.223 
	192.167,80.18 192.182,80.049 192.313,78.837 192.634,78.356 192.664,78.225 192.897,77.13 192.97,77.043 192.999,76.911 
	192.926,76.824 192.897,76.429 193.043,75.437 193.087,75.174 193.174,74.431 193.189,74.358 193.276,73.774 193.378,73.395 
	193.422,73.146 193.437,72.854 193.422,72.738 "/>
<polygon points="245.484,85.077 245.454,84.319 245.411,84.187 245.133,83.355 245.133,83.326 245.089,83.224 245.031,83.151 
	244.958,83.093 244.097,82.393 243.878,82.174 243.251,81.371 242.973,80.831 242.886,80.685 242.857,80.642 240.785,77.957 
	240.289,77.241 239.413,75.841 238.727,74.907 238.144,74.192 237.954,73.988 237.502,73.419 237.122,72.821 237.064,72.747 
	236.757,72.281 236.582,71.931 236.057,71.274 234.978,69.902 234.336,68.939 233.912,68.268 233.329,67.582 233.037,67.232 
	231.869,65.539 230.921,64.138 229.185,61.906 228.397,60.826 227.988,60.345 227.93,60.272 227.302,59.484 226.821,58.696 
	226.325,57.952 225.23,56.142 224.909,55.515 224.413,54.785 224.165,54.449 223.523,53.384 223.071,52.625 222.823,52.217 
	222.72,52.042 222.195,51.517 222.151,51.473 221.539,50.86 221.159,50.233 220.984,49.912 220.736,49.518 220.109,48.759 
	219.35,47.825 218.562,46.468 218.547,46.439 218.197,45.797 217.818,44.965 217.672,44.6 217.424,44.192 215.862,41.93 
	215.045,40.077 215.045,40.033 214.987,39.917 214.579,39.391 213.966,38.531 213.63,37.772 213.47,37.348 213.44,37.348 
	213.411,37.32 213.397,37.304 212.769,36.21 212.229,35.437 211.835,35.014 210.989,34.095 210.639,33.745 210.566,33.7 
	210.04,33.526 209.939,33.496 209.486,33.453 208.45,33 208.085,32.825 207.794,32.737 207.735,32.708 207.093,32.577 
	205.575,32.68 205.532,32.68 205.386,32.767 205.357,32.81 204.948,33.496 204.685,33.788 204.583,33.905 204.554,33.992 
	204.321,34.707 204.306,34.751 204.291,34.897 204.321,34.927 204.481,35.247 204.656,35.86 204.744,36.108 205.211,36.911 
	205.78,37.947 205.911,38.895 205.955,39.012 205.97,39.027 206.903,40.471 206.932,40.515 206.976,40.559 207.005,40.588 
	207.72,41.332 208.713,43.112 209.705,44.819 210.624,46.424 211.179,47.285 212.667,49.299 213.119,49.941 213.163,50.028 
	213.353,50.378 213.484,50.627 213.922,51.109 214.9,52.364 216.373,54.421 216.417,54.479 216.972,55.194 217.395,56.551 
	217.409,56.711 217.438,56.784 217.599,56.96 218.285,57.98 218.693,58.389 219.394,59.338 219.467,59.571 219.481,59.586 
	219.54,59.688 221.276,61.994 221.334,62.037 221.831,62.636 222.677,63.788 223.771,65.276 224.501,66.167 225.055,67.013 
	225.245,67.524 225.289,67.596 226.646,69.246 226.923,69.538 227.433,70.092 229.039,72.208 229.243,72.485 229.593,73.141 
	229.71,73.097 229.608,73.186 229.71,73.273 229.87,73.609 229.87,73.623 229.929,73.74 230.41,74.352 230.556,74.674 
	230.585,74.702 230.746,74.892 231.286,75.491 232.512,77.592 232.555,77.68 232.672,77.753 232.687,77.753 232.833,77.899 
	233.445,78.876 233.46,78.919 233.62,79.182 234.043,79.839 234.058,79.854 234.087,79.897 234.116,79.912 234.321,80.014 
	235.649,81.342 236.656,82.962 238.348,84.683 238.479,84.786 239.136,85.456 239.53,85.865 239.618,85.909 239.982,86.128 
	240.61,86.712 240.668,86.784 240.77,86.829 241.004,86.857 241.996,87.062 242.784,87.514 242.813,87.543 242.901,87.572 
	242.944,87.572 242.988,87.558 243.28,87.47 244.929,87.018 244.987,86.974 245.031,86.916 245.06,86.843 245.527,86.025 
	245.571,85.924 245.484,85.106 "/>
<polygon points="229.16,35.203 229.146,36.211 229.291,37.655 229.335,37.976 229.408,39.027 229.35,39.363 229.364,39.932 
	229.394,40.267 229.423,40.748 229.408,41.201 229.408,41.39 229.437,41.537 229.569,41.507 229.437,41.58 229.51,42.281 
	229.525,42.354 229.656,43.025 229.7,43.755 229.758,44.484 229.773,44.528 230.138,46.25 230.269,47.052 230.59,47.884 
	230.75,48.526 230.78,48.599 230.809,48.658 231.057,48.92 231.071,48.949 231.203,49.008 233.085,49.182 233.318,49.241 
	233.363,49.255 233.421,49.241 233.815,49.182 235.026,48.759 235.186,48.658 235.318,48.585 235.376,48.512 236.222,47.68 
	236.266,47.665 236.325,47.504 236.295,47.447 236.179,46.789 235.989,46.147 235.872,45.155 235.858,45.024 235.77,44.703 
	235.638,43.726 235.624,43.667 235.508,43.346 235.376,42.85 235.303,40.837 235.361,40.53 235.361,40.428 235.332,39.698 
	235.347,39.64 235.318,39.509 235.303,39.465 235.201,38.969 235.26,37.699 235.274,37.378 234.792,35.335 234.442,34.474 
	234.398,34.328 234.355,34.256 233.99,33.73 233.012,32.359 232.983,32.314 232.939,32.213 232.866,32.154 232.647,32.067 
	232.545,32.067 232.516,32.081 232.122,32.213 232.049,32.242 230.619,32.33 230.59,32.314 230.444,32.33 230.094,32.549 
	229.539,32.942 229.379,33.045 229.335,33.073 229.306,33.088 229.277,33.132 228.999,33.788 229.014,33.934 "/>
<polygon points="253.306,44.323 253.277,43.799 253.233,43.419 253.277,42.325 253.262,42.222 253.306,40.938 253.306,40.807 
	253.116,39.961 253.043,39.041 253.029,38.531 252.664,35.335 252.503,34.256 252.445,34.168 251.817,33.482 251.409,32.373 
	251.321,32.11 251.278,32.053 250.475,30.739 250.461,30.666 250.286,30.579 250.227,30.593 248.111,30.52 248.068,30.52 
	247.965,30.549 247.936,30.593 247.527,30.637 247.425,30.695 247.221,30.972 246.827,31.337 246.798,31.352 246.74,31.483 
	246.754,31.512 246.623,32.46 246.638,32.592 246.798,33.715 246.827,33.847 246.973,35.015 246.958,35.116 247.104,36.094 
	247.236,38.428 247.236,38.531 247.309,40.428 247.324,40.544 247.425,41.04 247.425,41.303 247.367,42.412 247.411,42.529 
	247.6,43.346 247.527,43.609 247.513,43.667 247.527,43.726 247.542,43.813 247.572,43.872 248.141,45.17 248.141,45.33 
	248.141,45.389 248.257,45.55 248.33,45.55 249.147,45.914 249.497,46.22 250.388,47.052 250.417,47.067 250.534,47.111 
	250.548,47.111 250.592,47.081 251.438,47.038 252.255,46.848 252.299,46.804 252.328,46.761 252.358,46.716 253.145,45.651 
	253.189,45.607 253.233,45.564 253.247,45.506 253.32,45.257 253.437,44.951 253.423,44.834 "/>
<path fill-rule="evenodd" clip-rule="evenodd" d="M528.584,147.314l2.378,0.409l0.044,0.102h0.102l0.161,0.204l0.146,0.044
	l-0.817,1.722v-0.044l-0.248-0.059v-0.044h-0.102l-0.044-0.087h-0.102l-0.204-0.263h-0.102l-0.204-0.248h-0.102l-0.102-0.16h-0.102
	l-0.044-0.102l-0.204-0.044v-0.058l-0.306-0.102v-0.059h-0.146v-0.044l-0.467-0.044v-0.044l-0.963,0.087v0.044l-0.204,0.059v0.044
	h-0.087l-0.058,0.117h-0.102l-0.204,0.248l-0.204,0.145v0.102l-0.102,0.059l-0.044,0.204l-0.102,0.059v0.087h-0.058v0.102h-0.044
	v0.145h-0.058v0.118h-0.044v0.145h-0.058v0.146h-0.044v0.16h-0.058v0.205h-0.044v0.204h-0.044v0.248h-0.058v0.263h-0.044v0.291
	h-0.058l-0.058,0.861h-0.044v0.715v2.276v0.204h0.044v0.102h0.058v0.102l0.161,0.102v0.044h0.087v0.059h0.102v0.058h0.16v0.045
	h0.657l1.372,0.058h0.452v0.044l0.263,0.044l0.19,0.554l-0.35,0.365h-0.204l-1.517,0.044h-0.467v0.058h-0.394l-0.35,0.146
	l-0.263,0.35v0.219h-0.044v1.722v3.896l0.146,2.189h0.058v0.102l0.102,0.029v0.102h0.044l0.146,0.219h0.102l0.058,0.102h0.102v0.044
	h0.102v0.058h0.146v0.044h0.16v0.044l0.35,0.16h0.058v0.204l-0.161,0.044v0.058h-0.248l-1.08,0.044l-1.109,0.058l-2.233-0.161
	l-0.087-0.146l0.044-0.16l0.102-0.102h0.102v-0.044h0.102l0.044-0.102l0.306-0.102l0.044-0.102l0.306-0.263l0.058-0.19h0.044v-0.16
	l0.146-1.664v-3.458v-1.722l-0.044-0.905h-0.044l-0.059-0.204l-0.35-0.306h-0.102v-0.044H522.5v-0.058h-0.16v-0.044l-0.248-0.204
	h-0.058v-0.204l0.307-0.365h0.102l0.058-0.102h0.102l0.088-0.131h0.102l0.161-0.219h0.044v-0.102l0.102-0.045v-0.102h0.059v-0.146
	l0.204-1.532v-0.496h0.044v-0.365h0.058v-0.306h0.044v-0.248h0.044v-0.204h0.058v-0.248h0.044l0.058-0.35h0.058v-0.16h0.044
	l0.044-0.35h0.058v-0.102h0.044l0.058-0.306h0.044l0.058-0.204h0.044v-0.102h0.058v-0.146h0.044v-0.102h0.058v-0.117l0.102-0.044
	l0.088-0.291l0.117-0.059v-0.102h0.044l0.059-0.16l0.087-0.044v-0.087l0.219-0.161l1.766-1.532l1.167-0.452L528.584,147.314
	 M226.335,167.086h-4.509l-0.044-0.306l0.146-0.102v-0.044l0.204-0.044l0.058-0.102h0.087l0.058-0.102h0.102l0.044-0.117
	l0.204-0.146v-0.087l0.102-0.058v-0.102h0.058v-0.16h0.044v-0.204h0.044v-0.511l0.058-1.766v-2.116l-0.058-1.167v-0.525h-0.044
	v-0.248h-0.044v-0.204h-0.058l-0.044-0.292h-0.058l-0.102-0.321h-0.044v-0.102l-0.102-0.044v-0.087l-0.161-0.102v-0.117
	l-0.204-0.146v-0.058h-0.102l-0.087-0.146h-0.102l-0.058-0.102h-0.102v-0.044l-0.204-0.058v-0.044l-0.306-0.059v-0.044l-0.657-0.058
	l-0.452-0.044v0.044h-0.452v0.058h-0.204v0.044h-0.204v0.059l-0.306,0.044v0.058l-0.204,0.044v0.058h-0.102l-0.044,0.088h-0.102
	l-0.306,0.365l-0.204,0.161v0.087l-0.102,0.044l-0.058,0.219h-0.044v0.102h-0.044v0.19l-0.102,1.78v3.502l0.146,1.664v0.16h0.044
	l0.058,0.19l0.306,0.263l0.044,0.102l0.204,0.058l0.058,0.102l0.204,0.044v0.044l0.146,0.102l0.058,0.102v0.058h-0.058l-0.102,0.146
	l-0.802,0.102l-1.167,0.058l-2.437-0.161l-0.058-0.248l0.161-0.117v-0.044l0.204-0.044v-0.044h0.102v-0.058h0.102v-0.044h0.102
	l0.044-0.102h0.102l0.161-0.219h0.044v-0.102l0.102-0.029v-0.102h0.044v-0.16l0.16-3.385v-8.025v-3.794l-0.306-0.919l-0.204-0.146
	v-0.102l-0.306-0.263v-0.087l-0.102-0.058v-0.365l0.058-0.102l0.204-0.131v-0.059h0.102v-0.044l0.204-0.058v-0.059h0.146v-0.044
	h0.146v-0.059h0.117v-0.044l0.292-0.058v-0.044h0.102v-0.059h0.161v-0.044h0.087v-0.044l0.263-0.059v-0.044h0.146v-0.058h0.715
	l0.102,0.16h0.044l0.102,1.313l-0.044,1.679v3.283v1.678l0.044,0.802h0.058l0.248,0.321l0.452,0.044v-0.044h0.161v-0.058h0.102
	v-0.044h0.102l0.044-0.102h0.102l0.102-0.117h0.102v-0.044h0.102v-0.059h0.102v-0.044l0.306-0.087v-0.058l0.292-0.045l2.437-0.218
	h0.263v0.058h0.204v0.044h0.146v0.059h0.16v0.058h0.102v0.045h0.087v0.058h0.102l0.102,0.087h0.102l0.058,0.102h0.102l0.087,0.16
	h0.102l0.058,0.102l0.248,0.19v0.102l0.16,0.102v0.102l0.102,0.059l0.044,0.204h0.058l0.102,0.292h0.044l0.102,0.452h0.058v0.263
	l0.102,0.817v0.452l0.044,1.109v2.043v2.422h0.044v0.248h0.058v0.204h0.044v0.117h0.059v0.102l0.102,0.029v0.102l0.204,0.16v0.058
	h0.087l0.058,0.102h0.102v0.044l0.204,0.058v0.044h0.161v0.044l0.248,0.306L226.335,167.086 M423.263,147.577l0.554,0.045
	l0.102,0.16h0.058v0.087h0.059l0.044,1.022h-0.044v1.328v3.692l0.087,2.393l0.306,0.233l0.306,0.058l1.416-0.554h0.263l2.028-0.058
	h0.292l2.801,1.721l0.19,0.161v0.102l0.161,0.102v0.102l0.102,0.044l0.044,0.204l0.102,0.058l0.408,0.948v0.16l0.248,1.868v0.715
	h-0.044v0.35h-0.058v0.263h-0.044v0.204h-0.044v0.19h-0.058v0.219h-0.044v0.146h-0.058v0.102h-0.058v0.146h-0.044v0.16h-0.044
	l-0.102,0.292h-0.058v0.102h-0.044l-0.102,0.321l-0.102,0.044v0.102l-0.102,0.044v0.102h-0.058l-0.044,0.16l-0.102,0.044v0.102
	l-0.248,0.204v0.102l-0.365,0.306l-0.102,0.161h-0.088l-0.219,0.233l-0.146,0.058l-0.044,0.102h-0.102l-0.058,0.102l-0.204,0.058
	l-0.044,0.088l-0.306,0.102v0.058h-0.102v0.044l-0.306,0.102v0.058l-0.292,0.044v0.058h-0.117v0.044h-0.19v0.058h-0.16v0.044h-0.204
	v0.044h-0.248v0.058h-0.263v0.044h-0.306l-1.459,0.102h-0.554v-0.044h-0.365v-0.058h-0.306v-0.044h-0.19v-0.058h-0.204v-0.044
	h-0.204v-0.044h-0.146v-0.058l-0.365-0.044v-0.058h-0.16v-0.044h-0.248v-0.058l-1.168-0.263l-0.102-1.255v-3.443v-11.308h-0.044
	v-0.409l-0.204-0.554l-0.7-1.065l0.19-0.292h0.117l0.044-0.102h0.102v-0.058h0.102v-0.059h0.146v-0.044h0.16v-0.059h0.088v-0.044
	l0.467-0.102v-0.059h0.102v-0.044l0.306-0.044v-0.059h0.088v-0.044l0.306-0.058V147.577z M555.389,167.086l-0.044-0.248l0.19-0.16
	v-0.044l0.204-0.044v-0.058l0.204-0.044l0.058-0.102h0.102l0.044-0.117l0.204-0.146v-0.087h0.044l0.058-0.219h0.058v-0.146h0.044
	v-0.248h0.058v-0.817l0.044-2.379v-7.908v-2.087l-0.044-1.109v-0.715h-0.058v-0.248h-0.044v-0.145h-0.058l-0.058-0.219h-0.044
	v-0.102l-0.102-0.044v-0.087l-0.146-0.117l-0.409-0.818l0.044-0.102l0.16-0.087v-0.044h0.102l0.044-0.102l0.262-0.058v-0.059h0.088
	v-0.044h0.161v-0.059h0.146v-0.044h0.102v-0.058l0.306-0.044v-0.059h0.102v-0.044h0.161v-0.044h0.102v-0.059l0.292-0.044v-0.058
	h0.161v-0.045l0.656,0.205l0.102,1.518v0.656h-0.058v3.035v8.521v2.13l0.058,1.167v0.613h0.058v0.248h0.044v0.146h0.044l0.102,0.306
	l0.204,0.146l0.059,0.117h0.102l0.044,0.102h0.102v0.044h0.102l0.102,0.102h0.102l0.044,0.088l0.16,0.058v0.263l-0.16,0.044
	l-0.861,0.102l-1.168,0.058L555.389,167.086 M511.191,149.897l1.415,0.774h0.058v0.102h0.044v0.189h0.058l-0.058,0.818h-0.044v0.102
	h-0.058l-0.044,0.204l-0.263,0.204l-0.044,0.102h-0.102l-0.058,0.102h-0.146v0.044h-0.102v0.059H511.6v0.058l-0.613-0.117h-0.16
	v-0.044h-0.088v-0.059h-0.102l-0.102-0.146h-0.102l-0.306-1.517h0.044l0.102-0.307l0.263-0.204l0.044-0.102h0.102l0.058-0.102
	L511.191,149.897 M206.564,166.386v0.248h-0.044l-0.817,0.613v0.044l-0.19,0.044v0.058l-0.365,0.044l-1.722,0.058l-0.452-0.058
	v-0.044h-0.102v-0.058h-0.146v-0.044h-0.117v-0.044h-0.102l-0.044-0.102h-0.102l-0.044-0.102h-0.117l-0.044-0.102l-0.248-0.219
	c-0.583-0.802-0.569-1.839-0.569-3.225v-5.136h-0.044v-0.336h-0.044l-0.058-0.263l-0.248-0.248h-0.102l-0.511-0.306v-0.102h-0.044
	l0.146-0.409h0.102l0.102-0.16l0.204-0.044v-0.059h0.102l0.044-0.087l0.204-0.044l0.058-0.102h0.087l0.058-0.117h0.102l0.817-0.86
	v-0.102l0.496-0.452l0.365,0.044l0.044,0.16h0.058v0.102h0.044l0.146,0.861l0.117,0.044l0.044,0.16h0.102l0.044,0.102l0.262,0.058
	v0.045h0.7l1.328,0.058h0.452l0.35,0.131l0.161,0.555l-0.058,0.117l-0.452,0.248h-2.087v0.058h-0.394l-0.35,0.146l-0.263,0.35v0.161
	h-0.044v0.554h-0.058v2.889l0.058,1.62l0.044,1.109v0.365l0.306,0.904l0.102,0.058v0.102l0.146,0.102l0.058,0.16h0.102l0.146,0.19
	h0.102v0.044l0.204,0.058v0.044h0.146v0.058h0.204v0.058h0.467v0.044l0.146-0.044h0.452H206.564 M501.356,166.386v0.248h-0.044
	l-0.817,0.613v0.044l-0.204,0.044v0.058l-0.35,0.044l-1.722,0.058l-0.467-0.058v-0.044h-0.087v-0.058h-0.161v-0.044h-0.102v-0.044
	H497.3l-0.044-0.102h-0.102l-0.058-0.102h-0.102l-0.044-0.102l-0.263-0.219c-0.554-0.788-0.554-1.853-0.554-3.225v-5.18h-0.044
	v-0.292h-0.058l-0.044-0.263l-0.263-0.248h-0.102l-0.496-0.306v-0.102h-0.058l0.161-0.409h0.087l0.058-0.102h0.102l0.058-0.102
	l0.306-0.102l0.044-0.087h0.102v-0.058l0.146-0.045l0.044-0.117h0.117l0.19-0.248l0.16-0.059v-0.087l0.306-0.263v-0.102l0.146-0.102
	v-0.102l0.511-0.452l0.35,0.044l0.044,0.16h0.058v0.102h0.058l0.146,0.861l0.102,0.044l0.044,0.16h0.117l0.044,0.102l0.248,0.058
	v0.045h0.715l1.313,0.058h0.467l0.35,0.131l0.146,0.555l-0.044,0.117l-0.452,0.248h-2.087v0.058h-0.408l-0.35,0.146l-0.248,0.35
	v0.161h-0.058v0.554h-0.044v2.889l0.044,1.62l0.058,1.109v0.365l0.306,0.904l0.088,0.058v0.102l0.16,0.102l0.044,0.16h0.102
	l0.16,0.19h0.102v0.044l0.204,0.058v0.044h0.146v0.058h0.204v0.058h0.452v0.044l0.16-0.044h0.452H501.356 M266.374,155.778
	l0.365,0.059l0.248,0.364v0.19h0.058v0.204h0.044l0.306,0.35l0.817-0.087l0.044-0.102l0.204-0.058l0.044-0.102l0.219-0.058v-0.044
	h0.088v-0.059l0.306-0.087v-0.044h0.16v-0.058h0.102v-0.045l0.452-0.117v-0.044h0.204v-0.058h0.248v-0.045h0.409v-0.058h0.759v0.058
	h0.365v0.045l0.394,0.058v0.044h0.16v0.059l0.306,0.102v0.058h0.088v0.044l0.16,0.044l0.044,0.102h0.102l0.204,0.262h0.102
	l0.35,0.394h0.102l0.058,0.102h0.102v0.059h0.146l0.511,0.044l0.963-0.496l0.044-0.102l0.306-0.102l0.058-0.117l0.204-0.044v-0.059
	l0.19-0.044v-0.044h0.16v-0.044h0.102v-0.058h0.146v-0.045h0.102v-0.058h0.16v-0.059h0.204v-0.044h0.204v-0.058h0.248l1.109-0.102
	v0.058h0.408v0.045h0.204v0.058l0.35,0.044v0.059h0.102v0.058h0.102v0.045h0.102v0.058h0.102l0.102,0.087h0.102l0.102,0.146h0.102
	l0.102,0.16l0.35,0.292v0.117l0.102,0.044v0.102l0.102,0.059l0.044,0.204h0.058l0.102,0.292h0.044v0.16l0.263,2.116v3.313v1.663
	h0.044v0.452h0.044v0.204h0.058v0.16h0.058v0.102l0.102,0.058v0.087l0.19,0.146l0.058,0.117l0.759,0.657l-0.146,0.044l-0.861,0.102
	l-1.123,0.058l-2.072-0.058v-0.044l-0.263-0.058l-0.044-0.306l0.146-0.102v-0.044h0.102l0.058-0.102h0.102l0.044-0.102h0.102
	l0.102-0.161h0.102l0.058-0.146l0.146-0.087v-0.102h0.044l0.16-3.093v-2.145l-0.058-1.168v-0.35h-0.044v-0.204h-0.058v-0.204
	l-0.905-1.211l-0.306-0.102v-0.044h-0.102v-0.058l-0.306-0.044v-0.059h-0.248v-0.044h-0.511v-0.058h-0.248v0.058h-0.511v0.044
	h-0.248v0.059h-0.204v0.044l-0.306,0.058v0.044l-0.204,0.058v0.044h-0.102l-0.044,0.102h-0.117l-0.146,0.204l-0.146,0.102v0.102
	l-0.102,0.058l-0.35,0.7v0.248l-0.102,1.43v3.035l0.044,1.517l0.058,0.657h0.044v0.16h0.044v0.102l0.102,0.058v0.087l0.102,0.044
	l0.204,0.263h0.102v0.058h0.102l0.044,0.102h0.117v0.044l0.292,0.35l-0.292,0.204h-0.671l-1.109,0.058l-2.072-0.058v-0.044
	l-0.263-0.058l-0.044-0.306l0.146-0.102v-0.044h0.102l0.058-0.102h0.087l0.058-0.102h0.102l0.102-0.161h0.102l0.044-0.146
	l0.146-0.087v-0.102h0.059v-0.16l0.16-3.385l-0.263-3.867h-0.044l-0.058-0.204l-0.102-0.059v-0.087l-0.087-0.044v-0.102
	l-0.263-0.219l-0.102-0.146h-0.102l-0.044-0.102L271,157.456v-0.044h-0.102v-0.058l-0.306-0.044v-0.059h-0.263v-0.044h-0.496
	l-0.146-0.058v0.058h-0.613v0.044l-0.613,0.102v0.058l-0.204,0.044v0.058l-0.204,0.044l-0.102,0.146h-0.087v0.058l-0.219,0.146
	v0.117l-0.19,0.146v0.087l-0.102,0.059v0.102l-0.102,0.058v0.146h-0.058v0.102h-0.044v0.146h-0.058l-0.044,0.613l-0.058,1.109v2.087
	l0.058,2.378l0.044,0.657h0.058v0.102h0.044v0.161l0.102,0.058v0.087l0.204,0.146l0.059,0.117l0.598,0.657l-0.102,0.044l-0.7,0.102
	l-1.123,0.058h-1.459v-0.058h-0.773v-0.044h-0.19l-0.16-0.263h0.044l0.409-0.292v-0.058h0.117v-0.044l0.146-0.058l0.044-0.102h0.102
	l0.306-0.394v-0.16h0.044v-0.16h0.059v-0.248h0.044v-6.741l-0.292-0.759l-0.204-0.161v-0.102l-0.161-0.088l-0.087-0.525l0.292-0.336
	l0.306-0.117v-0.044h0.102v-0.059h0.102v-0.044h0.102v-0.044l0.306-0.102v-0.045h0.146v-0.058h0.102v-0.059h0.102v-0.044h0.102
	v-0.058l0.306-0.102v-0.044h0.19V155.778z M332.737,155.88l0.044,0.16h0.059l0.058,0.306h0.044v0.248h0.044v0.102h0.058v0.102
	l0.306,0.248l0.7-0.102v-0.044h0.102l0.058-0.102l0.204-0.044l0.044-0.102l0.306-0.117v-0.044h0.102v-0.059h0.102v-0.044
	l0.306-0.087v-0.058h0.146v-0.045h0.161v-0.058h0.146v-0.059h0.146v-0.044h0.263v-0.058h0.19v-0.045h0.409v-0.058l1.372,0.16
	l0.35,0.044v0.059h0.117v0.058h0.102v0.045h0.087l0.102,0.102h0.102l0.058,0.087h0.102l0.102,0.161h0.088l0.058,0.102l0.248,0.204
	v0.088l0.16,0.117v0.102l0.102,0.044l0.102,0.307h0.044v0.102h0.058l0.248,0.919v0.496l0.058,1.576v3.035l0.248,2.378l0.307,0.263
	l0.044,0.102l0.204,0.058l0.058,0.102h0.102v0.044h0.088v0.044l0.16,0.044v0.365l-2.378,0.161l-1.168-0.058l-0.919-0.307h0.044
	l0.569-0.452l0.044-0.102l0.306-0.263l0.102-0.292h0.058v-0.204l0.102-2.845c0-1.342,0.16-3.414-0.307-4.304l-0.102-0.058
	l-0.058-0.19l-0.146-0.102v-0.102l-0.204-0.16v-0.044h-0.102l-0.102-0.16h-0.102l-0.058-0.088l-0.19-0.058v-0.044h-0.146v-0.058
	h-0.117v-0.044h-0.19v-0.059l-1.124-0.102v0.058h-0.51v0.044h-0.248v0.059h-0.204v0.044h-0.146v0.058h-0.16v0.044h-0.102
	l-0.598,0.569v0.102l-0.161,0.087l-0.058,0.204h-0.044l-0.102,0.306h-0.044v0.146h-0.058v0.263h-0.044v0.496l-0.044,1.372v2.641
	l0.087,1.78v0.248h0.058v0.146h0.044v0.117l0.306,0.394h0.102l0.102,0.161l0.511,0.496l-0.16,0.16l-0.715,0.044l-1.518,0.058
	l-1.05-0.058h-0.715v-0.044l-0.262-0.058v-0.365l0.16-0.044l0.044-0.088l0.307-0.102l0.058-0.102h0.102l0.044-0.117l0.204-0.146
	l0.102-0.306h0.059v-0.146h0.044v-0.248h0.044v-0.92l0.058-1.167v-2.218l-0.058-2.539l-0.306-0.715l-0.146-0.102v-0.102
	l-0.146-0.102l-0.161-0.511h0.058v-0.146h0.044v-0.044l0.16-0.102v-0.058h0.102l0.044-0.102l0.204-0.058v-0.044h0.102v-0.059
	l0.306-0.087v-0.044h0.146l1.269-0.525L332.737,155.88 M513.774,167.086l-2.335,0.161l-1.109-0.058l-1.021-0.35l0.058-0.117h0.102
	l0.554-0.336l0.058-0.117l0.19-0.146v-0.087l0.102-0.058v-0.161h0.058v-0.102h0.044l0.058-0.861l0.044-1.459v-2.845l-0.044-2.028
	h-0.058v-0.204h-0.044l-0.102-0.292h-0.058v-0.117l-0.146-0.102v-0.102l-0.204-0.146l-0.102-0.409h-0.044l0.044-0.204h0.044v-0.087
	l0.16-0.102v-0.058h0.102l0.044-0.102l0.875-0.35l1.255-0.468l0.204,0.205l0.102,0.51h0.058l-0.058,0.496v1.43v0.306h-0.044v4.45
	l0.044,2.189h0.058v0.306h0.044v0.146h0.058v0.117h0.044v0.102l0.102,0.029v0.102h0.044l0.16,0.219h0.102l0.044,0.102h0.102v0.044
	h0.102v0.058h0.102l0.058,0.088l0.146,0.044v0.117h0.044v0.146L513.774,167.086 M165.664,166.488v0.394l-0.248,0.204v0.058h-0.102
	l-0.058,0.102h-0.102l-1.664,0.248h-0.204v-0.058h-0.16v-0.044l-0.19-0.058v-0.044l-0.219-0.044l-0.044-0.102h-0.102l-0.102-0.16
	h-0.102l-0.146-0.204h-0.102l-0.102-0.146l-0.248-0.044l-0.569-0.102v0.044l-0.307,0.058l-0.044,0.088h-0.102l-0.044,0.102h-0.117
	l-0.044,0.102h-0.102l-0.044,0.102l-0.204,0.058l-0.058,0.102h-0.102v0.044l-0.306,0.102v0.044h-0.146v0.058h-0.102v0.044
	l-0.409,0.058v0.044l-0.758,0.058v-0.058h-0.409v-0.044h-0.19v-0.058h-0.16v-0.044h-0.146v-0.058h-0.161v-0.044h-0.087l-0.058-0.102
	l-0.204-0.044l-0.102-0.16h-0.102l-0.058-0.102l-0.248-0.204v-0.088l-0.087-0.058v-0.102l-0.117-0.044l-0.102-0.321h-0.044v-0.087
	h-0.044v-0.161l-0.102-1.05v-0.263c0.54-1.649,2.67-1.809,4.202-2.48h0.161v-0.058h0.087v-0.044h0.161l1.313-0.963l0.102-1.43
	l-0.35-1.766l-0.161-0.102v-0.102l-0.204-0.146v-0.058h-0.088l-0.058-0.102h-0.102l-0.059-0.102h-0.087v-0.044l-0.306-0.058v-0.058
	h-0.161v-0.044l-0.861-0.044v0.044h-0.306l-1.05,1.08v0.19h-0.059v0.146h-0.044v0.219h-0.058v0.102h-0.058v0.146l-0.088,0.044v0.102
	l-0.16,0.102l-1.27,0.452l-0.306-0.292h-0.044l0.044-0.613l0.773-0.92l0.087-0.146h0.102l0.117-0.146h0.087l0.102-0.161h0.102
	l0.058-0.102l0.306-0.102l0.044-0.102h0.102v-0.044l0.204-0.044v-0.058h0.146v-0.044l0.204-0.058v-0.044h0.102v-0.058h0.102v-0.058
	h0.102v-0.044l0.307-0.102v-0.044l1.211-0.409h0.409v-0.058l1.225,0.16l0.35,0.044v0.059l0.306,0.102v0.058h0.087l0.059,0.087
	l1.123,2.685l-0.058,1.007v1.489h-0.044v1.459l0.044,2.086v0.204h0.058v0.146h0.044l0.102,0.306h0.044v0.102l0.16,0.102l0.146,0.19
	L165.664,166.488 M462.835,155.88l2.539,1.021l0.146,0.088l0.044,0.219h0.058l0.044,0.204h0.058v0.146h0.044v0.102h0.058
	l0.044,0.467h0.058v0.394v1.824l-0.058,2.495v1.97v0.306h0.058l0.102,0.497h0.044v0.102l0.102,0.058v0.102l0.102,0.058l0.204,0.234
	l0.306,0.102v0.058l1.007,0.452l-0.248,0.306l-0.161,0.058l-0.044,0.102l-0.204,0.044v0.044h-0.102v0.058l-1.474,0.146v-0.044h-0.19
	v-0.058h-0.16v-0.044h-0.146v-0.058h-0.102l-0.058-0.087l-0.204-0.058l-0.102-0.146h-0.088l-0.219-0.263h-0.087l-0.058-0.102h-0.102
	l-0.044-0.088h-0.16v-0.058l-0.598-0.044v0.044h-0.16v0.058h-0.102v0.044h-0.102l-0.044,0.088h-0.102l-0.044,0.117h-0.117
	l-0.044,0.102h-0.102l-0.044,0.102h-0.102l-0.058,0.102h-0.102v0.044l-0.306,0.102v0.044h-0.146v0.058h-0.102v0.044l-0.409,0.058
	v0.044l-0.759,0.058v-0.058h-0.408v-0.044h-0.204v-0.058h-0.19v-0.044h-0.117v-0.058h-0.146v-0.044l-0.204-0.044l-0.044-0.102
	h-0.102l-0.058-0.102h-0.102l-0.204-0.263l-0.146-0.102v-0.088l-0.146-0.102l-0.058-0.219l-0.102-0.044v-0.102h-0.044l-0.058-0.306
	l-0.146-1.109h0.044v-0.263c0.525-1.532,2.612-1.751,4.057-2.378l0.306-0.044v-0.058h0.102v-0.044h0.146v-0.058h0.117v-0.044h0.146
	v-0.044h0.102v-0.058h0.088v-0.044l0.306-0.102l0.058-0.117h0.102l0.146-0.204l0.102-0.044v-0.088l0.102-0.058v-0.102h0.058
	l0.102-1.43l-0.204-1.313v-0.146h-0.058v-0.102h-0.044v-0.102l-0.102-0.058v-0.102l-0.161-0.102v-0.088l-0.102-0.102h-0.088
	l-0.102-0.161l-0.204-0.044l-0.058-0.102l-0.496-0.117l-0.817-0.088v0.044h-0.306v0.044h-0.146v0.058l-0.306,0.102l-0.058,0.102
	h-0.102l-0.087,0.102v0.102l-0.161,0.102l-0.102,0.306h-0.044v0.16h-0.058l-0.044,0.336h-0.058l-0.044,0.321h-0.058l-0.044,0.19
	h-0.058v0.102l-0.146,0.102l-1.27,0.452l-0.306-0.292l-0.044-0.511l0.204-0.408l0.146-0.102v-0.087l0.263-0.219l0.292-0.35h0.102
	l0.16-0.204h0.088l0.058-0.102h0.102l0.058-0.102l0.19-0.044l0.058-0.117l0.204-0.044v-0.044l0.292-0.102v-0.044h0.161v-0.058
	l0.306-0.102v-0.058l1.211-0.496h0.204v-0.058h0.204v-0.045h0.409V155.88z M172.712,164.343l0.35-0.044l0.263,0.248v0.117
	l0.087,0.044v0.102h0.058v0.088l0.102,0.102v0.117l0.102,0.044l0.044,0.204l0.102,0.058v0.087l0.102,0.058v0.102l0.263,0.204v0.102
	h0.044l0.102,0.146h0.102l0.204,0.263h0.102l0.058,0.102l0.19,0.044v0.058l0.306,0.088v0.044h0.161l1.109,0.117v-0.058h0.204v-0.058
	l0.204-0.044v-0.044l0.204-0.044l0.044-0.102h0.102l0.044-0.102l0.204-0.16v-0.102l0.102-0.058l0.058-0.131h0.044l0.102-0.423h0.058
	v-0.35h0.044l-0.102-0.759h-0.044v-0.161h-0.058l-0.102-0.292l-0.102-0.058v-0.102l-0.146-0.102v-0.087l-0.102-0.058l-0.204-0.248
	h-0.102l-0.204-0.262h-0.102l-0.044-0.088l-0.161-0.058v-0.044h-0.102l-0.044-0.117h-0.102l-0.044-0.102l-0.204-0.044l-0.058-0.102
	l-0.204-0.058l-0.044-0.087h-0.102v-0.058h-0.102l-0.044-0.102h-0.102l-0.059-0.102h-0.102l-0.044-0.102h-0.102l-0.058-0.102h-0.102
	l-0.044-0.087h-0.102l-0.16-0.204h-0.088l-0.263-0.321h-0.102l-0.102-0.088v-0.102l-0.306-0.263v-0.102l-0.088-0.044l-0.058-0.146
	h-0.044l-0.117-0.306h-0.044l-0.044-0.204h-0.058l-0.044-0.365l0.102-1.605v-0.16h0.044v-0.102h0.044l0.117-0.306l0.102-0.044
	v-0.102l0.088-0.059v-0.102l0.306-0.248l0.102-0.146h0.102l0.102-0.16h0.102l0.058-0.102h0.088l0.102-0.102h0.117v-0.044h0.088
	v-0.044h0.102v-0.058h0.161v-0.045h0.146v-0.058h0.161v-0.059h0.248v-0.044h0.248v-0.058l1.167-0.045l1.824,0.307l0.059,0.102h0.102
	v0.044l0.146,0.102v0.102l0.102,0.058v0.102h0.044v0.102h0.058v0.131l0.102,1.269l-0.409,0.102l-0.306-0.233v-0.102l-0.146-0.117
	v-0.102l-0.16-0.102v-0.102l-0.146-0.088l-0.306-0.365h-0.102l-0.044-0.102h-0.102l-0.058-0.102h-0.102v-0.044l-0.306-0.102v-0.044
	l-0.292-0.058v-0.044l-0.861,0.044h-0.204v0.058h-0.102v0.044l-0.306,0.102l-0.102,0.146l-0.306,0.263v0.102l-0.102,0.044
	l-0.044,0.204h-0.058v0.146l-0.102,0.875h0.058l0.044,0.292h0.058l0.044,0.204h0.058v0.117l0.102,0.044v0.088l0.35,0.321
	l0.146,0.204h0.102l0.102,0.131h0.102l0.044,0.117l0.16,0.044v0.058h0.102l0.044,0.102l0.219,0.044l0.044,0.102l0.306,0.102
	l0.044,0.102h0.102v0.044h0.102l0.058,0.102l0.204,0.059v0.044l0.146,0.058l0.044,0.102h0.102v0.044l0.16,0.044l0.044,0.102h0.102
	l0.102,0.161h0.102l0.204,0.263h0.102l0.248,0.292l0.102,0.058v0.102l0.204,0.161v0.087l0.102,0.044v0.102l0.102,0.058l0.044,0.204
	h0.058l0.102,0.292h0.044l0.058,0.365h0.044v0.204l-0.102,1.678v0.146h-0.044l-0.058,0.204h-0.044l-0.058,0.204l-0.087,0.058v0.087
	l-0.204,0.146v0.117l-0.204,0.146v0.058h-0.102l-0.161,0.19h-0.102l-0.044,0.102l-0.204,0.058l-0.058,0.102h-0.088v0.044h-0.102
	v0.058h-0.161v0.044h-0.102v0.058l-0.292,0.044v0.044h-0.204v0.058h-0.263v0.044h-0.306v0.058h-0.452l-2.335-0.204h-0.146v-0.044
	l-0.204-0.058v-0.044l-0.204-0.058l-0.044-0.102h-0.102l-0.058-0.102l-0.204-0.16v-0.088l-0.102-0.044l-0.248-1.328l-0.058-0.452
	L172.712,164.343 M239.059,155.938l1.517,0.045v0.058h0.219v0.044h0.19v0.059h0.146v0.058h0.16v0.045l0.306,0.102v0.044h0.102v0.044
	l0.204,0.059v0.044l0.146,0.058l0.058,0.102h0.102l0.146,0.204h0.102l0.044,0.088l0.204,0.16v0.102l0.204,0.161v0.102l0.102,0.044
	v0.102l0.102,0.044v0.102h0.058l0.044,0.219h0.044v0.146h0.058l0.16,1.211h-0.058l-0.058,0.248l-0.248,0.219v0.044l-0.204,0.058
	v0.044l-1.517,0.044h-3.444l-1.926,0.467l-0.161,1.007l0.569,1.926v0.102h0.044v0.102h0.058v0.102l0.087,0.102v0.102l0.102,0.044
	v0.102h0.058l0.058,0.146l0.087,0.058v0.102l0.248,0.204v0.102l0.262,0.19l0.044,0.102h0.102l0.161,0.219h0.102l0.102,0.146
	l0.204,0.058l0.044,0.087l0.204,0.058v0.044l0.204,0.058v0.044h0.146v0.058h0.102v0.044h0.16v0.058h0.146v0.058h0.204v0.044h0.248
	l1.27,0.087v-0.029h0.306l0.861-0.321l0.058-0.102l0.204-0.044l0.044-0.102h0.102l0.044-0.102h0.117l0.394-0.146l0.102,0.248h-0.044
	l-0.058,0.248h-0.044v0.102l-0.102,0.058v0.102l-0.306,0.248l-0.306,0.365h-0.102l-0.102,0.131h-0.102l-0.044,0.117l-0.204,0.044
	l-0.044,0.102l-0.219,0.058v0.044l-0.19,0.058v0.044l-0.306,0.058v0.044h-0.102v0.044h-0.204v0.058h-0.146v0.044h-0.219v0.058
	h-0.292l-2.539-0.204l-0.306-0.044v-0.058l-0.204-0.044v-0.058h-0.146v-0.044h-0.102l-0.058-0.102l-0.292-0.102l-0.058-0.117h-0.102
	l-0.102-0.131h-0.102l-0.146-0.204h-0.102l-0.248-0.321l-0.117-0.029v-0.102l-0.248-0.219v-0.102l-0.087-0.044l-0.058-0.146h-0.058
	v-0.102l-0.102-0.058l-0.496-1.109v-0.204h-0.058v-0.16H234.2v-0.19h-0.058v-0.263h-0.044v-0.306h-0.059v-0.613h-0.044v-0.598h0.044
	v-0.613h0.059v-0.307h0.044v-0.306l0.511-1.518h0.058v-0.102h0.044v-0.102l0.102-0.044l0.102-0.306l0.102-0.044v-0.117h0.044
	l0.059-0.146l0.102-0.044v-0.102l0.204-0.161v-0.102l0.496-0.452l0.204-0.248h0.102l0.102-0.161h0.102l0.058-0.087l0.146-0.058
	v-0.044h0.102l0.058-0.102l0.19-0.058v-0.058h0.102v-0.044l0.306-0.102v-0.044h0.146v-0.044h0.117v-0.058l0.292-0.045v-0.058h0.204
	v-0.059L239.059,155.938 M296.141,155.938l1.372,0.045h0.35v0.058h0.248v0.044h0.204v0.059h0.161v0.058h0.19v0.045l0.263,0.058
	v0.044h0.102v0.044h0.146v0.044l0.204,0.059v0.044h0.102l0.044,0.117l0.219,0.044l0.044,0.102h0.102v0.058l0.146,0.044l0.058,0.088
	h0.102l0.146,0.219h0.102l0.204,0.248l0.35,0.306v0.102l0.204,0.16v0.102l0.102,0.044l0.044,0.146h0.058v0.102l0.102,0.058
	l0.058,0.204l0.087,0.044l0.058,0.204h0.044l0.058,0.204h0.058v0.16h0.044v0.088h0.044l0.059,0.306l0.306,2.028v0.758h-0.058v0.365
	l-0.35,1.255h-0.044l-0.058,0.204h-0.058v0.146h-0.044v0.102h-0.058v0.117l-0.087,0.044l-0.102,0.292h-0.058l-0.058,0.161
	l-0.087,0.058v0.102l-0.161,0.102v0.087l-0.35,0.306v0.117h-0.058l-0.088,0.131h-0.102l-0.263,0.321h-0.102l-0.102,0.146h-0.102
	l-0.044,0.102h-0.102l-0.044,0.088l-0.306,0.117l-0.058,0.102l-0.248,0.044v0.058l-0.204,0.044v0.058h-0.146v0.044h-0.16v0.058
	h-0.146v0.044h-0.219v0.044h-0.19v0.058h-0.204v0.044h-0.35v0.058h-0.408v0.044h-0.817l-1.766-0.292l-0.306-0.058v-0.044h-0.102
	v-0.058h-0.146v-0.044l-0.219-0.058v-0.044l-0.19-0.058l-0.058-0.102l-0.204-0.058l-0.044-0.088h-0.102l-0.102-0.146h-0.102
	l-0.102-0.161h-0.102l-0.263-0.292l-0.394-0.365v-0.102l-0.204-0.146v-0.102l-0.102-0.058v-0.102l-0.102-0.044v-0.117l-0.102-0.044
	l-0.044-0.19h-0.058v-0.102h-0.044l-0.102-0.321h-0.058l-0.307-0.905v-0.263l-0.044-2.32v-0.306l0.409-1.255h0.044l0.058-0.219
	h0.044l0.058-0.204l0.088-0.044l0.058-0.204l0.102-0.044v-0.102h0.058l0.044-0.16l0.102-0.059v-0.087l0.204-0.146v-0.117
	l0.292-0.248l0.365-0.409h0.102l0.146-0.204h0.102l0.058-0.102l0.146-0.044v-0.044h0.102l0.058-0.102l0.19-0.058l0.058-0.102h0.102
	v-0.058h0.102v-0.044h0.146v-0.059l0.204-0.044v-0.044l1.065-0.306L296.141,155.938 M315.3,155.938l1.372,0.045h0.35v0.058h0.248
	v0.044h0.204v0.059h0.204v0.058h0.16v0.045l0.248,0.058v0.044h0.102v0.044h0.146v0.044l0.204,0.059v0.044l0.204,0.058l0.058,0.102
	l0.19,0.058l0.058,0.102h0.102l0.102,0.131h0.102l0.146,0.219h0.102l0.204,0.248l0.35,0.306v0.102l0.204,0.16v0.102l0.16,0.087
	v0.102l0.102,0.044l0.044,0.219l0.102,0.044v0.102l0.102,0.102v0.102h0.058v0.102h0.044v0.102h0.058v0.16h0.044v0.088h0.044
	l0.058,0.306h0.044v0.16h0.058v0.146h0.058v0.204h0.044v0.248h0.044v0.35h0.058v0.613l0.044,0.452h-0.044l-0.058,0.978h-0.044v0.233
	h-0.044v0.263h-0.058v0.16h-0.058l-0.044,0.35h-0.058l-0.044,0.248h-0.044v0.117h-0.058v0.131h-0.044l-0.058,0.204h-0.058
	l-0.044,0.219l-0.102,0.044l-0.044,0.19h-0.058l-0.044,0.161l-0.102,0.058v0.102l-0.16,0.102v0.087l-0.248,0.204v0.102l-0.248,0.219
	l-0.058,0.087h-0.102l-0.204,0.263h-0.102l-0.088,0.146h-0.102l-0.058,0.102h-0.102l-0.044,0.088l-0.204,0.058l-0.058,0.102
	l-0.452,0.161v0.044h-0.102v0.058h-0.146v0.044h-0.16v0.058h-0.146v0.044h-0.16v0.044h-0.204v0.058h-0.248v0.044l-0.759,0.058v0.044
	h-0.817l-1.766-0.292l-0.306-0.058v-0.044l-0.204-0.058v-0.044h-0.146v-0.058h-0.102v-0.044h-0.102l-0.058-0.102l-0.292-0.117
	l-0.058-0.088h-0.102l-0.102-0.146h-0.102l-0.16-0.219h-0.088l-0.204-0.233l-0.408-0.365v-0.102l-0.161-0.102v-0.102l-0.146-0.102
	v-0.102l-0.102-0.044l-0.044-0.219l-0.102-0.044l-0.058-0.19h-0.044l-0.058-0.219h-0.044v-0.146h-0.058v-0.087h-0.044v-0.161h-0.044
	v-0.102h-0.058l-0.058-0.35h-0.044v-0.204l-0.146-2.087v-0.409h0.044v-0.306h0.044v-0.248h0.058v-0.204h0.044v-0.146h0.058v-0.146
	h0.058v-0.16h0.044v-0.161h0.044l0.058-0.19h0.044v-0.16h0.058v-0.102h0.044v-0.102l0.102-0.044l0.102-0.306h0.058l0.044-0.146
	l0.102-0.058v-0.102l0.102-0.059v-0.087l0.204-0.146v-0.117l0.409-0.35l0.248-0.307h0.102l0.146-0.204h0.102l0.058-0.102
	l0.146-0.044v-0.044h0.102l0.058-0.102l0.307-0.102l0.044-0.117h0.102v-0.044h0.146v-0.059l0.204-0.044v-0.044l1.065-0.306
	L315.3,155.938 M375.067,164.401l0.102,0.204h0.044l0.102,0.292l0.102,0.058l0.102,0.306l0.102,0.058v0.102h0.044l0.058,0.146
	l0.102,0.044v0.102l0.204,0.16l0.394,0.452h0.102l0.058,0.102h0.102l0.044,0.102l0.204,0.058v0.044h0.102v0.044h0.16v0.044h0.146
	v0.058h0.146v0.058l0.452,0.044H378v-0.044h0.408v-0.058h0.204v-0.058h0.102v-0.044h0.146v-0.044l0.16-0.044l0.044-0.102h0.102
	l0.044-0.102l0.263-0.219v-0.102l0.102-0.029v-0.102h0.044l0.058-0.219h0.044v-0.146h0.058v-0.248h0.044l-0.102-0.817v-0.16h-0.044
	v-0.102h-0.058v-0.087h-0.044v-0.102l-0.102-0.102v-0.102l-0.146-0.102v-0.102l-0.306-0.248l-0.16-0.219h-0.102l-0.102-0.146h-0.102
	l-0.088-0.146h-0.117l-0.044-0.102h-0.102l-0.044-0.102h-0.102v-0.058h-0.117l-0.044-0.102l-0.204-0.044l-0.044-0.087l-0.204-0.058
	l-0.058-0.102h-0.087l-0.058-0.102h-0.102v-0.058h-0.102l-0.044-0.102h-0.102l-0.058-0.102h-0.102l-0.088-0.146h-0.117l-0.146-0.204
	h-0.102l-0.35-0.394l-0.306-0.263v-0.102l-0.146-0.102l-0.058-0.204l-0.102-0.044v-0.102l-0.204-2.087v-0.19h0.059v-0.117h0.044
	l0.16-0.452l0.102-0.044v-0.102l0.146-0.102v-0.102l0.102-0.058l0.204-0.248h0.102l0.146-0.204l0.204-0.058l0.044-0.102l0.219-0.044
	v-0.044l0.19-0.044v-0.058h0.161v-0.045h0.146v-0.058h0.204v-0.059h0.204v-0.044h0.306v-0.058l1.109-0.045l2.291,0.759v0.161h0.044
	v0.087h0.044v0.161h0.058v0.248l0.102,0.671h-0.058l-0.044,0.233l-0.365,0.102l-0.452-0.394v-0.102l-0.146-0.102v-0.102
	l-0.204-0.146l-0.35-0.408h-0.102l-0.058-0.117l-0.146-0.044v-0.044h-0.102v-0.044h-0.102v-0.058h-0.161v-0.044h-0.146v-0.058
	h-0.146v-0.044l-0.861,0.044l-0.307,0.058v0.044l-0.204,0.058l-0.058,0.087h-0.102l-0.044,0.102l-0.306,0.263l-0.044,0.204
	l-0.102,0.044v0.146l-0.16,0.875h0.058v0.248h0.044v0.146h0.058l0.044,0.204l0.102,0.058v0.102l0.102,0.044v0.102l0.306,0.263
	l0.102,0.146h0.102l0.102,0.146h0.102l0.044,0.102l0.161,0.058v0.044h0.102l0.044,0.102l0.146,0.058v0.044l0.204,0.058l0.058,0.087
	l0.204,0.058l0.044,0.102l0.306,0.102v0.044l0.16,0.059l0.044,0.102l0.204,0.058l0.044,0.088h0.102l0.102,0.146h0.102l0.058,0.102
	h0.088l0.16,0.219h0.102l0.35,0.394l0.204,0.16v0.102l0.146,0.087v0.102l0.117,0.058l0.044,0.204l0.102,0.058v0.102h0.044v0.088
	h0.058v0.146h0.044l0.204,1.634h-0.044v0.306h-0.058v0.204l-0.394,0.802l-0.16,0.102v0.102l-0.248,0.204l-0.058,0.102h-0.102
	l-0.102,0.146h-0.102l-0.044,0.102h-0.102l-0.044,0.102h-0.117v0.058l-0.19,0.044v0.058l-3.911,0.19h-0.19v-0.044h-0.117v-0.044
	h-0.146v-0.058h-0.102v-0.044l-0.204-0.058l-0.044-0.102h-0.102l-0.16-0.204l-0.102-0.058l-0.102-0.292l-0.248-1.43l0.058-0.554
	l0.088-0.044l0.058-0.102h0.248L375.067,164.401 M394.474,155.938l1.372,0.045h0.35l1.211,0.364v0.044l0.306,0.102v0.044
	l0.219,0.058l0.044,0.102l0.204,0.058l0.044,0.102h0.102l0.102,0.131h0.102l0.146,0.219h0.117l0.35,0.394l0.248,0.204v0.102
	l0.146,0.117v0.102l0.161,0.087v0.102l0.102,0.044l0.044,0.219l0.102,0.044l0.102,0.306h0.058l0.102,0.306h0.044l0.058,0.292h0.044
	v0.102h0.044v0.219h0.058v0.146h0.044v0.204h0.058v0.248h0.058v0.306h0.044v0.598h0.044v0.569h-0.044l-0.044,0.963h-0.058v0.248
	H400.5v0.204h-0.044v0.204h-0.058v0.146h-0.044v0.161h-0.044v0.146h-0.058v0.102h-0.044v0.146h-0.058l-0.102,0.306h-0.044
	l-0.058,0.219l-0.102,0.044l-0.044,0.19h-0.044l-0.058,0.161l-0.102,0.058v0.102l-0.146,0.102v0.087l-0.262,0.204v0.102
	l-0.248,0.219l-0.058,0.087h-0.088l-0.219,0.263h-0.087l-0.102,0.146h-0.117l-0.044,0.102h-0.102l-0.044,0.088l-0.204,0.058
	l-0.059,0.102l-0.452,0.161v0.044h-0.102v0.058h-0.146v0.044h-0.161v0.058h-0.146v0.044h-0.146v0.044h-0.219v0.058h-0.248v0.044
	l-0.759,0.058v0.044h-0.817l-1.766-0.292l-0.306-0.058v-0.044l-0.204-0.058v-0.044h-0.146v-0.058h-0.102v-0.044h-0.102l-0.058-0.102
	l-0.19-0.058l-0.058-0.102l-0.204-0.044l-0.102-0.146h-0.102l-0.146-0.219h-0.102l-0.262-0.292l-0.35-0.306v-0.102l-0.146-0.102
	v-0.102l-0.16-0.102v-0.102l-0.088-0.044l-0.058-0.219l-0.102-0.044l-0.058-0.19h-0.044l-0.044-0.219h-0.058v-0.146h-0.044v-0.087
	h-0.058v-0.161h-0.044v-0.102h-0.058v-0.204h-0.044v-0.146h-0.058v-0.204h-0.044v-0.219h-0.058v-0.292h-0.044l-0.058-1.576h0.058
	v-0.409l0.35-1.372h0.058l0.044-0.19h0.058v-0.102h0.044v-0.161h0.044v-0.102l0.117-0.044l0.102-0.306h0.044l0.044-0.146
	l0.102-0.058v-0.102l0.161-0.102v-0.087l0.204-0.161v-0.102l0.248-0.204l0.35-0.409h0.102l0.161-0.204h0.102l0.044-0.102h0.102
	l0.058-0.087h0.102l0.044-0.102l0.306-0.102l0.044-0.117h0.161v-0.044h0.087v-0.059l0.219-0.044v-0.044l1.05-0.306L394.474,155.938
	 M445.909,155.938h1.167l0.92,0.205v0.058h0.102v0.045h0.146v0.058l0.306,0.087v0.044l0.204,0.059l0.044,0.102h0.102l0.102,0.16
	h0.102l0.35,0.394l0.263,0.204v0.102l0.102,0.058v0.088l0.102,0.058l0.102,0.306h0.044v0.102h0.058l0.102,0.452h0.044v0.306
	l0.044,0.467l-0.146,0.394l-0.408,0.306l-1.562,0.044h-3.4l-1.984,0.511l-0.102,0.905l0.262,1.225v0.204h0.044v0.102h0.058
	l0.044,0.306h0.058v0.102h0.044v0.102h0.044v0.102h0.058v0.087l0.102,0.102v0.102l0.102,0.058l0.044,0.204l0.16,0.087v0.102
	l0.146,0.102v0.102l0.204,0.161l0.365,0.408h0.088l0.117,0.146h0.102l0.044,0.102h0.102l0.044,0.102l0.204,0.044v0.058h0.102v0.044
	l0.306,0.102v0.058l0.657,0.16l1.532,0.102h0.292v-0.058h0.204v-0.044l0.306-0.058v-0.058l0.306-0.102v-0.044l0.204-0.058
	l0.044-0.102h0.102l0.058-0.087h0.088v-0.058l0.511-0.146l0.058,0.394l-0.102,0.16h-0.058v0.102l-0.146,0.102v0.087l-0.102,0.058
	l-0.306,0.365h-0.102l-0.146,0.19h-0.102l-0.058,0.102l-0.146,0.058v0.044l-0.204,0.058v0.044h-0.102v0.058h-0.102v0.044
	l-0.306,0.102v0.058h-0.146v0.044h-0.161v0.044h-0.146v0.058h-0.146v0.044h-0.263l-2.787-0.146l-0.307-0.044v-0.058h-0.102v-0.044
	h-0.146v-0.058l-0.204-0.044v-0.058l-0.204-0.044l-0.058-0.102l-0.19-0.058l-0.102-0.146h-0.102l-0.102-0.146h-0.102l-0.204-0.263
	l-0.409-0.35v-0.102l-0.146-0.102v-0.102l-0.102-0.058v-0.087l-0.102-0.058v-0.102l-0.102-0.044l-0.044-0.219h-0.058v-0.102h-0.058
	l-0.088-0.292h-0.058v-0.161h-0.044v-0.102h-0.058v-0.131h-0.044v-0.161h-0.044v-0.204h-0.058v-0.204l-0.16-2.13v-0.452h0.058
	v-0.306h0.044v-0.204h0.058v-0.248h0.058v-0.16h0.044l0.044-0.35h0.058v-0.102h0.044l0.058-0.306h0.044l0.102-0.307h0.058v-0.102
	h0.044v-0.102h0.058l0.088-0.292h0.058l0.044-0.16l0.102-0.058v-0.102l0.102-0.044v-0.087l0.16-0.102v-0.117l0.248-0.204v-0.102
	l0.248-0.19l0.058-0.102h0.102l0.204-0.263h0.102l0.088-0.146h0.117l0.044-0.102l0.146-0.044v-0.058l0.219-0.044l0.044-0.117h0.102
	v-0.044h0.102v-0.059h0.102v-0.044h0.146v-0.044h0.102v-0.044h0.146v-0.058h0.16v-0.045h0.146v-0.058h0.204v-0.059h0.204v-0.044
	L445.909,155.938 M477.485,156.041l0.554,0.205l0.102,1.458v1.882v2.335l0.058,1.255v0.817l0.19,0.905h0.058v0.102h0.044v0.117
	h0.044v0.102l0.117,0.102v0.102l0.146,0.087v0.102l0.204,0.16v0.044h0.102l0.102,0.161h0.102v0.058l0.306,0.087v0.044l0.306,0.058
	v0.044h0.248v0.058l0.802,0.058v-0.058h0.511v-0.058h0.263v-0.044h0.19v-0.058l0.306-0.044v-0.058l0.306-0.087v-0.044h0.102
	l0.204-0.262l0.306-0.248v-0.102l0.102-0.058l0.044-0.146h0.058l0.204-0.569v-0.248h0.044v-3.049v-2.014l-0.044-1.065h-0.058
	l-0.044-0.306h-0.058l-0.044-0.204l-0.102-0.058l-0.248-0.292l-0.467-0.715l0.161-0.102v-0.059h0.087v-0.044l0.467-0.044
	l1.065-0.204h0.292v-0.059l0.672,0.059l0.248,0.204l0.102,0.511h0.058l-0.058,0.452v1.372v4.304l0.058,1.357l0.044,0.919h0.058
	v0.204h0.044l0.102,0.306l0.248,0.204l0.058,0.087h0.102v0.058l0.963,0.307v0.248l-0.365,0.262l-0.511,0.102v0.044h-0.146v0.058
	h-0.19v0.044h-0.219v0.058h-0.19v0.044h-0.204v0.044l-0.365,0.058l-1.211,0.204l-0.248-0.35v-0.161l-0.467-0.598v-0.058h-0.409
	v0.058l-0.452,0.146l-0.044,0.088l-0.204,0.058l-0.058,0.102l-0.19,0.058v0.044h-0.102v0.058h-0.117v0.044l-0.292,0.102v0.058
	l-0.306,0.044l-2.685,0.146l-0.365-0.044v-0.058h-0.088v-0.044h-0.16v-0.044h-0.102v-0.058h-0.102l-0.044-0.102h-0.102l-0.058-0.102
	h-0.087l-0.569-0.598v-0.117l-0.102-0.044v-0.102h-0.044c-0.554-1.211-0.365-3.531-0.365-5.267v-2.028h-0.044l-0.044-0.861h-0.058
	v-0.102h-0.044v-0.161l-0.117-0.044v-0.102l-0.088-0.044v-0.102l-0.408-0.365v-0.102h-0.058l-0.044-0.248l1.62-0.554h0.248v-0.059
	h0.365V156.041z M548.181,166.386v0.336l-0.306,0.219h-0.146v0.044h-0.161v0.058l-0.554,0.102v0.044h-0.204v0.058l-0.598,0.087
	v0.058h-0.16l-1.211,0.204l-0.161-0.204h-0.044v-0.146h-0.058v-0.102h-0.044v-0.204l-0.306-0.408l-0.861,0.058v0.044h-0.102
	l-0.044,0.088l-0.219,0.058l-0.044,0.102h-0.102v0.058h-0.102v0.044h-0.088v0.058l-0.306,0.102v0.044h-0.16v0.058h-0.102v0.044
	l-0.452,0.102v0.044h-0.204v0.058l-0.657,0.044v0.058h-0.861v-0.058h-0.409v-0.044h-0.248v-0.058h-0.204v-0.044H538.9v-0.058h-0.146
	v-0.044h-0.102v-0.044l-0.306-0.102l-0.044-0.102H538.2l-0.16-0.204l-0.409-0.35v-0.102l-0.102-0.058v-0.102h-0.044l-0.102-0.292
	h-0.044l-0.058-0.321h-0.058v-0.19l-0.146-1.737v-3.181l-0.044-2.247h-0.058v-0.233h-0.044v-0.16h-0.044l-0.058-0.204h-0.058v-0.102
	l-0.146-0.102v-0.102l-0.102-0.044l-0.306-0.773l0.408-0.19h0.263v-0.044l0.905-0.102v-0.058h0.248v-0.059l0.452-0.044v0.044h0.263
	l0.102,0.059l0.204,0.291l0.044,0.817h-0.044v1.474v3.137l0.044,1.576v0.613h0.058v0.292h0.044v0.263h0.058v0.16h0.044v0.131h0.044
	v0.16h0.058v0.102h0.044v0.102l0.117,0.058v0.102l0.087,0.044v0.102l0.102,0.044l0.204,0.262h0.102l0.058,0.102l0.306,0.087v0.058
	h0.102v0.044l0.306,0.058v0.044h0.248v0.058l0.803,0.058v-0.058h0.511v-0.058h0.262v-0.044h0.19v-0.058l0.306-0.044v-0.058
	l0.204-0.029v-0.058h0.102l0.058-0.102l0.963-1.372v-0.292h0.044v-2.597v-2.028l-0.044-1.065v-0.306h-0.058v-0.19h-0.044v-0.16
	h-0.058v-0.102l-0.511-0.554h-0.102v-0.058l-0.19-0.16l-0.117-0.19l0.058-0.102l0.248-0.263l0.861-0.131l1.736-0.16l0.248,0.35v2.13
	v4.771l0.307,2.378l0.087,0.044l0.219,0.248l0.19,0.058v0.044h0.204v0.058l0.467,0.044L548.181,166.386 M241.394,158.214
	l-0.044,0.409l-0.102,0.146h-0.058v0.102l-0.35,0.263h-0.16v0.044h-0.19v0.058h-0.365v0.058h-0.861l-1.269,0.044l-1.153-0.044
	v-0.058h-0.117l-0.248-0.263h-0.044v-0.146h-0.058l0.102-0.569h0.058v-0.087l0.087-0.044v-0.102l0.263-0.219v-0.102l0.146-0.102
	v-0.044h0.102l0.204-0.248h0.102l0.044-0.102h0.102l0.058-0.102h0.102l0.102-0.117h0.102v-0.044h0.102v-0.044l0.204-0.044v-0.058
	l0.598-0.102v-0.044C240.299,156.624,241.131,157.062,241.394,158.214 M297.352,156.858h0.16v0.044l0.19,0.044v0.044h0.102
	l0.058,0.117l0.204,0.044l0.102,0.161h0.087l0.219,0.248l0.306,0.248l0.905,1.824v0.219h0.058v0.146h0.044v0.248h0.044v0.263h0.058
	v0.292h0.044l0.058,1.27l-0.511,2.743v0.146h-0.044v0.102h-0.058v0.102l-0.102,0.058l-0.044,0.204h-0.058l-0.044,0.146l-0.102,0.044
	v0.102l-0.248,0.219l-0.365,0.394h-0.102l-0.058,0.102l-0.19,0.058v0.044l-0.306,0.102v0.044l-0.306,0.044v0.058h-0.248v0.058
	h-0.773v-0.058h-0.248v-0.058h-0.204v-0.044l-0.292-0.044v-0.044l-0.204-0.058v-0.044h-0.102l-0.058-0.102l-0.204-0.058l-0.102-0.16
	l-1.664-2.729v-0.263h-0.058v-0.233h-0.044v-0.365h-0.058l-0.044-1.678h0.044v-0.496h0.058v-0.365h0.044v-0.248h0.058v-0.204h0.044
	v-0.204h0.058v-0.146h0.044v-0.161h0.058v-0.146h0.044v-0.161h0.058l0.088-0.292h0.058v-0.117h0.058l0.044-0.19h0.058l0.044-0.146
	l0.102-0.058v-0.102l0.204-0.161v-0.102l0.102-0.044l0.19-0.248h0.102l0.16-0.204h0.102l0.044-0.117h0.102v-0.044l0.306-0.087
	v-0.058l0.307-0.044v-0.058h0.248v-0.044L297.352,156.858 M318.904,159.79v0.204h0.044v0.204h0.044v0.248h0.058v0.35l-0.204,3.443
	v0.204h-0.044v0.102h-0.058v0.161h-0.044v0.102h-0.058l-0.146,0.452l-0.102,0.058l-0.058,0.19l-0.146,0.102v0.102l-0.248,0.219
	l-0.058,0.131h-0.102l-0.204,0.263h-0.102l-0.044,0.102l-0.204,0.058l-0.058,0.102h-0.088v0.044h-0.16v0.044h-0.146v0.044h-0.16
	v0.058h-0.248v0.058h-0.758v-0.058h-0.263l-0.803-0.292l-0.058-0.102l-0.19-0.058l-0.117-0.16l-1.561-2.378l-0.146-0.905h-0.058
	v-0.365l-0.102-1.518h0.044v-0.554h0.058v-0.365h0.058v-0.292h0.044v-0.204h0.044v-0.204l0.511-1.211h0.058l0.044-0.146l0.102-0.058
	v-0.102l0.204-0.161v-0.102l0.248-0.19l0.059-0.102h0.102l0.102-0.161h0.088l0.058-0.102h0.102l0.058-0.102h0.088v-0.044
	l0.204-0.044v-0.058h0.16v-0.044l0.409-0.102C317.518,156.624,318.291,158.069,318.904,159.79 M397.115,157.908l0.146,0.117v0.102
	l0.102,0.044v0.087l0.102,0.059v0.102l0.102,0.102v0.102h0.058v0.102h0.044l0.102,0.306h0.044l0.059,0.306h0.058v0.088h0.044v0.204
	h0.044v0.16h0.058v0.204h0.044v0.204h0.058v0.248h0.044v0.306l-0.204,3.487l-0.044,0.365h-0.044v0.102h-0.058v0.146h-0.059
	l-0.044,0.204h-0.058l-0.044,0.204l-0.102,0.058l-0.044,0.19l-0.117,0.058v0.102l-0.248,0.204v0.102l-0.146,0.087v0.058h-0.102
	l-0.161,0.204h-0.087l-0.058,0.102h-0.102l-0.058,0.102l-0.904,0.306l-1.824-0.35v-0.058l-0.146-0.044l-0.058-0.117h-0.102
	l-0.044-0.102h-0.102l-0.204-0.234l-0.306-0.262v-0.102l-0.204-0.146v-0.102l-0.102-0.058l-0.044-0.204l-0.102-0.058l-0.511-1.211
	l-0.16-0.905h-0.044v-0.365h-0.044v-0.554h-0.058v-0.905h0.058v-0.613h0.044v-0.365h0.044v-0.233h0.058v-0.263h0.058v-0.204
	l0.452-1.124l0.102-0.044l0.044-0.19l0.102-0.058v-0.102l0.263-0.204v-0.102h0.044l0.146-0.204h0.117l0.146-0.204h0.102l0.044-0.102
	h0.102l0.058-0.102h0.102v-0.044l0.19-0.044v-0.058h0.16v-0.044l0.394-0.102C395.757,156.639,396.531,157.091,397.115,157.908
	 M447.937,157.558l0.102,0.044v0.102h0.058v0.978l-0.613,0.496h-0.204v0.058l-1.167,0.058l-1.27,0.044l-1.313-0.16l-0.307-0.248
	l0.044-0.613l0.117-0.059l0.044-0.189l0.146-0.102v-0.102l0.102-0.058l0.306-0.35h0.102l0.16-0.204h0.102l0.044-0.102l0.204-0.044
	l0.058-0.117h0.102v-0.044h0.088v-0.044l0.861-0.248L447.937,157.558 M427.377,157.149v0.058h0.204l2.583,2.583v0.161h0.044v0.131
	h0.058l0.044,0.365h0.058v0.248h0.044v0.263h0.058v0.394h0.044v0.569l-0.102,1.416v0.263l-0.248,0.904h-0.058l-0.044,0.204h-0.058
	v0.146h-0.044v0.102l-0.102,0.044l-0.102,0.321l-0.161,0.102v0.087l-0.146,0.102v0.102l-0.102,0.058l-0.248,0.292h-0.102
	l-0.161,0.204h-0.102l-0.044,0.117l-0.204,0.044v0.058l-0.306,0.102v0.044h-0.146v0.044h-0.16v0.044h-0.146v0.058h-0.306v0.058
	l-1.211-0.058v-0.058h-0.16v-0.044h-0.146v-0.044h-0.161v-0.044h-0.102v-0.058l-0.292-0.102l-0.058-0.102h-0.102l-0.146-0.204
	l-0.409-0.35v-0.102l-0.102-0.058l-0.044-0.19h-0.058l-0.102-0.307h-0.044l-0.248-3.998v-2.043l0.087-1.109h0.058l0.102-0.306
	l0.102-0.058l0.248-0.292l0.306-0.102v-0.058h0.146v-0.044l0.963-0.117L427.377,157.149 M161.257,162.475l0.452,0.409h0.059v0.248
	h0.044v0.861h-0.044v0.715h-0.059l-0.044,0.452h-0.058v0.102h-0.044l-0.102,0.306l-0.102,0.044v0.102l-0.365,0.321l-0.044,0.087
	l-0.204,0.044v0.058h-0.161v0.044h-0.146v0.058h-0.306v0.058h-0.657v-0.058h-0.248v-0.058h-0.161v-0.044h-0.146v-0.058h-0.102
	v-0.044h-0.102l-0.102-0.146h-0.102l-0.146-0.204h-0.058v-0.102l-0.102-0.058l-0.044-0.19h-0.044l-0.059-0.204h-0.044v-0.219h-0.058
	l0.102-0.788v-0.161l0.452-0.613h0.102l0.146-0.204h0.117l0.044-0.102l0.204-0.058l0.044-0.088h0.102v-0.044h0.102v-0.058
	l1.327-0.467L161.257,162.475 M463.331,162.475l0.467,0.307l0.102,0.452v0.555h-0.058v0.875h-0.044v0.292h-0.058l-0.044,0.306
	h-0.058l-0.044,0.204h-0.044v0.102l-0.117,0.044v0.102l-0.248,0.219l-0.16,0.19l-0.555,0.204h-0.306v0.058l-0.846-0.058v-0.058
	h-0.204v-0.044l-0.204-0.058v-0.044h-0.102l-0.058-0.087h-0.102l-0.044-0.102l-0.263-0.219l-0.292-1.372h0.044v-0.131h0.058v-0.161
	h0.044l0.058-0.204l0.146-0.102v-0.102l0.204-0.146l0.044-0.102h0.102l0.117-0.161h0.088l0.058-0.102h0.102l0.044-0.102l0.306-0.088
	v-0.058h0.102v-0.044l1.211-0.423L463.331,162.475 M351.18,163.949l0.963,0.044v0.058h0.102v0.044l0.306,0.117l0.058,0.087h0.088
	l0.117,0.146l0.35,0.321v0.088l0.102,0.044v0.102l0.102,0.117v0.102h0.044v0.102h0.058v0.102h0.044l0.102,0.613l0.058,1.109h-0.058
	l-0.044,0.496l-1.328,1.78l-0.102,0.16h-0.088l-0.058,0.102l-0.204,0.029l-0.044,0.102l-0.204,0.058v0.058h-0.102v0.044h-0.102
	l-0.759,0.263l-0.102-0.263l0.248-0.263h0.102l0.044-0.087h0.117l0.102-0.146h0.088l0.16-0.219l0.409-0.35v-0.102l0.146-0.102
	l0.102-0.292h0.058v-0.102h0.044v-0.161l-0.102-1.27v-0.102l-0.146-0.102v-0.088l-0.102-0.102h-0.102l-0.16-0.219h-0.102
	l-0.044-0.102l-0.306-0.102l-0.044-0.087l-0.204-0.044l-0.248-0.321l-0.117-0.044l-0.102-0.204l-0.044-0.467h0.044v-0.19h0.058
	l0.102-0.306l0.204-0.161l0.044-0.087h0.102v-0.058h0.102v-0.044l0.248-0.058V163.949z M568.507,164.547l1.43,0.511l0.146,0.102
	v0.102l0.102,0.058v0.146h0.044v0.102h0.058v0.204l-0.204,1.211l-0.204,0.16l-0.102,0.146l-0.306,0.102v0.044h-0.102v0.058h-0.204
	v0.044l-0.613-0.044h-0.19v-0.058h-0.102v-0.044l-0.204-0.058l-0.058-0.087h-0.102l-0.044-0.102l-0.204-0.16v-0.102l-0.102-0.044
	v-0.117H567.5l-0.059-0.292h-0.044l0.044-0.92h0.059v-0.087h0.044v-0.102l0.306-0.365l0.044-0.102h0.102l0.058-0.088h0.102
	l0.044-0.102l0.307-0.058V164.547z"/>
</svg>
