<?xml version="1.0" encoding="utf-8"?>
<!-- Generator: Adobe Illustrator 27.1.1, SVG Export Plug-In . SVG Version: 6.00 Build 0)  -->
<svg version="1.1" id="레이어_1" xmlns="http://www.w3.org/2000/svg" xmlns:xlink="http://www.w3.org/1999/xlink" x="0px"
	 y="0px" viewBox="0 0 720 868.799" enable-background="new 0 0 720 868.799" xml:space="preserve">
<polygon points="219.562,82.491 219.562,226.398 344.094,154.498 "/>
<polygon points="344.087,1.008 221.201,71.961 344.087,142.888 "/>
<path d="M219.562,478.317c0,20.67-4.54,35.693-13.483,44.637c-9.079,9.052-20.21,13.456-34.045,13.456
	c-13.835,0-24.966-4.404-34.017-13.456c-8.945-8.943-13.483-23.966-13.483-44.637V127.765L0,199.664v288.569
	c0,24.237,4.593,46.907,13.645,67.415c8.943,20.346,21.535,38.719,37.394,54.525c15.835,15.888,34.208,28.479,54.554,37.422
	c20.562,9.051,42.907,13.645,66.441,13.645c23.507,0,46.014-4.594,66.873-13.618c20.67-8.943,39.233-21.535,55.093-37.422
	c15.888-15.887,28.344-34.287,36.99-54.714c8.701-20.481,13.104-43.123,13.104-67.252V165.998l-124.532,71.899V478.317z"/>
<path d="M595.468,126.762v360.199c0,20.67-4.54,35.692-13.483,44.636c-9.052,9.079-20.21,13.483-34.045,13.483
	c-13.835,0-24.966-4.405-34.017-13.483c-8.945-8.943-13.483-23.966-13.483-44.636V237.894l-124.533-71.899v322.235
	c0,24.237,4.593,46.906,13.645,67.414c8.943,20.346,21.535,38.719,37.394,54.553c15.835,15.86,34.18,28.451,54.554,37.394
	c20.562,9.052,42.907,13.645,66.441,13.645c23.507,0,46.014-4.593,66.873-13.591c20.67-8.971,39.233-21.562,55.093-37.449
	c15.888-15.861,28.344-34.288,37.018-54.715C715.597,535.001,720,512.386,720,488.231V198.662L595.468,126.762z"/>
<polygon points="375.911,0 375.911,142.907 499.659,71.44 "/>
<polygon points="375.911,154.506 500.443,226.405 500.443,82.499 "/>
<path d="M105.267,813.436c0,10.295-1.595,17.699-4.73,22.021c-4.728,6.485-11.267,9.619-19.966,9.619
	c-8.674,0-15.185-3.134-19.887-9.592c-3.161-4.485-4.756-11.889-4.756-22.048v-108.24H30.989v113.455
	c0,14.023,4.431,25.75,13.239,34.882c9.781,10.132,21.995,15.266,36.342,15.266c14.32,0,26.559-5.134,36.395-15.266
	c8.808-9.132,13.239-20.859,13.239-34.882V705.196h-24.938V813.436z"/>
<path d="M522.899,813.436c0,10.295-1.595,17.699-4.73,22.021c-4.728,6.485-11.267,9.619-19.994,9.619
	c-8.646,0-15.157-3.134-19.859-9.592c-3.161-4.485-4.756-11.889-4.756-22.048v-108.24h-24.965v113.455
	c0,14.023,4.458,25.75,13.266,34.882c9.781,10.132,21.995,15.266,36.314,15.266c14.348,0,26.588-5.134,36.449-15.266
	c8.782-9.132,13.213-20.859,13.213-34.882V705.196h-24.938V813.436z"/>
<path d="M185.779,757.384c-11.025,0-20.454,3.946-28.047,11.781c-6.781,7.025-10.213,16.077-10.213,26.858v56.849h20.697V799.94
	c0-7.511,1.135-12.888,3.377-15.941c3.351-4.594,7.998-6.809,14.186-6.809c6.16,0,10.78,2.216,14.103,6.782
	c2.243,3.189,3.404,8.566,3.404,15.969v52.932h20.697v-56.849c0-10.781-3.43-19.833-10.213-26.858
	C206.232,761.356,196.802,757.384,185.779,757.384"/>
<rect x="245.122" y="763.217" width="20.697" height="89.624"/>
<path d="M255.415,716.063c-3.676,0-6.837,1.324-9.484,3.946c-2.622,2.648-3.945,5.782-3.945,9.403c0,3.81,1.323,7.025,3.945,9.646
	c2.647,2.648,5.836,3.972,9.565,3.972c3.755,0,6.917-1.324,9.483-3.972c2.649-2.62,3.946-5.809,3.946-9.565
	c0-3.729-1.298-6.89-3.946-9.483C262.357,717.387,259.142,716.063,255.415,716.063"/>
<polygon points="317.145,730.39 296.447,730.39 296.447,763.246 287.126,763.246 287.126,782.566 296.447,782.566 296.447,852.844 
	317.145,852.844 317.145,782.566 333.248,782.566 333.248,763.246 317.145,763.246 "/>
<path d="M604.938,763.49h-38.773v105.025h20.697v-28.559h18.076c10.78,0,19.833-3.432,26.858-10.214
	c7.809-7.538,11.78-16.968,11.78-27.992c0-11.025-3.971-20.454-11.78-28.047C624.77,766.922,615.718,763.49,604.938,763.49
	 M616.99,815.854c-3.189,2.243-8.566,3.405-15.969,3.405h-14.16v-35.072h14.16c7.51,0,12.86,1.135,15.941,3.377
	c4.593,3.351,6.809,7.998,6.809,14.186C623.771,807.911,621.554,812.531,616.99,815.854"/>
<path d="M403.965,831.404c-0.731,0.703-1.46,1.324-2.136,1.864c-3.377,2.432-7.645,3.675-12.807,3.675
	c-6.62,0-12.05-2.162-16.292-6.458c-4.215-4.35-6.62-10.213-7.161-17.563h64.226l0.081-4.863c0-14.807-3.81-26.344-11.402-34.693
	c-7.673-8.403-18.103-12.618-31.289-12.618c-13.05,0-23.561,4.323-31.477,12.97c-7.835,8.781-11.753,20.265-11.753,34.423
	c0,14.293,4.026,25.75,12.131,34.423c8.106,8.566,18.833,12.862,32.208,12.862c4.647,0,8.998-0.487,12.969-1.459
	c3.999-0.999,7.702-2.54,11.133-4.647c3.43-2.134,6.646-4.809,9.672-8.106c2.54-2.783,4.972-6.08,7.296-9.808
	c0.432-0.675,0.838-1.323,1.242-2h-24.668C405.261,830.134,404.613,830.809,403.965,831.404 M369.893,789.091
	c1.296-2.026,2.837-3.755,4.647-5.187c1.809-1.459,3.81-2.54,6.024-3.323c2.216-0.757,4.566-1.162,7.08-1.162
	c11.051,0,17.995,5.539,20.886,16.562h-41.583C367.622,793.414,368.595,791.118,369.893,789.091"/>
<path d="M683.692,811.963V707.236h-23.373v104.727c3.567-1.621,7.512-2.54,11.701-2.54
	C676.181,809.423,680.125,810.342,683.692,811.963"/>
<path d="M684.009,825.74c-3.325-3.323-7.377-5.025-11.998-5.025s-8.673,1.702-11.996,5.025c-3.325,3.324-5,7.323-5,11.889
	c0,4.837,1.649,8.971,4.891,12.214c3.242,3.242,7.322,4.891,12.105,4.891c4.702,0,8.754-1.648,11.998-4.891
	c3.323-3.324,4.999-7.404,4.999-12.106C689.008,833.116,687.332,829.064,684.009,825.74"/>
</svg>
