<?xml version="1.0" encoding="utf-8"?>
<!-- Generator: Adobe Illustrator 27.0.1, SVG Export Plug-In . SVG Version: 6.00 Build 0)  -->
<svg version="1.1" id="레이어_1" xmlns="http://www.w3.org/2000/svg" xmlns:xlink="http://www.w3.org/1999/xlink" x="0px"
	 y="0px" viewBox="0 0 720 322.915" enable-background="new 0 0 720 322.915" xml:space="preserve">
<path fill="#7568AA" d="M176.952,282.049L141.4,311.816l1.651-33.484l-55.414,42.986L99.622,268.4
	c-29.351-2.067-55.387-20.251-50.837-48.77c-21.097-8.281-29.767-40.692-6.214-63.413L0,133.483l64.902-4.55
	c2.886-17.366,17.353-32.665,38.021-38.034c-6.495-22.425,5.033-45.362,44.194-41.389L132.905,0l56.434,39.001l-5.14-32.316
	l30.586,28.894c14.173-17.541,43-17.447,63.346,2.953c25.634-22.466,58.514-8.186,69.546,19.997
	c19.178-16.655,42.745-6.294,56.635,24.52c30.706-38.021,69.922-52.18,94.092-23.486c24.748-41.524,69.773-33.619,78.282-19.031
	l35.86-31.914l-9.408,33.686c26.264-11.274,50.944,5.542,53.937,27.968l51.374-20.842l-35.404,52.34
	c19.098,3.838,25.741,32.841,4,48.167c18.279,8.858,34.088,41.108,12.575,59.816c15.676,28.049-6.778,63.601-52.34,52.569
	l11.18,29.526l-30.278-13.488l16.374,44.557l-64.969-43.711c-21.258,18.964-60.125,19.178-85.866-13.448
	c-14.883,10.79-31.136,7.382-41.926-9.314c-40.396,28.023-89.731,36.96-117.108,3.315c-28.439,25.097-59.064,32.76-83.866,9.877
	C223.736,291.417,195.969,301.898,176.952,282.049"/>
<path fill="#FFFFFF" d="M338.904,241.118l8.978-21.285c-54.152,62.621-89.905,55.803-112.653,32.452
	c-9.918,21.5-32.653,24.802-46.905,13.219l8.173-12.951l-46.489,35.404l4.63-31.968l-46.744,35.565l9.529-34.72
	c-32.572,7.341-66.392-21.097-44.906-62.03l-10.481,7.744c-14.119-12.602-8.911-33.31,17.259-40.491
	c-9.475-28.988,11.596-77.786,64.728-64.07l-20.399-9.099c-12.602-22.923,15.031-41.282,46.328-25.338l-15.769-36.961l46.919,32.814
	l-1.409-22.936l20.95,18.91c13.219-22.05,40.946-21.621,51.374-10.509l-7.717,14.602c22.171-25.338,60.406-29.337,80.068,13.233
	c12.991-16.092,42.745-11.663,53.683,19.312l-15.098,26.023c51.643-58.339,84.859-72.539,117.391-49.428
	c14.615-32.519,60.527-33.82,73.934-12.374l19.648-18.829l-7.985,28.479c39.161-26.09,61.346,0.604,41.818,33.699
	c34.585,2.751,53.173,28.747,33.807,43.147l-13.77-0.831c28.935,15.715,52.85,45.375,25.016,58.608
	c34.196,45.966-30.263,51.991-55.817,46.972l11.569,26.251l-36.584-18.602l22.734,44.02l-51.656-39.309
	c-23.272,25.527-60.769,19.608-76.874-7.019c-11.166,10.978-27.539,7.623-34.572-6.562l10.388-13.542
	C391.177,280.669,348.459,270.631,338.904,241.118"/>
<g>
	<defs>
		<path id="SVGID_1_" d="M324.682,46.908v80.149c-3.369-1.248-7.099-1.57-10.871-0.779l-17.85,3.785l-25.405-39.336
			c-3.677-5.663-9.878-9.032-16.561-9.032h-12.092c0-8.2-6.617-14.83-14.803-14.83c-8.16,0-14.79,6.63-14.79,14.83h-13.326
			c-7.355,0-13.474,5.395-14.602,12.441l-34.303-33.659c-4.657-5.033-12.051-7.006-18.842-4.402
			c-8.898,3.422-13.354,13.407-9.931,22.305l23.661,61.668l-23.553,9.06l-9.663-25.943c-2.926-7.998-2.939-15.299-0.416-23.634
			c2.51-8.334-0.899-18.762-6.871-24.613c0,0-20.883-20.547-20.896-20.547c-1.973-2.161-4.509-3.852-7.489-4.804
			c-9.085-2.899-18.802,2.12-21.701,11.206c-4.201,12.951-11.233,34.599-1.436,60.138l21.742,56.662
			c19.205,49.684,48.891,54.005,87.919,32.183c15.675,15.555,39.43,10.763,57.481-9.247l27.11,30.519
			c13.461,15.151,40.947,13.313,53.938,5.529c11.542,22.869,49.133,8.938,64.258-30.425c3.583,22.023,45.684,29.7,67.412,3.624
			c7.341,13.299,35.176,16.145,54.998,0c8.2,17.219,28.814,25.151,52.502,8.724c10.522,19.218,25.002,29.445,40.785,24.721
			c7.623-2.268,14.602-6.791,19.5-12.951c9.113,4.268,21.607,4.442,34.612-1.596c7.247-3.342,15.568-15.367,24.895-34.558
			l35.323-72.767c4.764-9.798,0.671-21.594-9.127-26.358l-55.575-26.99c-7.354-3.57-16.212-0.509-19.782,6.845l-20.091,41.376
			c-1.167-9.797-9.488-17.38-19.581-17.38h-12.079c0-8.173-6.63-14.803-14.803-14.803c-8.173,0-14.789,6.63-14.789,14.803h-13.34
			c-4.402,0-8.361,1.945-11.072,5.006c-1.852-1.463-3.986-2.644-6.375-3.395l-43.98-13.904c-7.797-2.456-16.105,1.865-18.561,9.663
			l-8.2,25.928l-6.885-65.466c-0.94-8.804-8.804-15.192-17.622-14.279c-8.817,0.926-15.192,8.83-14.266,17.634l4.241,40.302h-26.425
			l-10.656-56.407c-1.396-7.408-7.905-13.031-15.729-13.031C331.862,30.871,324.682,38.05,324.682,46.908"/>
	</defs>
	<clipPath id="SVGID_00000122678115463616993200000001596417478577197483_">
		<use xlink:href="#SVGID_1_"  overflow="visible"/>
	</clipPath>
	
		<rect x="18.503" y="-15.485" clip-path="url(#SVGID_00000122678115463616993200000001596417478577197483_)" fill="#C8E7F2" width="683.219" height="328.686"/>
	<path clip-path="url(#SVGID_00000122678115463616993200000001596417478577197483_)" fill="#E7BCD0" d="M620.842-15.486
		L431.048,313.2h9.488L630.317-15.486H620.842z M488.005-15.486L298.223,313.2h9.488L497.493-15.486H488.005z M601.852-15.486
		L412.071,313.2h9.488L611.34-15.486H601.852z M639.806-15.486L450.024,313.2h9.488L649.294-15.486H639.806z M658.783-15.486
		L469.001,313.2h9.488L668.271-15.486H658.783z M582.875-15.486L393.094,313.2h9.488L592.363-15.486H582.875z M525.958-15.486
		L336.177,313.2h9.475L535.447-15.486H525.958z M506.982-15.486L317.2,313.2h9.488L516.47-15.486H506.982z M677.76-15.486
		L487.978,313.2h9.488L687.248-15.486H677.76z M544.935-15.486L355.154,313.2h9.475L554.41-15.486H544.935z M563.912-15.486
		L374.117,313.2h9.488L573.387-15.486H563.912z M668.245,313.2l33.471-57.977v-16.44L658.756,313.2H668.245z M469.028-15.486
		L279.246,313.2h9.488L478.516-15.486H469.028z M649.268,313.2l52.447-90.844v-16.427L639.779,313.2H649.268z M701.715,313.2v-8.683
		l-5.006,8.683H701.715z M687.221,313.2l14.494-25.124v-16.413L677.733,313.2H687.221z M696.736-15.486L506.955,313.2h9.488
		L701.715-7.701v-7.784H696.736z M630.291,313.2l71.424-123.725v-16.414l-80.9,140.139H630.291z M554.397,313.2L701.715,58.033
		V41.606L544.909,313.2H554.397z M535.42,313.2L701.715,25.166V8.739L525.932,313.2H535.42z M592.337,313.2l109.378-189.447v-16.427
		L582.848,313.2H592.337z M573.36,313.2L701.715,90.9V74.46L563.885,313.2H573.36z M611.327,313.2l90.388-156.579v-16.427
		L601.839,313.2H611.327z M89.491-15.486L18.51,107.448v16.427L98.98-15.486H89.491z M146.435-15.486L18.51,206.049v16.414
		L155.924-15.486H146.435z M165.412-15.486L18.51,238.903v16.441l156.391-270.83H165.412z M203.366-15.486L18.51,304.651v8.549
		h4.536L212.854-15.486H203.366z M184.403-15.486L18.51,271.771v16.427L193.878-15.486H184.403z M127.472-15.486L18.51,173.183
		v16.413L136.947-15.486H127.472z M70.515-15.486L18.51,74.581v16.427L79.99-15.486H70.515z M18.51-15.486v7.865l4.55-7.865H18.51z
		 M32.548-15.486L18.51,8.833v16.414l23.527-40.732H32.548z M108.468-15.486L18.51,140.315v16.427L117.97-15.486H108.468z
		 M222.343-15.486L32.534,313.2h9.488L231.831-15.486H222.343z M51.525-15.486L18.51,41.713v16.414l42.504-73.613H51.525z
		 M412.097-15.486L222.316,313.2h9.488L421.586-15.486H412.097z M393.121-15.486L203.339,313.2h9.488L402.609-15.486H393.121z
		 M241.32-15.486L51.511,313.2H61L250.808-15.486H241.32z M431.074-15.486L241.293,313.2h9.488L440.563-15.486H431.074z
		 M450.051-15.486L260.27,313.2h9.488L459.539-15.486H450.051z M355.18-15.486L165.399,313.2h9.475L364.656-15.486H355.18z
		 M374.157-15.486L184.376,313.2h9.475L383.632-15.486H374.157z M260.297-15.486L70.488,313.2h9.488L269.785-15.486H260.297z
		 M279.273-15.486L89.465,313.2h9.488L288.748-15.486H279.273z M336.203-15.486L146.408,313.2h9.488L345.679-15.486H336.203z
		 M298.25-15.486L108.442,313.2h9.502L307.725-15.486H298.25z M317.227-15.486L127.445,313.2h9.475L326.715-15.486H317.227z"/>
</g>
<path fill="#7568AA" d="M340.713,30.867c7.837,0,14.333,5.623,15.742,13.045l10.643,56.407h26.439l-4.241-40.316
	c-0.926-8.803,5.449-16.695,14.266-17.621c0.564-0.053,1.128-0.08,1.691-0.08c8.106,0,15.058,6.12,15.93,14.346l6.871,65.467
	l8.2-25.943c2-6.294,7.824-10.333,14.105-10.333c1.477,0,2.98,0.228,4.456,0.698l43.993,13.89c2.389,0.765,4.523,1.919,6.361,3.409
	c2.724-3.073,6.67-5.02,11.085-5.02h13.327c0-8.173,6.63-14.803,14.803-14.803c8.173,0,14.789,6.63,14.789,14.803h12.092
	c10.093,0,18.413,7.583,19.581,17.38l20.078-41.362c2.563-5.274,7.837-8.335,13.326-8.335c2.174,0,4.375,0.47,6.456,1.477
	l55.575,26.989c9.797,4.764,13.89,16.561,9.139,26.371l-35.337,72.754c-9.314,19.191-17.648,31.216-24.895,34.571
	c-6.939,3.221-13.757,4.671-19.97,4.671c-5.422,0-10.401-1.101-14.628-3.087c-4.898,6.161-11.877,10.697-19.5,12.964
	c-2.577,0.765-5.113,1.141-7.61,1.141c-12.789,0-24.385-9.784-33.176-25.862c-9.059,6.281-17.661,9.006-25.311,9.006
	c-12.334,0-22.144-7.113-27.19-17.742c-9.448,7.69-20.695,11.072-30.693,11.072c-10.992,0-20.467-4.093-24.305-11.072
	c-9.609,11.542-23.231,16.467-35.726,16.467c-15.729,0-29.7-7.81-31.7-20.077c-10.173,26.465-30.518,41.443-46.247,41.443
	c-7.663,0-14.226-3.557-18.011-11.045c-5.959,3.583-14.977,5.918-24.291,5.918c-10.978,0-22.359-3.235-29.646-11.434l-27.11-30.518
	c-10.777,11.958-23.593,18.467-35.498,18.467c-8.039,0-15.662-2.966-21.97-9.22c-14.347,8.026-27.418,12.521-39.189,12.521
	c-20.252,0-36.585-13.286-48.731-44.704l-21.741-56.662c-9.797-25.526-2.765-47.187,1.436-60.138
	c2.335-7.341,9.126-12.025,16.44-12.025c1.745,0,3.503,0.269,5.248,0.819c2.979,0.953,5.516,2.643,7.489,4.804
	c0.014,0.014,20.91,20.547,20.91,20.547c5.959,5.851,9.381,16.279,6.858,24.613c-2.523,8.348-2.51,15.649,0.43,23.634l9.663,25.942
	l23.553-9.046l-23.674-61.681c-3.409-8.897,1.033-18.883,9.945-22.305c2.027-0.765,4.107-1.141,6.16-1.141
	c4.805,0,9.421,2.027,12.683,5.543l34.303,33.659c1.128-7.046,7.234-12.454,14.602-12.454h13.326c0-8.173,6.617-14.803,14.79-14.803
	c8.173,0,14.803,6.63,14.803,14.803h12.079c6.697,0,12.897,3.381,16.561,9.045l25.418,39.336l17.85-3.771
	c1.369-0.309,2.738-0.443,4.093-0.443c2.348,0,4.644,0.43,6.777,1.208V46.904C324.689,38.046,331.856,30.867,340.713,30.867
	 M340.713,23.042c-13.152,0-23.862,10.696-23.862,23.862v71.129c-1.557,0.053-3.127,0.255-4.657,0.577l-12.575,2.671L277.14,86.468
	c-5.14-7.905-13.783-12.629-23.151-12.629h-5.65c-3.194-8.616-11.502-14.789-21.232-14.789c-9.717,0-18.038,6.174-21.231,14.789
	h-6.885c-6.576,0-12.522,2.765-16.669,7.288l-26.64-26.13c-4.724-5.019-11.381-7.905-18.279-7.905c-3.073,0-6.093,0.564-8.965,1.664
	c-6.267,2.416-11.22,7.113-13.944,13.232c-1.422,3.181-2.16,6.536-2.201,9.918c-0.725-0.899-1.503-1.772-2.321-2.577L99.503,59.05
	l-7.18-7.045l-2.375-2.335c-0.228-0.229-0.456-0.456-0.685-0.671c-2.952-3.195-6.683-5.583-10.817-6.899
	c-2.469-0.778-5.033-1.194-7.623-1.194c-10.965,0-20.574,7.032-23.902,17.487c-4.214,12.978-12.079,37.216-1.288,65.318
	l21.741,56.663c6.469,16.735,14.132,28.881,23.419,37.162c9.341,8.348,20.332,12.561,32.626,12.561
	c11.421,0,23.942-3.583,38.168-10.898c6.71,4.993,14.548,7.61,22.99,7.61c12.038,0,24.291-5.247,35.135-14.91l21.621,24.318
	c8.052,9.073,20.654,14.065,35.498,14.065c7.556,0,15.206-1.383,21.634-3.825c5.154,5.758,12.374,8.951,20.668,8.951
	c9.891,0,20.641-4.482,30.264-12.656c6.402-5.408,12.011-12.159,16.588-19.902c1.771,1.705,3.784,3.248,6.012,4.617
	c6.966,4.241,15.863,6.59,25.083,6.59c13.22,0,25.728-4.631,35.431-12.898c6.093,4.778,14.722,7.489,24.6,7.489
	c9.918,0,19.741-2.738,28.371-7.784c7.14,9.18,17.688,14.454,29.512,14.454c7.489,0,15.085-2.04,22.681-6.066
	c9.998,14.857,22.506,22.936,35.806,22.936c3.275,0,6.576-0.51,9.851-1.476c7.355-2.201,14.092-6.133,19.46-11.3
	c3.919,1.154,8.119,1.745,12.427,1.745c7.717,0,15.541-1.812,23.258-5.396c8.884-4.12,17.97-16.266,28.639-38.262l35.337-72.754
	c6.644-13.662,0.913-30.183-12.749-36.827l-55.589-26.976c-3.1-1.516-6.429-2.281-9.864-2.281c-8.616,0-16.601,5.006-20.373,12.75
	l-13.326,27.458c-4.993-4.912-11.837-7.878-19.286-7.878h-5.65c-3.194-8.643-11.515-14.803-21.232-14.803
	c-9.73,0-18.037,6.16-21.232,14.803h-6.898c-4.16,0-8.213,1.154-11.716,3.288c-1.087-0.509-2.215-0.94-3.369-1.315l-43.98-13.904
	c-2.228-0.698-4.523-1.047-6.831-1.047c-7.301,0-13.931,3.449-18.118,9.046l-3.275-31.217
	c-1.288-12.199-11.475-21.379-23.714-21.379c-0.832,0-1.678,0.053-2.51,0.134c-6.348,0.657-12.038,3.757-16.051,8.71
	c-4.013,4.952-5.851,11.18-5.181,17.514h0.014c0.174,1.798,0.819,8.025,3.315,31.659h-11.247l-9.435-50.019
	C362.012,31.202,352.161,23.042,340.713,23.042 M125.996,138.956l-6.898-18.52c-2.255-6.174-2.335-11.757-0.269-18.642
	c0.523-1.705,0.859-3.49,1.02-5.328l15.004,39.081L125.996,138.956z"/>
<rect x="361.79" y="78.85" fill="#7568AA" width="7.18" height="16.198"/>
<path fill="#7568AA" d="M624.247,66.498c2.175,0,4.375,0.47,6.469,1.476l55.562,26.99c9.811,4.764,13.891,16.561,9.14,26.371
	l-24.949,51.388c-10.576,21.741-29.431,30.653-39.753,35.497c-2.227,1.034-4.563,1.53-6.871,1.53
	c-5.999,0-11.743-3.355-14.495-9.126c-3.798-7.999-0.389-17.568,7.596-21.365c8.442-3.96,18.762-8.375,24.667-20.547l-28.948-14.065
	l-7.126,14.696c-2.778,5.691-8.495,9.019-14.44,9.019c-2.348,0-4.738-0.523-6.992-1.61c-7.959-3.865-11.287-13.461-7.408-21.419
	l34.236-70.499C613.484,69.558,618.758,66.498,624.247,66.498 M653.478,134.299l8.777-18.091l-28.948-14.065l-8.791,18.104
	L653.478,134.299 M624.247,58.661c-8.602,0-16.601,5.006-20.359,12.75l-34.236,70.499c-5.744,11.837-0.791,26.143,11.045,31.887
	c3.275,1.597,6.778,2.389,10.401,2.389c9.086,0,17.514-5.261,21.487-13.421l3.704-7.65l13.823,6.71
	c-4.375,4.697-9.971,7.301-15.447,9.864l-1.033,0.483c-5.798,2.765-10.147,7.569-12.28,13.568
	c-2.134,6.012-1.812,12.481,0.926,18.252c3.932,8.254,12.401,13.582,21.567,13.582c3.543,0,6.965-0.752,10.2-2.255
	c10.266-4.831,31.646-14.857,43.456-39.174l24.949-51.401c6.643-13.662,0.926-30.183-12.75-36.827l-55.575-26.976
	C631.012,59.426,627.697,58.661,624.247,58.661 M634.984,116.624l1.945-4.026l14.87,7.221l-1.959,4.026L634.984,116.624z"/>
<path fill="#F6BEC8" d="M686.287,94.957l-55.575-26.989c-7.355-3.557-16.212-0.496-19.782,6.858l-34.236,70.499
	c-3.879,7.972-0.55,17.568,7.422,21.433c7.958,3.865,17.554,0.537,21.419-7.421l7.126-14.695l28.949,14.064
	c-5.905,12.172-16.226,16.601-24.654,20.547c-7.999,3.811-11.407,13.381-7.596,21.365c3.798,7.999,13.34,11.354,21.352,7.61
	c10.32-4.858,29.19-13.77,39.752-35.511l24.949-51.387C700.177,111.531,696.084,99.735,686.287,94.957 M624.512,120.241l8.79-18.104
	l28.962,14.065l-8.791,18.104L624.512,120.241z"/>
<path fill="#7568AA" d="M624.251,66.5c2.16,0,4.375,0.47,6.455,1.476l55.575,26.99c9.798,4.764,13.891,16.56,9.14,26.358
	l-24.962,51.401c-10.563,21.741-29.418,30.653-39.753,35.497c-2.214,1.034-4.563,1.53-6.858,1.53
	c-5.999,0-11.743-3.355-14.495-9.126c-3.797-7.999-0.402-17.568,7.597-21.365c8.441-3.96,18.748-8.375,24.667-20.547l-28.948-14.065
	l-7.14,14.696c-2.765,5.691-8.482,9.019-14.427,9.019c-2.348,0-4.737-0.523-6.992-1.61c-7.972-3.865-11.287-13.461-7.421-21.419
	l34.236-70.499C613.488,69.56,618.762,66.5,624.251,66.5 M653.481,134.301l8.777-18.091l-28.948-14.065l-8.804,18.091
	L653.481,134.301 M624.251,62.138c-7.288,0-14.051,4.241-17.233,10.79l-34.236,70.499c-4.912,10.12-0.685,22.332,9.435,27.244
	c2.792,1.356,5.784,2.054,8.884,2.054c7.757,0,14.951-4.509,18.346-11.488l5.22-10.777l20.869,10.133
	c-5.059,7.557-12.333,10.952-19.392,14.253l-1.047,0.483c-4.939,2.348-8.643,6.456-10.469,11.582
	c-1.825,5.127-1.543,10.656,0.805,15.582c3.355,7.059,10.576,11.623,18.413,11.623c3.019,0,5.959-0.658,8.71-1.959
	c10.683-5.007,30.532-14.32,41.819-37.538l24.949-51.388c5.798-11.944,0.791-26.385-11.139-32.169l-55.589-26.989
	C629.968,62.782,627.163,62.138,624.251,62.138 M630.331,118.236l4.992-10.293l21.125,10.267l-4.993,10.293L630.331,118.236z"/>
<path fill="#FFFFFF" d="M647.277,146.178c-0.577,0-1.168-0.134-1.719-0.389l-22.614-10.978c-1.945-0.94-2.751-3.288-1.812-5.22
	c0.953-1.959,3.289-2.765,5.234-1.825l22.614,10.964c1.946,0.953,2.765,3.288,1.825,5.234
	C650.122,145.36,648.713,146.178,647.277,146.178"/>
<path fill="#FFFFFF" d="M664.028,145.666c-0.578,0-1.168-0.12-1.719-0.389c-1.932-0.953-2.751-3.274-1.811-5.233l13.031-26.841
	c1.154-2.389,0.161-5.288-2.241-6.429l-45.63-22.144c-1.946-0.94-2.751-3.288-1.812-5.22c0.94-1.959,3.275-2.778,5.234-1.826
	l45.63,22.131c6.281,3.059,8.898,10.629,5.852,16.91l-13.018,26.841C666.872,144.848,665.464,145.666,664.028,145.666"/>
<path fill="#FFFFFF" d="M622.809,192.993c-1.088,2.242-3.771,3.168-5.999,2.081c-2.241-1.074-3.181-3.771-2.094-5.999
	c1.087-2.241,3.771-3.167,6.012-2.08C622.956,188.082,623.896,190.766,622.809,192.993"/>
<path fill="#7568AA" d="M559.645,166.677c2.858,0,5.757,0.832,8.294,2.55c12.132,8.24,20.44,23.392,23.137,30.237
	c2.979,7.61-0.752,16.198-8.361,19.191c-1.772,0.698-3.611,1.034-5.409,1.034c-5.905,0-11.488-3.557-13.77-9.395
	c-1.503-3.811-6.791-12.897-12.213-16.574c-6.777-4.59-8.522-13.797-3.945-20.561C550.25,168.945,554.907,166.677,559.645,166.677
	 M559.645,158.839c-7.516,0-14.521,3.704-18.736,9.932c-3.395,4.993-4.643,11.031-3.503,16.95
	c1.127,5.931,4.509,11.085,9.515,14.481c3.517,2.389,8.093,9.851,9.327,12.964c3.422,8.71,11.689,14.346,21.057,14.346
	c2.832,0,5.623-0.523,8.281-1.57c5.623-2.214,10.052-6.469,12.454-12.025c2.416-5.542,2.537-11.689,0.322-17.325
	c-3.221-8.187-12.334-24.547-26.022-33.847C568.569,160.194,564.181,158.839,559.645,158.839"/>
<path fill="#7568AA" d="M544.386,84.017c8.173,0,14.79,6.629,14.79,14.803h12.092c10.884,0,19.715,8.831,19.715,19.729v7.394
	c0,30.854-19.084,47.174-48.623,47.174h-11.3V192.2c0,8.16-6.63,14.789-14.803,14.789c-8.173,0-14.803-6.629-14.803-14.789v-31.405
	c0-3.945,1.557-7.529,4.08-10.186c3.06,2.081,6.75,3.301,10.723,3.301c6.375,0,12.011-3.127,15.501-7.931h10.602
	c15.675,0,21.5-5.423,21.5-20.038h-32.8v8.818c0,8.186-6.63,14.803-14.803,14.803c-8.173,0-14.803-6.616-14.803-14.803v-21.152
	c0-8.173,6.63-14.789,14.803-14.789h13.326C529.583,90.646,536.214,84.017,544.386,84.017 M544.386,76.192
	c-9.73,0-18.051,6.16-21.232,14.803h-6.898c-12.482,0-22.627,10.133-22.627,22.614v21.152c0,4.844,1.53,9.341,4.133,13.018
	c-2.684,3.784-4.133,8.308-4.133,13.018V192.2c0,12.468,10.146,22.614,22.627,22.614c12.481,0,22.627-10.146,22.627-22.614v-11.247
	h3.476c16.789,0,30.894-4.898,40.745-14.145c10.28-9.636,15.716-23.769,15.716-40.867v-7.394c0-15.206-12.361-27.553-27.552-27.553
	h-5.65C562.424,82.352,554.103,76.192,544.386,76.192 M538.884,133.78h16.024c-0.335,0.832-0.765,1.463-1.261,1.946
	c-1.731,1.61-5.529,2.43-11.287,2.43h-3.731c0.174-1.114,0.255-2.241,0.255-3.395V133.78z"/>
<path fill="#F6BEC8" d="M563.53,210.294c2.993,7.61,11.582,11.354,19.191,8.362c7.609-2.993,11.34-11.583,8.347-19.191
	c-2.683-6.845-11.004-21.997-23.123-30.237c-6.764-4.59-15.971-2.832-20.56,3.933c-4.59,6.764-2.832,15.971,3.932,20.56
	C556.739,197.397,562.026,206.483,563.53,210.294"/>
<path fill="#7568AA" d="M559.645,166.673c2.858,0,5.757,0.832,8.294,2.563c12.132,8.227,20.44,23.379,23.137,30.237
	c2.979,7.597-0.752,16.199-8.361,19.178c-1.772,0.698-3.611,1.034-5.409,1.034c-5.905,0-11.488-3.557-13.77-9.395
	c-1.503-3.811-6.791-12.897-12.213-16.574c-6.777-4.59-8.522-13.784-3.945-20.547C550.25,168.941,554.907,166.673,559.645,166.673
	 M559.645,162.324c-6.362,0-12.294,3.127-15.863,8.402c-2.872,4.214-3.919,9.314-2.953,14.346c0.953,5.02,3.811,9.382,8.052,12.24
	c4.362,2.965,9.22,11.071,10.602,14.575c2.899,7.381,9.904,12.145,17.823,12.145c2.403,0,4.751-0.456,7.005-1.329
	c4.751-1.879,8.509-5.476,10.549-10.186c2.04-4.671,2.134-9.878,0.269-14.642c-2.872-7.301-11.73-23.419-24.748-32.25
	C567.2,163.465,563.483,162.324,559.645,162.324"/>
<path fill="#F6BEC8" d="M590.987,118.551c0-10.897-8.831-19.741-19.729-19.741H559.18c0-8.16-6.63-14.79-14.803-14.79
	c-8.173,0-14.789,6.63-14.789,14.79h-13.327c-8.173,0-14.803,6.616-14.803,14.803v21.151c0,8.173,6.63,14.803,14.803,14.803
	c8.173,0,14.79-6.63,14.79-14.803v-8.817h32.813c0,14.615-5.838,20.037-21.513,20.037h-10.602
	c-3.476,4.791-9.126,7.932-15.488,7.932c-3.972,0-7.676-1.221-10.736-3.301c-2.51,2.657-4.067,6.24-4.067,10.173v31.405
	c0,8.172,6.63,14.803,14.803,14.803c8.173,0,14.79-6.63,14.79-14.803v-19.085h11.3c29.552,0,48.637-16.306,48.637-47.16V118.551z"/>
<path fill="#7568AA" d="M544.382,84.019c8.173,0,14.79,6.63,14.79,14.79h12.092c10.884,0,19.728,8.844,19.728,19.741v7.395
	c0,30.854-19.084,47.16-48.636,47.16h-11.3v19.085c0,8.172-6.63,14.803-14.803,14.803c-8.173,0-14.79-6.63-14.79-14.803v-31.405
	c0-3.933,1.544-7.516,4.067-10.173c3.06,2.08,6.75,3.301,10.723,3.301c6.375,0,12.025-3.141,15.501-7.932h10.602
	c15.675,0,21.5-5.422,21.5-20.037h-32.8v8.817c0,8.173-6.63,14.803-14.803,14.803c-8.173,0-14.79-6.63-14.79-14.803v-21.151
	c0-8.186,6.617-14.803,14.79-14.803h13.326C529.579,90.649,536.209,84.019,544.382,84.019 M544.382,79.671
	c-9.059,0-16.669,6.321-18.654,14.789h-9.475c-10.549,0-19.151,8.603-19.151,19.151v21.151c0,5.02,1.959,9.596,5.127,13.018
	c-3.302,3.543-5.127,8.159-5.127,13.005v31.405c0,10.548,8.603,19.15,19.151,19.15c10.562,0,19.151-8.603,19.151-19.15v-14.723
	h6.952c15.903,0,29.163-4.563,38.369-13.192c9.556-8.965,14.615-22.225,14.615-38.33v-7.395c0-13.286-10.804-24.09-24.076-24.09
	h-8.227C561.051,85.993,553.441,79.671,544.382,79.671 M535.404,130.294h23.902c-0.966,8.684-5.382,11.341-16.95,11.341h-8.227
	c0.818-2.121,1.275-4.442,1.275-6.872V130.294z"/>
<path fill="#FFFFFF" d="M566.38,112.627h-34.612c-2.161,0-3.919-1.758-3.919-3.919c0-2.16,1.758-3.919,3.919-3.919h34.612
	c2.16,0,3.919,1.759,3.919,3.919C570.299,110.869,568.541,112.627,566.38,112.627"/>
<path fill="#FFFFFF" d="M540.3,160.045c-2.161,0-3.919-1.744-3.919-3.919c0-2.16,1.758-3.905,3.919-3.905
	c20.399,0,26.371-6.737,29.069-16.843c0.55-2.081,2.697-3.329,4.791-2.765c2.094,0.564,3.329,2.697,2.765,4.791
	C572.697,153.281,561.733,160.045,540.3,160.045"/>
<path fill="#FFFFFF" d="M541.912,112.627c-2.161,0-3.919-1.758-3.919-3.919v-9.126c0-2.161,1.758-3.919,3.919-3.919
	c2.16,0,3.919,1.758,3.919,3.919v9.126C545.831,110.869,544.072,112.627,541.912,112.627"/>
<path fill="#FFFFFF" d="M585.975,201.643c0,2.497-2.013,4.496-4.496,4.496s-4.496-1.999-4.496-4.496
	c0-2.483,2.013-4.495,4.496-4.495S585.975,199.16,585.975,201.643"/>
<path fill="#7568AA" d="M450.359,85.838c1.476,0,2.979,0.229,4.469,0.698l43.98,13.891c10.387,3.288,16.145,14.36,12.87,24.761
	l-13.568,42.919c-5.475,17.045-18.521,25.674-24.909,29.888c-2.523,1.692-5.382,2.51-8.213,2.51c-4.778,0-9.462-2.308-12.307-6.563
	c-4.549-6.791-2.724-15.984,4.067-20.533c5.113-3.382,10.817-7.167,13.139-14.213l-20.453-6.469l-2.483,7.811
	c-1.986,6.321-7.811,10.36-14.105,10.36c-1.476,0-2.979-0.228-4.456-0.698c-7.797-2.456-12.119-10.777-9.649-18.574l17.514-55.441
	C438.253,89.878,444.078,85.838,450.359,85.838 M477.321,135.683l3.906-12.361l-20.466-6.456l-3.906,12.334L477.321,135.683
	 M450.359,78.013c-9.905,0-18.588,6.362-21.567,15.81l-17.527,55.454c-3.758,11.891,2.872,24.64,14.763,28.398
	c2.215,0.698,4.509,1.047,6.818,1.047c4.389,0,8.522-1.248,12.038-3.449c-0.966,1.892-1.678,3.906-2.107,6.039
	c-1.168,5.932,0.04,11.958,3.395,16.977c4.201,6.294,11.233,10.038,18.816,10.038c4.469,0,8.817-1.315,12.548-3.798
	c6.509-4.308,21.714-14.359,28.022-34.021l13.582-42.973c4.576-14.481-3.49-29.995-17.971-34.571L457.19,79.06
	C454.962,78.362,452.667,78.013,450.359,78.013"/>
<path fill="#A4D6C1" d="M498.806,100.419l-43.979-13.891c-7.798-2.456-16.105,1.866-18.574,9.649l-17.514,55.454
	c-2.469,7.797,1.852,16.105,9.65,18.575c7.784,2.456,16.105-1.866,18.561-9.663l2.483-7.81l20.453,6.455
	c-2.322,7.059-8.025,10.844-13.139,14.226c-6.791,4.55-8.603,13.729-4.066,20.521c4.549,6.791,13.729,8.616,20.52,4.066
	c6.388-4.214,19.433-12.844,24.909-29.902l13.569-42.919C514.951,114.792,509.194,103.72,498.806,100.419 M456.853,129.206
	l3.905-12.347l20.466,6.469l-3.905,12.348L456.853,129.206z"/>
<path fill="#7568AA" d="M450.36,85.83c1.477,0,2.98,0.229,4.456,0.698l43.993,13.891c10.387,3.301,16.145,14.373,12.87,24.761
	l-13.568,42.919c-5.476,17.058-18.521,25.674-24.909,29.902c-2.523,1.691-5.382,2.496-8.213,2.496
	c-4.778,0-9.461-2.294-12.307-6.562c-4.549-6.791-2.724-15.971,4.053-20.521c5.127-3.381,10.831-7.167,13.139-14.226l-20.44-6.455
	l-2.483,7.81c-1.986,6.321-7.824,10.347-14.105,10.347c-1.477,0-2.98-0.215-4.456-0.684c-7.797-2.47-12.119-10.777-9.663-18.575
	l17.527-55.454C438.254,89.87,444.079,85.83,450.36,85.83 M477.322,135.675l3.906-12.361l-20.467-6.456l-3.905,12.348
	L477.322,135.675 M450.36,81.482c-8.388,0-15.729,5.395-18.252,13.381l-17.527,55.454c-3.168,10.065,2.429,20.855,12.495,24.023
	c1.879,0.604,3.825,0.913,5.771,0.913c8.388,0,15.729-5.395,18.252-13.394l1.155-3.677l11.474,3.637
	c-2.375,3.328-5.919,5.663-9.381,7.958c-8.791,5.892-11.152,17.81-5.288,26.587c3.57,5.315,9.515,8.495,15.93,8.495
	c3.785,0,7.462-1.127,10.629-3.248c6.697-4.415,20.681-13.635,26.626-32.169l13.582-42.933c3.999-12.683-3.047-26.224-15.716-30.223
	l-43.966-13.904C454.252,81.791,452.306,81.482,450.36,81.482 M462.318,126.374l1.275-4.066l12.173,3.852l-1.288,4.053
	L462.318,126.374z"/>
<path fill="#FFFFFF" d="M497.142,115.458c-0.389,0-0.792-0.053-1.181-0.188l-29.163-9.206c-2.067-0.658-3.207-2.846-2.55-4.912
	c0.658-2.067,2.845-3.208,4.912-2.563l29.163,9.233c2.054,0.644,3.208,2.845,2.55,4.898
	C500.349,114.398,498.806,115.458,497.142,115.458"/>
<path fill="#FFFFFF" d="M462.318,186.624c-1.396,0-2.751-0.764-3.463-2.08c-1.006-1.906-0.295-4.282,1.624-5.301
	c6.805-3.623,12.871-11.273,15.474-19.473l2.322-7.394c0.322-0.967-0.228-2.013-1.195-2.322l-20.292-6.402
	c-2.053-0.658-3.194-2.859-2.55-4.912c0.658-2.067,2.845-3.221,4.912-2.563l20.292,6.415c5.087,1.61,7.919,7.045,6.308,12.145
	l-2.335,7.395c-3.221,10.213-10.602,19.419-19.259,24.023C463.566,186.463,462.935,186.624,462.318,186.624"/>
<path fill="#7568AA" d="M340.713,30.871c8.857,0,16.024,7.181,16.024,16.025v53.428h36.813l-4.241-40.316
	c-0.926-8.804,5.449-16.696,14.266-17.635c0.564-0.04,1.127-0.066,1.691-0.066c8.106,0,15.058,6.12,15.93,14.346l9.046,86.107
	c2.147,20.373-7.65,35.457-12.427,42.812c-3.06,4.777-8.227,7.381-13.501,7.381c-2.966,0-5.972-0.818-8.643-2.537
	c-7.448-4.791-9.622-14.695-4.845-22.158c3.798-5.838,8.482-13.058,7.529-22.144l-1.704-16.199h-39.913v32.156
	c0,8.858-7.167,16.038-16.024,16.038c-8.858,0-16.024-7.18-16.024-16.038V46.895C324.689,38.051,331.856,30.871,340.713,30.871
	 M340.713,23.046c-13.152,0-23.862,10.697-23.862,23.849v115.176c0,13.166,10.71,23.862,23.862,23.862
	c13.152,0,23.862-10.696,23.862-23.862V137.74h25.029l0.967,9.18c0.657,6.334-2.885,11.783-6.295,17.071l-0.013,0.014l-0.027,0.04
	c-3.435,5.355-4.59,11.743-3.234,17.97c1.369,6.227,5.073,11.542,10.441,14.991c3.852,2.47,8.294,3.771,12.87,3.771
	c8.16,0,15.675-4.093,20.077-10.952c5.234-8.052,16.064-24.774,13.635-47.885l-9.045-86.106
	c-1.289-12.186-11.475-21.366-23.714-21.366c-0.832,0-1.678,0.04-2.51,0.121c-6.348,0.671-12.038,3.771-16.051,8.723
	c-4.013,4.952-5.851,11.18-5.18,17.501h0.014c0.174,1.799,0.819,8.039,3.315,31.673h-20.278v-45.59
	C364.575,33.743,353.865,23.046,340.713,23.046"/>
<path fill="#A4D6C1" d="M430.241,142.757l-9.046-86.106c-0.926-8.804-8.818-15.192-17.622-14.266
	c-8.817,0.926-15.192,8.817-14.266,17.621l4.241,40.315h-36.813V46.894c0-8.844-7.167-16.025-16.024-16.025
	c-8.858,0-16.024,7.181-16.024,16.025v115.176c0,8.858,7.167,16.038,16.024,16.038c8.858,0,16.024-7.18,16.024-16.038v-32.156
	h39.913l1.705,16.198c0.953,9.086-3.731,16.306-7.529,22.144c-4.778,7.462-2.604,17.366,4.845,22.158
	c7.448,4.778,17.366,2.617,22.144-4.845C422.591,178.215,432.388,163.143,430.241,142.757"/>
<path fill="#7568AA" d="M340.713,30.868c8.857,0,16.024,7.18,16.024,16.038v53.414h36.813l-4.241-40.315
	c-0.926-8.804,5.449-16.696,14.266-17.622c0.564-0.053,1.127-0.08,1.691-0.08c8.106,0,15.058,6.12,15.93,14.347l9.046,86.106
	c2.147,20.387-7.65,35.458-12.427,42.826c-3.06,4.764-8.227,7.367-13.501,7.367c-2.966,0-5.972-0.818-8.643-2.536
	c-7.448-4.791-9.622-14.696-4.845-22.144c3.798-5.851,8.482-13.072,7.529-22.158l-1.704-16.198h-39.913v32.169
	c0,8.844-7.167,16.025-16.024,16.025c-8.858,0-16.024-7.181-16.024-16.025V46.906C324.689,38.048,331.856,30.868,340.713,30.868
	 M340.713,26.519c-11.233,0-20.386,9.153-20.386,20.387v115.176c0,11.234,9.153,20.373,20.386,20.373
	c11.233,0,20.386-9.139,20.386-20.373v-27.821h31.632l1.302,12.294c0.792,7.556-3.275,13.824-6.845,19.339
	c-2.966,4.617-3.946,10.066-2.778,15.367c1.168,5.328,4.321,9.878,8.911,12.803c3.288,2.134,7.086,3.248,10.992,3.248
	c6.979,0,13.394-3.516,17.165-9.395c4.979-7.676,15.394-23.701,13.085-45.617l-9.046-86.106c-1.1-10.388-9.797-18.239-20.251-18.239
	c-0.711,0-1.436,0.026-2.147,0.093c-5.409,0.577-10.281,3.222-13.716,7.448c-3.422,4.228-4.993,9.556-4.429,14.965l0.014-0.014
	c0.134,1.383,0.765,7.355,3.731,35.511h-27.62V46.906C361.099,35.672,351.946,26.519,340.713,26.519"/>
<path fill="#FFFFFF" d="M335.778,115.825c-2.161,0-3.919-1.758-3.919-3.905V68.33c0-2.161,1.758-3.92,3.919-3.92
	c2.16,0,3.919,1.759,3.919,3.92v43.59C339.697,114.067,337.939,115.825,335.778,115.825"/>
<path fill="#FFFFFF" d="M406.342,119.848c-1.973,0-3.677-1.489-3.892-3.503l-5.637-53.656c-0.228-2.147,1.329-4.066,3.476-4.308
	c2.161-0.215,4.08,1.342,4.308,3.49l5.636,53.656c0.228,2.147-1.329,4.066-3.476,4.308
	C406.623,119.848,406.476,119.848,406.342,119.848"/>
<path fill="#FFFFFF" d="M405.196,176.781c0,2.497-2.013,4.496-4.496,4.496s-4.496-1.999-4.496-4.496
	c0-2.483,2.013-4.495,4.496-4.495S405.196,174.298,405.196,176.781"/>
<path fill="#FFFFFF" d="M340.275,45.025c0,2.497-2.013,4.496-4.496,4.496s-4.496-2-4.496-4.496c0-2.483,2.013-4.495,4.496-4.495
	S340.275,42.542,340.275,45.025"/>
<path fill="#7568AA" d="M317.922,125.838c9.126,0,17.326,6.375,19.285,15.662l9.314,44.033c3.623,17.528-3.476,31.472-6.965,38.29
	c-2.604,5.167-7.811,8.133-13.22,8.133c-2.241,0-4.509-0.51-6.643-1.584c-7.301-3.663-10.24-12.561-6.563-19.849
	c2.778-5.475,5.892-11.582,4.429-18.856l-20.977,4.442l1.691,8.026c1.691,7.998-3.422,15.849-11.408,17.541
	c-1.047,0.215-2.067,0.322-3.087,0.322c-6.845,0-12.991-4.765-14.467-11.743l-12.038-56.89c-1.691-7.999,3.422-15.85,11.421-17.541
	l45.12-9.542C315.198,125.986,316.567,125.838,317.922,125.838 M291.47,171.978l20.99-4.456l-2.671-12.669l-21.003,4.455
	L291.47,171.978 M317.922,118.013c-1.919,0-3.852,0.202-5.731,0.605l-45.12,9.555c-5.905,1.248-10.978,4.724-14.28,9.784
	s-4.429,11.112-3.167,17.031l12.038,56.89c2.201,10.414,11.501,17.944,22.117,17.944c1.57,0,3.154-0.161,4.697-0.483
	c6.791-1.436,12.212-5.798,15.259-11.475c0.255,8.026,4.778,15.649,12.427,19.514c3.154,1.583,6.67,2.416,10.173,2.416
	c8.589,0,16.333-4.764,20.198-12.441c3.556-6.939,11.837-23.164,7.65-43.403l-9.314-44.073
	C342.187,127.207,330.846,118.013,317.922,118.013"/>
<path fill="#A4D6C1" d="M313.812,126.287l-45.12,9.542c-7.999,1.691-13.112,9.542-11.421,17.528l12.051,56.903
	c1.691,7.999,9.542,13.098,17.541,11.407c7.985-1.691,13.099-9.542,11.408-17.527l-1.691-8.026l20.976-4.442
	c1.463,7.274-1.651,13.381-4.429,18.842c-3.677,7.287-0.738,16.185,6.563,19.862c7.301,3.677,16.185,0.725,19.862-6.562
	c3.49-6.818,10.589-20.763,6.965-38.276l-9.314-44.033C334.95,130.837,324.469,124.019,313.812,126.287 M291.467,171.984
	l-2.684-12.669l21.003-4.455l2.671,12.669L291.467,171.984z"/>
<path fill="#7568AA" d="M317.926,125.839c9.112,0,17.313,6.361,19.286,15.662l9.3,44.033c3.623,17.527-3.476,31.471-6.965,38.289
	c-2.59,5.154-7.811,8.133-13.206,8.133c-2.241,0-4.522-0.51-6.656-1.583c-7.287-3.677-10.24-12.575-6.563-19.863
	c2.792-5.462,5.892-11.569,4.442-18.843l-20.99,4.442l1.691,8.026c1.704,7.999-3.409,15.85-11.408,17.528
	c-1.033,0.228-2.067,0.335-3.073,0.335c-6.845,0-12.991-4.778-14.467-11.743l-12.038-56.89c-1.691-7.998,3.409-15.849,11.408-17.541
	l45.12-9.542C315.188,125.987,316.57,125.839,317.926,125.839 M291.46,171.979l21.003-4.455l-2.684-12.67l-20.99,4.455
	L291.46,171.979 M317.926,121.504c-1.678,0-3.369,0.161-5.006,0.523l-45.133,9.555c-10.321,2.174-16.95,12.347-14.763,22.681
	l12.038,56.89c1.866,8.817,9.73,15.192,18.722,15.192c1.329,0,2.657-0.148,3.986-0.416c4.993-1.061,9.287-4,12.079-8.281
	c2.778-4.309,3.745-9.408,2.684-14.427l-0.805-3.758l11.77-2.483c-0.429,4.053-2.362,7.851-4.241,11.556
	c-4.764,9.448-0.953,20.976,8.468,25.727c2.671,1.343,5.637,2.04,8.616,2.04c7.274,0,13.823-4.027,17.098-10.536
	c3.65-7.14,11.273-22.05,7.341-41.107l-9.314-44.073C339.118,129.516,329.213,121.504,317.926,121.504 M293.944,162.665
	l12.481-2.643l0.885,4.147l-12.495,2.657L293.944,162.665z"/>
<path fill="#FFFFFF" d="M287.915,147.017c-1.812,0-3.436-1.261-3.825-3.1c-0.443-2.121,0.899-4.201,3.019-4.644l29.915-6.334
	c2.107-0.443,4.187,0.913,4.644,3.019c0.443,2.121-0.899,4.187-3.02,4.631l-29.915,6.347
	C288.465,146.991,288.183,147.017,287.915,147.017"/>
<path fill="#FFFFFF" d="M322.549,219.769c-0.725,0-1.449-0.201-2.107-0.617c-1.812-1.154-2.362-3.57-1.194-5.396
	c4.133-6.522,5.663-16.158,3.879-24.573l-1.611-7.596c-0.201-0.993-1.194-1.637-2.174-1.423l-20.829,4.416
	c-2.094,0.442-4.187-0.899-4.63-3.033c-0.443-2.107,0.899-4.187,3.02-4.631l20.815-4.402c2.523-0.55,5.113-0.053,7.274,1.343
	c2.161,1.423,3.65,3.583,4.187,6.107l1.61,7.596c2.215,10.482,0.322,22.117-4.939,30.398
	C325.098,219.125,323.837,219.769,322.549,219.769"/>
<path fill="#7568AA" d="M242.372,149.533c2.858,0,5.757,0.832,8.294,2.55c12.132,8.24,20.44,23.406,23.137,30.251
	c2.993,7.61-0.752,16.185-8.361,19.178c-1.772,0.711-3.61,1.033-5.409,1.033c-5.905,0-11.488-3.543-13.77-9.381
	c-1.503-3.825-6.791-12.911-12.213-16.574c-6.764-4.604-8.522-13.811-3.945-20.574C232.977,151.816,237.634,149.533,242.372,149.533
	 M242.372,141.709c-7.516,0-14.521,3.704-18.736,9.918c-3.395,4.993-4.643,11.032-3.503,16.964
	c1.141,5.931,4.509,11.071,9.515,14.468c3.517,2.389,8.106,9.85,9.327,12.964c3.422,8.723,11.689,14.346,21.057,14.346
	c2.832,0,5.623-0.523,8.281-1.57c5.623-2.201,10.052-6.469,12.454-12.012c2.429-5.556,2.536-11.702,0.322-17.325
	c-3.221-8.2-12.334-24.56-26.023-33.847C251.296,143.065,246.908,141.709,242.372,141.709"/>
<path fill="#7568AA" d="M227.107,66.873c8.173,0,14.803,6.629,14.803,14.803h12.079c10.898,0,19.728,8.831,19.728,19.729v7.408
	c0,30.84-19.084,47.173-48.636,47.173h-11.287v19.071c0,8.173-6.63,14.789-14.803,14.789c-8.173,0-14.803-6.616-14.803-14.789
	v-31.405c0-3.945,1.557-7.529,4.066-10.173c3.06,2.067,6.764,3.288,10.737,3.288c6.361,0,12.011-3.114,15.487-7.918h10.602
	c15.675,0,21.513-5.436,21.513-20.037h-32.8v8.804c0,8.186-6.63,14.816-14.803,14.816c-8.173,0-14.803-6.629-14.803-14.816V96.465
	c0-8.159,6.63-14.789,14.803-14.789h13.326C212.317,73.502,218.934,66.873,227.107,66.873 M227.107,59.049
	c-9.717,0-18.038,6.173-21.231,14.803h-6.885c-12.482,0-22.627,10.133-22.627,22.614v21.152c0,4.858,1.53,9.341,4.12,13.018
	c-2.684,3.798-4.12,8.308-4.12,13.018v31.405c0,12.468,10.146,22.627,22.627,22.627c12.468,0,22.627-10.159,22.627-22.627V163.81
	h3.462c16.802,0,30.894-4.898,40.758-14.132c10.28-9.649,15.715-23.782,15.715-40.866v-7.408c0-15.206-12.374-27.553-27.566-27.553
	h-5.65C245.145,65.222,236.837,59.049,227.107,59.049 M221.618,116.636h16.024c-0.349,0.832-0.765,1.477-1.261,1.946
	c-1.745,1.624-5.543,2.43-11.3,2.43h-3.718c0.161-1.101,0.255-2.241,0.255-3.395V116.636z"/>
<path fill="#A4D6C1" d="M246.257,193.164c2.993,7.597,11.582,11.341,19.191,8.348c7.609-2.992,11.34-11.569,8.347-19.178
	c-2.684-6.845-11.005-22.01-23.124-30.251c-6.764-4.576-15.971-2.819-20.56,3.933c-4.59,6.764-2.832,15.971,3.932,20.573
	C239.466,180.253,244.754,189.339,246.257,193.164"/>
<path fill="#7568AA" d="M242.372,149.531c2.858,0,5.757,0.832,8.294,2.563c12.132,8.227,20.44,23.393,23.137,30.251
	c2.993,7.596-0.752,16.185-8.361,19.164c-1.772,0.711-3.61,1.034-5.409,1.034c-5.905,0-11.488-3.544-13.77-9.382
	c-1.503-3.825-6.791-12.91-12.213-16.574c-6.764-4.604-8.522-13.797-3.945-20.56C232.977,151.812,237.634,149.531,242.372,149.531
	 M242.372,145.182c-6.362,0-12.294,3.141-15.863,8.402c-2.872,4.228-3.919,9.327-2.953,14.346c0.953,5.02,3.811,9.382,8.052,12.24
	c4.361,2.965,9.22,11.071,10.602,14.575c2.899,7.381,9.905,12.159,17.823,12.159c2.402,0,4.751-0.457,7.006-1.343
	c4.751-1.879,8.509-5.476,10.549-10.173c2.04-4.684,2.134-9.891,0.268-14.655c-2.872-7.288-11.73-23.406-24.748-32.237
	C249.914,146.337,246.21,145.182,242.372,145.182"/>
<path fill="#A4D6C1" d="M273.721,101.408c0-10.897-8.831-19.741-19.728-19.741h-12.092c0-8.16-6.617-14.79-14.79-14.79
	c-8.173,0-14.803,6.63-14.803,14.79h-13.313c-8.186,0-14.803,6.629-14.803,14.803v21.151c0,8.173,6.617,14.816,14.803,14.816
	c8.173,0,14.79-6.643,14.79-14.816v-8.804h32.813c0,14.602-5.838,20.038-21.513,20.038h-10.602
	c-3.476,4.791-9.126,7.918-15.488,7.918c-3.986,0-7.676-1.221-10.736-3.288c-2.523,2.644-4.067,6.227-4.067,10.16v31.405
	c0,8.186,6.617,14.803,14.803,14.803c8.173,0,14.79-6.616,14.79-14.803v-19.071h11.3c29.552,0,48.637-16.32,48.637-47.161V101.408z"
	/>
<path fill="#7568AA" d="M227.103,66.876c8.173,0,14.803,6.63,14.803,14.79h12.079c10.897,0,19.742,8.844,19.742,19.741v7.408
	c0,30.841-19.098,47.161-48.637,47.161h-11.3v19.071c0,8.186-6.63,14.803-14.803,14.803c-8.173,0-14.79-6.616-14.79-14.803v-31.405
	c0-3.933,1.544-7.516,4.053-10.16c3.06,2.067,6.764,3.288,10.737,3.288c6.361,0,12.011-3.127,15.501-7.918h10.602
	c15.675,0,21.5-5.436,21.5-20.038h-32.8v8.804c0,8.173-6.63,14.816-14.803,14.816c-8.173,0-14.79-6.643-14.79-14.816V96.469
	c0-8.173,6.617-14.803,14.79-14.803h13.326C212.313,73.506,218.943,66.876,227.103,66.876 M227.103,62.528
	c-9.059,0-16.669,6.321-18.641,14.789h-9.475c-10.562,0-19.151,8.603-19.151,19.151v21.151c0,5.033,1.946,9.609,5.113,13.032
	c-3.288,3.544-5.113,8.16-5.113,12.991v31.405c0,10.548,8.589,19.15,19.151,19.15c10.562,0,19.151-8.603,19.151-19.15v-14.709h6.952
	c15.89,0,29.163-4.563,38.37-13.206c9.556-8.965,14.615-22.212,14.615-38.317v-7.408c0-13.272-10.804-24.09-24.09-24.09h-8.227
	C243.785,68.85,236.176,62.528,227.103,62.528 M218.138,113.151h23.889c-0.967,8.684-5.382,11.354-16.937,11.354h-8.227
	c0.818-2.134,1.275-4.455,1.275-6.885V113.151z"/>
<path fill="#FFFFFF" d="M224.646,95.484c-2.161,0-3.919-1.744-3.919-3.905v-9.14c0-2.161,1.758-3.905,3.919-3.905
	c2.16,0,3.919,1.744,3.919,3.905v9.14C228.565,93.74,226.806,95.484,224.646,95.484"/>
<path fill="#FFFFFF" d="M229.004,142.704c-2.027,0-3.745-1.569-3.906-3.637c-0.147-2.16,1.476-4.026,3.623-4.187
	c19.071-1.383,25.204-9.784,25.204-34.572c0-2.657-2.161-4.831-4.818-4.831h-48.059c-1.02,0-1.852,0.845-1.852,1.852
	c0,2.161-1.745,3.919-3.906,3.919c-2.16,0-3.919-1.758-3.919-3.919c0-5.328,4.348-9.676,9.676-9.676h48.059
	c6.979,0,12.642,5.677,12.642,12.656c0,24.024-5.516,40.436-32.451,42.383C229.205,142.704,229.097,142.704,229.004,142.704"/>
<path fill="#FFFFFF" d="M268.702,184.514c0,2.484-2.013,4.483-4.496,4.483s-4.496-2-4.496-4.483c0-2.496,2.013-4.509,4.496-4.509
	S268.702,182.019,268.702,184.514"/>
<path fill="#7568AA" d="M70.839,48.748c1.731,0,3.489,0.268,5.234,0.818c9.086,2.886,14.145,12.615,11.206,21.688
	c-3.328,10.253-7.516,23.15-2.107,37.282l18.212,47.47l41.604-15.944l-23.661-61.681c-3.422-8.898,1.02-18.883,9.931-22.306
	c2.027-0.791,4.12-1.154,6.173-1.154c6.938,0,13.488,4.214,16.132,11.086l36.853,96.051c0,0.013,0,0.013,0.014,0.027
	c3.409,8.897-1.047,18.896-9.945,22.291c-2.027,0.792-4.12,1.154-6.173,1.154c-6.938,0-13.488-4.214-16.118-11.085l-0.832-2.161
	l-50.797,19.487c-2.926,1.114-5.905,1.651-8.844,1.651c-9.918,0-19.272-6.026-23.03-15.836l-21.741-56.675
	c-9.797-25.54-2.55-47.872,1.436-60.152C56.76,53.445,63.538,48.748,70.839,48.748 M70.839,40.91L70.839,40.91
	c-10.911,0-20.52,7.006-23.902,17.448c-4.228,13.032-12.092,37.229-1.302,65.359l21.741,56.675
	c4.792,12.468,16.977,20.856,30.344,20.856c3.972,0,7.905-0.725,11.649-2.161l44.06-16.91c4.603,6.859,12.441,11.18,20.883,11.18
	c3.073,0,6.093-0.55,8.979-1.664c12.696-4.872,19.178-18.991,14.696-31.74l-0.161-0.779l-0.362-0.591
	c-3.168-8.281-33.874-88.307-36.424-94.937l-0.161-0.429l-0.014-0.014c-3.691-9.635-13.112-16.104-23.433-16.104
	c-3.073,0-6.093,0.564-8.978,1.664c-6.254,2.416-11.207,7.099-13.944,13.219c-2.738,6.12-2.912,12.938-0.51,19.205l20.869,54.367
	l-26.962,10.334l-15.421-40.155c-4.415-11.528-0.885-22.425,2.228-32.049c2.08-6.361,1.53-13.152-1.53-19.111
	c-3.073-5.999-8.307-10.428-14.736-12.467C75.979,41.313,73.415,40.91,70.839,40.91"/>
<path fill="#F6BEC8" d="M153.565,66.008c-3.422-8.897-13.408-13.34-22.305-9.931c-8.911,3.422-13.354,13.408-9.931,22.306
	l23.661,61.681l-41.604,15.944l-18.212-47.47c-5.422-14.132-1.221-27.029,2.107-37.282c2.939-9.073-2.12-18.802-11.206-21.701
	c-9.086-2.886-18.749,2.147-21.688,11.206c-3.986,12.267-11.247,34.612-1.449,60.151l21.755,56.663
	c4.872,12.736,19.138,19.084,31.874,14.199l50.797-19.487l0.832,2.161c3.409,8.911,13.394,13.354,22.292,9.931
	c8.898-3.408,13.354-13.394,9.945-22.291L153.565,66.008z"/>
<path fill="#7568AA" d="M70.839,48.744c1.731,0,3.489,0.269,5.234,0.818c9.086,2.899,14.145,12.615,11.206,21.688
	c-3.328,10.267-7.516,23.164-2.107,37.283l18.212,47.469l41.604-15.944l-23.661-61.681c-3.422-8.898,1.02-18.883,9.931-22.305
	c2.027-0.779,4.12-1.154,6.173-1.154c6.938,0,13.488,4.228,16.132,11.085l36.867,96.092c3.409,8.898-1.047,18.883-9.945,22.292
	c-2.027,0.778-4.12,1.154-6.173,1.154c-6.938,0-13.488-4.228-16.118-11.099l-0.832-2.16l-50.797,19.486
	c-2.926,1.114-5.905,1.651-8.844,1.651c-9.918,0-19.272-6.026-23.03-15.836l-21.741-56.675c-9.797-25.54-2.55-47.872,1.436-60.138
	C56.76,53.441,63.538,48.744,70.839,48.744 M70.839,44.395L70.839,44.395c-9.395,0-17.675,6.039-20.601,15.032
	c-4.094,12.615-11.703,36.075-1.356,63.023l21.741,56.689c4.281,11.139,15.165,18.641,27.096,18.641
	c3.556,0,7.046-0.658,10.401-1.945l46.825-17.957c3.623,7.247,11.166,12.011,19.366,12.011c2.644,0,5.247-0.482,7.744-1.449
	c11.126-4.268,16.695-16.789,12.427-27.915c-0.349-0.926-34.719-90.495-36.759-95.824l-0.108-0.255
	c-3.181-8.294-11.286-13.877-20.185-13.877c-2.644,0-5.247,0.483-7.73,1.436c-5.395,2.081-9.649,6.12-12.011,11.394
	c-2.349,5.274-2.496,11.139-0.43,16.534l22.104,57.615l-33.471,12.83l-16.655-43.403c-4.858-12.669-1.127-24.197,2.174-34.357
	c1.785-5.502,1.302-11.327-1.329-16.454c-2.657-5.167-7.167-8.992-12.696-10.749C75.267,44.731,73.053,44.395,70.839,44.395"/>
<path fill="#FFFFFF" d="M154.181,133.492c-1.57,0-3.06-0.953-3.65-2.509l-21.272-55.468c-0.792-2.027,0.228-4.282,2.242-5.06
	c2.027-0.778,4.281,0.228,5.059,2.254l21.272,55.468c0.779,2.013-0.228,4.282-2.255,5.047
	C155.12,133.411,154.65,133.492,154.181,133.492"/>
<path fill="#FFFFFF" d="M173.23,166.689c0.885,2.322-0.269,4.912-2.59,5.812c-2.308,0.885-4.912-0.282-5.797-2.59
	c-0.886-2.322,0.268-4.925,2.577-5.798C169.741,163.213,172.344,164.367,173.23,166.689"/>
<path fill="#FFFFFF" d="M90.439,175.942c-1.745,0-3.49-0.362-5.14-1.1c-3.086-1.383-5.448-3.879-6.657-7.019l-19.876-51.804
	c-4.214-11.005-3.691-23.137-2.993-29.404c0.242-2.148,2.174-3.704,4.321-3.449c2.147,0.228,3.704,2.161,3.462,4.308
	c-1.047,9.449-0.134,18.829,2.523,25.741l19.876,51.804c0.456,1.181,1.356,2.147,2.523,2.67c1.181,0.523,2.483,0.55,3.691,0.094
	l27.754-10.629c2.013-0.792,4.281,0.215,5.059,2.241c0.765,2.027-0.241,4.282-2.255,5.06l-27.754,10.642
	C93.499,175.66,91.969,175.942,90.439,175.942"/>
<path fill="#FFFFFF" d="M69.522,61.171c0.885,2.309-0.269,4.912-2.577,5.812c-2.322,0.885-4.925-0.282-5.811-2.604
	c-0.886-2.308,0.268-4.912,2.577-5.798C66.032,57.696,68.636,58.85,69.522,61.171"/>
<path fill="#F6BEC8" d="M291.336,96.612c-1.678,0-3.235-1.1-3.745-2.791c-3.127-10.347-11.461-19.353-19.822-21.419
	c-2.107-0.51-3.382-2.631-2.872-4.724c0.523-2.108,2.644-3.382,4.737-2.873c11.058,2.724,21.527,13.716,25.459,26.761
	c0.617,2.067-0.55,4.241-2.631,4.872C292.101,96.559,291.711,96.612,291.336,96.612"/>
<path fill="#F6BEC8" d="M301.952,94.043c-1.705,0-3.275-1.127-3.758-2.845c-3.181-11.085-11.058-24.237-23.634-27.874
	c-2.067-0.605-3.261-2.778-2.671-4.845c0.618-2.094,2.792-3.288,4.858-2.684c13.273,3.852,24.104,16.279,28.975,33.243
	c0.591,2.081-0.617,4.255-2.684,4.845C302.676,93.99,302.3,94.043,301.952,94.043"/>
<path fill="#A4D6C1" d="M182.477,240.018c-8.992,0-17.971-2.603-24.574-7.556c-1.731-1.288-2.08-3.757-0.792-5.489
	c1.302-1.731,3.758-2.08,5.489-0.778c8.254,6.187,21.836,7.797,32.277,3.825c2.013-0.778,4.281,0.229,5.046,2.268
	c0.765,2.013-0.242,4.268-2.268,5.047C192.891,239.147,187.684,240.018,182.477,240.018"/>
<path fill="#A4D6C1" d="M182.457,251.906c-11.166,0-22.561-3.717-30.774-10.575c-1.664-1.396-1.892-3.852-0.51-5.516
	c1.382-1.664,3.852-1.892,5.516-0.496c10.079,8.401,25.875,11.139,38.423,6.683c2.04-0.738,4.268,0.322,4.992,2.362
	c0.738,2.04-0.322,4.281-2.362,5.006C192.925,251.075,187.718,251.906,182.457,251.906"/>
<path fill="#A4D6C1" d="M571.63,86.572c-1.235,0-2.47-0.59-3.222-1.691c-8.481-12.267-17.352-16.306-31.619-14.413
	c-2.147,0.282-4.12-1.221-4.402-3.355c-0.282-2.148,1.235-4.12,3.369-4.402c17.232-2.282,28.922,3.006,39.094,17.715
	c1.221,1.785,0.778,4.214-0.994,5.449C573.173,86.344,572.394,86.572,571.63,86.572"/>
<path fill="#A4D6C1" d="M579.677,79.402c-1.329,0-2.604-0.671-3.355-1.892c-7.435-12.199-17.796-18.735-29.942-18.91
	c-2.174-0.026-3.892-1.812-3.865-3.972c0.027-2.134,1.771-3.852,3.905-3.852h0.067c14.763,0.202,27.741,8.254,36.531,22.668
	c1.127,1.839,0.537,4.255-1.302,5.382C581.072,79.201,580.374,79.402,579.677,79.402"/>
<path fill="#F6BEC8" d="M517.396,249.113c-4.805,0-9.623-0.966-13.958-2.979c-1.959-0.899-2.818-3.234-1.906-5.18
	c0.899-1.972,3.234-2.819,5.194-1.919c7.704,3.557,17.809,2.832,24.547-1.772c1.785-1.221,4.228-0.738,5.435,1.034
	c1.221,1.798,0.765,4.228-1.02,5.449C530.468,247.288,523.945,249.113,517.396,249.113"/>
<path fill="#F6BEC8" d="M516.866,261.119c-5.718,0-11.582-1.087-17.058-3.637c-1.959-0.913-2.805-3.234-1.892-5.193
	c0.899-1.959,3.234-2.805,5.194-1.906c12.012,5.583,26.372,2.577,34.357-3.274c1.745-1.288,4.201-0.899,5.476,0.845
	c1.288,1.731,0.899,4.187-0.846,5.462C535.91,257.965,526.596,261.119,516.866,261.119"/>
<polygon fill="#FFF3B8" points="243.361,222.049 256.795,237.134 276.845,234.611 266.659,252.045 275.248,270.337 255.507,266.029 
	240.77,279.866 238.771,259.762 221.069,250.018 239.563,241.898 "/>
<path fill="#7568AA" d="M243.361,222.049l13.434,15.085l20.051-2.523l-10.186,17.434l8.589,18.292l-19.742-4.308l-14.736,13.837
	l-1.999-20.105l-17.702-9.743l18.494-8.12L243.361,222.049 M243.361,214.224c-0.698,0-1.396,0.094-2.081,0.283
	c-2.885,0.791-5.059,3.154-5.61,6.08l-3.019,15.782l-14.736,6.483c-2.724,1.194-4.536,3.838-4.67,6.818
	c-0.134,2.966,1.436,5.771,4.053,7.207l14.078,7.757l1.61,15.998c0.295,2.979,2.255,5.502,5.046,6.562
	c0.885,0.336,1.812,0.497,2.738,0.497c1.959,0,3.892-0.739,5.368-2.121l11.73-11.005l15.702,3.422
	c0.564,0.12,1.114,0.188,1.678,0.188c2.349,0,4.617-1.06,6.12-2.952c1.866-2.335,2.242-5.516,0.967-8.213l-6.845-14.548l8.12-13.904
	c1.503-2.577,1.409-5.771-0.228-8.268c-1.463-2.214-3.932-3.503-6.536-3.503c-0.322,0-0.644,0.013-0.98,0.053l-15.957,2.013
	l-10.696-12.012C247.696,215.151,245.562,214.224,243.361,214.224"/>
<path fill="#F6BEC8" d="M257.837,34.789c0,7.073-5.731,12.817-12.803,12.817s-12.817-5.744-12.817-12.817
	c0-7.058,5.744-12.803,12.817-12.803S257.837,27.731,257.837,34.789"/>
<path fill="#7568AA" d="M245.032,21.985c7.072,0,12.803,5.745,12.803,12.804c0,7.072-5.731,12.816-12.803,12.816
	c-7.073,0-12.817-5.744-12.817-12.816C232.215,27.729,237.959,21.985,245.032,21.985 M245.032,14.16
	c-11.381,0-20.641,9.247-20.641,20.628c0,11.394,9.26,20.64,20.641,20.64c11.381,0,20.641-9.246,20.641-20.64
	C265.673,23.408,256.413,14.16,245.032,14.16"/>
<path fill="#C8E7F2" d="M541.709,30.871c0,7.086-5.744,12.831-12.844,12.831c-7.086,0-12.831-5.745-12.831-12.831
	c0-7.085,5.744-12.83,12.831-12.83C535.965,18.041,541.709,23.785,541.709,30.871"/>
<path fill="#7568AA" d="M528.871,18.041c7.086,0,12.843,5.744,12.843,12.83s-5.757,12.83-12.843,12.83
	c-7.086,0-12.844-5.744-12.844-12.83S521.785,18.041,528.871,18.041 M528.871,10.202c-11.395,0-20.668,9.274-20.668,20.668
	c0,11.407,9.273,20.668,20.668,20.668c11.394,0,20.667-9.26,20.667-20.668C549.539,19.477,540.265,10.202,528.871,10.202"/>
<path fill="#C8E7F2" d="M586.145,245.496c0,2.899-2.349,5.248-5.248,5.248c-2.885,0-5.233-2.349-5.233-5.248
	c0-2.898,2.348-5.233,5.233-5.233C583.796,240.263,586.145,242.598,586.145,245.496"/>
<path fill="#7568AA" d="M580.901,240.267c2.898,0,5.247,2.335,5.247,5.234c0,2.899-2.349,5.233-5.247,5.233
	c-2.886,0-5.234-2.335-5.234-5.233C575.667,242.602,578.015,240.267,580.901,240.267 M580.901,234.174
	c-6.241,0-11.328,5.087-11.328,11.328c0,6.254,5.087,11.327,11.328,11.327c6.253,0,11.34-5.073,11.34-11.327
	C592.241,239.26,587.154,234.174,580.901,234.174"/>
<path fill="#F6BEC8" d="M213.342,215.668c0,2.899-2.349,5.248-5.234,5.248c-2.899,0-5.247-2.349-5.247-5.248
	c0-2.898,2.348-5.247,5.247-5.247C210.993,210.42,213.342,212.77,213.342,215.668"/>
<path fill="#7568AA" d="M208.105,210.424c2.885,0,5.234,2.348,5.234,5.247s-2.348,5.234-5.234,5.234
	c-2.899,0-5.248-2.335-5.248-5.234S205.206,210.424,208.105,210.424 M208.105,204.33c-6.254,0-11.34,5.087-11.34,11.341
	s5.086,11.314,11.34,11.314c6.241,0,11.327-5.06,11.327-11.314S214.346,204.33,208.105,204.33"/>
<path fill="#C8E7F2" d="M316.566,64.645c0,2.899-2.349,5.248-5.234,5.248c-2.899,0-5.247-2.349-5.247-5.248
	c0-2.898,2.348-5.247,5.247-5.247C314.217,59.398,316.566,61.747,316.566,64.645"/>
<path fill="#7568AA" d="M311.329,59.401c2.885,0,5.234,2.349,5.234,5.248c0,2.899-2.348,5.233-5.234,5.233
	c-2.899,0-5.248-2.335-5.248-5.233C306.081,61.75,308.43,59.401,311.329,59.401 M311.329,53.321
	c-6.254,0-11.327,5.074-11.327,11.328s5.073,11.327,11.327,11.327c6.241,0,11.327-5.073,11.327-11.327
	S317.569,53.321,311.329,53.321"/>
<polygon fill="#FFF3B8" points="435.405,208.065 436.761,218.372 446.007,223.083 436.626,227.552 434.989,237.805 427.849,230.263 
	417.583,231.873 422.548,222.761 417.837,213.5 428.051,215.406 "/>
<path fill="#7568AA" d="M435.405,208.064l1.355,10.307l9.247,4.711l-9.381,4.469l-1.637,10.253l-7.14-7.542l-10.267,1.624
	l4.966-9.126l-4.711-9.26l10.213,1.905L435.405,208.064 M435.405,201.984c-1.584,0-3.141,0.618-4.308,1.772l-5.073,5.073
	l-7.073-1.315c-0.362-0.067-0.738-0.107-1.114-0.107c-1.892,0-3.704,0.899-4.872,2.456c-1.382,1.852-1.61,4.335-0.55,6.388
	l3.248,6.415l-3.422,6.308c-1.114,2.04-0.966,4.522,0.376,6.415c1.154,1.637,3.006,2.59,4.966,2.59c0.322,0,0.631-0.026,0.953-0.08
	l7.086-1.114l4.952,5.207c1.168,1.235,2.765,1.906,4.416,1.906c0.604,0,1.208-0.094,1.798-0.269
	c2.214-0.685,3.852-2.577,4.214-4.871l1.127-7.086l6.482-3.086c2.094-0.994,3.449-3.087,3.476-5.409
	c0.04-2.322-1.261-4.456-3.315-5.516l-6.388-3.261l-0.94-7.113c-0.295-2.308-1.879-4.241-4.08-4.993
	C436.72,202.092,436.063,201.984,435.405,201.984"/>
<polygon fill="#FFF3B8" points="48.041,179.625 42.686,188.523 46.967,197.971 36.861,195.623 29.184,202.629 28.299,192.281 
	19.267,187.168 28.836,183.115 30.916,172.942 37.72,180.793 "/>
<path fill="#7568AA" d="M30.917,172.941l6.804,7.851l10.32-1.167l-5.368,8.898l4.295,9.448l-10.119-2.335l-7.663,6.992L28.3,192.294
	l-9.032-5.127l9.569-4.053L30.917,172.941 M30.917,166.847c-0.51,0-1.034,0.067-1.544,0.215c-2.241,0.577-3.959,2.375-4.415,4.657
	l-1.449,7.032l-6.617,2.805c-2.134,0.899-3.57,2.926-3.704,5.234c-0.134,2.322,1.047,4.509,3.073,5.663l6.241,3.544l0.617,7.153
	c0.202,2.308,1.691,4.308,3.852,5.154c0.711,0.282,1.463,0.416,2.214,0.416c1.49,0,2.966-0.55,4.107-1.584l5.301-4.844l6.992,1.624
	c0.456,0.107,0.926,0.147,1.382,0.147c1.798,0,3.53-0.791,4.711-2.227c1.463-1.785,1.798-4.255,0.832-6.375l-2.966-6.536
	l3.718-6.147c1.181-1.986,1.154-4.469-0.094-6.429c-1.128-1.771-3.073-2.805-5.127-2.805c-0.228,0-0.456,0.013-0.684,0.04
	l-7.14,0.805l-4.697-5.435C34.353,167.613,32.662,166.847,30.917,166.847"/>
<polygon fill="#FFF3B8" points="679.073,156.807 690.977,174.362 712.182,174.51 699.164,191.245 705.579,211.457 685.622,204.25 
	668.376,216.597 669.074,195.406 652.004,182.817 672.376,176.925 "/>
<path fill="#7568AA" d="M679.073,156.808l11.904,17.554l21.205,0.147l-13.018,16.736l6.415,20.211l-19.956-7.207l-17.246,12.347
	l0.698-21.191l-17.071-12.588l20.373-5.892L679.073,156.808 M679.073,148.97c-0.349,0-0.725,0.027-1.074,0.081
	c-2.953,0.402-5.422,2.456-6.361,5.274l-5.396,16.225l-16.413,4.751c-2.872,0.818-5.006,3.208-5.529,6.147
	c-0.523,2.939,0.657,5.905,3.059,7.676l13.757,10.133l-0.564,17.099c-0.094,2.965,1.503,5.744,4.133,7.153
	c1.167,0.618,2.429,0.926,3.69,0.926c1.611,0,3.208-0.496,4.563-1.463l13.89-9.958l16.078,5.811c0.872,0.322,1.772,0.47,2.671,0.47
	c1.972,0,3.946-0.752,5.422-2.188c2.147-2.067,2.939-5.18,2.026-8.012l-5.153-16.279l10.481-13.501
	c1.826-2.348,2.161-5.543,0.859-8.227c-1.289-2.683-4.013-4.388-6.979-4.415l-17.098-0.107l-9.595-14.146
	C684.079,150.245,681.637,148.97,679.073,148.97"/>
<path fill="#A4D6C1" d="M407.587,252.823c0,2.899-2.349,5.248-5.248,5.248c-2.885,0-5.234-2.349-5.234-5.248
	c0-2.898,2.348-5.247,5.234-5.247C405.238,247.575,407.587,249.925,407.587,252.823"/>
<path fill="#7568AA" d="M402.345,247.579c2.898,0,5.247,2.348,5.247,5.247c0,2.899-2.349,5.234-5.247,5.234
	c-2.886,0-5.248-2.335-5.248-5.234C397.097,249.928,399.459,247.579,402.345,247.579 M402.345,241.486
	c-6.241,0-11.327,5.087-11.327,11.341c0,6.254,5.086,11.314,11.327,11.314c6.241,0,11.327-5.06,11.327-11.314
	C413.672,246.573,408.586,241.486,402.345,241.486"/>
<polygon fill="#FFF3B8" points="118.591,55.341 116.752,40.296 103.291,33.25 117.061,26.863 119.597,11.912 129.931,23.01 
	144.935,20.796 137.567,34.055 144.318,47.637 129.434,44.725 "/>
<path fill="#7568AA" d="M119.593,11.904l10.334,11.098l15.004-2.214l-7.368,13.259l6.75,13.582l-14.884-2.912l-10.844,10.615
	l-1.825-15.044l-13.474-7.032l13.783-6.402L119.593,11.904 M119.593,5.811c-0.577,0-1.168,0.094-1.745,0.269
	c-2.228,0.658-3.879,2.523-4.268,4.818l-2,11.797l-10.857,5.046c-2.107,0.98-3.476,3.06-3.517,5.382
	c-0.054,2.321,1.208,4.455,3.261,5.529l10.616,5.543l1.449,11.891c0.282,2.295,1.852,4.241,4.04,5.006
	c0.657,0.229,1.342,0.349,2.013,0.349c1.57,0,3.114-0.604,4.268-1.745l8.549-8.374l11.743,2.294
	c0.389,0.067,0.779,0.107,1.168,0.107c1.879,0,3.677-0.858,4.845-2.389c1.409-1.852,1.637-4.335,0.618-6.402l-5.328-10.723
	l5.811-10.455c1.128-2.027,0.993-4.523-0.322-6.429c-1.141-1.664-3.02-2.63-5.006-2.63c-0.295,0-0.59,0.026-0.885,0.067
	l-11.837,1.758l-8.16-8.75C122.881,6.509,121.257,5.811,119.593,5.811"/>
<path fill="#F6BEC8" d="M380.877,209.756c0,7.073-5.731,12.804-12.817,12.804c-7.059,0-12.803-5.731-12.803-12.804
	c0-7.072,5.744-12.803,12.803-12.803C375.147,196.953,380.877,202.684,380.877,209.756"/>
<path fill="#7568AA" d="M368.066,196.951c7.072,0,12.817,5.731,12.817,12.803s-5.744,12.803-12.817,12.803
	c-7.073,0-12.803-5.731-12.803-12.803S360.993,196.951,368.066,196.951 M368.066,189.113c-11.381,0-20.641,9.26-20.641,20.641
	s9.26,20.641,20.641,20.641c11.381,0,20.641-9.26,20.641-20.641S379.447,189.113,368.066,189.113"/>
<path fill="#A4D6C1" d="M647.277,238.092c0,9.382-7.597,16.991-16.991,16.991c-9.381,0-16.977-7.61-16.977-16.991
	c0-9.368,7.596-16.99,16.977-16.99C639.681,221.102,647.277,228.725,647.277,238.092"/>
<path fill="#7568AA" d="M630.292,221.106c9.381,0,16.99,7.61,16.99,16.991c0,9.381-7.61,16.977-16.99,16.977
	c-9.382,0-16.991-7.596-16.991-16.977C613.301,228.716,620.911,221.106,630.292,221.106 M630.292,213.282
	c-13.689,0-24.816,11.126-24.816,24.816c0,13.689,11.126,24.815,24.816,24.815c13.689,0,24.815-11.126,24.815-24.815
	C655.107,224.408,643.981,213.282,630.292,213.282"/>
<path fill="#F6BEC8" d="M670.043,253.752c0,4.979-4.04,9.019-9.019,9.019c-4.979,0-9.019-4.04-9.019-9.019
	c0-4.992,4.04-9.032,9.019-9.032C666.003,244.721,670.043,248.761,670.043,253.752"/>
<path fill="#7568AA" d="M661.026,244.723c4.979,0,9.019,4.04,9.019,9.033c0,4.979-4.04,9.019-9.019,9.019
	c-4.979,0-9.019-4.04-9.019-9.019C652.006,248.763,656.046,244.723,661.026,244.723 M661.026,236.899
	c-9.287,0-16.857,7.557-16.857,16.857c0,9.287,7.57,16.843,16.857,16.843c9.286,0,16.856-7.556,16.856-16.843
	C677.882,244.455,670.312,236.899,661.026,236.899"/>
<path fill="#A4D6C1" d="M74.351,247.765c0,4.98-4.04,9.019-9.019,9.019s-9.019-4.04-9.019-9.019c0-4.992,4.04-9.019,9.019-9.019
	S74.351,242.773,74.351,247.765"/>
<path fill="#7568AA" d="M65.328,238.748c4.979,0,9.019,4.026,9.019,9.019c0,4.979-4.04,9.019-9.019,9.019
	c-4.979,0-9.019-4.04-9.019-9.019C56.309,242.774,60.349,238.748,65.328,238.748 M65.328,230.909
	c-9.287,0-16.843,7.556-16.843,16.857c0,9.287,7.556,16.856,16.843,16.856c9.287,0,16.856-7.569,16.856-16.856
	C82.184,238.466,74.615,230.909,65.328,230.909"/>
<polygon fill="#FFF3B8" points="495.176,21.421 498.302,40.788 516.031,49.189 498.571,58.154 496.061,77.614 482.144,63.791 
	462.859,67.414 471.716,49.9 462.322,32.682 481.701,35.674 "/>
<path fill="#7568AA" d="M495.176,21.421l3.127,19.366l17.729,8.401l-17.46,8.965l-2.51,19.46L482.144,63.79l-19.286,3.624
	l8.858-17.514l-9.395-17.219l19.379,2.993L495.176,21.421 M495.176,13.583c-2.121,0-4.187,0.859-5.691,2.47l-10.656,11.26
	l-15.313-2.375c-0.403-0.053-0.805-0.093-1.208-0.093c-2.523,0-4.912,1.234-6.402,3.328c-1.718,2.443-1.892,5.65-0.456,8.254
	l7.422,13.608l-7.006,13.837c-1.342,2.657-1.06,5.865,0.725,8.24c1.503,1.986,3.838,3.127,6.267,3.127
	c0.483,0,0.966-0.041,1.449-0.134l15.233-2.859l11.005,10.938c1.49,1.476,3.489,2.268,5.516,2.268c0.846,0,1.705-0.134,2.536-0.416
	c2.819-0.967,4.845-3.449,5.234-6.402l1.986-15.394l13.796-7.072c2.644-1.369,4.295-4.12,4.254-7.086
	c-0.054-2.979-1.785-5.677-4.482-6.952l-14.011-6.643l-2.469-15.326c-0.47-2.939-2.577-5.342-5.435-6.228
	C496.719,13.704,495.954,13.583,495.176,13.583"/>
<path fill="#C8E7F2" d="M128.033,229.52c0,9.382-7.596,16.991-17.004,16.991c-9.381,0-16.99-7.61-16.99-16.991
	c0-9.368,7.61-16.99,16.99-16.99C120.437,212.53,128.033,220.152,128.033,229.52"/>
<path fill="#7568AA" d="M111.035,212.534c9.394,0,17.004,7.61,17.004,16.991c0,9.381-7.61,16.977-17.004,16.977
	c-9.395,0-17.004-7.596-17.004-16.977C94.03,220.143,101.64,212.534,111.035,212.534 M111.035,204.709
	c-13.703,0-24.828,11.126-24.828,24.816c0,13.689,11.125,24.815,24.828,24.815c13.702,0,24.828-11.126,24.828-24.815
	C135.863,215.836,124.737,204.709,111.035,204.709"/>
</svg>
