<?xml version="1.0" encoding="utf-8"?>
<!-- Generator: Adobe Illustrator 27.1.1, SVG Export Plug-In . SVG Version: 6.00 Build 0)  -->
<svg version="1.1" id="레이어_1" xmlns="http://www.w3.org/2000/svg" xmlns:xlink="http://www.w3.org/1999/xlink" x="0px"
	 y="0px" viewBox="0 0 720 115.263" enable-background="new 0 0 720 115.263" xml:space="preserve">
<path d="M0.206,54.98c-0.24,0.165-0.285,0.479-0.06,0.689c0.224,0.21,0.561,0.262,0.801,0.105c0.247-0.03,1.182,0.314,1.736,0.524
	c1.287,0.486,2.387,0.898,3.016,0.471c9.197-6.293,17.031-8.643,27.687-0.943c1.28,0.928,2.597,1.961,4.026,3.158
	c0.12,0.112,0.299,0.172,0.471,0.165c0.172,0,0.329-0.06,0.427-0.172c0.404-0.449,0.823-0.876,1.242-1.257
	c0.067-0.06,0.112-0.135,0.127-0.21c0.015-0.045,0.015-0.09,0.007-0.135c-0.015-0.127-0.097-0.247-0.217-0.337
	C25.656,47.026,12.815,46.352,0.206,54.98"/>
<path d="M240.611,103.347c-0.292-0.419-1.048-0.726-1.579-0.823c-4.632-0.853-9.653-1.04-14.457,0.045
	c-4.079,0.928-6.697,1.526-9.923,2.597c-0.007,0-2.297,0.771-2.305,0.778c-16.725,5.717-32.963,8.052-45.407,5.44
	c-6.376-1.339-9.915-4.797-9.96-9.698c0.008-0.03,0.314-3.188,0.913-4.699c3.225-6.705,10.806-11.913,18.027-12.392
	c2.926-0.195,4.909-0.022,6.42,0.569c1.28,1.392,1.482,2.028,1.601,2.649c0.397,2.08-0.247,4.28-1.863,6.361
	c-2.582,3.337-7.363,5.964-12.774,7.019c-3.27,0.636-6.555,0.666-9.496,0.09c-0.067-0.015-0.135-0.015-0.202,0l-1.594,0.299
	c-0.209,0.037-0.382,0.202-0.419,0.397c-0.052,0.187,0.067,0.374,0.262,0.441c0.397,0.142,0.883,0.337,1.414,0.546
	c1.654,0.659,3.712,1.474,5.276,1.586c0.127,0.008,0.262-0.03,0.367-0.105l1.789-1.309c0.434,0.008,0.883,0,1.332-0.015l0.958,1.19
	c0.09,0.112,0.247,0.172,0.404,0.157c1.078-0.12,2.14-0.284,3.165-0.494c1.048-0.217,2.058-0.479,3.106-0.808
	c0.172-0.06,0.314-0.195,0.352-0.359l0.374-1.429c0.412-0.157,0.801-0.322,1.197-0.501l2.178,0.486
	c0.12,0.03,0.254,0.008,0.367-0.052c1.773-0.921,3.337-2.013,4.647-3.233c0.18-0.18,0.202-0.434,0.053-0.599l-0.98-1.033
	c0.172-0.202,0.337-0.404,0.486-0.606l2.499-0.479c0.157-0.03,0.292-0.127,0.367-0.254c0.763-1.287,1.018-2.619,1.227-3.974
	c0.037-0.217-0.112-0.412-0.337-0.449l-2.125-0.374c-0.015-0.09-0.03-0.18-0.053-0.269c-0.015-0.075-0.03-0.157-0.052-0.232
	l1.744-1.16c0.202-0.127,0.277-0.359,0.187-0.546c-0.105-0.232-0.142-0.314-0.15-0.344c-0.023-0.082-0.067-0.15-0.135-0.195
	c-0.337-0.659-0.696-1.197-0.988-1.631c-0.105-0.165-0.202-0.307-0.284-0.434c-0.06-0.097-0.165-0.165-0.284-0.187l-2.013-0.397
	c-0.052-0.03-0.097-0.06-0.15-0.097c-0.082-0.06-0.15-0.12-0.239-0.18l1.107-1.758c0.127-0.202,0.067-0.457-0.142-0.569
	c-1.527-0.816-3.345-1.354-5.403-1.616c-0.127-0.015-0.262,0.015-0.374,0.09l-2.47,1.616c-0.464-0.022-0.905-0.03-1.347-0.022
	l-0.486-1.467c-0.06-0.187-0.247-0.292-0.464-0.277c-1.16,0.105-2.35,0.269-3.517,0.509c-1.182,0.232-2.387,0.539-3.584,0.913
	c-0.142,0.045-0.254,0.135-0.314,0.254l-1.07,1.923c-0.531,0.202-1.063,0.419-1.586,0.636l-2.065-0.673
	c-0.127-0.045-0.269-0.03-0.404,0.03c-2.222,1.1-4.295,2.41-6.159,3.884c-0.165,0.135-0.224,0.344-0.15,0.516l0.621,1.414
	c-0.352,0.322-0.673,0.636-0.98,0.95l-2.888,0.531c-0.12,0.022-0.24,0.09-0.322,0.187c-1.354,1.624-2.335,3.285-2.896,4.931
	c-0.075,0.217,0.045,0.449,0.277,0.509l1.99,0.531c-0.022,0.09-0.037,0.18-0.052,0.269c-0.023,0.165-0.045,0.322-0.06,0.479
	l-2.477,1.504c-0.157,0.097-0.247,0.254-0.239,0.427c0.015,0.352,0.082,0.681,0.172,1.018c-4.325-0.127-8.927-0.516-14.42-1.22
	c-24.245-3.12-41.583-10.154-55.734-20.414c-1.541-1.122-3.45-2.38-4.617-3.345c-0.12-0.097-0.292-0.142-0.457-0.097
	c-0.95,0.254-1.048,0.599-1.931,0.898c-0.165,0.06-0.292,0.187-0.337,0.344c-0.045,0.15,0,0.307,0.12,0.404
	c15.213,12.579,34.37,19.778,62.124,23.347c5.478,0.711,10.716,1.115,15.565,1.205c0.284,0.778,0.644,1.429,1.092,1.983
	c0.105,0.135,0.284,0.187,0.471,0.15l2.387-0.524c0.157,0.352,0.344,0.711,0.561,1.092l-0.659,1.055
	c-0.135,0.21-0.075,0.457,0.135,0.569c0.644,0.344,1.422,0.644,2.454,0.935c1.586,1.654,3.584,2.963,5.792,3.779
	c9.331,3.457,22.921,2.17,34.991,0.456c6.249-0.89,10.798-1.788,17.017-3.756l2.776-0.95c3.704-1.429,6.488-2.327,10.334-3.255
	c4.774-1.16,9.713-1.04,14.323-0.195C240.783,103.938,240.843,103.676,240.611,103.347"/>
<path d="M547.394,76.336c-0.921,0-1.557,0.868-1.557,2.11c0,1.242,0.636,2.11,1.557,2.11h5.418l-0.068,0.396
	c-1.781,11.539-7.446,24.687-11.868,31.197c-0.509,0.756-0.411,1.706-0.09,2.312c0.262,0.501,0.711,0.801,1.182,0.801h0.007
	c0.292,0,0.704-0.097,1.048-0.569c4.692-6.316,11.21-21.05,13.552-33.853l0.052-0.284h5.268l-0.015,0.359
	c-0.225,7.176-1.167,12.706-3.068,17.937l-0.254,0.711l-1.219-2.163c-0.411-0.733-0.995-0.815-1.227-0.815
	c-0.471,0-0.898,0.269-1.19,0.733c-0.337,0.546-0.546,1.541-0.03,2.559l0.449,0.756c0.921,1.631,1.34,2.365,1.37,4.393
	c0.045,0.741,0.209,1.302,0.523,1.789c0.352,0.486,0.898,0.741,1.482,0.688c0.659-0.06,1.235-0.494,1.557-1.167
	c3.69-8.418,5.246-16.051,5.53-27.208c0-1.586-0.823-2.791-1.923-2.791h-6.705l0.037-0.382c0.292-3.195,0.442-6.383,0.464-10.02
	c0-1.744-0.995-2.657-1.983-2.657h-0.007c-0.898,0-1.804,0.801-1.804,2.589c-0.03,3.614-0.187,6.84-0.486,10.154l-0.022,0.314
	H547.394z"/>
<path d="M581.892,67.883c-0.486,0-0.943,0.224-1.272,0.636c-0.404,0.494-0.621,1.227-0.621,2.125v29.551
	c0,1.616,0.943,2.926,2.103,2.926c0.068,0,0.262-0.022,0.329-0.037c5.897-1.145,9.137-10.237,11.988-18.259l0.749-2.088
	c0.232-0.718,0.12-1.557-0.3-2.133c-0.277-0.374-0.666-0.591-1.07-0.591c-0.254,0-0.883,0.09-1.227,0.95l-0.988,2.432
	c-1.901,4.714-4.258,10.574-7.087,12.923l-0.569,0.471V70.645C583.927,68.834,582.902,67.883,581.892,67.883 M575.965,72.111
	c-0.217,0-0.427,0.037-0.636,0.127c-0.846,0.344-1.332,1.302-1.332,2.634v0.008c-0.06,5.328-0.217,11.007-1.399,16.695
	c-0.928,4.49-3.225,8.231-5.253,11.539l-0.876,1.444c-0.427,0.815-0.269,1.773,0.075,2.342c0.277,0.456,0.696,0.718,1.16,0.718
	c0.284,0,0.711-0.105,1.1-0.614l0.254-0.359c2.634-3.749,5.605-7.992,7.034-13.866c1.534-6.099,1.804-12.422,1.863-17.81
	c0.022-0.988-0.24-1.811-0.749-2.327C576.87,72.298,576.422,72.111,575.965,72.111"/>
<path d="M600.565,79.041c-0.546,0-1.033,0.322-1.309,0.861c-0.21,0.426-0.254,0.89-0.254,1.205c0,1.257,0.628,2.103,1.564,2.103
	h9.062l0.03,2.597c0.03,9.766-6.203,18.094-10.409,21.312c-0.517,0.614-0.502,1.706-0.187,2.387
	c0.247,0.554,0.711,0.883,1.227,0.883c0.18,0,0.614-0.15,0.771-0.269c5.934-4.265,12.332-12.849,12.489-24.148
	c0.045-1.018,0.045-1.616,0.037-2.409v-0.352h4.041c2.522,0,4.52-1.781,5.485-4.887c0.165-0.778,0-1.586-0.441-2.132
	c-0.292-0.367-0.689-0.569-1.1-0.569c-0.322,0-1.108,0.135-1.437,1.325c-0.105,0.352-0.711,2.095-2.507,2.095H600.565z
	 M603.843,68.774c-0.898,0-1.527,0.868-1.527,2.11c0,0.314,0.037,0.771,0.239,1.182c0.262,0.546,0.749,0.868,1.288,0.868h13.589
	c0.92,0,1.564-0.846,1.564-2.065c0-1.235-0.643-2.095-1.564-2.095H603.843z"/>
<path d="M719.818,64.706c-0.651,1.661-1.018-1.796-2.192-2.05c-1.572-0.344-1.541,0.501-2.185,0.838
	c-2.686,1.968-3.473,8.86-1.541,15.355c1.115,3.734,1.691,6.675,1.519,8.987c0.053,0.209,0.068,0.457,0.008,0.748
	c-0.18,0.89-0.471,1.654-0.868,2.312c-0.022,0.037-0.045,0.075-0.067,0.112c-0.21,0.344-0.464,0.651-0.741,0.921
	c-0.015,0.022-0.03,0.037-0.045,0.06c-0.023,0.015-0.068,0.052-0.105,0.075c-0.711,0.651-1.624,1.115-2.769,1.362
	c-0.479,0.15-0.935,0.247-1.28,0.217c-2.813,0.397-7.229,0.561-16.148,0.561c-11.337,0-16.845,1.325-18.715,0.217
	c-1.871-1.205-2.866-3.525-2.866-7.049V39.361c0-1.325,0.771-1.871,2.096-1.212c1.212,0.569,2.492,1.212,3.779,1.901
	c0.06,0.008,0.12,0,0.18,0.008c1.16-0.037,2.163,0.06,3.091,0.314c1.092,0.337,2.155,0.763,3.172,1.272
	c1.01,0.509,2.036,1.01,3.076,1.519c1.025,0.494,2.065,0.935,3.098,1.317c0.906,0.329,1.818,0.531,2.784,0.606
	c1.534-0.082,2.993-0.494,4.265-1.242c1.534-0.891,2.507-2.17,2.971-3.906c0.195-0.659,0.277-1.429,0.247-2.29
	c-0.03-0.778-0.367-1.392-1.018-1.886c-0.554-0.419-1.13-0.696-1.706-0.808c-0.21,0.03-0.381,0.06-0.561,0.12
	c-1.235,0.404-2.23,1.063-2.978,1.945c-0.718,0.853-1.025,1.729-0.935,2.664c0.03,0.299,0.12,1.22,2.29,1.631
	c0.434,0.105,0.509,0.389,0.524,0.509c0.045,0.442-0.442,0.666-0.734,0.801c-0.613,0.277-1.033,0.359-1.369,0.262
	c-0.067-0.015-0.172-0.045-0.269-0.075l-0.037-0.008c-0.381,0.12-0.644,0.15-0.868,0.082c-2.133-0.419-3.277-1.317-3.36-2.656
	c-0.082-1.235,0.434-2.454,1.534-3.629c1.055-1.13,2.425-2.043,4.078-2.731c1.227-0.509,2.447-0.711,3.63-0.599
	c0.793-0.082,1.646,0,2.462,0.247c1.085,0.359,1.871,0.92,2.342,1.676c0.457,0.726,0.726,1.512,0.801,2.342
	c0.075,0.838-0.045,1.699-0.337,2.574c-0.299,0.89-0.718,1.646-1.242,2.252c-1.055,1.414-2.447,2.552-4.108,3.352
	c-1.542,0.733-3.225,1.1-5.014,1.1c-0.142,0-0.284-0.008-0.434-0.008c-0.105,0-0.202-0.022-0.307-0.037
	c-0.052-0.008-0.112-0.015-0.164-0.022c-0.053,0.008-0.135,0.015-0.225,0.03c-0.157,0.015-0.314,0.037-0.479,0.03
	c-2.14-0.067-4.116-0.509-5.875-1.325c-1.706-0.793-3.39-1.557-5.058-2.282c-0.831-0.367-1.691-0.659-2.552-0.891l-0.397,1.235
	v40.97c0,1.646,0.659,2.754,1.871,3.188c1.212,0.441,4.954,0.554,13.649,0.554c5.732,0,7.535-0.037,9.952-1.609
	c0.277-6.869,0.277-11.314-0.89-14.158c-0.711-1.736,0.314-3.884,1.766-0.09c1.018,2.642,1.594,4.946,1.594,4.946
	c0.12-0.232,0.628-4.677,1.99-9.384c0.696-2.387,2.222-4.864,3.218-5.897c0.988-1.04,2.963-1.646,4.303-1.616
	c1.871-0.015,2.717,0.449,3.727,1.916C719.392,62.364,720.402,63.232,719.818,64.706 M659.879,59.468
	c0.876,0.876,0.988,1.1,0.988,1.759c0,0.771-0.329,1.212-1.325,1.429l-1.542,0.554c0,6.278,0.112,17.069,0.329,25.772l0.112,1.871
	v1.437v0.217c0,0.659-0.329,1.212-0.883,1.429c-1.317,0.441-2.858,0.771-3.742,0.771c-0.771,0-1.1-0.329-1.1-1.429v-7.049h-19.269
	l-0.112,8.59c0,0.883-0.112,1.325-0.658,1.542c-0.778,0.554-2.754,0.995-3.966,0.995c-0.883,0-1.212-0.337-1.212-1.437
	c0-0.771,0-1.983,0.105-3.412c0.337-8.92,0.554-23.13,0.554-30.725c0-2.649,0-3.749-0.112-7.266l6.166,3.517h17.84l2.432-3.629
	L659.879,59.468z M652.718,83.362l-0.112-22.464h-19.052l-0.105,22.464H652.718z M661.196,7.378c0-0.554-0.217-0.883-0.883-1.541
	L653.489,0l-5.62,5.942h-20.594v2.754h32.492C660.643,8.695,661.196,8.261,661.196,7.378 M653.271,39.092l-5.62,5.949h-20.594v2.754
	h32.596c0.883,0,1.429-0.441,1.429-1.325c0-0.546-0.217-0.883-0.876-1.541L653.271,39.092z M665.604,18.835l-7.49-6.173
	l-5.672,6.098c-0.09,0.082-0.172,0.157-0.292,0.262c-0.801,0.734-1.833,0.636-3.061-0.239c-2.193-2.118-5.163-4.161-8.688-1.137
	c-3.031,2.267-7.012,4.789-10.835,4.176c-2.507-0.404-4.407-1.661-5.088-3.383c-0.464-1.19-0.269-2.432,0.554-3.487
	c1.167-1.504,1.564-2.791,1.182-3.809c-0.352-0.935-1.332-1.437-2.065-1.579c-2.11-0.397-4.542,0.583-5.8,2.335
	c-1.302,1.826-1.227,4.22,0.21,6.735c2.103,3.674,4.535,4.961,7.438,3.944c0.868-0.307,1.197-0.269,1.309-0.187
	c0.135,0.09,0.127,0.404,0.127,0.733c-0.015,0.921-0.037,2.32,2.694,2.387c0.06,0,0.127,0,0.187,0c2.125,0,4.864-0.876,8.149-2.589
	c1.115-0.591,1.998-0.868,3.218-1.242c0.718-0.224,1.519-0.479,2.551-0.846c3.278-1.16,6.032-0.135,6.436,0.232
	c0,0.008,0.015,0.008,0.022,0.008c0.449,0.359,0.965,0.636,1.586,0.621h12.781c0.876,0,1.43-0.546,1.43-1.317
	C666.487,19.823,666.262,19.381,665.604,18.835 M705.189,40.79v2.754v5.837c0,1.108,0.554,1.766,1.766,1.766h2.746
	c1.212,0,1.766-0.658,1.766-1.766V13.26l2.649-1.654c0.658-0.434,0.98-0.988,0.98-1.429c0-0.883-1.646-2.866-5.171-5.949
	c-0.883-0.771-1.759-0.659-2.537,0.112l-3.3,4.078h-33.809c-1.325,0-1.983,0.546-1.541,1.429c0.442,0.883,0.988,1.325,1.983,1.325
	h34.467V40.79z M653.489,25.435l-5.62,5.949h-20.594v2.754h32.492c0.876,0,1.429-0.442,1.429-1.325c0-0.546-0.217-0.883-0.883-1.541
	L653.489,25.435z"/>
<path d="M612.922,18.757c-0.666-0.337-1.452-0.426-2.215-0.329c-0.726,0.075-1.437,0.329-1.99,0.771
	c-0.397,0.314-0.831,0.913-0.749,1.594c0.09,0.718,0.711,1.354,1.863,1.871c0.756,0.344,1.22,0.965,1.302,1.751
	c0.127,1.145-0.561,2.402-1.848,3.352c-1.968,1.482-4.954,1.235-7.319,0.86c-1.436-0.367-2.29-0.771-3.988-1.579
	c-0.703-0.337-1.549-0.741-2.649-1.242c-5.725-2.537-10.791-3.734-15.123-3.562c-4.685,0.18-8.449,1.549-11.195,4.063
	c-1.392,1.28-1.983,2.028-2.514,2.926l-5.485,5.829h-23.302l-0.037-9.503v-7.236v-1.871v-1.983c1.212-0.112,1.983-0.329,2.642-0.441
	l12.886-2.529c1.758-0.329,5.612-1.1,10.461-1.983h4.841c1.766,0,2.537-0.441,2.537-1.317c0-0.666-0.441-1.108-1.324-1.654
	l-8.261-5.178c-8.141,4.954-42.728,13.215-71.358,16.957l0.441,1.871c13.881-1.205,24.447-2.417,40.745-4.729v8.68v10.918h-27.156
	h-9.788c-1.212,0-1.878,0.546-1.541,1.429c0.434,0.995,0.988,1.325,1.976,1.325h7.431h29.079v20.04h-20.923
	c-4.407,0-5.934,0.082-9.054,0.008c0,0.03-13.245,0-13.245,0c-1.212,0-1.871,0.554-1.541,1.429c0.434,0.883,0.988,1.325,1.983,1.325
	c0,0,12.916,0,13.828,0h28.952v25.547c0,1.429-0.546,1.871-2.095,1.871c-1.1,0-3.742-0.112-6.271-0.329
	c-0.995-0.112-3.637-0.329-6.72-0.554l-0.112,1.541c2.096,0.666,4.296,1.325,6.391,1.878c1.429,0.434,2.642,0.876,3.629,1.212
	c0.883,0.434,1.108,0.659,1.108,1.646c0.217,4.19,0.217,4.295,1.871,4.295c1.983,0,4.954-1.317,7.049-3.083
	c1.758-1.429,2.2-2.754,2.2-6.278l-0.112-3.629c-0.112-5.949-0.224-10.469-0.329-19.83v-4.288h44.382
	c0.883,0,1.429-0.442,1.429-1.325c0-0.546-0.329-0.883-0.988-1.541l-8.591-7.154l-6.832,7.259h-29.401
	c-0.112-3.517-0.112-5.941-0.112-7.154l-0.007-0.846l-0.053-12.04h38.164c0.995,0,1.542-0.442,1.542-1.317
	c0-0.554-0.217-0.883-0.988-1.541l-7.925-6.6c2.35-1.931,6.256-3.218,10.11-3.263c0.09,0,0.18,0,0.262,0
	c4.018,0,7.453,1.108,10.498,3.39c3.203,2.387,4.894,5.455,5.036,9.129c0.082,2.073-0.494,3.876-1.714,5.343
	c-1.227,1.474-2.844,2.23-4.954,2.312c-1.639,0.052-3.128-0.344-4.333-1.212c-1.19-0.846-1.833-2.043-1.893-3.555
	c-0.03-0.831,0.21-1.586,0.726-2.245c0.434-0.554,0.913-0.726,1.37-0.898c0.082-0.03,0.164-0.06,0.239-0.09
	c0.314-0.127,0.442-0.03,0.674,0.135c0.052,0.037,0.105,0.082,0.164,0.12c0.464,0.299,1.541,0.778,2.342,0.434
	c0.419-0.179,0.674-0.419,0.771-0.718c0.112-0.344-0.045-0.621-0.052-0.628c-0.292-0.651-0.853-1.122-1.661-1.407
	c-0.464-0.18-1.474-0.397-2.312-0.314c-1.04,0.105-2.522,0.412-3.457,1.901c-0.763,1.212-1.16,2.537-1.108,3.742
	c0.09,2.387,0.966,4.288,2.604,5.642c1.511,1.257,3.39,1.893,5.567,1.893c0.165,0,0.322-0.008,0.479-0.015
	c2.881-0.097,5.141-1.145,6.705-3.113c1.564-1.961,2.297-4.4,2.185-7.251c-0.105-2.716-1.025-5.261-2.739-7.566
	c-1.153-1.601-2.679-3.076-4.55-4.423c5.261,1.833,9.458,3.899,12.497,6.174c1.773,1.033,2.896,1.302,3.427,0.838
	c0.576-0.501,0.157-1.594,0.112-1.714l-0.03-0.052c0.419,0.045,0.831,0.09,1.227,0.09c2.058,0,3.794-0.591,5.178-1.759
	c2.103-1.773,2.926-4.55,2.986-6.555C614.949,20.164,613.685,19.139,612.922,18.757"/>
<path d="M478.872,46.991c-0.195-0.629-0.337-0.801-0.913-1.377c-0.576-0.569-1.459-0.239-1.631-0.876
	c-0.149-0.554-0.097-0.509-0.097-0.509c-0.09-0.516,0.037-1.01,0.382-1.504c0.359-0.509,0.808-0.876,1.332-1.085
	c0.12-0.045,0.419-0.157,0.561-0.726c0.486-1.848-0.195-2.574-1.19-3.48c-0.688-0.621-1.811-1.175-1.908-1.092
	c-1.721,1.399-1.729-0.262-1.729-0.262c0.075-1.31,0.801-2.499,0.269-3.891c-0.045-0.105-0.037-0.217-0.12-0.292
	c-0.876-0.756-3.951-1.676-5.627-3.816c-0.965-1.242-3.09-1.489-4.916-2.14c-3.285-2.35-7.805-3.487-13.806-3.487
	c-9.13,0-18.132,4.31-23.49,11.255c-3.928,4.999-6.278,11.793-6.278,18.169c0,3.764,0.92,7.73,2.297,9.885
	c0.636,0.913,1.489,1.609,2.522,2.073c2.238,0.988,2.238,0.988,2.836,3.083c0.471,1.714,1.699,2.582,3.652,2.582
	c1.968,0,5.029-1.265,7.281-3.001c7.715-5.897,12.893-17.054,12.893-27.77c0-4.924-1.182-8.972-3.936-13.462
	c0.426-0.052,0.913-0.127,1.444-0.217l0.778-0.12l0.711-0.007c3.517,0.022,6.652,2.282,10.985,5.41l0.202,0.15
	c1.699,1.22,2.694,3.614,3.352,5.193c0.344,0.831,0.591,1.437,0.861,1.729c1.946,2.088,2.23,3.742,2.432,4.954l0.022,0.112
	c0,0,0.329,0.404-0.239,0.748c0,0-0.726,0.457-1.407,0.075c-0.247-0.142-0.464-0.292-0.606-0.516
	c-0.06-0.09-1.265-0.801-1.901-0.269c-0.419,0.225-0.928,0.591-1.197,1.721c-0.411,1.729,0.269,3.293,0.696,3.764
	c0.06,0.06,0.868,1.938,2.567,1.399c0.464-0.142,0.846-0.299,1.198-0.591c0.187-0.165,1.639-1.526,2.08-1.392
	c0.442,0.135,0.718,1.287,0.718,1.287c1.1,6.346-0.307,12.13-4.168,17.189c-4.145,5.425-8.291,8.074-14.33,9.137
	c-1.616,0.187-1.901,0.531-1.99,0.644c-0.045,0.045-0.068,0.105-0.075,0.165l-0.075,0.442c-0.022,0.12,0.022,0.239,0.105,0.314
	c0.068,0.06,0.158,0.09,0.24,0.09c0.03,0,0.06,0,0.09-0.008c3.383-0.928,5.844-1.167,7.64-1.339c3.128-0.307,4.7-0.457,6.286-3.629
	c1.033-2.073,2.32-2.342,3.554-2.604c1.34-0.277,2.717-0.561,3.001-3.33c0.187-1.886,1.796-3.098,3.083-4.078
	c1.145-0.86,2.132-1.609,1.691-2.582c-0.471-1.04,2.612-6.495,3.181-7.753c0.569-1.541,0.838-2.926,0.801-4.116
	C478.984,47.149,478.902,47.081,478.872,46.991 M472.826,53.651c0.262-2.544-0.389-6.548-0.599-7.708
	c-0.853-4.887-2.829-9.174-6.218-13.507c-1.609-2.05-4.175-4.475-6.81-6.211c0.262,0.127,0.509,0.254,0.741,0.397
	c0.03,0.015,0.068,0.03,0.105,0.037l1.646,0.352l0.12,0.075c0.075,0.045,0.15,0.09,0.217,0.142
	c6.75,4.714,10.79,10.648,12.025,17.63c0.636,3.659,0.561,7.041-0.24,10.05c-0.569,2.155-1.676,4.61-3.285,7.326
	C472.13,58.68,472.594,55.814,472.826,53.651 M447.256,35.348c0,7.985-3.33,17.009-8.493,22.988
	c-2.896,3.307-5.403,4.984-7.453,4.984c-1.526,0-3.076-0.89-4.033-2.32c-1.437-2.237-2.327-5.792-2.327-9.271
	c0-5.096,1.96-11.569,4.774-15.744c1.691-2.642,3.943-4.931,6.682-6.81c2.791-1.916,5.178-2.896,8.748-3.592
	c0.254,0.457,0.853,1.871,1.04,2.522C446.882,30.027,447.256,32.601,447.256,35.348"/>
<path d="M386.798,49.926l-0.966-0.209c6.151-6.615,11.217-13.582,14.712-20.594c0.479-0.943,1.444-1.654,2.41-2.237
	c1.684-1.145,3.734-2.44,3.734-3.757c0-2.626-9.765-6.263-12.055-6.129c-1.205,0.067-1.684,0.614-2.29,1.048
	c-0.726,0.561-1.564,1.661-2.656,1.856c-2.582,0.569-4.812,1.048-6.81,1.474l0.06,0.037c-1.953,0.285-4.258,0.734-6.967,1.392
	c-4.355,1.063-4.423,1.908-5.223,3.188c-2.799,3.352-8.725,5.74-11.965,5.223c-2.425-0.389-4.258-1.601-4.909-3.248
	c-0.449-1.13-0.262-2.305,0.524-3.315c1.175-1.519,1.579-2.814,1.182-3.854c-0.366-0.973-1.369-1.482-2.117-1.631
	c-2.118-0.404-4.565,0.584-5.822,2.342c-0.756,1.063-1.736,3.352,0.202,6.75c2.088,3.667,4.528,4.946,7.453,3.936
	c0.935-0.329,1.145-0.232,1.175-0.209c0.082,0.06,0.075,0.389,0.075,0.628c-0.015,0.891-0.037,2.395,2.761,2.462
	c0.067,0,0.127,0,0.187,0c2.305,0,4.303-1.048,6.076-1.976c0.427-0.224,0.845-0.441,1.265-0.636c0.382,3.083,3.989-1.242,6.6-3.36
	c3.12-2.537,8.194-3.607,14.831-4.31l0.164,0.105c0.187-0.037,0.344-0.075,0.539-0.112c0.247-0.067,0.456-0.097,0.673-0.135
	c0.3-0.022,0.584-0.06,0.891-0.09c0.329,0.127,0.666,0.12,0.988,0.037c0.973,0.135,1.549,0.591,1.549,1.399
	c0,3.794-23.519,42.347-69.203,57.373c-1.931,0.614-3.016,1.317-3.016,1.706c0,0.389,0.599,0.621,1.691,0.569
	c5.545-0.269,35.926-7.61,62.087-34.692c0.359,0.24,0.718,0.614,1.205,0.853c7.595,4.842,16.515,13.44,20.975,20.825
	c1.452,2.559,3.255,3.525,4.827,3.442c2.05-0.097,3.734-2.155,3.734-4.916C415.368,62.745,397.767,53.152,386.798,49.926"/>
<path d="M335.135,16.983c-1.901-1.893-5.859-4.58-8-4.482c-0.703,0.03-1.19,0.434-1.549,0.793c-0.21,0.187-0.494,0.486-0.808,0.823
	c-0.688,0.734-1.833,1.953-2.47,1.976c-5.552,0.352-12.706,1.37-16.979,1.976l-0.726,0.097l2.17-3.45
	c0.688-1.1,1.497-1.826,2.2-2.47c0.838-0.756,1.557-1.399,1.572-2.342c0.022-0.786-0.681-1.893-2.08-3.277
	c-2.507-2.477-7.461-5.867-9.953-5.867c-0.037,0-0.067,0-0.097,0c-2.185,0.075-6.36,2.844-6.375,4.235
	c-0.007,0.262,0.09,0.494,0.269,0.673c0.307,0.299,0.808,0.412,1.699,0.374c0.202-0.008,0.449-0.053,0.688-0.09
	c0.195-0.037,0.389-0.075,0.561-0.082l0.247-0.008c0.808-0.03,2.05,0.329,2.948,1.205c0.457,0.449,1.003,1.22,0.98,2.342
	c-0.015,0.718-0.209,1.384-0.613,2.103c-6.136,11.689-17.555,33.442-37.767,46.096c-2.41,1.631-2.41,2.103-2.41,2.335l0.022,0.277
	l0.15,0.142c0.202,0.179,0.449,0.157,0.681,0.142c0.554-0.03,1.534-0.344,3.098-0.995c19.344-8.456,31.272-24.283,39.518-37.288
	c0.958,0.868,2.567,2.028,3.711,1.976l0.375-0.015l0.142-0.03c3.113-1.16,10.618-2.237,14.158-2.402
	c0.943-0.045,1.953-0.045,2.275,0.277c0.075,0.075,0.18,0.224,0.165,0.621c-0.03,1.205-3.39,10.544-10.559,22.449
	c-0.412-0.105-0.86-0.24-1.302-0.374c-0.703-0.209-1.437-0.434-2.005-0.531c-0.95-0.344-1.789-0.606-2.656-0.823
	c-5.986-1.474-7.79-2.552-7.431-4.452l0.008-0.06v-0.06c-0.03-0.396,0.636-1.901,1.13-2.035c0.112-0.037,0.307,0.314,0.322,0.359
	c0.337,0.666,1.444,0.778,2.178,0.434c0.644-0.299,0.868-0.921,0.591-1.534c-0.366-1.048-2.252-1.19-3.337-0.831
	c-0.973,0.329-1.983,1.018-2.903,2.006c-0.127,0.127-0.269,0.262-0.419,0.412c-0.935,0.921-2.222,2.178-2.222,3.555
	c0,1.818,0.786,3.24,2.207,3.996c4.916,2.612,5.47,4.011,5.478,4.497c0.015,0.382-0.307,0.621-0.644,0.823l-0.105,0.067
	c-0.269,0.172-0.771,0.322-1.175,0.337c-0.396-0.03-0.786-0.06-1.182-0.09c-1.639-0.112-3.113,1.399-4.415,2.731l-0.097,0.105
	c-0.269,0.269-0.711,0.726-0.509,1.212c0.187,0.441,0.763,0.486,1.265,0.486c0.419,0.022,0.935-0.18,1.511-0.404
	c0.823-0.322,1.744-0.688,2.619-0.509c1.541,0.307,3.487-0.367,5.358-1.01c1.145-0.396,2.238-0.778,3.098-0.876
	c-10.559,15.774-28.952,36.166-56.759,44.083c-0.554,0.165-3.352,1.01-3.352,2.125c0,0.217,0.09,0.412,0.247,0.561
	c0.232,0.217,0.598,0.314,1.219,0.314c0.21,0,0.449-0.008,0.726-0.03c0.381-0.037,39.136-4.999,65.821-44.652
	c2.29,1.923,4.228,3.951,6.061,6.338c1.482,1.975,3.158,3.016,4.707,2.903c2.11-0.142,3.644-2.17,3.734-4.916
	c0.202-6.413-7.872-10.633-9.975-11.621c4.175-6.952,7.722-14.689,10.551-23.048c0.232-0.823,0.98-1.295,1.931-1.811l0.292-0.15
	c1.931-0.98,3.599-1.834,3.644-3.285C336.609,18.749,336.137,17.978,335.135,16.983"/>
<path d="M263.376,33.199c-0.217-0.03,0.187-0.404,0.262-0.591c0.995-2.559-0.037-4.191-1.489-4.864
	c-0.876-0.404-1.894-0.464-2.709-0.18c-0.674,0.232-2.111,1.242-0.015,3.255c1.601,1.527,0.703,4.086-2.297,5.021l-0.898,0.195
	c-2.08,0.262-4.37-0.696-6.488-1.841c-1.766-1.175-2.372-2.021-5.358-4.887c-4.542-4.273-8.867-7.056-12.991-8.328
	c-5.178-1.586-8.979-1.063-11.748,0.12c-2.589,1.108-4.302,2.05-5.867,3.45c-2.058,1.848-0.83,3.712,1.759,4.669
	c0.696,0.307,1.414,0.494,2.17,0.457c-8.606,2.29-22.24,4.131-26.894,4.333l-0.606,0.022c-2.05,0.082-5.425-1.332-7.595-2.155
	c-0.965-0.352-1.684-0.711-2.17-0.689c-1.205,0.052-1.325,2.784-1.325,3.046c0,1.437,5.186,7.206,10.244,6.997
	c0.367-0.015,0.846-0.037,1.212-0.18c9.69-2.32,27.897-5.268,36.315-6.346c-1.167,1.108-1.923,2.125-2.207,3.053
	c-0.688,2.23-0.501,4.235,0.561,6.001c1.062,1.766,2.723,2.993,4.961,3.682c2.694,0.838,5.088,0.606,7.162-0.696
	c2.08-1.302,3.539-3.293,4.363-5.987c0.793-2.574,0.771-5.208-0.068-7.909c-0.696-2.35-1.983-4.684-3.846-7.004
	c5.118,3.906,8.823,7.603,11.157,11.075c3.966,3.787,3.218,0.501,3.218,0.501l-0.225-0.464c5.485,2.814,8.808,1.257,11.232-0.801
	C265.172,34.486,264.072,33.281,263.376,33.199 M238.24,29.562c2.275,3.383,2.858,6.885,1.751,10.484
	c-0.636,2.05-1.804,3.592-3.495,4.602c-1.699,1.01-3.562,1.197-5.62,0.561c-1.647-0.509-2.919-1.392-3.809-2.664
	c-0.898-1.265-1.107-2.664-0.644-4.191c0.262-0.846,0.771-1.519,1.527-1.998c0.763-0.486,1.541-0.599,2.357-0.352
	c0.239,0.254,0.404,0.426,0.501,0.516c0.734,0.569,1.34,0.95,1.871,1.1c0.404,0.127,0.659,0.037,0.756-0.262l0.15-0.516
	c-0.053-0.651-0.396-1.22-1.018-1.721c-0.389-0.322-0.741-0.628-1.115-0.943c2.552-0.322,3.847-1.766,3.847-3.218
	c0-3.674-4.587-3.742-9.406-3.532c-1.205,0.045-2.297,0.224-3.016,0.516c-0.935,0.426-2.148,0.853-3.524,1.264
	c0.696-0.359,1.429-0.928,2.222-1.818c0.718-0.816,0.426-1.287,0.052-1.31c-0.374-0.03-0.538,1.205-1.549,1.646
	c-0.681,0.284-1.34,0.457-2.148,0.21c-1.616-0.501-3.51-0.935-2.964-2.604c1.153-3.51,8.007-4.7,14.121-2.627
	C232.883,23.987,235.965,26.164,238.24,29.562 M164.674,64.762L164.674,64.762c-0.299,2.2,1.167,4.699,2.604,5.283
	c4.961,2.028,8.808,0.546,13.282,4.033c1.137,0.891,2.889-0.367,3.981-0.666c11.329-3.667,33.629-6.705,44.113-7.086
	c4.826-0.18,12.669,0.06,17.248,0.681c0.359-0.015,0.718,0.097,1.085,0.09c2.529-0.09,3.853-1.848,3.853-3.689
	c0-1.579-1.085-3.248-3.375-3.824c-3.255-0.793-7.715-1.811-10.124-1.714c-0.367,0.015-0.726,0.157-0.966,0.165
	c-1.572,0.457-3.861,1.459-4.946,1.504c-8.927,0.718-27.118,3.652-38.74,5.388l-2.215,0.314c0.973-0.426,1.818-1.025,2.574-1.661
	c1.975-1.676,0.876-2.874,0.179-2.963c-0.225-0.03,0.18-0.397,0.254-0.591c1.003-2.559-0.037-4.183-1.489-4.856
	c-0.868-0.404-1.886-0.464-2.709-0.18c-0.666,0.224-2.103,1.242-0.008,3.248c1.601,1.527,0.703,4.086-2.297,5.029l-0.898,0.195
	c-2.088,0.254-4.37-0.704-6.488-1.848c-1.766-1.175-1.549,0.89-5.208-0.022l0.022,0.007c-5.178-0.943-8.291,0.711-9.032,1.452
	C164.637,63.797,164.674,64.762,164.674,64.762 M186.196,65.847c-1.04,0.135-1.961,0.247-2.619,0.314l-0.726,0.022
	c-3.135,0.12-4.565,1.946-11.816,0.696c-4.213-0.726,1.167-5.216,6.809-3.831c0.389,0.097,0.696,0.157,0.95,0.195l3.023,1.13
	c1.676,0.861,3.143,1.31,4.452,1.467L186.196,65.847z"/>
<path d="M166.655,38.172c-1.691-1.654-6.054-3.824-8.03-3.667c-0.651,0.053-1.018,0.292-1.482,0.584
	c-0.007,0.008-0.105,0.067-0.112,0.082l-0.232,0.179c-0.277,0.232-0.546,0.449-0.816,0.471c-5.964,0.823-10.716,1.789-13.851,2.425
	c-7.049,1.272-7.318,1.287-7.932,1.34c-3.3,0.052-5.695-0.18-9.638-1.602c-1.684-0.569-1.781-0.569-1.968-0.546
	c-0.045,0-0.09,0.015-0.127,0.03c-0.703,0.277-1.077,1.003-1.115,2.17c-0.015,0.561,0.277,1.137,0.883,1.714
	c2.14,2.05,8.067,3.958,10.618,3.764c0.524-0.045,0.973-0.15,1.452-0.269l0.232-0.053c1.025-0.247,2.275-0.584,3.749-0.988
	c4.452-1.22,10.559-2.889,18.311-4.048l0.382-0.022c0.374-0.03,0.704,0.097,0.771,0.157c0.007,0.008,0.03,0.022,0.052,0.037
	c-0.756,0.995-5.552,4.924-9.272,7.438c-0.015,0.015-2.177,0.935-4.033-0.426c-1.609-1.175-4.101-0.666-5.889,0.202
	c-0.501,0.24-2.133,1.092-2.155,1.871c-0.015,0.053-0.06,0.127-0.105,0.232c-0.382,0.756-1.549,3.053,0.733,4.265
	c1.504,0.808,4.003,0.658,4.767-0.284c0.187-0.217,0.539-0.823-0.12-1.609c-0.636-0.771-0.853-1.474-0.606-1.991
	c0.202-0.426,0.726-0.711,1.309-0.711h0.015c0.269,0,0.913,0.075,1.242,0.711c0.494,7.184-12.265,24.395-24.964,31.07
	c-4.392,2.26-4.415,2.986-4.422,3.248c-0.008,0.187,0.06,0.359,0.195,0.486c0.164,0.15,0.412,0.232,0.733,0.232
	c0.067,0,0.142-0.008,0.224-0.015c0.995-0.097,2.626-0.614,4.355-1.385c12.893-5.47,24.829-21.327,27.059-29.408
	c0.367-1.339,0.486-2.462,0.344-3.36c0.734,0.337,1.377,0.382,1.916,0.12c2.357-1.16,10.184-5.844,12.684-7.498l1.766-0.756
	c1.482-0.524,2.006-0.741,2.29-0.943c0.988-0.546,1.504-1.175,1.541-1.863C167.433,39.145,167.186,38.688,166.655,38.172"/>
<path d="M103.301,4.594c-1.22-1.16-1.459-1.99-1.444-2.484c0.008-0.359,0.314-0.756,0.958-0.786h0.007
	c0.509,0,12.826,3.24,15.954,6.914c1.392,1.504,1.639,3.098,1.609,4.168c-0.067,1.998-1.34,3.562-2.971,3.637
	c-0.045,0.008-0.09,0.008-0.135,0.008c-1.205,0-2.417-0.771-3.584-2.305c-2.335-2.963-4.744-4.722-6.869-6.271
	C105.523,6.525,104.296,5.627,103.301,4.594 M117.429,37.767h-0.075c-1.137-0.007-2.028-0.621-2.612-1.025
	c-0.157-0.105-0.284-0.195-0.397-0.262c-0.614-1.22-1.302-3.113-2.05-5.62c-1.055-3.45-2.454-6.241-4.161-8.299
	c0.756-0.748,1.152-1.901,1.1-3.203c-0.053-1.167-0.554-2.454-1.527-3.921c-2.821-3.944-15.527-7.468-16.388-7.363
	c-0.232,0.022-0.928,0.105-0.898,0.853c0.03,0.569,0.516,1.317,1.616,2.499c1.033,1.07,2.327,2.08,3.704,3.158
	c2.17,1.691,4.632,3.614,6.795,6.353c1.452,1.901,2.731,2.372,3.577,2.425c1.28,1.676,2.013,3.614,2.17,5.747
	c0.195,2.567-0.576,4.692-2.305,6.323c-0.995,0.928-2.08,1.392-3.307,1.414c-1.22,0.037-2.29-0.449-3.195-1.422
	c-0.726-0.771-1.145-1.646-1.242-2.597c-0.09-0.935,0.209-1.721,0.92-2.387c0.382-0.359,0.823-0.546,1.354-0.584
	c0.501-0.023,0.905,0.127,1.22,0.449c0.053,0.195,0.097,0.329,0.127,0.427c0.247,0.614,0.486,1.025,0.741,1.294
	c0.157,0.165,0.307,0.247,0.472,0.255c0.09,0.007,0.232-0.023,0.367-0.15l0.262-0.239c0.023-0.023,0.045-0.053,0.06-0.075
	c0.195-0.441,0.187-0.935-0.022-1.489c-0.179-0.449-0.367-0.928-0.524-1.407c-0.314-0.861-1.152-1.153-2.484-0.876
	c-1.242,0.254-2.148,0.644-2.694,1.152c-1.152,1.085-1.721,2.35-1.684,3.764c0.037,1.392,0.606,2.686,1.676,3.832
	c1.309,1.392,2.806,2.065,4.482,1.983c1.646-0.067,3.173-0.756,4.542-2.05c1.302-1.227,2.17-2.784,2.567-4.625
	c0.262-1.115,0.352-2.327,0.277-3.637c1.609,4.146,2.32,7.603,2.133,10.282c-0.037,0.037-0.06,0.082-0.06,0.135
	c-0.217,2.522-1.22,4.647-2.978,6.316c-0.876,0.816-2.26,1.407-4.116,1.751c-2.402,0.449-3.899,0.838-4.587,1.19
	c-0.322,0.179-0.606,0.516-0.846,1.01c-0.239,0.501-0.344,0.905-0.322,1.25c0.008,0.052,0.03,0.097,0.067,0.142l0.202,0.217
	c0.037,0.037,0.09,0.067,0.15,0.067c2.29,0.195,4.019,0.037,5.156-0.472c0.808-0.367,2.095-1.384,3.921-3.113
	c0.434-0.404,0.86-0.846,1.272-1.317c-0.531,1.063-1.063,2.028-1.586,2.881c-0.756,1.22-1.714,2.387-2.859,3.45
	c-2.365,2.23-5.148,3.592-8.291,4.048c-3.525,0.516-6.398-0.374-8.538-2.657c-1.309-1.392-2.073-3.016-2.267-4.804
	c-0.022-0.202-0.022-0.397-0.022-0.591l-0.008-0.15c2.125-4.131,4.026-8.456,5.657-12.856c0.591-1.512,1.863-2.784,3.09-4.011
	c1.332-1.317,2.582-2.567,2.619-3.899c0.015-0.614-0.344-1.28-1.055-1.976c-2.32-2.282-8.029-4.52-9.616-4.52
	c-0.023,0-0.045,0-0.067,0c-1.227,0.06-2.006,0.741-2.754,1.399c-0.636,0.561-1.302,1.145-2.238,1.362
	c-0.524,0.075-1.699,0.307-3.315,0.621c-2.552,0.494-6.031,1.175-9.885,1.834c0.067-3.45,0.187-8.98,0.733-12.923
	c0.067-0.628,0.322-1.302,0.584-2.013c0.344-0.921,0.703-1.863,0.718-2.866c0.022-0.921-0.427-1.841-1.332-2.724
	c-2.686-2.634-8.935-4.423-12.736-4.265c-5.148,0.21-6.914,4.355-6.929,5.455c-0.023,0.935,1.055,1.018,2.005,1.092
	c0.689,0.045,1.37,0.067,2.035,0.09c4.28,0.15,7.663,0.269,7.872,5.133l0.569,14.061c-7.161,1.257-12.452,2.035-14.532,2.14
	c-0.905,0.052-1.736-0.172-2.312-0.367l-0.434-1.242c-1.295-2.649-6.974-5.238-11.314-5.238c-0.157,0-0.314,0-0.471,0.008
	c-2.103,0.097-3.465,0.718-4.168,1.908l-0.457,0.726c-1.025,1.616-1.773,2.776-1.781,3.667c0,0.254,0.082,0.464,0.247,0.621
	c0.284,0.277,0.808,0.382,1.669,0.344l0.958-0.045c0.314-0.015,0.629-0.067,0.928-0.112c0.299-0.053,0.584-0.097,0.868-0.105
	c4.932-0.24,6.682,1.863,7.289,3.143c3.906,7.7,6.293,21.08,6.787,26.011c0.486,4.318,1.362,6.503,2.589,6.503
	c0.022,0,0.045,0,0.06,0c1.826-0.105,3.495-4.497,3.569-9.391c0.082-5.306-2.088-14.555-4.198-21.117
	c0.905,0.284,1.916,0.427,2.746,0.382c0.277-0.015,0.546-0.067,0.793-0.112c0.195-0.045,0.382-0.075,0.554-0.09
	c2.477-0.427,5.672-1.063,9.062-1.744c7.131-1.429,15.221-3.046,19.591-3.263l0.472-0.022c1.137-0.053,2.043,0.209,2.604,0.756
	c0.471,0.457,0.696,1.092,0.681,1.886c-0.075,3.128-14.255,43.596-56.744,64.856c-1.108,0.576-2.971,1.669-2.978,2.544
	c0,0.202,0.082,0.329,0.157,0.397c0.142,0.135,0.359,0.195,0.696,0.195c0.067,0,0.135,0,0.217-0.008
	c4.183-0.269,38.583-11.584,59.401-49.441c0.367,1.489,1.092,2.836,2.193,4.003c0.793,0.666,1.594,1.339,2.394,2.006
	c-0.389,1.624-0.479,1.945-0.501,2.013c-0.382,1.325-0.921,2.312-1.601,2.941c-0.157,0.15-0.726,0.516-2.537,1.392
	c-0.644,0.299-1.167,0.644-1.564,1.018c-0.988,0.928-1.527,2.133-1.602,3.577c-0.082,1.467,0.352,2.716,1.302,3.727
	c0.673,0.711,1.309,1.145,1.946,1.347c0.644,0.187,1.616,0.06,2.133-0.494c0.314-0.329,0.516-1.092,0.494-1.556
	c-0.03-0.524-0.516-0.891-0.539-0.905c-0.015-0.015-0.03-0.023-0.052-0.03c-0.269-0.105-0.599-0.187-0.958-0.269
	c-0.681-0.157-1.452-0.329-1.788-0.718c-0.546-0.621-0.778-1.392-0.629-2.11c0.187-0.891,0.584-1.572,1.25-2.133
	c0.718-0.614,2.245-0.456,4.527,0.464c2.409,0.98,3.899,1.175,4.684,0.629c0.015-0.008,0.292-0.172,0.546-0.464
	c0.441-0.501,0.441-1.369,0.344-1.796c-0.157-0.659-0.554-0.883-0.599-0.905c-0.329-0.165-0.921-0.344-1.736-0.531
	c-0.846-0.187-1.422-0.322-1.744-0.524c-0.269-0.172-0.352-0.307-0.359-0.883c0-0.097-0.008-0.202-0.015-0.314
	c-0.03-0.644-0.067-1.437,0.606-2.148c0.539-0.561,1.991-0.561,4.176-0.546c0.98,0.008,2.08,0.015,3.338-0.03
	c2.851-0.097,5.627-1.392,8.246-3.861c2.17-2.035,3.906-4.482,5.171-7.273c1.175-2.597,1.901-5.351,2.155-8.202
	c0.075,0.105,0.15,0.209,0.224,0.322c0.524,0.756,1.115,1.624,2.08,1.624c0.023,0,0.045,0,0.067-0.007
	c1.085-0.03,1.37-0.561,1.579-0.943c0.15-0.262,0.21-0.359,0.412-0.359c0.015,0,0.023,0,0.037,0c0.943,0,1.302-0.584,1.317-0.606
	c0.037-0.06,0.045-0.127,0.023-0.195c-0.023-0.067-0.075-0.12-0.135-0.142C119.105,37.767,118.177,37.767,117.429,37.767"/>
</svg>
