<?xml version="1.0" encoding="utf-8"?>
<!-- Generator: Adobe Illustrator 27.0.1, SVG Export Plug-In . SVG Version: 6.00 Build 0)  -->
<svg version="1.1" id="레이어_1" xmlns="http://www.w3.org/2000/svg" xmlns:xlink="http://www.w3.org/1999/xlink" x="0px"
	 y="0px" viewBox="0 0 720 166.584" enable-background="new 0 0 720 166.584" xml:space="preserve">
<path fill="#C25E2D" d="M78.907,28.985c-18.2,0-37.83,0.205-50.994,0.614C7.285,29.982,0.997,38.699,0.409,49.818
	C0.179,53.09,0,60.758,0,68.427c0,6.287,0.179,12.55,0.409,16.41c0.383,5.853,4.448,8.486,8.691,8.486
	c4.857,0,9.713-3.221,9.713-9.1v-0.818c-0.409-5.675-0.818-17.203-0.818-24.053c0-5.087,0-13.777,12.346-14.391
	c6.467-0.204,22.264-0.587,36.833-0.587c27.913,0,45.013-1.534,46.291,16.206c1.764,25.024-17.151,68.324-61.857,83.635
	c-2.351-5.496-7.796-9.33-14.161-9.33c-8.486,0-15.362,6.876-15.362,15.362c0,8.512,6.876,15.413,15.362,15.413l1.355-0.154
	l2.403,0.282c9.125,0,85.399-23.465,91.278-103.01l0.179-5.445C133.863,29.829,104.416,28.985,78.907,28.985"/>
<path fill="#C25E2D" d="M473.414,35.58c-4.806-0.179-10.531-0.179-16.819-0.179c-18.097,0-64.72,0.767-79.878,1.534
	c-5.905,0.179-8.691,4.064-8.691,7.745c0,3.706,2.965,7.413,8.87,7.413h0.562c15.158-0.767,62.139-1.917,78.958-1.917
	c15.899,0,23.644,0,23.848,10.378c0.153,5.342,0.358,1.61,0.358,10.122c0,7.029-0.205,59.812-0.358,64.797
	c-0.383,7.029-5.189,10.352-12.014,10.889c-7.949,0.562-47.364,0.741-62.522,0.741c-4.729,0-8.512,0-11.988-0.051
	c-0.562-7.719-6.927-13.855-14.8-13.855c-8.256,0-14.928,6.672-14.928,14.902c0,8.18,6.569,14.8,14.723,14.876l2.173,0.204
	c19.043,0,69.602-0.179,89.361-1.303c14.058-0.715,26.251-6.62,26.634-22.698c0-1.84,0.153-41.869,0.153-81.411
	C497.057,45.933,490.591,35.964,473.414,35.58"/>
<path fill="#C25E2D" d="M283.445,48.846c-7.975-0.204-16.743-0.204-26.047-0.204l-0.69-0.332l-0.204-0.741
	c1.278-7.796,3.399-22.264,3.399-31.925l-0.307-2.403C258.625,5.776,252.312,0,244.541,0c-8.41,0-15.235,6.825-15.235,15.235
	c0,7.54,5.47,13.752,12.653,15.004c-0.588,6.212-1.406,12.474-2.147,17.612l-0.895,0.792c-16.998,0.23-32.181,0.64-43.914,1.253
	c-5.419,0.179-8.358,3.988-8.358,7.489c0,3.399,2.709,6.85,8.742,6.85h0.793c14.263-0.793,27.554-1.303,39.568-1.457l0.716,0.332
	l0.179,0.767c-5.496,23.363-20.219,65.436-56.796,85.143c-3.988,2.045-6.237,5.113-6.237,8.41c0,4.294,3.911,7.898,8.537,7.898
	c8.461,0,53.985-26.583,71.213-102.064l0.894-0.69h25.254c8.307,0.204,13.292,5.24,13.292,13.496c0,0.41-0.895,39.108-11.707,55.391
	c-5.163,7.719-12.218,11.962-19.912,11.962c-4.985,0-9.943-1.814-14.825-5.419l-5.981-2.147c-4.729,0-7.924,4.422-7.924,8.537
	c0,8.026,16.589,15.899,28.935,15.899c14.11,0,26.941-7.77,34.303-20.756c9.202-16.384,13.343-49.307,13.343-67.455
	C309.031,57.947,299.472,49.256,283.445,48.846"/>
<path fill="#C25E2D" d="M597.154,101.425c-2.454,0.205-4.78,1.841-5.751,4.754c-2.863,9.637-7.413,21.65-12.985,32.693
	c-2.326-1.151-4.985-1.739-7.796-1.509c-8.077,0.716-14.008,7.822-13.292,15.899c0.716,8.026,7.822,13.956,15.873,13.266
	c4.192-0.384,7.771-2.506,10.174-5.547l1.61-2.045c8.946-14.339,20.449-45.907,19.963-51.147
	C604.567,103.394,600.656,101.119,597.154,101.425"/>
<path fill="#C25E2D" d="M706.938,39.594c7.233,0,13.062-5.829,13.062-13.036c0-7.259-5.828-13.062-13.062-13.062
	c-7.157,0-12.96,5.751-13.011,12.934h-75.865c-4.039,0-6.135,3.349-6.135,6.492c0,3.323,2.096,6.672,6.135,6.672h27.938V57.18
	c-3.348,0-6.492,0.179-9.483,0.179c-11.426,0.154-18.992,7.873-19.145,18.251c-0.179,11.758-0.179,26.353-0.179,40.412
	c0,10.378,0,20.551,0.179,29.165c0.153,11.758,6.825,18.966,20.372,19.835c6.313,0.358,14.57,0.537,23.184,0.537
	c10.557,0,21.803-0.179,31.261-0.69c12.142-0.716,19.171-8.614,19.529-20.04c0.332-8.767,0.511-19.86,0.511-31.261
	c0-13.189-0.179-26.89-0.511-37.421c-0.358-12.474-8.972-18.634-18.992-18.788c-3.86-0.179-8.256-0.179-12.806-0.179
	c0-6.876,0.179-13.189,0.179-17.586H706.938 M658.296,39.594h9.483c0,4.396-0.179,10.709-0.179,17.586h-9.483
	C658.296,51.556,658.296,44.86,658.296,39.594z M630.358,80.542c0.179-7.745,2.3-11.784,11.605-11.963h4.908
	c-0.332,13.522-3.681,26.89-15.617,33.025l-1.074,0.869C630.179,94.064,630.358,86.166,630.358,80.542z M687.282,68.58
	c8.102,0.179,10.889,3.527,11.068,11.963c0.179,8.41,0.358,19.835,0.358,31.082l-0.358,29.165
	c-0.179,7.361-3.349,11.425-11.4,11.758c-6.85,0.179-14.953,0.358-22.852,0.358c-28.296,0-33.561,0-33.74-11.758l-0.179-6.34h55.799
	c3.144,0,5.649-2.531,5.649-5.648c0-3.093-2.505-5.623-5.649-5.623l-0.153,0.025h-55.646v-14.569l4.933,2.786
	c2.811,0,21.42-7.003,22.493-43.377h10.174c0,10.199-0.179,19.861-0.179,23.184c0,10.709,2.454,14.774,13.011,14.774l7.617,0.102
	c0.383,0,5.138-0.562,5.138-5.138c0-4.549-5.138-5.163-5.138-5.163h-6.032c-3.323,0-3.706-1.227-3.706-4.396V68.58H687.282z"/>
<path fill="#C25E2D" d="M564.641,92.735c5.086,0,9.202-4.115,9.202-9.176c0-5.087-4.115-9.227-9.202-9.227
	c-5.112,0-9.202,4.141-9.202,9.227C555.439,88.62,559.528,92.735,564.641,92.735"/>
<path fill="#C25E2D" d="M572.437,51.07c3.22,4.013,3.246,5.675,3.195,6.007c-0.281,2.352,0.102,4.09,1.176,5.342l3.553,1.637h0.204
	l3.451-1.559c1.15-1.227,1.662-2.991,1.534-5.419c-0.051-0.639,0.256-2.326,2.786-5.623l3.195-2.965
	c2.786-2.684,4.345-6.237,4.652-10.684c-0.051-4.013-1.38-7.617-3.987-10.684c-2.633-3.067-6.518-4.703-11.579-4.831
	c-4.959,0.128-8.87,1.764-11.553,4.857c-2.684,3.067-4.039,6.723-4.064,10.863c0.255,4.09,1.764,7.515,4.447,10.174L572.437,51.07"
	/>
</svg>
