<?xml version="1.0" encoding="utf-8"?>
<!-- Generator: Adobe Illustrator 27.1.1, SVG Export Plug-In . SVG Version: 6.00 Build 0)  -->
<svg version="1.1" id="레이어_1" xmlns="http://www.w3.org/2000/svg" xmlns:xlink="http://www.w3.org/1999/xlink" x="0px"
	 y="0px" viewBox="0 0 720 481.091" enable-background="new 0 0 720 481.091" xml:space="preserve">
<path fill="#562C35" d="M704.555,290.512c-0.297-0.02-25.798-6.971-56.86-21.012c-28.817-13.029-26.534-32.333-35.57-56.98
	c6.872-0.258,11.936-4.012,14.021-8.977c0.497-1.231,0.775-2.443,0.933-3.674c5.919-0.496,10.984-2.165,14.757-4.806
	c0.695,0.794,1.489,1.549,2.383,2.204c3.753,2.761,8.182,3.476,11.797,3.476c1.727,0.02,3.277-0.159,4.489-0.338
	c11.539-1.807,18.608-9.454,17.199-18.629c-0.238-1.589-0.853-3.118-1.649-4.568c2.563-1.41,4.926-2.979,6.912-4.667
	c10.108-8.659,8.719-17.557,7.666-20.973c-0.595-1.907-2.144-5.263-5.64-8.123c6.912-3.654,12.969-7.766,16.762-10.745
	c27.467-21.549,16.842-39.503,12.91-44.508c-5.283-6.752-12.989-10.069-21.628-9.354c-7.686,0.616-15.75,4.31-24.667,11.301
	c-2.186,1.728-4.926,4.091-7.845,6.892c-1.331-2.125-2.959-4.051-5.164-5.462c-10.883-7.031-26.077-0.358-37.537,16.146
	c-1.192-1.092-2.542-2.065-4.17-2.741c-1.729-0.715-3.575-1.072-5.422-1.052c4.25-48.837,12.195-87.148,12.333-87.724l0.478-2.343
	c2.005-9.454-7.885-16.981-16.485-12.552l-2.125,1.092c-0.834,0.437-82.997,42.7-166.054,70.962
	c-79.581-16.782-100.435-43.892-100.494-43.951l-3.535-5.184c-4.072-5.998-13.168-5.104-16.008,1.549l-2.462,5.759
	c-6.038,14.061-29.95,45.103-62.959,49.314c-44.944-24.885-67.129-67.784-67.326-68.201c-5.898-11.698-23.496-7.785-23.873,5.303
	c-0.019,0.596-2.205,61.309-39.463,84.884C79.346,128.728,10.59,144.041,9.894,144.199c-13.486,2.959-13.069,22.343,0.537,24.726
	c0.496,0.099,50.147,9.176,75.35,46.97c15.432,23.137-32.591,82.461-71.616,117.217c-9.255,8.242-2.324,23.475,9.969,21.926
	l0.04-0.02c1.073-0.139,14.121-1.629,31.181,2.224c-1.31,0.079-2.681,0.238-4.111,0.536c-3.655,0.775-10.347,2.939-14.101,8.719
	c-2.125,3.277-2.86,7.13-2.085,10.804c0.258,1.251,0.754,2.443,1.35,3.555c-6.415,6.355-8.937,13.922-6.277,21.072
	c1.232,3.356,5.581,11.241,18.868,11.956c0.596,0.04,1.192,0.04,1.807,0.04c0.616,0,1.272-0.059,1.907-0.099
	c-8.381,18.391-6.813,34.835,4.568,41.35c2.84,1.609,5.899,2.383,9.077,2.383c10.645,0.02,22.561-8.758,31.698-23.932
	c1.31,0.397,2.681,0.655,4.091,0.655c6.455,0,13.425-4.409,16.921-14.339c1.569-4.528,1.847-8.798,1.112-12.532l1.033-1.291
	c28.56,41.35,31.818,63.573,31.837,63.653c0.914,8.758,10.288,13.902,18.172,9.99c0.179-0.099,17.776-8.838,44.845-18.887
	c25.581-9.493,53.584-10.427,78.827-2.621c22.64,6.991,28.162,12.016,29.055,12.949l0.04,0.06
	c5.482,6.018,15.173,5.203,19.583-1.629c0.059-0.079,4.925-6.852,18.868-15.034c28.102-16.544,68.001-40.118,100.632-30.704
	c54.438,15.73,96.007,22.879,96.007,22.879c16.921-0.695,9.512-46.811,61.229-79.958c56.623-36.325,87.387-51.657,87.963-51.876
	C721.219,310.253,718.318,291.167,704.555,290.512 M112.97,417.818c-0.516,0.556-1.43,1.132-2.523,1.629l2.284-2.82
	C112.851,417.063,112.951,417.48,112.97,417.818 M659.492,194.03 M610.217,119.612c-0.059,0-0.119-0.02-0.178-0.02
	c0-0.02,0.019-0.06,0.019-0.099C610.118,119.533,610.158,119.572,610.217,119.612 M642.829,206.76c0,1.649-2.761,2.999-6.137,2.979
	c-3.395,0-6.136-1.331-6.136-2.979c0.019-1.668,2.76-2.999,6.136-2.999C640.088,203.781,642.829,205.112,642.829,206.76
	 M631.011,77.508c1.828,1.41,0.954,5.581-1.926,9.334c-2.9,3.734-6.713,5.621-8.54,4.211c-1.807-1.41-0.953-5.581,1.926-9.315
	C625.371,78.004,629.184,76.118,631.011,77.508 M674.228,213.453c-0.715,3.376-6.912,4.905-13.823,3.436
	c-6.912-1.47-11.936-5.422-11.221-8.778c0.715-3.376,6.911-4.906,13.823-3.436C669.938,206.144,674.963,210.077,674.228,213.453
	 M96.963,456.923c-2.285-0.814-2.741-5.442-1.033-10.347c1.727-4.906,4.985-8.242,7.268-7.448c2.284,0.814,2.741,5.441,1.033,10.347
	C102.504,454.381,99.266,457.717,96.963,456.923 M13.172,369.318c-0.596-2.343,3.018-5.283,8.062-6.554
	c5.045-1.251,9.613-0.378,10.209,1.986c0.595,2.343-3.02,5.283-8.063,6.534C18.334,372.556,13.767,371.662,13.172,369.318"/>
<path fill="#75C5B5" d="M639.241,127.515c-7.071,10.943-16.643,17.358-21.39,14.28c-4.726-3.059-2.84-14.419,4.231-25.362
	c7.069-10.943,16.663-17.338,21.389-14.28C648.217,105.212,646.31,116.572,639.241,127.515"/>
<path fill="#75C5B5" d="M595.751,163.815c-6.376,8.262-14.44,12.711-18.014,9.95c-3.575-2.76-1.291-11.678,5.085-19.94
	c6.375-8.262,14.438-12.711,18.013-9.95C604.41,146.616,602.126,155.554,595.751,163.815"/>
<path fill="#75C5B5" d="M671.107,100.051c14.517-11.38,23.673-10.367,28.598-4.091c4.926,6.276,3.735,15.432-10.764,26.812
	c-14.517,11.38-36.841,20.694-41.766,14.419C642.249,130.914,656.588,111.432,671.107,100.051"/>
<path fill="#75C5B5" d="M656.791,169.648c-10.685,3.317-20.497,2.244-21.947-2.383c-1.429-4.608,6.078-11.042,16.762-14.359
	c10.685-3.297,20.516-2.244,21.947,2.383C674.982,159.917,667.475,166.332,656.791,169.648"/>
<path fill="#75C5B5" d="M616.627,187.438c-8.025-0.397-14.38-3.535-14.22-7.011c0.178-3.476,6.832-5.958,14.855-5.561
	s14.379,3.535,14.2,7.011C631.303,185.352,624.651,187.835,616.627,187.438"/>
<path fill="#75C5B5" d="M601.511,198.853c-3.714-1.529-6.177-4.071-5.522-5.68c0.655-1.609,4.21-1.668,7.924-0.139
	c3.714,1.529,6.176,4.091,5.522,5.68C608.78,200.323,605.224,200.383,601.511,198.853"/>
<path fill="#75C5B5" d="M653.506,187.942c-3.972,0.616-7.409-0.278-7.667-1.986c-0.278-1.728,2.741-3.615,6.694-4.23
	c3.971-0.616,7.408,0.278,7.685,1.986C660.476,185.44,657.477,187.326,653.506,187.942"/>
<path fill="#75C5B5" d="M618.271,162.57c-3.972,0.616-7.409-0.278-7.667-1.986c-0.278-1.728,2.741-3.615,6.694-4.23
	c3.971-0.616,7.408,0.278,7.685,1.986C625.241,160.068,622.242,161.955,618.271,162.57"/>
<path fill="#75C5B5" d="M603.907,124.537c-1.53,3.714-4.072,6.177-5.68,5.522c-1.609-0.656-1.669-4.211-0.139-7.924
	c1.549-3.714,4.091-6.177,5.7-5.521C605.376,117.289,605.435,120.824,603.907,124.537"/>
<path fill="#75C5B5" d="M61.874,413.685c7.705-13.525,18.708-21.767,24.567-18.43c5.838,3.337,4.329,17.001-3.397,30.526
	c-7.706,13.505-18.709,21.767-24.548,18.43C52.638,440.874,54.147,427.21,61.874,413.685"/>
<path fill="#75C5B5" d="M102.666,377.038c6.335-9.215,14.716-14.458,18.708-11.718c3.972,2.741,2.066,12.433-4.269,21.648
	c-6.356,9.215-14.717,14.459-18.709,11.718C94.404,395.945,96.33,386.253,102.666,377.038"/>
<path fill="#75C5B5" d="M52.841,382.285c10.485-3.893,20.356-3.376,22.024,1.172c1.689,4.528-5.442,11.36-15.928,15.253
	c-10.485,3.893-20.356,3.376-22.045-1.172C35.224,393.01,42.354,386.178,52.841,382.285"/>
<path fill="#75C5B5" d="M80.07,360.452c8.023-0.04,14.557,2.741,14.577,6.216c0.021,3.476-6.474,6.316-14.517,6.375
	c-8.023,0.04-14.558-2.76-14.578-6.236C65.531,363.332,72.045,360.492,80.07,360.452"/>
<path fill="#75C5B5" d="M94.534,348.226c3.793,1.331,6.394,3.734,5.819,5.362c-0.576,1.649-4.111,1.907-7.905,0.576
	c-3.793-1.331-6.394-3.734-5.819-5.382C87.205,347.154,90.74,346.896,94.534,348.226"/>
<path fill="#75C5B5" d="M48.814,370.111c3.932-0.834,7.408-0.139,7.765,1.569c0.358,1.708-2.523,3.754-6.455,4.588
	c-3.932,0.834-7.408,0.119-7.765-1.569C41.981,372.99,44.88,370.945,48.814,370.111"/>
<path fill="#75C5B5" d="M96.179,413.7c1.33-3.793,3.734-6.395,5.382-5.819c1.628,0.576,1.886,4.111,0.555,7.905
	c-1.33,3.793-3.734,6.395-5.382,5.819C95.106,421.029,94.848,417.494,96.179,413.7"/>
<path fill="#75C5B5" d="M588.457,182.143c-3.655-81.468,14.716-168.536,14.716-168.536S518.23,57.479,432.134,86.376
	c-90.226-18.311-111.715-49.89-111.715-49.89c-6.593,15.412-34.656,54.358-77.138,57.278c-51.558-26.891-76.007-75.47-76.007-75.47
	s-1.966,67.744-45.302,95.192C78.618,140.913,7.557,156.503,7.557,156.503s55.192,9.672,83.673,52.392
	c28.5,42.72-73.742,133.622-73.742,133.622s61.349-8.222,100.733,44.805c39.402,53.028,42.322,81.15,42.322,81.15
	s17.954-8.977,46.096-19.423c27.905-10.347,58.489-11.619,86.93-2.84c14.677,4.528,28.699,10.188,34.517,16.365
	c0,0,5.602-8.659,22.899-18.848c31.757-18.689,75.152-42.164,110.543-31.955c57.099,16.504,99.363,24.428,99.363,24.428
	s-11.043-42.422,47.565-79.998c58.589-37.576,90.464-53.107,90.464-53.107S593.342,291.217,588.457,182.143"/>
<path fill="#562C35" d="M138.072,86.012c0.873,1.887,0.059,4.151-1.847,5.025c-1.887,0.874-4.131,0.04-5.005-1.847
	c-0.893-1.887-0.059-4.151,1.827-5.025C134.953,83.291,137.198,84.125,138.072,86.012"/>
<path fill="#562C35" d="M154.718,78.302c0.873,1.887,0.059,4.151-1.847,5.025c-1.887,0.874-4.131,0.04-5.005-1.847
	c-0.893-1.887-0.059-4.151,1.827-5.025C151.599,75.581,153.844,76.416,154.718,78.302"/>
<path fill="#562C35" d="M171.36,70.592c0.873,1.887,0.059,4.151-1.847,5.025c-1.887,0.874-4.131,0.04-5.005-1.847
	c-0.893-1.887-0.059-4.151,1.827-5.025C168.241,67.872,170.486,68.706,171.36,70.592"/>
<path fill="#562C35" d="M188.007,62.882c0.873,1.887,0.059,4.151-1.847,5.025c-1.887,0.874-4.131,0.04-5.005-1.847
	c-0.893-1.887-0.059-4.151,1.827-5.025C184.888,60.162,187.133,60.996,188.007,62.882"/>
<path fill="#562C35" d="M204.65,55.173c0.873,1.887,0.059,4.151-1.847,5.025c-1.887,0.874-4.131,0.04-5.005-1.847
	c-0.893-1.887-0.059-4.151,1.827-5.025C201.531,52.452,203.776,53.286,204.65,55.173"/>
<path fill="#562C35" d="M221.297,47.463c0.873,1.887,0.059,4.151-1.847,5.025c-1.887,0.874-4.131,0.04-5.025-1.847
	c-0.874-1.887-0.04-4.151,1.846-5.025C218.178,44.742,220.423,45.576,221.297,47.463"/>
<path fill="#562C35" d="M237.943,39.753c0.873,1.887,0.059,4.131-1.847,5.025c-1.887,0.874-4.131,0.04-5.005-1.847
	c-0.893-1.887-0.059-4.151,1.827-5.025C234.824,37.032,237.069,37.867,237.943,39.753"/>
<path fill="#562C35" d="M254.586,32.043c0.873,1.887,0.059,4.151-1.847,5.025c-1.887,0.874-4.131,0.04-5.025-1.847
	c-0.874-1.887-0.04-4.151,1.846-5.025C251.467,29.322,253.712,30.156,254.586,32.043"/>
<path fill="#562C35" d="M144.337,99.533c0.873,1.887,0.059,4.151-1.847,5.025c-1.887,0.874-4.131,0.04-5.005-1.847
	c-0.893-1.887-0.059-4.131,1.827-5.025C141.218,96.812,143.463,97.647,144.337,99.533"/>
<path fill="#562C35" d="M160.981,91.825c0.873,1.887,0.059,4.151-1.847,5.025c-1.887,0.874-4.131,0.04-5.025-1.847
	c-0.874-1.887-0.04-4.151,1.846-5.025C157.862,89.104,160.107,89.939,160.981,91.825"/>
<path fill="#562C35" d="M177.627,84.113c0.873,1.887,0.059,4.151-1.847,5.025c-1.887,0.874-4.131,0.04-5.005-1.847
	c-0.893-1.887-0.059-4.151,1.827-5.025C174.508,81.393,176.753,82.227,177.627,84.113"/>
<path fill="#562C35" d="M194.269,76.405c0.873,1.887,0.059,4.151-1.847,5.025c-1.887,0.874-4.131,0.04-5.005-1.847
	c-0.893-1.887-0.059-4.151,1.827-5.025C191.15,73.685,193.395,74.519,194.269,76.405"/>
<path fill="#562C35" d="M210.915,68.696c0.873,1.887,0.059,4.151-1.847,5.025c-1.887,0.874-4.131,0.04-5.005-1.847
	c-0.893-1.887-0.059-4.151,1.827-5.025C207.796,65.975,210.041,66.809,210.915,68.696"/>
<path fill="#562C35" d="M227.562,60.986c0.873,1.887,0.059,4.151-1.847,5.025c-1.887,0.874-4.131,0.04-5.025-1.847
	c-0.874-1.887-0.04-4.151,1.846-5.025C224.443,58.265,226.688,59.099,227.562,60.986"/>
<path fill="#562C35" d="M244.205,53.276c0.873,1.887,0.059,4.151-1.847,5.025c-1.887,0.874-4.131,0.04-5.005-1.847
	c-0.893-1.887-0.059-4.151,1.827-5.025C241.086,50.555,243.331,51.389,244.205,53.276"/>
<path fill="#562C35" d="M260.85,45.566c0.873,1.887,0.059,4.151-1.847,5.025c-1.887,0.874-4.131,0.04-5.005-1.847
	c-0.893-1.887-0.059-4.151,1.827-5.025C257.731,42.845,259.976,43.68,260.85,45.566"/>
<path fill="#562C35" d="M150.6,113.056c0.873,1.887,0.059,4.151-1.847,5.025c-1.887,0.874-4.131,0.04-5.025-1.847
	c-0.874-1.887-0.04-4.151,1.846-5.025C147.481,110.335,149.726,111.169,150.6,113.056"/>
<path fill="#562C35" d="M167.243,105.346c0.873,1.887,0.059,4.151-1.847,5.025c-1.887,0.874-4.131,0.04-5.005-1.847
	c-0.893-1.887-0.059-4.151,1.827-5.025C164.124,102.625,166.369,103.46,167.243,105.346"/>
<path fill="#562C35" d="M183.888,97.638c0.873,1.887,0.059,4.131-1.847,5.025c-1.887,0.874-4.131,0.04-5.005-1.847
	c-0.893-1.887-0.059-4.151,1.827-5.025C180.769,94.918,183.014,95.752,183.888,97.638"/>
<path fill="#562C35" d="M200.534,89.926c0.873,1.887,0.059,4.151-1.847,5.025c-1.887,0.874-4.131,0.04-5.005-1.847
	c-0.893-1.887-0.059-4.151,1.827-5.025C197.415,87.206,199.66,88.04,200.534,89.926"/>
<path fill="#562C35" d="M217.178,82.219c0.873,1.887,0.059,4.151-1.847,5.025c-1.887,0.874-4.131,0.04-5.005-1.847
	c-0.893-1.887-0.059-4.151,1.827-5.025C214.059,79.498,216.304,80.332,217.178,82.219"/>
<path fill="#562C35" d="M233.824,74.507c0.873,1.887,0.059,4.151-1.847,5.025c-1.887,0.874-4.131,0.04-5.005-1.847
	c-0.893-1.887-0.059-4.131,1.827-5.025C230.705,71.786,232.95,72.62,233.824,74.507"/>
<path fill="#562C35" d="M250.469,66.799c0.873,1.887,0.059,4.151-1.847,5.025c-1.887,0.874-4.131,0.04-5.005-1.847
	c-0.893-1.887-0.059-4.151,1.827-5.025C247.35,64.078,249.595,64.912,250.469,66.799"/>
<path fill="#562C35" d="M267.114,59.087c0.873,1.887,0.059,4.151-1.847,5.025c-1.887,0.874-4.131,0.04-5.025-1.847
	c-0.874-1.887-0.04-4.151,1.846-5.025C263.995,56.366,266.24,57.201,267.114,59.087"/>
<path fill="#562C35" d="M156.862,126.579c0.873,1.887,0.059,4.151-1.847,5.025c-1.887,0.874-4.131,0.04-5.005-1.847
	c-0.893-1.887-0.059-4.151,1.827-5.025C153.743,123.858,155.988,124.693,156.862,126.579"/>
<path fill="#562C35" d="M173.507,118.869c0.873,1.887,0.059,4.151-1.847,5.025c-1.887,0.874-4.131,0.04-5.005-1.847
	c-0.893-1.887-0.059-4.131,1.827-5.025C170.388,116.148,172.633,116.983,173.507,118.869"/>
<path fill="#562C35" d="M190.152,111.159c0.873,1.887,0.059,4.151-1.847,5.025c-1.887,0.874-4.131,0.04-5.005-1.847
	c-0.893-1.887-0.059-4.151,1.827-5.025C187.033,108.439,189.278,109.273,190.152,111.159"/>
<path fill="#562C35" d="M206.797,103.45c0.873,1.887,0.059,4.151-1.847,5.025c-1.887,0.874-4.131,0.04-5.025-1.847
	c-0.874-1.887-0.04-4.131,1.846-5.025C203.678,100.729,205.923,101.563,206.797,103.45"/>
<path fill="#562C35" d="M223.443,95.74c0.873,1.887,0.059,4.151-1.847,5.025c-1.887,0.874-4.131,0.04-5.005-1.847
	c-0.893-1.887-0.059-4.151,1.827-5.025C220.324,93.019,222.569,93.853,223.443,95.74"/>
<path fill="#562C35" d="M240.087,88.03c0.873,1.887,0.059,4.151-1.847,5.025c-1.887,0.874-4.131,0.04-5.005-1.847
	c-0.893-1.887-0.059-4.131,1.827-5.025C236.968,85.309,239.213,86.143,240.087,88.03"/>
<path fill="#562C35" d="M256.733,80.32c0.873,1.887,0.059,4.151-1.847,5.025c-1.887,0.874-4.131,0.04-5.005-1.847
	c-0.893-1.887-0.059-4.151,1.827-5.025C253.614,77.599,255.859,78.433,256.733,80.32"/>
<path fill="#562C35" d="M273.378,72.612c0.873,1.887,0.059,4.151-1.847,5.025c-1.887,0.874-4.131,0.04-5.025-1.847
	c-0.874-1.887-0.04-4.151,1.846-5.025C270.259,69.891,272.504,70.726,273.378,72.612"/>
<path fill="#562C35" d="M163.127,140.102c0.873,1.887,0.059,4.151-1.847,5.025c-1.887,0.874-4.131,0.04-5.005-1.847
	c-0.893-1.887-0.059-4.151,1.827-5.025C160.008,137.381,162.253,138.215,163.127,140.102"/>
<path fill="#562C35" d="M179.771,132.392c0.873,1.887,0.059,4.151-1.847,5.025c-1.887,0.874-4.131,0.04-5.005-1.847
	c-0.893-1.887-0.059-4.151,1.827-5.025C176.652,129.671,178.897,130.506,179.771,132.392"/>
<path fill="#562C35" d="M196.416,124.682c0.873,1.887,0.059,4.151-1.847,5.025c-1.887,0.874-4.131,0.04-5.005-1.847
	c-0.893-1.887-0.059-4.151,1.827-5.025C193.297,121.962,195.542,122.796,196.416,124.682"/>
<path fill="#562C35" d="M213.059,116.972c0.873,1.887,0.059,4.151-1.847,5.025c-1.887,0.874-4.131,0.04-5.005-1.847
	c-0.893-1.887-0.059-4.151,1.827-5.025C209.94,114.252,212.185,115.086,213.059,116.972"/>
<path fill="#562C35" d="M229.706,109.263c0.873,1.887,0.059,4.151-1.847,5.025c-1.887,0.874-4.131,0.04-5.005-1.847
	c-0.893-1.887-0.059-4.151,1.827-5.025C226.587,106.542,228.832,107.376,229.706,109.263"/>
<path fill="#562C35" d="M246.352,101.553c0.873,1.887,0.059,4.151-1.847,5.025c-1.887,0.874-4.131,0.04-5.005-1.847
	c-0.893-1.887-0.059-4.151,1.827-5.025C243.233,98.832,245.478,99.666,246.352,101.553"/>
<path fill="#562C35" d="M262.994,93.843c0.873,1.887,0.059,4.151-1.847,5.025c-1.887,0.874-4.131,0.04-5.005-1.847
	c-0.893-1.887-0.059-4.151,1.827-5.025C259.875,91.122,262.12,91.957,262.994,93.843"/>
<path fill="#562C35" d="M279.64,86.133c0.873,1.887,0.059,4.151-1.847,5.025c-1.887,0.874-4.131,0.04-5.005-1.847
	c-0.893-1.887-0.059-4.151,1.827-5.025C276.521,83.412,278.766,84.247,279.64,86.133"/>
<path fill="#562C35" d="M169.39,153.625c0.873,1.887,0.059,4.151-1.847,5.025c-1.887,0.874-4.131,0.04-5.005-1.847
	c-0.893-1.887-0.059-4.151,1.827-5.025C166.271,150.904,168.516,151.739,169.39,153.625"/>
<path fill="#562C35" d="M186.035,145.915c0.873,1.887,0.059,4.151-1.847,5.025c-1.887,0.874-4.131,0.04-5.005-1.847
	c-0.893-1.887-0.059-4.151,1.827-5.025C182.916,143.195,185.161,144.029,186.035,145.915"/>
<path fill="#562C35" d="M202.678,138.205c0.873,1.887,0.059,4.151-1.847,5.025c-1.887,0.874-4.131,0.04-5.005-1.847
	c-0.893-1.887-0.059-4.151,1.827-5.025C199.559,135.485,201.804,136.319,202.678,138.205"/>
<path fill="#562C35" d="M219.325,130.496c0.873,1.887,0.059,4.131-1.847,5.025c-1.887,0.874-4.131,0.04-5.005-1.847
	c-0.893-1.887-0.059-4.151,1.827-5.025C216.206,127.775,218.451,128.609,219.325,130.496"/>
<path fill="#562C35" d="M235.971,122.786c0.873,1.887,0.059,4.151-1.847,5.025c-1.887,0.874-4.131,0.04-5.025-1.847
	c-0.874-1.887-0.04-4.151,1.846-5.025C232.852,120.065,235.097,120.899,235.971,122.786"/>
<path fill="#562C35" d="M252.615,115.076c0.873,1.887,0.059,4.151-1.847,5.025c-1.887,0.874-4.131,0.04-5.025-1.847
	c-0.874-1.887-0.04-4.151,1.846-5.025C249.496,112.355,251.741,113.189,252.615,115.076"/>
<path fill="#562C35" d="M269.261,107.366c0.873,1.887,0.059,4.151-1.847,5.025c-1.887,0.874-4.131,0.04-5.005-1.847
	c-0.893-1.887-0.059-4.151,1.827-5.025C266.142,104.645,268.387,105.479,269.261,107.366"/>
<path fill="#562C35" d="M285.903,99.656c0.873,1.887,0.059,4.151-1.847,5.025c-1.887,0.874-4.131,0.04-5.025-1.847
	c-0.874-1.887-0.04-4.151,1.846-5.025C282.784,96.935,285.029,97.77,285.903,99.656"/>
<path fill="#562C35" d="M175.655,167.146c0.873,1.887,0.059,4.151-1.847,5.025c-1.887,0.874-4.131,0.04-5.005-1.847
	c-0.893-1.887-0.059-4.131,1.827-5.025C172.536,164.425,174.781,165.26,175.655,167.146"/>
<path fill="#562C35" d="M192.297,159.438c0.873,1.887,0.059,4.151-1.847,5.025c-1.887,0.874-4.131,0.04-5.005-1.847
	c-0.893-1.887-0.059-4.151,1.827-5.025C189.178,156.717,191.423,157.552,192.297,159.438"/>
<path fill="#562C35" d="M208.943,151.727c0.873,1.887,0.059,4.151-1.847,5.025c-1.887,0.874-4.131,0.04-5.005-1.847
	c-0.893-1.887-0.059-4.131,1.827-5.025C205.824,149.006,208.069,149.84,208.943,151.727"/>
<path fill="#562C35" d="M225.587,144.019c0.873,1.887,0.059,4.151-1.847,5.025c-1.887,0.874-4.131,0.04-5.005-1.847
	c-0.893-1.887-0.059-4.151,1.827-5.025C222.468,141.298,224.713,142.132,225.587,144.019"/>
<path fill="#562C35" d="M242.233,136.307c0.873,1.887,0.059,4.151-1.847,5.025c-1.887,0.874-4.131,0.04-5.005-1.847
	c-0.893-1.887-0.059-4.151,1.827-5.025C239.114,133.586,241.359,134.42,242.233,136.307"/>
<path fill="#562C35" d="M258.878,128.599c0.873,1.887,0.059,4.151-1.847,5.025c-1.887,0.874-4.131,0.04-5.005-1.847
	c-0.893-1.887-0.059-4.151,1.827-5.025C255.759,125.878,258.004,126.712,258.878,128.599"/>
<path fill="#562C35" d="M275.523,120.887c0.873,1.887,0.059,4.151-1.847,5.025c-1.887,0.874-4.131,0.04-5.005-1.847
	c-0.893-1.887-0.059-4.151,1.827-5.025C272.404,118.166,274.649,119,275.523,120.887"/>
<path fill="#562C35" d="M292.168,113.179c0.873,1.887,0.059,4.151-1.847,5.025c-1.887,0.874-4.131,0.04-5.005-1.847
	c-0.893-1.887-0.059-4.151,1.827-5.025C289.049,110.458,291.294,111.293,292.168,113.179"/>
<path fill="#562C35" d="M181.916,180.669c0.873,1.887,0.059,4.151-1.847,5.025c-1.887,0.874-4.131,0.04-5.005-1.847
	c-0.893-1.887-0.059-4.151,1.827-5.025C178.797,177.948,181.042,178.783,181.916,180.669"/>
<path fill="#562C35" d="M198.561,172.959c0.873,1.887,0.059,4.131-1.847,5.025c-1.887,0.874-4.131,0.04-5.005-1.847
	c-0.893-1.887-0.059-4.151,1.827-5.025C195.442,170.238,197.687,171.073,198.561,172.959"/>
<path fill="#562C35" d="M215.206,165.249c0.873,1.887,0.059,4.151-1.847,5.025c-1.887,0.874-4.131,0.04-5.025-1.847
	c-0.874-1.887-0.04-4.151,1.846-5.025C212.087,162.529,214.332,163.363,215.206,165.249"/>
<path fill="#562C35" d="M231.852,157.54c0.873,1.887,0.059,4.151-1.847,5.025c-1.887,0.874-4.131,0.04-5.005-1.847
	c-0.893-1.887-0.059-4.151,1.827-5.025C228.733,154.819,230.978,155.653,231.852,157.54"/>
<path fill="#562C35" d="M248.496,149.83c0.873,1.887,0.059,4.151-1.847,5.025c-1.887,0.874-4.131,0.04-5.005-1.847
	c-0.893-1.887-0.059-4.131,1.827-5.025C245.377,147.109,247.622,147.943,248.496,149.83"/>
<path fill="#562C35" d="M265.142,142.12c0.873,1.887,0.059,4.151-1.847,5.025c-1.887,0.874-4.131,0.04-5.005-1.847
	c-0.893-1.887-0.059-4.151,1.827-5.025C262.023,139.399,264.268,140.233,265.142,142.12"/>
<path fill="#562C35" d="M281.787,134.41c0.873,1.887,0.059,4.151-1.847,5.025c-1.887,0.874-4.131,0.04-5.005-1.847
	c-0.893-1.887-0.059-4.131,1.827-5.025C278.668,131.689,280.913,132.524,281.787,134.41"/>
<path fill="#562C35" d="M298.431,126.7c0.873,1.887,0.059,4.151-1.847,5.025c-1.887,0.874-4.131,0.04-5.025-1.847
	c-0.874-1.887-0.04-4.151,1.846-5.025C295.312,123.98,297.557,124.814,298.431,126.7"/>
<path fill="#562C35" d="M124.128,100.367c0.635,1.351,0.039,2.979-1.331,3.595c-1.35,0.635-2.959,0.04-3.595-1.311
	c-0.635-1.37-0.039-2.979,1.331-3.614C121.883,98.421,123.492,99.017,124.128,100.367"/>
<path fill="#562C35" d="M130.432,113.976c0.635,1.37,0.039,2.979-1.331,3.595c-1.35,0.635-2.959,0.04-3.595-1.311
	c-0.635-1.37-0.039-2.979,1.331-3.614C128.187,112.029,129.795,112.625,130.432,113.976"/>
<path fill="#562C35" d="M136.735,127.586c0.635,1.351,0.039,2.979-1.331,3.595c-1.35,0.635-2.959,0.04-3.595-1.311
	c-0.635-1.37-0.039-2.979,1.331-3.614C134.49,125.64,136.099,126.235,136.735,127.586"/>
<path fill="#562C35" d="M143.04,141.194c0.635,1.351,0.039,2.979-1.331,3.595c-1.35,0.635-2.959,0.04-3.595-1.311
	c-0.635-1.37-0.039-2.979,1.331-3.614C140.795,139.248,142.403,139.844,143.04,141.194"/>
<path fill="#562C35" d="M149.343,154.803c0.635,1.351,0.039,2.979-1.331,3.595c-1.35,0.635-2.959,0.04-3.595-1.311
	c-0.635-1.37-0.039-2.979,1.331-3.614C147.098,152.857,148.706,153.452,149.343,154.803"/>
<path fill="#562C35" d="M155.646,168.413c0.635,1.351,0.039,2.979-1.331,3.595c-1.35,0.635-2.959,0.04-3.595-1.311
	c-0.635-1.37-0.039-2.979,1.331-3.614C153.401,166.467,155.01,167.063,155.646,168.413"/>
<path fill="#562C35" d="M161.951,182.022c0.635,1.37,0.039,2.979-1.331,3.595c-1.35,0.635-2.959,0.04-3.595-1.311
	c-0.635-1.37-0.039-2.979,1.331-3.614C159.706,180.075,161.314,180.671,161.951,182.022"/>
<path fill="#562C35" d="M272.618,31.588c0.635,1.351,0.039,2.979-1.331,3.595c-1.35,0.635-2.959,0.04-3.595-1.311
	c-0.635-1.37-0.039-2.979,1.331-3.614C270.373,29.642,271.981,30.238,272.618,31.588"/>
<path fill="#562C35" d="M278.919,45.197c0.635,1.351,0.039,2.979-1.331,3.595c-1.35,0.635-2.959,0.04-3.595-1.311
	c-0.635-1.37-0.039-2.979,1.331-3.614C276.674,43.25,278.282,43.846,278.919,45.197"/>
<path fill="#562C35" d="M285.222,58.807c0.635,1.351,0.039,2.979-1.331,3.595c-1.35,0.635-2.959,0.04-3.595-1.311
	c-0.635-1.37-0.039-2.979,1.331-3.614C282.977,56.861,284.586,57.457,285.222,58.807"/>
<path fill="#562C35" d="M291.528,72.415c0.635,1.351,0.039,2.979-1.331,3.595c-1.35,0.635-2.959,0.04-3.595-1.311
	c-0.635-1.37-0.039-2.979,1.331-3.614C289.283,70.469,290.891,71.065,291.528,72.415"/>
<path fill="#562C35" d="M297.832,86.024c0.635,1.351,0.039,2.979-1.331,3.595c-1.35,0.635-2.959,0.04-3.595-1.311
	c-0.635-1.37-0.039-2.979,1.331-3.614C295.587,84.078,297.196,84.673,297.832,86.024"/>
<path fill="#562C35" d="M304.133,99.634c0.635,1.351,0.039,2.979-1.331,3.595c-1.35,0.635-2.959,0.04-3.595-1.311
	c-0.635-1.37-0.039-2.979,1.331-3.614C301.888,97.688,303.497,98.264,304.133,99.634"/>
<path fill="#562C35" d="M310.439,113.243c0.635,1.351,0.039,2.979-1.331,3.595c-1.35,0.635-2.959,0.04-3.595-1.311
	c-0.635-1.37-0.039-2.979,1.331-3.614C308.194,111.296,309.803,111.892,310.439,113.243"/>
<path fill="#562C35" d="M279.471,154.213c-1.371,0.636-2.98,0.04-3.595-1.33c-0.635-1.351-0.04-2.959,1.31-3.595
	c1.371-0.636,2.98-0.04,3.595,1.33C281.417,151.969,280.822,153.578,279.471,154.213"/>
<path fill="#562C35" d="M293.702,147.619c-1.352,0.636-2.98,0.04-3.595-1.33c-0.635-1.351-0.04-2.959,1.31-3.595
	c1.371-0.636,2.98-0.04,3.615,1.33C295.648,145.375,295.072,146.984,293.702,147.619"/>
<path fill="#562C35" d="M265.237,160.805c-1.352,0.636-2.98,0.04-3.595-1.33c-0.635-1.351-0.04-2.959,1.31-3.595
	c1.371-0.636,2.98-0.04,3.615,1.33C267.182,158.561,266.587,160.169,265.237,160.805"/>
<path fill="#562C35" d="M251.003,167.398c-1.352,0.636-2.98,0.04-3.595-1.33c-0.635-1.351-0.04-2.959,1.31-3.595
	c1.371-0.636,2.98-0.04,3.615,1.33C252.949,165.154,252.354,166.763,251.003,167.398"/>
<path fill="#562C35" d="M236.768,173.992c-1.352,0.636-2.98,0.04-3.595-1.33c-0.635-1.351-0.04-2.959,1.31-3.595
	c1.371-0.636,2.98-0.04,3.615,1.33C238.714,171.748,238.119,173.357,236.768,173.992"/>
<path fill="#562C35" d="M222.537,180.584c-1.352,0.636-2.98,0.04-3.595-1.33c-0.635-1.351-0.04-2.959,1.31-3.595
	c1.371-0.636,2.98-0.04,3.615,1.33C224.483,178.34,223.888,179.948,222.537,180.584"/>
<path fill="#562C35" d="M208.303,187.177c-1.352,0.636-2.98,0.04-3.595-1.33c-0.635-1.351-0.04-2.959,1.31-3.595
	c1.371-0.636,2.98-0.04,3.615,1.33C210.248,184.933,209.653,186.542,208.303,187.177"/>
<path fill="#562C35" d="M194.069,193.771c-1.352,0.636-2.98,0.04-3.595-1.33c-0.635-1.351-0.04-2.959,1.31-3.595
	c1.371-0.636,2.98-0.04,3.615,1.33C196.015,191.527,195.419,193.136,194.069,193.771"/>
<path fill="#562C35" d="M223.621,33.638c-1.352,0.636-2.98,0.04-3.595-1.33c-0.635-1.351-0.04-2.959,1.31-3.595
	c1.371-0.636,2.98-0.04,3.615,1.33C225.567,31.394,224.971,33.002,223.621,33.638"/>
<path fill="#562C35" d="M237.856,27.044c-1.352,0.636-2.98,0.04-3.595-1.33c-0.635-1.351-0.04-2.959,1.31-3.595
	c1.371-0.636,2.98-0.04,3.615,1.33C239.801,24.8,239.206,26.409,237.856,27.044"/>
<path fill="#562C35" d="M209.387,40.231c-1.352,0.636-2.98,0.04-3.595-1.33c-0.635-1.351-0.04-2.959,1.31-3.595
	c1.371-0.636,2.98-0.04,3.615,1.33C211.333,37.987,210.738,39.596,209.387,40.231"/>
<path fill="#562C35" d="M195.153,46.823c-1.352,0.636-2.98,0.04-3.595-1.33c-0.635-1.351-0.04-2.959,1.31-3.595
	c1.371-0.636,2.98-0.04,3.615,1.33C197.098,44.579,196.503,46.188,195.153,46.823"/>
<path fill="#562C35" d="M180.922,53.417c-1.352,0.636-2.98,0.04-3.595-1.33c-0.635-1.351-0.04-2.959,1.31-3.595
	c1.371-0.636,2.98-0.04,3.615,1.33C182.867,51.173,182.272,52.781,180.922,53.417"/>
<path fill="#562C35" d="M166.686,60.01c-1.352,0.636-2.98,0.04-3.595-1.33c-0.635-1.351-0.04-2.959,1.31-3.595
	c1.371-0.636,2.98-0.04,3.615,1.33C168.631,57.766,168.055,59.375,166.686,60.01"/>
<path fill="#562C35" d="M152.453,66.602c-1.352,0.636-2.98,0.04-3.595-1.33c-0.635-1.351-0.04-2.959,1.31-3.595
	c1.371-0.636,2.98-0.04,3.615,1.33C154.399,64.358,153.823,65.967,152.453,66.602"/>
<path fill="#562C35" d="M138.219,73.196c-1.352,0.636-2.98,0.04-3.595-1.33c-0.635-1.351-0.04-2.959,1.31-3.595
	c1.371-0.636,2.98-0.04,3.615,1.33C140.164,70.952,139.569,72.561,138.219,73.196"/>
<path fill="#562C35" d="M23.503,230.408c0.873,1.887,0.059,4.151-1.847,5.025c-1.887,0.874-4.131,0.04-5.005-1.847
	c-0.893-1.887-0.059-4.151,1.827-5.025C20.384,227.687,22.629,228.521,23.503,230.408"/>
<path fill="#562C35" d="M40.146,222.698c0.873,1.887,0.059,4.151-1.847,5.025c-1.887,0.874-4.131,0.04-5.005-1.847
	c-0.893-1.887-0.059-4.151,1.827-5.025C37.027,219.977,39.272,220.811,40.146,222.698"/>
<path fill="#562C35" d="M56.791,214.988c0.873,1.887,0.059,4.151-1.847,5.025c-1.887,0.874-4.131,0.04-5.005-1.847
	c-0.893-1.887-0.059-4.151,1.827-5.025C53.672,212.267,55.917,213.101,56.791,214.988"/>
<path fill="#562C35" d="M73.436,207.278c0.873,1.887,0.059,4.151-1.847,5.025c-1.887,0.874-4.131,0.04-5.005-1.847
	c-0.893-1.887-0.059-4.151,1.827-5.025C70.317,204.557,72.562,205.392,73.436,207.278"/>
<path fill="#562C35" d="M90.079,199.568c0.873,1.887,0.059,4.151-1.847,5.025c-1.887,0.874-4.131,0.04-5.005-1.847
	c-0.893-1.887-0.059-4.151,1.827-5.025C86.96,196.848,89.205,197.682,90.079,199.568"/>
<path fill="#562C35" d="M106.726,191.858c0.873,1.887,0.059,4.151-1.847,5.025c-1.887,0.874-4.131,0.04-5.005-1.847
	c-0.893-1.887-0.059-4.131,1.827-5.025C103.607,189.138,105.852,189.972,106.726,191.858"/>
<path fill="#562C35" d="M123.372,184.149c0.873,1.887,0.059,4.151-1.847,5.025c-1.887,0.874-4.131,0.04-5.025-1.847
	c-0.874-1.887-0.04-4.151,1.846-5.025C120.253,181.428,122.498,182.262,123.372,184.149"/>
<path fill="#562C35" d="M140.014,176.439c0.873,1.887,0.059,4.151-1.847,5.025c-1.887,0.874-4.131,0.04-5.005-1.847
	c-0.893-1.887-0.059-4.131,1.827-5.025C136.895,173.718,139.14,174.552,140.014,176.439"/>
<path fill="#562C35" d="M29.765,243.931c0.873,1.887,0.059,4.151-1.847,5.025c-1.887,0.874-4.131,0.04-5.005-1.847
	c-0.893-1.887-0.059-4.151,1.827-5.025C26.646,241.21,28.891,242.044,29.765,243.931"/>
<path fill="#562C35" d="M46.41,236.221c0.873,1.887,0.059,4.151-1.847,5.025c-1.887,0.874-4.131,0.04-5.005-1.847
	c-0.893-1.887-0.059-4.151,1.827-5.025C43.291,233.5,45.536,234.335,46.41,236.221"/>
<path fill="#562C35" d="M63.054,228.511c0.873,1.887,0.059,4.151-1.847,5.025c-1.887,0.874-4.131,0.04-5.005-1.847
	c-0.893-1.887-0.059-4.151,1.827-5.025C59.935,225.79,62.18,226.625,63.054,228.511"/>
<path fill="#562C35" d="M79.7,220.801c0.873,1.887,0.059,4.151-1.847,5.025c-1.887,0.874-4.131,0.04-5.005-1.847
	c-0.893-1.887-0.059-4.151,1.827-5.025C76.581,218.081,78.826,218.915,79.7,220.801"/>
<path fill="#562C35" d="M96.345,213.091c0.873,1.887,0.059,4.151-1.847,5.025c-1.887,0.874-4.131,0.04-5.005-1.847
	c-0.893-1.887-0.059-4.151,1.827-5.025C93.226,210.371,95.471,211.205,96.345,213.091"/>
<path fill="#562C35" d="M112.991,205.382c0.873,1.887,0.059,4.151-1.847,5.025c-1.887,0.874-4.131,0.04-5.005-1.847
	c-0.893-1.887-0.059-4.151,1.827-5.025C109.872,202.661,112.117,203.495,112.991,205.382"/>
<path fill="#562C35" d="M129.634,197.672c0.873,1.887,0.059,4.151-1.847,5.025c-1.887,0.874-4.131,0.04-5.005-1.847
	c-0.893-1.887-0.059-4.151,1.827-5.025C126.515,194.951,128.76,195.785,129.634,197.672"/>
<path fill="#562C35" d="M146.281,189.962c0.873,1.887,0.059,4.151-1.847,5.025c-1.887,0.874-4.131,0.04-5.025-1.847
	c-0.874-1.887-0.04-4.151,1.846-5.025C143.162,187.241,145.407,188.075,146.281,189.962"/>
<path fill="#562C35" d="M36.029,257.454c0.873,1.887,0.059,4.151-1.847,5.025c-1.887,0.874-4.131,0.04-5.005-1.847
	c-0.893-1.887-0.059-4.151,1.827-5.025C32.91,254.733,35.155,255.567,36.029,257.454"/>
<path fill="#562C35" d="M52.674,249.742c0.873,1.887,0.059,4.151-1.847,5.025c-1.887,0.874-4.131,0.04-5.005-1.847
	c-0.893-1.887-0.059-4.131,1.827-5.025C49.555,247.021,51.8,247.856,52.674,249.742"/>
<path fill="#562C35" d="M69.319,242.034c0.873,1.887,0.06,4.151-1.847,5.025c-1.887,0.874-4.131,0.04-5.025-1.847
	c-0.874-1.887-0.04-4.151,1.846-5.025C66.2,239.313,68.445,240.148,69.319,242.034"/>
<path fill="#562C35" d="M85.964,234.324c0.873,1.887,0.059,4.151-1.847,5.025c-1.887,0.874-4.131,0.04-5.025-1.847
	c-0.874-1.887-0.04-4.151,1.846-5.025C82.845,231.603,85.09,232.438,85.964,234.324"/>
<path fill="#562C35" d="M102.607,226.614c0.873,1.887,0.059,4.151-1.847,5.025c-1.887,0.874-4.131,0.04-5.005-1.847
	c-0.893-1.887-0.059-4.151,1.827-5.025C99.488,223.894,101.733,224.728,102.607,226.614"/>
<path fill="#562C35" d="M119.253,218.905c0.873,1.887,0.059,4.151-1.847,5.025c-1.887,0.874-4.131,0.04-5.005-1.847
	c-0.893-1.887-0.059-4.151,1.827-5.025C116.134,216.184,118.379,217.018,119.253,218.905"/>
<path fill="#562C35" d="M135.9,211.195c0.873,1.887,0.059,4.151-1.847,5.025c-1.887,0.874-4.131,0.04-5.025-1.847
	c-0.874-1.887-0.04-4.151,1.846-5.025C132.781,208.474,135.026,209.308,135.9,211.195"/>
<path fill="#562C35" d="M152.543,203.485c0.873,1.887,0.059,4.151-1.847,5.025c-1.887,0.874-4.131,0.04-5.005-1.847
	c-0.893-1.887-0.059-4.151,1.827-5.025C149.424,200.764,151.669,201.598,152.543,203.485"/>
<path fill="#562C35" d="M42.293,270.975c0.873,1.887,0.059,4.151-1.847,5.025c-1.887,0.874-4.131,0.04-5.005-1.847
	c-0.893-1.887-0.059-4.151,1.827-5.025C39.174,268.254,41.419,269.088,42.293,270.975"/>
<path fill="#562C35" d="M58.938,263.265c0.873,1.887,0.059,4.151-1.847,5.025c-1.887,0.874-4.131,0.04-5.005-1.847
	c-0.893-1.887-0.059-4.151,1.827-5.025C55.819,260.544,58.064,261.378,58.938,263.265"/>
<path fill="#562C35" d="M75.584,255.555c0.873,1.887,0.059,4.151-1.847,5.025c-1.887,0.874-4.131,0.04-5.005-1.847
	c-0.893-1.887-0.059-4.151,1.827-5.025C72.465,252.834,74.71,253.669,75.584,255.555"/>
<path fill="#562C35" d="M92.228,247.845c0.873,1.887,0.059,4.151-1.847,5.025c-1.887,0.874-4.131,0.04-5.025-1.847
	c-0.874-1.887-0.04-4.151,1.846-5.025C89.109,245.124,91.354,245.959,92.228,247.845"/>
<path fill="#562C35" d="M108.872,240.135c0.873,1.887,0.059,4.151-1.847,5.025c-1.887,0.874-4.131,0.04-5.005-1.847
	c-0.893-1.887-0.059-4.131,1.827-5.025C105.753,237.415,107.998,238.249,108.872,240.135"/>
<path fill="#562C35" d="M125.519,232.427c0.873,1.887,0.059,4.151-1.847,5.025c-1.887,0.874-4.131,0.04-5.025-1.847
	c-0.874-1.887-0.04-4.151,1.846-5.025C122.4,229.707,124.645,230.541,125.519,232.427"/>
<path fill="#562C35" d="M142.162,224.716c0.873,1.887,0.059,4.151-1.847,5.025c-1.887,0.874-4.131,0.04-5.025-1.847
	c-0.874-1.887-0.04-4.131,1.846-5.025C139.043,221.995,141.288,222.829,142.162,224.716"/>
<path fill="#562C35" d="M158.806,217.006c0.873,1.887,0.059,4.151-1.847,5.025c-1.887,0.874-4.131,0.04-5.005-1.847
	c-0.893-1.887-0.059-4.151,1.827-5.025C155.687,214.285,157.932,215.119,158.806,217.006"/>
<path fill="#562C35" d="M48.555,284.498c0.873,1.887,0.059,4.151-1.847,5.025c-1.887,0.874-4.131,0.04-5.005-1.847
	c-0.893-1.887-0.059-4.151,1.827-5.025C45.436,281.777,47.681,282.611,48.555,284.498"/>
<path fill="#562C35" d="M65.202,276.788c0.873,1.887,0.059,4.151-1.847,5.025c-1.887,0.874-4.131,0.04-5.025-1.847
	c-0.874-1.887-0.04-4.151,1.846-5.025C62.083,274.067,64.328,274.902,65.202,276.788"/>
<path fill="#562C35" d="M81.845,269.078c0.873,1.887,0.059,4.151-1.847,5.025c-1.887,0.874-4.131,0.04-5.005-1.847
	c-0.893-1.887-0.059-4.151,1.827-5.025C78.726,266.358,80.971,267.192,81.845,269.078"/>
<path fill="#562C35" d="M98.49,261.368c0.873,1.887,0.059,4.151-1.847,5.025c-1.887,0.874-4.131,0.04-5.005-1.847
	c-0.893-1.887-0.059-4.151,1.827-5.025C95.371,258.648,97.616,259.482,98.49,261.368"/>
<path fill="#562C35" d="M115.135,253.658c0.873,1.887,0.059,4.151-1.847,5.025c-1.887,0.874-4.131,0.04-5.025-1.847
	c-0.874-1.887-0.04-4.151,1.846-5.025C112.016,250.938,114.261,251.772,115.135,253.658"/>
<path fill="#562C35" d="M131.781,245.951c0.873,1.887,0.059,4.151-1.847,5.025c-1.887,0.874-4.131,0.04-5.025-1.847
	c-0.874-1.887-0.04-4.151,1.846-5.025C128.662,243.23,130.907,244.064,131.781,245.951"/>
<path fill="#562C35" d="M148.423,238.239c0.873,1.887,0.059,4.151-1.847,5.025c-1.887,0.874-4.131,0.04-5.005-1.847
	c-0.893-1.887-0.059-4.151,1.827-5.025C145.304,235.518,147.549,236.352,148.423,238.239"/>
<path fill="#562C35" d="M165.071,230.529c0.873,1.887,0.059,4.151-1.847,5.025c-1.887,0.874-4.131,0.04-5.005-1.847
	c-0.893-1.887-0.059-4.151,1.827-5.025C161.952,227.808,164.197,228.642,165.071,230.529"/>
<path fill="#562C35" d="M54.821,298.021c0.873,1.887,0.059,4.151-1.847,5.025c-1.887,0.874-4.131,0.04-5.025-1.847
	c-0.874-1.887-0.04-4.131,1.846-5.025C51.702,295.3,53.947,296.134,54.821,298.021"/>
<path fill="#562C35" d="M71.463,290.311c0.873,1.887,0.059,4.151-1.847,5.025c-1.887,0.874-4.131,0.04-5.005-1.847
	c-0.893-1.887-0.059-4.151,1.827-5.025C68.344,287.59,70.589,288.424,71.463,290.311"/>
<path fill="#562C35" d="M88.109,282.601c0.873,1.887,0.059,4.151-1.847,5.025c-1.887,0.874-4.131,0.04-5.005-1.847
	c-0.893-1.887-0.059-4.151,1.827-5.025C84.99,279.88,87.235,280.715,88.109,282.601"/>
<path fill="#562C35" d="M104.754,274.891c0.873,1.887,0.059,4.151-1.847,5.025c-1.887,0.874-4.131,0.04-5.025-1.847
	c-0.874-1.887-0.04-4.151,1.846-5.025C101.635,272.171,103.88,273.005,104.754,274.891"/>
<path fill="#562C35" d="M121.4,267.181c0.873,1.887,0.059,4.151-1.847,5.025c-1.887,0.874-4.131,0.04-5.005-1.847
	c-0.893-1.887-0.059-4.151,1.827-5.025C118.281,264.461,120.526,265.295,121.4,267.181"/>
<path fill="#562C35" d="M138.044,259.472c0.873,1.887,0.059,4.151-1.847,5.025c-1.887,0.874-4.131,0.04-5.005-1.847
	c-0.893-1.887-0.059-4.151,1.827-5.025C134.925,256.751,137.17,257.585,138.044,259.472"/>
<path fill="#562C35" d="M154.69,251.762c0.873,1.887,0.059,4.151-1.847,5.025c-1.887,0.874-4.131,0.04-5.005-1.847
	c-0.893-1.887-0.059-4.131,1.827-5.025C151.571,249.041,153.816,249.875,154.69,251.762"/>
<path fill="#562C35" d="M171.332,244.052c0.873,1.887,0.059,4.151-1.847,5.025c-1.887,0.874-4.131,0.04-5.005-1.847
	c-0.893-1.887-0.059-4.151,1.827-5.025C168.213,241.331,170.458,242.166,171.332,244.052"/>
<path fill="#562C35" d="M61.083,311.542c0.873,1.887,0.059,4.151-1.847,5.025c-1.887,0.874-4.131,0.04-5.005-1.847
	c-0.893-1.887-0.059-4.151,1.827-5.025C57.964,308.821,60.209,309.655,61.083,311.542"/>
<path fill="#562C35" d="M77.728,303.834c0.873,1.887,0.059,4.151-1.847,5.025c-1.887,0.874-4.131,0.04-5.025-1.847
	c-0.874-1.887-0.04-4.151,1.846-5.025C74.609,301.113,76.854,301.948,77.728,303.834"/>
<path fill="#562C35" d="M94.373,296.124c0.873,1.887,0.059,4.151-1.847,5.025c-1.887,0.874-4.131,0.04-5.005-1.847
	c-0.893-1.887-0.059-4.131,1.827-5.025C91.254,293.404,93.499,294.238,94.373,296.124"/>
<path fill="#562C35" d="M111.016,288.414c0.873,1.887,0.059,4.151-1.847,5.025c-1.887,0.874-4.131,0.04-5.005-1.847
	c-0.893-1.887-0.059-4.151,1.827-5.025C107.897,285.693,110.142,286.528,111.016,288.414"/>
<path fill="#562C35" d="M127.663,280.704c0.873,1.887,0.059,4.151-1.847,5.025c-1.887,0.874-4.131,0.04-5.005-1.847
	c-0.893-1.887-0.059-4.151,1.827-5.025C124.544,277.984,126.789,278.818,127.663,280.704"/>
<path fill="#562C35" d="M144.309,272.995c0.873,1.887,0.059,4.151-1.847,5.025c-1.887,0.874-4.131,0.04-5.005-1.847
	c-0.893-1.887-0.059-4.151,1.827-5.025C141.19,270.274,143.435,271.108,144.309,272.995"/>
<path fill="#562C35" d="M160.951,265.285c0.873,1.887,0.059,4.151-1.847,5.025c-1.887,0.874-4.131,0.04-5.005-1.847
	c-0.893-1.887-0.059-4.151,1.827-5.025C157.832,262.564,160.077,263.398,160.951,265.285"/>
<path fill="#562C35" d="M177.597,257.575c0.873,1.887,0.059,4.151-1.847,5.025c-1.887,0.874-4.131,0.04-5.005-1.847
	c-0.893-1.887-0.059-4.151,1.827-5.025C174.478,254.854,176.723,255.688,177.597,257.575"/>
<path fill="#562C35" d="M67.347,325.065c0.873,1.887,0.059,4.151-1.847,5.025c-1.887,0.874-4.131,0.04-5.005-1.847
	c-0.893-1.887-0.059-4.131,1.827-5.025C64.228,322.344,66.473,323.179,67.347,325.065"/>
<path fill="#562C35" d="M83.991,317.355c0.873,1.887,0.059,4.151-1.847,5.025c-1.887,0.874-4.131,0.04-5.005-1.847
	c-0.893-1.887-0.059-4.151,1.827-5.025C80.872,314.634,83.117,315.469,83.991,317.355"/>
<path fill="#562C35" d="M100.635,309.645c0.873,1.887,0.059,4.151-1.847,5.025c-1.887,0.874-4.131,0.04-5.005-1.847
	c-0.893-1.887-0.059-4.131,1.827-5.025C97.516,306.924,99.761,307.759,100.635,309.645"/>
<path fill="#562C35" d="M117.28,301.935c0.873,1.887,0.059,4.151-1.847,5.025c-1.887,0.874-4.131,0.04-5.005-1.847
	c-0.893-1.887-0.059-4.131,1.827-5.025C114.162,299.215,116.406,300.049,117.28,301.935"/>
<path fill="#562C35" d="M133.927,294.228c0.873,1.887,0.059,4.131-1.847,5.025c-1.887,0.874-4.131,0.04-5.025-1.847
	c-0.874-1.887-0.04-4.151,1.846-5.025C130.809,291.507,133.053,292.341,133.927,294.228"/>
<path fill="#562C35" d="M150.571,286.516c0.873,1.887,0.059,4.151-1.847,5.025c-1.887,0.874-4.131,0.04-5.005-1.847
	c-0.893-1.887-0.059-4.151,1.827-5.025C147.452,283.795,149.697,284.629,150.571,286.516"/>
<path fill="#562C35" d="M167.218,278.808c0.873,1.887,0.059,4.151-1.847,5.025c-1.887,0.874-4.131,0.04-5.025-1.847
	c-0.874-1.887-0.04-4.151,1.846-5.025C164.099,276.087,166.344,276.921,167.218,278.808"/>
<path fill="#562C35" d="M183.86,271.096c0.873,1.887,0.059,4.151-1.847,5.025c-1.887,0.874-4.131,0.04-5.005-1.847
	c-0.893-1.887-0.059-4.151,1.827-5.025C180.741,268.375,182.986,269.209,183.86,271.096"/>
<path fill="#562C35" d="M9.559,244.763c0.635,1.351,0.039,2.979-1.331,3.595c-1.35,0.635-2.959,0.04-3.595-1.311
	c-0.635-1.37-0.039-2.979,1.331-3.614C7.314,242.817,8.923,243.413,9.559,244.763"/>
<path fill="#562C35" d="M15.86,258.373c0.635,1.351,0.039,2.979-1.331,3.595c-1.35,0.635-2.959,0.04-3.595-1.311
	c-0.635-1.37-0.039-2.979,1.331-3.614C13.615,256.427,15.224,257.023,15.86,258.373"/>
<path fill="#562C35" d="M22.164,271.982c0.635,1.351,0.039,2.979-1.331,3.595c-1.35,0.635-2.959,0.04-3.595-1.311
	c-0.635-1.37-0.039-2.979,1.331-3.614C19.919,270.036,21.527,270.631,22.164,271.982"/>
<path fill="#562C35" d="M28.469,285.59c0.635,1.351,0.039,2.979-1.331,3.595c-1.35,0.635-2.959,0.04-3.595-1.311
	c-0.635-1.37-0.039-2.979,1.331-3.614C26.224,283.644,27.833,284.24,28.469,285.59"/>
<path fill="#562C35" d="M34.774,299.201c0.635,1.351,0.039,2.979-1.331,3.595c-1.35,0.635-2.959,0.04-3.595-1.311
	c-0.635-1.37-0.039-2.979,1.331-3.614C32.529,297.254,34.138,297.85,34.774,299.201"/>
<path fill="#562C35" d="M41.075,312.809c0.635,1.351,0.039,2.979-1.331,3.595c-1.35,0.635-2.959,0.04-3.595-1.311
	c-0.635-1.37-0.039-2.979,1.331-3.614C38.83,310.863,40.439,311.459,41.075,312.809"/>
<path fill="#562C35" d="M47.381,326.418c0.635,1.351,0.039,2.979-1.331,3.595c-1.35,0.635-2.959,0.04-3.595-1.311
	c-0.635-1.37-0.039-2.979,1.331-3.614C45.136,324.471,46.744,325.067,47.381,326.418"/>
<path fill="#562C35" d="M158.046,175.984c0.635,1.351,0.039,2.979-1.331,3.595c-1.35,0.635-2.959,0.04-3.595-1.311
	c-0.635-1.37-0.039-2.979,1.331-3.614C155.801,174.038,157.41,174.634,158.046,175.984"/>
<path fill="#562C35" d="M164.35,189.592c0.635,1.37,0.039,2.979-1.331,3.595c-1.35,0.635-2.959,0.04-3.595-1.311
	c-0.635-1.37-0.039-2.979,1.331-3.595C162.105,187.646,163.713,188.242,164.35,189.592"/>
<path fill="#562C35" d="M170.653,203.203c0.635,1.351,0.039,2.979-1.331,3.595c-1.35,0.635-2.959,0.04-3.595-1.311
	c-0.635-1.37-0.039-2.979,1.331-3.614C168.408,201.257,170.017,201.852,170.653,203.203"/>
<path fill="#562C35" d="M176.957,216.811c0.635,1.351,0.039,2.979-1.331,3.595c-1.35,0.635-2.959,0.04-3.595-1.311
	c-0.635-1.37-0.039-2.979,1.331-3.614C174.712,214.865,176.32,215.461,176.957,216.811"/>
<path fill="#562C35" d="M183.261,230.42c0.635,1.351,0.039,2.979-1.331,3.595c-1.35,0.635-2.959,0.04-3.595-1.311
	c-0.635-1.37-0.039-2.979,1.331-3.614C181.016,228.474,182.625,229.069,183.261,230.42"/>
<path fill="#562C35" d="M189.565,244.03c0.635,1.37,0.039,2.979-1.331,3.595c-1.35,0.635-2.959,0.04-3.595-1.311
	c-0.635-1.37-0.039-2.979,1.331-3.614C187.32,242.084,188.928,242.68,189.565,244.03"/>
<path fill="#562C35" d="M195.868,257.639c0.635,1.351,0.039,2.979-1.331,3.595c-1.35,0.635-2.959,0.04-3.595-1.311
	c-0.635-1.37-0.039-2.979,1.331-3.614C193.623,255.692,195.232,256.288,195.868,257.639"/>
<path fill="#562C35" d="M164.9,298.609c-1.352,0.636-2.98,0.04-3.595-1.33c-0.635-1.351-0.04-2.959,1.31-3.595
	c1.371-0.636,2.98-0.04,3.615,1.33C166.846,296.365,166.251,297.973,164.9,298.609"/>
<path fill="#562C35" d="M179.134,292.015c-1.352,0.636-2.98,0.04-3.595-1.33c-0.635-1.351-0.04-2.959,1.31-3.595
	c1.371-0.636,2.98-0.04,3.615,1.33C181.079,289.771,180.484,291.38,179.134,292.015"/>
<path fill="#562C35" d="M150.665,305.202c-1.352,0.636-2.98,0.04-3.595-1.33c-0.635-1.351-0.04-2.959,1.31-3.595
	c1.371-0.636,2.98-0.04,3.615,1.33C152.611,302.958,152.016,304.567,150.665,305.202"/>
<path fill="#562C35" d="M136.432,311.794c-1.352,0.636-2.98,0.04-3.595-1.33c-0.635-1.351-0.04-2.959,1.31-3.595
	c1.371-0.636,2.98-0.04,3.615,1.33C138.377,309.55,137.802,311.159,136.432,311.794"/>
<path fill="#562C35" d="M122.2,318.388c-1.352,0.636-2.98,0.04-3.595-1.33c-0.635-1.351-0.04-2.959,1.31-3.595
	c1.371-0.636,2.98-0.04,3.615,1.33C124.145,316.144,123.55,317.752,122.2,318.388"/>
<path fill="#562C35" d="M107.966,324.98c-1.352,0.636-2.98,0.04-3.595-1.33c-0.635-1.351-0.04-2.959,1.31-3.595
	c1.371-0.636,2.98-0.04,3.615,1.33C109.912,322.736,109.336,324.344,107.966,324.98"/>
<path fill="#562C35" d="M93.731,331.573c-1.352,0.636-2.98,0.04-3.595-1.33c-0.635-1.351-0.04-2.959,1.31-3.595
	c1.371-0.636,2.98-0.04,3.615,1.33C95.677,329.329,95.082,330.938,93.731,331.573"/>
<path fill="#562C35" d="M79.498,338.167c-1.352,0.636-2.98,0.04-3.595-1.33c-0.635-1.351-0.04-2.959,1.31-3.595
	c1.371-0.636,2.98-0.04,3.615,1.33C81.443,335.923,80.848,337.531,79.498,338.167"/>
<path fill="#562C35" d="M109.05,178.033c-1.352,0.636-2.98,0.04-3.595-1.33c-0.635-1.351-0.04-2.959,1.31-3.595
	c1.371-0.636,2.98-0.04,3.615,1.33C110.995,175.789,110.4,177.398,109.05,178.033"/>
<path fill="#562C35" d="M123.284,171.442c-1.352,0.636-2.98,0.04-3.595-1.33c-0.635-1.351-0.04-2.959,1.31-3.595
	c1.371-0.636,2.98-0.04,3.615,1.33C125.23,169.198,124.635,170.806,123.284,171.442"/>
<path fill="#562C35" d="M94.816,184.627c-1.352,0.636-2.98,0.04-3.595-1.33c-0.635-1.351-0.04-2.959,1.31-3.595
	c1.371-0.636,2.98-0.04,3.615,1.33C96.762,182.383,96.186,183.992,94.816,184.627"/>
<path fill="#562C35" d="M80.584,191.219c-1.371,0.636-2.98,0.04-3.595-1.33c-0.635-1.351-0.04-2.959,1.31-3.595
	c1.371-0.636,2.98-0.04,3.595,1.33C82.529,188.975,81.934,190.584,80.584,191.219"/>
<path fill="#562C35" d="M66.35,197.813c-1.352,0.636-2.98,0.04-3.595-1.33c-0.635-1.351-0.04-2.959,1.31-3.595
	c1.371-0.636,2.98-0.04,3.615,1.33C68.296,195.569,67.701,197.177,66.35,197.813"/>
<path fill="#562C35" d="M52.116,204.406c-1.352,0.636-2.98,0.04-3.595-1.33c-0.635-1.351-0.04-2.959,1.31-3.595
	c1.371-0.636,2.98-0.04,3.615,1.33C54.061,202.162,53.466,203.771,52.116,204.406"/>
<path fill="#562C35" d="M37.882,210.998c-1.352,0.636-2.98,0.04-3.595-1.33c-0.635-1.351-0.04-2.959,1.31-3.595
	c1.371-0.636,2.98-0.04,3.615,1.33C39.828,208.754,39.232,210.363,37.882,210.998"/>
<path fill="#562C35" d="M23.647,217.592c-1.352,0.636-2.98,0.04-3.595-1.33c-0.635-1.351-0.04-2.959,1.31-3.595
	c1.371-0.636,2.98-0.04,3.615,1.33C25.593,215.348,24.998,216.956,23.647,217.592"/>
<path fill="#E69374" d="M389.552,344.226c0.039,0,0.059,0.02,0.059,0.06l0.417,8.62c0.138,3.317-2.423,6.673-5.76,7.388
	l-12.69,2.761l0.338,4.25l11.658-2.522c0.715-0.159,1.41-0.238,2.045-0.238c2.324,0,3.993,1.072,4.112,3.674l0.318,6.892
	c0.059,0.993-0.715,1.986-1.689,2.185l-15.928,3.456l0.239,4.985l18.709-4.052l0.616,13.049c0.04,0.953-0.675,1.886-1.609,2.085
	l-31.718,6.872l-2.383-50.446c-0.039-0.993,0.715-1.966,1.689-2.185l31.558-6.832H389.552"/>
<path fill="#040000" d="M279.549,343.805l-0.021-0.278c0.04,0.04,0.08,0.099,0.119,0.139
	C279.608,343.726,279.588,343.765,279.549,343.805"/>
<path fill="#E69374" d="M410.114,314.577c1.489,1.192,3.772,2.026,7.01,2.443c1.847,0.199,2.84,0.497,3.297,0.636l0.496,0.198
	l0.12,0.079v0.159v0.139c0.019,0.358-0.021,0.516-0.258,0.775c-0.478,0.516-1.35,0.894-2.463,1.152
	c-1.43,0.298-2.661,0.437-3.714,0.437c-0.616,0-1.192-0.04-1.687-0.139c-0.199-0.04-0.438-0.079-0.656-0.079
	c-0.278,0-0.556,0.04-0.834,0.099c-0.775,0.179-1.45,0.516-2.066,1.112c-1.052,0.933-1.629,2.323-1.569,3.634l0.079,1.748
	c0.08,1.609,1.073,2.8,2.523,3.098c0.775,0.159,1.609,0.238,2.523,0.238c1.687,0,3.674-0.258,5.977-0.755
	c3.397-0.735,6.197-2.264,8.322-4.548c2.404-2.542,3.515-5.521,3.357-8.878c-0.099-1.807-0.556-3.376-1.41-4.608
	c-0.815-1.192-1.987-2.145-3.555-2.82c-1.272-0.536-2.98-0.993-5.263-1.311c-2.204-0.278-2.959-0.576-3.217-0.655
	c-0.099-0.04-0.139-0.02-0.199-0.06l-0.138-0.079l-0.021-0.139c0-0.099,0-0.159,0-0.258l-0.019-0.159
	c0.04-0.199,0.138-0.318,0.238-0.397c0.239-0.258,0.755-0.576,1.947-0.814c0.656-0.159,1.35-0.238,2.085-0.238
	c0.775,0,1.57,0.099,2.364,0.278c0.218,0.04,0.436,0.08,0.675,0.08c0.258,0,0.536-0.04,0.815-0.099
	c1.529-0.338,2.86-1.589,3.416-3.178l0.536-1.629c0.735-2.145-0.258-4.25-2.264-4.687c-1.211-0.258-2.462-0.397-3.734-0.397
	c-1.429,0-2.9,0.159-4.389,0.496c-3.197,0.695-5.838,2.165-7.865,4.389c-2.324,2.483-3.435,5.303-3.277,8.46
	C407.412,311.062,408.366,313.186,410.114,314.577"/>
<path fill="#E69374" d="M398.459,332.425l-1.053-22.244l6.019-1.291c1.211-0.278,2.045-1.35,1.986-2.582L405.071,299l-23.455,5.085
	c-1.192,0.258-2.026,1.35-1.966,2.562l0.337,7.309l8.103-1.748l1.013,21.628c0.039,0.993,0.874,1.728,1.807,1.728
	c0.138,0,0.258-0.02,0.396-0.04l5.72-1.231C397.902,334.094,398.497,333.319,398.459,332.425"/>
<path fill="#E69374" d="M367.663,306.893l0.576,12.234c0,0.159-0.08,0.338-0.239,0.417l-0.08,0.02c-0.039,0-0.079,0-0.119,0
	c-0.099,0-0.159-0.02-0.238-0.079l-7.468-9.235c-0.635-0.695-1.509-1.092-2.483-1.092c-0.258,0-0.536,0.02-0.794,0.079l-5.541,1.211
	l1.549,33.207l9.274-2.006l-0.576-12.254c0-0.139,0.139-0.318,0.278-0.417c0-0.04,0.059-0.06,0.099-0.06
	c0.021,0,0.04-0.02,0.08-0.02c0.099,0,0.199,0.08,0.278,0.139l7.467,9.176c0.596,0.755,1.51,1.152,2.463,1.152
	c0.258,0,0.516-0.02,0.755-0.079l5.6-1.212l-1.549-33.207L367.663,306.893z"/>
<path fill="#E69374" d="M342.399,345.323c0.257,0,0.515-0.02,0.794-0.079l1.767-0.397c2.046-0.437,3.694-2.522,3.595-4.667
	l-1.212-25.441c-0.079-1.867-1.45-3.118-3.158-3.118c-0.258,0-0.536,0.02-0.794,0.079l-1.767,0.377
	c-2.066,0.457-3.695,2.522-3.595,4.687l1.192,25.421C339.32,344.072,340.689,345.323,342.399,345.323"/>
<path fill="#E69374" d="M312.382,351.805c0.258,0,0.516-0.02,0.795-0.079l1.907-0.417c1.628-0.358,2.999-1.609,3.515-3.297
	l2.204-7.011l4.806-1.033l2.76,5.938c0.537,1.172,1.629,1.807,2.901,1.807c0.278,0,0.555-0.04,0.853-0.099l1.966-0.417
	c1.272-0.278,2.463-1.192,3.098-2.403c0.695-1.251,0.775-2.641,0.278-3.793l-11.022-23.416c-0.556-1.132-1.649-1.807-2.919-1.807
	c-0.279,0-0.556,0.02-0.834,0.079l-1.073,0.239c-1.629,0.357-2.999,1.668-3.515,3.297l-8.819,27.705
	c-0.377,1.291-0.159,2.661,0.577,3.575C310.476,351.408,311.39,351.805,312.382,351.805 M322.631,323.464l2.661,9.474l-4.766,1.033
	C321.002,332.501,322.115,325.192,322.631,323.464"/>
<path fill="#E69374" d="M286.842,340.568c1.489,1.192,3.772,2.026,7.01,2.443c1.847,0.199,2.84,0.497,3.297,0.636l0.496,0.198
	l0.12,0.079v0.159v0.139c0.019,0.358-0.021,0.516-0.258,0.775c-0.478,0.516-1.35,0.894-2.463,1.152
	c-1.43,0.298-2.661,0.437-3.714,0.437c-0.616,0-1.192-0.04-1.687-0.139c-0.199-0.04-0.438-0.079-0.656-0.079
	c-0.278,0-0.556,0.04-0.834,0.099c-0.775,0.159-1.45,0.516-2.066,1.112c-1.052,0.933-1.629,2.323-1.569,3.634l0.079,1.748
	c0.08,1.609,1.073,2.8,2.523,3.098c0.775,0.159,1.609,0.238,2.523,0.238c1.687,0,3.674-0.258,5.977-0.755
	c3.397-0.735,6.197-2.264,8.322-4.548c2.404-2.542,3.515-5.521,3.357-8.878c-0.099-1.807-0.556-3.376-1.41-4.608
	c-0.795-1.192-1.987-2.145-3.555-2.82c-1.272-0.536-2.98-0.993-5.263-1.311c-2.204-0.278-2.959-0.576-3.217-0.655
	c-0.099-0.04-0.139-0.02-0.199-0.06l-0.138-0.079l-0.021-0.139c0-0.099,0-0.159,0-0.258l-0.019-0.159
	c0.04-0.199,0.138-0.318,0.238-0.397c0.239-0.258,0.755-0.576,1.947-0.834c0.656-0.139,1.35-0.219,2.085-0.219
	c0.775,0,1.57,0.099,2.364,0.278c0.218,0.04,0.436,0.08,0.675,0.08c0.258,0,0.536-0.04,0.815-0.099
	c1.529-0.338,2.86-1.589,3.416-3.178l0.536-1.629c0.735-2.145-0.258-4.25-2.264-4.687c-1.211-0.258-2.462-0.397-3.734-0.397
	c-1.429,0-2.9,0.159-4.389,0.496c-3.197,0.695-5.838,2.165-7.865,4.389c-2.324,2.483-3.435,5.303-3.277,8.46
	C284.14,337.053,285.094,339.178,286.842,340.568"/>
<path fill="#E69374" d="M254.453,364.742c0.198,0,0.417-0.02,0.615-0.059l15.492-3.357c1.37-0.298,2.343-1.549,2.264-2.959
	l-0.318-7.05l-11.877,2.582l-1.132-23.733l-7.666,1.668c-0.954,0.199-1.609,1.072-1.57,2.046l1.331,28.122
	C251.652,363.571,252.963,364.742,254.453,364.742"/>
<path fill="#E69374" d="M432.155,334.999c0-0.04-0.04-0.059-0.061-0.059c-0.019,0-0.019,0-0.019,0l-38.371,8.302
	c-0.973,0.219-1.727,1.192-1.689,2.204l0.616,12.969c0,0.04,0.021,0.06,0.059,0.06h0.021l12.69-2.741l1.47,31.3
	c0.138,2.959,2.244,5.005,4.985,5.005c0.417,0,0.834-0.04,1.251-0.139l2.781-0.596c3.337-0.735,5.839-4.051,5.68-7.467l-1.49-31.3
	l11.003-2.383c0.973-0.198,1.727-1.192,1.687-2.184L432.155,334.999z"/>
<path fill="#E69374" d="M231.778,369.646c0.198,0,0.417-0.02,0.615-0.059l13.665-2.999c1.37-0.298,2.324-1.549,2.263-2.939
	l-0.337-7.051l-10.03,2.205l-1.132-23.713l-7.666,1.648c-0.954,0.219-1.609,1.072-1.57,2.066l1.331,28.103
	C228.976,368.474,230.288,369.646,231.778,369.646"/>
<path fill="#E69374" d="M203.935,373.797l2.483-7.924l5.421-1.172l3.119,6.693c0.616,1.331,1.846,2.066,3.277,2.066
	c0.298,0,0.635-0.04,0.953-0.119l2.224-0.477c1.43-0.318,2.781-1.35,3.496-2.701c0.775-1.43,0.874-2.979,0.298-4.29l-12.413-26.414
	c-0.616-1.291-1.867-2.046-3.317-2.046c-0.298,0-0.596,0.04-0.914,0.099l-1.232,0.278c-1.827,0.397-3.376,1.867-3.952,3.714
	l-9.951,31.241c-0.436,1.47-0.198,3.019,0.636,4.032c0.715,0.854,1.727,1.291,2.84,1.291c0.297,0,0.616-0.02,0.913-0.099
	l2.165-0.457C201.809,377.113,203.358,375.683,203.935,373.797 M208.483,346.568l2.998,10.208l-5.382,1.172
	C206.636,356.28,207.906,348.514,208.483,346.568"/>
<path fill="#E69374" d="M336.928,393.47l-0.239-4.985l16.028-3.456c0.933-0.218,1.649-1.152,1.609-2.105l-0.338-6.971
	c-0.119-2.602-1.787-3.674-4.091-3.674c-0.635,0-1.33,0.079-2.045,0.238l-11.659,2.522l-0.358-4.25l12.711-2.76
	c3.317-0.715,5.899-4.071,5.74-7.388l-0.398-8.699h-0.019l-31.698,6.872c-0.933,0.199-1.668,1.152-1.628,2.105l2.383,50.505
	l31.717-6.852c0.933-0.219,1.649-1.152,1.609-2.105l-0.616-13.048L336.928,393.47z"/>
<path fill="#E69374" d="M311.624,392.241c-0.159-0.278-0.099-0.616,0.119-0.814c0.815-0.993,1.469-1.926,2.125-2.94
	c2.046-3.396,3.018-7.209,2.84-11.241c-0.258-5.601-2.483-9.593-6.495-11.837c-2.104-1.172-4.627-1.748-7.666-1.748
	c-2.066,0-4.369,0.278-6.911,0.814l-13.625,2.959c-0.933,0.199-1.649,1.152-1.609,2.105l2.085,44.428
	c0.139,2.959,2.264,5.005,5.005,5.005c0.398,0,0.815-0.04,1.251-0.139l2.781-0.596c3.257-0.715,5.82-4.051,5.661-7.467l-0.438-9.553
	c-0.019-0.318,0.199-0.596,0.417-0.735l0.159-0.04c0.059,0,0.12-0.02,0.159-0.02c0.159,0,0.279,0.079,0.398,0.218l8.123,11.42
	c0.933,1.291,2.463,2.026,4.111,2.026c0.398,0,0.815-0.059,1.212-0.139l3.238-0.695c2.164-0.477,4.13-2.105,5.124-4.23
	c0.913-2.185,0.794-4.568-0.358-6.157L311.624,392.241z M302.408,383.86c-0.973,1.013-2.643,1.847-4.886,2.344l-2.483,0.536
	c-0.04,0-0.099,0-0.139,0c-0.297,0-0.496-0.238-0.516-0.496l-0.358-7.587c0-0.318,0.219-0.616,0.596-0.695l1.469-0.318
	c1.828-0.397,3.158-0.536,4.112-0.536c1.132,0,1.748,0.199,2.066,0.397c0.715,0.318,1.073,1.291,1.152,2.86
	C303.52,382.668,302.785,383.463,302.408,383.86"/>
<path fill="#E69374" d="M277.936,368.319h-0.021l-38.371,8.322c-0.973,0.199-1.727,1.192-1.687,2.185l0.615,12.969
	c0,0.04,0.04,0.06,0.08,0.06l12.69-2.741l1.47,31.3c0.139,2.959,2.264,5.005,5.005,5.005c0.396,0,0.813-0.04,1.251-0.139
	l2.781-0.596c3.317-0.715,5.819-4.052,5.66-7.448l-1.469-31.3l10.982-2.383c0.973-0.219,1.727-1.212,1.689-2.205l-0.616-12.969
	C277.995,368.339,277.974,368.319,277.936,368.319"/>
<path fill="#E69374" d="M234.902,405.585c-1.252-1.886-3.138-3.396-5.602-4.449c-1.986-0.854-4.686-1.549-8.301-2.046
	c-3.456-0.437-4.648-0.913-5.045-1.052c-0.159-0.06-0.238-0.04-0.318-0.099l-0.239-0.099l-0.019-0.238c0-0.159,0-0.238-0.019-0.397
	v-0.238c0.059-0.338,0.198-0.536,0.358-0.635c0.377-0.397,1.211-0.914,3.058-1.311c1.033-0.218,2.144-0.338,3.317-0.338
	c1.192,0,2.443,0.119,3.714,0.417c0.337,0.08,0.695,0.119,1.072,0.119c0.398,0,0.834-0.06,1.272-0.159
	c2.403-0.516,4.508-2.483,5.402-4.985l0.815-2.582c1.172-3.356-0.398-6.693-3.555-7.368c-1.906-0.417-3.872-0.635-5.899-0.635
	c-2.244,0-4.548,0.258-6.911,0.775c-5.025,1.092-9.215,3.436-12.393,6.912c-3.655,3.912-5.402,8.361-5.164,13.346
	c0.199,4.349,1.689,7.686,4.449,9.891c2.364,1.887,5.939,3.178,11.043,3.833c2.9,0.338,4.489,0.795,5.203,1.033l0.795,0.298
	l0.159,0.139l0.019,0.219v0.238c0.04,0.556-0.04,0.814-0.396,1.212c-0.755,0.794-2.126,1.43-3.913,1.807
	c-2.245,0.477-4.191,0.715-5.839,0.715c-0.973,0-1.867-0.079-2.641-0.238c-0.338-0.06-0.696-0.099-1.052-0.099
	c-0.438,0-0.874,0.04-1.291,0.139c-1.252,0.258-2.304,0.814-3.278,1.748c-1.649,1.469-2.561,3.654-2.462,5.72l0.119,2.761
	c0.119,2.542,1.689,4.429,3.992,4.885c1.192,0.258,2.523,0.378,3.972,0.378c2.661,0,5.78-0.417,9.414-1.192
	c5.342-1.172,9.751-3.555,13.107-7.15c3.794-4.012,5.522-8.719,5.284-14.002C236.987,410.014,236.252,407.532,234.902,405.585"/>
<path fill="#E69374" d="M280.076,360.293c0.019,0,0.039,0,0.039-0.02c0,0-0.019-0.02-0.039-0.04
	C280.076,360.254,280.076,360.274,280.076,360.293"/>
<path fill="#040000" d="M301.578,153.067c0-0.198,0-0.397,0-0.596c0.079,0.08,0.159,0.159,0.238,0.239
	C301.737,152.829,301.657,152.948,301.578,153.067"/>
<path fill="#F1CA5B" d="M594.161,83.291c8.262-6.693,13.941-14.041,21.19-14.041c4.489,0,9.593,2.84,16.266,10.387
	c14.955,16.901,0.099,20.655-8.163,24.727c-5.442,2.661-33.524,15.412-45.004,15.412c-1.649,0-2.959-0.278-3.814-0.874
	C563.158,110.838,580.774,94.135,594.161,83.291 M468.682,183.05c-3.972,9.037-3.119,43.852-1.549,67.566
	c1.649,24.726-11.976,47.01-23.177,47.01c-8.58,0-15.731-13.048-13.526-48.042c1.41-29.93,0.735-45.818-0.139-49.969
	c-13.326,11.301-34.557,18.232-70.862,26.137c0,0.04,0-0.06,0,0l0.279,6.455c12.413-1.43,20.158-2.026,26.017-2.026
	c1.27,0,2.284,0.06,3.058,0.139c4.349,0.556,7.507,1.728,8.639,3.793c4.349,7.905-1.033,12.036-3.892,13.565
	c-2.721,1.45-15.094,4.052-32.711,7.051l0.377,6.673c18.789-2.443,33.922-5.561,39.782-5.998c1.27-0.079,2.661-0.139,4.091-0.139
	c6.911,0,14.934,1.43,16.881,7.706c4.489,14.458-7.945,18.689-15.392,20.734c-7.467,2.046-141.506,30.962-141.506,30.962
	s-3.118,0.596-7.288,0.596c-8.103,0-22.224,0.397-20.516-12.79c1.966-15.312,6.216-19.344,11.022-21.469
	c10.248-4.528,41.031-8.957,74.735-13.982l0.457-6.355c-9.374,1.37-16.624,2.343-19.245,2.522c-1.669,0.119-3.377,0.199-5.065,0.199
	c-8.222,0-12.612-1.827-14.459-8.103c-2.561-8.719,4.946-12.254,9.573-13.386c4.668-1.132,16.823-3.138,31.082-5.203l0.318-6.911
	c-7.645,0.933-14.676,2.8-20.813,2.84c-3.078,0.02-6.137,0.04-9.037,0.04c-4.548,0-8.758-0.079-12.254-0.457
	c-6.692-0.735-11.26-2.681-11.221-9.195c0-2.006,0.12-3.972,0.279-5.362c0.735-6.494,7.924-9.851,15.908-10.566
	c51.082-4.608,78.946-7.289,101.209-15.412c22.622-8.262,35.113-18.51,45.183-31.499c6.931-8.937,10.942-18.053,16.464-23.813
	c5.68-5.938,11.659-9.533,17.418-9.533c4.885,0,9.592,2.602,13.803,8.56C491.72,148.315,475.554,167.52,468.682,183.05
	 M485.484,285.273c-5.204,0-9.672-2.82-11.123-12.651c-2.443-16.723,1.232-19.9,11.142-22.184
	c5.858-1.351,15.293-4.588,22.065-7.011l1.35-12.929c-6.137,1.549-10.408,2.542-10.408,2.542s-2.184,0.675-5.183,0.675
	c-4.29,0-10.248-1.37-13.903-7.984c-6.176-11.241,11.062-19.205,11.062-19.205s5.185-2.92,21.648-6.435l0.159-1.569
	c0,0,0.298-9.295,12.69-11.023c0.478-0.079,0.933-0.139,1.39-0.178c1.272-0.119,2.503-0.179,3.674-0.179
	c5.78,0,10.11,1.708,10.089,7.944v0.079c8.878-1.35,15.492-2.185,15.492-2.185s0.417-0.079,1.052-0.079
	c1.907,0,5.78,0.715,6.038,6.475c0.358,7.666-2.681,15.491-18.311,21.012c-1.132,0.397-2.343,0.794-3.615,1.212
	c0.218,3.456,0.497,6.713,0.853,9.513c3.218-0.715,6.376-1.152,9.196-1.152c5.78,0,10.169,1.867,10.984,7.17
	c2.104,13.704-6.734,18.133-6.734,18.133s-44.487,22.899-52.511,25.124C498.293,281.559,491.421,285.273,485.484,285.273
	 M681.567,216.297c-26.891,0.059-47.824,3.575-54.14,7.209c-4.191,2.403-0.953,7.686,5.124,14.975
	c-0.497,0.417-1.013,0.834-1.589,1.271c-4.468,3.456-14.498,8.54-26.494,14.001c-0.019-3.535-0.119-5.541-0.119-5.541l-3.337-80.912
	c8.282-1.847,14.578-3.297,17.378-4.111c12.155-3.575,31.38-4.29,20-26.99c-6.216-12.353-11.818-15.769-18.51-15.769
	c-3.018,0-6.276,0.715-9.911,1.589c-8.579,2.085-49.074,17.477-68.538,24.945c0.258-4.031,0.636-9.553,1.013-15.193
	c3.793-1.37,6.773-2.522,8.282-3.237c7.805-3.674,13.128-7.865,11.46-17.438c-1.113-6.474-5.502-7.527-8.203-7.527
	c-1.272,0-2.184,0.239-2.184,0.239s-2.98,0.814-7.507,2.065c0.555-9.076-0.04-20.655-12.195-21.271
	c-0.358-0.02-0.696-0.02-1.013-0.02c-13.207,0-14.617,13.465-14.617,13.465l-1.57,15.948c-8.102,2.244-14.379,3.992-14.657,4.051
	c-11.082,3.217-14.36,7.626-14.28,13.128c0.119,8.361,7.249,14.419,15.094,14.419c1.787,0,3.575-0.298,5.342-0.953
	c1.727-0.655,3.535-1.311,5.382-1.986c-0.159,4.707-0.019,9.474,0.695,13.585c-14.934,4.846-33.524,12.592-33.524,21.211
	c-0.019,8.123,5.799,12.989,15.312,12.989c2.959,0,6.256-0.457,9.851-1.45c13.981-3.794,44.05-10.268,70.067-15.869
	c-0.754,11.062-4.329,56.424-15.59,100.117c-14.398,5.799-133.264,41.767-115.409,102.341c6.316,21.469,29.95,37.795,59.462,37.795
	c17.219,0,36.425-5.541,55.391-18.867c36.167-25.401,44.369-87.327,46.057-121.904c15.074-8.5,29.512-16.901,38.371-22.641
	c0.278,0.338,0.576,0.655,0.853,0.993c7.05,8.262,10.725,9.91,12.532,9.91c1.193,0,1.57-0.715,1.57-0.715
	c3.018-1.251,27.725-30.327,28.917-32.472S699.243,216.555,681.567,216.297 M502.484,361.835c-2.701,0.636-5.124,0.914-7.249,0.914
	c-20.616,0-14.955-27.308,18.133-45.123c15.609-8.421,37.258-17.318,39.899-18.748C542.583,327.933,523.754,355.698,502.484,361.835
	 M415.952,123.588c-2.561-2.086-7.865-2.86-14.061-2.86c-9.651,0-19.463,1.728-26.692,3.476c-8.739,2.125-10.188,4.35-11.459,12.115
	c-1.272,7.766-2.285,34.557-1.013,41.35c1.013,5.442,1.43,9.692,9.691,9.692c2.046,0,4.469-0.238,7.409-0.775
	c8.519-1.569,25.281-6.137,31.201-15.551c5.164-8.202,6.832-16.981,7.566-25.064C419.666,134.373,420.242,127.084,415.952,123.588
	 M398.514,156.993c-2.165,1.907-7.626,3.495-10.923,3.495c-1.212,0-2.146-0.199-2.503-0.695c-1.429-1.887-0.198-12.929,0.835-14.002
	c0.695-0.715,6.236-2.483,10.307-2.483c1.687,0,3.118,0.298,3.852,1.132C402.049,146.666,399.607,156.04,398.514,156.993
	 M367.691,96.062c-3.674-1.986-12.135-2.999-24.746-2.999c-17.816,0-43.892,2.026-76.504,6.276
	c-4.468,0.576-10.565,1.39-13.147,5.64c-3.376,5.561-1.687,14.439,0.099,20.238c0.696,2.244,1.609,4.469,3.098,6.276
	c2.403,2.979,5.243,2.383,9.175,2.78c-0.813,11.678-0.436,30.148-0.536,41.508c-3.238,0.318-5.143,0.516-5.143,0.516
	c-1.093,0.099-2.046,0.278-2.88,0.516c-2.86-10.725-11.281-13.307-18.688-13.307c-6.813,0-12.791,2.185-12.791,2.185l-44.21,13.088
	c1.291-9.096,2.245-17.259,2.821-24.031c19.046-3.019,34.199-6.475,51.537-11.479c12.77-3.674,15.83-27.07-14.775-30.267
	l-23.674-2.284l-113.185-8.897c-1.132-0.02-2.245-0.04-3.297-0.04c-30.367,0-31.579,14.339-29.632,30.843
	c3.317,28.301,12.751,36.484,30.824,36.484c7.13,0,15.611-1.271,25.581-3.078c10.426-1.907,22.481-3.595,35.41-5.382
	c-4.29,22.363-21.092,77.476-85.956,126.491c-34.656,24.528-49.909,27.348-12.989,54.358c12.73,9.334,23.416,17.14,36.643,17.14
	c11.836,0,25.698-6.236,44.924-23.157c24.726-21.767,41.568-79.283,50.803-127.246c4.251-1.986,11.401-4.667,16.743-4.667
	c3.794,0,6.673,1.37,6.891,5.342c-0.595,28.103-16.921,60.833-22.978,71.597c-9.295,16.524-27.486,37.695-1.331,46.573
	c3.695,0.814,7.189,1.192,10.487,1.192c32.214,0,44.229-35.332,44.229-35.332s11.699-33.008,21.191-72.094l4.468-21.747
	c0.616,3.118,4.33,5.382,7.229,5.283c19.761-0.755,41.867-7.329,64.805-14.577c0.795,5.005,2.483,8.858,8.699,8.52
	c0.954-0.059,1.966-0.119,2.98-0.377c10.844-2.721,12.413-9.473,13.247-20.635c0.616-8.401,2.245-40.456,2.503-57.417
	c4.428-1.311,9.353-3.476,10.386-4.25C374.722,109.229,374.444,99.736,367.691,96.062 M328.903,132.108
	c-8.063,1.232-16.087,3.436-18.331,4.191c-5.363,1.787-6.078,10.566,0.695,10.864c0.099,0.02,0.199,0.02,0.318,0.02
	c2.443,0,9.473-0.913,16.862-2.383c-0.059,1.39-0.298,5.025-0.358,6.415c-7.486,1.132-15.412,2.423-17.417,3.357
	c-5.76,2.701-5.482,10.764,0.873,11.042c0.08,0.02,0.179,0.02,0.298,0.02c2.264,0,8.937-0.874,15.849-2.264
	c-0.061,1.708-0.279,4.767-0.338,6.375c-10.03,0.914-22.324,2.085-33.664,3.197c0.358-6.037,0.199-15.273,0.497-40.932
	c10.506-1.926,23.296-3.456,34.974-6.077C329.083,127.838,328.983,129.924,328.903,132.108 M433.609,136.815
	c-0.874,0-1.689-0.119-2.483-0.357c-11.738-3.654,1.747-19.086,4.786-27.408c6.693-18.291,7.627-37.477,23.316-37.477
	c3.774,0,8.4,1.112,14.2,3.634c19.523,8.48-2.045,30.049-2.045,30.049S447.888,136.815,433.609,136.815"/>
<path fill="#562C35" d="M712.08,224.825L712.08,224.825c-1.51-3.456-4.867-8.023-12.353-10.168
	c-1.113-0.338-2.205-0.576-3.257-0.755c-3.913-4.846-11.638-4.965-14.796-5.005h-0.061h-0.059
	c-25.143,0.059-47.565,3.098-56.741,7.626l-1.092-26.434c2.98-0.695,5.105-1.251,6.574-1.688c1.312-0.377,2.88-0.755,4.548-1.172
	c8.54-2.066,21.429-5.204,26.971-17.14c3.793-8.202,2.9-17.656-2.721-28.877c-3.854-7.666-7.805-13.048-12.432-16.882
	c5.52-3.138,11.3-7.984,13.088-16.305c1.846-8.5-1.272-17.159-9.494-26.454c-7.268-8.222-14.161-12.969-21.291-14.597
	c-4.646-3.456-9.095-5.124-13.604-5.124h-0.019c-8.242,0.02-14.379,5.521-20.297,10.864c-1.769,1.609-3.615,3.257-5.542,4.826
	c-11.319,9.175-18.708,16.842-22.601,23.634c-0.536-0.119-1.072-0.218-1.609-0.278c-0.099-0.119-0.218-0.218-0.318-0.318
	c-1.232-4.071-3.137-7.567-5.719-10.447c-2.681-2.979-7.19-6.514-14.121-7.884c-2.483-2.324-6.495-4.727-12.671-5.025
	c-0.457-0.02-0.933-0.04-1.39-0.04c-8.023,0-14.637,3.674-18.61,10.347c-2.681,4.528-3.257,8.917-3.357,9.732v0.04v0.02
	l-1.073,10.904c-3.435,0.953-5.64,1.569-7.09,1.966c2.681-6.137,3.515-12.036,2.443-17.616c-0.933-4.886-4.29-13.863-16.384-19.106
	c-1.907-0.834-3.735-1.549-5.522-2.145c-1.43-1.053-3.118-2.046-5.124-2.9c-6.554-2.86-12.175-4.25-17.14-4.25v0.298v-0.298
	c-8.102,0-14.517,3.674-19.006,10.903c-3.376,5.422-5.363,12.234-7.467,19.463c-1.153,3.932-2.324,8.024-3.774,11.976
	c-0.577,1.569-1.966,4.012-3.318,6.395c-0.913,1.629-1.846,3.297-2.741,5.005c-0.079-0.059-0.159-0.139-0.258-0.218
	c-3.793-3.078-9.731-4.528-18.728-4.528c-2.9,0-5.998,0.159-9.135,0.437c-0.715-8.024-5.204-14.836-12.393-18.729
	c-1.727-0.933-4.011-1.926-7.606-2.741c-1.052-0.993-2.244-1.847-3.575-2.562c-3.098-1.688-9.394-3.912-28.282-3.912
	c-18.748,0-45.54,2.185-77.436,6.336c-5.283,0.675-14.101,1.827-18.53,9.156c-2.186,3.575-2.999,7.746-3.02,11.936
	c-0.536-0.179-1.072-0.358-1.609-0.536c-5.223-3.694-12.134-6.037-20.576-6.911h-0.019h-0.04l-23.674-2.284l-0.059-0.02h-0.079
	L84.705,94.461l-0.159-0.02h-0.178c-1.192-0.04-2.383-0.06-3.515-0.06c-14.955,0-25.164,3.317-31.241,10.149
	c-7.111,7.984-6.971,18.629-5.76,28.956c0.08,0.715,0.179,1.43,0.279,2.145c0,3.416,0.278,6.832,0.656,10.109
	c2.026,17.14,6.295,28.837,13.484,36.801c7.507,8.341,17.854,12.393,31.619,12.393c8.699,0,18.669-1.609,28.162-3.337
	c2.502-0.457,5.183-0.914,8.123-1.39c-10.705,25.461-31.856,59.482-73.484,90.961c-4.269,3.019-8.322,5.76-11.896,8.183
	c-15.213,10.308-25.283,17.1-25.48,27.884c-0.04,2.363,0.436,4.648,1.39,6.912c-0.298,1.41-0.457,2.86-0.497,4.389
	c-0.258,14.638,13.306,25.819,27.249,36.007c13.366,9.791,27.188,19.9,45.143,19.9c8.48,0,17.02-2.204,26.096-6.753
	c8.719-4.349,17.974-10.884,28.301-19.98c5.74-5.045,11.221-11.718,16.445-20c3.794,6.455,10.368,11.301,19.583,14.419l0.755,0.258
	l0.794,0.179c3.734,0.814,7.428,1.291,11.062,1.45l-5.244,16.484l-0.039,0.079l-0.021,0.06c-0.834,2.84-0.635,5.779,0.457,8.302
	c0.119,0.258-0.178,0.735-0.178,0.735c-1.828,6.196-0.576,12.77,3.357,17.616l0.138,0.159c0.874,1.053,1.867,1.986,2.92,2.8
	c0,0.198,0,0.397,0,0.616c0.079,1.469,0.278,2.8,0.536,4.071c-0.436,2.403-0.635,4.886-0.516,7.408
	c0.159,3.555,0.815,6.614,1.767,9.255c-0.735,1.887-1.092,3.893-0.993,5.919l0.119,2.76c0.059,0.973,0.219,1.887,0.457,2.78
	c-0.457,1.946-0.656,3.933-0.576,5.939l0.139,2.78c0.436,9.374,6.811,16.901,15.808,18.728c2.165,0.457,4.469,0.675,6.971,0.675
	c3.714,0,7.845-0.496,12.572-1.529c8.402-1.807,15.412-5.7,20.755-11.459c0.595-0.635,1.152-1.311,1.687-1.966
	c0.438,0.377,0.855,0.755,1.312,1.112c3.475,2.681,7.725,4.071,12.094,4.071c1.45,0,2.92-0.159,4.37-0.457l2.8-0.615
	c5.124-1.112,9.553-4.052,12.652-8.043c2.999,1.748,6.434,2.681,9.95,2.681c1.469,0,2.919-0.159,4.389-0.477l2.781-0.615
	c3.575-0.775,6.811-2.423,9.493-4.707c1.509,0.457,3.098,0.735,4.728,0.834l0.019,0.794l35.749-7.746l48.857-10.585
	c4.032-0.854,7.488-3.198,9.871-6.355c2.641,1.251,5.541,1.907,8.5,1.907c1.45,0,2.919-0.159,4.369-0.477l2.781-0.596
	c2.781-0.596,5.342-1.728,7.587-3.277c3.793-2.542,6.733-6.236,8.362-10.526c5.044,8.917,12.511,16.802,21.806,22.859
	c13.247,8.62,29.234,13.168,46.275,13.168c21.628,0,43.634-7.408,63.653-21.469c18.608-13.068,32.57-35.014,41.488-65.202
	c6.335-21.469,9.037-43.772,10.188-59.82c8.718-4.965,16.166-9.295,22.204-12.949c4.171,3.614,9.533,6.931,15.67,6.931
	c3.952,0,7.706-1.351,10.605-3.813c2.284-1.708,6.078-5.243,16.942-17.736c2.78-3.178,11.757-13.545,14.637-17.636
	c0.099-0.119,0.199-0.238,0.297-0.358C709.06,243.931,716.707,235.45,712.08,224.825"/>
<path fill="#F29B76" d="M389.552,344.226c0.039,0,0.059,0.02,0.059,0.06l0.417,8.62c0.138,3.317-2.423,6.673-5.76,7.388
	l-12.69,2.761l0.338,4.25l11.658-2.522c0.715-0.159,1.41-0.238,2.045-0.238c2.324,0,3.993,1.072,4.112,3.674l0.318,6.892
	c0.059,0.993-0.715,1.986-1.689,2.185l-15.928,3.456l0.239,4.985l18.709-4.052l0.616,13.049c0.04,0.953-0.675,1.886-1.609,2.085
	l-31.718,6.872l-2.383-50.446c-0.039-0.993,0.715-1.966,1.689-2.185l31.558-6.832H389.552"/>
<path fill="#040000" d="M279.549,343.805l-0.021-0.278c0.04,0.04,0.08,0.099,0.119,0.139
	C279.608,343.726,279.588,343.765,279.549,343.805"/>
<path fill="#F29B76" d="M410.114,314.577c1.489,1.192,3.772,2.026,7.01,2.443c1.847,0.199,2.84,0.497,3.297,0.636l0.496,0.198
	l0.12,0.079v0.159v0.139c0.019,0.358-0.021,0.516-0.258,0.775c-0.478,0.516-1.35,0.894-2.463,1.152
	c-1.43,0.298-2.661,0.437-3.714,0.437c-0.616,0-1.192-0.04-1.687-0.139c-0.199-0.04-0.438-0.079-0.656-0.079
	c-0.278,0-0.556,0.04-0.834,0.099c-0.775,0.179-1.45,0.516-2.066,1.112c-1.052,0.933-1.629,2.323-1.569,3.634l0.079,1.748
	c0.08,1.609,1.073,2.8,2.523,3.098c0.775,0.159,1.609,0.238,2.523,0.238c1.687,0,3.674-0.258,5.977-0.755
	c3.397-0.735,6.197-2.264,8.322-4.548c2.404-2.542,3.515-5.521,3.357-8.878c-0.099-1.807-0.556-3.376-1.41-4.608
	c-0.815-1.192-1.987-2.145-3.555-2.82c-1.272-0.536-2.98-0.993-5.263-1.311c-2.204-0.278-2.959-0.576-3.217-0.655
	c-0.099-0.04-0.139-0.02-0.199-0.06l-0.138-0.079l-0.021-0.139c0-0.099,0-0.159,0-0.258l-0.019-0.159
	c0.04-0.199,0.138-0.318,0.238-0.397c0.239-0.258,0.755-0.576,1.947-0.814c0.656-0.159,1.35-0.238,2.085-0.238
	c0.775,0,1.57,0.099,2.364,0.278c0.218,0.04,0.436,0.08,0.675,0.08c0.258,0,0.536-0.04,0.815-0.099
	c1.529-0.338,2.86-1.589,3.416-3.178l0.536-1.629c0.735-2.145-0.258-4.25-2.264-4.687c-1.211-0.258-2.462-0.397-3.734-0.397
	c-1.429,0-2.9,0.159-4.389,0.496c-3.197,0.695-5.838,2.165-7.865,4.389c-2.324,2.483-3.435,5.303-3.277,8.46
	C407.412,311.062,408.366,313.186,410.114,314.577"/>
<path fill="#F29B76" d="M398.459,332.425l-1.053-22.244l6.019-1.291c1.211-0.278,2.045-1.35,1.986-2.582L405.071,299l-23.455,5.085
	c-1.192,0.258-2.026,1.35-1.966,2.562l0.337,7.309l8.103-1.748l1.013,21.628c0.039,0.993,0.874,1.728,1.807,1.728
	c0.138,0,0.258-0.02,0.396-0.04l5.72-1.251C397.902,334.094,398.497,333.319,398.459,332.425"/>
<path fill="#F29B76" d="M367.663,306.893l0.576,12.234c0,0.159-0.08,0.338-0.239,0.417l-0.08,0.02c-0.039,0-0.079,0-0.119,0
	c-0.099,0-0.159-0.02-0.238-0.079l-7.468-9.235c-0.635-0.695-1.509-1.092-2.483-1.092c-0.258,0-0.536,0.02-0.794,0.079l-5.541,1.211
	l1.549,33.207l9.274-2.006l-0.576-12.254c0-0.139,0.139-0.318,0.278-0.417c0-0.04,0.059-0.06,0.099-0.06
	c0.021,0,0.04-0.02,0.08-0.02c0.099,0,0.199,0.08,0.278,0.139l7.467,9.176c0.596,0.755,1.51,1.152,2.463,1.152
	c0.258,0,0.516-0.02,0.755-0.079l5.6-1.212l-1.549-33.207L367.663,306.893z"/>
<path fill="#F29B76" d="M342.399,345.323c0.257,0,0.515-0.02,0.794-0.079l1.767-0.397c2.046-0.437,3.694-2.522,3.595-4.667
	l-1.212-25.441c-0.079-1.867-1.45-3.118-3.158-3.118c-0.258,0-0.536,0.02-0.794,0.079l-1.767,0.377
	c-2.066,0.457-3.695,2.522-3.595,4.687l1.192,25.421C339.32,344.072,340.689,345.323,342.399,345.323"/>
<path fill="#F29B76" d="M312.382,351.805c0.258,0,0.516-0.02,0.795-0.079l1.907-0.417c1.628-0.358,2.999-1.609,3.515-3.297
	l2.204-7.011l4.806-1.033l2.76,5.938c0.537,1.172,1.629,1.807,2.901,1.807c0.278,0,0.555-0.04,0.853-0.099l1.966-0.417
	c1.272-0.278,2.463-1.192,3.098-2.403c0.695-1.251,0.775-2.641,0.278-3.793l-11.022-23.416c-0.556-1.132-1.649-1.807-2.919-1.807
	c-0.279,0-0.556,0.02-0.834,0.079l-1.073,0.239c-1.629,0.357-2.999,1.668-3.515,3.297l-8.819,27.705
	c-0.377,1.291-0.159,2.661,0.577,3.575C310.476,351.408,311.39,351.805,312.382,351.805 M322.631,323.464l2.661,9.474l-4.766,1.033
	C321.002,332.501,322.115,325.192,322.631,323.464"/>
<path fill="#F29B76" d="M286.842,340.568c1.489,1.192,3.772,2.026,7.01,2.443c1.847,0.199,2.84,0.497,3.297,0.636l0.496,0.198
	l0.12,0.079v0.159v0.139c0.019,0.358-0.021,0.516-0.258,0.775c-0.478,0.516-1.35,0.894-2.463,1.152
	c-1.43,0.298-2.661,0.437-3.714,0.437c-0.616,0-1.192-0.04-1.687-0.139c-0.199-0.04-0.438-0.079-0.656-0.079
	c-0.278,0-0.556,0.04-0.834,0.099c-0.775,0.159-1.45,0.516-2.066,1.112c-1.052,0.933-1.629,2.323-1.569,3.634l0.079,1.748
	c0.08,1.609,1.073,2.8,2.523,3.098c0.775,0.159,1.609,0.238,2.523,0.238c1.687,0,3.674-0.258,5.977-0.755
	c3.397-0.735,6.197-2.264,8.322-4.548c2.404-2.542,3.515-5.521,3.357-8.878c-0.099-1.807-0.556-3.376-1.41-4.608
	c-0.795-1.192-1.987-2.145-3.555-2.82c-1.272-0.536-2.98-0.993-5.263-1.311c-2.204-0.278-2.959-0.576-3.217-0.655
	c-0.099-0.04-0.139-0.02-0.199-0.06l-0.138-0.079l-0.021-0.139c0-0.099,0-0.159,0-0.258l-0.019-0.159
	c0.04-0.199,0.138-0.318,0.238-0.397c0.239-0.258,0.755-0.576,1.947-0.834c0.656-0.139,1.35-0.219,2.085-0.219
	c0.775,0,1.57,0.099,2.364,0.278c0.218,0.04,0.436,0.08,0.675,0.08c0.258,0,0.536-0.04,0.815-0.099
	c1.529-0.338,2.86-1.589,3.416-3.178l0.536-1.629c0.735-2.145-0.258-4.25-2.264-4.687c-1.211-0.258-2.462-0.397-3.734-0.397
	c-1.429,0-2.9,0.159-4.389,0.496c-3.197,0.695-5.838,2.165-7.865,4.389c-2.324,2.483-3.435,5.303-3.277,8.46
	C284.14,337.053,285.094,339.178,286.842,340.568"/>
<path fill="#F29B76" d="M254.453,364.742c0.198,0,0.417-0.02,0.615-0.059l15.492-3.357c1.37-0.298,2.343-1.549,2.264-2.959
	l-0.318-7.05l-11.877,2.582l-1.132-23.733l-7.666,1.668c-0.954,0.199-1.609,1.072-1.57,2.046l1.331,28.122
	C251.652,363.571,252.963,364.742,254.453,364.742"/>
<path fill="#F29B76" d="M432.155,334.999c0-0.04-0.04-0.059-0.061-0.059c-0.019,0-0.019,0-0.019,0l-38.371,8.302
	c-0.973,0.219-1.727,1.192-1.689,2.204l0.616,12.969c0,0.04,0.021,0.06,0.059,0.06h0.021l12.69-2.741l1.47,31.3
	c0.138,2.959,2.244,5.005,4.985,5.005c0.417,0,0.834-0.04,1.251-0.139l2.781-0.596c3.337-0.735,5.839-4.051,5.68-7.467l-1.49-31.3
	l11.003-2.383c0.973-0.198,1.727-1.192,1.687-2.184L432.155,334.999z"/>
<path fill="#F29B76" d="M231.778,369.646c0.198,0,0.417-0.02,0.615-0.059l13.665-2.999c1.37-0.298,2.324-1.549,2.263-2.939
	l-0.337-7.051l-10.03,2.205l-1.132-23.713l-7.666,1.648c-0.954,0.219-1.609,1.072-1.57,2.066l1.331,28.103
	C228.976,368.474,230.288,369.646,231.778,369.646"/>
<path fill="#F29B76" d="M203.935,373.797l2.483-7.924l5.421-1.172l3.119,6.693c0.616,1.331,1.846,2.066,3.277,2.066
	c0.298,0,0.635-0.04,0.953-0.119l2.224-0.477c1.43-0.318,2.781-1.35,3.496-2.701c0.775-1.43,0.874-2.979,0.298-4.29l-12.413-26.414
	c-0.616-1.291-1.867-2.046-3.317-2.046c-0.298,0-0.596,0.04-0.914,0.099l-1.232,0.278c-1.827,0.397-3.376,1.867-3.952,3.714
	l-9.951,31.241c-0.436,1.47-0.198,3.019,0.636,4.032c0.715,0.854,1.727,1.291,2.84,1.291c0.297,0,0.616-0.02,0.913-0.099
	l2.165-0.457C201.809,377.113,203.358,375.683,203.935,373.797 M208.483,346.568l2.998,10.208l-5.382,1.172
	C206.636,356.28,207.906,348.514,208.483,346.568"/>
<path fill="#F29B76" d="M336.928,393.47l-0.239-4.985l16.028-3.456c0.933-0.218,1.649-1.152,1.609-2.105l-0.338-6.971
	c-0.119-2.602-1.787-3.674-4.091-3.674c-0.635,0-1.33,0.079-2.045,0.238l-11.659,2.522l-0.358-4.25l12.711-2.76
	c3.317-0.715,5.899-4.071,5.74-7.388l-0.398-8.699h-0.019l-31.698,6.872c-0.933,0.199-1.668,1.152-1.628,2.105l2.383,50.505
	l31.717-6.852c0.933-0.219,1.649-1.152,1.609-2.105l-0.616-13.048L336.928,393.47z"/>
<path fill="#F29B76" d="M311.624,392.241c-0.159-0.278-0.099-0.616,0.119-0.814c0.815-0.993,1.469-1.926,2.125-2.94
	c2.046-3.396,3.018-7.209,2.84-11.241c-0.258-5.601-2.483-9.593-6.495-11.837c-2.104-1.172-4.627-1.748-7.666-1.748
	c-2.066,0-4.369,0.278-6.911,0.814l-13.625,2.959c-0.933,0.199-1.649,1.152-1.609,2.105l2.085,44.428
	c0.139,2.959,2.264,5.005,5.005,5.005c0.398,0,0.815-0.04,1.251-0.139l2.781-0.596c3.257-0.715,5.82-4.051,5.661-7.467l-0.438-9.553
	c-0.019-0.318,0.199-0.596,0.417-0.735l0.159-0.04c0.059,0,0.12-0.02,0.159-0.02c0.159,0,0.279,0.079,0.398,0.218l8.123,11.42
	c0.933,1.291,2.463,2.026,4.111,2.026c0.398,0,0.815-0.059,1.212-0.139l3.238-0.695c2.164-0.477,4.13-2.105,5.124-4.23
	c0.913-2.185,0.794-4.568-0.358-6.157L311.624,392.241z M302.408,383.86c-0.973,1.013-2.643,1.847-4.886,2.344l-2.483,0.536
	c-0.04,0-0.099,0-0.139,0c-0.297,0-0.496-0.238-0.516-0.496l-0.358-7.587c0-0.318,0.219-0.616,0.596-0.695l1.469-0.318
	c1.828-0.397,3.158-0.536,4.112-0.536c1.132,0,1.748,0.199,2.066,0.397c0.715,0.318,1.073,1.291,1.152,2.86
	C303.52,382.668,302.785,383.463,302.408,383.86"/>
<path fill="#F29B76" d="M277.936,368.319h-0.021l-38.371,8.322c-0.973,0.199-1.727,1.192-1.687,2.185l0.615,12.969
	c0,0.04,0.04,0.06,0.08,0.06l12.69-2.741l1.47,31.3c0.139,2.959,2.264,5.005,5.005,5.005c0.396,0,0.813-0.04,1.251-0.139
	l2.781-0.596c3.317-0.715,5.819-4.052,5.66-7.448l-1.469-31.3l10.982-2.383c0.973-0.219,1.727-1.212,1.689-2.205l-0.616-12.969
	C277.995,368.339,277.974,368.319,277.936,368.319"/>
<path fill="#F29B76" d="M234.902,405.585c-1.252-1.886-3.138-3.396-5.602-4.449c-1.986-0.854-4.686-1.549-8.301-2.046
	c-3.456-0.437-4.648-0.913-5.045-1.052c-0.159-0.06-0.238-0.04-0.318-0.099l-0.239-0.099l-0.019-0.238c0-0.159,0-0.238-0.019-0.397
	v-0.238c0.059-0.338,0.198-0.536,0.358-0.635c0.377-0.397,1.211-0.914,3.058-1.311c1.033-0.218,2.144-0.338,3.317-0.338
	c1.192,0,2.443,0.119,3.714,0.417c0.337,0.08,0.695,0.119,1.072,0.119c0.398,0,0.834-0.06,1.272-0.159
	c2.403-0.516,4.508-2.483,5.402-4.985l0.815-2.582c1.172-3.356-0.398-6.693-3.555-7.368c-1.906-0.417-3.872-0.635-5.899-0.635
	c-2.244,0-4.548,0.258-6.911,0.775c-5.025,1.092-9.215,3.436-12.393,6.912c-3.655,3.912-5.402,8.361-5.164,13.346
	c0.199,4.349,1.689,7.686,4.449,9.891c2.364,1.887,5.939,3.178,11.043,3.833c2.9,0.338,4.489,0.795,5.203,1.033l0.795,0.298
	l0.159,0.139l0.019,0.219v0.238c0.04,0.556-0.04,0.814-0.396,1.212c-0.755,0.794-2.126,1.43-3.913,1.807
	c-2.245,0.477-4.191,0.715-5.839,0.715c-0.973,0-1.867-0.079-2.641-0.238c-0.338-0.06-0.696-0.099-1.052-0.099
	c-0.438,0-0.874,0.04-1.291,0.139c-1.252,0.258-2.304,0.814-3.278,1.748c-1.649,1.469-2.561,3.654-2.462,5.72l0.119,2.761
	c0.119,2.542,1.689,4.429,3.992,4.885c1.192,0.258,2.523,0.378,3.972,0.378c2.661,0,5.78-0.417,9.414-1.192
	c5.342-1.172,9.751-3.555,13.107-7.15c3.794-4.012,5.522-8.719,5.284-14.002C236.987,410.014,236.252,407.532,234.902,405.585"/>
<path fill="#F29B76" d="M280.076,360.293c0.019,0,0.039,0,0.039-0.02c0,0-0.019-0.02-0.039-0.04
	C280.076,360.254,280.076,360.274,280.076,360.293"/>
<path fill="#040000" d="M301.578,153.067c0-0.198,0-0.397,0-0.596c0.079,0.08,0.159,0.159,0.238,0.239
	C301.737,152.829,301.657,152.948,301.578,153.067"/>
<path fill="#FBCA5A" d="M594.161,83.291c8.262-6.693,13.941-14.041,21.19-14.041c4.489,0,9.593,2.84,16.266,10.387
	c14.955,16.901,0.099,20.655-8.163,24.727c-5.442,2.661-33.524,15.412-45.004,15.412c-1.649,0-2.959-0.278-3.814-0.874
	C563.158,110.838,580.774,94.135,594.161,83.291 M468.682,183.05c-3.972,9.037-3.119,43.852-1.549,67.566
	c1.649,24.726-11.976,47.01-23.177,47.01c-8.58,0-15.731-13.048-13.526-48.042c1.41-29.93,0.735-45.818-0.139-49.969
	c-13.326,11.301-34.557,18.232-70.862,26.137c0,0.04,0-0.06,0,0l0.279,6.455c12.413-1.43,20.158-2.026,26.017-2.026
	c1.27,0,2.284,0.06,3.058,0.139c4.349,0.556,7.507,1.728,8.639,3.793c4.349,7.905-1.033,12.036-3.892,13.565
	c-2.721,1.45-15.094,4.052-32.711,7.051l0.377,6.673c18.789-2.443,33.922-5.561,39.782-5.998c1.27-0.079,2.661-0.139,4.091-0.139
	c6.911,0,14.934,1.43,16.881,7.706c4.489,14.458-7.945,18.689-15.392,20.734c-7.467,2.046-141.506,30.962-141.506,30.962
	s-3.118,0.596-7.288,0.596c-8.103,0-22.224,0.397-20.516-12.79c1.966-15.312,6.216-19.344,11.022-21.469
	c10.248-4.528,41.031-8.957,74.735-13.982l0.457-6.355c-9.374,1.37-16.624,2.343-19.245,2.522c-1.669,0.119-3.377,0.199-5.065,0.199
	c-8.222,0-12.612-1.827-14.459-8.103c-2.561-8.719,4.946-12.254,9.573-13.386c4.668-1.132,16.823-3.138,31.082-5.203l0.318-6.911
	c-7.645,0.933-14.676,2.8-20.813,2.84c-3.078,0.02-6.137,0.04-9.037,0.04c-4.548,0-8.758-0.079-12.254-0.457
	c-6.692-0.735-11.26-2.681-11.221-9.195c0-2.006,0.12-3.972,0.279-5.362c0.735-6.494,7.924-9.851,15.908-10.566
	c51.082-4.608,78.946-7.289,101.209-15.412c22.622-8.262,35.113-18.51,45.183-31.499c6.931-8.937,10.942-18.053,16.464-23.813
	c5.68-5.938,11.659-9.533,17.418-9.533c4.885,0,9.592,2.602,13.803,8.56C491.72,148.315,475.554,167.52,468.682,183.05
	 M485.484,285.273c-5.204,0-9.672-2.82-11.123-12.651c-2.443-16.723,1.232-19.9,11.142-22.184
	c5.858-1.351,15.293-4.588,22.065-7.011l1.35-12.929c-6.137,1.549-10.408,2.542-10.408,2.542s-2.184,0.675-5.183,0.675
	c-4.29,0-10.248-1.37-13.903-7.984c-6.176-11.241,11.062-19.205,11.062-19.205s5.185-2.92,21.648-6.435l0.159-1.569
	c0,0,0.298-9.295,12.69-11.023c0.478-0.079,0.933-0.139,1.39-0.178c1.272-0.119,2.503-0.179,3.674-0.179
	c5.78,0,10.11,1.708,10.089,7.944v0.079c8.878-1.35,15.492-2.185,15.492-2.185s0.417-0.079,1.052-0.079
	c1.907,0,5.78,0.715,6.038,6.475c0.358,7.666-2.681,15.491-18.311,21.012c-1.132,0.397-2.343,0.794-3.615,1.212
	c0.218,3.456,0.497,6.713,0.853,9.513c3.218-0.715,6.376-1.152,9.196-1.152c5.78,0,10.169,1.867,10.984,7.17
	c2.104,13.704-6.734,18.133-6.734,18.133s-44.487,22.899-52.511,25.124C498.293,281.559,491.421,285.273,485.484,285.273
	 M681.567,216.297c-26.891,0.059-47.824,3.575-54.14,7.209c-4.191,2.403-0.953,7.686,5.124,14.975
	c-0.497,0.417-1.013,0.834-1.589,1.271c-4.468,3.456-14.498,8.54-26.494,14.001c-0.019-3.535-0.119-5.541-0.119-5.541l-3.337-80.912
	c8.282-1.847,14.578-3.297,17.378-4.111c12.155-3.575,31.38-4.29,20-26.99c-6.216-12.353-11.818-15.769-18.51-15.769
	c-3.018,0-6.276,0.715-9.911,1.589c-8.579,2.085-49.074,17.477-68.538,24.945c0.258-4.031,0.636-9.553,1.013-15.193
	c3.793-1.37,6.773-2.522,8.282-3.237c7.805-3.674,13.128-7.865,11.46-17.438c-1.113-6.474-5.502-7.527-8.203-7.527
	c-1.272,0-2.184,0.239-2.184,0.239s-2.98,0.814-7.507,2.065c0.555-9.076-0.04-20.655-12.195-21.271
	c-0.358-0.02-0.696-0.02-1.013-0.02c-13.207,0-14.617,13.465-14.617,13.465l-1.57,15.948c-8.102,2.244-14.379,3.992-14.657,4.051
	c-11.082,3.217-14.36,7.626-14.28,13.128c0.119,8.361,7.249,14.419,15.094,14.419c1.787,0,3.575-0.298,5.342-0.953
	c1.727-0.655,3.535-1.311,5.382-1.986c-0.159,4.707-0.019,9.474,0.695,13.585c-14.934,4.846-33.524,12.592-33.524,21.211
	c-0.019,8.123,5.799,12.989,15.312,12.989c2.959,0,6.256-0.457,9.851-1.45c13.981-3.794,44.05-10.268,70.067-15.869
	c-0.754,11.062-4.329,56.424-15.59,100.117c-14.398,5.799-133.264,41.767-115.409,102.341c6.316,21.469,29.95,37.795,59.462,37.795
	c17.219,0,36.425-5.541,55.391-18.867c36.167-25.401,44.369-87.327,46.057-121.904c15.074-8.5,29.512-16.901,38.371-22.641
	c0.278,0.338,0.576,0.655,0.853,0.993c7.05,8.262,10.725,9.91,12.532,9.91c1.193,0,1.57-0.715,1.57-0.715
	c3.018-1.251,27.725-30.327,28.917-32.472S699.243,216.555,681.567,216.297 M502.484,361.835c-2.701,0.636-5.124,0.914-7.249,0.914
	c-20.616,0-14.955-27.308,18.133-45.123c15.609-8.421,37.258-17.318,39.899-18.748C542.583,327.933,523.754,355.698,502.484,361.835
	 M415.952,123.588c-2.561-2.086-7.865-2.86-14.061-2.86c-9.651,0-19.463,1.728-26.692,3.476c-8.739,2.125-10.188,4.35-11.459,12.115
	c-1.272,7.766-2.285,34.557-1.013,41.35c1.013,5.442,1.43,9.692,9.691,9.692c2.046,0,4.469-0.238,7.409-0.775
	c8.519-1.569,25.281-6.137,31.201-15.551c5.164-8.202,6.832-16.981,7.566-25.064C419.666,134.373,420.242,127.084,415.952,123.588
	 M398.514,156.993c-2.165,1.907-7.626,3.495-10.923,3.495c-1.212,0-2.146-0.199-2.503-0.695c-1.429-1.887-0.198-12.929,0.835-14.002
	c0.695-0.715,6.236-2.483,10.307-2.483c1.687,0,3.118,0.298,3.852,1.132C402.049,146.666,399.607,156.04,398.514,156.993
	 M367.691,96.062c-3.674-1.986-12.135-2.999-24.746-2.999c-17.816,0-43.892,2.026-76.504,6.276
	c-4.468,0.576-10.565,1.39-13.147,5.64c-3.376,5.561-1.687,14.439,0.099,20.238c0.696,2.244,1.609,4.469,3.098,6.276
	c2.403,2.979,5.243,2.383,9.175,2.78c-0.813,11.678-0.436,30.148-0.536,41.508c-3.238,0.318-5.143,0.516-5.143,0.516
	c-1.093,0.099-2.046,0.278-2.88,0.516c-2.86-10.725-11.281-13.307-18.688-13.307c-6.813,0-12.791,2.185-12.791,2.185l-44.21,13.088
	c1.291-9.096,2.245-17.259,2.821-24.031c19.046-3.019,34.199-6.475,51.537-11.479c12.77-3.674,15.83-27.07-14.775-30.267
	l-23.674-2.284l-113.185-8.897c-1.132-0.02-2.245-0.04-3.297-0.04c-30.367,0-31.579,14.339-29.632,30.843
	c3.317,28.301,12.751,36.484,30.824,36.484c7.13,0,15.611-1.271,25.581-3.078c10.426-1.907,22.481-3.595,35.41-5.382
	c-4.29,22.363-21.092,77.476-85.956,126.491c-34.656,24.528-49.909,27.348-12.989,54.358c12.73,9.334,23.416,17.14,36.643,17.14
	c11.836,0,25.698-6.236,44.924-23.157c24.726-21.767,41.568-79.283,50.803-127.246c4.251-1.986,11.401-4.667,16.743-4.667
	c3.794,0,6.673,1.37,6.891,5.342c-0.595,28.103-16.921,60.833-22.978,71.597c-9.295,16.524-27.486,37.695-1.331,46.573
	c3.695,0.814,7.189,1.192,10.487,1.192c32.214,0,44.229-35.332,44.229-35.332s11.699-33.008,21.191-72.094l4.468-21.747
	c0.616,3.118,4.33,5.382,7.229,5.283c19.761-0.755,41.867-7.329,64.805-14.577c0.795,5.005,2.483,8.858,8.699,8.52
	c0.954-0.059,1.966-0.119,2.98-0.377c10.844-2.721,12.413-9.473,13.247-20.635c0.616-8.401,2.245-40.456,2.503-57.417
	c4.428-1.311,9.353-3.476,10.386-4.25C374.722,109.229,374.444,99.736,367.691,96.062 M328.903,132.108
	c-8.063,1.232-16.087,3.436-18.331,4.191c-5.363,1.787-6.078,10.566,0.695,10.864c0.099,0.02,0.199,0.02,0.318,0.02
	c2.443,0,9.473-0.913,16.862-2.383c-0.059,1.39-0.298,5.025-0.358,6.415c-7.486,1.132-15.412,2.423-17.417,3.357
	c-5.76,2.701-5.482,10.764,0.873,11.042c0.08,0.02,0.179,0.02,0.298,0.02c2.264,0,8.937-0.874,15.849-2.264
	c-0.061,1.708-0.279,4.767-0.338,6.375c-10.03,0.914-22.324,2.085-33.664,3.197c0.358-6.037,0.199-15.273,0.497-40.932
	c10.506-1.926,23.296-3.456,34.974-6.077C329.083,127.838,328.983,129.924,328.903,132.108 M433.609,136.815
	c-0.874,0-1.689-0.119-2.483-0.357c-11.738-3.654,1.747-19.086,4.786-27.408c6.693-18.291,7.627-37.477,23.316-37.477
	c3.774,0,8.4,1.112,14.2,3.634c19.523,8.48-2.045,30.049-2.045,30.049S447.888,136.815,433.609,136.815"/>
</svg>
