<?xml version="1.0" encoding="utf-8"?>
<!-- Generator: Adobe Illustrator 27.2.0, SVG Export Plug-In . SVG Version: 6.00 Build 0)  -->
<svg version="1.1" id="레이어_1" xmlns="http://www.w3.org/2000/svg" xmlns:xlink="http://www.w3.org/1999/xlink" x="0px"
	 y="0px" viewBox="0 0 720 157.094" enable-background="new 0 0 720 157.094" xml:space="preserve">
<path fill="#E62E8B" d="M680.711,96.711c-1.131,0-2.294,0.894-2.6,1.981l-10.343,37.053c-0.313,1.092-1.469,1.789-2.568,1.546
	l-6.216-1.342c-1.112-0.243-1.763-1.329-1.45-2.415l9.794-34.843c0.319-1.086-0.358-1.981-1.489-1.981h-9.883
	c-1.131,0-2.051-0.926-2.051-2.051v-5.219c0-1.118,0.92-2.051,2.051-2.051h12.483c1.131,0,2.293-0.888,2.6-1.98l2.721-9.787
	c0.307-1.086,1.457-1.782,2.555-1.546l6.222,1.354c1.105,0.237,1.757,1.316,1.444,2.402l-2.153,7.583
	c-0.313,1.086,0.358,1.974,1.489,1.974h8.739c1.131,0,2.057,0.933,2.057,2.051v5.219c0,1.125-0.926,2.051-2.057,2.051H680.711
	 M686.518,103.892c-1.131,0-2.051,0.926-2.051,2.051v5.213c0,1.131,0.92,2.057,2.051,2.057h26.448c1.131,0,2.051-0.926,2.051-2.057
	v-5.213c0-1.125-0.92-2.051-2.051-2.051H686.518z M719.528,137.029c-1.22-1.699-3.239-4.504-3.239-4.504
	c-0.652-0.92-2-1.233-3.009-0.703c0,0-7.423,4.044-13.607,3.993c-13.678-0.109-14.879-14.291-14.879-14.291
	c-0.204-1.444-1.252-2.051-2.383-2.051h-5.513c0,0-2.862-0.332-2.568,2.568c1.629,15.556,13.205,23.094,25.183,23.094
	c6.727,0,13.199-1.993,19.082-5.175C719.317,139.559,720.741,138.722,719.528,137.029 M701.947,92.418
	c2.779,0,5.015-2.242,5.015-5.015c0-2.779-2.236-5.021-5.015-5.021c-2.773,0-5.021,2.242-5.021,5.021
	C696.925,90.176,699.174,92.418,701.947,92.418 M714.219,92.418c2.773,0,5.021-2.242,5.021-5.015c0-2.779-2.249-5.021-5.021-5.021
	c-2.779,0-5.015,2.242-5.015,5.021C709.204,90.176,711.44,92.418,714.219,92.418"/>
<path fill="#E62E8B" d="M608.106,112.209c4.044,0.345,8.164,1.502,14.917,7.986c4.421,4.274,5.96,5.724,8.708,5.724
	c5.002,0,9.998-4.491,13.735-8.523c1.329-1.443,2.492-1.258,3.424-0.473c0.933,0.779,4.791,4.006,4.791,4.006
	c0.869,0.728,0.869,1.929,0.019,2.664c0,0-14.566,12.566-21.9,12.566c-2.594,0-7.404-0.306-14.655-7.257
	c-4.97-4.663-8.184-7.641-13.294-7.641c-0.505,0-1.048,0.051-1.527,0.121c-0.537,0.077-1.667,0.843-2.281,1.84
	c-0.607,0.99-7.922,13.748-7.922,13.748c-0.569,0.978-1.872,1.412-2.9,0.952l-6.107-2.69c-1.022-0.46-1.412-1.635-0.85-2.613
	L616.341,73.4c0.575-0.984,1.872-1.406,2.894-0.933l6.044,2.728c1.029,0.473,1.405,1.648,0.837,2.632
	c0,0-18.003,31.374-18.725,32.517C606.643,111.494,607.531,112.152,608.106,112.209"/>
<path fill="#E62E8B" d="M562.972,131.324c1.789-5.341,2.753-10.892,2.753-16.572c0-0.952-0.051-1.821-0.128-2.677
	c-0.077-0.946-0.83-1.763-1.303-1.022c-2.012,3.143-6.312,8.292-14.221,8.292c-7.423,0-13.071-5.807-13.071-12.598
	c0-8.491,8.861-17.958,19.472-17.958c0.658,0,1.444,0.064,2.147,0.147c0.715,0.102,1.814-0.562,1.859-1.048
	c0.172-1.29,0.217-2.402,0.307-4.248c0.083-1.412-0.569-2.262-1.891-2.262h-27.477c-1.124,0-2.051-0.92-2.051-2.044v-5.526
	c0-1.125,0.926-2.051,2.051-2.051h27.675c1.131,0,2.057-0.926,2.057-2.051v-4.753c0-1.125,0.92-2.057,2.051-2.057h6.58
	c1.131,0,2.051,0.933,2.051,2.057v4.753c0,1.125,0.926,2.051,2.057,2.051h20.411c1.131,0,2.051,0.926,2.051,2.051v5.526
	c0,1.125-0.92,2.044-2.051,2.044H573.73c-1.124,0-2.089,0.92-2.134,2.051c0,0-0.268,6.19-0.843,10.285
	c-0.109,0.799,0.498,2.325,0.869,2.83c2.498,3.386,5.328,8.497,5.328,17.07c0,5.807-4.121,21.159-4.121,21.159
	c-0.3,1.093-1.431,1.731-2.517,1.425c0,0-4.926-1.406-6.235-1.776C562.754,134.058,562.422,132.774,562.972,131.324 M555.491,98.11
	c-4.74,0-8.708,4.428-8.708,7.858c0,2.147,1.297,3.974,3.354,3.974c3.098,0,6.702-3.788,8.331-9.404
	c0.179-0.613-0.083-2.191-1.546-2.338C556.411,98.162,555.912,98.11,555.491,98.11"/>
<path fill="#E62E8B" d="M512.396,138.677c1.361-5.085,3.079-12.847,3.079-19.178c0-9.391-2.9-18.246-14.119-18.246
	c-6.408,0-12.656,2.568-18.252,5.226c-0.933,0.454-2.907,1.099-3.871-0.422c-0.977-1.533-3.297-5.213-3.297-5.213
	c-0.594-0.952-0.243-2.108,0.786-2.562c0,0,15.843-6.964,23.791-6.964c16.949,0,25.969,11.071,25.969,28.34
	c0,9.468-3.431,21.995-3.431,21.995c-0.3,1.092-1.444,1.769-2.53,1.501c0,0-5.104-1.227-6.65-1.603
	C512.319,141.181,512.166,139.559,512.396,138.677 M520.669,77.533c1.099,0.294,1.693,1.393,1.322,2.46l-1.872,5.437
	c-0.364,1.067-1.559,1.712-2.658,1.425l-27.643-7.155c-1.086-0.288-1.68-1.393-1.316-2.46l1.865-5.437
	c0.371-1.067,1.572-1.712,2.664-1.425L520.669,77.533z"/>
<path fill="#E62E8B" d="M470.749,91.077c0.562,0.965-0.038,2.153-1.029,2.721c0,0-8.727,4.497-13.128,9.276
	c-4.874,5.29-7.564,11.007-7.564,15.281c0,8.708,10.324,8.957,10.324,8.957c1.131,0.032,2.064,0.984,2.089,2.115l0.077,5.66
	c0.026,1.137-0.888,1.993-2.012,1.916c0,0-6.81-0.473-10.714-2.23c-8.854-3.974-10.835-11.678-10.835-16.418
	c-0.096-4.9,1.974-9.544,1.974-9.544c0.984-1.885,0.837-3.016,0.543-4.102l-9.557-34.561c-0.3-1.086,0.319-2.294,1.38-2.69
	l6.331-2.319c1.048-0.39,2.166,0.173,2.472,1.265l7.468,26.882c0.294,1.093,1.342,1.789,2.651,0.607
	c5.916-5.29,13.397-8.816,13.397-8.816c1.029-0.447,2.523-0.14,3.092,0.824L470.749,91.077z M460.739,80.816
	c2.773,0,5.015-2.242,5.015-5.009c0-2.779-2.242-5.021-5.015-5.021c-2.773,0-5.021,2.242-5.021,5.021
	C455.718,78.574,457.967,80.816,460.739,80.816 M473.005,70.78c-2.76,0-5.021,2.249-5.021,5.021c0,2.773,2.261,5.009,5.021,5.009
	c2.785,0,5.028-2.236,5.028-5.009C478.033,73.029,475.791,70.78,473.005,70.78"/>
<path fill="#E62E8B" d="M431.505,107.955c0,1.131-0.926,2.044-2.051,2.044h-12.183c-1.124,0-3.309,0.722-4.389,1.367
	c0,0-11.832,5.462-11.959,17.504c-0.089,8.656,6.887,13.774,12.234,16.706c0.818,0.453,2.095,1.425,1.054,3.252
	c-0.862,1.502-1.565,2.894-1.565,2.894c-0.569,0.984-1.859,1.367-2.868,0.875c0,0-17.332-8.529-17.332-23.912
	c0-10.745,7.756-16.936,9.921-18.687h-21.561c-1.124,0-2.051-0.914-2.051-2.044v-3.405c0-1.131,0.926-2.051,2.051-2.051h48.648
	c1.124,0,2.051,0.92,2.051,2.051V107.955z"/>
<path fill="#E62E8B" d="M407.355,84.247c0,1.399-1.156,2.555-2.543,2.555h-29.163c-1.405,0-3.022,1.035-3.609,2.306l-21.363,46.566
	c-0.581,1.265-2.14,1.948-3.469,1.495l-9.321-3.175c-1.316-0.46-1.936-1.872-1.367-3.156l18.705-41.723
	c0.575-1.271-0.109-2.313-1.508-2.313h-37.852c-1.405,0-2.562-1.156-2.562-2.555v-8.19c0-1.399,1.156-2.536,2.562-2.536h88.947
	c1.386,0,2.543,1.137,2.543,2.536V84.247z M394.603,50.452c0-1.399-1.144-2.536-2.543-2.536h-64.249
	c-1.405,0-2.549,1.137-2.549,2.536v8.088c0,1.392,1.144,2.549,2.549,2.549h64.249c1.399,0,2.543-1.157,2.543-2.549V50.452z"/>
<path fill="#E62E8B" d="M309.974,90.635c0-1.399-1.15-2.536-2.549-2.536h-43.748c-1.399,0-2.766-1.125-3.035-2.511l-2.945-15.345
	c-0.268-1.38,0.664-2.511,2.064-2.511h29.246c1.399,0,2.543-1.144,2.543-2.543v-8.401c0-1.405-1.144-2.549-2.543-2.549h-59.24
	c-1.393,0-2.549,1.144-2.549,2.549v8.401c0,1.399,1.156,2.543,2.549,2.543h9.838c1.399,0,2.76,1.131,3.009,2.511l2.836,15.345
	c0.256,1.374-0.671,2.511-2.083,2.511h-20.392c-1.399,0-2.543,1.137-2.543,2.536v8.299c0,1.399,1.144,2.549,2.543,2.549h22.973
	c1.399,0,2.76,1.118,3.022,2.498l7.072,36.772c0.268,1.374,1.616,2.3,2.996,2.063l44.943-7.692c1.38-0.237,2.274-1.553,1.993-2.926
	l-1.75-8.292c-0.281-1.38-1.648-2.293-3.028-2.057l-29.841,5.219c-1.393,0.237-2.734-0.684-3.003-2.07l-4.057-21.018
	c-0.268-1.38,0.652-2.498,2.057-2.498h41.072c1.399,0,2.549-1.15,2.549-2.549V90.635z"/>
<path fill="#E62E8B" d="M183.471,114.037c0,0,7.928,3.137,11.704,10.579c2.709,4.511,4.197,9.251,4.197,19.594
	c0,0.888-0.013,1.731-0.032,2.492c-0.026,0.926-0.888,2.3-2.447,2.3c-1.578,0-4.063-0.223-4.063-0.223
	c-1.124-0.071-2.019-1.054-1.968-2.178c0,0,0.038-1.067,0.038-2.811c0-12.918-3.839-18.674-8.906-21.644
	c-0.639-0.377-2.038-0.722-2.345,0.594c-0.307,1.316-6.67,28.716-6.67,28.716c-0.262,1.099-1.367,1.846-2.485,1.654l-4.242-0.741
	c-1.118-0.191-1.827-1.252-1.565-2.351l6.523-28.263c0.262-1.105-0.454-1.936-1.584-1.859c0,0-3.437,0.236-9.762,1.955
	c-0.632,0.166-1.948,0.543-2.6-1.054c-0.645-1.604-1.457-3.59-1.457-3.59c-0.428-1.035,0.109-2.147,1.201-2.46l14.368-2.262
	c1.124-0.134,2.249-1.144,2.504-2.242l2.734-11.748c0.262-1.092,1.38-1.821,2.485-1.622l4.255,0.767
	c1.105,0.204,1.814,1.265,1.552,2.37l-2.664,11.436C181.976,112.548,182.526,113.411,183.471,114.037 M200.11,107.048
	c-0.569-0.977-1.872-1.386-2.907-0.92l-3.597,1.648c-1.022,0.473-1.393,1.661-0.818,2.632l11.921,20.424
	c0.569,0.978,1.878,1.386,2.9,0.914l3.654-1.693c1.029-0.485,1.399-1.661,0.824-2.638L200.11,107.048z M196.747,102.959
	c2.773,0,5.015-2.255,5.015-5.021c0-2.773-2.242-5.015-5.015-5.015c-2.773,0-5.021,2.242-5.021,5.015
	C191.726,100.704,193.974,102.959,196.747,102.959 M209.019,92.916c-2.773,0-5.028,2.249-5.028,5.015
	c0,2.773,2.255,5.021,5.028,5.021c2.773,0,5.015-2.249,5.015-5.021C214.034,95.165,211.791,92.916,209.019,92.916"/>
<path fill="#E62E8B" d="M144.398,156.571C72.214,161.976,19.541,124.348,5.71,96.96C-8.159,69.471,4.746,43.074,28.179,31.76
	c26.531-12.834,59.675,10.42,59.675,10.42s6.056-35.143,35.98-41.385c29.93-6.235,49.364,25.503,47.134,50.379
	C168.757,76.051,140.201,128.743,144.398,156.571"/>
<path fill="#FFFFFF" d="M139.384,120.406c-1.048,0.664-2.46,0.345-3.118-0.709l-2.792-4.447c-0.671-1.054-2.147-1.552-3.316-1.111
	l-37.385,14.195c-1.163,0.447-2.479-0.141-2.913-1.304l-2.421-6.388c-0.441-1.15,0.141-2.472,1.31-2.906l2.377-0.901
	c1.584-0.601,2.996-2.319,3.91-4.198c9.429-19.338-2.453-53.51-3.526-56.244c-0.703-1.751,0.006-2.466,1.131-3.003l4.536-2.134
	c1.131-0.53,3.169-2.044,4.299,0.447c4.274,7.046,11.512,36.203,6.963,55.318c-0.524,2.332,0.147,3.181,1.31,2.734l14.259-5.411
	c1.163-0.447,1.578-1.661,0.914-2.715l-3.264-5.188c-0.652-1.054-0.332-2.447,0.722-3.118l5.775-3.629
	c1.054-0.658,2.453-0.332,3.111,0.716l14.604,23.248c0.658,1.054,0.345,2.46-0.709,3.124L139.384,120.406z M83.963,109.769
	c0.792,0.952,2.217,1.086,3.175,0.288l5.232-4.37c0.965-0.792,1.092-2.236,0.307-3.207l-9.078-11.576
	c-0.741-0.984-0.358-2,0.85-2.249l5.13-1.028c1.22-0.243,2.012-1.438,1.77-2.658l-1.342-6.689c-0.243-1.22-1.437-2.012-2.664-1.77
	l-10.228,2.057c-1.214,0.243-2.408-0.556-2.645-1.763l-2.115-10.477c-0.236-1.207,0.441-2.715,1.52-3.335l10.068-5.788
	c1.08-0.613,1.457-2.006,0.837-3.079l-3.399-5.922c-0.613-1.08-2-1.45-3.086-0.831L45.459,66.226
	c-1.067,0.613-1.444,2.006-0.824,3.079l3.386,5.922c0.626,1.073,2.006,1.45,3.086,0.837l8.478-4.862
	c1.086-0.632,2.153-0.134,2.402,1.093l1.348,6.734c0.249,1.22-0.543,2.421-1.763,2.657l-9.212,1.859
	c-1.22,0.243-2.019,1.431-1.77,2.658l1.342,6.689c0.243,1.22,1.437,2.019,2.658,1.769l6.082-1.22
	c1.233-0.249,1.827,0.485,1.335,1.629l-10.688,25.062c-0.498,1.137,0.045,2.472,1.175,2.965l6.28,2.67
	c1.144,0.492,2.479-0.051,2.964-1.188l6.427-15.039c0.492-1.15,1.086-1.086,1.329,0.121l5.226,25.982
	c0.243,1.22,1.437,2.012,2.658,1.776l6.695-1.348c1.22-0.249,2.012-1.431,1.77-2.657l-5.245-26.078
	c-0.243-1.207,0.198-1.431,0.984-0.466L83.963,109.769z"/>
</svg>
