<?xml version="1.0" encoding="utf-8"?>
<!-- Generator: Adobe Illustrator 27.0.1, SVG Export Plug-In . SVG Version: 6.00 Build 0)  -->
<svg version="1.1" id="레이어_1" xmlns="http://www.w3.org/2000/svg" xmlns:xlink="http://www.w3.org/1999/xlink" x="0px"
	 y="0px" viewBox="0 0 720 752.322" enable-background="new 0 0 720 752.322" xml:space="preserve">
<polyline points="65.285,751.421 49.473,751.421 40.964,717.62 40.79,717.62 32.832,751.421 16.365,751.421 0,690.082 
	17.715,690.082 26.224,725.509 26.398,725.509 34.701,690.082 49.473,690.082 58.503,725.509 58.676,725.509 67.188,690.082 
	81.579,690.082 65.285,751.421 "/>
<polyline points="147.559,751.421 131.747,751.421 123.237,717.62 123.064,717.62 115.105,751.421 98.639,751.421 82.274,690.082 
	99.988,690.082 108.498,725.509 108.671,725.509 116.974,690.082 131.747,690.082 140.776,725.509 140.95,725.509 149.426,690.082 
	163.852,690.082 147.559,751.421 "/>
<polyline points="229.83,751.421 213.985,751.421 205.509,717.62 205.335,717.62 197.377,751.421 180.91,751.421 164.545,690.082 
	182.259,690.082 190.736,725.509 190.942,725.509 199.245,690.082 213.985,690.082 223.048,725.509 223.221,725.509 
	231.697,690.082 246.09,690.082 229.83,751.421 "/>
<rect x="242.145" y="735.055" width="17.094" height="16.365"/>
<polyline points="321.028,751.421 305.216,751.421 296.706,717.62 296.533,717.62 288.574,751.421 272.107,751.421 255.742,690.082 
	273.457,690.082 281.967,725.509 282.14,725.509 290.443,690.082 305.216,690.082 314.245,725.509 314.418,725.509 322.93,690.082 
	337.321,690.082 321.028,751.421 "/>
<path d="M396.517,720.941c0,17.438-10.725,31.381-29.337,31.381c-18.614,0-29.339-13.943-29.339-31.381
	c0-18.335,10.655-31.759,29.339-31.759C385.861,689.182,396.517,702.606,396.517,720.941 M357.977,721.045
	c0,5.883,0.621,17.231,9.203,17.231c8.58,0,9.203-11.348,9.203-17.231c0-6.018-0.9-17.989-9.203-17.989
	C358.841,703.056,357.977,715.027,357.977,721.045z"/>
<path d="M436.65,751.423L427.724,728h-5.917v23.422h-19.062v-61.339h31.24c5.364,0,11.244,0.726,15.812,3.769
	c5.085,3.218,7.507,8.649,7.507,14.669c0,8.026-3.562,12.87-10.828,16.158l11.105,26.742H436.65 M428.694,714.853
	c4.116,0,9.029-0.621,9.029-5.881l-2.942-5.015l-5.361-0.796h-7.612v11.692H428.694z"/>
<polyline points="498.268,751.421 487.714,728.277 481.28,737.203 481.28,751.421 463.565,751.421 463.565,690.082 481.28,690.082 
	481.28,715.407 498.268,690.082 515.15,690.082 499.685,712.535 518.922,751.421 498.268,751.421 "/>
<rect x="523.109" y="690.08" width="18.958" height="61.341"/>
<path d="M588.948,751.421l-17.645-28.68l-5.433-11.105l-0.207,0.173l0.207,0.726c0.866,3.945,1.246,6.088,1.246,10.275v28.611
	h-15.292v-61.339h17.784l20.584,34.251l0.173-0.173l-1.349-16.988v-17.089h15.292v61.339H588.948"/>
<path d="M667.068,751.421h-9.205l-2.49-6.434c-3.841,5.19-10.275,7.334-16.642,7.334c-17.888,0-27.47-13.768-27.47-30.583
	c0-8.026,2.076-16.433,7.163-22.799c5.811-7.334,13.25-9.756,22.28-9.756c14.22,0,23.699,7.264,26.364,21.277l-18.234,1.903
	c-0.726-4.914-2.768-9.583-8.51-9.583c-8.649,0-9.203,11.625-9.203,17.885c0,3.598,0.207,8.062,1.626,11.278
	c1.52,3.564,4.462,5.883,8.406,5.883c4.808,0,8.406-2.941,8.406-7.75h-10.102v-12.974h27.61V751.421"/>
<path d="M689.867,730.767h-11.348l-4.844-40.685h21.313L689.867,730.767 M692.912,751.421h-17.094v-16.363h17.094V751.421z"/>
<path d="M714.915,730.767h-11.348l-4.844-40.685H720L714.915,730.767 M717.96,751.421h-17.092v-16.363h17.092V751.421z"/>
<polyline points="598.114,586.428 598.114,571.934 583.548,571.934 583.548,542.871 627.105,542.871 627.105,528.341 
	612.609,528.341 612.609,513.809 598.114,513.809 598.114,499.279 583.548,499.279 583.548,484.749 569.052,484.749 
	569.052,470.252 554.522,470.252 554.522,455.722 539.989,455.722 539.989,441.19 525.493,441.19 525.493,426.66 510.929,426.66 
	510.963,426.695 510.963,586.428 525.493,586.428 525.493,571.898 539.989,571.898 539.989,571.934 554.522,571.934 
	554.522,571.898 569.052,571.898 569.052,586.428 569.018,586.428 569.052,586.428 569.052,600.96 583.548,600.96 583.548,630.021 
	612.609,630.021 612.609,600.96 598.114,600.96 598.114,586.428 "/>
<path d="M701.768,510.66L438.796,55.191c-42.486-73.588-112.026-73.588-154.546,0L21.279,510.696
	c-42.486,73.588-7.716,133.821,77.288,133.821h470.485V600.96h-14.53v-14.496h-14.53v14.496h-43.559V412.163h43.559v14.496h14.53
	v14.53h14.53v14.532h14.496v14.53h14.566v14.496h14.496v14.53h14.496v14.53h14.564v43.593h-43.557v14.496h14.496v29.062h14.496
	v43.487C710.208,643.237,743.836,583.522,701.768,510.66"/>
<path fill="#F4E938" d="M412.261,67.162c-13.979-24.182-32.35-36.223-50.719-36.223c-18.407-0.034-36.778,12.041-50.719,36.223
	L44.908,527.718c-13.943,24.149-15.223,46.118-6.02,62.034c9.205,15.913,28.855,25.808,56.74,25.775h265.914l265.912,0.034
	c27.884-0.034,47.537-9.895,56.704-25.808c9.205-15.915,7.923-37.885-6.018-62.034L412.261,67.162"/>
<path fill="#FFFFFF" d="M43.213,559.788c4.082-7.021,9.686-16.743,16.606-28.714L190.491,304.74v-0.036L321.165,78.407
	c6.918-12.007,12.558-21.729,16.606-28.752c6.367-11.035,15.673-17.643,23.629-18.715c-18.335,0.068-36.673,12.108-50.58,36.223
	L44.942,527.718c-13.943,24.113-15.223,45.979-6.09,61.894C35.807,582.173,36.846,570.825,43.213,559.788"/>
<path fill="#E5B43A" d="M95.524,615.455h265.912l265.912-0.034c27.817,0.034,47.434-9.825,56.67-25.671h0.139
	c9.133-15.913,7.853-37.815-6.054-61.894L412.189,67.266c-13.907-24.079-32.245-36.153-50.58-36.189
	c7.993,1.073,17.263,7.682,23.629,18.684c3.288,5.638,7.577,13.147,12.731,22.073l1.662,2.595l265.912,460.554
	c10.795,18.684,12.906,35.532,6.02,47.467c-6.884,11.971-22.556,18.544-44.146,18.544H95.628l-3.288-0.139
	c-10.309,0-18.924,0-25.428,0c-12.731,0-23.112-4.739-28.024-11.105C48.124,605.595,67.707,615.455,95.524,615.455"/>
<path d="M432.879,170.33c-17.854,0-39.027,12.283-39.027,51.655c0,46.152,0,140.428,0,144.372c0,5.917,2.768,8.685,8.685,8.685
	c5.915,0,18.751,0.794,18.751,15.776c0,12.385,0,176.237,0,187.032c0,8.96,7.266,16.26,16.26,16.26c8.962,0,16.262-7.3,16.262-16.26
	c0-10.795,0-377.385,0-389.772C453.809,178.703,445.124,170.33,432.879,170.33"/>
<path d="M357.631,326.12V178.219c0-5.57-4.498-10.068-10.068-10.068s-10.068,4.498-10.068,10.068v113.927
	c0,3.598-2.906,6.506-6.504,6.506c-3.632,0-6.54-2.908-6.54-6.506V178.219c0-5.57-4.498-10.068-10.066-10.068
	c-5.537,0-10.034,4.498-10.034,10.068v113.927c0,3.598-2.939,6.506-6.538,6.506s-6.506-2.908-6.506-6.506V178.219
	c0-5.57-4.532-10.068-10.066-10.068c-5.57,0-10.068,4.498-10.068,10.068V326.12c0,5.606,3.562,9.999,12.351,9.999
	c8.789,0,14.6,4.394,14.6,16.781c0,12.351,0,214.156,0,224.948c0,8.962,7.3,16.262,16.262,16.262c8.993,0,16.26-7.3,16.26-16.262
	c0-10.793,0-212.597,0-224.948c0-12.387,5.811-16.781,14.6-16.781S357.631,331.727,357.631,326.12"/>
<polyline fill="#FFFFFF" points="612.611,615.49 612.611,630.023 583.548,630.023 583.548,600.96 569.052,600.96 569.052,644.553 
	627.105,644.553 627.105,600.96 612.611,600.96 612.611,615.49 "/>
<polyline fill="#FFFFFF" points="627.107,513.809 627.107,499.279 612.611,499.279 612.611,484.749 598.114,484.749 
	598.114,470.252 583.548,470.252 583.548,455.722 569.052,455.722 569.052,441.19 554.522,441.19 554.522,426.66 539.992,426.66 
	539.992,412.163 496.433,412.163 496.433,600.96 539.992,600.96 539.992,586.464 554.522,586.464 554.522,600.96 569.052,600.96 
	569.052,586.43 569.018,586.43 569.052,586.43 569.052,571.898 554.522,571.898 554.522,557.091 539.992,557.091 539.992,571.898 
	525.495,571.898 525.495,586.43 510.963,586.43 510.963,426.695 510.929,426.66 525.495,426.66 525.495,441.19 539.992,441.19 
	539.992,455.722 554.522,455.722 554.522,470.252 569.052,470.252 569.052,484.749 583.548,484.749 583.548,499.279 
	598.114,499.279 598.114,513.809 612.611,513.809 612.611,528.341 627.107,528.341 627.107,542.871 583.548,542.871 
	583.548,571.934 598.114,571.934 598.114,600.96 612.611,600.96 612.611,571.898 598.114,571.898 598.114,557.401 641.671,557.401 
	641.671,513.809 627.107,513.809 "/>
<polyline points="612.611,528.339 612.611,513.809 598.114,513.809 598.114,499.279 583.548,499.279 583.548,484.749 
	569.052,484.749 569.052,470.252 554.522,470.252 554.522,455.72 539.989,455.72 539.989,441.226 525.495,441.226 525.495,426.693 
	510.963,426.693 510.963,586.428 525.495,586.428 525.495,571.898 539.989,571.898 539.989,557.401 554.522,557.401 
	554.522,571.898 569.052,571.898 569.052,600.96 583.548,600.96 583.548,630.021 612.611,630.021 612.611,600.96 598.114,600.96 
	598.114,571.898 583.548,571.898 583.548,542.871 627.105,542.871 627.105,528.339 612.611,528.339 "/>
</svg>
