<?xml version="1.0" encoding="utf-8"?>
<!-- Generator: Adobe Illustrator 27.0.1, SVG Export Plug-In . SVG Version: 6.00 Build 0)  -->
<svg version="1.1" id="레이어_1" xmlns="http://www.w3.org/2000/svg" xmlns:xlink="http://www.w3.org/1999/xlink" x="0px"
	 y="0px" viewBox="0 0 720 97.881" enable-background="new 0 0 720 97.881" xml:space="preserve">
<polyline points="61.752,34.715 61.752,63.521 4.335,63.521 4.335,65.375 61.752,65.375 61.752,93.986 63.614,93.986 63.614,34.715 
	61.752,34.715 "/>
<path fill="#E3007F" d="M95.594,1.803H0V97.39h95.594V1.803z M65.849,8.128c4.445,0,18.967,0,23.421,0c0,1.93,0,11.465,0,23.429
	c-4.454,0-18.975,0-23.421,0C65.849,27.112,65.849,12.574,65.849,8.128z M89.27,91.064c-5.665,0-77.272,0-82.937,0
	c0-5.664,0-77.271,0-82.945c1.922,0,11.456,0,23.429,0v56.756h6.316V8.12c7.638,0,15.817,0,23.446,0v29.762H89.27
	C89.27,60.32,89.27,87.644,89.27,91.064z"/>
<rect x="316.682" y="4.191" width="29.754" height="6.553"/>
<path d="M407.306,17.815h-20.609V0.804h-6.325v17.011h-20.601V65.35h20.601v31.041h6.325V65.35h20.609V17.815 M400.685,24.436
	c0,2.235,0,8.086,0,14.394h-13.988V24.436C392.853,24.436,398.5,24.436,400.685,24.436z M380.372,24.436v14.394h-13.979
	c0-6.308,0-12.159,0-14.394C368.577,24.436,374.225,24.436,380.372,24.436z M366.393,58.728c0-2.227,0-8.078,0-14.386h13.979v14.386
	C374.225,58.728,368.577,58.728,366.393,58.728z M386.697,58.728V44.343h13.988c0,6.308,0,12.159,0,14.386
	C398.5,58.728,392.853,58.728,386.697,58.728z"/>
<path d="M348.535,17.967h-36.113v6.325c0,0,18.975,0,28.475,0c-5.165,5.165-19.483,19.475-29.821,29.821l4.462,4.479l13.073-13.073
	v50.871h6.325V44.952l14.005,14.013l4.479-4.471l-16.892-16.892l19.635-19.635H348.535"/>
<polyline points="620.324,93.291 573.458,46.426 573.458,29.965 618.088,29.965 618.088,23.64 573.458,23.64 573.458,0 567.141,0 
	567.141,23.64 522.494,23.64 522.494,29.965 567.141,29.965 567.141,46.426 520.267,93.291 524.738,97.771 570.299,52.209 
	615.853,97.771 620.324,93.291 "/>
<path d="M451.885,64.105h-33.784v33.775h33.784V64.105z M446.001,92.004c-4.149,0-17.857,0-22.015,0c0-4.149,0-17.866,0-22.023
	c4.158,0,17.866,0,22.015,0C446.001,74.139,446.001,87.855,446.001,92.004z"/>
<rect x="420.168" y="5.368" width="29.745" height="6.571"/>
<rect x="420.168" y="35.325" width="29.745" height="6.562"/>
<rect x="420.168" y="50.295" width="29.745" height="6.562"/>
<rect x="415.884" y="20.473" width="38.314" height="6.317"/>
<path d="M511.605,41.896v-6.579h-20.948V16.57l19.398-10.745l-3.048-5.487L461.92,25.317l3.049,5.487l19.364-10.728v15.241h-21.083
	v6.579h21.083v8.408h-20.795v47.535h47.543V50.304h-20.423v-8.408H511.605 M504.459,91.217c-5.114,0-29.195,0-34.293,0
	c0-5.097,0-29.186,0-34.292c5.097,0,29.178,0,34.293,0C504.459,62.031,504.459,86.12,504.459,91.217z"/>
<path d="M187.777,1.803h-72.115v38.128h72.115V1.803z M181.265,17.696h-26.392V8.314c12.269,0,23.818,0,26.392,0
	C181.265,10.16,181.265,13.75,181.265,17.696z M148.557,8.314v9.382h-26.384c0-3.946,0-7.536,0-9.382
	C124.747,8.314,136.296,8.314,148.557,8.314z M122.173,24.021h26.384v9.398c-12.26,0-23.81,0-26.384,0
	C122.173,31.574,122.173,27.975,122.173,24.021z M154.874,33.42v-9.398h26.392c0,3.954,0,7.553,0,9.398
	C178.692,33.42,167.142,33.42,154.874,33.42z"/>
<path d="M173.476,91.056V55.545h-43.513v35.511h-25.274v6.325h95.739v-6.325H173.476 M167.159,79.6h-30.88c0-1.93,0-3.903,0-5.8
	h30.88C167.159,75.696,167.159,77.669,167.159,79.6z M167.159,61.87c0,1.194,0,3.497,0,6.35h-30.88c0-2.853,0-5.157,0-6.35
	C141.089,61.87,162.35,61.87,167.159,61.87z M136.28,85.171h30.88c0,2.303,0,4.335,0,5.885h-30.88
	C136.28,89.507,136.28,87.474,136.28,85.171z"/>
<path d="M109.498,50.955c5.673,0,77.28,0,82.944,0c0,3.827,0,11.118,0,11.118h6.325V44.631h-95.586v17.442h6.317
	C109.498,62.073,109.498,54.783,109.498,50.955"/>
<rect x="217.785" y="4.784" width="6.316" height="28.67"/>
<rect x="294.43" y="4.784" width="6.316" height="28.67"/>
<polyline points="307.055,67.754 262.432,67.754 262.432,50.803 300.755,50.803 300.755,44.478 262.432,44.478 262.432,0.398 
	256.107,0.398 256.107,44.478 217.785,44.478 217.785,50.803 256.107,50.803 256.107,67.754 211.307,67.754 211.307,74.079 
	256.107,74.079 256.107,95.984 262.432,95.984 262.432,74.079 307.055,74.079 307.055,67.754 "/>
<path d="M720,65.341l-22.684-22.675l-4.471,4.471c0,0,6.782,6.782,11.888,11.888c-5.605,0-22.43,0-39.567,0l25.842-25.833
	l-17.815-17.815c3.294-3.302,6.113-6.122,7.519-7.519h10.525V1.532h-44.622v6.325h25.148l-23.319,23.319l-2.235,2.244l17.807,17.798
	c-3.531,3.539-6.52,6.537-7.798,7.807c-18.831,0-35.723,0-35.723,0v6.317h45.266v31.777h6.325V65.341H720 M655.15,33.42
	c1.787-1.795,7.747-7.756,13.573-13.581c3.615,3.624,10.821,10.829,13.336,13.353c-1.787,1.787-7.748,7.747-13.564,13.564
	C664.878,43.14,657.664,35.935,655.15,33.42z"/>
<rect x="627.53" y="70.802" width="6.325" height="26.443"/>
<rect x="704.175" y="70.802" width="6.325" height="26.443"/>
</svg>
