<?xml version="1.0" encoding="utf-8"?>
<!-- Generator: Adobe Illustrator 27.1.1, SVG Export Plug-In . SVG Version: 6.00 Build 0)  -->
<svg version="1.1" id="레이어_1" xmlns="http://www.w3.org/2000/svg" xmlns:xlink="http://www.w3.org/1999/xlink" x="0px"
	 y="0px" viewBox="0 0 720 317.579" enable-background="new 0 0 720 317.579" xml:space="preserve">
<path d="M239.409,317.579H122.558c-1.57,0-2.856-1.271-2.856-2.841V197.872c0-1.555,1.286-2.841,2.856-2.841h116.851
	c1.57,0,2.841,1.286,2.841,2.841v116.866C242.25,316.308,240.979,317.579,239.409,317.579"/>
<rect x="122.77" y="198.086" fill="#E4007F" width="116.432" height="116.432"/>
<path d="M119.707,197.878H2.856c-1.57,0-2.856-1.271-2.856-2.841V78.186c0-1.57,1.286-2.856,2.856-2.856h116.851
	c1.57,0,2.841,1.286,2.841,2.856v116.851C122.548,196.607,121.277,197.878,119.707,197.878"/>
<rect x="3.064" y="78.394" fill="#E5005A" width="116.432" height="116.432"/>
<path d="M239.197,197.878H122.346c-1.57,0-2.841-1.271-2.841-2.841V78.186c0-1.57,1.271-2.856,2.841-2.856h116.851
	c1.57,0,2.841,1.286,2.841,2.856v116.851C242.037,196.607,240.767,197.878,239.197,197.878"/>
<rect x="122.546" y="78.394" fill="#FFFFFF" width="116.432" height="116.432"/>
<path d="M358.688,197.882H241.837c-1.57,0-2.856-1.271-2.856-2.841V78.176c0-1.555,1.286-2.841,2.856-2.841h116.851
	c1.57,0,2.841,1.286,2.841,2.841v116.866C361.529,196.611,360.258,197.882,358.688,197.882"/>
<rect x="242.043" y="78.394" fill="#A4003E" width="116.432" height="116.432"/>
<path d="M478.179,197.882H361.328c-1.57,0-2.856-1.271-2.856-2.841V78.176c0-1.555,1.286-2.841,2.856-2.841h116.851
	c1.57,0,2.841,1.286,2.841,2.841v116.866C481.02,196.611,479.749,197.882,478.179,197.882"/>
<rect x="361.541" y="78.394" fill="#FFFFFF" width="116.432" height="116.432"/>
<path d="M597.672,197.882H480.821c-1.57,0-2.856-1.271-2.856-2.841V78.176c0-1.555,1.286-2.841,2.856-2.841h116.851
	c1.57,0,2.841,1.286,2.841,2.841v116.866C600.513,196.611,599.242,197.882,597.672,197.882"/>
<rect x="481.023" y="78.394" fill="#A4003E" width="116.432" height="116.432"/>
<path d="M717.159,197.882H600.308c-1.57,0-2.841-1.271-2.841-2.841V78.176c0-1.555,1.271-2.841,2.841-2.841h116.851
	c1.57,0,2.841,1.286,2.841,2.841v116.866C720,196.611,718.729,197.882,717.159,197.882"/>
<rect x="600.521" y="78.394" fill="#FFFFFF" width="116.432" height="116.432"/>
<path d="M597.883,317.374H481.032c-1.57,0-2.856-1.271-2.856-2.841V197.682c0-1.57,1.286-2.856,2.856-2.856h116.851
	c1.57,0,2.841,1.286,2.841,2.856v116.851C600.724,316.103,599.453,317.374,597.883,317.374"/>
<rect x="481.233" y="197.891" fill="#FFFFFF" width="116.432" height="116.432"/>
<path d="M478.39,317.371H361.539c-1.57,0-2.856-1.271-2.856-2.841V197.679c0-1.57,1.286-2.856,2.856-2.856H478.39
	c1.57,0,2.841,1.286,2.841,2.856V314.53C481.231,316.1,479.96,317.371,478.39,317.371"/>
<rect x="361.75" y="197.891" fill="#E5005A" width="116.432" height="116.432"/>
<path fill="#FFFFFF" d="M171.876,221.903h-7.94v-3.274c0-0.568-0.434-1.032-0.957-1.032h-1.226c-0.523,0-0.957,0.464-0.957,1.032
	v4.246c0,0.538,0.419,0.987,0.927,0.987h10.153c0.508,0,0.927-0.434,0.927-0.987C172.803,222.337,172.385,221.903,171.876,221.903"
	/>
<path fill="#FFFFFF" d="M162.371,211.048h6.325l-1.047,2.512c-0.135,0.329-0.12,0.643,0.045,0.882
	c0.15,0.239,0.404,0.359,0.718,0.359h1.705c0.344,0,0.718-0.254,0.852-0.598l1.6-3.858c0.135-0.329,0.12-0.658-0.045-0.897
	c-0.149-0.224-0.419-0.359-0.718-0.359h-9.435c-0.508,0-0.927,0.434-0.927,0.972S161.863,211.048,162.371,211.048"/>
<path fill="#FFFFFF" d="M146.813,214.214h7.715v7.686h-6.295c-0.493,0-0.912,0.449-0.912,0.987c0,0.538,0.419,0.972,0.927,0.972
	h8.463c0.538,0,0.972-0.463,0.972-1.032v-9.539c0-0.568-0.434-1.032-0.972-1.032h-9.898c-0.508,0-0.927,0.434-0.927,0.987
	C145.886,213.781,146.305,214.214,146.813,214.214"/>
<path fill="#FFFFFF" d="M147.963,211.048h7.491c0.508,0,0.927-0.433,0.927-0.987c0-0.538-0.419-0.972-0.927-0.972h-7.491
	c-0.508,0-0.927,0.434-0.927,0.972C147.036,210.614,147.455,211.048,147.963,211.048"/>
<path fill="#FFFFFF" d="M130.539,223.859h6.28c0.523,0,0.957-0.464,0.957-1.032v-3.035h4.067c0.508,0,0.912-0.449,0.912-0.987
	c0.015-0.254-0.09-0.523-0.284-0.703c-0.165-0.179-0.389-0.269-0.628-0.269h-4.067v-3.843h4.067c0.508,0,0.927-0.434,0.927-0.972
	s-0.419-0.987-0.927-0.987h-4.067v-1.914c0-0.284-0.105-0.553-0.299-0.748c-0.179-0.179-0.419-0.284-0.658-0.284h-1.226
	c-0.523,0-0.942,0.464-0.942,1.032v7.715h-4.112c-0.538,0-0.972,0.463-0.972,1.032v3.962
	C129.568,223.395,130.001,223.859,130.539,223.859 M132.708,221.9v-2.108h1.944v2.108H132.708z"/>
<path fill="#FFFFFF" d="M176.849,216.459h6.056l-2.841,3.514c-0.194,0.239-0.344,0.658-0.344,0.987v1.914
	c0,0.269,0.105,0.538,0.284,0.718c0.179,0.18,0.404,0.269,0.628,0.269h6.25c0.493,0,0.897-0.434,0.912-0.987
	c-0.015-0.538-0.419-0.972-0.912-0.972h-4.022v-0.822l3.768-4.62h1.719c0.508,0,0.912-0.449,0.912-0.987s-0.419-0.972-0.912-0.972
	h-4.336l3.469-4.246c0.314-0.374,0.254-0.658,0.194-0.807c-0.12-0.224-0.359-0.359-0.703-0.359h-8.882
	c-0.508,0-0.927,0.434-0.927,0.972s0.419,0.987,0.927,0.987h4.919l-2.826,3.454h-3.334c-0.508,0-0.912,0.434-0.927,0.972
	C175.922,216.01,176.341,216.459,176.849,216.459"/>
<path fill="#FFFFFF" d="M203.621,275.043h1.032c0.463,0,0.852-0.404,0.852-0.912v-5.323h1.555v4.485h-0.598
	c-0.449,0-0.822,0.389-0.822,0.882c0,0.478,0.374,0.867,0.837,0.867h0.583v0.568h-0.538c-0.449,0-0.822,0.389-0.822,0.882
	c0,0.478,0.374,0.867,0.837,0.867h2.407c0.479,0,0.867-0.404,0.867-0.912v-1.406h3.274c0.239,0,0.449-0.09,0.613-0.284
	c0.15-0.165,0.239-0.389,0.239-0.628v-6.16c0-0.509-0.389-0.927-0.852-0.927h-3.274v-1.405c0-0.508-0.389-0.912-0.867-0.912
	l-1.032-0.015c-0.463,0.015-0.852,0.419-0.852,0.927v1.405h-1.555v-0.523c0-0.523-0.389-0.927-0.852-0.927h-1.032
	c-0.479,0-0.867,0.404-0.867,0.927v7.611C202.754,274.639,203.142,275.043,203.621,275.043 M209.811,273.293v-4.485h1.376v4.485
	H209.811z"/>
<path fill="#FFFFFF" d="M184.047,265.763h-9.898c-0.508,0-0.927,0.434-0.927,0.972c0,0.553,0.419,0.987,0.927,0.987h7.73v7.685
	h-6.295c-0.493,0-0.912,0.434-0.912,0.972c0,0.553,0.404,0.987,0.912,0.987h8.463c0.523,0,0.957-0.463,0.957-1.032v-9.539
	C185.004,266.227,184.57,265.763,184.047,265.763"/>
<path fill="#FFFFFF" d="M175.305,262.593c-0.508,0-0.927,0.434-0.927,0.972c0,0.553,0.419,0.987,0.927,0.987h7.491
	c0.508,0,0.927-0.434,0.927-0.987c0-0.538-0.419-0.972-0.927-0.972H175.305z"/>
<path fill="#FFFFFF" d="M165.01,277.362c0.463,0,0.852-0.419,0.852-0.927v-2.527h3.409c0.449,0,0.822-0.389,0.822-0.882
	c0-0.478-0.374-0.882-0.822-0.882h-3.409v-3.17h3.409c0.449,0,0.822-0.389,0.822-0.867c0-0.493-0.374-0.882-0.822-0.882h-3.409
	v-1.585c0-0.508-0.389-0.927-0.852-0.927h-1.047c-0.478,0-0.867,0.419-0.867,0.927v6.504h-3.439c-0.463,0-0.852,0.419-0.852,0.927
	v3.379c0,0.508,0.389,0.912,0.852,0.912H165.01z M161.556,273.908h1.54v1.705h-1.54V273.908z"/>
<path fill="#FFFFFF" d="M217.068,269.304c0,0.538,0.419,0.972,0.927,0.972h6.235l0.329,1.42h-0.867
	c-0.463,0-0.837,0.389-0.837,0.882c0,0.478,0.374,0.867,0.837,0.867h3.394c0.254,0,0.478-0.105,0.628-0.299
	c0.164-0.194,0.224-0.478,0.164-0.778l-0.493-2.093h1.525c0.508,0,0.912-0.434,0.912-0.972c0-0.538-0.404-0.972-0.912-0.972
	l-1.974-0.015l-0.344-1.405h2.318c0.508-0.015,0.912-0.449,0.912-0.987c0-0.538-0.404-0.972-0.912-0.972h-2.766l-0.329-1.42
	c-0.12-0.523-0.613-0.942-1.121-0.942h-1.211c-0.254,0-0.478,0.105-0.628,0.299c-0.164,0.194-0.224,0.478-0.164,0.777l0.299,1.286
	h-5.009c-0.508,0-0.912,0.449-0.912,0.972c0,0.538,0.419,0.987,0.927,0.987h5.457l0.329,1.42h-5.786
	C217.486,268.332,217.068,268.766,217.068,269.304"/>
<path fill="#FFFFFF" d="M219.684,272.387h-1.211c-0.538,0-0.957,0.464-0.957,1.032v2.961c0,0.553,0.404,0.987,0.912,0.987h9.315
	c0.523,0,0.927-0.434,0.927-0.987c0-0.538-0.419-0.972-0.927-0.972h-7.102v-1.989C220.641,272.851,220.207,272.387,219.684,272.387"
	/>
<path fill="#FFFFFF" d="M227.598,264.486c0.777,0,1.42-0.688,1.42-1.555c0-0.837-0.643-1.54-1.42-1.54
	c-0.778,0-1.42,0.703-1.42,1.54C226.178,263.799,226.821,264.486,227.598,264.486"/>
<path fill="#FFFFFF" d="M230.973,261.397c-0.359,0-0.703,0.15-0.972,0.419c-0.284,0.284-0.449,0.703-0.449,1.121
	c0,0.433,0.164,0.837,0.449,1.136c0.269,0.269,0.613,0.419,0.972,0.419c0.777-0.015,1.42-0.703,1.42-1.555
	C232.393,262.085,231.75,261.397,230.973,261.397"/>
<path fill="#FFFFFF" d="M130.537,277.365h9.569c0.523,0,0.957-0.463,0.957-1.031v-2.991c0-0.553-0.434-1.017-0.957-1.032h-1.226
	c-0.523,0.015-0.957,0.478-0.957,1.032v2.063h-5.203l-0.015-11.782c0.015-0.269-0.09-0.553-0.284-0.748
	c-0.179-0.179-0.419-0.284-0.673-0.284h-1.211c-0.523,0-0.957,0.464-0.957,1.032v12.709
	C129.58,276.901,130.013,277.365,130.537,277.365"/>
<path fill="#FFFFFF" d="M198.654,272.308l-1.211,0.015c-0.523,0-0.957,0.449-0.957,1.017v2.063h-5.203v-11.782
	c-0.015-0.568-0.449-1.032-0.972-1.032h-1.211c-0.538,0-0.957,0.464-0.957,1.032v12.709c0,0.568,0.419,1.032,0.957,1.032h9.555
	c0.538,0,0.957-0.464,0.957-1.032v-2.991C199.611,272.787,199.192,272.323,198.654,272.308"/>
<path fill="#FFFFFF" d="M154.72,277.365c0.523,0,0.957-0.463,0.957-1.031v-3.005c-0.015-0.553-0.434-1.017-0.957-1.017h-1.226
	c-0.523,0-0.957,0.464-0.957,1.032v2.063h-5.218v-11.782c0-0.284-0.105-0.553-0.299-0.748c-0.179-0.179-0.404-0.284-0.658-0.284
	h-1.211c-0.523,0-0.957,0.464-0.957,1.032v12.709c0,0.568,0.419,1.031,0.957,1.031H154.72z"/>
<path fill="#FFFFFF" d="M149.098,266.74c0,0.852,0.628,1.54,1.42,1.54c0.778,0,1.42-0.688,1.42-1.54c0-0.852-0.643-1.54-1.42-1.54
	C149.726,265.2,149.098,265.888,149.098,266.74"/>
<path fill="#FFFFFF" d="M153.889,265.198c-0.778,0-1.42,0.688-1.42,1.54c0,0.852,0.643,1.54,1.42,1.54
	c0.777,0,1.405-0.688,1.405-1.54C155.294,265.886,154.666,265.198,153.889,265.198"/>
<path fill="#FFFFFF" d="M191.981,250.014h2.153c0.329,0,0.583-0.134,0.688-0.359c0.135-0.239,0.075-0.538-0.135-0.837l-4.545-6.19
	l4.545-6.205c0.209-0.284,0.269-0.583,0.149-0.822c-0.12-0.224-0.374-0.359-0.703-0.359h-2.153c-0.329,0-0.718,0.209-0.912,0.478
	l-4.426,6.026c-0.374,0.493-0.374,1.271,0.015,1.764l4.411,6.026C191.263,249.805,191.652,250.014,191.981,250.014"/>
<path fill="#FFFFFF" d="M154.992,250.014c0.523,0,0.957-0.463,0.957-1.031v-10.781c0-0.568-0.434-1.032-0.957-1.032l-11.349,0.015
	c-0.508,0-0.927,0.433-0.927,0.972c0,0.538,0.419,0.987,0.927,0.987h9.166v8.911h-8.014c-0.508,0-0.912,0.434-0.912,0.972
	c0,0.269,0.105,0.538,0.284,0.718c0.179,0.179,0.404,0.269,0.643,0.269H154.992z"/>
<path fill="#FFFFFF" d="M174.267,250.02h5.353c0.463,0,0.852-0.419,0.852-0.927v-2.542h3.409c0.463,0,0.837-0.389,0.837-0.882
	c0-0.478-0.374-0.867-0.837-0.867h-3.409v-3.17h3.409c0.463,0,0.822-0.389,0.837-0.882c0-0.478-0.374-0.882-0.837-0.882h-3.409
	v-1.585c0-0.508-0.389-0.912-0.852-0.912h-1.047c-0.478,0-0.852,0.404-0.852,0.912l-0.015,6.519h-3.439
	c-0.464,0-0.852,0.404-0.852,0.912v3.379C173.415,249.602,173.803,250.02,174.267,250.02 M176.166,248.256v-1.705h1.555v1.705
	H176.166z"/>
<path fill="#FFFFFF" d="M130.532,250.014h9.569c0.538,0,0.957-0.449,0.957-1.031v-2.991c0-0.568-0.434-1.032-0.957-1.032h-1.226
	c-0.523,0-0.957,0.464-0.957,1.032v2.063H132.7v-11.782c0.015-0.284-0.09-0.553-0.284-0.748c-0.179-0.179-0.419-0.284-0.658-0.284
	h-1.226c-0.523,0-0.957,0.464-0.957,1.032v12.709C129.575,249.551,130.009,250.014,130.532,250.014"/>
<path fill="#FFFFFF" d="M134.484,239.386c0,0.434,0.164,0.838,0.449,1.136c0.269,0.269,0.613,0.404,0.972,0.404
	c0.778,0,1.42-0.688,1.42-1.54c0-0.852-0.643-1.54-1.435-1.54C135.112,237.846,134.484,238.534,134.484,239.386"/>
<path fill="#FFFFFF" d="M137.865,239.383c-0.015,0.434,0.149,0.852,0.449,1.136c0.254,0.269,0.598,0.419,0.957,0.419
	c0.792,0,1.42-0.703,1.42-1.555s-0.628-1.54-1.42-1.54C138.493,237.843,137.865,238.531,137.865,239.383 M139.27,240.624
	L139.27,240.624z"/>
<path fill="#FFFFFF" d="M160,250.014h9.315c0.538,0,0.972-0.463,0.972-1.031v-12.709c0-0.568-0.434-1.032-0.957-1.032h-1.226
	c-0.523,0-0.957,0.464-0.957,1.032v11.782H160c-0.508,0-0.912,0.434-0.912,0.972C159.088,249.581,159.491,250.014,160,250.014"/>
<path fill="#FFFFFF" d="M159.726,245.204c0.164,0,0.344-0.06,0.523-0.194l4.8-3.663c0.254-0.194,0.449-0.613,0.449-0.957v-1.6
	c0-0.763-0.583-0.912-1.017-0.583l-2.258,1.734v-3.663c0-0.568-0.434-1.032-0.972-1.032h-1.211c-0.254,0-0.478,0.09-0.658,0.284
	c-0.194,0.194-0.299,0.463-0.299,0.748v8.119C159.083,244.95,159.412,245.204,159.726,245.204"/>
<path fill="#FFFFFF" d="M170.61,295.142c0.449,0,0.822-0.404,0.822-0.882c0-0.478-0.374-0.882-0.822-0.882h-3.409v-1.585
	c0-0.508-0.389-0.912-0.867-0.912h-1.032c-0.478,0-0.867,0.404-0.867,0.912v6.519h-3.439c-0.478,0-0.852,0.404-0.852,0.912v3.379
	c0,0.508,0.374,0.927,0.852,0.927h5.338c0.478-0.015,0.867-0.419,0.867-0.927v-2.542h3.409c0.449,0,0.822-0.389,0.822-0.882
	c0-0.478-0.374-0.867-0.822-0.882l-3.409,0.015v-3.17H170.61z M162.894,301.765v-1.704h1.54v1.704H162.894z"/>
<path fill="#FFFFFF" d="M158.587,292.091c0-0.553-0.404-0.987-0.912-0.987h-2.766l-0.329-1.42c-0.12-0.523-0.613-0.927-1.121-0.927
	l-1.211-0.015c-0.254,0-0.478,0.12-0.643,0.299c-0.165,0.209-0.209,0.493-0.15,0.778l0.299,1.286h-4.994
	c-0.508,0-0.927,0.449-0.927,0.987c0,0.254,0.105,0.523,0.284,0.703c0.179,0.179,0.404,0.269,0.643,0.269h5.457l0.329,1.42h-5.786
	c-0.508,0-0.927,0.434-0.927,0.972c0,0.269,0.105,0.523,0.284,0.718c0.179,0.164,0.404,0.269,0.643,0.269h6.235l0.329,1.406h-0.882
	c-0.449,0-0.807,0.389-0.822,0.882c0.015,0.493,0.374,0.882,0.822,0.882h3.409c0.254,0,0.464-0.105,0.613-0.284
	c0.179-0.209,0.239-0.493,0.179-0.792l-0.493-2.094h1.525c0.508,0,0.912-0.449,0.912-0.987c0-0.538-0.404-0.972-0.912-0.972h-1.974
	l-0.329-1.42h2.303C158.183,293.063,158.587,292.63,158.587,292.091"/>
<path fill="#FFFFFF" d="M156.52,301.56h-7.117v-1.989c0-0.568-0.419-1.032-0.957-1.032h-1.211c-0.523,0-0.957,0.464-0.957,1.032
	v2.96c0,0.269,0.09,0.538,0.284,0.718c0.164,0.179,0.404,0.269,0.628,0.269h9.33c0.508,0,0.912-0.434,0.912-0.972
	C157.432,301.994,157.029,301.56,156.52,301.56"/>
<path fill="#FFFFFF" d="M213.186,290.675l-11.334,0.015c-0.523,0-0.927,0.434-0.927,0.972c0,0.553,0.404,0.987,0.927,0.987h9.151
	v8.912h-7.999c-0.523,0-0.927,0.434-0.927,0.972c0,0.553,0.404,0.987,0.912,0.987h10.197c0.523,0,0.957-0.464,0.957-1.032v-10.781
	C214.143,291.139,213.709,290.675,213.186,290.675"/>
<path fill="#FFFFFF" d="M198.416,298.467h-1.211c-0.254,0-0.493,0.105-0.673,0.284c-0.194,0.194-0.299,0.478-0.284,0.747v2.063
	h-5.218V289.78c0-0.568-0.434-1.032-0.957-1.032h-1.226c-0.523,0-0.957,0.464-0.957,1.032v12.709c0,0.568,0.434,1.032,0.957,1.032
	h9.569c0.269,0,0.508-0.105,0.688-0.314c0.179-0.194,0.269-0.449,0.269-0.718v-2.991
	C199.373,298.93,198.939,298.467,198.416,298.467"/>
<path fill="#FFFFFF" d="M141.745,289.458h-11.214c-0.523,0-0.957,0.464-0.957,1.032v12.006c0,0.568,0.434,1.017,0.957,1.017h5.981
	c0.523,0,0.957-0.449,0.957-1.017v-11.079h2.093v10.138h-0.493c-0.508,0-0.927,0.449-0.927,0.987c0,0.538,0.419,0.972,0.927,0.972
	h2.676c0.254,0,0.479-0.09,0.658-0.269c0.194-0.194,0.299-0.478,0.299-0.748v-12.022
	C142.702,289.922,142.268,289.458,141.745,289.458 M134.328,301.554h-1.615v-10.137h1.615V301.554z"/>
<path fill="#FFFFFF" d="M225.563,291.554c-0.284-0.523-0.942-0.942-1.51-0.942h-2.078c-0.568,0-1.211,0.434-1.465,0.987
	l-3.125,6.549c-0.239,0.478-0.075,1.062,0.359,1.316c0.434,0.269,1.032,0.06,1.256-0.404l2.841-5.846
	c0.194-0.404,0.463-0.404,0.673-0.015l5.308,9.779c0.164,0.299,0.538,0.538,0.882,0.538h2.033c0.299,0,0.553-0.12,0.688-0.344
	c0.149-0.254,0.134-0.568-0.03-0.882L225.563,291.554z"/>
<path fill="#FFFFFF" d="M183.799,291.913h-9.898c-0.508,0-0.912,0.449-0.912,0.987s0.404,0.972,0.912,0.972h7.73v7.685h-6.28
	c-0.508,0-0.927,0.449-0.927,0.987c0,0.538,0.419,0.972,0.927,0.972h8.448c0.269,0,0.508-0.104,0.703-0.314
	c0.165-0.194,0.269-0.449,0.269-0.718v-9.539C184.771,292.377,184.337,291.913,183.799,291.913"/>
<path fill="#FFFFFF" d="M182.552,290.706c0.508,0,0.912-0.433,0.912-0.972c0-0.553-0.404-0.987-0.912-0.987h-7.506
	c-0.508,0-0.912,0.449-0.912,0.987c0,0.538,0.419,0.972,0.927,0.972H182.552z"/>
<path d="M132.214,5.776h32.237l-5.742,12.545c-0.882,1.944,0.135,3.544,2.273,3.544h8.089c1.077,0,2.303-0.792,2.751-1.779
	l7.566-16.552c0.882-1.944-0.135-3.529-2.273-3.529h-44.901c-1.615,0-2.931,1.286-2.931,2.886S130.599,5.776,132.214,5.776"/>
<path d="M177.471,54.846h-39.264c0.015-0.075,0.015-0.149,0.015-0.209V39.55c0-1.705-1.391-3.11-3.11-3.11h-5.801
	c-1.705,0-3.11,1.405-3.11,3.11v18.182c0,1.6,1.316,2.886,2.931,2.886h48.34c1.615,0,2.931-1.286,2.931-2.886
	C180.402,56.147,179.086,54.846,177.471,54.846"/>
<path d="M115.798,13.562H68.684c-1.615,0-2.931,1.286-2.931,2.886s1.316,2.886,2.931,2.886h38.203v35.511H75.532
	c-1.615,0-2.931,1.301-2.931,2.886c0,1.6,1.316,2.886,2.931,2.886h40.266c1.705,0,3.11-1.391,3.11-3.11V16.672
	C118.908,14.967,117.503,13.562,115.798,13.562"/>
<path d="M74.167,5.776h35.646c1.63,0,2.931-1.286,2.931-2.886s-1.301-2.886-2.931-2.886H74.167c-1.615,0-2.931,1.286-2.931,2.886
	S72.552,5.776,74.167,5.776"/>
<path d="M57.549,37.425L57.549,37.425H36.766V18.391h20.783c1.615,0,2.931-1.286,2.931-2.886c0-1.6-1.316-2.886-2.931-2.886H36.766
	V3.11c0-1.705-1.405-3.11-3.11-3.11h-5.801c-1.72,0-3.11,1.405-3.11,3.11v34.315H3.766c-1.705,0-3.11,1.406-3.11,3.11v16.971
	c0,1.72,1.405,3.11,3.11,3.11h29.889c1.705,0,3.11-1.391,3.11-3.11V43.197h20.783c1.615,0,2.931-1.301,2.931-2.886
	C60.48,38.726,59.164,37.425,57.549,37.425 M24.744,54.844H12.693V43.197h12.051V54.844z"/>
<path d="M239.188,23.165h-23.699l18.496-20.29c1.435-1.585,0.867-2.871-1.271-2.871h-42.314c-1.63,0-2.931,1.286-2.931,2.886
	c0,1.6,1.301,2.886,2.931,2.886h26.465l-15.849,17.389h-16.522c-1.615,0-2.931,1.301-2.931,2.886c0,1.6,1.316,2.886,2.931,2.886
	h31.863L200.91,46.102c-0.718,0.807-1.301,2.318-1.301,3.394v8.239c0,1.6,1.301,2.886,2.931,2.886h29.665
	c1.615,0,2.931-1.286,2.931-2.886c0-1.6-1.316-2.886-2.931-2.886h-20.574v-5.278l18.69-20.634h8.867
	c1.615,0,2.931-1.286,2.931-2.886C242.118,24.466,240.802,23.165,239.188,23.165"/>
<path d="M335.174,220.387h-63.173c-2.347,0-4.56,1.884-4.949,4.187l-6.355,38.935v31.399c0,2.348,1.929,4.261,4.261,4.261h33.373
	c2.333,0,4.531-1.899,4.889-4.201c0,0,9.973-66.193,9.883-66.642h9.883v62.948h-6.16c-2.213,0-4.007,1.764-4.007,3.947
	c0,2.168,1.794,3.947,4.007,3.947h18.346c2.348,0,4.261-1.914,4.261-4.261v-70.275C339.436,222.301,337.522,220.387,335.174,220.387
	 M298.452,229.747l-9.375,61.528h-11.932v-27.766l5.742-35.182h16.044C298.706,228.775,298.527,229.238,298.452,229.747"/>
<path d="M222.688,109.653h-34.285l6.758-14.638c1.361-2.931-0.165-5.338-3.394-5.338h-11.423c-1.615,0-3.484,1.196-4.157,2.662
	l-7.999,17.314h-27.99c-0.015,0-0.03,0-0.045,0c-1.645,0-2.99,1.316-2.99,2.931c0,1.63,1.346,2.931,2.99,2.931
	c0.015,0,0.03,0,0.045,0h25.284l-28.962,62.694c-1.361,2.931-0.329,5.323,2.303,5.323h12.515c1.615,0,3.484-1.196,4.157-2.662
	l30.203-65.356h21.785v62.156h-20.439c-0.015,0-0.03,0-0.045,0c-1.66,0-2.99,1.316-2.99,2.931s1.331,2.931,2.99,2.931
	c0.015,0,0.03,0,0.045,0h35.646c1.615,0,2.931-1.316,2.931-2.931v-68.017C225.619,110.969,224.303,109.653,222.688,109.653"/>
<path d="M588.279,298.014h-39.758V282.18h29.396c1.66,0,2.99-1.316,2.99-2.946c0-1.615-1.331-2.931-2.99-2.931h-29.396v-7.7h27.004
	c3.23,0,4.276-2.108,2.333-4.68l-9.435-12.5c-0.972-1.301-3.08-2.347-4.695-2.347h-11.334c-3.23,0-4.306,2.078-2.392,4.635
	c1.929,2.527,6.833,9.031,6.833,9.031h-34.764l14.339-18.989h41.507c1.66,0,2.99-1.316,2.99-2.945c0-0.045-0.015-0.105-0.03-0.15
	h4.187c1.615,0,2.931-1.331,2.931-2.945v-14.414c0-1.615-1.316-2.945-2.931-2.945l-36.543-0.075v-9.031
	c0-1.615-1.316-2.931-2.931-2.931h-12.276c-1.615,0-2.931,1.316-2.931,2.931v9.031l-36.543,0.075c-1.615,0-2.931,1.331-2.931,2.945
	v14.414c0,1.615,1.316,2.945,2.931,2.945h4.172c0,0.045-0.015,0.105-0.015,0.15c0,1.63,1.331,2.945,2.991,2.945
	c0.015,0,0.015-0.015,0.045-0.015v0.015h15.236l-15.221,20.17c-1.944,2.572-0.897,4.68,2.332,4.68h27.004v7.7h-29.351
	c-0.03,0-0.03,0-0.045,0c-1.66,0-2.991,1.316-2.991,2.931c0,1.63,1.331,2.946,2.991,2.946c0.015,0,0.015-0.015,0.045-0.015v0.015
	h29.351v15.834h-39.713c-0.015,0-0.03,0-0.045,0c-1.645,0-2.976,1.316-2.976,2.931c0,1.63,1.331,2.945,2.976,2.945
	c0.015,0,0.03-0.015,0.045-0.015v0.015h97.607c1.645,0,2.975-1.316,2.975-2.945C591.255,299.33,589.924,298.014,588.279,298.014
	 M509.063,226.154h60.795v11.558c0,0.06,0,0.12,0.015,0.165h-60.825c0-0.045,0.015-0.105,0.015-0.165V226.154z"/>
<path fill="#FFFFFF" d="M18.778,119.901h12.276c1.615,0,2.931-1.316,2.931-2.931v-9.42H88.56v9.42c0,1.615,1.331,2.931,2.946,2.931
	h12.276c1.615,0,2.931-1.316,2.931-2.931v-12.365c0-1.615-1.316-2.931-2.931-2.931H70.348v-9.106c0-1.615-1.316-2.946-2.931-2.946
	H55.142c-1.615,0-2.931,1.331-2.931,2.946v9.106H18.778c-1.615,0-2.931,1.316-2.931,2.931v12.365
	C15.848,118.585,17.164,119.901,18.778,119.901"/>
<path fill="#FFFFFF" d="M106.133,148.917h-35.78v-6.683h25.254c1.66,0,2.99-1.316,2.99-2.931c0-1.63-1.331-2.946-2.99-2.946H70.353
	v-6.683h29.396c1.645,0,2.975-1.316,2.975-2.931c0-1.63-1.331-2.946-2.975-2.946H70.353v-9.21c0-1.6-1.316-2.931-2.931-2.931H55.146
	c-1.615,0-2.946,1.331-2.946,2.931v9.21H22.85v0.015c-0.015,0-0.03-0.015-0.045-0.015c-1.645,0-2.975,1.316-2.975,2.946
	c0,1.615,1.331,2.931,2.975,2.931c0.015,0,0.03,0,0.045,0h29.351v6.683H26.992c-0.015,0-0.03,0-0.045,0
	c-1.645,0-2.975,1.316-2.975,2.946c0,1.615,1.331,2.931,2.975,2.931c0.015,0,0.03-0.015,0.045-0.015v0.015h25.209v6.683H16.465
	c-0.015,0-0.03,0-0.045,0c-1.645,0-2.975,1.316-2.975,2.931c0,1.63,1.331,2.945,2.975,2.945c0.015,0,0.03-0.015,0.045-0.015v0.015
	h31.13l-29.665,25.015c-2.467,2.078-1.989,3.783,1.062,3.783h13.113c1.615,0,3.947-0.852,5.188-1.899l23.908-20.17l23.908,20.17
	c1.226,1.047,3.559,1.899,5.173,1.899h13.128c3.05,0,3.529-1.705,1.047-3.783l-29.65-25.015h31.325c1.645,0,2.975-1.316,2.975-2.945
	C109.109,150.233,107.778,148.917,106.133,148.917"/>
<path d="M613.865,134.654c0.015,0,0.03,0,0.045,0h89.623c1.645,0,2.99-1.316,2.99-2.931c0-1.63-1.346-2.931-2.99-2.931h-35.78
	v-7.177h29.396c1.645,0,2.99-1.316,2.99-2.931c0-1.63-1.346-2.931-2.99-2.931h-29.396v-7.177h31.459c1.66,0,2.99-1.301,2.99-2.931
	c0-1.615-1.331-2.931-2.99-2.931H681.24c0.613-0.568,6.25-8.343,6.25-8.343c1.869-2.632,1.106-4.785-1.705-4.785h-10.736
	c-1.615,0-3.708,1.077-4.635,2.392l-7.626,10.736h-7.984l-7.626-10.736c-0.927-1.316-3.02-2.392-4.635-2.392h-10.736
	c-2.811,0-3.574,2.153-1.705,4.785c0,0,5.637,7.775,6.25,8.343h-18.167c-0.015,0-0.03,0-0.045,0c-1.645,0-2.975,1.316-2.975,2.931
	c0,1.63,1.331,2.931,2.975,2.931c0.015,0,0.03,0,0.045,0h31.414v7.177h-29.336c-0.03,0-0.03,0-0.06,0
	c-1.645,0-2.975,1.301-2.975,2.931c0,1.615,1.331,2.931,2.975,2.931c0.03,0,0.03,0,0.06,0h29.336v7.177H613.91
	c-0.015,0-0.03,0-0.045,0c-1.645,0-2.976,1.301-2.976,2.931C610.89,133.338,612.221,134.654,613.865,134.654"/>
<path d="M703.602,177.755c-0.015,0-0.03,0-0.045,0h-14.444l-1.794-6.504c7.611-4.456,14.877-8.717,15.745-9.225
	c1.884-1.107,1.48-2.019-0.882-2.019h-8.583c-1.615,0-4.082,0.673-5.472,1.48c0,0-1.136,0.673-3.005,1.765l-1.959-7.147h20.365
	c1.66,0,2.991-1.316,2.991-2.931c0-1.63-1.331-2.945-2.991-2.945h-21.98l-2.437-8.852c-0.434-1.57-2.108-2.841-3.723-2.841h-8.657
	c-1.6,0-2.572,1.271-2.153,2.841l2.437,8.852h-20.499v-5.816h10.975c1.645,0,2.976-1.316,2.99-2.931c0-1.63-1.346-2.945-2.99-2.945
	h-38.517v0.015c-0.015,0-0.03-0.015-0.045-0.015c-1.645,0-2.99,1.316-2.99,2.945c0,1.615,1.346,2.931,2.99,2.931
	c0.015,0,0.03,0,0.045,0h12.425v5.816h-17.479v0.015c-0.015,0-0.045-0.015-0.06-0.015c-1.63,0-2.961,1.316-2.961,2.945
	c0,1.615,1.331,2.931,2.961,2.931c0.015,0,0.045,0,0.06-0.015v0.015h17.479v7.028h-17.479c-0.015,0-0.045,0-0.06,0
	c-1.63,0-2.975,1.316-2.961,2.931c0,1.63,1.331,2.946,2.961,2.946c0.015,0,0.045-0.015,0.06-0.015v0.015h17.479v8.747H616.76
	c-0.015,0-0.03,0-0.045,0c-1.645,0-2.975,1.316-2.975,2.931c0,1.63,1.331,2.945,2.975,2.945c0.015,0,0.03-0.015,0.045-0.015v0.015
	h26.824c1.615,0,2.931-1.331,2.931-2.945v-11.678h10.242c1.645,0,2.975-1.316,2.975-2.946c0-1.615-1.331-2.931-2.975-2.931h-10.242
	v-7.028h22.129l3.977,14.489c-8.448,4.964-17.404,10.212-18.436,10.825c-1.989,1.166-1.585,2.138,0.912,2.138h8.358
	c1.615,0,4.067-0.673,5.457-1.495c0,0,2.407-1.406,5.921-3.469l0.583,2.123c0.419,1.57,2.093,2.841,3.708,2.841l24.432,0.075v-0.015
	c0.015,0,0.03,0.015,0.045,0.015c1.645,0,2.975-1.316,2.975-2.945C706.578,179.071,705.247,177.755,703.602,177.755"/>
<path d="M697.505,138.542h-8.657c-1.615,0-2.602,1.271-2.198,2.841l0.523,1.914c0.404,1.555,2.063,2.841,3.663,2.841h8.657
	c1.615,0,2.602-1.286,2.198-2.841l-0.508-1.914C700.779,139.813,699.119,138.542,697.505,138.542"/>
<path d="M468.577,177.657h-40.789v-56.07h32.536c1.645,0,2.975-1.301,2.975-2.931c0-1.615-1.331-2.931-2.975-2.931h-32.536V92.624
	c0-1.615-1.316-2.931-2.931-2.931h-14.354c-1.615,0-2.931,1.316-2.931,2.931v85.033H370.97c-0.015,0-0.03,0-0.045,0
	c-1.645,0-2.975,1.316-2.975,2.931c0,1.63,1.331,2.931,2.975,2.931c0.015,0,0.03,0,0.045,0h97.607c1.645,0,2.975-1.301,2.975-2.931
	C471.553,178.973,470.222,177.657,468.577,177.657"/>
<path fill="#FFFFFF" d="M349.081,177.722h-39.743v-23.026h29.396c1.645,0,2.975-1.316,2.975-2.931s-1.331-2.931-2.975-2.931h-29.396
	v-10.078h27.856c3.23,0,4.486-2.243,2.781-4.994l-11.678-18.9c-0.837-1.376-2.856-2.497-4.471-2.497H312.12
	c-3.02,0-4.261,2.003-2.736,4.456c1.51,2.452,9.928,16.059,9.928,16.059h-38.098l23.101-37.38h40.625
	c1.645,0,2.975-1.316,2.975-2.946c0-1.615-1.331-2.931-2.975-2.931H255.63v0.015c-0.03,0-0.03-0.015-0.045-0.015
	c-1.645,0-2.99,1.316-2.99,2.931c0,1.63,1.346,2.946,2.99,2.946c0.015,0,0.015,0,0.045,0h28.558l-23.654,38.263
	c-1.69,2.751-0.449,4.994,2.781,4.994h27.871v10.078h-29.351c-0.015,0-0.03,0-0.045,0c-1.645,0-2.975,1.316-2.975,2.931
	s1.331,2.931,2.975,2.931c0.015,0,0.03,0,0.045,0h29.351v23.026h-39.698c-0.015,0-0.03,0-0.045,0c-1.66,0-2.99,1.316-2.99,2.931
	c0,1.63,1.331,2.931,2.99,2.931c0.015,0,0.03,0,0.045,0h97.592c1.645,0,2.975-1.301,2.975-2.931
	C352.057,179.038,350.726,177.722,349.081,177.722"/>
<path fill="#FFFFFF" d="M588.065,177.739h-38.711v-31.893h28.364c1.645,0,2.975-1.316,2.975-2.931c0-1.63-1.331-2.945-2.975-2.945
	h-28.364v-24.521h34.569c1.645,0,2.99-1.316,2.99-2.931c0-1.615-1.346-2.931-2.99-2.931h-33.822l-7.805-17.3
	c-0.673-1.465-2.527-2.676-4.157-2.676h-16.328c-1.615,0-2.392,1.211-1.734,2.676l7.82,17.3H494.6c-0.015,0-0.015,0-0.03,0
	c-1.66,0-2.99,1.316-2.99,2.931c0,1.615,1.331,2.931,2.99,2.931c0.015,0,0.015,0,0.03,0h34.539v24.521H500.82v0.015
	c-0.015,0-0.03-0.015-0.045-0.015c-1.645,0-2.975,1.316-2.975,2.945c0,1.615,1.331,2.931,2.975,2.931c0.015,0,0.03,0,0.045,0h28.319
	v31.893h-38.681c0,0-0.015,0-0.03,0c-1.66,0-2.99,1.316-2.99,2.931c0,1.615,1.331,2.931,2.99,2.931c0.015,0,0.03,0,0.03,0h97.607
	c1.645,0,2.975-1.316,2.975-2.931C591.041,179.055,589.71,177.739,588.065,177.739"/>
<path fill="#FFFFFF" d="M474.042,301.462l-20.155-29.829l16.372-41.776h0.867c1.66,0,2.99-1.316,2.99-2.931
	c0-1.63-1.331-2.946-2.99-2.946h-28.035l5.009-12.933c0.598-1.51-0.254-2.736-1.869-2.736h-7.91c-1.615,0-3.409,1.226-3.992,2.736
	l-11.932,30.756h-15.027l20.754-22.294c2.198-2.363,2.048-4.306-0.329-4.306h-8.313c-1.615,0-3.828,0.972-4.934,2.153l-3.424,3.693
	h-13.158v-9.808c0-1.615-1.316-2.931-2.931-2.931h-9.27c-1.615,0-2.931,1.316-2.931,2.931v9.808h-8.911c-0.015,0-0.03,0-0.045,0
	c-1.645,0-2.975,1.316-2.975,2.931c0,1.63,1.331,2.946,2.975,2.946c0.015,0,0.03-0.015,0.045-0.015v0.015h8.911v14.877h-14.339
	v0.015c-0.03,0-0.03-0.015-0.06-0.015c-1.63,0-2.975,1.316-2.975,2.931c0,1.63,1.346,2.946,2.975,2.946
	c0.03,0,0.03-0.015,0.06-0.015v0.015h17.853l-4.456,4.785h-7.969c-0.015,0-0.03,0-0.045,0c-1.645,0-2.975,1.316-2.975,2.931
	c0,1.63,1.331,2.945,2.975,2.945c0.015,0,0.03-0.015,0.045-0.015v0.015h2.497l-6.534,7.027c-2.198,2.363-2.093,4.306,0.254,4.306
	h8.373c1.615,0,3.828-0.972,4.934-2.153l8.538-9.181h9.495l-10.541,11.334v7.297h-17.015c-0.015,0-0.03,0-0.045,0
	c-1.645,0-2.975,1.316-2.975,2.931s1.331,2.931,2.975,2.931c0.015,0,0.03-0.015,0.045-0.015v0.015h17.015v15.176h-13.412v0.015
	c-0.015,0-0.03-0.015-0.045-0.015c-1.645,0-2.976,1.316-2.976,2.946c0,1.615,1.331,2.931,2.976,2.931c0.015,0,0.03,0,0.045,0h26.106
	c1.615,0,2.931-1.316,2.931-2.931v-18.122h12.306c1.645,0,2.975-1.316,2.975-2.931s-1.331-2.931-2.975-2.931h-12.306v-7.297h-0.06
	l10.541-11.334h11.274l9.076,13.427l-10.287,26.241h-7.91v0.015c-0.015,0-0.03-0.015-0.045-0.015c-1.645,0-2.975,1.316-2.975,2.946
	c0,1.615,1.331,2.931,2.975,2.931c0.015,0,0.03,0,0.045,0h19.094c1.63,0,3.424-1.226,4.022-2.736l5.487-13.995l9.659,14.309
	c0.897,1.331,2.961,2.422,4.575,2.422h10.706C474.356,303.884,474.939,302.793,474.042,301.462 M405.651,226.925l-7.685,8.254
	v-8.254H405.651z M397.457,252.464l4.456-4.785h18.227l-1.854,4.785H397.457z M441.207,252.882
	c-0.912-1.346-2.961-2.437-4.575-2.437h-3.783l7.97-20.589h13.023l-10.362,26.39L441.207,252.882z"/>
<path d="M667.949,232.985c-1.495-2.482-5.099-4.515-7.999-4.515h-13.367c-2.901,0-6.385,2.093-7.745,4.65l-20.2,38.053
	c-1.047,1.929-0.359,4.336,1.555,5.353c1.899,1.032,4.276,0.314,5.323-1.615l18.376-33.881c2.063-3.828,5.592-3.903,7.85-0.18
	l34.181,56.713c0.748,1.241,2.557,2.258,3.992,2.258h13.053c2.901,0,4.037-2.033,2.542-4.515L667.949,232.985z"/>
</svg>
