<?xml version="1.0" encoding="utf-8"?>
<!-- Generator: Adobe Illustrator 27.0.1, SVG Export Plug-In . SVG Version: 6.00 Build 0)  -->
<svg version="1.1" id="레이어_1" xmlns="http://www.w3.org/2000/svg" xmlns:xlink="http://www.w3.org/1999/xlink" x="0px"
	 y="0px" viewBox="0 0 720 370.655" enable-background="new 0 0 720 370.655" xml:space="preserve">
<path d="M177.452,290.406c2.058-1.691,4.931-4.564,0.285-4.768c-13.633-0.653-17.606-1.611-22.741-5.543
	c-5.135-3.892-15.466-28.08-16.241-34.967c-0.754-6.887-2.812-13.244-3.831-16.302c-0.978-3.077-5.42-5.135-6.582-5.359
	c-1.141-0.244-1.141-1.446-1.141-1.446l-0.958-0.408c0.509-19.684,2.384-21.09,4.3-21.09c14.264,0,18.992,0.081,19.134-4.219
	c0.734-22.66,9.312-30.301,9.312-30.301l-0.407-0.448c-7.804-0.816-15.364,2.323-15.833,2.323c-0.448,0-5.359,0.856-5.726-3.098
	c-0.366-3.953,1.203-18.217,2.344-21.335c1.141-3.118,0.652-14.406,0.652-16.811c0-2.404,1.712-6.521,2.772-9.618
	c1.08-3.056-1.304-4.768-3.098-4.849c-1.813-0.082-8.66-2.629-9.414-3.22c-0.713-0.611-7.886-0.387-9.068-0.469
	c-1.182-0.081-1.263-1.039-2.934-1.141c-0.937-0.041-5.359-3.383-5.95-3.831c-0.55-0.449-3.546-2.323-1.182-4.321
	c2.384-1.956,3.851-0.102,12.777-6.765c8.925-6.684,7.295-8.559,15.507-15.324c8.192-6.786,10.841-5.828,11.982-6.623
	c1.121-0.795,2.302-1.019,2.996-1.344c0.672-0.347,2.588-2.833,4.116-2.935c1.528-0.081,4.931-1.039,6.398-1.935
	c1.467-0.877,1.691-2.812,1.345-2.934c-0.326-0.123-1.121-1.346-1.468-2.262c-0.326-0.897-2.303-1.631-3.321-1.976
	c-1.019-0.347-5.155-3.689-6.174-4.851c-1.019-1.201-2.425-4.645-3.158-5.318c-0.733-0.693-2.16-3.056-2.608-4.137
	c-0.448-1.08-1.569-1.303-2.935-1.366c-1.365-0.061-2.201-0.856-2.995-1.752c-0.795-0.895-2.425-7.844-3.688-9.842
	c-1.243-1.976-2.874-0.041-2.711,1.04c0.183,1.08-0.733,4.115-1.365,8.007c-0.611,3.913-4.952,9.007-12.043,17.708
	c-7.051,8.701-25.92,29.894-27.468,31.931c-1.508,2.037-8.355,7.804-10.107,9.17c-1.752,1.364-10.189,3.994-11.085,5.155
	c-0.897,1.121-9.455,6.215-10.841,6.541c-1.426,0.347-3.056,0.122-3.749-1.589c-0.672-1.691-0.897-12.654-0.897-20.662
	c0-8.049,0.673-11.615,1.468-12.96c0.795-1.366,5.135-7.316-1.019-9.863c-6.154-2.527-14.08-13.266-14.753-15.344
	c-0.672-2.099-2.934-6.684-5.645-8.538c-2.73-1.876-3.912-4.647-4.3-5.502c-0.387-0.836-1.08-7.214-2.486-8.232
	c-0.489-0.367-1.65-2.384-2.058-3.179c-0.387-0.795-2.914-0.958-3.036,0.448c-0.265,3.281-1.712,4.972-0.938,6.419
	c1.814,3.505,0.428,12.859,1.691,15.467c1.284,2.608,2.67,10.148,2.975,14.06c0.265,3.851,3.383,11.125,4.727,14.1
	c1.325,2.976,0.754,35.905,0.978,41.427c0.224,5.522,1.162,4.463,4.198,7.906c3.036,3.424-0.448,8.497-1.101,9.496
	c-0.672,0.999-0.509,15.365-0.123,20.866c0.387,5.543-0.978,8.966-1.976,11.044c-0.999,2.119-9.333,1.387-9.333,1.387
	c-4.137-2.099-4.625-1.387-7.906-2.425c-4.625-1.488-7.437-1.691-10.352-2.384c-2.935-0.693-3.321,1.242-2.547,2.241
	c0.774,0.979,5.502,14.651,5.42,16.017c-0.061,1.325,0.143,3.729,2.262,8.171c2.119,4.462,0.57,6.786,0,7.988
	c-0.571,1.182-0.836,8.66,0.856,9.088s7.193-0.061,8.742-0.775c1.569-0.693,9.537-4.076,10.23,0.938
	c0.713,4.992-4.381,16.221-4.646,20.173c-0.285,3.933-10.311,21.009-12.634,24.473c-2.323,3.464-1.06,7.561-1.121,10.23
	c-0.081,2.69,1.752,3.546,5.359,3.953c3.587,0.429,4.85-1.629,6.623-3.178c1.773-1.55,4.239-0.062,4.442,2.139
	c0.224,2.18,1.631,6.48,3.322,8.314c1.691,1.833,3.24,7.416,2.037,12.858c-1.182,5.42-9.577,13.754-10.29,16.221
	c-0.713,2.465-2.609,4.584-5.849,7.824c-3.26,3.26-17.3,6.562-20.194,7.051c-2.894,0.509-2.833,1.568-2.547,2.486
	c0.285,0.917,5.237,2.669,6.561,4.38c1.345,1.691,0.081,3.995,2.975,6.399c2.894,2.425,0.917,5.603,0.489,7.62
	c-0.428,2.058,7.499,8.905,9.108,9.333c1.631,0.408,4.87,1.548,7.255,2.812c2.384,1.284,3.403,0.714,4.544-0.142
	c1.1-0.857,5.42-6.623,7.886-10.944c2.486-4.3,3.749-8.721,5.217-12.124c1.487-3.383,4.503-8.253,4.911-9.027
	c0.407-0.754,0.244-2.527,1.446-4.564c2.323-3.974,4.341-0.388,4.727,0.367c0.387,0.754,14.387,31.971,15.345,34.987
	c0.958,3.016,4.727,10.271,5.461,8.946c0.733-1.285,2.486-2.486,4.849-5.094c2.364-2.629,5.033-3.811,6.174-8.742
	c1.121-4.951,1.956-6.297,3.056-6.949c2.772-1.672,3.709-2.404,7.458-7.234c3.77-4.809,3.077-7.296,4.606-7.704
	c1.529-0.366,1.834-1.527,3.362-2.22c6.052-2.772,8.742-6.032,11.33-7.418c2.588-1.407,4.992-4.788,2.71-4.606
	c-16.689,1.305-11.371,2.017-18.869,2.894c-7.54,0.876-9.802-1.529-12.879-1.448c-3.056,0.082-5.848-0.346-9.924-2.954
	c-4.055-2.649-10.311-14.305-11.065-16.058c-0.733-1.752-3.056-4.992,1.854-5.033c4.89-0.041,10.8,6.786,12.552,9.496
	c1.732,2.69,2.751,3.668,4.972,2.303c2.221-1.325,8.701-9.802,9.883-12.635c1.162-2.832,1.752-1.833,2.71-3.972
	c0.958-2.14-0.265-0.571,3.75-8.559c4.035-8.008,9.679-16.77,11.248-18.462c1.57-1.711,1.223-1.182,2.14-3.423
	c0.917-2.221,7.132-5.502,8.783-0.551c1.671,4.931,3.118,5.767,3.668,8.905c2.16,12.104,9.659,32.848,9.557,37.25
	c-0.123,4.382-0.713,17.402,2.119,31.382c2.812,13.978,7.906,15.527,8.477,17.361c0.55,1.833,1.997,3.525,2.812,3.525
	c0.795,0,3.098-1.59,3.098-4.686c0-9.944,0.998-11.86,2.323-13.042c1.304-1.182,4.748-6.582,6.99-10.209
	c2.262-3.628,0.713-8.416,2.731-12.043c2.037-3.628,2.343-6.786,2.975-7.479C170.117,297.455,175.374,292.096,177.452,290.406
	 M63.523,204.78c-0.672,4.178-1.06,7.357-0.876,10.25c0.204,2.894-2.262,11.697-3.505,18.768
	c-1.223,7.051-2.954,15.629-3.729,21.049c0,0-0.897,3.037-3.22,5.421c-1.039,1.039-1.121,3.056-2.262,2.975
	c-1.121-0.061-2.996-0.408-3.668-1.611c-0.673-1.223-0.163-2.526-1.834-3.974c-1.671-1.466-4.157-18.4-0.265-27.142
	c1.956-4.382,4.177-14.305,4.34-16.627c0.163-2.323,3.586-12.533,4.28-13.144c0,0,1.854-5.522,6.765-4.849
	C64.48,196.589,64.196,200.643,63.523,204.78 M110.594,213.298c-0.958,3.525-1.895,7.049-2.832,10.554
	c-0.51,1.895-2.058,7.5-2.527,8.661c-0.468,1.182-1.121,2.282-1.569,3.464c-0.672,1.772-0.815,3.75-1.528,5.522
	c-0.51,1.264-1.305,2.425-1.895,3.688c-0.733,1.57-1.1,3.261-1.732,4.87c-0.632,1.611-1.529,3.118-2.445,4.586
	c-4.483,7.151-10.128,13.55-16.649,18.91c-0.265,0.224-0.489,0.428-0.835,0.326c-2.079,1.509-4.279,2.853-6.561,4.056
	c-0.917,0.489-1.895,0.978-2.935,1.08c-1.039,0.061-2.18-0.245-2.792-1.121c-0.509-0.714-0.55-1.691-0.53-2.588
	c0.163-11.574,4.523-22.64,6.296-34.091c1.345-8.722,1.202-17.627,2.772-26.307c0.326-1.752,0.713-3.505,1.446-5.115
	c0.611-1.303,1.447-2.526,2.038-3.831c1.019-2.322,1.325-5.033,0.713-7.479c-0.387-1.589-0.774-3.321-0.123-4.808
	c1.019-2.303,3.913-2.975,5.849-4.586c2.771-2.241,3.382-6.194,3.484-9.761c0.061-1.325,0.061-2.649,0.469-3.872
	c0.265-0.835,0.713-1.589,1.141-2.343c0.224-0.326,0.468-0.734,0.876-0.876c0.815-0.224,1.426,0.815,1.65,1.65
	c1.08,4.217,1.202,8.619,1.406,12.96c0.346,7.316,0.958,14.651,1.834,21.947c0.102,0.795,0.204,1.65,0.672,2.322
	c0.509,0.734,1.406,1.142,2.262,1.06c0.673-0.061,1.284-0.367,1.895-0.672c1.793-0.877,3.647-1.589,5.543-2.14
	c1.63-0.468,3.749-0.631,4.605,0.836C111.124,211.117,110.859,212.258,110.594,213.298 M109.352,168.243
	c-5.461,1.936-13.103-1.386-15.711-3.015c-2.629-1.672-3.321-2.894-3.505-4.239c-0.203-1.346-0.611-1.813-2.323-1.895
	c-1.733-0.041-5.319-0.489-5.563-4.89c-0.244-4.421-1.345-5.461-4.768-5.828c-3.423-0.326-2.506-2.506-8.212-5.012
	c0,0-2.853-1.468-2.67,7.173c0.204,8.64,0.713,11.289-1.997,14.019c-2.69,2.73-5.053,0.877-5.359-0.285
	c-0.306-1.203,0.081-42.569,1.304-46.135c0.815-2.363,2.69-2.954,5.584-3.097c2.894-0.143,8.416-0.428,10.27-1.121
	c1.854-0.693,5.176-0.612,8.395-0.897c3.26-0.286,9.108-1.936,11.187-4.545c2.058-2.628,5.929-4.076,7.845-4.278
	c1.936-0.184,3.811-0.123,4.972,4.157c1.162,4.259,0.754,11.778,2.547,17.504c1.793,5.705,3.464,13.917,3.24,19.786
	C114.384,151.494,114.812,166.308,109.352,168.243"/>
<path d="M715.742,146.463c-9.007-0.123-18.951-3.587-22.191-6.134c-3.219-2.526-6.541-2.526-8.579-4.014
	c-2.078-1.448-5.828-4.586-7.316-6.929c-1.467-2.364-4.463-2.058-5.991-2.241c-1.528-0.184-2.486-1.65-3.831-3.424
	c-1.345-1.752-0.53-3.688-1.467-5.461c-0.958-1.752-5.706-3.382-8.253-7.702c-2.547-4.341-2.547-3.301-5.176-5.563
	c-2.629-2.261-11.024-12.776-12.736-14.936c-1.712-2.18-7.336-11.309-8.865-14.08c-1.528-2.792-3.851-5.176-5.767-8.09
	c-1.895-2.914-3.281-6.888-3.953-10.352c-0.672-3.485-0.53-3.546-2.303-5.746c-1.772-2.201-5.767-2.384-8.416-2.486
	c-2.669-0.122-5.196-2.853-6.908-3.852c-1.732-0.978-3.872,0.958-3.872,0.958c-5.93,3.811-6.765,4.627-7.173,6.317
	c-0.408,1.691,2.017,6.684,2.262,8.559c0.224,1.894-2.629,7.253-4.972,9.924c-2.343,2.669-1.752,5.685-2.119,7.681
	c-0.367,1.978-3.444,6.073-4.687,7.806c-1.243,1.752-2.425,1.996-6.806,9.19c-4.34,7.234-9.72,10.065-10.636,13.591
	c-0.917,3.546-3.831,4.91-5.523,5.685c-1.691,0.795-4.951,3.75-7.763,4.382c-2.812,0.631-6.114,1.099-5.787-4.321
	c0.326-5.42,1.426-10.597,4.137-12.532c2.71-1.936,6.745-8.456,8.558-10.536c1.773-2.057,3.281-0.774,3.281-1.629
	c0-11.778-4.626-15.181-6.969-15.406c-2.343-0.244-4.687-3.24-5.359-4.666c-0.672-1.425-1.548-2.445-3.056-3.953
	c-1.487-1.507-4.544-2.792-6.154-3.831c-1.61-1.06-5.787-3.505-6.317-4.727c-0.509-1.244-3.648-2.67-6.093-2.099
	c-2.445,0.571-3.199,1.407-4.523,2.629c-1.325,1.223-1.773,5.175-4.279,5.318c-2.486,0.143-3.525,1.284-5.461,1.427
	c-1.916,0.142-10.474,0.632-14.04,0.713c-3.587,0.061-6.399-4.625-6.847-5.542c-0.448-0.897-1.284-1.081-1.67-1.854
	c-0.387-0.775-1.733-0.286-1.61,1.06c0.102,1.325-0.734,5.4-1.304,8.415c-0.55,2.996-4.708,6.745-5.706,11.106
	c-1.019,4.339-4.32,7.316-4.626,9.659c-0.326,2.363-0.285,6.826,1.997,8.252c5.094,3.159,3.077,3.546,6.643,7.01
	c3.566,3.444,2.078,8.253,1.895,12.329c-0.163,4.096,1.427,6.704,0.591,7.844c-0.795,1.142-0.856,8.661-0.856,8.661
	c-0.958,4.645-6.867,9.944-8.823,10.005c-3.179,0.082-7.255-8.66-8.803-11.798c-1.548-3.179-2.67-21.091-0.835-23.76
	c1.834-2.649,4.503-3.933,4.829-6.663c0.326-2.731-1.162-5.115-2.446-6.766c-1.304-1.589-1.997-2.893-2.894-5.298
	c-0.978-2.588-2.466-3.892-4.503-5.236c-2.017-1.366-3.607-2.955-5.217-5.094c-1.61-2.182-2.038-2.568-5.359-2.588
	c-3.321-0.021-4.442,2.689-4.85,4.319c-0.387,1.631-2.751,2.894-4.442,3.546c-1.691,0.632-4.402,2.547-5.726,2.139
	c-3.158-0.937-7.173-0.897-9.088-1.284c-1.936-0.408-4.361-2.343-5.91-3.586c-1.529-1.285-1.956-2.67-3.485-4.158
	c-1.548-1.507-1.936-1.466-3.036-1.466c-1.08,0.04-1.61-0.164-3.117-0.429c-1.508-0.285-0.734,1.305-0.591,2.547
	c0.143,1.244,1.468,2.099,2.323,2.609c0.876,0.509,1.589,2.221,2.221,4.055c0.611,1.813-0.571,4.178,1.997,5.257
	c2.568,1.08,2.934,3.505,3.321,5.216c0.387,1.691-2.262,4.321-2.445,5.889c-0.183,1.57,4.075,8.069,8.599,6.705
	c4.504-1.366,5.767,0.693,7.01,0.876c1.264,0.204,2.954-0.876,4.829-2.628c1.875-1.774,1.936-2.323,8.11-1.956
	c6.133,0.387,7.132,8.599,6.928,11.615c-0.163,2.995-5.441,3.627-7.52,3.994c-2.058,0.387-1.609-0.734-4.87-0.53
	c-3.281,0.163-4.014,1.609-7.214,0.469c-3.199-1.121-4.259-0.938-4.707-1.06s-0.062-2.058-0.673-1.019
	c-0.57,1.08-1.63,1.344-1.019,1.691c0.611,0.326,1.834,3.056,0.244,3.443c-1.63,0.388-0.856-0.856-3.016-0.733
	c-5.888,0.305-8.619-6.542-10.392-8.722c-1.793-2.18-1.671-4.259-2.405-6.5c-0.713-2.221-2.996-2.405-4.442-3.281
	c-1.447-0.897-3.444-6.623-3.321-8.681c0.101-2.057-2.731-8.456-3.464-9.883c-0.713-1.446-0.937-0.061-0.937-0.061
	c1.08,16.933-1.447,15.956-0.734,17.606c0.734,1.67,0.224,5.135-0.55,6.235c-0.774,1.121-0.835,1.611-0.652,4.015
	c0.142,2.384-1.406,6.052,0.04,7.784c1.447,1.711,3.403,3.505,3.994,7.62c0.632,4.096,0,5.563,2.954,9.68
	c2.954,4.096,0.958,3.933,2.18,5.379c1.223,1.446,0.938,9.679,1.325,12.349c0.387,2.669-0.489,5.053,0.713,3.158
	c1.223-1.894,3.913-2.017,4.178,4.504c0.285,6.501,2.506,22.456,2.567,30.77c0.041,8.273,1.895,10.881,1.997,15.772
	c0.101,4.89,1.325,12.614,1.385,17.361c0.061,4.708-4.952,15.222-6.012,18.931c-1.06,3.75-1.386,5.114-4.381,5.787
	c-2.996,0.693-8.844-9.598-12.165-13.836c-3.342-4.217-5.787-11.288-7.071-14.61c-1.284-3.342-0.835-5.604-2.894-9.353
	c-2.058-3.729-1.752-7.6-1.427-10.026c0.346-2.445-1.488-3.729-3.647-3.363c-2.18,0.347-8.008,0.184-8.008,0.184
	c-6.296-0.163-7.051-2.445-7.234-4.137c-0.183-1.691,1.59-4.788,2.262-7.132c0.652-2.344-0.469-8.273,1.589-12.614
	c2.078-4.321,2.18-16.464,2.364-22.293c0.183-5.828-0.326-16.792-0.285-21.498c0.04-4.708,0.183-5.91,1.446-8.946
	c1.284-3.077,0.53-8.252,0.673-11.594c0.142-3.322,1.263-6.093,3.056-11.839c1.773-5.747,2.629-9.823,2.771-14.855
	c0.143-5.033,3.118-11.106,4.259-12.716c1.121-1.589,1.1-2.119,2.038-3.709c0.937-1.589,2.282-1.854,2.771-2.628
	c1.508-2.344,3.098-2.588,3.811-3.546c0.713-0.918,1.63-0.653,0.591-1.468c-2.67-2.139-5.033-3.016-8.395-3.627
	c-0.51-0.082-1.019-0.163-1.468-0.388c-0.937-0.489-1.569-1.527-2.588-1.731c-0.489-0.102-0.999,0.02-1.487,0
	c-0.734-0.041-1.427-0.388-1.895-0.938c-0.061-0.061-0.102-0.122-0.102-0.204c-0.02-0.081,0.041-0.163,0.102-0.204
	c0.693-0.856,1.733-1.405,2.812-1.487c0.387-0.04,0.795-0.02,1.162-0.142c0.387-0.123,0.713-0.49,0.652-0.897
	c-0.041-0.163-0.143-0.306-0.265-0.449c-0.571-0.672-1.447-1.019-2.282-1.303c-3.118-1.081-6.093-1.936-8.844-3.729
	c-4.238-2.792-5.379-5.278-6.643-5.686c-1.284-0.428-2.466,0.102-4.952-1.446c-2.466-1.548-7.112-2.078-10.127-1.935
	c-3.016,0.142-6.5-4.851-7.153-5.543c-0.672-0.713-3.016-2.649-2.649-0.163c1.345,8.885,1.936,8.314,2.405,13.387
	c0.469,5.074,4.239,30.566,5.074,34.826c0.856,4.217,1.569,31.259,2.119,33.153c0.57,1.854,1.691,8.844,0.672,20.316
	c-1.039,11.472-0.611,22.151-0.509,26.266c0.081,4.076-1.182,19.033-2.69,23.658c-1.508,4.584-2.445,12.94-2.833,15.14
	c-0.367,2.201-1.834,3.567-2.445,7.112c-0.611,3.505-2.833,5.869-2.812,8.131c0,1.874-0.937,1.589-0.754,3.444
	c0.571,5.42-1.528,8.089-1.671,8.68c-0.122,0.571-2.078,2.384-2.629,2.466c-0.55,0.101-0.285-0.653-1.609-0.755
	c-0.774-0.04-2.751-3.525-2.609-2.322c0.123,1.223-1.325,6.602-3.077,9.944c-1.732,3.342-11.554,13.266-13.917,15.935
	c-2.343,2.69-5.93,8.518-9.21,12.206c-3.301,3.648-4.443,3.24-8.375,5.624c-3.953,2.405-4.809,3.383-7.865,4.28
	c-3.057,0.897-5.645,1.895-8.314,2.649c-2.69,0.754-6.5,3.831-8.191,4.096c-1.691,0.224-3.342-1.141-3.301-3.199
	c0.061-2.099,0.346-6.827-0.652-9.333c-0.978-2.486-3.994-3.464-3.953-8.599c0.04-5.135,4.809-7.01,8.477-6.827
	c3.668,0.204,12.328,1.895,14.957-0.244c2.629-2.099,4.523-3.567,5.746-3.628c1.203-0.041,4.32,1.997,4.829-3.321
	c1.427-14.55,4.198-23.617,5.278-25.513c1.08-1.854,0.673-3.893,1.895-6.297c1.202-2.384,0.265-3.811-1.895-2.669
	c-5.237,2.73-8.946,2.955-11.33,3.097c-2.425,0.143-9.659,5.033-13.51,5.869c-3.851,0.856-8.293,0.795-9.414-1.366
	c-1.141-2.139-1.446-7.234-0.897-11.9c0.571-4.647,1.284-5.767,4.137-9.537c2.874-3.75,5.828-5.787,6.929-7.132
	c1.08-1.386-0.53-3.138-2.547-3.689c-2.018-0.571-2.262-0.509-6.256-2.628c-3.994-2.119-6.012-4.382-7.479-3.913
	c-1.447,0.469-4.341,2.445-6.867-0.897c-2.547-3.322-3.851-3.158-6.969-6.011c-3.117-2.873-9.312-3.689-9.312-3.689
	c-4.421,0.53-5.033-1.833-0.652-5.318c6.052-4.809,9.169-8.884,11.105-11.268c1.936-2.405,4.647-5.278,6.378-5.033
	c1.752,0.224,2.792,2.384,5.318,6.297c2.547,3.912,8.233,8.354,10.209,9.781c1.997,1.405,6.969,5.033,9.089,9.598
	c2.119,4.564,5.176,7.151,6.867,9.353c1.691,2.221,2.833,2.221,3.953,4.178c1.141,1.996,2.67,2.791,5.645,2.975
	c2.954,0.204,6.358-1.834,6.908-4.076c0.591-2.282,2.221-4.443,2.874-6.236c0.672-1.772-1.223-3.015-1.733-2.608
	c-0.509,0.449-2.669,1.997-3.178-0.591c-0.51-2.608,2.567-1.711,2.771-1.67c0.225,0.04,0,1.06,1.671-0.225
	c1.65-1.262,2.568-4.4,4.178-5.399c6.683-4.178,11.656-10.556,12.45-13.368c0.774-2.812,0.632-4.688,2.894-6.113
	c2.241-1.407,5.216-3.322,6.215-4.504c0.978-1.203,2.914-3.566,3.729-4.158c0.815-0.611,0.244-0.55,0.244-0.55
	c-3.464,2.2-7.581,2.69-11.758,4.035c-4.137,1.344-22.15,1.507-27.897-0.611c-5.767-2.099-8.293-3.302-12.348-5.849
	c-4.055-2.547-5.155-2.547-8.334-5.848c-3.158-3.321-2.996-2.547-2.71-7.071c0.285-4.504,4.3-5.848,5.481-9.435
	c1.141-3.525,3.729-7.173,3.729-7.173c1.304-1.244,1.732-4.749,1.06-5.216c-1.589-1.183-0.224-1.956-0.224-1.956
	c-0.102-1.834,0.306-4.056,3.485-7.947c5.298-6.48,7.723-7.865,9.699-9.842c1.977-1.956,1.65-6.073,4.707-4.708
	c3.056,1.366,5.502,2.261,6.582,1.223c1.08-1.019,1.793-1.325,4.89-3.24c3.098-1.936,3.158-3.383,3.056-4.992
	c-0.081-1.589-4.279-6.113-5.278-7.765c-0.958-1.65-0.122-6.52-3.138-7.946c-3.016-1.407-6.439-3.913-7.967-5.115
	c-1.487-1.242-3.464-5.073-6.765-4.951c-3.281,0.143-2.119-0.978-6.216-1.121c-4.075-0.143-3.708,0.408-5.216,1.548
	c-1.487,1.121-1.08,1.733-2.343,3.852c-1.284,2.119-3.913,1.833-3.913,1.833c-11.656-0.244-17.504,2.017-28.549,0.836
	c-3.586-0.367-5.318-0.489-6.358,0.713c-1.019,1.223-3.81,0.632-3.81,0.632c-6.398-4.076-13.021-3.219-15.262-3.729
	c-2.262-0.51-2.282-0.999-5.196-2.119c-2.914-1.121-5.604-1.08-6.398,0.061c-0.815,1.121,0.326,2.792,2.996,6.052
	c2.69,3.261,3.158,2.873,5.42,6.113c2.262,3.24,10.393,9.558,12.41,11.106c2.037,1.548,1.426,2.873,4.523,2.261
	c3.098-0.611,3.994-2.017,10.454-3.464c6.439-1.487,12.736-0.53,16.322,0.204c3.566,0.754,2.303,3.118,4.422,2.893
	c2.119-0.244,3.729-1.019,5.278-0.856c1.874,0.204,1.691,1.793,3.382,2.486c1.691,0.714,1.162,1.854,0.509,3.994
	c-0.652,2.18-4.055,7.683-6.215,11.208c-2.16,3.525-5.298,11.003-6.031,12.573c-0.734,1.568-2.608,5.297-4.992,5.175
	s-2.975-4.686-3.505-7.132c-0.53-2.466-3.688-4.015-5.563-5.42c-1.875-1.427-2.425-2.466-4.462-3.934
	c-2.038-1.466-4.483-1.16-4.483-1.16c-12.797,1.915-21.58,0.326-21.58,0.326c-0.815-0.041-1.589-0.204-2.343-0.49
	c-0.265-0.081-0.57-0.203-0.835-0.142c-0.306,0.041-0.55,0.244-0.775,0.428c-0.468,0.387-0.978,0.836-1.059,1.427
	c-0.021,0.346,0.061,0.672,0.163,0.999c0.693,2.445,1.08,4.971,1.141,7.498c0.02,0.713,0.02,1.427,0.102,2.16
	c0.224,1.65,0.998,3.219,2.16,4.38c0.326,0.347,1.895,1.589,2.405,1.733c0.265,0.081,0.55,0.102,0.835,0.102
	c0.774-0.021,1.569-0.102,2.323-0.265c1.161-0.286,2.262-0.755,3.423-0.999c1.161-0.245,2.445-0.265,3.484,0.346
	c0.734,0.469,1.284,1.183,1.691,1.978c0.407,0.774,0.693,1.609,1.08,2.384c0.53,1.099,1.406,1.935,1.997,2.995
	c1.344,2.262,2.608,4.584,3.81,6.949c1.203,2.343,2.364,4.931,1.814,7.498c-0.346,1.691-1.427,3.138-2.079,4.749
	c-0.346,0.835-0.591,1.711-0.958,2.547c-0.407,0.876-0.937,1.65-1.488,2.424c-2.201,3.057-4.666,5.889-7.417,8.477
	c-0.713,0.673-1.488,1.386-2.405,1.793s-1.854,0.346-2.853,0.122c-3.79-0.774-6.969-3.484-10.759-4.217
	c-1.548-0.326-3.199-0.265-4.748,0.142c-0.489,0.123-0.958,0.265-1.365,0.571c-0.51,0.408-0.856,0.999-1.345,1.427
	c-0.978,0.836-2.608,0.897-3.484-0.061c-0.611-0.632-0.754-1.57-0.734-2.466c0.04-1.242,0.407-2.465,0.57-3.688
	c0.164-1.08,0.164-2.139,0.164-3.22c0.02-4.319-0.041-8.517-0.021-12.838c1.039-14.325,2.69-28.588,4.931-42.751
	c0.305-1.936,0.631-3.852,1.019-5.767c0.652-3.26,2.058-6.358,2.71-9.598c0.204-0.978,0.387-1.956,0.55-2.914
	c0.081-0.469,0.142-0.917,0.142-1.405c0.021-0.795-0.183-1.589-0.57-2.282c-0.163-0.326-0.367-0.612-0.632-0.856
	c-0.367-0.306-0.815-0.49-1.243-0.632c-1.365-0.449-2.833-0.612-4.239-0.958c-0.652-0.184-1.284-0.408-1.956-0.571
	c-0.571-0.102-1.141-0.163-1.712-0.224c-0.897-0.123-1.793-0.286-2.71-0.326c-2.058-0.102-4.279-1.57-5.38-2.996
	c-0.856-1.14-1.609-2.302-2.384-3.444c-1.284-1.915-2.547-3.831-3.505-5.889c-0.591-1.284-1.06-2.587-1.691-3.851
	c-0.713-1.346-1.589-2.608-2.507-3.831c-3.342-4.566-6.908-8.966-9.883-13.756c-0.55-0.897-1.08-1.833-1.916-2.465
	c-0.815-0.652-1.997-0.979-2.913-0.51c-0.265,0.123-0.469,0.326-0.591,0.571c-0.122,0.285-0.061,0.612,0,0.938
	c0.265,1.405,0.53,2.812,0.795,4.259c0.571,2.995,1.141,6.011,1.814,9.027c0.244,1.08,0.53,2.18,0.856,3.26
	c0.469,1.427,1.08,2.812,1.406,4.28c0.611,2.934,0.163,6.093,1.325,8.844c2.262,5.236,9.699,43.424,8.783,49.964
	c-0.917,6.521-1.202,36.048-1.121,38.33c0.081,2.241-0.346,2.506,1.874,5.032c2.242,2.547,1.203,4.666-1.121,4.627
	c-2.364-0.021-2.935-0.551-3.811-1.02c-0.896-0.448-6.5-1.955-8.151-1.874c-1.63,0.102-4.686-0.897-6.561-2.323
	c-1.834-1.427-2.058-0.774-4.89-2.159c-2.812-1.407-3.098,1.976-2.181,3.015c0.917,1.06,1.264,5.991,1.203,9.313
	c-0.081,3.322,0.917,3.403,1.121,8.212c0.204,4.788,0.509,4.361,1.06,6.847c0.57,2.465,0.407,20.499-0.774,30.545
	c-1.162,10.026-12.043,22.028-13.734,23.74c-1.711,1.691-0.876,2.037,1.345,1.996c2.241-0.061,5.42-0.509,7.6-2.322
	c2.18-1.774,1.915-1.509,3.974-2.751c2.038-1.203,4.585-2.568,7.316-5.053c2.771-2.486,2.669-3.648,3.117-6.114
	c0.428-2.445,0.693-0.57,0.958-3.607c0.265-3.077,0.876-5.196,3.485-10.697c2.608-5.502,6.5-12.308,7.56-14.651
	c1.039-2.364,0.978-6.215,1.65-7.255c0.652-1.06,0.733-1.182,0.815-2.812c0.102-1.609,0.795-3.424,2.058-3.403
	c1.264,0.061,1.406,4.319,1.264,7.581c-0.123,3.219-1.691,3.077-3.057,5.481c-1.344,2.404-1.997,2.364-1.834,4.89
	c0.183,2.527-0.733,11.88-0.448,14.712c0.285,2.833,0.836,2.731,1.793,4.892c0.937,2.18,1.019,16.933,1.488,23.148
	c0.489,6.215-0.469,32.379-0.489,35.578c-0.041,3.22-1.305,9.394-1.203,12.125c0.102,2.73-1.65,8.721-1.834,9.822
	c-0.183,1.101-1.834,2.71-1.528,2.812c1.223,0.306,1.772,1.691,2.201,3.464c0.448,1.793,0.224,2.282-0.856,3.994
	c-1.08,1.733-0.856,6.99-2.017,11.86c-1.162,4.849-2.139,17.259-2.629,18.747c-0.509,1.487-0.937,4.545-0.937,4.545
	c-1.101,5.298-7.03,13.652-5.828,16.974c1.203,3.321,6.154,6.908,7.153,9.761c0.998,2.852,2.771,3.586,3.974,4.645
	c1.202,1.06,3.525,2.853,5.074,3.24c1.569,0.387,3.709,0.571,7.03,3.505c3.321,2.914,5.665,3.098,6.582,2.649
	c0.917-0.469,0.917-1.833,1.671-4.89c0.733-3.036-0.632-5.726-1.549-7.438c-0.917-1.733-0.57-5.441-0.407-6.256
	c0.183-0.795,0.632,0.163,0.978-0.224c0.346-0.408-1.366-2.242-1.202-2.751c1.854-5.583,0.57-28.609,1.548-32.848
	c0.978-4.259-0.448-8.253,1.936-9.945c2.425-1.67,5.237,4.362,5.808,6.093c0.57,1.713-0.183,2.343,1.202,4.28
	c1.386,1.956,3.199,3.444,3.321,6.276c0.123,2.812,1.101,10.575,1.733,12.899c0.631,2.282,2.69,3.383,0.203,5.502
	c-2.445,2.119-1.813,5.094-2.731,6.928c-0.917,1.854-0.693,2.711,0.062,3.281c0.733,0.571,0.856,2.242,2.18,1.385
	c1.304-0.876,6.174-2.2,9.964-3.24c3.79-0.997,3.22-1.996,4.239-3.321c1.039-1.305,4.198-1.65,4.952,0.652
	c0.733,2.282-0.591,3.322,0.672,4.178c1.264,0.856,1.671,0.407,3.199,1.833c1.569,1.448,2.037,1.997,3.178,1.65
	c1.141-0.326,2.976-2.282,4.565-3.382c1.609-1.081,0.244-0.755,2.934-2.975c2.69-2.242,2.812-0.979,8.09,0.407
	c5.278,1.386,7.683,0.571,11.411,0.163c3.729-0.387,12.328,0.897,12.328,0.897c0.937,0.286,1.915,0.408,2.894,0.367
	c0.489,0,0.998-0.041,1.487,0.061c1.263,0.306,2.099,1.65,3.382,1.854c0.938,0.143,1.834-0.367,2.731-0.734
	c1.345-0.591,2.812-0.876,4.157-1.487c1.345-0.591,2.608-1.589,3.036-2.995c0.183-0.652,0.163-1.325,0.163-2.017
	c-0.04-2.751,0.326-5.522-0.04-8.253c-0.123-0.937,0.856-1.589,1.589-2.241c1.508-1.325,2.16-3.403,2.894-5.277
	c1.936-4.972,4.931-9.517,8.742-13.246c1.752-1.731,3.729-3.342,4.687-5.583c0.407-0.958,0.632-1.997,1.141-2.894
	c0.509-0.856,1.284-1.548,1.834-2.384c0.55-0.856,0.856-1.853,1.162-2.812c1.446-4.421,3.179-8.823,5.848-12.654
	c0.55-0.795,1.141-1.57,1.529-2.425c0.346-0.774,0.53-1.609,0.795-2.404c0.713-2.017,2.221-3.546,3.831-4.931
	c5.217-4.523,5.563-6.928,9.944-13.205c4.381-6.276,3.525-9.108,7.702-17.422c4.157-8.334,5.706-17.443,7.255-19.216
	c1.569-1.733,7.417-16.16,8.966-19.033c1.569-2.914,3.117-3.892,4.809-2.975c1.691,0.917,1.548,4.035,2.384,5.93
	c0.856,1.895,2.262,2.058,2.547,4.666c0.285,2.608,4.462,13.184,5.502,14.794c1.06,1.65,2.69,1.364,3.321,2.75
	c0.632,1.448,0.428,5.665,1.345,12.94c0.917,7.255,3.179,13.754,3.749,16.649c0.55,2.893,3.301,18.054,3.668,20.459
	c0.346,2.404-0.51,3.24,1.895,4.808c2.405,1.548,2.547,2.751,4.442,4.096c1.916,1.325,1.773,2.751,1.61,4.3
	c-0.122,1.55,0.163,3.648,0.713,6.419c0.57,2.751,4.035,2.323,4.462,5.013c0.428,2.689-0.774,4.361-0.774,4.361
	c3.586,4.545,10.841,20.092,12.43,21.05c0.897,0.57,1.57,0.224,2.609,0.407c1.263,0.184,2.384,0.795,3.464,1.468
	c0.917,0.571,1.875,1.305,2.099,2.343c0.326,1.548-1.06,2.914-1.242,4.462c-0.183,1.752,1.304,3.363,3.036,3.729
	c1.712,0.347,3.505-0.326,4.911-1.364c1.487-1.101,2.629-2.588,3.709-4.096c0.448-0.653,0.917-1.325,1.487-1.895
	c0.509-0.489,1.141-0.897,1.752-1.284c1.1-0.714,2.201-1.407,3.281-2.14c0.244-0.142,0.489-0.305,0.672-0.53
	c0.183-0.265,0.244-0.57,0.285-0.897c0.081-0.917-0.123-1.853,0.061-2.771c0.163-0.917,0.958-1.813,1.875-1.629
	c0.856,0.224,1.223,1.284,1.997,1.67c0.856,0.469,1.895-0.02,2.751-0.448c2.853-1.468,6.031-2.649,9.048-3.73
	c2.119-0.734,3.912-2.18,6.541-3.382c2.649-1.162,6.398-1.835,7.723-2.201c1.325-0.387,1.793-1.691,2.996-3.627
	c1.243-1.936,4.768-3.566,7.397-3.811c2.629-0.224,2.221-0.428,2.364-1.121c0.142-0.693,1.264-1.284,2.201-1.244
	c0.937,0.062,1.834,1.65,4.096,0.245c2.262-1.407,6.786-2.241,7.112-2.832c1.08-1.854-2.221-2.71-6.785-2.67
	c-4.564,0.061-10.434-0.876-16.241-2.567c-5.767-1.691-7.947-3.403-11.33-2.792c-3.382,0.612-6.541,0.469-8.416-0.081
	c-1.874-0.571-4.32-0.714-5.461-0.428c-1.121,0.265-1.548-1.04-1.507-2.078c0.061-1.04,4.442-2.69,2.547-3.016
	c-1.875-0.326-1.549-0.856-3.24-1.223c-1.691-0.388-2.792-0.693-6.256-1.936c-3.444-1.201-9.842-6.48-13.184-10.861
	c-3.342-4.38-6.623-6.582-8.926-8.802c-2.323-2.201-9.088-12.003-4.911-13.633c4.198-1.65,10.067,1.691,12.003,5.114
	c1.915,3.444,10.983,13.246,13.775,13.45c2.792,0.183,4.625,1.344,1.997-5.645c-2.649-6.969-5.665-25.105-4.931-30.403
	c0.713-5.298-0.489-14.182-1.446-19.236c-0.978-5.053-1.203-23.943-2.282-30.668c-1.08-6.725-1.304-30.26-1.61-34.01
	c-0.285-3.77,0.836-4.788,2.038-5.033c1.182-0.265,4.32-0.102,6.358,1.874c2.037,1.978,2.302,2.08,4.177,1.203
	c1.875-0.897,3.301-5.114,6.052-4.686c2.772,0.407,2.996,1.711,3.668,4.014c0.673,2.282,0.713,9.496,5.584,9.435
	c4.85-0.061,4.788-6.093,5.889-7.255c1.1-1.141,3.015-3.24,4.748-5.685c1.711-2.465,3.505-5.787,6.255-6.011
	c2.772-0.204,2.609,1.468,4.707,2.262c2.078,0.774,5.013,0.978,9.333,6.521c4.34,5.522,5.074,5.338,6.948,5.216
	c1.875-0.102,4.341-1.874,4.85-5.583c0.53-3.709,1.304-6.623,4.666-7.52c3.321-0.897,7.03-1.895,8.864-2.506
	c1.814-0.612,5.319-1.713,7.723,0.937c2.405,2.67,1.773,13.958,2.18,28.223c0.428,14.244,1.834,16.364,2.405,23.128
	c0.571,6.766,1.691,52.37,0.142,61.254c-1.548,8.905-1.548,16.811-2.547,23.597c-0.978,6.766-0.305,22.904-0.04,28.711
	c0.265,5.787,1.284,7.988,7.581,7.926c6.276-0.04,5.481-1.262,9.659-6.602c4.666-5.909,5.848-0.224,9.394,1.446
	c3.545,1.672,2.425,1.183,7.539,5.971c5.094,4.788,4.34,10.189,7.498,11.492c3.179,1.285,2.242,2.262,3.179,3.179
	c0.958,0.897,0.367-0.367,0.632,1.55c0.285,1.935,1.223,4.013,2.812,6.602c1.569,2.588,3.892,2.527,7.621,1.182
	c3.688-1.325,4.015-5.726,4.055-7.132c0.041-1.427,1.223-1.427,3.749-0.367c2.527,1.08,4.422,0.673,6.827-0.754
	c2.404-1.407,18.747-9.374,28.365-13.144c9.638-3.729,15.65-6.072,20.968-9.394c5.339-3.322,11.432-4.361,14.753-5.012
	c3.321-0.612,4.463-0.877,6.684,6.276c2.201,7.153,3.179,5.298,4.89,9.516c1.691,4.239,2.914,3.036,3.913,8.212
	c0.978,5.175,2.119,6.704,3.138,8.721c1.039,2.017,0.407,3.954,4.788,0.673c4.382-3.281,4.565-7.581,5.278-11.33
	c0.713-3.749,0.713-5.175,3.546-8.374c2.853-3.179,3.994-5.359,5.38-7.806c1.385-2.445,1.854-2.485,4.381-4.115
	c2.527-1.609,3.749-2.751,2.995-5.033c-0.754-2.302-4.462-7.906-8.232-9.027c-3.811-1.162-4.443-1.915-5.461-4.951
	c-1.019-3.037-2.894-1.509-9.679-11.493c-6.786-9.965-8.518-12.369-11.391-14.08c-2.894-1.691-4.789-7.641-6.358-10.658
	c-1.569-2.996-1.223-2.201-4.3-3.892c-3.077-1.713-5.848-0.795-7.662-1.244c-1.813-0.428-4.055-4.055-6.276-4.523
	c-2.221-0.489-3.79-1.509-5.4-2.568c-1.61-1.058-5.013-4.421-5.441-2.771c-0.448,1.672,1.345,4.931,2.038,6.46
	c0.713,1.57,0.489,3.525,1.752,5.379s3.098,4.768,3.892,7.072c0.795,2.282,2.139,3.831,5.685,8.456
	c3.545,4.584,8.436,17.585,7.743,21.07c-0.713,3.464-5.482,4.606-12.96,7.6c-7.438,2.996-10.617,0.836-17.749,3.607
	c-7.152,2.751-13.062,3.77-13.062,3.77c-1.834,0.367-3.199,0.632-5.013,0.958c-0.897,0.163-2.425,0.143-3.301-0.081
	c-0.876-0.224-1.712-0.938-1.773-1.835c-0.041-0.693,0.367-1.303,0.734-1.894c3.056-5.176,3.036-11.554,4.666-17.341
	c1.386-4.89,3.974-9.374,5.339-14.284c1.344-4.892,1.446-10.169,3.505-14.815c0.978-2.18,2.343-4.176,3.321-6.357
	c2.282-5.135,3.974-10.658,5.033-16.18c0.591-3.159,4.544-9.496,6.765-11.921c2.201-2.404,1.528-1.325,3.81-5.359
	c2.303-4.015,4.748-4.829,6.256-6.154c1.487-1.325,4.87-3.729,0.999-5.767c-3.852-1.996-6.276-3.586-6.949-6.684
	c-0.693-3.097-6.684-7.926-11.411-11.105c-4.708-3.179-6.888-6.011-7.56-8.762c-0.693-2.792-1.06-2.914-3.098-6.46
	c-2.058-3.545-3.464-5.542-4.198-6.643c-0.713-1.101-1.019-2.506-1.61-3.383c-1.182-1.711-0.285-1.69-1.141-2.363
	c-0.835-0.693-3.077-1.65-1.956-0.163c1.121,1.488,0.245,2.567,0.408,3.586c0.163,0.999,0.265,1.468,1.019,2.384
	c0.754,0.897,0.306,8.803,0.081,10.74c-0.244,1.956,0.224,4.666,1.508,6.684c1.264,2.037,0.204,15.894,1.039,21.07
	c0.836,5.175-0.611,7.457-1.427,9.251c-0.815,1.813-0.224,7.214-1.202,9.476c-0.978,2.261-1.141,10.289-2.099,12.104
	c-0.978,1.792-1.427,6.011-0.326,6.317c1.141,0.285,4.218,5.644,0.468,7.438c-3.77,1.813-4.055,4.606-4.137,8.069
	c-0.081,3.444-2.037,16.77-3.382,21.946c-1.365,5.196-5.339,9.17-5.645,13.165c-0.305,3.972,0.387,12.104-7.682,14.753
	c-8.029,2.628-10.291,3.607-14.183,4.951c-3.933,1.325-14.447,1.65-17.463,0.306c-3.016-1.366-4.137-3.852-1.732-6.562
	c2.404-2.69,7.071-9.476,7.906-12.634c0.815-3.159-3.851-10.006-4.524-19.012c-0.672-9.048-1.121-34.071-2.323-37.903
	c-3.913-12.471-1.875-26.184-2.568-39.939c-0.672-13.754-3.831-11.88-3.913-17.076c-0.061-5.176-0.305-8.497-0.672-10.738
	c-0.367-2.262-0.305-17.239,0-20.235c0.306-3.016,0.672-4.259,0.489-8.68c-0.183-4.423-1.916-3.709-1.936-6.052
	c-0.021-2.323-0.571-2.608-0.775-4.117c-0.183-1.487,0.164-5.033,3.057-5.807c2.873-0.755,4.523,1.08,6.745,1.833
	c2.241,0.775,4.727,0.958,7.845,2.119c3.118,1.182,2.181,1.874,3.464,3.831c1.304,1.936,2.527,2.935,5.482,2.996
	c2.934,0.061,3.77,2.139,5.543,4.178c1.752,2.057,6.704,3.647,8.049,1.996c1.365-1.631,3.647-3.097,5.828-6.052
	c2.18-2.934,1.997-6.827,2.588-12.022c0.611-5.176,2.954-13.042,5.767-15.569c2.833-2.547,3.648-3.077,4.483-6.684
	c0.815-3.566,3.464-8.986,4.463-11.35c0.998-2.343,2.486-6.174,5.481-4.157c2.995,1.976,7.295,9.353,11.187,14.814
	c3.892,5.481,3.953,11.411,8.171,15.12c4.238,3.709,13.021,24.657,16.485,29.628c3.484,4.931,3.179,9.456,4.462,13.409
	c1.304,3.933,1.773,5.237,5.726,8.762c3.953,3.546,5.828,8.253,8.477,11.676c2.648,3.403,4.462,3.994,6.602,4.117
	c2.099,0.102,3.281,0.876,4.993,1.589c1.711,0.693,1.813,3.994,3.24,3.342c1.406-0.653,2.996-0.714,4.483-1.284
	c1.446-0.612,1.507-1.02,2.527-2.364c0.978-1.344,1.936-1.06,3.688-6.113c1.773-5.053,3.077-2.955,5.359-4.545
	c4.523-3.118,6.602-8.701,7.539-10.067c0.937-1.364,2.364-0.631,3.118-3.117c0.754-2.466,4.646-4.117,5.706-4.829
	C716.801,151.231,724.769,146.565,715.742,146.463 M373.913,67.97c-0.061-0.123-0.02-0.286-0.061-0.428
	c-0.021-0.082-0.081-0.164-0.061-0.265c0-0.062,0.02-0.102,0.04-0.143c0.062-0.204,0.021-0.387-0.021-0.55
	c-0.02-0.123-0.122-0.469-0.04-0.551c0.123,0.204,0.224,0.387,0.448,0.489c0.081,0.041,0.163,0.062,0.265,0.102
	c0.183,0.061,0.326,0.225,0.489,0.367c0.041,0.021,0.062,0.041,0.102,0.061c0.081,0,0.142-0.04,0.183-0.061l0.55-0.346
	c-0.102,0.142-0.225,0.326-0.346,0.509c0,0.021-0.041,0.061-0.041,0.082c0,0.102,0.123,0.163,0.183,0.224
	c0.102,0.102,0.041,0.306,0,0.469c-0.102,0.408-0.04,0.836-0.123,1.264c-0.081,0.346-0.244,0.693-0.387,1.019
	c-0.326,0.774-0.367,1.65-0.407,2.486c-0.123-0.673-0.51-1.284-0.51-1.978c-0.02-0.285,0.062-0.57-0.04-0.815
	c-0.041-0.122-0.102-0.245-0.183-0.326c-0.163-0.224-0.367-0.387-0.591-0.51c0.224-0.163,0.407-0.326,0.57-0.53
	c0.081-0.122,0.163-0.244,0.122-0.387C374.015,68.092,373.954,68.031,373.913,67.97 M205.781,161.644
	c2.241-0.938,4.625-1.509,7.03-1.65c0.631-0.021,1.263-0.041,1.874,0.102c0.795,0.163,1.549,0.57,2.201,1.099
	c0.917,0.714,1.65,1.672,2.507,2.466c2.894,2.71,7.254,3.872,9.251,7.275c0.571,0.958,0.938,2.058,1.834,2.71
	c0.164,0.591,0.978,0.836,1.529,0.571c0.591-0.286,0.958-0.836,1.345-1.346c0.896-1.08,2.384-1.996,3.688-1.466
	c0.713,0.285,1.202,0.958,1.548,1.65c1.019,1.935,1.284,4.178,1.712,6.337c0.652,3.383,1.752,6.684,3.26,9.782
	c0.591,1.182,1.223,2.363,1.406,3.668c0.082,0.55,0.082,1.162,0.164,1.731c0.061,0.49,0.183,0.999,0.305,1.468
	c0.469,2.18,0.672,4.382,0.652,6.582c-0.062,3.097,0.102,6.134,0.142,9.251c0.021,1.448,0.041,2.935-0.367,4.341
	c-0.407,1.427-1.284,2.731-2.629,3.322c-0.937,0.448-4.911,0.346-6.684,0.591c-1.691,0.245-5.155,0.958-6.806,0.469
	c-0.836-0.224-2.099-0.979-2.955-0.938c-1.915,0.102-2.527,0.326-4.279,0.449c-2.221,0.122-4.666-0.938-6.459-2.242
	c-0.489-0.346-0.958-0.754-1.223-1.284c-0.285-0.571-0.285-1.264-0.285-1.895c0-2.282-0.367-4.523-0.122-6.785
	c0.041-0.265,0.062-0.53,0.183-0.775c0.123-0.285,0.367-0.489,0.632-0.693c0.57-0.489,1.223-0.938,1.956-1.04
	c1.874-0.285,3.342,1.774,5.237,1.936c0.999,0.081,1.956-0.367,2.792-0.938c0.836-0.55,1.589-1.242,2.486-1.67
	c0.57-0.306,1.202-0.49,1.752-0.816c0.53-0.305,0.958-0.693,1.447-1.039c3.362-2.466,8.069-2.507,11.309-5.115
	c0.163-0.122,0.733-0.897,0.509-1.162c-0.224-0.285-0.611-0.346-0.958-0.387c-5.42-0.591-10.352-3.321-15.099-6.011
	c-1.203-0.673-2.405-1.344-3.464-2.201c-1.874-1.548-3.24-3.566-4.585-5.583c-1.691-2.588-4.157-4.727-5.176-7.661
	c-0.693-1.956-2.302-3.607-4.238-4.361c-0.571-0.204-1.162-0.367-1.733-0.612c-0.958-0.428-1.772-1.162-2.567-1.854
	c-1.019-0.917-2.119-2.017-1.997-3.403C203.05,163.09,204.457,162.193,205.781,161.644 M196.224,186.768
	c0.693-0.672,1.121-0.265,1.977-0.407c0.856-0.143,1.569,0.53,2.466,2.404c0.897,1.854,2.629,5.359,2.852,6.297
	c0.224,0.937,0.143,2.689,1.121,4.014c0.978,1.305,5.298,6.847,6.194,11.126c0.897,4.3-0.285,5.848-2.996,6.093
	c-2.69,0.265-4.137-2.058-4.768-3.485c-0.631-1.405-4.523-4.421-5.053-5.828c-0.509-1.364-1.467-1.67-1.936-3.464
	C195.592,201.705,192.474,190.355,196.224,186.768 M248.186,280.626c-0.346,6.623-1.06,10.087-3.321,17.422
	c-2.262,7.337-0.062,10.454-3.729,14.021c-3.688,3.627-10.942,2.689-10.942,2.689c-3.872,0.082-7.683-3.872-9.598-4.584
	c-1.915-0.714-8.62-4.788-9.537-5.91c-0.917-1.141-3.178-2.383-4.849-2.832c-1.712-0.408-2.14-0.55-3.199-2.18
	c-1.06-1.631-0.305-10.718-0.305-12.553c0-1.813-0.815-1.67-1.386-2.037c-0.57-0.387-2.894-1.65-3.28-5.237
	c-0.408-3.586,2.017-6.765,3.566-8.701c1.549-1.955,0.876-1.65,0.672-7.151c-0.183-5.522-2.69-13.958-1.242-20.52
	c1.446-6.582,1.976-18.503,2.506-22.293c0.53-3.689,3.158-1.609,3.933-0.387c0.775,1.182,4.239,5.114,5.359,6.887
	c1.121,1.774,1.203,3.668,2.323,10.087c1.141,6.44,2.751,4.953,2.629,7.765c-0.163,2.832,0.061,4.666,1.956,5.236
	c1.915,0.571,3.464,2.609,4.666,3.75c1.182,1.121,0.693,7.622,0.693,7.622s3.688,0.978,5.644-2.833
	c1.997-3.81,7.845-4.014,10.169-3.097c2.343,0.917,2.547,2.017,4.3,2.751c1.772,0.713,1.548,1.325,1.976,4.931
	s0.999,4.239,1.488,5.42C249.184,270.112,248.532,273.983,248.186,280.626 M315.105,306.567c-0.856,1.182,1.039,0.958-2.14,1.65
	c-3.158,0.693-7.519-0.163-9.924,0c-2.425,0.163-5.583,0.693-10.046,0.754c-4.463,0.061-11.554,0-15.487,0.917
	c-3.913,0.897-6.806-0.489-8.477-2.812c-1.65-2.282-2.465-10.289-2.2-14.161c0.285-3.852,0.305-5.461,1.569-6.99
	c1.223-1.509,2.241-3.811,6.643-2.69c4.402,1.142,3.342,2.262,5.747,2.69c2.425,0.428,6.948,3.933,9.027,4.239
	c2.099,0.326,10.637,4.259,12.797,4.3c2.14,0.061,5.155-1.162,5.685,2.221c0.53,3.382-0.101,2.669,2.099,4.767
	C312.598,303.551,315.981,305.364,315.105,306.567 M457.969,135.988c-0.203,1.733-0.896,3.363-1.711,4.892
	c-0.673,1.284-1.467,2.526-2.608,3.403c-0.591,0.448-1.223,0.774-1.875,1.06c-2.629,1.162-5.135,0.856-8.008,1.141
	c-0.611,0.041-1.223,0.122-1.813,0.184c-1.121,0.102-2.242,0.224-3.362,0.102c-0.958-0.102-1.915-0.367-2.853-0.673
	c-0.428-0.122-0.856-0.265-1.242-0.449c-1.284-0.754-1.854-2.302-1.997-3.77c-0.142-1.325,0.021-2.628,0.183-3.912
	c0.224-1.448,0.469-2.853,0.713-4.28c0.143-0.775,0.285-1.609,0.876-2.099c0.611-0.509,1.631-0.489,2.242,0.041
	c1.161,1.101,2.996,0.041,4.34-0.795c1.366-0.856,2.547-1.996,4.015-2.608c2.302-1.019,5.012-0.591,7.417,0.163
	c1.671,0.51,3.362,1.264,4.462,2.669C457.827,132.402,458.173,134.257,457.969,135.988 M528.149,125.393
	c-0.061,0.897-0.122,1.833-0.489,2.649c-0.509,1.182-1.61,2.037-2.833,2.486c-1.202,0.468-2.506,0.57-3.79,0.57
	c-0.672,0-1.344-0.02-2.038-0.163c-0.529-0.122-1.059-0.306-1.589-0.469c-2.792-0.876-5.747-1.284-8.661-1.182
	c-0.489,0-0.978,0.041-1.467,0c-1.548-0.102-3.403-0.897-4.483-2.037c-0.937-1.04-0.978-2.935-1.019-4.239
	c-0.041-0.612-0.041-1.284,0.305-1.793c0.224-0.285,0.55-0.51,0.672-0.876c0.081-0.184,0.081-0.408,0.123-0.632
	c0.102-0.571,0.53-1.081,1.019-1.407c1.305-0.938,2.996-1.121,4.585-1.101c0.632,0,1.284,0.021,1.895-0.203
	c0.958-0.367,1.589-1.305,2.445-1.917c0.937-0.652,2.119-0.856,3.24-0.774c1.141,0.081,2.241,0.428,3.321,0.774
	c0.326,0.123,0.672,0.245,1.019,0.265c1.447,0.143,2.711-1.16,4.178-1.16c0.999,0,1.895,0.611,2.445,1.425
	c0.571,0.836,0.815,1.815,0.978,2.792C528.373,120.705,528.271,123.05,528.149,125.393 M527.782,100.226
	c-0.632,1.081-1.366,2.038-2.547,2.405c-1.203,0.387-2.486,0.102-3.668,0.489c-0.917,0.285-2.18,0.836-3.097,1.06
	c-4.443,1.203-9.109-1.507-13.694-1.182c-1.182,0.081-2.364,0.081-3.403-0.51c-1.202-0.673-1.997-2.098-2.18-3.464
	c-0.346-2.608,0-5.38-0.142-8.028c-0.062-0.775-0.224-1.57-0.081-2.344c0.183-1.08,0.713-2.098,1.304-2.995
	c0.713-1.101,1.609-2.058,2.506-2.975c0.836-0.856,1.712-1.711,2.751-2.303c1.039-0.591,2.282-0.937,3.444-0.652
	c1.325,0.306,2.364,1.305,3.545,1.936c0.326,0.163,0.652,0.305,0.999,0.305c0.693,0,1.243-0.53,1.711-1.019
	c1.325-1.405,2.711-2.853,4.545-3.383c0.774-0.203,1.569-0.244,2.364-0.265c0.611,0,1.243,0,1.813,0.204
	c1.162,0.388,1.956,1.468,2.445,2.568c0.795,1.833,0.938,3.851,1.08,5.848c0.244,3.403,0.55,6.806,0.815,10.209
	C528.414,97.516,528.495,99.003,527.782,100.226"/>
<path d="M507.529,224.764c-0.122-4.076-0.897-20.275-0.428-22.049c0.448-1.772,0.836-1.976,0.285-2.689
	c-0.571-0.693,0.061-1.386,0.448-2.241c0.387-0.836,1.589-5.38,2.262-5.889c0.672-0.49,1.019-1.142,1.447-2.568
	c0.428-1.405,2.445-1.507,2.465-2.914c0.041-1.405,0.224-2.751-0.672-3.403c-0.876-0.611-1.446-0.387-1.793-0.836
	c-0.367-0.468,0.448-0.672-1.549-1.874c-2.017-1.203-2.262-2.262-2.996-2.425c-0.754-0.183-3.077-1.039-6.602-2.322
	c-3.545-1.325-3.301-3.016-6.154-4.749c-2.852-1.711-2.18-2.547-3.647-0.591c-1.487,1.935-1.895,0.836-5.135,5.216
	c-3.24,4.382-3.484,3.363-5.706,3.913c-2.506,0.632-3.912,2.058-5.053,2.139c-1.121,0.062-4.279,2.527-8.599,2.609
	c-2.201,0.04-4.035,0.958-2.833,1.955c1.202,1.02,0.958,2.017,2.69,2.568c1.732,0.591,1.507,1.364,4.34,0.591
	c2.812-0.775,1.691-1.244,5.074-1.284c3.403-0.041,4.585,0.244,6.521-0.286c1.956-0.53,3.892-1.488,6.358-0.04
	c2.466,1.466,5.359,6.174,3.525,7.763c-1.997,1.772-2.711,4.91-2.996,6.48c-0.428,2.241-3.403,4.096-13.918,2.73
	c-0.815-0.081-1.467-0.815-2.241-1.141c-0.204-0.102-0.428-0.204-0.652-0.245c-0.224-0.04-0.448-0.04-0.652-0.04
	c-1.019,0.02-2.058,0.02-3.076,0.04c-0.183,0-0.367,0-0.53-0.061c-0.183-0.061-0.326-0.183-0.448-0.285
	c-0.326-0.367-0.571-0.816-0.754-1.244c-0.203-0.428-0.407-0.856-0.489-1.325c-0.081-0.468-0.041-0.978,0.203-1.386
	c0.164-0.265,0.204-0.326,0.326-0.632c0.102-0.265,0.183-0.693,0.163-0.997c-0.041-0.51,0-1.468-0.081-1.978
	c-0.306-2.037-1.569-3.362-3.219-4.625c-0.306-0.244-0.652-0.489-0.917-0.754c-0.285-0.326-0.509-0.693-0.754-1.06
	c-0.367-0.489-0.815-0.938-1.284-1.366c-1.223-1.162-2.18-2.628-3.647-3.464c-1.345-0.775-2.609-1.752-3.525-3.016
	c-0.244-0.306-0.428-0.652-0.673-0.978c-0.244-0.367-0.55-0.734-0.815-1.101c-0.408-0.612-0.734-1.223-1.08-1.835
	c-0.632-1.16-1.284-2.302-1.915-3.484c-0.183-0.367-0.387-0.714-0.469-1.121c-0.061-0.286-0.04-0.592-0.081-0.897
	c-0.204-1.223-1.528-2.14-1.508-3.424c0-0.081,0-0.163-0.081-0.183c-0.061-0.021-0.102,0.02-0.142,0.081
	c-0.387,0.306-0.754,0.653-1.121,0.979c0.02,0.183,0.101,0.305,0.122,0.489c0.122,1.182-0.55,2.282-1.039,3.362
	c-0.632,1.407-0.937,2.935-1.264,4.462c-0.244,1.203-0.489,2.466-0.163,3.628c0.367,1.405,1.487,2.465,2.058,3.811
	c0.224,0.55,0.367,1.14,0.611,1.69c0.326,0.693,0.835,1.305,1.039,2.038c1.284,4.38,2.303,8.803,3.444,13.225
	c0.428,1.548,0.835,3.118,1.406,4.625c0.428,1.101,0.917,2.201,1.223,3.322c0.285,1.101,0.367,2.241,0.448,3.362
	c0.163,2.649,0.244,5.318-0.346,7.906c-0.346,1.529-0.876,2.975-1.631,4.361c-0.448,0.816-0.937,1.65-0.937,2.588
	c0.021,0.836,0.489,1.589,0.876,2.343c0.387,0.754,0.693,1.631,0.407,2.425c-0.081,0.326-0.305,0.611-0.509,0.876
	c-0.754,0.959-1.63,1.815-2.629,2.547c-0.326,0.265-0.693,0.51-0.876,0.897c-0.142,0.327-0.142,0.693-0.122,1.04
	c0,0.326,0.021,0.632,0.021,0.958c0.021,0.224,0.021,0.428,0.122,0.632c0.142,0.224,0.387,0.367,0.591,0.489
	c1.223,0.652,2.792,1.284,3.933,2.038c0.55,0.366,1.08,0.713,1.549,1.201c0.468,0.489,0.835,1.081,1.161,1.672
	c1.488,2.526,2.711,5.236,3.627,7.987c0.387,1.203,1.06,2.364,1.406,3.566c0.408,1.387,1.427,3.669,1.691,3.669
	c0.244,0,0.53-2.527,1.039-3.791c0.244-0.55,0.489-1.121,0.836-1.65c0.917-1.427,2.832-2.465,4.177-3.525
	c1.529-1.162,2.099-2.914,3.26-4.464c1.162-1.548,2.934-3.077,4.748-3.77c0.937-0.346,1.936-0.468,2.934-0.591
	c0,0,10.026-0.713,11.024,1.854c0.999,2.568,2.751,4.015,3.668,5.033c0.937,1.019,1.875,4.219,2.425,6.969
	c0.55,2.731,1.671,3.852,2.445,4.035c0.754,0.184,2.75-2.73,5.033-5.277c2.303-2.527,1.875-3.587,3.322-5.114
	c1.446-1.509,1.976-3.342,4.096-3.485c2.119-0.143,2.323-0.122,3.24-0.489c0.917-0.408,1.854-2.282,2.323-3.383
	c0.509-1.142,0.856-2.343-0.734-4.319C513.866,236.297,507.631,228.86,507.529,224.764 M492.837,227.922
	c-0.836,1.509-1.773,3.098-3.057,4.26c-0.428,0.407-1.752,1.386-3.199,1.364c-1.671-0.02-4.443-0.081-5.176-0.122
	c-0.734-0.041-1.223-0.571-1.793-0.815c-1.61-0.612-3.321-0.917-5.074-0.917c-0.836,0-1.691,0.061-2.547,0
	c-0.856-0.062-1.732-0.306-2.384-0.836c-0.632-0.551-1.019-1.305-1.325-2.078c-0.652-1.631-1.06-3.363-1.223-5.115
	c-0.285-3.26,0.407-6.561,0.021-9.801c-0.163-1.509,1.182-2.976,2.669-2.914c1.773,0.061,2.975,1.813,4.606,2.465
	c0.897,0.387,1.895,0.408,2.852,0.408c3.627,0.061,7.275,0.102,10.922,0.163c1.121,0.02,2.405,0.102,3.118,0.978
	c0.754,0.877,0.611,2.18,0.795,3.301c0.285,1.631,1.344,3.057,1.691,4.688C494.1,224.642,493.673,226.434,492.837,227.922"/>
<path d="M597.519,3.295c3.28,3.179,6.602,6.399,8.904,10.353c1.101,1.915,1.956,3.953,2.996,5.909
	c1.977,3.709,4.564,7.092,7.051,10.473c5.237,7.092,10.127,14.448,14.61,22.069c1.61,2.669,3.158,5.42,4.157,8.395
	c0.387,1.203,0.693,2.486,1.406,3.546c0.734,1.081,1.956,1.915,3.24,1.733c0.734-0.102,1.406-0.571,1.773-1.223
	c1.182-2.038,3.403-3.138,5.706-3.607c2.303-0.469,4.707-0.469,6.888-1.305c2.201-0.815,4.238-2.832,4.055-5.155
	c-0.101-1.468-0.998-2.73-1.487-4.096c-0.407-1.142-0.509-2.425-0.305-3.607c0.183-1.284,0.734-2.486,0.815-3.79
	c0.081-1.529-0.51-2.976-0.713-4.484c-0.245-2.119,0.326-4.319,1.589-6.011c0.305-0.489,0.754-0.918,1.325-0.958
	c0.326-0.021,0.631,0.122,0.917,0.244c1.834,0.897,3.219,2.527,4.544,4.117c0.999,1.182,1.977,2.404,2.996,3.607
	c0.713,0.876,1.468,1.752,1.977,2.751c0.468,0.897,0.774,1.854,1.08,2.791c1.08,3.179,2.364,6.277,3.872,9.272
	c0.775,1.529,1.61,3.057,1.916,4.768c0.081,0.652,0.122,1.325,0.346,1.935c0.224,0.632,0.713,1.223,1.386,1.305
	c0,0,1.854,0.469,4.014,0.02c4.708-0.978,9.537-2.18,13.408-5.053c0.693-0.53,1.366-1.101,2.018-1.691
	c0.346-0.285,0.631-0.652,0.958-0.958c1.141-1.08,1.202-2.567,0.937-3.281c-0.244-0.693-0.795-1.242-1.284-1.792
	c-3.179-3.465-5.502-7.641-7.56-11.88c-3.2-6.603-5.91-13.47-9.904-19.604c-1.263-1.915-2.731-3.851-4.849-4.645
	c-1.305-0.489-2.731-0.53-4.096-0.551c-5.543-0.102-11.003-0.163-16.546-0.428c-1.06-0.061-2.099-0.102-3.158-0.163
	c-0.183,0.184-0.102,0.489,0.061,0.673c0.183,0.163,0.407,0.265,0.57,0.428c0.285,0.285,0.367,0.673,0.51,1.04
	c0.346,0.774,0.978,1.364,1.426,2.098c0.938,1.609,0.693,3.607,0.143,5.379c-0.224,0.775-0.509,1.529-0.999,2.181
	c-0.897,1.16-2.343,1.813-3.26,2.975c-0.407,0.489-0.733,1.06-1.141,1.568c-1.813,2.445-3.831,1.305-3.831,1.305
	c-0.958-0.388-1.671-1.264-2.282-2.119c-1.406-1.854-2.792-3.709-4.198-5.543c-2.772-3.688-5.543-7.377-7.968-11.288
	c-0.896-1.407-1.834-2.955-3.423-3.465c-0.917-0.285-1.915-0.163-2.873-0.142c-1.508,0-2.995-0.265-4.381-0.775
	c-0.917-0.326-1.752-0.754-2.67-1.039c-1.243-0.367-2.608-0.408-3.892-0.449c-9.394-0.326-19.379-5.44-19.603-5.114
	C594.462,0.341,597.519,3.295,597.519,3.295"/>
</svg>
