<?xml version="1.0" encoding="utf-8"?>
<!-- Generator: Adobe Illustrator 27.2.0, SVG Export Plug-In . SVG Version: 6.00 Build 0)  -->
<svg version="1.1" id="레이어_1" xmlns="http://www.w3.org/2000/svg" xmlns:xlink="http://www.w3.org/1999/xlink" x="0px"
	 y="0px" viewBox="0 0 163.351 130.791" enable-background="new 0 0 163.351 130.791" xml:space="preserve">
<path fill="#221717" d="M162.674,124.091l-38.07-60.107L85.363,2.029C84.563,0.766,83.171,0,81.676,0
	c-1.496,0-2.887,0.766-3.687,2.029L38.748,63.984l-38.07,60.107c-0.852,1.344-0.904,3.046-0.137,4.44s2.233,2.26,3.824,2.26h30.423
	H61.97h7.963h11.743h11.743h7.963h27.182h30.423c1.592,0,3.057-0.866,3.824-2.26C163.578,127.136,163.525,125.435,162.674,124.091z"
	/>
<g>
	<polygon fill="#F3D8A5" points="114.991,56.964 92.128,106.939 69.643,106.939 69.643,126.426 83.213,126.426 158.986,126.426 	"/>
	<polygon fill="#FEF9DB" points="71.223,106.939 48.361,56.964 4.365,126.426 80.138,126.426 93.709,126.426 93.709,106.939 	"/>
	<polygon fill="#F7C73B" points="101.133,109.563 120.916,66.32 81.676,4.365 81.676,109.563 	"/>
	<polygon fill="#FDF5BC" points="81.676,4.365 42.435,66.32 62.218,109.563 81.676,109.563 	"/>
	<polygon fill="#FDF0B3" points="81.676,4.365 34.788,126.426 128.564,126.426 	"/>
	<polygon fill="#FBE03E" points="102.579,58.781 81.676,4.365 60.772,58.781 50.829,84.667 50.837,84.684 67.303,67.577 
		81.676,86.935 96.049,67.577 112.515,84.684 112.523,84.667 	"/>
	<polygon fill="#AC9569" points="81.676,87.531 61.97,106.979 61.97,126.426 101.382,126.426 101.382,106.979 	"/>
	<polygon fill="#221717" points="81.676,87.531 60.741,128.851 102.61,128.851 	"/>
</g>
</svg>
