<?xml version="1.0" encoding="utf-8"?>
<!-- Generator: Adobe Illustrator 27.2.0, SVG Export Plug-In . SVG Version: 6.00 Build 0)  -->
<svg version="1.1" id="레이어_1" xmlns="http://www.w3.org/2000/svg" xmlns:xlink="http://www.w3.org/1999/xlink" x="0px"
	 y="0px" viewBox="0 0 720 76.391" enable-background="new 0 0 720 76.391" xml:space="preserve">
<g>
	<path fill="#014099" d="M217.262,9.112c-12.512,19.665-11.955,19.917-14.96,24.637c-2.169-3.535-15.608-24.637-15.608-24.637
		h-15.541c0,0,21.452,35.074,21.847,35.719c0,0.746,0,30.55,0,30.55h13.803c0,0,0-29.764,0-30.533
		c0.422-0.661,22.782-35.736,22.782-35.736h-2.683H217.262z"/>
	<path fill="#014099" d="M164.172,9.112h-9.82c0,0,0,25.945,0,28.514c-3.466,0-18.048,0-21.517,0c0-2.57,0-28.514,0-28.514h-13.8
		v66.269h13.8c0,0,0-27.372,0-29.961c2.504,0,19.019,0,21.517,0c0,2.589,0,29.961,0,29.961h13.805V13.083v-0.252
		c0-2.052-1.776-3.719-3.96-3.719H164.172z"/>
	<path fill="#014099" d="M276.208,9.112h-7.562v42.322c0,11.472-1.534,17.714-10.609,17.714c-9.083,0-10.615-6.242-10.615-17.714
		V9.112h-13.802v42.322c0,12.963,2.958,24.957,24.417,24.957c21.453,0,24.411-11.995,24.411-24.957V13.627v-0.795
		c0-2.052-1.771-3.719-3.959-3.719H276.208z"/>
	<path fill="#014099" d="M336.873,9.112h-7.209c0,0,0,37.025,0,45.941c-4.4-8.234-4.336-8.117-24.544-45.941h-14.395v66.269h11.947
		c0,0,0-39.556,0-48.539c4.386,8.215,5.572,9.313,26.522,48.539h12.414v-62.51v-0.04c0-2.052-1.772-3.719-3.959-3.719H336.873z"/>
	<path fill="#014099" d="M715.264,9.112h-7.212c0,0,0,37.025,0,45.941c-4.397-8.234-4.331-8.117-24.543-45.941h-14.391v66.269
		h11.937c0,0,0-39.556,0-48.539c4.394,8.215,5.577,9.313,26.531,48.539H720v-62.51v-0.04c0-2.052-1.777-3.719-3.962-3.719H715.264z"
		/>
	<path fill="#014099" d="M437.013,19.546l-2.412-6.715c-0.972-2.537-2.439-3.719-5.079-3.719h-0.438h-9.139l-23.519,66.269h12.726
		c0,0,5.572-17.031,6.166-18.837c1.93,0,19.1,0,21.027,0c0.597,1.806,6.177,18.837,6.177,18.837h14.385L437.013,19.546z
		 M417.1,48.747c0.898-2.754,6.965-18.807,8.824-24.51c1.845,5.707,7.858,21.762,8.745,24.51
		C431.324,48.747,420.454,48.747,417.1,48.747z"/>
	<path fill="#014099" d="M536.712,19.546l-2.409-6.715c-0.975-2.537-2.431-3.719-5.084-3.719h-0.435h-9.139l-23.519,66.269h12.726
		c0,0,5.572-17.031,6.166-18.837c1.93,0,19.105,0,21.033,0c0.597,1.806,6.171,18.837,6.171,18.837h14.385L536.712,19.546z
		 M516.802,48.747c0.898-2.754,6.96-18.807,8.827-24.51c1.84,5.707,7.852,21.762,8.734,24.51
		C531.023,48.747,520.159,48.747,516.802,48.747z"/>
	<path fill="#014099" d="M645.764,19.546l-2.409-6.715c-0.974-2.537-2.437-3.719-5.084-3.719h-0.438h-9.142l-23.508,66.269h12.72
		c0,0,5.569-17.031,6.16-18.837c1.933,0,19.105,0,21.044,0c0.583,1.806,6.155,18.837,6.155,18.837h14.393L645.764,19.546z
		 M625.854,48.747c0.898-2.754,6.963-18.807,8.822-24.51c1.84,5.707,7.858,21.762,8.74,24.51
		C640.074,48.747,629.208,48.747,625.854,48.747z"/>
	<path fill="#014099" d="M469.956,9.112h-8.625v66.269h13.805V13.279v-0.448c0-2.052-1.774-3.719-3.956-3.719H469.956z"/>
	<path fill="#014099" d="M560.171,71.739c0,2.055,1.766,3.721,3.954,3.721h0.285h14.738c16.57,0,26.074-7.184,26.074-19.712
		c0-11.605-10.13-15.922-19.062-20.328c-6.834-3.366-12.737-6.278-12.737-11.347c0-3.87,3.482-7.598,8.663-7.598l19.417,0.001
		l-0.014-4.004c0-2.026-1.777-3.67-3.956-3.67h-14.281c-14.796,0-23.628,6.523-23.628,17.445c0,11.334,9.84,15.55,18.53,19.864
		c7.118,3.536,13.262,6.592,13.262,12.356c0,6.324-5.766,8.776-10.607,8.776L560.16,67.25v4.163L560.171,71.739z"/>
	<path fill="#014099" d="M357.219,75.067h10.087c16.69,0,32.143-4.089,32.143-33.775c0-28.628-16.247-32.49-32.143-32.49h-15.163
		h-1.522v56.77v9.491L357.219,75.067z M366.837,67.274c0,0-3.092,0-4.394,0c0-2.624,0-48.054,0-50.676c1.302,0,4.394,0,4.394,0
		c10.035,0,18.812,1.655,18.812,24.695C385.65,59.024,382.342,67.274,366.837,67.274z"/>
</g>
<polygon fill="#FABE00" points="44.382,0 88.469,75.611 0,75.611 "/>
<polygon fill="#009944" points="54.808,0 98.89,75.611 10.425,75.611 "/>
<g>
</g>
<g>
</g>
<g>
</g>
<g>
</g>
<g>
</g>
<g>
</g>
<g>
</g>
<g>
</g>
<g>
</g>
<g>
</g>
<g>
</g>
<g>
</g>
<g>
</g>
<g>
</g>
<g>
</g>
</svg>
