<?xml version="1.0" encoding="utf-8"?>
<!-- Generator: Adobe Illustrator 27.2.0, SVG Export Plug-In . SVG Version: 6.00 Build 0)  -->
<svg version="1.1" id="레이어_1" xmlns="http://www.w3.org/2000/svg" xmlns:xlink="http://www.w3.org/1999/xlink" x="0px"
	 y="0px" viewBox="0 0 720 161.183" enable-background="new 0 0 720 161.183" xml:space="preserve">
<g>
	<polygon fill="#00A1E9" points="461.651,129.248 413.02,80.619 461.651,80.619 	"/>
	<polygon fill="#082D6B" points="113.774,80.619 113.774,97.093 142.903,97.093 142.903,161.183 162.091,161.183 162.091,97.093 
		191.349,97.093 191.349,80.619 	"/>
	<path fill="#082D6B" d="M251.92,131.705h5.597c13.048,0,15.784-8.915,15.784-16.392V97.02c0-7.481-2.736-16.4-15.784-16.4h-58.011
		v80.563h18.931v-29.477h11.125l26.365,29.477h23.867L251.92,131.705z M218.437,96.491h30.417c2.701,0,3.891,0.411,4.382,0.728
		c0.927,0.671,1.377,2.056,1.377,4.223v9.439c0,2.177-0.446,3.561-1.337,4.198c-0.531,0.35-1.721,0.753-4.421,0.753h-30.417V96.491z
		"/>
	<polygon fill="#082D6B" points="619.983,80.619 597.91,109.909 575.952,80.619 552.696,80.619 587.168,124.581 587.168,161.183 
		606.486,161.183 606.486,124.128 640.85,80.619 	"/>
	<path fill="#082D6B" d="M394.419,80.619h-11.865v80.563h17.662v-49.852c0.419,0.439,49.566,49.852,49.566,49.852h11.869V147.76
		L394.419,80.619z"/>
	<path fill="#082D6B" d="M337.286,80.619h-18.555l-38.234,80.563h19.531l7.603-17.077h40.752l7.606,17.077h19.532L337.286,80.619z
		 M315.269,127.475l12.74-27.743l12.743,27.743H315.269z"/>
	<path fill="#082D6B" d="M547.116,115.945c-2.554-2.767-7.013-4.11-13.619-4.11h-43.575V96.793h57.2
		c-0.003-0.198-0.02-0.368-0.028-0.558V80.619H490.06c-6.591,0-11.013,1.348-13.527,4.12c-2.535,2.801-3.774,7.907-3.774,15.606
		v8.618c0,7.699,1.239,12.805,3.774,15.604c2.504,2.77,6.928,4.124,13.527,4.124h43.491v15.26h-59.047v17.232h59.036
		c6.591,0,11.033-1.345,13.587-4.113c2.587-2.799,3.844-7.905,3.844-15.609v-10.734
		C550.971,123.022,549.711,118.747,547.116,115.945z"/>
	<path fill="#082D6B" d="M716.148,115.945c-2.559-2.767-7.018-4.11-13.614-4.11h-43.582V96.793h57.206
		c-0.008-0.198-0.025-0.368-0.028-0.558V80.619h-57.035c-6.594,0-11.019,1.348-13.537,4.12c-2.535,2.801-3.768,7.907-3.768,15.606
		v8.618c0,7.699,1.232,12.805,3.768,15.604c2.507,2.77,6.936,4.124,13.537,4.124h43.491v15.26h-59.05v17.232h59.033
		c6.595,0,11.036-1.345,13.593-4.113c2.581-2.799,3.838-7.905,3.838-15.609v-10.734C720,123.022,718.739,118.747,716.148,115.945z"
		/>
</g>
<g>
	<polygon fill="#082D6B" points="36.942,20.995 11.816,20.995 11.816,0 0,0 0,53.743 11.816,53.743 11.816,31.472 36.942,31.472 
		36.942,53.743 48.723,53.743 48.723,0 36.942,0 	"/>
	<path fill="#082D6B" d="M305.478,10.497h22.028v15.599h-25.062V13.573c0.063-0.62-0.063-1.719,0.474-2.394
		C303.473,10.479,304.351,10.52,305.478,10.497 M293.321,3.076c-2.465,2.518-2.588,6.208-2.626,8.352v42.315h11.75V36.595h25.062
		v17.148h11.816V0.008h-36.776C299.066,0.04,295.765,0.523,293.321,3.076"/>
	<path fill="#082D6B" d="M219.038,3.064c-2.43-2.541-5.706-3.024-9.25-3.057h-36.843v53.735h11.785V10.497h22.158
		c1.085,0.024,1.987-0.034,2.56,0.688c0.52,0.669,0.414,1.768,0.439,2.383v40.176h11.802V32.956V11.428
		C221.615,9.284,221.51,5.594,219.038,3.064z"/>
	<path fill="#082D6B" d="M150.72,40.162c-0.06,0.615,0.049,1.718-0.477,2.402c-0.554,0.71-1.453,0.637-2.57,0.656h-22.12V0.008
		h-11.806v53.735h36.859c3.536-0.02,6.77-0.53,9.236-3.061c2.514-2.545,2.584-6.22,2.664-8.38V0.008H150.72V40.162z"/>
	<path fill="#082D6B" d="M269.141,40.162c-0.071,0.615,0.038,1.718-0.464,2.402c-0.547,0.709-1.443,0.637-2.556,0.656h-22.154
		V10.497h22.154c1.113,0.024,2.009-0.018,2.556,0.688c0.503,0.669,0.393,1.768,0.464,2.383V40.162z M280.862,11.428
		c-0.052-2.144-0.119-5.832-2.599-8.379c-2.49-2.526-5.742-3.009-9.228-3.049H232.15v53.743h36.885
		c3.487-0.02,6.739-0.53,9.228-3.061c2.479-2.545,2.546-6.22,2.599-8.38V11.428z"/>
	<polygon fill="#082D6B" points="81.254,23.503 66.927,0 52.888,0 74.95,33.883 74.95,53.743 87.571,53.743 87.571,33.883 
		109.575,0 95.567,0 	"/>
	<rect x="351.184" y="0.008" fill="#082D6B" width="12.544" height="53.735"/>
</g>
<g>
</g>
<g>
</g>
<g>
</g>
<g>
</g>
<g>
</g>
<g>
</g>
<g>
</g>
<g>
</g>
<g>
</g>
<g>
</g>
<g>
</g>
<g>
</g>
<g>
</g>
<g>
</g>
<g>
</g>
</svg>
