<?xml version="1.0" encoding="utf-8"?>
<!-- Generator: Adobe Illustrator 27.2.0, SVG Export Plug-In . SVG Version: 6.00 Build 0)  -->
<svg version="1.1" id="레이어_1" xmlns="http://www.w3.org/2000/svg" xmlns:xlink="http://www.w3.org/1999/xlink" x="0px"
	 y="0px" viewBox="0 0 720 259.552" enable-background="new 0 0 720 259.552" xml:space="preserve">
<g>
	<path fill="#003B83" d="M444.313,259.552h57.207V102.054h-57.207V259.552z M646.617,102.054h-57.652l-73.333,157.498h52.507
		l49.677-108.433l49.61,108.433H720L646.617,102.054z M347.956,205.607l-22.095-103.439h-5.536h-42.328h-5.508l-22.09,103.439
		l-24.112-103.439h-48.841l36.032,157.384h67.745l17.937-73.904l17.936,73.904h67.74l36.071-157.384h-48.85L347.956,205.607z"/>
	<rect x="501.52" y="62.196" fill="#E60012" width="39.898" height="39.858"/>
	<g>
		<path fill="#003B83" d="M387.246,13.301h27.928V33.08h-31.771V17.201c0.078-0.786-0.082-2.179,0.596-3.036
			C384.707,13.279,385.812,13.331,387.246,13.301 M371.839,3.895c-3.127,3.196-3.287,7.87-3.336,10.589v53.643h14.9V46.384h31.771
			v21.743h14.978V0.003H383.53C379.119,0.045,374.937,0.658,371.839,3.895"/>
		<path fill="#003B83" d="M265.946,0.003h-46.709v68.124h14.938V13.301h28.086c1.385,0.029,2.529-0.04,3.246,0.871
			c0.668,0.849,0.529,2.242,0.558,3.024v50.93h14.97V14.483c-0.1-2.719-0.229-7.392-3.366-10.604
			C274.59,0.658,270.437,0.045,265.946,0.003"/>
		<path fill="#003B83" d="M191.06,50.908c-0.068,0.781,0.061,2.18-0.597,3.047c-0.708,0.897-1.842,0.806-3.257,0.826H159.16V0.003
			h-14.969v68.124h46.72c4.492-0.034,8.595-0.676,11.712-3.883c3.186-3.227,3.276-7.883,3.377-10.625V0.003h-14.94V50.908z"/>
		<path fill="#003B83" d="M341.183,50.908c-0.09,0.784,0.05,2.18-0.587,3.047c-0.697,0.894-1.828,0.806-3.241,0.826h-28.086v-41.48
			h28.086c1.413,0.029,2.544-0.023,3.241,0.871c0.636,0.849,0.497,2.242,0.587,3.024V50.908z M356.044,14.483
			c-0.07-2.719-0.158-7.39-3.297-10.619c-3.158-3.206-7.281-3.819-11.693-3.864H294.29v68.127h46.764
			c4.413-0.034,8.535-0.676,11.693-3.883c3.139-3.227,3.226-7.883,3.297-10.625V14.483z"/>
		<polygon fill="#003B83" points="46.83,26.609 14.978,26.609 14.978,0 0,0 0,68.127 14.978,68.127 14.978,39.898 46.83,39.898 
			46.83,68.127 61.768,68.127 61.768,0 46.83,0 		"/>
		<polygon fill="#003B83" points="103.01,29.794 84.844,0 67.048,0 95.012,42.947 95.012,68.127 111.017,68.127 111.017,42.947 
			138.914,0 121.146,0 		"/>
		<rect x="445.191" y="0.003" fill="#003B83" width="15.904" height="68.124"/>
	</g>
</g>
<g>
</g>
<g>
</g>
<g>
</g>
<g>
</g>
<g>
</g>
<g>
</g>
<g>
</g>
<g>
</g>
<g>
</g>
<g>
</g>
<g>
</g>
<g>
</g>
<g>
</g>
<g>
</g>
<g>
</g>
</svg>
