<?xml version="1.0" encoding="utf-8"?>
<!-- Generator: Adobe Illustrator 27.2.0, SVG Export Plug-In . SVG Version: 6.00 Build 0)  -->
<svg version="1.1" id="레이어_1" xmlns="http://www.w3.org/2000/svg" xmlns:xlink="http://www.w3.org/1999/xlink" x="0px"
	 y="0px" viewBox="0 0 720 123.964" enable-background="new 0 0 720 123.964" xml:space="preserve">
<g>
	<path fill="#2F79D9" d="M33.808,0C15.175,0,0,15.167,0,33.808l0,0v90.156h11.274V33.808c0-12.449,10.094-22.538,22.534-22.538
		h652.395c12.444,0,22.536,10.089,22.536,22.538v90.156H720V33.808C720,15.167,704.84,0,686.203,0H33.808z"/>
	<g>
		<g>
			<path fill="#2F79D9" d="M103.83,100.219c0,0.882-0.555,1.202-1.524,1.202H93.95c-0.967,0-1.281-0.32-1.281-1.287V77.402
				c0-1.055-0.726-1.61-1.765-1.61h-21.95c-0.954,0-1.524,0.555-1.524,1.61v22.732c0,0.967-0.555,1.287-1.438,1.287h-8.526
				c-0.797,0-1.125-0.32-1.125-1.202V43.732c0-0.886,0.328-1.367,1.125-1.367h8.526c0.883,0,1.438,0.481,1.438,1.367v21.853
				c0,1.044,0.569,1.527,1.524,1.527h21.95c1.039,0,1.765-0.483,1.765-1.527V43.732c0-0.886,0.314-1.367,1.281-1.367h8.356
				c0.968,0,1.524,0.481,1.524,1.367V100.219z"/>
			<path fill="#2F79D9" d="M124,102.226c-6.192,0-9.395-4.982-9.395-9.239V57.87c0-1.046,0.399-1.527,1.367-1.527H124
				c0.811,0,1.367,0.481,1.367,1.527v33.908c0,0.967,0.399,1.452,1.524,1.452h14.705c0.967,0,1.608-0.485,1.608-1.452V57.87
				c0-1.046,0.399-1.527,1.367-1.527h8.044c0.882,0,1.437,0.481,1.437,1.527v51.189c0,1.281-0.398,2.483-0.967,3.685l-5.466,8.926
				c-0.47,0.799-1.196,1.281-2.007,1.281h-1.04c-0.967,0-1.367-0.561-1.367-1.443V98.853c0-0.967-0.555-1.367-1.437-1.125
				l-15.431,4.335C125.609,102.226,124.726,102.226,124,102.226z"/>
			<path fill="#2F79D9" d="M174.061,102.141c-4.908,0-9.235-4.014-9.235-9.239V57.87c0-1.046,0.399-1.527,1.367-1.527h8.111
				c0.715,0,1.284,0.481,1.284,1.527v33.908c0,0.967,0.484,1.367,1.609,1.367h14.705c0.954,0,1.608-0.399,1.608-1.367V57.87
				c0-1.046,0.314-1.527,1.281-1.527h8.029c0.879,0,1.452,0.481,1.452,1.527v42.349c0,0.882-0.574,1.202-1.452,1.202h-8.029
				c-0.967,0-1.281-0.32-1.281-1.287v-1.281c0-1.046-0.654-1.452-1.537-1.125l-15.416,4.172
				C175.744,102.141,174.861,102.141,174.061,102.141z"/>
			<path fill="#2F79D9" d="M254.491,65.024v35.196c0,0.882-0.57,1.202-1.452,1.202h-8.029c-0.967,0-1.295-0.32-1.295-1.287V66.226
				c0-1.042-0.641-1.604-1.594-1.604h-14.706c-1.124,0-1.608,0.562-1.608,1.604v33.908c0,0.967-0.57,1.287-1.296,1.287h-8.113
				c-0.953,0-1.367-0.32-1.367-1.202V57.87c0-1.046,0.413-1.527,1.367-1.527h8.113c0.726,0,1.296,0.481,1.296,1.527v1.367
				c0,0.884,0.398,1.285,1.608,0.965l15.346-4.179c0.796-0.16,1.522-0.401,2.32-0.401C250.391,55.622,254.491,60.042,254.491,65.024
				z"/>
			<path fill="#2F79D9" d="M263.644,92.902V72.657c0-4.339,1.85-7.634,5.694-9.726l8.527-4.977c1.765-1.13,3.529-1.61,5.622-1.61
				h7.388c1.054,0,1.523-0.397,1.523-1.367V38.348c0-0.882,0.412-1.527,1.21-1.527h8.199c0.968,0,1.367,0.645,1.367,1.527v61.872
				c0,0.882-0.398,1.202-1.367,1.202h-8.199c-0.798,0-1.21-0.32-1.21-1.287v-1.281c0-1.046-0.47-1.452-1.523-1.125l-15.501,4.172
				c-0.883,0.241-1.609,0.241-2.406,0.241C268.783,102.305,263.644,98.447,263.644,92.902z M292.399,91.779v-25.47
				c0-1.125-0.47-1.687-1.595-1.687h-14.874c-1.125,0-1.524,0.562-1.524,1.687v25.47c0,0.967,0.398,1.367,1.524,1.367h14.874
				C291.929,93.145,292.399,92.746,292.399,91.779z"/>
			<path fill="#2F79D9" d="M321.648,102.141c-5.065,0-9.32-4.093-9.32-9.239V72.657c0-4.339,1.85-7.634,5.622-9.726l8.599-4.977
				c1.765-1.13,3.53-1.61,5.537-1.61h18.406c0.882,0,1.367,0.481,1.367,1.527v42.349c0,0.882-0.485,1.202-1.367,1.202h-8.199
				c-0.883,0-1.196-0.32-1.196-1.287v-1.281c0-1.046-0.57-1.452-1.609-1.125l-15.431,4.172
				C323.174,102.141,322.449,102.141,321.648,102.141z M341.096,91.779v-25.47c0-1.125-0.57-1.687-1.609-1.687h-14.875
				c-1.124,0-1.522,0.562-1.522,1.687v25.47c0,0.967,0.398,1.367,1.522,1.367h14.875C340.526,93.145,341.096,92.746,341.096,91.779z
				"/>
			<path fill="#2F79D9" d="M373.393,44.935c0,0.965-0.568,1.285-1.367,1.285h-8.041c-1.038,0-1.367-0.32-1.367-1.285v-6.587
				c0-0.882,0.329-1.527,1.367-1.527h8.041c0.799,0,1.367,0.645,1.367,1.527V44.935z M373.393,100.219
				c0,0.882-0.568,1.202-1.367,1.202h-8.041c-1.038,0-1.367-0.32-1.367-1.202V57.87c0-1.046,0.329-1.527,1.367-1.527h8.041
				c0.799,0,1.367,0.481,1.367,1.527V100.219z"/>
		</g>
		<g>
			<path fill="#2F79D9" d="M395.929,89.848V59.397c0-4.497,1.922-7.954,5.863-10.283l9.395-5.221
				c1.695-1.046,3.702-1.527,5.552-1.527h19.931c0.952,0,1.435,0.481,1.435,1.446v5.863c0,0.882-0.483,1.288-1.435,1.288h-27.887
				c-0.97,0-1.367,0.564-1.367,1.606v38.725c0,1.046,0.397,1.531,1.367,1.531h28.681c0.884,0,1.452,0.406,1.452,1.202
				c0,0.882-0.418,1.608-1.294,2.093l-6.905,3.859c-1.849,1.038-3.771,1.443-5.706,1.443h-17.356
				C401.95,101.421,395.929,97.322,395.929,89.848z"/>
			<path fill="#2F79D9" d="M454.918,102.141c-5.069,0-9.323-4.093-9.323-9.239V72.657c0-4.339,1.849-7.634,5.62-9.726l8.597-4.977
				c1.768-1.13,3.532-1.61,5.53-1.61h18.415c0.884,0,1.367,0.481,1.367,1.527v42.349c0,0.882-0.483,1.202-1.367,1.202h-8.199
				c-0.884,0-1.196-0.32-1.196-1.287v-1.281c0-1.046-0.568-1.452-1.61-1.125l-15.429,4.172
				C456.443,102.141,455.717,102.141,454.918,102.141z M474.362,91.779v-25.47c0-1.125-0.568-1.687-1.61-1.687H457.89
				c-1.123,0-1.533,0.562-1.533,1.687v25.47c0,0.967,0.41,1.367,1.533,1.367h14.862C473.794,93.145,474.362,92.746,474.362,91.779z"
				/>
			<path fill="#2F79D9" d="M535.414,65.024v20.328c0,4.262-1.836,7.474-5.535,9.722l-8.755,4.982
				c-1.695,1.046-3.617,1.367-5.466,1.367h-7.388c-1.123,0-1.538,0.641-1.538,1.687v16.228c0,1.046-0.555,1.608-1.367,1.608h-8.114
				c-0.952,0-1.367-0.562-1.367-1.608V57.87c0-1.046,0.414-1.527,1.367-1.527h8.114c0.811,0,1.367,0.481,1.367,1.527v1.367
				c0,0.884,0.414,1.285,1.538,0.965l15.344-4.179c0.884-0.16,1.764-0.401,2.49-0.401C530.674,55.622,535.414,59.32,535.414,65.024z
				 M524.652,91.779v-25.47c0-1.125-0.555-1.687-1.606-1.687H508.27c-1.123,0-1.538,0.562-1.538,1.687v25.47
				c0,0.967,0.414,1.367,1.538,1.367h14.776C524.097,93.145,524.652,92.746,524.652,91.779z"/>
			<path fill="#2F79D9" d="M555.345,44.935c0,0.965-0.568,1.285-1.367,1.285h-8.042c-1.042,0-1.367-0.32-1.367-1.285v-6.587
				c0-0.882,0.325-1.527,1.367-1.527h8.042c0.799,0,1.367,0.645,1.367,1.527V44.935z M555.345,100.219
				c0,0.882-0.568,1.202-1.367,1.202h-8.042c-1.042,0-1.367-0.32-1.367-1.202V57.87c0-1.046,0.325-1.527,1.367-1.527h8.042
				c0.799,0,1.367,0.481,1.367,1.527V100.219z"/>
			<path fill="#2F79D9" d="M577.278,101.501c-6.747,0-11.172-5.545-11.172-11.089V49.839c0-0.969,0.329-1.527,1.294-1.93
				l8.272-2.093c0.726-0.16,1.367,0.16,1.367,0.969v8.435c0,0.803,0.312,1.123,1.029,1.123h14.627c1.055,0,1.533,0.481,1.533,1.527
				v5.545c0,0.805-0.478,1.207-1.533,1.207h-14.221c-1.038,0-1.435,0.562-1.435,1.687v25.47c0,0.967,0.397,1.367,1.435,1.367h15.916
				c1.038,0,1.524,0.483,1.524,1.367c0,0.796-0.401,1.367-1.281,1.849l-6.35,3.773c-1.764,1.046-3.617,1.367-5.624,1.367H577.278z"
				/>
			<path fill="#2F79D9" d="M611.912,102.141c-5.052,0-9.323-4.093-9.323-9.239V72.657c0-4.339,1.849-7.634,5.637-9.726l8.584-4.977
				c1.781-1.13,3.545-1.61,5.552-1.61h18.406c0.88,0,1.367,0.481,1.367,1.527v42.349c0,0.882-0.487,1.202-1.367,1.202h-8.199
				c-0.884,0-1.213-0.32-1.213-1.287v-1.281c0-1.046-0.555-1.452-1.606-1.125l-15.417,4.172
				C613.437,102.141,612.724,102.141,611.912,102.141z M631.356,91.779v-25.47c0-1.125-0.555-1.687-1.606-1.687h-14.862
				c-1.123,0-1.525,0.562-1.525,1.687v25.47c0,0.967,0.401,1.367,1.525,1.367h14.862C630.801,93.145,631.356,92.746,631.356,91.779z
				"/>
			<path fill="#2F79D9" d="M663.659,100.219c0,0.882-0.555,1.202-1.29,1.202h-8.02c-1.055,0-1.452-0.32-1.452-1.202V38.348
				c0-0.882,0.397-1.527,1.452-1.527h8.02c0.735,0,1.29,0.645,1.29,1.527V100.219z"/>
		</g>
	</g>
</g>
<g>
</g>
<g>
</g>
<g>
</g>
<g>
</g>
<g>
</g>
<g>
</g>
<g>
</g>
<g>
</g>
<g>
</g>
<g>
</g>
<g>
</g>
<g>
</g>
<g>
</g>
<g>
</g>
<g>
</g>
</svg>
