<?xml version="1.0" encoding="utf-8"?>
<!-- Generator: Adobe Illustrator 27.2.0, SVG Export Plug-In . SVG Version: 6.00 Build 0)  -->
<svg version="1.1" id="레이어_1" xmlns="http://www.w3.org/2000/svg" xmlns:xlink="http://www.w3.org/1999/xlink" x="0px"
	 y="0px" viewBox="0 0 720 248.067" enable-background="new 0 0 720 248.067" xml:space="preserve">
<g>
	<defs>
		<rect id="SVGID_1_" width="720" height="248.067"/>
	</defs>
	<clipPath id="SVGID_00000080902862242858951590000001437706250066097806_">
		<use xlink:href="#SVGID_1_"  overflow="visible"/>
	</clipPath>
	<g id="그룹_168724" clip-path="url(#SVGID_00000080902862242858951590000001437706250066097806_)">
		<path id="패스_84397" d="M287.111,94.928h-38.211v0.989c-0.245,4.529-1.32,8.974-3.173,13.114c0,0-33.982,86.736-35.277,90.088
			c-1.398-3.294-39.969-93.782-39.969-93.782l-0.644-1.443c-1.327-2.47-2.124-5.191-2.338-7.987v-0.787l-0.753-0.203h-41.503v1.915
			l0.487,0.236c7.887,2.871,9.039,13.368,9.039,19.386l-0.015,90.723c0,10.522-1.137,22.272-9.635,29.741l-0.251,0.266v1.727h36.808
			v-1.897l-0.463-0.227c-8.05-3.579-8.725-12.685-8.725-21.361v-2.653l0.015-2.556c0,0,0.048-82.431,0.048-89.338
			c2.683,6.432,39.654,94.205,39.654,94.205c5.388,12.476,8.607,18.357,19.31,26.486l0.799,0.605c0,0,44.646-114.171,47.399-121.25
			c0,7.436-0.033,100.325-0.033,100.325c0,6.707-1.02,13.22-8.316,15.534l-0.551,0.157v1.969h41.382v-1.815l-0.33-0.236
			c-7.177-4.693-11.274-12.885-10.724-21.443v-106.33c0-2.378,0.463-10.349,6.19-12.013l0.532-0.188v-1.96H287.111z"/>
		<path id="패스_84398" fill="#CC1424" d="M317.033,172.643c-0.013-39.724,32.179-71.938,71.904-71.951
			c19.727-0.006,38.59,8.089,52.175,22.392c-24.409-37.355-74.48-47.849-111.835-23.44s-47.849,74.48-23.44,111.835
			c20.173,30.872,58.69,44.167,93.611,32.311c-3.443,0.537-6.922,0.817-10.407,0.838c-39.751,0.013-71.987-32.2-72-71.952
			c0-0.007,0-0.014,0-0.021"/>
		<path id="패스_84399" fill="#CC1424" d="M393.991,109.497c-24.08-2.187-47.282,9.617-59.693,30.367
			c19.787-22.945,54.427-25.504,77.372-5.718c22.945,19.787,25.505,54.427,5.718,77.372c-11.579,13.427-28.933,20.43-46.587,18.8
			c-4.09-0.379-8.123-1.227-12.019-2.526c30.704,16.307,68.814,4.635,85.12-26.069c16.306-30.704,4.635-68.814-26.069-85.12
			c-7.395-3.927-15.499-6.34-23.838-7.096"/>
		<path id="패스_84400" d="M529.242,155.054c13.589-6.474,20.299-15.634,20.299-27.992c0-20.099-17.216-32.134-46.001-32.134
			h-52.076v1.915l0.478,0.236c9.414,3.467,9.197,16.336,9.076,25.748l-0.03,3.186v81.59l0.03,2.965
			c0.112,9.596,0.251,22.689-9.076,26.229l-0.463,0.182v1.945h40.084c15.271,0.061,31.033,0.079,45.212-6.789
			c16.07-7.681,26.395-22.813,26.395-38.59c0-18.811-12.96-33.341-33.91-38.487 M484.575,111.31
			c1.249-0.124,13.843-1.458,13.843-1.458c7.097-0.791,14.206,1.384,19.646,6.011c4.137,3.762,6.445,9.128,6.332,14.718
			c0,20.68-27.862,21.715-33.441,21.715h-6.38L484.575,111.31z M529.872,214.351c-7.602,6.152-17.423,8.859-27.103,7.469
			c0,0-14.987-1.38-18.197-1.655v-52.097c1.328-0.054,14.43-0.808,14.43-0.808c12.279-0.684,23.772,2.841,30.772,9.463
			c5.193,4.85,8.056,11.693,7.866,18.796c0.304,7.113-2.536,13.999-7.766,18.829"/>
		<path id="패스_84401" d="M609.786,94.928h-41.923v1.915l0.502,0.236c9.378,3.467,9.206,16.43,9.076,25.875l-0.03,3.279v81.638
			l0.03,2.856c0.094,9.587,0.266,22.719-9.076,26.071l-0.502,0.182v1.945h42.683v-1.945l-0.517-0.182
			c-9.321-3.539-9.157-16.545-9.076-26.071l0.033-2.856V126.23l-0.033-2.88c-0.094-9.611-0.257-22.744,9.076-26.319l0.517-0.197
			v-1.915L609.786,94.928z"/>
		<path id="패스_84402" d="M619.309,129.927c0,25.176,22.275,35.123,41.969,43.956c16.711,7.445,32.515,14.554,32.515,29.647
			c0,14.185-17.528,21.763-30.186,21.763c-17.242-0.285-33.844-6.578-46.942-17.794l-1.758-1.531l6.882,29.726l0.399,0.139
			c12.518,4.476,25.731,6.696,39.025,6.559c32.427,0,58.792-20.46,58.792-45.581c0-22.03-22.25-32.197-41.884-41.143
			c-16.76-7.651-32.609-14.89-32.609-28.116c0-13.989,14.627-18.938,27.178-18.938c12.456,0.026,24.429,4.822,33.459,13.402
			l1.277,1.355V96.447l-0.508-0.157c-10.519-3.239-21.469-4.862-32.476-4.816c-25.46,0-55.128,10.05-55.128,38.466"/>
		<path id="패스_84403" fill="#1C4381" d="M43.421,24.713h-29.55V0H0v63.296h13.871V37.077h29.55v26.219h13.874V0H43.421V24.713z"
			/>
		<path id="패스_84404" fill="#1C4381" d="M344.717,3.627c-2.228,2.782-3.334,6.297-3.101,9.853v49.825h13.865V43.085h29.438
			v20.211h13.916V-0.003h-43.26C351.608-0.351,347.676,0.964,344.717,3.627 M359.005,12.376h25.917v18.375h-29.438V15.979
			c-0.096-0.971,0.083-1.949,0.517-2.823c0.659-0.826,1.694-0.744,3.004-0.793"/>
		<path id="패스_84405" fill="#1C4381" d="M246.591,0h-43.327v63.296h13.88V12.364h26.017c1.295,0.048,2.348-0.03,2.989,0.793
			c0.462,0.864,0.651,1.849,0.542,2.823v47.314h13.877V13.471c0.242-3.553-0.863-7.066-3.095-9.841
			c-2.97-2.668-6.914-3.983-10.891-3.63"/>
		<path id="패스_84406" fill="#1C4381" d="M177.123,47.305c0.112,0.966-0.074,1.944-0.532,2.801
			c-0.644,0.841-1.709,0.768-2.995,0.793h-26.017V-0.003h-13.874v63.299h43.321c3.967,0.348,7.9-0.966,10.86-3.63
			c2.229-2.779,3.337-6.292,3.107-9.847V-0.003H177.12L177.123,47.305z"/>
		<path id="패스_84407" fill="#1C4381" d="M330.12,13.471c0.253-3.552-0.844-7.068-3.074-9.844
			c-2.956-2.665-6.887-3.98-10.851-3.63h-43.336v63.299h43.336c3.964,0.344,7.893-0.97,10.851-3.63
			c2.232-2.776,3.33-6.294,3.074-9.847L330.12,13.471z M316.307,47.305c0.089,0.965-0.096,1.936-0.532,2.801
			c-0.66,0.841-1.712,0.768-3.025,0.793h-26.032V12.364h26.032c1.304,0.048,2.354-0.03,3.025,0.793
			c0.434,0.874,0.619,1.851,0.532,2.823V47.305z"/>
		<path id="패스_84408" fill="#1C4381" d="M95.506,27.687L78.689,0H62.213l25.869,39.909v23.388h14.824V39.909L128.82,0h-16.49
			L95.506,27.687z"/>
		<rect id="사각형_153744" x="412.742" fill="#1C4381" width="14.799" height="63.296"/>
	</g>
</g>
<g>
</g>
<g>
</g>
<g>
</g>
<g>
</g>
<g>
</g>
<g>
</g>
<g>
</g>
<g>
</g>
<g>
</g>
<g>
</g>
<g>
</g>
<g>
</g>
<g>
</g>
<g>
</g>
<g>
</g>
</svg>
