<?xml version="1.0" encoding="utf-8"?>
<!-- Generator: Adobe Illustrator 27.2.0, SVG Export Plug-In . SVG Version: 6.00 Build 0)  -->
<svg version="1.1" id="레이어_1" xmlns="http://www.w3.org/2000/svg" xmlns:xlink="http://www.w3.org/1999/xlink" x="0px"
	 y="0px" viewBox="0 0 720 122.129" enable-background="new 0 0 720 122.129" xml:space="preserve">
<g>
	<path fill="#014099" d="M351.613,36.584c5.956-2.427,7.561-5.121,9.841-7.504c2.458-2.576,7.723-9.108,10.361-5.341
		c3.168,2.962,2.109,7.119,2.637,10.668c0.53,2.383-0.528,5.936-1.584,8.315c-2.815,6.33-10.199,9.476-12.68,15.946
		c-2.431,6.33-0.02,13.76,0.302,20.305c0.519,10.409,0.999,20.441,0.519,30.854c-0.186,3.921-1.021,7.101-4.092,9.055
		c-2.256,1.428-5.842,2.339-8.067,0.333c-4.539-4.083-3.391-11.933-2.683-17.488c0.778-6.142,2.013-13.23,0.688-19.337
		c-0.837-3.864-3.509-8.113-6.238-10.383c-1.96-1.63-4.427-2.725-5.938-5.012c-1.356-2.042-2.536-4.836-3.619-7.119
		c-3.196-6.733,3.332-12.674,6.368-17.256c1.577-2.374,3.349-6.702,5.93-7.079C346.17,35.139,348.739,37.763,351.613,36.584z"/>
	<path fill="#014099" d="M407.056,41.999c2.118-0.355,1.11-6.943,1.428-8.958c0.966-6.173,4.53-10.659,9.605-6.173
		c2.491,2.199,3.301,5.783,3.945,9.182c0.429,2.247,0.539,4.302,2.103,5.853c1.597,1.59,3.98,1.121,5.526,2.733
		c3.687,3.842,0.9,10.304-3.439,10.269c-3.612-0.026-10.176-0.561-10.937,5.169c-0.491,3.654,1.969,7.701,3.669,10.47
		c2.694,4.416,5.235,8.622,8.139,12.941c5.721,8.481,17.418,16.638,26.495,18.286c2.593,0.469,8.032,0.464,10.089,2.409
		c3.165,2.988-0.826,10.084-2.946,12.433c-3.321,3.671-9.548,5.082-13.964,4.67c-3.056-0.289-5.461-0.863-8.267-2.414
		c-4.193-2.313-6.212-5.424-9.543-8.797c-5.866-5.892-10.109-12.087-14.527-19.464c-2.144-3.583-3.987-7.404-6.166-10.965
		c-2.272-3.719-5.139-11.526-9.172-12.77c-2.755-0.85-6.692,0.696-9.337,1.573c-3.117,1.025-6.328,2.317-9.579,2.58
		c-2.856,0.219-6.711,1.314-9.504,0.499c-4.041-1.2-5.798-2.896-5.798-5.345c0-8.902,7.489-10.742,12.299-13.449
		c4.215-2.383,10.538-2.764,13.522-4.941c2.219-1.612,0.353-6.326-1.753-10.873c-1.053-2.182-2.464-7.517-3.511-8.7
		c-1.06-1.783-0.341-4.162-0.53-5.94c-0.34-3.155,0.528-8.326,3.005-10.028c2.482-1.711,6.841-0.832,8.989,1.159
		c3.997,3.697,3.005,12.514,4.228,17.758c0.642,2.725,2.013,8.652,4.328,10.273C406.13,41.911,406.651,42.069,407.056,41.999z"/>
	<path fill="#014099" d="M212.445,19.517c7.721,0,15.287,0.789,19.471,1.183c3.735,0.346,7.274,2.725,9.094,7.408
		c1.282,3.299,0.362,6.041,0.362,6.041c-0.729,7.404-5.275,7.789-10.188,9.542c-2.184,1.183-2,5.069-0.18,5.467
		c2.727,0.578,6.442,1.936,7.64,3.697c3.459,5.064,0.907,9.55-0.548,10.917c-2.631,2.462-8.729,1.752-10.188,5.642
		c-1.459,3.908-0.72,7.61,3.456,7.802c3.091,0.145,9.276-1.362,14.192,1.564c1.634,1.165,3.174,0.902,3.456,2.725
		c0.362,2.33,1.093,4.679-0.546,6.431c-0.55,0.587-4.006,2.532-4.551,2.532c-5.452,0.596-11.462,1.568-15.824,2.147
		c-3.253,0.429-6.965,1.682-10.19,2.545c-8.908,2.326-9.068,4.565-12.371,5.647c-8.365,2.721-11.272,0.386-13.46-0.596
		c-2.727-2.33-3.634-7.018-3.634-10.523c0-7.596,6.729-9.357,13.276-9.357c1.641,0,5.272-0.578,6.37-2.918
		c0.547-1.761,0.839-4.048,0.359-5.073c-0.723-1.559-5.817,0.596-11.454,0.201c-0.775-0.061-3.095-0.977-3.645-1.568
		c-1.091-1.165-1.641-1.748-1.641-2.33c-1.086-3.513-1.086-7.018,0-8.77c0.626-0.889,2.464-2.392,5.285-4.871
		c2.12-1.884,8.186-2.629,6.981-7.088c-0.732-2.716-3.573-2.278-5.334-3.763c-2.359-1.976-2.902-6.514-2.219-9.651
		C198.162,26.561,205.252,19.517,212.445,19.517z"/>
	<path fill="#014099" d="M257.85,15.267c0.105,0,0.223,0.006,0.337,0.02c2.88,0.131,5.64-0.607,8.503-0.942
		c3.809-0.429,7.401-0.353,11.123-1.597c4.725-1.579,10.551-0.353,13.653,0.997c2.273,0.983,3.673,2.953,3.673,2.953
		c2.863,4.037,2.05,7.673,0.366,12.159c-1.516,4.048-2.532,7.933-3.259,12.283c-1.156,6.882-0.449,12.573-0.37,19.363
		c0.077,6.247,2.109,13.66-4.004,16.288c-2.909,1.244-7.934,2.716-8.707,6.519c-0.677,3.312,0.276,9.331,1.864,12.144
		c2.243,3.969,8.565,4.95,12.367,5.642c5.616,1.043,11.991,1.708,17.703,0.806c5.96-0.947,12.196-3.96,17.298-7.658
		c2.418-1.752,6.823-7.951,9.909-5.765c2.449,1.743,2.668,7.141,2.904,10.076c0.513,6.151-3.636,12.941-7.688,16.568
		c-5.835,5.222-11.388,4.302-18.301,4.083c-5.632-0.18-11.263-0.521-16.904-0.394c-8.319,0.184-18.031-0.903-24.544-7.649
		c-4.363-4.521-4.922-10.006-4.628-16.489c0.179-4.057,2.72-15.245-0.786-18.171c-1.402,0.394-3.15,7.114-3.678,10.058
		c-1.056,2.971-1.925,6.133-2.979,9.086c-1.045,1.783-3.121,7.964-5.248,11.254c-3.327,5.126-5.601,7.303-10.157,11.64
		c-1.695,1.621-4.722,2.388-6.475,2.962c-6.21,2.046-13.427-1.095-17.48-6.856c-1.282-1.823-3.822-6.287-2.788-8.853
		c0.891-2.199,3.971-2.081,5.717-2.252c4.528-0.442,8.926-1.191,13.169-3.251c4.862-2.348,9.164-5.52,12.356-10.453
		c1.662-2.549,4.742-7.128,2.847-10.361c-0.92-1.581-2.457-2.028-3.358-3.833c-2.723-5.432-0.329-11.635-0.136-17.501
		c0.186-5.94,0.179-9.038,0.179-14.996c0-3.351-0.876-9.279-0.876-9.861c0.517-4.149-2.1-8.293-0.528-12.437
		c0.528-1.774,1.575-4.151,2.626-4.151C254.004,16.001,255.485,15.239,257.85,15.267z M268.41,37.149
		c2.997,0.968,8.635-0.907,9.951-2.422c0-0.587,1.049-1.196,0.528-1.796c-1.505-2.287-3.671-2.637-5.956-2.304
		c-1.739,0.245-5.64,0.412-6.251,2.821C266.141,35.568,266.975,36.672,268.41,37.149z M269.946,51.645
		c1.382,0.092,2.703,0.083,3.04,0.092c1.68,0.049,5.437,0.622,5.932-2.137c0.565-3.168-4.245-3.96-5.973-3.798
		c-2.845,0.28-4.344,1.963-6.293,4.109C265.593,51.072,267.827,51.488,269.946,51.645z M270.447,68.713
		c2.094,0,3.139-1.2,4.709-1.805c2.806-0.631,2.782-2.935,0.28-3.627c-1.774-0.482-3.776,0.21-5.572,0.21
		c-1.24,0-3.752-0.561-4.712,0.341C261.537,67.263,268.756,68.713,270.447,68.713z"/>
	<path fill="#014099" d="M468.88,57.945c-0.05-0.881-0.096-1.594-0.182-2.033c-0.953-4.942-3.566-7.487-7.715-4.03
		c-5.973,4.959-2.063,14.238-2.055,21.01c0.011,3.333-0.425,6.632-0.219,9.988c0.173,2.896,1.312,5.038,2.909,7.461
		c2.672,4.07,6.49,3.64,9.87,0.491c4.298-3.991,7.827-7.706,12.996-10.483c4.451-2.374,10.63-2.629,14.479-6.063
		c3.568-3.189,3.629-8.652,3.22-13.309c-0.392-4.512,0.337-9.524-1.218-13.839c-2.286-6.313-6.987-3.351-9.024,1.634
		c-2.377,5.822,2.558,12.665-4.712,15.863c-1.498-1.862-1.387-4.656-1.169-6.943c0.3-3.312-0.068-6.624,0.622-9.9
		c0.635-2.953,1.443-5.831,1.737-8.928c0.497-5.38-3.728-12.485-9.093-11.806c-9.824,1.213-4.019,22.934-4.035,28.891
		c0,2.699,0.703,9.59-1.954,11.276C469.364,69.73,469.113,62.09,468.88,57.945z"/>
	<path fill="#014099" d="M504.032,22.881c-3.625,2.637-2.197,7.123,1.244,9.217c6.435,3.89,13.451,2.488,19.729-1.384
		c3.927-2.409,8.074-5.774,8.79-11.145c0.532-4.067-1.003-6.784-4.806-6.753c-4.004,0.035-7.399,3.702-11.217,4.729
		C513.102,18.802,508.124,19.92,504.032,22.881z"/>
	<path fill="#014099" d="M509.206,62.422c1.139,0.342,2.514,0.438,3.36,1.235c1.715,1.647,2.219,6.352,1.362,8.604
		c-0.938,2.462-2.902,2.795-5.117,3.128c-3.555,0.539-7.785,1.709-11.066,3.421c-1.389,0.727-4.506,2.782-4.543,4.814
		c-0.026,1.292,2.495,5.643,3.579,6.269c1.533,0.881,5.029,0.267,6.751,0.193c2.659-0.109,6.309-2.984,5.097,1.695
		c-1.067,4.162-3.772,8.14-7.61,9.454c-2.517,0.859-5.813,0.955-8.459,0.806c-2.843-0.157-3.726-1.454-6.067-2.628
		c-4.999-2.523-6.151,5.13-5.535,8.889c0.795,4.876,4.735,11.276,9.292,12.376c8.181,1.963,16.064-2.243,22.018-8.218
		c6.784-6.812,12.794-18.601,12.367-29.062c2.136-0.929,4.333-1.888,6.473-2.848c1.833-0.819,4.639-1.454,6.218-2.742
		c3.947-3.207,2.863-8.727-1.932-8.893c-2.151-0.087-4.159,0.596-6.304,0.491c-0.782-0.044-1.264,0.578-1.967-0.026
		c-0.841-0.723-0.688-3.163-0.729-4.136c-0.05-1.27-0.241-3.032,0-4.302c0.964-4.963,9.206-5.695,12.091-2.576
		c2.339,2.519,3.678,8.367,4.657,11.732c1.001,3.461,3.13,7.885,2.701,11.587c-0.604,5.069-6.705,7.679-10.479,8.95
		c-3.242,1.095-10.183,1.481-10.689,6.545c-0.473,4.666,7.658,5.919,10.72,6.098c3.15,0.184,7.065,0.394,9.739-1.682
		c1.768-1.384,2.876-3.794,4.952-4.709c6.138-2.672,9.988,8.03,12.008,12.529c1.811,4.043,3.805,5.318,7.461,7.408
		c3.75,2.156,7.914,3.917,12.014,2.681c4.74-1.419,9.276-3.426,13.74-5.708c1.792-0.924,4.449-2.124,4.62-4.779
		c0.315-4.806-6.238-4.118-8.86-5.161c-1.897-0.758-3.879-1.761-5.732-2.76c-7.546-4.009-15.878-10.523-20.818-18.238
		c-1.22-1.879-0.812-2.028,0.204-3.719c1.177-1.954,2.859-3.386,3.371-5.743c0.478-2.151,0.585-5.209,0.451-7.43
		c-0.261-4.263-4.171-9.169-8.326-7.022c-3.172,1.638-2.273,7.241-5.117,8.543c-3.301,1.516-4.582-7.894-4.015-10.058
		c0.874-3.329,4.725-3.846,7.307-3.969c2.628-0.122,5.277,0.175,7.898,0.009c3.483-0.21,6.832-1.166,10.14-2.252
		c2.263-0.753,2.226-0.057,2.188-2.663c-0.015-1.161-0.28-2.462-0.609-3.548c-1.279-4.381-4.175-4.696-7.646-5.476
		c-3.148-0.719-2.016-2.857-2.554-6.072c-0.469-2.857-1.577-4.521-4.199-5.161c-7.763-1.888-5.406,3.899-6.727,9.712
		c-0.727,3.203-5.375,2.983-8.033,2.199c-2.688-5.603,4.304-13.26,3.047-18.89c-0.528-2.405-2.812-4.657-4.656-5.73
		c-3.744-2.147-7.877,1.016-8.939,5.13c-1.134,4.377-0.254,9.103-0.254,13.572c0,2.453,0.399,5.897-1.283,7.78
		c-1.321,1.472-4.247,1.998-6.116,1.928c-5.702-0.245-6.015-7.837-12.238-6.983c-5.912,0.824-3.967,7.395-7.708,10.286
		c-1.673,1.297-4.089,1.358-5.316,3.369c-2.994,4.906-1.47,9.611,3.296,11.578C508.844,62.308,509.031,62.37,509.206,62.422z"/>
	<path fill="#014099" d="M604.178,77.462c-3.588,9.55-1.744,20.669-0.579,30.526c0.517,4.293,1.551,8.034,5.459,10.387
		c4.924,2.953,10.47,0.21,14.667-2.418c3.658-2.295,8.534-3.264,12.696-4.105c8.052-1.634,17.173-1.231,25.373-1.231
		c4.779-0.008,9.577-0.008,14.329,0.193c3.36,0.149,6.983,0.267,10.33,0.027c2.256-0.158,5.874-2.423,8.025-1.279
		c2.598,1.393,3.755,3.987,6.847,5.152c4.188,1.59,7.43,1.433,11.136-1.034c2.852-1.888,4.311-5.397,5.292-8.596
		c3.264-10.689,3.347-21.694-2.278-31.743c-1.849-3.282-3.763-3.89-7.491-4.503c-5.656-0.929-9.436,2.549-11.171,8.157
		c-1.288,4.162,0.342,10.448-3.071,13.677c-3.413,3.22-10.22,2.611-14.452,2.917c-15.455,1.095-10.978-15.516-9.314-25.829
		c1.052-6.506,1.253-13.208,2.55-19.714c1.345-6.689,2.611-14.316-0.438-20.73c-1.616-3.39-4.512-5.826-8.139-6.764
		c-13.659-3.546-15.416,10.216-14.755,20.643c0.438,6.869,0.499,13.756,0.508,20.634c0.013,6.33,1.095,12.52,1.34,18.855
		c0.158,4.267,0.556,10.773-4.442,12.104c-4.845,1.297-12.034,2.615-16.901,1.091c-5.953-1.849-3.987-5.844-4.424-10.742
		c-0.254-2.962-1.551-6.488-2.848-9.235C618.108,64.849,607.02,69.844,604.178,77.462z"/>
</g>
<polygon fill="#FABE00" points="71.013,0 141.555,120.985 0,120.985 "/>
<polygon fill="#009944" points="87.695,0 158.228,120.985 16.68,120.985 "/>
<g>
</g>
<g>
</g>
<g>
</g>
<g>
</g>
<g>
</g>
<g>
</g>
<g>
</g>
<g>
</g>
<g>
</g>
<g>
</g>
<g>
</g>
<g>
</g>
<g>
</g>
<g>
</g>
<g>
</g>
</svg>
