<?xml version="1.0" encoding="utf-8"?>
<!-- Generator: Adobe Illustrator 27.2.0, SVG Export Plug-In . SVG Version: 6.00 Build 0)  -->
<svg version="1.1" id="레이어_1" xmlns="http://www.w3.org/2000/svg" xmlns:xlink="http://www.w3.org/1999/xlink" x="0px"
	 y="0px" viewBox="0 0 720 263.44" enable-background="new 0 0 720 263.44" xml:space="preserve">
<g>
	<path id="path3207" fill="#003B83" d="M302.904,115.255c-30.683,0-51.928,10.503-51.928,47.852v56.995
		c0,32.438,23.476,43.337,51.928,43.337c30.217,0,49.846-11.109,51.942-43.337v-56.995
		C354.846,130.271,337.803,115.255,302.904,115.255z M312.554,225.636c-0.564,6.497-2.385,11.984-9.858,11.984
		c-7.499,0-9.325-5.487-9.902-11.984v-68.639c0-7.492,0.657-16.15,9.902-16.15c9.217,0,9.858,8.657,9.858,16.15V225.636"/>
	<path id="path3209" fill="#003B83" d="M360.437,116.785v26.372h14.739v91.35c0,22.866,12.579,27.236,34.733,27.236
		c9.033,0,14.956,0,26.043-0.741v-25.24c-4.36,0-5.414,0.027-10.335,0.027c-5.381,0-8.98-3.166-8.98-10.366v-82.267h19.315v-26.372
		H360.437"/>
	<path id="path3211" fill="#003B83" d="M691.464,115.012c-16.24,0-25.574,8.337-29.746,20.489h-0.502
		c-3.254-11.317-11.463-20.489-27.973-20.489c-15.239,0-24.76,7.895-30.831,21.172h-0.511V116.94h-39.404v144.749h39.292V159.276
		c0.48-7.26,2.542-11.823,10.375-11.823c7.324,0,9.493,5.498,9.493,11.823v102.413h39.183V159.276
		c0-7.008,3.097-11.823,9.942-11.823c7.393,0,9.48,5.655,9.48,11.823v102.413H720V142.808
		C720,124.496,708.077,115.012,691.464,115.012"/>
	<path id="path3213" fill="#003B83" d="M494.349,115.001c-29.746,0.1-51.785,10.158-51.785,46.059v60.312
		c0,31.919,24.99,41.754,51.785,41.754c34.032,0,51.763-11.64,51.763-37.49v-21.064h-41.739v15.756
		c0,8.458-1.086,16.749-9.836,16.749c-8.239,0-9.721-8.889-9.721-16.667v-26.814h61.379v-38.211
		C546.195,125.248,522.728,114.882,494.349,115.001L494.349,115.001z M504.403,169.649h-19.638v-9.756
		c0-9.747-1.043-18.729,9.844-18.729c9.971,0,9.794,9.586,9.794,14.556V169.649"/>
	<path id="path3215" fill="#003B83" d="M238.187,133.05c0-33.652-21.975-40.651-50.783-40.651H131.73v169.291h42.022v-77.396h8.166
		c9.763,0.683,13.696,7.07,14.288,18.152c0.146,1.831,0.168,3.984,0.214,6.217h-0.046v53.032h41.646v-53.032
		c-0.035-5.878-0.166-11.083-0.484-14.648c-0.716-11.777-8.976-22.581-31.952-23.352v-0.444
		C230.272,165.91,238.187,151.105,238.187,133.05L238.187,133.05z M180,160.067h-6.248v-43.57c0,0,3.577,0.057,5.346,0.057
		c13.417,0,17.516,6.842,17.516,22.534C196.613,150.687,192.123,160.067,180,160.067"/>
	<path id="path3217" fill="#003B83" d="M28.808,25.696V0H42.23v64.187H28.808V35.562H13.424v28.625H0V0h13.424v25.696H28.808"/>
	<path id="path3219" fill="#003B83" d="M65.688,41.94L48.884,0h14.675l9.597,27.128L83.376,0h13.689L79.112,41.94v22.247H65.688
		V41.94"/>
	<path id="path3221" fill="#003B83" d="M146.67,0v45.517c0,9.595-5.427,19.733-21.776,19.733c-14.766,0-21.867-7.645-21.867-19.733
		V0h13.41v44.635c0,7.89,3.391,11.005,8.273,11.005c5.867,0,8.531-3.917,8.531-11.005V0H146.67"/>
	<path id="path3223" fill="#003B83" d="M157.695,64.187V0h18.128l17.067,44.447h0.177V0H205.6v64.187h-17.69l-17.5-46.93h-0.192
		v46.93H157.695"/>
	<path id="path3225" fill="#003B83" d="M230.573,9.869h6.926c9.351,0,9.351,10.408,9.351,22.22c0,16.088-1.601,22.225-9.789,22.225
		h-6.489V9.869z M217.162,64.187h21.86c22.93,0,21.422-22.592,21.422-32.443C260.444,11.715,257.148,0,239.555,0h-22.393V64.187"/>
	<path id="path3227" fill="#003B83" d="M294.952,40.094H282.15l6.144-27.749h0.177L294.952,40.094z M275.84,64.187l3.65-14.233
		h18.305l3.557,14.233h14.122L298.067,0h-17.695l-17.779,64.187H275.84"/>
	<path id="path3229" fill="#003B83" d="M321.793,0h13.424v64.185h-13.424V0z"/>
</g>
<path id="path3231" fill="#E60012" d="M458.492,27.765l-83.317,41.261v40.791l83.317-41.239V27.765"/>
<g>
</g>
<g>
</g>
<g>
</g>
<g>
</g>
<g>
</g>
<g>
</g>
<g>
</g>
<g>
</g>
<g>
</g>
<g>
</g>
<g>
</g>
<g>
</g>
<g>
</g>
<g>
</g>
<g>
</g>
</svg>
