<?xml version="1.0" encoding="utf-8"?>
<!-- Generator: Adobe Illustrator 27.0.1, SVG Export Plug-In . SVG Version: 6.00 Build 0)  -->
<svg version="1.1" id="文字" xmlns="http://www.w3.org/2000/svg" xmlns:xlink="http://www.w3.org/1999/xlink" x="0px" y="0px"
	 viewBox="0 0 360.812 81.691" enable-background="new 0 0 360.812 81.691" xml:space="preserve">
<path fill="#4D93F2" d="M181.303,12.861h-27.089c-2.194,0-3.971-1.757-3.971-3.928V3.929c0-2.168-1.778-3.928-3.972-3.928h-7.949
	c-2.193,0-3.972,1.76-3.972,3.928v5.004c0,2.171-1.777,3.928-3.972,3.928h-8.397c-2.194,0-3.972,1.76-3.972,3.928v6.702
	c0,2.169,1.777,3.928,3.972,3.928h8.397c2.194,0,3.972,1.76,3.972,3.928v10.437c-0.007,0.146-0.022,0.292-0.022,0.442
	c0,0.15,0.016,0.296,0.022,0.444c0.228,3.992,3.46,7.181,7.498,7.392c0.142,0.008,0.28,0.022,0.422,0.022
	c0.191,0,0.382-0.016,0.57-0.028c11.306-0.046,20.654,1.313,20.944,7.996c0.3,3.777-4.379,6.573-10.778,8.739
	c-0.105,0.036-0.208,0.073-0.311,0.106c-1.405,0.604-2.393,1.986-2.393,3.601c0,0.388,0.076,0.758,0.185,1.117
	c0.105,0.343,0.246,0.678,0.439,0.976l2.86,6.367c0.092,0.28,0.206,0.545,0.355,0.79c0.689,1.156,1.95,1.943,3.409,1.943
	c0.251,0,0.498-0.031,0.737-0.073c0.355-0.066,0.687-0.189,0.998-0.338c10.419-3.604,21.653-10.094,21.653-23.408
	c0-11.349-8.992-21.289-26.815-22.766c-0.071-0.005-0.142-0.013-0.214-0.019c-1.98-0.103-3.559-1.66-3.669-3.619v-0.43
	c0.11-1.962,1.695-3.521,3.68-3.619h0.387h26.993c2.193,0,3.973-1.759,3.973-3.928v-6.702
	C185.275,14.621,183.496,12.861,181.303,12.861z"/>
<path fill="#4D93F2" d="M40.538,29.388H39.78c-0.725,0-1.311-0.53-1.409-1.219v-0.383c0.091-0.631,0.592-1.123,1.229-1.201h0.358
	h16.835c2.191,0,3.973-1.759,3.973-3.928v-6.255c0-2.169-1.781-3.928-3.973-3.928H42.346c-2.194,0-3.975-1.76-3.975-3.93V4.701
	c0-2.168-1.775-3.927-3.97-3.927h-8.039c-2.194,0-3.972,1.759-3.972,3.927v3.843c0,2.17-1.778,3.93-3.971,3.93h-7.949
	c-2.19,0-3.969,1.758-3.969,3.928v6.255c0,2.169,1.778,3.928,3.969,3.928h7.949c2.192,0,3.971,1.757,3.971,3.927v0.21
	c-0.092,0.812-0.594,1.492-1.304,1.837c-0.13,0.061-0.265,0.112-0.404,0.15C9.113,37.016,0,47.824,0,60.341
	c0,8.178,3.238,13.422,8.191,18.555c0.217,0.227,0.441,0.452,0.666,0.679c0.682,0.548,1.543,0.891,2.491,0.891
	c0.512,0,0.998-0.102,1.447-0.278l0.842-0.447l8.753-4.663v2.055c0,2.169,1.777,3.929,3.972,3.929h8.039
	c2.194,0,3.97-1.76,3.97-3.929V66.146l9.117-5.296c0.288-0.121,0.555-0.285,0.804-0.466c0.981-0.716,1.623-1.857,1.623-3.154
	c0-0.742-0.22-1.423-0.577-2.015l-0.111-0.194l-3.034-5.341c-0.127-0.319-0.295-0.611-0.5-0.88
	c-0.724-0.969-1.874-1.604-3.187-1.604c-0.771,0-1.485,0.227-2.096,0.604l-0.188,0.119c-1.202,0.563-1.851-0.197-1.851-1.632
	c0-1.468,0.747-1.93,2.184-1.934C48.646,44.568,56.7,50.787,56.7,58.735c0,4.464-1.609,8.481-3.926,12.311
	c-0.255,0.302-0.472,0.634-0.625,1.004c-0.19,0.458-0.299,0.958-0.299,1.486c0,1.325,0.667,2.491,1.683,3.204
	c0.241,0.168,0.499,0.312,0.773,0.426l6.526,3.6c0.241,0.168,0.497,0.315,0.775,0.425c0.466,0.191,0.976,0.301,1.512,0.301
	c1.349,0,2.533-0.667,3.251-1.681c0.036-0.052,0.068-0.108,0.102-0.162c3.1-4.798,6.209-12.031,6.209-20.023
	C72.682,41.607,58.098,29.441,40.538,29.388z M22.391,51.063v5.272v0.201c-0.033,0.742-0.415,1.394-1.001,1.785l-0.035,0.021
	l-2.759,1.569l-0.299,0.17c-0.21,0.095-0.443,0.146-0.688,0.146c-0.83,0-1.522-0.59-1.67-1.368
	c-0.019-0.104-0.033-0.207-0.033-0.313c0-0.155,0.03-0.302,0.067-0.445c0.281-2.713,2.107-5.74,4.806-7.786
	c0.114-0.087,0.229-0.177,0.346-0.261c0.112-0.043,0.232-0.07,0.357-0.07c0.466,0,0.836,0.34,0.909,0.78V51.063z"/>
<path fill="#4D93F2" d="M110.362,31.291H75.959c-2.192,0-3.971,1.759-3.971,3.927v6.88c0,2.171,1.778,3.929,3.971,3.929h32.866
	c4.061,0,6.773,1.875,6.773,5.805c0,5.665-5.772,10.9-17.816,15.457c-0.395,0.075-0.757,0.224-1.098,0.406
	c-1.245,0.664-2.101,1.946-2.101,3.444c0,0.496,0.104,0.967,0.275,1.405l0.136,0.302l2.749,6.079l0.2,0.439
	c0.658,1.265,1.977,2.14,3.518,2.14c0.497,0,0.968-0.103,1.407-0.267c0.061-0.024,0.123-0.04,0.184-0.067
	c12.174-4.459,28.346-12.739,28.346-30.588C131.398,37.542,122.73,31.291,110.362,31.291z"/>
<path fill="#4D93F2" d="M356.841,12.86h-27.086c-2.196,0-3.972-1.757-3.972-3.929V3.926c0-2.167-1.779-3.926-3.973-3.926h-7.949
	c-2.191,0-3.97,1.759-3.97,3.926v5.005c0,2.172-1.778,3.929-3.972,3.929h-8.4c-2.193,0-3.97,1.757-3.97,3.928v6.7
	c0,2.171,1.776,3.931,3.97,3.931h8.4c2.193,0,3.972,1.758,3.972,3.927V41.78c-0.009,0.148-0.024,0.294-0.024,0.444
	c0,0.15,0.016,0.296,0.024,0.443c0.226,3.993,3.458,7.182,7.495,7.393c0.143,0.006,0.279,0.021,0.423,0.021
	c0.194,0,0.381-0.016,0.569-0.029c11.307-0.047,20.655,1.315,20.946,7.996c0.3,3.78-4.381,6.575-10.778,8.743
	c-0.103,0.035-0.208,0.068-0.314,0.102c-1.403,0.605-2.389,1.986-2.389,3.601c0,0.392,0.074,0.758,0.182,1.117
	c0.104,0.348,0.247,0.678,0.439,0.976l2.863,6.37c0.089,0.277,0.205,0.542,0.354,0.788c0.689,1.154,1.948,1.946,3.407,1.946
	c0.253,0,0.499-0.032,0.738-0.076c0.354-0.066,0.686-0.187,0.999-0.339c10.418-3.601,21.65-10.093,21.65-23.405
	c0-11.349-8.988-21.291-26.815-22.768c-0.068-0.005-0.141-0.013-0.21-0.017c-1.983-0.104-3.561-1.663-3.67-3.62v-0.43
	c0.108-1.962,1.692-3.521,3.679-3.618h0.389h26.99c2.195,0,3.972-1.76,3.972-3.931v-6.7C360.812,14.617,359.036,12.86,356.841,12.86
	z"/>
<path fill="#4D93F2" d="M285.106,31.292h-34.402c-2.191,0-3.972,1.759-3.972,3.927v6.88c0,2.171,1.78,3.929,3.972,3.929h32.864
	c4.064,0,6.772,1.875,6.772,5.805c0,5.664-5.768,10.901-17.814,15.458c-0.392,0.075-0.755,0.222-1.097,0.404
	c-1.244,0.664-2.1,1.947-2.1,3.445c0,0.496,0.104,0.967,0.274,1.405l0.136,0.301l2.748,6.081l0.201,0.437
	c0.657,1.266,1.978,2.141,3.516,2.141c0.499,0,0.971-0.101,1.406-0.267c0.062-0.022,0.127-0.039,0.188-0.066
	c12.172-4.459,28.346-12.739,28.346-30.587C306.144,37.543,297.475,31.292,285.106,31.292z"/>
<g>
	<path fill="#4D93F2" d="M250.8,61.914l-0.364-0.383l-5.441-5.735l-0.259-0.272c-0.708-0.658-1.657-1.071-2.709-1.071
		c-0.997,0-1.896,0.375-2.594,0.975c-0.083,0.076-0.168,0.149-0.253,0.224c-6.114,5.42-13.511,9.67-20.845,9.67
		c-8.801,0-14.71-3.46-20.513-9.28c-0.017-0.015-0.033-0.031-0.048-0.047c-0.716-0.696-1.697-1.128-2.782-1.128
		c-1.081,0-2.06,0.43-2.775,1.123l-0.074,0.077l-5.532,5.694l-0.409,0.421c-0.577,0.681-0.936,1.546-0.936,2.503
		c0,0.961,0.361,1.832,0.942,2.514c0.128,0.135,0.256,0.267,0.387,0.4c8.836,9.13,18.666,13.975,32.642,13.975
		c13.141,0,22.969-6.125,31.094-14.176c0.151-0.152,0.306-0.304,0.456-0.457c0.587-0.684,0.951-1.556,0.951-2.522
		C251.737,63.463,251.377,62.597,250.8,61.914z"/>
	<path fill="#4D93F2" d="M194.677,22.72h31.15c2.196,0,3.973,1.76,3.973,3.93v-0.177c0,2.17,1.777,3.928,3.971,3.928h7.677
		c2.196,0,3.974-1.758,3.974-3.928V15.79c0.001-0.102,0.017-0.203,0.017-0.307c0-0.105-0.016-0.204-0.017-0.307
		c-0.166-4.194-3.645-7.548-7.93-7.548h-42.814c-2.194,0-3.972,1.758-3.972,3.927v7.237C190.705,20.964,192.482,22.72,194.677,22.72
		z"/>
</g>
</svg>
