<?xml version="1.0" encoding="utf-8"?>
<!-- Generator: Adobe Illustrator 27.0.1, SVG Export Plug-In . SVG Version: 6.00 Build 0)  -->
<svg version="1.1" id="文字" xmlns="http://www.w3.org/2000/svg" xmlns:xlink="http://www.w3.org/1999/xlink" x="0px" y="0px"
	 viewBox="0 0 2040.945 462.087" enable-background="new 0 0 2040.945 462.087" xml:space="preserve">
<path fill="#4D93F2" d="M1025.545,72.746H872.316c-12.412,0-22.46-9.937-22.46-22.217V22.224c0-12.263-10.059-22.217-22.466-22.217
	h-44.965c-12.406,0-22.466,9.954-22.466,22.217v28.305c0,12.28-10.053,22.217-22.465,22.217h-47.495
	c-12.413,0-22.466,9.957-22.466,22.22v37.908c0,12.269,10.053,22.217,22.466,22.217h47.495c12.412,0,22.465,9.954,22.465,22.218
	v59.034c-0.038,0.823-0.127,1.652-0.127,2.502c0,0.851,0.088,1.674,0.127,2.513c1.287,22.582,19.572,40.618,42.413,41.811
	c0.801,0.044,1.586,0.122,2.386,0.122c1.083,0,2.16-0.088,3.226-0.16c63.95-0.26,116.832,7.43,118.472,45.23
	c1.696,21.366-24.769,37.181-60.968,49.434c-0.591,0.205-1.177,0.415-1.757,0.602c-7.949,3.414-13.533,11.236-13.533,20.367
	c0,2.193,0.43,4.286,1.044,6.319c0.597,1.939,1.392,3.833,2.486,5.518l16.179,36.016c0.519,1.586,1.166,3.083,2.011,4.469
	c3.895,6.54,11.031,10.992,19.284,10.992c1.42,0,2.817-0.176,4.171-0.414c2.011-0.376,3.883-1.072,5.645-1.911
	c58.935-20.389,122.483-57.096,122.483-132.409c0-64.194-50.865-120.422-151.683-128.774c-0.403-0.028-0.801-0.072-1.209-0.105
	c-11.203-0.58-20.129-9.39-20.754-20.472v-2.431c0.625-11.098,9.59-19.919,20.814-20.472h2.187h152.688
	c12.407,0,22.471-9.948,22.471-22.217V94.966C1048.016,82.703,1037.952,72.746,1025.545,72.746z"/>
<path fill="#4D93F2" d="M229.305,166.233h-4.287c-4.099,0-7.418-2.997-7.971-6.896v-2.165c0.514-3.572,3.348-6.35,6.95-6.792h2.027
	h95.227c12.396,0,22.472-9.949,22.472-22.22V92.775c0-12.271-10.076-22.217-22.472-22.217H239.53
	c-12.412,0-22.482-9.954-22.482-22.231V26.59c0-12.263-10.043-22.214-22.455-22.214h-45.473c-12.412,0-22.465,9.951-22.465,22.214
	v21.737c0,12.277-10.06,22.231-22.46,22.231H59.228c-12.39,0-22.449,9.946-22.449,22.217v35.384c0,12.271,10.059,22.22,22.449,22.22
	h44.965c12.401,0,22.46,9.937,22.46,22.211v1.188c-0.519,4.593-3.359,8.441-7.374,10.39c-0.735,0.348-1.497,0.635-2.287,0.851
	C51.55,209.381,0,270.519,0,341.32c0,46.258,18.318,75.924,46.335,104.955c1.226,1.282,2.492,2.555,3.768,3.839
	c3.855,3.099,8.727,5.041,14.092,5.041c2.894,0,5.645-0.578,8.186-1.575l4.762-2.527l49.512-26.377v11.625
	c0,12.268,10.053,22.225,22.465,22.225h45.473c12.412,0,22.455-9.957,22.455-22.225v-62.148l51.572-29.959
	c1.63-0.682,3.138-1.613,4.546-2.635c5.552-4.049,9.181-10.504,9.181-17.84c0-4.195-1.243-8.048-3.265-11.396l-0.63-1.097
	l-17.163-30.213c-0.718-1.803-1.668-3.458-2.828-4.977c-4.093-5.479-10.6-9.073-18.025-9.073c-4.358,0-8.402,1.285-11.854,3.417
	l-1.066,0.674c-6.8,3.185-10.468-1.116-10.468-9.231c0-8.302,4.226-10.918,12.352-10.937c45.766,1.216,91.327,36.392,91.327,81.349
	c0,25.25-9.103,47.975-22.206,69.635c-1.442,1.71-2.668,3.585-3.535,5.676c-1.078,2.591-1.691,5.422-1.691,8.404
	c0,7.493,3.773,14.092,9.518,18.124c1.365,0.95,2.823,1.768,4.375,2.409l36.917,20.361c1.364,0.95,2.811,1.781,4.386,2.406
	c2.635,1.083,5.518,1.701,8.552,1.701c7.628,0,14.329-3.776,18.389-9.507c0.205-0.295,0.387-0.613,0.575-0.914
	c17.533-27.142,35.121-68.053,35.121-113.261C411.126,235.354,328.631,166.536,229.305,166.233z M126.654,288.84v29.824v1.135
	c-0.188,4.198-2.348,7.885-5.662,10.095l-0.199,0.122l-15.605,8.877l-1.69,0.962c-1.187,0.536-2.508,0.826-3.895,0.826
	c-4.695,0-8.611-3.337-9.446-7.739c-0.11-0.585-0.188-1.171-0.188-1.773c0-0.876,0.171-1.709,0.381-2.516
	c1.591-15.346,11.921-32.467,27.184-44.042c0.646-0.494,1.298-1,1.955-1.478c0.635-0.243,1.315-0.398,2.022-0.398
	c2.635,0,4.728,1.925,5.143,4.414V288.84z"/>
<path fill="#4D93F2" d="M624.265,177H429.662c-12.401,0-22.46,9.952-22.46,22.215v38.916c0,12.28,10.059,22.223,22.46,22.223H615.57
	c22.968,0,38.314,10.606,38.314,32.834c0,32.042-32.652,61.658-100.779,87.434c-2.232,0.425-4.281,1.265-6.209,2.298
	c-7.043,3.754-11.882,11.009-11.882,19.481c0,2.806,0.591,5.469,1.558,7.946l0.768,1.707l15.55,34.387l1.132,2.483
	c3.723,7.156,11.181,12.106,19.897,12.106c2.812,0,5.474-0.58,7.96-1.508c0.343-0.135,0.696-0.229,1.039-0.378
	c68.862-25.222,160.338-72.057,160.338-173.024C743.256,212.359,694.226,177,624.265,177z"/>
<path fill="#4D93F2" d="M2018.479,72.742h-153.212c-12.423,0-22.466-9.938-22.466-22.223v-28.31
	c0-12.258-10.065-22.209-22.472-22.209h-44.965c-12.396,0-22.455,9.952-22.455,22.209v28.31c0,12.285-10.059,22.223-22.466,22.223
	h-47.517c-12.406,0-22.455,9.94-22.455,22.22v37.897c0,12.28,10.048,22.234,22.455,22.234h47.517
	c12.407,0,22.466,9.943,22.466,22.211v59.024c-0.05,0.839-0.138,1.662-0.138,2.513s0.088,1.674,0.138,2.508
	c1.276,22.587,19.56,40.623,42.396,41.816c0.807,0.033,1.58,0.121,2.392,0.121c1.099,0,2.154-0.088,3.22-0.166
	c63.956-0.265,116.837,7.441,118.483,45.23c1.696,21.383-24.781,37.193-60.968,49.456c-0.585,0.199-1.177,0.387-1.773,0.575
	c-7.938,3.424-13.512,11.236-13.512,20.367c0,2.215,0.42,4.287,1.028,6.319c0.591,1.967,1.397,3.834,2.485,5.518l16.196,36.033
	c0.503,1.569,1.16,3.066,2.005,4.458c3.895,6.529,11.02,11.009,19.273,11.009c1.431,0,2.823-0.182,4.176-0.431
	c2-0.376,3.878-1.055,5.651-1.916c58.93-20.367,122.466-57.09,122.466-132.393c0-64.194-50.843-120.433-151.682-128.786
	c-0.387-0.028-0.795-0.072-1.188-0.094c-11.219-0.585-20.146-9.407-20.759-20.477v-2.431c0.613-11.098,9.573-19.914,20.809-20.466
	h2.199h152.671c12.418,0,22.466-9.954,22.466-22.234V94.962C2040.945,82.683,2030.897,72.742,2018.479,72.742z"/>
<path fill="#4D93F2" d="M1612.711,177.003h-194.598c-12.396,0-22.466,9.951-22.466,22.211v38.916
	c0,12.28,10.07,22.226,22.466,22.226h185.898c22.99,0,38.308,10.609,38.308,32.834c0,32.039-32.63,61.664-100.768,87.439
	c-2.215,0.423-4.27,1.257-6.203,2.287c-7.038,3.759-11.876,11.012-11.876,19.486c0,2.806,0.585,5.469,1.552,7.946l0.768,1.701
	l15.545,34.397l1.138,2.47c3.718,7.162,11.186,12.108,19.886,12.108c2.823,0,5.491-0.569,7.954-1.508
	c0.354-0.124,0.718-0.221,1.061-0.376c68.851-25.22,160.338-72.057,160.338-173.018
	C1731.713,212.361,1682.677,177.003,1612.711,177.003z"/>
<g>
	<path fill="#4D93F2" d="M1418.655,350.22l-2.061-2.166l-30.779-32.439l-1.464-1.541c-4.005-3.72-9.374-6.057-15.323-6.057
		c-5.64,0-10.727,2.124-14.671,5.513c-0.469,0.431-0.95,0.845-1.431,1.268c-34.586,30.658-76.424,54.699-117.909,54.699
		c-49.781,0-83.207-19.574-116.031-52.491c-0.094-0.086-0.188-0.174-0.27-0.268c-4.049-3.939-9.601-6.38-15.738-6.38
		c-6.115,0-11.65,2.433-15.699,6.352l-0.42,0.437l-31.294,32.207l-2.315,2.384c-3.264,3.853-5.292,8.747-5.292,14.161
		c0,5.436,2.044,10.361,5.331,14.219c0.724,0.765,1.447,1.511,2.188,2.265c49.98,51.646,105.585,79.051,184.638,79.051
		c74.33,0,129.924-34.649,175.883-80.186c0.856-0.859,1.729-1.718,2.579-2.585c3.32-3.867,5.381-8.8,5.381-14.263
		C1423.958,358.978,1421.92,354.084,1418.655,350.22z"/>
	<path fill="#4D93F2" d="M1101.193,128.519h176.203c12.423,0,22.472,9.957,22.472,22.228v-1c0,12.275,10.053,22.221,22.46,22.221
		h43.423c12.423,0,22.477-9.946,22.477-22.221V89.315c0.005-0.58,0.094-1.146,0.094-1.734c0-0.591-0.089-1.152-0.094-1.734
		c-0.939-23.726-20.621-42.695-44.854-42.695h-242.182c-12.412,0-22.465,9.943-22.465,22.212v40.938
		C1078.728,118.581,1088.781,128.519,1101.193,128.519z"/>
</g>
</svg>
