<?xml version="1.0" encoding="utf-8"?>
<!-- Generator: Adobe Illustrator 27.0.1, SVG Export Plug-In . SVG Version: 6.00 Build 0)  -->
<svg version="1.1" id="레이어_1" xmlns="http://www.w3.org/2000/svg" xmlns:xlink="http://www.w3.org/1999/xlink" x="0px"
	 y="0px" viewBox="0 0 720 517.455" enable-background="new 0 0 720 517.455" xml:space="preserve">
<path fill="#FFFFFF" d="M371.621,517.455c-23.861,0-47.064-4.564-69.011-13.614c-18.06-7.454-35.222-17.901-51.01-31.076
	c-0.617-0.539-1.394-0.798-2.172-0.798c-0.838,0-1.695,0.299-2.353,0.957l-23.501,22.585l-0.518,0.398
	c-2.871,2.153-6.179,3.29-9.609,3.29c-3.229,0-6.239-0.917-8.95-2.711l-0.159-0.14c-4.246-2.97-6.797-7.815-6.797-12.977
	c0-1.355,0.2-2.791,0.599-4.227l4.843-18.039c0.279-0.977,0.079-2.033-0.499-2.851c-0.597-0.837-1.534-1.355-2.532-1.415
	c-10.664-0.798-21.428-2.751-31.933-5.781c-0.298-0.1-0.618-0.139-0.937-0.139c-1.037,0-2.052,0.498-2.711,1.355
	c-1.455,1.914-3.369,3.309-5.621,4.066l-23.483,7.615c-1.156,0.359-2.312,0.538-3.488,0.538c-2.532,0-5.043-0.857-7.057-2.411
	c-2.073-1.595-3.588-4.006-4.146-6.619l-5.342-24.977c-0.258-1.176-1.096-2.133-2.252-2.511c-0.338-0.12-0.718-0.18-1.077-0.18
	c-0.797,0-1.574,0.299-2.212,0.818c-4.386,3.747-9.529,6.957-15.209,9.489c-5.402,2.371-11.183,3.568-17.203,3.568
	c-6.717,0-13.375-1.516-19.275-4.405c-4.087-2.014-7.774-4.645-10.904-7.794c-0.638-0.639-1.515-1.017-2.411-1.017l-0.18,0.019
	c-0.438,0.021-0.837,0.021-1.276,0.021c-5.5,0-10.804-0.917-15.747-2.772c-5.74-2.152-10.685-5.421-14.691-9.727
	c-4.106-4.425-7.316-9.489-9.528-15.11c-2.153-5.482-3.25-11.282-3.269-17.203c0-7.554,1.833-15.029,5.302-21.587
	c2.989-5.682,7.176-10.685,12.399-14.891c0.697-0.539,1.156-1.336,1.256-2.213c0.757-6.16,2.711-11.581,5.96-16.584l0.279-0.38
	c0.658-0.916,0.837-2.073,0.478-3.149l-10.326-29.023c-0.438-1.236-0.657-2.532-0.657-3.868c0-2.273,0.678-4.485,1.933-6.379
	c1.256-1.874,2.989-3.329,5.003-4.206c1.476-0.638,3.07-0.977,4.624-0.977l0.499,0.021c0.837,0.019,4.505,0.139,13.674,0.419
	l9.27,0.279c1.754,0,3.248-1.375,3.388-3.149c0.259-3.21,0.996-6.419,1.695-9.529l0.159-0.678
	c1.655-7.356,3.747-14.591,6.199-21.529c1.176-3.388,2.492-6.797,3.987-10.464c1.156-2.751,2.213-5.323,4.146-7.496
	c0.718-0.818,0.996-1.953,0.758-3.01l-0.439-1.933l-6.917-30.837c-0.18-0.897-0.279-1.714-0.279-2.532
	c0-2.273,0.678-4.505,1.973-6.438c1.235-1.833,2.97-3.269,5.003-4.146c1.415-0.618,2.991-0.956,4.565-0.956
	c0.678,0,1.256,0.06,1.774,0.139l26.612,4.008c0.159,0.019,0.338,0.039,0.518,0.039c0.877,0,1.734-0.338,2.371-0.976l0.299-0.28
	c2.413-2.133,4.904-4.225,7.475-6.279c0.737-0.557,1.176-1.395,1.276-2.292c0.1-0.917-0.18-1.833-0.758-2.532l-21.389-25.913
	c-2.472-2.93-3.807-6.658-3.807-10.445c0-3.21,0.937-6.319,2.671-9.01c1.495-2.371,3.588-4.285,5.98-5.621
	c2.413-1.296,5.123-1.993,7.855-1.993c2.392,0,4.624,0.638,6.458,1.256c1.814,0.597,3.609,1.215,5.402,1.833l12.937,4.446
	l9.329,3.189c0.359,0.12,0.718,0.18,1.096,0.18c0.558,0,1.096-0.14,1.595-0.399c0.837-0.438,1.436-1.196,1.695-2.113
	c1.215-4.504,2.711-8.99,4.425-13.375c0.359-0.937,0.299-2.014-0.2-2.891c-0.499-0.897-1.355-1.515-2.352-1.695l-19.177-3.548
	c-1.196-0.219-2.312-0.599-3.289-1.116c-1.236-0.618-2.332-1.456-3.25-2.532c-1.774-1.994-2.751-4.446-2.851-7.116l-3.289-73.196
	l0.04-0.479c0.06-1.494,0.438-2.97,1.096-4.285c0.597-1.276,1.455-2.413,2.551-3.409c2.033-1.874,4.764-2.93,7.575-2.93
	c0.718,0,1.375,0.06,1.973,0.179l0.737,0.119l77.402,26.174c3.828,1.235,5.881,1.853,7.475,1.853c1.495,0,2.651-0.578,4.266-1.455
	l0.479-0.259c6.817-3.826,13.854-7.216,20.89-10.105c8.053-3.269,16.365-6.001,24.698-8.114c12.14-3.049,24.777-4.604,37.554-4.604
	c22.485,0,45.33,4.784,66.06,13.833c10.067,4.405,19.415,9.688,27.768,15.768c0.578,0.419,1.296,0.638,1.993,0.638
	c0.24,0,0.518-0.019,0.777-0.079c0.957-0.24,1.774-0.858,2.213-1.714l14.152-26.433c1.416-2.671,3.528-4.863,6.06-6.358
	c2.572-1.535,5.482-2.352,8.492-2.352c0.977,0,1.933,0.079,2.93,0.279l0.339,0.06c3.429,0.638,6.617,2.432,8.97,5.004
	c2.371,2.571,3.886,5.94,4.266,9.508l1.574,26.551c0.06,1.037,0.599,2.014,1.475,2.612c0.558,0.378,1.257,0.597,1.914,0.597
	c0.339,0,0.718-0.06,1.057-0.179c3.01-0.977,6.08-1.875,9.13-2.632c1.135-0.279,2.052-1.117,2.431-2.233
	c0.359-1.136,0.838-2.332,1.436-3.708c2.093-4.803,4.824-9.09,8.093-12.697c3.129-3.488,6.757-6.498,10.725-8.89
	c2.91-1.735,6.119-3.269,9.049-4.306c0.558-0.2,1.016-0.518,1.395-0.937C500.95,5.701,513.687,0.021,526.425,0
	c6.877,0,13.814,1.674,19.993,4.864c7.515,3.907,13.555,9.627,17.482,16.484c3.667,6.4,5.621,13.974,5.621,21.928
	c0,1.793-0.1,3.807-0.299,5.681c-0.1,0.917,0.08,1.835,0.499,2.632c0.557,1.037,1.594,1.734,2.751,1.833l0.298,0.021
	c1.057,0,2.034-0.478,2.712-1.316l0.259-0.359c1.037-1.415,2.332-2.571,3.747-3.368c1.714-0.998,3.728-1.535,5.661-1.535
	c1.615,0,3.07,0.259,4.505,0.837c1.175,0.459,2.292,1.117,3.388,1.994l52.266,43.036l0.219,0.198
	c1.196,1.077,2.192,2.512,2.791,4.027c0.538,1.355,0.818,2.77,0.818,4.246c0,1.674-0.339,3.248-1.037,4.784
	c-0.639,1.475-1.555,2.751-2.691,3.807l-0.18,0.22L620.83,131.9c-1.016,0.917-1.375,2.313-0.956,3.609
	c1.336,4.066,2.511,8.253,3.429,12.438c0.2,0.898,0.737,1.675,1.515,2.133c0.538,0.359,1.177,0.539,1.814,0.539
	c0.259,0,0.499-0.021,0.758-0.08l26.073-6.039l0.238-0.06c0.718-0.159,1.795-0.339,3.269-0.339c2.772,0,5.482,0.737,7.815,2.073
	c2.313,1.336,4.306,3.289,5.721,5.642l0.1,0.159c1.415,2.392,2.173,5.183,2.153,7.953c0.019,3.966-1.516,7.874-4.227,10.764
	l-0.2,0.2l-21.648,21.35c-1.175,1.135-1.355,2.989-0.419,4.325c4.505,6.558,8.592,13.833,12.12,21.588
	c0.578,1.256,1.814,2.014,3.089,2.014c0.439,0,0.917-0.1,1.336-0.299c1.215-0.499,2.372-0.937,3.528-1.296
	c3.488-1.077,6.976-1.614,10.366-1.614c1.256,0,2.492,0.079,3.628,0.238c4.026,0.459,7.714,1.714,10.983,3.747
	c3.15,1.934,5.88,4.645,7.914,7.914l0.238,0.399c2.472,4.145,3.787,9.09,3.787,14.272c-0.019,4.385-0.897,8.79-2.611,13.115
	c-2.452,6.2-6.459,11.921-11.581,16.545c-2.233,2.033-4.665,3.807-7.137,5.283c-1.335,0.797-1.953,2.371-1.534,3.847
	c0.319,1.056,0.457,2.152,0.457,3.269c0,1.375-0.238,2.751-0.697,4.006c-0.518,1.355-1.276,2.611-2.213,3.668l-2.492,2.83
	c-0.717,0.798-0.996,1.874-0.777,2.931c0.1,0.557,0.18,1.096,0.18,1.615l0.019,0.398v0.18c-0.259,16.864-2.651,33.788-6.917,48.876
	c-0.279,1.017-0.079,2.153,0.599,3.01c0.638,0.818,1.634,1.296,2.671,1.296h0.1c0.459-0.019,0.897-0.019,1.375-0.019
	c2.492,0,5.083,0.24,7.695,0.697c6.976,1.136,13.734,4.067,19.615,8.452c5.64,4.246,10.365,9.828,13.654,16.067
	c3.707,7.076,5.661,14.929,5.661,22.725c0,5.202-0.898,10.226-2.672,14.87c-0.319,0.818-0.299,1.734,0.04,2.532
	c0.259,0.657,0.538,1.335,0.777,2.014l0.06,0.179c1.655,4.964,2.452,10.306,2.472,16.465v0.28
	c-0.021,3.926-0.518,7.773-1.436,11.441c-0.877,3.568-2.093,6.876-3.628,9.867c-3.11,6.08-7.654,11.581-13.156,15.927
	c-5.881,4.624-12.32,7.654-19.077,8.95c-2.63,0.518-6.179,1.077-10.046,1.077c-2.551,0-5.123-0.259-7.655-0.758
	c-3.926-0.816-7.694-2.192-11.182-4.085c-0.499-0.28-1.057-0.419-1.615-0.419c-0.399,0-0.818,0.079-1.196,0.219
	c-5.363,2.033-11.003,3.05-16.824,3.05c-7.655,0-15.409-1.775-22.386-5.104c-6.877-3.308-13.115-8.312-18.079-14.532
	c-2.292-2.91-4.246-6.099-5.861-9.528c-0.419-0.837-1.116-1.476-1.993-1.754c-0.38-0.119-0.718-0.179-1.096-0.179
	c-0.539,0-1.077,0.139-1.576,0.378c-26.292,13.654-56.751,20.571-90.558,20.571c-0.917,0-1.835-0.019-2.791-0.04h-0.08
	c-0.797,0-1.594,0.259-2.212,0.798c-9.708,8.291-20.711,15.647-32.691,21.907c-11.86,6.179-24.299,11.082-36.976,14.631
	c-13.316,3.688-26.671,5.8-39.688,6.279C376.006,517.416,373.793,517.455,371.621,517.455"/>
<path fill="#919191" d="M260.371,434.428c-1.037,0-1.734-0.338-2.591-2.192c-0.079-0.2-0.259-0.319-0.457-0.319h-5.561
	c-0.2,0-0.38,0.139-0.459,0.319c-0.798,1.833-1.635,2.192-2.651,2.192c-1.357,0-2.453-1.096-2.453-2.492
	c0-0.419,0.12-0.897,0.339-1.355l5.701-12.08c0.419-0.937,1.275-1.495,2.273-1.495c1.035,0,1.893,0.558,2.352,1.535l5.701,12.219
	c0.219,0.359,0.319,0.798,0.319,1.217C262.884,433.313,261.747,434.428,260.371,434.428 M254.512,425.418
	c-0.2,0-0.399,0.12-0.459,0.32l-0.917,2.172c-0.08,0.161-0.06,0.339,0.04,0.459c0.1,0.159,0.238,0.24,0.419,0.24h1.854
	c0.179,0,0.319-0.08,0.419-0.24c0.1-0.119,0.1-0.298,0.039-0.459l-0.937-2.172C254.91,425.538,254.731,425.418,254.512,425.418"/>
<path fill="#919191" d="M281.609,434.43c-0.798,0-1.436-0.338-1.975-1.035l-4.744-6.06c-0.1-0.12-0.24-0.2-0.378-0.2l-0.18,0.019
	c-0.198,0.08-0.359,0.259-0.359,0.479v3.826c0,1.157-0.159,1.576-0.557,2.073c-0.479,0.558-1.177,0.897-1.914,0.897
	c-0.777,0-1.515-0.378-1.994-0.976c-0.398-0.539-0.518-0.957-0.518-2.253v-11.482c0-1.634,1.017-2.711,2.612-2.711
	c0.737,0,1.275,0.299,1.853,1.016l4.764,5.861l0.399,0.159h0.159c0.2-0.079,0.339-0.279,0.339-0.498v-3.369
	c0-1.117,0.099-1.555,0.438-2.073c0.459-0.678,1.256-1.096,2.054-1.096c0.717,0,1.394,0.338,1.893,0.917
	c0.438,0.538,0.599,1.076,0.599,2.052v11.123c0,1.436-0.161,1.894-0.558,2.413C283.103,434.072,282.366,434.43,281.609,434.43"/>
<path fill="#919191" d="M294.263,434.43c-0.679,0-1.436-0.338-1.854-0.776c-0.419-0.479-0.638-0.917-0.638-2.173v-11.243
	c0-1.495,0.139-1.893,0.617-2.411c0.479-0.518,1.117-0.818,1.835-0.818c0.737,0,1.396,0.299,1.874,0.797
	c0.438,0.499,0.658,0.977,0.658,2.432v11.243c0,1.016-0.2,1.614-0.639,2.112C295.638,434.091,294.92,434.43,294.263,434.43"/>
<path fill="#919191" d="M321.672,434.43c-1.257,0-2.253-0.757-2.453-1.874l-0.678-3.408c-0.06-0.219-0.238-0.399-0.478-0.399h-0.04
	c-0.2,0-0.398,0.119-0.478,0.319l-1.176,3.229c-0.518,1.416-1.396,2.133-2.591,2.133c-1.256,0-2.012-0.638-2.551-2.112l-1.215-3.25
	c-0.08-0.2-0.28-0.319-0.478-0.319h-0.04c-0.24,0.019-0.439,0.2-0.459,0.399l-0.499,2.91c-0.259,1.475-1.196,2.371-2.492,2.371
	c-1.475,0-2.511-1.135-2.511-2.77c0-0.2,0.04-0.438,0.06-0.678l2.054-11.581c0.259-1.515,1.156-2.392,2.432-2.392
	c1.096,0,2.112,0.678,2.531,1.714l2.712,6.02c0.079,0.179,0.259,0.299,0.457,0.299c0.2,0,0.38-0.12,0.459-0.28l3.031-6.439
	c0.378-0.777,1.275-1.315,2.192-1.315c0.597,0,1.275,0.279,1.714,0.678c0.419,0.419,0.618,0.837,0.777,1.695l2.052,11.72
	c0.08,0.399,0.1,0.718,0.1,0.917C324.103,433.374,323.027,434.43,321.672,434.43"/>
<path fill="#919191" d="M334.499,434.293c-1.395,0-1.695-0.06-2.094-0.219c-0.777-0.298-1.256-0.916-1.415-1.793
	c-0.08-0.339-0.1-0.479-0.1-1.714v-9.848c0-1.495,0.019-1.615,0.24-2.073c0.198-0.538,0.638-1.017,1.196-1.256
	c0.557-0.219,0.618-0.24,2.371-0.24h3.588c1.714,0,1.814,0.04,2.153,0.12c1.037,0.259,1.695,1.096,1.695,2.112
	c0,0.737-0.299,1.396-0.798,1.814c-0.398,0.339-0.837,0.539-1.953,0.539h-2.991c-0.299,0-0.518,0.238-0.518,0.518v1.235
	c0,0.299,0.219,0.518,0.518,0.518h2.352c1.176,0,1.934,0.639,1.934,1.635c0,0.538-0.24,1.016-0.618,1.336
	c-0.299,0.238-0.618,0.338-1.535,0.338h-2.133c-0.299,0-0.518,0.219-0.518,0.518v1.355c0,0.28,0.219,0.518,0.518,0.518h2.731
	c1.296,0,1.694,0.159,2.192,0.558c0.498,0.438,0.797,1.077,0.797,1.734c0,0.678-0.319,1.355-0.797,1.795
	c-0.478,0.359-0.837,0.498-2.173,0.498H334.499z"/>
<path fill="#919191" d="M355.542,424.695c-0.299-0.457-0.718-0.737-1.136-0.897c-0.419-0.179-0.858-0.219-1.276-0.219h-3.07
	c-0.518,0-0.877,0.019-1.256,0.119c-0.359,0.1-0.678,0.319-0.898,0.518l-0.019,0.021c-0.438,0.359-0.737,0.956-0.718,1.555
	c-0.019,0.518,0.219,1.076,0.599,1.455h-0.021l0.021,0.019c0.238,0.24,0.557,0.499,0.956,0.618c0.399,0.14,0.798,0.159,1.336,0.159
	h3.129c0.678,0,1.316-0.159,1.854-0.558c0.499-0.398,0.818-1.056,0.797-1.714C355.84,425.374,355.741,425.015,355.542,424.695"/>
<path fill="#919191" d="M369.345,434.761c-5.024,0-9.11-4.066-9.11-9.049c0-4.963,4.066-8.99,9.09-8.99
	c1.655,0,3.369,0.478,4.824,1.355c1.096,0.698,1.635,1.476,1.635,2.372c0,1.355-1.157,2.492-2.553,2.492
	c-0.219,0-0.478-0.06-0.557-0.1l-1.316-0.698c-0.797-0.358-1.534-0.538-2.152-0.538c-2.113,0-3.967,1.914-3.967,4.066
	c0,2.253,1.835,4.087,4.087,4.087c0.897,0,1.436-0.238,2.313-0.757c0.2-0.12,0.298-0.359,0.238-0.558
	c-0.06-0.24-0.259-0.38-0.478-0.38h-0.877c-0.757,0-2.052-0.238-2.052-1.674c0-0.398,0-1.674,2.292-1.674l2.073,0.019
	c2.093,0.06,2.452,0.259,2.87,0.758c0.478,0.558,0.678,1.276,0.658,2.292l-0.021,1.574c-0.06,1.476-0.06,1.476-0.179,1.835
	c-0.259,0.818-1.355,1.833-2.751,2.551C372.135,434.403,370.76,434.761,369.345,434.761"/>
<path fill="#919191" d="M396.285,434.428c-1.037,0-1.734-0.338-2.591-2.192c-0.079-0.2-0.259-0.319-0.457-0.319h-5.561
	c-0.2,0-0.38,0.139-0.459,0.319c-0.777,1.833-1.614,2.192-2.651,2.192c-1.357,0-2.453-1.096-2.453-2.492
	c0-0.419,0.12-0.897,0.339-1.355l5.701-12.08c0.419-0.937,1.275-1.495,2.273-1.495c1.035,0,1.893,0.558,2.352,1.535l5.701,12.219
	c0.219,0.359,0.319,0.798,0.319,1.217C398.798,433.313,397.661,434.428,396.285,434.428 M390.426,425.418
	c-0.2,0-0.399,0.12-0.459,0.32l-0.917,2.172c-0.08,0.161-0.06,0.339,0.04,0.459c0.1,0.159,0.238,0.24,0.419,0.24h1.854
	c0.179,0,0.319-0.08,0.419-0.24c0.1-0.119,0.1-0.298,0.039-0.459l-0.937-2.172C390.824,425.538,390.645,425.418,390.426,425.418"/>
<path fill="#919191" d="M408.82,434.43c-0.838,0-1.595-0.398-2.073-1.056c-0.299-0.459-0.419-0.857-0.419-2.052v-9.091
	c0-0.298-0.24-0.517-0.499-0.517h-1.614c-0.877,0-1.455-0.18-1.894-0.639c-0.478-0.478-0.697-1.037-0.697-1.634
	c0-0.818,0.558-1.735,1.236-2.033c0.538-0.22,0.678-0.259,3.049-0.259h6.041c1.634,0,1.634,0,1.973,0.06
	c1.196,0.159,1.993,1.037,1.993,2.212c0,0.618-0.299,1.316-0.797,1.775c-0.359,0.358-1.017,0.518-1.973,0.518h-1.336
	c-0.279,0-0.498,0.219-0.498,0.517v9.03c0,0.998-0.12,1.516-0.439,2.054C410.414,434.032,409.677,434.43,408.82,434.43"/>
<path fill="#919191" d="M433.602,434.428c-1.017,0-1.734-0.338-2.572-2.192c-0.099-0.2-0.279-0.319-0.457-0.319h-5.582
	c-0.179,0-0.378,0.139-0.459,0.319c-0.777,1.833-1.615,2.192-2.63,2.192c-1.376,0-2.472-1.096-2.472-2.492
	c0-0.419,0.119-0.897,0.339-1.355l5.7-12.08c0.419-0.937,1.276-1.495,2.293-1.495c1.016,0,1.874,0.558,2.331,1.535l5.722,12.219
	c0.198,0.359,0.298,0.798,0.298,1.217C436.113,433.313,434.998,434.428,433.602,434.428 M427.762,425.418
	c-0.22,0-0.399,0.12-0.479,0.32l-0.916,2.172c-0.08,0.161-0.061,0.339,0.039,0.459c0.1,0.159,0.24,0.24,0.419,0.24h1.854
	c0.18,0,0.319-0.08,0.419-0.24c0.1-0.119,0.12-0.298,0.04-0.459l-0.917-2.172C428.16,425.538,427.961,425.418,427.762,425.418"/>
<path fill="#919191" d="M452.387,434.438c-0.897,0-1.595-0.398-2.052-1.156l-2.492-4.106c-0.061-0.159-0.24-0.259-0.419-0.259
	l-0.14,0.019c-0.219,0.06-0.359,0.28-0.359,0.518v2.472c0,1.415-1.056,2.511-2.432,2.511c-0.777,0-1.515-0.359-1.954-0.897
	c-0.419-0.538-0.597-1.236-0.597-2.252v-11.183c0-1.175,0.2-1.774,0.818-2.292c0.518-0.478,0.956-0.678,2.371-0.678h2.512
	c1.475,0,2.052,0.079,2.79,0.259c2.572,0.737,4.367,3.11,4.367,5.78c0,1.635-0.499,2.851-1.795,4.286
	c-0.159,0.179-0.179,0.438-0.06,0.618l1.436,2.273c0.298,0.478,0.478,1.076,0.478,1.653
	C454.86,433.382,453.783,434.438,452.387,434.438 M447.425,421.68l-0.359,0.14l-0.14,0.359v1.973c0,0.299,0.2,0.499,0.499,0.499
	h0.657c0.618,0,1.057-0.1,1.355-0.319c0.22-0.2,0.518-0.539,0.518-1.136c0-0.718-0.478-1.495-1.814-1.495h-0.139
	c-0.159,0-0.32,0-0.518-0.021H447.425z"/>
<path fill="#919191" d="M464.515,434.43c-0.679,0-1.436-0.338-1.854-0.776c-0.419-0.479-0.638-0.917-0.638-2.173v-11.243
	c0-1.495,0.139-1.893,0.617-2.411c0.479-0.518,1.117-0.818,1.835-0.818c0.737,0,1.415,0.299,1.874,0.797
	c0.459,0.499,0.658,0.977,0.658,2.432v11.243c0,1.016-0.18,1.614-0.639,2.112C465.89,434.091,465.172,434.43,464.515,434.43"/>
<path fill="#919191" d="M480.225,434.761c-3.549,0-6.319-1.813-6.319-4.106c0-1.235,0.956-2.192,2.212-2.192
	c0.618,0,1.157,0.2,1.814,0.758c1.316,0.996,1.595,1.215,2.213,1.215c0.737,0,1.296-0.538,1.296-1.296
	c0-0.638-0.419-0.996-0.718-1.196c-0.2-0.14-0.319-0.219-1.296-0.558c-0.478-0.179-0.977-0.338-1.455-0.518
	c-2.432-0.857-3.628-2.411-3.628-4.704c0-3.269,2.472-5.442,6.16-5.442c2.989,0,5.322,1.515,5.322,3.469
	c0,1.136-0.757,1.953-1.833,1.953c-0.718,0-1.256-0.238-2.173-0.937c-0.578-0.478-1.016-0.757-1.555-0.757
	c-0.657,0-1.236,0.578-1.236,1.236c0,0.956,0.818,1.296,2.173,1.734c1.455,0.438,2.871,1.117,3.688,1.795
	c1.017,0.837,1.635,2.352,1.635,3.907c0,1.495-0.558,2.93-1.574,3.966C483.833,434.223,482.318,434.761,480.225,434.761"/>
<path fill="#919191" d="M558.809,73.933c-0.998-0.657-2.034-1.275-3.031-1.874c-23.382-13.634-49.853-20.312-76.943-17.72
	c-13.316,1.276-26.353,4.805-38.592,10.186c-0.956,0.419-1.913,0.837-2.87,1.296c-0.757,0.28-1.156-0.259-1.196-0.718l-2.511-42.897
	c-0.339-3.129-2.532-5.542-5.622-6.08c-0.419-0.1-0.876-0.14-1.294-0.14c-2.553,0-4.904,1.376-6.06,3.609l-21.15,39.528
	c-0.159,0.299-0.478,0.459-0.757,0.459c-0.2,0-0.419-0.1-0.599-0.24c-9.846-9.249-22.425-17.381-36.757-23.641
	c-18.538-8.093-39.986-13.017-62.193-13.017c-11.621,0-23.462,1.355-35.183,4.306c-16.026,4.067-31.355,10.306-45.348,18.438
	c-0.38,0.24-0.319,0.798,0.1,0.937l8.591,2.91c0.24,0.08,0.459,0.061,0.678-0.06c11.881-6.477,24.717-11.441,38.272-14.67
	c11.362-2.672,22.784-3.967,34.067-3.967c37.076,0,73.175,13.954,103.634,39.21c0.28,0.259,0.618,0.359,0.937,0.359
	c0.399,0,0.758-0.14,1.057-0.439c0.538-0.538,0.578-1.395,0.079-1.993c-0.857-1.037-1.774-2.094-2.711-3.13
	c-0.259-0.238-0.319-0.657-0.14-0.976c0,0,20.592-36.439,20.611-36.479c0.439-0.737,1.196-1.436,2.113-1.336
	c1.077,0.119,1.714,1.176,1.854,2.133L432.29,71.8c0.12,0.38,0.359,0.718,0.698,0.898c0.2,0.119,0.459,0.159,0.697,0.159
	c0.219,0,0.459-0.04,0.678-0.14c23.921-11.96,51.847-14.472,77.92-9.13c16.027,3.29,31.455,9.629,45.05,18.758
	c0.359,0.259,0.877,0.159,1.136-0.2l3.747-4.884c0.299-0.399,0.2-0.958-0.2-1.236C560.961,75.309,559.905,74.591,558.809,73.933"/>
<path fill="#919191" d="M558.461,53.045c-0.259-0.378-0.359-0.816-0.259-1.256c3.029-15.448-2.034-30.398-17.063-38.212
	c-15.369-7.953-33.708-2.95-44.392,10.466c-0.22,0.299-0.558,0.498-0.937,0.618c-3.29,0.877-6.578,2.271-9.728,4.206
	c-5.74,3.488-10.904,8.65-14.133,15.369c-1.117,2.312-1.874,4.266-2.372,5.9c-0.139,0.479,0.259,0.937,0.758,0.858
	c2.452-0.419,4.903-0.758,7.356-0.977c0.279-0.04,0.518-0.238,0.578-0.518c0.459-1.833,1.136-3.588,2.012-5.302
	c1.217-2.432,2.831-4.705,4.705-6.717c1.914-2.034,4.106-3.828,6.479-5.303c2.83-1.774,5.92-3.109,9.07-3.886l0.319-0.1
	c2.014-0.479,4.047-0.718,6.059-0.718c2.173,0,4.326,0.279,6.359,0.916c0.558,0.161,1.096-0.099,1.355-0.597
	c0.219-0.499,0.08-1.096-0.399-1.415c-2.152-1.455-4.744-2.332-7.614-2.672c-0.539-0.079-0.737-0.777-0.299-1.096
	c8.83-6.897,21.21-8.253,31.515-2.791c11.781,6.24,17.741,19.655,14.491,32.632c-0.2,0.837-0.079,1.734,0.299,2.472
	c1.933,3.627,3.05,7.673,3.309,11.76c0.019,0.259,0.179,0.518,0.419,0.658c2.532,1.475,5.024,3.029,7.454,4.665
	c0.339,0.238,0.818,0,0.818-0.399C564.56,65.305,561.988,58.287,558.461,53.045"/>
<path fill="#919191" d="M113.788,402.641c-0.08-0.139-0.161-0.298-0.259-0.419c-5.163-4.843-9.987-10.046-14.412-15.647
	c-2.81-3.448-5.223-7.176-7.834-10.784c-0.837-1.156-1.535-2.471-2.273-3.688c-3.05-4.903-5.78-10.046-8.153-15.309
	c-0.638-1.395-1.236-2.79-1.814-4.225c-0.139-0.319-0.498-0.538-0.857-0.518l-6.538,0.578c-0.339,0.04-0.578,0.399-0.439,0.697
	c6.16,15.649,15.11,30.159,26.233,42.758c1.993,2.273,4.026,4.505,6.218,6.619c3.748,3.588,7.415,7.156,11.422,10.424
	c0.38,0.32,0.938-0.039,0.838-0.498L113.788,402.641z"/>
<path fill="#919191" d="M76.278,251.543v-0.039c0.517-1.535,1.076-3.031,1.694-4.525l0.837-2.113c0.06-0.18,0.08-0.339,0.04-0.499
	l-2.152-9.568c-0.1-0.459-0.758-0.538-0.957-0.119c-1.495,3.01-2.87,6.039-4.146,9.109c-0.359,0.858-0.718,1.695-1.016,2.532
	c-0.419,1.056-0.798,2.093-1.196,3.15c-0.518,1.415-1.017,2.849-1.495,4.306c-3.449,10.424-5.701,21.228-6.657,32.252
	c-0.04,0.498,0.338,0.916,0.837,0.937l5.861,0.2c0.457,0,0.837-0.319,0.877-0.777c0.937-11.084,3.189-21.987,6.657-32.512
	C75.739,253.079,75.978,252.301,76.278,251.543"/>
<path fill="#919191" d="M648.063,236.397c0.937-0.219,1.793-0.697,2.452-1.434c0.638-0.737,1.315-1.476,2.033-2.133
	c0.24-0.24,0.319-0.599,0.2-0.917c-5.363-14.352-12.579-27.289-21.329-37.774c-0.299-0.358-0.28-0.837,0.04-1.156l29.142-28.704
	c1.933-2.073,2.233-4.943,0.818-7.335c-1.156-1.954-3.19-3.09-5.283-3.09c-0.459,0-0.937,0.061-1.396,0.159l-38.65,8.97l-0.18,0.021
	c-0.419,0-0.777-0.32-0.818-0.758c-1.037-9.03-3.129-17.801-6.12-26.193c-0.179-0.478-0.757-0.597-1.116-0.279l-4.166,3.747
	c-0.24,0.2-0.319,0.578-0.22,0.898c3.09,8.591,5.044,17.521,5.781,26.691c0.119,1.395,0.678,2.093,2.113,1.874l40.743-7.774
	c0.299-0.06,0.599-0.019,0.838,0.159c0.198,0.159,0.338,0.378,0.398,0.618c0.08,0.339-0.06,0.658-0.298,0.897l-24.638,26.253
	l-0.119,0.119c-0.18,0.18-0.399,0.24-0.599,0.24c-0.259,0-0.478-0.06-0.658-0.24c-0.737-0.797-1.475-1.555-2.271-2.332
	c-0.28-0.279-0.658-0.419-1.037-0.419c-0.32,0-0.678,0.12-0.977,0.38c-0.558,0.498-0.678,1.355-0.2,1.973
	c10.585,14.451,18.778,30.358,24.498,47.003C647.186,236.258,647.643,236.497,648.063,236.397"/>
<path fill="#919191" d="M663.481,300.813l-6.918,7.855c-0.119,0.1-0.179,0.279-0.179,0.459
	c-1.256,15.728-4.983,32.192-10.506,46.884c-0.179,0.478,0.14,1.016,0.658,1.096c1.017,0.179,2.413,0.478,2.632,0.538
	c1.415,0.28,2.791,0.639,4.146,1.077c0.457,0.14,0.916-0.08,1.076-0.499c6.479-17.402,9.708-37.953,9.987-57.05
	C664.397,300.693,663.799,300.455,663.481,300.813"/>
<path fill="#919191" d="M149.083,141.051c-0.08,0.42-0.42,0.718-0.838,0.718l-0.279-0.06l-41.96-14.352
	c-0.678-0.18-1.355-0.299-2.033-0.299c-2.313,0-4.426,1.136-5.741,3.169c-1.674,2.591-1.475,5.92,0.459,8.133l29.582,35.821
	c0.319,0.398,0.238,0.956-0.18,1.256c-6.02,4.106-11.721,8.531-17.003,13.276c-0.339,0.279-0.159,0.837,0.259,0.897l5.6,0.857
	c0.24,0,0.499-0.039,0.679-0.219c5.362-4.744,11.123-9.07,17.281-13.036c0.359-0.219,0.579-0.578,0.639-0.977
	c0.079-0.419-0.021-0.837-0.28-1.156l-0.657-0.858l-27.449-36.817c-0.478-0.518-0.219-1.056-0.06-1.336
	c0.259-0.419,0.618-0.498,0.877-0.498c0.179,0,0.319,0.04,0.398,0.06l39.21,11.741c0.378,0.12,0.638,0.499,0.597,0.877
	c-0.219,2.352-0.378,4.705-0.459,7.076c-0.019,0.758,0.539,1.416,1.296,1.516h0.18c0.697,0,1.315-0.479,1.455-1.217
	c3.388-17.183,9.528-33.329,17.92-47.96c0.159-0.279,0-0.678-0.338-0.737l-7.077-1.315c-0.359-0.06-0.757,0.119-0.916,0.459
	C154.804,116.972,150.976,128.692,149.083,141.051"/>
<path fill="#909293" d="M587.893,433.825c0-1.056,0.039-2.072,0.119-3.109c0.019-0.439-0.419-0.698-0.758-0.479
	c-3.388,2.213-8.172,5.104-11.94,7.097c-23.362,12.478-51.149,19.555-83.282,21.07c-0.777,0-1.156-0.877-0.658-1.436
	c3.927-4.206,7.475-8.531,10.525-12.996c0.419-0.599,0.299-1.436-0.259-1.954c-0.279-0.259-0.618-0.359-0.977-0.359
	c-0.359,0-0.697,0.12-0.977,0.359c-19.335,17.442-38.232,31.396-58.206,41.203c-19.974,9.788-41.023,15.409-64.765,16.246
	c-2.073,0.08-4.145,0.119-6.199,0.119c-22.147,0-43.695-4.166-63.747-12.119c-20.053-7.934-38.652-19.695-54.837-34.964
	c-1.357-1.215-1.954-1.853-2.95-1.793c-0.937,0.04-1.894,0.996-2.651,1.694l-26.612,24.139c-0.478,0.419-0.956,0.858-1.415,1.296
	c-0.658,0.579-1.476,1.595-2.512,1.355c-0.438-0.099-0.837-0.398-1.076-0.816c-0.259-0.499-0.159-1.037-0.04-1.595l8.172-39.887
	c0.1-0.539,0.2-1.077,0.319-1.635c0.24-1.037-0.438-2.073-1.475-2.312c-0.159-0.04-0.319-0.04-0.459-0.04
	c-0.877,0-1.694,0.558-1.893,1.455l-1.455,5.502l-0.04,0.079c-0.2,0.658-0.558,0.998-1.436,1.136c-1.614,0.06-3.248,0.1-4.863,0.1
	c-17.941,0-35.402-3.428-51.609-9.748c-0.338-0.139-0.717,0.14-0.697,0.518l0.618,6.22c0.04,0.319,0.259,0.618,0.578,0.737
	c16.027,5.782,33.01,8.871,50.133,8.871c1.355,0,2.691-0.019,4.026-0.079c0.599,0,0.998,0.538,0.858,1.076l-8.871,32.991
	c-0.179,0.599-0.259,1.177-0.259,1.734c0,1.994,0.977,3.908,2.711,5.104c1.037,0.697,2.213,1.096,3.409,1.096h0.159
	c1.375,0,2.751-0.499,3.828-1.396l0.079-0.06l22.644-21.768l8.114-7.813c0.279-0.259,0.597-0.359,0.937-0.359
	c0.319,0,0.638,0.1,0.897,0.359c33.987,31.336,75.648,49.296,121.655,49.296c2.093,0,4.166-0.04,6.258-0.1
	c25.136-0.898,50.512-8.352,72.558-19.814c12.439-6.498,23.821-14.292,33.469-22.944c0.717-0.638,1.634-0.956,2.591-0.937
	c2.093,0.06,4.126,0.1,6.179,0.1c35.6,0,67.155-8.153,92.93-23.203c1.016-0.599,2.033-1.156,3.029-1.774
	c0.28-0.159,0.439-0.499,0.399-0.837C587.972,436.915,587.893,435.36,587.893,433.825"/>
<path fill="#E95383" d="M431.891,211.092l-1.695,19.236l-0.378,4.365h-0.021l-0.438,4.365l-0.698,7.316
	c-0.06,0.758-0.697,1.376-1.475,1.415l-120.937,4.127c-0.877,0.04-1.595-0.638-1.615-1.515l-1.116-37.615
	c-0.021-0.937,0.757-1.674,1.694-1.614l92.452,7.555c0.858,0.079,1.595-0.579,1.674-1.416l0.758-8.65
	c0.08-0.837,0.818-1.476,1.674-1.395l28.685,2.133C431.332,209.458,431.97,210.236,431.891,211.092"/>
<path fill="#E95383" d="M412.812,155.632l-4.267,23.661c-0.159,0.818-0.937,1.376-1.774,1.256l-78.638-12.538
	c-0.837-0.119-1.434-0.877-1.315-1.734l4.306-35.383c0.119-0.937,1.056-1.555,1.973-1.315l78.598,24.259
	C412.473,154.058,412.972,154.835,412.812,155.632"/>
<path fill="#FCCB00" d="M637.921,102.956c0.797-0.717,1.035-2.072,0.238-2.81L586.074,57.29c-1.057-0.898-2.612-0.996-3.509,0.438
	l-73.555,96.379c-0.777,1.037-2.312,1.096-3.149,0.1l-38.951-45.389c-0.777-0.897-2.173-0.937-3.01-0.079l-36.857,38.132
	c-0.837,0.877-0.737,2.293,0.219,3.031l51.609,40.426c0.857,0.678,1.037,1.933,0.358,2.83l-33.03,43.316
	c-0.718,0.937-0.498,2.271,0.478,2.949l21.11,14.053c0.777,0.518,1.814,0.459,2.492-0.179l40.266-36.06
	c0.718-0.658,1.833-0.697,2.611-0.08l36.439,29.144c0.777,0.638,1.914,0.578,2.651-0.1l16.883-15.747
	c0.798-0.758,0.877-1.994,0.159-2.831l-29.501-33.867c-0.737-0.838-0.638-2.113,0.18-2.851L637.921,102.956z"/>
<path fill="#34BDE7" d="M504.596,284.266l-23.901,114.061c-0.279,0.777-1.077,1.215-1.854,1.037l-30.638-1.376
	c-0.857-0.2-1.395-1.056-1.196-1.914l12.898-110.631c0.219-0.877,0.916-1.833,2.073-1.973l41.541-1.236
	C504.695,282.233,504.894,283.41,504.596,284.266"/>
<path fill="#34BDE7" d="M429.125,324.835l-0.14,26.831c0.019,0.818-0.599,1.495-1.395,1.576l-38.671,4.266
	c-0.858,0.1-1.635-0.538-1.734-1.395l-8.692-76.943c-0.1-0.917,0.599-1.735,1.515-1.735l35.402-0.916
	c0.877-0.021,1.635,0.697,1.615,1.594l-0.438,44.95c-0.019,0.977,0.857,1.735,1.814,1.595l8.89-1.336
	C428.248,323.182,429.104,323.898,429.125,324.835"/>
<path fill="#FCCB00" d="M366.735,291.197l-29.482,105.19c-0.24,0.877-1.037,1.475-1.954,1.436l-26.791-1.416
	c-1.117-0.04-1.954-1.037-1.814-2.133l4.584-28.146c0.14-0.956-0.518-1.894-1.455-2.133l-16.924-3.787
	c-0.977-0.219-1.615-1.176-1.475-2.153l1.993-12.677c0.14-0.916,0.937-1.615,1.874-1.634l17.701-0.14
	c0.958-0.019,1.754-0.718,1.874-1.674l4.206-27.827c0.159-1.157-0.777-2.194-1.953-2.173l-35.522,1.275
	c-1.056,0.04-1.893,0.917-1.853,1.954l0.398,25.535c0.021,0.977-0.678,1.795-1.614,1.933l-30.976,4.845
	c-1.196,0.219-2.273-0.738-2.233-1.934l2.172-73.655c0.04-1.156,1.077-2.033,2.233-1.853l115.456,18.757
	C366.296,288.985,367.033,290.082,366.735,291.197"/>
<path fill="#E95383" d="M225.643,299.742l-82.425-4.604c-0.898-0.06-1.614-0.758-1.695-1.614l-9.09-94.984
	c-0.1-0.818-0.698-1.475-1.515-1.595l-12.239-1.874l-2.751-0.399l-2.711-0.398l-6.977-1.077l-2.69-0.399l-2.672-0.419l-27.508-4.146
	c-1.296-0.198-2.432,1.017-2.133,2.293l6.897,30.837l0.697,3.089l0.698,3.11l2.312,10.306l0.758,3.467l0.818,3.628l10.067,44.95
	c0.279,1.196-0.718,2.372-1.973,2.292l-66.001-2.012c-1.336-0.04-2.372,1.296-1.933,2.531l12.698,35.761l2.671,7.475l4.744,13.435
	c0.28,0.777,1.037,1.276,1.894,1.196l58.704-5.183c0.937-0.1,1.754,0.478,1.953,1.376l22.924,106.803
	c0.219,1.057,1.296,1.635,2.332,1.316l23.362-7.596c0.877-0.279,1.436-1.116,1.336-1.993l-9.928-102.34
	c-0.1-1.037,0.678-1.993,1.714-2.112l33.987-3.489c0.977-0.119,1.833,0.558,1.973,1.535l6.578,49.615
	c0.159,1.136,1.275,1.833,2.352,1.475l27.568-8.631c0.777-0.24,1.336-0.917,1.376-1.695l5.521-77.999
	C227.417,300.64,226.64,299.803,225.643,299.742"/>
<path fill="#E95383" d="M669.864,287.011c1.035-1.175,0.378-3.029-1.197-3.268l-142.584-22.007c-1.117-0.14-2.113,0.597-2.253,1.694
	l-7.195,52.506c-0.14,1.196,0.737,2.233,1.914,2.271l74.849,2.014c1.754,0.04,2.591,2.133,1.376,3.369l-79.754,82.704
	c-0.977,0.998-0.658,2.672,0.657,3.23l38.333,16.285c0.816,0.359,1.753,0.12,2.332-0.557l34.126-45.628
	c0.897-1.117,2.93-1.635,3.907-0.499l38.951,45.129c0.797,1.037,2.152,1.177,3.01,0.578l32.751-27.727
	c0.916-0.777,0.937-2.192,0.039-2.989l-55.315-40.506c-0.837-0.737-0.898-1.993-0.18-2.81L669.864,287.011z"/>
<path fill="#34BDE7" d="M268.722,67.82L124.064,18.903c-0.977-0.179-1.874,0.499-1.933,1.476l3.269,72.737
	c-0.021,0.857,0.638,1.634,1.515,1.694l132.259,24.658c5.82,0.917,10.604,3.828,13.016,8.692c1.057,2.052,1.595,4.325,1.655,6.757
	v0.24l-0.019,0.198c-0.499,6.538-4.047,13.994-15.409,15.409h-0.06c-0.439,0.04-0.897,0.1-1.396,0.12
	c-1.674,0.139-3.349,0.079-5.003-0.04l-39.967-2.95c-0.998,0-1.735,0.877-1.615,1.795l9.627,65.8
	c0.459,3.409,0.618,3.568-1.535,3.388l-4.983-0.597c-1.196-0.14-2.252,0.877-2.112,2.093l2.571,24.199
	c0.1,1.057,1.057,1.814,2.073,1.695l26.971-2.97c7.953-0.618,10.425-2.093,9.886-7.755v-0.039l-5.701-51.229
	c-0.079-0.937,0.639-1.735,1.616-1.774l12.578-0.159c27.249,0.518,51.209-21.329,52.226-48.559
	C314.828,100.751,298.084,77.966,268.722,67.82"/>
<path fill="#E95383" d="M690.831,253.255c-1.975,4.924-5.163,9.369-9.091,12.917c-3.787,3.409-8.291,6.1-13.236,7.436
	c-5.421,1.494-11.66,1.335-16.465-1.894c-1.874-1.275-3.428-2.97-4.584-4.903c-1.495-2.532-4.066-4.365-6.997-4.665
	c-0.299-0.021-0.618-0.04-0.917-0.04c-2.012,0-3.986,0.697-5.6,1.954c-4.067,3.208-8.692,4.983-13.057,4.983
	c-0.597,0-1.196-0.04-1.795-0.1c-3.867-0.459-6.857-2.332-8.71-5.423c-2.194-3.707-2.332-8.711-0.359-13.734
	c1.893-4.764,5.362-8.891,9.627-11.741c4.745-3.15,10.963-4.944,16.505-2.731c1.576,0.638,2.91,1.754,4.146,2.93
	c2.033,2.034,5.143,3.01,7.974,2.453c2.073-0.399,3.807-1.416,5.202-2.971c4.026-4.444,9.149-8.032,14.891-9.807
	c2.411-0.757,4.943-1.196,7.475-1.196c0.857,0,1.694,0.061,2.492,0.159c5.322,0.639,9.489,3.21,12.019,7.475
	C693.402,239.462,693.561,246.319,690.831,253.255"/>
<path fill="#E95383" d="M228.213,285.531c-1.775,1.975-4.008,3.01-6.519,3.01c-3.648,0-7.316-2.331-9.827-6.218
	c-1.355-2.054-3.588-3.269-6.02-3.329h-0.14c-2.372,0-4.584,1.135-5.98,3.129c-0.419,0.578-0.877,1.175-1.336,1.694
	c-2.77,3.031-6.379,4.724-10.286,4.724c-9.727,0-18.738-10.286-20.053-22.923c-0.739-7.196,1.096-13.814,5.043-18.219
	c2.751-3.029,6.398-4.705,10.266-4.705c7.614,0,15.01,6.239,18.379,15.549c0.816,2.212,2.651,3.907,4.923,4.544
	c0.639,0.159,1.296,0.28,1.954,0.28c1.655,0,3.289-0.578,4.605-1.675c1.594-1.275,3.469-1.973,5.442-1.973
	c6.199,0,11.9,6.538,12.757,14.552C231.88,278.536,230.724,282.761,228.213,285.531"/>
<path fill="#919191" d="M707.571,425.222c-0.459-1.355-1.037-2.69-1.716-3.947c-0.697-1.256-1.734-2.012-0.916-3.448
	c5.88-10.266,4.704-23.422-0.658-33.628c-5.302-10.067-15.05-17.601-26.332-19.494c-4.066-0.678-8.352-0.818-12.399,0.159
	c-1.037,0.238-2.054,0.578-3.029,0.977c-0.399,0.179-0.917,0.457-1.355,0.538c-0.599,0.119-0.877-0.08-1.436-0.419
	c-7.815-4.665-17.302-6.22-26.193-4.346c-0.419,0.08-0.538,0.658-0.2,0.917l5.223,3.828c0.159,0.119,0.378,0.179,0.578,0.159
	c2.831-0.359,5.701-0.061,8.471,0.498c2.073,0.419,4.107,1.037,6.06,1.874c4.266,1.854,7.934,4.805,11.562,7.675
	c0.399,0.299,0.837,0.658,1.336,0.618l0.298-0.1c0.28-0.2,0.22-0.618,0.021-0.897c-0.877-1.236-1.994-2.413-3.11-3.509
	c-0.399-0.378-0.18-1.056,0.359-1.156c18.837-2.991,33.767,10.366,37.355,27.249c1.436,6.678,0.798,13.415-1.594,19.694
	c-0.22,0.558-0.2,1.177,0.079,1.714c0.837,1.714,1.495,3.549,1.954,5.482c0.079,0.219,0.119,0.459,0.179,0.697
	c4.127,19.336-6.657,38.731-27.628,42.539c-3.628,0.678-7.216,0.737-10.704,0.079c-2.91-0.518-5.721-1.415-8.412-2.591
	c-0.599-0.259-0.777-1.037-0.359-1.574c3.469-4.425,5.262-8.332,6.179-10.963c0.279-0.797-0.758-1.376-1.296-0.698
	c-2.273,2.931-4.206,4.944-7.555,8.014c-2.192,1.973-4.644,3.647-7.395,4.724c-0.2,0.079-0.378,0.159-0.599,0.238
	c-0.937,0.32-1.893,0.599-2.83,0.818c-5.103,1.057-10.385,1.037-15.449-0.139c-4.924-1.157-9.568-3.349-13.595-6.4
	c-4.047-3.089-7.435-6.997-9.827-11.482c-3.11-5.78-4.624-12.378-4.006-18.937c0.597-6.598,3.348-12.817,7.515-17.96
	c0.816-1.016,1.335-1.674,0.916-3.029c-0.019-0.14-0.079-0.299-0.139-0.439c-1.017-3.07-1.416-6.239-1.296-9.408
	c0.019-0.2-0.06-0.398-0.2-0.558l-2.77-3.208c-0.28-0.339-0.838-0.18-0.898,0.259c-0.2,1.494-0.319,3.029-0.319,4.544
	c0.019,1.256,0.119,2.492,0.259,3.728c0.08,0.618,0.219,1.215,0.339,1.814c0.219,1.056,0.419,2.492,0.198,3.169
	c-0.238,0.718-1.415,2.133-2.233,3.05c-0.976,1.136-1.853,2.352-2.671,3.607c-3.528,5.522-5.362,12.08-5.442,18.618
	c-0.04,2.87,0.28,5.741,0.937,8.552c1.376,5.681,3.927,11.103,7.575,15.687c3.947,4.983,8.99,9.109,14.691,11.86
	c10.247,4.904,22.665,5.722,33.15,1.136c0.937-0.398,1.793-0.877,2.691-1.315c0.538-0.279,1.116-0.459,1.674-0.359
	c0.478,0.119,0.837,0.419,1.236,0.697c3.567,2.632,7.834,4.505,12.259,5.423c4.744,0.977,9.209,0.558,13.914-0.339
	c10.764-2.052,20.552-10.126,25.475-19.794c1.275-2.511,2.192-5.123,2.87-7.815c0.757-3.07,1.116-6.119,1.136-9.169
	C709.523,434.392,709.026,429.568,707.571,425.222"/>
<path fill="#919191" d="M109.001,414.711c-4.645,6.14-11.143,11.084-19.317,14.692c-4.047,1.813-8.61,2.77-13.255,2.77
	c-10.744,0-20.592-4.884-26.312-12.817c-0.04-0.019-0.04-0.04-0.079-0.08c-0.639-0.857-1.814-0.757-2.372-0.657l-0.06-0.021
	c-1.695,0.24-3.429,0.399-5.223,0.399c-8.172,0-16.983-2.611-23.402-9.448c-6.657-7.136-10.186-16.465-10.186-25.854
	c-0.019-11.562,5.462-23.243,17.063-30.997l0.019-0.021c0.837-0.557,1.436-1.674,1.535-3.208v-0.14
	c0.179-5.98,2.093-11.482,5.062-16.067c0.24-0.358,0.777-0.279,0.917,0.12l2.372,6.677c0.079,0.24,0.06,0.479-0.08,0.698
	c-0.238,0.478-0.518,0.977-0.757,1.455c-1.535,3.129-2.591,6.479-3.01,9.967c-0.14,1.177-0.777,2.252-1.695,2.93l-0.04,0.021
	c-0.597,0.438-1.236,0.897-1.833,1.315c-1.355,0.956-2.611,1.854-3.648,2.81c-6.778,6.319-10.187,14.891-10.187,23.483
	c0,7.853,2.831,15.707,8.592,21.867c6.12,6.558,15.01,9.687,23.761,9.687c4.843,0,9.647-0.956,13.893-2.77
	c0.439-0.2,0.917-0.04,1.176,0.359c0.219,0.399,0.14,0.917-0.2,1.215c-1.475,1.257-3.309,2.332-5.421,3.23
	c-0.439,0.179-0.558,0.777-0.18,1.096c6.12,5.022,13.077,7.675,20.233,7.675c3.448,0,6.957-0.639,10.425-1.835
	c6.638-2.332,12.259-6.479,16.306-12.478l0.159-0.259c0.2-0.28,0.259-0.378,0.378-0.578c0.399-0.578,0.638-0.518,1.196,0.019
	c1.436,1.315,2.551,2.313,4.006,3.568C109.18,413.835,109.259,414.354,109.001,414.711"/>
</svg>
