<?xml version="1.0" encoding="utf-8"?>
<!-- Generator: Adobe Illustrator 27.0.1, SVG Export Plug-In . SVG Version: 6.00 Build 0)  -->
<svg version="1.1" id="레이어_1" xmlns="http://www.w3.org/2000/svg" xmlns:xlink="http://www.w3.org/1999/xlink" x="0px"
	 y="0px" viewBox="0 0 720 183.012" enable-background="new 0 0 720 183.012" xml:space="preserve">
<path fill="#F08340" d="M123.924,134.243c3.877-6.344,6.394-13.611,6.881-21.432c0.503-16.11-9.315-30.527-24.2-37.559
	c-6.797-2.971-14.164-4.38-22.539-5.136c-0.285,0.101-0.739,0.554-0.655,0.84c1.275,2.483,2.014,4.699,2.198,7.099
	c0.991,4.884,0.152,10.204-2.08,14.634c-4.9,9.264-13.493,14.853-21.33,18.981c-1.007,0.655-2.3,0.923-3.139,2.584l-2.887,11.228
	c-0.554,3.39-4.078,5.773-7.569,4.952c-3.591-0.655-5.975-4.163-5.035-7.854c0.184-0.37,0.285-1.024,0.352-1.191
	c0.201-0.386-0.252-0.84-0.538-0.739l-5.537,2.265c-8.845,2.938-21.482,7.402-31.501,2.115c-3.206-2.3-6.344-5.253-6.327-10.321
	c-0.168-3.777,0.772-6.998,1.964-9.382c8.073-16.01,22.757-30.04,40.915-36.351c8.005-2.651,16.782-4.01,25.61-5.068
	c0.554-0.184,1.024-0.637,1.209-1.023l6.864-14.064c0.168-0.369,0.168-0.823-0.37-1.107c-14.633-4.38-35.209-17.051-28.429-36.469
	c0.184-0.822,0.823-1.175,1.191-0.989c0.638,0.067,0.823,0.637,1.191,1.292c0.688,16.934,16.782,22.505,31.787,24.301
	c0.655,0.101,1.191-0.537,1.577-1.275c2.971-5.891,5.924-11.764,8.894-18.108c1.477-2.954,4.8-4.515,7.938-2.937
	c2.282,0.923,3.205,3.239,3.39,5.169c0.436,5.068,4.464,10.337,7.132,14.651c2.92,4.732,10.925,8.055,10.623,14.601
	c-0.554,4.313-4.33,7.25-8.475,6.797c-7.183-0.404-15.943-1.813-22.656-3.575l-3.139-0.655c-0.454,0-1.275,0.268-1.645,0.991
	l-5.555,11.06c-0.286,0.537,0.184,0.989,0.638,0.989l1.93-0.168c9.214,0.504,17.772,1.813,26.785,5.421
	c17.101,7.234,30.141,23.949,32.288,43.483c0.873,10.12-0.906,20.073-5.453,29.084c-8.795,17.471-26.232,27.826-45.951,31.249
	c-18.594,3.088-36.384,1.275-53.318-2.635c-1.091-0.554-1.376-2.77,0.386-2.585c17.034-0.419,34.538-0.805,50.113-6.108
	C102.107,156.933,115.214,148.306,123.924,134.243 M33.568,109.472c5.621-1.544,11.144-3.39,16.312-5.387
	c0.839-0.269,1.477-1.108,1.678-1.477c4.079-9.918,8.509-19.669,13.896-30.812c0.268-0.537,0.017-0.907-0.268-0.806
	c-2.584,0.084-5.337,0.538-7.938,1.075c-17.135,3.809-35.309,13.778-43.919,30.896c-1.309,2.114-2.887,6.612-0.135,8.475
	C17.809,114.674,27.845,111.2,33.568,109.472 M80.34,78.391c0.201-2.216-0.152-4.682-0.973-7.184
	c-0.185-0.553-0.638-1.007-1.293-1.107c-0.823,0.286-1.745,0.286-2.685,2.114c-3.877,8.173-7.418,16.548-10.557,24.654
	c0,0.453,0.268,0.805,0.638,0.537l2.869-1.091c3.407-2.198,6.344-4.868,8.761-7.334C79.316,85.943,80.709,82.267,80.34,78.391
	 M100.865,28.077c-0.739-0.822-2.031-1.023-2.669,0.286l-4.732,7.989c-0.268,0.537,0.084,1.191,0.554,1.191l9.112,1.595
	c3.021,0.385,3.961-0.991,3.323-2.468C106.269,34.27,102.879,30.024,100.865,28.077"/>
<path fill="#6ABB65" d="M583.368,140.682c0.603,0.118,1.124,0.453,1.628,0.772c2.887,1.141,6.293,3.91,9.851,2.349
	c4.816-2.467,10.993-7.719,15.071-11.512c0.386-0.336,0.504-0.94,0.218-1.577c-3.055-6.209-5.823-12.168-8.811-18.612
	c-1.157-2.618,0.017-5.873,2.568-7.2c2.182-0.923,3.575-0.252,5.286,0.302c7.166,1.679,14.03,3.474,21.65,4.951
	c0.519,0.32,1.141,0.051,1.61-0.519c7.166-8.09,14.769-15.994,21.314-25.091c0.386-0.352,0.436-1.107,0.235-1.56l-0.873-2.014
	l-4.665-10.322c-1.159-3.541-2.014-8.86,2.282-11.278c5.085-3.121,14.08-1.896,19.535-0.755c2.484,0.588,4.682,0.168,6.914-0.621
	c8.677-3.759,14.651,10.019,7.066,13.308c-6.814,4.632-14.735,11.009-20.928,16.648c-0.386,0.336-0.504,0.94-0.286,1.41
	l13.157,30.342c1.276,2.937-0.519,9.801-6.528,7.434c-10.892-5.202-22.572-7.502-34.018-10.992
	c-0.588-0.101-1.225,0.167-1.611,0.537l-13.359,14.987c-0.553,0.436-0.587,1.175-0.386,1.644c3.759,8.66,8.375,18.427,13.594,26.668
	c2.585,4.212,5.656,10.035,10.758,12.049c9.817,3.105,22.454-4.229,31.181-9.112c10.103-6.395,21.885-16.145,31.585-23.462
	l0.151-0.068c7.737-5.924,17.37,5.706,9.532,12.234l-0.285,0.118c-10.305,7.233-24.066,15.792-35.629,21.381
	c-10.54,4.934-27.087,11.379-39.153,5.589c-6.345-2.769-10.473-8.878-14.266-14.601c-4.448-7.284-8.928-16.362-13.107-24.301
	c-0.151-0.302-0.671-0.268-1.073,0.084c-4.213,5.152-10.976,12.872-17.923,15.524c-4.934,1.779-10.07,0.134-15.423-1.209
	C571.636,152.228,574.338,138.534,583.368,140.682 M616.831,124.504c0.184,0.469,0.638,0.637,1.192,0.218l8.878-9.197
	c0.419-0.352,0.201-0.823-0.236-0.989l-3.003-0.554c-2.602-0.504-5.32-0.805-7.888-0.789c-1.427-0.302-2.332,1.007-2.098,2.383
	C614.649,118.647,615.774,121.65,616.831,124.504 M639.386,111.212c-0.235,0.302-0.05,0.755,0.336,0.771l0.671,0.268l27.691,4.901
	c0.386,0.016,0.621-0.269,0.436-0.739c-1.997-5.018-4.078-9.818-9.801-22.975c-0.268-0.621-0.873-0.722-1.259-0.369
	C651.319,98.86,645.327,104.952,639.386,111.212 M658.536,78.603c2.567-2.953,8.156-8.307,10.421-11.143
	c0.973-1.142,0.218-2.484-0.973-3.088c-2.484-1.493-11.798-3.877-14.484-0.319c-0.805,0.721-0.084,2.803,0.336,3.708
	C658.016,76.993,658.536,78.603,658.536,78.603"/>
<path fill="#8264A4" d="M401.565,132.526c-0.101-4.884-1.275-9.768-3.777-14.282c-5.403-9.08-15.91-13.544-26.633-12.167
	c-4.8,0.771-9.382,2.584-14.265,5.119c-0.135,0.168-0.202,0.587-0.068,0.687c1.594,0.924,2.769,1.897,3.725,3.156
	c2.266,2.349,3.693,5.589,4.011,8.81c0.571,6.864-2.182,12.989-5.052,18.041c-0.335,0.705-0.939,1.309-0.822,2.518l2.366,7.233
	c0.907,2.081-0.184,4.632-2.417,5.404c-2.215,0.907-4.766-0.202-5.555-2.552c-0.033-0.268-0.201-0.671-0.218-0.789
	c-0.033-0.285-0.436-0.369-0.571-0.218l-2.248,3.206c-3.843,4.766-9.248,11.697-16.648,12.318c-2.584-0.152-5.354-0.672-7.132-3.474
	c-1.443-2.014-2.064-4.128-2.249-5.873c-1.191-11.681,1.947-24.637,9.734-34.539c3.491-4.279,7.854-8.139,12.369-11.865
	c0.235-0.286,0.319-0.705,0.302-0.973l-1.191-10.204c-0.034-0.252-0.185-0.52-0.588-0.47c-9.616,2.752-25.476,3.038-28.597-10.069
	c-0.184-0.537,0.05-0.957,0.302-0.991c0.403-0.184,0.688,0.068,1.125,0.302c6.376,9.096,17.219,6.479,26.147,2.182
	c0.386-0.168,0.47-0.739,0.419-1.275c-0.453-4.296-0.889-8.593-1.493-13.141c-0.235-2.148,1.057-4.178,3.34-4.414
	c1.594-0.302,2.919,0.638,3.708,1.645c2.031,2.652,6.109,4.128,9.113,5.589c3.289,1.561,8.878,0.571,11.026,4.28
	c1.225,2.584,0.168,5.555-2.282,6.746c-4.112,2.333-9.432,4.649-13.762,6.059l-1.964,0.739c-0.251,0.151-0.604,0.604-0.571,1.141
	l0.839,8.039c0.034,0.419,0.47,0.503,0.706,0.352l1.023-0.789c5.236-2.988,10.439-5.286,16.698-6.478
	c12-2.048,25.09,2.584,33.179,12.587c4.095,5.285,6.613,11.412,7.3,17.99c1.309,12.755-4.648,24.637-14.315,33.515
	c-9.197,8.273-19.653,13.544-30.376,17.387c-0.823,0.084-1.763-1.057-0.705-1.577c9.263-6.243,18.762-12.654,25.492-21.079
	C397.537,152.748,401.733,143.35,401.565,132.526 M342.91,150.786c2.567-2.836,4.967-5.807,7.115-8.744
	c0.37-0.436,0.42-1.125,0.404-1.393c-1.259-6.932-2.249-13.879-3.222-21.918c-0.034-0.419-0.302-0.52-0.436-0.369
	c-1.393,0.957-2.752,2.182-3.994,3.389c-8.123,8.173-14.618,20.123-13.325,32.608c0.016,1.611,0.739,4.666,2.92,4.716
	C336.063,159.243,340.376,153.773,342.91,150.786 M351.302,82.061c-0.705-0.202-1.477,0.152-1.377,1.107l0.218,6.075
	c0.05,0.386,0.47,0.622,0.722,0.47l5.605-2.35c1.796-0.855,1.829-1.963,0.939-2.551C356.487,83.572,353.114,82.431,351.302,82.061
	 M357.763,117.086c-0.672-1.275-1.745-2.517-3.088-3.624c-0.286-0.218-0.722-0.32-1.091-0.152c-0.37,0.453-0.889,0.772-0.739,2.114
	c0.739,5.891,1.762,11.765,2.87,17.354c0.167,0.251,0.453,0.352,0.553,0.067l1.192-1.611c1.107-2.433,1.796-4.934,2.248-7.149
	C359.861,121.635,359.34,119.1,357.763,117.086"/>
<path fill="#EC6D69" d="M212.885,117.348c-0.353,0.017-0.739,0.152-1.091,0.302c-11.832,3.004-23.58,8.006-32.928,16.212
	c-5.555,5.337-9.28,12.654-6.444,20.542c3.809,10.573,17.336,12.034,27.909,10.909c6.747-0.688,7.468,9.666,0.571,9.969
	c-12.922,0.252-31.383-3.826-34.454-19.233c-2.165-9.398,2.484-18.125,9.448-25.006c4.347-4.514,9.364-8.207,14.769-11.412
	c0.352-0.268,0.068-1.125-0.537-0.856l-4.632,1.325c-12.234,4.901-28.06,12.302-37.374,23.966
	c-3.977,5.001-11.899-1.041-7.821-6.159c11.446-19.065,26.818-33.363,43.047-50.515c1.292-1.293,0.453-3.609-1.293-3.776
	c-5.219-1.108-9.465,3.289-12.771,6.78c-5.874,6.075-6.814,6.982-8.139,7.77c-6.915,5.017-14.148-1.679-19.653-5.992
	c-4.85-3.339,0.688-11.512,5.689-7.669c2.165,1.259,3.407,4.296,5.354,6.411c2.483,2.735,4.732,3.356,8.055,0.621
	c2.971-2.602,5.789-5.22,8.894-7.569c5.12-4.061,11.345-10.791,18.562-7.3c3.139,1.46,9.516,8.576,5.37,12.1
	c-14.366,12.385-27.91,23.512-40.731,39.791c-0.218,0.487,0.202,1.225,0.789,0.957c17.839-9.113,35.814-18.209,56.338-22.522
	l1.712-0.454C217.516,105.785,218.842,115.704,212.885,117.348"/>
<path fill="#5B7BB7" d="M470.914,84.914c-0.37-0.151-0.806-0.184-1.226-0.217c-13.124-2.468-27.086-2.938-40.193,0.872
	c-7.972,2.702-15.071,8.241-15.91,17.387c-1.075,12.268,11.646,19.971,22.656,23.764c7.016,2.45,2.954,13.04-4.044,10.17
	c-12.957-5.773-29.387-18.36-25.291-35.058c2.198-10.338,10.858-16.85,20.962-20.441c6.394-2.468,13.09-3.809,19.937-4.514
	c0.469-0.084,0.571-1.075-0.152-1.075l-5.202-0.823c-14.416-0.823-33.531-0.789-48.182,6.478c-6.243,3.105-11.328-6.562-4.9-9.75
	c20.172-13.61,42.04-20.676,66.105-30.208c1.88-0.671,2.115-3.357,0.454-4.33c-4.666-3.525-10.909-1.125-15.793,0.805
	c-8.66,3.306-10.019,3.777-11.68,3.945c-9.196,1.778-13.275-8.207-16.732-15.037c-3.273-5.572,6.009-11.093,9.197-4.984
	c1.544,2.248,1.392,5.84,2.332,8.844c1.191,3.86,3.138,5.538,7.72,4.33c4.128-1.209,8.156-2.467,12.317-3.39
	c6.982-1.661,16.263-5.437,21.784,1.36c2.467,2.903,5.487,12.922-0.252,14.483c-19.987,5.655-38.583,10.439-58.839,20.642
	c-0.454,0.386-0.386,1.309,0.335,1.309c21.935-0.771,43.971-1.493,66.341,3.759l1.897,0.336
	C480.883,75.583,477.593,86.056,470.914,84.914"/>
<path fill="#C54B96" d="M275.229,26.502c0.067,0.168,0.301,0.252,0.301,0.252c8.358,14.08,19.216,29.135,36.419,34.019
	c5.303,1.762,11.026,2.4,16.547,2.551c10.02,0.587,10.02,16.564-0.386,15.96c-3.557,0.454-16.647-5.337-20.474-7.183
	c-9.767-4.649-17.94-11.127-25.778-19.451c-0.604-0.856-1.862,0.067-1.51,0.855l3.507,7.821
	c6.394,15.541,12.083,32.524,10.439,49.794c-0.907,11.848-5.975,24.435-15.607,32.692c-15.827,12.905-40.295,11.076-52.06-7.704
	c-6.796-10.085-8.34-22.37-8.408-34.722c0.1-11.513,2.434-22.69,6.277-33.397c1.577-4.85,3.709-9.75,5.974-14.332
	c0.269-0.688-0.537-1.628-1.175-0.957c-10.774,9.498-27.22,19.3-39.22,3.809c-1.409-1.041,0.671-3.105,1.695-2.064
	c17.001,13.241,28.563-7.518,39.908-19.905c4.918-5.403,13.258,1.947,8.945,7.804c-4.934,7.854-8.861,17.118-11.446,27.288
	c-2.988,10.154-4.045,20.777-3.357,31.535c0.705,10.389,3.591,19.803,10.137,28.144c8.559,9.885,23.764,12.855,35.595,5.286
	c7.989-5.236,13.896-14.668,15.39-24.351c3.053-15.441-1.981-32.155-7.872-46.974c-3.994-10.221-8.626-20.173-13.19-30.342
	C263.011,26.52,271.486,20.663,275.229,26.502"/>
<path fill="#C54B96" d="M322.003,28.224c-11.127,0.89-18.646,3.592-25.577,7.217c-1.93,1.527-3.641-0.991-2.114-2.854
	c0.637-0.789,15.457-19.451,29.218-12.183c2.72,1.56,4.28,3.708,3.29,6.008C326.181,27.435,324.806,28.308,322.003,28.224"/>
<path fill="#C54B96" d="M310.056,7.951c-9.784,4.834-15.071,10.809-19.35,17.605c-1.275,1.947-3.777,0.688-3.474-1.56
	c0.621-4.616,6.898-25.107,20.827-23.949c4.364,0.385,5.605,2.869,5.689,3.792C313.53,5.216,312.405,6.659,310.056,7.951"/>
<path fill="#2BB49A" d="M576.571,77.849c-0.587,0.033-1.091,0.453-1.241,1.007c-1.041,5.84-2.249,11.646-3.726,17.001
	c-3.087,13.342-6.998,24.737-13.292,38.532c-1.88,4.079-4.498,8.744-7.821,12.42c-0.739,0.571-0.655,0.973,0.017,1.359l2.064,1.51
	c8.223,5.723,15.406,12.302,22.019,19.686c6.192,7.468-4.934,17.252-11.127,9.784c-0.184-0.051-0.319-0.269-0.453-0.504
	c-5.337-7.032-11.027-13.594-17.941-19.132c-1.829-1.644-4.078-3.239-6.26-4.396c-0.47-0.336-1.325-0.756-2.4-0.286
	c-5.337,1.209-10.489,1.125-15.339,0.571c-4.984-0.604-11.982-2.332-14.232-8.139c-2.383-6.025,4.061-10.573,10.17-11.194
	c5.22-0.101,10.371,1.325,15.759,3.373c2.098,0.772,4.716,1.695,6.746,2.618l2.534,1.275c0.487,0.336,1.309,0.168,1.796-0.268
	c0.454-0.268,0.973-0.688,1.057-1.057c3.021-2.618,5.136-6.059,6.982-10.725c5.673-12.251,9.298-23.344,11.798-37.223
	c1.007-5.102,1.947-10.59,2.652-15.961c0.1-0.352-0.352-0.855-0.873-1.007c-14.182-2.181-34.622-10.085-32.474-29.067
	c-0.185-1.393,1.745-1.443,2.03-0.403c3.424,14.752,18.578,16.8,31.283,16.665c0.587-0.033,1.075-0.469,1.057-1.057
	c0.621-7.887,0.454-15.608-0.252-23.462c-0.755-6.344,8.811-10.438,13.125-5.219c4.228,5.571,5.705,13.46,10.958,18.746
	c4.364,5.035,13.393,6.36,16.984,12.15c3.038,4.296,0.084,11.53-5.941,11.798c-0.218,0.134-0.218,0.134-0.403,0.084
	C593.622,77.933,585.164,78.688,576.571,77.849 M591.323,62.543c1.157-0.067,1.744-1.443,0.771-2.098l-4.262-4.044
	c-2.367-2.568-4.498-5.27-6.177-8.207c-0.637-1.157-2.266-0.823-2.383,0.286l-0.352,5.471l-1.125,9.65L591.323,62.543z"/>
<path fill="#2BB49A" d="M632.346,35.681c-10.775,4.28-17.068,10.036-22.355,16.834c-1.544,1.846-4.128,0.235-3.474-2.115
	c1.141-4.883,9.885-25.979,24.804-23.226c4.397,0.721,5.555,3.473,5.421,4.582C636.374,33.198,635.098,34.524,632.346,35.681"/>
<path fill="#2BB49A" d="M643.245,56.986c-11.916-0.033-20.156,2.501-27.675,6.059c-2.266,1.527-3.944-1.241-2.08-3.189
	c0.687-0.889,17.571-19.787,31.853-11.177c2.853,1.713,4.464,4.247,3.137,6.68C647.725,56.415,646.232,57.305,643.245,56.986"/>
<path fill="#2BB49A" d="M499.677,16.161c-0.89-2.366-2.451-5.085-4.331-7.333c-0.319-0.856,0.37-2.014,1.259-1.763
	c3.021,1.611,5.522,3.642,7.653,6.327c13.645,17.37-1.964,37.828-10.321,53.536c-6.36,11.295-9.717,24.183-12.251,36.921
	c-2.316,12.587-4.28,25.274-3.541,37.945c0.823,8.861-13.124,10.775-14.164,1.275c0.1-0.352,0.117-1.107,0.084-1.694
	c1.812-12.168,4.783-24.368,8.542-36.587c4.448-16.228,10.875-31.903,17.773-48.602C494.524,46,503.704,27.238,499.677,16.161"/>
<path fill="#898989" d="M239.411,173.34c-0.067-0.336-0.117-0.637-0.184-0.957c-0.302-1.477-0.604-2.937-0.905-4.396l-0.286-1.293
	c-0.05-0.268-0.134-0.487-0.268-0.705c-0.202-0.319-0.52-0.52-0.889-0.554c-0.017-0.016-0.034-0.016-0.051-0.016
	c-0.285-0.016-0.503,0.05-0.739,0.218c-0.251,0.184-0.419,0.386-0.519,0.604c-0.152,0.268-0.302,0.553-0.436,0.839
	c-0.135,0.319-0.286,0.638-0.42,0.939c-0.134,0.286-0.252,0.538-0.369,0.823c-0.269,0.554-0.538,1.125-0.79,1.712
	c-0.352,0.706-0.671,1.427-1.007,2.149l-0.067,0.117c-0.152,0.336-0.302,0.672-0.403,1.057c-0.034,0.135-0.068,0.286-0.034,0.47
	c0.067,0.336,0.285,0.537,0.604,0.571c0.218,0.017,0.419-0.016,0.621-0.168c0.151-0.1,0.252-0.251,0.352-0.369
	c0,0,0.034-0.034,0.034-0.05c0.1-0.168,0.201-0.336,0.302-0.52c0.05-0.084,0.084-0.168,0.134-0.252
	c0.285-0.487,0.637-0.721,1.124-0.755c0.436-0.034,0.873,0,1.377,0.118c0.638,0.134,1.023,0.519,1.191,1.191l0.084,0.352
	l0.084,0.302c0.084,0.218,0.202,0.436,0.386,0.655c0.134,0.134,0.285,0.218,0.47,0.235c0.1,0.017,0.218,0,0.335-0.034
	c0.236-0.067,0.404-0.251,0.47-0.571l0.016-0.151c0.034-0.168,0.017-0.37-0.033-0.638
	C239.529,173.961,239.479,173.642,239.411,173.34 M236.878,170.252L236.878,170.252c-0.051,0.436-0.236,0.554-0.47,0.604
	c-0.184,0.017-0.352-0.033-0.487-0.151c-0.101-0.1-0.168-0.252-0.168-0.403c0.016-0.37,0.151-0.672,0.419-0.907
	c0.084-0.05,0.185-0.118,0.302-0.1h0.017c0.084,0.016,0.168,0.117,0.218,0.201C236.811,169.681,236.928,169.967,236.878,170.252"/>
<path fill="#898989" d="M258.117,169.383c-0.47-0.151-0.957-0.151-1.343-0.134c-0.218,0.017-0.42,0.017-0.638,0.034
	c-0.201,0.017-0.386,0.034-0.553,0.034c-0.32,0.034-0.604,0.016-0.873-0.034c-0.185-0.034-0.353-0.1-0.504-0.218
	c-0.386-0.218-0.52-0.655-0.336-1.057c0.152-0.352,0.404-0.587,0.772-0.722c0.453-0.201,0.907-0.167,1.377,0.068
	c0.167,0.068,0.335,0.151,0.487,0.218l0.134,0.05c0.218,0.068,0.419,0.05,0.587,0.017c0.202-0.034,0.37-0.168,0.47-0.37
	c0.084-0.201,0.1-0.403,0.034-0.604c-0.134-0.319-0.32-0.52-0.571-0.671c-0.538-0.403-1.125-0.588-1.745-0.621
	c-0.47,0-0.907,0.067-1.293,0.201c-1.175,0.404-1.896,1.209-2.132,2.4c-0.1,0.42-0.067,0.873,0.101,1.326
	c0.167,0.537,0.537,0.973,1.107,1.309c0.537,0.335,1.157,0.503,1.88,0.487c0.436,0,0.856-0.034,1.225-0.068
	c0.268-0.034,0.621-0.05,0.923,0c0.302,0.034,0.554,0.1,0.806,0.236c0.385,0.235,0.587,0.956,0.403,1.342
	c-0.168,0.352-0.403,0.604-0.672,0.756c-0.301,0.184-0.637,0.301-1.023,0.369c-0.436,0.084-0.856,0-1.225-0.202
	c-0.235-0.134-0.453-0.268-0.655-0.385c-0.134-0.084-0.302-0.185-0.47-0.202c-0.285-0.034-0.571,0.05-0.739,0.252
	c-0.151,0.168-0.201,0.436-0.134,0.687c0.034,0.185,0.118,0.352,0.252,0.52c0.352,0.404,0.755,0.705,1.241,0.89
	c0.84,0.302,1.729,0.302,2.686,0.016h0.016c0.034,0,0.05-0.016,0.084-0.016c0.184-0.068,0.403-0.168,0.588-0.268
	c0.771-0.353,1.309-0.856,1.644-1.561c0.47-0.89,0.436-1.796-0.067-2.686C259.611,170.089,259.007,169.635,258.117,169.383"/>
<path fill="#898989" d="M278.299,168.614c-0.168-0.604-0.403-1.142-0.688-1.645c-0.554-0.823-1.293-1.377-2.266-1.611
	c-0.755-0.202-1.477-0.151-2.182,0.118c-0.939,0.319-1.628,0.973-2.064,1.913c-0.336,0.637-0.453,1.392-0.403,2.265
	c0.034,0.588,0.117,1.159,0.235,1.713l0.034,0.235c0.1,0.453,0.235,0.907,0.436,1.393c0.369,0.889,0.873,1.544,1.577,1.98
	c0.839,0.537,1.712,0.722,2.652,0.537c0.168-0.033,0.352-0.067,0.537-0.134c1.427-0.469,2.45-1.829,2.551-3.356
	c0.051-0.806-0.067-1.578-0.167-2.316c-0.051-0.236-0.101-0.47-0.152-0.706L278.299,168.614z M276.671,169.351l0.167,0.856
	c0.084,0.453,0.168,0.889,0.168,1.325c-0.016,0.638-0.184,1.108-0.487,1.494c-0.537,0.655-1.175,0.873-1.946,0.721
	c-0.454-0.1-0.873-0.369-1.175-0.789c-0.236-0.302-0.42-0.671-0.571-1.157c-0.135-0.47-0.218-0.84-0.286-1.192
	c-0.084-0.655-0.151-1.275-0.034-1.896c0.152-0.688,0.47-1.158,1.024-1.461c0.168-0.117,0.369-0.184,0.553-0.217
	c0.655-0.118,1.293,0.151,1.661,0.519c0.252,0.202,0.436,0.454,0.571,0.739C276.485,168.714,276.603,169.016,276.671,169.351"/>
<path fill="#898989" d="M298.108,170.486c-0.202-0.202-0.386-0.419-0.554-0.621c-0.201-0.235-0.319-0.487-0.352-0.739
	c-0.016-0.134-0.034-0.252-0.05-0.369c-0.034-0.168-0.05-0.32-0.068-0.488c0-0.268-0.067-0.503-0.1-0.771
	c-0.268-1.007-1.259-2.064-2.551-2.081c-0.268-0.016-0.588-0.016-0.923,0.034c-0.538,0.084-1.041,0.168-1.561,0.235
	c-0.236,0.034-0.454,0.101-0.655,0.185c-0.47,0.201-0.705,0.571-0.739,1.107c0,0.319,0.016,0.587,0.05,0.839l0.957,6.193
	c0.068,0.403,0.151,0.739,0.302,1.007c0.184,0.403,0.487,0.621,0.889,0.637h0.017c0.033,0,0.1,0.017,0.151,0.017
	c0.184,0,0.352,0.016,0.52-0.017c0.252-0.033,0.537-0.084,0.789-0.117c0.252-0.017,0.504-0.05,0.739-0.101
	c0.52-0.067,1.007-0.167,1.493-0.302c0.923-0.251,1.577-0.821,1.93-1.678c0.202-0.403,0.252-0.823,0.268-1.191
	c0.017-0.319,0.034-0.672-0.1-1.024C298.443,170.973,298.309,170.721,298.108,170.486 M295.238,168.472
	c-0.05,0.436-0.336,0.705-0.587,0.823c-0.352,0.201-0.739,0.302-1.175,0.285c-0.319-0.016-0.772-0.335-0.856-0.687l-0.016-0.152
	c-0.034-0.151-0.05-0.285-0.05-0.436c-0.034-0.436,0.218-0.907,0.755-0.989l0.268-0.051c0.118-0.016,0.252-0.033,0.37-0.033
	c0.301-0.017,0.587,0.067,0.839,0.235C295.12,167.718,295.288,168.036,295.238,168.472 M293.157,172.382
	c-0.017-0.369,0.184-0.705,0.519-0.872c0.101-0.068,0.218-0.101,0.37-0.118c0.067-0.017,0.134-0.034,0.184-0.034
	c0.068-0.016,0.152-0.016,0.218-0.016c0.152-0.017,0.302-0.05,0.453-0.068c0.135-0.034,0.302-0.05,0.454-0.067
	c0.436-0.034,0.755,0.05,0.99,0.251c0.302,0.236,0.454,0.604,0.42,0.974c-0.05,0.335-0.252,0.637-0.554,0.805
	c-0.268,0.152-0.487,0.218-0.687,0.252c-0.034,0-0.051,0-0.084,0.016l-0.89,0.134c-0.134,0.017-0.268,0.017-0.403,0.017h-0.05
	c-0.336,0-0.789-0.352-0.856-0.739c0-0.068-0.016-0.118-0.016-0.184C293.19,172.634,293.174,172.5,293.157,172.382"/>
<path fill="#898989" d="M314.005,167.515c0.1-0.335,0.335-1.04-0.068-1.56c-0.151-0.184-0.403-0.37-0.856-0.202
	c-0.335,0.134-0.503,0.42-0.603,0.672l-0.118,0.251c-0.118,0.32-0.252,0.638-0.37,0.974l-1.628,4.933
	c-0.118,0.32-0.201,0.672-0.285,1.008l-0.068,0.285c-0.1,0.319-0.05,0.638,0.118,0.907c0.084,0.151,0.235,0.268,0.403,0.335
	c0.184,0.051,0.386,0.034,0.604-0.067c0.201-0.134,0.352-0.286,0.436-0.487c0.134-0.252,0.252-0.487,0.352-0.772
	c0.218-0.671,0.436-1.359,0.671-2.048l0.352-1.041C313.283,169.664,313.635,168.573,314.005,167.515"/>
<path fill="#898989" d="M415.452,173.708c-0.017-0.302-0.034-0.638-0.068-0.957l-0.068-0.973c-0.083-1.159-0.167-2.35-0.235-3.507
	l-0.1-1.309c-0.034-0.286-0.084-0.504-0.184-0.739c-0.185-0.37-0.436-0.588-0.873-0.688c-0.252-0.05-0.52-0.016-0.756,0.118
	c-0.268,0.151-0.469,0.319-0.604,0.52c-0.184,0.251-0.352,0.503-0.519,0.789c-0.202,0.268-0.386,0.571-0.554,0.873
	c-0.152,0.251-0.319,0.503-0.487,0.755c-0.32,0.52-0.672,1.041-0.991,1.561c-0.436,0.671-0.873,1.342-1.292,2.014l-0.084,0.151
	c-0.202,0.302-0.386,0.604-0.52,0.973c-0.05,0.135-0.101,0.269-0.101,0.454c0.017,0.352,0.185,0.571,0.504,0.655
	c0.218,0.05,0.42,0.034,0.655-0.1c0.151-0.068,0.268-0.185,0.369-0.286l0.05-0.05c0.135-0.168,0.269-0.336,0.386-0.504
	c0.05-0.067,0.118-0.134,0.168-0.218c0.319-0.453,0.722-0.621,1.225-0.604c0.403,0.034,0.856,0.135,1.343,0.302
	c0.604,0.218,0.939,0.655,1.007,1.343l0.034,0.352c0.016,0.1,0.033,0.218,0.05,0.302c0.05,0.252,0.151,0.487,0.302,0.705
	c0.117,0.152,0.268,0.252,0.419,0.302c0.118,0.034,0.236,0.034,0.352,0.017c0.252-0.034,0.436-0.202,0.538-0.504l0.034-0.134
	c0.05-0.184,0.083-0.386,0.067-0.638C415.485,174.346,415.469,174.044,415.452,173.708 M413.355,170.317l-0.017,0.017
	c-0.1,0.419-0.302,0.52-0.554,0.52c-0.167,0.016-0.335-0.084-0.453-0.202c-0.084-0.118-0.134-0.285-0.1-0.436
	c0.067-0.335,0.235-0.621,0.537-0.823c0.084-0.05,0.184-0.1,0.286-0.084c0,0,0,0.017,0.016,0.017c0.1,0.034,0.168,0.134,0.202,0.235
	C413.355,169.764,413.438,170.049,413.355,170.317"/>
<path fill="#898989" d="M485.731,173.674c-0.034-0.319-0.05-0.637-0.084-0.957l-0.084-0.973c-0.1-1.157-0.202-2.35-0.286-3.491
	l-0.117-1.309c-0.034-0.302-0.084-0.503-0.202-0.739c-0.168-0.369-0.436-0.587-0.823-0.671c-0.016,0-0.034-0.016-0.05-0.016
	c-0.252-0.05-0.503,0-0.755,0.134c-0.268,0.151-0.454,0.319-0.588,0.52c-0.184,0.268-0.352,0.52-0.52,0.789l-0.537,0.889
	c-0.151,0.252-0.302,0.504-0.47,0.755c-0.319,0.538-0.655,1.058-0.973,1.595c-0.436,0.671-0.839,1.343-1.259,2.014l-0.084,0.151
	c-0.201,0.32-0.385,0.622-0.537,0.974c-0.034,0.134-0.084,0.285-0.067,0.469c0.016,0.352,0.184,0.571,0.519,0.655
	c0.218,0.05,0.42,0.017,0.638-0.117c0.151-0.084,0.286-0.185,0.369-0.302l0.051-0.05c0.134-0.152,0.268-0.336,0.385-0.504
	c0.051-0.067,0.101-0.134,0.152-0.218c0.319-0.453,0.721-0.638,1.225-0.604c0.403,0.017,0.856,0.101,1.343,0.268
	c0.604,0.218,0.957,0.638,1.023,1.326l0.05,0.352c0.017,0.1,0.017,0.218,0.05,0.302c0.051,0.251,0.152,0.487,0.32,0.705
	c0.1,0.151,0.235,0.252,0.419,0.302c0.101,0.016,0.218,0.016,0.352,0c0.236-0.034,0.42-0.218,0.52-0.504l0.034-0.151
	c0.05-0.168,0.068-0.386,0.05-0.621C485.781,174.312,485.747,174.01,485.731,173.674 M483.583,170.317h-0.017
	c-0.1,0.436-0.285,0.52-0.537,0.538c-0.184,0.016-0.352-0.068-0.47-0.184c-0.084-0.135-0.134-0.286-0.1-0.454
	c0.05-0.335,0.218-0.621,0.52-0.823c0.084-0.05,0.201-0.1,0.285-0.084c0,0,0.017,0,0.017,0.017c0.117,0.034,0.167,0.134,0.218,0.218
	C483.583,169.747,483.649,170.033,483.583,170.317"/>
<path fill="#898989" d="M433.236,169.547c-0.47-0.201-0.957-0.235-1.343-0.251c-0.218,0-0.42,0-0.638-0.017h-0.553
	c-0.32,0-0.604-0.05-0.856-0.1c-0.202-0.05-0.352-0.118-0.504-0.252c-0.352-0.268-0.453-0.705-0.235-1.091
	c0.168-0.335,0.42-0.553,0.823-0.671c0.436-0.134,0.906-0.068,1.376,0.168c0.152,0.1,0.302,0.184,0.47,0.268l0.118,0.067
	c0.201,0.101,0.369,0.101,0.587,0.068c0.202-0.016,0.386-0.151,0.487-0.336c0.118-0.184,0.134-0.403,0.068-0.603
	c-0.1-0.32-0.252-0.554-0.487-0.722c-0.504-0.42-1.074-0.671-1.712-0.739c-0.454-0.05-0.89-0.016-1.309,0.1
	c-1.175,0.286-1.947,1.041-2.3,2.216c-0.118,0.42-0.134,0.873,0,1.343c0.118,0.553,0.453,1.007,0.991,1.376
	c0.503,0.37,1.141,0.588,1.862,0.638c0.42,0.034,0.84,0.016,1.209,0.016c0.285,0,0.621,0.017,0.923,0.084
	c0.302,0.068,0.554,0.168,0.789,0.302c0.37,0.268,0.52,0.991,0.286,1.359c-0.202,0.336-0.42,0.571-0.722,0.705
	c-0.319,0.168-0.655,0.252-1.057,0.286c-0.436,0.05-0.839-0.05-1.209-0.302c-0.201-0.134-0.403-0.286-0.621-0.436
	c-0.118-0.084-0.285-0.202-0.436-0.235c-0.302-0.068-0.571,0.016-0.755,0.184c-0.184,0.184-0.252,0.419-0.202,0.688
	c0.034,0.201,0.101,0.369,0.236,0.537c0.285,0.436,0.687,0.755,1.158,0.991c0.806,0.352,1.695,0.436,2.668,0.235
	c0.034-0.016,0.068-0.016,0.1-0.016c0.202-0.051,0.42-0.135,0.604-0.218c0.789-0.286,1.377-0.756,1.779-1.427
	c0.504-0.856,0.554-1.762,0.151-2.686C434.661,170.353,434.091,169.867,433.236,169.547"/>
<path fill="#898989" d="M451.724,168.114c-0.252-0.571-0.538-1.073-0.907-1.493c-0.655-0.755-1.477-1.209-2.468-1.325
	c-0.755-0.05-1.476,0.067-2.148,0.436c-0.855,0.453-1.46,1.208-1.778,2.198c-0.218,0.688-0.236,1.427-0.084,2.282
	c0.117,0.588,0.302,1.158,0.503,1.695l0.068,0.202c0.134,0.436,0.352,0.889,0.604,1.309c0.487,0.839,1.091,1.409,1.846,1.762
	c0.907,0.419,1.796,0.47,2.702,0.151c0.168-0.05,0.335-0.117,0.52-0.201c1.342-0.672,2.164-2.165,2.064-3.675
	c-0.068-0.806-0.286-1.545-0.52-2.283c-0.068-0.235-0.152-0.436-0.235-0.655C451.841,168.382,451.775,168.248,451.724,168.114
	 M450.231,169.087l0.285,0.823c0.134,0.42,0.268,0.856,0.336,1.275c0.067,0.655-0.017,1.142-0.268,1.561
	c-0.436,0.722-1.024,1.041-1.813,0.973c-0.47-0.033-0.906-0.218-1.275-0.603c-0.286-0.252-0.504-0.604-0.722-1.058
	c-0.218-0.453-0.352-0.805-0.436-1.141c-0.184-0.637-0.352-1.241-0.319-1.88c0.05-0.705,0.319-1.208,0.806-1.594
	c0.167-0.118,0.335-0.218,0.519-0.268c0.622-0.218,1.293-0.05,1.729,0.251c0.252,0.185,0.47,0.404,0.655,0.655
	C449.895,168.366,450.096,168.702,450.231,169.087"/>
<path fill="#898989" d="M469.128,170.452l-0.034-0.034c-0.168-0.201-0.335-0.403-0.52-0.587c-0.201-0.218-0.335-0.47-0.369-0.739
	c0-0.118-0.034-0.236-0.05-0.352c-0.017-0.168-0.05-0.32-0.05-0.487c-0.017-0.268-0.051-0.487-0.118-0.772
	c-0.286-1.007-1.293-2.064-2.584-2.064c-0.252,0-0.588,0-0.907,0.05c-0.537,0.084-1.041,0.184-1.577,0.252
	c-0.235,0.033-0.453,0.1-0.638,0.184c-0.469,0.201-0.705,0.554-0.739,1.107c0.017,0.32,0.034,0.588,0.068,0.839l1.023,6.193
	c0.068,0.403,0.168,0.739,0.302,1.007c0.185,0.403,0.487,0.604,0.907,0.621l0.016,0.017h0.152c0.168,0,0.352,0.016,0.52-0.017
	c0.252-0.05,0.52-0.084,0.789-0.134c0.252-0.016,0.503-0.05,0.739-0.1c0.503-0.084,1.007-0.184,1.493-0.319
	c0.907-0.268,1.561-0.839,1.913-1.695c0.184-0.403,0.235-0.823,0.251-1.191c0.017-0.32,0.017-0.688-0.117-1.024
	C469.48,170.939,469.346,170.687,469.128,170.452 M466.241,168.472c-0.05,0.436-0.319,0.687-0.571,0.822
	c-0.37,0.202-0.739,0.302-1.175,0.286c-0.319,0-0.772-0.319-0.856-0.671l-0.033-0.152c-0.017-0.151-0.05-0.268-0.05-0.436
	c-0.034-0.436,0.201-0.907,0.738-0.989l0.286-0.051c0.118-0.016,0.252-0.033,0.369-0.05c0.302,0,0.588,0.068,0.823,0.236
	C466.123,167.7,466.275,168.019,466.241,168.472 M464.211,172.399c-0.034-0.369,0.167-0.705,0.503-0.889
	c0.1-0.05,0.218-0.084,0.369-0.118c0.068,0,0.135-0.016,0.185-0.033c0.067,0,0.151,0,0.218-0.017
	c0.151-0.016,0.302-0.05,0.453-0.067c0.134-0.034,0.302-0.068,0.453-0.084c0.436-0.017,0.756,0.05,1.007,0.252
	c0.286,0.235,0.436,0.603,0.404,0.973c-0.034,0.336-0.236,0.637-0.538,0.823c-0.268,0.134-0.487,0.201-0.687,0.235
	c-0.017,0.016-0.034,0.016-0.084,0.016l-0.89,0.152c-0.134,0.016-0.268,0.016-0.385,0.016h-0.068c-0.319,0-0.789-0.335-0.856-0.721
	c0-0.068-0.016-0.134-0.033-0.184C464.244,172.634,464.227,172.516,464.211,172.399"/>
<path fill="#898989" d="M502.332,170.48c-0.353-0.369-0.756-0.603-1.108-0.789c-0.184-0.1-0.386-0.201-0.587-0.268l-0.487-0.251
	c-0.269-0.135-0.52-0.286-0.739-0.454c-0.152-0.118-0.252-0.268-0.336-0.453c-0.218-0.37-0.118-0.823,0.235-1.074
	c0.302-0.235,0.622-0.319,1.024-0.268c0.453,0.05,0.873,0.319,1.175,0.739c0.1,0.151,0.218,0.302,0.319,0.42l0.1,0.117
	c0.118,0.168,0.286,0.252,0.487,0.32c0.202,0.067,0.404,0.016,0.588-0.101c0.184-0.117,0.302-0.319,0.319-0.52
	c0.05-0.335,0-0.603-0.134-0.855c-0.285-0.588-0.705-1.074-1.241-1.393c-0.404-0.235-0.806-0.403-1.225-0.453
	c-1.209-0.236-2.232,0.117-3.038,1.04c-0.285,0.336-0.487,0.722-0.587,1.192c-0.084,0.587,0,1.124,0.352,1.694
	c0.319,0.554,0.789,1.007,1.409,1.359c0.352,0.202,0.755,0.353,1.091,0.52c0.252,0.118,0.554,0.269,0.805,0.47
	c0.252,0.168,0.436,0.37,0.571,0.604c0.236,0.386,0.068,1.107-0.301,1.359c-0.32,0.202-0.622,0.319-0.957,0.336
	c-0.336,0-0.688-0.068-1.058-0.184c-0.436-0.168-0.755-0.42-0.99-0.79c-0.134-0.218-0.236-0.435-0.352-0.654
	c-0.084-0.135-0.184-0.302-0.32-0.404c-0.251-0.184-0.519-0.235-0.771-0.151c-0.218,0.084-0.386,0.285-0.454,0.537
	c-0.067,0.168-0.067,0.37-0.016,0.588c0.084,0.503,0.302,0.973,0.621,1.376c0.017,0,0.017,0,0.017,0.016
	c0.571,0.672,1.342,1.091,2.316,1.309c0.033,0.017,0.084,0.034,0.117,0.034c0.185,0.05,0.42,0.05,0.638,0.068
	c0.823,0.084,1.544-0.101,2.182-0.554c0.839-0.554,1.275-1.343,1.275-2.384C503.305,171.807,502.985,171.118,502.332,170.48"/>
<path fill="#898989" d="M519.622,173.3c-0.353,0-0.706,0.017-1.074,0.068c-0.168,0.034-0.319,0.05-0.487,0.084
	c-0.302,0.05-0.638,0.084-0.957,0.134c-0.134,0.016-0.252,0.034-0.37,0.034c-0.251,0.016-0.487-0.05-0.687-0.218
	c-0.134-0.118-0.202-0.268-0.268-0.454c-0.135-0.285-0.152-0.621-0.068-0.939c0.118-0.436,0.453-0.588,0.739-0.655
	c0.218-0.05,0.453-0.084,0.705-0.134c0.268-0.017,0.537-0.084,0.789-0.152c0.1-0.033,0.218-0.05,0.336-0.083
	c0.285-0.051,0.52-0.218,0.671-0.488c0.168-0.319,0.118-0.655-0.118-0.873c-0.201-0.184-0.419-0.285-0.705-0.302
	c-0.084,0.017-0.151,0.017-0.235,0.017c-0.152,0-0.319,0-0.487,0.016c-0.184,0.034-0.352,0.05-0.537,0.084
	c-0.37,0.034-0.739,0.1-1.091,0.017c-0.152-0.034-0.386-0.135-0.52-0.404c-0.168-0.319-0.218-0.621-0.185-0.973
	c0.051-0.386,0.236-0.638,0.622-0.755c0.084-0.05,0.167-0.068,0.268-0.084c0.05-0.017,0.1-0.034,0.117-0.034
	c0.185-0.034,0.353-0.05,0.52-0.084c0.352-0.05,0.672-0.1,1.007-0.151c0.269-0.034,0.57-0.101,0.84-0.168l0.201-0.05
	c0.236-0.05,0.436-0.184,0.571-0.286c0.168-0.151,0.268-0.386,0.236-0.621c-0.017-0.268-0.168-0.504-0.352-0.587
	c-0.134-0.068-0.286-0.152-0.454-0.152c-0.302-0.034-0.57-0.034-0.823,0c-1.091,0.168-2.182,0.319-3.289,0.47
	c-0.184,0.034-0.403,0.1-0.655,0.184c-0.487,0.202-0.755,0.554-0.805,1.075c-0.017,0.117,0,0.251,0.016,0.385
	c0.1,0.604,0.168,1.242,0.218,1.847c0.05,0.503,0.1,1.041,0.184,1.56c0.134,0.924,0.302,1.847,0.47,2.752l0.118,0.655
	c0.034,0.236,0.067,0.454,0.134,0.688c0.168,0.52,0.57,0.839,1.141,0.873c0.268,0.034,0.487,0.016,0.688-0.016l3.221-0.487
	c0.302-0.051,0.588-0.118,0.806-0.202c0.201-0.084,0.369-0.218,0.487-0.403c0.184-0.352,0.1-0.806-0.252-1.024
	C520.091,173.334,519.857,173.284,519.622,173.3"/>
</svg>
