<?xml version="1.0" encoding="utf-8"?>
<!-- Generator: Adobe Illustrator 27.0.1, SVG Export Plug-In . SVG Version: 6.00 Build 0)  -->
<svg version="1.1" id="레이어_1" xmlns="http://www.w3.org/2000/svg" xmlns:xlink="http://www.w3.org/1999/xlink" x="0px"
	 y="0px" viewBox="0 0 720 259.728" enable-background="new 0 0 720 259.728" xml:space="preserve">
<path fill="#231815" d="M19.573,162.988c0,5.177-4.2,9.357-9.357,9.357c-5.177,0-9.376-4.18-9.376-9.357
	c0-5.196,4.199-9.375,9.376-9.375C15.373,153.613,19.573,157.792,19.573,162.988"/>
<polygon fill="#231815" points="476.035,59.518 484.087,53.766 474.079,53.766 471.049,44.121 467.905,53.766 457.973,53.766 
	466.141,59.652 462.996,69.086 471.126,63.161 479.141,69.104 "/>
<rect x="204.096" y="119.266" fill="#231815" width="32.212" height="5.004"/>
<path fill="#231815" d="M363.452,162.903c-2.224-1.63-5.158-5.503-8.8-11.638l-8.111-13.71c-4.506-7.631-9.396-12.731-14.687-15.339
	c10.757-1.86,18.944-11.178,18.944-22.453c0-12.635-10.219-22.854-22.835-22.854h-3.586H311.76h-18.445v1.284h1.208
	c2.071,0,3.988,0.729,5.733,2.186c1.745,1.457,2.627,3.988,2.627,7.535v67.874c0,2.417-0.46,4.352-1.38,5.79
	c-0.92,1.438-2.052,2.474-3.452,3.049c-1.361,0.594-2.953,0.921-4.736,1.017v0.977h28.569v-0.977c-6.5-0.212-9.759-3.49-9.759-9.856
	v-32.844c2.128,0,3.95,0.115,5.522,0.364c1.554,0.249,3.317,0.862,5.273,1.841c1.936,0.977,4.046,2.589,6.288,4.831
	c2.263,2.243,4.467,5.177,6.615,8.802l10.719,17.735c0.173,0.135,0.633,0.862,1.419,2.09c0.805,1.226,1.4,2.147,1.802,2.779
	c0.69,0.921,1.342,1.803,1.956,2.627c0.614,0.844,1.266,1.706,1.956,2.607h16.317v-0.977
	C367.843,165.433,365.657,164.532,363.452,162.903 M327.962,80.301c8.359,2.57,14.457,10.259,14.457,19.462
	c0,9.184-6.098,16.873-14.457,19.423c-1.899,0.594-3.874,0.997-5.982,0.997h-9.855V79.842v-0.536h9.855
	C324.088,79.306,326.063,79.727,327.962,80.301"/>
<path fill="#231815" d="M270.562,76.914h-34.647v1.036h1.208c0.403,0.076,1.15,0.249,2.224,0.536
	c1.074,0.288,2.051,0.729,2.915,1.304c0.882,0.614,1.649,1.573,2.301,2.972c0.556,1.189,0.844,2.703,0.901,4.448l0.077,68.565
	c0,3.451-0.92,5.944-2.723,7.459c-1.802,1.514-4.103,2.319-6.902,2.415v0.978h28.549v-0.978c-6.48-0.211-9.74-3.508-9.74-9.875
	v-33.17h15.838c12.616,0,22.835-10.239,22.835-22.855S283.178,76.914,270.562,76.914 M270.562,119.191
	c-1.899,0.576-3.892,0.997-5.982,0.997h-9.855V80.077V79.31h9.855c2.09,0,4.084,0.403,5.982,0.997
	c8.359,2.55,14.457,10.257,14.457,19.442C285.019,108.952,278.921,116.622,270.562,119.191"/>
<path fill="#231815" d="M606.393,165.497c-1.189,0.135-2.416,0.173-3.662,0.192c-0.115,0.02-0.249,0.039-0.365,0.039h-0.269
	c-23.181,0-36.698-19.538-36.698-43.658c0-0.135,0.019-0.269,0.019-0.422s-0.019-0.307-0.019-0.46
	c0-24.102,13.517-43.639,36.698-43.639c15.799,0,27.112,9.107,32.711,22.549v-2.609V76.915h-0.94c0,3.931-1.284,7.996-6.845,4.449
	l0.096,0.115c-7.267-4.525-15.838-7.19-25.022-7.19c-26.153,0-47.358,21.206-47.358,47.358c0,26.134,21.206,47.34,47.358,47.34
	c12.693,0,24.216-5.023,32.711-13.171v-3.97C627.522,159.42,617.57,164.443,606.393,165.497"/>
<path fill="#231815" d="M535.456,79.703c10.066,0,15.109,3.778,15.109,11.332h0.862V76.904H491.49v1.036h1.208
	c3.087,0,5.253,1.017,6.48,3.03c1.246,2.051,1.86,4.448,1.86,7.19v67.625c0,3.471-0.901,6.001-2.723,7.535
	c-1.841,1.534-3.7,2.321-5.618,2.321h-1.208v0.977h59.937v-14.131h-0.862c0,7.535-5.043,11.332-15.109,11.332l-17.41,0.057
	c-3.355,0-5.465-0.862-6.385-2.626c-0.901-1.745-1.361-3.796-1.361-6.193v-31.868h19.384c1.592,0,3.106,0.116,4.583,0.365
	c0.767,0,1.649,0.211,2.646,0.613c0.978,0.403,1.994,1.228,3.01,2.454c1.016,1.265,1.707,3.01,2.071,5.349h0.901v-20.343h-0.901
	c-0.364,3.758-1.822,6.174-4.39,7.247c-2.551,1.054-5.465,1.572-8.705,1.572H510.3V79.703H535.456z"/>
<path fill="#231815" d="M457.179,76.914v1.036c5.752,0.173,8.762,3.011,9.376,8.187h0.134v0.518v78.861
	c0,7.209-5.848,13.057-13.057,13.057c-6.826,0-12.367-5.272-12.942-11.945h-0.958c0.594,9.529,8.436,17.103,18.119,17.103
	c10.047,0,18.215-8.149,18.215-18.215V87.92c0-3.471,0.901-6.001,2.703-7.535c1.802-1.534,4.046-2.358,6.73-2.435v-1.036H457.179z"
	/>
<path fill="#231815" d="M718.831,71.351c-0.307,1.305-0.786,2.531-1.668,3.49c-1.285,1.381-3.356,2.071-6.251,2.071h-60.915
	c-2.876,0-4.966-0.69-6.25-2.071c-0.863-0.958-1.362-2.185-1.649-3.49h-1.15v1.113v4.448V94.38h0.958
	c0.499-5.848,2.205-9.625,5.139-11.352c2.953-1.725,6.596-2.587,10.948-2.587h17.831v75.333c0,3.528-0.92,6.04-2.761,7.517
	c-1.84,1.496-4.122,2.262-6.788,2.358v0.978h28.569v-0.978c-6.5-0.211-9.759-3.508-9.759-9.875V80.441h17.851
	c4.333,0,7.995,0.862,10.967,2.587c2.953,1.726,4.659,5.504,5.1,11.352H720V76.912v-4.448v-1.113H718.831z"/>
<path fill="#231815" d="M406.033,74.283c-26.153,0-47.359,21.206-47.359,47.36c0,26.133,21.206,47.34,47.359,47.34
	c26.153,0,47.34-21.206,47.34-47.34C453.373,95.489,432.186,74.283,406.033,74.283 M406.033,165.722
	c-23.162,0-36.698-19.538-36.698-43.638c0-0.154,0.019-0.288,0.019-0.441s-0.019-0.288-0.019-0.441
	c0-24.12,13.536-43.659,36.698-43.659c23.161,0,36.698,19.539,36.698,43.659c0,0.153-0.019,0.288-0.019,0.441
	s0.019,0.287,0.019,0.441C442.731,146.184,429.195,165.722,406.033,165.722"/>
<path fill="#231815" d="M158.854,32.984c-6.385,6.673-12.559,14.074-18.503,22.242c-5.963,8.168-11.868,17.045-17.735,26.632
	c-5.867,9.587-12.214,19.788-19.001,30.621c-6.481,10.488-12.482,19.959-18.004,28.377c-5.522,8.398-11.14,15.569-16.835,21.493
	c-5.713,5.925-11.772,10.469-18.253,13.632c-6.462,3.164-13.939,4.736-22.452,4.736c-1.362,0-2.991-0.115-4.851-0.364
	c-1.86-0.249-3.701-0.767-5.484-1.514c-1.783-0.748-3.355-1.688-4.717-2.858c-1.361-1.169-2.224-2.587-2.55-4.256
	c2.377,0,4.372-0.786,6.001-2.377c1.611-1.592,2.416-3.528,2.416-5.868c0-2.665-0.728-4.871-2.167-6.634
	c-1.457-1.745-3.624-2.626-6.5-2.626c-2.915,0-5.331,0.958-7.286,2.895C0.978,159.014,0,161.64,0,164.976
	c0,5.157,2.55,9.587,7.65,13.249c5.1,3.663,12.08,5.504,20.938,5.504c12.75,0,24.331-3.087,34.704-9.262
	c10.373-6.154,19.941-14.15,28.703-23.986c8.762-9.836,16.931-20.842,24.504-32.998c7.555-12.175,14.955-24.332,22.203-36.507
	c7.229-12.157,14.457-23.642,21.686-34.494c7.228-10.814,33.861-43.255,60.608-43.255V0.236
	C193.136,0.236,165.238,26.312,158.854,32.984"/>
<path fill="#231815" d="M206.59,46.055C206.59,20.612,178.52,0,143.873,0h-6.941C91.376,0,53.527,26.192,45.953,32.672
	c-7.573,6.462-13.996,13.346-19.27,20.651c-5.273,7.325-9.356,14.898-12.252,22.702c-2.895,7.842-4.334,15.492-4.334,22.989
	c0,5.618,0.844,10.929,2.55,15.953c1.707,5.004,4.199,9.434,7.535,13.249c3.317,3.835,7.401,6.902,12.252,9.203
	c4.831,2.301,10.411,3.432,16.7,3.432c7.152,0,13.575-1.534,19.27-4.583c5.695-3.067,10.507-7.229,14.418-12.501
	c3.912-5.292,6.615-11.313,8.743-18.138c0.422-1.324,0.652-2.666,0.997-4.046h-3.451c-0.307,1.246-7.957,36.2-39.977,36.2
	c-5.101,0-9.529-1.228-13.269-3.682c-3.739-2.474-6.845-5.618-9.318-9.434c-2.473-3.854-4.295-8.168-5.484-13.019
	c-1.188-4.851-1.783-9.587-1.783-14.17c0-12.08,3.106-23.775,9.318-35.087c6.212-11.313,14.591-21.36,25.137-30.123
	c10.545-8.762,45.691-28.951,85.227-28.951c29.412,0,53.264,19.135,53.264,42.737c0,22.837-22.356,41.454-50.465,42.643v5.464v0.211
	h4.755h0.249c5.101,0,9.568,0.862,13.479,2.417c7.113,2.779,12.271,7.879,15.281,14.495c3.336,7.325,4.104,16.45,1.994,26.383
	c-1.917,9.012-5.905,17.391-11.428,24.312c-7.401,9.28-17.927,17.449-29.258,17.449c-7.996,0-21.436-4.372-21.436-17.391
	c0-7.401,4.717-16.528,12.751-18.369c-2.224-0.785-4.947-1.322-6.5-1.322c-2.933,0-16.451,3.087-16.451,19.691
	c0,8.226,5.043,13.806,11.428,17.257c6.5,3.528,14.227,4.448,19.749,4.448c25.999,0,51.443-20.651,56.869-46.075
	c5.119-24.159-9.702-43.965-33.477-45.863c-0.709-0.116-1.323-0.192-1.726-0.192c0,0,4.18-0.805,9.932-3.03
	C190.638,81.623,206.59,65.228,206.59,46.055"/>
<polygon fill="#231815" points="366.664,220.229 385.416,206.789 364.228,215.398 361.218,180.732 358.227,215.398 337.04,206.789 
	355.773,220.229 337.04,233.671 358.227,225.061 361.218,259.728 364.228,225.061 385.416,233.671 "/>
<path fill="#231815" d="M326.221,200.474l-2.263,2.858h-7.765c0.038-2.263,0.038-4.544,0.057-6.884
	c0.019-1.649,0.019-3.318,0.039-5.004c0-1.957,1.016-2.263,1.496-2.435l0.095-0.02c0.902-0.307,1.151-0.785,1.228-1.418l0.038-0.153
	l-7.343-0.537v0.153c0,7.593,0,13.632-0.057,16.298h-7.938v1.86h7.919c-0.288,9.971-1.189,18.426-3.835,25.693l-0.019-0.02
	l-0.096,0.269c-1.476,3.585-2.915,6.537-5.005,9.432c-0.326,0.422-0.652,0.864-0.978,1.266l-0.518,0.613
	c-0.403,0.499-0.824,0.958-1.265,1.457c-0.115,0.116-0.231,0.211-0.345,0.345c-0.556,0.576-1.131,1.17-1.745,1.726l-0.096,0.096
	v0.019c-1.266,1.189-2.723,2.435-4.372,3.758l-0.115,0.096l0.71,0.901l0.115-0.076c0.058-0.02,2.109-1.266,4.813-3.394l0.019,0.019
	l0.096-0.096c2.684-1.974,4.985-4.179,6.979-6.614c1.611-1.879,3.03-3.931,4.046-6.097l0.019-0.039
	c0.959-1.802,1.783-3.72,2.493-5.733c2.128-6.174,3.183-13.249,3.49-23.622h8.494c-0.249,16.816-0.652,25.808-1.342,30.985
	c-0.46,3.317-1.496,5.656-11.006,5.656h-0.134v0.92h0.134c2.972,0,6.098,2.877,6.098,4.448v0.135h0.153
	c3.259-0.077,5.004-0.729,6.73-2.511c2.052-2.051,3.011-8.935,3.432-24.581c0.383-8.915,1.246-13.9,2.588-14.898
	c0.154-0.096,0.269-0.211,0.365-0.325l0.115-0.135L326.221,200.474z"/>
<path fill="#231815" d="M304.317,237.241l-0.249-1.016l-14.093,2.07v-6.461h10.469c1.726,0,2.55-0.345,3.106-1.42l0.077-0.115
	l-5.311-3.662l-1.63,2.109c0,0.019-0.709,1.246-3.145,1.246h-3.566v-5.944h7.708v2.339h0.805c1.745,0,3.528-0.94,3.528-1.381
	v-14.207c0-0.576,0.901-1.093,1.572-1.477c0.518-0.288,0.825-0.46,0.825-0.709v-0.077l-5.235-3.968l-1.323,1.688
	c-0.019,0.037-0.441,0.785-1.937,0.785h-5.944v-5.713h12.731c1.822,0,2.627-0.327,3.183-1.42l0.077-0.115l-5.561-3.872l-2.013,2.607
	c-0.019,0.039-0.575,0.977-2.147,0.977h-6.27v-6.231c4.429-0.557,12.693-1.285,12.808-1.285c0.384,0,1.304-0.46,1.304-0.46
	l-4.927-4.793l-0.077,0.037c-5.944,2.301-18.618,5.753-27.917,7.267l-0.135,0.019v0.997c0,0,10.411-0.671,14.63-1.15v5.599h-14.63
	v1.822h14.63v5.713h-6.787l-4.851-2.09v21.897h0.728c1.956,0,3.452-0.958,3.452-1.457v-1.342h7.458v5.944h-12.865v1.841h12.865
	v7.017c-6.097,0.882-11.35,1.534-14.438,1.802l-0.211,0.02l2.435,5.484C273.447,246.158,289.189,241.44,304.317,237.241
	 M285.661,222.209h-7.439v-5.79h7.439V222.209z M278.203,208.884h7.439v5.713h-7.439V208.884z M289.975,208.884h7.708v5.713h-7.708
	V208.884z M289.975,216.419h7.708v5.79h-7.708V216.419z"/>
<path fill="#231815" d="M417.867,206.427c1.418,0,3.24,0.461,4.736,1.189C420.685,206.427,417.867,206.427,417.867,206.427"/>
<path fill="#231815" d="M414.215,208.544l0.057,0.212c0.345-0.077,0.671-0.077,1.016-0.077c2.933,0.307,3.585,1.649,2.953,5.427
	c-3.49,16.642-14.419,31.292-31.618,35.05c-1.476,0.325-2.991,0.594-4.506,0.632v0.633c12.885-1.189,24.466-5.848,32.442-16.508
	c3.106-3.892,5.445-8.379,7.171-13.058c0.786-2.186,1.457-4.41,2.032-6.653c0.345-1.4,0.748-2.991,0.403-4.468
	c-0.499-2.224-2.895-3.029-4.927-3.221C417.071,206.302,414.867,206.838,414.215,208.544"/>
<path fill="#231815" d="M441.309,192.816c-0.594,0-1.323,0.729-2.263,1.458c-0.652,0.536-1.189,0.652-2.589,0.785
	c-5.369,0.403-33.937,2.895-40.514,2.895c-3.662,0-5.771-1.668-5.905-4.332l-0.269-0.059c-1.323,0.864-1.802,1.994-1.802,3.586
	c0,2.263,2.224,6.232,6.04,6.232c3.47,0,38.52-5.522,43.985-5.867c0.268,0,0.517,0.287,0.517,0.479c0,0.327-6.557,11.6-12.75,17.774
	l0.345,0.403c5.311-3.527,21.379-15.703,21.379-17.333C447.483,197.245,442.631,192.816,441.309,192.816"/>
<path fill="#231815" d="M530.279,198.844c7.611,0.249,18.713,2.493,19.192,9.184c0.115,1.534-0.613,2.685-1.917,2.838
	c-1.821,0.249-3.47-2.683-4.659-3.95c-3.777-4.064-7.861-5.886-12.635-7.554L530.279,198.844z"/>
<path fill="#231815" d="M524.613,212.419c7.209-0.268,17.812,1.246,18.771,7.919c0.192,1.496-0.383,2.703-1.591,2.934
	c-1.707,0.364-3.49-2.454-4.698-3.643c-3.854-3.778-7.842-5.349-12.482-6.711V212.419z"/>
<path fill="#231815" d="M532.254,236.181l0.249,0.039c-0.038,0.345,0,0.652,0.039,0.997c0.767,2.57,2.339,2.972,6.73,2.147
	c20.285-4.889,36.756-18.828,39.44-37.849l0.69,0.211c-1.17,14.553-8.552,27.304-20.957,35.319
	c-4.832,3.125-25.405,15.185-27.994,4.352C529.934,239.307,530.336,237.064,532.254,236.181"/>
<path fill="#231815" d="M514.39,196.224c0.115,0.231,0.23,0.518,0.345,0.825c0.441,1.093,0.997,2.474,2.052,2.589
	c0.095,0.019,0.172,0.019,0.268,0.019c0.901,0,1.534-0.594,1.726-1.61c0.959-5.445-7.094-8.667-9.587-9.51l-0.095-0.039
	l-1.112,0.575l0.288,0.231C510.842,191.162,512.855,193.08,514.39,196.224"/>
<path fill="#231815" d="M515.851,185.064l-0.096-0.019l-1.074,0.537l0.287,0.229c2.646,2.033,4.697,4.027,6.193,7.249
	c0.115,0.249,0.249,0.536,0.345,0.844c0.422,1.13,0.958,2.511,2.051,2.683c0.115,0.02,0.249,0.039,0.345,0.039
	c0.901,0,1.534-0.575,1.764-1.572C526.875,189.609,518.458,186.042,515.851,185.064"/>
<path fill="#231815" d="M516.581,230.246c-0.786,0.02-1.668,0.231-2.895,0.499c-2.723,0.633-6.73,1.65-17.947,1.65
	c-5.005,0-7.612-0.557-9.012-1.957c-1.764-1.782-1.726-5.1-1.688-10.603c0.019-0.958,0.019-1.975,0.019-3.087
	c8.916-2.262,24.159-6.692,30.103-9.759c1.649-0.864,2.473-1.898,2.454-3.011c0-1.188-0.978-2.397-2.607-3.239
	c-1.304-0.633-2.819-1.017-4.027-1.017c-1.093,0-1.898,0.307-2.32,0.862c-0.057,0.077-0.057,0.173-0.019,0.249l0.057,0.135
	c0.038,0.057,0.115,0.115,0.192,0.115c1.15,0.173,1.879,0.978,1.879,1.477c0,1.745-10.066,6.5-25.635,12.08
	c0.211-10.335,0.92-12.981,1.4-14.764c0.249-0.997,0.441-1.706,0.441-3.24c0-2.243-3.01-4.218-6.424-4.218
	c-1.227,0-3.642,0.882-3.72,2.243c0,0.057,0.019,0.115,0.077,0.172l0.057,0.057c0.038,0.059,0.096,0.077,0.173,0.077
	c4.276,0,4.276,2.205,4.276,4.755c-0.23,3.816-0.288,7.114-0.326,10.047c-0.039,2.014-0.057,3.95-0.153,5.733
	c-0.499,10.105-0.269,15.397,2.377,18.177c2.281,2.397,6.327,2.857,12.559,2.857c0.307,0,12.789-0.095,17.831-0.479
	c1.898-0.135,6.328-0.652,6.328-2.55c0-0.48-0.211-0.864-0.403-1.189C518.594,230.879,517.808,230.342,516.581,230.246"/>
<path fill="#231815" d="M447.236,224.273c0.211,0.249,0.441,0.557,0.671,0.902c0.824,1.15,1.841,2.607,3.202,2.607
	c1.246,0,2.109-0.864,2.166-2.186c0.249-4.965-8.494-7.957-16.048-8.974c-0.135,0-0.249,0.057-0.288,0.173l-0.077,0.403
	c-0.019,0.096,0.039,0.211,0.153,0.268C441.291,219.268,444.494,221.052,447.236,224.273"/>
<path fill="#231815" d="M475.594,216.277l-0.537-0.153c-0.057-0.019-0.134,0-0.192,0.039c-0.057,0.02-0.077,0.096-0.096,0.153
	c-1.975,13.346-13.632,24.504-29.68,28.454c-1.036,0.192-1.822,0.288-2.416,0.288c-1.4,0-2.033-0.46-2.397-1.726
	c-0.039-0.249-0.057-0.46-0.039-0.69c0.019-0.076-0.019-0.172-0.096-0.211c-0.077-0.057-0.153-0.057-0.23-0.037
	c-1.457,0.671-2.128,2.358-1.687,4.199c0.575,2.338,2.224,3.547,4.947,3.547c6.097,0,15.569-6.021,16.624-6.692
	c9.395-6.078,15.07-15.627,15.971-26.921C475.766,216.412,475.708,216.316,475.594,216.277"/>
<path fill="#231815" d="M616.1,211.971c-0.652,0-0.997,0.345-1.419,0.806c-0.365,0.421-0.633,0.689-1.266,0.824
	c-1.611,0.46-6.596,1.534-10.986,2.493c-2.052,0.422-3.95,0.844-5.369,1.15c-1.38-6.116-1.476-8.206-1.4-9.203
	c0.269-1.477-0.077-2.531-1.112-3.24c-0.882-0.422-2.032-0.69-3.125-0.69c-2.09,0-3.528,0.901-4.007,2.474
	c-0.019,0.096,0,0.191,0.057,0.249c0.057,0.076,0.153,0.115,0.249,0.115c0.096,0,0.383-0.039,0.69-0.077
	c0.287-0.037,0.633-0.096,0.747-0.096c1.132,0,1.592,0.154,2.205,1.765c0.499,1.418,1.726,6.289,2.473,9.491
	c-7.325,1.725-8.878,1.878-10.009,1.878c-1.764,0-2.397-1.533-2.397-1.878c0-0.077-0.057-0.173-0.134-0.231
	c-0.096-0.057-0.211-0.057-0.307-0.019c-0.786,0.384-1.131,1.246-1.131,1.917c0,3.279,2.109,4.352,3.317,4.564
	c0.844,0.115,1.726-0.153,2.55-0.422c0.211-0.076,0.422-0.133,0.614-0.211c1.975-0.556,3.93-1.132,5.905-1.706l2.397-0.709
	c1.438,6.193,2.167,10.871,2.473,12.865l0.019,0.153c0.115,0.633,0.211,1.246,0.307,1.765c0.556,3.24,0.767,4.563,2.416,4.563
	c0.594,0,1.112-0.231,1.496-0.652c0.594-0.633,0.882-1.726,0.786-2.877c-0.077-0.997-0.46-1.86-0.767-2.55
	c-0.135-0.325-0.269-0.594-0.326-0.824c-1.17-4.046-2.033-7.977-3.221-13.364c4.505-1.322,10.795-3.125,14.63-4.064
	c0.882-0.192,1.457-0.307,1.744-0.365c-0.498,1.342-3.451,7.325-8.57,12.885c-0.115,0.135-0.096,0.326,0.019,0.422l0.383,0.364
	c0.115,0.116,0.288,0.116,0.403,0.02c5.982-4.967,14.17-12.923,14.17-13.556C620.606,214.866,617.365,211.971,616.1,211.971"/>
<path fill="#231815" d="M646.76,221.914c5.157-6.365,15.089-22.854,15.089-23.314c0-1.113-4.678-4.736-6.078-4.736
	c-0.575,0-1.418,0.709-1.975,1.284c-0.517,0.499-0.939,0.786-2.052,0.978c-5.1,0.576-19.749,2.703-21.8,2.703
	c-2.838,0-6.788,0-7.152-3.739c-0.211,0-1.611,0.864-1.611,2.915c0,4.332,3.336,5.579,5.599,5.579
	c3.183,0,25.117-4.984,25.789-4.984c0.518,0,0.71,0.153,0.71,0.44c-13.863,32.385-40.035,49.372-63.58,49.679v0.652
	c27.265,0,44.886-13.267,55.47-25.539c7.247,4.276,14.073,12.06,16.892,16.45c2.473,3.892,3.394,6.289,5.465,6.289
	c2.013,0,2.991-2.032,2.991-4.199C670.516,240.15,666.087,232.902,646.76,221.914"/>
<path fill="#231815" d="M257.464,217.944c-7.919,23.93-26.441,32.769-36.219,36.43l0.46,1.304
	c10.546-3.125,26.249-9.816,35.759-25.252c3.815-5.848,6.25-11.177,8.072-11.849c0.287-0.135,0.518-0.268,0.709-0.479l-5.656-5.216
	l-2.589,2.493c0,0-0.69,0.652-1.668,0.652h-6.442v-14.572h15.09c2.071,0,2.895-0.556,3.585-1.688l-6.576-4.659l-2.55,3.336
	c0,0-0.556,1.169-2.052,1.169h-7.497v-10.833c0-1.974,3.221-1.59,3.221-3.298l-8.091-0.689v14.82h-15.377v1.841h15.377v14.572
	h-13.613l0.077,1.917H257.464z"/>
<path fill="#231815" d="M212.011,196.86v9.396h-13.307v1.841h29.336c2.07,0,2.914-0.461,3.528-1.611l-6.04-4.371l-2.416,3.125
	c0,0-0.786,1.017-2.281,1.017H216.9v-9.396h12.597c2.071,0,2.915-0.46,3.508-1.61l-6.25-4.583l-2.607,3.432
	c0,0-0.594,0.921-2.09,0.921H216.9v-6.193c0-1.957,3.202-1.957,3.202-3.356l-8.091-0.689v10.239h-15.359v1.84H212.011z"/>
<path fill="#231815" d="M223.385,231.163c1.61,0,3.988-1.169,4.065-1.61v-11.926c1.438-0.307,2.665-0.92,3.202-1.514l-6.5-4.525
	l-1.476,1.937c0,0-0.748,0.978-2.474,0.978h-13.613l-5.119-2.282v19.691c3.969,0,4.736-1.514,4.736-1.592v-1.15h16.432v1.994
	H223.385z M206.205,216.343h16.432v11.005h-16.432V216.343z"/>
<path fill="#231815" d="M203.22,232.998c1.534,2.8,2.895,7.402,2.895,10.623c0.614,0.844,1.381,1.208,2.071,1.208
	c1.381,0,2.665-1.361,2.665-3.508c0-2.358-1.879-6.116-7.228-8.551L203.22,232.998z"/>
<path fill="#231815" d="M233.704,242.771c-4.736,0.594-9.395,1.209-13.824,1.765c1.323-1.975,6.922-10.891,6.922-10.891
	l-6.615-1.573c-0.537,3.739-1.457,8.859-2.377,12.751c-9.242,1.15-16.95,2.07-21.091,2.301l2.55,6.289c0,0,19.558-6.097,34.59-9.645
	L233.704,242.771z"/>
<path fill="#231815" d="M271.357,250.075c0-0.019,0-0.037,0-0.057c0-0.019,0-0.037,0-0.057c0-1.688-1.362-3.049-3.068-3.049
	c-1.688,0-3.049,1.361-3.049,3.049c0,0.748,0.268,1.42,0.709,1.956c-0.077,0-0.153,0.02-0.211,0.02
	c-5.1,0-7.611-3.778-15.377-16.834c-7.785-13.077-14.879-13.383-18.694-13.383v1.361c4.41,0.517,6.768,0.632,15.435,15.799
	c8.686,15.185,15.837,15.224,18.56,15.224c1.668,0,3.03-0.364,4.046-1.093c0.92-0.671,1.438-1.476,1.592-2.435v-0.019
	C271.319,250.401,271.357,250.248,271.357,250.075"/>
</svg>
