<?xml version="1.0" encoding="utf-8"?>
<!-- Generator: Adobe Illustrator 27.0.1, SVG Export Plug-In . SVG Version: 6.00 Build 0)  -->
<svg version="1.1" id="레이어_1" xmlns="http://www.w3.org/2000/svg" xmlns:xlink="http://www.w3.org/1999/xlink" x="0px"
	 y="0px" viewBox="0 0 720 179.181" enable-background="new 0 0 720 179.181" xml:space="preserve">
<rect x="356.141" y="160.744" fill="#FFFFFF" width="8.679" height="8.679"/>
<rect x="1.95" y="160.744" fill="#FFFFFF" width="8.679" height="8.679"/>
<rect x="127.763" y="160.744" fill="#FFFFFF" width="8.679" height="8.679"/>
<rect x="254.036" y="160.744" fill="#FFFFFF" width="8.679" height="8.679"/>
<rect x="470.324" y="160.744" fill="#FFFFFF" width="8.679" height="8.679"/>
<path fill="#411C0A" d="M452.236,66.514c-4.358,0-7.894-3.536-7.894-7.882s3.536-7.882,7.894-7.882c0.287,0,1.121,0.062,1.258,0.062
	c0.872,0,1.718-0.336,2.354-0.947c0.71-0.722,1.071-1.743,0.971-2.752c-0.037-0.286-0.062-0.585-0.062-0.896
	c0-4.346,3.548-7.919,7.907-7.919c4.321,0,7.857,3.574,7.857,7.919s-3.536,7.869-7.857,7.869c-0.337,0-1.208-0.074-1.308-0.074
	c-0.896,0-1.743,0.361-2.378,1.009c-0.722,0.722-1.059,1.718-0.934,2.739c0.05,0.274,0.062,0.585,0.062,0.872
	C460.106,62.977,456.557,66.514,452.236,66.514 M98.419,41.038c3.051-3.076,3.051-8.081,0-11.132
	c-1.494-1.494-3.486-2.316-5.578-2.316c-2.092,0-4.096,0.822-5.591,2.316c-0.199,0.212-0.411,0.448-0.61,0.673
	c-0.622,0.784-1.582,1.257-2.59,1.257h-0.012c-1.009-0.013-1.968-0.486-2.603-1.282c-0.174-0.224-0.386-0.461-0.597-0.648
	c-1.482-1.494-3.449-2.316-5.566-2.316c-2.104,0-4.084,0.822-5.578,2.316c-3.038,3.063-3.038,8.069,0,11.132
	c1.494,1.494,3.474,2.304,5.578,2.304c2.117,0,4.084-0.809,5.578-2.304c0.212-0.224,0.423-0.448,0.61-0.697
	c0.622-0.772,1.594-1.245,2.602-1.245c1.009,0,1.98,0.473,2.615,1.245c0.187,0.249,0.386,0.473,0.61,0.697
	c1.494,1.494,3.462,2.304,5.565,2.304C94.945,43.341,96.937,42.532,98.419,41.038 M496.764,95.85l18.279-18.267
	c0.312-0.324,0.461-0.735,0.423-1.17c-0.037-0.436-0.261-0.822-0.61-1.083c-3.848-2.739-9.451-2.266-12.763,1.096l-6.487,6.475
	c-1.855,1.868-2.914,4.42-2.914,7.01c0,2.067,0.635,4.109,1.831,5.753c0.249,0.348,0.648,0.585,1.083,0.61
	c0.037,0.013,0.074,0.013,0.125,0.013C496.116,96.286,496.477,96.124,496.764,95.85 M512.852,100.121l6.487-6.475
	c1.88-1.88,2.914-4.358,2.914-7.01c0-2.042-0.635-4.034-1.818-5.728c-0.249-0.361-0.648-0.598-1.084-0.623
	c-0.41-0.074-0.859,0.112-1.17,0.423l-18.279,18.267c-0.324,0.324-0.461,0.747-0.435,1.183c0.05,0.423,0.249,0.834,0.61,1.071
	c1.693,1.183,3.673,1.818,5.74,1.818C508.493,103.047,510.984,102.014,512.852,100.121 M69.331,52.443
	c0-0.859-0.722-1.569-1.582-1.569H13.772c-0.872,0-1.569-0.697-1.569-1.569v-3.773c0-0.859-0.722-1.569-1.581-1.569H1.569
	C0.71,43.964,0,44.673,0,45.533v15.976c0,0.859,0.71,1.582,1.569,1.582H67.75c0.86,0,1.582-0.722,1.582-1.582V52.443z
	 M89.217,97.568c0.61-0.622,1.121-1.818,1.121-2.702V52.505c0-0.859-0.71-1.569-1.582-1.569h-9.115c-0.859,0-1.582,0.71-1.582,1.569
	v37.181c0,0.884-0.498,2.079-1.12,2.69l-27.905,27.892c-0.622,0.61-1.83,1.108-2.702,1.108h-26.56c-0.86,0-1.582,0.71-1.582,1.581
	v9.115c0,0.872,0.722,1.582,1.582,1.582h31.752c0.872,0,2.079-0.498,2.69-1.108L89.217,97.568z M150.542,45.233
	c0-0.697-0.573-1.257-1.258-1.257h-18.453c-0.685,0-1.258,0.56-1.258,1.257v9.688c0,0.697,0.573,1.258,1.258,1.258h6.263
	c0.685,0,1.258,0.573,1.258,1.27v74.86c0,0.697,0.572,1.27,1.245,1.27h9.688c0.685,0,1.258-0.573,1.258-1.27V45.233z
	 M401.843,45.233c0-0.697-0.56-1.257-1.257-1.257h-18.453c-0.698,0-1.258,0.56-1.258,1.257v9.688c0,0.697,0.56,1.258,1.258,1.258
	h6.263c0.685,0,1.258,0.573,1.258,1.27v74.86c0,0.697,0.56,1.27,1.257,1.27h9.676c0.697,0,1.257-0.573,1.257-1.27V45.233z
	 M221.953,90.77c0.486-0.498,0.884-1.469,0.884-2.167V70.486c0-0.685-0.573-1.245-1.258-1.245h-9.737
	c-0.698,0-1.27,0.561-1.27,1.245v13c0,0.697-0.398,1.669-0.884,2.154l-34.853,34.803c-0.486,0.486-1.445,0.884-2.142,0.884h-12.551
	c-0.685,0-1.258,0.573-1.258,1.27v9.75c0,0.697,0.573,1.27,1.258,1.27h17.681c0.685,0,1.644-0.411,2.13-0.909L221.953,90.77z
	 M345.35,102.649c0.337-0.361,0.622-1.059,0.622-1.556v-30.98c0-0.511-0.398-0.909-0.909-0.909h-10.447
	c-0.498,0-0.896,0.398-0.896,0.909v25.987c0,0.498-0.287,1.195-0.66,1.556l-23.073,23.086c-0.349,0.348-1.059,0.635-1.556,0.635
	h-32.537c-0.498,0-0.921-0.399-0.921-0.909v-5.591c0-0.498-0.398-0.909-0.897-0.909h-10.435c-0.498,0-0.909,0.411-0.909,0.909
	v17.806c0,0.498,0.411,0.909,0.909,0.909h49.845c0.498,0,1.208-0.299,1.556-0.648L345.35,102.649z M470.765,108.526
	c0-0.498-0.287-1.208-0.648-1.556l-29.112-29.162c-0.349-0.349-1.059-0.635-1.556-0.635h-27.817c-0.51,0-0.909,0.411-0.909,0.909
	v10.46c0,0.498,0.399,0.896,0.909,0.896h22.737c0.511,0,1.208,0.287,1.556,0.648l21.94,21.952c0.349,0.361,0.647,1.046,0.647,1.556
	v5.416c0,0.498,0.411,0.909,0.909,0.909h10.435c0.498,0,0.909-0.411,0.909-0.909V108.526z M272.532,36.965
	c-0.411-0.062-0.809,0.062-1.121,0.324c-0.312,0.262-0.486,0.648-0.486,1.046V48.62c0,0.56,0.349,1.071,0.884,1.282
	c2.241,0.872,3.736,3.063,3.736,5.454c0,2.378-1.495,4.57-3.736,5.441c-0.535,0.212-0.884,0.722-0.884,1.295v10.273
	c0,0.398,0.174,0.784,0.486,1.058c0.249,0.199,0.573,0.324,0.897,0.324c0.074,0,0.149-0.013,0.224-0.025
	c9.002-1.37,15.789-9.264,15.789-18.366C288.321,46.255,281.535,38.348,272.532,36.965 M263.742,36.965
	c-9.016,1.382-15.802,9.289-15.802,18.392c0,9.102,6.786,16.997,15.802,18.366c0.062,0.012,0.137,0.025,0.211,0.025
	c0.324,0,0.648-0.125,0.897-0.324c0.311-0.274,0.486-0.66,0.486-1.058V62.093c0-0.573-0.349-1.083-0.885-1.295
	c-2.228-0.871-3.735-3.063-3.735-5.441c0-2.391,1.507-4.582,3.735-5.454c0.536-0.212,0.885-0.722,0.885-1.282V38.335
	c0-0.399-0.175-0.784-0.486-1.046C264.538,37.028,264.152,36.904,263.742,36.965"/>
<path fill="#411C0A" d="M630.51,0L630.51,0c-49.459,0-89.653,40.182-89.678,89.566c-0.012,23.882,9.314,46.37,26.261,63.317
	c16.959,16.947,39.447,26.286,63.33,26.298c23.895,0,46.383-9.326,63.33-26.286c16.934-16.935,26.261-39.423,26.248-63.305
	c0.013-23.883-9.302-46.37-26.223-63.317C676.855,9.327,654.38,0,630.51,0"/>
<path fill="#E94E70" d="M630.497,4.013c47.142-0.012,85.531,38.401,85.494,85.581c0.025,47.167-38.389,85.569-85.569,85.569
	c-47.18-0.013-85.618-38.439-85.581-85.594c0.025-47.142,38.401-85.556,85.606-85.556H630.497"/>
<path fill="#FFFFFF" d="M630.424,22.934c-36.746,0-66.655,29.909-66.655,66.667c-0.012,17.806,6.923,34.541,19.512,47.13
	c12.589,12.576,29.312,19.5,47.117,19.5c36.782,0,66.679-29.897,66.679-66.667C697.078,52.818,667.169,22.934,630.424,22.934"/>
<path fill="#411C0A" d="M567.777,89.607c0-34.591,28.004-62.657,62.644-62.657c34.628,0,62.645,28.066,62.645,62.607
	c0,34.616-28.041,62.695-62.669,62.67C595.805,152.227,567.764,124.21,567.777,89.607"/>
<path fill="#FFFFFF" d="M649.893,74.054c-1.495-0.025-2.652-0.311-3.686-0.635l-11.394-4.321l-0.734-1.058l0.012-21.915l0.361-0.822
	l0.76-0.299c9.7,0.436,24.966,5.852,25.015,18.416c-0.049,6.238-4.296,10.609-10.31,10.633H649.893z"/>
<path fill="#FFFFFF" d="M625.548,134.173c-9.601-0.448-24.891-5.84-24.929-18.416c0.049-6.238,4.295-10.621,10.31-10.634
	c1.494,0.025,2.652,0.311,3.698,0.635l11.418,4.321l0.722,1.046l-0.025,21.927l-0.348,0.822l-0.772,0.299H625.548z"/>
<path fill="#FFFFFF" d="M625.244,101.803l-7.745-2.777c-10.448-4.458-17.196-14.656-17.196-25.974
	c0-14.469,10.833-26.51,25.203-28.041h0.024l0.847,0.286l0.362,0.822v54.626l-0.461,0.909l-0.66,0.224L625.244,101.803z"/>
<path fill="#FFFFFF" d="M635.216,134.173l-0.735-0.286l-0.386-0.834V78.426l0.474-0.909l0.648-0.199l8.13,2.826
	c10.435,4.458,17.196,14.656,17.196,25.962c0,14.469-10.834,26.535-25.19,28.054L635.216,134.173z"/>
<path fill="#FFFFFF" d="M583.803,29.925l-0.025-0.025c-1.669-2.378-1.158-5.529,1.332-7.272c1.668-1.183,3.238-1.233,4.656-0.747
	l-0.771,2.528c-0.872-0.249-1.681-0.261-2.465,0.287c-1.146,0.822-1.271,2.366-0.423,3.549l0.012,0.025
	c0.859,1.233,2.341,1.631,3.486,0.834c0.847-0.598,1.084-1.357,1.158-2.304l2.565,0.025c-0.025,1.606-0.523,3.125-2.329,4.395
	C588.659,32.839,585.521,32.379,583.803,29.925"/>
<path fill="#FFFFFF" d="M594.549,17.2l2.403-1.158l8.193,7.197l-2.665,1.295l-1.42-1.308l-3.486,1.681l0.137,1.93l-2.602,1.27
	L594.549,17.2z M599.38,21.645l-2.229-2.067l0.224,3.038L599.38,21.645z"/>
<polygon fill="#FFFFFF" points="603.54,13.327 611.184,10.987 611.894,13.303 606.914,14.834 607.412,16.453 611.919,15.083 
	612.592,17.262 608.072,18.657 609.118,22.056 606.466,22.878 "/>
<polygon fill="#FFFFFF" points="615.175,10.13 623.144,8.984 623.468,11.3 618.213,12.047 618.437,13.566 623.194,12.894 
	623.493,15.061 618.749,15.733 618.973,17.302 624.277,16.542 624.626,18.871 616.582,20.016 "/>
<path fill="#FFFFFF" d="M631.069,17.134l1.668-1.731c0.946,0.859,2.005,1.345,3.15,1.432c0.747,0.037,1.17-0.187,1.195-0.61V16.2
	c0.037-0.423-0.274-0.673-1.607-1.083c-2.092-0.635-3.685-1.357-3.561-3.387l0.012-0.037c0.125-1.843,1.681-3.088,4.072-2.914
	c1.693,0.125,3,0.673,4.022,1.619l-1.519,1.843c-0.872-0.71-1.843-1.108-2.727-1.171c-0.673-0.05-1.009,0.199-1.034,0.573
	l-0.013,0.037c-0.024,0.448,0.299,0.66,1.681,1.071c2.229,0.66,3.612,1.507,3.474,3.374v0.025c-0.149,2.03-1.83,3.138-4.258,2.964
	C633.87,18.989,632.239,18.317,631.069,17.134"/>
<polygon fill="#FFFFFF" points="646.136,12.743 643.222,12.096 643.745,9.73 652.287,11.623 651.764,14.001 648.838,13.341 
	647.194,20.738 644.492,20.14 "/>
<polygon fill="#FFFFFF" points="655.62,12.756 658.234,13.665 654.947,23.091 652.332,22.195 "/>
<polygon fill="#FFFFFF" points="662.321,15.212 664.811,16.42 661.524,23.232 665.869,25.323 664.823,27.515 657.974,24.215 "/>
<polygon fill="#FFFFFF" points="672.341,20.356 678.99,24.876 677.682,26.831 673.287,23.83 672.44,25.1 676.4,27.803 
	675.179,29.608 671.195,26.906 670.311,28.226 674.756,31.239 673.424,33.194 666.724,28.624 "/>
<polygon fill="#FFFFFF" points="621.56,6.299 618.471,6.76 617.164,8.416 620.265,7.943 "/>
<path fill="#FFFFFF" d="M677.253,149.141l0.012,0.025c1.681,2.378,1.158,5.529-1.32,7.272c-1.681,1.183-3.25,1.233-4.669,0.747
	l0.784-2.528c0.859,0.249,1.681,0.261,2.453-0.299c1.158-0.809,1.283-2.353,0.435-3.536l-0.012-0.025
	c-0.859-1.233-2.341-1.631-3.486-0.834c-0.86,0.598-1.084,1.357-1.158,2.304l-2.565-0.025c0.025-1.606,0.523-3.125,2.329-4.395
	C672.396,146.228,675.534,146.688,677.253,149.141"/>
<path fill="#FFFFFF" d="M666.506,161.869l-2.403,1.158l-8.206-7.21l2.677-1.283l1.42,1.308l3.487-1.693l-0.138-1.918l2.603-1.27
	L666.506,161.869z M661.663,157.423l2.228,2.055l-0.211-3.026L661.663,157.423z"/>
<polygon fill="#FFFFFF" points="657.504,165.74 649.871,168.081 649.149,165.765 654.142,164.233 653.643,162.602 649.136,163.984 
	648.451,161.805 652.971,160.411 651.938,156.999 654.577,156.189 "/>
<polygon fill="#FFFFFF" points="645.881,168.938 637.911,170.084 637.588,167.756 642.829,167.021 642.606,165.502 637.861,166.174 
	637.55,164.008 642.306,163.335 642.07,161.766 636.765,162.526 636.429,160.197 644.461,159.052 "/>
<path fill="#FFFFFF" d="M629.975,161.934l-1.669,1.731c-0.946-0.859-1.992-1.345-3.15-1.432c-0.747-0.037-1.158,0.174-1.195,0.61
	v0.025c-0.025,0.423,0.274,0.66,1.619,1.083c2.091,0.635,3.686,1.357,3.548,3.387v0.037c-0.137,1.843-1.693,3.076-4.084,2.914
	c-1.693-0.125-2.988-0.673-4.009-1.619l1.519-1.843c0.872,0.71,1.842,1.096,2.714,1.158c0.673,0.05,1.021-0.187,1.047-0.56v-0.037
	c0.037-0.448-0.286-0.673-1.669-1.071c-2.229-0.66-3.624-1.507-3.486-3.374v-0.025c0.149-2.042,1.83-3.138,4.258-2.964
	C627.185,160.079,628.803,160.739,629.975,161.934"/>
<polygon fill="#FFFFFF" points="614.921,166.323 617.834,166.971 617.299,169.337 608.769,167.444 609.292,165.066 612.206,165.713 
	613.849,158.329 616.552,158.927 "/>
<polygon fill="#FFFFFF" points="605.436,166.311 602.821,165.402 606.096,155.976 608.71,156.873 "/>
<polygon fill="#FFFFFF" points="598.736,163.856 596.245,162.648 599.52,155.837 595.174,153.745 596.232,151.554 603.081,154.853 
	"/>
<polygon fill="#FFFFFF" points="588.705,158.712 582.055,154.192 583.375,152.237 587.758,155.225 588.617,153.955 584.645,151.265 
	585.877,149.46 589.85,152.162 590.734,150.842 586.301,147.829 587.621,145.874 594.332,150.431 "/>
<polygon fill="#FFFFFF" points="639.497,172.768 642.584,172.295 643.88,170.652 640.791,171.125 "/>
<polygon fill="#FFFFFF" points="706.022,85.06 706.955,87.936 709.994,87.936 707.541,89.717 708.475,92.593 706.022,90.812 
	703.581,92.593 704.515,89.717 702.075,87.936 705.1,87.936 "/>
<polygon fill="none" stroke="#FFFFFF" stroke-width="0.255" stroke-linecap="round" stroke-linejoin="round" stroke-miterlimit="10" points="
	706.022,85.06 706.955,87.936 709.994,87.936 707.541,89.717 708.475,92.593 706.022,90.812 703.581,92.593 704.515,89.717 
	702.075,87.936 705.1,87.936 "/>
<polygon fill="#FFFFFF" points="554.814,85.06 555.747,87.936 558.774,87.936 556.32,89.717 557.254,92.593 554.814,90.812 
	552.361,92.593 553.295,89.717 550.854,87.936 553.88,87.936 "/>
<polygon fill="none" stroke="#FFFFFF" stroke-width="0.255" stroke-linecap="round" stroke-linejoin="round" stroke-miterlimit="10" points="
	554.814,85.06 555.747,87.936 558.774,87.936 556.32,89.717 557.254,92.593 554.814,90.812 552.361,92.593 553.295,89.717 
	550.854,87.936 553.88,87.936 "/>
<path fill="#411C0A" d="M1.265,160.059h10.037v10.036H1.265V160.059z M2.373,168.987h7.82v-7.82h-7.82V168.987z"/>
<polygon fill="#411C0A" points="23.169,163.563 21.488,161.895 19.284,161.895 18.288,162.866 18.288,163.725 19.284,164.696 
	22.123,164.696 23.991,166.552 23.991,168.581 22.123,170.449 18.649,170.449 16.569,168.357 17.64,167.286 19.284,168.98 
	21.488,168.98 22.497,167.971 22.497,167.149 21.488,166.166 18.649,166.166 16.806,164.31 16.806,162.268 18.649,160.425 
	22.123,160.425 24.227,162.517 "/>
<path fill="#411C0A" d="M34.478,170.347v-2.752h-4.196v2.752H28.8v-3.661l3.038-6.264h1.071l3.063,6.264v3.661H34.478z
	 M32.386,162.664l-1.718,3.462h3.424L32.386,162.664z"/>
<path fill="#411C0A" d="M46.106,170.441h-5.317V160.43h5.317l1.856,1.843v6.313L46.106,170.441z M46.468,162.871l-0.984-0.971
	h-3.213v7.073h3.213l0.984-0.996V162.871z"/>
<polygon fill="#411C0A" points="52.707,170.446 52.707,168.977 55.446,168.977 55.446,161.892 52.707,161.892 52.707,160.423 
	59.679,160.423 59.679,161.892 56.928,161.892 56.928,168.977 59.679,168.977 59.679,170.446 "/>
<polygon fill="#411C0A" points="70.897,163.563 69.228,161.895 67.012,161.895 66.016,162.866 66.016,163.725 67.012,164.696 
	69.851,164.696 71.719,166.552 71.719,168.581 69.851,170.449 66.377,170.449 64.297,168.357 65.368,167.286 67.012,168.98 
	69.228,168.98 70.224,167.971 70.224,167.149 69.228,166.166 66.377,166.166 64.534,164.31 64.534,162.268 66.377,160.425 
	69.851,160.425 71.955,162.517 "/>
<polygon fill="#411C0A" points="80.71,161.897 80.71,170.352 79.215,170.352 79.215,161.897 76.464,161.897 76.464,160.428 
	83.449,160.428 83.449,161.897 "/>
<polygon fill="#411C0A" points="88.358,170.446 88.358,168.977 91.097,168.977 91.097,161.892 88.358,161.892 88.358,160.423 
	95.343,160.423 95.343,161.892 92.591,161.892 92.591,168.977 95.343,168.977 95.343,170.446 "/>
<polygon fill="#411C0A" points="105.492,170.446 102.042,170.446 100.187,168.591 100.187,162.278 102.042,160.423 105.492,160.423 
	107.609,162.515 106.538,163.561 104.882,161.892 102.653,161.892 101.681,162.876 101.681,167.981 102.653,168.977 
	104.882,168.977 106.538,167.284 107.609,168.354 "/>
<path fill="#411C0A" d="M127.078,160.059h10.049v10.036h-10.049V160.059z M128.199,168.987h7.807v-7.82h-7.807V168.987z"/>
<polygon fill="#411C0A" points="146.86,161.897 146.86,170.352 145.365,170.352 145.365,161.897 142.614,161.897 142.614,160.428 
	149.599,160.428 149.599,161.897 "/>
<polygon fill="#411C0A" points="160.808,163.563 159.139,161.895 156.923,161.895 155.938,162.866 155.938,163.725 156.923,164.696 
	159.761,164.696 161.629,166.552 161.629,168.581 159.761,170.449 156.287,170.449 154.208,168.357 155.279,167.286 156.923,168.98 
	159.139,168.98 160.135,167.971 160.135,167.149 159.139,166.166 156.287,166.166 154.444,164.31 154.444,162.268 156.287,160.425 
	159.761,160.425 161.878,162.517 "/>
<polygon fill="#411C0A" points="171.849,170.434 168.374,170.434 166.544,168.579 166.544,160.522 168.026,160.522 168.026,167.968 
	169.035,168.965 171.239,168.965 172.197,167.968 172.197,160.522 173.716,160.522 173.716,168.579 "/>
<polygon fill="#411C0A" points="184.446,170.446 180.038,163.511 180.038,170.347 178.543,170.347 178.543,160.423 179.814,160.423 
	184.234,167.333 184.234,160.522 185.728,160.522 185.728,170.446 "/>
<path fill="#411C0A" d="M195.843,170.441h-5.329V160.43h5.329l1.856,1.843v6.313L195.843,170.441z M196.205,162.871l-0.996-0.971
	h-3.2v7.073h3.2l0.996-0.996V162.871z"/>
<polygon fill="#411C0A" points="202.503,170.446 202.503,160.423 209.588,160.423 209.588,161.892 203.997,161.892 203.997,164.694 
	207.347,164.694 207.347,166.163 203.997,166.163 203.997,168.977 209.588,168.977 209.588,170.446 "/>
<path fill="#411C0A" d="M220.82,170.691l-4.52-4.52h-0.361v4.184h-1.482v-9.924h5.317l1.856,1.843v2.03l-1.856,1.868h-1.357
	l3.474,3.462L220.82,170.691z M220.135,162.871l-0.984-0.971h-3.213v2.789h3.213l0.984-0.971V162.871z"/>
<polygon fill="#411C0A" points="226.471,170.446 226.471,160.423 233.555,160.423 233.555,161.892 227.965,161.892 227.965,164.694 
	231.326,164.694 231.326,166.163 227.965,166.163 227.965,168.977 233.555,168.977 233.555,170.446 "/>
<path fill="#411C0A" d="M253.352,160.059H263.4v10.036h-10.049V160.059z M254.473,168.987h7.807v-7.82h-7.807V168.987z"/>
<polygon fill="#411C0A" points="268.898,170.446 268.898,168.977 271.637,168.977 271.637,161.892 268.898,161.892 268.898,160.423 
	275.883,160.423 275.883,161.892 273.131,161.892 273.131,168.977 275.883,168.977 275.883,170.446 "/>
<polygon fill="#411C0A" points="286.481,170.349 286.481,163.476 284.849,165.966 283.915,165.966 282.284,163.476 282.284,170.349 
	280.79,170.349 280.79,160.425 282.073,160.425 284.363,163.937 286.692,160.425 287.975,160.425 287.975,170.349 "/>
<path fill="#411C0A" d="M298.084,170.441h-3.474l-1.831-1.855v-6.313l1.831-1.843h3.474l1.868,1.843v6.313L298.084,170.441z
	 M298.458,162.871l-0.984-0.971h-2.229l-0.971,0.971v5.105l0.971,0.996h2.229l0.984-0.996V162.871z"/>
<polygon fill="#411C0A" points="310.071,170.434 306.596,170.434 304.766,168.579 304.766,160.522 306.248,160.522 306.248,167.968 
	307.257,168.965 309.461,168.965 310.419,167.968 310.419,160.522 311.938,160.522 311.938,168.579 "/>
<polygon fill="#411C0A" points="320.991,161.897 320.991,170.352 319.496,170.352 319.496,161.897 316.745,161.897 316.745,160.428 
	323.73,160.428 323.73,161.897 "/>
<path fill="#411C0A" d="M333.896,170.441h-3.487l-1.83-1.855v-6.313l1.83-1.843h3.487l1.868,1.843v6.313L333.896,170.441z
	 M334.27,162.871l-0.996-0.971h-2.217l-0.983,0.971v5.105l0.983,0.996h2.217l0.996-0.996V162.871z"/>
<path fill="#411C0A" d="M355.469,160.059h10.049v10.036h-10.049V160.059z M356.577,168.987h7.82v-7.82h-7.82V168.987z"/>
<path fill="#411C0A" d="M376.321,170.441h-3.487l-1.83-1.855v-6.313l1.83-1.843h3.487l1.868,1.843v6.313L376.321,170.441z
	 M376.695,162.871l-0.996-0.971h-2.217l-0.983,0.971v5.105l0.983,0.996h2.217l0.996-0.996V162.871z"/>
<polygon fill="#411C0A" points="388.915,170.446 384.507,163.511 384.507,170.347 383.012,170.347 383.012,160.423 384.283,160.423 
	388.691,167.333 388.691,160.522 390.197,160.522 390.197,170.446 "/>
<polygon fill="#411C0A" points="394.983,170.446 394.983,160.423 402.068,160.423 402.068,161.892 396.477,161.892 396.477,164.694 
	399.826,164.694 399.826,166.163 396.477,166.163 396.477,168.977 402.068,168.977 402.068,170.446 "/>
<polygon fill="#411C0A" points="406.925,170.446 406.925,160.423 414.01,160.423 414.01,161.892 408.419,161.892 408.419,164.694 
	411.768,164.694 411.768,166.163 408.419,166.163 408.419,168.977 414.01,168.977 414.01,170.446 "/>
<polygon fill="#411C0A" points="425.176,163.563 423.495,161.895 421.291,161.895 420.295,162.866 420.295,163.725 421.291,164.696 
	424.13,164.696 425.998,166.552 425.998,168.581 424.13,170.449 420.656,170.449 418.576,168.357 419.647,167.286 421.291,168.98 
	423.495,168.98 424.504,167.971 424.504,167.149 423.495,166.166 420.656,166.166 418.801,164.31 418.801,162.268 420.656,160.425 
	424.13,160.425 426.234,162.517 "/>
<path fill="#411C0A" d="M436.486,170.347v-2.752h-4.196v2.752h-1.494v-3.661l3.051-6.264h1.071l3.063,6.264v3.661H436.486z
	 M434.382,162.664l-1.706,3.462h3.424L434.382,162.664z"/>
<polygon fill="#411C0A" points="448.706,170.446 444.298,163.511 444.298,170.347 442.803,170.347 442.803,160.423 444.074,160.423 
	448.482,167.333 448.482,160.522 449.988,160.522 449.988,170.446 "/>
<path fill="#411C0A" d="M469.664,160.059h10.037v10.036h-10.037V160.059z M470.76,168.987h7.82v-7.82h-7.82V168.987z"/>
<polygon fill="#411C0A" points="485.186,170.446 485.186,168.977 487.925,168.977 487.925,161.892 485.186,161.892 485.186,160.423 
	492.171,160.423 492.171,161.892 489.419,161.892 489.419,168.977 492.171,168.977 492.171,170.446 "/>
<path fill="#411C0A" d="M502.408,170.441h-5.329V160.43h5.329l1.856,1.843v6.313L502.408,170.441z M502.769,162.871l-0.996-0.971
	h-3.2v7.073h3.2l0.996-0.996V162.871z"/>
<path fill="#411C0A" d="M514.373,170.441h-3.474l-1.831-1.855v-6.313l1.831-1.843h3.474l1.868,1.843v6.313L514.373,170.441z
	 M514.747,162.871l-0.984-0.971h-2.229l-0.971,0.971v5.105l0.971,0.996h2.229l0.984-0.996V162.871z"/>
<polygon fill="#411C0A" points="521.047,170.446 521.047,160.522 522.541,160.522 522.541,168.977 528.131,168.977 528.131,170.446 
	"/>
<path fill="#E94E70" d="M4.637,170.799c-0.959-0.012-1.246-0.423-1.507-1.344c-0.137-0.473-0.386-1.183-0.585-1.619
	c-0.212-0.436-0.361-0.922-0.361-1.059c0-0.51-0.959-2.689-1.37-3.063c-0.411-0.399-0.561-0.947-0.374-1.432
	c0.187-0.436,0.635-0.71,1.158-0.71c0.884,0,1.594,0.598,1.756,1.495c0.125,0.648,0.56,2.142,0.872,2.901l0.287,0.747l0.56-0.137
	c0.747-1.407,4.034-5.641,5.23-7.048c0.772-0.909,2.403-2.702,3.674-4.009c1.245-1.27,2.054-2.204,2.228-2.453
	c0.1-0.287,0.299-0.511,0.499-0.648c0.261-0.174,0.572-0.274,0.896-0.274c0.349,0,0.735,0.112,1.121,0.349
	c0.685,0.411,0.946,1.133,0.673,1.855c-0.138,0.386-0.436,0.585-1.121,0.772c-0.722,0.174-1.208,0.535-2.777,2.054
	c-4.159,3.985-8.766,10.074-9.314,12.315c-0.199,0.772-0.796,1.307-1.531,1.307H4.637z"/>
<path fill="#FDD121" d="M255.413,167.916c-1.009,0-2.229-0.834-2.802-1.905l-0.573-1.096c-0.124-0.187-0.535-1.058-0.859-1.805
	c-0.435-0.971-0.635-1.531-0.473-1.855c0.1-0.2,0.312-0.336,0.747-0.436h0.075c1.009,0,1.382,0.834,1.594,1.469
	c0.398,1.083,0.398,1.083,1.021,2.217c0.486,0.834,0.573,0.946,1.283,0.996h0.087c0.498,0,0.784-0.075,0.933-0.174
	c0.2-0.162,0.536-0.361,0.797-0.498c0.511-0.261,1.868-1.507,2.565-2.391c0.834-1.046,1.619-2.465,3.138-5.566
	c0.834-1.669,1.569-3.187,1.656-3.337c1.469-2.777,1.855-3.561,1.855-3.885c0-0.224,0.125-0.573,0.312-0.76
	c0.224-0.261,0.523-0.399,0.859-0.399c0.486,0,0.946,0.262,1.258,0.697c0.324,0.424,0.324,0.535,0.074,1.146
	c-0.149,0.361-0.435,0.772-0.635,0.921c-0.187,0.149-0.635,0.722-0.984,1.257c-0.647,0.984-0.859,1.432-2.017,3.972
	c-1.943,4.308-3.486,6.898-5.167,8.679c-0.809,0.872-3.064,2.453-3.499,2.453C256.221,167.804,255.936,167.916,255.413,167.916"/>
<path fill="#924898" d="M358.602,171.881c-0.262,0-0.511-0.05-0.698-0.137c-0.56-0.249-0.722-0.76-1.469-3.847
	c-0.237-0.996-0.585-2.416-0.822-3.026l-0.324-0.859l-0.771,1.905c-0.312,0.896-0.424,1.033-1.009,1.17
	c-0.124,0.013-0.249,0.013-0.348,0.013c-0.573,0-0.922-0.174-1.096-0.947c-0.112-0.498,0.062-0.872,1.307-2.615
	c1.096-1.532,1.519-2.017,2.03-2.104h0.062c0.299,0,0.51,0.062,0.759,0.149c0.66,0.261,0.685,0.261,1.631,3.935
	c0.138,0.548,0.635,2.142,0.635,2.142l0.398-0.71c1.718-3.088,2.64-4.508,6.126-9.376l1.047-1.494
	c1.021-1.27,1.395-1.656,1.818-2.03l1.208-1.046c0.386-0.361,0.585-0.535,0.996-0.585c0.112,0,0.199-0.013,0.286-0.013
	c0.399,0,0.598,0.038,0.797,0.112c0.66,0.212,1.046,0.822,0.996,1.519c-0.05,0.697-0.511,1.233-1.146,1.332
	c-0.909,0.025-1.195,0.037-1.457,0.087c-0.697,0.224-1.581,1.033-1.855,1.27c-3.051,3.935-6.923,10.235-7.633,12.838
	c-0.585,2.129-0.622,2.129-1.146,2.278L358.602,171.881z"/>
<path fill="#65BFA1" d="M469.804,172.452c-0.76,0-1.283-0.772-1.382-2.054c-0.112-1.308-0.548-2.142-1.295-2.465
	c-0.585-0.261-0.946-0.76-0.946-1.332c0-0.511,0.287-0.934,0.796-1.171c0.087,0,0.162-0.012,0.249-0.012
	c0.959,0,1.656,0.473,1.955,1.058c0.399,0.76,0.685,1.121,0.822,1.27l0.299,0.349l0.622-0.859c0.274-0.448,1.083-1.457,1.756-2.291
	l3.038-3.611c0.971-1.158,2.042-2.403,2.378-2.752c0.324-0.361,0.959-1.108,1.37-1.631l1.059-1.357
	c0.436-0.548,0.847-1.009,1.046-1.221c0.2-0.199,0.436-0.635,0.499-0.934c0.1-0.399,0.361-0.747,0.734-0.971
	c0.261-0.162,0.511-0.249,0.735-0.249c0.548,0,1.071,0.448,1.693,1.133c0.66,0.722,0.872,1.108,0.76,1.382
	c-0.112,0.274-0.473,0.423-1.332,0.51c-1.109,0.125-1.195,0.174-2.229,1.27c-0.598,0.635-1.781,1.992-2.59,2.989l-2.665,3.237
	c-4.234,5.118-5.691,7.21-5.79,8.33c-0.049,0.461-0.249,0.76-0.722,1.083C470.364,172.353,470.065,172.452,469.804,172.452"/>
<path fill="#37BEF0" d="M130.298,172.087c-0.386,0-0.71-0.062-0.885-0.187c-0.361-0.199-0.435-0.486-0.585-1.893
	c-0.162-1.494-0.834-3.723-1.469-4.869c-0.137-0.187-0.548-0.498-1.034-0.685c-1.519-0.61-1.469-1.42-1.307-1.955
	c0.199-0.598,0.66-0.921,1.519-0.996c0.958,0,2.938,2.154,3.013,3.051c0.349,0.423,0.486,0.872,0.573,1.208l0.224,0.872l0.536-0.423
	c1.444-2.59,4.432-6.375,6.325-8.069c2.029-1.805,4.557-3.237,6.45-3.648c0.385-0.087,0.66-0.199,0.784-0.261
	c0.224-0.224,0.435-0.311,0.734-0.336h0.062c0.959,0,1.868,0.249,2.03,0.648c0.199,0.411-0.062,1.333-0.498,1.793
	c-0.224,0.249-0.436,0.348-0.748,0.374h-0.137c-0.448,0-0.809-0.037-1.233-0.112c-1.307,0.087-3.063,0.797-4.408,1.669
	c-0.896,0.561-1.98,1.519-3.137,2.752c-0.971,1.046-1.556,1.743-1.706,1.943c-0.074,0.174-0.174,0.386-0.511,0.809
	c-0.56,0.722-1.718,2.715-2.428,4.209c-0.348,0.697-0.523,1.407-0.572,2.217c-0.025,0.598-0.125,1.332-0.249,1.507
	c-0.125,0.187-0.511,0.324-1.034,0.374L130.298,172.087z"/>
</svg>
