<?xml version="1.0" encoding="utf-8"?>
<!-- Generator: Adobe Illustrator 27.0.1, SVG Export Plug-In . SVG Version: 6.00 Build 0)  -->
<svg version="1.1" id="레이어_1" xmlns="http://www.w3.org/2000/svg" xmlns:xlink="http://www.w3.org/1999/xlink" x="0px"
	 y="0px" viewBox="0 0 720 128.495" enable-background="new 0 0 720 128.495" xml:space="preserve">
<polygon fill="#231815" points="711.768,21.52 699.749,12.862 699.008,13.925 672.616,18.511 659.495,14.809 667.461,28.441 
	674.799,25.043 695.353,19.166 663.644,64.47 647.315,76.869 647.865,77.876 665.21,69.92 707.629,22.698 "/>
<polygon fill="#231815" points="691.187,45.153 690.076,47.745 711.769,74.727 715.813,76.131 720,61.976 "/>
<polygon fill="#231815" points="628.601,5.815 628.145,6.537 641.237,20.996 644.237,17.635 641.778,10.989 "/>
<polygon fill="#231815" points="652.215,11.322 650.876,4.705 636.692,0.006 636.322,0.632 650.344,12.082 "/>
<polygon fill="#231815" points="555.367,27.529 553.743,28.317 557.882,32.286 557.265,37.564 543.186,62.77 525.565,80.505 
	526.287,81.416 547.078,67.868 569.787,34.963 561.148,28.982 "/>
<polygon fill="#231815" points="539.17,44.624 541.467,47.065 544.79,45.156 545.882,35.672 532.287,28.438 531.651,29.169 
	536.521,36.213 "/>
<polygon fill="#231815" points="528.693,38.682 515.838,32.35 515.297,32.977 521.344,42.518 524.506,50.179 531.057,47.72 "/>
<polygon fill="#231815" points="520.59,10.265 503.662,2.727 503.206,3.544 515.292,16.275 "/>
<polygon fill="#231815" points="429.514,3.775 431.279,13.364 407.203,41.134 383.905,58.156 384.361,59.153 409.634,47.067 
	420.703,38.181 423.589,44.998 419.611,75.663 430.814,84.264 431.289,42.52 423.381,36.035 448.036,16.241 "/>
<path fill="#231815" d="M387.63,32.897l-18.551,15.589l-32.421,15.93l3.617-49.035l-16.158-5.117l-3.161,1.348l6.712,5.867
	l1.31,38.194c0.01,0.171,0,0.351-0.019,0.513l-1.452,12.541l8.782,9.674l36.494-24.959l15.76-19.918L387.63,32.897z"/>
<polygon fill="#231815" points="283.328,34.621 283.461,23.655 286.091,9.69 270.702,4.706 267.065,5.627 274.357,12.329 
	274.357,56.941 271.034,73.545 282.759,82.413 283.3,37.165 306.75,54.121 310.49,52.526 309.341,38.921 "/>
<polygon fill="#231815" points="225.652,45.051 245.664,18.27 235.43,12.08 230.655,14.558 205.392,18.156 194.332,14.729 
	201.281,26.909 231.092,19.456 231.329,19.627 213.101,49.001 182.094,76.875 182.645,77.872 216.775,56.938 224.626,46.438 
	250.003,76.324 253.146,74.141 253.032,60.299 "/>
<polygon fill="#231815" points="100.211,11.174 176.712,11.174 165.101,2.183 158.968,9.18 138.661,9.18 138.661,5.269 
	142.829,2.183 127.933,0 128.369,9.18 98.341,9.18 93.318,8.364 94.23,11.81 "/>
<path fill="#231815" d="M149.687,58.105c2.943-1.044,14.592-5.383,14.592-5.383h3.968l0.437-1.329l-10.301-7.054l-9.864,12.171
	l-9.532-12.987h12.228h6.731l0.522-0.541l-7.728-6.37l-4.804,5.003H112.87l-6.105-0.721l0.551,3.086l5.165-0.456h8.611l-10.12,7.073
	l-16.557,6.741l0.266,0.997l19.994-4.396l11.592-5.934l1.956,2.753l-14.089,9l-20.81,7.662l0.266,1.092l21.579-4.253
	c0,0,14.117-6.418,17.146-7.595l0.484,3.19l-16.358,9.95l-24.114,8.696l0.266,1.007l21.171-3.94l19.947-7.604l-1.016,8.25
	l-16.652-0.152l-0.19,0.997l9.788,3.807l1.453,4.823l12.437-3.266l3.304-12.617l-6-14.393l-8.696-8.364l6.873-3.522h2.839
	l8.63,20.478l22.358,17.868l8.535-10.814l-26.839-11.791L149.687,58.105z"/>
<path fill="#231815" d="M159.153,30.345v-9.987l3.219-2.706l-9.285-5.117l-4.063,3.826h-30.978l-9.826-3.826V31.18l9.826-0.693
	v-2.506h31.491v2.744L159.153,30.345z M118.045,18.269h31.482v7.813h-31.482V18.269z"/>
<polygon fill="#231815" points="161.726,33.434 104.108,33.434 103.045,28.811 102.76,28.858 101.953,28.981 100.254,34.754 
	91.016,43.849 98.735,50.599 104.659,35.836 104.545,35.342 162.315,35.342 160.103,44.428 161.014,44.884 177.362,35.836 
	166.426,27.985 "/>
<polygon fill="#231815" points="48.362,56.362 51.238,54.644 69.761,20.628 70.586,20.628 84.837,20.628 72.599,10.185 
	64.985,18.72 46.311,18.72 46.311,6.615 51.238,4.033 35.526,1.365 35.858,4.346 35.858,18.72 8.972,18.72 0.276,17.808 
	0.911,21.169 8.298,20.628 55.482,20.628 45.846,46.309 41.744,49.679 31.852,39.701 23.25,21.701 21.94,22.935 28.301,42.435 
	37.168,53.439 0,83.951 0.276,84.958 42.381,59.913 51.874,71.705 76.112,84.122 85.776,71.515 53.744,61.793 "/>
<polygon fill="#231815" points="627.59,19.564 611.602,22.47 608.26,21.691 613.557,15.492 603.361,6.492 599.127,7.033 
	601.178,14.97 589.975,32.979 574.538,49.337 575.174,50.239 594.94,37.213 606.124,24.16 611.602,28.574 626.393,24.131 
	626.08,25.327 610.52,51.806 576.361,81.502 576.807,82.508 616.244,58.242 639.181,27.53 628.121,17.533 "/>
<polygon fill="#231815" points="495.488,8.995 494.938,9.717 508.21,24.802 511.276,23.777 510.754,17.274 "/>
<polygon fill="#231815" points="479.657,34.454 479.742,23.584 482.201,11.555 466.033,5.279 463.442,6.381 469.584,11.318 
	470.761,27.713 470.325,56.65 468.34,73.73 476.714,82.208 479.296,79.208 479.638,37.597 503.211,53.992 507.74,50.29 
	505.319,41.271 "/>
<path fill="#231815" d="M175.067,127.168c-0.674,0.721-1.804,1.082-2.972,1.082h-4.775v-11.82h4.719c1.101,0,2.24,0.361,2.886,1.082
	c0.465,0.513,0.769,1.111,0.769,1.965c0,1.13-0.598,2.221-1.699,2.63c1.215,0.399,1.965,1.595,1.965,2.838
	C175.959,125.906,175.579,126.618,175.067,127.168 M172.038,117.751h-3.266v3.712h3.323c1.225,0,2.079-0.541,2.079-1.861
	C174.174,118.368,173.177,117.751,172.038,117.751 M172.124,122.763h-3.352v4.13h3.323c1.301,0,2.345-0.646,2.345-2.041
	C174.44,123.532,173.377,122.763,172.124,122.763"/>
<path fill="#231815" d="M197.291,128.475c-2.649,0-4.32-1.604-4.32-4.547v-7.5h1.481v7.519c0,1.899,0.788,3.142,2.839,3.142
	c2.05,0,2.838-1.244,2.838-3.142v-7.519h1.481v7.5C201.611,126.87,199.94,128.475,197.291,128.475"/>
<polygon fill="#231815" points="226.143,128.251 220.343,118.748 220.343,128.251 218.909,128.251 218.909,116.432 220.571,116.432 
	226.381,125.973 226.381,116.432 227.814,116.432 227.814,128.251 "/>
<path fill="#231815" d="M252.831,128.251l-0.256-1.414c-0.579,0.968-1.88,1.652-3.219,1.652c-1.177,0-2.335-0.389-3.18-1.225
	c-1.206-1.168-1.538-2.791-1.538-4.918c0-1.88,0.256-3.617,1.538-4.87c0.845-0.836,2.003-1.272,3.18-1.272
	c1.339,0,2.573,0.475,3.39,1.339c0.57,0.608,0.968,1.358,1.016,2.307h-1.547c-0.048-0.551-0.238-0.93-0.541-1.301
	c-0.532-0.636-1.348-0.931-2.317-0.931c-0.797,0-1.585,0.313-2.145,0.902c-0.968,0.997-1.035,2.592-1.035,3.826
	c0,1.187,0.085,2.896,1.063,3.892c0.57,0.588,1.32,0.845,2.117,0.845c0.836,0,1.624-0.275,2.155-0.816
	c0.788-0.769,1.016-1.918,1.016-3h-3.171v-1.386h4.51v6.37H252.831z"/>
<path fill="#231815" d="M278.68,127.223c-0.854,0.835-2.003,1.272-3.19,1.272c-1.187,0-2.336-0.437-3.18-1.272
	c-1.291-1.253-1.519-2.981-1.519-4.88c0-1.88,0.228-3.617,1.519-4.861c0.845-0.836,1.994-1.272,3.18-1.272
	c1.187,0,2.335,0.437,3.19,1.272c1.282,1.244,1.519,2.981,1.519,4.861C280.199,124.242,279.962,125.969,278.68,127.223
	 M277.645,118.517c-0.57-0.588-1.358-0.892-2.155-0.892c-0.797,0-1.585,0.304-2.155,0.892c-0.959,0.997-1.016,2.592-1.016,3.826
	c0,1.244,0.057,2.839,1.016,3.845c0.57,0.579,1.358,0.883,2.155,0.883c0.798,0,1.585-0.304,2.155-0.883
	c0.968-1.006,1.016-2.601,1.016-3.845C278.661,121.108,278.614,119.514,277.645,118.517"/>
<path fill="#231815" d="M324.363,127.288c-0.817,0.798-2.089,1.187-3.361,1.187c-1.424,0-2.573-0.399-3.38-1.139
	c-0.75-0.693-1.272-1.718-1.272-2.829h1.557c0,0.693,0.351,1.396,0.836,1.861c0.532,0.522,1.434,0.731,2.26,0.731
	c0.911,0,1.671-0.18,2.212-0.683c0.361-0.332,0.598-0.741,0.598-1.377c0-0.921-0.589-1.69-1.984-1.899l-1.87-0.294
	c-1.766-0.256-3.152-1.253-3.152-3.133c0-0.883,0.399-1.728,1.035-2.335c0.816-0.76,1.87-1.168,3.104-1.168
	c1.149,0,2.278,0.389,3.066,1.139c0.721,0.674,1.101,1.529,1.139,2.535h-1.557c-0.028-0.588-0.247-1.101-0.588-1.49
	c-0.446-0.513-1.168-0.807-2.079-0.807c-0.854,0-1.585,0.228-2.098,0.807c-0.304,0.361-0.484,0.759-0.484,1.291
	c0,1.073,0.873,1.548,1.766,1.671c0.665,0.085,1.31,0.2,1.965,0.294c1.965,0.294,3.285,1.491,3.285,3.361
	C325.36,125.987,324.952,126.718,324.363,127.288"/>
<polygon fill="#231815" points="347.717,117.812 347.717,128.255 346.217,128.255 346.217,117.812 342.695,117.812 342.695,116.426 
	351.239,116.426 351.239,117.812 "/>
<path fill="#231815" d="M376.175,128.256l-2.24-4.918h-3.266v4.918h-1.491v-11.829h4.643c1.386,0,2.354,0.38,3,1.054
	c0.57,0.598,0.94,1.367,0.94,2.402c0,1.035-0.342,1.728-0.902,2.335c-0.351,0.37-0.854,0.646-1.424,0.836l2.373,5.203H376.175z
	 M373.82,117.794h-3.152v4.149h3.152c1.395,0,2.402-0.56,2.402-2.06C376.222,118.383,375.216,117.794,373.82,117.794"/>
<path fill="#231815" d="M402.612,128.253l-0.969-2.801h-5.136l-0.949,2.801h-1.5l4.168-11.82h1.737l4.187,11.82H402.612z
	 M399.062,117.915l-2.089,6.133h4.187L399.062,117.915z"/>
<polygon fill="#231815" points="425.921,123.45 425.921,128.253 424.42,128.253 424.42,123.45 420.452,116.434 422.114,116.434 
	425.218,122.054 428.303,116.434 429.889,116.434 "/>
<path fill="#231815" d="M473.817,127.078c-0.826,0.797-1.946,1.177-3.095,1.177h-4.121v-11.82h4.121
	c1.149,0,2.269,0.399,3.095,1.187c1.31,1.234,1.519,3.009,1.519,4.718C475.336,124.031,475.108,125.844,473.817,127.078
	 M472.82,118.61c-0.551-0.55-1.339-0.816-2.098-0.816h-2.639v9.095h2.639c0.759,0,1.547-0.266,2.098-0.816
	c0.93-0.949,1.016-2.478,1.016-3.731C473.836,121.069,473.75,119.588,472.82,118.61"/>
<path fill="#231815" d="M499.823,127.223c-0.845,0.835-1.994,1.272-3.18,1.272c-1.187,0-2.336-0.437-3.18-1.272
	c-1.291-1.253-1.519-2.981-1.519-4.88c0-1.88,0.228-3.617,1.519-4.861c0.845-0.836,1.994-1.272,3.18-1.272
	c1.187,0,2.335,0.437,3.18,1.272c1.291,1.244,1.529,2.981,1.529,4.861C501.351,124.242,501.114,125.969,499.823,127.223
	 M498.798,118.517c-0.57-0.588-1.358-0.892-2.155-0.892c-0.797,0-1.585,0.304-2.155,0.892c-0.969,0.997-1.016,2.592-1.016,3.826
	c0,1.244,0.047,2.839,1.016,3.845c0.57,0.579,1.358,0.883,2.155,0.883c0.798,0,1.585-0.304,2.155-0.883
	c0.968-1.006,1.016-2.601,1.016-3.845C499.814,121.108,499.766,119.514,498.798,118.517"/>
<path fill="#231815" d="M526.116,128.251l-0.247-1.414c-0.589,0.968-1.889,1.652-3.228,1.652c-1.177,0-2.335-0.389-3.18-1.225
	c-1.206-1.168-1.538-2.791-1.538-4.918c0-1.88,0.256-3.617,1.538-4.87c0.845-0.836,2.003-1.272,3.18-1.272
	c1.339,0,2.573,0.475,3.39,1.339c0.57,0.608,0.968,1.358,1.016,2.307h-1.547c-0.048-0.551-0.238-0.93-0.541-1.301
	c-0.532-0.636-1.348-0.931-2.317-0.931c-0.797,0-1.585,0.313-2.145,0.902c-0.968,0.997-1.035,2.592-1.035,3.826
	c0,1.187,0.085,2.896,1.063,3.892c0.57,0.588,1.32,0.845,2.117,0.845c0.836,0,1.624-0.275,2.155-0.816
	c0.788-0.769,1.016-1.918,1.016-3h-3.171v-1.386h4.51v6.37H526.116z"/>
<path fill="#231815" d="M552.237,127.288c-0.817,0.798-2.079,1.187-3.352,1.187c-1.434,0-2.582-0.399-3.38-1.139
	c-0.759-0.693-1.272-1.718-1.272-2.829h1.547c0,0.693,0.351,1.396,0.836,1.861c0.532,0.522,1.434,0.731,2.269,0.731
	c0.902,0,1.671-0.18,2.203-0.683c0.361-0.332,0.598-0.741,0.598-1.377c0-0.921-0.579-1.69-1.984-1.899l-1.861-0.294
	c-1.775-0.256-3.152-1.253-3.152-3.133c0-0.883,0.399-1.728,1.025-2.335c0.816-0.76,1.87-1.168,3.104-1.168
	c1.149,0,2.288,0.389,3.066,1.139c0.721,0.674,1.101,1.529,1.139,2.535h-1.557c-0.028-0.588-0.247-1.101-0.579-1.49
	c-0.446-0.513-1.168-0.807-2.089-0.807c-0.845,0-1.585,0.228-2.098,0.807c-0.304,0.361-0.484,0.759-0.484,1.291
	c0,1.073,0.883,1.548,1.766,1.671c0.674,0.085,1.32,0.2,1.975,0.294c1.965,0.294,3.285,1.491,3.285,3.361
	C553.243,125.987,552.826,126.718,552.237,127.288"/>
</svg>
