<?xml version="1.0" encoding="utf-8"?>
<!-- Generator: Adobe Illustrator 27.0.1, SVG Export Plug-In . SVG Version: 6.00 Build 0)  -->
<svg version="1.1" id="레이어_1" xmlns="http://www.w3.org/2000/svg" xmlns:xlink="http://www.w3.org/1999/xlink" x="0px"
	 y="0px" viewBox="0 0 720 230.696" enable-background="new 0 0 720 230.696" xml:space="preserve">
<path d="M61.524,228.783c-20.787,0-35.929-7.604-47.604-23.969C4.941,192.251,0,175.552,0,157.813
	c0-27.637,12.295-49.68,35.527-63.767c12.127-6.918,31.137-14.388,44.153-14.388c12.981,0,19.883,1.876,26.247,4.707
	c3.753,1.859,8.141,4.907,9.163,7.252c-0.084,0.703-0.302,2.06-0.553,2.865c-2.144,3.836-6.499,8.375-8.493,9.313
	c-0.268,0.1-0.653,0.134-0.988,0.134c-0.135,0-0.235,0-0.319-0.016C93.466,92.856,79.463,87.011,64.169,87.011
	c-23.333,0-46.967,19.381-46.967,56.431c0,21.909,5.31,39.915,14.958,50.736c12.127,14.372,25.98,20.82,44.874,20.82
	c10.67,0,27.017-4.27,39.983-16.013c-0.118,0.721-0.268,1.374-0.419,1.776C94.471,226.053,70.736,228.783,61.524,228.783"/>
<path d="M203.587,225.364c-3.132-0.05-7.404-0.268-11.893-0.452c-6.533-0.318-13.919-0.653-19.782-0.653
	c-8.995,0-17.654,0.436-23.969,0.753c-2.847,0.151-5.276,0.285-7.102,0.335c-0.034-0.368-0.016-0.787,0-1.139
	c5.008-0.703,10.586-1.524,14.673-3.384c5.679-2.579,7.421-6.331,8.175-17.486c0.753-9.531,0.753-39.949,0.753-62.159
	c0-9.18-0.134-17.169-0.251-23.602c-0.05-4.12-0.117-7.52-0.117-10.05c0-2.395,0-4.455-2.245-8.057
	c-0.084-0.117-0.168-0.234-0.268-0.334c-3.936-4.339-9.598-6.081-16.08-7.588c0-0.453,0.017-1.005,0.067-1.508
	c8.509-0.937,22.612-3.249,35.61-8.978c-0.352,13.233-0.653,39.966-0.653,60.117c0,20.886,0,46.9,0.403,65.442
	c0,7.788,2.914,12.311,9.497,14.656c4.271,1.423,6.549,1.892,13.383,2.831C203.721,224.544,203.654,224.996,203.587,225.364"/>
<path d="M276.265,228.407c-8.694,0-20.218-2.512-25.846-14.505c-3.953-8.291-4.305-17.403-4.305-41.356
	c0-11.206,0.101-27.704,0.218-42.261c0.084-12.713,0.168-24.488,0.168-31.456c0-3.015-1.976-4.104-3.132-4.505
	c-2.11-0.603-7.353-0.922-14.572-1.307c-1.005-0.051-1.942-0.101-2.847-0.151c0.502-1.44,1.189-3.216,1.692-4.388l0.569-0.084
	c6.917-1.139,13.316-2.228,15.711-3.266c1.809-0.888,2.579-2.915,2.579-4.071V53.235c4.992-3.502,14.221-12.748,17.504-17.505
	c0.051,0.017,0.067,0.017,0.118,0.017c-0.989,6.616-1.942,21.188-1.942,44.94c0,1.943,2.094,4.255,3.886,4.255
	c2.763,0.033,5.51,0.066,8.207,0.066c13.5,0,24.957-0.586,30.953-1.155c-0.77,3.283-1.541,7.286-1.959,10.335
	c-5.36-0.017-11.424-0.101-17.337-0.168c-6.683-0.101-13.618-0.201-19.497-0.201c-2.629,0-4.254,2.697-4.254,4.623
	c-0.369,22.914-0.369,66.297,0,82.846c0.334,10.77,1.205,17.739,2.797,21.96c3.986,9.196,12.495,14.371,23.383,14.371
	c8.492,0,14.087-1.826,18.458-4.238c-0.05,0.285-0.118,0.553-0.168,0.737C299.564,222.946,287.956,228.407,276.265,228.407"/>
<path d="M181.833,10.837c0,5.981-4.858,10.838-10.838,10.838c-5.996,0-10.854-4.857-10.854-10.838
	c0-5.98,4.858-10.837,10.854-10.837C176.975,0,181.833,4.857,181.833,10.837"/>
<path d="M397.015,225.364c-1.642-0.066-4.188-0.167-7.22-0.318c-7.638-0.318-18.107-0.787-26.214-0.787
	c-8.978,0-25.728,0.62-33.35,1.022c0-0.335,0-0.704,0.017-1.022c4.238-0.586,9.732-1.91,12.914-2.965
	c4.925-1.641,7.253-4.823,8.04-11.021c1.408-7.555,1.508-55.376,1.508-69.848c0-15.695,0-27.035-0.771-32.11
	c-0.536-4.741-3.132-11.524-19.044-15.46c0.033-0.185,0.066-0.352,0.1-0.503c9.346-1.189,26.348-6.884,35.309-11.775
	c-0.268,7.873-0.268,22.06-0.268,29.229c0,1.776,1.759,2.881,3.4,2.881c0.821,0,1.592-0.284,2.144-0.837
	c0.067-0.084,0.151-0.168,0.218-0.268c6.349-8.593,13.853-18.291,22.596-24.84c6.7-5.042,11.659-7.086,17.085-7.086
	c5.41,0,10.419,2.312,12.579,5.796c0.134,0.703,0.134,2.731-0.117,3.736c-0.637,3.149-6.031,12.127-9.28,15.594l-0.787,0.335
	c-6.365-5.712-14.757-8.275-20.536-8.275c-10.804,0-18.425,11.49-23.233,20.117c-1.993,4.02-4.07,11.927-4.07,18.928
	c0,23.836,0.402,62.796,1.139,70.92c0.285,5.36,1.574,11.893,8.828,14.121c7.135,2.261,13.4,3.015,19.145,3.4
	C397.132,224.678,397.082,225.03,397.015,225.364"/>
<path d="M565.219,230.696c-0.017-0.083-0.034-0.2-0.034-0.318c0-2.278,0.084-5.862,0.168-9.664c0.1-4.255,0.218-8.66,0.218-11.877
	c0-1.842-1.626-3.902-3.786-3.902c-0.637,0-1.558,0.184-2.445,1.021c-22.362,18.861-37.989,22.831-47.185,22.831
	c-35.895,0-40.736-24.807-40.736-49.045c0-3.952,0.016-8.911,0.034-14.439c0.084-19.262,0.184-45.644-0.402-58.642
	c-0.403-6.114-0.787-12.395-6.299-14.89c-2.512-1.274-7.822-2.395-16.097-3.368c0.034-0.436,0.101-0.854,0.184-1.205
	c12.78-0.168,31.156-2.713,40.486-5.092c-0.704,6.298-1.458,19.565-1.458,70.033c0,13.249,0.402,30.652,2.329,38.391
	c4.188,17.236,16.365,26.348,35.191,26.348c15.343,0,24.841-5.21,34.389-13.015c3.132-2.228,5.728-7.754,6.147-13.35
	c0.402-7.487,0.368-68.859-0.755-85.794c-0.334-3.501-1.055-10.653-9.246-13.065c-4.975-1.541-13.6-2.295-23.651-2.981
	c0.017-0.503,0.084-1.039,0.168-1.458c14.974-0.168,39.178-2.73,50.652-5.276c-0.72,7.27-1.089,19.397-1.089,36.163l0.369,76.012
	c0,17.905,2.646,22.009,14.087,22.009c4.338,0,6.314-0.25,8.961-0.72c0.016,0.586,0.016,1.189-0.05,1.642
	C592.003,220.546,574.13,226.374,565.219,230.696"/>
<path d="M670.185,228.783c-10.738,0-24.523-2.579-33.283-6.214c-2.596-7.538-4.924-27.035-5.159-34.907
	c0.453-0.184,1.123-0.369,1.759-0.453c4.288,17.923,11.926,29.095,23.902,35.092c4.924,2.462,10.585,3.652,17.32,3.652
	c16.917,0,29.211-11.173,29.211-26.566c0-15.963-6.833-24.489-29.211-36.482c-31.222-16.566-37.336-29.111-37.336-45.174
	c0-18.342,14.773-38.073,47.151-38.073c6.633,0,12.429,0.804,17.537,1.507l2.579,0.352c2.947,0.537,7.253,1.072,10.251,1.357
	c-2.413,11.072-2.847,19.247-3.5,31.139l-0.034,0.419c-0.352,0.066-0.771,0.118-1.256,0.118h-0.318
	c-1.994-17.403-5.628-25.009-13.635-28.811c-5.46-2.546-10.854-3.634-18.023-3.634c-13.199,0-26.566,9.246-26.566,26.951
	c0,17.872,10.401,26.381,32.277,37.638C714.422,162.135,720,172.738,720,188.048C720,211.665,699.062,228.783,670.185,228.783"/>
<path d="M37.38,60.137V39.653h5.762c-0.352,0.452-3.284,4.455-3.284,10.251c0,5.778,2.932,9.782,3.284,10.234H37.38z"/>
<path d="M62.466,49.858c-0.168-0.234-0.486-0.637-1.173-0.955c-1.676-0.787-3.5-1.357-5.36-1.792l0.134-0.352
	c2.194,0.318,4.489,0.871,6.515,1.591L62.466,49.858z M58.145,54.129c0.284,0.636,1.055,1.424,1.323,1.424
	c0.519,0,7.186-3.887,12.328-10.452l0.384,0.234c-1.574,2.178-4.22,5.796-9.396,9.414c-0.452,0.318-2.697,1.742-2.781,1.926
	c-0.234,0.486-0.25,0.537-0.436,0.537c-0.569,0-1.407-1.558-1.758-2.831L58.145,54.129z M63.371,45.954
	c-0.302-0.418-0.385-0.569-0.905-0.937c-1.34-0.955-2.463-1.44-4.439-2.144l0.118-0.335c1.373,0.335,3.752,1.022,5.326,1.81
	L63.371,45.954z"/>
<path d="M99.867,51.452c-1.408-1.273-3.769-2.328-6.315-3.215v7.621c0,1.022,0.066,1.24,0.134,1.508l-0.637,0.402l-1.205-1.96
	c0.25,0,0.352,0,0.452-0.15c0.201-0.352,0.335-0.503,0.335-3.852c0-0.771,0-7.857-0.101-8.375c-0.15-0.671-0.686-0.888-1.071-1.056
	l0.117-0.318c1.592,0.352,2.463,0.737,2.463,1.055c0,0.067-0.285,0.302-0.335,0.352c-0.15,0.235-0.15,0.905-0.15,1.357v2.965
	c1.692,0.419,3.333,0.955,4.907,1.658c0.653,0.285,0.905,0.369,1.19,0.369c0.167,0,0.218,0,0.536-0.134L99.867,51.452z"/>
<path d="M119.927,48.178c-0.519,0-0.989,0-1.742,0.184l-0.503-0.937c0.453,0.1,1.14,0.284,2.446,0.284h9.363l0.687-0.821
	l1.658,1.256c-0.15,0.05-0.821,0.318-1.055,0.402c-1.91,5.796-6.197,7.304-7.705,7.806c-1.189,0.419-1.541,0.486-4.639,1.123
	l-0.168-0.268c2.194-0.519,4.12-1.089,6.248-2.295c2.847-1.574,4.623-4.455,5.109-6.733H119.927z M119.559,43.404
	c0.318,0.084,1.038,0.302,2.445,0.302h6.046l0.837-1.172l1.658,1.339l-0.334,0.302h-8.409c-0.352,0-1.089,0-1.776,0.184
	L119.559,43.404z"/>
<path d="M151.098,44.581c-0.503,0-0.989,0.017-1.759,0.201l-0.486-0.971c0.469,0.134,1.139,0.302,2.429,0.302h7.001l0.905-0.805
	l1.474,1.558c-0.151,0.034-0.837,0.118-0.955,0.134c-1.458,2.713-1.96,3.534-3.183,5.176c2.127,1.675,3.685,2.915,5.712,4.957
	c0.653,0.637,0.737,0.721,1.071,0.721l-0.837,1.373c-2.294-3.131-5.594-6.096-6.248-6.683c-2.613,3.283-4.908,4.64-7.956,6.382
	l-0.285-0.285c6.533-3.953,9.364-9.078,10.569-12.061H151.098z"/>
<path d="M181.408,39.659v20.486h-5.746c0.352-0.469,3.283-4.455,3.283-10.251c0-5.778-2.931-9.799-3.283-10.235H181.408z"/>
</svg>
