<?xml version="1.0" encoding="utf-8"?>
<!-- Generator: Adobe Illustrator 27.0.1, SVG Export Plug-In . SVG Version: 6.00 Build 0)  -->
<svg version="1.1" id="레이어_1" xmlns="http://www.w3.org/2000/svg" xmlns:xlink="http://www.w3.org/1999/xlink" x="0px"
	 y="0px" viewBox="0 0 123.67 29.786" enable-background="new 0 0 123.67 29.786" xml:space="preserve">
<pattern  x="-936.841" y="-534.686" width="17.5" height="17.5" patternUnits="userSpaceOnUse" id="Unnamed_Pattern_9" viewBox="0 -17.5 17.5 17.5" overflow="visible">
	<g>
		<rect y="-17.5" fill="none" width="17.5" height="17.5"/>
		<path fill="#5B3020" d="M8.75-5.474c-1.81,0-3.275-1.467-3.275-3.276c0-1.81,1.465-3.277,3.275-3.277s3.275,1.467,3.275,3.277
			C12.025-6.941,10.56-5.474,8.75-5.474"/>
	</g>
</pattern>
<path fill="#5B3020" d="M76.305,7.844l-0.008-0.528c0.268,0.011,0.631-0.281,0.906-0.255c0.32,0.026,0.688,0.494,0.974,0.399
	c0.297-0.092,0.328-0.686,0.565-0.883c0.236-0.202,0.827-0.126,0.972-0.404c0.139-0.265-0.257-0.707-0.228-1.024
	c0.029-0.32,0.491-0.688,0.402-0.975C79.793,3.875,79.2,3.846,79,3.61c-0.197-0.234-0.123-0.827-0.402-0.972
	c-0.268-0.139-0.707,0.255-1.027,0.226c-0.318-0.026-0.683-0.494-0.972-0.402c-0.297,0.095-0.328,0.691-0.565,0.888l-0.476,0.163
	L75.191,3.3c-0.197-0.236-0.126-0.83-0.404-0.974c-0.265-0.137-0.707,0.257-1.027,0.228c-0.318-0.026-0.683-0.494-0.972-0.404
	c-0.297,0.097-0.328,0.691-0.565,0.888c-0.236,0.2-0.825,0.126-0.972,0.402c-0.139,0.268,0.257,0.709,0.228,1.027l-0.131,0.318
	c-1.227,0.236-2.125,0.961-2.246,2.43l-0.008,0.116c-0.425-0.15-0.875-0.247-1.345-0.289l-1.899-0.165l0.173-1.975l-4.255-0.373
	l-0.173,1.973l-1.773-0.152l-0.373,4.255l1.776,0.155l-0.83,9.482l4.255,0.368l0.83-9.477l1.899,0.165
	c0.688,0.063,1.221,0.696,1.164,1.389l-0.712,8.103l4.258,0.37l0.707-8.103c0.084-0.969-0.084-1.902-0.457-2.734l0.118,0.005
	C74.448,10.465,76.176,9.943,76.305,7.844"/>
<path fill="none" stroke="#5B3020" stroke-width="0.282" stroke-linecap="round" stroke-linejoin="round" d="M76.305,7.844
	l-0.008-0.528c0.268,0.011,0.631-0.281,0.906-0.255c0.32,0.026,0.688,0.494,0.974,0.399c0.297-0.092,0.328-0.686,0.565-0.883
	c0.236-0.202,0.827-0.126,0.972-0.404c0.139-0.265-0.257-0.707-0.228-1.024c0.029-0.32,0.491-0.688,0.402-0.975
	C79.793,3.875,79.2,3.846,79,3.61c-0.197-0.234-0.123-0.827-0.402-0.972c-0.268-0.139-0.707,0.255-1.027,0.226
	c-0.318-0.026-0.683-0.494-0.972-0.402c-0.297,0.095-0.328,0.691-0.565,0.888l-0.476,0.163L75.191,3.3
	c-0.197-0.236-0.126-0.83-0.404-0.974c-0.265-0.137-0.707,0.257-1.027,0.228c-0.318-0.026-0.683-0.494-0.972-0.404
	c-0.297,0.097-0.328,0.691-0.565,0.888c-0.236,0.2-0.825,0.126-0.972,0.402c-0.139,0.268,0.257,0.709,0.228,1.027l-0.131,0.318
	c-1.227,0.236-2.125,0.961-2.246,2.43l-0.008,0.116c-0.425-0.15-0.875-0.247-1.345-0.289l-1.899-0.165l0.173-1.975l-4.255-0.373
	l-0.173,1.973l-1.773-0.152l-0.373,4.255l1.776,0.155l-0.83,9.482l4.255,0.368l0.83-9.477l1.899,0.165
	c0.688,0.063,1.221,0.696,1.164,1.389l-0.712,8.103l4.258,0.37l0.707-8.103c0.084-0.969-0.084-1.902-0.457-2.734l0.118,0.005
	C74.448,10.465,76.176,9.943,76.305,7.844z"/>
<rect x="75.486" y="11.551" transform="matrix(0.9994 -0.035 0.035 0.9994 -0.4295 2.8662)" fill="#5B3020" width="12.128" height="4.268"/>
<rect x="75.486" y="11.551" transform="matrix(0.9994 -0.035 0.035 0.9994 -0.4295 2.8662)" fill="none" stroke="#5B3020" stroke-width="0.282" stroke-linecap="round" stroke-linejoin="round" width="12.128" height="4.268"/>
<path fill="#5B3020" d="M102.09,11.417c-0.89-0.696-1.912-1.158-2.992-1.366c1.566-2.049,1.124-3.556,0.714-4.279
	c-0.412-0.728-1.5-1.904-4.129-1.581l-4.959,0.609l0.465,3.814l4.597-0.562l-3.57,4.568l-0.005,0.01l-3.018,3.859l3.029,2.369
	l3.018-3.864c0.525-0.672,1.282-1.098,2.128-1.203c0.846-0.105,1.681,0.129,2.353,0.651L100.269,15
	c-0.743-0.352-1.592-0.504-2.469-0.397c-2.474,0.305-4.239,2.561-3.937,5.038c0.305,2.472,2.563,4.239,5.04,3.937
	c1.776-0.218,3.362-1.116,4.465-2.529c1.101-1.41,1.589-3.168,1.371-4.946C104.511,14.238,103.568,12.573,102.09,11.417
	 M97.68,19.171c-0.047-0.37,0.218-0.709,0.588-0.754c0.37-0.047,0.709,0.221,0.756,0.591c0.045,0.37-0.221,0.707-0.591,0.754
	C98.063,19.807,97.724,19.544,97.68,19.171"/>
<path fill="none" stroke="#5B3020" stroke-width="0.282" stroke-linecap="round" stroke-linejoin="round" d="M102.09,11.417
	c-0.89-0.696-1.912-1.158-2.992-1.366c1.566-2.049,1.124-3.556,0.714-4.279c-0.412-0.728-1.5-1.904-4.129-1.581l-4.959,0.609
	l0.465,3.814l4.597-0.562l-3.57,4.568l-0.005,0.01l-3.018,3.859l3.029,2.369l3.018-3.864c0.525-0.672,1.282-1.098,2.128-1.203
	c0.846-0.105,1.681,0.129,2.353,0.651L100.269,15c-0.743-0.352-1.592-0.504-2.469-0.397c-2.474,0.305-4.239,2.561-3.937,5.038
	c0.305,2.472,2.563,4.239,5.04,3.937c1.776-0.218,3.362-1.116,4.465-2.529c1.101-1.41,1.589-3.168,1.371-4.946
	C104.511,14.238,103.568,12.573,102.09,11.417z M97.68,19.171c-0.047-0.37,0.218-0.709,0.588-0.754
	c0.37-0.047,0.709,0.221,0.756,0.591c0.045,0.37-0.221,0.707-0.591,0.754C98.063,19.807,97.724,19.544,97.68,19.171z"/>
<path fill="#5B3020" d="M43.596,12.938c-1.153-0.969-2.616-1.429-4.116-1.297l-3.215,0.281l0.373,4.255l3.212-0.281
	c0.365-0.034,0.72,0.079,0.998,0.315c0.284,0.234,0.454,0.565,0.486,0.93c0.032,0.362-0.081,0.72-0.315,0.998l3.273,2.745
	c0.967-1.153,1.429-2.616,1.298-4.116C45.458,15.268,44.749,13.908,43.596,12.938"/>
<path fill="none" stroke="#5B3020" stroke-width="0.282" stroke-linecap="round" stroke-linejoin="round" d="M43.596,12.938
	c-1.153-0.969-2.616-1.429-4.116-1.297l-3.215,0.281l0.373,4.255l3.212-0.281c0.365-0.034,0.72,0.079,0.998,0.315
	c0.284,0.234,0.454,0.565,0.486,0.93c0.032,0.362-0.081,0.72-0.315,0.998l3.273,2.745c0.967-1.153,1.429-2.616,1.298-4.116
	C45.458,15.268,44.749,13.908,43.596,12.938z"/>
<polygon fill="#5B3020" points="57.829,6.646 54.81,3.626 46.009,12.425 54.847,21.261 57.868,18.24 52.05,12.425 "/>
<polygon fill="none" stroke="#5B3020" stroke-width="0.282" stroke-linecap="round" stroke-linejoin="round" points="57.829,6.646 
	54.81,3.626 46.009,12.425 54.847,21.261 57.868,18.24 52.05,12.425 "/>
<polygon fill="#5B3020" points="12.083,11.102 16.351,10.952 16.117,4.196 1.875,4.695 2.023,8.964 11.996,8.614 "/>
<polygon fill="none" stroke="#5B3020" stroke-width="0.282" stroke-linecap="round" stroke-linejoin="round" points="12.083,11.102 
	16.351,10.952 16.117,4.196 1.875,4.695 2.023,8.964 11.996,8.614 "/>
<path fill="#5B3020" d="M9.584,16.442c-1.946,0.068-3.845-0.247-5.642-0.932l-1.526,3.987c2.335,0.896,4.799,1.303,7.318,1.213
	c2.519-0.087,4.949-0.665,7.215-1.72l-1.799-3.874C13.404,15.93,11.531,16.377,9.584,16.442"/>
<path fill="none" stroke="#5B3020" stroke-width="0.282" stroke-linecap="round" stroke-linejoin="round" d="M9.584,16.442
	c-1.946,0.068-3.845-0.247-5.642-0.932l-1.526,3.987c2.335,0.896,4.799,1.303,7.318,1.213c2.519-0.087,4.949-0.665,7.215-1.72
	l-1.799-3.874C13.404,15.93,11.531,16.377,9.584,16.442z"/>
<path fill="#5B3020" d="M33.343,9.528l-3.83-0.334l-0.252,2.871l-1.655-0.145l-0.362-0.491l0.525-6.01L21.697,4.89l-0.336,3.83
	l2.246,0.194l-0.05,0.541l-0.068-0.008c-3.013-0.263-5.679,1.973-5.941,4.988c-0.265,3.01,1.973,5.679,4.985,5.941
	c2.858,0.25,5.4-1.749,5.884-4.526l0.512,0.045l-0.281,3.207l3.827,0.336l0.281-3.21l1.358,0.118l0.334-3.83l-1.355-0.118
	L33.343,9.528z M24.646,15.055c-0.079,0.901-0.877,1.574-1.778,1.492c-0.904-0.079-1.571-0.877-1.492-1.778
	c0.079-0.901,0.875-1.571,1.778-1.492C24.055,13.358,24.725,14.151,24.646,15.055"/>
<path fill="none" stroke="#5B3020" stroke-width="0.282" stroke-linecap="round" stroke-linejoin="round" d="M33.343,9.528
	l-3.83-0.334l-0.252,2.871l-1.655-0.145l-0.362-0.491l0.525-6.01L21.697,4.89l-0.336,3.83l2.246,0.194l-0.05,0.541l-0.068-0.008
	c-3.013-0.263-5.679,1.973-5.941,4.988c-0.265,3.01,1.973,5.679,4.985,5.941c2.858,0.25,5.4-1.749,5.884-4.526l0.512,0.045
	l-0.281,3.207l3.827,0.336l0.281-3.21l1.358,0.118l0.334-3.83l-1.355-0.118L33.343,9.528z M24.646,15.055
	c-0.079,0.901-0.877,1.574-1.778,1.492c-0.904-0.079-1.571-0.877-1.492-1.778c0.079-0.901,0.875-1.571,1.778-1.492
	C24.055,13.358,24.725,14.151,24.646,15.055z"/>
<path fill="#5B3020" d="M123.115,3.488c0.029-0.32,0.494-0.683,0.402-0.972c-0.092-0.297-0.688-0.331-0.885-0.567
	c-0.2-0.236-0.123-0.825-0.402-0.972c-0.268-0.139-0.709,0.257-1.027,0.228c-0.318-0.029-0.686-0.491-0.972-0.402
	c-0.299,0.094-0.328,0.691-0.565,0.888l-0.575,0.184l-0.423-0.239c-0.197-0.236-0.126-0.825-0.404-0.969
	c-0.268-0.139-0.707,0.255-1.024,0.228c-0.32-0.029-0.686-0.497-0.975-0.404c-0.299,0.097-0.328,0.688-0.562,0.89
	c-0.239,0.197-0.83,0.121-0.974,0.399c-0.139,0.265,0.255,0.707,0.228,1.027c-0.029,0.32-0.494,0.683-0.404,0.972
	c0.097,0.299,0.691,0.331,0.888,0.565l-0.076,0.449l-2.367-0.126l-0.102,1.986l-7.51-0.391l-0.213,4.05l3.27,0.171
	c-1.08,0.814-1.807,2.078-1.883,3.53c-0.137,2.598,1.868,4.823,4.468,4.962c0.42,0.021,0.83-0.013,1.224-0.097l-0.16,3.105
	l4.05,0.21l0.591-11.274l2.671,0.139l0.21-4.05l-2.669-0.142l0.092-1.728c0.273,0.123,0.565,0.431,0.804,0.355
	c0.299-0.095,0.328-0.688,0.567-0.888l0.575-0.184l0.423,0.239c0.197,0.231-0.725,1.426-0.449,1.568
	c0.268,0.139,1.558-0.854,1.878-0.825c0.318,0.026,0.683,0.491,0.969,0.402c0.299-0.095,0.331-0.691,0.567-0.888
	c0.236-0.197,0.827-0.126,0.972-0.402C123.482,4.247,123.088,3.806,123.115,3.488 M111.203,15.557
	c-0.715-0.039-1.266-0.649-1.229-1.366c0.037-0.717,0.649-1.269,1.368-1.229c0.56,0.026,1.016,0.412,1.171,0.917l-0.047,0.885
	C112.261,15.255,111.765,15.589,111.203,15.557"/>
<path fill="none" stroke="#5B3020" stroke-width="0.282" stroke-linecap="round" stroke-linejoin="round" d="M123.115,3.488
	c0.029-0.32,0.494-0.683,0.402-0.972c-0.092-0.297-0.688-0.331-0.885-0.567c-0.2-0.236-0.123-0.825-0.402-0.972
	c-0.268-0.139-0.709,0.257-1.027,0.228c-0.318-0.029-0.686-0.491-0.972-0.402c-0.299,0.094-0.328,0.691-0.565,0.888l-0.575,0.184
	l-0.423-0.239c-0.197-0.236-0.126-0.825-0.404-0.969c-0.268-0.139-0.707,0.255-1.024,0.228c-0.32-0.029-0.686-0.497-0.975-0.404
	c-0.299,0.097-0.328,0.688-0.562,0.89c-0.239,0.197-0.83,0.121-0.974,0.399c-0.139,0.265,0.255,0.707,0.228,1.027
	c-0.029,0.32-0.494,0.683-0.404,0.972c0.097,0.299,0.691,0.331,0.888,0.565l-0.076,0.449l-2.367-0.126l-0.102,1.986l-7.51-0.391
	l-0.213,4.05l3.27,0.171c-1.08,0.814-1.807,2.078-1.883,3.53c-0.137,2.598,1.868,4.823,4.468,4.962
	c0.42,0.021,0.83-0.013,1.224-0.097l-0.16,3.105l4.05,0.21l0.591-11.274l2.671,0.139l0.21-4.05l-2.669-0.142l0.092-1.728
	c0.273,0.123,0.565,0.431,0.804,0.355c0.299-0.095,0.328-0.688,0.567-0.888l0.575-0.184l0.423,0.239
	c0.197,0.231-0.725,1.426-0.449,1.568c0.268,0.139,1.558-0.854,1.878-0.825c0.318,0.026,0.683,0.491,0.969,0.402
	c0.299-0.095,0.331-0.691,0.567-0.888c0.236-0.197,0.827-0.126,0.972-0.402C123.482,4.247,123.088,3.806,123.115,3.488z
	 M111.203,15.557c-0.715-0.039-1.266-0.649-1.229-1.366c0.037-0.717,0.649-1.269,1.368-1.229c0.56,0.026,1.016,0.412,1.171,0.917
	l-0.047,0.885C112.261,15.255,111.765,15.589,111.203,15.557z"/>
<path fill="#FF4F80" d="M71.677,20.749l-4.255-0.373l0.709-8.106c0.06-0.691-0.475-1.324-1.166-1.387l-7.927-0.693l0.37-4.255
	l7.93,0.693c3.05,0.268,5.314,2.966,5.048,6.015L71.677,20.749z"/>
<rect x="54.913" y="10.02" transform="matrix(0.0867 -0.9962 0.9962 0.0867 45.243 73.6624)" fill="#FFC900" width="15.769" height="4.27"/>
<path fill="#FFC900" d="M68.689,6.8c-0.1,1.229,0.407,2.036,1.258,2.529l-0.541,0.951c0.06,0.024,0.289-0.052,0.56-0.155
	c0.436-0.166,1.445-0.252,2.08-0.208c1.991,0.134,3.719-0.386,3.845-2.487c0.129-2.101-1.366-2.945-3.354-3.115
	C70.548,4.139,68.854,4.749,68.689,6.8"/>
<path fill="#FF4F80" d="M71.067,4.056c-0.026,0.318-0.491,0.686-0.402,0.972c0.095,0.297,0.688,0.328,0.89,0.565
	c0.197,0.236,0.121,0.827,0.399,0.972c0.265,0.142,0.707-0.255,1.027-0.228c0.32,0.029,0.683,0.496,0.972,0.402
	c0.299-0.092,0.331-0.688,0.565-0.885c0.236-0.2,0.827-0.123,0.975-0.402c0.137-0.268-0.257-0.707-0.231-1.024
	c0.029-0.32,0.496-0.686,0.404-0.975c-0.095-0.299-0.691-0.328-0.888-0.565c-0.197-0.236-0.126-0.827-0.402-0.972
	c-0.268-0.139-0.707,0.255-1.027,0.226c-0.32-0.026-0.683-0.494-0.972-0.402c-0.297,0.095-0.328,0.691-0.565,0.888
	c-0.236,0.197-0.827,0.123-0.972,0.402C70.699,3.294,71.096,3.735,71.067,4.056"/>
<path fill="#FF4F80" d="M74.879,4.366c-0.029,0.32-0.491,0.686-0.402,0.975c0.095,0.297,0.688,0.328,0.888,0.565
	c0.197,0.234,0.123,0.825,0.402,0.972c0.265,0.139,0.707-0.257,1.027-0.229c0.318,0.026,0.683,0.494,0.972,0.402
	c0.297-0.095,0.328-0.688,0.562-0.885c0.239-0.2,0.83-0.124,0.974-0.405c0.137-0.265-0.255-0.707-0.226-1.024
	c0.024-0.32,0.491-0.686,0.402-0.972C79.383,3.465,78.787,3.436,78.59,3.2c-0.197-0.239-0.126-0.83-0.402-0.972
	c-0.27-0.139-0.709,0.252-1.03,0.223c-0.318-0.026-0.683-0.491-0.969-0.399c-0.299,0.092-0.331,0.688-0.567,0.885
	c-0.234,0.2-0.825,0.126-0.972,0.402C74.511,3.607,74.908,4.048,74.879,4.366"/>
<rect x="75.072" y="11.135" transform="matrix(0.9994 -0.0351 0.0351 0.9994 -0.4154 2.8528)" fill="#FF4F80" width="12.131" height="4.271"/>
<path fill="#FFC900" d="M101.676,11.004c-1.479-1.156-3.325-1.668-5.193-1.439c-1.865,0.228-3.527,1.171-4.686,2.653l-3.018,3.864
	l3.031,2.364l3.018-3.861c0.523-0.672,1.279-1.101,2.125-1.203c0.846-0.105,1.684,0.129,2.356,0.651
	c0.67,0.528,1.1,1.282,1.206,2.128c0.092,0.762-0.116,1.508-0.588,2.112c-0.47,0.602-1.148,0.985-1.907,1.08l0.47,3.814
	c1.778-0.218,3.362-1.116,4.465-2.527c1.103-1.41,1.592-3.168,1.374-4.946C104.1,13.825,103.155,12.16,101.676,11.004"/>
<path fill="#FF4F80" d="M98.49,23.166c-2.472,0.305-4.736-1.463-5.041-3.935c-0.302-2.477,1.466-4.736,3.937-5.04
	c2.477-0.302,4.736,1.463,5.038,3.937C102.729,20.602,100.964,22.864,98.49,23.166 M97.857,18.007
	c-0.37,0.047-0.636,0.384-0.591,0.754c0.047,0.37,0.386,0.636,0.754,0.591c0.373-0.047,0.638-0.386,0.591-0.754
	C98.566,18.225,98.227,17.96,97.857,18.007"/>
<path fill="#FF4F80" d="M91.811,18.446l-3.031-2.364l6.596-8.442l-4.597,0.567l-0.468-3.819l4.959-0.609
	c2.632-0.32,3.717,0.854,4.132,1.587c0.412,0.728,0.862,2.264-0.77,4.352L91.811,18.446z"/>
<path fill="#FF4F80" d="M43.877,20.472l-3.27-2.742c0.236-0.281,0.349-0.638,0.315-1.001c-0.032-0.362-0.202-0.693-0.483-0.93
	c-0.281-0.234-0.636-0.347-0.998-0.315l-3.215,0.278l-0.37-4.253l3.212-0.281c1.5-0.131,2.963,0.328,4.116,1.3
	c1.156,0.967,1.862,2.325,1.994,3.827C45.308,17.859,44.849,19.322,43.877,20.472"/>
<polygon fill="#FFC900" points="54.436,20.849 45.598,12.013 54.4,3.214 57.417,6.234 51.639,12.013 57.454,17.831 "/>
<path fill="#FFC900" d="M110.613,18.561c-2.6-0.137-4.602-2.361-4.465-4.962c0.134-2.598,2.359-4.602,4.959-4.465
	c2.6,0.137,4.602,2.364,4.468,4.962C115.438,16.693,113.211,18.7,110.613,18.561 M110.928,12.551
	c-0.717-0.042-1.329,0.512-1.366,1.229c-0.039,0.715,0.512,1.329,1.229,1.366c0.714,0.037,1.329-0.515,1.368-1.229
	C112.194,13.2,111.643,12.588,110.928,12.551"/>
<rect x="109.953" y="1.124" transform="matrix(0.0524 -0.9986 0.9986 0.0524 97.8828 119.6453)" fill="#FF4F80" width="4.058" height="14.248"/>
<rect x="105.49" y="10.99" transform="matrix(0.0517 -0.9987 0.9987 0.0517 95.2491 126.3505)" fill="#FFC900" width="17.336" height="4.058"/>
<polygon fill="#FF4F80" points="15.941,10.54 11.672,10.692 11.586,8.202 1.612,8.549 1.465,4.281 15.704,3.784 "/>
<path fill="#FFC900" d="M9.321,20.3c-2.519,0.087-4.983-0.32-7.318-1.216l1.523-3.987c1.799,0.686,3.701,1.001,5.645,0.935
	c1.946-0.066,3.817-0.515,5.568-1.326l1.799,3.872C14.27,19.633,11.843,20.213,9.321,20.3"/>
<polygon fill="#FF4F80" points="26.749,11.974 22.919,11.638 23.192,8.504 20.949,8.307 21.282,4.477 27.358,5.011 "/>
<path fill="#FFC900" d="M22.121,19.961c-3.013-0.26-5.251-2.926-4.985-5.942c0.263-3.01,2.929-5.251,5.941-4.985
	c3.015,0.265,5.251,2.929,4.985,5.944C27.799,17.991,25.133,20.229,22.121,19.961 M22.743,12.864
	c-0.904-0.076-1.699,0.591-1.778,1.492c-0.079,0.901,0.588,1.702,1.492,1.781c0.901,0.076,1.699-0.591,1.776-1.495
	C24.314,13.741,23.644,12.943,22.743,12.864"/>
<rect x="27.995" y="9.711" transform="matrix(0.0871 -0.9962 0.9962 0.0871 13.6882 42.2891)" fill="#FF4F80" width="3.846" height="7.931"/>
<rect x="25.611" y="11.981" transform="matrix(0.0874 -0.9962 0.9962 0.0874 14.0589 43.1537)" fill="#FFC900" width="9.946" height="3.844"/>
<path fill="#FFC900" d="M114.545,2.396c-0.032,0.318-0.494,0.686-0.405,0.972c0.095,0.297,0.688,0.328,0.888,0.565
	c0.197,0.236-0.728,1.426-0.446,1.573c0.265,0.137,1.555-0.859,1.878-0.83c0.318,0.029,0.68,0.496,0.969,0.404
	c0.299-0.095,0.331-0.688,0.565-0.885c0.236-0.2,0.827-0.126,0.972-0.407c0.137-0.265-0.255-0.704-0.226-1.024
	c0.026-0.318,0.491-0.683,0.402-0.972c-0.095-0.299-0.691-0.328-0.888-0.565c-0.197-0.236-0.126-0.827-0.402-0.969
	c-0.268-0.142-0.709,0.252-1.027,0.223c-0.32-0.026-0.686-0.491-0.972-0.399c-0.297,0.092-0.331,0.688-0.567,0.885
	c-0.234,0.197-0.825,0.126-0.969,0.402C114.175,1.637,114.571,2.078,114.545,2.396"/>
<path fill="#FF4F80" d="M118.508,2.709c-0.029,0.318-0.491,0.683-0.402,0.969c0.095,0.297,0.688,0.331,0.888,0.567
	c0.197,0.236-0.728,1.426-0.449,1.571c0.268,0.137,1.558-0.856,1.878-0.827c0.32,0.029,0.683,0.494,0.972,0.402
	c0.297-0.095,0.331-0.688,0.562-0.885c0.236-0.2,0.83-0.123,0.977-0.404c0.137-0.265-0.257-0.704-0.229-1.024
	c0.026-0.318,0.491-0.686,0.402-0.972c-0.095-0.299-0.691-0.328-0.888-0.565c-0.197-0.236-0.126-0.827-0.402-0.972
	c-0.268-0.139-0.709,0.255-1.027,0.226c-0.32-0.026-0.686-0.494-0.972-0.402c-0.297,0.092-0.328,0.691-0.565,0.885
	c-0.239,0.2-0.827,0.126-0.975,0.402C118.14,1.95,118.537,2.389,118.508,2.709"/>
<pattern  id="SVGID_1_" xlink:href="#Unnamed_Pattern_9" patternTransform="matrix(0.0309 -0.0309 -0.0309 -0.0309 -5807.4766 -7009.9097)">
</pattern>
<path fill="url(#SVGID_1_)" d="M9.321,20.3c-2.519,0.087-4.983-0.32-7.318-1.216l1.523-3.987c1.799,0.686,3.701,1.001,5.645,0.935
	c1.946-0.066,3.817-0.515,5.568-1.326l1.799,3.872C14.27,19.633,11.843,20.213,9.321,20.3"/>
<pattern  id="SVGID_00000062173422865829561820000004017830246637439636_" xlink:href="#Unnamed_Pattern_9" patternTransform="matrix(0.0309 -0.0309 -0.0309 -0.0309 -5807.4766 -7009.9097)">
</pattern>
<polygon fill="url(#SVGID_00000062173422865829561820000004017830246637439636_)" points="28.52,15.483 25.798,15.246 
	26.135,11.417 28.84,11.65 "/>
<pattern  id="SVGID_00000081622686958985912090000015264415902958278818_" xlink:href="#Unnamed_Pattern_9" patternTransform="matrix(0.0309 -0.0309 -0.0309 -0.0309 -5807.4766 -7009.9097)">
</pattern>
<polygon fill="url(#SVGID_00000081622686958985912090000015264415902958278818_)" points="32.679,11.989 34.037,12.105 
	33.701,15.937 32.338,15.816 "/>
<pattern  id="SVGID_00000070079687009226718400000000465515857535244928_" xlink:href="#Unnamed_Pattern_9" patternTransform="matrix(0.0309 -0.0309 -0.0309 -0.0309 -5807.4766 -7009.9097)">
</pattern>
<path fill="url(#SVGID_00000070079687009226718400000000465515857535244928_)" d="M118.106,3.678
	c-0.089-0.286,0.375-0.651,0.402-0.969c0.029-0.32-0.365-0.759-0.228-1.03l0.399-0.221l-0.423-0.234
	c-0.2-0.234-0.126-0.825-0.404-0.969c-0.265-0.139-0.707,0.255-1.024,0.226c-0.32-0.029-0.686-0.491-0.972-0.399
	c-0.299,0.092-0.331,0.688-0.567,0.885c-0.234,0.197-0.827,0.126-0.969,0.402c-0.142,0.268,0.252,0.709,0.228,1.027
	c-0.031,0.318-0.496,0.683-0.407,0.972c0.094,0.297,0.691,0.328,0.888,0.565c0.197,0.236-0.725,1.426-0.446,1.571
	c0.268,0.139,1.558-0.856,1.878-0.827c0.318,0.029,0.683,0.494,0.969,0.405c0.299-0.095,0.331-0.691,0.567-0.888l0.575-0.184
	L118.106,3.678"/>
<pattern  id="SVGID_00000000903549803135197190000007524623512281672346_" xlink:href="#Unnamed_Pattern_9" patternTransform="matrix(0.0309 -0.0309 -0.0309 -0.0309 -5807.4766 -7009.9097)">
</pattern>
<path fill="url(#SVGID_00000000903549803135197190000007524623512281672346_)" d="M75.766,6.877
	c-0.276-0.147-0.205-0.738-0.402-0.972l-0.37-0.215l-0.476,0.16c-0.234,0.2-0.265,0.796-0.565,0.888
	c-0.289,0.092-0.652-0.373-0.972-0.402c-0.32-0.026-0.762,0.37-1.027,0.229c-0.278-0.144-0.202-0.736-0.402-0.972
	c-0.2-0.236-0.793-0.268-0.888-0.565l0.27-0.654c-1.227,0.234-2.125,0.959-2.246,2.427c-0.1,1.227,0.407,2.036,1.256,2.529
	l-0.539,0.951c0.06,0.024,0.286-0.055,0.56-0.158c0.436-0.163,1.445-0.249,2.08-0.207c1.991,0.137,3.719-0.383,3.845-2.485
	l-0.008-0.525L75.766,6.877"/>
<pattern  id="SVGID_00000098203408917373522070000005438088289670998434_" xlink:href="#Unnamed_Pattern_9" patternTransform="matrix(0.0309 -0.0309 -0.0309 -0.0309 -5807.4766 -7009.9097)">
</pattern>
<polygon fill="url(#SVGID_00000098203408917373522070000005438088289670998434_)" points="75.151,15.616 75.001,11.348 
	87.125,10.925 87.273,15.193 "/>
<pattern  id="SVGID_00000118389028418646597070000017763827332809508495_" xlink:href="#Unnamed_Pattern_9" patternTransform="matrix(0.0309 -0.0309 -0.0309 -0.0309 -5807.4766 -7009.9097)">
</pattern>
<path fill="url(#SVGID_00000118389028418646597070000017763827332809508495_)" d="M104.328,15.693
	c-0.229-1.868-1.172-3.533-2.653-4.688c-0.891-0.696-1.91-1.158-2.987-1.363l-3.861,4.943c0.523-0.672,1.279-1.1,2.125-1.203
	c0.848-0.105,1.684,0.129,2.356,0.651l0.551,0.554c1.355,0.641,2.372,1.941,2.564,3.541c0.307,2.474-1.46,4.733-3.935,5.038
	c1.778-0.218,3.365-1.116,4.468-2.527C104.058,19.229,104.546,17.471,104.328,15.693"/>
<pattern  id="SVGID_00000049908333508396583740000013850348149045640582_" xlink:href="#Unnamed_Pattern_9" patternTransform="matrix(0.0309 -0.0309 -0.0309 -0.0309 -5807.4766 -7009.9097)">
</pattern>
<path fill="url(#SVGID_00000049908333508396583740000013850348149045640582_)" d="M112.057,14.352
	c-0.208,0.491-0.707,0.822-1.263,0.796c-0.72-0.039-1.271-0.651-1.229-1.368c0.034-0.715,0.646-1.269,1.363-1.229
	c0.56,0.029,1.019,0.412,1.177,0.919l0.166-3.176l-4.239-0.221c-1.08,0.812-1.807,2.075-1.883,3.528
	c-0.137,2.598,1.865,4.825,4.465,4.962c0.42,0.021,0.835-0.013,1.229-0.1L112.057,14.352z"/>
<line fill="none" stroke="#5B3020" stroke-width="0.141" stroke-linecap="round" stroke-linejoin="round" x1="0.071" y1="4.33" x2="17.099" y2="3.733"/>
<line fill="none" stroke="#5B3020" stroke-width="0.141" stroke-linecap="round" stroke-linejoin="round" x1="12.305" y1="8.177" x2="0.894" y2="8.574"/>
<line fill="none" stroke="#5B3020" stroke-width="0.141" stroke-linecap="round" stroke-linejoin="round" x1="15.671" y1="2.819" x2="15.973" y2="11.506"/>
<line fill="none" stroke="#5B3020" stroke-width="0.141" stroke-linecap="round" stroke-linejoin="round" x1="11.692" y1="11.276" x2="11.565" y2="7.615"/>
<line fill="none" stroke="#5B3020" stroke-width="0.141" stroke-linecap="round" stroke-linejoin="round" x1="1.657" y1="9.819" x2="1.42" y2="3.008"/>
<line fill="none" stroke="#5B3020" stroke-width="0.141" stroke-linecap="round" stroke-linejoin="round" x1="27.415" y1="4.348" x2="26.832" y2="11.009"/>
<line fill="none" stroke="#5B3020" stroke-width="0.141" stroke-linecap="round" stroke-linejoin="round" x1="20.052" y1="4.371" x2="28.384" y2="5.099"/>
<line fill="none" stroke="#5B3020" stroke-width="0.141" stroke-linecap="round" stroke-linejoin="round" x1="20.905" y1="8.801" x2="21.341" y2="3.829"/>
<line fill="none" stroke="#5B3020" stroke-width="0.141" stroke-linecap="round" stroke-linejoin="round" x1="24.11" y1="8.583" x2="19.787" y2="8.205"/>
<line fill="none" stroke="#5B3020" stroke-width="0.141" stroke-linecap="round" stroke-linejoin="round" x1="34.059" y1="11.83" x2="33.675" y2="16.214"/>
<line fill="none" stroke="#5B3020" stroke-width="0.141" stroke-linecap="round" stroke-linejoin="round" x1="34.271" y1="15.985" x2="25.23" y2="15.195"/>
<line fill="none" stroke="#5B3020" stroke-width="0.141" stroke-linecap="round" stroke-linejoin="round" x1="25.565" y1="11.366" x2="34.606" y2="12.157"/>
<line fill="none" stroke="#5B3020" stroke-width="0.141" stroke-linecap="round" stroke-linejoin="round" x1="35.006" y1="11.584" x2="42.287" y2="10.949"/>
<line fill="none" stroke="#5B3020" stroke-width="0.141" stroke-linecap="round" stroke-linejoin="round" x1="36.329" y1="16.922" x2="35.754" y2="10.353"/>
<line fill="none" stroke="#5B3020" stroke-width="0.141" stroke-linecap="round" stroke-linejoin="round" x1="40.768" y1="15.367" x2="35.657" y2="15.814"/>
<line fill="none" stroke="#5B3020" stroke-width="0.141" stroke-linecap="round" stroke-linejoin="round" x1="44.2" y1="20.746" x2="40.286" y2="17.458"/>
<line fill="none" stroke="#5B3020" stroke-width="0.141" stroke-linecap="round" stroke-linejoin="round" x1="58.246" y1="17.037" x2="53.646" y2="21.639"/>
<line fill="none" stroke="#5B3020" stroke-width="0.141" stroke-linecap="round" stroke-linejoin="round" x1="50.993" y1="11.366" x2="58.786" y2="19.159"/>
<line fill="none" stroke="#5B3020" stroke-width="0.141" stroke-linecap="round" stroke-linejoin="round" x1="58.063" y1="5.587" x2="50.995" y2="12.658"/>
<line fill="none" stroke="#5B3020" stroke-width="0.141" stroke-linecap="round" stroke-linejoin="round" x1="53.046" y1="1.86" x2="57.884" y2="6.701"/>
<line fill="none" stroke="#5B3020" stroke-width="0.141" stroke-linecap="round" stroke-linejoin="round" x1="44.655" y1="12.956" x2="55.677" y2="1.935"/>
<line fill="none" stroke="#5B3020" stroke-width="0.141" stroke-linecap="round" stroke-linejoin="round" x1="55.938" y1="22.352" x2="44.094" y2="10.509"/>
<line fill="none" stroke="#5B3020" stroke-width="0.141" stroke-linecap="round" stroke-linejoin="round" x1="14.336" y1="13.839" x2="17.267" y2="20.143"/>
<line fill="none" stroke="#5B3020" stroke-width="0.141" stroke-linecap="round" stroke-linejoin="round" x1="1.635" y1="20.046" x2="3.894" y2="14.136"/>
<line fill="none" stroke="#5B3020" stroke-width="0.141" stroke-linecap="round" stroke-linejoin="round" x1="33.038" y1="7.695" x2="31.893" y2="20.794"/>
<line fill="none" stroke="#5B3020" stroke-width="0.141" stroke-linecap="round" stroke-linejoin="round" x1="28.017" y1="8.686" x2="34.694" y2="9.271"/>
<line fill="none" stroke="#5B3020" stroke-width="0.141" stroke-linecap="round" stroke-linejoin="round" x1="28.15" y1="19.664" x2="29.185" y2="7.805"/>
<line fill="none" stroke="#5B3020" stroke-width="0.141" stroke-linecap="round" stroke-linejoin="round" x1="32.441" y1="19.059" x2="27.86" y2="18.659"/>
<line fill="none" stroke="#5B3020" stroke-width="0.141" stroke-linecap="round" stroke-linejoin="round" x1="72.596" y1="10.33" x2="71.521" y2="22.654"/>
<line fill="none" stroke="#5B3020" stroke-width="0.141" stroke-linecap="round" stroke-linejoin="round" x1="58.866" y1="12.138" x2="59.475" y2="5.175"/>
<line fill="none" stroke="#5B3020" stroke-width="0.141" stroke-linecap="round" stroke-linejoin="round" x1="69.923" y1="11.145" x2="57.483" y2="10.055"/>
<line fill="none" stroke="#5B3020" stroke-width="0.141" stroke-linecap="round" stroke-linejoin="round" x1="67.265" y1="22.152" x2="68.311" y2="10.188"/>
<line fill="none" stroke="#5B3020" stroke-width="0.141" stroke-linecap="round" stroke-linejoin="round" x1="72.093" y1="20.782" x2="67.005" y2="20.339"/>
<line fill="none" stroke="#5B3020" stroke-width="0.141" stroke-linecap="round" stroke-linejoin="round" x1="65.711" y1="3.373" x2="64.143" y2="21.263"/>
<line fill="none" stroke="#5B3020" stroke-width="0.141" stroke-linecap="round" stroke-linejoin="round" x1="60.162" y1="4.012" x2="66.81" y2="4.592"/>
<line fill="none" stroke="#5B3020" stroke-width="0.141" stroke-linecap="round" stroke-linejoin="round" x1="59.824" y1="21.644" x2="61.455" y2="3"/>
<line fill="none" stroke="#5B3020" stroke-width="0.141" stroke-linecap="round" stroke-linejoin="round" x1="64.656" y1="20.236" x2="58.785" y2="19.724"/>
<line fill="none" stroke="#5B3020" stroke-width="0.141" stroke-linecap="round" stroke-linejoin="round" x1="88.464" y1="15.152" x2="73.962" y2="15.656"/>
<line fill="none" stroke="#5B3020" stroke-width="0.141" stroke-linecap="round" stroke-linejoin="round" x1="87.084" y1="9.78" x2="87.33" y2="16.799"/>
<line fill="none" stroke="#5B3020" stroke-width="0.141" stroke-linecap="round" stroke-linejoin="round" x1="73.811" y1="11.392" x2="88.313" y2="10.885"/>
<line fill="none" stroke="#5B3020" stroke-width="0.141" stroke-linecap="round" stroke-linejoin="round" x1="75.202" y1="17.109" x2="74.976" y2="10.634"/>
<line fill="none" stroke="#5B3020" stroke-width="0.141" stroke-linecap="round" stroke-linejoin="round" x1="100.178" y1="7.734" x2="91.14" y2="19.304"/>
<line fill="none" stroke="#5B3020" stroke-width="0.141" stroke-linecap="round" stroke-linejoin="round" x1="89.315" y1="4.512" x2="99.417" y2="3.27"/>
<line fill="none" stroke="#5B3020" stroke-width="0.141" stroke-linecap="round" stroke-linejoin="round" x1="90.944" y1="9.555" x2="90.145" y2="3.041"/>
<line fill="none" stroke="#5B3020" stroke-width="0.141" stroke-linecap="round" stroke-linejoin="round" x1="96.643" y1="7.482" x2="89.509" y2="8.36"/>
<line fill="none" stroke="#5B3020" stroke-width="0.141" stroke-linecap="round" stroke-linejoin="round" x1="88.132" y1="16.909" x2="96.023" y2="6.81"/>
<line fill="none" stroke="#5B3020" stroke-width="0.141" stroke-linecap="round" stroke-linejoin="round" x1="92.788" y1="19.213" x2="88.467" y2="15.837"/>
<line fill="none" stroke="#5B3020" stroke-width="0.141" stroke-linecap="round" stroke-linejoin="round" x1="111.58" y1="23.445" x2="112.683" y2="2.392"/>
<line fill="none" stroke="#5B3020" stroke-width="0.141" stroke-linecap="round" stroke-linejoin="round" x1="111.936" y1="4.222" x2="114.978" y2="4.382"/>
<line fill="none" stroke="#5B3020" stroke-width="0.141" stroke-linecap="round" stroke-linejoin="round" x1="119.224" y1="6.177" x2="118.901" y2="12.36"/>
<line fill="none" stroke="#5B3020" stroke-width="0.141" stroke-linecap="round" stroke-linejoin="round" x1="103.577" y1="5.777" x2="120.6" y2="6.667"/>
<line fill="none" stroke="#5B3020" stroke-width="0.141" stroke-linecap="round" stroke-linejoin="round" x1="104.688" y1="11.299" x2="105.047" y2="4.452"/>
<line fill="none" stroke="#5B3020" stroke-width="0.141" stroke-linecap="round" stroke-linejoin="round" x1="120.389" y1="10.72" x2="103.365" y2="9.827"/>
<line fill="none" stroke="#5B3020" stroke-width="0.141" stroke-linecap="round" stroke-linejoin="round" x1="116.625" y1="4.712" x2="115.643" y2="23.443"/>
<line fill="none" stroke="#5B3020" stroke-width="0.141" stroke-linecap="round" stroke-linejoin="round" x1="117.572" y1="21.88" x2="111.005" y2="21.536"/>
<line fill="none" stroke="#5B3020" stroke-width="0.141" stroke-linecap="round" stroke-linejoin="round" x1="17.267" y1="10.494" x2="10.346" y2="10.738"/>
<path fill="none" stroke="#5B3020" stroke-width="0.141" stroke-linecap="round" stroke-linejoin="round" d="M16.538,18.576
	c-2.267,1.056-4.697,1.637-7.218,1.723c-2.519,0.087-4.983-0.32-7.318-1.216"/>
<path fill="none" stroke="#5B3020" stroke-width="0.141" stroke-linecap="round" stroke-linejoin="round" d="M3.528,15.096
	c1.799,0.688,3.698,1.003,5.645,0.935c1.946-0.066,3.817-0.515,5.566-1.324"/>
<path fill="none" stroke="#5B3020" stroke-width="0.141" stroke-linecap="round" stroke-linejoin="round" d="M27.999,15.451
	c-0.483,2.771-3.026,4.765-5.878,4.51c-3.013-0.26-5.251-2.926-4.985-5.942c0.263-3.01,2.929-5.251,5.941-4.985
	c1.744,0.155,3.226,1.108,4.116,2.469 M22.743,12.864c-0.904-0.076-1.699,0.591-1.778,1.492c-0.079,0.901,0.588,1.702,1.492,1.781
	c0.901,0.076,1.699-0.591,1.776-1.495C24.314,13.741,23.644,12.943,22.743,12.864z"/>
<rect x="27.995" y="9.711" transform="matrix(0.0871 -0.9962 0.9962 0.0871 13.6882 42.2891)" fill="none" stroke="#5B3020" stroke-width="0.141" stroke-linecap="round" stroke-linejoin="round" width="3.846" height="7.931"/>
<line fill="none" stroke="#5B3020" stroke-width="0.141" stroke-linecap="round" stroke-linejoin="round" x1="23.106" y1="9.496" x2="23.253" y2="7.799"/>
<path fill="none" stroke="#5B3020" stroke-width="0.141" stroke-linecap="round" stroke-linejoin="round" d="M40.606,17.73
	c0.236-0.281,0.349-0.638,0.315-1.001c-0.032-0.365-0.202-0.696-0.481-0.93c-0.281-0.234-0.638-0.347-1.001-0.315"/>
<path fill="none" stroke="#5B3020" stroke-width="0.141" stroke-linecap="round" stroke-linejoin="round" d="M39.068,11.23
	c1.5-0.134,2.963,0.328,4.116,1.298c1.156,0.967,1.862,2.327,1.994,3.827c0.131,1.502-0.328,2.965-1.3,4.119"/>
<path fill="none" stroke="#5B3020" stroke-width="0.141" stroke-linecap="round" stroke-linejoin="round" d="M71.926,9.909
	c0.373,0.83,0.541,1.765,0.46,2.734"/>
<path fill="none" stroke="#5B3020" stroke-width="0.141" stroke-linecap="round" stroke-linejoin="round" d="M58.619,5.866
	l8.4,0.733l0.318,0.029c0.465,0.042,0.911,0.137,1.332,0.281"/>
<path fill="none" stroke="#5B3020" stroke-width="0.141" stroke-linecap="round" stroke-linejoin="round" d="M68.132,12.271
	c0.058-0.693-0.478-1.326-1.166-1.387"/>
<path fill="none" stroke="#5B3020" stroke-width="0.141" stroke-linecap="round" stroke-linejoin="round" d="M71.018,4.355
	c-1.269,0.215-2.206,0.943-2.33,2.445c-0.1,1.227,0.41,2.036,1.258,2.529l-0.539,0.951c0.058,0.024,0.286-0.055,0.56-0.158
	c0.436-0.163,1.442-0.25,2.08-0.208c1.988,0.137,3.719-0.383,3.843-2.485l-0.003-0.565"/>
<path fill="none" stroke="#5B3020" stroke-width="0.141" stroke-linecap="round" stroke-linejoin="round" d="M118.678,1.46
	l-0.423-0.234c-0.197-0.236-0.126-0.825-0.402-0.969c-0.268-0.142-0.709,0.255-1.027,0.226c-0.32-0.029-0.686-0.494-0.972-0.399
	c-0.297,0.092-0.331,0.686-0.567,0.885c-0.234,0.197-0.825,0.123-0.969,0.402c-0.142,0.265,0.255,0.707,0.228,1.024
	c-0.031,0.32-0.496,0.686-0.407,0.975c0.097,0.297,0.691,0.328,0.888,0.562c0.2,0.236-0.725,1.426-0.447,1.573
	c0.268,0.139,1.558-0.856,1.878-0.827c0.318,0.026,0.683,0.494,0.969,0.404c0.302-0.095,0.331-0.691,0.567-0.888l0.575-0.184"/>
<path fill="none" stroke="#5B3020" stroke-width="0.141" stroke-linecap="round" stroke-linejoin="round" d="M118.508,2.709
	c-0.029,0.318-0.491,0.683-0.402,0.969c0.095,0.297,0.688,0.331,0.888,0.567c0.197,0.236-0.728,1.426-0.449,1.571
	c0.268,0.137,1.558-0.856,1.878-0.827c0.32,0.029,0.683,0.494,0.972,0.402c0.297-0.095,0.331-0.688,0.562-0.885
	c0.236-0.2,0.83-0.123,0.977-0.404c0.137-0.265-0.257-0.704-0.229-1.024c0.026-0.318,0.491-0.686,0.402-0.972
	c-0.095-0.299-0.691-0.328-0.888-0.565c-0.197-0.236-0.126-0.827-0.402-0.972c-0.268-0.139-0.709,0.255-1.027,0.226
	c-0.32-0.026-0.686-0.494-0.972-0.402c-0.297,0.092-0.328,0.691-0.565,0.885c-0.239,0.2-0.827,0.126-0.975,0.402
	C118.14,1.95,118.537,2.389,118.508,2.709z"/>
<path fill="none" stroke="#5B3020" stroke-width="0.141" stroke-linecap="round" stroke-linejoin="round" d="M75.148,3.099
	l-0.37-0.213c-0.197-0.236-0.123-0.827-0.402-0.972c-0.268-0.139-0.704,0.255-1.027,0.229c-0.32-0.029-0.68-0.497-0.972-0.404
	c-0.297,0.097-0.328,0.691-0.565,0.888c-0.234,0.2-0.827,0.123-0.972,0.405c-0.139,0.263,0.255,0.704,0.226,1.024
	c-0.024,0.318-0.491,0.686-0.402,0.972c0.095,0.299,0.691,0.328,0.89,0.565c0.197,0.236,0.123,0.83,0.399,0.972
	c0.268,0.142,0.709-0.252,1.03-0.228c0.318,0.029,0.683,0.496,0.969,0.404c0.299-0.092,0.331-0.691,0.567-0.888l0.473-0.163"/>
<path fill="none" stroke="#5B3020" stroke-width="0.141" stroke-linecap="round" stroke-linejoin="round" d="M74.879,4.366
	c-0.029,0.32-0.491,0.686-0.402,0.975c0.095,0.297,0.688,0.328,0.888,0.565c0.197,0.234,0.123,0.825,0.402,0.972
	c0.265,0.139,0.707-0.257,1.027-0.229c0.318,0.026,0.683,0.494,0.972,0.402c0.297-0.095,0.328-0.688,0.562-0.885
	c0.239-0.2,0.83-0.124,0.974-0.405c0.137-0.265-0.255-0.707-0.226-1.024c0.024-0.32,0.491-0.686,0.402-0.972
	C79.383,3.465,78.787,3.436,78.59,3.2c-0.197-0.239-0.126-0.83-0.402-0.972c-0.27-0.139-0.709,0.252-1.03,0.223
	c-0.318-0.026-0.683-0.491-0.969-0.399c-0.299,0.092-0.331,0.688-0.567,0.885c-0.234,0.2-0.825,0.126-0.972,0.402
	C74.511,3.607,74.908,4.048,74.879,4.366z"/>
<path fill="none" stroke="#5B3020" stroke-width="0.141" stroke-linecap="round" stroke-linejoin="round" d="M95.271,3.778
	c2.632-0.32,3.717,0.854,4.129,1.587c0.412,0.728,0.862,2.264-0.77,4.352"/>
<path fill="none" stroke="#5B3020" stroke-width="0.141" stroke-linecap="round" stroke-linejoin="round" d="M94.827,14.585
	c0.523-0.672,1.279-1.1,2.128-1.203c0.846-0.105,1.681,0.129,2.353,0.651l0.551,0.554"/>
<path fill="none" stroke="#5B3020" stroke-width="0.141" stroke-linecap="round" stroke-linejoin="round" d="M98.49,23.165
	c1.778-0.218,3.362-1.116,4.465-2.527c1.103-1.41,1.592-3.168,1.374-4.946c-0.228-1.868-1.174-3.53-2.653-4.688
	c-0.89-0.696-1.912-1.156-2.992-1.363"/>
<path fill="none" stroke="#5B3020" stroke-width="0.141" stroke-linecap="round" stroke-linejoin="round" d="M98.49,23.166
	c-2.472,0.305-4.736-1.463-5.041-3.935c-0.302-2.477,1.466-4.736,3.937-5.04c2.477-0.302,4.736,1.463,5.038,3.937
	C102.729,20.602,100.964,22.864,98.49,23.166z M97.857,18.007c-0.37,0.047-0.636,0.384-0.591,0.754
	c0.047,0.37,0.386,0.636,0.754,0.591c0.373-0.047,0.638-0.386,0.591-0.754C98.566,18.225,98.227,17.96,97.857,18.007z"/>
<path fill="none" stroke="#5B3020" stroke-width="0.141" stroke-linecap="round" stroke-linejoin="round" d="M112.057,14.352
	c-0.208,0.491-0.707,0.822-1.263,0.796c-0.72-0.039-1.271-0.651-1.229-1.368c0.034-0.715,0.646-1.269,1.363-1.229
	c0.56,0.029,1.019,0.412,1.177,0.919"/>
<path fill="none" stroke="#5B3020" stroke-width="0.141" stroke-linecap="round" stroke-linejoin="round" d="M108.03,10.073
	c-1.08,0.812-1.805,2.075-1.883,3.528c-0.137,2.598,1.865,4.825,4.465,4.959c0.423,0.024,0.835-0.01,1.229-0.097"/>
<path fill="none" stroke="#5B3020" stroke-width="0.235" stroke-linecap="round" stroke-linejoin="round" stroke-miterlimit="10" d="
	M41.4,28.236c0,0.788-0.644,1.432-1.434,1.432c-0.793,0-1.434-0.644-1.434-1.432c0-0.796,0.641-1.434,1.434-1.434
	C40.757,26.802,41.4,27.441,41.4,28.236z"/>
<path fill="none" stroke="#5B3020" stroke-width="0.235" stroke-linecap="round" stroke-linejoin="round" stroke-miterlimit="10" d="
	M34.341,29.247c-0.26,0.263-0.62,0.42-1.014,0.42c-0.399,0-0.754-0.158-1.011-0.42c-0.26-0.26-0.423-0.617-0.423-1.011
	c0-0.397,0.163-0.757,0.423-1.014c0.257-0.26,0.612-0.42,1.011-0.42c0.394,0,0.754,0.16,1.014,0.42"/>
<path fill="none" stroke="#5B3020" stroke-width="0.235" stroke-linecap="round" stroke-linejoin="round" stroke-miterlimit="10" d="
	M59.987,29.247c-0.26,0.263-0.617,0.42-1.014,0.42c-0.397,0-0.754-0.158-1.011-0.42c-0.26-0.26-0.423-0.617-0.423-1.011
	c0-0.397,0.163-0.757,0.423-1.014c0.257-0.26,0.615-0.42,1.011-0.42c0.397,0,0.754,0.16,1.014,0.42"/>
<polyline fill="none" stroke="#5B3020" stroke-width="0.235" stroke-linecap="round" stroke-linejoin="round" stroke-miterlimit="10" points="
	48.183,29.575 48.183,26.915 46.874,28.693 45.561,26.915 45.561,29.575 "/>
<line fill="none" stroke="#5B3020" stroke-width="0.235" stroke-linecap="round" stroke-linejoin="round" stroke-miterlimit="10" x1="52.846" y1="29.575" x2="52.846" y2="26.915"/>
<path fill="none" stroke="#5B3020" stroke-width="0.141" stroke-linecap="round" stroke-linejoin="round" stroke-miterlimit="10" d="
	M66.699,27.223c-0.26-0.263-0.615-0.42-1.014-0.42c-0.394,0-0.751,0.158-1.011,0.42c-0.26,0.257-0.42,0.615-0.42,1.014
	c0,0.391,0.16,0.751,0.42,1.011c0.26,0.26,0.617,0.42,1.011,0.42c0.399,0,0.754-0.16,1.014-0.42v-0.961h-1.114"/>
<polyline fill="none" stroke="#5B3020" stroke-width="0.141" stroke-linecap="round" stroke-linejoin="round" stroke-miterlimit="10" points="
	82.669,26.915 82.669,29.576 84.313,29.576 "/>
<line fill="none" stroke="#5B3020" stroke-width="0.141" stroke-linecap="round" stroke-linejoin="round" stroke-miterlimit="10" x1="71.393" y1="29.575" x2="71.393" y2="26.915"/>
<path fill="none" stroke="#5B3020" stroke-width="0.141" stroke-linecap="round" stroke-linejoin="round" stroke-miterlimit="10" d="
	M76.164,29.565v-2.658h1.135c0.439,0,0.796,0.355,0.796,0.793c0,0.444-0.357,0.801-0.796,0.801l0.891,1.129"/>
<line fill="none" stroke="#5B3020" stroke-width="0.141" stroke-linecap="round" stroke-linejoin="round" stroke-miterlimit="10" x1="76.164" y1="28.501" x2="77.298" y2="28.501"/>
<path fill="none" stroke="#5B3020" stroke-width="0.141" stroke-linecap="round" stroke-linejoin="round" stroke-miterlimit="10" d="
	M88.294,29.424c0.46,0.289,1.24,0.407,1.734,0.047c0.273-0.197,0.318-0.827-0.126-1.027c-0.455-0.2-0.872-0.278-1.253-0.467
	c-0.397-0.186-0.41-0.686-0.171-0.943c0.383-0.415,1.143-0.339,1.558-0.071"/>
</svg>
