<?xml version="1.0" encoding="utf-8"?>
<!-- Generator: Adobe Illustrator 27.0.1, SVG Export Plug-In . SVG Version: 6.00 Build 0)  -->
<svg version="1.1" id="레이어_1" xmlns="http://www.w3.org/2000/svg" xmlns:xlink="http://www.w3.org/1999/xlink" x="0px"
	 y="0px" viewBox="0 0 720 218.473" enable-background="new 0 0 720 218.473" xml:space="preserve">
<path fill="#231815" d="M112.577,182.676h1.864l4.221,12.903h0.038l4.095-12.903h1.638l-4.889,14.793h-2.054L112.577,182.676z
	 M132.85,197.305c-0.831,0.227-1.36,0.403-2.533,0.403c-3.036,0-5.027-1.89-5.027-5.645c0-2.923,1.147-5.04,4.133-5.04
	c3.629,0,3.629,3.289,3.629,4.133h-5.986c0,2.23,0.769,5.519,3.919,5.519c0.92,0,1.26-0.151,1.864-0.29V197.305z M131.401,190.198
	c0-0.882-0.251-2.306-2.079-2.306c-1.84,0-2.218,1.752-2.218,2.306H131.401z M136.442,187.262h1.587v2.419h0.051
	c0.491-1.109,1.625-2.659,3.276-2.659v1.878h-0.441c-2.23,0-2.885,1.877-2.885,3.742v4.826h-1.587V187.262z M143.056,187.262h1.651
	l1.953,8.064h0.038l2.23-8.064h1.324l2.369,8.001h0.038l1.814-8.001h1.462l-2.445,10.206h-1.537l-2.394-7.825h-0.038l-2.217,7.825
	h-1.55L143.056,187.262z M165.598,197.305c-0.844,0.227-1.373,0.403-2.519,0.403c-3.049,0-5.053-1.89-5.053-5.645
	c0-2.923,1.159-5.04,4.133-5.04c3.641,0,3.641,3.289,3.641,4.133h-5.986c0,2.23,0.769,5.519,3.919,5.519
	c0.932,0,1.26-0.151,1.864-0.29V197.305z M164.149,190.198c0-0.882-0.265-2.306-2.079-2.306c-1.827,0-2.218,1.752-2.218,2.306
	H164.149z M168.951,182.676h1.814v1.928h-1.814V182.676z M169.064,187.262h1.587v10.206h-1.587V187.262z M174.318,182.676h1.588
	v14.793h-1.588V182.676z M186.175,197.305c-0.844,0.227-1.374,0.403-2.52,0.403c-3.062,0-5.053-1.89-5.053-5.645
	c0-2.923,1.159-5.04,4.133-5.04c3.628,0,3.628,3.289,3.628,4.133h-5.972c0,2.23,0.756,5.519,3.919,5.519
	c0.92,0,1.26-0.151,1.865-0.29V197.305z M184.713,190.198c0-0.882-0.252-2.306-2.079-2.306c-1.815,0-2.206,1.752-2.206,2.306
	H184.713z M199.846,195.49h-0.038c-0.227,0.693-1.071,2.218-2.974,2.218c-2.734,0-3.439-2.596-3.439-5.317
	c0-2.91,1.096-5.368,3.666-5.368c1.903,0,2.508,1.449,2.747,2.066h0.038v-6.414h1.588v14.793h-1.588V195.49z M197.213,196.637
	c1.587,0,2.633-1.915,2.633-4.461c0-1.197-0.604-4.12-2.52-4.12c-1.663,0-2.154,2.293-2.154,4.435
	C195.172,194.482,195.575,196.637,197.213,196.637 M204.168,192.479c0-3.263,1.285-5.456,4.334-5.456
	c3.036,0,4.435,2.193,4.435,5.456c0,3.301-1.399,5.229-4.435,5.229C205.453,197.708,204.168,195.78,204.168,192.479
	 M208.502,196.851c2.205,0,2.659-2.218,2.659-4.309c0-2.23-0.454-4.65-2.659-4.65c-2.193,0-2.558,2.419-2.558,4.65
	C205.945,194.633,206.31,196.851,208.502,196.851 M222.728,197.342c-0.756,0.227-1.386,0.365-2.293,0.365
	c-3.805,0-5.103-2.469-5.103-5.657c0-3.352,1.65-5.028,4.158-5.028c2.533,0,3.528,1.55,3.528,3.39h-1.852c0-0.806,0-2.52-1.79-2.52
	c-1.789,0-2.255,2.079-2.255,3.768c0,2.18,0.92,5.015,3.868,5.015c0.844,0,1.16-0.126,1.739-0.277V197.342z M225.512,182.676h1.588
	v7.333h0.05c0.29-0.819,1.324-2.986,3.44-2.986c1.336,0,2.621,0.844,2.621,2.898v7.548h-1.587v-6.829
	c0-1.185-0.202-2.306-1.525-2.306c-1.903,0-2.999,2.747-2.999,4.612v4.524h-1.588V182.676z M247.5,195.49h-0.038
	c-0.227,0.693-1.071,2.218-2.961,2.218c-2.747,0-3.452-2.596-3.452-5.317c0-2.91,1.096-5.368,3.667-5.368
	c1.915,0,2.507,1.449,2.746,2.066h0.038v-6.414h1.588v14.793H247.5V195.49z M244.867,196.637c1.588,0,2.633-1.915,2.633-4.461
	c0-1.197-0.592-4.12-2.495-4.12c-1.676,0-2.167,2.293-2.167,4.435C242.838,194.482,243.242,196.637,244.867,196.637
	 M258.047,194.974h-0.038c-0.983,2.104-1.638,2.734-3.667,2.734c-1.701,0-2.445-1.814-2.445-3.15v-7.295h1.575v6.602
	c0,1.096,0.467,2.533,1.827,2.533c1.865,0,2.709-2.785,2.709-4.75v-4.385h1.587v10.206h-1.55V194.974z M269.55,189.102h0.051
	c0.29-0.618,1.159-2.079,2.949-2.079c2.432,0,3.729,2.117,3.729,5.406c0,3.553-1.65,5.279-4.309,5.279
	c-4.007,0-4.007-3.49-4.007-5.153v-9.879h1.587V189.102z M271.957,196.675c1.99,0,2.545-2.079,2.545-4.133
	c0-1.978-0.466-4.486-2.356-4.486c-1.941,0-2.596,2.785-2.596,4.662C269.55,194.558,269.916,196.675,271.957,196.675
	 M278.648,182.676h1.802v1.928h-1.802V182.676z M278.736,187.262h1.588v10.206h-1.588V187.262z M289.484,188.913
	c-0.34-0.189-1.386-0.819-2.596-0.819c-0.92,0-1.764,0.391-1.764,1.222c0,1.235,1.487,1.575,3.264,2.646
	c0.982,0.58,1.763,1.285,1.763,2.722c0,1.588-1.134,3.024-3.818,3.024c-1.386,0-2.281-0.239-2.772-0.428v-1.613
	c0.227,0.138,1.525,0.97,2.861,0.97c1.171,0,2.142-0.504,2.142-1.663c0-1.021-0.983-1.424-2.193-2.142
	c-1.285-0.743-2.759-1.272-2.759-3.024s1.184-2.785,3.49-2.785c1.071,0,1.979,0.29,2.382,0.378V188.913z M297.649,197.62
	c-0.517,0.088-0.832,0.088-1.26,0.088c-2.104,0-3.062-0.731-3.049-2.57v-6.892h-1.801v-0.983h1.801v-2.394l1.588-0.97v3.364h2.785
	v0.983h-2.785v6.061c-0.013,1.184,0,2.369,1.751,2.369c0.542,0,0.781-0.063,0.971-0.126V197.62z M309.833,188.913
	c-0.328-0.189-1.386-0.819-2.583-0.819c-0.92,0-1.763,0.391-1.763,1.222c0,1.235,1.487,1.575,3.263,2.646
	c0.983,0.58,1.751,1.285,1.751,2.722c0,1.588-1.134,3.024-3.818,3.024c-1.386,0-2.268-0.239-2.759-0.428v-1.613
	c0.215,0.138,1.524,0.97,2.848,0.97c1.184,0,2.154-0.504,2.154-1.663c0-1.021-0.995-1.424-2.192-2.142
	c-1.286-0.743-2.772-1.272-2.772-3.024s1.184-2.785,3.503-2.785c1.071,0,1.966,0.29,2.369,0.378V188.913z M312.278,192.479
	c0-3.263,1.285-5.456,4.334-5.456c3.036,0,4.435,2.193,4.435,5.456c0,3.301-1.399,5.229-4.435,5.229
	C313.563,197.708,312.278,195.78,312.278,192.479 M316.613,196.851c2.205,0,2.659-2.218,2.659-4.309c0-2.23-0.454-4.65-2.659-4.65
	c-2.193,0-2.558,2.419-2.558,4.65C314.055,194.633,314.42,196.851,316.613,196.851 M333.698,188.913
	c-0.352-0.189-1.398-0.819-2.596-0.819c-0.932,0-1.763,0.391-1.763,1.222c0,1.235,1.474,1.575,3.263,2.646
	c0.983,0.58,1.751,1.285,1.751,2.722c0,1.588-1.134,3.024-3.805,3.024c-1.411,0-2.28-0.239-2.772-0.428v-1.613
	c0.214,0.138,1.524,0.97,2.86,0.97c1.159,0,2.13-0.504,2.13-1.663c0-1.021-0.983-1.424-2.18-2.142
	c-1.286-0.743-2.772-1.272-2.772-3.024s1.184-2.785,3.49-2.785c1.084,0,1.979,0.29,2.394,0.378V188.913z M343.829,197.342
	c-0.744,0.227-1.399,0.365-2.293,0.365c-3.818,0-5.103-2.469-5.103-5.657c0-3.352,1.65-5.028,4.171-5.028s3.503,1.55,3.503,3.39
	h-1.853c0-0.806,0-2.52-1.764-2.52c-1.814,0-2.28,2.079-2.28,3.768c0,2.18,0.92,5.015,3.881,5.015c0.831,0,1.159-0.126,1.739-0.277
	V197.342z M346.74,182.676h1.587v7.333h0.051c0.29-0.819,1.323-2.986,3.44-2.986c1.335,0,2.62,0.844,2.62,2.898v7.548h-1.587v-6.829
	c0-1.185-0.214-2.306-1.524-2.306c-1.903,0-2.999,2.747-2.999,4.612v4.524h-1.587V182.676z M357.45,192.479
	c0-3.263,1.298-5.456,4.334-5.456c3.037,0,4.448,2.193,4.448,5.456c0,3.301-1.411,5.229-4.448,5.229
	C358.748,197.708,357.45,195.78,357.45,192.479 M358.999,183.356h1.903v1.877h-1.903V183.356z M361.784,196.851
	c2.206,0,2.659-2.218,2.659-4.309c0-2.23-0.453-4.65-2.659-4.65c-2.193,0-2.545,2.419-2.545,4.65
	C359.239,194.633,359.591,196.851,361.784,196.851 M362.792,183.356h1.903v1.877h-1.903V183.356z M369.244,187.262h1.537v2.508
	h0.051c0.618-1.285,1.65-2.747,3.667-2.747c1.777,0,2.432,1.55,2.432,2.684v7.762h-1.588v-6.603c0-1.096,0-2.533-1.411-2.533
	c-2.142,0-3.099,2.797-3.099,4.763v4.372h-1.587V187.262z M379.551,195.326h2.142v2.142h-2.142V195.326z M389.769,182.676h2.684
	c4.7,0,7.119,1.714,7.119,7.308c0,6.375-2.848,7.484-7.358,7.484h-2.445V182.676z M391.559,196.209h1.108
	c3.68,0,4.99-1.815,4.99-6.01c0-5.192-1.663-6.35-4.99-6.35h-1.108V196.209z M407.523,196.032h-0.05
	c-0.29,0.491-1.235,1.676-2.936,1.676c-1.65,0-2.759-1.209-2.759-2.57c0-2.999,3.831-3.163,5.746-3.263v-1.348
	c0-1.096-0.138-2.634-1.827-2.634c-1.626,0-1.739,1.247-1.802,2.029h-1.84c0.101-1.247,0.731-2.898,3.704-2.898
	c3.012,0,3.339,1.966,3.339,3.415v7.031h-1.575V196.032z M407.523,192.731c-0.567,0.038-4.032,0-4.032,2.18
	c0,1.096,0.681,1.726,1.613,1.726c1.273,0,2.419-1.21,2.419-2.797V192.731z M417.956,188.913c-0.34-0.189-1.398-0.819-2.596-0.819
	c-0.92,0-1.764,0.391-1.764,1.222c0,1.235,1.487,1.575,3.264,2.646c0.983,0.58,1.764,1.285,1.764,2.722
	c0,1.588-1.147,3.024-3.818,3.024c-1.398,0-2.268-0.239-2.772-0.428v-1.613c0.214,0.138,1.537,0.97,2.86,0.97
	c1.172,0,2.142-0.504,2.142-1.663c0-1.021-0.983-1.424-2.193-2.142c-1.272-0.743-2.772-1.272-2.772-3.024s1.184-2.785,3.503-2.785
	c1.071,0,1.978,0.29,2.381,0.378V188.913z M425.945,182.676h7.131v1.172h-5.343v5.279h5.078v1.222h-5.078v5.859h5.57v1.26h-7.358
	V182.676z M435.269,187.262h1.65l1.94,8.064h0.051l2.23-8.064h1.335l2.356,8.001h0.038l1.815-8.001h1.474l-2.457,10.206h-1.537
	l-2.382-7.825h-0.038l-2.23,7.825h-1.55L435.269,187.262z M450.767,182.676h1.802v1.928h-1.802V182.676z M450.881,187.262h1.587
	v10.206h-1.587V187.262z M463.254,197.532c0,3.112-1.588,4.523-4.687,4.523c-1.097,0-1.991-0.176-2.659-0.378v-1.764
	c0.869,0.491,1.777,0.957,2.973,0.957c2.785,0,2.785-2.696,2.785-3.44v-2.029h-0.038c-0.151,0.668-0.945,2.066-2.747,2.066
	c-2.596,0-3.691-2.47-3.691-5.317c0-2.848,1.159-5.128,3.628-5.128c1.953,0,2.533,1.512,2.81,2.167h0.038v-1.928h1.588V197.532z
	 M459.209,196.448c1.727,0,2.457-2.306,2.457-4.209c0-1.827-0.68-4.183-2.482-4.183c-1.689,0-2.206,2.407-2.206,4.183
	C456.979,193.991,457.521,196.448,459.209,196.448 M466.19,191.395h6.515v1.499h-6.515V191.395z M474.14,182.676h1.739l2.143,12.676
	h0.05l3.578-12.676h1.537l3.515,12.588h0.038l2.218-12.588h1.474l-2.722,14.793h-1.978l-3.44-12.399h-0.051l-3.389,12.399h-1.966
	L474.14,182.676z M499.668,197.305c-0.844,0.227-1.373,0.403-2.533,0.403c-3.049,0-5.04-1.89-5.04-5.645
	c0-2.923,1.159-5.04,4.145-5.04c3.616,0,3.616,3.289,3.616,4.133h-5.973c0,2.23,0.769,5.519,3.919,5.519
	c0.92,0,1.272-0.151,1.864-0.29V197.305z M498.207,190.198c0-0.882-0.252-2.306-2.079-2.306c-1.815,0-2.206,1.752-2.206,2.306
	H498.207z M502.869,182.676h1.814v1.928h-1.814V182.676z M502.982,187.262h1.588v10.206h-1.588V187.262z M509.913,189.102h0.038
	c0.302-0.618,1.159-2.079,2.961-2.079c2.419,0,3.73,2.117,3.73,5.406c0,3.553-1.651,5.279-4.31,5.279
	c-4.007,0-4.007-3.49-4.007-5.153v-9.879h1.588V189.102z M512.307,196.675c2.003,0,2.558-2.079,2.558-4.133
	c0-1.978-0.467-4.486-2.356-4.486c-1.953,0-2.596,2.785-2.596,4.662C509.913,194.558,510.265,196.675,512.307,196.675
	 M519.628,182.676h1.575v14.793h-1.575V182.676z M524.907,182.676h1.801v1.928h-1.801V182.676z M525.008,187.262h1.587v10.206
	h-1.587V187.262z M536.965,197.342c-0.756,0.227-1.411,0.365-2.306,0.365c-3.818,0-5.09-2.469-5.09-5.657
	c0-3.352,1.638-5.028,4.158-5.028c2.52,0,3.503,1.55,3.503,3.39h-1.827c0-0.806,0-2.52-1.789-2.52c-1.802,0-2.281,2.079-2.281,3.768
	c0,2.18,0.92,5.015,3.894,5.015c0.831,0,1.159-0.126,1.739-0.277V197.342z M539.762,182.676h1.588v7.333h0.038
	c0.302-0.819,1.336-2.986,3.465-2.986c1.324,0,2.609,0.844,2.609,2.898v7.548h-1.587v-6.829c0-1.185-0.215-2.306-1.537-2.306
	c-1.903,0-2.986,2.747-2.986,4.612v4.524h-1.588V182.676z M557.377,197.305c-0.844,0.227-1.374,0.403-2.533,0.403
	c-3.049,0-5.04-1.89-5.04-5.645c0-2.923,1.172-5.04,4.146-5.04c3.616,0,3.616,3.289,3.616,4.133h-5.973
	c0,2.23,0.768,5.519,3.918,5.519c0.92,0,1.273-0.151,1.865-0.29V197.305z M555.916,190.198c0-0.882-0.252-2.306-2.08-2.306
	c-1.814,0-2.193,1.752-2.193,2.306H555.916z M564.157,196.209l6.918-12.361h-6.565v-1.172h8.607v1.172l-6.93,12.361h7.22v1.26
	h-9.249V196.209z M576.278,182.676h1.814v1.928h-1.814V182.676z M576.379,187.262h1.588v10.206h-1.588V187.262z M588.487,197.305
	c-0.831,0.227-1.36,0.403-2.52,0.403c-3.049,0-5.04-1.89-5.04-5.645c0-2.923,1.159-5.04,4.133-5.04c3.628,0,3.628,3.289,3.628,4.133
	h-5.985c0,2.23,0.768,5.519,3.931,5.519c0.907,0,1.26-0.151,1.852-0.29V197.305z M587.038,190.198c0-0.882-0.252-2.306-2.079-2.306
	c-1.815,0-2.218,1.752-2.218,2.306H587.038z M591.411,182.676h1.588v7.333h0.038c0.302-0.819,1.323-2.986,3.452-2.986
	c1.336,0,2.609,0.844,2.609,2.898v7.548h-1.588v-6.829c0-1.185-0.201-2.306-1.512-2.306c-1.903,0-2.999,2.747-2.999,4.612v4.524
	h-1.588V182.676z M607.212,197.62c-0.517,0.088-0.844,0.088-1.273,0.088c-2.104,0-3.062-0.731-3.049-2.57v-6.892h-1.802v-0.983
	h1.802v-2.394l1.588-0.97v3.364h2.797v0.983h-2.797v6.061c-0.013,1.184,0,2.369,1.763,2.369c0.542,0,0.769-0.063,0.971-0.126V197.62
	z M323.971,215.751h-0.038c-0.983,2.092-1.638,2.722-3.667,2.722c-1.688,0-2.444-1.827-2.444-3.15v-7.308h1.587v6.615
	c0,1.096,0.454,2.533,1.814,2.533c1.877,0,2.709-2.797,2.709-4.763v-4.385h1.587v10.218h-1.55V215.751z M328.822,208.015h1.537v2.52
	h0.05c0.618-1.285,1.65-2.747,3.655-2.747c1.789,0,2.444,1.55,2.444,2.684v7.762h-1.587v-6.602c0-1.096,0-2.545-1.411-2.545
	c-2.143,0-3.1,2.797-3.1,4.763v4.385h-1.587V208.015z M345.378,209.678c-0.34-0.189-1.386-0.819-2.596-0.819
	c-0.92,0-1.751,0.391-1.751,1.235c0,1.21,1.487,1.563,3.263,2.634c0.983,0.567,1.752,1.272,1.752,2.709
	c0,1.588-1.134,3.037-3.818,3.037c-1.386,0-2.268-0.24-2.759-0.441v-1.613c0.215,0.138,1.525,0.983,2.848,0.983
	c1.184,0,2.142-0.491,2.142-1.651c0-1.033-0.983-1.449-2.193-2.155c-1.272-0.756-2.746-1.285-2.746-3.012
	c0-1.764,1.159-2.797,3.49-2.797c1.071,0,1.966,0.277,2.369,0.365V209.678z M353.267,203.441h1.587v7.321h0.038
	c0.315-0.806,1.336-2.974,3.465-2.974c1.323,0,2.608,0.832,2.608,2.886v7.56h-1.587v-6.842c0-1.184-0.215-2.306-1.512-2.306
	c-1.928,0-3.012,2.747-3.012,4.624v4.523h-1.587V203.441z M364.254,203.441h1.814v1.915h-1.814V203.441z M364.367,208.015h1.587
	v10.218h-1.587V208.015z M369.546,208.015h1.55v2.52h0.038c0.63-1.285,1.651-2.747,3.667-2.747c1.79,0,2.457,1.55,2.457,2.684v7.762
	h-1.588v-6.602c0-1.096,0-2.545-1.424-2.545c-2.13,0-3.112,2.797-3.112,4.763v4.385h-1.587V208.015z M385.926,216.797h-0.038
	c-0.302,0.491-1.247,1.676-2.936,1.676c-1.65,0-2.772-1.21-2.772-2.583c0-2.999,3.843-3.15,5.746-3.251v-1.36
	c0-1.096-0.126-2.634-1.814-2.634c-1.626,0-1.739,1.273-1.802,2.029h-1.84c0.088-1.235,0.718-2.886,3.705-2.886
	c2.999,0,3.338,1.953,3.338,3.402v7.043h-1.587V216.797z M385.926,213.496c-0.554,0.038-4.032,0-4.032,2.18
	c0,1.096,0.693,1.726,1.613,1.726c1.285,0,2.419-1.21,2.419-2.797V213.496z M390.928,208.015h1.537v2.52h0.051
	c0.618-1.285,1.65-2.747,3.667-2.747c1.763,0,2.432,1.55,2.432,2.684v7.762h-1.588v-6.602c0-1.096,0-2.545-1.411-2.545
	c-2.142,0-3.099,2.797-3.099,4.763v4.385h-1.588V208.015z M401.223,216.079h2.155v2.155h-2.155V216.079z M335.639,165.3
	c-0.391-0.378-0.757-0.731-0.681-1.084c0.05-0.252-0.252-0.277-0.353-0.365c-0.391-0.428-0.202-1.008-0.34-1.5
	c-0.088-1.55,0.176-1.877,0.34-3.087c0.101-0.756,0.391-1.865,0.239-2.192c-0.516-0.996,0.101-3.112,0.076-3.78
	c-0.038-0.794,0.012-0.794-0.013-1.575c-0.025-0.441,0.138-0.554,0.568-0.554c2.142,0.025,4.284,0,6.425,0.013
	c0.428,0.013,0.568-0.138,0.568-0.567c-0.025-1.046-0.013-2.092-0.013-3.138c0-0.592-0.025-0.63-0.604-0.63H328.52
	c-0.353,0-0.681,0.063-0.983,0.265c-0.076,0.076-0.215,0.189-0.341,0.038c-0.239-0.315-0.604-0.302-0.945-0.302
	c-0.743,0.013-1.487,0-2.243,0.038c-0.428,0.013-0.479,0.176-0.479,0.529c0.025,1.058,0.025,2.129,0,3.188
	c-0.012,0.466,0.164,0.592,0.605,0.579c2.079-0.013,4.158,0,6.237,0c0.63,0,0.63,0,0.63,0.605v13.382c0,0.643,0,0.643-0.655,0.643
	c-2.482,0-4.964,0-7.459,0.013c-0.555,0-0.592,0.038-0.592,0.579c0,1.071,0.012,2.155-0.013,3.226c0,0.378,0.164,0.504,0.517,0.504
	c0.441-0.013,0.857-0.126,1.31-0.075c1.197,0.138,2.406,0.101,3.616,0.05c0.631-0.025,1.197-0.227,1.764-0.643
	c0.957-0.706,3.251,0.894,3.957,0.34c0.176-0.491,0.025-2.205,0.567-2.293c0.353-0.076,0.768,0.088,0.971-0.315
	c0.138-0.265,0.39-0.378,0.63-0.516C335.916,166.497,335.714,165.376,335.639,165.3 M343.249,165.804
	c-0.756,0.013-1.512,0.013-2.255,0.013c-0.189-0.013-0.378,0.025-0.504,0.151c-0.567,0.579-1.65-0.416-1.953-0.34
	c-0.353,0.013-0.555,0.201-0.996,0.504c-0.668,0.554,1.16,1.613-0.025,2.369c-0.391,0.063-0.706,0.29-1.084,0.328
	c-0.29,0.025-0.353,0.303-0.404,0.479c0.151,0.34-0.328,0.554-0.289,0.693c0.025,0.138,1.31,0.113,1.499,0.113h6.023
	c0.302,0,0.441-0.138,0.441-0.441c-0.012-1.122-0.012-2.268,0-3.402C343.703,165.943,343.564,165.804,343.249,165.804
	 M425.377,146.74c-0.857-0.655-1.713-1.31-2.533-2.003c-0.353-0.29-0.517-0.24-0.768,0.126c-2.684,3.982-5.909,7.459-9.791,10.295
	c-0.604,0.441-0.894,0.894-0.781,1.625c0.038,0.24-0.051,0.491,0.176,0.668c0.391,0.277,0.34,0.643,0.138,0.983
	c-0.164,0.277-1.021-0.051-1.89,0.34c-0.416,0.176-0.643,0.529-0.807,0.819c-0.152-0.088-0.567-0.075-1.235,0.025
	c-0.302,0.038-0.428,0.063-0.668-0.025c-0.315-0.101-1.727-0.353-2.054-0.227c-0.944,0.34-0.668,0.152-0.768,1.386
	c-0.012,0.113-0.706-0.567-0.592-0.265c0.454,1.071,0.882,2.041,1.285,3.037c0.138,0.378,0.302,0.441,0.668,0.29
	c1.008-0.453,1.991-0.932,2.949-1.462c0.315-0.164,0.655-0.353,0.971-0.554c0.151-0.076,0.529-0.29,0.945-0.491
	c0.063-0.038,0.126-0.076,0.188-0.113c0.139-0.063,0.265-0.139,0.315-0.164c1.084-0.668,2.104-1.374,3.125-2.13
	c0.101-0.076,0.202-0.24,0.353-0.164c0.126,0.063,0.063,0.24,0.063,0.378v6.199v6.187c0,0.605,0.012,0.618,0.592,0.618h2.659
	c0.718,0,0.718,0,0.718-0.718c0-5.204,0.012-10.42,0-15.624c0-0.391,0.113-0.668,0.391-0.932c2.394-2.256,4.524-4.713,6.464-7.359
	C425.73,147.143,425.693,146.979,425.377,146.74 M394.557,157.501c-0.189-0.844-0.932-2.848-1.739-2.684
	c-0.517,0.088-0.328,2.079-0.794,2.256c-0.857,0.34-1.537,0.882-1.903,1.777c-0.025,0.076-0.063,0.138-0.101,0.201
	c-0.718-0.365-2.18-0.756-2.167-1.121c0.025,0,0.05-0.126,0.063-0.201c0.088-0.593,0.604-0.971,0.504-1.613
	c-0.012-0.164,0.152-0.302,0.29-0.277c2.545,0.655,2.268-1.386,1.109-2.041c-0.051-0.176-0.189,0-0.328-0.05
	c-0.353-0.164-1.109,0.252-1.223,0.302c-1.26,0.668-2.016,1.701-2.28,3.1c-0.176,0.97,0.038,3.188,1.399,4.246
	c0.075,0.126,0.251,0.277,0.541,0.479c1.374,0.996,2.86,1.147,4.36,0.391c1.563-0.781,2.293-2.117,2.394-3.83
	C394.696,158.118,394.62,157.79,394.557,157.501 M375.909,168.274c-0.769-0.97-1.563-1.928-2.382-2.86
	c-1.247-1.424-2.545-2.785-3.893-4.108c-0.088-0.076-0.164-0.24-0.278-0.164c-0.088,0.05-0.378,0.151-0.441,0.05
	c-0.529-1.147,0.819-3.327,0.012-3.1c-0.012,0.025-0.995,0.68-2.646,0.529c-0.164-0.29-1.499,0.24-1.209,0.819
	c0.176,0.378-0.391,0.579-0.404,0.706c-0.025,0.302-0.251,0.302-0.454,0.29c-0.403-0.025-1.789,0.529-1.84,0.756
	c-0.075,0.328-0.289,0.479-0.541,0.63c-0.302,0.227-0.239,0.113-0.454,0.428c-0.088,0.113-0.541,0.718-0.693,0.832
	c-0.164,0.138-0.34,0.29-0.491,0.428c-1.814,1.865-3.881,3.377-6.174,4.587c-0.302,0.164-0.328,0.328-0.177,0.604
	c0.542,0.996,1.071,2.004,1.6,3.024c0.138,0.265,0.302,0.315,0.555,0.151c0.655-0.428,1.336-0.806,1.966-1.247
	c2.86-1.978,5.242-4.41,7.346-7.144c0.454-0.58,0.466-0.58,0.957-0.025c2.293,2.621,4.473,5.343,6.426,8.24
	c0.252,0.366,0.391,0.34,0.642,0.038c0.844-0.971,1.689-1.915,2.546-2.848C376.085,168.664,376.098,168.513,375.909,168.274
	 M355.522,150.192c0.429-0.012,0.857-0.012,1.31-0.012c3.428,0,6.88,0,10.32,0.012c0.541,0,0.555,0.013,0.391,0.517
	c-0.24,0.794-0.201,0.781-0.479,1.575c-0.075,0.277-0.063,0.592,0.239,0.794c0.102,0.063,0.126,0.403,0.114,0.542
	c-0.051,0.504,0.138,0.201-0.012,0.718c-0.013,0.038-0.038,0.756-0.013,0.794c0.239,0.491,0.164,0.681-0.365,0.844
	c-0.152,0.038,0.063,0.529,0.215,0.567c1.045,0.403,2.356-1.764,2.558-1.298c0.113,0,0.151-0.101,0.188-0.176
	c0.227-0.479,0.189-0.441,0.428-0.932c0.781-1.752,0.542-1.247,1.046-3.087c0.088-0.315,0.618-1.374,0.328-1.651
	c-0.277-0.265-1.109,0.454-1.449,0.315c-0.491-0.176-0.92-0.529-1.424-0.68c0.05-0.794-0.769-2.319-2.571-2.457
	c-0.491-0.025,0.063-0.895-0.378-0.832c-1.172,0.164-1.713,0.34-3.087,0.34h-7.371c-0.302,0-0.416,0.138-0.416,0.441
	c0.013,1.071,0.013,2.142,0,3.225C355.093,150.054,355.219,150.192,355.522,150.192 M368.84,146.249
	c-0.038,0.592,1.462,0.516,1.16,1.361c-0.013,0.491,1.512,0.252,1.865,0.516v0.038c0.025,0.101,0.188,0.151,0.327,0.151
	c0.152,0,0.227-0.34,0.252-0.454c0.655-0.718,1.222-1.436,0.441-2.205c0-0.176-0.013-0.479-0.215-0.466
	c-1.487,0.088-1.764,0.164-3.087,0.076c-0.126-0.013-0.756-0.088-0.768,0.076c-0.013,0.164-0.151,0.579-0.051,0.706
	C368.84,146.123,368.853,146.148,368.84,146.249 M455.051,154.376c-0.945-0.542-1.878-1.084-2.798-1.638
	c-0.239-0.151-0.365-0.138-0.441,0.164c-0.302,1.285-0.63,2.558-1.071,3.793c-0.214,0.706-0.101,0.328-0.365,1.272
	c-0.189,0.554-0.478,0.794-0.592,1.121c-0.277,0.655-1.222,2.722-1.21,3.075c0.025,0.265-0.466,0.592-0.441,0.781
	c0.012,0.265,0.894,0,0.995,0.315c0.063,0.164,0.189,0.365,0.466,0.34c0.076-0.012,0.177,0.051,0.164,0.113
	c-0.088,0.466,0.391,0.781,0.303,1.247c-0.038,0.176-0.038,0.378,0.202,0.454c0.214,0.063,0.29-0.113,0.378-0.24
	c0.605-0.756,1.121-1.55,1.613-2.369c0.328-0.567,1.374-2.545,1.575-3.402c0.025-0.063,0.038-0.126,0.063-0.176
	c0.038-0.05,0.063-0.126,0.088-0.201c0.504-1.399,0.945-2.797,1.298-4.209C455.354,154.552,455.202,154.451,455.051,154.376
	 M447.453,164.192c-1.021-0.781-0.92-0.252-1.26-0.529c-0.718-0.428-1.563,0.504-1.903,1.638c-0.479,0.252-0.957,0.517-1.474,0.681
	c-0.341,0.101-0.466,0.34-0.58,0.655c-0.189,0.516-0.239,1.184-1.008,1.222c-0.088,0-0.125,0.076-0.151,0.151
	c-0.126,0.618-0.315,0.088-0.378,0c-0.34-0.479-0.693-0.92-1.374-0.894c-0.075,0-0.201,0.05-0.265-0.113
	c0.328-0.126,0.265-0.428,0.265-0.681c0-4.019-0.012-13.092-0.012-13.407c0.012-0.769,0.063-1.55-0.025-2.318h0.013
	c-0.126-2.092,0.265-1.676,0.038-2.797c-0.063-0.403-0.063-0.706-0.038-1.071c0.012-0.151,0.012-0.277-0.013-0.416
	c0.025-0.063,0.038-0.151,0.038-0.265s0-0.24,0-0.353c0.063-0.441-0.125-0.579-0.554-0.567c-0.933,0.012-1.865,0.025-2.785,0
	c-0.454-0.013-0.592,0.138-0.592,0.592c0.025,3.225,0.012,6.439,0.012,9.664v2.281v5.846c0,2.583,0.012,5.179,0,7.762
	c-0.012,0.391,0.075,0.529,0.491,0.504c0.894-0.05,1.79-0.151,2.671-0.29c2.533-0.391,4.977-1.033,7.271-2.218
	c0.491-0.252,0.643-0.542,0.466-1.058c-0.176-0.554-0.012-1.134-0.214-1.688c0.101-0.05,0.214-0.126,0.352-0.189
	C447.831,165.577,448.411,164.935,447.453,164.192 M286.674,153.657c-1.436,0-2.872-0.012-4.321,0.013
	c-0.404,0-2.798-0.013-2.911-0.013h-7.371c-0.315,0-1.6-0.088-1.285,0.139c0.328,0.24-0.252,0.693-0.239,0.882
	c0.012,0.29-0.038,1.31-1.121,1.033c-0.756-0.202-1.034,0.668-1.525,0.957c-0.151,0.088-0.441,0.454-0.252,0.706
	c0.215,0.265,0.504,0.277,0.807,0.277c2.079-0.013,4.158,0.013,6.237-0.013c0.428,0,0.542,0.151,0.529,0.542
	c0,1.008-0.038,2.016-0.202,3.012c-0.428,2.659-1.65,4.75-4.145,5.985c-1.172,0.592-2.445,0.932-3.755,1.184
	c-0.302,0.063-0.365,0.176-0.251,0.453c0.441,1.071,0.857,2.142,1.285,3.213c0.101,0.303,0.277,0.378,0.567,0.29
	c0.403-0.113,0.794-0.189,1.184-0.303c3.201-0.932,5.796-2.671,7.421-5.67c0.631-1.147,1.034-2.369,1.324-3.616
	c0.063-0.39,0.315-1.764,0.365-2.507c0.038-0.693,0.088-1.386,0.075-2.079c0-0.391,0.126-0.504,0.529-0.504
	c1.727,0.013,3.465,0,5.204,0.013c0.655,0,1.55-0.227,1.688-0.063c0.088,0.113,0.278,0.076,0.416,0.025
	c0.176-0.05,0.152-0.227,0.152-0.378c0.012-1.046,0-2.092,0.012-3.15C287.09,153.809,287.002,153.657,286.674,153.657
	 M268.152,149.714c0.012,0,0.025,0,0.038-0.013v0.013h6.363c2.356,0,4.687,0,7.044,0c0.365,0,0.491-0.138,0.478-0.504
	c-0.012-0.995-0.025-1.978,0.013-2.961c0.012-0.466-0.177-0.592-0.605-0.592c-2.193,0.025-4.372,0.013-6.552,0.013h-6.652
	c-0.278,0-0.542,0-0.542,0.403c0.013,1.084,0.013,2.155,0,3.238C267.736,149.613,267.874,149.739,268.152,149.714 M283.764,149.6
	c0,0.34,0.125,0.504,0.478,0.491c0.441-0.025,0.894,0.013,1.336-0.013c0.378-0.025,0.681-0.138,0.642-0.617
	c-0.012-0.151,0-0.29,0.189-0.366c0.138-0.063,0.138-0.214,0.138-0.353v-2.646c0-0.214-0.012-0.378-0.328-0.227
	c-0.453,0.214-0.932,0.101-1.386-0.038c-0.088-0.038-0.251-0.063-0.239-0.24c0.025-0.138,0.152-0.126,0.227-0.176
	c0.239-0.164,0.466-0.302,0.642-0.579c0.189-0.315,0.353-0.706,0.718-0.907c0.088-0.063,0.252-0.164,0.164-0.34
	c-0.063-0.139-0.202-0.101-0.315-0.101c-0.58-0.013-1.16,0.012-1.752-0.013c-0.391-0.025-0.529,0.126-0.516,0.504
	c0.012,0.945,0,1.865,0,2.797S283.776,148.668,283.764,149.6 M290.656,143.477c-0.467,0.013-0.933-0.013-1.399,0.013
	c-0.542,0.012-1.008,0.441-1.008,0.932c-0.012,1.222-0.012,2.469,0,3.717c0,0.139-0.025,0.315,0.126,0.403
	c0.302,0.202,0.29,0.365-0.012,0.554c-0.151,0.101-0.076,0.24-0.051,0.366c0.038,0.164,0.152,0.189,0.278,0.189
	c0.101,0,0.579,0.139,0.579,0c0.025-0.453,0.441-0.617,0.668-0.894c0.164-0.164-0.063-0.983-0.164-0.731
	c-0.328,0.517-0.479-0.038-0.718-0.038c-0.189,0-0.328-0.063-0.302-0.29c0.025-0.239,0.226-0.176,0.39-0.189
	c0.441-0.05,0.921,0.126,1.298-0.252c0.075-0.075,0.227-0.038,0.29,0.063c0.075,0.126,0.138,0.201,0.277,0.139
	c0.126-0.076,0.126-0.214,0.126-0.328v-3.264C291.034,143.603,290.921,143.477,290.656,143.477 M268.19,154.3
	c-0.126-0.29-0.87-0.403-0.945-0.731c-0.038-0.189-0.176-0.29-0.34-0.328c-0.517-0.101-1.663-0.075-2.104,0.164
	c-0.341,0.176-0.063,0.567-0.063,0.869c0,0.164-0.227,0.567-0.201,0.718c0.05,0.353,0.39,0.441,0.415,0.781
	c0.025,0.239,0.756,0.403,1.008,0.504c0.353,0.151,0.831,0.176,0.882-0.189C266.992,154.968,268.58,155.069,268.19,154.3
	 M313.425,151.402c-0.769-0.542-1.525-1.109-2.269-1.688c-0.352-0.277-0.529-0.252-0.806,0.126
	c-1.739,2.533-3.793,4.788-6.124,6.779c-2.709,2.281-5.67,4.108-8.984,5.355c-0.34,0.139-0.441,0.277-0.289,0.63
	c0.428,0.945,0.819,1.89,1.197,2.86c0.126,0.328,0.29,0.365,0.618,0.24c0.869-0.34,1.663-0.869,2.52-1.273
	c0.831-0.378,1.575-0.907,2.381-1.348c0.315-0.189,0.996-0.681,1.197-0.794c0.378-0.252,0.705-0.491,1.033-0.706
	c0.101-0.076,0.177-0.189,0.265-0.303c0.278-0.365,0.126,1.562,0.126,2.003c0,0.907,1.676,1.033,1.689,0.139
	c-0.051-0.227-0.088-0.441-0.114-0.618c0.202,0,0.517-0.138,0.995-0.454c0.454-0.126,0.504-0.731,0.391-1.298
	c0.177-0.075,0.303-0.176,0.328-0.403c0.088-0.567,0.088-1.134,0.076-1.701c-0.013-0.302,0.101-0.529,0.34-0.743
	c2.029-1.878,3.894-3.919,5.544-6.162C313.752,151.755,313.727,151.604,313.425,151.402 M308.195,164.267
	c0-0.239-0.101-0.466-0.441-0.403c-0.404,0.063-0.643,0.39-0.857,0.643c-0.152,0.201-0.24,0.491-0.051,0.617
	c0.34,0.24-0.315,1.625-0.957,1.588c-0.34,0.201-1.058-0.92-1.336-1.021c-0.378-0.126-0.428,0.668-0.428,1.084
	c-0.012,0.832,0.013,3.805-0.012,4.637c0,0.365,0.126,0.479,0.466,0.479c0.869-0.025,1.713-0.025,2.558,0
	c0.416,0.013,0.529-0.139,0.529-0.529c-0.025-1.172-0.012-2.356-0.012-3.541v-0.491
	C307.528,165.628,308.372,165.716,308.195,164.267 M630.434,64.334c0.075-0.983-0.794-1.109,0-2.356
	c0.125-0.164,0.34-0.303,0.592-0.126c0.453,0.365,0.466,0.63,0.604,0.97c0.466,1.21,1.159,1.285,2.281,0.756
	c0.491-0.252,1.726-0.277,1.877,0.113c0.088,0.479-1.046,1.235-1.437,2.193c-0.138,0.353-0.618-0.315-0.932-0.088
	C631.593,67.069,630.648,66.628,630.434,64.334 M668.032,99.867c0.907-0.857-1.045-1.6-1.777-2.104
	c-0.466-0.328-1.449-0.152-1.638-0.857c-0.365-1.386-1.121-0.504-1.688,0.126c-0.328,0.353-0.87,0.529-1.058,0.819
	c-0.227,0.328-0.101,1.651,0.328,1.991c0.907,0.706,3.591-1.55,3.338,1.361C665.273,104.189,665.778,101.102,668.032,99.867
	 M677.47,127.285c-0.668-0.151-1.31,0.554-1.084,0.92c1.865,0.832,0.58,3.705,1.764,3.049c0.743-1.487,2.154-1.285,2.154-1.815
	C680.33,127.487,679.26,127.676,677.47,127.285 M716.834,63.049c-1.487,3.137,0.378,0.453,1.701-0.681
	c0.642-0.643,0.894-3.717-0.202-3.301c-0.882,0.151-1.272,0.466-1.487,0.643C714.59,61.525,717.754,61.374,716.834,63.049
	 M651.577,46.253c0.227-0.063,0.705-0.756,0.731-0.945c0.038-0.277-0.075-0.768-0.277-0.857c-0.844,0.252-3.289-2.936-3.163-1.335
	C650.115,43.985,648.956,46.896,651.577,46.253 M708.669,114.484c0.693,0.769-0.189,0.34-0.378,0.655c0,0-1.222,0.643-1.966-0.265
	c-0.756-0.895-0.567,0.176-0.617,0.453c-0.151,1.147-0.491,2.243-0.605,3.352c-0.252,2.696-1.613,1.348-2.558,0.265
	c-0.756-1.033,0.706-2.079-2.545-2.23c-0.252,0-0.479,0.138-0.554,0.378c-0.428,1.31,0.176,2.003-2.696,1.424
	c-0.882-0.391-1.21,0.806-1.349,1.36c-0.352,1.285-0.932,1.764-2.293,1.966c-2.306,0.315-4.561,1.096-6.892,1.462
	c-0.694,0.113-1.474-0.743-2.281-0.781c-1.84-0.088-2.457-1.953-3.692-1.487c-0.467,0.176-0.958,1.336-0.769,1.701
	c0.365,0.718,1.197,1.625,1.877,1.663c2.344,0.139,3.881-0.718,7.081-0.113c0.491,0.277,1.058-0.063,1.424,0.176
	c0.529,1.109,1.411,0.353,0.869,1.21c-0.391,0.214-0.731,0.932-1.147,0.983c-1.134,0.201-1.613-1.487-3.452,0.05
	c-3.793,0.693-4.058,1.55-7.271-2.974c-0.188-0.315-1.726-0.126-1.953-0.063c-2.054,0.579-4.259,0.97-6.061,2.016
	c-1.197,0.693-1.814,0.806-2.608-0.164c-1.084-1.411-2.054-1.613-3.667-0.441c-1.134,0.844-2.066,1.903-4.36,1.184
	c-0.365,0.05-1.071-0.857-1.184-1.424c-0.075-0.353,0.604-1.033,1.046-1.298c2.935-1.752,7.384-1.437,6.099-1.915
	c-15.234-1.625-25.453-8.908-30.077-23.411c-0.504-0.554-0.378,1.676-0.542,2.608c-0.188,1.021-1.89-0.201-1.411-1.663
	c0.139-0.529,0.857-1.562-0.176-2.369c-1.121-1.273,1.537-0.403,0.844-4.07c-0.075-2.822-1.008-5.607-1.16-8.429
	c-0.088-1.953,0.517-3.944,0.832-5.922c0.214-1.5-0.239-4.234-1.903-2.747c-0.505,0.454-1.79-0.075-1.147-1.147
	c0.441-0.328,0.844-0.794,1.336-0.894c0.642-0.164,1.348-0.038,2.558-0.038c0.831-0.567,0.529-0.681,0.315-1.399
	c-0.189-0.579-0.92-2.18-0.302-2.104c0.781,0.113,0.894-1.247,0.844-1.512c0.555-1.525,1.26-3.478,1.777-4.876
	c0.315-1.021-2.772-0.567-0.706-2.117l1.487-1.021c0.251-0.05,1.171-0.957,1.424-1.323c2.029-3.112,3.175-3.339,5.317-6.464
	c0.265-0.315,0.479-0.806,0.466-1.21c-0.05-1.222,0.302-1.739,1.6-1.335c0.315,0.101,1.008,0.012,1.058-0.126
	c0.529-1.89,2.104-1.915,3.604-2.281c0.491-0.138,0.995-1.033,1.121-1.663c0.303-1.487,0.933-1.777,2.167-0.932
	c1.714,1.134,3.894,0.101,4.284-1.878c0.101-0.605,0.831-1.587,1.197-1.55c0.631,0.063,1.223,0.743,1.752,1.247
	c0.227,0.201,0.227,0.643,0.353,1.096c1.537-0.214,3.024-0.428,4.536-0.63c-0.87-2.847-0.87-2.847,1.966-3.478
	c1.033-0.214,2.053-1.474,3.314,0.202c-0.693,0.416-1.424,0.68-1.89,1.172c-0.315,0.328-0.265,0.983-0.391,1.499
	c0.504,0.013,1.21,0.252,1.449,0.013c1.197-1.109,2.092-1.008,3.188,0.164c1.235,1.298,6.955,1.5,8.48,0.491
	c0.391-0.252,0.983-0.643,1.297-0.504c1.815,0.756,3.049,1.399,4.94,2.293l1.84,0.252c1.411-0.101,0.807,0.39,0.768,0.857
	l-0.075,0.769c-0.063,0.756,0.164,1.525,0.643,2.129c2.482,3.15,5.254,6.174,7.169,9.639c2.104,3.843,3.201,8.24,4.801,12.524
	c2.268-1.499,4.347-3.238,4.359-6.527c0.013-0.643,0.366-1.336,0.718-1.878c0.769-1.222,0.605-1.94-0.768-2.608
	c-2.218-1.058-2.495-2.318-1.323-4.574c1.826-1.512,3.578-0.088,4.007,2.382c0.265,1.537,0.478,2.507,0.907,3.755
	c0.731,2.105-0.038,3.906-0.781,4.524c-0.87,1.323,3.881,0.139,4.674-0.24c1.071-0.504-0.101,0.832,0.138,1.928
	c-0.025,0.743-0.768,1.159-1.222,1.84c-0.365,0.554-1.147,0.895-1.374,1.474c-0.315,0.882-0.378,1.94,1.096,1.827
	c1.79-0.138,2.092,0.819,1.991,2.331c-0.126,1.638,0,3.302-0.138,4.952c-0.051,0.554-0.215,1.512-0.831,1.625
	c-0.655-0.088-0.568-1.335-0.971-1.688c-0.882-0.806-0.756-3.314-1.978-4.624c-0.126-0.303-0.807-0.63-1.147-0.542
	c-1.386,0.327-2.747,3.427-2.193,5.078c0.504-0.088,1.121-0.378,1.537-0.201c0.97,0.428,2.558,1.058,2.583,1.663
	c0.062,1.323-0.24,2.709-2.356,3.024c-2.104,0.29-4.511,0.63-5.418,3.213l-0.025,0.038c-1.739,0.567-3.705,0.579-4.75,2.545
	c-0.063,0.126-1.159,0.05-1.285-0.189c-0.794-1.537-1.6-0.869-2.369-0.088c-1.399,1.474-1.84,1.436-2.646-0.428
	c-0.454-1.084-0.58-4.209-1.386-3.906c-2.029-0.277-4.738-0.366-7.208,1.512c-1.625,1.235-3.024,0.844-4.259-0.857
	c-0.315-0.441-1.058-0.593-1.802-0.983c0.139,2.054-0.214,2.986-2.293,2.507c-1.424-0.327-2.936-0.101-3.68-1.777
	c-0.125-0.265-0.705-0.428-1.071-0.441c-2.306-0.025-4.612-0.101-6.905,0.038c-1.587,0.101-4.057,1.411-3.2,4.196
	c0.391,1.285,0.012,1.411-0.177,1.575c-2.18,2.105-3.843,6.502-3.553,8.694c0.051,0.34,0.378,0.58,0.731,0.504l1.815-0.328
	c1.147-0.277-0.063,0.718,0.302,2.999c0.428,0.706-0.681,0.731-0.831,1.26c-0.781,2.873-0.227,3.994,2.608,4.813
	c4.738,1.399,9.375,1.449,13.835-0.315c0-0.454,3.729-2.861,0.882-2.407c-1.739-0.554-1.084-2.835,0.453-3.137
	c1.16-0.088,0.441,1.789,1.79,1.638c1.058,0.05,1.273,0.869,0.844,1.726c0.555-0.428,1.109-0.907,1.751-1.399
	c-1.524-0.869-1.966-1.991-0.718-3.037c0.391-0.315,1.462,0.201,2.759,0.441c0.555-1.449,1.374-3.389,2.029-5.393
	c0.517-1.55-0.454-3.087-2.016-3.528c-0.794-0.227-1.449-0.869-2.155-1.336c0.555-0.416,0.894,0.265,1.399-0.201
	c0.302-0.29,0.34-0.403,0.403-0.794c0.34-2.117,3.553-3.73,5.216-2.419c0.416,0.328,1.008,0.252,0.744,0.907
	c-0.278,0.731-0.895,1.109-0.404,2.155c0.252,0.491-0.655,1.55-1.171,2.596c2.016-0.328,4.195,1.033,6.023-1.109
	c0.265-0.302,1.6-0.226,1.89,0.139c1.487,1.764,3.377,0.731,5.065,0.996c0.138,0.012,0.315,0,0.403-0.076
	c0.605-0.517,0.819-2.104,2.066-0.869c1.79,1.752,2.394,4.612,1.273,5.909c-2.52,2.873-2.885,6.086-1.764,9.564
	c-0.378,1.449,0.655,0.819,0.971,1.235C707.043,112.278,707.283,110.451,708.669,114.484 M658.23,62.709
	c0.768,0.668,1.663,1.159,2.13,1.928c0.907,1.525,1.587,3.175,2.331,4.8c0.705,1.55,2.986,2.772,4.662,2.583
	c1.21-0.126,2.709-0.378,2.86,1.487c0.164,2.066,1.449,2.306,3.075,2.117c1.663-0.201,3.326-0.453,4.977-0.731
	c0.302-0.05,0.58-0.315,0.819-0.542c1.676-1.537,2.457-1.411,3.705,0.542c0.201,0.328,0.668,0.693,1.008,0.706
	c1.6,0.038,3.239-0.391,4.814-0.101c0.642,0.126,1.487,0.012,0.491-0.618c-0.579-0.252-2.772-0.491-1.877-0.957
	c4.234-2.004,0.542-3.377,0.92-5.519c-0.164-1.184-0.882-2.016-2.306-1.903c-1.537,0.113-1.802-0.794-1.802-2.142
	c0-1.008-0.277-2.041-0.618-2.999c-0.265-0.693-1.285-1.399-1.159-1.878c0.592-2.205-1.247-2.142-2.343-2.583
	c-1.197-0.491-2.785-0.29-3.768-1.008c-2.798-2.054-5.796-1.651-8.833-1.147C661.519,55.716,658.721,58.249,658.23,62.709
	 M657.512,91.45c0.012-0.139,0.214-0.24-0.051-0.454c0,0-2.293-0.769-2.935-0.353c-0.655,0.416-0.832,0.592-0.391,0.592
	c0.441-0.013,1.865,3.011,2.167,3.2c0.302,0.176,0.541-0.201,1.247,0.239C658.255,95.117,657.373,92.597,657.512,91.45
	 M660.17,91.274c0.202-0.353,0.668-0.328,0.705-0.655c0.076-0.731-0.529-1.033-0.995-1.676c0-0.013,0,0-0.012-0.013
	c0.113-0.554,0.328-1.172,0.768-1.688c0.227-1.373-1.966,1.525-2.772,1.802c-0.202,0.088-0.391,0.328-0.278,0.403
	c0.189,0.138,0.756,0.063,0.945,0.277c0.29,0.34,0.504,0.542,0.668,0.655C659.44,90.694,659.906,90.984,660.17,91.274
	 M699.685,110.224c-0.403,3.075,0.151,4.095-3.931,4.423c1.298,0.68,2.596,1.361,3.428,0.945c0.138-0.063,0.239-0.088,0.34-0.226
	c0.604-0.781,0.252-3.125,0.718-5.065C700.466,109.822,699.798,110.224,699.685,110.224 M654.488,122.258
	c-2.003-1.978-1.739-0.315-2.609-0.454c-0.768,0.34-1.726-1.084-2.671-0.63c-0.138,0.063-0.202,0.932,0.151,1.033
	c2.104,0.579,0.303,1.84,0.693,1.802c0.857-0.101,3.226,0.529,4.297,0.479c0.618,0.012,1.197-1.172,0.718-1.613
	C654.652,122.661,654.752,122.497,654.488,122.258 M698.79,39.588c0,0,0.529-0.063,0.731-0.895c0.152-0.68,1.034,1.071,1.613,0.618
	c0.971-0.769-1.978,8.354,0.177,8.883c1.134-8.14,3.465-0.315,5.959-2.381c1.298-0.945-2.243-6.678-2.684-6.867
	c-1.071-0.454-0.125-3.616-2.986-1.411c-0.012,0,0.328-1.147-0.768-1.21c-1.298-0.34-2.86-1.046-3.377-0.214
	c-0.428,0.693,0.529,1.789-0.63,1.953C693.574,38.517,698.79,39.588,698.79,39.588 M717.942,89.195
	c0.24-0.68-0.844-0.743-1.31-0.806c-2.092-0.328-3.365-1.033-5.356,0.277l-0.365,0.945c-0.618,0.794-0.415,1.26,0,1.827
	c1.411,1.915,2.609,3.39,1.89,5.897c-0.114,0.39,0.126,1.26,0.214,1.26c1.084,0.013,2.193,0.025,3.238-0.252
	c0.403-0.088,0.995-1.021,0.869-1.335c-0.239-0.693-0.794-1.386-1.411-1.802c-1.108-0.744-1.94-1.6-2.255-2.861
	c-0.076-0.403,0.088-0.819,0.454-1.008c1.045-0.529,2.016-1.361,3.024-1.059C717.867,90.543,716.531,89.9,717.942,89.195
	 M717.401,94.437c-0.278,0,0.681,0.516,0.34,0.932c-0.352,0.441,1.525,4.095,1.966,3.175
	C720.513,97.221,719.631,94.21,717.401,94.437 M523.521,52.629c0.252,2.432,1.764,3.654,4.385,2.003
	c0.681-0.441,2.016,2.104,2.671,0.844c-0.882-0.643-0.944-2.281-1.297-2.331c-1.727-0.252-2.041-1.94-2.822-3.1
	c-0.681-0.983-1.94-3.717-2.571-2.86C520.686,50.021,523.13,48.874,523.521,52.629 M506.826,121.401
	c0.63-0.844,1.864,1.878,2.557,2.873c0.794,1.159,1.109,2.835,2.822,3.087c0.366,0.05,0.429,1.688,1.298,2.331
	c-0.655,1.26-1.865-0.97-2.684-0.844c-2.13,0.353-8.606,0.794-6.476-0.391C509.295,125.685,505.591,124.727,506.826,121.401
	 M467.778,112.039c-1.31-0.303-0.252-0.756-0.24-0.769c0.971-0.97-0.063-4.007,1.739-3.39c0.378,0.227,1.411-0.428,1.046,0.668
	C470.07,110.3,469.39,112.682,467.778,112.039 M511.286,70.962c-0.226-0.579,3.428-2.772,2.508-4.309
	c-0.454-0.743,1.625,0.794,1.65,0.983c0.114,0.706,0.744,3.1-0.34,2.898c-1.247-0.227-2.797,1.046-3.239,0.718
	C511.399,71.491,511.739,70.962,511.286,70.962 M465.572,100.472c0.857,1.764,0.857,2.495,0.971,3.742
	c0.202,0.794,0.113,4.524-1.437,2.432c-0.239-1.499-1.789-0.428-1.713-2.193c2.52-4.296-1.058-3.692,0.794-4.612
	C464.425,99.83,465.144,99.842,465.572,100.472 M520.157,56.85c0.831,1.046-3.302,0.743-5.23,3.226
	c-1.323,0.479-2.709,0.567-3.565,1.789c0.265-0.252,0.491-0.504,1.55,0.542c0.227,0.176,0.138,0.315,0.441,0.466
	c0.391,0.353-0.062,1.273-0.529,1.26c-0.844,0.05-2.671-0.454-3.352-0.365c-0.315,0.038,1.109-0.958-0.529-1.399
	c-0.176-0.05-0.214-0.328-0.201-0.542c-0.227-0.328-0.441-0.718-0.957-0.668c-0.844-0.504-1.663,2.596-2.52,2.583
	c-1.21,1.449-1.034,0.869-0.794-0.201c0.806-3.553-3.415-3.679-5.532,1.071c-0.806,2.243-2.369,2.218-2.621,1.361
	c-0.164-1.046-0.554-0.996-0.768-0.491c-2.117,1.449,0.781,1.663,0.012,3.39c0.215,1.802-0.63,2.444-2.28,2.369
	c-3.415-0.164-3.755-0.176-3.969,2.91c-0.517,7.711-0.681,15.435-0.996,23.071c3.012,1.298,3.793-1.714,5.683-2.066l0.063,0.063
	c0.062,0.693-0.038,1.449,0.226,2.054c0.278,0.693,0.744,1.525,1.361,1.814c1.978,0.932,3.162,4.814,1.827,6.603
	c-0.215,0.277-0.832,0.567-0.996,0.453c-0.365-0.226-0.693-0.693-0.768-1.109c-0.315-1.688-0.908-3.1-2.836-3.427
	c-0.062-0.013-0.025,0.063-0.025,0.063c0.164,2.608,0.365,5.053,0.516,7.56c0.038,0.617-0.075,1.272,0.038,1.877
	c0.075,0.378,0.466,0.706,0.705,1.046c0.239,0.252,0.894-0.491,1.159-0.857c1.122-0.945,1.059-3.427,1.663-3.011
	c1.437,2.041,0.668,3.251-0.239,4.561c-0.567,0.806-1.097,1.789-1.197,2.747c-0.365,3.402-2.847,4.889-6.111,3.289
	c-1.021,0.088-0.731,1.449-1.991,2.142c0.971,1.487,2.206,1.915,3.856,1.159c0.604-0.277,1.348-0.34,2.016-0.328
	c0.303,0.013,0.769,0.403,0.87,0.718c0.239,0.743-2.696,3.44-3.428,3.163c-1.272-0.441-2.469-1.084-3.742-1.462
	c-0.831-0.252-1.751-0.252-2.633-0.24c-1.033,0.013-2.092,0.34-3.087,0.201c-0.466-0.075-1.285-1.071-1.184-1.335
	c0.63-1.562-0.554-2.029-1.449-2.193c-2.293-0.453-4.637-0.63-7.397-0.97V94.865c-2.053,0.101-0.555-1.361-1.26-2.016
	c-0.517-1.928-1.021-3.415-1.247-4.927c-0.088-0.529,0.202-2.344,0.705-1.752c1.45-0.68-0.164,1.285,1.361,1.525
	c0.176,0.038,0.151,0.353,0.517,1.121V60.114c-1.575,1.197-2.029,0.706-2.785-0.731c-3.327-4.939,0.441-7.308,0.038-8.581
	c-0.012-0.97,0.075-1.323,1.563-1.121c-0.391,1.525,0.705,1.525,0.504,2.091c-0.781,2.218-0.857,2.18,0.302,3.591
	c0-2.747-0.176-5.355,0.075-7.926c0.151-1.411,0.139-2.722,0.983-3.856c0.781-1.046,1.701,0.403,2.495,0.693
	c0.655,0.252,1.815,1.122,2.533,1.096c0.516-0.025,1.021-0.113,1.55-0.164c0.454-0.05,1.461-0.39,1.323-0.668
	c-0.265-0.592-1.437-0.113-1.613-0.554c-0.328-0.857,1.222-0.806,0.971-1.852c-0.341-0.794,0.97,0.151,2.053,0
	c0.378-0.05,1.172-0.214,1.424,0.24c0.289,0.516-0.102,1.146,0.151,1.197c0.92,0.202,1.903,0.101,2.873,0.063
	c0.529-0.012,1.058-0.075,1.587-0.138c0.441-0.05,0.844,0.277,0.87,0.718c0.038,0.844,0.894,1.512,0.113,2.507
	c-0.604,0.794-0.138,1.26-0.201,1.89c0.189,0.491,0.58-0.252,0.92,0.088c0.693,0.113,0.416-2.218,0.441-3.339
	c0.038-1.159,0.328-1.79,1.613-1.953c0.743-0.101,1.449-0.403,2.306-0.731c0.265-0.101,0.541,0.164,0.441,0.441
	c-1.374,3.238-4.246,5.746-3.604,9.249c0.101,0.643,0.945,0.794,1.26,0.239c1.386-2.344,4.271,0.857,6.199-3.011
	c1.474-2.936,3.893-3.415,5.746-4.272c1.033-0.516,1.348-1.449,1.676-2.293c-1.928-2.205-5.292,0.807-5.003-2.457
	c0.076-0.857,0.744-1.865,1.764-2.003c3.591-0.441,2.772,1.903,3.73,2.457c0.239,0.113,0.378,0.806,0.378,1.437
	c0.025,0.038,0.038,0.063,0.063,0.101l1.462,2.003c0.592,0.794,1.273-0.365,1.537-0.731c0.227-0.353,0.491-0.781,0.642-1.247
	c0.404-1.298,0.857-1.991,2.268-1.084c0.215,0.126,0.718-0.265,1.097-0.34c0.441-0.076,1.021-0.227,1.31-0.025
	c0.315,0.227,0.592,0.882,0.491,1.222c-0.101,0.302-0.718,0.554-1.147,0.655c-0.857,0.164-1.84,0.05-1.5,1.94
	c0.983-1.298,1.184-0.265,1.663-0.605c1.134-0.832,2.13-1.713,3.641-0.655c0.126,0.088,1.033-0.68,1.36-1.197
	c0.227-0.34,0.051-0.92,0.051-1.487c1.159,0.995,1.877,2.129,1.625,4.498c-0.038,0.378-0.529,1.399-1.272,1.348l-3.226-0.454
	c-0.995,0.025,1.222,1.184,1.727,1.6c0.491,0.441,1.008,0.882,1.55,1.247c1.689,1.121,1.701,2.167,0.34,3.654
	c-0.453,0.479-0.478,1.562-0.352,2.318C519.413,55.905,519.967,56.522,520.157,56.85 M479.433,125.383
	c-0.315,0.353-0.87,0.517-1.437,0.819c-1.184,0.151-2.382-0.567-3.566-1.739c-0.214-0.214-0.403-1.222-0.227-1.55
	c0.177-0.34,0.908-0.945,1.197-0.882c1.55,0.302,2.167,2.847,3.818,2.268C479.457,124.211,479.583,125.194,479.433,125.383
	 M483.805,39.285c0.328-0.68,0.932-1.663,1.789-1.436c3.037,0.769,0.341,0.819,1.134,2.533c0.353,0.731-0.882,2.545-1.197,1.298
	C484.838,38.97,482.507,41.893,483.805,39.285 M498.585,123.732c-0.428-0.265,0.101-0.945,0.428-1.323
	c0.718-0.857,2.143-1.777,2.306-1.336c-1.059,0.844,1.121,1.046,0.529,1.752c-0.693,0.844-1.877,3.427-2.469,2.558
	C499.19,124.992,499.63,124.438,498.585,123.732 M518.216,29.293c-0.529-2.898,4.321,2.23,4.51-2.709
	c0.013-0.353-0.113-2.381,1.134-2.444c1.625-0.101,2.381-2.003,2.167-0.542c0.038,0.252-0.138,1.184-0.428,2.356
	c-0.353,1.399-1.6,2.482-1.575,3.843c0.038,1.437-0.303,2.066-0.844,2.256C521.631,33.149,519.022,32.166,518.216,29.293
	 M162.033,118.578c-0.731,0-0.945-0.592-2.205-0.592c0.365-1.159,0.705-2.054,0.944-2.961c0.353-1.348,2.029-2.571,0.479-4.133
	c-1.449-1.474-1.727-9.085-0.403-10.673c0.705-0.857,0.567-1.424-0.025-2.583c-0.794-1.6-0.315-3.843-0.391-5.809
	c2.759-0.945,1.449-2.91,0.693-4.196c-1.424-2.482-0.92-5.002-0.844-7.548c0.063-1.713,0.101-3.415,0.114-5.128v-1.349
	c0.428,0.454,1.273,0.441,0.756-0.403c-0.63-1.033,0.113-3.037-0.215-2.797l-0.541,0.378v-7.384c0-0.453,0.227-0.101,0.391-0.113
	c1.865-0.113-0.479,9.337,0.957,4.914c0.63-0.315,1.197-0.706,1.109-1.059c-0.441-1.726-0.051-3.603-0.466-5.027
	c-1.764-5.948,0.025-2.432-2.356-2.407c0.214-1.827-0.328-3.553,1.222-5.368c0.957-1.134,0.504-3.465,0.705-5.267
	c0.164-1.361-0.239-2.18-1.777-1.701c-0.126-0.844-0.214-1.525-0.265-1.89c-0.894-0.453-1.512-0.857-2.193-1.084
	c-0.668-0.201-1.587-0.529-2.079-0.252c-3.566,1.991-7.308,0.416-11.013,0.579c0.491-0.579,1.16-0.655,1.626-1.008
	c0.554-0.403,1.071-0.996,1.31-1.613c0.075-0.189-0.756-1.071-1.197-1.084c-1.739-0.05-2.369,2.608-4.511,2.003
	c-0.164-0.038-0.945,1.008-0.882,1.474c0.164,1.285,0.643,2.545,0.995,3.818c-0.113,1.184-0.226,2.482,0.126,3.654
	c0.404,1.411,0.744,2.583-0.604,3.755c-0.365,0.302-0.302,1.789,0.088,2.104c1.89,1.55,1.386,2.949,0.277,4.675
	c-0.479,0.743-0.479,1.928-0.391,2.885c0.278,3.44,1.273,6.93,0.92,10.294c-0.567,5.229-2.041,10.345-3.036,15.536
	c-0.126,0.63,0.289,1.374,0.466,2.066c0.251,0.214,0.403,0.605,0.655-0.088c0.188-0.882,0.478-2.671,0.756-2.483
	c1.461,1.55,1.94,4.347,0.794,5.519c-1.701,1.764-1.966,3.528-0.882,5.695c0.315,0.605,0.164,1.499,0.176,2.255
	c0.025,1.55-0.125,3.138,0.088,4.662c0.126,0.882,0.819,1.651,1.222,2.382c-0.693-0.29-1.411-0.882-1.852-0.718
	c-0.604,0.214-1.474,1.084-1.399,1.537c0.076,0.516,0.164,1.021,0.252,1.537c-3.099-0.227-3.906-1.31-4.385-2.596
	c-0.756-2.394-2.696,0.92-2.003,1.701c0.857,0.995,1.903,4.007,2.759,4.007c0.769-2.18,2.798-2.318,3.755-2.508
	c0.265,1.298,0.592,2.583,1.084,3.793c0.592,1.5,1.966,2.167,3.742,2.117c1.966-0.063,3.931-0.05,5.909-0.038
	c0.063,0.454-0.051,0.882,0.353,0.731c1.134-0.441,2.659,2.495,2.482-0.731c0.718,0,1.437,0,2.143-0.013
	c0.618-0.013,1.084,0.126,1.499,0.303c-0.592,0.428-1.084,0.857-0.894,1.172c2.633-0.806,2.609,1.865,2.911,1.411
	c0.416-0.529,1.247-1.121,1.134-1.575c0.479-0.05,2.382-0.769,2.81-1.159C162.801,120.04,163.33,119.045,162.033,118.578
	 M160.786,12.712c-1.059-0.366-2.319-0.391-2.52-1.941c-0.012-0.075-1.147-0.201-1.6,0.013c-0.655,0.328-1.197,1.89-1.802,1.525
	c-2.381-0.806,0.189-0.869-1.159-1.802c-1.147-1.323-3.452-1.235-3.528,0.151c-0.101,1.727-1.058,1.701-2.217,1.714h-3.957
	c0.126-0.176,0.58-0.277,0.353-0.517c0,0-1.713-1.877-2.406-2.066c-0.265-0.075-0.24,0.744-0.215,0.832
	c0.013,0.076-0.012,2.873-0.012,2.873c0.315,0.63-2.445-0.101-0.542,2.861c0.29,0.428,0.693,1.209,0.505,1.487
	c-1.31,1.978-0.857,4.007-0.378,6.061c0.038,0.201-0.05,0.466-0.176,0.617c-1.5,1.512-0.857,2.583,0.63,3.566
	c0.504,0.34,1.235,1.021,1.537,1.55c1.184,1.966,3.251,1.059,4.864,1.588c0.088-0.579,0.441-1.411,0.189-1.714
	c-0.529-0.592-1.399-0.92-2.18-1.399c0.706-0.756,0.844-0.063,0.957-0.05c5.217,0.517,8.064-0.529,12.726-0.138
	c0.882,0.063,1.752,0.05,1.474-1.285c-0.34-1.701-0.68-3.402-1.021-5.09c0.201-0.063,0.391-0.126,0.58-0.176
	c0.075,0.176,0.176,0.328,0.201,0.517c0.101,0.529,0.075,1.033,1.134,1.777c0.365-1.26,1.058-1.399,0.982-2.016
	c-0.857-3.553-0.164-5.985-1.373-8.064C161.655,13.266,161.201,12.863,160.786,12.712 M128.73,51.621
	c2.003-1.436,7.988,3.427,3.44-3.717C129.902,47.047,127.205,51.394,128.73,51.621 M169.681,71.504
	c-0.013-0.113-0.643-0.391-0.794-0.151c-0.983,1.386-1.437-0.277-1.512,0.025c-0.139,0.655-1.235,2.218-1.462,3.024
	c-0.164,0.441,0.542,1.184,0.995,0.945c0.252-0.239,0.353-0.138,0.592-0.265c1.979-0.957,1.903-0.68,2.243-1.285
	C169.681,73.155,169.77,72.31,169.681,71.504 M173.94,3.437c-0.114-1.021-0.668-1.298-0.58-2.419
	c0.101-1.361-2.155-1.046-2.923-0.806c-0.479,0.138,0.353,1.109-0.971,0.957c-0.428-0.038-1.436-0.013-1.789,0.176
	c-1.663,0.882-2.722,1.978-0.227,2.469c0.907,0.189,1.033,0.366,2.092,1.033c2.053,1.323-0.101,2.734-0.592,3.868
	c-0.328,0.794,0.894,0.454,2.205-0.453c1.184-0.819,1.071-1.827,2.696-2.319C174.545,5.743,174.154,4.118,173.94,3.437
	 M166.72,23.686c-0.983-0.643-0.391-1.777-0.744-2.029c-0.529-0.403-3.024,3.263-2.193,3.276c1.071,0.012,0.706,1.676,1.777,1.31
	C166.871,25.374,166.14,24.77,166.72,23.686 M132.926,126.315c0,0,1.096-0.252,0.592-1.172c-0.365-1.172-0.592-2.734-1.512-2.76
	c-0.781-0.012-1.197,1.247-1.903,0.416c-2.016-2.369-0.252,2.255-0.252,2.255s0.315,0.403,1.084,0.164
	c0.643-0.189-0.328,1.323,0.315,1.562c1.121,0.403-6.288,3.188-5.633,5.128c2.961,0.554,0.416-0.844,4.385-1.121
	c1.411,0.567,3.338-1.008,3.275-1.449C133.115,128.281,136.152,127.562,132.926,126.315 M141.192,122.22
	c-0.013-0.126-0.631-0.39-0.807-0.164c-0.971,1.399-1.424-0.265-1.487,0.025c-0.164,0.668-1.247,2.23-1.474,3.024
	c-0.164,0.454,0.541,1.184,0.995,0.958c0.252-0.252,0.341-0.126,0.605-0.277c1.978-0.945,1.89-0.681,2.217-1.273
	C141.192,123.871,141.28,123.014,141.192,122.22 M611.798,132.388c1.55-0.075,0.995-3.263,4.158-0.618
	c0.025,0.013,3.679,2.23,0.29-1.701c-1.461-1.688-2.935-1.008-4.599-1.021c-0.416-0.013-1.222,1.222-2.167,2.041
	C608.711,131.935,611.256,132.414,611.798,132.388 M622.344,123.858c1.247,0.252-0.391,3.49-2.13,3.314
	c-1.739-0.227-1.966-1.399-1.487-2.495C620.278,122.459,619.887,126.365,622.344,123.858 M560.251,125.345
	c-2.696,0.05-0.605,4.221-2.886,2.268c-1.374-1.184-0.517-2.898-3.288-2.886c-0.87-0.328,0.403-2.696,0.844-2.583
	C556.118,122.447,563.161,124.286,560.251,125.345 M611.256,100.371c-0.441-0.214-0.983-0.693-1.021-1.096
	c-0.302-2.949-0.807-5.872,0.958-8.682c1.21-1.928,0.428-4.297-1.65-5.229c-1.298-0.579-2.583-1.109-4.372-1.877
	c0.882-0.265,1.449-0.63,1.802-1.071c-0.088,0.202-0.164,0.428-0.164,0.718c0.05,1.625,0.957-0.731,1.965,0.34
	c1.487,0.769-0.365-2.709-0.668-3.314c-0.05-0.088-0.353-0.076-0.668,0.013c-0.025-0.227-0.063-0.454-0.101-0.693
	c-0.126-0.693,0.831-1.827,0.328-2.23c-1.223-1.096,0.983-1.134,0.541-2.822c0.177-1.222-2.444,2.293-2.684,1.613
	c-0.138-2.281,2.042-2.734,3.112-4.587c0.933-1.273-3.15-1.109-3.175-2.545c-0.214-0.214-0.151-0.895-0.214-1.172
	c-0.92-4.297-1.802-8.606-2.671-12.802c-0.164-0.806,0.881,0.34,1.613,0.681c0.239,0.113,0.541-0.025,0.655-0.265
	c0.995-2.004-0.315-3.516-0.958-5.229c-0.125-0.34-0.365-1.122,0.353-0.958l1.916-0.239c0.541-0.139-1.059,2.608-0.655,2.646
	c0.516,0.076,0.995-0.05,1.36-0.138c0.618-0.139,1.273-0.126,1.877-0.315c0.378-0.101,0.555-0.567,0.378-0.92
	c-0.365-0.794-0.681-1.676-1.285-2.192c-0.681-0.567-1.84-0.504-2.722-0.869c-0.756-0.303-1.437-0.794-2.117-1.21
	c-0.202-0.126-0.391-0.328-0.579-0.516c-0.038-0.139-0.126-0.277-0.29-0.429c-1.387-1.323-2.382-0.794-2.193-2.331
	c0.05-0.403-0.731-0.365-1.046-0.088l-1.084,0.945c-0.164,0.138-0.328,0.668-0.113,0.718c1.171,0.366-0.139,2.218,2.041,2.394
	c0.378,0.063,0.806,0.038,1.234-0.05c-0.265,0.781-0.164,2.293-0.592,2.394c-0.289,0.025-0.302,0.038-0.579,0.063
	c-0.819-1.487-1.815-2.344-3.453-1.399c-0.138,0.088-0.441,0.038-0.579-0.063c-1.273-0.857-2.508-1.789-3.78-2.634
	c-1.26-0.831-2.533-1.688-3.881-2.369c-0.34-0.189-1.323,0.076-1.398,0.328c-0.668,2.218-2.23,1.31-3.566,1.096
	c-1.159-0.176-2.331-0.315-3.452-0.643c-0.933-0.265-1.802-0.769-2.696-1.172l0.302-0.806c1.071-1.361,1.65-0.29,2.256,0.315
	c0.34,0.328,0.97,0.227,1.386-0.655c0.151-0.831-0.441-1.134-0.794-1.235c-3.818-0.34-3.856-2.508-6.187-1.827
	c-0.315-0.063-0.92,0.252-1.285,0.819c-0.164,0.226,0,0.92,0.189,1.222c0.415,0.63,1.297,0.265,1.461,1.663
	c0.177,0.731,0.076,1.021-0.592,0.869c-1.777-1.752-2.23-0.378-3.792-0.844c-0.769-0.227-2.23,0.391-2.319,0.743
	c-0.466,1.915-1.084,1.701-2.054,1.563c-1.398-0.189-2.18,0.378-3.263,0.579c-0.025-0.05-0.025-0.063-0.038-0.076
	c0.012,0,0.012,0-0.038-0.088c2.432-1.537-0.92-2.608-1.512-2.52c-2.143,0.315-0.252,1.424-0.731,3.062
	c-3.541,1.713-5.834,2.772-9.236,4.473c-1.235,0.516-1.348,1.965-1.588,2.432c-0.101,0.214-0.277,0.328-0.453,0.441
	c-0.731-0.29-1.79-0.491-1.966-0.479c-1.336,0.126-2.256,1.499-2.167,2.041c0.063,0.265,0.265,0.63,0.453,0.894
	c-0.025,0.303,0.303,0.517,0.114,0.857c0.063,0.643-1.235,0.995-1.147,1.789c0.012,0.126,0.655,0.403,0.819,0.164
	c0.541-0.806,0.932-0.605,1.172-0.34c-0.592,1.26-1.147,2.533-1.613,3.843c-0.743,2.167-1.411,4.712,1.613,5.96
	c0.743,0.29,2.041,0.454,2.469,0.051c1.285-1.247,2.053-0.983,2.621,0.479c0.655,1.713,1.827,2.117,3.49,1.676
	c0.605-0.164,0.794-0.895,1.386-0.869c1.109,0.088,1.764-0.227,1.79-1.437c0.025-1.701,1.613-0.806,2.419-0.252
	c2.343-0.416,2.558,0.592,0.705,1.852c-0.58,0.391-2.243,1.31-2.243,1.31c-0.201,0.227,0.151,0.504,1.071,0.945
	c0,0,0.694,0.693,2.016,0.013c0.932-0.479,0.894,0.277,1.071,0.34c0.958,0.315,1.764-0.038,2.092-0.681
	c0.466-0.894,0.454-0.781-0.265-1.625c-2.306-2.696-1.688-4.549,1.777-5.317c0.126-0.038,0.278-0.05,0.416-0.088
	c1.764-0.517,2.507-1.802,2.13-3.641c-0.101-0.454-0.088-0.92-0.138-1.575c2.734-0.567,7.22,1.235,5.997-4.561
	c3.025,0.769,5.419,0.857,8.607,2.003c0.391,0.189,0.478,0.769-0.189,0.806c-0.882,0.34-1.852-0.391-2.785-0.378
	c-0.529,0-1.625-0.101-1.563,0.643c0.252,0.504,0.063,1.701,0.895,1.915c0.529,0.252,1.222-0.529,1.852-0.391
	c0.894,0.201,1.777,0.567,2.633,0.932c0.87,0.353,1.525,2.508,2.596,0.227c0.125,0.013,0.302-1.26,0.466,0.328
	c0.454,2.722,0.781,5.128,1.171,7.862c0.328,2.23,0.467,4.461-2.028,5.456c-4.158,1.335-1.588-1.046-2.759-1.462
	c-3.994-1.323-0.53,1.638-4.776,1.625c-0.983,0.126,0.34-1.374-0.277-1.374c-1.134-0.303-0.832,1.537-3.138-0.303
	c-0.831-0.617-1.713-0.806-3.856-0.29c-0.328-0.025-0.403-0.441-1.045,0.315c0.138,0.365,0.164,0.844,0.415,1.021
	c0.441,0.328,1.021,0.466,1.537,0.681c0.769,0.265,0.681,0.617-0.126,0.617c-2.671,0.328-5.355,0.554-8.001,1.021
	c-1.676,0.29-2.722,0.681-3.767-0.932c-0.366-0.58-2.822-0.454-3.73-0.554c-0.227-0.025-1.26,0.567-0.706,1.222
	c0.378,1.991,2.18,0.265,2.798,0.794c0.063,0.063,0.491,0.239,0.088,0.365c-1.625,0.542-3.263,1.033-4.863,1.663
	c-1.234,1.021-2.986,0.996-4.019,1.462c-0.202,0.088-0.139,0.693-0.655,0.441l-1.122-0.643c-0.579-0.504-1.209-0.101-1.323,0.29
	c-0.151,0.567,0.655,1.31-0.415,2.331c-0.58,0.516-1.537,1.424-2.571,2.243c-0.378,0.302-0.617,0.151-1.084,0.302
	c-1.172,0.34-1.726-0.504-2.822,1.285c-1.147,0.593,0.252,1.525-0.794,2.041c-0.29,0.138-0.479,0.277-0.58,0.403
	c-0.894-0.328-0.932-1.512-2.053-0.453c-1.55,1.739-1.84,2.709-0.428,3.288c0.932,0.491,2.583-0.504,3.062-0.907
	c0.29-0.227,1.046-1.21,1.461-1.865c-2.456,5.872-2.948,9.135-2.381,14.73c0.113,1.184-0.189,2.407-0.138,3.616
	c0.894,2.168-1.626,0.29,0.126,5.116c-0.051,0.58,0.642,0.882,0.768,0.252c0.403-0.529,0.164-2.054,1.222-1.6
	c0.126,0.05,0.265,0.113,0.353,0.214c0.138,0.151,0.239,0.328,0.353,0.504c2.318,3.591,5.09,6.728,9.21,8.228
	c2.735,1.008,5.544,1.827,8.38,2.533c1.058,0.265,1.865,0.34,2.331,1.575c0.176,0.504,1.348,1.021,1.99,0.932
	c3.377-0.996,3.931,2.747,6.124-1.197c0.844-0.655,0.957,3.364,4.208,1.928c0.554-0.302,1.588-0.97,2.066,0.126
	c3.503,0.138,5.267,3.944,5.443,0.252c0.025-0.529,1.31-0.529,1.588-0.315c0.831,0.718,1.424,1.815,2.784,1.26
	c1.034-0.416,2.092-0.794,3.012-1.399c0.252-0.164,0.24-1.412,0.013-1.537c-0.832-1.537-3.276-0.466-3.465-1.474
	c-0.428-1.752,0.403-3.012,1.462-2.13c2.154,1.777,5.065-0.138,6.905,2.218c0.088,0.101,0.391-1.777,1.21-1.071
	c1.524,1.335,3.73-0.693,6.918-0.491c0.265,0.025,0.504,0.126,0.63,0.365c1.084,2.256,4.447,3.276,6.212,1.878
	c0.794-0.63,1.21-1.739,1.79-2.634c-0.794-0.416-1.512-1.084-2.394-1.26c-0.529-0.088,0-0.201-0.315-0.378
	c0.239-0.491,1.323-0.97,0.718-1.411c-0.995-1.436-1.84-0.479-1.537-1.449c-0.454-5.153-1.084-14.906-1.121-15.448
	c-0.038-0.542,0.088-0.618,0.706-0.429c1.033,0.315,3.074,4.322,4.611,3.553C612.327,101.896,616.22,102.79,611.256,100.371
	 M583.082,109.254c-0.541,0.441-2.608,1.588-2.104,0.504c1.777-1.462,0.971-1.21,1.638-1.714c0.466-0.353,1.626-0.706,1.6-0.516
	C584.166,107.919,583.649,108.776,583.082,109.254 M588.122,92.836c-0.302,1.688-0.681,3.352-1.008,4.977
	c-0.151,0.643-0.781,1.033-1.411,0.869l-0.579-0.152c-0.201-0.063-0.404,0.063-0.454,0.265c-0.189,0.794-0.542,1.676-0.239,2.117
	c0.655,0.945,0.68,1.713,0.39,2.419c-0.113-0.025-0.239-0.05-0.365-0.063c-0.743-0.075-2.016,0.958-3.062,1.537
	c0.744,0.882-0.604,2.029-0.58,2.886c-0.164,0.126-0.302,0.29-0.478,0.428c-0.466,0.403-0.957,0.706-1.449,0.97
	c-0.227-0.365-0.517,0.214-1.247-0.945c-1.134-0.126-1.184,1.21-1.008,1.727c-1.915,0.328-3.919-0.101-5.909-0.932
	c-2.218-0.907-2.684-0.869-3.755,1.046c-0.063,0.138-0.227,0.226-0.378,0.214c-5.003-0.58-8.72-2.974-10.534-7.85
	c-1.273-3.49-0.908-6.842,0.718-10.269c0.126-0.265,0.541-0.29,0.68-0.025c0.668,1.209,0.958,2.759,2.899,2.18
	c0.101-0.038,0.277,0.441,0.491,0.567c0.756,0.454,1.966,1.399,2.217,1.197c0.731-0.605,1.474-1.65,1.525-2.545
	c0.075-1.588,0.403-2.079,1.953-1.437c0.365,0.152,1.235-0.038,1.298-0.226c0.668-2.319,3.2-1.84,4.624-3.062
	c1.033-0.882,4.234-2.079,3.893,0.176c-0.025,0.353,0.92,0.605,1.021,0.227c0.705-2.105-2.899-3.352,0-5.708
	c0.92-0.756,0.844-0.113,2.041-0.491c-0.378,0.441,0.604,0.126,0.239,0.579c-0.328,0.454-0.668,0.895-1.197,1.638
	c-0.139,0.189-0.063,0.479,0.138,0.567c1.021,0.479,1.94,0.945,2.898,1.273c0.643,0.214,1.374,0.126,2.066,0.164
	C586.446,87.317,588.626,89.989,588.122,92.836 M528.813,96.591c-0.58,0.932,0.277,1.462,0.252,1.764
	c-0.252,0.416-1.31,0.252-0.831,1.701c-1.235,0.277-3.856-1.247-4.007-1.499c-0.164-1.487,0.554-1.348,0.618-3.238
	c0.038-1.109-0.328-2.861,1.007-1.109c0.568,0.24,1.701,0.743,1.764,1.197C528.196,95.974,528.611,96.276,528.813,96.591
	 M610.135,75.738c-0.34-0.353,0.328-0.894,0.718-1.184c0.882-0.68,2.469-1.273,2.533-0.806c-1.222,0.605,0.87,1.272,0.151,1.827
	c-0.882,0.668-2.583,2.936-2.974,1.953C610.475,77.111,611.004,76.657,610.135,75.738 M613.171,35.732
	c0.177,0.806,0.454,1.172,0.102,1.625c-0.467,0.542-0.895,0.894-1.424,1.084c-0.844,0.302-5.519,1.752-5.683,0.504
	c4.461-0.882,3.855-2.835,3.302-3.1c-1.387-0.605,1.864-1.588,3.049-1.915c0.529-0.151,1.424,0.479,1.398,0.869
	C613.865,35.367,613.07,35.253,613.171,35.732 M628.632,42.398c0.894,0.932-2.684,1.852-4.032,2.457
	c-1.575,0.718-3.679,0.743-4.372,2.747c-0.151,0.416-2.143,0.151-3.112,1.059c-1.387-1.033,1.99-2.105,1.613-3.012
	c-1.437-3.465,0.932-6.552,3.377-4.813C626.402,43.884,625.608,40.293,628.632,42.398 M376.312,115.895
	c-0.807,0.075-1.625-1.26-1.966-0.832c-0.353,0.441,0.781,3.163,1.978,3.163C377.408,118.226,378.882,116.134,376.312,115.895
	 M325.811,38.416c1.94,0.618-1.701,3.238,3.263,1.159c0.391-0.151,0.844-0.29,1.31-0.605c0.341-0.126-0.328-1.613-0.642-1.222
	c-1.474,1.94,0.05-0.605-2.331-1.411c-0.378-0.113-2.18-0.101-2.709,0.743C324.551,37.332,324.563,38.013,325.811,38.416
	 M299.892,45.938c-0.302-1.084,1.739-1.197,1.5-2.193c-0.114-0.428-0.807-0.277-1.273-1.071c-0.63-1.147-2.167,0.781-1.235,1.575
	C299.438,44.716,298.506,45.598,299.892,45.938 M287.242,34.623c-1.991-5.38,3.843-4.284,1.777-6.968
	c-2.432-2.444-4.02-2.885-5.683-0.554c-1.31,1.55-0.278,4.221,0.226,5.002C284.066,32.884,287.645,35.719,287.242,34.623
	 M283.385,96.541c-1.008-0.403-0.038-3.389-2.772-1.26c0,0,0.34-1.084-0.694-1.109c-1.209-0.29-2.659-0.92-3.162-0.139
	c-0.416,0.655,0.454,1.663-0.63,1.84c-3.049,0.504,1.814,1.386,1.814,1.386s0.505-0.05,0.706-0.844
	c0.151-0.643,0.944,0.971,1.487,0.542c0.932-0.756-0.517,7.031,1.487,7.485c2.003-2.268,2.319,2.016,4.133-1.525
	C286.989,101.997,283.788,96.704,283.385,96.541 M355.862,60.038c0.517,0.58,0.063,1.575,0.378,2.381
	c0.038,0.101,1.134,0.668,1.122,0.63c-0.491-1.928,1.272-2.054,0.239-2.961c-0.378-0.315-0.088-0.907-0.278-1.386
	c-0.478-0.466-0.617,0.265-0.944,0.113C356.177,59.282,355.56,59.71,355.862,60.038 M356.114,56.447
	c-0.177-1.625-1.626-1.298-1.588-2.381c-0.58,2.508-1.399,1.714-1.5,2.596c-0.113,0.932,1.008,1.386,1.474,2.306
	C354.892,59.937,356.441,56.737,356.114,56.447 M308.498,99.149c0.24-0.441,0.769-0.403,0.819-0.844
	c0.088-0.945-0.63-1.336-1.134-2.167c-0.215-0.29-1.071,1.26-0.971,1.575C307.376,98.229,308.132,98.708,308.498,99.149
	 M372.192,119.12c-1.058-0.718-1.852-1.512-2.192-2.684c-0.088-0.315,0.075-0.63,0.365-0.781c1.487-0.743,1.688-0.819,0.517-1.323
	c-0.895-0.391-0.58-1.122,0.844-1.84c0.24-0.668-0.844-0.718-1.31-0.794c-1.978-0.302-1.966,0.542-3.628,1.739
	c-0.189,0.138-1.071,0.441-1.285,1.008c-0.177,0.454,0.113,1.55,0.113,1.55c0.164,0.63,1.109,1.525,1.751,1.789
	c2.319,0.97,2.646,0.957,1.916,3.465c-0.114,0.378,0.138,1.247,0.214,1.247c1.084,0.013,1.651,0.756,1.916,1.89
	c1.55,1.915,2.533-2.784,2.205-3.478C373.364,120.229,372.809,119.536,372.192,119.12 M360.386,109.154c0,0,0.693-0.579,0.214-1.411
	c-0.415-1.121-1.36-1.94-1.966-1.688c0.391-2.318-0.265-4.612-1.512-2.243c-0.466,1.978-1.147,2.293-1.487,3.39
	c-0.114,0.365,0.214,1.462-1.034,2.495c-0.062-0.315-0.164-0.618-0.302-0.92c-0.579-1.323-0.642-2.898-0.857-3.868
	c1.058-0.894,2.256-1.512,2.193-1.94c-0.202-1.437-0.706-2.81-1.197-4.183c0.189-0.113,0.366-0.189,0.391-0.391
	c0.076-0.718-0.541-1.033-0.983-1.688h-0.012c0.113-0.542,0.328-1.172,0.768-1.688c0.139-0.819-0.604-0.113-1.373,0.643
	c-0.013-0.012-0.025-0.038-0.025-0.075c-0.491-4.511-2.268-8.316-5.683-11.315c-3.428-3.011-7.51-4.813-11.82-6.048
	c-5.279-1.537-10.635-2.822-15.952-4.246c-0.642-0.176-1.638-0.428-1.777-0.882c-0.592-1.714-1.928-1.462-3.225-1.625
	c-1.147-0.151-2.356-0.454-3.314-1.033c-5.23-3.226-5.469-9.866-0.479-13.432c4.032-2.873,8.745-3.603,13.394-2.495
	c1.79,0.428,4.965,0.391,5.242,3.705c0.013,0.34,0.618,0.819,1.046,0.932c2.469,0.643,2.923,2.722,3.428,4.737
	c0.05,0.177,0.075,0.353,0.113,0.542c-0.718-0.718-1.159-1.298-1.537,2.23c-0.05,0.441-0.164,0.907-0.101,1.537
	c-0.038,0.391,2.003,1.046,1.751,0.479c-1.297-2.772,0.631,0.517,2.924-0.781c0.176-0.076,0.504-0.479,0.731-0.983h1.398
	c1.324,0.013,3.075-0.504,3.906,0.164c2.256,1.802,4.158,0.819,6.276,0.025c0.554-0.226,1.487-0.201,1.953,0.139
	c1.437,1.021,2.735,0.428,3.087-0.756c0.365-1.222,0.328-3.276-0.428-3.969c-2.092-1.953-2.809-3.402-1.739-6.048
	c0.164-0.416,0.781-2.81-0.567-1.65l-1.84,1.789c-0.693,1.247-0.87-0.731-1.058-1.122c-2.256-4.334-5.809-6.88-9.955-9.16
	c-0.151-0.063-0.239-0.24-0.239-0.403c0.051-1.55-0.227-2.306-0.744-2.457c-2.255-0.681-4.637-1.777-6.955-0.139
	c-0.983,0.681-1.688,0.441-2.558-0.34c-0.693-0.63-1.726-0.869-2.62-1.247c-0.315-0.126-0.895-0.038-0.958-0.189
	c-0.844-2.066-2.671-1.361-4.158-1.462c-1.298-0.088-2.419,0.277-1.815,2.079c0.101,0.303-0.29,0.756-0.428,1.122
	c-0.227-0.365-0.466-0.731-0.642-1.134c-1.348-2.999-0.353-3.68,2.734-2.848c1.348,0.353-0.592-1.323-1.298-1.487
	c-3.402-0.819-4.536,2.709-5.128,3.843c-0.618,1.184-0.705,0.68-1.109,0.756c-0.391,0.075-1.739,0.743-1.739,0.743
	c-0.731-0.05-0.113,0.365-0.188,0.63c-0.151,0.491,0.466,1.172-0.013,1.184c-0.718,0.025-1.386-1.033-2.205-1.172
	c-0.971-0.138-0.731-0.794-2.003-0.416c-0.126,0.038-0.215,0.151-0.302,0.29c-0.101-0.101-0.24-0.189-0.466-0.227
	c-0.53-0.101,1.234-0.832,1.021-1.285c-0.353-0.743,2.898,1.31,3.251,0.479c-2.193-1.638-0.013-3.2-0.554-3.175
	c-0.668-0.013-1.65-0.353-1.94,0c-0.718,0.857-3.112,0.189-2.117,2.381c0,0-0.869-0.239-1.273,0.63
	c-0.68,1.033-0.781,2.306-0.176,2.621c0.025,0.013,0.051,0.013,0.075,0.025c-0.516,0.302,0.151,0.945-0.391,0.68
	c-1.184-0.567-2.306-0.34-2.381,0.932c-0.151,2.407-1.701,2.47-3.389,2.47c-3.1-0.025-4.448,1.575-3.516,5.002
	c-1.36-0.869-0.844-1.298-1.36-1.424c-0.479-0.126-1.31,0.101-2.003,0.441c-0.529,0.63,0.214,1.562,0.529,1.953
	c0.252,0.277,0.668-0.681,1.802,0.075c-0.794,0.983-1.424,1.676-1.953,2.457c-0.39,0.58-0.844,1.235-0.881,1.89
	c-0.063,1.386,0.025,1.411,0.113,2.822c-1.298,0.807-1.487-2.457-2.319-1.487c-0.642,0.756,1.676,2.52-0.516,2.432
	c-0.278-0.013-0.202,0.491,0.731,1.777c0.504,0.681,0.416,1.323,0.869,1.815c0.441,0.466,1.26-1.487,1.197,0.063
	c0.403,6.25,3.44,11.038,9.059,14.188c0.315,0.189,0.718,0.567,0.744,0.882c0.164,2.218,1.763,1.928,3.225,1.978
	c1.058,0.025,2.18,0,3.162,0.315c0.744,0.24,1.462,0.579,2.18,0.907c0,0.025,0,0.038,0.012,0.05
	c0.933,0.441,1.474,5.355,3.352,2.873c0.365-0.504,0.428-1.185,0.365-1.487c0.29,0.063,0.592,0.113,0.882,0.126
	c4.7,0.265,9.035,1.688,13.382,3.125c1.814,0.605,3.515,1.663,5.153,2.709c0.491,0.315,0.983,1.361,0.819,1.865
	c-0.655,2.218,0.403,3.591,2.469,4.75c0.681,0.378,0.781,1.323,0.202,1.865c-0.756,0.718-1.31,1.31-1.978,1.512
	c-1.31,0.403-1.814,1.046-1.789,2.381c0.025,3.112-2.709,5.305-5.834,4.763c-0.378-0.05-0.894-0.038-1.121,0.164
	c-1.752,1.575-3.755,0.907-5.708,0.768c0.794-0.353,1.663-0.353,2.469-0.567c0.768-0.214,1.462-0.655,2.193-0.983
	c-0.706-0.655-1.336-1.688-2.142-1.852c-1.172-0.239-2.47,0.24-3.718,0.227c-0.794,0-1.865-0.088-2.306-0.579
	c-1.159-1.361-1.739-0.567-2.684,0.214c-0.604,0.504-1.701,0.844-2.444,0.668c-1.172-0.265-0.87-1.247-0.479-2.18
	c0.781-1.865,0.365-3.805-1.524-4.296c-2.331-0.605-2.47-2.016-2.621-3.831c-0.063-0.743-0.517-1.436-0.819-2.23
	c-0.365-0.794-0.554,0.151-1.31,0.63c-0.152-0.655-0.63-1.752-1.613-3.68c-0.378-0.731-1.6,2.356-3.188,1.739
	c-0.353-0.29-0.681-0.491-1.021-0.542c-0.34-0.063-1.89,1.197-1.297,1.222c2.785-0.139,1.109,1.197,0.668,1.928
	c-0.642-0.126-1.31-0.353-1.978-0.516c-0.567-0.164-1.298-0.378-1.764-0.151c-1.323,0.617-2.482,0.529-3.729-0.24
	c-1.361-0.819-1.777-0.05-1.638,1.222c0.164,1.638,0.378,3.263,0.579,4.889c-1.134,1.109-2.318,2.785-1.575,2.785
	c1.411,0.025,1.084,1.6,2.23,1.512c0.038,0.101,0.076,0.227,0.152,0.328c1.789,2.734,4.007,5.204,5.62,8.027
	c1.525,2.646,3.616,5.027,4.309,8.14c0.063,0.302,0.416,0.542,0.643,0.819c0.983,1.121,2.054,1.121,3.377,0.226
	c-1.021-1.953-4.234-2.659-2.986-5.859c1.739,0.932,3.969,0.895,5.04,3.125c0.188,0.416,1.247,0.605,1.903,0.579
	c1.31-0.038,2.671-0.579,3.918-0.416c1.966,0.252,3.906,0.441,5.834,0.542h-0.051c-0.012,0,0.466,0.05,1.197,0.201
	c0.088,0.29,0.075,0.567-0.088,0.794c-0.529,1.008,1.915,0.529,3.251,0.126c0.075,0.038,0.152,0.063,0.227,0.088
	c4.851,2.028,5.544-1.412,9.929-2.306c0.012,0,0.012,0,0.025-0.013c2.672-0.605,5.317-1.462,7.926-2.633
	c1.071-0.479,1.777-0.454,2.545,0.491c0.328,0.416,1.273,0.957,1.437,0.844c1.613-1.335,3.452-2.029,5.469-2.432
	c0.227-0.05,0.378-0.403,0.58-0.567c0.693-0.529,1.335-1.172,2.091-1.525c1.651-0.743,2.558-2.356,2.546-4.057
	c1.121-0.668,2.356-1.55,2.911-2.142c0.151,0.138,0.265,0.226,0.265,0.226s0.504,0.189,0.983-0.265
	c0.391-0.365-0.025,1.487,0.441,1.588c0.819,0.151-2.759,1.575-2.293,2.356c2.621-0.819,2.609,1.852,2.911,1.399
	c0.403-0.529,1.247-1.122,1.147-1.562C360.801,111.182,362.729,109.62,360.386,109.154 M351.301,69.639
	c-1.184-0.038-2.155,0.567-3.352,0.932c-0.971,0.58-0.252,0.756-0.265,1.084c1.209,0.366,2.394,0.92,3.616,0.996
	c0.668,0.038,3.956-0.97,2.066-1.184C351.288,71.34,352.019,69.677,351.301,69.639 M354.992,115.592
	c-0.251,0.202-0.466,0.844-0.34,1.033c0.227,0.34,0.731,0.668,1.134,0.681c1.688,0.05,2.91-1.739,2.381-3.843
	C356.983,114.244,355.951,114.874,354.992,115.592 M337.907,125.307c-0.152,0-0.303-0.025-0.454-0.075
	c-1.374-0.328-2.646-1.663-2.583-0.189c0.252,0.668-0.302,1.273,0.29,1.449c1.31,0.365,3.578,4.889,2.999-0.592
	C338.121,125.559,338.726,125.244,337.907,125.307 M289.119,43.733c0.353,0.227,3.667,1.046,4.36,0.391
	c-1.638-1.399-0.681-1.537-0.857-2.028c-0.265-0.34-1.361-0.643-1.752-1.802c-0.416-0.265-1.008-0.454-1.94-0.882
	c-0.454-0.466-0.932,0.189-1.575,0.126c-0.894,0.516,0,1.159,0.215,1.462C289.005,43.053,287.682,42.221,289.119,43.733
	 M120.062,82.353c-1.109-0.756-1.953-1.6-2.243-2.873c-0.101-0.403,0.076-0.819,0.441-1.008c1.046-0.529,0.29-2.81,1.31-2.52
	c0.932,0.265-0.416-0.365,1.007-1.084c0.227-0.668-0.844-0.731-1.31-0.794c-2.091-0.328-1.663,0.428-3.641,1.726l-0.365,0.945
	c-0.604,0.806-0.415,1.26,0,1.827c1.399,1.915,2.621,3.402,1.878,5.909c-0.114,0.378,0.201,1.172,0.226,1.247
	c0.655,2.369,4.284,3.226,5.658,1.008c0.403-0.088-1.424-2.268-1.537-2.596C121.221,83.462,120.666,82.756,120.062,82.353
	 M4.265,97.75c1.461,1.537,0.693-1.437,0.025-1.815c-0.831-0.479-2.192-2.482-3.502-2.243c-1.714,0.428-0.114,2.117,0,3.024
	C0.158,99.313,2.274,98.834,4.265,97.75 M122.267,82.101c-0.252,0,0.681,0.517,0.353,0.945c-0.353,0.441,1.537,4.108,1.978,3.162
	C125.379,84.898,124.509,81.899,122.267,82.101 M96.222,112.858c-0.844,0.101,0.239,1.625,0.567,2.028
	c0.24,0.277,1.361,0.277,1.563,0.038c0.34-0.441,1.109-0.92,0.227-1.802C98.276,112.845,97.242,113.034,96.222,112.858
	 M85.222,50.462c-0.164-0.277-0.315-0.491-0.454-0.618c-0.038-0.05-0.075-0.101-0.113-0.139c0,0.013-0.013,0.025-0.025,0.038
	c-0.101-0.063-0.201-0.101-0.278-0.038c-0.768,0.215-0.869,2.596-1.726,2.684c-0.278,0.189,1.335,1.676,2.029,1.777
	c0.541,0.063,1.814-1.209,1.739-1.373c-0.051-0.088-0.101-0.202-0.152-0.303c0.113-0.126,0.164-0.214,0.152-0.252
	C86.079,51.608,85.65,51.029,85.222,50.462 M79.413,90.392c-0.491-0.038-0.681,0.24-1.235,0.655
	c1.865,0.252-0.454,1.512,1.462,2.079c1.109,0.088,2.432-1.109,1.953-1.499C80.207,91.311,80.181,90.493,79.413,90.392
	 M48.278,10.834c0.075,0.277,1.348,0.202,1.348,0.202s0.252-1.134-0.214-1.525c-0.378-0.315-0.554-0.706-0.479-1.096
	c0.138-0.681,1.374,1.449,2.142,1.058c0.668-0.882,2.066-1.411,1.613-1.638c-0.541-0.34-1.159-1.008-1.6-0.92
	c-1.084,0.252-2.684-1.31-3.1,0.63c0,0.013,0.177-0.013,0.051,0.151c-0.706,0.668-1.374,1.6-1.046,2.091
	C47.307,10.292,48.202,10.557,48.278,10.834 M92.858,117.785c-1.084-0.328-1.424-2.785-3.037-1.008c0,0-0.126-0.882-1.084-0.895
	c-1.21-0.24-2.419,0.176-2.469,0.857c-0.063,0.681,0.604,1.462,0.415,1.764c-0.668,1.071,1.525,0.227,1.525,0.227
	s0.428-0.34,0.29-0.996c-0.114-0.529,1.247,0.794,1.587,0.441c0.542-0.63-0.063,3.175,0.844,3.175
	c0.642-2.671,2.935-1.298,2.696-1.789C93.374,118.944,93.298,117.911,92.858,117.785 M83.205,117.923
	c-0.655,0.479-1.247-0.176-1.474,0c-0.416,0.24,1.386,2.734,1.587,2.205c0.265-0.706,1.247-0.063,1.26-0.857
	C84.34,118.226,83.773,118.566,83.205,117.923 M31.683,121.577c-2.243,0.579-2.596-0.491-3.389-0.05
	c-1.437,0.996,1.159,2.696-0.542,3.087c-1.55,1.487,1.613,1.184,1.991,0.428C30.184,124.098,33.17,121.3,31.683,121.577
	 M81.051,15.71c0.454-1.209,3.768-2.381,3.377-2.759c0.315-0.214-2.293-1.739-2.634-1.172c-1.007,1.6-3.2,1.575-2.683,1.739
	C81.101,14.123,80.471,16.101,81.051,15.71 M7.302,132.225c-2.886,0.554,0.365-0.844,0.353-1.298
	c-0.038-1.21-1.411-0.655-1.613-1.298c-1.991,0.403-2.747-1.764-3.491-1.638c-2.986,3.944,0.58,7.825,1.575,6.817
	c-1.159-3.73,2.634,0.894,3.831-0.517C8.158,133.182,7.882,132.111,7.302,132.225 M113.03,27.34
	c-1.021,0.428-4.939,3.037-5.166,3.692c-0.315,0.869-0.907,2.646-0.87,2.785c0.618,1.877-2.18,3.352-2.519,4.083
	c0.227,0.567,0.63,1.399,0.403,1.752c-1.764,2.784,0.63,4.964,0.794,7.308c0,0,2.041-3.049,1.966-1.411
	c-0.075,1.625-0.012,2.974-0.164,3.881c0,0.012-0.025,0.05-0.038,0.075c0.176,0.655,0.34,1.348,0.806,1.625
	c0.441,0.277-0.151,0.92-0.239,1.462c-0.403-0.05-0.391,0.63-0.932,0.454c0.176,0.92,0.428,1.827,0.869,2.621
	c1.008,1.789,2.23,3.541,1.16,5.305c-0.227,0.391-1.247,0.819-1.26,1.235c-0.038,4.738-0.025,9.476-0.025,14.289
	c0.202,0.126,1.588,0.328,1.865,0.769c0.152,0.227-0.995,1.323-1.36,1.323c-2.155,0-1.613,2.293-1.802,3.087
	c0.391,0.277,0.92,0.806,1.424,1.374c0.568-0.227,1.739,0.756,2.747,0.252c0.277-0.126,0.731,1.222-0.025,3.604
	c-0.328,1.373-2.797,3.037-4.108,2.533c-0.378,1.676-0.794,3.83-1.991,5.38c-1.247,1.21-1.197,0.315-1.033-1.109
	c-0.29,0.391-0.618,0.769-0.907,1.172c1.827,3.83-4.234,0.164-2.167,6.338c-0.932,0.592-1.172-0.315-1.953,0.466
	c-0.315,0.303,3.603,4.058,3.805,4.436c0.768,1.361,0.365,2.583-0.971,2.356c-2.092-0.353-1.147,2.47-2.092,2.47
	c-2.961,0-6.778,0.97-4.687,3.314c0.53,0.579-1.209,0.252-1.726,0.34c-1.298,0.252-6.628-2.193-7.888-1.764
	c-1.26,0.428-2.104,1.159-1.94,2.759c0.051,0.479-0.756,1.512-1.071,1.462c-0.92-0.126-1.777-0.668-2.885-1.134
	c-1.424,0.328-2.86,0.718-4.347,1.109c0.152,0.491,0.404,1.084,1.613,1.172c1.878,0.202-1.398,1.21-2.066,1.172
	c-1.222-0.076-2.419-0.63-3.616-0.996c0.013-0.113-0.075-0.201-0.151-0.315c-1.324,0.277-2.659,0.529-4.007,0.68
	c-9.085,1.046-18.296,1.222-27.418,1.525c-3.112,0.101-6.829,1.134-11.303-0.227c-1.676-0.516-2.507,0.479-2.507,2.054
	c0,0.894-0.781,1.726-1.676,1.903c-0.819,0.151-2.469,0.693-2.218,1.575c0.126,0.504,1.411,1.361-1.802,0.945
	c-0.768-0.189,0-1.562,0.303-2.205c0.454-0.97,2.167-2.797,1.827-2.797c-3.616,0.214-2.935-0.491-4.271-0.428
	c-0.806,0.038-1.587,0.504-2.381,0.794c-0.215,0.113-0.404,0.176-0.58,0.176c-0.668,0.189-1.424,0.366-1.991,0.164
	c-0.302-0.113-0.378-1.285-0.29-1.928c0.215-1.55-3.805-0.882-3.074-2.419c-0.24-0.176-0.265-0.403-0.177-0.643
	c-0.227-0.075-0.441-0.138-0.63-0.126c-0.504,0.025-0.806-0.605-0.554-1.033c0.391-0.756,0.807-1.5,1.121-2.268
	c0.278-0.63,0.643-1.55,0.391-2.003c-1.058-1.814-1.827-0.063-2.935-4.687c-0.315-1.298-1.94-1.651-1.449-1.915
	c0.201-0.907,3.44-0.681,5.015,1.361c1.323,1.688,3.049-0.378,3.439-0.416c-0.403-1.587-2.406-2.394-2.683-4.322
	c-0.038-1.499-0.063-2.621,0.063-3.327c-0.341-0.378-0.718-0.819-1.134-1.335c-1.386-1.462-1.26-3.818-1.84-5.078
	c-0.278-0.579,0.113-2.192,0.58-2.86c0.012-0.063,0.05-0.113,0.088-0.151c0.907-0.844-0.164-3.364,1.588-0.076
	c0.378,0.706,1.726,0.504,2.331,0.882c1.915,1.184-1.462,2.293,2.255,4.511c0.404-0.076,0.315-0.05,0.706-0.126
	c0-3.591,0.302-7.207-0.126-10.748c-0.176-1.55-2.092-3.503-2.23-5.242c-0.138-1.701-1.235,0.39-1.449-0.139
	c-0.189-0.491,0.227-2.394,0.265-2.974c1.046-0.529,1.184-0.063,1.676,0.151c0.706,0.315,0.807,0.189,1.739,0.819V35.316
	c0-0.189,0.252-3.024-0.504-3.074c-1.55,0.277-1.89-1.827-3.024-1.21c-1.134,0.605-2.155-0.365-1.853-1.84
	c0.29-1.399,0.844-2.772,1.462-4.07c0.101-0.239,1.134-0.265,1.575-0.05c0.516,0.24,0.869,0.844,1.84,1.172
	c-0.315-1.638-0.63-3.276-0.92-4.712c-0.882-0.731-2.508,2.331-2.382-0.416c0.063-1.26-0.567-2.974,0.075-3.755
	c1.953-2.444,2.672-5.065,2.596-8.089c-0.013-0.34,1.146-1.134,1.6-1.021c2.394,0.655,5.141-0.189,7.308,1.852
	c0.504,0.491,2.041-0.189,3.112-0.265c1.058-0.076,0.983-0.416,1.827-0.593c0.265-0.05,1.575,0.403,1.6,0.681
	c0.051,0.542-0.214,0.907-0.151,1.462c0.025,0.454,0.025,1.247,0.857,0.794h7.875c0.227-0.113,0.567-0.554,0.025-0.68
	c-0.681,0-1.437,0.391-2.029-0.038c-0.58-0.428-1.336-0.618-1.991-0.945c-0.693-0.252,0.769-1.625,1.374-1.852
	c1.84-0.668,3.843-1.222,4.662,1.525c0.075,0.24,1.512,0.844,1.449,0.302c0.177-2.243-1.638-2.495-0.693-2.961
	c2.507-0.214,3.931,0.832,4.121,3.087c0.101,1.374,0.604,1.701,2.041,1.449c1.777-0.327,3.667-0.101,5.493-0.265
	c0.568-0.038,1.134-0.504,1.638-0.857c0.466-0.34,0.894-1.134,1.26-1.084c0.567,0.063,1.335,0.592,1.512,1.096
	c0.541,1.55,1.587,1.777,3.049,1.915c6.968,0.643,13.797,1.978,20.286,4.675c1.021,0.403,1.512,0.353,2.772-0.214
	c1.184-0.517,2.609,0.226,3.276,1.021c0.365,0.453,0.781,0.907,1.172,1.386c0.391,0.491,0.731,1.021,1.109,1.537
	c0.289,0.403,0.541,0.894,0.92,1.197c0.957,0.718,1.058,0.718,2.28,1.525c0.517,0.63,2.986,0.655,3.831,0.995
	c0.428-0.025,1.033,0.126,1.5,0.126c0.541-0.025-0.278,1.26-0.24,2.482c-0.164,0.353-0.718,0.303-1.272,0.189
	c0.352,0.428,0.768,0.907,1.071,1.411c0.138,0.176,0.265,0.315,0.378,0.479c1.663,0.151,5.695,0.353,7.787-0.806
	c2.507-1.424,5.519-1.499,5.859-1.537C111.027,27.315,113.484,27.151,113.03,27.34 M88.094,55.137
	c-0.642-2.52-1.285-5.015-1.94-7.51l-0.516,0.479c-0.844-0.101-2.218,0.063-2.445-0.365c-0.353-0.681,0.038-1.777,0.152-2.684
	c0.012-0.126,0.126-0.252,0.214-0.34c0.894-1.046,0.807-2.041,0.126-3.225c-2.747-4.826-6.338-8.291-10.571-10.698
	c-1.739,0.428-3.944,0.819-5.003,1.298c-1.474,0.617-7.043-2.268-2.734-2.671c1.046-0.126,2.029-0.353,2.873-0.869
	c-2.306-0.832-4.764-1.437-7.321-1.84c-0.971-0.403,1.739,2.533-1.185,2.155c-1.777-0.227-2.331,1.071-2.419,0.378
	c-0.302-2.243-2.029-0.201-2.759-0.844c-0.618-0.567-0.341-0.189-1.16-0.252c0.063,1.714-0.188,2.016-2.243,1.399
	c-3.981-1.159-7.548-2.356-8.228-3.339c-1.562-2.205-5.884-0.265-8.883-0.265c-0.012,0.29,0.29,0.328,0.29,0.605
	c-0.844,0.718,1.878,0.315,2.962,0.403c0.415,0.038,0.705,0.076,0.982,0.164c0.655-0.088,1.45,0.038,2.281,0.34
	c0.201-0.05,0.365,0,0.466,0.189c0.554,0.252,1.109,0.579,1.626,0.983c1.827,0.983,1.171,2.835,1.184,2.822
	c4.876-1.815,3.087,3.288,4.826,4.964c0.693,0.706,2.949,9.299,1.109,7.787c-4.448-2.797-1.853-6.174-7.573-4.637
	c-1.751-0.907,2.394-5.859,0.731-5.204c-0.995,0.391-2.116-1.991-2.419-0.857c-0.378,1.399-1.751,0.05-1.751,0.05
	s-5.04-0.529-2.696-1.953c0.391-0.227,0.391-1.059,0.466-1.94c-0.932,0.252-1.197,0.983-2.457,1.399
	c-0.101,1.386-0.403,2.936-0.353,4.788c0.164,5.632,0.706,10.282,0.921,15.889c0.025,0.693,1.033,0.958-0.353,3.024
	c-0.568,0.857-0.618,2.016-0.568,2.999c0.177,3.289,0.643,6.59,0.706,9.904c0.012,0.302-0.025,0.63-0.051,0.945
	c0.441,0.303,0.781,0.693,0.731,1.474c0.642,2.634,1.171,4.183,1.335,5.506c-1.272,2.822-0.188,5.595-0.352,6.703
	c-0.529,1.222-2.13-3.427-2.016,2.331c-0.126-0.013-0.251-0.05-0.378-0.088c0.012,0.529,0.012,1.059,0.025,1.588
	c0.038,1.764,0.58,3.515,0.655,5.292c0.114,2.356,0.088,4.737-0.062,7.094c-0.088,1.172-0.215,2.344-0.341,3.503
	c1.172-1.613,2.596-2.873,2.974-2.192c-1.827,2.469,2.747,1.89,1.827,3.767c-0.328,0.706-0.68,1.79-1.058,2.911h9.412
	c-1.197-2.381-1.071-2.444,1.386-3.402c0.882-0.34,1.26-1.26,2.016-1.953c0.428-0.365,1.096-1.096,1.587-1.109
	c0.718,0,0.87,0.466,1.197,0.844c0.391,0.454,0.857,0.996,0.932,1.55c0.101,0.643-0.101,1.588-0.353,1.978
	c-0.504,0.756-1.726-0.353-3.427,1.349c0.378,0.088,1.802,1.524,1.5-0.063c1.688,0.932,4.359,1.802,5.695-1.21
	c0.164-0.365,0.794-0.643,1.235-0.693c3.137-0.34,6.275-0.592,9.412-0.907c1.386-0.138,2.356,0.164,3.893-0.038
	c-3.843-3.251-0.428-4.927-2.822-6.111c3.314-1.222,4.347,2.318,6.918,2.784c-0.731-0.731,2.659-1.562,2.495-2.167
	c-0.152-0.265-0.189-0.391-0.277-0.504c-0.491-0.731-1.55-1.638-1.399-2.168c0.454-1.462,1.751-0.743,2.835-0.617
	c0.631,0.05,1.588-0.038,1.916-0.454c0.907-1.109,1.55-2.406,2.318-3.666c-2.519-1.235-2.558-2.205-0.289-5.557
	c-2.394-1.159-2.785-2.659-0.505-4.41c0.189-0.126,0.126-0.542,0.278-0.769c1.021-1.625,2.079-3.238,3.074-4.889
	c0.303-0.491,0.668-1.096,0.618-1.625c-0.101-1.449-0.529-2.86-0.592-4.309c-0.038-1.021,0.378-2.041,0.517-3.062
	c0.189-1.285,0.491-2.608,0.403-3.881c-0.126-1.941-2.217-3.919,0.341-5.696C88.133,55.666,88.12,55.325,88.094,55.137
	 M254.115,87.027c-0.353,0.391-0.718,0.769-1.071,1.185c-0.34,0.403,0.025,0.516-1.045,0.831c-1.172,0.97-0.454,1.487-0.353,1.953
	c0.063,0.277,0.869,0.567,1.31,0.517c1.777-0.176,2.646-1.903,2.369-3.213C255.287,87.481,254.544,87.96,254.115,87.027
	 M209.334,123.026c-0.731-0.138,0.076,0.819-0.957,0.807c-0.592,0.201,0.403,0.164,0.794,1.335c0.201,0.416,0.088-0.97,1.084-0.529
	C211.048,124.866,210.04,123.19,209.334,123.026 M222.161,39.928c0.781-0.34,1.16,1.713,1.462,1.033l1.26-1.777
	c0.554-0.529-0.58-2.079-1.487-1.285c-1.046,0.894-2.445,0.794-2.117,1.134L222.161,39.928z M263.603,102.224
	c0.114,0.378-0.642,1.008-0.995,1.524c-0.466-0.416-1.021-0.781-1.399-1.272c-0.441-0.579-0.731-1.273-1.084-1.915
	c-0.63,0.529-1.449,0.958-1.865,1.638c-0.567,0.945-0.806,2.079-1.184,3.137c2.18-0.516,2.696,1.298,2.936,2.608
	c0.227,1.197-0.404,2.558-0.756,3.831c-0.038,0.138-0.857,0.302-1.046,0.138c-0.378-0.328-0.92-1.071-0.781-1.285
	c0.971-1.613,0.051-2.923-0.441-4.347c-0.013-0.063-0.025-0.113-0.025-0.164c-0.681,1.247-3.125,1.915-2.633,2.028
	c1.386,0.643,2.066,2.646-2.042,3.478c-0.844,0.152-0.05,2.571-0.441,3.68c-0.58,1.688-2.356,0.668-3.389,1.84
	c-0.366,0.403-1.5-0.126-1.979,0.063c-0.806,0.34-2.142,0.894-2.13,1.323c0.025,1.134,0.554,2.356,2.23,1.966
	c0.152-0.038,0.378,0.139,1.147,0.416c0.668,0.315-4.07,2.256-5.632,1.903c-0.92-0.214-0.139-4.334-0.529-3.389
	c-1.324,1.701,0.025,2.596-1.336,3.717c-1.689,1.424-0.542,1.663-1.071,1.89c-0.907,0.378-1.903,0.176-2.217-1.185
	c-0.051-0.214-1.512-0.428-1.991-0.138c-1.361,0.857-2.13,0.894-2.495-0.869c-0.844-3.982-0.34-0.857-2.382-1.109
	c-1.6,0.466,0.164,0.756-0.415,1.071c-1.727,0.277-1.324,0.176-1.802,0.403c-0.668,0.328-2.961,0.391-3.365,0.567
	c-1.966-0.214-3.515-1.512-4.372-2.066c-1.613,0.63-0.957,1.588-2.079,2.104c-1.714,1.474-3.201-3.137-4.397-1.235
	c-0.152,0.743-1.034-0.769-1.387-2.47c-0.453-0.05-0.957-0.063-1.587-0.012c-1.008,0.075-1.688,0.176-1.865,1.411
	c-0.214,1.436-0.932,1.272-2.053,0.567c-2.306-1.449-4.725-2.709-7.182-3.906c-0.416-0.214-1.285,0.428-1.777,0.542
	c-0.907-1.058-2.117-2.193-2.256-3.251c-0.126-0.996,1.046-2.155,1.802-3.553c0,0.013-0.265-0.63-0.542-0.63
	c-0.63-0.013-1.121-0.113-1.524-0.277v0.252c-0.201,0.466-0.895-0.126-1.613,0.29c-0.114,0.063-0.416-0.227-0.554-0.416
	c-0.957-1.386-4.221-0.504-3.793-3.1c0.239-1.562,0.957-3.062,1.638-4.536c-0.479-0.567-0.945-1.147-1.411-1.713
	c-0.781-0.945-0.391-1.6,0.252-2.533c0.29-0.441-0.365-1.84-0.945-2.495c-1.134-1.31-1.89-2.318-0.794-4.208
	c0.554-0.97,0.101-2.571,0.012-3.881c-0.705-9.564,0.278-18.862,4.864-27.431c1.5-2.797,3.617-5.254,5.607-7.762
	c0.302-0.378,0.491-0.819,0.618-1.272c-0.908-3.566-5.708-1.525-5.683-3.982c0.012-0.605,0.088-3.163,0.466-3.2
	c0.655-0.076,2.445-0.693,3.604,1.096c0.227,1.298,0.416,1.147,0.794,1.386c0.215-0.428,0.542-0.857,0.768-1.285
	c0.341-0.29,0.895,1.26,1.588,1.386c1.096,0.189,2.52,2.256,2.507,1.474c-0.365-1.436-1.411-2.646-1.109-4.083
	c0.341-1.537,0.731-0.252,0.794-1.89c0.201-0.529,0.705-0.353,0.907-0.302c0.365,0.088-0.428,0.97,0.479,1.462
	c0.541,0.302,0.932,1.638,1.5,1.021c1.31-1.436,2.948-0.718,4.461-0.101c0.251,0.101,0.655-0.138,0.97-0.214
	c2.646-0.932,1.512-2.759,3.452-2.545c1.487,0.302,3.15-0.428,4.75-0.592c1.008-0.088,2.331-0.353,3.037,0.138
	c1.927,1.336,1.827,1.487,4.347,1.424c0.441,0.151,4.927-3.629,4.587-0.655c-0.075,0.605,1.563,0.567,1.865,1.159
	c1.726,3.326,2.193-0.832,3.162-1.197c2.054-0.744,2.092,1.26,3.037,2.243c0.466,0.693,0.957-0.655,1.436-0.655
	c0.491-0.012,1.727,0.744,1.714,0.895c-1.184,2.52,0.819,1.865,2.343,3.364c0.781-1.613,1.525,0.303,3.717,0.466
	c1.903,0.152,0.58,1.802,0.971,2.155c1.348,1.688,2.469,3.288,3.805,4.687c1.096,1.197,2.483,2.129,1.638,4.095
	c-0.063,0.164,0.529,0.718,0.894,0.97c0.391,0.252,1.26,0.34,1.273,0.554c0.151,2.533,2.092,4.246,2.835,6.451
	c0.151,0.416-1.021,1.26-1.89,2.218c-0.215,0.24-0.303,0.58-0.151,0.857c1.096,2.104,0.529,6.539,1.184,6.552
	c2.609-0.365,2.003-2.533,2.281-4.07c0.202-1.059-0.164-2.205-0.114-3.314c0.038-0.592,0.365-1.172,0.605-1.752
	c0.289-0.516,1.046-0.554,0.932,0.151c-0.05,0.731,0.138,1.613-0.214,2.13c-0.807,1.197-0.517,1.915,0.378,2.911
	c2.268,2.469,2.167,2.772-0.365,5.053c-0.353,0.315-0.504,0.92-0.668,1.411c-0.328,1.008-0.618,2.041-0.971,3.276
	c0.176,0.088,0.681,0.24,1.109,0.542c1.096,0.744,1.701,1.663,0.743,2.949c-0.088,0.113-0.239,0.176-0.289,0.302
	c-0.366,0.932-0.718,1.878-1.059,2.81c-0.328,1.008-2.154-3.654-5.28-2.52c-0.491-0.302-0.05-1.222-0.516-1.222
	c-1.953-0.038-3.944,0.365-5.872,0.138c-2.469-0.29-4.725,0.769-6.993,0.832c-1.84,0.05-3.818-1.096-5.96-1.071
	c-7.396,0.101-14.805,0.038-22.202,0.038h-2.381c-0.114,0.844-0.152,1.537-0.315,2.18c-0.315,1.235,0.391,2.52-2.029,0.529
	c-0.995-0.819-2.923,0.302-4.246,0.378c-0.29,0.025-0.819,0.983-0.744,1.411c0.517,2.659,1.084,5.305,1.815,7.913
	c0.176,0.618,0.957,1.323,1.613,1.5c2.041,0.567,2.52,1.348,0.428,2.835c1.109,0.554,2.003,1.008,3.049,1.525
	c0.101-0.718,0.038-1.31,0.29-1.613c0.365-0.454,0.97-0.718,1.487-1.058c0.315,0.542,1.008,1.235,0.869,1.587
	c-0.516,1.273-0.151,1.865,1.097,2.029c2.608,0.328,3.578,2.029,4.019,3.994c0.076,0.353,0.328,0.996,0.668,0.882
	c0,0,1.386-1.55,2.369-1.008c0.58,0.302-0.341,1.474,0.894,1.525h4.208c0.101-0.643,0.252-1.172,0.428-1.625
	c-1.108,0.403-3.137-0.517-4.498-2.003c-1.096-0.593,0.114-0.366,0.152-0.366c2.394,0.277,3.793-1.033,5.166-2.81
	c0.781-1.021,2.306-0.769,3.125-0.025c0.428,0.983-2.193-0.038-3.125,3.667c0,0.101,0,0.151-0.012,0.24
	c0.907-0.819,2.256-0.681,4.058,0.403c0.466,0.265,1.436,0.303,1.802,0.013c1.739-1.437,3.364-3.024,4.977-4.486
	c-1.726-2.873-1.701-2.847,0.781-4.637c0.63-0.454,1.247-1.147,1.487-1.865c0.467-1.449,1.31-2.52,2.382-3.062
	c0.063-0.403,0.315-1.008-0.428-1.247c-1.008-0.353-1.021-0.932-0.894-1.134c0.428-0.731,1.903-0.743,2.217-0.63
	c1.94,0.68,0.693,2.86,1.903,1.197c0.252-0.353,0.807,0.932,0.517,1.046c-0.365,0.252-0.718,0.365-1.034,0.504
	c0.429,0.088,0.87,0.202,1.336,0.454c2.747,1.462,5.532,0.857,8.24,1.059c0.201-0.958,0.365-1.752,0.542-2.546
	c0.251-0.05,0.517-0.101,0.768-0.164c0.466,1.021,0.781,2.142,1.411,3.049c0.87,1.298,2.029,2.407,2.961,3.667
	C262.721,100.296,263.313,101.228,263.603,102.224 M206.045,72.399c1.474,1.121,2.81,2.142,4.196,3.2
	c1.096-2.596,1.575-3.163,2.872-2.029c-0.151-0.668-0.491-1.462-1.424-2.268c0-0.618,2.142,1.688,4.8,0.832
	c0.189-0.051,0.87,0.857,0.756,1.084c-0.188,0.365,0.215,1.6-1.537,2.066h0.075c1.26,0.05,2.507-0.038,3.768-0.025
	c0.882,0.025,1.814,0.353,2.633,0.164c4.322-0.945,8.631-3.667,12.928,0.05c0.101,0.088,0.277,0.113,0.416,0.113h7.182
	c-0.215-5.62-1.16-10.685-4.474-15.045c-1.36-1.752-2.621-3.515-5.456-2.18c-1.563,0.743-4.02-0.693-4.309-1.764
	c-0.152-0.542-0.668-1.247-1.16-1.374c-2.053-0.529-3.301,0.277-3.502,2.508c0.642,0.29,1.297,0.617,1.927,0.92
	c0.466,0.138,0.529,0.479,0.517,0.743c-0.29,0.63-1.676,0.907-2.986,0c-1.915-1.335-3.276-1.058-4.877-0.328
	c-1.096,0.504-1.915,1.625-3.024,2.041c-1.638,0.617-3.427,0.869-5.343,1.298c0.177,0.403,0.744,1.071,0.655,1.625
	c-0.176,0.97-0.579,2.545-1.171,2.684C206.184,67.497,206.298,70.042,206.045,72.399 M201.547,115.769
	c-0.265-0.529-1.79-0.806-1.462-1.752c-0.226,0.063-0.453,0.152-0.693,0.227c-1.31,0.504,0,1.827,0,2.722
	c0.189,0.076,0.378,0.139,0.554,0.201C200.325,116.31,201.912,116.487,201.547,115.769 M211.69,69.677
	c-0.265-0.189-0.428-0.391-0.529-0.618v-0.013l-0.012-0.012c-0.278-0.668,0.012-1.411-0.278-1.625
	c-0.592-0.466-3.402,3.666-2.469,3.666c1.21,0.025,0.794,1.903,2.003,1.474C211.879,71.592,211.035,70.912,211.69,69.677
	 M197.301,43.62c0.844,0.39,2.306,0.756,1.852,0.138c-1.966-2.634,1.399-3.818-0.731-4.826c-0.769-0.365-0.479-1.424-1.008-2.104
	c-0.995-0.554-0.945,0.668-1.587,0.542c-0.139,0.844-1.034,1.777-0.391,2.192C196.545,40.268,196.457,42.461,197.301,43.62
	 M255.476,54.179c0,0,0.718,0.504,0.781-0.151c0.038-0.542,0.756,0.428,1.16,0.176c0.718-0.428-0.769,2.155,0.101,2.419
	c0.05-0.013,0.075-0.025,0.113-0.038c0.491,1.966-0.555,2.469-0.428,2.949c1.097,3.83,4.814,0.441,4.448-1.222
	c-0.013-0.088-0.025-0.164-0.051-0.265c0.176-0.517-1.096-3.163-1.411-3.377c-0.932-0.63-0.529-3.087-2.596-1.865
	c0,0.013,0.138-0.882-0.768-1.184c-1.097-0.579-2.369-0.542-2.621,0.101c-0.252,0.643,0.151,1.563-0.126,1.815
	C253.132,54.355,255.476,54.179,255.476,54.179 M255.69,123.241c-0.353-0.466-0.957,0.063-1.877-0.655
	c-1.298-1.071-1.65,1.978-0.265,2.469c0.819,0.29,0.441,1.802,2.003,1.525C254.594,125.446,256.535,124.312,255.69,123.241
	 M415.966,44.199c0.05-0.97-0.568-1.084-0.832-1.663c-0.063-0.152-1.676-0.013-1.701,0.088c-0.768,0.542,1.097,0.101,0.643,1.537
	c-0.075,0.252,0.302,0.655,0.202,0.819c-0.731,1.134-1.6,2.193-2.28,3.365c-0.215,0.34-0.151,1.008,0.038,1.399
	c0.794,1.562,0.428,2.469-1.273,2.999c-0.378,0.113-0.706,0.806-0.794,1.272c-0.038,0.176,0.668,0.693,1.046,0.706
	c1.927,0.076,2.293,1.323,2.306,2.848c0.025,2.86,0.063,5.72-0.013,8.581c-0.025,1.373-0.428,2.747-0.403,4.133
	c0.088,4.359,0.29,8.745,0.403,13.129c0.013,0.491-0.113,1.235-0.441,1.462c-1.374,0.869-0.744,1.462-0.265,2.659
	c0.63,1.562,1.109,4.397,0.29,5.116c-2.243,1.966-1.79,4.435-2.205,6.703c-0.101,0.605,0.881,1.462,1.449,2.13
	c0.315,0.378,1.134,0.668,1.096,0.958c-0.265,2.974,1.021,6.073-0.705,8.959c-0.227,0.353,0,1.033,0.101,1.537
	c0.201,0.832,0.618,1.638,0.68,2.495c1.387,1.688-0.415,2.029,0.025,4.108c1.235,2.079,2.092-1.147,5.204,1.688
	c0.478,0.214,0.681,1.209,0.844,1.903c0.214,0.819-0.731,2.923,0.365,2.495c0.693-0.403,1.398-0.819,2.116-1.247
	c0.227,1.31,1.21,1.789,2.684,1.65c0.756-0.088,1.537-0.012,2.293-0.025c1.247-0.013,2.457,0.176,3.188-1.336
	c0.768-1.6,1.172-2.986,0.176-3.805c-0.441-0.831-0.655-3.125,0.718-6.539c1.021-0.479,0.618-0.227,0.819-0.013
	c0.063,0.605,0.466,0.731,0.592,1.31c0.126,0.567-0.403,2.079-0.126,2.142c0.731,0.152,1.109,0.479,2.508,0.063
	c0.756,0.088-0.328-1.525-0.554-2.091c-0.152-0.378-0.34-0.743-0.567-1.21c1.096,0.378,1.802,0.618,2.52,0.857
	c0.176-0.769,0.718-1.688,0.466-2.268c-0.365-0.806-1.26-1.424-2.003-1.991c-0.416-0.29-1.26-0.164-1.487-0.504
	c-1.26-1.865-2.633-3.616-2.533-6.199c0.202-5.292,0.138-10.597,0.013-15.901c-0.076-3.125-0.139-5.998,3.288-7.484
	c0.113,0.138,0.214-0.139,0.214-0.139c-1.31-1.31-2.142-2.419-2.986-3.641c-0.239-0.365-0.151-1.071,0.025-1.562
	c0.138-0.403,0.844-0.693,0.87-1.046c0.125-3.704,2.999-3.868,5.582-4.372c1.272-0.252,1.89-1.172,0.97-2.003
	c-1.323-1.21-1.562-2.281-0.794-3.805c0.114-0.252-0.151-0.844-0.428-1.096c-1.147-1.096-2.382-2.13-3.818-3.39
	c-1.361-0.579-0.139,1.424-1.273,0.593c-1.966-2.709-1.966-2.76,0.025-3.831c2.268-1.21,2.318-1.474,1.171-3.893
	c-1.171-2.457-2.293-4.952-3.666-7.951h-8.581c1.071-0.92,1.689-1.449,2.709-2.331c1.26-2.041-3.541,1.966-5.003-0.05
	c-2.13-0.378-2.003,1.713-3.251,2.407C415.739,44.678,415.952,44.401,415.966,44.199 M423.147,10.809
	c1.827,0.945,1.802-0.126,2.571-0.303c0.731-0.176,0.63,0.088,1.537,0.328c0.328,0.088,1.398-0.176,1.713-0.983
	c0.176-0.441-0.605-1.399-0.328-1.587c0.869-0.643,1.323,0.731,2.671,1.625c0.328,0.201,1.109,0.252,1.324,0.554
	c0.428,0.567,0.818,1.122,1.071,1.714c0.378,0.806-2.003-0.605-1.726,0.529c0.39,1.613,2.369,1.046,2.469,1.424
	c0.529,2.041,0.328,4.208-0.441,6.514c-0.227,0.643,0.088,1.474,0.164,2.205c0.051,0.416,0.504,2.218,0.983,0.152l1.021-3.944
	c0.177-0.731,0.769-0.567,1.097-0.201c1.487,1.121-0.416,2.583,1.398,4.347c0.177,0.176-0.378,0.932-0.579,0.932
	c-1.638,0-1.802,0.957-1.877,2.293c-0.063,1.437-2.369,2.319-2.331,1.273c0.025-0.68-1.677,0.214-1.953-1.021
	c-0.063-0.24-0.403,0.038-0.567,0.201c-0.996,0.895-1.462,5.846-2.092,5.116c-0.857-1.021-2.18-1.966-0.215-4.133h-15.145
	c-0.416,0-0.769-0.302-0.831-0.693c-0.479-2.671-1.084-5.028-1.097-7.396c-0.012-2.331,0.744-4.649,1.222-7.283h2.003h4.284
	c0.517,0,1.411-0.189,1.512-0.693c0.391-1.688,0.416-2.18,1.084-1.764C422.341,10.154,422.669,10.431,423.147,10.809
	 M437.411,49.617c-0.718,0.554-0.315,2.23-0.995,1.739c-1.046-1.764-2.722-1.222-2.836-2.873c-0.05-1.033-1.021-1.852-1.335-2.848
	c-0.278-0.869-0.681-2.533-0.428-2.709c0.352-0.101,2.066-0.894,2.255,0.895c-0.088,0.97,1.6,1.26,2.268,1.789
	c1.008,0.454,1.714-1.752,2.016-1.033c0.34,0.882,1.008,1.802,0.894,2.621C439.124,47.979,438.192,48.66,437.411,49.617
	 M441.707,60.227c-0.202,0.453-0.894-0.139-1.613,0.277c-0.126,0.075-0.416-0.227-0.542-0.416c-0.97-1.386-4.234-0.504-3.818-3.1
	c0.277-1.676,1.084-3.301,1.802-4.889c0.214-0.466,1.008-1.084,1.399-1.008c0.529,0.101,1.222,0.756,1.335,1.273
	C440.762,54.72,441.82,57.883,441.707,60.227 M412.046,71.819c-0.592,1.21-0.075,2.369-0.164,2.848
	c-0.252,0.516-1.008-1.462-0.945,0.996c-0.97-0.101-1.071-0.907-1.147-1.374c0.164-2.369-1.021-1.966-0.453-4.763
	c0.062-0.391-0.038-1.651,0.944-1.273c0.365,0.605,1.197,0.504,1.147,1.222C411.731,70.597,411.983,71.265,412.046,71.819
	 M398.627,81.294c-0.693-0.277-0.126-1.411,0.239-2.054c0.807-1.449,2.583-3.213,2.962-2.621c-1.298,1.55,1.94,1.184,1.297,2.381
	c-0.781,1.437-1.713,5.544-2.835,4.461C399.912,82.933,400.354,82,398.627,81.294 M410.497,112.43
	c-1.31,0.302-0.101,1.462-1.121,1.449c-1.071,0.076-2.759-1.487-2.066-2.054c1.058-0.088,1.071-0.63,1.524-1.273
	C409.64,109.405,412.299,112.644,410.497,112.43 M439.124,119.511c0.139,0.227,0.063,0.491-0.063,0.718
	c-0.642,1.121-1.499,6.527-1.978,2.054c0.215-0.92,0.517-1.537-0.378-1.789c-1.185-0.315,0.693-0.832,1.033-2.583
	C438.62,117.911,438.81,119.045,439.124,119.511 M405.533,20.927c-0.341-0.39,1.965-4.687,3.011-3.717
	c0.58,0.743,0.303,2.079,0.769,2.81c0.894,1.386-0.832,2.281-1.336,2.293C406.691,22.35,407.473,21.09,405.533,20.927
	 M411.833,10.116c0.668,0.63-1.701,3.213-2.256,2.407c0.025-1.424-0.706-1.84-0.832-1.953c-0.554-0.643,1.286-1.84,2.054-1.537
	C410.837,9.007,411.038,9.662,411.833,10.116 M404.41,130.511c-1.474,0.05-0.478-0.34-2.053,1.676
	c-0.908,0.542-0.92-0.895-1.827,0.957c-0.529-0.995,0.176-1.613,0.592-1.991c5.292-1.5-0.126-5.179,4.309-3.528
	c0.454,0.151,1.588-1.122,1.865,0.075c-0.34,0.744,0.29,1.487-0.454,1.915C405.961,130.637,404.89,130.07,404.41,130.511
	 M397.065,57.581c-0.441,1.991,2.519,3.377,2.582,4.095c-0.189,0.857-2.041-1.764-1.033,1.827c-1.462,0.202-1.916-0.932-2.205-1.6
	c0.062-6.678-7.283-1.033-2.457-6.855c0.391-0.479-0.668-2.432,0.92-2.255c0.781,0.756,1.94,0.302,2.154,1.399
	C397.897,55.729,396.75,56.787,397.065,57.581"/>
</svg>
