<?xml version="1.0" encoding="utf-8"?>
<!-- Generator: Adobe Illustrator 27.0.1, SVG Export Plug-In . SVG Version: 6.00 Build 0)  -->
<svg version="1.1" id="레이어_1" xmlns="http://www.w3.org/2000/svg" xmlns:xlink="http://www.w3.org/1999/xlink" x="0px"
	 y="0px" viewBox="0 0 720 595.346" enable-background="new 0 0 720 595.346" xml:space="preserve">
<path fill="#0092D8" d="M231.784,97.656c-0.507,1.155-1.116,2.82-1.298,5.315c-0.162,2.395-0.264,5.195-0.305,8.197l40.458,230.555
	c1.886-0.467,3.287,7.081,5.315,7.548c2.333,0.547,2.456,14.892,2.11,22.725c-0.344,7.811,6.29,37.414,6.919,41.918l-0.954,4.24
	l7.792,44.294c3.043,3.408,6.31,0.121,6.37,3.164c0.061,1.948-2.495,3.288-4.951,4.992l0.731,4.199l-4.037,3.389l6.655,37.11
	l3.531-5.539l0.223,1.258l0.061-0.162l3.754,3.754l20.614-24.835l-22.785,30.597l5.295,30.13c4.666-0.446,5.742-6.37,7.224-11.788
	c1.36-4.85,3.896,0.731,7.568,4.748c1.014-3.368,3.429-6.817,4.93-9.111c1.604-2.414,4.464-3.814,7.243-5.112
	c9.009-11.728,18.281-23.78,27.736-36.056c1.624-6.776,21.548-29.663,23.842-33.925c1.359-2.536,4.606-5.113,8.318-7.812
	c40.032-51.86,81.667-105.629,119.528-154.244c2.557-3.267,5.094-6.554,7.669-9.82c0.69-7.243,12.357-13.797,11.525-18.057
	c0.934-0.041,3.511-2.151,6.616-4.931c37.739-47.519,76.31-94.064,115.713-139.595c1.643-4.95,6.755-9.983,7.568-13.451
	c2.415-0.142,17.49-16.577,20.573-20.391c1.36-1.725,3.023-2.8,4.89-3.875c10.53-11.911,21.121-23.74,31.774-35.487L710.91,0
	L699,2.11L568.475,172.931c-2.048,3.937-3.672,7.669-4.545,10.673c-2.435,8.32-16.13,24.206-22.014,29.157
	c2.171-6.006,10.063-14,10.55-18.889l-70.933,92.866c-0.061,2.476-0.102,4.099,1.217,5.174c-1.928,0.629-4.829,2.009-7.548,3.064
	L372.617,429.233l-1.624-3.347l50.4-66.795c0,0,6.35-8.156,4.666-12.396c-0.772,4.322-46.119,59.754-66.124,84.061l-7.102-42.995
	c-2.962,2.476-3.896,1.36-5.518-3.551c-1.604-4.93-4.383-23.963-6.737-24.491c-2.333-0.567-3.957-9.231-1.44-10.733l-3.429-1.745
	c-1.927-10.915-3.652-21.812-4.098-24.429c-0.832-4.93-9.354-50.988-11.221-53.22c1.563-2.902-4.463-14.041,0.123-17.552
	l-7.264-41.309c-2.516-5.438-5.844-10.307-9.901-10.653c2.211-5.62,2.171-16.881,0.04-23.901c-2.11-7.02-4.463-11.323-2.881-13.92
	c1.603-2.577-5.864-22.704-5.864-22.704l-0.487-1.969c-8.542-5.092-3.47,18.83-6.128,15.076
	c-3.349-4.748-11.261-35.142-12.255-39.323c-1.014-4.199-5.559,0.873-10.186-4.646c-4.646-5.538-11.281-19.417-14.203-13.207
	c-6.777,14.405,1.989,47.296,1.989,47.296l2.454,30.597c0,0-15.603-79.192-15.866-64.522c-0.244,14.628,19.844,124.62,19.844,124.62
	l-3.085,5.702L231.784,97.656z M612.565,123.322l83.067-110.518l-0.324,7.832L612.565,123.322z M306.837,503.575l-0.711-7.568
	l2.597,1.583l4.181-0.994L306.837,503.575z M291.356,426.758c-0.285,3.388,3.103,19.397,4.26,21.548l-2.069,4.261
	c0,0-0.69-3.835-0.467-6.534C293.324,443.314,288.901,427.569,291.356,426.758 M302.759,204.806l1.866,2.212l3.733,15.705
	l-2.171-1.481L302.759,204.806"/>
<path fill="#DF0615" d="M276.086,567.583l3.47-3.693l-23.699-134.38l-4.22-0.872c1.725-1.907-1.501-33.823-4.098-39.362
	c-2.09-4.464-4.099-21.731-4.809-34.209l-8.197-46.504l2.312,0.426l-6.513-38.063l-3.043-3.409l-15.543-88.118l-2.374-1.725
	l1.502-3.206v-0.04l-1.014-2.334c-2.395-3.936-5.033-24.104-7.427-36.481c-0.811-4.201-1.116-9.537-1.055-15.177l-13.777-78.056
	l-6.817,1.219l-35.203,49.467c-0.588,3.429-0.162,7.933,0.873,10.651c-3.49-4.504-4.342-3.713-6.149-3.226l-10.104,14.162
	l9.496,53.018l-1.887,1.968l4.201,23.821l3.388,2.515c0.223,2.131,3.631,22.32,3.631,22.32l-2.171,2.638l3.368,19.112
	c2.171,8.015,5.295,16.983,8.156,20.047c-2.536,4.199,1.279,31.672,3.328,40.093c1.827,7.547,6.168,20.431,3.755,26.275
	l6.716,38.084l1.602,4.707l12.437,14.102l18.83,101.551l-1.563,1.46l-20.513-101.125l-7.65-2.8l11.464,65.01l-3.47,7.507
	l12.642,76.026l1.927-3.146l-11.464-69.797l1.401-4.748l23.393,132.656l8.685-1.542l2.698,3.125c3.347-1.867,5.276-5.012,7.892-4.83
	l-0.264-2.962l3.349-3.084c1.521,1.624,3.428,3.328,5.62,4.363l5.864-1.055c-0.447-4.079,0.244-8.015,2.698-7.792l0.873,2.921
	c0.973,1.522,4.606,14.752,4.18,18.039c-0.447,3.307,2.982,3.388,2.251-3.023c-0.608-5.215-0.973-20.96-0.973-29.157
	c2.921-12.601,10.51-10.328,10.591-7.771c0.082,2.576,6.149,8.379,6.27,3.814l-9.232-57.603l2.516-2.679L276.086,567.583z
	 M197.544,169.394L180.642,63.948L165.14,85.434l0.082-3.043l16.982-25.565L200.1,170.836L197.544,169.394z M178.147,356.345
	c-0.102-2.597-1.604-8.258-1.766-13.432c0,0-0.324-7.406-0.487-11.24l-0.082-1.258c-0.061-1.827,0-0.812,0.082,1.258
	c0.528,5.397,3.206,14.1,3.936,18.625C180.602,355.189,178.228,358.922,178.147,356.345"/>
<polygon points="218.609,407.169 180.808,407.169 178.292,416.483 197.812,416.483 180.099,443.225 194.687,443.225 "/>
<path d="M245.89,427.337l5.438-20.169h-12.255l-9.699,36.056l24.692-7.446l3.206-11.87L245.89,427.337z M223.105,407.169
	l-9.699,36.056h12.255l9.698-36.056H223.105z"/>
<path d="M355.841,427.337l5.438-20.169h-12.255l-9.699,36.056l24.692-7.446l3.206-11.87L355.841,427.337z M333.056,407.169
	l-9.699,36.056h12.255l9.698-36.056H333.056z"/>
<polygon points="292.575,407.169 277.966,407.169 272.365,415.631 266.562,407.169 263.418,418.857 266.867,423.908 
	254.064,443.225 268.673,443.225 274.313,434.723 280.117,443.204 283.261,431.517 279.792,426.465 "/>
<path d="M297.193,407.167l-7.406,27.574h12.235l1.196-4.404h4.769l-3.47,12.884h13.615l9.698-36.055H297.193z M305.553,421.633
	l1.542-5.762h4.788l-1.562,5.762H305.553z"/>
<polygon points="483.169,407.169 475.762,434.743 487.998,434.743 493.09,415.873 497.859,415.873 490.493,443.225 504.108,443.225 
	513.806,407.169 "/>
<path d="M374.094,443.23h12.255l9.698-36.074h-12.255L374.094,443.23z M409.945,419.328h-11.159l4.199,23.901h11.18L409.945,419.328
	z M409.58,417.097l-1.765-9.942h-9.942l1.765,9.942H409.58z M405.259,410.258l0.649,3.755h-3.713l-0.67-3.755H405.259z"/>
<polygon points="417.425,440.16 447.129,440.16 449.807,430.218 420.102,430.218 "/>
<polygon points="426.381,411.43 423.702,421.373 448.131,421.373 450.81,411.43 "/>
<polygon points="466.049,430.074 462.498,443.222 469.315,443.222 472.846,430.074 "/>
<polygon points="458.778,430.074 459.223,436.649 463.139,436.649 462.672,430.074 "/>
<polygon points="453.726,430.074 454.192,436.649 458.108,436.649 457.621,430.074 "/>
<polygon points="375.815,417.193 364.918,417.193 363.376,422.957 370.458,420.826 368.834,426.852 373.217,426.852 "/>
<path d="M512.861,432.369h12.234l-2.921,10.856h-12.255L512.861,432.369z M531.873,407.169h-12.255l-6.149,22.908h12.235
	L531.873,407.169z"/>
<path d="M274.421,176.449H250.52l-17.714,100.394h4.038l-46.85,118.574h29.604l6.554-20.777h22.481l-0.772,20.777h30.071
	l-5.5-118.574h13.716l3.773-21.345h-29.44L274.421,176.449z M249.404,351.368h-15.827l16.638-50.338h0.305L249.404,351.368z
	 M129.125,271.081c3.105-2.82,5.762-6.554,7.974-11.241c2.192-4.687,3.896-10.55,5.154-17.57l11.605-65.821h-23.921l-12.763,72.414
	c-0.872,4.89-2.069,8.157-3.652,9.781c-1.583,1.643-3.47,2.454-5.702,2.454s-3.835-0.811-4.829-2.454
	c-1.015-1.624-1.076-4.89-0.224-9.781l12.783-72.414H91.65L80.044,242.27c-1.237,7.02-1.583,12.883-1.055,17.57
	c0.568,4.687,1.887,8.421,4.017,11.241c2.11,2.82,5.033,4.748,8.726,5.762c3.733,1.035,8.074,1.563,13.045,1.563
	c5.053,0,9.578-0.528,13.635-1.563C122.45,275.829,126.02,273.901,129.125,271.081 M0,276.844h23.881l7.305-41.33h28.528L63.325,215
	H34.818l3.003-17.165h30.456l3.793-21.386H17.693L0,276.844z M596.381,176.449l-39.666,100.394h24.206l-7.001,39.626l-4.971,44.556
	H589.3l11.059-44.556l6.959-39.626h23.801l-4.646-100.394H596.381z M605.674,276.742h-23.86l5.498-17.47h19.032L605.674,276.742z
	 M606.973,239.591h-13.351l14.061-42.608h0.264L606.973,239.591z M677.298,255.499l13.918-79.049h-23.901l-17.713,100.394h53.341
	l3.775-21.345H677.298z M410.891,176.449h-34.188l-20.128,59.49h-0.244l0.832-59.49h-34.169l-17.692,100.394h15.38l-20.899,118.574
	h26.437l12.925-73.287h0.284l5.926,73.287h30.982l20.919-118.676h-4.038L410.891,176.449z M340.627,276.742h-12.965l13.188-74.686
	h0.244L340.627,276.742z M370.839,276.742h-0.021l-12.883,73.145h-0.305l-5.316-73.043h5.52l25.93-74.788h0.264L370.839,276.742z
	 M476.427,255.499h-31.611l3.51-19.985h28.549L480.466,215h-28.508l3.023-17.165h30.456l3.773-21.386h-54.377L417.14,276.844h8.461
	l-20.898,118.574h28.243l20.919-118.574h18.789L476.427,255.499z M560.61,395.418h25.505l4.646-26.275h-25.525L560.61,395.418z
	 M544.073,284.655c-2.191-3.267-5.356-5.783-9.516-7.568l-2.677-0.934l13.655-77.467h17.998l3.936-22.238h-59.652l-3.895,22.238
	h17.733l-13.533,76.656c-2.982,0.528-5.742,1.319-8.279,2.312c-5.356,2.192-9.983,5.702-13.858,10.571
	c-3.896,4.871-7.183,11.262-9.82,19.113c-2.658,7.872-4.991,17.449-6.98,28.731c-1.948,11.099-3.105,20.533-3.408,28.344
	c-0.305,7.833,0.507,14.183,2.474,19.113c1.989,4.93,5.316,8.441,9.983,10.551c4.707,2.11,10.997,3.165,18.891,3.165
	c4.545,0,9.07-0.528,13.574-1.583c4.484-1.055,8.664-3.105,12.539-6.149c3.875-3.043,7.304-7.222,10.266-12.539
	c2.962-5.336,5.195-12.154,6.635-20.452l1.563-8.806h-27.351c-0.975,5.661-1.928,10.328-2.841,14.041
	c-0.913,3.734-1.866,6.675-2.861,8.887c-1.014,2.232-2.13,3.814-3.429,4.748l-4.504,1.401c-2.11,0-3.693-0.589-4.748-1.827
	c-1.055-1.198-1.643-3.368-1.745-6.472c-0.121-3.105,0.203-7.284,0.913-12.54c0.731-5.276,1.806-11.89,3.206-19.884
	c1.42-7.954,2.679-14.569,3.814-19.844c1.116-5.255,2.292-9.434,3.511-12.539c1.176-3.105,2.536-5.255,4.017-6.493
	c1.46-1.198,3.287-1.825,5.397-1.825c2.739,0,4.504,1.217,5.276,3.652c0.791,2.435,0.608,7.04-0.609,13.797l-1.176,6.655h27.35
	l1.299-7.487c1.035-5.742,1.319-10.936,0.852-15.542C547.625,291.858,546.306,287.922,544.073,284.655 M193.729,298.859
	c-0.447-4.424-1.664-8.279-3.673-11.546c-2.009-3.267-4.809-5.843-8.44-7.73c-3.105-1.624-6.919-2.495-11.342-2.739h42.995
	l3.754-21.345h-29.421l13.918-79.049h-23.881l-17.692,100.293h-34.169l-20.919,118.676h28.244l7.973-45.205h9.861
	c11.646,0,21.021-3.085,28.143-9.232c7.101-6.128,11.747-15.36,13.899-27.676C193.891,308.111,194.155,303.302,193.729,298.859
	 M163.801,313.486c-0.873,4.972-2.456,8.644-4.748,10.957c-2.294,2.333-5.195,3.49-8.746,3.49h-5.315l5.092-28.913h5.336
	C162.705,299.021,165.505,303.829,163.801,313.486"/>
<polygon points="149.654,453.138 140.32,506.014 127.741,506.014 137.073,453.138 "/>
<path d="M164.932,473.963l-0.691,3.917h0.123c1.786-3.165,4.362-4.728,7.73-4.728l2.841,0.385l2.11,1.381l1.095,2.677l-0.162,4.261
	l-4.26,24.165h-9.476l3.714-21.142l-0.021-2.902l-1.622-0.893l-1.928,0.893l-1.055,2.902l-3.733,21.142h-9.455l5.64-32.058H164.932z
	"/>
<polygon points="194.415,473.963 193.034,497.033 193.135,497.033 199.831,473.963 209.632,473.963 197.031,506.021 
	185.851,506.021 184.756,473.963 "/>
<path d="M225.005,473.965l-5.64,32.058h-9.496l5.661-32.058H225.005z M226.812,463.719l-1.401,7.954h-9.475l1.399-7.954H226.812z"/>
<path d="M236.243,497.859l0.303,1.34l1.806,1.136l2.03-0.71l1.176-2.009l-0.649-2.192l-2.313-1.359l-3.064-1.258l-2.982-1.766
	l-2.009-2.982c-0.488-1.258-0.528-2.882-0.183-4.91l1.38-3.936l2.638-3.165l3.916-2.131c1.522-0.507,3.226-0.77,5.154-0.77
	c7.122,0,10.104,3.347,8.928,10.063h-8.218l-0.162-2.8l-1.745-0.731l-1.846,0.629l-1.014,1.846l0.649,2.03l2.354,1.237l3.105,1.096
	l3.002,1.704l2.009,2.962c0.488,1.238,0.528,2.882,0.163,4.951l-1.543,4.322l-2.84,3.388l-3.957,2.11l-4.951,0.731
	c-3.976,0-6.655-0.893-8.095-2.659c-1.401-1.786-1.827-4.443-1.198-7.953h8.32L236.243,497.859"/>
<path d="M270.855,473.965l-5.641,32.058h-9.475l5.641-32.058H270.855z M272.681,463.719l-1.401,7.954h-9.475l1.38-7.954H272.681z"/>
<path d="M290.122,463.715l-2.456,13.877h0.123l2.941-3.469l3.775-0.975l3.529,0.791l2.272,2.679
	c0.528,1.217,0.812,2.882,0.853,4.971c0.02,2.069-0.224,4.646-0.772,7.73c-1.055,5.965-2.455,10.348-4.199,13.148
	c-1.766,2.8-4.22,4.201-7.407,4.201l-3.834-1.178l-1.745-3.854h-0.102l-0.772,4.381h-9.151l7.447-42.304H290.122z M284.826,494.291
	l-0.102,2.76l0.547,1.44l1.258,0.426l1.44-0.426l1.075-1.44l0.893-2.76l0.852-4.26l0.65-4.322l0.102-2.759l-0.568-1.461
	l-1.299-0.405l-1.38,0.405l-1.075,1.461l-0.893,2.759l-0.873,4.322L284.826,494.291"/>
<polygon points="321.584,463.719 314.138,506.024 304.642,506.024 312.108,463.719 "/>
<path d="M332.486,496.017l0.163,3.469l1.663,0.853l2.171-1.157c0.609-0.772,1.116-2.233,1.481-4.404h8.542
	c-0.772,3.957-2.192,6.919-4.261,8.908c-2.069,2.009-5.072,2.982-9.008,2.982c-2.272,0-4.14-0.264-5.6-0.852l-3.226-2.841
	c-0.711-1.319-1.076-3.064-1.096-5.173c-0.02-2.151,0.203-4.728,0.75-7.772c0.549-3.084,1.238-5.681,2.069-7.832
	c0.832-2.11,1.846-3.855,3.085-5.194l4.281-2.942c1.643-0.608,3.51-0.913,5.661-0.913c1.887,0,3.51,0.264,4.829,0.772l3.124,2.576
	c0.752,1.198,1.198,2.78,1.34,4.748c0.121,1.948-0.082,4.383-0.588,7.304l-0.589,3.267h-14.04L332.486,496.017z M339.832,480.84
	l-1.887-1.176l-2.232,1.176l-1.217,3.755l-0.224,1.399h5.195l0.243-1.399L339.832,480.84"/>
<polygon points="389.406,453.138 387.458,492.988 387.6,492.988 399.692,453.138 413.104,453.138 393.342,506.014 377.11,506.014 
	376.217,453.138 "/>
<path d="M424.694,473.965l-5.64,32.058h-9.476l5.641-32.058H424.694z M426.501,463.719l-1.381,7.954h-9.495l1.399-7.954H426.501z"/>
<path d="M445.008,483.355l-0.123-1.988l-1.866-1.339l-1.42,0.426l-1.157,1.622l-0.973,3.064c-0.324,1.278-0.67,2.902-0.994,4.89
	c-0.365,1.988-0.609,3.611-0.731,4.889l-0.082,3.064l0.568,1.563l1.278,0.426l2.233-1.116c0.588-0.731,1.075-2.13,1.42-4.139
	l0.385-2.09h8.521c-0.446,2.536-1.014,4.687-1.725,6.452l-2.718,4.402c-2.171,2.131-5.276,3.186-9.293,3.186l-4.91-0.528
	l-3.469-2.272c-0.873-1.178-1.42-2.8-1.624-4.91c-0.244-2.131-0.041-4.931,0.568-8.4c0.669-3.794,1.542-6.817,2.617-9.131
	c1.075-2.272,2.272-4.037,3.632-5.255l4.443-2.456l5.113-0.568c2.11,0,3.794,0.324,5.072,0.975l2.841,2.739l0.993,4.199
	c0.041,1.643-0.121,3.47-0.487,5.458h-8.521L445.008,483.355"/>
<polygon points="463.85,473.963 465.513,464.549 474.988,464.549 473.325,473.963 477.058,473.963 475.801,481.146 472.067,481.146 
	469.349,496.425 469.571,498.352 471.195,498.899 472.676,498.899 471.418,506.021 468.759,506.123 466.223,506.204 
	462.592,506.001 460.259,504.946 459.264,502.491 459.568,498.209 462.592,481.146 459.427,481.146 460.705,473.963 "/>
<path d="M502.281,496.204c-0.609,2.009-1.481,3.793-2.597,5.356l-4.302,3.734c-1.765,0.932-3.996,1.38-6.655,1.38
	c-2.759,0-4.889-0.406-6.35-1.258l-3.003-3.572c-0.547-1.501-0.75-3.287-0.629-5.336c0.142-2.009,0.426-4.199,0.812-6.533
	c0.385-2.11,0.872-4.14,1.501-6.168c0.609-2.009,1.481-3.794,2.597-5.377l4.322-3.834c1.786-0.975,4.017-1.441,6.655-1.441
	c2.78,0,4.91,0.426,6.35,1.319l2.983,3.652c0.547,1.543,0.77,3.328,0.629,5.377c-0.142,2.009-0.406,4.201-0.812,6.534
	C503.397,492.125,502.93,494.175,502.281,496.204 M488.261,494.986l-0.102,3.044l0.528,1.542l1.217,0.406l1.399-0.406l1.075-1.542
	l0.934-3.044c0.305-1.278,0.629-2.941,0.994-4.95c0.344-2.03,0.608-3.693,0.772-4.971l0.141-3.105l-0.547-1.542l-1.238-0.386
	l-1.38,0.386l-1.075,1.542l-0.954,3.105c-0.305,1.278-0.629,2.941-0.994,4.971C488.687,492.045,488.424,493.708,488.261,494.986"/>
<path d="M522.58,473.963l-0.893,5.113h0.102c0.872-1.948,1.988-3.408,3.307-4.422l4.099-1.502h1.521l-1.745,9.942l-1.176-0.182
	l-1.157-0.061l-4.139,1.257c-1.075,0.832-1.806,2.313-2.171,4.445l-3.084,17.469h-9.455l5.64-32.058H522.58z"/>
<path d="M533.102,508.756l1.034,0.062l1.563-0.305l1.095-0.69l0.65-0.791l0.284-0.649l0.02-0.954l-0.04-1.238l-2.171-30.232h9.759
	l-0.933,21.65h0.121l6.534-21.65h9.495l-13.473,32.951c-0.75,1.866-1.501,3.388-2.251,4.606l-2.456,2.861l-2.861,1.501l-3.429,0.406
	l-2.82-0.061l-2.456-0.183l1.299-7.466L533.102,508.756"/>
<polygon fill="#000" points="149.654,453.138 140.32,506.014 127.741,506.014 137.073,453.138 "/>
<path fill="#000" d="M164.932,473.963l-0.691,3.917h0.123c1.786-3.165,4.362-4.728,7.73-4.728l2.841,0.385l2.11,1.381
	l1.095,2.677l-0.162,4.261l-4.26,24.165h-9.476l3.714-21.142l-0.021-2.902l-1.622-0.893l-1.928,0.893l-1.055,2.902l-3.733,21.142
	h-9.455l5.64-32.058H164.932z"/>
<polygon fill="#000" points="194.415,473.963 193.034,497.033 193.135,497.033 199.831,473.963 209.632,473.963 197.031,506.021 
	185.851,506.021 184.756,473.963 "/>
<path fill="#000" d="M225.005,473.965l-5.64,32.058h-9.496l5.661-32.058H225.005z M226.812,463.719l-1.401,7.954h-9.475
	l1.399-7.954H226.812z"/>
<path fill="#000" d="M236.243,497.859l0.303,1.34l1.806,1.136l2.03-0.71l1.176-2.009l-0.649-2.192l-2.313-1.359l-3.064-1.258
	l-2.982-1.766l-2.009-2.982c-0.488-1.258-0.528-2.882-0.183-4.91l1.38-3.936l2.638-3.165l3.916-2.131
	c1.522-0.507,3.226-0.77,5.154-0.77c7.122,0,10.104,3.347,8.928,10.063h-8.218l-0.162-2.8l-1.745-0.731l-1.846,0.629l-1.014,1.846
	l0.649,2.03l2.354,1.237l3.105,1.096l3.002,1.704l2.009,2.962c0.488,1.238,0.528,2.882,0.163,4.951l-1.543,4.322l-2.84,3.388
	l-3.957,2.11l-4.951,0.731c-3.976,0-6.655-0.893-8.095-2.659c-1.401-1.786-1.827-4.443-1.198-7.953h8.32L236.243,497.859"/>
<path fill="#000" d="M270.855,473.965l-5.641,32.058h-9.475l5.641-32.058H270.855z M272.681,463.719l-1.401,7.954h-9.475
	l1.38-7.954H272.681z"/>
<path fill="#000" d="M290.122,463.715l-2.456,13.877h0.123l2.941-3.469l3.775-0.975l3.529,0.791l2.272,2.679
	c0.528,1.217,0.812,2.882,0.853,4.971c0.02,2.069-0.224,4.646-0.772,7.73c-1.055,5.965-2.455,10.348-4.199,13.148
	c-1.766,2.8-4.22,4.201-7.407,4.201l-3.834-1.178l-1.745-3.854h-0.102l-0.772,4.381h-9.151l7.447-42.304H290.122z M284.826,494.291
	l-0.102,2.76l0.547,1.44l1.258,0.426l1.44-0.426l1.075-1.44l0.893-2.76l0.852-4.26l0.65-4.322l0.102-2.759l-0.568-1.461
	l-1.299-0.405l-1.38,0.405l-1.075,1.461l-0.893,2.759l-0.873,4.322L284.826,494.291"/>
<polygon fill="#000" points="321.584,463.719 314.138,506.024 304.642,506.024 312.108,463.719 "/>
<path fill="#000" d="M332.486,496.017l0.163,3.469l1.663,0.853l2.171-1.157c0.609-0.772,1.116-2.233,1.481-4.404h8.542
	c-0.772,3.957-2.192,6.919-4.261,8.908c-2.069,2.009-5.072,2.982-9.008,2.982c-2.272,0-4.14-0.264-5.6-0.852l-3.226-2.841
	c-0.711-1.319-1.076-3.064-1.096-5.173c-0.02-2.151,0.203-4.728,0.75-7.772c0.549-3.084,1.238-5.681,2.069-7.832
	c0.832-2.11,1.846-3.855,3.085-5.194l4.281-2.942c1.643-0.608,3.51-0.913,5.661-0.913c1.887,0,3.51,0.264,4.829,0.772l3.124,2.576
	c0.752,1.198,1.198,2.78,1.34,4.748c0.121,1.948-0.082,4.383-0.588,7.304l-0.589,3.267h-14.04L332.486,496.017z M339.832,480.84
	l-1.887-1.176l-2.232,1.176l-1.217,3.755l-0.224,1.399h5.195l0.243-1.399L339.832,480.84"/>
<polygon fill="#000" points="389.406,453.138 387.458,492.988 387.6,492.988 399.692,453.138 413.104,453.138 393.342,506.014 
	377.11,506.014 376.217,453.138 "/>
<path fill="#000" d="M424.694,473.965l-5.64,32.058h-9.476l5.641-32.058H424.694z M426.501,463.719l-1.381,7.954h-9.495
	l1.399-7.954H426.501z"/>
<path fill="#000" d="M445.008,483.355l-0.123-1.988l-1.866-1.339l-1.42,0.426l-1.157,1.622l-0.973,3.064
	c-0.324,1.278-0.67,2.902-0.994,4.89c-0.365,1.988-0.609,3.611-0.731,4.889l-0.082,3.064l0.568,1.563l1.278,0.426l2.233-1.116
	c0.588-0.731,1.075-2.13,1.42-4.139l0.385-2.09h8.521c-0.446,2.536-1.014,4.687-1.725,6.452l-2.718,4.402
	c-2.171,2.131-5.276,3.186-9.293,3.186l-4.91-0.528l-3.469-2.272c-0.873-1.178-1.42-2.8-1.624-4.91
	c-0.244-2.131-0.041-4.931,0.568-8.4c0.669-3.794,1.542-6.817,2.617-9.131c1.075-2.272,2.272-4.037,3.632-5.255l4.443-2.456
	l5.113-0.568c2.11,0,3.794,0.324,5.072,0.975l2.841,2.739l0.993,4.199c0.041,1.643-0.121,3.47-0.487,5.458h-8.521L445.008,483.355"
	/>
<polygon fill="#000" points="463.85,473.963 465.513,464.549 474.988,464.549 473.325,473.963 477.058,473.963 475.801,481.146 
	472.067,481.146 469.349,496.425 469.571,498.352 471.195,498.899 472.676,498.899 471.418,506.021 468.759,506.123 
	466.223,506.204 462.592,506.001 460.259,504.946 459.264,502.491 459.568,498.209 462.592,481.146 459.427,481.146 
	460.705,473.963 "/>
<path fill="#000" d="M502.281,496.204c-0.609,2.009-1.481,3.793-2.597,5.356l-4.302,3.734c-1.765,0.932-3.996,1.38-6.655,1.38
	c-2.759,0-4.889-0.406-6.35-1.258l-3.003-3.572c-0.547-1.501-0.75-3.287-0.629-5.336c0.142-2.009,0.426-4.199,0.812-6.533
	c0.385-2.11,0.872-4.14,1.501-6.168c0.609-2.009,1.481-3.794,2.597-5.377l4.322-3.834c1.786-0.975,4.017-1.441,6.655-1.441
	c2.78,0,4.91,0.426,6.35,1.319l2.983,3.652c0.547,1.543,0.77,3.328,0.629,5.377c-0.142,2.009-0.406,4.201-0.812,6.534
	C503.397,492.125,502.93,494.175,502.281,496.204 M488.261,494.986l-0.102,3.044l0.528,1.542l1.217,0.406l1.399-0.406l1.075-1.542
	l0.934-3.044c0.305-1.278,0.629-2.941,0.994-4.95c0.344-2.03,0.608-3.693,0.772-4.971l0.141-3.105l-0.547-1.542l-1.238-0.386
	l-1.38,0.386l-1.075,1.542l-0.954,3.105c-0.305,1.278-0.629,2.941-0.994,4.971C488.687,492.045,488.424,493.708,488.261,494.986"/>
<path fill="#000" d="M522.58,473.963l-0.893,5.113h0.102c0.872-1.948,1.988-3.408,3.307-4.422l4.099-1.502h1.521l-1.745,9.942
	l-1.176-0.182l-1.157-0.061l-4.139,1.257c-1.075,0.832-1.806,2.313-2.171,4.445l-3.084,17.469h-9.455l5.64-32.058H522.58z"/>
<path fill="#000" d="M533.102,508.756l1.034,0.062l1.563-0.305l1.095-0.69l0.65-0.791l0.284-0.649l0.02-0.954l-0.04-1.238
	l-2.171-30.232h9.759l-0.933,21.65h0.121l6.534-21.65h9.495l-13.473,32.951c-0.75,1.866-1.501,3.388-2.251,4.606l-2.456,2.861
	l-2.861,1.501l-3.429,0.406l-2.82-0.061l-2.456-0.183l1.299-7.466L533.102,508.756"/>
</svg>
