<?xml version="1.0" encoding="utf-8"?>
<!-- Generator: Adobe Illustrator 27.0.1, SVG Export Plug-In . SVG Version: 6.00 Build 0)  -->
<svg version="1.1" id="레이어_1" xmlns="http://www.w3.org/2000/svg" xmlns:xlink="http://www.w3.org/1999/xlink" x="0px"
	 y="0px" viewBox="0 0 720 176.945" enable-background="new 0 0 720 176.945" xml:space="preserve">
<g>
	<path opacity="0.8" fill-rule="evenodd" clip-rule="evenodd" fill="#F19EC2" enable-background="new    " d="M363.174,173.32
		c-0.17-1.677-0.56-3.324-1.161-4.899c-0.658-1.428-1.092-2.949-1.288-4.508c-0.021-0.528,0.374-0.981,0.9-1.032
		c2.065,0,5.803,6.96,9.411,6.96c2.156,0.049,3.943-1.659,3.992-3.815c0-0.018,0.001-0.035,0.001-0.053
		c0-6.056-11.855-3.734-11.855-6.572c0-2.836,11.855-0.516,11.855-6.573c-0.021-2.156-1.786-3.886-3.941-3.865
		c-0.017,0-0.034,0-0.051,0.001c-3.607,0-7.345,6.957-9.411,6.957c-0.526-0.049-0.921-0.501-0.9-1.029
		c0.196-1.561,0.63-3.083,1.288-4.512c0.601-1.574,0.991-3.22,1.161-4.895c0.187-1.8-1.12-3.412-2.92-3.599
		c-0.186-0.019-0.374-0.023-0.561-0.01c-1.873-0.185-3.541,1.182-3.726,3.055c-0.018,0.184-0.021,0.37-0.01,0.554
		c0.156,1.692,0.591,3.346,1.287,4.895c0.567,1.452,0.957,2.967,1.161,4.512c0.021,0.529-0.376,0.981-0.903,1.029
		c-2.06,0-5.798-6.957-9.408-6.957c-2.156-0.05-3.945,1.658-3.994,3.815c0,0.016-0.001,0.033-0.001,0.049
		c0,6.057,11.857,3.738,11.857,6.573c0,2.838-11.857,0.516-11.857,6.572c0.02,2.157,1.785,3.889,3.942,3.869
		c0.018,0,0.035,0,0.053-0.001c3.609,0,7.347-6.96,9.408-6.96c0.527,0.049,0.924,0.503,0.903,1.032
		c-0.204,1.544-0.594,3.058-1.161,4.508c-0.696,1.551-1.131,3.206-1.287,4.899c-0.121,1.878,1.304,3.498,3.182,3.618
		c0.185,0.012,0.37,0.009,0.554-0.01c1.806,0.122,3.369-1.243,3.491-3.049C363.197,173.693,363.194,173.506,363.174,173.32z"/>
	<path fill="#955E4B" d="M228.515,155.1c0-1.477-0.082-6.482-0.123-7.18c-0.123-2.38-0.78-2.462-2.339-2.462h-1.313
		c-0.246,0-0.329-0.081-0.329-0.328v-0.944c0-0.246,0.082-0.369,0.329-0.369c0.574,0,2.543,0.164,5.99,0.123
		c1.313,0,3.775-0.123,5.99-0.123c2.46-0.172,4.927,0.206,7.222,1.108c2.08,1.05,3.313,3.258,3.118,5.58
		c0,3.282-1.723,5.252-5.58,6.688v0.204c4.677,1.231,7.385,3.693,7.385,8.042c0.009,2.475-1.184,4.801-3.2,6.236
		c-1.723,0.985-4.349,1.436-8.944,1.436c-1.64,0-4.349-0.123-5.99-0.123c-3.2,0-4.923,0.123-5.785,0.123
		c-0.162-0.002-0.291-0.134-0.29-0.296c0-0.011,0.001-0.022,0.002-0.033v-1.025c-0.016-0.142,0.086-0.271,0.228-0.288
		c0.02-0.002,0.04-0.002,0.059,0h1.764c1.231,0,1.517-0.492,1.641-1.765c0.082-0.985,0.165-6.4,0.165-9.764L228.515,155.1z
		 M233.521,156.824c0.656,0.041,1.231,0.041,1.887,0.041c1.54,0.078,3.064-0.339,4.35-1.19c1.431-1.19,2.221-2.983,2.133-4.842
		c0.09-1.601-0.579-3.151-1.805-4.185c-1.386-0.924-3.012-1.424-4.678-1.436c-0.412-0.016-0.825,0.011-1.231,0.082
		c-0.286,0.102-0.491,0.355-0.533,0.656c-0.042,0.78-0.123,4.309-0.123,7.755L233.521,156.824z M237.049,171.799
		c3.2,0,6.155-1.518,6.155-6.524c0.219-2.763-1.373-5.351-3.939-6.4c-1.495-0.552-3.085-0.803-4.677-0.738h-1.067v8.205
		C233.521,170.2,234.423,171.799,237.049,171.799z"/>
	<path fill="#955E4B" d="M311.409,164.537c0.082,0.082,0.082,0.165,0.082,0.411c-0.164,0.246-1.805,7.057-2.051,8.165
		c-1.067-0.041-12.883-0.123-17.068-0.123c-3.693,0-5.169,0.123-5.662,0.123c-0.328,0-0.328-0.082-0.328-0.369v-0.944
		c0-0.246,0-0.328,0.246-0.328h1.641c1.477,0,1.723-0.575,1.723-1.107c0-0.739,0.165-10.996,0.165-13.458v-2.298
		c0-2.626-0.082-6.975-0.165-7.672c-0.082-1.067-0.246-1.477-1.313-1.477h-1.723c-0.192-0.013-0.337-0.177-0.328-0.369v-0.944
		c0-0.246,0.082-0.328,0.328-0.328c0.41,0,1.888,0.123,5.662,0.123c4.431,0,6.155-0.123,6.483-0.123s0.41,0.164,0.41,0.369v0.944
		c0,0.164-0.082,0.328-0.41,0.328h-2.216c-1.231,0-1.395,0.411-1.395,1.518c0,0.574-0.164,6.728-0.164,9.6v3.529
		c0,0.739,0,9.6,0.164,11.365h2.298c2.297,0,5.252,0,6.892-0.204c2.298-0.328,4.925-5.252,5.498-6.811
		c0.165-0.164,0.247-0.246,0.492-0.164L311.409,164.537z"/>
	<path fill="#955E4B" d="M433.291,146.191c3.208,3.382,4.918,7.914,4.742,12.572c0.066,3.299-0.831,6.546-2.58,9.344
		c-2.107,3.786-6.128,6.104-10.46,6.031c-2.852-0.106-5.603-1.085-7.881-2.804c-2.476-1.826-5.091-6.456-5.091-12.572
		c0.025-3.748,1.139-7.408,3.208-10.534c2.052-3.459,5.813-5.538,9.833-5.437C428.161,142.712,431.15,143.946,433.291,146.191z
		 M419.9,147.04c-2.117,3.003-3.217,6.605-3.139,10.279c0,11.043,5.579,14.951,8.509,14.951c7.044,0,8.16-9.514,8.16-13.082
		c0-9.259-5.16-14.526-8.508-14.526C422.937,144.463,421.004,145.378,419.9,147.04L419.9,147.04z"/>
	<path fill="#955E4B" d="M488.22,158.212c0-1.231,0-11.406-0.059-11.57h-0.119c-0.236,0.574-3.958,12.555-4.313,13.622
		c-0.443,1.313-3.456,10.996-3.604,11.406c-0.119,0.328-0.354,0.903-0.65,0.903c-0.177,0-0.354-0.246-0.472-0.738
		c-0.119-0.246-3.958-13.048-4.135-13.704c-0.531-1.887-3.249-11.078-3.604-11.57c-0.119,0.575-0.148,10.913-0.148,11.407
		c0,0.493-0.029,7.467,0.148,10.133c0.119,1.887,0.472,3.447,1.418,3.447h1.3c0.178,0,0.237,0.165,0.237,0.288v1.025
		c0,0.165-0.059,0.328-0.295,0.328c-0.296,0-1.122-0.123-3.367-0.123c-2.541,0-3.545,0.123-3.84,0.123
		c-0.237,0-0.237-0.082-0.237-0.369v-1.026c0-0.081,0-0.246,0.177-0.246h0.839c1.004,0,1.329-1.477,1.477-2.913
		c0.266-2.872,0.443-12.965,0.443-13.704v-7.017c0-1.477-0.147-2.38-1.447-2.38h-0.78c-0.177,0-0.236-0.164-0.236-0.287v-1.107
		c-0.003-0.133,0.103-0.243,0.236-0.246c0.296,0,1.064,0.123,4.194,0.123c1.418,0,2.245-0.123,2.599-0.123
		c0.354,0,0.562,0.164,0.709,0.696c1.063,3.857,4.806,16.411,5.692,19.776c0.266-0.738,2.051-6.441,2.819-8.861
		c0.532-1.724,3.19-10.175,3.338-10.996c0.089-0.411,0.443-0.492,1.152-0.492c4.313,0.041,6.022-0.123,6.376-0.123
		c0.119,0,0.177,0.164,0.177,0.369v0.861c0,0.246-0.059,0.41-0.236,0.41h-0.332c-0.768,0-0.827,0.739-0.857,1.601
		c-0.029,0.902-0.029,9.108-0.029,10.175v2.872c0,2.462,0.059,8.452,0.059,9.15c0.029,1.559,0.295,2.215,0.827,2.215h0.63
		c0.177,0,0.177,0.165,0.177,0.288v0.944c0,0.246,0,0.41-0.237,0.41c-0.354,0-1.772-0.123-4.372-0.123
		c-2.894,0-4.017,0.123-4.431,0.123c-0.177,0-0.236-0.164-0.236-0.369v-0.944c0-0.246,0.059-0.328,0.236-0.328h1.831
		c0.532,0,0.768-0.246,0.857-1.436c0.029-0.41,0.089-6.319,0.089-9.6L488.22,158.212z"/>
	<g>
		<g>
			<path fill="#955E4B" d="M271.891,118.941h-6.551v-0.876c0.418,0.018,0.837-0.035,1.237-0.157
				c0.242-0.071,0.441-0.243,0.548-0.471c0.098-0.288,0.141-0.592,0.128-0.896v-8.112c0.044-0.424-0.081-0.848-0.348-1.181
				c-0.467-0.291-1.02-0.412-1.566-0.343v-0.877h6.551v0.877c-0.419-0.018-0.838,0.037-1.238,0.162
				c-0.24,0.073-0.439,0.244-0.547,0.471c-0.098,0.286-0.142,0.588-0.129,0.89v8.113c-0.011,0.294,0.031,0.587,0.124,0.866
				c0.102,0.228,0.293,0.404,0.529,0.485c0.406,0.135,0.834,0.194,1.262,0.172V118.941z"/>
			<path fill="#955E4B" d="M280.993,116.675c0.012,0.511-0.162,1.008-0.491,1.4c-0.36,0.41-0.824,0.714-1.343,0.88
				c-0.634,0.21-1.298,0.312-1.966,0.3c-0.508-0.001-1.015-0.05-1.514-0.148c-0.463-0.083-0.912-0.231-1.333-0.442l-0.372,0.533
				h-0.742l-0.095-2.476h0.799c0.184,0.479,0.522,0.883,0.962,1.148c0.661,0.38,1.419,0.557,2.18,0.509
				c0.261-0.001,0.522-0.019,0.781-0.052c0.286-0.037,0.561-0.136,0.805-0.29c0.255-0.154,0.403-0.436,0.386-0.733
				c0.01-0.27-0.148-0.518-0.396-0.624c-0.478-0.2-0.974-0.358-1.48-0.47c-0.876-0.223-1.594-0.434-2.152-0.634
				c-0.529-0.182-1.013-0.476-1.419-0.861c-0.389-0.379-0.6-0.905-0.581-1.447c-0.007-0.738,0.389-1.42,1.033-1.78
				c0.822-0.472,1.761-0.7,2.708-0.657c0.564-0.015,1.127,0.043,1.676,0.171c0.362,0.094,0.716,0.218,1.057,0.371l0.229-0.486h0.762
				v2.208h-0.781c-0.083-0.281-0.249-0.53-0.476-0.714c-0.288-0.236-0.624-0.407-0.985-0.5c-0.464-0.124-0.943-0.184-1.424-0.176
				c-0.446,0-0.892,0.048-1.328,0.143c-0.441,0.095-0.662,0.321-0.662,0.676c-0.005,0.133,0.041,0.262,0.128,0.362
				c0.126,0.121,0.278,0.212,0.443,0.267c0.362,0.128,0.73,0.235,1.104,0.323c0.527,0.133,0.841,0.212,0.943,0.238
				c0.889,0.205,1.745,0.528,2.547,0.962C280.684,115.096,281.07,115.873,280.993,116.675z"/>
			<path fill="#955E4B" d="M293.437,117.246c-0.258,0.61-0.671,1.142-1.2,1.542c-0.476,0.317-1.038,0.479-1.609,0.466
				c-0.589,0.048-1.176-0.114-1.657-0.457c-0.327-0.259-0.558-0.619-0.657-1.024c-0.087-0.418-0.128-0.844-0.124-1.271v-4.485
				h-1.438v-0.875c0.544,0.013,1.083-0.105,1.572-0.344c0.425-0.211,0.787-0.529,1.052-0.923c0.252-0.375,0.42-0.801,0.491-1.248
				h0.781v2.515h2.694v0.875h-2.694v4.542c-0.015,0.401,0.021,0.803,0.109,1.195c0.064,0.238,0.293,0.394,0.538,0.367
				c0.293,0.006,0.571-0.126,0.752-0.357c0.222-0.276,0.413-0.574,0.571-0.89L293.437,117.246z"/>
			<path fill="#955E4B" d="M304.653,118.941h-4.894v-0.876c0.32,0.034,0.641-0.049,0.905-0.233c0.175-0.182,0.265-0.429,0.248-0.681
				v-3.199c0.002-0.287-0.019-0.574-0.062-0.857c-0.042-0.256-0.156-0.495-0.328-0.69c-0.213-0.221-0.514-0.334-0.819-0.309
				c-0.318,0.005-0.63,0.088-0.909,0.243c-0.289,0.144-0.534,0.362-0.709,0.633c-0.164,0.257-0.279,0.543-0.338,0.843
				c-0.052,0.323-0.076,0.649-0.071,0.975v1.638c-0.007,0.326,0.01,0.652,0.052,0.976c0.028,0.195,0.135,0.371,0.295,0.486
				c0.245,0.138,0.525,0.199,0.805,0.176v0.876h-4.99v-0.876c0.318,0.017,0.637-0.029,0.938-0.134
				c0.179-0.066,0.317-0.212,0.372-0.395c0.058-0.283,0.082-0.573,0.072-0.862v-7.989c0.038-0.336-0.043-0.675-0.229-0.957
				c-0.344-0.213-0.751-0.302-1.152-0.252v-0.857l3.838-0.818v6.427c0.351-0.374,0.742-0.707,1.167-0.995
				c0.509-0.297,1.093-0.437,1.681-0.404c0.335,0.001,0.668,0.048,0.99,0.142c0.318,0.09,0.619,0.231,0.891,0.419
				c0.24,0.159,0.438,0.375,0.575,0.628c0.282,0.56,0.417,1.183,0.391,1.809v2.847c-0.034,0.377,0.037,0.756,0.204,1.095
				c0.136,0.196,0.496,0.295,1.081,0.295V118.941z"/>
			<path fill="#955E4B" d="M314.251,114.752h-5.857c0.007,0.12,0.024,0.377,0.052,0.771c0.033,0.413,0.123,0.82,0.267,1.209
				c0.151,0.415,0.419,0.777,0.772,1.043c0.429,0.302,0.947,0.452,1.471,0.425c0.418-0.017,0.83-0.103,1.219-0.257
				c0.505-0.194,0.937-0.54,1.237-0.99l0.742,0.505c-0.768,1.211-2.14,1.903-3.57,1.8c-0.678,0.008-1.352-0.098-1.995-0.314
				c-0.562-0.188-1.082-0.486-1.528-0.876c-0.413-0.366-0.741-0.818-0.961-1.324c-0.224-0.517-0.338-1.075-0.333-1.638
				c-0.005-0.748,0.187-1.483,0.557-2.133c0.376-0.659,0.928-1.2,1.595-1.562c0.727-0.395,1.543-0.595,2.371-0.58
				c0.773-0.025,1.537,0.169,2.204,0.561c0.575,0.347,1.036,0.853,1.329,1.457C314.107,113.441,314.254,114.093,314.251,114.752z
				 M311.89,113.875c0-1.448-0.571-2.171-1.714-2.171c-0.498-0.026-0.975,0.199-1.272,0.6c-0.316,0.463-0.487,1.01-0.491,1.571
				H311.89z"/>
			<path fill="#955E4B" d="M329.98,115.018c0.044,1.598-0.873,3.066-2.328,3.728c-0.734,0.344-1.536,0.518-2.346,0.509
				c-0.781,0.004-1.555-0.155-2.271-0.466c-0.704-0.302-1.31-0.793-1.752-1.418c-0.469-0.686-0.708-1.503-0.681-2.333
				c-0.075-1.214,0.452-2.387,1.409-3.137c0.965-0.723,2.146-1.1,3.351-1.071c0.867-0.023,1.725,0.173,2.495,0.571
				c0.664,0.348,1.215,0.88,1.585,1.533C329.8,113.569,329.985,114.288,329.98,115.018z M327.353,114.96
				c0.047-0.835-0.1-1.669-0.429-2.437c-0.345-0.579-0.998-0.9-1.667-0.819c-0.44-0.027-0.875,0.099-1.232,0.357
				c-0.325,0.288-0.543,0.677-0.619,1.104c-0.131,0.637-0.19,1.287-0.176,1.937c-0.029,0.809,0.103,1.615,0.391,2.371
				c0.315,0.636,1.001,1,1.705,0.904c0.491,0.034,0.973-0.149,1.319-0.5c0.308-0.348,0.51-0.778,0.58-1.237
				C327.315,116.085,327.358,115.523,327.353,114.96L327.353,114.96z"/>
			<path fill="#955E4B" d="M339.378,112.333c0.017,0.325-0.106,0.642-0.338,0.871c-0.212,0.207-0.498,0.322-0.795,0.318
				c-0.385-0.012-0.741-0.211-0.952-0.533c-0.094-0.123-0.2-0.238-0.314-0.342c-0.101-0.076-0.226-0.113-0.353-0.105
				c-0.512,0.011-0.968,0.328-1.157,0.804c-0.271,0.516-0.413,1.089-0.414,1.671v1.657c-0.034,0.377,0.037,0.756,0.205,1.095
				c0.136,0.196,0.496,0.295,1.08,0.295h0.505v0.876h-5.913v-0.876h0.496c0.533,0,0.86-0.102,0.98-0.306
				c0.147-0.342,0.21-0.714,0.181-1.085v-2.78c0.018-0.31-0.026-0.621-0.129-0.914c-0.089-0.187-0.259-0.323-0.461-0.367
				c-0.351-0.073-0.709-0.103-1.067-0.091v-0.876l3.713-0.818c0.145,0.68,0.234,1.371,0.267,2.066
				c0.179-0.377,0.415-0.724,0.699-1.029c0.279-0.303,0.608-0.558,0.971-0.753c0.337-0.185,0.715-0.283,1.1-0.285
				c0.454-0.024,0.9,0.133,1.238,0.437C339.218,111.541,339.384,111.928,339.378,112.333z"/>
			<path fill="#955E4B" d="M350.491,118.827c-1.238,0.044-2.47,0.187-3.685,0.428c-0.114-0.321-0.172-0.659-0.171-0.999
				c-0.745,0.641-1.693,0.995-2.676,0.999c-0.734,0.004-1.455-0.197-2.081-0.581c-0.637-0.386-1.162-0.933-1.523-1.585
				c-0.376-0.666-0.572-1.42-0.566-2.185c0.001-0.496,0.085-0.988,0.248-1.457c0.169-0.49,0.432-0.941,0.776-1.329
				c0.361-0.409,0.808-0.732,1.309-0.947c0.563-0.237,1.17-0.354,1.781-0.343c0.426-0.009,0.851,0.052,1.257,0.181
				c0.298,0.095,0.581,0.235,0.838,0.414c0.226,0.17,0.439,0.356,0.638,0.557v-3.123c0.015-0.308-0.02-0.617-0.105-0.914
				c-0.063-0.177-0.212-0.31-0.395-0.353c-0.312-0.064-0.629-0.095-0.947-0.095v-0.876l3.903-0.818v10.664
				c-0.011,0.319,0.01,0.637,0.062,0.952c0.042,0.179,0.173,0.325,0.347,0.386c0.32,0.1,0.655,0.15,0.99,0.147L350.491,118.827z
				 M346.634,117.027v-3.855c-0.278-0.335-0.598-0.632-0.952-0.885c-0.383-0.272-0.844-0.412-1.314-0.4
				c-0.311,0-0.615,0.089-0.876,0.257c-0.267,0.165-0.492,0.39-0.657,0.657c-0.333,0.69-0.478,1.455-0.419,2.219
				c-0.058,0.836,0.15,1.67,0.595,2.38c0.329,0.497,0.885,0.797,1.481,0.8c0.417,0.002,0.828-0.106,1.19-0.314
				C346.056,117.669,346.381,117.377,346.634,117.027L346.634,117.027z"/>
			<path fill="#955E4B" d="M360.011,114.752h-5.856c0.007,0.12,0.024,0.377,0.052,0.771c0.034,0.413,0.123,0.82,0.267,1.209
				c0.15,0.415,0.418,0.778,0.772,1.043c0.429,0.302,0.947,0.452,1.471,0.425c0.418-0.017,0.83-0.103,1.219-0.257
				c0.505-0.194,0.937-0.54,1.237-0.99l0.743,0.505c-0.768,1.211-2.14,1.903-3.57,1.8c-0.678,0.008-1.352-0.098-1.995-0.314
				c-0.562-0.188-1.082-0.486-1.528-0.876c-0.413-0.366-0.741-0.818-0.961-1.324c-0.224-0.517-0.338-1.075-0.333-1.638
				c-0.005-0.748,0.187-1.483,0.557-2.133c0.376-0.659,0.929-1.2,1.595-1.562c0.727-0.395,1.543-0.595,2.371-0.58
				c0.773-0.025,1.537,0.169,2.204,0.561c0.575,0.347,1.036,0.853,1.329,1.457C359.868,113.442,360.014,114.093,360.011,114.752z
				 M357.65,113.875c0-1.448-0.571-2.171-1.714-2.171c-0.498-0.026-0.975,0.199-1.271,0.6c-0.316,0.463-0.487,1.01-0.491,1.571
				H357.65z"/>
			<path fill="#955E4B" d="M369.285,112.333c0.017,0.325-0.106,0.642-0.338,0.871c-0.212,0.207-0.498,0.322-0.795,0.318
				c-0.385-0.012-0.741-0.211-0.952-0.533c-0.094-0.123-0.2-0.238-0.314-0.342c-0.101-0.076-0.226-0.113-0.353-0.105
				c-0.512,0.011-0.968,0.328-1.157,0.804c-0.271,0.516-0.413,1.089-0.414,1.671v1.657c-0.034,0.377,0.037,0.756,0.205,1.095
				c0.136,0.196,0.496,0.295,1.08,0.295h0.505v0.876h-5.913v-0.876h0.495c0.533,0,0.86-0.102,0.98-0.306
				c0.147-0.342,0.21-0.714,0.181-1.085v-2.78c0.018-0.31-0.026-0.621-0.129-0.914c-0.089-0.187-0.259-0.323-0.461-0.367
				c-0.351-0.073-0.709-0.103-1.067-0.091v-0.876l3.713-0.818c0.145,0.68,0.234,1.371,0.267,2.066
				c0.179-0.377,0.415-0.724,0.699-1.029c0.279-0.303,0.608-0.558,0.971-0.753c0.337-0.185,0.715-0.283,1.1-0.285
				c0.454-0.024,0.9,0.133,1.238,0.437C369.125,111.541,369.291,111.928,369.285,112.333z"/>
			<path fill="#955E4B" d="M384.674,116.932c0.013,0.43-0.089,0.855-0.295,1.233c-0.182,0.326-0.46,0.588-0.795,0.752
				c-0.353,0.166-0.739,0.249-1.128,0.243c-0.473,0.018-0.94-0.114-1.334-0.376c-0.323-0.204-0.552-0.528-0.638-0.9
				c-0.886,0.783-2.017,1.234-3.199,1.276c-0.602,0.026-1.195-0.15-1.686-0.5c-0.423-0.304-0.669-0.798-0.657-1.319
				c-0.005-0.433,0.117-0.858,0.352-1.223c0.269-0.397,0.622-0.73,1.034-0.976c0.511-0.313,1.055-0.567,1.623-0.757
				c0.629-0.219,1.413-0.45,2.352-0.691v-0.542c0.022-0.381-0.091-0.757-0.319-1.062c-0.316-0.296-0.746-0.437-1.176-0.386
				c-0.378-0.035-0.756,0.074-1.057,0.306c-0.24,0.252-0.391,0.577-0.429,0.923c-0.037,0.258-0.133,0.504-0.28,0.719
				c-0.225,0.221-0.54,0.325-0.852,0.281c-0.254,0.004-0.502-0.076-0.705-0.229c-0.207-0.161-0.321-0.414-0.304-0.676
				c0.032-0.646,0.396-1.229,0.962-1.542c0.899-0.501,1.924-0.73,2.951-0.657c1.013-0.106,2.031,0.143,2.88,0.704
				c0.529,0.481,0.816,1.171,0.786,1.885v3.009c0,0.381,0.009,0.66,0.028,0.838c0.007,0.148,0.063,0.29,0.157,0.404
				c0.231,0.203,0.583,0.181,0.786-0.05c0.019-0.022,0.037-0.045,0.052-0.069c0.127-0.181,0.192-0.398,0.185-0.619L384.674,116.932z
				 M380.303,117.008v-2.36c-0.842,0.192-1.629,0.574-2.3,1.118c-0.291,0.284-0.466,0.665-0.491,1.071
				c-0.012,0.262,0.085,0.517,0.267,0.705c0.204,0.188,0.476,0.284,0.753,0.266c0.322,0.007,0.639-0.068,0.924-0.219
				C379.755,117.421,380.038,117.226,380.303,117.008L380.303,117.008z"/>
			<path fill="#955E4B" d="M398.146,112.333c0.017,0.325-0.106,0.642-0.338,0.871c-0.212,0.207-0.498,0.322-0.795,0.318
				c-0.385-0.012-0.74-0.211-0.952-0.533c-0.094-0.123-0.2-0.238-0.314-0.342c-0.101-0.076-0.226-0.113-0.353-0.105
				c-0.512,0.011-0.968,0.327-1.157,0.804c-0.271,0.516-0.413,1.089-0.414,1.671v1.657c-0.034,0.377,0.036,0.756,0.204,1.095
				c0.137,0.196,0.497,0.295,1.08,0.295h0.505v0.876H389.7v-0.876h0.495c0.533,0,0.86-0.102,0.98-0.306
				c0.147-0.342,0.21-0.714,0.181-1.085v-2.78c0.018-0.31-0.026-0.621-0.129-0.914c-0.089-0.187-0.259-0.323-0.462-0.367
				c-0.351-0.073-0.709-0.103-1.067-0.091v-0.876l3.713-0.818c0.145,0.68,0.234,1.371,0.267,2.066
				c0.179-0.377,0.415-0.724,0.699-1.029c0.279-0.303,0.608-0.558,0.971-0.753c0.337-0.185,0.716-0.283,1.1-0.285
				c0.454-0.024,0.9,0.133,1.238,0.437C397.986,111.541,398.152,111.928,398.146,112.333z"/>
			<path fill="#955E4B" d="M408.658,116.932c0.013,0.43-0.089,0.855-0.295,1.233c-0.182,0.326-0.46,0.588-0.795,0.752
				c-0.353,0.166-0.739,0.249-1.128,0.243c-0.473,0.018-0.94-0.114-1.334-0.376c-0.323-0.204-0.552-0.528-0.638-0.9
				c-0.886,0.783-2.017,1.234-3.199,1.276c-0.602,0.026-1.195-0.15-1.686-0.5c-0.423-0.304-0.669-0.798-0.657-1.319
				c-0.005-0.433,0.117-0.858,0.352-1.223c0.269-0.397,0.622-0.73,1.033-0.976c0.511-0.313,1.055-0.567,1.623-0.757
				c0.629-0.219,1.413-0.45,2.352-0.691v-0.542c0.022-0.381-0.091-0.757-0.319-1.062c-0.316-0.296-0.746-0.437-1.176-0.386
				c-0.378-0.035-0.756,0.074-1.057,0.306c-0.24,0.252-0.391,0.577-0.429,0.923c-0.037,0.258-0.133,0.504-0.28,0.719
				c-0.225,0.221-0.54,0.325-0.852,0.281c-0.254,0.004-0.502-0.077-0.705-0.229c-0.207-0.161-0.321-0.414-0.304-0.676
				c0.032-0.646,0.396-1.23,0.962-1.542c0.899-0.501,1.924-0.73,2.951-0.657c1.013-0.106,2.031,0.143,2.88,0.704
				c0.529,0.481,0.816,1.171,0.786,1.885v3.009c0,0.381,0.009,0.66,0.028,0.838c0.007,0.148,0.063,0.29,0.157,0.404
				c0.231,0.203,0.583,0.181,0.786-0.05c0.019-0.022,0.037-0.045,0.052-0.069c0.127-0.181,0.192-0.398,0.185-0.619L408.658,116.932z
				 M404.288,117.008v-2.36c-0.842,0.192-1.629,0.574-2.3,1.118c-0.291,0.284-0.466,0.665-0.491,1.071
				c-0.012,0.262,0.085,0.517,0.267,0.705c0.204,0.188,0.476,0.284,0.753,0.266c0.322,0.007,0.639-0.068,0.924-0.219
				C403.739,117.421,404.023,117.226,404.288,117.008L404.288,117.008z"/>
			<path fill="#955E4B" d="M419.132,114.979c0.005,0.586-0.108,1.168-0.333,1.71c-0.215,0.518-0.534,0.986-0.938,1.375
				c-0.397,0.383-0.866,0.684-1.38,0.885c-0.523,0.205-1.081,0.309-1.643,0.306c-0.608,0.016-1.21-0.119-1.752-0.395
				c-0.47-0.249-0.882-0.594-1.209-1.014c-0.455,0.439-0.878,0.91-1.266,1.409h-0.742v-10.55c0.016-0.271-0.028-0.543-0.129-0.795
				c-0.086-0.168-0.244-0.287-0.428-0.323c-0.306-0.059-0.616-0.09-0.928-0.091v-0.857l3.941-0.837v6.16
				c0.339-0.315,0.718-0.582,1.128-0.795c0.525-0.246,1.102-0.362,1.681-0.337c0.594-0.011,1.184,0.109,1.727,0.352
				c0.486,0.22,0.918,0.546,1.264,0.952c0.333,0.394,0.589,0.846,0.755,1.334C419.048,113.953,419.133,114.465,419.132,114.979z
				 M416.494,114.904c0.014-0.721-0.12-1.437-0.394-2.105c-0.264-0.611-0.895-0.981-1.557-0.914
				c-0.283,0.001-0.562,0.057-0.823,0.166c-0.272,0.112-0.526,0.265-0.752,0.452c-0.238,0.198-0.454,0.421-0.643,0.667v3.875
				c0.283,0.416,0.677,0.745,1.138,0.948c0.321,0.125,0.66,0.194,1.005,0.205c0.477,0.024,0.94-0.171,1.257-0.529
				c0.31-0.361,0.521-0.795,0.615-1.261C416.443,115.913,416.495,115.409,416.494,114.904L416.494,114.904z"/>
			<path fill="#955E4B" d="M430.367,114.979c0.004,0.586-0.109,1.168-0.333,1.71c-0.215,0.518-0.534,0.986-0.938,1.375
				c-0.398,0.383-0.868,0.684-1.382,0.885c-0.523,0.205-1.08,0.309-1.641,0.306c-0.608,0.016-1.211-0.119-1.753-0.395
				c-0.47-0.248-0.883-0.594-1.209-1.014c-0.455,0.439-0.878,0.91-1.265,1.409h-0.743v-10.55c0.016-0.271-0.028-0.542-0.128-0.795
				c-0.086-0.168-0.244-0.286-0.429-0.323c-0.306-0.059-0.616-0.09-0.928-0.091v-0.857l3.941-0.837v6.16
				c0.339-0.315,0.719-0.582,1.129-0.795c0.525-0.246,1.101-0.362,1.68-0.337c0.595-0.011,1.185,0.109,1.728,0.352
				c0.486,0.22,0.917,0.546,1.262,0.952c0.333,0.394,0.589,0.846,0.757,1.334C430.282,113.953,430.367,114.465,430.367,114.979z
				 M427.729,114.904c0.014-0.721-0.121-1.438-0.396-2.105c-0.264-0.611-0.894-0.981-1.556-0.914
				c-0.283,0.001-0.562,0.057-0.823,0.166c-0.272,0.112-0.525,0.265-0.752,0.452c-0.239,0.197-0.455,0.421-0.644,0.667v3.875
				c0.283,0.416,0.677,0.745,1.138,0.948c0.321,0.125,0.66,0.194,1.004,0.205c0.477,0.024,0.94-0.171,1.257-0.529
				c0.31-0.361,0.521-0.795,0.614-1.261C427.677,115.913,427.73,115.409,427.729,114.904z"/>
			<path fill="#955E4B" d="M436.766,118.941h-5.17v-0.876h0.276c0.276,0.019,0.553-0.034,0.803-0.153
				c0.161-0.091,0.274-0.247,0.309-0.428c0.045-0.267,0.065-0.538,0.058-0.809v-2.828c0.011-0.281-0.013-0.563-0.072-0.838
				c-0.057-0.174-0.195-0.309-0.371-0.362c-0.326-0.094-0.665-0.136-1.005-0.124v-0.876l3.903-0.818v5.846
				c-0.033,0.376,0.036,0.755,0.2,1.095c0.133,0.196,0.489,0.295,1.068,0.295L436.766,118.941z M435.69,107.105
				c-0.013,0.755-0.635,1.357-1.39,1.344c-0.755-0.013-1.357-0.635-1.344-1.39s0.635-1.357,1.39-1.344
				c0.354,0.006,0.693,0.149,0.943,0.4C435.553,106.375,435.698,106.734,435.69,107.105L435.69,107.105z"/>
			<path fill="#955E4B" d="M444.173,117.246c-0.258,0.61-0.671,1.142-1.199,1.542c-0.476,0.317-1.038,0.479-1.61,0.466
				c-0.589,0.048-1.176-0.114-1.656-0.457c-0.327-0.258-0.558-0.619-0.657-1.024c-0.087-0.418-0.129-0.844-0.125-1.271v-4.485
				h-1.437v-0.875c0.543,0.013,1.082-0.105,1.57-0.344c0.425-0.212,0.787-0.53,1.053-0.923c0.253-0.375,0.42-0.801,0.491-1.248h0.78
				v2.515h2.696v0.875h-2.696v4.542c-0.016,0.401,0.021,0.803,0.11,1.195c0.064,0.239,0.293,0.395,0.539,0.367
				c0.293,0.006,0.571-0.126,0.752-0.357c0.221-0.276,0.413-0.574,0.572-0.89L444.173,117.246z"/>
			<path fill="#955E4B" d="M446.295,106.391c0.764-0.639,1.749-0.954,2.742-0.875c1.035-0.062,2.056,0.258,2.87,0.9
				c0.675,0.57,1.055,1.416,1.033,2.3c0.007,0.4-0.064,0.798-0.209,1.171c-0.299,0.683-0.801,1.258-1.437,1.647
				c-0.279,0.178-0.47,0.3-0.572,0.367c-0.102,0.067-0.306,0.196-0.614,0.386c-0.272,0.154-0.498,0.377-0.657,0.647
				c-0.176,0.478-0.261,0.985-0.253,1.494h-0.581l-0.018-0.828c0.064-0.762,0.31-1.497,0.718-2.143
				c0.472-0.843,0.72-1.794,0.718-2.761c0.036-0.636-0.105-1.269-0.409-1.829c-0.287-0.439-0.791-0.687-1.314-0.648
				c-0.303-0.029-0.606,0.061-0.843,0.253c-0.154,0.137-0.245,0.332-0.253,0.538c-0.002,0.069,0.011,0.137,0.038,0.2
				c0.04,0.072,0.088,0.139,0.143,0.2l0.133,0.161c0.126,0.146,0.23,0.31,0.309,0.486c0.067,0.176,0.098,0.364,0.092,0.553
				c0.014,0.328-0.119,0.645-0.363,0.866c-0.52,0.454-1.303,0.427-1.789-0.062c-0.278-0.303-0.419-0.708-0.391-1.118
				C445.411,107.562,445.74,106.871,446.295,106.391z M447.766,116.403c0.644-0.646,1.691-0.648,2.337-0.003
				c0.646,0.644,0.648,1.691,0.003,2.337c-0.644,0.646-1.691,0.648-2.337,0.003c-0.311-0.31-0.486-0.731-0.486-1.17
				C447.277,117.131,447.451,116.708,447.766,116.403L447.766,116.403z"/>
		</g>
		<path fill="#955E4B" d="M379.318,83.595c-0.858-1.311-2.195-2.235-3.725-2.574c-1.143-0.093-2.292-0.069-3.43,0.073
			c-2.514-0.011-5.015-0.377-7.427-1.087c-5.262-1.475-12.542-6.155-12.186-12.401c-0.022-0.166-0.043-0.332-0.051-0.497
			c-0.05-0.007-0.09-0.018-0.138-0.023c-1.242,1.07-2.054,2.554-2.285,4.177c-0.42,3.059,0.348,6.163,2.145,8.674
			c3.131,4.625,9.092,7.592,16.944,8.726c3.63,0.529,7.422,0.805,9.527-0.953c1.308-0.953,1.595-2.786,0.641-4.094
			C379.329,83.609,379.323,83.602,379.318,83.595z M396.024,73.661c-1.01,1.39-2.592,2.252-4.307,2.348
			c-3.273,0.08-6.834-3.617-9.114-5.597c-0.547-0.477-1.691-1.951-0.73-2.789c0.058-0.042,0.12-0.079,0.185-0.11
			c0.794,0.408,1.627,0.735,2.486,0.974c1.598,0.474,4.165,0.587,4.806-1.349c0.682-2.059-1.001-4.886-1.891-6.682
			c-1.084-2.214-2.418-4.296-3.975-6.206c-0.65-0.795-6.254-7.558-7.026-7.221c-2.854,1.319-5.811,2.406-8.84,3.248
			c-3.435,0.931-7.049,0.987-10.511,0.164c-2.899-0.741-5.509-2.333-7.495-4.571c-1.727-1.755-2.464-4.258-1.962-6.669
			c0.104-0.536,0.396-1.016,0.825-1.354c0.592,0.542,1.212,1.052,1.858,1.528c4.416,3.659,10.229,5.171,15.868,4.126
			c1.435-0.296,2.834-0.955,4.234-1.387c-1.09-1.121-2.318-2.1-3.654-2.913c-1.362-0.928-2.67-1.934-3.916-3.013
			c-1.159-1.118-1.838-2.643-1.894-4.252c-0.09-1.24,0.456-2.44,1.448-3.188c0.275-0.126,0.588-0.142,0.875-0.047
			c0.562,0.121,2.004,2.792,2.511,3.343c0.936,0.994,1.953,1.907,3.042,2.731c2.306,1.794,4.806,3.331,7.003,5.264
			c0.728-0.362,1.395-0.753,2.067-1.169c2.287-1.428,5.434-5.972,8.488-4.868c1.281,0.285,2.148,1.481,2.018,2.787
			c-0.209,1.888-1.206,3.6-2.747,4.713c-1.337,1.176-2.797,2.204-4.354,3.068c4.823,4.049,9.075,8.733,12.64,13.925
			c1.974,2.953,3.167,6.359,3.466,9.898C397.606,70.261,397.109,72.131,396.024,73.661L396.024,73.661z"/>
		<path fill="#955E4B" d="M435.271,82.76c-0.891-0.186-1.8-0.273-2.711-0.259c-2.269-0.149-4.504-0.633-6.632-1.437
			c-0.658-0.26-1.296-0.566-1.909-0.917c-4.231-1.538-8.385-5.496-8.643-9.783c-0.165-0.045-0.338-0.054-0.507-0.025
			c-1.932,0.397-2.104,3.88-1.801,5.657c1.134,6.284,6.451,10.269,14.147,12.774c2.805,1.068,5.839,1.395,8.807,0.949
			c1.635-0.25,2.82-1.689,2.754-3.341C438.443,84.577,437.061,83.151,435.271,82.76z M456.394,53.597
			c-0.955,1.587-2.414,2.808-4.143,3.469c-1.68,0.922-3.44,1.689-5.258,2.292c0.948,1.748,1.926,3.454,3.017,5.21
			c1.2,1.586,2.233,3.291,3.083,5.089c0.857,2.146,0.712,4.563-0.396,6.591c-0.53,0.838-1.24,1.548-2.079,2.079
			c-3.868,2.42-8.618-2.468-10.523-5.2c0.061-0.336,0.23-0.644,0.482-0.875c1.36,1.096,3.991,2.087,5.322,0.472
			c1.473-1.786,0.043-4.227-0.798-5.909c-0.256-0.515-2.671-5.914-2.804-5.885c-5.228,1.066-11.202,2.83-17.844,2.021
			c-3.891-0.266-7.366-2.532-9.176-5.987c-0.599-1.127-2.062-4.051-0.477-4.809c1.6,1.49,3.544,2.56,5.659,3.115
			c1.233,0.52,2.519,0.904,3.835,1.146c0.494,0.152,0.996,0.276,1.503,0.373c5.192,0.983,9.781-0.353,13.926-1.335
			c-0.916-2.156-1.943-4.264-3.076-6.314c-4.121,1.002-8.454,0.645-12.356-1.016c-2.467-0.968-4.55-2.716-5.93-4.978
			c-0.515-0.946-1.164-2.797,0.043-3.339c0.642,0.506,1.377,0.923,1.779,1.187c4.02,2.413,8.727,3.425,13.384,2.877
			c-0.133,0.02-4.201-5.741-4.726-6.354c-1.938-2.101-3.685-4.371-5.222-6.782c-0.546-0.625-0.483-1.574,0.142-2.121
			c0.025-0.022,0.051-0.043,0.077-0.063c0.616-0.743,1.506-1.207,2.468-1.287c0.787,0.043,1.534,0.357,2.115,0.89
			c1.656,1.621,3.132,3.415,4.404,5.352c1.292,1.575,2.402,3.29,3.309,5.114c0.442,0.915,1.337,3.574,2.594,3.655
			c0.565,0.038,1.676-1.129,2.175-1.405c0.839-0.499,1.768-0.828,2.734-0.969c1.577-0.281,3.083,0.77,3.363,2.347
			c0.106,0.593,0.024,1.204-0.234,1.749c-0.905,1.967-3.722,2.997-5.648,3.853c0.981,2.097,2.055,4.101,3.074,6.153
			c2.9-0.7,5.235-2.95,8.006-3.916c0.231-0.121,0.475-0.213,0.728-0.274C454.781,49.612,457.259,51.427,456.394,53.597z
			 M465.797,36.421c-3.074-0.108-4.237-3.474-6.3-5.13c-0.829-0.648-1.736-1.189-2.7-1.611c-0.323-0.147-3.007-0.89-3.03-1.008
			c-0.025-0.068-0.041-0.138-0.05-0.21c-0.04-1.59,2.588-1.551,4.031-1.623c3.294-0.272,6.593,0.471,9.452,2.13
			c0.722,0.484,1.317,1.135,1.732,1.899c1,1.811,0.342,4.09-1.469,5.089C466.952,36.24,466.381,36.399,465.797,36.421z
			 M460.358,41.7c-0.878,1.709-2.917,2.464-4.696,1.739c-2.052-0.871-2.994-3.376-4.357-4.969c-1.619-1.663-3.745-2.74-6.043-3.06
			c-0.017-0.118-0.02-0.237-0.007-0.356c0.176-1.083,1.866-1.155,2.97-1.241c3.614-0.431,7.266,0.399,10.34,2.348
			C460.375,37.369,461.117,39.661,460.358,41.7z"/>
		<g>
			<path fill="#955E4B" d="M52.851,38.203c0.781-2.069,0.017-4.402-1.836-5.608c-2.701-1.764-5.888-2.635-9.111-2.489
				c-0.537,0-1.081,0.019-1.627,0.059l-0.185,0.014c-1.108,0.083-2.623,0.198-2.776,1.146c-0.013,0.099-0.011,0.2,0.004,0.299
				l0.421,0.028c2.253,0.362,4.323,1.459,5.886,3.121c0.472,0.579,0.905,1.187,1.299,1.821c0.72,1.408,1.839,2.572,3.216,3.349
				C49.926,40.624,51.938,39.88,52.851,38.203z"/>
			<path fill="#955E4B" d="M58.852,32.565c1.151,0.011,2.22-0.594,2.804-1.586c0.737-1.215,0.811-2.72,0.198-4.002
				c-0.425-0.776-1.03-1.438-1.765-1.93c-2.971-1.718-6.395-2.487-9.815-2.203l-0.391,0.016c-1.48,0.057-3.716,0.143-3.683,1.513
				l-0.119,0.222l0.166-0.037c0.08,0.006,1.139,0.327,1.839,0.54c0.589,0.179,1.112,0.34,1.247,0.4
				c1.026,0.449,1.991,1.025,2.873,1.716c0.742,0.651,1.41,1.382,1.993,2.179c1.205,1.523,2.451,3.098,4.52,3.17l0.118,0.156
				l0.013-0.001L58.852,32.565L58.852,32.565z"/>
			<path fill="#955E4B" d="M187.378,93.498c0.193-0.001,0.385-0.021,0.573-0.061c2.209-1.908,4.568-3.635,7.056-5.162
				c0.111-0.064,0.536-0.266,1.128-0.532c0.051-0.023,4.896-2.204,6.071-2.484c-0.363-0.593-1.948-0.947-2.836-1.146l-0.502-0.115
				c-0.73-0.184-1.46-0.354-2.157-0.516c-0.696-0.162-1.356-0.318-1.949-0.469c-5.081-1.158-9.943-3.124-14.401-5.824
				c-2.068-1.274-3.936-2.848-5.541-4.671l-0.074-0.085l0.502-1.017c2.93-5.516,5.332-11.296,7.175-17.264
				c0.319-0.173,0.659-0.304,1.011-0.391c1.302-0.372,2.923-0.835,3.018-1.956c0.081-1.028-1.07-1.858-1.91-2.464
				c-1.715-1.246-3.576-2.346-5.375-3.41c-1.281-0.757-2.49-1.472-3.517-2.159l-0.436-0.292l0.524-0.02
				c1.803-0.068,3.653-0.098,5.526-0.098c5.854,0,11.93,0.301,15.991,0.528l0.629,0.039c0.688,0.045,1.523,0.1,2.337,0.1
				c1.899,0,2.939-0.311,3.092-0.925c0.304-1.192-1.138-2.323-1.913-2.93l-0.16-0.127c-3.022-2.447-6.202-4.692-9.519-6.721
				c-0.081,0.121-0.859,1.257-2.195,3.388c-0.133,0.213-0.226,0.36-0.258,0.407c-0.156,0.238-0.316,0.496-0.48,0.764
				c-0.886,1.446-1.89,3.086-3.673,3.147c-0.515-0.022-1.531-0.034-2.867-0.077c-2.273-0.075-5.386-0.177-7.236-0.177
				c-0.499-0.03-0.999-0.009-1.493,0.063l-0.093-0.133h-0.17v-0.017c0.006-1.854-0.029-3.602-0.064-5.371
				c-0.028-1.431-0.057-2.875-0.065-4.399c0.286-0.304,0.621-0.559,0.99-0.754c0.854-0.509,1.821-1.088,1.821-1.993
				c-0.003-1.271-2.297-1.996-3.971-2.526c-0.338-0.107-0.654-0.208-0.925-0.303c-1.997-0.735-4.031-1.365-6.094-1.887
				c-0.283-0.005-0.565,0.017-0.843,0.067c-0.155,0.027-0.312,0.045-0.469,0.054c-0.334,2.01-0.395,4.056-0.181,6.082
				c0.005,0.112,0.444,11.264,0.261,11.464c-2.763,0.199-4.721,0.08-7.107,0.044c-1.658-0.025-3.429-0.051-5.49-0.051
				c-2.748,0-5.974-0.061-9.589-0.181l-0.425-0.019c-0.315-0.015-0.633-0.03-0.932-0.03c-0.484,0-1.155,0.036-1.379,0.342
				c0.59,1.399,1.583,2.59,2.853,3.422c0.171-0.044,0.471-0.099,0.777-0.153c0.245-0.045,0.492-0.089,0.737-0.114
				c0.676-0.077,1.361-0.144,2.02-0.193c7.594-0.56,15.625-0.596,23.391-0.632c2.026-0.01,4.034-0.019,6.008-0.037l0.194-0.002
				l-0.024,0.193c-1.04,8.404-2.245,16.446-5.523,22.479l-0.117,0.216l-0.161-0.187c-3.61-4.629-6.594-9.713-8.875-15.122
				l-0.185-0.412c-0.215-0.642-0.569-1.227-1.038-1.715c-0.816-0.321-1.728-0.298-2.527,0.063c-0.117,0.056-0.23,0.122-0.336,0.197
				c-1.954,2.459-4.509,4.371-7.419,5.553c0.041,1.44,0.608,2.814,1.594,3.864c0.599,0.844,1.52,1.402,2.545,1.542
				c0.229-0.041,0.453-0.107,0.667-0.2c0.637-0.508,1.245-1.054,1.819-1.633c0.675-0.87,1.367-1.67,2.035-2.439
				c0.078-0.092,0.154-0.19,0.23-0.289c0.234-0.389,0.589-0.691,1.01-0.86l0.146-0.041l0.722,1.801
				c1.9,5.085,4.144,10.034,6.716,14.813c0.318,0.555-1.378,2.785-5.038,6.626c-3.141,3.201-6.693,5.971-10.562,8.238
				c-2.078,1.262-3.791,2.215-5.391,2.998c-0.516,0.252-5.221,1.799-6.085,2.081c0.103,0.445,0.747,0.653,1.336,0.678l0.28,0.006
				c1.271-0.057,2.53-0.274,3.747-0.647l0.571-0.147c4.131-1.123,8.166-2.57,12.069-4.328c3.734-1.491,7.273-3.433,10.536-5.783
				c0.476-0.377,0.931-0.779,1.364-1.205c0.472-0.468,0.975-0.904,1.506-1.304l0.138-0.1l0.1,0.139
				c0.543,0.761,1.064,1.537,1.582,2.315c1.471,2.432,3.275,4.645,5.361,6.575c2.217,1.794,4.579,3.402,7.061,4.806l0.331,0.197
				c0.71,0.514,1.529,0.859,2.393,1.007l0.024,0.167l0,0V93.498z"/>
			<path fill="#955E4B" d="M41.508,79.814c-0.738,0.02-1.474,0.081-2.205,0.181c-1.115,0.228-2.209,0.545-3.273,0.948
				c-1.604,0.587-3.248,1.059-4.919,1.414c-2.388,0.477-4.818,0.716-7.253,0.712c-6.329,0-14.328-1.417-17.796-5.395
				c-1.471-1.668-2.11-3.91-1.74-6.103c-0.068-1.28,0.258-2.551,0.934-3.64C3.462,68.401,0,72.274,0,76.517
				c0,11.36,18.867,13.848,26.137,13.848c11.454,0,20.772-3.22,20.772-7.179C46.91,81.17,44.739,79.814,41.508,79.814z"/>
			<path fill="#955E4B" d="M260.485,73.894l-0.112-0.038l-0.003-0.119c-0.023-0.92-0.077-1.858-0.128-2.774l-0.091-1.851
				c-0.136-2.01-0.454-7.439-0.454-14.366v-2.541l0.121-0.037c6.691-2.017,10.083-4.61,10.083-7.707
				c0-2.728-2.371-3.351-4.664-3.953c-0.242-0.078-0.589-0.203-0.998-0.36l-1.491-0.886c0.001,0.045,0.003,0.089,0.004,0.133
				l0.005,0.173c0.247,0.394,0.551,0.75,0.901,1.057c0.176,0.165,0.341,0.342,0.495,0.529c1.334,1.881,1.415,3.328,0.242,4.301
				c-0.587,0.462-1.308,0.722-2.055,0.741c-0.699,0.056-1.348-0.364-1.583-1.024c-0.108-0.462-0.091-0.944,0.048-1.397
				c0.061-0.251,0.098-0.506,0.111-0.764c0.003-0.438,0.022-0.934,0.042-1.459c0.14-1.552,0.067-3.117-0.218-4.649
				c-0.781-2.776-4.236-5.503-6.245-5.512c-1.787-0.023-3.391,1.095-3.988,2.78l0.196,0.141c0.987,0.706,1.669,1.203,1.793,1.34
				c0.562,0.642,0.988,1.391,1.252,2.203c0.508,1.797,0.71,3.666,0.599,5.53v0.541c0.094,1.168,0.076,2.343-0.054,3.508
				c-0.34,0.515-2.459,0.448-6.324-0.24c-2.142-0.385-4.24-0.979-6.266-1.774c-0.167-0.066-0.399-0.179-0.667-0.309
				c-0.823-0.404-2.075-0.969-2.496-0.735c-0.135,0.078-0.227,0.212-0.252,0.366c0.025,1.105,0.388,2.176,1.039,3.068
				c0.684,0.962,1.485,1.834,2.384,2.598c2.868,2.168,6.39,3.294,9.984,3.192c0.827,0.006,1.654-0.044,2.474-0.15l0.19-0.025
				l0.013,1.142c0.066,6.422,0.136,12.504,0.204,15.447v2.546l-0.193-0.025c-1.194-0.157-2.396-0.236-3.6-0.237
				c-8.306,0-14.811,3.846-14.811,8.754c0,4.706,5.331,8.992,11.184,8.992c6.007-0.126,11.181-4.272,12.612-10.108l0.062-0.221
				l0.194,0.122c2.243,1.406,4.133,3.308,5.526,5.559c1.314,2.089,2.605,2.528,3.455,2.528c1.944-0.235,3.347-1.977,3.162-3.927
				C272.165,80.223,266.103,75.813,260.485,73.894z M252.441,80.711c-0.708,0.915-1.609,1.663-2.638,2.192
				c-1.22,0.611-2.552,0.965-3.915,1.041c-0.27,0.018-0.542,0.027-0.813,0.027c-1.917,0.05-3.805-0.466-5.43-1.485
				c-0.475-0.296-0.636-0.912-0.366-1.402c0.852-1.482,2.249-2.574,3.893-3.042c1.706-0.753,3.556-1.124,5.42-1.085
				c1.754,0.027,3.499,0.249,5.204,0.659C254.02,77.986,252.458,80.688,252.441,80.711z"/>
			<path fill="#955E4B" d="M230.455,61.063c0.055-0.105,0.204-0.417,0.386-0.804c0.482-1.015,0.761-1.592,0.932-1.92
				c-0.973,0.463-1.841,1.122-2.549,1.935l-0.394,0.387c-1.332,1.402-2.428,3.011-3.245,4.763c-0.528,1.017-0.995,2.055-1.534,3.299
				c-0.084,0.195-0.234,0.475-0.403,0.79c-0.436,0.66-0.735,1.401-0.878,2.179v0.005l-0.338,0.04
				c-0.074-0.619-0.112-1.242-0.113-1.866c0-4.95,2.131-10.357,4.01-15.127c0.415-1.072,0.821-2.024,1.195-2.893
				c1.055-2.007,1.675-4.214,1.821-6.477c0.048-4.619-2.716-8.804-6.984-10.572c-0.514-0.242-1.054-0.442-1.596-0.641
				c-0.855-0.281-1.678-0.652-2.456-1.105c-0.065,0.124-0.112,0.256-0.141,0.393c-0.181,0.826,0.832,2.272,1.571,3.329
				c0.29,0.392,0.555,0.801,0.795,1.225c1.131,2.137,1.773,4.499,1.878,6.914c-0.084,2.142-0.41,4.268-0.969,6.338l-0.29,1.295
				c-0.355,1.56-0.774,3.154-1.201,4.781c-1.644,5.395-2.57,10.984-2.753,16.621c0,6.662,1.842,17.231,6.788,17.231
				c1.726-0.094,3.05-1.57,2.955-3.296c-0.003-0.058-0.008-0.116-0.014-0.174c-0.019-0.841-0.202-1.67-0.537-2.441
				c-1.411-3.438-0.548-7.073,0.287-10.588c0.148-0.621,0.294-1.236,0.426-1.844c0.151-0.702,0.294-1.406,0.437-2.111
				C228.057,67.385,229.038,64.133,230.455,61.063z"/>
			<path fill="#955E4B" d="M24.003,36.705c-2.489,0.144-5.065,0.291-7.609,0.239c-1.706-0.014-3.408-0.163-5.09-0.447
				c-0.89-0.144-1.765-0.37-2.613-0.676c-0.303-0.147-0.594-0.317-0.871-0.507c-0.38-0.27-0.789-0.496-1.22-0.675l-0.2,0.034v0.873
				c0,0.907,3.333,6.412,12.088,7.185c0.557,0.04,1.118,0.06,1.674,0.079l0.179,0.006c0.557,0.017,1.108,0.038,1.655,0.074
				l0.308,0.019l-0.181,0.25c-0.501,0.691-1.368,1.793-2.376,3.023l-1.759,2.951c-0.22,0.669-0.438,1.375-0.604,2.094l0.013,0.042
				h0.247c3.499-4.607,9.438-5.924,14.682-7.087l0.62-0.138c0.454-0.102,0.998-0.168,1.576-0.238
				c2.239-0.273,4.776-0.582,4.776-3.054c0-2.132-2.949-4.508-7.182-4.508c-0.635,0.009-1.27,0.052-1.9,0.129
				c-0.665,0.076-1.334,0.118-2.004,0.124C26.812,36.543,25.407,36.624,24.003,36.705z"/>
			<path fill="#955E4B" d="M66.948,89.409c0.167,0.106,0.328,0.208,0.472,0.308c0.415,0.289,0.881,0.6,1.36,0.923l0.496,0.338
				c0.81,0.722,1.824,1.173,2.902,1.292c0.758-0.102,1.424-1.315,1.794-2.417c0.822-2.393,1.45-5.012,2.058-7.544
				c0.255-1.067,0.503-2.101,0.755-3.069c0.549-2.081,1.024-4.495,1.484-6.829c0.283-1.434,0.566-2.875,0.87-4.262l0.074-0.299
				c0.155-0.593,0.624-2.401,0.257-2.875c-0.049-0.066-0.129-0.103-0.211-0.097c-0.722,0.127-1.253,1.507-1.537,2.249l-0.143,0.363
				c-2.594,6.796-6.384,13.073-11.191,18.534c-0.326,0.351-0.67,0.686-1.03,1.002c-0.047,0.224-0.062,0.454-0.044,0.683
				C65.461,88.466,66.252,88.968,66.948,89.409z"/>
			<path fill="#955E4B" d="M62.953,54.352c-0.064,0.13-0.11,0.268-0.139,0.41c0.903-0.185,1.821-0.29,2.743-0.313
				c0.651-0.012,1.299,0.088,1.915,0.296c1.071,0.468,2.065,1.095,2.948,1.859c1.175,1.155,2.684,1.912,4.312,2.164
				c0.795-0.017,1.561-0.304,2.171-0.815c0.575-0.661,0.866-1.521,0.812-2.396c0.075-1.4-0.435-2.769-1.407-3.779
				c-1.33-1.301-3.192-1.903-5.032-1.628c-2.404,0.36-4.68,1.318-6.617,2.786l-0.337,0.232
				C63.793,53.47,63.328,53.872,62.953,54.352z"/>
			<path fill="#955E4B" d="M83.412,89.349c0.266,0,0.538-0.007,0.812-0.021c10.534-0.481,21.902-0.705,35.773-0.705
				c1.102,0,2.28,0.03,3.483,0.061c1.024,0.027,2.065,0.053,3.092,0.061c0.29,0.002,0.657,0.022,1.063,0.043
				c0.525,0.028,1.116,0.06,1.696,0.06c1.769,0,2.678-0.314,2.778-0.961c0.108-0.791-0.721-1.545-1.269-2.045
				c-1.587-1.447-2.55-2.317-4.025-3.605c-0.157-0.141-0.33-0.32-0.514-0.509c-0.394-0.492-0.897-0.887-1.468-1.155
				c-2.056-0.474-3.209,1.131-4.246,2.704l-0.335,0.502c-0.055,0.082-0.143,0.224-0.252,0.4c-0.807,1.299-1.346,2.074-1.711,2.196
				c-0.607,0.103-1.226,0.119-1.838,0.047c-0.292-0.019-0.569-0.038-0.796-0.038c-0.907,0-1.776,0.01-2.627,0.02
				c-1.655,0.019-3.239,0.037-4.902-0.02l-0.165-0.006v-0.165c0.003-3.16-0.014-5.93-0.032-8.693
				c-0.022-3.605-0.045-7.197-0.022-11.62v-0.155l0.154-0.014c1.185-0.109,2.583-0.159,4.402-0.159c0.96,0,1.948,0.013,2.947,0.026
				c1.63,0.023,3.294,0.047,4.931,0.01l0.204-0.005c1.074-0.027,2.871-0.071,3.047-0.759c0.238-0.952-1.208-2.138-1.752-2.584
				l-0.133-0.11c-0.858-0.757-1.795-1.419-2.794-1.976l-0.242-0.272c-0.28-0.438-0.695-0.772-1.182-0.954
				c-1.195-0.219-2.397,0.343-2.994,1.401c-0.173,0.272-0.327,0.557-0.461,0.851c-0.611,1.229-1.122,2.169-1.677,2.169l-2.874,0.004
				l-1.576-0.006V63.2c-0.003-1.315-0.017-2.419-0.029-3.52c-0.017-1.497-0.035-2.989-0.03-5c0.247-0.284,0.539-0.524,0.866-0.71
				c0.716-0.453,1.392-0.883,1.306-1.805c-0.094-0.988-1.74-1.623-2.828-2.044l-0.241-0.093c-0.983-0.379-1.987-0.701-3.007-0.965
				c-0.403-0.112-0.788-0.219-1.149-0.329l0.049-0.334c1.961-0.005,3.876-0.086,5.903-0.172c2.119-0.09,4.308-0.183,6.575-0.183
				l0.859,0.004c1.011,0.011,2.046,0.034,3.076,0.055c1.255,0.027,2.501,0.054,3.682,0.059c0.421,0.003,0.86,0.036,1.3,0.068
				c0.598,0.057,1.199,0.076,1.8,0.056c1.03-0.073,2.162-0.383,2.245-1.031c0.079-0.667-0.65-1.361-1.182-1.867l-0.23-0.22
				c-0.977-0.941-2.004-1.829-3.076-2.661l-0.917-0.739c-0.13-0.106-0.288-0.251-0.461-0.41c-0.443-0.481-0.98-0.866-1.577-1.132
				c-1.123-0.386-2.352,0.175-2.795,1.276l-0.827,1.337c-0.626,1.022-1.217,1.987-1.897,2.9c-2.973,0.073-6.011,0.15-9.115,0.232
				c-5.459,0.142-11.412,0.258-15.875,0.063c-0.429-0.016-0.864-0.052-1.295-0.089c-0.547-0.047-1.089-0.092-1.607-0.092
				l-0.313,0.007c-0.334,0.017-0.698,0.022-1.072,0.027c-0.928-0.035-1.856,0.055-2.76,0.265c0.043,0.277,0.063,0.557,0.059,0.837
				c0.006,0.226,0.012,0.452-0.002,0.658c0.411,0.509,0.936,0.913,1.533,1.179c0.539,0.132,1.098,0.161,1.647,0.085
				c0.279-0.023,0.563-0.047,0.854-0.047l0.781,0.007c1.697,0,3.49-0.096,5.223-0.188c2.211-0.119,4.499-0.239,6.591-0.164
				l0.159,0.006l0.006,0.159c0.153,4.511,0.176,10.002,0.065,14.69l-0.004,0.162l-0.162,0.004
				c-3.584,0.084-7.308,0.007-10.737-0.062c-1.119-0.023-2.208-0.046-3.247-0.061c-0.32,0.119-0.565,0.384-0.658,0.713
				c-0.032,0.602,0.214,1.186,0.668,1.582c0.254,0.272,1.186,0.596,4.192,0.596c2.243,0,4.939-0.178,6.907-0.308
				c1.203-0.08,2.164-0.143,2.649-0.143c0.252,0,0.513,0,0.513,0.214l-0.004,5.791c-0.008,5.233-0.016,10.644,0.064,14.518
				l0.004,0.17l-0.17,0.003c-3.19,0.061-6.593,0.075-9.946,0.075l-8.38-0.01c-0.15,0-0.31-0.009-0.472-0.018
				c-0.162-0.009-0.323-0.017-0.482-0.017c-0.55,0-0.854,0.122-1.019,0.409c-0.057,0.555,0.117,1.109,0.481,1.533
				C81.252,89.195,82.338,89.491,83.412,89.349z"/>
			<path fill="#955E4B" d="M92.86,26.401c-0.068,0.469,0.429,0.97,0.696,1.241l0.14,0.145c0.461,0.499,0.968,0.949,1.466,1.392
				c0.834,0.674,1.573,1.46,2.194,2.334c0.695,1.209,1.228,2.504,1.586,3.852c0.764,2.416,1.554,4.915,3.844,5.641
				c0.592,0.193,1.21,0.293,1.833,0.296h0.001c1.577-0.009,3.075-0.693,4.114-1.878c1.039-1.148,1.621-2.637,1.636-4.185
				c0-3.075-1.732-5.426-5.299-7.186c-3.203-1.593-6.743-2.391-10.321-2.326l-0.322,0.066C93.798,25.841,92.938,25.907,92.86,26.401
				z"/>
			<path fill="#955E4B" d="M68.079,32.724c2.906,0.809,5.147,3.126,5.861,6.056c0.624,1.045,1.414,2.217,2.685,2.402
				c1.317,0.204,2.65-0.254,3.565-1.224c0.84-0.908,1.265-2.125,1.173-3.359c-0.131-1.328-0.783-2.549-1.813-3.396
				c-1.858-1.147-4.017-1.71-6.199-1.616c-0.209,0-0.416,0.005-0.62,0.014C69.991,31.699,68.123,32.151,68.079,32.724z"/>
		</g>
		<path fill="#955E4B" d="M517.356,52.464c-3.569,0-4.317,0.835-4.474,1.435c1.126,0.448,2.209,0.995,3.236,1.637
			c0.713,0.579,1.349,1.247,1.892,1.987c1.071,0.871,1.913,1.99,2.455,3.26c0.319,0.329,0.628,0.662,0.915,1.002
			c0.77,0.997,1.938,1.607,3.196,1.671c2.156-0.124,3.81-1.962,3.706-4.12C528.283,55.921,524.524,52.464,517.356,52.464z
			 M526.339,39.074c-0.53-0.002-1.06-0.035-1.587-0.1c-1.398-0.232-2.813-0.345-4.231-0.338c-3.848-0.078-7.669,0.66-11.212,2.164
			c-5.099,2.726-9.572,14.531-9.572,25.264c0,14.556,8.325,16.128,11.904,16.128c1.514-0.015,3.016-0.27,4.45-0.755
			c0.791-0.261,1.619-0.39,2.451-0.382c2.697,0,4.733,1.615,4.733,3.755c0,4.482-7.869,5.463-10.902,5.463
			c-3.027,0-18.123-1.041-18.123-21.612c0.02-4.414,0.584-8.809,1.679-13.084c0.482-1.963,1.09-3.893,1.82-5.779
			c0.083-0.216,0.193-0.532,0.323-0.905c0.452-1.32,1.294-3.78,2.029-4.139l-0.24-0.491v0.002c-0.639,0.294-1.297,0.547-1.969,0.757
			c-0.602,0.204-1.207,0.409-1.786,0.667c-1.63,0.74-3.24,1.518-4.846,2.306l-0.579,0.288c-3.583,1.764-6.672,3.289-10.706,3.289
			l-0.373-0.005c-2.138-0.05-7.111-0.655-7.111-5.222c-0.046-0.538,0.173-1.065,0.585-1.414c1.315,1,2.936,1.513,4.587,1.452h0.003
			c4.231,0,9.363-2.547,13.111-4.409c0.958-0.477,1.839-0.915,2.594-1.256l2.897-1.315c5.928-2.906,12.092-5.305,18.426-7.169
			c0.496-0.132,0.984-0.29,1.463-0.474c1.727-0.57,3.516-0.933,5.328-1.083c0.728-0.067,1.48-0.106,2.225-0.106
			c2.987,0,7.999,0.647,7.999,4.981C531.711,37.304,530.051,39.074,526.339,39.074L526.339,39.074z M538.359,53.442
			c0.107,2.075-1.488,3.844-3.564,3.951c-0.022,0.001-0.043,0.002-0.065,0.003c-3.293,0-4.49-3.747-6.163-5.887
			c-1.533-1.962-3.665-2.183-5.744-3.128c0.373-1.334,2.777-1.643,4.846-1.643C532.992,46.738,538.36,48.81,538.359,53.442
			L538.359,53.442z"/>
		<path fill="#955E4B" d="M609.702,45.282c0.003-3.644-5.628-5.959-9.516-6.166c-0.311-0.02-0.623-0.021-0.934-0.003
			c-2.512,0.14-5.028-0.183-7.424-0.953c-1.164-0.364-2.279-0.866-3.323-1.497c-0.413-0.311-0.807-0.647-1.177-1.007
			c-0.331-0.32-0.678-0.623-1.041-0.906l-0.023,0.003c0.269,1.575,2.91,5.255,4.41,5.255v0.002l0.033-0.002l0.023,0.545
			c-2.056,0.086-4.098,0.216-6.242,0.366l-0.329,0.023l0.043-0.327c0.226-1.859,0.509-3.689,0.866-5.593
			c0.158-0.836,0.249-1.683,0.272-2.533c0.298-3.451-2.258-6.49-5.709-6.788c-0.285-0.025-0.572-0.03-0.858-0.015
			c-1.368-0.115-2.709,0.432-3.605,1.472c0.799,0.858,1.534,1.774,2.198,2.741c0.547,1.316,0.866,2.716,0.945,4.139
			c0.007,0.071,0.502,7.355-0.19,7.433c-4.44,0.477-8.674,1.053-13.75,1.753l-2.039,0.279c-1.916,0.261-3.851,0.525-5.814,0.773
			c-1.21,0.151-2.429,0.226-3.648,0.224c-0.744,0.003-1.487-0.043-2.225-0.138l-0.193-0.003c-0.188,0.006-0.375-0.011-0.559-0.051
			c-1.416-0.363-2.802-0.833-4.148-1.404c-0.685,0.343-1.079,1.081-0.981,1.841c0,4.139,5.042,7.024,9.569,7.024
			c1.934-0.011,3.847-0.405,5.628-1.159c5.814-2.319,11.913-3.849,18.133-4.55l0.299-0.035l0.007,0.301
			c0.057,3.271,0.107,6.271,0.123,8.752l0.007,0.359l-0.349-0.093c-0.867-0.237-1.762-0.357-2.661-0.358
			c-4.229-0.207-7.826,3.053-8.033,7.282c-0.017,0.353-0.01,0.707,0.021,1.059c0.078,3.508,1.239,6.907,3.323,9.73
			c1.002,1.541,2.718,2.469,4.557,2.462c0.423,0.009,0.845-0.027,1.26-0.108c0.1-0.018,0.193-0.045,0.289-0.068
			c0.205-0.064,0.417-0.101,0.632-0.111l0.303-0.008l-0.023,0.301c-0.269,3.632-2.907,6.946-5.355,9.77
			c-1.177,1.269-2.476,2.419-3.878,3.434l-0.918,0.715c-0.873,0.662-1.8,1.25-2.771,1.758c-0.464,0.219-0.898,0.496-1.291,0.826
			c0.023,0.002,0.09,0.047,0.236,0.105c0.18,0.06,0.369,0.086,0.559,0.078c1.931-0.241,3.82-0.739,5.618-1.483
			c2.137-0.834,4.144-1.968,5.96-3.369c3.719-2.847,6.666-6.581,8.572-10.859c1.323-2.905,2.027-6.054,2.068-9.246
			c0.209-3.047-0.799-6.052-2.803-8.357l-0.07-0.17l-0.03-0.723c-0.08-1.758-0.183-3.946-0.183-6.476c0-1.8,0.057-3.698,0.163-5.641
			l0.017-0.251l0.249-0.007c0.908-0.025,1.794-0.025,2.647-0.025c5.82-0.054,11.618,0.735,17.212,2.343
			c1.587,0.579,3.352,0.396,4.786-0.497C609.323,46.943,609.719,46.134,609.702,45.282z M576.306,68.558
			c-4.054,0-4.457-6.402-4.457-6.467c0-1.972,0.978-3.151,2.607-3.151c1.831,0.051,3.474,1.142,4.231,2.81
			c0.152,0.72,0.23,1.454,0.233,2.191C578.921,67.757,577.497,68.558,576.306,68.558z"/>
		<path fill="#955E4B" d="M644.136,46.338c-0.891,0.001-1.777,0.119-2.637,0.351l-0.482,0.119l0.156-0.469
			c1.058-2.921,1.737-5.966,2.019-9.06c0-4.568-2.741-6.195-5.305-6.195c-2.099,0.15-4.078,1.035-5.588,2.501
			c1.586,1.027,2.739,2.603,3.24,4.425c0.42,0.884,0.603,1.861,0.532,2.837c-0.116,2.693-0.55,5.362-1.294,7.952l-0.04,0.14
			l-0.136,0.047c-0.752,0.251-1.566,0.569-2.418,0.905c-2.513,1.161-5.213,1.868-7.972,2.089c-0.758,0.009-1.513-0.101-2.238-0.324
			c-1.748-0.971-3.335-2.207-4.704-3.665c-0.683,1.027-0.98,2.263-0.838,3.489c0.022,3.9,3.201,7.044,7.101,7.022
			c0.103-0.001,0.206-0.003,0.309-0.009c2.521-0.321,4.978-1.033,7.281-2.109l0.672-0.281l-0.323,0.654
			c-4.241,8.096-9.088,15.859-14.502,23.222c-1.495,1.709-2.445,3.826-2.727,6.078c-0.141,1.482,0.946,2.798,2.428,2.939
			c0.146,0.014,0.293,0.016,0.439,0.006c1.869,0,4.59-1.555,6.47-5.032c1.078-1.995,2.278-4.279,3.539-6.73l0.349-0.677l0.16,0.742
			c0.113,0.504,0.296,1.157,0.545,2.024c0.236,0.843,0.36,1.714,0.369,2.589c0.096,1.995,0.213,4.254,3.28,5.232
			c1.087,0.385,2.233,0.574,3.386,0.559c8.864,0,18.286-9.369,18.286-26.733C653.492,51.26,650.339,46.338,644.136,46.338z
			 M636.593,80.271c-0.824-0.04-1.626-0.278-2.338-0.693c-0.392-0.094-0.767-0.247-1.114-0.452
			c-1.775-0.459-3.316-1.561-4.324-3.093c-0.169-0.38-0.203-0.807-0.096-1.209l-0.359-0.034l0.187-0.358
			c2.302-4.547,6.652-13.302,9.855-20.87c3.326-2.348,4.952-2.462,5.245-2.462c2.372,0,3.622,2.853,3.622,8.252
			C647.269,69.225,642.702,80.271,636.593,80.271z M668.282,70.281l-0.193,0.002c-0.805,0.028-1.7,0.053-2.697,0.053
			c-1.962,0-3.589-0.113-3.589-1.49c0.003-0.16,0.042-0.317,0.113-0.461c0.216-0.045,0.718-0.13,1.284-0.223
			c1.221-0.21,2.112-0.363,2.388-0.456c1.126-0.359,2.224-0.8,3.286-1.319c2.847-1.453,4.287-3.223,4.287-5.257
			c0-4.947-4.334-8.752-13.251-11.621c0.156-0.597,0.825-0.9,1.995-0.9c11.019,0,19.015,5.814,19.015,13.821
			c0.137,2.931-1.158,5.746-3.472,7.55c-0.935,0.677-2.066,1.027-3.219,0.998c-0.94-0.03-1.876-0.141-2.797-0.334
			C670.395,70.432,669.341,70.311,668.282,70.281z"/>
		<path fill="#955E4B" d="M294.445,21.074c0.702-4.502,5.789-6.855,8.042-6.925c-0.635-2.44-0.783-12.916,2.275-14.147
			c0,0,2.603-0.371,1.783,9.631c0,0-0.64,2.415-1.316,4.384l2.16,0.539c5.841-12.973,11.345-11.441,11.345-11.441
			c3.88,2.586-8.062,13.834-8.062,13.834c1.375,2.94-0.008,7.826-0.008,7.826c3.278-0.328,6.55,0.68,9.075,2.796
			c3.476-2.361,4.74,0.71,4.74,0.71c0.871,2.717-2.332,3.802-2.332,3.802c2.842,3.896,1.741,5.543,1.099,6.236
			c-0.815,0.67-4.196-1.753-4.196-1.753c-2.031-0.394-3.649-1.585-5.914-1.708c-4.578-0.209-9.136,0.725-13.262,2.717
			c-2.32,1.151-4.018,1.641-4.934,0.92c-1.108-3.793,5.967-9.647,5.967-9.647c0.961-0.87-0.699-1.138-0.699-1.138
			c-3.319-0.119-5.913-2.907-5.794-6.226C294.422,21.346,294.431,21.21,294.445,21.074z M333.085,55.724
			c0.137,3.864-0.797,7.69-2.7,11.056c-9.025,17.165-34.991,24.948-38.826,25.164c-1.023,0.058-1.269-0.464-1.294-0.913
			c-0.03-0.53-0.058-1.031,3.963-2.77c12.777-5.421,30.597-17.496,30.597-32.174c0-7.483-7.447-10.635-11.24-10.42
			c-3.608,0.347-7.081,1.554-10.127,3.519c-2.206,1.647-4.824,2.653-7.565,2.907c-5.709,0.323-9.873-2.787-10.043-5.78
			c-0.121-1.67,0.96-3.192,2.576-3.629c0.828,0.002,1.573,0.507,1.879,1.277c0.605,0.81,2.195,0.915,3.413,0.847
			c2.406-0.233,4.775-0.752,7.058-1.547l0.191-0.062c4.295-1.353,8.725-2.232,13.211-2.622
			C325.114,39.955,332.633,47.791,333.085,55.724z"/>
		<path fill="#955E4B" d="M250.007,112.717c-6.3,0-12.76-1.769-13.823-3.782c-0.203-0.359-0.167-0.806,0.091-1.127
			c0.062-0.088,0.095-0.192,0.095-0.299c-0.001-0.296-0.241-0.535-0.537-0.534c-0.176,0-0.342,0.088-0.441,0.233
			c-1.365,1.996-5.41,4.034-10.688,4.974c-0.579-1.255-2.066-1.802-3.321-1.223c-0.28,0.129-0.534,0.31-0.749,0.531
			c-0.587-0.872-1.57-1.394-2.621-1.394c-1.746,0-2.147,1.415-2.147,3.16c0,1.744,0.401,3.16,2.147,3.16
			c1.052,0.001,2.034-0.522,2.621-1.395c0.961,0.993,2.545,1.019,3.538,0.057c0.222-0.215,0.402-0.469,0.531-0.749
			c5.278,0.938,9.323,2.977,10.683,4.972c0.1,0.147,0.266,0.235,0.444,0.235c0.108,0,0.214-0.033,0.303-0.095
			c0.244-0.167,0.306-0.499,0.14-0.743c-0.258-0.32-0.295-0.765-0.095-1.124c1.067-2.015,7.528-3.783,13.828-3.783
			c0.296,0.005,0.541-0.231,0.546-0.527c0.005-0.296-0.23-0.541-0.527-0.546C250.02,112.717,250.014,112.717,250.007,112.717
			L250.007,112.717z"/>
		<path fill="#955E4B" d="M62.522,113.221c0.002-0.022,0.012-0.045,0.012-0.067c-0.152-1.076-1.147-1.825-2.223-1.673
			c-0.058,0.008-0.115,0.019-0.172,0.032c-1.43,0.628,0.141-0.728-0.268-1.963c-0.268-0.805-1.548-1.625-1.52-0.537
			c0.063,2.325-4.292,3.023-7.578,3.219c-0.326,0.017-0.715,0.038-1.124,0.055c-2.991-1.064-5.253-3.551-6.032-6.629
			c0.132,0.073,0.273,0.126,0.419,0.16c0.926,0.197,1.837-0.394,2.035-1.32c0.195-0.914-0.378-1.815-1.288-2.028
			c-0.436-0.094-0.892-0.016-1.272,0.218c0.084-0.143,0.145-0.297,0.183-0.458c0.212-0.924-0.365-1.845-1.289-2.057
			c-0.924-0.212-1.845,0.365-2.057,1.289c-0.192,0.838,0.265,1.688,1.069,1.99c-0.941-0.084-1.772,0.611-1.856,1.553
			c-0.084,0.941,0.611,1.772,1.553,1.856c0.696,0.062,1.36-0.306,1.677-0.929c0.175,0.714,0.436,1.404,0.777,2.055
			c0.645,1.242-2.042,4.429-4.341,4.252c-2.057-0.085-4.001-0.966-5.42-2.458c-0.617-0.816-0.495-1.971,0.28-2.639
			c0.739-0.499,1.701-0.525,2.466-0.067c0.526,0.235,0.94-0.442,0.715-1.214c-0.706-1.646-2.317-2.72-4.107-2.741
			c-2.301-0.001-4.168,1.864-4.169,4.165c0,0.215,0.016,0.429,0.049,0.641c0.484,1.413,1.458,2.605,2.747,3.36
			c-0.972-0.161-1.929-0.399-2.864-0.712c-2.593-0.979-9.261,1.433-9.261,2.579c0,0.022,0.018,0.047,0.022,0.067
			c-0.008,0.022-0.015,0.045-0.02,0.068c0,1.146,6.669,3.557,9.259,2.578c0.935-0.311,1.892-0.549,2.864-0.712
			c-1.288,0.756-2.262,1.949-2.746,3.362c-0.355,2.274,1.201,4.405,3.474,4.76c0.213,0.033,0.429,0.05,0.645,0.05
			c1.791-0.021,3.401-1.095,4.108-2.741c0.223-0.775-0.19-1.448-0.717-1.214c-0.766,0.457-1.727,0.431-2.466-0.068
			c-0.773-0.67-0.895-1.825-0.278-2.641c1.418-1.494,3.362-2.375,5.42-2.458c2.298-0.176,4.986,3.01,4.34,4.251
			c-0.341,0.653-0.602,1.344-0.779,2.06c-0.428-0.843-1.458-1.179-2.301-0.752c-0.843,0.428-1.179,1.458-0.752,2.301
			c0.317,0.624,0.982,0.993,1.679,0.93c-0.884,0.336-1.329,1.325-0.993,2.209c0.336,0.884,1.325,1.329,2.209,0.993
			c0.798-0.303,1.251-1.147,1.062-1.979c-0.039-0.161-0.101-0.315-0.185-0.457c0.803,0.499,1.859,0.253,2.358-0.55
			c0.238-0.383,0.315-0.845,0.215-1.285c-0.206-0.923-1.121-1.503-2.044-1.297c-0.001,0-0.001,0-0.002,0
			c-0.146,0.034-0.286,0.087-0.417,0.158c0.775-3.079,3.038-5.567,6.03-6.63c0.408,0.017,0.798,0.037,1.124,0.055
			c3.286,0.196,7.64,0.895,7.576,3.218c-0.026,1.089,1.252,0.269,1.52-0.536c0.411-1.234-1.161-2.591,0.268-1.962
			c1.058,0.246,2.116-0.411,2.362-1.47c0.013-0.057,0.024-0.114,0.032-0.172C62.531,113.266,62.527,113.243,62.522,113.221z"/>
		<path fill="#955E4B" d="M215.007,114.689c-0.771,0-1.397-0.625-1.397-1.396c0-0.771,0.625-1.397,1.396-1.397
			c0.771,0,1.397,0.625,1.397,1.396l0,0C216.4,114.062,215.777,114.685,215.007,114.689z M210.716,114.689
			c-0.771-0.012-1.387-0.647-1.375-1.418c0.012-0.754,0.62-1.363,1.375-1.375c0.771,0.001,1.396,0.627,1.395,1.399
			C212.109,114.064,211.486,114.688,210.716,114.689z M206.441,114.689c-0.771,0-1.396-0.626-1.396-1.397
			c0-0.771,0.626-1.396,1.397-1.396c0.771,0,1.396,0.625,1.396,1.396C207.835,114.062,207.211,114.686,206.441,114.689z
			 M202.15,114.689c-0.771,0-1.396-0.626-1.396-1.397c0-0.771,0.626-1.396,1.397-1.396c0.771,0,1.396,0.625,1.396,1.396
			C203.543,114.062,202.92,114.686,202.15,114.689z M197.858,114.689c-0.771,0-1.396-0.626-1.396-1.397
			c0-0.771,0.626-1.396,1.397-1.396c0.771,0,1.396,0.625,1.396,1.396C199.252,114.062,198.629,114.686,197.858,114.689z
			 M193.567,114.689c-0.771-0.012-1.387-0.647-1.375-1.418c0.012-0.754,0.62-1.363,1.375-1.375c0.771-0.001,1.397,0.623,1.399,1.395
			c0.001,0.771-0.623,1.397-1.395,1.399C193.57,114.689,193.568,114.689,193.567,114.689z M189.293,114.689
			c-0.771,0-1.397-0.625-1.397-1.396c0-0.771,0.625-1.397,1.396-1.397c0.771,0,1.397,0.625,1.397,1.396l0,0
			C190.686,114.062,190.063,114.686,189.293,114.689z M185.002,114.689c-0.771,0-1.397-0.625-1.397-1.396
			c0-0.771,0.625-1.397,1.396-1.397c0.771,0,1.397,0.625,1.397,1.396C186.395,114.062,185.772,114.686,185.002,114.689z
			 M180.711,114.689c-0.771,0-1.397-0.625-1.397-1.396s0.625-1.397,1.396-1.397c0.771,0,1.397,0.625,1.397,1.396l0,0
			C182.104,114.062,181.481,114.686,180.711,114.689z M176.419,114.689c-0.771,0-1.397-0.625-1.397-1.396s0.625-1.397,1.396-1.397
			c0.771,0,1.397,0.625,1.397,1.396l0,0C177.812,114.062,177.189,114.686,176.419,114.689z M172.145,114.689
			c-0.771,0.001-1.397-0.623-1.399-1.395c-0.001-0.771,0.623-1.397,1.395-1.399c0.001,0,0.003,0,0.004,0
			c0.771,0.012,1.387,0.647,1.375,1.418C173.508,114.069,172.9,114.677,172.145,114.689z M167.854,114.689
			c-0.771,0-1.397-0.625-1.397-1.396s0.625-1.397,1.396-1.397c0.771,0,1.397,0.625,1.397,1.396l0,0
			C169.247,114.062,168.624,114.685,167.854,114.689z M163.563,114.689c-0.771,0-1.397-0.625-1.397-1.396
			c0-0.771,0.625-1.397,1.396-1.397c0.771,0,1.397,0.625,1.397,1.396l0,0C164.955,114.062,164.333,114.685,163.563,114.689z
			 M159.271,114.689c-0.771,0-1.397-0.625-1.397-1.396c0-0.771,0.625-1.397,1.396-1.397c0.771,0,1.397,0.625,1.397,1.396l0,0
			c0.005,0.767-0.613,1.392-1.38,1.397C159.282,114.689,159.277,114.689,159.271,114.689z M154.997,114.689
			c-0.771-0.001-1.396-0.627-1.395-1.399c0.001-0.77,0.625-1.393,1.395-1.395c0.771,0.012,1.387,0.647,1.375,1.418
			C156.359,114.069,155.751,114.677,154.997,114.689z M150.705,114.689c-0.771,0-1.396-0.626-1.396-1.397s0.626-1.396,1.397-1.396
			c0.771,0,1.396,0.625,1.396,1.396C152.099,114.062,151.475,114.686,150.705,114.689z M146.414,114.689
			c-0.771,0-1.396-0.626-1.396-1.397c0-0.771,0.626-1.396,1.397-1.396c0.771,0,1.396,0.625,1.396,1.396
			C147.808,114.062,147.184,114.686,146.414,114.689z M142.123,114.689c-0.771,0-1.396-0.626-1.396-1.397
			c0-0.771,0.626-1.396,1.397-1.396c0.771,0,1.396,0.625,1.396,1.396c0.005,0.767-0.614,1.393-1.381,1.397
			C142.134,114.689,142.128,114.689,142.123,114.689z M137.849,114.689c-0.771,0-1.397-0.625-1.397-1.397
			c0-0.771,0.625-1.397,1.396-1.397c0.771,0,1.396,0.625,1.397,1.396C139.242,114.062,138.619,114.685,137.849,114.689
			L137.849,114.689z M133.557,114.689c-0.771,0-1.397-0.625-1.397-1.396c0-0.771,0.625-1.397,1.396-1.397
			c0.771,0,1.397,0.625,1.397,1.396l0,0C134.951,114.062,134.327,114.686,133.557,114.689z M129.266,114.689
			c-0.771,0-1.397-0.625-1.397-1.396s0.625-1.397,1.396-1.397c0.771,0,1.397,0.625,1.397,1.396l0,0
			C130.659,114.062,130.036,114.686,129.266,114.689z M124.975,114.689c-0.771,0-1.397-0.625-1.397-1.396
			c0-0.771,0.625-1.397,1.396-1.397c0.771,0,1.397,0.625,1.397,1.396c0.005,0.767-0.613,1.392-1.379,1.397
			C124.986,114.689,124.98,114.689,124.975,114.689z M120.7,114.689c-0.771,0-1.396-0.626-1.396-1.397
			c0-0.771,0.626-1.396,1.397-1.396c0.771,0,1.396,0.625,1.396,1.396C122.094,114.062,121.47,114.686,120.7,114.689z
			 M116.41,114.689c-0.771,0-1.397-0.625-1.397-1.396c0-0.771,0.625-1.397,1.396-1.397c0.771,0,1.397,0.625,1.397,1.396l0,0
			C117.802,114.062,117.179,114.685,116.41,114.689z M112.118,114.689c-0.771,0-1.397-0.625-1.397-1.396
			c0-0.771,0.625-1.397,1.396-1.397c0.771,0,1.397,0.625,1.397,1.396C113.511,114.062,112.888,114.685,112.118,114.689z
			 M107.827,114.689c-0.771,0-1.397-0.625-1.397-1.396c0-0.771,0.625-1.397,1.396-1.397c0.771,0,1.397,0.625,1.397,1.396l0,0
			c0.005,0.767-0.613,1.392-1.379,1.397C107.838,114.689,107.832,114.689,107.827,114.689z M103.552,114.689
			c-0.771,0-1.397-0.625-1.397-1.396c0-0.771,0.625-1.397,1.396-1.397c0.771,0,1.397,0.625,1.397,1.396
			C104.945,114.062,104.322,114.685,103.552,114.689z M99.261,114.689c-0.771,0-1.396-0.626-1.396-1.397s0.626-1.396,1.397-1.396
			c0.771,0,1.396,0.625,1.396,1.396C100.655,114.062,100.031,114.686,99.261,114.689z M94.97,114.689
			c-0.771-0.012-1.387-0.647-1.375-1.418c0.012-0.754,0.62-1.363,1.375-1.375c0.771-0.001,1.397,0.623,1.399,1.395
			c0.001,0.771-0.623,1.397-1.395,1.399C94.972,114.689,94.971,114.689,94.97,114.689z M90.696,114.689
			c-0.771,0.01-1.404-0.608-1.414-1.379c-0.01-0.771,0.608-1.404,1.379-1.414c0.771-0.01,1.404,0.608,1.414,1.379
			c0,0.006,0,0.011,0,0.017C92.078,114.058,91.461,114.682,90.696,114.689z M86.404,114.689c-0.771,0-1.397-0.625-1.397-1.396
			c0-0.771,0.625-1.397,1.396-1.397c0.771,0,1.397,0.625,1.397,1.396C87.797,114.062,87.174,114.685,86.404,114.689z
			 M82.113,114.689c-0.771,0-1.397-0.625-1.397-1.396c0-0.771,0.625-1.397,1.396-1.397c0.771,0,1.397,0.625,1.397,1.396
			C83.506,114.062,82.883,114.685,82.113,114.689z M77.822,114.689c-0.771-0.012-1.387-0.647-1.375-1.418
			c0.012-0.754,0.62-1.363,1.375-1.375c0.771,0.001,1.396,0.627,1.395,1.399C79.215,114.064,78.591,114.688,77.822,114.689z
			 M73.547,114.689c-0.771,0.009-1.404-0.608-1.414-1.379c-0.009-0.771,0.608-1.404,1.379-1.414
			c0.771-0.009,1.404,0.608,1.414,1.379c0,0.006,0,0.011,0,0.017C74.929,114.058,74.313,114.682,73.547,114.689z M69.256,114.689
			c-0.771,0-1.396-0.626-1.396-1.397c0-0.771,0.626-1.396,1.397-1.396c0.771,0,1.396,0.625,1.396,1.396
			C70.649,114.062,70.026,114.686,69.256,114.689z M64.964,114.689c-0.771,0-1.396-0.626-1.396-1.397
			c0-0.771,0.626-1.396,1.397-1.396c0.771,0,1.396,0.625,1.396,1.396C66.358,114.062,65.734,114.686,64.964,114.689z"/>
		<path fill="#955E4B" d="M465.428,112.717c6.3,0,12.758-1.769,13.823-3.782c0.201-0.36,0.165-0.806-0.093-1.127
			c-0.061-0.088-0.094-0.192-0.093-0.299c-0.002-0.177,0.086-0.343,0.233-0.442c0.242-0.168,0.573-0.108,0.741,0.134
			c0.001,0.002,0.003,0.004,0.004,0.006c1.364,1.996,5.408,4.034,10.686,4.974c0.58-1.255,2.068-1.802,3.323-1.222
			c0.28,0.129,0.533,0.309,0.748,0.531c0.587-0.872,1.57-1.394,2.621-1.394c1.746,0,2.145,1.415,2.145,3.16
			c0,1.744-0.399,3.16-2.145,3.16c-1.052,0.001-2.034-0.522-2.621-1.395c-0.962,0.993-2.547,1.018-3.54,0.056
			c-0.221-0.215-0.401-0.468-0.531-0.748c-5.278,0.938-9.323,2.977-10.683,4.972c-0.099,0.147-0.265,0.234-0.442,0.235
			c-0.108,0.001-0.214-0.033-0.303-0.095c-0.147-0.099-0.235-0.264-0.236-0.442c0.003-0.107,0.036-0.212,0.096-0.301
			c0.261-0.319,0.298-0.766,0.093-1.124c-1.068-2.015-7.527-3.783-13.826-3.783c-0.296,0.005-0.541-0.231-0.546-0.527
			s0.231-0.541,0.527-0.546C465.416,112.717,465.422,112.717,465.428,112.717L465.428,112.717z"/>
		<path fill="#955E4B" d="M652.913,113.221c0-0.022-0.013-0.045-0.013-0.067c0.152-1.076,1.148-1.825,2.224-1.673
			c0.057,0.008,0.114,0.019,0.17,0.032c1.434,0.628-0.14-0.728,0.269-1.963c0.266-0.805,1.55-1.625,1.52-0.537
			c-0.063,2.325,4.291,3.023,7.577,3.219c0.326,0.017,0.715,0.038,1.127,0.055c2.989-1.066,5.251-3.552,6.03-6.629
			c-0.132,0.072-0.273,0.126-0.419,0.16c-0.924,0.207-1.841-0.375-2.048-1.3c-0.207-0.924,0.375-1.841,1.3-2.048l0,0
			c0.437-0.094,0.893-0.016,1.274,0.218c-0.084-0.143-0.145-0.297-0.183-0.458c-0.212-0.924,0.365-1.845,1.288-2.057
			c0.924-0.212,1.845,0.365,2.057,1.288c0.193,0.838-0.265,1.689-1.07,1.991c0.941-0.084,1.772,0.611,1.856,1.553
			c0.084,0.941-0.611,1.772-1.553,1.856c-0.696,0.062-1.36-0.306-1.677-0.929c-0.172,0.715-0.432,1.405-0.775,2.055
			c-0.645,1.242,2.042,4.429,4.341,4.252c2.058-0.085,4.002-0.966,5.421-2.458c0.616-0.817,0.492-1.971-0.283-2.639
			c-0.739-0.5-1.7-0.526-2.464-0.067c-0.529,0.235-0.938-0.442-0.715-1.214c0.706-1.646,2.317-2.72,4.108-2.741
			c2.299-0.002,4.165,1.86,4.167,4.159c0,0.216-0.016,0.432-0.05,0.646c-0.483,1.414-1.458,2.606-2.747,3.361
			c0.972-0.161,1.929-0.399,2.864-0.712c2.594-0.979,9.263,1.432,9.263,2.579c-0.005,0.023-0.012,0.046-0.023,0.067
			c0.011,0.022,0.019,0.044,0.023,0.068c0,1.146-6.669,3.557-9.263,2.578c-0.934-0.312-1.892-0.55-2.864-0.712
			c1.289,0.755,2.264,1.949,2.747,3.362c0.355,2.274-1.2,4.404-3.474,4.759c-0.213,0.033-0.428,0.05-0.644,0.05
			c-1.791-0.02-3.401-1.095-4.108-2.741c-0.226-0.775,0.187-1.448,0.715-1.214c0.765,0.457,1.726,0.431,2.464-0.068
			c0.775-0.669,0.898-1.825,0.28-2.641c-1.418-1.493-3.361-2.375-5.418-2.458c-2.298-0.176-4.986,3.01-4.344,4.251
			c0.342,0.652,0.604,1.343,0.778,2.059c0.427-0.844,1.458-1.181,2.301-0.753s1.181,1.458,0.753,2.301
			c-0.317,0.625-0.983,0.994-1.681,0.931c0.885,0.335,1.33,1.323,0.996,2.207c-0.335,0.884-1.323,1.33-2.207,0.996
			c-0.799-0.302-1.253-1.147-1.064-1.98c0.037-0.161,0.099-0.315,0.183-0.457c-0.802,0.499-1.857,0.253-2.356-0.549
			c-0.238-0.383-0.316-0.845-0.215-1.285c0.204-0.921,1.115-1.502,2.036-1.298c0.002,0,0.004,0.001,0.006,0.001
			c0.146,0.033,0.287,0.086,0.419,0.158c-0.776-3.079-3.038-5.567-6.03-6.63c-0.409,0.017-0.798,0.037-1.124,0.055
			c-3.286,0.196-7.64,0.895-7.577,3.218c0.027,1.089-1.254,0.269-1.52-0.536c-0.409-1.234,1.161-2.591-0.269-1.962
			c-1.059,0.246-2.116-0.412-2.363-1.471c-0.013-0.056-0.024-0.113-0.032-0.171C652.903,113.267,652.907,113.244,652.913,113.221z"
			/>
		<path fill="#955E4B" d="M650.472,114.689c-0.771,0.001-1.397-0.623-1.398-1.395s0.623-1.397,1.395-1.399c0.001,0,0.003,0,0.004,0
			c0.771,0.012,1.387,0.647,1.375,1.418C651.835,114.069,651.227,114.677,650.472,114.689z M646.182,114.689
			c-0.771,0.001-1.397-0.624-1.398-1.395c-0.001-0.771,0.624-1.397,1.395-1.398c0.771-0.001,1.397,0.624,1.398,1.395
			c0,0,0,0.001,0,0.001C647.574,114.062,646.951,114.685,646.182,114.689z M641.889,114.689c-0.771,0-1.396-0.626-1.396-1.397
			c0-0.771,0.626-1.396,1.397-1.396c0.771,0,1.396,0.625,1.396,1.396C643.283,114.062,642.66,114.686,641.889,114.689z
			 M637.599,114.689c-0.771,0.001-1.397-0.624-1.398-1.395s0.624-1.397,1.395-1.398c0.771-0.001,1.397,0.624,1.398,1.395
			c0,0,0,0,0,0.001c0.004,0.767-0.614,1.393-1.381,1.397C637.609,114.689,637.604,114.689,637.599,114.689z M633.323,114.689
			c-0.771-0.001-1.396-0.627-1.395-1.399c0.001-0.77,0.625-1.393,1.395-1.395c0.771,0.012,1.387,0.647,1.375,1.418
			C634.686,114.069,634.078,114.677,633.323,114.689z M629.033,114.689c-0.771,0-1.396-0.626-1.396-1.397
			c0-0.771,0.626-1.396,1.397-1.396c0.771,0,1.396,0.625,1.396,1.396C630.427,114.062,629.803,114.686,629.033,114.689z
			 M624.741,114.689c-0.771,0-1.396-0.626-1.396-1.397s0.626-1.396,1.397-1.396c0.771,0,1.396,0.625,1.396,1.396
			C626.134,114.062,625.511,114.686,624.741,114.689z M620.467,114.689c-0.771,0.009-1.404-0.609-1.413-1.38
			c-0.009-0.771,0.609-1.404,1.38-1.413c0.771-0.009,1.404,0.609,1.413,1.38c0,0.005,0,0.011,0,0.016
			C621.85,114.059,621.233,114.683,620.467,114.689z M616.176,114.689c-0.771,0.001-1.397-0.623-1.399-1.395
			s0.623-1.397,1.395-1.399c0.001,0,0.003,0,0.004,0c0.771,0.012,1.387,0.647,1.375,1.418
			C617.539,114.069,616.931,114.677,616.176,114.689z M611.884,114.689c-0.771,0-1.396-0.626-1.396-1.397s0.626-1.396,1.397-1.396
			c0.771,0,1.396,0.625,1.396,1.396C613.278,114.063,612.655,114.687,611.884,114.689z M607.594,114.689
			c-0.771,0.001-1.397-0.624-1.398-1.395c-0.001-0.771,0.624-1.397,1.395-1.398c0.771-0.001,1.397,0.624,1.398,1.395
			c0,0,0,0.001,0,0.001C608.985,114.062,608.363,114.685,607.594,114.689z M603.32,114.689c-0.771,0.01-1.405-0.607-1.415-1.378
			c-0.01-0.771,0.607-1.405,1.378-1.415s1.405,0.607,1.415,1.378c0,0.006,0,0.012,0,0.018
			C604.701,114.058,604.085,114.682,603.32,114.689z M599.028,114.689c-0.771,0-1.396-0.626-1.396-1.397
			c0-0.771,0.626-1.396,1.397-1.396c0.771,0,1.396,0.625,1.396,1.396C600.421,114.062,599.798,114.686,599.028,114.689z
			 M594.737,114.689c-0.771,0.001-1.397-0.624-1.398-1.395s0.624-1.397,1.395-1.398c0.771-0.001,1.397,0.624,1.398,1.395
			c0,0,0,0,0,0.001C596.129,114.062,595.507,114.685,594.737,114.689z M590.445,114.689c-0.771,0-1.396-0.626-1.396-1.397
			c0-0.771,0.626-1.396,1.397-1.396c0.771,0,1.396,0.625,1.396,1.396C591.839,114.062,591.215,114.686,590.445,114.689z
			 M586.171,114.689c-0.771,0.001-1.397-0.623-1.399-1.395c-0.001-0.771,0.623-1.397,1.395-1.399c0.001,0,0.003,0,0.004,0
			c0.771,0.012,1.387,0.647,1.375,1.418C587.534,114.069,586.925,114.677,586.171,114.689z M581.88,114.689
			c-0.771,0-1.397-0.625-1.397-1.396c0-0.771,0.625-1.397,1.396-1.397c0.771,0,1.397,0.625,1.397,1.396
			C583.273,114.062,582.65,114.685,581.88,114.689z M577.589,114.689c-0.771,0-1.397-0.625-1.397-1.396s0.625-1.397,1.396-1.397
			c0.771,0,1.397,0.625,1.397,1.396C578.982,114.062,578.358,114.686,577.589,114.689z M573.297,114.689
			c-0.771,0-1.397-0.625-1.397-1.396s0.625-1.397,1.396-1.397c0.771,0,1.397,0.625,1.397,1.396
			C574.69,114.062,574.067,114.686,573.297,114.689z M569.022,114.689c-0.771,0-1.396-0.626-1.396-1.397s0.626-1.396,1.397-1.396
			c0.771,0,1.396,0.625,1.396,1.396C570.416,114.062,569.793,114.686,569.022,114.689z M564.731,114.689
			c-0.771,0-1.396-0.626-1.396-1.397c0-0.771,0.626-1.396,1.397-1.396c0.771,0,1.396,0.625,1.396,1.396
			C566.125,114.062,565.501,114.686,564.731,114.689z M560.441,114.689c-0.771,0-1.397-0.625-1.397-1.396
			c0-0.771,0.625-1.397,1.396-1.397c0.771,0,1.397,0.625,1.397,1.396C561.833,114.062,561.21,114.685,560.441,114.689z
			 M556.149,114.689c-0.771-0.012-1.387-0.647-1.375-1.418c0.012-0.754,0.62-1.363,1.375-1.375c0.771,0.001,1.396,0.627,1.395,1.399
			C557.543,114.064,556.919,114.688,556.149,114.689z M551.875,114.689c-0.771,0.01-1.404-0.608-1.414-1.379
			c-0.01-0.771,0.608-1.404,1.379-1.414c0.771-0.01,1.404,0.608,1.414,1.379c0,0.006,0,0.011,0,0.017
			C553.256,114.058,552.64,114.682,551.875,114.689z M547.583,114.689c-0.771,0-1.397-0.625-1.397-1.396
			c0-0.771,0.625-1.397,1.396-1.397c0.771,0,1.397,0.625,1.397,1.396C548.976,114.062,548.353,114.685,547.583,114.689z
			 M543.292,114.689c-0.771,0-1.396-0.626-1.396-1.397s0.626-1.396,1.397-1.396c0.771,0,1.396,0.625,1.396,1.396
			C544.686,114.062,544.062,114.686,543.292,114.689z M539,114.689c-0.771,0-1.396-0.626-1.396-1.397
			c0-0.771,0.626-1.396,1.397-1.396c0.771,0,1.396,0.625,1.396,1.396c0.005,0.767-0.613,1.392-1.38,1.397
			C539.011,114.689,539.006,114.689,539,114.689z M534.727,114.689c-0.771,0.01-1.404-0.608-1.414-1.379s0.608-1.404,1.379-1.414
			c0.771-0.01,1.404,0.608,1.414,1.379c0,0.006,0,0.011,0,0.017C536.109,114.058,535.492,114.682,534.727,114.689z M530.435,114.689
			c-0.771,0-1.397-0.625-1.397-1.396c0-0.771,0.625-1.397,1.396-1.397c0.771,0,1.397,0.625,1.397,1.396
			C531.828,114.062,531.205,114.685,530.435,114.689z M526.144,114.689c-0.771,0-1.397-0.625-1.397-1.396
			c0-0.771,0.625-1.397,1.396-1.397c0.771,0,1.397,0.625,1.397,1.396C527.537,114.062,526.914,114.685,526.144,114.689z
			 M521.853,114.689c-0.771,0-1.397-0.625-1.397-1.396c0-0.771,0.625-1.397,1.396-1.397c0.771,0,1.397,0.625,1.397,1.396
			c0.005,0.767-0.613,1.392-1.38,1.397C521.864,114.689,521.858,114.689,521.853,114.689z M517.578,114.689
			c-0.771,0-1.396-0.626-1.396-1.397c0-0.771,0.626-1.396,1.397-1.396c0.771,0,1.396,0.625,1.396,1.396
			C518.972,114.062,518.348,114.686,517.578,114.689z M513.286,114.689c-0.771,0-1.396-0.626-1.396-1.397
			c0-0.771,0.626-1.396,1.397-1.396c0.771,0,1.396,0.625,1.396,1.396C514.68,114.062,514.057,114.686,513.286,114.689z
			 M508.995,114.689c-0.771,0-1.396-0.626-1.396-1.397c0-0.771,0.626-1.396,1.397-1.396c0.771,0,1.396,0.625,1.396,1.396
			C510.389,114.062,509.765,114.686,508.995,114.689z M504.721,114.689c-0.771,0.01-1.404-0.608-1.414-1.379
			c-0.01-0.771,0.608-1.404,1.379-1.414c0.771-0.01,1.404,0.608,1.414,1.379c0,0.006,0,0.011,0,0.017
			C506.103,114.058,505.487,114.682,504.721,114.689z M500.43,114.689c-0.771,0-1.397-0.625-1.397-1.396
			c0-0.771,0.625-1.397,1.396-1.397c0.771,0,1.397,0.625,1.397,1.396C501.823,114.062,501.2,114.686,500.43,114.689z"/>
		<path fill="#955E4B" d="M704.733,25.479c-8.828,0-15.862,4.974-15.862,11.405c-0.224,3.416,2.364,6.366,5.78,6.59
			c0.131,0.009,0.263,0.013,0.395,0.013c3.337,0.034,6.07-2.644,6.104-5.981c0.001-0.15-0.003-0.301-0.012-0.451
			c0-3.43-1.463-4.288-4.119-5.83c-0.17-0.086-0.428-0.259-0.428-0.516c0-0.342,1.285-2.057,4.459-2.057
			c6.002,0,7.031,6.002,7.031,10.119c0,3.257-0.598,6.517-2.915,13.205c-3.001,8.488-3.085,10.291-3.257,17.83v0.007
			c-0.009,0.804,0.635,1.464,1.44,1.473c0.804,0.009,1.464-0.635,1.473-1.44c0-0.011,0-0.022,0-0.033
			c0-9.261,1.63-12.864,7.721-18.094c4.286-3.772,7.46-6.688,7.46-12.606C720,32.596,715.455,25.479,704.733,25.479z
			 M711.271,81.767v-4.981c0-1.311-3.395-2.373-7.584-2.373c-4.189,0-7.581,1.063-7.581,2.373v1.301
			c-0.97-0.007-1.912,0.325-2.664,0.938c-0.647,0.614-0.995,1.479-0.954,2.37c0.121,2.618,1.857,4.884,4.354,5.682
			c0.347,0.848,0.869,1.614,1.533,2.246v0.69c0,1.309,2.379,2.371,5.313,2.371c2.934,0,5.313-1.061,5.313-2.371v-0.69
			C711.508,86.953,711.272,83.091,711.271,81.767L711.271,81.767z M693.854,81.393c-0.036-0.505,0.15-1,0.509-1.356
			c0.498-0.388,1.112-0.594,1.743-0.585v2.314c-0.044,1.171,0.027,2.343,0.213,3.499C694.833,84.543,693.88,83.046,693.854,81.393
			L693.854,81.393z M703.687,78.12c-3.351,0-6.072-0.599-6.072-1.335c0-0.74,2.721-1.336,6.072-1.336
			c3.354,0,6.072,0.597,6.072,1.336C709.76,77.521,707.042,78.12,703.687,78.12L703.687,78.12z"/>
	</g>
	<path opacity="0.5" fill-rule="evenodd" clip-rule="evenodd" fill="#F19EC2" enable-background="new    " d="M367.83,147.638
		c3.208,3.382,4.918,7.914,4.742,12.572c0.066,3.299-0.831,6.546-2.58,9.344c-2.107,3.786-6.128,6.104-10.46,6.032
		c-2.852-0.106-5.603-1.085-7.881-2.804c-2.476-1.826-5.091-6.456-5.091-12.572c0.025-3.748,1.139-7.408,3.208-10.534
		c2.052-3.459,5.813-5.538,9.833-5.437C362.7,144.16,365.69,145.394,367.83,147.638z M354.439,148.487
		c-2.117,3.003-3.217,6.605-3.139,10.279c0,11.043,5.579,14.951,8.509,14.951c7.044,0,8.16-9.514,8.16-13.082
		c0-9.259-5.16-14.525-8.508-14.525C357.476,145.91,355.543,146.826,354.439,148.487L354.439,148.487z"/>
	<path fill-rule="evenodd" clip-rule="evenodd" fill="#8F82BC" d="M190.083,165.867c-0.085-0.839-0.28-1.662-0.58-2.45
		c-0.329-0.714-0.546-1.474-0.644-2.254c-0.011-0.264,0.187-0.491,0.45-0.516c1.033,0,2.902,3.48,4.705,3.48
		c1.078,0.024,1.972-0.83,1.996-1.909c0-0.008,0-0.017,0-0.025c0-3.028-5.928-1.868-5.928-3.286s5.928-0.258,5.928-3.286
		c-0.011-1.078-0.893-1.943-1.971-1.932c-0.009,0-0.017,0-0.026,0c-1.804,0-3.673,3.479-4.705,3.479
		c-0.263-0.025-0.461-0.251-0.45-0.515c0.098-0.781,0.315-1.541,0.644-2.256c0.301-0.787,0.496-1.61,0.58-2.448
		c0.094-0.9-0.56-1.706-1.461-1.8c-0.093-0.01-0.187-0.011-0.28-0.005c-0.936-0.093-1.77,0.591-1.863,1.527
		c-0.009,0.092-0.011,0.185-0.005,0.278c0.078,0.846,0.296,1.673,0.644,2.448c0.283,0.726,0.478,1.483,0.58,2.256
		c0.01,0.264-0.188,0.491-0.452,0.515c-1.03,0-2.899-3.479-4.704-3.479c-1.078-0.025-1.972,0.829-1.997,1.907
		c0,0.008,0,0.016,0,0.025c0,3.029,5.929,1.868,5.929,3.286s-5.929,0.258-5.929,3.286c0.01,1.078,0.893,1.944,1.971,1.934
		c0.009,0,0.018,0,0.026,0c1.804,0,3.673-3.48,4.704-3.48c0.264,0.025,0.462,0.251,0.452,0.516c-0.102,0.772-0.297,1.529-0.58,2.254
		c-0.348,0.775-0.566,1.603-0.644,2.45c-0.06,0.939,0.652,1.749,1.591,1.809c0.092,0.006,0.185,0.004,0.277-0.005
		c0.903,0.061,1.684-0.622,1.745-1.524C190.095,166.053,190.093,165.96,190.083,165.867z"/>
	<path fill-rule="evenodd" clip-rule="evenodd" fill="#89C997" d="M147.794,165.867c-0.085-0.839-0.28-1.662-0.58-2.45
		c-0.329-0.714-0.546-1.474-0.644-2.254c-0.011-0.264,0.187-0.491,0.45-0.516c1.033,0,2.902,3.48,4.705,3.48
		c1.078,0.024,1.972-0.83,1.996-1.909c0-0.008,0-0.017,0-0.025c0-3.028-5.928-1.868-5.928-3.286s5.928-0.258,5.928-3.286
		c-0.011-1.078-0.893-1.943-1.971-1.932c-0.008,0-0.017,0-0.025,0c-1.804,0-3.673,3.479-4.705,3.479
		c-0.263-0.025-0.461-0.251-0.45-0.515c0.098-0.781,0.315-1.541,0.644-2.256c0.301-0.787,0.496-1.61,0.58-2.448
		c0.094-0.9-0.56-1.706-1.461-1.8c-0.093-0.01-0.187-0.011-0.28-0.005c-0.936-0.093-1.77,0.591-1.863,1.527
		c-0.009,0.092-0.011,0.185-0.005,0.278c0.078,0.846,0.296,1.673,0.644,2.448c0.283,0.726,0.478,1.483,0.58,2.256
		c0.01,0.264-0.188,0.491-0.452,0.515c-1.03,0-2.899-3.479-4.704-3.479c-1.078-0.025-1.972,0.829-1.997,1.908
		c0,0.008,0,0.016,0,0.024c0,3.029,5.929,1.868,5.929,3.286s-5.929,0.258-5.929,3.286c0.01,1.078,0.893,1.944,1.971,1.934
		c0.009,0,0.018,0,0.026,0c1.804,0,3.673-3.48,4.704-3.48c0.264,0.025,0.462,0.251,0.452,0.516c-0.102,0.772-0.297,1.529-0.58,2.254
		c-0.348,0.775-0.566,1.603-0.644,2.45c-0.06,0.939,0.652,1.749,1.591,1.809c0.092,0.006,0.185,0.004,0.277-0.005
		c0.903,0.061,1.684-0.622,1.745-1.525C147.806,166.053,147.804,165.959,147.794,165.867z"/>
	<path fill-rule="evenodd" clip-rule="evenodd" fill="#EC6D7B" d="M105.121,165.867c-0.085-0.838-0.28-1.662-0.58-2.45
		c-0.329-0.714-0.546-1.474-0.644-2.254c-0.011-0.264,0.187-0.491,0.45-0.516c1.033,0,2.901,3.48,4.705,3.48
		c1.078,0.024,1.972-0.831,1.996-1.909c0-0.008,0-0.017,0-0.025c0-3.028-5.927-1.868-5.927-3.286s5.927-0.258,5.927-3.286
		c-0.011-1.078-0.893-1.943-1.971-1.932c-0.008,0-0.017,0-0.025,0c-1.804,0-3.673,3.479-4.705,3.479
		c-0.263-0.025-0.461-0.251-0.45-0.515c0.098-0.781,0.315-1.541,0.644-2.256c0.3-0.787,0.496-1.61,0.58-2.448
		c0.094-0.9-0.56-1.706-1.461-1.8c-0.093-0.01-0.187-0.011-0.28-0.005c-0.936-0.093-1.77,0.591-1.863,1.527
		c-0.009,0.092-0.011,0.185-0.005,0.278c0.078,0.846,0.295,1.673,0.644,2.448c0.283,0.726,0.478,1.483,0.58,2.256
		c0.01,0.264-0.188,0.491-0.452,0.515c-1.03,0-2.899-3.479-4.704-3.479c-1.078-0.025-1.972,0.829-1.997,1.907
		c0,0.008,0,0.016,0,0.025c0,3.029,5.929,1.868,5.929,3.286s-5.929,0.258-5.929,3.286c0.01,1.078,0.893,1.944,1.971,1.934
		c0.009,0,0.018,0,0.026,0c1.804,0,3.673-3.48,4.704-3.48c0.264,0.025,0.462,0.251,0.452,0.516c-0.102,0.772-0.297,1.529-0.58,2.254
		c-0.348,0.775-0.566,1.603-0.644,2.45c-0.06,0.939,0.652,1.749,1.591,1.809c0.092,0.006,0.185,0.004,0.277-0.005
		c0.903,0.061,1.684-0.622,1.745-1.525C105.132,166.053,105.131,165.959,105.121,165.867z"/>
	<path fill-rule="evenodd" clip-rule="evenodd" fill="#88ABDA" d="M624.367,165.867c-0.085-0.839-0.28-1.662-0.58-2.45
		c-0.329-0.714-0.546-1.474-0.644-2.254c-0.011-0.264,0.187-0.491,0.45-0.516c1.033,0,2.902,3.48,4.705,3.48
		c1.078,0.024,1.972-0.831,1.996-1.909c0-0.008,0-0.017,0-0.025c0-3.028-5.927-1.868-5.927-3.286s5.927-0.258,5.927-3.286
		c-0.01-1.078-0.893-1.943-1.97-1.932c-0.009,0-0.017,0-0.026,0c-1.804,0-3.673,3.479-4.705,3.479
		c-0.263-0.025-0.461-0.251-0.45-0.515c0.098-0.781,0.315-1.541,0.644-2.256c0.301-0.787,0.496-1.61,0.58-2.448
		c0.094-0.9-0.56-1.706-1.461-1.8c-0.093-0.01-0.187-0.011-0.28-0.005c-0.936-0.093-1.77,0.591-1.863,1.527
		c-0.009,0.092-0.011,0.185-0.005,0.278c0.078,0.846,0.295,1.673,0.644,2.448c0.283,0.726,0.478,1.483,0.58,2.256
		c0.01,0.264-0.188,0.491-0.452,0.515c-1.03,0-2.899-3.479-4.704-3.479c-1.078-0.025-1.972,0.829-1.997,1.907
		c0,0.008,0,0.016,0,0.025c0,3.029,5.929,1.868,5.929,3.286s-5.929,0.258-5.929,3.286c0.01,1.078,0.893,1.944,1.971,1.934
		c0.009,0,0.018,0,0.026,0c1.804,0,3.673-3.48,4.704-3.48c0.264,0.025,0.462,0.251,0.452,0.516c-0.102,0.772-0.297,1.529-0.58,2.254
		c-0.348,0.775-0.566,1.603-0.644,2.45c-0.06,0.939,0.652,1.749,1.591,1.809c0.092,0.006,0.185,0.004,0.277-0.005
		c0.903,0.061,1.684-0.622,1.745-1.524C624.378,166.053,624.377,165.96,624.367,165.867z"/>
	<path fill-rule="evenodd" clip-rule="evenodd" fill="#FACD89" d="M582.078,165.867c-0.085-0.839-0.28-1.662-0.58-2.45
		c-0.329-0.714-0.546-1.474-0.644-2.254c-0.011-0.264,0.187-0.491,0.45-0.516c1.033,0,2.902,3.48,4.705,3.48
		c1.078,0.024,1.972-0.83,1.996-1.909c0-0.008,0-0.017,0-0.025c0-3.028-5.928-1.868-5.928-3.286s5.928-0.258,5.928-3.286
		c-0.011-1.078-0.893-1.943-1.971-1.932c-0.009,0-0.017,0-0.026,0c-1.804,0-3.673,3.479-4.705,3.479
		c-0.263-0.025-0.461-0.251-0.45-0.515c0.098-0.781,0.315-1.541,0.644-2.256c0.301-0.787,0.496-1.61,0.58-2.448
		c0.094-0.9-0.56-1.706-1.461-1.8c-0.093-0.01-0.187-0.011-0.28-0.005c-0.936-0.093-1.77,0.591-1.863,1.527
		c-0.009,0.092-0.011,0.185-0.005,0.278c0.078,0.846,0.296,1.673,0.644,2.448c0.283,0.726,0.478,1.483,0.58,2.256
		c0.01,0.264-0.188,0.491-0.452,0.515c-1.03,0-2.899-3.479-4.704-3.479c-1.078-0.025-1.972,0.829-1.997,1.908
		c0,0.008,0,0.016,0,0.024c0,3.029,5.929,1.868,5.929,3.286s-5.929,0.258-5.929,3.286c0.01,1.078,0.893,1.944,1.971,1.934
		c0.009,0,0.017,0,0.026,0c1.804,0,3.673-3.48,4.704-3.48c0.264,0.025,0.462,0.251,0.452,0.516c-0.102,0.772-0.297,1.529-0.58,2.254
		c-0.348,0.775-0.566,1.603-0.644,2.45c-0.06,0.939,0.652,1.749,1.591,1.809c0.092,0.006,0.185,0.004,0.277-0.005
		c0.903,0.061,1.684-0.622,1.745-1.524C582.089,166.053,582.088,165.96,582.078,165.867z"/>
	<path fill-rule="evenodd" clip-rule="evenodd" fill="#7ECEF4" d="M539.405,165.867c-0.085-0.838-0.28-1.662-0.58-2.45
		c-0.329-0.714-0.546-1.474-0.644-2.254c-0.011-0.264,0.187-0.491,0.45-0.516c1.033,0,2.901,3.48,4.705,3.48
		c1.078,0.024,1.972-0.831,1.996-1.909c0-0.008,0-0.017,0-0.025c0-3.028-5.927-1.868-5.927-3.286s5.927-0.258,5.927-3.286
		c-0.011-1.078-0.893-1.943-1.971-1.932c-0.009,0-0.017,0-0.026,0c-1.804,0-3.673,3.479-4.705,3.479
		c-0.263-0.025-0.461-0.251-0.45-0.515c0.098-0.781,0.315-1.541,0.644-2.256c0.3-0.787,0.496-1.61,0.58-2.448
		c0.094-0.9-0.56-1.706-1.461-1.8c-0.093-0.01-0.187-0.011-0.28-0.005c-0.936-0.093-1.77,0.591-1.863,1.527
		c-0.009,0.092-0.011,0.185-0.005,0.278c0.078,0.846,0.295,1.673,0.644,2.448c0.283,0.726,0.478,1.483,0.58,2.256
		c0.01,0.264-0.188,0.491-0.452,0.515c-1.03,0-2.899-3.479-4.704-3.479c-1.078-0.025-1.972,0.829-1.997,1.907
		c0,0.008,0,0.016,0,0.025c0,3.029,5.929,1.868,5.929,3.286s-5.929,0.258-5.929,3.286c0.01,1.078,0.893,1.944,1.971,1.934
		c0.009,0,0.018,0,0.026,0c1.804,0,3.673-3.48,4.704-3.48c0.264,0.025,0.462,0.251,0.452,0.516c-0.102,0.772-0.297,1.529-0.58,2.254
		c-0.348,0.775-0.566,1.603-0.644,2.45c-0.06,0.939,0.652,1.749,1.591,1.809c0.092,0.006,0.185,0.004,0.277-0.005
		c0.903,0.061,1.684-0.622,1.745-1.524C539.416,166.053,539.414,165.96,539.405,165.867z"/>
</g>
</svg>
