<?xml version="1.0" encoding="utf-8"?>
<!-- Generator: Adobe Illustrator 27.0.1, SVG Export Plug-In . SVG Version: 6.00 Build 0)  -->
<svg version="1.1" id="레이어_1" xmlns="http://www.w3.org/2000/svg" xmlns:xlink="http://www.w3.org/1999/xlink" x="0px"
	 y="0px" viewBox="0 0 720 137.311" enable-background="new 0 0 720 137.311" xml:space="preserve">
<path fill="#F65783" d="M212.126,127.252h2.462v9.887h-2.462V127.252z M230.052,132.404l-2.838-5.151h-2.47v9.887h2.47v-5.724
	l2.838,5.144l2.854-5.144v5.724h2.461v-9.887h-2.461L230.052,132.404z M254.986,132.183c0,2.781-2.437,5.127-5.324,5.127
	c-2.879,0-5.316-2.347-5.316-5.127c0-2.78,2.437-5.111,5.316-5.111C252.548,127.072,254.986,129.403,254.986,132.183
	 M252.45,132.183c0-1.545-1.284-2.87-2.788-2.87c-1.513,0-2.789,1.325-2.789,2.87c0,1.578,1.275,2.895,2.789,2.895
	C251.166,135.078,252.45,133.761,252.45,132.183 M263.793,129.452h3.009v7.687h2.462v-7.687h2.993v-2.2h-8.464V129.452z
	 M291.196,132.183c0,2.781-2.429,5.127-5.324,5.127c-2.878,0-5.307-2.347-5.307-5.127c0-2.78,2.429-5.111,5.307-5.111
	C288.767,127.072,291.196,129.403,291.196,132.183 M288.661,132.183c0-1.545-1.276-2.87-2.789-2.87s-2.789,1.325-2.789,2.87
	c0,1.578,1.276,2.895,2.789,2.895S288.661,133.761,288.661,132.183 M317.184,131.12c-1.455-0.319-1.938-0.515-1.938-1.12
	c0-0.491,0.45-0.867,1.243-0.867c0.916,0,1.913,0.36,2.813,1.055l1.259-1.758c-1.055-0.875-2.355-1.358-4.007-1.358
	c-2.257,0-3.786,1.276-3.786,3.173c0,1.987,1.578,2.568,3.688,3.034c1.439,0.343,1.897,0.482,1.897,1.063
	c0,0.532-0.474,0.908-1.39,0.908c-1.21,0-2.29-0.458-3.255-1.251l-1.382,1.652c1.194,1.088,2.797,1.66,4.547,1.66
	c2.445,0,3.958-1.235,3.958-3.222C320.831,132.232,319.409,131.594,317.184,131.12 M336.205,127.252l3.909,9.887h-2.764
	l-0.572-1.439h-3.917l-0.573,1.439h-2.764l3.917-9.887H336.205z M336.018,133.77l-1.194-3.034l-1.194,3.034H336.018z
	 M349.151,137.139h7.777v-2.208h-5.324v-1.742h4.833v-2.192h-4.833v-1.545h5.324v-2.2h-7.777V137.139z M379.866,137.139h2.461
	v-9.887h-2.461V137.139z M398.666,133.745l2.388,3.394h-2.789l-2.176-3.091h-1.21v3.091h-2.454v-9.887h4.588
	c2.175,0,3.753,1.398,3.753,3.394C400.768,132.093,399.95,133.222,398.666,133.745 M398.241,130.646
	c0-0.687-0.613-1.153-1.455-1.153h-1.905v2.298h1.905C397.628,131.791,398.241,131.341,398.241,130.646 M410.761,137.139h7.785
	v-2.208h-5.324v-1.742h4.833v-2.192h-4.833v-1.545h5.324v-2.2h-7.785V137.139z M437.371,134.465c0,1.578-1.399,2.674-3.353,2.674
	h-5.356v-9.887h5.168c1.832,0,3.091,1.055,3.091,2.494c0,0.973-0.499,1.758-1.366,2.192
	C436.7,132.453,437.371,133.386,437.371,134.465 M431.107,131.161h2.118c0.679,0,1.161-0.384,1.161-0.916s-0.483-0.908-1.161-0.908
	h-2.118V131.161z M434.836,134.056c0-0.572-0.515-0.989-1.235-0.989h-2.494v1.987h2.494
	C434.321,135.054,434.836,134.628,434.836,134.056 M452.426,127.252l3.917,9.887h-2.764l-0.573-1.439h-3.925l-0.572,1.439h-2.764
	l3.925-9.887H452.426z M452.238,133.77l-1.194-3.034l-1.194,3.034H452.238z M478.129,137.139h2.47v-9.887h-2.47V137.139z
	 M490.264,137.139h2.461v-9.887h-2.461V137.139z M503.381,134.342c-0.867,0-1.529,0.679-1.529,1.456
	c0,0.834,0.662,1.513,1.529,1.513c0.793,0,1.455-0.679,1.455-1.513C504.837,135.021,504.174,134.342,503.381,134.342"/>
<path fill="#F65783" d="M55.249,44.092v27.861c0,4.931-1.399,9.609-3.926,13.6l2.347,2.085c1.12,1.006,1.218,2.74,0.213,3.868
	c-0.548,0.597-1.284,0.908-2.036,0.908c-0.654,0-1.3-0.229-1.832-0.703l-2.11-1.881c-1.889,1.906-4.113,3.533-6.599,4.792
	l-5.544,2.797c-0.401,0.196-0.818,0.294-1.227,0.294c-0.998,0-1.971-0.557-2.445-1.505c-0.687-1.349-0.147-2.993,1.202-3.68
	l5.544-2.797c1.881-0.94,3.541-2.151,4.98-3.566l-7.041-6.313c-0.58-0.515-0.907-1.259-0.907-2.036V46.823h-2.895
	c-1.505,0-2.731-1.218-2.731-2.731c0-1.505,1.226-2.74,2.731-2.74h2.895v-7.548c0-1.505,1.218-2.732,2.731-2.732
	c1.505,0,2.74,1.227,2.74,2.732v7.548h11.179C54.022,41.352,55.249,42.587,55.249,44.092 M49.778,46.823h-8.439v29.775l5.839,5.225
	c1.677-2.944,2.6-6.321,2.6-9.87V46.823z M98.133,65.639c0-1.513-1.219-2.731-2.732-2.731H80.42V46.823h12.095
	c1.513,0,2.739-1.218,2.739-2.731c0-1.505-1.226-2.74-2.739-2.74H80.42v-7.548c0-1.505-1.218-2.732-2.731-2.732
	c-1.513,0-2.74,1.227-2.74,2.732v7.548H62.854c-1.513,0-2.731,1.235-2.731,2.74c0,1.513,1.218,2.731,2.731,2.731h12.095v16.085
	H62.854c-1.513,0-2.731,1.218-2.731,2.731c0,1.513,1.218,2.74,2.731,2.74h8.922L57.604,93.639c-0.736,1.317-0.27,2.977,1.047,3.721
	c0.425,0.237,0.883,0.352,1.341,0.352c0.956,0,1.881-0.507,2.388-1.399l12.569-22.407v21.065c0,1.505,1.226,2.74,2.74,2.74
	c1.513,0,2.731-1.235,2.731-2.74V73.907l12.577,22.407c0.507,0.891,1.431,1.399,2.388,1.399c0.458,0,0.908-0.115,1.333-0.352
	c1.317-0.744,1.791-2.404,1.047-3.721L83.593,68.379h11.808C96.914,68.379,98.133,67.153,98.133,65.639"/>
<path fill="#5791E9" d="M172.336,43.194h-13.141v-7.147c0-1.587-1.292-2.87-2.887-2.87c-1.587,0-2.87,1.284-2.87,2.87v7.147h-36.979
	c-1.587,0-2.87,1.284-2.87,2.879c0,1.586,1.284,2.878,2.87,2.878h36.979v15.374h-20.976c-9.249,0-16.764,7.523-16.764,16.764
	s7.515,16.764,16.764,16.764h30.854c1.587,0,2.87-1.292,2.87-2.878c0-1.595-1.284-2.878-2.87-2.878h-30.854
	c-6.068,0-10.999-4.939-10.999-11.007c0-6.068,4.931-10.999,10.999-10.999h23.846c1.595,0,2.887-1.292,2.887-2.878v-18.26h13.141
	c1.603,0,2.886-1.292,2.886-2.878C175.223,44.478,173.939,43.194,172.336,43.194 M205.709,42.63h30.78
	c1.587,0,2.878-1.292,2.878-2.878c0-1.595-1.292-2.878-2.878-2.878h-30.78c-1.186,0-2.151-0.965-2.151-2.159
	c0-1.586-1.292-2.878-2.878-2.878c-1.587,0-2.879,1.292-2.879,2.878C197.801,39.081,201.35,42.63,205.709,42.63 M11.932,10.173
	c-1.12-1.014-2.845-0.932-3.868,0.18c-1.014,1.121-0.932,2.854,0.18,3.868l13.493,12.315c0.532,0.483,1.194,0.712,1.848,0.712
	c0.744,0,1.48-0.294,2.019-0.891c1.022-1.112,0.941-2.846-0.18-3.86L11.932,10.173z M34.592,19.994c0.254,0,0.507-0.041,0.769-0.114
	c1.447-0.434,2.281-1.947,1.848-3.402L32.932,1.963c-0.417-1.447-1.947-2.281-3.394-1.848c-1.447,0.425-2.274,1.938-1.848,3.394
	l4.269,14.515C32.31,19.218,33.406,19.994,34.592,19.994 M17.803,33.34L3.427,29.579c-1.464-0.376-2.952,0.491-3.337,1.955
	c-0.384,1.455,0.491,2.96,1.955,3.337l14.368,3.77c0.229,0.057,0.466,0.09,0.695,0.09c1.21,0,2.322-0.818,2.641-2.044
	C20.134,35.221,19.259,33.725,17.803,33.34 M250.252,96.946c1.587,0,2.87-1.284,2.87-2.878c0-1.586-1.284-2.878-2.87-2.878h-20.125
	c-2.126,0-3.843-1.725-3.843-3.843v-4.776c0-2.51-0.981-4.792-2.568-6.501l15.301-5.307c5.07-1.758,7.989-6.698,7.098-11.996
	c-0.899-5.299-5.275-9.004-10.647-9.004H192.51c-1.595,0-2.887,1.292-2.887,2.886c0,1.587,1.292,2.87,2.887,2.87h42.957
	c3.148,0,4.637,2.274,4.964,4.203c0.327,1.939-0.343,4.571-3.312,5.602l-38.95,13.517c-5.823,1.947-9.74,7.377-9.74,13.518v1.709
	c0,1.595,1.284,2.878,2.887,2.878c1.586,0,2.87-1.284,2.87-2.878v-1.709c0-3.656,2.33-6.902,5.839-8.063l16.061-5.577
	c0.057,0,0.106,0.008,0.155,0.008h0.434c2.126,0,3.851,1.725,3.851,3.843v4.776c0,5.291,4.301,9.6,9.601,9.6H250.252z
	 M295.54,82.807c-1.3-0.924-3.091-0.63-4.031,0.662l-2.454,3.434c-2.355,3.304-5.912,3.606-8.439,2.789
	c-2.527-0.818-5.234-3.132-5.234-7.18V38.975c0-1.595-1.284-2.886-2.886-2.886c-1.587,0-2.87,1.292-2.87,2.886v43.538
	c0,5.888,3.623,10.86,9.233,12.659c1.398,0.45,2.797,0.671,4.179,0.671c4.179,0,8.128-1.988,10.696-5.586l2.47-3.434
	C297.127,85.53,296.824,83.739,295.54,82.807 M331.31,90.649V46.416c0-5.692-4.637-10.328-10.337-10.328
	c-1.586,0-2.878,1.292-2.878,2.886c0,1.587,1.292,2.87,2.878,2.87c2.527,0,4.579,2.052,4.579,4.571v44.233
	c0,1.603,1.284,2.886,2.87,2.886C330.009,93.536,331.31,92.252,331.31,90.649 M555.384,83.526c-1.292-0.924-3.091-0.629-4.015,0.662
	l-2.462,3.435c-2.363,3.295-5.912,3.606-8.439,2.789c-2.535-0.818-5.234-3.132-5.234-7.18V39.694c0-1.595-1.292-2.886-2.878-2.886
	c-1.595,0-2.878,1.292-2.878,2.886v43.537c0,5.888,3.615,10.86,9.233,12.659c1.39,0.458,2.805,0.67,4.187,0.67
	c4.171,0,8.112-1.987,10.688-5.585l2.462-3.434C556.971,86.249,556.677,84.451,555.384,83.526 M580.825,36.808
	c-1.586,0-2.87,1.292-2.87,2.886c0,1.587,1.284,2.87,2.87,2.87c2.527,0,4.571,2.052,4.571,4.571v44.241
	c0,1.586,1.292,2.878,2.886,2.878c1.587,0,2.87-1.292,2.87-2.878V47.136C591.153,41.444,586.525,36.808,580.825,36.808
	 M636.441,83.526c-1.292-0.924-3.091-0.629-4.015,0.662l-2.47,3.435c-2.355,3.295-5.896,3.606-8.431,2.789
	c-2.535-0.818-5.242-3.132-5.242-7.18V39.694c0-1.595-1.284-2.886-2.87-2.886c-1.603,0-2.886,1.292-2.886,2.886v43.537
	c0,5.888,3.631,10.86,9.232,12.659c1.398,0.458,2.805,0.67,4.187,0.67c4.187,0,8.12-1.987,10.688-5.585l2.47-3.434
	C638.036,86.249,637.725,84.451,636.441,83.526 M661.882,36.808c-1.595,0-2.878,1.292-2.878,2.886c0,1.587,1.284,2.87,2.878,2.87
	c2.519,0,4.571,2.052,4.571,4.571v44.241c0,1.586,1.284,2.878,2.878,2.878c1.587,0,2.878-1.292,2.878-2.878V47.136
	C672.21,41.444,667.582,36.808,661.882,36.808 M453.376,94.975c0-1.595-1.292-2.878-2.878-2.878c-1.725,0-3.132-1.407-3.132-3.132
	V36.48c0-1.586-1.284-2.87-2.87-2.87c-1.594,0-2.886,1.284-2.886,2.87v52.484c0,4.906,3.982,8.889,8.889,8.889
	C452.085,97.854,453.376,96.561,453.376,94.975 M420.266,92.097c-2.028,0-3.68-1.652-3.68-3.68V48.829
	c0-4.857-2.764-9.061-7.229-10.983c-4.465-1.905-9.428-1.03-12.945,2.314l-28.458,27.019V52.86h3.402
	c1.595,0,2.887-1.292,2.887-2.878c0-1.595-1.292-2.878-2.887-2.878h-3.402V36.047c0-1.587-1.284-2.87-2.87-2.87
	c-1.603,0-2.886,1.284-2.886,2.87v11.056h-7.957c-1.586,0-2.878,1.284-2.878,2.878c0,1.587,1.292,2.878,2.878,2.878h7.957v19.79
	l-10.222,9.706c-1.161,1.088-1.202,2.919-0.114,4.073c1.096,1.144,2.927,1.194,4.072,0.098l6.264-5.937v14.385
	c0,1.586,1.284,2.878,2.886,2.878c1.587,0,2.87-1.292,2.87-2.878V75.12l32.425-30.781c1.856-1.758,4.35-2.2,6.697-1.194
	c2.347,1.006,3.754,3.124,3.754,5.684v39.588c0,5.209,4.236,9.437,9.437,9.437c1.595,0,2.878-1.292,2.878-2.878
	C423.144,93.38,421.86,92.097,420.266,92.097 M508.6,70.017c0,1.586-1.284,2.878-2.87,2.878h-10.075v9.601
	c0,8.464-6.886,15.358-15.358,15.358h-5.25c-8.464,0-15.358-6.894-15.358-15.358c0-8.472,6.894-15.358,15.358-15.358h14.85V48.224
	H461.71c-1.595,0-2.887-1.284-2.887-2.879c0-1.586,1.292-2.878,2.887-2.878h28.188v-6.419c0-1.587,1.284-2.87,2.879-2.87
	c1.586,0,2.878,1.284,2.878,2.87v31.091h10.075C507.316,67.139,508.6,68.422,508.6,70.017 M489.898,72.895h-14.85
	c-5.299,0-9.601,4.309-9.601,9.601c0,5.299,4.301,9.601,9.601,9.601h5.25c5.291,0,9.6-4.301,9.6-9.601V72.895z M506.965,34.24
	c-2.715,0-4.915,2.2-4.915,4.915c0,2.715,2.2,4.915,4.915,4.915c2.715,0,4.923-2.2,4.923-4.915
	C511.888,36.439,509.68,34.24,506.965,34.24 M506.965,49.123c-2.715,0-4.915,2.208-4.915,4.923c0,2.715,2.2,4.906,4.915,4.906
	c2.715,0,4.923-2.192,4.923-4.906C511.888,51.331,509.68,49.123,506.965,49.123 M720,82.21c0,8.546-6.951,15.505-15.496,15.505
	c-8.546,0-15.489-6.959-15.489-15.505c0-8.537,6.943-15.496,15.489-15.496C713.049,66.713,720,73.673,720,82.21 M714.53,82.21
	c0-5.528-4.498-10.025-10.026-10.025c-5.52,0-10.018,4.498-10.018,10.025c0,5.536,4.498,10.034,10.018,10.034
	C710.031,92.244,714.53,87.746,714.53,82.21"/>
</svg>
