<?xml version="1.0" encoding="utf-8"?>
<!-- Generator: Adobe Illustrator 27.0.1, SVG Export Plug-In . SVG Version: 6.00 Build 0)  -->
<svg version="1.1" id="레이어_1" xmlns="http://www.w3.org/2000/svg" xmlns:xlink="http://www.w3.org/1999/xlink" x="0px"
	 y="0px" viewBox="0 0 720 171.401" enable-background="new 0 0 720 171.401" xml:space="preserve">
<path d="M408.58,106.374c-5.971,2.193-9.657,2.504-14.79,0.295l-37.961-37.961l37.945-37.946c5.132-2.224,8.818-1.929,14.806,0.264
	c-3.235-8.771-2.504-12.55,4.541-23.328c-10.792,7.045-14.556,7.776-23.328,4.557c2.177,5.971,2.489,9.657,0.265,14.79
	l-37.931,37.946L314.165,27.03c-2.209-5.117-1.929-8.803,0.28-14.774c-8.803,3.219-12.55,2.488-23.328-4.557
	c7.029,10.777,7.776,14.557,4.541,23.328c5.971-2.193,9.657-2.488,14.774-0.28l37.961,37.962l-37.946,37.946
	c-5.132,2.224-8.818,1.913-14.79-0.28c3.235,8.787,2.488,12.55-4.541,23.343c10.777-7.045,14.525-7.776,23.328-4.541
	c-2.193-5.988-2.489-9.673-0.296-14.79l37.978-37.962l37.931,37.946c2.224,5.132,1.928,8.803-0.265,14.79
	c8.772-3.235,12.535-2.489,23.328,4.556C406.061,118.925,405.345,115.161,408.58,106.374 M95.119,62.067h42.658
	c0.607,0,2.224,0,2.224-1.617c0-0.903-0.607-1.493-1.493-2.24l-6.951-6.064c-1.773-1.634-2.068-1.929-2.815-1.929
	c-0.887,0-1.477,1.042-2.364,2.068l-5.194,6.236H95.119c0.14-1.788,0.295-4.448,0.295-9.627c0-0.607,0-2.97-0.295-28.599
	c11.104-2.224,17.481-4.448,21.928-5.91c1.321,0.28,2.814,0.747,5.038,0.747c0.87,0,2.955,0,2.955-1.649
	c0-0.591-0.295-1.182-0.871-1.617l-9.502-8.896c-2.799,2.66-3.406,3.251-6.065,4.448c-17.029,7.839-34.821,13.608-53.031,17.62
	v0.591c8.895,0.295,23.25-2.209,31.399-3.701c0.295,3.406,0.607,7.262,0.607,16.298c0,1.773,0,11.259-0.607,20.295h-3.111
	c-7.683,0-16.874-0.466-24.572-1.057l3.391,6.376c7.108-1.477,16.143-1.772,19.113-1.772h5.038
	c-1.026,15.552-2.519,33.172-15.706,50.061c-9.035,11.399-18.351,18.507-31.695,25.023l0.156,0.746
	C84.31,125.005,91.713,95.55,94.373,68.738c3.716,22.799,15.411,47.977,34.82,66.048c2.8-2.814,6.362-6.516,16.579-6.811v-1.197
	C118.524,117.322,101.044,93.606,95.119,62.067 M465.873,31.851c3.406,0,4.587-3.561,4.587-5.63c0-6.812-8.724-13.483-14.214-16.438
	l-1.198,0.59c3.717,5.335,4.759,11.276,4.884,11.99C460.833,27.853,461.564,31.851,465.873,31.851 M186.952,81.181
	c0-12.753-2.068-34.37-11.415-52.581c7.262-7.107,10.217-11.259,12.597-14.525c1.493-0.28,1.633-0.28,4.137-0.747
	c0.311,0,2.535-0.436,2.535-2.052c0-0.607-0.311-0.747-2.224-2.24l-9.191-6.951c-1.182,4.587-2.364,9.191-11.539,20.279
	C165.63,13.188,158.368,8.149,154.06,5.35l-0.87,0.731c6.516,5.474,10.809,13.328,14.806,20.886
	c-13.188,14.806-20.886,20.139-25.629,23.405l0.887,1.167c12.597-5.91,19.72-11.695,27.852-18.647
	c2.52,5.179,3.841,9.176,4.884,13.624c-10.078,29.486-27.247,50.061-36.733,60.59l0.591,0.87
	c17.48-11.399,29.921-28.724,38.661-47.837c1.198,9.922,1.198,16.733,1.198,18.957c0,8.88-1.198,29.471-7.123,39.113
	c-2.38,3.841-5.77,4.137-7.559,4.137c-2.799,0-7.558-0.591-14.665-2.519v1.182c4.292,1.929,8.6,6.672,8.88,7.108
	c2.24,2.519,2.675,3.421,3.266,6.515c4.307-0.746,10.964-1.913,17.045-11.399C186.205,113.154,186.952,88.132,186.952,81.181
	 M49.941,113.605c2.519,2.971,4.292,4.884,6.516,4.884c1.928,0,4.307-2.068,4.307-5.335c0-6.361-9.332-11.244-15.707-14.214
	c3.406-8.289,5.194-17.029,6.967-25.769c1.337-6.672,2.66-16.143,3.857-29.33c4.728-2.66,5.615-3.251,5.615-4.292
	c0-0.731-0.731-1.322-1.337-1.914l-5.615-4.743c-0.746-0.59-1.493-1.197-2.224-1.197c-0.731,0-1.041,0.31-2.224,1.337l-3.84,3.421
	H30.704c2.659-14.37,3.996-20.295,5.023-25.178c4.883-1.789,5.925-2.084,5.925-3.561c0-1.337-1.042-1.773-1.337-1.929L26.846,0
	c0.14,2.084,0.452,4.448,0.14,7.854c-0.14,2.815-2.224,18.367-4.137,28.444c-1.493,0-9.191-0.155-19.129-0.886l3.578,6.361
	c6.205-1.183,14.37-1.634,14.96-1.634c-4.152,22.519-5.038,28.149-10.684,53.032c-0.435,2.224-0.87,3.996-0.87,4.743
	c0,2.364,1.773,3.111,3.701,3.111c2.068,0,4.743-0.903,5.615-2.675c0.451-1.027,0.451-1.493,1.182-5.926
	c5.645,1.929,11.866,5.926,15.272,8.305c-4.743,10.062-14.526,25.925-32.441,35.676v0.902c6.081-2.223,26.516-9.922,38.055-32.005
	C44.171,107.385,45.058,108.131,49.941,113.605 M21.513,91.242c0.746-4.884,4.447-26.671,5.179-31.103
	c0.607-3.25,2.83-17.169,3.406-20.139h18.227c-1.493,24.727-6.377,46.795-9.922,56.142C29.211,92.875,24.188,91.833,21.513,91.242
	 M525.856,21.648c3.857-0.747,6.065-1.213,6.065-2.986c0-0.591-0.436-1.182-1.337-1.773l-10.062-6.361
	c-1.633,4.884-1.929,6.065-3.421,9.035c-2.94,5.77-7.683,13.172-9.315,15.707l0.886,0.871
	C511.486,34.214,516.82,30.217,525.856,21.648 M612.214,70.294c-11.773-5.848-26.266-10.015-35.147-18.6
	c-3.437-3.329-4.992-7.621-6.283-11.602c-0.87-2.784-1.275-6.843-1.275-10.668c0-4.791,0.793-8.725,2.41-11.836
	c1.586-3.079,3.593-5.598,6.034-7.511c2.426-1.913,5.039-3.266,7.869-4.027c2.815-0.762,5.381-1.167,7.714-1.167
	c4.183,0,7.838,0.917,10.995,2.753c3.142,1.82,5.848,4.292,8.087,7.325c2.239,3.032,4.044,6.563,5.474,10.559
	c1.4,3.997,2.411,8.149,3.001,12.457h1.587V5.537h-1.851c-0.762,1.695-1.369,2.721-1.804,3.157c-0.435,0.42-1.291,0.638-2.55,0.638
	c-1.368,0-2.705-0.374-4.012-1.089c-1.306-0.716-2.814-1.509-4.448-2.411c-1.664-0.887-3.623-1.679-5.894-2.38
	c-2.302-0.715-5.132-1.073-8.538-1.073c-4.65,0-8.942,0.948-12.877,2.862c-3.95,1.913-7.325,4.541-10.124,7.884
	c-2.831,3.344-5.023,7.31-6.563,11.897c-1.571,4.619-2.348,9.611-2.348,14.977c0,8.258,2.007,14.805,6.05,19.704
	c4.027,4.899,9.952,8.833,17.822,11.819c3.577,1.354,7.262,2.567,10.885,3.857c10.575,3.78,19.892,9.767,23.452,18.18
	c1.261,2.986,1.882,6.563,1.882,10.747c0,2.877-0.389,6.018-1.182,9.408c-0.747,3.391-2.116,6.563-4.044,9.486
	c-1.944,2.924-4.557,5.35-7.854,7.263c-3.281,1.913-7.512,2.861-12.628,2.861c-1.835,0-3.81-0.062-5.878-0.186
	c-2.083-0.094-4.261-0.529-6.548-1.244c-2.271-0.7-4.525-1.851-6.749-3.391c-2.224-1.555-4.355-3.764-6.377-6.609
	c-2.037-2.877-3.903-6.516-5.598-10.918c-1.695-4.417-3.079-9.844-4.153-16.283h-1.601v38.46h2.068
	c0.389-1.182,0.855-2.146,1.384-2.846c0.529-0.731,1.54-1.089,2.971-1.089c1.679,0,3.608,0.482,5.847,1.43
	c2.224,0.964,4.324,1.804,6.251,2.504c1.649,0.607,3.157,1.042,4.541,1.322c1.354,0.327,2.706,0.59,4.06,0.824
	c1.353,0.249,2.814,0.389,4.385,0.436c1.54,0.062,3.328,0.093,5.365,0.093c5.724,0,10.903-1.167,15.444-3.484
	c4.556-2.333,8.46-5.443,11.664-9.331c3.219-3.888,5.66-8.367,7.355-13.437c2.271-6.765,3.22-13.748,1.074-20.575
	C629.196,81.461,620.923,74.618,612.214,70.294 M714.187,89.003c-2.348-7.542-10.653-14.385-19.331-18.709
	c-11.773-5.848-26.299-10.015-35.178-18.6c-3.452-3.329-4.977-7.621-6.268-11.602c-0.87-2.784-1.275-6.843-1.275-10.668
	c0-4.791,0.793-8.725,2.395-11.836c1.602-3.079,3.608-5.598,6.034-7.511c2.426-1.913,5.07-3.266,7.885-4.027
	c2.799-0.762,5.381-1.167,7.729-1.167c4.152,0,7.838,0.917,10.995,2.753c3.142,1.82,5.832,4.292,8.071,7.325
	c2.24,3.032,4.06,6.563,5.459,10.559c1.415,3.997,2.411,8.149,2.97,12.457h1.649V5.537h-1.851c-0.777,1.695-1.399,2.721-1.85,3.157
	c-0.404,0.42-1.276,0.638-2.535,0.638c-1.369,0-2.69-0.374-4.012-1.089c-1.306-0.716-2.784-1.509-4.448-2.411
	c-1.648-0.887-3.608-1.679-5.894-2.38c-2.287-0.715-5.132-1.073-8.507-1.073c-4.682,0-8.974,0.948-12.923,2.862
	c-3.904,1.913-7.279,4.541-10.109,7.884c-2.831,3.344-4.992,7.31-6.563,11.897c-1.54,4.619-2.317,9.611-2.317,14.977
	c0,8.258,2.006,14.805,6.034,19.704c3.996,4.899,9.952,8.833,17.822,11.819c3.561,1.354,7.278,2.567,10.87,3.857
	c10.606,3.78,19.907,9.767,23.452,18.18c1.26,2.986,1.897,6.563,1.897,10.747c0,2.877-0.389,6.018-1.167,9.408
	c-0.777,3.391-2.146,6.563-4.074,9.486c-1.929,2.924-4.557,5.35-7.854,7.263c-3.281,1.913-7.496,2.861-12.613,2.861
	c-1.85,0-3.81-0.062-5.894-0.186c-2.084-0.094-4.261-0.529-6.531-1.244c-2.287-0.7-4.526-1.851-6.766-3.391
	c-2.208-1.555-4.354-3.764-6.376-6.609c-2.053-2.877-3.903-6.516-5.598-10.918c-1.695-4.417-3.064-9.844-4.137-16.283h-1.602v38.46
	h2.068c0.389-1.182,0.84-2.146,1.369-2.846c0.544-0.731,1.524-1.089,3.001-1.089c1.633,0,3.577,0.482,5.832,1.43
	c2.224,0.964,4.324,1.804,6.251,2.504c1.649,0.607,3.157,1.042,4.526,1.322c1.354,0.327,2.706,0.59,4.075,0.824
	c1.353,0.249,2.831,0.389,4.37,0.436c1.555,0.062,3.343,0.093,5.396,0.093c5.723,0,10.855-1.167,15.427-3.484
	c4.572-2.333,8.444-5.443,11.664-9.331c3.188-3.888,5.645-8.367,7.356-13.437C715.369,102.813,716.333,95.83,714.187,89.003
	 M250.201,15.412c1.322-0.451,2.068-0.747,4.277-1.617c2.084,0.28,2.831,0.28,3.561,0.28c1.788,0,4.292,0,4.292-1.773
	c0-0.902-1.026-1.633-1.929-2.364l-9.626-7.263c-1.322,3.406-3.407,5.63-11.975,9.471c-8.321,3.857-21.632,8.149-26.967,9.502
	l-12.302-4.899c0.311,1.321,1.634,10.078,1.634,10.948c0.295,8.896,0.295,21.042,0.295,30.233c0,32.425-2.519,55.971-22.363,76.561
	l1.041,1.182c25.474-19.549,27.838-38.351,28.584-76.561c0.156-8.289,0.436-28.149,0.156-35.412c2.068-0.28,5.335-0.59,13.033-1.772
	c1.026,7.698,1.026,13.032,1.026,34.213v56.143c-8.88,1.772-12.581,1.772-17.48,1.772l4.447,9.782
	c0.452,1.026,0.887,1.773,1.773,1.773c1.493,0,1.788-1.337,2.068-3.111c10.094-4.012,11.276-4.604,28.599-13.483
	c1.183,4.012,1.634,7.262,1.914,8.585c0.59,3.717,1.493,6.081,4.603,6.081c3.561,0,4.743-3.421,4.743-5.474
	c0-5.645-6.236-15.116-16.142-20.886l-0.902,0.747c4.012,5.769,4.587,7.107,5.334,9.766c-1.477,0.436-9.331,2.208-11.104,2.659
	V30.217c2.675-1.182,5.335-2.364,5.335-3.996c0-1.929-2.519-2.66-3.997-3.111l-6.827-1.773c9.486-1.773,16.593-3.266,22.658-5.179
	c-0.731,8.289-1.182,16.733-1.182,25.162c0,38.226,7.854,71.834,21.197,87.977c3.982-2.209,5.77-2.799,8.569-2.799
	c0.746,0,1.493,0,4.448,0.28v-0.732c-22.363-22.519-31.244-54.493-31.244-95.83C249.75,23.11,249.89,18.677,250.201,15.412
	 M442.032,36.143l-4.168-2.364c6.081-13.343,8.305-18.21,10.078-22.224c4.884-1.616,5.489-1.772,5.489-3.094
	c0-0.902-0.731-1.493-1.337-1.788l-11.399-5.335c-4.884,22.224-22.675,61.461-32.285,76.126l0.731,0.59
	c4.448-4.727,13.623-14.354,22.955-32.565c0,57.604-0.14,69.454-1.337,83.373c-0.124,2.083-0.28,2.519-0.28,3.266
	c0,1.633,0.28,3.996,3.111,3.996c0.14,0,6.951,0,6.951-7.418c0-23.841-1.477-62.051-0.746-85.892
	c4.012-2.97,4.463-3.406,4.463-4.432C444.256,37.48,443.198,36.889,442.032,36.143 M544.362,38.522l-6.672-5.334
	c-0.124,0-1.913-1.493-2.799-1.493c-0.747,0-1.337,0.746-2.068,1.788l-4.012,5.335h-25.909V26.967c0-11.71,0-13.048,0.14-15.101
	c3.997-2.675,4.448-2.97,4.448-3.857c0-1.198-0.902-1.493-2.364-1.929l-10.964-3.406c1.182,3.702,1.634,5.179,1.773,17.481
	c0,2.659-0.14,15.707,0,18.662h-11.415c-0.124-2.38,0-25.629,0.156-27.418c3.111-1.773,4.012-2.364,4.012-3.686
	c0-0.903-0.311-1.634-2.083-2.084l-10.964-2.955c0.902,3.546,1.337,5.785,1.649,15.987c0,2.814,0,16.889,0.124,20.155h-6.361
	c-2.815,0-13.624-0.296-24.743-1.183l3.561,6.361c5.334-1.026,11.555-1.492,16.889-1.616c5.194,4.727,6.22,9.766,6.361,10.497
	c1.041,5.179,1.182,5.63,2.831,8.008h-3.266c-2.815,0-13.483-0.155-24.587-1.041l3.39,6.376c5.646-1.057,13.935-1.773,19.129-1.773
	h13.623V75.41h-3.265c-2.66,0-13.468-0.311-24.588-1.213l3.546,6.392c5.49-1.057,13.779-1.633,18.973-1.633h5.179
	c-0.28,5.614-0.59,9.175-1.026,12.581H470.46c-2.675,0-13.468-0.295-24.587-1.182l3.561,6.377
	c5.614-1.042,13.763-1.649,18.942-1.649h14.089c-2.83,15.116-17.48,27.853-37.34,34.68v1.773
	c18.367-3.111,35.551-11.866,43.249-28.009c1.337-2.799,1.914-7.262,2.224-8.444h2.084c7.247,20.746,23.094,33.343,42.643,38.677
	c1.928-4.307,4.883-7.262,9.47-9.191v-1.478c-26.049,0.14-45.317-16.889-50.045-28.008h46.95c0.887,0,2.224-0.28,2.224-1.617
	c0-0.887-0.746-1.633-1.493-2.224l-6.361-4.884c-1.042-0.746-1.929-1.492-2.814-1.492c-0.591,0-0.747,0.155-2.209,1.772
	l-4.307,4.899h-35.707c0.311-3.25,0.746-6.967,1.057-12.581h32.565c1.057,0,2.38-0.296,2.38-1.634c0-0.887-0.591-1.477-1.493-2.224
	l-4.728-4.292c-0.155-0.155-1.772-1.633-2.814-1.633c-0.591,0-0.731,0.295-2.224,1.929l-3.857,4.307h-19.688
	c0.14-5.941,0.14-7.729,0.14-10.964h43.109c1.027,0,2.209-0.155,2.209-1.492c0-1.042-0.591-1.478-1.462-2.38l-5.49-4.572
	c-1.182-1.057-1.928-1.788-2.675-1.788c-0.575,0-0.87,0.295-2.348,1.928l-4.603,4.743H499.48c2.519-1.928,3.11-2.675,10.077-9.937
	c0.887-0.124,4.884-0.436,4.884-2.364c0-0.887-0.747-1.322-1.337-1.773l-6.361-4.432h36.733c1.042,0,2.38-0.311,2.38-1.649
	C545.855,39.703,544.953,38.957,544.362,38.522 M495.794,60.885h-14.23c0.591-0.746,1.182-1.633,1.182-3.996
	c0-8.149-8.88-12.893-13.032-14.51h33.482C501.859,49.921,498.017,57.028,495.794,60.885"/>
<path d="M145.103,158.719c-0.358,0.902,0.342,0.746-0.217,1.524c-0.545,0.762-2.131,0.653-3.079-0.451
	c-1.851-2.1-2.27-5.071-2.675-9.549c-0.187-1.851-0.467-2.769-0.794-3.048c-0.98-0.638-0.948-0.684,0.217-1.011
	c1.12-0.296,2.24,0.295,2.784,1.011c0.716,0.87,0.295,0.839,0.031,2.612c-0.343,2.348-0.078,5.318,1.306,7.418
	c0.327,0.482,0.7,0.514,0.996,0.14c1.213-1.385,2.659-3.22,3.747-4.479c0.731-0.84,0.825-0.7,0.404,0.217
	C147.234,154.473,145.725,157.226,145.103,158.719 M156.301,157.521c-1.244,0.109-0.591-0.808-1.136-1.119
	c-0.902-0.545-1.803-1.074-2.364-1.384c-0.809-0.498-0.809-0.607,0.109-0.498c0.84,0.094,1.43,0.124,2.146,0.172
	c0.436,0.03,0.622-0.28,0.575-0.684c-0.28-2.022-1.508-4.494-3.033-5.568c-0.762-0.544-0.731-0.7,0.249-0.404
	c2.753,0.777,5.754,3.795,5.397,7.169C158.089,156.604,157.327,157.444,156.301,157.521"/>
<path d="M186.514,162.314c-0.482-0.497-0.981-0.964-1.524-1.43c-3.437,3.297-9.113,2.208-7.932-1.26
	c0.887-2.644,3.079-2.831,4.681-2.519c0.995,0.202,1.913,0.529,2.675,0.87c3.343-6.578-0.575-9.425-5.646-8.32
	c-0.839,3.157-2.099,5.987-4.09,8.398c0.311,0.467,0.684,0.996,1.12,1.571c1.337,1.757-0.544,3.359-1.742,1.54
	c-0.358-0.529-0.668-1.027-0.948-1.478c-0.684,0.591-1.431,1.167-2.224,1.695c-1.758,1.135-4.557,1.4-3.81-2.675
	c0.358-2.022,1.633-3.903,3.281-5.459c-0.467-2.13-0.669-4.339-1.182-5.769c-0.28-0.809-0.109-0.918,0.435-0.311
	c1.354,1.586,1.664,2.504,2.317,4.759c1.524-1.135,3.329-2.116,4.713-2.66c0.234-1.011,0.358-1.913,0.42-2.908
	c0.078-1.26-0.217-1.726-0.964-1.803c-0.653-0.078-0.715-0.218-0.078-0.684c0.482-0.373,1.011-0.498,2.1-0.156
	c1.664,0.514,2.053,1.306,1.695,1.959c-0.497,0.887-0.575,1.914-0.793,2.908c8.04-1.664,10.683,4.261,7.355,10.482
	c0.545,0.373,1.198,0.87,1.742,1.306C189.344,161.381,188.146,164.072,186.514,162.314 M170.838,154.958
	c-0.903,1.182-1.695,2.534-1.882,3.872c-0.171,0.964,0.218,1.337,1.198,0.716c0.684-0.451,1.337-1.026,1.928-1.68
	C171.599,156.902,171.133,155.891,170.838,154.958 M172.315,153.247c0.265,0.949,0.653,1.914,1.182,2.924
	c1.213-1.602,2.162-3.717,2.799-5.708C174.989,151.117,173.481,152.128,172.315,153.247 M181.04,158.721
	c-1.509-0.373-2.753-0.186-3.204,1.151c-0.482,1.524,3.064,1.695,5.319-0.249C182.532,159.281,181.739,158.923,181.04,158.721"/>
<path d="M229.648,161.631c0.124,1.633-1.182,2.255-2.115,1.073c-0.529-0.7-0.809-2.254-0.903-3.343
	c-0.186-2.908-0.093-5.926,0.903-11.462c0.202-1.167,0.466-2.582-0.031-2.986c-0.544-0.436-0.544-0.497,0.109-0.653
	c0.684-0.171,2.006,0.217,2.519,0.995c0.622,0.964,0.731,1.541,0.171,2.333c-0.171,0.265-0.42,0.731-0.731,1.851
	c-0.777,2.582-1.493,4.665-1.353,8.507c0.015,0.653,0.249,0.7,0.513,0.156c0.933-1.914,1.447-2.877,2.597-5.132
	c0.514-0.964,0.762-0.855,0.436,0.171C229.913,159.407,229.571,160.698,229.648,161.631 M242.883,161.74
	c-0.234-0.265-0.623-0.607-1.011-0.934c-1.337,2.971-8.927,2.1-7.978-1.835c0.59-2.582,3.406-2.441,6.049-1.555
	c-0.031-1.493-0.062-3.018-0.093-4.526c-0.389,0.109-0.777,0.217-1.182,0.311c-1.54,0.451-3.251,0.233-3.934-1.151
	c-0.404-0.7-0.265-0.731,0.388-0.388c0.855,0.451,3.157-0.109,4.712-0.731c-0.108-2.535-0.062-3.453-0.186-3.841
	c-0.56,0.078-1.104,0.124-1.727,0.186c-1.523,0.124-3.094-0.327-3.484-1.633c-0.186-0.514-0.14-0.575,0.389-0.264
	c0.59,0.342,2.068,0.217,3.313,0.077c1.182-0.14,2.753-0.529,3.794-0.777c0.374-0.078,0.591-0.451,1.742-0.124
	c1.447,0.358,1.337,1.851-0.451,2.115c-0.31,0.047-0.746,0.094-1.306,0.156c0.187,0.623-0.156,1.415-0.156,3.188
	c0.467-0.249,0.887-0.451,1.415-0.358c1.43,0.202,1.43,1.198,0.575,1.695c-0.622,0.373-1.275,0.669-1.99,0.948
	c0,2.1,0,4.246,0.14,5.941c1.228,0.591,2.27,1.276,2.705,1.71C246.428,161.787,244.096,163.046,242.883,161.74 M234.905,159.065
	c-0.343,1.556,4.681,2.038,5.038,0.452C237.766,158.257,235.278,157.448,234.905,159.065 M245.48,150.932
	c-0.249-0.809-1.011-2.489-1.835-3.608c-0.265-0.374-0.265-0.498,0.202-0.265c1.555,0.731,2.612,1.851,3.126,3.172
	C247.439,151.476,245.977,152.596,245.48,150.932 M247.409,148.94c-0.296-0.917-0.981-2.208-1.96-3.328
	c-0.264-0.28-0.186-0.404,0.217-0.233c1.587,0.7,2.691,1.601,3.251,2.753C249.585,149.517,247.968,150.667,247.409,148.94"/>
<path d="M266.332,163.535c-0.949-2.721-3.251-5.489-5.475-8.118c-1.073-1.306-1.26-2.348-0.03-3.934
	c1.166-1.493,3.25-4.572,4.214-6.361c0.451-0.84,0.995-1.758,0.793-2.27c-0.404-1.011-0.186-1.074,0.607-0.762
	c0.84,0.342,1.556,0.809,1.913,1.524c0.234,0.481,0.623,1.772-0.295,2.317c-0.28,0.186-0.716,0.466-0.995,0.809
	c-1.337,1.571-3.919,4.183-5.319,5.708c-0.762,0.839-0.668,1.089,0.031,1.742c2.706,2.504,5.474,4.883,7.045,7.682
	C270.048,164.095,267.483,166.818,266.332,163.535"/>
<path d="M302.882,152.743c-1.399-1.337-2.488-2.131-4.23-3.437c-0.684-0.514-0.746-0.575,0.187-0.436
	c2.177,0.311,4.167,0.716,5.396,1.617C306.226,151.934,304.484,154.251,302.882,152.743 M304.78,161.654
	c-0.98,0.637-0.653,1.601-2.706,0.607c-1.896-0.871-1.959-1.851-1.959-2.644c0-0.7,0.093-0.7,0.777-0.327
	c1.105,0.623,1.758,0.684,2.94,0.063c4.541-2.519,9.859-6.252,14.339-11.198c0.7-0.809,1.011-0.544,0.388,0.343
	C314.577,154.142,311.125,157.735,304.78,161.654 M306.289,148.605c-1.105-1.337-2.535-2.627-4.06-3.763
	c-0.529-0.436-0.529-0.452,0.156-0.404c2.068,0.155,4.214,0.98,5.366,1.913C309.819,148.061,307.564,150.098,306.289,148.605"/>
<path d="M330.406,154.803c-0.514,0.031-1.089,0.078-1.524,0.327c-0.653,0.357-1.228,0.093-1.773-0.56
	c-0.497-0.607-0.731-0.996-0.84-2.146c-0.078-0.918,0.156-0.918,0.684-0.451c0.669,0.607,1.384,0.559,3.126,0.607
	c5.242,0.186,13.608-0.374,16.112-0.452c2.395-0.047,2.457,2.38,0.047,2.318C342.023,154.305,334.465,154.539,330.406,154.803"/>
<path d="M373.629,149.73c-3.655,6.874-6.564,10.404-14.666,14.184c-0.933,0.404-1.088,0.078-0.186-0.529
	c6.376-4.277,10-8.803,12.534-14.448c0.14-0.358,0.109-0.497-0.358-0.389c-1.664,0.358-2.317,0.498-3.452,0.607
	c-0.575,0.047-1.228-0.14-1.695-0.435c-1.772,2.644-3.545,4.571-7.06,6.765c-1.073,0.683-1.291,0.435-0.358-0.467
	c3.468-3.515,5.583-7.06,6.921-10c0.234-0.529,0.358-1.042-0.311-1.726c-0.466-0.467-0.451-0.732,0.343-0.654
	c1.042,0.109,1.695,0.389,2.457,1.354c1.088,1.447,0.077,1.43-0.327,2.052c-0.357,0.623-0.715,1.198-1.057,1.742
	c1.54-0.233,3.049-0.544,5.179-0.98c0.653-0.14,0.762-1.026,2.287,0.498C375.774,149.201,374.095,148.828,373.629,149.73"/>
<path d="M393.022,160.953c-0.794,0.436-1.042,1.82-2.535,0.218c-1.478-1.586-0.653-1.042-0.607-2.426
	c0.14-3.515,0.14-6.765,0.078-10.529c-0.031-1.369-0.047-1.82-0.762-2.177c-0.591-0.31-0.684-0.466,0.063-0.762
	c0.902-0.342,1.959-0.202,3.048,0.731c0.98,0.84,0.062,1.229,0,2.131c-0.156,2.97-0.249,6.843-0.218,9.953
	c0,0.404,0.109,0.436,0.514,0.217c4.635-2.597,8.787-5.614,12.955-9.082c0.933-0.794,1.15-0.544,0.358,0.373
	C402.104,153.971,397.874,158.124,393.022,160.953"/>
<path d="M416.83,155.023c-0.559-1.337-0.933-2.068-2.052-3.982c-0.436-0.731-0.436-0.793,0.373-0.373
	c1.835,0.949,2.721,1.913,3.577,3.328C419.707,155.676,417.779,157.34,416.83,155.023 M428.728,151.944
	c-2.395,5.365-4.961,8.382-10.746,11.508c-0.871,0.466-1.027,0.358-0.202-0.327c4.339-3.732,7.06-7.31,8.631-11.353
	c0.42-1.073,0.342-1.835-0.078-2.332c-0.544-0.607-0.467-0.731,0.389-0.684c0.948,0.062,1.85,0.529,2.425,1.369
	C430.065,151.43,429.023,151.291,428.728,151.944 M420.361,153.436c-0.327-1.353-0.701-2.473-1.541-4.323
	c-0.264-0.607-0.233-0.716,0.343-0.327c1.524,1.057,2.597,2.068,3.219,3.794C423.005,154.307,420.905,155.707,420.361,153.436"/>
<path d="M452.179,156.11c-1.447-1.492-2.567-2.907-4.915-5.1c-0.047,2.83-0.031,4.774,0,7.558c0.031,2.519,0.358,2.862,0.233,3.951
	c-0.233,1.959-2.161,2.348-2.628-0.777c-0.093-0.84,0.28-0.778,0.295-2.769c0.094-4.09,0.109-8.553,0.063-12.456
	c-0.031-1.882-0.373-2.209-1.12-2.52c-0.746-0.342-0.84-0.466,0.063-0.855c0.809-0.342,1.99-0.249,3.157,0.482
	c0.87,0.56,0.855,0.98,0.482,1.415c-0.343,0.42-0.421,1.026-0.452,2.177c-0.03,1.228-0.03,2.27-0.062,3.25
	c2.846,1.182,4.385,1.835,6.221,3.111C456.05,155.348,454.169,158.163,452.179,156.11"/>
<path d="M485.772,150.505c-1.089-0.047-2.38-0.015-3.811,0.063c-0.715,6.485-1.913,10.062-7.853,13.344
	c-0.918,0.497-1.105,0.42-0.187-0.389c4.246-3.686,5.335-6.967,5.801-12.815c-1.306,0.094-2.706,0.25-4.183,0.404
	c0.031,1.447,0.062,2.862,0.171,4.308c0.14,2.286-1.447,2.924-2.1,0.793c-0.342-1.088-0.078-1.088-0.078-2.395
	c0-0.575-0.03-1.477-0.062-2.457c-1.057,0.108-2.193,0.249-3.344,0.404c-1.586,0.217-1.523,0.839-2.612-0.016
	c-0.716-0.56-0.762-0.87-0.855-1.648c-0.063-0.903,0.108-0.949,0.668-0.374c0.7,0.701,1.727,0.653,2.799,0.545
	c1.276-0.124,2.364-0.202,3.328-0.311c-0.062-0.918-0.078-1.851-0.14-2.644c-0.078-1.493-0.156-1.617-0.98-1.897
	c-0.794-0.28-0.762-0.497,0.078-0.716c1.119-0.295,2.006-0.156,2.892,0.731c0.84,0.84,0.156,1.042,0.187,1.975
	c0.03,0.809,0.03,1.586,0.03,2.348c1.665-0.171,2.924-0.28,4.308-0.42c0.062-1.089,0.109-2.255,0.156-3.515
	c0.062-1.54-0.187-1.913-0.964-1.959c-0.809-0.047-0.716-0.327-0.156-0.684c1.337-0.778,2.411-0.498,3.468,0.451
	c1.182,1.026,0.14,1.384,0.093,1.944c-0.109,1.275-0.217,2.457-0.311,3.545c0.327-0.015,0.964-0.078,1.151-0.108
	c2.348-0.187,1.119-0.653,3.406-0.358C488.601,148.888,488.913,150.645,485.772,150.505"/>
<path d="M499.957,154.803c-0.53,0.031-1.089,0.078-1.524,0.327c-0.653,0.357-1.228,0.093-1.773-0.56
	c-0.497-0.607-0.731-0.996-0.84-2.146c-0.078-0.918,0.156-0.918,0.669-0.451c0.684,0.607,1.399,0.559,3.141,0.607
	c5.241,0.186,13.593-0.374,16.112-0.452c2.395-0.047,2.458,2.38,0.047,2.318C511.573,154.305,504.015,154.539,499.957,154.803"/>
<path d="M534.99,161.71c-3.281-0.14-4.992-1.478-4.977-4.479c0.031-3.732,0.109-6.843,0.062-8.444c-0.062-1.385,0-1.96-0.793-2.27
	c-0.794-0.327-0.98-0.482,0-0.871c0.948-0.389,1.959-0.14,3.033,0.762c1.135,0.933,0.264,1.089,0.186,2.208
	c-0.078,1.213-0.217,3.515-0.31,5.505c2.302-1.337,4.432-2.861,6.142-4.339c0.933-0.777,1.074-0.964,0.762-1.384
	c-0.342-0.482-0.234-0.622,0.529-0.575c1.042,0.062,1.695,0.327,2.365,1.43c1.088,1.742-0.047,1.415-1.027,1.882
	c-3.857,1.897-5.847,2.581-8.787,3.514c-0.03,1.011-0.062,1.929-0.062,2.473c0.031,2.131,0.078,2.287,2.877,2.396
	c1.601,0.062,2.721-0.078,4.463-0.343c1.213-0.187,1.447-0.42,2.426-0.311c2.566,0.28,1.929,2.318,0.109,2.535
	C540.106,161.632,537.602,161.818,534.99,161.71 M543.838,148.6c-0.529-0.684-1.866-1.975-3.017-2.706
	c-0.358-0.249-0.421-0.388,0.108-0.327c1.695,0.14,3.111,0.794,4.06,1.835C545.86,148.397,544.912,149.984,543.838,148.6
	 M546.156,146.92c-0.591-0.731-1.711-1.664-3.018-2.364c-0.358-0.186-0.327-0.327,0.109-0.295c1.742,0.078,3.079,0.514,4.012,1.384
	C548.395,146.687,547.307,148.351,546.156,146.92"/>
<path d="M571.746,160.817c-1.276-2.037-2.878-3.95-5.397-6.624c-2.551,3.141-5.801,5.925-10.466,8.382
	c-0.623,0.342-0.825,0.156-0.187-0.343c5.008-3.981,9.673-9.47,12.472-14.96c0.202-0.389,0.156-0.529-0.342-0.389
	c-1.617,0.436-3.298,1.011-5.257,1.617c-1.042,0.327-1.213,1.12-2.519,0.296c-0.809-0.545-1.12-1.057-1.167-2.426
	c-0.031-0.794,0.234-0.762,0.762-0.296c0.482,0.436,0.653,0.56,2.239,0.358c2.007-0.233,3.593-0.497,6.205-0.933
	c1.074-0.186,0.996-1.228,2.613,0.202c2.254,2.038,0.234,1.602-0.389,2.66c-1.104,1.913-2.224,3.701-3.561,5.365
	c3.142,1.556,4.993,2.831,6.718,4.728C575.322,160.49,573.471,163.539,571.746,160.817"/>
<path d="M218.705,160.802c-1.167,0.421-1.882,0.482-2.878,0.063l-7.355-7.387l7.355-7.356c0.996-0.436,1.711-0.373,2.878,0.063
	c-0.638-1.711-0.482-2.442,0.886-4.526c-2.099,1.353-2.83,1.493-4.525,0.87c0.42,1.151,0.466,1.866,0.047,2.877l-7.372,7.356
	l-7.372-7.356c-0.421-1.011-0.373-1.726,0.062-2.877c-1.71,0.623-2.441,0.482-4.541-0.87c1.369,2.083,1.524,2.814,0.887,4.526
	c1.167-0.436,1.882-0.498,2.862-0.063l7.387,7.372l-7.387,7.372c-0.98,0.42-1.695,0.358-2.862-0.063
	c0.638,1.695,0.482,2.426-0.887,4.526c2.1-1.369,2.831-1.508,4.541-0.887c-0.435-1.15-0.482-1.866-0.062-2.861l7.372-7.372
	l7.372,7.372c0.42,0.98,0.373,1.71-0.047,2.861c1.695-0.622,2.426-0.482,4.525,0.887
	C218.223,163.228,218.067,162.497,218.705,160.802"/>
<path d="M719.597,149.795c-0.436-1.462-2.068-3.81-4.307-4.526c-0.436-0.187-0.887-0.327-1.354-0.42
	c-0.436-0.094-0.84-0.172-1.26-0.202c-0.902-0.701-2.193-2.318-2.675-4.541c0,0-1.12,3.11,0.56,4.758
	c-1.508,0.404-2.815,1.276-3.717,2.551c-0.84,1.182-1.182,2.613-0.933,4.044c0.249,1.415,1.011,2.675,2.209,3.515
	c1.99,1.43,4.773,0.948,6.205-1.042c1.135-1.586,0.824-3.779-0.653-4.992c-0.063-0.063-0.234-0.078-0.202,0.015
	c0.03,0.093,0.28,0.373,0.482,0.887c0.388,1.042-0.141,2.753-0.607,3.391c-1.042,1.462-3.079,1.803-4.542,0.761
	c-0.917-0.668-1.523-1.633-1.726-2.737c-0.187-1.12,0.078-2.239,0.731-3.157c0.855-1.182,2.1-1.959,3.545-2.209
	c0.576-0.093,1.135-0.078,1.695,0c1.135,0.296,2.302,0.747,2.582,0.887c1.12,0.498,1.99,1.415,2.566,2.504
	c1.12,2.053,1.105,4.743-0.047,6.501c-1.679,2.551-4.198,4.027-7.123,4.183c-1.804,0.093-3.623-0.358-5.256-1.291
	c-1.089-0.622-2.1-1.477-2.924-2.504c-0.404-0.482-0.777-1.337-1.073-2.254c0.249-1.244,0.373-2.52,0.327-3.811
	c-0.171-5.35-2.737-10.622-7.076-14.432l-0.482-0.451l-0.731-0.638c-1.43-1.197-3.204-2.706-4.105-4.572
	c-3.25-6.671,7.247-9.502,8.336-1.508c1.54-5.318-4.728-9.518-9.176-6.049c-1.803,1.399-3.53,3.794-2.286,8.273
	c0,0-2.442-3.484-3.344-8.056c-1.586-8.102-0.84-12.456,2.628-15.598c3.391-3.079,8.896-5.474,14.214-0.777
	c-0.187-1.586-0.824-2.862-1.959-3.717c-4.292-3.313-10.7-1.089-13.919,2.721c-4.961,5.848-3.795,15.086-0.451,21.4
	c1.104,2.115,2.597,3.888,3.966,5.832c1.399,1.959,3.297,3.638,4.821,4.976l0.482,0.421c3.716,3.281,5.925,7.745,6.049,12.27
	c0.015,0.156,0.015,0.31,0.015,0.466c0,3.764-1.446,7.169-4.198,9.892c-2.691,2.675-6.143,4.074-9.72,3.934
	c-3.515-0.156-6.781-1.788-9.191-4.619l-0.031-0.047l-2.1-3.406c-0.015-0.047-0.202-0.435-0.202-0.435
	c-0.031-0.047-0.124-0.327-0.14-0.374c-0.436-1.166-0.653-2.441-0.653-3.716c0-1.556,0.326-3.111,0.963-4.401
	c0.887-1.788,2.302-3.018,4.121-3.546c2.365-0.715,4.899-0.295,6.765,1.12c1.773,1.353,2.721,3.359,2.691,5.676
	c-0.031,1.617-1.182,3.313-2.784,4.153c-1.4,0.731-2.877,0.684-4.168-0.109c-0.514-0.404-0.964-0.98-1.228-1.649
	c-0.358-0.963-0.343-1.928,0.062-2.659c0.249-0.451,0.731-0.762,1.276-0.825c0.544-0.078,1.041,0.14,1.43,0.514
	c0.777,0.746,0.653,1.384,0.311,1.835c0-0.03,0.015-0.078,0.015-0.124c0-0.575-0.466-1.073-1.042-1.073
	c-0.575,0-1.041,0.497-1.041,1.073c0,0.575,0.466,1.042,1.041,1.042c0.172,0,0.326-0.047,0.467-0.124
	c0.451-0.078,0.824-0.265,1.026-0.669c0.343-0.683,0.171-1.648-0.419-2.301c-0.451-0.498-1.135-0.747-1.851-0.669
	c-0.715,0.078-1.321,0.482-1.649,1.074c-0.171,0.327-0.264,0.683-0.326,1.057c-0.544-0.031-1.353,0.809-0.575,2.737
	c0.343,0.84,0.98,1.54,2.007,1.944c2.488,1.011,4.494-0.047,5.645-0.964c2.38-1.897,3.25-5.303,2.084-8.086
	c-0.156-0.327-0.326-0.684-0.56-1.011c-1.322-2.022-3.452-3.578-5.522-4.075c-1.041-0.234-2.223-0.327-3.187-0.217l-0.933,0.109
	l-0.078-0.918c-0.047-0.497-1.617-2.441-1.602-1.866v0.078c0,1.726-0.7,3.328-2.052,4.65c-1.914,1.866-2.737,3.825-3.298,6.376
	l-0.202,0.855l-1.369-1.228c-1.15-0.949-2.161-2.084-3.297-3.049c-1.322-1.135-2.737-2.052-4.231-2.721
	c-2.954-1.306-6.205-1.664-9.548-0.995l0.217-0.063l1.198-1.773c1.057-1.54,4.152-1.897,6.049-2.006
	c-0.078-0.047-1.633-0.623-1.711-0.653c-1.493-0.653-2.94-0.747-4.199-0.311l-0.762,0.265l-0.233-0.762
	c-0.156-0.498-0.404-1.011-0.684-1.509c-0.233-0.435-0.529-0.87-0.809-1.228c-0.374-0.466-0.825-0.933-1.322-1.321
	c-1.291-1.011-2.924-1.711-4.556-1.975c-3.313-0.529-6.688,1.742-7.512,5.07c-0.28,1.073-0.156,3.157,0.948,4.432
	c0.732,1.042,1.804,1.804,3.049,2.116c1.384,0.342,2.675,0.047,3.592-0.809c0.607-0.576,0.918-1.509,0.84-2.52
	c-0.078-0.995-0.544-1.881-1.26-2.395c-0.902-0.668-2.068-0.684-2.799-0.047c-0.575,0.514-0.746,1.369-0.467,2.348
	c0,0,0.607-3.671,2.971-1.727c0.529,0.436,0.902,1.074,0.964,1.867c0.047,0.761-0.187,1.492-0.654,1.913
	c-0.746,0.746-1.896,0.995-3.094,0.684c-0.264-0.078-0.544-0.187-0.809-0.296c0.887,0.063,1.586-0.171,2.146-0.59
	c-0.996,0.264-2.146,0-2.892-0.451c-1.291-0.794-1.96-2.1-1.866-3.671c0.077-1.727,1.104-3.374,2.488-4.027
	c2.007-0.949,4.121-0.933,6.003,0.078c1.182,0.622,2.131,1.586,2.784,2.783c0.451,0.794,0.762,1.71,0.887,2.675
	c0.388,2.738-1.508,3.795-3.452,5.412c-1.447,0.607-2.831,1.353-4.214,2.364c-0.996,0.701-1.851,1.556-2.628,2.473
	c-1.198,0.25-3.018,0.701-3.204,0.762c-2.318,0.716-4.246,2.209-6.299,3.437c-1.881,1.15-4.432,2.706-6.578,1.322
	c-0.747-0.467-1.229-1.167-1.337-1.96c-0.436-2.659,1.462-5.645,4.354-4.152c-3.997-3.468-8.444,1.99-6.221,6.174
	c0.856,1.617,2.348,3.064,6.019,2.706c0,0-2.519,1.462-6.609,1.742c-4.93,0.327-11.757-1.43-13.857-6.438
	c-0.903-2.115-1.307-5.116,0.342-6.952c0.575-0.653,1.447-1.415,3.001-2.022c-1.82,0.28-3.981,1.695-4.868,3.919
	c-0.995,2.519-0.109,6.112,1.617,8.072c1.757,2.006,4.37,3.359,6.982,3.903c1.431,0.295,3.002,0.451,4.464,0.358
	c3.437-0.187,6.921-0.964,9.984-2.597c0.731-0.389,1.478-0.855,2.177-1.354c1.447-1.026,2.846-2.115,4.307-3.111
	c1.276-0.87,2.675-1.54,4.168-1.974c-0.497,0.637-0.995,1.26-1.508,1.881c-0.716,0.887-1.322,2.146-2.441,2.582
	c1.306,0.124,3.639-2.193,3.639-2.193c-0.234,0.156-0.607,3.297-0.591,3.577c0.078,0.918,0.217,1.835,0.482,2.737
	c0.514,1.82,1.649,3.343,3.374,4.214c4.806,2.426,9.907-0.529,11.68-5.272c0.435-0.467,0.917-0.825,1.492-1.074
	c0.016,0,0.031-0.015,0.047-0.015c0.373-0.172,0.761-0.249,1.166-0.296c-0.607-0.249-1.197-0.388-1.772-0.388
	c-0.358,0-0.716,0.062-1.027,0.171l-0.622,0.202l-0.187-0.622c-0.202-0.654-0.575-1.385-1.026-1.975
	c-0.902-1.198-2.488-2.115-4.137-2.426c-0.295-0.047-0.56-0.078-0.825-0.063c-2.115,0.016-4.043,1.524-4.603,3.578
	c-0.265,0.995-0.373,2.581,0.964,3.903c0.544,0.545,1.166,0.762,1.788,0.747c1.462-0.047,1.788-0.794,1.617-1.151
	c0.217-0.124,0.42-0.295,0.59-0.497c0.265-0.373,0.358-0.887,0.202-1.354c-0.14-0.481-0.482-0.855-0.933-1.011
	c-0.575-0.186-1.243-0.03-1.601,0.389c-0.265,0.343-0.28,0.777-0.031,1.213c0,0-0.015-1.881,1.508-1.275
	c0.343,0.14,0.623,0.42,0.731,0.777c0.124,0.373,0.063,0.762-0.171,1.041c-0.358,0.482-0.964,0.747-1.679,0.778
	c-0.513,0.03-1.011-0.094-1.4-0.296c-0.887-0.607-1.322-1.555-1.228-2.659c0.093-1.26,0.855-2.457,1.881-2.94
	c1.478-0.668,3.033-0.622,4.385,0.14c2.396,1.353,3.266,4.494,2.1,6.951c-2.348,4.93-10.466,3.561-10.902-1.99
	c-0.171-2.317,0.497-6.283,4.806-9.829c1.897-1.57,4.758-2.69,7.511-3.328c1.773-0.436,3.841-0.529,5.661-0.466
	c1.602,0.078,3.452,0.668,4.774,1.54c2.395,1.555,4.354,4.261,5.956,6.547c2.022,2.862,3.25,6.221,5.552,8.896
	c2.97,3.499,7.729,5.941,11.384,5.692c3.654-0.25,6.998-2.255,6.998-2.255s0.358,1.089-6.423,3.359
	c-6.765,2.239-15.35,2.519-21.835,0.295c-0.047-0.015-0.388-0.186-0.388-0.186c-1.665-0.934-2.613-2.146-2.784-3.531
	c-0.016-0.155-0.031-0.295-0.031-0.451c0-1.197,0.607-2.426,1.773-3.561c0.264-0.233,0.575-0.466,0.902-0.7
	c-1.322,0.575-2.41,1.26-3.204,2.022c-0.933,0.902-1.415,1.866-1.415,2.831c0,0.202,0.031,0.388,0.063,0.59
	c0.31,1.556,1.897,2.955,4.323,3.873c7.247,2.644,18.382,1.851,26.127-1.322c2.582-1.057,7.076-4.977,7.87-5.769
	c1.415-1.4,2.519-2.97,3.359-4.681l1.041,1.213c0.53,0.467,1.183,0.903,1.867,1.307c0.607,0.342,1.212,0.637,1.819,0.87
	c0.778,0.28,1.617,0.497,2.504,0.607c2.24,0.265,4.635-0.063,6.75-0.918C718.632,159.374,720.997,154.304,719.597,149.795
	 M110.389,143.869c1.54,0.607,2.395,1.369,2.97,2.022c1.679,1.836,1.244,4.837,0.373,6.952c-2.131,5.008-8.942,6.765-13.872,6.438
	c-4.075-0.28-6.625-1.742-6.625-1.742c3.701,0.358,5.179-1.089,6.034-2.706c2.239-4.183-2.209-9.642-6.221-6.174
	c2.893-1.493,4.791,1.493,4.37,4.152c-0.14,0.794-0.607,1.493-1.337,1.96c-2.161,1.384-4.712-0.172-6.609-1.322
	c-2.037-1.228-3.981-2.721-6.268-3.437c-0.202-0.062-2.022-0.513-3.204-0.762c-0.809-0.917-1.664-1.772-2.644-2.473
	c-1.4-1.011-2.768-1.757-4.231-2.364c-1.928-1.617-3.825-2.675-3.436-5.412c0.14-0.964,0.435-1.881,0.886-2.675
	c0.654-1.197,1.617-2.161,2.784-2.783c1.866-1.011,4.012-1.027,6.019-0.078c1.369,0.653,2.395,2.301,2.488,4.027
	c0.078,1.571-0.59,2.877-1.866,3.671c-0.746,0.451-1.913,0.715-2.908,0.451c0.56,0.42,1.26,0.653,2.146,0.59
	c-0.264,0.109-0.529,0.218-0.824,0.296c-1.198,0.31-2.317,0.062-3.094-0.684c-0.452-0.421-0.684-1.151-0.623-1.913
	c0.063-0.794,0.42-1.431,0.964-1.867c2.348-1.944,2.97,1.727,2.97,1.727c0.28-0.98,0.094-1.835-0.482-2.348
	c-0.715-0.638-1.881-0.622-2.799,0.047c-0.715,0.514-1.166,1.4-1.26,2.395c-0.078,1.011,0.249,1.944,0.855,2.52
	c0.887,0.855,2.194,1.15,3.578,0.809c1.228-0.311,2.332-1.074,3.033-2.116c1.135-1.275,1.26-3.359,0.98-4.432
	c-0.84-3.328-4.214-5.598-7.527-5.07c-1.649,0.264-3.25,0.964-4.541,1.975c-0.529,0.388-0.964,0.855-1.337,1.321
	c-0.296,0.358-0.56,0.794-0.809,1.228c-0.28,0.498-0.514,1.011-0.669,1.509l-0.249,0.762l-0.762-0.265
	c-1.26-0.436-2.706-0.342-4.198,0.311c-0.078,0.03-1.634,0.607-1.711,0.653c1.897,0.109,4.993,0.466,6.05,2.006l1.182,1.773
	l0.233,0.063c-3.344-0.669-6.594-0.311-9.534,0.995c-1.508,0.669-2.939,1.586-4.246,2.721c-1.135,0.964-2.146,2.1-3.297,3.049
	l-1.369,1.228l-0.186-0.855c-0.576-2.551-1.4-4.51-3.298-6.376c-1.353-1.322-2.068-2.924-2.068-4.65v-0.078
	c0-0.575-1.555,1.369-1.601,1.866l-0.078,0.918l-0.933-0.109c-0.949-0.109-2.146-0.016-3.173,0.217
	c-2.083,0.497-4.198,2.053-5.536,4.075c-0.218,0.327-0.42,0.684-0.56,1.011c-1.167,2.783-0.295,6.19,2.083,8.086
	c1.151,0.918,3.157,1.975,5.661,0.964c1.011-0.404,1.664-1.104,1.975-1.944c0.777-1.928-0.016-2.768-0.575-2.737
	c-0.047-0.374-0.124-0.731-0.311-1.057c-0.327-0.591-0.948-0.996-1.649-1.074c-0.715-0.078-1.384,0.171-1.866,0.669
	c-0.59,0.653-0.762,1.617-0.404,2.301c0.218,0.404,0.591,0.591,1.011,0.669c0.156,0.078,0.311,0.124,0.482,0.124
	c0.591,0,1.057-0.467,1.057-1.042c0-0.575-0.466-1.073-1.057-1.073c-0.591,0-1.057,0.497-1.057,1.073
	c0,0.047,0.015,0.094,0.031,0.124c-0.343-0.451-0.451-1.089,0.31-1.835c0.374-0.373,0.871-0.591,1.431-0.514
	c0.56,0.063,1.026,0.374,1.275,0.825c0.404,0.731,0.436,1.695,0.047,2.659c-0.249,0.669-0.684,1.244-1.228,1.649
	c-1.275,0.794-2.738,0.84-4.153,0.109c-1.601-0.84-2.737-2.535-2.768-4.153c-0.047-2.317,0.918-4.324,2.691-5.676
	c1.85-1.415,4.385-1.835,6.749-1.12c1.82,0.529,3.235,1.758,4.137,3.546c0.638,1.291,0.964,2.846,0.964,4.401
	c0,1.275-0.217,2.551-0.653,3.716c-0.015,0.047-0.124,0.327-0.14,0.374c0,0-0.202,0.388-0.234,0.435l-2.084,3.406l-0.03,0.047
	c-2.426,2.831-5.692,4.463-9.191,4.619c-3.578,0.14-7.03-1.26-9.72-3.934c-2.738-2.722-4.184-6.128-4.184-9.892
	c0-0.156,0-0.31,0.016-0.466c0.124-4.526,2.317-8.989,6.034-12.27l0.482-0.421c1.54-1.337,3.436-3.017,4.836-4.976
	c1.353-1.944,2.846-3.717,3.951-5.832c3.343-6.314,4.51-15.552-0.467-21.4c-3.204-3.81-9.595-6.034-13.888-2.721
	c-1.167,0.855-1.803,2.131-1.959,3.717c5.303-4.697,10.824-2.302,14.214,0.777c3.452,3.142,4.198,7.496,2.612,15.598
	c-0.887,4.572-3.343,8.056-3.343,8.056c1.243-4.479-0.467-6.874-2.287-8.273c-4.463-3.468-10.699,0.731-9.175,6.049
	c1.104-7.993,11.601-5.163,8.351,1.508c-0.918,1.866-2.691,3.375-4.105,4.572c0,0-0.747,0.638-0.732,0.638l-0.497,0.451
	c-4.324,3.81-6.905,9.082-7.06,14.432c-0.047,1.291,0.078,2.567,0.311,3.811c-0.296,0.917-0.669,1.772-1.074,2.254
	c-0.84,1.027-1.82,1.882-2.94,2.504c-1.601,0.933-3.421,1.384-5.225,1.291c-2.939-0.156-5.458-1.633-7.122-4.183
	c-1.167-1.758-1.198-4.448-0.063-6.501c0.575-1.089,1.43-2.006,2.566-2.504c0.28-0.14,1.447-0.59,2.598-0.887
	c0.544-0.078,1.119-0.093,1.694,0c1.431,0.25,2.691,1.027,3.546,2.209c0.638,0.918,0.887,2.037,0.7,3.157
	c-0.171,1.104-0.777,2.068-1.71,2.737c-1.478,1.042-3.499,0.701-4.541-0.761c-0.467-0.638-0.996-2.348-0.591-3.391
	c0.202-0.514,0.436-0.794,0.467-0.887c0.015-0.093-0.124-0.078-0.187-0.015c-1.493,1.213-1.803,3.406-0.668,4.992
	c1.415,1.99,4.214,2.473,6.22,1.042c1.182-0.84,1.96-2.1,2.209-3.515c0.217-1.43-0.094-2.862-0.949-4.044
	c-0.902-1.275-2.224-2.146-3.701-2.551c1.649-1.649,0.56-4.758,0.56-4.758c-0.498,2.223-1.773,3.84-2.675,4.541
	c-0.42,0.03-0.855,0.108-1.26,0.202c-0.467,0.093-0.949,0.233-1.385,0.42c-2.208,0.716-3.84,3.064-4.276,4.526
	c-1.4,4.51,0.933,9.579,5.225,11.321c2.1,0.855,4.494,1.183,6.734,0.918c0.887-0.109,1.742-0.327,2.489-0.607
	c0.622-0.233,1.243-0.529,1.835-0.87c0.684-0.404,1.353-0.84,1.866-1.307l1.057-1.213c0.84,1.711,1.944,3.281,3.344,4.681
	c0.809,0.793,5.287,4.712,7.884,5.769c7.729,3.173,18.881,3.966,26.112,1.322c2.441-0.918,3.997-2.317,4.339-3.873
	c0.031-0.202,0.047-0.388,0.047-0.59c0-0.964-0.482-1.929-1.399-2.831c-0.794-0.762-1.897-1.447-3.204-2.022
	c0.295,0.234,0.637,0.467,0.887,0.7c1.182,1.135,1.788,2.364,1.788,3.561c0,0.156-0.016,0.296-0.031,0.451
	c-0.187,1.385-1.15,2.597-2.784,3.531l-0.388,0.186c-6.485,2.224-15.07,1.944-21.851-0.295c-6.765-2.27-6.438-3.359-6.438-3.359
	s3.374,2.006,7.014,2.255c3.655,0.249,8.399-2.194,11.384-5.692c2.287-2.675,3.515-6.034,5.537-8.896
	c1.633-2.286,3.577-4.992,5.956-6.547c1.337-0.871,3.188-1.462,4.806-1.54c1.803-0.063,3.872,0.03,5.645,0.466
	c2.753,0.638,5.598,1.758,7.512,3.328c4.323,3.546,4.992,7.512,4.805,9.829c-0.42,5.552-8.568,6.921-10.885,1.99
	c-1.167-2.457-0.311-5.598,2.099-6.951c1.337-0.762,2.908-0.809,4.386-0.14c1.011,0.482,1.788,1.68,1.881,2.94
	c0.078,1.104-0.373,2.052-1.228,2.659c-0.42,0.202-0.902,0.327-1.4,0.296c-0.715-0.031-1.337-0.296-1.695-0.778
	c-0.217-0.279-0.279-0.668-0.171-1.041c0.109-0.358,0.373-0.638,0.731-0.777c1.524-0.607,1.508,1.275,1.508,1.275
	c0.265-0.436,0.234-0.87-0.047-1.213c-0.327-0.42-0.995-0.575-1.57-0.389c-0.452,0.156-0.809,0.53-0.964,1.011
	c-0.124,0.467-0.063,0.981,0.234,1.354c0.171,0.202,0.357,0.373,0.59,0.497c-0.187,0.358,0.156,1.104,1.602,1.151
	c0.637,0.015,1.26-0.202,1.803-0.747c1.337-1.322,1.213-2.908,0.933-3.903c-0.544-2.053-2.473-3.561-4.587-3.578
	c-0.249-0.015-0.544,0.016-0.809,0.063c-1.664,0.311-3.25,1.228-4.153,2.426c-0.435,0.59-0.839,1.321-1.011,1.975l-0.201,0.622
	l-0.623-0.202c-0.327-0.109-0.653-0.171-1.011-0.171c-0.59,0-1.182,0.14-1.788,0.388c0.404,0.047,0.794,0.124,1.15,0.296
	c0.031,0,0.047,0.015,0.063,0.015c0.591,0.249,1.073,0.607,1.477,1.074c1.789,4.743,6.89,7.698,11.695,5.272
	c1.71-0.871,2.862-2.395,3.391-4.214c0.249-0.903,0.389-1.82,0.451-2.737c0.031-0.28-0.342-3.421-0.575-3.577
	c0.015,0,2.332,2.317,3.623,2.193c-1.119-0.436-1.695-1.695-2.426-2.582c-0.497-0.622-0.995-1.244-1.492-1.881
	c1.462,0.435,2.892,1.104,4.167,1.974c1.463,0.996,2.862,2.084,4.292,3.111c0.701,0.498,1.431,0.964,2.194,1.354
	c3.048,1.633,6.531,2.41,9.984,2.597c1.447,0.093,3.033-0.063,4.463-0.358c2.613-0.544,5.21-1.897,6.983-3.903
	c1.695-1.96,2.612-5.553,1.601-8.072C114.37,145.564,112.192,144.149,110.389,143.869"/>
</svg>
