<?xml version="1.0" encoding="utf-8"?>
<!-- Generator: Adobe Illustrator 27.0.1, SVG Export Plug-In . SVG Version: 6.00 Build 0)  -->
<svg version="1.1" id="레이어_1" xmlns="http://www.w3.org/2000/svg" xmlns:xlink="http://www.w3.org/1999/xlink" x="0px"
	 y="0px" viewBox="0 0 230.684 47.735" enable-background="new 0 0 230.684 47.735" xml:space="preserve">
<g>
	<path fill="#FFDB4F" d="M41.122,29.997l-3.793-11.082c-0.184-0.534-0.777-0.849-1.32-0.699l-5.288,1.456l-1.205-3.535l5.664-1.655
		c0.539-0.16,0.823-0.72,0.628-1.25l-3.453-9.344c-0.195-0.53-0.797-0.825-1.337-0.66l-5.345,1.643l-1.134-3.327
		c-0.182-0.535-0.781-0.859-1.326-0.72L8.43,4.563C7.882,4.702,7.58,5.254,7.756,5.79l1.377,4.165l-7.627,2.344
		c-0.539,0.165-0.838,0.742-0.666,1.278l2.901,9.024c0.173,0.535,0.756,0.845,1.298,0.688l7.752-2.265l1.086,3.284l-7.561,2.081
		c-0.543,0.15-0.815,0.7-0.604,1.223l4.894,12.121c0.211,0.522,0.823,0.812,1.363,0.64l6.529-2.083l2.617,7.915
		c0.176,0.538,0.765,0.851,1.309,0.702l15.083-4.17c0.543-0.149,0.84-0.71,0.657-1.242l-2.915-8.548l5.226-1.666
		C41.014,31.108,41.303,30.531,41.122,29.997"/>
	<path fill="none" stroke="#231400" stroke-width="1.583" d="M41.122,29.997l-3.793-11.082c-0.184-0.534-0.777-0.849-1.32-0.699
		l-5.288,1.456l-1.205-3.535l5.664-1.655c0.539-0.16,0.823-0.72,0.628-1.25l-3.453-9.344c-0.195-0.53-0.797-0.825-1.337-0.66
		l-5.345,1.643l-1.134-3.327c-0.182-0.535-0.781-0.859-1.326-0.72L8.43,4.563C7.882,4.702,7.58,5.254,7.756,5.79l1.377,4.165
		l-7.627,2.344c-0.539,0.165-0.838,0.742-0.666,1.278l2.901,9.024c0.173,0.535,0.756,0.845,1.298,0.688l7.752-2.265l1.086,3.284
		l-7.561,2.081c-0.543,0.15-0.815,0.7-0.604,1.223l4.894,12.121c0.211,0.522,0.823,0.812,1.363,0.64l6.529-2.083l2.617,7.915
		c0.176,0.538,0.765,0.851,1.309,0.702l15.083-4.17c0.543-0.149,0.84-0.71,0.657-1.242l-2.915-8.548l5.226-1.666
		C41.014,31.108,41.303,30.531,41.122,29.997z"/>
</g>
<g>
	<path fill="#FFDB4F" d="M40.93,10.02c-0.564,0.041-1.011,0.535-0.992,1.099l0.655,20.512c0.018,0.565,0.496,1.012,1.06,0.994
		l10.451-0.316c0.566-0.018,1.001-0.491,0.969-1.055l-1.164-20.987c-0.032-0.563-0.517-0.991-1.082-0.951L40.93,10.02z"/>
	<path fill="none" stroke="#231400" stroke-width="1.583" d="M40.93,10.02c-0.564,0.041-1.011,0.535-0.992,1.099l0.655,20.512
		c0.018,0.565,0.496,1.012,1.06,0.994l10.451-0.316c0.566-0.018,1.001-0.491,0.969-1.055l-1.164-20.987
		c-0.032-0.563-0.517-0.991-1.082-0.951L40.93,10.02z"/>
	<path fill="#FFDB4F" d="M54.352,5.628c-0.56,0.058-0.959,0.564-0.883,1.123l3.894,29.007c0.075,0.558,0.585,0.904,1.131,0.769
		l15.726-3.955c0.546-0.136,0.912-0.704,0.812-1.259l-1.988-11.006c-0.101-0.554-0.632-0.907-1.183-0.785l-4.293,0.962
		c-0.551,0.125-1.072-0.231-1.158-0.788L64.211,5.614c-0.089-0.558-0.619-0.966-1.178-0.906L54.352,5.628z"/>
	<path fill="none" stroke="#231400" stroke-width="1.583" d="M54.352,5.628c-0.56,0.058-0.959,0.564-0.883,1.123l3.894,29.007
		c0.075,0.558,0.585,0.904,1.131,0.769l15.726-3.955c0.546-0.136,0.912-0.704,0.812-1.259l-1.988-11.006
		c-0.101-0.554-0.632-0.907-1.183-0.785l-4.293,0.962c-0.551,0.125-1.072-0.231-1.158-0.788L64.211,5.614
		c-0.089-0.558-0.619-0.966-1.178-0.906L54.352,5.628z"/>
</g>
<g>
	<path fill="#FFDB4F" d="M74.643,5.576c-0.014-0.564,0.433-0.993,0.996-0.953L96.134,6.05c0.564,0.041,1.01,0.533,0.995,1.096
		l-0.238,8.198c-0.016,0.564-0.491,1.003-1.052,0.973L75.93,15.294c-0.564-0.03-1.037-0.514-1.051-1.077L74.643,5.576z"/>
	<path fill="none" stroke="#231400" stroke-width="1.583" d="M74.643,5.576c-0.014-0.564,0.433-0.993,0.996-0.953L96.134,6.05
		c0.564,0.041,1.01,0.533,0.995,1.096l-0.238,8.198c-0.016,0.564-0.491,1.003-1.052,0.973L75.93,15.294
		c-0.564-0.03-1.037-0.514-1.051-1.077L74.643,5.576z"/>
	<path fill="#FFDB4F" d="M78.154,17.557c0.032-0.562,0.518-1.002,1.082-0.976l14.307,0.657c0.561,0.025,1.021,0.508,1.019,1.072
		l-0.039,7.18c-0.005,0.564-0.467,0.997-1.03,0.962l-14.751-0.91c-0.565-0.035-0.999-0.527-0.968-1.088L78.154,17.557z"/>
	<path fill="none" stroke="#231400" stroke-width="1.583" d="M78.154,17.557c0.032-0.562,0.518-1.002,1.082-0.976l14.307,0.657
		c0.561,0.025,1.021,0.508,1.019,1.072l-0.039,7.18c-0.005,0.564-0.467,0.997-1.03,0.962l-14.751-0.91
		c-0.565-0.035-0.999-0.527-0.968-1.088L78.154,17.557z"/>
	<path fill="#FFDB4F" d="M75.357,27.598c0-0.565,0.458-1.006,1.023-0.979l22.501,1.034c0.564,0.025,1.005,0.506,0.981,1.071
		l-0.416,9.79c-0.024,0.564-0.504,0.999-1.068,0.968l-21.981-1.179c-0.563-0.029-1.026-0.518-1.026-1.082L75.357,27.598z"/>
	<path fill="none" stroke="#231400" stroke-width="1.583" d="M75.357,27.598c0-0.565,0.458-1.006,1.023-0.979l22.501,1.034
		c0.564,0.025,1.005,0.506,0.981,1.071l-0.416,9.79c-0.024,0.564-0.504,0.999-1.068,0.968l-21.981-1.179
		c-0.563-0.029-1.026-0.518-1.026-1.082L75.357,27.598z"/>
</g>
<g>
	<path fill="#FFDB4F" d="M115.084,24.799c-0.436,0.357-0.482,0.993-0.103,1.41l9.278,10.215c0.38,0.416,1.042,0.458,1.472,0.092
		l8.182-6.974c0.428-0.366,1.122-0.356,1.539,0.023l13.031,11.827c0.418,0.38,1.069,0.35,1.45-0.068l9.165-10.072
		c0.381-0.417,0.348-1.068-0.072-1.444L135.947,9.029c-0.421-0.376-1.12-0.392-1.556-0.035L115.084,24.799z"/>
	<path fill="none" stroke="#231400" stroke-width="1.583" d="M115.084,24.799c-0.436,0.357-0.482,0.993-0.103,1.41l9.278,10.215
		c0.38,0.416,1.042,0.458,1.472,0.092l8.182-6.974c0.428-0.366,1.122-0.356,1.539,0.023l13.031,11.827
		c0.418,0.38,1.069,0.35,1.45-0.068l9.165-10.072c0.381-0.417,0.348-1.068-0.072-1.444L135.947,9.029
		c-0.421-0.376-1.12-0.392-1.556-0.035L115.084,24.799z"/>
	<path fill="#FFDB4F" d="M153.055,9.91c-0.083,2.249-1.974,4.005-4.225,3.921c-2.25-0.083-4.006-1.977-3.921-4.225
		c0.084-2.25,1.975-4.005,4.225-3.92C151.385,5.769,153.139,7.66,153.055,9.91"/>
	<path fill="none" stroke="#231400" stroke-width="1.583" d="M153.055,9.91c-0.083,2.249-1.974,4.005-4.225,3.921
		c-2.25-0.083-4.006-1.977-3.921-4.225c0.084-2.25,1.975-4.005,4.225-3.92C151.385,5.769,153.139,7.66,153.055,9.91z"/>
	<path fill="#FFDB4F" d="M146.763,11.64c-0.085,2.248-1.977,4.005-4.227,3.921c-2.25-0.083-4.004-1.975-3.921-4.225
		s1.975-4.006,4.225-3.922C145.091,7.498,146.846,9.39,146.763,11.64"/>
	<path fill="none" stroke="#231400" stroke-width="1.583" d="M146.763,11.64c-0.085,2.248-1.977,4.005-4.227,3.921
		c-2.25-0.083-4.004-1.975-3.921-4.225s1.975-4.006,4.225-3.922C145.091,7.498,146.846,9.39,146.763,11.64z"/>
</g>
<g>
	<path fill="#FFDB4F" d="M99.949,13.637c-0.562-0.009-1.043,0.442-1.061,1.005l-0.415,11.633c-0.02,0.564,0.424,1.033,0.989,1.044
		l19.233,0.371c0.564,0.013,1.009-0.44,0.985-1.002l-0.481-11.667c-0.025-0.565-0.505-1.033-1.068-1.044L99.949,13.637z"/>
	<path fill="none" stroke="#231400" stroke-width="1.583" d="M99.949,13.637c-0.562-0.009-1.043,0.442-1.061,1.005l-0.415,11.633
		c-0.02,0.564,0.424,1.033,0.989,1.044l19.233,0.371c0.564,0.013,1.009-0.44,0.985-1.002l-0.481-11.667
		c-0.025-0.565-0.505-1.033-1.068-1.044L99.949,13.637z"/>
</g>
<g>
	<path fill="#FFDB4F" d="M181.394,19.33l-4.735-12.047c-0.204-0.524-0.803-0.786-1.331-0.582l-23.906,9.283
		c-0.525,0.204-0.818,0.811-0.651,1.35l3.437,11.118c0.164,0.538,0.738,0.832,1.273,0.653l5.306-1.78l1.31,10.772
		c0.067,0.562,0.578,0.94,1.134,0.846l10.683-1.833c0.556-0.096,0.955-0.632,0.884-1.193l-1.584-12.762l7.58-2.544
		C181.33,20.43,181.6,19.854,181.394,19.33"/>
	<path fill="none" stroke="#231400" stroke-width="1.583" d="M181.394,19.33l-4.735-12.047c-0.204-0.524-0.803-0.786-1.331-0.582
		l-23.906,9.283c-0.525,0.204-0.818,0.811-0.651,1.35l3.437,11.118c0.164,0.538,0.738,0.832,1.273,0.653l5.306-1.78l1.31,10.772
		c0.067,0.562,0.578,0.94,1.134,0.846l10.683-1.833c0.556-0.096,0.955-0.632,0.884-1.193l-1.584-12.762l7.58-2.544
		C181.33,20.43,181.6,19.854,181.394,19.33z"/>
</g>
<g>
	<path fill="#FFDB4F" d="M175.602,23.514c-0.405,0.391-0.401,1.032,0.008,1.421l9.353,8.909c0.408,0.39,1.06,0.373,1.449-0.036
		l6.042-6.34c0.388-0.409,1.049-0.433,1.469-0.054l13.79,12.487c0.419,0.376,1.063,0.338,1.431-0.091l8.353-9.669
		c0.369-0.428,0.326-1.083-0.096-1.459L193.534,7.51c-0.421-0.374-1.099-0.358-1.503,0.035L175.602,23.514z"/>
	<path fill="none" stroke="#231400" stroke-width="1.583" d="M175.602,23.514c-0.405,0.391-0.401,1.032,0.008,1.421l9.353,8.909
		c0.408,0.39,1.06,0.373,1.449-0.036l6.042-6.34c0.388-0.409,1.049-0.433,1.469-0.054l13.79,12.487
		c0.419,0.376,1.063,0.338,1.431-0.091l8.353-9.669c0.369-0.428,0.326-1.083-0.096-1.459L193.534,7.51
		c-0.421-0.374-1.099-0.358-1.503,0.035L175.602,23.514z"/>
	<path fill="#FFDB4F" d="M211.108,10.43c-0.085,2.25-1.977,4.006-4.225,3.922c-2.25-0.085-4.008-1.978-3.923-4.226
		c0.084-2.251,1.975-4.006,4.226-3.921C209.436,6.288,211.191,8.18,211.108,10.43"/>
	<path fill="none" stroke="#231400" stroke-width="1.583" d="M211.108,10.43c-0.085,2.25-1.977,4.006-4.225,3.922
		c-2.25-0.085-4.008-1.978-3.923-4.226c0.084-2.251,1.975-4.006,4.226-3.921C209.436,6.288,211.191,8.18,211.108,10.43z"/>
	<path fill="#FFDB4F" d="M204.308,10.879c-0.085,2.25-1.976,4.006-4.225,3.922c-2.249-0.085-4.006-1.976-3.921-4.226
		c0.082-2.25,1.973-4.007,4.223-3.922C202.635,6.738,204.391,8.63,204.308,10.879"/>
	<path fill="none" stroke="#231400" stroke-width="1.583" d="M204.308,10.879c-0.085,2.25-1.976,4.006-4.225,3.922
		c-2.249-0.085-4.006-1.976-3.921-4.226c0.082-2.25,1.973-4.007,4.223-3.922C202.635,6.738,204.391,8.63,204.308,10.879z"/>
</g>
<g>
	<path fill="#FFDB4F" d="M209.852,14.56c-0.567,0.029-0.995,0.513-0.957,1.075l0.67,9.8c0.04,0.562,0.53,1,1.096,0.972l18.301-0.888
		c0.565-0.027,0.981-0.509,0.925-1.07l-0.952-9.817c-0.053-0.56-0.559-1-1.122-0.97L209.852,14.56z"/>
	<path fill="none" stroke="#231400" stroke-width="1.583" d="M209.852,14.56c-0.567,0.029-0.995,0.513-0.957,1.075l0.67,9.8
		c0.04,0.562,0.53,1,1.096,0.972l18.301-0.888c0.565-0.027,0.981-0.509,0.925-1.07l-0.952-9.817c-0.053-0.56-0.559-1-1.122-0.97
		L209.852,14.56z"/>
</g>
</svg>
