<?xml version="1.0" encoding="utf-8"?>
<!-- Generator: Adobe Illustrator 27.0.1, SVG Export Plug-In . SVG Version: 6.00 Build 0)  -->
<svg version="1.1" id="레이어_1" xmlns="http://www.w3.org/2000/svg" xmlns:xlink="http://www.w3.org/1999/xlink" x="0px"
	 y="0px" viewBox="0 0 720 107.807" enable-background="new 0 0 720 107.807" xml:space="preserve">
<rect x="489.757" fill="#EC78AB" width="107.806" height="107.807"/>
<g>
	<path fill="#FFFFFF" d="M593.494,103.733h-99.675V4.058h99.675V103.733z M494.311,103.241h98.691V4.557h-98.691V103.241z"/>
</g>
<path fill="#FFFFFF" d="M511.551,42.46c0.427,0.427,1.056,1.392,1.382,1.392c0.752,0,0.752-1.178,0.752-2.134
	c0-0.752-0.112-4.694-0.539-5.12c-0.539-0.549-5.121-3.414-5.76-3.84c1.707-2.672,8.961-16.429,10.881-19.416
	c0.64-0.853,1.168-0.853,3.729-0.853l0.437-0.64l-6.086-8.006l-1.168,0.65c0,1.92,0,3.404-0.539,5.324
	c-0.528,2.245-3.515,10.566-9.601,21.437c-2.56-1.707-7.142-4.795-7.569-5.009l-1.067,1.493
	C501.736,32.331,507.172,37.025,511.551,42.46"/>
<path fill="#FFFFFF" d="M593.461,44.482l-5.212-4.785c-0.335-0.223-0.762-0.538-1.087-0.538c-0.417,0-0.854,0.315-1.169,0.853
	l-2.56,3.515h-54.924l2.875,3.505c1.382-0.315,3.729-0.853,10.14-0.853h19.761c-1.473,0.996-4.196,1.94-3.749,4.958
	c0.142,1.067,0.528,1.941,0.498,3.251c-2.235-1.087-4.958-1.625-7.782-1.29c-5.09,0.346-10.394,4.145-12.385,9.754l-0.03,0.092
	c-0.162,0.446-0.315,0.884-0.437,1.341c-0.213,0.722-0.447,1.738-0.579,2.957c-0.061,0.487-0.101,0.996-0.122,1.504v0.081
	c-0.213,9.215,6.959,16.916,13.269,17.617c4.44,0.802,7.803,0.172,9.743-0.559c0.122-0.051,0.152-0.203,0.101-0.345
	c-0.051-0.173-0.264-0.203-0.447-0.163c-1.971,0.427-5.1,0.762-9.113-0.152c-6.929-1.108-14.691-11.176-10.739-21.722
	c3.515-10.19,16.438-10.8,21.061-5.791c-0.01,0-0.03,0-0.041,0.01c-0.132-0.122-0.295-0.244-0.457-0.345
	c-3.576-2.296-8.382-2.733-12.344-0.61c-8.412,4.328-8.626,15.555-4.105,21.193c4.592,6.197,12.243,7.193,17.384,5.964
	c0.203-0.061,0.427-0.112,0.63-0.173c-0.01,0.01-0.031,0.01-0.051,0.03c2.469-0.67,5.578-2.062,8.412-4.978
	c0.894-0.925,1.565-1.849,2.052-2.693c1.138-0.955,2.54-1.25,3.82-1.219v16.419c0,1.493-0.214,2.773-2.042,2.773
	c-1.707,0-10.759-4.47-13.218-5.751l-0.752,1.281c4.806,3.19,11.308,8.006,13.97,11.521c0.559,0.64,1.615,3.088,2.042,3.088
	c0.742,0,4.257-5.659,4.257-11.623c0-1.707-0.315-10.464-0.315-12.385v-7.417c0.915,0.112,1.788,0.427,2.642,0.935
	c1.788,1.087,0.112-2.905-1.697-2.692c2.154-0.477,3.983,0.071,6.137,0.376c1.117,0.132,4.277,0.396,3.068-1.23
	c-0.793-1.067-5.771-2.387-10.15-1.412V46.178h13.117c0.315,0,1.178,0,1.178-0.732C594.111,45.132,593.887,44.807,593.461,44.482
	 M575.874,73.417c-0.102-0.03-0.214-0.061-0.325-0.081c0.112-0.051,0.224-0.071,0.325-0.101V73.417z M575.874,70.48
	c-2.56,1.626-4.359,3.719-5.649,6.279c-1.91,1.991-4.917,4.216-9.611,5.212c-4.633,0.874-11.288-0.345-14.894-5.527
	c-3.678-4.765-3.19-13.99,3.271-17.18c3.048-1.666,6.868-1.26,9.53,0.396c2.652,1.757,3.83,5.08,3.19,7.924
	c-0.996,6.35-10.19,6.269-10.922,1.473c-1.371-4.836,4.278-6.706,6.015-4.684c1.92,1.808,0.914,3.759,1.219,3.718
	c-0.061,0.254,1.737-1.717-0.457-4.511c-1.128-1.219-3.404-1.9-5.629-0.915c-2.286,0.925-3.789,3.942-3.079,6.878
	c0.518,3.079,3.861,5.527,7.376,5.344c2.824,0.071,5.649-1.747,7.132-4.399c0.854,0.64,1.026,1.25,1.453,1.859
	c1.189,1.677,3.088,0.335,3.962,0.549v-0.02c-0.721-0.528-0.853-2.865-2.906-2.733c-0.721,0.04-1.311,0.285-2.327,0.03
	c0.315-0.65,0.559-1.311,0.691-2.022c0.142-0.488,0.213-1.026,0.244-1.565c0.782,0.508,1.097,1.077,1.625,1.585
	c1.646,1.677,3.536-0.223,4.562-0.152v-0.011c-0.914-0.477-1.534-3.078-3.81-2.52c-0.731,0.172-1.331,0.498-2.296,0.498
	c0.122-1.026,0.101-2.255-0.213-3.607c0.823,0.295,1.29,0.742,1.951,1.098c2.316,1.25,3.729-1.382,4.856-1.656l-0.02-0.01
	c-1.138-0.213-2.622-2.794-4.897-1.473c-0.691,0.396-1.179,0.894-2.103,1.24c-0.366-1.148-0.945-2.367-1.808-3.637
	c0.955,0.051,1.626,0.376,2.448,0.538c3.048,0.63,3.739-2.855,4.938-3.515v-0.03c-1.361,0.142-3.952-2.266-6.086,0.02
	c-0.64,0.68-1.016,1.423-1.971,2.133c-0.731-0.823-1.636-1.574-2.672-2.174c0.884-1.097,1.798-1.504,2.652-2.215
	c2.499-2.072,0.762-4.795,0.457-6.522h13.777V70.48z"/>
<path fill="#FFFFFF" d="M547.384,22.29h7.041c-0.854,3.739-3.302,13.34-18.349,19.538l1.179,1.585
	c3.312-1.27,16.215-6.289,20.371-17.699c9.489,6.837,12.375,8.86,16.54,12.903c0.416,0.427,2.662,2.773,2.763,2.773
	c0.325,0,0.437-0.427,0.437-0.64c0-0.528-0.437-6.075-0.752-6.502c-0.427-0.538-15.89-9.387-18.349-10.769
	c0.213-0.64,0.213-0.752,0.315-1.189h26.985c0.437,0,1.28,0,1.28-0.731c0-0.427-0.315-0.65-0.64-0.966l-5.334-4.805
	c-0.315-0.203-0.742-0.518-1.057-0.518c-0.437,0-0.752,0.427-1.067,0.843l-2.672,3.515H559.23c0.213-1.372,1.168-7.884,1.494-9.052
	c0.203-0.65,1.27-1.189,2.662-1.819V8.006l-7.366-4.583l-0.63,0.641c0.315,0.742,0.853,2.022,0.853,5.964
	c0,1.717-0.112,4.694-1.179,9.601h-20.686l2.764,3.525C538.748,22.839,541.196,22.29,547.384,22.29"/>
<path fill="#FFFFFF" d="M505.469,63.902c0,3.404,0,3.729-0.325,5.121c-0.213,0.742-3.515,11.623-11.623,24.963l1.382,0.955
	c5.232-6.4,10.78-17.069,13.655-23.042c0.863-1.819,1.067-1.92,3.424-1.92l0.315-0.752l-5.974-5.751L505.469,63.902z"/>
<path fill="#FFFFFF" d="M523.065,66.888l-1.067,1.281c4.907,6.401,7.894,10.343,10.881,15.453c0.112,0.223,0.854,1.717,1.178,1.717
	c0.955,0,1.28-5.659,1.28-6.076c0-0.752-0.213-1.077-0.64-1.605C532.137,74.995,525.838,69.123,523.065,66.888"/>
<path fill="#FFFFFF" d="M532.347,64.428c0.64,0,2.458-6.604,2.458-7.457c0-0.539-10.353-13.655-11.633-15.149l-1.392,1.067
	c2.032,3.628,5.019,8.85,5.984,10.769c-6.299,0.539-15.26,0.966-18.46,1.179c7.041-9.611,13.757-19.416,19.517-29.768
	c1.179-2.123,1.392-2.235,4.277-2.235l0.213-0.64l-5.13-6.929l-1.27,0.315c0,1.382,0,3.2-0.854,5.446
	c-2.144,5.435-7.467,15.453-19.954,33.903c-1.697,0.112-9.276,0.539-10.769,0.539l5.334,4.491c2.56-0.966,3.739-1.067,14.508-2.469
	V87.37c0,2.337-0.112,3.942-2.134,5.974c0.64,1.809,3.627,10.76,4.694,10.76c1.382,0,1.382-10.668,1.382-13.005V56.971
	c1.605-0.213,8.321-1.067,9.601-1.281C529.573,57.601,531.605,62.61,532.347,64.428"/>
<rect x="367.31" fill="#96C961" width="107.806" height="107.807"/>
<g>
	<path fill="#FFFFFF" d="M471.051,103.733h-99.668V4.058h99.668V103.733z M371.876,103.241h98.684V4.557h-98.684V103.241z"/>
</g>
<path fill="#FFFFFF" d="M460.608,44.936c-0.285-2.723-9.256-11.329-18.4-11.714c-8.372-0.345-16.398,2.987-20.95,8.087
	c0,0-1.818,2.235,1.169,2.692c0.224,0.011,0.427,0.041,0.64,0.061h0.102v0.01c4.155,0.437,8.179,1.544,11.338,3.607h-0.142
	c-3.597,1.911-5.619,4.836-5.619,11.084c0,0.742,0.153,2.54,0.356,4.623c-5.242-2.053-6.218-9.875-3.271-8.514
	c4.064,1.88,3.78-3.83-0.244-2.062c-4.481,1.961-2.469,10.292,3.719,12.669c0.284,2.916,0.599,5.872,0.65,6.929
	c-1.87-0.223-3.851-0.437-7.803-0.437c-2.53,0-20.36,0-20.36,12.324c0,7.356,8.036,12.761,17.495,12.761
	c6.492,0,15.839-2.875,15.839-12.11c0-0.884,0-1.534-0.437-7.478c0.762,0.213,16.164,5.507,23.977,15.179v-9.022
	c-6.38-4.176-18.369-9.012-24.759-10.445c-0.091-1.067-0.518-3.982-0.955-7.061c0.122-0.01,0.244,0,0.376-0.01
	c9.875-0.417,13.929-11.582,6.604-18.969c-3.79-3.83-9.428-5.446-15.108-5.781c3.546-4.358,10.729-1.026,14.244,1.047
	c0.996,0.579,1.27-3.901-0.488-4.582c1.29,0.457,6.025,2.144,8.016,5.832c1.686,3.119,2.652-4.155-0.163-5.415
	c3.566,1.189,5.751,3.566,8.677,5.852C456.585,45.261,460.984,48.359,460.608,44.936 M419.176,92.982
	c-5.608,0-13.635-2.215-13.635-9.022c0-8.474,12.314-8.697,15.839-8.697c4.064,0,6.492,0.447,9.012,0.996
	c0.335,2.967,0.447,4.287,0.447,6.045C430.84,90.228,425.78,92.982,419.176,92.982 M432.638,63.822
	c-0.386-2.804-0.701-5.415-0.701-6.492c0-1.757,0.101-5.273,3.078-7.356c0.427-0.315,0.894-0.589,1.382-0.853
	c0.03,0.03,0.061,0.051,0.091,0.071C443.844,55.989,439.221,63.163,432.638,63.822"/>
<path fill="#FFFFFF" d="M434.578,25.107c-0.437-0.335-6.604-4.073-7.041-4.287c-1.869,5.05-4.064,6.381-18.257,9.022
	c0.549-1.554,3.952-9.581,4.287-10.241c0.325-0.65,2.418-4.064,2.418-4.937c0-1.555-5.171-4.41-11.989-5.73l-1.097,1.321
	c3.302,1.534,5.395,2.977,5.395,6.269c0,2.967-3.19,13.319-3.414,14.081c-3.089,0.559-8.26,1.321-12.1,1.321
	c-2.428,0-5.182,0-9.022-5.608l-0.772,2.205c2.753,4.064,6.492,8.575,8.026,8.575c0.772,0,4.511-1.646,5.395-1.87
	c1.432-0.335,6.38-1.432,7.478-1.534c-4.623,12.852-14.518,33.324-17.485,33.324c-0.335,0-1.108-0.213-1.321-0.325
	c0.325,1.534,1.432,9.124,1.758,10.769c5.832-7.803,15.514-30.916,21.234-44.652C428.086,28.724,430.839,28.074,434.578,25.107"/>
<rect x="122.437" fill="#EC78AB" width="107.806" height="107.807"/>
<g>
	<path fill="#FFFFFF" d="M226.185,103.733h-99.679V4.058h99.679V103.733z M127.005,103.241h98.68V4.557h-98.68V103.241z"/>
</g>
<path fill="#FFFFFF" d="M181.008,18.113c-25.075,0-44.876,21.123-44.876,44.226c0,9.56,4.399,18.247,12.426,18.247
	c5.618,0,10.566-4.826,12.1-6.482c6.716-7.041,10.129-18.593,11.775-24.313c0.66-2.093,3.292-12.761,4.176-15.067
	c0.224-0.437,1.544-2.753,1.544-3.414c0-0.761-1.544-3.078-3.079-4.399c-1.097-0.985-1.432-1.209-5.496-3.302l-1.331,0.447
	c0.224,0.325,0.447,0.549,0.884,1.087c1.432,1.555,2.753,2.875,2.753,5.944c0,2.093-1.758,13.757-5.72,24.871
	c-6.817,18.806-15.29,20.675-17.272,20.675c-4.623,0-8.138-5.283-8.138-13.757c0-20.452,16.388-41.797,39.593-41.797
	c20.574,0,30.144,15.951,30.144,31.678c0,15.544-9.55,29.758-28.935,37.652c-1.829,0.721-3.282,0.955-5.598,0.538
	c-2.388-0.457-3.637-2.174-4.623-4.47c-1.331-3.15-1.046-6.909,1.9-8.717c0.091-0.061,0.102-0.274,0.02-0.477
	c-0.082-0.203-0.234-0.315-0.335-0.234c-3.698,1.575-5.659,5.812-3.444,10.302c0.345,0.711,0.752,1.301,1.199,1.829
	c-6.329-3.109-5.039-9.865-0.223-12.629c6.086-3.505,12.11,4.42,8.717,4.582c-4.023,0.183-1.453,4.613,1.047,1.545
	c3.292-4.064-4.501-11.541-11.653-7.427c-5.029,2.875-6.187,8.362-3.932,12.639c-0.467-0.539-0.904-1.067-1.422-1.585
	c-4.664-4.633-9.885,0.66-12.73,0.477l-0.02,0.04c2.55,1.301,4.277,8.544,10.658,6.97c2.499-0.599,4.348-1.869,8.453-1.3
	c0.792,0.132,1.849,0.589,2.398,0.721c3.434,0.843,6.634,0.619,9.591-0.193c24.008-7.112,34.432-22.494,34.432-39.492
	C215.988,35.274,203.664,18.113,181.008,18.113"/>
<g>
	<defs>
		<rect id="SVGID_1_" x="244.874" width="107.806" height="107.807"/>
	</defs>
	<clipPath id="SVGID_00000052079186690808482500000013177171894141735347_">
		<use xlink:href="#SVGID_1_"  overflow="visible"/>
	</clipPath>
	
		<rect x="244.883" clip-path="url(#SVGID_00000052079186690808482500000013177171894141735347_)" fill="#6F68AD" width="107.796" height="107.807"/>
</g>
<g>
	<path fill="#FFFFFF" d="M348.623,103.733h-99.682V4.058h99.682V103.733z M249.44,103.241h98.684V4.557H249.44V103.241z"/>
</g>
<path fill="#FFFFFF" d="M277.07,58.197c-1.321,3.739-7.376,23.866-8.362,23.866c-0.223,0-0.548-0.335-0.66-0.549
	c-1.981-2.967-2.195-7.376-2.195-11.227c0-15.616,5.161-35.081,7.031-38.932c0.224-0.549,1.981-3.078,1.981-3.739
	c0-0.773-2.418-7.366-10.008-11.775l-1.757,0.884c2.083,1.87,4.399,3.962,4.399,9.571c0,2.418-0.335,4.287-2.093,15.067
	c-0.66,3.953-3.19,19.914-3.19,29.372c0,18.37,7.701,22.331,9.906,22.331c0.874,0,1.311-0.548,1.981-1.209
	c-0.559-1.981-0.996-3.749-0.996-6.493c0-2.316,2.743-18.704,5.171-26.619L277.07,58.197z"/>
<path fill="#FFFFFF" d="M340.317,84.151c-0.549,0.559-0.884,0.996-1.646,0.996c-0.335,0-0.66-0.224-3.962-2.317
	c-8.473-5.385-13.086-6.38-15.504-6.919c0-5.06-0.894-29.373-0.894-34.991c10.13-2.204,14.193-3.068,16.175-3.851
	c1.768-0.772,2.316-2.194,2.753-3.18c-2.53-0.772-5.171-1.656-7.366-3.302c-1.981,4.623-3.637,5.162-11.562,7.366v-9.682
	c0-1.646,0.112-2.306,0.224-3.078c0.112-0.549,1.544-3.079,1.544-3.739c0-0.447-0.335-4.399-11.765-8.138l-1.981,1.209
	c6.258,2.53,6.309,4.074,7.59,24.536c0,0.03,0,0.051,0,0.081c-2.977,0.742-6.838,1.625-7.305,1.747
	c-3.332,0.711-6.462,0.813-9.459,0.802c-5.994-0.172-11.094-2.631-12.517-5.994c-0.02-0.051-0.041-0.092-0.051-0.143
	c-0.559-2.56-0.112-6.116,4.43-6.726c5.507-0.742,8.778-0.569,9.835-5.507c-1.615,1.768-4.582,1.889-8.565-0.569
	c-3.911-2.418-9.113,1.006-9.093,4.46c-0.508-2.885-3.932-1.179-2.54,1.514c-0.254-0.498,0.884-3.302,1.89-0.071
	c1.006,3.241-0.213,6.675,3.789,8.422c-2.936-2.449-2.824-8.839,0.427-10.841c0.752-0.477-0.61,1.92-1.565,3.647
	c-0.904,1.656-0.528,4.593,0.884,6.289c1.3,3.78,6.563,6.969,12.913,7.66c4.521,0.396,9.388-0.061,14.447-1.077
	c1.046-0.234,1.89-0.366,2.703-0.569c0.142,2.408,0.569,13.126,0.691,16.5c0.081,2.306,0.295,13.472,0.396,16.001
	c-2.418-0.325-5.832-0.874-9.022-0.874c-8.352,0-18.369,3.841-18.369,11.003c0,5.598,6.167,10.556,15.189,10.556
	c11.877,0,15.951-5.283,16.276-15.291c6.055,2.205,14.742,7.701,20.899,14.955c0.335-1.981,0.447-3.079,0.447-6.268
	C340.652,86.467,340.541,85.908,340.317,84.151 M302.807,91.415c-5.283,0-11.776-2.529-11.776-7.041
	c0-4.724,7.711-7.152,14.64-7.152c4.287,0,6.594,0.549,9.347,1.321C314.247,85.583,313.586,91.415,302.807,91.415"/>
<g>
	<defs>
		<rect id="SVGID_00000072976065142198335410000011400052470316934331_" x="612.194" width="107.806" height="107.807"/>
	</defs>
	<clipPath id="SVGID_00000083089272064005551700000004762826353960755591_">
		<use xlink:href="#SVGID_00000072976065142198335410000011400052470316934331_"  overflow="visible"/>
	</clipPath>
	
		<rect x="612.194" y="0.011" clip-path="url(#SVGID_00000083089272064005551700000004762826353960755591_)" fill="#6F68AD" width="107.806" height="107.796"/>
</g>
<g>
	<path fill="#FFFFFF" d="M715.936,103.747h-99.682V4.058h99.682V103.747z M616.746,103.255h98.698V4.557h-98.698V103.255z"/>
</g>
<path fill="#FFFFFF" d="M636.114,12.626h15.677c0.437,0,1.179,0,1.179-0.629c0-0.539-0.325-0.854-0.64-1.077l-5.76-4.267
	c-0.315-0.203-0.854-0.64-1.067-0.64c-0.315,0-0.742,0.437-1.067,0.863l-2.133,3.079h-19.202l2.885,3.525
	C627.376,13.165,629.713,12.626,636.114,12.626"/>
<path fill="#FFFFFF" d="M629.928,26.071h24.851c0.325,0,1.179,0,1.179-0.64c0-0.427-0.213-0.752-0.64-1.067l-5.649-4.278
	c-0.752-0.528-0.864-0.528-1.077-0.528c-0.427,0-0.742,0.427-1.057,0.854l-2.245,2.987h-28.265l2.774,3.515
	C621.404,26.599,623.751,26.071,629.928,26.071"/>
<path fill="#FFFFFF" d="M708.322,75.138c-0.417-0.335-0.742-0.538-0.955-0.538c-0.427,0-0.64,0.203-1.056,0.742l-3.211,3.424
	h-19.304v-8.433h11.724l1.818,4.47c0.102,0.335,0.213,0.65,0.528,0.65c0.112,0,3.2-2.022,3.2-6.401
	c0-2.449-0.315-13.228-0.315-15.464v-3.312l3.089-2.235c0.224-0.213,0.437-0.326,0.437-0.64c0-0.213-0.213-0.427-0.437-0.539
	l-4.694-3.729c-0.102-0.112-0.315-0.315-0.64-0.315c-0.213,0-0.417,0.203-0.64,0.528l-1.808,3.089h-28.803l-4.572-4.47l-0.965,0.742
	c1.168,3.089,1.28,5.649,1.28,10.129v4.267c-0.762-0.975-1.473-2.245-2.093-3.83c-1.961-4.938-9.123-5.355-11.491-2.144
	c0.488-0.956,0.376-1.687-0.02-2.134h2.398c0.325,0,1.179,0,1.179-0.64c0-0.528-0.325-0.843-0.64-1.067l-5.761-4.267
	c-0.427-0.315-0.752-0.63-1.067-0.63c-0.427,0-0.752,0.427-1.067,0.955l-2.133,2.987h-19.202l2.885,3.526
	c1.382-0.326,3.729-0.864,10.129-0.864h10.851c-0.447,0.366-0.813,0.945-0.955,1.778c0.122-0.63,3.109-2.438,1.809,1.24
	c-1.087,3.078-3.698,5.232-3.079,8.412c-0.376-0.193-0.731-0.396-1.128-0.559c-4.572-2.154-10.271-1.87-14.437,1.117
	c-4.155,3.017-5.903,8.514-4.633,13.187c1.26,4.816,6.167,7.844,10.576,7.336c4.602-0.193,7.914-4.572,7.518-8.443
	c-0.071-4.044-3.952-6.716-7.031-6.187c-3.261,0.264-4.958,3.383-4.582,5.507c1.117,4.44,4.704,3.485,4.927,3.444
	c0.112-0.041-3.749,0.965-4.643-3.474c-0.264-2.022,1.402-4.796,4.349-4.917c2.835-0.345,6.126,2.103,6.096,5.679
	c0.213,3.445-2.733,7.123-6.746,7.173c-3.871,0.345-8.016-2.378-9.012-6.493c-1.036-4.135,0.559-8.869,4.176-11.44
	c3.576-2.52,8.687-2.815,12.7-0.874c0.752,0.295,1.423,0.67,2.052,1.087c0.894,1.321,2.042,3.485,2.428,6.452
	c0.874,5.151-1.28,12.192-6.37,16.276c-4.907,4.257-12.273,5.1-17.363,4.074c-1.758-0.315-3.282-0.783-4.521-1.281
	c-0.224-0.091-0.478,0.082-0.447,0.305c0.041,0.345,0.264,0.66,0.559,0.833c0.285,0.172,0.569,0.345,0.894,0.508
	c1.93,1.3,4.216,2.418,6.868,3.15c6.929,1.96,17.262,0.498,22.616-7.742c1.077-1.473,1.88-3.2,2.408-5.05l1.717,2.185
	c1.707-0.325,3.942-0.853,10.241-0.853h15.89v7.569c0,3.099-0.417,4.379-1.809,5.974c0.315,1.28,3.302,8.748,4.155,8.748
	c0.965,0,1.494-2.987,1.494-4.694c0-0.315,0.112-5.974,0.112-9.174v-8.422h29.545c0.325,0,1.168,0,1.168-0.641
	c0-0.427-0.325-0.752-0.64-1.067L708.322,75.138z M666.941,49.108h29.758v7.569h-29.758V49.108z M645.372,60.752
	c0.254-3.993,4.186-8.402,8.016-8.067c1.026,0.081-1.89,1.351-3.963,2.296c-1.9,0.874-3.525,3.657-3.525,6.116
	C645.717,60.975,645.565,60.853,645.372,60.752 M648.328,84.332c-4.481,7.255-13.36,9.165-20.046,7.915
	c4.796,0.487,10.536-0.468,14.966-4.237c6.299-5.049,7.772-14.02,5.842-19.364c-0.61-1.951-1.453-3.455-2.276-4.583
	C652.037,69.154,652.382,78.531,648.328,84.332 M679.844,78.765h-27.513c1.27-6.157-0.477-13.269-5.71-17.17
	c1.138-2.844,4.054-6.279,8.9-3.576c3.079,1.697,5.334,3.19,7.478,3.556v0.335c0,2.987-0.315,4.267-1.819,5.974
	c0.427,1.483,3.414,8.636,4.267,8.636c0.965,0,1.179-1.178,1.494-6.187h12.903V78.765z M666.941,67.772v-6.979
	c0.478-0.275,0.975-0.641,1.483-1.087c-0.488,0.091-0.986,0.112-1.483,0.03v-0.386h29.758v8.422H666.941z"/>
<path fill="#FFFFFF" d="M714.829,10.272l-5.537-4.694c-0.427-0.315-0.752-0.63-1.067-0.63c-0.427,0-0.864,0.539-1.179,0.966
	l-2.56,3.515h-50.667l2.774,3.515c1.179-0.314,3.627-0.843,10.14-0.843h6.076v9.489H662.78l-5.121-4.694l-0.854,0.742
	c1.28,2.774,1.494,5.872,1.494,10.139v3.2c0,2.977-0.315,4.257-1.595,5.872c0.742,2.337,3.627,7.133,4.054,7.133
	c0.315,0,1.168-1.494,1.494-4.593h40.528l2.134,4.064c0.213,0.315,0.315,0.64,0.538,0.64c0.214,0,2.56-2.032,2.56-5.974
	c0-1.707-0.213-9.175-0.213-10.668v-2.347l3.404-2.448c0.213-0.122,0.427-0.326,0.427-0.539c0-0.315-0.213-0.528-0.315-0.64
	l-4.582-3.414c-0.213-0.102-0.539-0.315-0.64-0.315c-0.224,0-0.427,0.102-0.64,0.528l-1.92,3.312h-11.409v-9.489H714.3
	c0.315,0,1.169,0,1.169-0.65C715.469,10.922,715.256,10.607,714.829,10.272 M672.807,36.728h-10.566V24.251h10.566V36.728z
	 M688.058,36.728H676.75V24.251h11.308V36.728z M688.058,21.59H676.75V12.1h11.308V21.59z M703.734,36.728h-11.623V24.251h11.623
	V36.728z"/>
<path fill="#FFFFFF" d="M646.572,31.606c-0.528-0.314-0.64-0.629-1.067-0.629s-0.752,0.416-1.067,0.843l-2.133,3.099h-19.202
	l2.886,3.525c1.595-0.315,3.942-0.853,10.129-0.853h15.677c0.325,0,1.179,0,1.179-0.65c0-0.528-0.325-0.853-0.65-1.057
	L646.572,31.606z"/>
<rect fill="#96C961" width="107.806" height="107.807"/>
<g>
	<path fill="#FFFFFF" d="M103.739,103.733H4.057V4.058h99.682V103.733z M4.556,103.241h98.684V4.557H4.556V103.241z"/>
</g>
<path fill="#FFFFFF" d="M64.413,25.484c0,0.762-1.209,1.433-3.079,2.418c-9.235,5.05-13.086,7.366-15.951,9.347l0.437,1.209
	c8.92-4.725,21.681-10.333,30.256-9.896c0-1.758,0-4.176-2.53-5.832c-5.943-4.074-19.802-3.962-21.671-3.962
	c-8.91,0-16.276,1.209-23.866,2.418l-0.996,2.317c4.288-0.437,10.008-1.209,19.253-1.209C60.125,22.294,64.413,24.489,64.413,25.484
	"/>
<path fill="#FFFFFF" d="M82.014,80.481c-0.548,1.646-0.985,3.2-2.977,3.963c-4.501,1.768-14.732,1.981-19.355,1.981
	c-16.662,0-30.033-2.286-33.101-14.072l0.579-0.355c0.315,0.122,0.65,0.213,0.731,0.223c0.731,0.081,1.555-0.264,2.408-0.711
	c0.874-0.457,1.636-0.68,2.51-1.219c1.981-1.229,2.083-2.774,2.702-4.297c-1.869,0.142-3.922,0.285-6.025,1.93
	c-0.671,0.518-1.158,1.097-1.544,1.646c-0.325,0.457-0.477,0.975-0.731,1.412c-0.071,0.092-0.132,0.193-0.214,0.295l-0.579,0.356
	c-0.325-1.494-0.508-3.109-0.508-4.897c0-0.803,0.02-1.565,0.051-2.296l1.179-0.701c0.427,0.254,0.925,0.437,1.29,0.569
	c1.565,0.61,3.2,0.569,4.358-0.67c0.691-0.762,1.483-1.738,1.971-2.794c0.091-0.183,0.244-0.264,0.366-0.355
	c-0.437-0.112-0.925-0.315-1.402-0.528c-0.051-0.03-0.112-0.071-0.183-0.102c-0.091-0.051-0.193-0.092-0.295-0.122
	c-0.305-0.142-0.599-0.274-0.864-0.376c-1.067-0.406-2.073-0.183-2.987,0.386c-0.264,0.142-0.518,0.325-0.762,0.559
	c-0.254,0.223-0.508,0.477-0.752,0.731c-0.183,0.203-0.335,0.427-0.477,0.66c-0.02,0.03-0.041,0.061-0.051,0.092
	c-0.183,0.325-0.325,0.681-0.427,1.006c-0.041,0.071-0.102,0.285-0.102,0.315l-0.823,0.487c0.071-0.884,0.163-1.717,0.315-2.51
	c0.285-1.148,0.62-2.276,1.016-3.363l2.174-1.3c0.264,0.162,0.539,0.295,0.6,0.315c0.711,0.244,1.585,0.051,2.509-0.224
	c0.935-0.274,1.727-0.355,2.693-0.711c2.195-0.813,2.591-2.317,3.485-3.678c-1.859-0.234-3.891-0.498-6.269,0.701
	c-0.762,0.386-1.361,0.864-1.849,1.321c-0.386,0.366-0.63,0.823-0.945,1.199c-0.112,0.112-0.234,0.234-0.366,0.345l-1.636,0.966
	c0.183-0.457,0.376-0.915,0.569-1.362c2.133-4.358,6.167-7.376,9.885-8.819c7.813-3.058,13.34,0.244,13.309,0.01l0.01-0.01
	c0.02,0.285-5.232-3.607-13.645-0.904c-3.86,1.26-8.158,4.033-10.749,8.524l-0.173-0.67c2.804-4.4,7.945-8.28,13.899-9.327
	c-2.134-0.122-4.135,0.569-6.147,1.209c-3.353,1.808-6.126,4.45-7.965,7.295l-0.244-0.975c0.264-0.417,0.468-0.904,0.62-1.26
	c0.671-1.534,0.701-3.17-0.488-4.369c-0.731-0.732-1.666-1.574-2.702-2.103c-0.183-0.092-0.254-0.254-0.345-0.376
	c-0.132,0.437-0.356,0.905-0.589,1.372c-0.041,0.071-0.071,0.122-0.112,0.193c-0.061,0.082-0.102,0.193-0.142,0.295
	c-0.152,0.295-0.284,0.589-0.406,0.843c-0.447,1.047-0.254,2.043,0.254,2.977c0.132,0.254,0.305,0.518,0.508,0.762
	c0.224,0.285,0.467,0.559,0.731,0.823c0.183,0.203,0.417,0.366,0.66,0.518c0.02,0.02,0.041,0.031,0.061,0.041
	c0.335,0.203,0.681,0.355,1.016,0.477c0.051,0.03,0.112,0.051,0.152,0.071c0.02,0,0.051,0.01,0.071,0.02
	c0.02,0.01,0.041,0.02,0.071,0.02l0.376,1.504c-0.762,1.351-1.321,2.733-1.626,4.064c-0.152,0.457-0.284,0.904-0.416,1.341
	l-0.081-0.254c0.142-0.305,0.264-0.66,0.274-0.732c0.142-0.731-0.163-1.585-0.549-2.459c-0.396-0.904-0.579-1.676-1.057-2.57
	c-1.097-2.072-2.621-2.266-4.105-2.977c0.02,1.869,0.02,3.922,1.524,6.126c0.488,0.701,1.026,1.24,1.544,1.656
	c0.437,0.345,0.945,0.528,1.361,0.812c0.101,0.082,0.203,0.173,0.305,0.264l0.376,1.158c-0.62,1.809-1.087,3.83-1.321,6.055
	c-0.01-0.193-0.03-0.396-0.051-0.559c-0.173-1.666-0.945-3.119-2.571-3.576c-0.985-0.285-2.215-0.549-3.373-0.518
	c-0.213,0.011-0.345-0.091-0.488-0.153c0.102,0.437,0.132,0.966,0.163,1.473c-0.01,0.071-0.01,0.153-0.01,0.224
	c-0.01,0.112,0.01,0.213,0.02,0.335c0.02,0.326,0.03,0.64,0.061,0.935c0.112,1.057,0.711,1.818,1.534,2.367
	c0.041,0.03,0.071,0.061,0.112,0.081c0.01,0.01,0.03,0.02,0.041,0.03c0.284,0.193,0.61,0.345,0.975,0.477
	c0.274,0.112,0.569,0.213,0.864,0.295c0.244,0.082,0.508,0.112,0.782,0.132h0.132c0.366,0.011,0.742-0.01,1.077-0.071
	c0.051,0,0.091-0.011,0.132-0.02l0.477,0.579c-0.01,0.325-0.041,0.64-0.041,0.975c0,19.588,20.909,22.108,40.477,22.108
	c9.581,0,19.588-1.087,23.215-1.971c1.534-0.447,2.204-0.884,3.414-1.646C87.074,84.992,86.525,84.443,82.014,80.481 M25.028,57.652
	c0.295-1.127,0.772-2.276,1.402-3.393l0.193,0.783c-0.792,1.656-1.473,3.414-1.981,5.252l-0.244-0.772
	C24.581,58.912,24.784,58.292,25.028,57.652"/>
</svg>
