<?xml version="1.0" encoding="utf-8"?>
<!-- Generator: Adobe Illustrator 27.0.1, SVG Export Plug-In . SVG Version: 6.00 Build 0)  -->
<svg version="1.1" id="레이어_1" xmlns="http://www.w3.org/2000/svg" xmlns:xlink="http://www.w3.org/1999/xlink" x="0px"
	 y="0px" viewBox="0 0 720 482.376" enable-background="new 0 0 720 482.376" xml:space="preserve">
<path fill="#763C33" d="M700.667,370.288l18.865-108.091c1.418-8.288-0.399-16.647-5.235-23.55
	c-3.343-4.725-7.813-8.323-12.975-10.613c-3.452-2.4-7.414-4.037-11.702-4.801c-1.708-0.288-3.454-0.435-5.162-0.435
	c-14.575,0-26.969,10.431-29.475,24.788l-0.109,0.688c-1.781-1.304-3.709-2.431-5.743-3.376c-4.798-3.274-10.613-5.2-16.864-5.2
	h-4.217c-2.835-8.288-9.013-14.974-16.937-18.537c-4.796-3.305-10.613-5.231-16.864-5.231c-14.357,0-26.423,10.213-29.293,23.767
	h-4.798c0.109-0.106,0.144-0.146,0.217-0.253c6.325-6.58,9.741-15.191,9.559-24.278c-0.182-9.126-3.889-17.631-10.431-23.954
	l-53.101-51.066l3.234-3.816c0.217,0.328,0.437,0.657,0.654,0.981c4.761,10.834,15.593,18.319,28.095,18.319
	c0.546,0,1.089,0,1.635-0.035c5.597-0.293,10.759-2.072,15.156-4.943c4.179,2.143,8.942,3.381,13.993,3.381
	c0.546,0,1.091-0.04,1.635-0.04c8.179-0.435,15.739-4.033,21.263-10.138c5.488-6.105,8.288-14.029,7.851-22.246
	c-0.619-11.882-7.995-21.877-18.281-26.456c-5.053-3.492-11.305-5.453-18.029-5.089c-5.488,0.288-10.686,2.072-15.118,5.16
	c-1.018-0.546-2.072-1.056-3.199-1.526l4.106-4.836c12.068-14.428,10.14-35.946-4.253-48.045c-2.398-2.001-5.051-3.638-7.851-4.907
	c-5.342-3.563-11.631-5.488-18.026-5.488c-9.668,0-18.792,4.215-24.97,11.629l-69.71,83.197c-0.51,0.617-0.945,1.233-1.382,1.85
	c-2.107-1.633-4.326-2.977-6.759-4.068c-5.089-3.416-11.196-5.382-17.7-5.382c-3.237,0-6.471,0.475-9.559,1.455
	c-11.449,3.598-19.446,13.159-21.591,24.207c-1.125-2.906-2.615-5.67-4.47-8.252c-3.416-4.543-7.959-8.066-13.048-10.395
	c-2.181-1.451-4.543-2.653-7.014-3.558l9.668-20.826c3.745-8.07,4.144-17.086,1.091-25.445s-9.195-15.045-17.301-18.789
	c-0.109-0.071-0.291-0.111-0.399-0.182c-1.344-0.874-2.762-1.708-4.253-2.436c-4.217-1.926-8.723-2.942-13.339-2.942
	c-12.321,0-23.625,7.232-28.821,18.39l-32.712,70.437c-3.234-26.425-15.919-50.157-35.145-67.314l10.721-9.774
	c10.539-9.668,14.029-24.499,8.831-37.836c-3.416-8.798-10.031-15.484-18.281-19.047C217.927,1.926,211.784,0,205.351,0h-85.919
	C101.33,0,86.573,14.721,86.573,32.818c0,6.833,2.11,13.124,5.67,18.39c4.399,9.561,13.048,16.722,23.517,19.118L97.259,87.266
	c-6.469,5.923-10.249,13.993-10.648,22.751c-0.146,3.381,0.217,6.726,1.089,9.925c-4.687-2.582-10.102-4.073-15.846-4.073
	l-0.945,0.035c-8.796,0.257-16.937,3.891-22.933,10.249c-6.034,6.398-9.197,14.756-8.942,23.479
	c0.581,20.538,6.069,39.181,15.302,54.922c9.013,17.37,22.388,31.58,38.925,41.394c-37.399,1.273-63.931,4.437-63.931,8.141
	c0,2.471,11.666,4.69,30.456,6.287c-4.361,4.947-7.196,11.234-7.851,18.284l-5.597,64.221c-0.654,7.378,1.236,14.61,5.38,20.684
	c4.834,10.502,15.012,18.208,27.332,19.295c1.018,0.075,1.963,0.111,2.944,0.111c7.959,0,15.229-2.724,20.972-7.378
	c4.033,0.834,7.704,2.906,10.431,6.18c0.182,0.217,0.326,0.435,0.508,0.688c1.091,2.764,1.564,5.781,1.273,8.904
	c-0.945,10.834-10.615,19.193-21.7,18.213c-1.89-0.146-3.742-0.621-5.45-1.273c-1.963-1.491-3.671-3.381-4.907-5.635
	c-3.598-6.322-9.051-11.123-15.484-13.993c-5.16-3.416-11.229-5.377-17.592-5.377c-5.415,0-10.795,1.415-15.555,4.104
	c-7.378,4.184-12.72,10.941-14.974,19.118c-2.289,8.181-1.273,16.757,2.944,24.136c0.437,0.834,0.981,1.637,1.491,2.471
	c0.326,0.763,0.725,1.562,1.162,2.289c6.87,12.25,16.611,22.388,28.058,29.766C22.461,466.276,0,469.621,0,473.583
	c0,4.867,33.402,8.794,74.581,8.794s74.581-3.926,74.581-8.794c0-1.637-3.926-3.199-10.795-4.543
	c25.041-13.124,43.069-38.382,45.649-68.006c0.182-1.997,0.255-3.997,0.291-5.994c1.418,2.689,2.835,5.271,4.253,7.742
	c7.851,14.393,15.411,25.622,18.137,29.513c5.524,7.995,14.646,13.048,24.424,13.483c0.473,0.035,0.945,0.035,1.418,0.035
	c9.339,0,18.1-4.073,24.096-11.229l24.462-29.078c5.415-6.433,8.03-14.575,7.267-22.969c-0.109-1.384-0.362-2.764-0.654-4.108
	c3.199,1.091,6.58,1.744,10.105,1.744c4.616,0,9.086-1.016,13.266-2.942c0.111-0.075,0.22-0.146,0.364-0.217
	c0.546,1.162,1.236,2.249,1.963,3.341c0.581,1.344,1.271,2.653,2.072,3.962c4.435,7.125,11.449,12.103,19.626,13.993
	c1.455,0.328,2.873,0.51,4.361,0.657c-1.162,7.085,0.473,14.428,4.581,20.387c0.872,1.965,1.89,3.816,3.126,5.564
	c5.597,7.667,14.575,12.245,24.023,12.245h49.141c13.448,0,24.859-9.051,28.457-21.332c6.433,4.978,14.683,7.596,24.171,7.596
	c8.723,0,17.41-3.962,26.094-11.997c4.108,5.781,10.615,9.743,18.21,10.395c2.835,0.217,5.597-0.071,8.215-0.763
	c-0.111,0.657-0.293,1.273-0.437,1.89c-1.564,7.853,0.036,15.848,4.47,22.499c0.073,0.111,0.146,0.217,0.217,0.328
	c4.035,8.94,12.177,15.883,22.536,17.955c5.016,1.016,10.067,1.526,14.974,1.526c15.191,0,29.076-4.801,40.126-13.887
	c5.779-4.725,10.539-10.395,14.138-16.571l0.508,0.763c0.909,1.491,2.11,2.724,3.489,3.669l0.328,0.475
	c1.38,2.254,3.452,3.962,5.814,4.943c0.872,1.273,1.999,2.4,3.308,3.27c1.127,2.072,2.8,3.78,5.053,4.978l1.852,0.985
	c2.982,1.597,6.615,1.89,9.741,0.905c2.254,2.147,5.306,3.492,8.649,3.492h0.472l2.181-0.111c3.345-0.107,6.433-1.491,8.725-3.922
	c0.035-0.075,0.071-0.111,0.109-0.146c3.199,0.763,6.797,0.217,9.632-1.562l1.89-1.167c2.797-1.779,4.796-4.543,5.559-7.778
	c0-0.071,0.038-0.142,0.038-0.217c3.197-0.91,5.923-3.088,7.596-6.14l0.981-1.926c1.599-2.946,1.928-6.362,0.909-9.526
	c0-0.071-0.038-0.106-0.038-0.182c0.038-0.035,0.073-0.107,0.111-0.146c2.325-2.471,3.489-5.63,3.379-8.94l-0.071-2.214
	c-0.146-3.563-1.708-6.691-4.108-8.869c0.763-3.163,0.328-6.651-1.562-9.632l-1.127-1.819c-1.165-1.815-2.691-3.199-4.435-4.215
	c-0.217-0.293-0.437-0.546-0.654-0.799C695.361,384.316,699.36,377.777,700.667,370.288 M278.623,279.823
	c-4.543-2.578-9.703-3.962-14.936-3.962c-10.686,0-20.644,5.746-25.952,15.014c-3.997,6.939-5.051,15.009-2.979,22.716
	c0.91,3.305,2.363,6.322,4.215,9.086c2.691,6.029,7.161,11.047,12.866,14.353c1.89,1.273,7.598,7.56,13.048,16.722l0.038,0.071
	c-3.745-1.637-7.78-2.542-11.959-2.542c-6.143,0-12.03,1.89-16.973,5.342c-3.707-8.399-5.996-15.449-6.469-20.138
	c-1.165-11.629-8.47-21.15-18.501-25.622c-4.033-2.76-8.796-4.579-13.956-5.053c0.872-8.394-1.599-17.117-7.598-23.949
	c-6.868-7.853-15.264-14.286-24.46-19.047c-0.255-0.142-0.508-0.324-0.763-0.47c38.781-1.202,66.548-4.437,66.548-8.252
	c0-2.396-11.376-4.614-29.73-6.216c2.58-1.38,5.051-2.906,7.487-4.503c0.728-0.328,1.453-0.728,2.072-1.238l2.471-1.855
	c5.852-4.25,11.232-9.051,16.101-14.357c0.619-0.506,1.162-1.016,1.673-1.633l1.708-2.183c0.763-0.981,1.562-1.961,2.325-2.942
	c0.364,0.581,0.728,1.162,1.127,1.708c2.036,4.614,5.162,8.794,9.306,12.174c5.923,4.796,13.41,7.449,21.043,7.449
	c7.196,0,14.067-2.289,19.845-6.575l28.894-21.554c9.559,10.395,22.17,17.88,36.345,21.114c-9.304,3.381-16.573,11.234-18.9,21.407
	L332.525,255h-2.327c-16.5,0-29.948,13.412-29.948,29.948c0,6.251,1.963,12.068,5.271,16.864c0.109,0.257,0.253,0.546,0.362,0.803
	c-6.724-8.217-14.355-15.413-22.496-20.103c-0.763-0.47-1.637-0.834-2.436-1.233C280.151,280.804,279.388,280.298,278.623,279.823
	 M436.146,179.474c5.269,3.088,11.267,4.796,17.372,4.796h0.364l58.298,56.084c3.09,2.942,6.615,5.231,10.395,6.833
	c-6.178,5.488-10.178,13.519-10.178,22.423c0,6.287,1.963,12.068,5.271,16.899c4.253,9.45,13.048,16.429,23.588,18.173
	c-2.979,2.329-5.741,4.947-8.177,7.888c-2.653-5.342-7.196-9.557-12.722-11.846c-3.816-2.729-8.432-4.366-13.448-4.366
	c-1.635-8.177-7.305-14.898-14.865-18.026c-3.816-2.724-8.505-4.361-13.521-4.361c-12.611,0-22.896,10.107-23.224,22.645
	c-8.432,1.233-15.373,6.943-18.39,14.646c-3.454-1.744-7.27-2.724-11.232-2.871c4.253-5.377,6.762-12.103,6.762-19.446
	c0-5.923-1.673-11.447-4.508-16.172c3.634,1.562,7.633,2.436,11.848,2.436c16.573,0,30.094-13.523,30.094-30.13
	c0-9.308-4.253-17.667-10.941-23.191c-5.524-6.651-13.847-10.941-23.188-10.941c-5.415,0-10.466,1.455-14.865,3.962
	c-0.907-0.506-1.852-1.016-2.835-1.415C426.986,204.191,433.346,192.522,436.146,179.474 M636.117,355.713
	c-1.236,6.943,0.038,13.958,3.527,20.027c-1.455,0.253-2.908,0.763-4.144,1.562l-1.926,1.198c-2.072,1.273-3.563,3.092-4.543,5.124
	c0.109-5.16,0.071-9.668-0.111-13.807c2.327-6.034,3.636-12.507,3.636-19.34c0-5.958-1.018-11.7-2.762-17.046v-28.275h6.469
	c3.09,0,6.069-0.475,8.904-1.309L636.117,355.713z M170.352,119.174c5.013,3.057,9.157,7.125,12.283,11.961
	c2.544,5.342,3.926,11.3,3.926,17.552c0,22.609-18.355,40.964-40.962,40.964c-6.688,0-12.831-1.384-18.208-3.891
	c-10.322-6.868-16.72-18.9-17.157-34.016c-0.035-1.637-0.217-3.163-0.508-4.725c4.288,1.85,8.94,2.871,13.703,2.871
	c8.614,0,16.899-3.234,23.262-9.015L170.352,119.174z"/>
<path fill="#F5A200" d="M76.045,367.275c-11.921-1.051-20.755-11.558-19.701-23.515l5.599-64.221
	c1.054-11.957,11.593-20.755,23.515-19.734c11.957,1.052,20.79,11.558,19.734,23.515l-5.632,64.257
	C98.506,359.497,88.002,368.331,76.045,367.275"/>
<path fill="#FFF100" d="M88.825,462.824c-24.171-2.107-45.725-15.99-57.646-37.109c-5.888-10.431-2.181-23.661,8.252-29.548
	c10.431-5.923,23.661-2.214,29.548,8.217c4.907,8.647,13.703,14.357,23.623,15.227c16.538,1.455,31.15-10.83,32.603-27.366
	c1.453-16.54-10.832-31.186-27.368-32.605c-3.598-0.324-7.125,0-10.542,0.91c-11.558,3.163-23.479-3.669-26.64-15.191
	c-3.163-11.593,3.634-23.515,15.229-26.678c8.359-2.254,17.01-3.052,25.768-2.289c40.343,3.527,70.293,39.252,66.766,79.634
	C164.895,436.368,129.168,466.351,88.825,462.824"/>
<path fill="#F5A200" d="M119.421,134.259c-6.18,0-12.323-2.507-16.793-7.414c-8.505-9.268-7.886-23.696,1.418-32.166l42.67-39.07
	h-27.295c-12.576,0-22.789-10.213-22.789-22.787c0-12.578,10.213-22.756,22.789-22.756h85.919c9.377,0,17.809,5.746,21.227,14.504
	c3.416,8.758,1.089,18.718-5.852,25.041l-85.886,78.654C130.433,132.263,124.907,134.259,119.421,134.259"/>
<path fill="#FFF100" d="M145.615,245.266c-54.339,0-94.937-40.303-96.534-95.913c-0.364-12.578,9.521-23.044,22.097-23.408
	c0.217-0.035,0.473-0.035,0.69-0.035c12.285,0,22.39,9.778,22.754,22.135c0.872,30.423,21.844,51.683,50.993,51.683
	c28.131,0,50.991-22.898,50.991-51.031c0-22.605-14.466-42.198-36.055-48.813c-12.03-3.669-18.789-16.389-15.156-28.422
	c3.671-12.028,16.391-18.825,28.422-15.156c40.889,12.503,68.367,49.611,68.367,92.39
	C242.184,201.946,198.895,245.266,145.615,245.266"/>
<polygon fill="#763C33" points="121.834,230.021 118.416,238.566 112.71,231.33 "/>
<polygon fill="#763C33" points="125.594,228.069 129.809,228.907 126.757,236.503 130.282,237.231 128.9,240.611 121.195,239.045 
	"/>
<path fill="#763C33" d="M134.306,237.665c-0.071,0.839,0.22,1.309,0.836,1.384c0.473,0.071,0.801-0.146,1.236-0.621l2.835,0.91
	c-1.127,1.708-2.762,2.507-4.798,2.289c-2.398-0.253-3.889-1.997-3.669-4.215c0.144-1.344,0.725-2.507,1.67-3.305
	c1.054-0.874,2.4-1.273,3.745-1.127c2.471,0.253,3.962,1.997,3.742,4.068c-0.035,0.364-0.071,0.728-0.18,1.162L134.306,237.665z
	 M136.597,236.357c0.035-0.035,0.035-0.071,0.035-0.071c0.035-0.581-0.217-0.91-0.728-0.98c-0.546-0.035-0.945,0.217-1.271,0.874
	L136.597,236.357z"/>
<polygon fill="#763C33" points="141.282,236.605 140.264,236.57 140.845,233.628 141.899,233.664 142.372,231.374 146.225,231.481 
	145.752,233.735 146.915,233.775 146.334,236.716 145.134,236.681 144.044,241.916 140.191,241.84 "/>
<polygon fill="#763C33" points="150.189,230.163 154.331,229.946 150.952,235.798 147.572,235.98 "/>
<path fill="#763C33" d="M152.498,238.202c0.907,0.768,1.779,1.056,2.325,0.985c0.255,0,0.399-0.182,0.399-0.364
	c-0.035-0.257-0.253-0.328-0.654-0.51l-0.69-0.217c-0.981-0.435-1.526-1.016-1.635-1.961c-0.182-1.637,1.054-3.017,3.161-3.239
	c1.091-0.142,2.181,0.075,3.345,0.621l-1.056,2.325c-0.617-0.47-1.198-0.652-1.562-0.652c-0.291,0.035-0.473,0.217-0.437,0.435
	c0.038,0.217,0.291,0.253,0.728,0.399l0.508,0.182c1.054,0.364,1.599,0.981,1.708,1.997c0.22,1.855-1.089,3.274-3.379,3.527
	c-1.127,0.146-2.471-0.182-3.926-0.945L152.498,238.202z"/>
<path fill="#763C33" d="M167.827,235.5c0.22,0.799,0.728,1.162,1.309,0.981c0.473-0.106,0.728-0.399,0.945-0.981l2.981-0.182
	c-0.473,2.001-1.673,3.31-3.671,3.855c-2.327,0.652-4.361-0.475-4.942-2.653c-0.328-1.273-0.22-2.547,0.364-3.638
	c0.69-1.198,1.779-2.072,3.126-2.431c2.363-0.657,4.361,0.47,4.942,2.471c0.073,0.364,0.182,0.723,0.255,1.162L167.827,235.5z
	 M169.538,233.464v-0.106c-0.146-0.546-0.546-0.728-0.983-0.617c-0.581,0.142-0.872,0.546-0.907,1.233L169.538,233.464z"/>
<path fill="#763C33" d="M172.978,229.276l3.416-1.344l0.217,1.202c0.508-1.238,1.236-2.072,2.145-2.4c1.271-0.51,2.542,0,3.088,1.38
	c0.146,0.399,0.291,0.874,0.437,1.526l0.872,4.437l-3.598,1.455l-0.836-4.108c-0.073-0.364-0.144-0.617-0.217-0.799
	c-0.109-0.257-0.364-0.404-0.619-0.293c-0.617,0.253-0.654,0.91-0.399,2.072l0.728,3.669l-3.598,1.42L172.978,229.276z"/>
<path fill="#763C33" d="M181.368,223.299c-0.508-0.981-0.035-2.325,1.127-2.906c1.054-0.51,2.181-0.217,2.653,0.763
	c0.51,0.981,0,2.325-1.162,2.906C182.968,224.608,181.805,224.244,181.368,223.299 M182.242,225.407l3.487-1.744l3.308,11.522
	l-3.452,1.708L182.242,225.407z"/>
<path fill="#763C33" d="M187.515,224.151c0.326-1.344,1.127-2.436,2.325-3.199c2.145-1.344,4.363-0.874,5.599,1.127
	c0.617,0.981,0.834,2.072,0.69,3.199c-0.217,1.451-1.091,2.76-2.436,3.598c-2.034,1.269-4.361,0.799-5.488-1.091
	C187.477,226.658,187.26,225.385,187.515,224.151 M191.078,225.602c0.291,0.475,0.763,0.586,1.198,0.328
	c0.581-0.364,0.69-1.091,0.255-1.744c-0.291-0.47-0.728-0.581-1.2-0.293C190.785,224.187,190.676,224.95,191.078,225.602"/>
<path fill="#763C33" d="M199.099,223.26l-5.561-4.215l2.944-2.254l1.562,1.344c0.328,0.328,0.728,0.657,1.091,1.127
	c-0.217-0.435-0.364-0.981-0.508-1.597l-0.402-2.218l3.163-2.471l1.67,13.559l-3.343,2.578L199.099,223.26z"/>
<path fill="#763C33" d="M212.98,213.676c-1.637,1.673-3.891,1.784-5.526,0.222c-0.945-0.91-1.491-2.107-1.526-3.345
	c-0.073-1.38,0.399-2.618,1.453-3.669c0.51-0.581,1.127-0.985,1.819-1.273l1.817,2.542c-0.546,0.111-0.945,0.293-1.236,0.581
	c-0.581,0.621-0.581,1.455,0.035,2.072c0.546,0.51,1.236,0.475,1.781-0.071c0.255-0.253,0.437-0.581,0.546-1.016l1.817,2.471
	C213.705,212.807,213.379,213.317,212.98,213.676"/>
<path fill="#763C33" d="M215.892,207.696l-6.471-2.724l2.327-2.906l1.852,0.945c0.402,0.182,0.874,0.435,1.347,0.799
	c-0.293-0.364-0.583-0.834-0.874-1.42l-0.981-2.032l2.507-3.199l4.945,12.756l-2.582,3.31L215.892,207.696z"/>
<path fill="#763C33" d="M224.302,199.23c-1.273,1.965-3.527,2.511-5.38,1.273c-1.127-0.728-1.89-1.779-2.181-3.017
	c-0.328-1.309-0.073-2.653,0.763-3.887c0.399-0.657,0.945-1.162,1.526-1.566l2.289,2.112c-0.546,0.253-0.872,0.506-1.091,0.834
	c-0.508,0.728-0.291,1.562,0.402,2.001c0.654,0.435,1.344,0.253,1.744-0.404c0.182-0.253,0.291-0.617,0.328-1.087l2.289,2.107
	C224.81,198.25,224.593,198.796,224.302,199.23"/>
<polygon fill="#763C33" points="226.006,195.947 216.301,188.028 218.155,184.647 227.858,192.606 "/>
<path fill="#763C33" d="M220.172,184.585c-0.981-0.475-1.453-1.855-0.872-3.017c0.473-1.056,1.562-1.491,2.507-1.056
	c1.018,0.475,1.455,1.819,0.945,2.981C222.243,184.585,221.152,184.984,220.172,184.585 M222.208,185.636l1.635-3.523l6.797,4.832
	l-1.637,3.527L222.208,185.636z"/>
<path fill="#763C33" d="M224.48,180.72l1.198-3.416l1.054,0.621c-0.581-1.202-0.725-2.289-0.399-3.234
	c0.437-1.309,1.708-1.89,3.09-1.384c0.364,0.111,0.836,0.328,1.418,0.657l3.924,2.254l-1.271,3.669l-3.671-2.107
	c-0.255-0.146-0.508-0.253-0.69-0.328c-0.291-0.071-0.546,0.035-0.654,0.293c-0.22,0.617,0.253,1.052,1.309,1.633l3.197,1.855
	l-1.271,3.674L224.48,180.72z"/>
<path fill="#763C33" d="M229.706,162.556l6.906,3.017c2.618,1.127,3.671,3.234,3.052,5.998c-0.326,1.269-0.872,2.396-1.817,3.523
	l-1.963-1.815c0.583-0.546,0.945-1.162,1.127-1.89c0.22-0.945-0.217-1.744-1.198-2.329l-0.654-0.324
	c0.725,0.87,0.981,1.815,0.763,2.724c-0.399,1.819-1.963,2.689-3.889,2.254c-1.127-0.253-2.218-0.91-3.017-1.855
	c-0.872-1.016-1.2-2.143-0.945-3.27c0.253-1.016,0.836-1.637,1.926-1.961l-1.162-0.404L229.706,162.556z M232.397,169.824
	c0.581,0.111,0.943-0.106,1.054-0.617c0.182-0.652-0.22-1.233-0.91-1.415c-0.581-0.146-1.018,0.146-1.127,0.688
	C231.27,169.101,231.669,169.646,232.397,169.824"/>
<path fill="#763C33" d="M225.766,159.965l0.473-3.962l7.234,2.542L233,162.255L225.766,159.965z M236.017,163.488
	c-1.309-0.142-2.254-1.38-2.072-2.724c0.144-1.198,1.198-1.997,2.289-1.819c1.236,0.146,2.143,1.384,1.999,2.729
	C238.087,162.836,237.033,163.635,236.017,163.488"/>
<path fill="#F5A200" d="M262.351,224.874c-4.872,0-9.741-1.633-13.703-4.867c-7.707-6.251-10.178-16.975-5.998-25.99l56.191-120.918
	c5.051-10.87,17.918-15.555,28.823-10.542c10.865,5.053,15.591,17.955,10.539,28.821l-20.063,43.143l1.271-0.945
	c9.597-7.161,23.188-5.16,30.349,4.437c7.196,9.592,5.198,23.186-4.434,30.347l-70.038,52.229
	C271.438,223.459,266.895,224.874,262.351,224.874"/>
<path fill="#FFF100" d="M363.116,219.621c-32.568,0-59.026-26.492-59.026-59.061c0-11.957,9.703-21.66,21.698-21.66
	c11.995,0,21.662,9.703,21.662,21.66c0,8.652,7.05,15.666,15.666,15.666c8.614,0,15.628-7.014,15.628-15.666
	c0-1.597-0.22-3.159-0.728-4.685c-3.563-11.416,2.762-23.59,14.211-27.188c11.413-3.598,23.625,2.764,27.224,14.175
	c1.781,5.706,2.689,11.669,2.689,17.698C422.139,193.13,395.681,219.621,363.116,219.621"/>
<path fill="#F5A200" d="M450.681,168.599c-5.453,0.293-11.087-1.415-15.593-5.231c-9.523-7.959-10.795-22.135-2.8-31.656L502,48.48
	c7.959-9.486,22.135-10.759,31.656-2.764c9.523,7.959,10.759,22.135,2.8,31.66l-69.712,83.193
	C462.564,165.587,456.712,168.275,450.681,168.599"/>
<path fill="#FFF100" d="M533.024,234.227c-5.998,0.328-12.141-1.744-16.793-6.251l-73.636-70.872
	c-8.978-8.612-9.231-22.862-0.654-31.802c8.614-8.975,22.862-9.197,31.802-0.617l73.674,70.907
	c8.975,8.581,9.195,22.827,0.617,31.802C543.927,231.649,538.474,233.939,533.024,234.227"/>
<path fill="#FFF100" d="M553.541,119.831c0.581,10.577-7.56,19.628-18.137,20.174c-10.577,0.546-19.626-7.596-20.171-18.173
	s7.56-19.588,18.135-20.134C543.945,101.117,552.958,109.258,553.541,119.831"/>
<path fill="#FFF100" d="M584.314,118.216c0.581,10.577-7.56,19.628-18.137,20.174s-19.59-7.596-20.172-18.137
	c-0.546-10.577,7.56-19.624,18.135-20.169C574.718,99.538,583.731,107.643,584.314,118.216"/>
<path fill="#FFF100" d="M424.522,241.06c0,10.213-8.323,18.501-18.537,18.501c-10.213,0-18.501-8.288-18.501-18.501
	c0-10.209,8.288-18.497,18.501-18.497C416.199,222.563,424.522,230.851,424.522,241.06"/>
<path fill="#FFF100" d="M454.263,241.06c0,10.213-8.323,18.501-18.537,18.501c-10.213,0-18.501-8.288-18.501-18.501
	c0-10.209,8.288-18.497,18.501-18.497C445.94,222.563,454.263,230.851,454.263,241.06"/>
<path fill="#F5A200" d="M161.798,318.507c-5.526,0-11.05-2.289-14.976-6.793c-4.652-5.306-10.976-8.944-17.844-10.289
	c-10.759-2.072-17.847-12.503-15.739-23.297c2.11-10.795,12.54-17.844,23.335-15.737c15.446,3.017,29.73,11.229,40.161,23.115
	c7.234,8.252,6.433,20.826-1.852,28.058C171.102,316.874,166.45,318.507,161.798,318.507"/>
<path fill="#F5A200" d="M228.526,430.188c-0.328,0-0.619,0-0.91,0c-6.178-0.288-11.921-3.452-15.411-8.541
	c-3.525-5.049-34.42-50.41-37.836-84.031c-1.127-10.936,6.87-20.68,17.811-21.771c10.939-1.122,20.644,6.872,21.771,17.813
	c1.125,11.154,8.794,27.947,17.008,42.814l6.797-8.035c7.052-8.43,19.626-9.486,28.022-2.436c8.432,7.09,9.486,19.628,2.436,28.022
	l-24.462,29.078C239.937,427.61,234.376,430.188,228.526,430.188"/>
<path fill="#FFF100" d="M293.761,364.542c-7.489,0-14.648-4.25-18.029-11.482c-7.088-15.302-17.518-27.441-21.988-30.023
	c-9.488-5.453-12.793-17.627-7.305-27.148s17.627-12.831,27.148-7.343c16.139,9.268,30.64,31.474,38.2,47.721
	c4.652,9.96,0.326,21.771-9.668,26.425C299.429,363.925,296.558,364.542,293.761,364.542"/>
<path fill="#F5A200" d="M338.201,383.496c-1.491,0-2.981-0.177-4.508-0.506c-10.686-2.507-17.374-13.159-14.903-23.843
	l23.552-101.987c2.471-10.724,13.157-17.374,23.881-14.903c10.648,2.471,17.336,13.159,14.901,23.843l-23.588,101.987
	C355.429,377.284,347.25,383.496,338.201,383.496"/>
<path fill="#FFF100" d="M650.206,392.711c-11.085,3.381-17.336,15.156-13.958,26.279c3.416,11.083,15.156,17.334,26.243,13.918
	c11.085-3.381,17.372-15.156,13.956-26.239C673.066,395.581,661.291,389.33,650.206,392.711 M666.234,400.417
	c0.217-0.182,0.581-0.182,0.763,0.035l2.8,3.088c0.144,0.217,0.144,0.546-0.038,0.763l-0.071,0.071
	c-0.255,0.182-0.328,0.586-0.182,0.839l1.599,3.997c0.071,0.253,0.362,0.47,0.69,0.435c0.291-0.035,0.581,0.182,0.617,0.475
	l0.22,1.815c0.035,0.293-0.182,0.546-0.473,0.621h-0.073c-0.291,0.035-0.581,0.288-0.619,0.581l-1.526,6.14
	c-0.071,0.293,0,0.657,0.255,0.839l0.073,0.071c0.253,0.182,0.291,0.546,0.109,0.763l-2.544,3.27
	c-0.182,0.217-0.546,0.293-0.763,0.111l-0.146-0.111c-0.18-0.182-0.581-0.182-0.834,0l-3.527,2.147
	c-0.217,0.142-0.399,0.506-0.326,0.763l0.035,0.217c0.073,0.253-0.144,0.546-0.435,0.617l-4.035,0.874
	c-0.291,0.071-0.581-0.146-0.654-0.439l-0.073-0.217c-0.036-0.288-0.362-0.546-0.654-0.546l-3.997-0.617
	c-0.291-0.071-0.617,0.111-0.763,0.364l-0.144,0.217c-0.146,0.293-0.473,0.399-0.728,0.253l-3.634-1.961
	c-0.293-0.106-0.402-0.47-0.255-0.728l0.144-0.253c0.146-0.293,0.073-0.657-0.144-0.874l-2.691-3.017
	c-0.144-0.217-0.544-0.324-0.834-0.217l-0.328,0.111c-0.291,0.146-0.581,0-0.69-0.257l-1.564-3.851
	c-0.109-0.288,0.038-0.617,0.328-0.728l0.326-0.142c0.291-0.111,0.472-0.439,0.437-0.728l-0.146-3.962
	c0.038-0.328-0.182-0.621-0.473-0.728l-0.326-0.111c-0.291-0.071-0.437-0.399-0.328-0.688l1.236-3.926
	c0.111-0.253,0.437-0.435,0.728-0.328l0.291,0.075c0.291,0.106,0.654-0.04,0.801-0.293c0,0,0.581-1.056,1.162-1.744
	c0.508-0.657,1.271-1.42,1.271-1.42c0.22-0.217,0.255-0.617,0.111-0.87l-0.182-0.217c-0.146-0.293-0.073-0.621,0.182-0.763
	l3.525-2.218c0.253-0.146,0.581-0.075,0.725,0.182l0.146,0.217c0.182,0.253,0.546,0.399,0.836,0.288l3.962-0.834
	c0.291-0.071,0.581-0.328,0.617-0.652l0.038-0.182c0.035-0.328,0.291-0.546,0.581-0.475l4.144,0.581
	c0.253,0.035,0.472,0.293,0.435,0.621l-0.035,0.142c-0.038,0.293,0.144,0.657,0.435,0.763l3.671,1.89
	c0.217,0.182,0.619,0.146,0.836-0.071L666.234,400.417z M685.096,408.483L685.096,408.483c-1.198,0.036-2.398-0.91-2.689-2.107
	l-0.836-2.8c-0.435-1.127,0.038-2.618,1.054-3.27c1.054-0.617,1.347-2.001,0.728-3.052l-1.2-1.855
	c-0.617-1.056-1.999-1.38-3.088-0.728c-1.018,0.657-2.544,0.435-3.381-0.435l-2.145-2.001c-0.945-0.763-1.236-2.289-0.654-3.381
	c0.546-1.087,0.111-2.431-0.945-3.013l-1.961-1.02c-1.091-0.581-2.436-0.182-3.017,0.91c-0.546,1.056-1.963,1.637-3.126,1.309
	l-2.908-0.657c-1.2-0.217-2.216-1.344-2.254-2.578c-0.036-1.202-1.054-2.183-2.325-2.147l-2.181,0.111
	c-1.236,0-2.218,1.056-2.181,2.254v0.035c0.035,1.198-0.874,2.436-2.072,2.689l-2.8,0.874c-1.162,0.435-2.615-0.071-3.27-1.091
	c-0.654-1.051-2.001-1.344-3.055-0.688l-1.89,1.162c-1.016,0.652-1.344,2.032-0.725,3.052v0.035c0.69,1.016,0.472,2.542-0.402,3.381
	l-1.999,2.178c-0.763,0.91-2.289,1.238-3.379,0.657h-0.038c-1.054-0.581-2.398-0.146-2.979,0.91l-1.054,1.961
	c-0.583,1.091-0.146,2.436,0.907,3.017c1.091,0.581,1.673,1.997,1.344,3.163l-0.652,2.871c-0.22,1.198-1.347,2.218-2.582,2.254
	c-1.236,0.071-2.181,1.087-2.143,2.325l0.071,2.218c0.038,1.198,1.056,2.178,2.292,2.143c1.236-0.035,2.471,0.91,2.762,2.072
	l0.799,2.835c0.473,1.127-0.035,2.582-1.054,3.234c-1.018,0.652-1.344,2.036-0.728,3.052l1.2,1.89
	c0.654,1.056,1.999,1.38,3.09,0.728c1.016-0.652,2.544-0.475,3.379,0.435l2.145,2.001c0.945,0.763,1.273,2.289,0.654,3.345v0.035
	c-0.546,1.087-0.146,2.436,0.945,3.017l1.963,1.016c1.089,0.581,2.434,0.182,3.017-0.91c0.544-1.091,1.961-1.673,3.126-1.309
	l2.906,0.657c1.2,0.182,2.218,1.344,2.254,2.578c0.038,1.202,1.054,2.183,2.327,2.147l2.216-0.111
	c1.2-0.035,2.181-1.051,2.145-2.289c-0.038-1.233,0.872-2.436,2.072-2.724l2.797-0.839c1.165-0.435,2.618,0.035,3.272,1.091
	c0.654,1.016,2.034,1.344,3.052,0.692l1.89-1.162c1.018-0.657,1.344-2.036,0.69-3.092c-0.617-1.052-0.435-2.578,0.437-3.416
	l2.034-2.143c0.728-0.945,2.254-1.238,3.381-0.657c1.054,0.581,2.398,0.146,3.017-0.905l1.018-1.965
	c0.581-1.091,0.182-2.436-0.909-3.017c-1.089-0.546-1.673-1.997-1.344-3.159l0.69-2.875c0.182-1.233,1.309-2.214,2.544-2.254v-0.035
	c1.273-0.035,2.218-1.087,2.145-2.289l-0.073-2.218C687.388,409.393,686.37,408.448,685.096,408.483 M663.146,435.05
	c-12.25,3.78-25.26-3.159-29.04-15.409c-3.707-12.285,3.197-25.298,15.446-29.038c12.248-3.78,25.26,3.159,29.04,15.409
	C682.299,418.297,675.429,431.31,663.146,435.05"/>
<path fill="#F5A200" d="M666.302,380.727c-1.347,0.04-2.726-0.035-4.108-0.288c-10.83-1.89-18.064-12.214-16.209-23.009
	l18.9-108.127c1.888-10.83,12.212-18.062,23.042-16.172c10.83,1.89,18.064,12.21,16.136,23.044l-18.863,108.091
	C683.566,373.713,675.533,380.403,666.302,380.727"/>
<path fill="#FFF100" d="M396.943,304.824h-66.733c-11.012,0-19.916-8.904-19.916-19.881s8.904-19.881,19.916-19.881h66.733
	c10.974,0,19.881,8.904,19.881,19.881S407.917,304.824,396.943,304.824"/>
<path fill="#FFF100" d="M419.375,370.274c-1.855,0-3.745-0.288-5.561-0.87c-6.906-2.218-11.522-8.177-12.394-14.903h-26.097
	c-9.958,0-18.064-8.066-18.064-18.062c0-9.996,8.106-18.102,18.064-18.102h49.139c5.779,0,11.196,2.764,14.612,7.449
	c3.416,4.69,4.361,10.688,2.58,16.212l-5.089,15.737C434.059,365.407,427.006,370.274,419.375,370.274"/>
<path fill="#F5A200" d="M416.323,421.527h-49.141c-5.779,0-11.194-2.76-14.61-7.449c-3.416-4.69-4.361-10.724-2.58-16.207
	l5.051-15.741c3.09-9.521,13.303-14.756,22.789-11.664c6.906,2.214,11.522,8.177,12.394,14.898h26.097
	c9.958,0,18.062,8.106,18.062,18.066C434.385,413.426,426.281,421.527,416.323,421.527"/>
<path fill="#FFF100" d="M506.867,332.899h-48.231c-7.343,0-13.266-5.923-13.266-13.266c0-7.303,5.923-13.226,13.266-13.226h48.231
	c7.341,0,13.266,5.923,13.266,13.226C520.133,326.976,514.208,332.899,506.867,332.899"/>
<path fill="#FFF100" d="M468.958,407.809c-8.106,0-14.539-2.36-19.155-7.014c-6.833-6.833-6.759-15.662-6.724-20.351v-0.799
	c0-14.14,13.776-26.571,25.586-32.965c9.051-4.907,18.029-7.196,26.279-6.908c3.489-6.105,11.123-8.47,17.483-5.342
	c6.143,3.088,8.831,10.32,6.433,16.611c8.033,9.304,11.267,23.767,9.668,43.103c-0.619,7.272-7.052,12.685-14.319,12.103
	c-7.307-0.617-12.685-7.014-12.103-14.317c0.182-2.329,0.473-6.837,0.144-11.416C490.145,398.651,478.987,407.809,468.958,407.809"
	/>
<path fill="#F5A200" d="M632.266,289.508h-89.921c-10.974,0-19.881-8.904-19.881-19.881c0-11.012,8.907-19.881,19.881-19.881h89.921
	c10.974,0,19.881,8.869,19.881,19.881C652.147,280.604,643.24,289.508,632.266,289.508"/>
<path fill="#FFF100" d="M616.9,346.458c0-5.306-0.983-10.355-2.726-15.045v-85.557c0-10.976-8.904-19.881-19.919-19.881
	c-10.976,0-19.881,8.904-19.881,19.881v57.606c-0.182,0-0.326-0.035-0.508-0.035c-23.699,0-42.996,19.3-42.996,43.032
	c0,23.554,19.045,42.743,42.597,43.001v14.717c-0.654,1.708-3.636,7.454-15.158,5.164c-10.757-2.183-21.225,4.832-23.406,15.591
	c-2.143,10.794,4.834,21.261,15.593,23.408c4.326,0.87,8.578,1.309,12.685,1.309c12.429,0,23.805-3.855,32.856-11.269
	c10.431-8.576,17.192-21.589,17.192-33.182v-17.521c0-0.91,0.036-2.143,0.071-3.598c0.22-6.797,0.255-13.594-0.144-20.169
	C615.553,358.561,616.9,352.674,616.9,346.458"/>
<path fill="#763C33" d="M573.917,375.816c-11.232,0-21.627-6.504-26.496-16.611c-3.381-7.05-3.853-15.045-1.271-22.423
	c2.615-7.414,7.922-13.341,14.974-16.757c4.033-1.926,8.323-2.942,12.758-2.942c11.229,0,21.625,6.54,26.458,16.647
	c3.381,7.085,3.853,15.045,1.271,22.423c-2.615,7.414-7.922,13.377-14.974,16.757C582.604,374.871,578.351,375.816,573.917,375.816
	 M573.881,318.897c-4.144,0-8.179,0.91-11.921,2.729c-6.653,3.234-11.631,8.794-14.102,15.737c-2.4,6.943-2.001,14.428,1.198,21.043
	c4.543,9.486,14.322,15.631,24.861,15.631c4.144,0,8.177-0.945,11.921-2.764c6.651-3.163,11.631-8.758,14.064-15.702
	c2.4-6.939,2.001-14.428-1.162-21.043C594.161,325.042,584.383,318.897,573.881,318.897"/>
<path fill="#763C33" d="M590.814,368.957l-2.653-9.122c-0.146-0.475,0.144-0.799,0.617-0.692l9.341,1.637
	c0.109,0,0.217,0.071,0.326,0.111c0.255-0.439,0.472-0.874,0.654-1.309c-0.073-0.075-0.144-0.111-0.182-0.182l-6.36-7.054
	c-0.364-0.399-0.255-0.799,0.255-0.945l9.157-2.578c0.038-0.035,0.146-0.035,0.255-0.035c0.038-0.475,0.073-0.945,0.073-1.455
	c-0.073-0.035-0.182-0.035-0.255-0.071l-8.796-3.598c-0.472-0.182-0.544-0.621-0.182-0.945l7.161-6.327
	c0.036-0.035,0.146-0.071,0.217-0.146c-0.182-0.435-0.364-0.87-0.581-1.344c-0.073,0.035-0.182,0.075-0.255,0.075l-9.521,0.546
	c-0.473,0.036-0.728-0.293-0.546-0.763l3.671-8.763c0.035-0.106,0.109-0.146,0.144-0.217c-0.362-0.364-0.69-0.692-1.089-1.016
	c-0.073,0.071-0.109,0.142-0.182,0.182l-8.288,4.65c-0.472,0.217-0.872,0.035-0.872-0.47l-0.508-9.526c0-0.071,0-0.182,0.036-0.253
	c-0.473-0.106-0.945-0.288-1.418-0.399c-0.035,0.071-0.073,0.182-0.109,0.253l-5.488,7.778c-0.291,0.404-0.728,0.364-0.945-0.071
	l-4.543-8.323c-0.036-0.111-0.073-0.182-0.109-0.288c-0.508,0.071-0.981,0.177-1.453,0.288c0,0.071,0.036,0.182,0.036,0.253
	l-1.564,9.379c-0.109,0.51-0.508,0.652-0.907,0.364l-7.742-5.524c-0.073-0.04-0.109-0.111-0.144-0.182
	c-0.437,0.253-0.874,0.546-1.273,0.834c0.073,0.075,0.146,0.146,0.146,0.253l2.653,9.126c0.144,0.47-0.109,0.799-0.619,0.728
	l-9.377-1.637c-0.073-0.035-0.182-0.075-0.255-0.111c-0.291,0.439-0.435,0.874-0.69,1.309c0.073,0.035,0.182,0.111,0.217,0.146
	l6.362,7.085c0.326,0.364,0.217,0.763-0.255,0.91l-9.122,2.618c-0.073,0-0.22,0-0.293,0c-0.035,0.51-0.071,0.98-0.109,1.491
	c0.109,0,0.22,0,0.291,0.035l8.796,3.598c0.473,0.217,0.51,0.617,0.182,0.945l-7.159,6.327c-0.038,0.035-0.111,0.071-0.22,0.142
	c0.146,0.439,0.364,0.91,0.546,1.344c0.109-0.035,0.217-0.071,0.291-0.071l9.486-0.581c0.473,0,0.728,0.364,0.546,0.799
	l-3.634,8.758c-0.038,0.075-0.109,0.146-0.182,0.257c0.364,0.328,0.69,0.652,1.089,0.98c0.073-0.071,0.146-0.146,0.22-0.182
	l8.323-4.654c0.399-0.217,0.799-0.035,0.834,0.475l0.51,9.486c0,0.071-0.038,0.217-0.038,0.293c0.437,0.142,0.909,0.288,1.382,0.399
	c0.035-0.075,0.073-0.182,0.144-0.257l5.453-7.778c0.291-0.399,0.728-0.399,0.945,0.075l4.543,8.323
	c0.073,0.071,0.073,0.182,0.109,0.288c0.51-0.071,0.983-0.146,1.455-0.253c0-0.111-0.038-0.217-0.038-0.293l1.564-9.375
	c0.109-0.51,0.508-0.657,0.907-0.364l7.742,5.524c0.073,0.035,0.146,0.146,0.217,0.182c0.364-0.253,0.801-0.51,1.2-0.799
	C590.885,369.174,590.814,369.067,590.814,368.957 M597.427,359.143c0.328,0.364,0.22,0.621-0.253,0.51l-8.687-1.491
	c-0.473-0.071-1.018-0.546-1.162-1.052l-0.836-2.946c-0.146-0.51,0.144-0.981,0.581-1.127l2.979-0.834
	c0.51-0.146,1.2,0.035,1.491,0.399L597.427,359.143z M583.871,345.26c-0.073-0.253-0.109-0.652-0.144-0.91
	c0-0.253,0.109-0.288,0.326-0.071c0.182,0.217,0.255,0.652,0.146,0.91C584.052,345.477,583.908,345.513,583.871,345.26
	 M583.979,348.894c0.073,0.293-0.036,0.692-0.217,0.91c-0.255,0.182-0.399,0.146-0.364-0.071c0.038-0.257,0.182-0.657,0.255-0.91
	C583.797,348.605,583.908,348.641,583.979,348.894 M584.199,343.117c-0.328-0.399-0.581-1.091-0.619-1.566
	c-0.035-0.47,0.291-0.723,0.763-0.541l0.546,0.177c0.437,0.222,0.654,0.768,0.473,1.202l-0.182,0.546
	C584.962,343.37,584.525,343.481,584.199,343.117 M584.742,346.241c0.182-0.47,0.619-0.51,0.945-0.146l0.364,0.404
	c0.364,0.399,0.328,0.945-0.073,1.304l-0.435,0.364c-0.328,0.328-0.763,0.222-0.909-0.253
	C584.525,347.443,584.563,346.675,584.742,346.241 M586.089,345.149c-0.364-0.324-0.472-1.016-0.291-1.486l0.399-0.945
	c0.217-0.439,0.725-0.657,1.198-0.475l2.473,1.016c0.473,0.222,0.508,0.621,0.144,0.945l-1.963,1.784
	c-0.399,0.328-0.981,0.288-1.271-0.075L586.089,345.149z M585.253,340.389l-0.945-0.399c-0.473-0.182-0.836-0.728-0.872-1.233
	l-0.073-0.985c0-0.506,0.399-0.945,0.872-0.98l2.653-0.146c0.508-0.035,0.763,0.328,0.581,0.768l-1.054,2.471
	C586.233,340.353,585.687,340.57,585.253,340.389 M583.797,351.001c0.328-0.324,0.728-0.217,0.874,0.257l0.182,0.546
	c0.144,0.47-0.146,0.981-0.654,1.127l-0.51,0.142c-0.508,0.146-0.836-0.142-0.763-0.617
	C583.034,351.946,583.398,351.294,583.797,351.001 M583.507,354.054l0.983-0.288c0.473-0.111,0.945,0.182,1.089,0.617l0.763,2.582
	c0.146,0.47-0.144,0.799-0.654,0.728l-2.615-0.475c-0.51-0.106-0.801-0.546-0.763-1.051l0.144-0.985
	C582.562,354.71,583.034,354.2,583.507,354.054 M585.687,351.547l-0.291-0.945c-0.109-0.47,0.073-1.127,0.437-1.491l0.799-0.652
	c0.328-0.328,0.909-0.293,1.236,0.071l1.819,2.001c0.291,0.364,0.182,0.763-0.291,0.91l-2.544,0.723
	C586.342,352.31,585.834,352.022,585.687,351.547 M600.626,347.66c0.473,0.217,0.437,0.47-0.035,0.617l-8.47,2.4
	c-0.473,0.142-1.127-0.075-1.489-0.439l-2.072-2.289c-0.328-0.399-0.291-0.945,0.073-1.309l2.36-2.032
	c0.364-0.364,1.018-0.475,1.491-0.293L600.626,347.66z M589.723,336.467l8.796-0.51c0.473-0.035,0.581,0.182,0.217,0.546
	l-6.577,5.812c-0.399,0.364-1.054,0.475-1.526,0.293l-2.873-1.198c-0.472-0.182-0.69-0.728-0.508-1.162l1.2-2.875
	C588.633,336.901,589.215,336.502,589.723,336.467 M583.797,330.575l7.707-4.286c0.435-0.217,0.617-0.075,0.435,0.399l-3.416,8.141
	c-0.182,0.435-0.725,0.874-1.236,0.874l-3.126,0.177c-0.473,0.04-0.907-0.359-0.945-0.834l-0.144-3.123
	C583.034,331.413,583.398,330.832,583.797,330.575 M582.453,337.811l0.038,0.581c0.035,0.47-0.291,0.728-0.763,0.546
	c-0.473-0.182-0.983-0.692-1.238-1.091c-0.253-0.435-0.035-0.839,0.437-0.839l0.581-0.035
	C582.018,336.937,582.418,337.336,582.453,337.811 M582.599,340.828c0.035,0.288-0.109,0.399-0.255,0.217
	c-0.144-0.182-0.399-0.546-0.508-0.763c-0.146-0.217,0-0.328,0.291-0.217C582.344,340.207,582.599,340.535,582.599,340.828
	 M582.309,335.118c0.036,0.475-0.328,0.91-0.836,0.945l-0.983,0.04c-0.508,0.035-1.125-0.293-1.344-0.728l-0.508-0.874
	c-0.217-0.435-0.073-0.981,0.364-1.233l2.325-1.309c0.473-0.217,0.836-0.035,0.874,0.47L582.309,335.118z M579.146,337.882
	c-0.253-0.111-0.617-0.293-0.799-0.435c-0.217-0.146-0.146-0.293,0.144-0.293c0.328-0.035,0.692,0.182,0.801,0.435
	C579.436,337.846,579.365,337.993,579.146,337.882 M575.947,327.85l5.053-7.196c0.291-0.435,0.546-0.328,0.581,0.146l0.473,8.794
	c0.035,0.51-0.326,1.091-0.763,1.344l-2.726,1.526c-0.435,0.257-0.945,0.111-1.2-0.364l-1.488-2.724
	C575.621,328.942,575.656,328.285,575.947,327.85 M577.692,336.285c-0.508,0.035-1.236-0.182-1.599-0.439
	c-0.399-0.324-0.399-0.728,0.073-0.98l0.472-0.288c0.435-0.222,0.981-0.075,1.198,0.359l0.293,0.51
	C578.382,335.881,578.165,336.245,577.692,336.285 M575.257,330.215l1.273,2.36c0.253,0.399,0.109,0.98-0.291,1.198l-0.909,0.51
	c-0.473,0.217-1.127,0.182-1.526-0.071l-0.801-0.581c-0.435-0.293-0.508-0.874-0.217-1.273l1.526-2.218
	C574.602,329.74,575.039,329.776,575.257,330.215 M574.857,336.467c-0.217,0-0.654,0-0.91-0.075
	c-0.217-0.035-0.217-0.182,0.073-0.328c0.255-0.182,0.654-0.142,0.872,0.04C575.148,336.285,575.148,336.427,574.857,336.467
	 M572.894,335.663c-0.435,0.217-1.198,0.328-1.67,0.257c-0.473-0.075-0.654-0.475-0.364-0.874l0.364-0.47
	c0.291-0.404,0.834-0.51,1.236-0.222l0.473,0.328C573.331,334.976,573.293,335.411,572.894,335.663 M569.079,320.108
	c0.109-0.47,0.364-0.51,0.617-0.106l4.217,7.738c0.255,0.439,0.217,1.127-0.073,1.531l-1.817,2.542
	c-0.291,0.399-0.836,0.51-1.236,0.217l-2.544-1.815c-0.399-0.293-0.654-0.91-0.581-1.42L569.079,320.108z M567.189,331.595
	c0.073-0.51,0.472-0.657,0.872-0.364l2.181,1.562c0.399,0.253,0.51,0.839,0.22,1.238l-0.546,0.834
	c-0.291,0.399-0.945,0.657-1.418,0.581l-1.018-0.182c-0.437-0.071-0.799-0.546-0.728-1.016L567.189,331.595z M570.423,337.008
	c-0.255,0.146-0.581,0.293-0.836,0.364c-0.253,0.04-0.291-0.071-0.109-0.324c0.182-0.257,0.546-0.404,0.836-0.364
	C570.605,336.719,570.64,336.866,570.423,337.008 M567.333,336.174l0.583,0.111c0.508,0.071,0.654,0.47,0.362,0.87
	c-0.291,0.399-0.907,0.839-1.344,0.98c-0.473,0.111-0.799-0.182-0.725-0.688l0.109-0.546
	C566.39,336.427,566.898,336.063,567.333,336.174 M566.681,339.444c-0.182,0.217-0.437,0.51-0.619,0.692
	c-0.182,0.182-0.291,0.035-0.255-0.253c0.038-0.293,0.328-0.621,0.619-0.692C566.716,339.12,566.825,339.226,566.681,339.444
	 M558.138,324.798c-0.109-0.475,0.073-0.617,0.472-0.328l7.161,5.124c0.437,0.257,0.69,0.91,0.619,1.42l-0.546,3.052
	c-0.073,0.51-0.51,0.834-1.018,0.763l-3.052-0.546c-0.51-0.071-1.018-0.546-1.165-1.016L558.138,324.798z M563.917,347.731
	c0.073,0.253,0.146,0.657,0.146,0.91c0.035,0.217-0.146,0.253-0.328,0.035c-0.217-0.217-0.291-0.652-0.18-0.91
	C563.664,347.478,563.846,347.478,563.917,347.731 M563.772,344.022c-0.073-0.253,0.036-0.652,0.255-0.87
	c0.217-0.182,0.362-0.146,0.291,0.106c-0.038,0.257-0.146,0.657-0.22,0.874C564.027,344.351,563.881,344.315,563.772,344.022
	 M563.555,349.839c0.326,0.364,0.617,1.056,0.617,1.562c0.035,0.475-0.291,0.728-0.763,0.51l-0.546-0.182
	c-0.435-0.217-0.654-0.728-0.473-1.198l0.22-0.51C562.79,349.55,563.227,349.475,563.555,349.839 M563.009,346.715
	c-0.182,0.435-0.581,0.506-0.91,0.106l-0.399-0.399c-0.326-0.364-0.326-0.945,0.073-1.273l0.435-0.359
	c0.364-0.328,0.763-0.222,0.91,0.217C563.262,345.513,563.227,346.276,563.009,346.715 M561.918,343.805l-0.763,0.657
	c-0.364,0.364-0.945,0.328-1.271-0.075l-1.817-1.961c-0.293-0.399-0.182-0.799,0.291-0.945l2.58-0.728
	c0.437-0.146,0.981,0.146,1.127,0.617l0.291,0.985C562.499,342.824,562.282,343.481,561.918,343.805 M561.046,347.039l0.654,0.728
	c0.326,0.364,0.437,1.056,0.255,1.491l-0.401,0.945c-0.18,0.435-0.69,0.657-1.198,0.475l-2.436-1.02
	c-0.473-0.182-0.546-0.617-0.182-0.91l1.999-1.779C560.101,346.604,560.682,346.64,561.046,347.039 M562.572,352.567l0.872,0.364
	c0.51,0.177,0.874,0.723,0.874,1.233l0.071,0.98c0.038,0.51-0.326,0.945-0.834,0.98l-2.653,0.146
	c-0.546,0.035-0.765-0.328-0.583-0.763l1.018-2.471C561.518,352.567,562.1,352.345,562.572,352.567 M564.027,341.955
	c-0.401,0.324-0.801,0.217-0.945-0.257l-0.182-0.546c-0.146-0.506,0.144-0.98,0.654-1.127l0.543-0.142
	c0.437-0.146,0.801,0.142,0.692,0.617C564.717,340.97,564.354,341.662,564.027,341.955 M564.245,338.898l-0.945,0.257
	c-0.51,0.146-0.983-0.146-1.127-0.621l-0.763-2.578c-0.146-0.475,0.144-0.799,0.654-0.728l2.615,0.475
	c0.51,0.106,0.836,0.541,0.765,1.052l-0.182,0.98C565.19,338.21,564.717,338.756,564.245,338.898 M550.325,333.773
	c-0.328-0.364-0.22-0.617,0.253-0.506l8.687,1.491c0.473,0.106,1.018,0.541,1.165,1.051l0.834,2.981
	c0.146,0.47-0.144,0.945-0.581,1.091l-3.017,0.87c-0.472,0.146-1.127-0.071-1.453-0.435L550.325,333.773z M547.161,345.26
	c-0.472-0.182-0.472-0.435,0.038-0.581l8.432-2.4c0.508-0.146,1.127,0.035,1.491,0.439l2.07,2.289
	c0.364,0.364,0.328,0.945-0.071,1.269l-2.327,2.072c-0.326,0.328-1.054,0.439-1.526,0.257L547.161,345.26z M558.067,356.454
	L549.271,357c-0.473,0-0.583-0.253-0.22-0.581l6.58-5.817c0.399-0.328,1.054-0.435,1.491-0.288l2.906,1.198
	c0.473,0.217,0.692,0.728,0.473,1.162l-1.162,2.91C559.12,356.019,558.539,356.418,558.067,356.454 M563.954,362.341l-7.669,4.255
	c-0.437,0.253-0.654,0.071-0.437-0.399l3.381-8.106c0.217-0.439,0.763-0.874,1.271-0.874l3.09-0.182
	c0.508-0.035,0.91,0.328,0.945,0.839l0.182,3.088C564.717,361.472,564.389,362.089,563.954,362.341 M565.117,348.641
	c-0.109-0.364-0.217-0.91-0.217-1.273c-0.038-0.364-0.109-0.692-0.182-0.692c-0.109,0.04-0.217-0.142-0.291-0.359
	c-0.073-0.222-0.038-0.546,0.036-0.763c0.109-0.222,0.255-0.364,0.328-0.364c0.071,0.035,0.182-0.222,0.253-0.581
	c0.073-0.364,0.22-0.91,0.364-1.238c0.146-0.328,0.217-0.652,0.109-0.652c-0.071-0.04-0.109-0.257-0.071-0.475
	c0.035-0.217,0.18-0.51,0.326-0.652c0.182-0.182,0.399-0.257,0.437-0.222c0.071,0.075,0.291-0.142,0.508-0.399
	c0.182-0.288,0.581-0.723,0.836-0.981c0.291-0.253,0.473-0.51,0.435-0.546c-0.071-0.071,0-0.288,0.111-0.47
	c0.144-0.146,0.435-0.364,0.617-0.439c0.217-0.035,0.437-0.035,0.473,0.04c0.035,0.071,0.328,0,0.619-0.182
	c0.326-0.182,0.834-0.399,1.198-0.51c0.364-0.071,0.654-0.217,0.619-0.328c0-0.071,0.109-0.217,0.291-0.324
	c0.182-0.111,0.546-0.182,0.763-0.146s0.399,0.146,0.437,0.253c0,0.075,0.253,0.111,0.617,0.075c0.364,0,0.945,0.035,1.273,0.071
	c0.362,0.071,0.69,0.071,0.69-0.035c0.036-0.075,0.217-0.146,0.435-0.146c0.182-0.035,0.546,0.071,0.728,0.182
	c0.182,0.146,0.291,0.328,0.291,0.399c-0.035,0.071,0.182,0.253,0.546,0.364c0.291,0.146,0.799,0.435,1.127,0.652
	c0.291,0.182,0.546,0.328,0.581,0.257c0.073-0.075,0.291-0.075,0.472,0c0.217,0.107,0.473,0.324,0.581,0.506
	c0.109,0.222,0.146,0.404,0.073,0.475c-0.038,0.071,0.109,0.328,0.326,0.581c0.255,0.293,0.581,0.763,0.763,1.056
	c0.182,0.324,0.364,0.541,0.437,0.506c0.073-0.035,0.255,0.075,0.399,0.217c0.146,0.182,0.291,0.475,0.291,0.692
	c0,0.253-0.035,0.435-0.144,0.475c-0.073,0-0.073,0.324,0.035,0.652c0.109,0.399,0.217,0.945,0.217,1.309
	c0.038,0.328,0.146,0.617,0.22,0.617c0.073,0,0.182,0.182,0.253,0.364c0.073,0.217,0.038,0.581-0.036,0.763
	c-0.073,0.217-0.217,0.364-0.326,0.364c-0.073-0.035-0.22,0.253-0.255,0.617c-0.073,0.399-0.255,0.945-0.364,1.238
	c-0.109,0.328-0.144,0.617-0.073,0.652c0.038,0.035,0.073,0.257,0.038,0.475c0,0.217-0.182,0.506-0.328,0.652
	c-0.182,0.146-0.364,0.217-0.435,0.182c-0.073-0.035-0.328,0.146-0.546,0.439c-0.217,0.324-0.581,0.723-0.836,0.981
	c-0.255,0.217-0.437,0.47-0.399,0.546c0.073,0.036,0,0.253-0.146,0.435c-0.109,0.182-0.364,0.364-0.581,0.435
	c-0.217,0.075-0.435,0.035-0.473-0.035c-0.035-0.071-0.326,0.035-0.654,0.217c-0.291,0.182-0.836,0.364-1.198,0.475
	c-0.328,0.106-0.583,0.253-0.546,0.324c0.035,0.075-0.109,0.222-0.328,0.328c-0.182,0.111-0.544,0.182-0.763,0.146
	c-0.217-0.035-0.399-0.146-0.399-0.253c0-0.04-0.291-0.111-0.654-0.075c-0.399,0-0.945-0.035-1.309-0.071
	c-0.326-0.075-0.654-0.035-0.654,0.035s-0.217,0.146-0.399,0.146c-0.255,0.035-0.581-0.075-0.763-0.182
	c-0.182-0.146-0.291-0.328-0.255-0.399c0-0.075-0.217-0.222-0.544-0.364c-0.328-0.146-0.836-0.439-1.165-0.621
	c-0.253-0.217-0.544-0.324-0.581-0.253c-0.036,0.075-0.253,0.035-0.473-0.035c-0.217-0.111-0.473-0.328-0.581-0.51
	c-0.109-0.217-0.144-0.435-0.109-0.47c0.073-0.075-0.036-0.293-0.255-0.546c-0.253-0.293-0.581-0.763-0.763-1.091
	c-0.182-0.288-0.399-0.51-0.473-0.47c-0.073,0.035-0.217-0.075-0.364-0.257c-0.182-0.146-0.291-0.47-0.326-0.688
	c0-0.222,0.035-0.439,0.144-0.475C565.225,349.258,565.19,348.969,565.117,348.641 M581.945,353.073
	c-0.073,0.257-0.328,0.581-0.619,0.657c-0.326,0.106-0.435,0-0.291-0.217c0.146-0.182,0.437-0.51,0.619-0.657
	C581.872,352.674,581.981,352.749,581.945,353.073 M578.274,355.873c-0.182,0.253-0.546,0.435-0.836,0.364
	c-0.291-0.035-0.364-0.182-0.144-0.293c0.217-0.142,0.581-0.288,0.836-0.359C578.382,355.509,578.456,355.655,578.274,355.873
	 M576.856,357.874l-0.326,0.47c-0.291,0.399-0.836,0.51-1.236,0.217l-0.473-0.324c-0.364-0.293-0.364-0.728,0.036-0.945
	c0.437-0.257,1.2-0.364,1.635-0.293C577.003,357.111,577.147,357.51,576.856,357.874 M573.73,356.853
	c-0.255,0.146-0.617,0.146-0.872-0.035c-0.255-0.182-0.255-0.328,0-0.364c0.255,0,0.617,0.035,0.872,0.075
	C574.021,356.565,574.021,356.707,573.73,356.853 M571.623,358.056l-0.51,0.288c-0.435,0.217-0.945,0.075-1.198-0.364l-0.291-0.506
	c-0.255-0.439-0.038-0.803,0.472-0.839c0.473-0.035,1.198,0.182,1.599,0.475C572.058,357.399,572.022,357.834,571.623,358.056
	 M569.26,355.762c-0.328,0.04-0.654-0.177-0.801-0.435c-0.144-0.253-0.071-0.399,0.182-0.288c0.22,0.106,0.581,0.288,0.763,0.435
	C569.624,355.62,569.551,355.762,569.26,355.762 M565.445,351.911c0.18,0.217,0.399,0.546,0.508,0.763
	c0.109,0.217,0,0.293-0.291,0.182c-0.255-0.106-0.51-0.435-0.51-0.728C565.117,351.804,565.263,351.729,565.445,351.911
	 M565.334,355.11l-0.036-0.546c-0.035-0.51,0.326-0.763,0.728-0.581c0.473,0.182,1.054,0.692,1.271,1.127
	c0.217,0.435,0,0.763-0.472,0.799l-0.581,0.035C565.736,355.984,565.334,355.584,565.334,355.11 M565.445,357.834
	c0-0.506,0.326-0.945,0.872-0.981l0.98-0.035c0.473-0.035,1.091,0.293,1.344,0.728l0.472,0.874c0.22,0.435,0.073,0.98-0.399,1.233
	l-2.289,1.273c-0.437,0.253-0.801,0.071-0.836-0.439L565.445,357.834z M571.805,365.07l-5.053,7.156
	c-0.291,0.439-0.543,0.364-0.581-0.142l-0.473-8.798c0-0.47,0.328-1.091,0.763-1.309l2.726-1.526
	c0.437-0.253,0.981-0.106,1.236,0.364l1.491,2.729C572.131,363.943,572.096,364.671,571.805,365.07 M572.495,362.705l-1.271-2.36
	c-0.255-0.399-0.111-0.985,0.362-1.238l0.836-0.47c0.437-0.217,1.127-0.182,1.526,0.071l0.801,0.581
	c0.399,0.293,0.508,0.874,0.217,1.273l-1.526,2.178C573.185,363.14,572.75,363.14,572.495,362.705 M578.638,372.772
	c-0.073,0.51-0.328,0.546-0.581,0.111l-4.217-7.707c-0.253-0.435-0.217-1.127,0.073-1.526l1.817-2.542
	c0.291-0.399,0.836-0.51,1.236-0.217l2.509,1.815c0.435,0.293,0.69,0.91,0.617,1.42L578.638,372.772z M580.563,361.325
	c-0.073,0.47-0.473,0.652-0.907,0.364l-2.145-1.562c-0.399-0.257-0.508-0.839-0.217-1.273l0.544-0.799
	c0.293-0.404,0.945-0.657,1.418-0.581l0.983,0.177c0.508,0.111,0.836,0.546,0.725,1.056L580.563,361.325z M580.419,356.747
	l-0.581-0.075c-0.51-0.106-0.654-0.47-0.402-0.91c0.291-0.359,0.91-0.834,1.347-0.945c0.508-0.142,0.834,0.146,0.763,0.657
	l-0.111,0.546C581.364,356.489,580.854,356.853,580.419,356.747 M589.106,368.446l-7.125-5.124c-0.435-0.288-0.69-0.945-0.617-1.415
	l0.544-3.052c0.073-0.475,0.51-0.839,1.018-0.728l3.052,0.51c0.51,0.106,1.018,0.581,1.127,1.016l2.509,8.47
	C589.758,368.593,589.541,368.739,589.106,368.446"/>
<path fill="#763C33" d="M569.3,336.963c5.269-2.542,11.558-0.324,14.1,4.907c2.509,5.271,0.293,11.558-4.942,14.104
	c-5.269,2.542-11.558,0.328-14.102-4.907C561.849,345.797,564.03,339.475,569.3,336.963"/>
<path fill="#F5A200" d="M478.543,392.44c-7.307,0-13.23-5.923-13.23-13.226v-81.959c0-7.307,5.923-13.23,13.23-13.23
	c7.305,0,13.228,5.923,13.228,13.23v81.959C491.771,386.517,485.848,392.44,478.543,392.44"/>
</svg>
