<?xml version="1.0" encoding="utf-8"?>
<!-- Generator: Adobe Illustrator 27.0.1, SVG Export Plug-In . SVG Version: 6.00 Build 0)  -->
<svg version="1.1" id="레이어_1" xmlns="http://www.w3.org/2000/svg" xmlns:xlink="http://www.w3.org/1999/xlink" x="0px"
	 y="0px" viewBox="0 0 720 300.283" enable-background="new 0 0 720 300.283" xml:space="preserve">
<g>
	<defs>
		<path id="SVGID_1_" d="M327.737,78.138c0-20.355,16.59-36.912,36.912-36.912c20.353,0,36.849,16.557,36.849,36.912
			c0,20.32-16.496,36.847-36.849,36.847C344.327,114.985,327.737,98.459,327.737,78.138 M325.98,78.138
			c0,21.293,17.311,38.669,38.669,38.669c21.295,0,38.667-17.376,38.667-38.669c0-21.358-17.373-38.7-38.667-38.7
			C343.292,39.439,325.98,56.78,325.98,78.138"/>
	</defs>
	<clipPath id="SVGID_00000109745043380643966310000006684244738740513963_">
		<use xlink:href="#SVGID_1_"  overflow="visible"/>
	</clipPath>
	
		<linearGradient id="SVGID_00000132086871501913407540000012442371234624078015_" gradientUnits="userSpaceOnUse" x1="-552.9878" y1="1233.9373" x2="-521.6205" y2="1233.9373" gradientTransform="matrix(0 2.4667 2.4667 0 -2679.0681 1403.4762)">
		<stop  offset="0" style="stop-color:#D7000F"/>
		<stop  offset="0.2" style="stop-color:#D7000F"/>
		<stop  offset="0.296" style="stop-color:#D9090E"/>
		<stop  offset="0.4527" style="stop-color:#DD210B"/>
		<stop  offset="0.6504" style="stop-color:#E54906"/>
		<stop  offset="0.85" style="stop-color:#EE7800"/>
		<stop  offset="1" style="stop-color:#EE7800"/>
	</linearGradient>
	
		<rect x="325.978" y="39.439" clip-path="url(#SVGID_00000109745043380643966310000006684244738740513963_)" fill="url(#SVGID_00000132086871501913407540000012442371234624078015_)" width="77.336" height="77.373"/>
</g>
<g>
	<defs>
		<path id="SVGID_00000112598302336331242910000016396253495547869315_" d="M362.327,131.42c0,1.16,0.879,2.102,1.977,2.102
			c1.097,0,2.006-0.972,2.006-2.102c0-1.191-0.909-2.102-2.006-2.102C363.206,129.318,362.327,130.26,362.327,131.42
			 M335.828,123.453c-0.595,1.003-0.281,2.289,0.658,2.791c1.003,0.567,2.226,0.188,2.823-0.846
			c0.565-1.003,0.251-2.259-0.691-2.791c-0.314-0.188-0.628-0.249-0.94-0.249C336.958,122.358,336.236,122.764,335.828,123.453
			 M390.052,122.358c-0.942,0.532-1.254,1.784-0.691,2.791c0.565,1.003,1.851,1.378,2.793,0.846
			c0.972-0.532,1.284-1.818,0.689-2.825c-0.408-0.689-1.097-1.064-1.818-1.064C390.71,122.106,390.366,122.167,390.052,122.358
			 M316.886,103.102c-1.003,0.593-1.348,1.849-0.846,2.791c0.565,1.003,1.788,1.286,2.821,0.72c1.005-0.597,1.38-1.88,0.815-2.791
			c-0.345-0.658-1.003-1.003-1.694-1.003C317.608,102.819,317.231,102.911,316.886,103.102 M408.617,103.569
			c-0.501,1.007-0.157,2.228,0.879,2.825c0.942,0.593,2.259,0.283,2.76-0.658c0.532-0.972,0.157-2.228-0.848-2.825
			c-0.345-0.218-0.72-0.31-1.097-0.31C409.622,102.601,408.994,102.945,408.617,103.569 M320.619,77.855v-0.031V77.855z
			 M415.14,78.108c0.031,1.095,0.942,2.006,2.102,2.006c1.129,0,2.069-0.911,2.069-1.975c-0.031-1.099-1.003-2.01-2.132-2.01
			S415.14,77.04,415.14,78.108 M308.732,77.886c0,1.099,0.909,2.01,2.102,2.01c1.16-0.034,2.069-0.911,2.069-2.01
			c0-1.129-0.94-2.006-2.132-2.006C309.641,75.88,308.732,76.821,308.732,77.886 M408.961,49.568
			c-0.626,0.345-1.003,1.003-1.066,1.631c-0.031,0.375,0.033,0.785,0.251,1.16c0.534,0.942,1.788,1.256,2.793,0.689
			c0.689-0.406,1.066-1.129,1.003-1.849c0-0.314-0.063-0.628-0.188-0.942c-0.377-0.628-1.066-0.972-1.757-0.972
			C409.622,49.285,409.275,49.38,408.961,49.568 M316.04,50.227c-0.565,0.972-0.157,2.259,0.846,2.821
			c1.003,0.567,2.289,0.253,2.791-0.72c0.565-0.972,0.19-2.197-0.815-2.76c-0.345-0.218-0.752-0.314-1.129-0.314
			C317.043,49.254,316.354,49.599,316.04,50.227 M336.206,30.094c-0.972,0.532-1.256,1.788-0.658,2.791
			c0.595,0.972,1.818,1.348,2.821,0.815c0.942-0.536,1.254-1.788,0.658-2.76c-0.408-0.724-1.129-1.099-1.851-1.099
			C336.831,29.841,336.517,29.937,336.206,30.094 M404.007,29.527c-0.597,0.375-0.972,0.972-1.003,1.631
			c-0.063,0.375,0.031,0.754,0.218,1.129c0.565,0.972,1.788,1.286,2.791,0.72c0.691-0.406,1.036-1.126,1.036-1.849
			c-0.031-0.345-0.063-0.658-0.251-0.942c-0.345-0.624-1.036-0.972-1.725-0.972C404.697,29.244,404.352,29.34,404.007,29.527
			 M362.611,25.014c0.031,1.126,0.909,2.037,2.039,2.037c1.097,0,1.945-0.877,1.945-2.006c0-1.16-0.879-2.102-1.977-2.102
			C363.52,22.943,362.611,23.85,362.611,25.014 M359.6,131.45c0-2.76,2.132-4.954,4.705-4.954c2.571,0,4.672,2.194,4.672,4.923
			c0.031,2.73-2.069,4.923-4.672,4.923S359.6,134.149,359.6,131.45 M335.044,128.755c-2.257-1.256-2.978-4.265-1.631-6.619
			c1.413-2.416,4.36-3.292,6.65-2.006c2.257,1.256,2.978,4.234,1.598,6.585c-0.94,1.661-2.664,2.634-4.358,2.634
			C336.517,129.349,335.765,129.161,335.044,128.755 M387.01,126.497c-1.349-2.416-0.597-5.363,1.661-6.619
			c2.226-1.286,5.174-0.436,6.554,1.975c1.38,2.354,0.658,5.363-1.631,6.65c-0.689,0.41-1.474,0.597-2.226,0.597
			C389.644,129.1,387.95,128.158,387.01,126.497 M313.561,107.367c-1.284-2.289-0.375-5.237,2.008-6.619
			c2.352-1.378,5.3-0.628,6.586,1.631c1.284,2.259,0.408,5.206-1.945,6.588c-0.815,0.502-1.725,0.72-2.603,0.72
			C315.977,109.687,314.409,108.871,313.561,107.367 M408.115,108.776c-2.352-1.409-3.199-4.357-1.975-6.615
			c1.317-2.259,4.234-2.978,6.617-1.6c2.352,1.348,3.262,4.33,1.975,6.619c-0.815,1.474-2.383,2.32-4.045,2.32
			C409.84,109.499,408.931,109.246,408.115,108.776 M417.272,82.778c-2.697,0-4.892-2.102-4.923-4.67
			c0-2.573,2.163-4.674,4.829-4.674c2.697,0,4.923,2.102,4.956,4.705c0.031,2.538-2.132,4.64-4.799,4.64
			C417.305,82.778,417.305,82.778,417.272,82.778 M305.878,77.916c0-2.599,2.165-4.701,4.892-4.701c2.76,0,4.956,2.067,4.956,4.64
			s-2.195,4.736-4.892,4.736c0,0-0.031,0-0.063,0C308.074,82.59,305.878,80.519,305.878,77.916 M405.763,53.706
			c-0.314-0.563-0.502-1.16-0.565-1.757c-0.188-1.784,0.691-3.667,2.385-4.701c2.351-1.317,5.298-0.597,6.521,1.661
			c0.44,0.689,0.628,1.443,0.628,2.194c0,1.661-0.879,3.357-2.477,4.234c-0.785,0.471-1.631,0.658-2.446,0.658
			C408.178,55.996,406.611,55.18,405.763,53.706 M315.569,55.402c-2.416-1.351-3.355-4.299-2.069-6.588
			c1.284-2.259,4.295-3.009,6.678-1.631c2.385,1.351,3.262,4.299,1.977,6.554c-0.815,1.508-2.416,2.324-4.077,2.324
			C317.231,56.061,316.354,55.839,315.569,55.402 M333.162,34.201c-1.38-2.32-0.689-5.333,1.6-6.588
			c2.259-1.282,5.268-0.375,6.617,2.01c1.348,2.32,0.658,5.268-1.6,6.523c-0.689,0.406-1.474,0.593-2.226,0.593
			C335.828,36.74,334.104,35.832,333.162,34.201 M400.84,33.635c-0.314-0.532-0.501-1.16-0.565-1.753
			c-0.22-1.788,0.691-3.671,2.416-4.674c2.32-1.348,5.237-0.628,6.523,1.631c0.375,0.689,0.595,1.443,0.595,2.194
			c0,1.696-0.879,3.357-2.479,4.234c-0.783,0.471-1.629,0.658-2.444,0.658C403.255,35.924,401.686,35.109,400.84,33.635
			 M359.944,24.979c-0.031-2.695,2.071-4.858,4.672-4.858c2.573,0.031,4.674,2.194,4.674,4.923c0,2.664-2.102,4.827-4.642,4.827
			S359.944,27.678,359.944,24.979 M385.567,8.169c-0.438,0.379-1.661,0.253-2.854,0.157c-1.192-0.123-2.383-0.218-2.823,0.096
			c0,0-2.758,10.6-1.943,10.884c0.846,0.279,5.331-5.616,5.331-5.616s-2.102,8.093-1.411,8.311c0.626,0.283,4.452-5.394,4.452-5.394
			c-0.815,2.259-2.195,8.908-1.474,9.065c0.691,0.123,2.73-3.139,4.391-4.644c-0.094,2.446-0.157,3.671-0.251,6.118
			c3.888,4.077,5.865,6.114,9.752,10.095c0,0-11.571-5.739-13.893-1.566c-2.697,4.984-7.339,1.286-7.903-0.501
			c-0.532-1.818-0.408-5.019-0.408-5.019s-3.763,3.859-1.317,8.939c-1.725,2.507-6.334,1.818-6.116,2.664
			c0.283,0.815,4.485,1.443,8.217,0.911c0.408,2.76-3.669,6.554-3.355,7.086c0.345,0.563,4.799-0.188,6.179-1.914
			c1.348-1.753,2.508-3.886,2.508-3.886s2.573-3.109,4.768-0.754c2.195,2.351,1.504,4.705,1.725,5.551
			c0.218,0.846,1.003-0.501,1.882-3.292c0.909-2.668,3.606,0.031,3.826,0.218c0-0.283,0.595-2.477,1.725-2.852
			c0.94,0.846,1.818,1.753,2.664,2.664c0.033,0,0.033-0.031,0.033-0.031c0.408,0.471,0.879,0.938,1.286,1.378
			c-0.879,2.634-0.628,5.677,0.658,8.437c0.124,0.249,0.251,0.563,0.438,0.846c1.694,2.948,4.485,4.892,7.369,5.52
			c0.501,1.286,0.879,2.603,1.256,3.92h-0.033c0.377,1.317,0.722,2.695,0.942,4.012c-2.008,1.822-3.325,4.548-3.606,7.591
			c0,0.283-0.033,0.593-0.033,0.942c0.033,3.449,1.506,6.523,3.796,8.529c-0.189,1.191-0.785,3.51-0.785,3.51
			c-0.345,1.351-0.722,2.699-1.192,3.985c-2.664,0.563-5.174,2.224-6.898,4.766c-0.188,0.283-0.345,0.532-0.501,0.815h-0.033
			c-1.692,3.009-1.975,6.458-0.97,9.375c-1.036,1.225-2.134,2.354-3.262,3.449c0,0-1.38,1.443-2.102,2.071
			c-2.634-0.877-5.739-0.628-8.531,0.597c-0.251,0.123-0.563,0.249-0.846,0.436c-2.978,1.727-4.956,4.517-5.614,7.496
			c-1.474,0.567-2.978,1.037-4.485,1.413c0,0-2.163,0.597-3.229,0.785c-1.818-2.04-4.611-3.419-7.653-3.671
			c-0.314-0.031-0.595-0.061-0.94-0.061c-3.482,0.031-6.523,1.474-8.594,3.733c-1.191-0.188-2.383-0.502-3.606-0.815
			c-1.348-0.345-2.697-0.689-4.014-1.16c-0.532-2.699-2.289-5.206-4.799-6.964c-0.251-0.157-0.532-0.345-0.783-0.502
			c-3.042-1.727-6.46-1.975-9.408-1.034c-1.193-1.007-3.451-3.17-3.482-3.139c-0.785-0.815-1.505-1.596-2.195-2.412
			c0.846-2.634,0.628-5.742-0.595-8.564c-0.126-0.283-0.283-0.563-0.44-0.846c-1.755-3.009-4.546-4.984-7.463-5.612
			c-0.438-1.225-1.129-3.798-1.129-3.798c-0.345-1.348-0.658-2.695-0.94-4.043c2.069-1.853,3.449-4.613,3.7-7.653
			c0.063-0.314,0.063-0.628,0.063-0.942c0-3.48-1.474-6.554-3.763-8.56c0.218-1.225,0.846-3.545,0.846-3.545
			c0.377-1.348,0.785-2.664,1.223-3.951c2.666-0.597,5.27-2.289,6.962-4.862c0.189-0.218,0.377-0.501,0.534-0.815
			c1.725-3.009,1.975-6.397,1.003-9.314c1.003-1.191,3.231-3.419,3.231-3.419c0.689-0.72,1.441-1.378,2.194-2.006
			c2.666,0.877,5.771,0.628,8.531-0.628c0.281-0.126,0.595-0.253,0.879-0.41c3.011-1.723,4.954-4.483,5.551-7.4
			c1.38-0.502,4.234-1.16,4.234-1.16c1.348-0.345,2.664-0.658,4.045-0.877c1.818,2.067,4.829,3.51,7.871,3.824
			c1.005,0.096,2.259,0.253,4.424-0.314c2.226-0.597,3.731-1.535,5.017-3.135c0.595-0.658,1.129-1.382,1.504-2.197
			c5.427,0.096,10.851,1.822,15.964,3.013c-3.292-3.606-10.821-7.496-15.65-9.816c0-0.065-0.031-0.096-0.061-0.157
			c-0.597-2.071-1.883-3.828-3.608-5.049c-2.351-2.791-5.143-6.523-6.774-12.292c-0.312,0-0.501,0-0.846,0
			c-1.975,7.339-5.675,11.351-8.154,14.329c-0.532,0.597-0.972,1.321-1.286,2.04c-3.449,0.563-6.835,1.348-10.16,2.477
			c-0.689-0.502-1.443-0.942-2.259-1.221c-0.408-0.126-0.815-0.283-1.223-0.41c-3.669-1.286-8.717-3.105-13.923-8.185
			c-0.314,0.188-0.408,0.283-0.752,0.44c2.069,7.461,0.94,12.794,0.345,16.653c0,0.061-0.031,0.092-0.031,0.157v0.218
			c-0.126,0.754-0.157,1.535-0.096,2.32c-1.066,0.911-2.132,1.883-3.198,2.886l0.033,0.061c-0.691,0.689-1.413,1.413-2.071,2.102
			c-0.501,0.597-1.066,1.16-1.537,1.788c-0.94-0.126-1.849-0.096-2.791,0.061c-0.658,0.096-1.254,0.253-1.882,0.44
			c-3.731,0.72-8.686,1.504-15.179-0.218c-0.188,0.314-0.281,0.471-0.408,0.785c4.736,4.64,6.807,9.031,8.154,12.48
			c0.157,0.72,0.345,1.348,0.597,2.006c0.345,0.88,0.783,1.696,1.348,2.416c-0.251,0.72-0.502,1.413-0.689,2.163
			c-0.157,0.379-0.251,0.689-0.314,1.068c-0.094,0.249-0.189,0.501-0.251,0.75h0.031c-0.063,0.253-0.157,0.471-0.188,0.693
			l-0.033-0.034c-0.375,1.57-0.752,3.074-1.034,4.674c-0.754,0.314-1.474,0.785-2.132,1.348c-2.98,2.477-7.057,6.588-14.427,8.656
			v0.881c7.025,1.88,11.069,5.298,14.019,7.775c0.124,0.157,0.312,0.283,0.438,0.41c0.658,0.532,1.38,0.972,2.132,1.317
			c0.094,0.72,0.283,1.443,0.408,2.163c0.251,1.003,0.471,2.006,0.752,3.013c0,0-0.031,0-0.031,0.031
			c0.377,1.504,0.846,3.04,1.411,4.548c-0.501,0.658-0.94,1.439-1.223,2.224c-1.38,3.702-2.978,9.345-8.623,15.053
			c0.124,0.283,0.218,0.44,0.375,0.754c7.683-2.102,13.11-0.911,16.997-0.218c0.785,0.123,1.663,0.123,2.479,0.031
			c0.909,1.129,1.912,2.194,2.915,3.231c1.192,1.191,2.416,2.351,3.733,3.48c0.031-0.031,0.063-0.031,0.094-0.061
			c0.157,0.092,0.251,0.249,0.408,0.375c-0.124,0.846-0.124,1.692,0.063,2.538c0.658,3.889,2.163,9.506,0.063,17.189
			c0.281,0.157,0.471,0.279,0.783,0.436c5.708-5.769,11.041-7.526,14.741-8.97c0.783-0.279,1.537-0.72,2.226-1.221
			c0.534,0.188,1.036,0.375,1.568,0.532c2.603,0.846,5.237,1.539,7.903,2.006c0.345,0.754,0.785,1.474,1.286,2.132
			c0.251,0.222,0.438,0.471,0.658,0.693c2.54,2.948,6.146,6.929,8.028,13.766c0.345-0.031,0.534-0.031,0.879-0.031
			c2.039-7.369,5.739-11.477,8.248-14.459c0.532-0.658,0.972-1.348,1.317-2.132c1.411-0.218,2.823-0.563,4.203-0.877v-0.065
			c1.661-0.436,3.26-0.938,4.891-1.504c0.189-0.092,0.377-0.126,0.565-0.188c0.565,0.41,1.162,0.754,1.82,1.034
			c0.157,0.034,0.281,0.126,0.408,0.157c3.7,1.413,9.282,2.948,14.896,8.656c0.314-0.188,0.471-0.249,0.752-0.436
			c-2.039-7.683-0.815-13.112-0.157-16.997c0.157-0.815,0.157-1.665,0.094-2.542c1.099-0.877,2.165-1.88,3.168-2.852
			c0,0-0.031-0.034-0.063-0.065c1.319-1.252,2.509-2.538,3.702-3.951c0.879,0.126,1.849,0.126,2.728-0.031
			c0.658-0.126,1.317-0.283,1.975-0.471c3.733-0.689,8.562-1.348,14.928,0.345c0.126-0.283,0.251-0.471,0.377-0.785
			c-4.517-4.548-6.523-8.843-7.903-12.262c-0.188-0.815-0.408-1.631-0.689-2.381c-0.346-0.88-0.785-1.696-1.319-2.416
			c0.471-1.57,0.911-3.074,1.319-4.644c0.345-1.535,0.689-3.07,0.94-4.64c0.722-0.345,1.443-0.815,2.102-1.348
			c2.948-2.477,6.962-6.523,14.3-8.499c0-0.345-0.031-0.567-0.031-0.88c-6.586-1.818-10.539-4.954-13.454-7.369
			c-0.345-0.314-0.628-0.658-0.972-0.942c-0.658-0.532-1.38-0.972-2.165-1.317c-0.595-3.323-1.474-6.554-2.634-9.72
			c0.251-0.375,0.44-0.724,0.658-1.129c0.157-0.345,0.345-0.689,0.471-1.034c1.286-3.606,2.76-9.157,8.217-14.616
			c-0.19-0.314-0.283-0.471-0.44-0.785c-3.92,1.037-7.182,1.194-10.003,1.003c-1.317-1.064-2.416-2.948,0.157-5.547
			c2.915-2.952,3.794-2.481,5.455-2.856c4.925-1.034,10.633,2.917,10.633,2.917c0.218-0.218,0.345-0.345,0.565-0.567l-8.437-8.028
			c-7.463,1.351-6.146,0.658-8.342,1.099c-2.163,0.44-4.548,1.317-4.548,1.317s-0.626-3.419,1.256-5.019
			c1.034-0.877,1.191-1.221,3.449-2.507c2.102-1.191,9.408-2.446,9.408-2.446c-0.094-0.188-0.124-0.314-0.188-0.532
			c-5.457-0.689-8.154-1.037-13.485-1.727c-2.887,1.853-4.297,2.791-7.151,4.579c0,0-1.191-1.88-0.218-6.554
			c1.378-2.385,6.898-3.074,7.025-3.135c0.155-0.096,0.031-0.532,0.031-0.532c-1.003-0.126-1.537-0.191-2.477-0.283
			c-3.074,0.126-4.579,0.218-7.559,0.345c-1.788,2.821-2.728,4.234-4.485,7.025c0,0-0.815,1.818-4.452-2.791
			c-1.851-4.609-1.38-6.462-1.38-6.462s1.254-3.323,4.893-6.489c0.157-0.126,0.157-0.191,0.061-0.191
			C396.355,3.277,385.567,8.169,385.567,8.169"/>
	</defs>
	<clipPath id="SVGID_00000051366989364016130060000002260243527100726713_">
		<use xlink:href="#SVGID_00000112598302336331242910000016396253495547869315_"  overflow="visible"/>
	</clipPath>
	
		<linearGradient id="SVGID_00000035518016519596689330000016924325339322484152_" gradientUnits="userSpaceOnUse" x1="-567.8619" y1="1233.2051" x2="-536.4918" y2="1233.2051" gradientTransform="matrix(0 4.7358 4.7358 0 -5476.2529 2692.5554)">
		<stop  offset="0" style="stop-color:#D7000F"/>
		<stop  offset="0.2" style="stop-color:#D7000F"/>
		<stop  offset="0.296" style="stop-color:#D9090E"/>
		<stop  offset="0.4527" style="stop-color:#DD210B"/>
		<stop  offset="0.6504" style="stop-color:#E54906"/>
		<stop  offset="0.85" style="stop-color:#EE7800"/>
		<stop  offset="1" style="stop-color:#EE7800"/>
	</linearGradient>
	
		<rect x="290.414" y="3.277" clip-path="url(#SVGID_00000051366989364016130060000002260243527100726713_)" fill="url(#SVGID_00000035518016519596689330000016924325339322484152_)" width="147.083" height="148.563"/>
</g>
<g>
	<defs>
		<path id="SVGID_00000096751141894943274970000000985482920229291958_" d="M223.806,175.827c-6.46,2.917-9.188,4.138-11.917,3.92
			c-1.912-0.126-5.895-1.631-9.846-6.305c-0.534,1.505-1.099,3.231-1.099,5.961c0,10.819,14.49,17.843,18.347,18.127
			c3.826,0.279,5.331-1.129,11.196-6.868c12.733-12.231,33.212-19.635,49.331-18.41c5.08,0.406,18.504,3.763,18.504,16.936
			c0,24.302-27.159,35.342-53.942,38.949v1.034c34.309,3.327,68.085-5.83,68.085-35.97c0-14.926-14.427-28.383-37.821-30.136
			c-1.38-0.126-2.98-0.222-4.862-0.222C261.691,162.842,248.269,164.695,223.806,175.827 M331.501,197.56
			c-1.694-16.906,15.774-31.016,31.235-31.3c0.471,0.536,0.911,1.382,0.972,2.071c0.597,5.895-24.648,35.438-28.35,35.752
			c-0.031,0-0.063,0.031-0.094,0.031C333.005,204.114,331.658,199.283,331.501,197.56 M364.054,160.147
			c-25.592,1.945-47.355,20.259-45.129,42.18c1.317,13.108,11.383,22.958,18.755,22.391c3.857-0.283,5.612-2.883,7.997-7.431
			c2.885-5.708,6.083-12.013,13.954-21.672c2.322-2.76,11.824-14.111,12.983-15.305c3.733-3.981,4.203-4.483,4.046-5.8
			c-0.251-2.634-3.796-5.865-6.336-7.997c20.699,1.757,25.749,22.548,26.03,25.435c3.199,31.797-37.507,40.453-45.818,42.869
			l0.031,0.658c53.44-3.074,62.567-28.819,61.06-43.719c-2.132-21.388-22.361-31.797-42.901-31.797
			C367.159,159.959,365.589,160.02,364.054,160.147 M596.719,156.07l-49.893-0.096l2.571,6.68h47.323v15.462l-46.444-0.096
			l2.603,6.68h43.841v2.385c0,2.508-0.094,4.893-0.281,7.182l-47.386,14.142l13.673,22.583l4.11-8.847l29.07-22.736
			c-3.763,26.656-21.482,39.484-62.626,53.408l0.218,1.757c43.592-1.788,91.92-21.829,91.669-61.811v-38.481l10.193-5.926v51.241
			c-0.972,11.324-6.054,31.583-6.054,31.583l23.176,65.26h0.126l22.234-65.26l-3.355-17.376h47.669l0.846-2.351l-17.185-17.499
			l-11.322,13.736h-21.201l-1.535-8.028v-11.917h45.441l0.879-2.32l-17.124-17.503l-11.353,13.705l-17.843-0.031v-18.942h46.507
			l0.879-2.351l-17.124-17.499l-11.353,13.736l-18.91-0.031v-22.238h-14.396v132.626h-4.358V134.272h-14.645v10.413l-38.638-11.102
			V156.07z M457.54,124.739l-48.546-0.092l2.664,6.833h46.008c-1.443,60.716-29.92,100.763-96.937,116.225v0.942
			c52.058-5.647,110.673-25.592,110.673-125.321v-21.733h4.358v21.733c0,47.137-13.234,81.76-39.389,102.961
			c-23.237,18.846-52.372,24.305-75.642,26.752v0.907c64.353-0.72,118.45-12.637,127.67-99.446
			c6.9,34.718,24.995,66.485,49.394,72.319c0.722-28.505,20.008-29.669,20.008-29.669c0.094-0.846-0.565-2.132-0.879-3.449
			c-38.323-0.689-58.739-41.739-66.548-62.22h60.59l0.909-2.538l-20.948-22.518l-11.76,18.471l-29.386-0.096
			c-0.094-12.576-0.126-19.662-0.188-28.474l14.865-8.154l-47.386-14.019C457.071,74.153,457.415,94.351,457.54,124.739
			 M583.297,122.263v-34.78h22.298v34.81L583.297,122.263z M621.716,122.358V87.483h24.461v34.906L621.716,122.358z
			 M662.295,122.389V87.483h21.986v34.937L662.295,122.389z M683.308,80.96l-102.394-0.157l-20.793-6.868v64.383l23.176,0.188
			v-9.532h100.983v9.471h22.642V96.453l6.868-8.939l-22.768-16.4L683.308,80.96z M164.159,42.513
			c38.95-2.982,40.361,31.832,26.344,51.62c-15.462,21.794-44.565,44.094-76.804,52.405v-22.016L101.5,136.752v117.695h110.171v4.36
			H97.14V134.9l19.915-19.849L84.69,82.686l-37.854,37.819v0.031l-12.136,12.139l19.35-4.862l12.857,13.016v14.207
			c-20.54,1.941-37.695,4.701-49.802,15.646c17.311-7.714,32.019-3.981,49.802-0.314v4.517c-10.066-2.259-36.16-3.449-45.16,0.283
			C1.803,183.48-4.186,203.551,2.806,213.241c-1.191-22.644,25.341-32.272,44.658-23.146c-21.513-5.237-47.292,12.955-36.629,32.272
			c4.232,4.077,11.571,5.708,17.436,5.612c14.082-0.249,22.862-8.124,22.862-8.124s-30.546-3.166-22.234-16.4
			c1.725-2.664,5.206-4.391,8.97-5.268c7.119-1.382,29.039-0.096,29.039-0.096v58.457L44.61,278.849l27.598-6.964l27.159,28.13
			l2.069-0.031l12.606-13.487h106.22l19.821-68.993l-3.231-0.628l-21.011,25.374H113.729c0,0-0.251-27.38-0.031-44.473
			c27.253-3.824,63.851-14.708,84.895-35.059c-29.856,12.48-58.584,17.843-84.581,16.745c-0.063-0.406,0.094-4.108,0.063-4.483
			c52.56-3.419,102.957-28.57,135.981-56.356c33.086-27.881,8.466-68.87-21.609-74.892c29.636-1.692,52.969,23.429,44.314,52.374
			c30.796-43.592-1.38-78.31-45.349-78.31C207.154,17.767,184.387,25.167,164.159,42.513"/>
	</defs>
	<clipPath id="SVGID_00000011725030102926551740000016596889033954931115_">
		<use xlink:href="#SVGID_00000096751141894943274970000000985482920229291958_"  overflow="visible"/>
	</clipPath>
	
		<linearGradient id="SVGID_00000062153059877864285610000017969408474804499592_" gradientUnits="userSpaceOnUse" x1="-600.9127" y1="1233.0986" x2="-569.5513" y2="1233.0986" gradientTransform="matrix(0 -8.9999 -8.9999 0 11455.6338 -5108.1157)">
		<stop  offset="0" style="stop-color:#E60012"/>
		<stop  offset="0.2" style="stop-color:#E60012"/>
		<stop  offset="0.85" style="stop-color:#F39800"/>
		<stop  offset="1" style="stop-color:#F39800"/>
	</linearGradient>
	
		<rect x="-4.186" y="17.771" clip-path="url(#SVGID_00000011725030102926551740000016596889033954931115_)" fill="url(#SVGID_00000062153059877864285610000017969408474804499592_)" width="724.188" height="282.249"/>
</g>
<path fill="#231815" d="M288.502,270.928c-1.036-2.194-2.385-3.262-3.983-3.262c-1.129,0-2.322,0.44-3.669,1.317v-13.736
	l-2.573-1.631l-3.449,1.696l2.634,1.661v23.865l-1.378,0.658l3.135,3.166l3.386-1.692l-1.755-1.692v-10.757
	c0.565-0.345,1.192-0.536,1.818-0.536c0.815,0,1.631,0.785,2.479,2.354v8.56l-1.757,0.88l3.796,3.074l3.323-1.665l-2.006-1.631
	V270.928z M272.978,249.104c-0.972,0-2.071,1.095-3.262,3.227c-2.603,1.443-6.931,2.167-13.016,2.167
	c-6.428,0-10.819-0.658-13.202-1.945c-1.256-2.197-2.352-3.327-3.262-3.327c-0.754,0-1.099,0.379-1.099,1.068
	c0,0.907,0.942,1.945,2.854,3.135c1.411,2.289,2.102,4.644,2.102,7.055c0,1.57-0.283,3.105-0.846,4.613
	c-1.036,0.969-1.788,1.661-2.291,2.132c-0.94,0.938-1.411,1.788-1.411,2.538c0,0.41,0.126,0.785,0.44,1.191
	c0.281,0.379,0.595,0.567,0.94,0.567c1.914,0,3.292-1.474,4.108-4.36c0.597-1.91,0.848-4.077,0.848-6.493
	c0-2.037-0.345-3.92-1.099-5.673c2.132,0.628,4.956,1.003,8.437,1.191c1.127,4.548,1.725,8.97,1.725,13.296
	c0,4.456-0.722,8.847-2.102,13.204c-1.6,0.283-3.105,0.754-4.548,1.413c-2.006,0.942-2.978,2.037-2.978,3.231
	c0,0.938,0.408,1.409,1.191,1.409c0.754,0,1.506-0.815,2.228-2.412c1.849-1.351,4.265-2.04,7.243-2.04
	c2.793,0,5.176,0.567,7.182,1.757c0.972,1.631,1.82,2.446,2.603,2.446c0.752,0,1.129-0.379,1.129-1.129
	c0-1.256-0.785-2.228-2.352-2.978l-3.951-1.225c-1.474-4.67-2.195-9.314-2.195-13.831c0-4.23,0.565-8.591,1.694-13.139
	c3.355-0.157,6.116-0.597,8.215-1.317c-1.317,2.634-1.943,5.206-1.943,7.745c0,1.853,0.345,3.671,1.034,5.428
	c0.909,2.32,2.165,3.48,3.826,3.48c0.377,0,0.689-0.188,0.942-0.567c0.281-0.406,0.438-0.781,0.438-1.16
	c0-0.689-0.595-1.692-1.788-3.009c-1.16-1.225-2.008-2.132-2.571-2.699c-0.063-0.501-0.096-0.972-0.096-1.474
	c0-2.664,1.066-5.8,3.231-9.406c0.752-0.44,1.254-0.846,1.631-1.194c0.658-0.593,1.003-1.191,1.003-1.818
	C274.012,249.479,273.667,249.104,272.978,249.104 M301.703,281.747c-1.129-0.122-2.383-0.593-3.731-1.409v-0.501l7.683-7.653
	c-0.471-1.443-1.317-2.573-2.636-3.419c-1.284-0.846-2.697-1.256-4.265-1.256l-4.171,2.071v10.413l-1.725,0.877
	c3.482,2.446,6.052,3.637,7.683,3.606l5.959-5.865l-0.846-0.815L301.703,281.747z M297.973,269.987
	c2.1,0.471,3.48,1.727,4.138,3.733l-4.138,4.077V269.987z M479.74,281.747c-1.129-0.122-2.383-0.593-3.731-1.409v-0.501l7.683-7.653
	c-0.471-1.443-1.317-2.573-2.603-3.419s-2.73-1.256-4.297-1.256l-4.171,2.071v10.413l-1.755,0.877
	c3.512,2.446,6.083,3.637,7.745,3.606l5.928-5.865l-0.846-0.815L479.74,281.747z M476.009,269.987c2.1,0.471,3.48,1.727,4.108,3.733
	l-4.108,4.077V269.987z M524.932,280.652v-25.404l-2.636-1.631l-3.386,1.727l2.634,1.631v22.924l-2.226,1.129l6.68,4.077
	l3.386-1.727L524.932,280.652z M591.886,247.316c-1.066,0-2.194,1.064-3.449,3.135c-0.879,1.505-1.568,3.074-2.069,4.705
	c-3.168-1.508-5.834-2.289-8.06-2.289c-1.631,0-3.168,0.345-4.642,1.064l-0.157-0.157c-1.378,1.286-2.32,2.259-2.791,2.917
	c-0.815,1.16-1.223,2.416-1.223,3.859c0,2.948,1.694,5.673,5.019,8.154c3.731,2.603,6.554,4.483,8.499,5.708
	c1.348,0.972,2.132,2.132,2.352,3.449c0.061,0.188,0.094,0.406,0.094,0.628c0,1.378-0.752,2.599-2.195,3.572
	c-1.286,0.942-2.666,1.382-4.077,1.382c-1.882,0-3.89-0.628-6.085-1.884c0.126-1.535-0.375-3.51-1.441-5.865
	c-1.192-2.599-2.479-3.92-3.826-3.92c-0.438,0-0.879,0.157-1.317,0.41c-0.377,0.249-0.597,0.597-0.597,1.034
	c0,0.689,0.534,1.317,1.631,1.884c1.129,0.563,1.945,0.972,2.509,1.221c0.879,1.382,1.317,2.825,1.317,4.36
	c0,1.692-0.408,3.388-1.254,5.08c-0.846,1.757-1.882,3.2-3.168,4.36c-1.818,0.406-2.948,0.972-3.419,1.692l-0.031,0.375
	c0,0.88,0.565,1.317,1.725,1.317c1.411,0,2.948-1.348,4.642-4.012c1.348-2.102,2.289-4.138,2.854-6.052
	c2.414,1.191,4.579,1.788,6.554,1.788c2.509,0,4.799-0.846,6.931-2.542c2.195-1.788,3.386-3.92,3.482-6.336
	c0.094-2.163-0.754-4.073-2.509-5.739c-0.565-0.532-2.477-1.849-5.645-3.951c-1.537-1.003-2.509-1.661-2.948-1.945
	c-3.355-2.32-5.049-4.391-5.049-6.179c0-2.569,1.631-3.886,4.86-3.886c1.223,0,2.509,0.249,3.889,0.75l3.669,1.57
	c-0.126,1.129-0.188,1.975-0.188,2.573c0,1.125,0.312,2.446,0.94,3.951c0.722,1.849,1.631,2.791,2.634,2.791
	c1.192,0,1.757-0.44,1.757-1.286c0-0.877-1.036-2.006-3.137-3.419c-0.251-0.689-0.375-1.474-0.375-2.385
	c0-1.125,0.251-2.569,0.752-4.295c0.502-1.88,1.129-3.135,1.818-3.763c0.815-0.628,1.38-1.034,1.725-1.286
	c0.848-0.628,1.286-1.221,1.286-1.723C593.172,247.595,592.734,247.316,591.886,247.316 M544.376,283.068v-12.924l-2.854-2.756
	l-3.294,1.631l2.793,2.791v9.563l-1.82,0.911l-2.885-2.259v-9.689l-2.823-2.948l-3.229,1.596l2.697,2.511v8.215l-1.568,0.785
	l5.582,4.326l4.014-2.102l0.033,1.853c1.474,1.88,2.571,3.292,3.323,4.265c1.6,2.071,2.383,3.545,2.383,4.452
	c0,3.17-2.414,4.736-7.243,4.736c-5.113,0-7.683-1.191-7.683-3.545c0-1.88,1.411-2.821,4.265-2.821c1.882,0,3.449,0.628,4.642,1.914
	l3.262-1.631c-1.443-1.631-3.388-2.446-5.771-2.446c-1.912,0-3.92,0.563-6.022,1.692c-2.477,1.351-3.7,2.917-3.7,4.766
	c0,1.696,1.097,2.887,3.231,3.61c1.378,0.467,3.072,0.72,5.143,0.72c2.697,0,5.455-0.658,8.215-1.975
	c3.355-1.57,5.08-3.637,5.08-6.118c0-1.064-0.815-2.634-2.351-4.701C546.288,285.545,545.159,284.04,544.376,283.068
	 M498.651,267.51l-3.355,1.727v0.157c-0.565-0.532-1.38-1.129-2.509-1.727c-2.226,1.037-3.826,1.853-4.923,2.385v10.57l-1.317,0.658
	c1.317,0.972,2.257,1.661,2.791,2.037c1.191,0.846,2.1,1.256,2.697,1.256c0.846,0,2.257-0.502,4.358-1.539l2.102,1.539l3.355-1.696
	l-3.199-2.289V267.51z M495.296,281.655c-0.534,0.406-1.005,0.597-1.443,0.597c-0.124,0-1.003-0.567-2.603-1.727v-10.068
	c2.008,1.16,3.355,2.228,4.046,3.231V281.655z M456.001,252.331c-0.565,0-1.38,0.096-2.479,0.283
	c-1.474,0.188-2.603,0.314-3.355,0.375l-1.818,0.034c-3.105,0.092-5.834-0.628-8.248-2.167c-0.909-1.818-1.788-2.726-2.54-2.726
	c-0.815,0-1.223,0.436-1.223,1.317c0,1.191,1.129,2.32,3.419,3.384c1.598,0.754,3.292,1.286,4.986,1.665
	c1.16,4.544,1.725,9.218,1.725,13.985c0,5.145-0.658,9.881-2.008,14.207c-2.163,0.096-4.045,0.379-5.739,0.88
	c-2.571,0.75-3.826,1.88-3.826,3.354c0,0.785,0.345,1.191,1.066,1.191c0.628,0,1.223-0.345,1.882-1.034
	c0.44-0.597,0.879-1.191,1.349-1.788c1.537-0.532,4.265-0.815,8.185-0.815c0.689,0,1.725,0.065,3.074,0.126
	c1.317,0.096,2.351,0.126,3.072,0.126c4.799,0,8.625-1.443,11.51-4.299c2.885-2.883,4.328-6.711,4.328-11.538
	c0-4.173-1.191-7.905-3.449-11.102C463.37,254.153,460.076,252.331,456.001,252.331 M460.924,279.366
	c-2.132,2.289-5.08,3.419-8.843,3.419h-0.848c-1.034-3.671-1.537-7.81-1.537-12.419c0-5.206,0.628-10.443,1.914-15.68
	c0.626-0.065,1.129-0.126,1.568-0.126c0.942,0,2.069,0.345,3.386,0.972c2.573,1.221,4.485,3.323,5.771,6.24
	c1.099,2.542,1.694,5.394,1.694,8.564C464.029,274.098,462.962,277.138,460.924,279.366 M512.261,260.956
	c-0.188-0.126-1.535-1.378-4.075-3.698l-3.419,1.631l7.119,6.99c0.532,0.501,0.846,1.286,1.036,2.324
	c-2.446,0.279-4.925,1.504-7.496,3.667v8.403l-1.694,0.85l2.854,2.163c1.129,0.72,2.226,1.064,3.355,1.064s2.32-0.375,3.512-1.191
	c1.003-0.815,2.008-1.6,3.011-2.381V270.68c0-2.289-0.314-4.142-0.942-5.52C515.053,264.061,513.924,262.652,512.261,260.956
	 M513.076,281.402c-0.501,0.314-0.815,0.567-1.066,0.754h-0.783c-0.815,0.031-1.6-0.44-2.446-1.474v-9.283
	c1.191-0.846,2.571-1.378,4.295-1.566V281.402z M630.211,274.535c-0.283-0.218-0.534-0.406-0.815-0.628
	c1.348-0.658,2.32-1.095,2.885-1.317c1.254-0.72,1.882-1.439,1.882-2.224c0-0.942-0.377-1.696-1.192-2.289
	c-0.783-0.597-1.661-0.88-2.664-0.88c-0.848,0-1.818,0.379-2.948,1.099c-1.223,0.785-2.165,1.413-2.76,1.818
	c-0.345,0.628-0.534,1.256-0.534,1.884c0,1.535,0.911,2.917,2.636,4.108c1.975,1.221,3.449,2.132,4.485,2.73
	c0.061,0.532,0.124,1.003,0.124,1.505c0,0.877-0.188,1.6-0.532,2.132c-1.38,0-2.823-0.597-4.297-1.788l-3.325,1.692
	c2.039,1.6,4.014,2.416,5.771,2.416c1.568,0,2.917-0.563,4.045-1.661c1.162-1.099,1.694-2.416,1.694-3.981
	c0-0.628-0.063-1.351-0.218-2.167C633.032,276.165,631.621,275.319,630.211,274.535 M627.481,270.898
	c0-0.314,0.063-0.658,0.157-1.034l0.094-0.031c0.126,0,0.283-0.034,0.565-0.065c0.251-0.061,0.44-0.061,0.597-0.061
	c0.469,0,0.909,0.157,1.317,0.436c0.375,0.283,0.565,0.658,0.565,1.129c0,0.345-0.157,0.724-0.503,1.194
	c-0.408,0.471-0.815,0.846-1.16,1.221C628.015,272.716,627.481,271.809,627.481,270.898 M600.23,269.799l-2.854-2.412l-3.325,1.692
	l2.823,2.289v8.56l-2.134,1.068l4.925,3.606l3.355-1.631l-2.791-2.006V269.799z M601.547,263.341l-3.545-3.388l-3.323,1.661
	l3.543,3.388L601.547,263.341z M618.356,271.744c0-1.252-0.44-2.289-1.223-3.074c-0.815-0.781-1.851-1.16-3.074-1.16
	c-1.694,1.003-2.948,1.696-3.763,2.132l-2.259-2.255l-3.292,1.661l3.105,3.231v8.307l-1.631,0.815l3.168,3.262l3.292-1.631
	l-1.474-1.88v-10.539l1.504-0.781c1.506,0.249,2.228,1.252,2.228,2.913v7.875l-1.725,0.877l4.609,3.292l3.386-1.692l-2.852-2.04
	V271.744z M413.976,271.744c0-1.252-0.408-2.289-1.223-3.074c-0.785-0.781-1.851-1.16-3.105-1.16
	c-1.631,1.003-2.917,1.696-3.733,2.132l-2.226-2.255l-3.325,1.661l3.105,3.231v8.307l-1.631,0.815l3.2,3.262l3.262-1.631
	l-1.476-1.88v-10.539l1.506-0.781c1.505,0.249,2.259,1.252,2.259,2.913v7.875l-1.757,0.877l4.609,3.292l3.419-1.692l-2.885-2.04
	V271.744z M394.502,281.747c-1.129-0.122-2.385-0.593-3.733-1.409v-0.501l7.653-7.653c-0.44-1.443-1.319-2.573-2.603-3.419
	c-1.286-0.846-2.73-1.256-4.267-1.256l-4.171,2.071v10.413l-1.725,0.877c3.482,2.446,6.052,3.637,7.683,3.606l5.959-5.865
	l-0.877-0.815L394.502,281.747z M390.769,269.987c2.102,0.471,3.449,1.727,4.108,3.733l-4.108,4.077V269.987z M377.753,262.617
	l-4.766,1.129c4.862,1.508,7.276,5.272,7.276,11.324c0,1.348-0.157,2.756-0.471,4.234c-0.408,2.067-1.034,3.105-1.818,3.105
	c-0.345,0-1.223-0.597-2.634-1.757v-10.13l-4.234-3.074l-3.419,1.661l4.265,3.135v7.151l-2.226,1.129
	c1.914,1.6,2.98,2.446,3.105,2.542c1.474,1.16,2.603,1.723,3.419,1.723c2.195,0,3.951-1.723,5.237-5.111
	c0.909-2.573,1.411-5.145,1.411-7.779C382.897,266.79,381.172,263.685,377.753,262.617 M351.756,247.316
	c-1.066,0-2.195,1.064-3.419,3.135c-0.877,1.505-1.598,3.074-2.069,4.705c-3.168-1.508-5.865-2.289-8.06-2.289
	c-1.631,0-3.198,0.345-4.642,1.064l-0.155-0.157c-1.413,1.286-2.352,2.259-2.823,2.917c-0.815,1.16-1.193,2.416-1.193,3.859
	c0,2.948,1.663,5.673,5.019,8.154c3.733,2.603,6.554,4.483,8.466,5.708c1.349,0.972,2.165,2.132,2.385,3.449
	c0.061,0.188,0.061,0.406,0.061,0.628c0,1.378-0.72,2.599-2.163,3.572c-1.286,0.942-2.666,1.382-4.14,1.382
	c-1.818,0-3.857-0.628-6.02-1.884c0.124-1.535-0.377-3.51-1.443-5.865c-1.193-2.599-2.477-3.92-3.826-3.92
	c-0.471,0-0.879,0.157-1.317,0.41c-0.408,0.249-0.628,0.597-0.628,1.034c0,0.689,0.565,1.317,1.663,1.884
	c1.097,0.563,1.912,0.972,2.477,1.221c0.909,1.382,1.317,2.825,1.317,4.36c0,1.692-0.377,3.388-1.254,5.08
	c-0.815,1.757-1.851,3.2-3.137,4.36c-1.818,0.406-2.948,0.972-3.449,1.692l-0.031,0.375c0,0.88,0.595,1.317,1.755,1.317
	c1.411,0,2.948-1.348,4.611-4.012c1.348-2.102,2.32-4.138,2.885-6.052c2.383,1.191,4.579,1.788,6.554,1.788
	c2.446,0,4.799-0.846,6.9-2.542c2.226-1.788,3.386-3.92,3.512-6.336c0.061-2.163-0.754-4.073-2.509-5.739
	c-0.565-0.532-2.477-1.849-5.677-3.951c-1.504-1.003-2.508-1.661-2.948-1.945c-3.355-2.32-5.017-4.391-5.017-6.179
	c0-2.569,1.598-3.886,4.86-3.886c1.223,0,2.509,0.249,3.889,0.75l3.639,1.57c-0.096,1.129-0.157,1.975-0.157,2.573
	c0,1.125,0.314,2.446,0.94,3.951c0.722,1.849,1.6,2.791,2.634,2.791c1.193,0,1.757-0.44,1.757-1.286
	c0-0.877-1.036-2.006-3.135-3.419c-0.283-0.689-0.408-1.474-0.408-2.385c0-1.125,0.281-2.569,0.752-4.295
	c0.532-1.88,1.129-3.135,1.849-3.763c0.785-0.628,1.38-1.034,1.694-1.286c0.879-0.628,1.317-1.221,1.317-1.723
	C353.073,247.595,352.634,247.316,351.756,247.316 M361.478,281.747c-1.129-0.122-2.352-0.593-3.731-1.409v-0.501l7.683-7.653
	c-0.471-1.443-1.319-2.573-2.603-3.419c-1.286-0.846-2.73-1.256-4.297-1.256l-4.14,2.071v10.413l-1.755,0.877
	c3.482,2.446,6.052,3.637,7.714,3.606l5.928-5.865l-0.846-0.815L361.478,281.747z M357.747,269.987
	c2.1,0.471,3.48,1.727,4.138,3.733l-4.138,4.077V269.987z"/>
<polygon fill="#FFFFFF" points="373.948,68.79 364.632,78.108 329.665,43.137 "/>
<polygon fill="#FFFFFF" points="355.329,68.79 364.644,78.108 329.675,113.105 "/>
<polygon fill="#FFFFFF" points="355.329,87.441 364.644,78.127 399.611,113.063 "/>
<polygon fill="#FFFFFF" points="373.948,87.441 364.632,78.127 399.601,43.129 "/>
<path fill="#231815" d="M400.767,113.373c0.033-0.065,0.033-0.126,0.033-0.188c0-0.065,0.031-0.157,0-0.253
	c0-0.031-0.033-0.092-0.033-0.126c-0.031-0.123-0.063-0.218-0.094-0.314h-0.031l-19.851-34.37l19.851-34.37l0.031-0.034
	c0.031-0.092,0.063-0.188,0.094-0.279c0-0.031,0.033-0.096,0.033-0.157c0.031-0.065,0-0.157,0-0.253c0-0.061,0-0.092-0.033-0.157
	c0-0.092-0.031-0.157-0.063-0.249c-0.031-0.031-0.061-0.096-0.094-0.157c0,0-0.031-0.031-0.031-0.065
	c-0.033-0.031-0.063-0.061-0.126-0.123c-0.031-0.034-0.061-0.065-0.094-0.096l-0.031-0.031c-0.094-0.065-0.157-0.096-0.251-0.126
	c-0.063,0-0.094-0.031-0.189-0.061c-0.061-0.034-0.124-0.034-0.218-0.034c-0.063,0-0.126,0-0.19,0c-0.094,0-0.157,0.034-0.218,0.065
	c-0.033,0-0.126,0.031-0.189,0.092h-0.061L364.64,62.002l-34.372-19.915h-0.031c-0.096-0.061-0.22-0.092-0.314-0.123
	c-0.033,0-0.063-0.034-0.094-0.034c-0.096,0-0.189,0-0.314,0c-0.033,0.034-0.094,0.034-0.126,0.034c-0.094,0-0.157,0.061-0.22,0.092
	c-0.094,0.031-0.155,0.065-0.188,0.096l-0.063,0.031c-0.061,0.031-0.061,0.061-0.124,0.096c-0.033,0.061-0.094,0.092-0.094,0.123
	v0.065c-0.063,0.061-0.094,0.126-0.094,0.157c-0.063,0.092-0.096,0.157-0.126,0.249v0.126c-0.031,0.096-0.031,0.218,0,0.314v0.061
	c0.031,0.126,0.063,0.253,0.126,0.345l0.031,0.034l19.851,34.37l-19.851,34.37h-0.031c-0.063,0.096-0.096,0.222-0.126,0.348v0.092
	c-0.031,0.096-0.031,0.222,0,0.314v0.096c0.031,0.092,0.063,0.188,0.126,0.279c0,0.034,0.031,0.096,0.061,0.157l0.033,0.034
	c0,0.031,0.031,0.061,0.061,0.092c0.063,0.031,0.096,0.096,0.157,0.157c0.033,0.031,0.096,0.031,0.126,0.061
	c0.063,0.034,0.094,0.065,0.124,0.065c0.157,0.092,0.346,0.126,0.503,0.126c0.218,0,0.375-0.065,0.532-0.157l0.063-0.034
	l34.372-19.88l34.372,19.88l0.061,0.034c0.157,0.092,0.314,0.157,0.534,0.157c0.157,0,0.345-0.065,0.501-0.126
	c0.031,0,0.063-0.031,0.094-0.065c0.063-0.031,0.126-0.031,0.157-0.061c0.063-0.061,0.094-0.126,0.157-0.188
	c0,0,0.031-0.031,0.063-0.061c0.063-0.096,0.094-0.157,0.124-0.222C400.736,113.5,400.767,113.435,400.767,113.373 M375.491,68.996
	l18.408-18.41l-14.521,25.09L375.491,68.996z M355.513,67.274l-18.377-18.379l25.058,14.521L355.513,67.274z M353.789,87.219
	l-18.41,18.406l14.521-25.086L353.789,87.219z M373.766,88.972l18.377,18.379l-25.09-14.521L373.766,88.972z"/>
<polygon fill="#FFFFFF" points="380.012,78.1 364.644,78.1 364.644,1.206 "/>
<polygon fill="#FFFFFF" points="364.636,62.741 364.636,78.111 287.707,78.111 "/>
<polygon fill="#FFFFFF" points="349.264,78.115 364.63,78.115 364.63,155.044 "/>
<polygon fill="#FFFFFF" points="364.636,93.505 364.636,78.108 441.562,78.108 "/>
<path fill="#231815" d="M442.74,78.337c0-0.031,0.033-0.061,0.033-0.092v-0.126v-0.126c0-0.031-0.033-0.061-0.033-0.092
	c0-0.096-0.031-0.157-0.063-0.222c-0.031-0.092-0.061-0.157-0.094-0.218c-0.031-0.061-0.094-0.096-0.124-0.126l-0.19-0.188
	c-0.061-0.031-0.094-0.061-0.155-0.096c-0.063-0.031-0.157-0.092-0.283-0.092c0-0.031-0.031-0.031-0.031-0.031l-63.319-12.641
	L365.844,0.972c0,0-0.033-0.034-0.033-0.065c-0.031-0.092-0.063-0.188-0.124-0.279c0-0.065-0.033-0.096-0.063-0.126
	c-0.063-0.096-0.126-0.157-0.188-0.222c-0.063-0.031-0.094-0.031-0.157-0.092c-0.063-0.031-0.126-0.061-0.22-0.096
	c-0.063-0.031-0.124-0.061-0.188-0.061S364.778,0,364.745,0c-0.031,0-0.063,0-0.094,0c-0.063,0-0.094,0-0.124,0
	c-0.033,0-0.063,0.031-0.096,0.031c-0.094,0-0.157,0.031-0.218,0.061c-0.094,0.034-0.157,0.065-0.22,0.096
	c-0.063,0.031-0.094,0.061-0.157,0.092c-0.063,0.065-0.124,0.126-0.188,0.222c-0.033,0.031-0.063,0.061-0.063,0.126
	c-0.063,0.092-0.094,0.188-0.126,0.279l-0.031,0.031l-12.639,63.35l-63.317,12.641l-0.063,0.031c-0.094,0-0.188,0.061-0.281,0.092
	c-0.033,0.034-0.094,0.065-0.126,0.096c-0.094,0.061-0.124,0.126-0.188,0.188c-0.063,0.031-0.094,0.065-0.126,0.126
	c-0.031,0.061-0.061,0.126-0.094,0.218c-0.031,0.065-0.061,0.126-0.061,0.222c-0.033,0.031-0.033,0.061-0.033,0.092
	c-0.031,0.031,0,0.065,0,0.126c0,0.031-0.031,0.061,0,0.126c0,0.031,0,0.061,0.033,0.092c0,0.065,0.031,0.157,0.061,0.222
	c0.033,0.061,0.063,0.123,0.094,0.188c0.033,0.061,0.063,0.092,0.126,0.157c0.063,0.061,0.094,0.126,0.188,0.188
	c0.033,0.031,0.094,0.061,0.126,0.096c0.094,0.031,0.188,0.061,0.281,0.092c0.033,0,0.033,0.031,0.063,0.031l63.317,12.671
	l12.639,63.285c0,0,0.031,0.034,0.031,0.065l0.096,0.279c0.031,0.034,0.061,0.065,0.094,0.126c0.031,0.065,0.094,0.126,0.157,0.188
	c0.061,0.034,0.094,0.065,0.157,0.096c0.061,0.031,0.124,0.096,0.218,0.126c0.063,0.031,0.126,0.031,0.19,0.061
	c0.061,0,0.094,0.031,0.157,0.031h0.124h0.094c0.063,0,0.094-0.031,0.157-0.031c0.063-0.031,0.126-0.031,0.188-0.061
	c0.096-0.031,0.157-0.096,0.22-0.126s0.094-0.061,0.126-0.096c0.094-0.061,0.157-0.123,0.188-0.188
	c0.031-0.061,0.063-0.092,0.094-0.126l0.094-0.279c0-0.031,0.033-0.031,0.033-0.031l12.637-63.319l63.287-12.671
	c0.033,0,0.063-0.031,0.094-0.031c0.096-0.031,0.189-0.061,0.253-0.092c0.061-0.034,0.094-0.065,0.155-0.096
	c0.063-0.061,0.126-0.126,0.19-0.188c0.031-0.065,0.094-0.096,0.124-0.157c0.033-0.065,0.063-0.126,0.094-0.188
	C442.709,78.464,442.74,78.402,442.74,78.337 M365.874,61.75V13.579l10.036,50.177L365.874,61.75z M348.249,76.898h-48.171
	l50.209-10.038L348.249,76.898z M363.397,94.489v48.171l-10.036-50.177L363.397,94.489z M381.023,79.34h48.201l-50.209,10.038
	L381.023,79.34z"/>
<path fill="#FFFFFF" d="M380.837,78.1c0,8.939-7.245,16.216-16.215,16.216c-8.937,0-16.182-7.277-16.182-16.216
	c0-8.935,7.245-16.182,16.182-16.182C373.592,61.918,380.837,69.165,380.837,78.1"/>
<path fill="#231815" d="M364.636,95.538c-9.628,0-17.438-7.81-17.438-17.438c0-9.597,7.81-17.403,17.438-17.403
	c9.595,0,17.436,7.806,17.436,17.403C382.072,87.728,374.231,95.538,364.636,95.538 M364.636,63.139
	c-8.28,0-14.991,6.715-14.991,14.961c0,8.28,6.711,14.991,14.991,14.991c8.279,0,14.989-6.711,14.989-14.991
	C379.625,69.854,372.914,63.139,364.636,63.139"/>
<path fill="#231815" d="M372.725,78.1c0,4.487-3.608,8.093-8.093,8.093c-4.452,0-8.122-3.606-8.122-8.093
	c0-4.452,3.669-8.089,8.122-8.089C369.117,70.011,372.725,73.648,372.725,78.1"/>
</svg>
