<?xml version="1.0" encoding="utf-8"?>
<!-- Generator: Adobe Illustrator 27.0.1, SVG Export Plug-In . SVG Version: 6.00 Build 0)  -->
<svg version="1.1" id="레이어_1" xmlns="http://www.w3.org/2000/svg" xmlns:xlink="http://www.w3.org/1999/xlink" x="0px"
	 y="0px" viewBox="0 0 720 186.284" enable-background="new 0 0 720 186.284" xml:space="preserve">
<path fill="#534345" d="M531.196,124.67c-9.556,0-18.768-3.013-26.774-8.752c-0.631-0.459-1.464-0.459-2.124,0
	c-7.978,5.74-17.276,8.752-26.918,8.752c-25.167,0-46.431-21.092-46.431-46.087c0-26.114,20.805-47.378,46.431-47.378
	c9.585,0,18.825,3.041,26.831,8.781c0.631,0.459,1.492,0.459,2.124,0c7.863-5.74,17.132-8.781,26.86-8.781
	c25.339,0,46.718,21.408,46.718,46.747C577.914,103.262,556.535,124.67,531.196,124.67 M531.339,41.478
	c-6.686,0-13.086,1.894-18.653,5.567c-0.861,0.603-1.004,1.808-0.373,2.64c6.313,8.178,9.786,18.136,9.786,28.266
	c0,10.159-3.443,20.174-9.728,28.324c-0.66,0.832-0.517,2.066,0.373,2.64c5.596,3.616,11.995,5.509,18.595,5.509
	c19.743,0,35.182-16.242,35.182-36.961C566.522,57.634,550.738,41.478,531.339,41.478 M475.524,41.478
	c-19.399,0-35.182,16.558-35.182,36.932c0,19.887,15.783,36.014,35.182,36.014c6.715,0,13.086-1.836,18.567-5.366
	c0.918-0.574,1.033-1.808,0.402-2.64c-6.284-8.093-9.699-17.879-9.699-27.836c0-10.417,3.443-20.633,9.728-28.955
	c0.631-0.832,0.488-2.037-0.402-2.611C488.524,43.373,482.124,41.478,475.524,41.478 M503.504,55.884
	c-4.735,6.486-7.318,14.492-7.318,22.527c0,6.945,1.951,13.631,5.682,19.486c0.717,1.148,2.41,1.148,3.128,0
	c3.731-6.055,5.682-13.057,5.682-20.432C510.678,69.687,508.21,62.255,503.504,55.884"/>
<path fill="#534345" d="M210.525,122.551c-2.755,0-4.994-2.238-4.994-4.993V73.538c0-6.113-1.09-17.419-8.465-24.421
	c-5.165-4.878-12.254-7.633-19.399-7.633c-7.117,0-14.176,2.755-19.37,7.633c-7.49,7.088-8.293,18.883-8.293,23.617v44.825
	c0,2.755-2.238,4.993-4.993,4.993h-1.435c-2.755,0-4.965-2.238-4.965-4.993V38.47c0-2.754,2.21-4.993,4.965-4.993h1.435
	c2.755,0,4.993,2.238,4.993,4.993v6.4h0.316c5.424-8.437,15.926-13.689,27.348-13.689c24.22,0,39.257,16.243,39.257,42.357v44.021
	c0,2.755-2.21,4.993-4.965,4.993H210.525z"/>
<path fill="#534345" d="M273.678,124.727c-25.598,0-46.403-20.862-46.403-46.575c0-25.856,20.719-46.862,46.23-46.862
	c25.196,0,45.8,20.403,46.718,45.915c0.086,2.784-2.21,5.05-4.993,5.05h-74.267c-1.09,0-1.951,0.948-1.808,2.067
	c1.894,16.529,17.16,30.16,34.35,30.16c13.344,0,25.311-7.145,30.763-18.308c0.803-1.636,2.468-2.697,4.333-2.697h4.161
	c1.09,0,2.095,0.545,2.668,1.463c0.603,0.947,0.66,2.095,0.201,3.07C307.941,114.224,291.498,124.727,273.678,124.727
	 M273.678,41.535c-16.587,0-30.677,11.766-34.293,28.267c-0.229,1.119,0.66,2.181,1.808,2.181h65.113
	c1.148,0,2.037-1.061,1.779-2.181C304.326,53.043,290.437,41.535,273.678,41.535"/>
<path fill="#534345" d="M410.099,122.551c-1.004,0-1.923-0.488-2.526-1.262l-36.1-48.182c-0.746-0.976-0.832-2.238-0.316-3.329
	c0.545-1.061,1.636-1.722,2.841-1.722h1.148c6.17,0,13.172-0.229,18.366-1.836c12.282-3.76,19.887-13.573,19.887-25.568
	c0-9.585-5.309-18.883-13.2-23.13c-7.72-4.219-15.812-4.535-23.445-4.535h-19.198c-0.976,0-1.808,0.804-1.808,1.808v102.763
	c0,2.755-2.238,4.993-4.964,4.993h-2.095c-2.755,0-4.964-2.238-4.964-4.993V7.047c0-2.754,2.21-4.993,4.964-4.993h25.626
	c9.384,0,21.236,0.516,29.644,4.563c13.459,6.514,21.494,19.341,21.494,34.35c0,18.854-13.573,33.718-32.685,36.33
	c-1.378,0.201-2.037,1.78-1.205,2.87l28.238,37.306c0.746,0.947,0.861,2.238,0.316,3.3c-0.517,1.119-1.636,1.779-2.841,1.779
	H410.099z"/>
<path fill="#534345" d="M713.572,122.551c-2.755,0-4.994-2.238-4.994-4.993V70.926c0-18.71-8.839-29.443-24.277-29.443
	c-15.41,0-24.249,10.732-24.249,29.443v46.632c0,2.755-2.21,4.993-4.993,4.993h-1.406c-2.755,0-4.993-2.238-4.993-4.993V70.926
	c0-18.71-8.839-29.443-24.249-29.443c-15.439,0-24.277,10.732-24.277,29.443v46.632c0,2.755-2.238,4.993-4.994,4.993h-1.435
	c-2.726,0-4.965-2.238-4.965-4.993V38.47c0-2.754,2.238-4.993,4.965-4.993h1.435c2.755,0,4.994,2.238,4.994,4.993
	c0,1.665,2.009,2.411,3.185,1.206c5.194-5.424,12.627-8.495,21.092-8.495c11.995,0,22.24,5.367,28.525,14.779
	c0.689,1.033,2.209,1.061,2.956,0.057c7.002-9.843,16.558-14.836,28.41-14.836c21.666,0,35.699,15.123,35.699,38.453v47.924
	c0,2.755-2.238,4.993-4.994,4.993H713.572z"/>
<path fill="#5DC2D0" d="M475.522,114.425c-19.399,0-35.183-16.127-35.183-36.014c0-20.375,15.783-36.933,35.183-36.933
	c6.6,0,12.999,1.894,18.595,5.538c0.889,0.574,1.033,1.78,0.402,2.611c-6.284,8.322-9.728,18.538-9.728,28.955
	c0,9.958,3.415,19.744,9.699,27.836c0.66,0.832,0.516,2.067-0.402,2.64C488.636,112.589,482.237,114.425,475.522,114.425"/>
<path fill="#EE858C" d="M531.345,114.425c-6.601,0-13-1.893-18.596-5.509c-0.889-0.574-1.033-1.808-0.402-2.64
	c6.313-8.178,9.757-18.165,9.757-28.324c0-10.13-3.472-20.087-9.786-28.266c-0.66-0.832-0.517-2.038,0.373-2.64
	c5.539-3.673,11.967-5.567,18.653-5.567c19.399,0,35.182,16.157,35.182,35.986C566.527,98.183,551.06,114.425,531.345,114.425"/>
<path fill="#534345" d="M51.838,175.603c12.339-1.722,14.09-8.523,14.348-14.864H53.588v7.26h-3.673v-10.675h20.403
	c-0.086,11.221-2.87,18.911-15.841,21.695L51.838,175.603z"/>
<path fill="#534345" d="M97.6,165.292c-2.095-2.21-5.768-4.448-7.719-5.395l2.755-2.841c1.664,0.746,5.596,2.841,7.633,4.878
	L97.6,165.292z M90.484,174.791c11.737-1.779,16.529-6.973,18.653-16.213l3.443,2.123c-1.607,6.227-4.764,14.721-19.743,17.677
	L90.484,174.791z"/>
<path fill="#534345" d="M129.683,176.272c4.965-3.931,5.71-10.101,5.71-16.012c0-1.378-0.028-2.755-0.086-4.104l3.817,0.057v1.349
	c0,9.556-0.631,15.468-5.682,20.805L129.683,176.272z M141.822,156.069h3.759c0,0-0.029,12.397-0.115,16.444
	c3.041-1.55,5.309-5.481,6.6-9.385l2.784,3.099c-1.779,4.563-5.854,10.876-13.028,11.795V156.069z"/>
<rect x="173.133" y="165.209" fill="#534345" width="22.871" height="3.616"/>
<path fill="#534345" d="M232.538,178.544c-0.373-1.004-0.804-2.008-1.263-3.041c-6.887,1.148-14.291,1.98-19.026,2.439l-0.574-3.873
	c1.004-0.058,2.066-0.144,3.157-0.201c2.726-6.686,4.706-13.688,5.538-17.878l4.247,1.004c-1.177,4.219-3.645,11.593-5.768,16.5
	c3.989-0.344,7.978-0.832,10.79-1.205c-1.406-2.497-2.927-4.792-4.275-6.313l3.501-1.664c2.353,2.697,5.969,8.436,7.461,12.254
	L232.538,178.544z"/>
<path fill="#5DC2D0" d="M282.453,146.683c-10.934,0-19.801,8.897-19.801,19.801c0,10.905,8.867,19.801,19.801,19.801
	c10.933,0,19.8-8.896,19.8-19.801C302.254,155.579,293.387,146.683,282.453,146.683 M391.443,146.683
	c-10.904,0-19.801,8.897-19.801,19.801c0,10.905,8.896,19.801,19.801,19.801c10.933,0,19.83-8.896,19.83-19.801
	C411.272,155.579,402.376,146.683,391.443,146.683 M609.451,146.683c-10.904,0-19.801,8.897-19.801,19.801
	c0,10.905,8.896,19.801,19.801,19.801c10.933,0,19.801-8.896,19.801-19.801C629.252,155.579,620.385,146.683,609.451,146.683
	 M500.462,146.683c-10.934,0-19.801,8.897-19.801,19.801c0,10.905,8.867,19.801,19.801,19.801c10.904,0,19.8-8.896,19.8-19.801
	C520.262,155.579,511.366,146.683,500.462,146.683"/>
<path fill="#EE858C" d="M445.955,146.683c-10.905,0-19.801,8.897-19.801,19.801c0,10.905,8.896,19.801,19.801,19.801
	c10.904,0,19.8-8.896,19.8-19.801C465.756,155.579,456.86,146.683,445.955,146.683"/>
<path fill="#EE858C" d="M663.955,146.683c-10.905,0-19.801,8.897-19.801,19.801c0,10.905,8.896,19.801,19.801,19.801
	c10.933,0,19.8-8.896,19.8-19.801C683.756,155.579,674.889,146.683,663.955,146.683"/>
<path fill="#EE858C" d="M336.954,146.683c-10.934,0-19.801,8.897-19.801,19.801c0,10.905,8.867,19.801,19.801,19.801
	c10.904,0,19.8-8.896,19.8-19.801C356.754,155.579,347.858,146.683,336.954,146.683"/>
<path fill="#EE858C" d="M554.954,146.683c-10.905,0-19.801,8.897-19.801,19.801c0,10.905,8.896,19.801,19.801,19.801
	c10.904,0,19.8-8.896,19.8-19.801C574.754,155.579,565.858,146.683,554.954,146.683"/>
<path fill="#534345" d="M63.678,124.744C29.156,124.744,0,96.478,0,63.017C0,28.266,28.553,0,63.678,0
	C98.889,0,127.5,28.007,127.5,62.386S98.889,124.744,63.678,124.744 M63.678,10.904c-28.467,0-51.626,23.388-51.626,52.113
	c0,27.549,23.646,50.822,51.626,50.822c28.553,0,51.768-23.015,51.768-51.281C115.447,34.091,92.231,10.904,63.678,10.904"/>
<path fill="#FFFFFF" d="M290.646,175.21c-1.78,0.201-3.731,0.287-5.539,0.287c-5.05,0-7.949-0.315-7.949-4.477v-0.057
	c0-1.119,0-3.157,0.028-5.338l-4.132,0.688l-0.43-2.726l4.592-0.746v-5.28h3.157l-0.057,4.821l11.019-1.779v0.229
	c0,3.529-2.382,7.834-6.055,10.159l-2.669-1.894c2.87-1.406,4.678-4.046,5.051-5.252l-7.375,1.234c0,2.353-0.029,4.535-0.029,5.281
	v0.086c0,1.865,0.746,2.153,4.592,2.153c1.808,0,3.788-0.144,5.969-0.402L290.646,175.21z"/>
<path fill="#FFFFFF" d="M336.409,172.24c1.119,0.144,2.152,0.23,2.927,0.23c0.89,0,2.066-0.173,2.411-1.665
	c0.316-1.578,0.459-5.165,0.459-7.461h-4.448c-0.689,5.998-2.698,9.556-8.064,12.426l-2.411-2.181
	c4.965-2.238,6.83-5.051,7.461-10.245h-5.998v-2.668h6.227c0.028-0.861,0.057-1.722,0.057-2.64v-0.947h3.07
	c0,1.292-0.028,2.497-0.115,3.587h7.232c0,4.104-0.201,9.384-0.66,11.192c-0.545,2.152-2.037,3.5-5.367,3.5
	c-0.603,0-1.205-0.029-1.664-0.029L336.409,172.24z"/>
<path fill="#FFFFFF" d="M388.961,165c-1.664-1.751-4.62-3.529-6.17-4.275l2.21-2.296c1.32,0.603,4.448,2.296,6.083,3.903
	L388.961,165z M383.279,172.604c9.384-1.406,13.2-5.538,14.922-12.942l2.755,1.665c-1.291,4.965-3.845,11.794-15.812,14.176
	L383.279,172.604z"/>
<path fill="#FFFFFF" d="M453.792,169.904c-3.386-1.865-7.633-3.386-11.048-4.448v10.446h-3.128v-18.94h3.128v5.424
	c2.869,0.804,8.867,2.64,12.282,4.333L453.792,169.904z M450.492,162.471c-0.603-0.774-2.153-2.266-2.927-2.812l1.234-1.09
	c0.631,0.459,2.238,1.865,2.956,2.697L450.492,162.471z M452.415,160.721c-0.603-0.659-2.066-2.066-2.956-2.725l1.234-1.004
	c0.746,0.516,2.296,1.836,2.927,2.583L452.415,160.721z"/>
<path fill="#FFFFFF" d="M497.624,168.096c-2.009-1.378-4.534-2.324-6.485-2.985l1.492-2.525c1.722,0.545,4.476,1.578,6.399,2.783
	L497.624,168.096z M492.458,172.861c9.785-0.775,13.545-6.543,15.324-12.656l2.583,1.951c-1.636,4.85-4.764,11.909-16.185,13.574
	L492.458,172.861z M500.379,163.132c-1.751-1.234-4.477-2.41-6.428-2.956l1.435-2.439c1.693,0.402,4.563,1.463,6.342,2.583
	L500.379,163.132z"/>
<rect x="545.817" y="164.951" fill="#FFFFFF" width="18.28" height="2.899"/>
<path fill="#FFFFFF" d="M616.591,175.267c-2.066-2.583-4.018-4.361-5.883-5.739c-2.726,2.985-6.112,4.821-9.011,5.826l-2.095-2.611
	c7.892-2.21,11.249-7.232,12.225-11.278l-9.929,0.086v-2.87h13.459c-0.345-0.574-0.689-1.119-1.004-1.492l1.378-0.659
	c0.459,0.574,1.377,2.009,1.779,2.956l-1.378,0.775c-0.086-0.258-0.229-0.517-0.402-0.861c-0.603,3.185-1.78,5.768-3.214,7.948
	c1.98,1.263,4.391,3.099,6.342,5.166L616.591,175.267z M618.514,159.656c-0.402-0.803-1.205-2.152-1.808-2.984l1.349-0.631
	c0.574,0.688,1.435,1.98,1.836,2.841L618.514,159.656z"/>
<path fill="#FFFFFF" d="M661.467,165c-1.664-1.751-4.62-3.529-6.17-4.275l2.21-2.296c1.349,0.603,4.448,2.296,6.083,3.903
	L661.467,165z M655.785,172.604c9.384-1.406,13.2-5.538,14.922-12.942l2.755,1.665c-1.291,4.965-3.817,11.794-15.812,14.176
	L655.785,172.604z"/>
</svg>
