<?xml version="1.0" encoding="utf-8"?>
<!-- Generator: Adobe Illustrator 27.0.1, SVG Export Plug-In . SVG Version: 6.00 Build 0)  -->
<svg version="1.1" id="레이어_1" xmlns="http://www.w3.org/2000/svg" xmlns:xlink="http://www.w3.org/1999/xlink" x="0px"
	 y="0px" viewBox="0 0 720 270.698" enable-background="new 0 0 720 270.698" xml:space="preserve">
<path fill-rule="evenodd" clip-rule="evenodd" fill="#040000" d="M455.088,0h257.554c6.937,0,9.039,6.268,6.007,10.546
	L564.671,210.817c-1.934,2.529-5.506,4.557-8.015,4.557H289.875c-2.51,0-2.957-2.027-1.023-4.557L447.071,4.538
	C449.006,2.027,452.595,0,455.088,0"/>
<path fill="#FFFFFF" d="M548.971,5.721h70.136c3.683,0,2.864,3.627,1.971,5.896c-1.283,3.218-80.067,193.687-80.067,193.687
	s-1.153,3.98-3.496,3.98h-54.718c-3.255,0-3.496-2.548-2.567-4.891s15.382-36.305,16.293-38.611
	c0.688-1.711,1.711-3.943-2.269-3.943h-67.793c-3.831,0-6.9,3.199-9.559,5.413c-1.916,1.581-43.41,34.035-47.334,37.29
	c-4.017,3.329-4.612,4.743-9.504,4.743h-62.789c-2.642,0-3.143-1.86-1.284-3.738C297.87,203.685,538.927,11.71,541.494,9.85
	C544.061,7.971,545.623,5.721,548.971,5.721"/>
<rect x="294.879" y="5.715" fill="none" width="326.946" height="203.581"/>
<path fill="#040000" d="M533.777,77.216c-0.818,1.897-16.907,39.56-17.688,41.271c-0.781,1.729-3.199,2.957-5.151,2.957h-33.198
	c-1.563,0-2.176-1.098,0-2.883c2.957-2.437,51.759-41.903,53.136-43.019C533.014,73.813,534.707,75.096,533.777,77.216"/>
<rect x="476.327" y="74.753" fill="none" width="57.712" height="46.701"/>
<path fill="#040000" d="M81.7,270.698c0,0-67.365-0.018-69.857-0.018c-2.51,0-5.617-4.185-1.618-9.318
	c3.999-5.133,129.447-166.663,129.447-166.663l0.278-0.13c1.619-1.488,3.702-2.455,5.989-2.697l0.149-0.074l1.116-0.019h79.044
	l-0.131,0.186c0.967,0.037,1.954,0.056,2.921,0.093c-0.521-0.744-0.874-1.563-1.005-2.474l-1.06-1.488l2.12-2.771l42.07-54.029
	l0.279-0.131c1.413-1.283,3.274-2.12,5.246-2.362l0.167-0.074l1.005-0.019h189.725l0.465,0.707c1.897,0.967,3.199,2.92,3.217,5.115
	l0.632,1.153l-1.879,2.474L448.8,65.388l-0.26,0.111c-1.599,1.506-3.738,2.437-6.045,2.678l-0.168,0.056h-0.632l-0.297,0.056
	l-0.391-0.037h-106.31c50.365,10.824,76.125,29.646,76.646,55.982c0.204,12.108-5.357,24.03-16.535,35.449
	c-36.639,37.328-128.665,63.403-223.817,63.403c-11.829,0-35.523-1.339-37.867-1.339c-2.325,0-3.942-3.571-3.608-5.691
	c-2.009,2.585-39.207,50.495-39.207,50.495c-1.897,2.604-5.058,4.147-8.462,4.147H81.7z M189.312,138.982l-1.786,2.288
	c33.998-1.321,54.177-9.448,54.457-17.092c-0.372-0.39-2.492-2.176-11.289-3.348c-7.775-1.023-17.687-1.209-25.518-1.265h-0.186
	c-0.539,0.018-0.799,0.26-0.855,0.316l-14.898,19.1H189.312z"/>
<path fill="#040000" d="M73.27,262.292c0,0-64.983-0.019-68.257-0.019s-7.476-4.705-3.199-10.267
	c3.161-4.129,129.428-166.663,129.428-166.663l0.297-0.13c1.599-1.488,3.702-2.455,5.989-2.697l0.149-0.056l1.098-0.037h79.044
	l-0.131,0.186c0.985,0.037,1.952,0.056,2.92,0.093c-0.52-0.744-2.027-4.036,0.075-6.733c2.083-2.66,42.07-54.029,42.07-54.029
	l0.279-0.131c1.413-1.283,3.274-2.12,5.246-2.362l0.149-0.074l1.004-0.019h189.726l0.464,0.707c1.916,0.986,3.218,2.92,3.236,5.115
	l0.632,1.153l-1.879,2.474L440.39,56.033l-0.26,0.111c-1.619,1.506-3.738,2.437-6.045,2.678l-0.168,0.056h-0.65l-0.297,0.056
	l-0.372-0.037h-106.31c50.347,10.824,76.107,29.646,76.626,55.982c0.224,12.108-5.338,24.03-16.534,35.449
	c-36.621,37.328-128.666,63.403-223.817,63.403c-11.829,0-23.732-0.391-35.394-1.172l-2.455-0.167l-0.427-0.725
	c-1.563-0.948-2.679-2.567-2.828-4.427l-0.353-0.539L81.9,258.126c-1.915,2.604-5.076,4.166-8.462,4.166H73.27z M295.58,95.22
	c11.587,5.635,17.445,13.112,17.465,22.392c0.037,12.591-10.825,23.36-32.343,32.195c19.956-6.956,39.429-17.78,39.374-33.571
	C320.057,107.57,311.632,100.483,295.58,95.22 M180.902,129.627l-1.805,2.288c34.018-1.321,54.197-9.448,54.476-17.092
	c-0.372-0.391-2.492-2.176-11.307-3.348c-7.757-1.023-17.669-1.209-25.499-1.265h-0.186c-0.557,0.018-0.818,0.26-0.855,0.316
	l-1.377,2.157h-0.353l-13.168,16.943H180.902z"/>
<path fill="#FFFFFF" d="M149.436,167.152L149.436,167.152c72.498-0.837,159.019-18.208,158.945-48.58
	c-0.056-24.941-56.615-30.13-100.303-30.521v-0.018h-69.299l-0.037,0.018c-1.859,0.019-3.496,0.818-4.501,2.046h-0.036L5.5,255.812
	l0.019,0.037c-0.131,0.149-0.224,0.354-0.224,0.577c0,0.632,0.614,1.135,1.358,1.153v0.018h66.621h0.149
	c2.008,0,3.756-0.892,4.705-2.269l66.639-85.815C145.735,168.156,147.446,167.152,149.436,167.152 M171.271,135.237l20.44-26.299
	h0.074c0.912-1.432,2.642-2.418,4.687-2.474c21.463,0.13,41.754,1.358,41.773,9.113c0.036,14.21-30.819,21.63-65.282,22.114
	l-0.131,0.019c-1.023,0-1.859-0.707-1.859-1.599c0-0.316,0.129-0.614,0.335-0.874H171.271z M458.175,26.155
	c0-0.632-0.614-1.153-1.377-1.153h-0.074l-0.019-0.019h-187.27l-0.019,0.019c-1.506,0-2.845,0.651-3.645,1.618h-0.018L224.37,79.794
	l0.019,0.019c-0.093,0.167-0.168,0.316-0.168,0.521c0.019,0.632,0.614,1.172,1.377,1.172h0.018l0.018,0.019
	c47.892,2.083,99.058,9.82,99.131,35.654c0.093,37.774-87.637,54.401-170.494,56.54l-0.075,0.037
	c-1.729,0.056-3.273,0.8-4.222,1.953h-0.018l-0.056,0.056l-0.075,0.112l-23.528,31.171l0.019,0.037
	c-0.149,0.167-0.224,0.391-0.204,0.632c0.018,0.614,0.65,1.078,1.358,1.078l0.018,0.019c11.773,0.8,23.472,1.19,35.059,1.19
	c125.82,0,236.63-44.804,235.683-94.109c-0.559-29.46-37.328-45.455-85.256-53.899v-0.037c-0.874-0.13-1.526-0.744-1.526-1.525
	c0-0.335,0.149-0.614,0.353-0.874h-0.036l2.771-3.664h0.037c0.335-0.447,0.874-0.725,1.544-0.725h0.056h116.706h0.019h0.036h0.093
	l0.037-0.019c1.823-0.056,3.403-0.837,4.39-2.027l0.018-0.019l20.44-26.242l-0.018-0.037
	C458.062,26.639,458.175,26.434,458.175,26.155"/>
<path fill="#040000" d="M589.02,264.232c-1.08,0-2.047-0.595-2.53-1.562c-0.391-0.837-0.353-1.823,0.075-2.622l-2.418,3.106
	c-0.521,0.688-1.34,1.078-2.194,1.078h-9.951c-1.078,0-2.027-0.595-2.511-1.562c-0.464-0.967-0.353-2.102,0.317-2.957l18.971-24.402
	c0.557-0.688,1.376-1.078,2.212-1.078h9.002c0.539,0,1.06,0.167,1.506,0.446c2.158-0.725,4.483-1.06,7.179-1.06
	c4.78,0,6.603,2.288,7.273,3.646c1.358,2.715,0.484,6.305-2.437,10.025l-12.35,15.865c-0.52,0.688-1.338,1.078-2.212,1.078H589.02z"
	/>
<path fill="#040000" d="M552.343,264.854c-6.566,0-9.188-2.51-10.229-4.612c-1.619-3.366-0.447-7.644,3.514-12.74
	c6.659-8.574,16.888-13.893,26.671-13.893c6.565,0,9.169,2.511,10.173,4.594c1.655,3.366,0.464,7.644-3.516,12.759
	C572.299,259.535,562.088,264.854,552.343,264.854 M564.972,246.813c-1.544,0.67-3.274,2.139-4.836,4.148
	c-0.224,0.279-0.428,0.558-0.596,0.8c1.544-0.688,3.311-2.195,4.911-4.259C564.637,247.241,564.822,247.018,564.972,246.813"/>
<path fill="#040000" d="M523.49,264.232c-1.08,0-2.047-0.595-2.53-1.562c-0.446-0.967-0.335-2.102,0.317-2.957l18.989-24.402
	c0.297-0.372,0.688-0.669,1.116-0.874c0.056-0.52,0.26-1.042,0.595-1.488l5.71-7.347c0.539-0.688,1.358-1.097,2.214-1.097h10.229
	c1.06,0,2.046,0.614,2.511,1.581c0.484,0.967,0.353,2.12-0.297,2.957l-5.729,7.347c-0.353,0.465-0.855,0.8-1.394,0.967
	c-0.075,0.502-0.261,0.985-0.577,1.395l-19.008,24.402c-0.52,0.688-1.338,1.078-2.212,1.078H523.49z"/>
<path fill="#040000" d="M517.385,264.849c-6.548,0-10.9-0.65-12.48-3.868c-1.506-3.069,0.67-6.51,2.734-9.132l4.334-5.561
	c-0.41-0.279-0.745-0.651-0.986-1.116c-0.464-0.948-0.335-2.102,0.317-2.957l5.375-6.9c0.521-0.688,1.339-1.079,2.214-1.079h2.92
	l5.133-6.584c0.521-0.669,1.34-1.078,2.214-1.078h9.466c1.06,0,2.046,0.614,2.511,1.562c0.484,0.967,0.353,2.12-0.297,2.976
	l-2.622,3.348c0.595,0.26,1.116,0.725,1.394,1.339c0.484,0.967,0.372,2.12-0.297,2.957l-5.375,6.919
	c-0.539,0.669-1.358,1.06-2.212,1.06h-3.088l-3.924,5.078h0.074c1.153,0,2.176,0.67,2.604,1.73c0.446,1.042,0.204,2.25-0.595,3.05
	l-7.44,7.439C518.835,264.551,518.129,264.849,517.385,264.849"/>
<path fill="#040000" d="M493.812,264.849c-2.493,0-4.483-0.558-5.785-1.618c-2.733,1.078-5.877,1.618-9.355,1.618
	c-3.738,0-6.175-1.134-7.254-3.348c-1.116-2.287-0.446-5.003,1.972-8.127c2.827-3.627,6.194-6.157,10.564-7.849l1.041-5.691
	c0.15-0.837,0.689-1.563,1.451-1.953c5.432-2.902,10.639-4.278,16.367-4.278c3.441,0,8.239,0.409,9.932,3.887
	c1.786,3.664-1.394,7.737-2.436,9.094l-4.39,5.617c0.41,0.279,0.725,0.651,0.931,1.135c0.502,1.06,0.278,2.362-0.577,3.18
	l-7.607,7.254c-0.41,0.372-0.912,0.632-1.451,0.725C495.895,264.737,494.798,264.849,493.812,264.849"/>
<path fill="#040000" d="M455.997,264.232c-1.06,0-1.991-0.558-2.493-1.488l-0.316,0.409c-0.54,0.688-1.359,1.078-2.233,1.078h-9.839
	c-1.023,0-1.99-0.558-2.474-1.488l-0.316,0.409c-0.539,0.688-1.34,1.078-2.214,1.078h-9.95c-1.06,0-2.047-0.595-2.511-1.562
	c-0.484-0.967-0.354-2.102,0.297-2.957l19.007-24.402c0.521-0.688,1.34-1.078,2.214-1.078h8.964c0.559,0,1.078,0.167,1.506,0.427
	c2.121-0.688,4.37-1.042,6.788-1.042c2.976,0,4.65,1.042,5.581,2.046c2.789-1.321,6.044-2.046,9.355-2.046
	c4.036,0,5.653,2.046,6.249,3.255c0.706,1.469,1.376,4.631-2.344,9.392l-13.131,16.887c-0.539,0.688-1.358,1.078-2.212,1.078
	H455.997z"/>
<path fill="#040000" d="M409.882,264.232c-1.08,0-2.027-0.595-2.511-1.562c-0.465-0.967-0.354-2.102,0.316-2.957l18.971-24.402
	c0.316-0.372,0.688-0.688,1.134-0.874c0.037-0.52,0.242-1.042,0.577-1.488l5.728-7.347c0.521-0.688,1.34-1.097,2.214-1.097h10.229
	c1.06,0,2.027,0.614,2.493,1.581c0.484,0.967,0.372,2.12-0.297,2.957l-5.729,7.347c-0.353,0.465-0.855,0.8-1.394,0.967
	c-0.057,0.502-0.261,0.985-0.577,1.395l-19.008,24.402c-0.52,0.688-1.338,1.078-2.194,1.078H409.882z"/>
<path fill="#040000" d="M393.608,264.232c-1.08,0-2.027-0.595-2.511-1.562c-0.41-0.837-0.372-1.823,0.074-2.622l-2.418,3.106
	c-0.52,0.688-1.338,1.078-2.212,1.078h-9.932c-1.08,0-2.047-0.595-2.53-1.562c-0.464-0.967-0.335-2.102,0.317-2.957l18.989-24.402
	c0.539-0.688,1.358-1.078,2.214-1.078h8.983c0.559,0,1.06,0.167,1.526,0.446c2.157-0.725,4.482-1.06,7.179-1.06
	c4.761,0,6.602,2.288,7.272,3.646c1.34,2.715,0.484,6.286-2.436,10.025l-12.369,15.865c-0.52,0.688-1.338,1.078-2.194,1.078H393.608
	z"/>
<path fill="#040000" d="M363.112,264.232c-0.967,0-1.842-0.465-2.362-1.246c-0.503-0.8-0.596-1.804-0.224-2.678l1.413-3.199h-6.212
	l-7.234,6.417c-0.521,0.465-1.191,0.707-1.879,0.707h-10.229c-1.153,0-2.214-0.707-2.604-1.804
	c-0.428-1.079-0.111-2.325,0.763-3.106l38.536-34.11c0.503-0.446,1.191-0.707,1.861-0.707h13.149c0.949,0,1.804,0.484,2.344,1.283
	c0.502,0.781,0.595,1.767,0.223,2.622l-14.562,34.129c-0.428,1.042-1.451,1.692-2.567,1.692H363.112z"/>
<path fill="#040000" d="M304.791,264.849c-6.175,0-8.667-2.455-9.672-4.5c-1.135-2.325-1.451-6.454,3.571-12.889
	c5.356-6.9,15.436-13.856,25.851-13.856c5.934,0,8.314,2.344,9.281,4.315c1.599,3.292,0.391,7.589-3.609,12.722
	c-0.371,0.502-0.706,0.911-1.116,1.376c-0.464,0.52-1.116,0.837-1.804,0.911l-3.701,0.391l0.484,3.534
	c0.149,1.153-0.391,2.25-1.395,2.827C315.912,263.51,311.225,264.849,304.791,264.849"/>
<path fill="#040000" d="M276.676,264.232c-1.08,0-2.047-0.595-2.53-1.562c-0.409-0.837-0.371-1.823,0.075-2.622l-2.418,3.106
	c-0.521,0.688-1.339,1.078-2.214,1.078h-9.932c-1.078,0-2.046-0.595-2.529-1.562c-0.465-0.967-0.335-2.102,0.316-2.957l26.56-34.11
	c0.521-0.688,1.338-1.097,2.212-1.097h9.933c1.059,0,2.046,0.614,2.529,1.581c0.464,0.967,0.335,2.12-0.317,2.957l-3.57,4.594
	c0.484-0.019,0.966-0.019,1.506-0.019c4.91,0,6.937,2.009,7.756,3.701c0.855,1.748,1.172,4.761-2.176,9.039l-13.057,16.795
	c-0.539,0.688-1.358,1.078-2.212,1.078H276.676z"/>
<path fill="#040000" d="M253.699,264.849c-6.548,0-10.9-0.65-12.48-3.868c-1.506-3.069,0.67-6.51,2.733-9.132l4.315-5.561
	c-0.391-0.279-0.744-0.651-0.967-1.116c-0.464-0.948-0.335-2.102,0.317-2.957l5.375-6.9c0.521-0.688,1.339-1.079,2.214-1.079h2.92
	l5.133-6.584c0.521-0.669,1.34-1.078,2.214-1.078h9.466c1.06,0,2.046,0.614,2.492,1.562c0.484,0.967,0.372,2.12-0.278,2.976
	l-2.622,3.348c0.595,0.26,1.116,0.725,1.394,1.339c0.484,0.967,0.354,2.12-0.297,2.957l-5.375,6.919
	c-0.539,0.669-1.358,1.06-2.212,1.06h-3.088l-3.924,5.078h0.074c1.153,0,2.176,0.67,2.604,1.73c0.446,1.042,0.204,2.25-0.595,3.05
	l-7.44,7.439C255.149,264.551,254.443,264.849,253.699,264.849"/>
<path fill="#040000" d="M387.055,228.931c-6.881,0-11.271-1.506-13.392-4.593c-1.098-1.581-2.027-4.315-0.464-8.407
	c0.334-0.911,1.134-1.581,2.101-1.748l7.83-1.451l-1.135-0.204c-0.985-0.167-1.822-0.874-2.176-1.841
	c-0.335-0.948-0.149-2.009,0.521-2.772l16.478-18.766c0.521-0.595,1.284-0.967,2.102-0.967h30.891c1.06,0,2.027,0.614,2.493,1.581
	c0.484,0.967,0.372,2.102-0.297,2.957l-6.156,7.923c-0.54,0.67-1.358,1.079-2.214,1.079h-5.078c0.781,0.651,1.377,1.413,1.823,2.287
	c1.506,3.088,0.502,6.919-2.976,11.401C410.898,223.742,399.274,228.931,387.055,228.931 M392.281,215.447
	c0.223,0.037,0.502,0.075,0.892,0.075c2.567,0,5.579-1.469,7.161-3.516c0.093-0.111,0.186-0.242,0.26-0.353h-0.111
	c-1.599,0-4.39,0.986-6.082,2.157c-0.464,0.335-1.023,0.502-1.599,0.502c-0.111,0-0.186-0.019-0.297-0.019
	C392.522,214.685,392.448,215.075,392.281,215.447"/>
<path fill="#040000" d="M356.827,227.906c-0.949,0-1.823-0.465-2.344-1.265c-0.502-0.781-0.595-1.785-0.222-2.66l1.413-3.199h-6.213
	l-7.253,6.417c-0.503,0.465-1.173,0.707-1.861,0.707h-10.229c-1.153,0-2.214-0.707-2.622-1.804c-0.41-1.079-0.111-2.325,0.781-3.106
	l38.537-34.11c0.502-0.446,1.172-0.707,1.859-0.707h13.15c0.948,0,1.804,0.502,2.343,1.283c0.502,0.781,0.595,1.767,0.224,2.641
	l-14.563,34.11c-0.428,1.023-1.451,1.692-2.567,1.692H356.827z"/>
<path fill="#040000" d="M313.237,227.906c-0.893,0-1.749-0.409-2.269-1.153c-0.521-0.707-0.67-1.637-0.41-2.492l1.172-3.701
	l-4.891,6.268c-0.52,0.688-1.338,1.078-2.212,1.078h-9.727c-1.078,0-2.065-0.595-2.529-1.562c-0.465-0.967-0.372-2.102,0.316-2.957
	l26.54-34.11c0.539-0.688,1.358-1.097,2.214-1.097h12.461c0.893,0,1.73,0.446,2.251,1.153c0.539,0.707,0.706,1.636,0.446,2.492
	l-1.377,4.519l5.524-7.068c0.521-0.688,1.34-1.097,2.214-1.097h9.727c1.078,0,2.046,0.614,2.529,1.581
	c0.465,0.967,0.335,2.12-0.316,2.957l-26.56,34.11c-0.52,0.688-1.338,1.078-2.212,1.078H313.237z"/>
<path fill="#040000" d="M270.424,228.919c-7.104,0-9.968-2.808-11.121-5.171c-2.102-4.278-0.261-10.173,5.449-17.502
	c9.02-11.568,22.281-19.064,33.794-19.064c7.03,0,9.857,2.827,11.029,5.171c2.083,4.277,0.297,10.117-5.319,17.334
	C295.012,221.553,282.067,228.919,270.424,228.919 M276.73,215.211c2.194,0,7.328-2.38,12.441-8.964
	c2.307-2.976,2.976-4.593,3.163-5.375h-0.093c-2.158,0-7.44,2.399-12.443,8.816c-2.269,2.902-3.013,4.706-3.199,5.524H276.73z"/>
<path fill="#040000" d="M232.841,228.919c-5.244,0-8.834-1.376-10.694-4.055c-1.078-1.599-2.046-4.445-0.353-8.816
	c0.279-0.707,0.837-1.265,1.544-1.562l11.309-4.743c-0.41-0.614-0.707-1.283-0.893-1.99c-0.856-3.441,1.34-6.789,3.068-9.002
	c5.375-6.919,15.122-11.569,24.197-11.569c5.058,0,8.425,1.172,10.248,3.553c0.967,1.246,1.897,3.441,0.967,6.788
	c-0.205,0.818-0.782,1.488-1.563,1.804l-10.564,4.612c0.967,0.986,1.433,2.046,1.693,2.92c0.745,2.734-0.242,5.896-2.957,9.392
	C252.482,224.418,243.257,228.919,232.841,228.919 M238.626,212.868c-0.019,0.111-0.037,0.204-0.075,0.297
	c-0.409,1.228-0.297,1.823-0.242,1.897c0.037,0.037,0.279,0.149,0.781,0.149c1.748,0,2.697-0.334,3.236-0.669
	C242.327,214.542,238.7,212.905,238.626,212.868 M255.57,201.262c0.036-0.186,0.074-0.391,0.149-0.558
	c0.018-0.056,0.036-0.111,0.036-0.149c-0.093,0-0.204-0.018-0.335-0.018c-0.595,0-1.078,0.037-1.506,0.093L255.57,201.262z"/>
<path fill="#040000" d="M204.578,227.916c-0.893,0-1.73-0.428-2.269-1.153c-0.521-0.725-0.688-1.655-0.409-2.51l1.32-4.129
	l-5.226,6.714c-0.521,0.67-1.34,1.079-2.214,1.079h-10.118c-1.078,0-2.046-0.614-2.529-1.563c-0.464-0.967-0.353-2.12,0.317-2.976
	l26.559-34.11c0.521-0.688,1.34-1.079,2.214-1.079h16.423c5.746,0,8.09,2.307,9.02,4.204c1.005,2.064,1.358,5.561-2.64,10.694
	c-3.924,5.021-8.035,8.146-13.205,9.932l-2.251,12.591c-0.242,1.339-1.394,2.306-2.752,2.306H204.578z M217.393,201.97
	c0.241-0.093,0.446-0.223,0.65-0.353h-0.372L217.393,201.97z"/>
<path fill="#040000" d="M152.225,227.906c-1.08,0-2.047-0.595-2.53-1.562c-0.446-0.967-0.335-2.102,0.317-2.957l26.559-34.11
	c0.539-0.688,1.358-1.097,2.214-1.097h26.429c1.059,0,2.046,0.614,2.51,1.581c0.484,0.967,0.354,2.12-0.297,2.957l-6.1,7.83
	c-0.539,0.669-1.358,1.078-2.212,1.078h-4.78c0.353,0.279,0.67,0.614,0.874,1.042c0.465,0.948,0.335,2.102-0.317,2.957l-5.951,7.644
	c-0.54,0.688-1.359,1.079-2.233,1.079h-12.237l-0.093,0.111h11.382c1.06,0,2.046,0.632,2.511,1.581
	c0.484,0.967,0.353,2.12-0.297,2.957l-6.1,7.83c-0.54,0.688-1.358,1.078-2.214,1.078H152.225z"/>
<path fill="#040000" d="M117.759,227.903c-1.08,0-2.065-0.595-2.53-1.563c-0.484-0.948-0.353-2.102,0.299-2.957l26.559-34.11
	c0.521-0.688,1.34-1.079,2.214-1.079h15.827c5.71,0,8.035,2.325,8.984,4.24c1.098,2.214,1.395,6.1-3.236,12.033
	c-6.305,8.146-15.418,13.001-24.309,13.001h-3.98l-7.309,9.374c-0.521,0.67-1.339,1.06-2.214,1.06H117.759z M148.409,203.315
	c0.706-0.353,1.431-0.837,2.139-1.599h-0.912L148.409,203.315z"/>
<path fill="#040000" d="M585.279,260.491c-1.08,0-2.047-0.595-2.53-1.562c-0.391-0.837-0.353-1.823,0.075-2.622l-2.4,3.106
	c-0.539,0.688-1.358,1.078-2.212,1.078h-9.951c-1.06,0-2.027-0.595-2.511-1.562c-0.464-0.967-0.353-2.102,0.317-2.957l18.971-24.402
	c0.557-0.688,1.376-1.078,2.212-1.078h9.002c0.539,0,1.06,0.167,1.506,0.446c2.158-0.725,4.483-1.06,7.179-1.06
	c4.78,0,6.603,2.288,7.273,3.646c1.358,2.734,0.484,6.305-2.437,10.025l-12.35,15.865c-0.52,0.688-1.338,1.078-2.212,1.078H585.279z
	"/>
<path fill="#040000" d="M548.604,261.112c-6.566,0-9.188-2.51-10.211-4.612c-1.637-3.366-0.465-7.644,3.496-12.74
	c6.659-8.574,16.888-13.893,26.671-13.893c6.565,0,9.169,2.511,10.173,4.594c1.655,3.366,0.464,7.644-3.516,12.759
	C568.56,255.793,558.349,261.112,548.604,261.112 M561.232,243.071c-1.544,0.67-3.274,2.139-4.836,4.148
	c-0.224,0.279-0.428,0.558-0.596,0.8c1.544-0.688,3.311-2.195,4.911-4.259C560.898,243.499,561.083,243.295,561.232,243.071"/>
<path fill="#040000" d="M519.748,260.491c-1.08,0-2.047-0.595-2.53-1.562c-0.446-0.967-0.335-2.102,0.317-2.957l18.989-24.402
	c0.316-0.372,0.688-0.669,1.116-0.874c0.056-0.52,0.26-1.042,0.595-1.488l5.71-7.347c0.539-0.688,1.358-1.097,2.214-1.097h10.229
	c1.06,0,2.046,0.614,2.511,1.581c0.484,0.967,0.353,2.121-0.297,2.957l-5.729,7.347c-0.353,0.465-0.855,0.8-1.394,0.967
	c-0.075,0.502-0.261,0.985-0.577,1.395l-19.008,24.402c-0.52,0.688-1.338,1.078-2.212,1.078H519.748z"/>
<path fill="#040000" d="M513.646,261.109c-6.548,0-10.9-0.65-12.48-3.868c-1.506-3.069,0.67-6.51,2.734-9.132l4.334-5.561
	c-0.41-0.279-0.745-0.651-0.986-1.116c-0.464-0.948-0.335-2.102,0.317-2.957l5.375-6.9c0.521-0.688,1.339-1.079,2.214-1.079h2.92
	l5.133-6.584c0.521-0.669,1.34-1.078,2.214-1.078h9.466c1.06,0,2.046,0.614,2.511,1.562c0.484,0.967,0.353,2.12-0.297,2.976
	l-2.622,3.348c0.595,0.26,1.116,0.725,1.394,1.339c0.484,0.967,0.372,2.12-0.297,2.957l-5.375,6.919
	c-0.539,0.669-1.358,1.06-2.212,1.06h-3.088l-3.924,5.078h0.074c1.153,0,2.176,0.67,2.604,1.73c0.446,1.042,0.204,2.25-0.595,3.05
	l-7.44,7.439C515.115,260.811,514.39,261.109,513.646,261.109"/>
<path fill="#040000" d="M490.07,261.109c-2.493,0-4.483-0.558-5.785-1.618c-2.733,1.078-5.877,1.618-9.355,1.618
	c-3.738,0-6.175-1.134-7.254-3.348c-1.116-2.287-0.446-5.003,1.972-8.127c2.827-3.627,6.194-6.157,10.564-7.849l1.041-5.691
	c0.15-0.837,0.689-1.563,1.451-1.953c5.432-2.902,10.639-4.278,16.367-4.278c3.441,0,8.239,0.409,9.932,3.887
	c1.786,3.664-1.394,7.737-2.436,9.094l-4.39,5.617c0.41,0.279,0.725,0.651,0.931,1.135c0.502,1.06,0.278,2.362-0.577,3.18
	l-7.607,7.254c-0.41,0.372-0.912,0.632-1.433,0.725C492.153,260.997,491.055,261.109,490.07,261.109"/>
<path fill="#040000" d="M452.255,260.491c-1.06,0-1.991-0.558-2.493-1.488l-0.316,0.409c-0.54,0.688-1.359,1.078-2.233,1.078h-9.839
	c-1.023,0-1.99-0.558-2.474-1.488l-0.316,0.409c-0.539,0.688-1.34,1.078-2.214,1.078h-9.95c-1.06,0-2.047-0.595-2.511-1.562
	c-0.484-0.967-0.354-2.102,0.297-2.957l19.007-24.402c0.521-0.688,1.34-1.078,2.214-1.078h8.964c0.559,0,1.078,0.167,1.506,0.427
	c2.121-0.688,4.37-1.042,6.788-1.042c2.976,0,4.65,1.042,5.581,2.046c2.789-1.321,6.044-2.046,9.355-2.046
	c4.036,0,5.653,2.046,6.249,3.255c0.706,1.469,1.376,4.631-2.344,9.392l-13.131,16.887c-0.539,0.688-1.358,1.078-2.212,1.078
	H452.255z"/>
<path fill="#040000" d="M406.139,260.491c-1.08,0-2.027-0.595-2.511-1.562c-0.465-0.967-0.354-2.102,0.316-2.957l18.971-24.402
	c0.316-0.372,0.688-0.669,1.134-0.874c0.037-0.52,0.242-1.042,0.577-1.488l5.728-7.347c0.521-0.688,1.34-1.097,2.214-1.097h10.229
	c1.06,0,2.027,0.614,2.493,1.581c0.484,0.967,0.372,2.121-0.297,2.957l-5.729,7.347c-0.335,0.465-0.855,0.8-1.394,0.967
	c-0.057,0.502-0.261,0.985-0.577,1.395l-19.008,24.402c-0.52,0.688-1.338,1.078-2.194,1.078H406.139z"/>
<path fill="#040000" d="M389.865,260.491c-1.08,0-2.027-0.595-2.511-1.562c-0.41-0.837-0.372-1.823,0.074-2.622l-2.418,3.106
	c-0.52,0.688-1.338,1.078-2.212,1.078h-9.932c-1.08,0-2.047-0.595-2.53-1.562c-0.464-0.967-0.335-2.102,0.317-2.957l18.989-24.402
	c0.539-0.688,1.358-1.078,2.214-1.078h8.983c0.559,0,1.078,0.167,1.526,0.446c2.157-0.725,4.482-1.06,7.179-1.06
	c4.761,0,6.602,2.288,7.272,3.646c1.34,2.715,0.484,6.286-2.436,10.025l-12.369,15.865c-0.52,0.688-1.338,1.078-2.194,1.078H389.865
	z"/>
<path fill="#040000" d="M359.369,260.491c-0.967,0-1.842-0.465-2.362-1.246c-0.503-0.8-0.596-1.804-0.224-2.678l1.413-3.199h-6.212
	l-7.234,6.435c-0.521,0.447-1.191,0.688-1.879,0.688h-10.229c-1.153,0-2.214-0.707-2.604-1.804
	c-0.428-1.079-0.111-2.325,0.763-3.106l38.536-34.11c0.503-0.446,1.191-0.707,1.861-0.707h13.149c0.949,0,1.804,0.484,2.344,1.283
	c0.502,0.781,0.595,1.767,0.223,2.641l-14.562,34.11c-0.428,1.042-1.451,1.692-2.567,1.692H359.369z"/>
<path fill="#040000" d="M301.049,261.109c-6.175,0-8.667-2.455-9.672-4.5c-1.135-2.325-1.451-6.454,3.571-12.889
	c5.356-6.9,15.436-13.856,25.851-13.856c5.934,0,8.314,2.344,9.281,4.334c1.599,3.273,0.391,7.57-3.609,12.703
	c-0.371,0.502-0.706,0.911-1.116,1.376c-0.464,0.52-1.116,0.837-1.804,0.911l-3.701,0.391l0.484,3.534
	c0.149,1.153-0.391,2.25-1.395,2.827C312.171,259.77,307.484,261.109,301.049,261.109"/>
<path fill="#040000" d="M272.934,260.491c-1.08,0-2.047-0.595-2.53-1.562c-0.409-0.837-0.371-1.823,0.075-2.622l-2.418,3.106
	c-0.521,0.688-1.34,1.078-2.214,1.078h-9.932c-1.078,0-2.046-0.595-2.529-1.562c-0.465-0.967-0.335-2.102,0.316-2.957l26.56-34.11
	c0.539-0.688,1.358-1.097,2.212-1.097h9.933c1.059,0,2.046,0.614,2.529,1.581c0.464,0.967,0.335,2.121-0.317,2.957l-3.57,4.594
	c0.484-0.019,0.966-0.019,1.506-0.019c4.91,0,6.937,2.009,7.755,3.701c0.855,1.748,1.172,4.761-2.176,9.039l-13.057,16.795
	c-0.52,0.688-1.358,1.078-2.212,1.078H272.934z"/>
<path fill="#040000" d="M249.956,261.109c-6.548,0-10.9-0.65-12.48-3.868c-1.506-3.069,0.67-6.51,2.734-9.132l4.315-5.561
	c-0.391-0.279-0.744-0.651-0.967-1.116c-0.464-0.948-0.335-2.102,0.317-2.957l5.375-6.9c0.521-0.688,1.34-1.079,2.214-1.079h2.92
	l5.133-6.584c0.521-0.669,1.34-1.078,2.214-1.078h9.466c1.06,0,2.046,0.614,2.492,1.562c0.484,0.967,0.372,2.12-0.278,2.976
	l-2.622,3.348c0.595,0.26,1.116,0.725,1.394,1.339c0.484,0.967,0.372,2.12-0.297,2.957l-5.375,6.919
	c-0.539,0.669-1.358,1.06-2.212,1.06h-3.088l-3.924,5.078h0.074c1.153,0,2.176,0.67,2.604,1.73c0.446,1.042,0.204,2.25-0.595,3.05
	l-7.44,7.439C251.406,260.811,250.7,261.109,249.956,261.109"/>
<path fill="#040000" d="M383.313,225.189c-6.881,0-11.271-1.506-13.392-4.593c-1.098-1.581-2.027-4.315-0.464-8.407
	c0.334-0.911,1.134-1.581,2.101-1.748l7.83-1.451l-1.135-0.204c-0.985-0.167-1.822-0.874-2.176-1.823
	c-0.335-0.967-0.149-2.027,0.521-2.79l16.478-18.766c0.521-0.595,1.284-0.967,2.102-0.967h30.891c1.06,0,2.047,0.614,2.493,1.581
	c0.484,0.967,0.372,2.102-0.279,2.957l-6.174,7.923c-0.54,0.67-1.358,1.079-2.214,1.079h-5.078c0.781,0.651,1.377,1.413,1.823,2.287
	c1.506,3.088,0.502,6.919-2.976,11.401C407.175,220,395.532,225.189,383.313,225.189 M388.54,211.705
	c0.222,0.056,0.502,0.075,0.892,0.075c2.567,0,5.579-1.469,7.161-3.516c0.093-0.111,0.186-0.242,0.26-0.353h-0.093
	c-1.618,0-4.408,0.986-6.1,2.157c-0.464,0.335-1.023,0.502-1.599,0.502c-0.111,0-0.186-0.019-0.297-0.019
	C388.78,210.943,388.706,211.333,388.54,211.705"/>
<path fill="#040000" d="M353.087,224.164c-0.949,0-1.823-0.465-2.344-1.246c-0.502-0.8-0.595-1.804-0.223-2.678l1.413-3.199h-6.213
	l-7.253,6.417c-0.503,0.465-1.173,0.707-1.861,0.707h-10.229c-1.153,0-2.214-0.707-2.604-1.804
	c-0.428-1.079-0.129-2.325,0.763-3.106l38.537-34.11c0.502-0.446,1.172-0.707,1.859-0.707h13.15c0.948,0,1.804,0.502,2.343,1.283
	c0.502,0.781,0.595,1.767,0.224,2.641l-14.563,34.11c-0.428,1.023-1.451,1.692-2.567,1.692H353.087z"/>
<path fill="#040000" d="M309.495,224.164c-0.893,0-1.749-0.409-2.269-1.153c-0.521-0.707-0.67-1.637-0.41-2.474l1.172-3.72
	l-4.891,6.268c-0.52,0.688-1.338,1.078-2.212,1.078h-9.727c-1.078,0-2.065-0.595-2.529-1.562c-0.465-0.967-0.354-2.102,0.316-2.957
	l26.54-34.11c0.539-0.688,1.358-1.097,2.214-1.097h12.461c0.893,0,1.73,0.446,2.251,1.153c0.557,0.707,0.706,1.636,0.446,2.492
	l-1.377,4.519l5.524-7.068c0.521-0.688,1.34-1.097,2.214-1.097h9.727c1.078,0,2.046,0.614,2.529,1.581
	c0.465,0.967,0.335,2.12-0.316,2.957l-26.56,34.11c-0.52,0.688-1.338,1.078-2.212,1.078H309.495z"/>
<path fill="#040000" d="M266.682,225.176c-7.104,0-9.968-2.808-11.121-5.171c-2.102-4.278-0.261-10.173,5.449-17.502
	c9.02-11.568,22.281-19.064,33.794-19.064c7.03,0,9.857,2.827,11.029,5.171c2.083,4.296,0.297,10.117-5.319,17.334
	C291.27,217.811,278.326,225.176,266.682,225.176 M272.988,211.469c2.194,0,7.328-2.38,12.441-8.964
	c2.307-2.976,2.976-4.593,3.163-5.375h-0.093c-2.158,0-7.44,2.399-12.443,8.816c-2.269,2.902-3.013,4.706-3.199,5.524H272.988z"/>
<path fill="#040000" d="M229.1,225.176c-5.245,0-8.834-1.376-10.694-4.055c-1.078-1.599-2.046-4.445-0.353-8.816
	c0.279-0.707,0.837-1.265,1.544-1.562l11.309-4.743c-0.41-0.614-0.707-1.265-0.893-1.99c-0.856-3.441,1.34-6.789,3.068-9.002
	c5.375-6.919,15.122-11.569,24.197-11.569c5.058,0,8.425,1.172,10.248,3.553c0.967,1.246,1.897,3.441,0.967,6.788
	c-0.205,0.818-0.782,1.488-1.563,1.804l-10.564,4.612c0.967,0.986,1.451,2.046,1.693,2.92c0.745,2.734-0.242,5.896-2.957,9.392
	C248.741,220.676,239.515,225.176,229.1,225.176 M234.885,209.126c-0.019,0.111-0.037,0.204-0.075,0.297
	c-0.409,1.228-0.297,1.823-0.242,1.897c0.037,0.037,0.279,0.149,0.781,0.149c1.748,0,2.697-0.334,3.236-0.669
	C238.585,210.799,234.978,209.163,234.885,209.126 M251.828,197.52c0.036-0.186,0.074-0.39,0.149-0.558
	c0.018-0.056,0.036-0.093,0.036-0.149c-0.093,0-0.204-0.018-0.335-0.018c-0.595,0-1.078,0.037-1.506,0.093L251.828,197.52z"/>
<path fill="#040000" d="M200.835,224.174c-0.893,0-1.73-0.428-2.269-1.153c-0.521-0.725-0.688-1.655-0.409-2.51l1.32-4.129
	l-5.226,6.714c-0.521,0.67-1.34,1.079-2.214,1.079H181.92c-1.078,0-2.046-0.614-2.529-1.563c-0.464-0.967-0.335-2.12,0.317-2.976
	l26.559-34.11c0.521-0.688,1.34-1.079,2.214-1.079h16.423c5.746,0,8.09,2.307,9.02,4.222c1.005,2.046,1.358,5.542-2.64,10.676
	c-3.924,5.021-8.035,8.146-13.205,9.932l-2.251,12.591c-0.242,1.339-1.394,2.306-2.752,2.306H200.835z M213.65,198.229
	c0.241-0.093,0.446-0.223,0.65-0.353h-0.372L213.65,198.229z"/>
<path fill="#040000" d="M148.482,224.164c-1.08,0-2.047-0.595-2.53-1.562c-0.446-0.967-0.335-2.102,0.317-2.957l26.559-34.11
	c0.539-0.688,1.358-1.097,2.214-1.097h26.429c1.059,0,2.046,0.614,2.51,1.581c0.484,0.967,0.354,2.12-0.297,2.957l-6.1,7.83
	c-0.539,0.669-1.358,1.078-2.212,1.078h-4.78c0.353,0.279,0.67,0.614,0.874,1.042c0.465,0.948,0.335,2.102-0.317,2.957l-5.951,7.644
	c-0.54,0.688-1.359,1.079-2.233,1.079h-12.237l-0.093,0.13h11.382c1.06,0,2.046,0.614,2.511,1.563
	c0.484,0.967,0.353,2.12-0.297,2.957l-6.1,7.83c-0.54,0.688-1.358,1.078-2.214,1.078H148.482z"/>
<path fill="#040000" d="M114.017,224.161c-1.08,0-2.065-0.595-2.53-1.563c-0.484-0.948-0.353-2.102,0.299-2.957l26.559-34.11
	c0.521-0.688,1.34-1.079,2.214-1.079h15.827c5.71,0,8.035,2.325,8.984,4.24c1.098,2.214,1.395,6.1-3.236,12.033
	c-6.305,8.146-15.418,13.001-24.309,13.001h-3.98l-7.309,9.374c-0.521,0.67-1.34,1.06-2.214,1.06H114.017z M144.668,199.573
	c0.706-0.353,1.431-0.837,2.139-1.599h-0.912L144.668,199.573z"/>
<path fill="#FFFFFF" d="M124.32,221.364l8.146-10.453h5.357c7.979,0,16.292-4.427,22.095-11.885
	c5.319-6.826,4.352-11.773-3.534-11.773h-15.828l-26.54,34.11H124.32z M138.437,203.007l6.081-7.83h3.516
	c2.51,0,3.756,1.042,1.544,3.887c-2.195,2.79-5.078,3.942-7.664,3.942H138.437z"/>
<polygon fill="#FFFFFF" points="175.908,221.369 182.007,213.539 164.897,213.539 169.36,207.811 182.974,207.811 188.926,200.148 
	175.331,200.148 179.274,195.089 195.381,195.089 201.462,187.259 175.033,187.259 148.474,221.369 "/>
<path fill="#FFFFFF" d="M213.07,221.363l2.548-14.246c5.318-1.488,9.466-4.39,13.446-9.486c4.725-6.082,3.199-10.378-4.147-10.378
	h-16.442l-26.559,34.11h10.118l9.801-12.591h3.032l-4.037,12.591H213.07z M207.621,201.425l4.947-6.342h4.333
	c2.287,0,2.753,1.19,1.32,3.013c-1.599,2.064-4.017,3.329-6.267,3.329H207.621z"/>
<path fill="#FFFFFF" d="M240.258,208.472c2.232,1.005,2.306,1.991,1.208,3.404c-1.171,1.544-2.957,2.399-6.119,2.399
	c-2.771,0-4.519-1.916-3.199-5.766l-11.494,4.817c-2.195,5.71,0.577,9.039,8.443,9.039c9.504,0,18.004-4.147,23.788-11.587
	c4.148-5.338,3.013-8.648-1.134-10.285l-4.725-1.823c-1.637-0.651-2.083-1.488-1.338-2.455c1.023-1.301,2.603-2.213,5.988-2.213
	c2.437,0,3.776,1.525,2.939,3.887l11.178-4.855c1.227-4.464-1.655-6.77-8.518-6.77c-8.798,0-17.52,4.761-21.984,10.471
	c-4.148,5.338-3.161,8.109,0.967,9.932L240.258,208.472z"/>
<path fill="#FFFFFF" d="M266.682,222.375c10.379,0,22.598-6.566,31.618-18.153c8.723-11.196,6.863-17.966-3.496-17.966
	c-10.378,0-22.802,6.696-31.562,17.966C254.203,215.81,256.323,222.375,266.682,222.375 M272.988,214.284
	c-3.832,0-4.39-3.329,0.855-10.062c5.245-6.733,11.216-9.876,14.656-9.876c3.831,0,4.389,3.143-0.856,9.876
	C282.399,210.956,276.503,214.284,272.988,214.284"/>
<path fill="#FFFFFF" d="M322.392,221.369l26.559-34.11h-9.745l-5.822,7.477c-3.403,4.37-11.028,16.013-11.028,16.013l-0.204-0.056
	c0,0,2.957-6.287,4.147-10.657l3.869-12.778h-12.461l-26.56,34.11h9.747l5.245-6.733c4.668-6.007,11.977-17.092,11.977-17.092
	l0.168-0.056c0,0-3.664,7.347-4.706,10.899l-4.073,12.982H322.392z"/>
<path fill="#FFFFFF" d="M363.508,221.376l14.563-34.11h-13.149l-38.537,34.11h10.229l8.017-7.123H356.2l-3.107,7.123H363.508z
	 M353.484,206.33c4.24-3.719,7.662-6.788,10.991-10.192h0.186c-2.046,3.403-3.328,6.565-4.965,10.192H353.484z"/>
<path fill="#FFFFFF" d="M419.89,195.178l6.174-7.923h-30.873l-16.46,18.766l10.34,1.748c1.934-1.358,5.301-2.678,7.7-2.678
	c3.516,0,4.52,1.711,2.027,4.91c-2.176,2.79-6.082,4.593-9.373,4.593c-3.274,0-4.52-1.618-3.46-3.98l-13.893,2.585
	c-2.194,5.709,1.135,9.169,11.234,9.169c11.234,0,22.188-4.761,28.14-12.405c6.324-8.146,2.287-11.866-6.9-11.866
	c-3.05,0-6.566,0.837-8.742,1.934l-0.149-0.037l4.483-4.817H419.89z"/>
<path fill="#FFFFFF" d="M257.368,250.864c-5.301,0-5.822,0-3.46-3.05l5.934-7.607h4.444l5.375-6.918h-4.426l5.952-7.644h-9.467
	l-5.952,7.644h-4.296l-5.375,6.918h3.813l-7.496,9.615c-5.133,6.603-2.828,8.481,7.551,8.481L257.368,250.864z"/>
<path fill="#FFFFFF" d="M282.87,257.694l13.074-16.794c3.776-4.854,2.475-8.22-3.384-8.22c-4.017,0-6.362,0.744-8.966,2.232
	l8.816-11.327h-9.932l-26.559,34.11h9.932l11.68-15.009c1.861-1.73,4.372-2.79,6.398-2.79c1.748,0,2.009,1.097,0.465,3.068
	l-11.457,14.73H282.87z"/>
<path fill="#FFFFFF" d="M323.256,246.423c0.391-0.446,0.688-0.837,1.005-1.246c5.914-7.607,4.668-12.498-3.46-12.498
	c-8.983,0-18.301,5.914-23.639,12.777c-6.1,7.83-4.464,12.852,3.888,12.852c6.174,0,10.452-1.395,16.514-4.817l-0.706-5.115
	c-3.236,1.897-6.715,2.845-9.523,2.845c-2.789,0-4.295-1.004-3.441-2.845L323.256,246.423z M308.024,242.964
	c1.99-2.008,4.668-3.291,7.253-3.291c2.344,0,3.088,0.874,2.362,2.232L308.024,242.964z"/>
<path fill="#FFFFFF" d="M369.776,257.701l14.563-34.11h-13.149l-38.537,34.11h10.229l8.017-7.142h11.569l-3.107,7.142H369.776z
	 M359.753,242.655c4.24-3.719,7.662-6.788,10.991-10.192h0.205c-2.047,3.403-3.348,6.565-4.985,10.192H359.753z"/>
<path fill="#FFFFFF" d="M399.82,257.694l12.348-15.883c3.776-4.836,3.404-9.132-2.64-9.132c-4.334,0-7.533,0.967-10.732,3.236
	l2.047-2.622h-8.984l-18.989,24.401h9.932l11.68-15.009c1.841-1.73,4.372-2.79,6.398-2.79c1.748,0,2.009,1.097,0.465,3.068
	l-11.475,14.73H399.82z"/>
<path fill="#FFFFFF" d="M437.073,230.931l5.728-7.346h-10.229l-5.729,7.346H437.073z M416.094,257.694l18.989-24.401h-9.951
	l-18.989,24.401H416.094z"/>
<path fill="#FFFFFF" d="M462.191,257.694l13.131-16.869c3.645-4.687,2.882-8.146-1.693-8.146c-3.831,0-7.886,1.097-10.918,3.459
	c0.521-1.934-0.892-3.459-4.017-3.459c-4.222,0-7.625,1.227-10.285,3.18l1.99-2.567h-8.964l-19.007,24.401h9.932l11.587-14.879
	c1.599-1.562,3.217-2.79,5.003-2.79c1.711,0,1.413,1.004-0.204,3.069l-11.364,14.599h9.839l11.588-14.879
	c1.358-1.469,2.993-2.79,4.947-2.79c1.673,0,1.487,0.967-0.131,3.069l-11.364,14.599H462.191z"/>
<path fill="#FFFFFF" d="M500.594,250.733c-0.465,0.056-0.93,0.093-1.32,0.093c-1.488,0-2.176-0.391-1.284-1.525l6.36-8.183
	c4.241-5.468,2.995-8.425-5.282-8.425c-5.542,0-10.229,1.339-15.046,3.906l-1.172,6.361c3.217-1.916,8.09-3.311,9.912-3.311
	c2.047,0,2.4,0.037,1.655,0.93c-0.539,0.707-2.64,1.432-6.416,2.027c-7.849,1.302-12.554,4.147-16.125,8.741
	c-3.31,4.24-2.307,6.956,3.05,6.956c3.571,0,7.347-0.614,10.62-2.529c-0.484,1.525,1.544,2.529,4.52,2.529
	c0.91,0,1.915-0.111,2.9-0.297L500.594,250.733z M487.836,249.375c-1.321,1.228-3.478,2.195-4.725,2.195
	c-1.134,0-1.544-0.391-0.874-1.265c1.005-1.283,2.287-2.139,4.277-2.585c1.544-0.335,2.548-0.651,3.46-1.078L487.836,249.375z"/>
<path fill="#FFFFFF" d="M521.055,250.864c-5.301,0-5.822,0-3.442-3.05l5.934-7.607h4.426l5.375-6.918h-4.426l5.952-7.644h-9.467
	l-5.952,7.644h-4.295l-5.375,6.918h3.831l-7.514,9.615c-5.133,6.603-2.828,8.481,7.551,8.481L521.055,250.864z"/>
<path fill="#FFFFFF" d="M550.662,230.931l5.728-7.346h-10.229l-5.729,7.346H550.662z M529.683,257.694l18.989-24.401h-9.932
	l-18.99,24.401H529.683z"/>
<path fill="#FFFFFF" d="M573.006,245.48c6.026-7.737,4.575-12.796-4.465-12.796c-8.964,0-18.431,5.059-24.438,12.796
	c-6.027,7.737-4.483,12.833,4.501,12.833C557.625,258.313,566.98,253.218,573.006,245.48 M554.11,251.227
	c-2.846,0-2.66-2.232,0.074-5.747c2.678-3.441,5.914-5.617,8.798-5.617c2.845,0,2.622,2.176-0.056,5.617
	C560.192,248.995,556.974,251.227,554.11,251.227"/>
<path fill="#FFFFFF" d="M595.214,257.694l12.368-15.883c3.776-4.836,3.385-9.132-2.66-9.132c-4.334,0-7.514,0.967-10.732,3.236
	l2.065-2.622h-9.002l-18.989,24.401h9.951l11.661-15.009c1.861-1.73,4.372-2.79,6.398-2.79c1.748,0,2.009,1.097,0.465,3.068
	l-11.457,14.73H595.214z"/>
</svg>
