<?xml version="1.0" encoding="utf-8"?>
<!-- Generator: Adobe Illustrator 27.0.1, SVG Export Plug-In . SVG Version: 6.00 Build 0)  -->
<svg version="1.1" id="레이어_1" xmlns="http://www.w3.org/2000/svg" xmlns:xlink="http://www.w3.org/1999/xlink" x="0px"
	 y="0px" viewBox="0 0 720 332.154" enable-background="new 0 0 720 332.154" xml:space="preserve">
<path fill="#231815" d="M494.068,124.582c-2.389,2.537-6.637,6.447-13.295,8.201c-0.317,0.064-0.486,0.106-0.592,0.106
	c-0.085,0-0.105-0.021-0.105-0.042c0.021-0.064,0.233-0.169,0.592-0.317c6.785-2.558,11.625-8.687,11.668-8.835
	c0.042-0.106,0.021-0.254-0.085-0.254c-0.93,0-2.536,0.423-4.629,1.036c-0.592,0.169-1.226,0.401-1.818,0.401
	c-1.099,0-1.691-0.57-1.289-1.543c0.169-0.423,0.486-0.803,0.55-0.803c0.064,0,0.127,0.106,0.212,0.169
	c0.465,0.317,0.972,0.528,1.437,0.528c0.064,0,0.127,0,0.211-0.021c2.367-0.296,3.974-0.571,5.2-0.698
	c0.212-0.021,0.634-0.254,0.824-0.338c0.233-0.127,0.486-0.127,0.486-0.127c0.719,0,2.325,0.592,2.008,1.395
	c-0.063,0.19-0.254,0.381-0.55,0.592C494.618,124.159,494.28,124.35,494.068,124.582"/>
<path fill="#231815" d="M506.586,127.327c-0.719,0.339-1.987,0.74-2.896,1.015l-0.042,0.064c-3.128,4.185-7.461,5.284-7.673,5.284
	c-0.105,0-0.127-0.021-0.105-0.064c0.021-0.042,0.148-0.169,0.402-0.254c2.832-1.162,5.475-4.354,5.876-5.347
	c0.106-0.254,0.042-0.402-0.338-0.465c-0.105-0.021-0.148-0.085-0.105-0.148c0.085-0.275,0.634-0.529,1.31-0.529
	c1.099,0,1.036,0.592,0.993,0.824c1.12-0.697,1.966-1.374,1.987-1.437c0.043-0.063-0.021-0.19-0.063-0.19
	c-1.332,0.085-3.318,0.508-4.502,0.888c-0.507,0.17-1.015,0.275-1.416,0.275c-0.655,0-1.268-0.359-0.93-1.184
	c0.212-0.528,0.465-0.634,0.486-0.634c0.063,0,0.085,0.064,0.127,0.127c0.19,0.296,0.55,0.359,0.951,0.359
	c0.211,0,0.444,0,0.676-0.042c1.775-0.19,2.938-0.36,4.354-0.465c0.317-0.021,0.634-0.275,0.951-0.275
	c0.423,0,1.796,0.761,1.522,1.437c-0.042,0.085-0.085,0.148-0.148,0.212C507.664,127.116,507.051,127.095,506.586,127.327"/>
<path fill="#231815" d="M516.681,126.33c-0.338,0-0.655-0.148-0.824-0.529c-0.169-0.465-0.465-1.035-0.867-1.458
	c-0.824-0.866-1.036-1.099-0.951-1.31c0-0.021,0.021-0.043,0.106-0.043c0.042,0,0.127,0.021,0.253,0.043
	c0.423,0.126,1.247,0.254,1.839,0.359c0.867,0.148,2.431,0.57,1.86,1.924C517.885,125.907,517.209,126.33,516.681,126.33
	 M514.483,131.888c-0.529,0.212-0.909,0.36-1.543,0.36c-1.014,0-1.796-0.613-1.374-1.67c0.169-0.359,0.592-0.993,0.803-0.993
	c0.084,0,0.148,0.085,0.211,0.169c0.19,0.296,0.698,0.465,1.184,0.465c1.628,0,9.596-4.079,12.745-6.383
	c0.36-0.254,0.571-0.381,0.655-0.381c0.021,0,0.021,0.021,0.021,0.043c-0.042,0.085-0.19,0.275-0.465,0.55
	C523.973,126.985,518.118,130.409,514.483,131.888"/>
<path fill="#231815" d="M536.268,128.504c-0.402,0-0.698-0.19-0.846-0.591c-0.423-1.311-0.444-1.881-1.67-2.473
	c-0.127,0.296-0.233,0.592-0.359,0.888c-0.824,2.051-1.691,4.291-1.924,4.967c-0.042,0.126-0.085,0.254-0.106,0.381
	c-0.021,0.021-0.042,0.063-0.042,0.085c-0.211,0.528-0.782,1.395-1.522,1.395c-0.761,0-0.634-1.543-0.402-2.093
	c0.064-0.169,0.19-0.359,0.317-0.507c0.465-0.528,1.586-3.023,2.452-5.136c1.395-3.424,1.458-3.593,0.634-4.079
	c-0.106-0.063-0.338-0.063-0.296-0.169c0.064-0.148,0.719-0.571,1.416-0.571c1.015,0,1.733,0.74,1.458,1.417
	c-0.084,0.19-0.19,0.381-0.401,0.676c-0.148,0.212-0.613,1.268-1.141,2.579h0.127c1.184,0,4.629,0.148,3.826,2.135
	C537.621,127.786,537.05,128.504,536.268,128.504"/>
<path fill="#231815" d="M553.102,130.775c-0.402,0.994-1.374,1.353-1.839,1.353c-0.719,0-0.676-0.592-0.634-0.867
	c0.042-0.486,0.042-0.951-0.085-1.395c-2.811,0.909-7.948,2.452-8.708,2.452c-0.507,0-1.691-0.233-1.163-1.586
	c0.19-0.444,0.359-0.634,0.55-0.634c0.084,0,0.148,0,0.212,0.063c0.275,0.19,0.465,0.233,0.719,0.233c0.106,0,0.444,0,1.754-0.127
	c2.114-2.409,4.354-5.813,4.545-6.299c0.148-0.317-0.275-0.55-0.465-0.634c-0.169,0-0.233-0.042-0.19-0.148
	c0.084-0.233,0.719-0.571,1.543-0.571c0.93,0,1.839,0.402,1.522,1.226c-0.296,0.676-3.784,4.396-6.024,6.298
	c1.775-0.254,3.889-0.592,5.517-0.93c-0.042-0.169-0.127-0.317-0.19-0.465c-0.317-0.719-0.719-1.248-0.803-1.458
	c-0.127-0.296-0.169-0.465-0.148-0.508c0.021-0.042,0.042-0.063,0.084-0.063c0.148,0,0.486,0.296,0.655,0.402
	C550.861,127.584,553.799,129.084,553.102,130.775"/>
<path fill="#231815" d="M582,122.022c-0.254,0.635-1.712,1.924-4.291,3.425c0.253,0.232,0.402,0.507,0.275,0.824
	c0,0,0,0-0.338,0.592c-0.233,0.402-0.655,1.332-1.057,2.325c-0.317,0.761-0.634,1.543-0.803,2.134
	c-0.021,0.127-0.042,0.275-0.106,0.381c0,0.043-0.021,0.064-0.021,0.085c-0.275,0.655-0.761,1.417-1.501,1.417
	c-0.698,0-0.655-1.458-0.402-2.093c0.064-0.169,0.212-0.359,0.338-0.528c0.381-0.444,0.867-1.332,1.247-2.262
	c0.253-0.634,0.465-1.31,0.55-1.881c-3.995,2.093-7.44,3.023-8.053,3.023c-0.063,0-0.084,0-0.084-0.021
	c0.021-0.042,0.232-0.148,0.655-0.317c2.938-1.099,9.66-5.031,11.308-7.272c0.042-0.042,0.042-0.084,0.063-0.126
	c0.127-0.275-0.085-0.55-0.253-0.719c-0.064-0.064-0.169-0.106-0.127-0.17c0.042-0.105,0.655-0.295,1.057-0.295
	C581.429,120.543,582.296,121.303,582,122.022"/>
<path fill="#231815" d="M589.017,126.33c-0.338,0-0.655-0.148-0.824-0.529c-0.169-0.465-0.465-1.035-0.888-1.458
	c-0.803-0.866-1.015-1.099-0.93-1.31c0-0.021,0.021-0.043,0.106-0.043c0.042,0,0.127,0.021,0.254,0.043
	c0.423,0.126,1.247,0.254,1.839,0.359c0.867,0.148,2.431,0.57,1.86,1.924C590.201,125.907,589.546,126.33,589.017,126.33
	 M586.819,131.888c-0.529,0.212-0.909,0.36-1.543,0.36c-1.014,0-1.796-0.613-1.374-1.67c0.169-0.359,0.592-0.993,0.803-0.993
	c0.084,0,0.148,0.085,0.211,0.169c0.19,0.296,0.698,0.465,1.184,0.465c1.628,0,9.596-4.079,12.745-6.383
	c0.36-0.254,0.571-0.381,0.655-0.381c0,0,0.021,0.021,0,0.043c-0.021,0.085-0.19,0.275-0.444,0.55
	C596.31,126.985,590.455,130.409,586.819,131.888"/>
<path fill="#231815" d="M627.26,125.558c-0.084,0-0.169,0-0.254-0.021c-0.592-0.064-1.395-0.148-1.86-0.169
	c-0.571-0.043-1.141-0.043-1.691-0.043l-0.211,0.444c-0.19,0.465-0.444,0.951-0.698,1.374c-3.297,5.242-9.512,6.13-9.533,6.13
	h-0.064c0.021-0.064,0.169-0.127,0.486-0.253c2.367-0.846,4.988-2.494,7.081-5.496c0.401-0.592,0.824-1.437,1.141-2.114
	c-0.74,0.043-1.501,0.127-2.22,0.254c-0.232,0.634-0.422,1.311-0.57,1.712c-0.064,0.17-0.148,0.36-0.211,0.571
	c-0.064,0.148-0.613,1.437-1.48,1.437c-0.592,0-0.803-0.824-0.528-1.458c0.042-0.148,0.148-0.275,0.253-0.401
	c0.169-0.212,0.317-0.381,0.402-0.613c0.148-0.317,0.317-0.634,0.486-0.973c-0.571,0.106-1.163,0.254-1.755,0.402
	c-0.592,0.169-1.247,0.317-1.839,0.317c-1.205,0-1.522-0.74-1.226-1.437c0.021-0.021,0.212-0.507,0.381-0.507
	c0.085,0,0.148,0.106,0.275,0.232c0.127,0.19,0.74,0.317,1.416,0.317c0.085,0,0.211,0,3.149-0.359
	c0.211-0.655,0.359-1.501,0.106-1.797c-0.064-0.148-0.148-0.254-0.317-0.317c-0.042-0.021-0.127-0.043-0.211-0.063
	c-0.084,0-0.148-0.043-0.169-0.064c-0.021-0.021-0.021-0.021-0.021-0.063c0.021-0.043,0.613-0.423,1.332-0.423
	c0.909,0,1.522,0.613,1.353,1.226c-0.105,0.423-0.233,0.74-0.486,1.331c0.803-0.085,1.564-0.169,2.261-0.254
	c0.93-2.262,1.036-2.6,0.36-2.917l-0.19-0.042c-0.106-0.043-0.127-0.064-0.127-0.064c0.043-0.105,0.74-0.486,1.374-0.486
	c0.423,0,1.881,0.211,1.374,1.458c-0.148,0.359-0.38,0.719-0.55,1.078c-0.127,0.254-0.253,0.507-0.38,0.803
	c0.275-0.042,0.528-0.042,0.761-0.063c0.423-0.043,0.845-0.169,1.268-0.275c0.211-0.063,0.423-0.063,0.613-0.063
	c0.592,0,2.135,0.317,1.86,0.993C628.38,124.946,628.106,125.558,627.26,125.558 M628,122.515c-0.127,0.401-0.529,0.613-0.824,0.613
	c-0.148,0-0.275-0.063-0.317-0.212c-0.275-0.761-0.402-1.078-0.994-1.31c-0.021-0.021-0.042-0.021-0.042-0.021
	c0.021-0.021,0.084-0.127,0.676-0.127C626.669,121.458,628.444,121.479,628,122.515 M629.734,121.817
	c-0.212,0.486-0.613,0.571-0.782,0.571c-0.127,0-0.275-0.063-0.338-0.19c-0.275-0.824-0.528-1.035-0.993-1.226
	c-0.042-0.021-0.085-0.043-0.085-0.064c0.042-0.126,0.719-0.126,0.761-0.126C628.994,120.782,630.072,121.014,629.734,121.817"/>
<path fill="#231815" d="M647.981,128.504c-0.402,0-0.698-0.19-0.846-0.591c-0.423-1.311-0.444-1.881-1.67-2.473
	c-0.127,0.296-0.233,0.592-0.359,0.888c-0.824,2.051-1.691,4.291-1.924,4.967c-0.042,0.126-0.084,0.254-0.106,0.381
	c-0.021,0.021-0.042,0.063-0.042,0.085c-0.211,0.528-0.782,1.395-1.522,1.395c-0.761,0-0.634-1.543-0.402-2.093
	c0.064-0.169,0.19-0.359,0.317-0.507c0.465-0.528,1.586-3.023,2.452-5.136c1.395-3.424,1.458-3.593,0.634-4.079
	c-0.106-0.063-0.338-0.063-0.296-0.169c0.064-0.148,0.719-0.571,1.416-0.571c1.015,0,1.733,0.74,1.458,1.417
	c-0.084,0.19-0.19,0.381-0.402,0.676c-0.148,0.212-0.613,1.268-1.141,2.579h0.127c1.184,0,4.629,0.148,3.826,2.135
	C649.334,127.786,648.763,128.504,647.981,128.504"/>
<path fill="#231815" d="M667.053,123.138c-0.064,0.17-0.233,0.339-0.402,0.444c-0.084,0.042-0.19,0.105-0.275,0.169
	c-0.085,0.042-0.127,0.085-0.169,0.148c-2.346,3.086-5.961,7.06-12.576,9.153c-0.402,0.126-0.634,0.19-0.74,0.19
	c-0.063,0-0.084-0.021-0.084-0.043c0.042-0.063,0.296-0.232,0.698-0.381c6.066-2.473,10.42-9.089,10.505-9.342
	c0.064-0.106,0.042-0.212-0.063-0.212h-0.042c-1.374,0.106-2.748,0.508-3.889,0.803c-0.233,0.043-0.444,0.106-0.655,0.106
	c-0.253,0-0.571-0.085-0.824-0.338c-0.274,0.761-0.423,1.5-0.613,2.262c-0.106,0.359-0.19,0.74-0.275,0.93
	c-0.275,0.571-0.719,1.057-1.48,1.057c-0.613,0-0.824-1.035-0.613-1.543c0.042-0.148,0.148-0.275,0.211-0.359
	c0.212-0.275,0.465-0.74,0.655-1.205c0.592-1.437,0.317-2.134-0.381-2.367c-0.105-0.042-0.359-0.021-0.317-0.106
	c0.042-0.084,0.761-0.676,1.627-0.676c0.74,0,1.311,0.359,1.416,0.909c0.275,0.085,0.592,0.106,0.867,0.106h0.381
	c1.036-0.106,2.515-0.402,3.762-0.528c0.402-0.043,0.74-0.381,1.141-0.423h0.148C665.911,121.891,667.285,122.568,667.053,123.138"
	/>
<path fill="#231815" d="M680.531,122.022c-0.275,0.635-1.712,1.924-4.291,3.425c0.253,0.232,0.402,0.507,0.275,0.824
	c0,0,0,0-0.338,0.592c-0.233,0.402-0.655,1.332-1.078,2.325c-0.296,0.761-0.613,1.543-0.782,2.134
	c-0.021,0.127-0.042,0.275-0.106,0.381c0,0.043-0.021,0.064-0.021,0.085c-0.275,0.655-0.761,1.417-1.501,1.417
	c-0.698,0-0.655-1.458-0.402-2.093c0.064-0.169,0.19-0.359,0.338-0.528c0.359-0.444,0.845-1.332,1.226-2.262
	c0.254-0.634,0.486-1.31,0.571-1.881c-3.995,2.093-7.44,3.023-8.053,3.023c-0.063,0-0.084,0-0.084-0.021
	c0.021-0.042,0.212-0.148,0.634-0.317c2.959-1.099,9.681-5.031,11.33-7.272c0.042-0.042,0.042-0.084,0.063-0.126
	c0.127-0.275-0.084-0.55-0.253-0.719c-0.064-0.064-0.169-0.106-0.148-0.17c0.064-0.105,0.655-0.295,1.078-0.295
	C679.939,120.543,680.827,121.303,680.531,122.022"/>
<path fill="#231815" d="M694.864,124.988c-0.169,0.423-0.803,0.677-1.205,1.078c-2.6,2.579-5.58,5.306-12.111,6.976
	c-0.381,0.106-0.613,0.148-0.719,0.148c-0.063,0-0.085-0.021-0.085-0.042c0.021-0.064,0.275-0.169,0.719-0.317
	c6.088-2.093,10.442-7.567,10.442-7.567c0.064-0.148-0.021-0.296-0.148-0.296c-0.697,0.043-2.452,0.444-4.629,1.099
	c-0.423,0.148-1.078,0.339-1.67,0.339c-1.226,0-1.501-0.846-1.205-1.607c0.148-0.381,0.444-0.676,0.592-0.676
	c0.064,0,0.084,0.106,0.148,0.19c0.338,0.359,0.719,0.465,1.162,0.465c0.148,0,0.338,0,0.529-0.021
	c2.304-0.275,3.509-0.55,4.925-0.719c0.359-0.021,0.697-0.317,1.057-0.359h0.105C693.469,123.678,695.161,124.269,694.864,124.988
	 M694.125,121.775c-0.148,0.36-0.529,0.635-1.184,0.804c-1.184,0.381-3.445,0.697-4.396,0.697c-1.078,0-1.754-0.592-1.395-1.48
	c0.021-0.021,0.254-0.57,0.465-0.57c0.106,0,0.148,0.063,0.169,0.105c0.253,0.317,0.655,0.423,1.141,0.423
	c0.93,0,2.579-0.359,3.17-0.592c0.148-0.085,0.528-0.19,0.676-0.19C693.004,120.972,694.442,121.014,694.125,121.775"/>
<path fill="#231815" d="M709.565,122.022c-0.254,0.635-1.712,1.924-4.291,3.425c0.254,0.232,0.423,0.507,0.296,0.824
	c-0.021,0-0.021,0-0.359,0.592c-0.211,0.402-0.655,1.332-1.057,2.325c-0.317,0.761-0.613,1.543-0.782,2.134
	c-0.042,0.127-0.063,0.275-0.105,0.381c-0.021,0.043-0.021,0.064-0.042,0.085c-0.254,0.655-0.74,1.417-1.48,1.417
	c-0.719,0-0.676-1.458-0.423-2.093c0.085-0.169,0.212-0.359,0.338-0.528c0.381-0.444,0.867-1.332,1.247-2.262
	c0.254-0.634,0.486-1.31,0.571-1.881c-4.016,2.093-7.44,3.023-8.074,3.023c-0.042,0-0.085,0-0.063-0.021
	c0.021-0.042,0.211-0.148,0.634-0.317c2.938-1.099,9.66-5.031,11.308-7.272c0.042-0.042,0.063-0.084,0.084-0.126
	c0.105-0.275-0.106-0.55-0.275-0.719c-0.064-0.064-0.148-0.106-0.127-0.17c0.042-0.105,0.655-0.295,1.057-0.295
	C708.994,120.543,709.861,121.303,709.565,122.022"/>
<path fill="#231815" d="M718.358,128.504c-0.402,0-0.698-0.19-0.846-0.591c-0.423-1.311-0.444-1.881-1.67-2.473
	c-0.127,0.296-0.232,0.592-0.359,0.888c-0.824,2.051-1.691,4.291-1.924,4.967c-0.042,0.126-0.085,0.254-0.106,0.381
	c-0.021,0.021-0.042,0.063-0.042,0.085c-0.211,0.528-0.782,1.395-1.522,1.395c-0.761,0-0.634-1.543-0.402-2.093
	c0.064-0.169,0.19-0.359,0.317-0.507c0.465-0.528,1.586-3.023,2.452-5.136c1.395-3.424,1.458-3.593,0.634-4.079
	c-0.106-0.063-0.338-0.063-0.296-0.169c0.064-0.148,0.719-0.571,1.416-0.571c1.015,0,1.733,0.74,1.458,1.417
	c-0.085,0.19-0.19,0.381-0.402,0.676c-0.148,0.212-0.613,1.268-1.141,2.579h0.127c1.184,0,4.629,0.148,3.826,2.135
	C719.711,127.786,719.14,128.504,718.358,128.504"/>
<path fill="#231815" d="M341.725,120.215c0.317,0,0.655,0.021,1.014,0.085c0.359,0.021,0.55,0.254,0.55,0.634
	c0,0.359-0.169,0.951-0.486,1.733c-0.317,0.804-0.719,1.713-1.163,2.748c-0.465,1.036-0.993,2.114-1.564,3.276
	c-0.55,1.142-1.078,2.241-1.543,3.319c-0.465,1.078-0.845,2.071-1.184,3.001c-0.317,0.93-0.465,1.67-0.465,2.198
	c0,0.613,0.19,1.12,0.634,1.543c0.423,0.423,0.951,0.634,1.585,0.634c0.528,0,1.078-0.148,1.627-0.486
	c0.528-0.296,1.036-0.655,1.522-1.035c0.486-0.381,0.909-0.74,1.268-1.057c0.38-0.317,0.634-0.486,0.803-0.486l0.233,0.064v0.232
	c0,0.55-0.296,1.099-0.93,1.607c-0.613,0.528-1.374,0.972-2.241,1.374c-0.867,0.38-1.754,0.719-2.642,0.951
	c-0.888,0.212-1.564,0.338-2.05,0.338c-1.289,0-2.367-0.317-3.192-0.972c-0.824-0.655-1.226-1.564-1.226-2.748
	c0-0.169,0.127-0.676,0.359-1.5c0.253-0.804,0.549-1.776,0.93-2.917c0.38-1.099,0.803-2.325,1.247-3.594
	c0.444-1.268,0.888-2.494,1.31-3.614c0.423-1.162,0.782-2.156,1.12-2.98c0.317-0.824,0.528-1.353,0.655-1.586
	c0.127-0.212,0.338-0.381,0.677-0.486c0.317-0.085,0.676-0.169,1.078-0.19c0.402-0.063,0.782-0.085,1.163-0.085H341.725z
	 M343.479,108.442c0.93,0,1.691,0.212,2.262,0.613c0.592,0.423,0.888,1.057,0.888,1.944c0,0.93-0.359,1.649-1.057,2.22
	c-0.719,0.55-1.543,0.846-2.536,0.846c-0.634,0-1.268-0.254-1.881-0.74c-0.634-0.486-0.951-1.036-0.951-1.67
	c0-0.845,0.296-1.585,0.909-2.24C341.725,108.78,342.507,108.442,343.479,108.442"/>
<path fill="#231815" d="M360.735,119.483l0.422,0.043l0.613,0.55c0,0.275-0.064,0.507-0.148,0.719
	c-0.106,0.19-0.148,0.423-0.148,0.677l0.719-0.169c0.719-0.486,1.438-0.804,2.114-0.994c0.698-0.19,1.437-0.401,2.241-0.719
	l2.494-0.063c0.634,0,1.289,0.106,1.966,0.317c0.655,0.19,1.247,0.486,1.775,0.888c0.528,0.381,0.972,0.846,1.31,1.374
	c0.338,0.528,0.507,1.141,0.507,1.818c0,0.951-0.211,1.965-0.634,3.001c-0.423,1.015-0.888,2.05-1.395,3.128
	c-0.507,1.057-0.951,2.093-1.395,3.087c-0.423,1.014-0.634,1.987-0.634,2.917l0.064,1.395c0.254,0.254,0.465,0.444,0.676,0.571
	c0.19,0.148,0.486,0.212,0.909,0.212c0.275,0,0.528-0.043,0.782-0.085c0.233-0.064,0.507-0.127,0.782-0.212
	c0.571-0.402,1.099-0.782,1.564-1.142c0.486-0.338,1.015-0.782,1.586-1.289l0.719,0.275c-0.275,0.634-0.74,1.226-1.395,1.796
	c-0.634,0.592-1.374,1.057-2.177,1.48c-0.803,0.401-1.627,0.74-2.494,0.972c-0.888,0.232-1.67,0.359-2.41,0.359
	c-1.205,0-2.135-0.359-2.748-1.099c-0.634-0.761-0.93-1.67-0.93-2.727c0-1.036,0.169-2.093,0.571-3.17
	c0.381-1.078,0.803-2.135,1.268-3.213c0.465-1.078,0.888-2.156,1.268-3.213c0.381-1.057,0.571-2.134,0.571-3.212
	c0-0.74-0.296-1.268-0.909-1.607c-0.592-0.338-1.247-0.507-1.924-0.507c-0.296,0-0.571,0.021-0.824,0.042
	c-0.275,0.043-0.55,0.064-0.867,0.064c-1.416,0.803-2.621,1.712-3.572,2.832c-0.994,1.12-1.797,2.303-2.431,3.572
	c-0.655,1.289-1.205,2.579-1.649,3.89c-0.444,1.31-0.845,2.536-1.205,3.677c-0.36,1.099-0.74,2.093-1.12,2.938
	c-0.381,0.867-0.845,1.458-1.374,1.776c-0.761,0.126-1.501,0.126-2.262,0.042c-0.74-0.106-1.501-0.085-2.262,0.085l-0.127-0.676
	c0-0.106,0.127-0.486,0.359-1.099c0.254-0.634,0.55-1.417,0.909-2.367c0.359-0.93,0.782-2.008,1.247-3.192
	c0.465-1.163,0.93-2.389,1.416-3.615c1.141-2.811,2.41-6.024,3.826-9.575c0.021-0.085,0.254-0.126,0.655-0.19
	c0.402-0.043,0.845-0.106,1.331-0.17c0.486-0.063,0.951-0.105,1.395-0.148C360.207,119.505,360.545,119.483,360.735,119.483"/>
<path fill="#231815" d="M407.879,111.825c0.148,0,0.317,0.021,0.486,0.064c0.148,0.042,0.317,0.063,0.486,0.106
	c0.085,0.085,0.127,0.169,0.127,0.275c0,0.148-0.148,0.634-0.444,1.479c-0.275,0.824-0.592,1.733-0.951,2.706
	c-0.381,0.993-0.719,1.924-1.036,2.811c-0.338,0.888-0.55,1.48-0.676,1.775c-0.085,0.064-0.127,0.212-0.127,0.423
	c0,0.359,0.233,0.55,0.677,0.634c0.444,0.106,0.972,0.148,1.543,0.126c0.592-0.021,1.162-0.063,1.733-0.148
	c0.571-0.085,0.972-0.106,1.205-0.106c0.571,0,1.099,0.063,1.585,0.212l0.486,0.465l-0.613,0.55
	c-1.015,0.295-2.135,0.401-3.361,0.317c-1.226-0.106-2.389-0.148-3.424-0.148c-0.254,0-0.444,0.085-0.634,0.275
	c-0.19,0.169-0.317,0.359-0.402,0.55c-0.169,0.507-0.465,1.353-0.93,2.494c-0.465,1.163-0.951,2.347-1.437,3.615
	c-0.465,1.268-0.888,2.409-1.268,3.487c-0.359,1.079-0.529,1.776-0.529,2.114c0,0.74,0.233,1.374,0.719,1.902
	c0.486,0.55,1.141,0.824,1.987,0.824c0.655,0,1.205-0.126,1.649-0.359c0.444-0.211,0.845-0.465,1.205-0.76
	c0.359-0.296,0.719-0.592,1.099-0.909c0.359-0.339,0.761-0.592,1.205-0.804l0.486,0.254c-0.211,0.613-0.655,1.162-1.353,1.733
	c-0.719,0.55-1.522,1.035-2.431,1.458c-0.909,0.423-1.839,0.782-2.769,1.035c-0.909,0.254-1.712,0.381-2.346,0.381
	c-1.543,0-2.705-0.486-3.509-1.458c-0.803-0.993-1.205-2.135-1.205-3.403c0-0.782,0.19-1.712,0.592-2.79s0.845-2.177,1.353-3.255
	c0.507-1.12,0.972-2.177,1.374-3.15c0.402-0.972,0.613-1.775,0.613-2.346c0-0.317-0.127-0.507-0.338-0.613
	c-0.233-0.106-0.486-0.19-0.803-0.212c-0.296-0.042-0.592-0.042-0.93,0c-0.317,0.021-0.571,0.043-0.782,0.043
	c-0.275,0-0.613,0-1.015-0.021c-0.38-0.021-0.55-0.212-0.55-0.592v-0.317c0.148-0.19,0.486-0.317,0.972-0.359
	c0.507-0.021,1.057-0.043,1.649-0.043c0.571,0,1.141-0.042,1.67-0.085c0.529-0.063,0.846-0.211,0.972-0.528
	c0.19-0.402,0.486-1.099,0.867-2.093c0.381-0.972,0.803-1.965,1.226-3.023c0.423-1.057,0.824-2.029,1.226-2.896
	c0.402-0.867,0.74-1.353,1.036-1.458c0.571-0.085,1.163-0.127,1.818-0.169C406.695,111.847,407.308,111.825,407.879,111.825"/>
<path fill="#231815" d="M432.041,104.167l0.74,0.064c-0.085,0.592-0.317,1.353-0.676,2.325c-0.359,0.951-0.803,2.029-1.332,3.17
	c-0.528,1.142-1.078,2.325-1.67,3.552c-0.592,1.204-1.12,2.388-1.627,3.508s-0.93,2.135-1.247,3.044
	c-0.317,0.909-0.486,1.627-0.486,2.156l0.063,0.212c0.634-0.212,1.205-0.465,1.691-0.761c0.486-0.254,0.972-0.55,1.458-0.824
	c0.486-0.275,1.036-0.507,1.628-0.697c0.613-0.19,1.374-0.275,2.304-0.275c2.304,0,4.037,0.592,5.178,1.712
	c1.163,1.162,1.733,2.769,1.733,4.882c0,0.93-0.169,1.902-0.486,2.938c-0.317,0.993-0.655,1.924-0.972,2.769
	c-0.845,2.431-1.839,4.566-2.959,6.468c-1.141,1.902-2.452,3.635-3.974,5.157c-1.522,1.543-3.255,2.896-5.242,4.079
	c-1.987,1.184-4.248,2.283-6.848,3.276c-0.803,0.296-1.564,0.655-2.283,1.078c-0.74,0.423-1.564,0.635-2.494,0.635l-0.592-0.106
	l0.296-0.55c1.057-0.444,1.987-0.824,2.875-1.142c0.867-0.317,1.712-0.634,2.515-0.993c0.803-0.338,1.606-0.782,2.388-1.31
	c0.782-0.529,1.628-1.184,2.515-1.987c0.634-0.634,1.353-1.479,2.156-2.578c0.782-1.099,1.543-2.347,2.325-3.699
	c0.761-1.353,1.522-2.811,2.241-4.311c0.719-1.522,1.374-3.023,1.944-4.481c0.571-1.437,1.015-2.832,1.332-4.079
	c0.317-1.289,0.486-2.367,0.486-3.213c0-0.993-0.254-1.776-0.74-2.325c-0.486-0.55-1.31-0.824-2.473-0.824
	c-1.458,0-2.769,0.444-3.911,1.374c-1.141,0.93-2.177,2.093-3.086,3.466c-0.909,1.395-1.712,2.917-2.431,4.544
	c-0.698,1.649-1.332,3.213-1.839,4.65c-0.528,1.438-0.993,2.663-1.438,3.678c-0.422,1.036-0.782,1.606-1.12,1.755
	c-0.317,0.106-0.655,0.169-1.015,0.169c-0.211,0-0.528,0-0.951,0.021c-0.423,0.021-0.845,0.021-1.268-0.021
	c-0.423-0.043-0.803-0.085-1.162-0.148c-0.338-0.042-0.507-0.169-0.507-0.359c0-0.042,0.063-0.211,0.19-0.528
	c0.127-0.317,0.254-0.676,0.423-1.057c0.169-0.402,0.296-0.761,0.444-1.142c0.148-0.359,0.253-0.634,0.296-0.824
	c0.021-0.148,0.233-0.697,0.592-1.669c0.359-0.951,0.824-2.156,1.395-3.657c0.571-1.48,1.205-3.128,1.945-4.988
	c0.719-1.839,1.458-3.741,2.198-5.665c0.761-1.924,1.48-3.784,2.22-5.602c0.719-1.839,1.374-3.466,1.966-4.925
	c0.592-1.437,1.057-2.621,1.416-3.53c0.36-0.909,0.571-1.374,0.613-1.458c0.106-0.232,0.423-0.402,0.867-0.507
	c0.465-0.106,0.993-0.19,1.543-0.275c0.571-0.064,1.12-0.106,1.649-0.127S431.766,104.167,432.041,104.167"/>
<path fill="#231815" d="M460.078,120.198c0.782,0,1.607,0.106,2.494,0.339c0.888,0.211,1.691,0.55,2.452,0.993
	c0.74,0.423,1.374,0.993,1.86,1.627c0.507,0.634,0.782,1.395,0.782,2.24c0,1.438-0.338,2.685-0.951,3.784
	c-0.634,1.078-1.458,1.987-2.515,2.705c-1.036,0.697-2.241,1.268-3.594,1.627c-1.353,0.359-2.769,0.55-4.227,0.55
	c-1.247,0-2.283-0.169-3.086-0.528c-0.803-0.338-1.606-0.93-2.41-1.691h-0.486c-0.085,0.38-0.148,0.739-0.212,1.141
	c-0.063,0.381-0.105,0.761-0.105,1.142c0,1.564,0.402,2.811,1.205,3.741c0.782,0.93,2.072,1.417,3.889,1.417
	c1.331,0,2.515-0.275,3.509-0.803c1.014-0.571,1.881-1.163,2.621-1.839c0.719-0.655,1.31-1.289,1.775-1.818
	c0.465-0.55,0.824-0.803,1.057-0.803l0.55,0.317v0.212c0,0.74-0.423,1.48-1.268,2.24c-0.846,0.74-1.881,1.395-3.086,1.987
	c-1.226,0.592-2.473,1.079-3.762,1.438c-1.289,0.359-2.367,0.55-3.213,0.55c-2.854,0-4.925-0.719-6.172-2.156
	c-1.247-1.479-1.881-3.445-1.881-5.918c0-1.839,0.402-3.53,1.247-5.051c0.824-1.522,1.924-2.854,3.276-3.974
	c1.353-1.078,2.896-1.944,4.671-2.558C456.295,120.494,458.155,120.198,460.078,120.198 M458.873,121.466
	c-0.803,0-1.649,0.275-2.515,0.804c-0.867,0.528-1.67,1.226-2.389,2.008c-0.74,0.803-1.332,1.649-1.775,2.558
	c-0.486,0.909-0.719,1.712-0.719,2.409c0,0.655,0.169,1.205,0.486,1.627c0.317,0.423,0.74,0.761,1.205,0.993
	c0.486,0.254,1.036,0.423,1.649,0.55c0.613,0.085,1.184,0.148,1.754,0.148c0.93,0,1.818-0.275,2.642-0.867
	c0.824-0.571,1.543-1.268,2.177-2.093c0.613-0.824,1.12-1.712,1.48-2.663c0.38-0.951,0.55-1.796,0.55-2.578
	c0-0.846-0.317-1.586-0.972-2.177c-0.634-0.571-1.437-0.888-2.367-0.888c-0.19,0-0.402,0.043-0.592,0.085
	C459.275,121.446,459.085,121.466,458.873,121.466"/>
<polygon fill="#231815" points="295.735,153.894 294.065,158.08 386.898,158.08 388.568,153.894 "/>
<polygon fill="#231815" points="287.591,269.547 200.232,332.154 206.552,332.154 311.539,256.907 310.757,256.865 311.666,256.252 
	349.712,160.101 324.517,176.291 "/>
<polygon fill="#231815" points="712.083,179.571 699.95,179.571 711.638,150.044 686.422,166.234 681.138,179.571 662.707,179.571 
	661.248,183.228 679.701,183.228 651.208,254.143 626.986,271.94 633.284,271.961 674.966,241.989 674.184,241.968 675.093,241.334 
	698.492,183.228 710.645,183.228 "/>
<polygon fill="#231815" points="384.905,30.685 372.751,30.685 384.461,1.158 359.245,17.327 353.961,30.685 335.529,30.685 
	334.071,34.321 352.502,34.321 324.031,105.235 281.081,136.708 287.401,136.729 347.789,93.102 347.006,93.082 347.916,92.448 
	371.314,34.321 383.468,34.321 "/>
<polygon fill="#231815" points="511.604,160.106 486.387,176.298 456.014,251.926 410.337,285.596 416.636,285.596 453.71,257.738 
	453.667,257.823 456.035,256.174 479.539,240.321 "/>
<polygon fill="#231815" points="178.366,0.838 171.518,5.488 138.777,90.712 145.541,86.316 "/>
<polygon fill="#231815" points="639.735,149.745 632.887,154.395 600.146,239.619 606.91,235.202 "/>
<polygon fill="#231815" points="513.967,36.815 513.819,37.175 497.374,47.849 501.75,36.752 501.94,36.625 501.813,36.625 
	504.645,29.481 478.647,47.658 478.626,47.68 462.181,58.375 473.616,29.481 447.618,47.658 433.71,82.788 439.142,92.173 
	452.501,82.788 459.941,63.976 476.428,53.26 464.718,82.788 470.108,92.405 483.551,82.788 495.134,53.471 511.62,42.755 
	495.768,82.788 501.433,92.173 514.58,82.788 539.944,18.68 "/>
<polygon fill="#231815" points="333.631,37.392 333.821,37.266 333.674,37.266 336.464,30.185 310.93,48.151 310.909,48.194 
	294.761,58.762 305.984,30.185 280.451,48.151 266.797,82.9 272.144,92.201 285.249,82.9 292.584,64.3 308.753,53.689 297.276,82.9 
	302.539,92.412 315.728,82.9 "/>
<polygon fill="#231815" points="433.042,175.587 419.684,184.993 412.243,203.784 395.778,214.521 407.467,184.993 402.098,175.376 
	388.655,184.993 377.051,214.31 360.585,225.026 376.438,184.993 370.773,175.587 357.626,184.993 332.24,249.122 358.239,230.966 
	358.366,230.627 374.831,219.933 370.435,231.008 370.244,231.135 370.393,231.135 367.56,238.3 393.558,220.123 393.558,220.102 
	410.024,209.427 398.589,238.3 424.587,220.123 438.495,184.993 "/>
<path fill="#231815" d="M74.705,119.071c-8.708,16.508-19.319,31.705-36.461,40.668c-5.495,2.896-10.991,4.333-16.444,4.333
	c-3.614,0-6.743-0.677-9.427-2.008c-15.937-7.969-14.965-31.114-5.622-43.648c8.159-10.928,21.623-16.889,35.087-19.002
	c-13.802,4.904-27.858,13.993-32.952,28.387c-3.657,10.23-3.361,24.539,7.313,30.881c17.459,10.336,32.149-14.606,38.025-27.414
	c11.879-25.83,21.623-50.412,32.741-76.516c0.782-1.818,3.805-12.618,5.855-13.274c0.317-0.106,0.909-0.148,1.775-0.148
	c0.888,0,9.068,0.126,9.427,0.085c0.359-0.063,0.951,0.063,1.775,0.381c0.317,0.507,0.465,0.993,0.465,1.395
	c0,0.317-0.317,1.374-0.993,3.171C97.194,67.962,88.951,90.22,78.7,111.166C77.389,113.83,76.079,116.45,74.705,119.071"/>
<path fill="#231815" d="M91.023,0.052c9.638-0.359,19.298,1.142,28.302,4.629c10.082,3.868,19.256,10.843,24.307,20.397
	c6.933,13.062,3.805,28.81-5.009,40.16c-11.203,14.437-30.796,23.314-48.932,23.314c-0.993,0-2.029-0.148-3.065-0.465
	c-1.057-0.317-2.072-0.444-3.065-0.444c-1.353,0,2.705-3.17,2.705-3.17c1.226,0.381,2.536,0.571,3.889,0.571
	c24.498,0,45.169-22.384,40.688-47.579c-5.39-30.268-43.5-37.941-68.653-27.605c-23.06,9.491-32.487,29.845-32.487,54.089
	c-0.254,0.508,0.719,4.122,0.423,4.608c-0.317,0.507-0.972,1.585-1.606,1.479c-6.066-1.226-2.431-20.439-1.437-24.159
	c2.388-8.962,7.208-17.248,13.633-23.949C53.737,8.38,72.295,0.729,91.023,0.052"/>
<path fill="#231815" d="M162.421,34.481c1.247-0.761,2.473-1.543,3.699-2.303c1.247-0.782,2.642-1.437,4.185-1.945
	c1.543-0.528,3.488-0.761,5.855-0.761c5.876,0,10.294,1.586,13.211,4.777c2.959,3.213,4.418,7.715,4.418,13.591
	c0,2.579-0.423,5.284-1.247,8.117c-0.824,2.811-1.649,5.411-2.452,7.799c-2.177,6.679-4.714,12.682-7.588,17.988
	c-2.896,5.306-6.256,10.082-10.104,14.352c-3.868,4.27-9.85,9.427-14.901,12.745c-5.58,3.615-13.718,8.582-19.805,11.308
	c-2.832,1.268-10.737,6.067-13.845,6.489c23.018-11.731,36.25-23.927,46.543-47.389c1.86-4.206,5.115-12.724,6.552-16.825
	c1.437-4.059,2.579-7.863,3.403-11.414c0.824-3.551,1.226-6.51,1.226-8.877c0-2.79-0.613-4.946-1.86-6.489
	c-1.226-1.564-3.34-2.325-6.32-2.325c-3.72,0-7.017,1.311-9.977,3.868C160.497,39.765,161.174,35.264,162.421,34.481"/>
<path fill="#231815" d="M622.323,183.391c1.247-0.782,2.473-1.543,3.72-2.325c1.226-0.761,2.621-1.416,4.164-1.924
	c1.543-0.528,3.509-0.761,5.876-0.761c5.855,0,10.273,1.586,13.211,4.777c2.938,3.192,4.397,7.715,4.397,13.591
	c0,2.579-0.423,5.284-1.247,8.117c-0.824,2.811-1.628,5.411-2.452,7.799c-2.177,6.679-4.692,12.661-7.588,17.966
	c-2.875,5.306-6.257,10.103-10.104,14.373c-3.868,4.27-9.85,9.406-14.88,12.725c-5.58,3.635-13.739,8.581-19.826,11.329
	c-2.832,1.248-10.737,6.067-13.845,6.489c23.018-11.752,36.25-23.927,46.544-47.389c1.86-4.227,5.115-12.745,6.552-16.825
	c1.437-4.059,2.579-7.884,3.403-11.435c0.824-3.551,1.226-6.489,1.226-8.877c0-2.79-0.613-4.925-1.839-6.468
	c-1.247-1.564-3.361-2.325-6.341-2.325c-3.699,0-7.017,1.289-9.977,3.868C620.399,188.654,621.076,184.152,622.323,183.391"/>
<path fill="#231815" d="M244.005,29.57c0.93,0,2.579,0.275,4.946,0.782c2.367,0.528,4.735,1.184,7.102,2.008
	c2.367,0.824,4.481,1.776,6.341,2.854c1.86,1.078,2.79,2.134,2.79,3.17c0,1.965-0.676,4.608-2.029,7.948
	c-1.332,3.339-2.769,6.89-4.312,10.653c-1.543,3.783-3.001,7.44-4.333,11.034c-1.332,3.614-2.008,6.658-2.008,9.131
	c0,2.072,0.549,3.488,1.627,4.312c1.078,0.824,2.6,1.247,4.544,1.247c1.564,0,3.107-0.464,4.65-1.395
	c1.543-0.93,2.959-1.966,4.249-3.17c1.289-1.184,2.452-2.241,3.466-3.171c1.036-0.909,1.86-1.374,2.473-1.374l0.93,0.148
	c-0.402,2.071-1.543,3.932-3.403,5.644c-1.839,1.712-3.995,3.17-6.405,4.397c-2.431,1.226-4.925,2.198-7.504,2.853
	c-2.557,0.677-4.777,1.015-6.637,1.015c-2.79,0-4.862-0.465-6.257-1.395c-1.395-0.93-2.367-2.007-2.938-3.255
	c-0.571-1.226-0.93-2.409-1.078-3.551c-0.148-1.12-0.381-1.881-0.698-2.304l-1.543,0.317c-1.247,1.543-2.748,2.917-4.544,4.164
	c-1.818,1.248-3.784,2.283-5.876,3.15c-2.114,0.888-4.249,1.585-6.426,2.093c-2.156,0.507-4.164,0.782-6.024,0.782
	c-2.684,0-5.052-0.507-7.102-1.543c-2.071-1.036-3.784-2.452-5.179-4.248c-1.395-1.797-2.452-3.868-3.17-6.172
	c-0.719-2.346-1.078-4.713-1.078-7.186c0-5.854,1.332-11.203,4.016-16c2.684-4.777,6.193-8.878,10.505-12.259
	c4.333-3.403,9.195-6.024,14.606-7.884C233.119,30.499,238.551,29.57,244.005,29.57 M237.516,33.141
	c-3.699,0-7.144,1.205-10.357,3.615c-3.192,2.431-5.939,5.432-8.264,9.047c-2.304,3.614-4.143,7.419-5.475,11.498
	c-1.353,4.059-2.008,7.694-2.008,10.886c0,4.016,0.634,7.228,1.923,9.638c1.289,2.431,4.249,3.635,8.877,3.635
	c2.896,0,5.517-0.676,7.884-2.071c2.367-1.395,4.545-3.192,6.489-5.411c1.966-2.219,3.72-4.756,5.263-7.652
	c1.543-2.853,2.938-5.791,4.164-8.729c1.226-2.917,2.346-5.771,3.34-8.56c0.951-2.79,1.818-5.242,2.536-7.419
	c0.19-0.824,0.296-1.479,0.296-1.987l-0.761-1.86c-1.86-1.755-4.037-2.959-6.574-3.635C242.335,33.48,239.883,33.141,237.516,33.141
	"/>
<path fill="#231815" d="M422.273,29.576c1.458,0,2.684,0.36,3.72,1.079c1.796,1.247,2.938,3.212,3.847,5.157
	c0.867,1.839,1.247,4.544,3.192,5.602c3.297,1.754,8.772-2.135,10.695-4.629c-2.304,3.763-5.052,6.151-6.489,6.912
	c-1.458,0.761-2.959,0.972-4.291,2.093c-0.528,0.423-1.036,1.775-1.564,4.101c-0.507,2.303-1.247,5.094-2.241,8.328
	c-0.972,3.234-2.283,6.701-3.932,10.336c-1.649,3.677-3.784,7.038-6.404,10.145c-2.621,3.065-5.876,5.644-9.744,7.715
	c-3.847,2.05-8.476,3.086-13.824,3.086c-3.086,0-5.94-0.55-8.56-1.627c-2.642-1.079-4.904-2.558-6.806-4.418
	c-1.923-1.818-3.382-4.079-4.418-6.7c-1.036-2.621-1.522-5.496-1.522-8.56c0-4.862,0.697-9.237,2.156-13.126
	c1.438-3.932,3.466-7.398,6.088-10.421c2.642-3.044,5.749-5.622,9.363-7.736c3.593-2.114,7.609-3.826,12.048-5.178
	c2.05-0.613,4.016-0.761,5.876-0.444c1.839,0.295,3.805,0.444,5.876,0.444c1.014,0,2.008-0.338,3.001-1.078
	C419.313,29.936,420.645,29.576,422.273,29.576 M386.742,71.575c0,4.84,1.247,8.286,3.699,10.273
	c2.473,2.008,5.982,3.023,10.505,3.023c1.036,0,2.071-0.106,3.107-0.317c1.015-0.212,1.945-0.613,2.769-1.226
	c2.367-0.74,4.798-2.452,7.271-5.179c2.473-2.727,4.692-5.813,6.637-9.279c1.966-3.445,3.551-6.933,4.798-10.484
	c1.226-3.551,1.839-6.531,1.839-8.898c0-0.909-0.613-1.67-1.839-2.22c-1.247-0.57-2.642-1.289-4.185-2.177
	c-1.543-0.866-2.98-1.987-4.312-3.318c-1.353-1.332-2.114-3.192-2.325-5.559c-0.212-0.402-0.507-0.761-0.93-1.079
	c-0.402-0.295-0.867-0.464-1.395-0.464c-4.312,0-8.074,1.247-11.266,3.72c-3.192,2.452-5.876,5.538-8.032,9.258
	c-2.177,3.699-3.762,7.715-4.798,12.048C387.249,64.029,386.742,67.982,386.742,71.575"/>
<path fill="#231815" d="M527.657,177.768c0.824,0,1.712,0.063,2.642,0.232c0.93,0.148,1.374,0.74,1.374,1.776
	c0,1.036-0.401,2.642-1.226,4.882c-0.824,2.198-1.839,4.735-3.022,7.631c-1.184,2.896-2.494,5.918-3.932,9.11
	c-1.437,3.192-2.748,6.278-3.953,9.258c-1.184,3.001-2.177,5.771-3.001,8.349c-0.824,2.579-1.416,3.995-1.416,5.538
	c0,1.648,0.55,3.065,1.627,4.248s2.452,1.796,4.101,1.775c4.819-0.085,11.012-4.079,14.056-7.778
	c-1.586,3.466-5.263,6.574-8.286,8.708c-2.029,1.458-4.27,2.262-6.531,2.896c-2.262,0.655-4.016,0.973-5.242,0.973
	c-3.297,0-6.003-0.888-8.117-2.706c-2.114-1.796-3.17-4.333-3.17-7.63c0-0.528,0.317-1.902,0.93-4.185
	c0.613-2.262,1.416-4.967,2.389-8.095c0.972-3.149,2.05-6.489,3.17-10.04c1.12-3.551,2.241-6.912,3.318-10.103
	c1.078-3.213,2.029-5.96,2.854-8.264c0.824-2.325,1.395-3.804,1.712-4.418c0.296-0.613,0.867-1.057,1.691-1.31
	c0.824-0.254,1.754-0.465,2.79-0.613c1.036-0.169,2.008-0.232,2.938-0.232H527.657z M529.623,152.573
	c2.367,0,4.312,0.571,5.791,1.713c1.501,1.12,2.241,2.938,2.241,5.39c0,2.578-0.909,4.65-2.705,6.193
	c-1.797,1.522-3.932,2.303-6.405,2.303c-1.649,0-3.276-0.676-4.861-1.987c-1.607-1.353-2.41-2.896-2.41-4.65
	c0-2.367,0.782-4.46,2.325-6.256C525.142,153.483,527.15,152.573,529.623,152.573"/>
<path fill="#231815" d="M463.606,177.768c0.824,0,1.691,0.063,2.621,0.232c0.93,0.148,1.395,0.74,1.395,1.776
	c0,1.036-0.402,2.642-1.226,4.882c-0.824,2.198-1.839,4.735-3.022,7.631c-1.184,2.896-2.494,5.918-3.953,9.11
	c-1.437,3.192-2.748,6.278-3.932,9.258c-1.184,3.001-2.198,5.771-3.001,8.349c-0.824,2.579-1.416,3.995-1.416,5.538
	c0,1.648,0.55,3.065,1.627,4.248c1.078,1.184,2.452,1.796,4.08,1.775c4.84-0.085,11.012-4.079,14.056-7.778
	c-1.564,3.466-5.242,6.574-8.286,8.708c-2.008,1.458-4.249,2.262-6.51,2.896c-2.283,0.655-4.016,0.973-5.263,0.973
	c-3.297,0-5.982-0.888-8.095-2.706c-2.135-1.796-3.17-4.333-3.17-7.63c0-0.528,0.296-1.902,0.93-4.185
	c0.613-2.262,1.395-4.967,2.389-8.095c0.972-3.149,2.029-6.489,3.17-10.04c1.12-3.551,2.241-6.912,3.318-10.103
	c1.078-3.213,2.029-5.96,2.854-8.264c0.824-2.325,1.395-3.804,1.691-4.418c0.317-0.613,0.888-1.057,1.712-1.31
	c0.824-0.254,1.754-0.465,2.79-0.613c1.014-0.169,1.987-0.232,2.917-0.232H463.606z M465.572,152.573
	c2.367,0,4.291,0.571,5.791,1.713c1.501,1.12,2.241,2.938,2.241,5.39c0,2.578-0.909,4.65-2.705,6.193
	c-1.797,1.522-3.953,2.303-6.405,2.303c-1.649,0-3.276-0.676-4.861-1.987c-1.607-1.353-2.41-2.896-2.41-4.65
	c0-2.367,0.782-4.46,2.325-6.256C461.091,153.483,463.099,152.573,465.572,152.573"/>
<path fill="#231815" d="M621.807,173.213c-0.782,1.839-2.22,3.403-3.128,4.608c-0.951,1.268-2.029,2.473-3.192,3.572
	c-2.663,2.473-5.918,4.629-9.448,5.665c-4.206,1.226-8.624,1.373-12.936,2.029l-0.148,1.226c0,1.437,0.169,2.896,0.528,4.417
	c0.359,1.48,0.55,3.001,0.55,4.524c0,3.72-0.845,7.377-2.558,10.991c-1.691,3.594-3.931,6.89-6.721,9.871
	c-2.769,2.98-5.897,5.495-9.343,7.567c-3.445,2.071-6.933,3.403-10.42,4.037c-0.571-0.19-1.184-0.275-1.628-0.613
	c1.839-0.528,4.798-3.424,5.517-4.185c2.135-2.262,3.932-4.819,5.58-7.461c0.909-1.417,1.733-2.832,2.515-4.312
	c0.74-1.374,1.226-3.086,2.114-4.397c2.431-5.664,3.784-11.879,3.382-18.03c-0.275-4.185-1.585-8.666-4.988-11.097
	c-2.706-1.881-6.32-2.156-9.491-1.205c-3.171,0.951-5.918,2.981-8.243,5.348c-4.08,4.164-7.017,9.385-9.026,14.88
	c-1.987,5.517-3.086,11.287-3.847,17.079c-0.402,3.001-0.676,6.193,0.719,8.877c1.12,2.22,3.276,3.784,5.58,4.693
	c3.488,1.395,7.631,1.881,11.351,2.24c3.086,0.317,5.961,0.867,8.645,1.649c2.684,0.761,4.883,1.987,6.637,3.678
	c1.755,1.733,2.642,4.333,2.642,7.821c0,4.228-1.12,8.159-3.339,11.815c-2.219,3.657-5.073,6.807-8.56,9.491
	c-3.509,2.663-7.334,4.798-11.52,6.341c-4.164,1.522-8.159,2.325-11.985,2.325c-3.192,0-6.278-0.296-9.258-0.846
	c-2.98-0.591-5.643-1.585-7.969-3.022c-2.304-1.438-4.164-3.403-5.559-5.876c-1.395-2.473-2.072-5.665-2.072-9.575
	c0-2.663,0.655-5.242,2.008-7.652c1.332-2.409,3.023-4.523,5.094-6.341c2.05-1.797,4.397-3.234,7.039-4.312
	c2.621-1.078,5.221-1.627,7.8-1.627h1.226l-2.6,1.036c-4.523,2.24-6.13,5.411-8.455,8.391c-2.304,2.981-3.466,7.145-3.466,12.513
	c0,4.206,1.162,7.652,3.466,10.272c2.325,2.642,5.644,3.932,9.977,3.932c3.699,0,7.123-0.93,10.273-2.79
	c3.149-1.839,5.855-4.228,8.117-7.166c2.262-2.938,4.037-6.214,5.326-9.807c1.289-3.593,1.924-7.144,1.924-10.653
	c0-2.473-0.867-4.185-2.621-5.115c-1.754-0.93-3.932-1.585-6.574-1.987c-2.621-0.423-5.453-0.846-8.497-1.331
	c-3.044-0.444-5.855-1.48-8.497-3.065c-2.621-1.606-4.798-4.079-6.553-7.419c-1.754-3.34-2.621-8.075-2.621-14.141
	c0-4.312,0.951-8.476,2.917-12.513c1.966-3.995,4.544-7.567,7.736-10.653c3.192-3.086,6.827-5.516,10.885-7.334
	c4.058-1.797,8.222-2.706,12.428-2.706c2.494,0,4.904,0.254,7.271,0.698c2.367,0.486,4.692,0.993,6.954,1.543
	c2.262,0.592,4.566,1.078,6.891,1.564c2.304,0.444,4.65,0.93,7.102,0.93c4.27,0,8.264,0.19,12.386-0.93
	C611.577,179.977,619.714,176.173,621.807,173.213"/>
</svg>
