<?xml version="1.0" encoding="utf-8"?>
<!-- Generator: Adobe Illustrator 27.0.1, SVG Export Plug-In . SVG Version: 6.00 Build 0)  -->
<svg version="1.1" id="레이어_1" xmlns="http://www.w3.org/2000/svg" xmlns:xlink="http://www.w3.org/1999/xlink" x="0px"
	 y="0px" viewBox="0 0 720 109.694" enable-background="new 0 0 720 109.694" xml:space="preserve">
<path d="M270.981,26.658l0.16,0.879c0.306,2.558,0.786,5.103,0.786,8.633c0,5.343-1.199,12.778-8.234,23.423
	c-6.382,9.74-10.459,11.672-13.657,11.672c-5.29,0-9.993-8.234-9.993-18c0-4.224,0.879-12.311,8.874-20.372
	c10.153-10.392,20.865-10.392,25.502-10.392c7.261,0,10.619,1.439,12.857,2.558c8.634,4.223,14.989,13.017,14.989,23.49
	c0,10.379-7.075,22.943-21.211,27.9c-6.808,2.398-12.085,2.958-13.284,2.958l-0.8-0.559c0-0.226,0.173-0.32,2.172-1.119
	c8.301-3.278,23.223-10.779,23.223-30.685c0-3.118,0.306-21.305-19.706-21.505C271.06,25.512,270.981,26.178,270.981,26.658
	 M244.999,51.2c0,5.196,2.078,12.298,6.942,12.298c2.332,0,4.25-0.946,9.753-9.273c4.25-6.475,7.834-15.349,7.834-23.25
	c0-4.797-0.32-5.196-1.346-5.196C260.588,25.778,244.999,36.078,244.999,51.2"/>
<path d="M327.525,19.087c2.278,0.333,4.783,0.453,7.168,0.453c10.126,0,43.901-5.343,47.099-6.609l4.663-2.612
	c2.611,0,13.43,10.912,13.43,14.789c0,0.799,0,2.038-3.997,2.958c-3.97,0.786-21.385,7.168-23.77,10.353
	c-1.372,1.932-2.678,4.157-5.969,15.629c-3.651,12.764-21.185,37.479-41.317,48.631c-3.757,2.052-7.048,3.291-7.861,3.291
	l-0.666-0.56c0-0.346,1.426-0.786,3.611-2.185c11.165-7.128,21.424-20.318,30.871-35.787c6.156-10.073,8.527-19.679,8.527-24.902
	c0-2.518-0.453-4.663-1.479-6.715c-0.906-1.825-1.026-2.052-1.026-2.518l2.385-1.012c1.932,0,4.277,0.213,7.128,1.119l4.423,1.479
	c3.198,0,14.11-10.925,14.11-13.87c0-0.799-0.693-1.705-2.158-1.705c-1.825,0-22.41,1.585-40.611,7.048
	c-1.585,0.453-8.074,3.291-9.553,3.291c-2.731,0-11.605-7.275-11.605-11.259l0.799-0.453L327.525,19.087"/>
<path d="M597.17,20.858c3.864-1.945,4.21-2.172,5.13-2.172c1.359,0,10.792,5.462,10.792,10.352c0,1.372-0.453,1.826-2.505,4.557
	c-3.398,4.317-7.834,25.022-7.834,26.381c0,1.612,0.573,2.052,6.022,5.929l1.372,2.385c0,1.359-1.492,1.932-2.172,1.932
	l-6.942-1.479c-4.543-0.693-10.686-1.026-14.096-1.026c-1.932,0-21.957,1.026-22.983,3.184c-2.158,4.77-2.505,5.689-5.01,5.689
	c-3.518,0-3.518-5.463-3.518-6.822c0-19.905-0.226-36.747-4.09-42.089c-1.706-2.278-2.172-2.505-4.557-3.864l-0.453-0.679
	c0-1.146,3.185-2.851,4.783-2.851c4.65,0,6.822,1.825,7.834,2.611c2.971,2.505,3.078,2.625,5.809,2.625
	C567.938,25.522,594.106,22.324,597.17,20.858 M572.828,29.718c-10.686,1.719-10.686,1.946-10.686,5.25
	c0,3.518,0.906,21.251,0.906,25.235c0,3.877,2.039,3.877,3.184,3.877c0.799,0,4.89-0.693,7.395-1.026
	c1.599-0.24,5.116-0.546,8.42-0.799c5.742-0.44,8.967-0.307,9.54-2.025l3.744-28.313c0-1.266,0-4.317-3.064-4.317
	C586.925,27.6,575.453,29.265,572.828,29.718"/>
<path d="M478.477,48.012l-0.8,0.573c0,0.573,2.838,3.184,4.557,4.769c3.744,3.304,7.275,9.234,9.207,14.004
	c2.052,4.876,3.078,7.514,6.262,7.514c3.744,0.107,5.116-3.651,5.116-6.262C502.819,59.057,484.499,48.012,478.477,48.012"/>
<path d="M437.191,52.227l-2.278,1.706c-0.906,0.799-6.715,6.022-11.152,8.753c-3.291,2.039-4.33,3.185-4.33,5.356
	c0,2.265,1.839,3.744,3.318,4.197l2.158,0.453c7.501,0,12.844-13.75,12.844-19.093L437.191,52.227"/>
<path d="M519.188,16.536c-2.185-1.879-4.663-3.131-7.448-3.757c-2.385-0.746-5.063-1.119-8.034-1.119
	c-1.212,0-2.492,0.12-3.784,0.333l-2.052,0.4l-1.812,0.386c-2.611,0.706-4.97,1.945-7.075,3.757
	c-2.145,1.812-3.211,4.17-3.211,7.035c0,1.212,0.226,2.305,0.613,3.331c-2.212,0.373-6.369,1.372-7.568,1.559
	c-1.932,0.226-7.381,1.146-11.032,1.146c-2.958,0-4.437-0.573-4.437-4.117c0-1.132,0-6.702,1.026-8.754l2.039-3.744
	c0-0.919-2.838-5.929-10.685-5.929c-2.612,0-3.864,0.799-3.864,1.146l2.145,2.958c1.719,3.304,2.398,10.792,2.398,14.563
	c0,3.744-1.133,4.53-5.463,4.77c-3.411,0.12-15.695,0.813-18.307,0.813c-1.706,0-7.515,0-10.126-1.146
	c-1.479-0.56-1.705-0.693-2.158-0.693l-0.799,1.026c0,2.278,5.689,10.006,8.194,10.006l4.557-1.253
	c6.702-1.705,20.345-3.637,21.025-3.637c3.078,0,3.304,2.052,3.304,7.501c0,6.156,0,17.534-0.56,22.877
	c-0.226,1.812-0.799,3.078-2.278,3.078l-5.343-1.492l-0.466,0.453l0.693,1.372c2.265,3.531,2.838,4.437,4.197,8.074
	c2.398,6.595,2.625,7.288,5.116,7.288c6.035,0,6.035-7.514,6.035-9.22c0-4.876-0.573-29.125-0.573-34.575
	c0-6.489,1.039-6.489,10.806-6.489c0.919,0,9.22,0.12,13.55,0.573c1.586,0.226,8.98,1.466,10.686,1.466l2.691-1.266l3.171,0.24
	c1.226,0,2.532-0.107,3.904-0.28c1.372-0.187,2.771-0.52,4.224-1.013c2.891-0.879,5.263-2.185,7.128-3.93
	c1.932-1.799,2.904-4.037,2.904-6.702C522.519,20.56,521.413,18.202,519.188,16.536 M510.315,31.605
	c-0.813,1.08-2.185,1.719-4.117,1.946c-2.545,0-4.663-1.159-6.395-3.491l-1.239-1.905l-0.919-1.866l-0.64-2.318l-0.093-2.451
	c0-2.945,0.386-4.957,1.186-5.995c0.786-1.053,2.012-1.692,3.664-1.932c2.678,0,4.85,1.132,6.502,3.398l1.346,1.945l0.919,2.145
	l0.52,2.145l0.213,2.292C511.261,28.608,510.941,30.646,510.315,31.605"/>
<path d="M719.427,19.478c-0.227,0-5.689,6.182-7.475,8.048c-18.427,19.293-49.018,38.785-54.6,38.785
	c-2.491,0-6.249-1.705-7.728-2.625l-3.411-2.159l-1.146,6.022c0,4.557,8.421,11.831,14.563,11.831c1.706,0,1.932-0.226,4.104-2.838
	c2.385-2.838,8.154-7.208,11.139-9.327C705.277,45.579,720,21.077,720,20.051L719.427,19.478"/>
<path d="M651.703,33.192l0.027,0.107l1.466,0.973c1.479,0.853,3.251,1.279,5.356,1.279c1.639,0,3.238-0.226,4.81-0.666
	c1.332-0.307,2.731-0.799,4.21-1.452c1.466-0.733,2.758-1.599,3.89-2.571l2.984-3.011c0.999-1.159,1.679-2.385,2.079-3.677
	c0.4-1.253,0.586-2.572,0.586-3.917c0-2.545-0.88-4.45-2.572-5.742l-0.04-0.12l-1.452-0.959c-1.479-0.853-3.251-1.266-5.343-1.266
	c-1.652,0-3.238,0.213-4.81,0.626c-1.332,0.333-2.745,0.813-4.224,1.465c-1.466,0.746-2.771,1.586-3.891,2.558l-2.984,3.024
	c-0.986,1.173-1.679,2.398-2.078,3.664c-0.373,1.279-0.573,2.585-0.573,3.917C649.145,29.994,650.011,31.886,651.703,33.192"/>
<path d="M157.915,4.046c0.107,0.107,3.691,4.25,5.076,6.955c2.012,4.051,2.532,4.983,4.65,4.983c1.172,0,2.971-0.413,3.491-2.079
	c2.225-7.275-11.632-11.618-13.75-11.618l-0.853,0.213L157.915,4.046"/>
<path d="M222.269,81.399c-7.195,0.613-26.368,2.905-45.527,2.905c-24.129,0-31.217-2.079-33.962-8.514
	c-0.746-1.665-1.053-2.478-1.053-15.469c0-1.665,0-12.458,0.093-12.978l2.651-2.292l0.733-1.132c0-1.865-6.236-5.516-6.768-5.516
	c-0.413,0-0.733,0.44-3.491,3.331c-1.266,1.359-1.692,1.559-3.704,1.559c-1.905,0-10.259-0.626-12.058-0.626l-0.32,0.307
	l0.426,0.626l1.998,2.398l0.959,0.719c1.266,0,7.408-0.52,8.78-0.52c3.704,0,3.704,0.84,3.704,7.581c0,2.385,0,17.454-0.426,18.587
	c-1.372,3.531-12.271,8.727-13.857,9.247l-1.785,1.332c0,0.12,4.756,8.42,6.342,8.42c1.372,0,1.785-1.759,2.105-3.624
	c0.427-2.278,10.806-14.55,11.645-14.55c1.266,0,3.278,6.142,3.811,7.062c4.13,7.155,12.484,8.834,20.852,9.86
	c9.633,1.146,26.128,1.359,36.08,1.359l12.058-0.213c0.306-1.319,0.906-2.625,1.159-2.998c2.665-3.904,9.46-5.156,10.006-5.396
	c1.279-0.586,1.879-1.252,1.879-1.679L222.269,81.399"/>
<path d="M126.811,28.246l0.027,0.093l1.359,0.893c1.386,0.773,3.038,1.159,4.983,1.159c1.519,0,3.011-0.2,4.464-0.6
	c1.252-0.293,2.545-0.733,3.93-1.319c1.359-0.679,2.571-1.465,3.611-2.345l2.785-2.758l1.639-2.678l0.373,0.173l2.212-0.306
	c1.066,0,4.13-0.213,13.444-0.213h3.704c1.053,0,2.438,0,2.438,1.879l-2.118,8.194c-0.64,0.626-1.279,0.626-3.171,0.626
	c-1.279,0-2.332-0.626-2.758-0.826c-2.225-1.253-5.396-2.905-6.768-2.905l-0.426,0.933c0,0.506,0.426,15.469,0.426,18.373
	c0,8.834-0.213,19.106-0.64,23.769l-0.746,7.168c0,2.279,1.172,2.385,2.225,2.385c1.706,0,5.396-0.733,5.716-3.731
	c0.213-1.879,0.64-1.985,2.012-1.985h22.451c1.479,0,1.479,0.746,1.479,2.505c0,1.332,0.213,2.505,2.758,2.478
	c4.996-0.04,8.66-1.226,8.66-4.131c0-2.198-1.066-26.381-1.066-31.27c0-7.568,0-8.407,0.427-9.14l2.638-2.784
	c0-0.946-6.236-4.464-7.501-4.464c-0.546,0-0.746,0.187-2.438,2.172c-1.279,1.452-2.012,1.452-3.704,1.452h-14.709l-1.159-0.626
	l5.076-6.542c2.532-3.211,2.958-3.531,6.235-3.531h23.49c3.597,0,5.716,0,5.716-1.452c0-0.933-7.395-7.368-8.887-7.368l-1.799,1.452
	c-3.171,4.556-3.917,4.556-9.313,4.556h-6.129l-0.959-0.626c0-0.52,6.462-8.3,10.059-10.272l3.065-1.239L191.337,0l-1.053,0.933
	l-0.626,2.904c-4.237,13.697-6.462,13.697-8.367,13.697h-15.229c-4.876,0-9.313-0.08-14.496-0.306l-1.173-0.094l0.04-0.693
	c0-2.318-0.813-4.064-2.372-5.263l-0.04-0.093l-1.359-0.879c-1.372-0.773-3.024-1.159-4.97-1.159c-1.532,0-3.011,0.2-4.477,0.586
	c-1.239,0.293-2.545,0.733-3.917,1.332c-1.372,0.679-2.585,1.452-3.624,2.331l-2.771,2.758l-1.945,3.344
	c-0.36,1.173-0.533,2.358-0.533,3.584C124.426,25.315,125.238,27.06,126.811,28.246 M186.367,71.535h-19.679
	c-3.278,0-3.278-0.719-3.278-7.688c0-1.439,0.32-3.011,3.171-3.011h19.786c3.171,0,3.171,1.665,3.171,5.409
	C189.538,69.763,189.538,71.535,186.367,71.535 M189.432,53.561c0,3.131,0,4.477-3.171,4.477h-19.892
	c-3.171,0-3.171-0.839-3.171-6.542c0-3.317,0-4.663,3.171-4.663h19.786C189.325,46.832,189.432,47.765,189.432,53.561
	 M185.941,33.842c3.171,0,3.171,1.359,3.171,4.157c0,5.183,0,6.022-3.171,6.022h-19.359c-3.278,0-3.278-0.733-3.278-5.929
	c0-2.997,0-4.25,3.278-4.25H185.941z"/>
<path d="M36.707,60.71l-0.4-0.386c-0.107,0-8.754,2.825-10.446,2.825c-0.293,0-1.692,0-2.092-1.359
	c-0.293-0.786-0.293-19.626-0.293-22.544c0-2.451,1.785-2.451,3.584-2.451h5.076c3.464,0,5.263,0,5.263-1.346
	c0-1.665-5.769-6.448-7.568-6.448c-0.693,0-0.893,0.386-2.478,3.304c-0.2,0.386-0.986,1.479-2.185,1.479
	c-1.692,0-1.692-1.172-1.692-4.397l0.293-12.977l0.493-1.372c1.892-1.759,2.105-1.945,2.105-2.638c0-0.973-0.307-1.066-2.984-2.145
	c-1.199-0.48-6.662-2.625-7.368-2.625l-1.199,1.172l1.093,4.876c0.213,2.052,0.213,6.049,0.213,18.254
	c0,1.266-0.213,2.331-2.984,2.331c-1.799,0-10.752-0.679-12.737-0.679l-0.4,0.2l0.493,0.666l1.892,2.252l0.906,0.586l1.386-0.107
	c2.092-0.187,7.155-0.386,8.247-0.386l2.984,1.079c0.4,0.893,0.4,9.367,0.4,11.711c0,1.665,0,14.163-0.293,14.936
	c-0.893,2.332-10.539,2.838-11.045,2.838l-3.771-0.4l-1.106,0.973l3.784,7.821c0.706,1.452,1.399,2.811,2.491,2.811l1.492-0.786
	l1.985-2.331c0.706-0.386,19.892-10.233,23.476-12.391L36.707,60.71"/>
<path d="M46.368,25.905c-0.013-1.186-0.013-2.638-0.013-4.423c0-5.57,0-6.529,3.184-6.529h36.2c3.478,0,5.369,0,5.369-1.386
	c0-1.452-8.86-7.994-9.446-7.994l-4.383,5.956c-0.6,0.773-1.292,0.866-5.263,0.866H50.818c-1.972,0-2.385-0.094-5.862-1.759
	c-2.771-1.252-5.862-2.425-6.555-2.425l-0.706,0.679l0.906,3.331c0.786,3.797,0.879,14.523,0.879,18.919
	c0,22.743-1.479,42.556-15.216,57.865l-3.171,3.237l0.493,0.387c0.493,0,2.678-1.266,3.877-2.145
	c9.953-7.715,20.598-20.105,20.785-53.974L46.368,25.905"/>
<path d="M92.926,85.346c-6.195-3.237-12.724-9.5-16.428-14.016c5.316-5.316,10.646-12.125,11.565-18.88
	c0.133-0.999,1.412-6.955-1.479-12.857c-0.893-1.812-4.53-8.341-12.764-10.619c-2.412-0.666-4.93-0.892-7.515-0.892
	c-0.613,0-11.605-0.04-17.094,8.394c-1.492,2.305-2.425,4.717-2.731,7.262c0,0-0.6,5.356,4.437,8.154
	c1.639,0.906,3.384,1.452,5.369,1.452c1.479,0,2.771-0.267,3.891-0.773c0.813,3.091,1.865,6.396,3.211,9.447
	c0.933,2.118,3.291,6.582,4.956,9.646c-1.652,1.825-3.144,3.051-4.77,4.597c-2.438,2.305-10.925,8.727-19.146,13.976l0.453,1.559
	c6.848-3.051,17.188-8.794,20.519-11.112c0.973-0.666,3.078-2.212,5.636-4.357c0.839,1.319,1.959,3.024,2.305,3.557
	c0.893,1.359,8.554,11.218,9.34,11.218l1.998-1.266c2.785-1.665,6.262-2.451,8.247-2.451l3.984,0.6l0.4-0.387L92.926,85.346
	 M63.081,50.198l1.159-2.225l0.24-1.785c0-1.639-0.586-3.171-1.932-4.477c-3.597-3.477-8.514-1.426-9.007-1.332l-1.706-0.559
	c-0.386-0.386-0.719-0.879-0.346-2.118c0.4-1.319,7.208-10.126,20.572-5.556c14.629,4.983,5.183,25.648,0.559,33.642
	c-1.919-2.771-5.596-8.194-6.902-10.659C64.786,53.409,63.907,51.757,63.081,50.198"/>
<path d="M89.325,36.9c0,2.292,1.865,4.157,4.157,4.157c2.278,0,4.144-1.865,4.144-4.157c0-2.292-1.865-4.157-4.144-4.157
	C91.19,32.743,89.325,34.608,89.325,36.9"/>
<path d="M93.476,49.196c-2.292,0-4.157,1.852-4.157,4.144c0,2.279,1.865,4.144,4.157,4.144c2.292,0,4.144-1.865,4.144-4.144
	C97.62,51.048,95.768,49.196,93.476,49.196"/>
<path d="M525.721,85.96c-3.944,0-6.662,2.945-6.662,7.115c0,4.157,2.731,7.075,6.662,7.075c3.917,0,6.635-2.945,6.635-7.075
	C532.356,88.878,529.625,85.96,525.721,85.96 M525.721,99.537c-4.131,0-4.717-4.53-4.717-6.315c0-1.199,0.16-6.648,4.717-6.648
	c4.17,0,4.703,4.624,4.703,6.329C530.424,94.154,530.251,99.537,525.721,99.537"/>
<path d="M593.263,96.401l-0.719,0.8c-1.479,2.131-3.584,2.292-4.85,2.292h-1.572c-1.466,0-1.466-0.906-1.466-2.212l0.013-3.464
	l0.533-0.44h1.785c1.146,0,2.305,0.386,2.305,1.959l0.32,0.613l0.333-0.386v-4.743l-0.333-0.466l-0.32,0.373
	c0,0.813,0,2.065-2.305,2.065h-1.785l-0.493-0.239l-0.053-2.905c0-1.452,0-1.626,0.24-1.945l1.226-0.48h2.252
	c1.959,0,3.278,1.253,3.904,2.065l0.64,0.626l0.32-0.28l-0.866-2.092c-0.413-0.906-0.506-0.933-1.772-0.933h-9.273l-0.639,0.307
	l0.453,0.306l1.892,0.933l0.053,5.263l-0.08,5.116l-1.546,0.96l-0.773,0.293l0.639,0.293h9.58c1.319,0,1.332-0.053,1.852-1.239
	l0.839-2.145L593.263,96.401"/>
<path d="M481.989,99.42l-2.225-0.866c-3.145-4.517-3.491-5.023-4.264-6.129l-0.293-0.666l0.32-0.573l3.491-3.371l2.385-0.68
	l0.666-0.293l-0.546-0.32h-5.023l-0.533,0.32l0.413,0.293l1.386,0.6c0,0.346-0.173,0.506-1.466,1.799l-3.891,3.864l-0.226,0.12
	l-0.24-0.386v-4.717l1.546-1.279l0.573-0.293l-0.533-0.32h-4.797l-0.493,0.32l0.386,0.293c0.613,0,1.706,0,1.706,1.279v9.713
	l-1.519,1.292l-0.573,0.28l0.506,0.306h4.823l0.493-0.306l-0.413-0.28c-0.6,0-1.706,0-1.706-1.292v-2.598l0.893-1.705l1.026-0.72
	c0.226,0,0.346,0.187,1.439,1.772l2.385,3.544l0.08,0.4l-0.879,0.599L476.3,99.7l0.506,0.306h5.09l0.48-0.306L481.989,99.42"/>
<path d="M545.621,86.525h-4.224l-0.573,0.307l0.426,0.307l1.945,1.119l0.067,4.277l-0.027,4.197l-0.133,0.373l-2.265-2.971
	c-1.239-1.692-3.238-4.423-4.477-6.115c-1.026-1.439-1.079-1.493-2.532-1.493h-1.985l-0.613,0.307l0.453,0.307l2.052,1.106
	c0.067,0.306,0.067,0.32,0.067,4.996c0,4.889-0.027,4.916-0.186,5.329l-1.626,0.853l-0.759,0.28l0.613,0.307h4.73l0.639-0.307
	l-0.466-0.28c-0.866,0-1.985,0-2.225-1.226l-0.067-4.77l0.027-4.637l0.147-0.346l0.506,0.613l8.207,11.152l0.266,0.147l0.266-0.4
	c0-1.533-0.027-8.381-0.027-9.78c0-2.212,0-3.038,1.692-3.038l0.613-0.307L545.621,86.525"/>
<path d="M565.555,90.038l-1.039-2.678l-1.692-0.839h-8.367l-1.679,0.773l-1.079,2.745l0.333,0.28l0.706-0.799
	c0.839-1.226,2.039-2.385,3.664-2.385l1.306,0.666c0.133,0.346,0.133,0.853,0.133,5.409c0,4.917,0,4.943-0.053,5.25l-2.158,0.959
	l-0.453,0.293l0.6,0.293h5.689l0.613-0.293l-0.919-0.293l-1.692-0.959l-0.053-5.116l0.053-5.276l1.412-0.933
	c1.386,0,2.585,0.799,3.664,2.398l0.693,0.786L565.555,90.038"/>
<path d="M659.38,96.323l-0.719,0.8c-1.479,2.131-2.891,2.292-4.184,2.292h-1.559c-1.466,0-1.466-0.906-1.466-2.212l0.027-3.464
	l0.52-0.44h1.799c1.132,0,1.612,0.386,1.612,1.959l0.333,0.613l0.32-0.386v-4.743l-0.32-0.466l-0.333,0.373
	c0,0.813,0.679,2.065-1.612,2.065h-1.799l-0.48-0.239l-0.066-2.905c0-1.452,0-1.626,0.24-1.959l1.226-0.466h2.265
	c1.945,0,2.585,1.239,3.224,2.065l0.626,0.626l0.333-0.28l-0.879-2.092c-0.413-0.906-0.506-0.933-1.772-0.933h-8.594l-0.64,0.307
	l0.453,0.306l1.892,0.933l0.067,5.263l-0.093,5.116l-1.532,0.96l-0.786,0.293l0.64,0.293h8.9c1.319,0,1.346-0.053,1.852-1.239
	l0.853-2.145L659.38,96.323"/>
<path d="M508.318,92.289c-2.625-0.826-3.824-1.385-3.824-2.891c0-0.76,0.48-2.398,2.718-2.398c2.478,0,3.544,1.572,4.09,2.345
	l0.519,0.533l0.333-0.293l-1.066-2.558l-0.52-0.626l-0.453,0.226l-0.426,0.12l-1.212-0.213l-1.426-0.133
	c-2.558,0-3.997,1.639-3.997,3.531c0,2.158,1.839,3.131,4.623,3.997c2.545,0.813,3.744,1.399,3.744,3.051
	c0,1.918-1.625,2.745-2.971,2.745c-2.012,0-3.811-1.239-4.69-2.492l-0.746-0.773l-0.44,0.386l0.999,2.492l0.679,1.012l0.586-0.307
	l0.746-0.239l0.813,0.186l2.158,0.36c2.225,0,4.344-1.465,4.344-3.917C512.901,95.021,512.355,93.568,508.318,92.289"/>
<path d="M623.507,96.323l-0.56,0.573c-1.559,2.145-3.851,2.518-5.143,2.518h-0.546l-1.399-0.96c-0.067-0.293-0.067-0.32-0.067-5.236
	l0.067-5.143l1.546-0.933l0.733-0.306l-0.613-0.307h-5.05l-0.586,0.307l0.453,0.306l1.825,0.933l0.066,5.263l-0.066,5.116
	l-1.545,0.96h-0.053l0.013-0.04l-1.119-1.119l-1.106,1.119l1.106,1.106l0.893-0.493l0.12,0.013h8.527
	c1.332,0,1.399-0.013,1.919-1.186l0.893-2.212L623.507,96.323"/>
<path d="M630.397,86.168c-3.944,0-6.662,2.945-6.662,7.115c0,4.144,2.731,7.075,6.662,7.075c3.917,0,6.635-2.945,6.635-7.075
	C637.032,89.086,634.301,86.168,630.397,86.168 M630.397,99.745c-4.13,0-4.717-4.53-4.717-6.315c0-1.212,0.16-6.662,4.717-6.662
	c4.17,0,4.703,4.637,4.703,6.342C635.1,94.376,634.927,99.745,630.397,99.745"/>
<path d="M642.163,86.531h-5.289l-0.6,0.307l0.733,0.307l1.546,0.932l0.067,5.143c0,4.916,0,4.943-0.067,5.236l-1.772,0.959
	l-0.506,0.293l0.6,0.293h5.023l0.573-0.293l-0.706-0.293l-1.359-0.52c-0.227-0.32-0.227-0.333-0.227-3.717
	c0-1.399,0-1.546,0.56-1.546h1.945c3.651,0,5.276-1.692,5.276-3.624C647.959,86.531,642.936,86.531,642.163,86.531 M642.283,93.006
	h-1.546l-0.533-0.4l-0.027-3.051c0-1.612,0-2.412,1.479-2.412h0.866c1.852,0,3.504,0.919,3.504,2.944
	C646.027,91.66,644.961,93.006,642.283,93.006"/>
<polygon points="611.465,96.062 612.585,94.943 611.465,93.824 610.359,94.943 "/>
<path d="M607.23,93.239l-0.053-0.026l-2.238-0.879c-2.665-0.853-3.89-1.412-3.89-2.944c0-0.786,0.493-2.452,2.771-2.452
	c2.505,0,3.597,1.599,4.157,2.398l0.519,0.533l0.346-0.293l-1.093-2.598l-0.519-0.653l-0.466,0.253l-0.44,0.107l-1.226-0.2
	l-1.452-0.16c-2.598,0-4.064,1.665-4.064,3.597c0,2.212,1.878,3.185,4.703,4.077c2.212,0.693,3.331,1.213,3.717,2.438
	c0.519,2.638-1.332,5.969-2.412,7.088l-2.052,1.999c-0.679,0.586-2.944,2.358-5.25,3.757l-0.56,0.413
	c1.839-0.813,5.303-2.358,6.196-2.971c0.906-0.64,5.609-4.171,6.076-7.608c0.04-0.253,0.386-1.852-0.386-3.437
	C609.561,95.571,608.922,94.052,607.23,93.239"/>
<polygon points="487.883,85.654 487.577,85.44 486.431,85.174 485.405,85.321 484.512,85.627 483.686,86.173 483.047,86.813 
	482.607,87.599 482.487,88.425 483.033,89.651 483.033,89.677 483.34,89.877 484.486,90.157 485.511,90.011 486.404,89.704 
	487.23,89.158 487.87,88.518 488.31,87.732 488.429,86.906 487.883,85.68 "/>
<polygon points="574.234,94.814 574.873,94.174 575.313,93.401 575.433,92.549 574.887,91.323 574.873,91.296 574.567,91.096 
	573.421,90.83 572.408,90.963 571.503,91.27 570.676,91.816 570.05,92.456 569.597,93.255 569.477,94.081 570.023,95.307 
	570.037,95.333 570.343,95.547 571.476,95.813 572.502,95.667 573.408,95.36 "/>
<path d="M571.065,99.433c-1.919,0-1.919-0.359-1.919-3.411v-0.36V90.4v-0.36c0-2.372,0-2.931,1.825-2.931l0.6-0.307l-0.546-0.28
	h-5.196l-0.533,0.293l0.653,0.32l1.505,0.706l0.147,3.318c0,2.371,0,6.875-0.08,7.314l-1.319,0.946l-0.906,0.293l0.533,0.293h5.196
	l0.546-0.267L571.065,99.433"/>
<path d="M578.671,87.136l0.893-0.32l-0.533-0.293h-5.183l-0.546,0.28l0.533,0.307c1.879,0,1.879,0.466,1.879,3.144v0.826v3.624
	v0.586v1.212v0.04c0,2.132-0.053,2.198-0.4,2.532l-1.426,0.359l-0.586,0.293l0.546,0.28h5.183l0.533-0.306l-0.653-0.28l-1.505-0.706
	l-0.16-3.757c0-6.702,0.027-6.755,0.187-7.141L578.671,87.136"/>
<path d="M494.785,86.565h-5.156l-0.586,0.306l0.733,0.293l1.532,0.933l0.053,5.089c0,4.877,0,4.89-0.053,5.196l-1.839,0.946
	l-0.426,0.293l0.586,0.293h5.343c4.97,0,7.448-2.904,7.448-6.861C502.419,90.962,501.606,86.565,494.785,86.565 M495.131,99.329
	h-0.973l-1.386-0.946c-0.067-0.307-0.067-0.32-0.067-5.196l0.067-5.063l1.386-0.96h1.053c4.357,0,5.396,3.531,5.396,5.823
	C500.607,96.651,498.555,99.329,495.131,99.329"/>
<path d="M487.52,99.458c-0.999-0.066-0.999-0.879-0.999-2.305l0.027-6.262l-0.226-0.373l-1.799,0.533l-1.093,0.44l0.2,0.187
	l0.679-0.067l0.613,0.346l0.12,3.065l-0.173,3.89l-0.866,0.546l-0.666,0.32l0.493,0.32h3.864l0.52-0.32L487.52,99.458"/>
</svg>
