<?xml version="1.0" encoding="utf-8"?>
<!-- Generator: Adobe Illustrator 27.0.1, SVG Export Plug-In . SVG Version: 6.00 Build 0)  -->
<svg version="1.1" id="레이어_1" xmlns="http://www.w3.org/2000/svg" xmlns:xlink="http://www.w3.org/1999/xlink" x="0px"
	 y="0px" viewBox="0 0 720 83.564" enable-background="new 0 0 720 83.564" xml:space="preserve">
<path fill="#003B70" d="M79.752,16.73c-1.476,14.607-5.426,26.675-11.688,35.845C56.322,70.188,40.576,77.177,17.331,83.308
	c-0.369,0.109-0.716,0.141-1.085,0.141c-1.736,0-3.342-1.063-3.961-2.745l-0.977-2.626c-0.771-2.149,0.282-4.514,2.398-5.382
	c27.847-11.275,42.226-30.929,43.93-60.11c0.087-1.248,0.716-2.409,1.725-3.158c0.727-0.532,1.606-0.814,2.507-0.814
	c0.336,0,0.694,0.044,1.031,0.141l13.684,3.44C78.613,12.715,79.958,14.636,79.752,16.73"/>
<path fill="#003B70" d="M163.042,32.435c-9.778,28.4-32.014,45.026-66.079,49.41c-0.184,0.043-0.38,0.054-0.553,0.054
	c-2.083,0-3.907-1.563-4.178-3.69l-0.293-2.192c-0.261-1.986,0.89-3.874,2.778-4.537c10.472-3.722,19.263-8.432,26.11-13.956
	c5.09-4.145,9.517-9.127,13.207-14.835H88.705c-2.323,0-4.222-1.888-4.222-4.221v-7.412c0-2.322,1.899-4.232,4.222-4.232h1.888
	c-1.031-0.77-1.682-1.986-1.682-3.375v-7.987c0-2.322,1.888-4.232,4.232-4.232h62.346c2.322,0,4.222,1.91,4.222,4.232v7.987
	c0,1.389-0.673,2.615-1.693,3.375h1.02c1.367,0,2.648,0.673,3.451,1.769C163.27,29.722,163.476,31.133,163.042,32.435"/>
<path fill="#3FB8EC" d="M200.854,82.001c-22.193,0-34.922-8.519-34.922-23.375c0-9.919,6.631-18.264,19.708-24.797
	c-0.141-1.151-0.293-2.441-0.456-3.798c-0.532-4.352-1.129-9.301-1.465-12.676V16.66c0-4.026,3.635-6.131,7.227-6.131
	c3.364,0,6.815,1.965,6.924,5.698l1.215,12.285c7.51-2.398,15.171-4.059,21.129-5.242c0.738-0.184,1.487-0.184,2.083-0.184
	c4.753,0,7.314,3.56,7.314,6.924c0,3.462-2.182,6.11-5.567,6.739c-21.704,3.418-43.572,11.362-43.572,21.412
	c0,9.311,14.086,10.32,20.152,10.32c9.138,0,16.593-1.107,22.67-2.159c0.488-0.109,0.988-0.109,1.346-0.109
	c4.135,0,6.294,3.364,6.294,6.685c0,3.787-2.377,6.62-6.066,7.217l-0.977,0.13C216.557,81.188,210.23,82.001,200.854,82.001"/>
<path fill="#105191" d="M251.877,80.718c-0.554,0-1.085-0.228-1.487-0.607c-0.401-0.401-0.629-0.944-0.629-1.498V75.14
	c0-1.117,0.89-2.051,2.019-2.105c14.346-0.684,25.307-3.18,32.556-7.467c9.539-5.632,14.173-15.356,14.173-29.691v-0.651
	c0.011-1.302,0.011-2.735-0.109-3.722c-3.646,0-11.927,0.022-20.229,0.054c-8.725,0.022-17.504,0.044-21.009,0.044v0.054v13.327
	c0,1.161-0.944,2.116-2.105,2.116h-11.753c-1.161,0-2.116-0.955-2.116-2.116V22.833c0-0.564,0.228-1.107,0.619-1.498
	c0.401-0.391,0.933-0.607,1.487-0.607h0.022c0,0,12.339,0.054,26.924,0.054v-8.519c0-1.042,0.77-1.931,1.812-2.084l11.753-1.682
	c0.098-0.011,0.195-0.022,0.304-0.022c0.499,0,0.999,0.174,1.378,0.521c0.467,0.401,0.727,0.976,0.727,1.584v10.222
	c14.325,0,26.371,0.044,26.371,0.044c1.161,0.011,2.105,0.955,2.105,2.127v19.295c0,24.786-21.129,37.733-62.78,38.449H251.877z"/>
<path fill="#003B70" d="M316.794,22.961v19.307c0,26.175-21.824,39.817-64.842,40.554h-0.065c-1.118,0-2.181-0.413-2.973-1.205
	c-0.803-0.792-1.259-1.888-1.259-3.017v-3.44c0-2.257,1.769-4.113,4.015-4.232c14.032-0.673,24.656-3.071,31.59-7.163
	c8.845-5.241,13.142-14.357,13.142-27.89v-2.257c-4.211,0-11.21,0.021-18.232,0.032c-7.304,0.032-14.64,0.054-18.894,0.054v11.286
	c0,2.334-1.888,4.211-4.222,4.211h-11.753c-2.334,0-4.222-1.877-4.222-4.211v-22.16c0-1.118,0.434-2.192,1.237-2.985
	c0.792-0.792,1.867-1.237,2.985-1.237h0.011c0.12,0,11.319,0.054,24.819,0.054v-6.392c0-2.116,1.541-3.885,3.624-4.189l11.742-1.671
	c0.195-0.032,0.412-0.054,0.608-0.054c1.009,0,1.997,0.38,2.756,1.042c0.933,0.803,1.465,1.964,1.465,3.179v8.107
	c13.24,0,24.146,0.054,24.255,0.054C314.927,18.751,316.794,20.639,316.794,22.961"/>
<path fill="#FFFFFF" d="M251.867,79.415c-0.217,0-0.413-0.087-0.554-0.228c-0.152-0.152-0.249-0.369-0.249-0.586V75.14
	c0-0.423,0.347-0.781,0.781-0.803c14.564-0.684,25.72-3.267,33.153-7.64c9.832-5.816,14.813-16.18,14.813-30.82v-0.651
	c0.011-1.476,0.011-3.148-0.174-4.243c-0.065-0.336-0.456-0.727-0.619-0.792c-3.147,0.011-11.98,0.043-20.858,0.065
	c-8.953,0.022-17.96,0.044-21.259,0.044c-0.163,0-0.467,0.119-0.694,0.315c-0.206,0.195-0.336,0.575-0.336,1.042v13.326
	c0,0.456-0.369,0.814-0.814,0.814h-11.753c-0.456,0-0.814-0.358-0.814-0.814V22.832c0-0.206,0.087-0.423,0.239-0.575
	c0.152-0.141,0.358-0.238,0.564-0.238h0.011c0,0,12.48,0.054,27.163,0.054c0.597,0,1.063-0.412,1.063-0.933v-8.866
	c0-0.413,0.304-0.749,0.705-0.814l11.753-1.671c0.032-0.011,0.076-0.011,0.119-0.011c0.184,0,0.38,0.076,0.532,0.207
	c0.174,0.141,0.271,0.369,0.271,0.607v10.614c0,0.532,0.423,0.901,1.031,0.901c14.444,0,26.642,0.054,26.642,0.054
	c0.445,0,0.803,0.369,0.803,0.813v19.285c0,23.95-20.684,36.463-61.499,37.157H251.867z"/>
<path fill="#003B70" d="M388.563,26.606c-0.554,1.476-1.563,2.789-2.941,3.799c-2.973,2.279-9.908,6.055-17.32,6.055
	c-1.02,0-2.029-0.065-3.028-0.206c-5.936-0.857-10.038-4.515-13.337-7.456c-2.42-2.149-4.504-4.015-6.609-4.341
	c-0.12-0.011-0.228-0.032-0.347-0.032c-0.922,0-2.593,0.456-5.35,2.583c-0.043,0.021-0.054,0.032-0.087,0.054
	c-1.671,1.226-3.538,1.899-5.393,1.899c-0.716,0-1.433-0.098-2.094-0.304c-2.246-0.607-4.157-2.225-5.263-4.384
	c-1.085-2.116-1.27-4.59-0.456-6.74c0.553-1.498,1.573-2.832,3.017-3.863c1.986-1.4,9.083-5.99,17.255-5.99
	c1.031,0,2.029,0.065,3.006,0.206c6.066,0.868,10.635,4.764,14.292,7.879c2.116,1.823,4.33,3.711,5.665,3.918
	c0.108,0.011,0.228,0.032,0.358,0.032c1.888,0,4.341-1.878,5.372-2.648c1.552-1.183,3.332-1.802,5.187-1.802
	c0.771,0,1.53,0.109,2.246,0.304c2.29,0.629,4.243,2.235,5.372,4.46C389.181,22.125,389.344,24.512,388.563,26.606"/>
<path fill="#003B70" d="M388.563,73.386c-0.554,1.498-1.563,2.811-2.93,3.821c-2.963,2.257-9.919,6.055-17.331,6.055
	c-1.02,0-2.029-0.065-3.028-0.206c-5.936-0.858-10.038-4.515-13.337-7.445c-2.398-2.159-4.504-4.026-6.62-4.352
	c-0.109-0.022-0.217-0.032-0.347-0.032c-0.911,0-2.583,0.456-5.415,2.626c-1.671,1.237-3.538,1.91-5.393,1.91
	c-0.727,0-1.444-0.109-2.105-0.304c-2.246-0.608-4.157-2.225-5.263-4.384c-1.085-2.138-1.27-4.601-0.456-6.74
	c0.553-1.498,1.573-2.832,3.017-3.863c1.986-1.4,9.083-6.002,17.255-6.002c1.031,0,2.029,0.065,3.006,0.206
	c6.066,0.88,10.635,4.764,14.292,7.89c2.116,1.812,4.33,3.701,5.675,3.907c0.098,0.022,0.217,0.032,0.347,0.032
	c1.888,0,4.341-1.867,5.372-2.648c1.552-1.183,3.332-1.801,5.187-1.801c0.771,0,1.53,0.119,2.246,0.303
	c2.29,0.641,4.243,2.257,5.372,4.46C389.181,68.915,389.344,71.303,388.563,73.386"/>
<path fill="#003B70" d="M388.563,49.985c-0.532,1.476-1.563,2.8-2.93,3.821c-2.963,2.257-9.919,6.055-17.331,6.055
	c-1.02,0-2.029-0.065-3.028-0.206c-5.936-0.858-10.038-4.515-13.337-7.445c-2.398-2.159-4.504-4.026-6.62-4.352
	c-0.109-0.011-0.217-0.032-0.336-0.032c-0.922,0-2.593,0.456-5.35,2.583c-0.043,0.011-0.054,0.033-0.087,0.066
	c-1.671,1.226-3.527,1.888-5.382,1.888c-0.727,0-1.444-0.12-2.105-0.304c-2.246-0.608-4.157-2.225-5.263-4.384
	c-1.085-2.138-1.27-4.601-0.456-6.74c0.553-1.498,1.573-2.81,3.017-3.863c1.986-1.4,9.083-6.002,17.255-6.002
	c1.031,0,2.029,0.065,3.006,0.206c6.066,0.88,10.635,4.764,14.292,7.89c2.116,1.823,4.33,3.701,5.675,3.907
	c0.098,0.022,0.217,0.032,0.347,0.032c1.888,0,4.341-1.867,5.372-2.637c1.552-1.183,3.332-1.812,5.187-1.812
	c0.771,0,1.53,0.119,2.246,0.303c2.29,0.641,4.254,2.269,5.372,4.472C389.181,45.514,389.344,47.924,388.563,49.985"/>
<path fill="#3FB8EC" d="M451.751,81.931c-3.896,0-7.314-3.31-7.314-7.087c0-1.476,0.694-3.05,2.008-4.547
	c5.046-5.133,10.863-14.9,10.863-25.708c0-10.017-4.818-17.168-12.99-19.469c-0.575,11.352-1.78,19.805-4.091,28.802
	c-2.778,10.614-8.009,24.732-21.466,24.732c-9.094,0-18.308-9.159-18.308-26.653c0-23.734,15.898-40.305,38.666-40.305
	c19.501,0,32.111,12.795,32.111,32.578c0,18.524-10.266,31.167-13.413,34.597C456.2,80.857,454.085,81.931,451.751,81.931
	 M430.98,25.25c-12.903,3.593-17.537,16.648-17.537,27.142c0,7.651,3.538,12.338,5.469,12.338c2.29,0,5.741-4.004,8.573-15.279
	C429.211,42.386,430.329,34.648,430.98,25.25"/>
<path fill="#003B70" d="M561.367,13.198c-0.814-1.042-2.051-1.66-3.365-1.66h-76.876c-2.333,0-4.222,1.91-4.222,4.221v7.412
	c0,2.344,1.888,4.232,4.222,4.232h25.416c-1.02,0.77-1.704,2.008-1.704,3.386v11.579c0,8.052-2.029,14.39-6.218,19.381
	c-3.798,4.395-9.659,8.042-17.461,10.765c-2.138,0.771-3.31,3.104-2.615,5.285l0.673,2.106c0.564,1.769,2.225,2.93,4.026,2.93
	c0.217,0,0.445-0.032,0.673-0.065c10.136-1.606,19.122-4.807,26.697-9.474c6.902-4.113,11.46-10.592,13.565-19.252
	c8.898-1.4,16.712-5.231,23.245-11.438c6.902-6.511,11.829-15.171,14.672-25.752C562.419,15.586,562.159,14.24,561.367,13.198
	 M531.664,33.155c-2.029,2.323-4.211,4.341-6.522,6.024V30.79c0-1.378-0.684-2.616-1.704-3.386h12.241
	C534.486,29.412,533.14,31.343,531.664,33.155"/>
<path fill="#003B70" d="M624.724,15.872c-3.44,10.408-12.252,21.542-19.371,27.369v35.693c0,2.312-1.877,4.2-4.222,4.2h-11.742
	c-2.344,0-4.232-1.888-4.232-4.2V54.43c-6.185,2.225-13.63,4.199-22.952,6.663c-0.38,0.097-0.738,0.141-1.096,0.141
	c-1.736,0-3.342-1.074-3.961-2.757l-0.955-2.637c-0.782-2.138,0.249-4.515,2.366-5.372c27.467-11.124,40.316-22.801,44.342-40.338
	c0.26-1.107,0.944-2.062,1.921-2.637c0.662-0.434,1.432-0.641,2.214-0.641c0.336,0,0.673,0.044,1.02,0.13l13.684,3.462
	c1.129,0.282,2.105,1.042,2.659,2.051C624.962,13.528,625.082,14.744,624.724,15.872"/>
<path fill="#003B70" d="M701.807,20.851c-4.699,17.374-12.513,31.32-23.256,41.445c-10.169,9.615-24.027,16.712-41.152,21.14
	c-0.347,0.087-0.705,0.119-1.063,0.119c-1.812,0-3.505-1.183-4.037-3.017l-0.868-2.941c-0.597-2.029,0.412-4.211,2.355-5.057
	c10.906-4.774,18.687-9.647,23.159-14.487c0.087-0.098,0.195-0.206,0.293-0.304c0.022-0.011,2.301-2.062,3.918-3.972
	c0.032-0.033,0.065-0.076,0.097-0.109c5.99-6.653,10.657-13.988,13.891-21.78H662.63c-9.832,13.12-21.77,16.506-27.543,18.134
	c-0.619,0.174-1.172,0.347-1.617,0.478c-0.423,0.141-0.868,0.206-1.291,0.206c-1.725,0-3.332-1.074-3.961-2.778l-0.966-2.616
	c-0.684-1.877,0.033-3.961,1.715-5.025c10.798-6.804,15.399-13.63,20.521-30.44c0.542-1.812,2.203-2.995,4.026-2.995
	c0.347,0,0.694,0.044,1.042,0.13c5.198,1.313,13.099,3.31,13.576,3.429c1.194,0.272,2.214,1.074,2.789,2.138
	c0.488,0.911,0.608,1.964,0.38,2.984h26.425c1.302,0,2.55,0.608,3.353,1.65C701.871,18.226,702.143,19.571,701.807,20.851"/>
<path fill="#FFFFFF" d="M636.344,80.157c-0.347,0-0.673-0.228-0.771-0.597l-0.868-2.919c-0.12-0.391,0.076-0.803,0.456-0.976
	c11.351-4.97,19.512-10.126,24.287-15.302c0.076-0.087,2.529-2.279,4.319-4.384c6.533-7.26,11.568-15.291,14.954-23.875l0.326-0.835
	c0.13-0.348,0.282-1.823-0.174-2.485c-0.098-0.163-0.249-0.315-0.64-0.315h-17.222h-0.098h-0.108
	c0.054,0.011-0.043,0.152-0.065,0.217c-0.109,0.152-0.228,0.336-0.38,0.532l-0.174,0.228c-9.192,12.513-20.565,15.746-26.024,17.298
	c-0.662,0.185-1.237,0.347-1.736,0.51c-0.076,0.022-0.163,0.044-0.239,0.044c-0.336,0-0.651-0.217-0.77-0.542l-0.955-2.616
	c-0.13-0.369,0-0.77,0.326-0.966c11.503-7.25,16.637-14.802,21.954-32.329c0.109-0.347,0.434-0.575,0.781-0.575
	c0.065,0,0.13,0.011,0.195,0.032c3.679,0.911,13.305,3.353,13.641,3.429c0.228,0.054,0.434,0.195,0.543,0.401
	c0.119,0.217,0.141,0.456,0.054,0.684c-0.174,0.445-0.347,0.89-0.521,1.324l-0.098,0.239c-0.032,0.065-0.076,0.141-0.087,0.217
	c-0.195,0.749-0.087,1.455,0.293,1.921c0.228,0.315,0.51,0.413,0.673,0.413h29.496c0.26,0,0.499,0.119,0.651,0.325
	c0.152,0.195,0.206,0.467,0.141,0.705c-4.515,16.756-12.014,30.159-22.29,39.86c-9.756,9.203-23.104,16.029-39.665,20.304
	C636.485,80.147,636.409,80.157,636.344,80.157"/>
<path fill="#003B70" d="M37.049,28.981c0,4.244-4.84,5.524-6.902,6.078c-2.8,0.738-4.862,8.442-5.524,10.971
	c-0.553,2.073-1.856,6.912-6.099,6.912c-4.254,0-5.535-4.84-6.088-6.912c-0.673-2.529-2.735-10.234-5.524-10.971
	C4.851,34.505,0,33.225,0,28.981c0-4.264,4.851-5.545,6.913-6.098c2.789-0.749,4.851-8.454,5.524-10.983
	c0.553-2.073,1.834-6.891,6.088-6.891c4.243,0,5.545,4.819,6.099,6.891c0.662,2.529,2.724,10.234,5.524,10.983
	C32.209,23.436,37.049,24.717,37.049,28.981"/>
<path fill="#FFF100" d="M18.525,49.53c-1.151,0-1.965-1.269-2.789-4.362c-1.129-4.254-3.234-12.144-7.944-13.402
	c-3.104-0.836-4.374-1.639-4.374-2.8c0-1.151,1.27-1.953,4.363-2.789c4.721-1.258,6.826-9.149,7.955-13.402
	c0.825-3.093,1.639-4.352,2.789-4.352c1.15,0,1.964,1.258,2.8,4.352c1.129,4.254,3.234,12.144,7.944,13.402
	c3.104,0.836,4.373,1.639,4.373,2.789c0,1.161-1.27,1.964-4.373,2.8c-4.71,1.258-6.815,9.149-7.944,13.402
	C20.489,48.26,19.675,49.53,18.525,49.53"/>
<path fill="#3FB8EC" d="M18.525,9.221c0.673,0,1.346,1.27,2.008,3.766c1.335,5.025,3.516,12.643,8.53,13.978
	c5.014,1.335,5.014,2.669,0,4.004s-7.195,8.964-8.53,13.978c-0.662,2.507-1.335,3.766-2.008,3.766c-0.673,0-1.335-1.258-2.008-3.766
	c-1.335-5.014-3.505-12.643-8.519-13.978c-5.025-1.335-5.025-2.669,0-4.004c5.013-1.335,7.184-8.953,8.519-13.978
	C17.19,10.491,17.852,9.221,18.525,9.221 M18.525,7.604c-1.975,0-2.887,2.388-3.57,4.97c-1.096,4.081-3.115,11.677-7.379,12.817
	c-2.583,0.684-4.97,1.595-4.97,3.581c0,1.975,2.387,2.875,4.97,3.581c4.254,1.129,6.283,8.736,7.379,12.805
	c0.684,2.594,1.595,4.982,3.57,4.982c1.986,0,2.898-2.388,3.581-4.982c1.085-4.07,3.114-11.677,7.368-12.805
	c2.583-0.705,4.97-1.606,4.97-3.581c0-1.986-2.387-2.898-4.97-3.581c-4.254-1.139-6.283-8.736-7.368-12.817
	C21.422,9.992,20.51,7.604,18.525,7.604"/>
<path fill="#FFFFFF" d="M16.246,80.04c-0.336,0-0.641-0.206-0.76-0.531l-0.966-2.616c-0.152-0.401,0.054-0.868,0.456-1.031
	C44.179,64.033,59.242,43.403,61.043,12.79c0.022-0.239,0.141-0.467,0.336-0.608c0.141-0.108,0.304-0.162,0.477-0.162
	c0.065,0,0.13,0.011,0.206,0.021l13.674,3.462c0.401,0.109,0.651,0.478,0.618,0.868c-1.421,14.042-5.176,25.578-11.123,34.314
	C54.087,67.387,38.905,74.093,16.463,80.019C16.387,80.029,16.311,80.04,16.246,80.04"/>
<path fill="#3FB8EC" d="M61.858,12.836l13.684,3.462c-1.411,13.967-5.079,25.274-10.982,33.934
	C53.611,66.63,38.754,73.293,16.247,79.24l-0.966-2.626C40.664,66.337,59.796,47.834,61.858,12.836 M61.858,11.208
	c-0.336,0-0.673,0.12-0.955,0.315c-0.401,0.293-0.63,0.738-0.662,1.226c-1.78,30.267-16.691,50.669-45.568,62.367
	c-0.814,0.325-1.215,1.237-0.911,2.062l0.966,2.615c0.239,0.651,0.857,1.064,1.519,1.064c0.141,0,0.271-0.011,0.412-0.054
	c22.649-5.979,37.961-12.751,49.258-29.67C71.94,42.3,75.727,30.634,77.16,16.45c0.076-0.792-0.434-1.53-1.226-1.736L62.26,11.262
	C62.13,11.23,61.989,11.208,61.858,11.208"/>
<path fill="#FFFFFF" d="M155.48,24.275H93.134c-0.445,0-0.803-0.369-0.803-0.813v-7.998c0-0.456,0.358-0.814,0.803-0.814h62.346
	c0.445,0,0.814,0.358,0.814,0.814v7.998C156.294,23.906,155.925,24.275,155.48,24.275"/>
<path fill="#FFFFFF" d="M96.413,78.483c-0.402,0-0.749-0.303-0.803-0.705l-0.293-2.214c-0.043-0.38,0.174-0.738,0.542-0.868
	c10.831-3.852,19.968-8.746,27.12-14.52c5.654-4.613,10.559-10.19,14.552-16.604c0.174-0.195,0.641-0.879,0.955-1.649
	c0.174-0.401,0.282-0.858,0.293-1.248c0.011-0.402-0.087-0.554-0.184-0.673c-0.217-0.206-0.402-0.38-0.684-0.488
	c-0.423-0.152-1.085-0.229-2.008-0.229H88.708c-0.445,0-0.814-0.369-0.814-0.813v-7.413c0-0.444,0.369-0.813,0.814-0.813h70.333
	c0.26,0,0.51,0.119,0.662,0.347c0.152,0.206,0.195,0.488,0.109,0.727c-9.311,27.065-30.614,42.931-63.29,47.152
	C96.489,78.472,96.445,78.483,96.413,78.483"/>
<path fill="#3FB8EC" d="M155.474,23.463H93.139v-7.998h62.335V23.463z M155.474,13.837H93.139c-0.901,0-1.628,0.727-1.628,1.617
	v8.009c0,0.901,0.727,1.617,1.628,1.617h62.335c0.9,0,1.628-0.716,1.628-1.617v-8.009C157.102,14.564,156.375,13.837,155.474,13.837
	"/>
<path fill="#3FB8EC" d="M159.041,31.054c-9.246,26.891-30.126,42.421-62.628,46.61l-0.282-2.203
	c10.983-3.907,20.098-8.79,27.359-14.65c5.752-4.688,10.667-10.299,14.726-16.81c-0.022,0.032-0.033,0.054-0.022,0.054
	c0.032,0,0.63-0.825,1.042-1.812c0.206-0.489,0.347-1.053,0.358-1.552c0.011-0.478-0.087-0.901-0.412-1.248
	c-0.26-0.261-0.542-0.521-0.977-0.684c-0.586-0.217-1.389-0.282-2.301-0.282H88.708v-7.422H159.041 M159.041,29.437H88.708
	c-0.89,0-1.628,0.727-1.628,1.617v7.422c0,0.89,0.738,1.617,1.628,1.617h47.196c1.02,0,1.498,0.108,1.725,0.184
	c0.109,0.044,0.195,0.109,0.336,0.239c0,0.032,0,0.065,0,0.13c-0.011,0.293-0.098,0.651-0.228,0.966
	c-0.282,0.695-0.694,1.281-0.771,1.368c-0.032,0.043-0.098,0.109-0.13,0.162c-3.95,6.338-8.779,11.851-14.379,16.398
	c-7.076,5.719-16.116,10.559-26.881,14.4c-0.716,0.25-1.161,0.966-1.063,1.737l0.293,2.203c0.108,0.813,0.803,1.411,1.606,1.411
	c0.065,0,0.141-0.011,0.217-0.011c33.012-4.265,54.521-20.304,63.952-47.695c0.163-0.499,0.087-1.042-0.217-1.476
	C160.061,29.686,159.561,29.437,159.041,29.437"/>
<path fill="#003B70" d="M190.95,11.997c2.648,0,5.382,1.389,5.459,4.276l1.4,14.206c7.878-2.659,16.072-4.46,22.703-5.784
	c0.618-0.152,1.237-0.152,1.79-0.152c3.744,0,5.849,2.735,5.849,5.459c0,2.42-1.411,4.753-4.373,5.307
	c-16.843,2.648-44.765,10.06-44.765,22.844c0,8.433,9.832,11.775,21.607,11.775c8.584,0,15.833-0.933,22.931-2.181
	c0.39-0.076,0.781-0.076,1.085-0.076c3.126,0,4.84,2.507,4.84,5.231c0,2.648-1.476,5.22-4.84,5.773
	c-7.878,1.009-14.108,1.867-23.777,1.867c-21.379,0-33.457-7.803-33.457-21.922c0-10.983,8.649-18.557,19.805-23.94
	c-0.554-4.678-1.563-12.708-2.029-17.461v-0.554C185.177,13.549,188.14,11.997,190.95,11.997 M190.95,9.067
	c-4.959,0-8.693,3.267-8.693,7.597v0.554c0,0.097,0,0.195,0.011,0.282c0.326,3.397,0.933,8.345,1.454,12.708
	c0.119,0.976,0.228,1.91,0.336,2.778c-13.001,6.739-19.588,15.356-19.588,25.633c0,15.79,13.261,24.841,36.387,24.841
	c9.474,0,15.855-0.825,23.234-1.78l0.922-0.109c0.033,0,0.065-0.011,0.098-0.011c4.352-0.717,7.282-4.189,7.282-8.66
	c0-4.644-3.331-8.15-7.759-8.15c-0.39,0-0.988,0-1.671,0.141c-5.947,1.031-13.315,2.127-22.344,2.127
	c-4.384,0-18.677-0.651-18.677-8.866c0-9.127,21.921-16.756,42.291-19.946c4.124-0.771,6.837-4.048,6.837-8.205
	c0-4.058-3.071-8.389-8.769-8.389c-0.629,0-1.487,0-2.42,0.239c-5.535,1.096-12.523,2.604-19.512,4.731l-1.042-10.504
	C199.154,12.009,195.649,9.067,190.95,9.067"/>
<path fill="#3FB8EC" d="M284.105,10.589v10.614c0,0.988,0.792,1.714,1.834,1.714c14.444,0,26.642,0.054,26.642,0.054v19.295
	c0,23.528-20.239,35.649-60.707,36.344v-3.462c14.781-0.695,25.947-3.277,33.533-7.749c10.147-6.001,15.214-16.517,15.214-31.525
	c0-1.65,0.043-3.701-0.184-5.025c-0.119-0.716-0.879-1.454-1.367-1.454c-6.436,0-35.595,0.097-42.172,0.097
	c-0.38,0-0.868,0.206-1.226,0.499c-0.456,0.412-0.618,1.063-0.618,1.66V44.99h-11.753V22.83c0,0,12.48,0.054,27.174,0.054
	c1.063,0,1.877-0.803,1.877-1.747v-8.866L284.105,10.589 M284.105,8.96c-0.076,0-0.152,0.011-0.228,0.022l-11.753,1.671
	c-0.803,0.12-1.4,0.803-1.4,1.617v8.866c0,0.022-0.065,0.13-0.25,0.13c-14.52,0-27.044-0.054-27.163-0.054h-0.011
	c-0.423,0-0.836,0.174-1.151,0.467c-0.304,0.303-0.477,0.716-0.477,1.15v22.16c0,0.89,0.727,1.628,1.628,1.628h11.753
	c0.9,0,1.628-0.738,1.628-1.628V31.652c0-0.249,0.054-0.401,0.087-0.444c0.054-0.044,0.163-0.098,0.206-0.109
	c0.293,0.011,0.64,0.011,1.042,0.011c3.853,0,12.024-0.032,20.152-0.054c8.584-0.021,17.136-0.043,20.587-0.043
	c0.043,0.054,0.076,0.109,0.087,0.152c0.174,0.977,0.174,2.616,0.163,4.07v0.641c0,14.531-4.721,24.385-14.433,30.126
	c-7.304,4.308-18.33,6.848-32.774,7.52c-0.868,0.043-1.552,0.77-1.552,1.628v3.462c0,0.434,0.174,0.846,0.488,1.151
	c0.304,0.303,0.716,0.466,1.14,0.466h0.032c41.336-0.716,62.291-13.489,62.291-37.961V22.971c0-0.901-0.716-1.617-1.617-1.627
	c-0.12,0-12.361-0.054-26.642-0.054c-0.141,0-0.206-0.044-0.206-0.054l-0.011-10.646c0-0.478-0.195-0.923-0.553-1.226
	C284.876,9.102,284.496,8.96,284.105,8.96"/>
<path fill="#FFFFFF" d="M368.3,33.051c-0.857,0-1.715-0.054-2.529-0.184c-4.938-0.705-8.454-3.842-11.547-6.609
	c-2.713-2.42-5.274-4.699-8.41-5.187c-0.271-0.022-0.553-0.044-0.836-0.044c-3.158,0-6.381,2.463-7.434,3.277
	c-1.107,0.814-2.268,1.248-3.386,1.248c-0.412,0-0.814-0.065-1.194-0.174c-1.324-0.369-2.463-1.335-3.136-2.637
	c-0.662-1.292-0.771-2.757-0.304-4.005c0.326-0.868,0.944-1.661,1.791-2.268c1.78-1.281,8.128-5.372,15.302-5.372
	c0.857,0,1.693,0.043,2.507,0.162c5.101,0.739,9.062,4.113,12.556,7.098c2.604,2.224,5.068,4.33,7.401,4.709
	c0.271,0.044,0.564,0.054,0.836,0.054c3.039,0,6.034-2.257,7.466-3.354c0.933-0.716,2.008-1.085,3.104-1.085
	c0.456,0,0.911,0.065,1.346,0.174c1.346,0.38,2.561,1.389,3.245,2.724c0.64,1.27,0.738,2.626,0.293,3.83
	c-0.326,0.868-0.944,1.65-1.791,2.268C380.985,29.665,374.832,33.051,368.3,33.051"/>
<path fill="#FFFFFF" d="M368.3,79.85c-0.857,0-1.715-0.065-2.529-0.184c-4.927-0.705-8.454-3.842-11.547-6.609
	c-2.713-2.42-5.274-4.71-8.41-5.187c-0.271-0.033-0.553-0.054-0.836-0.054c-3.158,0-6.381,2.474-7.434,3.288
	c-1.107,0.814-2.257,1.237-3.386,1.237c-0.412,0-0.814-0.054-1.204-0.174c-1.313-0.358-2.463-1.324-3.125-2.638
	c-0.662-1.291-0.771-2.745-0.304-4.004c0.326-0.858,0.944-1.65,1.791-2.269c1.78-1.27,8.128-5.372,15.291-5.372
	c0.868,0,1.704,0.054,2.518,0.174c5.101,0.739,9.062,4.113,12.556,7.098c2.604,2.224,5.068,4.319,7.401,4.699
	c0.282,0.043,0.564,0.065,0.846,0.065c3.028,0,6.023-2.268,7.455-3.354c0.933-0.716,2.008-1.096,3.115-1.096
	c0.445,0,0.9,0.065,1.335,0.184c1.346,0.369,2.55,1.389,3.234,2.713c0.64,1.27,0.76,2.626,0.304,3.831
	c-0.315,0.857-0.933,1.649-1.791,2.279C380.985,76.465,374.843,79.85,368.3,79.85"/>
<path fill="#FFFFFF" d="M368.3,56.45c-0.857,0-1.715-0.065-2.529-0.184c-4.927-0.705-8.454-3.842-11.547-6.609
	c-2.713-2.42-5.274-4.699-8.41-5.187c-0.271-0.033-0.553-0.044-0.836-0.044c-3.158,0-6.381,2.463-7.434,3.277
	c-1.107,0.814-2.268,1.237-3.386,1.237c-0.412,0-0.814-0.054-1.204-0.174c-1.313-0.358-2.452-1.324-3.125-2.638
	c-0.662-1.291-0.771-2.745-0.304-3.993c0.326-0.868,0.944-1.661,1.791-2.279c1.78-1.27,8.128-5.372,15.302-5.372
	c0.857,0,1.693,0.054,2.507,0.174c5.101,0.739,9.062,4.113,12.556,7.098c2.604,2.224,5.068,4.319,7.401,4.699
	c0.282,0.043,0.564,0.065,0.846,0.065c3.028,0,6.023-2.268,7.455-3.354c0.933-0.716,2.008-1.085,3.115-1.085
	c0.445,0,0.9,0.065,1.335,0.174c1.346,0.38,2.561,1.389,3.245,2.724c0.64,1.258,0.738,2.626,0.293,3.83
	c-0.315,0.857-0.933,1.639-1.791,2.268C380.985,53.065,374.832,56.45,368.3,56.45"/>
<path fill="#3FB8EC" d="M346.617,11.892c0.792,0,1.595,0.054,2.398,0.174c8.747,1.258,14.184,10.863,19.935,11.796
	c0.326,0.054,0.651,0.076,0.966,0.076c3.31,0,6.436-2.377,7.955-3.516c0.846-0.652,1.747-0.933,2.615-0.933
	c0.38,0,0.76,0.054,1.129,0.152c2.225,0.619,3.82,3.266,2.995,5.48c-0.26,0.705-0.781,1.367-1.508,1.899
	c-2.073,1.595-8.183,5.22-14.802,5.22c-0.803,0-1.606-0.044-2.42-0.163c-8.866-1.28-12.784-10.711-19.935-11.796
	c-0.326-0.054-0.64-0.076-0.966-0.076c-3.202,0-6.327,2.225-7.933,3.451c-0.999,0.748-1.986,1.074-2.887,1.074
	c-0.347,0-0.662-0.054-0.977-0.141c-2.29-0.619-3.722-3.354-2.898-5.567c0.271-0.705,0.781-1.367,1.508-1.899
	C334.516,15.18,340.355,11.892,346.617,11.892 M346.617,10.275c-7.412,0-13.934,4.232-15.768,5.524
	c-0.988,0.716-1.704,1.628-2.084,2.648c-0.542,1.464-0.423,3.169,0.336,4.655c0.77,1.519,2.105,2.638,3.646,3.061
	c0.445,0.13,0.922,0.184,1.411,0.184c1.291,0,2.626-0.478,3.852-1.378c1.031-0.792,4.08-3.147,6.967-3.147
	c0.249,0,0.499,0.022,0.727,0.054c2.887,0.445,5.361,2.648,7.976,4.981c3.18,2.854,6.794,6.077,11.97,6.815
	c0.857,0.13,1.747,0.195,2.648,0.195c6.761,0,13.109-3.494,15.801-5.556c0.933-0.684,1.65-1.596,2.029-2.616
	c0.532-1.433,0.412-3.017-0.336-4.482c-0.781-1.541-2.181-2.702-3.755-3.136c-0.499-0.141-1.031-0.217-1.552-0.217
	c-1.28,0-2.518,0.434-3.592,1.258c-1.367,1.031-4.211,3.191-6.978,3.191c-0.238,0-0.488-0.021-0.716-0.054
	c-2.095-0.336-4.482-2.365-6.989-4.525c-3.581-3.05-7.64-6.5-12.968-7.271C348.396,10.34,347.506,10.275,346.617,10.275"/>
<path fill="#3FB8EC" d="M346.617,35.293c0.792,0,1.595,0.054,2.398,0.174c8.747,1.258,14.184,10.863,19.935,11.796
	c0.326,0.054,0.651,0.076,0.977,0.076c3.299,0,6.436-2.377,7.944-3.516c0.846-0.652,1.747-0.933,2.626-0.933
	c0.38,0,0.749,0.054,1.118,0.152c2.225,0.607,3.82,3.266,2.995,5.48c-0.26,0.705-0.781,1.367-1.508,1.899
	c-2.073,1.584-8.183,5.209-14.802,5.209c-0.803,0-1.606-0.032-2.42-0.152c-8.866-1.28-12.784-10.711-19.935-11.796
	c-0.326-0.054-0.64-0.076-0.966-0.076c-3.202,0-6.327,2.214-7.933,3.451c-0.999,0.748-1.986,1.074-2.887,1.074
	c-0.336,0-0.662-0.054-0.977-0.141c-2.29-0.629-3.722-3.354-2.898-5.567c0.271-0.705,0.781-1.367,1.508-1.91
	C334.516,38.581,340.366,35.293,346.617,35.293 M346.617,33.675c-7.412,0-13.945,4.222-15.768,5.514
	c-0.988,0.727-1.704,1.639-2.084,2.659c-0.542,1.464-0.423,3.157,0.336,4.655c0.77,1.509,2.105,2.626,3.646,3.061
	c0.445,0.13,0.933,0.184,1.411,0.184c1.291,0,2.626-0.478,3.852-1.378c1.031-0.792,4.08-3.147,6.967-3.147
	c0.249,0,0.499,0.022,0.727,0.054c2.887,0.445,5.361,2.648,7.976,4.981c3.18,2.854,6.794,6.077,11.97,6.815
	c0.857,0.13,1.747,0.195,2.648,0.195c6.75,0,13.109-3.494,15.801-5.556c0.944-0.695,1.65-1.606,2.029-2.626
	c0.532-1.422,0.412-3.006-0.336-4.471c-0.781-1.541-2.181-2.713-3.744-3.136c-0.51-0.141-1.042-0.217-1.552-0.217
	c-1.28,0-2.529,0.434-3.603,1.258c-1.367,1.031-4.211,3.18-6.967,3.18c-0.249,0-0.488-0.011-0.727-0.044
	c-2.095-0.347-4.482-2.365-6.989-4.525c-3.581-3.05-7.64-6.511-12.968-7.271C348.396,33.73,347.506,33.675,346.617,33.675"/>
<path fill="#3FB8EC" d="M346.617,58.692c0.792,0,1.595,0.054,2.398,0.174c8.747,1.258,14.184,10.852,19.935,11.796
	c0.326,0.044,0.651,0.066,0.977,0.066c3.299,0,6.436-2.366,7.944-3.505c0.846-0.652,1.747-0.933,2.615-0.933
	c0.391,0,0.76,0.054,1.129,0.152c2.225,0.607,3.82,3.256,2.995,5.48c-0.26,0.705-0.781,1.367-1.508,1.899
	c-2.073,1.584-8.183,5.209-14.802,5.209c-0.803,0-1.606-0.043-2.42-0.162c-8.866-1.281-12.784-10.7-19.935-11.797
	c-0.326-0.043-0.651-0.065-0.966-0.065c-3.202,0-6.327,2.214-7.933,3.451c-0.999,0.748-1.986,1.064-2.887,1.064
	c-0.336,0-0.662-0.044-0.977-0.13c-2.29-0.629-3.722-3.364-2.898-5.578c0.271-0.705,0.781-1.368,1.508-1.9
	C334.516,61.98,340.355,58.692,346.617,58.692 M346.617,57.074c-7.412,0-13.934,4.222-15.768,5.514
	c-0.988,0.716-1.704,1.627-2.084,2.659c-0.542,1.464-0.423,3.157,0.336,4.655c0.77,1.509,2.105,2.626,3.646,3.05
	c0.445,0.13,0.933,0.195,1.411,0.195c1.291,0,2.626-0.478,3.852-1.378c1.031-0.792,4.08-3.147,6.967-3.147
	c0.249,0,0.488,0.022,0.727,0.054c2.887,0.445,5.361,2.648,7.976,4.981c3.18,2.844,6.794,6.077,11.97,6.815
	c0.857,0.13,1.747,0.195,2.648,0.195c6.761,0,13.109-3.494,15.801-5.567c0.944-0.684,1.65-1.595,2.029-2.615
	c0.532-1.422,0.412-3.017-0.336-4.482c-0.781-1.53-2.181-2.702-3.755-3.125c-0.499-0.141-1.02-0.217-1.552-0.217
	c-1.269,0-2.518,0.434-3.592,1.258c-1.367,1.031-4.222,3.18-6.967,3.18c-0.249,0-0.488-0.011-0.727-0.044
	c-2.095-0.347-4.482-2.365-6.989-4.525c-3.581-3.05-7.64-6.511-12.968-7.271C348.396,57.129,347.506,57.074,346.617,57.074"/>
<path fill="#003B70" d="M439.109,13.16c20.673,0,30.657,14.271,30.657,31.113c0,16.062-7.955,28.086-13.023,33.62
	c-1.411,1.715-3.125,2.572-4.992,2.572c-2.887,0-5.849-2.507-5.849-5.621c0-1.085,0.542-2.333,1.639-3.581
	c4.525-4.613,11.221-14.738,11.221-26.675c0-10.993-5.686-19.339-15.823-21.292c-0.477,10.765-1.487,19.968-4.134,30.256
	c-3.744,14.357-9.593,23.636-20.044,23.636c-8.269,0-16.843-8.725-16.843-25.188C401.919,30.783,415.636,13.16,439.109,13.16
	 M418.914,66.194c3.668,0,7.26-5.535,9.984-16.376c2.105-8.584,3.125-17.396,3.668-26.447
	c-13.576,2.648-20.587,15.442-20.587,29.019C411.979,60.572,415.799,66.194,418.914,66.194 M439.109,10.23
	c-23.614,0-40.12,17.179-40.12,41.77c0,18.449,9.951,28.118,19.773,28.118c14.466,0,19.979-14.748,22.876-25.818
	c2.203-8.584,3.418-16.658,4.037-27.163c6.435,2.604,10.168,8.899,10.168,17.451c0,10.363-5.6,19.751-10.386,24.623l-0.108,0.13
	c-1.552,1.758-2.377,3.657-2.377,5.502c0,4.547,4.102,8.541,8.779,8.541c2.767,0,5.253-1.237,7.206-3.581
	c3.288-3.614,13.739-16.582,13.739-35.53C472.697,23.599,459.512,10.23,439.109,10.23 M418.936,63.264
	c-0.955-0.184-4.037-3.874-4.037-10.873c0-9.376,3.874-20.934,14.455-25.068c-0.651,8.356-1.715,15.366-3.288,21.791
	C423.157,60.649,419.956,63.231,418.936,63.264"/>
<path fill="#FFFFFF" d="M483.249,79.415c-0.347,0-0.673-0.228-0.782-0.564l-0.673-2.084c-0.13-0.423,0.087-0.879,0.51-1.02
	c8.367-2.93,14.726-6.913,18.915-11.807c4.667-5.545,7.032-12.805,7.032-21.574V30.809c0-0.456,0.369-0.825,0.814-0.825h11.85
	c0.445,0,0.814,0.369,0.814,0.825v11.752c0,0.445,0.119,0.771,0.358,0.999c0.228,0.206,0.553,0.325,0.922,0.325
	c0.12,0,0.239-0.021,0.358-0.043c0.586-0.098,1.324-0.369,2.062-0.727c3.114-1.997,6.121-4.623,8.845-7.781
	c2.04-2.475,3.842-5.166,5.339-7.977c0.554-1.041,0.641-1.996,0.25-2.647c-0.271-0.456-0.749-0.705-1.313-0.705h-57.43
	c-0.445,0-0.814-0.38-0.814-0.825v-7.401c0-0.456,0.369-0.814,0.814-0.814h76.887c0.25,0,0.488,0.109,0.641,0.315
	c0.152,0.195,0.206,0.456,0.141,0.695c-2.659,9.951-7.271,18.079-13.717,24.156c-6.37,6.045-14.075,9.67-22.898,10.744
	c-0.032,0-0.054,0.011-0.087,0.011c-0.032,0-0.065-0.011-0.109-0.011c-0.271,0.119-0.705,0.423-0.879,1.258
	c-1.747,8.302-5.882,14.444-12.295,18.275c-7.184,4.427-15.746,7.456-25.426,8.996C483.335,79.415,483.281,79.415,483.249,79.415"/>
<path fill="#3FB8EC" d="M558.006,15.761c-2.637,9.853-7.13,17.776-13.489,23.787c-6.262,5.947-13.739,9.453-22.421,10.527
	c0.228-0.032,0.239-0.076,0.12-0.076c-0.315,0-1.563,0.304-1.91,1.965c-1.704,8.107-5.675,14.021-11.916,17.743
	c-7.13,4.395-15.508,7.368-25.144,8.898l-0.673-2.094c8.541-2.995,14.965-7.01,19.273-12.035c4.818-5.741,7.217-13.098,7.217-22.106
	V30.802h11.861v11.753c0,1.411,0.955,2.127,2.084,2.127c0.174,0,0.336-0.011,0.499-0.032c0.814-0.152,1.661-0.499,2.268-0.803
	c-0.054,0.032-0.109,0.076-0.174,0.108c0.065-0.043,0.12-0.076,0.184-0.108c0.564-0.282,0.933-0.532,0.901-0.532
	c-0.032,0-0.293,0.152-0.901,0.532h-0.011c3.288-2.095,6.327-4.754,9.116-7.966c2.094-2.54,3.907-5.253,5.448-8.139
	c1.411-2.659,0.033-4.558-1.78-4.558h-57.429v-7.422H558.006 M522.096,50.075h-0.022H522.096 M558.006,14.143h-76.877
	c-0.901,0-1.628,0.727-1.628,1.617v7.422c0,0.901,0.727,1.617,1.628,1.617h57.429c0.152,0,0.445,0.043,0.619,0.325
	c0.239,0.401,0.13,1.086-0.271,1.845c-1.476,2.767-3.256,5.426-5.274,7.868c-2.616,3.038-5.535,5.6-8.649,7.585
	c-0.651,0.315-1.259,0.532-1.758,0.619c-0.065,0.011-0.141,0.022-0.217,0.022c-0.402,0-0.467-0.163-0.467-0.51V30.802
	c0-0.901-0.727-1.628-1.617-1.628h-11.861c-0.89,0-1.617,0.727-1.617,1.628V42.37c0,8.574-2.311,15.66-6.848,21.053
	c-4.091,4.764-10.342,8.66-18.568,11.547c-0.825,0.304-1.281,1.204-1.009,2.04l0.673,2.084c0.217,0.694,0.857,1.139,1.552,1.139
	c0.087,0,0.163-0.011,0.249-0.022c9.811-1.573,18.471-4.634,25.752-9.127c6.598-3.928,10.852-10.255,12.643-18.785
	c0.076-0.358,0.206-0.521,0.304-0.608c0.043,0,0.076-0.011,0.109-0.011c8.996-1.118,16.843-4.786,23.332-10.961
	c6.544-6.175,11.243-14.434,13.945-24.537c0.13-0.478,0.022-0.999-0.282-1.4C558.993,14.372,558.516,14.143,558.006,14.143"/>
<path fill="#FFFFFF" d="M601.139,79.733h-11.753c-0.456,0-0.814-0.358-0.814-0.813V51.833c0-0.282-0.065-1.639-1.357-1.639
	c-0.38,0-0.836,0.109-1.357,0.315c-0.336,0.13-0.695,0.261-1.042,0.402l-0.163,0.054c-6.186,2.3-13.75,4.297-23.332,6.836
	c-0.065,0-0.141,0.011-0.206,0.011c-0.336,0-0.651-0.195-0.77-0.521l-0.955-2.626c-0.152-0.412,0.054-0.868,0.456-1.02
	c28.628-11.612,42.063-23.983,46.382-42.746c0.054-0.207,0.184-0.391,0.369-0.51c0.13-0.076,0.271-0.109,0.423-0.109
	c0.065,0,0.13,0,0.206,0.022l13.674,3.451c0.217,0.054,0.401,0.195,0.51,0.391c0.109,0.206,0.13,0.434,0.065,0.651
	c-3.256,9.875-12.035,20.825-18.655,26.121l-0.217,0.163l-0.445,0.358c-0.195,0.163-0.239,0.217-0.25,0.239
	c0,0.022,0.011,0.228,0.022,0.401c0.011,0.228,0.022,0.488,0.022,0.825V78.92C601.953,79.376,601.595,79.733,601.139,79.733"/>
<path fill="#3FB8EC" d="M607.021,11.076l13.684,3.462c-3.288,9.984-12.046,20.662-18.384,25.741
	c-0.054,0.044-0.521,0.413-0.673,0.532c-0.738,0.597-0.51,0.641-0.51,2.094v36.007h-11.753V51.826c0-0.836-0.413-2.442-2.171-2.442
	c-0.456,0-0.999,0.109-1.65,0.369c-0.391,0.163-0.792,0.304-1.194,0.456c-6.012,2.236-13.381,4.189-23.256,6.804l-0.966-2.626
	C584.839,44.392,602.05,32.65,607.021,11.076 M607.021,9.459c-0.293,0-0.586,0.076-0.846,0.229
	c-0.369,0.238-0.641,0.607-0.738,1.031c-4.254,18.459-17.548,30.679-45.893,42.161c-0.814,0.325-1.216,1.248-0.912,2.062
	l0.955,2.626c0.238,0.651,0.857,1.063,1.53,1.063c0.13,0,0.271-0.021,0.412-0.054c9.615-2.539,17.211-4.546,23.408-6.836
	c0.412-0.163,0.825-0.326,1.226-0.478c0.532-0.207,0.868-0.25,1.053-0.25c0.358,0,0.542,0.271,0.542,0.814v27.087
	c0,0.901,0.727,1.639,1.628,1.639h11.753c0.901,0,1.628-0.738,1.628-1.639V42.905c0-0.347-0.022-0.641-0.032-0.857v-0.033
	c0.098-0.076,0.239-0.195,0.358-0.282c0.13-0.098,0.239-0.185,0.272-0.207c6.837-5.48,15.54-16.343,18.883-26.479
	c0.141-0.423,0.098-0.89-0.119-1.291c-0.217-0.402-0.586-0.684-1.031-0.792l-13.674-3.462C607.292,9.47,607.151,9.459,607.021,9.459
	"/>
<path fill="#3FB8EC" d="M653.523,11.076c0,0,13.63,3.451,13.674,3.451c-0.163,0.445-0.336,0.879-0.51,1.313
	c-0.076,0.174-0.185,0.358-0.228,0.564c-0.499,2.008,0.716,3.343,1.758,3.343h29.507c-4.504,16.69-11.862,29.843-22.063,39.48
	c-9.702,9.148-22.811,15.855-39.317,20.109l-0.868-2.93c11.493-5.024,19.686-10.201,24.569-15.497c0,0,2.507-2.225,4.33-4.395
	c6.631-7.369,11.666-15.399,15.106-24.103l0.326-0.858c0.249-0.629,0.618-3.896-1.563-3.896h-17.233
	c-0.553,0-0.618,0.044-0.955,0.586c-0.152,0.228-0.336,0.445-0.532,0.727c-10.092,13.739-22.605,16.007-27.336,17.504l-0.966-2.615
	C643.539,36.101,648.423,27.853,653.523,11.076 M653.523,9.459c-0.695,0-1.346,0.456-1.563,1.151
	c-5.253,17.298-10.299,24.754-21.607,31.873c-0.64,0.413-0.922,1.215-0.651,1.943l0.955,2.615c0.239,0.651,0.857,1.064,1.53,1.064
	c0.152,0,0.326-0.022,0.488-0.076c0.488-0.152,1.053-0.325,1.704-0.499c5.545-1.574,17.103-4.851,26.446-17.592l0.185-0.25
	c0.109-0.13,0.206-0.271,0.304-0.412h16.918c0.163,0.325,0.174,1.291,0.043,1.725c-0.098,0.26-0.206,0.532-0.315,0.825
	c-3.353,8.476-8.324,16.419-14.792,23.593c-1.769,2.105-4.178,4.254-4.211,4.276c-0.032,0.032-0.076,0.076-0.108,0.119
	c-4.699,5.101-12.784,10.19-24.027,15.107c-0.749,0.325-1.139,1.161-0.901,1.943l0.868,2.93c0.206,0.717,0.857,1.172,1.552,1.172
	c0.141,0,0.271-0.011,0.412-0.054c16.691-4.309,30.158-11.2,40.012-20.5c10.396-9.799,17.96-23.332,22.518-40.239
	c0.13-0.489,0.032-0.999-0.282-1.411c-0.304-0.402-0.781-0.63-1.28-0.63h-29.442c-0.119-0.087-0.456-0.488-0.25-1.335
	c0.011-0.011,0.033-0.054,0.043-0.097c0.043-0.087,0.087-0.174,0.12-0.25c0.174-0.445,0.347-0.89,0.521-1.335
	c0.174-0.456,0.13-0.933-0.087-1.357c-0.228-0.413-0.63-0.717-1.085-0.825c-0.369-0.087-8.356-2.094-13.62-3.429
	C653.784,9.47,653.653,9.459,653.523,9.459"/>
<path fill="#003B70" d="M719.665,20.608c0,5.296-6.067,10.321-12.491,10.321c-2.865,0-5.394-1.455-7.271-2.485
	c-0.011-0.011-0.043-0.032-0.076-0.044c-1.237,1.313-2.93,2.051-4.808,2.051c-4.297,0-8.063-3.614-8.063-7.727
	c0-2.344,1.183-4.623,3.071-6.457c-1.856-1.433-3.071-3.614-3.071-5.969C686.956,5.003,693.034,0,699.447,0
	c2.876,0,5.48,1.422,7.379,2.496c1.237-1.302,2.919-2.029,4.797-2.029c4.287,0,8.042,3.614,8.042,7.726
	c0,2.344-1.183,4.634-3.071,6.457C718.449,16.083,719.665,18.275,719.665,20.608"/>
<path fill="#003B70" d="M672.25,45.651c0,3.896-4.189,5.003-5.524,5.361c-0.423,0.228-1.335,1.335-2.605,6.11
	c-0.369,1.39-1.487,5.567-5.372,5.567c-3.907,0-5.024-4.178-5.394-5.567c-1.269-4.775-2.181-5.882-2.561-6.098
	c-1.378-0.348-5.567-1.476-5.567-5.372c0-3.895,4.189-5.024,5.524-5.372c0.423-0.238,1.335-1.335,2.604-6.12
	c0.369-1.378,1.487-5.567,5.394-5.567c3.885,0,5.003,4.189,5.372,5.567c1.27,4.786,2.182,5.882,2.55,6.099
	C668.061,40.627,672.25,41.755,672.25,45.651"/>
<path fill="#FFF100" d="M658.738,59.289c-1.118,0-1.661-1.464-2.084-3.049c-0.727-2.702-2.062-7.727-4.97-8.497
	c-1.584-0.434-3.05-0.977-3.05-2.094c0-1.118,1.476-1.671,3.05-2.094c2.908-0.771,4.243-5.795,4.97-8.497
	c0.423-1.595,0.966-3.06,2.084-3.06c1.128,0,1.671,1.465,2.094,3.06c0.716,2.702,2.062,7.726,4.959,8.497
	c1.584,0.423,3.049,0.976,3.049,2.094c0.011,1.117-1.465,1.661-3.049,2.094c-2.898,0.77-4.243,5.795-4.959,8.497
	C660.409,57.825,659.866,59.289,658.738,59.289"/>
<path fill="#3FB8EC" d="M658.738,32.813c0.445,0,0.879,0.825,1.313,2.441c0.868,3.267,2.279,8.215,5.535,9.084
	c3.266,0.868,3.266,1.747,0,2.615c-3.256,0.868-4.666,5.817-5.535,9.084c-0.434,1.617-0.868,2.441-1.313,2.441
	c-0.434,0-0.868-0.825-1.303-2.441c-0.868-3.267-2.279-8.215-5.534-9.084c-3.267-0.868-3.267-1.747,0-2.615
	c3.255-0.868,4.666-5.817,5.534-9.084C657.869,33.637,658.304,32.813,658.738,32.813 M658.738,31.185
	c-1.899,0-2.529,2.377-2.876,3.658c-0.63,2.366-1.932,7.282-4.384,7.922c-1.281,0.348-3.657,0.977-3.657,2.887
	c0,1.9,2.377,2.529,3.657,2.876c2.452,0.641,3.755,5.557,4.384,7.922c0.347,1.27,0.977,3.646,2.876,3.646
	c1.899,0,2.539-2.377,2.876-3.646c0.63-2.365,1.942-7.281,4.395-7.922c1.281-0.347,3.646-0.976,3.646-2.876
	c0-1.91-2.366-2.539-3.646-2.887c-2.453-0.64-3.766-5.556-4.395-7.922C661.277,33.562,660.637,31.185,658.738,31.185"/>
<path fill="#FFFFFF" d="M707.175,27.518c-1.975,0-3.972-1.128-5.589-2.04c-0.792-0.444-1.769-1.009-2.127-1.009
	c-0.803,0-1.28,0.303-1.801,1.172c-0.619,0.911-1.552,1.4-2.648,1.4c-2.192,0-4.634-1.845-4.634-4.319
	c0-3.05,4.276-6.891,9.083-6.891c2.008,0,4.091,1.161,5.752,2.094c0.716,0.391,1.672,0.933,1.965,0.933
	c0.803,0,1.269-0.293,1.812-1.161c0.597-0.911,1.53-1.4,2.637-1.4c2.181,0,4.623,1.845,4.623,4.319
	C716.248,23.97,711.592,27.518,707.175,27.518"/>
<path fill="#FFFFFF" d="M707.175,15.087c-1.975,0-3.972-1.128-5.589-2.04c-0.792-0.444-1.769-0.998-2.127-0.998
	c-0.803,0-1.28,0.304-1.801,1.172c-0.619,0.912-1.541,1.4-2.648,1.4c-2.192,0-4.634-1.845-4.634-4.319
	c0-3.05,4.276-6.902,9.083-6.902c2.008,0,4.091,1.172,5.763,2.105c0.705,0.391,1.661,0.933,1.954,0.945
	c0.803,0,1.269-0.304,1.812-1.172c0.597-0.911,1.53-1.4,2.637-1.4c2.181,0,4.623,1.845,4.623,4.308
	C716.248,11.549,711.592,15.087,707.175,15.087"/>
<path fill="#3FB8EC" d="M699.455,4.209c2.962,0,6.468,3.05,7.716,3.05c1.172,0,1.877-0.543,2.496-1.563
	c0.467-0.694,1.172-1.02,1.953-1.02c1.791,0,3.82,1.563,3.82,3.516c0,2.8-4.135,6.077-8.269,6.077c-2.963,0-6.316-3.028-7.716-3.028
	c-1.172,0-1.867,0.542-2.496,1.551c-0.467,0.705-1.172,1.009-1.953,1.009c-1.791,0-3.82-1.552-3.82-3.505
	C691.186,7.801,694.93,4.209,699.455,4.209 M699.455,2.592c-5.329,0-9.897,4.244-9.897,7.705c0,2.93,2.887,5.144,5.448,5.144
	c1.389,0,2.561-0.629,3.31-1.758c0.488-0.792,0.749-0.825,1.14-0.825c0.228,0.043,1.096,0.542,1.736,0.89
	c1.693,0.955,3.798,2.16,5.98,2.16c4.905,0,9.897-3.896,9.897-7.716c0-2.941-2.876-5.133-5.448-5.133
	c-1.378,0-2.55,0.619-3.299,1.736c-0.467,0.739-0.727,0.825-1.074,0.836c-0.304-0.097-1.063-0.521-1.628-0.836
	C703.861,3.808,701.68,2.592,699.455,2.592"/>
<path fill="#3FB8EC" d="M699.455,16.631c2.962,0,6.468,3.05,7.716,3.05c1.172,0,1.877-0.543,2.496-1.563
	c0.467-0.694,1.172-1.009,1.953-1.009c1.791,0,3.82,1.563,3.82,3.516c0,2.8-4.135,6.077-8.269,6.077
	c-2.963,0-6.316-3.038-7.716-3.038c-1.172,0-1.867,0.542-2.496,1.551c-0.467,0.705-1.172,1.021-1.953,1.021
	c-1.791,0-3.82-1.563-3.82-3.516C691.186,20.223,694.93,16.631,699.455,16.631 M699.455,15.013c-5.329,0-9.897,4.244-9.897,7.705
	c0,2.941,2.887,5.144,5.448,5.144c1.389,0,2.561-0.619,3.31-1.747c0.488-0.792,0.749-0.835,1.14-0.835
	c0.228,0.054,1.096,0.542,1.736,0.901c1.693,0.954,3.798,2.149,5.98,2.149c4.905,0,9.897-3.896,9.897-7.705
	c0-2.951-2.876-5.144-5.448-5.144c-1.378,0-2.561,0.619-3.299,1.736c-0.467,0.749-0.727,0.825-1.074,0.836
	c-0.304-0.087-1.063-0.521-1.628-0.836C703.861,16.229,701.68,15.013,699.455,15.013"/>
<path fill="#003B70" d="M704.531,66.204h6.023c1.378,0,2.42,0.303,3.114,0.901c0.694,0.597,1.042,1.443,1.042,2.506
	c0,0.597-0.087,1.096-0.271,1.487c-0.174,0.391-0.38,0.705-0.608,0.955c-0.239,0.238-0.467,0.412-0.705,0.521
	c-0.228,0.098-0.391,0.174-0.499,0.206v0.044c0.195,0.022,0.39,0.076,0.608,0.174c0.217,0.087,0.423,0.239,0.608,0.456
	c0.195,0.195,0.347,0.467,0.467,0.792c0.13,0.326,0.184,0.738,0.184,1.237c0,0.749,0.065,1.411,0.174,2.018
	c0.109,0.608,0.282,1.031,0.521,1.303h-2.366c-0.163-0.282-0.26-0.576-0.293-0.901c-0.022-0.326-0.043-0.651-0.043-0.955
	c0-0.575-0.033-1.074-0.098-1.498c-0.076-0.413-0.206-0.76-0.402-1.031c-0.185-0.282-0.434-0.477-0.76-0.607
	s-0.738-0.206-1.248-0.206h-3.245v5.198h-2.203V66.204z M706.735,71.933h3.613c0.705,0,1.248-0.174,1.606-0.499
	c0.369-0.336,0.553-0.836,0.553-1.509c0-0.401-0.065-0.727-0.174-0.976c-0.13-0.26-0.282-0.445-0.489-0.597
	c-0.206-0.141-0.445-0.239-0.705-0.272c-0.271-0.054-0.542-0.076-0.825-0.076h-3.581V71.933z"/>
<path fill="#003B70" d="M709.267,63.705c5.035,0,9.105,4.08,9.105,9.115c0,5.035-4.07,9.116-9.105,9.116
	c-5.036,0-9.116-4.081-9.116-9.116C700.151,67.785,704.232,63.705,709.267,63.705 M709.267,62.087
	c-5.915,0-10.733,4.808-10.733,10.733c0,5.915,4.818,10.744,10.733,10.744c5.914,0,10.733-4.829,10.733-10.744
	C720,66.895,715.182,62.087,709.267,62.087"/>
</svg>
