<?xml version="1.0" encoding="utf-8"?>
<!-- Generator: Adobe Illustrator 27.0.1, SVG Export Plug-In . SVG Version: 6.00 Build 0)  -->
<svg version="1.1" id="레이어_1" xmlns="http://www.w3.org/2000/svg" xmlns:xlink="http://www.w3.org/1999/xlink" x="0px"
	 y="0px" viewBox="0 0 720 202.406" enable-background="new 0 0 720 202.406" xml:space="preserve">
<path fill="#1E1210" d="M662.547,93.532c7.108-13.17,13.449-26.99,18.065-46.633c2.984-1.021,4.27-2.772,4.642-4.682h-23.211
	l-0.093,0.597c-2.612,18.356-7.958,34.166-13.754,47.204c-11.512-2.281-20.597-2.998-20.597-2.998
	c6.353,2.109,12.48,5.014,18.183,8.183l-4.311,8.051c-12.547,21.062-29.882,29.511-44.869,35.413l-5.557,1.711
	c26.779-3.992,48.504-15.518,61.17-31.089c0,0,1.751-1.804,4.205-5.398l1.035-1.538c2.626,1.751,5.106,3.475,7.401,5.093
	c22.495,16.022,41.381,41.01,41.381,41.01v-32.959c0,0-11.672-10.73-37.627-20.001C666.619,94.792,664.576,94.129,662.547,93.532"/>
<path fill="#1E1210" d="M617.966,34.431l-17.972,53.332c-0.703,2.427-0.053,5.027,1.764,6.764l0.849,0.69l0.69,0.425l0.397,0.212
	l0.372,0.172l0.266,0.093l0.478,0.119l0.398,0.133l0.199,0.04l0.279,0.04c3.183,0.411,6.3-1.393,7.507-4.536l19.616-57.483H720
	l-17.282-13.687l-8.011,9.775h-60.679l7.559-22.11c2.918-0.239,4.549-1.526,5.399-3.196C645.633,4.828,629.425,0,629.425,0
	l-10.12,30.519h-31.222c0,0,0.199,3.912,3.249,3.912H617.966z"/>
<polygon fill="#D0121B" points="369.593,158.488 361.582,158.488 357.099,150.491 365.083,150.491 "/>
<polygon fill="#D0121B" points="374.164,158.488 382.174,158.488 386.671,150.491 378.673,150.491 "/>
<polygon fill="#D0121B" points="374.164,160.6 382.174,160.6 386.671,168.611 378.673,168.611 "/>
<polygon fill="#D0121B" points="369.593,160.6 361.582,160.6 357.099,168.611 365.083,168.611 "/>
<polygon fill="#D0121B" points="376.548,170.352 371.879,176.334 367.21,170.352 371.879,161.347 "/>
<polygon fill="#D0121B" points="376.548,149.745 371.879,157.743 367.21,149.745 371.879,142.756 "/>
<path fill="#1E1210" d="M130.141,8.915l-6.579,7.096h-95.15c0,0,0.61,3.913,4.059,3.913h91.993c0,8.223-1.141,48.702-3.674,67.841
	l-0.332,2.281c-0.424,2.839-0.835,5.478-1.26,7.958c-2.308,12.242-5.345,18.277-13.383,20.014c-2.718,0.57-9.125,0.119-25.412-1.777
	l-1.99-0.252c0,0,16.632,6.406,20.478,8.899c1.592,1.22,2.811,2.546,3.727,4.059c1.167,1.936,1.83,4.271,2.095,7.308l0.053,0.637
	l0.663-0.04c1.286-0.119,2.626-0.345,3.966-0.663c4.337-1.048,8.302-3.21,11.485-6.22l0.253-0.265l0.372-0.372l0.437-0.464
	c1.552-1.671,2.879-3.555,3.926-5.57c1.087-1.976,2.029-4.112,2.799-6.34c6.989-19.961,8.608-43.411,9.775-91.755l0.027-1.088
	l5.888-4.908L130.141,8.915z"/>
<path fill="#1E1210" d="M82.192,32.385c2.984-0.928,4.257-2.944,4.655-4.695H62.443l-0.014,0.636
	c-0.451,62.629-23.687,97.723-62.417,120.165c0,0,47.032-15.545,65.587-49.909c8.966-16.592,14.285-38.172,16.579-66.237
	L82.192,32.385z"/>
<path fill="#D0121B" d="M410.237,33.578c-0.729-1.26-3.528-3.687-3.806-4.549l-1.221-2.48c-0.729-1.26-4.297-4.775-7.56-7.732
	l-1.592-1.406l-1.313-0.358l-2.069-0.172l-2.971,1.34l-1.684,0.703l-2.812,1.035l-1.949,0.994l-1.128,1.287
	c-1.128,1.472-1.313,1.923-0.902,2.652l0.345,0.372l0.557,0.584l2.202,1.326l1.021,0.822l0.597,2.533l0.212,0.212l0.225,0.199
	l-0.172,0.464l0.08,0.504l0.04,0.809l-0.212,2.109c-0.147,1.273-0.172,1.604-0.491,2.215l-0.583,2.029
	c-0.106,1.128-0.359,3.515-0.995,4.881c-0.65,1.379-0.835,2.148-1.592,5.809l-0.982,2.719c-0.212,0.782-0.331,1.79-0.716,3.037
	c-0.664,2.679-1.075,3.647-2.109,6.897c-0.478,1.074-1.937,5.478-2.746,7.308c-1.539,3.568-3.86,8.714-5.676,12.494
	c-1.061,2.228-1.936,3.979-2.374,4.669c-1.485,2.427-2.082,5.106-5.186,8.913l-0.982,1.791l-0.411,0.623l-0.092-0.013h-0.253
	l-1.339,2.122l0.584-0.212l0.597-0.703l0.424-0.504l0.531-0.464l0.516-0.491l0.385-0.875l1.817-3.064l1.34-1.498l0.411-0.504
	l-2.188,3.475l0.504-0.358c0.769-0.902,2.799-3.807,3.939-5.955c1.366-2.454,3.422-5.478,3.289-5.027
	c-0.198,0.69-2.626,4.947-4.27,7.467l-1.167,1.777l-2.215,3.581l-0.69,1.035l2.454-2.175l0.981-1.579l1.128-1.658l0.597-0.703
	l-1.366,2.945l-1.406,2.082l-1.379,2.082l-1.313,1.379c-0.716,0.676-1.525,1.685-2.441,3.037c-1.273,2.122-2.175,2.984-3.912,4.483
	l-1.273,0.783l3.422-4.138l0.664-0.929l0.437-0.61l-0.053-0.252l-1.552,1.3c-0.292,0.53-2.692,3.462-4.086,5.053l-1.856,2.335
	c-0.597,0.703-2.719,3.09-4.934,5.318c-3.17,3.343-4.257,4.403-4.762,4.775l-0.478,0.345l-0.106,0.305l-0.517,0.146l-0.133,0.027
	l-0.437,0.212v0.199l-0.292,0.584l-1.26,0.929l-0.478,0.478l-2.042,1.353l-0.571,0.478l-0.61,0.743l-0.822,0.849l-0.69,0.597
	l-0.332,0.212l-0.491,0.623l-0.291-0.319l-0.345,0.358l-0.266,0.517c-0.027,0.146-1.048,0.955-2.759,2.083l-1.234,0.928l0.385,0.199
	l0.623,0.093l-0.358,0.358l-0.331,0.239l-0.319,0.093l-0.345,0.212l-0.451,0.212l-0.225,0.106l-0.77,0.438l-0.755,1.141l0.225-0.106
	l0.677-0.451l2.652-1.114l1.42-0.623l1.114-0.517l0.954-0.132l0.438-0.08l0.305,0.053l0.424-0.053l0.451-0.225l2.017-1.074
	c1.008-0.676,1.446-0.902,3.289-1.3l1.83-1.618l2.096-0.915l0.424-0.08l0.106,0.013l-0.345,0.225l-0.358,0.372l-0.345,0.358
	l0.636-0.04c0.756-0.292,1.433-0.623,2.692-1.538l0.742-0.159l0.903-0.557l1.565-0.875l0.318-0.093l0.358-0.225
	c0.279,0.186-1.565,1.857-3.156,2.865l-0.663,0.451c0.411,0.066,2.719-0.822,3.926-1.472l1.207-0.371l1.339-0.769l1.857-1.525
	l1.843-1.326l0.65-0.517l0.557-0.478l0.61-0.491l0.172-0.133l0.199-0.132l0.437-0.305l1.526-1.459l1.604-0.849l0.478-0.305
	l0.266-0.385l0.968-1.101l2.029-2.348c0.359-0.597,1.46-1.512,2.732-2.6l0.544-0.464l0.862-0.729l1.273-1.167l0.199-0.199l1.366-1.3
	l7.878-8.86l0.889-0.929l1.088-1.499l1.141-1.791l0.915-1.578l0.385-0.637l1.525-2.838l0.438-0.411l0.146-0.212l0.716-0.61
	l1.3-2.056l0.04-0.345l-0.424,0.292l-0.478-0.053c0.597-1.565,1.843-4.191,2.082-4.165l0.159,1.525l-0.066,0.464l0.185-0.438
	l1.631-2.706l0.451-0.637l-0.172-0.026l0.199-0.782l0.159-0.305l0.889-1.114l0.172-0.093c0.875-1.817,1.83-4.125,2.48-6.194
	l0.544-1.552l0.079-0.61l0.213-0.199l0.053,0.079l0.411-0.424l0.584-1.751l1.087-1.538l0.199-0.133l0.266-0.822l0.053-0.438
	l0.623-2.361l0.425-1.724l0.331-0.769l0.385-0.278l0.199-0.61l0.027-0.159l0.04-0.133l0.106-0.172l0.066-0.331l-0.133-0.332
	l-0.013-0.066l0.053-0.252l0.027-0.013l0.544-0.716l0.133-0.637l-0.066-0.013l0.372-1.233l0.557-0.995l0.026-0.053
	c1.115-2.175,0.862-3.103,1.46-5.716l0.079-0.106l0.862-0.345l1.101-2.281l0.57-1.883c0.372-1.233,1.115-1.525,1.194-2.334
	l0.266-1.446l0.755-1.18l0.226-0.942l0.212-0.941C411.537,36.403,411.577,36.072,410.237,33.578 M342.012,128.052l-1.048,0.464
	l0.226-0.305l0.053-0.597l-0.092-0.146l0.636,0.04l0.61,0.159l0.543-0.106L342.012,128.052 M343.152,127.243l-0.053-0.252
	l0.212,0.172L343.152,127.243 M354.359,116.46l0.159-0.08l-0.226,0.305L354.359,116.46 M353.763,117.163l0.345-0.278l-0.253,0.425
	L353.763,117.163 M353.1,119.431l-2.414,2.069l4.098-3.82l0.517,0.013l-0.835,0.637L353.1,119.431 M355.394,118.688l-0.332,0.278
	l-0.862,0.265l-0.397,0.027l1.857-0.982L355.394,118.688 M356.402,117.375l-0.358,0.199l0.636-0.504L356.402,117.375
	 M356.667,115.704l-0.902,0.398l1.498-1.088L356.667,115.704 M360.474,106.672l0.743-1.154l0.397-0.504l0.332-0.292l0.53-0.464
	l0.385-0.398l0.372-0.398l0.345-0.756l0.199-0.199l0.212,0.185l0.146-0.093l-0.291,1.021c-0.61,1.194-1.897,2.454-3.157,3.223
	l-0.769,0.424L360.474,106.672z M359.293,115.956l-0.133-0.265l2.069-1.751l0.172,0.066l0.106,0.053L359.293,115.956z
	 M364.572,111.407l-2.428,2.095l0.544-0.716l1.022-0.822l0.663-0.743l0.212,0.133L364.572,111.407z M365.846,110.319l-0.04-0.04
	l-0.159-0.08l-0.199,0.159l-0.027-0.292l0.226-0.477l0.372,0.424v0.146L365.846,110.319z M374.639,102.998l-0.146,0.212
	l-0.159,0.199l-0.358,0.252l0.504-0.716l0.185-0.027L374.639,102.998 M377.053,98.382l-0.185,0.186l-0.04,0.013l-0.014-0.132
	l-0.027,0.04l-0.185,0.623l0.185-0.04l-0.146,0.477l-0.305,0.677l-0.092,0.57l-0.027,0.079l-0.663,0.676l-0.292,0.332l-0.079,0.252
	l-0.226,0.172l-0.331,0.172l-0.146,0.212l-0.279,0.266l-0.716,0.822l-0.743,0.65l-0.796,0.782l-0.159,0.225l-0.213,0.106
	l0.571-0.955l1.579-2.109l1.154-1.379l0.478-0.637l0.491-0.716l0.358-0.57l0.213-0.372l0.584-0.69v0.093l0.278-0.04h0.013
	L377.053,98.382 M377.848,97.865h-0.013l0.172-0.319l1.233-1.127h0.014L377.848,97.865 M383.857,88.249l0.106-0.199l0.013,0.119
	l-0.092,0.319L383.857,88.249 M382.013,92.467l0.385-0.557l0.252-0.199L382.013,92.467 M383.485,90.04l-0.742,1.26l0.092-0.319
	l0.425-0.663L383.485,90.04 M385.461,87.957L385.13,88.7l-1.525,1.963l0.198-0.319l0.637-1.061l0.61-1.313l0.835-1.18
	C386.019,86.711,386.019,86.711,385.461,87.957 M388.817,80.769l-0.491,1.353l-0.755,1.353l-0.279,0.132l0.359-0.902l0.278-0.862
	l0.133-0.438l0.478-0.61l0.291-0.385L388.817,80.769z M390.833,76.538l-0.212,0.186l0.291-0.584L390.833,76.538 M393.777,74.283
	l-0.225,0.438l-0.146,0.292l-0.292,0.583l-0.358,0.849l-0.372,0.729l-0.292,0.451l-0.344,0.358l0.371-0.73
	c0.425-0.623,0.862-1.485,1.313-2.732l0.491-0.65L393.777,74.283 M392.292,74.853l0.372-0.729l0.517-1.008L392.292,74.853
	 M393.937,73.501l0.093-0.398l0.146-0.159L393.937,73.501 M393.791,70.105l0.198-0.318l0.147-0.04l-0.305,0.968l-0.862,1.233
	l-0.451,1.008l-0.65,1.3l-0.504,0.769l0.69-1.817l1.207-3.064c0.597-1.419,1.247-2.839,1.234-2.6l-0.146,0.663L393.791,70.105
	 M394.547,71.962l0.013-0.372l0.172-0.544l0.04,0.345L394.547,71.962 M395.237,66.099l-0.438,0.995l-0.066-0.106l0.291-0.835
	L395.237,66.099"/>
<path fill="#D0121B" d="M351.148,111.328l1.034-1.18l0.053-0.053l0.491-0.57l0.12-0.133l1.167-1.472l2.229-2.719
	c1.34-1.485,1.963-2.308,2.016-2.905l0.093-0.344l-0.332,0.278l-1.114,1.247l-2.387,3.05l-0.079,0.093l-0.729,0.982l-1.539,2.069
	l-0.04,0.04l-0.557,0.729l-1.751,2.029L351.148,111.328"/>
<polygon fill="#D0121B" points="361.173,102.081 360.868,102.241 360.775,102.585 "/>
<polygon fill="#D0121B" points="359.606,103.868 359.91,103.709 359.831,103.563 "/>
<polygon fill="#D0121B" points="362.247,99.296 361.371,100.543 363.374,98.116 "/>
<polygon fill="#D0121B" points="364.839,97.521 364.613,97.827 364.905,97.787 "/>
<path fill="#1E1210" d="M556.184,120.435l-8.025,9.815h-43.066V36.36c2.958-0.929,4.231-2.944,4.616-4.655
	c-1.804,0-17.614-0.013-17.614-0.013v98.559h-62.828c0,0,0.226,3.912,3.568,3.912h140.749L556.184,120.435z"/>
<path fill="#1E1210" d="M446.063,23.913H559.86l-17.361-13.661l-7.892,9.749h-92.033C442.574,20.001,442.866,23.913,446.063,23.913"
	/>
<path fill="#1E1210" d="M470.866,112.105c1.578,1.844,3.965,2.812,6.883,2.812c3.647,0,7.905-2.401,7.905-9.152
	c0-9.337-5.438-16.632-20.333-21.698l-1.949-0.65l1.737,1.393c4.656,4.218,4.854,11.022,3.767,17.361
	C468.16,106.283,468.877,109.811,470.866,112.105"/>
<path fill="#1E1210" d="M460.142,85.839l0.172-0.291l1.115-2.202l0.066-0.133l0.239-0.438l1.671-3.608
	c3.727-8.687,8.196-22.295,10.172-30.969l0.637-2.825l0.013-0.093h0.014c3.13-0.146,4.868-1.777,5.663-3.382
	c-1.525-0.385-21.314-5.544-21.314-5.544c-0.862,12.839-2.109,25.943-6.99,43.543c-6.777,24.06-12.64,32.482-19.033,41.341
	l-0.053,0.08l0.146-0.053C439.278,115.071,450.353,104.726,460.142,85.839"/>
<path fill="#1E1210" d="M546.171,46.463l0.146-0.57c3.077-0.212,4.788-1.857,5.57-3.435c-1.698-0.411-20.439-5.053-20.439-5.053
	c-2.321,17.653-7.507,58.385-22.083,79.181l-0.133,0.305l0.079,0.026l0.266-0.106c4.616-5.053,13.555-15.783,21.513-31.01
	l1.286-2.507l0.677-1.3l0.279-0.557l0.291-0.57l1.592-3.422l0.146-0.332C537.935,71.252,542.736,60.363,546.171,46.463"/>
<path fill="#1E1210" d="M541.846,112.105c1.591,1.844,3.979,2.812,6.896,2.812c3.648,0,7.905-2.401,7.905-9.152
	c0-9.35-5.451-16.645-20.359-21.712l-1.91-0.623l1.685,1.34c4.682,4.204,4.894,11.035,3.793,17.401
	C539.154,106.283,539.869,109.811,541.846,112.105"/>
<path fill="#1E1210" d="M301.585,117.184c-14.443-0.584-40.85-6.963-52.098-12.401c4.788-9.457,7.282-21.38,7.282-30.572h22.11
	l0.013,0.172c0.04,1.724,0.81,3.289,2.189,4.417c0.782,0.663,2.454,1.446,4.257,1.446c3.303,0,6.393-2.639,6.472-5.955l-0.026-0.133
	l0.013-25.717l4.589-4.868l-12.706-9.297l-6.552,7.639h-20.359V23.851h43.424L283.64,11.105l-6.539,8.834h-20.332V5.323
	c2.931-1.154,4.098-2.878,4.483-4.616c-1.579,0-17.654-0.04-17.654-0.04v19.271h-30.505c0,0,0.663,3.912,3.953,3.912h26.552v18.064
	h-18.171l-11.698-4.748v37.774c0.092,3.157,3.024,5.597,6.207,5.597l1.101-0.106l0.822-0.225l0.411-0.133
	c2.109-0.888,3.846-2.918,3.887-5.159v-0.703h17.375c-0.239,7.083-1.181,15.955-3.847,24.669c-3.316-2.242-4.735-3.408-5.132-3.74
	c-3.475-2.52-6.592-5.265-8.821-7.44c0,0,4.165,7.812,8.409,12.892c0.026,0.053,0.981,1.273,3.528,4.032
	c-0.199,0.57-0.637,1.698-1.459,3.475c-0.889,1.923-1.579,3.196-1.91,3.727l-0.185,0.318c-4.377,7.374-13.913,16.513-22.07,22.295
	l-3.86,2.533c13.674-4.125,28.052-15.889,31.514-19.285l0.238-0.212c0.172-0.133,1.128-0.955,3.409-3.568l1.817-2.175
	c15.412,13.171,40.466,24.272,56.223,28.171l0.862,0.239v-22.905L301.585,117.184z M278.892,70.153h-22.123V45.974h22.123V70.153z
	 M226.158,70.153V45.974h17.44v24.152v0.026H226.158z"/>
<path fill="#1E1210" d="M206.276,18.901l2.228-3.926c0.756-1.326,1.22-2.162,1.87-3.355c3.091,0.318,5.04-1.021,6.088-2.467
	l-19.099-8.104l-0.198,0.729c-3.024,13.489-19.285,53.995-38.171,76.688c0,0,5.955-4.589,11.685-10.2
	c4.045-3.939,8.489-8.913,11.221-12.123l3.449-4.549v76.979c0.132,2.507,2.348,5.637,6.459,5.637c3.939,0,6.048-2.666,6.048-5.929
	l0.013-0.716V42.642c2.069-0.464,3.382-1.698,4.085-2.931c-1.644-0.491-7.573-2.294-7.573-2.294l1.631-2.401
	C199.856,29.366,204.79,21.342,206.276,18.901"/>
<path fill="#1E1210" d="M348.774,196.257l-1.433-0.013l-2.003,0.026l0.438-0.517l0.252-1.114v-6.499l-0.796-1.538l1.313-0.053
	l2.162-0.212v8.303l0.265,1.114l0.438,0.53L348.774,196.257z M358.271,196.27l-2.056-0.026l-1.99,0.026l0.425-0.517l0.252-1.114
	v-5.279L354,187.609l-2.109-0.623l-1.247,0.199l1.008-0.53l2.281-0.438l2.705,0.862l0.929,2.228v5.332l0.266,1.114L358.271,196.27"
	/>
<path fill="#1E1210" d="M392.823,196.697l-2.586-0.358l-2.201-1.035l-1.499-1.658l-0.557-2.175l0.557-2.189l1.499-1.658l2.201-1.048
	l2.586-0.358l2.613,0.358l2.188,1.048l1.512,1.658l0.557,2.189l-0.557,2.175l-1.512,1.658l-2.188,1.035L392.823,196.697
	 M392.518,186.245l-2.507,1.273c-0.571,0.796-0.862,1.91-0.862,3.409l0.305,2.467l0.862,1.817l1.313,1.101l1.525,0.358l2.493-1.273
	c0.571-0.782,0.862-1.923,0.862-3.395l-0.305-2.467l-0.862-1.817l-1.299-1.101L392.518,186.245"/>
<path fill="#1E1210" d="M498.304,196.257l-1.446-0.013l-1.963,0.026l0.398-0.517l0.278-1.114v-4.788l-0.849-2.149l-2.122-0.65
	l-1.287,0.199l0.04-0.013l1.008-0.557l1.101-0.345l1.313-0.119l1.684,0.305l1.022,0.743l0.57,1.048l0.186,1.22v5.106l0.252,1.114
	l0.451,0.53L498.304,196.257z M481.857,196.27l-2.029-0.026l-1.99,0.026l0.425-0.517l0.252-1.114v-6.499l-0.796-1.538l1.313-0.053
	l2.161-0.212v8.303l0.253,1.114L481.857,196.27 M490.386,196.27l-2.043-0.026l-1.989,0.026l0.437-0.517l0.253-1.114v-5.053
	l-0.703-1.724l-2.029-0.809l-1.605,0.358l1.3-0.716l2.161-0.478l2.083,0.332l1.233,1.247l0.226,0.477v6.366l0.266,1.114
	L490.386,196.27"/>
<path fill="#1E1210" d="M525.601,196.252l-1.419-0.013l-1.976,0.027l0.663-1.632v-6.499l-0.783-1.512l-0.04-0.04l1.353-0.106
	l2.202-0.292l-0.027,0.703l-0.04,1.366v6.379l0.69,1.645L525.601,196.252z M524.023,181.596l-1.327-0.544l-0.517-1.3l0.517-1.273
	l1.327-0.544l1.326,0.544l0.504,1.273l-0.504,1.3L524.023,181.596"/>
<path fill="#1E1210" d="M559.235,196.299l0.385-0.835l-0.199-0.703l-0.345-0.57l-0.451-0.531l-0.424-0.464l-1.857-2.135l1.247-0.849
	l0.558-0.464l0.291,0.318l1.579,1.95l1.883,2.122l2.123,1.791l0.61,0.358h-0.385l-2.228-0.04l-2.281,0.04L559.235,196.299z
	 M554.208,196.26l-1.433-0.013l-1.963,0.027l0.65-1.632v-15.478l-0.742-1.512l-0.066-0.04l1.339-0.106l2.149-0.305v17.441
	l0.676,1.645L554.208,196.26z M558.904,189.018l0.583-1.379l-0.397-1.008l0.478,0.013l1.883,0.027l1.353-0.013l-1.141,0.544
	l-1.617,0.995L558.904,189.018"/>
<path fill="#1E1210" d="M593.494,196.697l-2.6-0.358l-2.188-1.035l-1.512-1.658l-0.557-2.175l0.557-2.189l1.512-1.658l2.188-1.048
	l2.6-0.358l2.599,0.358l2.188,1.048l1.512,1.658l0.557,2.189l-0.557,2.175l-1.512,1.658l-2.188,1.035L593.494,196.697
	 M593.175,186.245l-2.494,1.273c-0.584,0.796-0.875,1.91-0.875,3.409l0.318,2.467l0.849,1.817l1.313,1.101l1.525,0.358l2.507-1.273
	c0.57-0.782,0.861-1.923,0.861-3.395l-0.318-2.467l-0.848-1.817l-1.313-1.101L593.175,186.245"/>
<polygon fill="#1E1210" points="162.225,196.698 159.983,196.088 159.253,194.324 159.253,186.592 158.351,186.592 158.524,186.513 
	160.076,185.478 161.256,184.099 161.734,183.276 161.734,193.131 162.29,195.226 164.174,195.876 165.049,195.73 164.652,195.943 
	163.378,196.5 "/>
<path fill="#1E1210" d="M195.856,196.697l-2.586-0.358l-2.188-1.035l-1.512-1.658l-0.557-2.175l0.557-2.189l1.512-1.658l2.188-1.048
	l2.586-0.358l2.613,0.358l2.188,1.048l1.512,1.658l0.557,2.189l-0.557,2.175l-1.512,1.658l-2.188,1.035L195.856,196.697
	 M195.551,186.245l-2.507,1.273c-0.571,0.796-0.862,1.91-0.862,3.409l0.318,2.467l0.849,1.817l1.313,1.101l1.525,0.358l2.493-1.273
	c0.571-0.782,0.875-1.923,0.875-3.395l-0.318-2.467l-0.848-1.817l-1.313-1.101L195.551,186.245"/>
<path fill="#1E1210" d="M226.916,202.406l0.756-0.809l1.34-2.056l0.663-2.082l0.185-1.989v-6.764l-0.703-1.976l-0.172-0.133
	l1.405-0.119l2.149-0.292v9.682l-0.438,1.989l-1.353,1.777l-2.295,1.817L226.916,202.406z M231.015,181.596l-1.327-0.544l-0.517-1.3
	l0.517-1.273l1.327-0.544l1.326,0.544l0.504,1.273l-0.504,1.3L231.015,181.596"/>
<path fill="#1E1210" d="M266.295,196.252l-1.433-0.013l-1.976,0.027l0.676-1.632v-6.499l-0.796-1.512l-0.04-0.04l1.366-0.106
	l2.202-0.292l-0.027,0.703l-0.04,1.366v6.379l0.69,1.645L266.295,196.252z M264.703,181.596l-1.327-0.544l-0.504-1.3l0.504-1.273
	l1.327-0.544l1.326,0.544l0.517,1.273l-0.517,1.3L264.703,181.596"/>
<rect x="158.349" y="186.585" fill="#1E1210" width="6.446" height="0.756"/>
<rect x="161.4" y="186.307" fill="#1E1210" width="3.395" height="0.902"/>
<g>
	<defs>
		<path id="SVGID_1_" d="M121.133,84.976l-0.345,2.799l-0.331,2.268c-0.411,2.838-0.835,5.478-1.26,7.958
			c-2.308,12.229-5.344,18.277-13.382,20.014c-2.706,0.57-9.139,0.133-25.413-1.764l-2.003-0.252c0,0.013,16.645,6.393,20.491,8.886
			c1.592,1.22,2.812,2.547,3.727,4.059c1.167,1.95,1.817,4.271,2.096,7.308l0.053,0.65l0.664-0.053
			c1.273-0.119,2.626-0.331,3.965-0.663c4.337-1.048,8.277-3.197,11.486-6.207l0.252-0.265l0.372-0.372l0.438-0.477
			c1.552-1.671,2.891-3.555,3.925-5.571c1.088-1.976,2.029-4.098,2.786-6.34c3.462-9.815,5.597-20.478,7.016-34.551
			C130.709,83.251,125.868,84.1,121.133,84.976"/>
	</defs>
	<clipPath id="SVGID_00000049182440460193684100000015465408571086625709_">
		<use xlink:href="#SVGID_1_"  overflow="visible"/>
	</clipPath>
	
		<linearGradient id="SVGID_00000039844682263900701890000001160226824103983749_" gradientUnits="userSpaceOnUse" x1="-278.1244" y1="467.2191" x2="-264.8611" y2="467.2191" gradientTransform="matrix(0 -9.9354 -9.9354 0 4749.0361 -2567.8943)">
		<stop  offset="0" style="stop-color:#1E1210"/>
		<stop  offset="0.5" style="stop-color:#1E1210"/>
		<stop  offset="0.5574" style="stop-color:#251B19"/>
		<stop  offset="0.6509" style="stop-color:#393231"/>
		<stop  offset="0.769" style="stop-color:#5A5859"/>
		<stop  offset="0.9" style="stop-color:#848A8D"/>
		<stop  offset="1" style="stop-color:#848A8D"/>
	</linearGradient>
	
		<rect x="78.399" y="82.402" clip-path="url(#SVGID_00000049182440460193684100000015465408571086625709_)" fill="url(#SVGID_00000039844682263900701890000001160226824103983749_)" width="57.27" height="54.499"/>
</g>
<g>
	<defs>
		<path id="SVGID_00000000934636012893136860000016573968729962098356_" d="M451.599,79.896
			c-6.777,24.059-12.64,32.482-19.033,41.341l-0.053,0.08l0.147-0.066c6.605-6.181,17.693-16.526,27.481-35.413l0.159-0.292
			l1.128-2.215l0.304-0.557l1.672-3.608c1.538-3.594,3.21-8.038,4.775-12.6c-4.35-0.278-8.753-0.53-13.21-0.769
			C454.092,70.187,453.005,74.856,451.599,79.896"/>
	</defs>
	<clipPath id="SVGID_00000091716850563089060060000015809518427588927413_">
		<use xlink:href="#SVGID_00000000934636012893136860000016573968729962098356_"  overflow="visible"/>
	</clipPath>
	
		<linearGradient id="SVGID_00000017513372478499856780000012892897690647170234_" gradientUnits="userSpaceOnUse" x1="-278.1242" y1="435.2701" x2="-264.8611" y2="435.2701" gradientTransform="matrix(0 -9.9354 -9.9354 0 4774.9341 -2567.9026)">
		<stop  offset="0" style="stop-color:#1E1210"/>
		<stop  offset="0.5" style="stop-color:#1E1210"/>
		<stop  offset="0.5574" style="stop-color:#251B19"/>
		<stop  offset="0.6509" style="stop-color:#393231"/>
		<stop  offset="0.769" style="stop-color:#5A5859"/>
		<stop  offset="0.9" style="stop-color:#848A8D"/>
		<stop  offset="1" style="stop-color:#848A8D"/>
	</linearGradient>
	
		<rect x="432.512" y="65.797" clip-path="url(#SVGID_00000091716850563089060060000015809518427588927413_)" fill="url(#SVGID_00000017513372478499856780000012892897690647170234_)" width="35.665" height="55.52"/>
</g>
<g>
	<defs>
		<path id="SVGID_00000131366120292285976950000002259357761007850165_" d="M463.39,83.411l1.724,1.406
			c4.656,4.218,4.842,11.022,3.754,17.348c-0.729,4.112,0,7.639,1.99,9.934c1.578,1.844,3.965,2.825,6.883,2.825
			c3.648,0,7.918-2.401,7.918-9.152c0-9.337-5.451-16.645-20.332-21.712l-1.923-0.65H463.39z"/>
	</defs>
	<clipPath id="SVGID_00000050640320481355215360000003633973057607344781_">
		<use xlink:href="#SVGID_00000131366120292285976950000002259357761007850165_"  overflow="visible"/>
	</clipPath>
	
		<linearGradient id="SVGID_00000119795928619356278330000001390110723543573409_" gradientUnits="userSpaceOnUse" x1="-278.1243" y1="433.0198" x2="-264.8611" y2="433.0198" gradientTransform="matrix(0 -9.9354 -9.9354 0 4776.7505 -2567.8992)">
		<stop  offset="0" style="stop-color:#1E1210"/>
		<stop  offset="0.5" style="stop-color:#1E1210"/>
		<stop  offset="0.5574" style="stop-color:#251B19"/>
		<stop  offset="0.6509" style="stop-color:#393231"/>
		<stop  offset="0.769" style="stop-color:#5A5859"/>
		<stop  offset="0.9" style="stop-color:#848A8D"/>
		<stop  offset="1" style="stop-color:#848A8D"/>
	</linearGradient>
	
		<rect x="463.389" y="83.411" clip-path="url(#SVGID_00000050640320481355215360000003633973057607344781_)" fill="url(#SVGID_00000119795928619356278330000001390110723543573409_)" width="22.269" height="31.513"/>
</g>
<g>
	<defs>
		<path id="SVGID_00000062876849100220156510000007096237168246563512_" d="M645.759,95.228l-4.297,8.024
			c-12.534,21.075-29.869,29.51-44.856,35.426l-5.557,1.698c26.792-3.965,48.517-15.518,61.157-31.076c0,0,1.764-1.817,4.218-5.412
			l1.035-1.538c2.626,1.751,5.106,3.475,7.401,5.093c22.495,16.022,41.381,41.01,41.381,41.01v-32.946
			c0,0-11.685-10.743-37.627-20.014c-1.99-0.703-4.032-1.353-6.061-1.963l0.212-0.398c-4.709-1.048-9.55-2.082-14.563-3.13v0.013
			c-11.499-2.295-20.597-2.997-20.597-2.997C633.941,89.153,640.056,92.058,645.759,95.228"/>
	</defs>
	<clipPath id="SVGID_00000057137126335715726170000002484272205087705004_">
		<use xlink:href="#SVGID_00000062876849100220156510000007096237168246563512_"  overflow="visible"/>
	</clipPath>
	
		<linearGradient id="SVGID_00000145034992032418723390000017291375207533969064_" gradientUnits="userSpaceOnUse" x1="-278.1243" y1="416.8161" x2="-264.8611" y2="416.8161" gradientTransform="matrix(0 -9.9354 -9.9354 0 4789.8794 -2567.8989)">
		<stop  offset="0" style="stop-color:#1E1210"/>
		<stop  offset="0.5" style="stop-color:#1E1210"/>
		<stop  offset="0.5574" style="stop-color:#251B19"/>
		<stop  offset="0.6509" style="stop-color:#393231"/>
		<stop  offset="0.769" style="stop-color:#5A5859"/>
		<stop  offset="0.9" style="stop-color:#848A8D"/>
		<stop  offset="1" style="stop-color:#848A8D"/>
	</linearGradient>
	
		<rect x="591.047" y="87.018" clip-path="url(#SVGID_00000057137126335715726170000002484272205087705004_)" fill="url(#SVGID_00000145034992032418723390000017291375207533969064_)" width="115.192" height="61.435"/>
</g>
<g>
	<defs>
		<path id="SVGID_00000159465437544632204870000011055789452321583262_" d="M185.354,75.041v53.517
			c0.119,2.52,2.334,5.663,6.445,5.663c3.939,0,6.062-2.679,6.062-5.916l0.013-0.716V73.503
			C193.643,74.007,189.452,74.524,185.354,75.041"/>
	</defs>
	<clipPath id="SVGID_00000089545709340832992500000000090928276912333964_">
		<use xlink:href="#SVGID_00000159465437544632204870000011055789452321583262_"  overflow="visible"/>
	</clipPath>
	
		<linearGradient id="SVGID_00000029736304253747480500000004960873703739890355_" gradientUnits="userSpaceOnUse" x1="-278.1243" y1="459.348" x2="-264.8611" y2="459.348" gradientTransform="matrix(0 -9.9354 -9.9354 0 4755.4033 -2567.8894)">
		<stop  offset="0" style="stop-color:#1E1210"/>
		<stop  offset="0.5" style="stop-color:#1E1210"/>
		<stop  offset="0.5574" style="stop-color:#251B19"/>
		<stop  offset="0.6509" style="stop-color:#393231"/>
		<stop  offset="0.769" style="stop-color:#5A5859"/>
		<stop  offset="0.9" style="stop-color:#848A8D"/>
		<stop  offset="1" style="stop-color:#848A8D"/>
	</linearGradient>
	
		<rect x="185.353" y="73.503" clip-path="url(#SVGID_00000089545709340832992500000000090928276912333964_)" fill="url(#SVGID_00000029736304253747480500000004960873703739890355_)" width="12.521" height="60.719"/>
</g>
<g>
	<defs>
		<path id="SVGID_00000011724367744210257700000011435758711913783995_" d="M278.886,66.155v4.006h-22.123v-2.294
			c-4.443,0.252-8.82,0.424-13.157,0.623v1.645v0.026h-17.427c-5.306,0.491-7.321,0.69-12.454,1.234v3.541
			c0.106,3.157,3.037,5.61,6.22,5.61l1.101-0.119l0.822-0.225l0.372-0.119c2.148-0.902,3.886-2.918,3.939-5.159v-0.716h17.348
			c-0.252,7.083-1.18,15.956-3.846,24.683c-3.316-2.242-4.722-3.422-5.133-3.753c-3.475-2.52-6.579-5.266-8.82-7.428
			c0,0,4.164,7.799,8.409,12.892c0.04,0.04,0.995,1.26,3.528,4.019c-0.185,0.557-0.623,1.671-1.459,3.488
			c-0.875,1.936-1.579,3.183-1.897,3.714l-0.199,0.331c-4.376,7.361-13.899,16.513-22.07,22.282l-3.859,2.547
			c13.687-4.138,28.052-15.903,31.513-19.298l0.239-0.199c0.172-0.146,1.141-0.968,3.422-3.581l1.804-2.175
			c15.412,13.171,40.479,24.272,56.223,28.171l0.875,0.252v-22.919l-0.663-0.04c-14.483-0.584-40.891-6.99-52.137-12.428
			c4.801-9.456,7.308-21.354,7.308-30.558h22.11l0.014,0.185c0.04,1.724,0.809,3.289,2.188,4.417
			c0.796,0.663,2.467,1.432,4.257,1.432c3.303,0,6.38-2.626,6.486-5.955l-0.027-0.132v-8.727
			C287.427,65.625,283.143,65.89,278.886,66.155"/>
	</defs>
	<clipPath id="SVGID_00000165234020080465536720000009469418773455546803_">
		<use xlink:href="#SVGID_00000011724367744210257700000011435758711913783995_"  overflow="visible"/>
	</clipPath>
	
		<linearGradient id="SVGID_00000054952291454796648570000017270252010430219905_" gradientUnits="userSpaceOnUse" x1="-278.0906" y1="453.4034" x2="-264.8274" y2="453.4034" gradientTransform="matrix(0 -9.9611 -9.9611 0 4771.6147 -2574.5679)">
		<stop  offset="0" style="stop-color:#1E1210"/>
		<stop  offset="0.5" style="stop-color:#1E1210"/>
		<stop  offset="0.5574" style="stop-color:#251B19"/>
		<stop  offset="0.6509" style="stop-color:#393231"/>
		<stop  offset="0.769" style="stop-color:#5A5859"/>
		<stop  offset="0.9" style="stop-color:#848A8D"/>
		<stop  offset="1" style="stop-color:#848A8D"/>
	</linearGradient>
	
		<rect x="208.179" y="65.426" clip-path="url(#SVGID_00000165234020080465536720000009469418773455546803_)" fill="url(#SVGID_00000054952291454796648570000017270252010430219905_)" width="94.076" height="74.725"/>
</g>
<g>
	<defs>
		<path id="SVGID_00000026844660125291588230000016788170965263559095_" d="M0,148.467c0,0,5.505-1.791,13.462-5.544
			C5.505,146.676,0,148.467,0,148.467"/>
	</defs>
	<clipPath id="SVGID_00000124124021164824233290000004008852958992976542_">
		<use xlink:href="#SVGID_00000026844660125291588230000016788170965263559095_"  overflow="visible"/>
	</clipPath>
	
		<linearGradient id="SVGID_00000170966690071891432820000016402736360769823128_" gradientUnits="userSpaceOnUse" x1="-277.5587" y1="474.478" x2="-264.2955" y2="474.478" gradientTransform="matrix(0 -10.6017 -10.6017 0 5037.0049 -2740.5747)">
		<stop  offset="0" style="stop-color:#231815"/>
		<stop  offset="0.5" style="stop-color:#231815"/>
		<stop  offset="0.5591" style="stop-color:#2A211E"/>
		<stop  offset="0.6555" style="stop-color:#3E3836"/>
		<stop  offset="0.7772" style="stop-color:#5E5D5E"/>
		<stop  offset="0.9" style="stop-color:#848A8D"/>
		<stop  offset="1" style="stop-color:#848A8D"/>
	</linearGradient>
	
		<rect y="142.923" clip-path="url(#SVGID_00000124124021164824233290000004008852958992976542_)" fill="url(#SVGID_00000170966690071891432820000016402736360769823128_)" width="13.462" height="5.544"/>
</g>
<path fill="#1E1210" d="M13.688,142.803l-0.226,0.119L13.688,142.803z"/>
<path fill="#1E1210" d="M0.01,148.489"/>
<g>
	<defs>
		<path id="SVGID_00000161601114546633040660000007715967813426650766_" d="M46.687,101.356C35.97,121.834,20.067,136.861,0,148.467
			c0,0,5.505-1.791,13.462-5.544l0.226-0.119c15.372-7.282,39.749-21.712,51.912-44.22l1.154-2.242
			C59.645,98.04,52.961,99.711,46.687,101.356"/>
	</defs>
	<clipPath id="SVGID_00000052816605734680904570000000928564395428011451_">
		<use xlink:href="#SVGID_00000161601114546633040660000007715967813426650766_"  overflow="visible"/>
	</clipPath>
	
		<linearGradient id="SVGID_00000044890382517798114270000016232302558612892847_" gradientUnits="userSpaceOnUse" x1="-294.9076" y1="520.7128" x2="-281.65" y2="520.7128" gradientTransform="matrix(0 -3.9317 -3.9317 0 2080.6492 -1011.0134)">
		<stop  offset="0" style="stop-color:#1E1210"/>
		<stop  offset="0.5" style="stop-color:#1E1210"/>
		<stop  offset="0.5827" style="stop-color:#251B19"/>
		<stop  offset="0.7175" style="stop-color:#393231"/>
		<stop  offset="0.8866" style="stop-color:#595859"/>
		<stop  offset="1" style="stop-color:#727577"/>
	</linearGradient>
	
		<rect y="96.342" clip-path="url(#SVGID_00000052816605734680904570000000928564395428011451_)" fill="url(#SVGID_00000044890382517798114270000016232302558612892847_)" width="66.754" height="52.125"/>
</g>
<g>
	<defs>
		<path id="SVGID_00000016036488591456341370000012711090149058866830_" d="M599.988,87.748c-0.703,2.44-0.066,5.053,1.791,6.777
			l0.822,0.69l0.69,0.425l0.397,0.212l0.385,0.172l0.265,0.093l0.478,0.119l0.385,0.133l0.212,0.053l0.266,0.027
			c3.197,0.411,6.3-1.393,7.507-4.536l2.773-8.091c-4.523-0.809-9.139-1.592-13.847-2.361L599.988,87.748z"/>
	</defs>
	<clipPath id="SVGID_00000082364397186983592030000018191624740612421797_">
		<use xlink:href="#SVGID_00000016036488591456341370000012711090149058866830_"  overflow="visible"/>
	</clipPath>
	
		<linearGradient id="SVGID_00000149382881982000287820000009509074406131696831_" gradientUnits="userSpaceOnUse" x1="-278.1243" y1="420.6354" x2="-264.8611" y2="420.6354" gradientTransform="matrix(0 -9.9354 -9.9354 0 4786.8003 -2567.8979)">
		<stop  offset="0" style="stop-color:#1E1210"/>
		<stop  offset="0.5" style="stop-color:#1E1210"/>
		<stop  offset="0.5574" style="stop-color:#251B19"/>
		<stop  offset="0.6509" style="stop-color:#393231"/>
		<stop  offset="0.769" style="stop-color:#5A5859"/>
		<stop  offset="0.9" style="stop-color:#848A8D"/>
		<stop  offset="1" style="stop-color:#848A8D"/>
	</linearGradient>
	
		<rect x="599.284" y="81.461" clip-path="url(#SVGID_00000082364397186983592030000018191624740612421797_)" fill="url(#SVGID_00000149382881982000287820000009509074406131696831_)" width="16.672" height="15.398"/>
</g>
<g>
	<defs>
		<path id="SVGID_00000026144724457147072230000010292448068642141370_" d="M534.375,83.424l1.684,1.353
			c4.682,4.191,4.894,11.035,3.793,17.388c-0.703,4.112,0.014,7.639,1.99,9.934c1.604,1.844,3.979,2.825,6.883,2.825
			c3.661,0,7.918-2.401,7.918-9.152c0-9.35-5.438-16.658-20.346-21.725L534.375,83.424z"/>
	</defs>
	<clipPath id="SVGID_00000005947951674272645620000003063684388902005178_">
		<use xlink:href="#SVGID_00000026144724457147072230000010292448068642141370_"  overflow="visible"/>
	</clipPath>
	
		<linearGradient id="SVGID_00000026158197956482401760000001883836414568589498_" gradientUnits="userSpaceOnUse" x1="-278.1243" y1="426.414" x2="-264.8611" y2="426.414" gradientTransform="matrix(0 -9.9354 -9.9354 0 4782.104 -2567.8994)">
		<stop  offset="0" style="stop-color:#1E1210"/>
		<stop  offset="0.5" style="stop-color:#1E1210"/>
		<stop  offset="0.5574" style="stop-color:#251B19"/>
		<stop  offset="0.6509" style="stop-color:#393231"/>
		<stop  offset="0.769" style="stop-color:#5A5859"/>
		<stop  offset="0.9" style="stop-color:#848A8D"/>
		<stop  offset="1" style="stop-color:#848A8D"/>
	</linearGradient>
	
		<rect x="534.374" y="83.424" clip-path="url(#SVGID_00000005947951674272645620000003063684388902005178_)" fill="url(#SVGID_00000026158197956482401760000001883836414568589498_)" width="22.268" height="31.5"/>
</g>
<g>
	<defs>
		<path id="SVGID_00000165211581164764123610000008829757856239652285_" d="M509.374,116.595l-0.146,0.292l0.079,0.04l0.266-0.119
			c4.629-5.053,13.555-15.77,21.526-31.009l1.273-2.507l0.437-0.822l0.239-0.491l0.279-0.544l0.292-0.57l1.604-3.408l0.133-0.345
			c0.557-1.287,1.247-2.812,1.99-4.562c-3.754-0.411-7.533-0.822-11.367-1.207C522.557,87.681,517.398,105.149,509.374,116.595"/>
	</defs>
	<clipPath id="SVGID_00000098914636199885575270000004431124600226663075_">
		<use xlink:href="#SVGID_00000165211581164764123610000008829757856239652285_"  overflow="visible"/>
	</clipPath>
	
		<linearGradient id="SVGID_00000137811288761443327380000009683160389287354008_" gradientUnits="userSpaceOnUse" x1="-278.1243" y1="428.4819" x2="-264.8611" y2="428.4819" gradientTransform="matrix(0 -9.9354 -9.9354 0 4780.4229 -2567.8962)">
		<stop  offset="0" style="stop-color:#1E1210"/>
		<stop  offset="0.5" style="stop-color:#1E1210"/>
		<stop  offset="0.5574" style="stop-color:#251B19"/>
		<stop  offset="0.6509" style="stop-color:#393231"/>
		<stop  offset="0.769" style="stop-color:#5A5859"/>
		<stop  offset="0.9" style="stop-color:#848A8D"/>
		<stop  offset="1" style="stop-color:#848A8D"/>
	</linearGradient>
	
		<rect x="509.228" y="71.342" clip-path="url(#SVGID_00000098914636199885575270000004431124600226663075_)" fill="url(#SVGID_00000137811288761443327380000009683160389287354008_)" width="28.118" height="45.585"/>
</g>
<g>
	<defs>
		<path id="SVGID_00000153705280556204589990000015418712184546890942_" d="M492.091,130.256h-62.828c0,0,0.226,3.899,3.568,3.899
			h140.762l-17.414-13.727l-8.011,9.828h-43.066V69.338c-4.284-0.385-8.621-0.729-13.011-1.088V130.256z"/>
	</defs>
	<clipPath id="SVGID_00000153673498559809224790000015491138331066632330_">
		<use xlink:href="#SVGID_00000153705280556204589990000015418712184546890942_"  overflow="visible"/>
	</clipPath>
	
		<linearGradient id="SVGID_00000007414637700519197720000010075029343964985755_" gradientUnits="userSpaceOnUse" x1="-278.1243" y1="430.5161" x2="-264.8576" y2="430.5161" gradientTransform="matrix(0 -9.9354 -9.9354 0 4778.7832 -2567.9009)">
		<stop  offset="0" style="stop-color:#1E1210"/>
		<stop  offset="0.5" style="stop-color:#1E1210"/>
		<stop  offset="0.5574" style="stop-color:#251B19"/>
		<stop  offset="0.6509" style="stop-color:#393231"/>
		<stop  offset="0.769" style="stop-color:#5A5859"/>
		<stop  offset="0.9" style="stop-color:#848A8D"/>
		<stop  offset="1" style="stop-color:#848A8D"/>
	</linearGradient>
	
		<rect x="429.263" y="68.25" clip-path="url(#SVGID_00000153673498559809224790000015491138331066632330_)" fill="url(#SVGID_00000007414637700519197720000010075029343964985755_)" width="144.33" height="65.905"/>
</g>
</svg>
