<?xml version="1.0" encoding="utf-8"?>
<!-- Generator: Adobe Illustrator 27.0.1, SVG Export Plug-In . SVG Version: 6.00 Build 0)  -->
<svg version="1.1" id="레이어_1" xmlns="http://www.w3.org/2000/svg" xmlns:xlink="http://www.w3.org/1999/xlink" x="0px"
	 y="0px" viewBox="0 0 720 253.931" enable-background="new 0 0 720 253.931" xml:space="preserve">
<path fill="#009D88" d="M59.224,253.849l209.504-0.048c17.978,0,37.682-6.184,51.585-15.533
	c8.773,12.832,20.455,15.597,28.829,15.597l283.014,0.064c40.878-2.525,73.351-37.666,73.351-79.151
	c0-19.32-7.048-37.554-19.448-51.649L720,81.932h-38.625v-47.67h-49.22V9.908h-74.022v24.354h-22.213V0.144h-74.757v51.009
	c-13.504-10.611-30.507-16.955-48.98-16.955h-5.05V0.144L154.755,0v12.864c-14.942-8.102-32.025-12.72-50.195-12.72H0v81.404
	l104.576-0.016c13.296,0,24.131,10.835,24.131,24.131c0,13.312-10.835,24.115-24.131,24.115H59.24L59.224,253.849z"/>
<path fill="#009B6D" d="M59.209,179.752v4.027v1.23l3.612-3.596l48.261-48.277l9.205-9.205c-4.219,3.627-9.716,5.849-15.709,5.849
	H82.684l-23.459,23.459v26.512H59.209z"/>
<polygon fill="#009B6D" points="62.813,245.546 111.09,197.269 126.958,181.401 175.235,133.14 191.104,117.271 239.381,68.978 
	255.25,53.109 303.527,4.832 308.273,0.102 276.552,0.07 59.201,217.405 59.201,249.158 "/>
<polygon fill="#009B6D" points="495.971,4.84 500.654,0.142 468.916,0.142 461.166,7.877 461.166,39.646 "/>
<path fill="#009B6D" d="M46.935,68.981l15.885-15.868L111.08,4.835l4.107-4.107c-3.5-0.352-7.031-0.591-10.627-0.591H84.025
	L2.637,81.541H34.39L46.935,68.981z"/>
<path fill="#009B6D" d="M128.702,105.655c0,6.009-2.221,11.49-5.865,15.709l4.123-4.091l48.277-48.293l15.869-15.869l48.277-48.277
	l4.778-4.778L212.44,0.04l-89.746,89.746C126.417,94.021,128.702,99.566,128.702,105.655"/>
<path fill="#009B6D" d="M567.626,253.912l8.358-8.357l48.277-48.277l15.885-15.869l48.261-48.277l3.036-3.036
	c-1.678-2.397-3.436-4.746-5.385-6.968L720,81.93h-12.145L535.889,253.912H567.626z"/>
<polygon fill="#009B6D" points="46.935,4.84 51.617,0.142 19.88,0.142 0,20.022 0,51.775 "/>
<path fill="#009B6D" d="M111.082,68.981l15.885-15.868l48.261-48.277l4.826-4.81l-25.297-0.016v12.848
	c-4.251-2.301-8.709-4.283-13.28-6.008L66.784,81.525h31.753L111.082,68.981z"/>
<polygon fill="#009B6D" points="503.493,253.896 511.835,245.554 560.112,197.277 575.997,181.409 624.258,133.132 640.142,117.263 
	681.372,76.017 681.372,44.28 471.756,253.896 "/>
<path fill="#009B6D" d="M246.994,253.801l8.262-8.262l48.277-48.261l15.869-15.869l48.277-48.277l15.869-15.868l48.261-48.277
	l15.885-15.885l6.68-6.68c-6.76-4.251-14.175-7.559-22.101-9.636L215.241,253.817L246.994,253.801z"/>
<path fill="#009B6D" d="M702.048,151.895L600.012,253.931h31.753l8.374-8.39L688.4,197.28l15.885-15.869l0.991-1.007
	c0.128-1.854,0.224-3.723,0.224-5.625C705.499,166.885,704.269,159.215,702.048,151.895"/>
<polygon fill="#009B6D" points="118.682,253.833 126.96,245.54 175.237,197.279 191.106,181.41 239.383,133.133 255.251,117.264 
	303.528,68.987 319.413,53.103 367.674,4.842 372.388,0.128 340.651,0.112 86.929,253.833 "/>
<polygon fill="#009B6D" points="182.839,253.817 191.117,245.54 239.378,197.278 255.262,181.41 303.523,133.133 319.408,117.264 
	367.669,68.987 383.554,53.103 407.141,29.532 407.141,0.143 404.76,0.143 151.086,253.833 "/>
<polygon fill="#009B6D" points="407.619,253.88 439.356,253.896 447.698,245.554 495.974,197.277 511.843,181.409 560.104,133.131 
	575.989,117.263 624.266,68.986 640.134,53.117 658.991,34.26 632.16,34.26 632.16,29.338 "/>
<path fill="#009B6D" d="M290.675,250.977c10.755-2.381,20.775-6.744,29.628-12.704c0.911,1.31,1.838,2.477,2.781,3.596
	l44.585-44.586l15.885-15.884l48.261-48.261l15.885-15.868l48.277-48.293l15.869-15.869l24.083-24.082V0.148h-2.877L280.224,252.975
	C283.724,252.496,287.223,251.841,290.675,250.977"/>
<path fill="#009B6D" d="M349.135,253.865h26.096l8.31-8.326l48.277-48.261l15.869-15.869l48.277-48.277l15.885-15.868l48.261-48.277
	l15.885-15.884l43.179-43.195h-31.737l-243.574,243.59C345.715,253.754,347.489,253.865,349.135,253.865"/>
<path fill="#170604" d="M192.499,107.543c0-47.446-38.593-86.038-86.039-86.038H21.364v42.444h85.096
	c24.051,0,43.611,19.56,43.611,43.595c0,24.051-19.56,43.611-43.611,43.611H81.211v42.444h25.249
	C153.906,193.598,192.499,154.99,192.499,107.543"/>
<path fill="#170604" d="M273.595,99.678h-69.947v33.863h69.947c18.793,0,34.054,15.261,34.054,34.038
	c0,18.777-15.261,34.07-34.054,34.07h-28.062v33.847h28.062c37.458,0,67.917-30.459,67.917-67.917
	C341.512,130.137,311.053,99.678,273.595,99.678"/>
<rect x="217.796" y="55.789" fill="#170604" width="85.112" height="30.906"/>
<path fill="#170604" d="M660.895,127.22l19.704-23.923H631.57l-9.109,11.155c-0.224,0.239-0.447,0.479-0.703,0.783
	c-2.061,2.461-3.74,2.238-4.411,1.981c-1.486-0.863-2.525-2.349-2.765-4.123v-8.565c0.367-5.545,4.506-10.036,9.908-10.883h39.296
	V55.628h-39.232c-5.434-0.847-9.604-5.322-9.972-10.899V31.273H579.49v14.063c-0.623,5.289-4.698,9.476-9.924,10.292H530.27v38.017
	h39.36c5.194,0.815,9.237,5.002,9.86,10.259v3.66c-0.655,5.449-4.986,9.732-10.483,10.323h-4.075
	c-32.424,0-58.792,26.368-58.792,58.776c0,32.409,26.368,58.776,58.792,58.776h9.109l14.047-17.515l26.496,18.298v-51.298
	l22.149-27.598c7.703,3.036,13.184,10.547,13.184,19.336c0,11.458-9.316,20.775-20.759,20.775h-9.109v38.001h9.109
	c32.392,0,58.76-26.368,58.76-58.776C687.918,155.937,677.147,137.687,660.895,127.22 M557.054,195.872
	c-7.559-3.1-12.912-10.547-12.912-19.208c0-11.458,9.333-20.774,20.791-20.774h24.21L557.054,195.872z"/>
<rect x="482.529" y="21.511" fill="#170604" width="35.812" height="105.982"/>
<path fill="#170604" d="M435.281,191.55l-0.096,8.55h38.912v-84.521c0-33.095-26.927-60.022-60.023-60.022h-13.264
	c-6.168-0.416-11.059-5.402-11.25-11.618V21.502h-35.828v22.932c-0.447,5.993-5.209,10.723-11.202,11.123h-13.104v38.816h13.248
	c5.929,0.464,10.611,5.178,11.059,11.107v74.948h35.828v-74.437c0.192-6.169,5.002-11.139,11.107-11.618h13.407
	c11.682,0,21.206,9.524,21.206,21.206V191.55z"/>
<path fill="#170604" d="M105.93,214.33c0-7.686-5.897-13.216-13.312-13.216H80.569v34.518h7.607v-7.591h4.443h0.447l4.698,7.591
	h8.629c-4.283-6.951-5.385-8.885-6.136-10.099C103.724,223.055,105.93,218.948,105.93,214.33 M92.426,220.514h-4.251v-11.889h4.251
	c3.276,0,5.897,2.541,5.897,5.945C98.323,217.894,95.654,220.514,92.426,220.514"/>
<path fill="#170604" d="M121.658,206.947c-5.433,0-10.419,3.836-10.419,10.691v17.994h6.232v-6.217h8.454v6.217h6.232v-17.994
	C132.157,210.782,127.059,206.947,121.658,206.947 M125.925,223.183h-8.454v-5.209c0-3.1,1.614-4.794,4.187-4.794
	c2.413,0,4.235,1.694,4.267,4.794V223.183z"/>
<path fill="#170604" d="M150.94,229.784c-4.155,0-8.198-3.883-8.198-8.31c0-4.411,3.963-8.246,8.118-8.246
	c2.525,0,4.874,1.119,6.041,2.749l5.018-3.627c-2.301-3.276-6.408-5.402-11.059-5.402c-8.038,0-14.382,6.52-14.382,14.526
	c0,8.086,6.424,14.734,14.462,14.734c4.954,0,9.316-2.685,11.426-6.057l-4.906-3.835
	C156.294,227.946,154.104,229.784,150.94,229.784"/>
<rect x="165.988" y="207.332" fill="#170604" width="6.216" height="28.301"/>
<polygon fill="#170604" points="195.339,222.357 178.128,206.76 178.128,235.637 184.36,235.637 184.36,220.887 201.571,236.212 
	201.571,207.383 195.339,207.383 "/>
<path fill="#170604" d="M219.521,219.141v5.689h6.68v3.484c-1.358,0.991-2.781,1.47-5.577,1.47c-4.155,0-8.198-3.883-8.198-8.31
	c0-4.411,3.963-8.246,8.118-8.246c2.525,0,4.874,1.119,6.041,2.749l5.018-3.627c-2.301-3.276-6.424-5.401-11.059-5.401
	c-8.038,0-14.366,6.536-14.366,14.526c0,8.086,6.408,14.734,14.446,14.734c4.938,0,9.045-1.694,11.362-4.826l-0.048-12.241H219.521z
	"/>
<path fill="#170604" d="M351.118,213.976c-4.187-1.582-4.746-2.445-4.746-3.659c0-1.103,1.39-2.238,2.956-2.238
	c1.886,0,4.011,0.224,6.584,2.765l5.897-4.395c-4.746-5.465-8.789-5.705-12.481-5.705c-6.648,0-10.563,5.066-10.563,9.572
	c0,5.929,3.74,8.773,8.901,10.754c3.915,1.47,6.632,3.404,6.68,4.938c0.048,1.374-1.278,2.669-3.308,2.765
	c-3.148,0.144-6.185-2.221-7.751-4.507l-5.481,4.219c3.404,5.353,7.559,7.799,13.232,7.799c6.824,0,11.282-5.162,11.282-10.659
	C362.32,219.314,356.711,216.006,351.118,213.976"/>
<rect x="367.421" y="207.332" fill="#170604" width="6.232" height="28.301"/>
<path fill="#170604" d="M388.52,207.324h-8.949v28.317h8.949c8.677,0,14.798-5.625,14.798-14.158
	C403.318,212.645,396.942,207.324,388.52,207.324 M389.048,229.489h-3.292v-16.044h3.787c4.155,0,7.623,3.436,7.623,8.086
	C397.166,226.437,393.954,229.489,389.048,229.489"/>
<polygon fill="#170604" points="414.158,225.228 424.833,225.228 424.833,219.14 414.158,219.14 414.158,213.483 427.134,213.483 
	427.134,207.33 407.925,207.33 407.925,235.631 427.374,235.631 427.374,229.495 414.158,229.495 "/>
<path fill="#170604" d="M445.08,229.784c-4.155,0-8.198-3.883-8.198-8.31c0-4.411,3.963-8.246,8.134-8.246
	c2.509,0,4.858,1.119,6.041,2.749l5.002-3.627c-2.301-3.276-6.408-5.402-11.043-5.402c-8.054,0-14.382,6.52-14.382,14.526
	c0,8.086,6.408,14.734,14.446,14.734c4.954,0,9.316-2.685,11.442-6.057l-4.906-3.835C450.433,227.946,448.26,229.784,445.08,229.784
	"/>
<path fill="#170604" d="M470.356,206.947c-5.417,0-10.403,3.836-10.403,10.691v17.994h6.232v-6.217h8.438v6.217h6.248v-17.994
	C480.871,210.782,475.758,206.947,470.356,206.947 M474.623,223.183h-8.438v-5.209c0-3.1,1.614-4.794,4.171-4.794
	c2.429,0,4.235,1.694,4.267,4.794V223.183z"/>
<path fill="#170604" d="M507.373,218.212c0-6.313-4.826-10.835-10.899-10.835h-9.844v28.254h6.216v-6.217h3.628h0.367l3.851,6.217
	h7.048c-3.5-5.689-4.411-7.287-5.018-8.262C505.568,225.339,507.373,221.983,507.373,218.212 M496.315,223.261h-3.468v-9.732h3.468
	c2.685,0,4.826,2.078,4.826,4.858C501.141,221.104,498.968,223.261,496.315,223.261"/>
<path fill="#FFFFFF" d="M190.61,105.655c0-47.446-38.593-86.038-86.039-86.038H19.475V62.06h85.096
	c24.051,0,43.611,19.544,43.611,43.595c0,24.051-19.56,43.611-43.611,43.611H79.322v42.444h25.249
	C152.017,191.71,190.61,153.101,190.61,105.655"/>
<path fill="#FFFFFF" d="M271.706,97.791H201.76v33.863l69.947-0.016c18.793,0,34.054,15.277,34.054,34.055
	c0,18.777-15.261,34.07-34.054,34.07h-28.062v33.847h28.062c37.442,0,67.917-30.459,67.917-67.917
	C339.623,128.249,309.149,97.791,271.706,97.791"/>
<rect x="215.911" y="53.903" fill="#FFFFFF" width="85.112" height="30.906"/>
<path fill="#FFFFFF" d="M659.005,125.333l19.704-23.923h-49.028l-9.109,11.139c-0.224,0.256-0.447,0.495-0.703,0.799
	c-2.061,2.461-3.74,2.237-4.411,1.981c-1.486-0.863-2.525-2.349-2.765-4.123v-8.581c0.367-5.529,4.506-10.02,9.908-10.867h39.296
	V53.741h-39.232c-5.434-0.847-9.604-5.322-9.972-10.899V29.386h-35.093v14.063c-0.623,5.289-4.698,9.476-9.924,10.292h-39.296
	v38.017h39.36c5.194,0.815,9.237,5.002,9.86,10.259v3.643c-0.655,5.465-5.002,9.748-10.483,10.323h-4.091
	c-32.408,0-58.776,26.384-58.776,58.792c0,32.409,26.368,58.776,58.776,58.776h9.125l14.047-17.515l26.496,18.298v-51.298
	l22.149-27.598c7.703,3.036,13.184,10.547,13.184,19.336c0,11.442-9.316,20.775-20.759,20.775h-9.109v38.001h9.109
	c32.392,0,58.76-26.368,58.76-58.776C686.029,154.05,675.258,135.784,659.005,125.333 M555.165,193.985
	c-7.559-3.1-12.912-10.547-12.912-19.208c0-11.458,9.333-20.774,20.775-20.774h24.227L555.165,193.985z"/>
<rect x="480.627" y="19.625" fill="#FFFFFF" width="35.812" height="105.982"/>
<path fill="#FFFFFF" d="M433.392,189.662l-0.096,8.55h38.912v-84.521c0-33.095-26.927-60.022-60.023-60.022h-13.264
	c-6.168-0.416-11.059-5.402-11.25-11.634V19.614h-35.828v22.932c-0.447,5.993-5.209,10.723-11.202,11.123h-13.12v38.816h13.264
	c5.929,0.464,10.611,5.178,11.059,11.107v74.948h35.828v-74.437c0.192-6.169,5.002-11.139,11.107-11.618h13.407
	c11.682,0,21.206,9.524,21.206,21.206V189.662z"/>
<path fill="#FFFFFF" d="M104.041,212.442c0-7.686-5.897-13.216-13.312-13.216H78.68v34.518h7.607v-7.591h4.443h0.447l4.698,7.591
	h8.629c-4.283-6.951-5.385-8.885-6.136-10.099C101.835,221.168,104.041,217.061,104.041,212.442 M90.537,218.627h-4.251v-11.889
	h4.251c3.276,0,5.897,2.541,5.897,5.945C96.434,216.007,93.765,218.627,90.537,218.627"/>
<path fill="#FFFFFF" d="M119.769,205.059c-5.433,0-10.419,3.82-10.419,10.691v17.994h6.232v-6.217h8.454v6.217h6.232V215.75
	C130.268,208.879,125.17,205.059,119.769,205.059 M124.036,221.295h-8.454v-5.209c0-3.1,1.614-4.794,4.187-4.794
	c2.413,0,4.235,1.694,4.267,4.794V221.295z"/>
<path fill="#FFFFFF" d="M149.043,227.897c-4.139,0-8.182-3.883-8.182-8.31c0-4.411,3.963-8.246,8.118-8.246
	c2.525,0,4.858,1.119,6.041,2.749l5.002-3.627c-2.301-3.276-6.408-5.402-11.043-5.402c-8.054,0-14.382,6.52-14.382,14.526
	c0,8.086,6.408,14.718,14.446,14.718c4.954,0,9.316-2.669,11.426-6.04l-4.89-3.835C154.397,226.06,152.223,227.897,149.043,227.897"
	/>
<rect x="164.102" y="205.446" fill="#FFFFFF" width="6.232" height="28.301"/>
<polygon fill="#FFFFFF" points="193.45,220.468 176.239,204.871 176.239,233.748 182.471,233.748 182.471,218.998 199.682,234.307 
	199.682,205.494 193.45,205.494 "/>
<path fill="#FFFFFF" d="M217.632,217.253v5.689h6.68v3.484c-1.358,0.991-2.797,1.47-5.577,1.47c-4.155,0-8.198-3.883-8.198-8.31
	c0-4.411,3.963-8.246,8.118-8.246c2.525,0,4.874,1.119,6.041,2.749l5.018-3.627c-2.301-3.276-6.424-5.401-11.059-5.401
	c-8.038,0-14.382,6.536-14.382,14.526c0,8.086,6.424,14.718,14.462,14.718c4.938,0,9.045-1.678,11.362-4.81l-0.048-12.241H217.632z"
	/>
<path fill="#FFFFFF" d="M349.229,212.087c-4.187-1.582-4.746-2.445-4.746-3.659c0-1.103,1.39-2.238,2.956-2.238
	c1.886,0,4.011,0.224,6.584,2.765l5.897-4.395c-4.746-5.465-8.789-5.705-12.481-5.705c-6.648,0-10.563,5.066-10.563,9.572
	c0,5.929,3.74,8.757,8.901,10.754c3.915,1.47,6.632,3.404,6.68,4.938c0.048,1.374-1.278,2.669-3.324,2.765
	c-3.132,0.144-6.168-2.221-7.734-4.523l-5.481,4.235c3.404,5.353,7.559,7.799,13.216,7.799c6.824,0,11.298-5.162,11.298-10.659
	C360.431,217.425,354.822,214.117,349.229,212.087"/>
<rect x="365.536" y="205.446" fill="#FFFFFF" width="6.232" height="28.301"/>
<path fill="#FFFFFF" d="M386.631,205.435h-8.949v28.317h8.949c8.677,0,14.798-5.625,14.798-14.158
	C401.429,210.757,395.053,205.435,386.631,205.435 M387.159,227.6h-3.292v-16.044h3.787c4.155,0,7.623,3.436,7.623,8.086
	C395.277,224.548,392.065,227.6,387.159,227.6"/>
<polygon fill="#FFFFFF" points="412.269,223.339 422.944,223.339 422.944,217.251 412.269,217.251 412.269,211.594 425.245,211.594 
	425.245,205.441 406.036,205.441 406.036,233.743 425.485,233.743 425.485,227.607 412.269,227.607 "/>
<path fill="#FFFFFF" d="M443.193,227.897c-4.155,0-8.198-3.883-8.198-8.31c0-4.411,3.963-8.246,8.134-8.246
	c2.509,0,4.858,1.119,6.025,2.749l5.018-3.627c-2.301-3.276-6.408-5.402-11.043-5.402c-8.054,0-14.398,6.52-14.398,14.526
	c0,8.086,6.424,14.718,14.463,14.718c4.954,0,9.316-2.669,11.442-6.04l-4.922-3.835C448.546,226.06,446.373,227.897,443.193,227.897
	"/>
<path fill="#FFFFFF" d="M468.467,205.059c-5.433,0-10.403,3.82-10.403,10.691v17.994h6.217v-6.217h8.454v6.217h6.232V215.75
	C478.967,208.879,473.869,205.059,468.467,205.059 M472.734,221.295h-8.454v-5.209c0-3.1,1.63-4.794,4.187-4.794
	c2.429,0,4.235,1.694,4.267,4.794V221.295z"/>
<path fill="#FFFFFF" d="M505.484,216.323c0-6.313-4.826-10.835-10.915-10.835h-9.828v28.254h6.216v-6.217h3.612h0.384l3.851,6.217
	h7.048c-3.5-5.689-4.411-7.287-5.018-8.262C503.679,223.45,505.484,220.094,505.484,216.323 M494.426,221.372h-3.468v-9.732h3.468
	c2.685,0,4.826,2.078,4.826,4.858C499.252,219.215,497.063,221.372,494.426,221.372"/>
<polygon fill="#170604" points="179.195,42.374 179.195,25.466 173.315,25.466 173.315,20.768 189.87,20.768 189.87,25.466 
	183.942,25.466 183.942,42.374 "/>
<path fill="#170604" d="M246.767,24.338c5.098,0,9.109,4.091,9.109,9.221c0,5.082-4.011,9.172-9.109,9.172s-9.093-4.091-9.093-9.172
	C237.674,28.429,241.669,24.338,246.767,24.338 M246.783,38.736c2.924,0,5.21-2.461,5.21-5.226c0-2.924-2.285-5.306-5.21-5.306
	c-2.876,0-5.162,2.381-5.162,5.306C241.621,36.275,243.907,38.736,246.783,38.736"/>
<polygon fill="#170604" points="202.837,24.691 207.024,24.691 210.667,33.72 211.786,31.099 209.021,24.691 213.176,24.691 
	216.852,33.72 220.495,24.691 224.714,24.691 216.852,42.749 213.799,35.766 210.667,42.749 "/>
<path fill="#170604" d="M279.876,37.91c2.413,0,4.091-1.406,4.986-2.653l3.739,2.956c-1.614,2.557-4.954,4.602-8.725,4.602
	c-6.137,0-11.027-5.082-11.027-11.234c0-6.104,4.842-11.09,10.979-11.09c3.532,0,6.68,1.614,8.422,4.107l-3.819,2.78
	c-0.895-1.247-2.685-2.109-4.602-2.109c-3.18,0-6.2,2.94-6.2,6.312C273.627,34.938,276.711,37.91,279.876,37.91"/>
<path fill="#170604" d="M310.729,38.484h-5.274v3.883h-3.883v-11.25c0-4.283,3.1-6.664,6.488-6.664c3.388,0,6.568,2.381,6.568,6.664
	v11.25h-3.899V38.484z M310.729,34.6v-3.26c-0.016-1.934-1.151-3.005-2.669-3.005c-1.598,0-2.605,1.071-2.605,3.005v3.26H310.729z"
	/>
<path fill="#170604" d="M327.598,24.725h6.137c3.803,0,6.824,2.829,6.824,6.759c0,2.349-1.135,4.459-2.908,5.721
	c0.383,0.623,0.959,1.614,3.148,5.162h-4.411l-2.413-3.883h-0.24h-2.253v3.883h-3.883V24.725z M333.655,34.649
	c1.646,0,3.004-1.358,3.004-3.036c0-1.758-1.342-3.052-3.004-3.052h-2.173v6.088H333.655z"/>
<polygon fill="#FFFFFF" points="178.368,41.326 178.368,24.403 172.487,24.403 172.487,19.705 189.043,19.705 189.043,24.403 
	183.114,24.403 183.114,41.326 "/>
<path fill="#FFFFFF" d="M245.941,23.293c5.114,0,9.109,4.091,9.109,9.221c0,5.082-3.995,9.157-9.109,9.157
	c-5.098,0-9.077-4.075-9.077-9.157C236.864,27.384,240.843,23.293,245.941,23.293 M245.957,37.691c2.94,0,5.21-2.477,5.21-5.226
	c0-2.94-2.269-5.306-5.21-5.306c-2.876,0-5.162,2.365-5.162,5.306C240.795,35.214,243.081,37.691,245.957,37.691"/>
<polygon fill="#FFFFFF" points="202.011,23.646 206.198,23.646 209.841,32.659 210.96,30.038 208.195,23.646 212.35,23.646 
	216.026,32.659 219.669,23.646 223.904,23.646 216.026,41.704 212.989,34.721 209.841,41.704 "/>
<path fill="#FFFFFF" d="M279.057,36.865c2.413,0,4.091-1.422,4.986-2.653l3.739,2.94c-1.614,2.557-4.954,4.603-8.725,4.603
	c-6.137,0-11.043-5.066-11.043-11.219c0-6.12,4.842-11.106,10.979-11.106c3.548,0,6.696,1.614,8.438,4.123l-3.819,2.765
	c-0.911-1.231-2.685-2.11-4.618-2.11c-3.164,0-6.2,2.956-6.2,6.328C272.793,33.893,275.877,36.865,279.057,36.865"/>
<path fill="#FFFFFF" d="M309.909,37.439h-5.29v3.883h-3.883v-11.25c0-4.283,3.116-6.664,6.504-6.664
	c3.372,0,6.568,2.381,6.568,6.664v11.25h-3.899V37.439z M309.909,33.54v-3.244c-0.016-1.934-1.151-3.005-2.669-3.005
	c-1.598,0-2.621,1.071-2.621,3.005v3.244H309.909z"/>
<path fill="#FFFFFF" d="M326.77,23.664h6.137c3.803,0,6.824,2.844,6.824,6.775c0,2.349-1.135,4.443-2.908,5.721
	c0.383,0.607,0.959,1.614,3.148,5.162h-4.411l-2.397-3.883h-0.256h-2.253v3.883h-3.883V23.664z M332.827,33.587
	c1.646,0,3.004-1.342,3.004-3.036c0-1.758-1.326-3.036-3.004-3.036h-2.173v6.072H332.827z"/>
</svg>
