<?xml version="1.0" encoding="utf-8"?>
<!-- Generator: Adobe Illustrator 27.0.1, SVG Export Plug-In . SVG Version: 6.00 Build 0)  -->
<svg version="1.1" id="레이어_1" xmlns="http://www.w3.org/2000/svg" xmlns:xlink="http://www.w3.org/1999/xlink" x="0px"
	 y="0px" viewBox="0 0 720 519.244" enable-background="new 0 0 720 519.244" xml:space="preserve">
<path fill="#9FA0A0" d="M326.377,384.419c-108.53,0-196.803-86.209-196.803-192.21C129.574,86.209,217.847,0,326.377,0
	c108.529,0,196.802,86.209,196.802,192.209c0,50.626-19.868,98.234-56.045,134.358l14.424,34.628
	c0.723,1.754,0.284,3.741-1.058,5.058c-1.368,1.316-3.407,1.651-5.135,0.851l-36.589-17.108
	C405.722,372.549,366.913,384.419,326.377,384.419 M326.377,9.134c-103.472,0-187.642,82.133-187.642,183.075
	c0,100.969,84.171,183.075,187.642,183.075c39.556,0,77.358-11.869,109.38-34.292c1.316-0.955,3.07-1.11,4.567-0.413l28.229,13.212
	l-11.044-26.577c-0.748-1.729-0.335-3.716,1.032-5.032c35.815-34.628,55.503-80.817,55.503-129.972
	C514.044,91.266,429.822,9.134,326.377,9.134"/>
<path fill="#E84C91" d="M519.977,337.372c0,2.632-0.439,4.515-1.264,5.599c-0.852,1.058-2.193,1.574-4,1.574h-16.772
	c-1.755,0-3.225-0.568-4.413-1.754c-1.187-1.187-1.78-2.658-1.78-4.413v-55.554c0-1.832,0.517-3.148,1.574-4.025
	c1.032-0.851,2.89-1.264,5.522-1.264c2.581,0,4.439,0.413,5.548,1.264c1.084,0.877,1.651,2.193,1.651,4.025v46.059
	c0,0.877,0.439,1.316,1.316,1.316h7.354c1.806,0,3.147,0.542,4,1.6C519.539,332.882,519.977,334.74,519.977,337.372
	 M558.786,338.378c0,1.755-0.594,3.225-1.78,4.413c-1.188,1.187-2.658,1.754-4.413,1.754h-17.082c-1.394,0-2.529-0.645-3.484-1.961
	c-0.929-1.342-1.393-3.045-1.393-5.212c0-2.142,0.464-3.871,1.393-5.187c0.955-1.316,2.09-1.987,3.484-1.987h7.586
	c0.877,0,1.316-0.439,1.316-1.316v-46.059c0-1.884,0.516-3.225,1.574-4.077c1.032-0.8,2.915-1.213,5.599-1.213
	c2.607,0,4.438,0.413,5.548,1.264c1.109,0.877,1.652,2.193,1.652,4.025V338.378z"/>
<path fill="#E84C91" d="M660.975,322.671c0,6.735-2.477,12.644-7.432,17.675c-4.928,5.058-10.992,7.612-18.165,7.612h-27.713
	c-5.238,0-9.65-1.78-13.263-5.341c-3.612-3.535-5.393-7.845-5.393-12.902c0-4.98,1.651-9.186,4.928-12.643
	c3.587-3.742,8.257-5.6,14.037-5.6c5.135,0,9.393,1.806,12.799,5.444c3.406,3.612,5.135,7.87,5.135,12.799
	c0,1.806-0.309,3.612-0.929,5.444h9.986c3.329,0,6.141-1.11,8.464-3.355c2.348-2.219,3.51-4.954,3.51-8.205
	c0-3.51-1.161-6.477-3.51-8.876c-2.322-2.4-5.135-3.587-8.36-3.587h-23.532v-19.74c0-0.877-0.439-1.316-1.316-1.316h-16.204
	c-1.368,0-2.503-0.645-3.407-1.935c-0.928-1.291-1.368-3.019-1.368-5.161c0-2.116,0.439-3.793,1.368-5.083
	c0.903-1.291,2.039-1.936,3.407-1.936h25.365c1.754,0,3.225,0.594,4.412,1.754c1.187,1.188,1.78,2.684,1.78,4.438v14.837h9.805
	c7.044,0,13.134,2.684,18.243,8.025C658.524,310.131,660.975,316.04,660.975,322.671 M613.265,329.534
	c0-1.599-0.568-2.967-1.729-4.128c-1.161-1.135-2.529-1.729-4.129-1.729c-1.599,0-2.967,0.594-4.129,1.729
	c-1.161,1.161-1.728,2.529-1.728,4.128c0,1.703,0.542,3.122,1.651,4.207c1.083,1.11,2.555,1.677,4.361,1.677
	c1.496,0,2.812-0.594,3.974-1.755C612.697,332.502,613.265,331.135,613.265,329.534"/>
<path fill="#E84C91" d="M720,329.862c0,4.8-1.677,8.928-5.083,12.36c-3.381,3.407-7.483,5.161-12.334,5.161
	c-4.852,0-8.98-1.728-12.386-5.135c-3.406-3.406-5.109-7.534-5.109-12.386c0-4.825,1.703-8.953,5.058-12.359
	c3.406-3.355,7.534-5.058,12.437-5.058c4.774,0,8.902,1.729,12.308,5.109C718.297,320.986,720,325.063,720,329.862 M710.505,329.862
	c0-2.244-0.775-4.154-2.297-5.702c-1.548-1.523-3.432-2.297-5.625-2.297c-2.194,0-4.103,0.774-5.703,2.297
	c-1.6,1.548-2.399,3.458-2.399,5.702c0,2.271,0.799,4.181,2.373,5.755c1.548,1.548,3.458,2.322,5.729,2.322
	c2.193,0,4.077-0.748,5.625-2.271C709.73,334.094,710.505,332.185,710.505,329.862"/>
<path fill="#E84C91" d="M76.094,190.983c0,1.548-0.232,2.632-0.723,3.225c-0.49,0.62-1.264,0.903-2.322,0.903H2.968
	c-1.058,0-1.806-0.283-2.271-0.903C0.232,193.615,0,192.531,0,190.983c0-2.735,0.981-4.129,2.968-4.129h28.461v-3.303H7.819
	c-2.013,0-3.045-1.393-3.045-4.206c0-2.787,1.032-4.206,3.045-4.206h23.61v-3.225H5.858c-2.038,0-3.045-1.42-3.045-4.207
	c0-2.864,1.006-4.283,3.045-4.283h25.572c0-1.625,0.49-2.71,1.496-3.406c1.006-0.646,2.71-0.981,5.109-0.981
	c2.451,0,4.155,0.335,5.161,0.981c1.032,0.696,1.548,1.78,1.548,3.406h25.416c1.032,0,1.832,0.309,2.348,0.929
	c0.517,0.645,0.8,1.754,0.8,3.354c0,2.787-1.058,4.207-3.148,4.207H44.743v3.225h23.352c0.825,0,1.445,0.154,1.91,0.49
	c0.825,0.62,1.213,1.858,1.213,3.716c0,2.813-1.032,4.206-3.122,4.206H44.743v3.303h28.306
	C75.088,186.854,76.094,188.248,76.094,190.983 M70.495,231.675c0,1.548-0.465,2.684-1.419,3.381
	c-0.929,0.748-2.529,1.084-4.774,1.084c-2.271,0-3.844-0.335-4.748-1.084c-0.903-0.697-1.368-1.832-1.368-3.381v-1.987H17.985v1.936
	c0,1.574-0.465,2.735-1.393,3.432c-0.955,0.748-2.555,1.084-4.877,1.084c-2.323,0-3.922-0.335-4.826-1.032
	c-0.903-0.67-1.367-1.858-1.367-3.483v-27.016c0-1.78,0.593-3.225,1.78-4.413c1.187-1.187,2.658-1.78,4.413-1.78h52.587
	c1.754,0,3.225,0.594,4.412,1.78c1.187,1.187,1.78,2.632,1.78,4.413V231.675z M58.187,206.517H17.985v3.561h40.202V206.517z
	 M58.187,218.154H17.985v3.458h40.202V218.154z"/>
<path fill="#E84C91" d="M172.684,193.141c0,2.864-1.058,4.283-3.225,4.283h-1.806l3.122,3.716c0.8,0.928,1.161,1.832,1.161,2.658
	c0,1.264-0.877,2.632-2.632,4.129c-1.754,1.496-3.277,2.245-4.541,2.245v18.836c0,1.806-0.593,3.251-1.78,4.438
	c-1.187,1.187-2.658,1.806-4.412,1.806h-45.827c-1.754,0-3.225-0.619-4.387-1.806c-1.213-1.187-1.78-2.632-1.78-4.412v-17.392
	h-0.413c-1.496,0-3.199-0.774-5.135-2.27c-1.91-1.523-2.89-3.019-2.89-4.438c0-0.8,0.309-1.703,0.929-2.632l3.199-4.877h-0.491
	c-1.11,0-1.909-0.309-2.399-0.903c-0.491-0.619-0.722-1.728-0.722-3.38c0-1.6,0.232-2.736,0.722-3.381
	c0.491-0.671,1.29-1.006,2.399-1.006h6.271l2.245-3.381h-6.528c-1.11,0-1.91-0.309-2.4-0.902c-0.49-0.62-0.748-1.755-0.748-3.381
	c0-1.625,0.258-2.71,0.748-3.406c0.491-0.646,1.291-0.981,2.4-0.981h12.282l2.245-3.38h-16.515c-1.11,0-1.909-0.309-2.399-0.903
	c-0.491-0.594-0.722-1.728-0.722-3.406c0-1.574,0.232-2.71,0.722-3.381c0.491-0.645,1.29-0.98,2.399-0.98h22.294l2.142-3.407
	c1.084-1.625,2.555-2.451,4.361-2.451c1.651,0,3.38,0.413,5.134,1.291c1.755,0.851,2.632,1.987,2.632,3.406l-0.258,1.161h31.377
	c2.167,0,3.225,1.471,3.225,4.361s-1.058,4.309-3.225,4.309h-36.822l-2.142,3.38h37.003c2.141,0,3.225,1.471,3.225,4.387
	c0,2.838-1.084,4.283-3.225,4.283h-9.831l2.813,3.381h8.979C171.626,188.754,172.684,190.199,172.684,193.141 M155.834,201.139
	l-2.967-3.716h-35.66l-2.297,3.716H155.834z M151.964,209.887h-32.693v4.206h32.693V209.887z M151.964,222.195h-32.693v4.284h32.693
	V222.195z M146.597,185.373h-21.624l-2.142,3.381h23.275c-0.232-0.439-0.335-0.903-0.335-1.393
	C145.771,186.638,146.054,185.967,146.597,185.373"/>
<path fill="#E84C91" d="M268.438,236.411h-38.447c-1.394,0-2.555-0.696-3.484-2.013c-0.929-1.29-1.393-3.044-1.393-5.186
	c0-2.09,0.464-3.793,1.393-5.135c0.929-1.316,2.09-1.961,3.484-1.961h24.255v-21.468c0-0.877-0.439-1.316-1.317-1.316h-50.033
	c-1.806,0-3.122-0.517-3.974-1.574c-0.8-1.032-1.213-2.89-1.213-5.522c0-2.658,0.413-4.489,1.213-5.548
	c0.851-1.032,2.168-1.574,3.974-1.574h59.374c1.729,0,3.225,0.62,4.387,1.806c1.187,1.187,1.78,2.632,1.78,4.413V236.411z
	 M261.265,170.431c0,2.426-0.413,4.129-1.187,5.161c-0.8,1.006-2.064,1.522-3.767,1.522H208.6c-1.703,0-2.942-0.49-3.716-1.496
	c-0.774-0.98-1.161-2.71-1.161-5.187c0-2.425,0.387-4.128,1.161-5.16c0.774-1.006,2.013-1.522,3.716-1.522h47.71
	c1.703,0,2.967,0.516,3.767,1.522C260.852,166.303,261.265,168.006,261.265,170.431"/>
<path fill="#E84C91" d="M365.689,199.656c0,9.212-2.968,17.288-8.902,24.281c-7.045,8.256-16.592,12.359-28.668,12.359h-1.393
	c-1.806,0-3.122-0.49-3.922-1.496c-0.774-1.058-1.187-2.864-1.187-5.496c0-2.606,0.413-4.412,1.187-5.496
	c0.8-1.084,2.116-1.626,3.922-1.626h0.671c7.431,0,13.366-2.348,17.83-6.993c4.077-4.309,6.115-9.573,6.115-15.843v-17.521h-52.69
	c-1.367,0-2.503-0.671-3.406-1.935c-0.929-1.291-1.368-3.019-1.368-5.187c0-2.09,0.439-3.767,1.368-5.057
	c0.903-1.291,2.039-1.936,3.406-1.936h46.421v8.49c0,0.877,0.439,1.342,1.29,1.342h19.327V199.656z M368.914,169.775
	c0,0.981-0.62,1.936-1.858,2.891c-1.239,0.928-2.373,1.393-3.432,1.393c-0.877,0-1.6-0.439-2.142-1.316l-2.477-3.484l0.18,0.774
	c0,0.98-0.619,1.936-1.858,2.864c-1.265,0.929-2.4,1.42-3.432,1.42c-0.878,0-1.6-0.465-2.168-1.342l-4.929-7.096
	c-0.464-0.62-0.671-1.187-0.671-1.755c0-0.903,0.646-1.832,1.91-2.838c1.265-1.006,2.374-1.497,3.381-1.497
	c0.877,0,1.599,0.439,2.142,1.316l2.399,3.458l-0.077-0.568c0-0.954,0.619-1.884,1.884-2.812c1.264-0.929,2.399-1.394,3.38-1.394
	c0.877,0,1.6,0.439,2.168,1.316l4.929,6.941C368.707,168.64,368.914,169.233,368.914,169.775"/>
<path fill="#E84C91" d="M462.123,234.586h-63.322c-1.754,0-3.019-0.516-3.793-1.496c-0.774-1.006-1.161-2.787-1.161-5.367
	c0-2.477,0.413-4.258,1.188-5.289c0.8-1.032,2.064-1.548,3.767-1.548h49.62v-33.958c0-1.574-0.568-2.967-1.703-4.155
	c-1.136-1.187-2.425-1.78-3.922-1.78h-44.253c-1.754,0-3.019-0.49-3.793-1.496c-0.774-0.98-1.161-2.736-1.161-5.264
	c0-2.477,0.413-4.232,1.213-5.289c0.8-1.032,2.038-1.548,3.741-1.548h45.156c4.361,0,8.438,1.728,12.231,5.186
	c4.129,3.741,6.193,8.205,6.193,13.366V234.586z"/>
<path fill="#E84C91" d="M559.604,207.748c0,1.806-0.568,3.742-1.729,5.781c-1.316,2.296-2.787,3.457-4.387,3.457
	c-0.542,0-1.316-0.18-2.296-0.567l-8.334-3.742c-2.374,7.251-6.451,12.876-12.231,17.03c-6.219,4.438-13.805,6.683-22.784,6.683
	h-11.973c-1.806,0-3.122-0.516-3.948-1.574c-0.826-1.032-1.239-2.89-1.239-5.522c0-2.658,0.413-4.49,1.239-5.548
	c0.826-1.032,2.142-1.548,3.948-1.548h11.973c5.728,0,10.476-1.342,14.244-4.051c3.767-2.684,6.374-6.425,7.819-11.147
	l-35.584-15.766c-2.038-0.826-3.07-2.219-3.07-4.129c0-1.806,0.62-3.793,1.858-5.986c1.239-2.168,2.658-3.251,4.258-3.251
	c0.542,0,1.316,0.206,2.296,0.568l31.3,13.856v-24.771c0-1.806,0.516-3.122,1.574-3.948c1.032-0.826,2.864-1.239,5.444-1.239
	s4.412,0.413,5.444,1.239c1.058,0.825,1.574,2.141,1.574,3.948v30.99l11.56,5.109C558.597,204.445,559.604,205.839,559.604,207.748"
	/>
<path fill="#E84C91" d="M601.635,231.178c0,1.832-0.516,3.122-1.548,3.948c-1.006,0.774-2.838,1.187-5.47,1.187
	c-2.555,0-4.335-0.413-5.418-1.187c-1.058-0.825-1.6-2.116-1.6-3.948v-63.631c0-1.832,0.517-3.148,1.574-3.974
	c1.032-0.826,2.839-1.239,5.444-1.239c2.581,0,4.387,0.413,5.445,1.239c1.058,0.825,1.574,2.141,1.574,3.974V231.178z
	 M660.08,211.747c0,2.606-0.413,4.413-1.239,5.47c-0.826,1.032-2.142,1.574-3.974,1.574h-4.36c-0.62,5.238-2.89,9.625-6.864,13.186
	c-3.948,3.535-8.618,5.341-13.959,5.341h-1.058c-5.78,0-10.708-2.039-14.785-6.064c-4.077-3.999-6.115-8.928-6.115-14.785
	c0-5.728,2.039-10.657,6.115-14.785c4.077-4.129,9.005-6.219,14.785-6.219h1.058c2.374,0,4.67,0.387,6.863,1.161v-10.398h-22.294
	c-1.806,0-3.122-0.491-3.922-1.522c-0.8-1.032-1.187-2.865-1.187-5.496c0-2.529,0.387-4.335,1.187-5.419
	c0.8-1.058,2.116-1.626,3.922-1.626h22.294v-4.618c0-1.832,0.517-3.148,1.574-3.974c1.032-0.826,2.839-1.239,5.444-1.239
	c2.632,0,4.49,0.413,5.522,1.239c1.058,0.825,1.574,2.141,1.574,3.974v4.618h4.206c1.832,0,3.148,0.543,3.974,1.6
	c0.825,1.032,1.239,2.838,1.239,5.444c0,2.58-0.413,4.412-1.239,5.47c-0.826,1.032-2.142,1.548-3.974,1.548h-4.206v18.527h4.206
	c1.832,0,3.148,0.491,3.974,1.548C659.667,207.335,660.08,209.168,660.08,211.747 M636.625,216.418c0-1.858-0.671-3.483-2.013-4.825
	c-1.342-1.342-2.993-2.039-4.929-2.039h-1.058c-1.935,0-3.561,0.671-4.877,2.013c-1.316,1.291-1.987,2.967-1.987,4.929
	c0,1.858,0.671,3.483,1.987,4.774c1.316,1.342,2.942,2.013,4.877,2.013h1.058c1.884,0,3.509-0.671,4.877-2.013
	C635.954,219.979,636.625,218.327,636.625,216.418"/>
<path fill="#E84C91" d="M310.88,47.026l-5.212,30.938c1.342,0.207,2.322,0.697,2.941,1.445c0.646,0.723,0.955,1.729,0.955,2.916
	v30.009c0,1.497-0.465,2.606-1.394,3.355c-0.954,0.748-2.529,1.11-4.722,1.11c-2.245,0-3.819-0.335-4.748-1.084
	c-0.903-0.697-1.342-1.832-1.342-3.381V85.138c-3.251-0.671-4.878-2.142-4.878-4.438l0.078-1.161l5.702-34.138
	c0.413-2.658,2.142-3.974,5.11-3.974c1.909,0,3.535,0.283,4.851,0.851c1.832,0.749,2.735,1.962,2.735,3.613L310.88,47.026z
	 M368.344,111.766c0,2.968-1.11,4.464-3.303,4.464h-24.203c-1.755,0-3.225-0.619-4.413-1.78c-1.187-1.161-1.78-2.658-1.78-4.412
	v-7.199h-12.54c-1.754,0-3.225-0.568-4.412-1.754c-1.187-1.187-1.78-2.684-1.78-4.413V73.964V72.7
	c-1.136-0.697-2.039-1.394-2.761-2.142c-1.006-1.084-1.523-2.09-1.523-2.967c0-0.749,0.387-1.574,1.161-2.477l6.837-7.741h-2.632
	c-1.265,0-2.219-0.413-2.864-1.239c-0.62-0.8-0.955-2.168-0.955-4.025c0-3.51,1.291-5.264,3.819-5.264h11.869l3.896-4.361
	c1.032-1.187,2.219-1.806,3.535-1.806c1.342,0,2.89,0.542,4.722,1.573c1.806,1.058,2.71,2.142,2.71,3.303
	c0,0.413-0.129,0.877-0.413,1.29h21.133c1.317,0,2.297,0.413,2.942,1.187c0.619,0.826,0.954,2.142,0.954,4.077
	c0,1.935-0.335,3.251-0.954,4.077c-0.645,0.774-1.625,1.187-2.942,1.187h-4.774l7.845,8.076c0.825,0.825,1.239,1.703,1.239,2.58
	c0,0.928-0.439,1.91-1.342,2.967c-0.491,0.594-1.342,1.368-2.555,2.296v23.378c0,1.729-0.594,3.225-1.78,4.413
	c-1.161,1.187-2.658,1.754-4.387,1.754h-12.825v4.386h19.172c1.11,0,1.91,0.335,2.477,0.98
	C368.06,108.876,368.344,110.064,368.344,111.766 M354.797,67.772l-9.65-10.398h-10.915l-8.979,10.398h9.392v-0.594
	c0-1.419,0.439-2.451,1.239-3.147c0.826-0.646,2.297-0.981,4.387-0.981c2.09,0,3.535,0.335,4.386,0.981
	c0.8,0.696,1.213,1.728,1.213,3.147v0.594H354.797z M334.644,76.364h-7.69v4.8h7.69V76.364z M334.644,89.317h-7.69v4.851h7.69
	V89.317z M353.481,76.364h-7.586v4.8h7.586V76.364z M353.481,89.317h-7.586v4.851h7.586V89.317z"/>
<path fill="#0098D8" d="M73.062,325.003c0,2.323-0.387,3.948-1.136,4.903c-0.748,0.955-1.935,1.445-3.586,1.445H53.245
	c0,4.852-1.858,8.98-5.574,12.412c-3.715,3.458-8.102,5.16-13.159,5.16h-5.058c-5.212,0-9.676-1.832-13.314-5.47
	c-3.664-3.665-5.496-8.077-5.496-13.263c0-5.264,1.806-9.728,5.444-13.366c3.638-3.638,8.103-5.47,13.366-5.47h5.058
	c1.47,0,2.915,0.181,4.361,0.517v-3.303H7.676c-1.651,0-2.838-0.465-3.56-1.419c-0.697-0.929-1.084-2.555-1.084-4.929
	c0-2.425,0.387-4.103,1.084-5.031c0.722-0.929,1.909-1.42,3.56-1.42h31.197v-6.27H7.676c-1.651,0-2.838-0.465-3.56-1.394
	c-0.697-0.954-1.084-2.606-1.084-4.954c0-2.425,0.387-4.103,1.084-5.058c0.722-0.928,1.909-1.393,3.56-1.393h31.197
	c0-2.968,2.322-4.438,7.018-4.438c2.374,0,4.103,0.335,5.213,1.058c1.084,0.723,1.728,1.832,1.884,3.381H68.34
	c1.651,0,2.838,0.49,3.586,1.445c0.749,0.954,1.136,2.632,1.136,5.006c0,2.322-0.387,3.948-1.136,4.903
	c-0.748,0.954-1.935,1.445-3.586,1.445H52.987v6.27H68.34c1.651,0,2.838,0.491,3.586,1.471c0.749,0.954,1.136,2.607,1.136,4.98
	c0,2.322-0.387,3.948-1.136,4.903c-0.748,0.955-1.935,1.445-3.586,1.445H52.987v9.986H68.34c1.651,0,2.838,0.491,3.586,1.445
	C72.675,320.979,73.062,322.63,73.062,325.003 M38.873,330.112c0-1.702-0.568-3.121-1.729-4.283s-2.58-1.728-4.283-1.728H29.3
	c-1.652,0-3.071,0.567-4.258,1.754c-1.187,1.187-1.754,2.658-1.754,4.335c0,1.651,0.568,3.07,1.754,4.258
	c1.187,1.187,2.606,1.754,4.258,1.754h3.561c1.651,0,3.044-0.568,4.232-1.754C38.279,333.261,38.873,331.816,38.873,330.112"/>
<path fill="#0098D8" d="M173.523,323.435c0,6.709-2.348,12.412-7.071,17.133c-4.696,4.696-10.398,7.045-17.134,7.045h-33.002
	c-1.832,0-3.122-0.516-3.922-1.522c-0.8-1.006-1.213-2.839-1.213-5.496c0-2.581,0.413-4.412,1.213-5.496
	c0.8-1.058,2.09-1.6,3.922-1.6h33.002c2.813,0,5.212-0.98,7.199-2.967c1.962-1.987,2.968-4.361,2.968-7.097
	c0-2.812-1.006-5.212-2.968-7.173c-1.987-1.987-4.386-2.993-7.199-2.993h-23.946v-19.894h-19.636c-1.806,0-3.122-0.517-3.922-1.523
	c-0.8-1.032-1.187-2.838-1.187-5.496c0-2.529,0.387-4.309,1.187-5.393c0.8-1.058,2.116-1.625,3.922-1.625h19.636v-0.645
	c0-1.729,0.543-2.993,1.574-3.845c1.058-0.851,2.839-1.29,5.367-1.29c2.58,0,4.412,0.413,5.444,1.239
	c1.058,0.825,1.574,2.116,1.574,3.896v0.645h25.674c1.832,0,3.148,0.542,3.974,1.6c0.826,1.032,1.239,2.838,1.239,5.418
	c0,2.606-0.413,4.412-1.239,5.444c-0.825,1.058-2.141,1.574-3.974,1.574h-25.674v5.883h9.986c6.735,0,12.437,2.322,17.134,7.045
	C171.174,311.024,173.523,316.7,173.523,323.435"/>
<path fill="#0098D8" d="M264.722,341.817c0,1.78-0.594,3.251-1.754,4.438c-1.213,1.187-2.658,1.78-4.438,1.78h-21.624
	c-1.754,0-3.044-0.517-3.844-1.548c-0.8-1.006-1.187-2.813-1.187-5.393c0-2.529,0.387-4.335,1.187-5.418
	c0.8-1.058,2.09-1.6,3.844-1.6h12.489c0.851,0,1.29-0.439,1.29-1.316v-18.423c0-3.407-1.084-6.322-3.303-8.748
	c-2.193-2.425-5.109-3.612-8.747-3.612h-18.398v40.924c0,1.832-0.491,3.148-1.522,3.922c-1.032,0.799-2.865,1.213-5.496,1.213
	c-2.529,0-4.335-0.413-5.419-1.213c-1.058-0.774-1.6-2.091-1.6-3.922v-40.924h-5.367c-1.806,0-3.122-0.517-3.922-1.548
	c-0.8-1.006-1.187-2.839-1.187-5.496c0-2.529,0.387-4.309,1.187-5.392c0.8-1.084,2.116-1.6,3.922-1.6h5.367v-8.67
	c0-1.832,0.517-3.148,1.574-3.974c1.032-0.826,2.864-1.213,5.444-1.213c2.58,0,4.412,0.387,5.444,1.213
	c1.058,0.825,1.574,2.141,1.574,3.974v8.67h18.398c7.508,0,13.701,2.581,18.682,7.741c4.954,5.187,7.405,11.406,7.405,18.656
	V341.817z M270.348,283.217c0,1.006-0.62,1.962-1.858,2.891c-1.239,0.928-2.399,1.419-3.432,1.419c-0.877,0-1.6-0.465-2.142-1.342
	l-2.477-3.458l0.18,0.748c0,0.877-0.645,1.806-1.91,2.813c-1.264,0.98-2.374,1.471-3.303,1.471c-0.826,0-1.548-0.439-2.168-1.317
	l-2.709-3.87l0.077,0.749c0,0.877-0.619,1.78-1.858,2.735c-1.239,0.98-2.348,1.471-3.329,1.471c-0.877,0-1.6-0.465-2.142-1.342
	l-4.98-6.993c-0.439-0.62-0.646-1.188-0.646-1.755c0-0.877,0.646-1.806,1.91-2.786c1.265-1.006,2.374-1.497,3.381-1.497
	c0.877,0,1.6,0.387,2.142,1.136l2.709,3.896l-0.154-0.749c0-0.877,0.645-1.806,1.909-2.786c1.265-1.006,2.4-1.497,3.381-1.497
	c0.877,0,1.6,0.439,2.142,1.316l2.322,3.381l-0.077-0.568c0-0.877,0.619-1.806,1.884-2.736c1.264-0.928,2.399-1.393,3.38-1.393
	c0.877,0,1.6,0.439,2.142,1.316l4.955,7.045C270.115,282.107,270.348,282.675,270.348,283.217"/>
<path fill="#0098D8" d="M361.656,318.068c0,4.413-1.032,8.464-3.097,12.232c-2.064,3.715-5.109,6.734-9.135,9.057l-9.083,5.29
	c-0.877,0.542-1.754,0.825-2.632,0.825c-1.419,0-2.864-1.032-4.284-3.096c-1.445-2.064-2.167-3.896-2.167-5.496
	c0-1.419,0.825-2.606,2.399-3.535l8.516-4.98c4.618-2.684,6.915-6.322,6.915-10.863c0-3.303-1.187-6.245-3.56-8.799
	c-2.4-2.581-5.29-3.845-8.645-3.845c-2.529,0-4.98,0.723-7.354,2.142l-19.816,11.715c-0.878,0.568-1.729,0.851-2.555,0.851
	c-1.419,0-2.786-1.032-4.103-3.096c-1.342-2.09-2.013-3.948-2.013-5.574c0-1.497,0.852-2.735,2.503-3.741l19.456-11.535
	c4.025-2.373,8.36-3.561,12.979-3.561c7.148,0,13.212,2.555,18.192,7.638C359.152,304.779,361.656,310.921,361.656,318.068"/>
<path fill="#0098D8" d="M462.854,284.051c0,2.555-0.413,4.336-1.239,5.367c-0.826,1.032-2.116,1.574-3.871,1.574h-18.243
	c-5.883,0-10.94,2.09-15.121,6.271c-4.18,4.18-6.27,9.238-6.27,15.198c0,5.832,2.09,10.838,6.27,15.018
	c4.181,4.18,9.238,6.271,15.121,6.271c3.896,0,7.535-0.981,10.89-2.968c0.877-0.542,1.961-0.825,3.225-0.825
	c1.987,0,3.844,0.8,5.573,2.348c1.729,1.574,2.581,3.354,2.581,5.315c0,1.625-0.465,2.71-1.393,3.303
	c-6.115,4.593-13.083,6.863-20.876,6.863c-9.753,0-18.088-3.432-25.029-10.321c-6.915-6.863-10.399-15.224-10.399-25.003
	c0-3.974,0.774-7.793,2.322-11.483c1.548-3.69,3.69-7.019,6.451-9.986h-15.611c-1.754,0-3.044-0.516-3.844-1.522
	c-0.8-1.032-1.187-2.813-1.187-5.419c0-2.529,0.387-4.335,1.187-5.393c0.8-1.084,2.09-1.6,3.844-1.6h60.509
	c1.755,0,3.045,0.491,3.871,1.548C462.441,279.639,462.854,281.445,462.854,284.051"/>
<path fill="#0098D8" d="M75.852,69.761c0,4.232-1.032,8.128-3.045,11.715c-2.219,3.87-5.393,6.967-9.573,9.315l-9.083,5.316
	c-1.058,0.593-1.962,0.903-2.736,0.903c-1.471,0-3.019-1.136-4.618-3.407c-1.6-2.245-2.4-4.18-2.4-5.78
	c0-1.471,0.852-2.735,2.555-3.793l9.573-5.599c1.651-0.878,2.968-2.142,3.896-3.742c0.929-1.574,1.419-3.303,1.419-5.109
	c0-2.684-0.98-5.032-2.915-6.993c-1.91-1.987-4.284-2.993-7.097-2.993c-1.651,0-3.225,0.413-4.696,1.239L27.16,71.567l19.301,35.996
	c0.49,0.928,0.748,1.78,0.748,2.529c0,1.574-1.084,3.045-3.251,4.386c-2.193,1.394-4.154,2.065-5.909,2.065
	c-1.599,0-2.915-0.903-3.974-2.71L14.93,78.173l-4.464,2.399c-1.084,0.542-1.987,0.8-2.709,0.8c-1.6,0-3.122-1.11-4.541-3.329
	c-1.445-2.245-2.142-4.232-2.142-5.986c0-1.6,0.903-2.864,2.709-3.896l4.464-2.374l-5.78-10.812
	c-0.542-0.98-0.826-1.884-0.826-2.658c0-1.522,1.11-2.993,3.329-4.36c2.245-1.368,4.232-2.065,5.909-2.065
	c1.6,0,2.916,0.903,3.974,2.736l5.703,10.554l12.282-6.606l-1.471-2.658c-0.567-0.98-0.825-1.858-0.825-2.632
	c0-1.549,1.11-2.994,3.303-4.361c2.193-1.394,4.155-2.065,5.858-2.065c1.599,0,2.915,0.903,3.948,2.71l1.651,2.916
	c0.955-0.284,1.987-0.517,3.148-0.697c1.161-0.155,2.27-0.206,3.38-0.206c6.709,0,12.412,2.322,17.056,7.045
	C73.529,57.35,75.852,63.027,75.852,69.761"/>
<path fill="#0098D8" d="M114.582,111.837c0,1.832-0.516,3.122-1.548,3.948c-1.006,0.8-2.838,1.187-5.47,1.187
	c-2.555,0-4.335-0.387-5.418-1.187c-1.058-0.825-1.6-2.116-1.6-3.948V48.206c0-1.806,0.517-3.148,1.574-3.974
	c1.032-0.8,2.839-1.239,5.444-1.239c2.58,0,4.387,0.439,5.444,1.239c1.058,0.825,1.574,2.167,1.574,3.974V111.837z M173.027,92.407
	c0,2.606-0.413,4.413-1.239,5.47c-0.826,1.032-2.168,1.574-3.974,1.574h-4.36c-0.62,5.238-2.89,9.625-6.864,13.186
	c-3.948,3.535-8.618,5.341-13.959,5.341h-1.058c-5.78,0-10.708-2.039-14.785-6.064c-4.077-3.999-6.115-8.928-6.115-14.785
	c0-5.728,2.039-10.657,6.115-14.785c4.077-4.129,9.005-6.219,14.785-6.219h1.058c2.374,0,4.67,0.413,6.863,1.161V66.887H127.2
	c-1.806,0-3.122-0.491-3.922-1.522c-0.8-1.032-1.187-2.865-1.187-5.496c0-2.529,0.387-4.335,1.187-5.418
	c0.8-1.058,2.116-1.626,3.922-1.626h22.294v-4.618c0-1.806,0.517-3.148,1.574-3.974c1.032-0.8,2.839-1.239,5.444-1.239
	c2.632,0,4.49,0.439,5.522,1.239c1.058,0.825,1.574,2.167,1.574,3.974v4.618h4.206c1.806,0,3.148,0.543,3.974,1.6
	c0.825,1.032,1.239,2.838,1.239,5.444c0,2.58-0.413,4.412-1.239,5.47c-0.826,1.032-2.168,1.548-3.974,1.548h-4.206v18.527h4.206
	c1.806,0,3.148,0.491,3.974,1.548C172.614,87.994,173.027,89.852,173.027,92.407 M149.572,97.077c0-1.858-0.671-3.483-2.013-4.825
	s-2.993-2.039-4.929-2.039h-1.058c-1.935,0-3.561,0.671-4.877,2.013c-1.316,1.291-1.987,2.942-1.987,4.929
	c0,1.858,0.671,3.483,1.987,4.774c1.316,1.342,2.942,2.013,4.877,2.013h1.058c1.884,0,3.509-0.671,4.877-2.013
	C148.875,100.638,149.572,98.987,149.572,97.077"/>
<path fill="#0098D8" d="M215.714,80.583c0,1.394-0.671,2.58-1.987,3.536c-1.342,0.928-3.096,1.393-5.29,1.393
	c-2.141,0-3.896-0.465-5.237-1.393c-1.342-0.955-2.039-2.142-2.039-3.536V48.87c0-1.445,0.671-2.632,1.987-3.56
	c1.316-0.929,3.07-1.394,5.289-1.394c2.142,0,3.896,0.465,5.238,1.394c1.342,0.928,2.039,2.115,2.039,3.56V80.583z M264.818,87.576
	c0,9.754-2.374,17.108-7.148,22.062c-4.748,5.006-11.998,7.509-21.753,7.509h-9.083c-1.368,0-2.503-0.671-3.406-1.962
	c-0.929-1.264-1.368-3.019-1.368-5.16c0-2.091,0.439-3.767,1.368-5.058c0.903-1.316,2.038-1.935,3.406-1.935h9.573
	c4.8,0,8.334-1.317,10.579-3.896c2.245-2.581,3.38-6.374,3.38-11.38V59.682c0-0.877-0.439-1.342-1.316-1.342h-8.102
	c-1.316,0-2.399-0.593-3.251-1.832c-0.851-1.239-1.29-2.864-1.29-4.929c0-1.935,0.465-3.509,1.342-4.774s1.935-1.91,3.199-1.91
	h17.675c1.754,0,3.225,0.594,4.413,1.78c1.187,1.187,1.78,2.658,1.78,4.413V87.576z"/>
<path fill="#0098D8" d="M466.239,84.46c0,5.444-1.161,10.708-3.509,15.74c-2.323,5.058-5.496,9.419-9.522,13.057
	c-0.722,0.593-1.548,0.903-2.477,0.903c-1.832,0-3.586-0.8-5.289-2.4c-1.703-1.574-2.555-3.329-2.555-5.186
	c0-1.445,0.491-2.58,1.497-3.484c2.58-2.296,4.644-5.109,6.219-8.412c1.573-3.303,2.347-6.735,2.347-10.218
	c0-2.606-0.413-5.135-1.187-7.612c-0.8-2.477-1.961-4.774-3.432-6.863l-36.486,39.969c-0.774,0.878-1.677,1.549-2.684,1.988
	c-1.032,0.439-1.987,0.671-2.941,0.671c-1.188,0-2.322-0.232-3.329-0.723c-1.032-0.465-1.988-1.136-2.865-2.013
	c-3.303-3.303-5.805-7.148-7.534-11.56c-1.754-4.412-2.606-9.031-2.606-13.856c0-10.528,3.716-19.534,11.147-27.016
	c7.431-7.483,16.463-11.224,27.068-11.224c10.502,0,19.508,3.741,26.964,11.198C462.523,64.875,466.239,73.88,466.239,84.46
	 M437.933,61.571c-3.251-1.316-6.529-1.961-9.831-1.961c-6.863,0-12.747,2.425-17.572,7.251c-4.851,4.851-7.277,10.709-7.277,17.598
	c0,2.09,0.258,4.077,0.749,5.96c0.49,1.884,1.213,3.767,2.141,5.574L437.933,61.571z"/>
<rect x="118.876" y="471.93" fill="#000" width="104.788" height="2.142"/>
<rect x="429.085" y="471.93" fill="#000" width="104.788" height="2.142"/>
<path fill="#0098D8" d="M289.338,491.247l-2.296,22.088c-0.206,2.245-1.574,3.38-4.103,3.38c-2.399-0.025-4.051-0.361-4.98-1.032
	c-0.903-0.671-1.342-1.651-1.342-2.916l2.27-22.578c0.129-1.187,0.517-2.065,1.11-2.581c0.594-0.542,1.703-0.774,3.329-0.774
	c1.754,0,3.199,0.258,4.309,0.8c1.136,0.516,1.702,1.548,1.702,3.096V491.247z M320.405,478.577v0.749
	c0,1.393-0.671,2.373-1.987,2.941c-1.316,0.542-2.787,0.826-4.438,0.826c-2.4,0-3.716-1.058-3.922-3.174v-0.439h-4.954
	l-0.103,34.964c0,3.173-2.194,4.748-6.554,4.748c-2.374-0.026-4.051-0.387-5.006-1.109c-0.955-0.774-1.445-1.987-1.42-3.664
	l0.078-34.989h-8.851c-3.69,0-5.496-1.858-5.496-5.496l0.025-4.335c0-1.548,0.543-2.967,1.6-4.206l8.876-10.76l-7.379-2.219
	c-0.774-0.31-1.471-0.852-2.091-1.652c-0.645-0.825-0.954-1.651-0.954-2.503l0.026-7.509c0-1.728,0.568-3.277,1.677-4.618
	l11.121-13.16c0.696-0.774,1.677-1.161,2.864-1.161c1.677,0,3.355,0.671,5.006,2.064c1.651,1.368,2.477,2.864,2.477,4.49
	c0,0.903-0.258,1.625-0.749,2.116l-9.857,11.482l6.657,2.116l11.973-14.398c0.774-0.851,1.78-1.29,3.071-1.29
	c1.754,0.025,3.509,0.722,5.264,2.193c1.754,1.445,2.632,3.044,2.632,4.8c0,0.851-0.284,1.625-0.851,2.322l-24.669,29.622
	l14.037,0.026l-0.619-5.496c0-1.394,0.645-2.4,1.909-2.993c1.265-0.62,2.736-0.929,4.439-0.903c2.373,0,3.689,1.058,3.896,3.199
	L320.405,478.577z M320.328,512.355v0.542c-0.026,1.548-0.723,2.632-2.168,3.251c-1.006,0.439-2.425,0.646-4.283,0.646
	c-2.658,0-4.077-1.136-4.284-3.407l-2.09-22.603c0-1.471,0.594-2.503,1.832-3.045c1.213-0.568,2.632-0.851,4.283-0.826
	c2.787,0,4.284,1.11,4.516,3.355L320.328,512.355z M376.167,435.099c0,2.348-0.387,3.974-1.11,4.903
	c-0.749,0.955-1.936,1.445-3.561,1.445l-15.302-0.051l-0.025,5.496l13.314,0.026c1.625,0,2.787,0.465,3.535,1.419
	c0.723,0.98,1.11,2.606,1.11,4.929c-0.026,4.155-1.574,6.219-4.67,6.219l-41.286-0.103c-1.548,0-2.709-0.465-3.432-1.394
	c-0.748-0.928-1.11-2.529-1.11-4.851c0-2.399,0.387-4.025,1.084-4.954c0.697-0.929,1.858-1.368,3.484-1.368l12.979,0.026l0.026-5.47
	l-15.198-0.052c-1.626,0-2.813-0.49-3.535-1.445c-0.749-0.954-1.11-2.581-1.11-4.903c0.025-2.399,0.361-4.025,1.084-4.98
	c0.697-0.903,1.884-1.342,3.587-1.342l15.198,0.052v-0.877c0.026-1.962,0.568-3.381,1.651-4.284c1.084-0.851,3.045-1.29,5.857-1.264
	c5.006,0,7.509,1.884,7.483,5.599v0.852l15.327,0.051c1.6,0,2.787,0.465,3.536,1.394
	C375.805,431.125,376.167,432.776,376.167,435.099 M375.754,511.141c0,2.607-0.413,4.439-1.265,5.496
	c-0.877,1.032-2.193,1.548-4.025,1.548l-12.566-0.051c-2.245,0-4.155-0.749-5.651-2.245c-1.497-1.523-2.271-3.406-2.245-5.651
	l0.052-21.676c0-1.728,0.516-3.044,1.573-3.87c1.058-0.877,2.865-1.264,5.419-1.264c2.167,0,3.793,0.309,4.851,0.954l-0.103-1.496
	v-5.058l-25.959-0.052l-0.025,5.6c1.961,0,4.051,0.516,6.219,1.522c2.193,1.058,3.277,2.426,3.277,4.129
	c0,0.335-0.154,1.032-0.439,2.013l-8.179,24.849c-0.361,1.11-0.852,1.961-1.497,2.529s-1.496,0.826-2.632,0.826
	c-1.832,0-3.767-0.568-5.806-1.677c-2.399-1.368-3.587-2.839-3.587-4.49l0.439-2.09l7.767-23.352l-2.529,0.206
	c-2.555-0.026-4.309-0.439-5.341-1.239c-1.006-0.8-1.522-2.116-1.522-3.87l0.026-10.038c0-2.27,0.774-4.154,2.296-5.677
	c1.497-1.522,3.406-2.27,5.651-2.245l37.596,0.078c2.245,0.025,4.129,0.774,5.626,2.296c1.496,1.522,2.27,3.406,2.27,5.651
	l-0.025,10.141c0,1.703-0.543,2.942-1.6,3.741c-1.058,0.8-2.813,1.213-5.29,1.213c-2.038,0-3.612-0.284-4.748-0.878l0.206,1.6
	l-0.025,15.43h6.528C374.025,504.071,375.779,506.419,375.754,511.141"/>
</svg>
