<?xml version="1.0" encoding="utf-8"?>
<!-- Generator: Adobe Illustrator 27.0.1, SVG Export Plug-In . SVG Version: 6.00 Build 0)  -->
<svg version="1.1" id="레이어_1" xmlns="http://www.w3.org/2000/svg" xmlns:xlink="http://www.w3.org/1999/xlink" x="0px"
	 y="0px" viewBox="0 0 720 161.84" enable-background="new 0 0 720 161.84" xml:space="preserve">
<path fill-rule="evenodd" clip-rule="evenodd" fill="#BB797E" d="M339.465,23.448c1.052,1.177-1.176,1.61,0,2.663
	c-0.991,0.556-1.95,1.671-1.3,2.971c-1.176,0.186-0.929,1.827-0.681,2.632c-0.681,0.124-0.867-0.248-1.3-0.341
	c0.155,2.601-0.99,4.705-3.622,5.913c1.826,1.052-1.083,1.95,0,3.312c-0.681,0.65-0.65-0.155-1.331-0.34
	c-0.96,0.278,0.774,0.495,0.341,1.3c-1.548,0.155-1.114,1.579-1.331,2.321H328.6c1.207,0.96-0.371,0.836,0,2.632
	c-0.247-0.186-0.526-0.372-0.99-0.341c0.217,0.341,0.774,0.341,0.65,1.022c-0.588-0.062-0.681,0.371-1.3,0.309
	c0.186,0.248,0.341,0.526,0.31,0.991c-1.362,0.34-2.322,1.857-1.981,2.941c-0.774-0.124-0.681,0.619-1.641,0.34
	c1.176,0.526-0.557,2.043-1.61,2.291c0.279,2.228-2.074,2.538-2.322,4.953c-0.248-0.279-0.898-0.186-0.991-0.65
	c-0.99,0.279,0.743,0.495,0.341,1.331c-0.279-0.062-0.341-0.341-0.681-0.341c-0.031,0.589,0.433,0.712,0.341,1.301
	c-2.383,0.279-1.795,3.281-4.303,4.643c-0.031,0.34,0.093,0.557,0.341,0.619c-1.95,1.765-2.848,2.631-3.931,5.294
	c-0.898,0.247-0.681-0.681-1.331-0.681c0.093,0.774,0.712,1.671-0.341,1.021c0.588,1.145-0.217,0.774-0.31,1.95
	c-1.888-0.99-1.3,1.61-1.981,2.291c-1.393-0.805-0.991,1.207-1.641,2.012c-0.65-0.588-0.433,0.031-1.331,0
	c0.867,1.826-0.898,0.279-0.65,1.95c-2.198-0.03-1.145,0.898-1.981,2.632c-0.681,0.155-0.867-0.217-1.3-0.31
	c1.021,1.331-1.95,0.96-1.331,2.941c-0.867-0.093-1.641-0.093-1.3,0.991c-0.279-0.155-0.557-0.31-1.022-0.31
	c-0.433,1.981-2.848,4.736-4.922,6.903c-0.31-0.031-0.248-0.402-0.31-0.65c-1.238,0.929-0.557,1.796-2.322,1.95
	c0.186,0.279,0.34,0.557,0.34,1.022c-1.393-0.589-1.424,0.557-1.672,1.331c-1.579-0.062-1.826,1.238-2.291,2.291
	c-2.26,0.155-2.724,2.074-4.612,2.631c0,0.31,0.402,0.247,0.65,0.31c-1.548,1.145-3.498,0.929-3.931,3.652
	c-1.455,0.247-3.467,0.712-2.972,1.951c-1.114,0.124-1.393-0.557-1.981-0.991c-0.433,0.341-0.99,0.557-1.3,0.991
	c0.371-0.898-1.579-0.062-1.331-1.672c-0.712-0.031-1.052,0.279-0.99,1.022c-1.022-0.279-1.145-2.663-1.331-1.982
	c-0.867-0.371,0.588-1.795,1.021-0.99c0.124-0.557-0.279-0.62-0.681-0.681c0.898-0.341,1.764-1.92,2.971-0.96
	c-1.114-1.207,0.65-1.547,0.341-2.941c2.074-0.464,2.755-2.321,3.281-4.303c0.495,0.496,1.176-0.464,0.99-0.34
	c0.402-0.31,1.053-1.857,1.641-2.631c0.371-0.465,0.712,0.185,0.341-1.301c2.167-0.279,3.219-1.61,3.281-3.962
	c0.371-0.061,0.588,0.062,0.65,0.341c1.548-1.888,2.105-4.705,4.272-5.913c-0.124-0.526-1.022-0.31-0.65-1.331
	c1.083-0.31,0.495,1.084,0.991,1.331c-0.155-0.743,0.867-1.951,0.34-2.631c1.362-0.279,0.805-2.508,2.631-2.353
	c-0.248-1.238,0.402-1.547,0.34-2.631c0.96,0.093,0.991-0.743,1.981-0.65c0.124-0.774-0.619-0.712-0.341-1.641
	c0.371-0.279,0.867-0.434,1.641-0.34c-0.248-0.279-0.371-0.743-0.341-1.301c1.022,0.341,1.053,0.31,0.991-0.99
	c0.309,0.247,0.743,0.34,1.331,0.34c-1.331-0.464-0.96-1.95-0.341-2.971c0.371,0.03,0.278,0.588,0.341,0.99
	c0.681-0.31,0.99-0.99,0.99-1.981c3.034-0.557,0.712-4.488,3.931-4.922c-0.124-0.31-0.279-0.62-0.65-0.681
	c0.186-0.681,0.526-0.681,0.99-0.31c0.526-3.652,3.838-4.519,4.272-8.234c1.114-0.247,0.557,0.681,0.341,0.96
	c1.578-0.248-0.248-1.827,0.65-2.632c0.371,0.094,0.217,0.681,0.65,0.681c-0.743-1.826,2.662-2.166,1.671-4.302
	c0.279-0.248,0.712-0.341,1.3-0.341c0.681-3.126,1.238-4.612,3.622-6.253c0.031-0.526-0.248-0.836-0.65-0.96
	c0.279-0.96,0.495-0.371,1.331-0.34c-0.743-1.115,1.052-1.207,1.609-2.291c0.526-0.991-0.619-3.622,1.981-3.622
	c-0.124-0.31-0.279-0.619-0.65-0.681c0.681-0.402,1.393-0.805,1.981-1.331c-1.238-1.207,1.362-2.723,1.641-4.241
	c0.433,0.124,0.526,0.557,0.99,0.65c-0.743-1.392,0.217-2.507,0.99-3.281c-0.217-0.341-0.743-0.341-0.65-0.991
	c0.681,0.279,1.455-0.866,0.65-1.021c0.557-0.743,1.455-1.146,2.291-1.61c0.031-0.805-0.557-0.991-0.31-1.981
	c1.021,1.114,0.588-2.477,1.95-0.991c0.031-0.805-0.557-0.96-0.31-2.012c1.362,0.434,2.043-3.033,1.981-2.91
	c0.279-0.434,1.331,0.712,0.31-1.021c0.588,0.124,0.619-0.247,0.65-0.65c0.526,1.424,1.888,0.03,2.321,0
	c0.99-0.062,1.826,1.392,2.972,0.65c0.186,0.681,0.681,1.084,0.99,1.64c0.526-1.671,1.795,1.052,2.291-0.619
	c-0.186,0.434,1.052,0.681,0.99,0.619c0.341,0.279,0.062,0.712,0.341,0.991c0.155,0.155,0.836-0.124,0.99,0
	c0.96,0.991,1.3,2.476,2.972,2.631c-0.217,0.31-0.774,1.207,0.31,1.022c-0.402,0.433-1.269,0.464-1.641,0.959
	c0.093,0.434,0.65,0.341,0.65,0C340.456,19.146,341.818,22.117,339.465,23.448"/>
<path fill-rule="evenodd" clip-rule="evenodd" fill="#BB797E" d="M43.801,5.348c0.31-0.247,0.495-0.588,0.65-0.99
	c1.486-0.062-0.062,0.681,0,0.99c0.247,1.3,1.826,1.486,2.321,2.632c0.093,0.309-0.65,0.526-0.681,0.65
	c-0.062,0.402,0.619,0.495,0.681,0.681c0.124,0.495-0.433,0.588-0.341,0.99c0.093,0.434,0.464,0.062,0.65,0.341
	c0.217,0.278-0.31,0.68-0.31,0.619c0.557,1.176,1.733,1.981,1.3,3.312h-0.65c0.279,0.96,0.805-0.434,1.641,0
	c-0.526,2.538,2.445,4.148,0.31,4.613c0.093,0.588,0.588,0.742,1.331,0.65c-0.031,0.464-0.031,0.929,0.341,0.99
	c0.093,0.743-0.96,0.341-0.99,0.991c2.755-0.341,0.867,5.479,3.622,5.262c-0.929,1.27-0.124,0.712,0.31,1.982
	c-0.248-0.094-0.31-0.31-0.65-0.31c1.517,1.95-0.062,4.272,2.322,4.922c-0.898,1.455,0.402,1.733,0.65,2.941
	c-1.641-0.31,1.145,2.352-0.65,1.331c1.207,0.65,1.888,1.826,2.631,2.972c0.062,0.742-0.279,1.021-0.991,0.959
	c0.495,0.805,0.805,0.527,1.641,0.341c-0.124,0.929-0.433,2.631,0.991,2.631c0.031,2.105,1.021,5.386,2.971,6.594
	c-1.517,1.3,0.588,3.746,1.641,4.612c0.279,0.96-0.464,0.867-0.34,1.641c1.176-0.186,1.764,2.197,2.631,3.312
	c-0.124,0.465-0.279-0.031-0.65,0c-0.062,1.362,2.848,2.91,0.99,3.932c0.279,0.495,0.836,0.711,1.641,0.681
	c-0.186,2.29,0.464,2.074,0.65,4.581h1.331c0.031,2.136-0.279,4.364,1.981,5.603c-0.093,0.371-0.65,0.247-0.681,0.681
	c0.093,0.248,0.341,0.31,0.341,0.65c0.34-0.216,0.34-0.743,0.99-0.65c-0.031,0.434-0.062,0.929,0.341,0.991
	c0,0.309-0.433,0.247-0.65,0.34c0.805,1.548,1.362,3.436,2.631,4.582c-0.588,1.455,0.681,3.096,1.3,3.622
	c-0.681,1.392,1.857,2.415,2.291,3.962c0.124,0.34-0.65,0.557-0.65,0.65c0,0.216,1.455,0.96,0,1.331
	c0.774,0.495,1.238-0.247,0.65,1.331c0.155,0.465,0.433-0.155,0.99,0c-0.124,0.589,0.248,1.176,0.341,0.619
	c-0.588,0.991,2.445,2.693,0.65,3.622c0.248,0.279,1.919,1.238,0.341,1.331c0.279,0.496,0.836,0.712,1.641,0.65
	c0.279,2.012,0.464,4.148,1.981,4.953c0.093,1.362-0.433,1.27,0,2.291c-1.486,0.897-3.096-0.279-3.622,1.672
	c-3.219-1.393-5.108,3.033-7.893,0.959c-0.062,0.62,0.402,0.681,0.309,1.331c-1.145-0.897-2.755,1.517-3.622,0
	c-1.702,1.579-3.684,1.888-5.912,1.951c0.805-1.27,0.341-0.96-0.99-0.65c0.99-1.92-1.084-2.353-1.3-4.582
	c0.65-0.557,0.402,0.031,1.3,0c-0.681-0.743-1.548-1.331-2.321-2.012c1.826-0.031-1.455-2.291-0.31-3.591
	c-0.588-0.061-0.681,0.402-1.331,0.341c1.393-0.96-0.464-1.331,0.341-2.353c-0.217-0.402-0.712-0.588-1.331-0.619
	c0.248-1.146-0.712-1.733-0.96-2.662c-0.217-0.65,0.898-2.538-1.021-2.291c0.155-0.402,0.433-0.681,1.021-0.681
	c-0.309-0.464-1.083-0.434-1.672-0.619c0.96-1.177,0.217-1.951-0.99-2.632c0.031-0.34,0.402-0.279,0.681-0.34
	c-0.526-0.929-2.817-1.826-1.672-3.281c-1.207-1.146-2.043-4.241-1.981-5.603c-1.703,0.711-0.247-0.434-0.31-0.681
	c-0.217-1.022-0.681-0.124-0.99-1.301c-0.124-0.526-0.433-0.402-0.65-1.64c-0.124-0.65-0.681-1.857-0.991-2.322
	c-0.34-0.495-0.371-1.486-1.331-1.641c1.455-0.743-0.898-1.455,0.341-2.631c-0.774,0.031-0.248-0.371-0.99-1.671
	c-0.929-1.641-2.91-2.043-1.331-4.272c-1.486-0.526-0.712-1.301-2.291-1.641c0.093-0.65,1.022-2.322-0.65-1.981
	c0.278-2.074-2.105-4.272-1.331-6.594c-0.062-0.402-0.991-0.402-0.991,0c-0.248-0.279,0.093-2.817-0.96-1.95
	c0.186-1.92-2.043-2.569-1.331-5.263c-0.248-0.34-0.588-0.526-0.99-0.65c0-0.34,0.402-0.279,0.65-0.34
	c-0.217-0.465-0.712-0.62-1.331-0.681c0.836-1.362-1.238-0.898-0.65-2.941c-0.929-1.3-2.445,0-2.941-1.641
	c-1.053,0.341-2.384,1.146-3.312,1.641c-0.743,0.402-1.703-0.124-1.981,0c-0.34,0.155-0.402,1.486-1.64,0
	c-0.588,0.061-0.186,1.114-0.65,1.331c-1.579-1.362-2.229,1.084-3.962,0c0.155,2.167-5.479,0.897-5.262,2.631
	c-1.3-0.588-2.507,0.216-2.941-0.681c-0.557,1.92-3.034,0.279-2.972,2.291c-0.898-0.495-1.61,0.402-1.981-0.96
	c-0.031,1.455-1.083,0.743-1.981,0.96c-0.31,0.093-1.733,1.547-2.291,0.991c-0.96-0.465-0.805-2.074-1.981-2.291
	c-0.155-0.681,0.217-0.867,0.31-1.331c-0.093-0.434-0.557-0.031-0.65,0.34C1.207,44.413,0.712,42.742,0,41.256
	c0.929-0.031,1.548-1.052,2.631,0c0.433-0.247,0.619-0.742,0.65-1.331c0.278-1.052,0.433,0.557,0.341,0.991
	c0.619-0.341,1.021-1.641,1.981-0.65c0.743-0.186-0.402-0.527,0.341-1.022c1.764,0.186,3.374-0.99,3.931,0
	c0.65-0.371,1.857-1.084,2.631-0.309c-0.247-1.672,2.043,0.154,2.322-1.641c0.65,0,0.402,0.897,1.3,0.65
	c0.309-0.371,1.672-2.383,1.981-0.65c0.557-1.115,1.579,0.124,1.981-1.331c1.176,0.711,1.95-0.217,2.631-0.341
	c-0.031,0.031,0.031,0.681,0,0.681c0.217,0,1.145-1.392,1.331,0c0.371-0.061,0.248-0.619,0.31-1.021
	c1.579,1.115,2.538-1.61,4.303-0.279c0.186-0.65,1.269-2.228,2.631-2.662c-0.526-1.547,0.248-0.836,0.31-2.291
	c-0.96,2.105-0.743-1.857-1.641-0.681c0.402-1.95-1.703-2.6-1.3-4.272c-0.155-0.464-0.433,0.124-1.022,0
	c0.093-0.99-0.898-1.981,0.341-2.291c-0.433-0.34-2.445-1.733-0.341-1.671c-0.247-0.465-0.805-0.681-1.64-0.65
	c0.619-1.393-1.3-1.981-0.31-3.282c-1.517-0.556-1.641-2.538-2.321-3.931c0.557-0.124,0.619,0.216,0.681,0.619
	c0.433-0.093,0.248-0.805,0.31-1.3c-0.681-0.279-0.898,0.402-1.331,0.34c-0.774-0.124,0.588-0.433,0.341-0.681
	c-0.681-0.742-1.796-2.166-1.981-4.922c1.579,0.898,3.529-3.033,3.962-1.331c0.619-0.402,0.217-1.733,1.641-1.3
	c0.186,0.743-0.619,0.465-0.65,0.96c0.991-0.743,2.384-1.052,3.281-1.3c0.65-0.155,3.343-2.26,4.612-0.991
	c0.464,0.062-0.124-1.331,0.681-0.34c0.743-0.155-0.402-0.496,0.31-0.991c1.486,0.031,2.384-1.207,3.281,0
	c1.114-0.464-1.084-0.34-0.65-1.3c1.641,0.464,3.312-1.115,5.262-0.65c0.557,0.866-0.371,3.219,1.331,2.941
	C44.079,3.677,44.017,4.606,43.801,5.348 M41.479,0.737C40.241-0.161,40.055,1.944,41.479,0.737 M64.2,110.717v0.651
	c0.805,0.526,0.99-1.115,0.34-0.991C64.509,110.593,64.478,110.779,64.2,110.717"/>
<path fill-rule="evenodd" clip-rule="evenodd" fill="#BB797E" d="M108.985,50.139c-0.991,0.836-1.857,1.858-3.281,2.291
	c-0.062,0.589,0.402,0.712,0.31,1.301c-0.991-0.712-0.557,0-0.65,0.34c-0.341,1.331-2.198,0.371-1.331,1.981
	c-0.402-0.124-0.65-0.402-0.65-0.99c-0.681,0.216-0.093,1.671-1.331,1.331c0.248,0.34,0.774,0.34,0.681,0.959
	c-0.279,0.062-0.31-0.124-0.341-0.309c-1.176,1.176-3.683,0.99-4.272-0.991c1.3,0.836,0.155-1.052-0.341-1.331
	c0.062-0.495,1.981-1.486,0.341-1.61c0.402-0.711,0.96-1.237,1.641-1.671c-0.588-4.055,1.114-6.005,0.99-10.184
	c0.402,0.124,0.681,0.434,0.65,0.96c0.588-2.477-1.114-5.448,1.331-7.553c-0.712-1.424-0.836-1.795-0.99-3.281
	c0.248,0.155,0.526,0.31,0.99,0.31c-0.371-0.371-0.929-0.589-0.681-1.641h1.022c-0.65-0.495,0.557-1.392-0.681-1.641
	c0.062-0.402,0.619-0.279,0.99-0.34c0-0.991-0.588-1.393-1.331-1.672c0.743-2.166,1.424-3.559,0.341-5.912
	c0.712-0.186,1.084-0.681,1.641-0.96c-0.031-0.402-0.588-0.279-0.96-0.341c0.743-1.702-0.217-2.6,0.65-4.612
	c-0.309,0.216-0.495,0.589-0.65,0.991c-0.402-1.301,0.464-2.569,0.96-3.622c-0.124-0.65-1.269-0.247-0.96-1.3
	c0.867-0.712,0.217-1.27,0.309-2.663c0.65-0.34,1.176-0.959,1.981-0.99c0.898-0.062,0.526,0.712,1.3,0.99
	c1.114,0.372,3.095-0.34,2.662,1.332c-0.093-2.415,2.848,1.021,3.931-0.681c-0.774,0.588,2.693,1.516,2.972,0.34
	c4.241,0.619,4.612,2.167,9.534,1.672c0.371,1.919,3.095,1.3,4.303,0.619c0.99,0.836,0.65,0.929,2.291,0.99
	c0.341,1.022,0.093,2.012,0.341,2.322c-0.217,0.991-0.712-0.31-1.331,0c-0.248,1.021,0.898,0.619,0.681,1.641
	c-0.464,0.34-1.207,0.309-1.672,0.681c0.062,0.897,0.65,1.114-0.309,0.619c0.929,1.733-1.3,1.393-0.341,3.312
	c-2.291,0.434-0.991,2.507-3.281,2.941c0.557,1.362-1.579,1.702-0.341,2.631c-0.495,0.898-1.579,1.084-2.291,2.353
	c-0.217,0.309-0.062,1.269-0.341,1.61c-0.588,0.742-1.733,0.897-2.291,1.671c-0.217,0.279,0.186,1.022,0,1.3
	c-0.186,0.217-1.114,0.402-1.331,0.681c-0.124,0.155,0.155,0.836,0,0.991c-0.464,0.371-0.681-0.31-0.341,0.96
	c-0.619-0.62-0.805-0.031-1.641,0c1.176,1.176-0.805,3.436-2.291,3.962c0.186,1.702-2.136,3.064-2.322,3.281
	c-0.217,0.341,0.124,1.177-0.34,1.641c-0.495,0.557-0.805,0.65-0.96,0.991c-0.526,1.331-1.826,2.383-2.631,2.321
	c-0.062,0.589,0.371,0.681,0.31,1.331c-0.805-0.805-1.084,0.805-2.291,0.65C107.622,51.099,108.396,49.923,108.985,50.139"/>
<path fill-rule="evenodd" clip-rule="evenodd" fill="#7ECEF4" d="M87.251,27.74c-0.402-0.154-0.65-0.433-0.65-0.99
	c-0.557,1.641-3.405,0.434-3.281,1.981c-0.65,0-0.433-0.897-1.331-0.65c-0.681,0.093-0.093,1.455-0.65,1.61
	c-0.495-0.031-0.124-0.96-0.65-0.96c-0.495-0.031-0.309,0.774,0,0.65c-0.805,0.341-0.371-0.34-0.681-0.309
	c-0.619,0.03-0.526,0.65-1.641,0.959c-0.805,0.247-1.95-0.185-2.631,0c-0.96,0.279-0.929,1.579-1.981,0.341
	c-1.61,1.331-2.848,1.702-5.262,1.671c-0.99,1.548-3.962,1.425-4.953,1.301c-0.433-0.93-1.3-2.663-0.99-3.313
	c-0.093-0.433-0.805-0.279-1.3-0.34c0.093-0.836,0.681-1.052-0.65-0.96c0.34-1.269,0.99-1.3,0.96-2.322
	c0.743-0.216,1.052,0.93,0.99-0.309c1.517,0.031,1.3,0.279,2.662,0c-0.278-0.774,0.433-1.548,0.31-0.31
	c1.083-1.145,2.879-0.588,4.303-0.681c0.31-0.031,0.248-0.402,0.31-0.65c1.455,0.465,2.724,0.216,2.972-1.3
	c0.681,0.34,0.96,1.021,1.95,0.619c0.155-0.061,0.371-0.65,0.371-0.65c1.021-0.155,2.445,0.619,2.6-1.3
	c0.557,1.547,2.291,0.279,3.312,0.99c0.836-0.093-0.464-0.588,0-1.331c2.383,1.393,2.569-2.074,3.962,0.341
	c0.743-0.341,1.579-0.589,1.3-1.981c0.805,0.185,0.681,1.269,1.95,0.959c0.867-0.061-0.433-0.526,0-1.3
	c0.836-0.093,3.25,0.96,3.312-0.65c1.61,0.031,2.415,0.495,3.281,0c1.145,2.167,0.062,3.188-0.31,5.263
	c0,0.34,0.402,0.279,0.65,0.34C91.987,27.555,89.975,25.977,87.251,27.74"/>
<path fill-rule="evenodd" clip-rule="evenodd" fill="#BB797E" d="M708.794,32.455c1.765,0.465-2.816,2.291-1.64,3.312
	c-1.424-1.021-0.588,1.207-1.672,0.31c0.217,1.052-0.681,2.972-1.981,2.631c0.402,0.929,0.216,1.61-0.65,0.991
	c0.155,1.424-1.021,0.712-0.309,1.981c-1.95,0.247-2.6,3.683-4.953,4.303c0.279,1.145-0.495,1.269-0.341,2.291
	c-1.021-2.383-0.959,2.352-2.971,1.95c-0.495,1.92-0.341,2.755-0.309,3.962c0.154,0.496,0.402-0.124,0.99,0
	c-0.495,1.486,1.3,1.331,0.309,2.291c0.464-0.279,2.229,1.146,2.662,0.681c0.867,0.557,0.341,0.867,0.96,1.981
	c1.238-0.031,0.959-0.371,1.981,0c-1.486,1.517,3.188,1.61,0.99,2.631c1.92,0.402,3.034,3.343,4.612,2.972
	c1.022,1.27,2.136,2.477,3.622,3.282c-0.99,1.392,2.043,1.361,1.981,3.621c0.588-1.083,1.795,1.579,3.622,1.332
	c0.093,0.526-0.309,0.556-0.341,0.99c1.238-0.155,1.548,0.619,2.322,0.96c-0.805,1.331,0.279,1.362,0.341,2.631
	c-1.517-0.124-0.433,1.362-2.662,0.991c0.712,1.269-0.464,0.557-0.309,2.012c-0.774-0.124-1.269,0.061-1.331,0.619
	c-0.31,0-0.248-0.371-0.31-0.619c-0.588,0.061-0.774,0.526-0.681,1.3c-1.238-1.486-0.495,0.681-1.981,0.65
	c0.155,0.279,0.31,0.589,0.681,0.681c-0.217,0.402-0.712,0.589-1.331,0.65c0-0.34,0.402-0.279,0.65-0.34
	c-1.393-0.651-3.529-0.898-2.631-2.941c-0.898,0.371-1.362,0.681-2.291,0.309c0.247-2.042-3.219-2.042-2.322-3.622
	c-1.052,0.155-2.353-2.692-3.931-1.981c0.433-1.3-0.898-0.835-1.331-1.3c0.402-2.26-2.353-1.392-2.291-3.312
	c-0.279,0.155-0.526,0.34-0.99,0.34c-0.093-0.526,0.309-0.556,0.309-0.99c-0.929-1.022-2.353,0.248-2.29-1.981
	c-1.145,0.248-1.269-0.496-2.322-0.31c0-1.517-1.114-1.981-2.29-2.291c0.743-1.579-0.774-0.247-0.991-2.012
	c-0.99,0.031-2.167,0.186-1.981-0.99c-1.455,0.216-2.105,1.176-3.281,0.99c0.279,1.951-2.043,1.27-1.981,2.972
	c-0.557,0.124-0.619-0.247-0.65-0.681c-0.464,0.557,0.186,1.857-1.641,1.671c0.217,0.341,0.743,0.341,0.65,0.991
	c-1.053,0.402-4.21,1.796-3.622,2.972c-0.495,0.371-0.836,0.371-1.3,0c0.774,2.136-2.136,1.765-1.021,1.3
	c-1.362,0.526,0.154,0.526-0.31,0.991c-0.278,0.279-1.857-0.186-1.3,1.64c-0.681,0.31-1.579,0.434-1.672,1.331
	c-0.557,0.124-0.619-0.279-0.65-0.681c-0.774,0.496-0.495,0.836-0.341,1.641c-0.774,0-0.96,0.589-1.95,0.341
	c0.155,1.238,0.557,0.835-0.681,0.65c0.588,1.331-0.371,0.96-1.981,1.331v1.64c-1.888-0.216-0.681,0.62-1.64,1.331
	c-1.888-1.392-1.362,1.982-3.281,1.641c-0.495,0.155,0.124,0.402,0,0.991c-0.495,0.371-0.805,0.371-0.99-0.341
	c-0.557,0.341-0.402,1.951-1.331,0.991c0.836,0.96-0.959,2.074-1.64,1.3c-0.464,0.124-0.031,0.589,0.341,0.681
	c-0.898,0.589-3.869,2.043-5.262,1.95c-0.186,0.712,0.619,0.805,0.65,0.341c1.052,0.34-1.393,2.693-1.331,0.99
	c-0.681,0.867-1.764,2.663-3.281,1.641c-0.031,0.62,0.402,0.712,0.341,1.331c-1.95-0.836-2.631,2.415-3.962,1.641
	c-0.495,0.155,0.124,0.402,0,0.99c-0.712,0.31-1.858,0.248-1.981,0.341c-0.433,0.34-0.341,1.486-1.981,0.99
	c0.062,0.402,0.619,0.279,0.99,0.341c-0.402,0.805-2.693,1.3-2.971,0.31c-0.434,0.309-0.65,0.897-0.96,1.3
	c1.269-0.743-0.031,0.836-0.341,1.021c-0.402,0.217-0.031-0.681,0-0.681c-0.805,0-1.764,1.207-2.631,2.291
	c-0.743-1.207-2.724,1.393-1.981-0.31c-1.114-0.34-0.526,1.022-0.65,1.641c-0.341-0.031-0.247-0.402-0.341-0.65
	c-0.96,1.331-2.724,0.341-3.281,2.291c-0.836,0.061-1.579,0.061-1.981-0.341c-1.672,2.106-4.891,2.601-7.243,3.963
	c0.154-0.248,0.34-0.526,0.34-0.991c-0.526,0.589-1.517,0.712-1.671,1.672c-1.269-0.372-2.229-0.465-2.941,0.959
	c-2.105-0.309-1.95-2.878-4.303-2.971c0.186-1.115,0.898-1.703,0.99-2.941c1.548,1.207,2.198-2.756,3.622-1.641
	c0.402-0.495,0.96-0.805,0.99-1.671c1.826,0.929,1.052-2.632,3.622-1.951c0.495-0.155-0.124-0.434,0-0.99
	c0.681-0.124,0.867,0.216,1.3,0.309c0.99-0.279,0.402-0.464,0.341-1.3c1.424,0.279,1.672-1.547,2.662-0.65
	c-0.154-0.31-0.309-0.589-0.681-0.681c1.671-2.26,4.767-3.096,5.943-5.913c1.362,1.301,1.919-3.157,4.582-2.631
	c0.154-0.774-0.588-0.743-0.31-1.641c0.619-0.619,0.589,0.186,1.641,0c-0.217-0.371-0.743-0.371-0.65-0.99
	c1.485,0.279,2.321-2.322,4.612-2.291c0-0.805-0.588-0.991-0.34-2.012c1.517,0.062,1.981-2.198,3.312-1.3
	c0.619-0.681,0.186-2.415,0.959-2.941c2.353,0.309,1.238-2.756,3.653-2.353v-1.3c0.526-0.093,0.557,0.31,0.959,0.341
	c0.062-0.589-0.402-0.681-0.309-1.331c0.743-0.155,2.6-1.486,3.281-2.291c0.495-0.589,0.867-2.941,1.64-1.981
	c0.031-0.898-0.526-0.651,0-1.301c0.434,0.402,1.238,0.402,1.641,0c0.031-0.588-0.217-0.866-0.65-1.021
	c0.836-0.124,1.795-0.124,1.641-1.95c0.495,0.402,0.836,0.402,1.331,0c0.031-0.589-0.402-0.712-0.341-1.331
	c1.114,0,0.805-1.393,1.672-1.641c0.309,0,0.247,0.402,0.309,0.681c0.619-0.031,0.217-1.115,0.99-1.022
	c-0.216-0.309-0.742-0.309-0.65-0.99c0.681-0.65,0.65,0.155,1.3,0.34c-0.279-0.959-0.279-0.99,0-1.981
	c0.526-0.093,0.588,0.31,0.99,0.341c0.402-2.415,1.578-2.167,1.981-4.303c0.65,0.557,0.402,0,1.3,0
	c0.341-1.3,1.238-3.436,2.321-2.941c0.031-0.589-0.402-0.712-0.341-1.3c0.712-0.217,0.929-0.836,1.981-0.681
	c-0.929-1.146,0.898-1.765,0.681-3.282c0.805,0.062,0.99-0.526,1.64-0.681c-0.712-1.455,0.434-2.723,1.95-2.94
	c-0.031-1.146,0.31-1.92,1.672-1.641c-1.64-1.888,0.929-3.188,1.981-3.312c0.217-1.022-1.145-0.402-0.681-1.641
	c1.672,1.486,0.526-2.724,2.971-2.972c-0.279-0.279-0.341-0.711-0.341-1.3c0.836,0.836,0.681-0.465,0.681-1.331
	c1.052-0.031,2.012-1.888,1.64-2.291c1.083-0.774,1.981-1.61,1.3-3.312c1.486-0.991,1.826-2.322,2.971-2.941
	c-1.114-1.052,0.867-2.322,0.341-3.962c0.434-0.402,0.495-0.124,0.96,0c-0.464-1.672,1.022-1.393,1.331-2.291
	c-1.455-0.495,1.238-3.127,0.65-4.953c1.3,0.681,0.96-0.929,1.331-2.662c0.65-0.526,0.434,0.031,1.3,0
	c-1.177-0.434-0.495-2.26,1.021-1.951c-0.743-0.309-0.99-1.392,0.31-1.3c-0.372,0.402-0.279,0.65,0.341,0.65
	c0.093-2.166,3.064-1.084,3.621-1.981c0.527,0.402,2.074,1.052,2.941,0.681c0.774,0.216,0.99,0.991,1.331,1.61
	c0.712-0.526,2.662-0.247,2.631,0.991c1.733-0.496,1.424,0.711,3.622,0.681c-0.495,1.237,1.455,0.061,0.99,1.3
	c1.61,0.124,2.228,0.216,2.971,1.671c2.074,0.465,4.21,0.991,5.603,1.301c0.96,0.278-0.433,0.835,0,1.64
	c1.548-1.052,1.455,0.247,3.281-0.309c0.898,1.671,1.981,1.176,3.312,2.29c-0.464,1.022-0.247,1.393,0,2.632
	c-1.238,0.061-0.836,0.464-0.681,1.331c-1.084,0.247-1.022,1.61-2.322,1.64c1.765,1.084-1.455,1.146-0.959,2.941h-1.331
	c1.052,0.836-1.083,5.046-2.321,4.644c0.154,2.011-2.353,2.321-1.95,3.621C708.794,30.753,710.373,32.146,708.794,32.455
	 M706.814,79.568c-0.588-0.031-0.867,0.216-0.99,0.65C706.287,80.683,707.092,80.714,706.814,79.568 M708.454,67.372
	C707.123,66.227,707.68,68.425,708.454,67.372"/>
<path fill-rule="evenodd" clip-rule="evenodd" fill="#7ECEF4" d="M664.335,34.783c0.742,0.836-0.96,1.238-1.641,2.291
	c-0.557,0.867-0.309,2.291-1.981,2.291c0,0.681,0.897,0.434,0.65,1.331c-2.105-0.34-1.857,1.641-3.622,1.641
	c-0.402-2.167-3.776-2.972-3.621-4.613c-0.093-0.835-0.557,0.434-1.331,0c-0.434-0.959-0.619-2.228-2.291-1.981
	c0.217-1.052-0.619-1.021,0-1.61c-2.198,0.62-1.64-2.012-3.281-1.021c0.372-1.486-1.857-0.34-1.331-1.95
	c-0.743,0.681-1.827-0.124-1.64-1.331c-1.053-1.238-2.755-1.857-3.281-3.622c-0.557,0-0.867,0.216-0.99,0.65
	c-0.867,0.124,0.309-1.826-0.99-1.3c0.402-2.879,2.198-4.365,4.612-5.294c0-0.309-0.402-0.247-0.65-0.309
	c1.857-1.827,3.653,1.702,5.913,1.64c-0.96,1.888,3.343,0.805,2.29,2.972c0.681-0.124,1.052,0.062,0.99,0.65
	c0.341-0.185,0.341-0.742,0.99-0.65v0.991c1.3-0.775,1.238,0.402,2.663,0.309c-0.527,1.827,1.95,0.681,1.3,2.662
	c0.341,0.186,0.217-0.681,0.309-0.681c0.341-0.03,2.012,0.867,2.322,1.301c0.154,0.279-0.217,0.774-0.341,0.681
	c0.99,0.929,2.383,0.835,2.321,2.29c0.805-0.65,0.712-0.464,1.981-0.34C663.128,32.741,664.551,35.155,664.335,34.783"/>
<path fill-rule="evenodd" clip-rule="evenodd" fill="#7ECEF4" d="M509.699,16.223c-0.248-0.124,1.021-0.495,1.64-1.331
	c1.331,0,2.786,1.61,3.962,0.681c0.588,0.217,0.031,0.589,0,0.991c1.455,0.061,1.176-0.589,2.94-0.681
	c-1.455,1.517,2.508-0.526,2.972,0.991c0.402-0.031,0.279-0.589,0.341-0.991c0.093,1.733,1.733-0.155,1.95,1.3
	c0.742-0.247,1.3-0.681,2.321-0.619c0.402,0.402,0.124,0.495,0,0.96c1.3-0.341,2.167-0.465,3.621-0.65
	c0.402,1.084-1.052,0.247-0.65,1.3c0.836,0.061,1.022-0.495,1.3-0.991c0.681,0.341,1.424,0.589,1.64,1.331
	c0.774,0,1.455-0.464,2.321-0.34c0.589,0.124,0.743,0.619,0.99,0.681c0.217,0.031,0.898-1.548,0.991,0
	c0.371-0.062,0.278-0.62,0.309-0.991c0.279,0.247,0.929,0.495,1.022,0c0.557,0.279,1.238,0.743,0.65,1.331
	c0.96-0.031,1.207-0.774,1.64-1.331c1.145,1.238,3.343,1.331,5.262,0.65v0.991c2.105-0.681,5.479-0.062,6.903,0.99
	c0.434-1.052-1.052-0.247-0.65-1.3c1.3-0.434,0.867,0.897,1.331,1.3c1.64-0.154,2.26-0.495,3.281,0.31
	c-0.155,2.136-0.31,2.972-1.331,4.643c0.124,0.434,0.588,0.031,0.681-0.34c0.96,1.981-2.29,1.424-0.99,2.972
	c-0.402,0.433-1.145,0.619-1.981,0.65c0.093-0.526-0.309-0.557-0.341-0.991c-0.402,0.062-0.434,0.96,0,0.991
	c-2.229-0.341-4.086-0.217-6.593-0.31c0.619,0.031-1.083-0.805-1.95-0.681c-0.464,0.062-0.929,0.681-0.99,0.681
	c-0.402,0-0.557-0.619-0.99-0.681c-1.733-0.247-3.993,0.247-5.262,0c-0.031,0,0.031-0.65,0-0.65c-0.65-0.093-1.795,0.929-1.641-0.34
	c-0.681,0.124-0.65,0.897-1.331,0.99c-0.867,0.217-0.65-0.681-0.99-0.99c-0.681,0.99-1.548-0.434-2.971,0.65
	c0.836-0.557,0.495-0.526,0-1.301c-0.372,0.031-0.248,0.589-0.31,0.991c-0.526-1.115-1.517,0.31-1.672-0.991
	c-1.176,0.867-2.415-0.278-2.941,0.651c-2.29-1.207-5.231-1.579-7.584-0.341c0.743-1.888-3.591-0.742-4.612-0.619
	c0.124-0.031-0.433-1.176-0.341,0c-0.867,0.185-0.619-0.712-0.959-1.022c-0.464,1.053-1.238,0.434-1.981,0
	c0.867-0.278,0.031-1.702,0-2.29h0.65c0-0.681-0.805-1.951-0.65-2.972c0.093-0.589,0.619-2.693,1.641-2.322
	C510.07,16.936,510.163,16.317,509.699,16.223"/>
<path fill-rule="evenodd" clip-rule="evenodd" fill="#BB797E" d="M559.421,30.697c0.341,0.093,0.217,0.681,0.65,0.681
	c0.774-0.094-0.031-1.238-0.34-1.331c0.526-0.96,1.919-1.146,0.99-2.632c0.433-0.34,1.238-0.34,1.64-0.68
	c-0.031-0.341-0.588-0.279-0.959-0.31c0.742-1.826,1.269-2.383,0.959-5.263h0.681c-0.155-0.279-0.279-0.588-0.681-0.681
	c0.062-0.588,1.114-0.216,1.022-0.959c-0.062-0.402-0.619-0.279-1.022-0.341c0.155-0.619,0.96-0.588,0.681-1.671
	c1.362-0.062,1.3,0.805,0.99-0.62c0.712,0.217,2.043,1.207,2.291,0c0.402,0.124,0.681,0.434,0.65,0.96
	c0.805-0.619,1.61,0.371,2.631-0.34c0.124,0.464,0.588,0.526,0.681,1.021c1.393-0.65,2.415,0.031,3.931,0.31
	c0.341,0.061,1.331-0.402,1.641-0.31c0.247,0.062,0.619,0.65,0.681,0.65c0.371,0.031,1.207-0.65,1.3-0.65
	c0.898,0,1.022,1.021,1.981,1.331c0.186,0.031,2.538-1.084,2.631,0.96c0.774-0.093,0.619-1.146,1.672-0.96
	c-0.186,0.216-0.371,0.495-0.341,0.96c1.517-0.897,1.795,0.681,4.272,0.34c-0.031,0.805,0.526,1.022,0.99,1.331
	c-1.486,0.681-0.031,1.61-0.99,2.941c-1.517-0.99-0.836-0.185-1.331,0.991c0.186,0.464,0.526,0.805,0.99,0.99
	c-1.424-0.309-0.712,2.538-2.631,2.632c0.031,0.65,0.929,0.402,0.681,1.331c-2.043,3.033-2.848,3.622-3.962,7.212
	c-0.526,0.124-0.557-0.31-0.99-0.31c1.207,0.929-0.589,2.074-1.981,2.322c0.186,0.248,0.341,0.526,0.341,0.959
	c-0.774,0.124-1.269-0.03-1.64-0.309c0.867,0.835,0.309,1.207,0.65,2.291c-0.557-0.125-0.619,0.247-0.65,0.68
	c-1.362-0.835-0.619,0.681-1.981,0.62c0.712,0.743-0.186,1.486-0.99,1.671c0.031,0.557-0.897,1.301-1.331,2.291
	c-0.743-0.99-0.186-0.124-1.3,0c0.154,0.31,0.279,0.619,0.65,0.681c-0.279,1.084-0.712,0.248-1.331,0
	c0.619,1.176-0.495,1.92-1.64,2.291c0.897,1.3-0.372,0.805-0.96,1.331c-0.155,0.124,0.093,0.805,0,0.96
	c-0.371,0.526-2.693,0.774-3.622,1.331c-0.062,0.588,0.402,0.711,0.31,1.331c-1.145,0.216-1.672,0.093-1.95,1.64
	c-2.476-0.34-3.962,4.458-6.934,3.622c-0.031,0.557,0.402,0.681,0.341,1.301c-0.372,0.588-2.167-0.155-1.672,1.331
	c-2.043-0.527-2.136,1.392-4.272,1.3c0.65,1.424-3.529,3.096-4.922,4.303c0.062-0.402-0.093-0.589-0.341-0.681
	c-0.867,0.247-0.65,1.547-1.331,2.012c-0.991-0.465-1.826,0.959-2.291,0c-0.434,0.061-0.279,0.805-0.341,1.3
	c-0.588-0.279-1.145-1.238-0.99,0.31c-1.641,0.402-2.817,0.216-2.631,1.331c-1.548-0.062-2.198,1.392-4.612,1.3
	c-0.464,0.155,0.155,0.434,0,0.99c-0.805-0.526-3.838,2.415-3.591,0.681c-1.052,1.207-2.971,1.146-3.653,2.291
	c-0.557,0.124-0.619-0.279-0.65-0.65c-0.372,0.062-0.279,0.589-0.31,0.991c-2.971,0.68-3.931,0.124-5.943,1.95
	c0.186-0.247,0.341-0.495,0.341-0.96c-1.083-0.31-0.495,1.052-0.99,1.3c-0.99-0.216-3.157,0.062-3.621,1.331
	c-0.465-0.34-0.434-1.114-0.991-1.331c-0.062,0.712-2.29,1.455-2.971,1.672c-2.26,0.619-4.581,1.702-6.593,0.619
	c-0.062,1.052-0.588,1.27-1.641,0.341c-0.929,2.042-4.55,0.371-5.603,2.631c-1.764-0.465-4.21-0.434-4.612,0.34
	c-1.145,0.341-2.662-2.197-2.631,0c-1.114-1.021-1.765-2.074-1.641-3.621c1.393,0.402,2.353,0.433,2.631-0.991
	c1.579,1.084,2.136-0.681,3.312-0.991c0.31-0.061,0.681,0.341,0.65,0.341c0.371-0.124,0.433-0.805,0.99-0.991
	c0.681-0.248,1.733,0.217,2.29,0c1.022-0.433,1.455-1.671,2.631-1.981c-0.155,0.279-0.341,0.557-0.309,0.991
	c0.588-1.177,2.569-2.353,3.621-1.981c0.619-1.207,2.291-1.425,2.941-2.632c2.693,1.301,3.436-3.467,6.253-1.981
	c0.619-0.526-0.217-1.052,0.681-1.641c0.248,0.186,0.526,0.341,0.991,0.341c0.495,0.061,0.093-0.805,0.309-0.991
	c0.526-0.433,2.353-0.371,3.312-0.99c0.619-0.402,0.774-1.301,1.3-1.672c0.247-0.155,0.743,0.155,0.99,0
	c1.517-0.866,2.755-2.972,4.302-2.291c0.031-0.556-0.402-0.681-0.341-1.3c1.053,0.495,2.755-0.774,2.631-1.671
	c1.052-0.341,0.743-0.031,1.981,0c0.434-0.094,0.279-0.805,0.341-1.301c1.765,0.248,1.95-1.269,2.941-2.321
	c0.774-0.774,2.043-0.836,1.981-2.291c0.465,0.805,2.167-0.681,1.332,0.65c0.774,0.279,1.547-1.579,0.309-1.3
	c-0.588-0.248,0.186-0.341,0.681-0.341c1.579-2.042,2.693-2.507,5.231-3.591v-1.331c3.003-1.207,3.374-4.364,6.284-4.953
	c-0.155-0.279-0.309-0.588-0.65-0.65c0.279-1.114,0.712-0.309,1.3,0c-0.186-0.279-0.341-0.557-0.341-0.99
	c0.279,0.061,0.341,0.309,0.681,0.309c0.867-0.897-0.062-1.764,0.65-2.29c0.186-0.155,1.455,0.897,0.65-0.651
	c0.402,0.062,0.588-0.061,0.65-0.34c0.588-0.124,0.619,0.279,0.681,0.65c1.64-3.498,3.188-5.603,6.253-8.543
	c-0.031-0.526,0.155-1.269-0.341-1.331C559.514,33.297,559.917,32.307,559.421,30.697 M538.341,56.389h0.65v-0.65h-0.65V56.389z"/>
<path fill-rule="evenodd" clip-rule="evenodd" fill="#7ECEF4" d="M577.517,94.909c-0.093-0.556,0.309-0.588,0.34-0.99
	c-0.495,0-1.485-1.672-1.331-0.341c-0.836-1.021-0.867-2.847-2.631-2.971c0.247-0.991,0.247-0.62,0-1.61
	c-0.247,0.155-0.526,0.309-0.99,0.309c0.124-0.556-0.248-0.619-0.65-0.65c-0.124-0.711,0.217-0.866,0.341-1.331
	c-0.341-0.897-0.897,0.496-1.331-0.309c0.093-0.372,0.65-0.247,0.65-0.65c-0.124-0.651-0.929,0.526-0.65-1.022
	c-0.247,0.186-0.526,0.341-0.99,0.341c0.867-2.538-3.188-2.569-1.3-3.282c-1.486-0.185-1.053-2.291-2.663-2.321
	c0.929-1.517-2.538-1.052-1.64-3.622c-0.309,0.216-0.341,0.774-0.99,0.681c0.712-2.229-1.857-2.91-1.3-5.944
	c0.31,0,0.248,0.402,0.31,0.681c0.65-0.031,0.433-0.897,1.331-0.681c-0.247,1.548,1.672,0.712,2.29,0.991
	c0.093,0.061-0.062,0.588,0,0.65c0.217,0.216,1.083-0.155,1.331,0c0.154,0.093,0.154,0.836,0.34,0.99
	c0.248,0.186,2.167-0.124,1.95,1.022c0.526-0.031,1.269,0.124,1.331-0.341c0.588,0.248,0.031,0.589,0,0.96
	c0.557,0.031,0.867-0.248,0.99-0.619c0.65,0.866,2.043,1.021,2.291,2.291c0.96-0.805,1.765,0.216,2.631-0.341
	c0.341,2.291,4.086,1.176,4.302,3.622c0.774,0.124,0.712-0.589,1.641-0.34c0.402,0.433,0.124,0.526,0,1.021
	c1.702-0.31,2.352,0.464,2.971,1.3c0.557,0.031,0.836-0.247,0.99-0.681c-0.309,0.898,1.331,2.012,2.291,1.331
	c0.557,0.217,0.217,0.775-0.31,0.681c1.92,0.836,2.631,1.425,4.582,2.632c-0.712,1.795,0.093,4.023-1.3,4.581
	c-0.062,0.929,1.115,0.681,0.65,2.012c-0.527,0.062-0.589-0.34-0.991-0.34c0.062,0.588,0.217,1.084,0.65,1.3
	c-0.062,0.681-1.455,0.093-1.641,0.65c0.495,2.012-0.557,3.003-1.64,3.622c0.433,2.074-1.61,3.962-3.962,4.272
	c-0.062-1.021-2.724-1.176-1.64-2.291c-0.99-0.712-2.693-1.393-2.972-1.981c-0.031-0.062-1.702-2.352-1.64-2.291
	c-0.186-0.155-0.836,0.155-0.99,0C577.734,95.436,578.724,94.538,577.517,94.909"/>
<path fill-rule="evenodd" clip-rule="evenodd" fill="#BB797E" d="M451.749,3.708c0.155,0.031,1.826-0.247,2.291-0.34
	c0.495,0.155-0.031,0.31,0,0.681c0.124,0.774,0.898-0.371,0.99-0.681c1.764,1.331,3.003-0.464,4.612,0.681
	c-1.022,1.115,0.495,0.557,0.65,0.96c0.155,0.434-0.99,2.228,0.681,1.331c0.588,1.888-2.105,2.878-0.341,4.303
	c-1.114,0.804-0.557,1.547-0.65,2.631c0-0.062-0.557-0.371-0.65-0.341c0.495,1.425-0.495,2.972,0,4.272
	c-0.681,0.031-0.433,0.898-1.331,0.65c0.681,0.775,0.341,2.538-0.65,2.632c1.919,0.557-1.362,1.919,0.309,1.981
	c-0.278,0.96-0.495,0.371-1.3,0.34c0,0.31,0.402,0.247,0.65,0.341c-1.517,1.888-1.269,5.045-1.981,6.563
	c-0.062,0.185-0.557,0-0.65,0.34c-0.062,0.216,0.619,0.371,0.65,0.31c-0.186,0.433-1.021,0.309-1.331,0.681
	c-0.341,0.433-0.433,2.415-0.96,3.281c-0.619,1.021-1.672,0.65-0.99,1.981h-0.991c1.084,1.238-1.641,1.393-0.65,2.291
	c-0.279,0.96-0.495,0.402-1.331,0.34c0.278,0.248,0.186,0.898,0.65,0.991c-0.495,0.557-0.526,1.672-1.981,1.331
	c0.155,0.495,1.053,0.279,0.681,1.3c-1.393-1.486-0.681,2.353-1.981,0.991c0.371,2.878-2.167,1.084-1.331,3.312
	c-0.867,0.031-0.65-0.557-1.3,0c-0.062,0.557,0.402,0.681,0.341,1.3c-1.919,0.65-2.074,3.188-4.612,4.613
	c0,0.309,0.402,0.248,0.65,0.34c-2.384,0.991-2.353,4.395-5.603,5.263c0.557,1.981-1.517,1.331-1.3,2.941
	c-0.557,0.093-0.588-0.279-0.99-0.31c0.371,1.021,0.186,1.176-0.681,0.65c-0.031,0.589,0.433,0.712,0.341,1.3
	c-1.053-0.185-1.022,0.651-1.641,0c-0.65,0.062,0.31,0.589,0,0.991c-0.062,0.093-0.495-0.434-0.681-0.31
	c-0.186,0.124-0.743,1.796-1.64,2.941c-1.888-1.455-1.95,2.136-3.281,2.972c-0.681,0.155-0.867-0.216-1.3-0.34
	c-0.867,0.061-0.681,1.114-0.681,2.012c-0.805,0.371-1.609,0.804-2.631,0.959c1.61,1.052-1.269,2.693-2.291,1.981
	c-0.031,0.93,0.526,0.681,0,1.301c-0.341,0-0.279-0.371-0.341-0.62c-0.619,0.65-0.371,1.703-1.641,0.96
	c-0.031,0.62,0.402,0.712,0.31,1.331c-0.371-0.061-0.588,0.062-0.65,0.341c-0.588-0.248-0.062-0.62,0-0.991
	c-0.898,0.186-1.3,0.897-1.331,1.95c-1.548,0.743-3.064,0.31-2.631,2.012c-0.65-0.124-1.021,0.031-0.96,0.65
	c-1.207-1.516-1.795,0.867-2.322,1.951c-1.579-1.238-1.641,1.733-2.972,0.681c-0.433,0.093-0.279,0.805-0.31,1.3
	c-1.393-0.96-1.826,1.362-2.631,1.981c-1.269-0.124-1.176-0.34-1.981,0.31c0.217,0.371,0.743,0.371,0.65,0.99
	c-1.857-0.093-3.312,0.651-4.612,2.322c-2.352-0.897-2.352,1.61-4.272,1.981c-0.124-0.681,0.217-0.866,0.341-1.331
	c-0.743-0.248-1.362,1.207-0.681,1.331c-0.929,0.279-1.981,1.672-2.631,0.341c-0.836,0.061,0.464,0.526,0,1.3
	c-0.588,0.124-1.114,0.526-1.641,0c-0.96,0.31-0.371,0.495-0.34,1.331c-1.796,0.866-3.25,0.216-3.931,1.95
	c-0.96,0.094-1.021-0.711-1.981-0.65c0.247,0.712-1.548,2.074-2.972,1.981c-0.65-0.061-0.619,0.867-0.99,0.96
	c-1.579,0.619-3.405,0.743-4.922,1.021c-0.031,0.898,0.526,0.651,0,1.332c-0.402-0.402-1.176-0.402-1.981-0.341
	c-0.433,0.31-0.65,0.867-0.991,1.3c-2.229-0.247-4.798,1.796-7.243,0.991c-0.898,0.216-0.836,1.362-1.981,1.3
	c0.867-1.331-1.114,0.124-2.291-0.31c0.186-3.188,3.746-3.064,5.912-4.272c-0.898-2.166,2.26,0.031,1.981-2.321
	c0.619,0.031,1.114,0.216,1.3,0.681c0.867-0.341,1.269-2.198,2.321-1.331c0.712,0.061,0.155-1.176,0.341-1.641
	c0.774-1.115,2.043-0.155,1.641,0c1.176-0.402,1.455-2.6,1.641-0.65c0.031-1.981,2.476-1.486,2.631-3.312
	c2.476,0.866,1.764-2.105,5.262-1.951c-1.888-1.052,1.424-3.002,1.981-1.671c0-0.526,0.526-0.805,0.65-1.95
	c1.269,0.929,1.3-1.177,2.322-0.341c-0.526-2.167,1.764-1.517,1.981-2.972c1.486,1.177,1.053-1.392,2.291-0.34
	c-0.774-1.765,1.083-1.393,1.3-2.941c0.619,0.247,0.062,0.589,0,0.99c1.145,0,0.99-1.238,1.021-2.321
	c1.021,0.216,1.703-1.084,1.95-1.3c0.248-0.217,0.774-0.124,0.991-0.341c0.186-0.155-0.124-0.805,0-0.99
	c1.145-1.27,4.179-1.548,2.972-2.972c0.929-0.279,0.836,0.464,1.64,0.34c0.248-1.021-0.898-0.65-0.65-1.64
	c1.083,1.176,1.145-1.61,2.322-0.341c0.031-0.588-0.433-0.681-0.34-1.331c0.278,0.155,0.588,0.31,0.65,0.681
	c0.062-2.136,2.817-3.312,2.631-4.612c0.65,0.681,1.764-1.733,2.291-1.982c0.186-0.061,0.495,0.496,0.681,0.341
	c0.31-0.279-0.062-1.455,0.99-0.991c0.186-1.424,0.093-1.857,0.31-2.631c0.371,1.455,1.795-0.526,0.99-1.021
	c0.402-0.434,1.145-0.589,1.981-0.62c-1.207-0.247,0.929-3.126,2.291-3.312c-0.836-1.424,1.083-2.569,1.981-3.281
	c-1.238-0.31,0.248-0.402-0.31-1.672c0.248,0.062,0.31,0.341,0.65,0.341c-0.464-0.929,2.105-2.446,1.641-3.282
	c0.124-0.433,0.836-0.279,1.331-0.34c0.217-1.486,0.031-2.91,1.981-3.312c-0.99-1.207,2.043-2.632,1.3-3.591
	c0.062-0.402,0.619-0.279,0.991-0.341c-0.124-0.681,0.217-0.866,0.34-1.331c-0.124-0.434-0.588-0.031-0.65,0.341
	c-0.743-1.053,2.136-1.207,0.96-2.972c0.557-0.062,0.588,0.31,0.99,0.34c0.991-0.309-0.743-0.464-0.34-1.331
	c0.495-0.155,0.836-0.464,1.331-0.619c-1.393-1.857,1.609-3.653,1.981-6.253c0.031-0.247-0.464-0.557-0.34-1.022
	c0.155-0.464,0.898-0.588,0.99-0.99c0.062-0.216-0.495-0.526-0.31-0.96c0.031-0.124,0.898-0.186,0.96-0.34
	c0.341-0.836-0.247-3.034,1.331-2.972c-0.898-2.693,1.486-4.272,0.991-6.903c0.588-0.031,0.712,0.402,1.331,0.34
	c0.279-1.084-1.084-0.464-1.331-1.021c1.021-0.743,0.341-2.105,0.65-2.941c0.093-0.247,0.898-0.434,0.991-0.681
	c0.278-0.65-0.557-2.228,0.99-1.641c-1.486-1.238,0.929-3.777,0.341-4.922c1.393-0.216,5.2-1.857,6.903-0.65
	c0.619-0.062,0.217-1.115,0.65-1.331c1.424,1.579,3.498,0.434,5.262,0.34c0.712-0.061,0.712,0.62,1.022,0.65
	c1.176,0.155,1.486-1.392,2.631-0.99C450.697,3.832,452.678,2.779,451.749,3.708"/>
<path fill-rule="evenodd" clip-rule="evenodd" fill="#7ECEF4" d="M394.118,24.445c-2.105-0.929-4.117,0.465-6.253,0.651
	c0.464-0.031-1.021-0.929-1.641,0c0.093-0.341,0.65-0.186,0.65-0.651c-1.981,1.548-5.881-0.619-8.543,1.672
	c-0.093-0.557,0.31-0.589,0.31-1.021c-2.043-0.124-3.003,1.887-4.612,0.34c-0.093,0.557,0.278,0.619,0.681,0.681
	c-1.052,0.774-3.064,0.062-3.312,0c-1.053-0.34-1.455-0.186-2.291-1.021c0-0.651,0.898-0.402,0.65-1.301
	c-0.062-0.619-1.114-0.185-1.331-0.65c0.093-2.971-0.495-3.312-0.65-5.293c1.733,0.124,0.371-0.805,0.991-1.641
	c0.929,0.279,0.836-0.464,1.64-0.309c-0.309,1.3,2.105-0.434,2.631,0.65c0.093-0.991,1.827-0.186,0.991-0.65
	c1.207,0.093,2.972-0.402,3.962-0.341v0.65c0.805,0.031,1.733-1.362,2.322,0c0.557-1.362,1.764-0.309,2.631-1.64
	c0.743,0.959,1.764,0.154,2.94,0c0.402,0.061,0.279,0.588,0.341,0.99c0.774-0.434,1.517-1.021,1.981,0
	c0.619-0.124,0.247-1.269,1.331-0.99c0.062,1.424,1.795-0.805,2.291,0.65c1.269-1.425,3.126-0.31,4.612-1.331
	c0.743,2.352,4.705-1.641,6.593,0.34c0.464-1.176,1.764,0.341,1.95-1.3c3.838,2.228,7.088-2.012,9.874,0.65
	c-0.371-1.857,2.476-0.434,3.312-1.981c0.433,0.124,0.279,0.836,0.341,1.331c1.795-1.27,4.303-1.393,6.222-0.991
	c-0.836,1.207-0.031,1.981-0.96,2.941c0,0.341,0.402,0.279,0.65,0.341c0.279,0.65-0.774,1.021-0.99,1.671
	c-0.248,0.65,0.217,2.538,0,2.972c-0.929,1.795-1.703,1.702-3.962,0.96c-0.588,0.093-0.743,0.556-0.65,1.331
	c-3.157-1.765-5.169,0.34-7.243-0.681c0.124,2.012-3.374-0.898-4.612,1.671c-1.548-1.114-3.436-0.061-4.953,0v-0.65
	c-0.743,0-2.167,1.579-2.631,0c-0.96,0.186,0.341,0.681,0,1.3c-0.402-0.03-0.495-0.681-0.96-0.65c-0.526,0-0.681,0.65-0.681,0.65
	c-0.341,0-0.619-0.805-0.99-0.65c-0.712,0.279-0.124,0.898-0.991,0.96c-0.526-0.619,0.031-0.402,0-1.3
	c-0.898-0.434-0.96,0.96-0.65,0.65C394.799,23.764,393.778,23.052,394.118,24.445"/>
<path fill-rule="evenodd" clip-rule="evenodd" fill="#7ECEF4" d="M457.012,104.793c0.217,0.341,0.743,0.341,0.65,0.96h-1.641v-0.96
	c-2.569-0.185-3.405-2.074-4.272-3.962h0.65c-0.093-0.464-0.805-0.279-1.3-0.34c0.464-1.765-1.764-3.127-3.312-3.963
	c-0.186-2.755-1.702-2.538-2.972-5.262c-0.867,0-0.65,0.557-1.3,0c0.65-1.3-1.083-0.774-0.681-3.282
	c-0.588-0.03-0.65,0.434-1.3,0.341c1.021-0.897-0.867-1.238,0-1.981h-1.641c0.371-1.486-0.464-1.733-1.331-1.981
	c1.021-1.393-1.176-0.589-0.31-1.641c-1.888-0.526-1.672-3.157-3.622-3.622c0.124-0.31,0.279-0.589,0.65-0.681
	c-1.888-1.392-3.126-2.755-2.972-5.572c1.145,0.155,3.188,0.061,4.303,0.65c0.805,0.434,1.61,0.216,1.3,0.991
	c1.672-0.96,1.486,1.485,3.312,1.3c0.495-0.093-0.31-0.557,0.31-0.65c2.322,0.371,5.076,3.343,7.893,3.002
	c1.176,1.207,3.467,0.867,3.312,1.951c1.981-0.434,2.074,0.99,3.962,0.681c0.619,2.105,2.631,1.238,3.591,3.281
	c0.681-1.238,0.619,0.186,1.981,0c-0.248,1.021-0.279,0.681,0.341,1.3c0.34-0.216,0.34-0.743,0.99-0.65
	c0.371,0.465,0.371,0.836,0,1.331c2.383-0.371,3.095,1.362,5.912,1.3c-0.247,2.415,0.464,0.805,1.331,1.331
	c-0.217,0.805-1.672,2.012-0.65,2.941c-0.247,0.589-0.619,0.062-0.99,0c-0.124,0.681,0.062,1.022,0.65,0.991
	c-1.207,0.619-2.445,1.455-1.981,3.312c-0.805-0.031-1.022-0.65-1.641,0c0.96,1.579-0.619,2.043-0.99,3.281
	c-0.99-0.216,0.309-0.711,0-1.331c-0.712,0.062-0.712,0.867-0.65,1.641c-0.279-0.061-0.341-0.31-0.65-0.31
	c-0.867,0.062,0.433,0.557,0,1.301c-1.053-0.155-0.898,1.145-1.672,0.34c-0.898,0.31,1.021,0.743,0,1.331
	c-0.743,0.186-0.464-0.619-0.991-0.65C460.633,103.277,458.869,105.227,457.012,104.793"/>
<path fill-rule="evenodd" clip-rule="evenodd" fill="#BB797E" d="M219.606,30.038c0.248-0.65,0.526,0.372,0,0.341
	c2.507,0.836,3.807-1.176,5.943,0c-0.217-0.341-0.774-0.341-0.681-0.991c0.836,0.496,2.569,0.062,3.312,0.65
	c-1.362-1.331,0.217-1.671,0.991-2.631c-0.155-0.495-0.433,0.124-0.991,0c1.424-1.021,0.124-2.755,1.641-3.622
	c0.805,0.496,2.569,0.094,3.312,0.65c0.464-0.154-0.155-0.401,0-0.99c0.371,0.061,0.557-0.062,0.65-0.31
	c1.424,0.929,2.724,0.031,3.931,1.3c0.929-0.309-0.464-0.866,0.34-1.3c0.464,0.279,1.022,0.496,0.991,1.3
	c1.331-1.3,3.714-1.052,5.262-0.309c0.402-0.062,0.279-0.62,0.341-0.991c1.95,0.805,2.724,1.207,4.612,0v0.991
	c2.167-0.836,4.581-0.589,5.262,0.309c4.736-1.269,6.779-0.185,10.865-0.65c0.155,1.052,1.269,1.177,1.3,2.322
	c-1.393,0.216-0.217,0.929-1.3,1.3c1.579,0.65-0.093,0.526,0.65,1.981c-0.836-0.866-0.65,0.434-0.65,1.301
	c-0.681-0.651-0.65,0.154-1.331,0.34c0.371,0.897,0.65,2.26-0.99,1.981c0.526,1.052,1.331-0.061,0.681,1.641
	c-0.557,0.124-0.619-0.247-0.681-0.65c-0.588,0.99-1.022,1.486-0.65,2.972c-1.3-0.434-0.805,1.206-1.641,0.309
	c-0.743,0.031,0.433,0.836,0,1.641c-0.712-0.681-0.712,0.093-0.65,0.99c-0.836-0.03-1.053-0.619-1.331,0.341
	c0.929-0.062-0.65,2.878-1.981,2.972c1.114,1.084-2.538,1.455-1.3,2.631c-0.867,0.434-1.145,1.517-2.321,1.641
	c0.929,2.074-3.096,1.3-2.631,3.931c-3.219-0.155-3.931,4.798-7.584,5.294c-0.031,0.371,0.093,0.588,0.341,0.65
	c-1.053,0.34-3.684,0.866-2.972,2.321c-0.619,0.65-1.424,0.65-2.291,0.31c0.217,0.34,0.743,0.34,0.65,0.99
	c-0.929-0.711-1.053,0.805-1.3,0.991c-0.402,0.31-1.053-0.186-1.331,0c-1.486,0.929-2.012,2.631-3.622,2.631
	c0.031,0-0.031-0.619,0-0.65c-1.238,0.65-2.012,1.548-2.291,2.632c-1.579-0.341-2.415,1.733-3.622,0.65
	c-0.402,0.061-0.279,0.619-0.341,0.99c-1.207-1.084-1.517,1.517-2.631,0.341c-2.445,1.919-5.85,0.929-7.584-0.341
	c0.279-0.309,1.579-1.238,0.681-1.64c0.278-1.084,0.588-0.155,1.64-0.341c-0.464-0.186-0.062-1.269-0.65-1.3
	c0.898-0.124,0.774-0.62,1.95-0.991c-1.61-0.99,1.579-1.052,0.99-2.972c1.857-0.495,2.074-1.361,2.972-3.962
	c0.557-0.124,0.619,0.279,0.65,0.681c1.176-0.619-0.588-0.929-0.309-1.641c0.836,0.867,0.34-0.774,1.64-0.34
	c-0.588-1.393,1.331-2.755,1.95-3.962c0-0.31-0.371-0.248-0.65-0.341c0.557-0.65,0.898-1.486,1.981-1.61
	c-0.186-0.309-0.774-1.207,0.341-1.021c-0.433-0.402-0.991-0.619-0.341-1.3c0.341,0,0.248,0.402,0.341,0.65
	c0.341-0.65,0.96-2.632,0-2.632c2.352-0.835-0.371-3.497,1.981-4.581c0.031-0.341-1.424-0.681-0.34-1.022
	c-2.167-1.206-2.693-2.383-4.922-0.99c-0.588-0.248-0.062-0.557,0-0.96c-0.743-0.279-1.176,1.641-1.331,0
	c-0.96-0.093-1.021,0.712-1.981,0.619c0.062-0.216,0.31-0.278,0.31-0.619c-3.591,1.146-7.088-0.588-10.184,1.641
	c-0.093-0.526,0.31-0.589,0.341-1.022c-1.331,0.372-2.538-0.154-3.962,0c-0.433,0.062-0.093,0.589-0.341,0.681
	c-0.495,0.186-2.631,0.31-3.281,0.341c-0.433,0.031-0.124-0.62-0.341-0.681c-2.724-0.495-6.408,2.662-6.593,0
	c-0.557,0.31-0.588,1.145-0.96,1.671c-0.433-0.154-0.681-0.433-0.681-0.99c-0.774,0.866-1.672,0.464-3.281,0.99
	c-0.248-0.309-0.371-0.774-0.341-1.331c-0.433,0.124-0.247,0.805-0.309,1.331c-0.743,0.217-1.053-0.929-0.991,0.341
	c-0.774-0.434-1.702-1.146-2.321,0c-0.743,0.061-0.341-0.991-0.99-1.022c-0.279,0.248-0.495,0.62-0.65,1.022
	c-1.238-1.052-3.281,0.619-3.931-0.681c-0.341,0-0.279,0.402-0.341,0.681c-0.495-0.186-0.836-0.495-1.331-0.681
	c-2.043,1.888-5.015-0.031-6.593,1.641c-0.96-1.115-1.702,0.433-2.941-0.96c-0.464,0.093-0.031,0.557,0.31,0.619
	c0.217,0.774-1.95-0.929-1.641,0.681c-0.402-0.65,0.217-1.269-1.641-0.99c0.186,0.247,0.341,0.526,0.341,0.99
	c-0.929-0.619-3.622-1.115-4.272,0.31c-1.579-0.805-3.281-0.712-4.953,0.34c-0.341-0.897-1.641,0.155-3.962-0.65
	c1.424,0.991-0.433,0.991-1.3,0.31c-0.495,0.155,0.124,0.434,0,1.021c-0.31-0.371-1.238-0.124-0.99-1.021
	c-0.805-0.247-1.919,1.579-1.981,0c-0.371,0.061-0.279,0.619-0.31,1.021c-0.96,0.031-0.836-1.3-1.331,0
	c-0.402-1.517-1.238,0.836-1.331-0.681c-0.464,0.186-0.805,0.526-0.99,0.991c-0.371-0.062-0.279-0.589-0.31-0.991
	c-1.021-0.247-0.433,1.146-1.672,0.681c0.186-1.269,0.557-0.866-0.65-0.681c0.155-1.362-0.31-2.105-0.65-2.972
	c0.155-0.804,0.712,0.557,0.65,1.022c0.712,0.031,0.155-1.207,0.341-1.672c-0.217-0.433-0.712-0.619-1.331-0.681
	c0.465-1.733,0.31-1.671,0-3.931c1.114-0.216,0.557,0.681,0.341,0.991c0.588,0.401,0.557-0.651,0.65-0.651
	c0.619-0.093,1.517,0.434,1.981,0.31c0.65-0.124,0.279-0.742,0.65-0.96c0.774-0.557,1.641,0.341,2.321-0.34
	c0.991,0.216-0.309,0.681,0,1.3c1.022,0.279,2.074-2.197,2.631-0.31c0.464-0.588,0.557-0.805,1.331-0.99
	c0.619-0.155,0.619,0.65,0.619,0.65c0.619-0.093,1.052-0.929,1.672-0.991c1.052-0.124,2.631,1.733,2.941,0
	c1.424,1.022,3.683,0.062,4.953,0.681c0-1.671,3.25,0.094,4.953-1.331v0.991c1.795,0.093,2.786-1.796,4.272-0.341
	c0.96-0.279,0.371-0.464,0.34-1.331c0.279,0.248,0.495,0.62,0.65,0.991c2.972-0.712,6.996-0.991,7.893-0.31
	c-0.464-0.526,5.603-1.671,6.593,0c-0.341-1.795,1.919-0.061,2.291-1.3c1.3,0.619,2.105,0.371,3.622,0.31c0,0,0.031,0.65,0,0.65
	c1.672-0.217,3.715-2.291,5.943-0.341c0.402,0.124,1.114-0.929,0.341-0.959c0.093-1.084,1.548,0.99,1.3-0.681
	c0.433,0.124,0.526,0.588,0.99,0.681c1.424-1.022,5.634,0,8.234-0.341c1.176-0.155,1.114-0.65,2.631,0
	c0.495-0.155-0.124-0.402,0-0.991C216.418,30.843,218.244,30.75,219.606,30.038"/>
<path fill-rule="evenodd" clip-rule="evenodd" fill="#7ECEF4" d="M186.674,65.915c0.495-0.124-0.093-0.402,0-0.96
	c0.217,0.093,1.269,0.805,1.331,0c0.867,0.96,1.795,1.733,2.631,1.3c1.393,2.012,4.179,1.27,4.953,4.303
	c1.95-0.805,2.105,2.291,3.931,2.631c-1.145,1.3,1.919,2.601,2.321,2.291c0.526-0.216,0.526,1.579,0,1.331
	c1.796,1.362,3.869,2.507,4.272,5.263c0.805,0.154-0.186-1.486,0.991-0.991c0.186,1.145,0.093,2.352,1.331,1.641
	c0.433,0.216,0.031,1.269,0.65,1.331c-0.96,0.711-0.99,2.291-2.321,2.631v-0.991c-0.929,0.279-0.186,2.198-1.641,1.951
	c0.279,0.279,0.186,0.929,0.681,1.021c-1.145,1.796-3.188,3.622-4.612,5.572c-0.526,0.712-0.464,1.579-1.672,2.012
	c-0.124,0.031-1.857,0-2.291,0c-2.074,0-3.529-2.291-6.593-2.012c0.31-1.516-2.136-0.279-1.981-1.64
	c-0.588-0.062-0.681,0.402-1.3,0.34v-0.99c-1.733,1.455-2.26-2.477-3.962-0.991c-0.402-0.712-0.062-0.743-0.65-1.641
	c-1.548,0.341-1.857-0.588-2.321-1.331c-1.95,1.176-2.569-1.733-4.922-1.95c0.155-0.31,0.279-0.62,0.65-0.681
	c-0.402-0.991-1.238,0.495-1.641-0.341c0-0.278,0.402-0.216,0.65-0.309c-0.217-0.991-0.712,0.309-1.3,0
	c-0.681-0.681,0.124-0.65,0.31-1.3c-0.836,0.247-1.145-1.238-2.291-0.681c-0.062-0.402,0.062-0.557,0.341-0.65
	c-2.415-0.651-0.929-3.282-3.312-3.653c0.898-0.836-0.402-0.96-0.341-1.95c0.279,0.185,0.557,0.34,0.99,0.34
	c0.217-0.867-0.124-1.176-0.99-1.021c0.65-0.589,0.124-1.207,0-1.951c1.207,0.712,0.217-0.402,0.341-1.331
	c1.145-0.526,1.764-1.547,1.981-2.972c1.95-0.185,2.786-1.887,2.972-2.94c0.619,0.742,2.105-0.651,2.972,0.309
	c-1.052-1.547,1.022-0.279,0.96-1.61c0.557-0.124,0.619,0.217,0.681,0.62c0.929-0.31-0.495-0.867,0.31-1.301
	c0.681-0.124,1.052,0.062,0.99,0.681c0.402-1.084,1.084,0,1.672,0c0.65-0.03,1.486-0.711,1.95-0.681
	c0.96,0.062,0.495,0.434,0.65,0.341C185.25,64.181,185.714,65.512,186.674,65.915 M191.967,93.897
	C193.205,94.857,193.391,92.69,191.967,93.897 M214.347,90.616c-1.362,0.279-2.384,2.322-3.622,1.672
	c-0.65,0.774-0.65,2.197-0.99,3.281c-0.991-0.556-1.981,1.27-0.991,1.982c-1.486-0.743-1.362,1.64-2.631,1.331
	c1.362,1.269-1.114,1.455-0.99,2.631c0.96,0.495,2.91,1.3,1.981,2.631c2.198-0.061,2.817,2.601,4.953,1.61
	c0,0.434,0.402,0.495,0.31,0.991c0.65,0.093,0.681-0.434,0.99-0.651c0.929,0.372,0.402,1.332,1.641,0.651
	c-0.062,0.495-0.526,0.588-0.65,1.021c0.774-0.124,1.362-0.681,1.981,0c-0.217-1.702,1.207-0.186,2.631-1.021
	c0.093-0.62-0.433-0.62-0.681-0.991c1.455-0.093,0.805-0.897,2.662-1.3c-0.805-0.279,0-1.672,0.31-1.981
	c0.031,0.526-0.031,1.145,0.681,0.99c0.464-0.836-0.217-2.847,0.96-2.972c-0.743-1.485,0.371-2.631-0.309-5.262
	c-1.3,0.434-0.991-0.774-0.991-1.641c-2.352,0.557-1.238-2.074-3.312-0.99c1.269-1.92-2.26-1.27-2.631-3.282h-1.95
	C213.295,90.338,214.223,90.09,214.347,90.616"/>
<path fill="#7ECEF4" d="M22.334,116.132c-0.124-0.124-0.248-0.247-0.341-0.433c-0.805-1.146-1.672-2.136-2.662-2.972
	c-0.465-0.434-0.991-0.836-1.579-1.238c-0.619-0.433-1.269-0.835-2.012-1.207c-0.65,0.712-1.703,1.827-3.064,3.251
	c0.402,0.31,1.703,1.269,3.962,2.972c1.3,0.929,2.105,1.547,2.445,1.826c0.371,0.34,0.588,0.743,0.681,1.145
	c0.062,0.465-0.062,0.867-0.371,1.207c-0.588,0.681-1.331,0.712-2.229,0.094c-0.526-0.402-1.3-1.022-2.383-1.827
	c-0.96-0.711-2.415-1.795-4.334-3.25c-0.681,0.711-1.207,1.237-1.61,1.702c-0.96,1.084-1.455,1.796-1.424,2.074
	c0,0.125,0.341,0.526,1.083,1.177c0.371,0.309,0.96,0.835,1.764,1.516c0.805,0.681,1.393,1.176,1.796,1.548
	c0.124,0.093,0.309,0.247,0.588,0.433c0.279,0.186,0.495,0.341,0.619,0.434c0.341,0.31,0.588,0.681,0.681,1.115
	c0.093,0.464,0,0.897-0.371,1.269c-0.526,0.62-1.238,0.681-2.105,0.124c-0.712-0.402-2.043-1.516-4.024-3.281
	c-2.074-1.826-3.157-3.219-3.374-4.303c-0.186-1.145,0.526-2.631,2.136-4.457c0.681-0.775,1.733-1.827,3.219-3.251
	c1.455-1.424,2.538-2.476,3.188-3.219c0.186-0.216,0.402-0.557,0.681-0.96c0.279-0.464,0.526-0.774,0.681-0.99
	c0.774-0.836,1.579-0.898,2.476-0.124c0.247,0.247,0.464,0.556,0.557,0.897c0.867,0.464,1.672,0.99,2.415,1.486
	c0.712,0.495,1.393,0.99,1.981,1.486c1.579,1.424,2.693,2.692,3.343,3.869c0.402,0.711,0.371,1.331-0.093,1.857
	c-0.248,0.309-0.588,0.464-1.021,0.495C23.138,116.628,22.736,116.473,22.334,116.132"/>
<path fill="#7ECEF4" d="M26.113,137.199c-0.867-0.556-1.114-1.237-0.712-2.074c0.341-0.712,0.65-1.424,0.99-2.167
	c0.341-0.774,0.712-1.486,1.114-2.074c0.093-0.155,0.309-0.434,0.557-0.805c0.31-0.402,0.495-0.681,0.619-0.836
	c0-0.061,0.093-0.155,0.217-0.34c0.124-0.155,0.248-0.31,0.31-0.402c0.34-0.557,0.371-0.898,0.093-1.052
	c-0.619-0.402-1.424-0.434-2.476-0.124c-1.021,0.309-2.043,0.897-3.064,1.764c-0.155,0.217-0.371,0.496-0.65,0.836
	c-0.217,0.216-0.433,0.495-0.588,0.805c-0.124,0.186-0.31,0.434-0.619,0.742c-0.279,0.372-0.464,0.62-0.588,0.805
	c-0.247,0.372-0.588,0.589-1.021,0.651c-0.433,0.061-0.867-0.062-1.269-0.31c-0.433-0.279-0.712-0.62-0.836-1.052
	c-0.124-0.402-0.062-0.805,0.186-1.176c0.124-0.186,0.278-0.434,0.464-0.867c0.186-0.402,0.34-0.681,0.464-0.836
	c0.402-0.619,1.021-1.455,1.826-2.476c0.805-1.084,1.424-1.888,1.795-2.538c0.155-0.155,0.31-0.465,0.557-0.867
	c0.217-0.433,0.371-0.681,0.495-0.866c0.247-0.371,0.588-0.589,1.021-0.65c0.433-0.062,0.867,0.061,1.269,0.34
	c0.929,0.62,1.114,1.425,0.526,2.446l-0.062,0.124c1.641-0.279,3.003-0.062,4.148,0.712c1.331,0.835,1.95,1.95,1.795,3.281
	c-0.093,0.867-0.588,1.981-1.424,3.312l-0.464,0.712c-0.186,0.279-0.309,0.464-0.402,0.588c-0.309,0.496-0.65,1.177-1.021,2.074
	c-0.341,0.866-0.681,1.579-0.99,2.043c-0.217,0.34-0.557,0.556-0.991,0.619C26.949,137.601,26.547,137.477,26.113,137.199"/>
<path fill="#7ECEF4" d="M37.464,142.972c-1.672-0.774-2.879-1.887-3.622-3.25c-0.774-1.455-0.836-2.91-0.155-4.395
	c0.65-1.362,1.857-2.538,3.591-3.467c1.981-1.146,3.776-1.27,5.386-0.557c0.805,0.402,1.64,0.991,2.538,1.888
	c1.052,1.052,1.424,1.888,1.145,2.538c-0.155,0.309-0.433,0.557-0.805,0.681c-0.371,0.155-0.805,0.155-1.238-0.062
	c-0.34-0.155-0.65-0.464-0.96-1.021c-0.31-0.557-0.929-0.991-1.857-1.455c-0.588-0.279-1.455-0.031-2.631,0.711
	c-1.114,0.681-1.857,1.362-2.167,2.106c-0.341,0.711-0.31,1.424,0.062,2.105c0.371,0.65,0.99,1.145,1.919,1.579
	c0.495,0.247,1.207,0.371,2.105,0.371c0.898-0.031,1.455,0.031,1.641,0.124c0.402,0.186,0.712,0.465,0.867,0.867
	c0.186,0.434,0.186,0.774,0.031,1.114c-0.247,0.557-1.145,0.775-2.693,0.712C39.26,143.499,38.176,143.313,37.464,142.972"/>
<path fill="#7ECEF4" d="M52.375,148.621c-1.486-0.434-2.631-1.3-3.405-2.569c-0.836-1.362-1.052-2.91-0.588-4.55
	c0.433-1.641,1.362-2.91,2.786-3.807c1.672-1.084,3.591-1.301,5.789-0.65c1.579,0.526,2.693,1.485,3.281,2.941
	c0.526,1.3,0.526,2.723,0.062,4.272c-0.526,1.64-1.486,2.91-2.848,3.807C55.935,149.024,54.232,149.24,52.375,148.621
	 M55.904,139.861c-0.991-0.309-1.888-0.154-2.724,0.496c-0.681,0.526-1.176,1.269-1.455,2.167c-0.279,0.866-0.217,1.609,0.186,2.228
	c0.31,0.526,0.774,0.866,1.331,1.021c0.712,0.217,1.362,0.217,2.012-0.061c0.743-0.31,1.269-0.898,1.579-1.703
	C57.668,141.719,57.359,140.325,55.904,139.861"/>
<path fill="#7ECEF4" d="M75.613,146.721c-0.093,0.496-0.217,1.238-0.402,2.229c-0.217,1.021-0.341,1.765-0.433,2.291
	c-0.031,0.124-0.062,0.371-0.093,0.681c-0.031,0.309-0.062,0.556-0.093,0.68c-0.062,0.434-0.31,0.743-0.681,0.96
	c-0.402,0.217-0.836,0.247-1.331,0.186c-0.681-0.155-1.114-0.526-1.331-1.146c-1.114,0.124-2.229,0.094-3.374-0.093
	c-1.176-0.216-2.105-0.65-2.817-1.269c-0.805-0.651-1.176-1.486-1.176-2.508c0.031-1.919,0.186-3.591,0.464-5.045
	c0.186-0.96,0.526-2.012,0.991-3.188c0.34-0.836,0.96-1.115,1.919-0.929c0.495,0.062,0.867,0.279,1.145,0.619
	c0.278,0.341,0.402,0.712,0.309,1.115c-0.062,0.341-0.217,0.836-0.464,1.486c-0.247,0.712-0.402,1.176-0.464,1.547
	c-0.217,1.052-0.371,1.951-0.433,2.756c-0.062,0.774-0.093,1.455-0.031,1.981c0.217,0.124,0.402,0.247,0.557,0.31
	c0.217,0.093,0.402,0.154,0.588,0.185c0.898,0.186,1.919,0.247,3.064,0.217c0.124-0.557,0.217-1.207,0.371-1.951
	c0.155-0.866,0.248-1.516,0.341-1.857c0.278-1.517,0.619-2.817,0.99-3.9c0.279-0.866,0.929-1.176,1.919-1.021
	c0.495,0.093,0.898,0.31,1.176,0.681c0.279,0.34,0.402,0.681,0.279,1.114C75.891,145.638,75.581,146.938,75.613,146.721"/>
<path fill="#7ECEF4" d="M90.771,146.782c-0.186,1.146-0.836,1.672-1.919,1.548c-1.052-0.093-1.517-0.65-1.424-1.61l0.062-1.145
	c-1.919,0.061-3.343,0.774-4.303,2.166l-0.557,5.696c-0.062,0.433-0.248,0.742-0.619,0.99c-0.341,0.247-0.774,0.371-1.269,0.31
	c-0.526-0.062-0.929-0.247-1.145-0.589c-0.248-0.279-0.371-0.65-0.31-1.084l0.743-7.366c0.031-0.217,0.062-0.589,0.155-1.022
	c0.062-0.464,0.093-0.835,0.124-1.084c0.031-0.371,0.217-0.743,0.526-0.99c0.31-0.247,0.712-0.341,1.238-0.31
	c0.929,0.093,1.424,0.589,1.517,1.455c1.579-0.836,3.281-1.176,5.077-0.96c1.671,0.155,2.414,1.238,2.198,3.251
	C90.802,146.411,90.802,146.658,90.771,146.782"/>
<path fill="#7ECEF4" d="M105.121,156.152c-0.371-0.03-0.96-0.371-1.795-1.052c-0.774,0.31-1.486,0.496-2.074,0.651
	c-0.588,0.185-1.083,0.247-1.486,0.216c-2.043-0.062-3.529-0.589-4.519-1.61c-0.96-0.991-1.424-2.476-1.362-4.395
	c0.031-1.826,0.836-3.374,2.384-4.613c1.517-1.237,3.343-1.826,5.417-1.764c0.774,0.03,1.703,0.279,2.755,0.681
	c1.238,0.556,1.857,1.114,1.826,1.764c0,0.279-0.124,0.496-0.31,0.681c-0.093,0.31-0.155,0.681-0.217,1.115
	c-0.062,0.464-0.124,1.021-0.124,1.61c-0.062,1.424,0.031,2.446,0.248,3.096c0,0.061,0.217,0.433,0.526,1.176
	c0.31,0.65,0.464,1.021,0.464,1.114c-0.031,0.402-0.186,0.712-0.526,0.96C105.957,156.028,105.555,156.152,105.121,156.152
	 M102.243,148.413c0-0.248,0.031-0.526,0.093-0.835c0.031-0.31,0.093-0.65,0.186-1.052c-0.155-0.062-0.278-0.124-0.433-0.155
	c-0.124-0.031-0.248-0.062-0.341-0.062c-1.114-0.03-2.136,0.31-3.003,1.115c-0.898,0.742-1.362,1.671-1.393,2.755
	c-0.031,0.991,0.155,1.765,0.526,2.291c0.402,0.495,0.991,0.774,1.796,0.805c0.526,0.031,1.021-0.061,1.486-0.186
	c0.464-0.154,0.929-0.34,1.331-0.619C102.305,150.643,102.243,149.281,102.243,148.413"/>
<path fill="#7ECEF4" d="M122.536,148.494c-0.341,1.796-0.495,3.653-0.495,5.634c-0.031,2.446-0.464,4.241-1.238,5.355
	c-1.084,1.517-3.003,2.291-5.788,2.352c-3.25,0.062-4.922-0.464-4.953-1.64c0-0.402,0.155-0.743,0.433-1.022
	c0.279-0.248,0.65-0.402,1.145-0.402c0.371-0.03,0.929,0.031,1.64,0.155c0.681,0.124,1.331,0.155,1.857,0.155
	c1.269-0.031,2.167-0.402,2.755-1.084c0.557-0.681,0.867-1.795,0.929-3.25c-0.433,0.402-0.898,0.711-1.424,0.929
	c-0.526,0.216-1.114,0.34-1.733,0.34c-1.702,0.031-3.064-0.434-4.117-1.362c-1.083-0.99-1.64-2.228-1.671-3.746
	c-0.031-2.042,0.619-3.746,1.981-5.045c1.393-1.331,3.343-2.012,5.789-2.074c0.805-0.031,1.486,0.031,2.043,0.216
	c0.588,0.155,1.053,0.402,1.424,0.743c1.052,0.093,1.609,0.65,1.641,1.671C122.753,146.946,122.691,147.627,122.536,148.494
	 M117.584,146.358c-1.424,0.031-2.507,0.496-3.281,1.332c-0.681,0.774-1.022,1.795-0.99,3.002c0.031,0.897,0.247,1.547,0.619,2.012
	c0.402,0.464,0.96,0.681,1.733,0.65c0.681,0,1.362-0.402,2.043-1.145c0.619-0.681,0.99-1.362,1.083-2.043
	c0.124-0.712,0.279-1.857,0.464-3.374c-0.309-0.155-0.588-0.247-0.867-0.34C118.11,146.389,117.862,146.358,117.584,146.358"/>
<path fill="#7ECEF4" d="M132.962,155.231c-2.012,0.093-3.653-0.217-4.984-1.022c-1.486-0.866-2.26-2.167-2.383-3.9
	c-0.093-1.887,0.34-3.528,1.393-4.922c1.145-1.547,2.755-2.352,4.86-2.507c1.486-0.093,2.693,0.062,3.684,0.434
	c1.3,0.464,1.981,1.3,2.043,2.476c0.062,0.805-0.402,1.61-1.393,2.291c-0.464,0.341-1.362,0.805-2.755,1.455l-4.117,1.951
	c0.402,0.371,0.929,0.65,1.486,0.805c0.588,0.154,1.238,0.216,1.981,0.185c1.145-0.093,2.074-0.371,2.817-0.836
	c0.681-0.371,1.238-0.588,1.641-0.619c0.867-0.061,1.331,0.31,1.362,1.052c0.062,0.836-0.588,1.61-1.95,2.229
	C135.5,154.829,134.262,155.137,132.962,155.231 M132.033,145.634c-0.774,0.031-1.424,0.31-1.95,0.805
	c-0.557,0.527-0.929,1.238-1.207,2.198c0.929-0.434,1.857-0.867,2.755-1.269c1.083-0.527,1.981-1.022,2.631-1.456
	C133.674,145.665,132.931,145.573,132.033,145.634"/>
<path fill="#7ECEF4" d="M145.034,143.758c1.145-1.424,2.291-2.166,3.405-2.29c1.3-0.124,2.291,0.247,2.972,1.084
	c0.464-0.465,0.991-0.805,1.61-1.084c0.588-0.248,1.238-0.402,1.981-0.496c1.641-0.124,2.817,0.526,3.529,1.92
	c0.124,0.279,0.402,1.3,0.805,3.002c0.341,1.207,0.805,3.219,1.424,6.036c0.093,0.402-0.062,0.774-0.371,1.115
	c-0.341,0.31-0.743,0.464-1.238,0.495c-0.96,0.093-1.579-0.279-1.826-1.145c-0.186-0.743-0.464-1.827-0.743-3.219
	c-0.309-1.548-0.526-2.631-0.681-3.282c-0.371-1.331-0.712-1.95-1.053-1.919c-0.186,0.031-0.619,0.247-1.269,0.619
	c-0.681,0.434-1.145,0.774-1.455,1.052c0.093,0.836,0.31,2.074,0.681,3.653c0.402,1.61,0.619,2.848,0.681,3.683
	c0.031,0.434-0.093,0.775-0.402,1.115c-0.278,0.31-0.681,0.495-1.176,0.526c-0.526,0.062-0.929-0.061-1.3-0.31
	c-0.34-0.247-0.526-0.619-0.588-1.021c-0.062-0.866-0.279-2.136-0.619-3.746c-0.371-1.671-0.557-2.91-0.65-3.807
	c-0.031-0.465-0.124-0.836-0.248-1.115c-0.929,0.589-1.826,1.517-2.693,2.755c-0.062,0.062-0.124,0.155-0.186,0.279
	c0.093,1.517,0.186,2.724,0.247,3.56c0.031,0.216,0.031,0.526,0.062,0.897c0,0.31,0.031,0.588,0.031,0.774
	c0.062,0.434-0.124,0.742-0.464,0.991c-0.31,0.247-0.712,0.402-1.207,0.464c-0.712,0.062-1.207-0.185-1.517-0.742
	c-0.217-0.31-0.341-0.929-0.402-1.733l-0.371-4.21c-0.062-0.371-0.124-0.929-0.186-1.64c-0.124-0.712-0.186-1.301-0.217-1.641
	c-0.062-0.681,0.031-1.3,0.217-1.857c0.279-0.712,0.712-1.084,1.3-1.146c0.495-0.03,0.898,0.094,1.3,0.402
	c0.402,0.247,0.619,0.62,0.65,1.022C145.034,142.613,145.034,142.954,145.034,143.758"/>
<path fill="#7ECEF4" d="M171.005,151.751c-2.012,0.217-3.684,0-5.046-0.711c-1.517-0.743-2.383-1.982-2.6-3.715
	c-0.217-1.887,0.124-3.559,1.084-5.014c1.052-1.61,2.631-2.538,4.705-2.817c1.455-0.155,2.693-0.093,3.683,0.217
	c1.331,0.402,2.074,1.176,2.229,2.352c0.093,0.836-0.34,1.61-1.269,2.352c-0.433,0.371-1.331,0.929-2.662,1.641l-4.024,2.197
	c0.464,0.341,0.99,0.589,1.579,0.712c0.588,0.124,1.238,0.124,1.981,0.062c1.114-0.155,2.043-0.496,2.755-0.991
	c0.65-0.434,1.176-0.712,1.609-0.742c0.867-0.124,1.331,0.216,1.424,0.959c0.124,0.867-0.526,1.641-1.826,2.384
	C173.512,151.194,172.305,151.596,171.005,151.751 M169.488,142.248c-0.774,0.094-1.393,0.402-1.919,0.93
	c-0.464,0.526-0.836,1.269-1.052,2.26c0.898-0.496,1.795-0.991,2.693-1.425c1.052-0.619,1.888-1.145,2.507-1.61
	C171.128,142.186,170.386,142.124,169.488,142.248"/>
<path fill="#7ECEF4" d="M190.648,149.593c-1.022,0.125-1.641-0.247-1.888-1.145c-0.217-0.774-0.433-1.517-0.65-2.291
	c-0.217-0.805-0.371-1.579-0.464-2.321c-0.031-0.155-0.062-0.496-0.093-0.991c-0.031-0.464-0.031-0.805-0.062-0.991
	c0-0.061-0.031-0.185-0.031-0.401c0-0.248-0.031-0.402-0.031-0.527c-0.062-0.65-0.279-0.929-0.619-0.897
	c-0.712,0.093-1.362,0.62-1.95,1.517c-0.588,0.929-0.99,2.043-1.207,3.343c0,0.247,0,0.588,0,1.021c0,0.371,0.031,0.681,0.062,1.021
	c0.031,0.217,0.031,0.557,0.031,0.96c0,0.465,0.031,0.805,0.062,1.022c0.031,0.402-0.093,0.805-0.371,1.145
	c-0.31,0.31-0.681,0.495-1.176,0.557c-0.526,0.061-0.929-0.031-1.3-0.279c-0.341-0.216-0.588-0.557-0.619-1.021
	c-0.031-0.217-0.093-0.496-0.186-0.929c-0.124-0.434-0.186-0.743-0.217-0.96c-0.093-0.743-0.155-1.765-0.186-3.096
	c-0.062-1.3-0.124-2.322-0.217-3.096c0-0.185-0.062-0.526-0.155-0.99c-0.093-0.434-0.155-0.775-0.186-1.022
	c-0.062-0.434,0.062-0.774,0.402-1.114c0.278-0.31,0.681-0.526,1.176-0.589c1.083-0.124,1.733,0.402,1.981,1.547v0.155
	c1.084-1.269,2.291-1.95,3.653-2.136c1.579-0.185,2.724,0.247,3.467,1.393c0.526,0.711,0.836,1.888,1.052,3.467l0.093,0.774
	c0.031,0.371,0.062,0.619,0.093,0.774c0.062,0.557,0.247,1.3,0.526,2.198c0.31,0.897,0.495,1.64,0.557,2.197
	c0.062,0.434-0.062,0.836-0.371,1.115C191.515,149.346,191.144,149.532,190.648,149.593"/>
<path fill="#7ECEF4" d="M203.615,138.016c-0.186,0.031-0.402,0.062-0.65,0.062c-0.217,0.031-0.433,0.031-0.588,0.062
	c-0.341,0.03-0.743,0.124-1.176,0.247c0.495,2.971,0.805,4.953,0.929,5.881c0,0.093,0.031,0.279,0.093,0.556
	c0.031,0.279,0.062,0.465,0.093,0.651c0.186,1.733-0.309,2.631-1.517,2.786c-0.464,0.061-0.867-0.031-1.238-0.247
	c-0.402-0.217-0.619-0.496-0.65-0.929c-0.031-0.279-0.093-0.681-0.124-1.207c-0.031-0.557-0.093-0.96-0.124-1.207
	c-0.093-0.929-0.402-2.879-0.898-5.82c-0.526,0.031-1.331,0.062-2.384,0.094c-1.052,0.03-1.64-0.372-1.733-1.27
	c-0.062-0.402,0.062-0.774,0.341-1.115c0.279-0.34,0.681-0.526,1.176-0.588c0.31-0.031,1.021-0.062,2.136-0.124
	c-0.031-0.248-0.124-0.65-0.186-1.176c-0.093-0.465-0.155-0.867-0.217-1.146c-0.031-0.371,0.093-0.774,0.402-1.084
	c0.31-0.309,0.712-0.495,1.176-0.557c1.238-0.154,1.95,0.712,2.198,2.569l0.093,0.929c0.495-0.124,0.929-0.216,1.238-0.247
	c0.96-0.124,1.61-0.155,1.981-0.093c0.712,0.155,1.084,0.588,1.176,1.269c0.031,0.434-0.093,0.805-0.371,1.115
	C204.513,137.768,204.111,137.954,203.615,138.016"/>
<path fill="#7ECEF4" d="M227.772,145.221c-1.548,0.154-2.91-0.186-4.117-1.053c-1.331-0.929-2.105-2.26-2.352-3.962
	c-0.186-1.671,0.155-3.219,1.083-4.612c1.114-1.672,2.817-2.601,5.077-2.848c1.672-0.155,3.064,0.31,4.148,1.424
	c1.021,0.991,1.579,2.291,1.733,3.9c0.186,1.733-0.186,3.282-1.114,4.613C231.239,144.167,229.722,145.034,227.772,145.221
	 M227.586,135.748c-1.022,0.094-1.796,0.62-2.291,1.517c-0.433,0.743-0.588,1.641-0.495,2.569c0.093,0.897,0.433,1.579,1.052,1.981
	c0.465,0.34,1.022,0.495,1.641,0.434c0.712-0.062,1.331-0.371,1.826-0.836c0.526-0.619,0.805-1.331,0.774-2.228
	C229.939,136.738,229.103,135.594,227.586,135.748"/>
<path fill="#7ECEF4" d="M242.779,131.515c1.114-0.185,1.919-0.309,2.414-0.34c1.548-0.124,2.384,0.31,2.445,1.27
	c0.093,0.99-0.712,1.516-2.384,1.609c-0.526,0.031-1.3,0.125-2.383,0.31c0.031,0.774,0.093,1.796,0.217,3.033
	c0.186,1.765,0.279,2.787,0.31,3.034c0.093,1.392,0.093,2.476-0.031,3.312c-0.124,0.805-0.65,1.269-1.548,1.331
	c-0.495,0.031-0.898-0.062-1.269-0.31c-0.371-0.248-0.557-0.557-0.619-0.99c0-0.062,0-0.186,0.031-0.279
	c0.093-1.084,0.124-2.136,0.031-3.064l-0.433-5.665c-0.155,0.031-0.433,0.093-0.836,0.186c-0.31,0.061-0.557,0.093-0.712,0.093
	c-0.526,0.062-0.96-0.061-1.3-0.31c-0.371-0.216-0.557-0.556-0.588-1.021c-0.062-0.681,0.31-1.176,1.114-1.486
	c0.371-0.093,1.083-0.216,2.198-0.34c0-0.124,0-0.589,0.062-1.301c0.062-1.702,0.495-2.971,1.207-3.869
	c0.867-1.083,2.321-1.733,4.334-1.887c1.548-0.124,2.321,0.309,2.414,1.3c0.062,0.96-0.588,1.516-2.012,1.641
	c-1.022,0.061-1.733,0.464-2.136,1.114c-0.31,0.526-0.495,1.27-0.526,2.291V131.515z"/>
<path fill="#7ECEF4" d="M277.631,129.34c-0.743,0-1.3-0.34-1.702-1.021c-0.186-0.34-0.341-0.557-0.526-0.619
	c-0.124-0.062-0.433-0.062-0.99-0.062c-1.052,0.031-2.26,0.836-3.591,2.353c-1.888,2.105-2.817,4.054-2.755,5.881
	c0.031,0.805,0.341,1.516,0.991,2.074c0.619,0.589,1.362,0.867,2.198,0.836s1.672-0.247,2.507-0.681
	c0.309-0.155,0.929-0.495,1.919-1.146c0.619-0.433,1.114-0.619,1.455-0.619c0.495,0,0.929,0.124,1.3,0.434
	c0.341,0.309,0.495,0.681,0.495,1.052c0.031,0.464-0.186,0.866-0.619,1.176c-2.26,1.826-4.55,2.755-6.965,2.848
	c-1.888,0.031-3.498-0.526-4.829-1.733c-1.269-1.146-1.919-2.538-1.981-4.148c-0.062-2.538,1.084-5.139,3.467-7.862
	c2.043-2.26,4.148-3.436,6.346-3.498c0.341-0.031,0.681-0.031,0.99,0c0.31,0,0.557,0.031,0.774,0.093
	c0.371-0.371,0.805-0.526,1.331-0.557c0.836-0.03,1.393,0.434,1.61,1.301c0.155,0.619,0.278,1.362,0.278,2.197
	c0.031,0.371-0.093,0.743-0.34,1.052C278.683,129.092,278.25,129.31,277.631,129.34"/>
<path fill="#7ECEF4" d="M286.821,139.737c0,1.425-0.588,2.136-1.734,2.136c-0.526,0-0.929-0.154-1.269-0.433
	c-0.31-0.279-0.465-0.65-0.465-1.084l0.062-15.694c0-0.433,0.186-0.804,0.526-1.052c0.31-0.279,0.743-0.402,1.238-0.402
	s0.898,0.155,1.207,0.402c0.341,0.279,0.495,0.62,0.495,1.084L286.821,139.737z"/>
<path fill="#7ECEF4" d="M295.804,136.277c0,0.402,0,1.115,0,2.043c0,0.96,0,1.671-0.031,2.074c0,0.465-0.155,0.805-0.495,1.084
	s-0.774,0.402-1.269,0.371c-0.495,0-0.929-0.155-1.238-0.433c-0.309-0.279-0.464-0.651-0.433-1.115c0-0.402,0-1.115,0-2.074
	c0-0.929,0-1.64,0-2.042c0.031-0.681,0.093-1.517,0.186-2.538c0.124-1.022,0.186-1.857,0.217-2.507c0-0.434,0.186-0.805,0.495-1.084
	c0.341-0.248,0.774-0.402,1.269-0.371c0.495,0,0.929,0.154,1.238,0.433c0.31,0.31,0.464,0.681,0.464,1.084
	c-0.031,0.681-0.093,1.517-0.186,2.538C295.897,134.759,295.835,135.595,295.804,136.277 M294.968,127.949
	c-0.557-0.03-0.991-0.216-1.393-0.556c-0.371-0.31-0.557-0.712-0.557-1.207c0.031-0.434,0.217-0.836,0.619-1.176
	c0.402-0.279,0.867-0.434,1.424-0.402c0.526,0,0.99,0.154,1.362,0.495c0.402,0.34,0.588,0.742,0.557,1.207
	c0,0.464-0.217,0.866-0.619,1.176S295.494,127.949,294.968,127.949"/>
<path fill="#7ECEF4" d="M304.552,131.878c1.362-1.238,2.6-1.826,3.745-1.733c1.269,0.094,2.167,0.62,2.724,1.517
	c0.557-0.371,1.114-0.619,1.764-0.774c0.619-0.155,1.3-0.216,2.043-0.155c1.61,0.124,2.693,0.897,3.188,2.415
	c0.062,0.34,0.186,1.362,0.31,3.127c0.155,1.237,0.309,3.281,0.464,6.159c0,0.402-0.186,0.743-0.557,1.022
	c-0.371,0.247-0.805,0.371-1.3,0.34c-0.96-0.093-1.486-0.557-1.609-1.424c-0.093-0.805-0.186-1.888-0.248-3.343
	c-0.031-1.517-0.093-2.631-0.186-3.312c-0.093-1.362-0.341-2.043-0.681-2.074c-0.217,0-0.65,0.155-1.362,0.402
	c-0.712,0.31-1.238,0.589-1.579,0.805c-0.062,0.867-0.031,2.105,0.062,3.746c0.124,1.672,0.155,2.91,0.093,3.714
	c-0.031,0.434-0.217,0.775-0.557,1.052c-0.341,0.248-0.774,0.372-1.269,0.341c-0.526-0.031-0.898-0.217-1.207-0.526
	c-0.309-0.31-0.464-0.681-0.433-1.115c0.062-0.836,0.062-2.105-0.031-3.807c-0.093-1.703-0.093-2.972-0.031-3.808
	c0.031-0.495,0-0.866-0.062-1.176c-1.021,0.465-2.043,1.207-3.095,2.322c-0.062,0.03-0.155,0.124-0.217,0.216
	c-0.155,1.517-0.278,2.724-0.34,3.591c0,0.216-0.031,0.495-0.062,0.867c-0.062,0.34-0.093,0.588-0.093,0.774
	c-0.031,0.434-0.217,0.711-0.619,0.929c-0.341,0.185-0.774,0.279-1.269,0.216c-0.712-0.031-1.176-0.371-1.393-0.929
	c-0.124-0.371-0.186-0.99-0.124-1.826l0.31-4.21c0-0.34,0.031-0.897,0.062-1.64c0-0.743,0.031-1.27,0.062-1.641
	c0.031-0.712,0.217-1.269,0.526-1.826c0.371-0.62,0.867-0.929,1.455-0.898c0.464,0.031,0.867,0.248,1.207,0.589
	s0.526,0.712,0.495,1.115C304.737,130.764,304.675,131.074,304.552,131.878"/>
<path fill="#7ECEF4" d="M327.938,144.62c-1.145-0.155-2.229-0.496-3.25-0.991c-0.31,0.216-0.712,0.31-1.145,0.247
	c-0.464-0.061-0.836-0.247-1.114-0.526c-0.279-0.31-0.402-0.681-0.341-1.115c0.031-0.154,0.062-0.433,0.155-0.805
	c0.062-0.371,0.124-0.619,0.124-0.804l1.702-12.723c0.062-0.526,0.279-1.021,0.588-1.362c0.402-0.526,0.929-0.712,1.517-0.65
	c0.898,0.124,1.3,0.65,1.176,1.486c-0.031,0.124-0.062,0.279-0.124,0.495c-0.062,0.186-0.093,0.341-0.093,0.434l-0.557,4.303
	c0.65-0.217,1.269-0.372,1.857-0.465c0.588-0.093,1.145-0.093,1.671,0c1.95,0.247,3.436,1.084,4.489,2.538
	c0.96,1.331,1.331,2.878,1.083,4.612c-0.217,1.703-1.052,3.096-2.538,4.118C331.621,144.496,329.919,144.867,327.938,144.62
	 M329.702,135.023c-0.434-0.061-0.929-0.03-1.548,0.125c-0.588,0.154-1.269,0.402-2.043,0.743c-0.093,0.742-0.31,2.322-0.619,4.798
	c1.083,0.589,2.043,0.929,2.848,1.052c1.053,0.155,1.981-0.061,2.724-0.619c0.774-0.557,1.207-1.331,1.362-2.291
	c0.124-0.96-0.062-1.826-0.526-2.538C331.404,135.58,330.662,135.148,329.702,135.023"/>
<path fill="#7ECEF4" d="M342.774,147.659c-0.557-0.093-0.991-0.34-1.331-0.711c-0.371-0.371-0.495-0.774-0.433-1.176
	c0.062-0.372,0.341-0.681,0.805-0.929c0.464-0.248,0.96-0.341,1.517-0.217c0.588,0.094,1.052,0.341,1.362,0.712
	c0.341,0.402,0.464,0.774,0.371,1.207c-0.062,0.402-0.341,0.681-0.774,0.929C343.827,147.721,343.331,147.783,342.774,147.659"/>
</svg>
