<?xml version="1.0" encoding="utf-8"?>
<!-- Generator: Adobe Illustrator 27.0.1, SVG Export Plug-In . SVG Version: 6.00 Build 0)  -->
<svg version="1.1" id="레이어_1" xmlns="http://www.w3.org/2000/svg" xmlns:xlink="http://www.w3.org/1999/xlink" x="0px"
	 y="0px" viewBox="0 0 720 378.084" enable-background="new 0 0 720 378.084" xml:space="preserve">
<g>
	<defs>
		<path id="SVGID_1_" d="M494.821,320.488c-0.427,0.589-1.2,1.098-1.809,1.098h-30.13h-10.511h-5.509
			c-5.143,0-21.184-0.386-29.865-1.992c-0.447,1.606,1.077,8.762,2.745,8.762h0.082c8.294-1.118,21.082-2.399,26.042-2.399h39.198
			l21.468,1.748c1.505,0,2.155-0.732,2.338-1.505c0.814-2.968-4.858-14.15-6.465-14.15
			C501.164,312.051,496.244,318.475,494.821,320.488 M642.806,298.084c0,0,1.302,13.438,5.063,27.954
			c5.692,21.875,17.037,34.765,32.63,38.871c13.885,3.7,30.537,1.22,39.502-14.577c-10.287,11.467-30.678,9.678-46.272-0.955
			c-12.035-8.234-21.347-27.71-24.945-45.723c-1.748-8.783-3.049-15.939-3.111-16.935
			C645.672,286.719,642.806,298.003,642.806,298.084 M618.389,282.897c-0.874,0-1.341,0-1.402,0.264
			c-0.021,0.102,0.223,0.468,0.731,1.22c1.85,2.359,4.066,6.709,4.575,9.799c0.366,2.257,1.261,3.253,2.338,3.253
			c1.586,0,3.517-2.257,4.208-4.859c1.607-5.936-3.699-9.678-10.083-9.678H618.389z M667.852,279.645l-3.924,6.261l-2.48,3.659
			l-11.242,4.147l2.175,1.2l6.465,4.35l0.021,2.196v1.078l0.122,13.154l4.534-8.762l2.256-4.351l1.707-3.314l8.234-2.806
			l6.749-2.054l-9.249-3.536l-3.111-1.302l-1.118-7.36l-0.386-3.7L667.852,279.645z M495.797,267.324
			c-1.384,1.118-4.677,5.449-6.12,7.197c-0.529,0.63-1.098,1.118-1.627,1.118h-9.372l-0.813,3.111h21.774
			c1.403,0,2.013-0.895,2.216-1.627c0.488-1.85-3.273-10.308-5.143-10.308L495.797,267.324z M675.883,271.532
			c-0.427,0.651-1.2,1.139-1.729,1.139H648.64l-0.854,3.09h36.982c1.423,0,1.972-0.752,2.175-1.484
			c0.834-3.111-3.72-9.21-5.083-9.21C680.702,265.067,676.575,270.537,675.883,271.532 M576.935,272.671
			c-0.407,0.609-1.179,1.118-1.789,1.118h-17.748l-0.834,3.09h31.045c1.524,0,2.134-0.732,2.338-1.484
			c0.691-2.48-3.802-10.917-5.652-10.917C583.319,264.478,578.928,269.926,576.935,272.671 M361.637,296.011
			c-0.712,2.744,0.568,3.171,0.995,8.823c0.143,0.65,0.102,4.025,0.163,4.676c0.021,0.753,0.346,3.904,2.298,3.904
			c1.627,0,4.229-0.651,6.994-2.785l0.143-0.02c0,0,0.1-0.061,0.243-0.163c1.118-0.692,6.018-3.924,8.844-6.649
			c2.073-1.992,5.672-5.997,8.417-12.218c5.245-11.914,2.704-25.231,2.704-25.231s-2.154,13.744-6.242,21.47
			c-3.232,6.099-4.615,7.319-6.749,9.515c-3.375,3.415-6.892,5.57-8.824,6.627l-0.02-0.081c-0.509,0.325-0.996,0.61-1.423,0.813
			l-0.041,0.041c-0.548,0.244-1.036,0.406-1.443,0.406c-2.663,0-0.63-7.624-0.325-8.701c5.001-18.623,22.749-39.564,37.164-39.564
			c12.36,0,16.935,11.345,12.34,28.565c-5.693,21.123-19.782,32.264-28.178,35.944c-0.855,0.346-2.989,1.301-3.091,1.748
			l0.407,0.447c8.397-0.712,32.996-9.921,40.336-37.165c5.428-20.066-6.059-32.589-19.232-32.589
			C387.131,253.825,366.536,277.713,361.637,296.011 M553.23,250.633c-0.102,1.077-0.203,2.052-0.284,2.968
			c-0.386,3.211-0.752,5.428-1.159,7.217l-0.061-0.02c-0.589,3.029-1.281,5.997-1.891,8.376c-0.223,0.874-0.548,2.5-1.138,4.615
			h-7.177c-5.143,0-21.266-0.386-29.987-1.993c-0.427,1.607,0.752,6.445,2.44,6.445h0.102c8.294-1.118,21.204-1.362,26.165-1.362
			h7.624c-1.322,4.961-2.988,11.569-4.697,17.891c-0.305,1.098-0.609,2.216-0.874,3.314c-2.073,7.624-3.945,14.292-4.656,16.67
			c-1.586,5.225-3.802,6.974-7.543,6.974c-2.765,0-6.16-0.874-10.694-2.135c-0.488-0.102-0.833-0.223-1.097-0.223l-0.427,0.223
			c-0.244,0.996,7.237,12.91,7.826,16.041c0.225,1.098,0.529,1.606,1.343,1.606c0.793,0,12.178-0.753,15.98-14.902
			c0.731-2.745,2.724-15.533,3.374-17.993c0.793-3.232,1.973-9.738,3.761-16.691h-0.02l0.427-1.586c0-0.041,0.02-0.082,0.02-0.122
			c0.834-3.091,1.668-6.222,2.44-9.068l0.834-3.09c0.366-1.403,0.712-2.602,0.996-3.7l0.346-1.362h0.02
			c0.305-1.118,0.589-2.052,0.854-2.886c0.325-0.814,0.63-1.403,0.895-1.972c0.589-1.2,1.118-1.932,2.033-3.009
			c1.627-1.83,3.761-3.457,4.595-4.086c0.264-0.164,0.427-0.285,0.427-0.285s-0.264,0-0.589-0.061c-0.143,0-0.264,0-0.427,0
			c-0.041-0.02-0.143-0.041-0.203-0.041c-0.122-0.02-0.182-0.02-0.305-0.041c-0.141-0.02-0.284-0.04-0.427-0.061
			c-0.874-0.182-1.85-0.447-2.907-0.955c-0.874-0.427-1.768-1.077-2.602-1.727c-1.261-0.996-2.379-2.095-3.07-2.827l-0.243-0.243
			C553.251,250.571,553.251,250.592,553.23,250.633 M477.417,242.602c-0.752,0.488-1.504,0.895-2.215,1.22
			c-0.996,0.468-1.85,0.752-2.502,0.793c1.607,0,4.107,2.684,3.62,4.757c-0.225,1.097-0.448,2.154-0.753,3.273l-6.14,22.993h-3.11
			c-4.615,0-15.594-0.366-23.502-2.013c-0.427,1.647,0.732,6.485,2.256,6.485h0.102c7.563-1.118,15.371-1.361,19.864-1.361h3.558
			c-2.827,10.51-5.977,22.302-8.458,31.491c-0.509,1.382-2.013,2.745-3.497,3.659c-1.057,0.63-2.095,1.078-2.765,1.078
			c1.24,0.081,2.968,1.138,4.31,2.419c1.341,1.281,2.338,2.826,2.054,3.761c0.244-0.874,1.809-2.297,3.659-3.537
			c2.054-1.383,4.432-2.582,5.754-2.643c-0.651,0-1.464-0.447-2.175-1.078c-1.057-0.935-1.891-2.379-1.627-3.619
			c2.399-9.108,5.509-20.757,8.417-31.532h0.061l0.834-3.111h-0.061c3.252-12.158,6.017-22.486,6.912-25.454
			c0.082-0.325,0.143-0.529,0.244-0.813h0.081c0.509-1.382,1.993-2.765,3.436-3.68c0.996-0.63,2.054-1.057,2.684-1.077
			c-1.057-0.061-2.461-0.854-3.659-1.891c-1.647-1.382-3.009-3.211-2.704-4.29C481.809,239.472,479.694,241.24,477.417,242.602
			 M579.619,227.924c-0.752,0.529-2.541,2.256-3.579,3.131c-0.914,0.732-1.484,1.22-2.561,1.22h-12.056
			c-3.904,0-16.121-0.122-27.629-1.85c-0.508,1.85,0.834,6.22,2.5,6.22h0.184c9.576-1.016,16.325-1.016,23.97-1.016h12.035
			c0.813,0,0.895,0.386,0.793,0.773c-0.386,1.423-6.933,9.84-12.28,15.98c1.098,0.447,2.033,0.629,2.724,0.67
			c4.432-3.415,9.352-7.583,12.504-10.206c2.52-2.113,4.736-2.704,6.647-3.232c1.525-0.365,3.091-1.626,3.538-3.211
			c0.691-2.643-4.006-8.967-5.672-8.967C580.432,227.435,580.148,227.578,579.619,227.924 M505.84,233.759
			c-0.447,0.65-1.199,1.138-1.727,1.138h-31.065c-5.042,0-17.871-0.488-26.429-1.972c-0.448,1.606,0.934,6.445,2.541,6.445h0.061
			c8.112-1.098,17.748-1.382,22.648-1.382h3.72h-0.021h11.67h28.99c1.423,0,2.034-0.589,2.237-1.343
			c0.447-1.606-2.155-9.453-4.798-10.937l-0.589-0.123C512.02,225.585,509.336,229.062,505.84,233.759 M639.837,224.731
			c-0.061,0.244,0.082,0.611,0.386,1.22c1.282,2.502,2.745,7.218,2.806,10.063c0.021,2.868,0.977,3.965,2.136,3.965
			c1.666,0,3.781-2.236,4.533-5.083c1.81-6.708-5.326-10.551-9.128-10.551C640.102,224.345,639.898,224.447,639.837,224.731
			 M617.494,222.963l-0.143,0.895c-0.731,5.692-3.334,15.755-6.953,29.296c-3.436-0.122-7.502-0.508-13.012-1.727
			c-0.386,1.361,0.875,5.936,1.932,5.936h0.102c5.124-0.854,7.299-1.098,10.124-1.098l-0.305,1.24
			c-3.273,9.556-19.05,33.301-27.324,41.007c-1.159,1.098-1.707,1.728-1.768,1.972l0.122,0.224c0.611,0,12.626-7.055,24.051-25.21
			c-5.102,18.4-10.917,39.014-14.923,52.29l-0.04,0.264c-0.773,2.866,0.141,4.107,1.545,4.107c1.789,0,4.229-1.871,5.001-4.737
			l0.041-0.122c3.904-15.898,9.658-38.363,14.76-57.738c1.647,2.114,2.765,5.591,3.334,8.681c0.407,2.134,1.322,2.988,2.236,2.988
			c1.423,0,3.07-1.87,3.7-4.228c1.586-5.957-3.72-8.945-8.864-8.945l3.151-11.792h10.735c1.321,0,1.87-0.752,2.073-1.484
			c0.65-2.379-2.623-8.701-3.965-8.701c-0.609,0-2.195,1.606-5.265,6.078c-0.427,0.63-1.139,0.996-1.403,0.996h-1.341
			c2.195-8.213,4.106-15.024,5.367-19.009c1.241-3.965,1.748-3.577,3.477-4.697c1.261-0.752,1.891-1.524,2.093-2.256
			c0.712-2.582-7.745-4.452-8.294-4.452L617.494,222.963z M614.749,321.362c-0.304-0.102-0.854-0.223-1.281-0.346
			c0.407-0.183,0.793-0.346,1.139-0.63c1.809-1.362,3.415-3.212,4.981-5.326c1.87-2.501,3.638-5.307,5.469-8.03
			c2.582-3.924,5.286-7.461,8.538-9.454l-0.325,1.302c0,0.02-0.02,0.101-0.041,0.163l-0.467,1.85l-0.041,0.02
			c-2.359,8.722-4.209,15.614-4.758,17.464c-1.037,3.212-2.399,4.331-5.083,4.331C620.95,322.704,618.369,322.094,614.749,321.362
			 M663.929,222.861c-1.911,4.838-5.001,11.405-10.999,20.473h-4.615c-4.513,0-10.003-0.366-17.768-1.871
			c-0.387,1.505,0.833,6.222,2.338,6.222h0.061c6.851-0.936,9.433-1.2,13.296-1.22c-0.143,1.463-0.305,2.724-0.468,3.802
			c-0.223,1.688-0.468,3.029-0.732,4.147l0.021,0.02c-0.021,0.102-0.061,0.244-0.082,0.346l-0.833,3.111
			c-4.127,0-8.315-0.387-15.41-1.748c-0.387,1.463,0.995,5.977,2.5,5.977h0.081c6.913-1.018,8.193-1.139,12.097-1.139l-3.131,11.69
			c-4.839-0.143-11.914-0.488-18.826-1.871c-0.386,1.485,0.996,6.202,2.5,6.202h0.082c6.668-0.977,11.344-1.241,15.41-1.241
			l-5.347,19.985c-0.021,0-0.041,0-0.041,0.02c-9.819,3.538-17.098,11.08-22.952,16.651c-0.61,0.57-1.2,1.138-1.789,1.667
			c-2.136,1.972-3.984,3.09-5.49,3.192c-0.407,0.02-0.793-0.02-1.138-0.163c-0.651-0.244-1.2-0.711-1.627-1.504
			c-1.139-2.196,0.345-5.591,0.345-5.591s-3.17,4.615-0.995,8.641c0.386,0.691,0.955,1.26,1.606,1.789
			c1.423,1.119,3.314,1.769,5.347,1.912c0.57,0.04,1.159,0.04,1.729,0c1.22-0.102,2.44-0.387,3.577-0.854
			c0.102-0.061,0.244-0.142,0.366-0.223c0.509,1.911,6.506,11.934,6.506,15.329c0,1.118,0.182,1.748,0.895,1.748
			c0.182,0,9.23-0.752,12.462-12.788c0.63-2.379,1.647-12.523,7.645-36.087c0,0,6.81-25.27,7.664-28.503h19.925
			c1.341,0,1.911-0.874,2.093-1.606c0.732-2.745-3.679-7.706-4.758-7.706c-0.895,0-4.228,3.984-5.163,5.104
			c-0.427,0.589-1.016,1.118-1.545,1.118h-9.637c0.793-1.77,1.3-2.521,2.358-3.68c1.098-1.24,2.379-2.318,3.293-3.029
			c0.082-0.061,0.163-0.143,0.244-0.204c0.509-0.386,0.895-0.65,0.895-0.65s-0.244,0-0.57-0.021
			c-0.589-0.061-1.647-0.243-2.927-0.731c-0.285-0.082-0.529-0.184-0.834-0.305c-1.322-0.671-2.745-1.85-3.781-2.806h6.606v-0.021
			H676.9c1.322,0,1.972-0.752,2.216-1.606c0.854-3.232-3.72-8.701-4.676-8.701c-0.793,0-3.579,3.111-5.815,6.099
			c-0.427,0.609-1.077,1.098-1.627,1.098h-12.198c4.168-3.965,8.112-8.051,10.571-10.674c1.098-1.118,1.241-1.606,2.623-1.729
			c1.789-0.122,2.745-0.752,2.968-1.626c0.611-2.216-5.611-7.827-6.404-7.827C664.295,221.479,664.295,221.845,663.929,222.861
			 M104.782,258.684c9.108-17.81,20.188-33.301,32.935-45.947c13.256-13.194,25.027-19.925,35.009-19.925
			c11.955,0,17.789,6.791,17.789,20.718c0,10.774-2.541,23.441-7.542,37.632c-5.022,14.251-11.771,27.954-20.086,40.722
			c-16.041,24.681-32.163,38.139-47.96,40.132c-8.478-3.883-16.508-10.328-17.463-19.944c-0.163-1.565-0.874-14.455,8.864-17.952
			c7.99-2.866,13.845,3.131,13.845,3.131s-4.655-10.308-15.552-9.149c-5.794,0.651-10.592,4.473-13.316,9.779
			C93.01,286.13,97.524,272.996,104.782,258.684 M255.308,212.737c13.276-13.194,25.047-19.925,35.009-19.925
			c11.995,0,17.81,6.791,17.81,20.718c0,10.755-2.541,23.42-7.543,37.632c-5.021,14.251-11.771,27.974-20.086,40.722
			c-15.716,24.193-31.512,37.57-47.004,39.99c-0.061,0.02-0.143,0.041-0.223,0.041c-9.169-4.148-17.728-11.528-18.196-21.814
			c0-4.107,1.016-13.154,8.945-15.98c7.99-2.866,13.846,3.131,13.846,3.131s-4.656-10.308-15.553-9.149
			c-5.794,0.651-10.612,4.473-13.317,9.779c1.729-11.751,6.222-24.884,13.48-39.197c9.108-17.81,20.168-33.301,32.935-45.947
			l-0.203,0.141L255.308,212.737z M234.754,220.91c-18.439,17.22-30.476,34.216-36.148,51.212c-0.061,0.143-0.264,0.611-0.305,0.753
			c-6.688,20.513-18.012,44.97-40.884,56.965c-5.184,2.44-11.588,4.554-18.562,6.018c-5.143,1.098-11.06,0.711-16.834-1.017
			c16.163-4.31,33.505-18.033,51.741-40.905c18.379-23.115,27.69-45.235,27.69-65.747c0-11.711-2.643-21.286-7.827-28.443
			c-5.245-7.278-12.36-10.958-21.164-10.958c-13.804,0-32.426,10.817-55.339,32.122c-26.511,24.763-39.929,49.565-39.929,73.657
			c0,12.118,3.151,22.201,9.413,29.968c3.558,4.391,7.705,7.543,12.422,9.474l-0.041,0.04c0,0,3.558,1.667,8.966,2.847
			c7.949,1.748,10.998,1.911,11.141,1.911c7.075,0.61,14.109,0.447,21.022-1.179c7.339-1.748,12.422-3.761,16.935-5.835
			c6.587-2.155,23.807-10.226,37.835-33.85c0.548,10.633,3.679,19.578,9.331,26.592c3.558,4.391,7.909,7.461,12.422,9.474
			c0,0,3.517,1.707,8.924,2.887c8.092,1.789,11.385,1.911,11.385,1.911c7.136,0.63,14.619,0.529,21.754-1.179
			c8.54-2.033,14.089-4.452,19.212-6.892c12.503-5.469,45.215-24.986,59.507-75.852c1.545-5.368,1.993-5.49,3.802-6.261
			c-0.711,2.317-1.423,4.513-1.993,6.708c-13.764,51.335,7.32,78.11,9.637,78.11c0.427,0,0.875-0.223,1.282-0.549
			c3.536-3.09,16.793-6.77,17.036-7.664c0.041-0.204-0.122-0.325-0.691-0.529c-25.738-9.454-31.776-46.109-24.111-74.754
			c0.203-0.773,0.386-1.403,0.589-2.196c1.2-0.65,2.888-4.086,3.05-4.736c0.854-3.07-11.487-2.298-12.687-2.298l-0.305,0.223
			l-0.02,0.55c-0.244,2.418-1.037,7.258-2.44,12.523l-0.123,0.427c-7.36,27.549-27.039,61.032-54.464,75.406
			c-5.184,2.48-11.588,4.554-18.562,6.018c-5.286,1.118-11.365,0.691-17.301-1.138c16.041-4.473,33.24-18.135,51.253-40.784
			c18.38-23.115,27.711-45.235,27.711-65.747c0-11.711-2.664-21.286-7.847-28.443c-5.266-7.278-12.362-10.958-21.164-10.958
			C276.269,188.787,257.626,199.604,234.754,220.91 M99.964,183.258l-1.586,2.095c-38.953,52.878-72.274,77.886-93.337,89.514
			c-0.081,0.061-0.183,0.102-0.284,0.163l-0.854,0.366c-4.147,1.769-4.147,1.769-3.72,2.827c0.122,0.284,0.529,0.934,1.667,0.529
			c1.362-0.529,2.765-1.2,3.822-1.729l0.895-0.386c3.944-1.709,12.157-5.225,27.913-16.428c17.87-15.389,34.42-30.312,51.7-52.31
			c-6.14,9.922-14.251,22.282-24.234,37.023c-28.096,41.474-46.049,75.324-51.578,95.105l-0.488,1.688l1.748-0.346
			c6.323-1.159,10.673-1.748,12.93-1.748c2.033,0,4.473,0.406,7.278,1.158l1.118,0.305l0.244-1.159
			c2.806-13.357,7.969-29.58,13.56-42.714c5.591-13.153,15.878-33.891,30.577-61.622c27.771-52.512,27.771-53.53,27.771-54.139
			c0-0.936-0.65-1.607-1.586-1.607C102.911,179.842,102.505,179.984,99.964,183.258"/>
	</defs>
	<clipPath id="SVGID_00000096037142540553335760000001721490118690293158_">
		<use xlink:href="#SVGID_1_"  overflow="visible"/>
	</clipPath>
	
		<linearGradient id="SVGID_00000170977391372541539830000012513308143845799556_" gradientUnits="userSpaceOnUse" x1="-169.2882" y1="739.7027" x2="-148.9577" y2="739.7027" gradientTransform="matrix(0 -9.177 -9.177 0 7148.1592 -1187.1517)">
		<stop  offset="0" style="stop-color:#CAA85B"/>
		<stop  offset="0.4014" style="stop-color:#B98C3D"/>
		<stop  offset="0.7574" style="stop-color:#AE7A29"/>
		<stop  offset="1" style="stop-color:#AA7322"/>
	</linearGradient>
	
		<rect x="-0.245" y="179.842" clip-path="url(#SVGID_00000096037142540553335760000001721490118690293158_)" fill="url(#SVGID_00000170977391372541539830000012513308143845799556_)" width="720.243" height="188.769"/>
</g>
<g>
	<defs>
		<path id="SVGID_00000138547833417068221040000008776130039461413512_" d="M410.856,184.274c0,3.984,3.579,6.323,7.99,6.323
			c3.822,0,6.994-2.562,6.994-5.652c0-0.996-0.65-1.484-1.463-1.484c-0.875,0-1.343,0.447-1.343,1.118
			c0,0.793,0.895,0.936,0.895,1.972c0,1.607-1.85,3.375-4.758,3.375c-3.822,0-5.367-2.5-5.367-5.449
			c0-6.587,7.522-11.222,13.621-11.222c4.209,0,6.892,0.975,9.454,1.952c-6.283,4.35-7.238,14.678-10.531,20.391
			c-1.972,3.477-3.863,5.388-6.872,5.388c-2.195,0-2.866-1.261-2.866-1.748c0-0.264-0.184-0.509-0.611-0.509
			c-0.366,0-0.65,0.244-0.65,0.63c0,0.732,1.159,2.5,5.306,2.5c3.477,0,7.136-1.565,9.738-5.122
			c4.35-6.038,2.196-16.103,7.726-21.063c2.013,0.793,4.127,1.361,6.913,1.361c2.765,0,5.449-2.806,6.242-3.74
			c0.202-0.223,0.304-0.325,0.304-0.509c0-0.141-0.102-0.204-0.243-0.204c-0.143,0-0.305,0.123-0.57,0.244
			c-1.586,0.813-2.847,1.281-5.225,1.281c-7.745,0-9.637-1.586-17.646-1.586C419.435,172.523,410.856,176.793,410.856,184.274"/>
	</defs>
	<clipPath id="SVGID_00000057126317068034313560000013761103687697290116_">
		<use xlink:href="#SVGID_00000138547833417068221040000008776130039461413512_"  overflow="visible"/>
	</clipPath>
	
		<linearGradient id="SVGID_00000048485776593260536770000017634484938700207277_" gradientUnits="userSpaceOnUse" x1="-140.3534" y1="697.0339" x2="-120.023" y2="697.0339" gradientTransform="matrix(0 -1.4415 -1.4415 0 1436.0154 -0.4649)">
		<stop  offset="0" style="stop-color:#CAA85B"/>
		<stop  offset="0.4014" style="stop-color:#B98C3D"/>
		<stop  offset="0.7574" style="stop-color:#AE7A29"/>
		<stop  offset="1" style="stop-color:#AA7322"/>
	</linearGradient>
	
		<rect x="410.855" y="172.523" clip-path="url(#SVGID_00000057126317068034313560000013761103687697290116_)" fill="url(#SVGID_00000048485776593260536770000017634484938700207277_)" width="40.722" height="29.337"/>
</g>
<g>
	<defs>
		<path id="SVGID_00000143588367352353822740000003849364655775415433_" d="M441.412,179.334c-0.874,0-1.341-0.102-1.341-0.102
			l-0.386,0.447c0,0,0.915,0.163,1.829,0.163c0.203,0,0.407,0,0.611-0.04c-0.977,0.508-1.729,1.281-2.216,2.52
			c-0.346,0.977-1.911,6.201-3.314,10.369c-0.793,2.5-1.199,4.107-2.033,5.286c-0.386,0.671-0.915,0.975-0.915,1.139
			c0,0.122,0.102,0.182,0.182,0.182c0.223,0,0.548-0.346,1.505-0.346c0.874,0,1.463,0.164,1.992,0.164
			c0.448,0,0.712-0.164,0.712-0.651c0-0.57,0.813-3.436,2.013-4.838c1.666-2.134,4.31-3.579,5.347-3.579
			c0.589,0,0.955,0.264,0.955,0.814c0,1.707-2.806,4.004-2.806,6.119c0,1.261,1.138,2.034,2.663,2.034c2.44,0,5.042-2.48,5.042-2.48
			l-0.366-0.305c0,0-1.423,1.281-2.399,1.281c-0.65,0-1.159-0.345-1.159-1.077c0-2.277,2.338-4.229,2.338-6.302
			c0-0.875-0.711-1.525-1.911-1.525c-2.582,0-6.201,2.338-7.888,4.27c0,0,3.232-10.267,4.493-12.056
			c0.813-1.261,2.42-2.134,2.42-2.134l-0.203-0.326C444.361,179.172,442.552,179.334,441.412,179.334"/>
	</defs>
	<clipPath id="SVGID_00000019674512334239870830000017400078914075273390_">
		<use xlink:href="#SVGID_00000143588367352353822740000003849364655775415433_"  overflow="visible"/>
	</clipPath>
	
		<linearGradient id="SVGID_00000136380829398858273230000008261855155475900606_" gradientUnits="userSpaceOnUse" x1="-132.3425" y1="669.9015" x2="-111.9992" y2="669.9015" gradientTransform="matrix(0 -1.0294 -1.0294 0 1132.0284 63.0697)">
		<stop  offset="0" style="stop-color:#CAA85B"/>
		<stop  offset="0.4014" style="stop-color:#B98C3D"/>
		<stop  offset="0.7574" style="stop-color:#AE7A29"/>
		<stop  offset="1" style="stop-color:#AA7322"/>
	</linearGradient>
	
		<rect x="433.646" y="178.359" clip-path="url(#SVGID_00000019674512334239870830000017400078914075273390_)" fill="url(#SVGID_00000136380829398858273230000008261855155475900606_)" width="17.605" height="20.941"/>
</g>
<g>
	<defs>
		<path id="SVGID_00000145776140075319630720000002046502285087785629_" d="M450.622,195.7c0,2.359,2.216,3.314,4.554,3.314
			c3.375,0,5.754-2.48,5.754-2.48l-0.305-0.305c0,0-1.727,1.688-3.679,1.688c-1.709,0-2.684-0.793-2.684-2.725
			c0-2.622,2.602-6.038,4.736-6.038c0.509,0,0.814,0.264,0.814,0.732c0,1.789-2.196,3.782-4.331,3.782
			c-0.163,0-0.244,0.04-0.244,0.182c0,0.244,0.489,0.346,0.996,0.346c3.07,0,5.774-1.546,5.774-3.661
			c0-1.199-1.281-1.931-3.293-1.931C455.38,188.605,450.622,191.634,450.622,195.7"/>
	</defs>
	<clipPath id="SVGID_00000117645130804792111220000013439546669667788673_">
		<use xlink:href="#SVGID_00000145776140075319630720000002046502285087785629_"  overflow="visible"/>
	</clipPath>
	
		<linearGradient id="SVGID_00000044164023870561562540000012006482657632762779_" gradientUnits="userSpaceOnUse" x1="-109.5491" y1="574.6265" x2="-89.2187" y2="574.6265" gradientTransform="matrix(0 -0.5126 -0.5126 0 750.8475 142.8807)">
		<stop  offset="0" style="stop-color:#CAA85B"/>
		<stop  offset="0.4014" style="stop-color:#B98C3D"/>
		<stop  offset="0.7574" style="stop-color:#AE7A29"/>
		<stop  offset="1" style="stop-color:#AA7322"/>
	</linearGradient>
	
		<rect x="450.622" y="188.606" clip-path="url(#SVGID_00000117645130804792111220000013439546669667788673_)" fill="url(#SVGID_00000044164023870561562540000012006482657632762779_)" width="11.384" height="10.408"/>
</g>
<g>
	<defs>
		<path id="SVGID_00000111167864379390403860000011438500232175568012_" d="M518.262,174.089c-1.566,0.874-2.541,2.44-3.213,3.863
			c-1.443,3.09-2.704,6.14-3.863,8.904h-6.79C508.727,180.188,512.651,174.089,518.262,174.089 M517.51,173.58
			c-5.977,0-11.04,6.608-16.346,13.276h-5.611l-0.407,0.691h5.57c-5.265,6.649-10.978,12.93-17.768,12.93
			c-5.266,0-8.315-1.87-8.315-6.038c0-3.842,3.863-6.404,7.299-6.404c1.87,0,2.643,0.712,2.643,1.566
			c0,0.793,0.345,1.565,1.402,1.565c0.793,0,1.302-0.467,1.302-1.138c0-1.464-2.196-2.704-5.205-2.704
			c-4.025,0-8.904,2.907-8.904,8.376c0,4.249,3.761,8.133,10.43,8.133c9.535,0,15.269-8.417,20.371-16.285h6.953
			c-1.525,3.7-2.602,6.872-2.602,8.844c0,1.688,1.24,2.623,3.07,2.623c2.033,0,4.697-2.48,4.697-2.48l-0.366-0.305
			c0,0-1.423,1.281-2.399,1.281c-0.61,0-0.977-0.264-0.977-0.874c0-1.444,1.139-5.143,2.561-9.088h1.891l0.386-0.691h-2.033
			c1.769-4.798,3.984-9.86,4.9-11.344c1.24-1.932,2.459-2.806,2.459-2.806l-0.223-0.346
			C522.287,172.36,520.396,173.58,517.51,173.58"/>
	</defs>
	<clipPath id="SVGID_00000016769131710365314680000012873338906703199363_">
		<use xlink:href="#SVGID_00000111167864379390403860000011438500232175568012_"  overflow="visible"/>
	</clipPath>
	
		<linearGradient id="SVGID_00000141443938483485757000000002239471246801669293_" gradientUnits="userSpaceOnUse" x1="-142.537" y1="659.0032" x2="-122.2087" y2="659.0032" gradientTransform="matrix(0 -1.5483 -1.5483 0 1518.147 -16.8502)">
		<stop  offset="0" style="stop-color:#CAA85B"/>
		<stop  offset="0.4014" style="stop-color:#B98C3D"/>
		<stop  offset="0.7574" style="stop-color:#AE7A29"/>
		<stop  offset="1" style="stop-color:#AA7322"/>
	</linearGradient>
	
		<rect x="473.169" y="172.36" clip-path="url(#SVGID_00000016769131710365314680000012873338906703199363_)" fill="url(#SVGID_00000141443938483485757000000002239471246801669293_)" width="49.342" height="31.473"/>
</g>
<g>
	<defs>
		<path id="SVGID_00000138547233309483268650000008605617524783711903_" d="M521.779,192.812c0,0,0.916-1.951,0.916-2.825
			c0-0.874-0.611-1.382-1.83-1.382c-1.627,0-3.984,1.748-4.736,2.338l0.284,0.346c0,0,1.586-1.159,2.134-1.159
			c0.468,0,0.589,0.264,0.589,0.65c0,0.813-1.545,5.286-2.765,7.238c-0.366,0.589-0.936,0.895-0.936,1.057
			c0,0.102,0.123,0.163,0.225,0.163c0.203,0,0.63-0.325,1.586-0.325c0.934,0,1.524,0.102,1.992,0.102
			c0.448,0,0.712-0.102,0.712-0.57c0-0.691,1.179-3.884,2.073-4.981c1.688-2.155,4.37-3.416,5.286-3.416
			c0.589,0,0.915,0.264,0.915,0.814c0,1.707-2.806,4.004-2.806,6.119c0,1.261,0.996,2.034,2.643,2.034
			c2.602,0,5.063-2.48,5.063-2.48l-0.305-0.305c0,0-1.321,1.281-2.562,1.281c-0.65,0-1.016-0.345-1.016-1.077
			c0-2.42,2.338-4.229,2.338-6.242c0-0.895-0.874-1.586-1.972-1.586C527.147,188.605,523.527,190.923,521.779,192.812"/>
	</defs>
	<clipPath id="SVGID_00000090991384574610112210000008265136569524886195_">
		<use xlink:href="#SVGID_00000138547233309483268650000008605617524783711903_"  overflow="visible"/>
	</clipPath>
	
		<linearGradient id="SVGID_00000151524487806793261990000009635061196921862589_" gradientUnits="userSpaceOnUse" x1="-110.8211" y1="454.3433" x2="-90.4902" y2="454.3433" gradientTransform="matrix(0 -0.523 -0.523 0 761.8986 141.2798)">
		<stop  offset="0" style="stop-color:#CAA85B"/>
		<stop  offset="0.4014" style="stop-color:#B98C3D"/>
		<stop  offset="0.7574" style="stop-color:#AE7A29"/>
		<stop  offset="1" style="stop-color:#AA7322"/>
	</linearGradient>
	
		<rect x="515.434" y="188.606" clip-path="url(#SVGID_00000090991384574610112210000008265136569524886195_)" fill="url(#SVGID_00000151524487806793261990000009635061196921862589_)" width="17.689" height="10.633"/>
</g>
<g>
	<defs>
		<path id="SVGID_00000157291338890200777970000010324819935306455199_" d="M532.94,190.943l0.305,0.346
			c0,0,1.586-1.159,2.134-1.159c0.468,0,0.57,0.264,0.57,0.65c0,1.647-2.745,4.249-2.745,6.12c0,1.24,1.016,2.114,2.5,2.114
			c2.338,0,5.104-2.48,5.104-2.48l-0.366-0.305c0,0-1.423,1.281-2.4,1.281c-0.711,0-1.077-0.345-1.077-1.077
			c0-1.729,2.663-4.636,2.663-6.445c0-0.874-0.65-1.382-1.89-1.382C536.112,188.605,533.733,190.353,532.94,190.943"/>
	</defs>
	<clipPath id="SVGID_00000161630024593615759040000013111375165092533683_">
		<use xlink:href="#SVGID_00000157291338890200777970000010324819935306455199_"  overflow="visible"/>
	</clipPath>
	
		<linearGradient id="SVGID_00000011714976278575072940000016008133090090505093_" gradientUnits="userSpaceOnUse" x1="-109.5491" y1="425.188" x2="-89.2187" y2="425.188" gradientTransform="matrix(0 -0.5126 -0.5126 0 754.8097 142.8807)">
		<stop  offset="0" style="stop-color:#CAA85B"/>
		<stop  offset="0.4014" style="stop-color:#B98C3D"/>
		<stop  offset="0.7574" style="stop-color:#AE7A29"/>
		<stop  offset="1" style="stop-color:#AA7322"/>
	</linearGradient>
	
		<rect x="532.939" y="188.606" clip-path="url(#SVGID_00000161630024593615759040000013111375165092533683_)" fill="url(#SVGID_00000011714976278575072940000016008133090090505093_)" width="7.868" height="10.408"/>
</g>
<g>
	<defs>
		<path id="SVGID_00000061450429201130976900000006189972548093809310_" d="M538.043,184.986c0,0.813,0.671,1.179,1.423,1.179
			c1.139,0,2.318-1.382,2.318-2.521c0-0.691-0.57-1.077-1.281-1.077C539.364,182.567,538.043,183.908,538.043,184.986"/>
	</defs>
	<clipPath id="SVGID_00000083770221260378652380000016971074875303830927_">
		<use xlink:href="#SVGID_00000061450429201130976900000006189972548093809310_"  overflow="visible"/>
	</clipPath>
	
		<linearGradient id="SVGID_00000010309966766521820500000008421912683390358176_" gradientUnits="userSpaceOnUse" x1="43.7943" y1="-182.1431" x2="64.1247" y2="-182.1431" gradientTransform="matrix(0 -0.1777 -0.1777 0 507.5431 193.9679)">
		<stop  offset="0" style="stop-color:#CAA85B"/>
		<stop  offset="0.4014" style="stop-color:#B98C3D"/>
		<stop  offset="0.7574" style="stop-color:#AE7A29"/>
		<stop  offset="1" style="stop-color:#AA7322"/>
	</linearGradient>
	
		<rect x="538.041" y="182.568" clip-path="url(#SVGID_00000083770221260378652380000016971074875303830927_)" fill="url(#SVGID_00000010309966766521820500000008421912683390358176_)" width="3.742" height="3.597"/>
</g>
<g>
	<defs>
		<path id="SVGID_00000150086867562941743720000001125623739446046351_" d="M554.369,193.219c0,0,0.772-1.829,0.772-2.988
			c0-0.936-0.772-1.627-2.195-1.627c-2.561,0-5.124,2.318-6.75,4.208c0.164-0.243,0.855-1.951,0.855-2.825
			c0-0.874-0.55-1.382-1.769-1.382c-1.647,0-3.984,1.748-4.797,2.338l0.365,0.346c0,0,1.505-1.159,2.075-1.159
			c0.467,0,0.691,0.264,0.691,0.65c0,1.077-1.545,5.102-2.745,7.238c-0.285,0.589-0.914,0.895-0.914,1.057
			c0,0.102,0.1,0.163,0.202,0.163c0.225,0,0.611-0.325,1.607-0.325c0.915,0,1.504,0.102,1.972,0.102c0.468,0,0.711-0.102,0.711-0.57
			c0-0.691,1.139-3.965,2.054-5.124c1.729-2.074,3.558-3.395,4.391-3.395c0.589,0,0.936,0.386,0.936,0.936
			c0,1.24-1.139,4.838-2.277,7.156c-0.285,0.63-0.712,0.813-0.712,0.955s0.062,0.203,0.225,0.203c0.202,0,0.609-0.264,1.259-0.264
			c0.814,0,1.444,0.102,1.952,0.102c0.468,0,0.671-0.102,0.671-0.57c0-0.691,1.159-4.006,2.054-5.124
			c1.707-2.074,3.903-3.273,4.981-3.273c0.609,0,0.914,0.264,0.914,0.814c0,1.707-2.866,4.004-2.866,6.119
			c0,1.261,1.037,2.034,2.663,2.034c2.664,0,5.104-2.48,5.104-2.48l-0.366-0.305c0,0-1.321,1.281-2.502,1.281
			c-0.711,0-1.056-0.345-1.056-1.077c0-2.42,2.338-4.229,2.338-6.242c0-0.895-0.854-1.586-1.993-1.586
			C559.614,188.605,555.996,190.943,554.369,193.219"/>
	</defs>
	<clipPath id="SVGID_00000096773964501671459100000003286752843307517109_">
		<use xlink:href="#SVGID_00000150086867562941743720000001125623739446046351_"  overflow="visible"/>
	</clipPath>
	
		<linearGradient id="SVGID_00000127728803027482788730000003163520775781826479_" gradientUnits="userSpaceOnUse" x1="-110.8211" y1="402.3561" x2="-90.4902" y2="402.3561" gradientTransform="matrix(0 -0.523 -0.523 0 763.3053 141.2798)">
		<stop  offset="0" style="stop-color:#CAA85B"/>
		<stop  offset="0.4014" style="stop-color:#B98C3D"/>
		<stop  offset="0.7574" style="stop-color:#AE7A29"/>
		<stop  offset="1" style="stop-color:#AA7322"/>
	</linearGradient>
	
		<rect x="539.955" y="188.606" clip-path="url(#SVGID_00000096773964501671459100000003286752843307517109_)" fill="url(#SVGID_00000127728803027482788730000003163520775781826479_)" width="25.839" height="10.633"/>
</g>
<g>
	<defs>
		<path id="SVGID_00000026859487306587329960000017801798664824897180_" d="M569.047,195.497c0-2.541,2.236-6.242,4.838-6.242
			c1.546,0,2.054,1.016,2.054,2.034c0,0.691-0.609,2.379-1.016,3.192c-0.936,1.586-2.886,3.415-4.147,3.415
			C569.595,197.895,569.047,197.082,569.047,195.497 M579.416,188.91c-1.748,0.204-2.561,0.854-2.907,1.688
			c-0.163-1.098-1.179-1.993-3.131-1.993c-3.354,0-7.97,3.252-7.97,7.278c0,1.81,1.343,3.132,3.68,3.132
			c2.318,0,4.899-2.196,5.59-3.416c-0.163,0.488-0.163,1.037-0.163,1.525c0,0.955,0.814,1.891,2.339,1.891
			c1.748,0,4.452-2.48,4.452-2.48l-0.326-0.305c0,0-1.422,1.281-2.378,1.281c-0.591,0-0.936-0.264-0.936-0.772
			c0-1.444,1.322-4.941,2.155-6.242c0.793-1.241,2.297-1.932,2.297-1.932l-0.264-0.406
			C581.855,188.158,581.042,188.747,579.416,188.91"/>
	</defs>
	<clipPath id="SVGID_00000129179129121837038870000010426917676985191607_">
		<use xlink:href="#SVGID_00000026859487306587329960000017801798664824897180_"  overflow="visible"/>
	</clipPath>
	
		<linearGradient id="SVGID_00000023987238278584988600000009471184280551783321_" gradientUnits="userSpaceOnUse" x1="-111.483" y1="373.2139" x2="-91.1526" y2="373.2139" gradientTransform="matrix(0 -0.5356 -0.5356 0 773.6694 139.3177)">
		<stop  offset="0" style="stop-color:#CAA85B"/>
		<stop  offset="0.4014" style="stop-color:#B98C3D"/>
		<stop  offset="0.7574" style="stop-color:#AE7A29"/>
		<stop  offset="1" style="stop-color:#AA7322"/>
	</linearGradient>
	
		<rect x="565.408" y="188.159" clip-path="url(#SVGID_00000129179129121837038870000010426917676985191607_)" fill="url(#SVGID_00000023987238278584988600000009471184280551783321_)" width="16.712" height="10.855"/>
</g>
<g>
	<defs>
		<path id="SVGID_00000130643393830865456460000001617331320634860162_" d="M587.873,184.152c-1.911,0.427-2.968,1.281-3.7,3.334
			h-1.098l-0.427,0.671h1.341c-1.341,3.699-2.5,7.176-2.5,8.66c0,1.241,0.712,2.196,2.684,2.196c2.5,0,5.224-2.48,5.224-2.48
			l-0.325-0.305c0,0-1.423,1.281-2.806,1.281c-1.016,0-1.3-0.548-1.3-1.627c0-1.361,1.261-4.96,2.216-7.724h3.517l0.427-0.671
			h-3.679c0.304-0.712,0.65-1.341,1.016-1.809c0.834-1.282,2.459-1.952,2.459-1.952l-0.264-0.427
			C590.658,183.299,590.109,183.685,587.873,184.152"/>
	</defs>
	<clipPath id="SVGID_00000100361006374668923390000012797888004982438288_">
		<use xlink:href="#SVGID_00000130643393830865456460000001617331320634860162_"  overflow="visible"/>
	</clipPath>
	
		<linearGradient id="SVGID_00000136386167948242589700000004894287078800702362_" gradientUnits="userSpaceOnUse" x1="-124.7192" y1="470.4423" x2="-104.3888" y2="470.4423" gradientTransform="matrix(0 -0.7741 -0.7741 0 950.4587 102.4911)">
		<stop  offset="0" style="stop-color:#CAA85B"/>
		<stop  offset="0.4014" style="stop-color:#B98C3D"/>
		<stop  offset="0.7574" style="stop-color:#AE7A29"/>
		<stop  offset="1" style="stop-color:#AA7322"/>
	</linearGradient>
	
		<rect x="581.488" y="183.299" clip-path="url(#SVGID_00000100361006374668923390000012797888004982438288_)" fill="url(#SVGID_00000136386167948242589700000004894287078800702362_)" width="9.637" height="15.716"/>
</g>
<g>
	<defs>
		<path id="SVGID_00000065048034183521357380000013343991845744353465_" d="M589.317,190.943l0.305,0.346
			c0,0,1.586-1.159,2.134-1.159c0.488,0,0.57,0.264,0.57,0.65c0,1.647-2.745,4.249-2.745,6.12c0,1.24,1.016,2.114,2.5,2.114
			c2.338,0,5.104-2.48,5.104-2.48l-0.346-0.305c0,0-1.423,1.281-2.42,1.281c-0.711,0-1.057-0.345-1.057-1.077
			c0-1.729,2.643-4.636,2.643-6.445c0-0.874-0.67-1.382-1.89-1.382C592.467,188.605,590.129,190.353,589.317,190.943"/>
	</defs>
	<clipPath id="SVGID_00000018238348629508659230000006786152423487229588_">
		<use xlink:href="#SVGID_00000065048034183521357380000013343991845744353465_"  overflow="visible"/>
	</clipPath>
	
		<linearGradient id="SVGID_00000070840035289178091570000011851382867878281626_" gradientUnits="userSpaceOnUse" x1="-109.5491" y1="320.6071" x2="-89.2187" y2="320.6071" gradientTransform="matrix(0 -0.5126 -0.5126 0 757.5828 142.8807)">
		<stop  offset="0" style="stop-color:#CAA85B"/>
		<stop  offset="0.4014" style="stop-color:#B98C3D"/>
		<stop  offset="0.7574" style="stop-color:#AE7A29"/>
		<stop  offset="1" style="stop-color:#AA7322"/>
	</linearGradient>
	
		<rect x="589.317" y="188.606" clip-path="url(#SVGID_00000018238348629508659230000006786152423487229588_)" fill="url(#SVGID_00000070840035289178091570000011851382867878281626_)" width="7.868" height="10.408"/>
</g>
<g>
	<defs>
		<path id="SVGID_00000129912727480321597440000000261366322026756531_" d="M594.419,184.986c0,0.813,0.671,1.179,1.423,1.179
			c1.139,0,2.298-1.382,2.298-2.521c0-0.691-0.55-1.077-1.282-1.077C595.762,182.567,594.419,183.908,594.419,184.986"/>
	</defs>
	<clipPath id="SVGID_00000090989097841252109590000012916659341112517823_">
		<use xlink:href="#SVGID_00000129912727480321597440000000261366322026756531_"  overflow="visible"/>
	</clipPath>
	
		<linearGradient id="SVGID_00000090272090281037502120000005596595809193549952_" gradientUnits="userSpaceOnUse" x1="43.7943" y1="-483.7094" x2="64.1247" y2="-483.7094" gradientTransform="matrix(0 -0.1777 -0.1777 0 510.3163 193.9679)">
		<stop  offset="0" style="stop-color:#CAA85B"/>
		<stop  offset="0.4014" style="stop-color:#B98C3D"/>
		<stop  offset="0.7574" style="stop-color:#AE7A29"/>
		<stop  offset="1" style="stop-color:#AA7322"/>
	</linearGradient>
	
		<rect x="594.418" y="182.568" clip-path="url(#SVGID_00000090989097841252109590000012916659341112517823_)" fill="url(#SVGID_00000090272090281037502120000005596595809193549952_)" width="3.721" height="3.597"/>
</g>
<g>
	<defs>
		<path id="SVGID_00000128473329356103077850000004542411860470104503_" d="M600.173,196.27c0-3.741,1.729-7.177,4.35-7.177
			c1.322,0,2.095,0.712,2.095,1.993c0,3.476-2.095,7.379-4.432,7.379C600.925,198.465,600.173,197.53,600.173,196.27
			 M596.96,195.375c0,2.52,2.136,3.741,5.143,3.741c3.741,0,7.665-2.989,7.665-6.791c0-2.399-2.093-3.802-5.245-3.802
			C600.336,188.523,596.96,191.757,596.96,195.375"/>
	</defs>
	<clipPath id="SVGID_00000047760745496747920390000011478804032524498083_">
		<use xlink:href="#SVGID_00000128473329356103077850000004542411860470104503_"  overflow="visible"/>
	</clipPath>
	
		<linearGradient id="SVGID_00000152252843066466413040000014518991555690769793_" gradientUnits="userSpaceOnUse" x1="-110.425" y1="308.8736" x2="-90.0925" y2="308.8736" gradientTransform="matrix(0 -0.5209 -0.5209 0 764.2686 141.5912)">
		<stop  offset="0" style="stop-color:#CAA85B"/>
		<stop  offset="0.4014" style="stop-color:#B98C3D"/>
		<stop  offset="0.7574" style="stop-color:#AE7A29"/>
		<stop  offset="1" style="stop-color:#AA7322"/>
	</linearGradient>
	
		<rect x="596.96" y="188.524" clip-path="url(#SVGID_00000047760745496747920390000011478804032524498083_)" fill="url(#SVGID_00000152252843066466413040000014518991555690769793_)" width="12.807" height="10.592"/>
</g>
<g>
	<defs>
		<path id="SVGID_00000070084094404654759480000005100657365301356973_" d="M615.319,192.812c0,0,0.936-1.951,0.936-2.825
			c0-0.874-0.63-1.382-1.85-1.382c-1.627,0-4.005,1.748-4.738,2.338l0.285,0.346c0,0,1.586-1.159,2.134-1.159
			c0.468,0,0.589,0.264,0.589,0.65c0,0.813-1.545,5.286-2.765,7.238c-0.366,0.589-0.936,0.895-0.936,1.057
			c0,0.102,0.123,0.163,0.223,0.163c0.184,0,0.611-0.325,1.566-0.325c0.915,0,1.545,0.102,2.013,0.102
			c0.448,0,0.712-0.102,0.712-0.57c0-0.691,1.158-3.884,2.073-4.981c1.688-2.155,4.35-3.416,5.265-3.416
			c0.61,0,0.914,0.264,0.914,0.814c0,1.707-2.806,4.004-2.806,6.119c0,1.261,1.018,2.034,2.643,2.034c2.623,0,5.063-2.48,5.063-2.48
			l-0.305-0.305c0,0-1.322,1.281-2.561,1.281c-0.65,0-0.996-0.345-0.996-1.077c0-2.42,2.338-4.229,2.338-6.242
			c0-0.895-0.874-1.586-1.992-1.586C620.666,188.605,617.048,190.923,615.319,192.812"/>
	</defs>
	<clipPath id="SVGID_00000085929461887821667030000001764259335163150772_">
		<use xlink:href="#SVGID_00000070084094404654759480000005100657365301356973_"  overflow="visible"/>
	</clipPath>
	
		<linearGradient id="SVGID_00000055679017674339932140000016741331070771767710_" gradientUnits="userSpaceOnUse" x1="-110.8211" y1="284.3056" x2="-90.4902" y2="284.3056" gradientTransform="matrix(0 -0.523 -0.523 0 766.4993 141.2798)">
		<stop  offset="0" style="stop-color:#CAA85B"/>
		<stop  offset="0.4014" style="stop-color:#B98C3D"/>
		<stop  offset="0.7574" style="stop-color:#AE7A29"/>
		<stop  offset="1" style="stop-color:#AA7322"/>
	</linearGradient>
	
		<rect x="608.974" y="188.606" clip-path="url(#SVGID_00000085929461887821667030000001764259335163150772_)" fill="url(#SVGID_00000055679017674339932140000016741331070771767710_)" width="17.667" height="10.633"/>
</g>
<g>
	<defs>
		<path id="SVGID_00000073692476113932121510000009486916901418052504_" d="M376.924,190.109h-36.289
			c-1.423,0-2.034,2.175-0.589,2.175h36.31c4.533,0,6.81,1.343,8.03,3.661c2.461-2.318,5.47-3.661,10.003-3.661h3.924
			c1.444,0,2.034-2.175,0.57-2.175h-3.904c-4.554,0-6.81-1.361-8.051-3.659C384.488,188.747,381.5,190.109,376.924,190.109"/>
	</defs>
	<clipPath id="SVGID_00000093899505085356799180000015653807989603430059_">
		<use xlink:href="#SVGID_00000073692476113932121510000009486916901418052504_"  overflow="visible"/>
	</clipPath>
	
		<linearGradient id="SVGID_00000121965911946675327510000011580876284163418035_" gradientUnits="userSpaceOnUse" x1="-98.9338" y1="735.4117" x2="-78.6198" y2="735.4117" gradientTransform="matrix(0 -0.4674 -0.4674 0 713.217 149.7023)">
		<stop  offset="0" style="stop-color:#CAA85B"/>
		<stop  offset="0.4014" style="stop-color:#B98C3D"/>
		<stop  offset="0.7574" style="stop-color:#AE7A29"/>
		<stop  offset="1" style="stop-color:#AA7322"/>
	</linearGradient>
	
		<rect x="338.6" y="186.451" clip-path="url(#SVGID_00000093899505085356799180000015653807989603430059_)" fill="url(#SVGID_00000121965911946675327510000011580876284163418035_)" width="61.744" height="9.495"/>
</g>
<g>
	<defs>
		<path id="SVGID_00000091736741694870228480000002994954068709313698_" d="M640.814,190.109h-3.884
			c-1.443,0-2.013,2.175-0.589,2.175h3.904c4.554,0,6.831,1.343,8.031,3.661c2.479-2.318,5.488-3.661,10.023-3.661h36.31
			c1.423,0,1.992-2.175,0.568-2.175h-36.309c-4.554,0-6.811-1.361-8.031-3.659C648.397,188.747,645.388,190.109,640.814,190.109"/>
	</defs>
	<clipPath id="SVGID_00000074399595325196980210000016737981130554360244_">
		<use xlink:href="#SVGID_00000091736741694870228480000002994954068709313698_"  overflow="visible"/>
	</clipPath>
	
		<linearGradient id="SVGID_00000020388283946050451570000018139423745300984973_" gradientUnits="userSpaceOnUse" x1="-98.9338" y1="132.7153" x2="-78.6198" y2="132.7153" gradientTransform="matrix(0 -0.4674 -0.4674 0 727.7908 149.7023)">
		<stop  offset="0" style="stop-color:#CAA85B"/>
		<stop  offset="0.4014" style="stop-color:#B98C3D"/>
		<stop  offset="0.7574" style="stop-color:#AE7A29"/>
		<stop  offset="1" style="stop-color:#AA7322"/>
	</linearGradient>
	
		<rect x="634.916" y="186.451" clip-path="url(#SVGID_00000074399595325196980210000016737981130554360244_)" fill="url(#SVGID_00000020388283946050451570000018139423745300984973_)" width="61.682" height="9.495"/>
</g>
<g>
	<defs>
		<path id="SVGID_00000171698091465333156290000017874469059067285176_" d="M292.574,141.377c-0.63,0.874-1.768,1.525-2.704,1.525
			h-33.789h-8.885h-8.335c-7.808,0-32.143-0.488-45.418-2.684c-0.589,2.196,1.423,11.06,3.984,11.06h0.143
			c12.482-1.504,31.959-3.009,39.502-3.009l72.132,1.159c2.277,0,3.232-0.996,3.497-2.033c1.098-4.025-6.587-17.444-8.986-17.444
			C301.844,129.951,294.647,138.714,292.574,141.377 M128.69,130.053l-11.507,4.961l8.864,4.94l-0.406,16.853l9.271-16.853
			l15.126-4.94l-12.463-4.961l-1.179-11.344L128.69,130.053z M404.839,113.768c-2.705,2.521-5.775,6.913-7.97,9.597
			c-0.611,0.833-1.789,1.159-2.175,1.159h-12.646h-7.522c-6.16-0.143-19.598-0.671-30.13-2.521c-0.57,2.195,1.688,8.254,3.822,8.254
			h0.163c10.226-1.525,22.689-1.85,26.308-1.85h36.046c2.134,0,3.111-0.996,3.354-2.033c0.407-1.484-3.151-10.735-6.994-12.931
			c-0.305,0-0.508-0.163-0.915-0.163S405.204,113.443,404.839,113.768 M517.042,111.146c0-0.02,0-0.02,0-0.041
			C517.042,111.126,517.042,111.126,517.042,111.146 M179.964,101.509c-1.382,0.386-2.684,0.548-3.943,0.488h-0.163
			c-0.651-0.081-1.302-0.163-1.891-0.345c-0.589-0.143-1.179-0.366-1.688-0.611c-0.02,0.082-0.386,2.825-1.22,5.835
			c-1.077,3.822-2.806,8.356-4.493,11.853c-2.48,5.083-5.835,10.633-8.295,14.272c-3.558,5.245-18.725,23.604-38.77,34.521
			c-22.668,12.319-45.987,11.303-55.522,9.087c-3.192-0.731-4.168-0.995-7.909-2.114c-17.22-5.143-26.125-15.857-26.125-15.857
			s5.408,9.413,17.098,16.935c0.163,0.102,0.163,0.122,0.346,0.203c1.301,0.813,2.683,1.545,4.208,2.236
			c14.272,6.627,32.163,8.844,46.719,6.201c7.441-1.341,22.628-2.866,40.478-15.228c15.817-10.958,29.073-25.331,37.103-39.786
			c2.42-4.391,7.99-15.187,8.681-15.919c0.509-0.548,1.729-1.179,2.42-1.361c0.366-0.082,0.711-0.203,1.057-0.264
			c-0.366-0.468-0.63-0.875-0.955-1.322c-0.793-1.078-1.423-2.136-1.932-3.172c-0.548-1.2-0.975-2.44-1.179-3.721
			c-0.182-1.199-0.264-2.44-0.143-3.801C182.525,100.513,181.224,101.102,179.964,101.509 M81.687,146.256
			c-2.44,1.362-6.099,2.968-9.027,4.046c-0.102,0.02,8.681-1.139,15.227-3.477c5.611-2.013,11.649-5.165,22.16-13.337
			c7.99-6.222,15.695-15.268,18.501-19.152h36.025c0.895-1.85,1.566-3.415,2.136-5.774h-35.132c1.505-2.684,1.912-3.538,2.968-6.017
			c1.627-3.741,5.794-6.791,5.794-6.791s-4.737,0.061-8.62-1.322c-4.087-1.443-6.851-3.965-6.851-3.965
			C117.895,116.289,99.638,136.6,81.687,146.256 M408.111,90.856l-8.844,3.781l6.791,3.802l0.141,12.91l6.668-12.91l11.487-3.802
			l-9.433-3.781l-1.179-8.722L408.111,90.856z M113.117,78.027c-4.452,7.563-8.051,12.931-17.606,19.518
			c-3.456,2.338-5.205,4.838-5.794,7.034c-0.793,3.05,0.712,5.388,3.68,5.388c6.465,0,14.068-9.922,18.216-19.843h24.031h69.347
			c0.548,0,0.732,0.345,0.589,0.834c-0.122,0.529-1.016,3.374-12.564,18.338c-0.407,0.509-0.691,0.996-0.712,1.179
			c-0.061,0.163-0.122,0.325,0.184,0.325c0.122,0,0.609-0.325,1.24-0.65c6.547-4.391,17.321-12.462,22.079-13.133
			c4.331-0.691,6.445-2.5,7.035-4.717c1.22-4.534-5.774-9.576-8.274-10.755c-0.123,0-0.366-0.163-0.63-0.163
			c-1.078,0-4.229,2.704-4.941,3.375c-0.711,0.67-1.972,1.341-2.642,1.341h-93.256c0.143-0.509,0.285-1.016,0.407-1.505
			c0.589-2.195,1.992-8.417,1.179-8.417C114.418,76.177,113.829,76.848,113.117,78.027 M308.615,70.301
			c-2.033,1.505-6.851,7.401-8.945,9.759c-0.773,0.813-1.627,1.484-2.42,1.484h-15.43l-1.139,4.208h34.257
			c2.155,0,3.03-1.159,3.273-2.175c0.691-2.52-5.387-13.946-8.213-13.946C309.59,69.631,309.143,69.794,308.615,70.301
			 M409.86,67.09c-1.647,1.666-4.717,5.062-6.77,7.726c-0.629,0.854-1.606,1.016-1.89,1.016h-1.891l-1.118,4.025h16.875
			c1.87,0,2.825-0.996,3.07-2.013c0.874-3.172-3.213-9.088-6.445-11.08c-0.122,0-0.346-0.184-0.732-0.184
			C410.674,66.581,410.226,66.765,409.86,67.09 M667.751,68.655c-3.11,2.013-13.803,6.059-16.752,6.059
			c-0.57,0-2.643-1.078-3.639-1.362l-2.886-4.411c0,0-0.021,0.081-0.041,0.141c-0.163,0.591-1.139,4.677,0.386,8.031
			c2.481,5.306,4.372,4.697,4.372,4.697l0.163-0.082c0.041,0,0.081,0.041,0.143,0.041c0.629,0,1.097-0.223,4.858-2.582
			c3.761-2.338,9.597-5.915,12.483-5.915c0.875,0,1.098,0.325,0.793,1.545c-0.509,1.952-6.79,10.835-14.496,20.289
			c-0.284,0.366-0.548,0.691-0.833,1.057c-6.872,8.376-14.719,16.976-20.677,21.509c-3.232,2.461-4.717,3.558-5.875,7.949
			c-0.936,3.477,0.163,4.372,1.057,4.372c1.341,0,2.948-2.013,5.509-5.266c12.137-15.471,23.949-18.277,28.524-18.277
			c6.647,0,9.067,5.835,6.912,13.887c-3.09,11.567-12.828,19.537-20.127,19.537c-4.411,0-7.258-2.806-6.099-7.075
			c1.098-4.147,5.042-5.713,6.892-5.713c1.748,0,4.432,1.341,3.599,4.472c-0.427,1.566-1.281,2.155-1.789,2.48
			c-0.568,0.346-1.322,0.773-1.422,1.118c-0.184,0.773,0.731,0.895,1.138,0.895c1.83,0,5.408-1.097,6.424-4.92
			c1.118-4.147-2.236-6.851-6.017-6.851c-3.355,0-10.063,2.359-12.056,9.758c-2.155,8.072,4.513,10.654,9.067,10.654
			c9.311,0,26.674-10.085,30.719-25.109c2.766-10.307-5.408-16.955-13.682-16.955c-7.278,0-16.203,5.266-20.818,8.071
			c2.582-3.354,6.749-8.253,11.121-13.275l0.834-0.955c5.895-6.709,11.994-13.48,15.044-16.814c4.899-5.388,5.469-6.058,5.895-7.644
			c0.244-0.916,0.163-1.769-0.061-2.562c-0.346-1.057-1.057-1.952-1.85-2.541c-0.264-0.163-0.488-0.304-0.773-0.406
			c-0.386-0.184-0.793-0.325-1.138-0.325C671.533,66.176,670.638,66.867,667.751,68.655 M574.903,113.566
			c0.854-1.22,5.245-6.974,6.22-8.275c-0.366,1.444-2.236,8.722-2.704,10.369l-4.656,17.444
			C574.435,126.495,574.476,123.954,574.903,113.566 M574.069,95.125c1.525-4.736,5.245-4.736,5.774-4.736
			c1.179,0,3.558,0.223,4.493,3.538l-0.468,1.768c-0.732,2.745-5.225,8.6-8.722,13.114
			C574.922,104.295,574.638,101.306,574.069,95.125 M591.187,65.422c-0.589,2.196-1.586,6.079-2.663,10.41
			c-0.346,1.443-0.711,2.886-1.077,4.37c-0.55,2.257-1.098,4.534-1.586,6.649c-1.627-1.118-3.741-1.118-4.209-1.118
			c-4.35,0-10.104,3.538-11.303,7.969c-0.184,0.651-0.204,0.773,0.752,2.216c0.936,1.525,2.054,10.044,2.277,14.78
			c-1.261,1.566-4.94,6.079-8.742,10.044c-3.639,3.761-4.168,4.311-4.879,6.954c-0.203,0.772-1.302,4.879,0.915,4.879
			c1.016,0,1.768-0.793,2.704-2.216c2.033-3.232,3.579-5.652,10.003-14.699c-0.305,11.162-1.688,17.546-3.009,23.299
			c-1.016,4.738,0.163,7.706,1.566,7.706c1.259,0,3.11-2.196,3.659-4.188c0.345-1.322,1.077-7.584,1.3-9.047
			c1.261-7.827,4.717-21.388,6.059-26.39c0.325-1.199,0.955-3.618,1.626-5.509c8.377-11.262,20.473-20.736,26.227-20.736
			c4.331,0,2.44,7.054,1.829,9.271c-1.118,4.167-1.647,5.143-8.558,21.895c-1.525,3.559-6.668,11.731-7.624,15.269
			c-2.502,9.249-1.22,16,5.408,16c10.023,0,21.002-14.212,21.509-16.102l-0.182-0.407c-0.163,0-0.387,0.184-2.155,1.748
			c-3.68,3.192-8.519,5.083-12.462,5.083c-4.738,0-5.49-3.965-3.986-9.596c0.773-2.907,2.338-7.847,7.461-19.212
			c5.022-11.101,7.258-14.191,8.417-18.48c0.977-3.72-0.305-6.283-1.402-8.254c-0.977-1.809-3.091-2.684-5.388-2.684
			c-1.748,0-4.798,1.586-6.709,2.725c-7.644,4.656-14.577,11.914-18.195,15.553c0.447-2.339,0.284-3.213-0.041-3.986
			c1.159-3.74,2.216-7.095,3.313-10.328c0.489-1.504,0.977-2.988,1.525-4.493l0.386-1.179c0.346-0.996,2.379-6.181,2.664-7.278
			c0.752-2.766-1.078-4.757-2.684-4.757C592.224,61.581,591.715,63.451,591.187,65.422 M461.214,61.784
			c-0.284,1.016,0.529,5.102,0.509,6.078c0,2.664-0.955,6.181-2.948,13.601c-2.886,10.817-5.895,23.157-1.097,23.157
			c0.813,0,1.118-0.325,1.972-1.993c3.497-6.608,10.531-11.365,14.414-11.365c1.016,0,2.765,0.244,2.095,2.766
			c-0.814,2.968-4.311,5.204-7.747,7.278c-16.773,10.389-27.263,16.894-30.13,27.467c-1.931,7.299-0.243,16.244,18.521,16.244
			c3.477,0,14.678,0,16.041-5.184c0.915-3.436-0.975-5.408-3.111-5.408c-0.955,0-1.322,0.223-4.229,1.647
			c-2.825,1.443-8.152,1.89-11.06,1.89c-5.447,0-14.576-0.995-11.933-10.835c0.975-3.538,3.497-8.051,11.426-13.439
			c4.35-2.989,13.235-7.563,18.277-9.535c6.872-2.765,11.344-5.083,12.524-9.494c1.24-4.636-2.502-7.929-6.567-7.686
			c-1.078,0.082-8.519,1.302-18.298,11.914c-0.834-1.666-0.915-3.984,1.586-13.235c1.016-3.883,2.521-9.189,4.432-14.576
			c0.264-0.671,1.423-3.761,1.606-4.534c0.996-3.638-2.236-6.606-4.208-6.606C462.739,59.934,461.621,60.259,461.214,61.784
			 M496.528,106.754h9.372c-1.911,7.136-3.822,14.028-5.387,19.802h-9.231C492.971,120.315,494.699,113.525,496.528,106.754
			 M501.652,87.624h9.433c-1.361,5.122-2.886,10.551-4.411,16.121h-9.352L501.652,87.624z M508.381,67.272
			c0.163-0.122,0.305-0.345,0.509-0.427h6.994c0.488,0,0.427,0.773,0.284,1.322c-0.874,3.436-2.379,9.454-4.249,16.448h-9.474
			C506.511,69.489,506.775,68.513,508.381,67.272 M503.95,59.161l-0.102,0.671c-0.102,0.833-0.203,1.586-0.326,2.44
			c-0.609,3.7-1.992,9.433-8.152,32.487c-3.924,14.679-8.701,32.244-11.893,42.573l-0.082,0.365c-0.67,2.42,0.061,3.314,1.078,3.314
			c0.366,0,0.752-0.102,1.159-0.284c1.199-0.589,2.479-1.993,2.968-3.823l1.89-7.339h9.129l-0.977,3.679
			c-0.691,2.562,0,3.538,1.037,3.538c1.443,0,3.497-1.768,4.208-4.432c0.041-0.141,0.041-0.141,0.062-0.223
			c2.195-9.453,7.867-31.817,11.994-47.146c1.484-5.591,2.806-10.247,3.659-13.032c0.793-2.786,0.793-2.461,2.236-3.68
			c0.671-0.509,1.81-1.261,2.196-2.379c0.02-0.061,0.061-0.122,0.081-0.182c0.143-0.509,0.021-1.159-0.264-1.83
			c-0.284-0.65-0.711-1.322-1.22-1.952c-0.995-1.24-2.195-2.195-2.704-2.195c-0.304,0-0.529,0.204-0.833,0.406
			c-0.651,0.692-1.586,1.81-2.216,2.705c-0.407,0.548-0.996,0.975-1.403,0.975h-5.469l-0.041-0.082
			c-0.203-0.325-0.915-1.057-1.809-1.911c-1.443-1.382-3.354-2.988-3.943-2.988L503.95,59.161z M528.265,85.184h9.351v0.061
			c-0.223,2.338-0.447,4.066-0.691,5.488c-0.04,0.305-0.081,0.611-0.141,0.875c-0.041,0.244-0.102,0.488-0.123,0.711
			c-0.061,0.326-0.141,0.63-0.202,0.916c-0.264,1.281-0.529,2.379-0.692,3.07c-0.548,2.683-1.077,5.224-1.504,7.786h-5.083h-2.786
			l-0.813,2.886h3.639h4.574c0,0.061-0.041,0.143-0.041,0.203c-0.427,2.704-0.813,5.327-1.118,7.908
			c-0.04,0.184-0.061,0.366-0.081,0.55c-0.305,2.582-0.529,5.062-0.671,7.461v0.041c-0.163,3.029-0.243,5.997-0.081,8.762
			c-0.326,0.102-0.875,0.305-1.484,0.548c-5.591,2.461-10.349,4.209-16.326,5.998c1.769-6.893,5.104-19.253,8.376-31.472h0.041
			l0.793-2.886h-0.061C524.93,97.423,526.8,90.734,528.265,85.184 M532.656,69.712c0.793-2.418,0.934-2.744,2.358-3.74
			c0.082-0.041,0.102-0.082,0.203-0.143l0.773-0.57h19.537c0.325,0,0.548,0.346,0.366,1.016c-0.793,3.355-1.688,6.668-2.766,10.674
			c-0.467,1.668-0.934,3.456-1.443,5.327h-22.648C530.847,75.832,532.188,71.176,532.656,69.712 M530.195,58.47l-0.122,0.813
			c-0.427,3.599-3.558,16.407-13.032,51.822c0,0,0,0,0.02,0c-0.141,0.407-0.223,0.793-0.345,1.22
			c-2.806,10.451-5.672,20.798-7.522,27.467c-4.046,1.22-8.174,1.443-9.699,1.566c-0.813,0-0.833,0.101-0.874,0.202
			c-0.488,1.891,1.729,8.133,2.44,8.133c0.65,0,1.362-1.22,2.095-1.566c16.406-7.237,28.238-15.003,28.685-15.45
			c0.977,14.129,3.172,20.981,10.003,21.733c4.615,0.529,5.795-3.558,6.283-7.013c0.143-0.916,0.081-2.4-0.122-3.416
			c-0.021-0.223,0.081-0.895,0.325-1.768c0.975-3.68,3.761-11.467,4.615-14.578c0.407-1.565,0.345-1.911-0.711,0
			c-4.9,8.763-6.893,13.073-8.966,13.073c-0.061,0-11.466-0.813-5.672-33.728h6.16h11.569c1.362,0,1.931-0.67,2.134-1.443
			c0.427-1.545-1.463-8.092-3.863-8.092c-0.956,0-1.688,0.915-5.936,5.754c-0.223,0.345-0.834,0.609-1.3,0.752
			c-0.123,0.041-0.244,0.082-0.346,0.082c-0.082,0.04-0.182,0.061-0.204,0.061h-0.041h-7.644c0.447-2.318,0.996-4.879,1.545-7.116
			h0.021c0.893-2.093,1.463-2.704,2.52-3.924c0.773-0.874,1.707-1.688,2.461-2.318c0.854-0.67,1.504-1.138,1.504-1.138
			s-1.565,0.02-3.599-0.875c-0.081-0.04-0.182-0.061-0.264-0.102c-1.688-0.813-3.517-2.602-4.29-3.374h6.283
			c-0.041-0.021-0.041-0.041-0.061-0.061h6.688l-0.793,2.663l-0.061,0.122c-0.55,2.114,0.122,2.888,1.057,2.888
			c1.362,0,3.476-1.647,4.147-4.127l0.02-0.102c1.546-6.445,2.034-9.678,3.07-13.56c1.037-3.904,1.505-5.022,3.05-5.998
			c0.955-0.691,2.114-1.361,2.399-2.479c0.041-0.143,0.082-0.346,0.082-0.57c0-0.223-0.041-0.468-0.122-0.752
			c-0.082-0.407-0.611-1.139-1.261-1.891c-1.078-1.261-2.521-2.541-3.029-2.541c-0.326,0-0.55,0.102-1.607,1.281
			c-0.366,0.407-0.833,0.915-1.402,1.606c-0.448,0.55-0.732,0.651-1.139,0.651h-18.582l-0.366-0.305
			c-0.102-0.122-0.833-0.671-1.788-1.341c-1.607-1.139-3.721-2.582-4.168-2.582L530.195,58.47z M392.924,49.342
			c-0.386,0.223-0.752,0.447-1.118,0.67c-1.992,1.139-3.984,1.973-5.184,2.034c1.912,0,4.9,3.151,4.372,5.672
			c-0.082,0.204-0.122,0.406-0.163,0.57l-4.738,17.545c-5.204-0.163-13.032-0.834-21.388-2.338
			c-0.568,2.175,1.586,8.213,3.721,8.213h0.141c6.588-0.977,12.504-1.647,16.448-1.85c-2.134,8.051-5.509,20.493-8.315,30.719
			c-1.037,2.827-5.449,5.652-7.34,5.693c1.139,0.04,2.582,0.793,3.904,1.85c0.386,0.284,0.752,0.589,1.118,0.934
			c1.688,1.586,4.554,4.006,4.27,5.124c0.284-1.098,3.517-3.436,5.916-4.981c2.44-1.566,5.224-2.888,6.708-2.927
			c-0.589,0-1.22-0.346-1.89-0.793c-1.505-1.057-2.847-3.111-2.541-4.839c2.825-10.632,6.099-22.933,8.192-30.78h0.123l1.118-4.025
			h-0.021c2.257-8.437,3.741-13.865,4.941-18.094h0.041c0.711-2.013,3.151-4.025,5.183-5.042c0.814-0.386,1.586-0.63,2.136-0.65
			c-1.343-0.102-3.091-1.118-4.615-2.44c-1.891-1.627-4.473-4.27-4.148-5.49C399.492,45.276,395.506,47.735,392.924,49.342
			 M132.492,59.018c0.325-1.159,0.589-2.195,0.813-3.008c0.284-0.875,0.447-1.505,0.61-1.952l0.935-3.416h16.163l-0.061,0.305
			c-0.183,1.688-2.317,10.551-3.476,14.983c-0.244,0.834-0.529,1.85-0.732,2.684h-0.102h-16.569
			C130.907,64.915,131.76,61.722,132.492,59.018 M155.628,63.065c0.02-0.123,0.081-0.244,0.102-0.387l3.029-12.035h16.366
			l-0.793,2.888c-0.285,1.341-0.773,3.334-1.85,7.36c-0.63,2.338-1.627,5.042-2.338,7.726h-15.879
			C154.856,66.419,155.181,64.731,155.628,63.065 M178.887,64.569c0.243-0.975,0.488-1.809,0.711-2.622l2.827-11.304h16.934
			l-0.752,2.806c-0.65,3.172-1.322,5.652-1.911,7.929c-0.691,2.521-1.281,4.717-2.073,7.238H194.5h-16.692
			C178.256,66.928,178.581,65.747,178.887,64.569 M128.386,39.705c-0.081,0.325,0,0.488-0.122,0.995
			c-0.529,6.059-2.358,15.31-2.907,17.323c-0.976,3.699-1.911,6.22-5.387,16.141c-0.041,0.164-0.102,0.346-0.122,0.509
			c-0.731,2.663,0.691,3.863,2.562,3.863c3.924,0,6.059-3.538,6.404-4.717l0.203-0.854h64.304l-0.325,1.199
			c-0.041,0.164-0.041,0.164-0.102,0.346c-0.752,2.825,0.529,4.025,2.42,4.025c2.968,0,5.754-2.359,6.465-5.57
			c1.22-6.038,1.22-7.563,2.175-11.08c1.382-5.205,2.155-6.039,4.413-7.401c1.727-0.996,3.74-2.034,4.208-3.7
			c1.037-3.863-6.729-9.576-7.806-9.576c-0.793,0-1.789,0.671-5.327,4.372c-0.752,0.854-1.341,0.995-2.013,0.995h-58.227
			l-0.102-0.141c-2.5-2.704-9.799-7.075-10.348-7.075C128.63,39.359,128.447,39.522,128.386,39.705 M277.733,38.282
			c-2.196,1.281-4.372,2.256-5.957,2.581c-0.243,0.041-0.548,0.123-0.752,0.143c0.244,0,0.509,0.082,0.752,0.143
			c1.281,0.386,2.725,1.606,3.62,3.09c0.711,1.159,1.097,2.461,0.854,3.62c-0.264,1.24-0.509,2.44-0.854,3.699l-8.051,29.988h-3.314
			c-6.994,0-22.018-0.488-34.074-2.663c-0.589,2.175,1.423,8.721,3.7,8.721h0.143c11.426-1.504,21.57-1.85,28.422-1.85h4.004
			c-3.74,13.906-7.685,27.568-10.998,39.868h-0.021c-0.468,1.282-1.525,2.582-2.806,3.68c-2.073,1.829-4.717,3.131-6.16,3.172
			c1.789,0.102,4.249,1.626,6.16,3.476c1.952,1.85,4.473,5.145,4.107,6.486c0.366-1.302,4.533-4.554,7.401-6.424
			c2.968-1.891,6.281-3.457,8.09-3.538c-1.382,0-3.272-1.403-4.431-3.172c-0.752-1.118-1.159-2.44-0.936-3.618
			c3.254-12.199,7.115-25.677,10.958-39.93h0.061l1.139-4.208h-0.082c4.432-16.489,7.868-29.317,9.108-33.342
			c0.021-0.122,0.061-0.223,0.082-0.345h0.081c0.448-1.282,1.484-2.521,2.684-3.62c2.054-1.85,4.656-3.211,6.12-3.232
			c-1.546-0.081-3.538-1.22-5.307-2.704c-2.379-1.993-4.818-5.713-4.431-7.258C286.657,32.569,281.148,36.289,277.733,38.282
			 M416.467,38.586c-0.65,0.855-1.666,1.18-2.073,1.18h-14.537c-4.818,0-17.87-0.509-29.56-2.521
			c-0.609,2.196,1.688,8.234,3.822,8.234h0.143c8.376-1.159,16.732-1.688,21.468-1.83h10.776c0,0,0,0-0.02,0h23.136
			c2.154,0,3.008-1.179,3.272-2.195c0.489-1.85-2.622-9.759-6.831-12.117c-0.223-0.143-0.65-0.143-1.016-0.143
			C424.355,29.194,424.071,29.194,416.467,38.586 M210.845,24.579c-0.609,0.834-1.727,1.484-2.561,1.484h-8.051h-3.131l-0.814,3.863
			H226.5c2.277,0,3.029-0.834,3.314-1.85c0.854-3.172-4.88-11.914-7.827-13.439c-0.264,0-0.509-0.163-0.895-0.163
			C218.815,14.475,210.845,24.579,210.845,24.579 M323.395,24.904c-0.63,0.834-1.727,1.525-2.561,1.525h-41.82
			c-7.665,0-27.12-0.691-40.173-2.725c-0.589,2.196,1.707,8.763,4.127,8.763h0.122c12.24-1.525,26.857-1.85,34.257-1.85h5.652v0.041
			h14.191l-0.081-0.041h42.226c2.175,0,3.05-0.854,3.334-1.85c0.589-2.175-3.7-12.767-7.745-14.78c-0.264,0-0.488-0.163-0.875-0.163
			C332.422,13.825,328.457,18.52,323.395,24.904 M363.141,32.63c1.22-4.534,1.423-5.388,4.208-7.217
			c0.509-0.346,0.996-0.671,1.362-1.018h76.26c0.934,0,1.422,1.159,1.118,2.339c-3.639,16-14.476,57.514-24.132,93.5
			c-1.83,6.871-3.68,13.784-5.347,19.984h-83.233C343.603,102.567,359.38,46.088,363.141,32.63 M357.997,12.137
			c-0.082,0.325-0.163,0.671-0.163,1.159c-0.651,6.892-4.331,22.2-5.591,26.897c-1.464,5.388-2.948,11.446-4.758,18.155
			c-7.867,29.417-19.13,69.448-27.06,93.987l-0.163,0.671c-0.955,3.536,0.386,5.042,2.541,5.042c2.704,0,6.445-2.521,7.502-6.404
			l1.85-6.872h83.233l-1.932,7.217c-0.955,3.538,0.489,5.225,2.623,5.225c2.704,0,6.322-2.521,7.461-6.729l0.102-0.346
			c5.306-22.872,18.866-76.991,25.84-103.054c4.513-16.814,4.838-16.976,7.36-18.318c2.806-1.525,4.92-2.866,5.408-4.717
			c0.955-3.518-7.502-11.101-8.844-11.101c-1.484,0-5.306,4.209-6.302,5.388c-0.752,0.854-1.748,1.525-2.42,1.525h-74.226
			l-0.407-0.509c-2.683-3.009-10.835-7.746-11.628-7.746L357.997,12.137z M154.754,7.685c-1.708,1.077-3.314,1.911-4.331,1.972
			c2.521,0,3.68,3.07,2.968,5.611l-2.642,10.694c-0.509-0.02-0.996-0.041-1.546-0.041c-13.256-0.325-36.31-1.036-45.702-2.541
			c-0.59,2.175,1.362,8.417,3.801,8.417h0.122c8.762-1.077,28.808-1.606,40.783-1.789c0.548-0.02,1.037-0.02,1.545-0.02
			l-0.081,0.407c-0.732,2.52-3.659,5.59-6.201,5.59l-0.02,0.061c2.948,0,7.766,6.73,6.933,9.699c0.223-0.753,0.895-1.709,1.85-2.725
			c0.386-0.447,0.874-0.895,1.362-1.362c2.602-2.399,6.079-4.756,8.234-5.387c0.365-0.123,0.731-0.225,1.016-0.225l0.02-0.081
			c-0.345,0-0.65-0.082-0.936-0.184c-1.788-0.711-2.561-3.252-1.931-5.387l0.082-0.407h0.02l0.915-3.924h-0.061l2.42-10.796
			c0.711-2.521,3.599-5.57,6.119-5.611c-0.508-0.02-1.036-0.264-1.606-0.611c-2.786-1.686-5.916-6.627-5.225-9.046
			C162.114,1.931,158.21,5.469,154.754,7.685 M187.222,8.09c-0.284,0.164-0.57,0.346-0.834,0.468
			c-1.118,0.63-2.134,1.037-2.866,1.098c1.159,0,2.013,0.671,2.562,1.606c0.63,1.118,0.813,2.643,0.427,4.006l-2.664,10.796h-1.606
			h-18.216l-0.936,3.924h0.184c0-0.02,0.02-0.041,0.02-0.061h18.034h0.529c0,0.02-0.021,0.041-0.021,0.061h1.037l-0.082,0.407
			c-0.345,1.118-1.077,2.317-2.033,3.334c-1.22,1.3-2.745,2.256-4.168,2.256l-0.02,0.061c0.895,0,1.931,0.651,2.948,1.566
			c1.138,1.037,2.236,2.42,2.988,3.863c0.284,0.529,0.509,1.057,0.691,1.545c0.366,1.016,0.529,1.972,0.305,2.725
			c0.223-0.753,0.895-1.709,1.85-2.725c1.809-1.952,4.595-4.147,6.994-5.55c1.443-0.833,2.765-1.423,3.599-1.423l0.02-0.081
			c-2.418-0.102-3.558-3.09-2.845-5.57l0.101-0.468h0.082l0.834-3.863h-0.061l1.565-6.974l0.895-4.168h0.082
			c0.02-0.061,0.061-0.122,0.081-0.182c0.448-1.159,1.302-2.379,2.338-3.314c0.387-0.365,0.793-0.67,1.2-0.915
			c0.793-0.508,1.586-0.834,2.379-0.854c-0.732-0.02-1.545-0.447-2.379-1.118c-2.541-2.034-5.063-6.343-4.452-8.538
			C195.212,2.052,190.841,5.936,187.222,8.09"/>
	</defs>
	<clipPath id="SVGID_00000132796093190730923260000004727478305664497825_">
		<use xlink:href="#SVGID_00000171698091465333156290000017874469059067285176_"  overflow="visible"/>
	</clipPath>
	
		<linearGradient id="SVGID_00000157272379251174954820000001792956647828369049_" gradientUnits="userSpaceOnUse" x1="-150.497" y1="740.1691" x2="-130.1666" y2="740.1691" gradientTransform="matrix(0 -9.1149 -9.1149 0 7101.9683 -1186.4634)">
		<stop  offset="0" style="stop-color:#CAA85B"/>
		<stop  offset="0.3813" style="stop-color:#B98C3D"/>
		<stop  offset="0.7196" style="stop-color:#AE7A29"/>
		<stop  offset="0.95" style="stop-color:#AA7322"/>
		<stop  offset="1" style="stop-color:#AA7322"/>
	</linearGradient>
	
		<rect x="29.946" clip-path="url(#SVGID_00000132796093190730923260000004727478305664497825_)" fill="url(#SVGID_00000157272379251174954820000001792956647828369049_)" width="650.899" height="186.856"/>
</g>
<g>
	<defs>
		<path id="SVGID_00000019643431013033225330000014301765424106408070_" d="M148.025,370.053c0,1.464,1.382,2.074,2.866,2.074
			c2.155,0,3.68-1.565,3.68-1.565l-0.204-0.183c0,0-1.098,1.057-2.317,1.057c-1.119,0-1.748-0.509-1.748-1.708
			c0-1.647,1.667-3.782,3.029-3.782c0.325,0,0.529,0.143,0.529,0.468c0,1.098-1.403,2.358-2.765,2.358
			c-0.102,0-0.163,0.02-0.163,0.102c0,0.163,0.326,0.223,0.651,0.223c1.931,0,3.68-0.976,3.68-2.317
			c0-0.732-0.813-1.179-2.114-1.179C151.014,365.601,148.025,367.492,148.025,370.053 M157.946,370.053
			c0,1.464,1.403,2.074,2.907,2.074c2.114,0,3.639-1.565,3.639-1.565l-0.184-0.183c0,0-1.097,1.057-2.358,1.057
			c-1.098,0-1.688-0.509-1.688-1.708c0-1.647,1.647-3.782,2.988-3.782c0.326,0,0.529,0.143,0.529,0.468
			c0,1.098-1.382,2.358-2.765,2.358c-0.081,0-0.163,0.02-0.163,0.102c0,0.163,0.346,0.223,0.65,0.223c1.952,0,3.68-0.976,3.68-2.317
			c0-0.732-0.813-1.179-2.114-1.179C160.975,365.601,157.946,367.492,157.946,370.053 M170.673,370.359
			c0-0.447,0.447-1.565,0.752-2.073c0.548-1.017,1.972-2.033,2.847-2.033c0.629,0,0.893,0.386,0.893,1.138
			c0,2.236-1.545,4.188-3.17,4.188C171.445,371.578,170.673,371.212,170.673,370.359 M171.731,367.248c0,0,0.202-0.488,0.202-0.793
			c0-0.529-0.345-0.854-1.138-0.854c-1.037,0-2.541,1.098-3.05,1.464l0.203,0.203c0,0,0.996-0.712,1.341-0.712
			c0.326,0,0.366,0.163,0.366,0.387c0,0.325-1.158,3.497-2.134,6.221c-0.65,1.769-1.402,3.68-1.707,4.127
			c-0.223,0.406-0.589,0.569-0.589,0.671s0.061,0.122,0.122,0.122c0.122,0,0.386-0.224,1.037-0.224c0.548,0,0.934,0.081,1.259,0.081
			c0.305,0,0.427-0.081,0.427-0.386c0-0.671,1.586-5.184,2.277-6.648c0.244,0.548,0.916,1.22,2.4,1.22
			c2.175,0,4.736-2.033,4.736-4.737c0-1.261-0.915-1.789-2.074-1.789C174.108,365.601,172.482,366.455,171.731,367.248
			 M180.289,367.065l0.204,0.203c0,0,1.016-0.712,1.382-0.712c0.285,0,0.346,0.163,0.346,0.387c0,1.057-1.748,2.683-1.748,3.842
			c0,0.793,0.65,1.342,1.586,1.342c1.484,0,3.252-1.565,3.252-1.565l-0.244-0.183c0,0-0.893,0.772-1.524,0.772
			c-0.448,0-0.671-0.183-0.671-0.651c0-1.077,1.688-2.887,1.688-4.046c0-0.529-0.427-0.854-1.2-0.854
			C182.323,365.601,180.817,366.699,180.289,367.065 M191.593,368.244c0,0,0.589-1.24,0.589-1.789c0-0.529-0.386-0.854-1.159-0.854
			c-1.057,0-2.561,1.098-3.029,1.464l0.204,0.203c0,0,0.995-0.712,1.361-0.712c0.285,0,0.366,0.163,0.366,0.387
			c0,0.529-0.996,3.314-1.768,4.554c-0.223,0.366-0.589,0.569-0.589,0.65c0,0.082,0.061,0.122,0.141,0.122
			c0.123,0,0.387-0.204,0.996-0.204c0.589,0,0.977,0.061,1.261,0.061c0.305,0,0.468-0.061,0.468-0.366
			c0-0.427,0.752-2.44,1.322-3.131c1.098-1.322,2.765-2.114,3.354-2.114c0.386,0,0.589,0.163,0.589,0.488
			c0,1.078-1.788,2.501-1.788,3.842c0,0.773,0.65,1.281,1.686,1.281c1.647,0,3.213-1.565,3.213-1.565l-0.203-0.183
			c0,0-0.834,0.772-1.627,0.772c-0.406,0-0.65-0.183-0.65-0.651c0-1.524,1.505-2.623,1.505-3.903c0-0.57-0.55-0.996-1.261-0.996
			C195.008,365.601,192.69,367.024,191.593,368.244 M250.572,367.797c0.081-0.142,0.264-0.813,0.264-1.342
			c0-0.529-0.387-0.854-1.159-0.854c-1.037,0-2.541,1.098-3.009,1.464l0.163,0.203c0,0,1.016-0.712,1.382-0.712
			c0.285,0,0.346,0.163,0.346,0.387c0,0.529-0.977,3.314-1.748,4.554c-0.225,0.366-0.589,0.569-0.589,0.65
			c0,0.082,0.081,0.122,0.122,0.122c0.143,0,0.407-0.204,1.036-0.204c0.57,0,0.955,0.061,1.261,0.061
			c0.285,0,0.448-0.061,0.448-0.366c0-0.427,0.854-2.704,1.484-3.415c0.833-0.955,1.382-1.708,1.952-1.708
			c0.141,0,0.264,0.081,0.264,0.244c0,0.346,0.264,0.63,0.813,0.63c0.711,0,1.138-0.508,1.138-1.037
			c0-0.467-0.488-0.874-1.077-0.874C252.625,365.601,251.12,366.943,250.572,367.797 M257.158,367.065l0.204,0.203
			c0,0,1.016-0.712,1.382-0.712c0.264,0,0.366,0.163,0.366,0.387c0,1.057-1.789,2.683-1.789,3.842c0,0.793,0.671,1.342,1.586,1.342
			c1.484,0,3.273-1.565,3.273-1.565l-0.244-0.183c0,0-0.895,0.772-1.545,0.772c-0.427,0-0.67-0.183-0.67-0.651
			c0-1.077,1.686-2.887,1.686-4.046c0-0.529-0.406-0.854-1.199-0.854C259.171,365.601,257.667,366.699,257.158,367.065
			 M268.462,368.244c0,0,0.568-1.24,0.568-1.789c0-0.529-0.366-0.854-1.158-0.854c-1.037,0-2.541,1.098-3.03,1.464l0.203,0.203
			c0,0,0.996-0.712,1.362-0.712c0.305,0,0.366,0.163,0.366,0.387c0,0.529-0.977,3.314-1.748,4.554
			c-0.244,0.366-0.611,0.569-0.611,0.65c0,0.082,0.082,0.122,0.163,0.122c0.123,0,0.366-0.204,0.977-0.204
			c0.609,0,0.975,0.061,1.281,0.061c0.305,0,0.468-0.061,0.468-0.366c0-0.427,0.752-2.44,1.3-3.131
			c1.098-1.322,2.766-2.114,3.355-2.114c0.386,0,0.589,0.163,0.589,0.488c0,1.078-1.769,2.501-1.769,3.842
			c0,0.773,0.63,1.281,1.668,1.281c1.647,0,3.232-1.565,3.232-1.565l-0.203-0.183c0,0-0.834,0.772-1.627,0.772
			c-0.427,0-0.65-0.183-0.65-0.651c0-1.524,1.484-2.623,1.484-3.903c0-0.57-0.548-0.996-1.261-0.996
			C271.877,365.601,269.559,367.024,268.462,368.244 M278.241,370.053c0,1.464,1.525,2.074,2.888,2.074
			c2.114,0,3.659-1.565,3.659-1.565l-0.204-0.183c0,0-1.098,1.057-2.236,1.057c-1.2,0-1.83-0.59-1.83-1.769
			c0-1.81,1.627-3.721,3.355-3.721c0.284,0,0.468,0.122,0.468,0.366c0,0.366-0.55,0.63-0.55,1.078c0,0.264,0.366,0.529,0.915,0.529
			c0.591,0,1.098-0.366,1.098-0.976c0-0.813-0.895-1.342-2.114-1.342C281.555,365.601,278.241,367.248,278.241,370.053
			 M287.898,370.053c0,1.464,1.382,2.074,2.886,2.074c2.155,0,3.659-1.565,3.659-1.565l-0.182-0.183c0,0-1.098,1.057-2.338,1.057
			c-1.118,0-1.729-0.509-1.729-1.708c0-1.647,1.668-3.782,3.029-3.782c0.325,0,0.509,0.143,0.509,0.468
			c0,1.098-1.382,2.358-2.745,2.358c-0.081,0-0.182,0.02-0.182,0.102c0,0.163,0.345,0.223,0.67,0.223
			c1.952,0,3.659-0.976,3.659-2.317c0-0.732-0.793-1.179-2.113-1.179C290.927,365.601,287.898,367.492,287.898,370.053
			 M333.601,368.244c0,0,0.57-1.24,0.57-1.789c0-0.529-0.366-0.854-1.159-0.854c-1.037,0-2.541,1.098-3.009,1.464l0.182,0.203
			c0,0,0.996-0.712,1.362-0.712c0.305,0,0.366,0.163,0.366,0.387c0,0.529-0.975,3.314-1.748,4.554
			c-0.244,0.366-0.589,0.569-0.589,0.65c0,0.082,0.081,0.122,0.143,0.122c0.122,0,0.366-0.204,0.995-0.204
			c0.591,0,0.996,0.061,1.261,0.061c0.305,0,0.468-0.061,0.468-0.366c0-0.427,0.752-2.44,1.322-3.131
			c1.077-1.322,2.745-2.114,3.354-2.114c0.366,0,0.57,0.163,0.57,0.488c0,1.078-1.768,2.501-1.768,3.842
			c0,0.773,0.63,1.281,1.667,1.281c1.668,0,3.232-1.565,3.232-1.565l-0.203-0.183c0,0-0.833,0.772-1.626,0.772
			c-0.427,0-0.651-0.183-0.651-0.651c0-1.524,1.505-2.623,1.505-3.903c0-0.57-0.57-0.996-1.281-0.996
			C337.016,365.601,334.719,367.024,333.601,368.244 M387.334,370.053c0,1.464,1.382,2.074,2.866,2.074
			c2.155,0,3.68-1.565,3.68-1.565l-0.203-0.183c0,0-1.078,1.057-2.318,1.057c-1.118,0-1.729-0.509-1.729-1.708
			c0-1.647,1.647-3.782,3.029-3.782c0.305,0,0.509,0.143,0.509,0.468c0,1.098-1.402,2.358-2.765,2.358
			c-0.102,0-0.163,0.02-0.163,0.102c0,0.163,0.325,0.223,0.65,0.223c1.952,0,3.659-0.976,3.659-2.317
			c0-0.732-0.813-1.179-2.093-1.179C390.343,365.601,387.334,367.492,387.334,370.053 M431.817,367.065l0.163,0.203
			c0,0,1.016-0.712,1.362-0.712c0.305,0,0.366,0.163,0.366,0.387c0,1.057-1.748,2.683-1.748,3.842c0,0.793,0.63,1.342,1.586,1.342
			c1.484,0,3.232-1.565,3.232-1.565l-0.203-0.183c0,0-0.915,0.772-1.545,0.772c-0.468,0-0.651-0.183-0.651-0.651
			c0-1.077,1.668-2.887,1.668-4.046c0-0.529-0.407-0.854-1.2-0.854C433.81,365.601,432.326,366.699,431.817,367.065 M443.1,368.244
			c0,0,0.57-1.24,0.57-1.789c0-0.529-0.386-0.854-1.179-0.854c-1.018,0-2.521,1.098-3.009,1.464l0.204,0.203
			c0,0,0.996-0.712,1.341-0.712c0.305,0,0.366,0.163,0.366,0.387c0,0.529-0.975,3.314-1.748,4.554
			c-0.223,0.366-0.57,0.569-0.57,0.65c0,0.082,0.061,0.122,0.102,0.122c0.163,0,0.407-0.204,1.037-0.204
			c0.568,0,0.955,0.061,1.259,0.061c0.264,0,0.448-0.061,0.448-0.366c0-0.427,0.732-2.44,1.341-3.131
			c1.057-1.322,2.745-2.114,3.334-2.114c0.407,0,0.589,0.163,0.589,0.488c0,1.078-1.788,2.501-1.788,3.842
			c0,0.773,0.65,1.281,1.686,1.281c1.648,0,3.213-1.565,3.213-1.565l-0.182-0.183c0,0-0.875,0.772-1.647,0.772
			c-0.407,0-0.651-0.183-0.651-0.651c0-1.524,1.505-2.623,1.505-3.903c0-0.57-0.55-0.996-1.261-0.996
			C446.475,365.601,444.198,367.024,443.1,368.244 M497.037,368.488c0,0,0.488-1.159,0.488-1.87c0-0.59-0.488-1.017-1.402-1.017
			c-1.627,0-3.254,1.423-4.27,2.643c0.082-0.163,0.529-1.24,0.529-1.789c0-0.529-0.346-0.854-1.118-0.854
			c-1.057,0-2.541,1.098-3.07,1.464l0.223,0.203c0,0,0.977-0.712,1.341-0.712c0.285,0,0.428,0.163,0.428,0.387
			c0,0.691-0.957,3.212-1.729,4.554c-0.204,0.366-0.589,0.569-0.589,0.65c0,0.082,0.081,0.122,0.122,0.122
			c0.163,0,0.407-0.204,1.037-0.204c0.568,0,0.975,0.061,1.259,0.061c0.264,0,0.448-0.061,0.448-0.366c0-0.427,0.711-2.48,1.3-3.192
			c1.078-1.322,2.257-2.155,2.786-2.155c0.386,0,0.589,0.264,0.589,0.589c0,0.793-0.711,3.049-1.423,4.493
			c-0.202,0.406-0.467,0.508-0.467,0.589s0.04,0.143,0.141,0.143c0.123,0,0.366-0.163,0.793-0.163c0.529,0,0.915,0.061,1.241,0.061
			c0.304,0,0.427-0.061,0.427-0.366c0-0.427,0.752-2.501,1.341-3.192c1.057-1.322,2.44-2.053,3.152-2.053
			c0.365,0,0.568,0.163,0.568,0.488c0,1.078-1.829,2.501-1.829,3.842c0,0.773,0.67,1.281,1.688,1.281
			c1.727,0,3.252-1.565,3.252-1.565l-0.223-0.183c0,0-0.834,0.772-1.607,0.772c-0.406,0-0.67-0.183-0.67-0.651
			c0-1.524,1.504-2.623,1.504-3.903c0-0.57-0.529-0.996-1.24-0.996C500.371,365.601,498.074,367.065,497.037,368.488
			 M576.753,367.797c0.061-0.142,0.264-0.813,0.264-1.342c0-0.529-0.407-0.854-1.18-0.854c-1.036,0-2.52,1.098-3.008,1.464
			l0.202,0.203c0,0,0.996-0.712,1.362-0.712c0.284,0,0.346,0.163,0.346,0.387c0,0.529-0.956,3.314-1.769,4.554
			c-0.204,0.366-0.57,0.569-0.57,0.65c0,0.082,0.062,0.122,0.143,0.122c0.122,0,0.366-0.204,0.996-0.204
			c0.589,0,0.975,0.061,1.261,0.061c0.305,0,0.468-0.061,0.468-0.366c0-0.427,0.874-2.704,1.484-3.415
			c0.813-0.955,1.382-1.708,1.951-1.708c0.143,0,0.244,0.081,0.244,0.244c0,0.346,0.264,0.63,0.834,0.63
			c0.711,0,1.118-0.508,1.118-1.037c0-0.467-0.488-0.874-1.057-0.874C578.785,365.601,577.301,366.943,576.753,367.797
			 M582.425,370.053c0,1.464,1.402,2.074,2.907,2.074c2.154,0,3.659-1.565,3.659-1.565l-0.184-0.183c0,0-1.097,1.057-2.358,1.057
			c-1.098,0-1.707-0.509-1.707-1.708c0-1.647,1.667-3.782,3.008-3.782c0.326,0,0.509,0.143,0.509,0.468
			c0,1.098-1.382,2.358-2.745,2.358c-0.102,0-0.163,0.02-0.163,0.102c0,0.163,0.346,0.223,0.65,0.223c1.952,0,3.68-0.976,3.68-2.317
			c0-0.732-0.814-1.179-2.134-1.179C585.454,365.601,582.425,367.492,582.425,370.053 M613.774,368.488c0,0,0.488-1.159,0.488-1.87
			c0-0.59-0.488-1.017-1.382-1.017c-1.627,0-3.232,1.423-4.29,2.643c0.122-0.163,0.548-1.24,0.548-1.789
			c0-0.529-0.345-0.854-1.118-0.854c-1.057,0-2.541,1.098-3.049,1.464l0.202,0.203c0,0,0.996-0.712,1.343-0.712
			c0.284,0,0.406,0.163,0.406,0.387c0,0.691-0.956,3.212-1.686,4.554c-0.203,0.366-0.611,0.569-0.611,0.65
			c0,0.082,0.082,0.122,0.143,0.122c0.122,0,0.366-0.204,0.996-0.204c0.589,0,0.975,0.061,1.259,0.061
			c0.305,0,0.448-0.061,0.448-0.366c0-0.427,0.732-2.48,1.322-3.192c1.098-1.322,2.277-2.155,2.785-2.155
			c0.407,0,0.591,0.264,0.591,0.589c0,0.793-0.712,3.049-1.423,4.493c-0.203,0.406-0.468,0.508-0.468,0.589s0.02,0.143,0.122,0.143
			c0.143,0,0.407-0.163,0.813-0.163c0.529,0,0.916,0.061,1.241,0.061c0.305,0,0.427-0.061,0.427-0.366
			c0-0.427,0.752-2.501,1.341-3.192c1.078-1.322,2.461-2.053,3.131-2.053c0.387,0,0.591,0.163,0.591,0.488
			c0,1.078-1.83,2.501-1.83,3.842c0,0.773,0.671,1.281,1.707,1.281c1.688,0,3.254-1.565,3.254-1.565l-0.244-0.183
			c0,0-0.834,0.772-1.586,0.772c-0.447,0-0.67-0.183-0.67-0.651c0-1.524,1.484-2.623,1.484-3.903c0-0.57-0.55-0.996-1.261-0.996
			C617.149,365.601,614.831,367.065,613.774,368.488 M479.471,370.419c0-2.358,1.118-4.534,2.765-4.534
			c0.834,0,1.322,0.447,1.322,1.261c0,2.175-1.322,4.635-2.825,4.635C479.959,371.782,479.471,371.192,479.471,370.419
			 M477.417,369.83c0,1.586,1.384,2.338,3.273,2.338c2.379,0,4.9-1.87,4.9-4.249c0-1.505-1.343-2.379-3.355-2.379
			C479.573,365.54,477.417,367.573,477.417,369.83 M519.055,370.399c0-2.338,1.077-4.513,2.684-4.513
			c0.813,0,1.281,0.447,1.281,1.261c0,2.175-1.281,4.635-2.725,4.635C519.523,371.782,519.055,371.192,519.055,370.399
			 M517.083,369.83c0,1.565,1.321,2.338,3.17,2.338c2.298,0,4.738-1.87,4.738-4.249c0-1.484-1.322-2.379-3.252-2.379
			C519.157,365.54,517.083,367.573,517.083,369.83 M298.632,367.492c0,1.524,2.603,1.707,2.603,3.11c0,0.61-0.611,1.261-1.525,1.261
			c-0.712,0-1.037-0.326-1.037-0.671c0-0.508,0.57-0.548,0.57-1.098c0-0.366-0.346-0.63-0.793-0.63c-0.65,0-1.261,0.366-1.261,1.016
			c0,1.057,1.139,1.749,2.786,1.749c1.87,0,3.436-0.854,3.436-2.155c0-1.423-2.827-1.728-2.827-3.293
			c0-0.529,0.651-0.955,1.423-0.955c0.448,0,0.651,0.163,0.651,0.427c0,0.467-0.407,0.61-0.407,1.016
			c0,0.305,0.366,0.549,0.834,0.549c0.548,0,1.057-0.346,1.057-0.955c0-0.813-0.875-1.342-2.075-1.342
			C300.564,365.52,298.632,366.171,298.632,367.492 M624.691,367.492c0,1.524,2.602,1.707,2.602,3.11c0,0.61-0.63,1.261-1.525,1.261
			c-0.711,0-1.057-0.326-1.057-0.671c0-0.508,0.57-0.548,0.57-1.098c0-0.366-0.325-0.63-0.793-0.63c-0.65,0-1.261,0.366-1.261,1.016
			c0,1.057,1.139,1.749,2.806,1.749c1.85,0,3.416-0.854,3.416-2.155c0-1.423-2.806-1.728-2.806-3.293
			c0-0.529,0.65-0.955,1.443-0.955c0.407,0,0.63,0.163,0.63,0.427c0,0.467-0.427,0.61-0.427,1.016c0,0.305,0.366,0.549,0.854,0.549
			c0.529,0,1.037-0.346,1.037-0.955c0-0.813-0.875-1.342-2.073-1.342C626.602,365.52,624.691,366.171,624.691,367.492
			 M203.669,369.911c0-1.586,1.443-3.903,3.09-3.903c0.955,0,1.281,0.63,1.281,1.26c0,0.427-0.366,1.505-0.63,2.013
			c-0.589,0.976-1.829,2.135-2.642,2.135C204.035,371.416,203.669,370.908,203.669,369.911 M210.256,365.784
			c-1.097,0.142-1.626,0.529-1.85,1.078c-0.102-0.691-0.732-1.261-1.992-1.261c-2.114,0-5.043,2.033-5.043,4.554
			c0,1.138,0.834,1.972,2.359,1.972c1.545,0,3.152-1.505,3.599-2.237c-0.936,3.659-2.196,7.848-4.595,7.848
			c-0.772,0-1.322-0.447-1.322-0.976c0-0.772,0.895-0.936,0.895-1.667c0-0.387-0.325-0.63-0.813-0.63
			c-0.671,0-1.423,0.549-1.423,1.342c0,1.382,1.341,2.257,3.192,2.257c2.623,0,4.411-1.505,4.92-3.741
			c0.448-1.912,0.813-3.944,1.2-5.184c0.264-0.874,0.529-1.525,1.138-2.379c0.63-0.752,1.464-1.179,1.464-1.179l-0.163-0.284
			C211.822,365.296,211.313,365.682,210.256,365.784 M319.349,369.911c0-1.586,1.423-3.903,3.09-3.903
			c0.977,0,1.302,0.63,1.302,1.26c0,0.427-0.387,1.505-0.651,2.013c-0.589,0.976-1.809,2.135-2.642,2.135
			C319.694,371.416,319.349,370.908,319.349,369.911 M325.936,365.784c-1.098,0.142-1.606,0.529-1.85,1.078
			c-0.081-0.691-0.732-1.261-1.972-1.261c-2.134,0-5.063,2.033-5.063,4.554c0,1.138,0.834,1.972,2.339,1.972
			c1.463,0,3.11-1.383,3.536-2.155c-0.102,0.305-0.102,0.671-0.102,0.955c0,0.61,0.529,1.2,1.505,1.2
			c1.098,0,2.825-1.565,2.825-1.565l-0.204-0.183c0,0-0.915,0.772-1.524,0.772c-0.366,0-0.591-0.163-0.591-0.468
			c0-0.895,0.855-3.07,1.384-3.924c0.508-0.752,1.443-1.179,1.443-1.179l-0.143-0.284
			C327.522,365.296,326.993,365.682,325.936,365.784 M455.176,369.911c0-1.586,1.423-3.903,3.07-3.903
			c0.977,0,1.281,0.63,1.281,1.26c0,0.427-0.365,1.505-0.629,2.013c-0.591,0.976-1.83,2.135-2.643,2.135
			C455.522,371.416,455.176,370.908,455.176,369.911 M461.764,365.784c-1.118,0.142-1.627,0.529-1.871,1.078
			c-0.081-0.691-0.731-1.261-1.972-1.261c-2.134,0-5.061,2.033-5.061,4.554c0,1.138,0.833,1.972,2.378,1.972
			c1.505,0,3.132-1.505,3.579-2.237c-0.936,3.659-2.195,7.848-4.595,7.848c-0.793,0-1.341-0.447-1.341-0.976
			c0-0.772,0.915-0.936,0.915-1.667c0-0.387-0.325-0.63-0.813-0.63c-0.671,0-1.423,0.549-1.423,1.342
			c0,1.382,1.322,2.257,3.172,2.257c2.643,0,4.432-1.505,4.94-3.741c0.468-1.912,0.814-3.944,1.2-5.184
			c0.264-0.874,0.529-1.525,1.138-2.379c0.63-0.752,1.464-1.179,1.464-1.179l-0.163-0.284
			C463.309,365.296,462.78,365.682,461.764,365.784 M594.399,369.911c0-1.586,1.423-3.903,3.111-3.903
			c0.975,0,1.281,0.63,1.281,1.26c0,0.427-0.386,1.505-0.65,2.013c-0.57,0.976-1.81,2.135-2.623,2.135
			C594.765,371.416,594.399,370.908,594.399,369.911 M601.007,365.784c-1.098,0.142-1.607,0.529-1.85,1.078
			c-0.102-0.691-0.752-1.261-1.993-1.261c-2.134,0-5.062,2.033-5.062,4.554c0,1.138,0.854,1.972,2.338,1.972
			s3.131-1.383,3.538-2.155c-0.102,0.305-0.102,0.671-0.102,0.955c0,0.61,0.529,1.2,1.524,1.2c1.078,0,2.806-1.565,2.806-1.565
			l-0.202-0.183c0,0-0.916,0.772-1.525,0.772c-0.346,0-0.57-0.163-0.57-0.468c0-0.895,0.813-3.07,1.341-3.924
			c0.55-0.752,1.464-1.179,1.464-1.179l-0.163-0.284C602.552,365.296,602.043,365.682,601.007,365.784 M370.561,362.795
			c-1.179,0.264-1.87,0.813-2.318,2.114h-0.711l-0.285,0.387h0.875c-0.875,2.338-1.606,4.513-1.606,5.448
			c0,0.773,0.468,1.383,1.727,1.383c1.586,0,3.295-1.565,3.295-1.565l-0.164-0.183c0,0-0.915,0.772-1.788,0.772
			c-0.671,0-0.875-0.325-0.875-0.996c0-0.854,0.834-3.131,1.443-4.859h2.237l0.264-0.387h-2.339
			c0.204-0.468,0.428-0.854,0.651-1.159c0.508-0.793,1.565-1.199,1.565-1.199l-0.182-0.285
			C372.351,362.267,371.985,362.511,370.561,362.795 M183.542,363.324c0,0.529,0.427,0.753,0.915,0.753
			c0.711,0,1.464-0.874,1.464-1.586c0-0.447-0.366-0.671-0.814-0.671C184.396,361.82,183.542,362.653,183.542,363.324
			 M260.391,363.324c0,0.529,0.448,0.753,0.915,0.753c0.712,0,1.464-0.874,1.464-1.586c0-0.447-0.345-0.671-0.793-0.671
			C261.265,361.82,260.391,362.653,260.391,363.324 M435.029,363.324c0,0.529,0.427,0.753,0.915,0.753
			c0.711,0,1.484-0.874,1.484-1.586c0-0.447-0.366-0.671-0.834-0.671C435.883,361.82,435.029,362.653,435.029,363.324
			 M529.525,362.511c-0.387,1.2-0.753,2.399-0.753,2.399h-0.65l-0.244,0.387h0.773c-0.691,2.744-2.074,8.132-4.595,8.823
			l-0.02,0.203c1.138,0,3.436-0.61,4.574-2.42c1.018-1.626,1.545-4.046,2.114-6.607h2.054l0.264-0.387h-2.195
			c0,0,0.325-1.464,0.529-2.196c0.508-1.789,1.179-2.785,2.154-2.785c0.203,0,0.387,0.122,0.387,0.366
			c0,0.386-0.509,0.589-0.55,1.118c0,0.305,0.305,0.549,0.814,0.549c0.691,0,1.158-0.529,1.158-1.057
			c0-0.671-0.731-1.322-1.911-1.322C532.106,359.583,530.256,360.376,529.525,362.511 M144.406,359.787
			c-0.529,0-0.854-0.082-0.854-0.082l-0.224,0.305c0,0,0.549,0.122,1.139,0.122c0.163,0,0.285,0,0.427-0.041
			c-0.61,0.305-1.199,0.772-1.423,1.545c-1.24,4.025-2.786,7.99-2.786,9.027c0,0.936,0.407,1.464,1.647,1.464
			c1.464,0,3.212-1.565,3.212-1.565l-0.223-0.183c0,0-0.895,0.772-1.667,0.772c-0.509,0-0.813-0.224-0.813-0.772
			c0-1.322,2.541-8.356,3.456-9.657c0.549-0.793,1.525-1.322,1.525-1.322l-0.142-0.224
			C146.296,359.685,145.138,359.787,144.406,359.787 M345.677,369.911c0-1.586,1.423-3.903,3.09-3.903
			c0.977,0,1.282,0.529,1.282,1.158c0,0.447-0.387,1.606-0.63,2.114c-0.589,0.976-1.809,2.135-2.643,2.135
			C346.023,371.416,345.677,370.908,345.677,369.911 M352.956,359.787c-0.55,0-0.855-0.082-0.855-0.082l-0.243,0.305
			c0,0,0.548,0.122,1.159,0.122c0.163,0,0.304,0,0.427-0.041c-0.589,0.285-1.18,0.691-1.382,1.382
			c-0.387,1.301-1.586,4.981-1.586,4.981c-0.225-0.386-0.814-0.854-2.054-0.854c-2.134,0-5.042,2.033-5.042,4.554
			c0,1.138,0.833,1.972,2.338,1.972c1.463,0,3.111-1.383,3.538-2.155c-0.061,0.305-0.061,0.671-0.061,0.955
			c0,0.61,0.508,1.2,1.524,1.2c1.078,0,2.806-1.565,2.806-1.565l-0.204-0.183c0,0-0.915,0.772-1.524,0.772
			c-0.346,0-0.57-0.163-0.57-0.468c0-0.549,0.772-2.623,1.036-3.517c0.957-2.724,1.77-5.326,2.562-6.444
			c0.548-0.793,1.525-1.322,1.525-1.322l-0.102-0.224C354.826,359.685,353.687,359.787,352.956,359.787 M378.653,359.787
			c-0.57,0-0.834-0.082-0.834-0.082l-0.264,0.305c0,0,0.589,0.122,1.179,0.122c0.123,0,0.244,0,0.387-0.041
			c-0.63,0.305-1.098,0.793-1.403,1.565c-0.223,0.61-1.22,3.883-2.093,6.506c-0.55,1.565-0.814,2.562-1.322,3.293
			c-0.264,0.447-0.57,0.63-0.57,0.712c0,0.102,0.061,0.122,0.102,0.122c0.163,0,0.345-0.203,0.955-0.203
			c0.57,0,0.936,0.081,1.281,0.081c0.285,0,0.448-0.081,0.448-0.386c0-0.366,0.508-2.155,1.259-3.03
			c1.078-1.341,2.766-2.236,3.416-2.236c0.386,0,0.609,0.163,0.609,0.488c0,1.078-1.768,2.501-1.768,3.842
			c0,0.773,0.711,1.281,1.668,1.281c1.565,0,3.232-1.565,3.232-1.565l-0.244-0.183c0,0-0.895,0.772-1.525,0.772
			c-0.427,0-0.752-0.183-0.752-0.651c0-1.443,1.484-2.623,1.484-3.944c0-0.548-0.447-0.955-1.22-0.955
			c-1.627,0-3.924,1.464-5.002,2.664c0,0,2.034-6.425,2.868-7.543c0.508-0.793,1.504-1.322,1.504-1.322l-0.102-0.224
			C380.544,359.685,379.364,359.787,378.653,359.787 M466.907,369.911c0-1.586,1.423-3.903,3.09-3.903
			c0.977,0,1.302,0.529,1.302,1.158c0,0.447-0.407,1.606-0.671,2.114c-0.57,0.976-1.809,2.135-2.602,2.135
			C467.252,371.416,466.907,370.908,466.907,369.911 M474.185,359.787c-0.548,0-0.833-0.082-0.833-0.082l-0.285,0.305
			c0,0,0.611,0.122,1.179,0.122c0.164,0,0.305,0,0.407-0.041c-0.57,0.285-1.159,0.691-1.341,1.382
			c-0.386,1.301-1.607,4.981-1.607,4.981c-0.202-0.386-0.813-0.854-2.033-0.854c-2.155,0-5.083,2.033-5.083,4.554
			c0,1.138,0.875,1.972,2.359,1.972c1.463,0,3.11-1.383,3.517-2.155c-0.041,0.305-0.041,0.671-0.041,0.955
			c0,0.61,0.509,1.2,1.525,1.2c1.057,0,2.825-1.565,2.825-1.565l-0.223-0.183c0,0-0.915,0.772-1.545,0.772
			c-0.325,0-0.548-0.163-0.548-0.468c0-0.549,0.752-2.623,1.036-3.517c0.955-2.724,1.769-5.326,2.562-6.444
			c0.568-0.793,1.524-1.322,1.524-1.322l-0.122-0.224C476.056,359.685,474.917,359.787,474.185,359.787 M85.468,368.59
			c0-4.005,2.195-9.352,5.285-9.352c1.444,0,2.501,0.955,2.501,2.846c0,4.595-1.912,9.84-4.798,9.84
			C86.403,371.924,85.468,370.725,85.468,368.59 M83.028,368c0,2.826,2.135,4.452,4.574,4.452c4.391,0,7.99-4.249,7.99-9.84
			c0-2.236-1.525-3.863-4.229-3.863C87.034,358.75,83.028,363.446,83.028,368 M100.919,368.59c0-4.005,2.196-9.352,5.286-9.352
			c1.423,0,2.5,0.955,2.5,2.846c0,4.595-1.911,9.84-4.798,9.84C101.855,371.924,100.919,370.725,100.919,368.59 M98.48,368
			c0,2.826,2.135,4.452,4.574,4.452c4.391,0,7.99-4.249,7.99-9.84c0-2.236-1.525-3.863-4.208-3.863
			C102.484,358.75,98.48,363.446,98.48,368 M80.203,358.811c-1.2,1.016-2.176,1.423-3.233,1.586v0.386c0,0,0.671-0.102,1.302-0.102
			c0.223,0,0.346,0.02,0.346,0.224c0,0.183-0.102,0.508-0.122,0.61c-0.671,2.155-3.11,9.921-3.293,10.206
			c-0.122,0.244-0.183,0.305-0.183,0.407s0.061,0.142,0.183,0.142c0.569,0,2.317-0.102,2.399-0.488
			c0.895-3.03,2.42-7.807,3.782-11.772c0.081-0.264,0.183-0.549,0.183-0.691c0-0.244-0.651-0.772-0.874-0.772
			C80.568,358.547,80.507,358.547,80.203,358.811 M131.333,360.275c0,3.456,3.375,4.798,3.375,9.047c0,2.602-2.033,4.879-5.55,4.879
			c-2.562,0-4.839-1.586-4.839-3.822c0-1.81,1.891-3.517,3.904-3.517c1.158,0,1.423,0.406,1.423,0.854
			c0,0.468,0.224,0.915,0.773,0.915c0.488,0,0.772-0.285,0.772-0.671c0-0.793-1.118-1.484-2.704-1.484
			c-2.603,0-4.88,1.769-4.88,4.148c0,2.399,2.358,4.493,6.262,4.493c3.578,0,7.786-2.297,7.786-6.302c0-4.432-3.68-5.896-3.68-9.596
			c0-1.871,1.443-3.212,3.741-3.212c1.322,0,2.541,0.712,2.541,1.565c0,1.159-1.505,1.016-1.505,2.013
			c0,0.406,0.407,0.65,0.834,0.65c0.955,0,1.545-0.996,1.545-2.053c0-1.667-1.505-2.684-3.903-2.684
			C134.647,355.497,131.333,357.469,131.333,360.275 M547.72,372.005c0-0.346,0.448-0.569,1.343-0.569
			c0.854,0,1.686,0.183,2.581,0.427c-0.793,0.427-1.667,0.691-2.724,0.691C548.29,372.554,547.72,372.33,547.72,372.005
			 M554.999,372.27c2.724-1.83,3.842-5.286,5.124-9.149c0.914-2.744,1.484-4.96,2.297-6.18c3.943,0.732,5.163,3.232,5.163,6.242
			c0,5.387-3.456,9.514-8.803,9.514C557.174,372.696,556.341,372.615,554.999,372.27 M561.627,356.412
			c-0.671-0.061-1.382-0.102-2.095-0.102c-5.835,0-13.133,2.928-13.133,7.441c0,2.48,2.175,3.599,4.9,3.599
			c2.399,0,4.229-1.464,4.229-3.375c0-0.57-0.407-0.874-0.916-0.874c-0.508,0-0.813,0.264-0.813,0.65c0,0.508,0.57,0.57,0.57,1.24
			c0,0.935-1.057,1.952-2.827,1.952c-2.399,0-3.334-1.261-3.334-3.049c0-3.965,5.998-7.217,11.345-7.217
			c0.57,0,1.138,0.02,1.647,0.061c-1.22,1.138-2.338,3.09-3.477,5.977c-1.504,3.802-3.313,7.197-5.57,8.823
			c-1.139-0.284-2.297-0.548-3.477-0.548c-0.915,0-1.727,0.447-1.727,1.077c0,0.915,1.322,1.566,3.151,1.566
			c1.586,0,3.152-0.387,4.35-1.057c1.546,0.406,2.907,0.589,5.49,0.589c5.083,0,10.572-3.842,10.572-9.251
			c0-4.127-3.009-6.648-7.827-7.379c0.447-0.447,0.914-0.732,1.586-0.732c0.874,0,0.936,0.61,1.281,0.61
			c0.163,0,0.468-0.204,0.468-0.427c0-0.264-0.834-0.488-1.748-0.488C563.314,355.497,562.439,355.802,561.627,356.412
			 M429.906,358.038c-2.155,2.338-4.249,4.615-8.742,6.506c1.016-2.907,2.074-5.55,3.72-7.481c0.691-0.793,1.525-1.383,1.525-1.383
			l-0.122-0.203c-0.691,0.264-1.464,0.406-2.257,0.406c-0.936,0-1.83-0.223-4.107-0.223c-5.915,0-12.707,2.582-12.707,7.888
			c0,2.521,2.461,3.72,5.104,3.72c2.42,0,4.31-1.505,4.31-3.476c0-0.651-0.366-0.936-0.915-0.936s-0.834,0.264-0.834,0.692
			c0,0.529,0.55,0.589,0.55,1.281c0,0.955-1.057,2.033-2.907,2.033c-2.461,0-3.416-1.322-3.416-3.151
			c0-5.042,5.55-7.624,11.507-7.624c1.18,0,3.132,0.325,3.132,0.325c-4.006,2.664-5.876,10.003-7.95,13.56
			c-1.259,2.175-2.5,3.375-4.39,3.375c-1.384,0-1.83-0.793-1.83-1.078c0-0.183-0.102-0.346-0.366-0.346
			c-0.244,0-0.427,0.163-0.427,0.406c0,0.468,0.711,1.566,3.334,1.566c2.257,0,4.717-0.956,6.343-3.213
			c1.036-1.464,1.809-3.659,2.459-5.57l0.651-0.204c0.772,0.387,2.113,1.382,2.459,3.659c0.915,5.754,3.375,6.628,6.201,6.628
			c1.668,0,2.643-0.427,3.131-0.712l-0.182-0.204c-0.264,0.142-0.732,0.305-1.423,0.305c-2.48,0-3.416-1.281-5.429-6.466
			c-0.975-2.602-2.683-3.68-3.558-3.822c2.968-1.199,5.245-3.517,7.583-5.876c0.895-0.854,2.013-1.789,3.03-1.789
			c0.813,0,0.793,0.529,1.504,0.529c0.448,0,0.955-0.346,0.955-0.813c0-0.549-0.468-0.874-1.464-0.874
			C432.915,355.477,431.349,356.514,429.906,358.038 M240.671,356.188c-1.159-0.204-2.42-0.305-3.782-0.305
			c-5.997,0-13.539,2.968-13.539,7.665c0,2.521,2.256,3.72,5.083,3.72c2.459,0,4.329-1.505,4.329-3.476
			c0-0.651-0.386-0.936-0.915-0.936c-0.57,0-0.834,0.264-0.834,0.692c0,0.529,0.55,0.589,0.55,1.281
			c0,0.955-1.078,2.033-2.928,2.033c-2.44,0-3.395-1.322-3.395-3.151c0-4.127,6.12-7.502,11.69-7.502
			c1.159,0,2.196,0.183,3.111,0.387c-4.025,2.683-5.49,9.82-7.583,13.377c-1.241,2.175-2.48,3.375-4.372,3.375
			c-1.423,0-1.83-0.793-1.83-1.078c0-0.183-0.122-0.346-0.386-0.346c-0.264,0-0.427,0.163-0.427,0.406
			c0,0.468,0.712,1.566,3.354,1.566c2.237,0,4.616-0.956,6.222-3.213c2.786-3.761,2.622-10.673,6.079-13.743
			c2.073,0.833,3.009,2.338,3.009,4.086c0,3.273-2.907,5.063-5.043,5.063c-0.366,0-0.467-0.061-0.589-0.061
			c-0.122,0-0.204,0.061-0.204,0.203c0,0.183,0.529,0.285,1.384,0.285c2.622,0,7.258-1.85,7.258-5.53
			c0-2.135-2.095-3.741-5.225-4.574c0.57-0.366,1.077-0.61,1.688-0.61c0.915,0,0.975,0.549,1.322,0.549
			c0.243,0,0.488-0.163,0.488-0.407c0-0.264-0.875-0.508-1.809-0.508C242.5,355.436,241.585,355.741,240.671,356.188"/>
	</defs>
	<clipPath id="SVGID_00000108305145774155317870000013286868042519920783_">
		<use xlink:href="#SVGID_00000019643431013033225330000014301765424106408070_"  overflow="visible"/>
	</clipPath>
	
		<linearGradient id="SVGID_00000031922653608125190560000015561947299207656637_" gradientUnits="userSpaceOnUse" x1="-286.757" y1="751.8431" x2="-266.4265" y2="751.8431" gradientTransform="matrix(0 -1.1128 -1.1128 0 1189.2656 58.975)">
		<stop  offset="0" style="stop-color:#CAA85B"/>
		<stop  offset="0.4014" style="stop-color:#B98C3D"/>
		<stop  offset="0.7574" style="stop-color:#AE7A29"/>
		<stop  offset="1" style="stop-color:#AA7322"/>
	</linearGradient>
	
		<rect x="75.018" y="355.436" clip-path="url(#SVGID_00000108305145774155317870000013286868042519920783_)" fill="url(#SVGID_00000031922653608125190560000015561947299207656637_)" width="555.162" height="22.648"/>
</g>
</svg>
