<?xml version="1.0" encoding="utf-8"?>
<!-- Generator: Adobe Illustrator 27.2.0, SVG Export Plug-In . SVG Version: 6.00 Build 0)  -->
<svg version="1.1" id="Layer_1" xmlns="http://www.w3.org/2000/svg" xmlns:xlink="http://www.w3.org/1999/xlink" x="0px" y="0px"
	 viewBox="0 0 720 719.992" enable-background="new 0 0 720 719.992" xml:space="preserve">
<path fill="#EBBD00" d="M638.81,719.992H81.173C36.343,719.992,0,683.66,0,638.835V81.168C0,36.344,36.343,0,81.173,0H638.81
	C683.634,0,720,36.344,720,81.168v557.667C720,683.66,683.634,719.992,638.81,719.992z"/>
<polygon fill="#FFFFFF" points="155.776,608.06 155.776,250.215 116.161,250.215 116.161,250.215 167.461,111.91 266.84,111.91 
	266.84,608.06 "/>
<path fill="#FFFFFF" d="M586.938,111.91h-47.334h-28.789H391.69h-28.742h-47.385c-6.122,0-11.086,4.963-11.086,11.08v46.057v30.081
	v73.83h108.476v-67.545h76.647v59.736L300.584,534.678v72.777h296.168v-96.807H438.301l138.297-194.164
	c4.335-6.084,7.786-11.371,10.408-15.931c2.599-4.537,4.762-8.951,6.498-13.32c1.715-4.302,2.913-9.075,3.563-14.273
	c0.65-5.21,0.964-11.472,0.964-18.833v-54.997v-30.081V122.99C598.029,116.873,593.067,111.91,586.938,111.91z"/>
</svg>
