<?xml version="1.0" encoding="utf-8"?>
<!-- Generator: Adobe Illustrator 27.2.0, SVG Export Plug-In . SVG Version: 6.00 Build 0)  -->
<svg version="1.1" id="Layer_1" xmlns="http://www.w3.org/2000/svg" xmlns:xlink="http://www.w3.org/1999/xlink" x="0px" y="0px"
	 viewBox="0 0 720 720" enable-background="new 0 0 720 720" xml:space="preserve">
<path fill="#DD7218" d="M638.832,720H81.145C36.355,720,0,683.657,0,638.832V81.168C0,36.344,36.355,0,81.145,0h557.687
	C683.657,0,720,36.344,720,81.168v557.665C720,683.657,683.657,720,638.832,720z"/>
<polygon fill="#FFFFFF" points="155.457,608.08 155.457,250.247 115.819,250.247 115.819,250.247 167.119,111.899 266.526,111.899 
	266.526,608.08 "/>
<path fill="#FFFFFF" d="M587.264,281.404h-45.418h-30.708h-97.906v-72.731h181.863v-96.774H304.157v264.318h186.4v138.316h-78.591
	v-64.956H304.157v71.264v29.442v46.696c0,6.117,4.963,11.08,11.08,11.08h44.779h31.346h119.774h30.708h45.418
	c6.117,0,11.08-4.963,11.08-11.08v-46.696V520.84V368.621v-29.442v-46.695C598.344,286.367,593.381,281.404,587.264,281.404z"/>
</svg>
