<?xml version="1.0" encoding="utf-8"?>
<!-- Generator: Adobe Illustrator 27.2.0, SVG Export Plug-In . SVG Version: 6.00 Build 0)  -->
<svg version="1.1" id="Layer_1" xmlns="http://www.w3.org/2000/svg" xmlns:xlink="http://www.w3.org/1999/xlink" x="0px" y="0px"
	 viewBox="0 0 125.521 125.521" enable-background="new 0 0 125.521 125.521" xml:space="preserve">
<path fill="#DC742D" d="M111.371,125.521H14.146C6.338,125.521,0,119.186,0,111.371V14.15C0,6.336,6.338,0,14.146,0h97.225
	c7.815,0,14.15,6.336,14.15,14.15v97.221C125.521,119.186,119.186,125.521,111.371,125.521"/>
<polygon fill="#FFFFFF" points="27.102,106.01 27.102,43.627 20.191,43.627 20.191,43.627 29.135,19.508 46.465,19.508 
	46.465,106.01 "/>
<path fill="#FFFFFF" d="M102.381,49.059h-7.918h-5.354H72.041v-12.68h31.705V19.508H53.025v46.08h32.496v24.113H71.82V78.377H53.025
	v12.424v5.133v8.141c0,1.066,0.865,1.932,1.932,1.932h7.807h5.465h20.881h5.354h7.918c1.066,0,1.932-0.865,1.932-1.932v-8.141
	v-5.133V64.264v-5.133V50.99C104.312,49.924,103.447,49.059,102.381,49.059z"/>
</svg>
