<svg xmlns="http://www.w3.org/2000/svg" viewBox="0 0 720 720.033" xmlns:v="https://vecta.io/nano"><path d="M638.86 720.033H81.129C36.335 720.033 0 683.709 0 638.87V81.207C0 36.357 36.335 0 81.129 0H638.86C683.688 0 720 36.357 720 81.207V638.87c0 44.839-36.312 81.163-81.14 81.163"/><g fill="#fff"><path d="M282.21 496.5c-16.425.213-27.349-14.7-20.078-27.472l63.035-76.379 1.681-87.437-92.389-54.71c-5.804-3.44-9.277-9.142-9.277-15.26 0-14.823 19.215-23.618 33.377-15.226l69.174 40.985.235-14.263c-17.971-9.445-27.573-27.988-22.509-46.621 4.941-18.117 23.719-30.486 44.85-32.414v-29.411H182.382c-31.17 7.876-55.797 32.055-64.244 62.99v273.112c8.414 30.957 33.041 55.102 64.188 62.978H350.31V427.269l-48.424 58.172c-3.551 6.678-11.182 10.969-19.675 11.058m307.496-71.717c0 13.367-12.526 24.223-27.966 24.223H381.87v-85.544l36.257 44.099c3.541 6.678 11.215 11.014 19.675 11.115 16.448.202 27.304-14.7 20.078-27.45l-63.057-76.446-1.681-87.415 92.389-54.732c5.826-3.417 9.322-9.142 9.322-15.215 0-14.846-19.271-23.63-33.411-15.249L392.29 183.13l-.269-14.229c18.028-9.434 27.585-27.976 22.531-46.598-3.944-14.521-16.851-25.445-32.682-30.184v-21.12h179.871c15.44 0 27.966 10.857 27.966 24.234V424.78zM561.742 54.889H363.261v410.24h198.481c25.692 0 46.587-18.084 46.587-40.346V95.235c0-22.274-20.895-40.346-46.587-40.346M225.551 627.062H211.96v17.142h-43.819v11.809h100.781v-11.809h-43.371v-17.142z"/><path d="M255.253 581.315h-74.866v42.833h74.866v-42.833zm-61.477 31.316v-19.607h48.223v19.607h-48.223zm130.404-37.142h-13.489v14.285h-22.632v-14.633h-13.367v50.217h49.488v-49.869zm-36.121 38.374v-12.156h22.632v12.156h-22.632zm66.787-43.338h-13.624v60.312c-5.624-1.367-13.052-2.028-22.509-2.028-13.77 0-23.271 1.367-29.074 4.112-5.983 2.857-8.986 7.585-8.986 14.017 0 6.341 3.026 11.024 9.042 13.915 5.826 2.824 15.327 4.179 29.019 4.179 13.468 0 23.204-1.378 28.952-4.111 5.983-2.891 9.008-7.585 9.008-13.983 0-6.364-3.07-11.047-9.109-13.927-1.479-.717-3.16-1.322-5.064-1.86h12.347v-21.949h16.751v-11.719h-16.751v-26.958zm-15.954 81.197c-3.597 1.221-10.375 1.827-20.179 1.827-9.859 0-16.671-.605-20.302-1.827-3.25-1.076-4.863-2.632-4.863-4.784 0-2.163 1.613-3.743 4.896-4.829 3.597-1.199 10.431-1.804 20.268-1.804 9.692 0 16.448.605 20.123 1.804 3.317 1.098 4.918 2.678 4.918 4.829 0 2.128-1.602 3.708-4.862 4.784zm101.711-34.991c-9.893.863-22.039 1.614-36.066 2.252-13.96.605-26.296.93-36.671.93h-1.367l1.759 8.919c.594 2.095 1.109 3.429 1.625 4.201.863 1.345 1.894 1.557 2.443 1.557h.359l.28-.201c1.02-.684 2.051-1.412 3.104-2.151 3.865-.348 8.111-.661 13.03-.941 4.504-.28 7.944-.415 10.678-.437v31.976h13.254v-32.66c3.675-.056 9.322-.504 16.75-1.322 2.353-.19 5.782-.549 11.417-1.21l2.879-.426-.448-10.902-3.025.414z"/><path d="M442.933 570.761h13.602v96.154h-13.602zm-58.261 39.035c4.627 3.317 11.361 4.986 20.022 4.986 8.616 0 15.35-1.669 19.988-4.986 4.739-3.372 7.171-8.145 7.171-14.117 0-5.882-2.432-10.655-7.283-14.151-4.728-3.406-11.439-5.154-19.876-5.154-8.571 0-15.283 1.68-19.966 5.03-4.795 3.451-7.226 8.09-7.226 13.837 0 6.286 2.431 11.182 7.171 14.554zm9.03-19.798c2.308-1.053 6.016-1.58 10.991-1.58 4.84 0 8.493.571 10.902 1.736 2.174 1.053 3.204 2.835 3.204 5.445 0 3.014-1.087 5.042-3.362 6.174-2.151 1.008-5.781 1.535-10.744 1.535-5.053 0-8.661-.549-10.722-1.636-2.23-1.199-3.317-3.294-3.317-6.431 0-2.554.975-4.269 3.048-5.243zm81.342-16.279h36.099v10.857h-36.099zm36.066 54.037c4.28-2.812 6.454-6.644 6.454-11.394 0-4.504-2.039-8.201-6.084-11.003-4.481-3.047-10.856-4.582-18.901-4.582-8.157 0-14.453 1.501-18.778 4.47-4.045 2.767-6.084 6.521-6.084 11.115 0 4.75 2.129 8.582 6.319 11.394 4.09 2.712 10.308 4.09 18.543 4.09 8.157 0 14.375-1.378 18.532-4.09zM483.615 612.9c1.736-.93 4.74-1.412 8.963-1.412 4.302 0 7.35.459 9.12 1.366 1.546.796 2.263 1.838 2.263 3.294 0 1.658-.751 2.902-2.263 3.798-1.715.997-4.773 1.501-9.12 1.501-4.224 0-7.227-.504-8.963-1.501-1.58-.919-2.297-2.118-2.297-3.798 0-1.389.717-2.409 2.297-3.249zm54.643-41.803v34.957h-19.036v12.044h19.036v13.86h13.613v-60.861h-13.613zm-76.401 16.369h62.026v10.845h-62.026zm17.434 79.023h13.131v-3.204h45.836v3.204h13.613v-32.84h-72.58v32.84zm58.967-21.916v7.563h-45.814v-7.563h45.814z"/></g></svg>