<svg xmlns="http://www.w3.org/2000/svg" viewBox="0 0 720 719.97" xmlns:v="https://vecta.io/nano"><path d="M638.833 719.97H81.173C36.382 719.97 0 683.649 0 638.78V81.157C0 36.355 36.382 0 81.173 0h557.66C683.668 0 720 36.355 720 81.157V638.78c0 44.869-36.332 81.19-81.167 81.19"/><g fill="#fff"><path d="M371.219 209.887l77.818-76.624v149.042c-51.748 7.338-92.74 47.568-100.415 98.476h-77.313v-75.543c50.655-7.226 91.015-45.933 99.911-95.35M254.246 106.017c46.656 0 84.601 37.43 84.601 83.391s-37.945 83.375-84.601 83.375-84.618-37.408-84.618-83.375 37.957-83.391 84.618-83.391m296.451 292.084c0 45.978-37.934 83.374-84.598 83.374s-84.618-37.396-84.618-83.374 37.934-83.375 84.618-83.375 84.598 37.441 84.598 83.375m-67.555-115.796V133.274l43.379 42.738c.157.134.336.157.481.302l32.086 31.602c3.26 3.17 7.529 4.94 12.088 4.94a17.16 17.16 0 0 0 12.066-4.94c6.655-6.543 6.655-17.219 0-23.748L471.039 73.629c-1.316-1.288-3.002-1.938-4.705-1.938-.028 0-.056.022-.079.022s-.056-.022-.079-.022-.056.022-.078.022c-.056 0-.079-.022-.101-.022-1.759 0-3.462.695-4.7 1.938l-91.183 89.816c-12.016-52.14-59.372-91.217-115.869-91.217-65.589 0-118.928 52.554-118.928 117.18 0 58.885 44.353 107.619 101.86 115.83v75.543H144.1c-9.433 0-17.068 7.562-17.068 16.827s7.635 16.805 17.068 16.805h93.077v84.08c0 9.254 7.646 16.793 17.068 16.793s17.062-7.539 17.062-16.793v-84.08h77.157c8.066 56.913 57.663 100.874 117.634 100.874 65.564 0 118.903-52.565 118.903-117.185 0-58.885-44.354-107.641-101.86-115.797M292.695 645.961h13.589v-73.817h-13.589v26.495h-25.812v12.043h25.812v35.279zm-46.622-13.567H232.92v30.944h76.58v-12.044h-63.427v-18.9zm-1.748-22.149c1.608 4.156 3.837 8.638 6.654 13.321 3.288 5.479 6.386 9.68 9.439 12.828l.661.672 11.533-7.607-.946-.93c-5.54-5.378-10.145-11.718-13.657-18.844-4.492-8.963-6.767-18.239-6.767-27.56 0-.213.022-.65.258-1.58.313-1.378.313-1.591.313-1.714 0-1.501-.935-2.095-1.495-2.319-.454-.18-1.384-.426-4.117-.426h-7.881v1.076c0 11.382-2.386 21.902-7.125 31.302-3.753 7.484-8.593 13.78-14.419 18.698l-1.008.84 10.508 7.977.728-.628c3.44-2.991 6.902-7.058 10.279-12.088 2.823-4.145 5.165-8.515 7.042-13.019zm152.224 24.121c-.852-.415-1.81-.796-2.846-1.143h11.909v-60.755h-13.595v23.953h-23.639v12.043h23.639v24.233c-5.54-1.568-13.152-2.398-23.056-2.487l.599-.661c1.227-1.412 2.476-2.577 3.736-3.462 1.507-1.121 3.478-2.162 6.049-3.182l2.045-.818-1.894-1.087c-7.988-4.649-13.993-9.735-17.852-15.135-3.557-5.008-5.484-10.542-5.697-16.424h20.989v-11.797h-55.479v11.797h21.662c-.302 6.038-3.097 12.021-8.324 17.813-5.052 5.647-11.483 10.184-19.096 13.456l-1.764.762 1.569 1.086c2.123 1.468 3.781 2.745 4.918 3.798 1.104 1.031 2.23 2.308 3.445 3.888l.599.773.863-.482c5.596-3.126 10.682-7.035 15.158-11.617 3.529-3.563 6.364-7.182 8.47-10.767 1.815 3.865 4.257 7.607 7.276 11.102 3.625 4.157 7.613 7.674 11.831 10.464l.728.493c-.583-.022-1.193-.022-1.798-.022-14.127 0-23.807 1.345-29.649 4.134-6.044 2.846-9.125 7.54-9.125 13.982 0 6.352 3.081 11.035 9.113 13.937 5.798 2.779 15.78 4.19 29.661 4.19s23.807-1.401 29.622-4.145c6.044-2.868 9.131-7.573 9.131-13.982 0-6.364-3.098-11.046-9.198-13.937zm-49.972 9.12c3.624-1.188 10.486-1.804 20.417-1.804 9.825 0 16.648.616 20.256 1.804 3.294 1.098 4.884 2.666 4.884 4.817s-1.591 3.731-4.884 4.784c-3.597 1.232-10.408 1.837-20.256 1.837-9.791 0-16.609-.605-20.311-1.837-3.344-1.053-4.974-2.633-4.974-4.784s1.591-3.719 4.868-4.817zm148.429-9.12c-5.937-2.801-15.626-4.179-29.646-4.179-14.329 0-24.143 1.345-29.969 4.134-6.061 2.846-9.114 7.54-9.114 13.982 0 6.352 3.092 11.035 9.214 13.937 5.882 2.779 15.942 4.19 29.868 4.19s23.865-1.401 29.713-4.145c6.084-2.868 9.164-7.573 9.164-13.982 0-6.364-3.103-11.046-9.232-13.937zm-50.844 9.142c3.658-1.21 10.789-1.826 21.197-1.826 10.189 0 17.233.616 20.941 1.826 3.372 1.076 5.019 2.644 5.019 4.795 0 2.162-1.635 3.731-4.974 4.784-3.675 1.232-10.747 1.837-20.986 1.837s-17.331-.605-21.102-1.837c-3.4-1.053-5.08-2.633-5.08-4.784s1.636-3.719 4.985-4.795zm-2.156-36.344c1.977 4.19 4.649 8.369 7.904 12.436 2.958 3.596 6.011 6.666 9.119 9.175l.65.527 11.181-7.271-1.086-.93c-4-3.383-7.192-6.486-9.511-9.209-3.585-4.156-6.33-8.414-8.201-12.704-2.297-5.31-3.462-11.102-3.462-17.186 0-.448.073-.997.201-1.669.168-.84.247-1.345.247-1.501 0-1.12-.566-1.938-1.602-2.375-.79-.314-2.05-.459-4.005-.459h-7.87v1.076c0 7.383-1.215 14.486-3.624 21.062-1.932 5.288-4.739 10.486-8.341 15.472-2.51 3.405-5.719 7.013-9.512 10.744l-1.026.997 11.321 6.05.594-.571c3.535-3.395 6.727-7.024 9.523-10.811 3.108-4.213 5.624-8.537 7.5-12.85z"/><path d="M490.065 632.563h13.601v-60.644h-13.601v21.768h-26.846v12.043h26.846v26.833z"/></g></svg>