<svg xmlns="http://www.w3.org/2000/svg" viewBox="0 0 720 720.036" xmlns:v="https://vecta.io/nano"><path d="M638.848 720.036H81.149C36.324 720.036 0 683.712 0 638.873V81.163C0 36.358 36.324 0 81.149 0h557.699C683.676 0 720 36.358 720 81.163v557.71c0 44.839-36.324 81.163-81.152 81.163"/><g fill="#fff"><path d="M592.082 106.798c-21.546-25.288-46.408-39.494-55.483-31.718-6.095 5.165-3.462 18.857 5.299 34.901l-32.806 27.977c7.193 5.557 14.688 12.571 21.825 21.008 7.171 8.381 12.953 16.896 17.3 24.862l32.806-27.966c14.454 11.182 27.574 15.944 33.647 10.734 9.075-7.754-1.008-34.532-22.588-59.797m-133.117 122.92a6.39 6.39 0 0 1-4.695 1.524c-1.658-.123-3.238-.874-4.426-2.241l-19.114-22.431c-2.33-2.733-1.972-6.812.729-9.12 2.745-2.319 6.778-1.995 9.086.717l19.137 22.464c2.33 2.689 1.994 6.767-.717 9.087m-28.437 24.269c-1.356 1.165-3.036 1.635-4.717 1.512-1.602-.123-3.238-.874-4.381-2.252l-19.126-22.42a6.42 6.42 0 0 1 .717-9.108c2.723-2.319 6.757-1.984 9.121.717l19.103 22.442a6.43 6.43 0 0 1-.717 9.109m-28.402 24.257c-1.412 1.143-3.115 1.658-4.75 1.512-1.625-.134-3.238-.863-4.403-2.252l-19.126-22.409c-2.308-2.734-1.995-6.812.728-9.109 2.678-2.319 6.767-2.005 9.098.706l19.137 22.464c2.308 2.689 1.995 6.778-.683 9.087m-73.836 94.25c-8.235-6.263-15.854-13.434-22.632-21.389-6.835-8-12.661-16.604-17.557-25.769l52.57-44.851 40.189 47.158-52.57 44.851zm188.286-201.283c-30.711-36.011-66.093-56.223-79.056-45.175-7.339 6.229-5.692 21.209 2.454 39.427L262.423 316.91c-2.028 1.703-2.779 4.426-1.983 6.913 2.005 6.185 4.571 12.078 7.417 17.814l-45.579 38.834c-1.961 1.703-2.745 4.448-1.916 6.924 2.252 7.014 5.849 13.389 10.106 19.338l-66.25 56.48c-2.745 2.342-3.081 6.42-.75 9.121 1.165 1.356 2.778 2.128 4.403 2.263 1.658.123 3.372-.392 4.739-1.535l66.217-56.503c5.21 5.12 10.957 9.691 17.501 13.041l2.409.672c1.681.135 3.373-.392 4.74-1.524l45.556-38.867c5.198 3.709 10.61 7.171 16.414 10.118l2.431.728c1.658.123 3.339-.403 4.683-1.546l177.564-151.435c16.728 10.879 31.26 14.879 38.565 8.638 12.974-11.025-1.412-49.198-32.111-85.174M164.486 548.019c.123-25.613-31.652-58.172-31.652-58.172s-32.111 32.246-32.268 57.813c-.101 17.635 14.14 32.033 31.775 32.122 17.669.135 32.033-14.117 32.145-31.764m143.581 71.517c4.639-4.605 6.969-10.33 6.969-17.019 0-6.655-2.386-12.336-7.103-16.93-5.143-5.008-12.246-7.562-21.098-7.562-8.761 0-15.82 2.543-21.008 7.562-4.639 4.527-6.969 10.229-6.969 16.93 0 6.622 2.364 12.336 7.081 17.019 5.177 5.098 12.224 7.686 20.896 7.686 8.93 0 16.045-2.588 21.232-7.686zm-10.252-8.28c-2.566 2.387-6.218 3.585-10.879 3.585s-8.291-1.277-10.902-3.843c-2.285-2.285-3.473-5.143-3.473-8.481 0-3.316 1.221-6.106 3.709-8.481s5.983-3.541 10.667-3.541c4.74 0 8.493 1.255 11.159 3.776 2.409 2.218 3.574 4.93 3.574 8.246 0 3.429-1.3 6.375-3.854 8.739z"/><path d="M343.024 571.973H329.4v59.528h13.624v-6.263h13.311v-12.033h-13.311V600.51h13.311v-12.044h-13.311v-16.493zm-74.53 72.726H329.4v22.655h13.624V632.98h-74.53v11.719zm179.323-67.773h-74.754v30.509h74.754v-30.509zm-61.365 20.212v-9.837h47.909v9.837h-47.909zm-26.128 24.682h43.942v4.023h-31.203v10.285h61.297v3.91h-61.297v24.56h77.062v-10.386h-63.673v-3.91h61.365v-24.459h-30.296v-4.023h43.606v-10.498H360.324v10.498z"/></g></svg>