<svg xmlns="http://www.w3.org/2000/svg" viewBox="0 0 720 720.022" xmlns:v="https://vecta.io/nano"><path fill="#fff" d="M81.15 710.022c-39.232 0-71.15-31.918-71.15-71.15V81.173C10 41.928 41.918 10 81.15 10h557.688C678.077 10 710 41.928 710 81.173v557.699c0 39.232-31.923 71.15-71.161 71.15H81.15z"/><path d="M638.839 20C672.563 20 700 47.442 700 81.173v557.699c0 33.719-27.437 61.151-61.161 61.151H81.15c-33.718 0-61.15-27.432-61.15-61.151V81.173C20 47.442 47.432 20 81.15 20h557.689m0-20H81.15C36.312 0 0 36.345 0 81.173v557.699c0 44.838 36.312 81.151 81.15 81.151h557.688c44.827 0 81.161-36.312 81.161-81.151V81.173C720 36.345 683.665 0 638.839 0h0zM137.832 260.089c0 6.771.613 12.802 1.841 18.091s3.333 9.987 6.316 14.092 7.077 7.808 12.282 11.108l-8.506 10.981c-1.777-1.143-3.64-2.645-5.586-4.507s-3.84-3.967-5.681-6.316-3.46-4.792-4.856-7.331-2.434-5.035-3.11-7.49c-.508 2.412-1.471 4.983-2.888 7.712s-3.132 5.418-5.142 8.062-4.148 5.046-6.411 7.204-4.475 3.872-6.633 5.142l-8.379-10.537c5.586-3.809 9.987-8.019 13.203-12.632s5.491-9.712 6.824-15.298 2-11.68 2-18.281v-5.522h-17.71v-12.061h48.687v12.061h-16.25v5.522zm22.217 7.871v-34.468h14.092v101.499h-14.092v-53.638H147.29V267.96h12.759zm22.153-36.499h14.219v108.545h-14.219V231.461zm87.471 19.487v11.807H206.45v-11.807h63.223zm-5.332 34.404c0 2.878-.635 5.533-1.904 7.967s-3.068 4.56-5.396 6.379-5.078 3.237-8.252 4.253-6.687 1.523-10.537 1.523-7.374-.508-10.568-1.523-5.946-2.433-8.252-4.253-4.095-3.945-5.364-6.379-1.904-5.089-1.904-7.967c0-3.893 1.089-7.363 3.27-10.41s5.236-5.459 9.172-7.236 8.484-2.666 13.647-2.666c3.851 0 7.363.508 10.537 1.523s5.925 2.443 8.252 4.285 4.126 3.988 5.396 6.442 1.903 5.143 1.903 8.062zM236.03 309.22v16.504h58.652v12.188h-74.395V309.22h15.743zm18.535-74.458v11.235h-32.437v-11.235h32.437zm-27.231 50.59c0 1.608.466 3.078 1.396 4.412s2.222 2.401 3.872 3.205 3.533 1.206 5.649 1.206 4.009-.401 5.682-1.206 2.973-1.873 3.903-3.205a7.54 7.54 0 0 0 1.396-4.412c0-1.608-.466-3.1-1.396-4.475s-2.232-2.486-3.903-3.333-3.565-1.27-5.682-1.27-3.999.424-5.649 1.27-2.941 1.958-3.872 3.333-1.396 2.868-1.396 4.475zm64.937-53.828v36.562h14.79v12.505h-14.79v32.31H277.1v-81.377h15.171zm57.827 6.285v9.077c0 4.359.635 8.263 1.904 11.711s3.025 6.486 5.269 9.109a33.99 33.99 0 0 0 7.808 6.729c2.962 1.862 6.136 3.386 9.521 4.57l-8.315 11.997c-2.158-.762-4.423-1.851-6.792-3.269s-4.655-3.079-6.855-4.983a48.1 48.1 0 0 1-5.967-6.157c-1.777-2.2-3.153-4.485-4.126-6.855-.805 2.582-2.105 5.132-3.904 7.648s-3.925 4.878-6.379 7.078a54.45 54.45 0 0 1-7.744 5.809c-2.708 1.672-5.396 2.973-8.062 3.903l-7.744-11.934c5.374-1.988 9.976-4.665 13.806-8.03s6.781-7.299 8.855-11.807 3.11-9.426 3.11-14.758v-9.839h15.615zm47.036 80.043c0 4.486-1.523 8.348-4.57 11.584s-7.427 5.734-13.14 7.49-12.548 2.635-20.503 2.635c-7.871 0-14.653-.879-20.344-2.635s-10.062-4.252-13.108-7.49-4.57-7.098-4.57-11.584c0-4.527 1.523-8.432 4.57-11.711s7.416-5.809 13.108-7.586 12.473-2.666 20.344-2.666c7.955 0 14.79.889 20.503 2.666s10.093 4.307 13.14 7.586 4.57 7.184 4.57 11.711zm-60.684 0c0 2.963 1.988 5.301 5.967 7.014s9.479 2.571 16.504 2.571c7.236 0 12.822-.856 16.758-2.571s5.903-4.051 5.903-7.014c0-2.92-1.968-5.258-5.903-7.014s-9.521-2.635-16.758-2.635c-7.025 0-12.526.868-16.504 2.603s-5.967 4.085-5.967 7.046zm59.605-86.391v26.533h15.298v12.505h-15.298v24.756h-15.298v-63.794h15.298zm75.727 33.008c0 3.809-.72 7.279-2.158 10.41a23.62 23.62 0 0 1-6.03 8.062c-2.582 2.243-5.597 3.979-9.046 5.205s-7.162 1.841-11.14 1.841c-4.062 0-7.818-.613-11.267-1.841s-6.454-2.962-9.014-5.205-4.561-4.93-5.999-8.062-2.158-6.602-2.158-10.41.719-7.278 2.158-10.41 3.438-5.829 5.999-8.093 5.563-4.01 9.014-5.237 7.204-1.841 11.267-1.841c3.978 0 7.69.614 11.14 1.841s6.464 2.974 9.046 5.237a23.95 23.95 0 0 1 6.03 8.093c1.438 3.131 2.158 6.601 2.158 10.41zm33.452 53.574c0 4.359-1.523 8.157-4.57 11.394s-7.427 5.734-13.14 7.49-12.59 2.635-20.63 2.635c-7.956 0-14.77-.879-20.439-2.635s-10.029-4.252-13.076-7.49-4.57-7.034-4.57-11.394c0-4.57 1.523-8.516 4.57-11.839s7.405-5.871 13.076-7.648 12.483-2.666 20.439-2.666c8.04 0 14.917.889 20.63 2.666s10.093 4.327 13.14 7.648 4.57 7.269 4.57 11.839zm-75.473-53.574c0 2.666.604 4.973 1.809 6.919s2.835 3.449 4.889 4.507 4.368 1.587 6.95 1.587c2.539 0 4.834-.528 6.888-1.587s3.682-2.56 4.887-4.507 1.81-4.253 1.81-6.919-.603-4.983-1.81-6.95-2.835-3.492-4.887-4.57-4.349-1.619-6.888-1.619c-2.582 0-4.898.539-6.95 1.619a12.38 12.38 0 0 0-4.889 4.57c-1.206 1.966-1.809 4.284-1.809 6.95zm14.599 53.574c0 1.862.898 3.502 2.697 4.919s4.381 2.519 7.744 3.301 7.396 1.175 12.093 1.175c7.278 0 12.886-.867 16.821-2.603s5.903-3.999 5.903-6.792c0-3.004-1.968-5.385-5.903-7.142s-9.543-2.634-16.821-2.634c-7.025 0-12.536.868-16.536 2.603s-5.998 4.126-5.998 7.173zm60.176-86.582v64.937h-15.488v-14.155h-14.6l.381-12.949h14.219v-11.68h-14.219l-.381-12.949h14.6v-13.203h15.488zm70.269 11.299c-.254 10.749-2.074 20.874-5.459 30.374s-8.633 18.26-15.742 26.279-16.377 15.16-27.803 21.423l-8.633-11.934c6.009-2.835 11.446-6.221 16.313-10.156s9.077-8.241 12.632-12.917 6.4-9.586 8.538-14.727 3.479-10.357 4.03-15.647h-35.166V242.76h51.29zm28.12-11.236v41.45h15.996v12.632h-15.996v54.336H587.69V231.524h15.235zm-494.79 257.037c-11.094-14.727-16.641-32.949-16.641-54.668 0-21.797 5.546-40.02 16.641-54.668h8.555c-4.258 5.391-7.793 13.301-10.605 23.73s-4.219 20.742-4.219 30.938c0 10.234 1.406 20.547 4.219 30.938s6.347 18.301 10.605 23.73h-8.555zm47.168-76.933c0 9.258 1.572 17.159 4.717 23.701s8.232 12.003 15.264 16.377l-5.684 7.266c-2.07-1.289-4.111-2.9-6.123-4.834s-3.896-4.072-5.654-6.416-3.281-4.775-4.57-7.295-2.227-4.989-2.812-7.412c-.508 2.54-1.406 5.166-2.695 7.881s-2.871 5.361-4.746 7.939a56.99 56.99 0 0 1-6.152 7.148c-2.227 2.188-4.551 4.005-6.973 5.449l-5.566-7.031c7.5-4.96 12.9-11.006 16.201-18.135s4.951-15.342 4.951-24.639v-8.555h-17.988v-8.086h44.707v8.086h-16.875v8.556zm25.019 6.855v-32.578h9.375v91.992h-9.375V427.39h-14.59v-8.906h14.59zm19.981-34.746h9.434v99.141h-9.434v-99.141zm77.226 18.399v7.969h-57.188v-7.969h57.188zm-4.98 30.234c0 3.398-.977 6.445-2.93 9.141s-4.648 4.825-8.086 6.387-7.422 2.344-11.953 2.344-8.525-.781-11.982-2.344-6.152-3.691-8.086-6.387-2.9-5.742-2.9-9.141c0-3.437.967-6.513 2.9-9.229s4.629-4.854 8.086-6.416 7.451-2.344 11.982-2.344 8.516.782 11.953 2.344 6.133 3.701 8.086 6.416 2.93 5.793 2.93 9.229zm-28.184 22.5v17.168h56.367v8.203h-66.797V454.87h10.43zm19.688-67.559v7.617h-29.121v-7.617h29.121zm-27.422 45.059c0 1.875.557 3.584 1.67 5.127s2.646 2.774 4.6 3.691 4.18 1.377 6.68 1.377c2.539 0 4.785-.459 6.738-1.377s3.486-2.147 4.6-3.691 1.67-3.252 1.67-5.127-.557-3.604-1.67-5.186-2.646-2.851-4.6-3.809-4.199-1.436-6.738-1.436c-2.5 0-4.727.479-6.68 1.436s-3.486 2.227-4.6 3.809-1.67 3.311-1.67 5.186zm60.586-48.633v34.395h14.531v8.379h-14.531v31.055h-10.02v-73.828h10.02zm79.863 56.309l-9.258 1.172a365.31 365.31 0 0 1-10.811.938l-11.221.703-16.143.645-14.209.293-1.289-8.32c3.319.039 6.68.029 10.078-.029l10.312-.264v-21.328h9.668v20.977l7.852-.352 8.701-.557 8.467-.703c2.695-.254 5.077-.536 7.148-.85l.705 7.675zm-19.805-15.762c.741-2.695 1.309-6.201 1.699-10.518s.586-9.208.586-14.678h-39.609v-8.086h49.746c0 4.336-.088 8.604-.264 12.803a189.82 189.82 0 0 1-.85 11.865c-.391 3.712-.938 6.953-1.641 9.727l-9.667-1.113zm-17.695 27.012v20.508h55.723v8.145h-65.918v-28.652h10.195zm53.027-36.797h13.887v8.613h-13.887v34.219h-9.961v-73.652h9.961v30.82zm65.039-25.195v27.773H424.13v13.066c4.648.079 9.521.039 14.619-.117a229.57 229.57 0 0 0 14.971-.938c4.883-.469 9.375-1.113 13.477-1.934l.938 7.852c-3.086.665-6.66 1.211-10.723 1.641s-8.467.762-13.213.996-9.678.391-14.795.469l-15.469.059V409.46h33.457v-12.012h-33.398v-8.145h43.652zm29.063 59.121v33.047h-63.281v-33.047h63.281zm-53.203 25.136h43.008v-17.344h-43.008v17.344zm53.203-89.824v25.02h14.766v8.438h-14.766v25.547h-10.078v-59.004h10.078zm68.906 10.606c-.156 10.352-2.013 19.863-5.566 28.535s-8.652 16.465-15.293 23.379-14.688 12.891-24.141 17.93l-5.742-7.91c5.977-2.891 11.357-6.278 16.143-10.166s8.886-8.164 12.305-12.832 6.113-9.57 8.086-14.707 3.154-10.38 3.545-15.732h-35.098v-8.496h45.761zm25.371-10.606v39.668h15.469v8.438h-15.469v50.977h-10.078v-99.082h10.078zm30.879 104.824h-8.555c4.257-5.43 7.793-13.339 10.605-23.73s4.219-20.703 4.219-30.938c0-10.195-1.406-20.508-4.219-30.938s-6.349-18.34-10.605-23.73h8.555c11.094 14.648 16.641 32.871 16.641 54.668 0 21.719-5.547 39.942-16.641 54.668z"/></svg>