<svg xmlns="http://www.w3.org/2000/svg" viewBox="0 0 720 720.022" xmlns:v="https://vecta.io/nano"><path d="M638.839 720.022H81.15C36.312 720.022 0 683.71 0 638.872V81.173C0 36.345 36.312 0 81.15 0h557.688c44.827 0 81.161 36.345 81.161 81.173v557.699c0 44.838-36.335 81.15-81.161 81.15" fill="#d71e28"/><path d="M152.531 608.083V250.229h-39.64 0l51.348-138.324h99.334v496.178H152.531zm447.441-203.284c-.852-6.05-2.364-11.249-4.515-15.585a33.79 33.79 0 0 0-8.784-11.047c-3.664-3.036-8.336-6.05-13.949-9.064l-33.108-15.585 33.108-17.568c9.949-6.05 16.985-12.75 21.097-20.123 4.112-7.361 6.151-18.397 6.151-33.119V122.986c0-6.118-4.964-11.081-11.081-11.081h-275.92c-6.117 0-11.092 4.963-11.092 11.081v159.723c0 14.252 2.096 25.22 6.185 32.772 4.112 7.619 11.159 14.42 21.097 20.47l33.119 17.568-33.119 15.585c-11.294 6.027-18.722 13.198-22.408 21.399-3.675 8.246-5.512 20.369-5.512 36.402v170.099c0 6.117 4.975 11.08 11.092 11.08h277.881c6.117 0 11.08-4.963 11.08-11.08V426.905c0-8.672-.448-16.033-1.322-22.105zM490.879 505.433c0 6.117-4.975 11.08-11.092 11.08h-57.028c-6.117 0-11.092-4.963-11.092-11.08v-99.289c0-6.117 4.975-11.081 11.092-11.081h57.028c6.117 0 11.092 4.964 11.092 11.081v99.289zm0-204.349c0 6.117-4.975 11.081-11.092 11.081h-57.028c-6.117 0-11.092-4.964-11.092-11.081v-86.831c0-6.117 4.975-11.08 11.092-11.08h57.028c6.117 0 11.092 4.963 11.092 11.08v86.831z" fill="#fff"/></svg>