<?xml version="1.0" encoding="utf-8"?>
<!-- Generator: Adobe Illustrator 27.2.0, SVG Export Plug-In . SVG Version: 6.00 Build 0)  -->
<svg version="1.1" id="Layer_1" xmlns="http://www.w3.org/2000/svg" xmlns:xlink="http://www.w3.org/1999/xlink" x="0px" y="0px"
	 viewBox="0 0 125.514 125.518" enable-background="new 0 0 125.514 125.518" xml:space="preserve">
<path fill="#D71E28" d="M111.365,125.518H14.146C6.33,125.518,0,119.188,0,111.371V14.15C0,6.336,6.33,0,14.146,0h97.219
	c7.814,0,14.148,6.336,14.148,14.15v97.221C125.514,119.188,119.18,125.518,111.365,125.518"/>
<polygon fill="#FFFFFF" points="26.59,106.004 26.59,43.621 19.68,43.621 19.68,43.621 28.631,19.508 45.947,19.508 45.947,106.004 
	"/>
<path fill="#FFFFFF" d="M104.59,70.566c-0.148-1.055-0.412-1.961-0.787-2.717c-0.377-0.752-0.889-1.396-1.531-1.926
	c-0.639-0.529-1.453-1.055-2.432-1.58l-5.771-2.717l5.771-3.062c1.734-1.055,2.961-2.223,3.678-3.508
	c0.717-1.283,1.072-3.207,1.072-5.773V21.44c0-1.067-0.865-1.932-1.932-1.932h-48.1c-1.066,0-1.934,0.865-1.934,1.932v27.844
	c0,2.484,0.365,4.396,1.078,5.713c0.717,1.328,1.945,2.514,3.678,3.568l5.773,3.062l-5.773,2.717
	c-1.969,1.051-3.264,2.301-3.906,3.73c-0.641,1.438-0.961,3.551-0.961,6.346v16.379v5.131v8.143c0,1.066,0.867,1.932,1.934,1.932
	h48.441c1.066,0,1.932-0.865,1.932-1.932V95.93v-5.131V74.42C104.82,72.908,104.742,71.625,104.59,70.566z M85.572,88.109
	c0,1.066-0.867,1.932-1.934,1.932h-9.941c-1.066,0-1.934-0.865-1.934-1.932V70.801c0-1.066,0.867-1.932,1.934-1.932h9.941
	c1.066,0,1.934,0.865,1.934,1.932V88.109z M85.572,52.486c0,1.066-0.867,1.932-1.934,1.932h-9.941c-1.066,0-1.934-0.865-1.934-1.932
	V37.35c0-1.066,0.867-1.932,1.934-1.932h9.941c1.066,0,1.934,0.865,1.934,1.932V52.486z"/>
</svg>
