<svg xmlns="http://www.w3.org/2000/svg" viewBox="0 0 720 716.805" xmlns:v="https://vecta.io/nano"><path d="M638.839,716.805H81.15c-44.838,0-81.15-36.15-81.15-80.788V80.81C0,36.183,36.312,0,81.15,0h557.688c44.827,0,81.161,36.183,81.161,80.81v555.207c0,44.638-36.335,80.788-81.161,80.788" fill="#d71e28"/><path d="M152.531 605.366V249.111h-39.64 0l51.348-137.706h99.334v493.961H152.531zm436.702-493.95h-275.92c-6.117 0-11.092 4.941-11.092 11.032v248.753c0 12.21 9.898 22.108 22.107 22.108H492.52v118.967h-78.596v-64.67H306.108v146.752c0 6.09 4.964 11.031 11.081 11.031h272.043c6.117 0 11.08-4.941 11.08-11.031v-471.91c0-6.091-4.964-11.032-11.081-11.032zM412.009 213.307c0-6.09 4.975-11.031 11.092-11.031h57.028c6.117 0 11.092 4.941 11.092 11.031v86.442c0 6.09-4.975 11.032-11.092 11.032h-57.028c-6.117 0-11.092-4.942-11.092-11.032v-86.442z" fill="#fff"/></svg>