<svg xmlns="http://www.w3.org/2000/svg" viewBox="0 0 720 719.994" xmlns:v="https://vecta.io/nano"><path d="M638.829 719.994H81.171C36.356 719.994 0 683.682 0 638.811V81.183C0 36.368 36.356 0 81.171 0h557.657c44.848 0 81.171 36.368 81.171 81.183v557.628c0 44.871-36.323 81.183-81.171 81.183"/><path d="M450.762 438.835V284.75c0-5.232 3.63-9.624 8.649-10.464 3.048-.482 6.106.314 8.47 2.297 2.33 1.972 3.652 4.884 3.652 7.91v153.211l1.446 2.611c5.512 3.585 16.234 7.877 36.199 7.877 36.871 0 48.009-28.323 49.117-47.247l-.022-130.087c-.728-10.375-3.776-30.754-16.391-43.773-7.764-8-18.251-12.022-31.09-12.022l-.471-.011c-.235.011-25.869-1.535-38.429 15.932-1.322 1.838-3.339 2.689-5.77 2.768a6.78 6.78 0 0 1-5.423-3.417c-.739-1.289-17.993-31.248-53.923-31.248s-50.316 32.468-50.473 32.771c-.93 2.218-3.025 3.764-5.467 3.955-2.353.19-4.762-.863-6.129-2.868-.336-.493-10.262-13.78-37.969-10.598-28.379 3.417-42.149 30.564-42.283 30.833-.773 1.557-2.196 2.812-3.888 3.35-1.647.594-3.462.459-5.098-.359 0 0-6.241-2.768-20.996-2.768-14.374 0-41.879 14.587-41.879 37.522v113.259c.078 1.4 2.487 41.868 40.815 41.868.728.034 14.576 1.098 26.979-6.016l1.614-2.689V316.145c0-5.142 3.697-9.635 8.649-10.43 2.947-.549 6.028.325 8.358 2.285 2.386 2.005 3.731 4.874 3.731 7.955v122.054l.829 2.14c6.442 6.353 18.049 13.904 36.771 13.904 15.976 0 25.578-5.176 30.81-9.557l.964-2.252V295.396c0-5.233 3.641-9.602 8.615-10.453l1.759-.146a10.26 10.26 0 0 1 6.712 2.465c2.33 2.005 3.675 4.862 3.675 7.921v144.832l1.008 2.297c5.669 5.378 16.57 11.742 36.255 11.742s32.446-7.025 39.616-12.918l1.008-2.297zm159.272-53.845c-2.823-9.042-18.206-41.308-31.561-68.601v81.396c0 1.58-.101 3.137-.213 4.716.47 19.864-9.21 56.68-50.204 64.736-35.269 6.958-56.343-2.644-65.127-8.291-7.193 5.12-23.091 13.848-49.868 15.719 3.059 10.375 13.388 29.332 48.266 29.332h77.194c10.543 0 36.222-9.759 57.901-46.675 21.153-36.043 17.892-58.529 13.612-72.332M234.473 233.414c7.507 0 13.433.605 17.994 1.389 8.178-11.328 25.018-29.052 51.918-32.256 18.543-2.23 32.726 1.591 42.496 6.946 9.994-13.12 28.995-30.381 59.896-30.381 9.489 0 17.915 1.692 25.444 4.224l26.049-34.74-82.863 9.949 9.949-82.863-66.808 50.025-32.827-76.735-32.816 76.735-66.797-50.025 9.938 82.863-82.885-9.949 50.081 66.792-76.78 32.804 76.78 32.85-50.081 66.774 59.504-7.114V290.89c0-34.519 37.208-57.475 61.811-57.475" fill="#fff"/><path d="M252.522,262.129l-.056-.022.056.022Z"/><g fill="#fff"><path d="M228.053 646.654h60.825v21.231h13.49v-32.502h-74.315v11.271zm44.692-27.102v-5.658h30.754V602.41h-13.153l.571-13.568h13.489v-11.507h-78.303v11.507h12.974l1.479 13.568h-13.075v11.484h31.897v5.658h-44.176v11.473h100.7v-11.473h-43.157zm-19.17-17.142l-1.58-13.568h26.004l-.672 13.568h-23.752zm122.772 27.652l1.031-.18-1.132-11.517-1.221.213c-5.669 1.019-12.481 1.837-20.201 2.476-7.349.583-13.433.874-18.509.919V608.73h34.071v-30.945h-47.224v12.044h34.07v7.181h-34.183v37.342h1.121c6.027 0 15.046-.538 26.777-1.557 11.439-.975 20.223-1.927 25.399-2.733zm-44.906 18.688h62.641v21.23h13.59v-33.375h-76.231v12.145zm62.641-63.717h-21.388v11.921h21.388v8.526h-21.388v12.056h21.388v16.906h13.59v-61.946h-13.59v12.537zm101.45 49.364c-5.927-2.801-15.618-4.179-29.645-4.179-14.318 0-24.133 1.345-29.959 4.134-6.062 2.846-9.143 7.54-9.143 13.982 0 6.352 3.103 11.036 9.244 13.938 5.882 2.779 15.921 4.19 29.858 4.19 13.86 0 23.842-1.401 29.724-4.146 6.083-2.868 9.176-7.574 9.176-13.982 0-6.364-3.115-11.047-9.254-13.938zm-50.831 9.143c3.652-1.21 10.778-1.826 21.186-1.826 10.207 0 17.243.616 20.951 1.826 3.361 1.098 5.019 2.644 5.019 4.795 0 2.163-1.625 3.731-4.997 4.784-3.675 1.232-10.722 1.837-20.974 1.837s-17.321-.605-21.107-1.837c-3.395-1.053-5.076-2.633-5.076-4.784s1.635-3.719 4.997-4.795z"/><path d="M490.58 632.594h13.635v-60.646H490.58v21.768h-26.844v12.044h26.844v26.834zm-48.053-25.4c1.994 4.201 4.661 8.369 7.932 12.436 2.947 3.585 6.005 6.666 9.075 9.176l.684.538 11.181-7.283-1.087-.93c-4.011-3.406-7.193-6.498-9.523-9.21-3.585-4.134-6.33-8.403-8.19-12.705-2.308-5.311-3.473-11.103-3.473-17.187 0-.448.078-.997.213-1.669.179-.84.235-1.345.235-1.501 0-1.12-.571-1.938-1.614-2.375-.773-.314-2.039-.459-3.977-.459h-7.877v1.076c0 7.383-1.221 14.476-3.618 21.052-1.95 5.299-4.739 10.497-8.347 15.484-2.532 3.417-5.748 7.036-9.523 10.744l-1.008.997 11.282 6.05.627-.571c3.518-3.383 6.7-7.002 9.523-10.811 3.115-4.213 5.624-8.537 7.484-12.851z"/></g></svg>