<?xml version="1.0" encoding="utf-8"?>
<!-- Generator: Adobe Illustrator 27.2.0, SVG Export Plug-In . SVG Version: 6.00 Build 0)  -->
<svg version="1.1" id="Layer_1" xmlns="http://www.w3.org/2000/svg" xmlns:xlink="http://www.w3.org/1999/xlink" x="0px" y="0px"
	 viewBox="0 0 720 843.642" enable-background="new 0 0 720 843.642" xml:space="preserve">
<g>
	<rect x="10.692" y="27.047" fill="#FFFFFF" width="689.785" height="685.814"/>
	<path fill="#231F20" d="M669.091,0H50.909C22.791,0,0,22.792,0,50.909v741.823c0,28.111,22.791,50.909,50.909,50.909h618.182
		c28.118,0,50.909-22.798,50.909-50.909V50.909C720,22.792,697.209,0,669.091,0z M676.364,630.672
		c0,24.091-19.537,43.636-43.636,43.636H87.273c-24.097,0-43.636-19.545-43.636-43.636V85.217c0-24.098,19.539-43.636,43.636-43.636
		h545.454c24.099,0,43.636,19.538,43.636,43.636V630.672z"/>
	<path fill="#FFFFFF" d="M192.195,702.079v13.211h21.051v-13.211h14.879v22.905h14.268v-23.756h14.979v58.167h-14.979V736.81
		h-14.268v18.43h-38.054c-4.453,0-7.692-0.888-9.716-2.663c-2.025-1.847-3.04-4.759-3.04-8.735v-41.762H192.195z M257.472,764.721
		v37.926h-62.848c-4.116,0-7.22-1.066-9.311-3.196c-2.024-2.06-3.036-4.865-3.036-8.417v-26.313H257.472z M192.195,726.581v17.366
		h21.051v-17.366H192.195z M197.255,776.333v14.595h45.238v-14.595H197.255z"/>
	<path fill="#FFFFFF" d="M488.328,784.963h30.568v-83.736h14.772v102.486h-14.772v-7.351H448.96v-11.399h24.595v-26.847h14.773
		V784.963z M508.775,703.358v11.185h-20.242c0,11.648,2.628,21.059,7.89,28.232c3.981,5.255,9.752,9.552,17.308,12.89l-7.287,8.523
		c-5.937-2.628-11.268-5.93-15.99-9.908c-4.049-3.408-7.153-6.818-9.311-10.226c-2.227,3.408-5.263,6.783-9.109,10.121
		c-4.588,4.048-9.581,7.351-14.979,9.908l-6.782-8.417c6.95-3.338,12.248-7.635,15.892-12.89c4.925-7.173,7.39-16.584,7.39-28.232
		H454.83v-11.185H508.775z"/>
	<path fill="#211821" d="M479.847,102.618c-81.348,0-147.272,30.93-147.272,69.087v61.822
		c11.179,32.962,73.863,58.182,147.272,58.182c16.904,0,33.183-1.392,48.452-3.849c-0.291,3.81,0.107,8.42,2.159,13.921
		c-13.501,6.729-21.065,19.972-21.065,39.1c0,2.525,0.212,5.047,0.518,7.561c-2.932-0.553-5.937-0.895-9.005-0.895
		c-25.313,0-47.821,16.14-50.995,38.935c-14.14,7.713-20.801,9.666-25.099,11.371c-30.49-25.227-88.21-42.262-154.446-42.262
		c-98.039,0-177.486,37.276-177.486,83.263v74.504c13.473,39.716,89.013,70.114,177.486,70.114
		c88.466,0,164.005-30.398,177.478-70.114v-42.444c22.614-1.385,27.983-8.565,39.887-19.73c2.536,0.497,14.119-1.818,16.812-1.818
		c28.452,0,48.48-20.029,48.48-48.48c0-0.923-0.092-1.832-0.143-2.748c1.634,0.206,3.303,0.319,5.001,0.319
		c28.451,0,48.48-20.029,48.48-48.484c0-10.636-3.309-20.773-8.942-29.3c2.322-5.66,5.633-12.346,8.942-14.336
		c5.71-3.427,8.189-27.318,1.342-48.327c9.617-7.389,16.42-15.642,19.417-24.481v-61.822
		C627.12,133.549,561.182,102.618,479.847,102.618z M270.366,515.161c-90.462,0-163.793-41.25-163.793-74.411
		c0-41.1,73.331-74.415,163.793-74.415c90.461,0,163.785,33.314,163.785,74.415C434.151,473.911,360.827,515.161,270.366,515.161z
		 M454.237,433.499c-3.033,0-5.44-0.156-6.967-1.079c-0.276-1.705-0.654-3.395-1.151-5.071c1.144-2.01,4.17-2.231,8.119-2.231
		c5.021,0,7.884,3.268,7.884,7.287C462.121,436.425,459.258,433.499,454.237,433.499z M573.023,294.213
		c-5.022,0-9.091-3.256-9.091-7.273c0-4.016,4.069-7.273,9.091-7.273c5.021,0,9.091,3.257,9.091,7.273
		C582.113,290.957,578.044,294.213,573.023,294.213z M479.847,235.029c-75.064,0-135.908-34.229-135.908-61.747
		c0-34.102,60.844-61.747,135.908-61.747s135.91,27.645,135.91,61.747C615.757,200.8,554.911,235.029,479.847,235.029z"/>
</g>
</svg>
