<?xml version="1.0" encoding="utf-8"?>
<!-- Generator: Adobe Illustrator 27.2.0, SVG Export Plug-In . SVG Version: 6.00 Build 0)  -->
<svg version="1.1" id="Layer_1" xmlns="http://www.w3.org/2000/svg" xmlns:xlink="http://www.w3.org/1999/xlink" x="0px" y="0px"
	 viewBox="0 0 720 843.651" enable-background="new 0 0 720 843.651" xml:space="preserve">
<g>
	<rect x="10.057" y="34.319" fill="#FFFFFF" width="689.793" height="685.823"/>
	<path fill="#231F20" d="M669.09,0H50.91C22.784,0,0,22.799,0,50.91v741.832c0,28.111,22.784,50.91,50.91,50.91H669.09
		c28.125,0,50.91-22.799,50.91-50.91V50.91C720,22.799,697.215,0,669.09,0z M676.363,630.681c0,24.091-19.532,43.637-43.637,43.637
		H87.274c-24.105,0-43.637-19.546-43.637-43.637V85.221c0-24.098,19.532-43.637,43.637-43.637h545.453
		c24.105,0,43.637,19.538,43.637,43.637V630.681z"/>
	<path fill="#FFFFFF" d="M187.949,736.498c4.048,6.605,9.879,11.719,17.507,15.341l-7.188,8.948
		c-5.866-3.196-11.164-6.996-15.881-11.399c-4.857-4.545-8.203-8.878-10.028-12.997c-2.088,4.119-5.568,8.452-10.426,12.997
		c-4.787,4.403-9.943,8.132-15.483,11.186l-6.164-8.629c7.01-4.048,12.471-9.197,16.392-15.447
		c5.468-8.878,8.196-20.349,8.196-34.411h15.086C179.959,716.363,182.615,727.833,187.949,736.498z M166.898,791.15h60.831v11.506
		h-62.556c-4.788,0-8.226-0.888-10.314-2.663c-1.96-1.776-2.94-4.652-2.94-8.63v-21.733h14.979V791.15z M227.02,777.089h-14.986
		v-45.277h-13.452v-12.146h13.452v-18.43h14.986V777.089z"/>
	<path fill="#FFFFFF" d="M371.339,703.366v11.293h-18.622c0,8.309,2.528,15.767,7.592,22.372c4.247,5.54,9.716,9.943,16.392,13.21
		l-6.882,8.843c-4.993-2.344-9.616-5.22-13.863-8.63c-4.723-3.693-8.295-7.457-10.724-11.292
		c-2.365,3.836-5.909,7.599-10.632,11.292c-4.319,3.409-9.006,6.286-14.07,8.63l-6.065-8.843c6.747-3.124,12.173-7.528,16.293-13.21
		c4.716-6.463,7.082-13.92,7.082-22.372H319.72v-11.293H371.339z M391.382,769.631c6.477,4.119,9.716,9.162,9.716,15.127
		c-0.071,5.895-3.345,10.867-9.823,14.915c-7.223,4.545-17.067,6.818-29.553,6.818c-12.415,0-22.23-2.273-29.446-6.818
		c-6.413-4.048-9.616-9.02-9.616-14.915c0-5.966,3.203-11.008,9.616-15.127c7.287-4.545,17.103-6.818,29.446-6.818
		C374.272,762.813,384.158,765.086,391.382,769.631z M343.711,777.514c-3.921,1.918-5.874,4.297-5.874,7.138
		c0,2.77,1.953,5.114,5.874,7.031c4.382,2.201,10.383,3.303,18.011,3.303c7.756,0,13.864-1.101,18.325-3.303
		c3.978-1.918,5.966-4.261,5.966-7.031c0-2.841-1.988-5.22-5.966-7.138c-4.46-2.13-10.568-3.196-18.325-3.196
		C354.094,774.318,348.093,775.384,343.711,777.514z M399.677,759.51h-14.979v-23.97h-16.094v-11.293h16.094v-23.011h14.979V759.51z
		"/>
	<path fill="#FFFFFF" d="M533.272,733.196c4.119,6.179,9.951,11.079,17.514,14.702l-7.187,8.629
		c-5.874-2.983-11.172-6.57-15.895-10.76c-4.858-4.332-8.196-8.452-10.014-12.358c-2.095,3.906-5.569,7.99-10.426,12.252
		c-4.794,4.19-9.958,7.741-15.483,10.653l-6.18-8.416c6.946-3.906,12.415-8.807,16.393-14.702
		c5.468-8.239,8.203-18.608,8.203-31.108h15.078C525.275,714.801,527.945,725.17,533.272,733.196z M564.039,769.631
		c6.477,4.119,9.716,9.162,9.716,15.127c-0.07,5.895-3.337,10.867-9.815,14.915c-7.223,4.545-17.074,6.818-29.56,6.818
		c-12.415,0-22.231-2.273-29.446-6.818c-6.407-4.048-9.617-9.02-9.617-14.915c0-5.966,3.21-11.008,9.617-15.127
		c7.287-4.545,17.102-6.818,29.446-6.818C546.937,762.813,556.823,765.086,564.039,769.631z M516.368,777.514
		c-3.914,1.918-5.866,4.297-5.866,7.138c0,2.77,1.953,5.114,5.866,7.031c4.389,2.201,10.391,3.303,18.012,3.303
		c7.763,0,13.871-1.101,18.324-3.303c3.977-1.918,5.966-4.261,5.966-7.031c0-2.841-1.988-5.22-5.966-7.138
		c-4.453-2.13-10.561-3.196-18.324-3.196C526.759,774.318,520.757,775.384,516.368,777.514z M544.309,728.935v-11.826h13.054
		v-15.874h14.972v58.701h-14.972v-31.002H544.309z"/>
	<g>
		<defs>
			<path id="SVGID_1_" d="M84.844,674.964h550.304c24.105,0,43.637-19.546,43.637-43.637V83.772
				c0-24.098-19.532-43.637-43.637-43.637H84.844c-24.105,0-43.637,19.538-43.637,43.637v547.555
				C41.208,655.418,60.739,674.964,84.844,674.964z"/>
		</defs>
		<clipPath id="SVGID_00000005948087605733053480000017146905891655134906_">
			<use xlink:href="#SVGID_1_"  overflow="visible"/>
		</clipPath>
		<path clip-path="url(#SVGID_00000005948087605733053480000017146905891655134906_)" fill="#212121" d="M746.925,55.221
			c-24.638-23.218-56.84-36.002-90.676-36.002c-36.826,0-71.016,14.759-96.265,41.549c-45.306,48.069-48.225,121.01-7.827,172.274
			l-17.237,18.295l-29.098-27.429l-27.102,28.779l29.091,27.429l-30.86,32.728l28.786,27.117l30.845-32.735l29.106,27.436
			l27.102-28.792l-29.098-27.416l17.244-18.295c21.954,15.213,48.424,23.523,75.264,23.523h0.007
			c36.819,0,71.002-14.759,96.25-41.541c24.226-25.704,36.989-59.298,35.945-94.61C787.358,112.232,772.628,79.447,746.925,55.221z
			 M723.686,215.016c-17.699,18.778-41.662,29.12-67.479,29.12c-23.708,0-46.279-8.956-63.545-25.228
			c-18.026-16.989-28.353-39.965-29.085-64.709c-0.738-24.745,8.21-48.296,25.199-66.315c17.699-18.786,41.662-29.134,67.479-29.134
			c23.708,0,46.279,8.964,63.545,25.235C756.989,119.05,758.728,177.829,723.686,215.016z"/>
		<path clip-path="url(#SVGID_00000005948087605733053480000017146905891655134906_)" fill="#212121" d="M516.447,15.413
			c0-72.913-59.319-132.232-132.232-132.232S251.984-57.5,251.984,15.413c0,66.052,47.898,121.152,112.465,130.754v52.728
			l-26.619-24.638l-22.103,26.328l63.161,60.483l3.665,3.118l1.691,1.712l69.964-63.85l-23.395-24.951l-26.832,22.749v-53.679
			C468.541,136.557,516.44,81.464,516.447,15.413z M384.215-77.287c51.109,0,92.693,41.584,92.693,92.7
			c0,24.751-9.644,48.026-27.145,65.54c-17.514,17.5-40.789,27.145-65.548,27.145c-24.759,0-48.04-9.638-65.547-27.145
			c-17.507-17.507-27.144-40.781-27.144-65.548c0-24.759,9.637-48.033,27.144-65.54C336.175-67.643,359.456-77.287,384.215-77.287z"
			/>
		<path clip-path="url(#SVGID_00000005948087605733053480000017146905891655134906_)" fill="#212121" d="M413.995,366.708
			c-7.152,0-14.055,1.378-20.554,4.112v-10.213c0.064-23.388-23.665-51.698-53.374-51.79c-7.343,0-14.588,1.761-21.577,5.235
			c-2.116-10.299-7.202-19.866-14.482-27.16c-9.872-9.887-22.898-15.121-37.678-15.121c-28.914,0-46.542,19.738-51.655,39.951
			c-7.01-2.415-14.623-3.708-22.251-3.729c-13.19,0-27.288,6.2-37.721,16.598c-9.993,9.964-15.498,22.741-15.498,35.987
			l-0.014,111.962c-6.392-2.209-13.289-3.332-20.547-3.332c-28.686,0-53.275,31.506-53.282,57.288l0.022,36.563
			c0.014,20.413,0.014,22.06-0.029,36.997c-0.113,35.455,23.907,60.618,41.45,78.999l4.829,5.014
			c13.566,13.97,27.6,28.416,27.55,44.049v50.114h32.728v-50.064c0.079-28.914-20.362-49.972-36.79-66.897l-4.652-4.823
			c-18.389-19.268-32.458-35.654-32.387-56.279c0.043-15.007,0.043-16.655,0.029-37.131l-0.022-36.541
			c0.007-10.1,12.11-24.56,20.554-24.56c9.354,0,20.511,2.841,20.547,16.378l-0.007,86.379h32.728l0.021-244.115
			c0-5.746,3.196-10.135,5.881-12.812c4.901-4.879,10.597-7.067,14.07-7.067l0.562,0.022c12.044,0.035,20.589,6.2,20.596,8.153
			l-0.015,178.575h32.728l0.015-203.042c0.014-5.17,3.821-19.908,20.568-19.908c5.98,0,10.86,1.854,14.503,5.504
			c4.482,4.503,6.058,10.54,6.044,14.347l-0.021,200.619h32.728l0.014-164.362c0.036-6.832,10.37-19.063,20.505-19.063
			c10.248,0.028,20.625,12.223,20.604,19.021l-0.007,169.199h32.728l0.007-111.293c0.036-6.428,6.285-19.034,20.554-19.034
			c13.061,0,20.548,7.23,20.548,19.844l-0.015,289.108h32.728l0.015-289.108C467.27,388.817,444.862,366.708,413.995,366.708z"/>
	</g>
</g>
</svg>
