<?xml version="1.0" encoding="utf-8"?>
<!-- Generator: Adobe Illustrator 27.2.0, SVG Export Plug-In . SVG Version: 6.00 Build 0)  -->
<svg version="1.1" id="Layer_1" xmlns="http://www.w3.org/2000/svg" xmlns:xlink="http://www.w3.org/1999/xlink" x="0px" y="0px"
	 viewBox="0 0 720 843.645" enable-background="new 0 0 720 843.645" xml:space="preserve">
<g>
	<rect x="10.692" y="27.047" fill="#FFFFFF" width="689.79" height="685.817"/>
	<path fill="#231F20" d="M669.091,0H50.909C22.791,0,0,22.792,0,50.909v741.826c0,28.111,22.791,50.909,50.909,50.909h618.181
		c28.125,0,50.909-22.798,50.909-50.909V50.909C720,22.792,697.216,0,669.091,0z M676.363,630.674
		c0,24.091-19.531,43.637-43.637,43.637H87.273c-24.098,0-43.637-19.546-43.637-43.637V85.217c0-24.098,19.538-43.637,43.637-43.637
		h545.454c24.106,0,43.637,19.538,43.637,43.637V630.674z"/>
	<path fill="#FFFFFF" d="M224.486,709.007c4.517,5.043,6.775,11.505,6.775,19.389c0,7.812-2.258,14.241-6.775,19.283
		c-5.071,5.611-12.188,8.415-21.364,8.415c-9.24,0-16.364-2.804-21.35-8.415c-4.524-5.042-6.783-11.471-6.783-19.283
		c0-7.884,2.259-14.346,6.783-19.389c4.986-5.54,12.11-8.31,21.35-8.31C212.299,700.697,219.415,703.467,224.486,709.007z
		 M255.956,764.938v38.672h-14.978v-27.166h-60.427v-11.506H255.956z M193.009,716.784c-1.961,2.841-2.94,6.711-2.94,11.612
		c0,4.83,0.98,8.665,2.94,11.506c2.287,3.266,5.668,4.9,10.114,4.9c4.389,0,7.727-1.634,10.028-4.9
		c2.017-2.841,3.025-6.676,3.025-11.506c0-4.9-1.009-8.771-3.025-11.612c-2.301-3.196-5.639-4.794-10.028-4.794
		C198.677,711.99,195.296,713.588,193.009,716.784z M255.956,701.23v9.907h10.22v11.293h-10.22v14.063h10.22v11.399h-10.22v11.506
		h-14.978V701.23H255.956z"/>
	<path fill="#FFFFFF" d="M537.719,751.94h-36.229v7.244h31.271v27.166h-62.749v4.688h63.558v11.612h-64.872
		c-4.453,0-7.863-1.03-10.22-3.09c-2.301-1.988-3.444-4.83-3.444-8.522v-16.194h62.749v-4.154h-62.749v-11.506h31.477v-7.244
		h-36.435v-11.399h87.643V751.94z M532.762,703.361v30.788h-65.377c-4.119,0-7.223-1.029-9.318-3.089
		c-2.017-2.06-3.033-4.972-3.033-8.736v-18.963H532.762z M470.013,714.866v7.777h47.77v-7.777H470.013z"/>
	<path fill="#211821" d="M580.682,517.664l-53.481-51.933l25.973-26.733l-31.307-30.397l24.07-24.787l-28.047-27.234l12.038-12.39
		L328.414,148.478l18.367-18.913l-21.513-20.902l-46.875,48.26l-44.02-42.753l25.966-26.736l-21.52-20.902L99.478,210.001
		l21.52,20.903l25.334-26.087l44.02,42.756l-44.965,46.304l21.513,20.899l16.477-16.957L384.885,493.53l15.199-15.653
		l-48.906-47.501l55.739-57.387l-15.654-15.202l-55.738,57.391l-24.781-24.07l55.739-57.391l-15.653-15.202l-55.739,57.394
		l-24.127-23.437l55.732-57.386l-15.653-15.203l-55.732,57.39l-56.741-55.106l114.638-118.038l201.521,195.715l-112.742,116.08
		l28.047,27.237l26.598-27.393l31.307,30.405l24.063-24.787l53.473,51.933L580.682,517.664z M205.558,231.92l-44.02-42.752
		l57.628-59.347l44.021,42.756L205.558,231.92z"/>
	<path fill="#211821" d="M593.394,604.298l0.128,0.013c0,0-21.826-55.909-24.098-58.637c-2.273-2.727-21.484,53.922-21.484,53.922
		l0.142,0.014c-3.927,5.881-6.385,13.309-6.385,21.519c0,18.836,12.415,34.091,27.727,34.091s27.727-15.255,27.727-34.091
		C597.151,614.978,595.716,609.282,593.394,604.298z"/>
</g>
</svg>
