<?xml version="1.0" encoding="utf-8"?>
<!-- Generator: Adobe Illustrator 27.2.0, SVG Export Plug-In . SVG Version: 6.00 Build 0)  -->
<svg version="1.1" id="Layer_1" xmlns="http://www.w3.org/2000/svg" xmlns:xlink="http://www.w3.org/1999/xlink" x="0px" y="0px"
	 viewBox="0 0 720 843.649" enable-background="new 0 0 720 843.649" xml:space="preserve">
<g>
	<rect x="10.689" y="27.047" fill="#FFFFFF" width="689.794" height="685.82"/>
	<path fill="#231F20" d="M669.09,0H50.91C22.784,0,0,22.792,0,50.91v741.83c0,28.112,22.784,50.91,50.91,50.91H669.09
		c28.125,0,50.91-22.798,50.91-50.91V50.91C720,22.792,697.216,0,669.09,0z M676.363,630.678c0,24.091-19.531,43.637-43.637,43.637
		H87.274c-24.106,0-43.637-19.546-43.637-43.637V85.218c0-24.098,19.531-43.637,43.637-43.637h545.453
		c24.106,0,43.637,19.538,43.637,43.637V630.678z"/>
	<path fill="#FFFFFF" d="M93.722,756.184c-4.531,3.842-10.106,5.767-16.719,5.767c-8.31,0-14.83-2.848-19.553-8.551
		c-4.283-5.106-6.428-11.434-6.428-18.992c0-7.692,2.145-14.084,6.428-19.191c4.723-5.632,11.243-8.452,19.553-8.452
		c7.614,0,13.793,2.451,18.509,7.359c4.219,4.439,6.676,10.142,7.372,17.102h10.767v-23.964h13.978v71.194h-13.978v-35.995H101.94
		C100.491,748.165,97.757,752.739,93.722,756.184z M71.521,791.184h56.776v10.739H69.916c-4.475,0-7.685-0.831-9.631-2.486
		c-1.832-1.655-2.741-4.34-2.741-8.055v-20.285h13.977V791.184z M67.934,722.674c-1.953,3.119-2.926,7.06-2.926,11.834
		c0,4.708,0.973,8.615,2.926,11.733c2.138,3.444,5.164,5.17,9.07,5.17c3.835,0,6.832-1.726,8.978-5.17
		c2.009-3.118,3.018-7.025,3.018-11.733c0-4.774-1.009-8.715-3.018-11.834c-2.145-3.444-5.143-5.17-8.978-5.17
		C73.097,717.504,70.072,719.231,67.934,722.674z"/>
	<path fill="#FFFFFF" d="M182.48,783.129c-4.538,8.552-10.802,12.828-18.8,12.828c-8.252,0-14.673-4.474-19.269-13.423
		c-4.218-8.218-6.328-18.893-6.328-32.018c0-12.393,2.11-22.606,6.328-30.625c4.66-8.751,11.087-13.126,19.269-13.126
		c6.989,0,12.756,3.318,17.287,9.944c4.091,6.101,6.648,14.183,7.656,24.261h12.088v-33.708h13.978v95.654h-13.978v-50.809h-11.527
		C188.936,764.835,186.699,775.176,182.48,783.129z M154.902,727.05c-1.832,6.031-2.741,13.822-2.741,23.367
		c0,10.34,0.909,18.657,2.741,24.957c2.01,6.762,4.908,10.142,8.686,10.142c3.715,0,6.584-3.38,8.594-10.142
		c1.889-6.3,2.833-14.617,2.833-24.957c0-9.546-0.944-17.337-2.833-23.367c-2.081-6.562-4.943-9.843-8.594-9.843
		C159.874,717.207,156.976,720.488,154.902,727.05z"/>
	<path fill="#FFFFFF" d="M287.957,707.262h13.878v95.654h-13.878v-6.959h-64.993v-10.938h64.993V707.262z M271.608,715.715
		c4.41,5.37,6.619,12.067,6.619,20.085c0,8.019-2.209,14.716-6.619,20.085c-4.844,6.03-11.52,9.049-20.021,9.049
		c-8.566,0-15.277-3.019-20.121-9.049c-4.347-5.37-6.52-12.066-6.52-20.085c0-8.09,2.173-14.78,6.52-20.085
		c4.844-5.966,11.555-8.95,20.121-8.95C260.088,706.765,266.764,709.749,271.608,715.715z M242.048,722.973
		c-1.96,3.317-2.926,7.593-2.926,12.827s0.966,9.51,2.926,12.826c2.266,3.779,5.476,5.668,9.631,5.668
		c4.091,0,7.273-1.889,9.546-5.668c2.009-3.38,3.018-7.656,3.018-12.826s-1.009-9.447-3.018-12.827
		c-2.33-3.778-5.512-5.667-9.546-5.667C247.524,717.306,244.314,719.195,242.048,722.973z"/>
	<path fill="#FFFFFF" d="M415.302,772.789h-34.191v30.128H367.22v-30.128h-33.814v-10.838h81.897V772.789z M352.02,708.059v9.546
		h44.582v-9.546h13.985v43.651h-59.802c-4.474,0-7.741-0.895-9.823-2.684c-1.953-1.79-2.926-4.538-2.926-8.253v-32.713H352.02z
		 M352.02,728.243v12.727h44.582v-12.727H352.02z"/>
	<path fill="#FFFFFF" d="M471.944,709.252v10.54h-17.38c0,7.756,2.359,14.717,7.088,20.881c3.964,5.171,9.063,9.283,15.299,12.33
		l-6.421,8.253c-4.66-2.188-8.978-4.873-12.94-8.055c-4.411-3.444-7.749-6.959-10.015-10.539c-2.201,3.58-5.511,7.095-9.915,10.539
		c-4.034,3.182-8.409,5.867-13.139,8.055l-5.668-8.253c6.3-2.919,11.371-7.024,15.213-12.33c4.403-6.03,6.612-12.99,6.612-20.881
		h-16.911v-10.54H471.944z M498.393,766.724v36.094h-13.978v-25.455h-57.721v-10.639H498.393z M498.393,761.653h-13.978v-22.373
		h-15.021V728.74h15.021v-21.478h13.978V761.653z"/>
	<path fill="#FFFFFF" d="M560.325,709.252v10.937h-18.331c0,5.634,2.614,10.974,7.841,16.01c4.034,3.842,9.134,7.195,15.306,10.043
		l-6.613,8.054c-5.1-2.386-9.603-4.872-13.509-7.458c-4.716-3.117-8.06-6.129-10.014-9.048c-2.138,2.983-5.476,6.031-10.015,9.148
		c-4.027,2.72-8.466,5.17-13.309,7.358l-5.668-8.054c5.909-2.721,10.795-6.066,14.638-10.043c4.908-5.036,7.364-10.376,7.364-16.01
		h-17.187v-10.937H560.325z M585.446,758.471v27.045h-56.108v5.37h56.776v11.037h-57.998c-4.161,0-7.343-0.959-9.546-2.884
		c-2.137-1.852-3.21-4.51-3.21-7.954v-16.506h56.109v-5.171H515.36v-10.938H585.446z M585.446,755.289h-13.977v-18.892h-13.317
		V725.36h13.317v-18.098h13.977V755.289z"/>
	<path fill="#FFFFFF" d="M636.044,737.093c3.835,5.767,9.289,10.341,16.342,13.722l-6.711,8.053
		c-5.476-2.783-10.419-6.129-14.83-10.043c-4.531-4.04-7.649-7.89-9.346-11.534c-1.954,3.644-5.199,7.458-9.73,11.436
		c-4.475,3.913-9.29,7.223-14.453,9.943l-5.76-7.855c6.477-3.644,11.583-8.218,15.298-13.722c5.1-7.692,7.656-17.365,7.656-29.034
		h14.07C628.579,719.927,631.072,729.6,636.044,737.093z M664.758,771.098c6.044,3.844,9.07,8.552,9.07,14.12
		c-0.064,5.504-3.118,10.143-9.162,13.921c-6.74,4.239-15.938,6.364-27.586,6.364c-11.591,0-20.753-2.124-27.486-6.364
		c-5.98-3.778-8.977-8.417-8.977-13.921c0-5.568,2.997-10.276,8.977-14.12c6.804-4.239,15.967-6.364,27.486-6.364
		C648.799,764.734,658.018,766.859,664.758,771.098z M620.269,778.457c-3.658,1.79-5.476,4.012-5.476,6.663
		c0,2.585,1.818,4.772,5.476,6.562c4.091,2.052,9.695,3.082,16.811,3.082c7.244,0,12.94-1.03,17.103-3.082
		c3.708-1.79,5.568-3.977,5.568-6.562c0-2.65-1.86-4.873-5.568-6.663c-4.162-1.988-9.858-2.983-17.103-2.983
		C629.964,775.473,624.36,776.468,620.269,778.457z M646.342,733.116v-11.037h12.188v-14.816h13.977v54.787H658.53v-28.934H646.342z
		"/>
	<path d="M537.122,126.927H182.878c-47.11,0-85.306,46.346-85.306,94.546V379.05c0,48.203,38.197,94.546,85.306,94.546h23.786
		c0,0,4.851,48.487,19.397,83.637c14.546,35.149,54.546,55.76,54.546,55.76h7.273c0,0-16.975-53.338-9.702-83.637
		c7.273-30.305,14.546-55.76,14.546-55.76h244.399c47.117,0,85.306-46.343,85.306-94.546V221.474
		C622.428,173.273,584.239,126.927,537.122,126.927z M227.701,265.859v42.304h-42.309v-31.725c0-8.708,0.625-15.653,1.875-20.842
		c1.236-5.181,3.615-10.263,7.152-15.238c3.523-4.77,7.663-8.658,12.436-11.666c4.772-3.004,8.395-4.823,10.887-5.444l10.895,16.797
		c-2.706,0.416-5.505,1.35-8.41,2.802c-2.897,1.449-5.589,3.63-8.082,6.531c-2.287,2.489-3.835,5.341-4.666,8.551
		c-0.831,3.22-1.25,5.863-1.25,7.93H227.701z M282.446,265.859v42.304h-42.302v-31.725c0-8.708,0.618-15.653,1.868-20.842
		c1.236-5.181,3.615-10.263,7.152-15.238c3.522-4.77,7.67-8.658,12.436-11.666c4.773-3.004,8.395-4.823,10.888-5.444l10.895,16.797
		c-2.706,0.416-5.504,1.35-8.409,2.802c-2.898,1.449-5.59,3.63-8.082,6.531c-2.287,2.489-3.836,5.341-4.667,8.551
		c-0.831,3.22-1.249,5.863-1.249,7.93H282.446z M483.265,255.288c0,8.708-0.674,15.707-2.024,20.994
		c-1.349,5.288-3.686,10.217-6.996,14.773c-3.736,4.978-7.926,8.974-12.593,11.978c-4.666,3.008-8.245,4.719-10.738,5.131
		l-10.881-16.797c2.486,0,5.178-0.777,8.082-2.332c2.905-1.551,5.703-3.884,8.395-6.999c2.074-2.277,3.58-4.975,4.517-8.086
		c0.937-3.111,1.399-5.909,1.399-8.399h-21.471v-42.302h42.309V255.288z M538.01,255.288c0,8.708-0.675,15.707-2.024,20.994
		c-1.35,5.288-3.679,10.217-6.996,14.773c-3.735,4.978-7.926,8.974-12.592,11.978c-4.666,3.008-8.246,4.719-10.739,5.131
		l-10.881-16.797c2.486,0,5.178-0.777,8.083-2.332c2.905-1.551,5.703-3.884,8.395-6.999c2.073-2.277,3.579-4.975,4.517-8.086
		c0.93-3.111,1.399-5.909,1.399-8.399h-21.47v-42.302h42.309V255.288z"/>
</g>
</svg>
