<?xml version="1.0" encoding="UTF-8"?>
<svg id="_레이어_1" data-name="레이어 1" xmlns="http://www.w3.org/2000/svg" version="1.1" viewBox="0 0 720 834.69">
  <rect x="21.604" y="23.875" width="660.165" height="695.353" fill="#a31639" stroke-width="0"/>
  <path d="M322.006,88.519c-69.815,89.204-161.395,95.183-174.138,95.42v81.295s7.977.131,65.011.298c37.446.1,36.936,37.285,36.936,37.285v371.897h439.646V88.519h-367.455Z" fill="#9ca3ab" stroke-width="0"/>
  <path d="M676.828,137.505c-27.208-10.46-62.745-15.69-106.577-15.69-61.816,0-108.245,13.064-139.269,39.22-31.039,26.128-46.554,65.34-46.554,117.61,0,30.269,5.012,55.214,15.037,74.835,10.009,19.642,32.701,45.133,58.383,56.695,0,0,12.314,7.063,32.569,11.668,10.332,3.545,42.627,11.72,111.952,8.303.095,57.831.278,191.447-.046,195.757-.414,5.483-3.12,10.597-8.138,15.349-5.035,4.743-11.621,7.116-19.744,7.116-17.655,0-27.984-8.248-30.974-24.757-2.98-16.517-4.474-44.407-4.474-83.692v-37.901h-153.926v32.975c0,56.454,6.688,98.177,20.064,125.146,2.544,5.15,4.489,7.892,7.71,12.557l220.978-.82,18.895-6.906,17.27-16.669,7.542-15.228-.698-495.568ZM544.051,265.72c0-19.571,1.878-32.939,5.636-40.084,3.764-7.167,11.01-10.743,21.761-10.743,11.018,0,18.459,3.329,22.356,9.974,3.894,6.658,5.845,20.28,5.845,40.852v41.802c0,21.594-1.871,35.848-5.636,42.753-3.757,6.905-11.018,10.358-21.76,10.358-10.206,0-17.467-3.511-21.776-10.553-4.286-7.022-6.425-19.701-6.425-38.031v-46.328Z" fill="#fff" stroke-width="0"/>
  <path d="M669.027,0H50.973C26.333,0,0,26.538,0,51.365v731.96c0,24.815,26.333,51.365,50.973,51.365h618.053c24.634,0,50.973-26.551,50.973-51.365V51.365c0-24.827-26.339-51.365-50.973-51.365M675.317,627.412c0,21.267-17.13,38.523-38.236,38.523H82.913c-21.113,0-38.236-17.255-38.236-38.523V81.65c0-21.274,17.124-38.523,38.236-38.523h554.169c21.106,0,38.236,17.248,38.236,38.523v545.762Z" fill="#231f20" stroke-width="0"/>
  <path d="M71.321,708.955v-7.467h13.428v7.467h18.132v10.161h-18.132c0,6.011,2.016,11.543,6.061,16.589,3.746,4.699,8.917,8.569,15.512,11.624l-5.992,7.834c-4.828-1.936-9.358-4.605-13.596-8.027-4.231-3.491-7.224-6.938-8.978-10.379-1.867,3.441-4.96,6.888-9.247,10.379-4.349,3.541-8.979,6.253-13.876,8.139l-4.984-7.759c6.223-3.099,11.269-7.006,15.139-11.73,4.349-5.232,6.534-10.783,6.534-16.67h-18.138v-10.161h18.138ZM119.282,764.191c5.818,3.721,8.711,8.326,8.711,13.752-.062,5.357-3.006,9.881-8.792,13.565-6.471,4.131-15.3,6.203-26.482,6.203s-19.924-2.072-26.389-6.203c-5.737-3.684-8.612-8.207-8.612-13.565,0-5.426,2.875-10.031,8.612-13.752,6.527-4.144,15.326-6.203,26.389-6.203,11.244,0,20.092,2.06,26.563,6.203M76.585,771.353c-3.516,1.742-5.264,3.908-5.264,6.484,0,2.52,1.748,4.648,5.264,6.397,3.913,2.01,9.29,3.018,16.134,3.018,6.944,0,12.426-1.008,16.408-3.018,3.559-1.749,5.357-3.877,5.357-6.397,0-2.576-1.798-4.742-5.357-6.484-3.982-1.941-9.464-2.906-16.408-2.906-6.844,0-12.221.965-16.134,2.906M126.724,755.163h-13.421v-18.3h-15.332v-10.18h15.332v-24.702h13.421v53.183Z" fill="#fff" stroke-width="0"/>
  <path d="M198.076,733.073c5.37,6.203,13.266,11.119,23.67,14.722l-5.992,8.257c-8.463-3.049-15.413-6.471-20.858-10.273-5.675-4.026-10.186-8.723-13.502-14.137-3.093,5.413-7.473,10.111-13.154,14.137-5.438,3.802-12.457,7.224-21.032,10.273l-5.357-8.257c9.919-3.603,17.56-8.562,22.955-14.815,6.695-7.809,10.049-17.889,10.049-30.228h13.341c0,12.532,3.297,22.637,9.881,30.322M174.854,778.229v-25.866h13.341v25.866h32.723v10.174h-78.514v-10.174h32.45Z" fill="#fff" stroke-width="0"/>
  <path d="M294.28,736.95h-24.665v-10.553h24.665v-7.286h-24.211v-10.46h24.211v-6.67h13.421v67.432h-13.421v-14.137h-48.795c-3.261,0-5.675-1.014-7.249-3.018-1.45-1.792-2.171-4.393-2.171-7.753v-41.752h13.415v42.15h44.801v-7.952ZM253.822,783.76h54.514v10.46h-56.045c-4.3,0-7.367-.815-9.246-2.433-1.761-1.605-2.639-4.231-2.639-7.834v-19.762h13.416v19.569Z" fill="#fff" stroke-width="0"/>
  <path d="M367.542,714.276c4.094,7.821,6.16,17.777,6.16,29.842,0,12.793-2.066,23.203-6.16,31.198-4.362,8.724-10.472,13.086-18.319,13.086-7.933,0-14.1-4.362-18.512-13.086-4.038-7.995-6.066-18.405-6.066-31.198,0-12.065,2.029-22.021,6.066-29.842,4.468-8.525,10.641-12.787,18.512-12.787,7.784,0,13.888,4.263,18.319,12.787M340.786,721.244c-1.767,5.893-2.632,13.477-2.632,22.786,0,10.074.865,18.182,2.632,24.311,1.929,6.59,4.716,9.888,8.338,9.888,3.566,0,6.322-3.298,8.251-9.888,1.817-6.129,2.726-14.237,2.726-24.311,0-9.309-.909-16.894-2.726-22.786-2.003-6.384-4.748-9.576-8.251-9.576-3.572,0-6.347,3.192-8.338,9.576M398.187,795.191h-13.416v-93.211h13.416v93.211Z" fill="#fff" stroke-width="0"/>
  <path d="M420.656,728.624c-1.743-2.458-2.62-5.078-2.62-7.846,0-5.37,2.9-9.85,8.705-13.472,6.409-3.877,15.195-5.818,26.383-5.818,11.131,0,19.93,1.941,26.395,5.818,5.862,3.622,8.786,8.102,8.786,13.472,0,2.768-.902,5.389-2.712,7.846-1.948,2.514-4.661,4.717-8.164,6.583v9.987h14.959v10.553h-78.526v-10.553h14.778v-9.987c-3.51-1.866-6.167-4.07-7.983-6.583M478.424,766.892c5.687,3.422,8.525,7.653,8.525,12.687,0,4.916-2.838,9.078-8.525,12.507-6.285,3.808-14.747,5.712-25.387,5.712-10.696,0-19.19-1.904-25.487-5.712-5.606-3.429-8.432-7.591-8.432-12.507,0-5.034,2.825-9.265,8.432-12.687,6.297-3.815,14.791-5.719,25.487-5.719,10.64,0,19.102,1.904,25.387,5.719M437.164,714.767c-3.498,1.556-5.246,3.547-5.246,6.011,0,2.37,1.748,4.349,5.246,5.905,3.814,1.693,9.072,2.52,15.779,2.52s12.009-.827,15.874-2.52c3.497-1.555,5.257-3.534,5.257-5.905,0-2.464-1.76-4.455-5.257-6.011-3.864-1.618-9.159-2.426-15.874-2.426s-11.965.809-15.779,2.426M437.624,774.259c-3.391,1.413-5.083,3.155-5.083,5.227s1.692,3.815,5.083,5.246c3.808,1.599,8.973,2.414,15.5,2.414,6.347,0,11.393-.815,15.138-2.414,3.441-1.431,5.171-3.179,5.171-5.246s-1.73-3.814-5.171-5.227c-3.746-1.549-8.792-2.327-15.138-2.327-6.528,0-11.692.778-15.5,2.327M464,745.194v-6.005c-1.562.243-3.292.473-5.152.672-1.705.131-3.609.193-5.724.193-2.166,0-4.101-.062-5.8-.193-1.929-.199-3.683-.429-5.264-.672v6.005h21.94Z" fill="#fff" stroke-width="0"/>
  <path d="M582.878,748.106h-32.475v6.59h28.032v24.69h-56.226v4.268h56.941v10.566h-58.111c-4.001,0-7.05-.933-9.172-2.818-2.047-1.799-3.074-4.387-3.074-7.747v-14.735h56.225v-3.764h-56.225v-10.46h28.199v-6.59h-32.648v-10.385h78.532v10.385ZM522.21,702.752v4.467h42.81v-4.467h13.416v31.591h-57.395c-4.3,0-7.442-.877-9.445-2.626-1.867-1.736-2.8-4.424-2.8-8.033v-20.932h13.415ZM522.21,723.877h42.816v-6.304h-42.816v6.304Z" fill="#fff" stroke-width="0"/>
  <path d="M638.282,703.922v28.871c0,13.814-3.391,25.419-10.167,34.783-6.291,8.587-15.637,15.531-28.025,20.827l-5.332-7.94c9.066-4.144,16.103-9.402,21.125-15.799,6.042-7.685,9.066-16.956,9.066-27.802v-22.388h-28.032v-10.553h41.366ZM668.373,701.98v37.788h9.153v10.666h-9.153v44.757h-13.428v-93.211h13.428Z" fill="#fff" stroke-width="0"/>
</svg>