<?xml version="1.0" encoding="utf-8"?>
<!-- Generator: Adobe Illustrator 27.2.0, SVG Export Plug-In . SVG Version: 6.00 Build 0)  -->
<svg version="1.1" id="Layer_1" xmlns="http://www.w3.org/2000/svg" xmlns:xlink="http://www.w3.org/1999/xlink" x="0px" y="0px"
	 viewBox="0 0 720 843.642" enable-background="new 0 0 720 843.642" xml:space="preserve">
<g>
	<rect x="10.692" y="27.047" fill="#FFFFFF" width="689.784" height="685.814"/>
	<path fill="#231F20" d="M669.091,0H50.909C22.791,0,0,22.792,0,50.909v741.823c0,28.111,22.791,50.909,50.909,50.909h618.182
		c28.118,0,50.909-22.798,50.909-50.909V50.909C720,22.792,697.209,0,669.091,0z M676.364,630.672
		c0,24.091-19.538,43.636-43.636,43.636H87.273c-24.098,0-43.636-19.545-43.636-43.636V85.217c0-24.098,19.538-43.636,43.636-43.636
		h545.454c24.098,0,43.636,19.538,43.636,43.636V630.672z"/>
	<path fill-rule="evenodd" clip-rule="evenodd" fill="#231F20" d="M566.658,388.045c16.818,0,30.455-13.636,30.455-30.458
		c0-16.818-13.636-30.455-30.455-30.455s-30.455,13.636-30.455,30.455C536.203,374.408,549.84,388.045,566.658,388.045z"/>
	<path fill-rule="evenodd" clip-rule="evenodd" fill="#231F20" d="M645.22,393.698c-5.124-6.193-14.297-7.06-20.476-1.945
		l-42.156,34.828l-43.373-43.366c-2.727-2.727-6.428-4.261-10.284-4.261h-57.273c-3.746,0-7.348,1.441-10.053,4.033l-58.061,55.54
		c-5.807,5.554-6.012,14.759-0.458,20.561c2.86,2.99,6.683,4.496,10.515,4.496c3.612,0,7.233-1.343,10.049-4.034l53.846-51.505
		h14.24l-46.217,63.452l-36.364,46.548H329.84c-10.043,0-18.182,8.139-18.182,18.182s8.139,18.182,18.182,18.182h88.182
		c5.596,0,10.881-2.585,14.329-6.988l34.283-43.892l42.422,32.997l-16.19,88.238c-1.811,9.873,4.727,19.347,14.602,21.165
		c1.108,0.199,2.212,0.299,3.303,0.299c8.604,0,16.254-6.137,17.863-14.9l18.182-99.091c1.225-6.676-1.367-13.474-6.722-17.636
		l-34.262-26.648l42.561-54.424l22.983,22.983c5.302,5.298,13.772,5.71,19.549,0.923l52.351-43.26
		C649.467,409.054,650.338,399.891,645.22,393.698z"/>
	<polygon fill="#231F20" points="450.955,145.619 519.197,212.398 587.404,279.163 592.645,183.853 597.905,88.524 551.08,136.262 
		508.952,23.495 481.641,33.51 524.03,146.997 	"/>
	<polygon fill="#231F20" points="160.625,158.29 255.426,169.682 350.185,181.081 296.285,102.306 242.386,23.495 234.329,89.88 
		132.23,26.109 100.476,41.58 219.418,114.869 	"/>
	<polygon fill="#231F20" points="97.915,373.059 187.89,341.102 277.829,309.17 194.521,262.583 111.2,215.964 133.505,279.007 
		13.7,267.295 10.692,296.23 131.264,308.02 	"/>
	<polygon fill="#231F20" points="239.104,650.687 259.676,588.258 280.251,525.857 219.762,551.525 159.24,577.193 202.951,591.653 
		146.037,651.894 160.511,665.729 217.788,605.105 	"/>
	<path fill="#FFFFFF" d="M228.992,703.358v11.505h-11.439v14.595h11.439v11.399H197.01v7.99h35.42v11.506h-87.642v-11.506h37.343
		v-7.99h-33.803v-11.399h11.637v-14.595h-11.637v-11.505H228.992z M227.471,768.45v35.156h-14.979v-23.437h-62.748V768.45H227.471z
		 M174.943,714.863v14.595h27.631v-14.595H174.943z"/>
	<path fill="#FFFFFF" d="M368.352,703.145v32.066h-33.602v11.506h51.211v-5.327h-15.689v-11.293h15.689v-9.588h-15.689V709.11
		h15.689v-7.883h14.98v58.914h-14.98v-2.131h-52.529c-4.52,0-7.926-0.959-10.22-2.876c-2.294-1.988-3.441-4.865-3.441-8.629v-22.585
		h33.704v-9.481h-33.704v-11.292H368.352z M400.941,766.212v37.393h-14.98v-25.994h-61.839v-11.399H400.941z"/>
	<path fill="#FFFFFF" d="M534.534,733.187c4.116,6.179,9.951,11.08,17.511,14.702l-7.188,8.629
		c-5.87-2.983-11.168-6.569-15.887-10.76c-4.858-4.332-8.201-8.452-10.022-12.359c-2.092,3.907-5.569,7.991-10.427,12.252
		c-4.79,4.19-9.95,7.741-15.483,10.652l-6.172-8.415c6.947-3.906,12.411-8.807,16.392-14.702c5.469-8.239,8.2-18.608,8.2-31.108
		h15.082C526.542,714.792,529.204,725.161,534.534,733.187z M565.302,769.622c6.477,4.119,9.716,9.162,9.716,15.128
		c-0.068,5.894-3.341,10.866-9.819,14.914c-7.22,4.545-17.07,6.818-29.553,6.818c-12.415,0-22.23-2.273-29.449-6.818
		c-6.409-4.048-9.613-9.02-9.613-14.914c0-5.966,3.204-11.009,9.613-15.128c7.287-4.545,17.106-6.818,29.449-6.818
		C548.195,762.804,558.082,765.076,565.302,769.622z M517.635,777.506c-3.917,1.917-5.873,4.296-5.873,7.137
		c0,2.77,1.956,5.113,5.873,7.031c4.382,2.201,10.387,3.302,18.011,3.302c7.759,0,13.868-1.1,18.321-3.302
		c3.98-1.918,5.969-4.261,5.969-7.031c0-2.841-1.989-5.22-5.969-7.137c-4.454-2.131-10.562-3.197-18.321-3.197
		C528.022,774.308,522.017,775.375,517.635,777.506z M545.568,728.926V717.1h13.054v-15.873h14.979v58.7h-14.979v-31.001H545.568z"
		/>
</g>
</svg>
